<svg width="128pt" height="128pt" viewBox="0 0 128 128" xmlns="http://www.w3.org/2000/svg">
    <path fill="#b02321" d="M53.33 29.04c-.85-7.11 7.01-13.01 13.64-10.99 6.32 2.03 8.62 10.68 4.99 15.98-1.14 1.68-3.06 2.47-4.78 3.37l.08 1.96c5.14.15 10.23 1.15 15.01 3.06-.13 1.92-.24 3.85-.36 5.77-5.03 1.17-10.16 1.82-15.31 2.14-.63 11.55.33 23.1.45 34.66.11 3.86-.61 7.96 1.09 11.59 6.24 3.81 14.54.22 18-5.74-1.42-.6-2.84-1.18-4.27-1.74 2.03-1.32 4.44-2.22 6.07-4.08 1.93-2.79 2.67-6.18 4-9.26 3.02 4.41 3.16 9.99 2.64 15.12-.09 2.13-1.39 3.86-2.45 5.61-1.03-.36-2.03-1.79-3.2-1.05-2.06 2.45-3.65 5.32-6.06 7.47-5.52 5.11-14.1 5.09-19.1 10.96-1.71-1.4-3.39-2.85-5.23-4.08-3.83-2.19-8.65-2.22-12.13-5.09-3.83-2.74-6.21-6.9-8.8-10.72-.43.68-1.31 2.04-1.75 2.72-5.54-5.37-3.26-14.06-1.06-20.48.3.13.9.38 1.21.51.75 2.82 1.45 5.77 3.16 8.19 1.39 2.25 4.77 2.22 5.83 4.75-.63.06-1.89.17-2.51.23-1.47-.42-2.28 1.5-.82 2.14 2.99 3.12 6.71 6.02 11.21 6.23 2.43.24 5.26-.38 6.45-2.74 1.53-5.38.65-11.03 1.11-16.53.65-9.57.66-19.16.52-28.75-2.9-.3-5.79-.57-8.7-.74-2.41-.09-4.74-.69-7.04-1.38-.02-1.86-.03-3.71-.07-5.57 4.88-2.87 10.7-2.22 15.88-3.9-3.03-2.78-7.78-4.81-7.7-9.62m4.06-1.01c-.37 1.97 1.11 3.35 2.19 4.76 2.41-2.07 5.71-1.91 8.1.02 1.46-1.71 2.2-3.84 2.86-5.95-.82-1.28-1.58-2.61-2.59-3.75-1.63-1.65-4.15-1.38-6.26-1.65-2.08 1.64-4.76 3.53-4.3 6.57z"/>
    <path fill="#0e0203" opacity=".31" d="M82.27 42.42c.68 2.03 1.77 5.01-.42 6.52-4.58 1.62-9.51 1.78-14.31 2.3-.92 15.13 1.17 30.22.6 45.34-1.7-3.63-.98-7.73-1.09-11.59-.12-11.56-1.08-23.11-.45-34.66 5.15-.32 10.28-.97 15.31-2.14.12-1.92.23-3.85.36-5.77z"/>
    <path fill="#300909" opacity=".53" d="M52.26 49.51c2.91.17 5.8.44 8.7.74.14 9.59.13 19.18-.52 28.75-.46 5.5.42 11.15-1.11 16.53.34-14.69.56-29.38.94-44.06-3.48-1.11-7.14-1.22-10.74-1.56.9-.17 1.82-.3 2.73-.4z"/>
    <path fill="#2c0707" opacity=".64" d="M41.67 92.04c-1.46-.64-.65-2.56.82-2.14l.3.79c-.28.34-.84 1.01-1.12 1.35z"/>
</svg>
