<svg width="128pt" height="128pt" viewBox="0 0 128 128" xmlns="http://www.w3.org/2000/svg">
    <path fill="#fff" d="M60.51 31.99c1.98-.75 4.09-.94 6.05.01.03 2.41.01 4.83-.07 7.24 5.15.71 10.47.98 15.29 3.14.76 1.83.2 3.91.25 5.84-5.06 1.02-10.18 1.99-15.38 1.98-.74 14.59.69 29.17.55 43.76-.01 4.31 5.32 4.75 8.52 4.1 4.67-.33 8.28-3.67 10.72-7.4-1.5-.48-3.01-.94-4.43-1.63 2.02-1.32 4.53-2.02 6.04-4.02 2.09-2.63 2.64-6.07 3.74-9.16 2.59 3.86 3.17 8.72 2.86 13.26-.21 2.75-.8 6.01-3.5 7.42-.3-.69-.89-2.06-1.19-2.75-3.37 4.32-6.24 9.5-11.43 11.91-5.12 2.38-10.99 3.67-14.91 8.06-1.46-1.36-2.91-2.74-4.6-3.82-3.93-2.45-8.97-2.41-12.61-5.41-3.91-2.79-6.08-7.19-9.1-10.79-.28.64-.85 1.92-1.13 2.56-2.14-.89-2.92-3.28-3.32-5.38-.72-5.1.19-10.37 2.41-15.01 1.36 3.22 1.99 6.87 4.22 9.66 1.64 1.6 3.85 2.38 5.8 3.52-1.48.58-2.98 1.11-4.47 1.63 3.48 5.79 10.9 9.34 17.47 6.84 2.58-4.42 1.67-9.71 1.9-14.58.36-10.85.74-21.7.64-32.55-5.21-.62-10.52-.78-15.57-2.36-.04-1.74-.08-3.48-.14-5.22 4.75-2.85 10.37-2.84 15.68-3.55-.08-2.43-.21-4.87-.29-7.3z"/>
</svg>
