<svg width="128pt" height="128pt" viewBox="0 0 128 128" xmlns="http://www.w3.org/2000/svg">
    <path fill="#ba2c2c" d="M34.89 28.31c3.53-4.1 7.31-8.13 12.17-10.66 3.12-.42 6.2.88 9.15 1.78.09 4.41 1.24 8.69 1.8 13.05 2.81-.15 5.64-.21 8.44.08-.86 4.1-.98 8.3-.77 12.48 3.75-.57 6.91-2.78 10.02-4.79-.02 2.27-.71 4.46-2.78 5.67-2.31.89-4.68 1.63-7.02 2.45 6.92 1.29 13.95 3.49 19.07 8.59 6.35 5.84 10.13 14.38 10.01 23.02.02 10.46-5.76 20.69-14.72 26.09-12.48 7.95-30.66 5.28-39.92-6.39-7.72-8.85-9.36-22.19-4.53-32.8 2.35-5.34 6.43-9.65 11.03-13.15-2.3-3-4.99-5.73-8.26-7.67-.82-2.64-.56-6.15 1.33-8.2 1.61 1.15 1.86 3.56 3.7 4.54 2.46 1.51 5.27 2.79 8.19 2.87 3.57-1.51 6.59-4.2 8.55-7.54-2.23 1.4-4.17 3.24-6.5 4.49-3.15 1.18-6.96.51-9.59-1.54-.83-2.36-1.01-5.17-3.28-6.71-2.05-1.84-5.21-2.81-6.09-5.66z"/>
    <path fill="#3a0d0e" opacity=".53" d="M78.81 23.99c1.58-.56 3.17-1.08 4.77-1.59 1.26 3.03-.01 6.25-.46 9.31-.83 3.68-1.27 7.75-3.97 10.62 2.77-5.61 3.53-11.91 4.54-18.01-1.4.2-2.74.63-4.09 1.04-.16 2.39-.34 4.77-.64 7.14-.17-2.83-.19-5.67-.15-8.51z"/>
    <path fill="#b52829" d="M79.6 25.36c1.35-.41 2.69-.84 4.09-1.04-1.01 6.1-1.77 12.4-4.54 18.01-1.4 2.09-4.09 2.57-6.23 3.59 2.07-1.21 2.76-3.4 2.78-5.67 1.31-2.48 3.42-4.7 3.26-7.75.3-2.37.48-4.75.64-7.14z"/>
    <path fill="#010000" opacity=".18" d="M40.98 33.97c2.27 1.54 2.45 4.35 3.28 6.71 2.63 2.05 6.44 2.72 9.59 1.54 2.33-1.25 4.27-3.09 6.5-4.49-1.96 3.34-4.98 6.03-8.55 7.54-2.92-.08-5.73-1.36-8.19-2.87-1.84-.98-2.09-3.39-3.7-4.54-1.89 2.05-2.15 5.56-1.33 8.2-1.13-.17-1.6-.83-1.43-1.97-.16-2.32.59-4.56 1.18-6.77l3.18-.66c-.18-.9-.35-1.79-.53-2.69z"/>
</svg>
