<svg width="128pt" height="128pt" viewBox="0 0 128 128" xmlns="http://www.w3.org/2000/svg">
    <path fill="#fff" d="M34.6 29.12c3.37-4.9 7.87-8.91 13.09-11.75 2.85.43 5.61 1.3 8.39 2.05.2 4.5 1.1 8.9 2.05 13.28 1.79-.17 3.59-.3 5.38-.44-.03 26.11.01 52.21-.02 78.32-8.55-.12-17.13-3.83-22.63-10.46-7.13-7.88-9.6-19.63-6.27-29.71 2.03-6.8 6.71-12.58 12.46-16.63-2.48-3.31-5.55-6.11-9.01-8.37.16-2.84.54-5.69 1.62-8.35 1.64 1.55 1.75 4.3 3.94 5.3 2.56 1.45 5.43 3.06 8.44 2.87 3.38-1.68 6.55-4.12 8.27-7.56-3.15 1.61-5.44 5.36-9.31 5.11-2.6.21-4.92-1.11-7.19-2.15-.15-1.47-.33-2.94-.48-4.41-2.62-2.71-5.74-4.83-8.73-7.1z"/>
</svg>
