<svg width="128pt" height="128pt" viewBox="0 0 128 128" xmlns="http://www.w3.org/2000/svg">
    <path fill="#fff" d="M94.33 29.52c6.04-1.98 12.46-1.41 18.7-1.31 1.14 1.43.71 3.62.25 5.28-2.03 5.87-4.27 11.84-8.36 16.63-1.03 3.11-.09 6.8-2.12 9.61-2.6 3.76-7.12 5.36-11.09 7.23 2.31 2.19 5.06 4.15 6.32 7.19.96 2.67-.65 5.26-1.56 7.69 1.52 1.84 3.21 4.29 2.1 6.76-.96 2.74-3.87 3.67-6.4 4.32-2.11 5.94-6.38 11.65-12.54 13.71.62-1.23 1.26-2.45 1.93-3.66-1.26-5-3.13-9.86-5.85-14.25-4.43 1.34-9.09 2.91-12.21 6.53.07-17.96-.14-35.92.1-53.88 3.41 1.23 4.29 4.78 4.22 8.05 6.3-9.41 15.94-16.12 26.51-19.9m-24.38 44.9c.64-.31 1.92-.93 2.55-1.24 3.07.77 6.32 1.43 9.45.55 3.71-.93 6.53-3.82 8.68-6.85-4.22-1.93-8.95-3.28-13.58-2.1-3.93 1.56-6.7 5.46-7.1 9.64z"/>
</svg>
