<svg width="128pt" height="128pt" viewBox="0 0 128 128" xmlns="http://www.w3.org/2000/svg">
    <path fill="#5d1516" opacity=".73" d="M56.26 14.31c1.76 10.13.41 20.47.87 30.69-.12 1.95.68 4.47-1.29 5.79.35-6.39 1.07-12.92-.75-19.17-.3-5.77.85-11.54 1.17-17.31z"/>
    <path fill="#af2829" d="M59.56 21.93c-.13-2.82 1.59-5.2 2.98-7.5.35 3.51-.22 7.16.72 10.58.21.45.63 1.34.84 1.79.53-3.12.54-6.29.48-9.44.48-.72.96-1.43 1.45-2.13 2.55 5.6 1.53 11.82 2.2 17.75.83 8.66-.01 17.39.93 26.05.47 3.74-.63 7.69.8 11.27.82-.16 2.45-.49 3.27-.65-1.1-1.87-2.68-3.56-3.18-5.72-.23-2.79.43-5.6-.12-8.38.98-.43 1.96-.87 2.93-1.3-.97-.01-2.93-.01-3.91-.02.95-1 1.84-2.06 2.68-3.16-1.38-3.52-.91-7.33-.91-11.01.15-7.63-.4-15.27.26-22.88 1.16 8.55 1.29 17.19 2.02 25.78.24 2.61.05 5.23-.24 7.82.53.33 1.59.98 2.12 1.3-.77.27-2.3.82-3.07 1.1 2.08.54 2.77 2.38 3.3 4.21.53 2.86-.89 6.61 1.78 8.68 4.09 3.24 9.66 2.11 14.5 2.3 1.47 5.36 2.92 10.93 2.05 16.53-1.63 10.19-8.44 19.46-17.91 23.71-5.93 2.1-12.49 3.47-18.63 1.41-9.88-1.78-17.72-9.71-21.21-18.88-3.31-7.27-2-15.44.32-22.77 5.7-.11 13.66 1.24 16.49-5.2-.36-3.14.05-6.28.45-9.39 1.2.28 2.36.69 3.47 1.22l1.72.88-1.57 1.41c2.47 4.13.69 8.83-2.34 12.08.81.33 2.43 1 3.24 1.33 1.88-10.9.81-22.07 1.28-33.08.56-5.21.83-10.45.81-15.69m11.39 39c-.5 3.9 1.9 6.86 4.73 9.14-1.68 1.76-5.01 2.94-4.35 5.89.3 6.23 2.8 13.18 8.92 15.85 6.32-4.93 7.12-14.87 2.41-21.18-2.92-.96-6.25-1.51-8.46-3.86-1.46-1.71-2.22-3.87-3.25-5.84m-20.16 7.63l.12.14c-2.04.63-4.2 1.04-6.09 2.07-5.14 6.09-3.58 15.76 1.92 21.1 7.2-2.75 10.04-11.52 8.95-18.59-1.3-.96-2.57-1.98-3.62-3.22 2.64-2.18 5.01-4.94 4.47-8.66-1.61 2.61-3.32 5.22-5.75 7.16m-12.41 2.65c-1.72 1.55-1.57 4.18-2.12 6.26.92-.08 2.74-.24 3.66-.31.95-1.99 1.67-4.08 2.57-6.1l-.87.1c.43-1.88-3.69-1.85-3.24.05m46.83-.25c.62 2.18 1.5 4.28 2.33 6.4.86.02 2.59.05 3.45.07-.3-2.17-.79-4.31-1.45-6.4l-.96.11c.46-1.79-3.42-1.93-3.37-.18M35.6 79.41c.34 2.32.67 4.65 1.24 6.92l.38 1.43c1.51 2.24 5.95-2.32 3.11-3.32l-.13-1.02c-.09-1.48-.17-2.97-.25-4.45-1.44.19-2.9.28-4.35.44m51.34-.7c.06 2.25.15 4.5.3 6.74-.03.51-.11 1.52-.14 2.02.76.09 2.28.26 3.05.34.24-1.09.52-2.18.68-3.29.46-1.5 1.53-3.73.04-4.97-1.29-.34-2.61-.62-3.93-.84M39.03 90.07c.13.57.39 1.71.52 2.27 1.18 1.3 2.33 2.62 3.46 3.96.83-.9 1.66-1.79 2.5-2.69-1.14-1.54-2.29-3.08-3.41-4.63-1.03.35-2.05.72-3.07 1.09m42.82 3.74c.91.8 1.79 1.61 2.7 2.4.93-1.13 1.89-2.23 2.75-3.4 2.51.83 2.68-4.33.15-3.65-3.06-.69-4.04 2.78-5.6 4.65m-35.6 3.5c-.24 4.1 5.19 5.14 8.13 6.65.13-.74.39-2.22.51-2.96-2.52-1.29-4.77-3.04-7.2-4.48-.36.2-1.08.59-1.44.79m26.02 3.65c.29 1.01.59 2.02.9 3.03 2.65-1.22 5.44-2.37 7.53-4.46 1.35-1.24 1.11-2.27-.74-3.07-2.57 1.5-4.99 3.24-7.69 4.5m-13.12 1.36c-.09 1.16-.14 2.33-.16 3.51 1.64 2.03 5.13.99 7.46.72.75-.17 1.51-.36 2.26-.58l-.78-2.74.24-1.15c-2.99.39-6.01.45-9.02.24z"/>
    <path opacity=".06" d="M63.27 15.12l2.63-.28c.9.86 1.8 1.72 2.69 2.59.9-1.02 1.36-3.58 3.12-2.24 1.74 5.27 1.01 10.92 1.86 16.35 1.06 6.25-.19 12.63 1.08 18.85.44 2.3.57 4.65.46 7-.53-1.83-1.22-3.67-3.3-4.21.77-.28 2.3-.83 3.07-1.1-.53-.32-1.59-.97-2.12-1.3.29-2.59.48-5.21.24-7.82-.73-8.59-.86-17.23-2.02-25.78-.66 7.61-.11 15.25-.26 22.88 0 3.68-.47 7.49.91 11.01-.84 1.1-1.73 2.16-2.68 3.16.98.01 2.94.01 3.91.02-.97.43-1.95.87-2.93 1.3.55 2.78-.11 5.59.12 8.38.5 2.16 2.08 3.85 3.18 5.72-.82.16-2.45.49-3.27.65-1.43-3.58-.33-7.53-.8-11.27-.94-8.66-.1-17.39-.93-26.05-.67-5.93.35-12.15-2.2-17.75-.49.7-.97 1.41-1.45 2.13.06 3.15.05 6.32-.48 9.44-.21-.45-.63-1.34-.84-1.79-.32-3.27.36-6.59.01-9.89zm-5.69 37.27c-.09-4.92-.81-10.12 1.17-14.77-.47 11.01.6 22.18-1.28 33.08-.81-.33-2.43-1-3.24-1.33 3.03-3.25 4.81-7.95 2.34-12.08l1.57-1.41-1.72-.88.47-.7c.22-.04.65-.11.87-.15-.04-.44-.13-1.32-.18-1.76zM88.2 79.73c.69.12 2.07.37 2.76.49-.03 1.43-.07 2.87-.13 4.3-.16 1.11-.44 2.2-.68 3.29-.77-.08-2.29-.25-3.05-.34.03-.5.11-1.51.14-2.02.25-1.92.61-3.82.96-5.72z"/>
    <path fill="#952324" opacity=".93" d="M55.09 31.62c1.82 6.25 1.1 12.78.75 19.17l-.02.37c.44.3 1.32.92 1.76 1.23.05.44.14 1.32.18 1.76-.22.04-.65.11-.87.15-1.77-.23-3.04-1.62-4.49-2.5l1.1-.32c.29-.08.86-.25 1.15-.33-.81-5.91.41-11.83.35-17.75l.09-1.78z"/>
    <path fill="#160505" opacity=".33" d="M53.5 51.48c.2-6.04-.33-12.23 1.5-18.08.06 5.92-1.16 11.84-.35 17.75-.29.08-.86.25-1.15.33z"/>
    <path fill="#120405" opacity=".4" d="M50.79 68.56c2.43-1.94 4.14-4.55 5.75-7.16.54 3.72-1.83 6.48-4.47 8.66l-1.16-1.36-.12-.14z"/>
    <path fill="#6c1a17" opacity=".88" d="M38.38 71.21c-.45-1.9 3.67-1.93 3.24-.05-1.08.14-2.16.15-3.24.05z"/>
    <path fill="#6e1a1a" opacity=".89" d="M85.21 70.96c-.05-1.75 3.83-1.61 3.37.18-1.14.18-2.26.12-3.37-.18z"/>
    <path fill="#310b0b" opacity=".56" d="M35.6 79.41c1.45-.16 2.91-.25 4.35-.44.08 1.48.16 2.97.25 4.45-.77-1.11-.91-4.55-2.87-3.04-1.42 1.65-.51 4.01-.49 5.95-.57-2.27-.9-4.6-1.24-6.92z"/>
    <path fill="#5f1515" opacity=".74" d="M86.94 78.71c1.32.22 2.64.5 3.93.84 1.49 1.24.42 3.47-.04 4.97.06-1.43.1-2.87.13-4.3-.69-.12-2.07-.37-2.76-.49-.35 1.9-.71 3.8-.96 5.72-.15-2.24-.24-4.49-.3-6.74z"/>
    <path opacity=".12" d="M37.33 80.38c1.96-1.51 2.1 1.93 2.87 3.04l.13 1.02c-.29.47-.86 1.42-1.14 1.9-.49.35-1.48 1.06-1.97 1.42l-.38-1.43c-.02-1.94-.93-4.3.49-5.95z"/>
    <path fill="#491112" opacity=".68" d="M40.33 84.44c2.84 1-1.6 5.56-3.11 3.32.49-.36 1.48-1.07 1.97-1.42.28-.48.85-1.43 1.14-1.9z"/>
    <path fill="#6d1919" opacity=".8" d="M87.45 89.16c2.53-.68 2.36 4.48-.15 3.65.07-1.22.11-2.44.15-3.65z"/>
    <path fill="#420f0f" opacity=".64" d="M59.15 102.32c3.01.21 6.03.15 9.02-.24l-.24 1.15c-2.7-.06-5.41-.13-8.1.23.04.38.12 1.14.15 1.51.68 2.63 4.41 1.14 6.47 1.58-2.33.27-5.82 1.31-7.46-.72.02-1.18.07-2.35.16-3.51z"/>
</svg>
