<svg width="128pt" height="128pt" viewBox="0 0 128 128" xmlns="http://www.w3.org/2000/svg">
    <path fill="#140405" opacity=".36" d="M58.38 17.84c3.79-3.68 9.73-3.02 14.6-2.87l-.04 2.89c1.92-.22 3.84-.06 5.46 1.08-6.57-.6-13.35.49-18.63 4.69-5.95 3.3-10.9 9.43-10.95 16.47-1.76-4.02.12-8.18 2.05-11.74 5.41-6.32 13.14-11.45 21.73-11.43-.63-.38-1.27-.76-1.91-1.14-4.17.21-8.51.02-12.31 2.05z"/>
    <path fill="#9f2627" opacity=".97" d="M58.38 17.84c3.8-2.03 8.14-1.84 12.31-2.05.64.38 1.28.76 1.91 1.14-8.59-.02-16.32 5.11-21.73 11.43-.64-.66-1.29-1.32-1.93-1.99 1.6-4.14 6.06-6.04 9.44-8.53z"/>
    <path fill="#af2829" d="M59.77 23.63c5.28-4.2 12.06-5.29 18.63-4.69 6.08 2.79 13.11 5.55 16.15 11.99-4.3-5.43-11.45-5.07-17.59-4.41-2.6.29-5.12 1.07-7.57 1.97 5.65.4 10.23 4.24 13.84 8.28 3.6 5.91 6.18 13.14 4.61 20.1-1.42 11.69-8.9 22.05-18.82 28.12-2.56 1.15-5.18 2.98-8.12 2.42 5.78-1.45 9.83-6.15 12.41-11.27-.76-.05-2.28-.14-3.04-.19-2.75 4.87-7.08 8.45-11.91 11.14l-1.14.6c-.14.07-.43.21-.58.27-.25.13-.76.39-1.02.51-2.05.78-6.16 2.32-8.21 3.09 7.12-4.64 15.35-8.44 20.2-15.77l-3.8-.56c1.88-.68 3.76-1.33 5.65-1.97.45-2.22.82-4.45 1.09-6.7-4.64.34-8.92 2.1-13.27 3.57 2.45-4.71 8.3-4.49 12.09-7.36.23-.17.7-.5.94-.67-.11-2.59-.09-5.17-.01-7.76 1.31-1.05 2.61-2.12 3.95-3.14 1.07-.48 2.13-.96 3.2-1.44-.65-2.24-1.35-4.46-2.12-6.66-1.82.79-3.69 1.54-5.33 2.68-.92 1.42-1.74 2.9-2.57 4.37l-.1-.23c-.69-2.35-2.29-4.2-4.32-5.51l-.47-.35c-.75-2.18-1.49-4.36-2.34-6.49.65-1 1.28-2 1.92-3.01-.47.06-1.39.18-1.86.23-.18-3.27 0-6.56.9-9.72-.35-.36-1.04-1.08-1.39-1.44m4.07 15.43l3.09 3c1.3-.86 2.64-1.69 3.78-2.75-.04-1.8-2.49-2.02-3.6-3.04l-3.27 2.79m8.71 15.47c.57 2.12.83 4.3.92 6.49 1.68-.39 3.35-.86 4.96-1.47-.27-1.97-.5-3.94-.73-5.92-1.75.08-3.52.21-5.15.9m.47 11.53c-.49 2.07-.86 4.17-1.2 6.28 1.39-.24 2.79-.47 4.18-.7.69-2.13 1.27-4.29 1.79-6.46-1.59.29-3.18.59-4.77.88z"/>
    <path fill="#9a2327" opacity=".97" d="M48.82 40.1c.05-7.04 5-13.17 10.95-16.47.35.36 1.04 1.08 1.39 1.44-.9 3.16-1.08 6.45-.9 9.72-1.47.42-3.55.51-3.98 2.3l3.92.48c.85 2.13 1.59 4.31 2.34 6.49l-2.59-1.67c-.31.5-.94 1.5-1.25 2l-1.36.24c.23-.93.71-2.79.94-3.72-1.65-.63-3.31-1.26-4.99-1.82l-.4.53c-1.75 2.95-2.4 6.41-3.31 9.67-.12-1.44-.34-4.33-.45-5.77-.09-1.14-.19-2.28-.31-3.42z"/>
    <path fill="#6b181c" opacity=".87" d="M48.67 26.1l.27.27c.64.67 1.29 1.33 1.93 1.99-1.93 3.56-3.81 7.72-2.05 11.74.12 1.14.22 2.28.31 3.42l-1.49-.15c.05 1.82.08 3.64.09 5.46-3.67-7.09-2.94-15.88.94-22.73z"/>
    <path fill="#260809" opacity=".45" d="M53.29 39.09c1.68.56 3.34 1.19 4.99 1.82-.23.93-.71 2.79-.94 3.72l1.36-.24c-.59 1.41-1.47 2.69-2.98 3.23.54-2.07 1.19-4.11 1.91-6.12-1.55-.71-3.13-1.35-4.74-1.88l.4-.53z"/>
    <path opacity=".95" d="M63.01 44.41c2.03 1.31 3.63 3.16 4.32 5.51-.51-.39-1.54-1.19-2.05-1.58-4.03 2.57-7.18 6.18-10.08 9.92 1.2-3.78 2.61-7.73 5.53-10.54.98-.94 1.85-2 2.28-3.31zM70 45.78c.87 2.01 1.55 4.1 2.12 6.22l2.13-.8c-1.34 1.02-2.64 2.09-3.95 3.14-.08 2.59-.1 5.17.01 7.76-.24.17-.71.5-.94.67-.04-2.25-.08-4.49-.1-6.74-3.49 1.41-6.61 3.51-9.48 5.92 1.94-3.44 4.73-6.73 8.62-7.95-.38-1.27-.71-2.55-.98-3.85.83-1.47 1.65-2.95 2.57-4.37z" fill="#932226"/>
    <path fill="#ad2728" d="M89.45 62.4l1.05-.08c-1.28 5.45-2.05 11.28-5.28 16.02-1.96 2.93-4.01 5.84-6.38 8.47-4.09 3.97-9.01 6.94-13.73 10.08.86 1.41 1.72 2.83 2.59 4.23-4.83 1.66-9.44 3.89-13.91 6.34-1.52-1.17-3.05-4.48-5.29-2.86-3.39 3.06-5.95 6.9-8.68 10.52 1.31-3.29 1.92-7.1 4.53-9.71.89-1.37 2.69-2.48 2.47-4.31-1.72-3.42-5.6-4.89-7.93-7.78 4.76-.12 8.59 3.08 12.89 4.62 2-1.46 4.16-2.7 6.36-3.83-.57-1.99-1.48-3.85-2.52-5.64.26-.12.77-.38 1.02-.51.15-.06.44-.2.58-.27 1.45 1.71 2.73 3.98 5.19 4.24 2.33.46 4.36-1.24 5.91-2.76 2.14-1.33 4.25-2.71 6.38-4.06 1.45-.7 2.72-1.71 3.65-3.03 5.79-5.17 9.3-12.21 11.1-19.68m-34.04 38.24c.57.26 1.72.78 2.29 1.05 1.44-.82 3.01-1.75 2.13-3.66-1.64.54-3.5.97-4.42 2.61z"/>
    <path fill="#1d0607" opacity=".39" d="M73.02 66.06c1.59-.29 3.18-.59 4.77-.88-.52 2.17-1.1 4.33-1.79 6.46-1.39.23-2.79.46-4.18.7.34-2.11.71-4.21 1.2-6.28m1.2 1.44c-1.31.73-.19 3.09 1.08 1.84 1.19-.74.18-3.06-1.08-1.84z"/>
    <path fill="#0b0202" opacity=".25" d="M70.27 75.95c.76.05 2.28.14 3.04.19-2.58 5.12-6.63 9.82-12.41 11.27l-2.54-.32c4.83-2.69 9.16-6.27 11.91-11.14z"/>
    <path fill="#1b0606" opacity=".38" d="M74.7 85.11c-.23-2.01 1.73-3.59 3.65-3.03-.93 1.32-2.2 2.33-3.65 3.03z"/>
    <path fill="#2b0a0a" opacity=".47" d="M62.41 91.93c1.12-2.21 3.73-2.47 5.91-2.76-1.55 1.52-3.58 3.22-5.91 2.76z"/>
    <path fill="#310b0b" opacity=".56" d="M55.41 100.64c.92-1.64 2.78-2.07 4.42-2.61.88 1.91-.69 2.84-2.13 3.66-.57-.27-1.72-.79-2.29-1.05z"/>
</svg>
