<svg width="128pt" height="128pt" viewBox="0 0 128 128" xmlns="http://www.w3.org/2000/svg">
    <path fill="#fff" d="M85.09 48.22c3.37 3.01 4.76 7.49 6.1 11.66 1.64 5.22.31 11.03-3.01 15.32-2.68 3.69-6.81 5.85-10.23 8.76-2.26 1.93-2.85 5.08-3.09 7.9.44 1.82 2.37 2.68 3.61 3.92 1.79 2.17 4.62.42 6.88.36-1.1 1.05-2.23 2.05-3.35 3.07-4.47.15-9.51-1.79-11.19-6.25-.46-3.85-.46-7.92 1.68-11.3 2.31-2.53 5.26-4.31 7.9-6.45-4.37.16-8.19 2.29-10.63 5.93-2.79 5.55-4.53 12.98-.02 18.14 4.78 3.09 10.67 2.72 16.11 2.9-5.72 6.1-13.09 11.9-21.9 11.6 4.64-2.28 9.8-3.73 13.78-7.17-7.23.32-13.16-4.76-16.58-10.7-7.06-4.01-14.54-7.94-19.78-14.34-5.08-6.05-10.14-12.9-10.91-21.02 2.7 1.52 2.67 5.11 4.46 7.38 2.78 3.65 4.99 7.73 8.25 10.99 5.26 4.52 11.51 7.62 17.9 10.22.22-.87.64-2.6.86-3.47-3.28-1.45-6.16-3.6-9.28-5.33-4.51-2.53-7.55-6.89-10.52-10.99.05-.29.14-.87.19-1.17C47.43 75.19 55.6 78.6 63.4 81.66c1.49-1.94 3.11-3.78 4.81-5.53-6.6.43-14.38-1.22-18.27-7.09-1.96-3.12-4-6.47-4.09-10.27 2.56 3.78 5 7.98 9.33 10 5.33 3.46 11.91 4.03 17.99 2.45 7.16-.88 11.47-7.97 12.79-14.5 1.44-2.83-.21-5.72-.87-8.5z"/>
</svg>
