<svg width="128pt" height="128pt" viewBox="0 0 128 128" xmlns="http://www.w3.org/2000/svg">
    <path fill="#b92b2b" d="M66.21 16.16c.41-1.38 1.8-2.13 2.76-3.1-.61 3.74-2.74 6.95-5.32 9.64-1.73 1.71 1.67 2.13 2.54 3.03 1.66-1.05 4.55-1.68 3.18-4.28 3.77.83 5.38-3.9 8.29-5.52-.94 2.86-2.13 5.69-4.04 8.05l-.62.75c-1.39.74-2.78 1.49-4.17 2.24 2.07 1.67 4.12 3.36 6.02 5.22 1.21.4 2.43.81 3.65 1.21-.15 1.54-.22 3.09-.42 4.63l-.25 1.58c-.65-.1-1.95-.31-2.6-.42.5 1.73 1.01 3.45 1.53 5.18-.59-.1-1.78-.29-2.37-.38-.7-1.69-1.54-3.3-2.49-4.85-.73.18-2.18.55-2.9.73.84 2.23 2.04 4.29 3.37 6.25-1.26.59-2.5 1.21-3.69 1.91.48-.44 1.45-1.3 1.94-1.74-1.35-1.5-2.7-3-4.02-4.52-2.05 1.34-3.94 3.01-4.93 5.3-.54 1.57-.96 3.19-1.43 4.78l-1.64.12.39-3.53c-1.2.59-2.4 1.19-3.59 1.78.51-2.76.86-5.55 1.61-8.26 1.03-2.48 2.73-4.6 4.11-6.89-3.03-2.2-6.48-3.74-10.05-4.83-1.2.65-2.28 1.52-3.39 2.32-.21-.39-.65-1.16-.86-1.54.58-.52 1.75-1.55 2.33-2.06-3.59-1.94-7.57-4.02-9.31-7.94 3.17 2.2 6.45 4.28 10.06 5.71 2.22-1.52 4.61-2.8 7.25-3.45-2.17-1.03-4.55-1.91-6.17-3.76 2.72.6 5.3 1.71 7.92 2.65 1.66-1.51 3.2-3.36 5.44-4.03 1.05-.25 1.67-.91 1.87-1.98M53.96 29.08c1.25.3 2.5.58 3.75.85 1.67-1.04 3.39-1.98 5.15-2.85-3.15-2.03-6.03.76-8.9 2m8.59 2.41c1.62 1.37 3.6 2 5.12.1-.66-.47-1.98-1.4-2.65-1.87-.61.44-1.85 1.33-2.47 1.77z"/>
    <path fill="#6c1919" opacity=".78" d="M64.34 18.14c-.42-1.66.21-2.32 1.87-1.98-.2 1.07-.82 1.73-1.87 1.98z"/>
    <path fill="#a12526" opacity=".93" d="M73.62 23.98c2.12.67 3.88 2.07 5.59 3.44.28.19.84.59 1.11.79 1.35.02 2.7.02 4.05-.01-.31 4.13-1.51 8.11-3.6 11.69-.7-.04-2.11-.11-2.82-.15.04-.42.1-1.28.13-1.71.2-1.54.27-3.09.42-4.63l1.56.5c-1.48-3.66-3.93-6.78-7.06-9.17l.62-.75z"/>
    <path fill="#511216" opacity=".75" d="M79.21 27.42c3.64.96 6.67-1.82 10.07-2.59-1.1 1.83-1.86 4.36-4.32 4.7-.82 7.26 5.99 12.73 5.26 19.98-1.57 1.24-1.79-1.4-1.82-2.44l1.04-.32c-.12-1.18-.34-2.35-.76-3.46-.46.18-1.38.52-1.84.7-2.09-1.22-4.21-2.4-6.39-3.45l.32-.65c2.09-3.58 3.29-7.56 3.6-11.69-1.35.03-2.7.03-4.05.01-.27-.2-.83-.6-1.11-.79z"/>
    <path fill="#1f0607" opacity=".45" d="M62.55 31.49c.62-.44 1.86-1.33 2.47-1.77.67.47 1.99 1.4 2.65 1.87-1.52 1.9-3.5 1.27-5.12-.1z"/>
    <path fill="#3e0e0c" opacity=".56" d="M43.55 36.46c.77-1.99 1.95-3.77 3.27-5.44.21.38.65 1.15.86 1.54-.77 1.82-2.46 2.98-4.13 3.9z"/>
    <path fill="#c72d31" d="M48.78 48.98c1.51-4.32 2.15-9.72 6.7-12.02-2.36 5.55-2.22 11.83-.09 17.43.02-1.39.02-2.78.01-4.17 1.19-.59 2.39-1.19 3.59-1.78l-.39 3.53 1.64-.12c.47-1.59.89-3.21 1.43-4.78-1.54 6.42 3.77 12.26 9.97 12.92.39.36 1.17 1.07 1.56 1.43.98-.02 1.97-.02 2.95-.01-2.4 2.1-5.99 3.69-5.86 7.39-2.8.21-5.61.31-8.41.11-3.52-1.12-6.52-3.52-8.71-6.46-2.62-4.07-3.43-8.83-4.39-13.47z"/>
    <path fill="#881e21" opacity=".84" d="M86.84 43.99c.46-.18 1.38-.52 1.84-.7.42 1.11.64 2.28.76 3.46l-1.04.32c-1.27-.7-1.79-1.72-1.56-3.08z"/>
    <path fill="#bd2b30" d="M74.17 44.6c1.25.24 2.5.49 3.75.74l.09.53c.11.77.25 1.55.32 2.33-3.08.9-6.47 1.47-8.97 3.65-.36 1.6-.73 3.2-1.05 4.81l-1.52-1.6c.28-1.67.26-3.38.01-5.05.58-.71 1.21-1.36 1.88-1.98 1.19-.7 2.43-1.32 3.69-1.91.47-.2 1.41-.61 1.88-.82l-.08-.7z"/>
    <path fill="#a82526" opacity=".93" d="M78.01 45.87c2.15.59 3.97 1.94 5.18 3.81 1.15 3.85 1.49 8.18-.88 11.68-3.62 7.3-13.04 9.6-20.43 7.55 2.8.2 5.61.1 8.41-.11-.13-3.7 3.46-5.29 5.86-7.39-.98-.01-1.97-.01-2.95.01-.39-.36-1.17-1.07-1.56-1.43 2.87-.25 6.67-.24 8.11-3.29 1.81-2.81.51-6.15-1.42-8.5-.07-.78-.21-1.56-.32-2.33z"/>
    <path fill="#a62627" opacity=".95" d="M85.4 48.72c3.75 3.63 4.94 8.91 6.3 13.75-2.39-.2-4.77-.39-7.15-.61.63-1.76 1.14-3.56 1.61-5.36 1.08-2.62-.01-5.27-.76-7.78z"/>
    <path fill="#531213" opacity=".69" d="M66.79 55.06c-1.74-1.22-1.6-3.8.01-5.05.25 1.67.27 3.38-.01 5.05z"/>
    <path fill="#080202" opacity=".22" d="M83.19 49.68c1.78 1.85 2.11 4.5 2.97 6.82-.47 1.8-.98 3.6-1.61 5.36-.47 1.03-1 2.04-1.57 3.02-2.66 3.83-6.7 6.75-11.49 6.94-6.57 1.51-13.34-.4-18.66-4.38.52-.1 1.56-.31 2.08-.42-.72-1.47-1.35-2.98-1.74-4.57 2.19 2.94 5.19 5.34 8.71 6.46 7.39 2.05 16.81-.25 20.43-7.55 2.37-3.5 2.03-7.83.88-11.68z"/>
    <path opacity=".87" d="M68.31 56.66c.32-1.61.69-3.21 1.05-4.81-.93 3.66 3.64 3.2 5.91 3.93-2.18 1.09-4.58 1.61-6.96.88zm14.67 8.22c.57-.98 1.1-1.99 1.57-3.02 2.38.22 4.76.41 7.15.61 1.2 8.98-5.52 16.12-12.58 20.48.07-2.27.11-4.54.09-6.81.32-.26.96-.8 1.28-1.07.59.62 1.17 1.24 1.75 1.87 1.86-2.93 3.55-5.97 4.88-9.18-.75-.24-2.23-.72-2.98-.97-.29-.47-.87-1.43-1.16-1.91z" fill="#831e1e"/>
    <path fill="#c52c2f" d="M45.84 59.57c2.51 2.46 3.94 5.93 6.99 7.87 5.32 3.98 12.09 5.89 18.66 4.38 4.79-.19 8.83-3.11 11.49-6.94.29.48.87 1.44 1.16 1.91.75.25 2.23.73 2.98.97-1.33 3.21-3.02 6.25-4.88 9.18-.58-.63-1.16-1.25-1.75-1.87-4.38.08-8.28 2.33-10.71 5.95-.78-1.37-1.48-2.78-2.1-4.22l-.24-.54c-4.62-.2-9.42-.87-13.45-3.31-4.48-3.04-6.84-8.29-8.15-13.38z"/>
    <path fill="#b22829" d="M30.56 61.18c2.64.74 2.46 4.3 3.98 6.21 2.93 4.08 5.45 8.55 9.15 12.01 5.25 4.19 11.17 7.63 17.6 9.63l.57-3.49c-3.42-1.64-6.6-3.72-9.85-5.67-4.37-2.56-7.33-6.87-9.79-11.18 5.65 6.33 13.28 10.18 21.16 12.99 1.4-1.66 2.8-3.31 4.3-4.88.62 1.44 1.32 2.85 2.1 4.22-1.73 3.71-3.55 7.73-2.77 11.93.27 3.14 1.78 6.39 4.92 7.52 4.29 1.84 9.08 1.85 13.68 1.85-4.5 4.76-9.71 9.08-16.16 10.82-.68-.12-2.05-.37-2.73-.5 3.91-1.78 8.1-3.13 11.26-6.2-5.55.28-11.16-2.53-14.28-7.12-1.17-1.5-1.94-3.47-3.77-4.29-6.74-3.58-13.55-7.57-18.53-13.46-4.89-5.95-9.88-12.52-10.84-20.39z"/>
    <path fill="#a32728" d="M71.91 82.81c1.76-2.85 4.81-4.53 7.3-6.67.02 2.27-.02 4.54-.09 6.81-3.11 1.88-4.28 5.65-4.31 9.09 2.08 3.09 5.38 5.81 9.35 5.52-4.69 3.07-10.38.21-13.47-3.73.17-3.67-.4-7.58 1.22-11.02z"/>
    <path fill="#240808" opacity=".47" d="M69.45 113.14c-.02 2.6-6.76.27-2.73-.5.68.13 2.05.38 2.73.5z"/>
</svg>
