<svg width="128pt" height="128pt" viewBox="0 0 128 128" xmlns="http://www.w3.org/2000/svg">
    <path fill="#6e6e6e" opacity=".43" d="M69.3 11.18c.47.44.47.44 0 0z"/>
    <path fill="#fff" d="M58.62 22.27c3.84-2.88 7.13-6.35 10.72-9.5-1.23 4.27-3.41 8.29-6.97 11.07 1.49.59 2.99 1.19 4.5 1.76 1.15-.83 2.29-1.67 3.42-2.53-.56-.55-1.7-1.64-2.26-2.19.99.44 2.01.81 3.04 1.12 2.55-1.85 4.44-4.39 6.65-6.59-.83 3.01-1.94 6.02-4.08 8.36 2.48 1.42 4.9 2.96 7.27 4.56 3.11-1 6-2.53 8.89-4.02-1.59 2.58-3.53 4.93-6.09 6.61l.88 2.08c-1.47 2.39-2.67 4.92-3.76 7.5-1.53-.28-3.15-.59-2.92-2.55l-.24 1.83c-.55-.22-1.67-.67-2.23-.89.47 2.1 1 4.2 1.27 6.34 5.37 1 8.47 6.59 7.46 11.75-1.14 4.26-3.73 8.34-7.63 10.55-5.59 2.57-12.57 3.25-18.02-.03-6.45-3.67-8.78-11.5-9.53-18.43.91-4.61 2.24-9.84 6.61-12.39-2.41 5.66-2.37 12.06-.23 17.81-.06-6.84 1.07-14.04 5.74-19.34-2.97-2.37-6.61-3.54-10-5.15-2.91 1.61-4.94 4.28-7.5 6.29 1.51-2.67 3.22-5.28 5.49-7.38-3.92-1.98-7.92-4.41-9.96-8.49 3.31 2.49 6.8 4.69 10.63 6.29 2.33-1.4 4.7-3.15 7.54-3.16-2.24-1.24-4.53-2.41-6.71-3.75 2.92-.43 5.41 1.49 8.02 2.47m10.33 4.9c3.51 2.61 6.47 6.02 10.96 6.95-1.26-3.99-3.73-7.56-7.46-9.59-1.15.9-2.32 1.78-3.5 2.64m-14.78 1.95c3.12 2.09 5.68-.88 8.56-1.84l-2.28-1.44c-2.15.99-4.18 2.2-6.28 3.28m8.5 2.71c1.59.86 3.28.96 4.89.11-.55-.49-1.63-1.47-2.17-1.96-.99.49-1.84 1.2-2.72 1.85m6.47 8.16c.24.7.7 2.11.93 2.82.83.96 1.58 1.98 2.14 3.13.94-.27 1.88-.54 2.82-.8-1.04-2-2.04-4.03-3.07-6.03-.71.22-2.11.66-2.82.88M61.57 50.1c.24 7.78 10.46 12.4 16.78 8.3 3.2-2.43 3.18-9.22-1.3-10.06-3.01 1.38-7.33 1.53-8.23 5.38 1.56 2.04 4.17 1.47 6.4 1.7-2.46 2.44-8.11 2.29-9-1.61-.8-3.25 1.73-6.09 4.49-7.35-1.43-1.72-2.99-3.33-4.7-4.77-2.3 2.2-4.96 4.93-4.44 8.41z"/>
    <path fill="#cfcfcf" opacity=".81" d="M84.59 33l.21-.37c1.48 6.22 7.27 12.05 4.5 18.71-.48-4.99-3.78-9.13-8.47-10.84 1.09-2.58 2.29-5.11 3.76-7.5z"/>
</svg>
