<svg width="128pt" height="128pt" viewBox="0 0 128 128" xmlns="http://www.w3.org/2000/svg">
    <path d="M45.03 16.55c2.52-.29 4.6-2.4 7.27-1.66 2.38.66 5.42.64 6.83 3.01 1.88 2.36 3.02 5.18 4.42 7.84 1.56-3.32 3.03-6.84 5.75-9.41 3.39-1.18 7.38-2.47 10.65-.28 2.5.25 4.58 1.49 6.61 2.88-.55.25-1.66.76-2.21 1.01-.52 1.81-1.26 3.54-2.32 5.1-1.06-.11-3.18-.33-4.24-.45-.12.29-.35.88-.46 1.17-.54.23-1.62.71-2.16.95-.06-3.14 1.13-6.09 1.37-9.19-3.72 8.55-3.59 19.28 2.9 26.49-6.92 5.57-8.69 15.19-7.7 23.62-3.14.75-5.35-2.87-6.68-5.2 5.01-2.68 4.11-8.76 4.15-13.5 2.48-2.28 4.22-5.44 4.89-8.75-2.54 1.33-3.48 4.22-5.26 6.3.01 4.17.15 8.4-.78 12.49-2.89 1.54-6.21 1.47-9.11 0-1-4.08-.77-8.32-.78-12.48-1.85-1.98-2.6-5.06-5.28-6.11.8 3.19 2.41 6.32 4.89 8.53.17 2.71-.14 5.44.22 8.14.25 2.47 2.33 4 3.96 5.61-1.69 2.15-3.41 5.5-6.64 5.16.96-8.57-.9-18.07-7.71-23.93 1.96-2.8 4.09-5.61 4.8-9.03 1.07-5.82.32-11.87-1.91-17.34.11 3.12 1.49 6.05 1.21 9.21-2.41-1.2-5.14-1.48-7.79-1.18-.38-.54-1.14-1.62-1.52-2.17.17-1.24.32-2.48.47-3.73-.93-.11-1.86-.21-2.79-.3 1.59-.99 3.02-2.5 4.95-2.8m14.37 15.1c2.54-1.64 5.64-1.72 8.14.03.08-1.64-1.89-1.74-2.92-2.47-.56 0-1.66-.01-2.21-.01-1.06.71-2.93.86-3.01 2.45zM32.51 67.01c1.16-3.13 3.84-5.27 5.42-8.19.88.85 1.75 1.7 2.62 2.55-2.91 1.52-5.88 3.11-8.04 5.64zm54.08-5.67l2.46-2.55c1.57 2.94 4.28 5.11 5.45 8.26-2.09-2.58-5.15-4-7.91-5.71zM35.99 73.4c2.65-2.41 4.99-5.17 7.99-7.16l.87 3.13c-3.13.93-5.94 2.61-8.86 4.03zm46.98-7.18c3.09 1.96 5.38 4.85 8.09 7.25-2.97-1.03-5.6-3.41-8.85-4.05.25-1.07.5-2.13.76-3.2z" fill="#fff"/>
    <path fill="#adadad" opacity=".68" d="M34.61 30.97c-.41-4.35 1.31-9.73 5.47-11.62.93.09 1.86.19 2.79.3-.15 1.25-.3 2.49-.47 3.73.38.55 1.14 1.63 1.52 2.17l.15.21c-2.5.75-4.7 2.18-5.96 4.52l-.06-1.38-1.19-.04c-.64 3.6.58 7.92 4.58 8.83 2.86 1.49 5.28-.82 7.62-2.15.28 2.3-2.72 2.43-4.19 3.32-5.12 2.43-10.55-2.81-10.26-7.89z"/>
    <path fill="#bdbdbd" opacity=".74" d="M86.56 18.93c.38.27 1.15.81 1.53 1.08 1.94 2.22 1.54 5.2 1.63 7.91-.36 1.59-.66 3.19-.98 4.79l-.18.6c-.17-1.47-.28-2.95-.33-4.42-2.81-3.14-7.02-3.49-10.9-3.13.11-.29.34-.88.46-1.17 1.06.12 3.18.34 4.24.45 1.06-1.56 1.8-3.29 2.32-5.1.55-.25 1.66-.76 2.21-1.01z"/>
    <path fill="#858585" opacity=".53" d="M88.09 20.01c4.35 2.88 4.93 8.72 4.17 13.45-1.13 3.61-5.44 7.8-9.33 5.43 1.62-.76 3.32-1.33 5.07-1.7 1.29-1.75 1.58-4.94 4.25-4.99-2.16-.34-1.94-2.69-2.53-4.28-.09-2.71.31-5.69-1.63-7.91z"/>
    <path opacity=".98" d="M42.21 31.03c1.33-2.13 3.97-3.62 6.46-2.65 2.37 1.52 2.5 5.34.39 7.16-2.34 1.33-4.76 3.64-7.62 2.15-4-.91-5.22-5.23-4.58-8.83l1.19.04.06 1.38c-.01 2.23.81 4.64 2.89 5.74 3.54 1.32 6.28-2.28 7.48-5.13-1.39-2.68-4.52-1.39-6.27.14zm34.71-.89c1.34-3.69 6.34-1.83 7.86.79-1.81-1.4-4.71-2.6-6.23-.11.57 2.42 2.66 4.09 4.59 5.45 2.38.56 4.34-.98 5.42-2.96l.18-.6c.32-1.6.62-3.2.98-4.79.59 1.59.37 3.94 2.53 4.28-2.67.05-2.96 3.24-4.25 4.99-1.75.37-3.45.94-5.07 1.7-1.43-.49-2.82-1.09-4.18-1.76-1.28-2.04-3.35-4.53-1.83-6.99zM63.14 62.61c2.54 1.68 4.2 4.49 7.06 5.84-4.23 4.75-4.36 11.89-4.9 17.82-.26-3.22-.78-9.66-1.05-12.88-.04 1.68-.12 5.03-.17 6.71L63 81.2l-.07-7.36c-.93 3.37-.26 7.13-1.36 10.5.27-4.14-1.25-8-2.23-11.94-.47-1.59-1.48-3.46-3.43-3.25 2.75-1.77 5.41-3.78 7.23-6.54z" fill="#fafafa"/>
</svg>
