<svg width="128pt" height="128pt" viewBox="0 0 128 128" xmlns="http://www.w3.org/2000/svg">
    <g fill="#fff">
        <path d="M31.27 51.44c4.22-.31 8.42-1.09 12.67-1.06-1.56.98-3.2 1.81-4.65 2.95 2.5 1.89 5.17 3.68 7.02 6.27 2.95 6.4 2.84 13.62 2.95 20.52.87 6.62-.01 13.26-.24 19.89-2.51-11.38.1-23.4-3.96-34.5-1.81-6.72-7.99-10.96-13.79-14.07z"/>
        <path d="M44.65 51.29c5.53 3.06 9.76 9.33 8.91 15.83-.43 5.77.06 11.56-.24 17.34-.3 7.61-.2 15.25.04 22.86.22 5.06-.06 10.13.34 15.18-1.72-6.72-1.18-13.75-1.88-20.6-1.06-10.63-.56-21.32-.66-31.99-.19-6.71-2.19-13.39-6.51-18.62zm28.78 12.66c.48-5.31 4.32-9.92 8.77-12.61-2.76 3.82-5.09 8.08-5.69 12.83-1.41 11.85-.03 23.84-1.17 35.72-.8 7.45-.39 15.05-1.84 22.42.2-19.45.32-38.91-.07-58.36z"/>
    </g>
    <path fill="#fefefe" d="M83.04 50.43c4.11-.13 8.17.69 12.28.9-4.23 2.97-8.97 5.69-11.74 10.21-5.95 11.86-3.32 25.45-5.18 38.12-1.45.81-.79-1.84-.82-2.51.28-5.38-.75-10.78.09-16.15.28-7.21-.11-14.78 3.07-21.48 1.93-2.58 4.59-4.47 7.17-6.37-1.65-.86-3.29-1.75-4.87-2.72z"/>
    <path fill="#383838" opacity=".22" d="M54.31 74.6c.99 10.88-.72 21.82-.95 32.72-.24-7.61-.34-15.25-.04-22.86 1.1-3.18.95-6.55.99-9.86z"/>
</svg>
