<svg width="128pt" height="128pt" viewBox="0 0 128 128" xmlns="http://www.w3.org/2000/svg">
    <path fill="#fefefe" d="M51.66 18.39c2.84 4.63 5.45 9.39 8.18 14.08-1.4.18-2.8.36-4.2.53.43 1.85.07 3.45-1.09 4.82 4.41-1.15 10.5.53 13.28-4.06 2.15-5.46 5.6-10.25 8.48-15.34-.03 5.38.02 10.75-.02 16.13-1.69-.66-3.39-1.29-5.11-1.86-1.21 1.77-2.51 3.5-4.2 4.84 4.84-.18 8.83 4.48 13.64 2.99 5.49-3.43 11.17-6.58 16.91-9.58-3.04 5.13-6 10.31-8.93 15.51-1.35-1.69-2.68-3.39-4.17-4.97-1.57.76-3.19 1.44-4.84 2.01 3.92 2.45 5.22 8.1 10.33 8.67 6.66-.3 13.33-.23 20-.21-5.27 3.12-10.59 6.16-15.91 9.2-.23-2.02-.49-4.03-.8-6.03-1.89-.09-3.78-.21-5.67-.39 1.47 2.89.54 6.46 2.56 9.12 1.5 2.61 4.42 3.69 6.87 5.17 4.25 2.64 8.72 4.9 12.94 7.58-6.84.03-13.69.13-20.52-.05 1.28-2.32 2.11-4.84 2.88-7.37-1.22-.99-2.43-1.98-3.62-3 .23 5.13-2.98 10.44-.41 15.33 2.95 5.57 6.39 10.86 9.37 16.42-5.89-3.34-11.66-6.88-17.61-10.12 1.62-1.29 3.24-2.58 4.8-3.93-.63-1.71-1.15-3.46-1.36-5.27-2.94 3.1-6.44 6.06-7.06 10.59-.24 7 .02 14.02-.1 21.03-3.37-5.84-6.64-11.73-10.15-17.49 2.18-.51 4.46-.76 6.51-1.73.39-1.5.77-3 1.13-4.5-3.25 1.96-7.69 1.22-10.53 3.69-3.88 6.64-7.66 13.37-11.54 20.01-.05-6.8-.03-13.6-.02-20.4 2.36.95 4.76 1.96 7.34 2.12.99-.83 1.65-1.97 2.46-2.96-3.9-.38-7.81-.65-11.7-1.13-7.09 1.94-12.93 6.75-19.38 10.12 2.93-5.28 6.1-10.41 8.97-15.72 1.65 1.52 3.12 3.28 5.05 4.48 2.11-.15 4.21-.53 6.32-.66-4.85-1.86-7.36-6.86-11.9-9.09-6.85-.84-13.85-.07-20.76-.38 5.28-3.01 10.53-6.09 15.81-9.09.4 2.25 1.08 4.43 1.98 6.53 1.2.14 2.39.3 3.58.48-2.66-4.52-2.23-10.76-6.88-14.03-4.73-3.02-9.7-5.66-14.52-8.54 5.41-.03 10.81.01 16.22-.04-.67 1.89-1.18 3.84-1.53 5.81 1.47.91 2.77 2.05 3.66 3.55.72-4.16 2.2-8.12 3.26-12.18.69-2.54-1.29-4.5-2.38-6.55-2.44-4.03-4.41-8.35-7.29-12.1 4.83 2.68 9.54 5.65 14.38 8.34-1.42 1.24-2.77 2.55-4.06 3.92.72 1.27 1.4 2.56 2.04 3.87 2.53-3.78 7.79-5.08 9.45-9.36-.28-6.26-.05-12.54-.14-18.81m-.18 24.06c-11.97 6.36-15.84 23.82-7.55 34.56 4.97 6.35 13.66 11.05 21.74 8.68 4.54.57 8.68-2.18 12.06-4.9 4.79-3.7 6.95-9.73 7.99-15.48-.01-.59-.04-1.77-.05-2.35l-.16-3.08c-.38-1.52-.7-3.05-.94-4.6l-.22.09c-3.84-13.34-20.97-20-32.87-12.92z"/>
    <path fill="#141414" opacity=".08" d="M84.35 55.37l.22-.09c.24 1.55.56 3.08.94 4.6-4.57-.15-9.17-.15-13.71.55 4.42 1.79 9.29 1.43 13.87 2.53.01.58.04 1.76.05 2.35-5.43-.97-10.86-1.94-16.32-2.75-2.13-.27-4.12-1.12-5.85-2.38 6.85-2.06 14.34-1.33 20.8-4.81z"/>
</svg>
