<svg width="128pt" height="128pt" viewBox="0 0 128 128" xmlns="http://www.w3.org/2000/svg">
    <path fill="#c62e31" d="M51.68 18.38c2.78 4.61 5.46 9.28 8.18 13.93-1.38.31-2.75.62-4.12.94-.09 1.5-.21 2.99-.36 4.49 3.04-.62 6.16-.73 9.2-1.31 1.46-.75 2.44-2.14 3.65-3.21.19-.5.55-1.49.74-1.99 1.95-4.5 4.77-8.59 7.33-12.77.16 5.37.12 10.74.05 16.1-1.75-.59-3.5-1.14-5.29-1.58-1.1 1.66-2.34 3.23-3.84 4.54 3.32.18 6.26 1.89 9.45 2.67l-.4.77c-.31.59-.93 1.78-1.24 2.37-7.08-4.49-16.46-4.85-23.78-.69-.27.12-.81.38-1.08.51-2.03.65-4.11 1.14-6.14 1.78 1.99-2.95 6.2-3.87 7.51-7.26.22-6.42-.15-12.86.14-19.29z"/>
    <path fill="#410e0f" opacity=".58" d="M68.08 31.43l.89-.2c-.19.5-.55 1.49-.74 1.99l-.53-.77.38-1.02z"/>
    <path fill="#be2c31" d="M81.12 40.19c5.34-3.46 11-6.37 16.54-9.49-2.96 5.32-6.11 10.53-9.07 15.86-1.29-1.41-2.22-3.27-3.85-4.31-1.66-.25-3.23.67-4.82 1.02 3.45 2.8 5 8.27 9.99 8.77 6.47-.11 12.98-.46 19.46-.04-4.79 3.63-10.28 6.19-15.43 9.27-.22-2-.46-3.99-.68-5.99-1.59-.06-3.18-.12-4.77-.17-.1.36-.28 1.07-.38 1.43-1.13 3.81-1.95 7.69-2.92 11.54 1.8-9.3-2.07-19.59-10.16-24.75.31-.59.93-1.78 1.24-2.37 1.61-.24 3.33-.12 4.85-.77z"/>
    <path fill="#bd2c2e" d="M30.53 30.81c4.77 2.43 9.31 5.29 13.98 7.91-1.41 1.31-2.79 2.64-4.14 4.01.74 1.11 1.31 2.3 1.7 3.58.49-.34 1.47-1.03 1.96-1.38 2.03-.64 4.11-1.13 6.14-1.78-8.82 5.96-13.09 18.07-9.17 28.1 1.07 3.5 3.45 6.35 5.88 9.01.47 1.48.85 2.99 1.3 4.49-3.98-2.33-6.19-7.55-11.17-7.97-6.25-.33-12.52.09-18.77-.22 5.1-3.25 10.39-6.19 15.67-9.12.42 2.18 1.01 4.32 1.87 6.37l3.15-.04c-1.16-3.12-2.33-6.26-3.04-9.51.11-1.05.24-2.09.38-3.13.8-5.07 3.45-9.76 3.29-14.97-3.42-4.86-6.08-10.2-9.03-15.35z"/>
    <path opacity=".05" d="M50.17 43.15c.27-.13.81-.39 1.08-.51.76.47 2.28 1.41 3.04 1.89-5.67 1.87-10.15 6.84-10.68 12.9.01 1.6.06 3.2.16 4.8-.82-1.44-1.72-2.83-2.62-4.22.02 4.42-.1 8.83-.15 13.24-3.92-10.03.35-22.14 9.17-28.1zM88.81 66.7c.91.66 1.83 1.32 2.73 2.01l.52 1.37c-.85 2.19-1.69 4.38-2.53 6.57 6.61-.27 13.35.72 19.88-.48l.85-.41c-.19.7-.38 1.39-.56 2.09-6.54.35-13.08.04-19.61.18-.7.98-1.39 1.96-2.09 2.95-1.67-4.69.44-9.55.81-14.28z"/>
    <path fill="#c82f31" d="M54.29 44.53c3.35-.51 6.89-.8 10.12.49-.66 2.12-1.54 4.2-3.32 5.62-1.43-1.31-2.85-2.62-4.32-3.88 1.28 2.46 2.69 4.85 4.12 7.23-1.32.02-2.63 0-3.95-.01 1.76 3.04 2.77 6.45 2.88 9.97-5.88-.87-10.58-4.88-16.21-6.52.53-6.06 5.01-11.03 10.68-12.9z"/>
    <path fill="#b82b2c" d="M64.41 45.02c5.78 2.5 9.87 8.59 9.14 14.98-.45 8.08-8.58 14.59-16.56 13.34-6.33-.4-11.3-5.3-13.22-11.11-.1-1.6-.15-3.2-.16-4.8 5.63 1.64 10.33 5.65 16.21 6.52-.11-3.52-1.12-6.93-2.88-9.97 1.32.01 2.63.03 3.95.01-1.43-2.38-2.84-4.77-4.12-7.23 1.47 1.26 2.89 2.57 4.32 3.88 1.78-1.42 2.66-3.5 3.32-5.62z"/>
    <path d="M18.21 51.95c5.36-.25 10.73-.11 16.1-.14-.6 1.9-1.01 3.85-1.25 5.83 1.17 1.02 2.92 1.79 3.21 3.49-.14 1.04-.27 2.08-.38 3.13-4.27-6.1-12-7.9-17.68-12.31zm12.27 45.88c2.83-5.33 5.8-10.6 9.07-15.68 1.54 1.57 3.06 3.18 4.8 4.52 1.94.58 3.92.99 5.9 1.34-7.37 1.37-13.08 6.76-19.77 9.82z" fill="#b22929"/>
    <path fill="#b22b29" d="M88.11 56.54c.63 4.13 1.75 8.71 5.82 10.76-.63.92-1.27 1.84-1.87 2.78l-.52-1.37c-.9-.69-1.82-1.35-2.73-2.01-.37 4.73-2.48 9.59-.81 14.28 3.12 5.69 6.66 11.16 9.55 16.98-5.87-3.4-11.71-6.84-17.64-10.13 1.57-1.3 3.15-2.59 4.73-3.88-.47-1.69-.98-3.36-1.39-5.06-2.84 3.26-6.65 6.39-6.82 11.07-.11 6.79.09 13.6-.12 20.39-3.49-5.83-6.75-11.8-10.26-17.62 2.24-.53 4.48-1.08 6.71-1.65.06-1.32.13-2.65.2-3.97-2.64.82-5.32 1.55-8.09 1.77-.97.98-2.05 1.91-2.69 3.17-3.38 6.19-6.99 12.25-10.51 18.36-.16-6.86-.08-13.73-.11-20.6 2.56.95 5.19 1.78 7.93 2.02.5-.99.99-1.97 1.48-2.95-3.57-.31-7.17-.26-10.72-.87-1.98-.35-3.96-.76-5.9-1.34 2.06-.24 4.11-.46 6.17-.61-.58-.33-1.75-.99-2.34-1.31-.45-1.5-.83-3.01-1.3-4.49 7.83 7.07 20.56 8.11 29.12 1.81 4.84-3.23 7.57-8.56 9.19-13.99.97-3.85 1.79-7.73 2.92-11.54z"/>
    <path fill="#bd2c2c" d="M93.93 67.3c5.23 2.83 10.32 5.91 15.48 8.87-6.53 1.2-13.27.21-19.88.48.84-2.19 1.68-4.38 2.53-6.57.6-.94 1.24-1.86 1.87-2.78z"/>
</svg>
