<svg width="128pt" height="128pt" viewBox="0 0 128 128" xmlns="http://www.w3.org/2000/svg">
    <path fill="#b22929" d="M86.8 26.76c3.41-2.69 6.16-6.12 9.46-8.94.98 3.88 1.57 7.85 2.49 11.75.46 1.94 2.73 2.39 4.12 3.49.47.26 1.39.77 1.85 1.03 2.17.8 4.17 1.99 6.24 3.02-3.74 2.5-7.77 4.51-11.59 6.88-.86 4.39-1.63 8.79-2.29 13.21-3.52-2.74-6.7-5.87-9.97-8.9-4.49.6-8.97 1.39-13.5 1.68 1.64-3.71 3.54-7.32 4.93-11.13.64-1.27-.19-2.53-.71-3.66-1.63-3.14-3.14-6.34-4.72-9.51 4.54.57 9.12 1.26 13.69 1.08z"/>
    <path fill="#3b0d0d" opacity=".6" d="M102.87 33.06l.85-.43.95.54.05.92c-.46-.26-1.38-.77-1.85-1.03z"/>
    <path fill="#fc4142" d="M36.28 87.48c.97-1.05 1.94-2.11 2.91-3.17.16 3.15 2.35 5 4.93 6.36-1.17.74-2.33 1.47-3.5 2.21-.15 1.45-.31 2.89-.48 4.34l-3.42-2.88c-1.44.32-2.87.66-4.3 1.03 1.6-2.66 1.52-5.65-.49-8.03 1.45.04 2.9.09 4.35.14z"/>
</svg>
