<svg width="128pt" height="128pt" viewBox="0 0 128 128" xmlns="http://www.w3.org/2000/svg">
    <path d="M50.52 53.41c17.33-.27 34.66.02 51.99-.13.4 3.85.43 7.73.14 11.59-5.14.57-10.5.89-15.07 3.61-7.28 3.65-9.92 12.67-8.93 20.27.48 3.55 3.22 6 5.89 8.06-13.16.12-26.32.02-39.47.04 3.28-2.8 5.78-6.44 7.03-10.59-.43-2.5-.25-5.33-1.95-7.42-2.3-3.64-7.1-3.47-10.72-4.88 0-6.07.16-12.14 0-18.21 3.44-.44 6.9-.43 10.36-.36.18-.5.55-1.49.73-1.98zm-36.79 3.35c8.15-.01 16.29-.25 24.44.1.02 5.6 0 11.21.01 16.82-9.65-3.08-17.27-10.07-24.45-16.92zm24 42.74c2.15-1.6 4.95-1.4 7.49-1.52 10.26.22 20.53.3 30.8.31 5.18.21 10.43-1.17 15.5.48.14 2.21.28 4.42.3 6.63-18.03.34-36.06.44-54.09.2.02-2.03.04-4.07 0-6.1z" fill="#fff"/>
</svg>
