<svg width="128pt" height="128pt" viewBox="0 0 128 128" xmlns="http://www.w3.org/2000/svg">
    <path fill="#b03b3b" d="M67.61 21.46c.08-2.43.88-4.77 2.73-6.43-.02 1.5.04 3 .18 4.5.75 1.77 2.66 2.6 3.99 3.87-.57.46-1.71 1.36-2.27 1.82 3.24-.62 6.36-2.64 9.72-2.16-.56 1.25-2.03 1.62-3.08 2.34-.83 1.54-1.4 3.16-.64 4.86-.99.06-2.96.19-3.94.25 2.38 2.17 5.32 4.05 8.55 2.2-.16.65-.48 1.96-.65 2.61 1.81 1.57 4.35 2.79 5.07 5.25.77 3.54-2.85 6.08-2.97 9.43.01 3.41 4.33.97 5.96.73-1.48 1.54-3.27 2.53-5.36 2.99-.67-1.49-1.96-2.91-1.75-4.66.58-2.11 1.85-3.95 2.5-6.04.61-2.88-2.37-4.65-3.7-6.74-.05.81-.15 2.45-.21 3.26-.5-.72-1.52-2.15-2.02-2.87-1.36 1.03-2.57 2.22-3.64 3.55-.26-.55-.77-1.65-1.03-2.2-2.51-.31-4.58-1.65-6.27-3.46-1.04.39-2.07.77-3.1 1.16.58.56 1.16 1.12 1.74 1.69 1.15.45 2.28.94 3.4 1.47L69 39.96c2.66 1.4 5.52 2.35 8.54 2.49-3.12 2.02-6.74 2.96-10.45 2.76.64-1.37 1.28-2.74 1.88-4.12-3.3.95-6.54 2.13-9.72 3.44l-.08 3.23c1.79.08 3.21-.92 4.57-1.95-.93 1.28-1.83 2.57-2.74 3.86-2.51-.88-4.4-3.35-2.9-5.94 2.49-1.35 5.11-2.43 7.84-3.19-.91-1.89-1.8-3.8-2.63-5.73-1.36 1.88-2.45 4.26-4.85 5 .87-1.73 1.77-3.44 2.59-5.19-2.18 1.14-3.92 2.87-5.34 4.86-.56-1.52-1.35-3.17.21-4.73-.85.82-2.54 2.46-3.39 3.29.86-3.42 3.81-5.05 6.76-6.43.22-.49.68-1.47.91-1.96-2.79 1.45-5.36 3.26-7.83 5.19-.39-.17-1.16-.5-1.55-.67-.05 2.83-.16 5.66-.33 8.5-1-1.57-1.96-3.17-2.88-4.78-.54 1.2-1.07 2.4-1.59 3.61-.2-1.62-.7-3.14-1.51-4.55.28 3.84.73 7.76 2.5 11.24-.95-.27-2.85-.82-3.79-1.09 2.15 3.13 3.15 6.76 1.5 10.36.9-1.1 1.79-2.21 2.67-3.33 1.15.22 2.3.46 3.46.69-.13 1.64-.24 3.28-.29 4.92.85-1.43 1.58-2.93 2.29-4.44 1.23.13 2.47.26 3.7.4.13 1.6.27 3.2.43 4.8.55-1.62 1.08-3.25 1.63-4.87 1.36.05 2.72.09 4.09.14.09 1.68.2 3.37.37 5.04.23-1.08.7-3.23.93-4.31 1.48.12 2.96.24 4.44.37 0 1.87 0 3.75.04 5.63.97-1.21 1.9-2.45 2.84-3.68 1.75.99 3.46 2.05 5.15 3.15-.83 1.42-1.65 2.86-2.43 4.31 1.53-.57 3.02-1.25 4.48-1.98 1.01 1.25 2.01 2.49 3.01 3.75-1.32 1.47-2.63 2.95-3.89 4.47 1.56-.69 3.12-1.39 4.67-2.12.85 1.7 1.67 3.41 2.48 5.12-1.32.87-2.64 1.74-3.95 2.61 1.51.37 3.02.75 4.53 1.14-.19 1.82.06 3.74-.65 5.47-1.66.62-3.46.32-5.19.37 1.45 1.29 3.5 2.09 4.42 3.89-.18.69-.54 2.08-.71 2.77l.28 1.2c.08.28.23.85.31 1.13-.22.56-.67 1.68-.9 2.24l-.26.73c.55 1.36 1.16 2.7 1.75 4.04-.2.29-.6.87-.79 1.16-1.49-2.73-3.01-5.44-4.62-8.11.98-.02 1.96-.04 2.95-.07-.98-.97-1.97-1.93-2.98-2.87-1.37-1.54-5.46.58-3.67 2.37 1.08.98 2.32 1.87 2.97 3.21.11.57.31 1.71.42 2.28-1.13-.38-2.26-.75-3.4-1.11-2.19-.15-4.38.13-6.51.65.43 1.14.85 2.28 1.25 3.44-.04.6-.1 1.81-.14 2.42l-6.09-2.31c-.36.25-1.06.75-1.41 1-.55 1.8-1.11 3.6-1.68 5.4-2.79-1.87-5.72-3.84-9.23-3.8.74 1.78 1.55 3.53 2.37 5.27-2.18-.73-4.37-1.43-6.55-2.17-8.66-2.86-15.26-9.62-20.16-17.09-.61-1.07-1.49-2.12-1.51-3.42l-.36-5.39c1.17 2.86 2.44 5.74 4.52 8.07.68-1.17 1.35-2.36 2.01-3.54-.07 3.88 1.43 7.55 4.55 9.93.38-.91.76-1.81 1.13-2.72l1.03-1.18c.2 1.06.61 3.17.81 4.23 1.59 4.12 5.85 6.02 10.05 6.12-.48-.9-1.45-2.69-1.93-3.59 3.71 2.27 8.28 3.64 12.46 1.72 1.03-.75 2.03-1.54 3.03-2.33-1.01-1.53-2.06-3.04-3.16-4.51 3.69 1.07 7.5.41 11.15-.49-1.06-1.27-2.13-2.53-3.21-3.78 4.78.67 8.75-2.88 9.22-7.58.13-1.87.11-3.76-.01-5.64-1.35-6.43-6.03-12.22-12.4-14.17-1.94-.57-3.15 1.8-4.51 2.79l.21-1.65c.09-.42.27-1.27.36-1.7-6.64.11-13.89 1.12-19.66-2.96-.06.83-.17 2.48-.22 3.3-3.5-3.54-5.38-8.32-5.12-13.32-.49.53-1.48 1.59-1.97 2.12-.61-5.13 1.86-9.66 4.42-13.87-2.86.54-5.71 1.17-8.55 1.77l1.2-1.73c2.15-1.91 4.68-3.29 7.08-4.84-2.15.2-4.29.44-6.43.73 3.54-3.13 8.07-4.67 12.74-4.95-1.24-1.92-3.57-2.33-5.53-3.16 3.37-.86 6.84.05 10.26-.3-.41-.7-1.24-2.11-1.65-2.82 1.97.74 3.95 1.5 5.99 2.04-.65-1.16-1.32-2.3-2-3.44 2.9-.06 5.11 2.04 7.91 2.34-.64-1.1-1.29-2.21-1.94-3.31 2.58.25 4.93 1.37 7.24 2.44.06-.45.17-1.35.23-1.8.76.32 2.27.96 3.02 1.27m-1.52 7.7c.52 2.8 3.86 2.86 6.11 2.98.12-.46.37-1.37.49-1.83-2.16-.61-4.37-1.03-6.6-1.15z"/>
    <g fill="#240909">
        <path opacity=".44" d="M74.51 23.4c3.37-.67 6.73-1.42 9.94-2.7-.59 1.52-1.43 2.9-2.32 4.24 14.11 5.99 25.04 19.2 27.33 34.47.83 8.39.69 17.2-2.94 24.98-4.74 11.62-14.65 20.92-26.52 24.95-6.97.72-13.85 3.06-20.99 1.95-3.92-.87-8.54-.55-11.7-3.42 2.18.74 4.37 1.44 6.55 2.17-.82-1.74-1.63-3.49-2.37-5.27 3.51-.04 6.44 1.93 9.23 3.8.57-1.8 1.13-3.6 1.68-5.4.35-.25 1.05-.75 1.41-1l6.09 2.31c.04-.61.1-1.82.14-2.42 1.67-1.47 3.48-2.77 5.26-4.09 1.14.36 2.27.73 3.4 1.11-.11-.57-.31-1.71-.42-2.28 1.23 2.1 2.24 4.33 2.85 6.69.06.77.2 2.32.27 3.1 11.08-4.96 20.41-14.28 24.11-25.97 5.43-15.45 1.01-33.84-11.13-44.9-4.35-4.58-10.33-6.88-15.5-10.32 1.05-.72 2.52-1.09 3.08-2.34-3.36-.48-6.48 1.54-9.72 2.16.56-.46 1.7-1.36 2.27-1.82z"/>
        <path opacity=".44" d="M66.09 29.16c2.23.12 4.44.54 6.6 1.15-.12.46-.37 1.37-.49 1.83-2.25-.12-5.59-.18-6.11-2.98z"/>
    </g>
    <path fill="#150707" opacity=".34" d="M52.37 34.84c2.47-1.93 5.04-3.74 7.83-5.19-.23.49-.69 1.47-.91 1.96-2.95 1.38-5.9 3.01-6.76 6.43.85-.83 2.54-2.47 3.39-3.29-1.56 1.56-.77 3.21-.21 4.73 1.42-1.99 3.16-3.72 5.34-4.86-.82 1.75-1.72 3.46-2.59 5.19 2.4-.74 3.49-3.12 4.85-5 .83 1.93 1.72 3.84 2.63 5.73-2.73.76-5.35 1.84-7.84 3.19.32-.67.96-2.02 1.29-2.7-2.64-.47-5.18-1.34-7.71-2.2-.39 1.28-.79 2.56-1.19 3.84.17-2.84.28-5.67.33-8.5.39.17 1.16.5 1.55.67z"/>
    <path fill="#250809" opacity=".44" d="M27.14 42.04c1.36-1.46 1.63-3.9 3.55-4.78l-1.2 1.73c2.84-.6 5.69-1.23 8.55-1.77-2.56 4.21-5.03 8.74-4.42 13.87.49-.53 1.48-1.59 1.97-2.12-.26 5 1.62 9.78 5.12 13.32.05-.82.16-2.47.22-3.3 5.77 4.08 13.02 3.07 19.66 2.96-.09.43-.27 1.28-.36 1.7-1.76 2.62-4.05 4.91-7.07 6.01.5.31 1.51.92 2.01 1.23-1.64.14-3.28.3-4.91.48 2.67 1.5 5.51.57 7.87-1.03.63.39 1.89 1.18 2.52 1.57-.27 1-.81 3-1.08 3.99.91-1.17 1.81-2.36 2.71-3.54 1.34 1.71 2.67 3.43 4.06 5.1-.43-1.6-.87-3.2-1.52-4.73 1.31.97 4.59-.15 2.12-1.62-.46-.43-1.37-1.3-1.83-1.73.24-1.28.27-2.6.17-3.89l3 .68c1.94 1.82 3.86 3.75 5.01 6.18 1.01 1.6 1.38 4.07 3.64 4.33.12 1.88.14 3.77.01 5.64-1.74 1.49-3.29 3.18-4.76 4.93-1.97.39-3.94.77-5.92 1.14.4 1.54.79 3.09 1.18 4.64-2.86-.18-5.72-.37-8.58-.56.32 2.85.68 5.69 1.05 8.54-4.18 1.92-8.75.55-12.46-1.72.48.9 1.45 2.69 1.93 3.59-4.2-.1-8.46-2-10.05-6.12.28-2.02.53-4.04.74-6.06-1.9-.04-2.31 1.49-2.58 3.01-.37.91-.75 1.81-1.13 2.72-3.12-2.38-4.62-6.05-4.55-9.93-.66 1.18-1.33 2.37-2.01 3.54-2.08-2.33-3.35-5.21-4.52-8.07l.36 5.39c-6.19-7.18-6.69-17.3-5.77-26.3.96-6.75 2.9-13.64 7.27-19.02z"/>
    <path fill="#170707" opacity=".39" d="M60.02 65.3c1.36-.99 2.57-3.36 4.51-2.79 6.37 1.95 11.05 7.74 12.4 14.17-2.26-.26-2.63-2.73-3.64-4.33-1.15-2.43-3.07-4.36-5.01-6.18-1.12-1.2-2.5-2.08-4.07-2.56-.98 1.9-1.96 3.81-2.99 5.69-.84-1.16-1.58-2.51-1.2-4z"/>
    <path fill="#ad3839" d="M53.16 69.66c3.02-1.1 5.31-3.39 7.07-6.01l-.21 1.65c-.38 1.49.36 2.84 1.2 4 1.03-1.88 2.01-3.79 2.99-5.69 1.57.48 2.95 1.36 4.07 2.56l-3-.68-.44-.1c-1.85.98-2.96 4.74.27 3.99.46.43 1.37 1.3 1.83 1.73l-3.46-.44c.34.52 1.01 1.55 1.34 2.06.65 1.53 1.09 3.13 1.52 4.73-1.39-1.67-2.72-3.39-4.06-5.1-.9 1.18-1.8 2.37-2.71 3.54.27-.99.81-2.99 1.08-3.99-.63-.39-1.89-1.18-2.52-1.57-2.36 1.6-5.2 2.53-7.87 1.03 1.63-.18 3.27-.34 4.91-.48-.5-.31-1.51-.92-2.01-1.23z"/>
    <path fill="#070202" opacity=".3" d="M65.11 69.38c-3.23.75-2.12-3.01-.27-3.99l.44.1c.1 1.29.07 2.61-.17 3.89z"/>
    <path fill="#060102" opacity=".28" d="M63.48 70.67l3.46.44c2.47 1.47-.81 2.59-2.12 1.62-.33-.51-1-1.54-1.34-2.06z"/>
    <path fill="#150707" opacity=".36" d="M85.37 79.27c2.4 3.04-1.04 6.47-.35 9.58.24.29.73.86.97 1.15-.81.99-1.64 1.98-2.47 2.97l-.28-1.2c.17-.69.53-2.08.71-2.77-.92-1.8-2.97-2.6-4.42-3.89 1.73-.05 3.53.25 5.19-.37.71-1.73.46-3.65.65-5.47z"/>
    <path fill="#180707" opacity=".47" d="M72.18 87.25c1.47-1.75 3.02-3.44 4.76-4.93-.47 4.7-4.44 8.25-9.22 7.58 1.08 1.25 2.15 2.51 3.21 3.78-3.65.9-7.46 1.56-11.15.49 1.1 1.47 2.15 2.98 3.16 4.51-1 .79-2 1.58-3.03 2.33-.37-2.85-.73-5.69-1.05-8.54 2.86.19 5.72.38 8.58.56-.39-1.55-.78-3.1-1.18-4.64 1.98-.37 3.95-.75 5.92-1.14z"/>
    <path fill="#5c1f1f" opacity=".75" d="M85.99 90c1.18.38 2.35.78 3.52 1.2-1.86.86-3.7 1.75-5.52 2.68 1.4.76 2.82 1.53 4.23 2.29-1.76.06-3.53.11-5.29.17.23-.56.68-1.68.9-2.24-.08-.28-.23-.85-.31-1.13.83-.99 1.66-1.98 2.47-2.97z"/>
    <path fill="#050201" opacity=".36" d="M37.49 93.71c.27-1.52.68-3.05 2.58-3.01-.21 2.02-.46 4.04-.74 6.06-.2-1.06-.61-3.17-.81-4.23l-1.03 1.18z"/>
    <path fill="#4e1919" opacity=".67" d="M75.31 93.59c-1.79-1.79 2.3-3.91 3.67-2.37-1.19.84-2.41 1.63-3.67 2.37z"/>
    <path fill="#150707" opacity=".32" d="M75.31 93.59c1.26-.74 2.48-1.53 3.67-2.37 1.01.94 2 1.9 2.98 2.87-.99.03-1.97.05-2.95.07 1.61 2.67 3.13 5.38 4.62 8.11.19-.29.59-.87.79-1.16.22.47.65 1.4.87 1.86-1.39.17-2.78.34-4.16.52-.61-2.36-1.62-4.59-2.85-6.69-.65-1.34-1.89-2.23-2.97-3.21z"/>
    <path fill="#140607" opacity=".42" d="M68.79 98.62c2.13-.52 4.32-.8 6.51-.65-1.78 1.32-3.59 2.62-5.26 4.09-.4-1.16-.82-2.3-1.25-3.44z"/>
</svg>
