<svg width="128pt" height="128pt" viewBox="0 0 128 128" xmlns="http://www.w3.org/2000/svg">
    <path d="M50.04 53.16c2.18-2.34 4.65-4.41 7.5-5.89l.09 3.41c-1.4.95-2.79 1.92-4.19 2.87 1.26 2.88 2.93 5.56 4.46 8.31-4.09.48-8.1-.08-11.37-2.71 2.17.01 4.34.01 6.51 0-.81-2.08-1.94-4.02-3-5.99zm11.08-6.29c1.17 1.93 2.31 3.88 3.44 5.83 1.11-1.91 2.23-3.82 3.44-5.68 3.34-.02 6.28 1.52 9.01 3.28l-3.09 1.71c-1.38-.64-2.77-1.24-4.17-1.82-2.28 2.13-3.89 4.83-5.14 7.67-2.47-3.22-4.25-6.82-3.49-10.99zm9.94 15.03c1.85-3.52 3.72-7.36 7.96-8.39-1.11 1.87-2.19 3.75-3.24 5.65 2.58.01 5.15-.08 7.73-.14.69 3.16.63 6.41.56 9.62-1.08-.51-2.16-1.01-3.24-1.5.13-1.76.27-3.51.38-5.27-3.38-.28-6.77-.14-10.15.03zm-25.89.61c1.03.57 2.07 1.13 3.11 1.68 0 1.65 0 3.3-.02 4.96 3.14 1.36 6.64.1 9.94.22-1.65 3.75-4.28 7-8.14 8.61 1.12-1.96 2.24-3.92 3.35-5.89-2.14.01-4.29.1-6.43.17-2.03.63-1.64-1.95-1.82-3.08-.08-2.22-.01-4.45.01-6.67zm25.97 6.75c4.17-.41 8.24.14 11.61 2.83-2.33.01-4.66.03-6.99.02 1.02 2.31 4.2 4.65 2.57 7.35-1.65 2.22-4.32 3.33-6.71 4.56l-.04-3.65c1.57-.92 4.87-1.87 3.67-4.33-1.44-2.22-2.86-4.46-4.11-6.78zM59.17 81.58c2.94-1.73 3.14-5.7 5.53-8.04 2.38 3.13 3.83 6.69 3.17 10.68-1.1-1.89-2.2-3.79-3.26-5.7-1.08 1.93-1.96 4.04-3.52 5.66C57.8 85.2 55 82.38 52.26 81c1.03-.65 2.08-1.26 3.13-1.87 1.27.81 2.53 1.61 3.78 2.45z" fill="#fff"/>
</svg>
