<svg width="128pt" height="128pt" viewBox="0 0 128 128" xmlns="http://www.w3.org/2000/svg">
    <g fill="#fff">
        <path d="M54.91 42.95c1.55-8.81 6.85-16.24 12.08-23.26-1.12 5.11-.83 10.52 1.16 15.37 1.71 6.69 4.14 13.19 7.7 19.13 4.42 7.96 9.26 17.22 6.28 26.54-.92 3.58-6.16 7.44-8.83 3.27 3.61-7.52 5.13-16.89 1.13-24.56.98 7.51.91 15.53-2.82 22.34-.71 1.99-2.73 3.84-2.36 6.01.31 0 .91.01 1.21.01.27-.77.82-2.3 1.09-3.07 2.43 2.84 6.97 3.39 9.39.25 4.18-3.91 2.88-9.91 3.61-14.96 1.7 7.15 3.3 15.01.59 22.09-1.37 4.15-6.82 7.6-10.77 4.69-3.17-1.81-3.38-5.83-5.79-8.29-1.34-3.4 1.19-6.63 2.32-9.71 1.88-4.15 1.39-8.78 1.08-13.18-.68 5.65-1.49 11.44-4.42 16.43l-1.74-1.26c4.88-11.35 2.98-24.95-3.49-35.29 2.87 10.72 5.72 22.46 1.3 33.18-7.89-9.91-10.68-23.33-8.72-35.73z"/>
        <path d="M48.77 47.78c1.79-5.49 4.15-11.04 8.19-15.27-5.44 11.33-5.03 24.83-.5 36.39 1.8 4.12 3.76 8.27 7.05 11.43-7.06-1.52-10.63-8.57-13.43-14.53-2.7-5.6-3.3-12.09-1.31-18.02z"/>
    </g>
</svg>
