<svg width="128pt" height="128pt" viewBox="0 0 128 128" xmlns="http://www.w3.org/2000/svg">
    <g fill="#fff">
        <path d="M46.64 50.51c2.92-13.43 11.86-24.82 22.33-33.39-3.27 5.01-7.27 9.53-9.98 14.9-6.13 11.28-5.7 25.25-.85 36.9 1.49 3.27 2.88 6.7 5.45 9.28 4.4-10.88.96-22.52-1.42-33.39 6.97 10.72 8.49 24.51 3.97 36.48-5.9 1.51-10.6-3.25-13.54-7.73-4.27-6.79-7.87-14.87-5.96-23.05m3.01 13.75c2.82 6.36 6.28 13.86 13.55 15.96-11.03-12.75-13.52-32.32-6.47-47.58-6.59 8.79-11.79 20.82-7.08 31.62z"/>
        <path d="M67.65 33.55c3.85 9.52 9.75 17.95 15 26.71 3.61 8.73 6.21 18.33 5.12 27.85-.53 5.27-4.11 10.82-9.77 11.38-5.73-.28-8.76-5.76-10.01-10.7 1.59-4.16 4.26-7.84 5.47-12.16 1.92-5.67 1.28-11.74.78-17.59 4.62 7.61 2.94 17.49-.81 25.12 2.91 3.43 7.52.08 8.46-3.37 2.77-8.45-1.05-17.15-5.11-24.48-4.18-7.07-7.5-14.69-9.13-22.76m12.96 52.03c-2.5 2.68-6.76 2.24-8.83-.74-.73 1.77-2.53 3.62-1.44 5.63.97 2.7 2.34 5.8 5.34 6.71 3.58 1.72 7.69-1.3 9.04-4.62 3.38-7.3.97-15.42-.23-22.94-.15 5.44.81 12.03-3.88 15.96z"/>
        <path d="M71.94 64.87c.62 3.4.88 6.95.28 10.38-2.05 7.66-6.69 14.26-11.38 20.53-3.97 5.29-9.17 9.44-14.18 13.68-2.7-.62-5.47-.58-8.06.51 2.42-2.94 6.43-3.66 9.37-5.96 9.65-5.62 16.57-15.05 20.88-25.2 2.03-4.39 2.24-9.26 3.09-13.94z"/>
    </g>
</svg>
