<svg width="128pt" height="128pt" viewBox="0 0 128 128" xmlns="http://www.w3.org/2000/svg">
    <path opacity=".33" d="M48.93 20c4.04-.54 8.28-2.31 12.3-.8-5.46-.13-10.75 1.45-16.04 2.55 3.8 2.84 8.44 4.88 11.02 9.06 3.95 5.56 5.07 12.48 5.57 19.12-.03 2.04 2.39 2.37 3.81 1.57.89-1.31.74-2.98.95-4.47.44-5.98 2.11-12.04 5.74-16.9 2.6-3.75 6.89-5.69 10.49-8.28-1.02-.32-3.06-.97-4.08-1.3 2.56-.5 5.05.38 7.48 1.11-7.44 1.97-14.28 7.37-16.92 14.76-1.48 3.75-1.93 7.79-2.15 11.79l1.98-.95c-.04.46-.11 1.39-.14 1.86-2.05 4.52-.81 9.4 1.49 13.56.77-.84 1.53-1.69 2.32-2.51 1.75.3 3.51.59 5.27.87-2.51.26-5.03.68-7.28 1.89 2.3 2.82 4.99 5.29 7.8 7.61-.08 1.56-.16 3.13-.23 4.69l1.7-.9c-1.11.98-2.45 1.62-3.78 2.24.61-1.93 1.16-3.88 1.72-5.83-2.63-2.1-5.09-4.39-7.47-6.77-.33 2.51-1.9 5.39-.14 7.69.95 1.3 1.29 2.8.82 4.37-.18-.09-.54-.26-.72-.35l.08-1.13-.24-.57c-2.46-3.36-1.4-7.3-.19-10.87-2.04-3.22-3-6.91-3.38-10.66-1.79.01-3.58.01-5.37-.02-.44 3.73-1.35 7.42-3.44 10.59 1.09 3.56 2.48 7.58-.29 10.79.04.59.09 1.19.15 1.79-.61-.53-1.17-1.11-1.74-1.68 3.25-2.54 2.57-6.53 1.48-9.99-2.35 2.42-4.82 4.74-7.46 6.85.57 1.96 1.14 3.91 1.78 5.85-1.34-.63-2.69-1.27-3.81-2.25l1.69.84c-.07-1.57-.15-3.13-.23-4.69 2.82-2.28 5.47-4.77 7.77-7.57-2.22-1.27-4.74-1.65-7.23-1.91 1.74-.3 3.48-.61 5.22-.95.55.64 1.66 1.91 2.21 2.55 2.53-4.02 3.5-8.85 1.79-13.38-.05-.52-.17-1.57-.23-2.09l1.9 1.14c-.13-8.55-3.04-17.97-10.71-22.67-3.21-2.59-7.28-4.64-11.41-2.85 2.93-2.13 6.77-1.91 10.15-2.8zm5.48 65.94c.26-.76.79-2.29 1.05-3.05l1.13 2.14c-.19.19-.58.57-.77.76 2.27 2.86 3.47 8.12 8.14 7.45 5.38.65 6.2-5.74 9.1-8.8l1.47.2c-1.59 3.46-3.47 7.01-6.5 9.4-2.39.77-5.05.48-7.52.23-2.94-1.61-4.54-4.86-6.09-7.71l-.01-.62z" fill="#050102"/>
    <path d="M45.19 21.75c5.29-1.1 10.58-2.68 16.04-2.55.92.47 1.83.95 2.73 1.45 4.58-2.99 9.85-.65 14.73-.1 1.02.33 3.06.98 4.08 1.3-3.6 2.59-7.89 4.53-10.49 8.28-3.63 4.86-5.3 10.92-5.74 16.9-.21 1.49-.06 3.16-.95 4.47-1.42.8-3.84.47-3.81-1.57-.5-6.64-1.62-13.56-5.57-19.12-2.58-4.18-7.22-6.22-11.02-9.06zm-4.97 19.07c.59-.15 1.76-.46 2.35-.62.12 3.65-.37 7.26-.72 10.87.29 3.93 1.23 8.21-.97 11.79-3.52 6.22-3.13 14.11-.18 20.46 2.44 5.31 7.81 8.99 8.58 15.08-4.84-6.78-13.15-10.42-16.68-18.18-3.82-7-4.52-15.6-1.42-22.99 1.88-6.04 5.62-11.19 9.04-16.41zm45.47-.06c1.78-1.49 2.77 1.06 3.61 2.17 4.97 7.46 9.66 15.81 9.5 25.06-.39 8.39-4.54 16.66-11.28 21.74-.86.67-1.69 1.36-2.49 2.08-2.24 2.05-4.2 4.37-6.36 6.49 1.2-6.69 7.41-10.8 9.51-17.12 1.86-5.7 2.18-12.32-.82-17.7-1.48-2.59-1.99-5.55-1.52-8.49.71-4.76-1.02-9.49-.15-14.23z" fill="#892121"/>
    <path d="M38.78 22.8c4.13-1.79 8.2.26 11.41 2.85 7.67 4.7 10.58 14.12 10.71 22.67L59 47.18c-2.12-5.2-6.29-9.36-11.68-11.08-.59-2.71-1.66-5.83-4.74-6.5-2.55-.24-5.6-.47-7.72 1.25-1.71 2.32-1.64 5.48-3.12 7.93-1.31 1.09-3.02 1.52-4.53 2.25.29-4.05 1.5-7.98 3.6-11.46 2.19-2.73 4.72-5.33 7.97-6.77zm30.47 13.62c2.64-7.39 9.48-12.79 16.92-14.76 8.35 2.47 14.56 10.51 14.69 19.25-1.69-.54-3.34-1.17-4.97-1.83-1.25-3.09-.81-7.77-4.48-9.16-2.81-.47-6.17-1.03-8.45 1.14-1.61 1.2-1.54 3.39-1.91 5.16-5.65 1.36-9.82 5.8-11.97 11.04l-1.98.95c.22-4 .67-8.04 2.15-11.79zM48.36 78.47l1.26-.23c2.08 2.23 3.3 5.07 4.79 7.7l.01.62c1.55 2.85 3.15 6.1 6.09 7.71 2.47.25 5.13.54 7.52-.23 3.03-2.39 4.91-5.94 6.5-9.4.97-2.21 1.94-4.49 3.71-6.2l1.44-.24c-.43 3.05-.64 6.28-2.32 8.97-1.81 3.21-4.86 5.78-5.68 9.5-.78 2.73.35 5.51.17 8.27-1.91.79-2.91-2.11-4.33-3.05-1.44 3.27-2.25 6.77-2.45 10.34-.28.74-.84 2.21-1.12 2.94-1.77-4.27-1.18-9.18-3.62-13.27-1.51 1.88-3.18 3.66-5.26 4.92l.31-1.11c.86-2.91 1.74-6.01.92-9.04-.9-3.95-4.24-6.61-6.02-10.12-1.34-2.48-1.62-5.33-1.92-8.08z" fill="#892021"/>
    <path opacity=".21" d="M34.86 30.85c2.12-1.72 5.17-1.49 7.72-1.25 3.08.67 4.15 3.79 4.74 6.5 5.39 1.72 9.56 5.88 11.68 11.08.06.52.18 1.57.23 2.09-1.99-3.72-3.82-7.83-7.46-10.25-2.09-1.57-4.77-1.81-7.27-2.08-.02 6.31.05 12.63.7 18.91 1.87 1 3.9 1.6 5.98 2.01-.65.3-1.96.91-2.62 1.21-1.3-1.18-2.79-2.16-4-3.44-1.22-6.12-.02-12.43-1.14-18.55-.12 6.29-1.05 12.56-.58 18.86.06 5.49-.22 11.54 3.18 16.23-.33.27-.97.81-1.3 1.08-1.52-2.46-2.45-5.22-3.46-7.92-3.14 7.75-.98 16.7 4.03 23.16 2.23 3.19 6.03 6.16 5.15 10.53-1.23 2.39-4.1 2.6-6.46 2.27 2.43-1.59 2.95-5.64-.57-6.02-.86-2.02-2.16-3.78-3.82-5.21-.24 1.89-.04 3.95-1.05 5.66-1.88 2.24-5.52 3.25-7.67.79 2.19.12 4.84.78 6.59-.98 1.77-1.83 1.43-4.91-.25-6.67-6.58-7.45-10.76-17.97-8.01-27.89 1.78-8.43 6.14-16.01 11.59-22.6-5.02.34-10.4 1.22-14.25 4.77-.23-1.95-.5-3.89-.79-5.83 1.76-2.53 2.52-5.81 5.06-7.74-2.1 3.48-3.31 7.41-3.6 11.46 1.51-.73 3.22-1.16 4.53-2.25 1.48-2.45 1.41-5.61 3.12-7.93m-1.14 6.91c4.14-1.29 8.47-1.57 12.78-1.68-.32-3.8-3.71-6.54-7.5-5.99-4.07-.23-5.23 4.46-5.28 7.67m6.5 3.06c-3.42 5.22-7.16 10.37-9.04 16.41-3.1 7.39-2.4 15.99 1.42 22.99 3.53 7.76 11.84 11.4 16.68 18.18-.77-6.09-6.14-9.77-8.58-15.08-2.95-6.35-3.34-14.24.18-20.46 2.2-3.58 1.26-7.86.97-11.79.35-3.61.84-7.22.72-10.87-.59.16-1.76.47-2.35.62zM57.76 75.6c-.06-.6-.11-1.2-.15-1.79 4.19.76 8.45.54 12.67.17l.24.57-.08 1.13c-1.96.54-3.99 1.08-5.6 2.37 0 3.07 4.29 2.63 6.43 3.31-.61 1.16-1.16 2.34-1.72 3.52l.36-3.37c-1.31 1.16-2.5 2.47-3.93 3.49-1.51.09-3.02-.06-4.52-.17-1.07-1.26-2.32-2.35-3.78-3.13-.18-.12-.54-.35-.72-.47 2.12-.39 6.32-.23 6.16-3.22-1.62-1.14-3.54-1.68-5.36-2.41m2.63 6.2c1.15 3.33 6.04 3.17 7.24-.02-2.26-1.48-5.02-1.58-7.24.02z" fill="#010000"/>
    <path d="M33.72 37.76c.05-3.21 1.21-7.9 5.28-7.67 3.79-.55 7.18 2.19 7.5 5.99-4.31.11-8.64.39-12.78 1.68zm47.95-1.59c-.28-5.27 5.88-7.45 10.04-5.46 2.29 1.59 2.23 4.66 2.79 7.09-4.22-.87-8.49-1.85-12.83-1.63zM57.68 81.7c1.46.78 2.71 1.87 3.78 3.13 1.5.11 3.01.26 4.52.17 1.43-1.02 2.62-2.33 3.93-3.49l-.36 3.37c1.16-.17 2.33-.38 3.51-.44-2.9 3.06-3.72 9.45-9.1 8.8-4.67.67-5.87-4.59-8.14-7.45.19-.19.58-.57.77-.76l2.04-.44c-.24-.72-.72-2.17-.95-2.89z" fill="#af2829"/>
    <path d="M44.5 36.94c2.5.27 5.18.51 7.27 2.08 3.64 2.42 5.47 6.53 7.46 10.25 1.71 4.53.74 9.36-1.79 13.38-.55-.64-1.66-1.91-2.21-2.55-1.14-1.08-2.54-1.82-4.05-2.24-2.08-.41-4.11-1.01-5.98-2.01-.65-6.28-.72-12.6-.7-18.91zm24.44 12.18c2.34-5.98 7.15-12.78 14.4-12.01.39 6.25.03 12.52-.51 18.75-1.88 1.04-3.94 1.63-6.04 2.01-1.53.41-2.92 1.18-4.04 2.3-.79.82-1.55 1.67-2.32 2.51-2.3-4.16-3.54-9.04-1.49-13.56z" fill="#b22b2c"/>
    <path fill="#010000" opacity=".14" d="M83.34 37.11l.56-.24c1.64.5 2.87 1.82 4.09 2.98 6.04 6.32 9.48 14.72 11.23 23.19 1.57 7.87-1.34 15.9-5.72 22.37-1.81 2.53-4.99 5-3.98 8.51 1.05 3.33 4.98 3.03 7.71 2.55-1.57 3.25-6.06 1.36-7.91-.71-.71-1.98-.55-4.26-1.8-6.03 6.74-5.08 10.89-13.35 11.28-21.74.16-9.25-4.53-17.6-9.5-25.06-.84-1.11-1.83-3.66-3.61-2.17-.87 4.74.86 9.47.15 14.23-.47 2.94.04 5.9 1.52 8.49 3 5.38 2.68 12 .82 17.7-2.1 6.32-8.31 10.43-9.51 17.12 2.16-2.12 4.12-4.44 6.36-6.49l.12 3.18c-2.25.29-3.49 2.05-3.53 4.32 1.05-.7 2.06-1.46 3.09-2.18.34 2.17-.96 4.95-3.54 4.32-3.48-.31-4.76-4.57-2.76-7.16 3.18-4.54 7.18-8.69 8.74-14.17 1.61-4.85 1.63-10.24-.68-14.87-.8 2.74-1.63 5.52-3.18 7.95l-1.3-1.02c3.23-4.35 3.16-10 3.19-15.17.43-6.12-.45-12.22-.58-18.33-1.26 4.98-.22 10.27-.92 15.36.12 2.56-2.82 3.4-4.28 5.01-.65-.29-1.96-.89-2.61-1.18 2.1-.38 4.16-.97 6.04-2.01.54-6.23.9-12.5.51-18.75z"/>
    <path fill="#8a2021" d="M87 38.46c6.3-.2 13.93 1.74 16.75 8 1.72 4.34 3.08 8.9 3.52 13.56-1.31 9.37-7 17.23-10.54 25.81-.89 2.14.08 4.36 1.26 6.15.83-.82 1.61-1.68 2.35-2.59-.84.12-2.53.36-3.37.47-.17-3.24 2.64-3.55 4.82-2.13.33 3.64-1.43 6.9-4.56 8.74-2.73.48-6.66.78-7.71-2.55-1.01-3.51 2.17-5.98 3.98-8.51 4.38-6.47 7.29-14.5 5.72-22.37-1.75-8.47-5.19-16.87-11.23-23.19L87 38.46z"/>
    <path fill="#8b2021" d="M26.54 43.14c3.85-3.55 9.23-4.43 14.25-4.77-5.45 6.59-9.81 14.17-11.59 22.6-2.75 9.92 1.43 20.44 8.01 27.89 1.68 1.76 2.02 4.84.25 6.67-1.75 1.76-4.4 1.1-6.59.98-3.18-1.81-5.01-5.1-4.66-8.79 2.18-1.44 4.98-1.08 4.82 2.14-.83-.12-2.49-.35-3.32-.46.47 1.88 2.35 1.15 3.75 1.11.02-1.37.13-2.75-.02-4.11-3.39-9.15-10.09-17.33-10.65-27.34 1.15-5.47 1.93-11.6 5.75-15.92z"/>
    <path d="M43.42 37.08c1.12 6.12-.08 12.43 1.14 18.55 1.21 1.28 2.7 2.26 4 3.44.36.5 1.09 1.49 1.45 1.98 2.49.26 5.01.64 7.23 1.91-2.3 2.8-4.95 5.29-7.77 7.57.08 1.56.16 3.12.23 4.69l-1.69-.84c-.71-.7-1.37-1.44-1.99-2.21-3.4-4.69-3.12-10.74-3.18-16.23-.47-6.3.46-12.57.58-18.86zm40.26 16.96c.7-5.09-.34-10.38.92-15.36.13 6.11 1.01 12.21.58 18.33-.03 5.17.04 10.82-3.19 15.17-.62.76-1.28 1.47-1.98 2.15l-1.7.9c.07-1.56.15-3.13.23-4.69-2.81-2.32-5.5-4.79-7.8-7.61 2.25-1.21 4.77-1.63 7.28-1.89.34-.49 1.04-1.49 1.38-1.99 1.46-1.61 4.4-2.45 4.28-5.01zM57.9 63.02c2.09-3.17 3-6.86 3.44-10.59 1.79.03 3.58.03 5.37.02.38 3.75 1.34 7.44 3.38 10.66-1.21 3.57-2.27 7.51.19 10.87-4.22.37-8.48.59-12.67-.17 2.77-3.21 1.38-7.23.29-10.79z" fill="#b22829"/>
    <path d="M50.04 70.78c2.64-2.11 5.11-4.43 7.46-6.85 1.09 3.46 1.77 7.45-1.48 9.99.57.57 1.13 1.15 1.74 1.68 1.82.73 3.74 1.27 5.36 2.41.16 2.99-4.04 2.83-6.16 3.22-1.98-1.2-3.62-2.87-5.14-4.6-.64-1.94-1.21-3.89-1.78-5.85zm20.3.88c-1.76-2.3-.19-5.18.14-7.69 2.38 2.38 4.84 4.67 7.47 6.77-.56 1.95-1.11 3.9-1.72 5.83-1.53 1.72-3.25 3.25-4.96 4.79-2.14-.68-6.43-.24-6.43-3.31 1.61-1.29 3.64-1.83 5.6-2.37.18.09.54.26.72.35.47-1.57.13-3.07-.82-4.37z" fill="#b0292c"/>
    <path d="M41.26 65.33c1.01 2.7 1.94 5.46 3.46 7.92.9.97 1.84 1.91 2.79 2.84.01 2.92-.33 5.96.73 8.76 1.35 4 4.72 7.08 5.49 11.31.95 3.71.08 8.23-3.07 10.66-2.53 1.59-5.68 1.27-8.54 1.47-3.09-3.84-2.84-9.29-.04-13.2l1.33.18c3.52.38 3 4.43.57 6.02 2.36.33 5.23.12 6.46-2.27.88-4.37-2.92-7.34-5.15-10.53-5.01-6.46-7.17-15.41-4.03-23.16m1.85 32.68c-.5 1.47-.06 1.95 1.3 1.42.5-1.47.07-1.94-1.3-1.42zm43.36-32.76c2.31 4.63 2.29 10.02.68 14.87-1.56 5.48-5.56 9.63-8.74 14.17-2 2.59-.72 6.85 2.76 7.16 2.58.63 3.88-2.15 3.54-4.32-1.03.72-2.04 1.48-3.09 2.18.04-2.27 1.28-4.03 3.53-4.32 4.1 3.19 3.68 9.49.73 13.31-3.46-.22-7.84.13-10.11-3.09-3.4-4.84-1.6-11.32 1.65-15.74 2.87-3.87 3.5-8.73 3.1-13.41.94-.94 1.88-1.88 2.77-2.86 1.55-2.43 2.38-5.21 3.18-7.95z" fill="#8c2021"/>
    <path opacity=".08" d="M47.51 76.09c.71.7 1.43 1.41 2.11 2.15l-1.26.23c.3 2.75.58 5.6 1.92 8.08 1.78 3.51 5.12 6.17 6.02 10.12.82 3.03-.06 6.13-.92 9.04-2.95 1.25-5.42 3.39-8.39 4.58-1.8-.09-3.28-1.27-4.87-2 2.86-.2 6.01.12 8.54-1.47 3.15-2.43 4.02-6.95 3.07-10.66-.77-4.23-4.14-7.31-5.49-11.31-1.06-2.8-.72-5.84-.73-8.76z"/>
    <path opacity=".11" d="M78.24 78.44c.73-.81 1.5-1.6 2.28-2.38.4 4.68-.23 9.54-3.1 13.41-3.25 4.42-5.05 10.9-1.65 15.74 2.27 3.22 6.65 2.87 10.11 3.09-1.55.76-3.02 2.16-4.86 1.95-2.52-.92-4.58-2.7-6.81-4.12-2.32 1.53-4.58-.49-6.81-1.19-.44 2.52-1.04 5.05-2.33 7.29.2-3.57 1.01-7.07 2.45-10.34 1.42.94 2.42 3.84 4.33 3.05.18-2.76-.95-5.54-.17-8.27.82-3.72 3.87-6.29 5.68-9.5 1.68-2.69 1.89-5.92 2.32-8.97l-1.44.24z"/>
    <path fill="#110404" opacity=".49" d="M43.11 98.01c1.37-.52 1.8-.05 1.3 1.42-1.36.53-1.8.05-1.3-1.42z"/>
</svg>
