<svg width="128pt" height="128pt" viewBox="0 0 128 128" xmlns="http://www.w3.org/2000/svg">
    <g fill="#fff">
        <path d="M63.8 21.23l.2-2.25c.05.56.14 1.68.18 2.25 4.13-3.99 9.86-.75 14.68-.38.57.29 1.72.88 2.3 1.18-3.3 2.77-7.43 4.7-9.74 8.51-4.07 5.56-5.5 12.71-5.54 19.49l-.02.98c-.63.42-1.26.84-1.88 1.26-.61-.43-1.23-.85-1.84-1.26l-.02-.92c0-8.23-2.27-17.01-8.37-22.87-2.29-1.86-4.86-3.35-7.04-5.35 2.13-.59 4.26-1.15 6.41-1.68 3.49-.91 7.83-1.97 10.68 1.04z"/>
        <path d="M28.41 36.17c.88-6.1 5.95-11.29 11.57-13.56 4.25-.77 7.9 2.02 11.2 4.25 6.24 4.75 9.85 13.18 8.4 20.95-2.05-4.11-4.62-8.42-8.98-10.4-1.34-.87-3.74-.67-3.76-2.87.53.05 1.59.14 2.12.19-2.93.01-2.42-4.25-5.23-4.56l-.08-1.71c-2.23 1.11-4.78.74-7.16 1.28-3.53 1.22-3.36 5.66-4.37 8.65-1.3.77-2.68 1.38-4.12 1.82.74.31 1.49.61 2.24.9 3.15-1.95 6.9-2.5 10.53-2.61-7.09 7.8-11.66 17.92-12.64 28.43.08 8.34 3.87 16.41 9.44 22.5.98 1.55 1.76 3.74.4 5.32-1.83 2.64-5.9 2.48-8.22.57-2.83-1.35-3.47-4.8-3.22-7.63 1.14-.28 2.27-.54 3.42-.79.36.98.72 1.95 1.08 2.92-1.09-.27-2.17-.53-3.27-.78.19 1.43 1.14 2.36 2.3 3.1 1.85-1.93 2.36-4.78 1.05-7.16-3.65-8.24-8.72-16.01-10.31-25 1.45-6.25 2.06-14 7.68-18.05-1.38-1.19-.79-3.14-1.58-4.58-.7-.13-1.42-.11-2.11-.26 1.19-.36 2.4-.67 3.62-.92zm48.43-9.32c3.27-2.27 6.97-4.97 11.2-4.23 5.61 2.27 10.66 7.46 11.55 13.55 1.22.25 2.43.56 3.62.93-3.23-.58-2.35 3-3.35 5 5.23 4.28 5.96 11.66 7.34 17.86-1.59 9.18-6.86 17.05-10.5 25.49-.93 2.05-.86 4.92 1.18 6.28 1.54.34 2.01-1.6 2.38-2.66-1.11.23-2.22.48-3.32.73.38-.97.76-1.94 1.14-2.9 1.13.25 2.26.51 3.39.8.25 2.84-.39 6.29-3.24 7.63-2.8 2.45-8.21 1.72-9.01-2.36.08-3.14 2.68-5.03 4.38-7.33 3.69-5.89 6.7-12.59 6.22-19.71-1.32-10.14-5.68-19.88-12.59-27.44 4.36-.05 8.56 1.33 12.43 3.25-.13-.52-.4-1.55-.53-2.06-1.19-.12-2.27-.56-3.26-1.33-1-2.99-.85-7.42-4.39-8.62-2.31-.6-4.91.04-6.98-1.38-.1.5-.29 1.5-.39 2-2.09.15-2.4 2.57-3.28 3.99-.46.1-1.37.29-1.83.39l2.03-.15-.44 1.5c-5.78 1.59-9.95 6.38-12.07 11.82-1.64-7.79 2.09-16.26 8.32-21.05z"/>
        <path d="M29.69 63.03c1.75-8.54 6.26-16.29 11.61-23.05.94 5.98.18 12.04.58 18.05.55 4.03-3 7-3.4 10.87-.55 5.67.05 11.72 3.26 16.59 1.45 2.97 4.25 5.09 5.36 8.22.49-.57.98-1.13 1.48-1.69-6.86-6.54-11.06-17.14-7.27-26.33 1.34 4.07 3.23 7.87 6.03 11.14-.02 3.05-.29 6.25 1.14 9.06 1.43 3.83 4.81 6.75 5.15 10.99 1.18 4.37-1.05 10.4-6.09 10.85-2.29.43-5.51.88-6.68-1.71-1.24-3.47-1.39-8.44 2.03-10.72 3.02-.98 4.22 5.15 1.53 4.56 1.26-2.78-1.11-2.93-2.13-.99 1.56 1.93 4.14 3.87 6.54 1.96 2.91-1.33 1.44-4.97 1.3-7.35-.69.45-1.37.89-2.06 1.33.26.86.79 2.59 1.06 3.46C44.5 91.4 36.1 87.86 32.71 80.09c-2.46-5.26-4.34-11.22-3.02-17.06zm56.5-2.07c.33-6.94-.6-13.98.69-20.84 4.98 6.52 9.35 13.79 11.21 21.88 1.95 7.62-.95 15.58-5.04 21.97-4.23 5.25-10.27 8.69-14.16 14.28l1.04-3.44c-.69-.44-1.38-.88-2.07-1.33-.15 2.43-1.59 6.09 1.39 7.4 2.38 2.43 8.69-1.56 4.68-4.02-.23.81-.7 2.43-.94 3.24-2.21-1.69-.25-4.97 2.23-5.05 3.03 2.75 3.31 7.33 1.93 10.96-1.19 2.6-4.39 2.15-6.7 1.73-4.97-.56-7.32-6.51-6.06-10.92.37-4.55 4.25-7.58 5.49-11.82 1.07-2.62.88-5.5.69-8.26 3.01-3.03 4.88-6.9 5.87-11.02 4.33 8.99-.28 19.81-7.02 26.3.5.56.99 1.12 1.48 1.69 1.25-3.3 4.18-5.59 5.68-8.78 4.2-7.26 4.4-16.93-.39-23.97z"/>
        <path d="M48.64 78.22c3.33 1.55 3.9 5.55 5.65 8.41 1.83 2.95 3.46 6.5 6.81 7.99 1.94-.32 3.87-.32 5.81 0 6.59-3.4 7.06-12.01 12.25-16.68.71 5.53-2.47 10.43-5.74 14.55-3.16 4.16-2.35 9.68-.62 14.23-1.97-1.57-3.66-3.45-5.61-5.04-1.62 4.07-1.96 8.45-2.7 12.72-.24-.01-.74-.03-.99-.03-.76-4.39-1.02-8.93-2.98-13.01-1.55 1.99-3.3 3.8-5.26 5.37 1.68-4.55 2.46-10.05-.65-14.2-3.31-4.07-6.19-8.88-5.97-14.31z"/>
    </g>
    <path fill="#8d8d8d" opacity=".55" d="M39.98 22.61c4.38-.82 8.66-2.19 13.14-2.42-2.15.53-4.28 1.09-6.41 1.68 2.18 2 4.75 3.49 7.04 5.35 6.1 5.86 8.37 14.64 8.37 22.87-.86-.75-1.71-1.51-2.54-2.28 1.45-7.77-2.16-16.2-8.4-20.95-3.3-2.23-6.95-5.02-11.2-4.25z"/>
    <path fill="#919191" opacity=".57" d="M78.86 20.85c3.09.39 6.13 1.13 9.18 1.77-4.23-.74-7.93 1.96-11.2 4.23-6.23 4.79-9.96 13.26-8.32 21.05-.87.72-1.76 1.43-2.64 2.13.04-6.78 1.47-13.93 5.54-19.49 2.31-3.81 6.44-5.74 9.74-8.51-.58-.3-1.73-.89-2.3-1.18z"/>
</svg>
