<svg width="128pt" height="128pt" viewBox="0 0 128 128" xmlns="http://www.w3.org/2000/svg">
    <path fill="#a82829" d="M67.2 23.01c2.99-1.61 6.46-1.7 9.8-2.21 4.3.1 8.97-1.09 12.91 1.17 2.27 1.1 4.63 2.21 6.57 3.82-.96.17-2.87.49-3.82.66l-.9-.7c-.28-.23-.85-.69-1.14-.91-2.29-4.02-8.55-.81-6.58 3.38.52.37 1.56 1.12 2.08 1.49-.52.11-1.54.33-2.06.44-.97-1.44-1.77-3.19-3.75-3.28.43.66.85 1.33 1.26 2.01-.59 3.71-5.46 3.19-7.79 1.48-1.69.24-2.03 2.5-3.52 3.04-.22-.25-.68-.75-.9-1-4.21-.23-8.08 2.18-12.28 1.13.4-1.24 1.9-.34 2.79-.77 4.46-1.15 7.74-4.76 12.15-5.99-3.52-.95-8.37.12-10.71-3.62 1.82.31 4.26 1.29 5.89-.14z"/>
    <path fill="#2f0a0c" opacity=".62" d="M84.04 28.22c-1.97-4.19 4.29-7.4 6.58-3.38-1.18-.16-2.35-.4-3.5-.72-.8.49-1.44 1.15-1.91 1.98.13.49.39 1.47.53 1.96l-1.7.16z"/>
    <path d="M87.12 24.12c1.15.32 2.32.56 3.5.72.29.22.86.68 1.14.91-.21.21-.63.64-.84.85 1.73-.11 3.47.03 5.2-.15.98.91 1.98 1.77 2.96 2.67.05.67.14 2 .19 2.67 1.95 2.66 5.9 4.7 5.58 8.38-.52.09-1.56.25-2.09.33.15 1.59.03 3.18-.54 4.68-.34.21-1.02.62-1.35.83-1.09.54-1.44 1.51-1.04 2.91-3.39.02-4.16-4.13-5.96-6.28l-.24 3.45c-3.53-2.35-6.83-6.32-6.61-10.85.38-3.3 4.02-4.46 5.95-6.73-1.2-.09-2.59-.61-3.61.35-1.08.31-2.16.59-3.24.85-.52-.37-1.56-1.12-2.08-1.49l1.7-.16c-.14-.49-.4-1.47-.53-1.96.47-.83 1.11-1.49 1.91-1.98zm-7.14 34.79c1.89-1.46 3.46-3.23 5.17-4.87 1.93 2.2 1.87 5.29 2.19 8.04 1.35-.6 2.22-1.99 3.64-2.43.99 2.5 2.8 4.65 3.44 7.28-.4 2.84-2 5.34-2.42 8.19-1.57.43-3.14.81-4.68 1.34.11.9.23 1.81.36 2.71-1.33 1.7-3.71 1.38-5.55.92-1.95-4.59-3.96-9.21-4.63-14.19.33-1.57 1.36-2.85 2-4.28-.6.39-1.81 1.17-2.41 1.56l-.42-1.42 1.51-.61c-.2-.36-.6-1.08-.8-1.45l1.44-.72c.29-.02.87-.06 1.16-.07z" fill="#8c2021"/>
    <path fill="#b52829" d="M80.31 26.87c1.98.09 2.78 1.84 3.75 3.28.52-.11 1.54-.33 2.06-.44 1.08-.26 2.16-.54 3.24-.85.51.22 1.54.65 2.05.87-2.76 1.12-5.04 3.36-5.88 6.26 1.68 5.36 5.66 9.38 9.56 13.21 1.98 6.43 2.86 13.28 6.92 18.86.42.29 1.27.88 1.69 1.18-.79 1.75-2.37-.08-3.45-.4-4.64-2.84-6.07-8.45-9.1-12.53.77-3.3-.7-6.44-1.92-9.42.38 4.14 2.28 9.23-.75 12.76-.97-3.29-1.39-7.07-4-9.56.56 4.21-3.36 6.18-5.66 8.89l-1.44.72c-1.98 1.12-4.04 2.41-6.33 2.98.7-2.48 3.38-3.81 4.06-6.39 1.55-5.03 4.95-9.22 6.62-14.17-.92.85-2.13 1.5-2.59 2.73-1.44 3.72-3.93 6.91-6.32 10.07-2.91 1.9-6.39 2.53-9.48 4.04 1.17-3.48 3.87-6.01 5.66-9.12-3.17 2.05-4.82 5.67-7.27 8.44-1.2 1.7-2.85 2.93-4.66 3.93-1.02-.04-3.06-.13-4.08-.17 1.2-1.13 2.44-2.22 3.63-3.38.16-2.55-.88-5.09.31-7.55 1.89-2.12 4.17-3.84 6.11-5.91-1.29.3-3.86.89-5.15 1.18 2.98-3.31 6.86-5.97 11.15-7.12-5.96-.62-11.25 2.53-17.17 2.75 3.24-1.62 5.32-4.99 8.85-6.03 3.04-1.37 6.24-2.15 9.54-2.58 1.49-.54 1.83-2.8 3.52-3.04 2.33 1.71 7.2 2.23 7.79-1.48-.41-.68-.83-1.35-1.26-2.01z"/>
    <path opacity=".24" d="M89.36 28.86c1.02-.96 2.41-.44 3.61-.35-1.93 2.27-5.57 3.43-5.95 6.73-.22 4.53 3.08 8.5 6.61 10.85l.24-3.45c1.8 2.15 2.57 6.3 5.96 6.28-.4-1.4-.05-2.37 1.04-2.91v3.11c-1.28 1.14-3.69-1.09-4.35.74.73.75 1.43 1.54 2.1 2.35l-.44.16-.81.3c.12 3.25.92 6.54 2.21 9.53.39 1.53 1.87 2.22 3.33 1.79-2.12-2.36-3.26-5.47-3.32-8.63l.83-.16c.24 2.72 1.23 5.22 3 7.31.91 1.28-.16 2.38-1.45 2.61l.04 2.94c-4.06-5.58-4.94-12.43-6.92-18.86-3.9-3.83-7.88-7.85-9.56-13.21.84-2.9 3.12-5.14 5.88-6.26-.51-.22-1.54-.65-2.05-.87zm-32.88 46.6c4.21-.56 6.46 3.64 9.38 5.8 2.35 1.39 2.74 4.38 4.83 6.06-.42 1.38-1.29 2.62-1.15 4.14-1.83 1.06-2.75 3.01-1.92 5.05l.02.19c-.44.7-.91 1.38-1.39 2.05 2.96-.92 8.46-.58 7.23 3.86-.81-1.1-1.32-2.45-2.43-3.3-2.66-.65-5.16 1.26-7.68-.14 1.67-2.56 2.57-5.54 4.29-8.08.16-2.01.1-4.02.25-6.02-3.06-3.87-6.72-8.16-12-8.48-3.28 2.5-7.35 4.23-9.29 8.11-.35-.19-1.07-.56-1.42-.75 3.56-3.01 6.91-6.57 11.28-8.49z" fill="#030000"/>
    <path fill="#380c0c" opacity=".61" d="M57.08 33.53c4.2 1.05 8.07-1.36 12.28-1.13.22.25.68.75.9 1-3.3.43-6.5 1.21-9.54 2.58-.65-1.26-1.84-1.68-3.58-1.26l-.06-1.19z"/>
    <path fill="#942021" d="M29.89 37.83c6.92-4.04 16.27 3.46 14.76 11.05.2 4.47-2.62 8.47-6.56 10.41-1.38-.02-2.75.04-4.12.18-2.75.54-3.23-3.48-6.17-2.23-1.33-2.51 1.47-3.74 3.12-4.89 1.44 1.1 3.15 1.78 4.93 2.07 1.12.02 2.05-.67 3.03-1.1 2.74-.83 3.19-4.4 2.39-6.73-1.18-1.58-1.2-3.87-2.91-5.04-1.67-1.54-4.18-2.11-6.4-1.79-6.27 3.12-8.22 10.4-10.6 16.4-.42-.49-1.25-1.45-1.66-1.94 1.46-4.34 3.1-8.79 6.21-12.25 1.25-1.48 1.98-3.49 3.98-4.14z"/>
    <path opacity=".42" d="M81.73 42.12c-1.67 4.95-5.07 9.14-6.62 14.17-.68 2.58-3.36 3.91-4.06 6.39 2.29-.57 4.35-1.86 6.33-2.98.2.37.6 1.09.8 1.45l-1.51.61c-3.09 2.32-6.94 2.86-10.68 2.1-.06-1.62 1.77-1.28 2.76-1.87 2.3-1.29 4.69-3.39 4.55-6.28-2.76 2.52-6.38 3.57-9.64 5.15-.6-.31-1.79-.94-2.39-1.26.12-.33.34-.99.46-1.32 2.45-2.77 4.1-6.39 7.27-8.44-1.79 3.11-4.49 5.64-5.66 9.12 3.09-1.51 6.57-2.14 9.48-4.04 2.39-3.16 4.88-6.35 6.32-10.07.46-1.23 1.67-1.88 2.59-2.73zm7.5 4.77c1.22 2.98 2.69 6.12 1.92 9.42 3.03 4.08 4.46 9.69 9.1 12.53 1.08.32 2.66 2.15 3.45.4.59.43 1.03 1 1.35 1.68-1.97.71-3.77-1.09-5.77-.72-1.08 3.69-3.49 6.86-5.99 9.73-.04 1.76.26 3.49.55 5.22-2.31-2.86-2.4-6.57-1.84-10.03.42-2.85 2.02-5.35 2.42-8.19-.64-2.63-2.45-4.78-3.44-7.28-1.42.44-2.29 1.83-3.64 2.43-.32-2.75-.26-5.84-2.19-8.04-1.71 1.64-3.28 3.41-5.17 4.87-.29.01-.87.05-1.16.07 2.3-2.71 6.22-4.68 5.66-8.89 2.61 2.49 3.03 6.27 4 9.56 3.03-3.53 1.13-8.62.75-12.76m6.07 21.14c-.75 2.94-1.83 5.89-1.46 8.98l.89-.1c.93-2.41 2.6-4.5 3.64-6.76-.97-.78-1.88-1.68-3.07-2.12z" fill="#100303"/>
    <path d="M31.91 52.32c-1.9-2.65-1.51-7.13 2.2-7.73 3.06-.84 1.33 3.33 1.22 4.8 1.16 2.2 4.37.62 5.46-.8.1 1.89-.53 3.47-1.91 4.73-.98.43-1.91 1.12-3.03 1.1-1.09-1.06-2.38-1.96-3.94-2.1zm65.46.35l.81-.3c.35.75 1.06 2.25 1.41 2.99.06 3.16 1.2 6.27 3.32 8.63-1.46.43-2.94-.26-3.33-1.79-1.29-2.99-2.09-6.28-2.21-9.53z" fill="#b82929"/>
    <path d="M19.65 54.16l.05.06c.41.49 1.24 1.45 1.66 1.94-1.69 8.95-1.84 19.27 3.03 27.47 2.75 5.16 6.77 10.15 12.61 11.92 2.25-.69 4.13-3.11 3.35-5.52.16-4.13 1.97-8.09 3.6-11.84 6.38-6.02 14.22-10.45 19.71-17.33 3.26-1.58 6.88-2.63 9.64-5.15.14 2.89-2.25 4.99-4.55 6.28-.99.59-2.82.25-2.76 1.87 3.74.76 7.59.22 10.68-2.1l.42 1.42c-.75 1.54-1.21 3.19-1.55 4.85 1.76 5.87 3.97 11.58 6.45 17.18-1.65 2.8-5.52 3.21-8.21 4.76-2.81 1.29-4.5 4.07-6.16 6.54-.83-2.04.09-3.99 1.92-5.05-.14-1.52.73-2.76 1.15-4.14-2.09-1.68-2.48-4.67-4.83-6.06-2.92-2.16-5.17-6.36-9.38-5.8-4.37 1.92-7.72 5.48-11.28 8.49.35.19 1.07.56 1.42.75 1.94-3.88 6.01-5.61 9.29-8.11 5.28.32 8.94 4.61 12 8.48-.15 2-.09 4.01-.25 6.02-1.72 2.54-2.62 5.52-4.29 8.08 2.52 1.4 5.02-.51 7.68.14 1.11.85 1.62 2.2 2.43 3.3.93.69 1.4 1.42 1.42 2.18-.71.15-2.12.46-2.83.62-7.19.64-14.54-.56-21.8-.77-1.67-2.14-4.74-2.89-7.18-4.16-2.64 2.29-5.86-.53-8.84.3-1.78-1.27-3.67-2.37-5.55-3.49-9.4-10.69-11.8-25.77-10.02-39.52.49-1.16.81-2.37.97-3.61zM95.3 68.03c1.19.44 2.1 1.34 3.07 2.12-1.04 2.26-2.71 4.35-3.64 6.76l-.89.1c-.37-3.09.71-6.04 1.46-8.98z" fill="#891f1e"/>
    <path fill="#120404" opacity=".39" d="M77.09 63.18c.6-.39 1.81-1.17 2.41-1.56-.64 1.43-1.67 2.71-2 4.28.67 4.98 2.68 9.6 4.63 14.19.56 1.61 1.54 3.04 2.07 4.66-.55.11-1.65.34-2.21.46-2.48-5.6-4.69-11.31-6.45-17.18.34-1.66.8-3.31 1.55-4.85z"/>
    <path fill="#841d1e" d="M87.32 76.46c1.54-.53 3.11-.91 4.68-1.34-.56 3.46-.47 7.17 1.84 10.03 1.43 4.66 4.79 8.76 5.73 13.52 1.55.08 3.2.1 4.35-1.15.88.69 1.71 1.44 2.48 2.25.03.33.1 1 .13 1.33.24 1.9.55 3.8.48 5.72-2.22-.63-5.12.5-6.73-1.48-1.51.24-3.1.89-4.5-.04-1.86-4.23-5.88-7.04-7.46-11.47-1.2-1.34-.44-3.26-1.72-4.58-.12-1.81-2.01-2.81-2.4-4.5-.53-1.62-1.51-3.05-2.07-4.66 1.84.46 4.22.78 5.55-.92-.13-.9-.25-1.81-.36-2.71z"/>
    <path fill="#2e090a" opacity=".62" d="M106.53 101.1l2.44.84c.18 1.44.37 2.88.56 4.33l-.58.58c-.48-.01-1.46-.02-1.94-.03.07-1.92-.24-3.82-.48-5.72z"/>
</svg>
