<svg width="128pt" height="128pt" viewBox="0 0 128 128" xmlns="http://www.w3.org/2000/svg">
    <g fill="#fff">
        <path d="M52.85 18.03c13.16-.91 26.22 4.51 36.22 12.83 11.61 9.63 15.85 25.64 14.69 40.21-1.4 19.08-17.62 34.77-35.79 38.79-15.56 3.05-31.28-3.52-43.42-12.91 6.1 1 12.38 1.58 18.47.13 12.81-3.03 24.41-11.47 30.77-23.07 4.3-7.86 5.31-17.49 2.31-25.98-4.21-12.26-13.6-21.75-23.25-30m10.25 3.14c3.13.95 3.2 4.2 3.56 6.9.13-2.15.27-4.32-.12-6.45l-3.44-.45m7.57 2.61c-.55.72-1.09 1.45-1.62 2.18.51.79 1.02 1.58 1.54 2.37.56.12 1.69.37 2.26.49.21-.68.43-1.37.64-2.05-1.05-.66-2.11-1.33-3.17-1.99l3.75-.76-3.4-.24m4.85.98c.08.82.23 2.45.31 3.27-.68 3.04-4.05 3.62-6.67 3.27.94 1.04 1.85 2.1 2.76 3.17 3.34-1.78 5.98-6.16 3.6-9.71m-1.77 12.6c2.26 3.57 4.11 7.43 4.97 11.6-.43-5.3-1.87-10.61-.88-15.93.21-2.35 1.24-4.64.75-7.01-.51 4.16-1.17 8.71-4.84 11.34m5.65 2.58c1.99 6.21 8.91 8.62 14.66 9.99-3.14 2.04-4.25 6.69-.96 9.16-4.66-.61-9.21.74-13.21 3.07.1.38.3 1.13.4 1.5 3.79-2.38 8.31-3.86 12.81-3.08 1.79 3.21 6 1.99 8.93 3.3-1.22-3.72-6.09-3.83-9.04-5.65-2.39-4.2 2.83-7.43 6.57-6.77-.97-2.47-1.75-5.03-3.08-7.34-4.89 4.65-13.84 2.69-16.42-3.56 2.3 1 5.22 2.64 7.59.75l-.74-.35c-2.24-.22-4.45-1.26-5.45-3.38-1.26-3.03-.12-6.28 1.43-8.96-3.72 2.24-4.07 7.45-3.49 11.32m4.96-2.25c.94 1.65 2.17-.41 2.9-1.06-.62-.03-1.87-.07-2.49-.09l.5-1.53c3.02-2.46 3.33 2.86 3.16 4.74.52-1.73.22-3.58.15-5.36-2.18-1.14-5.85.58-4.22 3.3m10.58 19.22c1.14-.41 2.29-.8 3.45-1.2l-.56 2.03-.37.71-.25.81c2.07-.41 1.29-2.62 1.44-4.08-1.67-.98-4.4-1.03-3.71 1.73M79.17 68.24c-1.65 3.07-2.64 6.48-4.54 9.43 5.21 3.24 8.18 9.19 9 15.13-2.43-1.85-5.52-3.4-8.29-1.12.48-4.38-.2-8.83-1.78-12.94-.3.55-.9 1.64-1.2 2.19 2.96 4.69 2.32 11.04-1.22 15.24-1.81 1.96-4.55 1.96-6.98 1.65-.74-.89-1.53-1.74-2.11-2.74-1.26-2.8 1.88-7.05 4.92-4.94 2.04 1.57.39 3.89-.41 5.66 1.49-.93 3.63-1.75 3.67-3.81-.18-2.35-2.45-3.48-4.3-4.42-1.67 1.59-3.48 3.01-5.39 4.29-.91 2.41-.29 4.88.84 7.09-2.52.35-5 .95-7.38 1.86.85-1.93 1.9-3.85 1.69-6.05-.77 2.04-1.88 3.96-2.36 6.11-2.48 1.82-5.17 3.32-7.67 5.12 3.33.38 5.46-3.02 8.56-3.73 6.11-2.56 12.62.21 17.47 4.05 1.77-.76 3.69-1.24 5.33-2.28-1.96-1.81-4.76-2.42-7.15-3.51 1.43-1.42 2.78-2.91 4.02-4.49.9.92 1.79 1.86 2.75 2.71-.12-.66-.38-1.98-.5-2.64l1.55-.65.79 3c.42-1.08.82-2.15 1.22-3.23-1.88-1.86-3.46 1.21-5.53.37.62-2.31 2.07-4.85 4.77-3.48 4.19 1.64 3.39 6.73 2.1 10.09 4.11-2.5 3.14-7.89 2.43-11.89 4.6-.45 9.17-2.05 12.67-5.14 2.93-2.09 3.36-5.89 4.54-9.02-3.27 7.4-13.85 11.29-20.28 5.54 2.36.38 4.68.95 7.05 1.28.18-.3.54-.92.72-1.23 5.96-.48 6.76-10.32.88-11.95-1.82.58-3.72.79-5.61.55l.6 1.53-1.83-.65.4 1.08c-1.44.73-1.94 2.31-2.62 3.65 1.19-1.02 2.57-1.98 3.07-3.56.42.15 1.26.45 1.69.59l-.9-2.4c2.8 1.5 6.37 3.77 5.45 7.54-1.49.8-1.67 3.81-3.58 3.44l-.65-.19c-4.36-.54-8.33-5.01-6.42-9.44 2.75-5.18 8.51-8.07 14.1-9.15l-.28-1.54c-4.91 1.22-9.68 3.4-13.3 7m-39.76 32.29c-1.66 1.76 2.16 3.25 2.86 1.25.75-1.78-1.87-2.06-2.86-1.25m2.64 4.43c3.01.51 3.14-3.28 2.95-5.35-1 1.78-1.96 3.57-2.95 5.35z"/>
        <path d="M88.38 80.4c.59-1.23 1.49-1.98 2.71-2.24.69 1.18-2.19 3.89-2.71 2.24z"/>
    </g>
    <path fill="#f6f6f6" opacity=".96" d="M85.8 71.4c3.95-2.9 7.17 2.85 6.3 6.35l-1.86.22c.47-3.02-1.17-6.14-4.44-6.57z"/>
</svg>
