<svg width="128pt" height="128pt" viewBox="0 0 128 128" xmlns="http://www.w3.org/2000/svg">
    <g fill="#fff">
        <path d="M61.84 20.26c1.63.47 3.27.93 4.91 1.39.58 2.21.3 4.49-.15 6.7-.32-1.63-.46-3.29-.88-4.89-.91-1.43-2.59-2.15-3.88-3.2zm7.28 5.66c.44-1.31 1.88-1.8 2.86-2.62 1.24.63 2.6 1.09 3.69 1.97.86 1.64 1.38 3.43 2.18 5.09l.88-4.68c.78 1.76.02 3.63-.39 5.37.51.59 1.02 1.18 1.53 1.78.31-2.03 1.49-3.62 3.15-4.72-1.24 3.27-3.15 7.24-.7 10.45 1.4 2.31 4.37 2.35 6.32.74l.82-.39c-1.56 3.82-6.09 4.4-9.25 1.92 3.02 5.93 11.73 7.74 16.48 2.88 1.13 2.63 2.12 5.33 3.12 8.01-4.09-.95-10.19 3.5-5.7 7.45.86-1.32 1.72-2.91.52-4.46.6-.11 1.8-.32 2.4-.43l1.65 1.13.46 3.64-1.73-3.36c-.31.3-.92.9-1.23 1.21 1.26.75 1.97 2 .59 3.05 2.6.47 5.48 1.61 5.46 4.71-2.23-1.18-4.68-1.86-7.22-1.9-4.49-4.95-11-.38-15.98 1.23 2.48-4.69 8.88-5.34 13.65-5.06-3.06-2.55-1.8-6.64.8-8.88-5.21-1.5-11.22-3.42-13.72-8.72-1.72-3.04.44-6.84-1.69-9.74-1 5.93.4 11.8.81 17.69-1.3-4.2-3.09-8.23-5.31-12.02 2.04-1.63 3.44-3.81 4.24-6.29-.57-.55-1.14-1.11-1.7-1.67-.31 2.57-2.23 4.2-4.33 5.35-.93-1.18-1.87-2.36-2.82-3.53 1.35-.01 2.7-.08 4.05-.21 2.19-.69 3.74-3.95 1.74-5.65-1.63-1.61-3.92-.63-5.38.69.59.35 1.77 1.06 2.36 1.41l.01-2.44c1.45 1.1 1.84 2.69 1.46 4.38-1.91-.33-3.64-1.38-4.08-3.38z"/>
        <path d="M83.77 38.33c.12-1.47.42-2.92.99-4.28 1.21.17 2.43.34 3.64.53-1.5.3-2.92.83-4.25 1.57.79-.01 2.37-.04 3.15-.06-.25 1.9-1.94 2.29-3.53 2.24zM81.7 65.8c3-2.18 6.45-3.62 10.02-4.57.82.56 1.63 1.12 2.44 1.67-6 .62-12.55 3.51-15.31 9.17-2.01 4.67 2.66 9.56 7.46 8.64.18.57.55 1.7.74 2.26-2.1-.35-4.22-.65-6.35-.69 3.27 1.41 6.91 2.84 10.47 1.56 4.43-.98 7.47-4.53 9.79-8.19-.88 2.76-1.49 5.7-3.11 8.15-3.61 3.99-8.77 5.98-13.95 6.88.65 4.19 1.29 10.05-3.56 11.96 1.54-2.96 2.71-7.16-.26-9.65-.85-1.29-3.73-.15-3.86-1.74 2-2.37 5.27-.05 7.26 1.14-1.07-5.82-4-11.56-9.14-14.76 2.9-3.7 3.03-9.3 7.36-11.83z"/>
        <path d="M83.12 70.29c3.39-1.31 8.2-.94 9.84 2.82 1.43 4.1-1.43 8.38-5.31 9.8-.26-.65-.78-1.94-1.05-2.58 1.22-.69 2.76-1.55 2.62-3.2.27-2.64-2.26-4.13-3.5-6.11 4.7.69 6.64 7.27 2.33 9.82l.71.85c2.06-2.09 4.22-5.14 2.59-8.15-.89-2.47-3.7-2.78-5.89-3.38l.17 2.12c-.63-.5-1.89-1.49-2.51-1.99z"/>
        <path d="M79.79 76.27c.85-2.1 1.94-4.1 3.38-5.85 2.05 2.76-1.74 4.29-3.38 5.85zm-7.27 5.25c-.83-1.24.85-2.04 1.37-3.01 1.73 4.56 1.48 9.41 1.88 14.15-.53 1.12-1.07 2.24-1.64 3.34l-.36.55c-1.19 1.34-2.42 2.64-3.69 3.91 2.69.87 5.26 2.08 7.71 3.49-1.98 1.04-4.09 1.79-6.17 2.58-4.15-3.01-9.23-6.04-14.56-4.81-3.68.52-6.83 2.61-9.7 4.84-.76-.33-1.53-.66-2.29-.99 2.88-1.13 5.6-2.76 7.8-4.96 1.61-2.01 2.49-4.48 3.78-6.69-.55 2.5-1.72 4.8-3.06 6.97 2.4-1.1 4.95-1.8 7.57-2.05-1.62-2.85-2.2-7.1 1.3-8.92-.11 1.66-.52 3.31-.4 4.99 1.56 4.13 8.03 3.67 9.82-.04 2.6-3.98 2.74-9.12.64-13.35z"/>
        <path d="M64.16 89.73c.19-1.01.79-1.84 1.78-2.5 1.82 1.21 4.41 2.24 4.48 4.82-.21 2.13-2.34 2.97-3.87 4.01.21-1.53 1.53-3.05 1.03-4.64-.23-1.62-2.27-1.21-3.42-1.69zm11.61 5.64c1.11-.57 2.36-1.86 3.57-.7 1.44 2.47-2.87 5.9-4.14 2.56.41.12 1.24.37 1.65.49.34-.36 1.03-1.07 1.37-1.43-.61-.23-1.83-.69-2.45-.92zm-32.24 3.16c.68.99 1.34 2 2.01 3.01-.64 1.78-1.21 4.17-3.69 3.44l1.07-2.22-.82-.15c-1.45.03-2.77-.53-3.48-1.84.77-.07 2.33-.22 3.11-.29l.56.48 1.55.4-.31-2.83z"/>
    </g>
    <path fill="#555" opacity=".33" d="M84.15 36.15c1.33-.74 2.75-1.27 4.25-1.57l.51-.14c.33 1.42.66 2.84.99 4.25l-.44.22-.82.39c-.23-.81-.7-2.42-.93-3.22l-.41.01c-.78.02-2.36.05-3.15.06z"/>
</svg>
