<svg width="128pt" height="128pt" viewBox="0 0 128 128" xmlns="http://www.w3.org/2000/svg">
    <path d="M61.53 27.46c.93-3.94 1.23-8.07 2.76-11.84.91 3.89 1.51 7.84 2.48 11.72-.87.93-1.75 1.86-2.64 2.78-.87-.88-1.74-1.77-2.6-2.66zm14.23.99c1.82-1.93 3.65-3.84 5.54-5.7-.28 2.63-.67 5.24-1.05 7.85-1.13.41-2.27.8-3.41 1.17-.36-1.11-.72-2.21-1.08-3.32zm-16.33 3.63c7.68-.38 15.75.65 22.19 5.16 9.78 6.29 15.62 18.15 14.35 29.74-.83 8.05-4.66 15.87-10.96 21.04-7.87 6.97-19.37 9.56-29.46 6.58-12.41-3.23-21.76-14.9-23.11-27.53 1.74 3.62 4.95 6.26 6.52 9.96 3.28 7.43 10.48 12.42 18.12 14.6 9.77 2.74 20.63-.72 27.67-7.85 6.62-6.99 9.81-17.47 7.09-26.85-2.48-9.76-10.42-17.92-20.22-20.36-4.28-.89-8.01-3.29-12.19-4.49zm26.52 3.33c1.7-.58 3.39-1.17 5.09-1.75-.43 1.72-.85 3.44-1.28 5.16-2.14-.06-3.7-1.16-3.81-3.41zm11.49 12.56c2.67-.48 5.37-.8 8.07-1.11-1.95 1.82-3.86 3.68-5.7 5.6-1.16-.41-2.31-.83-3.45-1.27.27-.81.81-2.42 1.08-3.22zM98.12 64c.82-.87 1.64-1.74 2.45-2.61 4.16.75 8.32 1.5 12.4 2.61-4.08 1.11-8.24 1.86-12.4 2.61-.81-.87-1.63-1.74-2.45-2.61zM22.84 81.2c1.93-1.92 3.92-3.78 5.91-5.62.82.27 2.44.83 3.25 1.1-.36 1.12-.72 2.25-1.06 3.38-2.7.38-5.41.72-8.1 1.14zm73.47-4.53c1.16-.38 2.33-.74 3.5-1.11 1.85 1.91 3.76 3.76 5.7 5.58-2.69-.31-5.38-.66-8.05-1.09-.29-.85-.87-2.54-1.15-3.38zM38.55 89.26l2.86.45c.34.91.69 1.84 1.03 2.76-1.74.64-3.48 1.25-5.22 1.87.46-1.69.91-3.38 1.33-5.08zm47.42 3.34c.07-2.24 1.66-3.36 3.79-3.42.43 1.72.85 3.43 1.28 5.15-1.69-.57-3.38-1.15-5.07-1.73zm-37.88 4.8c1.08-.43 2.16-.87 3.25-1.3.31.83.94 2.49 1.25 3.32-1.86 1.94-3.68 3.92-5.57 5.82.3-2.62.65-5.23 1.07-7.84zm28.81-1.23c1.12.41 2.24.83 3.35 1.26.38 2.6.77 5.2 1.04 7.81-1.88-1.86-3.66-3.82-5.53-5.7.38-1.12.75-2.25 1.14-3.37zm-15.38 4.36c.87-.89 1.74-1.78 2.62-2.66.88.92 1.75 1.84 2.63 2.77-.98 4-1.63 8.08-2.55 12.1-1.21-4-1.83-8.14-2.7-12.21z" fill="#fff"/>
</svg>
