<svg width="128pt" height="128pt" viewBox="0 0 128 128" xmlns="http://www.w3.org/2000/svg">
    <g fill="#fafafa">
        <path opacity=".98" d="M32.84 30.9c12.59-12.47 32.97-15.77 49.1-8.67 3.16 1 5.26 3.86 8.46 4.79 9.29 6.56 16.04 16.67 18.24 27.85 2.59 11.73.09 24.42-6.53 34.42-7.76 12.18-21.72 20.05-36.13 20.56-10.04.45-20.3-2.44-28.42-8.4-.25-.47-.76-1.4-1.02-1.87 2.26.97 4.25 2.42 6.41 3.57 3.99 2.26 8.51 3.28 12.81 4.8.64-2.12.7-4.34.81-6.54.26.13.8.37 1.06.5-.81 1.91-1.09 3.98-1.41 6.02 11.94 1.84 24.67-.86 34.29-8.32 8.02-5.98 13.9-14.79 16.3-24.51 3.92-14.58-.51-31.07-11.18-41.74-2.17-2.31-4.79-4.13-6.97-6.42-6.69-3.29-13.66-6.41-21.23-6.8.02.71.05 2.11.07 2.82-.11-.7-.34-2.1-.45-2.8l-2.44-.08c.55 1.93-1.81.88-2.22 2.43-.32-.86-.65-1.7-1-2.55-6.27.37-12.32 2.21-17.94 4.98.89 1.08 1.15 2.43 1.09 3.81-1.5-.05-1.66-2.07-2.48-3.01-1.85 1.13-3.65 2.33-5.52 3.43.01 1.19.03 2.39.08 3.58-.48-.89-.99-1.76-1.5-2.62-.41.71-1.21 2.12-1.61 2.83 1.42.93 2.9 1.77 4.33 2.7-4.72-1.58-8.45-5.04-12.72-7.49 2.51 1.15 4.78 3.13 7.72 2.73zM18.01 45.21c3.16.7 6.04 2.06 8.25 4.47-1.18-.53-2.37-1.03-3.57-1.5-4.93 12.56-3.73 27.37 3.34 38.88 2.36 3.94 5.42 7.39 8.68 10.61-1.12-.26-2.42-.18-3.17-1.19-12.49-12.4-16.86-32.4-10.13-48.75-1.09-.9-2.23-1.72-3.4-2.52z"/>
        <path opacity=".98" d="M64.35 93.33c3.05-.69 3.81 2.41 4.12 4.64-.46 2.11.72 3.97 1.4 5.88-.77-2.14-2.72-4.07-1.95-6.51l-1.18.04c.64-1.89-1.46-2.8-2.39-4.05z"/>
    </g>
    <path fill="#484848" opacity=".28" d="M66.23 28.19l2.58-2.13c.16 1.32.21 2.65.15 3.98-1.28 1.76-2.54 3.57-2.53 5.85-.32-2.55-.5-5.13-.2-7.7z"/>
    <path d="M50.04 27.21c1.06 1.43 3.24 2.71 2.3 4.81.97.73 1.5 1.73 1.61 3.02 2.26.76 3.22 3.09 4.98 4.5 2.85-.44 3.36-4.23 4.53-6.44.37 2.17 1.44 4.1 2.43 6.04 1.56.13 3.13.28 4.71.38 1.58.72 3.19 1.37 4.8 2.05.4-.32 1.21-.96 1.62-1.28-.45 1.09-.87 2.2-1.47 3.22-9.3 13.71-18.83 27.28-28.89 40.46-.97.99-2.4 1.37-3.58 2.07.56-1.35 1.11-2.69 1.64-4.05-1.24-1.61-2.21-3.44-3.63-4.9-1.4.07-2.79.2-4.18.4.96-1.29 1.91-2.58 2.87-3.87-.41-1.4-.81-2.81-1.2-4.21l-2.64.44c.38-1.28 1.59-1.9 2.58-2.64-.1-1.82.39-4.26-2.23-4.08.97-.56 2.33-.74 2.66-2.02-.45-1.96-2.53-2.72-4-3.8 1.59-.18 3.18-.4 4.76-.64.45-1.01.89-2.02 1.34-3.03-.95-2.04-2.21-3.92-3.74-5.57 2.25.2 4.5.34 6.75.4.85-1.03 1.74-2.02 2.84-2.8-1.16-2.99-1.22-6.24-2.22-9.28-2.84-1-1.93-3.79-1.81-6.07.5 1.59 1.63 2.96 1.75 4.67.43 3.43 2.6 6.27 4.46 9.06 1.08-1.04 1.46-2.37 1.12-3.99.44.46 1.3 1.38 1.73 1.84.82-.32 2.46-.96 3.29-1.28.18-1.54.31-3.09.31-4.64-3.04-.74-4.33-4.05-4.11-6.9-.34-.46-1.04-1.4-1.38-1.87zm16.88 32.73c4.43-5.85 8.26-12.11 12.55-18.06.05.59.14 1.77.19 2.36 1.65 1.36 3.45-.68 5.07-1.18-.61 1.31-1.22 2.63-1.8 3.95 1.27 2.29 3.53 2.51 5.83 1.64-.86 1.08-1.65 2.21-2.36 3.38l2.54-.7c-2.12 1.95-.65 4.16.36 6.15.2 1.39.16 2.89.81 4.17 1.84 1.21 3.98 1.81 6.05 2.5-2.44 1.42-5.43 2.35-6.87 4.99 1.07.92 2.16 1.82 3.25 2.73-.91.1-2.73.31-3.65.42-1.41 2.23.09 4.22 2.01 5.46-1.58.18-3.16.37-4.7.75-1.41 1.75-3.08 3.42-3.94 5.52.02 2.29.45 4.54.77 6.8-1.33-1.55-4.95-1.99-4.42-4.46-.7.62-1.5 1.03-2.42 1.24.03 2.96-.1 5.93.36 8.86 1.27.63.82 1.87.4 2.88.26.86.51 1.73.75 2.61-2.07-4.34-1.15-9.45-3.58-13.67-1.94.49-1.89 2.38-2.16 3.98.55.11 1.63.34 2.18.45-2.24 2.04-3.23-1.54-4.63-2.72-.14.65-.42 1.96-.56 2.62-.61-3.01-5.12-2.79-6.56-.67-2.09-3.26-7.08-1.88-8.88 1.02.05-1.93 1.14-4.36-1.09-5.53-1.36 1.25-2.23 3.4-4.33 3.51.59-1.86 2.2-2.92 3.76-3.89l-3.55-.96c5.71-9.07 12.63-17.28 18.62-26.15z" fill="#fff"/>
    <path opacity=".14" d="M73.26 32.76c1.09-.46 2.12-1.05 3.11-1.69.02.97.3 1.87.83 2.69.28-.14.85-.41 1.13-.55l.66-.32c.12 2.03-1.85 2.03-3.3 2.43-.24.96-.37 2.06-1.34 2.57-.42-1.69-.73-3.41-1.09-5.13zM51.23 100.5c1.43-.1 1.2 2.46.42 3.17-1.47.11-1.21-2.46-.42-3.17z" fill="#232323"/>
    <path fill="#4c4c4c" opacity=".3" d="M76.37 31.07c1.46-.23 2.11.48 1.96 2.14-.28.14-.85.41-1.13.55-.53-.82-.81-1.72-.83-2.69z"/>
    <path fill="#1a1a1a" opacity=".1" d="M52.23 37.35c1.2-.64 2.46 1.35 1.65 2.31-1.2.65-2.47-1.35-1.65-2.31z"/>
    <path fill="#929292" opacity=".57" d="M58 91.23c.61.59.61.59 0 0z"/>
    <path fill="#555" opacity=".33" d="M79.31 95.31c.54.54.54.54 0 0z"/>
</svg>
