<svg width="128pt" height="128pt" viewBox="0 0 128 128" xmlns="http://www.w3.org/2000/svg">
    <path d="M34.89 25.58c.83 2.83 1.57 5.68 2.04 8.59 2.77 1.24 5.56 2.44 8.32 3.69-2.55 1.48-5.1 2.95-7.69 4.37-.26 3.05-.59 6.1-.93 9.15-2.19-2.03-4.39-4.05-6.62-6.04-2.93.61-5.85 1.23-8.8 1.74 1.15-2.72 2.39-5.39 3.62-8.07-1.54-2.55-3.1-5.09-4.67-7.62 3.13.19 6.25.4 9.39.47 1.74-2.13 3.56-4.18 5.34-6.28zm22.43 12.7c7.38-6.91 17.96-8.48 27.67-7.54-.86.58-1.72 1.15-2.55 1.75-14.01 10.9-13.73 35 .02 46.04 4.47 3.54 9.76 6.99 15.67 6.92l2.47-.11c-12.34 12.35-34.75 10.93-46.12-2.01-10.97-12.65-10.17-34.11 2.84-45.05zM41.1 90.34c1.89-1.84 3.62-3.84 5.43-5.76.56 2.95 1.02 5.91 1.37 8.88 2.7 1.39 5.42 2.72 8.16 4.04-2.51 1.39-5.17 2.54-7.51 4.2-1.33 2.8-1.14 6.02-1.6 9.02-1.75-1.66-3.49-3.32-5.1-5.12-.36-.39-1.07-1.18-1.43-1.58-2.84.52-5.68 1.02-8.52 1.52 1.28-2.58 2.57-5.15 3.88-7.71-1.34-2.6-2.69-5.19-4.05-7.77 2.77.46 5.55.91 8.35 1.19.26-.22.77-.68 1.02-.91z" fill="#b22b2c"/>
    <path fill="#7d1d1f" opacity=".87" d="M84.99 30.74c7.08 1.6 13.87 5.04 18.44 10.8 10.55 12.37 9.2 32.98-2.83 43.8l-2.47.11c4.31-4.11 7.7-9.31 9.09-15.15 1.74-6.79 1.83-14.23-1.15-20.7-4.12-9.39-13.47-16-23.63-17.11.83-.6 1.69-1.17 2.55-1.75z"/>
    <path fill="#070202" opacity=".25" d="M106.07 49.6c2.98 6.47 2.89 13.91 1.15 20.7.61-6.9.16-13.9-1.15-20.7z"/>
    <path fill="#b2292c" d="M27.69 56.69c2.33 1.89 4.62 3.81 6.88 5.78 2.89-.82 5.8-1.54 8.72-2.24-1.08 2.83-2.26 5.61-3.29 8.46 1.65 2.46 3.24 4.95 4.78 7.49-2.97-.32-5.96-.52-8.94-.72-1.91 2.1-3.32 4.89-5.87 6.27-.87-2.63-1.45-5.35-2.12-8.04-2.74-1-5.45-2.08-8.14-3.2 2.44-1.73 4.99-3.32 7.5-4.94.12-2.95.29-5.9.48-8.86z"/>
    <path fill="#1f0707" opacity=".4" d="M30.87 89.41c3.42.25 6.83.57 10.23.93-.25.23-.76.69-1.02.91-2.8-.28-5.58-.73-8.35-1.19 1.36 2.58 2.71 5.17 4.05 7.77-1.31 2.56-2.6 5.13-3.88 7.71 2.84-.5 5.68-1 8.52-1.52.36.4 1.07 1.19 1.43 1.58-3.63-.15-7.27.14-10.83.85 1.18-2.88 2.45-5.71 3.8-8.52-1.36-2.82-2.68-5.66-3.95-8.52z"/>
</svg>
