<svg width="128pt" height="128pt" viewBox="0 0 128 128" xmlns="http://www.w3.org/2000/svg">
    <path fill="#fff" d="M56.08 20.99c3.17-1.37 7.36-2.56 8.11-6.47.53 1.39 1.06 2.98 2.47 3.73 3.55 2.19 7.53 3.55 11.32 5.26.67-.84 1.36-1.68 2.05-2.5-.35 1.03-.7 2.05-1.06 3.08 3.44 1.83 6.51 4.32 8.97 7.37.67-.34 2.01-1 2.68-1.33-.51.53-1.55 1.6-2.06 2.13 1.93 2.79 3.58 5.79 4.63 9.02l3.29-.12c-.72.29-2.17.87-2.89 1.17.97 3.23 1.28 6.59 1.9 9.89.79.18 2.37.53 3.15.71-1.08.14-2.17.29-3.25.44.02 1.57.05 3.15.08 4.72 1.78.99 3.41 2.54 2.88 4.79-.6 1.9.01 4.92-1.71 6.12-.34-.67-1.01-2.01-1.35-2.68-6.49-1.25-13.24 2.92-16.67 8.32-1.86 2.46-1.87 5.83-3.89 8.18-.79 6.67 1.42 13.87-1.58 20.13-.2.26-.6.79-.8 1.06-.96 2.11-2.4 3.94-3.92 5.66.07-17.56 0-35.13.04-52.69.15-2.17.58-4.8 2.54-6.06 1.21-.04 2.41.01 3.62.17.03 2.38.02 4.77.01 7.16 3.22.05 6.44.05 9.66.02 0-2.89-.19-5.79-.63-8.65-1.73.3-3.45.58-5.17.9-.09-.23-.26-.69-.35-.92 1.81-.28 3.61-.57 5.42-.86-.69-2.25-1.4-4.5-2.23-6.7-1.88.88-3.75 1.82-5.75 2.4 1.38-1.66 3.43-2.43 5.33-3.32-1.32-1.86-2.71-3.69-4.31-5.33-1.6 1.61-2.92 3.65-5.09 4.56 1.19-1.98 2.85-3.59 4.43-5.25-2.06-1.28-4.21-2.39-6.4-3.43-.74 1.67-1.45 3.35-2.14 5.04-.29.07-.88.19-1.17.25.81-1.84 1.62-3.69 2.43-5.53-2.89-.72-5.86-.89-8.76-.11.8 2.02 1.7 4 2.25 6.1-1.88-1.38-2.36-3.76-3.24-5.78-2.21.98-4.34 2.11-6.39 3.37 1.59 1.71 3.23 3.4 4.52 5.37-2.36-.82-3.33-3.48-5.6-4.36-.83.92-1.59 1.9-2.35 2.88-.39.58-1.17 1.73-1.56 2.3 1.78.78 3.55 1.55 5.32 2.31-.39.12-1.18.36-1.58.48-1.4-.67-2.81-1.33-4.24-1.96-.88 2.22-1.71 4.48-1.94 6.87 1.97.3 4.15.08 5.84 1.35-2.07.12-4.12-.24-6.14-.61-.46 2.82-.69 5.68-.54 8.54 3.14-.05 6.29-.05 9.44-.01.05-2.48.09-4.96.17-7.43 1.5.21 3.2-.08 4.52.83 1.03 1.59 1.61 3.46 1.54 5.35.05 17.58-.09 35.16.11 52.74-2.76-3.04-4.94-6.65-6.22-10.55-.36-5.49.4-11.06-.3-16.51-.24-.27-.71-.82-.95-1.09-1.58-8.72-9.6-15.83-18.55-15.61-1.23.86-1.95 2.22-2.83 3.4-.41-2.43-1.05-4.82-1.21-7.28-.22-2.04 1.77-3.06 3.12-4.12-.07-1.49-.12-2.97-.16-4.45-1.07-.26-2.13-.54-3.19-.84.82-.06 2.46-.2 3.28-.27-.08-3.55 1.9-7.17 1.29-10.53l-2.19-.29c.05-.27.14-.83.18-1.11.81.33 1.61.67 2.4 1.02 1.81-2.99 2.96-6.35 5.15-9.11-.48-.59-1.46-1.77-1.94-2.36.86.48 1.71.97 2.56 1.46 2.55-2.93 5.45-5.59 8.94-7.35-.4-1.13-.78-2.27-1.15-3.4.75.95 1.48 1.92 2.21 2.89 1.85-.89 3.71-1.76 5.6-2.57m4.36.55c-1.76 2.26-1.6 5.29-1.59 8 3.55-.98 7.18-.9 10.73.06.15-3.4.09-8.23-3.82-9.49-.38-.35-1.13-1.06-1.5-1.41-1.27.95-2.61 1.81-3.82 2.84m-7.58 2.98c1.68 1.07 3.32 2.19 4.84 3.49.34-2.05.75-4.07 1.22-6.09-1.99.93-4.02 1.78-6.06 2.6m16.62-2.59c.54 2.07.94 4.18 1.09 6.32 1.51-1.5 3.32-2.6 5.17-3.63-2.12-.81-4.2-1.73-6.26-2.69m-18.4 11.61c2.35-1.41 4.8-2.64 7.1-4.13-2.11-1.92-4.51-3.46-7.19-4.46-2.25 2.45-.79 5.89.09 8.59m19.11-3.7c2.49 1.01 4.85 2.3 7.04 3.85 1.03-2.25 1.45-4.67 1.62-7.12-2.9-2.89-6.54 1.17-8.66 3.27m-27.12 1.39c2.34.12 4.64.61 6.74 1.66-.5-2.07-.85-4.18-1.09-6.3-1.94 1.48-3.83 3.02-5.65 4.64m36.54-4.72c-.17 2.14-.47 4.26-1.01 6.34 2.12-.81 4.34-1.33 6.59-1.6-1.75-1.7-3.63-3.27-5.58-4.74m-38.54 6.91c1.01 2.6 2.29 5.22 4.68 6.82 1.34-2.19 2.96-4.19 4.71-6.07-2.8-1.45-6.62-3.15-9.39-.75m36.86.85c1.81 1.93 3.45 4.01 4.9 6.23 1.49-1.26 2.27-3.48 3.99-4.32.19 1.53-1.47 2.41-2.2 3.57 2.16.02 4.3.37 6.42.78-1.34-3-3.47-5.5-5.23-8.24-2.77-.26-5.51.58-7.88 1.98m-40.38 6.28c2.02-.48 4.06-.85 6.15-.8-1.35-1.56-2.4-3.34-3.18-5.24-1.07 1.97-2.08 3.98-2.97 6.04m-.91 2.46c1.22 2.59 3.62 4.34 6.19 5.42.8-2.53 1.66-5.03 2.52-7.54-2.82-.19-7.3-.94-8.71 2.12m46.42-1.98c1.02 2.49 1.85 5.05 2.68 7.62 2.62-1.36 4.82-3.36 6.44-5.83-2.37-2.47-6.01-2.39-9.12-1.79M34.98 58.15c2.41-.01 4.82-.01 7.24-.02-.02-3.06.18-6.12.43-9.17-2.2.58-4.73.81-6.29 2.7l.64-2.53.03.6c.97-.24 2.91-.73 3.88-.97-1.74-1.26-3.31-2.74-4.69-4.4-.81 4.56-.99 9.17-1.24 13.79m52.68-9.64c2.01.6 3.93 1.45 5.77 2.47-.48-2.18-.9-4.37-1.26-6.57-1.31 1.57-2.82 2.96-4.51 4.1m-1.98.49c.42 3.05.53 6.13.48 9.21 2.43.08 4.86.08 7.3.09-.03-2.1-.05-4.2-.14-6.3-2.29-1.59-4.93-2.45-7.64-3m-51.7 14.62c2.58-.4 1.28-3.06-.04-4.14-1.93.81-2.73 4.25.04 4.14m5.38-2.31l-2.22 2.64c2.78.59 5.4 1.68 7.87 3.05.75.56 1.51 1.12 2.28 1.67 3.21 2.56 5.29 6.23 6.63 10.06-.28-6.19-.09-12.39-.13-18.58-4.77.45-10.01-1.1-14.43 1.16m35.32-1.17c-.02 6.13-.03 12.26-.04 18.39 2.26-7.64 9.08-12.95 16.71-14.55-3.43-5.99-11.12-3.14-16.67-3.84m18.72.52c-.76.57-.97 2.23.06 2.62 1.23 1.27 3.41-.18 2.86-1.78-.2-1.22-2.25-2.11-2.92-.84z"/>
</svg>
