<svg width="128pt" height="128pt" viewBox="0 0 128 128" xmlns="http://www.w3.org/2000/svg">
    <path d="M17.37 31.22c3.2 2.46 6.69 4.54 9.68 7.27 2.78 3.04 6.7 5.77 6.86 10.28.52 4.98 2.32 9.65 3.72 14.42-.68 1-1.58 1.82-2.41 2.7 1.51-.65 3.03-1.26 4.57-1.83-.5 2.39-1.89 4.37-3.54 6.1 1.22-.93 2.44-1.83 3.68-2.73.72 1.93 1.44 3.86 2.1 5.81-.59 1.29-1.18 2.58-1.72 3.9 1.43-2.19 2.28-4.68 2.53-7.28 1.82-1.17 3.77-2.14 5.8-2.92-.55 1.3-1.1 2.59-1.67 3.88 1.16-.94 1.95-2.95 3.72-2.56 1.24 1.91 2.68 4.12 2.25 6.51-.35 1.52-2.2 3.38-3.7 2.01-.45-1.2.29-2.31.63-3.42-1.08.82-2.22 1.57-3.51 2.03-.59-1.25-1.11-2.52-1.61-3.79 1.39 5.74-2.71 13.14-8.95 13.56.73-2.47 1.83-4.8 3.19-6.98-1.48 1.25-2.65 3.58-4.77 3.56-.84-3.57 3.17-5.95 4.95-8.64-2.84 3.17-6.03 6.46-10.67 6.24.38-2.39 1.61-4.45 3.34-6.1-2.08.45-4.19.8-6.3 1.14.83-1.47 1.67-2.92 2.51-4.37.72.11 1.44.23 2.16.35.48-.71.97-1.41 1.46-2.11-3.36.67-6.77.96-10.18 1.21.55-1.07 1.1-2.14 1.66-3.21-1.63-.03-3.25-.08-4.88-.13.85-1.28 1.73-2.55 2.63-3.8-1.38-.09-2.75-.2-4.13-.31.18-.57.52-1.73.69-2.31-.45-.52-1.36-1.57-1.81-2.1 2.33-.44 4.69-.73 7.03-1.1-3.43-.04-6.9.39-10.25-.63.86-.6 1.73-1.21 2.63-1.75 4.23.79 8.34-.78 12.34-1.93-2.36-.11-4.72-.19-7.08-.14-3.03.17-6.02-.39-8.78-1.63 4.89-.31 9.82-.19 14.68-.94-4.04-.58-8.16-.9-12.05-2.24-1.18-.52-2.28-1.21-3.36-1.91 4.89-.11 9.7 1.28 14.59.78-4.38-2.48-9.88-3.43-12.75-7.99 4.61.23 8.54 2.84 12.88 4.07-2.98-3.4-8.86-5.61-8.16-10.97zm55.88 40.06c2.64-.77 5.5 5.15 2.91 6.55-2.3-1.32-3.83-3.89-2.91-6.55z" fill="#ae2829"/>
    <path d="M98.63 38.73c3.6-2.46 6.83-5.53 10.79-7.39-.23 2.97-1.87 5.47-4.41 6.98-2.06 1.55-4.11 3.11-6.07 4.77 3.15-.82 6.18-2.02 9.09-3.47 1.71-.89 3.54-1.39 5.49-1.5-1.15 1.58-2.4 3.27-4.29 4-3.23 1.34-6.49 2.63-9.57 4.3 4.87.01 9.72-.59 14.59-.62-4.3 2.95-9.62 3-14.58 3.79 5.03.57 10.1.53 15.15.8-2.83 1.29-5.89 1.89-8.96 2.25 2.1.46 4.21.92 6.26 1.58l2.08 1.52-2.47.92c.46 2.03-.81 2.65-2.59 2.72l1.12 1.88c-1.65.56-3.33.98-5.04 1.29.94 1.02 1.87 2.05 2.77 3.11-2.56.24-5.13.52-7.69.72 1.51.85 3 1.72 4.47 2.63-2.61.14-5.22.12-7.83-.02.99 1.47 3.83 2.73 2.82 4.76-1.82.83-3.77-.27-5.6-.58 2.1 1.43 3.16 3.66 3.6 6.12-1.94-.29-3.86-.59-5.79-.92.41 1.27.82 2.54 1.22 3.81-1.29-.36-2.58-.73-3.87-1.1.37 1.21.73 2.42 1.09 3.63-4.07.91-6.16-3.13-8.3-5.79.65 2.34 2.71 4.53 2.15 7.06-.55.09-1.67.29-2.23.38l-2.8-2.24c.17.98.52 2.94.69 3.92-1.13-.16-2.26-.33-3.39-.5-1.93-2.6-3.45-5.56-4.03-8.77.05-.63.14-1.9.19-2.53 2.02 1.55 3.89 3.33 5.01 5.67-.31-2.28-.19-4.58.1-6.85 1.31.89 2.61 1.78 3.9 2.69-.06-1.78-.1-3.57-.15-5.36l-1.34-1.38c.36 1.54.72 3.08 1.07 4.62-4.07.13-5.55-3.81-6.64-7 2.62-.92 5.19-1.99 7.67-3.23 1.17 1.25 2.33 2.51 3.49 3.78l-3.81.24c.78.46 1.55.93 2.33 1.39-.35 1.15-.68 2.3-1.01 3.46 4.08-7.44 7.9-15.37 8.77-23.92-.89-3.25 1.12-5.94 2.9-8.42l-2.79 3.42c-.35-.3-1.07-.9-1.43-1.2 1.41-2.65 4.11-4.25 6.28-6.23.4.2 1.2.61 1.59.81M88.2 74.37c-.34 1.41.17 1.94 1.53 1.58.34-1.41-.16-1.94-1.53-1.58zm-22.91-.51c2.97-1.58.14 3.35 0 0z" fill="#ad2829"/>
    <path fill="#801d1e" opacity=".87" d="M27.05 38.49l2.57-.52c2.98 2.52 5.96 5.1 8.08 8.42-.3 1.72-.58 3.45-.85 5.17-.43-.27-1.31-.81-1.75-1.09-.3-.42-.89-1.27-1.19-1.7-.16-4.51-4.08-7.24-6.86-10.28z"/>
    <path fill="#2e0a0b" opacity=".51" d="M98.94 43.09c1.96-1.66 4.01-3.22 6.07-4.77.75.33 2.26.97 3.02 1.3-2.91 1.45-5.94 2.65-9.09 3.47z"/>
    <path opacity=".6" d="M92.19 45.35l2.79-3.42c-1.78 2.48-3.79 5.17-2.9 8.42-.87 8.55-4.69 16.48-8.77 23.92.33-1.16.66-2.31 1.01-3.46-.78-.46-1.55-.93-2.33-1.39l3.81-.24c-1.16-1.27-2.32-2.53-3.49-3.78-2.48 1.24-5.05 2.31-7.67 3.23 1.09 3.19 2.57 7.13 6.64 7-.35-1.54-.71-3.08-1.07-4.62l1.34 1.38c.05 1.79.09 3.58.15 5.36-1.29-.91-2.59-1.8-3.9-2.69-.29 2.27-.41 4.57-.1 6.85-1.12-2.34-2.99-4.12-5.01-5.67-.05.63-.14 1.9-.19 2.53-.3.89-.66 1.76-1.07 2.61.26-3.68.69-7.38.44-11.08-2.93 2.73-5.26 6.14-8.35 8.76-2.5-1.72-4.75-3.78-6.54-6.23.59-.87 1.19-1.74 1.78-2.6.53.91 1.05 1.81 1.58 2.72.8-.97 1.6-1.95 2.4-2.92-.36 1.29-.72 2.57-1.07 3.86.68.03 2.04.08 2.72.11-.08-.8-.23-2.4-.31-3.21.5.47 1.5 1.39 2 1.86l1.62-2.55.48 2.59c1.49-2.37 2.66-4.91 3.57-7.55-1.69-.25-3.38-.48-5.07-.72 1.79-.34 3.59-.67 5.37-1.05-2.14-.49-4.34-1.05-6.55-.64-.39-.22-1.16-.67-1.55-.89l-.16 2.59c-.84-.76-1.68-1.52-2.51-2.29l-1.12 2.04c-1.8.34-3.59.68-5.39 1.01.85 2.51 1.65 5.04 2.21 7.64-.65-.78-1.94-2.35-2.59-3.13-.19 4.25.02 8.63 1.44 12.67 1.45 2.45 3.39 4.56 4.98 6.92.87.78 1.6 2.94 3.07 2.1 2.25-2.86 4.16-5.99 6.71-8.6-.01.59-.05 1.78-.07 2.37l-.04.97c-.29 3.23-.24 6.69 2.16 9.2 1.61 1.75 3.36 5.16 6.1 4.41.76-1.61-.05-3.35-.33-4.98 1.75 1.49 1.42 3.91 1.23 5.95-1.2.01-2.41-.02-3.61-.07-2.47-2.77-4.69-5.74-6.62-8.9-2.06.98-4.1 2-6.1 3.09.24-.64.72-1.92.96-2.57-1.29.99-2.34 2.24-3.17 3.63l.12-3.4c-.98.7-1.95 1.41-2.91 2.13-.07-1.09-.14-2.18-.22-3.26-2.68 3.36-7.52 6.6-6.92 11.35.93-.02 1.82-.24 2.68-.64l.05.55c.04.43.1 1.3.13 1.74-1.09-.61-2.3-.87-3.53-.97-.36-.99-.7-1.99-1.01-3-.76.05-2.27.15-3.03.21.09-1.28.32-2.54.44-3.81.1.8.28 2.41.37 3.21 5.55-.82 8.28-7.25 9.75-12.11.99 1.26 2 2.51 3.05 3.73-.44-1.77-.84-3.57-1.63-5.22-1.35-.37-2.69.03-3.93.54.46-1.45.87-2.93 1.22-4.41-.73-.16-2.18-.49-2.91-.65.5-2.03.94-4.08 1.33-6.13-2.21 1.94-4.28 4.05-6.22 6.26.55-1 1.09-2 1.64-2.99-.89-1-1.58-2.18-2.6-3.04-1.67.08-2.05 2.01-2.84 3.15-.84 2.09-2.44 4.29-1.86 6.63 2.09.93 3.7-1.51 5.36-2.46-.17 1.16-.52 2.32-.37 3.5 1.99 1.48 3.58-1.55 4.93-2.7-.82 2-2.14 3.71-3.53 5.33-1.44-.43-2.82-1.15-3.1-2.82-3.59 1.32-6.24-2.04-9.81-1.42-.08-.55-.25-1.67-.33-2.23-2.02-.05-2.6-1.66-2.92-3.37-1.34-.02-2.69-.05-4.03-.08.01-1.5.02-3 .04-4.5-.82-.1-2.45-.31-3.26-.41.24-1.4.49-2.79.73-4.19-1.52-.19-3.07-.33-4.49-.95 3.41-.25 6.82-.54 10.18-1.21-.49.7-.98 1.4-1.46 2.11-.72-.12-1.44-.24-2.16-.35-.84 1.45-1.68 2.9-2.51 4.37 2.11-.34 4.22-.69 6.3-1.14-1.73 1.65-2.96 3.71-3.34 6.1 4.64.22 7.83-3.07 10.67-6.24-1.78 2.69-5.79 5.07-4.95 8.64 2.12.02 3.29-2.31 4.77-3.56-1.36 2.18-2.46 4.51-3.19 6.98 6.24-.42 10.34-7.82 8.95-13.56.5 1.27 1.02 2.54 1.61 3.79 1.29-.46 2.43-1.21 3.51-2.03-.34 1.11-1.08 2.22-.63 3.42 1.5 1.37 3.35-.49 3.7-2.01.43-2.39-1.01-4.6-2.25-6.51-1.77-.39-2.56 1.62-3.72 2.56.57-1.29 1.12-2.58 1.67-3.88-2.03.78-3.98 1.75-5.8 2.92-.25 2.6-1.1 5.09-2.53 7.28.54-1.32 1.13-2.61 1.72-3.9-.66-1.95-1.38-3.88-2.1-5.81-1.24.9-2.46 1.8-3.68 2.73 1.65-1.73 3.04-3.71 3.54-6.1-1.54.57-3.06 1.18-4.57 1.83.83-.88 1.73-1.7 2.41-2.7-1.4-4.77-3.2-9.44-3.72-14.42.3.43.89 1.28 1.19 1.7.44.28 1.32.82 1.75 1.09 2.6 3.7 3.24 8.57 6.98 11.49 1.64 2.59 4.33 3.95 7.18 4.8.94.92 1.84 1.95 3.13 2.39.14-3.02-.69-5.96-1.46-8.85-1.59-.71-3.17-1.42-4.72-2.21 1.9.43 3.84.61 5.78.39.35 1.36 1.26 2.98 2.93 2.3-.14-.55-.42-1.65-.56-2.19.3-1.2.62-2.39.96-3.58l.26-.92c2.75 1.43 4.52 4 5.91 6.67l.51-.56c1.61-.85 3.27-1.62 4.92-2.39-.36-.62-1.09-1.84-1.45-2.45 1.18-.9 2.43-1.69 3.67-2.5l-.6 1.44c-.27.67-.54 1.34-.8 2.02.32 1.6.22 3.22-.05 4.82.68-.03 2.03-.08 2.71-.11.01-1.35-.01-2.7-.05-4.05.28.47.86 1.42 1.14 1.89 1.65-.22 3.29-.45 4.93-.69-1.52.81-3.08 1.56-4.64 2.31-.23 2.78-2.76 6.18-.24 8.47.42-.55 1.28-1.66 1.71-2.22 2.24-.9 4.48-1.83 6.7-2.78.22-.61.65-1.83.86-2.43 3.05-1.9 4.64-5.18 5.31-8.6.99-.49 2.93-.16 2.97-1.64-.35-.25-1.04-.76-1.39-1.02.63-1.71 1.42-3.36 2.16-5.02-.36-.15-1.09-.44-1.45-.58l.6-1.61c.36.3 1.08.9 1.43 1.2M35.44 52.2c-.35 1.37.18 1.86 1.6 1.48.34-1.38-.19-1.87-1.6-1.48m52.84 2.67c.11 3.35 2.99-1.51 0 0m-50.85 2.29c.53.53.53.53 0 0m50.83-.49c-1.33 2.18-2.65 4.38-3.83 6.66 1.01.05 3.03.15 4.04.21-.23-.48-.68-1.44-.91-1.93 1.33-1.26 1.95-2.98 2.51-4.68-.45-.06-1.35-.2-1.81-.26m-50.78 1.44c-.31 1.89.38 3.03 2.05 3.41-.41.45-1.22 1.35-1.63 1.8 1.36.22 2.72.26 4.08.1-.72-2.37-1.98-4.55-4.5-5.31m21.12 4.15c-.72.53-4.6.59-2.69 1.87 1.44 1.29 5.9-2.05 2.69-1.87m-16.15 1.23c-1.33.11-2.87 1.7-2.14 3.06 1.54 1.14 4.28-2.39 2.14-3.06m40.57-.54c-1.02 2.33 1.56 4.96 3.85 3.81.44-2.23-2.06-3.49-3.85-3.81m-38.69 3.36c-1.23.03-2.72.75-3.01 2.05.64 2.36 5.38-1.03 3.01-2.05m28.92 4.97c-.92 2.66.61 5.23 2.91 6.55 2.59-1.4-.27-7.32-2.91-6.55m-13.08 2.89c.53.53.53.53 0 0m5.12-.31c.14 3.35 2.97-1.58 0 0m-3.02 1.38c-.49 1.63.08 2.17 1.71 1.62.49-1.62-.08-2.16-1.71-1.62m6.05 11.04c-1.08.59-1.77 2.26-1.06 3.36 1.5.45 2.69-3.08 1.06-3.36zM88.2 74.37c1.37-.36 1.87.17 1.53 1.58-1.36.36-1.87-.17-1.53-1.58z" fill="#3e0e0e"/>
    <path fill="#2a0a0a" opacity=".47" d="M99.66 46.42c3.08-1.67 6.34-2.96 9.57-4.3-1.15 1.11-2.3 2.22-3.42 3.36 3.22-.18 6.43-.5 9.66-.71-1.1 1.51-2.24 2.98-3.39 4.45l3.08.88c-.92 1.44-1.99 2.77-3.04 4.12-2.05-.66-4.16-1.12-6.26-1.58 3.07-.36 6.13-.96 8.96-2.25-5.05-.27-10.12-.23-15.15-.8 4.96-.79 10.28-.84 14.58-3.79-4.87.03-9.72.63-14.59.62z"/>
    <path fill="#942323" d="M78.17 59.27c5.63-2.86 6.15-10.85 11.99-13.51.36.14 1.09.43 1.45.58-.74 1.66-1.53 3.31-2.16 5.02.35.26 1.04.77 1.39 1.02-.04 1.48-1.98 1.15-2.97 1.64-.67 3.42-2.26 6.7-5.31 8.6-.21.6-.64 1.82-.86 2.43-2.22.95-4.46 1.88-6.7 2.78-.43.56-1.29 1.67-1.71 2.22-2.52-2.29.01-5.69.24-8.47 1.56-.75 3.12-1.5 4.64-2.31z"/>
    <path fill="#370d0d" opacity=".52" d="M14.17 47.24c3.89 1.34 8.01 1.66 12.05 2.24-4.86.75-9.79.63-14.68.94 2.76 1.24 5.75 1.8 8.78 1.63-1.81.53-3.56 1.24-5.26 2.07-.9.54-1.77 1.15-2.63 1.75 3.35 1.02 6.82.59 10.25.63-2.34.37-4.7.66-7.03 1.1.45.53 1.36 1.58 1.81 2.1-.17.58-.51 1.74-.69 2.31-1.28-2.18-2.82-4.19-4.41-6.15.43-1.19.85-2.38 1.27-3.57-1.11-.63-2.1-1.42-2.68-2.58.99.01 2.97.04 3.96.05-.18-.63-.55-1.89-.74-2.52z"/>
    <path fill="#942423" d="M36.85 51.56c.27-1.72.55-3.45.85-5.17 2.61 2.74 4.66 5.93 6.52 9.2.82 1.58 2.1 2.87 3.74 3.59 1.55.79 3.13 1.5 4.72 2.21.77 2.89 1.6 5.83 1.46 8.85-1.29-.44-2.19-1.47-3.13-2.39-2.85-.85-5.54-2.21-7.18-4.8-3.74-2.92-4.38-7.79-6.98-11.49z"/>
    <path fill="#431010" opacity=".65" d="M74.71 49.58c.2-.69.2-.69 0 0z"/>
    <path fill="#942121" d="M51.42 49.4c1.89 1.09 3.62 2.49 5.66 3.31 2.03-.14 3.98-.81 6-1.07 2.2.1 4.32 1.2 6.52.92 1.81-.81 3.41-1.99 5.11-2.98-.81 1.82-2.01 3.45-3.82 4.37-1.24.81-2.49 1.6-3.67 2.5-1.21 1.58-2.3 3.23-3.47 4.84l-.51.56c-1.39-2.67-3.16-5.24-5.91-6.67-2.55-1.25-4.69-3.17-5.91-5.78z"/>
    <path fill="#912222" opacity=".92" d="M20.32 52.05c2.36-.05 4.72.03 7.08.14-4 1.15-8.11 2.72-12.34 1.93 1.7-.83 3.45-1.54 5.26-2.07z"/>
    <path fill="#a92728" opacity=".98" d="M35.44 52.2c1.41-.39 1.94.1 1.6 1.48-1.42.38-1.95-.11-1.6-1.48z"/>
    <path fill="#a62627" opacity=".96" d="M88.28 54.87c2.99-1.51.11 3.35 0 0z"/>
    <path fill="#a52626" opacity=".96" d="M53.74 59.57c.46-1.77.93-4.09 3.33-3.47-.34 1.19-.66 2.38-.96 3.58.14.54.42 1.64.56 2.19-1.67.68-2.58-.94-2.93-2.3z"/>
    <path fill="#a42726" opacity=".96" d="M69.49 57.41c.26-.68.53-1.35.8-2.02.46.67 1.36 2.01 1.81 2.68.04 1.35.06 2.7.05 4.05-.68.03-2.03.08-2.71.11.27-1.6.37-3.22.05-4.82z"/>
    <path fill="#b52c29" d="M37.43 57.16c.53.53.53.53 0 0z"/>
    <path fill="#9d2424" opacity=".95" d="M88.26 56.67c.46.06 1.36.2 1.81.26-.56 1.7-1.18 3.42-2.51 4.68.23.49.68 1.45.91 1.93-1.01-.06-3.03-.16-4.04-.21 1.18-2.28 2.5-4.48 3.83-6.66z"/>
    <path fill="#a72826" opacity=".97" d="M37.48 58.11c2.52.76 3.78 2.94 4.5 5.31-1.36.16-2.72.12-4.08-.1.41-.45 1.22-1.35 1.63-1.8-1.67-.38-2.36-1.52-2.05-3.41z"/>
    <path fill="#a92627" opacity=".96" d="M58.6 62.26c3.21-.18-1.25 3.16-2.69 1.87-1.91-1.28 1.97-1.34 2.69-1.87z"/>
    <path fill="#b52b29" d="M61.28 62.14c.83.77 1.67 1.53 2.51 2.29l.16-2.59c.39.22 1.16.67 1.55.89 2.21-.41 4.41.15 6.55.64-1.78.38-3.58.71-5.37 1.05 1.69.24 3.38.47 5.07.72-.91 2.64-2.08 5.18-3.57 7.55l-.48-2.59-1.62 2.55c-.5-.47-1.5-1.39-2-1.86.08.81.23 2.41.31 3.21-.68-.03-2.04-.08-2.72-.11.35-1.29.71-2.57 1.07-3.86-.8.97-1.6 1.95-2.4 2.92-.53-.91-1.05-1.81-1.58-2.72-.59.86-1.19 1.73-1.78 2.6-.56-2.6-1.36-5.13-2.21-7.64 1.8-.33 3.59-.67 5.39-1.01l1.12-2.04z"/>
    <path fill="#b32829" d="M42.45 63.49c2.14.67-.6 4.2-2.14 3.06-.73-1.36.81-2.95 2.14-3.06z"/>
    <path fill="#aa2728" opacity=".98" d="M83.02 62.95c1.79.32 4.29 1.58 3.85 3.81-2.29 1.15-4.87-1.48-3.85-3.81z"/>
    <path fill="#310b0c" opacity=".5" d="M107.99 65.66l.5-.05c-1.4.58-2.86 1.01-4.31 1.43.32.59.96 1.78 1.28 2.38-1.63.65-3.37.92-5.11 1.09.53 2.09 1.54 5.85-2.07 5.07-.02 1.25-.05 2.5-.07 3.75-1.56.13-3.13.25-4.69.37-.01.68-.04 2.05-.06 2.73-.56.09-1.68.26-2.24.35l-.6 2.65c-1.51-.02-3.02-.05-4.53.05-.65 1.94-2.65 1.38-4.06.88.56-.09 1.68-.29 2.23-.38.56-2.53-1.5-4.72-2.15-7.06 2.14 2.66 4.23 6.7 8.3 5.79-.36-1.21-.72-2.42-1.09-3.63 1.29.37 2.58.74 3.87 1.1-.4-1.27-.81-2.54-1.22-3.81 1.93.33 3.85.63 5.79.92-.44-2.46-1.5-4.69-3.6-6.12 1.83.31 3.78 1.41 5.6.58 1.01-2.03-1.83-3.29-2.82-4.76 2.61.14 5.22.16 7.83.02-1.47-.91-2.96-1.78-4.47-2.63 2.56-.2 5.13-.48 7.69-.72z"/>
    <path fill="#b32829" d="M44.33 66.31c2.37 1.02-2.37 4.41-3.01 2.05.29-1.3 1.78-2.02 3.01-2.05z"/>
    <path fill="#9a2424" d="M63.52 79.06c3.09-2.62 5.42-6.03 8.35-8.76.25 3.7-.18 7.4-.44 11.08-.21.36-.63 1.06-.84 1.41-2.55 2.61-4.46 5.74-6.71 8.6-1.47.84-2.2-1.32-3.07-2.1-1.59-2.36-3.53-4.47-4.98-6.92-1.42-4.04-1.63-8.42-1.44-12.67.65.78 1.94 2.35 2.59 3.13 1.79 2.45 4.04 4.51 6.54 6.23z"/>
    <path fill="#b52829" d="M60.17 74.17c.53.53.53.53 0 0z"/>
    <path d="M62.27 75.24c1.63-.54 2.2 0 1.71 1.62-1.63.55-2.2.01-1.71-1.62zm-18.14 3.89c.79-1.14 1.17-3.07 2.84-3.15 1.02.86 1.71 2.04 2.6 3.04-.55.99-1.09 1.99-1.64 2.99 1.94-2.21 4.01-4.32 6.22-6.26-.39 2.05-.83 4.1-1.33 6.13-.16.55-.48 1.66-.63 2.22-1.35 1.15-2.94 4.18-4.93 2.7-.15-1.18.2-2.34.37-3.5-1.66.95-3.27 3.39-5.36 2.46-.58-2.34 1.02-4.54 1.86-6.63z" fill="#b5292a"/>
    <path fill="#9a2423" d="M54.51 86.94c1.24-.51 2.58-.91 3.93-.54.79 1.65 1.19 3.45 1.63 5.22-1.05-1.22-2.06-2.47-3.05-3.73-1.47 4.86-4.2 11.29-9.75 12.11-.09-.8-.27-2.41-.37-3.21 2.08-3.6 4.92-6.7 7.61-9.85z"/>
    <path fill="#972426" opacity=".96" d="M68.32 86.28c1.63.28.44 3.81-1.06 3.36-.71-1.1-.02-2.77 1.06-3.36z"/>
    <path fill="#972123" d="M70.48 86.13l.04-.97c2.49 3.32 5.16 6.49 7.89 9.6.28 1.63 1.09 3.37.33 4.98-2.74.75-4.49-2.66-6.1-4.41-2.4-2.51-2.45-5.97-2.16-9.2z"/>
    <path fill="#942321" d="M51.17 102.71c-.6-4.75 4.24-7.99 6.92-11.35.08 1.08.15 2.17.22 3.26.96-.72 1.93-1.43 2.91-2.13l-.12 3.4c.83-1.39 1.88-2.64 3.17-3.63-.24.65-.72 1.93-.96 2.57 2-1.09 4.04-2.11 6.1-3.09 1.93 3.16 4.15 6.13 6.62 8.9-.22.72-.64 2.17-.85 2.89-.86-.44-1.73-.88-2.59-1.32-.42 1.12-.85 2.24-1.27 3.36-.49.03-1.46.1-1.95.14-.82-1-1.64-1.99-2.47-2.97-.06.78-.16 2.35-.21 3.13-1.2.6-2.23 1.82-3.69 1.63-2.41.34-3.57-2.36-3.94-4.27-.84 1-1.69 2-2.53 3-1.4-.76-2.43-1.98-2.63-3.61l-.05-.55c-.86.4-1.75.62-2.68.64m16.98-8.14c-.8 1.05.13 3.56 1.61 3.17.7-1.06-.19-3.46-1.61-3.17m-12.07 2.68c-1.57 2.97 3.34.16 0 0z"/>
    <path fill="#691918" opacity=".88" d="M68.15 94.57c1.42-.29 2.31 2.11 1.61 3.17-1.48.39-2.41-2.12-1.61-3.17z"/>
    <path fill="#611714" opacity=".84" d="M56.08 97.25c3.34.16-1.57 2.97 0 0z"/>
</svg>
