<svg width="128pt" height="128pt" viewBox="0 0 128 128" xmlns="http://www.w3.org/2000/svg">
    <path d="M36.48 46.31l.84-.88c3.11 3.82 5.57 8.08 8.26 12.18 2.14 1.73 4.92 2.42 7.42 3.49.48 2.71 1.24 5.35 2.01 7.99-.86.48-1.72.96-2.59 1.42-.28-.79-.83-2.37-1.11-3.16-1.75.53-3.65.78-4.25-1.33-2.18.33-3.35-1.38-3.21-3.39-.54-.05-1.62-.14-2.16-.19-.31-1.74-.42-3.76-2.66-3.9.07-.67.2-2.02.26-2.69-1.56-2.96-3.61-6.02-2.81-9.54zm45.37 9.73c2.26-3.87 4.55-7.8 7.96-10.79.28 2.64.32 5.46-1.22 7.77-1.44 2-.7 5.13-3.04 6.46-.58 1.58-.95 3.54-3.11 3.29-.19.93-.37 1.87-.56 2.81-2.5.29-4.09 2.97-6.81 1.96-.18 1.59-.98 2.7-2.62 2.8 0 4.83-.15 9.9-2.44 14.27 2.85 3.66 5.92 7.15 8.67 10.88 1.25 1.55 1.05 3.74.03 5.34-1.1-.54-2.17-1.1-3.24-1.68.52 1.3.37 2.7.32 4.06-1.22-.1-2.38-.45-3.49-.94-.24 1.09-.48 2.18-.74 3.26-.56.08-1.68.25-2.24.33-2.28-2.82-3.35-6.31-4.12-9.8.5 3.24 1.69 6.36 1.66 9.67-1.51 1.44-3.46 2.31-5.54 1.52-3.46-2.15-.95-6.28-.47-9.31-.99 2.72-1.77 5.78-3.97 7.8-1.92 1.03-2.92-2.01-2.87-3.4-.78.19-2.34.57-3.12.77-.22-.88-.66-2.62-.88-3.5.64-.02 1.9-.08 2.53-.11.01-.55.02-1.65.02-2.2 1.18-1.4 2.37-2.8 3.43-4.3-2.72 2.54-4.38 6.26-8 7.71-2.25-1.09-1.23-4.2.02-5.71 2.66-3.48 5.37-6.95 8.37-10.14-2.36-4.04-1.8-8.78-2.83-13.18.41-.51 1.23-1.54 1.64-2.06 1.96 3.57 4.79 6.48 7.98 8.95 3.28-2.46 6-5.55 8.14-9.04.65-2.83 1.51-5.61 1.98-8.47 3.02-1.25 6.87-1.92 8.56-5.02m-26.3 32.1c.46 1.11.91 2.23 1.35 3.36l1.28-.42c.11 1.18.18 2.35.21 3.53.77-2.73 3.57-1.39 3.13 1.07.08-1.43.52-2.73 1.33-3.91.71.91 1.36 1.88 1.92 2.89 1.56-2.76 5.72-2.86 6.19-6.58-.51-.79-1.52-2.39-2.02-3.19-1.72 1.85-3.32 4.15-3.46 6.75-1.09.04-3.28.11-4.37.15-.7-2.45-1.85-4.74-3.13-6.93-.8 1.1-1.61 2.19-2.43 3.28m14.16 3.85c1.34 2.41 2.52 6.29 5.66 6.6-1.62-2.4-3.06-5.12-5.66-6.6zM59.49 52.27c3.89-1.3 8.09-.23 11.67 1.47-2.11 1.56-4.32 3.04-5.91 5.17-1.2-.57-3.34-1.96-3.88.35-1.56-2.15-3.78-3.6-5.85-5.19.35-1.81 2.67-1.19 3.97-1.8z" fill="#fff"/>
    <path fill="#d2d2d2" opacity=".82" d="M69.71 91.99c2.6 1.48 4.04 4.2 5.66 6.6-3.14-.31-4.32-4.19-5.66-6.6z"/>
</svg>
