<svg width="128pt" height="128pt" viewBox="0 0 128 128" xmlns="http://www.w3.org/2000/svg">
    <path fill="#fff" d="M51.59 37.26c8.96-4.55 20.44-4.08 28.92 1.33 3.98 2.95 7.42 6.67 9.84 11.01 1.46 2.73 4.25 4.39 6.94 5.74 4.64.12 8.36-2.93 12.61-4.23 2.21-.94 4.69-.23 6.98-.9-.1 1.32-2.11 1-2.99 1.52-7.08 3.33-11.94 9.29-17.2 15-4.24 4.22-7.03 9.66-10.49 14.54-5.06 4.52-11.2 8.66-18.24 8.9-4.25.01-8.65.39-12.64-1.36-6.72-2.28-12.1-7.52-15.59-13.59-1.47-4.36-5.28-7.4-8.06-10.94-5.28-5.67-10.87-11.55-18.48-13.94 4.91-.28 9.64 1.27 13.92 3.57 2.12.94 4.32 1.54 6.66 1.23 1.96-1.1 3.8-2.45 5.27-4.15 1.8-4.76 5.56-8.28 9.22-11.64.53 1.82.24 3.83 1.09 5.56-7.23 6.43-9.92 17.83-5.61 26.67 3.87 10.13 15.9 15.95 26.31 13.41 8.91-1.58 16.14-9.09 17.8-17.89 1.89-8.6-1.51-18.28-8.63-23.42-7.64-6.09-19.64-6.53-27.33-.48-.15-1.93-.97-4.03-.3-5.94M32.6 59.46c1.55 1.45 3.09 2.9 4.74 4.23-.41-1.37-.05-2.79-.27-4.16-1.58-.79-2.85 1.14-4.47-.07m59.49 5.09c2.02-.74 3.94-3.53 5.42-5.01-1.27.49-2.43.34-3.45-.47-3.19.18.89 4.56-1.97 5.48z"/>
</svg>
