<svg width="128pt" height="128pt" viewBox="0 0 128 128" xmlns="http://www.w3.org/2000/svg">
    <path d="M58.85 23.05c2.88-1.39 6.15-.89 9.23-.88 7.9 1.41 14.38 9.06 13.7 17.23-.92-.54-1.84-1.07-2.77-1.58-.58-9.2-11.31-15.9-19.68-11.63-9.84 3.65-10.85 19.17-1.8 24.3 7.31 5.1 18.34.89 20.88-7.54.57.53 1.69 1.58 2.26 2.1-1.73 4.73-6.03 8.36-10.73 9.98-5.35.89-11.54.82-15.69-3.2-3.95-3.01-6.01-7.89-5.92-12.8-.72-6.93 4.17-13.59 10.52-15.98zM31.26 80.98c2.57-.9 5.69-.94 7.69 1.17 1.78 2.56.97 5.99-1.31 7.95 4.8 6.69 12.76 10.68 20.96 10.94.62-2.54 2.36-5.52 5.39-5.23 3.12-.34 5.34 2.33 5.7 5.2 8.27-.32 16.46-4.54 20.88-11.64-1.11-1.94-1.45-4.12-.9-6.28 1.79-1.95 4.49-3.85 7.16-2.23 3.47 1.17 4.13 6.18 1.48 8.48-1.42 1.81-4.02 1.55-6.01 1.14-3.17 3.79-6.57 7.66-11.21 9.66-3.59 1.87-7.64 2.33-11.6 2.73-1.48 1.78-3.39 3.83-5.93 3.58-2.14-.17-3.34-2.1-4.69-3.5-3.82-.58-7.85-.53-11.37-2.32-4.84-1.87-8.45-5.75-11.71-9.63-3.09.15-6.62-1.86-6.31-5.36.12-.84.35-2.53.46-3.37.59.51 1.17 1.04 1.75 1.57-2.35 2.55 1.19 6.99 4.23 5.17 4.63-1.34 1.27-9.47-3.16-6.45-.5-.53-1-1.06-1.5-1.58m59.19 5.15c1.03 2.4 3.82 4.43 6.3 2.63 2.35-1.71 1.5-5.03-.54-6.62-.86-.01-2.58-.03-3.43-.05-1.01 1.21-1.72 2.61-2.33 4.04m-30 14.88c-.3 3.17 3.34 4.52 5.9 3.53.71-1.73 2.15-3.83.52-5.53-1.71-2.77-6.55-1.32-6.42 2z" fill="#fff"/>
</svg>
