<svg width="128pt" height="128pt" viewBox="0 0 128 128" xmlns="http://www.w3.org/2000/svg">
    <g fill="#3f0e0f">
        <path opacity=".58" d="M57.77 16.38c1.1.04 2.18.22 3.25.4.19.6.56 1.79.74 2.38-.8-.72-1.47-1.73-2.58-1.98-1.1 1.27-2.1 2.96-1.27 4.66 1.87 2.31 4.23 4.14 6.38 6.16 1.05-.38 2.1-.77 3.14-1.15l.63-.23c-.05.5-.16 1.5-.22 2-.46-.17-1.38-.52-1.84-.69-.28.53-.84 1.6-1.11 2.13 1.45 1.42 2.9 2.85 4.28 4.34-5.08-1.93-6.58-7.98-11.39-10.31-2.34-.76-1.48 2.52-2.06 3.84 1.91 1.03 3.83 2.05 5.78 3.02-.48.46-.97.92-1.46 1.36-1.16-.78-2.18-3.27-3.84-2.06-1.16 1.53.77 2.87 1.32 4.25l3.94.96-1.5.24-2.04.32c.46 1.06.93 2.11 1.41 3.16.37.77.77 1.52 1.18 2.26.16.02.47.07.63.09 1.78.27 3.57.53 5.37.75-.93.29-2.8.88-3.73 1.17-.75 3.26 3.6.68 5.33.52-1.47.99-2.92 2-4.33 3.08 1.92-.15 3.81-.56 5.64-1.17-.93 1.14-1.83 2.3-2.69 3.49 2.3-.67 4.13-2.22 5.76-3.91-1.18-3.35-1.98-6.95-.71-10.4-.83-1.76-1.68-3.51-2.54-5.26 1.37 1.45 3.04 3.08 3 5.23-.05 3.61-.47 7.32 1.05 10.73 1.64-.88 3.28-1.82 5.07-2.35-3.76 2.13-7.21 4.77-10.58 7.47-4.79-3.51-8.94-8.12-10.85-13.83-.7-2.56-2.69-4.32-4.73-5.84.54.15 1.6.47 2.13.63 1.64-2.79.4-6.5 2.51-9.11.85-1.97.68-4.24.93-6.35z"/>
        <path opacity=".58" d="M78.41 33.23c1.55.42 2.96 1.18 4.11 2.32l.91-.55c.44 2.29.99 5.97 4.24 4.28-.98-1.74-1.98-3.46-2.97-5.19.94.89 1.94 1.73 2.8 2.71 1.43 1.78 2.82 3.6 4.35 5.31 2.27.01 4.54.25 6.76.74-.78-1.4-1.53-2.81-2.34-4.19 2.22 1.24 2.79 3.55 2.48 5.93-2.02-1.11-4.28-1.62-6.58-1.69.6 1.74 1.21 3.48 1.85 5.22-.44.13-1.3.4-1.73.54-.33-1.81-.59-3.64-.88-5.45-.89.84-1.77 1.69-2.65 2.53l-2.7-.81c-6.53 4.92-9.52 13.79-7.45 21.69 1.49-2.1 2.86-4.27 4.19-6.47-.2.63-.6 1.89-.81 2.52.43-.04 1.28-.11 1.71-.14-.74.85-1.45 1.73-1.95 2.75l-.54.39c-2.46.16-2.91 2.51-2.48 4.5-3.3-7.07-2.26-15.84 2.58-21.96 2.45-3.08 5.65-7.3 10.17-5.76-2.93-4.45-7.81-1.04-11.45.26-.02-.63-.05-1.88-.07-2.5-1.06-.34-2.12-.68-3.18-1.01l-.12 1.88c-.24-.54-.73-1.61-.97-2.15.74-.05 2.22-.14 2.96-.18-.26-1.83-.37-3.68-.24-5.52m.57.41c-.54 3.07 1.19 8.63 5.26 6.45-1.46-2.37-2.78-4.98-5.26-6.45z"/>
    </g>
    <path fill="#bc2b30" d="M59.18 17.18c1.11.25 1.78 1.26 2.58 1.98.3.53.89 1.59 1.19 2.12.57 1.52 1.41 2.95 2.72 3.95.44.4 1.32 1.22 1.76 1.62-1.04.38-2.09.77-3.14 1.15-2.15-2.02-4.51-3.85-6.38-6.16-.83-1.7.17-3.39 1.27-4.66z"/>
    <path d="M25.73 18.84c1.45-1.59 3.31-.03 4.82.6 4.02 2.27 8.17 4.31 12.2 6.55.76.47 1.53.94 2.28 1.42-.61.29-1.84.86-2.46 1.15-.21.53-.64 1.59-.85 2.13-4.67-1.66-9.56-2.63-14.15-4.49-2.1-1.77-2.39-4.83-1.84-7.36zm62.2 47.6c.8.08 2.39.25 3.18.34 1.89.33 3.91.78 5.15 2.39-2.59-.28-5.17-.66-7.75-.95 1.48 1.42 3.06 2.77 4.67 4.05l-2.28.04c-1.48-.61-2.64-1.87-2.81-3.5l-.16-2.37zm-7.45 9.05c1.89-2.73 5.42-2.06 7.93-.72l.2 1.89c-2.01-.71-4.06-1.63-6.25-1.21l-.04 1.14c2.36 1.48 4.87 2.76 6.88 4.73-3.31.68-5.92-2.03-8.76-3.26.05.56.16 1.69.21 2.25 1.22 1.38 3.05 2.54 3.1 4.58-3.9-1.16-6.74-6.19-3.27-9.4z" fill="#ab2728"/>
    <path fill="#430f0f" opacity=".54" d="M62.95 21.28c1.83-.8 3.79 2.43 2.72 3.95-1.31-1-2.15-2.43-2.72-3.95z"/>
    <path d="M55.72 27.93c.58-1.32-.28-4.6 2.06-3.84 4.81 2.33 6.31 8.38 11.39 10.31-1.38-1.49-2.83-2.92-4.28-4.34.27-.53.83-1.6 1.11-2.13.46.17 1.38.52 1.84.69l1 .37.4.81c.86 1.75 1.71 3.5 2.54 5.26-1.27 3.45-.47 7.05.71 10.4-1.63 1.69-3.46 3.24-5.76 3.91.86-1.19 1.76-2.35 2.69-3.49-1.83.61-3.72 1.02-5.64 1.17 1.41-1.08 2.86-2.09 4.33-3.08-1.73.16-6.08 2.74-5.33-.52.93-.29 2.8-.88 3.73-1.17-1.8-.22-3.59-.48-5.37-.75 2.24-1.53 5-1.65 7.6-2.03-2.07-.29-4.13-.56-6.19-.85.52-3.29 3.87-1.49 6.01-1.49-1.41-.82-2.82-1.65-4.22-2.49l-.92-3.33c-.68.61-1.35 1.22-2.01 1.84l2.08 2.44-2.03-.16-3.94-.96c-.55-1.38-2.48-2.72-1.32-4.25 1.66-1.21 2.68 1.28 3.84 2.06.49-.44.98-.9 1.46-1.36-1.95-.97-3.87-1.99-5.78-3.02zm-10.58 5.93c-1.11-1.32-3.23-3.81-1.06-5.15 2 .18 3.98.69 5.78 1.59 1.21 1.2 0 3.07.09 4.54-1.6-.35-3.2-.67-4.81-.98zM87.5 36.8c.67 0 2 .02 2.66.03 1.52.42 3.04.82 4.58 1.21.38.15 1.15.47 1.53.62.81 1.38 1.56 2.79 2.34 4.19-2.22-.49-4.49-.73-6.76-.74-1.53-1.71-2.92-3.53-4.35-5.31zm-49.72 68.1c5.89-6.46 9.75-14.38 14.7-21.51.96.23 2.86.68 3.82.9-4.89 7.96-9.88 15.86-15.36 23.42-2.65 3.41-6.8 6.1-11.25 5.75 1.77-3.64 5.48-5.62 8.09-8.56z" fill="#bd2c31"/>
    <path fill="#3e0e0e" opacity=".61" d="M27.57 26.2c4.59 1.86 9.48 2.83 14.15 4.49.21-.54.64-1.6.85-2.13.62-.29 1.85-.86 2.46-1.15-.75-.48-1.52-.95-2.28-1.42 1.73.06 2.96 1.18 4.04 2.4 1.23.43 2.47.85 3.71 1.27l.03.24c.32 9.81 6.69 17.86 13.44 24.37.09 2.78-1.78 5.18-2.95 7.6l-2.76.32c-.12.23-.35.7-.46.94-.56 1.34-1.05 2.7-1.55 4.07 1.48 3.97.95 8.32-1.16 11.95.47-2.06 1.09-4.08 1.49-6.15-.32-2.5-1.37-4.92-.76-7.48-1.38.03-2.77.01-4.15-.07.86-.1 2.58-.31 3.44-.42.84-1.81 1.63-3.65 2.38-5.51-1.56.05-3.23-.45-4.73.07-1.15.95-1.47 2.46-1.79 3.83-1.32-.58-2.69-1.01-4.09-1.34.75-.02 2.27-.07 3.03-.09.96-1.76 1.76-3.6 2.4-5.5-1.35-.47-2.7-.94-4.04-1.41-1.18 1.43-2.35 2.87-3.5 4.32l-.24.29.4-2.2c-1.01.01-3.02.02-4.02.02l.93-.25c3.01-.45 5.1-2.78 7.28-4.68-1.3-.95-2.6-1.9-3.89-2.86-1.71.88-3.41 1.76-5.12 2.64-.17.72-.52 2.17-.69 2.89-.24-.98-.47-1.96-.71-2.94-.42-.19-1.27-.58-1.69-.77 3.4-.48 6.4-2.21 9.37-3.81-.85-1.21-1.7-2.41-2.55-3.62-2.98.67-5.96 1.37-8.93 2.1l-.12 3.04c-.5-1.27-.55-2.58-.15-3.93-.94-.61-1.87-1.22-2.82-1.82 4.53 1.37 9.09-.75 13.56-1.42-.77-1.36-1.56-2.71-2.34-4.06-4.14.02-8.27-.02-12.41-.02.06 1.36.14 2.73.24 4.09-1.36-1.49-.96-3.26-.31-4.99-.44-.43-1.32-1.28-1.76-1.71 4.66 1.72 9.89 1.93 14.75 1.19.83-1.49-.39-2.8-.97-4.11-4.96-1.01-9.75-2.64-14.7-3.67-.07 1.53-.14 3.06-.15 4.59l-.01.68c-.22-.76-.67-2.28-.89-3.04.58-1.55 1.11-3.16.74-4.83m17.57 7.66c1.61.31 3.21.63 4.81.98-.09-1.47 1.12-3.34-.09-4.54-1.8-.9-3.78-1.41-5.78-1.59-2.17 1.34-.05 3.83 1.06 5.15m-.17.99c-.98 1.69-.72 3.46.13 5.13 2.2-.02 4.4-.02 6.59-.03-.34-1.24-.69-2.47-1.03-3.7-1.88-.53-3.77-1.01-5.69-1.4m.62 6.94c-.11 1.47.08 2.9.55 4.29 2.7-.14 5.07-1.55 7.54-2.49-1-4.04-5.22-1.95-8.09-1.8m6.64 3.37c-1.65.6-3.29 1.28-4.76 2.26-1.53 1.22.23 4.76 2.11 3.25 1.87-1.62 5.61-2.7 5.32-5.61-.67.02-2 .08-2.67.1m-2.92 7.73c.37 1.32 1.17 2.31 2.4 2.97 2.04-2.52 4.92-4.7 5.48-8.09-3.2.58-5.74 2.81-7.88 5.12m3.76 3.28c-1.02 2.25 2.61 3.92 3.5 1.51 1.24-2.39 4.15-5.32 1.76-7.88-1.84 2.04-3.92 3.95-5.26 6.37m7.44-3.33c-1.05 2.06-2.2 4.08-2.99 6.25-.11 1.8 1.71 2.51 3.09 1.59 1.14-1.69 1.84-3.67 2.21-5.66-.32-1.06-1.57-1.45-2.31-2.18z"/>
    <path fill="#aa2728" opacity=".98" d="M27.88 28.8c4.95 1.03 9.74 2.66 14.7 3.67.58 1.31 1.8 2.62.97 4.11-4.86.74-10.09.53-14.75-1.19-.27-.5-.8-1.5-1.07-2 .01-1.53.08-3.06.15-4.59z"/>
    <path fill="#bd2c2d" d="M50.53 29.9c.42.32 1.25.98 1.67 1.31 2.04 1.52 4.03 3.28 4.73 5.84 1.91 5.71 6.06 10.32 10.85 13.83 3.37-2.7 6.82-5.34 10.58-7.47l1.29-.54c-1-.58-2.02-1.15-2.99-1.79l.12-1.88c1.06.33 2.12.67 3.18 1.01.02.62.05 1.87.07 2.5 3.64-1.3 8.52-4.71 11.45-.26-4.52-1.54-7.72 2.68-10.17 5.76-4.84 6.12-5.88 14.89-2.58 21.96.76 1.71 1.29 3.5 1.75 5.32-2.65-1.08-5.24-2.32-7.65-3.87-2.51-1.41-5.25.17-7.59 1.19l.16-1.46c-1.1-.41-2.2-.8-3.29-1.2.49-1.05.97-2.11 1.46-3.16-1.87-1.37-3.8-2.65-5.77-3.86.11-.24.34-.71.46-.94l2.76-.32c1.17-2.42 3.04-4.82 2.95-7.6-6.75-6.51-13.12-14.56-13.44-24.37z"/>
    <path fill="#5b1515" opacity=".75" d="M61.41 33.18c.66-.62 1.33-1.23 2.01-1.84l.92 3.33c1.4.84 2.81 1.67 4.22 2.49-2.14 0-5.49-1.8-6.01 1.49 2.06.29 4.12.56 6.19.85-2.6.38-5.36.5-7.6 2.03-.16-.02-.47-.07-.63-.09-.41-.74-.81-1.49-1.18-2.26.79-.02 2.38-.06 3.18-.09-.83-1.15-1.66-2.29-2.55-3.39l1.5-.24 2.03.16-2.08-2.44z"/>
    <path fill="#b82b2f" d="M78.98 33.64c2.48 1.47 3.8 4.08 5.26 6.45-4.07 2.18-5.8-3.38-5.26-6.45z"/>
    <path d="M44.97 34.85c1.92.39 3.81.87 5.69 1.4.34 1.23.69 2.46 1.03 3.7-2.19.01-4.39.01-6.59.03-.85-1.67-1.11-3.44-.13-5.13zm13.3 51.4c.66-1.99 1.14-4.15 2.46-5.82-.2 2.69-.59 5.37-1.25 7.99-.87 3.48-1.65 6.98-2.5 10.46-1.09.4-2.17.79-3.26 1.19 1.11-4.74 3.24-9.15 4.55-13.82z" fill="#b52829"/>
    <path fill="#bd2c30" d="M83.43 35l1.27-.91c.99 1.73 1.99 3.45 2.97 5.19-3.25 1.69-3.8-1.99-4.24-4.28z"/>
    <path fill="#b12a27" opacity=".96" d="M57.92 36.02l2.04-.32c.89 1.1 1.72 2.24 2.55 3.39-.8.03-2.39.07-3.18.09-.48-1.05-.95-2.1-1.41-3.16z"/>
    <path fill="#230809" opacity=".42" d="M90.16 36.83c.31-2.48 5.4-1.03 4.58 1.21-1.54-.39-3.06-.79-4.58-1.21z"/>
    <path fill="#af2928" d="M30.63 38c4.14 0 8.27.04 12.41.02.78 1.35 1.57 2.7 2.34 4.06-4.47.67-9.03 2.79-13.56 1.42-.24-.35-.71-1.06-.95-1.41-.1-1.36-.18-2.73-.24-4.09z"/>
    <path d="M45.59 41.79c2.87-.15 7.09-2.24 8.09 1.8-2.47.94-4.84 2.35-7.54 2.49-.47-1.39-.66-2.82-.55-4.29zm36.16 23.49c.5-1.02 1.21-1.9 1.95-2.75.41.48 1.21 1.46 1.62 1.94.69.87 1.37 1.74 2.05 2.62-1.54-.23-3.08-.47-4.61-.72-.33-.07-1-.22-1.33-.29l-.22-.41.54-.39z" fill="#b42b28"/>
    <path d="M34.91 46.21c2.97-.73 5.95-1.43 8.93-2.1.85 1.21 1.7 2.41 2.55 3.62-2.97 1.6-5.97 3.33-9.37 3.81-.82-.69-1.56-1.46-2.23-2.29l.12-3.04zm25.6 6.63c.74.73 1.99 1.12 2.31 2.18-.37 1.99-1.07 3.97-2.21 5.66-1.38.92-3.2.21-3.09-1.59.79-2.17 1.94-4.19 2.99-6.25z" fill="#b52c29"/>
    <path fill="#bb2c2c" d="M88.76 45.74c.88-.84 1.76-1.69 2.65-2.53.29 1.81.55 3.64.88 5.45.43-.14 1.29-.41 1.73-.54.51.37 1.54 1.12 2.06 1.49-1.53.8-3.2.68-4.86.62-3.06 3.07-6.25 6.12-8.42 9.92-1.33 2.2-2.7 4.37-4.19 6.47-2.07-7.9.92-16.77 7.45-21.69l2.7.81z"/>
    <path fill="#b42928" opacity=".98" d="M52.23 45.16c.67-.02 2-.08 2.67-.1.29 2.91-3.45 3.99-5.32 5.61-1.88 1.51-3.64-2.03-2.11-3.25 1.47-.98 3.11-1.66 4.76-2.26z"/>
    <path fill="#b32b29" d="M49.31 52.89c2.14-2.31 4.68-4.54 7.88-5.12-.56 3.39-3.44 5.57-5.48 8.09-1.23-.66-2.03-1.65-2.4-2.97z"/>
    <path fill="#be2d2e" d="M40.11 52.36c1.71-.88 3.41-1.76 5.12-2.64 1.29.96 2.59 1.91 3.89 2.86-2.18 1.9-4.27 4.23-7.28 4.68-.61-.5-1.82-1.51-2.42-2.01.17-.72.52-2.17.69-2.89z"/>
    <path fill="#bb2c30" d="M53.07 56.17c1.34-2.42 3.42-4.33 5.26-6.37 2.39 2.56-.52 5.49-1.76 7.88-.89 2.41-4.52.74-3.5-1.51z"/>
    <path fill="#b82c2c" d="M48.27 55.08c1.34.47 2.69.94 4.04 1.41-.64 1.9-1.44 3.74-2.4 5.5-.76.02-2.28.07-3.03.09-.72-.89-1.42-1.78-2.11-2.68 1.15-1.45 2.32-2.89 3.5-4.32z"/>
    <path fill="#c22c2d" d="M52.76 59.59c1.5-.52 3.17-.02 4.73-.07-.75 1.86-1.54 3.7-2.38 5.51-.86.11-2.58.32-3.44.42-.18-.51-.52-1.52-.7-2.03.32-1.37.64-2.88 1.79-3.83z"/>
    <path fill="#1e0707" opacity=".41" d="M87.68 65.24c1.86-1.38 4.85-3.85 6.63-.97-1.36-.17-2.73-.21-4.1-.11.13.24.4.72.53.96.09.42.28 1.24.37 1.66-.79-.09-2.38-.26-3.18-.34l.16 2.37c-1.84-.68-3.67-1.4-5.33-2.44 1.53.25 3.07.49 4.61.72-.68-.88-1.36-1.75-2.05-2.62.59.19 1.77.58 2.36.77z"/>
    <path fill="#ce3031" d="M56.25 67.2c.5-1.37.99-2.73 1.55-4.07 1.97 1.21 3.9 2.49 5.77 3.86-.49 1.05-.97 2.11-1.46 3.16 1.09.4 2.19.79 3.29 1.2l-.16 1.46c-1.55.94-3.07 1.94-4.6 2.91-.71-.1-1.42-.2-2.13-.26l2.34.78c-1.49 2.7-2.99 5.4-4.55 8.05-.96-.22-2.86-.67-3.82-.9l.55-.28c.28-.45.83-1.35 1.11-1.8.24-.54.71-1.62.95-2.16 2.11-3.63 2.64-7.98 1.16-11.95z"/>
    <path fill="#a02528" opacity=".97" d="M90.21 64.16c1.37-.1 2.74-.06 4.1.11-.74 1.19-1.93 1.47-3.57.85-.13-.24-.4-.72-.53-.96z"/>
    <path fill="#090202" opacity=".24" d="M88.51 68.22c2.58.29 5.16.67 7.75.95-.49.29-1.48.88-1.98 1.18-.67 1.71-1.46 3.5-3.38 1.96l2.28-.04c-1.61-1.28-3.19-2.63-4.67-4.05z"/>
    <path fill="#310b0b" opacity=".52" d="M65.24 72.81c2.34-1.02 5.08-2.6 7.59-1.19-4.1.05-7.68 2.26-11.06 4.32-.27 1.39-.25 2.81-.32 4.22l-.72.27c-1.32 1.67-1.8 3.83-2.46 5.82-1.31 4.67-3.44 9.08-4.55 13.82 1.09-.4 2.17-.79 3.26-1.19.85-3.48 1.63-6.98 2.5-10.46-.04 4.42.2 10.28-4.56 12.49-1.05-.31-2.09-.62-3.14-.92 1.56-4.59 3.73-8.94 5.3-13.53-5.34 6.84-9.38 14.55-14.31 21.66 2.22-.79 4.43-1.64 6.42-2.93-1.77 2.68-5.31 4.68-8.25 2.52 5.48-7.56 10.47-15.46 15.36-23.42 1.56-2.65 3.06-5.35 4.55-8.05l-2.34-.78c.71.06 1.42.16 2.13.26 1.53-.97 3.05-1.97 4.6-2.91z"/>
    <path fill="#490f12" opacity=".65" d="M53.24 81.34l.9-.03c-.28.45-.83 1.35-1.11 1.8l-.36-.86.57-.91z"/>
    <path fill="#bd2c29" d="M42.77 108.12c4.93-7.11 8.97-14.82 14.31-21.66-1.57 4.59-3.74 8.94-5.3 13.53-.66 1.82-1.36 3.67-2.59 5.2-1.99 1.29-4.2 2.14-6.42 2.93z"/>
</svg>
