<svg width="128pt" height="128pt" viewBox="0 0 128 128" xmlns="http://www.w3.org/2000/svg">
    <path d="M58.31 22.66c-1.87-1.85-.64-5.01 1.4-6.17 2.8 3.64 5 7.76 8.29 11-1.35-.17-2.56.15-3.63.96-1.91-2.04-4.11-3.79-6.06-5.79zm17.63 16.41c1.95-.06 3.59 1.03 5.16 2.03-.78.33-2.34.99-3.12 1.31-.72-1.09-1.41-2.2-2.04-3.34zm16.04 4.96c.49 1.08 1.87 1.97 1.23 3.33 1.06 1.17 2.37 1.91 3.91 2.22-1.7.31-3.38.76-5.04 1.23.76-2.24.57-4.55-.1-6.78zM52.87 58.88c1.39.29 2.8.4 4.22.32.56 2.8-1.61 7.82-5.06 5.76-2.71-1.58-.44-4.38.84-6.08zm35.31 8.03c.3-3 5.25-4.63 6.74-1.73-2.05-.21-4.27-.47-5.76 1.28 2.34.65 4.75 1.11 7.07 1.89-1.99 2.07-5.09-.5-7.46-.3.6 2.16 2.77 2.84 4.51 3.76-2.72 1.73-6.33-2.08-5.1-4.9zm-5.33 7.01c2.28-.72 5.32.31 6.1 2.72-2.52-.7-5.21-2.59-7.54-.41 2.58 1.51 5.16 3.05 7.57 4.83-3.16 1.66-5.82-2.77-8.93-3.12-.4 3.24 3.62 3.92 3.75 6.78-1.6-.72-3.31-1.54-4.21-3.14-1.4-2.82.16-6.8 3.26-7.66zm-22.92 4.39c.61-.4 1.23-.8 1.84-1.21-1.44 6.22-2.64 12.49-3.76 18.78.56.02 1.68.05 2.23.07-.52.07-1.58.22-2.11.29-.43 2.32-2.29 3.63-4.31 4.46.05-5.32 3.56-9.8 4.45-14.97-1.45.91-1.62 2.75-2.31 4.18-1.56 4.05-3.37 8-4.96 12.04-1.15 3.28-4.27 5.09-7.13 6.68-.43-.45-.87-.9-1.3-1.35 2.02-2.56 4.08-5.11 5.7-7.95.36.09 1.08.29 1.44.39l-1.03-1.11c2.62-4.37 5.71-8.43 8.12-12.92l2.95-.77c-.73-.18-2.18-.54-2.91-.73 3.08-.11 2.92-3.98 4.47-5.76l-1.38-.12z" fill="#fefefe"/>
    <g fill="#fff">
        <path d="M26.42 24.61c-1.06-1.96-1.53-5.18.58-6.59 3.24 1.15 6.14 3.05 9.2 4.59-.82.82-1.63 1.65-2.44 2.47l-.04 3.44c-2.57-.91-6.13-.96-7.3-3.91zm29.5.37c.3-.49.9-1.46 1.2-1.95 2.56 2.15 4.98 4.46 7.53 6.63.15 1.14-.1 2.19-.74 3.13-2.75-2.4-9.23-2.99-7.99-7.81zM34.75 36.84c-4.43 1.17-9.08-3.54-6.8-7.78 2.57-.55 5.18 1.03 7.75 1.4-1.07 1.97-1.07 4.2-.95 6.38z"/>
        <path d="M55.61 29.54c3.21.62 7.97 2.53 8.36 6.47-3.65-.2-9.83-1.62-8.36-6.47zm29.08 10.71c-3.92 2.8-7.98-4.25-4.97-6.89 1.92 2.1 3.42 4.52 4.97 6.89z"/>
        <path d="M87.64 39.51c-3.2 2.16-6.13-4.05-2.84-5.37.95 1.77 2.66 3.28 2.84 5.37zm.02-2.88c4.56-.27 11.06 1.62 10.91 7.22-1.96-1.52-4.38-1.59-6.73-1.31-1.67-1.77-3.2-3.66-4.18-5.91zM39.11 52.92c2.21-1.43 4.52-2.7 6.9-3.85.17 2 2.01 2.43 3.54 3.06-1.97 1.98-3.82 4.43-6.57 5.33-2.42-.25-3.39-2.45-3.87-4.54zm6.72 7.98c-2.35-2.57 1.31-4.68 2.95-6.28 1.16.69 2.34 1.37 3.52 2.03.65 3.12-3.92 7.83-6.47 4.25z"/>
    </g>
    <path fill="#eee" opacity=".93" d="M36.2 22.61c3.27 1.75 6.54 3.59 10.1 4.71-2.19.26-4.16 1.25-4.28 3.69-2.75-.88-5.52-1.69-8.3-2.49l.04-3.44c.81-.82 1.62-1.65 2.44-2.47z"/>
    <path fill="#ededed" opacity=".93" d="M35.7 30.46c3.15.98 6.9 1.17 8.93 4.14-.35.68-1.05 2.05-1.4 2.73-2.82-.29-5.65-.46-8.48-.49-.12-2.18-.12-4.41.95-6.38z"/>
    <path d="M57.44 35.53c1.43.27 2.85.58 4.26.95 1 1.5-.16 3.19-.35 4.74.34.41 1 1.24 1.34 1.66-.22.22-.64.66-.86.89-.59-.97-1.17-1.95-1.7-2.95-.91-1.75-1.83-3.51-2.69-5.29zm-23.46 9.2c-2.42-1.41-4.51-4.19-3.28-7.07 4.28.02 8.55.09 12.81.48.73 1.05 1.46 2.11 2.19 3.16-.77 1.76-3.29 1.9-4.7 3.08l3.78-.64c-.65 1.71 1.48 2.72 1.71 4.3-2.57 1.23-5.21 2.35-7.59 3.94-2.89-.53-4.66-3.11-4.17-6.01 2.48-.59 5.24-.73 7.17-2.61-2.72-.05-5.33.66-7.92 1.37z" fill="#fcfcfc"/>
    <path fill="gray" opacity=".5" d="M88.15 43.17c3.33.08-1.47 3.06 0 0z"/>
</svg>
