<svg width="128pt" height="128pt" viewBox="0 0 128 128" xmlns="http://www.w3.org/2000/svg">
    <g fill="#fff">
        <path d="M37.77 20.39c5.77-1.45 10.86-5.66 17.11-4.8-2.99 2.18-6.44 3.65-9.46 5.81-3.19 1.96-9.11 1.98-10.67-2.01 1.01.33 2.02.66 3.02 1z"/>
        <path d="M49.48 20.23c4.12-1.71 7.99-4.39 12.59-4.61 5.16-.31 10.55 1.36 14.45 4.81 2.1 1.76 2.13 4.65 2.93 7.06.78 2.62 2.75 4.6 4.34 6.74 4.47 5.79 9.52 11.33 15.89 15.07 1.56.66 3.26.94 4.89 1.39-.25.97-.74 2.92-.99 3.89 1.51-.67 3-1.37 4.51-2.03.1 1.46.19 2.92.29 4.37 1.49-.32 3.35-2.68 4.57-.92-.52 1.98-2.64 3.04-3.82 4.67 2.65-.65 4.44-2.85 6.83-3.99 1.38-.64 4.51.28 2.81 2.17-2.52 3.52-2.6 8.27-5.41 11.56-2.39 2.37-5.69.41-8.1-.83-.15-4.43-.94-9.29-4.48-12.35-1.82-2.07-4.69-2.56-7.25-1.77 2.44 2.72 4.05 6.12 3.84 9.85-4.65-.76-9.43.17-13.03 3.34 2.89 5.63 7.33 10.79 13.67 12.5.43 5.32-5.28 7.36-9.45 8.43.87-1.61 2.07-3.85.47-5.44-4.48-3.49-11.59-4.06-16.09-.29-3.07 2.51-6.2 5.36-7.53 9.2-1.4 3.59.6 7.18 2.08 10.38 1.92 1.3 4.14 1.89 6.47 1.67-3.44 4.21-9.82 3.67-13.98.93-3.37-2.68-3.42-7.34-3.4-11.27-3.61 2.34-6.86 5.56-8.2 9.75-1.07 2.85-.08 5.88.02 8.8-5.42-4.35-4.98-12.19-4.19-18.39 1.51-7.81 11.19-9.3 14.07-16.22-3.06 2.1-5.65 4.8-8.88 6.66-4.33 2.64-6.52 7.95-11.47 9.68-5.56 1.93-11.58 1.61-17.37 1.28 2.18-1.36 4.96-2.02 6.39-4.33 2.64-3.96 2.92-8.87 4.72-13.18.95-2.96 3.29-5.08 5.08-7.52-5.07 1.88-5.82 7.78-9.08 11.45-2.69 3.01-5.68 6.05-9.71 7.13 7.01-7.64 2.29-19.2 8.26-27.28-3.64 1.61-3.53 6.24-4.43 9.53-.89 6.11-5.69 11.36-11.57 13.02 1.71-3.38 5.42-5.89 5.47-9.96.9-7.5-1.6-15.53 1.96-22.6 2.3-2.56 4.62-5.7 8.25-6.28 3.22-.81 6.42.18 9.42 1.3-3.23-3.56-8.49-3.33-12.8-2.35-4.22.64-8.62 2.94-12.81.93 5.58-.6 10.7-3.13 15.73-5.47 4.6-2.07 9.88-1.86 14.5.02-3.36-2.42-7.56-2.64-11.54-2.23.91-1.7 2.49-2.87 3.88-4.15-2.87-3.26-8.12-3.74-9.94-7.98 4.43 3.21 10.02 1.45 14.87.41 5.54-1.11 10.64-3.7 16.13-5-1.27-.55-2.55-1.09-3.86-1.55m7.51.96c3.53-.47 6.38 2.05 9.27 3.63-3.12-4.64-9.19-6.23-14.45-4.73 1.51 1.16 3.35 1.29 5.18 1.1M39.3 31.67c.53 2.48 1.19 5.17 3.26 6.84 2.86 2.72 7.04 2.71 10.64 3.73.1.74.29 2.21.39 2.94-1.42 1.02-2.88 1.99-4.34 2.95 4.21 1.85 9.18.65 12.51-2.38 1.74-1.61 2.75-4.5 1.15-6.55-1.72-2.02-3.98-3.53-6.39-4.59-3.39-1.27-7.03-.08-10.53-.39-2.39-.38-4.48-1.66-6.69-2.55m32.67 15.42c2.55 2.61 6.34 4.09 9.94 2.94-1.76-1.77-3.52-3.54-5.13-5.46-1.87.27-3.5 1.15-4.81 2.52z"/>
        <path d="M67 95.17c.93-3.59 2.57-7.15 5.95-9.03-.54 3.8-.29 8.26 2.89 10.91 3.09 3.21 8.11 2.67 11.87 1.1-2.34 2.56-6.22 3.4-9.58 3.73-4.72.74-9.25-2.55-11.13-6.71z"/>
    </g>
</svg>
