<svg width="128pt" height="128pt" viewBox="0 0 128 128" xmlns="http://www.w3.org/2000/svg">
    <path d="M41.63 35.15c6.24 2 13.99.15 18.97 5.26 3.6 3.9-3.74 8.35-7 5.59 2.39-1.63 1.45-4.66-1.05-5.39-3.84-1.01-9.37-.95-10.92-5.46zm55.81 21.89c5.83 3.25 7.01 10.85 5.6 16.84-.67 2.91-2.13 5.93-5.03 7.16-3.26-.67-6-2.76-8.57-4.76 2.64-1.11 5.54-2.21 7.07-4.82 3.21-4.12 2.83-9.82.93-14.42zm-8.01 9.45c1.11-.16 2.22-.25 3.34-.28-.8 2.13-1.78 4.19-2.96 6.14-.97-1.7-1.84-4.19-.38-5.86zM99.48 81.9c4.81-1.01 9.98-2.95 11.87-7.95-.17 4.41-1.66 9.42-5.9 11.55-2.23 1.48-4.96 1.49-7.53 1.33.59-1.62 1.16-3.25 1.56-4.93z" fill="#fff"/>
</svg>
