<svg width="128pt" height="128pt" viewBox="0 0 128 128" xmlns="http://www.w3.org/2000/svg">
    <path fill="#bd2c31" d="M40.64 19.49c4.47-2.02 9.02-4.59 14.14-3.96-2.91 2.21-6.12 3.99-9.24 5.88-3.23 1.91-8.36 2.03-10.59-1.44 1.9.22 3.91.36 5.69-.48z"/>
    <path fill="#b32929" d="M49.1 20.82c4.47-2.88 9.47-5.62 14.97-5.34 5.95.46 13.66 2.93 14.86 9.69 1.09 5.35 5.24 9.17 8.44 13.33 4.75 5.17 9.98 10.84 17.2 12.22-.13.92-.38 2.76-.51 3.68 1.3-.8 2.67-1.46 4.13-1.91l.27 4.22c1.56-.49 3.16-1.91 4.83-.92-1.04 1.72-2.38 3.22-3.55 4.85 3.05-1.85 5.83-5.06 9.78-3.9-2.02 4.27-3.24 8.89-5.57 13-1.37 2.66-4.77 1.99-6.92.82-.39-.15-1.16-.47-1.54-.62-.59-4.5-1.12-9.56-4.78-12.74-1.75-1.93-4.5-1.95-6.88-2.31 1.77 3.2 3.38 6.54 3.86 10.21-3.6.18-7.49-.17-10.68 1.84-.64.37-1.91 1.12-2.55 1.49 1.5 2.72 3.19 5.32 5.01 7.83 2.87-1.21 5.59-2.86 7.58-5.3-.45 1.27-.87 2.56-1.29 3.85 1.42 1.67 2.8 3.37 4.2 5.07l-.36.3c-1.53 1.02-1.78 2.95-2.32 4.57l-.16.55c-2.38 2.25-5.44 3.49-8.51 4.47.55-1.75 2.04-4.1.18-5.62-4.3-3.61-11.39-3.82-15.78-.23-2.4 1.93-4.64 4.14-6.35 6.72-2.5 3.57-1.62 8.47.63 11.93 1.45 2.28 4.41 2.28 6.74 2.82-3.79 3.74-9.93 3.63-14.13.69-3.29-2.74-3.38-7.3-3.51-11.23-2.93 2.23-5.86 4.73-7.33 8.21-1.59 3.19-.68 6.87-.67 10.28-.61-.56-1.85-1.67-2.46-2.23-2.21-5.43-2.69-11.59-1.3-17.28 2.51-6.86 10.83-8.8 14.03-15.26-6.55 4.33-12.8 9.1-17.99 15.02-5.9 4.03-13.65 2.93-20.41 2.81 3.4-1.45 6.86-3.49 8.06-7.24 2.16-6.11 3.01-12.81 7.68-17.78-3.06 1.7-4.12 5.01-5.82 7.78-2.68 4.81-6.82 8.96-12.09 10.8 1.89-3 3.39-6.27 4.09-9.76.85-6.2 1.22-12.5 3.73-18.34-3.21 3.29-4.11 7.79-4.68 12.16-.86 5.64-6.06 9.54-11.13 11.35 1.55-2.82 3.84-5.19 5.12-8.14 1.63-7.2-.92-14.73 1.25-21.87.67-3.19 3.3-5.34 5.58-7.43 3.19-2.45 7.48-2.06 11.25-2.52-7.47-2.28-14.69 1.71-22.13 1.86l-.08-1.15c6.2-1.58 11.87-4.56 17.85-6.73-.05-.49-.16-1.45-.22-1.93 1.19-1.11 2.35-2.26 3.5-3.41-3.44-2.3-7.39-3.95-10.12-7.18 5.2 2.35 10.84.81 16.09-.4 5.78-1.31 11.13-4.01 16.89-5.41 3.77-1.13 7.16 1.47 10.51 2.71-1.75-1.38-3.54-2.86-5.71-3.52-3.53-1.44-7.2.3-10.78.57m-9.86 11.17c.6 1.75 1.24 3.48 1.91 5.21 2.67 3.85 7.69 4.25 11.87 5.18-.13 1.42-.26 2.84-.38 4.25-1.36-.22-2.15 1.08-3.11 1.78 5.07 1.41 10.8-.15 13.71-4.71l.78-.42c-.17-4.58-4.32-7.39-8.19-8.86-2.9-.73-5.91-.02-8.85-.16-2.76.03-5.18-1.47-7.74-2.27m32.71 15.23c1.77.96 3.39 2.75 5.55 2.56-.54 1.96 3.63 2.06 3.08.07l1.31.15c-1.93-1.91-3.84-3.85-5.81-5.73-1.39.96-2.76 1.95-4.13 2.95z"/>
    <path fill="#1a0606" opacity=".37" d="M34.95 19.97c.83-1.92 4.18-1.53 5.69-.48-1.78.84-3.79.7-5.69.48z"/>
    <path opacity=".11" d="M39.24 31.99c2.56.8 4.98 2.3 7.74 2.27 2.94.14 5.95-.57 8.85.16 3.87 1.47 8.02 4.28 8.19 8.86l-.78.42c-.3.15-.88.47-1.18.62-.73-1.89-1.06-4.22-3-5.31-4.45-2.9-10.02-2.39-15.04-3.37-.92-.21-1.86-.23-2.79-.2l-.08 1.76c-.67-1.73-1.31-3.46-1.91-5.21zm54.59 22.9c2.38.36 5.13.38 6.88 2.31 3.66 3.18 4.19 8.24 4.78 12.74.38.15 1.15.47 1.54.62l-2.08 1.28c-.79 2.37-1.72 4.77-3.57 6.55 3.58-6.84 3.13-16.46-3.46-21.33.54 3.12 1.05 6.28.77 9.46-2.21-.12-4.66-.53-6.44 1.12l.68-1.42c-1.09.08-3.28.22-4.37.3.06.94.2 2.83.26 3.77-.59-1.12-1.2-2.24-1.81-3.35 3.19-2.01 7.08-1.66 10.68-1.84-.48-3.67-2.09-7.01-3.86-10.21z"/>
    <path fill="#330c0c" opacity=".57" d="M41.23 35.44c.93-.03 1.87-.01 2.79.2-.42.39-1.26 1.19-1.67 1.59 3.61 1.9 7.74 2.37 11.47 3.93 2.38 1.01.61 3.71.23 5.44l-1.41.03c.12-1.41.25-2.83.38-4.25-4.18-.93-9.2-1.33-11.87-5.18l.08-1.76z"/>
    <path fill="#b22929" d="M42.35 37.23c.41-.4 1.25-1.2 1.67-1.59 5.02.98 10.59.47 15.04 3.37 1.94 1.09 2.27 3.42 3 5.31-2.43 1.5-5.08 2.69-8.01 2.28.38-1.73 2.15-4.43-.23-5.44-3.73-1.56-7.86-2.03-11.47-3.93z"/>
    <path opacity=".06" d="M62.06 44.32c.3-.15.88-.47 1.18-.62-2.91 4.56-8.64 6.12-13.71 4.71.96-.7 1.75-2 3.11-1.78l1.41-.03c2.93.41 5.58-.78 8.01-2.28z"/>
    <path fill="#5f1515" opacity=".78" d="M77.5 49.78c1.03-.08 2.06-.06 3.08.07.55 1.99-3.62 1.89-3.08-.07z"/>
    <path fill="#ce3031" d="M97.92 57.06c6.59 4.87 7.04 14.49 3.46 21.33-.35.37-1.07 1.11-1.42 1.49-1.4-1.7-2.78-3.4-4.2-5.07.42-1.29.84-2.58 1.29-3.85.57-1.48 1.13-2.95 1.64-4.44.28-3.18-.23-6.34-.77-9.46z"/>
    <path fill="#3e0d0e" opacity=".64" d="M21.23 74.02c.57-4.37 1.47-8.87 4.68-12.16C23.4 67.7 23.03 74 22.18 80.2c-.35-2.05-.73-4.11-.95-6.18z"/>
    <path d="M88.56 66.52c1.09-.08 3.28-.22 4.37-.3l-.68 1.42c-.78 1.58-1.58 3.16-2.43 4.71-.25-.52-.75-1.54-1-2.06-.06-.94-.2-2.83-.26-3.77zm12.88 14.96c4.13-1.18 7.76-3.53 10.17-7.14-.63 3.78-1.45 8.18-4.85 10.51-2.3 1.8-5.27 2.11-8.07 2.45-.35-.63-1.05-1.91-1.41-2.55.54-1.62.79-3.55 2.32-4.57.46.32 1.38.97 1.84 1.3z" fill="#ad2829"/>
    <path fill="#1f0707" opacity=".43" d="M40.67 93.59c5.19-5.92 11.44-10.69 17.99-15.02-3.2 6.46-11.52 8.4-14.03 15.26-1.39 5.69-.91 11.85 1.3 17.28-3.91-5.1-2.85-12.02-2.15-17.96l-3.11.44z"/>
    <path fill="#b5292b" d="M67.4 96.09c-.58-4.2 2.25-8.12 5.71-10.2-.62 3.88-.45 8.45 2.82 11.17 2.97 3.06 7.51 2.04 11.3 2.16-3.56 1.54-7.28 3.07-11.23 2.91-3.61-.48-6.88-2.87-8.6-6.04z"/>
</svg>
