<svg width="128pt" height="128pt" viewBox="0 0 128 128" xmlns="http://www.w3.org/2000/svg">
    <path fill="#fff" d="M49.15 29.13c5.2-5.5 13.46-6.83 20.56-4.98 4.03 1.45 8.55 3.68 9.94 8.08 2.03 4.31 1.77 9.07.81 13.61l-1.68-.64c.6 1.32 1.21 2.63 1.82 3.95-.54 1.91-1.16 3.81-1.48 5.78.07 2 1.77 3.83.81 5.86-1.19 3.76-6.16 3.09-8.68 5.54l2.21.2c-.16 1.36.59 3.15-.81 4.06-1.72 1.26-3.74 2-5.68 2.82-.71-.13-2.14-.41-2.85-.55-.64-1.09-.11-2.3.03-3.44l-3.33-1.71c1.95 1.15 3.34 2.92 2.48 5.24l-.42.6c-3.66 1.01-2.05-2.93-2.43-4.66-.73-.16-2.2-.49-2.93-.65.09 1.09.27 3.28.35 4.37-.67-.41-2.03-1.24-2.71-1.65-2.25-1.18-1.84-4.04-.69-5.89-2.07-.65-4.12-1.33-6.2-1.94-1.66-2.57-1.25-5.4-.31-8.12-.59-3.18-1.91-6.4.04-9.4l-1.27.1c-1.42-5.59-.87-11.73 2.42-16.58m-1.04 15.54c1.38-.01 1.57-2.34.67-3.1-1.34.02-1.48 2.35-.67 3.1m30.08-2.56c-1.57 3.05 3.29.19 0 0m-28.62 5.48c-1.93 3.25-.57 8.08 3.14 9.37 2.63-.92 5.51-1.52 7.71-3.32.71-3.16-1.26-8.91-5.51-7.64-1.84.29-3.73.61-5.34 1.59m16.67 5.42c1.95 2.45 5.24 2.9 8.02 3.88 1.05-.55 2.11-1.09 3.16-1.64.74-2.43 1.39-4.93.71-7.47-2.47-1.24-5.27-1.96-8.03-1.86-2.84 1.12-3.3 4.48-3.86 7.09M62.19 63.9c.23-.44.69-1.34.91-1.79.54.35 1.63 1.03 2.17 1.38 2.93-3.22-.16-7.33-1.46-10.57-2.17 3.07-4.89 7.71-1.62 10.98m9.21 4.3c.65.64.65.64 0 0m-4.49 1.19c.57.67.57.67 0 0m2.22-.55c.49.64.49.64 0 0z"/>
    <path fill="#5d5d5d" opacity=".36" d="M78.19 42.11c3.29.19-1.57 3.05 0 0z"/>
    <path fill="#4e4e4e" opacity=".31" d="M71.4 68.2c.65.64.65.64 0 0z"/>
    <path fill="#5c5c5c" opacity=".36" d="M66.91 69.39c.57.67.57.67 0 0z"/>
    <path fill="#818181" opacity=".51" d="M69.13 68.84c.49.64.49.64 0 0z"/>
</svg>
