<svg width="128pt" height="128pt" viewBox="0 0 128 128" xmlns="http://www.w3.org/2000/svg">
    <g fill="#b22b2c">
        <path d="M49.06 29.17c7.37-7.86 21.43-7.92 28.89-.15 3.4 5.05 4.63 12.01 1.82 17.62 1.01 2.02.51 4.13-.13 6.17-.38 3.46 1.07 6.99-.46 10.32-1.91.58-3.82 1.17-5.68 1.9l-.78.42c-.64.94-1.26 1.9-1.87 2.86-2.58.17-5.17.34-7.75.58l-.36-1.2c.15 1.99.22 3.98.12 5.97-1.13-1.35-2.16-2.78-3.2-4.19l-.28-.33c-.5-.42-1.02-.82-1.55-1.19-.09 1.2-.28 3.62-.37 4.82-.33-.5-.98-1.51-1.3-2.02-.51-1.2-1.03-2.41-1.56-3.6l.04-2.14c-2.21-.8-4.41-1.59-6.62-2.35-.98-3.42.06-6.93-.08-10.4.42.24.84.49 1.26.73.02.56.07 1.66.1 2.21 1.27.53 2.53 1.07 3.8 1.62 2.7-.94 5.33-2.06 7.85-3.4-.64-2.49-1.41-4.97-2.68-7.22-2.93-.24-6.31-.72-8.78 1.26-.64 1.45-1.19 2.94-1.63 4.47-.46-1.16-.9-2.33-1.32-3.5.59-1.12 1.56-2.38.17-3.44-1.8-5.26-.63-11.22 2.35-15.82m-.85 12.34c-.86.67-.95 3.17.49 3.04.87-.67.95-3.17-.49-3.04m21.04 4.84c-2.02 1.64-2.29 4.45-3.16 6.75 2.2 1.36 4.5 3.07 7.21 3.04l-.05.8.8.47c.21-.31.63-.93.84-1.25 1-.31 1.95-.75 2.84-1.33l.04-3.12c1.89.77 1.9-3.05.02-2.3l.08-1.93c-2.76-.9-5.7-1.67-8.62-1.13m-6.23 7.62c-.87 1.42-1.66 2.95-1.9 4.62-.65 1.11-1.23 2.57-.32 3.73 1.19 1.72 3.64.65 5.36.92.47-1.46.67-2.98.33-4.49-1.17-1.53-1.22-4.43-3.47-4.78z"/>
        <path d="M67.84 69.25l4.02.09-.42 2.35c-1.24.61-2.58 1-3.91 1.4.1-1.28.21-2.56.31-3.84z"/>
    </g>
    <g fill="#8c2021">
        <path d="M16.72 41.48c2.05-.29 4.19-.68 6.19.12-.77 1.15-1.55 2.29-2.33 3.43-.43.6-.84 1.21-1.23 1.84l-.75 1.19-2.04-.88c-.52 5.67 3.71 10.35 8.39 12.9 2.13-1.68 4.21-3.57 4.98-6.27 2.24-3.06 4.15-6.43 7.02-8.96 2.15-1.26 5.33-.78 6.87 1.25 1.11 3.21-3.56 2.6-5.29 3.55.88-1.64 2.27-2.87 3.63-4.1-1.83.79-3.33 2.12-4.57 3.65-2.56 3.04-4.57 6.48-6.72 9.81-1.5 2.44-5.23 3.96-7.61 1.82-3.73-3.05-8.06-6.59-8.47-11.77.38-2.59 1.2-5.08 1.93-7.58zm89.65.63c.15-2.74 3.96-.35 5.79-.47l.14 1.04c.48 3.5 1.12 7.1-.05 10.54-.14-2.07-.23-4.14-.3-6.21-.66-.04-1.98-.1-2.64-.14-1.01-1.57-2.01-3.14-2.94-4.76zm-22.02 5.94c.15-1.91 1.42-3.82 3.53-3.78 4.4-1.01 6.29 3.73 8.48 6.52l.65-.45c.81 2.28 1.69 4.56 2.95 6.64 1.32 2.05 3.54 3.08 5.63 4.14-2.45 1.02-5.45 1.1-7.36-1.02-3.24-4.2-5.66-8.96-8.89-13.17.03.7.1 2.11.14 2.81-.65-.21-1.95-.64-2.6-.86-.63-.2-1.9-.62-2.53-.83m2-1.89c-.02 3.34 3.07-1.39 0 0z"/>
        <path d="M37.4 52.58c.01-.4.05-1.22.06-1.62 2.85 2.24 5.7 4.48 8.56 6.71-.06.39-.17 1.16-.23 1.55C43 57 40.1 54.92 37.4 52.58zm44.24 7.58c1.65-3.91 5.54-6.85 9.34-8.43.2.15.61.44.81.58-3.08 2.97-6.56 5.52-10.15 7.85zM71.11 80.93c.48.14 1.44.43 1.92.58 4.73 2.18 8.72 5.72 13.46 7.96.58.49 1.75 1.47 2.34 1.96-6.44-2.48-12.32-6.25-17.72-10.5z"/>
    </g>
    <path fill="#3e0e10" opacity=".67" d="M48.21 41.51c1.44-.13 1.36 2.37.49 3.04-1.44.13-1.35-2.37-.49-3.04z"/>
    <path fill="#330707" opacity=".91" d="M20.58 45.03c.91-.7 1.86-1.34 2.8-1.98.98.94 1.96 1.89 2.97 2.8.34 1.24.69 2.47 1.06 3.7l-.24-3.54c1.7.99 3.37 2.01 5.06 3.01l-1.65 2.41-.84-.12c-.11-.68-.33-2.04-.44-2.71-.37 1.14-.76 2.27-1.15 3.41-1.17-.29-2.33-.57-3.5-.85-.22-1.08-.46-2.16-.7-3.23-.11.51-.32 1.52-.43 2.03-1.33-1.05-3.48-1.36-4.17-3.09.39-.63.8-1.24 1.23-1.84z"/>
    <path fill="#330404" opacity=".82" d="M104.08 44.1c.57-.49 1.72-1.49 2.29-1.99.93 1.62 1.93 3.19 2.94 4.76.66.04 1.98.1 2.64.14.07 2.07.16 4.14.3 6.21 1.17-3.44.53-7.04.05-10.54 1.41 3.18 2.01 6.93.58 10.21-1.68 3.33-4.72 5.62-7.29 8.23-2.09-1.06-4.31-2.09-5.63-4.14.87.91 1.79 1.85 3.06 2.17 4.29-.34 7.32-4.78 8.56-8.61-.19-.35-.56-1.06-.75-1.41-3.68-2.39-7.35 2.31-10.61 3.8l-.3-1.94c.17-.73.52-2.18.7-2.91.28-1.89 2.1-2.88 3.46-3.98z"/>
    <path opacity=".56" d="M49.49 47.46c2.47-1.98 5.85-1.5 8.78-1.26-2.94.69-6.85-.03-8.88 2.66.15.81.46 2.43.61 3.24-.2.22-.6.67-.8.89-.42-.24-.84-.49-1.26-.73.14 3.47-.9 6.98.08 10.4 2.21.76 4.41 1.55 6.62 2.35l-.04 2.14c.53 1.19 1.05 2.4 1.56 3.6.32.51.97 1.52 1.3 2.02.18.29.54.86.73 1.15-1.84-.26-3.74-.57-5.36-1.52-1.03-2.1-1.3-4.6-2.79-6.46-4.31-4.55-8.64-9.16-13.97-12.54-1.32 2.04-2.6 4.1-3.83 6.19-.34-.15-1.03-.44-1.37-.58 2.15-3.33 4.16-6.77 6.72-9.81-.03.44-.1 1.32-.13 1.76-.01.4-.05 1.22-.06 1.62 2.7 2.34 5.6 4.42 8.39 6.64.06-.39.17-1.16.23-1.55.19-.47.57-1.42.76-1.9.9-2.39-.32-4.88-.24-7.34.42 1.17.86 2.34 1.32 3.5.44-1.53.99-3.02 1.63-4.47zm23.23 17.99l.78-.42c.23 1.59.51 3.18.56 4.79-.81.71-1.68 1.33-2.62 1.87l.42-2.35-4.02-.09c-.1 1.28-.21 2.56-.31 3.84l-.42.11c-.33-1.5-.66-3-.99-4.49-.67.35-2.02 1.05-2.7 1.39l-.32-1.21c2.58-.24 5.17-.41 7.75-.58.61-.96 1.23-1.92 1.87-2.86m-1.51 2.86c.56.41.56.41 0 0zm-8.37 8.85c.24.01.74.04.98.06-1.64 2.68-4.85 4.18-7.32 6.12-4.97 3.06-9.72 7.03-15.43 8.47.04-.22.11-.66.15-.88C49 87.3 55.97 82.24 62.84 77.16z" fill="#380d0f"/>
    <path fill="#260909" opacity=".59" d="M86.35 46.16c3.07-1.39-.02 3.34 0 0z"/>
    <path fill="#4c0808" opacity=".89" d="M99.91 51.06c-.09-1.36-2.74-3.66-.37-4.29.27.33.81.98 1.08 1.31-.18.73-.53 2.18-.7 2.91l-.01.07z"/>
    <path fill="#571414" opacity=".76" d="M77.79 49.41c1.88-.75 1.87 3.07-.02 2.3.01-.58.01-1.72.02-2.3z"/>
    <path fill="#45080a" opacity=".93" d="M97.01 50.34c-.92-2.65 2.34-.25 2.9.72.07 3.28-2.04.64-2.9-.72z"/>
    <path fill="#5a0d0d" opacity=".93" d="M28.91 51.42l.83-.11c1.49 1.87-2.7 2.22-.83.11z"/>
    <g fill="#8e2021">
        <path d="M32.24 59.59c1.23-2.09 2.51-4.15 3.83-6.19 5.33 3.38 9.66 7.99 13.97 12.54 1.49 1.86 1.76 4.36 2.79 6.46 1.62.95 3.52 1.26 5.36 1.52l2.01-.36-.09 2.82c-1.38.7-2.74 1.44-4.09 2.19-1.55-1.32-2.96-2.81-3.72-4.72-3.53-.68-5.27-4.24-8.15-6.05-4.03-2.66-7.65-5.92-11.91-8.21z"/>
        <path d="M77.49 65.56c4.76-4.51 9.69-8.84 14.91-12.81 1.48 2.1 2.93 4.22 4.39 6.33-1.04.66-2.07 1.32-3.09 1.99-4.66 3.53-9.79 6.51-13.82 10.8-.99 1.12-2.36 1.71-3.79 2.02-.54 1.06-.92 2.28-1.98 2.94-4.5 3.25-8.69 6.89-13.17 10.15-7.94 5.29-16.6 9.6-25.76 12.26-3.88.85-7.86 1.02-11.81 1.06.04-1.14.09-2.28.13-3.42l.02-.28c1.67-.5 3.39-.99 4.78-2.1.23 1.42.78 1.47 1.67.15.38-.19 1.15-.57 1.53-.76-.46.74-1.4 2.2-1.87 2.93 2.94-.78 5.78-1.88 8.48-3.27-1.03-.06-3.08-.17-4.11-.23 2.9-2.04 6.42-2.93 9.5-4.67 6.36-3.59 12.53-7.59 18.04-12.41.69-.53 1.39-1.05 2.09-1.56.51.28 1.51.86 2.02 1.15 2.72-1.4 5.69-2.34 8.29-3.97 1.63-1.79 1.8-4.57 3.55-6.3m-14.65 11.6C55.97 82.24 49 87.3 41.22 90.93c-.04.22-.11.66-.15.88 5.71-1.44 10.46-5.41 15.43-8.47 2.47-1.94 5.68-3.44 7.32-6.12-.24-.02-.74-.05-.98-.06M39.49 92.29c.27.41.27.41 0 0z"/>
    </g>
    <path fill="#2e0b0b" opacity=".55" d="M73.3 56.14c.4 0 1.2.02 1.59.02-.21.32-.63.94-.84 1.25l-.8-.47.05-.8z"/>
    <path fill="#45100f" opacity=".63" d="M60.8 62.32c-.91-1.16-.33-2.62.32-3.73l-.08 3.54c1.47.15 2.95.29 4.42.44.34-1.27.68-2.54 1.03-3.82.34 1.51.14 3.03-.33 4.49-1.72-.27-4.17.8-5.36-.92z"/>
    <path fill="#220709" opacity=".61" d="M71.21 68.31c.56.41.56.41 0 0z"/>
    <path fill="#a62627" opacity=".98" d="M63.42 70.1c.68-.34 2.03-1.04 2.7-1.39.33 1.49.66 2.99.99 4.49-.79.16-2.36.49-3.14.65-.14-1.26-.33-2.5-.55-3.75z"/>
    <path fill="#2c0a0a" opacity=".56" d="M60.94 86.98c4.48-3.26 8.67-6.9 13.17-10.15-.49.6-1.47 1.79-1.96 2.38.22.57.66 1.72.88 2.3-.48-.15-1.44-.44-1.92-.58 5.4 4.25 11.28 8.02 17.72 10.5-.59-.49-1.76-1.47-2.34-1.96 1.52-.04 2.55.52 3.1 1.7l.03.06.06.05.1-.03c1.68-.72 2.98 1.02 4.31 1.75L92 92.6c2.12 1.29 4.28 2.5 6.4 3.79-10.24-2.6-19.3-8.31-28.05-14.02-1.75 1-3.5 2-5.3 2.89-1.34.64-2.73 1.18-4.11 1.72z"/>
    <path fill="#8f2123" d="M70.35 82.37c8.75 5.71 17.81 11.42 28.05 14.02-2.12-1.29-4.28-2.5-6.4-3.79l2.09.4c3.4 1.03 6.64 2.66 10.21 3.04-.59.16-3.06 1.46-1.42 1.89 1.3.07 2.57-.31 3.84-.51.78-.07 2.33-.22 3.11-.3-2.9 4.06-8.52 4.08-12.91 3.01-11.48-2.72-22.29-8.02-31.87-14.87 1.8-.89 3.55-1.89 5.3-2.89m28.39 13.6c-.01 3.31 3.11-1.36 0 0z"/>
    <path fill="#8d221f" opacity=".96" d="M89.59 91.17l.19.08-.1.03-.06-.05-.03-.06z"/>
    <path fill="#1f0808" opacity=".55" d="M39.49 92.29c.27.41.27.41 0 0z"/>
    <path fill="#420f0f" opacity=".7" d="M31.5 93.89c.82-.28 1.65-.47 2.5-.57 1.03.06 3.08.17 4.11.23-2.7 1.39-5.54 2.49-8.48 3.27.47-.73 1.41-2.19 1.87-2.93z"/>
    <path fill="#290b09" opacity=".61" d="M98.74 95.97c3.11-1.36-.01 3.31 0 0z"/>
    <path fill="#220808" opacity=".52" d="M104.3 96.04c1.32-.25 2.13.21 2.42 1.38-1.27.2-2.54.58-3.84.51-1.64-.43.83-1.73 1.42-1.89z"/>
    <path fill="#3c0d0f" opacity=".6" d="M18.2 96.99c1.77-.05 3.54-.09 5.3-.11-.04 1.14-.09 2.28-.13 3.42 3.95-.04 7.93-.21 11.81-1.06-5.36 2.29-13.34 3.37-16.98-2.25z"/>
</svg>
