<svg width="128pt" height="128pt" viewBox="0 0 128 128" xmlns="http://www.w3.org/2000/svg">
    <path fill="#fff" d="M71.5 32.57c5.08-1.23 10.51-1.57 15.59-.18 5.53 1.32 11.44-.68 16.85 1.47 5.27 1.38 7.77 6.79 9.7 11.37-6.24-.73-12.46.13-18.62 1.11 5.89 2.2 12.56 1.08 18.09 4.36-.27.57-.8 1.69-1.06 2.26-.57-.22-1.7-.65-2.27-.86-2.86-1.62-5.6.46-8.23 1.46-3.82 1.65-7.99 2.08-12.03 2.88-.03-2.14-.05-4.27-.12-6.4-2.53 4.63-1.26 9.98.49 14.64 1.22 1.62 2.49 3.21 3.59 4.92 1.63 2.58 2.66 5.61 5.11 7.59 2.51 2.91 7.15 4.7 7.03 9.16-2.95-.36-3.86-3.67-6.57-4.39.78 2.63 3.17 5.24 2.22 8.09-2.58-.97-2.95-4.69-5.23-6.34-.12 3.16 1.49 6 1.67 9.13-3.34-1.08-3.76-5.09-5.27-7.79-.11 1.96.17 3.96-.22 5.91-1.75.35-1.77-1.98-2.44-3.01-.74-2.12.56-4.45-.15-6.57-.99-1.53-2.27-2.85-3.29-4.35-1.06-1.63-2.07-3.28-3.12-4.91-1.51-3.58-2.67-7.33-4.82-10.61-1.84-2.73-1.99-6.09-2.92-9.16-.04 4.02.21 8.26 2.52 11.71-1.74.4-3.48.8-5.21 1.22-1.08-1.12-2.25-2.14-3.42-3.14l-.04.09c-2.33-.91-4.48-2.39-6.96-2.87 1.51 2.03 4.22 2.61 6.16 4.14 4.18 2.64 6.29 7.31 8.01 11.74.06.67.19 2.02.25 2.69.04.76.13 2.27.17 3.02-2.98 3.79-6.63 7.59-6.75 12.74.92.8 1.85 1.61 2.77 2.42-1.3.59-2.7 1.3-3.92.15.07.48.23 1.45.3 1.94-5.61-.43-11.3-.44-16.84-1.47-.38-6.24 4.53-10.91 7.94-15.57-2.46-2.06-5.11-3.92-7.33-6.24-1.46-1.91-2.68-3.97-4.18-5.84-.35-.54-.84-.7-1.44-.47-4.83.97-9.11 3.91-12.09 7.78-3.66 4.75-7.43 9.41-11.34 13.96-2.78 1.78-6.16 2.33-9.02 4.02 2.1-5.03 4.82-9.79 8.6-13.75 5.45-7.67 9.15-16.53 15.19-23.81 3.63-4.06 7.21-8.17 10.89-12.18 2.91-3.21 7.06-4.76 10.35-7.49 3.29-2.54 7.42-3.67 11.41-4.57m25.12 7.61c2.14-.01 4.29-.01 6.44.05-1.67-2.02-4.85-2.39-6.44-.05z"/>
    <path fill="#7f7f7f" opacity=".5" d="M89.89 64.68c-1.75-4.66-3.02-10.01-.49-14.64.07 2.13.09 4.26.12 6.4.13.77.4 2.32.53 3.1 7.39 1.1 14.44-2.56 19.73-7.44.57.21 1.7.64 2.27.86-2.88 4.94-8.43 6.94-12.59 10.51-3.22-1.64-6.49.17-9.57 1.21z"/>
    <path fill="#dfdfdf" opacity=".87" d="M101.55 53.56c2.63-1 5.37-3.08 8.23-1.46-5.29 4.88-12.34 8.54-19.73 7.44-.13-.78-.4-2.33-.53-3.1 4.04-.8 8.21-1.23 12.03-2.88z"/>
    <path fill="#4c4c4c" opacity=".3" d="M75.48 52.35c.93 3.07 1.08 6.43 2.92 9.16 2.15 3.28 3.31 7.03 4.82 10.61-1-.93-2.04-1.82-3.06-2.71-1.27.49-2.53.97-3.79 1.45.04 1.46.1 2.92.17 4.38-1.72-4.43-3.83-9.1-8.01-11.74-1.94-1.53-4.65-2.11-6.16-4.14 2.48.48 4.63 1.96 6.96 2.87l.04-.09c1.17 1 2.34 2.02 3.42 3.14.58.83 1.14 1.67 1.7 2.52 1.6-.45 3.21-.91 4.81-1.38-.33-.59-.97-1.77-1.3-2.36-2.31-3.45-2.56-7.69-2.52-11.71z"/>
    <path fill="#2c2c2c" opacity=".17" d="M89.89 64.68c3.08-1.04 6.35-2.85 9.57-1.21-1.28 2.7-3.97 4.08-5.98 6.13-1.1-1.71-2.37-3.3-3.59-4.92z"/>
    <path fill="#aeaeae" opacity=".68" d="M72.79 65.28c1.73-.42 3.47-.82 5.21-1.22.33.59.97 1.77 1.3 2.36-1.6.47-3.21.93-4.81 1.38-.56-.85-1.12-1.69-1.7-2.52z"/>
    <path fill="#bebebe" opacity=".75" d="M47.51 68.61c.6-.23 1.09-.07 1.44.47-.13.72-.4 2.16-.54 2.88-5.26 1.63-10.88 3.96-13.74 9-2.64 3.94-6.33 7.27-10.59 9.39 3.91-4.55 7.68-9.21 11.34-13.96 2.98-3.87 7.26-6.81 12.09-7.78z"/>
    <path fill="#575757" opacity=".34" d="M48.95 69.08c1.5 1.87 2.72 3.93 4.18 5.84-2.92.05-5.9-.33-8.77.31-3.55 1.36-6.14 4.36-9.56 5.93l-.13-.2c2.86-5.04 8.48-7.37 13.74-9 .14-.72.41-2.16.54-2.88z"/>
    <path fill="#272727" opacity=".15" d="M76.37 70.86c1.26-.48 2.52-.96 3.79-1.45 1.02.89 2.06 1.78 3.06 2.71 1.05 1.63 2.06 3.28 3.12 4.91l-1.54-.12c-2.28-.92-1.44 2.65.21.88-2.21 2.78-5.57 1.1-8.22.14-.06-.67-.19-2.02-.25-2.69-.07-1.46-.13-2.92-.17-4.38m2.99 2.3c-1.2 1.44 1.35 3.07 2.38 1.68 1.2-1.44-1.35-3.08-2.38-1.68z"/>
    <path fill="#515151" opacity=".32" d="M85.01 77.79c-1.65 1.77-2.49-1.8-.21-.88l.21.88z"/>
</svg>
