<svg width="128pt" height="128pt" viewBox="0 0 128 128" xmlns="http://www.w3.org/2000/svg">
    <path fill="#737373" opacity=".45" d="M102.34 52.65c.34-1.88 2.49-.87 3.72-1.47 1.44-.33 3.17-.55 4.04.94l-2.66.4c-2.76 3.14-7.22 4.09-10.9 5.87-2.38-.18-4.45.61-6.69 1.18l-.79.1c-.01-1.39.4-2.74.63-4.1 1.35-.08 2.81.21 3.77-.99 1.82-.22 4.03.57 5.28-1.19.48.06 1.44.19 1.92.25l-.17-1.44c.46.12 1.39.34 1.85.45z"/>
    <path fill="#ddd" opacity=".87" d="M107.44 52.52l2.66-.4c.41.25 1.22.74 1.62.98-1.93 3.35-5.16 5.97-8.66 7.49-4.33-.34-8.29 1.99-12.62 1.93-.14-.74-.44-2.21-.59-2.95 2.24-.57 4.31-1.36 6.69-1.18 3.68-1.78 8.14-2.73 10.9-5.87z"/>
    <path fill="#474747" opacity=".28" d="M71.01 64.37c-1.25-2.96 3.18-3.53 5.2-3.94.74.92 1.49 1.84 2.24 2.75-2.08.32-4.26.21-6.29.79l-1.15.4z"/>
    <path fill="#fefefe" d="M90.44 62.52c4.33.06 8.29-2.27 12.62-1.93-3.2 2.24-6.96 4.6-8.02 8.54-2.02-1.6-4.5-3.93-4.6-6.61z"/>
    <path fill="silver" opacity=".75" d="M72.16 63.97c2.03-.58 4.21-.47 6.29-.79L78.13 65l1.34-.74c.17.63.49 1.87.66 2.49-.48-.16-1.42-.48-1.9-.64-1.34.68-2.62 1.49-3.84 2.36-.76-1.49-1.9-2.82-2.23-4.5z"/>
    <path fill="#fff" d="M78.23 66.11c.48.16 1.42.48 1.9.64.64 3.93 3.05 7.32 4.75 10.92-2.43-1.08-4.6 1.7-6.91.45-1.08-3.25-1.73-6.68-3.58-9.65 1.22-.87 2.5-1.68 3.84-2.36z"/>
    <path fill="#a0a0a0" opacity=".63" d="M34.72 76.71c3-4.72 8.19-7.89 13.75-8.43.14.51.42 1.55.56 2.07-7.25 1.43-13.02 6.54-17.08 12.5-.6.99-1.53 1.71-2.28 2.58-.06.33-.16 1.01-.22 1.35-2.79 2.38-6.12 4.43-9.78 5.01 2.46-1.14 4.56-2.75 6.26-4.88 2.04-1.28 2.22-3.94 4.43-4.89 0-2.59 3.36-3.14 4.36-5.31z"/>
    <path fill="#f6f6f6" opacity=".96" d="M31.95 82.85c4.06-5.96 9.83-11.07 17.08-12.5.53 1.82 2.15 2.98 3.15 4.52-1.75.02-3.5.07-5.16-.56-4.71.36-7.53 4.42-11.52 6.28-1.58 2.46-4.04 4.1-6.05 6.19.06-.34.16-1.02.22-1.35.75-.87 1.68-1.59 2.28-2.58z"/>
</svg>
