<svg width="128pt" height="128pt" viewBox="0 0 128 128" xmlns="http://www.w3.org/2000/svg">
    <g fill="#fff">
        <path d="M60.45 34.65c5.38-2.25 10.51-5.52 16.46-5.96 9.33-1.74 19.54-1.54 28.03 3.16 3.22 2.02 6.08 4.61 8.34 7.68.78 1.27 2.09 1.93 3.51 2.26-.03.52-.07 1.58-.1 2.1-5.66-.62-11.34-.09-16.91.98 5.35 2.91 13 1.59 16.72 7.23-1.17.14-3.5.41-4.66.55l1.35-1.51c-5.69-2.35-11.96-3.05-17.3-6.29-.04-.38-.11-1.15-.15-1.54 5.85-.4 11.42-2.7 17.39-1.98-3.41-6.6-11.12-9.12-18.05-9.74-10.4-1.63-21.86-.54-30.65 5.69-7.19 4.69-13.04 11.2-17.73 18.34-6.7 7.59-10.59 17.19-17.49 24.61-2.2 2.41-4.58 5.93-8.35 5.01 6.01-3.44 9.17-9.83 13.11-15.22 5.62-8.68 10.55-17.84 17.15-25.85 2.29-3.79 5.74-6.56 9.24-9.17l.09-.35z"/>
        <path d="M90.13 56.18c-.92-2.3.44-6.82 3.64-5.51-3.12 3.85-.37 8.37 1.49 12.09 2.46 6.49 6.06 12.87 11.72 17.09-.11.51-.32 1.53-.43 2.05-1.46-.32-2.82-.98-4.24-1.42.8 1.52 2.85 3.25.27 4.49-2.22-1.15-2.51-4.2-1.16-6.13-3.66-7.59-8.71-14.56-11.29-22.66zm-12-.06c.28-1.07.08-3.28 1.91-2.77 3.67 1.75 3.69 6.23 5.17 9.49 2.71 6.53 5.32 13.5 10.6 18.43 1.58.68 4.52 0 4.36 2.6.05 1.69-.65 2.81-2.42 2.6-.43-.93-.86-1.87-1.29-2.81-.13 1.98-.95 3.15-3.02 2.57.6-3.44-2.02-5.94-3.48-8.75-1.72-3.12-3.15-6.38-4.58-9.64-2.39-3.96-2.31-9.85-7.25-11.72z"/>
        <path d="M96.35 64.92c4.63-5.37 10.73-9.07 16.93-12.35-3.54 6.5-11.86 8.13-15.23 14.85-.42-.63-1.27-1.87-1.7-2.5zm-24.51-6.08l2.7-.36c-1.68 4.02 2.2 6.66 3.72 9.9.29.74.86 2.21 1.15 2.94.95 3.44 1.74 7.13.58 10.63-.89 2.41-1.87 4.79-2.98 7.11-1.7-2.84.09-6.06.35-9.06 1.46-6.03-1.63-12.03-5.55-16.44-.06-1.57-.13-3.15.03-4.72zm-19.48 8.32c3.22-2.02 6.4.64 8.5 2.98 4.93 5.74 8.24 14.92 2.79 21.44-1.47-3.38.82-7.02-.48-10.44-1.87-5.29-6.61-8.76-10.62-12.38-.05-.4-.14-1.2-.19-1.6z"/>
        <path d="M52.34 74.29c.26-.29.78-.87 1.05-1.16-.07.3-.19.9-.25 1.21 2.44-.13 4.69.5 5.77 2.89-2.72 1.11-5.62.06-8.4.64-10.77 2.62-18.72 11.83-29.74 13.67-3.8-.06-9.69-2.73-8.21-7.39 3.03 2.51 6.07 5.5 10.37 5.25 3.49-1.94 7.19-3.55 10.25-6.17 5.52-4.57 12.27-7.25 19.16-8.94zm31.29-1.06c2.32-.97 4-.2 4.89 2.14l-2.6.8c-1.51.27-4.4 1.84-4.36-1.09.6-.71 1.35-1.28 2.07-1.85zM62.2 89.86c.41.9.81 1.82 1.19 2.74 4.06.85 9.69 3.67 12.21-1.26 2.46-.75 4.48.59 6.67 1.44-.32.57-.98 1.73-1.31 2.3-.97-.24-2.92-.73-3.89-.97.36 1.26.93 2.43 1.69 3.51-1.99.88-3.91.9-5.59-.67.12.67.36 1.99.49 2.66-1.03.15-2.05.31-3.08.47-1.23-5.09-7.98-1.63-10.25-5.66.47-1.14 1.4-3.42 1.87-4.56z"/>
    </g>
    <path fill="#1d1d1d" opacity=".11" d="M102.02 50.77c2.2.1 4.4.21 6.6.38-1.98 1.27-4.09 2.3-6.32 3.05l-.28-3.43z"/>
    <path fill="#828282" opacity=".51" d="M79.41 71.32c1.41.63 2.8 1.3 4.22 1.91-.72.57-1.47 1.14-2.07 1.85-.66 2.26-.99 4.59-1.57 6.87 1.16-3.5.37-7.19-.58-10.63z"/>
</svg>
