<svg width="128pt" height="128pt" viewBox="0 0 128 128" xmlns="http://www.w3.org/2000/svg">
    <path fill="#adadad" opacity=".68" d="M103.03 36.72c1.25-1.2 2.88 1.05 1.58 2.03-1.27 1.26-2.84-1.04-1.58-2.03z"/>
    <path fill="#cfcfcf" opacity=".81" d="M75.5 96.7c.61-.01 1.23.01 1.84.06 1.38 2.73 1.92 5.8 2.82 8.71.79.83 1.58 1.66 2.36 2.5 2.7.1 5.14-.94 7.45-2.23 2.28-.64 3.75 1.4 4.46 3.23-1.18-.51-2.36-1.04-3.53-1.57-.56.43-1.69 1.31-2.25 1.75-7.38.05-14.75.23-22.09-.57.83-.61 1.7-1.18 2.6-1.69 2.83.75 5.74 1.08 8.68.97.43-3.9-1.17-7.54-2.34-11.16z"/>
</svg>
