<svg width="128pt" height="128pt" viewBox="0 0 128 128" xmlns="http://www.w3.org/2000/svg">
    <path fill="#fff" d="M46.79 27.54c6.96 5.25 11.76 12.88 14.66 21.01 1.39 4.18 4.14 8.42 8.69 9.5 4.22.54 9.18-.5 11.7-4.26 2-3.03 3.13-6.61 5.82-9.18 1.41-1.11.82-2.96 1.09-4.49 1.78-3.55 5.65-5.49 9.14-6.98.77-.18 2.29-.54 3.06-.71-.94-1.52-1.77-3.09-2.54-4.7 1.47.42 2.98.84 4.15 1.89.32-.12.98-.36 1.3-.48 1.43 3.47 5.34 5.89 5.58 9.7 1.09 1.02 2.11 2.11 3.17 3.15-.13.51-.4 1.53-.53 2.03-1.53-1.28-3.52-1.48-5.4-1.84 1.77 2.66 1.88 7.91-2.47 7.67.82 9.21 1.21 18.7-1.09 27.74-1.61 3.53-4.49 6.38-7.54 8.72-2.35-1.13-3.82 1.87-5.55 2.96-2.89.46-4.07 3.13-5.89 5.04-1.77 1.29-3.96 2.28-4.54 4.61-1.05-2.43-3.47-2.59-5.58-1.21.33-.69 1-2.07 1.33-2.76-.59-.15-1.79-.45-2.38-.61.36-.4 1.09-1.2 1.46-1.6-4.94.36-8.28-3.7-12.28-5.84-4.06-2.34-5.15-7.42-8.75-10.12-.32-1.57-.83-3.08-1.38-4.58-.83-.11-2.47-.33-3.29-.43-.51.49-1.53 1.48-2.04 1.98-1.03-1.58-1.36-3.42-1.46-5.27-1.8 1.18-3.37 2.67-4.64 4.42.16-1.87.04-3.84 1.6-5.18-2.29 1.07-4.64 2.04-6.71 3.53-.59.99-1.27 1.93-2.04 2.79.01-1.55 0-3.1.14-4.64.87-1.14 1.68-2.31 2.48-3.5-1.78.45-3.67.83-5.09 2.07-1.9 1.35-2.25 4.04-4.33 5.18-.32-3.21.65-6.93 3.72-8.51-.48-.82-.94-1.65-1.37-2.49-1.48-.41-2.9-1-4.23-1.75-.15-.58-.44-1.74-.59-2.32 1.18-.75 2.37-1.47 3.57-2.16-1.06-1.25-2.13-2.5-2.94-3.93 1.71-.52 3.48-.82 5.26-1-.34-1.3-.84-3.62-2.67-2.53-6.34 2.55-6.83 10.77-6.67 16.63.95 2.08 1.87 4.16 2.82 6.24-.54.04-1.09.08-1.63.13-1.59-2.29-3.43-4.44-4.62-6.97-.78-3.8-1.33-7.71-1.15-11.59 1.05-5.02 3.36-10.14 7.56-13.27 1.37-.81 1.47-2.47 1.96-3.83 2.04-1.41 4.38-2.2 6.65-3.15-1.51-.48-3.03-.94-4.56-1.37.41.09 1.23.26 1.63.35.71-1.95 2.67-2.27 4.5-2.41 6.74-.18 14.01 1.11 18.86 6.22-1.98-2.64-3.78-5.41-5.95-7.9m57.09 11.75c1.66-.15 1.86-3-.02-2.88-1.77-.05-1.73 2.96.02 2.88z"/>
</svg>
