<svg width="128pt" height="128pt" viewBox="0 0 128 128" xmlns="http://www.w3.org/2000/svg">
    <path fill="#b02929" d="M33.02 22.05c3.42-3.94 7.05-7.71 11.24-10.84-4.55 8.76-11.67 16.6-12.81 26.76.14 2.45.23 5.04 1.2 7.33 2.39 2.88 4.9 5.76 8.09 7.79 2.39 1.65 4.72 3.4 6.93 5.29.06.28.16.84.21 1.11-2.31 1.37-4.55 2.86-6.76 4.38-1.49-.92-2.97-1.82-4.45-2.76-1.91-1.33-3.92-2.6-5.44-4.38l-1.09-1.81c-2.02-2.75-3.82-5.68-5.43-8.69 1.23-4.36-.28-9.27 2.22-13.27 1.95-3.67 3.15-7.85 6.09-10.91z"/>
    <path fill="#b22929" d="M83.8 11.56c4.92 3.59 9.18 8.02 12.96 12.76 2.09 3.59 3.74 7.42 5.46 11.2.64 3.81.58 7.73.92 11.58-1.67 2.96-3.6 5.77-5.51 8.57-.8.59-1.37 1.36-1.7 2.3-2.7 2.39-5.8 4.27-8.72 6.38l-.19-1.08-1.25.98.54-1.83-1.45.84.35-1.15c-.44-.26-1.31-.8-1.75-1.06-1.29-.46-2.61-.77-3.98-.93 1.81-2.2 3.83-4.23 6.24-5.76.56-.34 1.69-1 2.25-1.34.99-.27 1.75-.84 2.29-1.71 1.67-2.27 4.01-3.99 5.51-6.39 2.29-6.63-.44-13.35-3.37-19.28-2.78-4.75-5.98-9.24-8.6-14.08z"/>
    <path d="M49.25 50.17c-3.48-6.76-.08-14.22 2.24-20.76.44 5.89-1.16 12.14 1.4 17.71 2.09 2.99 4.12 6.02 5.99 9.16l-.7.04-.22.66c-1.07 1.37-2.25 2.66-3.25 4.09-.18-.15-.55-.43-.73-.57-.47 3.36.5 6.57 2.12 9.46l1.11-.7.72 2.16c-.5.19-1.49.57-1.99.75-2.25-2.94-4.97-6.05-4.99-9.98 1.14-1.33 2.53-2.41 3.81-3.59-1.4.47-2.79 1.06-4.27 1.25-2.39-2.16-3.8-5.12-5.1-8 3.37 2.1 6.41 4.83 10.27 6.05-2.28-2.32-4.32-4.84-6.2-7.49l-.21-.24zm27.43-20.46c.39.99.79 1.99 1.06 3.03.75 3.77 1.98 7.46 2.26 11.31.14 4.75-2.82 8.72-5.71 12.19-1.18-.54-2.35-1.08-3.52-1.62.72-1.31 1.45-2.6 2.22-3.88 5.22-5.84 3.19-13.95 3.69-21.03zM49.63 73.12c3.42 1.43 6.08 4.03 8.51 6.75-.59 5.57-.76 11.57 2.72 16.32.3.52.89 1.58 1.19 2.1-5.4-3.1-11.59-5.86-15.18-11.14.48-.12 1.44-.35 1.92-.46 1.1-.27 2.21-.52 3.31-.78.15-2.85.63-6.2-2.36-7.82l-.21-.21c.24-.31.71-.92.94-1.23-.26-1.18-.54-2.36-.84-3.53zm25.51 2.15c.96-.55 1.92-1.11 2.89-1.66-.34 4.2-2.73 8.23-1.58 12.49.78-2.11 1.48-4.23 2.07-6.39-.01 3.31.01 6.76 1.76 9.7-4.66 2.87-8.67 7.05-14.07 8.55.74-1.25 1.47-2.5 2.19-3.76 2.42-3.78 2.47-8.33 1.98-12.64-.44-2.25 2.12-3.3 3.4-4.66.25-.41.73-1.22.97-1.62l.39-.01m1.06 2.81c-1.45.89-2.88 1.82-4.29 2.78.54 4.95-.28 9.83-1.96 14.49 3.61-3.54 2.89-8.81 3.25-13.37.92-1.36 2.02-2.59 3-3.9z" fill="#ad2829"/>
    <g fill="#611717">
        <path opacity=".86" d="M77.74 32.74c3.16 6.63 4.16 14.91-.53 21.1l2.91-.16c-1.56 1.86-6.13 3-4.69 5.95 1.77.73 3.11-1.08 4.58-1.75 1.02-1.68 1.68-3.54 1.86-5.51.06-.59.63-.93.92-1.39 0 1.77 1.56 2.72 2.93 3.38-2.41 1.53-4.43 3.56-6.24 5.76 1.37.16 2.69.47 3.98.93.44.26 1.31.8 1.75 1.06l-.35 1.15 1.45-.84-.54 1.83 1.25-.98.19 1.08c0 1.29.9 2.2 1.67 3.13-.98 1.28-1.97 2.56-2.95 3.84l.55.52-1.45.28.37 1.56-.91-.5c-.43.88-.85 1.76-1.27 2.64 1.33.96 2.64 1.93 3.96 2.89-3.01-1.35-6.09-2.83-8.1-5.59.33 3.62.11 7.25.19 10.87-.27 1.96 2.04 3.46 1.01 5.42-1.75-2.94-1.77-6.39-1.76-9.7-.59 2.16-1.29 4.28-2.07 6.39-1.15-4.26 1.24-8.29 1.58-12.49-.97.55-1.93 1.11-2.89 1.66l-.39.01c-.24.4-.72 1.21-.97 1.62-1.28 1.36-3.84 2.41-3.4 4.66.49 4.31.44 8.86-1.98 12.64 1.79-5 1.54-10.38 1.17-15.6-.39-.55-1.17-1.66-1.56-2.22-.91 2.29-1.75 4.6-2.84 6.81.15-3.83 2.33-7.04 4.49-10.03-2.22-5.33-3.28-11.16-2.32-16.91 1.01 4.48 1.63 9.04 2.63 13.53 3.89-3.14 3.96-8.89.73-12.53 1 .52 2.02 1.01 3.03 1.5.14-.62.42-1.88.56-2.51 2.89-3.47 5.85-7.44 5.71-12.19-.28-3.85-1.51-7.54-2.26-11.31m-3.63 27.28c1.7 4.58-1.03 8.7-3.71 12.19 3.9-.64 5.27-5.12 6.51-8.33.9-2.15-1.5-2.82-2.8-3.86m4.84.67c1.37 4.79.47 10.09 2.38 14.67 2.44-2.48 4.47-5.32 5.96-8.47-2.66-2.22-5.37-4.39-8.34-6.2M70.7 74.97c2.41-.88 4.86-1.67 7.32-2.39-.03-2.29-.08-4.58-.13-6.86-1.78 3.52-4.25 6.62-7.19 9.25z"/>
        <path opacity=".86" d="M83.4 66.22c1.4.94-.77 4.39-2.26 4.41-.52-1.66.79-3.67 2.26-4.41z"/>
    </g>
    <path fill="#b02829" d="M61.95 52.74c.11-2 .62-4.29 2.81-4.92.44 1.42.86 2.85 1.15 4.31.12.63.35 1.88.47 2.5 1.43.89 2.87 1.77 4.32 2.62 3.23 3.64 3.16 9.39-.73 12.53-1-4.49-1.62-9.05-2.63-13.53-.96 5.75.1 11.58 2.32 16.91-2.16 2.99-4.34 6.2-4.49 10.03l-.29 2.16c-2.34-4.17-3.9-8.75-6.77-12.6 2.51-4.43 2.69-9.57 3.03-14.52.36-1.81.62-3.65.81-5.49z"/>
    <path fill="#390d0d" opacity=".62" d="M49.46 50.41c1.88 2.65 3.92 5.17 6.2 7.49-3.86-1.22-6.9-3.95-10.27-6.05 1.3 2.88 2.71 5.84 5.1 8 1.48-.19 2.87-.78 4.27-1.25-1.28 1.18-2.67 2.26-3.81 3.59.02 3.93 2.74 7.04 4.99 9.98.5-.18 1.49-.56 1.99-.75l-.72-2.16-1.11.7c-1.62-2.89-2.59-6.1-2.12-9.46.18.14.55.42.73.57.14 3.3.69 6.78 3.79 8.61.57-3.37 1.03-6.75 1.91-10.05l.73-1.4c-.34 4.95-.52 10.09-3.03 14.52 2.87 3.85 4.43 8.43 6.77 12.6-.43.06-.87.1-1.3.13-1.24-2.98-2.11-6.12-3.57-9.02-2.19 2.3-1.43 5.64-1.68 8.51-.23 3.92 1.39 7.56 2.53 11.22-3.48-4.75-3.31-10.75-2.72-16.32-2.43-2.72-5.09-5.32-8.51-6.75.3 1.17.58 2.35.84 3.53-.23.31-.7.92-.94 1.23l-.69.88c-.17-1.82-.21-3.66-.63-5.44-.55-2.7-2.7-4.62-4.55-6.49.41-.55.81-1.09 1.24-1.62.83 1.96 1.69 3.91 2.55 5.85.9-3.65 1.56-7.35 1.97-11.09-3.06 2.01-5.97 4.23-8.83 6.52 1.11 2 2.22 4 3.35 5.98-1.06-.67-2.13-1.33-3.2-1.99-.36-1.03-.74-2.05-1.13-3.06l-.52.14-.92.24c1.15-1.01 2.31-2.01 3.47-3-1.74-1.11-3.44-2.3-4.97-3.69 1.48.94 2.96 1.84 4.45 2.76 2.21-1.52 4.45-3.01 6.76-4.38-.05-.27-.15-.83-.21-1.11-2.21-1.89-4.54-3.64-6.93-5.29 1.75.73 3.47 1.57 5.17 2.42-.31-1.3-.94-3.9-1.25-5.2.51.54 1.52 1.64 2.02 2.18 1.06-.51 2.12-1.07 2.78-2.08m.69 14.54c-.18 2.23-.57 4.46-.52 6.71 2.43 2.09 5.93 2.46 8.87 3.61-3.34-2.96-6.41-6.25-8.35-10.32m6.08 11.34c.53.48.53.48 0 0z"/>
    <path fill="#140505" opacity=".36" d="M68.4 53.45c1.54-.88 3.06-1.79 4.59-2.71-.77 1.28-1.5 2.57-2.22 3.88-.8-.38-1.59-.77-2.37-1.17z"/>
    <path fill="#0e0303" opacity=".38" d="M87.97 53.02c-.17-1.8.6-2.37 2.29-1.71-.54.87-1.3 1.44-2.29 1.71z"/>
    <path fill="#641617" opacity=".8" d="M65.91 52.13c.62.33 1.87.99 2.49 1.32.78.4 1.57.79 2.37 1.17 1.17.54 2.34 1.08 3.52 1.62-.14.63-.42 1.89-.56 2.51-1.01-.49-2.03-.98-3.03-1.5-1.45-.85-2.89-1.73-4.32-2.62-.12-.62-.35-1.87-.47-2.5z"/>
    <path fill="#b0292b" d="M10.72 63.12c2.22-3.78 5.65-6.67 8.28-10.16-.39 2.3-1.46 4.39-2.41 6.49-1.56 5.01 1.05 10.74 5.74 12.99 2.55.62 5.18.99 7.82 1.01 3.4-1.17 6.15-3.69 8.94-5.89l.52-.14c.39 1.01.77 2.03 1.13 3.06 1.07.66 2.14 1.32 3.2 1.99-1.13-1.98-2.24-3.98-3.35-5.98 2.86-2.29 5.77-4.51 8.83-6.52-.41 3.74-1.07 7.44-1.97 11.09-.86-1.94-1.72-3.89-2.55-5.85-.43.53-.83 1.07-1.24 1.62 1.85 1.87 4 3.79 4.55 6.49l-.51 1.05c-3.74 2.49-7.5 5.15-11.7 6.81-6.77.46-13.55-1.77-19.68-4.44-2.92-3.97-4.17-8.97-5.6-13.62z"/>
    <path fill="#7a1c1c" opacity=".87" d="M59.49 52.55c.62.05 1.84.14 2.46.19-.19 1.84-.45 3.68-.81 5.49l-.73 1.4c-.09-1.59-.13-3.2-.43-4.77l-.49-2.31z"/>
    <path fill="#a92728" opacity=".98" d="M81.87 52.37c-.18 1.97-.84 3.83-1.86 5.51-1.47.67-2.81 2.48-4.58 1.75-1.44-2.95 3.13-4.09 4.69-5.95l1.75-1.31z"/>
    <path fill="#b32b2c" d="M58.11 53.4c.47.37 1.4 1.1 1.87 1.46.3 1.57.34 3.18.43 4.77-.88 3.3-1.34 6.68-1.91 10.05-3.1-1.83-3.65-5.31-3.79-8.61 1-1.43 2.18-2.72 3.25-4.09l.22-.66.7-.04-.77-2.88z"/>
    <path fill="#b22b2b" d="M110.72 57.95c-.76-1.42-1.25-2.96-1.35-4.57 2.46 3.66 6.14 6.35 8.16 10.31-1.73 4.52-3.23 9.13-5.48 13.43-5.84 2.06-11.81 4.32-18.08 4.43-2.61.23-4.78-1.42-6.79-2.84-1.32-.96-2.63-1.93-3.96-2.89.42-.88.84-1.76 1.27-2.64l.91.5-.37-1.56 1.45-.28-.55-.52c.98-1.28 1.97-2.56 2.95-3.84.46.48 1.38 1.45 1.84 1.93.53.85 1.27 1.43 2.23 1.73 2.02.77 3.72 2.67 6 2.49 3.34-.29 7.38-.1 9.65-3.04 3.52-3.05 4.27-8.62 2.12-12.64z"/>
    <path fill="#1a0605" opacity=".41" d="M30.14 54.92l1.09 1.81-.92-.04-.56-.93.39-.84z"/>
    <path fill="#180605" opacity=".36" d="M95.93 57.97c.33-.94.9-1.71 1.7-2.3.7 1.74.14 2.5-1.7 2.3z"/>
    <path fill="#ae2828" d="M74.11 60.02c1.3 1.04 3.7 1.71 2.8 3.86-1.24 3.21-2.61 7.69-6.51 8.33 2.68-3.49 5.41-7.61 3.71-12.19z"/>
    <path fill="#b2292c" d="M78.95 60.69c2.97 1.81 5.68 3.98 8.34 6.2-1.49 3.15-3.52 5.99-5.96 8.47-1.91-4.58-1.01-9.88-2.38-14.67m4.45 5.53c-1.47.74-2.78 2.75-2.26 4.41 1.49-.02 3.66-3.47 2.26-4.41z"/>
    <path fill="#a72727" opacity=".98" d="M50.15 64.95c1.94 4.07 5.01 7.36 8.35 10.32-2.94-1.15-6.44-1.52-8.87-3.61-.05-2.25.34-4.48.52-6.71z"/>
    <path fill="#ac2728" d="M70.7 74.97c2.94-2.63 5.41-5.73 7.19-9.25.05 2.28.1 4.57.13 6.86-2.46.72-4.91 1.51-7.32 2.39z"/>
    <path fill="#0a0202" opacity=".3" d="M90.72 69.41c1.72-.66 2.47-.08 2.23 1.73-.96-.3-1.7-.88-2.23-1.73z"/>
    <path fill="#8f2223" opacity=".87" d="M56.23 76.29c.53.48.53.48 0 0z"/>
    <path fill="#5b1515" opacity=".8" d="M76.2 78.08c-.98 1.31-2.08 2.54-3 3.9-.36 4.56.36 9.83-3.25 13.37 1.68-4.66 2.5-9.54 1.96-14.49 1.41-.96 2.84-1.89 4.29-2.78z"/>
    <path fill="#922320" d="M48.79 86.69c.03-2.89-.28-5.9.95-8.6 2.99 1.62 2.51 4.97 2.36 7.82-1.1.26-2.21.51-3.31.78z"/>
</svg>
