<svg width="128pt" height="128pt" viewBox="0 0 128 128" xmlns="http://www.w3.org/2000/svg">
    <g fill="#fff">
        <path d="M31.73 23.71c3.81-4.47 7.82-8.8 12.49-12.4-2.95 5.25-6.49 10.15-9.41 15.42-1.25 3.11-2.32 6.29-3.41 9.46-.25 2.87.21 5.8.78 8.61 2.91 3.75 6.15 7.42 10.48 9.56 2.39 1.08 4.11 3.05 5.79 5-2.53 1.18-4.77 2.87-6.8 4.77-3.54-1.95-6.92-4.3-9.89-7.02-2.34-3.27-4.5-6.7-6.55-10.15.38-4.82-.54-10.1 2.07-14.45 1.46-2.94 2.73-5.99 4.45-8.8zm52.05-12.1c4.95 3.55 9.01 8.14 12.85 12.83 2.04 3.58 3.7 7.37 5.54 11.05.64 3.8.54 7.7.81 11.55-1.92 3.61-4.38 6.96-6.61 10.4-2.95 2.64-6.34 4.77-9.65 6.95-2.29-1.72-4.54-3.52-7.02-4.97 1.95-2.37 4.3-4.32 7.04-5.69 3.97-1.84 6.34-5.65 9.35-8.63.36-4.01 1.54-8.26-.52-12.02-2.26-7.98-7.62-14.45-11.79-21.47zM51.42 29.19c.34 5.82-.96 11.77.97 17.44 1.65 2.53 3.49 4.93 5.26 7.38l-3.51 2.16c-4.82-3.14-6.76-9.59-6.08-15.11.94-4 2.09-7.96 3.36-11.87zm25.21.29c1.73 5.68 4.36 11.49 3.31 17.55-.53 2.71-2.19 5-3.31 7.48-.98.69-1.95 1.37-2.92 2.07-1.08-.83-2.17-1.64-3.27-2.44 1.9-2.37 3.85-4.73 5.31-7.41 1.84-5.6.75-11.49.88-17.25z"/>
        <path d="M44.81 50.82c2.42 2.17 5 4.16 7.93 5.6 1.32.33.53 1.84.74 2.76l-2.28 1.36c-3.12-2.46-5.18-5.98-6.39-9.72zm29.59 6.3c3.38-1.43 6.29-3.69 8.92-6.21-.52 4.32-3.61 7.91-7.41 9.81-.52-1.2-1.03-2.4-1.51-3.6zm-63.67 6.16c2.26-3.89 5.91-6.68 8.26-10.52-.3 2.46-1.52 4.61-2.67 6.76-1.36 5.13 1.32 10.17 5.47 13.13 3 .27 6.02 1.05 9.03.79 3.24-1.75 6.49-3.63 8.86-6.53 1.93 3.05 3.84 6.13 6.27 8.81-3.88 1.43-6.84 4.73-10.98 5.52-6.36.19-12.22-2.54-18.28-4.02-2.85-4.24-4.25-9.18-5.96-13.94zm98.39-10.15c2.44 3.8 6.11 6.59 8.34 10.53-2.07 4.52-2.98 9.61-5.96 13.69-6.41 1.74-12.83 4.88-19.63 3.84-3.52-1.18-6.23-3.93-9.68-5.31 2.51-2.55 4.38-5.63 5.96-8.83 2.65 2.98 6.16 4.87 9.51 6.92 2.98-.51 6.06-.48 8.97-1.32 1.79-1.58 3.47-3.36 4.64-5.45.84-2.19.69-4.6.91-6.89-1.41-2.2-2.52-4.61-3.06-7.18z"/>
        <path d="M79.76 69.02c-.06-3.04-1.17-5.94-1.18-8.98 3.37 1.85 6.3 4.35 9.27 6.76-1.61 3.23-3.65 6.22-6.08 8.88-2.53-1.36-1.8-4.28-2.01-6.66m3.25-2.71c-.96 1.31-2.51 2.93-2.08 4.67 1.39-.06 1.82-1.95 2.54-2.9.58-.48.82-2.95-.46-1.77z"/>
    </g>
    <path fill="#fbfbfb" d="M43.32 63.93c2.03-1.55 4.17-2.94 6.43-4.14-.58 3.78-1.27 7.54-1.69 11.35-1.91-2.19-3.02-4.9-4.74-7.21z"/>
    <path fill="#fefefe" d="M42.63 64.48c2.84 1.83 2.67 6.01 5.86 7.28-.17 1.49-.94 2.71-1.97 3.75-2.53-2.6-4.48-5.68-6.43-8.72.63-.58 1.91-1.73 2.54-2.31z"/>
    <path fill="#bfbfbf" opacity=".75" d="M83.01 66.31c1.28-1.18 1.04 1.29.46 1.77-.72.95-1.15 2.84-2.54 2.9-.43-1.74 1.12-3.36 2.08-4.67z"/>
</svg>
