<svg width="128pt" height="128pt" viewBox="0 0 128 128" xmlns="http://www.w3.org/2000/svg">
    <path d="M51.19 38.78c3.68 1.17 7.26 3.34 9.54 6.48.32.32.94.96 1.26 1.29-.84-.04-2.52-.1-3.36-.13L61 48.14c-4.68 1.44-9.43 4.1-14.45 2.99 1.31-3.17 2.78-6.26 4.39-9.28.76.86 1.57 1.68 2.45 2.41-.87-1.77-2.47-3.32-2.2-5.48zm-35.82 36.4l1.08.24.03.32c-1.39.95-2.85 1.75-4.38 2.39l.2-2.08c.94-.6 1.96-.89 3.07-.87zm43.61.95l.54.35 1.25.81c2.24-.18 2.38 1.34 1.9 3.2l2.58.08c-3.09 1.73-5.92 4.07-9.37 5.03-.32-.63-.95-1.9-1.27-2.53 2.48 1.54 4.32-1.63 6.8-1.47-.62-.03-1.85-.1-2.46-.14l.28-1.64c.74-.08 2.23-.23 2.97-.31-2.21-.78-4.41.36-6.49 1.02-.05-2.11 2.62-2.58 3.27-4.4z" fill="#fdfdfd"/>
    <g fill="#fff">
        <path d="M11.62 41.78c2.65 1.45 5.1 3.23 7.52 5.03-.72-.01-2.17-.02-2.89-.03 1.4 1.87 3.02 3.54 4.74 5.11-.99.14-1.97.29-2.95.44-1.9-.29-3.33-1.62-4.72-2.81-.19-.62-.56-1.86-.75-2.48 1.3.72 2.57 1.5 3.79 2.34.16.11.47.35.62.46.13.1.38.28.51.38-.13-.1-.38-.28-.51-.38-.15-.11-.46-.35-.62-.46-1.55-1.29-3.11-2.57-4.54-4 1.44.16 2.87.35 4.29.58-1.71-1.14-3.81-1.99-4.49-4.18zm74.96 22.17c1.88-3.95 5.2-7.52 9.55-8.64 5.1.29 9.73 3.4 14.94 2.98 2.87-.17 7.23.13 7.1 4.01-4.41-1.88-8.59.67-12.12 3.12-.7.07-2.09.22-2.79.3l.96-1.85.66-1.24c-1.47-1.65-3.54-1.57-5.42-.76.56 1.5 1.33 2.91 2.87 3.59-3.63 2.26-6.94 4.99-9.74 8.22 2.71-.8 5.33-1.91 7.74-3.39-.68-.05-2.04-.14-2.73-.18 1.66-1.71 3.52-3.29 5.89-3.86-.89 1.27-1.81 2.51-2.75 3.73 1.39-.56 2.8-1.11 4.24-1.57 3.47-.69 6.88-2.02 9.42-4.56.28-.1.83-.29 1.1-.39.91 2.71-1.7 4.41-3.67 5.59-4.19 2.17-8.57 3.93-13.03 5.44-1.71.86-3.5-.05-5.23-.27.56.26 1.69.79 2.26 1.05-1.12 1.3-3.15.62-4.66.92-2.38-3.58-6.29-7.61-4.59-12.24zm-70.9-6.53l4.03.48c.34.29 1.02.88 1.36 1.17.8.03 2.41.09 3.21.13-.04.42-.11 1.27-.14 1.7-2.34.49-4.66 1.01-6.95 1.68 1.7.53 3.4 1.11 5.03 1.84-.97.49-2.91 1.47-3.89 1.96l.52-.61c.36-.32 1.09-.95 1.45-1.27-1.96-.26-3.68.77-5.44 1.44 1.11-2.03 1.77-4.24 2.73-6.33-.48-.54-1.44-1.64-1.91-2.19zm2.3 13.86c.3-.21.91-.63 1.22-.84-.31.21-.92.63-1.22.84z"/>
        <path d="M97.6 70.11c-.34.79-.34.79 0 0zm-83.13 4.83c-.3-2.05 1.44-3.91 3.51-3.66-.15.41-.47 1.22-.62 1.63l-.6.52-.53.15-1.76 1.36zm60.58 2.27c4.67-.74 9.2-2.59 13.95-2.57l.31 1.55-1.32 2.6c-1.28-2.45-3.98-1-5.42.46.67 2.74-3.26 5.76-5.7 4.74 1.06-1.03 2.17-2.01 3.18-3.09-1.59.28-4.91 3.43-5.03.3 1.98-1.2 4.13-2.06 6.19-3.1-2.42.51-4.74 1.38-7.06 2.22-1.24-1.73-.94-2.76.9-3.11z"/>
        <path d="M83.75 79.9c1.11-1.25 2.92-1.54 3.86.06-3.49.39-4.18 6.91-8.22 5.1 1.41-1.75 4.39-2.5 4.36-5.16zm-28.8 2.06c.43-.31 1.3-.92 1.73-1.22.27.25.82.77 1.09 1.02-.59.6-3.12 2.01-2.82.2z"/>
    </g>
    <path fill="#e5e5e5" opacity=".9" d="M16.25 46.78c.72.01 2.17.02 2.89.03 1.7.84 2.13 2.05.79 3.54.31.19.93.58 1.24.78 2.04 1.43 3.92 3.06 5.82 4.66-.61.28-1.84.84-2.46 1.12-.06.57-.19 1.71-.25 2.29-.8-.04-2.41-.1-3.21-.13-.34-.29-1.02-.88-1.36-1.17l-.26-.89-.09-.32c-1.18-.62-2.41-1.13-3.63-1.66l-.88-1.44c.96-.66 2.02-1.08 3.19-1.26.98-.15 1.96-.3 2.95-.44-1.72-1.57-3.34-3.24-4.74-5.11z"/>
    <path fill="#888" opacity=".53" d="M19.14 46.81c3.09 1.63 5.78 3.9 8.18 6.42-2.12-.45-4.18-1.18-6.15-2.1-.31-.2-.93-.59-1.24-.78 1.34-1.49.91-2.7-.79-3.54z"/>
    <path opacity=".08" d="M13.32 49.52c1.39 1.19 2.82 2.52 4.72 2.81-1.17.18-2.23.6-3.19 1.26-2.17.69-1.69-2.86-1.53-4.07zm7.85 1.61c1.97.92 4.03 1.65 6.15 2.1 1.18.23 2.38.28 3.57.39.34.4 1.01 1.21 1.34 1.61 1.78.27 3.58.25 5.36.2-.14-.5-.42-1.49-.57-1.99 1.26.79 2.58 1.49 3.95 2.08-3.52 2.39-7.91 1.42-11.89 1.82.35 2.03 1.2 3.9 2.14 5.72-.56.9-1.12 1.8-1.69 2.7l-.53-.28c-3.91-1.1-4.38-5.1-4.47-8.57.62-.28 1.85-.84 2.46-1.12-1.9-1.6-3.78-3.23-5.82-4.66zM19.2 70.44c.49-.15 1.49-.44 1.98-.59-.41 1.76-2.18 2.71-3.82 3.06.15-.41.47-1.22.62-1.63.3-.21.91-.63 1.22-.84zm-6.9 5.61c-1.18-1.23.22-2.75.47-4.11l-.46 2.33c.69.33 1.41.55 2.16.67l1.76-1.36.53-.15c.05.36.16 1.09.21 1.45l-.08.61-.44-.07-1.08-.24c-1.11-.02-2.13.27-3.07.87z" fill="#141414"/>
    <path opacity=".89" d="M30.89 53.62c1.43-.56 2.84-1.14 4.26-1.7 1.69 2.49-1.17 2.83-2.92 3.31-.33-.4-1-1.21-1.34-1.61zm4.66 12.97c.59-.03 1.77-.08 2.36-.11 4.3 1.94 8.61 3.91 13.07 5.45-1.28.77-2.11 1.81-2.48 3.13l-2.07-.64 2.41 1.04c-2.23.83-4.47 1.61-6.73 2.37-1.15-2.11-2.36-4.23-4.07-5.95-1.27-1.49-3.05-3.12-2.49-5.29m4.8 3.65c.52.54.52.54 0 0z" fill="#e2e2e2"/>
    <path fill="#555" opacity=".33" d="M35.15 51.92c.47.38 1.4 1.14 1.87 1.52.15.5.43 1.49.57 1.99-1.78.05-3.58.07-5.36-.2 1.75-.48 4.61-.82 2.92-3.31z"/>
    <path fill="#f8f8f8" opacity=".97" d="M15.73 55.03c1.22.53 2.45 1.04 3.63 1.66l.09.32c-1.31 1.17-4.71-.14-3.72-1.98z"/>
    <path fill="#686868" opacity=".41" d="M24.28 59.2c.06-.58.19-1.72.25-2.29.09 3.47.56 7.47 4.47 8.57L27.05 68l-.38-.05-2.62-.36 2.39-2.78c-.79-.62-1.58-1.25-2.35-1.89.01-.51.04-1.52.05-2.02.03-.43.1-1.28.14-1.7z"/>
    <path fill="#c6c6c6" opacity=".78" d="M17.19 62.58c2.29-.67 4.61-1.19 6.95-1.68-.01.5-.04 1.51-.05 2.02.77.64 1.56 1.27 2.35 1.89l-2.39 2.78 2.62.36c-2.57 2.91-6.91 4.21-8.73 7.59-.24-.16-.73-.5-.97-.66-.05-.36-.16-1.09-.21-1.45l.6-.52c1.64-.35 3.41-1.3 3.82-3.06.42-.46.42-.46 0 0-.49.15-1.49.44-1.98.59-.31.21-.92.63-1.22.84-2.07-.25-3.81 1.61-3.51 3.66-.75-.12-1.47-.34-2.16-.67l.46-2.33c.41-.54 1.23-1.63 1.63-2.17l-.91 1.96c2.77-.88 5.05-2.7 7.03-4.76-1.34.42-2.68.84-4.01 1.28.73-.8 2.2-2.41 2.94-3.21l-.6.73-.52.61c.98-.49 2.92-1.47 3.89-1.96-1.63-.73-3.33-1.31-5.03-1.84z"/>
    <path fill="#bdbdbd" opacity=".74" d="M102.33 65.46c.47-.4 1.42-1.2 1.89-1.59l-.96 1.85c.7-.08 2.09-.23 2.79-.3-1.5 1.1-2.9 2.35-4.28 3.59l3.21-.6c-1.44.46-2.85 1.01-4.24 1.57.94-1.22 1.86-2.46 2.75-3.73-2.37.57-4.23 2.15-5.89 3.86-.34.79-.34.79 0 0 .69.04 2.05.13 2.73.18-2.41 1.48-5.03 2.59-7.74 3.39 2.8-3.23 6.11-5.96 9.74-8.22z"/>
    <path fill="#f3f3f3" opacity=".95" d="M14.06 68.42c.74-2.54 2.54-3.67 5.39-3.38-.74.8-2.21 2.41-2.94 3.21 1.33-.44 2.67-.86 4.01-1.28-1.98 2.06-4.26 3.88-7.03 4.76l.91-1.96c1.24-.82 1.75-1.83-.34-1.35z"/>
    <path fill="#bababa" opacity=".73" d="M40.35 70.24c.52.54.52.54 0 0z"/>
    <path fill="#242424" opacity=".14" d="M58.19 74.21c3.71-.09 6.42 2.68 9.63 4.09-.63.99-1.36 2-2.57 2.27l-2.58-.08c.48-1.86.34-3.38-1.9-3.2l-1.25-.81c-.33-.57-1-1.7-1.33-2.27z"/>
</svg>
