<svg width="128pt" height="128pt" viewBox="0 0 128 128" xmlns="http://www.w3.org/2000/svg">
    <g fill="#fff">
        <path d="M58.47 43.46c1.05.66 2.15 1.28 2.85 2.34.84.79 1.52 1.85 2.65 2.26 4.02-.31 8.04-1.25 12.09-.7 6.98.86 13.6 3.7 19.6 7.29-4.86 2.32-8.86 6.29-10.73 11.4-.55.15-1.66.45-2.21.59.61-.04 1.82-.14 2.43-.19.8 2.72 1.77 5.42 3.39 7.77l-4.05.57c-1.13-1.24-2.25-2.48-3.39-3.72.84-1.31 1.68-2.62 2.5-3.94-1.67.97-3.32 1.95-4.99 2.93.92-1.62 1.85-3.24 2.76-4.85-1.53.91-3.04 1.85-4.55 2.79.12-.57.34-1.72.45-2.29.81-1 1.62-2 2.42-3-.7.29-2.11.88-2.81 1.17l-.08-2.58c-.41.05-1.25.15-1.66.19-.16-.56-.46-1.69-.62-2.26-.43.06-1.31.17-1.74.22-2.12 2.49-4.5 4.81-7.47 6.26 1.61-2.42 3.29-4.81 5.13-7.06-1.31.89-2.64 1.74-3.92 2.67l-.49-1.37c-.52-.22-1.55-.67-2.06-.9v-2.98c-1.3.89-2.58 1.78-3.87 2.67l-.56-2.88c-1.05.86-2.16 1.65-3.32 2.36-.31.09-.92.26-1.23.35-.08.48-.23 1.43-.31 1.91-1.18.88-2.35 1.75-3.52 2.63-.14-.62-.4-1.85-.53-2.46L47 63.02c-.05-.79-.16-2.37-.21-3.16-1.51 1.15-3.07 2.26-4.41 3.61.53 1.93 1.42 3.73 2.2 5.57-1.12-.77-2.27-1.52-3.42-2.25-.61-.22-1.83-.67-2.45-.89.36.09 1.07.25 1.43.34.38-1.8.8-3.59 1.23-5.38-1.11.83-2.23 1.64-3.36 2.45-.1-.64-.29-1.91-.38-2.55-1.19.9-2.37 1.8-3.56 2.7l-.36-3.51c-.34.31-1.03.94-1.38 1.25.33 1.01.66 2.01.99 3.02-.67-.02-2.03-.07-2.7-.09-1.49 2.48-4.11 3.84-6.31 5.58-.24-.37-.72-1.11-.95-1.48.37-.25 1.12-.75 1.5-1 .93-1.03 1.85-2.06 2.76-3.11-.59-.32-1.77-.97-2.36-1.3-.19-1.58-.37-3.17-.5-4.75.83-.77 1.67-1.53 2.51-2.29-1.41-1.37-2.83-2.73-4.11-4.22l-.5-.14c-1.58-.69-3.02-1.62-4.33-2.74 1.34-2.8 3.62-.19 4.2 1.65 3 .24 4.92 2.82 7.42 4.16 1.88 1.11 4.14.66 6.2.76-.9-1.1-1.91-2.08-2.87-3.11 2.16 1.62 4.74 3.36 7.59 2.56 6.88-1.22 13.28-4.36 20.13-5.79-.25-.49-.76-1.47-1.01-1.96-.27-.21-.79-.62-1.06-.83l-.32-.44c-.04-.55-.11-1.66-.14-2.22m23.7 19.74c-1.35.63-1.39 1.31-.13 2.04 1.35-.62 1.39-1.3.13-2.04m1.03 7.11c.11 3.35 3-1.54 0 0z"/>
        <path d="M49.27 63.25c3.34.27-1.65 2.91 0 0zm18.79 2.9c1.09-1.01 2.19-2.01 3.28-3.02 2.09 2.06 4.14 4.23 5.29 6.99-2.34-1.83-4.68-3.73-7.47-4.86 1.36 1.66 2.88 3.18 4.51 4.58.11.61.31 1.82.42 2.43.48-.26 1.43-.79 1.91-1.05-.1 1.71-.2 3.43-.29 5.15l1.79-2.5c.28.55.83 1.65 1.11 2.2-.98.32-2.94.97-3.92 1.3.82-3.65-2.63-5.74-4.71-8.13l.3-.02c-.74-1.03-1.48-2.05-2.22-3.07zm7.13-2.67c1.4.2 1.63.87.67 2.01-1.4-.2-1.63-.87-.67-2.01zm-24.04 1.88c1.39-.43 1.88.06 1.47 1.47-1.39.43-1.88-.07-1.47-1.47zm8.98 4.11c1.38.22 1.6.9.65 2.05-1.39-.23-1.61-.91-.65-2.05z"/>
        <path d="M77.2 69.48c1.4.18 1.65.85.74 2.02-1.4-.17-1.65-.85-.74-2.02zm-14.97 2c1.38.24 1.59.93.63 2.05-1.39-.24-1.6-.92-.63-2.05z"/>
    </g>
    <path opacity=".93" d="M56.22 58.22c1.16-.71 2.27-1.5 3.32-2.36l.56 2.88c1.29-.89 2.57-1.78 3.87-2.67v2.98l.08 1.59c.49-.17 1.48-.51 1.98-.69l.49 1.37c-1.63 1.57-3.24 3.17-4.74 4.87.04-.66.1-1.97.13-2.62l-2.96-.45c.02.71.05 2.12.07 2.83.39-.16 1.17-.48 1.57-.63 1.73 1.47 3.44 2.96 5.09 4.51-.5-1.49-.81-3.04-1.33-4.53 1.53 1.03 2.81 2.35 3.93 3.83-.51.4-1.54 1.2-2.05 1.6 2.46 1.06 3.77 3.39 5.18 5.52-.36-1.13-.8-2.25-1.39-3.28l-.51-.49c-.78-.52-2.39-2.39-.64-2.76 2.4.6 3.87 2.99 5.65 4.56-.28 1.7-.8 3.35-1.53 4.91-1.62-.18-3.23-.37-4.84-.53-2.1 1.4-4.49 2.24-6.89 2.98 1.01-.59 2.09-1.05 3.14-1.58l-.84-2.88c.47-1.75 1.22-3.4 2.07-4.99-2.23-1.76-4.43-3.57-6.6-5.42-.01.86-.04 2.57-.05 3.43l-1.69-1.01c1.56-3.34-.5-6.25-2.61-8.71.08-.48.23-1.43.31-1.91.31-.09.92-.26 1.23-.35m9.95 15.89c-.55 1.61-.01 2.18 1.63 1.7.55-1.61.01-2.17-1.63-1.7zm33.84-11.46l2.13-1.53c.57.41 1.71 1.22 2.29 1.63-.75.91-1.52 1.82-2.3 2.71-.72-.93-1.43-1.86-2.12-2.81m1.97.1l.03.65.64-.03-.03-.65-.64.03z" fill="#ececec"/>
    <path fill="#d6d6d6" opacity=".84" d="M63.97 59.05c.51.23 1.54.68 2.06.9-.5.18-1.49.52-1.98.69l-.08-1.59z"/>
    <path fill="#cdcdcd" opacity=".8" d="M66.52 61.32c1.28-.93 2.61-1.78 3.92-2.67-1.84 2.25-3.52 4.64-5.13 7.06 2.97-1.45 5.35-3.77 7.47-6.26.43-.05 1.31-.16 1.74-.22.16.57.46 1.7.62 2.26.41-.04 1.25-.14 1.66-.19l.08 2.58c.7-.29 2.11-.88 2.81-1.17-.8 1-1.61 2-2.42 3-.11.57-.33 1.72-.45 2.29 1.51-.94 3.02-1.88 4.55-2.79-.91 1.61-1.84 3.23-2.76 4.85 1.67-.98 3.32-1.96 4.99-2.93-.82 1.32-1.66 2.63-2.5 3.94 1.14 1.24 2.26 2.48 3.39 3.72-1.91.63-3.89 1.01-5.88 1.28-.28-.55-.83-1.65-1.11-2.2l-1.79 2.5c.09-1.72.19-3.44.29-5.15-.48.26-1.43.79-1.91 1.05-.11-.61-.31-1.82-.42-2.43-1.63-1.4-3.15-2.92-4.51-4.58 2.79 1.13 5.13 3.03 7.47 4.86-1.15-2.76-3.2-4.93-5.29-6.99-1.09 1.01-2.19 2.01-3.28 3.02.74 1.02 1.48 2.04 2.22 3.07l-.3.02c-.42-.03-1.28-.08-1.7-.11-1.12-1.48-2.4-2.8-3.93-3.83.52 1.49.83 3.04 1.33 4.53-1.65-1.55-3.36-3.04-5.09-4.51-.4.15-1.18.47-1.57.63-.02-.71-.05-2.12-.07-2.83l2.96.45c-.03.65-.09 1.96-.13 2.62 1.5-1.7 3.11-3.3 4.74-4.87m6.56.04c-.92 1.16-.68 1.84.72 2.04.91-1.16.67-1.84-.72-2.04m2.11 2.12c-.96 1.14-.73 1.81.67 2.01.96-1.14.73-1.81-.67-2.01m2.01 6c-.91 1.17-.66 1.85.74 2.02.91-1.17.66-1.84-.74-2.02m2.04 2.74c-1.65 2.91 3.33.27 0 0z"/>
    <path fill="#d4d4d4" opacity=".83" d="M32.33 61.2c.35-.31 1.04-.94 1.38-1.25l.36 3.51c1.19-.9 2.37-1.8 3.56-2.7.09.64.28 1.91.38 2.55 1.13-.81 2.25-1.62 3.36-2.45-.43 1.79-.85 3.58-1.23 5.38-.36-.09-1.07-.25-1.43-.34-1.78-.42-3.54-.98-5.31-1.46l-.08-.22c-.33-1.01-.66-2.01-.99-3.02z"/>
    <path fill="#d7d7d7" opacity=".84" d="M42.38 63.47c1.34-1.35 2.9-2.46 4.41-3.61.05.79.16 2.37.21 3.16l3.63-2.37c.13.61.39 1.84.53 2.46 1.17-.88 2.34-1.75 3.52-2.63 2.11 2.46 4.17 5.37 2.61 8.71l1.69 1.01c.01-.86.04-2.57.05-3.43 2.17 1.85 4.37 3.66 6.6 5.42-.85 1.59-1.6 3.24-2.07 4.99l-.18-.25c-.87-1.25-1.74-2.51-2.59-3.76-.45.23-1.36.7-1.81.93.02-.77.07-2.32.09-3.1-.43.21-1.3.64-1.73.85-.93-1.29-1.87-2.58-2.82-3.86-2.11 1.27-4.04.25-5.8-1.02.06.93.17 2.79.22 3.72-1.45-.55-2.91-1.09-4.36-1.65-.78-1.84-1.67-3.64-2.2-5.57m2.75-.95c-.94 1.16-.72 1.84.66 2.06.94-1.17.72-1.85-.66-2.06m4.14.73c-1.65 2.91 3.34.27 0 0m3.87-.69l-.16 2.47c.42 0 1.28.02 1.71.02.36 1.42 1.26 2.26 2.72 2.53-.54-2.36-2.15-3.99-4.27-5.02m-5.97 2.9c-.92 1.18-.69 1.84.71 2 .93-1.18.69-1.84-.71-2m3.98-.1c-.41 1.4.08 1.9 1.47 1.47.41-1.41-.08-1.9-1.47-1.47m8.98 4.11c-.96 1.14-.74 1.82.65 2.05.95-1.15.73-1.83-.65-2.05m2.1 2.01c-.97 1.13-.76 1.81.63 2.05.96-1.12.75-1.81-.63-2.05z"/>
    <path d="M73.08 61.36c1.39.2 1.63.88.72 2.04-1.4-.2-1.64-.88-.72-2.04zm-25.91 4.1c1.4.16 1.64.82.71 2-1.4-.16-1.63-.82-.71-2z" fill="#fcfcfc"/>
    <path fill="#fbfbfb" d="M45.13 62.52c1.38.21 1.6.89.66 2.06-1.38-.22-1.6-.9-.66-2.06z"/>
    <path fill="#f9f9f9" opacity=".98" d="M53.14 62.56c2.12 1.03 3.73 2.66 4.27 5.02-1.46-.27-2.36-1.11-2.72-2.53-.43 0-1.29-.02-1.71-.02l.16-2.47z"/>
    <path fill="#cacaca" opacity=".79" d="M82.17 63.2c1.26.74 1.22 1.42-.13 2.04-1.26-.73-1.22-1.41.13-2.04z"/>
    <path fill="#f3f3f3" opacity=".96" d="M48.72 66.97c1.76 1.27 3.69 2.29 5.8 1.02.95 1.28 1.89 2.57 2.82 3.86.43-.21 1.3-.64 1.73-.85-.02.78-.07 2.33-.09 3.1.45-.23 1.36-.7 1.81-.93.85 1.25 1.72 2.51 2.59 3.76-3.31-.68-6.13-2.64-9.32-3.63-1.84.3-3.52 1.19-5.29 1.73-.41.09-1.24.28-1.65.37 1.4-1.1 2.78-2.24 4.17-3.36-.8-.43-1.58-.87-2.35-1.35-.05-.93-.16-2.79-.22-3.72z"/>
    <path fill="#adadad" opacity=".68" d="M83.2 70.31c3-1.54.11 3.35 0 0z"/>
    <path fill="#f8f8f8" opacity=".97" d="M79.24 72.22c3.33.27-1.65 2.91 0 0z"/>
    <path fill="#cecece" opacity=".81" d="M66.17 74.11c1.64-.47 2.18.09 1.63 1.7-1.64.48-2.18-.09-1.63-1.7z"/>
</svg>
