<svg width="128pt" height="128pt" viewBox="0 0 128 128" xmlns="http://www.w3.org/2000/svg">
    <g fill="#ad2829">
        <path d="M51.66 38.76c4.68 1.74 8.43 5.12 11.71 8.79 3.77.72 7.75-.8 11.63-.3 7.35.69 14.63 3.41 20.67 7.64-2.96 1.04-5.47 2.99-7.51 5.34-1.35-.92-2.69-1.84-4.04-2.77-.7.38-1.41.77-2.11 1.16-.71-.56-1.43-1.12-2.14-1.68-.84.63-1.68 1.26-2.53 1.89-.13-.52-.4-1.55-.54-2.07-.39-.12-1.19-.36-1.59-.48-.21-.5-.62-1.51-.83-2.01-3.24 1.66-5.35 4.79-8.52 6.54.07-.63.2-1.89.27-2.52-1.34.91-2.68 1.85-4.01 2.78-.03-.68-.11-2.04-.14-2.72-.87.04-1.74.09-2.61.14-.13.67-.39 2.01-.51 2.69-.96-.81-1.91-1.62-2.87-2.43l-1.44 2.2c-1.02-.64-2.04-1.28-3.06-1.91-1.43 1.4-2.85 2.8-4.28 4.21-.13-.86-.4-2.56-.53-3.42-1.95.96-3.4 2.59-4.76 4.25 1.32 1.16 1.99 2.73 2.45 4.38-1.77-1.25-3.69-2.26-5.66-3.15 1.02-1.55 2.04-3.09 3.05-4.64-1.48 1.55-2.5 3.85-4.59 4.62-2.84-.58-3.13-3.89-3.85-6.15-1.48 1.85.4 5.14-2.91 5.46-2.59 2.95-5.69 5.58-9.2 7.33l-2.01.09c1.03-.93 2.04-1.88 3.08-2.8 1.76-1.34 3.55-2.65 5.2-4.13l-.31-.97c-.83-1.35-1.76-2.64-2.52-4.03.45-1.77 1.73-3.14 2.82-4.55l.39-.19c-.96-.86-1.92-1.72-2.92-2.54-.87-.56-1.77-1.07-2.68-1.57l-1.87-1.09c.36-.32 1.08-.96 1.45-1.27l.73.11c3.03 2.22 5.83 4.82 9.29 6.38l-.61-1.79c1.1-.34 2.12-.85 3.05-1.53 1.55.89 2.91 2.18 4.62 2.76 2.7-.1 5.33-.77 7.91-1.52 4.7-1.44 9.35-3.05 14.13-4.21-.47-1.09-.93-2.18-1.39-3.27.1.65.3 1.94.41 2.59-4.34 1.12-8.57 3.33-13.18 2.62.69-1.73 1.37-3.47 2.11-5.18 1.08-2.29 2.21-4.58 2.75-7.08z"/>
        <path d="M52.82 62.61c2.18.84 3.95 2.43 4.54 4.76.41-.06 1.25-.18 1.66-.25-.03.78-.11 2.35-.14 3.13-2.05-2.5-5.22-4.36-6.06-7.64zm5.15.91c1.41.32 3.53 2.25 2.93 3.84-1.66.25-3.67-2.28-2.93-3.84zm-7.23 1.06c2.5 1.96 4.69 4.27 6.63 6.77.35.07 1.05.2 1.4.27.09.49.28 1.48.37 1.97h1.83l.44 2.53c-3.35-1.33-7.64-5.11-10.78-1.38.16-1.22.31-2.44.45-3.66-.62-.18-1.84-.53-2.45-.71l.36-3.32c1.42.89 2.83 1.79 4.25 2.68-.85-1.71-1.7-3.42-2.5-5.15m2.5 5.61c-.09 3.34 3.09-1.32 0 0z"/>
    </g>
    <path opacity=".91" d="M11.51 41.64c2.86 1.73 5.61 3.65 8.49 5.36.08.71.23 2.12.3 2.83-1.34-1.19-2.71-2.34-4.11-3.47 1.38 1.66 2.89 3.28 4.84 4.27l1.23.61c.91.5 1.81 1.01 2.68 1.57-1.68 1.21-3.39 2.39-5.06 3.6-1.62-1.95-4.28.92-1.08.99l-.46.46c-.19.23-.58.68-.78.91l-.68.82c-.65-1.87-1.28-3.75-1.84-5.64.72-.01 2.16-.04 2.88-.05-.38-1.52-2.63-2.13-3.35-.53-1.02-3.08-1.9-6.21-2.7-9.35l1.9 1.1-2.26-3.48zm72.26 26.99c.22-.64.45-1.29.69-1.93 1.17 2.41 2.29 4.84 3.7 7.12-.93-.6-1.87-1.19-2.81-1.78-.69.67-1.38 1.33-2.07 2 .55-1.24 1.1-2.47 1.66-3.7-.3-.43-.88-1.28-1.17-1.71z" fill="#9e2428"/>
    <path opacity=".49" d="M46.83 53.29c-.6-2.76-.09-5.52 2.08-7.45-.74 1.71-1.42 3.45-2.11 5.18 4.61.71 8.84-1.5 13.18-2.62-.11-.65-.31-1.94-.41-2.59.46 1.09.92 2.18 1.39 3.27-4.78 1.16-9.43 2.77-14.13 4.21zm-30.64-6.93c1.4 1.13 2.77 2.28 4.11 3.47-.07-.71-.22-2.12-.3-2.83.51.33 1.53 1.01 2.04 1.34l-.2.54c-.37.31-1.09.95-1.45 1.27l1.87 1.09-1.23-.61c-1.95-.99-3.46-2.61-4.84-4.27zm71.97 13.87c2.04-2.35 4.55-4.3 7.51-5.34 4.6-.33 8.71 2.61 13.28 2.75 2.93.05 5.88.13 8.71.98 0 .66.01 1.97.01 2.63-.21-.56-.61-1.66-.82-2.21-4.67-.49-9.47-.36-13.95-1.95-2.8-.64-5.85-2.33-8.66-.94-3.36 1.66-5.93 4.7-7.58 8.01-1.16 3.13 1.02 6.08 2.13 8.87l.22 1.34-.85-.55c-1.41-2.28-2.53-4.71-3.7-7.12l.22-.56c.84-2.14 2.03-4.12 3.48-5.91zm-54.84-1.09c.72 2.26 1.01 5.57 3.85 6.15 2.09-.77 3.11-3.07 4.59-4.62-1.01 1.55-2.03 3.09-3.05 4.64 1.97.89 3.89 1.9 5.66 3.15.11.08.35.24.46.32l.76.38c.99.45 2.01.85 3.04 1.21.61.18 1.83.53 2.45.71-.14 1.22-.29 2.44-.45 3.66 3.14-3.73 7.43.05 10.78 1.38 1.27.64 2.39 1.55 3.06 2.84l-.44.64c-3.29.29-7.84.02-9.54 3.48 1.64-.37 3.28-.78 4.92-1.15-1.53.76-3.1 1.43-4.69 2.03l-.51.2c-.24-3.41 1.97-6 4.03-8.41-1.43-.66-2.81-1.48-4.35-1.85-3.98 1.15-7.65 3.17-11.52 4.63-.45-.73-.89-1.47-1.33-2.21l3.45.84c-.7-3.09 3.12-3.37 5.06-4.49-.05-.2-.15-.6-.2-.79-4.26-1.64-8.41-5.07-13.13-4.62-.51 2.33 1.96 4.03 2.92 5.95-2.69-1.59-4.95-4.47-3.76-7.75-1.64-.38-3.3-.65-4.97-.86 3.31-.32 1.43-3.61 2.91-5.46m14.81 14.97c.06.31.2.95.27 1.27l.93-.38.17-.94c-.34.01-1.03.03-1.37.05m8.16 5.69c1.82.09 3.79-.65 5.47-1.35-.99-1.58-5.2-.71-5.47 1.35zM18.38 68.7c.62.65 1.25 1.3 1.88 1.94.51-.36 1.52-1.07 2.02-1.42-1.04.92-2.05 1.87-3.08 2.8-1.39.87-2.77 1.74-4.17 2.6.93-.72 2.79-2.15 3.72-2.87-.92-.31-1.86-.57-2.8-.77l3.81.04-1.38-2.32z" fill="#1b0507"/>
    <path fill="#be2b30" d="M14.57 53.37c.72-1.6 2.97-.99 3.35.53-.72.01-2.16.04-2.88.05l-.47-.58z"/>
    <path fill="#7c1c1f" opacity=".83" d="M19.88 56.41c1.67-1.21 3.38-2.39 5.06-3.6 1 .82 1.96 1.68 2.92 2.54l-.39.19c-1.26.54-2.53 1.04-3.81 1.55l.2 2.12c-1.83-.5-3.67-.92-5.52-1.35l.46-.46c.27-.25.81-.74 1.08-.99z"/>
    <path fill="#882021" opacity=".9" d="M65.86 60.81c3.17-1.75 5.28-4.88 8.52-6.54.21.5.62 1.51.83 2.01.4.12 1.2.36 1.59.48.14.52.41 1.55.54 2.07.85-.63 1.69-1.26 2.53-1.89.71.56 1.43 1.12 2.14 1.68.7-.39 1.41-.78 2.11-1.16 1.35.93 2.69 1.85 4.04 2.77-1.45 1.79-2.64 3.77-3.48 5.91-.7-1.07-1.4-2.15-2.1-3.22-1.83 1.6-3.64 3.22-5.43 4.87-.04-.52-.11-1.56-.15-2.07-1.9-.79-3.69-1.82-5.38-2.99 1.03 1.69 2.03 3.41 3.02 5.14-1.67-.79-3.34-1.58-5-2.39.65.61 1.93 1.83 2.57 2.43-1.39 1.7-2.81 3.38-4.26 5.02.34.23 1.01.68 1.34.9 1.51-1.87 3.13-3.66 4.98-5.2-.15 1.74-.9 3.22-2.43 4.14 1.44 1.53 2.89 3.07 4.35 4.59-.76.31-1.51.65-2.25 1.01-.42.2-1.26.6-1.68.79-1.51-.19-3.02-.37-4.53-.51l-.24-2.19-1.07-.04-3.01-.32c.39-1.5 1.35-2.7 2.33-3.84-.49-.24-1.49-.72-1.98-.97.62-1.31 1.38-2.55 2.1-3.8-1.3.89-2.6 1.79-3.89 2.69.21-2.22.21-4.45-.21-6.65 1.31-.99 2.69-1.88 4.1-2.72m8.29.78c-.43 1.34 1.68 2.59 2.77 1.81 1.35-1.68-1.62-3.03-2.77-1.81m-8.96 1.53c-1.38.64-1.45 1.32-.2 2.02 1.37-.64 1.44-1.31.2-2.02m3.32.9c-1.12.47-1.86 1.27-2.23 2.4.89 2.29 5.35-2.94 2.23-2.4m-.21 4.11c.04 3.33 3.04-1.44 0 0m-2 2c.12 3.32 3.01-1.51 0 0z"/>
    <path fill="#be2e2f" opacity=".96" d="M18.8 57.4c-3.2-.07-.54-2.94 1.08-.99-.27.25-.81.74-1.08.99z"/>
    <path fill="#501212" opacity=".71" d="M23.66 57.09c1.28-.51 2.55-1.01 3.81-1.55-1.09 1.41-2.37 2.78-2.82 4.55.76 1.39 1.69 2.68 2.52 4.03l.31.97c-1.11-.45-2.21-.91-3.32-1.36L24 61.12c-.03-.48-.11-1.43-.14-1.91l-.2-2.12z"/>
    <path d="M94.24 56.15c2.81-1.39 5.86.3 8.66.94 4.48 1.59 9.28 1.46 13.95 1.95.21.55.61 1.65.82 2.21l.43 1.17c-.47-.19-1.42-.57-1.9-.75-.39-.15-1.18-.45-1.58-.6-4.2-.35-7.24 2.76-10.46 4.88.23-1.04.67-3.13.9-4.17-2.04-.32-4.11-.44-6.14-.07.82 1.66 2.02 3.03 3.77 3.72-.48.34-1.44 1-1.92 1.33-2.78 1.96-4.68 4.86-6.59 7.62.49.44 1.45 1.34 1.94 1.78-2.96.46-6.1-.08-7.33-3.13-1.11-2.79-3.29-5.74-2.13-8.87 1.65-3.31 4.22-6.35 7.58-8.01zM66.42 76.42l1.07.04.24 2.19c-2.68 2.18-5.61 4.03-8.66 5.65-1.21.27-2.43.53-3.64.8l-.71-1.14c1.59-.6 3.16-1.27 4.69-2.03-1.64.37-3.28.78-4.92 1.15 1.7-3.46 6.25-3.19 9.54-3.48l.44-.64c.62-.87 1.27-1.71 1.95-2.54m-6.21 4.88c.57.47.57.47 0 0z" fill="#ce3031"/>
    <path fill="#a02624" opacity=".89" d="M17.56 58.77c.2-.23.59-.68.78-.91 1.85.43 3.69.85 5.52 1.35.03.48.11 1.43.14 1.91-2.12.54-4.28.85-6.44 1.15 1.27.53 2.55 1.07 3.82 1.6l-2.77.16c.39.37 1.15 1.11 1.54 1.49-1.18.76-2.36 1.53-3.54 2.3 2.24-.35 4.48-.67 6.73-.94-.27.58-.79 1.75-1.06 2.34-.5.35-1.51 1.06-2.02 1.42-.63-.64-1.26-1.29-1.88-1.94l1.38 2.32-3.81-.04c-.21.19-.63.58-.84.77-.48.55-.48.55 0 0 .21-.19.63-.58.84-.77.94.2 1.88.46 2.8.77-.93.72-2.79 2.15-3.72 2.87 1.4-.86 2.78-1.73 4.17-2.6l2.01-.09c-2.79 2.56-6.09 4.46-9.22 6.57.38-6.94 3.26-13.29 5.57-19.73z"/>
    <path opacity=".8" d="M59.37 58.49c.87-.05 1.74-.1 2.61-.14.03.68.11 2.04.14 2.72 1.33-.93 2.67-1.87 4.01-2.78-.07.63-.2 1.89-.27 2.52-1.41.84-2.79 1.73-4.1 2.72.42 2.2.42 4.43.21 6.65 1.29-.9 2.59-1.8 3.89-2.69-.72 1.25-1.48 2.49-2.1 3.8.49.25 1.49.73 1.98.97-.98 1.14-1.94 2.34-2.33 3.84l3.01.32c-.68.83-1.33 1.67-1.95 2.54-.67-1.29-1.79-2.2-3.06-2.84l-.44-2.53h-1.83c-.09-.49-.28-1.48-.37-1.97-.35-.07-1.05-.2-1.4-.27-1.94-2.5-4.13-4.81-6.63-6.77.8 1.73 1.65 3.44 2.5 5.15-1.42-.89-2.83-1.79-4.25-2.68l-.36 3.32c-1.03-.36-2.05-.76-3.04-1.21 1.99-1.37-1.6-2.78-.76-.38-.11-.08-.35-.24-.46-.32-.46-1.65-1.13-3.22-2.45-4.38 1.36-1.66 2.81-3.29 4.76-4.25.13.86.4 2.56.53 3.42 1.43-1.41 2.85-2.81 4.28-4.21 1.02.63 2.04 1.27 3.06 1.91l1.44-2.2c.96.81 1.91 1.62 2.87 2.43.12-.68.38-2.02.51-2.69m.91 2.06c-.99.6-.91 3.06.53 2.84.98-.6.9-3.07-.53-2.84m-9.04.67c-.44 1.43.04 1.9 1.42 1.39.44-1.43-.04-1.9-1.42-1.39m4.6.04c-1.51 3 3.35.1 0 0m-10.63 1.28c-.92.64-.9 3.14.54 2.92.91-.65.9-3.15-.54-2.92m4.27.89c-1.51 2.97 3.36.17 0 0m3.34-.82c.84 3.28 4.01 5.14 6.06 7.64.03-.78.11-2.35.14-3.13-.41.07-1.25.19-1.66.25-.59-2.33-2.36-3.92-4.54-4.76m5.15.91c-.74 1.56 1.27 4.09 2.93 3.84.6-1.59-1.52-3.52-2.93-3.84m-10.72 1.91c-.91 1.2-.69 1.91.66 2.12.91-1.21.69-1.91-.66-2.12m12.86 4.06c-.91 1.19-.68 1.88.69 2.07.91-1.18.68-1.87-.69-2.07m2.09 2.06c-.93 1.19-.71 1.87.67 2.05.93-1.18.7-1.87-.67-2.05zm-44.64-9.28c2.16-.3 4.32-.61 6.44-1.15l.16 2.61c1.11.45 2.21.91 3.32 1.36-1.65 1.48-3.44 2.79-5.2 4.13.27-.59.79-1.76 1.06-2.34-2.25.27-4.49.59-6.73.94 1.18-.77 2.36-1.54 3.54-2.3-.39-.38-1.15-1.12-1.54-1.49l2.77-.16c-1.27-.53-2.55-1.07-3.82-1.6z" fill="#781b1e"/>
    <path fill="#a02526" opacity=".96" d="M60.28 60.55c1.43-.23 1.51 2.24.53 2.84-1.44.22-1.52-2.24-.53-2.84z"/>
    <path fill="#ac2829" d="M51.24 61.22c1.38-.51 1.86-.04 1.42 1.39-1.38.51-1.86.04-1.42-1.39z"/>
    <path d="M55.84 61.26c3.35.1-1.51 3 0 0zm-6.36 2.17c3.36.17-1.51 2.97 0 0zm10.63 6.06c1.37.2 1.6.89.69 2.07-1.37-.19-1.6-.88-.69-2.07z" fill="#ad2829"/>
    <path opacity=".66" d="M74.15 61.59c1.15-1.22 4.12.13 2.77 1.81-1.09.78-3.2-.47-2.77-1.81zm24.77.12c2.03-.37 4.1-.25 6.14.07-.23 1.04-.67 3.13-.9 4.17 3.22-2.12 6.26-5.23 10.46-4.88.4.15 1.19.45 1.58.6-4.62.32-8.55 2.82-12.05 5.65l-.54-.09c-.71-.12-2.13-.35-2.84-.47.48-.33 1.44-.99 1.92-1.33-1.75-.69-2.95-2.06-3.77-3.72z" fill="#390d0e"/>
    <path fill="#a12526" opacity=".96" d="M45.21 62.54c1.44-.23 1.45 2.27.54 2.92-1.44.22-1.46-2.28-.54-2.92z"/>
    <path fill="#671917" opacity=".81" d="M65.19 63.12c1.24.71 1.17 1.38-.2 2.02-1.25-.7-1.18-1.38.2-2.02z"/>
    <path fill="#771b1e" opacity=".87" d="M71.62 62.73c1.69 1.17 3.48 2.2 5.38 2.99.04.51.11 1.55.15 2.07 1.79-1.65 3.6-3.27 5.43-4.87.7 1.07 1.4 2.15 2.1 3.22l-.22.56c-.24.64-.47 1.29-.69 1.93.29.43.87 1.28 1.17 1.71-.56 1.23-1.11 2.46-1.66 3.7.69-.67 1.38-1.33 2.07-2 .94.59 1.88 1.18 2.81 1.78l.85.55.49.32c-4.5.53-8.95 1.46-13.31 2.67-1.46-1.52-2.91-3.06-4.35-4.59 1.53-.92 2.28-2.4 2.43-4.14-1.85 1.54-3.47 3.33-4.98 5.2-.33-.22-1-.67-1.34-.9 1.45-1.64 2.87-3.32 4.26-5.02-.64-.6-1.92-1.82-2.57-2.43 1.66.81 3.33 1.6 5 2.39-.99-1.73-1.99-3.45-3.02-5.14m7.61 4.62c-.06.72-.17 2.14-.22 2.85 1.4-1.37 2.77-2.78 4.09-4.23-1.29.45-2.58.92-3.87 1.38m1.98 2.84c-.47 1.42-.01 1.88 1.4 1.38.47-1.42 0-1.88-1.4-1.38z"/>
    <path fill="#641716" opacity=".8" d="M68.51 64.02c3.12-.54-1.34 4.69-2.23 2.4.37-1.13 1.11-1.93 2.23-2.4z"/>
    <path d="M101.41 69.28c5.08-1.17 10.32-2.27 14.13-6.13.38 2.08-.46 4.24-2.55 4.97-1.77.7-3.45 1.59-5.04 2.63l-.81.31c-1.43.4-2.82.97-4.1 1.73-2.68 1.55-5.78 2.48-8.86 1.59 1.91-2.76 3.81-5.66 6.59-7.62.71.12 2.13.35 2.84.47-.55.51-1.65 1.54-2.2 2.05zm-86.3 2.47c.21-.19.63-.58.84-.77-.21.19-.63.58-.84.77z" fill="#d63031"/>
    <path fill="#ab2829" d="M47.25 65.43c1.35.21 1.57.91.66 2.12-1.35-.21-1.57-.92-.66-2.12z"/>
    <path fill="#892023" opacity=".91" d="M79.23 67.35c1.29-.46 2.58-.93 3.87-1.38-1.32 1.45-2.69 2.86-4.09 4.23.05-.71.16-2.13.22-2.85z"/>
    <path fill="#8d2023" opacity=".91" d="M36.22 67.26c4.72-.45 8.87 2.98 13.13 4.62.05.19.15.59.2.79-1.94 1.12-5.76 1.4-5.06 4.49l-3.45-.84c-.6-1.05-1.21-2.11-1.9-3.11-.96-1.92-3.43-3.62-2.92-5.95m3.96 2.81c.06 3.29 3.05-1.46 0 0m.98 2.21c.52.49.52.49 0 0z"/>
    <path fill="#aa2829" d="M44.83 68.78c-.84-2.4 2.75-.99.76.38l-.76-.38z"/>
    <path fill="#471111" opacity=".72" d="M68.3 68.13c3.04-1.44.04 3.33 0 0z"/>
    <path fill="#330c0c" opacity=".47" d="M107.95 70.75c1.59-1.04 3.27-1.93 5.04-2.63.42 2.17-3.38 4-5.04 2.63z"/>
    <path fill="#641715" opacity=".76" d="M40.18 70.07c3.05-1.46.06 3.29 0 0z"/>
    <path fill="#681916" opacity=".82" d="M53.24 70.19c3.09-1.32-.09 3.34 0 0z"/>
    <path fill="#4b1212" opacity=".76" d="M66.3 70.13c3.01-1.51.12 3.32 0 0z"/>
    <path fill="#9f2627" opacity=".97" d="M81.21 70.19c1.4-.5 1.87-.04 1.4 1.38-1.41.5-1.87.04-1.4-1.38z"/>
    <path fill="#aa2728" d="M62.2 71.55c1.37.18 1.6.87.67 2.05-1.38-.18-1.6-.86-.67-2.05z"/>
    <path fill="#350c0c" opacity=".46" d="M103.04 72.79c1.28-.76 2.67-1.33 4.1-1.73.48 1.93-2.89 3.12-4.1 1.73z"/>
    <path fill="#4b1013" opacity=".71" d="M15.11 71.75c-.48.55-.48.55 0 0z"/>
    <path fill="#4c1113" opacity=".72" d="M41.16 72.28c.52.49.52.49 0 0z"/>
    <path fill="#c63031" d="M48.13 74.11c.34-.02 1.03-.04 1.37-.05l-.17.94-.93.38c-.07-.32-.21-.96-.27-1.27z"/>
    <path fill="#a02426" opacity=".88" d="M76.19 77.36c4.36-1.21 8.81-2.14 13.31-2.67-.22 1.31-.61 2.56-1.19 3.76-.59-.32-1.78-.96-2.37-1.28-1.39.78-2.78 1.54-4.12 2.39l-.4 1.6c-.05.52-.17 1.55-.22 2.07-1.35.95-2.91 1.31-4.53.94.54-.61 1.61-1.83 2.15-2.44-1.15.13-3.44.38-4.58.5.68-.61 2.05-1.83 2.73-2.44-.86.13-2.59.4-3.46.53l.43-1.95c.74-.36 1.49-.7 2.25-1.01z"/>
    <path fill="#6e1919" opacity=".74" d="M81.82 79.56c1.34-.85 2.73-1.61 4.12-2.39.59.32 1.78.96 2.37 1.28-1.44 1.47-2.8 3.03-4.29 4.45.31-.47.92-1.4 1.23-1.86-1.01-.35-2.03-.7-3.04-1.05l-.27.44-.52.73.4-1.6z"/>
    <path fill="#ce3030" opacity=".98" d="M56.29 79.8c.27-2.06 4.48-2.93 5.47-1.35-1.68.7-3.65 1.44-5.47 1.35z"/>
    <path fill="#b72a2b" opacity=".95" d="M82.21 79.99c1.01.35 2.03.7 3.04 1.05-.31.46-.92 1.39-1.23 1.86-.87 1.19-3.35 4.25-4.27 1.54l1.45-1.21c1.46-.17 2.2-1.99.74-2.8l.27-.44z"/>
    <path fill="#5e1617" opacity=".72" d="M60.21 81.3c.57.47.57.47 0 0z"/>
    <path fill="#1e0607" opacity=".36" d="M55.43 85.1c1.21-.27 2.43-.53 3.64-.8.85 1.99-3.85 3.04-3.64.8z"/>
</svg>
