<svg width="128pt" height="128pt" viewBox="0 0 128 128" xmlns="http://www.w3.org/2000/svg">
    <path fill="#731c18" d="M62.72 12.74c.37-.06 1.12-.19 1.5-.25-.01 1.51-.02 3.02-.01 4.52 1.39 1.52 2.97 2.92 4.04 4.7 1.38 3.89-3.41 6.54-2.9 10.38.14 2.7 1.33 5.37 3.23 7.29 2.5 1.69 5.68 2.03 8.13 3.84 1.7.85 3.1 2.84 5.18 2.5 2.53-1.4 2.88-4.41 3.27-6.98 1.5.48 1.81 1.86 1.61 3.28.21 2.82-1.77 5.01-3.37 7.09 2.35 3.18 3.93 6.84 4.66 10.73 2.97-.03 6.03-.59 8.94.18 2.8 1.15 5.1 3.23 7.87 4.45 3.51-1.35 8.18-3.8 11.32-.35-1.87.38-4.29-.41-5.75 1.19-1.89 1.38-3.6 3.88-6.26 3.39-2.83-.73-5.09-3.39-8.18-3.1-3.79.28-7.73 2.47-8.88 6.29-1.19 3.54-3.24 6.69-5.67 9.5 1.66 2.81 4.46 4.31 7.68 4.54-3.05 3.84-7.61-.37-10.9-1.67-3.41 1.73-6.84 3.45-10.61 4.27.48 2.77 1.22 5.68.33 8.46-.87 2.93-3.58 4.94-4.26 7.93.86 3.79 3.66 8.26.1 11.59l-.2-4.43c-1.06-2.58-4.37-4.01-4.41-7.06.2-3.22 3.51-5.52 3.19-8.86-.39-3.78-2.41-8.03-6.47-8.9-3.45-1.09-6.5-3.08-9.18-5.48-3 1.42-4.18 4.49-4.56 7.6-3.4-2.99-.4-7.58 1.74-10.37-1.9-3.44-3.49-7.06-4.41-10.9-2.84.23-5.74.76-8.58.15-2.6-.83-4.45-3.06-6.98-4.03-1.57-.18-3.08.38-4.63.54-.8.06-2.39.19-3.19.25.65-.83 1.31-1.66 1.98-2.48 1.2-1.54 2.76-3.25 4.9-3.12 3.2.34 5.55 3.49 8.92 3.14 3.5-.26 7.28-2.13 8.44-5.67 1.32-3.5 3.03-6.89 5.64-9.61-.74-3.28-3.87-4.49-6.78-5.21l-.9-1.31c4.02-.83 7.57.94 10.81 3.07 3.58-1.21 6.82-3.45 10.68-3.87-.15-2.97-.8-6.01-.06-8.95.8-2.29 2.64-3.98 3.78-6.09.91-2.14-.44-4.26-.96-6.32-.82-1.89-.12-3.93.16-5.86M47.24 49.99c-2.19 2.53-3.58 5.66-4.57 8.83-2.16 7.8.47 16.67 6.79 21.78 7.73 6.58 19.72 6.96 27.8.79 2.8-2.51 5.44-5.4 6.73-9 2.07-5.16 2.15-11.06.08-16.23-3.75-10.04-15.53-15.95-25.85-13.18-4.4.81-8.31 3.46-10.98 7.01z"/>
    <path fill="#260808" opacity=".49" d="M47.24 49.99c2.67-3.55 6.58-6.2 10.98-7.01-.74.56-1.48 1.13-2.21 1.71-.16.29-.48.88-.64 1.17-5.04.25-7.84 8.92-3.2 11.38-.45-2.67-1.48-5.62.34-8.03l-.39 5.21c1.81-.56 3.61-1.15 5.4-1.77.43-1.07.86-2.14 1.35-3.18.87-.24 2.61-.73 3.48-.97-.99 1.88-2.73 3.11-4.11 4.67 3.49 1.92 9.9 3.04 11.07-2.13.76.88 1.53 1.76 2.35 2.6-2.52.86-4.93 2.19-7.63 2.42-2.72.26-5.04-1.37-7.3-2.6-1.75 1-3.63 1.96-4.53 3.88-.93-.26-1.86-.55-2.78-.83.1-2.65.18-5.29.23-7.94-.6.36-1.81 1.06-2.41 1.42z"/>
    <path fill="#972326" opacity=".93" d="M52.17 57.24c-4.64-2.46-1.84-11.13 3.2-11.38-.92 1.15-1.87 2.26-2.86 3.35-1.82 2.41-.79 5.36-.34 8.03z"/>
    <g fill="#ad2829">
        <path d="M72.02 44.91c5.05 1.42 5.96 6.73 5.8 11.23-1.15.5-2.29 1.02-3.46 1.47-3.78.85-8.07 1.03-10.63 4.4-2.32-3.13-6.18-3.55-9.72-4.19l-1.81-.48c.9-1.92 2.78-2.88 4.53-3.88 2.26 1.23 4.58 2.86 7.3 2.6 2.7-.23 5.11-1.56 7.63-2.42 1.55.55 3.11 1.07 4.68 1.57.24-4.01-2.14-7.2-4.32-10.3z"/>
        <path d="M62.35 48.5l1.96-.68c.63 1.24 1.37 2.44 2.38 3.41l.53-.04c.52-.04 1.57-.11 2.09-.15-1.17 5.17-7.58 4.05-11.07 2.13 1.38-1.56 3.12-2.79 4.11-4.67z"/>
    </g>
    <path fill="#2b090a" opacity=".49" d="M64.31 47.82c1.87-.71 3.11 1.8 2.91 3.37l-.53.04c-1.01-.97-1.75-2.17-2.38-3.41z"/>
    <path fill="#290909" opacity=".49" d="M54.01 57.82c3.54.64 7.4 1.06 9.72 4.19 2.56-3.37 6.85-3.55 10.63-4.4.41 1.89.84 3.78 1.28 5.66l-1.1-.15.08-3.63c-3.22.6-7.92.21-9.18 4.09-1.03 5.47-.17 11.12-.39 16.66 1.44-.33 2.88-.64 4.3-1.01-1.59.77-3.29 1.26-4.98 1.77-.45-6-.39-12.02.03-18.01l-1.09.02c.08 6.03.39 12.08-.42 18.08-.95-.39-1.88-.79-2.82-1.19.63.08 1.88.24 2.5.33-.18-5.67.73-11.48-.56-17.05-1.46-3.53-5.88-3.03-8.97-3.6-.03 1.34-.07 2.68-.1 4.02-2.34.07-4.67.13-7.01.2-.23 3.23-.27 6.52.59 9.68.35-2.84.47-5.71.58-8.57 2.02-.01 4.04-.01 6.05-.01l.75 4.95c-1.28.08-2.56.17-3.83.28.94-.44 1.88-.9 2.81-1.36-.15-1.16-.29-2.31-.44-3.47-1.55.11-3.1.23-4.64.35-.14.9-.42 2.7-.55 3.6l1.36 1.48c-.04 2.82.02 5.68.91 8.39.25-2.52.36-5.05.44-7.57 1.32-.12 2.64-.23 3.96-.34.51 1.69 1.01 3.39 1.57 5.07-1.25-1.91-2.48-4.06-4.95-4.5-.07 2.97-.16 5.97-1.08 8.82-6.32-5.11-8.95-13.98-6.79-21.78-.31 4.55-.34 9.28 1.66 13.48.46-2.91.64-5.87 1.34-8.74 2.04-.88 4.33-.72 6.49-.95l.12-3.17c.43-.41 1.29-1.21 1.73-1.62m-7.76 16.42c.52.49.52.49 0 0z"/>
    <path fill="#b22b2c" d="M53.04 59.58c3.09.57 7.51.07 8.97 3.6 1.29 5.57.38 11.38.56 17.05-.62-.09-1.87-.25-2.5-.33-1.85-.71-3.57-1.87-4.58-3.62-.56-1.68-1.06-3.38-1.57-5.07-1.32.11-2.64.22-3.96.34-.08 2.52-.19 5.05-.44 7.57-.89-2.71-.95-5.57-.91-8.39.37-.15 1.09-.45 1.46-.6 1.27-.11 2.55-.2 3.83-.28l-.75-4.95c-2.01 0-4.03 0-6.05.01-.11 2.86-.23 5.73-.58 8.57-.86-3.16-.82-6.45-.59-9.68 2.34-.07 4.67-.13 7.01-.2.03-1.34.07-2.68.1-4.02z"/>
    <path fill="#b22b2b" d="M65.44 63.58c1.26-3.88 5.96-3.49 9.18-4.09l-.08 3.63 1.1.15c2.1.15 4.2.17 6.29.38.26 3.44.38 6.93-.53 10.29-1.01-2.8-1-5.81-1.16-8.75-1.75-.02-3.51-.02-5.27-.1l-.54-.05c-.1 1.58-.2 3.16-.29 4.75l1.79-.08c1.12.35 2.24.71 3.35 1.09-.03 2.94-.1 5.88-.42 8.8-1.66-2.35-1.27-5.26-1.48-7.96l-3.5-.15c-.18.58-.53 1.74-.71 2.32-.9 2.03-1.87 4.19-3.82 5.42-1.42.37-2.86.68-4.3 1.01.22-5.54-.64-11.19.39-16.66z"/>
    <path fill="#591515" opacity=".91" d="M11.64 63.91c2.21-.15 4.57 0 6.45-1.37-.67.82-1.33 1.65-1.98 2.48.8-.06 2.39-.19 3.19-.25-2.37 2.07-5.73 1.51-7.66-.86z"/>
    <path opacity=".05" d="M81.93 63.65c1.01 2.83 1.72 5.76 2.06 8.74-1.29 3.6-3.93 6.49-6.73 9-.29-3-.46-6.03-1.09-8.99-1.14.1-2.09.78-3 1.41.18-.58.53-1.74.71-2.32l3.5.15c.21 2.7-.18 5.61 1.48 7.96.32-2.92.39-5.86.42-8.8-1.11-.38-2.23-.74-3.35-1.09 1.34-.62 2.63-1.33 3.94-2.02-1.59-.95-3.2-1.87-4.9-2.6 1.76.08 3.52.08 5.27.1.16 2.94.15 5.95 1.16 8.75.91-3.36.79-6.85.53-10.29z"/>
</svg>
