<svg width="128pt" height="128pt" viewBox="0 0 128 128" xmlns="http://www.w3.org/2000/svg">
    <path fill="#fff" d="M63.58 21.11c-1.43-2.88-2.44-6.82.58-9.06-.15 1.55-.89 3.24-.13 4.73 1.27 1.84 3.22 3.18 4.18 5.23 1.17 3.88-3.69 6.24-3 10.09.35 3.61 2.09 7.88 6.01 8.74 3.64 1.14 6.99 3.09 9.71 5.77 3.03-1.62 4.35-4.7 4.56-7.99 2.92 3.15.35 7.95-2.31 10.42 2.6 3.35 4.03 7.37 4.96 11.45 2.92-.48 5.96-1.25 8.88-.33 2.68.63 4.36 3.09 6.85 4.11 2.87.46 5.26-1.86 8.08-1.86 1.71-.16 3.04 1.02 4.37 1.88-1.66-.02-3.39-.58-4.99.06-1.99 1.18-3.29 3.3-5.45 4.23-3.43.66-5.63-3.09-8.95-3.11-4.07-.06-8.77 2.09-9.96 6.29-1.16 3.57-3.18 6.76-5.68 9.55 1.51 3.21 4.75 4.49 8.11 4.65-3.43 3.2-8.07.09-11.03-2.24-3.23 2.36-7 3.85-10.93 4.53.51 3.03 1.3 6.22.19 9.22-.75 3.15-4.8 5.05-3.91 8.65 1.29 3.31 3.13 7.35-.08 10.27.04-1.08.13-3.26.17-4.35-1.16-2.81-5.14-4.43-4.47-7.92.97-2.69 3.5-4.89 3.2-7.96-.57-3.44-2.06-7.48-5.68-8.69-3.81-1.26-7.36-3.2-10.28-5.97-3.06 1.5-4.17 4.72-4.44 7.89-3.04-2.98-.41-7.94 2.24-10.36-2.41-3.38-4.04-7.25-4.73-11.35-2.82.46-5.74 1.19-8.58.4-2.74-.67-4.54-3.08-7.08-4.13-2.84-.63-5.17 1.84-7.96 1.8-1.75.18-3.3-.76-4.38-2.05 1.64.21 3.47 1.13 4.96-.03 2.31-1.55 4.18-4.84 7.41-4.03 2.64.99 4.85 3.45 7.88 3.1 3.81-.44 8.05-2.58 8.99-6.62 1.09-3.46 3.05-6.57 5.57-9.16-1.03-1.43-2.16-2.78-3.39-4.04-1.64-.25-3.26-.52-4.88-.84 3.51-3.07 8.22-.12 11.02 2.5 3.3-2.3 7.04-3.91 11-4.67-.7-3.79-1.53-8.22 1.07-11.52 1.55-2.04 3.95-4.58 2.3-7.28m-5.06 21.74c-9.81 2.27-17.23 12.1-16.47 22.2.14 11.01 9.91 20.77 20.92 20.9 10.6.81 20.74-7.44 22.41-17.86 1.44-7.44-1.32-15.49-7.09-20.41-5.23-4.82-12.92-6.52-19.77-4.83z"/>
</svg>
