<svg width="128pt" height="128pt" viewBox="0 0 128 128" xmlns="http://www.w3.org/2000/svg">
    <path fill="#fff" d="M54.86 16.6c.48-.34 1.44-1.03 1.92-1.38 1.4.88 2.85 1.69 4.32 2.45.17-.45.51-1.35.68-1.79l-.25 1.99c.7-.55 2.09-1.66 2.79-2.21.77 1.96.34 4.71 2.46 5.85l2.59-.92c.35.7 1.06 2.11 1.42 2.81-1.65.81-4.29.52-4.8 2.69.19 1.81 2.72 4.09 4.17 2.13.58-1.27.96-2.62 1.47-3.91.7.45 2.1 1.35 2.79 1.79l-.69 3.96c4.26 2.91 9.58 3.39 14.57 3.94-1.32 1.97-1.1 4.9-2.98 6.4-5.23-4.39-13.11-7.92-19.49-3.75-1.8-.5-3.61-.99-5.41-1.47-.19.75-.55 2.25-.73 3 1.59 4.93 7.65 5.18 11.57 7.39-.13.57-.38 1.72-.5 2.29 2.48 2.48 5.48 4.34 8.26 6.46-.46.57-1.38 1.71-1.85 2.28 1.26 3.65 2.58 7.27 3.67 10.98-.6.1-1.81.31-2.41.42-.18 3.13-.46 6.26-.76 9.39l-2.43.48c-1.94 3.39-4.28 6.51-7.35 8.96-.36-.37-1.08-1.13-1.44-1.5-2.6 2.8-4.94 7.84-9.41 7.2-1.27 2-2.3 4.26-4.42 5.51-.74 3.27-.27 7.58 3.21 9.09 3.36 2.13 7.41 1.17 10.58-.79.69-2.2 1.24-4.57-.08-6.66-.49-.27-1.47-.79-1.96-1.05-.84.08-1.68.17-2.51.26-1.17 1.98-1.34 3.8 1.14 4.66l-.08-2.6c2.13-2 2.49 2.42 1.69 3.73-2.61.72-6.74-.19-6.36-3.63-.21-5.09 7.2-7.46 10.18-3.39 4.36 4.28 1.51 10.53-.2 15.32-.53-.39-1.6-1.15-2.13-1.54-1.64 1.42-1.36 4.55-4.41 3.9l.08-2.45c-2.04.07-3.95.51-3.95 3.03-.64-.1-1.94-.3-2.59-.4.04-.58.11-1.72.15-2.3-.59-.06-1.77-.17-2.37-.23-.91 1.5-2.28 1.83-3.9 1.22 1.04-2.06.21-3.44-1.71-4.3-.57.47-1.71 1.42-2.29 1.9-1.82-1.24-2.03-2.81-.76-4.54-.3-.7-.91-2.11-1.21-2.81-2.74.91-2.8-1.67-3.18-3.6 3.09-.08 3.86-4.88.52-5.45.6-1.56 1.53-2.82 3.39-2.77.46-.77.91-1.53 1.37-2.29-1.87-1.07-2.04-2.45-.58-4.01 2.58 2.36 5.78-2.29 2.44-3.9 1.05-1.89 2.41-2.59 4.11-.86.71-1 1.42-2 2.14-2.99-.51-.41-1.53-1.21-2.04-1.62.2-.86.61-2.58.82-3.44l2.76.2c1.41-8.42-1.36-16.96-5.38-24.32-.71-.2-2.13-.61-2.83-.81-.76-2.18 2.03-3.18 1.4-5.25-.62-.12-1.87-.37-2.49-.49-.2-2 .42-3.44 2.67-3.5-.4-1.22-1.05-2.3-2.2-2.97l.12-1.7c1.8.25 2.71-.95 3.37-2.42-.93-.98-2.46-1.64-2.56-3.17.58-1.19 1.57-1.65 2.97-1.39.58-.96 1.17-1.92 1.75-2.88-1.99-.8-1.69-2.27-.76-3.8l3.41.56c.54-.42 1.62-1.25 2.16-1.66-.56-1.11-1.11-2.22-1.66-3.33z"/>
</svg>
