<svg width="128pt" height="128pt" viewBox="0 0 128 128" xmlns="http://www.w3.org/2000/svg">
    <path d="M68.27 24.54c1.34.53 2.19 1.78 1.31 3.17-1.98 1.83-3.96-3.03-1.31-3.17zM40.13 51.02c3.69.53 6.44 4.2 10.46 3.13 2.79 3.78 3.57 8.54 4.09 13.09-2.62 3.66-5.86 6.87-7.99 10.89-1.04-1.38-2.07-2.76-3.08-4.15 2.18-2.15 5.57-3.55 6.44-6.71-2.82 1.32-5.42 3.04-8.01 4.76-.38-1.01-.74-2.01-1.1-3.02 3.37-1.68 6.7-3.44 10.13-4.99-3.7 1.1-7.24 2.77-11.08 3.39-.35-1.21-.72-2.42-1.09-3.63 3.56-.11 7.12-.59 10.46-1.88-3.88 0-7.77.16-11.63-.27-.01-1.15 0-2.29.04-3.44 3.88-.03 7.76.98 11.63.27-3.69-1.15-7.52-1.82-11.15-3.18.65-1.41 1.28-2.83 1.88-4.26z" fill="#fff"/>
</svg>
