<svg width="128pt" height="128pt" viewBox="0 0 128 128" xmlns="http://www.w3.org/2000/svg">
    <path fill="#fff" d="M67.37 11.78c.13 3.78.81 7.65 2.38 11.09 1.2-.87 2.38-1.76 3.55-2.67.82 2.83 1.9 5.79 4.58 7.4.51-.46 1.54-1.36 2.06-1.81 1.35-.8 2.7-1.63 4.03-2.48-.26 1.31-.53 2.63-.79 3.95-.48.36-1.43 1.08-1.91 1.45 2.84 2.23.73 5.93-.12 8.64 3.95.53 7.8 1.65 11.58 2.88 3.17.88 6.25 2.03 9.36 3.11-2.05-.17-4.14-.09-5.95.93-5.02-1.03-10.14-1.8-15.26-1.24 1.13 1.43 2.29 2.85 3.42 4.29.25.31.73.94.97 1.25-1.28.34-2.55.67-3.82 1 .02 1.66-.41 3.38.05 5 1.03 1.69 2.42 3.26 2.47 5.35-.12 4.56 3.53 7.52 4.99 11.51.18-.16.56-.48.74-.64l-.46 2.42c-.82-2.26-2.58-3.96-4.61-5.17l-.23-.13c-1.39-1.03-2.71-2.17-4.05-3.27-.35-.04-1.05-.11-1.4-.15-.49 2.51-3.43 2.3-5.23 3.29-.62 1.13.04 2.47.1 3.67 1.58 9.39 4.73 18.39 6.88 27.64-1.91-4.2-3.84-8.39-5.78-12.58-1.97-.34-3.36-1.51-4.18-3.31-1.04-1.47-2.15-3.41-4.12-1.82.75.89.59 4.83-1.34 3.17-1.46-3.29-2.05-6.93-3.85-10.11-1.14-.43-2.29-.84-3.49-1.11-.56 1.45-1.13 2.89-1.67 4.34l-.12-3.51c-.47-.44-1.42-1.33-1.89-1.78-1.32.17-2.57.6-3.74 1.21-1.04 4.76-2.74 9.36-4.53 13.88-.81-4.2.52-9.66-2.8-12.82.37-1.32.76-2.64 1.25-3.92-.43-.54-.87-1.07-1.31-1.61-1.51.14-3.02.24-4.53.35-1.44 1.74-2.63 3.68-4.27 5.25.78-1.95.86-4.4 2.82-5.59 1.43-2.88.06-6.16-2.13-8.22-4.7-.74-8.44 3.05-12.53 4.73-.61-.11-1.82-.34-2.43-.45l.09 2.26c-.3-1.08-.55-2.18-.67-3.29.53.15 1.58.44 2.1.59 3.46-3.33 6.71-6.81 9.25-10.89-1.21-2.42-2.7-4.73-3.31-7.4-1.56-1.27-3.34-2.2-5.19-2.96-.58-1.87 2.42-.77 3.25-1.4-1.83-3.81-.26-8-.13-11.99-.74-1.45-1.28-2.99-1.87-4.5 3.37 1.62 6.86 2.97 10.23 4.57 4.52 2.19 9.74 3.03 13.64 6.39 2.83 5.99 1.18 15.29 8.9 17.89-1.69.62-3.44.3-5.16.12l.22.36.4.27c.38.07 1.14.21 1.53.28 1.35-.07 2.69-.28 4-.63 2.03.35 4.08.8 6.15.73 2.46-2.23 4.5-4.83 6.5-7.47.91-.91 1.63-1.98 2.32-3.07.5-5.65-3.4-11.58-9.35-12-2.28 1.94-4.39 4.06-6.59 6.09.12 3.63 2.92 8.49 7.18 6.48.08-1.31.18-2.61.31-3.92-.45.8-1.33 2.39-1.77 3.18-2.34-.61-3.83-2.77-4.63-4.93 1.76-1.96 3.76-3.72 6.2-4.79l-.33-1.31c4.52 1.44 9.02 6.28 6.81 11.27-2.26 3.36-5.02 6.35-7.76 9.32-3.35-.53-6.42-1.97-9.26-3.79-2.23-4.27-3.08-9.01-3.91-13.71-.69-1.55-1.53-3.25-.29-4.78 1.51-2.18.71-4.77.08-7.1 1.52.99 3.26 1.47 5.01 1.87.7-1.62 1.39-3.25 2-4.91 1.4.82 2.82 1.63 4.25 2.42 1.44-1.32 3.1-2.4 4.51-3.76 1.2-2.85 1.82-5.91 2.6-8.9m-.28 10.69c.14 1.36.3 2.73.49 4.09-.48.3-1.44.91-1.92 1.22 1.18.44 2.36.88 3.55 1.31-.35-2.3-.66-4.71-2.12-6.62m2.84 4.99c1.61.46 3.22.93 4.83 1.4.1-.79.29-2.35.38-3.14-1.73.58-3.47 1.16-5.21 1.74m-6.64 1.57c-.52 1.58-.02 2.14 1.51 1.67.59-1.62.09-2.18-1.51-1.67M70.55 32c-.43 1.4.06 1.89 1.46 1.48.43-1.4-.06-1.89-1.46-1.48z"/>
    <path fill="#e9e9e9" opacity=".91" d="M67.09 22.47c1.46 1.91 1.77 4.32 2.12 6.62-1.19-.43-2.37-.87-3.55-1.31.48-.31 1.44-.92 1.92-1.22-.19-1.36-.35-2.73-.49-4.09z"/>
    <path fill="#e0e0e0" opacity=".88" d="M69.93 27.46c1.74-.58 3.48-1.16 5.21-1.74-.09.79-.28 2.35-.38 3.14-1.61-.47-3.22-.94-4.83-1.4z"/>
    <path fill="#d3d3d3" opacity=".83" d="M70.55 32c1.4-.41 1.89.08 1.46 1.48-1.4.41-1.89-.08-1.46-1.48z"/>
    <path fill="#e4e4e4" opacity=".89" d="M80.88 43.03c5.12-.56 10.24.21 15.26 1.24-4.02.7-8.29.81-11.84 3.05-1.13-1.44-2.29-2.86-3.42-4.29z"/>
</svg>
