<svg width="128pt" height="128pt" viewBox="0 0 128 128" xmlns="http://www.w3.org/2000/svg">
    <path fill="#2d0a0b" opacity=".47" d="M65.79 14.62c.67-.9 1.34-1.8 2.01-2.71.44 3.06.9 6.13 1.96 9.04 1.47-.33 2.96-.6 4.45-.77.59 2.07 1.33 4.09 2.26 6.03 2.84-.61 5.35-2.09 7.86-3.49.11 2.22-.41 4.35-1.61 6.23 1.01 2.55.47 5.19-.42 7.69 3.96 1.57 8.67 1.34 12.16 3.97-4.59-.42-8.79-2.61-13.38-3.06.54-2.24 1.12-4.47 1.58-6.73-.38-.42-1.12-1.27-1.49-1.69 1.14-1.59 2.04-3.34 2.68-5.19-2.18.95-4.19 2.24-6.03 3.76-2.56-1.57-4.07-4.08-4.28-7.09-.87.68-1.74 1.36-2.61 2.03-.61-.16-1.83-.49-2.43-.66.45-2.63-.62-4.97-2.36-6.89l-.35-.47z"/>
    <path fill="#c02c2e" d="M66.14 15.09c1.74 1.92 2.81 4.26 2.36 6.89.6.17 1.82.5 2.43.66.87-.67 1.74-1.35 2.61-2.03.21 3.01 1.72 5.52 4.28 7.09 1.84-1.52 3.85-2.81 6.03-3.76-.64 1.85-1.54 3.6-2.68 5.19.37.42 1.11 1.27 1.49 1.69-.46 2.26-1.04 4.49-1.58 6.73 4.59.45 8.79 2.64 13.38 3.06.28.05.84.16 1.12.21.69.55 2.06 1.65 2.75 2.2-4.13 1.95-8.85 1.65-13.1 3.25-.2.62-.62 1.86-.82 2.48-.99.16-1.97.32-2.95.48-1.01 3.26-.27 6.4 2.13 8.82.06 3.93 1.16 7.83 4.12 10.57.04.56.11 1.68.15 2.24-2.15-2.04-4.49-3.92-7.02-5.47-1.77-.96-2.85.87-4 1.88-1.16.15-3.63-.31-3.3 1.62 1.24 7.85 3.05 15.63 5.57 23.17.13 1.28.39 3.83.53 5.11-2.55-3.68-2.37-10.09-7.29-11.61-1.65-1.72-2.64-5.28-5.65-4.17 0 .94.02 2.81.03 3.75-1.02-.24-1.69-.84-2.02-1.78-1.02-2.94-1.71-6.02-3.38-8.68-.79-.49-1.59-.97-2.38-1.46-.23.16-.7.49-.94.65-.56 1.14-1.08 2.3-1.54 3.48.13-2.59-1.57-5.78-4.64-4.7-2.72 2.71-2.07 7.3-4.02 10.53-.79 1.16-3.59 2.84-2.04-1.09.09-4.11-2.27-7.98-1.17-12.1-2.05-1.95-4.81-.88-7.2-.34 1.19-3.19.32-7.28-2.62-9.14-4.81-1.71-8.06 4.39-12.82 3.88 2-3.07 6.19-4.75 6.82-8.59.53-.43 1.59-1.31 2.12-1.75-1.05-2.47-3.11-4.52-3.34-7.31-1.77-1.39-3.63-2.63-5.5-3.87.84-.17 2.53-.52 3.38-.69-2.35-5.29 1.56-11.09-1.68-16.22 5.44 1.8 10.47 4.63 15.9 6.47 1.77.64 3.55 1.28 5.12 2.33.33.24.99.7 1.32.93-2.34.06-4.71.01-6.99.61 1.04 1.6 2.46 3.13 2.47 5.16.63 2.87-3.56 4.1-2.93 6.95.12 2.66 2.17 4.47 4.02 6.1-.55 2.01-2 3.44-3.34 4.94.38.47 1.16 1.42 1.54 1.89.83-1.02 1.52-2.19 2.54-3.04 3.34-1.8 7 .02 10.46.36-1.14-2.21-3.36-4.17-2.06-6.86 3.16 2.72 7.54 4.39 11.65 3.82 3-2.38 5.34-5.51 7.89-8.34 3.15-5.75-1.59-14.09-8.19-14.27-2.96 1.41-4.82 4.38-7.11 6.64-1.64 2.57-4.12 1.45-6.13.09-.41-1.95-.97-3.87-1.49-5.8.94-1.97 1.68-4.03 1.74-6.24 2.55.34 5.11.71 7.68.95.12-.71.36-2.12.49-2.83l.51.11c1.7.5 3.47.42 5.22.33l-.19-.94c-3.09 1.56-3.01-2.28-.56-2.24.22-.36.66-1.06.88-1.42 1.25-1.97 1.58-4.31 1.94-6.57m7.17 12.17c.46.49.46.49 0 0m-2.27 6.76c2.01 1.86 2.21-1.7 1.44-2.8-1.68-.75-3.32 1.86-1.44 2.8z"/>
    <path fill="#aa2926" opacity=".94" d="M55.93 21.66c1.55 1.14 3.21 2.24 5.22 2.13.64-1.45 1.66-2.17 3.05-2.13-.22.36-.66 1.06-.88 1.42-2.45-.04-2.53 3.8.56 2.24l.19.94c-1.75.09-3.52.17-5.22-.33l-.08-.47-.36-.08-.07.44c-.13.71-.37 2.12-.49 2.83-2.57-.24-5.13-.61-7.68-.95l.14-1.42c1.23.27 2.45.53 3.68.8.15-.4.44-1.2.59-1.6.46-1.27.91-2.55 1.35-3.82z"/>
    <path fill="#2f0b0b" opacity=".53" d="M48.53 24.47c1.82 1.21 3.95 1.53 6.05 1.01-.15.4-.44 1.2-.59 1.6-1.23-.27-2.45-.53-3.68-.8l-.14 1.42c-.06 2.21-.8 4.27-1.74 6.24.52 1.93 1.08 3.85 1.49 5.8.54 2.84 1.11 5.7 2.23 8.39.35.85.71 1.71 1.08 2.56 2.79 1.29 5.51 3.1 8.65 3.31 3.24-2.12 5.45-5.51 7.69-8.61 2.83-4-.84-8.87-4.52-10.75-2.52 1.82-7.59 2.99-6.96 6.92 1.2 1.28 2.61 2.33 3.97 3.43.66-1.09 1.32-2.17 1.99-3.26-.45 1.54.51 4.58-2.02 4.39-2.95.6-4.45-2.36-5.43-4.58-.13-.48-.41-1.42-.55-1.89 2.29-2.26 4.15-5.23 7.11-6.64 6.6.18 11.34 8.52 8.19 14.27-2.55 2.83-4.89 5.96-7.89 8.34-4.11.57-8.49-1.1-11.65-3.82-2.95-5.02-1.87-11.58-5.71-16.11-.33-.23-.99-.69-1.32-.93 3.25.92 3.35-2.78 4.61-4.76-.31-1.84-.61-3.68-.86-5.53z"/>
    <path fill="#2c0909" opacity=".61" d="M58.41 25.38l.36.08.08.47-.51-.11.07-.44z"/>
    <path fill="#601617" opacity=".79" d="M73.31 27.26c.46.49.46.49 0 0z"/>
    <path fill="#982323" opacity=".93" d="M71.04 34.02c-1.88-.94-.24-3.55 1.44-2.8.77 1.1.57 4.66-1.44 2.8z"/>
    <path fill="#c72f31" d="M58.09 41.56c-.63-3.93 4.44-5.1 6.96-6.92 3.68 1.88 7.35 6.75 4.52 10.75-2.24 3.1-4.45 6.49-7.69 8.61-3.14-.21-5.86-2.02-8.65-3.31-.37-.85-.73-1.71-1.08-2.56 1.09-.19 2.17-.39 3.26-.58.44-2 .87-4 1.19-6.01.98 2.22 2.48 5.18 5.43 4.58 2.53.19 1.57-2.85 2.02-4.39-.67 1.09-1.33 2.17-1.99 3.26-1.36-1.1-2.77-2.15-3.97-3.43z"/>
    <path fill="#dc3334" d="M39.11 36.3c2.28-.6 4.65-.55 6.99-.61 3.84 4.53 2.76 11.09 5.71 16.11-1.3 2.69.92 4.65 2.06 6.86-3.46-.34-7.12-2.16-10.46-.36-1.02.85-1.71 2.02-2.54 3.04-.38-.47-1.16-1.42-1.54-1.89 1.34-1.5 2.79-2.93 3.34-4.94-1.85-1.63-3.9-3.44-4.02-6.1-.63-2.85 3.56-4.08 2.93-6.95-.01-2.03-1.43-3.56-2.47-5.16z"/>
    <path fill="#ef3839" d="M49.92 39.74c2.01 1.36 4.49 2.48 6.13-.09.14.47.42 1.41.55 1.89-.32 2.01-.75 4.01-1.19 6.01-1.09.19-2.17.39-3.26.58-1.12-2.69-1.69-5.55-2.23-8.39z"/>
    <path fill="#240809" opacity=".43" d="M95.58 40.82c2.31.19 5.58.78 6.16 3.48-.55.04-1.65.13-2.2.17.14.49.43 1.46.57 1.94-2.08-.32-4.13-.8-6.2-1.17-2.75.15-5.34 1.22-7.96 1.95l-.8 1.84c-.67.22-2.02.65-2.69.86-.16 2.2-.64 4.69 1.13 6.42 2 2.09 1.77 5.03 1.72 7.7 1.08 1.37 2.15 2.82 2.4 4.61-2.96-2.74-4.06-6.64-4.12-10.57-2.4-2.42-3.14-5.56-2.13-8.82.98-.16 1.96-.32 2.95-.48.2-.62.62-1.86.82-2.48 4.25-1.6 8.97-1.3 13.1-3.25-.69-.55-2.06-1.65-2.75-2.2z"/>
    <path d="M89.94 51.23c.47-2.26 2.5-1.29 4.01-.66 1.33.61 2.68 1.17 4.11 1.5.71.24 2.13.73 2.84.97-1.8 2.07-4.31.99-6.4.14-1.52-.65-3.03-1.33-4.56-1.95zM61.03 97.12c.96 1.8 1.93 3.61 2.88 5.42.21.53.65 1.61.86 2.14.69 3.44 1.29 6.89 1.73 10.37-1.48.2-2.95.39-4.43.57-.26-6.17-.9-12.32-1.04-18.5z" fill="#ad2829"/>
    <path fill="#1e0707" opacity=".4" d="M93.95 50.57c1.09-1.44 4.81-.47 4.11 1.5-1.43-.33-2.78-.89-4.11-1.5z"/>
    <path fill="#210808" opacity=".41" d="M94.5 53.18c2.09.85 4.6 1.93 6.4-.14.66.46 1.33.92 1.99 1.38-2.8.41-6.45 1.6-8.39-1.24z"/>
    <g fill="#4b1212">
        <path opacity=".76" d="M21.96 64.39c4.76.51 8.01-5.59 12.82-3.88 2.94 1.86 3.81 5.95 2.62 9.14 2.39-.54 5.15-1.61 7.2.34-1.1 4.12 1.26 7.99 1.17 12.1-1.55 3.93 1.25 2.25 2.04 1.09 1.25 1.52-.67 2.76-1.5 3.9-1.8-3.99-.23-9.01-3.33-12.47.21-1.72.4-3.45.53-5.17-2.84.12-6.46.44-7.86 3.36.53-2.31 1.43-4.53 1.92-6.85-.63-1.79-1.49-3.9-3.34-4.73-5.4.32-9.63 4.07-14.42 6.13.7-.9.85-2.69 2.15-2.96z"/>
        <path opacity=".76" d="M28.53 70.41c.49-1.84 1.42-3.54 3.06-4.58 1.22 3.39-1.59 5.98-3.07 8.7-1.23 1.97-1.96 4.31-3.78 5.86 1.22-3.34 2.85-6.53 3.79-9.98zm31.9 20.28c1.65 3.79 2.77 7.78 3.48 11.85-.95-1.81-1.92-3.62-2.88-5.42.14 6.18.78 12.33 1.04 18.5 1.48-.18 2.95-.37 4.43-.57-.44-3.48-1.04-6.93-1.73-10.37 1.4 3.72 3.16 7.61 2.52 11.67-1.06 1.68-1.62 3.59-2.22 5.46-.42-1.34-1.26-2.47-2.2-3.48l1.57-1.2c-1.34-.75-3.28-1.23-3.23-3.14-1.26-7.69-.76-15.54-.78-23.3z"/>
    </g>
    <path fill="#4a1013" opacity=".68" d="M88.88 61.31c1.05-.86 1.97-2.38 3.55-2.08-.5.68-1.48 2.04-1.98 2.72.1.51.3 1.52.41 2.02-1.06-.55-1.5-1.64-1.98-2.66z"/>
    <path fill="#b52c29" d="M92.43 59.23l.44 1.25c.54 1.82 2.74 2.05 4.34 2.16.21.34.62 1.02.83 1.36.62 1.24 1.58 2.24 2.61 3.17 1.57 1.58 2.67 3.54 3.9 5.38-1.21-.12-2.42-.19-3.63-.26-1.67-1.49-3.51-2.79-5.08-4.39-1.01-1.14-2.07-2.27-3.44-2.98-.38-.24-1.16-.71-1.54-.95-.11-.5-.31-1.51-.41-2.02.5-.68 1.48-2.04 1.98-2.72z"/>
    <path fill="#280909" opacity=".45" d="M92.87 60.48c1.47-.73 4.25.51 4.34 2.16-1.6-.11-3.8-.34-4.34-2.16z"/>
    <path fill="#1a0606" opacity=".36" d="M98.04 64c1.62-1.15 3.89 1.75 2.61 3.17-1.03-.93-1.99-1.93-2.61-3.17z"/>
    <path fill="#210807" opacity=".43" d="M92.4 64.92c1.37.71 2.43 1.84 3.44 2.98-1.65 1.48-4.43-1.2-3.44-2.98z"/>
    <path fill="#150504" opacity=".34" d="M100.92 72.29c1.21.07 2.42.14 3.63.26 1.73.02 1.62 2.79-.04 2.97-1.87.23-2.53-2.11-3.59-3.23z"/>
    <path fill="#010000" opacity=".14" d="M58.01 73.87c1.4.28 3.09.44 3.73 1.98-1.74.54-3.5 1.04-5.27 1.5.46-1.18.98-2.34 1.54-3.48z"/>
    <path fill="#220808" opacity=".45" d="M81.85 73.49c2.03-.08 3.67 1.14 5.21 2.29-.79-.03-2.37-.08-3.16-.11l2.38 1.9c.88 2.6 1.75 5.2 2.78 7.74-1.73-2.15-2.64-4.79-3.72-7.29-.58-.27-1.75-.8-2.33-1.07-.4-1.15-.79-2.3-1.16-3.46z"/>
    <path fill="#771c1c" opacity=".85" d="M83.9 75.67c.79.03 2.37.08 3.16.11 1.44-.01 2.01 1.65 2.57 2.71 1.62 3.64 2.81 7.49 4.91 10.91-.81.58-1.61 1.18-2.39 1.81-1.03-1.97-2.16-3.88-3.09-5.9-1.03-2.54-1.9-5.14-2.78-7.74l-2.38-1.9z"/>
    <path fill="#1f0707" opacity=".4" d="M33.68 100.03c1.11-4.19 2.17-8.47 4.14-12.35 1.36.58 2.73 1.16 4.1 1.72-.31 1.16-.73 2.3-1.79 2.99.2-.61.6-1.82.8-2.42-1-.43-2-.87-3-1.3-1.01 3.98-3.42 7.96-2.77 12.13.84-.39 1.46-1.03 1.85-1.93-.12.75-.37 2.23-.49 2.98-1.17.1-3.26-.05-2.84-1.82z"/>
    <path fill="#962325" opacity=".95" d="M37.93 88.67c1 .43 2 .87 3 1.3-.2.6-.6 1.81-.8 2.42-.95 2.2-2.02 4.35-3.12 6.48-.39.9-1.01 1.54-1.85 1.93-.65-4.17 1.76-8.15 2.77-12.13z"/>
</svg>
