<svg width="128pt" height="128pt" viewBox="0 0 128 128" xmlns="http://www.w3.org/2000/svg">
    <g fill="#fff">
        <path d="M62.8 22.15c-.97-2.19-1.47-4.59-2.79-6.62 1.36 1.03 2.68.52 3.91-.4-1.44 2.11-1.02 4.62-1.12 7.02zm4.92 6.59c-2-.9-2.6-3-1.17-4.7.58 1.3 1.08 2.63 1.52 3.97 1.06 2.41 1.34 4.97.36 7.46-.88.51-1.76 1.01-2.63 1.51.22 4.38 1.02 9.01-.53 13.21-2.92 4.02-8.75 2.34-13 3.25-.35.44-1.06 1.32-1.41 1.76 4.48 2.51 9.4.17 14.15.37 3.76.05 7.74.37 11.06 2.33 1.21 1.13 1.77 2.78 2.67 4.15.6 4.89 2.71 12.06-2.48 15.16-8.21 3.4-18.36-1.11-25.85 4.57.11 1.67.2 3.55 1.72 4.62 2.82 1.47 6.01.14 9 .52 5.32.55 10.9-.1 16 1.76 3.03 1.81 1.49 5.63 1.38 8.43-.24 2.3-.73 5.5-3.5 5.97-5.88.78-11.84.77-17.76.89 0-.46.01-1.4.01-1.86 5.63-.77 11.37-.26 17.02-.9.34-.34 1.02-1.01 1.35-1.35.05-3.21 2.65-8.15-1.17-9.96-8.94-1.67-18.58 1.54-27.11-2.3-1.28-2.69-1.56-6.69.07-9.14 8.98-4.56 19.52-1.17 28.85-4.35-.67-4.66.62-10.23-2.19-14.23-8.13-2.92-16.94-.34-25.32-1.69l-.88-2.59c.37-1.32.73-2.64 1.07-3.97 4.21-.7 8.4-1.53 12.57-2.38 1.38-.84 2.63-2.45 2.25-4.18-.06-3.06-.17-6.12-.24-9.17 3.36-.75 4.39-4.07 4.19-7.16z"/>
        <path d="M58.04 28.24c.07-1.37.32-2.71 1.37-3.68 1.44 3.01-1.94 5.42-.59 8.37 1 1.57 2.84 2.19 4.39 3.05-.69 4.15.77 8.95-1.75 12.6-4.11 2.03-9.07.79-13.31 2.52-2.4 2.17-2.44 8.34 1.79 8.23 7.18.42 14.52-.95 21.57.9 3.35 1.12 3.04 5 3.22 7.85-.05 1.86.65 4.88-1.91 5.41-8.58 1.84-17.57.84-26.06 3.33-2.48 2.28-1.44 6.32-1.66 9.35.63 3.64 4.95 3.9 7.9 4.08 7.04.9 14.46-1.42 21.22 1.44 2.66 1.93.71 5.79.24 8.42-6.16.67-12.34 1.74-18.54 1.33-1.59.05-3.07.77-4.6 1.09-1.9 2.59-3.26 8.15 1.27 8.8l-2.28-2.44c-.86-3.41 1.85-5.56 4.68-6.7.66.58 1.33 1.15 2.01 1.71l-3.11 1.28c-3.01 3.83 2.75 4.52 5.1 5.89-1.36.02-4.08.05-5.44.07-.06.51-.17 1.52-.23 2.03-.18-.32-.54-.95-.72-1.27-1.39-.15-2.78-.32-4.16-.52-.14-2.97-.55-5.99-.09-8.94 6.34-5.56 15.21-2.68 22.71-4.46.48-.48 1.45-1.44 1.93-1.91-1.22-.99-2.15-2.69-3.91-2.73-6.05-.61-12.12.18-18.17.46-2.97-.24-5.86-1.52-8.29-3.21-2.73-4.15-1.06-9.46-.14-13.94 3.14-2.13 6.62-4.04 10.51-4.05 5.04 0 10.07-.27 15.1-.46 1.86.06 2.77-1.78 3.72-3.05-.27-1.32-.51-2.63-.74-3.95-3.32-3.89-8.97-3.05-13.46-2.31-4.82.87-10.92.57-13.87-3.97.07-3.69-1.14-8.91 2.7-11.13 4.49-1.58 9.62-.05 13.98-2.31.08-2.66.4-5.31.27-7.97-3.29-1.89-4.62-5.85-2.65-9.21z"/>
        <path d="M61.15 107.83c.38 1 1.09 2.11 2.29 2.16l.51-.56c-.57 1.04-1.21 2.05-1.79 3.1-2.6.63-5.29.7-7.93.2l.01-1.14c2.1-.09 4.21.3 6.29.15-.27-1.36.17-2.64.62-3.91z"/>
    </g>
    <path fill="#4c4c4c" opacity=".3" d="M61.41 107.2c1.32-1.09 3.03.86 2.54 2.23l-.51.56c-1.2-.05-1.91-1.16-2.29-2.16l.26-.63z"/>
</svg>
