<svg width="128pt" height="128pt" viewBox="0 0 128 128" xmlns="http://www.w3.org/2000/svg">
    <path fill="#a52021" d="M61.13 16.03c.83-1.91.96-4.29 2.66-5.69.67 1.7 1.3 3.42 1.93 5.13l-.77.17c-1.27.14-2.55.27-3.82.39z"/>
    <path fill="#b82424" d="M61.13 16.03c1.27-.12 2.55-.25 3.82-.39l.98-.08c3.03 9.03 8.68 17.08 10.71 26.46-2.1.24-4.19.49-6.29.74-.52-1.07-.68-2.52-1.75-3.22-1.32-.24-2.67-.18-4.01-.21-.07.7-.22 2.09-.29 2.79-1.84 1.62-4.33 1.68-6.63 2.04-3.25.49-4.51 4.11-6.66 6.17-1.53-6.5.1-13.26 3.28-19.01 2.73-4.88 4.83-10.07 6.84-15.29z"/>
    <path fill="#f73031" d="M64.59 39.33c1.34.03 2.69-.03 4.01.21 1.07.7 1.23 2.15 1.75 3.22.08.55.25 1.66.34 2.21-1.22-.03-2.43-.05-3.65-.07-.91-.93-1.82-1.86-2.74-2.78.07-.7.22-2.09.29-2.79z"/>
    <path fill="#d42b29" d="M64.3 42.12c.92.92 1.83 1.85 2.74 2.78 1.22.02 2.43.04 3.65.07-.09-.55-.26-1.66-.34-2.21 2.1-.25 4.19-.5 6.29-.74.48 4.44-.28 8.88-1.73 13.07-3.63 1.01-8.28 3.23-11.33-.22.31-1.1.6-2.2.86-3.31 2.02-.17 4.81 1.15 6.2-.81.16-1.58-.44-3.1-.74-4.63-4.19 2.1-8.6.45-12.23-1.96 2.3-.36 4.79-.42 6.63-2.04z"/>
    <path fill="#ad2121" d="M51.01 50.33c2.15-2.06 3.41-5.68 6.66-6.17 3.63 2.41 8.04 4.06 12.23 1.96.3 1.53.9 3.05.74 4.63-1.39 1.96-4.18.64-6.2.81-.26 1.11-.55 2.21-.86 3.31-.22.58-.44 1.15-.68 1.72 1.53 2.12 2.64 4.51 3.15 7.08-1.36-.84-2.7-1.7-4.03-2.59-2.03.93-1.38 2.91-1.11 4.65-.22 2.23-1.22 4.3-1.75 6.46-1.85-5.18-3.99-10.26-6.09-15.35-.87-2.11-1.46-4.31-2.06-6.51z"/>
    <path fill="#c62726" d="M26.44 53.35c5.42-4.06 12.81-1.95 18.48.47-1.17.99-2.34 1.97-3.52 2.95.98 1 2.22 1.85 2.8 3.16-.49 1.02-1.05 2.01-1.61 2.99-1.21-2.49-1.92-5.45-4.26-7.18.33 3.49.93 6.99.5 10.49-3.03-2.5-3.36-7.01-6.71-9.31-1.58-2.28-4.13-.06-6.05.53-.56-.75-1.11-1.5-1.66-2.25.48-.44 1.45-1.32 1.93-1.77.02-.02.08-.06.1-.08z"/>
    <path fill="#a52121" d="M80.75 54.74c4.63-3.84 11.2-4.23 16.88-3.13 4.89 1.69 7.61 6.78 9.37 11.33 1.57 9.62-1.25 20.79-9.31 26.86-1.3-4.32-1.12-9.42-4.55-12.88-2.83-3.67-7.98-3.71-12.16-3.11 5.7-2.17 9.65-8.45 8.58-14.54-.01-1.94-2.05-2.73-3.28-3.85-1.63-1.23-3.64-1.25-5.53-.68z"/>
    <path fill="#641313" opacity=".72" d="M26.34 53.43c.02-.02.08-.06.1-.08-.02.02-.08.06-.1.08z"/>
    <path fill="#a82021" d="M44.92 53.82c2.73 1.39 4.66 3.89 6.45 6.3 4.98 6.92 7.23 15.41 7.68 23.84.32-.21.98-.63 1.31-.85 1.68-1.54.59-4.25-.13-6.06l-.76-3.52c2.63.84 5.24 1.78 7.83 2.74-.23 2.13-.73 4.22-1.23 6.31.58.03 1.73.1 2.3.13-.3-3.45.8-6.74 1.41-10.08l.33-.22c1.86-.83 2.76-2.63 3.61-4.35 1.02 3.16 2.17 6.46 1.52 9.83-.71 1.78-1.39 3.57-1.9 5.43 2.98.95 6.07 3.13 5.81 6.65-1.84-.75-3.63-1.74-5.66-1.8.27 3.4.42 7.67 3.48 9.85.66-1.92 1.13-5.1 3.87-4.71 3.62.18 4.88 4.57 4.8 7.61.26 3.11-1.95 7.12-5.52 6.51-5.58-.97-7.89-6.83-10.33-11.21-.15-2.74-.51-5.46-1.25-8.1-.56.04-1.67.13-2.22.17-.63 5.83 3.27 11.13 1.92 16.98-1.33 4.07-2.84 8.13-4.92 11.89-1.89-5.24-4.92-10.4-4.51-16.15.68-4.22 2.27-8.35 1.89-12.7-.56-.03-1.68-.1-2.25-.13-.71 6.64-2.58 13.94-8.16 18.16-2.73 2.28-7.32 1.14-8.16-2.45-1.81-4.3.24-11.83 6.11-10.49.87 1.45 1.39 3.06 1.79 4.69 3.01-2.42 3.45-6.49 3.59-10.09-1.99.21-3.76 1.15-5.5 2.06-.61-3.6 2.52-5.9 5.64-6.59-.62-2.73-1.52-5.59-3.76-7.45-4.02-3.3-10.13-3.27-14.44-.54-4.31 3.19-5.64 8.97-5.5 14.07-2.7-.29-4.36-2.85-5.68-4.96-3.1-5.99-5.56-12.73-4.68-19.59.36-3.72 2.74-6.76 4.71-9.8.55.75 1.1 1.5 1.66 2.25 1.92-.59 4.47-2.81 6.05-.53 3.35 2.3 3.68 6.81 6.71 9.31.43-3.5-.17-7-.5-10.49 2.34 1.73 3.05 4.69 4.26 7.18.56-.98 1.12-1.97 1.61-2.99-.58-1.31-1.82-2.16-2.8-3.16 1.18-.98 2.35-1.96 3.52-2.95z"/>
    <path fill="#e72c31" d="M80.75 54.74c1.89-.57 3.9-.55 5.53.68-.68 1.06-1.37 2.12-2.05 3.19-1.21-.38-2.43-.73-3.64-1.11-.19-.57-.56-1.72-.74-2.3l.9-.46z"/>
    <path fill="#bd2524" d="M63.58 54.87c3.05 3.45 7.7 1.23 11.33.22-3 6.86-6.51 13.69-7.61 21.18-2.59-.96-5.2-1.9-7.83-2.74-.08-.33-.23-1-.31-1.34.53-2.16 1.53-4.23 1.75-6.46-.27-1.74-.92-3.72 1.11-4.65 1.33.89 2.67 1.75 4.03 2.59-.51-2.57-1.62-4.96-3.15-7.08.24-.57.46-1.14.68-1.72z"/>
    <path fill="#c52726" d="M70.11 72.41c1.57-6.48 5.02-12.5 9.74-17.21.18.58.55 1.73.74 2.3 1.21.38 2.43.73 3.64 1.11.68-1.07 1.37-2.13 2.05-3.19 1.23 1.12 3.27 1.91 3.28 3.85 1.07 6.09-2.88 12.37-8.58 14.54-2.3.76-4.19 2.26-5.74 4.08.65-3.37-.5-6.67-1.52-9.83-.85 1.72-1.75 3.52-3.61 4.35z"/>
    <path opacity=".07" d="M53.07 56.84c2.1 5.09 4.24 10.17 6.09 15.35.08.34.23 1.01.31 1.34l.76 3.52c-.72 1.98-.72 4.13.13 6.06-.33.22-.99.64-1.31.85-.45-8.43-2.7-16.92-7.68-23.84l1.98.51c-.1-1.26-.19-2.53-.28-3.79zm13.25 31.45c.55-.04 1.66-.13 2.22-.17.74 2.64 1.1 5.36 1.25 8.1-.51 3 .22 6.4-1.55 9.05 1.35-5.85-2.55-11.15-1.92-16.98z"/>
    <path fill="#350a09" opacity=".58" d="M60.23 77.05c.72 1.81 1.81 4.52.13 6.06-.85-1.93-.85-4.08-.13-6.06z"/>
</svg>
