<svg width="128pt" height="128pt" viewBox="0 0 128 128" xmlns="http://www.w3.org/2000/svg">
    <path fill="#fff" d="M40.65 13.87c.38.14 1.16.41 1.55.54.25 4.11.55 8.28 2.04 12.16 2.17 5.57 2.64 11.9 6.38 16.78.31 4.08.53 8.33 2.07 12.15 1.68 2.36 3.48 4.91 6.08 6.32-.18-.68-.54-2.05-.72-2.74.26-.58.77-1.75 1.03-2.34-3.54-2.84.31-6.85 1.97-9.59.86 1.87 1.51 3.82 1.93 5.83-.48-.55-1.42-1.66-1.89-2.21-1.37 1.17-.69 2.43.1 3.64l2.8.8 2.79-.68c.83-1.24 2.03-2.54.36-3.79l-2.05 2.25c.6-1.96 1.23-3.92 1.98-5.83 1.73 2.67 5.41 6.62 2.17 9.54.64 1.71.67 3.53.54 5.34 2.42-2.57 5.52-4.95 6.44-8.52.67-3.31 1.07-6.66 1.53-10 3.46-5.89 4.63-12.68 6.85-19.05 1.07-3.23.96-6.66 1.5-9.98.37-.11 1.11-.34 1.48-.45-.53 4.42-1.21 8.82-2.14 13.18-.28 3.64-1.04 7.26-2.67 10.56-2.04 6.57-3.19 13.37-4.05 20.18-2.66 2.65-5.44 5.2-7.95 7.99 1.33-.72 2.54-1.63 3.69-2.61 2.42-.4 4.91-.8 7.03-2.13 7.69-5.6 16.26-9.9 24.99-13.59 2.15-.93 3.95-3.01 6.44-2.86-2.99 3.29-7.44 4.44-10.96 7.01-4.68 2.29-8.58 5.9-13.53 7.65-3.07 2.31-5.94 5.06-9.71 6.21-2.58.62-4.65 2.33-6.82 3.77 3.06.29 6.14.4 9.2.73 3.1-.94 6.3-1.49 9.38-2.53 1.77-.66 3.86-.44 5.15 1.05-.81-.03-2.41-.1-3.22-.13-6.5 5.15-15.16 3.74-22.74 5.42 2.02 2.77 5.12 1.35 7.86.75 2.18 1.96 4.71 3.43 7.34 4.71 2.27 3.28 5.22 6.06 7.12 9.59 2.29 4.01 4.87 7.84 7.81 11.4-5.69-1.88-6.27-9.02-11-12.09-2.51-4.27-6.44-7.58-10.72-9.93-2.55.2-5.07.83-7.65.87-1.76-1.33-3.55-2.65-5.55-3.58-2.88-.55-4.97 2.08-7.14 3.5-3.19.49-6.63-2.01-9.49.12-3.32 2.62-6.8 5.26-8.86 9.05-4.62 3.13-5.4 10.09-10.97 12.04 5.81-6.73 9.12-15.43 15.76-21.42 2.36-1.23 4.6-2.66 6.72-4.26 1.75.35 3.49.74 5.19 1.28.72-.74 1.44-1.48 2.17-2.21-7.52-1.46-16.01-.12-22.44-5.18-.87-.01-2.61-.04-3.48-.06 1.23-.86 2.72-1.46 4.25-1.18 3.9 1.07 7.81 2.28 11.82 2.84 2.55-.49 5.15-.53 7.74-.68-2.07-1.53-4.1-3.3-6.69-3.87-3.82-1.12-6.63-4.03-9.82-6.21-5.27-2.06-9.6-5.79-14.61-8.39-2.99-2.36-7.83-2.79-9.35-6.65 8 4.5 16.74 7.57 24.47 12.57 4.37 2.45 8.21 6.35 13.56 6.32 1.15 1.04 2.39 1.99 3.75 2.73-2.54-2.86-5.43-5.38-8.06-8.15-.78-8.49-2.76-16.86-5.76-24.86-.92-6.37-2.38-12.68-2.99-19.12z"/>
</svg>
