<svg width="128pt" height="128pt" viewBox="0 0 128 128" xmlns="http://www.w3.org/2000/svg">
    <g fill="#fff">
        <path d="M81.15 23.43c6.53-1.46 13.27-1.43 19.93-1.24 1.63-.05 2.98 1.04 4.46 1.56-.59.96-1.18 1.92-1.75 2.89-2.96-1.08-5.99.09-9 .24 2.77.89 5.74 1.35 8.58.45.17.53.5 1.59.66 2.12-4.55 5.28-5.65 13.5-1.1 19.11-.59-.06-1.77-.19-2.36-.26 1.14 2.92 2.03 5.93 2.58 9.02-1.08-1.21-2.11-2.45-3.14-3.7.97 3.73.79 7.63-.33 11.3-.19-.86-.58-2.56-.77-3.41-6.61 5.15-14.6 8.34-20.86 13.93-1.94.54-3.82 1.26-5.71 1.94-.41 1.01-.81 2.04-1.21 3.06-1.73-.74-3.48-1.42-5.3-1.86.25-1.11.5-2.22.74-3.33-3.88-1.39-7.79-2.72-11.75-3.88-4.32 6.16-7.45 13.25-12.95 18.52-3.25 3.58-8.61 3.63-13.07 4.11 4.91-4.49 10.27-8.47 15.3-12.83 2.99-2.55 6.34-4.83 8.57-8.14l.46.71c.11-.97.21-1.94.31-2.9-3.57-.45-7.05-1.49-10.63-1.95 1.69-.41 3.47-.43 5.11-1.02-.06-.14-.2-.42-.26-.57-8.83-1.22-17.61-2.82-26.18-5.25 7.79-.84 15.58-1.72 23.4-2.25 4.81-4.33 10.52-7.44 15.91-10.98 6.83-3.39 13.03-7.92 20.13-10.77 1.17-4.04 1.66-8.22 2.64-12.3-.8-.78-1.61-1.55-2.41-2.32m11.28 24.21c-.99 3.81-1.38 7.74-2.24 11.58-1.3 1.72-2.75 3.35-4.51 4.63l-.1.44c-3.43 2.27-7.15 4.02-10.79 5.92-2.01 1.21-4.45.69-6.65.52-6.59-.97-13.13-2.3-19.75-3.09.64.85 1.48 1.28 2.54 1.32 4.31.78 8.7 1.11 12.93 2.28 3.72 1.2 7.84-.51 11.39 1.49 1.38-.89 2.74-1.82 4.15-2.66l.2-.21c3.74-2.21 7.07-5.05 10.48-7.72.75-.78 2.13-1.38 2-2.66-.06-3.95.5-7.89.35-11.84z"/>
        <path d="M27.11 58.39c8.23-2.95 16.78-4.92 25.06-7.73.15.07.45.22.6.29-2.48 1.52-4.63 3.48-6.89 5.28-6.3.28-12.47 1.8-18.77 2.16zm10.7 14.57c1.28-.41 2.6-.62 3.93-.78l-.32-.37c.81-.15 2.42-.43 3.22-.57l-2.88 1.8c.76.52 1.51 1.04 2.26 1.57 2.33-1.13 4.65-2.25 6.98-3.37-6.36 5.61-12.66 11.33-19.59 16.22-3.87 2.46-7.8 4.84-11.61 7.4-1.83 1.36-4.25 1.06-6.38 1.44.89-2.61 1.55-5.4 3.16-7.69 8.54-5.29 17.55-9.85 26.8-13.79-1.01-.53-2.05-1.01-3.11-1.44-.61-.1-1.84-.31-2.46-.42zm42.47 3.76c1.59-2.81 5.09-3.96 8-5-.54 1.29-.99 2.64-1.78 3.8-1.81 1.24-4.15.99-6.22 1.2z"/>
    </g>
    <path fill="#363636" opacity=".21" d="M66.3 43.21c.52.48.52.48 0 0z"/>
    <path fill="#fdfdfd" d="M22.61 79.59c4.91-2.55 10.01-4.73 15.2-6.63.62.11 1.85.32 2.46.42-4.11 3.56-9.19 5.59-14.05 7.89-1.76.85-3.47 1.8-5.16 2.78.53-1.48 1.05-2.97 1.55-4.46z"/>
</svg>
