<svg width="128pt" height="128pt" viewBox="0 0 128 128" xmlns="http://www.w3.org/2000/svg">
    <path fill="#b22b2c" d="M82.35 13.82c2.42 2.13 3.3 5.33 4.45 8.22 1.79-1.79 3.22-3.89 4.22-6.22-.16 2.36-.32 4.72-.53 7.08 1.87-.38 3.77-.66 5.68-.81-1.17 1.86-2.67 3.63-4.99 4.08 2.96.74 5.94 1.52 8.75 2.75-2.19.83-4.45 1.44-6.76 1.8 2.07 1.83 4.47 3.22 7.09 4.12-2.66.7-5.36.32-7.95-.44-.91 2.49-1.54 5.15.34 7.51-2.92-1.2-4.32-3.72-4.97-6.62-.17.36-.53 1.08-.71 1.44l-.04.84c.3 1.47.1 3.14.96 4.43 1.39.32 2.79.57 4.21.76l-1.17 1.31c-1.65.48-3.38.36-5.08.44l-3.04-3.88c.68 2.67 2.42 4.73 4.23 6.68l-.53-.18c-2.36-.67-4.54-1.82-6.54-3.24-.26 2.37-.49 4.75-.68 7.12-1.12-2.63-2.1-5.33-3.22-7.96-.17 2.92.07 5.85.57 8.73-1.84-1.23-3.52-2.67-5.01-4.3.47 1.52.91 3.05 1.33 4.59-.96 1.69-4.21.53-4.42 2.97 1.28.89 2.76 1.41 4.19 2.01-2.07.87-4.32.6-6.49.36.86 6.95.21 14.43 3.58 20.8 1.66 3.54 6.8 5.01 9.72 2.16.83-2.01.01-4.17-1.21-5.81-4.83-6.61-4.41-17.58 3.28-21.92 2.38-.29 5.02-1.07 7.25.21 2.91 1.63 6.08 2.99 8.55 5.28-4.15.58-8.09-1.03-12.02-2.05.09 1.49.17 2.98.24 4.48-.72-1.97-2.31-3.72-4.58-2.74-2.52 2.35-1.81 6.17-1.74 9.26.12 4.91 5.93 8.46 4.19 13.57-2.23 4.7-8.42 5.61-12.87 3.76-.24-.27-.71-.82-.95-1.1-.25 4.15.65 9.76 5.67 10.43.41 2.05.81 4.12 1.14 6.19 1.74.1 3.48.16 5.21.38-1.31 1.9-4.44.89-6.43 1.21 1.13.71 2.31 1.36 3.41 2.13-1.67.22-3.36.34-5.04.34 1.04.84 2.05 1.71 3.05 2.59-3.97.2-7.99.46-11.74 1.88-1.42-2.04-4.7-1.82-5.62-4.18-.88.35-2.63 1.04-3.51 1.38 2-1.81 2.16-3.49.47-5.04l1.19.1c4.7-.23 9.99 3.68 14.06-.26-1.12-.38-2.25-.75-3.37-1.13.48-3.19-2.78-3.56-4.95-4.44-.28-.22-.83-.66-1.1-.88-.19-.55-.58-1.66-.77-2.21-1.45.76-2.89 1.54-4.38 2.21-1.76-1.33-3.13-3.12-4.76-4.61l4.15.6c1.31-3.79-1.83-7.22-1.24-10.99.67-2.44 2.2-4.55 2.75-7.02.3-2.57-1.29-4.76-2.62-6.79l-.69.05c-.9-.72-1.71-1.52-2.43-2.41-.43-.91-1.07-1.61-1.93-2.12-2.23-2.28-2.65-5.69-4.78-8.05-1.08-2.16-3.28-2.64-5.51-2.7l-1.89-3.33c-.48.26-1.44.76-1.91 1.02-1.74-2.81-5.79-.71-8.4-1.04.47-.68 1.43-2.04 1.9-2.72-.3-.66-.91-1.97-1.22-2.63l-1.66-.09c.9-.92 1.91-1.66 3.06-2.24-.1-1.07-.31-3.2-.41-4.26 1.22.75 2.43 1.5 3.65 2.27 1.47 4.34 6.65 4.16 9.66 6.93 3.13-4.2 8.52-5.1 13.35-5.95-1.86-1.04-3.57-2.33-4.79-4.1 3.77.39 7.06 2.44 10.72 3.2 3.98.41 8.09 0 11.84-1.46-1.68-.56-3.37-1.08-5.07-1.57-.92-.25-1.82-.55-2.7-.91-.16-.55-.48-1.66-.64-2.22 3.35-.14 6.68.16 9.99.65-1.09-4.27-6.3-3.59-9.63-4.77.46-1.53.94-3.05 1.43-4.57 5.42-.97 10.8-2.58 16.37-1.95-.34-1.25-.67-2.51-.98-3.77-.06-.66-.17-1.98-.23-2.64m-2.8 10.19c.22 1.33.95 1.58 2.21.77-.22-1.33-.96-1.59-2.21-.77z"/>
    <g fill="#170505">
        <path opacity=".41" d="M82.58 16.46c.31 1.26.64 2.52.98 3.77-5.57-.63-10.95.98-16.37 1.95-.49 1.52-.97 3.04-1.43 4.57 3.33 1.18 8.54.5 9.63 4.77-3.31-.49-6.64-.79-9.99-.65.16.56.48 1.67.64 2.22-1.03-.88-2.04-1.78-3.05-2.68 2.13-.11 4.25-.32 6.38-.51-2.75-.68-5.49-1.46-8.06-2.69 1.27-1.61 2.51-3.26 3.69-4.95-.8.18-2.39.54-3.18.72.99-1.56 2.55-.97 4-.57 4.96-2.54 10.67-3.07 16.16-3.22l.6-2.73z"/>
        <path opacity=".41" d="M55.38 33.6l.09-4.17c.57 1.67.61 3.79 2.14 4.97 2.57 2.08 6.05 1.76 9.13 1.58 1.39-.07 2.77-.13 4.16-.2-.72-.59-1.44-1.18-2.16-1.78 1.7.49 3.39 1.01 5.07 1.57-3.75 1.46-7.86 1.87-11.84 1.46-3.66-.76-6.95-2.81-10.72-3.2 1.22 1.77 2.93 3.06 4.79 4.1-4.83.85-10.22 1.75-13.35 5.95-3.01-2.77-8.19-2.59-9.66-6.93 2.39 1.85 4.98 3.47 7.99 4.09-.14-3-2.22-5.15-4.01-7.32.64.17 1.92.5 2.56.67 1.32 2.53 2.2 5.24 2.73 8.04 2.45-1.81 5.08-3.34 7.71-4.86l2.61.04c-.52-1.39-1.03-2.78-1.53-4.18 1.43.06 2.86.11 4.29.17zm43.8 6.8c.54 2.9.56 5.88 1.33 8.74.71 2.38-1.66 4.05-2.72 5.89.68 2.13-.33 3.91-1.68 5.51l1.91-.48c-.01 1.59-.01 3.18 0 4.78-1.66-.39-3.33-.76-5-1.08 1.37-.5 3.23-.55 4-2.02-2.97-1.59-5.98-3.13-9.11-4.37.2.41.61 1.24.82 1.65-1.05.61-2.07 1.26-3.08 1.92l-.02-.38c-.07-1.5-.15-2.99-.24-4.48 3.93 1.02 7.87 2.63 12.02 2.05-2.47-2.29-5.64-3.65-8.55-5.28-2.23-1.28-4.87-.5-7.25-.21 4.15-2.61 9.32.02 13.88-1.34-1.57.64-3.17 1.21-4.76 1.82 3.36 3.35 10.63.16 8.85-4.68-.74-2.62-.72-5.35-.4-8.04zm-23.11 2.65c1.12 2.63 2.1 5.33 3.22 7.96.19-2.37.42-4.75.68-7.12 2 1.42 4.18 2.57 6.54 3.24-2.18.52-4.28-.36-6.31-1.05.16 1.59.33 3.18.49 4.77-3.3.04-5.76 2.08-8.02 4.24l.06 1.96c-1.43-.6-2.91-1.12-4.19-2.01.21-2.44 3.46-1.28 4.42-2.97-.42-1.54-.86-3.07-1.33-4.59 1.49 1.63 3.17 3.07 5.01 4.3-.5-2.88-.74-5.81-.57-8.73z"/>
    </g>
    <path fill="#3f0e0e" opacity=".62" d="M39.52 21.68c1.17.32 2.34.63 3.52.95l-.35.49c-.69.99-1.39 1.98-2.08 2.97l-5.43-.18c.5.66 1.5 1.97 2 2.63-.71-.19-2.12-.55-2.82-.73l.06-.44c.2-2.92 4.43-1.95 6.5-2.88-.35-.7-1.05-2.1-1.4-2.81z"/>
    <path fill="#9a2425" opacity=".95" d="M58.57 28.21c-.41-2.34 1.24-4.31 3.25-5.23.79-.18 2.38-.54 3.18-.72-1.18 1.69-2.42 3.34-3.69 4.95 2.57 1.23 5.31 2.01 8.06 2.69-2.13.19-4.25.4-6.38.51-1.72.04-3.35-.9-4.42-2.2z"/>
    <path d="M40.61 26.09c.69-.99 1.39-1.98 2.08-2.97.74.96 1.47 1.93 2.21 2.89-.24 1.15-.47 2.29-.69 3.44 1.96 2.68 3.94 5.37 5.8 8.12-2.63 1.52-5.26 3.05-7.71 4.86-.53-2.8-1.41-5.51-2.73-8.04-.64-.17-1.92-.5-2.56-.67l-1.12-1.12c-.5-.13-1.49-.4-1.98-.54.8-1.57 2.63-1.81 4.07-2.46-.2-.26-.6-.8-.8-1.06-.5-.66-1.5-1.97-2-2.63l5.43.18zm52.48 8.83c3.12 1.85 6.72 1.68 10.19 1.56-2.47 2.31-7.24 3.74-9.62.57-.14-.53-.43-1.59-.57-2.13zm2.4 16.38c3.57-2.7-.33-8.48 3.69-10.9-.32 2.69-.34 5.42.4 8.04 1.78 4.84-5.49 8.03-8.85 4.68 1.59-.61 3.19-1.18 4.76-1.82zM71.06 88.54c3.27-.24 7.71-1.94 10.06 1.31l-1.48-.04c-1.69-.19-3.66.03-4.65 1.61l-1.08 1.32c-1.43-1.08-2.74-2.29-2.85-4.2z" fill="#af2829"/>
    <path fill="#2a0a0a" opacity=".65" d="M79.55 24.01c1.25-.82 1.99-.56 2.21.77-1.26.81-1.99.56-2.21-.77z"/>
    <path fill="#300b0a" opacity=".49" d="M34.36 27.81c.01-.11.04-.33.06-.44l-.06.44z"/>
    <path fill="#010000" opacity=".18" d="M93.17 30.72c2.31-.36 4.57-.97 6.76-1.8-1.14 1.06-2.25 2.15-3.35 3.23 2.57.88 5.04 2.11 6.7 4.33-3.47.12-7.07.29-10.19-1.56.14.54.43 1.6.57 2.13-.27.45-.82 1.34-1.09 1.79.42.79.84 1.59 1.27 2.39-.95.97-1.91 1.92-2.91 2.84l1.17-1.31c-1.42-.19-2.82-.44-4.21-.76-.86-1.29-.66-2.96-.96-4.43l.04-.84c.18-.36.54-1.08.71-1.44.65 2.9 2.05 5.42 4.97 6.62-1.88-2.36-1.25-5.02-.34-7.51 2.59.76 5.29 1.14 7.95.44-2.62-.9-5.02-2.29-7.09-4.12z"/>
    <path fill="#a02627" opacity=".96" d="M55.47 29.43c1.39.98 2.49 2.29 3.62 3.55 1.47 1.47 3.76 1.38 5.64 1.98.51.26 1.51.77 2.01 1.02-3.08.18-6.56.5-9.13-1.58-1.53-1.18-1.57-3.3-2.14-4.97z"/>
    <path fill="#1a0505" opacity=".49" d="M33.91 32.06c.49.14 1.48.41 1.98.54l-.65.56c-.33-.28-1-.82-1.33-1.1z"/>
    <path fill="#230808" opacity=".49" d="M59.09 32.98c1.65-.88 5.67-.17 5.64 1.98-1.88-.6-4.17-.51-5.64-1.98z"/>
    <path fill="#230808" opacity=".45" d="M36.11 47.66c.47-.26 1.43-.76 1.91-1.02l1.89 3.33c2.23.06 4.43.54 5.51 2.7-1.76.51-3.52.97-5.3 1.4 1.17-.85 2.29-1.76 3.41-2.67-1.38-.05-2.76-.09-4.14-.13-.98 1.17-1.96 2.33-2.93 3.5.34.15 1.03.43 1.37.58l1.21.53c-1.33.24-2.66.45-4 .64.62-2.13 2.2-3.72 3.41-5.51 1.39-1.81-1.12-2.69-2.34-3.35z"/>
    <path d="M39.39 51.27c1.38.04 2.76.08 4.14.13-1.12.91-2.24 1.82-3.41 2.67-.57.32-1.72.96-2.29 1.28-.34-.15-1.03-.43-1.37-.58.97-1.17 1.95-2.33 2.93-3.5zm.73 13.32c.87 1.31 1.19 2.85 1.58 4.35 1-.62 1.99-1.26 3.04-1.82 3.62-1.96 8.68-1.63 10.74 2.38 1.81 2.08.49 4.46-.47 6.57-3.97-.34-7.34 1.54-10.26 4.02.96 2.24 2.77 3.83 5.14 4.46-2.31.63-2.75 2.33-2.19 4.4l-1.22-.41c-.17.57-.5 1.69-.66 2.26-.48-.17-1.43-.5-1.9-.67l-1.56 1.2c-1.03-.84-2.07-1.65-3.12-2.45-1.21 1.53-2.52 2.98-3.98 4.28-.62-1.18-.92-2.63-1.99-3.51-1.88-.82-3.95-.31-5.91-.14.91-1.22 1.47-2.58 1.23-4.11-.9.04-2.7.13-3.6.17.98-1.29 2.36-2.1 3.78-2.8 3.37 1.89 7.61 4.28 11.16 1.35-1.2-1.47-2.58-2.81-3.61-4.42-.43-1.46.43-2.89.6-4.32-2.07.8-3.96 1.96-5.62 3.44.31-3.77 3.83-5.31 6.92-6.33l1.79 1.35c-1.7-2.93-1.57-6.34.11-9.25z" fill="#b2292c"/>
    <path fill="#a52627" opacity=".97" d="M87.91 57.37c3.13 1.24 6.14 2.78 9.11 4.37-.77 1.47-2.63 1.52-4 2.02-1.48-1.52-3.38-2.76-4.29-4.74-.21-.41-.62-1.24-.82-1.65z"/>
    <path fill="#0f0303" opacity=".33" d="M50.2 60.72c.86.51 1.5 1.21 1.93 2.12-1.83.36-2.47-.35-1.93-2.12z"/>
    <path fill="#210708" opacity=".44" d="M44.74 67.12c2.47-3.14 6.5-1.27 9.82-1.87l.69-.05c1.33 2.03 2.92 4.22 2.62 6.79-.55 2.47-2.08 4.58-2.75 7.02-.59 3.77 2.55 7.2 1.24 10.99l-4.15-.6c1.63 1.49 3 3.28 4.76 4.61 1.49-.67 2.93-1.45 4.38-2.21.19.55.58 1.66.77 2.21l.13.39c-.98-.76-2.01-.93-3.09-.51-.18.74-.55 2.22-.74 2.96-2.69-2.27-4.9-5.04-7.06-7.8 1.54-.17 3.07-.33 4.61-.48-.61-3.82-2.47-7.49-1.58-11.44-1.88.18-3.76.36-5.64.57-.37 1.55-.9 3.08-2.52 3.76 1.56 1.11 3.11 2.25 4.59 3.47l-.93-.38c-2.37-.63-4.18-2.22-5.14-4.46 2.92-2.48 6.29-4.36 10.26-4.02.96-2.11 2.28-4.49.47-6.57-2.06-4.01-7.12-4.34-10.74-2.38z"/>
    <path fill="#060201" opacity=".31" d="M74.99 91.42c.99-1.58 2.96-1.8 4.65-1.61-.04 1.8-3.29 2.31-4.65 1.61z"/>
    <path fill="#210707" opacity=".43" d="M75.35 93.74c.95 1.67 1.43 3.72 2.86 5.05 1.54.4 3.15.44 4.73.62l-.28 1.76c-2.96 1.04-3.14 4.98-5.62 6.45-4.07-.33-8.02 1.18-12.09.84 3.75-1.42 7.77-1.68 11.74-1.88-1-.88-2.01-1.75-3.05-2.59 1.68 0 3.37-.12 5.04-.34-1.1-.77-2.28-1.42-3.41-2.13 1.99-.32 5.12.69 6.43-1.21-1.73-.22-3.47-.28-5.21-.38-.33-2.07-.73-4.14-1.14-6.19z"/>
    <path fill="#2b0a09" opacity=".51" d="M63.22 94.89c2.17.88 5.43 1.25 4.95 4.44 1.12.38 2.25.75 3.37 1.13-4.07 3.94-9.36.03-14.06.26 3.41-2.37 6.69 1.13 10.22.87-.38-1.48-.77-2.96-1.17-4.44-1.16-.68-2.28-1.41-3.31-2.26z"/>
</svg>
