<svg width="128pt" height="128pt" viewBox="0 0 128 128" xmlns="http://www.w3.org/2000/svg">
    <path d="M40.37 21.6c1.62 1.34 3.1 2.83 4.55 4.35-.32 1.09-.63 2.19-.94 3.28 2.12 2.8 3.64 6.05 6.42 8.32-2.92 1.38-5.74 2.95-8.2 5.07-.46-2.81-1.33-5.5-2.71-7.99-1.76-.66-3.32-1.69-4.71-2.95l-1.37 1.74c-.04-2.52 2.9-2.95 4.7-3.76-.32-.55-.95-1.65-1.27-2.2-.8 0-2.41-.01-3.21-.01 2.15-1.69 4.94-2.23 7.59-1.59-.34-1.4-.64-2.82-.85-4.26zm-.21 53.04c-1.46-3.61-1.85-7.69.87-10.81-.29 1.86-.03 3.71.55 5.49 2.26-1.5 4.56-3.07 7.25-3.66 3.97-.06 7.88 3.3 7.72 7.39-.56 1.15-1.26 2.23-1.93 3.31-2.53-.1-5.05.23-7.3 1.45.14.73.42 2.17.55 2.9-.65-.48-1.96-1.44-2.62-1.92-.78 3.15 2.23 4.91 4.74 5.74-2.11.74-3.7 1.95-2.41 4.44-.48-.14-1.43-.43-1.91-.57 1.18 2.91-1.95 1.55-3.49 2.48-.95-.74-1.91-1.47-2.89-2.17-1.27 1.42-2.49 2.89-3.68 4.38-.96-3.68-5.2-5.63-8.4-3.09.65-1.09 1.43-2.11 2.17-3.13-1.16-1.27-2.62-1.83-4.4-1.7 1.23-.8 2.46-1.6 3.69-2.39 3.15 1.85 7.14 4.38 10.72 1.97.27-2.62-2.5-4.11-3.66-6.2 1.18-1.31 2.35-2.62 3.52-3.95-2.91.85-5.71 2.06-7.99 4.09.72-3.67 4.02-5.47 7.5-5.87.35.46 1.05 1.36 1.4 1.82z" fill="#fff"/>
</svg>
