<svg width="128pt" height="128pt" viewBox="0 0 128 128" xmlns="http://www.w3.org/2000/svg">
    <path fill="#a52021" d="M65.4 26.49c1.22-1.66 3.97-.63 3.18 1.47.33 1.62-1.17 5.1 1.6 5.03 1.08-2.07.03-4.54.33-6.77-.3-1.71 4.27-.9 3.26.8-.31 2.19-.48 4.39-.54 6.6 2.03-2.05 2.44-4.93 2.64-7.69.7.17 2.1.52 2.81.7-.1.91-.31 2.72-.41 3.63-1.59.2-1.77.8-.55 1.8.35.24 1.04.71 1.38.95.3-.96.6-1.92.9-2.87.17-1.97 2.21-3.89 3.3-1.23-.85 2.15-1.93 4.23-2.36 6.53 2.53-.89 3.17-3.6 4.22-5.75l3.14.52c-1.5 2.31-3.2 4.49-4.51 6.91 2.44-.66 3.84-2.87 5.51-4.57.49.38 1.48 1.14 1.97 1.52-.92 2.31-3.81 4.03-2.75 6.88 1.3 5.37 5.58 10.64 11.05 11.99.25-1.98.76-3.98.47-5.97-.78-2.45-2.39-4.53-3.09-7.02 7.79 2.13 10.56 12.33 7.56 19.22 1.35 4.2 4.53 7.31 8.47 9.15-4.41 2.98-9.18 5.38-14.14 7.32-1.45.06-3.7-.65-3.65-2.43l-.12-.64c2.49 1.67 5.33 1.09 7.81-.23-1.47-2.07-2.97-4.23-5.29-5.43.66-.78 1.33-1.56 1.97-2.36 4.03-5.87 6.79-14.03 2.12-20.39 1.22 6.67-2.33 12.48-4.95 18.28-.2.48-.61 1.43-.81 1.9l1.9.72c-.67.41-1.35.82-2.04 1.23-2.73-1.03-5.63-1.64-8.26-2.94-.91-2.66 1.01-4.72 2.95-6.22-2.98-2.52-5.49-6.11-9.58-6.84-3.22-.21-6.92 1.39-7.72 4.8-1.35 3.48.78 7.1 3.38 9.33 4.55 4.48 11.41 4.27 16.76 7.33-.27.19-.8.57-1.06.76-4.25.16-8.49 1.03-11.85 3.79 4.38 8.35 10.55 15.83 13.65 24.8-1.41-.65-2.79-1.37-4.16-2.09-.53.37-1.58 1.1-2.1 1.47-2.87-3.07-4.06-7.23-6.79-10.39-1.93-2.33-4.42-4.09-6.76-5.97-1.51 5.82-1.65 11.85-1.12 17.82-2.12-.38-4.22-.88-6.31-1.37l-.03-.1c-.4-1.75-.83-3.5-1.26-5.24.48-.57.96-1.13 1.45-1.69.18 1.61.42 3.22.73 4.82 1.17.94 2.4 1.8 3.63 2.68-.52-5.07-.67-10.31 1.12-15.16.29-.88.59-1.75.89-2.62-1.8-1.41-3.6-2.84-5.39-4.27-.65-.01-1.96-.04-2.61-.05.5 4.68.71 9.38 1.07 14.08-.39-.03-1.19-.07-1.59-.09-.27-4.27-.7-8.53-.79-12.8-3 .33-6 .56-9.01.67-.02 2.81.05 5.67.86 8.39 1.2 4.33 2.67 8.59 4.66 12.63-1.75-.21-3.49-.36-5.24-.42-1.13-1.75-2.88-3.3-2.99-5.52 1.53 1.6 3.2 3.05 4.92 4.43-.89-6.8-4.62-13.04-3.81-20.08-1.44-.35-2.87-.78-4.35-.94-1 .86-1.84 1.88-2.72 2.86 1.81 4.65 3.72 9.27 5.96 13.73-.37-.18-1.11-.56-1.47-.75-2.69-3.66-4.41-7.96-5.57-12.33-3.81 3.24-7.82 6.23-11.9 9.12-.19 3.7.59 7.33 1.35 10.93-2.08-.8-4.16-1.61-6.26-2.38-1.6-4.45-3.33-8.89-4.33-13.51 2.93-4.45 6.65-9.19 6.21-14.87-.75-3.9-1.34-7.82-1.93-11.75-3.02-2.01-7.54-2.13-9.68-5.53-.25-.47-.74-1.41-.99-1.89 3.18 3.46 7.59 5.35 12.3 5.17-2-3.48-6.9-2.76-9.35-5.74-1.44-1.75-2.46-3.79-3.63-5.72-.28 1.3-.53 2.6-.77 3.91.09-2.19-.76-4.03-2.42-5.42 1.15-.77 2.13-1.72 2.98-2.8.23.31.69.94.91 1.25.71-.06 2.13-.18 2.84-.25-.91 2.13-2.16 4.5-.61 6.67 1.93 4.1 6.86 3.82 10.63 4.55-.3-2.79 2.46-1.61 4.15-1.69-.36-.95-.71-1.89-1.07-2.84.99.26 2.96.8 3.95 1.06l-1.92-3.44c1.97-.29 3.68.77 5.43 1.48-.83-1.45-1.79-2.83-2.47-4.37 2.13-.54 3.61 1.56 5.4 2.34-.09-2.13-3.55-4.13-1.91-5.99 1.75.99 3.03 2.58 4.5 3.91.84-3.15-4.03-4.58-1.84-7.76 2.09 1.86 4.16 3.78 6.57 5.25-.96-2.57-2.46-4.88-3.73-7.3.33-.06.99-.17 1.32-.23 1.9 1.54 3.21 3.76 5.42 4.96-.34-2.73-2.43-4.61-3.46-7.01.47-.26 1.4-.78 1.87-1.04 2.73.88 2.65 4.85 5.46 5.92.23-3.13-1.66-5.81-2.68-8.64.71-.01 2.13-.04 2.84-.06.72 2.57 1.39 5.38 3.89 6.84-.35-2.64-1.04-5.22-1.67-7.81.36-.32 1.07-.97 1.42-1.29 3.58.53.95 5.89 4 7.58.56-2.69-.55-5.26-.69-7.92M51.36 43.73c.07 1.09.2 3.26.27 4.35 3.29-2.27 6.09-5.42 10.02-6.59 3.07-1.17 6.39-1.22 9.63-1.23.93-1.58 1.82-3.18 2.69-4.8-8.46-1.3-16.01 3.68-22.61 8.27m28.82-2.16l.03 1.45-.02.51c1.13 1.09 3.21 1.06 4.46.19 1.11.75 2.22 1.49 3.34 2.23-.32-4.36-3.55-8.66-8.19-8.79-1.74.33-1.54 4.53.38 4.41m-5.59 4.51c.84 1.19 1.72 2.34 2.66 3.45 2.18-3.55.51-7.67-.68-11.24l.58-.97c-3.93 1.16-3.45 5.65-2.56 8.76m-10.07-2.05c-3.82.23-6.91 2.77-10.14 4.56l-.42.98c-2.06-.85-4.51 3.43-2.12 4.28 4.07-2.1 7.36-6.06 12.26-6.19 2.65.1 4.73-1.54 6.33-3.48l.47-.31c-.99-1.79-5.41-1.43-6.38.16M43.23 49.3c.23 5.54 1.05 11.37-1.21 16.64-1.54 4.46-5.07 8.07-9.52 9.67-.93 4.65-4.09 8.26-6.33 12.22.85 3.78 2.04 7.52 3.88 10.94l1.21-.57c.34-2.64.14-5.31.14-7.95 6.91-4.51 15.08-9.13 17.3-17.72 1.95-8.76.08-17.77.01-26.62-1.89 1.01-3.9 1.9-5.48 3.39m39.56-1.28c.3.26.91.78 1.22 1.05 1.74.03 1.72-3.04 0-3.01-.3.49-.92 1.47-1.22 1.96M65.9 72.13c3.28 8.04 11.98 11.41 17.16 17.91 2.15 2.57 3.43 5.81 6.06 7.98 1.78-3-.84-5.47-2.33-7.88-2.99-4.57-5.34-9.62-9.24-13.53-2.81-2.76-4.84-6.56-3.95-10.59.71-3.1-2.85-4.95-2.83-7.97-.55-3.36 1.93-5.97 3.05-8.9-.5-1.08-1.05-2.14-1.64-3.16-7.81 5.99-10.36 17.25-6.28 26.14m21.99-23.28c.38 4.89 5.76 6.44 9.11 9.01-.07-.62-.22-1.85-.29-2.47-2.73-2.44-5.08-5.62-8.82-6.54m-36.35 8.47c-.18 1.44-.37 2.9-.26 4.36 1.33.61 1.91-.69 2.62-1.55 2.6-2.17 5.55-3.82 8.68-5.1.87-1.46 1.28-3.12 1.8-4.72-5.16.45-8.8 4.26-12.84 7.01m-17.31-1.03c-2.79 4.81-2.17 10.64-1.08 15.85.99-.23 1.96-.51 2.92-.84 5.31-5.08 6.23-13.45 4.32-20.22-2.38 1.27-4.98 2.63-6.16 5.21m54.79 6.39c1.78.01 3.68.45 5.35-.36.25-1.09.44-2.19.57-3.3-2.74-.88-6.11.31-5.92 3.66m-30.11-2.94c-3.16 1.36-6.32 3.6-7.1 7.17-3.34 2.07 3.36 3.18 1.7 0 1.92-.37 3.68-1.26 5.44-2.08l3.1-.75-.06-5.35c-1.03.33-2.06.67-3.08 1.01m43.12 3.42c.69 2.66 2.79 4.64 4.78 6.39 2.21-.97-.21-3.28-.92-4.52-1.04-.85-2.41-3.74-3.86-1.87M50.56 73.44c-.54.96-.77 2.69.47 3.24 4.52 2.59 10.3 2.13 14.81-.28-1.57-2.93-2.66-6.07-3.96-9.12-4.6-.4-8.93 2.36-11.32 6.16m26.36-1.94c.25 1.43 1.4 2.4 2.23 3.51 1.68-1.06 3.41-2.05 5.04-3.2 1.25.68 2.11.33 2.59-1.06-.62-1.31-1.47-1.41-2.55-.3-2.26-.82-4.5-1.7-6.64-2.82-1.65-2.5-2.98 3.9-.67 3.87m24.34-4.44c-.56 1.36 1.17 3.54 2.62 2.94.62-1.36-1.19-3.56-2.62-2.94z"/>
    <path opacity=".06" d="M73.77 27.02c1.8-1.68 4.31-1.32 6.56-1.32-.04 1.48-.15 2.96-.33 4.44-.3.95-.6 1.91-.9 2.87-.34-.24-1.03-.71-1.38-.95.14-.45.42-1.35.55-1.8.1-.91.31-2.72.41-3.63-.71-.18-2.11-.53-2.81-.7-.2 2.76-.61 5.64-2.64 7.69.06-2.21.23-4.41.54-6.6zm9.02 21c.3-.49.92-1.47 1.22-1.96 1.72-.03 1.74 3.04 0 3.01-.31-.27-.92-.79-1.22-1.05zm5.1.83c3.74.92 6.09 4.1 8.82 6.54.07.62.22 1.85.29 2.47-3.35-2.57-8.73-4.12-9.11-9.01z"/>
    <path fill="#1a0505" opacity=".4" d="M55.59 28.43c1.7-.1 3.39-.19 5.08-.31.63 2.59 1.32 5.17 1.67 7.81-2.5-1.46-3.17-4.27-3.89-6.84-.71.02-2.13.05-2.84.06 1.02 2.83 2.91 5.51 2.68 8.64-2.81-1.07-2.73-5.04-5.46-5.92-.47.26-1.4.78-1.87 1.04 1.03 2.4 3.12 4.28 3.46 7.01-2.21-1.2-3.52-3.42-5.42-4.96-.33.06-.99.17-1.32.23 1.27 2.42 2.77 4.73 3.73 7.3-2.41-1.47-4.48-3.39-6.57-5.25l2.25-.04c.08-.63.22-1.89.3-2.53.57-.24 1.7-.74 2.27-.99.21-.6.63-1.8.84-2.41 1.47-.16 2.95-.3 4.43-.44.16-.6.5-1.8.66-2.4z"/>
    <path fill="#5f1112" opacity=".83" d="M77.72 32.06c-1.22-1-1.04-1.6.55-1.8-.13.45-.41 1.35-.55 1.8z"/>
    <path fill="#250607" opacity=".55" d="M80.18 41.57c-1.92.12-2.12-4.08-.38-4.41.28 1.45.37 2.94.38 4.41z"/>
    <path fill="#1d0505" opacity=".45" d="M74.59 46.08c-.89-3.11-1.37-7.6 2.56-8.76l-.58.97c-1.71 2.24-2.16 5.04-1.98 7.79z"/>
    <path fill="#1c0505" opacity=".45" d="M64.52 44.03c.97-1.59 5.39-1.95 6.38-.16l-.47.31c-1.97.02-3.94-.12-5.91-.15z"/>
    <path fill="#150404" opacity=".44" d="M80.21 43.02c1.49-.46 3.21-.34 4.44.7-1.25.87-3.33.9-4.46-.19l.02-.51z"/>
    <path fill="#080101" opacity=".27" d="M17.06 46.63c1.17 1.93 2.19 3.97 3.63 5.72 2.45 2.98 7.35 2.26 9.35 5.74-4.71.18-9.12-1.71-12.3-5.17.03-.44.08-1.32.1-1.76l-.74-.2-.41.67 1.05 1.29c.25.48.74 1.42.99 1.89-2.22-.15-2.94-2.41-2.44-4.27.24-1.31.49-2.61.77-3.91z"/>
    <path fill="#2c0809" opacity=".49" d="M51.84 53.85c-2.39-.85.06-5.13 2.12-4.28-.62 1.47-1.32 2.9-2.12 4.28z"/>
    <path fill="#6b1614" opacity=".82" d="M17.1 50.96l.74.2c-.02.44-.07 1.32-.1 1.76l-1.05-1.29.41-.67z"/>
    <path fill="#500f0f" opacity=".7" d="M51.28 61.68c-.11-1.46.08-2.92.26-4.36.38 1.21.76 2.42 1.16 3.63l1.2-.82c-.71.86-1.29 2.16-2.62 1.55z"/>
    <path fill="#230707" opacity=".49" d="M58.91 59.74c1.02-.34 2.05-.68 3.08-1.01l.06 5.35-3.1.75c1.5-1.17 2.19-2.93 2.51-4.75-.64-.08-1.91-.26-2.55-.34z"/>
    <path fill="#190404" opacity=".4" d="M102.03 63.16c1.45-1.87 2.82 1.02 3.86 1.87.71 1.24 3.13 3.55.92 4.52-1.99-1.75-4.09-3.73-4.78-6.39z"/>
    <path fill="#380b0b" opacity=".59" d="M53.51 66.91c1.66 3.18-5.04 2.07-1.7 0h1.7z"/>
    <path fill="#200607" opacity=".49" d="M76.92 71.5c-2.31.03-.98-6.37.67-3.87-.18 1.3-.45 2.58-.67 3.87z"/>
    <path fill="#1c0505" opacity=".47" d="M101.26 67.06c1.43-.62 3.24 1.58 2.62 2.94-1.45.6-3.18-1.58-2.62-2.94z"/>
    <path fill="#300a09" opacity=".61" d="M84.23 70.45c1.08-1.11 1.93-1.01 2.55.3-.48 1.39-1.34 1.74-2.59 1.06l.04-1.36z"/>
    <path fill="#7e1718" opacity=".89" d="M92.25 72.51c.26-.19.79-.57 1.06-.76.44.21 1.32.62 1.76.82l.12.64c-1.28.96-2.26.73-2.94-.7z"/>
    <path fill="#1d0506" opacity=".39" d="M65.34 78.94c.65.01 1.96.04 2.61.05 1.79 1.43 3.59 2.86 5.39 4.27-.3.87-.6 1.74-.89 2.62-1.07-2.88-3.26-5.02-5.8-6.65-.63 6.41.65 12.75 1.05 19.13-.31-1.6-.55-3.21-.73-4.82-.49.56-.97 1.12-1.45 1.69.43 1.74.86 3.49 1.26 5.24-1.85-1.84-1.65-4.64-2.26-7-.9-3.96-1.21-8.01-1.2-12.06-2.54.05-5.07.15-7.6.28.02 2.5.07 5 .16 7.5-.81-2.72-.88-5.58-.86-8.39 3.01-.11 6.01-.34 9.01-.67.09 4.27.52 8.53.79 12.8.4.02 1.2.06 1.59.09-.36-4.7-.57-9.4-1.07-14.08z"/>
</svg>
