<svg width="128pt" height="128pt" viewBox="0 0 128 128" xmlns="http://www.w3.org/2000/svg">
    <path fill="#fff" d="M65.21 26.57c.73-.2 2.19-.6 2.93-.8 1.34 2.3-.59 5.25.76 7.62 3.68-.57 1.19-5.36 1.39-7.78.94.04 2.81.13 3.74.18-.27 2.44-1.55 4.89-.81 7.37 2.9-.89 2.02-4.62 2.5-6.94l3.23.24c-.47 2.35-1.83 4.64-.94 7.07 1.88-1.66 2.31-4.23 3.53-6.32.43.44 1.3 1.3 1.74 1.73-1.05 2.27-2.46 4.44-2.42 7.04 3.66-1.11 2.74-7.49 7.3-6.08-1 2.99-4.35 4.69-4.32 8.12 2.4-1.19 3.54-4.43 6.15-5.07.39.46 1.17 1.38 1.55 1.85-3.4 1.54-3.21 5.29-4.13 8.36-.88-3.87-4.67-5.64-8.08-6.68-.42 2.48.12 4.92.78 7.3 2.91-.49 5.53.67 7.86 2.3-2.42-.74.33-4.09 1.09-2.41 2.38 4.13 5.72 7.74 10.01 9.9.63-1.79 1.54-3.61 1.21-5.57-.04-3.01-2.5-5.11-3.37-7.85 6.84 1.49 9.84 10.07 8.29 16.33-2.05 5.38 3.53 10.05 8.02 11.91-2.41.99-4.71 2.13-6.62 3.91-2.71.76-5.11 2.22-7.7 3.26-2.53.05-4.34-2.52-6.85-2.79-4.21-.76-8.23 1.1-11.78 3.16 4.15 8.64 10.46 16.13 13.81 25.16-1.51-.74-2.98-1.57-4.44-2.4-.44.42-1.31 1.26-1.75 1.68-2.7-2.63-3.65-6.41-6.01-9.28-2.03-2.87-4.9-4.94-7.68-7-1.74 5.75-1.33 11.77-1.47 17.68-1.97-.1-3.82-.83-5.72-1.28-2.16-6.52-3.1-13.48-2.92-20.34-2.97.48-5.98.75-9 .66-.28 7.33 2.2 14.53 5.48 20.99-1.65-.34-3.32-.76-4.99-.3-3.95-5.21-8.12-10.56-9.75-17.03.08-.32.23-.96.31-1.28.23-.01.68-.01.9-.02 1.04 4.91 3.41 9.43 6.09 13.63 1.04 1.73 2.91 2.67 4.51 3.8-.98-6.82-5.13-13.1-4.01-20.21-1.49-.47-2.96-.99-4.43-1.5-4.56 4.98-10.28 8.68-15.6 12.78-1.17 3.71.51 7.47 1.15 11.11-2.08-.76-4.09-1.68-6.18-2.41-1.84-4.34-3.09-8.9-4.5-13.39 3.43-4.54 7.17-9.83 6.27-15.91-.93-3.72-1.36-7.52-1.87-11.31-3.43-.94-7.22-1.84-9.56-4.77-1.75-2.11-3.37-5.16-2.22-7.9.46 3.3 1.65 6.81 4.52 8.77 2.35 1.79 5.39 1.91 8.19 2.37-.03-.53-.09-1.6-.11-2.14-2.58-.93-5.6-.96-7.78-2.8-1.99-1.4-2.66-3.85-3.84-5.85-1.28-.67-2.58-1.29-3.91-1.85.11-.35.33-1.04.44-1.38l2.2 1.08c.13-.85.38-2.54.5-3.39.28.8.82 2.4 1.1 3.21.44-.69 1.32-2.05 1.77-2.73 1.27 1.45.08 2.7-.89 3.81.27 3.83 2.98 7.57 7.06 7.79 2.14-.09 5.94 2.11 5.54-1.67 1.16.48 2.34.9 3.54 1.26-.42-1.27-.8-2.56-1.12-3.86 1.27.67 3.49 1.57 2.65 3.41-5.19 4.97-5.6 13.43-2.76 19.7 5.79-2.99 7.65-9.78 7.56-15.84-.12-1.84.55-5.96-2.41-5.07-.33-.45-1.01-1.36-1.34-1.82l-1.95-1.43c1.74-2.47 3.87.49 5.91.8-.84-1.57-1.91-3.01-2.8-4.56 2.35-1.44 3.49 3.34 5.85 1.38-1.01-1.59-2.6-2.83-3.18-4.67 2.67-.93 3.39 3.92 6.32 2.98-.83-1.61-2-2.98-3.2-4.32-1.3-1.12.79-2.21 1.3-3.09 1.55 1.88 2.75 4.24 5.16 5.17.1-2.82-2.38-4.52-3.76-6.67.71-.61 1.42-1.21 2.14-1.81.89 2.47 2.36 4.74 4.78 5.93.23-3.13-2.23-5.08-4.42-6.82 1.2-.75 2.44-1.44 3.71-2.05 1.32 2.48 2.18 5.4 4.69 6.98.89-3.06-1.72-5.4-2.85-7.97.73-.41 2.19-1.24 2.92-1.66.89 2.55 1.52 5.21 2.98 7.52 2.28-2.05-.16-4.63-.62-6.89-1.02-1.78 1.99-1.72 2.99-2.11.37 2.4.46 4.89 1.31 7.18l1.13.06c1.13-2.49-.42-5-.8-7.47M51.54 43.26c-.43 1.8-.54 3.65-.56 5.5 1.08-.4 2.23-.47 3.34-.1-1.06.84-2.05 1.75-2.97 2.74l.12 3.34c4.16-2.93 8.12-7.19 13.61-7.08 3-.02 4.77-2.86 6.59-4.82-5.19-.13-10.39 1.24-14.66 4.24l-.29.22c-.52-.31-1.56-.93-2.07-1.24 4.31-4.51 10.72-5.94 16.76-5.85.94-1.55 1.89-3.1 2.78-4.68-8.44-1.92-15.82 3.67-22.65 7.73m26.33 6.29c1.11-4.2-.13-8.44-1.48-12.41-3.59 3.34-2.96 10.11 1.48 12.41m23.32 2.67c-1.52 3.96-3.65 7.66-5.09 11.65.02 2.06 3.41 1.94 3.94.1 4.21-6.03 6.13-14.53 1.24-20.79-.25 3.02 1.05 6.1-.09 9.04M42.5 49.83c2.89 9.2.12 22.28-10.09 25.61-1.09 4.45-3.39 8.59-6.64 11.84 1.15 3.89 2.18 7.85 4.04 11.48l1.53-.38c.49-2.72.04-5.5.17-8.24 7.27-4.25 15.38-9.42 17.51-18.19 1.6-8.62-.25-17.37-.01-26.05-2.43.84-4.67 2.12-6.51 3.93m38.69-3.53c-.05.61-.13 1.83-.18 2.44l2.26.43c-2.61 1.09-5.46 1.39-8.14 2.29-2.14 2.52-3.3 6.09-1.64 9.2 2.24 3.88 6.15 6.92 10.56 7.89 4.98.85 9.35 3.57 14.01 5.38 1.76.13 3.25-1 4.84-1.56-1.25-1.76-2.5-3.51-3.79-5.23-3.9-1.38-7.91-2.4-11.78-3.85-.26-2.73 1.23-4.89 3.52-6.24-3.38-1.73-4.89-6.06-9.04-6.3 1.43-.56 2.89-1.02 4.37-1.43.15-2.94-2.85-2.98-4.99-3.02M68.77 76.96c3.91 4.93 9.77 7.77 13.78 12.58 2.09 2.48 3.45 5.45 5.42 8 2.73.46 2.2-3.11.99-4.27-2.77-3.96-5.03-8.22-7.62-12.29-2.27-3.54-6.09-6.02-7.49-10.12-.86-2.21-.14-4.54.29-6.75-1.37-1.83-3.22-3.59-3.31-6.03-.25-3.34 1.7-6.21 3.3-8.97-.68-1.05-1.36-2.09-2.03-3.14-9.57 7.03-10.92 22.07-3.33 30.99m18.52-27.55c1.84 4.21 6.18 6.37 9.96 8.53l-.17-2.08c-2.88-2.51-5.38-7.24-9.79-6.45m-35.64 8c-.01 1.52.02 3.05.07 4.58 3.4-2.62 6.65-5.59 10.91-6.73.91-1.64 1.52-3.43 2.26-5.16-5.38.33-9.34 4.06-13.24 7.31m36.74 3.79c1.79 3.06 5.62 2.11 7.35-.46-.84-.79-1.48-2.05-2.75-2.16-1.99-.41-3.21 1.61-4.6 2.62m-37.28 8.01c3.26-2.36 6.9-4.01 10.63-5.45.17-1.69.01-3.38-.04-5.06-5.06 1.4-10.35 4.64-10.59 10.51m55.8.53c1.7-2.96-2.21-5.46-3.88-7.6-2.11 2.99 2.46 5.35 3.88 7.6m-57.54 5.42c4.06 4.68 11.59 3.86 16.62 1.28-1.49-3.03-2.93-6.11-3.82-9.38-5.57-.37-10.3 3.41-12.8 8.1m26.56-8.51c-.28 3.21.99 6.15 3.05 8.54 2.63-1.71 5.36-3.26 8.16-4.67-4.15.14-7.65-2.11-11.21-3.87m24.4-.86c.7 2.59 2.47 4.62 4.82 5.83-.7-2.58-2.44-4.62-4.82-5.83M65.45 78.96c.5 6.56.7 13.15 2.13 19.6 1.25.85 2.52 1.69 3.82 2.48-.39-5.91-.76-12.39 2.04-17.78-2.74-1.28-4.65-4.83-7.99-4.3z"/>
    <path fill="#999" opacity=".6" d="M50.98 48.76c.02-1.85.13-3.7.56-5.5.01 1.06.02 3.19.03 4.25.83-.44 1.65-.89 2.46-1.35l.62-.1c.51.31 1.55.93 2.07 1.24-.72.59-1.58.96-2.4 1.36-1.11-.37-2.26-.3-3.34.1z"/>
</svg>
