<svg width="128pt" height="128pt" viewBox="0 0 128 128" xmlns="http://www.w3.org/2000/svg">
    <path d="M68.04 15.28c.98-.81 1.66-2.19 2.95-2.5 1.78.21 3.13 1.49 4.28 2.75-.04 1.8-.08 3.61-.13 5.41-.19 0-.56-.01-.75-.02l-.38-.66c-.23-1.16-.51-2.29-.86-3.41-1.15-1.66-3.39-1.17-5.11-1.57zM50.61 39.33c6.27-6.48 13.97-11.24 21.15-16.61-.3.84-.88 2.5-1.17 3.33-6.82 4.96-13.33 10.54-18.08 17.57-.62-1.43-1.26-2.86-1.9-4.29zm-6.28 51.96l.23-.07c.14.56.44 1.69.59 2.25.65 2.67 1.62 5.25 2.78 7.74.49 1.09.99 2.18 1.38 3.32.69 3.13 1.09 6.35.9 9.56l-.88.96c-.96.9-2.07 1.22-3.33.96-1.73.53-2.94-.77-4.14-1.77 1.93-.21 4.14.68 5.95-.24 2.14-1.43 1.34-4.18.8-6.22-2.14-5.28-4.74-10.37-6.9-15.64l2.62-.85z" fill="#a32728"/>
    <path fill="#130404" opacity=".31" d="M75.27 15.53c.26 5.62 3.96 10.04 6.48 14.81 7.98 14.34 16.19 28.55 24.13 42.92-.51-.06-1.52-.19-2.02-.26l-.41-.1c-1.61-5.12-4.78-9.49-7.29-14.17-6.01-10.92-12.46-21.58-18.4-32.52-.9-1.51-2.07-2.81-3.15-4.18-.06-.28-.16-.83-.22-1.11.19.01.56.02.75.02.05-1.8.09-3.61.13-5.41z"/>
    <path fill="#ce3031" d="M50.61 39.33c.64 1.43 1.28 2.86 1.9 4.29-1.95 2.77-2.98 6.01-4.16 9.14l-.95.26c-2.96.36-.8 3.21 1.18 2.97 4.13 1.06 8.11 2.59 12.12 4.01-.2.7-.68 1.17-1.46 1.4-.47-1.07-1.33-1.63-2.56-1.67-3.91-.86-7.59-2.49-11.41-3.69-.32-.11-.97-.33-1.29-.43-2.66-.93-5.3-1.91-7.97-2.78.54-.19 1.63-.56 2.17-.74 1.84.53 3.59 1.31 5.37 1.99.21-2.85.72-5.92 2.92-7.97 1.12-1.09 2.01-2.38 2.58-3.84.39-.73 1.17-2.2 1.56-2.94z"/>
    <path fill="#571314" opacity=".59" d="M46.47 46.11c-1.26-1.48.68-4.87 2.58-3.84-.57 1.46-1.46 2.75-2.58 3.84z"/>
    <path fill="#260808" opacity=".37" d="M15.58 44.66c5.01.04 9.96.79 14.9 1.52.07.78.2 2.34.27 3.12-.4-.6-1.19-1.79-1.59-2.38-3.03-.57-6.09-1.04-9.18-1.1l-1.76.6-.45.16-2.19-1.92z"/>
    <path fill="#e73839" d="M18.22 46.42l1.76-.6c3.09.06 6.15.53 9.18 1.1.4.59 1.19 1.78 1.59 2.38 1.14.35 2.29.68 3.44 1.01.32.5.96 1.51 1.28 2.02-1.95-.68-3.89-1.41-5.82-2.16-.76.74-1.51 1.48-2.27 2.22-.36-.36-1.07-1.1-1.43-1.46-.75-.95-1.83-1.53-2.95-1.93-1.65-.74-3.2-1.69-4.78-2.58z"/>
    <path fill="#481111" opacity=".55" d="M23 49c1.12.4 2.2.98 2.95 1.93-1.13 1.32-3.78-.37-2.95-1.93z"/>
    <path fill="#4a1111" opacity=".56" d="M34.19 50.31c1.36.52 2.69 1.12 3.99 1.78-.54.18-1.63.55-2.17.74l-.57.2c-1.82-.55-3.62-1.15-5.42-1.77-1.07.57-2.13 1.13-3.2 1.7l.56-.57c.76-.74 1.51-1.48 2.27-2.22 1.93.75 3.87 1.48 5.82 2.16-.32-.51-.96-1.52-1.28-2.02z"/>
    <path fill="#260908" opacity=".44" d="M48.58 55.99c-1.98.24-4.14-2.61-1.18-2.97 1.28.68 1.67 1.67 1.18 2.97z"/>
    <path fill="#b52b29" d="M43.98 55.61c.32.1.97.32 1.29.43-.9 3.34-1.96 6.64-2.68 10.03-.65 2.6 1.48 5.15.29 7.72-.99 3.09-.86 6.36-.11 9.49.52 2.67.96 5.36 1.56 8.01l-2.62.85c-2.68-6.67-4.01-13.93-3.12-21.1.54-2.09 1.92-3.85 2.53-5.92.97-3.16 1.28-6.55 2.86-9.51z"/>
    <path fill="#240809" opacity=".44" d="M56.68 59.73c1.23.04 2.09.6 2.56 1.67-1.6.47-2.45-.09-2.56-1.67z"/>
    <path fill="#b32829" d="M61.2 61.85c.46-.22 1.37-.66 1.83-.88 5.9 1.42 11.47 4.02 17.28 5.8 4.64 1.35 9.04 3.94 14 3.82 3.18.06 6.08 1.59 9.14 2.31l.41.1 3.65 1.02-.42 5.06c-2.39-.74-4.77-1.49-7.17-2.17-2-.61-4.07-1.08-5.94-2.04-1.66-1.37-3.08-3.17-5.28-3.69-9.15-3.14-18.21-6.61-27.5-9.33z"/>
    <path fill="#4e1212" opacity=".72" d="M42.77 83.28c-.75-3.13-.88-6.4.11-9.49-.06 3.16-.04 6.33-.11 9.49z"/>
    <path fill="#1f0707" opacity=".39" d="M107.51 74.02c.37-.01 1.11-.04 1.48-.05-.44 1.81-.88 3.61-1.33 5.42-2.07.06-4.25.04-6 1.35-17.24 10.96-34 22.71-51.45 33.35.19-3.21-.21-6.43-.9-9.56 1.33 2.27 1.65 4.91 2.05 7.46 11.82-7.28 23.14-15.34 34.81-22.86 5.25-3.51 10.64-6.83 15.69-10.62-.48-.4-1.45-1.2-1.94-1.6 2.4.68 4.78 1.43 7.17 2.17l.42-5.06z"/>
    <path fill="#1c0607" opacity=".36" d="M45.15 93.47c1.82 2.18 2.38 5 2.78 7.74-1.16-2.49-2.13-5.07-2.78-7.74z"/>
    <path fill="#260809" opacity=".44" d="M48.61 107.78c.54 2.04 1.34 4.79-.8 6.22-1.81.92-4.02.03-5.95.24 1.2 1 2.41 2.3 4.14 1.77 1.26.26 2.37-.06 3.33-.96-1.33 2.59-4.49 2.53-6.82 1.49-.45-1.27-.85-2.56-1.18-3.86 1.93.32 3.85.73 5.81.92 1.68-1.49 1.29-3.82 1.47-5.82z"/>
</svg>
