<svg width="128pt" height="128pt" viewBox="0 0 128 128" xmlns="http://www.w3.org/2000/svg">
    <path d="M70.1 12.69c5.05-.3 5.4 4.98 5.57 8.66-2.85.79-4.19 4.13-6.64 5.76-8.7 6.63-17.38 14.58-20.53 25.44-4.32 1.21-3.67 5.97-4.84 9.34.2.73-1.4 3.12-1.73 1.23.29-3.03 1.12-6.2 2.41-8.97-1.67-3.32.92-6.45 2.47-9.22 3-5.22 7.41-9.42 12.25-12.93 4.63-3.8 10.2-6.49 14.17-11.08 1.04-1.41.13-3.18.01-4.72-1.7-.58-3.46-.57-5.22-.43.71-1.02 1.4-2.05 2.08-3.08zm5.85 9.11c7.73 11.28 13.19 23.96 20.79 35.35 2.4 5.68 6.03 10.73 8.55 16.35-5.23-7.57-8.63-16.18-14.01-23.67-4.8-9.47-10.42-18.56-15.33-28.03zM41.3 64.53c.52 1.45.98 2.94 1.21 4.47.29.34.85 1.03 1.14 1.37-1.84 7.5-.97 15.39 1.35 22.67 1.7 6.78 6.37 13.19 5.24 20.41 18.01-11.9 35.93-23.97 54.11-35.59-1.14 1.38-2.68 2.31-4.16 3.28-7.5 4.8-14.82 9.86-22.37 14.57l.65.76c-.55.06-1.65.19-2.2.25-9.62 6.86-20.06 12.6-29.3 19.94-1.53.59-3.04.03-4.47-.53-.11-1.25-.24-2.5-.39-3.74 1.95 2.18 5.97 2.91 6.99-.55.3-3.8-2.01-7.21-3.28-10.66-4.85-9.57-8.97-20.23-7.09-31.13.91-1.82 2.42-3.36 2.57-5.52z" fill="#fff"/>
</svg>
