<svg width="128pt" height="128pt" viewBox="0 0 128 128" xmlns="http://www.w3.org/2000/svg">
    <path fill="#b52b29" d="M55.33 17.87c1.21-1.3 3.43-3.74 4.87-1.28 2.49 3.59 6.24 5.81 9.67 8.35l1.73 1.21c3.02 1.59 5.51 4.01 7.94 6.37 3.69 3.5 5.66 8.32 8.88 12.19-1.37-.2-2.75-.4-4.12-.59-.16 1.78-.31 3.55-.43 5.33-1.39-2.9-3.12-5.6-4.74-8.36-.31-.96-.88-1.73-1.72-2.29-3.5-3.26-6.92-6.67-11.11-9.07-4.76-2.78-7.86-7.46-10.97-11.86z"/>
    <path fill="#b52b2b" d="M50.04 27.79c-1.31-1.62-.16-3.32.87-4.7 3.7 3.01 5.88 7.4 9.4 10.61 4.72 4.25 9.09 8.87 13.95 12.97l-.09.14c-1.43 2.26-2.58 4.73-2.83 7.43-.3-.42-.91-1.26-1.21-1.68-3.09-4.09-6.05-8.32-9.85-11.8-4.04-3.76-7.96-7.87-10.24-12.97z"/>
    <path fill="#300b0c" opacity=".53" d="M69.87 24.94l.86-.33.9.62-.03.92-1.73-1.21z"/>
    <path fill="#280909" opacity=".44" d="M77.41 38.8c.84.56 1.41 1.33 1.72 2.29-1.82.19-2.4-.57-1.72-2.29z"/>
    <path d="M84.3 44.12c1.37.19 2.75.39 4.12.59.09.41.25 1.23.33 1.64.32.42.96 1.27 1.28 1.69 2.18 2.97 2.85 6.67 4.19 10.03.11.57.33 1.71.44 2.27 2.71.18 5.41.36 8.12.55-.94-.92-1.94-1.79-2.72-2.86-.2-.75-.59-2.25-.79-3 1.91.72 3.82 1.45 5.73 2.19.27.1.81.31 1.08.41-1.49 2.98-.88 6.06 1.2 8.58.24-2.05.52-4.11.63-6.18 1.44.88 2.87 1.77 4.32 2.65-3.07 4.12-7.49 6.89-11.26 10.29-1.23 1.71-2.73-.61-4.06-.94 1.2-1.29 2.39-2.6 3.64-3.85.11-.86.21-1.72.32-2.58-1.68-.02-3.35-.06-5.02-.09-3.12 6.95-5.39 14.38-10.24 20.42-1.6.82-3.25 1.51-4.9 2.2l-1.16-3.23c2.87-4.73 5.85-9.51 7.69-14.75 1.34-3.55 1.44-7.42.18-11-.64-3.42-1.49-6.84-3.55-9.7.12-1.78.27-3.55.43-5.33zM71.34 54.24c.25-2.7 1.4-5.17 2.83-7.43 4.37 6.39 7.99 14.65 5.22 22.38-1.62 5.15-3.93 10.72-8.56 13.83-1.78.45-3.59.78-5.38 1.13 1.02-2.59 1.97-5.21 2.79-7.87 2.44-3.04 5.12-6.34 4.45-10.53-9.57.17-19.14.05-28.71.05-3.93-.5-5.85 3.42-8.23 5.76-1.79.01-3.58.01-5.36-.01 1.75-1.89 3.52-3.78 5.16-5.77-1.34.58-2.67 1.17-4 1.76-1.56-1.52-2.88-3.27-4.15-5.03 1.94-.82 3.87-1.63 5.81-2.44.71.29 2.12.88 2.83 1.17-1.84-2.18-3.76-4.3-5.68-6.43 1.78-.06 3.55-.1 5.33-.12.65.71 1.29 1.42 1.93 2.13 1.19 1.35 2.36 2.71 3.52 4.07 10.66.03 21.33.13 31.99-.14-.54-2.19-1.11-4.36-1.79-6.51m-8.06 7.89c-1.34.65-1.36 1.33-.08 2.02 1.34-.66 1.36-1.33.08-2.02z" fill="#bd2c2e"/>
    <path fill="#400f0e" opacity=".64" d="M88.75 46.35l.93-.04.65.88-.3.85c-.32-.42-.96-1.27-1.28-1.69z"/>
    <path fill="#871f1f" opacity=".78" d="M96.73 54.98c1.04-.84 2.09-1.68 3.13-2.52 1.74 1.56 3.49 3.11 5.14 4.76-1.91-.74-3.82-1.47-5.73-2.19.2.75.59 2.25.79 3-1.16-.96-2.26-2-3.33-3.05z"/>
    <path fill="#0b0202" opacity=".24" d="M70.13 52.56c.3.42.91 1.26 1.21 1.68.68 2.15 1.25 4.32 1.79 6.51-10.66.27-21.33.17-31.99.14-1.16-1.36-2.33-2.72-3.52-4.07 1.49.96 2.99 1.91 4.5 2.84 9.9.34 19.82.19 29.73.01-.56-2.37-1.17-4.74-1.72-7.11z"/>
    <path d="M15.93 54.84c1.75-.03 3.5-.05 5.25-.07 2.43 2.4 4.76 4.88 7.47 6.97-1.76-2.51-3.72-4.85-5.88-7.03 1.86.04 3.73.06 5.59.06 1.67 1.71 3.32 3.46 4.85 5.3-1.94.81-3.87 1.62-5.81 2.44 1.27 1.76 2.59 3.51 4.15 5.03l.44.44c-1.26 1.2-2.51 2.39-3.76 3.59-1.76-.04-3.51-.09-5.26-.15 1.83-1.98 3.7-3.93 5.28-6.12-2.68 1.66-4.77 4.04-6.94 6.27-1.74-.03-3.48-.05-5.22-.07 1.43-1.85 2.87-3.69 4.25-5.57-.76-.02-2.28-.05-3.04-.07.04-1.71.07-3.41.1-5.11.89-.02 2.66-.07 3.55-.09-1.72-1.9-3.37-3.86-5.02-5.82zm50.22 42.33c5.26-3.11 9.77-7.36 13.4-12.27l1.16 3.23c1.65-.69 3.3-1.38 4.9-2.2-3.32 5.99-8.08 11.32-14.03 14.77l-1.62 1.34c-.43.22-1.27.66-1.7.88-.98.23-1.78.75-2.39 1.56-2.38 2.1-5.04 4.07-6.25 7.13-1.17-1.22-2.36-2.43-3.54-3.64 2.71-4.13 5.72-8.26 10.07-10.8z" fill="#ad2829"/>
    <path fill="#c82e2f" opacity=".94" d="M106.08 57.63c.65.77 1.26 1.57 1.83 2.4-.11 2.07-.39 4.13-.63 6.18-2.08-2.52-2.69-5.6-1.2-8.58z"/>
    <path fill="#6c191a" opacity=".76" d="M87.42 59.15c1.26 3.58 1.16 7.45-.18 11-.08-3.67-.14-7.35.18-11z"/>
    <path fill="#f73839" d="M63.28 62.13c1.28.69 1.26 1.36-.08 2.02-1.28-.69-1.26-1.37.08-2.02z"/>
    <path fill="#ac2728" d="M48.41 98.78c5.13-8.75 13.43-14.82 19.83-22.5-.82 2.66-1.77 5.28-2.79 7.87 1.79-.35 3.6-.68 5.38-1.13-1.25 1.36-2.51 2.74-4 3.85-.91.41-1.6 1.06-2.08 1.95-1.39 1.61-3.19 2.78-4.83 4.12-3.51 2.51-5.41 6.53-8.5 9.46-1.01-1.21-2.01-2.41-3.01-3.62z"/>
    <path fill="#160505" opacity=".38" d="M64.75 88.82c.48-.89 1.17-1.54 2.08-1.95.39 1.8-.3 2.45-2.08 1.95z"/>
    <path fill="#230808" opacity=".43" d="M69.96 102.04l1.62-1.34.09.92-.83.69-.88-.27z"/>
    <path fill="#1e0707" opacity=".4" d="M65.87 104.48c.61-.81 1.41-1.33 2.39-1.56.11 1.8-.68 2.32-2.39 1.56z"/>
</svg>
