<svg width="128pt" height="128pt" viewBox="0 0 128 128" xmlns="http://www.w3.org/2000/svg">
    <g fill="#fff">
        <path d="M30.23 26.28c4.61-2.63 7.21-7.54 8.98-12.36.61 5.01-2.34 9.42-4.74 13.53-1.64 2.86-4.67 4.31-7.76 5.03 1.22 1.77 3.47.72 5.22 1.03 6.49-.03 12.64 2.95 17.48 7.12 2.63 2.64 6.72 1.14 10.01 1.86-4.46 3.01-10.57 3.78-13.27 8.97l1.72 1.08c-.69-.37-2.07-1.1-2.75-1.47l-.04 3.12c-3.11-2.81-5.58-6.24-8.48-9.25.25 5.32 6.94 7.24 7.54 12.42-2.56-2.32-4.52-5.2-6.85-7.74-1.15-1.13-.93-2.83-.89-4.28-3.27-3.35-7.58-5.24-12.04-6.47 1.79.34 5.39 1 7.19 1.34-1-1.54-2.89-1.79-4.44-2.45-.75.12-2.25.38-3 .51l.62 1.96c-.75-.59-2.23-1.78-2.98-2.37-.71-2.61-1.42-5.58-.08-8.1 2.24-2.27 5.73-2.35 8.56-3.48m2.38 14.15c.73 1.57 2.5 2.34 3.95 3.12 1.8-1.32-2.75-4.27-3.95-3.12m4.58 1.65c.7 4.15 4.93 6.03 7 9.37.24-.63.5-1.25.76-1.87-2.25-2.82-4.49-5.79-7.76-7.5zm52.16-28.3c1.85 4.91 4.52 9.95 9.27 12.6 3.05 1.19 7.73 1.06 8.98 4.75.41 2.43.17 5.08-1.15 7.2-1.88 1.54-4.51 1.28-6.66 2.23-2.9.72-5.2 2.72-7.31 4.73-3.08 1.32-4.34 4.97-7.09 6.83.49.45.99.9 1.48 1.36 1.61-2.78 3.97-5.03 6.22-7.28-1.55 4.38-5.42 7.29-8.03 11.01-.37-.93-.19-1.72.53-2.38-3.26-1.91-4.09-6.18-7.49-7.93-2.87-1.47-5.99-2.51-8.55-4.52 3.08-.52 6.81.8 9.36-1.49 2.89-2.6 6.38-4.41 9.88-6.05 4.26-1.6 8.89-1.12 13.33-1.67-2.12-1.77-5.26-2.05-6.93-4.41-3.13-4.37-6.09-9.42-5.84-14.98m9.02 24.49c-1.56 2.9 2.91.71 0 0m5.59-.07c-.87-.05-2.61-.16-3.48-.22-1.23 1.57 3.78 1.74 3.48.22M83.31 50.17c.5.33 1 .67 1.51 1.01 1.85-2.58 4.33-4.62 6.21-7.18 2.47-1.06 4.97-2.39 6.21-4.92-5.66 2.22-10.62 5.96-13.93 11.09z"/>
        <path d="M29.3 52.09c-1.01-2.39 1.66-3.82 3.54-4.27-2.03 1.35-2.51 3.14-1.03 5.22 1.28-1.08 2.57-2.14 3.88-3.18-.42 1.3-1.94 3.5.33 3.81 3.01 1 7.06 3.67 6.05 7.31.44 1.73.17 3.49-.66 5.06-.78-2.24-1.6-4.47-2.34-6.72.44-.35 1.32-1.04 1.75-1.39-.82.14-2.48.4-3.31.53 1.12 2.04 1.99 4.19 2.88 6.33-.39-.01-1.17-.02-1.56-.03-3.66-3.78-7.8-7.55-9.53-12.67zm66.77-4.4c1.2.67 2.37 1.39 3.54 2.11-.56 6.16-5.48 10.77-9.85 14.68-.84.07-2.52.2-3.36.26-.86-2.9.55-4.87 3.19-5.99-.13.93-.38 2.79-.5 3.72.78-1.42 1.44-2.9 2.08-4.38l-5.23 1.2c1.62-3.16 4.61-4.9 7.77-6.13l-.32-3.1c1.22 1.01 2.45 2 3.69 2.97 1.2-2.04.65-3.85-1.01-5.34zM25.45 62.87c.36-.68.73-1.35 1.09-2.02.07.83.2 2.5.27 3.33 3.61-1.39 7.86-3.26 11.07.05-1.89 2.07.65 3.47 1.75 4.78-4.88.42-9.81.45-14.68 0-2.67-.32-4.38-2.83-3.35-5.38.6-.07 1.8-.19 2.4-.25-.48.42-1.45 1.26-1.94 1.68 1.34 2.34 2.97 1.69 4.52.07-.29-.56-.85-1.7-1.13-2.26zm21.43-2.26c2.57 1.48 3.95 4.96 7.46 4.23.32.58.97 1.73 1.29 2.31-4.33 1.62-8.72-2.15-8.75-6.54zm31.09 3.57c1.24-1.22 2.12-2.89 3.9-3.41-.39 4.21-4.54 8.08-8.87 6.3.6-2.45 3.01-2.34 4.97-2.89zm23.71-2.85l1.03.08c-.07 1.39-.18 2.77-.33 4.15 1.54 1.2 3.06 1.57 4.17-.36l-1.44-2.52c1.16.79 2.53 1.8 2.41 3.39-.84 2.16-3.31 3.22-5.5 3.18-4.09-.15-8.29.68-12.27-.59.83-1.07 1.55-2.21 2.28-3.35L91 65.13l-1.06-.24c2-1.28 4.32-3.55 6.91-2.31 1.87.64 6.35 2.69 4.83-1.25z"/>
        <path d="M40.75 68.98c-.53-.81-1.6-2.42-2.14-3.23 2.17-.58 4.48 1.78 3.64 3.75-.73 2.11-1.35 4.27-.83 6.51 3.48 2.84 7.67 5.21 9.79 9.34.46.25.92.51 1.38.77-.94 2.92-.47 6.3 2.07 8.25-.34.25-1.02.76-1.36 1.02 2.09 2.89 6.35 3.19 9.66 3.58 3.92-.14 8.57.05 11.55-2.9-1.96 1.1-4.08 1.76-6.3 2.03.16-2.38.31-4.76.44-7.15 1.24 1.75 2.39 3.57 3.51 5.4 3.04-2.2 5.12-5.78 4.35-9.62 1.83-4.51 6.38-7.12 9.94-10.18 1.63-1.3.99-3.6.55-5.31 0-.84.01-2.54.02-3.39.41-.21 1.24-.63 1.65-.84l.15.61c-1.72 1.63-.03 3.51.31 5.3-.32 1.58-.98 3.05-1.63 4.5-3.13 1.97-6.14 4.16-8.7 6.82-.51 1.37-.18 3-1.75 3.77 2.84 1.8 5.95 3.29 8.05 6.03-1.53-.69-3.04-1.43-4.55-2.14-.69 3.81-2.19 10.44-7.2 9.75 1.76-1.99 4.46-3.61 4.61-6.55-2.75 2.22-5.03 5.27-8.44 6.5l1.25 1.86-.19-1.89c1.1-.01 2.18.14 3.23.46-.89 2.07-2.76 3.68-3.76 5.75-.23-.65-.68-1.95-.9-2.6-3.6 3.64-2.82 9.11-5.04 13.35-.85-3.91-1.32-8.01-3.38-11.54.33-.61.65-1.21.98-1.81.64.48 1.92 1.45 2.56 1.93-.82-1.66-1.97-3.12-3.15-4.54-1.63.71-2.23-1.28-3.19-2l-.84 1.4c.99.61 2.2 1.04 2.75 2.16.02 1.25-.95 2.26-1.36 3.4-1.35-4.54-6.52-5.51-8.61-9.49-.95-1.91-1.21-4.08-1.66-6.14-1.69.72-3.37 1.46-5.09 2.11 2.54-2.35 5.46-4.22 8.49-5.87-1.28-1.74-1.44-4.17-3.33-5.45-2.71-3.03-7.7-4.18-8.51-8.63-.59-1.88.91-3.58 1.38-5.33l-.4.25m36.21 22.63c-1.78 3.02 3.27.29 0 0m-25.83.46c.68.65.68.65 0 0m-.92 3.03c1.07 2.72 3.22 4.78 5.47 6.55.28-.2.83-.59 1.11-.78-1.47-2.55-4.41-3.87-6.58-5.77m13.97 6.39c-.91 1.2-.69 1.91.66 2.12.9-1.2.68-1.91-.66-2.12m.52 5.92c1.68-1.45 4.51-2.88 4.02-5.51-1.75 1.49-3.72 3.05-4.02 5.51z"/>
        <path d="M47.65 76.04c1.76-4.03 4.96-7.35 8.88-9.32.07 1.47.13 2.94.18 4.41 2.24 1.42 4.49 2.85 6.99 3.78l.04 2.96c-1.59.34-3.21.56-4.76 1.06-.85 2.5.18 5.26.29 7.86-1.66-1.72-3.06-3.66-4.3-5.71-.46.29-1.4.88-1.87 1.17-2.13-1.69-4.46-3.63-5.45-6.21zm24.38-5.01c.05-1.42.12-2.84.2-4.26 3.73 2.28 8.07 5.42 8.64 10.05-1.47 1.97-3.27 3.65-4.98 5.4-.54-.25-1.64-.74-2.19-.98-1.37 1.88-2.56 3.92-4.29 5.51.32-2.58.57-5.17.51-7.77-1.7-.38-3.38-.82-5.07-1.25 0-.71 0-2.13-.01-2.84 2.6-.87 4.96-2.28 7.19-3.86zm-13.92 26.7c-3.3-1.56.53-4.7 1.86-6.29.19 2.24.37 4.48.6 6.72l-2.46-.43z"/>
    </g>
    <path fill="#272727" opacity=".15" d="M103.96 38.2c.3 1.52-4.71 1.35-3.48-.22.87.06 2.61.17 3.48.22z"/>
    <path fill="#747474" opacity=".45" d="M86.74 65.51c1.42-.13 2.83-.37 4.26-.38l1.03.18c-.73 1.14-1.45 2.28-2.28 3.35l-.64.15-.29-1.19-.15-.61c-.41.21-1.24.63-1.65.84-.01.85-.02 2.55-.02 3.39-1.9-1.44-.64-3.87-.26-5.73z"/>
    <path fill="#575757" opacity=".35" d="M76.96 91.61c3.27.29-1.78 3.02 0 0z"/>
    <path fill="#3c3c3c" opacity=".24" d="M51.13 92.07c.68.65.68.65 0 0z"/>
    <path fill="#ddd" opacity=".87" d="M64.18 101.49c1.34.21 1.56.92.66 2.12-1.35-.21-1.57-.92-.66-2.12z"/>
</svg>
