<svg width="128pt" height="128pt" viewBox="0 0 128 128" xmlns="http://www.w3.org/2000/svg">
    <path d="M33.53 23.47c2.68-2.69 4.27-6.15 5.75-9.59.62 5.3-2.42 9.98-5.13 14.24-1.56 2.83-5.13 3-7.24 5.16 7.36-.41 14.99 1.07 20.79 5.86 2.63 3.54 7.08 3.07 10.96 3.63-.74.48-2.23 1.45-2.98 1.94-3.91 1.33-7.49 3.56-9.71 7.14-2.23-3.53-4.65-7.07-8.21-9.38-.12-.08-.35-.25-.46-.34-1.56-1.13-3.28-2.01-4.96-2.93.05.66.15 1.99.19 2.65l-1.74-.49-2.03-.62c.62-.44 1.85-1.33 2.47-1.78-2.7-.32-5.77-1.46-8.15.5-2.63-2.9-2.97-7.1-1.18-10.54 3.86-1.85 8.82-1.82 11.63-5.45zm38.4 43.44c4.12 1.69 7.59 5.11 8.97 9.38-.95 2.4-3.27 3.96-4.96 5.84-.81-.3-1.61-.61-2.42-.91-.96 1.52-1.96 3.02-2.97 4.51-1.07-2.12-.57-4.53-.6-6.8-1.6-.38-3.21-.75-4.81-1.12-.08-.72-.23-2.15-.31-2.87 2.57-.91 4.93-2.31 7.12-3.93 0-1.02-.01-3.07-.02-4.1z" fill="#912021"/>
    <path d="M89.34 13.9c1.95 3.82 3.61 7.97 7.04 10.76 3.04 2.93 8.03 2.04 10.96 5.14.79 3.02.91 6.87-1.5 9.2-2.04.79-4.24 1.02-6.37 1.44-1.4-.85-2.92-1.95-4.43-.6-5.2 2.53-9.62 6.51-12.28 11.68-2.95-4.66-8.44-6.05-12.77-8.97 3.91-.14 8.33-.06 11.02-3.39 3.14-2.42 6.79-4.37 10.67-5.27 3.57-.24 7.16-.31 10.7-.86-1.53-.75-3.09-1.43-4.62-2.16-1.98-.77-3.27-2.55-4.31-4.31-2.19-3.88-4.57-8.02-4.11-12.66zm1.41 50.07c3.44-2.68 7.5-1.07 11.2-.02.82 1.23 1.67 2.45 2.57 3.63.76-1.35 1.52-2.7 2.26-4.07.26 1.2.53 2.4.81 3.6-1.11.67-2.19 1.39-3.33 2.01-4.72.19-9.45.24-14.17-.05.24-1.7.46-3.4.66-5.1z" fill="#8f2021"/>
    <g fill="#080202">
        <path opacity=".37" d="M97.76 30.87c1.53.73 3.09 1.41 4.62 2.16-3.54.55-7.13.62-10.7.86 1.4-.37 2.8-.71 4.21-1.04.47-.5 1.4-1.49 1.87-1.98zM32.34 39.2c1.68.92 3.4 1.8 4.96 2.93.11.49.33 1.48.43 1.97-1.74-.85-3.54-1.63-5.46-1.98-.53-.16-1.03-.42-1.48-.76l1.74.49c-.04-.66-.14-1.99-.19-2.65zm15.36-.06c3.3 1.85 6.92 2.9 10.72 2.39.38.52 1.14 1.57 1.52 2.09 3.57-.28 7.99 1.13 10.68-1.97 3.68.2 7.31-.39 10.39-2.49-2.69 3.33-7.11 3.25-11.02 3.39 4.33 2.92 9.82 4.31 12.77 8.97 2.66-5.17 7.08-9.15 12.28-11.68l2.21-.29c-4.96 4.55-11.22 8.11-14.21 14.43 4.53-2.74 6.86-7.88 11.47-10.53-.4 1.33-.81 2.65-1.22 3.98-.16.09-.49.28-.65.38-3.19 1.62-5.38 4.54-7.48 7.33.01.54.04 1.62.05 2.16l.12 2.5-.21.42c-.33.72-1 2.15-1.34 2.86l-.56-2.24c-1.61 3.04-3.54 6.04-6.76 7.56.56.68 1.13 1.35 1.68 2.04 1.53 2 3.17 4.03 3.89 6.49-1.92 3.15-6.17 4.77-6.73 8.67.86-.84 1.71-1.68 2.56-2.53.17.47.52 1.39.69 1.86l.28.74c-.29.27-.88.81-1.17 1.09-.09.33-.29 1-.38 1.33-.12.4-.36 1.21-.47 1.62-.44.82-.9 1.64-1.38 2.44.77-3.16-1.6-5.72-1.43-8.85-1.61 1.33-3.24 2.64-4.88 3.94-.01-2.5.05-4.99.19-7.48-3.05-1.29-6.8-2.08-9.61.2-.51 2.37.78 5.29-1.02 7.25v-.66c.06-2.48-.06-4.97.27-7.44 1.45-.55 2.97-.9 4.48-1.3l.24-2.8c-1.94-.97-3.89-1.93-5.67-3.17.18-.39.55-1.16.73-1.55 4.03.69 8.14.49 12.15-.25.54-2.69 1.05-5.38 1.53-8.09-2.78-.71-5.51-1.61-8.18-2.67l-2.45.88.9-.82 1.69-1.57c-1.33-4.18-5.01-6.66-8.64-8.71.41.04 1.25.13 1.66.18 2.93.67 4.9 3.06 6.92 5.09 3.13-3.9 7.71-5.97 12.55-6.83-5.71-4.05-12.94-3.04-19.51-2.85-.42.02-1.25.04-1.67.06.75-.49 2.24-1.46 2.98-1.94-3.88-.56-8.33-.09-10.96-3.63m16.9 17.93c1.03 3.12 5.63 3.71 8.63 3.89l-.36 3.47c1.65-.16 3.36-.11 4.97-.59-1.26 1.28-5.04.73-4.26 3.33 3.85 1.56 7.57-2.19 8.2-5.8-.44.14-1.33.43-1.77.57.63-.54 1.26-1.08 1.9-1.62.75-.1 2.26-.31 3.02-.41-1.15-4.43-2.94-10.03-7.89-11.36-5.11.49-10.5 3.56-12.44 8.52m7.33 9.84c.01 1.03.02 3.08.02 4.1-2.19 1.62-4.55 3.02-7.12 3.93.08.72.23 2.15.31 2.87 1.6.37 3.21.74 4.81 1.12.03 2.27-.47 4.68.6 6.8 1.01-1.49 2.01-2.99 2.97-4.51.81.3 1.61.61 2.42.91 1.69-1.88 4.01-3.44 4.96-5.84-1.38-4.27-4.85-7.69-8.97-9.38m-12.52 4.62c1.49 1.08 3.09 2.01 4.71 2.88 1.81-.83 3.61-1.7 5.18-2.96-3.3.07-6.6.11-9.89.08z"/>
        <path opacity=".37" d="M88.26 65.18c4.15-2.51 7.2-6.3 9.9-10.24-.29 1.14-.59 2.29-.87 3.44-.64.91-1.27 1.82-1.9 2.74 1.5.48 3 .96 4.51 1.42 1.45-1.46 3.07-1.81 4.55-.21 2.66.28 3.96 2.24 3.14 4.78-.28-1.2-.55-2.4-.81-3.6-.74 1.37-1.5 2.72-2.26 4.07-.9-1.18-1.75-2.4-2.57-3.63-3.7-1.05-7.76-2.66-11.2.02-.2 1.7-.42 3.4-.66 5.1 4.72.29 9.45.24 14.17.05-4.76 1.39-9.84.67-14.72.48.01 2.06.03 4.11.03 6.17l-.89-.3c.39-2.15-.12-4.29-.82-6.32.83-1.27 1.66-2.54 2.46-3.83-1.3.92-3.15 1.38-3.99 2.82.23 2 .89 3.92 1.13 5.91.11 2.39-2.31 3.61-3.97 4.8l-1.33.08c1.3-1.38 2.65-2.72 3.76-4.26.04-4.2-.58-8.4-.63-12.6.39-.33 1.17-.97 1.56-1.3.06.76.17 2.26.23 3.01.92-.76 1.52-1.84 1.76-3-.2-.23-.59-.7-.78-.94l-.83-.98 3.79-.78c-.97 2.34-1.9 4.7-2.76 7.1zM75.73 97.22c.52-.1 1.56-.29 2.07-.39-1.71 2.06-3.49 4.36-6.39 4.68 1.14-1.71 2.57-3.21 4.32-4.29zm-15.8 4.68c1.83 1.36 3.53 3.01 4.17 5.27-2.2-.89-4.01-2.82-4.17-5.27z"/>
    </g>
    <path fill="#561414" opacity=".76" d="M25.36 39.26c.9-.65 3.33-.75 3.47.65-.89.71-3.31.7-3.47-.65z"/>
    <path d="M95.04 39.84c1.51-1.35 3.03-.25 4.43.6-1.68.95-3.37 1.91-4.96 3.01-4.61 2.65-6.94 7.79-11.47 10.53 2.99-6.32 9.25-9.88 14.21-14.43l-2.21.29zm2.35 7.76c2.77 1.55 2.74 5.22.77 7.34-2.7 3.94-5.75 7.73-9.9 10.24.86-2.4 1.79-4.76 2.76-7.1l-3.79.78-.94.19c1.11-3.29 4.26-4.88 7.37-5.76-.04-.81-.13-2.42-.18-3.23 1.06.92 2.12 1.85 3.17 2.77 1.02-1.57.99-3.41.74-5.23zM68.18 97.83c.48-1.8.99-3.59 1.44-5.4 1 1.25 2.03 2.46 3.08 3.67-1.25 1.12-2.93 1.42-4.52 1.73z" fill="#8c2021"/>
    <path d="M32.27 42.12c1.92.35 3.72 1.13 5.46 1.98-.1-.49-.32-1.48-.43-1.97.11.09.34.26.46.34.6 5.01 7.48 6.73 7.33 11.58-3.59-2.48-5.89-6.73-9.53-9.34-1.09-.87-2.19-1.73-3.29-2.59zm3.57 3.72c2.8 3.82 7.18 6.72 8.55 11.43-2.16-.95-3.32-3.07-4.82-4.76-1.58-2-3.72-3.85-3.73-6.67zm49.32 9.3c2.1-2.79 4.29-5.71 7.48-7.33-2.19 3.38-5.02 6.27-7.43 9.49-.01-.54-.04-1.62-.05-2.16zM38.34 65.69c1.3.52 2.6 1.02 3.91 1.53-.46 2.59-1.16 5.15-1.23 7.78.87 2.61 3.67 3.53 6.04 4.23 1.32 1.15 2.59 2.37 3.68 3.74.05.84.16 2.52.21 3.35-1.93-3.5-5.29-5.74-8.47-7.98-1.8-1.22-3.25-3.6-2.74-5.79.38-1.13.84-2.25 1.13-3.41-.74-1.22-1.67-2.31-2.53-3.45zm47.99 2.45c.84-1.44 2.69-1.9 3.99-2.82-.8 1.29-1.63 2.56-2.46 3.83.7 2.03 1.21 4.17.82 6.32-2.32 4.07-7.52 5.48-10.13 9.46-.17-.47-.52-1.39-.69-1.86 1.39-1.42 2.89-2.74 4.3-4.14l1.33-.08c1.66-1.19 4.08-2.41 3.97-4.8-.24-1.99-.9-3.91-1.13-5.91zM43.22 93.83c2.77-2.83 6.53-4.35 9.36-7.09.02 2.04.11 4.2-2.03 5.15l.73 1.21c1.94 4 6.32 6.04 10.64 5.99 4.72.59 9.25-.98 13.81-1.87-1.75 1.08-3.18 2.58-4.32 4.29 2.9-.32 4.68-2.62 6.39-4.68l.42-.17c-.47-.82-.94-1.65-1.4-2.47l1.33-2.06c-.34-.61-1.01-1.82-1.34-2.42.11-.41.35-1.22.47-1.62 2.51 1.43 5.21 2.73 7.01 5.11l-3.76-.96c-.42 2.13-.7 4.37-1.9 6.23-1.92 3.42-6.23 4.59-7.82 8.28-.82-.18-1.64-.33-2.46-.45-2.25 3.69-2.68 8.1-3.62 12.23-2.58-3.78-1.8-8.96-4.67-12.72-.48.35-1.44 1.07-1.92 1.43-1.53-4.16-6.33-5.33-8.32-9.12-1.06-1.77-1.22-3.89-1.63-5.87-1.66.53-3.31 1.08-4.97 1.58m7.05 1.57c1.51 2.47 3.4 6.87 6.98 5.72-1.87-2.4-4.36-4.2-6.98-5.72m7.82 5.49c-1.32.69-1.32 1.37-.01 2.03 1.31-.7 1.31-1.38.01-2.03m12.04.21c-1.48 3.02 3.32.11 0 0m-10.2.8c.16 2.45 1.97 4.38 4.17 5.27-.64-2.26-2.34-3.91-4.17-5.27m4.8 5.54c1.87-1.41 4.46-2.91 4.22-5.64-2.01 1.33-4.18 2.96-4.22 5.64z" fill="#892021"/>
    <path fill="#b52b2b" d="M57.35 44.65c6.57-.19 13.8-1.2 19.51 2.85-4.84.86-9.42 2.93-12.55 6.83-2.02-2.03-3.99-4.42-6.92-5.09-1.89-.62-3.81-1.17-5.72-1.75 1.83-1.07 3.71-2.06 5.68-2.84z"/>
    <path fill="#942421" d="M29.35 50.09c.21-1.84 2.38-1.51 3.67-2.01l-1.12.89c-.19.15-.56.45-.75.6.17 1.13.4 2.25.62 3.37.99-.86 1.96-1.72 2.94-2.58.18.72.53 2.16.71 2.88 2.38 1.07 4.69 2.35 6.59 4.17-1.45.35-2.91.7-4.37 1.03.75 1.95 1.47 3.91 2.15 5.89-3.74-1.9-6.32-5.22-8.71-8.55-1.12-1.62-2.43-3.63-1.73-5.69z"/>
    <path fill="#b82b2c" d="M43.51 60.51c1.12-4.56 2.75-9.86 7.36-12.01 1.64-.17 3.25.33 4.86.56 3.63 2.05 7.31 4.53 8.64 8.71l-1.69 1.57c-2.28.92-4.66 1.7-7.13 1.7-2.85-.66-5.77-.89-8.69-.74-.83.05-2.51.16-3.35.21z"/>
    <path fill="#bb2c2c" d="M64.6 57.07c1.94-4.96 7.33-8.03 12.44-8.52 4.95 1.33 6.74 6.93 7.89 11.36-.76.1-2.27.31-3.02.41-2.88.35-5.78.61-8.68.64-3-.18-7.6-.77-8.63-3.89z"/>
    <path fill="#240808" opacity=".5" d="M31.08 55.78c2.39 3.33 4.97 6.65 8.71 8.55-.68-1.98-1.4-3.94-2.15-5.89 1.46-.33 2.92-.68 4.37-1.03.22.21.66.62.87.83-.52.37-1.57 1.12-2.09 1.5l-1.74-.25c.8 1.98 1.6 3.96 2.43 5.93.25-.43.74-1.29.99-1.72.15 1.79.4 3.57.59 5.35-.06 1.86-.27 3.7-.49 5.54 1.47 1.57 2.95 3.13 4.49 4.64-2.37-.7-5.17-1.62-6.04-4.23.07-2.63.77-5.19 1.23-7.78-1.31-.51-2.61-1.01-3.91-1.53.86 1.14 1.79 2.23 2.53 3.45-.29 1.16-.75 2.28-1.13 3.41v-3.34c-5 .62-10.27 1.25-15.2-.09 4.73 0 9.45.07 14.18-.04-.6-1.68-1.11-3.39-1.36-5.16-2.1-1.53-4.6-1.81-7.06-1.1-.73-.09-2.18-.26-2.9-.34-.75.64-1.49 1.3-2.22 1.97.2-1.2.41-2.41.62-3.61 2.39 2.06 5.33 1.67 8.06.56-1.05-1.81-2.02-3.67-2.78-5.62z"/>
    <path fill="#b52c2c" d="M64.23 59.28c2.67 1.06 5.4 1.96 8.18 2.67-.48 2.71-.99 5.4-1.53 8.09-4.01.74-8.12.94-12.15.25l-1.04-.18c-.69-2.73-1.11-5.52-1.53-8.31 1.89-.47 3.79-.94 5.62-1.64l2.45-.88z"/>
    <path fill="#8c2124" opacity=".96" d="M39.05 59.49l1.74.25c.42.27 1.24.82 1.66 1.1 0 .71.02 2.15.02 2.86-.25.43-.74 1.29-.99 1.72-.83-1.97-1.63-3.95-2.43-5.93z"/>
    <path fill="#6a1819" opacity=".81" d="M46.86 60.3c2.92-.15 5.84.08 8.69.74-2.55.1-5.11.19-7.66.35.36 1.42.52 2.93 1.17 4.26.89.94 1.81 1.85 2.76 2.73l-.04.24-.08 1.84c-.91.98-1.95 1.83-3.01 2.65.39-1.16.79-2.31 1.18-3.46-1.76-1.46-4.38-2.79-4.37-5.41.34-1.35.84-2.65 1.36-3.94z"/>
    <path fill="#8c2024" opacity=".98" d="M86.85 60.77c.3-.23.91-.69 1.21-.93.19.24.58.71.78.94-.24 1.16-.84 2.24-1.76 3-.06-.75-.17-2.25-.23-3.01z"/>
    <path fill="#bb2b29" d="M43.46 61.42c.35-.05 1.06-.16 1.42-.21.16.76.46 2.27.62 3.03-.01 2.62 2.61 3.95 4.37 5.41-.39 1.15-.79 2.3-1.18 3.46-1.42.83-2.43 2.22-2.28 3.94 1.21 2.2 3.2 3.81 5.12 5.35 1.51.87 2.22 2.17 2.12 3.91-.72-.83-2.18-2.5-2.91-3.34-1.09-1.37-2.36-2.59-3.68-3.74-1.54-1.51-3.02-3.07-4.49-4.64.22-1.84.43-3.68.49-5.54.13-2.54 0-5.11.4-7.63z"/>
    <path fill="#b22929" d="M83.78 63.08c.34-.71 1.01-2.14 1.34-2.86l.17 1.85c.05 4.2.67 8.4.63 12.6-1.11 1.54-2.46 2.88-3.76 4.26-1.41 1.4-2.91 2.72-4.3 4.14-.85.85-1.7 1.69-2.56 2.53.56-3.9 4.81-5.52 6.73-8.67-.72-2.46-2.36-4.49-3.89-6.49 2.47-1.96 4.86-4.19 5.64-7.36z"/>
    <path d="M30.3 62.82c2.46-.71 4.96-.43 7.06 1.1.25 1.77.76 3.48 1.36 5.16-4.73.11-9.45.04-14.18.04-1.03-.55-2.04-1.15-3.02-1.78 1.02-.26 2.04-.53 3.05-.82l.02-.01c1.72-1.5 3.48-3.01 5.71-3.69zm21.4 7.64c1.32-1.7 3.16-2.76 5.04-3.73-.02.99-.05 2.96-.06 3.94.33.29.99.87 1.32 1.17 1.78 1.24 3.73 2.2 5.67 3.17l-.24 2.8c-1.51.4-3.03.75-4.48 1.3-.33 2.47-.21 4.96-.27 7.44-1.29-1.64-2.51-3.34-3.7-5.06-.86.23-2.58.68-3.45.91-1.92-1.54-3.91-3.15-5.12-5.35-.15-1.72.86-3.11 2.28-3.94 1.06-.82 2.1-1.67 3.01-2.65z" fill="#912121"/>
    <path fill="#881e1f" opacity=".97" d="M49.06 65.65c-.65-1.33-.81-2.84-1.17-4.26 2.02 3.02 6.4 2.6 8.11 5.75-1.03.18-3.08.53-4.1.71-.96-.72-1.9-1.46-2.84-2.2z"/>
    <path fill="#8b1f20" opacity=".98" d="M79.41 62.38l.6-.44c.44-.14 1.33-.43 1.77-.57-.63 3.61-4.35 7.36-8.2 5.8-.78-2.6 3-2.05 4.26-3.33.39-.36 1.18-1.09 1.57-1.46z"/>
    <path fill="#731a1a" opacity=".83" d="M76.46 68.4c3.22-1.52 5.15-4.52 6.76-7.56l.56 2.24c-.78 3.17-3.17 5.4-5.64 7.36-.55-.69-1.12-1.36-1.68-2.04z"/>
    <path fill="#420e0f" opacity=".66" d="M20.88 67.5c-.49-2.25.55-4.22 2.75-4.92.04 1.4-.92 3.36.96 3.93l-.02.01c-1.01.29-2.03.56-3.05.82l-.64.16z"/>
    <path fill="#b52c29" d="M51.82 68.38c.06.06.16.17.22.23l-.26.01.04-.24z"/>
    <path fill="#b12a27" d="M59.41 71.53c3.29.03 6.59-.01 9.89-.08-1.57 1.26-3.37 2.13-5.18 2.96-1.62-.87-3.22-1.8-4.71-2.88z"/>
    <path fill="#3e0e0f" opacity=".65" d="M75.43 92.15c.48-.8.94-1.62 1.38-2.44.33.6 1 1.81 1.34 2.42l-1.33 2.06c.46.82.93 1.65 1.4 2.47l-.42.17c-.51.1-1.55.29-2.07.39-4.56.89-9.09 2.46-13.81 1.87-4.32.05-8.7-1.99-10.64-5.99.63-.52 1.28-1.02 1.93-1.52.69 1.17 1.39 2.34 2.11 3.5.8-.28 1.61-.57 2.41-.86-.59.89-1.17 1.77-1.76 2.65 1.43.36 2.86.73 4.29 1.1-.24-2.18-.49-4.36-.66-6.54l-.06-.82c1.39 2.37 1.1 5.24 1.52 7.86 2.23.13 4.47.15 6.71.05.12-2.56.28-5.13.55-7.68.87.36 1.3.89 1.3 1.59-.45 1.81-.96 3.6-1.44 5.4 1.59-.31 3.27-.61 4.52-1.73.95-1.29 1.89-2.59 2.73-3.95z"/>
    <path fill="#7f1d1f" opacity=".95" d="M59.6 91.43c.17 2.18.42 4.36.66 6.54-1.43-.37-2.86-.74-4.29-1.1.59-.88 1.17-1.76 1.76-2.65l1.87-2.79z"/>
    <path fill="#160505" opacity=".46" d="M50.27 95.4c2.62 1.52 5.11 3.32 6.98 5.72-3.58 1.15-5.47-3.25-6.98-5.72z"/>
    <path fill="#3f0e10" opacity=".68" d="M58.09 100.89c1.3.65 1.3 1.33-.01 2.03-1.31-.66-1.31-1.34.01-2.03z"/>
    <path fill="#1f0707" opacity=".53" d="M70.13 101.1c3.32.11-1.48 3.02 0 0z"/>
    <path fill="#220808" opacity=".54" d="M64.73 107.44c.04-2.68 2.21-4.31 4.22-5.64.24 2.73-2.35 4.23-4.22 5.64z"/>
</svg>
