<svg width="128pt" height="128pt" viewBox="0 0 128 128" xmlns="http://www.w3.org/2000/svg">
    <g fill="#fff">
        <path d="M51.62 47.32c7.73-4.24 17.79-4.13 25.52.03-4.87 1.1-9.9 2.87-12.79 7.24-2.8-4.48-7.93-5.99-12.73-7.27z"/>
        <path d="M43.57 60.51c1.16-4.79 3.02-10.96 8.56-12.09 5.16.93 10.87 4.09 12.16 9.58-5.94 4.82-13.79 2.2-20.72 2.51zm20.76-2.48c1.19-5.38 6.71-8.16 11.54-9.62 5.64.28 7.83 6.56 9.11 11.16l-.9.48c-3.26 1.14-6.77.4-10.15.82-3.46.47-6.8-.93-9.6-2.84z"/>
        <path d="M56.16 61.73c2.93-.2 5.58-1.45 8.24-2.58 2.56 1.27 5.28 2.3 8.15 2.59-.9 2.74-.34 6.16-2.22 8.46l-3.32.08c.77.28 2.33.85 3.11 1.14-1.89 1.05-3.81 2.05-5.76 2.96-1.6-.72-3.19-1.44-4.78-2.16-.46-1.07-.77-2.34-2.01-2.8-.56-2.54-.93-5.12-1.41-7.69m6.73 9.87c2.01-.02 4.01-.14 6.01-.37-2.28-.47-4.6-.62-6.91-.85-1.35-.24-1.75 3.42.9 1.22zm21.23-10.42c1.65-.24 1.28 1.81 1.39 2.83-.1 3.56.25 7.1.82 10.62-3.81 3.94-7.65 7.84-11.64 11.6.86-4.21 5.12-6.16 7.54-9.37-1.75-3.16-3.62-6.37-6.31-8.84 4.03-.07 5.81-4.08 7.09-7.26l.56 4.25c.14-.96.42-2.87.55-3.83m-2.78 5.68c1.25-.07 1.73-.83 1.45-2.26-1.26.03-1.75.78-1.45 2.26zm-39.04 7.6c.99-4.38.84-8.88 1.03-13.33l2.04.27c-.06 1.24-.17 3.72-.23 4.95.25-1.28.73-3.86.97-5.14.79 1.75 1.03 4.52 3.43 4.82-.58.48-1.15.95-1.72 1.43-.47-.89-1.42-2.68-1.89-3.58.52 1.89 1.14 5.47 3.86 3.05l.02 2.91c.19-1.03.35-2.06.48-3.1l2.4 1.76c-.53.32-1.07.62-1.62.91-1.56 2.53-3.31 4.94-4.68 7.58 2.66 3 6.64 5.15 7.7 9.28-4.13-3.74-7.97-7.76-11.79-11.81z"/>
    </g>
</svg>
