<svg width="128pt" height="128pt" viewBox="0 0 128 128" xmlns="http://www.w3.org/2000/svg">
    <path fill="#fff" d="M49.27 10.92c1.47 1.74 2.97 3.66 3.06 6.05.32 5.41-2.89 10.39-2.43 15.81 1.46 3.88 6.79 3.24 8.87 6.52 1.12 1.43 1.12 3.33 1.78 4.96 1.57-.33 3.15-.57 4.75-.73 1.3-8.02 6.13-15.98 13.88-19.13 2.68-1.25 6-.77 8.38-2.68 1.92-1.25 2.6-3.56 3.71-5.43.13 5.81-5.12 9.05-9.6 11.49-2.26 1.56-5.51 2.78-5.99 5.84.25 2.65 1.7 4.95 2.32 7.5.24 2.29-1.28 4.14-2.38 5.98-.16-1.85 1.32-5.68-1.71-5.99-1.34.97-1.62 2.58-1.83 4.11 2.65 1.46 5.1 3.26 7.18 5.48 6.36-4.53 14.74-6.85 22.33-4.27 3.36.96 5.71 4.19 9.29 4.52 2.26.42 4.34-.76 6.42-1.4-2.49 2.2-5.75 3.66-9.13 2.9-4.36-.59-8.51-2.73-12.98-2.26-3.79 1.41-3.05 6.67-6.25 8.69-1.33 1.15-3.18.78-4.73 1.34-.29 1.72.13 3.48.14 5.22 7.42 1.25 14.64 5.3 18.36 12.02 2.2 3.25 1.37 7.71 3.94 10.75 1.29 1.76 3.48 2.27 5.35 3.16-2.25.02-4.65-.39-6.36-1.96-4.01-3.52-5.39-9.05-9.2-12.74-2.81-1.88-5.89.59-8.63 1.37-2.62.82-4.93-.95-6.98-2.29-1.15 1.3-2.31 2.6-3.52 3.85 4.67 6.22 6.93 14.72 4.31 22.25-.87 2.72-2.86 4.85-4.1 7.39-1.02 2.8-.01 5.62 1.04 8.23-1.36-1.61-2.77-3.38-2.98-5.56-.64-5.49 2.68-10.51 2.39-15.96-.48-2.99-4.01-3.59-6.26-4.78-1.96-.61-2.83-2.58-3.89-4.14.23-.76.67-2.27.89-3.03-2.06.3-4.13.53-6.21.67-1.33 7.75-5.82 15.42-13.16 18.82-2.98 1.56-6.76.97-9.43 3.21-1.79 1.28-2.36 3.5-3.3 5.38-.3-5 3.74-8.55 7.78-10.67 2.57-1.7 5.77-2.86 7.39-5.64 1.01-3.13-1.58-5.83-1.96-8.82-.26-2 .99-3.7 1.79-5.42.47 1.84-.25 4.26 1.5 5.54 2.04-.22 2.3-2.4 2.68-4-2.73-1.38-5.1-3.33-7.29-5.45-6.27 4.62-14.77 6.82-22.29 4.25-3.35-1.02-5.74-4.07-9.29-4.56-2.23-.33-4.29.86-6.4 1.38 6.52-6.32 15.11-.02 22.66-.44 2.45-2.22 3.01-5.62 4.9-8.2 1.65-1.39 3.83-1.81 5.76-2.68l-.4-4.55c-7.83-1.46-15.71-5.89-18.96-13.48-1.54-3.04-.86-6.98-3.42-9.52-1.29-1.6-3.42-2.02-5.18-2.9 1.72.19 3.62.02 5.12 1.05 5.25 3.3 6.28 10.27 11.06 14 4.05 1.55 7.78-3.52 11.81-1.4.72.43 2.15 1.29 2.86 1.72-1.73.29-5.45-1.16-5.78 1.64.77 1.56 2.53 1.74 4.04 2.01 1.54-2.59 3.24-5.09 5.4-7.21-4.2-6-6.51-13.71-4.63-20.96.78-3.34 3.26-5.87 4.6-8.95 1.08-2.67-.15-5.4-1.09-7.9m18.71 33.71c-.42.46-1.27 1.38-1.69 1.84-3.54-.35-6.88 1.11-10.35 1.2-3.48-1.4-4.86-5.31-3.37-8.68-1.74-1.04-3.28-2.36-4.72-3.77.69 2.6 1.26 5.26 2.47 7.68 1.03 2.23 2.77 4.17 3 6.71-1.59 1.67-3.1 3.41-4.32 5.38-1.18 1.68-2.5 3.94-4.91 3.61-2.85.34-4.73-2.05-5.95-4.27-1.9.4-3.81.72-5.72 1.03 2.47 1.29 4.89 2.72 7.56 3.54 2.15.7 4.52.96 6.26 2.54-.38 3.67 1.13 7.13 1.22 10.74-1.52 3.41-5.41 4.72-8.79 3.31-1 1.63-2.17 3.15-3.38 4.63 3.2-.82 6.47-1.64 9.3-3.42 1.53-.74 2.98-2.34 4.83-1.77 2.75 2.61 6.18 4.33 8.87 7.01.01 1.38.03 2.76.06 4.14-1.19 1.52-2.58 2.87-4.24 3.88.45 1.89.78 3.82.79 5.77 2.44-3.55 3.9-7.62 4.93-11.78.78-2.77 4-2.09 6.16-2.41 2.62-.32 6.02-2.12 7.95.57 2.37 1.76 1.86 4.87 1.39 7.38 1.7.96 3.22 2.2 4.71 3.45-.89-5.14-3.95-9.41-5.62-14.21 2.9-2.35 4.25-5.97 6.89-8.51 3.37-1.87 6.97.56 8.49 3.67 1.92-.48 3.88-.65 5.85-.72-3.78-2.5-8.02-4.23-12.49-5l-1.56-1.68c.37-3.63-1.32-7.04-1.12-10.64 1.68-3.23 5.3-4.39 8.65-3.09 1.06-1.69 2.33-3.23 3.64-4.73-5.14.82-9.35 3.99-14.14 5.64-2.51-2.77-5.99-4.33-8.62-6.91-1.66-3.36.31-7.19 3.71-8.42-.42-1.97-.75-3.95-1.04-5.93-2.04 3.87-4.03 7.84-4.7 12.22m-8.64 0l-.08-2.42c-1.2-.85-2.41-1.69-3.63-2.52-1.91 2.69.12 6.59 3.71 4.94m24.72 14.65c2.56 1.11 5.65-4.26 1.98-4.29-2.08-.21-4.36 2.95-1.98 4.29m-40.85 8.49c-1.27 1.5-3.28 2.72-3.33 4.92 1.76 1.26 4.1.34 4.96-1.52-.47-1.17-1.02-2.3-1.63-3.4m37.35 7.8c1.91.28 3.83.49 5.76.6.61-1.51.25-3.54-1.74-3.6-2.05-1.03-2.78 2.05-4.02 3M69.15 86.92c1.16.57 2.34 1.31 3.7.96.9-2.7-1.11-5.23-4.07-4.52.11 1.19.23 2.37.37 3.56z"/>
</svg>
