<svg width="128pt" height="128pt" viewBox="0 0 128 128" xmlns="http://www.w3.org/2000/svg">
    <path fill="#fff" d="M31.79 58.4c4.43.27 7.8 3.36 11.64 5.2 3.52 1.56 6.49 4.22 10.35 5.01 1.54-2.57 2.42-5.43 2.58-8.43 5.22-1.11 10.55-1.11 15.76.06-.01 3.02 1.02 5.84 2.64 8.36 3.66-.76 6.47-3.31 9.82-4.78 4-1.89 7.48-5.11 12.08-5.44-.75 4.41-2.6 8.61-4.91 12.42-.62 1.56-2.41 1.54-3.82 1.63-2.67.21-5.36.31-8.04.31 3.4-3.05 6.61-6.68 11.08-8.14.81-.21 1.39-.87 2-1.4-5.4 1.52-10.11 4.89-13.9 8.94 1.45 5.95 2.21 12.31 1.11 18.37-3.35 3.99-7 8.28-8.07 13.5l-1.97-.32c.72 1.67 1.49 3.32 2.22 4.99-1 .69-2.02 1.37-3.04 2.03l.48.62c-.57.87-1.13 1.76-1.67 2.65-2.65.02-5.31.07-7.96-.1-.89-2.06-2.2-3.91-4.03-5.24.62-1.54 1.23-3.1 1.8-4.66-1.45-.49-1.95-1.97-2.67-3.14-1.98-3.67-3.94-7.49-7.2-10.21-.62-6.1-.5-12.45 1.34-18.33-3.65-4.08-8.28-7.25-13.45-9.09 4.66 2.56 8.85 5.83 12.63 9.55-3.69-.33-7.71.41-11.18-1.06-2.82-3.91-4.83-8.53-5.62-13.3m18.5 16.53c.17 1.68.19 3.37-.03 5.06.72 2.74 3.53 2.75 5.86 2.84-.31-3.59-2.98-6.07-5.83-7.9m21.89 7.86c1.6-.47 4.16.45 5.14-1.31 1.11-1.96.46-4.28.56-6.41-2.89 1.68-5.18 4.31-5.7 7.72m-13.09 6.14c.03 6.89-1.44 13.79.36 20.59 3.23.46 6.52.44 9.73-.15.09-1.16.28-3.48.38-4.64l-1.06-.98c.99-.2 1.97-.44 2.96-.61l-1.51-1.71c-.99-5.21-.01-10.68-1.2-15.88-.39 5.69-.4 11.57 1.08 17.1-3.56-.3-8.32-1.73-10.94 1.27.51-6.12 1.37-12.25.82-18.42-.46 1.1-.66 2.24-.62 3.43m-.4 21.49l2.2 1.52c2.78-.23 6.67 1.19 8.56-1.39-3.59.41-7.18.34-10.76-.13z"/>
    <path fill="#2c2c2c" opacity=".17" d="M58.69 110.42c3.58.47 7.17.54 10.76.13-1.89 2.58-5.78 1.16-8.56 1.39l-2.2-1.52z"/>
</svg>
