<svg width="128pt" height="128pt" viewBox="0 0 128 128" xmlns="http://www.w3.org/2000/svg">
    <path d="M18.69 20.5c4.23-2.03 8.36-4.49 13.05-5.28-3.12 3.11-6.94 5.43-9.9 8.71-3.08 3.31-5.06 7.67-5.37 12.19 2.06-.54 4.11-1.12 6.17-1.64 6.08-6.57 15.32-7.81 23.46-10.34-1.97 2.21-5.08 2.7-7.34 4.58-6.49 3.53-13.12 7.72-16.79 14.37.53 1.61 1.82 2.79 2.77 4.16 7.21 1.55 14.4 3.46 21.37 5.91.67-.18 2-.53 2.67-.7 1.85-4.74 5.99-8.71 5.52-14.13.58 1.02 1.19 2.04 1.8 3.04-.82 5.33-2.48 10.48-3.27 15.81.69 1.59 1.66 3.04 2.58 4.52-.57 2.27-.55 4.89-2.33 6.65-2.24-3.71-4.36-7.54-7.39-10.69-3.31-1.02-6.51-2.38-9.82-3.39-5.75-1.7-11.97-1.99-17.4-4.67-3.03-5.05-4.85-10.78-8.12-15.74C13.19 29.44 16 25 18.69 20.5zm78.03-5.33c4.51 1 8.73 3.04 12.77 5.25 3.1 4.29 5.47 9.06 8.61 13.34-3.25 5.05-5.06 10.89-8.27 15.9-6.25 3.06-13.5 2.92-19.95 5.46-3.11 1.36-7 1.72-9.11 4.69-1.98 2.5-3.46 5.35-5.1 8.08-2.62-.83-1.88-4.24-2.62-6.37.89-1.43 1.85-2.83 2.6-4.34-.99-5.38-2.5-10.66-3.34-16.07.69-.85 1.36-1.71 2.03-2.58-.91 4.56 2.65 7.91 4.21 11.81.47 1.54 1.86 2.29 3.14 3.06 7.14-2.51 14.47-4.62 21.9-6.08 1.01-1.38 2.24-2.62 2.92-4.21-2.39-3.97-5.71-7.39-9.53-10-3.52-2.51-7.69-4.02-10.94-6.94-.55-.01-1.65-.04-2.2-.05-.31-.51-.93-1.52-1.24-2.02 5.63 1.66 11.29 3.27 16.74 5.45 2.31 1.28 4.18 3.18 6.31 4.71 2.02.9 4.26 1.2 6.39 1.8-.36-3.91-2.06-7.57-4.28-10.75-3.01-4.07-7.57-6.54-11.04-10.14zm-37.48 92.45c.21-1.72-.23-4.04 1.82-4.8 2.02-.1 4.04.03 6.06-.05.46.3 1.37.9 1.83 1.2.04 1.24.03 2.47-.05 3.7-3.11 1.05-6.52.71-9.66-.05z" fill="#fff"/>
</svg>
