<svg width="128pt" height="128pt" viewBox="0 0 128 128" xmlns="http://www.w3.org/2000/svg">
    <g fill="#fff">
        <path d="M48.81 29.21c6.17-5.61 17.12-2.57 20.08 4.97 1.3 4.11-1.84 7.84-4.84 10.22 1.26-2.96 2.26-6.3.75-9.39-2.53-3.87-8.17-6.59-12.33-3.48 1.85.58 3.45 1.6 4.25 3.42-2.21 1.5-4.29 3.19-6.06 5.21-.78-2.29-1.88-4.46-3.5-6.26-1.37-.16-2.73-.32-4.09-.49 1.15-1.81 2.95-2.92 4.88-3.76.6.34 1.21.69 1.81 1.04-.39.6-1.17 1.79-1.56 2.39 1.21-.71 2.3-1.59 3.24-2.63-.87-.42-1.75-.83-2.63-1.24zm-5.6 10.08c.59-.11 1.77-.33 2.36-.43-2 2.39-2.05 6.09-5.23 7.44 1.26-2.21 2.09-4.61 2.87-7.01z"/>
        <path d="M57.37 38.87c3.07.33 5.19 3.83 4.06 6.67-2.84 4.43-9.57 4.95-11.08 10.49 1.02 2.95 3.85 4.62 6.78 5.19 9.11 1.86 18.56 2.77 27.15 6.59 4.69 2.16 9.18 5.85 10.49 11.06 1.78 8.19-.53 17.32-6.67 23.18-7.36 7.64-18.78 9.95-28.94 7.87-6.15-1-11.7-5.04-18.11-4.37-2.14.07-3.75 1.78-4.77 3.5l3.7-.8c-3.06 3.49-7.57 4.95-12.11 4.74 2.19-1.09 5.03-1.58 6.18-4.01 2.39-4.62 7.77-8.28 13.1-6.82 6.91 1.6 13.76 4.39 20.99 3.78 6.4-.28 11.83-4.42 16.01-8.96 3.41-4.2 5.65-10.68 2.61-15.66-3.2-4.77-9.36-5.67-14.65-5.8.45 2.63.66 5.3.55 7.98-2.7-3.8-6.39-6.98-10.96-8.25-6.19-2.28-13.74-3.58-17.49-9.64-3.65-5.31-.91-12.89 4.22-16.13 3.57-1.85 8.05-2.21 10.89-5.29.96-2.1-1.14-3.6-1.95-5.32z"/>
    </g>
    <path fill="#2c2c2c" opacity=".18" d="M101.18 27.31c.46.46.46.46 0 0z"/>
</svg>
