<svg width="128pt" height="128pt" viewBox="0 0 128 128" xmlns="http://www.w3.org/2000/svg">
    <g fill="#fff">
        <path d="M57.94 13.71c1.57 1.64 3.34 3.47 3.54 5.85-.56 1.17-1.38 2.19-2.1 3.26.45.43 1.34 1.3 1.79 1.73-.05 2.37-2.74.8-4.13.69 1.87-3.61 2.34-7.67.9-11.53zm7.17-.2c2.32 3.39 4.61 8.81.32 11.69.36.39 1.07 1.15 1.43 1.54-.6.54-1.19 1.08-1.78 1.63-1.01-.64-2.03-1.27-3.05-1.9 3.55-3.35 4.03-8.4 3.08-12.96zm1.72 15.67c4.92-3.18 7.26-8.75 8.16-14.33.78 4.2 1.01 8.72-.98 12.64-.71.14-2.14.43-2.85.57.76 1.92.64 3.64-1.35 4.73-.99-1.21-1.98-2.42-2.98-3.61zm-6.12 20.51c10.51-5.98 15.27-19.4 27.4-22.93 4.33-.55 9.26-1.76 13.27.49-2.78.43-6.24.95-7.5 3.87-1.58 2.63.7 5.1 2.16 7.13-7.23.9-15.15.9-21.24 5.48-5.75 4.16-11.72 10.07-19.48 8.76 1.55-1.36 3.61-1.82 5.39-2.8zm-20.52-13.4c1.77-2.54 5.82-2.49 7.82-.29 1.41 1.26 1.48 3.26 2 4.95-1.75 1.13-3.47 2.3-5.31 3.29.69-1.43 1.58-2.74 2.61-3.95-.62-1.94-3.15-3.29-4.93-1.97-1.51 1.66-2.13 3.91-3.23 5.84-.57-2.63-.87-5.69 1.04-7.87z"/>
        <path d="M58.02 53.26c10.7-1.17 18.5-10.05 28.89-12.3 6.54-1.76 14.31-.59 19.08 4.53-2.68-1.61-6.82-2.41-8.92.52-2.15 2.14-1.12 5.3-.18 7.74-6.74-1.72-13.78-4.09-20.77-2.2-6.6 1.79-13.15 4.62-20.16 3.56.68-.62 1.37-1.24 2.06-1.85z"/>
        <path d="M53.84 56.04c-1.85-1.17.56-2.41 1.35-3.36.29 1.13.54 2.27.76 3.42 10.21 1.43 19.99-2.65 30.11-2.86 7.85-.37 15.61 3.92 19.75 10.56-2.7-2.21-6.29-3.4-9.67-1.99-1.78 1.81-1.6 4.51-1.86 6.83-5.76-3.39-11.21-8.28-18.25-8.47-7.42-.76-16.08 1.31-22.19-4.13zM33.12 72.63c.88-2.06 2.67-3.31 4.75-3.97 1.49 1.2 3.2 2.03 5.02 2.58-.44 2.07-1.17 4.27-.37 6.36 1.53 1.9 3.94.33 5.86.14l.36 2.62c-1.51.74-3.18.96-4.82 1.25l1.14 2.1c-1.57 1.92-3.51 3.63-6.1 3.92.82-1.79 2.25-3.17 3.41-4.73-.75-2.12-1.6-4.19-2.53-6.24-1.59.3-3.15-.25-4.71-.48-1.26.51-2.36 1.32-3.54 1.96.67-1.93 2.23-3.24 3.83-4.39 1.36.5 2.76 1.15 4.25.93.51-3.65-4.36-3.76-6.55-2.05z"/>
        <path d="M46.1 70.78c2.34 1.04 4.49 2.44 6.68 3.76-1.4 3.09-.69 7.87-4.31 9.41.23-1.77.8-3.52.76-5.32-.82-2.7-2.24-5.17-3.13-7.85zm17.63 6.74c1.14.57 2.28 1.14 3.43 1.7-1.31 1.69-2.47 3.5-3.07 5.58.24.54.74 1.62.99 2.16.46-.41 1.39-1.24 1.86-1.65 2.59.28 4.17 1.87 3.9 4.5-.47-.65-1.41-1.93-1.88-2.57-1.82 1.06-3.01 3.05-4.99 3.8-2.65-.01-4.73-1.91-7.04-2.94-2.02 2.04-2.48 4.66-1.19 7.23-1.99-.83-4.27-3.17-2.91-5.4.46-1.4 1.72-2.1 3.05-2.48l.02-.43c-2.96-.3-5.47 1.18-7.6 3.08.26-1.2.54-2.39.84-3.57 2.15-.29 3.93-1.43 5.58-2.77 1.84 1.15 3.83 3.45 6.19 2.15 1.98-2.31 1.93-5.6 2.82-8.39zm-27.56 11.1c1.03 1.07 1.95 2.24 3.01 3.27 2.04 1.51 4.76 1.65 6.86 3.05 1.73 1.67 2.5 4.03 3.62 6.1-5.28-2.1-10.71.43-14.56 4.09-.34-.39-1.03-1.17-1.37-1.56-.53-5.35-7.27-4.3-9.95-7.84 3 1.05 6.41.53 9.19 2.24 1.86 1.07 3.52 2.44 5.35 3.55-1.4-3.57-5.4-5.44-6.25-9.38 2.77 3.95 7.94 4.1 11.35 7.26-.35-4.09-5.82-4.43-6.49-8.32-.19-.61-.57-1.85-.76-2.46z"/>
        <path d="M28.06 104.85c-2.69.95-6.28.41-7.03-2.77.72.49 2.16 1.46 2.88 1.94 2.8-.81 5.75-2.42 8.65-1.04.52 1.1 1.26 2.05 2.1 2.92-.71 1.21-1.43 2.42-2.17 3.62-.9-1.81-1.49-5.74-4.43-4.67zm13.83 1.53c2.51.59 5.03 1.08 7.5 1.81-.89 2.99-2.36 6.06-5.4 7.35.41-2.26 3.68-5.54 1.32-7.41-1.88 3.34-5.23 5.31-8.6 6.91 1.62-3.01 5.19-4.9 5.18-8.66z"/>
    </g>
</svg>
