<svg width="128pt" height="128pt" viewBox="0 0 128 128" xmlns="http://www.w3.org/2000/svg">
    <path fill="#b82b2c" d="M61.23 19.17c3.18-1.88 6.83-3.57 10.62-3.33-.98.82-1.95 1.64-2.93 2.46-6.63 6.23-1.07 16.46-5.01 23.66-.21.22-.62.66-.83.88-.9 1.28-2.12 2.26-3.4 3.16.15-4.56-.76-9.04-2.27-13.33-1.34-3.86-.87-8.31 1.82-11.47.89-.46 1.55-1.14 2-2.03z"/>
    <path opacity=".08" d="M63.91 41.96c3.94-7.2-1.62-17.43 5.01-23.66-2.75 5.78-3.42 12.18-2.32 18.45.49.91 1.05 1.78 1.65 2.61-1 2.7-2.44 5.22-4.2 7.49-.42-1.06-.84-2.12-1.25-3.18.28-.42.83-1.28 1.11-1.71z"/>
    <path fill="#100303" opacity=".31" d="M59.23 21.2c-.46-1.8.2-2.48 2-2.03-.45.89-1.11 1.57-2 2.03z"/>
    <path fill="#040101" opacity=".19" d="M74.92 22.82c.93-.86 1.85-1.74 2.78-2.61.7 2.46 1.73 4.92 1.73 7.51-.66 2.72-3.01 4.46-4.97 6.26-2.1-2.86-3.11-6.33-1.97-9.79.01-.38.02-1.14.03-1.52v-.32c.8.16 1.6.32 2.4.47m1.41 8.59c.71-2.94.93-5.97.57-8.98-1.85 2.63-2.38 6.18-.57 8.98z"/>
    <path fill="#bb2b2c" d="M68.25 39.36c.8-5.63-1.1-12.79 4.27-16.69-.01.38-.02 1.14-.03 1.52-1.14 3.46-.13 6.93 1.97 9.79 2.32 3.26 2.12 7.45.63 10.99-1.66 4.57 1.02 8.94 3.74 12.41-.47 1.84-1.12 3.63-1.81 5.4-4 0-6.02-4.1-8.15-6.88-.6.72-1.2 1.43-1.81 2.14-3.26 3.78-6.07 7.92-9.34 11.7-2.54 2.84-3.86 6.5-4.8 10.14-.95 3.26-.95 6.68-1.1 10.05l-1.71.2c-.49-.42-1.49-1.26-1.98-1.69-4.11-5.12-9.64-11.48-7.14-18.52 3.09-7.82 8.78-14.74 16.19-18.85 2.28-1.4 5.12-2.07 6.87-4.22 1.76-2.27 3.2-4.79 4.2-7.49z"/>
    <path d="M76.33 31.41c-1.81-2.8-1.28-6.35.57-8.98.36 3.01.14 6.04-.57 8.98zm11.84 58.45c2.94-7.1-5.09-14.3-.89-21.06.2 7.65 7.75 11.99 9.05 19.26-1.85 3.24-1.76 7.36-4.35 10.2.11-3.52 0-7.05-.25-10.56-1.26.58-2.51 1.24-3.56 2.16z" fill="#ad2829"/>
    <path opacity=".32" d="M53.76 39.45c-.36-1.92-.68-4.1 1-5.53 3.29 5.23 2.51 12.28-.8 17.33.8-.05 2.41-.13 3.22-.18-7.41 4.11-13.1 11.03-16.19 18.85-2.5 7.04 3.03 13.4 7.14 18.52-.32.48-.94 1.42-1.26 1.9-4.14-4.22-8.88-9.01-9.16-15.28.03-7.71 5.33-13.86 10.05-19.41 2.92-3.46 6.58-6.6 7.9-11.09.84-2.65-.27-5.37-.74-7.98l-1.16 2.87zM68.47 86.4c-.66-5.55-2.25-11.87 1.62-16.66.03.76.11 2.29.15 3.05.84-.7 1.69-1.39 2.54-2.08-1.62 3.57-3.44 7.51-2.28 11.5.82 6.01 6.74 10.87 4.76 17.26-2.65 4.74-6.99 8.84-12.32 10.31-3.33.69-6.75.6-10.13.71 1.42-2.97 2.61-6.12 2.46-9.48.45.96.9 1.93 1.36 2.89.01-2.42.1-4.84.17-7.26 1.47 4.09.75 8.56-1.23 12.34 6.13-.57 12.15-3.62 16.11-8.32 2.89-5.01-1.29-9.81-3.21-14.26z" fill="#0a0202"/>
    <path fill="#b52929" d="M54.92 36.58c.47 2.61 1.58 5.33.74 7.98-1.32 4.49-4.98 7.63-7.9 11.09-4.72 5.55-10.02 11.7-10.05 19.41.28 6.27 5.02 11.06 9.16 15.28 3 2.78 5.87 5.78 7.79 9.43-.42 3.94-3.31 6.72-5.73 9.57 1.29.4 2.57.83 3.88 1.15 3.38-.11 6.8-.02 10.13-.71 5.33-1.47 9.67-5.57 12.32-10.31 1.98-6.39-3.94-11.25-4.76-17.26-1.16-3.99.66-7.93 2.28-11.5 1.57-3 4.19-5.22 6.64-7.48 2.07-1.85 2.08-4.87 2.1-7.43-.91-1.2-1.8-2.42-2.66-3.66 2.28-.07 4.53.34 6.49 1.55.93 2.39 2.22 4.72 2.51 7.3-.17 4.29-4.53 6.77-5.24 10.88-.46 2.3-.68 4.72-.17 7.03.87 2.16 2.6 3.88 3.27 6.12.62 4.03-1.57 7.74-1.53 11.74 1.76-2.03 2.94-4.44 3.98-6.9 1.05-.92 2.3-1.58 3.56-2.16.25 3.51.36 7.04.25 10.56-.53.91-1.23 1.71-2.02 2.4-5.37 4.55-11.06 9.17-17.97 11.08-8.8 1.8-17.96 2.88-26.78.57l-1.26-.2c2.94-2.09 5.5-5.42 5.51-9.18-2.46-7-10.2-9.43-15.22-14.16-2.86-2.79-6.31-5.26-8.05-8.95-1.47-3.07.44-6.18 1.51-9.02 1.76-4.6 5.33-8.07 8.1-12.03C39.55 52.62 45.84 48.73 51 43.9c1.31-1.2 2.15-2.8 2.76-4.45l1.16-2.87z"/>
    <path fill="#c62d2e" d="M64.43 62.54c1.32-1.26 2.73-2.44 4.17-3.56 2.19 3.04 4.32 7.39 1.49 10.76-3.87 4.79-2.28 11.11-1.62 16.66-.61 1.75-.83 3.58-.95 5.41-1.14 1.32-2.32 2.6-3.49 3.9.25-2.07.71-4.15.52-6.24-1.95-2.27-4.74-4.1-4.71-7.43 1.09 1.28 2.13 2.6 3.17 3.92-.06-1.82-.11-3.63-.16-5.44-2.55.28-5.15.14-7.32-1.4.16-.4.47-1.2.62-1.6 1.23-1.97 2.46-3.95 3.67-5.93 2.35-2.53 5-5.29 4.61-9.05z"/>
    <path fill="#681818" opacity=".71" d="M56.15 77.52c.74-2.25 1.99-4.27 3.67-5.93-1.21 1.98-2.44 3.96-3.67 5.93z"/>
    <path fill="#b5292b" d="M56.8 96.64c-2.31-5.54-2.71-11.69-1.27-17.52 2.17 1.54 4.77 1.68 7.32 1.4.05 1.81.1 3.62.16 5.44-1.04-1.32-2.08-2.64-3.17-3.92-.03 3.33 2.76 5.16 4.71 7.43.19 2.09-.27 4.17-.52 6.24 1.17-1.3 2.35-2.58 3.49-3.9.12-1.83.34-3.66.95-5.41 1.92 4.45 6.1 9.25 3.21 14.26-3.96 4.7-9.98 7.75-16.11 8.32 1.98-3.78 2.7-8.25 1.23-12.34z"/>
    <path fill="#2b0a09" opacity=".5" d="M51.82 89.93c.15-3.37.15-6.79 1.1-10.05-.01 3.74.01 7.48-.31 11.21-.83-.32-1.66-.64-2.5-.96l1.71-.2z"/>
    <path fill="#8c2122" opacity=".9" d="M54.66 99.77c.15.31.45.93.61 1.24.15 3.36-1.04 6.51-2.46 9.48-1.31-.32-2.59-.75-3.88-1.15 2.42-2.85 5.31-5.63 5.73-9.57z"/>
    <path fill="#030001" opacity=".18" d="M71.99 111.74c6.91-1.91 12.6-6.53 17.97-11.08-.37 1.85-.11 4.25-1.81 5.5-2.63 1.65-5.63 2.75-7.88 4.97-3.19 3.16-7.3 5.39-11.8 5.86-.49-1.18-.97-2.35-1.46-3.52-2.25.31-3.71 1.95-5.19 3.49-6.56 1.37-13.5 1.3-19.98-.51 1.25-.63 2.49-1.27 3.74-1.88-.09-.56-.28-1.69-.37-2.26 8.82 2.31 17.98 1.23 26.78-.57z"/>
</svg>
