<svg width="128pt" height="128pt" viewBox="0 0 128 128" xmlns="http://www.w3.org/2000/svg">
    <path opacity=".98" d="M64.63 19.86c-3.43 6.29-.47 13.64-2.5 20.21-.52-4.4-2.88-8.45-2.79-12.92.66-3.04 2.88-5.45 5.29-7.29zm6.53 13.69c1.59 2.47 3.34 5.6 2.03 8.55-1.24 3.12-1.15 6.57-.67 9.84.42 2.98 3.48 4.84 3.47 7.99-1.95-1.8-4.3-3.61-4.78-6.4-1.4-.04-2.8-.04-4.19 0-2.32 3.5-5.51 6.34-7.68 9.95-1.62 2.68-4.17 4.66-5.77 7.36-2.83 4.7-3.8 10.28-3.83 15.7-1.6-2.17-3.35-4.25-4.64-6.63-.83-1.62-1.56-3.29-2.25-4.98.08-1.73.39-3.44.91-5.09 1.92-3.52 4-6.98 6.58-10.06 4.41-6.15 13.04-6.89 17.21-13.22 1.6-2.06 2.73-4.47 3.27-7.03l.51.04c-.12-2.01-.21-4.01-.17-6.02z" fill="#fafafa"/>
    <path fill="#fcfcfc" d="M49.23 49.24c1.2-1.55 2.33-3.53 4.36-4.07-1.23 4.31-4.85 6.66-7.93 9.48-2.96 2.05-4.83 5.32-6.88 8.21-3.06 4.93-4.25 10.97-3.03 16.66 1.04 3.06 3 5.7 5.1 8.12 3.76 4.68 9.09 8.16 11.44 13.87.41.19 1.22.56 1.63.75-.33-.03-.99-.09-1.32-.11-.19 2.12-.64 4.22-1.16 6.29l.08-1.31c.26-2.62 1-5.53-.71-7.85-4.14-6.38-11.73-9.01-16.82-14.42-2.29-2.2-4.98-4.37-5.8-7.59 1.59-6.02 5.05-11.24 9.08-15.89 3-4.89 7.23-8.92 11.96-12.14z"/>
    <path fill="#2f2f2f" opacity=".18" d="M38.78 62.86c2.05-2.89 3.92-6.16 6.88-8.21l.56-.37c-1.01 3.32 1.43 4.8 4.12 5.5-2.58 3.08-4.66 6.54-6.58 10.06-1.99-2.07-3.76-4.36-4.98-6.98z"/>
    <path d="M81.86 64.57c2.05-1.91 2.05-4.88 2.05-7.49.39 1.38.85 2.74 1.36 4.08-1.16 3.54-4.61 5.93-5.13 9.7-.59 2.65-.74 5.38-.49 8.08.48 3.21 4.1 5.37 3.59 8.76-.69 4.42-4.45 8.54-2.64 13.1l3.51-.04c2.44-2.65 5.11-5.33 6.28-8.83.89-2.62 1.16-5.38 1.38-8.12.6 1.21 1.18 2.44 1.73 3.67-1.59 4.45-2.49 9.59-6.85 12.28-4.6 4.25-9.94 7.8-15.95 9.67-1.15.13-2.31.16-3.46.1.84-1.27 2.4-1.14 3.72-.89.36-.34 1.08-1.03 1.44-1.37 1.89-1.99 3.94-3.93 5.16-6.42.47-2.85.58-5.87-.05-8.7-1.8-4.3-4.64-8.35-4.81-13.17.2-2.16 1.25-4.12 2-6.12 1.52-3.42 4.53-5.77 7.16-8.29zm-14.95.37c.29-.66.85-1.99 1.13-2.66.67 2.4.96 5.01-.7 7.09-2.28 3.14-2.5 7.02-2.09 10.75.14 4.2.79 8.49 3.15 12.06-3.11 1.2-5.99 2.89-8.65 4.9-2.92-6.84-3.88-15.24.56-21.66 2.09-3.57 6.41-6.02 6.6-10.48z" fill="#fefefe"/>
    <path fill="#1c1c1c" opacity=".11" d="M38.78 62.86c1.22 2.62 2.99 4.91 4.98 6.98-.52 1.65-.83 3.36-.91 5.09l-1.26-3.03c-1.69 1.02-4.64 1.54-4.36 4.1-.35 3.07 1.39 5.76 2.72 8.38.51 1.02.81 2.11.9 3.26-2.1-2.42-4.06-5.06-5.1-8.12-1.22-5.69-.03-11.73 3.03-16.66z"/>
    <path fill="#0e0e0e" opacity=".05" d="M37.23 76c-.28-2.56 2.67-3.08 4.36-4.1l1.26 3.03c.69 1.69 1.42 3.36 2.25 4.98-1.66 1.56-3.38 3.05-5.15 4.47-1.33-2.62-3.07-5.31-2.72-8.38z"/>
    <path fill="#222" opacity=".13" d="M69.68 79.64c1.2-2.56 1.85-5.98 5.02-6.78-.75 2-1.8 3.96-2 6.12.17 4.82 3.01 8.87 4.81 13.17.63 2.83.52 5.85.05 8.7-1.22 2.49-3.27 4.43-5.16 6.42-.53-1.29-.77-2.74-1.63-3.86-1.64-.45-3.33-.66-5-.93 4.22-1.66 5.61-6.81 2.63-10.3-2.36-3.57-3.01-7.86-3.15-12.06l4.43-.48z"/>
    <path fill="#202020" opacity=".13" d="M83.24 87.7c.37 2.08.71 4.15 1.04 6.24 2.3.39 4.27-.83 6.11-2.01-1.17 3.5-3.84 6.18-6.28 8.83l-3.51.04c-1.81-4.56 1.95-8.68 2.64-13.1z"/>
    <path fill="#e9e9e9" opacity=".91" d="M59.75 97.08c2.66-2.01 5.54-3.7 8.65-4.9 2.98 3.49 1.59 8.64-2.63 10.3-1.93 1.31-4.02 2.35-6.1 3.41.25-2.93.2-5.88.08-8.81z"/>
    <path fill="#111" opacity=".07" d="M70.7 109.43c6.01-1.87 11.35-5.42 15.95-9.67.24 1.3.47 2.6.71 3.9l4.44.63c-.01.58-.05 1.73-.06 2.31-3.49.59-7.05.76-10.48 1.63-3.32 1.65-6.16 4.17-9.59 5.66-.35-1.49-.67-2.97-.97-4.46z"/>
    <path fill="#2c2c2c" opacity=".18" d="M55.63 108.45c1.72-1.06 3.21-2.6 5.3-2.87-.34.64-1.02 1.93-1.36 2.58.55 1.38 1.09 2.76 1.63 4.15-3.41-.64-8.41.32-9.76-3.87 1.4.03 2.8.16 4.19.01z"/>
    <path fill="#171717" opacity=".09" d="M50.66 108.88c.22-.43.65-1.31.86-1.75l-.08 1.31c1.35 4.19 6.35 3.23 9.76 3.87-.08.67-.25 2.03-.34 2.7-3.23.27-6.47.47-9.72.61-.31-1.39-.73-2.75-.88-4.16.56-.79.7-1.65.4-2.58z"/>
    <path fill="#585858" opacity=".35" d="M50.66 108.88c.3.93.16 1.79-.4 2.58-1.49-.98-1.36-1.84.4-2.58z"/>
</svg>
