<svg width="128pt" height="128pt" viewBox="0 0 128 128" xmlns="http://www.w3.org/2000/svg">
    <path fill="#fff" d="M51.8 40.79c4.59-2.58 9.65-5.72 15.13-4.7 4.99.22 9.96 1.05 14.72 2.58 6.22 2.97 12.12 7.36 19.25 7.72 3.49.57 7.03.25 10.46-.56-4.28 4.58-9.76 8.67-16.24 8.98-10.08.6-18.99-6.09-28.98-5.65-9.17.16-14.63 10.5-12.89 18.68.56 3.04 3.19 4.96 5.43 6.78l.61-1.6c-.35 1.3-.71 2.61-1.08 3.91 4.89.41 9.73-1.17 13.8-3.83 4.18-2.91 5-9.76 1.23-13.35-3.03-3.79-9.78-4.46-12.77-.3-2.86 3.57-.21 9.81 4.48 9.88 2.9.24 5.56-2.45 5.34-5.32-.36-1.69-1.92-2.7-3.05-3.84-1.33.34-4.74 2.03-2.33 3.41.67-.25 2.01-.76 2.68-1.01-.41 1.93-1.74 3.29-3.48 4.09-1.29-.99-2.99-1.81-3.42-3.53.13-2.79 2.39-5.45 5.29-5.4 4.8-.47 9.4 4.45 8.25 9.25-.23 2.92-2.99 4.7-5.39 5.83-4.47 2.07-9.64-.58-12.36-4.24-2.36-6.51 1.79-14.7 8.68-16.15 3.71-1.11 8.19-.77 11.07 2.03.36-.48.71-.96 1.06-1.45.17.78.51 2.33.68 3.1l.6-.69c4.35 4.71 5.88 11.63 4.27 17.79-.93 7.44-6.81 13.09-12.97 16.7-8.57 4.95-18.77 1.98-27.69-.3-9.23-2.68-19.62.09-26.7 6.46 3-7.97 7.55-16.17 15.65-19.85 8.62-2.68 17.85-1.36 26.5.52.31-1.2-.38-2.22-.95-3.2l.33 1.42c-4.94-.44-9.78-1.68-14.77-1.59-2.42-3.67-1.92-8.2-2.01-12.37.09-8.16 5.2-15.49 11.57-20.2z"/>
</svg>
