<svg width="128pt" height="128pt" viewBox="0 0 128 128" xmlns="http://www.w3.org/2000/svg">
    <g fill="#fff">
        <path d="M57.13 27.4c6.34-1.63 12.21-4.87 17.23-9.04-1.21 5.55-2.72 11.97-7.94 15.14-3.88 2.8-10.25 1.3-12.88 5.79-.91.11-2-.39-2.72.44-2.89 2.2-5.79 4.62-7.39 7.96 0-3.64-.84-7.2-1.32-10.79 4.09-4.34 9.13-8.08 15.02-9.5zm-30.07-2.78c1.28-.21 2.58.07 3.52 1.02 4.07 3.39 6.98 7.86 9.89 12.2 1.69 4.44 1.92 9.69.01 14.11-3.1 6.7-2.29 14.47-.65 21.45-1.7-.05-4.19 1.07-5.26-.87-4.73-7.72-6.77-17.43-4.29-26.27 1.7-6.72 1.9-14.05-1.06-20.47-.73-.37-1.45-.76-2.16-1.17zm50.06 28.11c5.12 1.01 9.8 3.77 15.14 3.87 2.46 4.5 4.56 9.79 3.16 14.97-1.6 6.46-3.52 12.86-4.56 19.44.31 5.05 1.5 10.17 3.93 14.64-5.92-2.61-9.67-8.24-12.58-13.76-2.18-6.12 1.89-12 2.67-17.98 1.57-7.65.38-17.78-7.76-21.18z"/>
        <path d="M71.03 90.95c4.19-2.1 7.15-5.7 9.97-9.3-.79 3.24-1.11 6.6-.35 9.88.93 2.88-2.38 4.41-4.2 5.92-5.06 3.93-11.48 5.03-17.53 6.59-5.1.68-9.82 4.13-11.49 9.07.45-6.22 2.71-12.97 8.1-16.58 4.58-3.39 10.89-2.2 15.5-5.58z"/>
    </g>
</svg>
