<svg width="128pt" height="128pt" viewBox="0 0 128 128" xmlns="http://www.w3.org/2000/svg">
    <path fill="#fff" d="M41.54 28.67c7.25-3.82 16.2-6.72 24.13-3.13 1.1 1.06 1.23 2.76 1.87 4.1-1.24.03-2.61-.15-3.49.94l.87-1.39c-3.33.92-4.57-2.65-7.33-3.45.67 1.27 1.61 2.37 2.56 3.44-1.69 1.24-.65 3.23-.62 4.94.31 2.47-.5 4.9-.35 7.38l1.02-3.36c.32.71.65 1.42.97 2.14-1.26 1.48-2.19 3.72-4.33 4.08-1.51.21-4.48 1.08-2.55 3.35.7 1.97-.61 3.84-1.07 5.71-.92.07-2.75.21-3.66.29 1.58 1.87 3.54.74 4.99-.7-.79 2.6-2.99 4.04-5.47 2.58.66 3.51.93 7.76-2.04 10.34-1.65-.71-4.06-1.62-3.95-3.82.44-.25 1.33-.75 1.77-1-.28-.04-.86-.12-1.15-.16-2.86 1.05-2.36-2.71-2.33-4.45-2.58-5.1-2.06-11.21-1.65-16.76.34-.36 1.02-1.07 1.36-1.43-.8-1.36-1.16-2.91-1.79-4.35-.13.68-.41 2.04-.55 2.72l-.76.16c.15-3 .48-6.66 3.55-8.17m14.83-1.23c.04 1.41.73 2.05 2.08 1.93-.04-1.4-.73-2.05-2.08-1.93m-16.59 5.42c.34 0 1.02 0 1.36.01.61-1.08 1.79-2.2 1.53-3.53-1.55-.06-2.79 2.09-2.89 3.52M50.4 44.4c.97-.36 1.93-.73 2.88-1.1 1.28-.1 2.55-.22 3.82-.35-1.53-.49-3.02-1.08-4.48-1.74.17 1.6-.57 2.66-2.22 3.19m-10.09-4.43c-.33 3.57-.15 7.16.51 10.68l1.18-.09c-.47-3.48 1.31-7.96-1.69-10.59m1.01 12.91c-.71 1.41-.48 2.35.71 2.82.7-1.37.46-2.31-.71-2.82z"/>
    <path fill="#8b8b8b" opacity=".55" d="M60.62 37.58c.27-.5.8-1.48 1.06-1.97 1.29.72.2 3.24-1.06 1.97z"/>
    <path fill="#4f4f4f" opacity=".31" d="M40.31 39.97c3 2.63 1.22 7.11 1.69 10.59l-1.18.09c-.66-3.52-.84-7.11-.51-10.68z"/>
    <path fill="#1f1f1f" opacity=".12" d="M41.32 52.88c1.17.51 1.41 1.45.71 2.82-1.19-.47-1.42-1.41-.71-2.82z"/>
</svg>
