<svg width="128pt" height="128pt" viewBox="0 0 128 128" xmlns="http://www.w3.org/2000/svg">
    <path fill="#fff" d="M56.68 33.77c10.14-8.59 24.63-11.56 32.38-23.01C84.16 20 74.28 24.61 65.63 29.6c-5.8 2.94-11.51 7.49-13.36 13.98 7.11.87 14.34 2.02 20.77 5.35 6.41 3.24 14.09 2.53 20.2 6.46-2.29 3.44-5.43 6.26-9.14 8.08-3.9 1.67-3.49 6.64-5.99 9.51-4.66 5-10.55 9.04-17.26 10.65 8.6 8.36 21.24 6.32 32.09 8.09.91-1.34 2.29-1.38 3.45-.32l.25.53c3.51 2.34 8.53 2.47 11.44 6.06-6.33-4.86-14.62-4.65-22.16-5.66-7.35.06-14.83-.81-21.67-3.63-2.55-1.32-5.3-2.37-8.17-2.63-3.23.92-6.66 2.09-9.98.87-4.22-1.92-8.79-3.48-12.02-6.98-2.33 2.1-2.91 5.28-1.7 8.14 1.03 3.96 4.02 7.24 4.25 11.42-2.45-5.81-6.68-11.06-6.89-17.62.89-3.99 4.3-6.57 6.17-10.02.78-3.35.44-7-1.53-9.91 2.16 4.6.51 9.97-3.32 13.1-1.06 1.04-2.1 2.1-3.08 3.22-3.03-.22-5.15-2.65-7.82-3.77-2.35.13-4.71.01-7.04.31 2.23-1.55 4.55-2.95 7.11-3.88-1.36-2.1-3.16-3.85-4.76-5.76 3.41-6.91 9-12.63 16.1-15.73 4.94-3.39 12.05-2.01 16.12-6.81 3.34-2.62 5.62-6.3 8.99-8.88M21.35 65.25c.66.38 1.99 1.14 2.66 1.52 2.52.09 2.48-3.41.49-4.1-1.7-.73-2.31 1.55-3.15 2.58z"/>
</svg>
