<svg width="128pt" height="128pt" viewBox="0 0 128 128" xmlns="http://www.w3.org/2000/svg">
    <g fill="#fff">
        <path d="M50.81 26.23c2.47-3.96 6.51-7.15 11.33-7.43 6.71-1.09 15.71 3.63 15.13 11.25.01 11.28.49 22.54.45 33.82-4.56 3.3-9.21 6.49-13.86 9.68-4.49-3.35-9.22-6.38-13.74-9.7.21-12.54.21-25.09.69-37.62m5.23 10.31c2.55 3.29 5.24 6.47 7.9 9.67 2.54-3.22 5.23-6.33 7.94-9.4-2.54-3.02-5.18-5.96-8-8.71-2.7 2.73-5.24 5.61-7.84 8.44m5.52 16.91c.8 1.18 1.59 2.35 2.38 3.53.77-1.14 1.54-2.28 2.32-3.41-.76-.99-1.52-1.98-2.27-2.97-.8.95-1.61 1.91-2.43 2.85z"/>
        <path d="M46.79 31.18c-.46-1.52 1.23-2.2 2.03-3.18-.54 12.34-1.06 24.68-1.54 37.02 1.06.75 2.13 1.49 3.19 2.24-1.54 1.03-3.09 2.04-4.66 3.04-.61-2.67-.68-5.42-.25-8.11.93-6.06-.01-12.22.93-18.27.63-4.22.66-8.5.3-12.74zm32.42-3.22c.64.65 1.26 1.32 1.86 2.01-.86 8.91 1.18 17.72.89 26.63-.06 4.15.19 8.29.38 12.44l-.21.69c-1.18-.02-2.35-.22-3.5-.6-1.23-1.91.72-3.27 1.94-4.48-.31-12.23-1.23-24.45-1.36-36.69zm-46.86 8.19c1.22-2.86 4.69-3.05 7.28-3.86-.03 3.33 1.23 6.82.09 10.06-1.02.21-3.07.62-4.09.83 1.29.76 2.73 1.17 4.21 1.37-.2.54-.58 1.63-.77 2.17-2.45.54-3.21-1.77-3.82-3.49-2.87.99-5.72 2.06-8.48 3.34.54-2.21.79-4.5 1.78-6.57 1.61-.92 3.15-2.04 3.8-3.85zm56.39-4.53c.88 2.95.98 6.06 1.82 9.02 3.42 2.46 8.88 2.05 11.08 6.03-2.73-1.09-5.44-2.25-8.21-3.22-.91.45-1.81.92-2.71 1.39 3.72.72 7.1 2.48 10.39 4.28.29.76.86 2.28 1.15 3.04-1.31 1.08-3.77 1.83-3.62 3.87.64 2.32-1.41 3.57-2.82 4.94 1.97 1.8.09 3.92-1.14 5.4-.93.01-1.86.03-2.79.04-.37-6.59-2.21-12.98-3.26-19.48 1.67-.09 3.32-.24 4.98-.42-1.73-.18-3.48-.15-5.22-.19l-.04-2.53 1.66 1.07c.61-.62 1.22-1.23 1.84-1.83l-4.06-.68c-.19-3.6-.02-7.24.95-10.73z"/>
        <path d="M90.06 32.57c2.97.83 5.75 2.51 6.53 5.69 2.55 1.11 4.13 3.44 4.32 6.25-3.15-1.42-6.44-2.52-9.62-3.88-1.29-2.43-.85-5.41-1.23-8.06zM33.22 45.78c1.99.65 4.05 1.03 6.08 1.55-1.42 5.33-2.01 10.82-3.2 16.19-.41 1.2-.86 2.4-1.3 3.59-1.09-1.11-2.18-2.22-3.27-3.34.25-.76.76-2.28 1.01-3.04-1.03-.98-2.07-1.94-3.1-2.92.22-.85.43-1.71.65-2.57-1.26-1.3-3.5-2.08-3.9-3.96 2.67-1.51 5.54-2.61 8.44-3.61-.36-.47-1.06-1.42-1.41-1.89zm-8.03 9.09c.89 1.38 1.49 2.91 1.85 4.52.53.8 1.58 2.41 2.11 3.22-1.47-.91-2.93-1.83-4.39-2.74.05-.77.17-2.31.23-3.08l.2-1.92zm77.08-.04c.89 2.28 1.1 4.75 1.6 7.13-3.92 2.68-7.31 6.01-10.81 9.19-1.84-3.48 2.9-4.73 4.18-7.46l.8-.06c.39.04 1.17.11 1.56.14l-.46-.84c1.24-.49 2.44-1.09 3.59-1.79-1.15.43-3.43 1.29-4.58 1.72l1.67-3.1.59-.56c-.01-1.65-.02-3.62 1.86-4.37z"/>
        <path d="M97.67 62.85c-2.31-1.07.59-4.78 2.25-4.39-.02.33-.07.98-.1 1.3-1.33.58-1.18 2.37-2.15 3.09zm-68.99-3.84c1.59-.02 2.82 2.26 2.22 3.66-1.3-.31-2.48-2.35-2.22-3.66zm-9.61 6.41c.65-1.28.45-4.59 2.6-2.9 2.02 3.7 3.83 7.57 6.79 10.65-.45 2.61-.91 5.23-1.34 7.85-1.65.03-3.3.06-4.95.08-.9-1.09-1.79-2.18-2.7-3.27-.73 2.6-1.4 5.21-2.14 7.81-1.4-2.73-1.99-5.77-1.36-8.81.83-3.83.85-8.06 3.1-11.41zm5.99-2.74c.2-.25.6-.74.8-.98 3.08 2.1 6.32 4.03 8.94 6.71.06.39.18 1.19.24 1.59l.14 1.11c-3.51-2.65-6.65-5.75-10.12-8.43zm18.04-1.66c.6 2.9.91 5.85.92 8.81 1.63 2.34 3.87 4.1 6.48 5.23.69.16 2.05.48 2.74.64-.41-1.26-1.28-1.7-2.63-1.32.33-2.1.66-4.21 1-6.3 4.12 2.94 8.24 5.87 12.34 8.84 3.07-2.24 6.19-4.42 9.23-6.71 1.39-.95 2.82-2.27 4.63-1.91l-.86 3.76L78 69.38c.41.2 1.22.61 1.63.82-.06 1.42 0 2.83.12 4.25.46-1.28.84-2.59 1.37-3.85 2.98.26 2.41-3.17 3.21-5 .11-.38.35-1.14.47-1.52.45 2.23.36 4.51.48 6.77-3.16 2.4-6.09 5.13-9.48 7.21-.58.59-1.16 1.19-1.73 1.79.1-1.46.34-2.96-.26-4.37-.2 1.54-.25 3.09-.3 4.64-3.07 2.61-6.45 4.83-9.59 7.35-3.28-3.03-7.96-4.85-9.98-8.97 2.94-1.08 3.97 3.73 6.96 3.27 1.48-.02 2.15-2.44 3.73-1.75.3 1.08-.75 2.32.14 3.28.77 1.07 1.66-.57 2.32-.95 1.49-1.18 2.98-2.35 4.45-3.56.11-1.55.23-3.11.35-4.66 1.22.47 2.38 1.1 3.65 1.42 1.03-.73 2-1.56 2.91-2.44-1.13.64-2.25 1.3-3.35 1.98-1.11-.59-2.22-1.19-3.33-1.8-.5 2.15.17 5.02-1.99 6.39-1.38 1.18-2.84 2.26-4.37 3.26.05-.92.15-2.75.19-3.67l-.41-.51c-.27-.28-.82-.82-1.09-1.1-1.29 1.12-1.75 4.16-3.92 3.36-1.1-.68-2.19-1.37-3.2-2.18-.72-1.66-.42-3.51-.72-5.26l-.38-.5c-2.31 1.17-.78 4.62-2.81 5.81-3.89-2.13-6.98-5.43-10.5-8.11.2-3.25.19-6.52.53-9.76m19.2 21.72c-.38 1.38.08 2.02 1.39 1.92.37-1.45-.1-2.09-1.39-1.92zm42.98-18.53c.36-1.18 1.39-1.82 2.37-2.44.36 1.2.7 2.4 1.04 3.61 2.52 3.47 2.34 8 3.26 12.02.61 2.49.45 5.02-.56 7.38l1.12-.52c.13 1.83.27 3.67.78 5.44-.46-.12-1.36-.36-1.82-.48l-.19 1.2-2.46-.4c.16 3.72-.22 7.43-.79 11.11-1.61-3.19-2.01-6.91-1.6-10.42l2.48-.88c-2.05-2.33-4.39-4.41-7.54-5-.04-.82-.11-2.46-.15-3.28-.97-2.7-1.35-5.57-1.82-8.39 2.34-2.72 4.46-5.64 5.88-8.95zm-62.51 12.8c7.3 1.86 13.05 6.95 18.58 11.78-.59 1.37-1.16 2.75-1.71 4.13-1.11-3.3-3.98-5.91-7.62-5.58-3.14-.3-5.33 2.1-6.87 4.49-1.25-4.83-3.09-9.75-2.38-14.82zm23.87 11.68c5.64-4.65 11.2-10.17 18.64-11.63.18 4.92-1.08 9.74-2.55 14.39-1.98-3.19-5.57-4.73-9.27-4.15 2.15.55 4.34.94 6.49 1.54 1.22 1.54 2.22 3.25 2.11 5.3-1.74-1.46-3.06-3.4-5.07-4.52-3.85-1.06-5.05 3.65-8.08 4.86-.35-2.85 2.24-5.08 4.12-6.85-2.65.7-3.62 3.4-4.91 5.49-.47-1.49-.96-2.96-1.48-4.43z"/>
        <path d="M18.94 84.99c.16-1.61.31-3.21.48-4.81 1.94 2.15 4.73 2.07 7.38 1.96-.1.69-.29 2.07-.38 2.76-3.2.56-5.43 2.86-7.65 5.02-1.24-.69-4.33-.75-2.6-2.66.91-.77 1.79-1.59 2.77-2.27zm4.73 3.84c1.48-.45 2.95-.94 4.42-1.42.14 3.39 3.39 9.06-1.07 10.75-1.59-2.93-2.69-6.07-3.35-9.33zm22.26 5.3c-.58-3.06 2.06-5.96 5.09-6.16 3.98-.88 7.01 2.05 8.52 5.4-.36.22-1.09.66-1.46.89-1.42-1.4-2.67-2.95-4.07-4.35-3.6-1.75-5.74 2.29-8.08 4.22zm53.82-6.64c1.52.45 3.05.92 4.59 1.34-.88 3.13-1.91 6.21-3.25 9.17-.58-.23-1.74-.7-2.32-.93-.34-3.23.4-6.42.98-9.58zm-80.76 2.78c.28.02.84.07 1.12.1.38.03 1.15.1 1.53.14.04 3.63-.21 7.33-1.74 10.68-.61-3.61-.9-7.26-.91-10.92zm26.52 6.46c.17-.49.35-.98.55-1.46 1.88 1.1 3.75 2.2 5.72 3.12 2.06-.91 4.43-3.68 6.72-1.83-2.34 1.74-5.1 2.73-7.63 4.13 2.65-.66 5.09-1.92 7.43-3.29 1.69 4.45 2.67 9.17 2.48 13.95-5.78-.1-11.56-.24-17.34.09l.07-1.04-1.15.36c.56-4.63 1.24-9.25 2.86-13.64 1.34.65 2.67 1.34 4.08 1.83-1.18-.87-2.49-1.53-3.79-2.22zm34.66-1.05c.44-.02 1.34-.08 1.79-.11.96 1.92-2.83 2.09-1.79.11zm-10.39.08c2.81-.15 5.03 3.11 7.82 1.85.04.32.13.95.18 1.26-.55.29-1.64.86-2.18 1.15-2.02-1.2-5.12-1.66-5.82-4.26z"/>
        <path d="M78.6 97.41c1.45.12 2.9.21 4.36.27.78 3.01 1.82 5.97 1.89 9.11.08 1 .24 3.01.31 4.01-2.29-2.31-4.45-5.73-8.11-5.65-3.28-.2-6.29 1.44-8.2 4.04l-1.73 1.09c-.15-4.4.94-8.71 2.42-12.81 2.21 1.12 4.4 2.84 6.99 2.83 2.03.71 2.17-1.62 2.07-2.89z"/>
        <path d="M68.61 109.61c2.9-2.01 6.36-4.28 10.06-3.26 2.27.93 3.76 3.01 5.48 4.67-4.52-.06-9.04-.01-13.56.26-1.36.05-2.71.07-4.07.05.68-.58 1.38-1.16 2.09-1.72z"/>
    </g>
    <path fill="#e3e3e3" opacity=".89" d="M81.07 29.97c.14.66.42 2 .55 2.66l1.44-.69c.47 10.71 1.65 21.45 1.74 32.14-.12.38-.36 1.14-.47 1.52l-.21.69c-.52.97-1.11 1.89-1.78 2.75-.19-4.15-.44-8.29-.38-12.44.29-8.91-1.75-17.72-.89-26.63z"/>
    <path fill="#c7c7c7" opacity=".78" d="M45.01 32.87c.44-.42 1.33-1.27 1.78-1.69.36 4.24.33 8.52-.3 12.74-.94 6.05 0 12.21-.93 18.27-.43 2.69-.36 5.44.25 8.11 1.57-1 3.12-2.01 4.66-3.04l.33-.22c.2.26.61.78.81 1.04-.34 2.09-.67 4.2-1 6.3l-.11.68c-2.61-1.13-4.85-2.89-6.48-5.23-.01-2.96-.32-5.91-.92-8.81.11-7.69.84-15.42 1.41-23.1.24.37.72 1.12.96 1.49.58-2.15.81-4.56-.46-6.54m3.01 37.96c-1.55 2.89 3.34.2 0 0z"/>
    <path opacity=".89" d="M45.01 32.87c1.27 1.98 1.04 4.39.46 6.54-.24-.37-.72-1.12-.96-1.49-.3-1.66-.16-3.49.5-5.05zm54.54 21.91c.73-.85 1.58-1.13 2.58-.86-.75 1.17-1.62 2.26-2.62 3.26l-.43.08c.12-.62.36-1.86.47-2.48z" fill="#e4e4e4"/>
    <path fill="#9c9c9c" opacity=".61" d="M26.18 49.24c2.26-1.32 4.59-2.51 7.04-3.46.35.47 1.05 1.42 1.41 1.89-2.9 1-5.77 2.1-8.44 3.61.4 1.88 2.64 2.66 3.9 3.96-.22.86-.43 1.72-.65 2.57 1.03.98 2.07 1.94 3.1 2.92-.25.76-.76 2.28-1.01 3.04 1.09 1.12 2.18 2.23 3.27 3.34.44-1.19.89-2.39 1.3-3.59-.05 2.2-.43 4.37-1.06 6.48-.06-.4-.18-1.2-.24-1.59-2.62-2.68-5.86-4.61-8.94-6.71-.2.24-.6.73-.8.98-.33.06-.98.2-1.3.26.22-2.08.59-4.15 1.23-6.15-.06.77-.18 2.31-.23 3.08 1.46.91 2.92 1.83 4.39 2.74-.53-.81-1.58-2.42-2.11-3.22-.36-1.61-.96-3.14-1.85-4.52-.04-1.93.11-3.88.99-5.63m.05 4.87c-.37 1.21 1.46 2.57 2.52 1.91.37-1.21-1.45-2.6-2.52-1.91m2.45 4.9c-.26 1.31.92 3.35 2.22 3.66.6-1.4-.63-3.68-2.22-3.66z"/>
    <path fill="#e8e8e8" opacity=".91" d="M26.23 54.11c1.07-.69 2.89.7 2.52 1.91-1.06.66-2.89-.7-2.52-1.91z"/>
    <path fill="#8e8e8e" opacity=".56" d="M14.62 89.77c.54-4.31.8-8.64 1.35-12.94-.63 3.04-.04 6.08 1.36 8.81.74-2.6 1.41-5.21 2.14-7.81.91 1.09 1.8 2.18 2.7 3.27 1.65-.02 3.3-.05 4.95-.08-.22 1.3-.45 2.59-.7 3.88.09-.69.28-2.07.38-2.76-2.65.11-5.44.19-7.38-1.96-.17 1.6-.32 3.2-.48 4.81-.98.68-1.86 1.5-2.77 2.27-1.73 1.91 1.36 1.97 2.6 2.66l1.34.45c-.28-.03-.84-.08-1.12-.1-1.46-.12-2.92-.3-4.37-.5z"/>
    <path fill="#828282" opacity=".51" d="M68.85 109.19c1.91-2.6 4.92-4.24 8.2-4.04 3.66-.08 5.82 3.34 8.11 5.65-.07-1-.23-3.01-.31-4.01.34 1.58.61 3.18.89 4.78-5.05.14-10.1-.21-15.15-.29 4.52-.27 9.04-.32 13.56-.26-1.72-1.66-3.21-3.74-5.48-4.67-3.7-1.02-7.16 1.25-10.06 3.26l.24-.42z"/>
</svg>
