<svg width="128pt" height="128pt" viewBox="0 0 128 128" xmlns="http://www.w3.org/2000/svg">
    <path fill="#fff" d="M81.46 27.53c11.41-3.6 24.13 3.89 28.3 14.71 2.14 4.53 1.96 9.68 1.55 14.55-1.98 10.19-10.11 17.52-18.02 23.49-9.92 7.43-19.99 14.66-29.86 22.15-9.52-7.12-19.07-14.21-28.71-21.17-6.85-5.32-14.22-10.91-17.29-19.37-3.18-8.77-1.3-19.4 5.3-26.14 5.25-5.85 13.36-8.9 21.16-8.13 7.58 1.14 14.09 5.91 19.43 11.18 5.33-4.74 11-9.61 18.14-11.27m-46.09 4.78c2.39 1.53 5.87 2.41 8.41 4.19 3.36-.63 6.8-.54 10.18-.11-5.35-3.65-12.14-6.8-18.59-4.08M71.72 37c3.97-1.02 8.05-1.09 12.11-.68 3.13-1.32 6.09-3.03 9.24-4.31-7.48-3.33-15.22.77-21.35 4.99m-48.64 6.51c2.95.46 5.89 1 8.8 1.69 1.79-2.51 4.03-4.61 6.48-6.46-3.15-1.08-6.34-2.03-9.56-2.89-2.79 1.79-4.46 4.68-5.72 7.66m66.52-4.76c2.45 1.83 4.81 3.84 6.51 6.43 2.88-.66 5.81-1.16 8.74-1.54-1.33-2.73-2.94-5.31-4.79-7.72-3.58.59-7.07 1.56-10.46 2.83M36.38 52.86c-1.08 5.84-.85 12.74 3.94 16.96 7.23 6.55 15.66 11.58 23.17 17.79 5.48-3.88 10.71-8.09 16.22-11.94 4.66-3.49 10.02-7.16 11.58-13.13.94-5.11.78-10.93-2.54-15.22-2.5-3.87-7.27-5.42-11.66-5.64-5.26.44-9.77 3.66-13.43 7.26-4.02-3.74-9.11-7.5-14.94-6.63-5.81.34-11 4.94-12.34 10.55m-15.15 3.8c2.51-.15 5.02-.18 7.53-.18-.06-2.6.47-5.14 1.24-7.61-2.78-.31-5.56-.43-8.35-.39-.42 2.71-.42 5.45-.42 8.18m76.98-7.67c.66 2.46 1.04 4.98 1.36 7.5 2.18 0 4.36.04 6.53.13.29-2.7.32-5.42 0-8.12-2.64.01-5.27.22-7.89.49M21.98 61.24c1.16 2.49 2.44 4.91 3.94 7.22 1.92-.5 3.86-.94 5.8-1.33-1.23-2.27-2.24-4.65-2.97-7.13-2.28.24-4.55.64-6.77 1.24m77.26-1.22c-.63 2.45-1.56 4.81-2.78 7.03 1.55.32 3.1.64 4.65.95 1.64-2.21 3-4.6 4.05-7.15-1.97-.31-3.95-.57-5.92-.83M29.08 71.6c2.15 1.77 4.29 3.54 6.49 5.24 1.2-.48 2.4-.97 3.59-1.46-1.58-2.05-3.53-3.76-5.41-5.52-1.59.49-3.15 1.08-4.67 1.74m65.26-1.67c-1.89 1.93-3.96 3.69-6.25 5.13.83.37 2.48 1.1 3.31 1.47 2.4-1.68 4.68-3.51 6.84-5.48-1.3-.38-2.6-.75-3.9-1.12m-8.74 7.06c-1.76 1.45-3.57 2.85-5.42 4.19.74.63 1.48 1.27 2.22 1.9 2.23-1.38 4.35-2.92 6.4-4.57-1.07-.51-2.14-1.01-3.2-1.52m-47.02 2.02c2.02 1.47 4.04 2.92 6.01 4.45.83-.77 1.67-1.55 2.51-2.31-1.91-1.33-3.79-2.7-5.69-4.05-.7.48-2.12 1.44-2.83 1.91m10.49 3.78c-.49.61-1.49 1.81-1.98 2.42 1.92 1.44 3.86 2.87 5.84 4.24.47-1 .95-2 1.42-2.99-1.74-1.25-3.5-2.47-5.28-3.67M73 86.23c.23 1.14.47 2.27.72 3.41 2.05-1.56 4.14-3.06 6.25-4.54-.56-.83-1.12-1.65-1.67-2.48-1.75 1.23-3.51 2.44-5.3 3.61m-16.26 2.12c-2.19 4.79 4.04 6.47 6.71 9.1 2.38-1.79 4.74-3.6 7.08-5.44-.12-.82-.37-2.45-.49-3.26-2.18 1.53-4.3 3.14-6.41 4.76-2.36-1.64-4.61-3.43-6.89-5.16z"/>
</svg>
