<svg width="128pt" height="128pt" viewBox="0 0 128 128" xmlns="http://www.w3.org/2000/svg">
    <path d="M57.56 17.04c.41-3.25 6.08-3.75 7.08-.74 1.47 2.36.6 5.15.49 7.72l-2.49.72c-.88 2.69-1.07 5.99-3.68 7.67l-.93.63c-.28-5.31-1.46-10.71-.47-16zM17.81 66.08c1.85-1.98 4.66-2.14 7.08-1.17 5.72 2.03 11.88 2.89 17.32 5.57.16-.36.48-1.06.64-1.41.32 2.42.39 4.87 0 7.29-.12-.74-.35-2.2-.46-2.94-1.36 2.16-3.74 2.96-6.14 2.22-5.61-1.33-11.63-1.37-16.84-4.04-2.18-1-1.38-3.63-1.6-5.52z" fill="#a52021"/>
    <path opacity=".15" d="M66.05 17.72c.21.33.65.99.86 1.33.43 6.97-.02 13.97.14 20.95-.11 2.13.34 4.46-.86 6.36-1.07-9.51-.03-19.1-.14-28.64z"/>
    <path fill="#b52324" d="M62.64 24.74l2.49-.72c1.02 7.93.46 16.02.13 23.99-1.7.82-4.57 1.54-5.58-.62-.97-4.7-.91-9.55-1.48-14.31l.76-.67c2.61-1.68 2.8-4.98 3.68-7.67z"/>
    <path d="M81.3 25.38c2.43-1.66 6.86.3 6.24 3.52-.29 3.87-1.64 7.6-3.5 10.98-2.32 4.2-3.36 9.31-7.11 12.56-2.76.44-4.87-2.98-4.09-5.44 1.48-4.71 3.78-9.13 4.81-13.98.8-2.64.99-6.11 3.65-7.64zM42.85 69.07c.04-4.48 2.88-8.44 5.84-11.62-.68 2.11-.91 4.44.78 6.15-3.24 6.31-1.74 14.2 2.21 19.84 2.83 3.89 8.15 4.62 12.58 3.74-1.43.49-2.86.99-4.29 1.5 2.09 1.36 4.24 2.64 6.41 3.88-3.52.68-7.22 1.06-10.67-.19-7.02-2.18-11.56-9.03-12.86-16.01.39-2.42.32-4.87 0-7.29z" fill="#ad2121"/>
    <path d="M36.15 33c-2.07-2.74-.27-6.48 2.74-7.55 4.28.72 5.28 5.22 6.53 8.68 1.66 5.14 4.92 9.6 6.39 14.81.61 1.97-1.56 2.95-2.81 3.88-6.44-4.93-8.63-13.2-12.85-19.82zm28.99 62.44c5.01-.46 9.55-3 13.04-6.53-.4 1-.79 2.02-1.15 3.04 1.44.2 2.89.4 4.34.61-3.71 4.76-9.13 7.97-15.16 8.64.03 2.28.22 4.58-.03 6.86-.69 2.53-3.57 1.11-5.33 1.15-.24-4.07-1.24-8.27-.02-12.26.89-1.55 2.84-1.17 4.31-1.51z" fill="#aa2121"/>
    <path fill="#b22421" d="M90.75 47.25c2.15-2.11 4.09-4.82 7.17-5.58 2.79-.35 5.33 2.55 4.59 5.31-1.84 2.99-5.2 4.4-8.18 5.97.86-1.46 1.36-3.08 1.85-4.69-1.31.4-2.62.8-3.92 1.22-.51-.74-1.01-1.49-1.51-2.23z"/>
    <path d="M83.55 53.97c1.63-2.92 4.67-4.66 7.2-6.72.5.74 1 1.49 1.51 2.23 1.3-.42 2.61-.82 3.92-1.22-.49 1.61-.99 3.23-1.85 4.69-2.73 2.34-5.71 5.03-9.47 5.29-1.57-.82-1.43-2.79-1.31-4.27zM72.2 55.84c1.52.43 3.01.94 4.48 1.5l2.28-1.44c3.66 2.38 6.06 6.16 7.66 10.14-.43.6-1.3 1.79-1.73 2.39-1.22-.43-2.43-.86-3.65-1.27-1.47-3.91-4.76-6.66-8.48-8.34-.19-.99-.38-1.99-.56-2.98zm-9.55 17.39c-2.12-1.18-.78-4.47 1.36-4.73 3.54-1.14 5.78 2.41 7.74 4.67 0 2.5-.27 5.01-1.27 7.33-2.61.34-5.21.69-7.83.97-.2 1-.41 2-.62 3-.44-.05-1.31-.13-1.75-.17-.02-1.14-.03-2.27-.02-3.4-1.34-.53-2.67-1.06-4.01-1.58.02-2.24.12-4.48.35-6.71 1.25 2.63 2.85 6.44 6.4 6.12 2.28.23 3-2.05 2.92-3.89-1.12-.48-2.21-1.02-3.27-1.61z" fill="#ce2829"/>
    <path fill="#bd2423" d="M48.69 57.45c8.09-7.73 21.25-7.5 30.27-1.55l-2.28 1.44c-1.47-.56-2.96-1.07-4.48-1.5.18.99.37 1.99.56 2.98-6.48-2.57-14.47-3.13-20.17 1.55-1.09 1.02-2.12 2.11-3.12 3.23-1.69-1.71-1.46-4.04-.78-6.15z"/>
    <path fill="#bd2424" d="M56.12 61.13c6.63-3.97 15.72-1.99 19.94 4.52-.76.08-2.3.25-3.07.33-.05.78-.16 2.35-.21 3.13-2.61-3.94-8.2-6.62-12.6-4-2.72 1.49-3.55 4.62-3.58 7.5-.23 2.23-.33 4.47-.35 6.71 1.34.52 2.67 1.05 4.01 1.58-.01 1.13 0 2.26.02 3.4-9.16-3.17-12.92-17.4-4.16-23.17z"/>
    <path fill="#d62c29" d="M72.99 65.98c.77-.08 2.31-.25 3.07-.33 1.7 2.38 3.5 4.82 3.67 7.86-1.42.65-2.85 1.32-4.26 1.98-.42-1.1-.83-2.19-1.26-3.29-.14-.36-.44-1.08-.58-1.44-.21-.41-.64-1.24-.85-1.65.05-.78.16-2.35.21-3.13z"/>
    <path fill="#b52423" d="M86.62 66.04c1.93 6.16.95 12.68-.73 18.76l-.74-.61c-.87-1.44-1.64-2.94-2.32-4.48-.01-4.24.12-8.57-1.59-12.55 1.22.41 2.43.84 3.65 1.27.43-.6 1.3-1.79 1.73-2.39z"/>
    <path opacity=".08" d="M73.63 70.76c.14.36.44 1.08.58 1.44 1.39 6.17-2.07 12.78-8.31 14.43-.25-.73-.51-1.45-.77-2.18 2.12-.8 3.93-2.21 5.35-3.95 1-2.32 1.27-4.83 1.27-7.33.23.06.69.18.92.23l.96-2.64z"/>
    <path fill="#bd2429" d="M74.21 72.2c.43 1.1.84 2.19 1.26 3.29 1.41-.66 2.84-1.33 4.26-1.98.74 8.61-5.11 16.71-13.35 19.05-2.17-1.24-4.32-2.52-6.41-3.88 1.43-.51 2.86-1.01 4.29-1.5.41-.13 1.23-.41 1.64-.55 6.24-1.65 9.7-8.26 8.31-14.43z"/>
    <path fill="#a8211f" opacity=".96" d="M62.65 81.47c2.62-.28 5.22-.63 7.83-.97-1.42 1.74-3.23 3.15-5.35 3.95-.77 0-2.33.01-3.1.02.21-1 .42-2 .62-3z"/>
    <path fill="#c62829" d="M82.83 79.71c.68 1.54 1.45 3.04 2.32 4.48l.49.85-.44.69c-1.32 1.98-2.48 4.07-3.52 6.21l-.31.62c-1.45-.21-2.9-.41-4.34-.61.36-1.02.75-2.04 1.15-3.04 1.83-2.92 3.64-5.87 4.65-9.2z"/>
    <path fill="#4e0f0f" opacity=".62" d="M81.68 91.94c1.04-2.14 2.2-4.23 3.52-6.21-.7 2.28-1.47 4.77-3.52 6.21z"/>
</svg>
