<svg width="128pt" height="128pt" viewBox="0 0 128 128" xmlns="http://www.w3.org/2000/svg">
    <path fill="#fff" d="M42.88 67.82c1.85-8.03 8.9-14.67 17.09-15.87 9.69-1.55 21.09 2.41 25.52 11.69 4.85 10.79 1.15 24.38-7.46 32.2-3.17 3.15-7.49 4.26-11.66 5.37-.82 2.56.29 5.42-.55 8.06-1.64.25-3.29.25-4.9-.17-.08-4.18-1.7-8.8.39-12.7 2.57-1.17 5.61-.71 8.24-1.83 6.57-2.05 11.4-7.95 13.09-14.49.91-6.02-.07-12.84-4.2-17.54-6.97-6.29-19.06-8.36-26.47-1.67-4.73 3.6-5.03 10.31-3.64 15.62 1.22 4.46 3.73 9.44 8.65 10.56 7.74 2.45 18.11-3.06 17.47-11.95.59-7.3-8.58-14.34-14.97-9.67-4.56 3.3-3.09 10.91 1.69 13.21 2.37.94 5.54-.97 5.11-3.7-2.03-.75-4.1-1.67-4.96-3.82 1.38-3.21 5.44-3.62 7.66-1.02 5.45 3.84 2.03 12.98-3.94 14.14-10.11 1.99-17.75-12.1-11.86-20.04 2.86-4.32 8.68-5.57 13.53-4.83 5.79 1.08 9.5 6.22 12.31 10.96 2.46 8.65-2.51 18.56-11.08 21.46-5.92 2.34-13.1 1.49-18.01-2.68-5.85-5.2-8.44-13.64-7.05-21.29z"/>
</svg>
