<svg width="128pt" height="128pt" viewBox="0 0 128 128" xmlns="http://www.w3.org/2000/svg">
    <path d="M56.14 45.02c7.05-6.43 17.16-10.67 26.68-7.92 11.85 4.65 18.75 17.58 18.12 30 4.07-2.97 8.1-7.04 9.04-12.18.28.67.58 1.34.87 2.01-.8 2.57-1.51 5.19-2.52 7.7-4.11 7.07-10.25 12.71-16.89 17.38-.19.61-.58 1.82-.77 2.42-.33-1.39.61-2.6 1.03-3.86 2.79-6.25 4.03-13.68 1.79-20.26-1.23-3.99-5.75-5.96-9.62-4.74-2.14 2.37-4.17 5.11-4.43 8.4-.27 3.25-.72 6.49-1.51 9.66-2.61-1.37-5.3-2.79-8.3-2.92 1.48-6.08.4-13.19 4.87-18.2 2.85-4.04 8.06-4.47 12.54-4.95-6.21-4.64-15.32-4.52-21.53.06-3.15 2.82-6.91-.49-9.37-2.6zm-31 11.09c3.59-4.01 7.74-7.56 12.37-10.33-5.05 8-5.06 17.99-3.75 27.03.9 3.02 4.02 4.57 6.81 5.48 5.43-.76 8.15-6.28 8.05-11.3-.3-5 .42-10.14 2.72-14.63l-1.01-1.6c2.05 2.85 4.81 5.04 8.26 5.95-1.12 4.64-1.5 9.46-1.24 14.22-.43 5.91-5.43 10.22-10.28 12.88 5.86.85 12.47-.04 16.8-4.45 3.15.43 6.31.91 9.41 1.65-3.26 5.22-9.23 7.65-14.64 10-4.42.86-9.14 1.2-13.53-.03-11.73-4.42-18.84-17.52-17.88-29.77-4.47 2.6-7.98 7.1-9.4 12.09-.99-6.58 3.12-12.52 7.31-17.19z" fill="#fff"/>
</svg>
