<svg width="128pt" height="128pt" viewBox="0 0 128 128" xmlns="http://www.w3.org/2000/svg">
    <path d="M54.86 17.86c5.5-.85 10.93 1.82 15.07 5.26 4.61 4.02 9.28 8.32 12.1 13.82-6.39-3.29-13.99-4.53-20.97-2.69-4.57 1.15-7.36 7.11-4.45 11.08 4.79 5.75 13.21 1.79 18.96 5.87-1.88 2.11-3.31 4.58-4.21 7.26-4.57-1.08-9.34-.96-13.87-2.17-3.54-.99-6.16-3.8-7.97-6.86-1.58-2.53-1.1-5.66-1.67-8.46-4.56 5.89-4.65 14.6-.54 20.76 2.57 3.33 1.13 7.84.04 11.47-4.2-2.46-6.41-6.92-8.45-11.14-2.75-5.36-3.12-11.88-1.27-17.57 4.78-11.48 17.54-17.97 29.64-17.45-2.89-4.3-7.23-8.09-12.41-9.18zm24.47 45.75c.76-2.74 1.94-5.38 4.01-7.39 5.75 6 9.53 14.36 8.52 22.81-.51 7.65-6.28 13.52-12.36 17.51-5.58 2.99-11.91 4.76-18.29 4.34 2.87 4.18 7.07 7.7 11.95 9.23-2.88 1.6-6.06-.98-8.97-1.58-7.29-4.24-13.49-10.39-17.87-17.6 7.71 4.25 16.79 4.41 25.34 3.69 2.51-.22 4.5-2.11 5.61-4.25 2.32-3.23.17-8.1-3.4-9.36-6.3-1.39-12.78-1.59-19.08-3.01 1.61-2.53 2.42-5.44 2.85-8.38 4.43.78 8.91 1.32 13.42 1.19 5.58 1.13 10.37 4.89 12.97 9.93.98-6.04-.38-12.62-4.7-17.13z" fill="#fff"/>
</svg>
