<svg width="128pt" height="128pt" viewBox="0 0 128 128" xmlns="http://www.w3.org/2000/svg">
    <g fill="#fff">
        <path d="M74.78 25.97c5.66-7.2 15.72-5.8 23.75-5.21-.86 10.05-1.45 20.15-1.23 30.25-.46.15-1.36.45-1.82.6-.93-7.88.28-15.77.31-23.65.09-1.86.57-3.66.86-5.49-6.12.12-12.8-1.08-18.28 2.39-2.46 2.4-4.29 5.52-4.37 9.02 1.53 1.98 3.29 4.18 6 4.37 2.89-.25 4.72-2.67 6.88-4.3-.54 6.25-10.16 7.64-13.23 2.48-2.81-3.14-.49-7.37 1.13-10.46zm-23.1-4.55c2.92-.1 5.99-.03 8.58 1.51 1.08.18.77 1.44 1.11 2.15-3.08-1.17-6.33-1.56-9.59-1.85-.02-.46-.07-1.36-.1-1.81zm-30.29 8.94c4.9-.43 10.04.55 15.04.58 5.04 1.08 10.5-.61 15.34.99-.18.29-.53.85-.7 1.14-9.47.32-18.96.01-28.36-1.21-.18 6.83-1.16 14.82 4.07 20.16 2.87 3.95 10.55 3.13 11.55-2.03 1.41-3.63-2.43-5.72-3.56-8.66 1.89.91 3.77 2.13 4.64 4.12 2.33 4.17-.76 9.95-5.38 10.72-4.6.94-8.77-2.52-10.99-6.25-2.72-6.12-2.53-13.06-1.65-19.56z"/>
        <path d="M76.07 30.82c5.34-.66 10.77-.38 16.15-.53-5.29 1.39-10.77 1.19-16.15.53zm-45.7 3.86c.58.02 1.72.07 2.29.09-.22 5.89.69 11.8-.13 17.65l-1.71-.44c-.2-5.77.41-11.56-.45-17.3zm63.68 52.23c-7.48-1.12-7.18-13.15-.01-14.45 4.92-1.65 8.77 2.72 11.46 6.19 2.78 6.16 2.27 13.11 1.92 19.7-7.18-.04-14.3-.94-21.44-1.47-2.83-.32-5.67.65-8.47.06l-.52-1.64c9.63-.37 19.25.49 28.85 1.22.49-6.81.97-14.88-4.29-20.12-2.59-4.22-9.92-3.16-11.14 1.73-1.46 3.57 1.81 6.18 3.64 8.78zm-70.48-7.44c2.23-3.56 5.95-7.07 10.48-6.43 3.68.01 6.13 3.64 6.7 6.93.44 3.45-1.97 6.37-4.83 7.94l.13-1.7c-.58.59-1.15 1.18-1.73 1.77-.93 5.99-2.04 11.97-2.25 18.04 6.56-.12 14.06 1.04 19.36-3.77 2.42-1.72 3.02-4.67 3.3-7.43-1.51-1.91-3.04-4.3-5.73-4.51-3.23-.42-4.85 2.89-7.44 4.06 1.03-6.43 10.92-7.5 13.77-1.85 3.09 5.45-1.6 11.04-6.2 13.68-3.02.72-5.92 2.13-9.08 2.09-3.3 0-6.58-.53-9.88-.57-.01-5.96.78-11.87 1.18-17.82.28-4.1-.21-8.22.08-12.32.43-.22 1.3-.65 1.73-.86.51 3.22.69 6.49.16 9.72 1.19-.14 2.39-.28 3.58-.41l-.39-.07c4.24-3.12 2.76-9.76-2.04-11.36-1.46.11-2.93.2-4.4.29-3.57 2.77-6.26 6.85-6.68 11.42-.3 3.66-.25 7.33-.15 11 1.74-.01 3.48 0 5.22.04-.09.37-.26 1.1-.34 1.47-2.04.14-4.12.69-6.15.3-.89-6.52-.87-13.46 1.6-19.65z"/>
        <path d="M96.19 75.73c.38.3 1.13.92 1.5 1.23.2 4.68.14 9.39.09 14.08-1.04-4.49-.94-9.13-1.46-13.69-.03-.4-.1-1.22-.13-1.62z"/>
    </g>
    <g fill="#fefefe">
        <path d="M29.44 21.62c7.25-.44 15.61-1.78 21.68 3.25 4.02 2.68 5.83 8.21 3.27 12.5-3.2 5.08-12.52 3.62-13.44-2.54 2.55 1.32 4.27 4.71 7.55 4.09 2.77-.17 4.29-2.66 5.86-4.59-.34-1.64-.48-3.34-1.01-4.94-2.77-2.9-6.16-5.52-10.28-6-3.82-.25-7.67-.04-11.5-.1v5.04l-1.62-.12c-.1-2.2-.27-4.4-.51-6.59zm36.67 1.49c2.93-2.56 7.13-3.12 10.81-2.14-1.67 2.77-5.16 1.02-7.55 2.39-4.32 1.92-6.63 6.43-10.74 8.65-.23-.39-.67-1.18-.89-1.57 3.44-1.67 5.22-5.27 8.37-7.33zm16.32 1.74c1.81 0 2.98 1.26 4.14 2.44-.26.34-.78 1.03-1.04 1.37-1.19-1.14-2.23-2.41-3.1-3.81z"/>
        <path d="M43.59 26.04c3.03-1.28.71 3.28-1 3.21-1.92-.4.02-2.79 1-3.21zm22.59 1.39c1.29.56 2.57 1.14 3.86 1.72.08.43.26 1.27.34 1.69-2.1-.09-3.68-1.37-4.2-3.41zm34.26 2.07c2.1-.12 4.2-.21 6.31-.26.42 7.91 1.8 17.79-4.96 23.55-2.17 1.7-4.97 3.4-7.83 2.59-3.5-.69-5.96-4.14-6.2-7.59.06-3.32 2.38-6.28 5.53-7.29-.73 2.52-3.92 3.67-3.75 6.55-.46 3.86 3.48 7.82 7.37 6.51 4.49-.88 6.92-5.48 8.1-9.51.69-4.26.37-8.61.37-12.9-1.73-.01-3.46 0-5.18.01l.24-1.66z"/>
        <path d="M99.41 41.37c1.65-.27 4.92 3.06 2.17 3.37-.92-.93-2.6-1.82-2.17-3.37zm-.91 19.96c-1.17-.82-3.34-3.55-.49-3.39 3 3.02 6.2 5.97 8.15 9.82 1.02 2.52 1.19 5.27 1.16 7.96l-1.36-.52c.24-5.55-2.83-10.91-7.46-13.87zm-69.97 5.18c2.28-.58 2.48 2.8 3.32 4.27-1.97-.33-3.62-2.24-3.32-4.27zm74.23 15.82c.15.36.44 1.09.59 1.46-1.07 1.11-2.17 2.22-3.64 2.78.17-1.95 1.8-3.01 3.05-4.24zm-27.14 7.29c3.85-3.36 10.77-1.35 12.05 3.66-2.32-.49-3.3-3.2-5.67-3.6-4.13-1.4-8.35 3.34-7.03 7.33 1.43 4.63 6.19 7.58 10.84 8.09 3.78.12 7.58.06 11.37-.07-.11-1.63-.23-3.25-.35-4.87.43.03 1.29.11 1.72.14.06 2.16.72 4.37.39 6.49-7.58.88-16.55 1.69-22.47-4.19-4.09-2.98-4.7-9.58-.85-12.98zm-15.8 15.23c4.66-1.23 6.05-6.76 10.46-8.43.16.42.47 1.25.62 1.67-3.09 1.38-4.71 4.46-7.15 6.62-2.27 2-5.08 3.28-8.01 3.95-1.29-.5-2.59-.93-3.91-1.31 1.79-2.69 5.49-1 7.99-2.5z"/>
        <path d="M85.58 99.36c2.84-.36-.1 3.94-1.99 3.06-.49-1.35 1.23-2.2 1.99-3.06zm-43.69.92c2.11-.46 3.07 1.57 4.26 2.86-2.12.73-3.39-1.25-4.26-2.86z"/>
    </g>
    <path d="M92.22 30.29c.59.2 1.78.6 2.37.81-1.26.66-2.64 1.06-4.08 1-4.44.02-8.94.65-13.34-.03l-1.1-1.25c5.38.66 10.86.86 16.15-.53zm-66.87 15.7c-.35-2.32 1.67-3.4 3.54-4.06-.33 1.97-1.84 3.24-3.54 4.06zm-3.93 6.1c2.1 2.68 1.16 6.5 3.18 9.3-.4.16-1.2.48-1.61.64-1.23-3.17-1.99-6.53-1.57-9.94zm83.27 5.07c.61-2 .4-4.26 1.84-5.94.63 3.54-.28 7.02-1.78 10.21-2.03-.96-.33-2.8-.06-4.27zm-74.3 1.26c.44.47 1.55 1.34.75 1.98-2.72 2.97-5.98 5.77-6.97 9.86-1.16 2.17-.24 5.06-2.22 6.81-1.13-7.43 3.77-13.55 8.44-18.65zm66.65 10.2c.79-1.54 2.28-2.37 3.94-2.65-.67 1.31-1.38 2.61-2.07 3.91-.65-.38-1.42-.61-1.87-1.26zM96.02 93.1c.07-5.23-.89-10.63.3-15.75.52 4.56.42 9.2 1.46 13.69.01.82.02 2.44.03 3.26-.45-.3-1.34-.9-1.79-1.2zm-70.25-9.86c1.69.93 3.44 2.01 3.71 4.12-1.89-.64-3.82-1.87-3.71-4.12zm8.89 13.29c5.86-.7 11.78-.38 17.67-.23-.18.38-.55 1.13-.73 1.5-5.42.13-10.86-.08-16.27.5-.16-.44-.5-1.33-.67-1.77zm23.15 1.18c2.31-.3 4.18 1.21 4.73 3.44-1.84-.77-3.72-1.62-4.73-3.44zm10.12 5.73c2.55 1.29 5.38 1.56 8.2 1.42.25.5.76 1.51 1.01 2.01-3.47.66-6.91-.39-10.04-1.83.21-.4.62-1.2.83-1.6z" fill="#fcfcfc"/>
</svg>
