<svg width="128pt" height="128pt" viewBox="0 0 128 128" xmlns="http://www.w3.org/2000/svg">
    <path fill="#fff" d="M80.28 19.33c6.8-2.05 14.05-1.42 21.04-.92-.2 2.93-.47 5.84-.78 8.75 2.87-.24 5.74-.47 8.6-.82.77 6.89 1.05 13.93-.48 20.74 1.11 5.27.99 10.88-1.56 15.74 1.44 3.7 2.98 7.46 2.99 11.5-.07 2.69-1.3 5.37-.55 8.05 1.33 6.18 1.05 12.62.19 18.84-2.84-.36-5.69-.55-8.54-.76.24 2.9.44 5.8.67 8.71-6.99.52-14.29 1.24-21.04-1.06-4.87 1.94-10.07.83-14.79-.93-5.61 1.83-11.66 4.19-17.53 1.85-6.85 2.24-14.18 1.34-21.25 1.1.33-2.94.55-5.9.7-8.85-2.83.29-5.68.47-8.52.66-.87-6.97-.86-14.06.44-20.96-1.06-5.34-.82-10.98 1.82-15.84-3.26-5.15-3.48-11.43-2.31-17.25-1.55-6.75-1.4-13.79-.48-20.62 2.83.35 5.68.53 8.52.71-.19-2.91-.45-5.8-.8-8.69 7.07-.45 14.5-1.36 21.31 1.06 5.2-2.24 10.69-.32 15.82 1.01 4.95-2.9 11.01-3.72 16.53-2.02m-5.54 6.69c-1.59 3.1-3.91 7.32-1.07 10.44 3.15 5.09 12.58 3.71 13.29-2.5-2.21 1.57-4.04 4.01-6.93 4.29-2.73-.17-4.48-2.39-6.03-4.36.1-3.43 1.83-6.5 4.15-8.92 5.53-3.61 12.34-2.39 18.56-2.49-.42 2.13-.95 4.26-.94 6.45-.07 7.56-1.19 15.13-.31 22.68l1.84-.6c-.14-10.11.21-20.26 1.34-30.31-8.08-.47-18.23-1.97-23.9 5.32M29.42 21.7c.68 2.3-.71 5.95 2.08 7.03.05-1.79.02-3.59-.04-5.39 4.13.03 8.3-.34 12.4.19 3.9.59 6.83 3.35 9.63 5.88.3 1.65.57 3.31.87 4.96-1.58 1.9-3.1 4.38-5.85 4.54-3.29.61-5.13-2.61-7.51-4.19.76 7.23 12.81 7.65 14.2.62 1.71-4.76-1.85-9.37-5.77-11.72-6.1-3.49-13.34-2.4-20.01-1.92m22.07-.08c.12.41.35 1.22.47 1.62 2.91.2 5.88.46 8.56 1.72.3-.28.88-.84 1.17-1.11-2.97-2.05-6.62-3-10.2-2.23m14.59 1.51c-3.19 2.18-5.11 5.77-8.59 7.58.32.26.96.77 1.28 1.03 4.21-1.88 6.32-6.65 10.63-8.44 2.43-1.15 5.76.2 7.54-2.32-3.7-.99-7.92-.44-10.86 2.15m21.43 1.58c.54 1.08 1.09 2.15 1.64 3.22 1.47-.05 2.95-.1 4.42-.17.19-1.01.37-2.02.55-3.04-2.2-.1-4.41-.2-6.61-.01m-53.66 1.21c-.42 3.34 2.81 2.82 5.1 2.84.48-1.07.96-2.14 1.45-3.21-2.19-.32-4.42-.21-6.55.37m35.76-.83c-1.29 1.59 1.56 2.68 2.46 1.33 1.32-1.61-1.57-2.71-2.46-1.33m13.02-.39c.68 1.42 1.57 2.72 2.53 3.96.49-.45.99-.9 1.49-1.35-1.18-1.1-2.35-2.3-4.02-2.61M43.65 26c-.99.42-2.96 2.76-1.09 3.25 1.67.11 4.08-4.39 1.09-3.25m12.28-.08c-.92 1.37 1.53 2.6 2.43 1.47.95-1.4-1.52-2.52-2.43-1.47m10.28 1.56c.47 2.01 2.09 3.08 4.02 3.53-.04-.46-.1-1.38-.13-1.85-1.3-.55-2.59-1.13-3.89-1.68m13.25-.73c-.57 1.56-.02 2.07 1.66 1.54.57-1.56.01-2.07-1.66-1.54m-32.5 1.3c.3 3.24 3.02-1.56 0 0m53.51 1.44c-.08.42-.23 1.25-.3 1.67l5.15-.03c-.06 5.68 1.09 11.91-1.99 17.05-1.38 2.86-4.08 5.4-7.38 5.59-4.39.54-7.88-4.81-5.97-8.69.97-1.65 2.71-2.74 3.35-4.6-3.82 1.15-6.56 5.48-5.13 9.36.55 2.37 2.53 3.89 4.27 5.4 3.58.96 7.29-.35 9.83-2.94 6.17-5.88 4.88-15.36 4.45-23.06-2.1.05-4.19.14-6.28.25m-79.09.68c-.79 5.95-1 12.19.93 17.95 1.03 3.31 3.62 6.1 6.8 7.47 3.96 2.15 9.55-.26 10.68-4.65 1.54-4-1.23-8.41-5.15-9.61 1.35 2.81 4.96 5.02 3.68 8.59-1.04 5.47-9.15 5.92-11.89 1.63-4.85-5.35-3.85-13.01-3.7-19.65 9.61 1.14 19.32 1.64 28.98 1.02-.15-.41-.46-1.24-.61-1.65-9.93.31-19.81-.91-29.72-1.1m55.87.34c-.28.43-.84 1.27-1.13 1.69 6.07.4 12.18.09 18.21-.58-.26-.34-.8-1.02-1.07-1.35-5.33-.1-10.67.3-16.01.24m-18.92 4.15c-1.29 4.7-5.3 8.85-10.47 8.57-4.76.1-8.42-3.73-9.75-8.02-.86-.04-2.58-.11-3.44-.15 0 .8.01 2.41.01 3.21 4.12 1.48 7.88 5.07 7.77 9.75.47 5.21-3.35 9.89-8.32 11.1-.72 1.87-1.66 3.65-2.79 5.31 1.44 1.75 2.65 3.67 3.48 5.78 5.86 1.38 9.81 7.83 7.83 13.62-.86 3.61-4.14 5.68-7.25 7.2l-.28 3.14 3.66-.04c1.11-3.72 3.97-7.33 8.03-7.84 4.77-1.07 9.78 1.89 11.34 6.47.79 2.7 3.94 3.07 5.98 4.49 1.93-1.44 4.04-2.61 6.24-3.59 1.1-4.42 4.82-8.25 9.54-8.4 4.88-.41 9.38 3.23 10.44 7.94 1.24.05 2.48.09 3.72.13-.05-.8-.16-2.41-.21-3.21-3.87-1.45-7.49-4.58-7.65-8.98-1.02-5.47 3.11-10.5 8.24-11.86.76-1.85 1.69-3.63 2.83-5.27-1.42-1.66-2.66-3.47-3.3-5.57-2.24-1.1-4.75-2.04-6.28-4.13-2.12-2.57-2.48-6.14-1.93-9.32.87-3.67 4.01-6.28 7.44-7.52.1-1.05.19-2.1.29-3.15-1.23-.02-2.45-.03-3.68-.04-1.17 4.02-4.39 7.79-8.84 7.96-5.23.72-10.06-3.3-11.16-8.29-1.83-.91-3.65-1.83-5.43-2.84-1.81 1.53-3.85 2.72-6.06 3.55m41.55-.89c-.03 1.56-.06 3.12-.08 4.68 1.01.57 2.02 1.13 3.03 1.69.03-2.21.03-4.43-.04-6.64-.97.08-1.95.17-2.91.27m-74.75.74c.07 2.2.11 4.39.19 6.58.9-.69 2.08-1.1 2.74-2.06.16-1.47.08-2.96.06-4.43-.75-.02-2.24-.07-2.99-.09m5.22.22c.86 5.75.29 11.55.47 17.33.45.06 1.36.16 1.81.22.54-5.83-.07-11.69.02-17.53-.57-.01-1.72-.02-2.3-.02m47.33.77c1.83.48 3.73.55 5.11-.94-1.74-.05-3.71-.36-5.11.94m-32.47-.2c1.27 1.65 3.21 1.53 5.06 1.24-1.25-1.52-3.31-1.24-5.06-1.24m54.19 6.04c-.3 1.66 1.51 3.31 3.07 3.46.74-1.86-1.47-3.24-3.07-3.46m-74.35 3.24c.42.48.85.96 1.28 1.44 1.05-1.25 2.06-2.55 2.64-4.1-1.52.54-2.76 1.58-3.92 2.66m67.36 1.61c-1.27.39-1.47 2.98-.05 3.26 1.33-.36 1.57-3.06.05-3.26m-57.19 1.3c0 .58-.01 1.75-.01 2.33 1.52.52 1.56-2.85.01-2.33M99.37 47c-.38 1.4.12 1.92 1.5 1.56.39-1.41-.11-1.93-1.5-1.56m-72.27.8c-.6 1.61-.08 2.15 1.55 1.6.54-1.65.02-2.18-1.55-1.6m-5.68 4.25c-.45 3.45.34 6.85 1.58 10.04.4-.18 1.19-.54 1.59-.72-1.97-2.82-1.08-6.61-3.17-9.32m81.98 8.46c.39.15 1.16.46 1.55.62 1.3-3.15 2.17-6.5 1.61-9.93-1.98 2.73-1.27 6.46-3.16 9.31m-77.01-1.26c1.65-.09 1.19-2.81-.26-2.88-1.68.07-1.04 2.69.26 2.88m74.59-3.2c-.6 1.69-.11 2.26 1.45 1.7.61-1.68.12-2.24-1.45-1.7m-78 12.78c-1.13 2.56-1.18 5.41-.81 8.14.26-.31.77-.93 1.03-1.23-.22-6.52 4.08-11.72 8.45-16.02-.39-.34-1.19-1.02-1.58-1.36-2.19 3.62-5.61 6.43-7.09 10.47m75.46-7.45c4.69 2.9 7.8 8.27 7.5 13.83l1.43.44c-.06-2.67-.2-5.42-1.23-7.93-1.95-3.86-5.18-6.78-8.2-9.79-2.76-.18-.54 2.59.5 3.45m-69.33 4.54c-.18.48-.55 1.44-.73 1.92.99.92 1.48 3.09 3.16 2.65 1.17-1.92-1.53-3.14-2.43-4.57m68.01 2.71c.46.63 1.23.86 1.86 1.26.68-1.36 1.35-2.71 1.95-4.1-1.52.57-3.15 1.22-3.81 2.84m4.48.84c-1.07.91.14 3.37 1.52 2.49 1.05-.95-.12-3.3-1.52-2.49m-75.42 1.08c-1.44.86-.06 3.19 1.32 1.97 1.63-.81.01-3.13-1.32-1.97m62.89 6.38c-1.99 4.04.7 9.02 4.89 10.21-1.56-2.86-5.11-5.43-3.52-9.08 1.25-4.83 8.52-5.85 11.1-1.67 5.26 5.24 4.82 13.32 4.28 20.13-9.73-.57-19.54-1.99-29.27-.91.72.76 1.39 1.82 2.61 1.53 9.41-.97 18.74 1.43 28.17 1.17.54-6.55.91-13.51-1.84-19.65-1.92-2.38-3.78-5.24-6.86-6.19-3.68-1.1-8.35.56-9.56 4.46M23.5 79.62c-2.41 6.26-2.35 13.2-1.48 19.76 1.98-.15 3.96-.33 5.93-.54l.76-1.44c-1.82-.13-3.64-.14-5.46-.11-.08-4.51-.42-9.09.6-13.52.99-3.52 3.32-6.45 5.99-8.86 1.55-.09 3.1-.2 4.64-.31 2.7 1.23 5.19 3.94 4.5 7.1-.26 2.73-2.68 5.42-5.58 5.11.38-3.28.24-6.58-.19-9.85l-1.84.48c.56 10.13-.93 20.17-1.21 30.27 6.39.72 12.91 1.01 18.98-1.51 2.29-2.02 5.5-3.39 6.34-6.61 1.5-2.77.99-6.42-1.34-8.58-3.62-4.07-11.85-2.23-12.58 3.45 2.39-1.49 4.33-4.47 7.47-4.14 2.67.21 4.19 2.61 5.7 4.5-.25 2.84-.96 5.82-3.44 7.55-5.31 4.71-12.72 3.47-19.22 3.68.14-6.39 1.54-12.64 2.3-18.96 5.17 1.39 8.07-6.3 5.38-10.02-1.26-3.05-4.38-4.2-7.46-4.26-3.8.81-6.88 3.51-8.79 6.81m72.71-4.08l.05.8c-1.12 3.76-.14 7.67-.39 11.5.29 2.2-.97 5.65 1.96 6.46-.01-.84-.02-2.51-.02-3.34-.03-4.62.15-9.26-.09-13.87-.38-.39-1.13-1.17-1.51-1.55m-3.96 3.62c.3.99.59 1.98.9 2.98.14-1.36.24-2.71.32-4.07-.3.27-.91.82-1.22 1.09m-64.12.52c-.81 1.2-.52 1.89.87 2.07.77-1.18.48-1.87-.87-2.07m7.49-.23c-.69 1.39-.45 2.43.73 3.11 2-.28 1.23-4.65-.73-3.11m64.47-.27c-1.33 3.19 3.27-.1 0 0m-.44 7.41c1.49-.61 2.76-1.56 3.89-2.68l-.8-1.52c-1.34 1.16-2.82 2.29-3.09 4.2m-73.91-3.38c.05 2.25 1.76 3.54 3.76 4.17-.31-2.09-2.11-3.19-3.76-4.17m74.62 5.97c.03 1.55.07 3.1.12 4.65.99.01 1.99.04 3 .06-.11-2.16-.15-4.31-.18-6.47-.98.59-1.96 1.17-2.94 1.76m-74.53-.86c-.03 2.2.01 4.4.02 6.6.93-.07 1.85-.13 2.77-.2.08-1.58.15-3.17.21-4.75-1.01-.55-2.01-1.1-3-1.65m49.68 1.4c-2.26 1.49-2.32 4.31-2.73 6.71.84 2.78 2.26 5.42 4.75 7.06 6.01 5.15 14.44 3.88 21.7 3.33-.62-2.42.42-5.73-2.03-7.28-.13 1.83-.14 3.67-.11 5.51-6.95.03-15.57 1.52-20.43-4.79-3.62-3.38-1.71-10.36 3.42-10.83 3.34-.43 4.96 2.96 7.75 3.96-1.43-5.06-8.39-7.25-12.32-3.67m2.66 2.78c1.7.49 3.46.69 5.23.64-1.43-1.49-3.47-1.82-5.23-.64m-32.43 1.26c1.64.12 3.3.11 4.95.07-.32-.39-.94-1.17-1.25-1.56-1.27.4-2.52.88-3.7 1.49m-11.16 2.82c.2.43.62 1.28.83 1.71 5.36-.64 10.77-.32 16.15-.43.2-.4.6-1.18.8-1.58-5.93-.19-11.89-.44-17.78.3m25.33 8.34c-2.58 1.37-6.1-.15-8.15 2.31 1.34.46 2.68.95 4.01 1.48 2.17-.67 4.37-1.38 6.26-2.69 3.49-2.08 5.14-6.24 8.9-7.96-.17-.41-.52-1.23-.69-1.64-4.34 1.73-5.79 7.11-10.33 8.5m-1.8-5.97c1.48.74 2.96 1.48 4.47 2.18-.6-1.81-1.96-3.03-3.63-3.85-.21.41-.63 1.25-.84 1.67m21.98.21c-.53 1.64.02 2.2 1.64 1.67.53-1.62-.02-2.18-1.64-1.67m2.83 3.13c1.95.5 4.8-1.08 3.51-3.33-1.45.77-2.41 2.16-3.51 3.33m6.69-2.59c-.5 1.12-1 2.24-1.47 3.38 2.21.12 4.41-.1 6.6-.4-.17-.99-.33-1.98-.51-2.97-1.54 0-3.08 0-4.62-.01m-54.93 1.05c0 .99.01 1.98.03 2.97 2.07.07 4.14.15 6.22.13-.45-1.09-.92-2.17-1.38-3.24-1.63.03-3.25.07-4.87.14m7.12-.37c.82 1.08 1.68 2.13 2.58 3.15.54-.2 1.09-.4 1.63-.6-1.16-1.3-2.14-3.17-4.21-2.55m5.74-.27c-.42 1.4.06 1.9 1.44 1.5.45-1.42-.03-1.92-1.44-1.5m9.1 1.47l-.16 1.98c1.09.85 3.22-.08 3.01-1.56-.79-.91-1.74-1.05-2.85-.42m13.61-.63c-.87 1.33 1.43 2.69 2.41 1.68.76-1.34-1.4-2.85-2.41-1.68m-2.35 2.48c-.19.4-.55 1.19-.73 1.59 3.06 1.54 6.52 2.46 9.96 1.85-.25-.5-.74-1.5-.99-1.99-2.83.13-5.68-.16-8.24-1.45z"/>
    <path fill="#515151" opacity=".32" d="M35.22 47.49c1.55-.52 1.51 2.85-.01 2.33 0-.58.01-1.75.01-2.33z"/>
    <path fill="#898989" opacity=".54" d="M99.37 47c1.39-.37 1.89.15 1.5 1.56-1.38.36-1.88-.16-1.5-1.56z"/>
    <path fill="#555" opacity=".34" d="M100.09 79.18c3.27-.1-1.33 3.19 0 0z"/>
    <path fill="#838383" opacity=".51" d="M80.09 99.16c1.62-.51 2.17.05 1.64 1.67-1.62.53-2.17-.03-1.64-1.67z"/>
    <path fill="#707070" opacity=".44" d="M47.54 100.11c1.41-.42 1.89.08 1.44 1.5-1.38.4-1.86-.1-1.44-1.5z"/>
</svg>
