<svg width="128pt" height="128pt" viewBox="0 0 128 128" xmlns="http://www.w3.org/2000/svg">
    <path fill="#280909" opacity=".42" d="M65.58 20.22c4.16-2.97 9.64-3.14 14.38-1.62 7.23-1.67 14.74-.88 22.08-.68-.3 2.85-.59 5.7-.88 8.55 2.58-.31 5.15-.79 7.76-.72 1.35.91 1.21 2.79 1.37 4.22.05 5.04.38 10.15-.53 15.14-.93 3.97 1.16 8.01-.07 11.95-.94 3.28-1.88 6.65-1 10.06-.51-1.41-1.07-2.81-1.61-4.22 2.31-4.69 2.41-9.97 1.52-15.03 1.23-7.02 1.42-14.2.41-21.26-2.8.21-5.59.38-8.39.52.2-2.9.35-5.81.48-8.72-6.87-.71-13.81-.64-20.6.61-5.02-.39-10.13-.71-14.92 1.2z"/>
    <path fill="#b92b2c" d="M80.5 19.02c6.79-1.25 13.73-1.32 20.6-.61-.13 2.91-.28 5.82-.48 8.72 2.8-.14 5.59-.31 8.39-.52 1.01 7.06.82 14.24-.41 21.26-.41 1.33-.85 2.66-1.27 3.99l-2.18-.21c-1.24-1.39-2.49-2.75-3.73-4.13-.83-2.04-3.91.18-1.42 1-.58.24-1.76.72-2.35.97.23.82.46 1.65.68 2.48-.25.25-.76.74-1.01.99-.66-1.36-1.31-2.72-1.97-4.08-.44-.17-1.33-.5-1.77-.67.05-1.5-2.51-2.55-1.89-.34l1.31.91c-1.86 1.86-3.92 3.49-6.04 5.04-.47-.93-.91-1.88-1.24-2.87-.27-2.8-.53-5.84.96-8.37 1.37-2.66 4.21-3.95 6.66-5.41l.06-2.82c-1.11.06-2.22.08-3.33.06-1.2 2.9-2.99 5.57-5.73 7.21-3.11.96-6.63 1.19-9.55-.49-2.8-1.46-4.03-4.54-5.4-7.2-1.62-.84-3.23-1.69-4.82-2.55-1.95 1.21-3.93 2.36-5.93 3.48-1.58 2.9-3.04 6.35-6.37 7.58-2.61 1.41-5.66.96-8.38.19-2.93-1.53-4.68-4.36-5.97-7.29-1.13-.02-2.25-.04-3.38-.05.11.94.23 1.89.34 2.84 2.26 1.33 4.91 2.43 6.25 4.84 1.71 2.67 1.5 5.97 1.22 8.99-1.02 2.94-3.37 5.08-6.09 6.45-2.51 1.05-3.33 3.79-4.65 5.91 1.22 1.87 2.34 3.79 3.4 5.75.47.19 1.41.58 1.88.78l2.2 1.12c1.08 1.21 2.22 2.39 3.16 3.72 1.04 2.99 1.47 6.38.12 9.35-1.16 3-4.18 4.56-6.77 6.14-.15.86-.29 1.71-.44 2.57 1.13.07 2.25.13 3.38.17 1.33-2.66 2.65-5.75 5.64-6.91 2.86-1.5 6.16-1.02 9.16-.27 2.75 1.77 4.4 4.68 5.68 7.6 1.67.9 3.34 1.79 5.02 2.67 2.03-1.24 4.08-2.44 6.14-3.64 1.24-3.27 3.41-6.14 6.5-7.85 3.17-.34 6.71-.69 9.49 1.21 3.19 1.9 3.41 7.29 7.94 6.91.55-4.56-4.88-4.88-6.62-8.17-1.89-2.99-1.44-6.64-1.04-9.97 1.93.92 3.86 1.86 5.84 2.66-.77 1.4-.54 2.48.7 3.23 1.26-.74 1.54-1.84.83-3.31 2.24-.28 4.5-.07 6.6.8-1.95 1.53 1.66 2.61.81.24 3.49.64 6.29-1.98 9.08-3.61-.4 1.96-1.23 3.96-.76 6 1.39 6.51 1.34 13.33.13 19.86-2.75-.32-5.5-.61-8.26-.83.16 2.92.25 5.85.4 8.78-7.01.41-14.17.92-21.03-.84-4.23.91-8.6 1.17-12.68-.52-2.57-1.41-5.06.51-7.53 1.11-4.32 1.51-8.78.27-13.17.31-6.59 1.29-13.32.87-19.99.62.27-2.94.51-5.89.68-8.84-2.86.25-5.72.52-8.57.82-.63-5.7-.86-11.47-.07-17.16.76-4.73-.4-9.48-.01-14.22.54-1.91 1.35-3.72 2.09-5.56-.64-1.23-1.31-2.46-1.88-3.72-1.63-5.59.16-11.4-.89-17.05-.95-5.6-.5-11.31.21-16.91 2.81.26 5.63.5 8.44.71-.19-3.08-.44-6.17-.86-9.23 6.36.03 12.83-.78 19.1.64 3.41.77 6.85-.67 10.29-.14 3.2.38 6.43 2.35 9.63.88 4.79-1.91 9.9-1.59 14.92-1.2m7.5 5.56c.35 1.07.72 2.14 1.09 3.21 1.53-.07 3.06-.12 4.59-.18.06-.7.17-2.09.23-2.78-1.97-.11-3.94-.19-5.91-.25m-53.88 1.11c.14.93.23 1.87.28 2.81 1.5.04 3 .07 4.5.11.41-1.04.81-2.07 1.22-3.11-2 .06-4 .09-6 .19m35.97-.67c-.63 1.59-.1 2.13 1.57 1.64.64-1.59.12-2.13-1.57-1.64m-13.85.94c-.45 1.59.15 2.11 1.81 1.54.46-1.58-.15-2.09-1.81-1.54m23.25 1.19c.32 3.3 2.93-1.68 0 0m-32.45.9c.22 3.32 2.96-1.6 0 0m53.26 5.57c-.2 1.53-.4 3.05-.59 4.58 1 .6 2.01 1.19 3.01 1.8-.02-2.13-.05-4.25-.06-6.37-.59-.01-1.77-.01-2.36-.01m-75.02.85c.02 2.16.05 4.33.08 6.49.94-.6 1.89-1.19 2.83-1.78-.03-1.49-.04-2.99-.07-4.49-.95-.07-1.9-.14-2.84-.22m53.92-.35c-2.83 1.4 1.48 3.24 2.62 1.47 1.06-1.54-1.65-2.15-2.62-1.47m-33.68.73c.31 2.72 2.91 2.05 4.85 2.03-.87-2.07-2.94-1.96-4.85-2.03m-10.31 12.6c-.89 1.21-.67 1.95.65 2.19.9-1.21.68-1.94-.65-2.19m-8.06.44c-.54 1.63 0 2.17 1.63 1.64.55-1.63.01-2.18-1.63-1.64m-1.52 9.15c-.49 1.4-.05 1.94 1.33 1.62.5-1.41.05-1.95-1.33-1.62m5.42 11.42c-1.5 3 3.33.1 0 0m-4.9 2.4c-.51 1.4-.05 1.89 1.36 1.47.51-1.4.05-1.89-1.36-1.47m9.45 8.65c-.83 1.33-.61 2.31.66 2.93.3-.57.9-1.7 1.2-2.27-.29-.25-.87-.76-1.16-1.02l-.7.36m-7.47.48c-1.63 2.95 3.32.27 0 0m72.32 9.25l.18 4.58c.93-.01 1.86-.01 2.79-.02-.04-1.98-.06-3.96-.11-5.94-.96.44-1.91.92-2.86 1.38m-74.71 5.54c.97-.02 1.93-.06 2.89-.11.17-2.46.42-5.16-2.21-6.48-.57 2.14-.66 4.37-.68 6.59m20.52-1.46c.45 1.69 3.64 1.43 4.1-.16-.62-1.5-3.54-1.31-4.1.16m33.05-1.13c-.09 1.43 2.41 1.36 3.15.55.07-1.43-2.42-1.37-3.15-.55m.75 6.96c-.51 1.64.05 2.19 1.67 1.66.5-1.64-.05-2.19-1.67-1.66m9.75.6l-1.53 3.21c2.12-.05 4.24-.13 6.36-.23-.17-.97-.34-1.94-.5-2.91-1.45-.03-2.89-.05-4.33-.07m-55.61 3.66c2.23.18 4.46.28 6.7.31-.53-1.06-1.06-2.12-1.59-3.17-2.3-.21-4.49.39-5.11 2.86m13.33-3.29c-.47 1.39 0 1.89 1.4 1.48.47-1.4.01-1.89-1.4-1.48m22.83.84c-.84 1.29 1.34 2.66 2.26 1.55.81-1.29-1.34-2.74-2.26-1.55m-13.21 1.02c-.55 1.36-.09 1.82 1.38 1.4.56-1.35.1-1.81-1.38-1.4z"/>
    <path fill="#1d0707" opacity=".36" d="M26.69 26.6c-.32-2.57-.45-5.18-.13-7.76.42 3.06.67 6.15.86 9.23-2.81-.21-5.63-.45-8.44-.71-.71 5.6-1.16 11.31-.21 16.91 1.05 5.65-.74 11.46.89 17.05-2.8-3.95-1.46-8.81-1.28-13.24-.99-7.09-1.29-14.38-.09-21.46 2.8.17 5.6.17 8.4-.02z"/>
    <path opacity=".12" d="M88 24.58c1.97.06 3.94.14 5.91.25-.06.69-.17 2.08-.23 2.78-1.53.06-3.06.11-4.59.18-.37-1.07-.74-2.14-1.09-3.21z"/>
    <path opacity=".09" d="M34.12 25.69c2-.1 4-.13 6-.19-.41 1.04-.81 2.07-1.22 3.11-1.5-.04-3-.07-4.5-.11-.05-.94-.14-1.88-.28-2.81z"/>
    <path fill="#3a0e0f" opacity=".65" d="M70.09 25.02c1.69-.49 2.21.05 1.57 1.64-1.67.49-2.2-.05-1.57-1.64z"/>
    <path fill="#420e10" opacity=".65" d="M56.24 25.96c1.66-.55 2.27-.04 1.81 1.54-1.66.57-2.26.05-1.81-1.54z"/>
    <path fill="#300b0b" opacity=".58" d="M79.49 27.15c2.93-1.68.32 3.3 0 0z"/>
    <path fill="#300a0a" opacity=".6" d="M47.04 28.05c2.96-1.6.22 3.32 0 0z"/>
    <path opacity=".09" d="M100.3 33.62c.59 0 1.77 0 2.36.01.01 2.12.04 4.24.06 6.37-1-.61-2.01-1.2-3.01-1.8.19-1.53.39-3.05.59-4.58z"/>
    <path opacity=".18" d="M25.28 34.47c.94.08 1.89.15 2.84.22.03 1.5.04 3 .07 4.49-.94.59-1.89 1.18-2.83 1.78-.03-2.16-.06-4.33-.08-6.49zm64.79-.06c1.11.02 2.22 0 3.33-.06l-.06 2.82c-2.45 1.46-5.29 2.75-6.66 5.41-1.49 2.53-1.23 5.57-.96 8.37-.83-3.05-1.08-6.21-1.38-9.33 2.74-1.64 4.53-4.31 5.73-7.21zm-.26 65.34c1.44.02 2.88.04 4.33.07.16.97.33 1.94.5 2.91-2.12.1-4.24.18-6.36.23l1.53-3.21z"/>
    <path fill="#470f0f" opacity=".66" d="M79.2 34.12c.97-.68 3.68-.07 2.62 1.47-1.14 1.77-5.45-.07-2.62-1.47z"/>
    <path fill="#4d1211" opacity=".7" d="M45.52 34.85c1.91.07 3.98-.04 4.85 2.03-1.94.02-4.54.69-4.85-2.03z"/>
    <path fill="#3b0c0d" opacity=".65" d="M91.69 47.87c-.62-2.21 1.94-1.16 1.89.34l-.58.57-1.31-.91z"/>
    <path fill="#320b0c" opacity=".64" d="M35.21 47.45c1.33.25 1.55.98.65 2.19-1.32-.24-1.54-.98-.65-2.19z"/>
    <path fill="#661718" opacity=".75" d="M100 48.52c-2.49-.82.59-3.04 1.42-1-.36.25-1.06.75-1.42 1z"/>
    <path fill="#771b1d" opacity=".81" d="M27.15 47.89c1.64-.54 2.18.01 1.63 1.64-1.63.53-2.17-.01-1.63-1.64z"/>
    <path fill="#c62e31" d="M93.58 48.21c.44.17 1.33.5 1.77.67.66 1.36 1.31 2.72 1.97 4.08.25-.25.76-.74 1.01-.99-.22-.83-.45-1.66-.68-2.48.59-.25 1.77-.73 2.35-.97.36-.25 1.06-.75 1.42-1 1.24 1.38 2.49 2.74 3.73 4.13l2.18.21c.42-1.33.86-2.66 1.27-3.99.89 5.06.79 10.34-1.52 15.03.54 1.41 1.1 2.81 1.61 4.22 1.12 2.66 1.43 5.54 1.62 8.39-2.79 1.63-5.59 4.25-9.08 3.61l-.81-.24c-2.1-.87-4.36-1.08-6.6-.8l-1.53.08c-1.98-.8-3.91-1.74-5.84-2.66 1.95-2.84 4.57-5.16 7.79-6.47.91-1.65 1.77-3.33 2.73-4.96-1.26-1.76-2.05-3.87-3.58-5.43-2.2-1.54-4.57-2.85-6.43-4.82 2.12-1.55 4.18-3.18 6.04-5.04l.58-.57m7.43 7.9c-.56 1.65-.03 2.2 1.58 1.65.55-1.65.02-2.2-1.58-1.65m1.24 13.2c-1.43.08-1.29 2.48.09 2.54 1.41-.07 1.28-2.5-.09-2.54m-1.8 3.87c-.42 1.38.07 1.9 1.48 1.56.41-1.39-.08-1.91-1.48-1.56z"/>
    <path fill="#521314" opacity=".69" d="M101.01 56.11c1.6-.55 2.13 0 1.58 1.65-1.61.55-2.14 0-1.58-1.65z"/>
    <path fill="#3d0d0e" opacity=".64" d="M25.63 57.04c1.38-.33 1.83.21 1.33 1.62-1.38.32-1.82-.22-1.33-1.62z"/>
    <path fill="#6c1718" opacity=".8" d="M31.05 68.46c3.33.1-1.5 3 0 0z"/>
    <path fill="#531315" opacity=".7" d="M102.25 69.31c1.37.04 1.5 2.47.09 2.54-1.38-.06-1.52-2.46-.09-2.54z"/>
    <path fill="#330b0c" opacity=".48" d="M18.96 83.89c.93-4.42-1.15-8.95.49-13.29-.39 4.74.77 9.49.01 14.22-.79 5.69-.56 11.46.07 17.16 2.85-.3 5.71-.57 8.57-.82-.17 2.95-.41 5.9-.68 8.84 6.67.25 13.4.67 19.99-.62 4.39-.04 8.85 1.2 13.17-.31-4.49 2.62-9.74.53-14.58 1.3-6.4.93-12.97 1.28-19.34-.02.14-2.72.31-5.45.54-8.17-2.7.08-5.4.2-8.09.36-.99-6.16-1.28-12.49-.15-18.65z"/>
    <path fill="#461010" opacity=".65" d="M26.15 70.86c1.41-.42 1.87.07 1.36 1.47-1.41.42-1.87-.07-1.36-1.47z"/>
    <path fill="#461111" opacity=".64" d="M36.89 70.85l2.2 1.12-2.2-1.12z"/>
    <path fill="#972125" opacity=".89" d="M100.45 73.18c1.4-.35 1.89.17 1.48 1.56-1.41.34-1.9-.18-1.48-1.56z"/>
    <path fill="#761b1c" opacity=".82" d="M92.29 78.16l1.53-.08c.71 1.47.43 2.57-.83 3.31-1.24-.75-1.47-1.83-.7-3.23z"/>
    <path opacity=".22" d="M35.6 79.51l.7-.36c.29.26.87.77 1.16 1.02-.3.57-.9 1.7-1.2 2.27-1.27-.62-1.49-1.6-.66-2.93zm-9.86 15.27c.02-2.22.11-4.45.68-6.59 2.63 1.32 2.38 4.02 2.21 6.48-.96.05-1.92.09-2.89.11zm20.52-1.46c.56-1.47 3.48-1.66 4.1-.16-.46 1.59-3.65 1.85-4.1.16zm24.1 7.64c.92-1.19 3.07.26 2.26 1.55-.92 1.11-3.1-.26-2.26-1.55z"/>
    <path fill="#431010" opacity=".67" d="M100.42 78.88l.81.24c.85 2.37-2.76 1.29-.81-.24z"/>
    <path fill="#380d0d" opacity=".64" d="M28.13 79.99c3.32.27-1.63 2.95 0 0z"/>
    <path opacity=".11" d="M100.45 89.24c.95-.46 1.9-.94 2.86-1.38.05 1.98.07 3.96.11 5.94-.93.01-1.86.01-2.79.02l-.18-4.58z"/>
    <path fill="#1a0605" opacity=".5" d="M79.31 92.19c.73-.82 3.22-.88 3.15.55-.74.81-3.24.88-3.15-.55z"/>
    <path fill="#6d181b" opacity=".76" d="M80.06 99.15c1.62-.53 2.17.02 1.67 1.66-1.62.53-2.18-.02-1.67-1.66z"/>
    <path opacity=".06" d="M34.2 103.41c.62-2.47 2.81-3.07 5.11-2.86.53 1.05 1.06 2.11 1.59 3.17-2.24-.03-4.47-.13-6.7-.31z"/>
    <path fill="#611616" opacity=".75" d="M47.53 100.12c1.41-.41 1.87.08 1.4 1.48-1.4.41-1.87-.09-1.4-1.48z"/>
    <path fill="#2b0909" opacity=".57" d="M57.15 101.98c1.48-.41 1.94.05 1.38 1.4-1.47.42-1.93-.04-1.38-1.4z"/>
</svg>
