<svg width="128pt" height="128pt" viewBox="0 0 128 128" xmlns="http://www.w3.org/2000/svg">
    <path d="M31.97 34.75c5.02-.99 10.1-2.05 15.05-3.49.37.43 1.11 1.28 1.48 1.71-.56 2.52-.62 5.29-2.2 7.46-2.05 3.32-5.6 5.68-6.7 9.57 1.19 1.1 2.39 2.19 3.76 3.06-.35.52-.69 1.05-1.02 1.58.55-.05 1.66-.16 2.22-.21 5.71 3.92 10.75 8.75 15.98 13.3-1.33 1.62-2.62 3.28-3.9 4.94-7.24-5.69-14.12-11.82-20.97-17.97-3.65 2.14-5.53 6.2-8.88 8.57-4.35-1.75-7.53-5.97-11.38-8.75 5.36-6.71 10.73-13.45 16.56-19.77zm29.48 43.26c1.3-1.93 2.87-3.65 4.37-5.42 9.38 7.79 19.33 14.85 28.63 22.73-.02 1.34.62 2.83-.07 4.09-1.11 1.27-2.69 1.97-4.06 2.89-10.11-7.46-19.58-15.84-28.87-24.29z" fill="#fff"/>
    <path fill="#131313" opacity=".07" d="M13.11 55.91c2.8 1.74 6.3 3.58 7.03 7.09-3.08-1.47-5.97-3.7-7.03-7.09z"/>
    <path fill="#121212" opacity=".07" d="M31.19 64.12c1.43 1.16 2.84 2.36 4.26 3.55.68-.59 1.37-1.18 2.05-1.77-.57 2.31-1.2 4.61-1.84 6.9-1.76-1.41-3.66-2.7-5.08-4.46-.55-1.42.33-2.85.61-4.22z"/>
</svg>
