<svg width="128pt" height="128pt" viewBox="0 0 128 128" xmlns="http://www.w3.org/2000/svg">
    <path d="M67.37 36.59c.37-.88-.47-3.46 1.21-2.86 2.57.44 1 3.72-1.21 2.86zm14.45-1.41c.93-.56 1.89-1.95 3.12-1.17-.06 1.26-.22 2.52-.47 3.76 3.14.14 4.58 3.61 5.2 6.24-.91 3.63-5.05 3.77-8.02 4.34-1.37-.77-2.76-1.51-4.17-2.21-.57-1.59-.8-3.25-.89-4.93 1.63-.45 3.24-.95 4.78-1.65.63-1.31 1.3-2.58 2.03-3.83l-1.58-.55zm-18.76 9.84c-.48-2.79 1.28-5.13 2.93-7.14 2.29-.26 5-.88 5.63 2.07 1.44.47 2.87.91 4.31 1.35-.16 1.57.11 3.34-.89 4.69-1.47 1.11-3.31 1.62-4.97 2.38-2.4-.82-5.71-.81-7.01-3.35zm8.38 2.91c.99-.12 2.98-.37 3.98-.49.79 1.9.6 3.93.24 5.9l-3.57-.52c-.36-1.61-.65-3.24-.65-4.89zm5.36-.32c1.67-.02 4.6-.16 4.34 2.33l-.68 2.87c-1.23.14-2.45.27-3.68.39-.05-1.86-.04-3.73.02-5.59zm.82 18.18c.94-1.48 1.89-2.97 2.84-4.46.81 1.15 1.62 2.3 2.43 3.44.4-.35 1.22-1.06 1.63-1.42 2.28 3.42 5.46 6.44 6.54 10.53 2.27 7.03.67 14.88-3.01 21.15-1.26 1.66-2.84 3.07-4.61 4.16-3.44.03-6.89.46-10.31-.13-1.79-.46-4.29.21-5.44-1.63-4.86-6.3-8.06-14.65-5.8-22.6.99-4.76 3.82-8.94 7.44-12.11 1.65 1.99 3.88-.03 5.65-.66.88 1.24 1.76 2.49 2.64 3.73z" fill="#fff"/>
</svg>
