<svg width="128pt" height="128pt" viewBox="0 0 128 128" xmlns="http://www.w3.org/2000/svg">
    <path fill="#040000" opacity=".54" d="M62.08 23.17c3.18-2.01 6.3.84 8.06 3.34 3.91-.81 7.93-.98 11.83-.01 2.02-2.06 4.89-5.08 8.01-3.57 3.03 1.72 2.81 5.3 3.02 8.3 2.39 3.01 5.14 6.48 4.36 10.6-.84 2.87-2.51 5.43-3.2 8.36 2.09 3.08 4.39 6.03 6.62 9.02 2.53 3.28 6.98 4.22 9.63 7.36 1.99 2.43 1.18 5.75 1.04 8.62-2.11.75-4.25 1.39-6.36 2.16 1.29 5.26 3.29 12.93-2.39 16.32 1.65-2.92 2.54-6.16 3.16-9.43-.7-2.01-1.18-4.12-2.18-6.01-2.44-2.47-6.37-2.58-8.83-5.03-1.51-1.82-2.21-4.14-3.13-6.28 1.61 2.77 3.34 5.48 5.53 7.83 1.33-2.44 1.85-5.17 2.09-7.9-.16 3.45.45 6.88 2.52 9.72.2-.32.6-.96.81-1.28.66.02 1.98.05 2.64.07.27.35.82 1.06 1.1 1.41 1.13-2.56 1.43-5.35 1.41-8.13.36 2.05.74 4.12 1.43 6.09 1.86-.06 1.71-3.13 1.61-4.52-1.01-5.62-7.83-6.12-10.82-10.2-2.16-3.02-4.14-6.24-7.08-8.59l-.91-.87c1.86-2.77 3-5.93 4.59-8.85-.58-2.57-.81-5.45-2.57-7.55-2.1-1.39-4.41-2.42-6.58-3.69-.68.01-1.36 0-2.04-.02.14-1.15.31-2.3.51-3.44.11-.25.34-.75.46-1 1.22 1.74 2.17 3.79 3.97 5.03l.54.22c2.74-1.96.7-7.9-2.89-7.64-2.53-.15-3.71 2.37-5.08 4.01-4.47-.67-9-.66-13.47-.04-1.51-1.67-2.91-4.16-5.5-3.98-1.8-.08-2.79 1.59-3.59 2.92-.39 2.12-.05 4.28.24 6.39l-2.31.8c-.95 2.57-2.73 5.24-1.96 8.09 1.1 3.91 2.83 7.6 4.62 11.23.43-.16 1.28-.47 1.71-.63 1.39 1.19 2.78 2.36 4.17 3.55-1.02-.62-2.04-1.24-3.05-1.87-.44.15-1.32.44-1.76.59-4.64-4.29-6.37-10.62-10.56-15.24-1.51-1.79-3.86-2.64-6.17-2.22.99 1.64 2.1 3.22 3.14 4.84-1.71-.93-3.13-3.79-5.3-2.82-2.14 2.31 1.2 5 2.22 7.12-1.32-1.09-2.53-2.41-4.13-3.09-.34 3.09 2.05 5.49 3.53 7.94 2.37 3.14 2.83 7.15 4.07 10.78.64.41 1.93 1.21 2.57 1.62-3.97.62-4.91-3.73-5.27-6.67-.68-5.39-7.04-8.87-5.76-14.64 1.05-2.11 1.13-5.27 3.82-6 4.32-1.72 7.67 2.4 10.63 4.86.62-3.45 1.4-7.17 4.46-9.31.15-3.04-.44-6.97 2.77-8.67z"/>
    <path fill="#b2292b" d="M60.4 26.52c.8-1.33 1.79-3 3.59-2.92 2.59-.18 3.99 2.31 5.5 3.98 4.47-.62 9-.63 13.47.04 1.37-1.64 2.55-4.16 5.08-4.01 3.59-.26 5.63 5.68 2.89 7.64l-.54-.22c-.13-1.51 0-3.13-.81-4.48-.79-.14-2.37-.41-3.16-.55-.12.25-.35.75-.46 1-.2 1.14-.37 2.29-.51 3.44.68.02 1.36.03 2.04.02 2.17 1.27 4.48 2.3 6.58 3.69 1.76 2.1 1.99 4.98 2.57 7.55-1.59 2.92-2.73 6.08-4.59 8.85-1.38 1.95-2.82 3.87-4.09 5.89 2.15-1.13 3.89-2.84 5-5.02 2.94 2.35 4.92 5.57 7.08 8.59 2.99 4.08 9.81 4.58 10.82 10.2.1 1.39.25 4.46-1.61 4.52-.69-1.97-1.07-4.04-1.43-6.09.02 2.78-.28 5.57-1.41 8.13-.28-.35-.83-1.06-1.1-1.41-.44-2.16-.83-4.33-1.33-6.47-.47 2.13-.86 4.27-1.31 6.4-.21.32-.61.96-.81 1.28-2.07-2.84-2.68-6.27-2.52-9.72-.24 2.73-.76 5.46-2.09 7.9-2.19-2.35-3.92-5.06-5.53-7.83.92 2.14 1.62 4.46 3.13 6.28 2.46 2.45 6.39 2.56 8.83 5.03 1 1.89 1.48 4 2.18 6.01-.62 3.27-1.51 6.51-3.16 9.43l-1.08.25c-.9.21-1.8.43-2.7.65-.82-.52-1.64-1.04-2.47-1.55-2.64 1.22-5.41 2.12-8.2 2.93 2.3-4.73 5.45-9.45 5.15-14.95.03-7.25-4.41-13.34-8.63-18.83-.62.17-1.86.52-2.48.69-.45-.7-1.35-2.08-1.8-2.78-1.03 1.23-2.05 2.45-3.06 3.69-.78-1.2-1.56-2.39-2.34-3.58-.99.35-1.97.69-2.96 1.03-1.92-.23-3.96 0-5.03 1.83-3.89 5.53-7.45 11.96-7.19 18.94 0 5.17 3.23 9.45 5.27 13.98-3.72-.72-7.67-3.96-11.35-1.41-1.42-.93-3.1-1.61-4.16-2.97-.99-2.32-1.39-4.82-1.96-7.26.49-1.78.94-3.56 1.37-5.35 3.65-3.01 5.62-7.29 5.99-11.97-1.02-1.01-2.03-2.04-3.09-3.01-.14-.1-.41-.3-.55-.4-.64-.41-1.93-1.21-2.57-1.62-1.24-3.63-1.7-7.64-4.07-10.78-1.48-2.45-3.87-4.85-3.53-7.94 1.6.68 2.81 2 4.13 3.09-1.02-2.12-4.36-4.81-2.22-7.12 2.17-.97 3.59 1.89 5.3 2.82-1.04-1.62-2.15-3.2-3.14-4.84 2.31-.42 4.66.43 6.17 2.22 4.19 4.62 5.92 10.95 10.56 15.24.44-.15 1.32-.44 1.76-.59 1.01.63 2.03 1.25 3.05 1.87-1.39-1.19-2.78-2.36-4.17-3.55-.43.16-1.28.47-1.71.63-1.79-3.63-3.52-7.32-4.62-11.23-.77-2.85 1.01-5.52 1.96-8.09l2.31-.8c.99-.4 1.99-.82 2.94-1.31 1.24-1.67 2.3-3.47 3.36-5.25-1.46-.02-2.91-.04-4.36.01-.21.64-.64 1.92-.85 2.57-.33-.61-1-1.81-1.33-2.41m8.91 3.68c-.95 1.33-1.9 2.66-2.84 4 .18.46.55 1.38.73 1.84-2.95 2.94-6.36 6.44-5.36 11.03 2.57.8 5.21 1.43 7.69 2.48 1.12 1.21 1.9 2.69 2.96 3.96 2.74.45 5.54.21 8.3.26l-.48-.15c.93-.12 1.23-1.56 1.21-2.36l.1.4c1.14-3.29 5.13-2.63 7.29-4.68.84-1.17 1.41-2.51 2.06-3.79-1.61-2.37-3.38-4.64-5.47-6.62.85-3.29-1.54-6.49-4.89-6.77.86.95 1.89 1.65 3.09 2.11-.86 1.55-1.42 3.23-1.86 4.94-3.77-.1-7.55-.15-11.33-.01l.43-2.07c-.86 1.24-1.96 1.87-3.3 1.87-.77-2.33.08-3.32 2.57-2.95l-1.9-1.62c1.29-.57 2.59-1.13 3.88-1.7-.72-.04-2.16-.13-2.88-.17M48.96 42.85c-1.83.58-2.36 2.59-3.22 4.08 1.71-1.46 3.2-3.37 5.5-3.9 3.63 2.67-.72 5.74-3.2 7.07-1.07-.52-2.13-1.09-3.17-1.69.94 1.39 2.08 3.17 4.06 2.39 1.94-1.19 3.68-2.83 4.84-4.8.5-2.55-2.78-3.96-4.81-3.15z"/>
    <path opacity=".32" d="M62.58 26.36c1.45-.05 2.9-.03 4.36-.01-1.06 1.78-2.12 3.58-3.36 5.25l-.64-.13c-.41-.84-.81-1.69-1.21-2.54.21-.65.64-1.93.85-2.57zM86.42 26c.79.14 2.37.41 3.16.55.81 1.35.68 2.97.81 4.48-1.8-1.24-2.75-3.29-3.97-5.03z" fill="#070102"/>
    <path fill="#651816" opacity=".87" d="M60.64 32.91c-.29-2.11-.63-4.27-.24-6.39.33.6 1 1.8 1.33 2.41.4.85.8 1.7 1.21 2.54l.64.13c-.95.49-1.95.91-2.94 1.31z"/>
    <g fill="#050200">
        <path opacity=".72" d="M69.31 30.2c.72.04 2.16.13 2.88.17-1.29.57-2.59 1.13-3.88 1.7l1.9 1.62c-2.49-.37-3.34.62-2.57 2.95 1.34 0 2.44-.63 3.3-1.87l-.43 2.07c3.78-.14 7.56-.09 11.33.01.44-1.71 1-3.39 1.86-4.94-1.2-.46-2.23-1.16-3.09-2.11 3.35.28 5.74 3.48 4.89 6.77 2.09 1.98 3.86 4.25 5.47 6.62-.65 1.28-1.22 2.62-2.06 3.79-2.16 2.05-6.15 1.39-7.29 4.68l-.1-.4c-.28-1.07-.56-2.13-.85-3.19-1.28-.14-2.55-.28-3.82-.41-.01 1.63-.01 3.27-.01 4.91l3.47 1.05.48.15c-2.76-.05-5.56.19-8.3-.26-1.06-1.27-1.84-2.75-2.96-3.96-2.48-1.05-5.12-1.68-7.69-2.48-1-4.59 2.41-8.09 5.36-11.03-.18-.46-.55-1.38-.73-1.84.94-1.34 1.89-2.67 2.84-4m13.77 4.12c-.57 1.7-.07 2.28 1.52 1.72.57-1.69.07-2.26-1.52-1.72m-17.05 3.45c-1.67 2.18-4.06 5.23-2.39 8 3.28 3.1 8.03 2.46 11.61.3.21-1.57.4-3.15.59-4.73-2.38-.5-4.6-1.5-5.93-3.62-1.29.01-2.59.03-3.88.05m5.01.18c2.61 3.24 7.45 3.01 10.38.35-3.43-.61-6.92-.73-10.38-.35m5.51 3.46c.38 1.61.08 3.62 1.44 4.82 2.39 2.2 6.02 2.06 8.84.88 1.33-.54 3.06-1.4 2.73-3.17-.3-3.51-2.94-6.35-6.46-6.81-1.34 2.54-3.87 3.7-6.55 4.28m-5.15 6.35c.24 1.68.5 3.36.78 5.03l3.77.06c-.02-1.66-.05-3.31-.09-4.97-1.48-.05-2.97-.09-4.46-.12zm-22.44-4.91c2.03-.81 5.31.6 4.81 3.15-1.16 1.97-2.9 3.61-4.84 4.8-1.98.78-3.12-1-4.06-2.39 1.04.6 2.1 1.17 3.17 1.69 2.48-1.33 6.83-4.4 3.2-7.07-2.3.53-3.79 2.44-5.5 3.9.86-1.49 1.39-3.5 3.22-4.08zm-29.29 8.7c3.81.01 7.1 2.1 10.47 3.58 6.63 3.71 11.17 10.04 17.17 14.56 1.91 1.49 3.37 3.44 4.86 5.31 1.61-3.53 2.09-7.65-.19-11 1.06.97 2.07 2 3.09 3.01-.37 4.68-2.34 8.96-5.99 11.97-.43 1.79-.88 3.57-1.37 5.35.57 2.44.97 4.94 1.96 7.26 1.06 1.36 2.74 2.04 4.16 2.97 3.68-2.55 7.63.69 11.35 1.41-2.04-4.53-5.27-8.81-5.27-13.98-.26-6.98 3.3-13.41 7.19-18.94 1.07-1.83 3.11-2.06 5.03-1.83.99-.34 1.97-.68 2.96-1.03.78 1.19 1.56 2.38 2.34 3.58 1.01-1.24 2.03-2.46 3.06-3.69.45.7 1.35 2.08 1.8 2.78.62-.17 1.86-.52 2.48-.69 4.22 5.49 8.66 11.58 8.63 18.83.3 5.5-2.85 10.22-5.15 14.95 2.79-.81 5.56-1.71 8.2-2.93.83.51 1.65 1.03 2.47 1.55.9-.22 1.8-.44 2.7-.65 1.91 3.21 3.08 7.31.63 10.59.83-3.2 1-6.61-1.03-9.42l-1.3 1.06c-.38.29-1.13.87-1.5 1.16-.93-.9-1.88-1.78-2.84-2.63-2.35 2.88-1.08 6.49.32 9.5l1.12.88c1.31.21 2.64.41 3.96.6-4.35 1-8.73-1.35-11.07-4.98 1.71 1.19 3.46 2.31 5.24 3.41-.85-3.42-2.07-7.84-6.38-7.96 0 .94.02 2.81.02 3.75-.36-.55-1.1-1.66-1.46-2.21-4.22 3.52-9.99 2.94-15.04 2.22-2.65-.32-5.51-2.52-7.82-.17.3-.77.91-2.3 1.21-3.07-1.16-.2-2.33-.4-3.49-.59-.52.86-1.03 1.73-1.54 2.61l-.37.62c-.44-1.78-1.39-5.29-3.9-3.92-1.22 2.64-.56 5.62-.54 8.41.79.1 2.35.31 3.14.42.98.14 1.97.28 2.95.43-3.09.28-6.2.13-9.26-.32-1.99-2.82-2.97-6.43-1.13-9.6l-2.21-2.21c-4.37.51-8.53-1-12.43-2.75-3.79-1.79-8.08-2.52-11.42-5.18-3.53-2.16-7.93-4.64-8.82-8.98.12-2.11 1.07-4.32.39-6.38-1.34-1.32-3.02-2.2-4.6-3.19.56 2.78 1.4 5.52 2.81 7.99-3.95-3.08-3.85-8.64-3.57-13.16 1.88-3.73 4.63-6.83 7.98-9.3m-5.57 6.48c1.77 1.68 3.51 4.08 6.29 3.62.57 1.77 1.99 2.95 3.44 4-1.41-.15-2.83-.3-4.25-.42-1.36-2.51-3.43-4.49-5.64-6.23-1.07 1.89-1.6 4-1.86 6.14 2.08 1.28 4.17 2.56 6.33 3.7.43.86.86 1.73 1.29 2.6l-1.68.64c-1.47 4.92 2.75 8.66 6.34 11.15.71-3.24 1.04-6.77-1.11-9.57 2.97 3.27 6.32 6.19 10.56 7.65l.28-1.04c.85 1.02 1.69 2.05 2.56 3.06-2.4-.31-2.49 2.2-3.18 3.82 4.7 2.42 9.73 4.3 15.01 4.91-.89-1.17-1.82-2.3-2.79-3.39.23-1.59.47-3.16.71-4.74-.39-.66-1.17-1.99-1.56-2.65-.3.32-.9.95-1.2 1.27-.9-1.28-1.8-2.56-2.68-3.86 1.88.66 3.64 1.6 5.29 2.71.91-1.52 1.82-3.04 2.72-4.56-.15-.37-.44-1.09-.59-1.45.51-.07 1.51-.19 2.01-.25-.62-2.15-2.12-3.8-3.72-5.29-1.57 1.54-2.01 3.52.11 4.76-2.04-.06-1.99 2.02-2.47 3.48.08-1.33.15-2.66.21-3.98-.26-.4-.76-1.2-1.02-1.59.84-.89 1.67-1.78 2.5-2.68-1.86-1.88-3.97-3.5-6.26-4.83l.47-.77c-3.48-3.03-6.85-6.3-10.78-8.73-1.9-1.25-4.07-.75-5.77.56-.65 1.3-1.34 2.58-2.03 3.86.63-2.26-1.19-3.7-2.59-5.12.98.56 1.95 1.12 2.93 1.68 1.11-.93 2.22-1.85 3.32-2.78-1.68-.47-3.43-1.7-5.23-.98-2.41 1.22-4.2 3.31-5.96 5.3m63.33 7.75c-.74-1.16-1.49-2.33-2.24-3.49-1.96.84-4.05 1.38-6.18.99-7.72 6.31-9.91 18.22-5.48 27.06 1.37 2.68 2.72 5.43 4.78 7.64 4.98 1.93 10.55 1.16 15.78 1 6.8-5.34 8.86-14.82 7.5-23.01-.64-4.95-4.41-8.46-6.93-12.5-.61.42-1.22.83-1.84 1.25-.76-1.07-1.52-2.15-2.29-3.22-1.03 1.43-2.06 2.86-3.1 4.28M25.94 77.73c.01 2.14.03 4.28.05 6.43 2.25 1.22 4.58 2.31 6.96 3.25.27-1.82.54-3.65.8-5.47-2.59-1.43-5.19-2.85-7.81-4.21m25.67 18.09c-.87 2.89-.03 6.14 2.2 8.19 2.63-.19.91-3.33 1.04-4.91-.31-1.52-1.02-4.99-3.24-3.28z"/>
        <path opacity=".72" d="M29.92 62.16l1.86-3.33c-1.02 2.03-1.19 4.16-.04 6.18-.35-.12-1.04-.35-1.39-.46-.68 1.39-1.47 2.72-2.41 3.96l.84 2.88c-.52-.38-1.55-1.14-2.07-1.52.76-2.07 1.9-3.96 2.95-5.88l-1.62-2.61c.47.2 1.41.58 1.88.78zm5.16 4.87c.9.39 1.81.78 2.7 1.21 1.08.72 2.11 1.5 3.15 2.28-.72-.02-2.15-.07-2.87-.1-.34.6-1.02 1.79-1.37 2.38.3-.69.88-2.07 1.18-2.76-.94-1-1.87-2.01-2.79-3.01z"/>
    </g>
    <path d="M83.08 34.32c1.59-.54 2.09.03 1.52 1.72-1.59.56-2.09-.02-1.52-1.72zm-5.65 31.46c1.04-1.42 2.07-2.85 3.1-4.28.77 1.07 1.53 2.15 2.29 3.22.62-.42 1.23-.83 1.84-1.25 2.52 4.04 6.29 7.55 6.93 12.5 1.36 8.19-.7 17.67-7.5 23.01-5.23.16-10.8.93-15.78-1-2.06-2.21-3.41-4.96-4.78-7.64-4.43-8.84-2.24-20.75 5.48-27.06 2.13.39 4.22-.15 6.18-.99.75 1.16 1.5 2.33 2.24 3.49z" fill="#d63334"/>
    <path fill="#d63331" d="M66.03 37.77c1.29-.02 2.59-.04 3.88-.05 1.33 2.12 3.55 3.12 5.93 3.62-.19 1.58-.38 3.16-.59 4.73-3.58 2.16-8.33 2.8-11.61-.3-1.67-2.77.72-5.82 2.39-8z"/>
    <path d="M71.04 37.95c3.46-.38 6.95-.26 10.38.35-2.93 2.66-7.77 2.89-10.38-.35zM56.38 95.37c2.51-1.37 3.46 2.14 3.9 3.92-.36 1.66-.86 3.28-1.3 4.91-.79-.11-2.35-.32-3.14-.42-.02-2.79-.68-5.77.54-8.41z" fill="#b52829"/>
    <path d="M76.55 41.41c2.68-.58 5.21-1.74 6.55-4.28 3.52.46 6.16 3.3 6.46 6.81.33 1.77-1.4 2.63-2.73 3.17-2.82 1.18-6.45 1.32-8.84-.88-1.36-1.2-1.06-3.21-1.44-4.82zm-5.15 6.35c1.49.03 2.98.07 4.46.12.04 1.66.07 3.31.09 4.97l-3.77-.06c-.28-1.67-.54-3.35-.78-5.03zm5.45-.1c1.27.13 2.54.27 3.82.41.29 1.06.57 2.12.85 3.19.02.8-.28 2.24-1.21 2.36l-3.47-1.05c0-1.64 0-3.28.01-4.91z" fill="#d63431"/>
    <path fill="#5f1518" opacity=".89" d="M87.96 56.44c1.27-2.02 2.71-3.94 4.09-5.89l.91.87c-1.11 2.18-2.85 3.89-5 5.02z"/>
    <path fill="#8c2021" d="M14.1 58.03c1.76-1.99 3.55-4.08 5.96-5.3 1.8-.72 3.55.51 5.23.98-1.1.93-2.21 1.85-3.32 2.78-.98-.56-1.95-1.12-2.93-1.68 1.4 1.42 3.22 2.86 2.59 5.12.69-1.28 1.38-2.56 2.03-3.86 1.7-1.31 3.87-1.81 5.77-.56 3.93 2.43 7.3 5.7 10.78 8.73l-.47.77c-.65 1.07-1.31 2.15-1.96 3.23-.89-.43-1.8-.82-2.7-1.21.92 1 1.85 2.01 2.79 3.01-.3.69-.88 2.07-1.18 2.76-.14.28-.44.83-.59 1.11-.23.55-.7 1.65-.93 2.2-.37 1.38-.72 2.77-1.08 4.16l-.28 1.04c-4.24-1.46-7.59-4.38-10.56-7.65 2.15 2.8 1.82 6.33 1.11 9.57-3.59-2.49-7.81-6.23-6.34-11.15l1.68-.64c-.43-.87-.86-1.74-1.29-2.6-2.16-1.14-4.25-2.42-6.33-3.7.26-2.14.79-4.25 1.86-6.14 2.21 1.74 4.28 3.72 5.64 6.23 1.42.12 2.84.27 4.25.42-1.45-1.05-2.87-2.23-3.44-4-2.78.46-4.52-1.94-6.29-3.62m15.82 4.13c-.47-.2-1.41-.58-1.88-.78l1.62 2.61c-1.05 1.92-2.19 3.81-2.95 5.88.52.38 1.55 1.14 2.07 1.52l-.84-2.88c.94-1.24 1.73-2.57 2.41-3.96.35.11 1.04.34 1.39.46-1.15-2.02-.98-4.15.04-6.18l-1.86 3.33z"/>
    <path fill="#7e1b19" d="M37.78 68.24c.65-1.08 1.31-2.16 1.96-3.23 2.29 1.33 4.4 2.95 6.26 4.83-.83.9-1.66 1.79-2.5 2.68.26.39.76 1.19 1.02 1.59-.06 1.32-.13 2.65-.21 3.98.48-1.46.43-3.54 2.47-3.48-2.12-1.24-1.68-3.22-.11-4.76 1.6 1.49 3.1 3.14 3.72 5.29-.5.06-1.5.18-2.01.25.15.36.44 1.08.59 1.45-.9 1.52-1.81 3.04-2.72 4.56-1.65-1.11-3.41-2.05-5.29-2.71.88 1.3 1.78 2.58 2.68 3.86.3-.32.9-.95 1.2-1.27.39.66 1.17 1.99 1.56 2.65-.24 1.58-.48 3.15-.71 4.74.97 1.09 1.9 2.22 2.79 3.39-5.28-.61-10.31-2.49-15.01-4.91.69-1.62.78-4.13 3.18-3.82-.87-1.01-1.71-2.04-2.56-3.06.36-1.39.71-2.78 1.08-4.16.68.72 1.53 1.07 2.54 1.04-.02-1.27-.57-2.5-1.61-3.24.15-.28.45-.83.59-1.11.35-.59 1.03-1.78 1.37-2.38.72.03 2.15.08 2.87.1-1.04-.78-2.07-1.56-3.15-2.28m.35 16.8c1.19 1.17 2.35 2.35 3.49 3.57.75-.25 1.5-.5 2.26-.75-.3-.86-.6-1.73-.9-2.59-1.62-.05-3.23-.14-4.85-.23z"/>
    <path fill="#861f20" d="M12.45 66.02c1.58.99 3.26 1.87 4.6 3.19.68 2.06-.27 4.27-.39 6.38-.35-.4-1.05-1.19-1.4-1.58-1.41-2.47-2.25-5.21-2.81-7.99z"/>
    <path fill="#4e1212" opacity=".87" d="M102.67 75.29c.45-2.13.84-4.27 1.31-6.4.5 2.14.89 4.31 1.33 6.47-.66-.02-1.98-.05-2.64-.07z"/>
    <path fill="#290a0a" opacity=".83" d="M36.1 73.91c1.04.74 1.59 1.97 1.61 3.24-1.01.03-1.86-.32-2.54-1.04.23-.55.7-1.65.93-2.2z"/>
    <path fill="#861f1e" d="M25.94 77.73c2.62 1.36 5.22 2.78 7.81 4.21-.26 1.82-.53 3.65-.8 5.47-2.38-.94-4.71-2.03-6.96-3.25-.02-2.15-.04-4.29-.05-6.43z"/>
    <path fill="#390b0d" opacity=".86" d="M38.13 85.04c1.62.09 3.23.18 4.85.23.3.86.6 1.73.9 2.59-.76.25-1.51.5-2.26.75-1.14-1.22-2.3-2.4-3.49-3.57z"/>
    <g fill="#ad2829">
        <path d="M95.9 104.18c-1.4-3.01-2.67-6.62-.32-9.5.96.85 1.91 1.73 2.84 2.63.65 2.47.76 5.04 1.07 7.57-.9-.17-2.69-.52-3.59-.7zm-33.71-8.12c1.16.19 2.33.39 3.49.59-.3.77-.91 2.3-1.21 3.07-1.34 1.72-3.28 2.97-4.95 4.37.28-1.82.5-3.68 1.13-5.42.51-.88 1.02-1.75 1.54-2.61z"/>
        <path d="M99.92 96.15l1.3-1.06c2.03 2.81 1.86 6.22 1.03 9.42-4.06.49-2.82-4.98-2.98-7.59l.65-.77z"/>
    </g>
    <path fill="#b02829" d="M51.61 95.82c2.22-1.71 2.93 1.76 3.24 3.28-.13 1.58 1.59 4.72-1.04 4.91-2.23-2.05-3.07-5.3-2.2-8.19z"/>
    <path fill="#a52527" opacity=".98" d="M88.77 96.13c4.31.12 5.53 4.54 6.38 7.96-1.78-1.1-3.53-2.22-5.24-3.41l-1.12-.8c0-.94-.02-2.81-.02-3.75z"/>
    <path fill="#010000" opacity=".18" d="M63.19 102.18c2.32-1.74 1.73 2.97-.31 1.33.08-.33.23-1 .31-1.33z"/>
</svg>
