<svg width="128pt" height="128pt" viewBox="0 0 128 128" xmlns="http://www.w3.org/2000/svg">
    <g fill="#fff">
        <path d="M62.75 23.45c3.07-.27 5.34 1.73 6.77 4.25 4.55-.88 9.11-1.09 13.62.15.77-2.86 3.69-5.2 6.7-4.01 1.99 1.65 3.74 5.79 1.16 7.56-1.6-1.37.52-4.57-2.06-5.35-2.05-1.51-2.92 1.17-3.8 2.49l2.04-.6c-.32.73-.95 2.17-1.27 2.89.43-.35 1.31-1.07 1.75-1.42.49 3.21 4.07 3.29 6.41 4.39 1.55 2.54 2.4 5.43 2.68 8.38-2.6 1.52-1.56 5.43-4.01 7.03-.99 2.64-2.88 4.75-4.47 7.03 1.81-1.37 3.29-3.09 4.68-4.86 3.22 2.08 4.82 5.63 6.99 8.64 2.72 3.75 8.47 4 10.38 8.49.98 2.3.83 5.46-1.1 7.25-.59-2.4-.71-4.91-1.59-7.23-.05 2.92 1.16 7.21-2.73 8.21-.23-2.17-.38-4.34-.47-6.51-.21.01-.62.04-.83.05-.1 2.06-.26 4.12-.56 6.17-3.96-1.53-3.63-6.22-3.65-9.7-1.36 2.26.86 6.69-2.73 7.18-2.18-1.62-3.38-4.11-4.32-6.57l-.46.08c1.22 2.76 2.06 6.36 5.33 7.38 2.67.87 5.23 2.14 7.27 4.1-.08 1.88.67 3.62 1.28 5.35-.72 2.73-.55 5.85-2.44 8.14-1.31 1.05-2.89 1.69-4.32 2.54-.99-.84-2-2.7-3.47-1.48-2.16 1.54-4.86 1.67-7.35 2.26 2.14-4.38 5.38-8.6 5.14-13.74.36-7.69-4.19-14.42-8.92-20.05-.58.48-1.16.96-1.73 1.44-.79-1.13-1.62-2.25-2.48-3.33-.98 1.27-1.92 2.56-2.82 3.88-.7-1.27-1.4-2.53-2.1-3.79-1.34.66-2.67 1.35-4 2.04l-.14-2.09c-1.69 1.05-3.31 2.2-4.81 3.52.4.26 1.22.78 1.62 1.04-.43-.16-1.3-.47-1.74-.62-3.17 5.87-7.17 12.01-6.14 19.03.12 5.55 4.45 9.69 5.45 14.97-1.2 2.5-2.88 5.03-5.77 5.67.53-3.09.59-8.24 5.05-7.88-2.66-.72-5.38-1.31-7.73-2.82-.96.52-1.92 1.07-2.86 1.64-1.64-.85-3.79-1.33-4.66-3.15-.93-2.4-1.21-5-2.13-7.4.7-1.28 1.38-2.56 2.08-3.83l-1.41-.13c1.75-2.9 5.43-4.52 5.93-8.14.27-1.63.89-3.29.62-4.96-1.5-2.19-3.25-5.03-6.29-4.83.16-.52.47-1.55.62-2.07l-1.44.55c-.05-2.3.11-4.75-1.07-6.83-2.01-3.76-5.75-6.86-5.6-11.5 1.64 1.51 3.08 3.24 4.93 4.51-.47 1.8-.01 4.27 2.22 4.37 2.22-.79 3.65-2.9 5.51-4.27.02-1.27.59-2.87-.89-3.55-2.22-1.79-5.15-.18-6.29 2.05-.42-.07-1.27-.21-1.7-.27-1.59-2-2.71-4.24-2.44-6.87 2.74.31 4.47 2.29 6.28 4.09-.84-2.22-2.42-4.03-3.78-5.94 3.87.11 7.14 2.49 9.04 5.74 2.92 4.12 4.34 9.38 8.35 12.68 1.44-2.5 3.23.57 4.82 1.06-1.56-1.42-3.17-2.76-4.73-4.18l.09 2.28c-2.91-3.24-4.55-7.42-5.03-11.72l-1.28.66c.35-3.58.38-9.13 4.71-10.17-.87-3.33-.67-6.97 2.09-9.37m-.15 3.12c-1.3 1.83-.98 4.44.36 6.17.42-.8 1.27-2.4 1.7-3.19l1.63.92L65.07 28c.57-.2 1.71-.59 2.29-.79-1.43-1.35-3.14-2.06-4.76-.64m7.94 2.77c-1.43 1.7-4.1 3.18-3.61 5.78.81 1.6-.66 2.15-1.61 2.87-2.1 2.47-4.53 5.31-3.4 8.8 2.49 1.09 5.11 1.81 7.69 2.67 1.28 1.11 1.83 2.82 2.71 4.23 2.68.2 5.37.1 8.06-.03.72-1.33 1.23-2.83 2.33-3.92 2-1.21 4.73-1.07 6.31-2.97.62-1.15 1.17-2.33 1.61-3.55-.77-2.07-2.45-3.6-3.67-5.39-.45-.21-1.33-.65-1.78-.87 1.1-2.67-.4-4.81-2.14-6.73-1.02.11-2.04.23-3.06.36 1.32.45 2.65.85 4 1.21-1.46 1.45-2.17 3.28-2.11 5.33-3.26-.4-6.54-.4-9.82-.24l-.17.92c3.19-.2 6.39-.08 9.57.21-1.26 1.51-3.14 2.01-4.91 2.67-2.02-.84-5.75-.62-4.85-3.87l-1.04.47c-.06-2.12-.73-4.05-2.43-5.42.84-.22 2.51-.65 3.35-.87-.31-.58-.68-1.11-1.03-1.66z"/>
        <path d="M49.03 43.84c1.67-1.78 4.35.04 3.67 2.27-1.25 1.76-3 3.09-4.71 4.37-3.73-1.29-1.31-5.32 1.04-6.64zM14.09 57.91c1.06-1.33 2.24-2.53 3.5-3.65 1.45 1.17 3.5 1.87 4.35 3.63.25 1.95-1.86 3-2.78 4.45-1.89-1.23-3.59-2.73-5.07-4.43z"/>
        <path d="M22.34 56.97c1.44-.98 2.96-1.81 4.55-2.48 2.29.8 4.8 1.66 6.2 3.79 2.7 1.77 5.17 3.87 7.38 6.24-.83 1.32-1.66 2.64-2.53 3.94-2.48-1.29-4.93-2.72-6.97-4.66-.21-1.77.43-3.52.51-5.29-.5 1.27-.78 2.61-1.06 3.95-.74-.24-2.22-.73-2.97-.97l1.16-1.1c-.67.04-1.99.11-2.66.14 1.14.79 2.31 1.54 3.39 2.41-.03 2.12-.71 5.76-3.57 4.7l-.96 1.8c.45-.38 1.34-1.15 1.78-1.54.09 1 .27 2.99.35 3.99.2-.41.59-1.22.78-1.63 1.05.57 2.1 1.13 3.16 1.68-1.17-1.03-2.36-2.06-3.57-3.06.67-.49 1.35-.98 2.03-1.47l.72-3.27c2.48 1.89 5.87 2.94 7.52 5.7-.02 2.05-1.1 3.84-2.03 5.59 0 .41-.02 1.24-.02 1.66 3.12.18 5.55 2.24 7.71 4.29 1.44.02 2.36 1.11 3.34 1.98-.28 1.77-.54 3.54-.92 5.29 1.13.99 2.15 2.09 3.06 3.29-5.16-.16-10-2.18-14.65-4.23.13-1.62.3-3.23.49-4.84 2.92 1.87 5.9 3.64 8.89 5.39-.31-1.39-.64-2.78-.97-4.17-.27.54-.79 1.6-1.06 2.14-2.92-1.3-7.11-3.01-6.15-7.02l-1.26 2.28c-1.75-.91-3.54-1.73-5.29-2.65-.8-.85-1.65-1.65-2.55-2.4.12-.98.37-2.94.5-3.92-.54.92-1.07 1.85-1.59 2.78-2.53-2.02-6.02-3.44-6.9-6.89l1.3.02c.05-1.31.11-2.63.19-3.94 1.44.49 2.89.97 4.34 1.42-1.27-1-2.54-2.02-3.79-3.05.58-2.2 1.91-4.48 4.46-4.53-.58-.34-1.76-1.02-2.34-1.36m10.14 16.27c-.46 1.37.02 1.88 1.44 1.52.45-1.38-.03-1.89-1.44-1.52z"/>
        <path d="M13.95 66.22c-3.16-1.14-1.4-5.05-.2-7.1 1.96 1.45 4.05 2.89 5.43 4.95.33 1.79-.68 3.39-1.34 4.97l-3.43-2.51c.95 1.21 2.11 2.23 3.06 3.44-.03 1.85-.15 3.69-.37 5.52-2.23-2.25-3.91-4.96-4.83-8 .42-.32 1.26-.95 1.68-1.27zM36.4 75c.61-1.66 1.11-3.41 2.13-4.88 2.48.43 4.31 2.21 6.11 3.82-.33 1.98-.7 3.95-1.15 5.91-2.64-1.14-5.17-2.67-7.09-4.85zm8.36-1.64c.51-1.26 1.19-2.45 2.01-3.54 1.34 1.75 4.43 3.21 3.25 5.93-1.88-.51-3.6-1.41-5.26-2.39zM18.3 71.15c2.39 1.32 4.74 2.83 6.53 4.91.21 2.4-.13 4.79-.24 7.18-2.54-1.62-5.24-3.48-6.37-6.42-.2-1.88.01-3.78.08-5.67zm7.52 6.38c2.61 1.76 5.6 2.89 8 4.95-.28 1.67-.53 3.35-.73 5.03-2.37-1.09-5.21-1.58-7.04-3.57-.31-2.12-.17-4.27-.23-6.41zm26.51 17.93c3.4.43 2.4 5.47 2.96 7.97-1.99 1.93-3.07-1.5-3.75-2.85-.25-1.5-.86-4.59.79-5.12z"/>
        <path d="M57.15 95.17c4.11.18 2.83 5.89 1.83 8.47l-2.16.96c-1.74-2.65-1.71-6.51-.43-9.34l.76-.09zm37.48.46c4.93-1.35 3.92 5.86 4.7 8.85-4.54.97-5.84-5.63-4.7-8.85z"/>
        <path d="M99.77 95.24c2.02.4 2.73 2.23 3.53 3.86-.64 1.82-.4 4.5-2.42 5.44-2.43-2.49-1.29-6.24-1.11-9.3zM88.13 96.5c4.88-1.45 6.11 4.12 7.12 7.55-3.29-1.3-6.38-3.96-7.12-7.55z"/>
    </g>
    <path fill="#f7f7f7" opacity=".97" d="M17.58 53.76c2.53-1.63 5.56-1.68 8.06.06-1.28.89-2.56 1.79-3.83 2.68-1.41-.9-2.82-1.82-4.23-2.74z"/>
    <path fill="#fefefe" d="M38.43 68.99c.72-1.41 1.5-2.78 2.31-4.13 1.61 1.59 3.2 3.21 4.98 4.61-.46 1.13-.93 2.25-1.4 3.38-1.94-1.32-3.91-2.59-5.89-3.86z"/>
    <path fill="#e3e3e3" opacity=".89" d="M32.48 73.24c1.41-.37 1.89.14 1.44 1.52-1.42.36-1.9-.15-1.44-1.52z"/>
    <path fill="#f9f9f9" opacity=".98" d="M45.14 74.22c1.35.63 2.7 1.28 4.05 1.94-.85 1.78-1.72 3.54-2.58 5.32-.91-.54-1.81-1.08-2.7-1.63.39-1.89.79-3.76 1.23-5.63z"/>
</svg>
