<svg width="128pt" height="128pt" viewBox="0 0 128 128" xmlns="http://www.w3.org/2000/svg">
    <path d="M65.28 25.11c5.18-3.38 11.37-6.46 17.72-5.22 7.07 1.25 11.54 8.56 19 8.59 2.45.09 6.59-.27 6.7-3.48.32-1.26-.75-2.09-1.44-2.94-.78.41-2.35 1.23-3.13 1.63-.17-3.72 3.49-3.43 6.1-3.15 2.15 2.84 2.13 7.69-1.48 9.33-5.35 3.27-11.74.35-16.12-3.2-4.85-4.39-11.9-6.02-18.13-3.84.26 1.62-.34 2.99-1.47 4.11 6.72.32 13.16 2.53 19.31 5.12 4.9 1.93 8.53 5.8 12.45 9.13 1.71 1.69 4.13 1.24 6.29 1.22-1.2 2.03-3.38 2.58-5.62 2.42 1.45 5.11 1.21 10.7 4.03 15.39l-3.33-2.25c-.18 7.82 1.28 16.12 7.02 21.88-3.72-.68-6.84-3.4-8.06-6.95-1.18 3.22-2.01 6.55-2.03 10-6.13 5.56-10.33 13.57-9.87 21.99l-.42.41c-2.19-4.06-.69-8.69.59-12.78 2.19-6.74 6.63-12.66 7.69-19.77-2.67 3.7-6.15 6.88-10.59 8.26 1.12-1.36 2.22-2.8 3.68-3.82.89-.51 1.47-1.27 1.74-2.27 3.34-5.52 5.56-11.61 6.94-17.9-1.57 1.34-3.17 2.64-4.8 3.91 1.77-3.06 3.91-6.23 3.79-9.93.25-3.96-2.16-7.45-4.8-10.16-.19.59-.59 1.78-.79 2.37C93.4 36.98 87.58 32.66 81 31.04c.68 1.88 1.4 3.74 2.12 5.6-.15.68-.47 2.04-.63 2.72-.49-1.05-.98-2.11-1.45-3.17-.26-1.21-.94-2.03-2.04-2.48-2.73-1.35-5.64-2.3-8.67-2.68-2.74-.55-5.56-1-8.08-2.28-.01-1.75 1.98-2.53 3.03-3.64zM30.92 65.76c1.52.33 3.04.65 4.55 1.05.46.24 1.39.73 1.86.98-.22 2.01-.44 4.01-.68 6.02.73 2.22 1.46 4.44 2.24 6.65.22-2.91-.26-6.02 1.2-8.7 1.15 4.19 2.02 8.54 1.16 12.88 1.24-1.35 2.44-2.73 3.42-4.28.43 2.8.51 5.77 1.9 8.33.04-.59.1-1.77.14-2.35.64-1.47 1.39-2.88 2.18-4.27.5 4.3.29 9.08 3.5 12.44-.46-1.5-1.39-4.51-1.85-6.02 2.63 2.72 5.92 7.36 10.37 5.76 3.61-1.71 5.53-5.48 8.11-8.34-1.07 2.01-2.06 4.06-2.79 6.22-1.17 2.05-2.75 3.88-4.73 5.19-3.5 1.15-7.17 1.8-10.86 1.89-1.29-.6-2.51-1.36-3.76-2.04l4.24-.72c-3.23-1.31-6.5-2.52-9.87-3.43.16-.63.47-1.88.62-2.51-2.28-.23-4.56-.45-6.84-.7 1.19-.72 2.38-1.43 3.57-2.14-.32-.82-.64-1.64-.95-2.46H33.9c-1.71-2.61-2.41-6.21-5.84-7.15 1.27-1.61 3.19-1.56 4.1.35.86 1.4 2.09 2.99 3.96 2.61l-.76-2.19c-1.15-2.92-3.26-5.17-5.89-6.84.47-2.08.95-4.16 1.45-6.23m4.52 7.7c-.2-1.95-.17-4.4-2.48-5.08-2.09 1.81.3 4.75 2.48 5.08z" fill="#b02829"/>
    <path fill="#220708" opacity=".44" d="M74.5 22.83c6.23-2.18 13.28-.55 18.13 3.84-3.76-.85-6.74-3.81-10.68-4.03-2.16-.33-4.31.17-6.29 1.02.26.7.78 2.11 1.03 2.81 4.36.59 8.56 1.99 12.68 3.46 1.19.39 2.21 1.14 2.97 2.13-6.15-2.59-12.59-4.8-19.31-5.12 1.13-1.12 1.73-2.49 1.47-4.11z"/>
    <g fill="#ad2829">
        <path d="M25.13 32.09c3.2-4.66 8.11-8.28 13.75-9.23 3.28-.28 6.57.25 9.79.85 1.89 1.21 5.31 1.63 5.51 4.28-.17 1.91-2.46 1.6-3.78 2.22-.11-.76-.31-2.3-.41-3.06-5.44-2.46-12.11-2.72-17.1.91-3.38 2.75-4.68 7.12-7.53 10.31-2.43 2.52-8.16 1.57-8.12-2.5-.59-3.14 3.62-7.6 6.05-3.8-.77.49-2.3 1.45-3.07 1.93 1.46 1.91 3.93-.52 4.91-1.91z"/>
        <path d="M36.84 32.02c4.23-2.02 9.5-3.36 13.73-.64-1.59 2.7-3.54 5.15-5.23 7.78 1.03 2.22 3.51 3.28 5.3 4.81-.7 2.05-1.45 4.08-2.2 6.12 1.68 2.48 3.15 5.21 2.88 8.32-1.89-3.23-4.36-6.14-7.77-7.84 1.45-2.04 2.97-4.02 4.48-6.01-2.52-1.46-5.55-1.39-8.17-2.6 1.27-4.11 5.29-6.36 7.53-9.87-4.05-.14-7.86 1.79-10.25 5.03-3.39 4.17-5.65 9.46-5.49 14.9.13 3.51 2.52 6.27 4.18 9.17-2.94-1.44-5.05-4.06-5.76-7.28-.11-1.41-.23-2.81-.37-4.21-3.63 6.47-2.81 14.05-2.15 21.12-1.09-2.34-2.09-4.72-3.05-7.11-.44 3.28.05 6.55 1.05 9.68.17 2.23-.43 4.59.53 6.7 1.13 3.16 4.1 5.16 5.46 8.19l1.59 1.39c-6.35-1.12-14.07 3.32-13.86 10.37-.39 4.41 4 6.6 6.78 9.11-2.73-.09-5.78-.37-7.84-2.38-.53-.86-1.27-1.46-2.21-1.81-3.58-4.36.04-10.17 3.9-12.91.95-.32 1.73-.88 2.33-1.68 2.35-1.81 5.34-2.11 8.19-2.4-2.26-1.5-4.8-2.92-6.04-5.47-2.5-4.19-2.73-9.16-3.49-13.85-.69 2.52-.52 5.17-.65 7.76-2.37-2.58-1.73-6.21-1.64-9.39.47-6.73 3.4-12.96 7.05-18.54-2.88.05-7.47 1.72-8.85-1.91 4.02.68 8.44-.47 10.78-4 2.56-3.94 5.4-7.79 9.26-10.55zm46.28 4.62c.36 1.31.69 2.62 1.04 3.92 3.64 1.38 5.95 4.84 7.38 8.29 2.53 6.31 2.27 13.48.06 19.84-1.57 4.1-4.72 7.29-6.84 11.08-2.28 4.17-1.66 9.57 1.3 13.23 1.33 1.26 2.93 2.2 4.1 3.64-9.49.05-13.34-13.59-6.6-19.62 1.28-.82 1.91-2.17 1.56-3.67 1.56-1.78 3.02-3.64 4.35-5.6 1.88-1.67-.72-4.12-2.33-2.28-1.75 1.26-3.04 2.98-4.19 4.77.02-.71.04-2.13.05-2.84 2.36-3.71 6.38-6.75 6.61-11.48.65-4.61-1.57-8.84-3.13-13.02-1.06-.06-2.12-.11-3.18-.17-.22 1.97-1.97 4.54.36 5.83-.88-.56-1.73-1.16-2.59-1.75-.65-.15-1.96-.45-2.62-.6-.42-.2-1.25-.59-1.67-.78 1.4 0 2.81-.06 4.21-.17 1.28-1.7 1.28-3.89 1.5-5.9.16-.68.48-2.04.63-2.72z"/>
        <path d="M38.09 55.98c.21-1.37.85-2.39 1.93-3.08 1.41-.27 2.67.85 2.79 2.23.38 2.83.95 5.66 2.51 8.11.26-1.76.47-3.53.74-5.29l.96-.43c.99 3.21.7 6.5-1.11 9.35.7-.55 2.09-1.67 2.79-2.22-.29 2.13-1.41 4.48-.23 6.55.2.6.61 1.79.81 2.38.34-.09 1.02-.28 1.35-.37.38 1.65.76 3.32 1.28 4.94.29.93.61 1.86.94 2.78.33 1.25.97 2.44 2.04 3.21 1.47 1.39 3.16 2.52 4.94 3.47.82-.36 2.46-1.1 3.28-1.46-.22 1.35-.9 2.37-2.05 3.07-1.78-.38-3.58-.59-5.4-.71-1.59-1.78-3.07-3.66-4.54-5.55-.26-.55-.79-1.67-1.06-2.22-1.19-1.75-2.52-3.41-3.97-4.96.26-.42.8-1.25 1.06-1.67-1.23-.51-2.47-1-3.71-1.49.61-.81 1.22-1.63 1.83-2.44-1.95-.45-3.9-.88-5.86-1.3l.64-.7c1.37-.16 2.74-.3 4.11-.42-1.28-.88-2.57-1.75-3.81-2.69-.98-1.22-1.95-2.45-2.88-3.7 2.11.29 3.99 1.31 5.79 2.41-1.51-2.74-3.05-5.48-5.17-7.8m2.1-1.61c-1.08.97.24 3.36 1.61 2.43 1.1-.97-.27-3.32-1.61-2.43z"/>
        <path d="M56.16 69.96c-2.69-1.67-2.13-4.64-.61-6.93.66.58 1.99 1.72 2.65 2.3.04 1.22.07 2.45.07 3.68.38-.36 1.12-1.08 1.5-1.44.22 4.77 1.91 9.29 2.53 14.01l.56.39c.25.13.76.39 1.01.52 1.02.51 2.03 1.02 3.05 1.54-1.17 1.25-2.26 2.57-3.37 3.87l-.44-1.75c.67-.31 2.01-.92 2.68-1.23-3.32-.49-5.65-2.98-8.35-4.71-.4-1.21-.8-2.42-1.18-3.63-.41-.44-1.24-1.33-1.66-1.77l2.41-.4c-1.35-1.71-2.7-3.42-4-5.17l3.15.72m-.07-3.82c-1.54 3.01 3.3.17 0 0zm47.12 34.23c-3.81-1.85-3.03-8.16.84-9.39 1.73-.93 3.5.46 5.15.93 2.59 5.33 2.04 12.08-1.25 16.99-3.08 4.19-7.76 7.23-12.86 8.23-6.88 1.09-14.4-2.69-16.87-9.37-.95-3.14-2.47-6.88-.84-10 1.64 5.47 3.59 12.15 9.74 14.01 4.41 2.17 9.43 1.53 13.29-1.43l1.64-1.36c3.06-3.5 5.87-8.07 3.59-12.81-.58.02-1.75.06-2.34.07-.02 1.38-.05 2.75-.09 4.13zm-44.62 1.99c2.52-1.25 4.58-3.23 6.96-4.72-1.68 3.12-4.1 5.9-7.3 7.52-3.15-.08-6.29-.52-9.35-1.27-2.73 1.41-3.44 4.03-2.89 7-2.66-2.1-2.35-5.43-1.5-8.32 1.94-1.66 4.37-1.14 6.68-.8 2.38.62 4.98 1.66 7.4.59z"/>
    </g>
    <path fill="#190606" opacity=".37" d="M48.67 23.71c2.18.43 5.59.54 6.28 3.16l.24 3.01c1.26 1.05 2.91 1.39 4.42 1.9-.01.72-.03 2.16-.05 2.88-1.1-1.7-2.69-2.95-4.34-4.08.69 2.1 1.41 4.19 2.1 6.29l-4.29-2.97-.52 1.76-.77-.49c.88-1.26 2.93-2.3 2.11-4.08-1.12-.77-2.24-.45-3.28.29-4.23-2.72-9.5-1.38-13.73.64 3.16-3.67 8.39-2.69 12.67-3.03-4.29-4.83-11.31-2.21-16.62-.93 4.99-3.63 11.66-3.37 17.1-.91.1.76.3 2.3.41 3.06 1.32-.62 3.61-.31 3.78-2.22-.2-2.65-3.62-3.07-5.51-4.28z"/>
    <path fill="#2a0a09" opacity=".5" d="M61.33 30.24c-.79-2.76 1.59-4.54 3.95-5.13-1.05 1.11-3.04 1.89-3.03 3.64 2.52 1.28 5.34 1.73 8.08 2.28-2.71-.26-5.42-.47-8.13-.77.55 2.08 1.09 4.16 1.61 6.25l6.09-1.23c-.45 1.45-.91 2.9-1.36 4.36.92-.12 2.74-.35 3.65-.46-2.17 1.13-4.66.94-7.02.94 1.41-1.34 2.85-2.64 4.28-3.95-2.17.42-4.35.83-6.53 1.24-.33-2.06-.69-4.12-1.08-6.17-.81 2-1.23 4.13-1.81 6.21-.16-.93-.32-1.86-.47-2.79.02-.72.04-2.16.05-2.88.43-.39 1.29-1.16 1.72-1.54z"/>
    <path fill="#b22b2c" d="M55.22 30.58c1.65 1.13 3.24 2.38 4.34 4.08.15.93.31 1.86.47 2.79.58-2.08 1-4.21 1.81-6.21.39 2.05.75 4.11 1.08 6.17 2.18-.41 4.36-.82 6.53-1.24-1.43 1.31-2.87 2.61-4.28 3.95 2.36 0 4.85.19 7.02-.94 2.24-1.08 4.32-2.46 6.57-3.53-1.7 3.01-4.48 5.1-7.46 6.72 5.12 2.77 7.53 8.24 10.5 12.92-.15.42-.46 1.26-.62 1.68 1.09 2.71 1.96 5.59 1.3 8.52l-.32 1.49c-.5 2.18-.58 4.41-.64 6.63-.13 1.39-.32 2.78-.56 4.16-.54-1.76-1.16-3.49-1.81-5.22-.1 2.62-.08 5.24-.1 7.86-.47 3.89.01 8.17-2.05 11.67-.43.14-1.28.43-1.7.57.19 1.44.39 2.87.58 4.31-.63-.22-1.9-.68-2.53-.91-.31 4.21-.16 8.45.94 12.55-2.56-.54-1.89-3.91-2.85-5.77-.84 5.94 2.09 11.33 4.49 16.51-4.51-2.94-6.3-8.29-7.64-13.22.01 2.28.03 4.56-.1 6.85-3.46-4.52-2.76-10.74-1.7-15.97.28-.87.57-1.73.87-2.59 2.38-5.02 5.09-9.88 7-15.1-1.14 1.39-2.22 2.82-3.29 4.27.68-2.48 1.11-5.03 1.22-7.6-1.37 1.97-2.35 4.16-3.23 6.38-.3-5.13 2.04-9.92 1.88-15.03-1.36 3.29-2.31 6.74-3.99 9.9.91-6.49.41-13.06 1.06-19.56-.8 1.21-1.62 2.42-2.35 3.68-1.83 3.95-2.45 8.85.36 12.51l-.1.73c-.58-.37-1.75-1.13-2.33-1.5-2.56-4.24-.67-9.16.18-13.59.73-1.75 1.48-3.49 2.24-5.22-2.17.03-4.35-.17-6.32-1.15 2.03-1.03 5.8-1.09 5.93-4.07.73-2.77-1.53-6.58-4.67-5.25-1.3 1.36-.3 2.96.55 4.21-3.28 2.86-3.66 7.34-5.18 11.14-1.1-1.61-3.08-3.02-2.84-5.22.3-4.34-.68-8.82.84-13.03.67-1.99.74-4.62-1.81-5.25l.52-1.76 4.29 2.97c-.69-2.1-1.41-4.19-2.1-6.29m.93 14.68c-1.44 3.06 3.31.01 0 0z"/>
    <path fill="#260909" opacity=".44" d="M79 33.71c1.1.45 1.78 1.27 2.04 2.48-1.65-.03-2.33-.85-2.04-2.48z"/>
    <path fill="#491111" opacity=".74" d="M56.15 45.26c3.31.01-1.44 3.06 0 0z"/>
    <path fill="#872022" opacity=".89" d="M78.45 46.21c.66.15 1.97.45 2.62.6.86.59 1.71 1.19 2.59 1.75.92.25 2.76.76 3.67 1.02-.35.41-1.07 1.23-1.43 1.64-3.58.84-5.4-2.85-7.45-5.01z"/>
    <path fill="#250808" opacity=".48" d="M27.55 70.82c-.66-7.07-1.48-14.65 2.15-21.12.14 1.4.26 2.8.37 4.21-3.2 4.15-2.68 9.72-1.54 14.52.7-1.04 1.39-2.08 2.08-3.13 1.67.31 3.38.6 4.86 1.51-1.51-.4-3.03-.72-4.55-1.05-.5 2.07-.98 4.15-1.45 6.23-1.2-.39-2.41-.78-3.62-1.17-.07.64-.22 1.93-.3 2.57-1-3.13-1.49-6.4-1.05-9.68.96 2.39 1.96 4.77 3.05 7.11z"/>
    <path fill="#280909" opacity=".5" d="M38.44 51.91c1.57.26 3.18.43 4.68 1 .59 1.89.75 3.89 1.04 5.84.48-.2 1.43-.6 1.9-.8-.27 1.76-.48 3.53-.74 5.29-1.56-2.45-2.13-5.28-2.51-8.11-.12-1.38-1.38-2.5-2.79-2.23-1.08.69-1.72 1.71-1.93 3.08 2.12 2.32 3.66 5.06 5.17 7.8-1.8-1.1-3.68-2.12-5.79-2.41.56-.35 1.68-1.05 2.24-1.41-.69-1.28-1.39-2.57-2.09-3.86.28-1.4.55-2.8.82-4.19z"/>
    <path fill="#360c0c" opacity=".66" d="M40.19 54.37c1.34-.89 2.71 1.46 1.61 2.43-1.37.93-2.69-1.46-1.61-2.43z"/>
    <path fill="#370c0d" opacity=".56" d="M47.02 57.52c1.19 3.31 2.52 6.56 3.68 9.88l-.28 2.64c.75 2.65 1.08 5.39 1.49 8.11-.52-1.62-.9-3.29-1.28-4.94-.33.09-1.01.28-1.35.37-.2-.59-.61-1.78-.81-2.38-1.18-2.07-.06-4.42.23-6.55-.7.55-2.09 1.67-2.79 2.22 1.81-2.85 2.1-6.14 1.11-9.35z"/>
    <path fill="#2c0a0a" opacity=".56" d="M65.66 61.35c.73-1.26 1.55-2.47 2.35-3.68-.65 6.5-.15 13.07-1.06 19.56 1.68-3.16 2.63-6.61 3.99-9.9.16 5.11-2.18 9.9-1.88 15.03.88-2.22 1.86-4.41 3.23-6.38-.11 2.57-.54 5.12-1.22 7.6 1.07-1.45 2.15-2.88 3.29-4.27-1.91 5.22-4.62 10.08-7 15.1-.28-.57-.85-1.71-1.13-2.28.73-2.16 1.72-4.21 2.79-6.22.61-1.22 1.1-2.47 1.48-3.78-1.22.59-2.41 1.23-3.58 1.9-1.02-.52-2.03-1.03-3.05-1.54 1.19.11 2.37.21 3.56.3l1.47-5.58-3.48 1c.18-1.2.35-2.41.5-3.62l.1-.73c.73-4.06 1.89-8.73-.36-12.51z"/>
    <path fill="#1a0606" opacity=".42" d="M61.11 67.81c.54-2.87 1.37-5.68 2.66-8.31-.85 4.43-2.74 9.35-.18 13.59-1.63 2.7-.76 5.93-.73 8.88l-.56-.39c-.62-4.72-2.31-9.24-2.53-14.01-.38.36-1.12 1.08-1.5 1.44 0-1.23-.03-2.46-.07-3.68.97.83 1.94 1.65 2.91 2.48z"/>
    <path fill="#340c0c" opacity=".62" d="M40.35 65.07c1.24.94 2.53 1.81 3.81 2.69-1.37.12-2.74.26-4.11.42.08-.78.22-2.33.3-3.11z"/>
    <path fill="#360c0c" opacity=".64" d="M87.14 65.47c1.61-1.84 4.21.61 2.33 2.28-.84-.69-1.62-1.45-2.33-2.28z"/>
    <path fill="#370d0e" opacity=".65" d="M56.09 66.14c3.3.17-1.54 3.01 0 0z"/>
    <path fill="#280909" opacity=".52" d="M37.33 67.79c.2 1.66.4 3.31.61 4.97 1.4-.79 2.81-1.58 4.23-2.36l-2.76-1.52c1.96.42 3.91.85 5.86 1.3-.61.81-1.22 1.63-1.83 2.44 1.24.49 2.48.98 3.71 1.49-.26.42-.8 1.25-1.06 1.67-.68-.74-1.36-1.48-2.03-2.23-.99-.22-1.98-.43-2.97-.65.45 2.19.92 4.37 1.4 6.55.78-.04 2.32-.13 3.09-.17.53 2.32.93 4.68 1.13 7.06-.04.58-.1 1.76-.14 2.35-1.39-2.56-1.47-5.53-1.9-8.33-.98 1.55-2.18 2.93-3.42 4.28.86-4.34-.01-8.69-1.16-12.88-1.46 2.68-.98 5.79-1.2 8.7-.78-2.21-1.51-4.43-2.24-6.65.24-2.01.46-4.01.68-6.02z"/>
    <path fill="#290a0a" opacity=".54" d="M35.44 73.46c-2.18-.33-4.57-3.27-2.48-5.08 2.31.68 2.28 3.13 2.48 5.08z"/>
    <path fill="#3e0e0e" opacity=".7" d="M79.15 72.55c.65 1.73 1.27 3.46 1.81 5.22.35 1.42-.94 1.99-1.91 2.64.02-2.62 0-5.24.1-7.86z"/>
    <path fill="#3b0e0e" opacity=".64" d="M82.04 75.14c.91-.78 1.94-1.38 3.08-1.79.35 1.5-.28 2.85-1.56 3.67l-1.52-1.88z"/>
    <path fill="#280909" opacity=".51" d="M94.17 77.19c-.65-1.67-.07-2.42 1.74-2.27-.27 1-.85 1.76-1.74 2.27z"/>
    <path fill="#1d0607" opacity=".49" d="M32.16 78.41c1.13-.55 2.2-.41 3.2.42l.76 2.19c-1.87.38-3.1-1.21-3.96-2.61z"/>
    <path fill="#130504" opacity=".45" d="M50.06 80.74c.27.55.8 1.67 1.06 2.22-.26-.55-.79-1.67-1.06-2.22z"/>
    <path fill="#170505" opacity=".36" d="M52.85 80.93c1.77-.34 2.92 1.76 2.04 3.21-1.07-.77-1.71-1.96-2.04-3.21z"/>
    <path fill="#010000" opacity=".07" d="M33.9 85.21h3.75c.31.82.63 1.64.95 2.46-1.19.71-2.38 1.42-3.57 2.14 2.28.25 4.56.47 6.84.7-.15.63-.46 1.88-.62 2.51 3.37.91 6.64 2.12 9.87 3.43l-4.24.72-1.03-.08c-3.72-3.31-8.74-5.28-13.75-4.26 1.87-1.77 3.39-3.87 4.76-6.04-.98-.53-1.97-1.06-2.96-1.58z"/>
    <path fill="#1a0606" opacity=".4" d="M55.66 88.51c1.82.12 3.62.33 5.4.71-1.56 1.89-4.34 1.42-5.4-.71z"/>
    <path fill="#140504" opacity=".38" d="M19.9 92.05c-.18-1.83.59-2.39 2.33-1.68-.6.8-1.38 1.36-2.33 1.68z"/>
    <path fill="#140404" opacity=".44" d="M29.36 93.31l.98-.46.79.47c-.48.22-1.44.67-1.91.89l.14-.9z"/>
    <path fill="#b52829" d="M31.13 93.32l.97-.49c5.01-1.02 10.03.95 13.75 4.26.76.76 2.26 2.28 3.01 3.04-.93-.41-2.81-1.23-3.74-1.65-1-.49-1.94-1.07-2.92-1.59-2.23-1.24-4.89-2.59-7.39-1.2-.47.29-1.4.86-1.87 1.14-2.63 1.87-3.62 5.24-2.45 8.24.42.32 1.27.95 1.69 1.26-.5.27-1.5.81-2.01 1.08-1.28-1.07-2.43-2.28-3.47-3.58l.15-1.24c.19-1.4.2-2.82.22-4.23.12-1.61 1.22-2.91 2.15-4.15.47-.22 1.43-.67 1.91-.89z"/>
    <path fill="#330b0c" opacity=".56" d="M34.81 95.69c2.5-1.39 5.16-.04 7.39 1.2-2.46-.42-4.93-.79-7.39-1.2z"/>
    <path fill="#130405" opacity=".4" d="M30.49 105.07c-1.17-3-.18-6.37 2.45-8.24-1.34 2.57-2.11 5.37-2.45 8.24z"/>
    <path fill="#1a0607" opacity=".43" d="M50.64 99.21c3.69-.09 7.36-.74 10.86-1.89-3.08 2.31-7.17 2.97-10.86 1.89z"/>
    <path fill="#320b0c" opacity=".54" d="M26.85 102.59c-1.89-.02-1.74-4.42.22-4.23-.02 1.41-.03 2.83-.22 4.23z"/>
    <path fill="#2e0a0b" opacity=".52" d="M50.1 112.05c-5.39 1.79-9.3-5.62-5.59-9.48-.85 2.89-1.16 6.22 1.5 8.32-.55-2.97.16-5.59 2.89-7 3.06.75 6.2 1.19 9.35 1.27-3.34 1.5-7.19-1.05-10.39.6-2.82 2.36.51 4.63 2.24 6.29z"/>
    <path fill="#150405" opacity=".4" d="M16 104.96c.94.35 1.68.95 2.21 1.81-1.74.61-2.47.01-2.21-1.81z"/>
    <path fill="#2e0b0b" opacity=".48" d="M92.8 105.3l.42-.41c1.4.35 2.34 2.36 1.55 3.61-1.45.35-2.54-2.01-1.97-3.2z"/>
    <path fill="#300b0d" opacity=".53" d="M32.18 106.33c2.77.79-1.63 3.51-2.01 1.08.51-.27 1.51-.81 2.01-1.08z"/>
    <path fill="#2e0a0a" opacity=".53" d="M100.31 109.4l.85-.7.89.28-1.64 1.36-.1-.94z"/>
</svg>
