<svg width="128pt" height="128pt" viewBox="0 0 128 128" xmlns="http://www.w3.org/2000/svg">
    <g fill="#fff">
        <path d="M54.99 30.56c2.93 1.12 4.56 3.65 5.27 6.6.34-2.3.87-4.56 1.43-6.82.9 2.26 1.03 4.7 1.31 7.09 2.36-.49 4.69-1.07 7.02-1.68-1.4 1.57-2.96 2.97-4.63 4.25 5.07 1.22 9.22-2.04 13.29-4.43-1.6 3.14-4.58 5.14-7.65 6.68 5.93 3.44 8.29 10.15 12.38 15.27l-3.66-2.85c1.6 3.4 3.76 7.01 2.72 10.92l-.81-.33c.25 4.85-.42 9.69-1.42 14.42-.33-2.36-.23-4.8-.95-7.1-.16 3.17.41 6.36-.4 9.48-.78 3.94.14 9.08-3.66 11.69.01 2.43 2.14 3.93 2.72 6.14 1.25 3.97 2.72 8.33 6.4 10.7 4.05 2.21 9.2 3.92 13.51 1.4 4.34-2.49 8.55-6.73 8.74-12.01-.03-1.88-.89-5.75-3.39-3.74-.2 1.5.01 3.02.02 4.53-1.78-1.89-3.35-4.68-1.73-7.18 1.21-3.77 6.57-3.35 8.18-.18 1.73 3.58 1.02 7.77.08 11.47-3.27 9.28-15.02 15.29-24.16 10.64-6.92-2.98-9.04-11.16-8.93-18.04-.44.04-1.33.12-1.77.17-.25-1.12-.77-3.35-1.02-4.47-1.04 4.73-1.22 9.77.2 14.44l-.75 1.18c-.76-2.13-1.42-4.29-2.2-6.4-.63 6.06 2.14 11.62 4.73 16.89-4.8-3.71-6.98-9.83-7.93-15.62-.42 3.16.22 6.32.26 9.49-3.43-4.53-1.66-10.26-2.67-15.37-1.81 2.53-3.67 5.3-6.52 6.74-3.56 1.63-7.36-.6-11.03-.02-3.71 2.25-1.1 6.36 1.9 7.67-4.72.31-8.34-5.65-4.94-9.31 2.43-2.92 6.29-1.05 9.21-.12 4.65 1.62 8.12-3.03 11.52-5.35l-1.44-.47 2.32.56c1.64-6.43 5.47-11.97 7.82-18.12-1.46 1.81-2.62 3.84-4.23 5.54 1.02-2.93 2.35-5.88 2.04-9.06-1.87 2.62-1.83 6.69-5.25 8-1.89 3.04-5.26 5.62-8.99 5.45-6.46-2.59-7.12-11.01-12.98-14.34l2.63-.6c-1.93-.95-3.94-1.73-5.93-2.53 1.1-.2 3.28-.6 4.37-.8-2.32-.99-4.69-1.85-7.04-2.76 1.61-.51 3.3-.67 4.98-.84-1.15-.62-2.29-1.22-3.44-1.83-.66-1.57-1.7-2.89-3.09-3.9 2.31-1.18 3.94.95 5.74 2.03-1.55-2.66-3.01-5.37-5.05-7.68.35-1.38.89-2.69 1.41-4.01 1.31.75 2.59 1.55 3.77 2.51-.62 3.11.73 5.97 1.83 8.8.46-2.08.39-4.28 1.45-6.19 1.32 3.29 2.17 7.11-.75 10.09l4.04-4.42c-1.06 2.75-1.92 5.58-2.29 8.52 1.05-1.7 2.08-3.42 3.09-5.14-.65 2.68-1.23 5.38-1.75 8.09l2.21-3.16c-.94 5.51 1.58 11.4 5.72 15.02 2.28 2.25 5.34.5 7.87-.18-.58-.6-1.15-1.19-1.73-1.78-1.86-1.47-3.4-3.62-5.91-3.97.22-.38.67-1.13.89-1.51l-1.76-.66c.17-.4.5-1.21.67-1.61-.6-.37-1.81-1.12-2.42-1.49l2.77-.48c-1.45-1.83-2.98-3.61-4.28-5.56.9.43 2.71 1.27 3.62 1.7l-2.36-3.12c-.23-1.6.79-2.96 1.51-4.29 1.24 1.41 3.18 2.52 2.83 4.72.36-.13 1.08-.38 1.43-.51.11 1.91.17 3.83.2 5.75l1.5-1.25c-.26 1.99-.34 3.99-.45 5.99l1.22-.6c-.15 1.63-1.4 3.78.48 4.9 1.31 1.51 3.6.12 5.29.3.81-2.52 1.18-5.18.29-7.74-.76 1.46-1.79 2.71-3.08 3.74.28-1.45 1.95-3.09 1.38-4.48-3.92.4-5.05-3.97-4.59-7.07.72-4.79 2.28-9.47 4.55-13.74-2.32.94-4.91 1.45-6.93-.42l3.16-.48c.56-.33 1.69-1 2.25-1.34.77-2.33 1.05-5.51-1.39-6.97-1.4-1.56-3.08.04-4.17 1.03.38 1.07.97 2.04 1.78 2.89-1.83 1.66-3.27 3.7-3.65 6.2-.45 1.61-.9 3.22-1.38 4.82-3.14-2.33-3.55-6.37-2.4-9.88-.36-1.95-1.34-4.01-.25-5.9 1.34-2.77 2.07-7.18-1.88-8.07.61-.4 1.23-.79 1.85-1.19 1.18 1.04 2.33 2.11 3.49 3.17-.42-2.28-1.36-4.4-2.26-6.52m1.17 14.66c-1.58 3.03 3.3.18 0 0m-16.03 9.22c-1.14.99.32 3.22 1.65 2.27 1.22-.96-.36-3.21-1.65-2.27m24 16.35c.44 1.15 1.18 3.26 2.73 2.08 1.46-4.87-.26-10.28 1.01-15.31-2.45 3.87-5.02 8.48-3.74 13.23M56 66.09c-1.42 3.01 3.31.03 0 0m14.65.81c-.61 2.27-1.18 4.55-1.91 6.78.38.75.77 1.5 1.17 2.25.49-2.99.92-6 .74-9.03m5.29 25.17c.93-2.69 1.07-5.56.91-8.37-.86 2.66-1.96 5.59-.91 8.37z"/>
        <path d="M29.39 71.78c.61-1.86.41-4.05 1.59-5.69 2.09-.13 4.15.61 5.85 1.79.14 1.04.41 3.13.55 4.18-.5.19-1.5.59-2 .78.1-2.14-.92-3.8-2.89-4.67.02 1.38.13 2.75.29 4.13 1.44.43 2.96.73 4.22 1.6.82 2.17 1.05 4.51 1.84 6.69.65-3.32-.65-6.89 1.45-9.89.29 4.61 2.59 9.16.83 13.73 2.66-.66 2.4-4.22 4.13-5.91.23 3.36-.1 6.79.81 10.08.79-2.19 1.42-4.47 2.84-6.37.43 4.39-.21 9.63 3.83 12.62-.55-1.62-1.65-4.87-2.2-6.5 2.35 3.32 6.34 7.74 10.92 5.97 3.61-2.38 5.66-6.36 8.47-9.54-1.87 3.21-3.08 6.81-5.3 9.8-4.44 4.37-12.12 6.12-17.6 2.7 1.05-.19 3.14-.58 4.19-.77-3.31-1.52-6.71-2.9-10.29-3.63.56-.46 1.67-1.38 2.22-1.84-2.58-1.05-5.41-.96-8.12-1.31 1.32-.87 2.73-1.59 4.14-2.31-.38-.19-1.13-.59-1.51-.79l1.03-1.79c-1.73.07-3.73.8-5.19-.54-1.17-1.39-1.59-3.24-2.37-4.86-1.08-.46-2.16-.92-3.23-1.39 1.09-.29 2.59-2.08 3.5-.55 1.6 1.43 2.62 3.68 5.05 3.68-.75-1.48-1.44-2.99-2.11-4.51-.78-2.31-3.3-3.28-4.94-4.89zM15.75 96.82c3.63-5.9 11.15-10.54 18.1-7.62-2.98.08-6.07.19-8.75 1.65-4.31 1.68-6.57 6.69-5.91 11.11 1.06 3.43 4.39 5.23 7.1 7.2-4.03-.05-8.36-1.52-10.67-5.01-1.54-2.19-.95-5.08.13-7.33z"/>
        <path d="M27.56 96.81c1.66-4.04 6.58-4.59 10.34-3.85 4.25 1.08 7.93 3.84 10.78 7.1-3.9-1.55-7.34-4.51-11.66-4.81-3.45.16-6.84 3.12-6.91 6.68-.52 2.53 1.76 4.28 2.82 6.28-5.26-.67-8.11-6.96-5.37-11.4z"/>
    </g>
    <path fill="#797979" opacity=".48" d="M56.16 45.22c3.3.18-1.58 3.03 0 0z"/>
</svg>
