<svg width="128pt" height="128pt" viewBox="0 0 128 128" xmlns="http://www.w3.org/2000/svg">
    <path d="M41.51 12.19c1.28 1.35 2.5 2.76 3.68 4.21l.52-3.06c2.44 4.79-.99 9.29-2.89 13.55-.46 2.98-.98 6.24.41 9.06.97 2.44 3.5 4.13 3.67 6.89-.51 1.87-2.08.63-3.26.27-.06-3.11-2.56-5.09-3.91-7.63-.11-2.89-1.01-5.56-2.38-8.08 1 .46 2 .91 3 1.36.65-3.6-2.73-5.54-4.58-8.02 2.02.66 3.93 1.62 5.86 2.52.92-3.37-1.9-5.82-3.33-8.53 1.73 1.26 3.35 2.68 5.01 4.04-.45-2.23-1.15-4.4-1.8-6.58zm41.28 4.4c1.13-1.56 2.37-3.02 3.7-4.41-.65 2.22-1.37 4.43-1.93 6.68 1.71-1.38 3.36-2.83 5.15-4.12-1.46 2.7-4.23 5.15-3.36 8.52 1.94-.89 3.85-1.86 5.88-2.53-1.85 2.49-5.24 4.44-4.57 8.03.99-.45 1.99-.91 2.98-1.37-.75 1.86-1.99 3.61-2.06 5.69.34 4.02-4.31 6.02-4.22 10.03-.79.31-1.59.59-2.39.85-2.03-1.62.32-4.07 1.34-5.6 2.75-3.19 2.68-7.64 1.85-11.52-1.79-4.18-5.4-8.64-2.83-13.29l.46 3.04zm-58.4 34.15c2.49-3.88 7.39-5.56 11.67-6.46.11 1.01.2 2.03.26 3.05-3.28 1.8-6.22 4.15-9.42 6.09-2.46-.71-4.09 1.04-5.3 2.9-2.59 1.32-2.23 4.39-2.7 6.83-.43-3.07.37-6.07.71-9.1C21.24 53 23 52.1 24.39 50.74zm17.27 2.3c-2.02-2.66-5.3-4.87-5.13-8.57 2.71.22 4.95 1.84 7.37 2.89-.71 1.91-1.45 3.8-2.24 5.68zm42.41-5.65c2.43-1.08 4.68-2.7 7.4-2.92.17 3.64-3.05 5.84-4.97 8.51-.98-1.79-1.69-3.7-2.43-5.59zm7.61-.06c.06-1.02.15-2.04.26-3.05 4.28.9 9.18 2.58 11.67 6.45 1.39 1.38 3.15 2.26 4.78 3.31.36 3.02 1.12 6.01.72 9.07-.47-2.43-.16-5.49-2.72-6.8-1.21-1.85-2.84-3.59-5.28-2.89-3.21-1.94-6.15-4.29-9.43-6.09zm-73.1 30.23c3.63-6.83 8.28-13.09 12.99-19.2 2.62 2.1 5.85 2.82 9.04 3.58.39 3.34.12 6.76-1.57 9.73-3.9-1.97-6.66-5.38-9.74-8.36-3.31 7.25-6.53 14.55-9.54 21.93-.12 3.01-.4 6.02-.26 9.03 1.54 2.72 3.62 5.07 5.23 7.74l-.74.28c-1.89.55-2.03-1.76-2.89-2.85-.08.71-.24 2.11-.33 2.81-.96-1.08-1.91-2.18-2.87-3.25.52-.86 1.09-2.03-.52-1.76l.11-2.21c-.43.07-1.3.2-1.73.27-1.81-6.1.67-12.1 2.82-17.74zm74.16-16.88c1.21-.8 2.43-1.59 3.65-2.37 7.02 9.27 14.78 18.84 16.49 30.71.06 2.11-.3 4.19-.63 6.26l-1.74-.24.11 2.19c-1.62-.26-1.04.91-.52 1.77-.98 1.08-1.92 2.19-2.9 3.27-.06-.68-.17-2.03-.23-2.71-.84 1.22-1.71 2.42-2.65 3.57-.01 3.44.33 6.87.18 10.31-.82-4.01-2.23-8.13-.87-12.19 1.74-2.24 3.42-4.54 4.87-6.99.15-3.01-.15-6.01-.26-9.02-3.01-7.38-6.23-14.68-9.54-21.93-3.07 2.98-5.84 6.39-9.73 8.36-1.54-2.87-2.17-6.19-1.51-9.4 1.57-1.03 3.39-1.69 5.28-1.59zm-68.58 42.56l1.08-.28c-.24 3.55-.92 7.06-1.82 10.5.23-3.38-.31-6.98.74-10.22z" fill="#fff"/>
</svg>
