<svg width="128pt" height="128pt" viewBox="0 0 128 128" xmlns="http://www.w3.org/2000/svg">
    <path fill="#1b0606" opacity=".37" d="M41.41 12.23c2.21 1.13 6.26 1.54 5.72 4.9-1.99-1.26-3.77-2.82-5.38-4.54.57 2.06 1.09 4.13 1.57 6.21-1.43-1.12-2.86-2.25-4.29-3.38l.3 1.34.2 1.04c-.58-1.04-1.14-2.08-1.68-3.13.95.29 2.85.87 3.8 1.15l-.24-3.59z"/>
    <path fill="#1a0505" opacity=".38" d="M81 15.13c1.49-1.45 3.56-2.33 5.58-2.7.44 1.27.85 2.54 1.24 3.82-1.02.85-2.03 1.71-3.04 2.58.33-1.82.78-3.64.89-5.48-.72.6-1.43 1.23-2.17 1.8-2.72.41-1.93 3.21-1.76 5.06-.41-1.63-1.55-3.42-.74-5.08z"/>
    <path d="M41.75 12.59c1.61 1.72 3.39 3.28 5.38 4.54-.92 2.67-2 5.28-3.42 7.73-2 3.71-2.31 8.59.15 12.17.27.45.83 1.33 1.11 1.77.51 1.03 1 2.07 1.48 3.12-.13.59-.39 1.75-.52 2.33-.4-.34-1.21-1.02-1.62-1.36-.05-1.46-.38-3.05-1.73-3.86-.42-.38-1.26-1.15-1.69-1.53-1.01-3.24-1.81-6.56-3.09-9.72.66.28 1.98.82 2.65 1.09-.03-1.41-.26-2.82-.93-4.08-.55-.52-1.63-1.57-2.18-2.09.29-.2.87-.58 1.16-.77l1.63.63c1.71 1.37 2.83-1.23 1.42-2.34-.56-.87-1.67-2.6-2.22-3.46l-.3-1.34c1.43 1.13 2.86 2.26 4.29 3.38-.48-2.08-1-4.15-1.57-6.21zm.74 46.37c-.12-7.03 3.01-14.61 9.27-18.22.54 2.19 1.06 4.39 1.52 6.6-2.21 1.49-4.02 3.45-3.93 6.29l-2.37-1.11c.29 1.76.59 3.52.89 5.27-.27.3-.82.9-1.09 1.2-1.07-.01-3.21-.03-4.29-.03zM30.73 45.8c1.81-.41 3.64-.73 5.48-.93-.84 1.36-1.7 2.73-2.61 4.05-1.99 1.85-4.41 3.16-6.72 4.56-3.79-.52-5.46 3.74-8.11 5.63.27-1.7.54-3.39.77-5.09 4.52-1.81 6.36-6.97 11.19-8.22zm10.9 15.83c1.61-.64 3.36-.6 5.05-.72.02 3.46-.04 6.92.03 10.39-1.47 1.63-2.92 3.28-4.36 4.94-.52-4.86-.11-9.76-.72-14.61z" fill="#a52021"/>
    <path fill="#ad2729" d="M83.5 15.15c.74-.57 1.45-1.2 2.17-1.8-.11 1.84-.56 3.66-.89 5.48 1.01-.87 2.02-1.73 3.04-2.58.45-.36 1.36-1.09 1.81-1.46-1 1.85-2.07 3.66-3.18 5.43-1.38 1.15-.21 3.7 1.48 2.32l1.56-.61c.29.18.88.54 1.17.72-.49.57-1.48 1.71-1.98 2.28-.53.64-1.07 1.29-1.59 1.95.25.45.74 1.37.99 1.83.54-.25 1.6-.74 2.14-.98-1.13 2.73-1.86 5.59-2.47 8.47-.79 1.54-1.75 3-2.7 4.46-.99 1.25-2.08 2.43-3.2 3.57-.08-2.01.27-4 1.32-5.74.26-.4.77-1.2 1.03-1.6 2.4-3.56 1.98-8.3.12-12-.82-1.58-1.78-3.09-2.58-4.68-.17-1.85-.96-4.65 1.76-5.06z"/>
    <path fill="#180405" opacity=".49" d="M41.55 20.22c1.41 1.11.29 3.71-1.42 2.34.35-.59 1.06-1.76 1.42-2.34z"/>
    <path fill="#1e0608" opacity=".49" d="M87.93 22.54c-1.69 1.38-2.86-1.17-1.48-2.32l1.48 2.32z"/>
    <path fill="#521312" opacity=".73" d="M37.34 22.7c-3.49-.06.85-4.12 1.16-.77-.29.19-.87.57-1.16.77z"/>
    <path fill="#5a1416" opacity=".73" d="M89.49 21.93c.3-3.35 4.71.68 1.17.72-.29-.18-.88-.54-1.17-.72z"/>
    <path fill="#240606" opacity=".45" d="M39.52 24.79c.67 1.26.9 2.67.93 4.08-.67-.27-1.99-.81-2.65-1.09 1.28 3.16 2.08 6.48 3.09 9.72-.48-.39-1.45-1.17-1.93-1.56-.03-2.94-.66-5.81-1.85-8.49.63.03 1.89.1 2.52.13-.03-.69-.08-2.09-.11-2.79z"/>
    <path fill="#1f0505" opacity=".39" d="M43.86 37.03c-2.46-3.58-2.15-8.46-.15-12.17-.66 4.03-.69 8.16.15 12.17z"/>
    <path fill="#220707" opacity=".39" d="M84.32 24.89c1.86 3.7 2.28 8.44-.12 12 .78-3.96.74-8.02.12-12z"/>
    <path fill="#280809" opacity=".45" d="M87.09 26.88c.52-.66 1.06-1.31 1.59-1.95-.09.67-.29 2.02-.38 2.69.64-.04 1.93-.14 2.58-.18-1.82 2.64-.61 6.78-3.13 8.76.61-2.88 1.34-5.74 2.47-8.47-.54.24-1.6.73-2.14.98-.25-.46-.74-1.38-.99-1.83z"/>
    <g fill="#b52829">
        <path d="M57.25 28.9c2.28-.37 4.48-1.22 6.79-1.41 2.28.23 4.45 1.04 6.71 1.41.75.71 1.49 1.44 2.21 2.19 2.1 2.16 2.9 5.09 3.47 7.97-4.07-1.54-8.03-3.73-12.44-4.08-4.39.34-8.33 2.53-12.4 4.03.59-2.87 1.4-5.8 3.5-7.97.7-.73 1.42-1.45 2.16-2.14z"/>
        <path d="M51.76 40.74c7.15-4.97 16.74-4.78 24.13-.41l.12.48c1.59 5.81 3.09 11.66 3.88 17.65-1.09.47-2.18.93-3.27 1.39-5.02 1.04-9.11 5.86-14.38 4.95-4.91-2.63-9.95-5.22-15.62-5.65l.16-.16c.27-.3.82-.9 1.09-1.2-.3-1.75-.6-3.51-.89-5.27l2.37 1.11c-.09-2.84 1.72-4.8 3.93-6.29-.46-2.21-.98-4.41-1.52-6.6zM20.89 73.47c1.81-2.39 4.05-4.42 6.55-6.06-2.37 6.15-5.41 12.02-7.67 18.22-.13 2.89-.26 5.77-.2 8.66 1.94 3.51 5.5 6.35 5.7 10.62-.44 2.82-1.06 5.62-1.56 8.43-.23-1.87-.33-3.77-.13-5.65.29-2.81-.29-5.47-2.04-7.72-.29.53-.86 1.58-1.15 2.1-1.44-1.86-3.71-3.61-3.13-6.27-3-1.27-2.01-5.22-2.06-7.79 1.2-5.05 2.63-10.27 5.69-14.54zm21.46 2.77c1.44-1.66 2.89-3.31 4.36-4.94.31 7.58.99 15.15 1.42 22.73.24 5.12 1.69 10.05 3.35 14.87-.56-.54-1.69-1.6-2.25-2.13-.73-.83-1.38-1.73-1.93-2.68-4.2-8.68-3.62-18.53-4.95-27.85z"/>
    </g>
    <path fill="#3f0d0e" opacity=".59" d="M50.64 40.71c.65-3.53.83-7.81 4.45-9.67-2.1 2.17-2.91 5.1-3.5 7.97 4.07-1.5 8.01-3.69 12.4-4.03 4.41.35 8.37 2.54 12.44 4.08-.57-2.88-1.37-5.81-3.47-7.97 3.58 1.85 3.75 6.1 4.38 9.59.75.68 2.26 2.03 3.01 2.7.41-1.92 1.14-3.75 2.82-4.89-1.05 1.74-1.4 3.73-1.32 5.74 1.12-1.14 2.21-2.32 3.2-3.57 1.04 2.86-2.3 3.2-4.06 4.25.75.5 2.27 1.5 3.03 2 3.39-1.48 7.36-4 11.07-2.13-3.64-.16-7.23.62-10.37 2.5.55 1.91 1.13 3.82 1.57 5.77.05 2.35.59 5.3-1.71 6.81 1.14.41 2.18 1.03 3.1 1.84-.11 2.89.22 5.77.79 8.61.37.26 1.13.79 1.51 1.05l.89.63c-1.57-.5-3-1.32-4.2-2.46-.25 7.86-1.16 15.68-2.12 23.48-.66 3.8-1.15 8.04-3.82 11.02 3.36-6.87 3.56-14.61 4.31-22.07.66-6.85 1.49-13.8.66-20.66-1.43-.23-2.87-.38-4.32-.43.28 9.26-.87 18.47-1.17 27.71-.08 6.27-1.2 12.45-2.92 18.46-.01.42-.01 1.26-.02 1.68v.35c-1.35.21-2.7.43-4.04.67 4.52-5.17 5.9-12.17 6.32-18.82.57-9.79 1.5-19.6.69-29.4-2.86.68-5.69 1.46-8.47 2.38.12 14.76.19 29.65-2.47 44.22 1.99-14.44 2.23-29.07 1.73-43.62-2.57 1.04-5.12 2.76-8.01 2.41-2.18-.47-4.13-1.63-6.12-2.58 0 5.57-.11 11.13-.21 16.7-.19 7.46 1.04 14.86.94 22.32-1.18-13.12-1.62-26.29-1.48-39.46-2.76-.91-5.56-1.67-8.39-2.32-.75 10.45-.17 20.93.82 31.34.48 6.06 2.23 12.21 6.22 16.93-2.12-.53-4.82-.56-5.57-3.07.56.53 1.69 1.59 2.25 2.13-1.66-4.82-3.11-9.75-3.35-14.87-.43-7.58-1.11-15.15-1.42-22.73-.07-3.47-.01-6.93-.03-10.39-1.69.12-3.44.08-5.05.72.61 4.85.2 9.75.72 14.61 1.33 9.32.75 19.17 4.95 27.85-2.14-2.23-2.71-5.41-3.41-8.31-1.29-8.7-2.22-17.46-2.58-26.25-1.18 1.11-2.56 1.93-4.09 2.45l.73-.54c.4-.28 1.2-.86 1.6-1.14.53-2.63.83-5.29.86-7.97-1.83-.61-3.65-1.23-5.45-1.88 1.88-.18 3.71.24 5.45.94.63-.67 1.26-1.33 1.91-1.97-.35-2.09-.8-4.2-.59-6.32.47-2 1.07-3.97 1.64-5.95-2.28-1.03-4.63-2.03-7.16-2.28-1.84.2-3.67.52-5.48.93 1.14-.63 2.29-1.26 3.44-1.87 1.57.22 3.13.41 4.7.59 2.05 1.1 4.16 2.18 6.53 2.39.13-.66.4-2 .53-2.66.13-.58.39-1.74.52-2.33-.48-1.05-.97-2.09-1.48-3.12 1.6 1.02 2.24 2.78 2.68 4.56.75-.66 2.24-1.99 2.99-2.65m1.12.03c-6.26 3.61-9.39 11.19-9.27 18.22 1.08 0 3.22.02 4.29.03l-.16.16c5.67.43 10.71 3.02 15.62 5.65 5.27.91 9.36-3.91 14.38-4.95 2.95-.39 5.89-.8 8.85-1.04.13-6.93-2.96-14.84-9.46-18l-.12-.48c-7.39-4.37-16.98-4.56-24.13.41z"/>
    <path fill="#5d0d0e" opacity=".82" d="M42.58 39.03c1.35.81 1.68 2.4 1.73 3.86-1.78.48-2.51-2.66-1.73-3.86z"/>
    <path fill="#a72021" d="M76.01 40.81c6.5 3.16 9.59 11.07 9.46 18-2.96.24-5.9.65-8.85 1.04 1.09-.46 2.18-.92 3.27-1.39-.79-5.99-2.29-11.84-3.88-17.65z"/>
    <path fill="#8c1410" d="M36.21 44.87c2.53.25 4.88 1.25 7.16 2.28-.57 1.98-1.17 3.95-1.64 5.95-1.85-1.83-3.5-3.84-5.01-5.96-1.04.6-2.08 1.19-3.12 1.78.91-1.32 1.77-2.69 2.61-4.05z"/>
    <path d="M84.72 47.28c3.14-1.88 6.73-2.66 10.37-2.5 2.86 1.45 6.34 2.35 8.14 5.23 1.27 1.88 3.46 2.79 5.28 4.03.27 2.69.69 5.35.99 8.04-1.01-3.91-3.9-8.37-8.28-8.88-3.65-1.31-6.54-4.1-9.78-6.17-1.62 2.09-3.32 4.11-5.15 6.02-.44-1.95-1.02-3.86-1.57-5.77zm8.62 12.58c.76-.38 2.28-1.13 3.04-1.5 7.34 9 14.73 18.84 16.61 30.61-.02 2.32.39 5.69-2.2 6.82.38 2.67-1.7 4.47-3.17 6.37-.24-.53-.73-1.59-.98-2.12-.73 1.01-1.46 2.03-2.21 3.04.03 1.53.05 3.06.05 4.6.13 1.88.04 3.77-.2 5.64-.44-3.95-2.64-8.07-.66-11.92 1.42-2.49 3.34-4.66 4.81-7.13.05-2.89-.09-5.77-.23-8.65-2.84-7.28-6.04-14.43-9.31-21.51-2.61.84-4.15 3.54-6.25 5.22-.78-2.95-1.01-6.08.47-8.86l.23-.61z" fill="#ad2829"/>
    <path fill="#941818" d="M20.89 73.47c3.08-5.44 6.71-10.58 10.84-15.26 1.08.74 2.15 1.49 3.23 2.24 1.8.65 3.62 1.27 5.45 1.88-.03 2.68-.33 5.34-.86 7.97-.4.28-1.2.86-1.6 1.14-3.06-2.38-5.73-5.21-8.71-7.69l-1.8 3.66c-2.5 1.64-4.74 3.67-6.55 6.06z"/>
    <path fill="#9f1b1e" d="M87.68 61.7c1.77-.56 3.56-1.07 5.43-1.23-1.48 2.78-1.25 5.91-.47 8.86-.66.51-1.99 1.52-2.66 2.03-.38-.26-1.14-.79-1.51-1.05-.57-2.84-.9-5.72-.79-8.61z"/>
    <path fill="#aa2123" d="M81.38 60.87c1.45.05 2.89.2 4.32.43.83 6.86 0 13.81-.66 20.66-.75 7.46-.95 15.2-4.31 22.07-1.03 1.65-2.27 3.15-3.46 4.69.01-.42.01-1.26.02-1.68 1.72-6.01 2.84-12.19 2.92-18.46.3-9.24 1.45-18.45 1.17-27.71z"/>
    <path fill="#b52929" d="M47.76 61.57c2.83.65 5.63 1.41 8.39 2.32-.14 13.17.3 26.34 1.48 39.46.1-7.46-1.13-14.86-.94-22.32.1-5.57.21-11.13.21-16.7 1.99.95 3.94 2.11 6.12 2.58 2.89.35 5.44-1.37 8.01-2.41.5 14.55.26 29.18-1.73 43.62 2.66-14.57 2.59-29.46 2.47-44.22 2.78-.92 5.61-1.7 8.47-2.38.81 9.8-.12 19.61-.69 29.4-.42 6.65-1.8 13.65-6.32 18.82-2.7 2.36-5.67 4.99-9.2 5.83-3.55-.76-6.45-3.48-9.23-5.73-3.99-4.72-5.74-10.87-6.22-16.93-.99-10.41-1.57-20.89-.82-31.34z"/>
</svg>
