<svg width="128pt" height="128pt" viewBox="0 0 128 128" xmlns="http://www.w3.org/2000/svg">
    <g fill="#fff">
        <path d="M74.61 35.62c2.24-.06 4.26.98 6.24 1.86 1.63-.76 3.61-2.15 5.23-.57 5.88 4.05 10 10.1 14.38 15.61 5.52 4.85 4.96 13.99.63 19.44.6-3.5.15-7.25-2.15-10.08-4.57-3.52-10.35-4.68-15.85-5.92-4.68-1.88-9.91-1.53-14.52-3.65 3.38-1.16 7.72 1.29 10.73-1.13 2.06-1.54 1.48-4.46 1.12-6.65-.7-3.7-4.61-5.44-5.81-8.91m10.59 8.4c.44 1.84 1.38 3.5 2.45 5.04-.12-1.97-.64-3.98-2.45-5.04z"/>
        <path d="M62.84 40.68c3.88-1.89 8.33-2.61 12.64-2.23 2.9 2.66 5.75 6.34 4.63 10.55-.09 2.05-2.33 2.83-4.08 2.77-4.8.52-9.72-1.05-14.43.44 2.18.36 4.39.54 6.61.58 4.34 1.03 6.32 5.17 9.59 7.7-3.1 1.64-6.4 2.83-9.88 3.35 2.03-.17 4.05-.44 6.07-.64.33.62.99 1.84 1.32 2.45.87.41 1.74.83 2.6 1.26-1.09 3.04 2.25 5.36 3.34 8.03-1.45 2.05-.87 4.63-1.05 6.97-.28 6.9-.42 13.86-1.95 20.62-.44-.07-1.3-.2-1.73-.26-.31-2.3-.26-4.67-.98-6.89-1.16-4.31-5.17-6.92-7.17-10.78-3.21-6.54-2.77-14.24-6.25-20.68-1.94-3.7-2.99-7.81-3.57-11.92.56-3.95 1.1-8.53 4.29-11.32m7.96 3.16c.53 1.34.69 3.46 2.44 3.81 2.44 1.05 5.21-2.11 3.47-4.32-1.45-2.35-4.49-1.27-5.91.51z"/>
        <path d="M73.56 54.31c6.45 2.21 13.34 2.67 19.72 5.09 2.37.73 3.88 2.85 5.6 4.48-5.22-.42-10.22-2.06-15.3-3.26-4.78 2.71-8.1-2.75-10.02-6.31z"/>
    </g>
</svg>
