<svg width="128pt" height="128pt" viewBox="0 0 128 128" xmlns="http://www.w3.org/2000/svg">
    <path fill="#b22321" d="M52.75 18.77c4.41 3.91 10.84 2.78 15.66 5.94 4.94 3.08 10.11 6.66 12.4 12.26 1.39-.29 2.78-.58 4.18-.86 7.21 4.68 11.78 12.14 17.3 18.51 3.63 5.17 2.14 12.14-.72 17.33.01-3.76-.54-7.62-2.89-10.7-8.03-5.39-18.11-5.65-27.08-8.58 3.37.18 8.58.49 9.48-3.76 1.14-5.18-2.73-9.1-6.03-12.42-4.04 1.16-8.32 1.6-12.14 3.41-3.63 2.3-4.22 7.09-4.83 10.98-.75 5.12 1.64 9.85 3.79 14.3 2.88 5.58 2.09 12.1 4.01 17.95 1.62 4.91 6.45 7.81 8.28 12.6 1.37 3.57 2.12 7.43 1.89 11.26-1.27 1.32-2.83 2.34-4.4 3.27-8.21 1.66-17.39.15-23.97-5.24-1.37-1.09.1-2.75.4-4 2.97-6.23 3.9-13.24 3.25-20.06-2.05-3.66-3.4-7.63-5.07-11.46-1.27-3.18-4.97-5.24-4.1-9.17-.55 1.15-1.64 3.45-2.19 4.6-.22-2.78.25-5.52.9-8.21-.78.28-2.34.83-3.12 1.11.14-3.41 2.94-5.88 4.3-8.79-2.61 2.57-4.42 6.22-7.8 7.94l-4.68 1.24c1.47-2.6 2.94-5.2 4.53-7.72.83-1.25 1.8-2.42 2.86-3.48 2.45-2.31 4.6-4.9 6.53-7.65-3.03 1.88-6.05 3.8-9.24 5.39-3.19 1.59-6.68 2.45-10.16 3.09 3.45-5.02 7.21-10.24 12.89-12.9 3.96-2.81 8.83-3.31 13.47-4.08-6.57-.56-13.17-.91-19.75-.25 4.11-4.41 10.59-5.1 16.29-4.97 5.17.2 10.38.53 15.41 1.82-3.78-1.99-8.56-4.07-9.65-8.7m31.79 24.77c.85 2.21 1.46 5.27 4.35 5.48-.91-2.21-2.03-4.46-4.35-5.48m-1.34 2.04c-.93.64-.85 3.12.58 2.88.93-.64.86-3.12-.58-2.88z"/>
    <path fill="#3e0c0c" opacity=".62" d="M62.91 39.9c3.82-1.81 8.1-2.25 12.14-3.41 3.3 3.32 7.17 7.24 6.03 12.42-.9 4.25-6.11 3.94-9.48 3.76-1.1-.37-2.16-.86-3.25-1.28 3.65-.25 8.39 1.04 11.23-1.83 1.93-4.31-1.85-8.1-4.55-11.01-4.4.48-9.5.31-12.95 3.55-3.01 3.9-3.65 9.33-2.43 14.03 1.07 4.86 4 9.05 5.13 13.89 1.2 4.81 1.75 9.82 3.81 14.38 1.84 2.83 4.24 5.25 5.98 8.13 1.5 2.87 2.2 6.06 3.35 9.07 1.13-4.99 1.55-10.11 1.74-15.22.27-3.88-.33-7.98 1.33-11.62l.45-1.11c-1.88 8.81-.41 17.94-2.38 26.74-.07 1.4-1.43 2-2.33 2.84-.06 1.69 1.03 3.77-.42 5.12-1.21 1.27-3.08 1.41-4.66 1.91 1.57-.93 3.13-1.95 4.4-3.27.23-3.83-.52-7.69-1.89-11.26-1.83-4.79-6.66-7.69-8.28-12.6-1.92-5.85-1.13-12.37-4.01-17.95-2.15-4.45-4.54-9.18-3.79-14.3.61-3.89 1.2-8.68 4.83-10.98z"/>
    <path fill="#bb2424" d="M62.08 42.1c3.45-3.24 8.55-3.07 12.95-3.55 2.7 2.91 6.48 6.7 4.55 11.01-2.84 2.87-7.58 1.58-11.23 1.83-1.73-.14-3.45-.22-5.18-.31-.38.41-1.13 1.22-1.51 1.62 3.04.32 6.24.2 9.08 1.51 2.63 1.48 4.28 4.13 6.19 6.37-3.12 1.38-6.34 2.53-9.61 3.49 1.96-.11 3.91-.23 5.87-.37.87.66 1.75 1.31 2.61 1.97 1.32.68 2.07 1.85 1.87 3.35 1.19 1.86 2.25 3.81 3.32 5.74-1.66 3.64-1.06 7.74-1.33 11.62-1.6-.26-3.19-.53-4.79-.8-.45-1.42-.91-2.85-1.37-4.28-1.64 1.03-3.28 2.06-4.91 3.1-2.06-4.56-2.61-9.57-3.81-14.38-1.13-4.84-4.06-9.03-5.13-13.89-1.22-4.7-.58-10.13 2.43-14.03m9.22 2.94c-.32 3.22 4.98 3.75 5.69.86 1.32-2.08-1.76-3.49-2.99-4.62-1.17 1.04-3.24 1.79-2.7 3.76z"/>
    <path fill="#270807" opacity=".48" d="M34.25 44.76c3.19-1.59 6.21-3.51 9.24-5.39-1.93 2.75-4.08 5.34-6.53 7.65l2.16-3.72c-1.22.37-3.65 1.1-4.87 1.46z"/>
    <path d="M72.23 44.6c1.31.35 2.99.18 4.08.93-.42 2.46-5.51 1.3-4.08-.93zm-3.64 39.8c1.63-1.04 3.27-2.07 4.91-3.1.46 1.43.92 2.86 1.37 4.28 1.6.27 3.19.54 4.79.8-.19 5.11-.61 10.23-1.74 15.22-1.15-3.01-1.85-6.2-3.35-9.07-1.74-2.88-4.14-5.3-5.98-8.13z" fill="#ad2021"/>
    <path fill="#380a0c" opacity=".62" d="M84.54 43.54c2.32 1.02 3.44 3.27 4.35 5.48-2.89-.21-3.5-3.27-4.35-5.48z"/>
    <path fill="#7d1817" opacity=".89" d="M83.2 45.58c1.44-.24 1.51 2.24.58 2.88-1.43.24-1.51-2.24-.58-2.88z"/>
    <path fill="#460c0f" opacity=".63" d="M27.93 59.93c1.1-3.69 3.42-6.8 6.17-9.43-1.59 2.52-3.06 5.12-4.53 7.72l4.68-1.24c-1.94 1.31-4.09 2.26-6.32 2.95z"/>
    <path fill="#340a0a" opacity=".56" d="M63.17 51.08c1.73.09 3.45.17 5.18.31 1.09.42 2.15.91 3.25 1.28 8.97 2.93 19.05 3.19 27.08 8.58l-.4 3.11c-4.22-.91-8.67-1.25-12.58-3.22 4.16.79 8.27 1.82 12.5 2.23-6.53-6.25-16.15-5.74-24.22-8.53 1.32 1.74 2.4 3.78 4.21 5.08 1.79.8 3.82.66 5.73.95.42.06 1.28.2 1.71.26-3.89.53-7.94-.14-11.67 1.28.61 1.09 1.22 2.17 1.84 3.26-.86-.66-1.74-1.31-2.61-1.97-1.96.14-3.91.26-5.87.37 3.27-.96 6.49-2.11 9.61-3.49-1.91-2.24-3.56-4.89-6.19-6.37-2.84-1.31-6.04-1.19-9.08-1.51.38-.4 1.13-1.21 1.51-1.62z"/>
    <path fill="#ba2323" d="M73.98 54.84c8.07 2.79 17.69 2.28 24.22 8.53-4.23-.41-8.34-1.44-12.5-2.23l-.07-.01c-.43-.06-1.29-.2-1.71-.26-1.91-.29-3.94-.15-5.73-.95-1.81-1.3-2.89-3.34-4.21-5.08z"/>
</svg>
