<svg width="128pt" height="128pt" viewBox="0 0 128 128" xmlns="http://www.w3.org/2000/svg">
    <g fill="#fff">
        <path d="M52.74 18.59c1.49.96 2.8 2.36 4.59 2.75 9.71 1.07 19.14 7 23.66 15.74-1.95-.89-3.97-1.67-6.08-2.09-.2 1.32-.38 2.64-.55 3.96-.21-.36-.63-1.08-.84-1.45-4.05 1.21-9.08.71-12.17 4.07-2.09 3.03-2.59 6.83-3.11 10.39-.28 6.27 3.69 11.42 5.6 17.1.82 3.88 1.1 7.84 1.71 11.75.8 3.52 2.76 6.72 5.3 9.26 4.67 4.73 5.75 11.75 5.69 18.12-9.47 5.04-22.13 3.08-29.91-4.16 3.64-6.72 5.53-14.47 4.7-22.11-.05-1.69-1.05-3.15-2.06-4.43-.78-3.38-2.55-6.43-3.93-9.6-.94-1.37-2.03-2.63-3.01-3.97-.09-1.06-.16-2.13-.21-3.2-.59 1.45-1.23 2.88-1.9 4.29-.56-2.84-.15-5.7.8-8.4l-2.63 1.59c-1.38-3.48 2.48-6.12 3.69-9.14-2.02 2.27-3.78 4.82-6.1 6.81-2.43 1.74-5.23 2.89-8.04 3.89 3.77-7.64 9.96-13.62 15.22-20.17-5.37 4.71-12.44 6.69-19.19 8.51 2.04-3.54 4.83-6.56 7.55-9.59 2.13-1.98 4.88-3.09 7.32-4.64 3.26-2.24 7.4-1.81 11.06-2.92-5.63-.47-11.34-1.27-16.96-.36-1.17.02-2.34-.09-3.49-.35 3.44-1.53 6.67-3.77 10.5-4.19 7.01-.91 14.12-.09 21.09.87-3.17-2.19-7.82-3.98-8.3-8.33z"/>
        <path d="M71.81 43.56c.55.59 1.63 1.76 2.18 2.34.94-.46 1.89-.9 2.86-1.33-.76.92-1.21 2.79-2.74 2.45-1.82.26-2.41-2.08-2.3-3.46z"/>
    </g>
</svg>
