<svg width="128pt" height="128pt" viewBox="0 0 128 128" xmlns="http://www.w3.org/2000/svg">
    <path fill="#fff" d="M58.42 24.29c1.32-2.08 2.68-5.09 5.65-4.79 2.55.49 3.76 2.89 5.04 4.85 6.31 1.08 11.85 7.09 10.84 13.72-.01 3.14-3.16 4.7-4.52 7.2-1.24.09-2.48.16-3.72.23-.18-.48-.54-1.42-.72-1.9 1.07.18 2.15.36 3.22.53.45-1.16 1.93-2.64.4-3.65-1.74-1.51-5.11-1.4-6.06.98-1 2.53.91 5.53 3.48 6.16 2.39.85 4.65-.67 6.96-1.07 2.2.09 1.9 3.03 1.13 4.37-1.05 2.3-1.45 5.61 1.06 7.14 1.95 1.6 4.23-.38 5.94-1.39 1.01-2.41.03-4.48-2.38-5.44-.71.76-1.43 1.52-2.15 2.28.4.78 1.22 2.34 1.62 3.13-3.7-.47-4.15-5.74-.16-6.19 1.48-4.45 6.87-3.53 10.47-2.71 4.71 1.3 7.24 6.01 8.46 10.4 2.21 1.14 4.61 3.05 4.04 5.88.59 3.26-4.33 2.93-4.63 5.86-1.45 7.42-10.19 12.08-17.04 8.53-.8-1.64-2.1-2.87-3.75-3.63-1.64-2.42.67-4.1 2.55-5.31-.52 1.28-1.07 2.55-1.65 3.8 1.03.89 2.12 1.73 3.5 1.97 1.47-1.73 2.54-4.13.92-6.15-2.72-1.93-6.95-.34-7.88 2.82-.39 2.24.86 4.28 1.47 6.35-1.25 1.63-2.95 1.93-4.74.95-3.65-1.71-8.98 1.94-7.06 6.04.96 3.28 7.15 2.34 6.46-1.22-.87-2.15-3.08-1.03-4.77-.97.86-1.74 2.59-2.76 4.5-1.98 2.08 2.31 5.08 4.4 5.04 7.85.86 5.79-3.32 11.81-9.02 13.07-2.89.11-3.53 3.27-5.04 5.16-3.35.22-6.37-1.5-7.65-4.62-6.84-.78-12.26-7.5-10.74-14.38.16-3.45 3.42-5.21 5.8-7.14 1.42-.42 2.38.99 3.48 1.6l-4.12.4c-2.36 4.49 4.97 5.64 6.36 1.95.22-2.68-1.13-5.97-4.13-6.33-2.01-.74-3.8 1.11-5.75 1.43-.81-.66-1.6-1.35-2.35-2.06 1.27-2.78 1.76-5.95.21-8.73-1.09-.5-2.19-1-3.29-1.5-1.96.66-4.75 1.64-4.3 4.27-.06 2.42 2.97 3.4 4.72 2.04-.13-1.54-.39-3.06-.55-4.59 2.57 1.51 3.44 5.71-.17 6.46-1.55 4.14-6.67 4.02-10.27 3.23-5.09-1.21-8.11-6.17-8.88-11.05-1.52-.9-3.76-1.22-4.24-3.21-1.3-3.19 1.74-5.74 4.33-6.91.88-3.5 2.34-7.19 5.58-9.15 3.23-2.23 7.44-2.24 11.12-1.35 1.34 1.73 3.03 3.12 4.58 4.64.84 1.63-.38 3.07-1.16 4.4-.32-1.91-.55-3.9-1.92-5.4-1.33.99-3.82 1.74-3.22 3.9.11 4.14 6.09 4.33 7.8 1.16 2.88-2.97-2.07-7.18 1.07-9.99 2.91 1.25 6.53 2.3 9.39.32 1.55-1.18 1.47-3.26 1.47-5.01-1.33-.72-2.35-2.73-4.06-2.3-1.66-.06-2.59 1.25-2.58 2.82.11 2.42 2.98 1.82 4.54 2.6-1.53.49-3.11.76-4.7.97-1.32-2.19-3.23-3.97-4.49-6.17-2.28-6.88 3.51-14.72 10.66-15.17m5.22-1.69c-.56 1.1-1.11 2.21-1.63 3.33l-3.19.24c1.45 1.99 3.11 3.92 3.89 6.31 1.02 3.02.2 6.24.67 9.34.78-2.84.19-5.85 1.03-8.68.7-2.6 2.54-4.64 4.06-6.79-.77-.14-2.3-.41-3.07-.55-.58-1.07-1.15-2.14-1.76-3.2m-4.85 9.86c1.19.96 1.13-1.15.55-1.65-.57-1.08-1.4-1.83-2.49-2.25-1.46 1.18 1.1 2.98 1.94 3.9m7.79 1.33c1.76-1.8 3.58-3.55 5.12-5.54-2.55.91-4.01 3.22-5.12 5.54m-17.01-2.33l.81 4.16c3.47-.35 6.99.35 9.6 2.78-1.39-2.83-2.58-6.61-6.04-7.45-1.45-.62-2.93.28-4.37.51m17.78 7.28l2.15.56-2.05-.8c2.3-3.19 5.98-3.11 9.4-2.54.09-.73.26-2.19.35-2.92l1.16.36c-.38-.68-.77-1.35-1.16-2.03-4.89-2.76-8.89 3.16-9.85 7.37m-3.41 6.23c-1.1 2.11-2.32 4.26-4.85 4.75.5 2.62 1.4 6.63 4.88 6.31 3.72-.03 4.51-4.54 4.35-7.46-.75.18-2.24.56-2.98.75-.45-1.46-.9-2.91-1.4-4.35m-13.95 3.75c1.34 2.41 3.46 4.22 5.84 5.56-1.45-2.32-3.41-4.27-5.84-5.56m-19.46 3.12c.61 3.9 4.15 6.2 7.55 7.51-2.02-2.89-2.75-6.32-2.17-9.8-2.01.03-4.85-.32-5.38 2.29m42.11 2.43c2.27-1.32 4.21-3.11 5.58-5.37-2.5 1.05-4.29 3.07-5.58 5.37m18.56-4.13c.58 3.24-.32 6.46-2.12 9.17 4.08-1.36 9.46-5.48 6.19-10.15-1.36.34-2.71.67-4.07.98M33.78 60.22c-1.8-1.82-3.64-3.6-5.55-5.3.97 2.55 3.23 4.08 5.55 5.3m60.99-.94c1.42-.05 3.39-1.57 3.17-3.08-1.45-.06-3.19 1.65-3.17 3.08m-36.59-.76c.32 1.16.65 2.32.98 3.47 1.18-.82 2.32-1.73 3.62-2.36 2.03-.02 3.87.88 5.39 2.18 1.12-1.21 2.11-2.62 1.47-4.35-3.28.81-7.01 3.07-9.71-.18-.44.31-1.31.93-1.75 1.24m-35.04 4.92c1 .61 1.99 1.21 2.98 1.81.04.7.13 2.09.17 2.79 2.28-1.33 4.3-3.19 6.86-3.96 2.92-.63 5.93-.09 8.87-.55-5.24-1.26-11.71-.29-15.37-5.11-.23 2.28-1.59 3.89-3.51 5.02m26.3-4.66c.13.8.4 2.4.53 3.2-1.26.57-2.56 1.04-3.84 1.56 1.83 1.2 3.89 2.37 4.37 4.72 2.83-.18 6.7-1.86 6.5-5.21-.74-3.32-4.75-3.89-7.56-4.27m21.71 5.18c.72 3.1 4.26 4.16 7.06 4.24-.86-2.87 2.29-3.33 4.08-4.53-1.32-.58-2.69-1.05-3.96-1.74l.08-3.2c-2.92.44-7.49 1.39-7.26 5.23m22.82-1.44c-2.8.38-5.65.08-8.45.59 5.26.78 11.09.8 15.18 4.73-.02-2.41 1.54-3.81 3.6-4.71-.96-.5-1.92-.99-2.89-1.47-.25-1.12-.51-2.24-.77-3.36-2.07 1.59-3.96 3.74-6.67 4.22m-31.68 1.93c1.25.78 2.53.21 3.74-.34-.75-.85-1.5-1.69-2.26-2.52-.55.92-1.32 1.76-1.48 2.86m-4.13 4.4c3.68-.47 7.42-1.47 10.98.12 1.28-1.31-.16-2.98-.38-4.42-1.45 1.12-2.6 3.2-4.72 2.92-2.03.22-3.46-1.42-5-2.43-.31 1.27-.62 2.53-.88 3.81m-29.25.66c-1.1 1.37 1.25 1.44 1.75.53.64-.85 2.23-1.55 2.05-2.75-1.56-.37-2.91 1.12-3.8 2.22m1.39 5.59c1.31 1.87 3.42 2.01 5.51 1.85-.29-3.38.16-6.75 2.08-9.61-3.8 1-6.71 3.9-7.59 7.76m58.95-7.81c1.51 2.81 2.52 5.92 1.99 9.15 1.4.25 2.8.52 4.2.8.4-1.64 1.25-3.39.35-5.02-1.17-2.69-4.08-3.76-6.54-4.93m5.14.03c.29 1.4 2.06 3.3 3.64 3.23.84-1.63-2.08-3.79-3.64-3.23m-44.27 9.64c2.48-1.45 4.3-3.7 6.06-5.92-2.53 1.38-4.88 3.21-6.06 5.92m9.07.19c2.77-.32 3.35 2.51 4.63 4.27.61-1.52 1.2-3.05 1.83-4.56.65.34 1.94 1.03 2.58 1.37.14-2.93-.2-7.97-4.19-7.82-3.49 0-4.84 3.82-4.85 6.74m12.86-6.11c1.66 2.2 3.55 4.28 5.99 5.62-1.35-2.49-3.47-4.36-5.99-5.62m-9.3 23.15c-.52 2.55-2.6 4.3-4.13 6.27.83.08 2.49.25 3.32.33.64 1.13 1.3 2.25 1.98 3.36.34-.81 1.03-2.43 1.37-3.24 1.01-.25 2.02-.49 3.04-.74-4.18-3.63-4.08-9.39-4.82-14.41-.33 2.8-.34 5.64-.76 8.43m-12.44-2.88c-.23 1.54-1.67 4.17.87 4.28 4.49 1.34 7.48-3.31 8.49-7.04-2.64 2.27-6.07 2.44-9.36 2.76m17.11-3.04c1.06 4.36 5.43 9.89 10.27 6.56-.22-1.02-.66-3.06-.89-4.07-3.39.76-6.9.02-9.38-2.49M55.61 98.36c2.52-1.03 4.1-3.25 5.43-5.52-1.94 1.71-3.83 3.49-5.43 5.52m11.14-5.16c1.26 2.06 2.56 4.23 4.91 5.2-1.42-1.93-3.19-3.55-4.91-5.2z"/>
    <path fill="#2b2b2b" opacity=".17" d="M62.23 109.21c.54.53.54.53 0 0z"/>
</svg>
