<svg width="128pt" height="128pt" viewBox="0 0 128 128" xmlns="http://www.w3.org/2000/svg">
    <g fill="#fff">
        <path d="M57.12 18.07c2.11-2.58 4-5.33 6.03-7.97 3.34 5.73 9.62 9.96 10.26 17.02 1.21 6.2-4.81 10.31-8.93 13.78-.12-1.01-.37-3.02-.49-4.03-.44 1.28-.52 2.74-1.44 3.8-2.77-2.59-5.49-5.27-7.93-8.18-1.05-4.8-.85-10.49 2.5-14.42z"/>
        <path d="M76.07 31.06c4.76-2.37 10.41-1.08 14.89 1.32 2.59 1.44 5.68 1.31 8.35.18 2.57 1.18 1.69 4.21 1.63 6.46-.43 5.87-5.05 9.97-8.95 13.84-3 2.33-7.34 3.97-10.93 1.98-3.39-1.58-8.03-2.78-8.96-6.97-1.16-3.55 1.83-6.46 4.36-8.45 3.06-2.51 7.18-2.48 10.87-3.2-3.44.18-6.93.6-10.15 1.88-3.14 2.07-5.39 5.58-9.18 6.6.31-5.4 2.67-11.55 8.07-13.64zm-37.16 1.49c4.6-1.9 10.08-2.51 14.68-.33 3.66 2.9 6.04 7.19 6.5 11.86l-2.33-.56c-1.16-1.61-2.37-3.17-3.55-4.76 1.92 3.84 2.37 8.77-.15 12.42-2.59 2.06-5.37 3.91-8.11 5.77-4.71.59-10.82.26-13.45-4.39-2.04-3.73-4.98-7.14-5.67-11.46-.67-2.91-.63-6.27 1.49-8.6 3.42 1.14 7.2 1.46 10.59.05zm2.26 30.58c3.38-.71 7.26-1.64 10.41.31 1.24 1.1.94 2.89.06 4.11-4.75 5.25-10.98 8.85-17.48 11.5 7.21-1.99 13.61-5.87 20.06-9.54 1.14 3.44-.39 6.71-2.24 9.55-1.76 2.65-1.81 5.86-2.41 8.87-2.54 4.76-8.36 6.89-13.53 6.33-6.39-1.1-12.75-2.4-19.22-2.86-1.61-.87-.91-2.63-.09-3.78 3.56-5.71 4.55-12.81 8.92-18.03 4.67-3.15 10.12-4.96 15.52-6.46z"/>
        <path d="M76.11 63.21c3.26-2.03 7.42-1.67 10.89-.41 5.38 1.63 11.01 3.21 15.46 6.77 2.97 3.96 4.4 8.85 6.89 13.12.96 2.42 3.06 4.6 2.74 7.35-6.17 2.03-12.64 2.92-18.91 4.55-6.03.62-13.28-.58-16.73-6.18.84 4.08 1.06 8.41-.19 12.42-2.93 5.87-6.81 11.29-11.45 15.93l-1.69.2c-5.26-4.07-9.83-9.29-12.48-15.43-2.63-8.39-.07-17.46 3.52-25.17 2.41 2.7 6.29 3.3 8.69 5.98.68 1.93.56 4.04.97 6.04.5-2.3 0-5.03 1.73-6.87 2.23-2.05 5.37-2.83 7.33-5.23 1.8 3.6 3.44 7.3 4.01 11.33-.27-2.99-.3-6.15-1.89-8.81-1.54-2.88-3.05-6.32-1.39-9.5 7.29 3.8 15.04 6.99 23.12 8.69-7.29-2.35-14.5-5.17-20.51-10.04-1.02-1.32-1.38-3.45-.11-4.74z"/>
    </g>
</svg>
