<svg width="128pt" height="128pt" viewBox="0 0 128 128" xmlns="http://www.w3.org/2000/svg">
    <path fill="#fff" d="M55.84 52.17c-.83-4.35 2.36-7.74 6.19-9.11.73.84 1.46 1.67 2.17 2.53.55-1.41 1.89-2.3 3.41-1.74 2.73 1.87 4.51 4.93 4.51 8.29-.59-.51-1.77-1.51-2.36-2.01-2.85 2.58-.45 5.73 1.98 7.43 1.34-.74 2.59-1.88 4.21-1.85-1.38 1.62-2.72 3.29-3.91 5.05.62.07 1.87.19 2.5.26l-2.22.32c.94 2.2.4 4.52.09 6.79-.33 4.56-4.61 7.28-6.18 11.37l-1.28-.47.56 1.39-3.77.12c-1.79-3.5-4.18-6.61-6.17-9.97-.8-3.72-1.22-7.55-1.15-11.36-.81-1.36-1.84-2.57-2.69-3.91 2.03.55 4.81 3.26 6.5.82 2.08-1.7 1.64-4.62-.02-6.43-.79.82-1.58 1.65-2.37 2.48m7.98 1.45c-.15 1.62-.28 3.24-.38 4.86-1.03-.4-2.04-.86-2.98-1.43 1.5 2.01 1.09 6.25-2.29 5.26l-.7-.43c-.83-.22-1.65-.41-2.49-.58.76 2.45-.36 6.65 2.77 7.54-.04.29-.12.87-.17 1.15 1.66.92 2.64 2.5 2.35 4.44.38.35 1.13 1.04 1.5 1.39.56 1.36 1.13 2.71 1.64 4.09 2.5-1.33 3.42-4.13 5.04-6.28-.13-.35-.38-1.06-.51-1.42.86-.95 1.88-1.68 3.19-1.79-.26-.6-.53-1.19-.8-1.78 2.05-1.04 2.48-3.28 2.3-5.38-.85.12-2.56.35-3.41.46-.21 1.55-.74 3.03-1.39 4.45-.35-1.97-.69-3.94-1-5.92-.23.63-.69 1.9-.93 2.54-1.64-.22-3.29-.43-4.93-.67-.09 1.05-.25 3.16-.33 4.21-.61-1.61-1.96-3.13-1.81-4.89 1.54-2.46 4.72 1.69 5.43-.79 2.79-.54 2.62-3.47 3.24-5.61l-2.37 1.55c-.48-1.63-.21-3.42-.97-4.97z"/>
</svg>
