<svg width="128" height="128" viewBox="0 0 128 128" xmlns="http://www.w3.org/2000/svg">
    <path d="M31.31 60.89c.19-11.03 8.11-21.41 18.79-24.26 9.42-3.05 20.3.18 26.85 7.52 4.11 4.55 6.32 10.57 6.72 16.65 1.41 5.83 3.81 12.03 8.66 15.85 2.46 2.17 5.3.29 7.37-1.36 1.25 1.81-.02 3.89-.78 5.63-3.7 6.88-11.35 10.6-18.79 11.83-1.47 2.73-2.78 5.54-4 8.39-5.1-.07-10.55.62-15.23-1.9-.07-.62-.21-1.87-.27-2.5-11.42-.67-22.38-8.71-25.89-19.66-1.62 2.63-4.83 3.68-7.76 2.92 1.81-2.13 4.93-2.42 7.41-3.41-.43-1.12-1.3-3.35-1.73-4.47 6.74 2.61 14.05 2.55 21.14 1.98.78-.53 1.57-1.06 2.36-1.58-7.63 1.15-15.62 1.19-22.97-1.42-1.59-.71-1.24-2.65-1.51-4.04 1.18-.49 2.82-.74 3.1-2.26.75-2.09-1.41-4.07-3.47-3.91m22.01.39c-3.32 1.38-1.13 6.89 2.2 5.43 3.85-1.09 1.49-7.15-2.2-5.43z"/>
    <path d="M24.02 76.92c.22-4.01 4.23-5.67 7.35-7.12.47 1.38.94 2.77 1.41 4.15-3 .76-5.62 2.72-8.76 2.97zm9.48 21.26c-1.59-5.13 1.03-10.29 2.78-15.03 3.86 5.01 8.47 9.95 14.7 11.87-1.56 2.07-3.22 4.07-4.74 6.18-4.4.13-9.07-.33-12.74-3.02z"/>
</svg>
