<svg width="128pt" height="128pt" viewBox="0 0 128 128" xmlns="http://www.w3.org/2000/svg">
    <path d="M81.49 22.11c1.52 1.3 3.01 2.64 4.55 3.92 2-.29 3.98-.68 5.97-1.05-.68 1.95-1.66 3.84-1.89 5.91.67 1.88 1.71 3.59 2.63 5.35-2-.21-4-.4-6-.59-1.49 1.45-2.96 2.93-4.42 4.41-.52-1.94-.96-3.9-1.47-5.85-1.81-.9-3.62-1.79-5.44-2.66 1.64-1.11 3.39-2.09 4.87-3.43.67-1.94.82-4.01 1.2-6.01zm1.53 33.7c-1.22-4.22 4.08-4.72 6.87-5.81.34.06 1.01.2 1.34.27-1.65 1.49-3.23 3.08-5.06 4.37-.78.29-2.36.88-3.15 1.17z" fill="#ad2329"/>
    <path fill="#aa2124" d="M105.65 24.56c.54 1.65.94 3.36 1.69 4.94 1.28.74 2.66 1.31 4.02 1.89-1.37.99-2.82 1.86-4.18 2.87-.23 1.56-.48 3.12-.7 4.68-2.13-2.73-5.26-3.46-8.57-2.57.64-1.41 1.28-2.83 1.92-4.24l-2.31-4.38 5.02.18c1.04-1.13 2.08-2.25 3.11-3.37z"/>
    <path fill="#971f1e" d="M43.79 39.2c5-2.42 10.51-4.27 16.15-3.56 9.94.85 18.99 7.9 22.26 17.32 1.22 4.03 1.15 8.36 2.71 12.32 1.66 4.46 3.95 9.1 8.05 11.79 2.55 1.77 5.1-.8 7.34-1.85.07 6-4.58 10.76-9.38 13.7-3.3 2.14-7.2 2.81-10.85 4.04-1.63 2.56-2.69 5.41-3.97 8.15-4.38-.08-8.94.51-13.16-.97-1.59-.32-2.14-1.89-2.52-3.26-6.27-.81-12.41-3.07-17.17-7.32 5.97-2.41 10.03-8.68 9.21-15.15l4.05-1.86c-4.17.14-8.34.56-12.51.45.1-11.2.43-22.42-.2-33.61l-.01-.19m9.03 27.08c2.02 1.83 4.23-.53 5.18-2.28-1.03-.88-1.49-2.94-3.08-2.89-2.84-.74-4.66 3.7-2.1 5.17z"/>
    <path fill="#891b1e" d="M31.25 60.84c.41-8.65 5.08-16.96 12.55-21.45.63 11.19.3 22.41.2 33.61-3.96-.1-7.84-1.06-11.55-2.39-.27-1.12-.5-2.24-.8-3.35 1.8-.54 3.99-2.02 3.16-4.22-.3-1.68-2.3-1.77-3.56-2.2z"/>
    <path fill="#aa2326" d="M91.55 43.64c2.06-.8 4.19-1.48 6.42-1.07.25.63.74 1.91.99 2.54l2.38-1.09c.51.08 1.51.25 2.01.33.17 1.11.33 2.22.49 3.33l.02.17c-.64 0-1.91 0-2.55.01 4.24 2.08 8.52 5.25 9.17 10.3 1.71 8-6.56 15.9-14.49 13.74-6.96-1.33-11.36-9.76-8.37-16.17 1.62-2.69 4.07-4.71 6.58-6.54-.26-.58-.51-1.16-.77-1.74-.59-1.29-1.21-2.56-1.88-3.81z"/>
    <path fill="#891b1f" opacity=".89" d="M103.35 44.35c1.74-.83 4.37-2.18 4.99.65-.89 1.65-3 1.85-4.5 2.68-.16-1.11-.32-2.22-.49-3.33z"/>
    <path fill="#420c10" opacity=".68" d="M93.43 47.45c.26.58.51 1.16.77 1.74-2.51 1.83-4.96 3.85-6.58 6.54l-1.45-1.09c1.83-1.29 3.41-2.88 5.06-4.37-.33-.07-1-.21-1.34-.27 1.16-.88 2.36-1.71 3.54-2.55z"/>
    <path fill="#8c1d18" d="M26.7 71.98c1.61-.74 3.21-1.49 4.8-2.26.16.68.46 2.05.61 2.73.12.53.37 1.58.5 2.1-2.7 1.06-5.43 2.03-8.22 2.83.6-1.74 1.41-3.4 2.16-5.07l.15-.33z"/>
    <path fill="#140404" opacity=".4" d="M32.11 72.45c.08-.46.25-1.38.34-1.84C36.16 71.94 40.04 72.9 44 73c4.17.11 8.34-.31 12.51-.45l-4.05 1.86c-6.57.53-13.29.25-19.55-1.96.62 1.74 1.26 3.48 1.87 5.23-.15.4-.45 1.19-.6 1.58l-1.03-.59c-.65-.41-1.34-.75-2.05-1.04l2.63.16-1.12-3.24c-.13-.52-.38-1.57-.5-2.1z"/>
    <path fill="#250708" opacity=".52" d="M26.46 71.44c.02.22.07.65.09.87-.75 1.67-1.56 3.33-2.16 5.07-.31.1-.93.31-1.24.41.82-2.26 1.73-4.5 3.31-6.35z"/>
    <path fill="#aa2126" d="M32.91 72.45c6.26 2.21 12.98 2.49 19.55 1.96.82 6.47-3.24 12.74-9.21 15.15l-.16.08c-3.24-3.61-6.72-7.27-8.31-11.96-.61-1.75-1.25-3.49-1.87-5.23z"/>
    <path fill="#b02128" d="M24.39 77.38c2.79-.8 5.52-1.77 8.22-2.83l1.12 3.24-2.63-.16c-.3.1-.9.28-1.19.38-3.52 1.06-6.47 3.58-10.14 4.18-.58-.09-1.72-.28-2.3-.38l-1.27-.78c2.17-1.37 4.5-2.49 6.95-3.24.31-.1.93-.31 1.24-.41z"/>
    <path fill="#801a1c" opacity=".96" d="M29.91 78.01c.29-.1.89-.28 1.19-.38.71.29 1.4.63 2.05 1.04-1.04 1.2-2.36 1.72-3.96 1.55-.25-.82-.01-1.55.72-2.21z"/>
    <path fill="#4a0e14" opacity=".71" d="M17.47 81.81c.58.1 1.72.29 2.3.38.47 1.97-3.37 1.37-2.3-.38z"/>
    <path fill="#8f1b1e" d="M36.17 83.26c4.08 4.95 8.69 9.64 14.76 12.08-1.67 1.91-3.28 3.86-4.8 5.89-4.27-.1-8.78-.34-12.39-2.92-.33-1.07-.67-2.14-1-3.21.74-4.06 1.93-8.01 3.43-11.84z"/>
</svg>
