<svg width="128pt" height="128pt" viewBox="0 0 128 128" xmlns="http://www.w3.org/2000/svg">
    <path fill="#a41f1e" d="M59.53 28c2.35-3.98 3.64-8.88 7.39-11.83l1.48 2.6c.42 2.84 2.08 7.68-1.68 8.83-2.34.71-4.8.15-7.19.4z"/>
    <path fill="#bd2431" d="M71.97 26.18c5.22-3.36 10.6-6.5 16.23-9.13.7 5.35-.45 11.02-3.43 15.55l-.03.03c-.8.98-1.7 1.85-2.72 2.6-2.59 1.92-5.27 3.72-8.09 5.29-.41-2.39 1.64-3.97 2.91-5.66 2.62-2.9 5.03-6.02 6.6-9.62-7.07 3.39-13.13 8.82-17.31 15.46-1.17-1.04-3.78-1.4-3.18-3.46 1.52-4.66 5.03-8.37 9.02-11.06z"/>
    <path fill="#110404" opacity=".38" d="M68.4 18.77c1.18 2.45 1.32 5.2 1.53 7.87.51-.12 1.53-.35 2.04-.46-3.99 2.69-7.5 6.4-9.02 11.06-.6 2.06 2.01 2.42 3.18 3.46 2.54 1.15 5.33 1.13 7.8-.18 2.82-1.57 5.5-3.37 8.09-5.29.17.23.52.69.69.92-3.99 3.07-8.21 6.64-13.65 5.92-1.67.01-3.33-.02-4.99-.04-.56-.63-1.12-1.26-1.67-1.89-.43-.49-1.28-1.46-1.7-1.95 1.69-3.15 3.47-6.26 5.46-9.24-2.72-.06-5.86 1.23-8.26-.58.41-.09 1.22-.28 1.63-.37 2.39-.25 4.85.31 7.19-.4 3.76-1.15 2.1-5.99 1.68-8.83z"/>
    <path fill="#9a1d23" d="M41.65 37.14c3.08-4.71 5.85-9.78 10.38-13.31 2.26 1.1 4.19 2.69 5.87 4.54 2.4 1.81 5.54.52 8.26.58-1.99 2.98-3.77 6.09-5.46 9.24.42.49 1.27 1.46 1.7 1.95-2.63-.4-5.14-1.3-7.44-2.62-.09.2-.27.61-.36.81-.89 1.76-1.73 3.55-2.48 5.38-3.61.62-7.21 1.33-10.81 2.06-1.71-1.42-4.64-2.25-4.92-4.8-.39-4.63 1.76-8.93 3.78-12.94l.65-.31c1.71.08 3.43.16 5.14.25-1.6 2.97-3.24 5.95-4.31 9.17z"/>
    <path fill="#661a22" opacity=".84" d="M84.74 32.63l.03-.03-.03.03z"/>
    <path fill="#891b1e" d="M54.96 37.52c2.3 1.32 4.81 2.22 7.44 2.62.55.63 1.11 1.26 1.67 1.89 1.66.02 3.32.05 4.99.04-.44 2.45-1.21 4.87-3.13 6.6.57.65 1.14 1.31 1.71 1.96-1.04.33-2.09.66-3.13.99-3.75-2.24-7.27-4.83-10.6-7.65.22-1.88.43-3.76.69-5.64.09-.2.27-.61.36-.81z"/>
    <path fill="#9d1f23" d="M69.06 42.07c5.44.72 9.66-2.85 13.65-5.92 4.41 4.07 7.1 9.54 11.14 13.93 4.9 5.19 2.98 13.24-.09 18.9-.51 1.01-1.04 2.02-1.6 3.01-3.25.01-6.52.38-9.48 1.8.13.46.4 1.38.53 1.84-.37 3.41-1.24 6.74-2.23 10.02-1.32 6.26-7.13 9.75-11.79 13.44-2.72 2.28-6.37 2.24-9.72 2.45 3.48-5.07 6.51-10.56 7.24-16.78-2.98 5-4.94 10.75-9.02 15-4.51 2.22-9.58 3.7-12.86 7.8-.99.53-1.71 2.68-3.03 1.89-2.57-3.6-4.02-8.04-4.41-12.42 2.2-6.15 7.06-10.76 11.15-15.68.33-1.95.11-3.93.03-5.89 3.37-.31 6.75-.38 10.11-.74 2.32-.83 4.16-2.58 6.23-3.87 2.13-1.58 5.04-1.19 7.28-2.49 2.94-2.39 4.72-5.82 6.93-8.84-.13-2.76-.55-5.5-1.14-8.19 1.4-1.44 2.85-2.84 4.31-4.23-5.44 2.82-11.46 5.88-17.78 4.52 1.04-.33 2.09-.66 3.13-.99-.57-.65-1.14-1.31-1.71-1.96 1.92-1.73 2.69-4.15 3.13-6.6z"/>
    <path fill="#1d0707" opacity=".45" d="M52.12 43.71c.75-1.83 1.59-3.62 2.48-5.38-.26 1.88-.47 3.76-.69 5.64 3.33 2.82 6.85 5.41 10.6 7.65 6.32 1.36 12.34-1.7 17.78-4.52-1.46 1.39-2.91 2.79-4.31 4.23.59 2.69 1.01 5.43 1.14 8.19-2.21 3.02-3.99 6.45-6.93 8.84-2.24 1.3-5.15.91-7.28 2.49-2.07 1.29-3.91 3.04-6.23 3.87-3.36.36-6.74.43-10.11.74.08 1.96.3 3.94-.03 5.89-.39-2.28-.75-4.56-1.06-6.85 2.87-.71 5.81-1.08 8.75-1.36-.92-1.62-1.76-3.27-2.67-4.89-1.51-2.36-3.79-4.02-5.97-5.71 5.52.9 7.81 6.4 10.56 10.55.61-.33 1.83-1 2.44-1.33 1.35-.78 2.66-1.62 3.98-2.46-1.01-1.13-2.03-2.25-3.04-3.37 2.97.95 6.34 3.02 9.41 1.23 2.52-1.85 4.45-4.46 5.89-7.22.49-2.63-.08-5.32-.29-7.95-4 .69-8.15 1.87-12.18.64-1.95-.69-3.95-.16-5.85.4-.73 1.26-1.47 2.53-2.29 3.73-3.76 3.89-9.65 2.18-12.77-1.59-.97.17-1.93.33-2.9.49 6.27-3.6 13.76-3.23 20.7-4.39-2.7-1.9-5.27-4.02-8.15-5.65-3.85-.15-7.65.71-11.37 1.58-.1-.35-.31-1.07-.42-1.43 3.6-.73 7.2-1.44 10.81-2.06m-5.5 11.62c2.4 3.23 7.68 2.05 9.36-1.36-3.16.07-6.31.54-9.36 1.36z"/>
    <path fill="#bd2529" d="M41.73 47.2c3.72-.87 7.52-1.73 11.37-1.58 2.88 1.63 5.45 3.75 8.15 5.65-6.94 1.16-14.43.79-20.7 4.39.97-.16 1.93-.32 2.9-.49 3.12 3.77 9.01 5.48 12.77 1.59-.55 1.71-1.06 3.43-1.52 5.16.99.06 1.98.11 2.98.17-.63.76-1.26 1.52-1.88 2.29 2.01 2.17 3.43 4.77 4.79 7.38-.61.33-1.83 1-2.44 1.33-2.75-4.15-5.04-9.65-10.56-10.55 2.18 1.69 4.46 3.35 5.97 5.71-2.65-.31-5.32-.46-7.98-.36-3.06.06-6.14.29-9.07 1.26.71.08 2.11.25 2.82.33-1.94 3.06-3.47 7.4-7.49 8.15-2.07.53-4.07-.34-6.02-.92l.06-5.41c1.23-1.1 2.31-2.64 4.17-2.48 2.23.22 2.99-2.04 4.05-3.5-.47.3-1.41.91-1.88 1.21-2.93-.5-5.16.91-6.91 3.16-1.01-3.75 3.04-5.72 4.44-8.67 2.73-5.46 6.08-11.37 11.98-13.82z"/>
    <path fill="#ad2426" d="M58.51 53.03c1.9-.56 3.9-1.09 5.85-.4 4.03 1.23 8.18.05 12.18-.64.21 2.63.78 5.32.29 7.95-1.44 2.76-3.37 5.37-5.89 7.22-3.07 1.79-6.44-.28-9.41-1.23 1.01 1.12 2.03 2.24 3.04 3.37-1.32.84-2.63 1.68-3.98 2.46-1.36-2.61-2.78-5.21-4.79-7.38.62-.77 1.25-1.53 1.88-2.29-1-.06-1.99-.11-2.98-.17.46-1.73.97-3.45 1.52-5.16.82-1.2 1.56-2.47 2.29-3.73z"/>
    <path fill="#c62831" d="M46.62 55.33c3.05-.82 6.2-1.29 9.36-1.36-1.68 3.41-6.96 4.59-9.36 1.36z"/>
    <path fill="#a52023" d="M45.58 67.89c2.66-.1 5.33.05 7.98.36.91 1.62 1.75 3.27 2.67 4.89-2.94.28-5.88.65-8.75 1.36-2.89.94-4.66 3.5-6.58 5.67-2.38-.18-5.39.95-7.22-1.08 1.56-2.74 4.53-4.53 5.79-7.54.87-2.6 3.8-3.03 6.11-3.66z"/>
    <path fill="#120405" opacity=".35" d="M92.16 71.99c.56-.99 1.09-2 1.6-3.01-.11 1.11.22 2.06 1 2.83-3.63 5.41-6.75 11.21-11.31 15.95l-2.47-2.11c.99-3.28 1.86-6.61 2.23-10.02 1.74 3.58-.16 7.37-1 10.89 3.83-4.48 7.07-9.4 9.95-14.53z"/>
    <path fill="#861c1e" d="M82.68 73.79c2.96-1.42 6.23-1.79 9.48-1.8-2.88 5.13-6.12 10.05-9.95 14.53.84-3.52 2.74-7.31 1-10.89-.13-.46-.4-1.38-.53-1.84z"/>
    <path fill="#9c1f24" d="M83.45 87.76c4.56-4.74 7.68-10.54 11.31-15.95-1.02 8.59-5.91 16.41-5.52 25.25-2.59 3.66-5.67 7.31-9.7 9.41-10.67 3.91-22.48 5.64-33.67 3.02l.43-.38c2.72-2.37 5.56-4.78 9.03-5.91 4.06-.52 8.24.64 12.23-.46 6.51-3.49 11.97-8.73 15.89-14.98z"/>
    <path fill="#080202" opacity=".22" d="M57.69 99.76c4.08-4.25 6.04-10 9.02-15-.73 6.22-3.76 11.71-7.24 16.78 3.35-.21 7-.17 9.72-2.45 4.66-3.69 10.47-7.18 11.79-13.44l2.47 2.11c-3.92 6.25-9.38 11.49-15.89 14.98-3.99 1.1-8.17-.06-12.23.46-3.47 1.13-6.31 3.54-9.03 5.91-.36-.39-1.1-1.16-1.47-1.55 3.28-4.1 8.35-5.58 12.86-7.8z"/>
</svg>
