<svg width="128pt" height="128pt" viewBox="0 0 128 128" xmlns="http://www.w3.org/2000/svg">
    <g fill="#fff">
        <path d="M59.48 28.1c2.43-3.96 3.94-8.57 7.26-11.9 2.13 2.88 2.5 6.5 2.5 9.97-2.72 2.43-6.41 1.82-9.76 1.93zM69.17 28.2c5.81-4.31 12.31-7.53 18.55-11.14 1.72 6.55-.71 14.41-6.23 18.54-2.35 1.98-4.91 3.79-7.84 4.79.08-3.13 3.07-4.72 4.69-7.03 1.84-2.54 4.06-4.93 4.99-7.99-7.05 3.12-13.09 8.52-17.07 15.12-1.63-.24-2.94-1.11-3.9-2.42 1.84-3.53 3.43-7.51 6.81-9.87zM40.78 47.59c3.94-1.58 8.25-1.86 12.43-2.4 2.69 2.41 5.73 4.37 8.86 6.15-7.13 1.02-14.52 1.17-21.3 3.87 1.02-.01 2.04-.01 3.06-.01 2.11 2.16 4.86 4.28 8.1 3.58 3.34-.02 4.77-3.29 6.6-5.51 1.25-.86 2.82-1.07 4.24-1.55 4.15 2.83 9.18.78 13.67.03.47 2.66 1.34 5.45.62 8.14-1.43 2.6-3.45 4.82-5.4 7.04-3.14 1.91-6.89.4-10-.82 1.04 1.05 2.1 2.08 3.18 3.11-2.18 1.49-4.41 2.94-6.88 3.9-2.67-4.31-5.23-9.84-10.89-10.55 4.92 1.66 7.02 6.59 9.42 10.73-3.5.26-7.11.43-10.39 1.79-2.35.88-3.32 3.43-5.24 4.87-2.49.35-5.48.87-7.37-1.22 3.08-2.52 5.62-5.64 7.29-9.26 1.72-.42 3.45-.84 5.16-1.33-3.09-.39-6.24-.31-9.14.89.59.19 1.77.56 2.36.75-2.16 4.12-5.55 9.44-11.07 7.7-2.49-.12-2.17-2.75-2.11-4.57-.3-2 1.68-3.14 2.97-4.25 2.5 1.04 3.81-.94 5.01-2.75-3.16.6-6.68.33-8.37 3.73-1.45-2.11.5-3.94 1.83-5.32 3.16-3.06 3.98-7.72 6.95-10.93 1.93-2.13 3.91-4.32 6.41-5.81z"/>
        <path d="M46.29 55.6c3.06-1.47 6.48-1.75 9.82-1.69-1.71 3.74-6.98 4.77-9.82 1.69z"/>
    </g>
</svg>
