<svg width="128pt" height="128pt" viewBox="0 0 128 128" xmlns="http://www.w3.org/2000/svg">
    <g fill="#a22023">
        <path d="M46.99 31.95c-1.54-5.44-2.11-12.92 3.83-15.92 4.29 1.65 8.59 4.26 10.99 8.31-4.94 2.57-10.72 3.57-14.82 7.61zM96.39 65.83c2.31-.61 1.32 3.79-.54 3.54-1.5-.69-.61-2.94.54-3.54zM39.02 91.85c.87.86 1.88 1.47 3.04 1.82-.6.34-1.81 1.02-2.41 1.36.39.49 1.16 1.48 1.55 1.97-.99-.41-1.97-.81-2.95-1.21-.44-1.03-.89-2.05-1.35-3.07.53.23 1.59.68 2.13.91l-.01-1.78zM74.28 95.17c1.19-.13 3.13.24 3.5 1.56-.76 1.94-4.12.1-3.5-1.56z"/>
    </g>
    <path fill="#9c2023" d="M69.17 22.46c3.4-2.6 6.78-6.25 11.48-5.58 4.28 3.92 3.25 10.21 2.45 15.32-3.61-3.64-8.35-5.77-13.27-6.97.21.32.63.96.85 1.28l-1.64-2.12c.03-.48.1-1.45.13-1.93z"/>
    <path fill="#9e2024" opacity=".96" d="M62.48 24.81c-1.47-.55.67-2.07 1.49-1.81 1.12.11 3.38-.55 3.88.7-1.74.49-3.59.76-5.37 1.11z"/>
    <g fill="#7b181b">
        <path d="M50.05 31.17c5.07-3.62 11.25-6.16 17.44-6.6.8.48 2.39 1.46 3.19 1.94-.22-.32-.64-.96-.85-1.28 4.23 2.79 9.68 4.01 12.86 8.21 2.9 4.37 3.98 9.63 4.8 14.72-2.05 1.64-5.3 2.83-5.38 5.89-.24 2.13 1.85 3.37 3.25 4.56-.94-1.88-3.38-3.89-1.82-6.15 1.43-1.94 3.93-3.68 6.44-3.43 4.39 2.6 9.59 8.45 5.77 13.58-2.39 4.06-7.35 3.26-11.22 2.52 2.21 1.41 4.79 1.97 7.4 1.78-.12 1.34-.23 2.67-.35 4.01-3.48-.68-6.99-.26-10.32.87-.11-4.88-1.69-9.54-4.26-13.66-3.7 3.2-7.74 6.62-12.99 6.33-.67-1.41-1.34-2.81-2.01-4.2 3.54.08 7.12-.04 10.55-1.02-2.79-.58-5.64-.65-8.47-.57 2.05-1.65 4.06-3.34 6.08-5.03.46.18 1.38.55 1.83.73.28.11.84.33 1.11.44.64-1.14 1.32-2.26 2.05-3.34 1.25-.15 2.51-.25 3.78-.3-1.05-.73-2.1-1.46-3.14-2.19 1.12-1.27 2.46-2.57 2.7-4.33.51-2.36-2.04-3.63-3.21-5.27-1.51-1.35-2.4-4.06-4.77-3.91-3.2.02-6.41.28-9.61.16-.18 1.23-.36 2.45-.53 3.68-2.02-.54-3.88-1.46-4.16-3.75-3.77 2.62-7.95 4.6-12.33 5.97 1.13-3.9 2.66-7.98 6.17-10.36m17.14-5.41c-.7.95-1.43 1.88-2.04 2.89.57 2.01 2.97 1.59 4.09.32.03-1.45-1.12-2.31-2.05-3.21m-6.05 1.39c-1.89.39-1.22 3.56.69 3.03 1.89-.39 1.17-3.54-.69-3.03zM29.26 80.69c1.34-.46 2.67-.95 4-1.41-1.09.89-2.2 1.76-3.31 2.63.72 1.08 1.43 2.17 2.15 3.25-.49-.36-1.46-1.07-1.95-1.42l-.28-.95c-.2-.7-.4-1.4-.61-2.1zM88.01 94.35c1.3-.95 3.58 1.09 2.02 2.22-1.31.97-3.53-1.07-2.02-2.22zM42.77 98.4c.31-.48.92-1.44 1.22-1.92 1.76-.11 1.42 2.56-.06 2.71-.29-.2-.87-.59-1.16-.79z"/>
    </g>
    <path fill="#ac2426" d="M67.19 25.76c.93.9 2.08 1.76 2.05 3.21-1.12 1.27-3.52 1.69-4.09-.32.61-1.01 1.34-1.94 2.04-2.89z"/>
    <path fill="#b42524" d="M61.14 27.15c1.86-.51 2.58 2.64.69 3.03-1.91.53-2.58-2.64-.69-3.03z"/>
    <path fill="#8c1b1e" d="M43.88 41.53c4.38-1.37 8.56-3.35 12.33-5.97.28 2.29 2.14 3.21 4.16 3.75.17-1.23.35-2.45.53-3.68 3.2.12 6.41-.14 9.61-.16 2.37-.15 3.26 2.56 4.77 3.91 1.17 1.64 3.72 2.91 3.21 5.27-.24 1.76-1.58 3.06-2.7 4.33-1.66 1.5-2.92 3.34-3.8 5.39-.45-.18-1.37-.55-1.83-.73-2.02 1.69-4.03 3.38-6.08 5.03 2.83-.08 5.68-.01 8.47.57-3.43.98-7.01 1.1-10.55 1.02.67 1.39 1.34 2.79 2.01 4.2-4.07-.3-7.25-2.86-10.11-5.52l-.55.47c-2.91 2.91-3.96 6.97-4.45 10.93-.07.31-.21.93-.27 1.24-3.34-1.1-6.9-1.3-10.31-.35.02-1.36.05-2.71.07-4.06 2.38-.09 4.75-.48 6.85-1.67-2.56.15-5.26.99-7.75.05-2.99-1.61-5.53-4.95-4.33-8.5 1.35-3.62 4.58-7.82 8.92-7.05 1.95.29 3.52 1.62 5.01 2.81-.05.67-.14 2.02-.19 2.69-.85 1.32-1.64 2.68-2.37 4.07 2.61-1.98 4.62-5.32 2.45-8.38-1.46-.69-2.91-1.39-4.35-2.09.3-2.54.68-5.07 1.25-7.57m7.71 9.55c2.94.28 4.88 2.37 6.65 4.51-.61-1.93-.9-4.18-2.55-5.57-1.5-.6-2.81.46-4.1 1.06z"/>
    <g fill="#b22326">
        <path d="M77 58.13c2.57 4.12 4.15 8.78 4.26 13.66-1.45 1.05-2.79 2.24-4 3.56l-.61 1.16c-1.72 2.84-3.4 5.79-3.88 9.13-.16 1.09-.14 2.19-.18 3.3-4.86 1.53-10.21 1.53-15.14.33-.25-1.55-.54-3.1-.94-4.63 0 .8.01 2.39.02 3.19-1.74 1.84-3.22 4.16-5.62 5.2-2.86-.01-5.76-1.22-7.79-3.23-2.66-3.67-1.89-10.41 3.2-11.44 3.55-1.49 6.72 1.04 9.45 2.97-1.14-1.98-2.18-4.01-3.51-5.87-.97-1.5-2.33-2.68-3.63-3.88.06-.31.2-.93.27-1.24.25-.5.76-1.5 1.02-2 3.35 2.93 7.29 7.15 12.19 5.09.25.89.5 1.77.74 2.66 1.32-1.61 2.64-3.22 3.95-4.83-2.04.23-4.09.46-6.14.7-.4-.92-.81-1.83-1.22-2.75 1.62-.83 3.22-1.7 4.78-2.63 5.3-.82 9.88-3.98 12.78-8.45z"/>
        <path d="M73.36 84.66c1.79-2.83 3.71-6.64 7.56-6.71 4.4-1.04 9.05 3.47 7.71 7.89-.85 2.37-2.25 4.49-3.34 6.75l-.16.33c-2.96.83-6.13 1.01-9-.24-2.61-1.71-2.91-5.18-2.77-8.02zM61.25 105.18c.4.28 1.21.83 1.61 1.11-.25.4-.74 1.19-.98 1.59.32.5.98 1.52 1.3 2.02-1-.43-2.01-.86-3.02-1.28-.46-.76-.91-1.51-1.36-2.27.66.12 1.98.37 2.65.49l-.2-1.66z"/>
    </g>
    <path fill="#c6252c" d="M48.9 70.34c.49-3.96 1.54-8.02 4.45-10.93 2.72 3.53 6.47 6.2 10.87 7.17-1.56.93-3.16 1.8-4.78 2.63.41.92.82 1.83 1.22 2.75 2.05-.24 4.1-.47 6.14-.7-1.31 1.61-2.63 3.22-3.95 4.83-.24-.89-.49-1.77-.74-2.66-4.9 2.06-8.84-2.16-12.19-5.09-.26.5-.77 1.5-1.02 2z"/>
    <path fill="#5a1518" opacity=".62" d="M30.87 68.54c-1.4-1.15.79-2.7 1.75-1.34.05.62.14 1.88.19 2.5-.42-.19-1.26-.56-1.68-.75.01-.11.02-.33.02-.44l-.28.03z"/>
    <path fill="#d62c31" d="M30.87 68.54l.28-.03c0 .11-.01.33-.02.44l-.26-.41z"/>
    <g fill="#7b191e">
        <path d="M39.76 72.85c4.25-1.39 9.21-.51 12.5 2.61 1.33 1.86 2.37 3.89 3.51 5.87-2.73-1.93-5.9-4.46-9.45-2.97-5.09 1.03-5.86 7.77-3.2 11.44 2.03 2.01 4.93 3.22 7.79 3.23 2.4-1.04 3.88-3.36 5.62-5.2-.45 1.71-.97 3.4-1.56 5.07-3.29.78-6.85 1.8-10.08.22-5.44-1.85-8.3-7.62-8.82-13.03-.39-2.8.77-6.28 3.69-7.24m.86 7.11c2.24-1.7 4.58-3.26 6.79-5.02-3.16.21-5.64 2.12-6.79 5.02zM54.29 94.74c.89.8 1.82 1.56 2.76 2.31-.72.14-2.17.41-2.9.55l.13 2.13c-.25-.99-.52-1.96-.79-2.94.57-.03 1.71-.08 2.28-.11l-1.48-1.94z"/>
    </g>
    <path fill="#7b181e" d="M76.65 76.51c3.31-3.79 8.76-5.53 13.59-3.87 2.77.6 3.81 3.85 3.74 6.37-.29 5.56-2.92 11.82-8.69 13.58 1.09-2.26 2.49-4.38 3.34-6.75 1.34-4.42-3.31-8.93-7.71-7.89-3.85.07-5.77 3.88-7.56 6.71l-.59.98c.48-3.34 2.16-6.29 3.88-9.13m7.69-.27c.88 1.13 3.21 2.04 4.7 2.47.47-2.22-3.03-3.56-4.7-2.47z"/>
    <path fill="#500f11" opacity=".56" d="M98.91 76.02c.68-.99 1.38-1.97 2.07-2.95.01.88.04 2.63.05 3.51.89-.17 2.69-.51 3.59-.69-.94.75-1.89 1.49-2.84 2.23l-.6-.54c-.31-.26-.92-.78-1.22-1.04-.22.48-.65 1.45-.86 1.94-.38.59-1.13 1.78-1.51 2.37.17-.85.5-2.54.67-3.39-.84-.85-1.67-1.69-2.5-2.54 1.05.36 2.1.73 3.15 1.1z"/>
    <path fill="#070102" opacity=".12" d="M84.34 76.24c1.67-1.09 5.17.25 4.7 2.47-1.49-.43-3.82-1.34-4.7-2.47z"/>
    <g fill="#ce2831">
        <path d="M99.1 78.48c.21-.49.64-1.46.86-1.94.3.26.91.78 1.22 1.04 2.24 2.42-1.2 3.43-2.08.9zM28.26 77.31c.25.85.75 2.54 1 3.38.21.7.41 1.4.61 2.1-1.15.71-2.31 1.43-3.47 2.15.54-.88 1.07-1.76 1.61-2.63-1.12-.5-2.23-1-3.34-1.5 1.14.07 2.27.14 3.41.22.04-.93.14-2.79.18-3.72zM92.06 91.33c1.05-.68 2.01-1.49 2.91-2.35l-.68 1.96 2.11.11c-.99.97-1.98 1.94-2.98 2.9-.45-.88-.9-1.75-1.36-2.62zM76.8 100.44c2.83.99 4.68-.7 6.24-2.83-.06 1.31-.12 2.62-.19 3.94 1.36.74 2.69 1.53 3.99 2.37h-2.56c-.26 0-.79 0-1.05.01-.75.71-1.4 1.49-1.97 2.36l-.48-1.26c-1.25.36-2.49.71-3.74 1.06.64-.92 1.29-1.84 1.95-2.75-.73-.96-1.46-1.93-2.19-2.9zM48.48 99.65c.48 1.22.91 2.46 1.39 3.68 1.54.3 3.08.6 4.62.92-1.32.65-2.64 1.28-3.96 1.92.3.93.89 2.79 1.19 3.71-1.08-.88-2.15-1.75-3.24-2.61-.88.72-1.78 1.43-2.68 2.14.22-.89.64-2.67.85-3.56-1.02-.47-2.03-.94-3.05-1.41 2.75-.35 4.5-2.04 4.88-4.79z"/>
    </g>
    <path fill="#bd2831" d="M57.35 90.32c5.19.98 10.71 1.23 15.78-.46.98 3.31-3.14 4.99-4.71 7.37l-.05-.03c-1.61-1.05-3.21-2.13-4.78-3.23 1.71-.54 3.43-1.08 5.12-1.71-2.71.16-5.43.21-8.11-.27-.39 1.05-.78 2.1-1.16 3.16-1.11-1.23-2.23-2.45-3.34-3.67.32-.29.94-.87 1.25-1.16z"/>
    <path fill="#af2423" d="M59.44 95.15c.38-1.06.77-2.11 1.16-3.16.99.65 2 1.3 2.99 1.98 1.57 1.1 3.17 2.18 4.78 3.23-1.29 1.01-2.69 3.31-4.57 2.12-1.65-1.17-2.97-2.72-4.36-4.17z"/>
    <path fill="#4d0f10" opacity=".59" d="M81.26 106.29c.57-.87 1.22-1.65 1.97-2.36.26-.01.79-.01 1.05-.01.31 1.63-2.5 6.14-3.02 2.37z"/>
</svg>
