<svg width="128pt" height="128pt" viewBox="0 0 128 128" xmlns="http://www.w3.org/2000/svg">
    <g fill="#fff">
        <path d="M46.6 20.51c.74-3.04 4.42-5.44 7.29-3.38 2.72 1.86 5.8 3.63 7.54 6.53 2.23-.6 6.01-2.16 7.11.94-2.42.09-4.85.19-7.27.04-4.72 2.73-10.51 3.44-14.52 7.46-.61-3.82-1.18-7.79-.15-11.59zM68.8 23.03c2.13-2.24 4.71-4.09 7.36-5.69 2.97-1.98 6.74.66 7.27 3.81.73 3.68.26 7.45-.21 11.13-3.77-4.06-9.14-5.6-14.22-7.27l-.2-1.98zM31.72 68.1c-2.42-3.04.75-1.09 1.82-.79-.33.95-.73 1.87-1.2 2.77-.29-.21-.88-.62-1.17-.82-.43-.69-1.31-2.06-1.74-2.74l2.29 1.58zM95.39 66.63c.52-.1 1.56-.31 2.07-.41.07 1.14.13 2.28.17 3.41-.65-.33-1.3-.67-1.95-1.02l-.49 1.88c.06-1.29.13-2.58.2-3.86zM100.48 71.77c.04 1.64.13 3.26.23 4.89l4.28-.44c-1.32.63-2.63 1.25-3.95 1.87.39.73 1.18 2.19 1.57 2.92-1.09-.71-2.12-1.55-3.33-2.03-.88.67-1.74 1.36-2.59 2.07.69-1.09 1.38-2.17 2.06-3.26-.99-1.03-1.99-2.04-2.97-3.08 1.2.65 2.39 1.32 3.57 2.01.39-1.64.78-3.29 1.13-4.95zM28.16 80.98c.09-1.58.17-3.17.23-4.76.38 1.57.78 3.14 1.2 4.7 1.2-.7 2.42-1.4 3.63-2.08-1.01 1.06-2.05 2.08-3.09 3.11.59 1.14 1.19 2.28 1.79 3.42-.81-.78-1.63-1.56-2.45-2.33-1.1.76-2.19 1.54-3.27 2.32.53-.97 1.06-1.95 1.58-2.92-1.29-.71-2.6-1.37-3.9-2.05 1.42.21 2.85.41 4.28.59zM91.43 91.05c1.32-.05 2.23-.75 2.76-1.92.4 1.15 2.01 2.15 1.06 3.54.26.35.8 1.06 1.07 1.42-1.67-1.35-3-.64-4.09.89.33-.87.65-1.73.95-2.6-.58-.45-1.17-.89-1.75-1.33zM38.77 91.22c.69 1.11 1.34 2.37 2.89 2.21-1.47 1.02-1.57 2.51-.98 4.13-.36-.5-1.07-1.51-1.42-2.01-.58.32-1.75.94-2.33 1.26l1.46-1.94c-.4-.39-1.2-1.16-1.6-1.55l2.1.01-.12-2.11zM75.61 95.78c.13-.59.38-1.78.51-2.37.04.64.11 1.93.14 2.57l1.73-.12-.05.67-1.7-.31c.07.43.2 1.29.26 1.72-1.07-1.03-2.16-2.05-3.24-3.07.59.23 1.76.68 2.35.91zM88.19 94.43c.62-2.25 3.2.13 2.47 1.61-.94 1.98-3.36.08-2.47-1.61zM53.94 94.67l.35 1.53.79.1c.41-.07 1.24-.19 1.66-.26-.01.75-.02 2.25-.03 3-.37-.23-1.12-.68-1.5-.91l-.54.28c-1.77.34-.55-2.78-.73-3.74zM43.57 96.93c.62-.18 1.86-.53 2.48-.7-1.02 1.1-1.85 2.36-2.66 3.62l.18-2.92zM80.37 100.62c.83-1.04 1.66-2.08 2.48-3.13.05 1.33.11 2.67.17 4 1.38.81 2.73 1.68 4.07 2.56-1.43.18-2.85.37-4.27.57-.03.96-.1 2.89-.13 3.86-.69-1.09-1.4-2.17-2.12-3.25-.91.28-2.75.83-3.66 1.11.65-1.06 1.31-2.12 1.98-3.17-.87-.96-1.75-1.89-2.59-2.88 1.36.09 2.71.2 4.07.33zM48.48 99.46c.49 1.22.98 2.44 1.46 3.66 1.6.35 3.18.77 4.76 1.17-1.36.65-2.71 1.31-4.06 1.99.39 1.17.79 2.35 1.22 3.51-1.02-.76-2.05-1.52-3.14-2.16-1.03.53-2.03 1.1-3.02 1.71.2-.81.6-2.44.8-3.26-1.12-.7-2.22-1.42-3.33-2.13 1.3-.25 2.59-.51 3.89-.75.48-1.25.95-2.49 1.42-3.74zM60.52 106.74c.14-.5.42-1.51.55-2.02.13.48.39 1.44.51 1.91.53-.14 1.59-.41 2.12-.55-1.35 1.03-1.67 2.31-.96 3.84-.87-.47-1.74-.93-2.61-1.37-.38-.56-1.13-1.7-1.5-2.26.47.11 1.42.34 1.89.45z"/>
    </g>
</svg>
