<svg width="128pt" height="128pt" viewBox="0 0 128 128" xmlns="http://www.w3.org/2000/svg">
    <path fill="#f6f6f6" opacity=".96" d="M63.17 9.79c2.7-.13 4.49 1.67 4.09 4.52-.36-.1-1.09-.32-1.45-.42-.46-.93-.95-1.84-1.48-2.72-1 1.47-1.44 3.22-2.28 4.77-.65-2.24-.38-4.41 1.12-6.15z"/>
    <path fill="#f7f7f7" opacity=".97" d="M65.27 15.16c1.44.21.57 2.34.91 3.44.51 1.35 1.53 2.4 2.53 3.41-1.94.65-3.34-.03-4.12-1.84-1.22 1.15-2.71 2.95-4.62 1.78 2.79-1.62 1.98-6 5.3-6.79z"/>
    <g fill="#fff">
        <path d="M56.42 23.99c-.57-1.53.29-3.04 1.12-4.27 1.19 1.81 2.73 3.87 5.18 3.4.46-.55 1.37-1.66 1.82-2.22.63 4.64 4.97 1.72 5.89-.8l1.65 1.13c.78 3.57-2.17 5.82-5.22 6.69-1.09-.76-2.04-1.64-2.08-3.07-1.03 1.07-2.11 2.11-3.23 3.09-1.93-.94-4.44-1.65-5.13-3.95zM62.16 67.09c1.53.8 3.21.55 4.84.29.48 2.66-1.35 5.03-1.04 7.68-.14 1.94 1.65 3.79.46 5.63 1 5.41.09 10.9-.23 16.32-.28 7.69-2.6 15.11-5.41 22.21-1.24-.44-2.45-.93-3.67-1.41 2.8-3.55 4.7-7.67 6.32-11.86-.58-.16-1.74-.47-2.32-.63l.71 2.71c-.61-1.02-1.17-2.06-1.72-3.09-.54 4.82-2.42 9.43-4.68 13.68-1.18.46-2.33-.71-3.47-.89 6.55-8.32 9.29-18.87 9.53-29.31l.14.57c1.07 5.4-.27 10.79-1.04 16.12.78-.34 1.57-.83 1.5-1.82.6-4.41 1.08-8.86.81-13.31.25-1.57.58-3.12.93-4.66-.52-.01-1.04-.02-1.56-.02-.02-1.88.55-4.02-.75-5.62 1.22-3.37 1.75-7.23-.24-10.44.29-.72.59-1.44.89-2.15M63 77.15c0 .68-.01 2.05-.01 2.73.89.73 2.67 2.21 3.57 2.95-2.46-1.93-.09-4.6-1.61-6.87L63 77.15m-.54 4.21c5.09 1.97 1.15 8 3.47 11.52.16-3.42.47-6.88 0-10.29-.87-.31-2.6-.92-3.47-1.23m1.92 14.86c-.04 1.97-1.15 4.02-.45 5.93 1.84-.99 1.62-4.69.45-5.93m-1.39 9.06c1.16-.62 1.47-1.66.94-3.13-1.15.69-1.46 1.74-.94 3.13z"/>
    </g>
    <path fill="#828282" opacity=".51" d="M61.73 85.29l.53.01c.52 0 1.04.01 1.56.02-.35 1.54-.68 3.09-.93 4.66l-1.27-.99-.14-.57c-.03-1.04.05-2.09.25-3.13z"/>
</svg>
