<svg width="128pt" height="128pt" viewBox="0 0 128 128" xmlns="http://www.w3.org/2000/svg">
    <path fill="#c6c6c6" opacity=".78" d="M48.95 16.63c4.09 4.44.62 10.32-2.9 13.82-.01.52-.01 1.57-.01 2.09 2.99 2.49 6.5 4.2 10.14 5.51.57-.48 1.14-.95 1.71-1.43-.71-3.29-1.5-6.56-2.7-9.71 3.74 3.36 2.76 8.85 4.98 12.95 1.25.32 2.83 1.75 3.96.39 3.38-2.4 3.8-6.95 2.82-10.67 3.03 1.45 1.55 4.94 1.13 7.42-.46 3.05-3.24 4.88-5.2 6.99-3.8 1.84-8.15.74-12.19 1 .87-.56 1.75-1.1 2.64-1.63 2.98.6 5.88-.49 8.85-.57-1.62-1.07-3.32-2.08-4.53-3.64-2.22-.02-4.46-.14-6.45-1.23-2.39-1.79-5.57-3.09-6.45-6.23-.31.47-.63.95-.93 1.43 2.01 2.1 1.76 5.34 2.29 8.02 1.85 1.15 3.86 2.2 6.15 1.95-.84.5-1.69.99-2.55 1.47-1.41-.31-2.83-.5-4.27-.58-5.4 3.9-12.93 3.06-18.51-.04-3.19-1.87-7.15.06-10.29-1.63 5.18-1.48 10.72-.94 15.39 1.82-.68-3-.43-6.05-.09-9.08.48-3.43-1.46-6.45-2.97-9.35l1.94 1.27c3.93 4.97.64 11.52 3.21 16.9 2.38 1.41 5.1.56 7.6.02.73-.59 1.47-1.17 2.21-1.75.74-3.61-.08-7.18-.81-10.71l-1.06.07c.39-.49.76-.98 1.14-1.47-.38-.42-1.13-1.25-1.51-1.66-1.27-1.45-2.64-2.83-4.02-4.17-1.65-.48-3.25-1.11-4.79-1.88 5.12-.58 8.98 3.21 11.34 7.29 1.88-1.7 3.78-3.54 4.89-5.84 1.16-2.29.02-4.78-.16-7.14z"/>
</svg>
