<svg width="128pt" height="128pt" viewBox="0 0 128 128" xmlns="http://www.w3.org/2000/svg">
    <path fill="#270909" opacity=".41" d="M35.56 13.43c.6.01 1.81.04 2.41.06-.73 1.88-1.91 3.53-3.62 4.64-.2-.47-.59-1.41-.79-1.88l-.15-.34c.72-.83 1.43-1.66 2.15-2.48z"/>
    <g fill="#ad2829">
        <path d="M55.41 14.26c6.37-.65 11.04 4.21 14.51 8.84 5.43 7.28 7.39 16.92 5.19 25.73-.61 1.78-1.73 3.32-2.71 4.91-.6-1.89-1.17-3.79-1.75-5.68-5.48 4.53-7.37 11.6-8.49 18.31-2.72-5.73 1.02-11.77 3.7-16.79 5.99-8.29 4.27-19.94-1.64-27.78-.39-.92-1.04-1.6-1.94-2.04-2.38-1.7-5-3.2-6.87-5.5zM79.55 18.06c2.61 4.12 4.02 8.83 5.59 13.41.85 3.25 1.51 6.54 2.14 9.83-.62 7.48-2.66 15.23-8.41 20.45-.18-1.52-.33-3.05-.46-4.58 3.03-5.91 4.44-12.55 4.35-19.17.16-6.81-2.35-13.26-3.21-19.94zM25.14 19.06c.31.11.95.31 1.26.41-2 8.27-1.22 16.86-.2 25.21-.08.3-.24.89-.32 1.18l1.99-.4c1.06 2.69 2.04 5.42 3.08 8.12 1.39 5.31 6.16 8.46 9.34 12.61-3.59-1.61-6.53-4.23-9.51-6.72 3.55 4.88 8.74 8.17 12.67 12.72-4.84-2.1-9.26-5.21-12.76-9.16-4.04-4.79-6.16-10.81-8.11-16.68.44-.67.9-1.33 1.37-1.98 1.34 5.66 3.42 11.38 7.54 15.65-1.24-2.86-2.87-5.52-4.21-8.32-2.02-4.22-2.85-8.86-4.14-13.33.02 1.98.07 3.96.14 5.94-.24-.07-.72-.22-.96-.3-.24-.65-.71-1.97-.95-2.62-1.04-3.32-1.3-6.83-.79-10.27.89 2.46 1.59 4.97 2.33 7.47.21-2.84.26-5.68.32-8.52.02-.45.07-1.36.09-1.81.38-2.61.94-5.18 1.49-7.76.08-.36.25-1.08.33-1.44zM39.8 40.62c1.19.42 2.38.85 3.57 1.3.41.24 1.23.71 1.64.94.67 1.55 2.65 3.16 1.79 4.96-1.49.13-2.97-.22-4.45-.4-.41-1.17-.84-2.34-1.29-3.5l-.15-.39c-.28-.73-.83-2.19-1.11-2.91zM90.87 51.45c.63-1.82 1.24-3.67 2.39-5.25.34 6.7-1.49 13.42-4.85 19.19-1.95 3.18-5.52 4.74-8.87 5.98 3.47-6.82 9.06-12.48 11.33-19.92z"/>
        <path d="M48.4 48.93c.25-.07.74-.19.98-.25 2.48 2.57 3.61 6.14 5.74 8.99-1.19-.15-2.37-.31-3.56-.46.87 1.26 1.75 2.51 2.62 3.77.73 1.03 1.42 2.09 2.09 3.17.25.38.74 1.15.99 1.53 4.82 2.63 10.34 3.05 15.71 3.44 1.62.45 3.22 1 4.8 1.58 1.64 1.18 3.34 2.26 5.06 3.33l-3.94.24-.55-.91c-5.25-2.04-11.07-1.23-16.32-3.21-.83-.33-1.61-.74-2.35-1.22-2.9-2.94-6.36-5.53-8.41-9.16-.94-3.62-1.31-7.39-2.86-10.84z"/>
        <path d="M64.5 62.16c.9-4.13 3.22-7.85 6.69-10.31.31 3.16.18 6.33.04 9.5 1.14-2.1.46-6.96 4.02-5.91.82 3.84-1.2 7.64-4.04 10.11.05-1.05.14-3.15.19-4.2-.67.47-2 1.43-2.66 1.91-.02-.85-.07-2.54-.09-3.39-1.39.76-2.76 1.54-4.15 2.29zM43 54.18c.79-.26 2.35-.77 3.13-1.03.04 1.08.1 3.24.14 4.32.36-.84 1.1-2.52 1.46-3.35 1.01 2.45 1.09 5.11.91 7.73 2.65 1.81 5.17 3.81 7.33 6.2l.86 1.36c-1.12-.38-2.22-.77-3.32-1.2-3.54-1.47-5.8-4.63-7.34-8.01-.66.14-1.99.43-2.66.57-.32-2.17-1.32-4.42-.51-6.59zM88.99 65.99c2.53-3.23 3.51-7.28 4.87-11.07l.09 2.47c-.03 1.06-.04 2.12-.01 3.18l-.12 1.12c-1.92 4.73-4.29 9.76-8.86 12.48-1.16-.78-2.22-1.68-3.3-2.56 2.61-1.62 5.42-3.14 7.33-5.62zM63.73 66.6c.87-1 1.51-2.73 3.12-2.59 2.02.66 3.38 2.38 4.67 3.97-2.66.01-5.29-.46-7.79-1.38zM74.33 68.54c1.27-1.38 2.54-2.75 3.83-4.11.04.86.14 2.59.19 3.46-.34.53-1.04 1.6-1.38 2.14-.66-.37-1.98-1.12-2.64-1.49zM40.31 66.78c2.29-.13 4.58-.24 6.86-.02 1.18.37 2.31.88 3.45 1.36-.78.27-2.34.81-3.13 1.08l-.17.07c-.15.75-.46 2.27-.62 3.02-2.21-1.73-4.37-3.55-6.39-5.51zM84.44 76.04c2.65-2.63 5.31-5.25 8.15-7.69-.76 1.88-1.52 3.78-2.61 5.5-1.47 1.65-3.21 3.7-5.54 2.19zM50.99 70.71c.25-.23.77-.68 1.03-.9 2.14.36 4.25.97 6.18 2 1.76 1.26 3.37 2.73 5.02 4.14-1.35-.04-2.69-.12-4.02-.27-2.97-1.25-5.57-3.17-8.21-4.97z"/>
        <path d="M61.87 72.32l1.11.18c4.94.81 9.94 1.74 14.43 4.04-1.1.6-2.2 1.2-3.3 1.79-1.93-1-3.89-1.96-5.85-2.9-.58.5-1.16 1-1.73 1.5 1.92 1.11 3.62 2.54 4.97 4.3-1.17-.04-3.52-.13-4.69-.17-.62-.26-1.88-.78-2.5-1.04-1.45.28-3.09 1.39-4.43.21-.38-.92-.73-1.86-1.03-2.8h2.88l-.06 2c1.61-.97 3.26-1.88 4.91-2.8-.24-.49-.72-1.48-.96-1.97-1.32-.66-2.56-1.47-3.75-2.34zM79.19 74.79l3.18-.44c2.33 2.31 4.59 4.68 6.73 7.16-.27-1.07-.83-3.21-1.1-4.28l1.39-.03c1.93 2.18 3.75 4.48 5.46 6.84 3.79 5.99-2.3 16.59-9.57 12.77-.48-1.29.24-1.94 2.14-1.97 1.98-.54 4.15-1.27 5.22-3.17 1.12-3.8-.95-7.91-4.31-9.81-2.68-2.2-5.55-4.14-8.5-5.96-.16-.27-.48-.83-.64-1.11zM30.33 75.92c6.29 1.21 12.56 2.47 18.89 3.45-3.4 1.01-6.85 1.84-10.28 2.72-1.42-.63-2.83-1.25-4.22-1.95-1.77-1.04-3.05-2.71-4.39-4.22z"/>
        <path d="M76.44 79.4c.66.04 1.98.1 2.64.14 2.48.97 4.87 2.2 7.13 3.62-2.69-.53-5.35-1.19-7.96-2.01-.45-.44-1.35-1.31-1.81-1.75zM73.85 79.78c1.81.78 3.62 1.58 5.44 2.34 3.99 1.61 7.99 3.32 11.43 5.97.36 3.25-1.54 6.1-4.81 6.71-4.98-.68-9.68-2.74-14.75-3.01l1.67-1.15c4.4.08 8.89 1.52 13.23.2-.27-1.79-1.67-2.99-3.02-4.04-.46-.2-1.39-.61-1.85-.81-1.9-.59-3.83-1.03-5.76-1.51-.53-1.57-1.06-3.13-1.58-4.7z"/>
        <path d="M68.46 83.12c1.9-2.74 2.77 1.54 3.72 2.98-.02.8-.05 2.4-.07 3.2-1.7-1.07-3.35-2.22-4.99-3.37.42-.95.87-1.89 1.34-2.81zM61.4 83.88c.29.15.86.46 1.14.61.7 3.1-.7 6.29-1.53 9.27-3.76-2.3-2.82-7.56.39-9.88zM63.3 90.2c.7-1.9 1.44-3.79 2.22-5.66 1.05 2.86 2.35 5.61 3.51 8.43-2.11-.48-4.05-1.41-5.73-2.77zM66.72 103.51c.36-3.37 3.21-5.6 6.45-5.91-.89 1.14-1.83 2.25-2.68 3.43-.34 1.61-.72 3.28-.43 4.94.98 1.8 2.9 2.84 4.38 4.2-2.02-.13-4.18.39-6.09-.44-1.52-1.67-1.48-4.11-1.63-6.22z"/>
    </g>
    <path fill="#af2929" d="M67.72 14.71c7.71 3.88 11.87 12.5 13.07 20.73 1.44 7.13-.26 14.48-3.01 21.08l-1.25.9c-2.71-5.8 1.12-11.49.82-17.4-.26-7.06-2.13-14.19-6-20.15-1.16-1.76-2.51-3.38-3.63-5.16z"/>
    <g fill="#af2829">
        <path d="M33.56 16.25c.2.47.59 1.41.79 1.88-2.05 3.68-4.08 7.44-4.8 11.64 4.07-6.23 9.26-13.02 17.26-13.88-1.03 1.48-2.37 2.47-4.01 2.97-1.05.17-1.72.78-2.01 1.82-2.56 3.86-5.79 7.45-6.91 12.11-1.26 4.37-1.25 9.06-.02 13.44 1.18 4.55 3.03 9.1 6.49 12.42 1.92 1.98 3.98 3.82 5.99 5.71l-4.19-.42c-5.1-1.64-8.36-6.1-11.2-10.36-1.04-2.7-2.02-5.43-3.08-8.12l-1.99.4c.08-.29.24-.88.32-1.18l.28-.96c-.04-4.57-.76-9.22.36-13.73 1.1-5.04 3.43-9.76 6.72-13.74zM88.32 37.49c3.16 8.94.83 19.39-5.03 26.73-1.08 1.18-2.15 3.29-4.02 2.13.7-2.67 1.69-5.28 3.34-7.53 3.31-4.65 5.18-10.31 4.97-16.03.19-1.33.55-3.98.74-5.3zM91.02 102.12c3.47-1.39 6-4.78 9.93-5.06 7.29-.8 14.73.42 21.67 2.65-8.49 1.68-16.95-2.06-25.47-.37 6.06 1.5 12.29 2.09 18.41 3.27-3.59.67-7 1.98-10.13 3.85-3.9 2.51-8.26-.73-12.44-.32-4.36-.48-7.66 3.27-11.91 3.17l.53-.6.34-.37c1.95-1.81 3.75-3.95 6.27-5.01.93-.4 1.87-.8 2.8-1.21m11.39 1.17c-1.32 1.44 1.4 2.45 2.22 1.19 1.36-1.44-1.41-2.47-2.22-1.19z"/>
    </g>
    <path fill="#701a1a" opacity=".81" d="M40.79 20.68c.29-1.04.96-1.65 2.01-1.82.33 1.67-.34 2.28-2.01 1.82z"/>
    <path fill="#0d0303" opacity=".3" d="M62.28 19.76c.9.44 1.55 1.12 1.94 2.04-1.78.42-2.43-.26-1.94-2.04z"/>
    <path fill="#010000" opacity=".16" d="M71.35 19.87c3.87 5.96 5.74 13.09 6 20.15.3 5.91-3.53 11.6-.82 17.4l1.25-.9.53-.38.1 1.03c.13 1.53.28 3.06.46 4.58.03.83.11 2.47.15 3.3-.53-.97-1.04-1.95-1.52-2.94-.21-.78-.64-2.34-.85-3.12-1.36 2.08-2.66 4.2-3.96 6.32.39.54 1.19 1.63 1.59 2.18l-1.31 1.63c-5.37-.39-10.89-.81-15.71-3.44-.25-.38-.74-1.15-.99-1.53 1.16.29 2.32.58 3.48.88.92-5.45 1.2-11.9 6.11-15.45-2.68 5.02-6.42 11.06-3.7 16.79 1.12-6.71 3.01-13.78 8.49-18.31.58 1.89 1.15 3.79 1.75 5.68.98-1.59 2.1-3.13 2.71-4.91 2.2-8.81.24-18.45-5.19-25.73.47-1.07.95-2.15 1.43-3.23M64.5 62.16c1.39-.75 2.76-1.53 4.15-2.29.02.85.07 2.54.09 3.39.66-.48 1.99-1.44 2.66-1.91-.05 1.05-.14 3.15-.19 4.2 2.84-2.47 4.86-6.27 4.04-10.11-3.56-1.05-2.88 3.81-4.02 5.91.14-3.17.27-6.34-.04-9.5-3.47 2.46-5.79 6.18-6.69 10.31m-.77 4.44c2.5.92 5.13 1.39 7.79 1.38-1.29-1.59-2.65-3.31-4.67-3.97-1.61-.14-2.25 1.59-3.12 2.59z"/>
    <path fill="#1d0707" opacity=".42" d="M23.32 28.26c-.06-2.63-.69-5.75 1.49-7.76-.55 2.58-1.11 5.15-1.49 7.76z"/>
    <g fill="#0e0303">
        <path opacity=".35" d="M19.34 31.57c1.3-.5 2.59-1 3.89-1.5-.06 2.84-.11 5.68-.32 8.52-.74-2.5-1.44-5.01-2.33-7.47-.51 3.44-.25 6.95.79 10.27l-1.11.35c-.7-3.35-.93-6.76-.92-10.17zM51.56 57.21c1.19.15 2.37.31 3.56.46l.68.08c-.54 1.08-1.08 2.15-1.62 3.23-.87-1.26-1.75-2.51-2.62-3.77z"/>
    </g>
    <g fill="#010000">
        <path opacity=".21" d="M85.14 31.47c1.22 1.32 1.77 3.03 2.33 4.7 1.13 1.09 2.78 2.03 2.74 3.83.35 3.81.13 7.65.66 11.45-2.27 7.44-7.86 13.1-11.33 19.92 3.35-1.24 6.92-2.8 8.87-5.98 3.36-5.77 5.19-12.49 4.85-19.19.43 2.88.96 5.81.6 8.72-1.36 3.79-2.34 7.84-4.87 11.07-1.91 2.48-4.72 4-7.33 5.62 1.08.88 2.14 1.78 3.3 2.56 4.57-2.72 6.94-7.75 8.86-12.48-.28 2.16-.63 4.32-1.02 6.47l-.21.19c-2.84 2.44-5.5 5.06-8.15 7.69 2.33 1.51 4.07-.54 5.54-2.19-.18 1.11-.27 2.26-.59 3.35l-1.39.03c.27 1.07.83 3.21 1.1 4.28-2.14-2.48-4.4-4.85-6.73-7.16l-3.18.44-.3-.52 3.94-.24c-1.72-1.07-3.42-2.15-5.06-3.33-.2-.17-.6-.5-.8-.67.34-.54 1.04-1.61 1.38-2.14.32-.51.62-1.02.92-1.54 1.87 1.16 2.94-.95 4.02-2.13 5.86-7.34 8.19-17.79 5.03-26.73-.19 1.32-.55 3.97-.74 5.3l-.3-1.49c-.63-3.29-1.29-6.58-2.14-9.83zM45.01 42.86c2.14 1.34 3.43 3.55 4.37 5.82-.24.06-.73.18-.98.25 1.55 3.45 1.92 7.22 2.86 10.84 2.05 3.63 5.51 6.22 8.41 9.16l-1.44-.31c-.56-.15-1.7-.43-2.26-.57-2.16-2.39-4.68-4.39-7.33-6.2.18-2.62.1-5.28-.91-7.73-.36.83-1.1 2.51-1.46 3.35-.04-1.08-.1-3.24-.14-4.32-.78.26-2.34.77-3.13 1.03-.81 2.17.19 4.42.51 6.59.67-.14 2-.43 2.66-.57 1.54 3.38 3.8 6.54 7.34 8.01-.37.4-1.12 1.2-1.49 1.6-.26.22-.78.67-1.03.9-.76.9-1.64 1.22-2.65.94-.21-.62-.63-1.84-.85-2.45.79-.27 2.35-.81 3.13-1.08-1.14-.48-2.27-.99-3.45-1.36-2.65-.63-5.38-1.14-7.75-2.56.68-.06 2.05-.19 2.73-.26l4.19.42c-2.01-1.89-4.07-3.73-5.99-5.71 1.5-1.3 1.57-3.36 2.25-5.09.4-.78 1.2-2.32 1.6-3.1-2.09-1.36-4.2-2.69-6.34-3.98l.75 2.56c-.44-1.1-.87-2.2-1.29-3.3 1.14.37 2.29.75 3.43 1.14.08-.74.24-2.22.31-2.96.45 1.16.88 2.33 1.29 3.5 1.48.18 2.96.53 4.45.4.86-1.8-1.12-3.41-1.79-4.96m-.87 5.17c.85 2.28 1.71 4.96 4.31 5.79-.62-2.43-1.17-5.55-4.31-5.79z"/>
    </g>
    <path fill="#310b0b" opacity=".57" d="M33.86 46.23c-1.23-4.38-1.24-9.07.02-13.44-.19 4.48-.18 8.96-.02 13.44z"/>
    <g fill="#1e0607">
        <path opacity=".5" d="M23.14 38.37c1.29 4.47 2.12 9.11 4.14 13.33 1.34 2.8 2.97 5.46 4.21 8.32-4.12-4.27-6.2-9.99-7.54-15.65-.47.65-.93 1.31-1.37 1.98 1.95 5.87 4.07 11.89 8.11 16.68 3.5 3.95 7.92 7.06 12.76 9.16-3.93-4.55-9.12-7.84-12.67-12.72 2.98 2.49 5.92 5.11 9.51 6.72-3.18-4.15-7.95-7.3-9.34-12.61 2.84 4.26 6.1 8.72 11.2 10.36-.68.07-2.05.2-2.73.26 2.37 1.42 5.1 1.93 7.75 2.56-2.28-.22-4.57-.11-6.86.02 2.02 1.96 4.18 3.78 6.39 5.51.16-.75.47-2.27.62-3.02l.17-.07c.22.61.64 1.83.85 2.45 1.01.28 1.89-.04 2.65-.94 2.64 1.8 5.24 3.72 8.21 4.97-.64.1-1.92.28-2.56.37-.92.12-1.83.31-2.73.57-.67.15-2.03.46-2.7.62-.32.71-.64 1.43-.95 2.15 1.4.42 2.75.98 3.97 1.8 1.41-.01 2.82-.04 4.23-.07-.01.57-.02 1.72-.03 2.29-2.03 3.71-6.23 5.7-8.19 9.31 1.41.15 2.83.15 4.25.17l.26.86c-1.84-.01-3.68-.02-5.51-.11l-.16-2.77c-1.58-.1-3.29.58-4.77-.06-.5-1.14-.69-2.36-.95-3.56 4.18-.05 6.6-3.78 9.15-6.53-4.55 1.08-9.74.68-13.42 4.04 1.07.66 2.15 1.3 3.24 1.93-.66-.02-1.97-.07-2.63-.09-.4-3.01-2.67-4.83-4.98-6.46 1.39.7 2.8 1.32 4.22 1.95 3.43-.88 6.88-1.71 10.28-2.72-6.33-.98-12.6-2.24-18.89-3.45-.3-.16-.9-.49-1.2-.66 1.9-.28 3.81-.5 5.72-.75 4.78 2.63 10.35 2.9 15.66 3.42-5.87-3.08-12.27-5.48-16.94-10.39-4.86-4.3-7.37-10.4-10.74-15.78l-.33 2.41c-.76-3.26-1.12-6.99-.18-10.16.24.08.72.23.96.3-.07-1.98-.12-3.96-.14-5.94m24.08 34.8l-.55.52c1.3 2.79 5.07 2.05 7.58 2.4-1.41-1.33-2.81-2.68-4.19-4.06-.71.29-2.13.85-2.84 1.14m7.34 8.88c-1.85 4.31-7.69 4.24-9.72 8.07 5.78 1.22 11.14-3.23 13-8.46-.82.1-2.46.3-3.28.39zM87.28 41.3l.3 1.49c.21 5.72-1.66 11.38-4.97 16.03-1.65 2.25-2.64 4.86-3.34 7.53-.3.52-.6 1.03-.92 1.54-.05-.87-.15-2.6-.19-3.46-1.29 1.36-2.56 2.73-3.83 4.11.66.37 1.98 1.12 2.64 1.49.2.17.6.5.8.67-1.58-.58-3.18-1.13-4.8-1.58l1.31-1.63c1.31-1.64 2.41-3.44 3.22-5.38.48.99.99 1.97 1.52 2.94-.04-.83-.12-2.47-.15-3.3 5.75-5.22 7.79-12.97 8.41-20.45zM79.83 75.9c2.95 1.82 5.82 3.76 8.5 5.96.86 2.05 1.68 4.12 2.39 6.23-3.44-2.65-7.44-4.36-11.43-5.97l-1.04-.97c2.61.82 5.27 1.48 7.96 2.01-2.26-1.42-4.65-2.65-7.13-3.62.29-1.21.54-2.42.75-3.64m2.12 3.13c.57.53.57.53 0 0-.6-.51-.6-.51 0 0m4.25 4.22c.59.55.59.55 0 0z"/>
        <path opacity=".5" d="M94.85 84.04c3.29 2.56 1.52 7.19.58 10.48 1.26-.46 2.51-.91 3.77-1.36-2.96 2.42-5.83 4.97-9.09 6.99-1.82-2.21-4.71-1.51-7.2-1.77-1.99.07-3.6-1.24-5.17-2.26 1.71.48 3.47 1.02 5.28.7-3.45-3.25-8.84-5.15-13.14-2.36 2.4.46 4.81.82 7.17 1.47-2.54-.13-5.08.01-7.6.19.38-1.47.76-2.94 1.15-4.41l.56.08c5.07.27 9.77 2.33 14.75 3.01l1.51.04c-1.9.03-2.62.68-2.14 1.97 7.27 3.82 13.36-6.78 9.57-12.77zM115.63 88.93c.37 2.73-.2 5.43-1.07 8.01 3.07.47 6.1 1.14 9.1 1.95-.2.68-.44 1.34-.7 2-2.5.46-5.08.59-7.4 1.72-6.12-1.18-12.35-1.77-18.41-3.27 8.52-1.69 16.98 2.05 25.47.37-6.94-2.23-14.38-3.45-21.67-2.65-3.93.28-6.46 3.67-9.93 5.06l-1.94.51c2.71-2.52 5.53-5.26 9.21-6.25 4.53-1.25 9.22-.11 13.82-.31 3.13-.73 3.14-4.59 3.52-7.14z"/>
    </g>
    <path fill="#210707" opacity=".44" d="M38.49 39.67c1.77.4 3.76.63 4.88 2.25-1.19-.45-2.38-.88-3.57-1.3.28.72.83 2.18 1.11 2.91-1.25-.98-1.96-2.37-2.42-3.86z"/>
    <path fill="#ad2727" opacity=".98" d="M37.86 46.48c2.14 1.29 4.25 2.62 6.34 3.98-.4.78-1.2 2.32-1.6 3.1-1.41-1.42-3.1-2.68-3.99-4.52l-.75-2.56z"/>
    <path fill="#8d2220" opacity=".93" d="M44.14 48.03c3.14.24 3.69 3.36 4.31 5.79-2.6-.83-3.46-3.51-4.31-5.79z"/>
    <path fill="#b02929" d="M22.83 51.76c3.37 5.38 5.88 11.48 10.74 15.78 4.67 4.91 11.07 7.31 16.94 10.39-5.31-.52-10.88-.79-15.66-3.42-1.01-.84-1.9-1.79-2.67-2.85-.55-.97-1.26-1.82-2.09-2.55-.73-.71-1.33-1.52-1.8-2.41-.28-.45-.84-1.34-1.12-1.79-.26-.54-.76-1.62-1.01-2.16-.31-.43-.93-1.28-1.24-1.7-.17-.6-.52-1.79-.69-2.39.01-1.01-.33-1.88-1.02-2.62-.18-.47-.54-1.41-.71-1.87l.33-2.41z"/>
    <path fill="#290a09" opacity=".53" d="M23.21 56.04c.69.74 1.03 1.61 1.02 2.62-1.77-.24-2.11-1.11-1.02-2.62z"/>
    <path fill="#040102" opacity=".33" d="M93.95 57.39c1.99-.51 1.95 3.69-.01 3.18-.03-1.06-.02-2.12.01-3.18z"/>
    <path fill="#a12427" opacity=".96" d="M72.69 65.31c1.3-2.12 2.6-4.24 3.96-6.32.21.78.64 2.34.85 3.12-.81 1.94-1.91 3.74-3.22 5.38-.4-.55-1.2-1.64-1.59-2.18z"/>
    <path fill="#360c0d" opacity=".58" d="M24.92 61.05c.31.42.93 1.27 1.24 1.7l-.91.03-.64-.87.31-.86z"/>
    <path fill="#150505" opacity=".4" d="M27.17 64.91c.28.45.84 1.34 1.12 1.79l-.92-.03-.58-.92.38-.84z"/>
    <path fill="#360c0d" opacity=".64" d="M53.51 68.21c1.1.43 2.2.82 3.32 1.2l-.86-1.36c.56.14 1.7.42 2.26.57-.01.79-.02 2.39-.03 3.19-1.93-1.03-4.04-1.64-6.18-2 .37-.4 1.12-1.2 1.49-1.6z"/>
    <path fill="#170505" opacity=".36" d="M30.09 69.11c.83.73 1.54 1.58 2.09 2.55-1.48 1.31-3.56-1.34-2.09-2.55z"/>
    <path opacity=".1" d="M62.02 70.15c5.25 1.98 11.07 1.17 16.32 3.21l.55.91.3.52c.16.28.48.84.64 1.11-.21 1.22-.46 2.43-.75 3.64-.66-.04-1.98-.1-2.64-.14.46.44 1.36 1.31 1.81 1.75l1.04.97c-1.82-.76-3.63-1.56-5.44-2.34.52 1.57 1.05 3.13 1.58 4.7 1.93.48 3.86.92 5.76 1.51-3-.17-6.01-.16-9.01.11-.95-1.44-1.82-5.72-3.72-2.98-.41-.51-1.23-1.54-1.65-2.06 1.17.04 3.52.13 4.69.17-1.35-1.76-3.05-3.19-4.97-4.3.57-.5 1.15-1 1.73-1.5 1.96.94 3.92 1.9 5.85 2.9 1.1-.59 2.2-1.19 3.3-1.79-4.49-2.3-9.49-3.23-14.43-4.04l-.96-2.35m9.93 12.31c-.86 1.05.71 2.85 1.88 2.21.77-1.01-.75-2.78-1.88-2.21z"/>
    <path fill="#ad2728" d="M47.22 73.17c.71-.29 2.13-.85 2.84-1.14 1.38 1.38 2.78 2.73 4.19 4.06-2.51-.35-6.28.39-7.58-2.4l.55-.52z"/>
    <path fill="#631719" opacity=".73" d="M53.91 76.62c.9-.26 1.81-.45 2.73-.57 1.55 2.51-3.82 3.81-2.73.57z"/>
    <g fill="#a52829">
        <path d="M81.95 79.03c-.6-.51-.6-.51 0 0zM81.95 79.03c.57.53.57.53 0 0z"/>
    </g>
    <g fill="#b52829">
        <path d="M39.09 84.76c3.68-3.36 8.87-2.96 13.42-4.04-2.55 2.75-4.97 6.48-9.15 6.53l-1.03-.56c-1.09-.63-2.17-1.27-3.24-1.93zM64.59 100.32l.67-.06c-.4 3.66-.93 8.43 2.8 10.62 3.89 1.89 7.78-1.3 11.33-2.64.64.02 1.92.08 2.56.1l-.34.37c-.46.22-1.38.67-1.84.9-1.05 1.31-2.11 2.63-3.36 3.76-3.07 1.47-6.51 1.79-9.82 1.08-1.26-1.06-2.43-2.22-3.52-3.45-.62-2.83-.56-5.74-.33-8.62.46-.51 1.39-1.54 1.85-2.06z"/>
    </g>
    <path fill="#ab2828" d="M54.56 82.05c.82-.09 2.46-.29 3.28-.39-1.86 5.23-7.22 9.68-13 8.46 2.03-3.83 7.87-3.76 9.72-8.07z"/>
    <path fill="#a22627" opacity=".97" d="M58.43 83.41c.52-.45 1.57-1.33 2.09-1.78l-.53 1.38c-1.18 2.94-2.6 5.77-4.02 8.6l-.64 1.28h-.84c-1.42-.02-2.84-.02-4.25-.17 1.96-3.61 6.16-5.6 8.19-9.31z"/>
    <path fill="#a32828" opacity=".97" d="M71.95 82.46c1.13-.57 2.65 1.2 1.88 2.21-1.17.64-2.74-1.16-1.88-2.21z"/>
    <path fill="#3c0d0e" opacity=".64" d="M59.99 83.01c1.94.26 3.89.53 5.83.79l-.3.74c-.78 1.87-1.52 3.76-2.22 5.66-.53 1.43-1.01 2.88-1.5 4.33-1.77-.57-3.09-1.81-4.05-3.36-.45.11-1.34.33-1.78.44 1.42-2.83 2.84-5.66 4.02-8.6m1.41.87c-3.21 2.32-4.15 7.58-.39 9.88.83-2.98 2.23-6.17 1.53-9.27-.28-.15-.85-.46-1.14-.61z"/>
    <path fill="#ac2728" d="M86.2 83.25c.59.55.59.55 0 0z"/>
    <path opacity=".14" d="M88.33 81.86c3.36 1.9 5.43 6.01 4.31 9.81-1.07 1.9-3.24 2.63-5.22 3.17l-1.51-.04c3.27-.61 5.17-3.46 4.81-6.71-.71-2.11-1.53-4.18-2.39-6.23z"/>
    <path fill="#b2292c" d="M110.58 85.27c2.27.2 3.91 1.81 5.05 3.66-.38 2.55-.39 6.41-3.52 7.14-4.6.2-9.29-.94-13.82.31-3.68.99-6.5 3.73-9.21 6.25l1.94-.51c-.93.41-1.87.81-2.8 1.21l.68-2.4 1.21-.78c3.26-2.02 6.13-4.57 9.09-6.99.95-.74 1.97-1.42 3.09-1.89.48-.23 1.43-.68 1.91-.9 2.1-.88 4.24-2.35 6.59-2.14-.79 2.03-3.85 2.77-3.57 5.54 1.76-.14 4.01.47 5.26-1.17 2.35-2.41-.94-5.09-1.9-7.33z"/>
    <path fill="#320b0c" opacity=".54" d="M83.04 86.8c1.35 1.05 2.75 2.25 3.02 4.04-4.34 1.32-8.83-.12-13.23-.2 4.03-.97 8.12.3 12.2-.03-.67-1.27-1.33-2.54-1.99-3.81z"/>
    <path fill="#120404" opacity=".43" d="M102.42 90.35l.98-.47.8.49c-.48.22-1.43.67-1.91.9l.13-.92z"/>
    <path fill="#a62728" opacity=".98" d="M69.88 94.46c4.3-2.79 9.69-.89 13.14 2.36-1.81.32-3.57-.22-5.28-.7l-.69-.19c-2.36-.65-4.77-1.01-7.17-1.47z"/>
    <path fill="#390d0d" opacity=".62" d="M64.59 100.32c-1.87.21 1.94-1.44 2.29-1.91-.11 1.7-.23 3.39-.16 5.1.15 2.11.11 4.55 1.63 6.22 1.91.83 4.07.31 6.09.44-1.48-1.36-3.4-2.4-4.38-4.2-.29-1.66.09-3.33.43-4.94.17 2.12-.4 4.72 1.42 6.31 2.41.76 4.96.9 7.48.9-3.55 1.34-7.44 4.53-11.33 2.64-3.73-2.19-3.2-6.96-2.8-10.62l-.67.06z"/>
    <path fill="#210807" opacity=".4" d="M62.77 100.81c-.01.39-.02 1.18-.03 1.57-.23 2.88-.29 5.79.33 8.62-2.54-2.87-1.66-7-.3-10.19z"/>
    <path fill="#571414" opacity=".77" d="M102.41 103.29c.81-1.28 3.58-.25 2.22 1.19-.82 1.26-3.54.25-2.22-1.19z"/>
    <path fill="#1b0606" opacity=".37" d="M66.59 114.45c3.31.71 6.75.39 9.82-1.08-2.4 2.63-6.96 3.29-9.82 1.08z"/>
</svg>
