<svg width="128pt" height="128pt" viewBox="0 0 128 128" xmlns="http://www.w3.org/2000/svg">
    <g fill="#fff">
        <path d="M38.9 39.97c2.7 1.24 5.77 2.42 7.38 5.12 1.1 1.3 1.24 3.81 3.46 3.54 1.83 3.48 3.72 6.94 5.94 10.19-1.45-.74-2.93-1.48-4.38-2.21 1.8 3.22 4.19 6.05 6.03 9.24 4.05 1.6 8.21 3.31 12.66 3.08 4.54-.37 8.25 2.52 12.13 4.34-.66.21-2 .64-2.67.86l-.01.49c1.27.47 2.58.82 3.86 1.24 2.89 1.56 4.88 4.48 6.13 7.45-2.87-2.38-5.32-5.4-8.93-6.75.1 1.27 3.95 2.36 2.39 3.4-.18.21-.53.63-.71.84 3.1 1.28 6.55 2.73 8.15 5.91-2.35-1.47-4.61-3.12-7.26-4.03-2.28-1.02-5.11-1.43-6.51-3.73l3.75.96.07-.87.04-2.58c-1.57-.5-1.43-2.2-1.92-3.42-6.47-1.99-14-.39-19.61-4.87-3.46-3.93-8.59-6.93-8.99-12.78.8.49 2.41 1.48 3.21 1.98-2.65-2.62-3.76-6.25-5.88-9.23l-.28.86c.07 1.21.47 2.32 1.2 3.31-.18.57-.54 1.69-.73 2.26 1.93 1.7 1.56 4.36.95 6.58 3.14 2.79 6.35 5.52 9.33 8.48l-1.48.68c2.07 2.11 4.67 3.72 6.97 5.61-5.03.63-9.03-2.54-12.53-5.66 1.45-.14 2.88-.33 4.32-.57-1.72-2.63-6.04-2.88-6.65-6.44-.33-.16-.98-.5-1.31-.67-.25-.88-.76-2.63-1.01-3.51l-1.8 1.92c-1.1-2.15-3-5.68-.24-7.3 2.03-1.49 2.45 1.36 1.78 2.58.25.52.5 1.03.76 1.54.26-1.85.55-3.7.75-5.57l-1.04.56c-.8-1.24-1.1-2.46-.9-3.65l.39-.47c.13-1.61-2.29-.88-3.29-1.45-.62-2.66-1.99-5.03-3.52-7.26z"/>
        <path d="M37.69 46.07c2.23 1.58 4.48 3.12 6.64 4.79-.78 1.3-2.09 2.98-3.32 1.13-1.72-1.56-2.57-3.78-3.32-5.92zM64.46 62.01c1.3-3.88 3.36-7.56 6.56-10.18.37 3.94 1.1 8.76-2.13 11.76-.04-.9-.11-2.71-.14-3.61-1.07.51-3.22 1.52-4.29 2.03zM73.41 55.14c2-.23 2.02 2.42 1.87 3.81-.83 2.53-2.1 5.03-4.19 6.76.32-3.58.4-7.4 2.32-10.57zM72.53 66.29c1.37-2.44 2.28-5.24 4.37-7.19.12 2.41 1.31 5.17-1.32 6.81 2.23-1.4 3.23-1.09 3.01.94.22 2.32-2.53 3-4.32 2.43.55-1.11 1.14-2.19 1.75-3.27l-3.49.28zM63.77 66.44c.9-1 1.84-1.95 2.79-2.9 1.77 1.29 3.52 2.62 5.05 4.19-2.71.4-5.38-.17-7.84-1.29zM46.37 72.95c1.32-.3 2.65-.57 3.98-.83 1.2 1.4 2.62 2.6 3.92 3.9-2.81.32-6.97.23-7.9-3.07zM61.85 72.17c5 1.55 10.49 1.61 15.13 4.23-.64 1.15-2.1 1.25-3.13 1.85-2.34-1.68-5.37-3.68-8.06-1.53 1.97 1.13 4.02 2.2 5.63 3.83-2.86 1.19-5.85.35-8.29-1.35.47-.34 1.39-1.01 1.85-1.35.37-1.05 1.01-1.95 1.72-2.78-1.93-.36-3.38-1.72-4.85-2.9zM54.98 75.75c2.49-.93 1.88 2.93-.03 2.95-1.34-.31-1.06-2.48.03-2.95zM59.28 77.67c.56-.11 1.68-.31 2.24-.42.18 1.38.33 2.76.46 4.15-1-1.07-3.58-1.87-2.7-3.73zM110.91 85.68l1.17-.02c4.56 1.69 4.39 9.06 0 10.83-6.88-.95-15.26-1.77-20.3 4.11-.35-.5-.7-1-1.05-1.49 2.3-.55 3.94-2.37 5.72-3.78 3.99-3.51 8.96-5.72 14.02-7.16.29.08.86.26 1.15.35-1.61.94-3.16 1.99-4.71 3.03.53 1.06.84 2.39 2.04 2.92 2.38-.52 5.77-2.54 4.23-5.4-.78-1.12-1.53-2.25-2.27-3.39z"/>
        <path d="M94.03 99.97c4.66-4.05 11.25-3.58 16.96-2.86 4.18.58 8.59.87 12.33 3.01-2.46.89-6.83-1.3-7.28 2.24-3.83.51-7.41 2.01-10.7 4.01-4.24 2.59-8.94-1.11-13.43-.51-4.24.63-7.92 3.04-11.72 4.87 2.19-3.23 5.4-5.48 8.28-8.04 3.02-.36 5.46-2.71 8.58-2.55 5.71-.39 11.23 1.53 16.91 1.7l1.95-1.83c-5.69.23-11.34-1.98-16.99-.67-1.22.15-3.67.47-4.89.63m8.06 4.07c.26 1.54 2.49.75 3.38.24 1.47-2.32-3.33-2.42-3.38-.24z"/>
        <path d="M89.88 99.88c2.28 1.98-2.54 2.34 0 0z"/>
    </g>
    <path fill="#727272" opacity=".45" d="M82.12 73.27c1.42-.3 2.11 1.72 1.18 2.59-1.28-.42-2.59-.77-3.86-1.24l.01-.49c.67-.22 2.01-.65 2.67-.86z"/>
    <path fill="#464646" opacity=".27" d="M110.15 84.86c.74.19 2.22.58 2.96.77l-1.03.03-1.17.02c.74 1.14 1.49 2.27 2.27 3.39-.39-.14-1.17-.41-1.56-.55-.29-.09-.86-.27-1.15-.35l-.32-3.31z"/>
</svg>
