<svg width="128pt" height="128pt" viewBox="0 0 128 128" xmlns="http://www.w3.org/2000/svg">
    <g fill="#9d9d9d">
        <path opacity=".62" d="M86.95 25.29c2.99-3.05 6.39-5.66 9.73-8.31-1.24 4.16-3.03 8.14-4.01 12.37-.59-.33-1.78-1-2.37-1.34-.65.79-1.29 1.59-1.95 2.37-1.59 2.8-3.46 5.44-5.27 8.1.59.83 1.17 1.67 1.73 2.53-2.88-1.57-5.62-4.44-4.81-7.98-1.49 1.58-3.64 1.87-5.67 2.25.16.37.49 1.11.65 1.48-4-.94-2.66 6.94.85 4.87-.13.28-.39.83-.52 1.11-2.84.76-2.25-2.89-4.27-3.49.51-.45 1.02-.91 1.51-1.38-.5-.44-1.52-1.32-2.02-1.76l1.47-.2v-.86l-.96-.06-.43-.46c-.75-1.44-1.25-3-1.58-4.59.83 1.33 1.59 2.69 2.34 4.06 1.43-.01 2.85-.04 4.28-.07-.35-1.2-.73-2.42-1.53-3.4-.63.35-1.9 1.04-2.54 1.38.84-.55 2.51-1.67 3.35-2.23-1.56-.62-3.2-.99-4.84-1.31 1.62.16 3.23.14 4.84-.06.01.21.02.63.03.84 1.41.18 2.83.39 4.24.62.11.6.32 1.78.42 2.38.06-.71.16-2.11.22-2.81 2.37 1.73.42 5.52 2.55 7.75 1.39-2.74 3.12-5.28 4.87-7.79 1.58-1.37.92-2.71-.31-4.01m5.03-.44c-1.12.07-2.09 2.19-.58 2.47 1.33.19 2.24-2.49.58-2.47m-15.23 8.16c1.45-.44.92-2.83-.4-3.08-.85.73-.81 2.7.4 3.08zM102.37 42.01c-.13-1.78 2.68-3.05 4.2-2.59-.34 1.37-2.71 3.37-4.2 2.59zM107.45 51.22c1.01-.87 3.32.41 2.63 1.77-1.05 1.02-3.29-.42-2.63-1.77z"/>
    </g>
    <g fill="#fff">
        <path d="M30.62 18.21l1.87.08-.27.87c2.94 1.69 5.54 3.93 7.85 6.41-.5.39-1.51 1.18-2.01 1.58 2.35 3.27 4.59 6.64 6.67 10.1.6-2.3 1.13-4.64 1.06-7.04.39-.14 1.18-.44 1.57-.58-.66 1.89.55 3.04 2.01 3.99 1.42-3.29 2.65 2.03 4.7.62 1.93.06 1.94-2.47 2.88-3.59-.06 1.96-.98 3.67-2.48 4.92.32.27.95.81 1.26 1.07-1.61 1.01-4.44 1.02-3.71-1.68-1.08-.25-2.16-.48-3.25-.7-3.69-1.64-2.11 6.41-6.1 5.75.52-.66 1.03-1.32 1.55-1.98-2.81-3-4.53-6.81-7.1-10-.86.26-1.73.52-2.6.76-.57-1.5-1.03-3.03-1.68-4.5.27-.73.56-1.46.85-2.18.37 2.12 2.3 3.33 3.65 4.78-1.36-3.57-4.32-5.93-6.72-8.68z"/>
        <path d="M61.16 25.68c-2.6-2.82.86-5.86 2.83-7.84-.55 2.67-1.15 5.33-1.54 8.03.38.05 1.13.16 1.51.21-.16-2.24-.14-4.49.12-6.72.92 1.4 1.77 2.84 2.62 4.28-.59.7-1.18 1.39-1.77 2.08.55.29 1.64.87 2.19 1.16-.41 1.63-2.81 1.29-4.12 1.23v.73c1.84-.27 2.29 1.54 2.99 2.75-.43.46-1.31 1.38-1.75 1.84.08 2.94.09 5.88-.15 8.81.45-.34 1.36-1.04 1.82-1.39l.66 4.06c1.3-1.4 2.71-2.09 4.01-.17.97-.31 1.76.2 2.54.67l.74-1.36c-.18.6-.52 1.78-.69 2.37.58-.06 1.75-.2 2.34-.26l-.35 2.08c3.11-1.8 5.97-4.08 9.28-5.54-2.54 2.34-5.18 4.59-7.44 7.22.94 1.34 1.94 2.63 2.82 4-1.52 2.87-4.31-.42-6-1.36-.44 2.45 1.95 3.7 3.93 4.19 2.75.56 5.62.33 8.25-.67.34-4.82.54-9.66.25-14.48l1.96.6c.12 4.31-.07 8.63-.03 12.95.78-1.17 1.54-2.34 2.27-3.54 5.98 2.43 12.29 5.62 18.87 3.28-.89.98-1.78 1.95-2.62 2.97-5.09-.5-10.73 1.61-15.27-1.85-1.69 2.33-4.38 3.44-7.2 3.54.79.91 1.56 1.86 2.26 2.85l.86-.15c-.32-.48-.98-1.43-1.3-1.91 3.21-.31 5.36-3.97 8.74-2.56 3.53 4.32 9.31 3.23 14.23 3.53-2.52 1.36-5.69 1.47-8.04 2.62l-.48.58-.13.06-.36-.45c-1.96-1.72-4.74-1.98-7.01-3.18 1.99 1.32 3.7 2.97 5.25 4.78 2.22 2.72 6.23 1.98 9.02 3.82-3.03.01-6.14-1.06-9.09 0-.53-.14-1.6-.43-2.13-.57 1.42-1.22.52-2.4-1.04-2.63-1.76-2.1-4.43-3.43-4.85-6.41-.11 2.67.71 5.23 1.06 7.85.21-.53.65-1.59.86-2.12.81-1.48 1.09 1.07 1.02 1.68-.37.65-1.11 1.94-1.48 2.59l2.07-.91c-1.44 3.43 2.69 5.76 4.37 8.3-1.54-.69-2.99-1.61-4.16-2.84-.53.44-1.06.88-1.6 1.32 2.66 3.03 5.39 6.07 8.96 8.07 1.91.74 3.89 1.26 5.86 1.81-4.76 1.17-8.26-2.83-12.21-4.63-.46.15-1.38.44-1.84.58.78-3.04-2.65-5.76-1-8.59-.67-.26-2.01-.78-2.68-1.03.29-1.25.54-2.51.77-3.77-1.32.88-2.58 1.83-3.81 2.83.74 2.92 2.49 5.36 5.03 6.97-2.05-.16-4.1-.23-6.15-.08-.6 3.91-2.58 7.47-2.93 11.43.36.23 1.06.7 1.42.93.54 1.54 1.29 2.99 2.11 4.41 3.78-.83 4.28-5.78 1.58-8.12.65-.3 1.33-.53 2.03-.7 3.47 1.36 6.76 3.52 8.86 6.67 2.26 2.91 2.5 6.72 3.23 10.18 1.28-6.44-1.88-14.44-8.57-16.59-2.11-.53-5.15-2.96-6.06 1l.69-3.6c-.57.82-1.15 1.62-1.75 2.41.06-1.08.17-3.24.22-4.32 5.03-.25 9.41 3.12 12.77 6.52 4.71 4.64 6.22 11.51 6.2 17.91-2.25-1-4.08-2.63-6.01-4.08-2.28.66-4.4 1.75-6.51 2.8-.22 2.58 1.8 5.15.42 7.72-.82-1.95-.79-4.89-3.14-5.74-1.51-1.28-3.02.43-4.37 1.02l-.64.07c.36-.41 1.06-1.23 1.41-1.64.83-.54 1.65-1.09 2.47-1.64-1.27-2.24-2.44-4.59-4.33-6.39-1.51.61-3.01 1.23-4.53 1.81 1.04-1.06 2.16-2.03 3.16-3.13.04-2.02-1.54-3.69-2.44-5.41-4.46 6.58-10.02 12.68-17.09 16.48-7.31-3.64-13.09-9.88-17.3-16.78-1.41 1.61-2.46 3.47-2.88 5.58.86.9 1.75 1.76 2.68 2.59l.18.57c-1.44-.68-2.95-1.19-4.45-1.71-1.32 2.05-2.83 4.02-3.71 6.32 1.27 1.21 2.63 2.33 3.91 3.53-1.32-.56-2.61-1.18-3.88-1.81-.65.3-1.94.91-2.59 1.22-.96 1.4-1.5 2.99-1.6 4.7l-.89.05c-.15-2.5.65-4.84 1.21-7.23-2.31-1.49-4.96-2.35-7.55-3.21l-.31 1.72c-.74-.42-1.48-.83-2.23-1.24.46-4.19 1.36-8.72 4.65-11.66 2.65-3.01 6.45-4.38 10.07-5.82l-.17-.37c-5.18.91-10.87 2.82-13.31 7.93-1.47 3.9-2.6 8.7-.95 12.65l-2.98.72c.12-6.07 1.57-12.16 5.34-17.04 3.63-3.52 7.97-6.44 13.02-7.39.4 1.09.81 2.19 1.23 3.29-1.87 1.72-3.69 3.7-4.02 6.34.56 1.74 1.88 3.01 3.54 3.7.91-1.45 2.1-2.82 2.26-4.6l1.65-.1c-.32-.65-.97-1.93-1.29-2.57l.89-.65c-1.02-2.83-1.91-5.7-2.59-8.63-1.91-.27-3.84-.15-5.76-.03 2.63-1.68 5.06-4.31 4.47-7.7-1.08-.67-2.16-1.34-3.24-2 .22 1.19.47 2.36.74 3.54-2 1.24-4.01 2.49-5.91 3.9-1.19.72-2.39 1.43-3.61 2.1 1.37-1.41 3.03-2.6 3.99-4.36l1.12-.11c-.3-.56-.88-1.68-1.18-2.23l2.17 1.14c-.33-.9-1.01-2.72-1.34-3.63.41.41 1.24 1.22 1.65 1.63l.65-.14c-.52-1.13-.93-2.3-1.2-3.51l.32-.42c.36.31 1.08.94 1.44 1.26 1.28-2.24 1.24-4.86 1.71-7.33-1.41 2.86-4.11 4.67-5.87 7.26-.51-.16-1.53-.49-2.04-.66l2.06 2.11c-1.22.34-2.44.7-3.65 1.07l2.5-2.16c-3.42 1.38-7.1 1.58-10.74 1.7 2.5-1.41 5.5-1.31 8.01-2.66 1.77-1.72 3.36-3.62 5.16-5.32-4.64 2.84-10.1 1.93-14.85-.1 3.35-.31 6.74-.15 10.07-.67 1.95-.91 3.6-2.36 5.59-3.19 3.04-1.11 4.56 3.57 7.71 2.28-.68 1.03-1.29 2.11-1.5 3.35 1.19-1.11 2.18-2.41 3.15-3.72-2.93-.05-5.61-1.27-7.52-3.49-.62.41-1.84 1.25-2.46 1.67l.45-1.95c-.53-.09-1.61-.27-2.14-.35.2.14.59.44.79.59l.73.61-.39 1.52c-3.37.18-6.76-.14-10.12.35l.69-1.37c-.64.27-1.9.81-2.54 1.07-.87-1.08-1.79-2.14-2.7-3.19 3.49.9 7.14 1 10.64.11 2.54-1.43 5.44-2.07 8.04-3.38.66.8 1.34 1.59 2.04 2.37-.13-1.62-.25-3.23-.45-4.84-1.33-.21-2.68-.38-4.02-.49-1.57-1.03-2.55-2.64-3.53-4.19l-1.12-.01.98-1.34c-3.07-.38-6.36-1.06-8.22-3.78 2.73 1.3 5.52 3.35 8.63 3.22-.13-2.31.91-5.31-1.12-7.08-.31-.42-.93-1.27-1.24-1.69-.08-1.85-.08-3.7.07-5.54.28 1.9.22 3.82.2 5.74 1.75 1.31 3.54 2.58 5.42 3.72l-2.63.16c.04.8.11 2.41.15 3.21 1.27 1.85 4.27 2.57 4.27 5.16-.81-.88-2.43-2.62-3.23-3.5-.27.36-.53.73-.77 1.11.78 1.4 1.24 3 2.29 4.23 1.42.15 2.85-.04 4.28-.1-.13-.79-.23-1.58-.32-2.37.15-.59.47-1.78.63-2.37l-1.55.49.7-1.78c-.48.37-1.42 1.12-1.89 1.5-1.11-1.95 1.08-2.96 1.44-4.7.38 1.59.63 3.41 2.64 3.6-.19 4.57-.35 9.19.47 13.71 3.99 1.08 9.05 1.9 12.28-1.35.09-.54.25-1.62.33-2.16-1.82 1.09-4.28 3.89-6.16 1.33 1.06-1.33 2.07-2.68 3.07-4.04-2.34-2.53-4.9-4.83-7.45-7.14 3.18 1.35 5.93 3.5 8.81 5.37.62-1.12.6-2.75 1.78-3.51 1.79.37 3.43-.34 4.95-1.21.56.45 1.66 1.35 2.21 1.8l-.04-2.91 1.96.57c-.09-1.26-2.28-2.14-1.84-3.55.36.39 1.09 1.17 1.45 1.55.22-3.48 1.13-7.52-1.6-10.33 1.12-.49 1.8-1.36 2.03-2.61-3.18.21-6.32.92-9.53.85 3.08-.01 5.82-1.46 8.34-3.07m3 17.49l.01.67.67-.01-.01-.67-.67.01m-12.07 3.45c2.38 1.55 4.58 3.35 6.37 5.57-.16 1.92-.13 3.87.48 5.72-1.25 2.79-3.88 4.28-6.64 5.26-2.18 1.47-4.07 3.31-5.9 5.18l2.2.12c.45-.56 1.35-1.69 1.8-2.25 1 1.25-1.15 2.45-1.64 3.53-2.87 3.07-2.81 7.37-3.65 11.22.17.6.52 1.8.69 2.4 1-1.63 1.92-3.31 3.01-4.89.54-3.65 1.14-7.39 3-10.65l.38-.61c1.31-1.28 2.59-2.61 4.12-3.63-.97 1.71-2.09 3.34-3.57 4.66.62 2.47 3.36 4.14 2.74 6.89 1.36-1.13 2.2-2.48.77-3.99.57-.94 1.7-2.8 2.27-3.73-.29 3.16-.3 6.33-.15 9.5-.25.45-3.37 1.28-1.56 2.11 1.31.95 2.12 2.26 2.45 3.94-1.85-.31-2.84-1.8-4.05-2.78-1.53 2.35 1.79 4.12 3.45 5.09-.15 3.73-.14 7.47.06 11.2-.94-1.25-1.86-2.52-2.76-3.8 1.72-1.25.96-2.77-.45-3.67-.84.71-1.68 1.43-2.52 2.14-.87-1.76.3-3.12 1.31-4.45-1.29-1.56-1.63-3.73-3.44-4.86-.77 1.77-2.53 2.53-4.07 3.48 3.97 6.75 9.63 12.75 16.54 16.52 7.25-3.78 12.87-10.06 16.83-17.13-.58-.24-1.76-.73-2.34-.98l-.8-2.2c-1.63 1.45-2.65 3.38-3.94 5.11.77.95 1.53 1.9 2.26 2.89-.48.29-1.45.87-1.94 1.16-.32-2.73-4.27-.85-2.52 1.14 1 1.68-1.31 2.87-1.92 4.23.05-3.57.04-7.15.04-10.73 1.48-1.16 2.97-2.34 4.06-3.9-1.69.3-3.39.64-5.03 1.18.61-1.53 1.95-3.1.4-4.78.59.63 1.76 1.9 2.34 2.54.67.48 1.31.38 1.91-.3-1.11-1.21-2.37-2.25-3.67-3.25-.02-2.95-.01-5.89-.01-8.84l.76.02c.4 1.49 2 3.04.56 4.5-.91 1 .78 1.6 1.21 2.37.25-2.01 1.55-3.48 2.73-5.02.19-1.46-.54-2.82-.83-4.21-.87-.53-1.72-1.06-2.57-1.62 2.62.21 4.7 1.36 4.26 4.46.52-.83 1.02-1.69 1.51-2.54 1.48 1.73 2.91 3.5 4.23 5.35 1.05 2.46 1.89 5.39.23 7.8.88-4.08-1.45-7.45-3.35-10.76-.33.6-.65 1.2-.96 1.8 1.86 3.75.55 9.17 4.51 11.68.5-1.23.94-2.49 1.53-3.69 1.4-4.39-1.56-8.54-4.13-11.83-2.85-3.69-8.98-3.69-10.47-8.52.31-1.85.46-3.71.32-5.58 1.63-2.25 4.06-3.66 5.96-5.61l-2.02.62c-.43-.73-.86-1.47-1.28-2.21-.85.57-2.55 1.69-3.4 2.26l.43-2.03c-1.99 1-2.16 3.18-2.09 5.14l-2-.24c.17.35.52 1.05.69 1.4-.26.28-.78.83-1.04 1.1 2.3.26 2.29 2.61 2.95 4.29.17.41.5 1.25.67 1.67l-.6 3.16c-.49 1.42-.73 2.91-.92 4.41l-1.34-1.1c.08-.69.25-2.06.33-2.75l-.6-.16c-.05.64-.14 1.92-.18 2.56.15 3.58-.42 7.17.24 10.72.38-.07 1.15-.22 1.53-.29-1.6-1.79-.68-4.01-.48-6.09.46.72.92 1.43 1.39 2.14.44 1.78 1.44 3.59.88 5.46l-.44.53c-1.12 1.93-.86 4.17-.83 6.29-1.06.03-2.02.35-2.86.97l3.34-.04c-.26 2.2 1.18 5.63-1.64 6.69-.17-1.72-.24-3.45-.5-5.16-1.17 1.87-.19 4.06-.3 6.1.51-.34 1.51-1.03 2.02-1.38.85 3.73-1.82 6.45-2.89 9.74-1.14-2.49-2.65-4.8-3.51-7.41 1.06-.68 2.12-1.36 3.16-2.07-.82.16-2.44.48-3.25.64-.06-2.56 1.73-4.34 2.94-6.35l-1.04-.26c-.59 1.09-1.2 2.18-1.85 3.25-.12-2-.12-4-.01-6l1.25-1.09c.18.42.55 1.26.73 1.69l.88-.16c.11-.46.32-1.37.42-1.83-.08-.5-.26-1.51-.35-2.02l-1.25.61c.78-1.87 1.3-3.83 1.55-5.84-1.09.49-2.18.99-3.27 1.5.17-2.37-1.34-6.01 1.53-7.26-.02.77-.06 2.31-.07 3.07l1.01.16c-.09-1.05-.16-2.1-.19-3.15-.47-.06-1.41-.16-1.89-.22.26-3.04-.28-6.06-.66-9.06.21-1.74.33-3.48.54-5.22-.38-2.14-.46-4.28-.22-6.44.94 1.37 1.89 2.76 2.97 4.04l-.95-2.42c-.57-1.04-1.28-1.98-1.97-2.93-1.3.34-2.75 1.36-3.99.02-1.16.8-2.36 1.9-3.98.99m11.4-.31c-.73.96.13 3.48 1.56 2.72 1.04-.99-.15-3.36-1.56-2.72m-8.89 7.72c-.7 1.27-1.35 2.57-1.95 3.88-1.73.88-3.62 1.23-5.54 1.32-3.89 3.76-5.69 9.68-4.73 14.95.89-4.26.74-9.43 4.37-12.48 1.63-1.67 4.16-1.67 6.06-2.89 1.37-1.2 1.35-3.13 1.79-4.78m17.85.09c.24 1.23.49 2.47.71 3.71 2.06 2.32 5.68 1.96 7.63 4.4 3.13 3.1 3.01 7.91 3.7 11.97 1.27-5.25-.77-11.22-4.6-14.97-1.92-.08-3.81-.45-5.54-1.31-.6-1.28-1.23-2.55-1.9-3.8m-10.66 3.84c1.41-.35 1.39-3.11-.03-3.44-1.64.26-1.73 3.32.03 3.44m2.42.22c-.58 1.63-.05 2.17 1.59 1.63.58-1.63.05-2.17-1.59-1.63M46.05 68.84c-.86 2.25-1.77 4.48-2.63 6.72.41 1.54.68 3.14 1.45 4.56.03-3.66 0-7.69 2.84-10.47-.55-.27-1.11-.54-1.66-.81m18.31 7.51c-1.63 2.99 3.35.2 0 0m-2.26 16.7c-1.59 3.01 3.2.29 0 0m2.03.05c-1.51 3.16 3.18.25 0 0m-27.81 2.67c-.15 2.37-1.66 4.14-3.06 5.9.67.38 1.35.77 2.02 1.15 1.14-1.83 2.37-3.61 3.41-5.49.5-1.36-1.68-1.01-2.37-1.56m51.1.76c1.16 2.26 2.39 4.49 3.92 6.52.42-.38 1.26-1.13 1.68-1.5-1.44-1.66-2.55-3.54-3.05-5.7-.63.17-1.91.51-2.55.68zM91.98 24.85c1.66-.02.75 2.66-.58 2.47-1.51-.28-.54-2.4.58-2.47z"/>
        <path d="M94.25 37.52c1.65-.97 3.26-2.02 4.9-3.02-1.96 2.03-1.97 5.45-1.51 7.95.9-.02 2.7-.05 3.6-.06-1.18.28-2.35.55-3.52.83l1.4 1.83-2.08-.84.52 1.16c-.63.76-1.21 1.56-1.74 2.4-.35.13-1.07.4-1.43.53-1.52.48-3.06.88-4.53 1.51-.27-1.05-.57-2.09-.9-3.12l.53-.07c.96 1.9 3.22 1.38 4.92 1.64.58-1.59 1.11-3.2 1.74-4.77l-1.91.24c.68-1.84 3.35-3.23 2.58-5.42-.64-.2-1.93-.6-2.57-.79zM44.87 41.67c1.86-1.6 2.95-3.79 4.17-5.86-.29 1.34-.69 2.64-1.09 3.95l-2.85 2.37-.23-.46zM82.23 42.29c-2.29-1.29-4.68-3.44-4.02-6.34.55 2.57 2.53 4.31 4.02 6.34z"/>
        <path d="M89.52 42.18c.54-1.16 1.1-2.31 1.7-3.44l.18.53c-.63 1.31-.15 2.06 1.45 2.25-.41.76-.82 1.53-1.22 2.3-.53-.41-1.59-1.23-2.11-1.64zM93.86 43.61l.38.12.16.34c-.8 1.21-2.01 3.01-3.62 2.91.09-1.53 1.93-2.54 3.08-3.37zM108.37 45.14c.95-.33 1.9-.66 2.85-.98-1.51.74-3.16 1.62-3.6 3.39-1.22 1.47-2.35 3.01-3.57 4.49.67-1.45 1.4-2.86 2.13-4.27-4.12-.22-4.7 6.2-9.16 4.93-.53-3.55 3.95-.42 4.67-3.15 1.35-2.88 5.6-1.13 6.68-4.41zM18.82 44.6c1.27.87 2.6 1.71 3.53 2.96 1.09.11 2.17.24 3.26.39 1.1 1.55 2.14 4.75 4.16 2.08.53.73 1.59 2.18 2.13 2.9-1.8-.08-3.72-.38-4.99-1.8-1.54-1.31-2.14-4.17-4.98-3.08.61 1.22 1.14 2.5 1.99 3.58l-1.35.24c-.23-1.89-1.04-3.64-2.31-5.05-.36-.56-1.08-1.67-1.44-2.22zM28.09 48.62c.92-1.64 3.72-.13 4.85.78-.9 1.6-3.6-.18-4.85-.78zM94.39 48.3c2.06 1.53 4.35-1.27 6.67-.09-.88.38-1.77.75-2.67 1.1-1.42.75-3.69.66-3.64 2.87l-.95-.25c1.38-1.12 1.57-2.33.59-3.63zM79.79 51.32c2.06.85 4.02.74 5.23-1.35-.02 1.64-.02 3.28-.03 4.92-1.87-.97-3.7-2.07-5.2-3.57zM41.82 50.58c1.25 1.53 2.97 1.43 4.65.79-1.54 1.41-3.12 2.86-5.2 3.38.22-1.39.41-2.78.55-4.17zM35.19 75.44c.76-.28.76-.28 0 0zM23.74 84.78c4.81-1.81 8.07-5.71 11.45-9.34-.67 2.07-1.25 4.16-1.37 6.33-.43-.22-1.27-.66-1.69-.89-3.59 1.81-7.29 6.08-11.59 4.49.8-.15 2.4-.45 3.2-.59z"/>
    </g>
    <path fill="#222" opacity=".13" d="M30.38 27.16c1.21-.91 1.93-.7 2.16.64-1.21.91-1.93.69-2.16-.64z"/>
    <g fill="#181818">
        <path opacity=".09" d="M95.56 27.03c1.39.31 3.5-.7 4.29.96 1.1 1.24.85 2.99 1.04 4.51-.83-1.32-1.59-2.68-2.34-4.04-1-.47-2-.95-2.99-1.43zM116.33 41.35c.81.3 1.62.6 2.42.9L117.61 46c-.29-1.06-.57-2.13-.87-3.19-2.74 1.75-4.88 6.89-8.62 5.28l-.5-.54c.44-1.77 2.09-2.65 3.6-3.39 1.75-.86 3.46-1.78 5.11-2.81z"/>
    </g>
    <path fill="#ededed" opacity=".93" d="M48.16 30.25l.65-.01.01.65-.64.01-.02-.65z"/>
    <path fill="#878787" opacity=".53" d="M52.31 30.12c3.06-1.51.18 3.28 0 0z"/>
    <path fill="#2b2b2b" opacity=".17" d="M54.43 39.16c1.6.81.03 3.83-1.66 3.71-3-.01 1.07-2.73 1.66-3.71z"/>
    <path fill="#4b4b4b" opacity=".29" d="M40.19 40.79c.24 2.16.45 4.34 1.23 6.39-.26.38-.79 1.13-1.06 1.51.4.22 1.19.66 1.58.88l-.12 1.01c-.14 1.39-.33 2.78-.55 4.17-.18.34-.53 1.01-.7 1.34-.82-4.52-.66-9.14-.47-13.71l.09-1.59z"/>
    <path fill="#2d2d2d" opacity=".18" d="M11.43 42.1c1.38-.67 3.46.44 3.56 2.01-.11.16-.33.47-.44.63-1.18-.38-3.19-1.24-3.12-2.64z"/>
    <path fill="#1f1f1f" opacity=".12" d="M31.88 43.88c.24-.38.5-.75.77-1.11.8.88 2.42 2.62 3.23 3.5l-.43.19c1.01.21 1.87-.27 2.68-.82.09.79.19 1.58.32 2.37-1.43.06-2.86.25-4.28.1-1.05-1.23-1.51-2.83-2.29-4.23z"/>
    <path fill="#151515" opacity=".08" d="M14.99 44.11l3.19-.48c.16.25.48.73.64.97.36.55 1.08 1.66 1.44 2.22v.93c-.19.38-.58 1.13-.77 1.51-1.8-1.08-3.65-2.42-5.87-1.73l.13-.4.8-2.39c.11-.16.33-.47.44-.63z"/>
    <path fill="#797979" opacity=".47" d="M66.14 50.36c-.07-1.96.1-4.14 2.09-5.14l-.43 2.03c-.84 3.14-1.23 6.41-1.06 9.66-.66-1.68-.65-4.03-2.95-4.29.26-.27.78-.82 1.04-1.1-.17-.35-.52-1.05-.69-1.4l2 .24z"/>
    <path fill="#454545" opacity=".27" d="M13.62 47.53c.03-.1.1-.3.13-.4l-.13.4z"/>
    <path fill="#656565" opacity=".4" d="M114.21 47.25c.53.56.53.56 0 0z"/>
    <path fill="#898989" opacity=".54" d="M18.29 52.17c.6.58.6.58 0 0z"/>
    <path fill="#c9c9c9" opacity=".79" d="M64.21 58.18c1.64-.54 2.17 0 1.59 1.63-1.64.54-2.17 0-1.59-1.63z"/>
    <path fill="#787878" opacity=".47" d="M65.89 66.15c.19-1.5.43-2.99.92-4.41-.15 3.14-.15 6.3-.03 9.44-.47-.71-.93-1.42-1.39-2.14-.2 2.08-1.12 4.3.48 6.09-.38.07-1.15.22-1.53.29-.66-3.55-.09-7.14-.24-10.72l.45.35 1.34 1.1z"/>
    <path fill="#8b8b8b" opacity=".55" d="M59.96 75.04c1.09-.51 2.18-1.01 3.27-1.5-.25 2.01-.77 3.97-1.55 5.84l1.25-.61c.09.51.27 1.52.35 2.02-.5.08-1.52.22-2.03.3L60 82.18c.04-2.38.04-4.76-.04-7.14z"/>
    <path fill="gray" opacity=".5" d="M64.36 76.35c3.35.2-1.63 2.99 0 0z"/>
    <path fill="#282828" opacity=".16" d="M64.13 93.1c3.18.25-1.51 3.16 0 0z"/>
</svg>
