<svg width="128pt" height="128pt" viewBox="0 0 128 128" xmlns="http://www.w3.org/2000/svg">
    <g fill="#fff">
        <path d="M63.61 17.13c3.78 3.14 2.69 8.15 2.84 12.45-.36.32-1.09.95-1.45 1.26.01 3.61-.07 7.21.1 10.81 1.95.53 3.87 1.16 5.8 1.8l.16-1.45h1.44c-.4 1.99-.87 3.97-1.21 5.98-.43-1.08-.88-2.15-1.34-3.21-1.4.3-2.8.61-4.2.92.64.49 1.91 1.48 2.55 1.97l-1.3.49c.19.46.57 1.37.75 1.82-1.15 2.54-.66 5.35-.78 8.04-.17 4.94-.17 9.9-.59 14.83l1.43-.76-.24 2.64-1.19-.44c-.02 8.23-.45 16.46-.41 24.69-.54 3.81-1.19 7.64-2.35 11.32-.45-4.47-1.86-8.81-1.89-13.33-.38-14.33-.72-28.66-.9-43 .21-1.95-1.46-3.81-.28-5.65-2.19-1.12.7-1.88 1.54-2.59-1.47-.3-2.93-.62-4.39-.94-.44 1.1-.87 2.21-1.31 3.31-.35-2.11-.83-4.19-1.31-6.28.95.34 1.8.84 2.58 1.48 1.66-.6 3.33-1.19 5.01-1.78.69 8.8.16 17.63.33 26.44.46 11.05.08 22.1.45 33.15.46-7.36-.02-14.76.81-22.11.17-17.92-.03-35.86-.01-53.78l-1.14-.06c-.14 1.96-.29 3.92-.48 5.88-2.78-2.29-.8-6.47-1.33-9.63.79-1.41 1.56-2.84 2.31-4.27zM74.14 43.35c.39-2.61.69-5.37 2.4-7.49.37.61 1.1 1.85 1.47 2.46-.42 2-.83 4.01-1.31 6l-.6-.81c-.05-.43-.15-1.31-.21-1.75-.25.23-.75.7-1 .93l-.75.66zM82.3 47.85l1.82 1.07c-.86 1.8-1.73 3.6-2.73 5.34.13 1.1.27 2.2.41 3.3l2.39-.51c-.95 1.46-2.06 2.26-3.37.56.12 3.97-2.67 7.38-3.15 11.3-.38-.26-1.14-.77-1.51-1.03-.15-3.4 2.19-6.4 2.14-9.84l1.65.36c-.95-1.21-2.75-1.53-3.23-3.11.76.26 2.28.79 3.05 1.05 1.87-2.53 1.22-5.75 2.53-8.49z"/>
        <path d="M69.41 49.39c1.5.53 3.04.67 4.58.3l-.08 2.41c-.67 2.07-1.17 4.25-.17 6.33-2.02 2.05-1.03 5.46-2.74 7.78-1.21-3.87 1.06-7.96.7-11.99.3-1.06.62-2.12.95-3.18-.73.17-2.17.5-2.89.67l-.35-2.32z"/>
        <path d="M73.88 52.88c.52-1.07 1.01-2.15 1.46-3.25 1.05 1.02 2.31 1.59 3.81 1.32-.03.67-.1 2-.13 2.66-1.2-2-3.25-1.98-5.14-.73zM51.73 53.01c.78.01 2.34.03 3.12.03-.02 1.4-.07 4.21-.1 5.61-.38.02-1.15.07-1.54.09-.44-1.92-.96-3.83-1.48-5.73z"/>
        <path d="M55.31 53.19c1.43.37.77 2.69 1.16 3.85-.3 1.07-.78 1.3-1.42.71-.35-1.59-.26-3.11.26-4.56zM73.51 54.46l2.13-1.95c1.05 1.99-.63 4.24-.95 6.29-1.5-.29-.51-3.31-1.18-4.34zM26.87 53.96c2.65.85 5.26 2 8.09 2.15-.56.32-1.11.64-1.67.97.9.56 1.75 1.21 2.53 1.94-.12-.67-.35-2.01-.47-2.67 3.74 1.57 7.39 3.36 11 5.2.35.73 1.06 2.18 1.42 2.91-3.07-1.21-5.85-3.01-8.86-4.35 2.97 1.44 5.23 4.78 8.81 4.54.52 1.19 1.02 2.4 1.5 3.61-8.06-3.76-15.75-8.29-22.35-14.3m10.39 5.3c.56.53.56.53 0 0zM80.15 63.18c6.35-4.67 14.02-7.02 21.56-9-4.2 3.06-7.96 6.79-12.7 9.06-3.49 1.73-6.78 3.86-10.31 5.53.39-2.24 1.19-4.47 3.83-4.52 2.71-2.22 7-2.3 9.07-5.15-3.02 1.08-5.56 3.13-8.56 4.24-.94.6-2.02.5-2.89-.16zM73.93 64c-2.08.54-1.54-5 .57-4.03.09 1.35-.1 2.69-.57 4.03zM75.67 69.29c.75-.17 1.3.11 1.67.84-.91 2.53-3.4 5.36-1.52 8.04l.46-2.27c2.2 2.45 5.85 2.15 8.23 4.14.35-.16 1.04-.49 1.39-.66-.17.85-.49 2.55-.65 3.39 1.11-1.2 2.23-2.41 3.34-3.63-.59-.62-1.76-1.87-2.35-2.49 1.94.86 4.93.38 6.12 2.48-.56-.04-1.69-.11-2.25-.15-.27 1.92-.65 3.82-1.1 5.7.34.47 1.02 1.4 1.36 1.87l.85-.62c.99.67 2.03 1.28 3.06 1.9l-1.75.33.05 1c1.33-.78 2.74-1.57 4.16-.43.01.86-.08 1.73-.27 2.59-.62-.1-1.87-.29-2.5-.39l2.44-2.12c-3.04 2.78-5.81-.38-8.4-1.68-1.09 1.94-5.6 3.55-2.95 5.96-2.58.56-3.87-2.38-5.77-3.6 1.15.27 2.31.52 3.46.78.37-1.54.86-3.05 1.4-4.54-1 .62-2 1.22-3.01 1.81l-.21-1.32c-2.88-.91-4.85-3.6-7.81-4.56.3-.57.92-1.7 1.22-2.27 5.23 1.9 9.86 5.12 14.91 7.43-4.06-4.53-11.29-4.96-15.23-9.6l-.46 3.21c-1.33-3.73.95-7.62 2.11-11.14zM98.54 91.07c-1.29-1.06 1.52-1.29 2.12-1.67 2.3 1.4 4.71 2.6 7.13 3.77.84 1.45 1.71 2.88 2.6 4.3-4.81 1.19-10.56-1.22-13.06-5.42.57 0 1.72-.01 2.29-.01 2.71 1.1 4.93 3.65 7.99 3.64-2.76-2.04-5.84-3.52-9.07-4.61zM18.19 97.72c.53-.94 1.04-1.88 1.54-2.84 1.33.67 2.65 1.37 3.91 2.19l.69.66c-2.05.06-4.1-.05-6.14-.01z"/>
    </g>
    <path fill="#9b9b9b" opacity=".61" d="M63.11 25.15l1.14.06c-.02 17.92.18 35.86.01 53.78-.83 7.35-.35 14.75-.81 22.11-.37-11.05.01-22.1-.45-33.15-.17-8.81.36-17.64-.33-26.44-.42-3.47-.34-6.99-.04-10.48.19-1.96.34-3.92.48-5.88z"/>
    <path fill="#d3d3d3" opacity=".83" d="M52.19 44.39c-2.14-1.92-3.31-6.95-.41-8.4 1.3 2.28 2.57 5.23 1.64 7.81.14 1.86.26 3.73.36 5.59 1.65.76 3.44.67 5-.28-.13.71-.39 2.12-.51 2.83-.49-.28-1.45-.82-1.94-1.1-.84.65-1.66 1.34-2.47 2.02-1.73-.76-3.78-1.34-4.8.72L48.78 51c1.66-.15 3.25-.65 4.8-1.24-1.79-1.23-1.04-3.56-1.39-5.37z"/>
    <path fill="#868686" opacity=".53" d="M74.89 42.69c.25-.23.75-.7 1-.93.06.44.16 1.32.21 1.75-.04 2.05.07 4.19-.76 6.12-.45 1.1-.94 2.18-1.46 3.25l.03-.78.08-2.41c-.03-2.37-.04-4.79.9-7z"/>
    <g fill="#dbdbdb">
        <path opacity=".86" d="M44.35 48.39l1.44-.64c.47 1.66 1.63 3.32.85 5.09.47 1.1.94 2.19 1.42 3.28 1.09-.26 2.17-.53 3.25-.81-.42 1.46-1.93 1.99-3.06 2.79l1.63-.11c.14 2.32.86 4.53 1.32 6.78 1.05.12 2.11.23 3.16.36l-1.56-4.36c1.58-2.32 2.78.47 2.63 2.16.14-1.82.26-3.73 1.52-5.17.1 4.48 1.08 8.87 1.49 13.32.26.19.78.56 1.03.75-1.25 5.45 2.07 11.14 0 16.61-2.32-7.56-4.12-15.41-4.5-23.32-.77 1.37-1.38 2.82-2.06 4.23.11-.96.34-2.89.45-3.85l-1.86-.21c.82 5.05 4.5 10 2.93 15.13l-.48-2.89c-1.08 1.5-2.63 2.47-4.27 3.26-3.08 1.68-6.63 2.69-9.19 5.18 4.92-1.1 8.54-5.28 13.49-6.53l.1 1.5 1.9.18c-3.45 1.91-6.33 4.71-9.97 6.27L45.98 86l-1.11.02c.24 1.34.41 2.72.99 3.97.77-.06 2.33-.18 3.11-.23-1.62 1.35-2.86 3.55-5.22 3.54 2.83-2.55-2.1-4.16-3.17-6.13-1.75.93-3.27 2.75-5.37 2.75.21-.47.62-1.41.83-1.88-2.05-.45-2.84 1.63-3.08 3.2-1.92.62-2.05 3-3.92 3.64-1.77.78-3.38 2.24-5.4 2.19-1.26-.82-2.58-1.52-3.91-2.19 1.86-3.11 5.87-3.7 8.67-5.72.74.58 1.49 1.15 2.23 1.73-2.75 1.06-5.36 2.48-7.82 4.09 2.63-.92 5.04-2.38 7.67-3.32.13-.62.39-1.87.52-2.5 2.95-1.31 5.84-2.75 8.59-4.44-1.12-2.03.43-5.95-2.99-5.91 1.25-1.91 3.85-1.56 5.8-1.93-.76.88-1.57 1.72-2.43 2.5 1.02.95 2.02 1.93 3.03 2.88v-2.7c.4.1 1.18.31 1.58.42.73-1.06 1.73-1.56 3-1.5 1.23-.58 2.45-1.2 3.64-1.84.6.28 1.8.85 2.39 1.13-1.18-3.78-3.12-7.43-3.71-11.36.29-.32.86-.96 1.14-1.28-.45.22-1.36.65-1.82.86-.47-2.84-1.82-5.42-2.52-8.19-.28.32-.84.95-1.13 1.27-.49-.56-.99-1.13-1.49-1.69.9-.21 2.69-.62 3.58-.83-1-2.67-3.67-5.26-3.31-8.16M38.92 86.2c.65.65.65.65 0 0m-1.9 1.01c.65.64.65.64 0 0zM72.03 65.21c.42.07 1.26.2 1.69.27-2.15 7.53-1.99 15.78-5.61 22.85-.79-5.63.76-11.13 1.13-16.71l-.4-.52-.53-.43c-.07-.68-.2-2.05-.27-2.74l1.3.87c.23-.53.69-1.59.93-2.13.83.81.99 2 1.34 3.06.11-1.51-.17-3.09.42-4.52z"/>
    </g>
    <path fill="#ededed" opacity=".93" d="M59.14 68.37h.73c-.02.45-.05 1.34-.07 1.79h-.69c.01-.45.03-1.35.03-1.79z"/>
    <g fill="#242424">
        <path opacity=".14" d="M38.92 86.2c.65.65.65.65 0 0zM37.02 87.21c.65.64.65.64 0 0z"/>
    </g>
</svg>
