<svg width="128pt" height="128pt" viewBox="0 0 128 128" xmlns="http://www.w3.org/2000/svg">
    <g fill="#fff">
        <path d="M50.28 30.11c3.32.15 5.12 3.27 7.88 4.66 1.35.76 2.73 1.5 4 2.4-4.73-.65-8.45-4.01-11.88-7.06zM65.86 37.04c3.66-1.81 6.92-4.2 10.04-6.83.4.08 1.21.23 1.62.31-3.57 2.59-7.03 6.18-11.66 6.52zM74.7 43.12c2.62-3.92 6.83-6.28 11.31-7.43 0 .22-.01.67-.01.89-3.11.84-4.28 4.68-7.59 5.16-.34 1.57-1.09 2.99-2.03 4.29-.42-.73-1.26-2.18-1.68-2.91zM17.36 36.14c7.7.41 14.74 4.15 20.81 8.68 4.1 3.14 9.07 4.75 13.77 6.74 4.32-3.05 9.54-5.55 14.96-4.8 3.04.21 5.49 2.15 8.04 3.6-1.21 1-3.61 1.47-2.94 3.51.53.34 1.58 1.02 2.11 1.36-.04.68-.13 2.04-.17 2.72 1.23.38 2.47.74 3.71 1.11-.56 2.21-2.76 4.56-1.32 6.8-7.5 3.81-16.15 2.62-23.78-.07-.41-2.4-1.26-4.68-2.3-6.87 1.25-.35 2.5-.71 3.75-1.05V55h2.36l-2.08-4.36c.24.88.71 2.66.94 3.54-3.89-1.65-7.85-3.13-11.7-4.88-5.68-2.71-10.24-7.26-15.98-9.85-3.17-1.71-6.73-2.4-10.18-3.31z"/>
        <path d="M41.99 35.69c3.65 1.1 7.17 2.7 9.8 5.55.4.57 1.21 1.71 1.61 2.27-.75.83-1.53 1.64-2.31 2.44-.57-1.37-1.08-2.76-1.48-4.19-3.32-.5-4.5-4.33-7.61-5.18l-.01-.89zM90.43 44.34c5.96-4.19 12.78-7.82 20.19-8.22-3.17.97-6.33 1.96-9.45 3.07-4.13 1.62-7.62 4.42-11.24 6.91-5.29 3.67-11.47 5.69-17.39 8.06l.88-1.77c5.88-2.16 12.04-4.1 17.01-8.05zM56.42 41.68c2.07-2.2 4.76-3.6 7.58-4.58 2.83.97 5.53 2.37 7.57 4.62-5.05-.94-10.09-.96-15.15-.04zM22.34 53.48c1.85-3.78 6.56-2.57 9.72-1.52 6.27 2.27 12.92 3.05 19.52 3.69.3.34.9 1.04 1.21 1.39-4.92-.78-9.88-1.24-14.76-2.27-4.3-.96-8.38-3.24-12.91-2.77-.7.37-2.09 1.11-2.78 1.48zM85.86 54.35c5.97-.58 11.38-4.06 17.51-3.41.72.91 1.43 1.82 2.09 2.77-.85-.57-1.69-1.14-2.52-1.74-5.2-.54-9.85 2.17-14.85 3.01-4.46.85-8.98 1.57-13.53 1.6 3.41-1.99 7.58-1.25 11.3-2.23zM47.31 62.95c1.34-1.85 2.77-.53 4.07.4-1.1.98-2.32 1.75-3.8 1.96-1.77 1.18-3.74 1.94-5.89 1.85-.27.81-.53 1.62-.79 2.43-1.94 3.23-4.33 6.08-7.39 8.31-.88.52-1.74 1.06-2.6 1.62.03-.26.08-.77.11-1.03 3.81-3.75 6.13-8.62 8.9-13.11 1-3.37 4.68-2.42 7.39-2.43zM76.7 63.68c1.2-1.22 2.51-2.75 3.97-.73 2-.06 3.99-.05 5.99.06.46.8.92 1.6 1.39 2.4 2.91 4.42 5.16 9.33 8.95 13.12l.04.9c-.83-.51-1.67-.99-2.51-1.47-3.68-2.81-6.54-6.54-8.39-10.79-3.47-.04-6.35-2.2-9.44-3.49zM40.96 80.59c4.7-3.61 3.88-10.39 7.41-14.72.13 6.39-2.6 12.47-1.34 18.87-.72-1.59-1.07-3.35-2.03-4.83l-4.04.68z"/>
        <path d="M79.81 66.1c3.84 4.15 2.99 11 7.6 14.8l-5.16-1.08c.86.69 1.82 1.24 2.73 1.85.93 2.51.52 5.27 1.43 7.78.92 3.22 1.95 6.51 1.99 9.88-2.36-4.16-2.34-9.33-5.46-13.11l.32-3.12.12-.71c-.34-.25-1.01-.74-1.34-.99-.17-1.84-.32-3.69-.79-5.48-1.03-3.18-.91-6.55-1.44-9.82zM48.76 76c4.08 3.83 10.16 4.32 15.08 1.84 2.58.9 5.24 2.05 8.04 1.7 2.58-.16 4.77-1.65 7.06-2.69-.91 3.87-1.59 7.89-3.47 11.44-4.01 3.38-9.98 5.93-15.03 3.26-3.53-1.9-7.59-4.02-9.06-8.03-1.12-2.42-1.89-4.97-2.62-7.52zM43.58 80.41c1.32 1.66 1.45 3.78 1.47 5.82-2.07 2.68-2.81 5.99-3.75 9.16-.49 1.37-1.02 2.72-1.66 4.02.06-3.93 1.46-7.69 2.44-11.46.27-2.56.5-5.13 1.5-7.54z"/>
    </g>
    <path fill="#4a4a4a" opacity=".29" d="M81.25 75.92c.47 1.79.62 3.64.79 5.48.33.25 1 .74 1.34.99l-.12.71c-.55.51-1.63 1.53-2.17 2.04.06-3.07.29-6.15.16-9.22z"/>
</svg>
