<svg width="128pt" height="128pt" viewBox="0 0 128 128" xmlns="http://www.w3.org/2000/svg">
    <g fill="#fff">
        <path d="M17.06 38.05c3.61.07 7.15 1.07 10.47 2.44 4.08 1.58 7.19 4.78 11.01 6.81 4.73 3 10.05 4.81 15.17 6.99-5.19.73-10.35-.67-15.42-1.65-4.99-1.08-10.38-4.33-15.39-1.67-2.93-2.39-5.86-5.24-6.84-9.01-.04-1.25-.4-3.31 1-3.91zM94.39 44.26c4.77-3.79 10.71-6.29 16.85-6.37 2.05 5.29-2.02 9.83-5.7 13.06-3.03-1.54-6.58-1.1-9.7-.1-6.86 2.19-14.07 4.09-21.33 3.51 6.85-2.9 13.86-5.64 19.88-10.1zM54.46 44.57c3.77-1.2 7.52-3.17 11.6-2.53 2.3.63 4.57 1.37 6.8 2.22 2.5 1.11 3.85 3.63 5 5.98-3.34-.45-5.22-3.82-8.52-4.42-4.28-1.67-8.89-.28-12.92 1.42-2.12.81-3.63 2.9-6.04 2.95.78-2.26 2.2-4.15 4.08-5.62zM24.94 52.82c4.95.14 9.28 2.93 14.14 3.5 4.24.9 8.6.69 12.89 1.03-2.56.65-5.56.16-7.74 1.88-3.01 2.32-6.97 2.73-10.64 2.35-2.72-2.24-6.83-1.77-9.72-3.97-.41-1.74.07-3.36 1.07-4.79zM88.49 56.28c4.02-.47 7.61-2.51 11.57-3.22 1.45-.46 2.7.34 3.75 1.23.05.6.14 1.79.19 2.38-2.17 2.5-5.47 3-8.46 3.92-3.84 2.07-8.67 1.15-12.14-1.25-2.25-1.67-5.21-1.32-7.81-1.86 4.29-.47 8.65-.29 12.9-1.2zM50.01 65.94c8.37 4.6 19.82 6.75 27.91.44 1.15 1.46 1.08 3.34 1.33 5.09-.08.67-.23 2.01-.31 2.68-3.34 3.19-8.21 4.29-12.59 2.79-.54-.41-1.62-1.23-2.17-1.64-3.88 2.08-9.03 3.23-12.89.5-3.29-2.19-1.75-6.65-1.28-9.86z"/>
    </g>
</svg>
