<svg width="128pt" height="128pt" viewBox="0 0 128 128" xmlns="http://www.w3.org/2000/svg">
    <g fill="#fff">
        <path d="M49.02 35.13c1.23-2.56 3.64-4.45 6.35-5.27 1.29 1.09 2.75 1.95 4.21 2.78l.59-1.41c2.14 1.07 4.58.73 6.88.97-.45-.61-1.36-1.84-1.81-2.46 1.72-.01 2.02 1.68 2.71 2.88 1.64-.71 3.16-1.64 4.58-2.72 1.46.64 2.87 1.4 4.22 2.24.63.97 1.29 1.91 2 2.81-.31 1.5-.99 2.86-1.74 4.18.27.35.8 1.05 1.07 1.41-1.8 1.94-2.95 5.39-6.12 5.2-3.58-.53-7.1-2.71-10.81-1.42-2.85.87-6.97 2.93-8.99-.46-2.57-2.22-1.83-5.85-3.14-8.73z"/>
        <path d="M61.17 30.16l.68.01v.67h-.68v-.68zM51.71 45.57c4.55 3.4 9.25-1.73 14.12-.38 3.29.62 7.31 3.3 10.04-.01 2.08 1.52 2.61 3.89 2.55 6.34.97.53 1.93 1.07 2.89 1.61-1.08 1.98-2.36 4.18-4.74 4.71-4.15-.53-8.37-.48-12.52.05-3.26-.21-7.08-1.29-9.84 1.07 2.53-.05 5.06-.06 7.59.09 3.17 4.75 1.25 10.59 1.39 15.88-.57 7.09.71 14.38-1.47 21.27-1.27 1.11-2.96-.23-4.28-.61-5.97-3.64-7.42-11.11-8.34-17.52-.23-6.13-1.7-13.14 2.39-18.39.9-.66 1.75-1.39 2.53-2.18-2.94 1.36-6.97-1.34-7.01-4.43 3.33-1.42 1.73-5.75 4.7-7.5z"/>
        <path d="M66.25 59.12c2.59-.35 5.33.1 7.74-1.09 3.64 1.79 5.06 6.12 5.02 9.93.19 8.24-.43 17-4.86 24.19-1.73 2.76-4.82 4.14-7.92 4.7-2.99-7.65-1.84-15.92-1.98-23.92.12-4.65-.77-9.7 2-13.81z"/>
    </g>
</svg>
