<svg width="128pt" height="128pt" viewBox="0 0 128 128" xmlns="http://www.w3.org/2000/svg">
    <g fill="#fff">
        <path d="M53.37 21.04c.55-2.31 2.64-3.69 4.34-5.13-1.48 2 .98 3.07 1.73 4.52.41-.07 1.23-.23 1.64-.3-.31.43-.92 1.29-1.23 1.72-2.15-.16-3.88 1.24-2.71 3.42 1.31.41 2.51 1.04 3.58 1.9-.67.25-2 .75-2.66 1.01.67 1 1.31 2.03 1.92 3.08-1.65-.68-3.08-1.74-4.35-2.97-1.45.79-2.91 1.54-4.36 2.33-2.17-2.08-5.34-1.96-8.09-2.68-.3-3.67-3.38-6.47-3.22-10.22 2.71 2.31 3.6 5.94 4 9.33 2.86.68 5.73 1.43 8.38 2.74 1.59-2.69-.01-5.91 1.03-8.75zM71.43 16.75c4.12 2.31 3.69 7.33 3.56 11.36.22 1.9 2.6.87 3.69.51 1.8-.66 3.65-1.15 5.52-1.55.33-3.4 1.32-6.78 3.66-9.36l.12 2.86c-1.35 2.32-2.6 4.74-3.19 7.38-2.59.58-5.34.83-7.63 2.27-1.65-.29-3.24-.96-4.64-1.88-1.36 1.17-2.81 2.26-4.49 2.92.63-1.05 1.32-2.08 2.02-3.08l-1.99-.6c-.3-1.53 1.54-1.56 2.45-2.24 1.16-1.03.84-2.43.19-3.62-1.76.8-2.93-.07-3.79-1.51.42.07 1.27.19 1.69.26.94-1.24 1.95-2.43 2.83-3.72zM27.8 28.07c.85-.91 1.65-1.95 2.92-2.29-.35.54-1.04 1.63-1.39 2.17 2.68 4.31 7.78 5.48 11.67 8.35l-.02.98c-4.38-3.08-10.94-3.72-13.18-9.21zM97.69 25.7c1.8.31 3.14 2.34 1.87 3.94-2.58 3.92-7.63 4.87-11.45 7.19l-1.34-.16c1.72-.77 3.17-1.97 4.6-3.18 3.43-.12 5.4-3.21 7.66-5.32-.34-.62-1.01-1.85-1.34-2.47zM38.83 37.96c1.36.14 2.73.27 4.1.39-.54 5.54 3.73 10.23 3.12 15.71.65.68 1.3 1.37 1.94 2.08-.53-.25-1.6-.73-2.13-.97-2.98-5.43-5.46-11.19-7.03-17.21zM85.34 38.33c1.29-.1 2.58-.21 3.87-.34-.7 5.28-3.43 9.92-5.4 14.8-.46 1.51-1.53 2.68-2.87 3.47.07-1.48.68-2.42 1.83-2.82-.17-.54-.52-1.63-.69-2.17 1.37-4.23 3.47-8.39 3.26-12.94zM32.92 75.56c5.24-4.16 9.28-9.92 15.54-12.7-.32 1.75-.55 3.51-.7 5.28-.9-.4-1.79-.8-2.69-1.2-3.15 2.65-6.12 5.51-8.97 8.48l-.28 2.48c-.76-1.04-1.73-1.81-2.9-2.34zM79.6 62.86c6.35 2.67 10.27 8.56 15.65 12.55-1.14.68-2.21 1.46-2.87 2.64.19-1.29-.17-2.38-1.09-3.27-2.73-2.68-5.28-5.57-8.38-7.84-.79.4-1.57.81-2.36 1.2-.31-1.76-.63-3.52-.95-5.28zM20.22 82.25c4.54-2.19 9.31-4.13 14.17-5.38-.99 1.27-2.42 2.05-3.73 2.94-1.38.45-2.71 1.02-4.02 1.65-.32-.11-.98-.33-1.31-.44-2.06.95-2.95 3.23-4.92 4.25.11.65.35 1.96.46 2.62-.55-.66-1.09-1.33-1.64-1.99.35-1.22.69-2.43.99-3.65z"/>
        <path d="M93.6 76.89c4.93 1.07 9.63 3.29 14.28 5.27.65 2.06 1.42 4.32-.71 5.78.24-.92.5-1.83.76-2.74-1.66-.24-2.25-1.88-3.26-2.98-1.58-.99-3.48-1.14-5.25-1.59-2.11-.94-4.31-1.93-5.82-3.74zM80.14 77.91c6.39 4.61 9.06 12.23 12.95 18.74l-1.88 1.52c-2.68-4.58-5.19-9.28-7.42-14.09-1.57-.48-3.15-.93-4.77-1.24.42-1.63.77-3.28 1.12-4.93zM34.96 96.64c4.15-6.33 6.43-14.37 13.15-18.61.3 1.6.6 3.2.92 4.8-1.62.32-3.21.76-4.79 1.25-1.73 5.13-5.59 9.31-6.9 14.59-.78-.7-1.57-1.37-2.38-2.03zM24.87 104.88c3.37-2.79 7.32-4.75 11.12-6.87-.81 3.16-4.86 3.8-7.15 5.69-2.6.92-2.71 3.91-4.34 5.75l.12 2.8c-1.42-2.12-2.06-5.64.25-7.37zM91.97 98.05c4.46 2.53 9.71 4.47 12.81 8.75 0 .83.01 2.49.02 3.32-.54.71-1.08 1.42-1.62 2.12.73-1.69.64-3.24-.85-4.41-.77-5.52-8.55-4.96-10.36-9.78z"/>
    </g>
</svg>
