<svg width="128pt" height="128pt" viewBox="0 0 128 128" xmlns="http://www.w3.org/2000/svg">
    <g fill="#fff">
        <path d="M59.3 19.03c-.81-.56-1.68-1.05-2.42-1.71 3.35.99 6.29 3.46 6.97 7.01-.68-.96-1.35-1.93-2-2.91-1-.63-1.8-1.49-2.55-2.39zM67.88 20c-.18-2.09 2.74-2.3 4.23-2.74-2.68 1.8-4.89 4.1-7.4 6.1.62-.84 1.85-2.52 2.47-3.36h.7zM65.27 23.3c.6.4.6.4 0 0zM61.41 27.4c1.79-.43 3.64-.45 5.46-.26.6 2.97.34 6.08-.7 8.92-.06 1.6-1.45 2.03-2.79 2.08-1.52-3.36-2.38-7.03-1.97-10.74z"/>
    </g>
</svg>
