<svg width="128pt" height="128pt" viewBox="0 0 128 128" xmlns="http://www.w3.org/2000/svg">
    <path fill="#400f10" opacity=".64" d="M44.77 16.55c1.24-2.28 2.32 2.06.1.84l-.1-.84z"/>
    <path fill="#b3272d" opacity=".96" d="M43.03 18.39c.43-.46 1.3-1.38 1.74-1.84l.1.84c-.88 2.55-2.22 4.91-3.1 7.47-.4 1.09-.81 2.18-1.24 3.27l-1.85-.6c-.15-2.67 2.73-4.63 1.94-7.44.96-.34 1.76-.9 2.41-1.7z"/>
    <path fill="#1b0606" opacity=".49" d="M40.62 20.09c-2.01-1.01 1.43-3.28 2.41-1.7-.65.8-1.45 1.36-2.41 1.7z"/>
    <g fill="#ff3439">
        <path d="M39.46 21.47c.31.31.31.31 0 0zM38.48 23.49c.31.3.31.3 0 0z"/>
    </g>
    <g fill="#ad2429">
        <path d="M60.26 24.4c.56-1.07 1.8-1.46 2.73-2.14-1.01 2.06-2.17 4.03-3.32 6.01-.81-.04-2.45-.13-3.27-.17.48-.46 1.45-1.38 1.93-1.84 1.02-.22 1.66-.84 1.93-1.86zM38.81 39.55c.29-.26.86-.76 1.15-1.02 1.34 1.28 2.64 2.59 4.03 3.81.62.56 1.26 1.08 1.92 1.58 2.86 1.96 6.18 3.08 9.45 4.14.1.06.31.17.41.23 4.76 3.4 9.97 8.32 9.33 14.72.07 2.45-.15 5.19-2.41 6.67-.43-.52-1.28-1.55-1.71-2.06.85-1.9.88-3.86-.28-5.64-1.47-4.96-5.62-8.23-9.27-11.58-4.29-3.43-10.4-5.47-12.62-10.85zM58.56 79.17c.24-.55.71-1.66.95-2.21 2.21.04 4.41.11 6.6.34-.26.23-.79.69-1.06.92-2.14.44-4.31.77-6.49.95z"/>
    </g>
    <g fill="#440d0d">
        <path d="M58.33 26.26c-.41-1.67.23-2.29 1.93-1.86-.27 1.02-.91 1.64-1.93 1.86zM98.17 67.22c2.27.75 4.64 1.13 7.04 1.1-1.75 2.81-4.86 4.08-8.11 3.2 1.85 2.99 3.36 6.17 4.35 9.55-5.8.08-11.75.92-16.74 4.1 1.06-1.88 2.18-3.73 3.13-5.67.66-1.42 1.28-2.85 1.91-4.28.52 1.24 1.05 2.48 1.58 3.72.42-.67.86-1.33 1.33-1.97-.36-.63-.73-1.26-1.09-1.88 1.8-2.94 3.98-5.63 6.6-7.87zM37.43 90.08c2.41-1.28 7.02-2.48 7.69 1.24l-.65.85c-.08-.65-.24-1.96-.33-2.61-1.99-1.12-3.17 1.16-4.66 1.98-.29.86-.59 1.72-.89 2.58-.39-1.35-.77-2.69-1.16-4.04z"/>
    </g>
    <path fill="#d42e33" d="M36.82 26.83c.27-.51.79-1.52 1.05-2.02.01.62.03 1.85.03 2.47-.27-.11-.81-.34-1.08-.45z"/>
    <path fill="#73181c" d="M40.53 28.13c.43-1.09.84-2.18 1.24-3.27-.25 3.06-.43 6.37 1.16 9.13 1.14 1.82 2.96 3.05 4.6 4.4l.04.22c.03 2.35 1.17 4.64 3.67 5.09.84-.72 1.58-1.54 2.35-2.34.64.24 1.29.48 1.94.72l.07.25c.2 3.97 6.6 8.27 9.19 3.97l.25-.25c2.01 3.23 5.26 5.67 6.74 9.2 0 1.97-.05 3.95-.09 5.93-2.42-.79-3.7-2.7-4.01-5.18-.77.04-2.32.13-3.1.17l-.29.01c-2.12-3.28-4.88-6.29-8.52-7.89-.1-.06-.31-.17-.41-.23-2.95-2.28-6.21-4.13-9.71-5.41l.26 1.27c-.66-.5-1.3-1.02-1.92-1.58-.71-1.27-1.04-2.91-2.46-3.61-1.92-1.13-2.36-3.53-3.27-5.4l-.41.29c-.31.3-.92.92-1.23 1.23-.58-2.73-.49-5.53-.34-8.3l.54.28c.27.11.81.34 1.08.45l.78.25 1.85.6z"/>
    <path fill="#6b1821" d="M55.98 28.08l.42.02c.82.04 2.46.13 3.27.17-.66 3.05-.84 6.22.22 9.2-1.73.47-3.45.94-5.17 1.44-.35-3.67-.03-7.36 1.26-10.83z"/>
    <path fill="#f73439" d="M36.62 34.85c.31-.31.92-.93 1.23-1.23 1.29.57.05 3.21-1.16 2.16l-.07-.93z"/>
    <path fill="#c6292d" opacity=".89" d="M37.61 38.45c-.27-1.91 2.56-1.47 2.35.08-.29.26-.86.76-1.15 1.02-.3-.28-.9-.83-1.2-1.1z"/>
    <path fill="#4d1010" d="M54.72 38.91c1.72-.5 3.44-.97 5.17-1.44 4.42 5.55 11.7 6.85 17.71 9.94 3.28 1.52 3.69 5.58 4.73 8.61-3.37-1.23-6.77-2.46-10.35-2.89-2.22-2.19-4-4.76-5.99-7.16-3.13-3.33-9.35-2.57-11.27-7.06z"/>
    <path fill="#8d1f20" opacity=".95" d="M47.57 38.61c2.04.82 4.04 1.77 6.02 2.75-.77.8-1.51 1.62-2.35 2.34-2.5-.45-3.64-2.74-3.67-5.09z"/>
    <path fill="#4d1110" opacity=".78" d="M45.65 42.65c3.5 1.28 6.76 3.13 9.71 5.41-3.27-1.06-6.59-2.18-9.45-4.14l-.26-1.27z"/>
    <path fill="#982328" opacity=".98" d="M55.6 42.33c3.2.98 6.33 2.23 9.19 3.97-2.59 4.3-8.99 0-9.19-3.97z"/>
    <path fill="#791818" d="M46.05 57.05c2.37-1.77 5.09-3 8.01-3.53.26.49.78 1.49 1.03 1.98-.7.19-2.11.57-2.81.77-.05 1.07-.09 2.15-.13 3.23-.99 1.41-1.96 2.82-2.91 4.25l2.33.84c.15 1.21.29 2.42.44 3.64-3.59-2.14-7.61-1.01-11.32.11-.36-.08-1.1-.22-1.47-.29.19.5.56 1.49.75 1.98l-1.48-.08c-.23-.89-.69-2.68-.92-3.58l-.11-.45c1.78-2.43 4.59-3.46 7.4-4.18.08-2.68-1.33-6.73 1.94-8.06-.19.84-.57 2.53-.75 3.37z"/>
    <path fill="#521113" d="M71.79 53.77c5.69.87 11.11 3.2 15.67 6.71 3.33 2.61 6.97 4.77 10.71 6.74-2.62 2.24-4.8 4.93-6.6 7.87.36.62.73 1.25 1.09 1.88-.47.64-.91 1.3-1.33 1.97-.53-1.24-1.06-2.48-1.58-3.72-.63 1.43-1.25 2.86-1.91 4.28-.37-2.47.2-5.51-1.95-7.31-2.47-2.8-6.36-3.65-9.95-3.62-1.6-1.71-3.09-3.51-4.52-5.36-1.45 2.76-3.63 5.08-6.41 6.54.12-4.53 1.48-9.23-.43-13.58.78-.04 2.33-.13 3.1-.17.31 2.48 1.59 4.39 4.01 5.18.04-1.98.09-3.96.09-5.93l.01-1.48z"/>
    <path fill="#5d1315" d="M52.28 56.27c.7-.2 2.11-.58 2.81-.77l.78-.2c1.54 2.08 2.96 4.25 4.05 6.6-.75 1.53-1.48 3.06-2.22 4.59l-.45-.11c-1.76-.87-3.37.76-3.42 2.5l-.47-.12c-.34-.13-1.01-.4-1.35-.53-.15-1.22-.29-2.43-.44-3.64l-2.33-.84c.95-1.43 1.92-2.84 2.91-4.25.04-1.08.08-2.16.13-3.23z"/>
    <path fill="#6f181a" d="M60.98 67.62c-2.59-1.37-1.9-3.78-.28-5.64 1.16 1.78 1.13 3.74.28 5.64z"/>
    <path fill="#7b181b" d="M71.35 64.26c1.89 1.98 3.45 5 6.54 5.06 3.55.29 6.92 1.86 9.11 4.71.36 3.36.21 6.82-2.16 9.46-.83-3.41-1.76-6.79-2.95-10.1-.67.45-1.33.89-1.99 1.34-2.53-.2-5.05-.41-7.57-.63.37.44.74.88 1.11 1.33-2.61.91-4.36 2.83-4.13 5.7-.68 1.08-1.36 2.17-2.03 3.26-1.13.96-2.27 1.91-3.44 2.84.66.22 1.96.67 2.61.89-2 1-4 2.01-5.87 3.23-1.56 1.03-3.08 2.11-4.66 3.1 1.31-2.85 3.62-4.97 6.12-6.77-1.19-2.04.42-3.56 1.78-4.95-.01-.75-.02-2.25-.02-3 .31-.38.94-1.13 1.25-1.51.27-.23.8-.69 1.06-.92.43-1.38.8-2.79 1.17-4.19-2.11 1.81-4.61 3-7.42 3.21l-.35.64c-.24.55-.71 1.66-.95 2.21-2-1.37-3.79-3.02-5.45-4.77-.91 2.28-1.83 4.57-2.77 6.84.56.12 1.69.37 2.26.49-1.57 3.38-5.26 2.81-8.22 2.15l-.24-2.42c1.27-1.51 2.48-3.09 3.51-4.79.3-.99.58-1.98.84-2.98-2.62.21-5.24.42-7.86.62 1.56.45 3.14.88 4.68 1.41-.39.5-1.16 1.51-1.54 2.01-2.81-.63-5.55 1.62-8.25.19-.23-.56-.69-1.67-.91-2.22-.16.27-.48.81-.64 1.07-1.36 1.98-2.61 4.3-1.36 6.68l-1.44.72c.1-1.82.04-3.64-.24-5.44-.78 1.02-1.47 2.11-2.05 3.27-.87-1.29-1.41-2.7-1.64-4.23 2-1.54 3.73-3.38 5.17-5.45 1.41-.21 2.82-.41 4.24-.6 2.12.26 4.26.5 6.41.46 2.58-.75 4.56-2.62 6.61-4.26 1.23.29 2.46.57 3.69.84l.47.12c1.6.42 2.49-1.54 3.42-2.5l.45.11c2.29.66 3.44 3.43 5.74 3.96 3.6-.3 6.11-3.36 7.91-6.19z"/>
    <path fill="#2d090c" opacity=".75" d="M53.83 68.88c.05-1.74 1.66-3.37 3.42-2.5-.93.96-1.82 2.92-3.42 2.5z"/>
    <path fill="#b0252a" opacity=".91" d="M36.45 68.73l1.12-2.36c.23.9.69 2.69.92 3.58-2.42-.06-4.87.08-7.15.97-.72.01-1.43.04-2.13.08 1.96-1.89 4.65-2.2 7.24-2.27z"/>
    <path fill="#2b0d0c" opacity=".67" d="M39.22 68.05c.37.07 1.11.21 1.47.29.33.1.99.31 1.32.42l.08 2.22c-2.27.05-4.54.14-6.82.23-1.31-.12-2.62-.21-3.93-.29 2.28-.89 4.73-1.03 7.15-.97l1.48.08c-.19-.49-.56-1.48-.75-1.98z"/>
    <path fill="#9d2429" opacity=".94" d="M42.01 68.76l2.33.8c-.41.88-.84 1.75-1.28 2.62-2.15.04-4.29-.2-6.41-.46l-1.38-.51c2.28-.09 4.55-.18 6.82-.23l-.08-2.22z"/>
    <path fill="#24090a" opacity=".56" d="M26.16 71c.34.03 1.02.1 1.37.13l1.37.97c-.84.39-1.68.78-2.51 1.18-.84 2.29-1.63 4.6-2.29 6.96-1-2.19-.41-4.62-.29-6.92.2.53.6 1.57.8 2.09.54-1.07.94-2.19 1.2-3.36l.35-1.05z"/>
    <path fill="#5f1618" opacity=".98" d="M27.53 71.13c.42-.03 1.26-.1 1.68-.13.7-.04 1.41-.07 2.13-.08 1.31.08 2.62.17 3.93.29l1.38.51c-1.42.19-2.83.39-4.24.6-1.44 2.07-3.17 3.91-5.17 5.45-.23-.09-.68-.26-.91-.35-.11 1.4-.23 2.79-.35 4.19-.47-.34-1.41-1.03-1.88-1.37.66-2.36 1.45-4.67 2.29-6.96.83-.4 1.67-.79 2.51-1.18l-1.37-.97z"/>
    <path fill="#ab2529" opacity=".89" d="M23.81 73.32c.5-.32 1.5-.95 2-1.27-.26 1.17-.66 2.29-1.2 3.36-.2-.52-.6-1.56-.8-2.09z"/>
    <path fill="#320b0b" opacity=".67" d="M59.86 76.32c2.81-.21 5.31-1.4 7.42-3.21-.37 1.4-.74 2.81-1.17 4.19-2.19-.23-4.39-.3-6.6-.34l.35-.64z"/>
    <path fill="#601313" d="M79.9 74.73c.66-.45 1.32-.89 1.99-1.34 1.19 3.31 2.12 6.69 2.95 10.1l.1.43c-2.87 2.34-5.74 5.07-9.52 5.79-4.53.91-9.17 1.58-13.38 3.6 1.33-2.17 3.52-3.51 5.66-4.77-.31-.11-.94-.32-1.25-.42-.65-.22-1.95-.67-2.61-.89 1.17-.93 2.31-1.88 3.44-2.84.67-1.09 1.35-2.18 2.03-3.26-.23-2.87 1.52-4.79 4.13-5.7-.37-.45-.74-.89-1.11-1.33 2.52.22 5.04.43 7.57.63z"/>
    <path fill="#160605" opacity=".58" d="M40.63 74.31c2.62-.2 5.24-.41 7.86-.62-.26 1-.54 1.99-.84 2.98-.58-.23-1.76-.71-2.34-.95-1.54-.53-3.12-.96-4.68-1.41z"/>
    <path fill="#84191e" d="M33.97 76.77c.16-.26.48-.8.64-1.07.22.55.68 1.66.91 2.22-.13.62-.39 1.87-.51 2.49 2.14.26 4.29.39 6.45.31.32.37.94 1.12 1.26 1.49.3-.73.89-2.2 1.19-2.94l.23 2.19.24 2.42c2.96.66 6.65 1.23 8.22-2.15 3.82.48 7.93.26 11.2-2 0 .75.01 2.25.02 3-1.36 1.39-2.97 2.91-1.78 4.95-2.5 1.8-4.81 3.92-6.12 6.77-1.67 2.65-3.68 5.06-5.61 7.53l.08-2.64c-1.08.47-2.15.95-3.21 1.44-1.1-.64-2.16-1.33-3.26-1.98 1.91-1.14 2.61-3.08 2.65-5.24-.9.12-2.71.37-3.62.5.38-.47 1.14-1.42 1.52-1.89l.65-.85c-.67-3.72-5.28-2.52-7.69-1.24-.93 1.21-1.79 2.47-2.65 3.73-2.61-.23-5.14-.96-7.76-1.15-1.17-.87-2.5-1.75-2.65-3.35l-1.64.52c.9-2.36 2.05-4.61 3.38-6.76.81-.19 2.41-.58 3.22-.77.17 2.45.96 4.78 2.21 6.89-.14-1.67-.29-3.34-.37-5.02l1.44-.72c.59-.29 1.76-.87 2.35-1.16-.38-1.83-.73-3.67-.99-5.52z"/>
    <path fill="#040101" opacity=".14" d="M45.31 75.72c.58.24 1.76.72 2.34.95-1.03 1.7-2.24 3.28-3.51 4.79l-.23-2.19c-.04-.38-.11-1.15-.14-1.54.38-.5 1.15-1.51 1.54-2.01z"/>
    <path fill="#070202" opacity=".24" d="M32.61 83.45c-1.25-2.38 0-4.7 1.36-6.68.26 1.85.61 3.69.99 5.52-.59.29-1.76.87-2.35 1.16z"/>
    <path fill="#170705" opacity=".51" d="M35.52 77.92c2.7 1.43 5.44-.82 8.25-.19.03.39.1 1.16.14 1.54-.3.74-.89 2.21-1.19 2.94-.32-.37-.94-1.12-1.26-1.49-2.16.08-4.31-.05-6.45-.31.12-.62.38-1.87.51-2.49z"/>
    <path fill="#180607" opacity=".5" d="M66.45 88.12c.31.1.94.31 1.25.42-2.14 1.26-4.33 2.6-5.66 4.77-.75 1.18-1.97 1.91-3.08 2.71.73-1.49 1.59-2.97 1.62-4.67 1.87-1.22 3.87-2.23 5.87-3.23z"/>
    <path fill="#862329" opacity=".9" d="M29.27 94.73c.3-1.37 2.84-.97 3.84-.45-.23 1.41-2.85.99-3.84.45z"/>
    <path fill="#9f2121" d="M25.55 96.54c2.68-.45 5.38-.79 8.1-.94-.16 1.37-.38 2.73-.69 4.08l-.61.04c-2.46.21-5.02.31-7.26 1.46-.42 1.56-.44 3.18-.48 4.78-1.15-3.19-.56-6.47.94-9.42z"/>
    <path fill="#b8272c" opacity=".91" d="M25.09 101.18c2.24-1.15 4.8-1.25 7.26-1.46-.74.7-1.49 1.39-2.25 2.06-2.66 1.67-4.02 4.64-2.49 7.61.4.88.81 1.76 1.23 2.64-1.76-1.75-3.33-3.74-4.23-6.07.04-1.6.06-3.22.48-4.78z"/>
    <path fill="#ba272c" opacity=".95" d="M47.18 100.78c1.06-.49 2.13-.97 3.21-1.44l-.08 2.64c-1.35 2.57-3.09 4.92-4.77 7.28l-.65-.4c.18-2.79.81-5.68 2.29-8.08z"/>
    <path fill="#090202" opacity=".28" d="M27.61 109.39c-1.53-2.97-.17-5.94 2.49-7.61-1.49 2.29-2.76 4.78-2.49 7.61z"/>
    <path fill="#521113" opacity=".76" d="M43.8 110c.27-.28.82-.86 1.09-1.14l.65.4c.37 1.32-.12 1.81-1.48 1.47l-.26-.73z"/>
</svg>
