<svg width="128pt" height="128pt" viewBox="0 0 128 128" xmlns="http://www.w3.org/2000/svg">
    <g fill="#fff">
        <path d="M41.49 19.46c1.7-1.06 3.07-2.54 4.69-3.71-2.86 4.35-5.66 9.37-4.6 14.77.36 3.29 2.77 5.81 5.39 7.6 4.9 3.07 10.45 4.78 15.7 7.12 3.81 1.43 5.31 5.55 8.08 8.23 2.89 5.52.44 12.37-4.57 15.74-.6-.29-1.2-.59-1.8-.89 2.68-3.83 2.24-9.43-.59-13.08-3.3-5.13-8.91-8.03-14.26-10.56-5.7-2.01-10.8-6.85-11.48-13.09-.6 5.34 3.74 9.28 7.74 11.97l-.33.54c6.37 2.46 13.51 5.05 17.31 11.16 3.1 4.02 3.52 10.36.24 14.38-1.28-1.43-2.62-2.8-4.07-4.06.72-1.72 1.98-3.56 1.06-5.47-1.67-4.06-5.34-6.79-8.45-9.73-4.4-3.24-9.67-5.58-12.71-10.35-3.17-5.4-3.36-12.46-.34-17.98.41.57 1.22 1.71 1.62 2.28-.4-1.23-.84-2.45-1.32-3.66l2.72 1.88-1.84-2.96c.59.34 1.76 1.02 2.34 1.35-.13-.37-.4-1.11-.53-1.48m-3.27 5.28c.01.7.02 2.1.02 2.8 1.13-.5 1.3-1.44.53-2.82l-.55.02z"/>
        <path d="M55.71 40.57c-2.85-6.8.29-15.32 7.32-17.99-3.68 4.44-6.18 11.63-1.91 16.5 4.5 4.36 10.88 5.63 16.32 8.4 3.31 1.5 3.67 5.6 4.81 8.63-3.21-1.69-6.73-2.66-10.3-3.24-2.12-2.19-3.95-4.62-5.77-7.05-2.98-2.63-7.25-3-10.47-5.25zM42.12 69.26c1.23-1.03 2.99 1.01 1.83 2.09-1.18.91-3.05-1.02-1.83-2.09zM24.01 73.21c1.06-1.28 2.78-1.64 4.21-2.32-1.05.95-2.12 1.87-3.17 2.82-.08 1.67-.22 3.33-.41 4.99-.43-1.79-.84-3.63-.63-5.49zM53.44 74.95c2.89.53 5.66 1.56 8.55 2.08 1.87.29 3.04-1.57 4.49-2.37-1.07 3.41-4.72 4.86-8.05 4.35-1.66-1.35-3.43-2.58-4.99-4.06zM29.31 94.27c1.2-.74 3.02-.73 4.21.04-.26 1.38-4.02 1.38-4.21-.04z"/>
    </g>
    <path fill="#616161" opacity=".38" d="M38.22 24.74l.55-.02c.77 1.38.6 2.32-.53 2.82 0-.7-.01-2.1-.02-2.8z"/>
</svg>
