<svg width="128pt" height="128pt" viewBox="0 0 128 128" xmlns="http://www.w3.org/2000/svg">
    <g fill="#fff">
        <path d="M42.31 31.34c5.98-3.69 12.83-6.25 19.93-6.25-.83 1.55-.79 4.6-3.19 4.46-9.31.93-18.07 6.41-23.26 14.15-.17.04-.49.11-.65.15 1.77-4.05 5.6-6.6 8.91-9.33-.27-1.19-1.22-2.1-1.74-3.18m14.65-5.28l-.04 3.24c.76-.06 2.28-.2 3.04-.26.57-1.12 1.13-2.25 1.68-3.38-1.56.14-3.12.27-4.68.4zM66.92 24.9c11.58.85 22.32 7.04 29.36 16.18l-1.28.55.06-1.63h-1.03l-.08-.6c-2.61-2.49-5.06-5.16-7.89-7.4-.62.55-1.85 1.67-2.47 2.23 4.47 2.4 7.62 6.32 10.54 10.37.61-.74 1.84-2.22 2.45-2.96 3.4 6.07 6.75 12.69 6.15 19.87-.76.08-1.53.1-2.3.05l-.68-.21-.43-.62c-1.05-2.29-.83-4.87-1.69-7.24-2.43-7.62-7.58-14.5-14.49-18.57-4.35-3.91-10.38-4.78-15.9-5.9-.12-1.38-.22-2.75-.32-4.12m.48.83c.13 2.46 1.43 3.83 3.97 3.66.01-.84.05-2.5.07-3.33-1.01-.09-3.03-.25-4.04-.33m32.07 31.31c-.29 1.05.02 2.01.92 2.87 1.34 1.08 2.45-1.48 1.5-2.38-.61-.12-1.82-.37-2.42-.49z"/>
        <path d="M68.28 41.35c.37-3.53 1.38-6.96 2.31-10.38-.72 3.47-.75 7.14-2.31 10.38zM31.71 41.81c2.79-3.7 5.67-7.91 10.15-9.61-3.41 3.42-7.71 6.21-9.94 10.7.52.29 1.55.88 2.07 1.18l.88.57c-3.28 4.74-5.06 10.3-5.59 16.01-1.41.54-2.82 1.04-4.24 1.52.09-7.28 2.75-14.31 6.67-20.37m-5.62 15.15c-.16 1.6-.33 3.19-.5 4.79 2.14-.77 3.8-2.28 3.88-4.68-.84-.03-2.53-.08-3.38-.11zM58.29 31.98c.31 1.61.57 3.23.84 4.85.46 1.87.98 3.77.64 5.71-1.06-3.41-1.15-7.03-1.48-10.56zM54.37 33.29c.58 1.13 1.11 2.3 1.34 3.56 1.5 2.67.63 7.16 4.36 7.99-.27.21-.82.63-1.1.84-2.58.67-4.83 2.13-7.09 3.5-3.27-2.25-5.31-5.76-7.6-8.91l.17-.33c2.35 2.93 4.67 5.91 7.54 8.36.07-.52.21-1.56.27-2.08-1.72-3.05-3.69-5.96-5.26-9.1 1.11 1.54 2.14 3.14 3.21 4.71 1.07 1.62 2.16 3.23 3.22 4.87.32-.32.95-.94 1.26-1.26l.58-.28c.45-.06 1.36-.18 1.81-.23.01-4.08-2.61-7.61-2.71-11.64z"/>
        <path d="M54.73 43.83c-1.89-2.66-4.08-5.99-4.36-9.44 1.61 3.07 2.95 6.28 4.36 9.44zM68.65 45.23c2.6-3.27 3.56-7.47 5.25-11.24-.16 3.92-2.34 7.29-3.15 11.06 2.91.7 2.88-2.81 3.95-4.58 1.25-1.61 1.54-3.75 2.95-5.23-.44 3.92-3.41 6.84-4.44 10.56.42.17 1.26.5 1.68.66 1.92-2.7 3.76-5.46 5.59-8.23l.34.01c-1.81 2.9-3.67 5.78-5.14 8.87l1.31.73c1.65-1.86 3.11-3.88 4.91-5.59 1.07-.89 1.19-2.8 2.73-3.09-2.21 3.73-4.81 7.33-8.19 10.07-2.51-1.51-5.08-2.9-7.79-4zM39.32 41.24c2.79.9 4.51 3.67 6.52 5.66-2.29-1.73-4.62-3.48-6.52-5.66zM84.85 44.29c.78-1.06 1.76-2.02 3.11-2.27-1.79 2.17-3.86 4.08-5.99 5.9.88-1.27 1.88-2.45 2.88-3.63zM37.86 45.22c2.57 1.74 5.37 3.12 7.81 5.04.44.37 1.31 1.13 1.74 1.51l2.08-1.16c-1.06 3.01-3.24 5.52-3.87 8.7-.64.06-1.29.11-1.94.17-2.82-.78-5.57-1.87-8.48-2.25-1.03-.34-2.08-.64-3.12-.94 2.75.18 5.44.75 8.07 1.55 1.64.45 3.28.55 4.92.3-1.17-2.29-3.89-2.44-6.01-3.33-2.04-.56-3.69-2-5.77-2.47 4.2.11 7.66 2.98 11.74 3.91.17-.46.49-1.39.65-1.85-2.9-1.85-6.25-2.98-8.92-5.19 2.34.37 4.37 1.69 6.36 2.88 1.39.85 3.2 3.07 4.04.44-3.01-2.54-6.28-4.77-9.3-7.31zM78.56 51.26c5.07.71 7.75-5.06 12.07-6.03-2.91 2.73-6.47 4.59-9.63 7.03.85 1.34 1.66 2.71 2.53 4.05 3.77-1.18 7.22-3.59 11.17-3.97-2.98 1.82-6.42 2.52-9.58 3.91-1.14.4-1.6 1.23-1.37 2.49 4.07-.93 8.14-1.91 12.27-2.53-3.95.96-7.81 2.22-11.73 3.28-.38-.03-1.14-.09-1.52-.13-.84-2.97-2.46-5.59-4.21-8.1zM54.96 51.52c.89-1.14 2.64-2.3 4.11-2.02.69 1.76-3.38 3.83-4.11 2.02zM68.95 49.48c1.94.25 3.56 1.27 4.76 2.81-2.24.28-3.66-1.14-4.76-2.81z"/>
        <path d="M83.16 53.78c2.67-1.81 5.44-4.1 8.7-4.77-2.64 2-5.56 3.73-8.7 4.77zM51.49 54.97c1.79.77-.22 4.84-2.01 4.09-.26-1.47.88-3.19 2.01-4.09zM76.09 55.11c1.62-.17 2.97 2.52 2.66 3.91-1.79.5-3.16-2.47-2.66-3.91zM94.13 60.54c1.13-.55 2.27-.52 3.44.09l.08.46c-.88.66-3.38.9-3.52-.55zM83.29 64.64c4.55-1.05 9.31-.24 13.93-.18-4.63.3-9.3.57-13.93.18zM24.9 66.92c1.14.08 2.28.18 3.43.28 1.33 1.93 3.83.98 5.76 1.45-1.53.02-3.06-.03-4.59-.17.2 5.55 2.56 10.59 5.24 15.33-.96.77-1.91 1.55-2.84 2.35 3.18 3.51 6.36 7.07 10.12 9.97.64-.44 1.93-1.33 2.58-1.78-3.48-2.53-6.51-5.6-9.4-8.76 1.3-1.08 2.77 2.5 4.02 3.18 4.58 5.09 10.87 8.28 17.44 9.95.28-.42.83-1.27 1.11-1.69l-1 2.93c1.03-.21 3.09-.65 4.12-.86.3 1.48.57 2.97.69 4.48-4.92-.53-9.73-1.8-14.27-3.75-12.69-5.95-21.44-18.96-22.41-32.91m.85.49c.08 1.04.25 3.11.33 4.15.8 0 2.41-.01 3.22-.02.71-2.81-1.08-3.82-3.55-4.13m31.59 32.9c-1.78 2.3 3.56 2.8 2.99.27-.75-.06-2.24-.2-2.99-.27zM99.5 67c1.49.23 2.98.43 4.47.68l-1.55.42c.74 4.67-1.1 9.19-2.99 13.34-4.35 9.24-12.55 16.5-22.19 19.83-3.14 1.3-6.64 1.24-9.76 2.58l-.33-4.26c1.3-.3 3.89-.4 3.19-2.45-1.18-3.36-1.56-6.94-2.1-10.44 1.78 3.86 1.04 8.48 3.44 12.11 7.99-2 15.01-6.72 20.12-13.15-.03-.29-.08-.87-.1-1.16 5.62-3.91 6.13-11.42 7.8-17.5m.88 4.48c1.56-.41 2-1.44 1.32-3.1-1.79-1.52-2.78 2.27-1.32 3.1M83.96 94.22c.15 1.22 1.82 1.49 2.68 2.16l.41-1.08c3.76-2.33 6.5-5.78 9.18-9.21-.49-.52-1.48-1.58-1.97-2.11-3.16 3.68-6.67 7.04-10.3 10.24m-16.09 7.16c.71 1.93 4.53.25 2.98-1.54-1.54-.32-2.53.19-2.98 1.54z"/>
        <path d="M31.11 72.68c4.62-1.48 9.26-2.97 14.04-3.81 1.3 2.86 2.81 5.62 4.31 8.39l-2.3-.28-.67 1.57c-.2-1.34.11-2.69.42-3.99-1.33.51-2.64 1.04-3.95 1.6-1.5 1.44-3.42 2.55-5.59 2.43 2.91-1.61 5.95-2.99 8.72-4.83-.3-.39-.9-1.16-1.19-1.54-3.14 1.62-6.61 2.4-9.91 3.6 2.93-2.36 7.08-2.48 10.24-4.63-.81-.46-1.62-.92-2.42-1.38-3.85 1.15-7.64 2.75-11.7 2.87zM49.44 69.54c1.68-.48 4.2 2.86 2.08 3.69-1.29-.6-2.45-2.25-2.08-3.69zM78.29 69.31c1.46.82-.66 4.46-2.22 3.78-.72-1.48.84-3.32 2.22-3.78zM78.78 76.77c1.8-2.44 3.25-5.11 4.1-8.03 4.76.93 9.28 2.81 14.06 3.64-1.46-.04-2.92.04-4.37.17l.41-.84c-2.92-.54-5.82-1.21-8.73-1.85-.71 1.35-1.35 2.73-1.98 4.12 3.46 2.05 7.24 3.48 10.46 5.91-2.73-.22-4.56-2.6-7.34-2.8l.79-.64c-1.7-.19-4.04-3.19-5.17-.57 1.39 1.19 2.83 2.33 4.23 3.52.56.02 1.68.07 2.24.1.04.57.1 1.72.14 2.29.62.25 1.88.75 2.5 1.01-.58-.17-1.74-.51-2.31-.67-2.6-2.32-5.45-4.92-9.03-5.36z"/>
        <path d="M84.19 72.23c3.35.66 6.37 2.59 9.66 3.58-3.5-.1-6.76-2.13-9.66-3.58zM54.46 75.71c2.16.31 4.16 1.55 5.1 3.57-1.96-.77-4.2-1.42-5.1-3.57zM68.82 79.07c1.03-1.83 2.79-3.11 4.91-3.37-.82 2.11-2.94 2.81-4.91 3.37zM39.99 80.99c1.66-.83 2.99-2.44 4.83-2.81-1.3 2.41-4.42 3.17-6.53 4.8.42-.5 1.27-1.49 1.7-1.99zM51.47 78.87c2.57 1.56 5.03 3.41 8.06 3.95.02.49.05 1.46.06 1.95-.51-.33-1.02-.66-1.53-.98-1.14 3.8-2.51 7.54-3.92 11.25.95-3.76 2.26-7.43 3.14-11.21-1.33-.61-2.61-1.31-3.95-1.88-1.73 2.81-3.97 5.37-5.02 8.54-.59.97-1.58 1.55-2.47 2.21 2.14-2.81 3.48-6.07 5.18-9.15l.74.34c.19-.81.56-2.43.75-3.24-3.28.13-3.89 4.49-6.69 5.85-.32.76-.66 1.5-1.04 2.22-.04-.4-.13-1.2-.17-1.6 2.26-2.77 4.6-5.48 6.86-8.25zM68.86 82.97c2.72-1.05 5.37-2.27 7.75-3.96 2.57 2.48 4.64 5.4 6.54 8.41-2.87-2.02-3.93-6.56-7.83-6.81.67 1.6 1.45 3.15 2.19 4.73l.59-.95c.4 2.9 2.32 5.08 3.88 7.42-4.02-2.39-4.14-8.01-8.27-10.14-.57 4.53 4.14 7.68 3.98 12.16-1.79-3.58-3.28-7.3-5.05-10.89-.46.25-1.37.75-1.82 1.01.85 2.42 1.69 4.88 2.06 7.43-1.24-2.85-2.03-5.94-4.02-8.41zM42.19 84.95c-.24-1.36.31-2 1.65-1.91.23 1.36-.31 1.99-1.65 1.91zM83.99 82.98c1.34-.15 1.95.45 1.8 1.81-1.37.13-1.97-.47-1.8-1.81z"/>
        <path d="M50.01 93.75c1.17-3.81 3.49-7.22 5.34-10.75-.56 4.08-2.92 7.54-5.34 10.75zM66.6 98.05c-.7-4.82-2.57-10.04-.85-14.77.33 4.92.12 9.87.85 14.77zM40.25 86.28c.54.53.54.53 0 0zM59.56 86.77c.57 3.16-.89 6.23-1.32 9.33.13-1.75.33-3.5.54-5.24.2-1.38.46-2.74.78-4.09z"/>
    </g>
    <path fill="#555" opacity=".33" d="M32.46 60.11c2.97-1.59.21 3.31 0 0z"/>
    <path fill="#393939" opacity=".22" d="M94.48 68.2c.65-.96 3.07-.8 2.89.61-.65.96-3.08.8-2.89-.61z"/>
    <path fill="#323232" opacity=".2" d="M36.27 79.21c.49.52.49.52 0 0z"/>
    <path fill="#414141" opacity=".25" d="M73.08 92.19c3.33.18-1.57 2.97 0 0z"/>
</svg>
