<svg width="128pt" height="128pt" viewBox="0 0 128 128" xmlns="http://www.w3.org/2000/svg">
    <path fill="#4f1215" opacity=".62" d="M63.11 23.19c-.25-2.56.04-5.21 1.5-7.38.15 1.35.48 2.7.36 4.07-.63 1.09-1.25 2.2-1.86 3.31z"/>
    <g fill="#ec3134">
        <path d="M63.11 23.19c.61-1.11 1.23-2.22 1.86-3.31-.02.94-.07 2.82-.1 3.77-.08.37-.24 1.13-.32 1.51-.88 10.87-.19 21.9-.48 32.84-1.8.39-3.62.8-5.48.68.1-2.06.15-4.13.16-6.2 1.56.38 2.86 1.28 3.93 2.44v-2.6c-1.2 0-2.39.02-3.58.04.41-2.31.75-4.64 1.12-6.96-.51.08-1.52.24-2.03.33-.35-.31-1.07-.93-1.43-1.23.37-.75.74-1.5 1.12-2.24l1.13 2.97c2.91-4.01 1.88-9.32 3.07-13.9.25-1.28.53-2.56.66-3.86.13-1.43.25-2.85.37-4.28zM52.89 101.37c1.17-.81 3.06-.49 3.19 1.15-1.4.53-2.46.15-3.19-1.15z"/>
    </g>
    <g fill="#ce2831">
        <path d="M64.55 25.16c.08-.38.24-1.14.32-1.51 1.65 4.85 1.65 10.08 2.6 15.09.29.08.88.25 1.17.33.26 1.56-2.23 4.83.35 5.06 2.09-.16 1.86-2.59 2.52-4.03l.72.73c-.54 1.53-.98 3.08-1.38 4.64 3.45-1.51 4.08-5.71 6.17-8.51-1.3 3.06-2.75 6.08-3.66 9.29 3.52-.34 4.27-5.02 6.59-7.25-1.18 3.13-3.88 5.79-3.71 9.33 2.7-2.67 5.1-5.63 7.87-8.22-1.47 2.31-3.15 4.48-4.8 6.66 1.03-.63 3.08-1.91 4.11-2.55l.11 1.73c-5.72 2.2-8.13 8.54-13.49 11.26l.29 1.56c-1.45-1.27-1.11-3.27-1.34-4.95.26-.36.76-1.08 1.02-1.44l.63 1.9c2.52-1.72-.69-3.37-1.34-5.06 1.47.73 2.91 1.52 4.33 2.37.86-.79 1.72-1.58 2.59-2.37-2.26-1.25-4.41-3.13-7.11-3.2l-.66.27.96 4.44c-.48.64-.96 1.27-1.44 1.91.49-3.25-.38-6.44-.84-9.62-.87-5.96-1.83-11.89-2.58-17.86zM85.12 35.7c3.57 1.72 6.47 4.83 8.13 8.42-2.68-2.84-5.4-5.64-8.13-8.42zM45.22 42.68c-.54-.47-1.67-3.1-.12-1.92 3.24 1.68 2.93 5.5 4.73 8.1 2.62 3.54 6.43 6.06 8.64 9.93-.96-.05-2.88-.14-3.84-.19-.6-1.34-1.37-2.59-2.14-3.83-.49 1.45-.98 2.9-1.48 4.35.66-.11 1.97-.32 2.63-.43l.26 1.16c-2.22.04-4.46.28-6.67-.08 2.12-1.2 3.25-3.36 4.58-5.28-.77-1.17-1.53-2.35-2.28-3.53-1.37 2.59-2.66 5.22-3.87 7.9-1.68.5-1.9-1.77-2.89-2.56-3.08-1.75-6.5-2.74-9.72-4.16 3.84.92 7.45 2.55 11.21 3.74.45-.3 1.34-.91 1.79-1.22-3.71-2.09-7.49-4.09-11.02-6.49 3.7 1.73 7.2 3.85 10.96 5.45l1.14-.61c-2.22-2.87-5.61-4.48-8.15-7.03 2.89 1.58 5.46 3.67 8.31 5.33.48-.09 1.44-.26 1.92-.34-1.06-1.5-2.17-2.96-3.35-4.37-1.05-.54-2.08-1.11-3.1-1.69.39-.12 1.16-.35 1.55-.46.9.25 2.69.73 3.59.98-.89-.92-1.78-1.84-2.68-2.75z"/>
        <path d="M54.65 51.34c1.51-.79 3.03-1.57 4.57-2.3.12 1.88-1.55 2.51-2.93 3.26l.84 2.23c-1.61-1.39-3.22-2.79-4.63-4.4.54.31 1.61.91 2.15 1.21zM76.23 53.16c.58.56.58.56 0 0zM83.81 59.42c1.91-1.83 4.8-1.87 7.28-2.1l.84.12c-2.66.84-5.35 1.58-8.12 1.98zM61.49 64l2.52-2.55c.85.84 1.69 1.69 2.53 2.55L64 66.51 61.49 64zM49.05 69.27c1.48.8 2.78 1.88 3.96 3.08-.34 1.07-.74 2.14-.54 3.28 1.49-1.61 3.04-3.15 4.63-4.66.5.11 1.51.33 2.02.43.38 2.46.76 4.91 1.17 7.36-.35.55-.7 1.1-1.06 1.65-1.23-1.75-3.2-2.72-4.73-4.15-.92.6-1.66 1.54-2.76 1.81-.25-.24-.75-.74-1-.98-.14-.38-.4-1.13-.54-1.51.34-.52 1.01-1.55 1.34-2.06-.9-1.38-1.74-2.79-2.49-4.25m7.31 5.82c-.02 1.25.6 1.97 1.85 2.18 1.15-.68 1.08-2.99-.1-3.59-.44.36-1.31 1.06-1.75 1.41zM34.94 84.88c4.35 3.17 7.54 7.76 12.39 10.32 1.06.59 2.15 1.13 3.26 1.62l1.71.57c.32.1.97.29 1.29.39l1.46.41c.16.42.47 1.26.62 1.68-1.7.46-3.4.94-5.11 1.35-7.23-2.74-14.26-7.56-18.26-14.13l.31.08c3.13 2.92 5.76 6.46 9.43 8.76.88-.46 1.75-.96 2.6-1.48-3.59-2.8-7.08-5.81-9.7-9.57z"/>
    </g>
    <path fill="#6d191d" opacity=".75" d="M56.31 24.98c1.95-.06 3.9-.11 5.85-.18.14.67.44 2 .58 2.67-.13 1.3-.41 2.58-.66 3.86.03-.56.08-1.69.1-2.25-1.83.37-3.66.75-5.52.99-.1-1.49-.2-2.98-.31-4.47l-.04-.62m.68.96l.08 3.53c1.91-.4 3.39-1.57 4.34-3.25-1.47-.11-2.94-.2-4.42-.28z"/>
    <g fill="#d62c39">
        <path d="M66.83 24.72c12.74 1.3 25.75 8.33 31.33 20.23.28 1.14.88 2.16 1.63 3.06 1.57 2.64 2.41 5.7 2.91 8.7-.05.65-.16 1.94-.22 2.59l-.67.36c0-.6.01-1.81.01-2.42-.64-.04-1.91-.14-2.55-.19 0 1.21.38 2.31 1.16 3.28-.28.18-.85.53-1.14.7-.13-.65-.4-1.95-.53-2.6-.32-1.42-.64-2.84-1.03-4.24-.37-1.32-.76-2.64-1.26-3.92-1.01-1.96-2.13-3.86-3.27-5.74 1.03-.72 2.05-1.46 3.08-2.2-3.18-3.85-6.66-7.48-10.64-10.51-.85 1.37-1.17 2.85-.96 4.43-.74-.6-2.22-1.8-2.97-2.41l-1.77-1.21c-1.25-.6-2.53-1.12-3.81-1.63l-.77-.3c-.53-.11-1.61-.35-2.14-.46l-2.33-.4-.67-.12c-1.01-.18-2.01-.37-3.01-.58-.12-1.47-.25-2.95-.38-4.42m.67.96c.15.75.45 2.25.6 3.01.83.18 2.5.56 3.33.74-.01-.87-.01-2.63-.02-3.5-.98-.06-2.93-.19-3.91-.25zM78.24 50.84c2.32.56 4.44-.5 6.48-1.44-1.13 1-2.3 1.95-3.46 2.91l-.29.23c-.35.12-1.03.36-1.37.48-.34-.55-1.02-1.63-1.36-2.18z"/>
    </g>
    <g fill="#de3039">
        <path d="M51.11 27.08c1.7-.67 3.48-1.05 5.24-1.48.11 1.49.21 2.98.31 4.47l-1.52.15c-.58.17-1.76.52-2.35.7-2.68 1.09-5.25 2.45-8.02 3.31-.64-.51-1.92-1.52-2.56-2.03-3.77 2.87-7.57 6-9.9 10.21.42.57 1.26 1.72 1.68 2.3 2.83-3.48 5.43-7.53 9.69-9.4-1.47 1.52-3.1 2.88-4.65 4.32-.19.22-.58.65-.77.87-4.12 4.5-7.08 9.99-8.35 15.97l-.37.69c-.92-.04-2.77-.11-3.69-.14l-.08-1.4c.71-3.51 1.96-6.9 3.7-10.03l.11-.19c4.08-7.84 10.98-14.41 19.36-17.32.93 1.13 2.53.51 2.17-1zM59.42 62.18c1.74-3.95 6.88-3.94 9.22-.57l-1.5 2.07c-.51-1.62-1.56-2.8-3.16-3.54-2.18 1.14-4.43 3.68-2.24 5.98 2.48 2.75 5.07-.89 7.27-2.09-.15 4.14-4.84 5.82-8.04 3.88-1.03-1.74-1.53-3.72-1.55-5.73z"/>
    </g>
    <path fill="#030101" opacity=".13" d="M56.99 25.94c1.48.08 2.95.17 4.42.28-.95 1.68-2.43 2.85-4.34 3.25l-.08-3.53z"/>
    <path opacity=".11" d="M67.5 25.68c.98.06 2.93.19 3.91.25.01.87.01 2.63.02 3.5-.83-.18-2.5-.56-3.33-.74-.15-.76-.45-2.26-.6-3.01z"/>
    <path fill="#7a1a19" opacity=".81" d="M48.94 28.08l1.31-1.27.86.27c.36 1.51-1.24 2.13-2.17 1z"/>
    <path fill="#4a1013" opacity=".64" d="M52.79 30.92c.59-.18 1.77-.53 2.35-.7-.58.17-1.76.52-2.35.7z"/>
    <path fill="#20090b" opacity=".45" d="M70.22 29.72l.67.12c-.24 2.67-.45 5.36-.8 8.03-.23-.03-.69-.07-.91-.1-.81-2.67.57-5.42 1.04-8.05z"/>
    <path fill="#1a0808" opacity=".43" d="M73.22 30.24c.53.11 1.61.35 2.14.46-.85 3.43-1.82 6.84-3.13 10.13-1.04-3.22 1.03-6.15 2.09-9.04-.27-.39-.83-1.16-1.1-1.55z"/>
    <path fill="#1b0606" opacity=".38" d="M76.13 31c1.28.51 2.56 1.03 3.81 1.63-.99 1.43-1.99 2.86-2.92 4.33.57-2.06 1.25-4.54-.89-5.96z"/>
    <path fill="#2f1012" opacity=".55" d="M58.23 31.85c1.09 3.25 1.93 6.59 2.32 10.01l-1.47.01c-.64-3.3-1.14-6.65-.85-10.02z"/>
    <path fill="#250d0e" opacity=".49" d="M54.05 32.66c1.54 3.01 2.61 6.23 3.57 9.47l-2.01-.2c-.48-3.1-1.26-6.15-1.56-9.27z"/>
    <path opacity=".05" d="M77.02 36.96c.93-1.47 1.93-2.9 2.92-4.33l1.77 1.21c.12.58.35 1.73.46 2.31-1.53-.2-2.64 1.47-2.22 2.85-2.32 2.23-3.07 6.91-6.59 7.25.91-3.21 2.36-6.23 3.66-9.29z"/>
    <path fill="#180909" opacity=".44" d="M49.93 33.77c2.3 2.97 3.91 6.41 5.01 9.99l-.47-.26c-3.1-2.04-3.61-6.37-4.54-9.73z"/>
    <path fill="#0a0404" opacity=".35" d="M79.95 39c-.42-1.38.69-3.05 2.22-2.85l.15.73c-.52 1-1.31 1.71-2.37 2.12z"/>
    <path fill="#331011" opacity=".54" d="M46.71 36.64c2.64 2.93 4.69 6.31 7.02 9.49-.36.29-1.09.86-1.46 1.15-1.87-3.54-4.11-6.89-5.56-10.64z"/>
    <path fill="#060202" opacity=".32" d="M38.26 40.5c.19-.22.58-.65.77-.87 1.75 1.66 3.48 3.84 6.24 3.13l-.05-.08c.9.91 1.79 1.83 2.68 2.75-.9-.25-2.69-.73-3.59-.98-.39.11-1.16.34-1.55.46l-.43.13c-1.4-1.48-2.82-2.94-4.07-4.54z"/>
    <path fill="#6c2728" opacity=".82" d="M54.47 43.5l.47.26c-.12-.06-.35-.2-.47-.26z"/>
    <path fill="#9c252a" opacity=".86" d="M83.82 43.97l.3.35-.36.26-.34-.36.4-.25z"/>
    <path fill="#2a090a" opacity=".57" d="M29.47 45.59l.11-.19-.11.19z"/>
    <path fill="#ce2e33" opacity=".95" d="M55.17 45.13c.4-.16 1.19-.48 1.59-.63.36.3 1.08.92 1.43 1.23-2.01 1.04-4.12 2.01-5.76 3.63-.65-.12-1.95-.37-2.6-.5.31-.91.64-1.82 1.01-2.72l.46 2.07.97-.93c.37-.29 1.1-.86 1.46-1.15l1.44-1z"/>
    <path fill="#120708" opacity=".38" d="M86.01 48.77c-.23-2.66 3.23-3.3 5.17-4.01-1.49 1.61-3.05 3.27-5.17 4.01z"/>
    <path fill="#3d0c10" opacity=".57" d="M98.16 44.95c1.66-.86 3.08 2.07 1.63 3.06-.75-.9-1.35-1.92-1.63-3.06z"/>
    <path fill="#1d0a0b" opacity=".44" d="M83.17 53.14c3.29-2.35 6.98-4.3 10.95-5.2-3.56 2.63-7.36 4.92-11.39 6.73l.44-1.53z"/>
    <path fill="#1e0809" opacity=".41" d="M96.47 50.27c.5 1.28.89 2.6 1.26 3.92-.48-.76-.96-1.51-1.45-2.26-2.1.92-4.27 1.7-6.54 2.04 2.28-1.17 4.5-2.44 6.73-3.7z"/>
    <g fill="#ce2c39">
        <path d="M79.6 53.02c.34-.12 1.02-.36 1.37-.48l.29-.23c.77 1.28 1.53 2.57 2.29 3.86 2.04-.79 4.11-1.52 6.19-2.2-2.5 1.51-5.88 2.36-6.45 5.73-1.21-2.24-2.36-4.51-3.69-6.68zM75.49 68.35c1.41-.13 2.83-.16 4.25-.1-.21.38-.63 1.13-.84 1.5-.62 1.38-1.39 2.68-2.4 3.81.74 1.07 1.48 2.14 2.21 3.22 1.74-2.35 2.91-5.03 4.23-7.62l2.54-.4-.28.57c-.38.53-1.15 1.58-1.53 2.11-.63 1.11-1.17 2.26-1.75 3.4-.55 1.19-1.29 2.3-2.49 2.92 2.25 3 4.98 5.55 7.79 8.02-2.02-1.07-4.02-2.19-5.91-3.47-1.58-1.77-2.95-3.71-4.47-5.53-1.1-1.19-2.22-2.36-3.33-3.54.42-.28 1.26-.84 1.68-1.13.98-.62 1.73-1.44 2.26-2.47-.67-.19-2.03-.58-2.7-.77l.74-.52zM34.12 71.74c3.66-.91 7.2-2.31 10.93-2.93 1.54 2.44 2.66 5.11 3.9 7.7.45.15 1.34.43 1.79.58.25.24.75.74 1 .98 1.85 2.46 4.59 3.81 7.43 4.8-.6 1.15-1.23 2.29-1.91 3.41l-.21-1.54c.06-.44.18-1.32.24-1.77-3.46 1.73-4.24 6.07-6.21 9.13.81-3.11 2.63-5.83 3.62-8.87-.21-.38-.65-1.14-.87-1.52-1.02 1.21-2.01 2.43-3.08 3.59.64-1.51 1.32-3 2.02-4.48-3.68.12-4.69 4.79-7.73 6.41 1.86-2.93 4.22-5.51 6.15-8.4-3.73 2.76-7.49 5.5-11.39 8.02 3.12-3.07 6.55-5.82 9.18-9.37-3.67-.58-5.98 3.35-9.2 4.56 1.97-2.89 6.9-3.76 7.01-7.63-3.39 1.47-6.49 3.66-10.12 4.53 3.45-1.75 7.28-3.26 9.66-6.48-3.31.51-6.45 1.68-9.67 2.58 2.95-1.39 5.97-2.64 8.81-4.25-3.61-1.16-7.18.64-10.77 1.01l-.58-.06z"/>
        <path d="M82.19 77.19c2.08.65 3.51 2.55 5.08 3.98-1.67-1.2-4.53-1.86-5.08-3.98zM76.32 78.19c.12.25.37.74.5.98l.6 1.55c-.86.84-1.63 1.76-2.44 2.66L74 81.56c-.06.84-.18 2.53-.23 3.37l-.69-.62c-.24-.41-.71-1.22-.94-1.62l-.93 1.41-.77 1.24c-.44-.59-1.31-1.76-1.74-2.34 2.68-1.3 6.08-1.96 7.62-4.81zM62.33 95.3c.53 1.89.72 3.84.98 5.78l.68.91c.05.08.15.22.2.29l-.83.45c-.77.17-2.31.5-3.09.67-1.4-.28-2.79-.59-4.19-.88-.13-1.64-2.02-1.96-3.19-1.15-.58-.04-1.75-.11-2.33-.15 1.71-.41 3.41-.89 5.11-1.35-.15-.42-.46-1.26-.62-1.68l1.89.48c.04.42.13 1.27.17 1.69.09.4.28 1.2.37 1.6l2.9.36c-.05-1.52-.89-2.29-2.51-2.31.79-.34 1.58-.68 2.38-1.02.41.55 1.22 1.64 1.62 2.19.76-1.87.36-3.92.46-5.88zM77.27 96.88c.82-.28 1.65-.49 2.5-.61.65 1.13 1.21 2.31 1.79 3.49-2.47.9-4.91 1.92-7.48 2.53-.67.15-2.03.46-2.71.61.1-.99.28-2.96.38-3.94 1.51-.58 3.02-1.14 4.52-1.72l1-.36z"/>
    </g>
    <path fill="#ca282b" d="M75.76 53.87c1.12 1.39 2.2 2.81 3.26 4.25l-.28 1.32c-.2.93-.39 1.86-.59 2.79-1.49.6-2.99 1.2-4.48 1.79l-.46.19c-.28-.97-.55-1.93-.83-2.9 1.52-.69 3.04-1.38 4.46-2.25.19-1.16-.19-2.22-1.12-3.17l.04-2.02z"/>
    <path fill="#651c1c" opacity=".72" d="M24.68 63.4c-.04-2.63.03-5.33 1.09-7.78l.08 1.4c.1 1.1.31 3.3.41 4.4 1.32-1.23 2.5-2.62 3.28-4.26l.37-.69c.64 2.08-.16 3.87-1.67 5.28 1.23.04 2.46.07 3.68.2l.48.97c-2.3.21-4.59.46-6.89.63-.21-.03-.62-.11-.83-.15z"/>
    <path fill="#0a0202" opacity=".25" d="M73.72 57.3c.5-.35 1.5-1.06 2-1.41.93.95 1.31 2.01 1.12 3.17-1.24.24-3.25-.11-3.12-1.76z"/>
    <path fill="#070303" opacity=".34" d="M91.09 57.32c.59-1.64 3.16-2.05 4.53-1.2-.13 1.49-2.51 1.57-3.69 1.32l-.84-.12z"/>
    <path opacity=".13" d="M25.85 57.02c.92.03 2.77.1 3.69.14-.78 1.64-1.96 3.03-3.28 4.26-.1-1.1-.31-3.3-.41-4.4z"/>
    <path fill="#561819" opacity=".68" d="M35.22 56.84c2.61.2 5.21.58 7.82.83l.12 1.89c-2.73-.62-5.41-1.5-7.94-2.72z"/>
    <g fill="#f43039">
        <path d="M70.33 58.77c1.14-.48 2.28-.93 3.39-1.47-.13 1.65 1.88 2 3.12 1.76-1.42.87-2.94 1.56-4.46 2.25.28.97.55 1.93.83 2.9-.75-.06-2.26-.16-3.01-.22-.43-1.51-.94-2.99-1.57-4.42.43-.2 1.28-.6 1.7-.8zM78.74 59.44c4.35.18 8.63 1 12.92 1.66 2.88.5 5.76.95 8.65 1.39.83-.6 1.66-1.19 2.49-1.79l-.76 2.33c.7-.01 2.08-.04 2.77-.05l2.08-.04c-.53.54-1.61 1.61-2.15 2.15-6.46-1.7-13.08-.01-19.63-.65-3.8-.44-7.63-.32-11.44-.42 1.49-.59 2.99-1.19 4.48-1.79.2-.93.39-1.86.59-2.79z"/>
    </g>
    <path opacity=".08" d="M99.27 57.05c.64.05 1.91.15 2.55.19 0 .61-.01 1.82-.01 2.42-.34.17-1.03.51-1.38.67-.78-.97-1.16-2.07-1.16-3.28z"/>
    <path fill="#1a0607" opacity=".39" d="M102.7 56.71c.73 2.08 1.4 4.18 2.11 6.27-.69.01-2.07.04-2.77.05l.76-2.33c-.83.6-1.66 1.19-2.49 1.79-2.89-.44-5.77-.89-8.65-1.39 2.39-.82 4.74-1.76 7.1-2.67.13.65.4 1.95.53 2.6.29-.17.86-.52 1.14-.7.35-.16 1.04-.5 1.38-.67l.67-.36c.06-.65.17-1.94.22-2.59z"/>
    <path fill="#170606" opacity=".42" d="M31.92 61.95c-1.86-2.95 2.03-1.92 3.37-1.14-.64 0-1.92.01-2.56.02l-.11 1.05c1.19.11 2.38.24 3.58.37 7.15 1.86 14.64.6 21.94 1.13l1.28-1.2c.02 2.01.52 3.99 1.55 5.73-.38.19-1.15.58-1.53.77-.56-1.56-1.13-3.12-1.68-4.68-2.49 0-4.99 0-7.48.01-8.25-.23-16.56.49-24.77-.46 2.3-.17 4.59-.42 6.89-.63l-.48-.97z"/>
    <path fill="#842529" opacity=".78" d="M35.29 60.81c3.53.25 6.85-1.44 10.36-1.25l.32.61-.02.56c-3.25.49-6.51.93-9.75 1.52-1.2-.13-2.39-.26-3.58-.37l.11-1.05c.64-.01 1.92-.02 2.56-.02z"/>
    <path fill="#61181a" opacity=".67" d="M16.66 63.47c1.55-.26 3.1-.48 4.65-.7.4.56 1.21 1.67 1.62 2.23l-1.01-.05c-1.88.07-3.64-.6-5.26-1.48z"/>
    <path fill="#ef2c39" d="M21.31 62.77c.84.16 2.53.47 3.37.63.21.04.62.12.83.15 8.21.95 16.52.23 24.77.46l-3.07 2.35c.18.53.53 1.59.71 2.13-3.61-.51-7.2-1.08-10.8-1.6-4.7-.81-9.41-1.7-14.19-1.89-.41-.56-1.22-1.67-1.62-2.23z"/>
    <path fill="#5a1719" opacity=".66" d="M106.89 62.94c1.46.09 2.92.21 4.37.37-1.9 1.37-4.23 1.76-6.52 1.78.54-.54 1.62-1.61 2.15-2.15z"/>
    <path fill="#de2c31" d="M50.28 64.01c2.49-.01 4.99-.01 7.48-.01.55 1.56 1.12 3.12 1.68 4.68l-1.26.44.89 2.18c-.78-.49-2.32-1.48-3.1-1.98-.94 1.05-1.9 2.1-2.96 3.03.54-1.05 1.1-2.09 1.68-3.11-2.27-.19-4.53-.43-6.77-.75-.18-.54-.53-1.6-.71-2.13l3.07-2.35z"/>
    <path fill="#210708" opacity=".34" d="M21.92 64.95l1.01.05c4.78.19 9.49 1.08 14.19 1.89-.71.02-2.12.08-2.82.11-.29.5-.88 1.5-1.17 2.01-1.16-.44-2.31-.89-3.48-1.29-1.53-.47-3.09-.85-4.62-1.31-1.08-.39-2.09-.95-3.11-1.46z"/>
    <path fill="#782227" opacity=".77" d="M95.8 65.92c-1.73-.89 1.59-1.37 2.15-1.12 1.33-.19 2.34.09 3.03.83-1.61.68-3.49.53-5.18.29z"/>
    <path fill="#6f1e1f" opacity=".73" d="M81.39 67.1c4.51-.36 8.96-1.15 13.45-1.68l-.3 1.64c-4.59-.61-9.08 1.89-13.57.76.11-.18.31-.54.42-.72z"/>
    <path fill="#751d20" opacity=".77" d="M25.03 66.41c1.53.46 3.09.84 4.62 1.31-.92.15-2.75.44-3.66.58.04.7.13 2.11.18 2.81.69 0 2.07.01 2.75.02l-.36-2.83 1.72-.16c-.06.98-.19 2.94-.25 3.92-.7 0-2.1.02-2.8.03-.39.06-1.18.19-1.57.25l-.51.09c-.15-2-.21-4.01-.12-6.02z"/>
    <path fill="#671a1c" opacity=".71" d="M98.97 66.71c1.64.15 3.28.37 4.91.66l-.91.41-2.87.52c-.14.82-.42 2.47-.55 3.29 1.24-.55 2.16-1.55 3.2-2.38.79 1.68-.01 3.48-.7 5.04.07-.67.2-2.02.27-2.7-1.42.36-2.83.72-4.24 1.09.21-1.99.55-3.96.89-5.93z"/>
    <path fill="#e72d31" d="M73.15 69.52c.58-.29 1.75-.88 2.34-1.17l-.74.52-.64.46c-.24 1.09.12 2.01 1.08 2.78-.42.29-1.26.85-1.68 1.13-1.21-1.06-2.26-2.27-3.35-3.45-.11.71-.32 2.11-.43 2.81 2.14 1.59 4.29 3.17 6.58 4.54l-1.2 1.08c-.34-.51-1.01-1.54-1.34-2.06-1.27 1.49-2.85 2.5-4.75 3.02.57-1.79 2.27-2.59 3.62-3.66-.76-.51-2.28-1.53-3.04-2.03-.52 4.12-1.11 8.24-1.82 12.33-.24 1.37-.44 2.75-.6 4.14-.24 1.68-.13 3.55-1.23 4.97l-.47.78.28.37c.91 3.57-.77 7.21-.86 10.83-.52-.55-1.55-1.65-2.06-2.2.13-.49.39-1.48.52-1.98l.83-.45c-.05-.07-.15-.21-.2-.29-.43-10.59.05-21.22-.09-31.82 1.42-.48 2.83-.98 4.25-1.48 1.48 1.04 3.3.75 5 .83z"/>
    <path fill="#0c0404" opacity=".45" d="M94.33 68.08c.84-.73 3.28-.69 3.3.69-.84.71-3.3.72-3.3-.69z"/>
    <path opacity=".22" d="M74.11 69.33l.64-.46c.67.19 2.03.58 2.7.77-.53 1.03-1.28 1.85-2.26 2.47-.96-.77-1.32-1.69-1.08-2.78z"/>
    <path fill="#2a0c0c" opacity=".5" d="M85.48 68.76c3.89 1.31 7.92 2.25 11.67 3.98-3.93-.48-7.92-.96-11.67-2.28l-.28-1.13.28-.57z"/>
    <g fill="#de2c39">
        <path d="M25.66 72.34c.39-.06 1.18-.19 1.57-.25.7-.01 2.1-.03 2.8-.03 0 .93.19 1.84.57 2.71l.55 1.63c.13.34.41 1.02.55 1.36.32.68.96 2.02 1.28 2.7.19.32.58.98.77 1.31.59.7 1.76 2.1 2.35 2.8-1.75-.89-3.03.5-4.37 1.24-.22-.08-.65-.23-.87-.3-2.31-4.13-4.23-8.52-5.2-13.17zM98.08 72.64c1.41-.37 2.82-.73 4.24-1.09-.07.68-.2 2.03-.27 2.7-.27 1.28-.65 2.54-1.01 3.8-1.51-1.01-2.15.97-1.16 1.93.04 1.11-.41 2.01-1.33 2.68-.99.46-1.51 1.23-1.55 2.29-.03 1.38-1.01 2.44-1.77 3.49-3.16 3.9-6.91 7.41-11.33 9.84l-1.65.91c-.52-1.24-.98-2.51-1.48-3.75 2.39-1.75 4.68-3.64 7.19-5.22l.11.62c-1.45 1.1-2.88 2.21-4.31 3.32.72.71 1.45 1.42 2.18 2.14 3.79-2.87 7.57-5.96 9.94-10.17-.41-.62-1.23-1.86-1.64-2.49-1.07 1.43-2.14 2.87-3.16 4.34-.26-.13-.79-.4-1.05-.53 1.62-1.67 3.17-3.43 4.46-5.37 1.57-2.44 2.7-5.16 3.31-8l.28-1.44z"/>
    </g>
    <path fill="#110405" opacity=".36" d="M30.03 72.06c1.35-.25 2.71-.36 4.09-.32l.58.06c-1.07.74-2.13 1.5-3.21 2.24l-.89.73c-.38-.87-.57-1.78-.57-2.71z"/>
    <path fill="#2e0e0e" opacity=".53" d="M81.92 74.84c.58-1.14 1.12-2.29 1.75-3.4 3.71 1.08 7.27 2.65 10.62 4.57-3.68-.23-6.93-2.22-10.48-2.86 1.33 3.11 5.81 3.6 7.92 6.34-3.5-1.02-6.68-2.83-9.81-4.65z"/>
    <path fill="#230808" opacity=".43" d="M95.85 76.61c.65-.85 1.3-1.69 1.95-2.53-.61 2.84-1.74 5.56-3.31 8-.41-.41-1.22-1.23-1.63-1.64 2.51.22 2.71-1.97 2.99-3.83z"/>
    <path fill="#120405" opacity=".39" d="M31.15 76.4c1.48-.61 3.14-1.59 4.78-1.07-.32 1.76-2.8 1.92-4.23 2.43-.14-.34-.42-1.02-.55-1.36z"/>
    <path fill="#2f0d0d" opacity=".51" d="M76.84 76.78c1.52 1.82 2.89 3.76 4.47 5.53.48 2.87 2.68 5.01 3.83 7.61-2.87-2.78-6.07-5.46-7.72-9.2l-.6-1.55c0-.59.01-1.79.02-2.39z"/>
    <path fill="#65151b" opacity=".81" d="M99.88 79.98c-.99-.96-.35-2.94 1.16-1.93l.17.87c-.33.26-1 .79-1.33 1.06z"/>
    <path fill="#140405" opacity=".36" d="M32.98 80.46c1.2-.58 2.45-1.04 3.69-1.52.5 1.46-1.49 3.14-2.92 2.83-.19-.33-.58-.99-.77-1.31z"/>
    <path fill="#6a1b1f" opacity=".75" d="M59.55 80.83c.42.05 1.28.14 1.7.19-.53 4.68 1.03 9.22 1.22 13.87l-1.47-.2v-3.02-4.25c-.61.93-1.21 1.87-1.81 2.82l-.53.87c.94-3.35 1.48-6.81.89-10.28z"/>
    <path fill="#0a0404" opacity=".35" d="M87.82 81.35c1.25-.43 3.28 1.02 2.9 2.37-1.26.49-3.41-.98-2.9-2.37z"/>
    <path fill="#851c1e" opacity=".82" d="M97 84.95c.04-1.06.56-1.83 1.55-2.29.62 1.64.11 2.41-1.55 2.29z"/>
    <path opacity=".05" d="M51.08 92.1c1.97-3.06 2.75-7.4 6.21-9.13-.06.45-.18 1.33-.24 1.77-2 4.07-2.25 8.82-4.75 12.65l-1.71-.57c.14-1.57.28-3.15.49-4.72z"/>
    <path fill="#1e0b0c" opacity=".44" d="M75.4 84.01l2.23-.16c1.55 2.84 3.23 5.63 4.48 8.63-2.62-2.51-4.47-5.65-6.71-8.47z"/>
    <path opacity=".07" d="M32.61 87.17c.24-1.33 1.08-2.05 2.33-2.29 2.62 3.76 6.11 6.77 9.7 9.57-.85.52-1.72 1.02-2.6 1.48-3.67-2.3-6.3-5.84-9.43-8.76z"/>
    <path fill="#3f1012" opacity=".58" d="M70.44 85.34l.77-1.24c1.51 4.23 2.5 8.61 3.86 12.88l1.2.26c-1.5.58-3.01 1.14-4.52 1.72-.1.98-.28 2.95-.38 3.94.68-.15 2.04-.46 2.71-.61-2.42.71-4.88 1.32-7.35 1.87.03-1.8.06-3.6.1-5.4 1.31-.43 2.29-.14 2.93.86-.71.84-1.42 1.69-2.12 2.55.83-.07 2.51-.19 3.34-.26l-.09-4.42c.75-.14 2.26-.44 3.01-.58.21-4.07-3.19-7.61-3.46-11.57z"/>
    <path fill="#4b1112" opacity=".61" d="M73.08 84.31l.69.62c2.89 2.56 3.21 6.81 5.08 10.06.48.11 1.44.33 1.92.45.5 1.24.96 2.51 1.48 3.75l1.65-.91c-.78.5-1.56.99-2.34 1.48-.58-1.18-1.14-2.36-1.79-3.49-.85.12-1.68.33-2.5.61.27-.29.79-.88 1.06-1.17-1.25-4.01-3.79-7.47-5.25-11.4z"/>
    <path fill="#010000" opacity=".08" d="M91.08 87.98c1.02-1.47 2.09-2.91 3.16-4.34.41.63 1.23 1.87 1.64 2.49-2.37 4.21-6.15 7.3-9.94 10.17-.73-.72-1.46-1.43-2.18-2.14 1.43-1.11 2.86-2.22 4.31-3.32 1.25-.66 2.33-1.6 3.01-2.86z"/>
    <path fill="#1f0c0d" opacity=".47" d="M48.09 89.66c-.47-1.57.85-3.44 2.2-4.17 1.27.99-.79 3.99-2.2 4.17z"/>
    <path fill="#1e090a" opacity=".47" d="M52.3 97.39c2.5-3.83 2.75-8.58 4.75-12.65l.21 1.54c-.1 4.04-2.57 7.65-3.67 11.5-.32-.1-.97-.29-1.29-.39z"/>
    <path fill="#380e10" opacity=".56" d="M67.18 89.96c.16-1.39.36-2.77.6-4.14 2.01 2.6 2.63 5.81 2.27 9.04-.83-1.7-1.32-3.68-2.87-4.9z"/>
    <path fill="#2c0b0f" opacity=".53" d="M88.74 87.2c.32.06.97.19 1.29.25.26.13.79.4 1.05.53-.68 1.26-1.76 2.2-3.01 2.86l-.11-.62c-.07-.98-.28-2.49.78-3.02z"/>
    <path fill="#080203" opacity=".3" d="M59.19 90.24c.6-.95 1.2-1.89 1.81-2.82v4.25c-.38.38-1.15 1.14-1.53 1.52-.47 1.76-.94 3.51-1.4 5.27 2.32.31 3.54-1.14 4.26-3.16-.1 1.96.3 4.01-.46 5.88-.4-.55-1.21-1.64-1.62-2.19-.8.34-1.59.68-2.38 1.02l-.76.35c-.04-.42-.13-1.27-.17-1.69.23-2.56.5-5.25 1.72-7.56l.53-.87z"/>
    <path fill="#020101" opacity=".3" d="M46.09 91.31c3.33.14-1.57 2.97 0 0z"/>
    <path fill="#190606" opacity=".36" d="M47.33 95.2c1.69-.41 2.7-1.84 3.75-3.1-.21 1.57-.35 3.15-.49 4.72-1.11-.49-2.2-1.03-3.26-1.62z"/>
    <path fill="#531315" opacity=".66" d="M62.84 104.71c.51.55 1.54 1.65 2.06 2.2l.34.35c-.23 1.62-.47 3.24-.75 4.86-1.14-2.31-1.58-4.85-1.65-7.41z"/>
</svg>
