<svg width="128pt" height="128pt" viewBox="0 0 128 128" xmlns="http://www.w3.org/2000/svg">
    <g fill="#fff">
        <path d="M60.27 27.04c.42-2.87 1.92-5.55 3.77-7.74 2.25 2.83 5.02 6.95 2.79 10.53-1.12 2.34-2.18 4.86-1.74 7.52-.56-.17-1.67-.51-2.23-.69.67-3.51-2.04-6.35-2.59-9.62z"/>
        <path d="M56.18 39.19c-1.11-2.3-2.99-6.75.82-7.43 4.15-.92 5.65 3.73 5.12 6.97l4.59.16c-.81-1.89-1.18-4.16.42-5.76 1.18-1.95 3.72-1.29 5.56-1 2.22 3.21-2 6.21-.21 9.56-.82-.89-1.69-1.75-2.42-2.71-.32-1.7.99-4.02-1.01-4.99-3.02.92-2.52 4.62-.74 6.49-2.16-.23-4.33-.4-6.5-.51 2.35 2.05 6.09 1.57 7.99 4.24 1.65 1.79 1.81 4.38 1.25 6.63l-5.72.24c-.31.65-.93 1.96-1.23 2.61-.62-.9-1.25-1.8-1.88-2.69-1.73-.01-3.46-.03-5.19-.09-.67-3.99 1.54-9.22 6.26-9.04-1.39-.93-4.27-.67-3.48-3.36l1.6 1.18c-.14-2.14.08-4.87-2.43-5.69-2.4 1.1.01 3.94-1.46 5.67-.39.99-1.41 1.46-2.24 2.01.16-.88.46-1.71.9-2.49z"/>
        <path d="M22.93 64.98c.69-6.09 5.65-11.9 11.95-12.53 1.89-.09 3.78.02 5.67.09l.07 1.18c7.47-4.01.77 2.66-1.6.46-3.62 1.25-7.24 3.52-8.83 7.16-1.19 3.33-1.88 7.16-.36 10.5 1.95 4.85 6.55 8.05 8.3 13.01 1.24 3.14 1.32 6.58 1.32 9.91 4.44.34 8.85 1.08 13.3 1.32-.8-6.61-2.11-13.17-4.13-19.53-1.89-5.6-3.28-11.5-2.5-17.44.55-2.76 2.01-5.38 4.39-6.97 3.78-.4 7.61.39 11.42 0-5.71 8.69-5.65 19.88-4.04 29.79.53 4.76 1.08 9.53 1.17 14.33 3.29.05 6.59.06 9.89.01-.11-10.54 3.34-20.95 1.59-31.48-.59-4.46-1.78-8.96-4.47-12.64 3.8.36 7.61-.39 11.39-.03 3.2 2.15 4.81 6.1 4.59 9.88.4 6.96-2.59 13.41-4.22 20.03-1.28 4.6-1.93 9.34-2.59 14.06 4.47-.23 8.89-.96 13.35-1.36-.34-5.5.85-11.32 4.64-15.51 3.57-4.13 7.23-9.41 5.38-15.16-.73-5.16-5.27-8.28-9.74-10.1-1.99 1-5.87 4.36-7.24 1.07 1.75-.12 3.66.18 5.18-.89-2.2.25-4.68.62-6.51-.97 2.4.03 4.8.23 7.19.38l-.16-1c3.95-.17 8.96-.77 11.69 2.74.53-.43 1.04-.86 1.56-1.3 4.53 2.14 9.78 4.8 11.08 10.11 1.58 5.59-2.76 10.48-6.41 14.15-4.19 3.61-7.03 9.05-6.26 14.69.48 2.32-1.19 4.11-1.98 6.11.28 1.37 1.22 2.44 2.07 3.48.27 2.77-3 2.97-4.91 3.63-12.14 2.63-24.66 2.42-37.02 2.35-7.47-.38-15.01-.6-22.35-2.18-2.02-.59-4.29-.92-5.85-2.46-.12-1.59 1.35-2.66 2.03-3.97 16.45 3.88 33.56 3.09 50.27 1.6-11.91-.57-23.92.32-35.8-1.2-4.72-.38-9.43-.9-14.08-1.75-4.18-3.09-1.09-8.74-3.22-12.78-2.21-6.25-8.93-9.32-11.33-15.47-1.82-3.69-.49-8.32 2.36-11.09 1.99-2.19 4.87-3.19 7.13-5.03.34.23.68.47 1.02.72-4.16 2.25-8.53 6.01-8.15 11.22.45 5.58 4.96 9.32 8.1 13.52 3.22 3.76 4.5 8.75 4.76 13.6.97.31 1.95.61 2.94.9-.58-4.72-1.04-9.99-4.61-13.53-3.96-4.25-8.22-9.41-7.44-15.63m78.78-6.52l1.02-.13c1.1 2.44 2.61 4.88 2.38 7.67.35 5.83-3.7 10.53-7.41 14.53-3.62 3.53-4.05 8.82-4.77 13.53 1.03-.25 2.05-.51 3.06-.79.24-3.13.65-6.3 1.97-9.18 2.66-6.27 9.53-10.08 10.73-17.07.94-4.58-2.55-8.47-6.02-10.91-.32.78-.64 1.57-.96 2.35z"/>
        <path d="M42.08 55.06c.74-2.32 3.8-1.75 5.65-2.2-3.27-.21-.71 3.41-2.66 3.93-1-.4-2.71-.5-2.99-1.73zM61.09 55.2c.38-.32 1.14-.94 1.52-1.25.45 1.45.87 2.91 1.47 4.31.45-1.43.87-2.87 1.26-4.32.39.31 1.17.94 1.56 1.25.44 1.45.9 2.9 1.29 4.37-2.79.01-5.57.01-8.36 0 .38-1.47.83-2.91 1.26-4.36z"/>
    </g>
</svg>
