<svg width="128pt" height="128pt" viewBox="0 0 128 128" xmlns="http://www.w3.org/2000/svg">
    <g fill="#b52429">
        <path d="M61.11 29.84c-2.37-3.82.94-7.75 2.89-10.91.86 1 1.49 2.1 1.91 3.3.27.45.82 1.34 1.1 1.79 1.98 2.99-.47 6.02-1.29 8.89l.7 1.24-1.58-.79c-.36 1.43.91 4.36-1.6 4.06-.01-.99-.01-2.96-.02-3.94l-1.8.37c-.03-.02-.07-.07-.1-.1 2.17-.67.05-2.66-.21-3.91zM57.02 48.16c1.35.4 1.44 1.02.27 1.85l-.59-.86.32-.99zM21.82 57.14c1.9-1.43 4.02-2.52 6.19-3.47-.75 1.76-2.83 3.16-4.62 3.66-.39-.05-1.18-.14-1.57-.19z"/>
    </g>
    <path fill="#340a0c" opacity=".64" d="M65.91 22.23l.91.03.57.92-.38.84c-.28-.45-.83-1.34-1.1-1.79z"/>
    <path fill="#090404" opacity=".36" d="M56.2 31.97c-.31-1.86 3.86-1.83 3.49.02-1.17.03-2.33.02-3.49-.02z"/>
    <path fill="#0a0405" opacity=".44" d="M69.19 31.9c-.49-1.77 3.29-1.57 2.53.14-.63-.04-1.9-.11-2.53-.14z"/>
    <g fill="#b52426">
        <path d="M55.57 41.7c1.7-3.32-3.41-7.51.63-9.73 1.16.04 2.32.05 3.49.02.41.44 1.23 1.32 1.63 1.76.03.03.07.08.1.1.3.95.92 2.84 1.23 3.78-1.25-.54-2.09-1.54-2.53-3.01-.35-.38-1.03-1.13-1.37-1.51-1.44 1.75-1.11 3.93-.66 5.97-.84.87-1.68 1.74-2.52 2.62zM66.42 34.15c.55-.82 1.11-1.63 1.7-2.43l1.07.18c.63.03 1.9.1 2.53.14 2.02.38 2.38 3.24 1.19 4.66-1.06 1.54-.77 3.33-.35 5.03-1.91-1.56-3.68-3.55-2.36-6.18 1.15.13 2.67-1.15 1.71-2.29-1.18-.8-2.87.03-3.63 1.04-.6 1.51-1.55 2.63-2.85 3.39.25-.88.74-2.65.99-3.54zM65.9 52.2c3.04.1 6.07-.06 9.11-.25 1.41-.23 3.06.07 3.84 1.41.73.98 1.42 1.98 2.17 2.94-.02.54-.05 1.63-.07 2.17l.6-.5c.72 2.67.8 5.44.51 8.18-1.27-.27-2.54-.54-3.81-.82-1.24.73-2.47 1.45-3.7 2.18.07-1.66-.65-2.95-2.2-3.61.23 2.94-.17 5.86-1.31 8.6-.31-6.98-.76-14.52-5.14-20.3z"/>
    </g>
    <g fill="#651515">
        <path d="M68.28 34.3c.76-1.01 2.45-1.84 3.63-1.04.96 1.14-.56 2.42-1.71 2.29-.48-.31-1.44-.93-1.92-1.25zM81.02 56.3c.52-.38 1.58-1.16 2.1-1.54 1.23.31 2.46.62 3.69.94-1.86.5-3.86.84-5.26 2.27l-.6.5c.02-.54.05-1.63.07-2.17zM70.75 75.33c3.05.24 6.11.18 9.16-.06-1.75 5.55-3.19 11.2-4.03 16.97-1.99-.37-3.99-.7-6.01-.9l-.7-.08c.07-5.35 1.1-10.61 1.58-15.93z"/>
    </g>
    <g fill="#440d0d">
        <path d="M58.09 39.08c-.45-2.04-.78-4.22.66-5.97.34.38 1.02 1.13 1.37 1.51l-1.94-.14c.02 1.78.05 3.55.04 5.33l-.13-.73zM83.37 61.25c4.34.05 8.69.13 13.03-.16 1.98 5.46 1.06 11.66-3.17 15.79-1.4-.4-2.8-.83-4.24-1.06-3.22 1.64-6.09 4.22-9.85 4.52 1.75-6.28 3.98-12.51 4.23-19.09z"/>
    </g>
    <g fill="#ad2326">
        <path d="M60.32 38.89c2.5-.5 5.1-.19 7.65-.26-.02.59-.04 1.76-.05 2.35-2.58-1.09-5.41-.94-7.92.28.08-.59.24-1.77.32-2.37zM31.02 99.95c8.3 1.91 16.81 2.49 25.3 2.74-1.69.72-3.33 1.55-4.97 2.37l.57 3.31c-6.82-.41-13.75-.82-20.32-2.85-1.33-.32-2.35-1.24-3.01-2.4.81-1.06 1.62-2.12 2.43-3.17z"/>
    </g>
    <path fill="#ce2829" d="M57.42 46.62c.51-2.74 2.95-4.78 5.66-5.14 3.16-.69 6.04 1.49 7.83 3.88-4.32 1.1-9.09 2.61-13.49 1.26z"/>
    <g fill="#731821">
        <path d="M70.91 45.36c.3 1.61.6 3.22.87 4.83-2.52 2.1-7.4-.71-7.65 3.95-.66-3.85-4.52-2.87-7.29-3.04l.45-1.09c1.17-.83 1.08-1.45-.27-1.85-.05-.43-.13-1.28-.18-1.71l.58.17c4.4 1.35 9.17-.16 13.49-1.26zM18.84 74.05c.88-.11 2.64-.31 3.51-.41 4.76 5.13 10.05 11.14 9.39 18.66l-2.77-.56c.77-7.66-5.77-12.49-10.13-17.69z"/>
    </g>
    <path fill="#c3272c" d="M48.1 54.25c3.28-4.55 9.41-.99 13.96-2.01-4.74 6.59-5.23 15.15-4.95 22.98-1.21-4.24-6.44-5.99-10.3-4.37-1.08-5.45-2.14-11.76 1.29-16.6z"/>
    <path fill="#531114" opacity=".74" d="M80.19 53.65c4.65-1.55 10.18-2.17 15.03-.94-2.62-.05-5.32-.13-7.76.99-2.33 1.17-4.87.49-7.27-.05z"/>
    <path fill="#b52424" d="M29.5 54.27c5.49-3.56 12.21-1.23 18.26-1.26-.61.24-1.83.71-2.44.95.18.52.54 1.56.71 2.08-1.96 1.35-4.78-.63-6.45-1.97-6.96 1.59-11.8 8.69-10.41 15.76-1.73-.05-3.46-.09-5.19-.05h-1.05c-1.04-5.87 1.49-12.29 6.57-15.51z"/>
    <path fill="#200808" opacity=".53" d="M78.85 53.36c.34.07 1.01.22 1.34.29 2.4.54 4.94 1.22 7.27.05.72.23 2.16.68 2.88.91-1.18.37-2.35.75-3.53 1.09-1.23-.32-2.46-.63-3.69-.94-.52.38-1.58 1.16-2.1 1.54-.75-.96-1.44-1.96-2.17-2.94z"/>
    <path fill="#a52026" d="M87.46 53.7c2.44-1.12 5.14-1.04 7.76-.99 7.47 2.4 12.1 11.29 9.14 18.72-1-2.18-1.96-4.37-2.89-6.57-.4 1.5-.77 3.02-1.29 4.48-.34.24-1.02.71-1.36.94.14-3.01.07-6.12-1.18-8.92-1.28-3.23-4.36-5.2-7.3-6.75-.72-.23-2.16-.68-2.88-.91z"/>
    <path fill="#651419" d="M59.51 59.61c.73-2.11 1.06-4.56 3.02-5.94.5 1.42 1 2.84 1.49 4.26.48-1.45.97-2.91 1.45-4.35 1.91 1.45 2.33 3.88 3.02 6.03-2.99.17-5.99.17-8.98 0z"/>
    <path fill="#9c1c21" d="M99.91 53.69c2.77 1.24 5.63 2.45 7.98 4.42.43.9 1.09 1.58 1.98 2.04 1.89 2.3 2.45 5.38 2.23 8.28-.68-.08-2.03-.26-2.7-.34-.26-2.06-.45-4.16-1.25-6.1-1.78-3.71-6.11-5-8.24-8.3z"/>
    <path fill="#bd2431" d="M19.96 57.96c.46-.21 1.4-.62 1.86-.82.39.05 1.18.14 1.57.19-1.33 1.49-2.63 3.02-3.62 4.77-1.21 1.8-1.17 4.1-.87 6.17-.78-.09-2.35-.26-3.13-.34.15-2.73.57-5.63 2.41-7.79 1.06-.41 1.65-1.14 1.78-2.18z"/>
    <path opacity=".27" d="M18.18 60.14c-.49-1.65.1-2.38 1.78-2.18-.13 1.04-.72 1.77-1.78 2.18z"/>
    <path opacity=".31" d="M107.89 58.11c1.79-.43 2.45.25 1.98 2.04-.89-.46-1.55-1.14-1.98-2.04z"/>
    <path fill="#330d0e" opacity=".61" d="M18.9 68.27c-.3-2.07-.34-4.37.87-6.17.46 2.12.55 4.71-.1 6.79-.19-.15-.58-.47-.77-.62z"/>
    <g fill="#470d0d">
        <path d="M30.69 61.71c4.63.78 9.34.68 13.98.06.18 4.87 1.22 9.67 2.85 14.26-1.06.15-2.11.3-3.16.46-.26-1-.51-2-.77-3-3.97.56-7.61-1.92-11.55-1.14l-1.04.09c-1.34-3.45-1.87-7.26-.31-10.73zM58.62 62.49c3.13 1.12 6.69 1.74 9.75.01-.29 4.43-.12 8.87-.57 13.29-1.26.29-2.51.57-3.76.89-.93 1.02-2 1.97-3.46 1.98-.55-3.51-1.32-6.97-2.28-10.39-.19-1.93.17-3.86.32-5.78z"/>
    </g>
    <path fill="#6e1418" d="M108.15 61.99c.8 1.94.99 4.04 1.25 6.1.67.08 2.02.26 2.7.34-2.06 7.68-10.53 11.1-12.62 18.71-1 3.3.59 7.07-1.43 10.09-1.8 2.03.27 4.13 1.42 5.83-1.25 2.95-5.11 3.21-7.87 3.53 1.27-4.54 6.01-8.27 4.61-13.38-.48-2.82.34-5.68 1.27-8.33 2.08-5.62 7.33-9.19 10.02-14.44 1.38-2.61 1.26-5.65.65-8.45z"/>
    <path fill="#34090d" d="M68.37 62.5c3.04 10.51-.28 21.56-.65 32.27-2.66-.04-5.32-.05-7.98-.05-.35-5.64-.46-11.3-1.39-16.89-.26-3.16-1.35-6.5-.05-9.56.96 3.42 1.73 6.88 2.28 10.39 1.46-.01 2.53-.96 3.46-1.98 1.25-.32 2.5-.6 3.76-.89.45-4.42.28-8.86.57-13.29z"/>
    <path fill="#8f1b1e" d="M72.35 63.9c1.55.66 2.27 1.95 2.2 3.61 1.23-.73 2.46-1.45 3.7-2.18 1.27.28 2.54.55 3.81.82-.46 3.09-1.24 6.13-2.15 9.12-3.05.24-6.11.3-9.16.06.07-.71.22-2.12.29-2.83 1.14-2.74 1.54-5.66 1.31-8.6z"/>
    <path fill="#841c21" d="M100.18 69.34c.52-1.46.89-2.98 1.29-4.48.93 2.2 1.89 4.39 2.89 6.57-.9 1.81-1.92 3.57-3.09 5.22l-5.64-.72c1.29-1.74 2.22-3.71 3.19-5.65.34-.23 1.02-.7 1.36-.94z"/>
    <path fill="#9c2429" d="M15.77 67.93c.78.08 2.35.25 3.13.34.19.15.58.47.77.62.91 1.57 1.74 3.19 2.68 4.75-.87.1-2.63.3-3.51.41-1.26-1.92-2.27-3.98-3.07-6.12z"/>
    <path fill="#7b1821" d="M23.98 69.78c1.73-.04 3.46 0 5.19.05 1.23 3.89 3.9 7.02 6.31 10.22h-5.73c-2.81-2.83-5.08-6.15-6.7-9.8l.93-.47z"/>
    <path fill="#861b1b" d="M46.81 70.85c3.86-1.62 9.09.13 10.3 4.37.23 1.33.4 2.66.53 4-.53-.38-1.59-1.13-2.12-1.5-.73.17-1.47.33-2.2.5-1.5-1.07-3.11-1.98-4.86-2.58l-.29-.11c-.47-1.56-.93-3.12-1.36-4.68z"/>
    <path fill="#370b0b" d="M32.04 72.35c3.94-.78 7.58 1.7 11.55 1.14.26 1 .51 2 .77 3 1.05-.16 2.1-.31 3.16-.46 1.96 6.1 3.49 12.35 4.16 18.73-3.84-.51-7.68-1.01-11.51-1.54.19-4.57-.66-9.37-3.4-13.14-1.87-2.51-3.91-4.89-5.61-7.52l.88-.21z"/>
    <path fill="#6b1415" d="M48.46 75.64c1.75.6 3.36 1.51 4.86 2.58.73-.17 1.47-.33 2.2-.5.53.37 1.59 1.12 2.12 1.5.98 5.57 1.2 11.23 1.52 16.87-.65-.1-1.94-.31-2.59-.42l-.96-3.44c-1.12.23-2.23.45-3.35.68-.83-5.85-2.5-11.52-3.8-17.27z"/>
    <path fill="#31090b" d="M79.14 80.34c3.76-.3 6.63-2.88 9.85-4.52 1.44.23 2.84.66 4.24 1.06-4.03 4.47-6.2 10.38-5.94 16.41-3.69.41-7.37.82-11.06 1.1.66-4.72 1.4-9.44 2.75-14.01l.16-.04z"/>
    <path fill="#5a1318" d="M88.38 94.49c-.68-7.03 2.51-13.58 7.25-18.56l5.64.72c-4.1 4.15-7.75 9.1-7.79 15.21-1.68.92-3.36 1.84-5.1 2.63z"/>
    <path fill="#71151b" d="M29.75 80.05h6.11c2.59 3.86 3.7 8.44 3.95 13.04-1.61.17-3.22.33-4.83.48-.83-4.78-1.55-9.97-5.23-13.52z"/>
    <path fill="#84181b" d="M69.87 91.34c2.02.2 4.02.53 6.01.9-.07.55-.22 1.64-.3 2.19-3.34.29-6.08 2.58-9.44 2.91.67.66 1.34 1.33 2.01 2-6.81 1.3-13.84.96-20.49-.98-1.2-.89-2.16-2.06-3.19-3.13 2.7.18 5.39.44 8.08.68-.08-.75-.22-2.25-.29-3 1.12-.23 2.23-.45 3.35-.68l.96 3.44c.65.11 1.94.32 2.59.42 3.22.36 6.46.09 9.69.13 0-1.67.01-3.33.02-4.99l1 .11z"/>
    <path fill="#891b1f" d="M28.97 91.74l2.77.56c.77 1.08 1.95 1.53 3.24 1.27 1.61-.15 3.22-.31 4.83-.48l-.76 1.88c-3.11.93-6.37 1.08-9.59.93l-.56-.01c.01-1.39.04-2.77.07-4.15z"/>
    <path fill="#841b1b" d="M88.38 94.49c1.74-.79 3.42-1.71 5.1-2.63-.11.5-.32 1.51-.42 2.01.79-.16 2.37-.49 3.15-.66 1.4 5.11-3.34 8.84-4.61 13.38l-.13.33c-3.76.45-7.5 1.16-11.29 1.24-2.88-.95-4.82-3.07-4.34-6.25l3.11-.88c1.55-.42 3.08-.9 4.62-1.38l-1.32-2.49c.92-.7 1.83-1.41 2.78-2.07 1.11-.23 2.26-.3 3.35-.6z"/>
    <path fill="#9f1f21" d="M66.14 97.34c3.36-.33 6.1-2.62 9.44-2.91l-.19 1.55c3.21-.3 6.43-.58 9.64-.89-.95.66-1.86 1.37-2.78 2.07l1.32 2.49c-1.54.48-3.07.96-4.62 1.38-14.27 1.18-28.66.05-42.85-1.62-2.56-.4-6.2-.11-6.64-3.51 3.22.15 6.48 0 9.59-.93 1.79-.5 3.64.03 5.42.26 1.03 1.07 1.99 2.24 3.19 3.13 6.65 1.94 13.68 2.28 20.49.98-.67-.67-1.34-1.34-2.01-2z"/>
    <path fill="#911d1e" d="M56.32 102.69c6.51-.21 13.03-.23 19.52-.78-.48 3.18 1.46 5.3 4.34 6.25-9.4.72-18.86.73-28.26.21l-.57-3.31c1.64-.82 3.28-1.65 4.97-2.37z"/>
</svg>
