<svg width="128pt" height="128pt" viewBox="0 0 128 128" xmlns="http://www.w3.org/2000/svg">
    <path fill="#190405" opacity=".4" d="M62.11 24.14c.01-2.95-.36-6.25 1.62-8.73-.43 2.85-.85 5.71-1.06 8.59 2.73-.77 2.33-3.36 2.1-5.57 1.2 1.72.96 3.82.83 5.79 1.36.23 2.72.46 4.09.69.03-.8.09-2.4.11-3.2l1.2.35c-.3 1.65.18 2.28 1.45 1.9.74-1.04.69-2.06-.13-3.04l-.73-1.02 2.69-.08c-.33 2.4-1 4.75-2.42 6.74-4.97-2.1-10.72-2.21-15.7-.08-1.67-1.96-2.81-4.28-2.61-6.93.61.14 1.83.43 2.45.57l-.58.76c-2.63 2.32 2.5 5.37 1.58 1.06.4.98.79 1.97 1.16 2.96 1.32-.24 2.64-.5 3.95-.76z"/>
    <g fill="#b02321">
        <path d="M63.73 15.41c.37 1 .75 2 1.04 3.02.23 2.21.63 4.8-2.1 5.57.21-2.88.63-5.74 1.06-8.59zM59.27 31.22c6.75-3.24 14.96 1.79 16.71 8.69 2.24 8.05-5.94 16.65-14.06 15.23-4.94-1.19-9.36-5.16-10.39-10.24-1.04-5.65 2.53-11.48 7.74-13.68zM40.78 33.25c1.87.35 4.6-.5 5.44 1.91-.77.4-1.57.75-2.36 1.09-1.03-1-2.06-2-3.08-3zM81.81 33.51c1.75-.04 3.51-.07 5.27-.04l-.83.67c-1.18.61-2.27 2.49-3.67 1.89-.19-.63-.58-1.89-.77-2.52z"/>
        <path d="M91.24 33.52c.48-.18 1.45-.53 1.94-.71.37 4.26.52 8.53 1.15 12.77.94-.09 2.81-.25 3.75-.33v1.09c.02 15.48 2.53 30.81 3.86 46.2-5.07-.71-10.18-1.12-15.29-1.46 2.51-2.3 6.02-2.77 9.05-4.1-8.26 1.98-17.04 2.32-24.76 6.1 4.97-.5 10.05-1.55 15.02-.37 6.5 1.51 13.09 2.94 19.26 5.55l.36 2.28c-10.07-.32-20.1-4.15-30.15-1.73l-1.52.33c-1.65.41-3.28.91-4.92 1.35-1.8-.54-2.42-2.71-3.68-3.93l-.76 1.6c-1.04-7.31-.35-14.75-.52-22.12-.34-5.08 2.99-9.86 1.29-14.9 1.74-.36 3.48-.72 5.21-1.08-.34.7-1.04 2.11-1.39 2.82 1.74 1.38 3.48 2.76 5.23 4.13-.27-1.83-.54-3.65-.82-5.48-.88-.76-1.75-1.52-2.63-2.28 1.14-.37 2.29-.73 3.44-1.1 1.9 1.07 3.83 2.08 5.83 2.95-.75-2.02-1.75-3.93-2.88-5.76 1-1.48 2-2.96 3.05-4.4l.23-.28c1.74 2.42 4.85 2.25 7.5 2.51-1.39-1.54-2.82-3.06-4.24-4.57l-2.29-.04.02-.63c.06-1.49.1-2.97.11-4.45 3.34 2.29 7.2.02 10.69-.6-3.2-2-7.15-.77-10.32-2.66 3.45-1.67 6.24-4.29 9.18-6.7m4.96 41.52c.15 3.94 1.24 8.02-.31 11.84 1.55-.83 2.3-2.23 1.8-3.95-1.04-9.37-1.25-18.81-2.2-28.19-1.44 6.76.56 13.52.71 20.3M68.94 93.6c-1.05.69-2.59 1.45-2.73 2.85 1.65.41 3.19-1.34 4.36-2.35.99-1.2-1.15-1.03-1.63-.5zM36.4 42.36c2.86-.2 5.71-.43 8.57-.59-.32.6-.96 1.79-1.28 2.39-2-.49-4-.97-6-1.47l-1.29-.33zM27.77 46.94c6.04.46 11.94-1.12 17.67-2.84.36 1.71.71 3.43 1.07 5.15-.58-.25-1.73-.76-2.31-1.01-.44.38-1.32 1.15-1.76 1.53.98.02 2.94.04 3.92.06-1.27 1.88-3.36 2.01-5.38 1.6-.48.52-.96 1.04-1.44 1.55 1.9.03 3.8.06 5.69.08.53-.9 1.06-1.81 1.59-2.71 1.26 1.65 2.53 3.3 3.79 4.94-1.72 1.5-2.41 3.6-2.67 5.79 1.82-.99 3.62-2.04 5.4-3.11.91.45 1.82.89 2.73 1.34-1.86 2.17-2.35 4.95-2.38 7.72 2.11-1.49 3.86-3.43 4.8-5.87-1.33 1.25-2.63 2.54-3.92 3.84.17-1.02.5-3.04.67-4.05 1.08-.28 2.16-.56 3.25-.78 1.03.24 2.05.48 3.07.75.12 4.07 1.43 8.01 1.44 12.09.07 8.22-.15 16.44.11 24.66-2.95-3.27-6.86-5.4-11.28-5.77 4.2 1.32 8.84 2.95 10.97 7.16l-.09 1.06c-2.72 1.17-5.64 1.97-8.46.59l4.7-.04c-7.91-2.92-16.44-2.88-24.64-1.38-3.99.37-7.97.87-11.95 1.26.49-1.52.98-3.04 1.48-4.56 9.2-1.21 18.04-4.45 27.41-4.6-9.4-.96-18.19 3.09-27.38 4.15l.36-2.91c.57-2.92.69-5.89.69-8.85.26-1.49.43-2.99.52-4.5 1-10.76 1.28-21.58 2.33-32.34z"/>
        <path d="M99.02 47.7c2.98 5.84 1.27 12.69 2.7 18.89.39-3.03-.14-6.26 1.23-9.09-.04 2.03.04 4.07-.03 6.11-1.46 5.15-.75 10.5-1.32 15.75-1.53-7.06-1.37-14.36-2.33-21.5-.49-3.37-.7-6.78-.25-10.16zM63.9 66.87c-1.31-.78-1.65-3.89-.1-4.65 1.68.7 1.17 3.58.1 4.65z"/>
    </g>
    <path fill="#8d1b1b" opacity=".88" d="M57 21.94c.92 4.31-4.21 1.26-1.58-1.06.4.26 1.18.8 1.58 1.06z"/>
    <path fill="#a62120" d="M72.32 20.92c.82.98.87 2 .13 3.04-1.27.38-1.75-.25-1.45-1.9.33-.29.99-.86 1.32-1.14z"/>
    <path fill="#8e1b18" opacity=".86" d="M56.16 26.48c4.98-2.13 10.73-2.02 15.7.08.8.51 2.4 1.54 3.2 2.05.6-.85 1.18-1.72 1.76-2.59.51-.12 1.53-.35 2.04-.46-.15.95-.3 1.91-.45 2.87-.66.5-1.32 1.02-1.97 1.54.47.4 1.39 1.21 1.85 1.61 3.74 4.67 3.02 10.78 3.29 16.35l-.02.63c-.41.21-1.22.62-1.62.83.16.31.49.95.65 1.27l-.23.28c-2.67 2.85-4.97 6.42-8.79 7.84-4.1 1.82-8.7 1.86-13.08 1.39-6.22-2.66-11.53-8.36-12.35-15.25-.54-3.7.62-7.39 2.1-10.73 1.58-3.39 4.47-6.26 7.92-7.71m-6.84 11.81c-1.85-.38-2.2 2.83-.85 3.64-.52 1.89-.33 4.19.97 5.75-1.19 1.3.16 4.47 1.99 4.02.56 2.11 2.61 3.52 4.61 4.09-.49 1.52 1.94 2.8 3.16 2.06l.53.03c3.29 1.95 7.2.93 10.37-.75 4.19-1.87 7.34-5.58 8.86-9.87 1.19-2.72 1.41-5.79.21-8.55-1.56-4.85-5.2-9.11-10.11-10.74-7.74-3.05-18.51 1.72-19.74 10.32z"/>
    <g fill="#6a1414">
        <path opacity=".84" d="M48.51 25.49c.82.26 2.47.77 3.29 1.02-.1.6-.3 1.8-.39 2.4-2.05.04-2.85-1.54-2.9-3.42zM98.08 46.34c2.21.36 3.19 2.26 3.78 4.19l2.32.44c.39 3.26.89 6.51 1 9.8-.04 2.61-.31 5.22-.84 7.78-1.53 3.4-1.6 7.12-1.18 10.77.24-.54.71-1.61.94-2.14l1-.02c.23.15.7.43.93.58.28 1.16.55 2.32.79 3.49-.01.75-.04 2.26-.06 3.01l-.21-.25-1.51-1.91c-.21-.32-.62-.96-.83-1.29-.12 3.11-.22 6.21-.3 9.32.4-.26 1.19-.77 1.59-1.02l.36-.03c.3.05.91.13 1.21.18 1.32 4.55 1.28 9.34 1.52 14.03-13.34.13-26.66-.32-39.98-.66-.39.25-1.16.74-1.54.99-2.04-.02-4.09-.01-6.13.04-.42-.26-1.28-.76-1.7-1.02-7.71-.18-15.38.79-23.09.53-5.26-.48-10.65.43-15.83-.48-1.59-3.46.1-7.54.13-11.2.55 3.24.75 6.53.57 9.81 6.18-.17 12.35-.61 18.53-.92 4.89.4 9.8.01 14.7.35 2.82 1.38 5.74.58 8.46-.59l-.24 1.89c1.05-.03 2.1-.05 3.14-.08-.38-1.25-.78-2.5-1.06-3.77l.76-1.6c1.26 1.22 1.88 3.39 3.68 3.93 5.94 1.25 12.01.16 18.01.4 6.66.23 13.33-.16 19.97.54 0-2.75-.04-5.5-.12-8.24-.58 1.68-1.16 3.35-1.63 5.07-6.17-2.61-12.76-4.04-19.26-5.55-4.97-1.18-10.05-.13-15.02.37 7.72-3.78 16.5-4.12 24.76-6.1-3.03 1.33-6.54 1.8-9.05 4.1 5.11.34 10.22.75 15.29 1.46-1.33-15.39-3.84-30.72-3.86-46.2m.94 1.36c-.45 3.38-.24 6.79.25 10.16.96 7.14.8 14.44 2.33 21.5.57-5.25-.14-10.6 1.32-15.75 1.77-.56 2.06-7.28.03-6.11-1.37 2.83-.84 6.06-1.23 9.09-1.43-6.2.28-13.05-2.7-18.89m3.23 34.72c-.8 1.39-1.1 4.33.33 5.2.67-1.41 1.09-4.34-.33-5.2m-10.86 9.69c.24 1.35.95 1.56 2.13.63-.24-1.35-.94-1.56-2.13-.63m3.14.99c2.66 1.2 5.5 2.1 8.46 1.89.19-.47.58-1.41.78-1.89-3.08.2-6.16.08-9.24 0m9.47 2.28c-1.42 3.04 3.33.02 0 0z"/>
        <path opacity=".84" d="M96.2 75.04c-.15-6.78-2.15-13.54-.71-20.3.95 9.38 1.16 18.82 2.2 28.19.5 1.72-.25 3.12-1.8 3.95 1.55-3.82.46-7.9.31-11.84z"/>
    </g>
    <path opacity=".05" d="M78.29 31.58c1.19.61 2.36 1.26 3.52 1.93.19.63.58 1.89.77 2.52 1.4.6 2.49-1.28 3.67-1.89 1.65-.28 3.31-.48 4.99-.62-2.94 2.41-5.73 5.03-9.18 6.7 3.17 1.89 7.12.66 10.32 2.66-3.49.62-7.35 2.89-10.69.6-.01 1.48-.05 2.96-.11 4.45-.27-5.57.45-11.68-3.29-16.35m4.63 11.24c.87 1.49 4.65 1.46 4.77-.53-1.39-.83-3.6-.52-4.77.53z"/>
    <g fill="#250606">
        <path opacity=".63" d="M46.22 35.16c.59-.42 1.76-1.28 2.35-1.71l-.33.74c-1.48 3.34-2.64 7.03-2.1 10.73.82 6.89 6.13 12.59 12.35 15.25-1.09.22-2.17.5-3.25.78-.17 1.01-.5 3.03-.67 4.05 1.29-1.3 2.59-2.59 3.92-3.84-.94 2.44-2.69 4.38-4.8 5.87.03-2.77.52-5.55 2.38-7.72-.91-.45-1.82-.89-2.73-1.34-1.78 1.07-3.58 2.12-5.4 3.11.26-2.19.95-4.29 2.67-5.79-1.26-1.64-2.53-3.29-3.79-4.94-.53.9-1.06 1.81-1.59 2.71-1.89-.02-3.79-.05-5.69-.08.48-.51.96-1.03 1.44-1.55 2.02.41 4.11.28 5.38-1.6-.98-.02-2.94-.04-3.92-.06.44-.38 1.32-1.15 1.76-1.53.58.25 1.73.76 2.31 1.01-.36-1.72-.71-3.44-1.07-5.15-5.73 1.72-11.63 3.3-17.67 2.84 4.29-.81 8.62-1.37 12.95-1.91-1.01-.77-2.02-1.56-3.03-2.34 2 .5 4 .98 6 1.47.32-.6.96-1.79 1.28-2.39-2.86.16-5.71.39-8.57.59 3.02-.83 6.19-2.01 9.26-.69.08-1.84.17-3.68.26-5.51-.75.12-2.25.37-3 .49l.94-.4c.79-.34 1.59-.69 2.36-1.09m4.1 21.8c-1.3.76-1.31 1.44-.01 2.05 1.31-.76 1.31-1.44.01-2.05zM81.56 48.56l2.29.04c1.42 1.51 2.85 3.03 4.24 4.57-2.65-.26-5.76-.09-7.5-2.51-.16-.32-.49-.96-.65-1.27.4-.21 1.21-.62 1.62-.83m1.19 1.58c.05 3.35 3.06-1.43 0 0z"/>
        <path opacity=".63" d="M71.57 58.78c3.82-1.42 6.12-4.99 8.79-7.84-1.05 1.44-2.05 2.92-3.05 4.4 1.13 1.83 2.13 3.74 2.88 5.76-2-.87-3.93-1.88-5.83-2.95-1.15.37-2.3.73-3.44 1.1.88.76 1.75 1.52 2.63 2.28.28 1.83.55 3.65.82 5.48-1.75-1.37-3.49-2.75-5.23-4.13.35-.71 1.05-2.12 1.39-2.82-1.73.36-3.47.72-5.21 1.08 1.7 5.04-1.63 9.82-1.29 14.9.17 7.37-.52 14.81.52 22.12.28 1.27.68 2.52 1.06 3.77-1.04.03-2.09.05-3.14.08l.24-1.89.09-1.06c-2.13-4.21-6.77-5.84-10.97-7.16 4.42.37 8.33 2.5 11.28 5.77-.26-8.22-.04-16.44-.11-24.66-.01-4.08-1.32-8.02-1.44-12.09-1.02-.27-2.04-.51-3.07-.75 4.38.47 8.98.43 13.08-1.39m5.37-1.44c-1.64 2.94 3.35.24 0 0m-4.77 6.64c1.42-.25.77-2.61-.41-2.79-1.43.25-.76 2.6.41 2.79m-8.27 2.89c1.07-1.07 1.58-3.95-.1-4.65-1.55.76-1.21 3.87.1 4.65zM20.79 84.5l.09.91c.4 3.9 1.03 7.77 1.55 11.65.61-1.47 1.21-2.95 1.8-4.43l-.36 2.91c9.19-1.06 17.98-5.11 27.38-4.15-9.37.15-18.21 3.39-27.41 4.6-.5 1.52-.99 3.04-1.48 4.56 3.98-.39 7.96-.89 11.95-1.26.11.16.34.46.45.62 1.58.32 3.17.47 4.79.45-6.18.31-12.35.75-18.53.92.18-3.28-.02-6.57-.57-9.81-.03 3.66-1.72 7.74-.13 11.2 5.18.91 10.57 0 15.83.48-5.06.27-10.12.23-15.19.34-.91.12-1.72-.11-2.43-.69 1.58-6 .71-12.3 2.26-18.3z"/>
        <path opacity=".63" d="M68.94 93.6c.48-.53 2.62-.7 1.63.5-1.17 1.01-2.71 2.76-4.36 2.35.14-1.4 1.68-2.16 2.73-2.85zM105.22 98.26c.47-1.72 1.05-3.39 1.63-5.07.08 2.74.12 5.49.12 8.24-6.64-.7-13.31-.31-19.97-.54-6-.24-12.07.85-18.01-.4 1.64-.44 3.27-.94 4.92-1.35 4.68 1.7 9.69 1.45 14.56 1-3.72-2.46-8.73-1.59-13.04-1.33 10.05-2.42 20.08 1.41 30.15 1.73l-.36-2.28z"/>
    </g>
    <path fill="#220606" opacity=".51" d="M48.47 41.93c-1.35-.81-1-4.02.85-3.64.04 1.27-.35 2.48-.85 3.64z"/>
    <path fill="#310809" opacity=".59" d="M79.17 38.71c1.2 2.76.98 5.83-.21 8.55.26-2.84.33-5.7.21-8.55z"/>
    <g fill="#aa1f20">
        <path d="M82.92 42.82c1.17-1.05 3.38-1.36 4.77-.53-.12 1.99-3.9 2.02-4.77.53zM102.25 82.42c1.42.86 1 3.79.33 5.2-1.43-.87-1.13-3.81-.33-5.2z"/>
    </g>
    <path fill="#711515" opacity=".85" d="M27.39 48c.1-.26.28-.79.38-1.06-1.05 10.76-1.33 21.58-2.33 32.34-.33.13-.98.38-1.3.51l-.95.49.22-2.03c-.48-.11-1.42-.34-1.89-.45.34-4.08.55-8.16 1.12-12.21.51 3.24 1.02 6.48 1.44 9.73.06.51.2 1.53.27 2.04.62-3.5 1.31-7.3-.52-10.57-.19-.46-.58-1.38-.78-1.84-.14-3.26-.07-6.53.13-9.78.51 2.95 1.03 5.9 1.45 8.86.11-.28.34-.83.45-1.11 1.27-1.78 1.97-4.45-.1-5.97.45-3.07 1.33-6.05 2.41-8.95z"/>
    <path fill="#3c0b0b" opacity=".64" d="M23.31 50.93c1.94-.05 2.98-1.64 4.08-2.93-1.08 2.9-1.96 5.88-2.41 8.95-.43 1.97-.15 3.99.1 5.97-.11.28-.34.83-.45 1.11-.42-2.96-.94-5.91-1.45-8.86.03-1.42.09-2.83.13-4.24z"/>
    <path fill="#2b0808" opacity=".5" d="M49.44 47.68c.95 1.18 1.63 2.55 1.99 4.02-1.83.45-3.18-2.72-1.99-4.02z"/>
    <g fill="#ad2021">
        <path d="M82.75 50.14c3.06-1.43.05 3.35 0 0zM76.94 57.34c3.35.24-1.64 2.94 0 0z"/>
    </g>
    <path fill="#160404" opacity=".37" d="M21.81 64.97c.69-4.66.5-9.44 1.5-14.04-.04 1.41-.1 2.82-.13 4.24-.2 3.25-.27 6.52-.13 9.78.2.46.59 1.38.78 1.84.15 2.84.11 5.69.25 8.53-.42-3.25-.93-6.49-1.44-9.73-.57 4.05-.78 8.13-1.12 12.21.47.11 1.41.34 1.89.45l-.22 2.03c-.24 2.16-.27 4.33-.29 6.51-.31-2.14-.44-4.3-.53-6.45-.48-.69-.96-1.38-1.45-2.06-.03 2.38-.08 4.75-.04 7.13l-.09-.91c-.71-6.54.96-13 1.02-19.53z"/>
    <path fill="#2a0707" opacity=".53" d="M56.04 55.79c1.22.32 2.67.74 3.16 2.06-1.22.74-3.65-.54-3.16-2.06z"/>
    <path fill="#a11d1f" opacity=".97" d="M24.98 56.95c2.07 1.52 1.37 4.19.1 5.97-.25-1.98-.53-4-.1-5.97z"/>
    <path fill="#9d1d1d" opacity=".96" d="M50.32 56.96c1.3.61 1.3 1.29-.01 2.05-1.3-.61-1.29-1.29.01-2.05z"/>
    <path fill="#460c0d" opacity=".64" d="M59.73 57.88c3.47.21 6.99.16 10.37-.75-3.17 1.68-7.08 2.7-10.37.75z"/>
    <path fill="#290809" opacity=".66" d="M102.95 57.5c2.03-1.17 1.74 5.55-.03 6.11.07-2.04-.01-4.08.03-6.11z"/>
    <path fill="#ab2021" d="M72.17 63.98c-1.17-.19-1.84-2.54-.41-2.79 1.18.18 1.83 2.54.41 2.79z"/>
    <path fill="#1b0505" opacity=".42" d="M105.18 60.77c1.29 6.73 1.43 13.62 1.64 20.46-.24-1.17-.51-2.33-.79-3.49.07-2.24.18-4.51-.47-6.68-1.02 1.85-1.33 4.12-.46 6.1l-1 .02c.09-2.88.04-5.76.24-8.63.53-2.56.8-5.17.84-7.78z"/>
    <path fill="#a41e1f" opacity=".98" d="M23.83 66.79c1.83 3.27 1.14 7.07.52 10.57-.07-.51-.21-1.53-.27-2.04-.14-2.84-.1-5.69-.25-8.53z"/>
    <path fill="#a41f20" opacity=".98" d="M103.16 79.32c-.42-3.65-.35-7.37 1.18-10.77-.2 2.87-.15 5.75-.24 8.63-.23.53-.7 1.6-.94 2.14z"/>
    <path fill="#84171a" opacity=".91" d="M105.1 77.16c-.87-1.98-.56-4.25.46-6.1.65 2.17.54 4.44.47 6.68-.23-.15-.7-.43-.93-.58z"/>
    <path fill="#781618" opacity=".87" d="M20.92 78.28c.49.68.97 1.37 1.45 2.06.09 2.15.22 4.31.53 6.45.16 1.14.36 2.29.58 3.42.34-2.15.64-4.3.86-6.47l.58.04c0 2.96-.12 5.93-.69 8.85-.59 1.48-1.19 2.96-1.8 4.43-.52-3.88-1.15-7.75-1.55-11.65-.04-2.38.01-4.75.04-7.13z"/>
    <path fill="#480d0e" opacity=".76" d="M24.14 79.79c.32-.13.97-.38 1.3-.51-.09 1.51-.26 3.01-.52 4.5l-.58-.04c-.49-1.31-.56-2.63-.2-3.95z"/>
    <path fill="#991e20" opacity=".97" d="M23.19 80.28l.95-.49c-.36 1.32-.29 2.64.2 3.95-.22 2.17-.52 4.32-.86 6.47-.22-1.13-.42-2.28-.58-3.42.02-2.18.05-4.35.29-6.51z"/>
    <path fill="#9a1d20" opacity=".98" d="M104.21 80.79c.21.33.62.97.83 1.29-.23 2.35-.16 4.72.46 7.01-.4.25-1.19.76-1.59 1.02.08-3.11.18-6.21.3-9.32z"/>
    <path fill="#270707" opacity=".65" d="M105.04 82.08l1.51 1.91c-.18 1.7-.68 3.36-.69 5.07l-.36.03c-.62-2.29-.69-4.66-.46-7.01z"/>
    <path fill="#9a1d1f" opacity=".95" d="M106.55 83.99l.21.25c.61 1.44 1.37 3.68.31 5-.3-.05-.91-.13-1.21-.18.01-1.71.51-3.37.69-5.07z"/>
    <path fill="#ab1f20" d="M91.39 92.11c1.19-.93 1.89-.72 2.13.63-1.18.93-1.89.72-2.13-.63z"/>
    <path fill="#a91f20" d="M94.53 93.1c3.08.08 6.16.2 9.24 0-.2.48-.59 1.42-.78 1.89-2.96.21-5.8-.69-8.46-1.89z"/>
    <path fill="#270808" opacity=".67" d="M104 95.38c3.33.02-1.42 3.04 0 0z"/>
    <path opacity=".14" d="M34.31 99.29c8.2-1.5 16.73-1.54 24.64 1.38l-4.7.04c-4.9-.34-9.81.05-14.7-.35-1.62.02-3.21-.13-4.79-.45-.11-.16-.34-.46-.45-.62z"/>
    <path fill="#010000" opacity=".16" d="M73.91 99.14l1.52-.33c4.31-.26 9.32-1.13 13.04 1.33-4.87.45-9.88.7-14.56-1z"/>
</svg>
