<svg width="128pt" height="128pt" viewBox="0 0 128 128" xmlns="http://www.w3.org/2000/svg">
    <path fill="#c1c1c1" opacity=".76" d="M90.2 34.13c.85-.53 1.75-1.04 2.78-1.1 1.07 4.02.63 8.3 1.27 12.4 1.02-.03 3.05-.11 4.07-.15l-.56.13c-.7.14-2.1.44-2.79.59.95 13.01 1.82 26.04 2.99 39.03-2.29 2.88-6.1 4.05-9.67 4.04 2.78-1.42 6.37-1.83 8.37-4.44.02-7.56-1.23-15.08-1.67-22.62-.14-8.06-1.51-16.02-1.99-24.05.17-1.94-1.26-3.05-2.8-3.83z"/>
    <g fill="#fff">
        <path d="M82.36 40.09c2.92-1.55 5.93-3.15 7.84-5.96 1.54.78 2.97 1.89 2.8 3.83.48 8.03 1.85 15.99 1.99 24.05.44 7.54 1.69 15.06 1.67 22.62-2 2.61-5.59 3.02-8.37 4.44 3.57.01 7.38-1.16 9.67-4.04-1.17-12.99-2.04-26.02-2.99-39.03.69-.15 2.09-.45 2.79-.59l.05 1.35c0 10.96 1.77 21.8 2.35 32.72l.88-.11c-.07-3.1-.04-6.19.27-9.27 1.13 3.56.5 7.25-.1 10.84-.68 3.73-.06 7.5.67 11.17-5.95-.39-11.88-1.06-17.85-1.02-7.57-1.32-15.55 2.03-20.4 7.89.8-7.95-.08-15.96.36-23.94-.12-4.16 1.75-8 2.15-12.11-.52-.39-1.56-1.18-2.08-1.58 2.61-.59 5.68-.59 7.62-2.76-.63 1.39-1.39 2.73-2.46 3.84 1.52 1.58 3.13 3.08 4.94 4.34-.18-2.33.25-6.04-2.86-6.64.9-1.66 2.82-2.27 4.24-3.36l-.32 2.6c1.54.32 3.03.84 4.52 1.34-.3-1.28-.64-2.56-.95-3.84-.79-.57-1.58-1.13-2.38-1.69 2.35-.86 3.2-3.41 4.35-5.37.5 3.44 4.59 2.95 7.13 3.09-1.24-1.44-2.55-2.82-3.89-4.16l-3.17.76c.61-1.88 1.14-3.8 1.29-5.78 2.79 2.83 6.89-.24 10.16-.6-2.49-1.58-5.46-1.83-8.28-2.33-.53.43-1.6 1.28-2.13 1.71.12-.61.37-1.81.49-2.41m1 49.39c-.17 1.49 3.4 1.41 3.27-.04-1.1-.73-2.19-.71-3.27.04z"/>
        <path d="M36.48 46.46c3.04-.83 6.08-1.69 9.09-2.64.68 4.13 1.84 9.41 5.94 11.24-.81.63-1.43 1.74-2.65 1.54-.26 1.38-.47 2.77-.63 4.16 1.14-.51 2.28-1.03 3.42-1.55.31-.92.63-1.84 1.01-2.73 2.45 3.28 6.82 3.94 10.62 4.4-.47.49-1.41 1.48-1.88 1.97 2.71 7.43 1.53 15.4 1.72 23.12.09 3.93-.09 7.86.16 11.79-2.02-1.96-4.24-3.7-6.68-5.1-3.17-.51-6.32-1.47-9.56-1.3-7.81.09-15.08 3.58-22.82 4.25-.58-1.23-1.73-3.69-2.31-4.92l2.32.94c-2.62-1.69-1.61-5-1.56-7.57-.21-6.08 1.69-12.03.94-18.14-1.4 2.38-.18 5.43-.79 8.05-1.27 4.85-.47 9.9-1.21 14.81-.79 4.22.15 8.55-1.11 12.71l.83.02c5.85-.2 11.8.61 17.56-.73 1.68-.01 3.35.02 5.03.07 4.79 1.14 9.63-.8 14.47.2-7.11-4.02-15.53-2.93-23.27-2.03-3.87.46-7.74 1.02-11.65.83l-.8-2.8c-.37-1.48-.72-2.97-1.04-4.46 2.14-1.12 1.59 2.18 1.66 3.41 9.02-.9 17.62-4.48 26.77-4.37 3.67.39 7.03 2.04 10.26 3.72.05.55.13 1.64.17 2.19.57.01 1.72.02 2.3.03.14 1.68.18 3.53-1.69 4.25 1.54-.07 3.08-.08 4.62-.02-2.01-4.15 2.47-6.93 5.62-8.51 3.71-1.23 7.72-2.39 11.63-1.55 3.63 1.29 7.36 2.45 11.23 2.64 3.44.5 6.65 2.22 10.21 1.97l-.05 1.3 1.81-.34-1.29 1.88c-.77.32-1.56.59-2.35.82-6.22.17-12.27-1.55-18.46-1.79-5.25-.49-10.49.76-15.37 2.64 2.77.02 5.56-.43 8.31.12 4.02.84 8.08-.3 12.13-.4.53.36 1.58 1.08 2.1 1.44l1.17.78c-7.96-.13-15.91-.35-23.87-.51-1.2 1.14-3.26 1.72-4.5.25-1.63 1.6-3.39.42-5.13-.21-13.21.11-26.42.84-39.63.49 1.51-14.09 2.47-28.23 3.75-42.34l.4 2.52.68-.52.56-.52c.91-2.78.22-5.78.87-8.6l.44-.44c1.34-1.82.44-4.76 2.44-6.36 2.56-.24 5.76 1.1 7.82-1.08.06.25.18.74.24.98m7.78 1.69c-1.5 1.57-3.02 3.12-4.44 4.77 2.73-.16 6.68.87 6.88-3.05-.82-.57-1.63-1.14-2.44-1.72m10.21 18.44c1.5-1.79 4.5-3.39 2.74-6.07-3.35-.96-4.11 3.9-2.74 6.07M24.52 90.27c.22-4.14.51-8.29.23-12.43-1.37 3.98-.41 8.32-.23 12.43zM104.16 65.4c-.04-3.31.24-6.61.6-9.9.19 2.96.35 5.93.15 8.89-.19.25-.57.76-.75 1.01z"/>
    </g>
    <path fill="#cbcbcb" opacity=".8" d="M97.81 46.76l2.3.12c-2.17 3.51-1.16 7.72-.63 11.53.63 3.65.6 7.37.54 11.06l1.5.1c-.44-3.54-.6-7.1-.44-10.66.71 2.23 1.42 4.46 2.15 6.69 1.19 4.06.46 8.35 1.27 12.47.29-1.75.59-3.51.92-5.26l.45-1.31c.19 3.16.28 6.34.79 9.48.27 2.86 1.12 6.05-.63 8.62-.32-2.96.14-6.02-.62-8.93-.51 3.14 0 6.3.07 9.45.65 1.57.91 3.29.52 4.98-.63 1.88-1.4-.95-1.47-1.65-.32.4-.64.8-.96 1.19-1.96-2.67-6.25-2.03-8.8-.59l-.57.33c-3.87-.19-7.6-1.35-11.23-2.64l1.06-.65c5.97-.04 11.9.63 17.85 1.02-.73-3.67-1.35-7.44-.67-11.17.6-3.59 1.23-7.28.1-10.84-.31 3.08-.34 6.17-.27 9.27l-.88.11c-.58-10.92-2.35-21.76-2.35-32.72m5.07 33.03c.02.87.07 2.62.1 3.49-1.87.06-1.9 4.48.08 4.42l.4 1.71c.61-3.21.59-6.48.49-9.73l-1.07.11M91.37 92.03c.08 3.29 3.05-1.47 0 0z"/>
    <path fill="#f8f8f8" opacity=".97" d="M99.48 58.41c-.53-3.81-1.54-8.02.63-11.53l.52 3.54c-.12 2.84.19 5.68.61 8.49.39-.52 1.18-1.55 1.57-2.07.16 2.92.14 5.85.42 8.76-.73-2.23-1.44-4.46-2.15-6.69-.16 3.56 0 7.12.44 10.66l-1.5-.1c.06-3.69.09-7.41-.54-11.06z"/>
    <path fill="#686868" opacity=".41" d="M100.68 49.47c.17-.34.53-1.01.7-1.35.21 1.66.9 2.97 2.76 3.05.27 1.43.72 2.86.62 4.33-.36 3.29-.64 6.59-.6 9.9.18-.25.56-.76.75-1.01l.24-.34c.38 2.45 1.23 4.97.72 7.45l-.45 1.31c-.33 1.75-.63 3.51-.92 5.26-.81-4.12-.08-8.41-1.27-12.47-.28-2.91-.26-5.84-.42-8.76-.06-2.6-1.13-5.02-2.13-7.37z"/>
    <path fill="#b9b9b9" opacity=".73" d="M100.63 50.42l.05-.95c1 2.35 2.07 4.77 2.13 7.37-.39.52-1.18 1.55-1.57 2.07-.42-2.81-.73-5.65-.61-8.49z"/>
    <path fill="#919191" opacity=".57" d="M23.96 50.96l1.07-.07c.12.62.38 1.85.51 2.47-.65 2.82.04 5.82-.87 8.6l-.56.52-.68.52-.4-2.52c.14-3.12-.79-6.73.93-9.52z"/>
    <g fill="#636363">
        <path opacity=".39" d="M24.52 90.27c-.18-4.11-1.14-8.45.23-12.43.28 4.14-.01 8.29-.23 12.43zM22.67 97.05l.8 2.8c3.91.19 7.78-.37 11.65-.83 1.26.59 2.51 1.17 3.77 1.76-5.76 1.34-11.71.53-17.56.73.2-1.55-.21-3.49 1.34-4.46z"/>
    </g>
    <path fill="#989898" opacity=".6" d="M102.88 79.79l1.07-.11c.1 3.25.12 6.52-.49 9.73l-.4-1.71c-.03-1.47-.02-2.94-.08-4.42-.03-.87-.08-2.62-.1-3.49z"/>
    <g fill="#f9f9f9">
        <path opacity=".98" d="M103.06 87.7c-1.98.06-1.95-4.36-.08-4.42.06 1.48.05 2.95.08 4.42zM91.37 92.03c3.05-1.47.08 3.29 0 0z"/>
    </g>
    <path fill="#bcbcbc" opacity=".74" d="M83.36 89.48c1.08-.75 2.17-.77 3.27-.04.13 1.45-3.44 1.53-3.27.04z"/>
    <path fill="#f3f3f3" opacity=".95" d="M94.77 94.05c2.55-1.44 6.84-2.08 8.8.59l.63.74c-3.25 1.13-6.29-.81-9.43-1.33z"/>
    <path fill="#e0e0e0" opacity=".88" d="M106.59 93.15l1.17.03c.18 3.3.48 6.59.62 9.9-5.32-.17-10.68.19-15.97-.28l-1.17-.78c5.21-.59 10.42-.03 15.63.01.01-2.96-.15-5.92-.28-8.88z"/>
    <path fill="#a5a5a5" opacity=".65" d="M104.88 99.19l.78-.3c.3.78.91 2.35 1.21 3.14-5.21-.04-10.42-.6-15.63-.01-.52-.36-1.57-1.08-2.1-1.44 4.45-.54 8.97.25 13.39-.57.79-.23 1.58-.5 2.35-.82z"/>
</svg>
