<svg width="128pt" height="128pt" viewBox="0 0 128 128" xmlns="http://www.w3.org/2000/svg">
    <g fill="#fff">
        <path d="M45.04 22.96c-.39-3.88 3.58-6.46 7.01-6.91 4.35-.39 8.54 1.11 12.73 2 6.07-1.25 13.3-4.11 18.66.55 1.68 2.45 1.28 5.53 1.52 8.34.02 5.31.55 10.59.94 15.88-2.49-.11-5.15 1.48-5.28 4.16-.11 2.83.46 5.63.47 8.46-1.89 0-3.32-1.47-2.73-3.38.23-3.15 1.73-6.38.46-9.48-1.99-1.69-4.55-1.78-7.02-1.65-.39 2.67-.15 5.38-.14 8.07l-1.5.02c-.41-1.62-.86-3.22-1.26-4.84-.69-.74-1.38-1.49-2.06-2.23-2.18-.38-4.38-.26-6.56.05-2.64 1.51-4.9 4.44-3.9 7.62.19 2.61 2.48 5.82-.36 7.75-1.97-3.47 1.1-8.31-2.25-11.18-1.53-1.72-4.11-1.43-5.83-.16-.16 3.54.46 7.07.12 10.6l-2.07-.6c-.31-2.83.9-5.47 1.41-8.19-.02-2.06-1.79-2.96-3.44-3.59.09-7.12 1.11-14.18 1.08-21.29z"/>
        <path d="M72.58 43.18c1.41-2.45 3.96-.23 5.49.86.83 4.41-2.86 9.3.31 13.15 1.15-.12 2.29-.29 3.43-.51 2.12-3.53-1.76-8.45 1.39-11.52.69-.17 2.07-.52 2.76-.69-.03 12.4.74 24.78.83 37.19-5.51 1.19-11.18 1.05-16.67-.2-5.02-1.25-10.09.17-15.07.84-3.99.6-8.02.06-11.97-.55-.27-11.86.34-23.72 1.07-35.55 2.94 1.1.97 3.99.77 6.16-.56 1.9-.25 3.86.21 5.74 1.28.16 2.53.11 3.77-.17 2.1-2.96-.02-6.6-.06-9.85 1.26-.62 3.24-2.01 4.37-.34 2.65 2.87-.41 6.97.9 10.19 1.78 1.02 3.5-.04 5.06-.9.04-3.66-2-7.06-1.26-10.74 2.04-2.33 4.89-3.66 8.01-3.45 2.27 2.32.99 7.48 4.94 7.97.56-.27 1.69-.83 2.26-1.1-.11-2.19-.4-4.35-.54-6.53z"/>
    </g>
</svg>
