<svg width="128pt" height="128pt" viewBox="0 0 128 128" xmlns="http://www.w3.org/2000/svg">
    <g fill="#fff">
        <path d="M73.26 27.2c.65-.07 1.94-.21 2.59-.27 1.29 3.1 2.77 6.13 4.83 8.81-.37 1.03-.73 2.07-1.08 3.11.56-.05 1.68-.15 2.24-.19 1.85 2.68 2.05 6.1 3.85 8.81 1.33 2.29 3.24 4.16 5.04 6.07-1.81 4.19-3.71 8.61-3.42 13.27 1.19 3.12 4.37 4.93 5.96 7.85 2.37 3.17 4.17 6.7 5.53 10.41.25-3.52.78-7.57 3.69-9.96 2.21-1.44 4.85-.41 6.75 1.04-2.91.33-5.44 1.8-7.26 4.07-.19 6.39-2.55 13.2-8.4 16.51-10.24 4.85-22.54 4.9-33.02.76-6.69-2.54-11.49-8.56-13.66-15.24-.63-2.69-3.06-4.55-3.34-7.35-.74-3.39 2.5-6.3 5.57-6.83 2.31.03 4.51.91 6.81 1.08 1.72-2.12 2.73-5.52 6-5.46.69-7.38-.78-14.99 1.18-22.29 3-1.69 5.02-4.62 7.96-6.35.23.26.71.78.94 1.04-1.71 3.39-2.88 7.48-6.1 9.83 1.4 6.3 2.23 12.74 4.21 18.9.74 2.32 2.32 4.51 2.09 7.04-.56 2.06-2.8.39-4.07.15-2.15 1.04-4.66 3.17-3.29 5.82 1.79 4.5 5.92 7.85 10.13 10.03 1.94.94 2.89-1.26 3.96-2.42-2.98-1.85-5.43-4.94-5.55-8.56.04-2.54 2.52-3.96 3.39-6.17 1.47-3.33 2.49-6.83 3.69-10.26 3.71-8.63-1.67-17.7-6.37-24.79-.94-2.72-1.07-5.61-.85-8.46z"/>
        <path d="M44.8 54.1c2.39-4.88 8.78-4.77 13.23-3.16-.42 1.03-.81 2.06-1.19 3.11.96-.85 1.9-1.76 3.03-2.39l.39 2.76c-2.1 2.57-4.11 5.24-6.45 7.59-1.57.39-3.2.41-4.8.56 2.39.54 5.26 2.36 6.56-.82.77 1.24 1.36 2.58 1.68 4.01-3.24 2.79-7.09-.5-10.68.36-1.47.95-2.64 2.26-3.81 3.54-1.17-3.4-.86-7.03-.06-10.47-1.19-.65-2.39-1.29-3.59-1.91-2.33 1.18-3.85 3.59-6.43 4.31-4.17 1.06-8.51 1.6-12.83 1.41-1.62.02-2.78-1.33-3.91-2.3 2.8-4.96 8.57-7.59 14.1-7.84 4.96-.45 9.92.19 14.76 1.24m6.1-2.16c-.92 2.45 1.58 4.99 3.72 2.91.09-.8.26-2.38.35-3.18-1.36.02-2.72.12-4.07.27m-34.23 8.75c4.46 2.36 9.43.22 14.14.26-.18-3.04 3.33-3.01 5.4-3.7-6.62-.77-13.81-.28-19.54 3.44z"/>
    </g>
</svg>
