<svg width="128pt" height="128pt" viewBox="0 0 128 128" xmlns="http://www.w3.org/2000/svg">
    <g fill="#fff">
        <path d="M101.24 35.5c1.88-.1 4.45-.21 5.31 1.9 1.21 1.64.21 3.42-.69 4.9.2 2.18.06 4.31-1.26 6.15 2.67 6.18 4.83 12.57 7.56 18.71-1.26 1.35-2.9 2.19-4.73 2.44-4.76.91-8.48 4.89-9.59 9.53-1.43-3.52-3.16-7.16-6.13-9.66 3.8-3.86 11.49-1.46 13.24-7.37-1.58-4.12-3.15-8.25-4.74-12.37-1.72-4.68-.16-9.62 1.03-14.23zM71.26 41.34c1.01-1.48 2.93-1.31 4.05-.09-3.5 1.05-3 4.97-5.2 7.19-.5 1.69-.5 3.32.02 4.88-.21.08-.64.23-.85.31-.75-2.32-1.24-4.7-1.53-7.11 1.85-1.24 2.65-3.23 3.51-5.18zM31.46 63.73c3.09-.65 5.16-2.95 7.62-4.68.76.51 1.51 1.02 2.27 1.54-2.39.6-2.15 3.1-2.5 4.99-1.82 2.41-4.37 4.09-6.88 5.69-1.36 1.33-3.38 2.56-5.28 1.11l1.26 1.96c-1.35-.5-2.31-1.72-1.66-3.17.99-2.86 2.99-5.39 5.17-7.44m-3.8 8.13c3.48.21 6.07-3.24 8.74-5.1-.68-1.61.98-2.7 1.62-3.96-4.1 2.18-7.48 5.45-10.36 9.06zM66.18 76.84c.44-.64.87-1.28 1.3-1.92.6 1.97 2.41 2.76 4.34 2.55.27 3.65 2.39 6.78 5.58 8.53-1.28.02-2.55.01-3.82-.02-2.42-1.81-4.81-3.71-6.47-6.28-.31-.95-.62-1.9-.93-2.86z"/>
    </g>
</svg>
