<svg width="128pt" height="128pt" viewBox="0 0 128 128" xmlns="http://www.w3.org/2000/svg">
    <path fill="#bababa" opacity=".73" d="M62.13 41.87c1.32 1.37 2.52 2.85 3.64 4.4.65 1.01 1.33 2.02 1.98 3.03.26.49.76 1.46 1.01 1.95.27.5.79 1.51 1.06 2.01 6.92 14.32 4.59 31.35-2.52 45.11-1.22 2.41-2.52 4.78-3.99 7.04-1.45 2.21-2.89 4.46-4.7 6.4 1.04-3.48 1.6-7.39 4.04-10.22.72-.98 1.4-1.98 2.07-2.99.87-1.44 1.67-2.91 2.51-4.36 5.47-10.03 6.8-22.12 3.83-33.13-1.69-6.94-5.25-13.19-8.93-19.24z"/>
</svg>
