<svg width="128pt" height="128pt" viewBox="0 0 128 128" xmlns="http://www.w3.org/2000/svg">
    <path fill="#220709" opacity=".5" d="M59.39 16.25c1.53.2 3.44.97 4.3 2.31l-.23.48-.7.15c-1.51.15-3.49-1.43-3.37-2.94z"/>
    <g fill="#bd2831">
        <path d="M62.76 19.19l.7-.15c2.33.6 4.38 1.95 6.44 3.16 1.33 1.08 2.59 2.24 3.85 3.4-.45.53-1.33 1.59-1.77 2.13-.55.48-1.66 1.43-2.21 1.91-.21-.67-.65-2-.86-2.66.31-.89.62-1.77.94-2.64-.36-.26-1.09-.76-1.45-1.01-.81-.54-1.68-.97-2.62-1.27-1.29-.61-2.11-1.82-3.02-2.87zM76.96 37.81c.43-.19 1.28-.57 1.7-.76 1.12 1.04 2.96 1.57 3.43 3.15-.02.62-.08 1.87-.1 2.49-.1.62-.28 1.85-.37 2.47-1.11-2.8-4.44-4.12-4.66-7.35zM65.41 39.61c.39.39 1.16 1.18 1.54 1.57.8.82 1.6 1.63 2.4 2.44-1.98 1.33-4.13 2.45-6.51 2.84l-1.19-.75c.79-2.3 2.21-4.27 3.76-6.1zM48.89 52.91c3.25 1.35 6.31 3.13 9.61 4.37l-1.23.64 2.67-.08.57.33c-2.55 1.55-5.54.78-7.7-1.01-1.44-1.29-2.7-2.76-3.92-4.25z"/>
    </g>
    <path fill="#531113" opacity=".83" d="M65.78 22.06c.94.3 1.81.73 2.62 1.27 1.53 3.85-3.67 1.04-2.62-1.27z"/>
    <g fill="#3c0d10">
        <path d="M69.9 22.2c1.67.57 3.16 1.51 4.18 2.98-.62.91-1.16 1.91-2.1 2.55.44-.54 1.32-1.6 1.77-2.13-1.26-1.16-2.52-2.32-3.85-3.4zM66.25 29.31c.89-.78 1.78-1.55 2.66-2.33.21.66.65 1.99.86 2.66-.13.63-.54.86-1.21.69-.58-.25-1.73-.76-2.31-1.02zM45.91 49.76c-1.26-.98-1.35-5.04.39-5.64.35 1.89.19 3.82-.39 5.64zM82.3 70.13l.18-.16c.29 1.49.59 2.99.89 4.49l2.43-2.55c-.92 1.31-1.91 2.58-2.9 3.83-.27-1.86-.66-3.72-.6-5.61zM18.47 77.18c3.58.37 7 1.53 10.33 2.86l-.02.32c-.04.62-.13 1.85-.18 2.47l-.53.41c-2.84-.49-5.44-1.89-8.34-2.17-.43-1.29-.85-2.59-1.26-3.89z"/>
    </g>
    <path fill="#c32b2f" d="M63.28 32.15c.98-.96 1.97-1.91 2.97-2.84.58.26 1.73.77 2.31 1.02-1.89 1.48-3.66 3.37-6.08 3.95l-1.12-.3c.48-.46 1.44-1.37 1.92-1.83z"/>
    <path fill="#080202" opacity=".32" d="M58.66 33.4c1.56-.34 3.1-.76 4.62-1.25-.48.46-1.44 1.37-1.92 1.83-.57.48-1.14.95-1.72 1.42-2.81 2.25-5.46 4.68-8.11 7.12-.81 1.39-1.99 3.17-.77 4.7 1.96 3 5.82 3.72 8.74 5.47l-.25 1.62c-4.32-2.13-9.27-3.88-11.69-8.39.88-1.24 1.75-2.49 2.6-3.74 2.77-2.99 5.85-5.67 8.5-8.78z"/>
    <g fill="#841c21">
        <path d="M51.7 37.66c2.33-1.41 4.61-2.89 6.96-4.26-2.65 3.11-5.73 5.79-8.5 8.78.55-1.49 1.05-3.01 1.54-4.52zM28.78 80.36c7.44 3.02 13.31 9.69 15.42 17.44.06.93.19 2.81.25 3.74-1.87-.16-3.75-.31-5.63-.44-.42-.04-1.27-.1-1.69-.14-.9-2.29-2.01-4.5-3.34-6.57 1.16-.9 2.31-1.8 3.47-2.7.81 1.52 1.63 3.05 2.44 4.58-.17.66-.5 1.98-.66 2.64.43.2 1.29.59 1.72.79.33-.42.98-1.26 1.31-1.68-2.33-1.96-2.8-5.17-4.74-7.44-2.12-3.09-5.61-4.7-8.51-6.85l-.22-.9c.05-.62.14-1.85.18-2.47z"/>
    </g>
    <path fill="#ad2326" d="M59.64 35.4c.58-.47 1.15-.94 1.72-1.42l1.12.3c2.31.73 4.74.86 7.13 1.06-.88.54-1.76 1.09-2.64 1.65-3.42 2.22-7.71 6.06-5.89 10.59-1.32-.4-2.64-.79-3.97-1.18 6.57 2.41 12.69 5.87 19.27 8.27 4.23 1.69 8.45 3.97 11.18 7.74 1.13 1.7 1.38 3.77.74 5.7-.35-.36-1.05-1.08-1.4-1.43-1.44-1.45-2.65-3.1-3.82-4.76-2.75-.78-5.55-1.42-8.3-2.2-5.05-2.44-10.28-4.48-15.28-7.03-2.92-1.75-6.78-2.47-8.74-5.47-1.22-1.53-.04-3.31.77-4.7 1.23.72 2.47 1.45 3.7 2.18 1.8-1.78 3.51-3.66 4.96-5.74-.14-.89-.41-2.67-.55-3.56z"/>
    <path fill="#4e1215" opacity=".71" d="M76.96 37.81c-1.62-2.29 2.38-3.87 1.7-.76-.42.19-1.27.57-1.7.76z"/>
    <path fill="#791818" d="M51.53 42.52c2.65-2.44 5.3-4.87 8.11-7.12.14.89.41 2.67.55 3.56-1.45 2.08-3.16 3.96-4.96 5.74-1.23-.73-2.47-1.46-3.7-2.18z"/>
    <path fill="#300a0a" opacity=".61" d="M61.08 47.58c-1.82-4.53 2.47-8.37 5.89-10.59 0 1.39-.01 2.79-.02 4.19-.38-.39-1.15-1.18-1.54-1.57-1.55 1.83-2.97 3.8-3.76 6.1l1.19.75.79.51c1.92 1.48 4 2.76 6.33 3.48 3.01 1.03 6.05 2.01 8.96 3.3-.64.23-1.91.69-2.54.92-6.58-2.4-12.7-5.86-19.27-8.27 1.33.39 2.65.78 3.97 1.18z"/>
    <g fill="#b52429">
        <path d="M47.97 40.41c1.2-.98 2.45-1.88 3.73-2.75-.49 1.51-.99 3.03-1.54 4.52-.85 1.25-1.72 2.5-2.6 3.74 2.42 4.51 7.37 6.26 11.69 8.39.53.26 1.6.79 2.13 1.06-.41.49-1.24 1.47-1.65 1.96l-1.22-1.42c-4.4-1.62-8.47-3.97-12.6-6.15.58-1.82.74-3.75.39-5.64l-.13-1.25c.41.41 1.25 1.21 1.66 1.61.21-1.35.26-2.7.14-4.07zM63.22 61.45c3.34-1.51 7.11-1.29 10.59-.49.84 1.7 1.76 3.36 2.7 5.01-3.14-.45-6.39-1.53-9.52-.38-.57.16-1.72.47-2.3.63-2.25.7-4.31-.6-6.29-1.47 1.48-1.28 3.07-2.43 4.82-3.3z"/>
    </g>
    <path opacity=".22" d="M46.17 42.87c-.15-1.04.87-2.25 1.8-2.46.12 1.37.07 2.72-.14 4.07-.41-.4-1.25-1.2-1.66-1.61z"/>
    <path fill="#160505" opacity=".43" d="M82.09 40.2c1.83-.6 1.66 3.24-.1 2.49.02-.62.08-1.87.1-2.49z"/>
    <path fill="#a51c1e" d="M69.35 43.62c1.52.94 3.06 1.83 4.65 2.65l.3.14c1.23.55 2.47 1.06 3.69 1.63-.5.44-1.51 1.32-2.02 1.76h.63c4.96 2.1 9.85 5.17 12.69 9.91-.22-.03-.67-.1-.9-.14-2.8-2.48-6.02-4.39-9.47-5.82-2.91-1.29-5.95-2.27-8.96-3.3.34-.52 1.01-1.57 1.34-2.1-2.49-.79-5.07-1.19-7.67-1.38l-.79-.51c2.38-.39 4.53-1.51 6.51-2.84z"/>
    <path fill="#2f0a0b" opacity=".56" d="M74.3 46.41c1.77-.43 3.21-1.51 4.63-2.59l-.4 1.11c-.96.88-1 2.37-.12 3.31.18-.61.56-1.84.75-2.45.21.87.34 1.75.41 2.64-.98.48-1.97.94-2.97 1.37h-.63c.51-.44 1.52-1.32 2.02-1.76-1.22-.57-2.46-1.08-3.69-1.63z"/>
    <path fill="#ad2829" d="M78.41 48.24c-.88-.94-.84-2.43.12-3.31l.63.86c-.19.61-.57 1.84-.75 2.45z"/>
    <path fill="#601414" d="M63.63 46.97c2.6.19 5.18.59 7.67 1.38-.33.53-1 1.58-1.34 2.1-2.33-.72-4.41-2-6.33-3.48z"/>
    <path fill="#040101" opacity=".17" d="M76.38 54.67c.63-.23 1.9-.69 2.54-.92 3.45 1.43 6.67 3.34 9.47 5.82.23.04.68.11.9.14l.63.08c-.8.86-1.58 1.74-2.36 2.62-2.73-3.77-6.95-6.05-11.18-7.74z"/>
    <g fill="#631818">
        <path d="M61.38 55.37c2.52 1.3 5.3 2.25 7.36 4.29-2.47.4-4.81-.26-6.57-2.01-.62.49-1.22 1-1.82 1.52l1.95.69c-3.24-.87-7.57.95-9.49-2.7 2.16 1.79 5.15 2.56 7.7 1.01l-.57-.33-.21-.51c.41-.49 1.24-1.47 1.65-1.96zM95.72 82.18c4.31-2.59 9.1-4.39 14.1-5.06-.37 1.14-.75 2.29-1.13 3.43-3.65.8-7.21 2-10.47 3.85-.84-.74-1.67-1.48-2.5-2.22z"/>
    </g>
    <path fill="#a21f21" d="M74.78 59.72c2.75.78 5.55 1.42 8.3 2.2 1.17 1.66 2.38 3.31 3.82 4.76-1.48 1.08-2.97 2.15-4.42 3.29l-.18.16c-2.42-3.54-5.37-6.69-7.52-10.41z"/>
    <path fill="#060102" opacity=".24" d="M50.45 63.24c.62-1.39 1.5-2.39 3.15-1.54-.45.08-1.36.25-1.82.34.64 1.77 1.46 3.47 2.32 5.15 1.45-2.58 3.66-4.56 6.11-6.16.76.11 2.26.31 3.01.42-1.75.87-3.34 2.02-4.82 3.3-.9 1-1.85 1.98-2.45 3.19-1.32 2.42 1.07 4.56 1.94 6.68-.24.6-.73 1.82-.97 2.43-.84-1.67-1.7-3.34-2.53-5.02-1.46-2.86-2.69-5.83-3.94-8.79z"/>
    <path fill="#a52321" d="M53.6 61.7c2.19-.32 4.41-.47 6.61-.67-2.45 1.6-4.66 3.58-6.11 6.16-.86-1.68-1.68-3.38-2.32-5.15.46-.09 1.37-.26 1.82-.34z"/>
    <path fill="#b82429" d="M50.45 63.24c1.25 2.96 2.48 5.93 3.94 8.79-1.05-.39-2.09-.77-3.13-1.15-1.54.28-3.09.48-4.63.74.64-3.05 2.62-5.54 3.82-8.38z"/>
    <path fill="#9a2021" d="M55.95 67.94c.6-1.21 1.55-2.19 2.45-3.19 1.98.87 4.04 2.17 6.29 1.47-1.35 2.92-2.16 6.09-1.52 9.31 1-2.3 1.72-4.71 2.31-7.15 2.06-.05 3.99.56 5.66 1.76-.05 1.37-.16 2.74-.33 4.1l-.2.12c.03.09.1.26.13.35-.12.36-.37 1.09-.5 1.45-1.54-.61-3.22.21-3.31 1.96-2.61.41-6.22 1.62-7.84-1.28-.3-.56-.9-1.67-1.2-2.22-.87-2.12-3.26-4.26-1.94-6.68z"/>
    <path fill="#3d0e0f" opacity=".61" d="M66.99 65.59c3.13-1.15 6.38-.07 9.52.38l.63.11c.4 1.02.91 2.17-.47 2.66-1.94-1.01-4-1.78-6.2-1.91.37.52 1.11 1.56 1.48 2.09-1.48-1.35-3.1-2.56-4.96-3.33z"/>
    <path fill="#0d0303" opacity=".29" d="M64.69 66.22c.58-.16 1.73-.47 2.3-.63 1.86.77 3.48 1.98 4.96 3.33.31.87.59 1.76.84 2.65.11.61.34 1.83.45 2.44-.48 2.62-2.01 4.96-4.66 5.78-2.87-1.23-6.21-.18-9.02-1.19-.12-.44-.35-1.32-.47-1.76 1.62 2.9 5.23 1.69 7.84 1.28 1.28-.16 2.79-.64 3.31-1.96.13-.36.38-1.09.5-1.45l.07-.47c.17-1.36.28-2.73.33-4.1-1.67-1.2-3.6-1.81-5.66-1.76-.59 2.44-1.31 4.85-2.31 7.15-.64-3.22.17-6.39 1.52-9.31z"/>
    <path fill="#b8262a" d="M70.47 66.83c2.2.13 4.26.9 6.2 1.91 1.18.59 2.16 1.42 2.94 2.5-2.59-.64-5.21-1.25-7.66-2.32-.37-.53-1.11-1.57-1.48-2.09z"/>
    <path fill="#ba262d" opacity=".96" d="M82.48 69.97c1.45-1.14 2.94-2.21 4.42-3.29.35.35 1.05 1.07 1.4 1.43-.76 1.31-1.56 2.61-2.5 3.8l-2.43 2.55c-.3-1.5-.6-3-.89-4.49z"/>
    <path fill="#7f1b1d" opacity=".95" d="M71.95 68.92c2.45 1.07 5.07 1.68 7.66 2.32.14.36.42 1.08.57 1.43-2.51.01-5.01-.3-7.39-1.1-.25-.89-.53-1.78-.84-2.65z"/>
    <path fill="#8f1b1b" d="M51.26 70.88c1.04.38 2.08.76 3.13 1.15.83 1.68 1.69 3.35 2.53 5.02l.66 1.32c-4.49-.77-8.26-3.44-11.55-6.43l.6-.32c1.54-.26 3.09-.46 4.63-.74z"/>
    <path fill="#b82426" d="M72.79 71.57c2.38.8 4.88 1.11 7.39 1.1.06 1.43.13 2.86.2 4.29-.68 2.09-1.56 4.1-2.47 6.1-1.78-2.89-3.53-5.84-4.67-9.05-.11-.61-.34-1.83-.45-2.44z"/>
    <path fill="#a52029" d="M45.84 72.44c2.58 2.6 4.92 5.7 8.43 7.11 4.51 1.91 9.69 1.64 14.31.24 2.65-.82 4.18-3.16 4.66-5.78 1.14 3.21 2.89 6.16 4.67 9.05.91-2 1.79-4.01 2.47-6.1.27 1.62.45 3.25.62 4.89-1.12 1.79-1.81 3.96-3.51 5.31-7.98-.47-15.97-.32-23.96-.21 1.07-.9 2.15-1.79 3.23-2.68l-1.02-.9c-2.26.43-4.5.96-6.71 1.59-1.86-3.94-2.74-8.22-3.19-12.52z"/>
    <path fill="#ff3031" d="M70.61 74.36l.2-.12-.07.47c-.03-.09-.1-.26-.13-.35z"/>
    <path fill="#c82b2b" opacity=".93" d="M66.93 78.12c.09-1.75 1.77-2.57 3.31-1.96-.52 1.32-2.03 1.8-3.31 1.96z"/>
    <path fill="#170506" opacity=".51" d="M98.22 84.4c3.26-1.85 6.82-3.05 10.47-3.85l-.16 1.69-.36.04c-2.91.29-5.69 1.28-8.32 2.54-1.79.9-3.34 2.17-4.79 3.54-.52-.46-1.03-.92-1.53-1.39 1.56-.84 3.12-1.72 4.69-2.57z"/>
    <path fill="#5a1418" d="M19.76 81.7c2.96.63 5.83 1.63 8.68 2.65l-.04.39-.33 4.01c-2.25-1.13-4.6-2.06-7.03-2.71-.43-1.45-.86-2.89-1.28-4.34z"/>
    <g fill="#8c1c21">
        <path d="M85.9 93.32c1.89-4.71 5.73-8.3 9.82-11.14.83.74 1.66 1.48 2.5 2.22-1.57.85-3.13 1.73-4.69 2.57.5.47 1.01.93 1.53 1.39 1.45-1.37 3-2.64 4.79-3.54.03 1.36.05 2.72.07 4.08-4.08 3.08-7.1 7.32-8.9 12.09-.72.08-2.15.22-2.87.3-1.61.15-3.21.3-4.81.46.66-2.87 1.35-5.74 2.56-8.43m.35 4.78c.61.65 1.02 1.85 2.13 1.44 1.52-1.17-.29-2.98.67-4.35 1.08-2.71 3.4-4.61 4.71-7.17-3.9 2.16-4.66 6.98-7.51 10.08zM59.42 89.55h3.01c.47 3.68.1 7.4.13 11.09l3.61.09c.04-3.68.2-7.37-.26-11.04l3.55-.16c-.25 3.68-.2 7.37-.58 11.04-2.32 2.1-4.23 4.73-7.01 6.26-2.36-.01-4.46-1.2-6.24-2.64 1.26-.56 2.52-1.1 3.79-1.63.05-.39.16-1.16.21-1.55.49-3.81 0-7.65-.21-11.46z"/>
    </g>
    <path fill="#5d1310" d="M99.85 84.82c2.63-1.26 5.41-2.25 8.32-2.54-.3 1.25-.6 2.5-.92 3.75-2.55.64-5 1.64-7.33 2.87-.02-1.36-.04-2.72-.07-4.08z"/>
    <path fill="#841c1b" d="M49.03 84.96c2.21-.63 4.45-1.16 6.71-1.59l1.02.9c-1.08.89-2.16 1.78-3.23 2.68 7.99-.11 15.98-.26 23.96.21l.78.46c-9.06-.03-18.13-.41-27.18.31-.69-.99-1.38-1.98-2.06-2.97z"/>
    <path fill="#791816" d="M28.4 84.74c3.54 1.47 6.45 4.02 8.86 6.95-1.16.9-2.31 1.8-3.47 2.7-1.7-2.08-3.52-4.07-5.72-5.64l.33-4.01z"/>
    <path fill="#7e181b" d="M50.62 89.86l4.11.15c.62 3.52 1.97 7.02 1.78 10.62l-.88 3.56c1.78 1.44 3.88 2.63 6.24 2.64 2.78-1.53 4.69-4.16 7.01-6.26 1.14.06 2.27.11 3.41.16.25-3.64 1.08-7.2 1.97-10.73 1.37-.04 2.75-.09 4.12-.13-.97 3.51-2.05 6.99-2.85 10.55l.1.31c.52 1.47 1.03 2.94 1.55 4.42-3.18.74-6.4 2.29-9.7 1.27l1.23 2.49c-.98 0-1.96-.01-2.95-.01-.12-.43-.37-1.31-.49-1.74-2.4.82-4.73 1.87-7.21 2.44-2.37-.52-3.95-2.64-5.77-4.11-.91.9-1.81 1.79-2.72 2.68-1.04-5.66-3.08-11.03-5.28-16.33.45-.28 1.36-.85 1.82-1.13 2.57 2.6 3.26 6.55 4.49 9.92.96.01 1.94.03 2.91.04-.86-3.63-1.98-7.19-2.89-10.81z"/>
    <path fill="#170506" opacity=".36" d="M82.22 90.79c1.76-.13 2.76 1.25 3.68 2.53-1.21 2.69-1.9 5.56-2.56 8.43 1.6-.16 3.2-.31 4.81-.46-1.68.57-3.43.94-5.22.87.14-.99.4-2.97.53-3.97-.5.16-1.51.46-2.01.61.77-2.44 1.77-4.8 2.77-7.15-.5-.21-1.5-.64-2-.86z"/>
    <path fill="#7f1b1d" opacity=".98" d="M82.22 90.79c.5.22 1.5.65 2 .86-1 2.35-2 4.71-2.77 7.15-.61 1.95-1.14 3.94-1.67 5.92-.5-1.23-1.03-2.45-1.57-3.66.9-3.58 2.36-6.98 4.01-10.27z"/>
    <path fill="#2c090a" opacity=".62" d="M44.2 97.8c.56 1.43.89 2.94 1.12 4.46-2.19-.24-4.38-.56-6.5-1.16 1.88.13 3.76.28 5.63.44-.06-.93-.19-2.81-.25-3.74z"/>
    <path fill="#5f1615" d="M56.51 100.63c.78.1 2.34.28 3.12.38-.05.39-.16 1.16-.21 1.55-1.27.53-2.53 1.07-3.79 1.63l.88-3.56z"/>
    <path fill="#5d1013" d="M75.63 100.73c.65.08 1.94.25 2.58.33.54 1.21 1.07 2.43 1.57 3.66-.52 2.48-.96 4.98-1.42 7.47-9.46-.08-18.92.04-28.38-.07-.13-1.31-.27-2.63-.41-3.95.91-.89 1.81-1.78 2.72-2.68 1.82 1.47 3.4 3.59 5.77 4.11 2.48-.57 4.81-1.62 7.21-2.44.12.43.37 1.31.49 1.74.99 0 1.97.01 2.95.01l-1.23-2.49c3.3 1.02 6.52-.53 9.7-1.27-.52-1.48-1.03-2.95-1.55-4.42z"/>
</svg>
