<svg width="128pt" height="128pt" viewBox="0 0 128 128" xmlns="http://www.w3.org/2000/svg">
    <g fill="#5a1118">
        <path d="M44.42 30.52c4.5-5.84 10.88-10.85 18.44-11.61 6.95-.63 13.35 2.89 18.87 6.73-.55 1.07-1.1 2.15-1.64 3.22-4.32-1.36-9.3-3.75-13.7-1.48-2.91 1.63-2.75 5.31-2.73 8.19-1.82.1-3.64.21-5.46.32-.13-3.45.12-7.44 2.96-9.83 2.38-2.21 5.87-1.86 8.87-1.91-3.85-1.11-7.87-2.5-11.91-1.58-4.37 1-8.54 3.78-10.42 7.96-1.05 2.81.06 5.74-.03 8.61-1.58 2.5-4.01 4.23-6.39 5.89-.27-1.44-.55-2.87-.85-4.3-4.35 8.6-9.78 17.22-10.2 27.12-3.44-.29-7.12.05-10.28-1.6 2.9.89 5.62-.64 6.92-3.24 5.67-10.9 9.61-22.9 17.55-32.49zM72.69 105.08c8.06-.87 15.25-4.88 22.54-8.1-6.14 4.23-13.06 7.23-20.24 9.19-.58-.27-1.73-.82-2.3-1.09z"/>
    </g>
    <path fill="#791818" d="M81.73 25.64c2.11 1.26 4.27 2.44 6.43 3.61.01.86.02 2.6.02 3.47-2.76-1.16-5.39-2.58-8.09-3.86.54-1.07 1.09-2.15 1.64-3.22z"/>
    <path fill="#5a1314" opacity=".79" d="M111.45 28.14c1.44.13.91 2.8-.43 2.74l-.58-.25c-.35-1.06-.02-1.89 1.01-2.49z"/>
    <path fill="#8c1c21" d="M88.16 29.25c3.1 1.63 6.4 2.79 9.72 3.85.91.3 1.82.59 2.74.87.41.58 1.23 1.75 1.64 2.33-1.46.01-2.92-.02-4.38-.08-3.39-.57-6.51-2.1-9.7-3.31v-.19c0-.87-.01-2.61-.02-3.47z"/>
    <path fill="#ae2428" opacity=".98" d="M107.97 32.45c.62-.45 1.85-1.36 2.47-1.82l.58.25c.09 2.57-2.59 4.46-4.82 5.25-1.32.09-2.63.14-3.94.17-.41-.58-1.23-1.75-1.64-2.33 2.53.17 5.28.17 7.35-1.52z"/>
    <path fill="#3f0c0f" opacity=".67" d="M97.88 33.1c3.38.34 6.81.34 10.09-.65-2.07 1.69-4.82 1.69-7.35 1.52-.92-.28-1.83-.57-2.74-.87z"/>
    <g fill="#6b1415">
        <path d="M58.2 35.89c1.82-.11 3.64-.22 5.46-.32.64 3.25 1.91 6.3 3.67 9.1 3.63 6.1 4.55 13.8 1.73 20.41 3.94-.3 5.94-3.46 7.78-6.47.22.45.66 1.36.88 1.81-.06.13-.2.38-.27.5-1.14 2.01-2.41 4.1-2.24 6.5-1.78.6-3.5 1.4-4.73 2.85-2.08-2.06-4.91-2.95-7.59-3.92 3.54-10.59-4.04-20.11-4.69-30.46zM37.81 86.93c.95.77 1.9 1.54 2.85 2.32.14 1.59.29 3.17.51 4.75 1.15 3.66 3.06 7.37 6.49 9.35 4.18 2.4 9.11 2.84 13.82 3.01l.24.08c.12.05.37.14.5.18.37.12 1.12.34 1.5.45-2.64 1.83-5.91.67-8.82.43-7.33-.92-14.39-5.91-16.19-13.33-.54-2.38-.74-4.82-.9-7.24z"/>
    </g>
    <path fill="#3d0d10" opacity=".64" d="M97.88 36.22c1.46.06 2.92.09 4.38.08 1.31-.03 2.62-.08 3.94-.17-2.57 1.38-5.67 1.12-8.32.09z"/>
    <path fill="#6e1515" d="M47.67 39.14l.37-.51c1.83 8.28 1.97 16.81.36 25.16-2.06-1.57-4.19-3.05-6.39-4.42.13-4.79-.08-9.6-.73-14.34 2.38-1.66 4.81-3.39 6.39-5.89z"/>
    <path fill="#160506" opacity=".42" d="M86.55 51.8c2.03-.9 4.96-1.57 6.44.6-.19-.03-.57-.08-.75-.11-1.88-.31-3.78-.51-5.69-.49z"/>
    <g fill="#a52124">
        <path d="M76.84 58.61c2.53-3.11 5.84-5.64 9.71-6.81 1.91-.02 3.81.18 5.69.49-.77.41-2.3 1.24-3.06 1.65-1.03.31-1.83.92-2.38 1.84-.6.76-1.27 1.44-2.03 2.04-.92.54-1.52 1.33-1.8 2.35-.37.85-.75 1.69-1.13 2.53-1.35 2.75-.95 5.9.11 8.68 1.11 3.78 4 6.61 7.12 8.85-4.15-.54-9.16-.62-11.96-4.23-.39-.99-1.04-1.76-1.94-2.3l-1.48-1.04.47-.31 1.87-1.27c.67 1.72 1.86 3.14 3.09 4.49.92 1.32 2.48 1.9 3.92 2.45-.55-1.59-1.4-3.11-2.78-4.12l-.52-1.51c-.92-4.1-1.34-8.49.26-12.48 1.87-2.27 4.04-4.26 6.17-6.27-2.44.9-4.88 2.08-6.56 4.14-.47.66-1.41 1.98-1.89 2.64-.22-.45-.66-1.36-.88-1.81zM42.01 59.37c2.2 1.37 4.33 2.85 6.39 4.42-.56 2.72-.9 5.5-1.71 8.17l-.64 1.99c-.06 3.99-1.86 7.8-2.74 11.68 2.79 1.79 5.59 3.57 8.44 5.27l.24-.92c.13 1.33.28 2.67.45 4.01l-1.64-1.03c-5.61-2.86-11.08-6-15.98-10-2.4-1.87-4.51-4.07-6.91-5.95.02-1.32.04-2.63.05-3.95.69.79 1.38 1.57 2.08 2.35 2.49 2.74 5.23 5.3 8.45 7.17 1.48-7.69 2.95-15.4 3.52-23.21zM52.81 99.63c1.5-.51 2.11-.03 1.82 1.45h-1.51c-.08-.36-.23-1.09-.31-1.45z"/>
    </g>
    <path fill="#2c0a0a" opacity=".61" d="M79.61 57.78c1.68-2.06 4.12-3.24 6.56-4.14-2.13 2.01-4.3 4-6.17 6.27-.09-.53-.29-1.6-.39-2.13z"/>
    <path fill="#0d0303" opacity=".44" d="M86.8 55.78c.55-.92 1.35-1.53 2.38-1.84.12 1.76-.68 2.37-2.38 1.84z"/>
    <path fill="#0e0203" opacity=".39" d="M82.97 60.17c.28-1.02.88-1.81 1.8-2.35.55 1.71-.05 2.5-1.8 2.35z"/>
    <path fill="#0c0303" opacity=".28" d="M77.72 60.42c.48-.66 1.42-1.98 1.89-2.64.1.53.3 1.6.39 2.13-1.6 3.99-1.18 8.38-.26 12.48-1.59-3.63-1.43-7.66-2.29-11.47.07-.12.21-.37.27-.5z"/>
    <path fill="#27070a" opacity=".56" d="M81.95 71.38c-1.06-2.78-1.46-5.93-.11-8.68-.37 2.89-.04 5.79.11 8.68z"/>
    <path fill="#841b1b" d="M16.5 61.44c.97 1.73 1.93 3.5 3.45 4.81 3.16 1.65 6.84 1.31 10.28 1.6-.13 2.52-.14 5.04-.19 7.56-.7-.78-1.39-1.56-2.08-2.35-.01 1.32-.03 2.63-.05 3.95-3.02-2.08-6.19-4.88-10.16-4.25-.34.98-.68 1.96-1.04 2.94-.43-2.27-1.18-5.2 1.17-6.71-2.09-2.06-1.63-4.9-1.38-7.55z"/>
    <path fill="#3c0e0f" opacity=".68" d="M35.81 68.95c-3.22-.63 1.55-5.2 2.01-2-1.24.1-1.91.76-2.01 2z"/>
    <path fill="#891b1e" d="M62.89 66.35c2.68.97 5.51 1.86 7.59 3.92 1.23-1.45 2.95-2.25 4.73-2.85.24 1.23.52 2.45.82 3.66l-1.87 1.27c-2.04-.18-4.02-.79-6.03-1.14 1.81 2.7 3.86 6.13 2.23 9.43-1.55 3.3-2 6.94-1.64 10.56-1.44-4.17-7.52-3.35-8.51-7.98-1.22 1.55-2.44 3.08-3.68 4.6-1.26-7.8 4.43-14.28 6.36-21.47z"/>
    <path fill="#a02229" d="M35.81 68.95c.1-1.24.77-1.9 2.01-2 .59 1.9-.07 2.57-2.01 2z"/>
    <path fill="#340c0e" opacity=".64" d="M46.05 73.95l.64-1.99.56.74-.33 1.03-.87.22z"/>
    <path fill="#0a0203" opacity=".38" d="M75.17 73.7c.9.54 1.55 1.31 1.94 2.3-1.81.19-2.45-.57-1.94-2.3z"/>
    <path fill="#270607" opacity=".52" d="M80.26 73.9c1.38 1.01 2.23 2.53 2.78 4.12-1.44-.55-3-1.13-3.92-2.45.29-.42.86-1.26 1.14-1.67z"/>
    <path fill="#080202" opacity=".25" d="M34.82 82.96c4.9 4 10.37 7.14 15.98 10-.9.16-2.7.48-3.6.65-1.34-.96-2.77-1.77-4.18-2.62-.12.21-.36.65-.48.86-.34.54-1.02 1.62-1.37 2.15-.22-1.58-.37-3.16-.51-4.75-.95-.78-1.9-1.55-2.85-2.32.16 2.42.36 4.86.9 7.24-2.11-3.56-.4-8.34-3.89-11.21z"/>
    <g fill="#a52023">
        <path d="M60.21 83.22c.99 4.63 7.07 3.81 8.51 7.98.81 4.25 3.8 7.52 7.37 9.77-7.77-1.78-15.56-3.71-22.88-6.93l-.2.98c-.13-1.34-.29-2.69-.47-4.03 2.35 1.39 4.91 2.36 7.53 3.1-1.59-1.84-2.67-4.02-3.54-6.27 1.24-1.52 2.46-3.05 3.68-4.6z"/>
        <path d="M43.02 90.99c1.41.85 2.84 1.66 4.18 2.62 1.75 2.08 4.42 3.62 5.61 6.02.08.36.23 1.09.31 1.45h1.51c4.03 1.14 7.75 4.04 12.04 5.01 3.03.97 6.18 1.61 9.37 1.62 6.8-.01 13.67-.94 20.07-3.3 1.46-.45 2.84-1.28 4.4-1.3l.66.15c-5.04 2.78-10.58 4.65-16.25 5.64-5.67-1.04-11.46-1.37-17.2-.73-1.39-.15-2.67-.73-4-1.1-.38-.11-1.13-.33-1.5-.45l-.5-.18-.24-.08c-7.31-3.3-14.04-8.09-18.94-14.51.12-.21.36-.65.48-.86z"/>
    </g>
    <path fill="#190606" opacity=".49" d="M100.51 103.11c-.33-1.68 2.87-2.19 4.17-2.24-.2 1.44-2.09 2.5-3.51 2.39l-.66-.15z"/>
    <path fill="#180506" opacity=".53" d="M70.18 106.66c.49-1.03 1.19-2.22 2.51-1.58.57.27 1.72.82 2.3 1.09l1.05 1.54c-3.19-.01-6.34-.65-9.37-1.62.88.14 2.63.43 3.51.57z"/>
    <path fill="#b5252a" opacity=".95" d="M67.72 108.17c5.74-.64 11.53-.31 17.2.73-5.17.18-10.37.4-15.53-.2-.41-.13-1.25-.4-1.67-.53z"/>
    <path opacity=".27" d="M69.39 108.7c5.16.6 10.36.38 15.53.2-4.87 1.76-10.7 1.67-15.53-.2z"/>
</svg>
