<svg width="128pt" height="128pt" viewBox="0 0 128 128" xmlns="http://www.w3.org/2000/svg">
    <path fill="#5a1113" d="M46.01 27.85c10.51-1.36 21.96-1.02 31.11 4.96 4.1 1.85 2.07 7.03 2.17 10.5-.65-.91-1.29-1.82-1.93-2.74-.77-.09-1.55-.19-2.33-.28-1.1-3.4-3.98-5.67-6.29-8.23-2.5 1.56-4.96 3.83-8.13 3.6-2.84.15-6.48-.72-8.23 2.24.23-3.87-3.19-7.89-7.28-6.65-3.27.67-4.3 4.15-4.42 7.06-1.08-1.1-2.23-2.12-3.38-3.14-.86 1.42-1.72 2.84-2.57 4.26-.53-.31-1.05-.63-1.57-.94-.58.72-1.16 1.43-1.74 2.15-.72-.61-1.43-1.22-2.15-1.83 3.23-3.31 6.33-6.78 9.96-9.66 1.88-1.57 4.55-.83 6.78-1.3z"/>
    <g fill="#3c0b0d">
        <path d="M32.08 29.16l3.84.15c-2.47 2.42-4.74 5.05-7.46 7.2 1.05-2.52 2.32-4.95 3.62-7.35zM86.17 62.69c2.44 2.32 6.39 3.56 6.91 7.33 2.28-.38 4.55-.8 6.82-1.26-1.4-.53-2.8-1.05-4.17-1.65 1.99.09 3.98.05 5.97.04-.23 1.78-.45 3.57-.68 5.36-1.59.5-3.19 1-4.74 1.62-4.17 1.96-7.74 4.9-11.2 7.91 2.51-6.1 4.17-13.12 1.09-19.35z"/>
    </g>
    <path fill="#651415" d="M60.61 35.66c3.17.23 5.63-2.04 8.13-3.6 2.31 2.56 5.19 4.83 6.29 8.23.78.09 1.56.19 2.33.28.64.92 1.28 1.83 1.93 2.74-.47 1.15-.85 2.34-1.49 3.42-1.01 1.15-2.1 2.23-3.18 3.31-1.06-1.84-2.09-4.2-4.58-4.27-6.87-.67-14.41 2.07-18.61 7.68-2.47 3.17-.94 7.35.67 10.52 1.51 3.36 4.35 5.79 6.66 8.58-7.83-2.31-13.76-9.98-13.14-18.27-8.84 2.58-19.18 8.1-19.77 18.48-3.85-5.78-3.9-13.39-1.47-19.73-2.48-3.35-.57-7.07-.41-10.77 1.76-1.17 3.53-2.31 5.3-3.45.72.61 1.43 1.22 2.15 1.83.58-.72 1.16-1.43 1.74-2.15.52.31 1.04.63 1.57.94.85-1.42 1.71-2.84 2.57-4.26 1.15 1.02 2.3 2.04 3.38 3.14 1.56 1.99 3.44 4.48 6.32 4.04 2.71-.02 4.19-2.39 5.38-4.45 1.75-2.96 5.39-2.09 8.23-2.24m-35 8.25c-.33 1.4-.68 2.79-1.03 4.19 1.1.68 2.21 1.36 3.33 2.02.05-2.32-1.22-4.27-2.3-6.21z"/>
    <path fill="#431619" opacity=".79" d="M82.27 35.88c-2.22-2.94 2.67-2.97.49 0h-.49z"/>
    <g fill="#7b1821">
        <path d="M84.51 32.53c.12.55.37 1.65.5 2.2.14 3.26-.18 6.51-.5 9.75.82-1.64 1.67-3.26 2.36-4.96.26-1.89.42-3.8.7-5.69 1.42 4.47.14 9.2-2.41 12.98 2.62-2.63 4.02-6.08 5.91-9.2-.11 1.8-.21 3.63-.68 5.38-1.02 1.95-2.35 3.71-3.62 5.49 1.8-.85 3.63-1.69 5.23-2.9.52-.4 1.56-1.18 2.08-1.58-1.14 2.1-2.21 4.61-4.79 5.25-.76.35-1.52.69-2.29 1.02.23.49.67 1.47.89 1.96.14.23.41.7.55.93.94 1.31 1.57 2.79 1.8 4.4-2.43-2.54-5.02-4.93-8.05-6.74-3.2-1.97-1.65-6.56-.05-9.04.14-.14.43-.41.57-.55l.7-.63c.38-2.69.63-5.39 1.1-8.07zM21.38 58.85c.18 4.33.07 8.85 1.99 12.85.61 1.54 1.68 2.94 1.83 4.63-.22.72-.44 1.44-.67 2.15 1.02.41 2.05.82 3.07 1.23-.25.17-.75.52-1 .69-2.32-.07-4.64-.31-6.95-.53 1.21-.79 2.54-1.38 3.89-1.89-.56-1.29-1.02-2.64-1.75-3.85-1.91-.93-3.92-1.6-5.86-2.45 1.78-.66 5.05.22 5.21-2.39-.78-.08-2.35-.23-3.13-.31 2.3-.76 2.82-2.6 2.29-4.77-1.11-.79-2.2-1.58-3.28-2.4.82.02 2.47.07 3.29.1l1.07-3.06z"/>
    </g>
    <path fill="#911f1e" d="M43.42 36.1c.49-2.79 5-3.25 5.89-.48 1.66 2.67-1.81 5.17-4.34 4.7-.68-1.28-2.27-2.61-1.55-4.22z"/>
    <path fill="#170505" opacity=".51" d="M85.01 34.73c.64 1.59 1.27 3.18 1.86 4.79-.69 1.7-1.54 3.32-2.36 4.96.32-3.24.64-6.49.5-9.75z"/>
    <path fill="#a72526" d="M82.27 35.88h.49c.56 1.69.38 3.64-.05 5.35-.14.14-.43.41-.57.55-.56-1.86-.47-4.06.13-5.9z"/>
    <path fill="#070102" opacity=".29" d="M86.77 48.48c1.27-1.78 2.6-3.54 3.62-5.49.4.65 1.2 1.94 1.61 2.59-1.6 1.21-3.43 2.05-5.23 2.9z"/>
    <path fill="#551313" d="M74.62 50.04c1.08-1.08 2.17-2.16 3.18-3.31-.45 5.22 5.56 5.91 8.06 9.36 2.66 3.51 5.72 6.68 8.48 10.11l1.39.91c1.37.6 2.77 1.12 4.17 1.65-2.27.46-4.54.88-6.82 1.26-.52-3.77-4.47-5.01-6.91-7.33-3.33-4.69-7.86-8.28-11.55-12.65z"/>
    <path fill="#6b161a" opacity=".82" d="M62.22 48.07l1.76.04c-.47.2-1.41.62-1.89.83l.13-.87z"/>
    <path fill="#c6282c" d="M63.98 48.11c2.22-.48 4.55-.58 6.79-.12.91.9 1.51 2.05 2.17 3.14-3.47 3.96-9.27 5.96-10.98 11.27-1.4 1.16-1.75 2.61-.72 4.18-.72 1.23-1.42 2.47-2.09 3.73-2.89-3.2-6.07-6.77-6.36-11.28-.54-5.2 4.33-9.99 9.3-10.09.48-.21 1.42-.63 1.89-.83z"/>
    <path fill="#2d090a" opacity=".59" d="M87 50.27c.77-.33 1.53-.67 2.29-1.02.83.24 2.47.7 3.29.93-1.46.42-2.9.87-4.31 1.42 1.25.29 2.51.48 3.8.55-1.21.34-2.42.68-3.63 1.01-.14-.23-.41-.7-.55-.93-.22-.49-.66-1.47-.89-1.96z"/>
    <path fill="#7a1b1e" opacity=".96" d="M92.58 50.18c.38.01 1.14.02 1.52.03.04 1.11-.64 1.76-2.03 1.94-1.29-.07-2.55-.26-3.8-.55 1.41-.55 2.85-1 4.31-1.42z"/>
    <path fill="#0a0203" opacity=".29" d="M99.81 50.2c.44-.01 1.32-.02 1.76-.02-.06 2.21.39 4.38.97 6.5l-.04.91c.32.15.98.45 1.3.59l.7.34c-.14.7-.42 2.09-.55 2.78-.63-1.01-1.25-2.02-1.88-3.03l-.42 2.65c-.31-.96-.6-1.92-.9-2.87.35-2 .46-4.1-.33-6.01-.15-.46-.46-1.38-.61-1.84z"/>
    <path fill="#ad2326" d="M61.96 62.4c1.71-5.31 7.51-7.31 10.98-11.27 5.46 6.35 15.3 12.12 12.98 21.9l-.84 1.88c.04 3.14-2.15 5.9-4.06 8.25.47 1.01.94 2.02 1.42 3.02-.47-.28-1.41-.83-1.88-1.1l-1.31 1.15c-.33-.39-.99-1.17-1.32-1.55.33 1.05.66 2.1 1 3.15l-2.2.84c-.02.94-.07 2.81-.1 3.75-.95-1.47-1.77-3.02-2.69-4.51-.24 2.62-.44 5.24-.72 7.86-1.31-1.32-2.63-2.63-3.96-3.91.24.9.72 2.72.95 3.63-1.17-2.35-3.11-.93-4.76-.68-.34.82-1.04 2.46-1.39 3.28l-.35-2.19c-.17-.5-.51-1.48-.68-1.97-.82.37-1.51.91-2.09 1.61-.23.24-.71.71-.95.95-2.86-1.29-4.77 1.36-6.66 3.07.19-1.95.36-3.89.51-5.84-.3.54-.91 1.62-1.22 2.16-1.55-.2-3.1-.41-4.65-.63-.32.89-.64 1.79-.99 2.68-.41-2.08-.82-4.15-1.34-6.2-.12.61-.36 1.83-.48 2.45-2.54-.88-3.13 1.78-4.16 3.42.01-2.64.01-5.29-.02-7.93-.85.84-1.69 1.68-2.53 2.53-.37-.21-1.1-.64-1.47-.85-.5-.39-1.5-1.16-2.01-1.55-.74-1.29-1.33-1.22-1.76.21-.84 1.87-2.72 2.99-4.22 4.3.41-1.05.81-2.1 1.19-3.16.68-2.12 1.15-4.29 1.64-6.46-.86.57-1.71 1.15-2.58 1.71-.96.61-1.94 1.21-2.92 1.79 1.37-1.64 2.66-6.05-1.21-4.66.38-.78 1.12-2.34 1.49-3.13.25-.17.75-.52 1-.69-1.02-.41-2.05-.82-3.07-1.23.23-.71.45-1.43.67-2.15.17-.68.53-2.04.7-2.72.6.36 1.21.71 1.83 1.03.34-1.29-.1-2.06-1.33-2.3 1.81-4.41 4.39-8.63 8.5-11.24-.28.96-.56 1.92-.84 2.87 2.44 1.36 4.97 2.55 7.56 3.6-.57.99-1.13 1.99-1.7 2.98 2.76-.8 5.58-1.36 8.41-1.79 4.48 4.2 10.46 6.05 16.43 6.83-1.36-1.16-2.71-2.32-4.06-3.48-.73.23-2.18.7-2.9.93l.96-.49 1.36-.68c-.25-.39-.73-1.17-.97-1.56.67-1.26 1.37-2.5 2.09-3.73-1.03-1.57-.68-3.02.72-4.18m10.15 10.89c-.76 1.46 1.17 3.61 2.64 3.37.12-1.35-1.05-3.76-2.64-3.37m-36.5 3.95c-.61 1.53-1.09 3.12-1.61 4.69 1.37-.84 2.75-1.67 4.13-2.49-.68-.87-1.14-2.43-2.52-2.2m15.99 4.91c.03 2.32-.02 4.65-.13 6.97.71-2.11 1.38-4.23 2.03-6.35-.47-.16-1.42-.47-1.9-.62m12.6 2.28c-.7 1.39.19 3.23 1.22 4.22 1.69-.58.76-4.9-1.22-4.22z"/>
    <path fill="#3a0f11" opacity=".72" d="M102.54 56.68c.68-2.11 1.51-4.16 2.45-6.16.05 2.66-.75 5.24-.64 7.91l-.55-.25c-.32-.14-.98-.44-1.3-.59l.04-.91z"/>
    <path fill="#68181e" opacity=".93" d="M100.42 52.04c.79 1.91.68 4.01.33 6.01-.26-.39-.78-1.16-1.05-1.55-.39-1.61-.15-3.1.72-4.46z"/>
    <path fill="#1a0606" opacity=".46" d="M106.91 54.74c.18-.53.56-1.59.74-2.12.39 1.25.76 2.5 1.11 3.76-1.09 1.4-1.86 3.07-1.92 4.86l-.28-.05c.03.11.11.32.15.43l.59 1.59c-.39.46-1.15 1.38-1.53 1.84-.41-.35-1.23-1.06-1.64-1.41 1.14-2.89 2.04-5.88 2.78-8.9z"/>
    <path fill="#841c21" d="M104.87 58.61c.64-1.31 1.29-2.62 2.04-3.87-.74 3.02-1.64 6.01-2.78 8.9.41.35 1.23 1.06 1.64 1.41.38-.46 1.14-1.38 1.53-1.84.85-.97 1.94-1.7 2.98-2.45-1.1 1.85-2.34 3.61-3.57 5.38-.13.17-.38.53-.5.7.69.1 2.07.31 2.75.41-.73.53-1.47 1.04-2.24 1.53l-.71.4c.48.21 1.42.63 1.89.84-.36.47-1.09 1.41-1.45 1.88.76.1 2.28.29 3.04.39-1.14.33-2.26.71-3.36 1.15.43.46.89.89 1.38 1.29 1.24 1.02 2.49 2.04 3.64 3.18-.42-.2-1.25-.58-1.67-.77-1.58-.78-3.15-1.59-4.73-2.37.17.61.51 1.82.68 2.42-.75-.24-2.25-.73-3-.97.56.91 1.12 1.83 1.7 2.73.59.83 1.76 2.5 2.35 3.33-.38.08-1.13.24-1.5.32l-.05-.36c-.97-1.49-2.01-2.92-3.04-4.35l-.25-.39c-.05-.06-.14-.2-.19-.27l-.06.27c-.58 0-1.75-.01-2.33-.01-.28.5-.85 1.49-1.13 1.99l.28-3.38c1.53-1.15 3.7-1.55 4.69-3.32 1-2.36.62-5.08-.56-7.29-1.53-.13-3.07-.07-4.59-.09.79-2.11.34-5.28 2.67-6.43.06 1.03.17 3.09.23 4.12.34-.72.67-1.44 1-2.17l.42-2.65c.63 1.01 1.25 2.02 1.88 3.03.13-.69.41-2.08.55-2.78l.37.09z"/>
    <path fill="#130404" opacity=".33" d="M97.98 58.56c.59-.67 1.17-1.35 1.72-2.06.27.39.79 1.16 1.05 1.55.3.95.59 1.91.9 2.87-.33.73-.66 1.45-1 2.17-.06-1.03-.17-3.09-.23-4.12-2.33 1.15-1.88 4.32-2.67 6.43 1.52.02 3.06-.04 4.59.09 1.18 2.21 1.56 4.93.56 7.29-.99 1.77-3.16 2.17-4.69 3.32l-.28 3.38c-.01.42-.04 1.24-.05 1.66-.3-2.38-.33-4.89-1.6-7.01 1.55-.62 3.15-1.12 4.74-1.62.23-1.79.45-3.58.68-5.36-1.99.01-3.98.05-5.97-.04l-1.39-.91c.7.04 2.1.14 2.8.18.53-2.57 1.07-5.18.84-7.82z"/>
    <path fill="#320d0f" opacity=".6" d="M108.76 56.38l.49-.01c1.13 1.47-.78 4.53-2.41 4.87.06-1.79.83-3.46 1.92-4.86z"/>
    <path fill="#cb282c" d="M34.9 61.1c2.63-1.5 5.41-2.74 8.29-3.67.44 4.24 2.34 8.14 5.14 11.33-2.83.43-5.65.99-8.41 1.79.57-.99 1.13-1.99 1.7-2.98-2.59-1.05-5.12-2.24-7.56-3.6.28-.95.56-1.91.84-2.87z"/>
    <path fill="#b52c29" d="M106.56 61.19l.28.05-.13.38c-.04-.11-.12-.32-.15-.43z"/>
    <path fill="#22090a" opacity=".59" d="M110.48 65.34c1.46.43-.72 2.13-1.52 1.91-.68-.1-2.06-.31-2.75-.41.12-.17.37-.53.5-.7 1.2-.49 2.46-.75 3.77-.8z"/>
    <path fill="#28080b" opacity=".59" d="M106.01 69.18l.71-.4c1.85 0 3.69.19 5.53.36-1.12.65-2.25 1.28-3.38 1.91l.62 1.24c-.76-.1-2.28-.29-3.04-.39.36-.47 1.09-1.41 1.45-1.88-.47-.21-1.41-.63-1.89-.84z"/>
    <path fill="#0c0304" opacity=".45" d="M109.49 72.29c2.96.28-.47 2.99-1.98 2.44-.49-.4-.95-.83-1.38-1.29 1.1-.44 2.22-.82 3.36-1.15z"/>
    <path fill="#2e090b" opacity=".61" d="M72.11 73.29c1.59-.39 2.76 2.02 2.64 3.37-1.47.24-3.4-1.91-2.64-3.37z"/>
    <path fill="#681717" opacity=".86" d="M85.08 74.91l.84-1.88.46.8-.43.95-.87.13z"/>
    <path fill="#0c0302" opacity=".31" d="M104.75 74.77c1.58.78 3.15 1.59 4.73 2.37-.45.44-1.36 1.34-1.82 1.79-.48-.37-1.43-1.12-1.91-1.49-.08-.06-.24-.19-.32-.25-.17-.6-.51-1.81-.68-2.42z"/>
    <path fill="#320b0d" opacity=".65" d="M102.43 76.22c.75.24 2.25.73 3 .97l.15.11.17.14c.48.37 1.43 1.12 1.91 1.49 1.42.97 2.08 2.56 2.51 4.15-1.94-1.47-3.7-3.26-6.04-4.13-.58-.9-1.14-1.82-1.7-2.73z"/>
    <path fill="#410e10" opacity=".7" d="M99.06 77.49c.58 0 1.75.01 2.33.01h.25l.25.39c.49 2.38 1.05 4.75 1.56 7.13.17 1.08.24 2.16.22 3.26-1.2-2.86-2.2-5.79-3.25-8.69l-.44 1.14c-.62 1.64-1.25 3.27-1.83 4.93-.15-1.51-.24-3.01-.27-4.52.01-.42.04-1.24.05-1.66.28-.5.85-1.49 1.13-1.99z"/>
    <path opacity=".56" d="M101.45 77.23c.05.07.14.21.19.27h-.25l.06-.27z"/>
    <path fill="#942021" d="M105.43 77.19c.08.06.24.19.32.25l-.17-.14-.15-.11z"/>
    <path opacity=".16" d="M101.89 77.89c1.03 1.43 2.07 2.86 3.04 4.35l.05.36-.4.64c-.28.45-.84 1.33-1.13 1.78-.51-2.38-1.07-4.75-1.56-7.13z"/>
    <path fill="#0f0404" opacity=".42" d="M98.15 85.66c.58-1.66 1.21-3.29 1.83-4.93.1 3.82.08 7.67-.45 11.46-1.32-1.89-1.81-4.28-1.38-6.53z"/>
    <path fill="#3a0d0e" opacity=".69" d="M64.2 84.43c1.98-.68 2.91 3.64 1.22 4.22-1.03-.99-1.92-2.83-1.22-4.22z"/>
    <path fill="#120505" opacity=".51" d="M105.82 84.44c.63-1.28 3.09-.09 1.97 1.17l-1.97-1.17z"/>
    <path fill="#2c090a" opacity=".53" d="M29.24 86.4c.87-.56 1.72-1.14 2.58-1.71-.49 2.17-.96 4.34-1.64 6.46.36-1.75 1.08-3.74-.94-4.75z"/>
    <path fill="#360c0d" opacity=".56" d="M77.93 84.68c.33.38.99 1.16 1.32 1.55 1.17 1.28 1.89 2.88 2.59 4.46-1.6-.91-3.22-1.9-5.11-2.02l2.2-.84c-.34-1.05-.67-2.1-1-3.15z"/>
    <path fill="#751919" opacity=".93" d="M33.21 90.01c.43-1.43 1.02-1.5 1.76-.21-.44.05-1.32.16-1.76.21z"/>
    <path fill="#100405" opacity=".37" d="M38.45 92.2c.84-.85 1.68-1.69 2.53-2.53.03 2.64.03 5.29.02 7.93-.3-1.71-.61-3.41-.91-5.12-1.04.53-2.08 1.06-3.11 1.59v-2.72c.37.21 1.1.64 1.47.85z"/>
    <path fill="#440f0c" opacity=".7" d="M60.94 95.54c.58-.7 1.27-1.24 2.09-1.61.17.49.51 1.47.68 1.97l-2.77-.36z"/>
</svg>
