<svg width="128pt" height="128pt" viewBox="0 0 128 128" xmlns="http://www.w3.org/2000/svg">
    <g fill="#fff">
        <path d="M48.13 27.79c10.6-1.18 22.25-.25 30.94 6.57 1.41 5.22-1.04 10.28-1.17 15.45 2.72 2.77 6.56 4.24 8.81 7.51 2.38 3.51 5.55 6.36 8.29 9.58 1.97.63 4.07.01 6.09.01.87 1.97.59 4-.39 5.87-6.09 1.09-11.28 4.97-15.54 9.28 2.3-5.28 4.1-11.41 2.02-17.06-1.98-5-6.25-8.51-9.95-12.23-2.12-1.96-3.33-4.64-5.24-6.78-5.67-1.42-11.66.34-16.5 3.36-3.13 2.15-6.42 5.58-5.4 9.74 1.41 4.62 3.66 9.22 7.62 12.19.74.63 1.47 1.28 2.19 1.94-5.15-2.15-10.23-5.46-12.65-10.68-1.41-2.57-1.32-5.56-1.51-8.39-8.87 2.45-19.19 8.02-20.01 18.27-3.46-5.69-3.77-13.17-1.15-19.24-.51-1.84-2.2-3.69-1.35-5.68.72-1.59.86-3.32.83-5.05 6.81-3.49 10.69-10.53 17.2-14.42 2.3.29 4.6.11 6.87-.24M41 34.4c-.32 2.26-.07 4.5 1.06 6.51 2.02 1.1 4.38 2.24 6.68 1.2 3.29-1.03 3.97-4.93 3.32-7.9-1.44-1.29-2.73-3.38-4.92-3.24-2.69-.56-4.58 1.63-6.14 3.43m-15.71 9.3c-.53 2.34-1.24 5.47 1.77 6.36 2.45-1.72-.78-4.58-1.77-6.36zM32.21 29.3c1.14.02 2.28.02 3.42.01-2.4 2.43-4.72 4.93-7.09 7.39.99-2.58 2.33-4.99 3.67-7.4z"/>
    </g>
</svg>
