<svg width="128pt" height="128pt" viewBox="0 0 128 128" xmlns="http://www.w3.org/2000/svg">
    <g fill="#fff">
        <path d="M15.98 42.96c1.47-7.8 8.63-15.27 17.01-14.54 5.23.29 10.67 3.31 12.47 8.44 1.99 5.73 1.92 11.94 1.33 17.91-2.06 2.34-4.53 4.31-6.74 6.51 2.87-7.83 5.74-16.72 2.87-24.95-2.09-3.51-5.68-6.38-9.92-6.4-8.12-.82-14.67 6.75-15.93 14.2.64 3.8 5 4.46 7.85 6 2.61 1.02 4.3 3.43 5.13 6.02-1.7-2.35-3.56-4.75-6.46-5.64-3.3-1.33-8.1-3.16-7.61-7.55zM50.38 54.66c4.82-1.69 9.35-4.62 14.62-4.69 6.36-.29 13.4 3.31 15.17 9.78.79 2.81 3.06 4.86 6.03 4.98 1.17 2.59 4.06-.4 5.74 1.21 2.5 1.85 5.06 3.62 7.43 5.64-7.12-.85-14.96 1.66-19.13 7.75-3.71 5.56-8.64 11.27-15.79 11.85.28-3.05 2.67-5.08 5.13-6.51 1.65-3.31 3.46-6.54 5.18-9.81 2.86-4.48 8.23-6.19 12.19-9.2-1.63.26-3.13.91-4.64 1.53-2.55 1.65-5.24 3.16-7.31 5.43 1.35-10.41-8.87-19.87-19.06-18.63-2.04-.11-3.78 1.16-5.7 1.52.03-.21.11-.64.14-.85z"/>
        <path d="M40.59 61.41c6.66-3.16 13.89-6.78 21.47-5.37 8.5 2.86 14.9 13.13 10.58 21.77-.98-2.93-1.86-6.28-4.67-8.03 2.74 3.37 3.92 7.7 2.89 11.97-1.2-1.88-1.04-4.31-1.98-6.34-.94-1.13-1.84-2.3-2.79-3.42 2.09 3.57 3.97 7.59 2.84 11.83-1.66 1.71-4.05 2.91-4.84 5.3-.39 2.32.54 5-1.08 6.98-1.15 1.65-3.38.93-5.02.76 1.73-10.83-3.92-21.1-11.23-28.63-2.05-2.29-4.57-4.17-6.17-6.82m12.35 6.79l.16 2.5c.53.38 1.6 1.14 2.13 1.52 1.71-.77 3.4-3.19 1.31-4.58-1.16-1.37-2.45-.06-3.6.56z"/>
        <path d="M38.36 61.77c7.23 6.21 13.89 13.65 17.35 22.66.88 1.19-.04 2.48-.31 3.67-4.55-8.56-11.23-16.87-20.58-20.34 1.16-2.01 2.36-4 3.54-5.99zM31.16 89.47c6.59-3.9 14.76-3.49 22.14-3.08 1.58 2.19 3.09 4.44 4.3 6.85-4.6-2.06-9.57-3.03-14.55-3.72-3.46-.22-7.34-.18-10.18 2.12-.43-.54-1.28-1.63-1.71-2.17z"/>
        <path d="M38.32 91.39c2.59-1.72 5.82-1.09 8.68-.63 2.49.46 5.22.72 7.2 2.49-3.21.9-6.73 3.38-10.08 1.63-1.97-1.11-3.77-2.49-5.8-3.49z"/>
    </g>
</svg>
