<svg width="128pt" height="128pt" viewBox="0 0 128 128" xmlns="http://www.w3.org/2000/svg">
    <g fill="#fff">
        <path d="M75.69 39.96c.28.26.84.77 1.11 1.03 1.65 3.08-1.21 6.15.19 9.07.74-.02 2.22-.07 2.96-.09.01.68.01 2.04.02 2.72.52.36 1.58 1.09 2.11 1.45-.78 1.26-.88 2.67-.65 4.09-2.26-6.63-9.44-9.84-16.07-9.4 3.76-.98 7.22-2.96 9.58-6.11.19-.69.56-2.07.75-2.76zM99.01 59.08c4.65-.22 9.6-1.05 13.2-4.25-1.25 2.92-3.57 4.87-6.27 6.36.22 2.69-1.96 4.72-1.83 7.37-.92.84-1.78 1.73-2.56 2.7-3.34-2.91-7.06-5.33-10.39-8.23-1.61.35-3.23.68-4.85.99 3.51-3.05 8.07-4.77 12.7-4.94zM30.69 87.71c-2.82-5.78-3.24-12.97-.12-18.72-1.4 5.87-.83 12.73 3.6 17.23-.56-2.94-.17-5.86 1.49-8.36-.63 2.67-.35 5.6 1.49 7.77-.74-4.53-.31-9.48 2.96-12.99-.98 3.93-2.18 8.54.68 12.01.13-1.07.39-3.22.53-4.29.9 1.5 1.58 3.13 2.52 4.62-4.54-.21-8.97 1.1-13.15 2.73z"/>
        <path d="M34.27 69.46c1.14.28 2.27.56 3.4.86-2.52 1.22-3.65 3.77-4.53 6.26-.09-2.43.43-4.81 1.13-7.12zM89.88 73.81c2.98-.81 6.12-.69 9.11-1.45-.78.91-1.55 1.82-2.31 2.74-2.36.18-4.7-.22-6.8-1.29zM41.74 73.12c2.34 1.31 4.6 3.13 5.53 5.73-.45.27-1.36.81-1.81 1.08-.02-.83-.07-2.5-.09-3.33l-1.16.63-.8 2.57c-.03-1.5-.24-3.01-1.06-4.3-.43.77-1.29 2.32-1.73 3.09-.86-.08.1-1.61.18-2.17.23-.82.7-2.47.94-3.3z"/>
    </g>
    <path fill="#fcfcfc" d="M27 59.03c.31-2.18 2.21-2.24 4-2.18.48 1.43.45 2.84-.11 4.24-1.73.07-3.48 0-3.89-2.06z"/>
</svg>
