<svg width="128pt" height="128pt" viewBox="0 0 128 128" xmlns="http://www.w3.org/2000/svg">
    <path fill="#6b1518" d="M40.62 27.31c11.44-7.44 26.47-9.44 39.3-4.55 6.63 2.33 12.06 6.87 17.68 10.92-2.26 1.52-4.7 2.73-7.09 4.02-.42-.5-.82-1.01-1.21-1.52-2-2.59-4.31-5.43-7.74-5.98-5.75-4.33-13.75-2.9-20.37-1.69-5.07-1.31-10.32-1.3-15.38-.03-1.74-.36-3.46-.81-5.19-1.17z"/>
    <g fill="#7b1821">
        <path d="M25.1 25.17c1 2.74 1.43 5.64 1.97 8.49.37-.55 1.1-1.65 1.47-2.2.36 1.37.74 2.74 1.12 4.1-1.49 1.6-2.96 3.22-4.3 4.96-.8-1.61-1.61-3.21-2.43-4.8.83-3.49 1.47-7.03 2.17-10.55zM73.31 84.65c2.39-.98 4.74-2.04 7.06-3.17l3.31.92c-4.08 2.65-8.86 4.2-13.68 4.71-3.09-.02-6.19-.14-9.28-.17.26-.34.8-1.03 1.07-1.37 3.78-1.21 7.81.59 11.52-.92z"/>
    </g>
    <path fill="#621415" d="M32.08 34.19c2.55-2.61 5.25-5.22 8.54-6.88 1.73.36 3.45.81 5.19 1.17l.79.17c-3.37 1.24-7.42 2.49-8.83 6.18-1.92 4.93.25 10.28 3.72 13.93-1.93 1.57-4.38 2.12-6.74 2.65-.15-1.79 1.46-4.15-.61-5.37-3.72-2.7-1.07-7.64-2.03-11.46l-.03-.39z"/>
    <path fill="#841b1e" d="M39.87 32.86c8.71-7.23 22.76-5.79 30.31 2.43-.94 2.88-4.18 2.14-6.51 1.86-.39-.07-1.18-.22-1.57-.29-.82.88-1.65 1.76-2.47 2.64-1.54-.92-3.07-1.86-4.61-2.78-1.23.53-2.45 1.05-3.7 1.52-2.02 1.34-3.52 3.24-4.84 5.24-2.48-.06-4.96-.02-7.41.34l-.18.02c-1.14-3.53-1.98-8.08.98-10.98z"/>
    <path fill="#89181e" d="M62.05 29.5c2.64-1.85 5.93-1.5 8.97-1.54 2.71.04 5.57-.01 8.05 1.3-.8 1.97-3.69 1.79-5.43 2.6-4.13 1.48-7.81-1.17-11.59-2.36z"/>
    <path fill="#270909" opacity=".6" d="M28.36 30.8c1.6.99 2.81 2.41 3.31 4.26-2.32 2.5-4.44 5.17-6.44 7.92.95-.26 2.83-.78 3.78-1.04.49.3 1.49.89 1.98 1.19.12 1.56.88 3.27-.25 4.64-.41.3-1.23.91-1.64 1.21-1.85-1.11-4.44-1.76-5.16-4.07-.3-1.63.67-3.05 1.42-4.39 1.34-1.74 2.81-3.36 4.3-4.96-.38-1.36-.76-2.73-1.12-4.1l-.18-.66m-2.9 13.59c.57.87 1.13 1.74 1.69 2.61h2.9c.05-1.37.02-2.73-.08-4.09-1.67-.03-3.22.38-4.51 1.48z"/>
    <g fill="#521010">
        <path d="M97.6 33.68l.22-.15c4.75 3.7 10.71 5.9 14.76 10.38-4.94 2.31-8.98-2.28-12.63-4.92 1.54 1.87 3.44 3.41 4.96 5.31-4.25-.07-5.91-4.33-9.01-6.43 1.35 1.75 2.72 3.48 3.97 5.3-1.77-.45-3.31-1.26-4.6-2.46-1.1-1.17-2.25-2.51-4.05-2.27-.18-.19-.54-.56-.71-.74 2.39-1.29 4.83-2.5 7.09-4.02zM45.02 72.93c.2-.4.61-1.2.81-1.6.44 1.24.86 2.48 1.27 3.72.18 1.54 1.43 2.51 2.84 2.9 3.19 1.59 6.35 3.48 9.99 3.82 3.19.69 6.52-.14 9.66.61.8.38 1.59.77 2.37 1.17-1.31-.01-2.62-.05-3.92-.08-1.54-.99-3.95-1.7-4.99.35-.98 1.97-3.77 1.4-4.71-.27-2.87-3.12-7.67-2.55-11.18-4.62-.87-1.94-1.47-3.98-2.14-6zM59.93 86.93l.79.01c3.09.03 6.19.15 9.28.17-3.33.55-6.76.49-10.07-.18z"/>
    </g>
    <path fill="#761d21" d="M31.67 35.06l.44-.48c.96 3.82-1.69 8.76 2.03 11.46-.68.11-2.05.33-2.73.45l3.68 1.04c-2.07-.25-3.53 2.59-5.27 1.82l-.72-.37c.41-.3 1.23-.91 1.64-1.21 1.13-1.37.37-3.08.25-4.64-.49-.3-1.49-.89-1.98-1.19-.95.26-2.83.78-3.78 1.04 2-2.75 4.12-5.42 6.44-7.92z"/>
    <path fill="#891d23" opacity=".97" d="M69.2 33.33c4.97 3.38 13.45 3.23 15.47 9.86-1.89-.86-4.94-.45-6.02-2.4l-.32-.71-1.53.32-.43.24c-.95-2.14-2.85-3.39-4.9-4.33-.57-.75-1.71-2.23-2.27-2.98z"/>
    <path fill="#942029" d="M22.93 35.72c.82 1.59 1.63 3.19 2.43 4.8-.75 1.34-1.72 2.76-1.42 4.39.72 2.31 3.31 2.96 5.16 4.07-3.25-.19-5.69 2.23-8.08 4.06-.3-.71-.58-1.43-.86-2.15l-.04-.59c.64-2.8 1.28-5.6 1.7-8.45.14-.46.41-1.39.54-1.85.73-.81.99-1.73.77-2.75l-.2-1.53z"/>
    <path fill="#170506" opacity=".58" d="M89.3 36.18c.39.51.79 1.02 1.21 1.52.17.18.53.55.71.74 1.8-.24 2.95 1.1 4.05 2.27l-.05 1.42c-1.39-.7-2.75-1.44-4.09-2.22l-.28 3.39c-3-.95-1.56-4.81-1.55-7.12z"/>
    <path fill="#2f090a" opacity=".62" d="M22.36 40c-1.1-1.48-.85-2.4.77-2.75.22 1.02-.04 1.94-.77 2.75z"/>
    <path fill="#a52126" d="M51.32 38.24c1.25-.47 2.47-.99 3.7-1.52 1.54.92 3.07 1.86 4.61 2.78.82-.88 1.65-1.76 2.47-2.64.39.07 1.18.22 1.57.29 1.39.51 2.74 1.17 3.92 2.08 1.41.98 1.51 3.25 3.44 3.61-1.62 3.46-5.8 4.36-9.24 3.58 2.63 1.22 5.05 2.91 6.75 5.29-3.42 3.01-8.29 3.18-12.29 1.26.29 2.33-2.14 3.87-4.23 3.67-2.39-.51-4.03-2.43-5.63-4.11-2.52-2.84-5.54-5.29-7.32-8.71 2.45-.36 4.93-.4 7.41-.34 1.32-2 2.82-3.9 4.84-5.24z"/>
    <path fill="#b9262d" d="M68.81 39.27c.67-.74 2-2.22 2.66-2.96 2.05.94 3.95 2.19 4.9 4.33-1.55-.4-3.18-.66-4.52-1.59-.76.05-2.28.16-3.04.22z"/>
    <path fill="#84191b" d="M72.04 43.74c-.61-1.38-2.23-2.74-1.38-4.34 4.42 1.57 8.95 2.84 13.42 4.28 3.37 1 5.12 4.76 5.11 8.06-3.26-.44-6.46-1.18-9.67-1.86l-.11-.22c-.96-3.49-4.33-4.77-7.37-5.92z"/>
    <path fill="#d62829" d="M76.8 40.4l1.53-.32.32.71c-.41.08-1.22.25-1.63.33l-.22-.72z"/>
    <path fill="#230808" opacity=".48" d="M20.12 50.3c.17-2.87.4-5.83 1.7-8.45-.42 2.85-1.06 5.65-1.7 8.45z"/>
    <path fill="#b3262c" d="M25.46 44.39c1.29-1.1 2.84-1.51 4.51-1.48.1 1.36.13 2.72.08 4.09h-2.9c-.56-.87-1.12-1.74-1.69-2.61z"/>
    <g fill="#c62829">
        <path d="M72.04 43.74c3.04 1.15 6.41 2.43 7.37 5.92-4.14-.59-8.23-1.46-12.39-1.92 1.94-.97 3.68-2.27 5.02-4zM40.98 75.73c-3.91-4.06-5.15-12.17.89-14.91 3.18-.6 2.63 3.38 1.82 5.23-.75 1.58-.65 3.31-.28 4.98-.98-.38-1.97-.76-2.96-1.13 1.05 3.74 3.51 6.78 5.98 9.69-.37.47-1.11 1.39-1.49 1.86-1.69-1.64-3.39-3.27-5.09-4.9.28-.2.85-.62 1.13-.82zM23.57 93.14c3.25-.76 5.13 2.42 7.47 4.03 3.44 2.99 7.73 4.62 11.76 6.62l.12.88-.46.36c-4.27-.89-8.75-3.27-12.17-6.14-.52-.92-1.29-1.51-2.32-1.78-1.78-.91-3-2.59-4.4-3.97zM44.94 105.05c1.26-1.14 3.44.3 5.01.2.45.48 1.33 1.44 1.78 1.93-2.19-.62-5.33 0-6.95-1.54l.16-.59z"/>
    </g>
    <path fill="#6b1818" d="M95.05 44.9c2.4 1.6 4.78 3.23 7.13 4.9 1.24 5.97 1.61 12.09 1.53 18.18-1.35-1.24-2.69-2.48-4.04-3.72-.22-6.69-2.08-13.2-4.62-19.36z"/>
    <path fill="#6e1310" d="M92.82 46.67c1.51 2.08 2.95 4.21 4.37 6.35-.01 2.04-.02 4.07-.01 6.1-1.31-1.84-2.71-3.61-4.29-5.22-.06-2.41-.07-4.82-.07-7.23z"/>
    <path fill="#1c0607" opacity=".55" d="M21.02 53.04c2.39-1.83 4.83-4.25 8.08-4.06l.72.37c-4.1.99-7.01 4.27-10.93 5.63.05 1.61.14 3.23.6 4.78l.11.47c-.72.55-1.44 1.1-2.17 1.65.54-3.74 1.17-7.52 2.73-10.99.28.72.56 1.44.86 2.15z"/>
    <path fill="#a32627" opacity=".94" d="M33.05 48.31c.65 1 1.5 2.07 1.08 3.37-1.65.27-3.31.54-4.96.8.97-1.72 3.3-2.19 3.88-4.17z"/>
    <path fill="#841b1b" d="M66.66 48.27c7.16 1.03 14.18 2.76 21.25 4.22-.46 1.65-.92 3.31-1.36 4.96-.81-.07-1.62-.15-2.42-.24-4.94-1.26-9.83-2.93-14.32-5.36-1.17-1.08-2.1-2.39-3.15-3.58z"/>
    <path fill="#4e1011" opacity=".98" d="M18.89 54.98c3.92-1.36 6.83-4.64 10.93-5.63l.79 1.01c-3.28 3.64-8.19 5.33-11.12 9.4-.46-1.55-.55-3.17-.6-4.78z"/>
    <g fill="#bd2431">
        <path d="M64.48 55.12c1.85-.96 3.67-2 5.33-3.27 4.49 2.43 9.38 4.1 14.32 5.36.12.61.35 1.83.47 2.44-6.74-1.32-13.4-3.06-20.12-4.53zM73.79 81.14c4.58-1.1 8.56-3.76 11.78-7.14-2.57 4.64-7.09 7.89-12.08 9.52.11-.8.21-1.59.3-2.38zM63.05 83.82c1.04-2.05 3.45-1.34 4.99-.35-1.62.43-3.34.85-4.99.35z"/>
    </g>
    <path fill="#9a1f1e" d="M87.91 52.49c3.85 1.72 7.31 5.14 7.36 9.62-3.55-.64-7.04-1.57-10.6-2.14l-.07-.32c-.12-.61-.35-1.83-.47-2.44.8.09 1.61.17 2.42.24.44-1.65.9-3.31 1.36-4.96z"/>
    <path fill="#811b18" d="M56.23 55.49l1.33-.83c8.27 1.58 16.42 3.77 24.55 5.93-.97.5-1.88 1.13-2.91 1.5-3.34-.45-6.66-1.15-10.04-1.23-3.18-1.71-7.16-1.44-10.05-3.9-.92-.56-1.88-1.05-2.88-1.47z"/>
    <g fill="#b52429">
        <path d="M51.61 58.21c1.4-.37 2.79-.8 4.14-1.32 1.33 2.03 2.25 4.28 2.45 6.72-2.38-1.56-4.54-3.42-6.59-5.4zM16.44 80.22c1.96.1 3.92.23 5.88.22.66-.15 1.97-.46 2.63-.62.24 2.49 1.13 4.81 2.08 7.09.26 1 .83 1.78 1.72 2.34 4.32 5.08 10.18 8.29 16.2 10.92.49.19 1.47.58 1.95.78.48.05 1.45.17 1.93.23 7.64 2.31 15.9 2.38 23.51-.1 6.54-1.92 12.89-5.04 17.44-10.25-4.95 8.24-14.29 12.12-23.34 13.88-13.63 1.49-28.82-1.26-38.65-11.54-3.21-3.07-4.21-7.59-7-10.94.74 3.19 2.34 6.08 4.19 8.76l-.78 1c-2.13-.5-3.35-2.33-4.62-3.9.31-.47.92-1.41 1.23-1.88-.37-.06-1.11-.17-1.48-.23-.83-.55-1.52-1.25-2.08-2.09.3-1.34.04-2.56-.81-3.67z"/>
        <path d="M52.07 83.32c3.33.33 6.17 3.27 9.72 2.25-.27.34-.81 1.03-1.07 1.37l-.79-.01c-3.18-.22-6.27-1.07-9.28-2.1l1.42-1.51z"/>
    </g>
    <path fill="#ca292e" d="M55.9 56.5c.81.11 2.41.35 3.21.46 2.89 2.46 6.87 2.19 10.05 3.9-.21.19-.61.58-.82.78-4.67-.02-10-.42-12.44-5.14z"/>
    <g fill="#a5211e">
        <path d="M69.16 60.86c3.38.08 6.7.78 10.04 1.23 1.03-.37 1.94-1 2.91-1.5 5.55 1.46 11.2 2.68 16.63 4.51 3.15 2.46 5.1 6.09 6.46 9.78-10.69-5.59-22.03-10.09-33.91-12.38-1.24.03-1.95-.52-2.13-1.64zM16.44 80.22c-.3-3.38-.91-8.08 2.61-10.02 3.43-.33 5.27 2.96 6.09 5.77-.83 1.55-1.75 3.06-2.82 4.47-1.96.01-3.92-.12-5.88-.22z"/>
    </g>
    <path fill="#a5201e" d="M43.41 71.03c-.37-1.67-.47-3.4.28-4.98 1.08 1.81 1.09 3.86.17 5.76.49-.12 1.47-.36 1.97-.48-.2.4-.61 1.2-.81 1.6.67 2.02 1.27 4.06 2.14 6 3.51 2.07 8.31 1.5 11.18 4.62.94 1.67 3.73 2.24 4.71.27 1.65.5 3.37.08 4.99-.35 1.3.03 2.61.07 3.92.08-.78-.4-1.57-.79-2.37-1.17 1.35-.57 2.77-.96 4.2-1.24-.09.79-.19 1.58-.3 2.38l-.18 1.13c-3.71 1.51-7.74-.29-11.52.92-3.55 1.02-6.39-1.92-9.72-2.25-.73.18-2.18.55-2.9.73-1.44-.83-2.84-1.7-4.23-2.6.38-.47 1.12-1.39 1.49-1.86-2.47-2.91-4.93-5.95-5.98-9.69.99.37 1.98.75 2.96 1.13z"/>
    <path fill="#681310" d="M90.12 69.82c1.32.43 2.64.85 3.96 1.28-2.55 4.44-5.85 8.82-10.4 11.3l-3.31-.92c.34-.18 1.04-.54 1.38-.72 2.33-2.25 4.88-4.39 6.5-7.26.67-1.2 1.26-2.45 1.87-3.68z"/>
    <path fill="#120404" opacity=".41" d="M85.77 73.64c.62-.03 1.86-.1 2.48-.14-1.62 2.87-4.17 5.01-6.5 7.26-.34.18-1.04.54-1.38.72-2.32 1.13-4.67 2.19-7.06 3.17l.18-1.13C78.48 81.89 83 78.64 85.57 74l.2-.36z"/>
    <path fill="#5d1510" d="M99.04 73.64l3.75 1.38c-.99 4.51-2.26 8.99-4.46 13.07l-3.42-.99c2.12-4.21 3.8-8.71 4.13-13.46z"/>
    <path fill="#3c0d0e" opacity=".58" d="M47.1 75.05c1.42-.71 3.53 1.48 2.84 2.9-1.41-.39-2.66-1.36-2.84-2.9z"/>
    <path fill="#3b0d0e" opacity=".63" d="M20.79 82.23c2.79 3.35 3.79 7.87 7 10.94 9.83 10.28 25.02 13.03 38.65 11.54 9.05-1.76 18.39-5.64 23.34-13.88l.6-.84c.33.54 1 1.62 1.33 2.16l.19.35c-4.45 5.04-10.16 8.89-16.44 11.25-7.11 2.78-14.77 2.41-22.24 2.4 4.01 2.64 9.37.53 13.93 1-4.85 1.41-9.92.7-14.88.6-.14-.14-.41-.43-.54-.57-.45-.49-1.33-1.45-1.78-1.93-1.57.1-3.75-1.34-5.01-.2l-.16.59c-.73-.03-2.18-.1-2.91-.13l.59-.48.46-.36-.12-.88c-4.03-2-8.32-3.63-11.76-6.62-2.34-1.61-4.22-4.79-7.47-4.03h-.23c.22-.29.65-.86.86-1.15l.78-1c-1.85-2.68-3.45-5.57-4.19-8.76z"/>
    <path fill="#400d0e" opacity=".71" d="M19.33 85.98c.37.06 1.11.17 1.48.23-.31.47-.92 1.41-1.23 1.88l-.65-.4.4-1.71z"/>
    <path fill="#0d0304" opacity=".4" d="M27.03 86.91c1.76-.17 2.33.61 1.72 2.34-.89-.56-1.46-1.34-1.72-2.34z"/>
    <path fill="#7b1818" d="M94.91 87.1l3.42.99c-4.36 8.15-12.05 14.27-20.88 16.89-.5-.3-1.49-.92-1.99-1.23 6.28-2.36 11.99-6.21 16.44-11.25l-.19-.35c1.03-1.71 2.12-3.37 3.2-5.05z"/>
    <path fill="#300b0c" opacity=".53" d="M27.97 97.11c1.03.27 1.8.86 2.32 1.78-1.65.6-2.42.01-2.32-1.78z"/>
    <path fill="#601715" opacity=".8" d="M44.95 100.17l.79-.51 1 .4.16.89c-.48-.2-1.46-.59-1.95-.78z"/>
    <path fill="#2e0a0b" opacity=".52" d="M48.83 101.18c7.78 1.16 15.75 1.25 23.51-.1-7.61 2.48-15.87 2.41-23.51.1z"/>
    <path fill="#8f1e24" opacity=".98" d="M53.22 106.15c7.47.01 15.13.38 22.24-2.4.5.31 1.49.93 1.99 1.23l-1.43.22c-2.05.2-4.09.6-5.99 1.42-.72.13-2.16.39-2.88.53-4.56-.47-9.92 1.64-13.93-1z"/>
    <path fill="#27080b" opacity=".49" d="M70.03 106.62c1.9-.82 3.94-1.22 5.99-1.42-.37 2.08-4.42 2.76-5.99 1.42z"/>
</svg>
