<svg width="128pt" height="128pt" viewBox="0 0 128 128" xmlns="http://www.w3.org/2000/svg">
    <g fill="#fff">
        <path d="M61.92 29.34c3.78-1.97 8.1-1.3 12.18-1.29 3.06.47 6.22 1.07 8.9 2.72-1.3-.09-2.61-.26-3.74-.95-3.28 1.23-6.66 2.71-10.26 2.25-2.39-.81-4.67-1.96-7.08-2.73zM69.64 33.58c5.15 3.1 12.25 3.64 15.38 9.4-5.55-.72-10.72-4.19-16.32-3.62.88-1.03 1.71-2.1 2.49-3.22-.39-.64-1.16-1.92-1.55-2.56zM69.39 39.55c4.92 1.19 9.74 2.74 14.56 4.26 3.47.78 4.84 4.68 5.26 7.81-7.5-.94-14.85-3.89-22.45-3.4 2.02-1.27 3.96-2.69 5.49-4.54-.9-1.42-1.86-2.79-2.86-4.13zM26.94 42.94c.78.04 2.34.14 3.12.19.57 1.35.4 2.76-.12 4.1-1.46-.12-3.1-.06-4.01-1.44.22-.99.55-1.94 1.01-2.85zM95.34 45.2c2.14 1.6 4.54 2.87 6.51 4.7 1.71 5.8 1.48 11.95 1.68 17.93-1.49-1.77-4.09-3.09-3.89-5.74-.47-5.83-2.08-11.5-4.3-16.89zM34.63 47.31c.1 1.51-.6 2.9-.91 4.34-1.56.25-3.11.51-4.66.76 1.83-1.75 4.25-2.86 5.57-5.1zM93 53.83c-.01-2.33-.02-4.66.11-6.99 1.18 2.1 2.43 4.17 3.88 6.1.01 1.89.01 3.77.01 5.66-1.26-1.65-2.56-3.27-4-4.77zM67.38 48.66c6.42.77 12.74 2.18 19.02 3.7 4.63.78 8.43 4.99 8.84 9.67-10.14-2.26-20.3-4.43-30.35-7.05 1.35-.71 2.77-1.32 3.99-2.25 1.67-1.43-.98-2.83-1.5-4.07zM55.89 56.27c1.59-2.28 4.14-.99 6.29-.56 12.26 2.85 24.43 6.07 36.59 9.34 2.89 2.69 4.89 6.12 6.39 9.73C91.45 67.52 76.5 62.33 61 60.81c-2.27-.69-3.58-2.89-5.11-4.54zM51.68 58.34c1.41-.38 2.8-.82 4.17-1.34 1.09 2.07 2.12 4.22 2.4 6.59-2.3-1.61-4.44-3.43-6.57-5.25zM41.28 60.94c.71.06 2.12.17 2.83.23.02 1.92-.08 3.84-.21 5.76.31.61.93 1.82 1.23 2.42-.42-.45-1.26-1.33-1.68-1.78l-.56-.01c.48 1.55.98 3.09 1.41 4.65l1.02-.92c2.59 6.79 9.79 10.69 16.81 10.89 6.6.7 13.46-.57 19.04-4.25 1.27-1.13 2.21-2.77 4.02-3.1-2.22 3.51-5.62 6.08-9.31 7.91-1.8.41-3.64 1.88-5.44.72-3.18 2.64-7.75.45-11.5.55-4.1-1.15-8.25-2.64-11.4-5.63-2.83-2.26-4.39-5.57-6.52-8.4 1.81 5.18 5.92 9.31 10.62 11.98.47 1.28-1.51 1.51-2 2.28-3.99-2.02-7.33-5.03-10.16-8.46 5.4 2.95.59-.77-.05-2.19-1-2.35-2.3-4.94-1.62-7.56.34-2.14 2.14-3.53 3.47-5.09z"/>
        <path d="M18.07 70.93c3.16-2.26 6.43 2 6.89 4.93-.72 1.78-1.77 3.4-2.71 5.06.63-.28 1.88-.83 2.51-1.1 1.02 8.44 8.02 14.61 15.27 18.14 16.04 7.95 37.47 6 50.21-7.18-4.3 7.44-12.62 11.52-20.74 13.34-.18.18-.54.55-.71.73 2.91.45 5.98-1.21 8.8-2.22 11.73-4.81 20.43-16.21 21.62-28.88 1.11.5 2.21 1.03 3.32 1.55-1.8 10.04-7.08 19.87-15.96 25.3-10.02 6.32-22.45 7.59-34.03 6.63-10.99-.87-21.7-5.96-28.99-14.29 4.23-.66 6.52 3.87 9.78 5.81 5.84 4.22 13 5.4 19.67 7.6 4.55-.61 9.15 0 13.71-.43.08-.19.22-.56.29-.74-5.06-.35-10.18.36-15.26-.26-9.35-1.75-18.74-5.55-25.16-12.83-2.1-3.03-3.77-6.32-5.5-9.57.56 3.85 2.6 7.07 5.29 9.81-3.3-.33-5.71-2.33-7.35-5.08.41-.12 1.24-.37 1.66-.49-1.49-.79-2.69-1.95-3.82-3.18.23-.2.7-.6.94-.8-2.14-3.5-2.39-8.59.27-11.85z"/>
        <path d="M90.29 69.94c1.21.46 2.41.91 3.63 1.33-2.38 4.08-5.47 7.73-9.27 10.57-7.42 4.76-16.52 6.32-25.19 5 .05-.47.13-1.4.17-1.87 6.08.69 12.49.64 18.07-2.2 5.58-2.58 9.99-7.3 12.59-12.83z"/>
    </g>
    <path fill="#fcfcfc" d="M53.17 83.02c2.64.26 5.36 1.22 6.35 3.98-3.05-.64-6.13-1.17-9.02-2.37.87-.57 1.76-1.11 2.67-1.61z"/>
</svg>
