<svg width="128pt" height="128pt" viewBox="0 0 128 128" xmlns="http://www.w3.org/2000/svg">
    <g fill="#fff">
        <path d="M29.86 36.82c8.94-10.86 23.11-17.19 37.17-16.54 9.65.22 18.86 4.42 26.24 10.47 5.57 3.82 11.33 7.36 17.02 11 .88.54 1.57 1.26 2.07 2.17-5.06 1.94-8.8-2.74-12.64-5.16.57.91 1.22 1.77 1.96 2.57 1.03.82 2.06 1.65 3.08 2.5-4.38.2-6.05-4.72-9.37-6.68 1.16 2.05 2.8 3.75 4.18 5.63-3.76.1-4.56-4.09-7.7-4.93.85 1.35 2.01 2.47 2.78 3.88-3.33-1.46-4.5-5-6.79-7.5-5.63-6.44-15.2-8.34-23.29-6.48-4.78 1.66-9.6-1.66-14.44-.22-4.94 1.26-11.51 2.79-12.98 8.48-1.28 4.65 1.03 9.21 4.05 12.62-1.62 1.74-4.11 2.04-6.3 2.58.19-1.79.82-3.61.18-5.4-1.37.1-2.71.37-4.01.82.84.15 2.51.44 3.35.59-1.25.98-2.84 1.27-4.3 1.81.59-1.81 1.54-4.03.41-5.82-1.22-1.39-2.79-.74-4.23-.17-.42 1.26-.8 2.54-1.42 3.71 1.52.73 3.09 1.37 4.81 1.4l.14.68c-3.11-.15-5.53 1.94-8.09 3.34.37.4.74.79 1.12 1.18 1.86-2.97 5.67-3.47 8.73-4.43-1.5 1.42-2.58 3.41-4.54 4.28-3.69 1.95-6.48 5.11-9.17 8.21.32-2.42 1.12-4.76 1.14-7.22.6.43 1.44 2.09 2.19.95 1.34-1.34-1.05-1.68-1.96-1.84.29-.29.88-.87 1.18-1.17-.45-4.15 1.31-8.18 1.87-12.27 1.15-4.74 1.53-9.69 3.3-14.26.38 2.8.5 5.71 1.91 8.23.35-.64 1.06-1.92 1.41-2.56.03.92.07 2.75.09 3.67.54-.51 1.63-1.52 2.17-2.03-1.69 4.81-7.93 7.43-7.22 13.17 1.3-3.49 3.25-6.62 5.9-9.26z"/>
        <path d="M42.25 31.16c4.03-1.67 8.3-3.49 12.77-2.92 4.09.6 8.01 2.07 11.72 3.87 1.18 1.19 2.39 2.38 3.35 3.77-1.5 1.85-3.96 1.3-6.02 1.26 2.65 1.52 5.31 3.22 6.77 6.02-1.91 2.98-5.66 3.97-8.99 3.21 2.4 1.46 4.97 2.85 6.48 5.32-3.32 3.05-8.24 2.88-12.16 1.2.27 3.08-3.61 4.54-5.93 2.97-3.05-1.91-5.05-5.02-7.59-7.5-5.11-4.06-7.18-13.71-.4-17.2zM89.23 38.54l.49-.09c.69 1.06 1.86 3.51.47 4.34-1.05-1-1.25-2.87-.96-4.25z"/>
    </g>
</svg>
