<svg width="128pt" height="128pt" viewBox="0 0 128 128" xmlns="http://www.w3.org/2000/svg">
    <g fill="#fff">
        <path d="M48.87 17.07c2.42-.18 4.83-.52 7.26-.67-1.38 4.36-2.15 8.89-3.77 13.17-.94-4.23-2.32-8.33-3.49-12.5zM73.35 19.78c2.54 3.38 4.4 7.21 6.29 10.98-4.19 1-8.17 2.71-12.2 4.2 1.99-5.05 4.43-9.95 5.91-15.18zM31.7 38.28c1.32-2.61 2.74-5.18 3.91-7.86 3.6 2.89 7.17 5.82 10.81 8.65-4.92.03-9.82-.43-14.72-.79zM28.94 50.82c3.07 0 6.18-.17 9.22.42-3.07 1.07-6.11 2.23-9.15 3.38-.02-.95-.05-2.85-.07-3.8zM77.88 77.65c1.06 1.4 2.1 2.82 3.39 4.01-.29-1.01-.89-3.03-1.19-4.04 2.69 2.88 3.76 6.8 5.38 10.3 2.2 4.96 4.13 10.03 6.58 14.88 2.67.74 5.08 2.15 7.43 3.57-.66 1.23-1.3 2.47-1.91 3.73-2-.17-4.3-.33-5.27-2.43-.51 1.98-2.24 3.09-3.75 4.26-2.22-1.83-1.5-4.86-2.23-7.34-2.79-6.52-8.04-12.24-8.03-19.68.58-.54 1.15-1.08 1.72-1.63 1.31 6.15 5.51 11.22 7.31 17.27.1-.98.22-1.96.34-2.93l-1.03.37C84.7 92.52 82.3 87.3 79.77 82.1c-.73.54-1.39 1.16-1.97 1.88 1.04-2.15 1.06-4.26.08-6.33z"/>
    </g>
    <path fill="#f6f6f6" opacity=".96" d="M77.95 42.77c2.42.12 4.84.14 7.26.14l-.44 3.49c-2.39-.96-4.64-2.26-6.82-3.63z"/>
</svg>
