<svg width="128pt" height="128pt" viewBox="0 0 128 128" xmlns="http://www.w3.org/2000/svg">
    <path fill="#3b0d0f" opacity=".53" d="M48.8 17.01c2.47-.71 5.03-1.02 7.59-1.19-.48 2.56-.83 5.2-2.09 7.52.47-2.24.95-4.48 1.48-6.71-2.32.19-4.65.33-6.98.38z"/>
    <g fill="#e72c39">
        <path d="M48.8 17.01c2.33-.05 4.66-.19 6.98-.38-.53 2.23-1.01 4.47-1.48 6.71-.11.41-.33 1.24-.45 1.66-.21.47-.63 1.41-.85 1.88-.02.41-.05 1.22-.07 1.63l-1 .75c.01-.62.05-1.85.07-2.47-.25-.45-.75-1.36-.99-1.82l.03-1.13c-.21-.47-.63-1.42-.85-1.89-.54-1.63-.93-3.3-1.39-4.94zM42.35 35.75c1.4 1.23 2.88 2.37 4.38 3.47-2.04-.08-4.08-.12-6.12-.1.61-1.1 1.22-2.21 1.74-3.37z"/>
    </g>
    <path fill="#c6282c" d="M73.59 19.56c2.14 3.71 4.32 7.4 6.17 11.27-1.64.39-3.25.96-4.93 1.14-.47.23-1.42.68-1.89.91-1.82.82-3.71 1.46-5.56 2.17 1.95-5.21 4.28-10.27 6.21-15.49z"/>
    <path fill="#370b0e" opacity=".57" d="M50.19 21.95c.22.47.64 1.42.85 1.89l-.89-.12-.44-.97.48-.8z"/>
    <path fill="#611519" opacity=".72" d="M51.01 24.97c.24.46.74 1.37.99 1.82l-.9-.09-.5-.93.41-.8z"/>
    <path fill="#5e1415" opacity=".72" d="M53 26.88c.22-.47.64-1.41.85-1.88l.47.8-.44.96-.88.12z"/>
    <path fill="#d62c31" d="M31.52 38.21c1.49-2.61 2.86-5.28 4.26-7.94.51.49 1.54 1.45 2.06 1.93 1.84 1.61 2.97 3.77 3.08 6.24-3.12-.26-6.26-.41-9.4-.23z"/>
    <path fill="#7b191c" opacity=".81" d="M37.84 32.2c1.55 1.12 3.34 2.01 4.51 3.55-.52 1.16-1.13 2.27-1.74 3.37-3.04-.15-6.12-.16-9.09-.91 3.14-.18 6.28-.03 9.4.23-.11-2.47-1.24-4.63-3.08-6.24z"/>
    <path fill="#511213" opacity=".72" d="M72.94 32.88c.47-.23 1.42-.68 1.89-.91l-.11.91-.97.47-.81-.47z"/>
    <path fill="#8f1c1e" d="M55.12 33.92c1.51-1.48 3.53.11 4.95.91 5.51 3.65 10.71 8.01 14.52 13.47-.51 1.72-3.16 3.24-2.02 5.03 2.27.42 4.59.39 6.89.6 1.67.34 2.63 1.95 2.93 3.53 1.5 6.63.08 13.41.09 20.11-1.38-1.8-2.52-3.78-3.99-5.51-.44-.44-.89-.87-1.36-1.27-1.06-.62-2.1-1.26-3.14-1.91-.52 2.54-.99 5.09-1.39 7.66-2.82-2.58-6.75-2.31-10.28-2.78-2.07-.21-3.96.92-5.92 1.37l-.59-.39-.29-.69c-1.52-5.47.01-11.54 3.41-16 1.32-1.78.74-4.12.82-6.17-1.03-.34-2.65.07-3.09-1.23-1.4-2.76-3.57-4.98-5.84-7.04 1.33-3.26 2.07-6.89 4.3-9.69z"/>
    <path fill="#040101" opacity=".33" d="M77.79 41.98c2.57.37 6.25-.8 8.15.99-.21.39-.62 1.17-.83 1.56l-.01-1.66c-2.35.07-4.71.26-7.01.77-.08-.42-.23-1.25-.3-1.66z"/>
    <path fill="#d02c34" d="M78.09 43.64c2.3-.51 4.66-.7 7.01-.77l.01 1.66v1.16c-1.53-.75-3.14-1.36-4.83-1.63l-2.19-.42z"/>
    <path fill="#731716" d="M50.16 47.22c.04-1.23.41-2.42.66-3.61 2.27 2.06 4.44 4.28 5.84 7.04.44 1.3 2.06.89 3.09 1.23-.08 2.05.5 4.39-.82 6.17-3.4 4.46-4.93 10.53-3.41 16l-.44.2c-2.42-.63-3.23-3.3-4.38-5.22 1.05-1.49 2.4-2.96 2.53-4.87.49-3.44-2.64-6.09-2.73-9.44-.11-2.5-.15-5-.34-7.5z"/>
    <path fill="#3d0d0e" opacity=".61" d="M80.28 44.06c1.69.27 3.3.88 4.83 1.63.38 2.39-5.21.22-4.83-1.63z"/>
    <path fill="#521316" d="M50.7 69.03c-2.16-6.99-3.64-14.84-.54-21.81.19 2.5.23 5 .34 7.5.09 3.35 3.22 6 2.73 9.44-.13 1.91-1.48 3.38-2.53 4.87z"/>
    <path fill="#5a1410" d="M74.59 48.3c1.52 1.96 3.21 3.78 4.87 5.63-2.3-.21-4.62-.18-6.89-.6-1.14-1.79 1.51-3.31 2.02-5.03z"/>
    <path fill="#070202" opacity=".35" d="M28.23 50.15c3.75-.22 7.5-.28 11.25-.04-.29.29-.86.88-1.15 1.18-3.18-.22-6.37-.36-9.57-.34.26 1.32.53 2.63.81 3.94l-.97-.08c-.12-1.55-.25-3.11-.37-4.66z"/>
    <path fill="#e73238" opacity=".96" d="M28.76 50.95c3.2-.02 6.39.12 9.57.34-1.78.71-3.58 1.42-5.48 1.75-.5.18-1.5.56-1.99.74l-1.29 1.11c-.28-1.31-.55-2.62-.81-3.94z"/>
    <path fill="#621516" opacity=".73" d="M30.86 53.78c.49-.18 1.49-.56 1.99-.74l-.19.89-1.02.39-.78-.54z"/>
    <path fill="#651313" d="M73.99 68.88c1.04.65 2.08 1.29 3.14 1.91.47.4.92.83 1.36 1.27.13.87.38 2.61.51 3.48-1.01-.91-2.01-1.83-3-2.76.09 2.08.17 4.16.26 6.24-1.41.29-2.82.59-4.23.89-.15 1.4-.29 2.8-.44 4.21-5.03-3.05-10.27-5.76-15.19-8.99 1.96-.45 3.85-1.58 5.92-1.37 3.53.47 7.46.2 10.28 2.78.4-2.57.87-5.12 1.39-7.66z"/>
    <path fill="#441114" opacity=".6" d="M77.65 78.34c1.05.26 2.07.2 3.07-.17 1.53.81 1.86 2.53 2.31 4.04-.34-.59-1.03-1.78-1.38-2.38-.63.08-1.89.25-2.52.33-.37-.45-1.11-1.36-1.48-1.82z"/>
    <path fill="#551013" d="M72.03 79.91c1.41-.3 2.82-.6 4.23-.89.35 3.43.52 6.88.57 10.33-1.84-1.65-3.57-3.41-5.24-5.23.15-1.41.29-2.81.44-4.21z"/>
    <path fill="#ca2b35" opacity=".95" d="M79.13 80.16c.63-.08 1.89-.25 2.52-.33.35.6 1.04 1.79 1.38 2.38.47.92.91 1.86 1.33 2.81-.52 1.23-1.03 2.47-1.55 3.71-.39-.89-1.17-2.65-1.56-3.54-.08-.18-.23-.54-.31-.72l-.2-.44c-.37-.39-1.11-1.16-1.48-1.55l.8-.5c-.23-.45-.7-1.36-.93-1.82z"/>
    <path fill="#a5282c" d="M78.51 82.5c.07 0 .23-.01.3-.01l-.3.01z"/>
    <path fill="#581217" opacity=".84" d="M78.51 82.5l.3-.01.45-.01c.37.39 1.11 1.16 1.48 1.55l-.43.19.2.44.43-.19c.08.18.23.54.31.72l-.43.62c-.79 1.09-1.57 2.2-2.27 3.35-.24-2.21-.57-4.41-.92-6.6l.88-.06z"/>
    <path opacity=".4" d="M80.31 84.22l.43-.19.2.44-.43.19-.2-.44z"/>
    <path fill="#bd2531" d="M84.36 85.02c2.15 5.33 4.51 10.57 6.79 15.84.49 1.92 2.57 2.39 4.05 3.32-.41-.02-1.22-.07-1.63-.1-2.7.87-5.33-.33-7.82-1.26l-.55-.2c-1.05-2.22-2.22-4.38-3.44-6.52.76-.31 2.27-.93 3.03-1.25.56 1.46 1.14 2.9 1.75 4.34l.08-2.62c-1.58-2.46-2.63-5.19-3.81-7.84.52-1.24 1.03-2.48 1.55-3.71z"/>
    <path fill="#921d1d" opacity=".98" d="M78.55 89.16c.7-1.15 1.48-2.26 2.27-3.35 1.32 3.02 2.64 6.03 3.97 9.04-.76.32-2.27.94-3.03 1.25-1.21-2.24-2.62-4.43-3.21-6.94z"/>
    <path fill="#de2c31" d="M85.75 102.82c2.49.93 5.12 2.13 7.82 1.26.41.03 1.22.08 1.63.1 1.56.29 2.86 1.37 4.28 2.05-.61 1.16-1.21 2.33-1.81 3.5-.02.05-.08.15-.1.2-1.33-.14-2.65-.29-3.97-.45-.24-.38-.72-1.14-.97-1.53-1.32 1.66-2.71 3.4-4.84 4.02-1.08-2.96-1.22-6.13-2.04-9.15z"/>
    <path fill="#841d21" d="M97.57 109.93c.02-.05.08-.15.1-.2-.02.05-.08.15-.1.2z"/>
</svg>
