<svg width="128pt" height="128pt" viewBox="0 0 128 128" xmlns="http://www.w3.org/2000/svg">
    <path fill="#080202" opacity=".25" d="M105.86 16.28c2.61-1.95 5.97-3.86 9.28-2.42-3.05.95-6.16 1.71-9.28 2.42z"/>
    <g fill="#ad2829">
        <path d="M105.86 16.28c3.12-.71 6.23-1.47 9.28-2.42-1.07.58-2.15 1.15-3.23 1.72-7.05 4.69-13.23 10.71-20.87 14.45-1.74 1.08-3.17 2.56-4.69 3.91-.62-.36-1.23-.72-1.85-1.07 3.39-2.76 6.96-5.28 10.65-7.64.9-.43 1.58-1.09 2.03-1.99 1.22-1.12 2.42-2.41 3.98-3.03 1.12-.31 2.35-.67 2.97-1.74.58-.73 1.15-1.46 1.73-2.19zM72.11 17.97c1.45-.2 2.9-.4 4.35-.61-1.27.83-2.53 1.66-3.75 2.55-.15-.49-.45-1.46-.6-1.94zM67.24 22.35c1.54-.22 3.1-.34 4.63.05-1.48.96-3.04 1.79-4.63 2.56v-2.61zM63 27.76c-.27-1.1.09-1.81 1.08-2.15.61-.17 1.83-.52 2.44-.69-.34.44-1.02 1.31-1.36 1.75-.65.79-1.37 1.15-2.16 1.09zM107.46 40.6c2.81-2.57 5.73-5.06 9.38-6.34-1.28 1.21-2.55 2.43-3.82 3.66-1.56.95-2.99 2.1-4.14 3.53l-.16.02c-.62.05-1.87.17-2.49.23.31-.27.92-.83 1.23-1.1zM81.67 35.56c.17.18.53.56.71.74l.24 1.44c-.43.29-1.29.85-1.72 1.13-.92.41-1.61 1.06-2.05 1.97-.23.26-.68.78-.91 1.04-.92.39-1.63 1.01-2.14 1.87-.57.3-1.73.91-2.3 1.22-1.48.55-2.61 1.66-3.6 2.84-2.04 1.91-4.57 3.27-6.2 5.62l-2.24.28c0-1.91.06-3.82.17-5.72 1.54-.56 3.06-1.19 4.63-1.67 1.37-.31 2.67-.88 3.73-1.81.88-.72 1.85-1.3 2.9-1.73 1.01-.14 1.83-.62 2.45-1.42.83-.84 1.75-1.59 2.74-2.22.92-.43 1.58-1.11 1.97-2.05.4-.39 1.21-1.15 1.62-1.53zM82.03 56.52c2.35-1.87 4.85-3.65 7.86-4.27-.62 1.49-1.38 3.24-3.21 3.45-1.03.21-1.71.83-2.03 1.85-.65 1.36-1.47 2.64-2.26 3.93-2.3.57-4.43 1.62-4.81 4.27-1.42-.98-2.73-2.1-3.98-3.28.52-1.36.97-2.75 1.35-4.15.77.13 2.3.38 3.06.51l.84-2.16 3.18-.15zM109.04 67.68c.84-.19 2.54-.59 3.38-.78-2.64 2-5.31 3.95-7.69 6.26-.12.09-.36.26-.48.34-.59.18-1.77.53-2.35.7.67-.9 1.3-1.84 1.99-2.73 1.57-1.44 3.3-2.72 5.15-3.79z"/>
    </g>
    <path fill="#1d0607" opacity=".44" d="M101.16 20.21c-.8-1.57 1.92-2.99 2.97-1.74-.62 1.07-1.85 1.43-2.97 1.74z"/>
    <path fill="#120404" opacity=".31" d="M64.08 25.61c1.96-2.85 4.52-5.38 8.27-5.18l-.48 1.97c-1.53-.39-3.09-.27-4.63-.05v2.61c-.1.99-.8 1.55-2.08 1.71.34-.44 1.02-1.31 1.36-1.75-.61.17-1.83.52-2.44.69z"/>
    <path fill="#1d0607" opacity=".44" d="M95.15 25.23c-.43-1.79.24-2.45 2.03-1.99-.45.9-1.13 1.56-2.03 1.99z"/>
    <path fill="#0b0202" opacity=".27" d="M53.03 33.73c1.58-3.09 4.47-5.61 8.15-5.34-2.88 1.5-5.72 3.16-8.15 5.34z"/>
    <path fill="#ad2929" d="M61.18 28.39l.49-.01c.42 1.7-1.62 2.55-2.54 3.64-1.74 1.51-3.64 2.81-5.5 4.17-1.52.98-2.55 2.48-3.53 3.97-1.11.76-2.23 1.5-3.35 2.25-.31.65-.95 1.95-1.27 2.59-1.04-.22-2.08-.19-3.11.08l-.31.45c-.42.55-1.28 1.66-1.7 2.22-.27.17-.8.51-1.07.68-.12.51-.38 1.55-.5 2.07-.47 1.04-.99 2.05-1.57 3.03-1.89-.45-3.79-.93-5.67-1.42.73-.43 2.19-1.27 2.91-1.7.44-.92.87-1.85 1.3-2.77 1.42-.81 2.81-1.68 4.25-2.45.94-.34 1.68-.93 2.22-1.78 3.35-3.51 7.61-6 10.8-9.68 2.43-2.18 5.27-3.84 8.15-5.34z"/>
    <g fill="#170505">
        <path opacity=".38" d="M53.63 36.19c1.86-1.36 3.76-2.66 5.5-4.17l-.72 2.56c-1.59.53-3.19 1.07-4.78 1.61zM81.08 86.01c-.83-1.57 1.87-3.23 2.92-1.8-.7.96-1.83 1.41-2.92 1.8z"/>
    </g>
    <path fill="#010000" opacity=".17" d="M83.92 35.01c-.8-1.08-.61-1.79.58-2.14.62.35 1.23.71 1.85 1.07-.35 1.34-1.16 1.69-2.43 1.07z"/>
    <path fill="#110404" opacity=".29" d="M81.79 35.03c.53-.01 1.6-.02 2.13-.02 1.12.91.18 3.31-1.3 2.73l-.24-1.44c-.18-.18-.54-.56-.71-.74l.12-.53z"/>
    <path fill="#240909" opacity=".47" d="M78.08 39.14c-.48-1.74.17-2.42 1.97-2.05-.39.94-1.05 1.62-1.97 2.05z"/>
    <path fill="#150505" opacity=".44" d="M78.85 40.84c.44-.91 1.13-1.56 2.05-1.97.4 1.79-.29 2.45-2.05 1.97z"/>
    <path fill="#130404" opacity=".31" d="M96.02 47.36c3.24-3.1 6.88-6.01 11.44-6.76-.31.27-.92.83-1.23 1.1.62-.06 1.87-.18 2.49-.23-.9 1.12-1.79 2.26-2.68 3.39l-.68-1.35-.28-.55c-1.69-.85-3.14 1.15-4.06 2.3.57.52 1.16 1.03 1.76 1.53l-3.14.69c.25-.48.76-1.44 1.01-1.92-1.56.55-3.11 1.13-4.63 1.8z"/>
    <path fill="#1c0606" opacity=".43" d="M72.89 42.78c.05-1.82.87-2.29 2.45-1.42-.62.8-1.44 1.28-2.45 1.42z"/>
    <path fill="#120404" opacity=".38" d="M75.8 43.75c.51-.86 1.22-1.48 2.14-1.87.34 1.81-.37 2.44-2.14 1.87z"/>
    <path fill="#140505" opacity=".38" d="M40.01 45.19c-.25-1.82.49-2.42 2.22-1.78-.54.85-1.28 1.44-2.22 1.78z"/>
    <path fill="#a12629" opacity=".95" d="M101.02 45.26c.92-1.15 2.37-3.15 4.06-2.3l.28.55c-.64 1.72-2.84 1.63-4.34 1.75z"/>
    <path fill="#1e0707" opacity=".44" d="M66.26 46.32c-.74-1.89 2.53-3.13 3.73-1.81-1.06.93-2.36 1.5-3.73 1.81z"/>
    <path fill="#090203" opacity=".36" d="M42.37 45.08c1.03-.27 2.07-.3 3.11-.08.13 1.66-2.81 1.88-3.42.53l.31-.45z"/>
    <path fill="#741b1c" opacity=".84" d="M69.9 47.81c.99-1.18 2.12-2.29 3.6-2.84.89 1.74-2.07 4.22-3.6 2.84z"/>
    <path fill="#992425" opacity=".95" d="M96.02 47.36c1.52-.67 3.07-1.25 4.63-1.8-.25.48-.76 1.44-1.01 1.92-.79 1.42-2.3 2.29-3.7 3.02-.97.08-1.94.14-2.9.18l-1.5.08c1.48-1.16 2.9-2.39 4.48-3.4z"/>
    <path fill="#070102" opacity=".34" d="M39.29 48.43c.27-.17.8-.51 1.07-.68 1.34.92-.08 3.64-1.57 2.75.12-.52.38-1.56.5-2.07z"/>
    <path fill="#250909" opacity=".44" d="M91.15 51.01l.39-.25 1.5-.08c.96-.04 1.93-.1 2.9-.18.32 2.24-4.74 2.78-4.79.51z"/>
    <g fill="#b22b2c">
        <path d="M49.96 55.88c4.31.09 7.03-4.3 11.48-3.72-1.38 1.36-2.85 2.62-4.36 3.84.84 1.68 2.05 3.26 2.25 5.18-1.36 1.96-3.29 3.45-5.27 4.75-.26.45-.79 1.36-1.06 1.82-.14 3.1-2.94 5.94-6.15 5.44-2.78-.98-5.5-3.04-6.05-6.11-1.26-5.56 3.76-10.83 9.16-11.2zM27.62 56.72c1.5-1.77 3.42-3.08 5.58-3.9-.67 1.39-1.36 2.76-2.07 4.14 1.1.92 2.25 1.8 3.21 2.89.2 2.74-.88 5.38-.86 8.12-.26 2.57.3 5.72-1.92 7.61-2.31 2.22-5.69.8-8.33.08l-.1-.95c-.03-1.2-.64-1.8-1.84-1.81l-.91-.08c-.51-2.18-1.28-4.51-.49-6.73 1.18-4.09 5.07-6.33 7.73-9.37zM68.91 67.71c1.31-1.49 2.61-2.97 3.99-4.4.04 3.87-2.49 7-3.05 10.73-.67 3.84-2.71 7.67-6.25 9.56-3.01 1.8-7.26 1.05-9.38-1.78-1.73-1.96-1.9-4.57-1.93-7.05 1.95-1.24 3.98-2.36 5.89-3.67 2.18-1.51 3.54-3.92 5.72-5.44 1.92-.26 3.38 1.33 5.01 2.05zM25.07 82.51c3.67-.07 6.67-2.33 9.79-3.96 5.82.8 10.84 5.14 12.92 10.55 1.6 3.96-2.14 7.15-3.19 10.7-.09 3.24 3.12 6.58.79 9.62-2.75 3.86-8.58 5.69-12.79 3.11-3.07-1.85-6.01-4.02-8.44-6.66-.44-.91-1.11-1.58-2.02-2.01-4.78-4.3-10.14-9.94-8.52-16.97 1.68-2.52 3.38-5.21 6.36-6.32 1.71.64 3.42 1.26 5.1 1.94zM57.01 92.67c4.02-.35 7.97-1.27 12.01-1.37.28.51.86 1.52 1.14 2.02.38 1.54 2.18.91 2.6-.23.8-.47 2.41-1.43 3.22-1.9-1.45 3.62-4.75 5.9-6.7 9.18-2.11 3.64-6.19 6.01-10.39 6-4.71-.55-8.67-5.69-7.29-10.4.77-2.25 3.23-3.16 5.41-3.3z"/>
    </g>
    <path fill="#0c0303" opacity=".38" d="M84.65 57.55c.32-1.02 1-1.64 2.03-1.85.33 1.7-.35 2.32-2.03 1.85z"/>
    <path fill="#0a0202" opacity=".23" d="M109.04 67.68c1.93-1.83 4.28-3.1 6.8-3.92l-.08 2.39c-3.56 2.51-7.06 5.17-11.03 7.01 2.38-2.31 5.05-4.26 7.69-6.26-.84.19-2.54.59-3.38.78m4.41-2.61c.07 3.31 3.05-1.47 0 0z"/>
    <path fill="#711a1b" opacity=".81" d="M113.45 65.07c3.05-1.47.07 3.31 0 0z"/>
    <path fill="#480f10" opacity=".72" d="M53 67.75c.27-.46.8-1.37 1.06-1.82l.4.83-.55.93-.91.06z"/>
    <path fill="#170505" opacity=".37" d="M100.33 73.73c-.02-1.6 2.13-3.03 3.56-2.26-.69.89-1.32 1.83-1.99 2.73l-1.26.04-.31-.51z"/>
    <path fill="#701a1a" opacity=".81" d="M21.29 72.9c1.2.01 1.81.61 1.84 1.81-1.56.35-2.17-.25-1.84-1.81z"/>
    <path fill="#b52c29" d="M100.64 74.24l1.26-.04c-1.06 1.32-2.08 2.67-3.19 3.95-.98.75-2.03 1.4-3.12 1.97-2.31 1.07-4.73 1.88-7.14 2.69-.21.53-.62 1.6-.82 2.14l-.23.6-.96.44c-1.16.32-1.98 1.51-1.69 2.72l.07 1.47c-2.82.48-5.65.88-8.48 1.21.49-2.57 2.39-4.42 4.74-5.38 1.09-.39 2.22-.84 2.92-1.8 1.26-1.16 2.31-2.8 4-3.33 1.69-.33 3.49-.51 4.97-1.48 1.32-.77 2.61-1.61 3.97-2.32.97-.35 1.67-.98 2.11-1.91l.6-.87.99-.06z"/>
    <path fill="#0c0203" opacity=".32" d="M101.9 74.2c.58-.17 1.76-.52 2.35-.7-1.34 2.08-3.03 4.04-5.54 4.65 1.11-1.28 2.13-2.63 3.19-3.95z"/>
    <path fill="#2c0a0a" opacity=".47" d="M96.94 77.08c-.33-1.78.38-2.41 2.11-1.91-.44.93-1.14 1.56-2.11 1.91z"/>
    <g fill="#240808">
        <path opacity=".46" d="M88 80.88c.02-2.05 3.63-2.84 4.97-1.48-1.48.97-3.28 1.15-4.97 1.48zM88.45 82.81c2.41-.81 4.83-1.62 7.14-2.69-1.41 1.66-3.38 2.51-5.46 3.01-.83.6-1.67 1.21-2.5 1.82.2-.54.61-1.61.82-2.14z"/>
    </g>
    <path fill="#5d1516" opacity=".76" d="M84.75 88.71c-.29-1.21.53-2.4 1.69-2.72 1.04.99-.29 3.42-1.69 2.72z"/>
    <path fill="#300b0b" opacity=".61" d="M70.16 93.32l.72-.65c.47.11 1.41.32 1.88.42-.42 1.14-2.22 1.77-2.6.23z"/>
    <path fill="#1d0707" opacity=".42" d="M22.13 103.86c.91.43 1.58 1.1 2.02 2.01-1.79.44-2.46-.23-2.02-2.01z"/>
</svg>
