<svg width="128pt" height="128pt" viewBox="0 0 128 128" xmlns="http://www.w3.org/2000/svg">
    <g fill="#420d10">
        <path d="M57.83 24.04c-.81-3.77 2.16-7.93 6.11-7.94 4.6-.7 8.6 4.53 6.88 8.8-.55 2.43-2.94 3.52-4.9 4.63 1.73.51 3.66.86 4.76 2.48-4.16.45-8.35.45-12.52.08.82-2.07 3.11-2.03 4.91-2.55-2.3-1.12-4.91-2.69-5.24-5.5m4.45-5.66c-2.03.96-3.28 3.44-2.49 5.61.74 4.43 8.52 4.54 9.3.08 1.57-3.75-3.41-8-6.81-5.69zM95.92 66.08c2.06-.2 4.12-.23 6.19-.21-2.83.72-5.71 1.24-8.6 1.72 1.3-.41 2.58-.86 3.86-1.32-.25-.03-.75-.1-1-.13l-.45-.06zM90.74 89.58c1.64-.71 3.85 1.39 4.01 2.94-1.53.28-3.45-.93-3.92-2.43l-.09-.51z"/>
    </g>
    <path fill="#451010" d="M53.44 37.27c2.2-.67 2.68-2.95 3.46-4.77 4.91.35 9.83.25 14.75.1.89 2.04 2.04 3.93 3.39 5.69-5.99.11-11.99.26-17.99.07-1.35.22-2.47-.54-3.61-1.09z"/>
    <path fill="#280a0a" opacity=".68" d="M50.49 39.49c1.08-.59 2.18-.71 3.3-.34.43.24 1.29.73 1.72.98 6.81-.29 14.09 1.52 20.52-1.33.74.23 1.47.46 2.2.7-.46.17-1.39.53-1.86.71-.09 1.79 2.65.52 3.6.17 3.35.08 7.12.25 9.85 2.44-.78.17-2.34.52-3.12.69-4.43-.41-8.78-1.49-13.24-1.59-6.75-.23-13.52-.02-20.27-.14l-.87-.95c-.46-.33-1.38-1-1.83-1.34m31.78 2.28c1.23.86 1.98.65 2.24-.66-1.23-.87-1.98-.66-2.24.66z"/>
    <path fill="#5d161a" opacity=".93" d="M53.79 39.15l-.69-.4c7.64.44 15.29.3 22.93.05-6.43 2.85-13.71 1.04-20.52 1.33-.43-.25-1.29-.74-1.72-.98z"/>
    <path fill="#701618" opacity=".96" d="M52.32 40.83c-1.16 1.93-4.88-.73-1.83-1.34.45.34 1.37 1.01 1.83 1.34z"/>
    <path fill="#5e1414" opacity=".98" d="M76.37 40.21c.47-.18 1.4-.54 1.86-.71.44.22 1.31.66 1.74.88-.95.35-3.69 1.62-3.6-.17z"/>
    <g fill="#4a1010">
        <path d="M38.89 42.77c2.6-1.58 5.68-1.85 8.59-2.46-.15.55-.44 1.64-.59 2.18-.81-.03-2.42-.1-3.23-.13 1.54.7 3.25.5 4.88.28l-.58 1.82c-4.04.93-8.12 1.68-12.16 2.58l-.6-2.39c2.38-.43 4.76-.83 7.15-1.21-.86-.17-2.59-.51-3.46-.67zM60.72 102.68c2.36-.02 4.72-.08 7.08-.2-1.81 3.09-1.67 6.77-2.89 10.07-.74-.81-1.46-1.62-2.17-2.45-.2-2.58-.94-5.07-2.02-7.42z"/>
    </g>
    <path fill="#621418" d="M82.27 41.77c.26-1.32 1.01-1.53 2.24-.66-.26 1.31-1.01 1.52-2.24.66z"/>
    <path fill="#5d1114" d="M48.54 42.64c.42-1.94 3.25-.39 4.65-.86 6.75.12 13.52-.09 20.27.14l.92 1.22c-8.81-.17-17.78-.81-26.42 1.32l.58-1.82z"/>
    <path fill="#400e11" opacity=".97" d="M73.46 41.92c4.46.1 8.81 1.18 13.24 1.59 2.55.52 6.39-.28 7.19 3.07l-1.67.25c-5.99-1.02-11.92-2.32-17.84-3.69l-.92-1.22z"/>
    <path fill="#170707" opacity=".47" d="M47.96 44.46c8.64-2.13 17.61-1.49 26.42-1.32 5.92 1.37 11.85 2.67 17.84 3.69.55.98 1.1 1.95 1.66 2.93l-.51.24c-2.73 1.21-5.3 2.78-7.5 4.82l.33 1.16c.15.5.31 1.01.47 1.51-1.47.87-2.44 2.3-3.28 3.74 1.24-.65 2.47-1.33 3.7-2.01l1.49 1.06c-1.56.58-3.13 1.15-4.69 1.73l-1.12.29c.82-5.78 3.51-11.95 9.41-14.05-4.57-.53-9.04-1.59-13.52-2.57-6.46-1.43-13.11-.79-19.66-.91-7.71-.15-14.99 2.8-22.62 3.38 3.62 1.6 6.76 4.43 7.78 8.38-1.11-.41-2.3-.83-2.81-2-.98-2.39-3.24-3.64-5.46-4.67l-.18-.09c-.18-1.71-.35-3.41-.51-5.12l.6 2.39c4.04-.9 8.12-1.65 12.16-2.58z"/>
    <g fill="#6b1518">
        <path d="M36.38 48.15c7.63-.58 14.91-3.53 22.62-3.38 6.55.12 13.2-.52 19.66.91l-3.36 3.78c.89.73 1.78 1.45 2.66 2.19l.36.35c-.91-.16-2.74-.49-3.66-.66-.8 7.96-1.43 15.93-2.22 23.89-1.54-3.26-2.5-6.77-2.68-10.37.39-4.58.86-9.16 1.18-13.74l.09-1.22c-4.63.09-9.25.1-13.87.14.26 1.69.54 3.38.77 5.08 1.31 11.29 1.96 22.66 3.36 33.94-1.09.67-2.19 1.34-3.37 1.84-1.38-.52-2.6-1.4-3.87-2.13.86-.04 2.58-.14 3.43-.18-1.2-12.4-2.27-24.8-3.55-37.19-.51.03-1.52.1-2.02.13-2.42-.62-4.89-.43-7.26.29 1.18 2.27 2.49 4.46 3.84 6.63 1.01 3.17 1.66 6.42 2.33 9.67l-3.52-.48-.1-.01c-1.12-3.67-1.95-7.42-3.04-11.1-1.02-3.95-4.16-6.78-7.78-8.38zM93.71 58.77c1.44-1.31 3.61-1.18 5.43-1.56-2.1 1.05-4.26 2-6.52 2.68l1.09-1.12zM30.72 83.78c1.57-.76 3.09-1.75 4.83-2.08.22.04.68.11.91.14l.95.17c-2.12.93-4.37 1.61-6.69 1.77zM41.02 99.32c1.36-1.79 2.04-4.79 4.38-5.42l.83-.14c-1.63 1.95-3.3 3.88-5.21 5.56zM45.3 101.53c-.58-1.35.37-3.18 1.66-3.78l.52-.14c.72 1.38-.74 3.73-2.18 3.92zM49.28 101.62c.25-1.29.89-2.28 1.92-2.99l.48.07c.46 1.63-.92 3.19-1.79 4.46-1.13 1.23-1.07-1-.61-1.54zM81.86 99.13l1.59-.16c.95.84 1.51 2.32 1.17 3.57-1.37-.28-2.33-2.14-2.76-3.41zM57.18 106.62c-.78-1.22-.02-3.15 1.15-3.86 2.07.33.74 4.55-1.15 3.86z"/>
    </g>
    <path fill="#581313" d="M78.66 45.68c4.48.98 8.95 2.04 13.52 2.57-5.9 2.1-8.59 8.27-9.41 14.05l1.12-.29-.72.68-.61.57c-1.54 5.84-2.58 11.79-3.34 17.78-.26 1.44.05 2.89.43 4.28l.04.51c-.03 1.79.52 3.52.79 5.28-2.57 1.3-5.69 2.21-6.95 5.1-.19.97-.34 1.94-.42 2.92l-.15 1.58c-5.57 1.89-12.03 2.33-17.5-.12-.7 1.9-1.47 3.77-2.36 5.58.32-2.53 1.02-5 2.24-7.24-.21-.87-.63-2.6-.85-3.46l-1.18 1.34c.35-.63.69-1.25 1.03-1.88l-.3-.25c-.77-.65-1.54-1.31-2.38-1.87-1.41-.94-2.84-1.82-4.23-2.77.57-.47 1.71-1.4 2.28-1.87-.12-6.91-1.24-13.73-2.41-20.53l3.52.48.25.95c-1.46.56-1.4 1.15.18 1.79 1.1 5.82 1.72 11.7 2.16 17.6.16.08.48.23.64.31 1.27.73 2.49 1.61 3.87 2.13 1.18-.5 2.28-1.17 3.37-1.84l1.14-.71c-.03-3.92-.01-7.84.03-11.75.77-1.52 1.5-3.05 2.22-4.58.11.75.34 2.26.46 3.02.41.23 1.24.69 1.65.92-.11 4.42-.28 8.86.39 13.25 1.34-8.06 1.66-16.24 2.58-24.35.18 3.6 1.14 7.11 2.68 10.37-.4 4.47-.78 8.93-1.23 13.39.98-.02 2.96-.07 3.94-.1.98-12.15 2.77-24.31 6.58-35.93-.4-.06-1.21-.19-1.61-.26.35-.18 1.06-.55 1.41-.73-.14-1.65-2.81-.75-3.57.05-.88-.74-1.77-1.46-2.66-2.19l3.36-3.78M63.34 76.29c-.69 4.18-.23 8.44-.32 12.65.79.06 2.38.17 3.17.23.14-4.47.13-8.95-.11-13.41-.69.13-2.05.4-2.74.53z"/>
    <g fill="#a52029">
        <path d="M35.89 49.86c2.22 1.03 4.48 2.28 5.46 4.67-1.96-1.39-3.76-2.97-5.46-4.67zM85.87 54.82c2.2-2.04 4.77-3.61 7.5-4.82-2.35 2.04-4.75 4.02-7.17 5.98l-.33-1.16zM32.12 52.58c3.88 1.88 7.95 3.4 11.66 5.61.35.73 1.05 2.18 1.4 2.91-4.42-2.74-8.95-5.32-13.06-8.52zM86.67 57.49c2.59-1.19 5.08-2.74 7.89-3.33l.69.07c-2.72 1.67-5.43 3.35-8.16 4.99-1.23.68-2.46 1.36-3.7 2.01.84-1.44 1.81-2.87 3.28-3.74zM30.03 57.02c4.93 1.16 9.71 2.88 14.49 4.52.39.67 1.19 2.01 1.58 2.68-5.59-1.84-10.78-4.67-16.07-7.2zM91.42 64.55c-.68-2.95 4.02-2.04 5.76-2.52l.96.44c-2.27.59-4.51 1.28-6.72 2.08zM64.43 62.75c1.07 3.2 3.25 6.75 1.56 10.08-.33-2.14-.83-4.26-1.6-6.29-.33 2.1-.59 4.21-.92 6.31-1.72-3.26.31-6.82.96-10.1zM37.15 76.95c.78-.14 1.55-.29 2.33-.44-.19.43-.56 1.29-.74 1.73-.49.08-1.46.24-1.95.33-1.31.4-2.62.46-3.91.2l-.38-.31c1.53-.56 3.08-1.06 4.65-1.51zM63.34 76.29c.69-.13 2.05-.4 2.74-.53.24 4.46.25 8.94.11 13.41-.79-.06-2.38-.17-3.17-.23.09-4.21-.37-8.47.32-12.65zM40.16 93.63c2.44-3.7 5.99-6.57 8.9-9.91 1.08 4.02-3.4 5.32-5.59 7.66l-.08.08c-1.09.93-2.18 1.87-3.28 2.8l.05-.63zM79.65 85.32c2.8-.41 4.38 2.34 6.04 4.08 1.31 1.71 3.16 3.03 4.12 4.98l.09.72c-3.17-2.72-6-5.96-9.77-7.88l-.44-1.39-.04-.51zM86.44 85.67c.52.41 1.05.8 1.6 1.18 1.27.62 2.17 1.53 2.7 2.73l.09.51c-2.1-1.18-4.14-2.47-6.12-3.85.43-.14 1.3-.42 1.73-.57zM38.21 89.7c.39-1.31 1.29-1.99 2.71-2.03-.12.42-.37 1.26-.49 1.69-.55.08-1.66.26-2.22.34zM80.85 88.98c1.88 2.25 3.59 4.63 5.26 7.03l-.57-.12c-2.32-1.57-5.21-3.73-4.69-6.91zM49.85 92.85l1.81-.04c-1.46 1.49-2.23 3.91-4.18 4.8l-.52.14c.86-1.69 1.75-3.38 2.89-4.9zM75.4 95.13l1.05-1.58c1.2 3.27 2.64 6.46 3.62 9.81-1.81-2.59-3.48-5.3-4.67-8.23zM73.11 99.13c.08-.98.23-1.95.42-2.92.17.38.51 1.13.68 1.51.88 3.04 1.42 6.18 2.34 9.22-1.06-2.33-2.08-4.68-3.26-6.96l-.18-.85z"/>
    </g>
    <path fill="#a7252a" opacity=".95" d="M57.16 50.04c4.62-.04 9.24-.05 13.87-.14l-.09 1.22c-4.48.02-8.97.02-13.45.01.14 1.33.29 2.66.44 3.99-.23-1.7-.51-3.39-.77-5.08z"/>
    <path fill="#851d1f" opacity=".93" d="M44.65 51.82c2.37-.72 4.84-.91 7.26-.29-1.65.33-3.29.67-4.93 1.01.49 1.97.99 3.95 1.51 5.91-1.35-2.17-2.66-4.36-3.84-6.63z"/>
    <path fill="#931e22" d="M77.96 51.65c.76-.8 3.43-1.7 3.57-.05-.35.18-1.06.55-1.41.73-.45-.08-1.35-.25-1.8-.33l-.36-.35z"/>
    <path fill="#0d0404" opacity=".34" d="M94.56 54.16c-.82-1.26 1.44-2.49 2.37-1.58.24 1.13-.32 1.68-1.68 1.65l-.69-.07z"/>
    <path fill="#c62c31" opacity=".89" d="M88.58 60.28c1.68-.6 3.39-1.09 5.13-1.51l-1.09 1.12c-2.99 2.13-6.57 3.3-9.91 4.81l.46-2.01.72-.68c1.56-.58 3.13-1.15 4.69-1.73z"/>
    <path fill="#b7282c" opacity=".85" d="M28.74 61.31c5.73.85 11.37 2.21 17.08 3.19 1.58 5.25 2.13 10.72 3.18 16.08-4.13 1.81-7.98 4.54-12.39 5.54l-.58-.04c1.44-1.14 2.95-2.19 4.55-3.08 2.25-1.21 4.39-2.61 6.5-4.06-2.85.72-5.64 1.63-8.37 2.71l-1.03.4-1.22-.21c-.23-.03-.69-.1-.91-.14.85-.41 2.56-1.23 3.41-1.65 2.49-1.08 4.9-2.31 7.3-3.57-1.91.39-3.83.76-5.74 1.16-.04-1.04-.02-2.07-.06-3.11-3.42.49-6.89.52-10.3-.1 2.94-.51 5.91-.83 8.84-1.4 2.06-.31 4.09-.8 6.12-1.29-5.51-.47-11.03-.82-16.54-1.32.8-.09 2.39-.26 3.19-.35 4.48-.15 8.98.07 13.44-.48-2.35-.64-4.72-1.19-7.13-1.51-.74-.14-2.22-.43-2.95-.57-.52-.13-1.54-.39-2.05-.52-2.03-.2-4.01-.7-5.99-1.21 3.57.07 7.14.14 10.66.76 2.5.43 5.04.45 7.57.23-1.59-.54-3.19-1.05-4.79-1.55-4.01-1.03-7.99-2.25-11.79-3.91m13.7 13.91c.51-.02 1.53-.05 2.04-.07 2.22-.84-1-1.96-1.9-1.31-.04.34-.11 1.03-.14 1.38z"/>
    <path fill="#0d0404" opacity=".35" d="M97.18 62.03c.28-1.34 2.38-1.81 3.29-.84.63 1.32-1.46 1.9-2.33 1.28l-.96-.44z"/>
    <path fill="#c02b2f" opacity=".89" d="M82.73 64.71c2.73-.66 5.71-1.45 8.34.01-2.49.6-4.97 1.24-7.41 1.99 2.56.31 5.17.3 7.72-.15 1.65-.24 3.31-.49 4.99-.42.25.03.75.1 1 .13-1.28.46-2.56.91-3.86 1.32l-2.68.52c-2.38.32-4.73.85-7.05 1.47 4.46.59 8.97.31 13.46.51 1.39.09 2.77.27 4.15.5l-.97.08c-3.43.25-6.86.34-10.29.44-2.25.04-4.49.06-6.74.16 1.19.51 2.38 1.03 3.62 1.43 1.93.28 3.77.83 5.53 1.66-3.05.08-6.09-.15-9.13-.26 1.28.5 2.57 1.01 3.88 1.41 1.63.51 3.27 1 4.92 1.43 2.92.88 5.81 1.88 8.71 2.84-6.06-.52-11.97-2.08-17.91-3.29 4.43 2.01 8.67 4.8 13.53 5.58-.6.41-1.2.83-1.8 1.24-1.54-.68-3.11-1.29-4.68-1.89-2.65-.99-5.35-1.84-8.1-2.5 2.02 1.36 4.07 2.68 6.2 3.85 3.35 1.86 6.51 4.03 9.72 6.12-2.6-1.08-5.18-2.22-7.68-3.51-3.12-1.58-6.27-3.1-9.46-4.52 1.89 1.62 3.78 3.23 5.7 4.81-.43.15-1.3.43-1.73.57-1.87-1.01-3.44-2.47-5.06-3.82.5-5.98 1.61-11.9 3.08-17.71z"/>
    <path fill="#240908" opacity=".47" d="M40.53 65.22c1.6.5 3.2 1.01 4.79 1.55-2.53.22-5.07.2-7.57-.23.69-.33 2.08-.99 2.78-1.32z"/>
    <path fill="#2b090a" opacity=".52" d="M83.66 66.71c2.44-.75 4.92-1.39 7.41-1.99l-2.15 1.04c.62.2 1.85.6 2.46.8-2.55.45-5.16.46-7.72.15z"/>
    <path opacity=".32" d="M33.08 66.99c.51.13 1.53.39 2.05.52l-.7.62-1.05-.27-.3-.87z"/>
    <path fill="#200708" opacity=".37" d="M38.08 68.08c2.41.32 4.78.87 7.13 1.51-4.46.55-8.96.33-13.44.48 2.21-.29 4.35-.92 6.31-1.99z"/>
    <path fill="#230808" opacity=".38" d="M83.78 69.58c2.32-.62 4.67-1.15 7.05-1.47 1.94 1.2 4.17 1.69 6.41 1.98-4.49-.2-9 .08-13.46-.51z"/>
    <path fill="#942021" d="M51.25 70.86c-1.58-.64-1.64-1.23-.18-1.79.05.45.14 1.34.18 1.79z"/>
    <path fill="#29090a" opacity=".4" d="M26.87 70.36c.42.02 1.28.05 1.71.06 5.51.5 11.03.85 16.54 1.32-2.03.49-4.06.98-6.12 1.29-3.69-2.37-8.28-.9-12.13-2.67z"/>
    <path fill="#69181a" opacity=".74" d="M83.39 71.27c2.25-.1 4.49-.12 6.74-.16-1.05.52-2.09 1.04-3.12 1.59-1.24-.4-2.43-.92-3.62-1.43z"/>
    <path fill="#2f0a0b" opacity=".45" d="M90.13 71.11c3.43-.1 6.86-.19 10.29-.44-2.94.76-5.99.87-9.01.99l-.06 1.19 2.09.24-.51 1.36-.19.5c-1.82.17-3.63.39-5.45.56-1.31-.4-2.6-.91-3.88-1.41 3.04.11 6.08.34 9.13.26-1.76-.83-3.6-1.38-5.53-1.66 1.03-.55 2.07-1.07 3.12-1.59z"/>
    <path fill="#220708" opacity=".34" d="M27.54 75.81c.87-.41 1.52-1.67 2.62-1.38 3.41.62 6.88.59 10.3.1.04 1.04.02 2.07.06 3.11 1.91-.4 3.83-.77 5.74-1.16-2.4 1.26-4.81 2.49-7.3 3.57-.54-.37-1.63-1.11-2.17-1.48.49-.09 1.46-.25 1.95-.33.18-.44.55-1.3.74-1.73-.78.15-1.55.3-2.33.44-2.75-2.34-6.38-1.12-9.61-1.14z"/>
    <path fill="#380e0e" opacity=".64" d="M42.44 75.22c.03-.35.1-1.04.14-1.38.9-.65 4.12.47 1.9 1.31-.51.02-1.53.05-2.04.07z"/>
    <path fill="#c33032" opacity=".93" d="M92.93 74.45c1.37-1.15 3.69-1.04 5.09-.01-1.71.55-3.5.7-5.28.51l.19-.5z"/>
    <path fill="#060102" opacity=".2" d="M98.02 74.44c1.59-.98 2.65.43 3.68 1.45-3.2-.07-6.48-.25-9.49 1.05-1.65-.43-3.29-.92-4.92-1.43 1.82-.17 3.63-.39 5.45-.56 1.78.19 3.57.04 5.28-.51z"/>
    <path fill="#2e0d0e" opacity=".52" d="M29.5 79.85c-.2-1.34 2.02-2.12 3-1.39l.38.31c-.31 1.33-2.36 1.98-3.38 1.08z"/>
    <path fill="#1e0707" opacity=".41" d="M38.71 81.65c2.73-1.08 5.52-1.99 8.37-2.71-2.11 1.45-4.25 2.85-6.5 4.06l-1.87-1.35z"/>
    <path fill="#280909" opacity=".44" d="M81.96 78.92c2.75.66 5.45 1.51 8.1 2.5-.47.34-1.42 1.01-1.9 1.35-2.13-1.17-4.18-2.49-6.2-3.85z"/>
    <path fill="#200707" opacity=".35" d="M80.74 80.86c3.19 1.42 6.34 2.94 9.46 4.52-.54.37-1.62 1.1-2.16 1.47-.55-.38-1.08-.77-1.6-1.18-1.92-1.58-3.81-3.19-5.7-4.81z"/>
    <path fill="#de3236" opacity=".97" d="M41.58 86.12c2.53-1.74 4.96-3.64 7.63-5.2.25 3.7-4.07 4.38-6.17 6.5-.49-.43-.98-.87-1.46-1.3z"/>
    <path fill="#070202" opacity=".28" d="M97.24 84.49c.06-.42.17-1.26.22-1.67 2.79-.44 2.11 3.78-.22 1.67z"/>
    <path fill="#340f11" opacity=".5" d="M32.39 88.63c-.27-1.7 2.18-2.77 3.64-2.55l.58.04.15.42c-.86 1.34-2.81 2.28-4.37 2.09z"/>
    <path fill="#1d0808" opacity=".48" d="M35.64 91.82c-.21-1.36.39-1.87 1.81-1.54.21 1.36-.39 1.87-1.81 1.54z"/>
    <path fill="#1b0708" opacity=".52" d="M46.01 91.91c.46-.64.94-1.26 1.42-1.87 1.39.95 2.82 1.83 4.23 2.77l-1.81.04c-.89-.05-1.76-.19-2.61-.43-.31-.13-.92-.39-1.23-.51z"/>
    <path fill="#030100" opacity=".43" d="M43.39 91.46l.08-.08-.08.08z"/>
    <path fill="#b42930" opacity=".86" d="M46.01 91.91c.31.12.92.38 1.23.51-.26.33-.76 1-1.01 1.34l-.83.14c.15-.5.46-1.5.61-1.99z"/>
    <path fill="#140808" opacity=".41" d="M38.07 95.7c-.84-1.13.98-2.93 2.09-2.07l-.05.63c-.24 1.27-.92 1.75-2.04 1.44z"/>
    <path fill="#a42c32" opacity=".86" d="M77.66 92.68c2.74-.56 3.16 2.8 4.67 4.27-.4.49-.8.99-1.2 1.48-.94-2.05-2.21-3.9-3.47-5.75z"/>
    <path fill="#0d0304" opacity=".41" d="M89.81 94.38c2.86-1.64 1.75 4 .09.72l-.09-.72z"/>
    <path fill="#99262a" opacity=".82" d="M52.58 94.95c.37-.07 1.1-.2 1.46-.27l.3.25c-.34.63-.68 1.25-1.03 1.88-.41.47-1.23 1.42-1.63 1.89l-.48-.07c-.59-1.27.4-2.87 1.38-3.68z"/>
    <path fill="#240a0c" opacity=".48" d="M85.54 95.89l.57.12c1.1.18 2.29 1.5 1.69 2.62-1.25.49-2.56-1.07-2.56-2.25l.3-.49z"/>
    <path fill="#6a1413" opacity=".72" d="M70.4 103.36c.53.56.53.56 0 0z"/>
</svg>
