<svg width="128pt" height="128pt" viewBox="0 0 128 128" xmlns="http://www.w3.org/2000/svg">
    <g fill="#fff">
        <path d="M62.38 16.29c3.31-.47 7.04.7 8.23 4.11 1.77 3.99-1.49 7.81-5.03 9.29 1.82.37 3.78.74 4.98 2.33-4.06.31-8.14.21-12.21.03.93-2.01 3.28-1.88 5.09-2.3-3.52-1.55-6.35-4.73-5.53-8.85 1.02-1.96 2.51-3.57 4.47-4.61m-2.79 7.59c.46 3.87 5.21 4.16 8.05 2.96 2.83-2.51 2.07-6.8-.8-8.94-3.76-1.39-8.49 1.8-7.25 5.98zM54.65 36.84c1.26-1.07 1.76-2.64 2.35-4.12 4.86.12 9.73.1 14.6.09.84 2.52 2.62 4.49 4.2 6.55 1.34.31 2.69.56 4.02.9-.49 2.09-3.25.17-4.66.45-8.62-.32-17.34-.62-25.93.43-.02.17-.05.5-.07.66 12.51-.4 25.33-1.27 37.65 1.86-.17-.5-.5-1.49-.67-1.99.77.13 2.32.39 3.09.51l-.68.65-.58.5c.86 1.54 3.29.43 4.7 1.19.14.66.42 2 .56 2.67-8.71-1.44-17.26-4.51-26.18-3.99-4.31.12-8.65-.27-12.94.25-6.24 1.21-12.47 2.53-18.72 3.73.12-.57.35-1.72.47-2.29 3.85-1.06 7.86-1.74 11.85-1.99.08-1.26.17-2.53.27-3.79l.17 1.43c1.67-.42 3.34-.83 5.02-1.24.47-.84.96-1.66 1.48-2.46m-.64 1.18V39c7.14.23 14.3.24 21.44-.05-.53-.22-1.59-.66-2.12-.89-6.43-.16-12.88-.02-19.32-.04z"/>
        <path d="M81.55 41.98c-1.31-.25-.69-2.27.5-1.5l.88.26c.47.26 1.42.78 1.9 1.04l-3.28.2zM38.84 42.99c2.54-1.78 5.74-1.84 8.68-2.38-.12.35-.34 1.05-.46 1.4-2.77.02-5.44 1.01-8.22.98zM35.74 48.19c6.53-.54 12.82-2.57 19.29-3.49 5.98-.12 11.96-.06 17.94-.03 6.74.66 13.2 3.01 19.95 3.56-2.37 1.03-5.18 1.73-6.27 4.36-.87.89-1.68 1.86-1.96 3.11-3.31 10.15-5.85 20.74-5.75 31.47-.25 1.47 2.89 3.46.61 4.25-4.27.9-7.25 4.98-6.66 9.33-1.29.05-2.45.46-3.46 1.21-3.94.06-8.29.98-11.94-.8-.47-.07-1.39-.22-1.85-.3-.27-1.98-.3-4.09-1.39-5.84-1.15-2.38-3.89-3.05-6.2-3.77-.02-.62-.07-1.85-.09-2.46l2-.12c-.31-11.44-2.52-22.78-6.2-33.6-1.7-3.27-4.44-5.83-8.02-6.88m10.93 4.22c3.76 11.75 5.75 24.02 6.58 36.31l4.35.06c-1.21-12.55-2.17-25.14-3.63-37.67-2.4.61-4.85.97-7.3 1.3M57.44 51c1.34 12.81 2.17 25.67 3.86 38.45l1.2-1c.32-3.91.04-7.84.09-11.76.98-1.29 1.66-2.77 2.46-4.17-.05.84-.14 2.51-.19 3.34l1.78-.28c.05 4.68-.31 9.38.24 14.05.23-.43.67-1.27.89-1.7 1.07-12.31 2.37-24.61 3.32-36.93H57.44m17.07.18c-1.22 12.53-2.14 25.09-3.56 37.6 1.45-.01 2.9-.02 4.35-.04 1.03-12.31 2.72-24.68 6.72-36.42-2.53-.23-5.03-.62-7.51-1.14zM60.91 102.97c2.13.04 4.27.02 6.41-.06-1.2 2.02-1.53 4.33-1.43 6.64-.33.71-1 2.11-1.33 2.81-2.39-2.6-1.66-6.54-3.65-9.39z"/>
    </g>
    <path fill="#1e1e1e" opacity=".12" d="M54.01 38.02c6.44.02 12.89-.12 19.32.04.53.23 1.59.67 2.12.89-7.14.29-14.3.28-21.44.05v-.98z"/>
</svg>
