<svg width="128pt" height="128pt" viewBox="0 0 128 128" xmlns="http://www.w3.org/2000/svg">
    <g fill="#fff">
        <path d="M76.64 21.65c3.48-3.22 8.17-4.98 12.72-6.09-.86 1.36-1.74 2.73-2.59 4.1-4.29 6.24-9.21 12.14-15.3 16.7-1.43 1.06-2.69 2.31-3.75 3.74-.39-.29-.77-.58-1.16-.86 1.39-2.12 3.61-4.94 1.54-7.39 3.5-2.78 6.59-6.14 8.54-10.2z"/>
        <path d="M39.45 51.87c10.56-12.5 23.15-23.31 36.91-32.13-1.78 5.06-5.6 8.96-9.65 12.3 1.52 1.69 1.24 3.79.11 5.58-.57 1.61-2.4 3.25-.69 4.98l-1.65-1.58c-2.4 3.7-5.85 6.46-9.22 9.22-1.09.99-2.21 1.93-3.32 2.88 1.96-1.06 3.88-2.2 5.94-3.07-.82 2.86-2.36 5.41-4.02 7.84 1.78-.94 3.59-1.88 5.61-2.22-.4 2.72-2.25 4.73-3.97 6.73 2.48-.42 5.14-2.16 7.55-.51-1.28 1.97-2.65 4.27-5.15 4.8-4.59 1.12-9.15 2.37-13.61 3.94-2.36-2.25-4.72-4.51-7.29-6.53.01-4.72-.51-9.58 1.55-14 .23.44.68 1.32.9 1.77zM39.39 73.4c8.91-3.31 18.1-6.1 27.56-7.29 7.99-.55 16.04-.15 23.99.8 4.61-.1 9.25.74 13.39 2.85-12.67-1.28-25.53.52-37.43 5.03-9.73.19-19.58 2.2-28.3 6.7-3.71 2.05-7.21 4.81-9.2 8.63-1.71-.13-4.26.76-5.04-1.33 2.73-6.89 8.23-12.47 15.03-15.39z"/>
        <path d="M38.84 91.36c4.22-1.31 7.44-4.51 9.2-8.5-.37 1.27-.79 2.53-1.2 3.79-1.23 2-2.67 3.86-4.27 5.58.72 2.95-.99 5.41-3.46 6.8l-3.6-.04c-.86-.62-1.73-1.24-2.59-1.86.3-.03.92-.1 1.22-.13 1.54 1.77 4.4 1.43 5.26-.81 1.41-1.48-.1-3.27-.56-4.83zM71.27 90.69c8.45 3.91 16.88 7.88 25.27 11.91.16.25.48.77.64 1.03-1.62 1.74-3.28-.34-4.86-.84-4.5-2.13-8.6-5.16-13.34-6.73 2.06 2.2 5.15 2.75 7.64 4.28 2.56 1.51 5.18 2.92 7.78 4.35 1.2.66 2.4 1.31 3.61 1.97-2.17 2.79-5.21 5.28-9 4.44-5.65-4.33-11.15-8.87-16.73-13.29-.7-1.33-1.56-2.56-2.29-3.87.39-1.1.82-2.18 1.28-3.25zM24.4 99.32c1.06-1.71 1.86-3.85 3.78-4.8 1.49.98 2.42 2.54 3.62 3.82-2.56-.53-5.15-.47-7.4.98z"/>
    </g>
</svg>
