<svg width="128pt" height="128pt" viewBox="0 0 128 128" xmlns="http://www.w3.org/2000/svg">
    <path fill="#a72024" d="M77 15.74c4.24 1.93 8.71 3.31 12.9 5.34l1.88.96c2.51.62 4.84 1.77 7.28 2.6.17.91.33 1.83.5 2.74-1.53.71-3.07 1.38-4.56 2.18-1.63 1.32-3.18 3.17-2.92 5.42-.17 3.02 2.48 4.92 4.79 6.28.49 1.49.97 2.98 1.45 4.48-9.16-3-18.29-6.09-27.49-8.95l-.23-.08c.1-.41.31-1.23.41-1.65 1.92-.74 3.84-1.49 5.76-2.23 1.56 1.86 3.57 3.89 6.24 3.55 3.7.04 6.03-4.44 4.22-7.56-.96-2.98-4.28-3.81-7.06-3.8.18-1.34.35-2.68.53-4.01-1.76.04-3.53.09-5.29.13.52-1.8 1.04-3.61 1.59-5.4z"/>
    <path fill="#0d0303" opacity=".29" d="M73.73 20c.42.79.83 1.58 1.25 2.38-.91 3.5-1.97 6.96-3.16 10.38-1.07-.66-2.15-1.33-3.21-2l.77-.07c.34-.03 1-.08 1.33-.11 1.01-3.49 2.11-6.95 2.99-10.47l.03-.11z"/>
    <path fill="#7e1b1f" opacity=".96" d="M69.38 30.69c-2.7-4.15.66-8.59 4.32-10.58-.88 3.52-1.98 6.98-2.99 10.47-.33.03-.99.08-1.33.11z"/>
    <path fill="#9c1c21" d="M75.3 21.14h.11c1.76-.04 3.53-.09 5.29-.13-.18 1.33-.35 2.67-.53 4.01-2.96 1.48-4.15 4.65-3.4 7.81-1.92.74-3.84 1.49-5.76 2.23.2-.57.61-1.72.81-2.3 1.19-3.42 2.25-6.88 3.16-10.38l.32-1.24z"/>
    <path fill="#31090c" opacity=".64" d="M89.9 21.08l.81-.45.97.49.1.92-1.88-.96z"/>
    <path fill="#b82529" d="M99.06 24.64c.98.45 1.93.94 2.86 1.48.48.22 1.44.65 1.92.87 2.25.34 4.29 1.47 6.42 2.21-1.36 3.43-2.85 6.81-4.3 10.19l-2.28-1.8c1.14-4.95-3.8-9.58-8.68-8.03 1.49-.8 3.03-1.47 4.56-2.18-.17-.91-.33-1.83-.5-2.74z"/>
    <path fill="#4b0f13" opacity=".72" d="M101.92 26.12l.8-.48.99.45.13.9c-.48-.22-1.44-.65-1.92-.87z"/>
    <g fill="#50100d">
        <path d="M108.45 39.05c.71-1.98 1.41-4.08 3.09-5.47.82 3.06 1.07 6.65-1.45 9.02-.55-1.18-1.1-2.37-1.64-3.55zM94.55 47.11c1.03.34 2.06.67 3.09 1.01l1.41.45c-1.93 3.79-4.52 7.18-7.09 10.56l4.08-.76c.04-1.1.11-3.28.15-4.38 2.93 1.04 1.65 3.65.85 5.75l-.52-.06c-1.19-.14-2.38-.27-3.57-.31-.39.02-1.15.04-1.53.05 1.45-4.08-.34-8.97 3.13-12.31zM90.51 76.72c-.67-2.05-.68-4.19-.18-6.27.4 1.42.79 2.86 1.17 4.29-.16.31-.49.94-.65 1.25.77 0 2.31-.01 3.09-.01h.1c-.65.14-1.94.43-2.58.57 2.28 2.43-.01 7.1-3.1 7.28.23-.31.68-.93.9-1.24 1.21-1.28 1.93-2.87 2.08-4.63l.17-.89c-.68-.04-2.05-.13-2.74-.17l-.43-.03 2.17-.15zM84.84 83.49l2.05.12c-.16.34-.48 1.01-.64 1.34.33.05.97.14 1.3.18l1.4.2c-1.48 2.74-3.08 5.45-5.27 7.69-.15-.74-.44-2.22-.59-2.96.7-.04 2.11-.11 2.82-.14l-.1-.94c.64-1.02.86-2.09.66-3.2-1.06-1.25-2.33.57-2.49 1.6-.22.6-.68 1.8-.91 2.4-1.8-2.28.82-4.34 1.77-6.29z"/>
    </g>
    <path fill="#010000" opacity=".15" d="M70.83 36.79c9.2 2.86 18.33 5.95 27.49 8.95.46.18 1.38.56 1.84.74l-2.52 1.64c-1.03-.34-2.06-.67-3.09-1.01-5.15-1.69-10.21-3.63-15.32-5.44-2.68-.95-5.34-1.99-8.06-2.82-.22.37-.67 1.11-.89 1.48.18-1.18.36-2.37.55-3.54z"/>
    <g fill="#a52029">
        <path d="M96.87 41.26c2.9.26 5.3-1.29 6.81-3.67l2.28 1.8c-1.11 2.73-2.29 5.42-3.54 8.08-.57-.25-1.7-.74-2.26-.99-.46-.18-1.38-.56-1.84-.74-.48-1.5-.96-2.99-1.45-4.48zM70.08 69.67c2.01 2.14 3.98 4.32 5.82 6.61l.32.39-.86.38c-2.88 1.22-5.64 2.7-8.37 4.24-1.21-1.42-2.43-2.83-3.71-4.19l-.36-2.06c.57.33 1.69.99 2.26 1.32 1.43 1.59 4.74 1.49 4.67-1.16.09-1.35.16-2.7.22-4.06l.01-1.47zM20.97 72.35c2.04-.07 4.09-.14 6.13-.23.03 2.64.04 5.29-.29 7.91-1.46-2.06-2.7-4.28-3.53-6.67-.73 1.03-1.47 2.07-2.17 3.13-.06-1.38-.1-2.76-.14-4.14zM88.77 76.9c.69.04 2.06.13 2.74.17l-.17.89c-1.44.3-2.7 1.03-3.88 1.9.45.68 1.35 2.05 1.8 2.73-.22.31-.67.93-.9 1.24l-.81 1.3c-.33-.04-.97-.13-1.3-.18.16-.33.48-1 .64-1.34-.58-2.47.75-4.65 1.88-6.71z"/>
    </g>
    <path fill="#9c1f24" d="M71.17 38.85c2.72.83 5.38 1.87 8.06 2.82.48.8.96 1.6 1.45 2.39-3.97 4.28-8.81 7.62-12.7 11.97 4.43-.14 8.57-1.76 12.33-4.01.56 1.38 1.08 2.78 1.65 4.15 1.95.97 3.98 1.84 5.71 3.19-.07 1.81-.45 3.59-.8 5.36l-.06.3c-.6.61-1.2 1.23-1.79 1.84l-.14-.11c-1.28-1.24-2.74-2.38-4.61-1.85-2.27-4.27-7.49-3.26-11.52-3.31-.31.67-.91 2.02-1.22 2.69-1.98-2.37-3.92-4.77-5.82-7.19.35-.53 1.05-1.58 1.4-2.11 3.22-4.44 5.05-9.64 7.17-14.65.22-.37.67-1.11.89-1.48z"/>
    <path fill="#1a0505" opacity=".86" d="M108.35 38.83l.1.22c.54 1.18 1.09 2.37 1.64 3.55l.17.39c-1.46.42-2.93.85-4.39 1.27.83-1.81 1.67-3.62 2.48-5.43z"/>
    <g fill="#83191b">
        <path d="M79.23 41.67c5.11 1.81 10.17 3.75 15.32 5.44-3.47 3.34-1.68 8.23-3.13 12.31-1.03 2.14-2.85 3.71-4.55 5.3.35-1.77.73-3.55.8-5.36-1.73-1.35-3.76-2.22-5.71-3.19-.57-1.37-1.09-2.77-1.65-4.15-3.76 2.25-7.9 3.87-12.33 4.01 3.89-4.35 8.73-7.69 12.7-11.97-.49-.79-.97-1.59-1.45-2.39zM35.26 101.01c2.2.52 2.8-1.58 3.96-2.74-.12 1.09-.37 3.28-.49 4.37l2.31.2c1.41 1.42 2.95 2.86 3.28 4.94 2.6-.76 7-1.08 7.46 2.45-1.56 3.45-7.08 2.1-7.95-1.36-1.06.05-3.19.14-4.25.19.93-.74 2.78-2.22 3.71-2.97-.94-.73-1.87-1.49-2.87-2.15-.62.8-1.85 2.4-2.47 3.2-.08-1.42-.14-2.83-.2-4.25-.83-.63-1.65-1.26-2.49-1.88m10.97 6.95c-.02.8-.04 2.4-.05 3.2 2.1.41 4.11-.03 3.83-2.68-1.26-.18-2.52-.36-3.78-.52z"/>
    </g>
    <path fill="#0b0203" opacity=".33" d="M59.65 57.86c1.15-.97 2.29-1.93 3.46-2.88-.35.53-1.05 1.58-1.4 2.11 1.9 2.42 3.84 4.82 5.82 7.19 2.88 3.48 5.57 7.14 8.9 10.21-.13.45-.4 1.34-.53 1.79-1.84-2.29-3.81-4.47-5.82-6.61-3.51-3.9-6.96-7.87-10.43-11.81z"/>
    <path fill="#7c1b1f" opacity=".91" d="M54.07 56.87c.82.09 2.47.28 3.29.38-1.34 1.19-2.69 2.37-4.09 3.51-.15-1.41.11-2.7.8-3.89z"/>
    <path fill="#100404" opacity=".35" d="M57.36 57.25c.48.23 1.44.7 1.93.94-1.83 1.9-4.52 3.27-5.25 5.97 2.59 3.86 5.25 7.9 8.88 10.88l.36 2.06c1.28 1.36 2.5 2.77 3.71 4.19 2.73-1.54 5.49-3.02 8.37-4.24-.21.31-.62.93-.83 1.24-1.78 1.3-3.68 2.43-5.53 3.64-1.18-.2-2.38-.34-3.55-.6-3.1-3.18-5.75-6.76-8.75-10.03-1.47-1.77-2.87-3.59-4.35-5.34.47-1.49.94-2.99 1.69-4.36-.19-.21-.57-.63-.77-.84 1.4-1.14 2.75-2.32 4.09-3.51z"/>
    <g fill="#ad2831">
        <path d="M59.29 58.19l.36-.33c3.47 3.94 6.92 7.91 10.43 11.81l-.01 1.47c-1.79-.78-3.94-2.83-5.76-.98-1.69.98-1.02 3.28-1.39 4.88-3.63-2.98-6.29-7.02-8.88-10.88.73-2.7 3.42-4.07 5.25-5.97m-1.47 3.39c-1.23 1.29-1.73 3.54.06 4.57 2 1.91 5.02-.62 4.05-3.07.23-1.73-3.31-3.11-4.11-1.5zM91.72 62.94l.96.1c-.23 1.34-.45 2.69-.68 4.04l.3.14c.35.49 1.07 1.47 1.42 1.96 2.04 1.88.68 4.56.22 6.8-.78 0-2.32.01-3.09.01.16-.31.49-.94.65-1.25.56 0 1.69.01 2.25.01.07-1.18.13-2.36.19-3.54l-3.61-.76c.65-.32 1.94-.97 2.59-1.3-2.12-1.51-1.54-4.04-1.2-6.21z"/>
    </g>
    <g fill="#8c1c1e">
        <path d="M92.95 59.37c1.19.04 2.38.17 3.57.31l-2.03 1.67 1.6 1.6c-.24 2.3.28 5.19-2.37 6.23-.35-.49-1.07-1.47-1.42-1.96l3.02.2c-.15-1.37-.32-2.72-.52-4.08-.53-.08-1.59-.23-2.12-.3l-.96-.1 2.08-1.76-.85-1.81zM68.75 61.59c4.03.05 9.25-.96 11.52 3.31 1.87-.53 3.33.61 4.61 1.85-2.59 2.83-5.66 5.13-8.45 7.74-3.33-3.07-6.02-6.73-8.9-10.21.31-.67.91-2.02 1.22-2.69zM52.35 65.96c1.48 1.75 2.88 3.57 4.35 5.34.02 2.57.81 5.05 1.13 7.58-.55 2.28-1.94 4.23-3.03 6.27-5.65.61-11.61 1.27-17.08-.68-1.59-.56-3.17-1.13-4.78-1.61-.57-.14-1.72-.43-2.29-.57l-1.99-.45c-.05-2.65-.05-5.3-.05-7.95 8.66.79 17.11-2.49 23.74-7.93zM16.17 68.86c1.03 1.12 2.05 2.25 3.09 3.37-.13 1.49-.26 2.98-.47 4.46-.25.45-.76 1.35-1.01 1.8-.37-1.14-.86-2.24-1.3-3.35-.29-2.08-.25-4.19-.31-6.28z"/>
    </g>
    <path fill="#190606" opacity=".43" d="M57.82 61.58c.8-1.61 4.34-.23 4.11 1.5-1.46-.2-2.88-.69-4.11-1.5z"/>
    <path fill="#050202" opacity=".36" d="M19.26 72.23l1.71.12c.04 1.38.08 2.76.14 4.14l.02.65c-.59-.11-1.76-.34-2.34-.45.21-1.48.34-2.97.47-4.46z"/>
    <g fill="#601410">
        <path d="M57.83 78.88c-.32-2.53-1.11-5.01-1.13-7.58 3 3.27 5.65 6.85 8.75 10.03-3.37 1.74-7 2.88-10.65 3.82 1.09-2.04 2.48-3.99 3.03-6.27zM21.11 76.49c.7-1.06 1.44-2.1 2.17-3.13.83 2.39 2.07 4.61 3.53 6.67.14.43.41 1.3.55 1.73-2.18-1.38-4.41-2.77-6.23-4.62l-.02-.65zM69 81.93c1.85-1.21 3.75-2.34 5.53-3.64 2.6 3.86-2.9 5.37-5.53 3.64z"/>
    </g>
    <path fill="#130505" opacity=".47" d="M16.48 75.14c.44 1.11.93 2.21 1.3 3.35-1.5 2.27-3.16-2.45-1.3-3.35z"/>
    <path fill="#490e13" opacity=".7" d="M65.18 76.36c1.54-.44 3.09-.9 4.67-1.16.07 2.65-3.24 2.75-4.67 1.16z"/>
    <path fill="#25080a" opacity=".67" d="M30.65 82.29c.57.14 1.72.43 2.29.57-.02 1.53-.05 3.05-.08 4.58-.96-.79-1.91-1.6-2.86-2.4.16-.69.48-2.07.65-2.75z"/>
    <path fill="#5b1214" opacity=".75" d="M32.94 82.86c1.61.48 3.19 1.05 4.78 1.61-.17 2.07-1.66 3.04-3.5 3.56 2.27 1.82 3.02 5.59.93 7.81.68.15 2.04.43 2.72.58-1.18.58-2.36 1.17-3.53 1.76 2.07 1.19.21 2.49-.47 3.54-.35-1.88-.46-3.78-.33-5.68-1.74-1.59-2.29-3.85-2.75-6.07l2.05-1.37c0-.29.01-.87.02-1.16.03-1.53.06-3.05.08-4.58m.91 10.95c1.41-.21 1.76-2.36.94-3.32-2.11-.93-3.3 2.98-.94 3.32z"/>
    <path opacity=".09" d="M83.98 87.38c.16-1.03 1.43-2.85 2.49-1.6.2 1.11-.02 2.18-.66 3.2-.46-.4-1.37-1.2-1.83-1.6z"/>
    <path fill="#b52829" d="M83.07 89.78c.23-.6.69-1.8.91-2.4.46.4 1.37 1.2 1.83 1.6l.1.94c-.71.03-2.12.1-2.82.14.15.74.44 2.22.59 2.96l.11.57c-.74 1.06-1.44 2.14-2.16 3.22-.69-.05-2.06-.13-2.75-.18.17.57.52 1.72.69 2.29-1.2 1.3-2.43 2.58-3.67 3.85l-2.4-.9c.48 3.31-4.11 6.33-6.75 4.14-.02.62-.07 1.86-.09 2.48-1.57.72-3.13 1.43-4.69 2.17-.53-.39-1.59-1.18-2.12-1.57-.33.63-1 1.9-1.33 2.54-1.92.09-3.84.2-5.75.42-.27-1.15-.84-2.39-.27-3.56 2.07-1.04 4.65-1.22 6.73-.07 1.52-2.66 4.68-3.6 7.59-3.24.01-.49.05-1.47.06-1.96 1.87-.61 3.77-3.09 5.78-1.54.25-2.94 2.7-5.67 5.72-5.82-.11-2.38 1.61-6.56 4.51-5.58l.18-.5m-3.36 4.41c.46.11 1.39.31 1.85.42 1.54-.33 1.46-2.52.2-3.13-1.22.07-2.04 1.6-2.05 2.71m-5.74 5.21l1.77 2.46c.99-1.04 1.99-2.08 2.98-3.13l-2.09-1.77c-.89.81-1.77 1.63-2.66 2.44m-4.72 6.19c1.19.1 2.8-1.44 1.8-2.57-1.56-1.29-3.87 1.79-1.8 2.57m-7.8 1.65c-.13 2.46 4.86 1.68 2.78-.65-1.07-.44-1.99-.22-2.78.65m-7.56 2.51c.37 1.43 2.52 1.64 3.64 1.03.59-2.01-3.16-3.3-3.64-1.03z"/>
    <path fill="#030101" opacity=".16" d="M33.85 93.81c-2.36-.34-1.17-4.25.94-3.32.82.96.47 3.11-.94 3.32z"/>
    <path fill="#010000" opacity=".13" d="M79.71 94.19c.01-1.11.83-2.64 2.05-2.71 1.26.61 1.34 2.8-.2 3.13-.46-.11-1.39-.31-1.85-.42z"/>
    <path opacity=".13" d="M73.97 99.4c.89-.81 1.77-1.63 2.66-2.44l2.09 1.77c-.99 1.05-1.99 2.09-2.98 3.13l-1.77-2.46z"/>
    <path fill="#040101" opacity=".12" d="M69.25 105.59c-2.07-.78.24-3.86 1.8-2.57 1 1.13-.61 2.67-1.8 2.57z"/>
    <path opacity=".14" d="M61.45 107.24c.79-.87 1.71-1.09 2.78-.65 2.08 2.33-2.91 3.11-2.78.65z"/>
    <path opacity=".11" d="M53.89 109.75c.48-2.27 4.23-.98 3.64 1.03-1.12.61-3.27.4-3.64-1.03z"/>
</svg>
