<svg width="128pt" height="128pt" viewBox="0 0 128 128" xmlns="http://www.w3.org/2000/svg">
    <g fill="#fff">
        <path d="M71.09 38.83c9.33 3.23 18.65 6.55 27.88 10.07-6.25 9.72-13.67 19.23-23.53 25.46-4.22-5.93-9.03-11.43-13.77-16.93 4.16-5.66 6.75-12.16 9.42-18.6zM28.78 74c8.77.88 17.2-2.77 23.97-8.1 3.62 5.6 8.68 10.12 12.47 15.57-8.8 4.11-18.93 5.44-28.37 2.94-2.72-.74-5.32-1.83-8.02-2.63-.12-2.59-.08-5.18-.05-7.78zM16.18 68.94c1.02 1.2 2.05 2.38 3.1 3.55-.05 1.39-.12 2.79-.2 4.18-.57.49-1.71 1.48-2.28 1.97-.25-3.23-.42-6.47-.62-9.7z"/>
    </g>
</svg>
