<svg width="128pt" height="128pt" viewBox="0 0 128 128" xmlns="http://www.w3.org/2000/svg">
    <g fill="#c62831">
        <path d="M84.66 35.33c4.55-3.5 10.03-5.5 15.64-6.5.55 1.19 1.12 2.38 1.69 3.57-1.6.67-3.25 1.21-4.97 1.46-.28.27-.84.8-1.13 1.07-2.62.07-4.85 2.35-7.46 1.85 3.09-3.17 8.48-3.87 12.61-5.61-5.11.01-9.36 3.24-14.2 4.4-1.4 1.72-3.24 2.97-5.21 3.95 1.49 1.12 2.89 2.37 4.31 3.58 3.3-1.38 6.67-2.65 10.22-3.23-1.18 1.12-2.29 2.32-3.23 3.66-2.75.48-5.5 1.02-8.25 1.52l-.11 1.07c2.61-.37 5.22-.7 7.83-1.12-.16.49-.48 1.47-.65 1.96-3.39.24-6.83-.05-10.03-1.29.54.62 1.61 1.88 2.15 2.5-1.78-.43-3.55-.94-5.23-1.67 2.19-1.03 4.43-1.95 6.69-2.82-1.16-.77-2.36-1.46-3.6-2.07-.11-.09-.34-.25-.45-.34l.45.34 1.21 2.82c-1.46-1.04-2.8-2.25-3.95-3.63l-.27-.31c1.79-1.66 3.56-3.37 5.52-4.84.1-.08.31-.24.42-.32z"/>
        <path d="M95.89 34.93c2.29-.12 4.58-.33 6.88-.29-1.08 1.22-2.47 1.58-4.19 1.1L96.7 37.1c-.55-.1-1.64-.3-2.19-.39.44-.61.9-1.2 1.38-1.78zM92.26 37.26c.26.26.26.26 0 0zM86.55 40.16c-.48-.56-2.27-1.87-.67-2.31 1.26.45 2.16 1.53 3.16 2.38.76 1.97-1.74 1.68-2.96 1.59.11-.42.35-1.25.47-1.66zM88.47 37.89c1.54.25 3.07.62 4.57 1.09-.1.89-.72 1.22-1.85.98-1.21-.33-2.11-1.02-2.72-2.07zM69.49 67.5c.99.93 1.97 1.87 2.94 2.82 1.24-.15 2.47-.31 3.7-.47-.04 2.17-.25 4.34-.89 6.42-1.11 2.33-2.33 4.61-3.43 6.95-1.5-1.83-2.96-3.7-4.36-5.61 1.26-3.23 1.97-6.65 2.04-10.11zM65.23 75.95c.55-.29 1.66-.89 2.21-1.18-.84 2.24-2 4.33-3.47 6.22-.94.99-1.8 2.04-2.58 3.16l-.88-1.73-.51.31-.08-.22 1-1.4.65-.57c1.56-1.22 2.69-2.88 3.66-4.59z"/>
        <path d="M63.97 80.99c.57-.36 1.71-1.08 2.27-1.45-.37 1.36-.75 2.71-1.14 4.06.39.9.78 1.79 1.19 2.68-.97 1.96-1.88 3.95-2.75 5.95-.21-.44-.62-1.33-.83-1.77 1-2.03 1.91-4.1 2.55-6.27-1.81 1.62-3.05 3.7-3.91 5.95l-1.24-2.68-.13-.29c.17-.23.52-.7.7-.93 1.19-1.69 2.25-3.46 3.29-5.25z"/>
    </g>
    <path fill="#2e0a0c" opacity=".64" d="M100.3 28.83c3.16-.19 2.45 3.77 2.66 5.81h-.19c-2.3-.04-4.59.17-6.88.29.29-.27.85-.8 1.13-1.07 1.72-.25 3.37-.79 4.97-1.46-.57-1.19-1.14-2.38-1.69-3.57z"/>
    <path opacity=".22" d="M86.84 35.57c4.84-1.16 9.09-4.39 14.2-4.4-4.13 1.74-9.52 2.44-12.61 5.61 2.61.5 4.84-1.78 7.46-1.85-.48.58-.94 1.17-1.38 1.78.55.09 1.64.29 2.19.39-1 .65-2.17 1.16-2.66 2.31 1.93-.01 3.86-.03 5.79-.08 0 .3.02.89.02 1.19-1.19-.49-2.42-.71-3.69-.65-3.55.58-6.92 1.85-10.22 3.23-1.42-1.21-2.82-2.46-4.31-3.58 1.97-.98 3.81-2.23 5.21-3.95m5.42 1.69c.26.26.26.26 0 0m-5.71 2.9c-.12.41-.36 1.24-.47 1.66 1.22.09 3.72.38 2.96-1.59-1-.85-1.9-1.93-3.16-2.38-1.6.44.19 1.75.67 2.31m1.92-2.27c.61 1.05 1.51 1.74 2.72 2.07 1.13.24 1.75-.09 1.85-.98-1.5-.47-3.03-.84-4.57-1.09zM68.07 60.77l.8.92c.33 1.92.53 3.86.62 5.81-.07 3.46-.78 6.88-2.04 10.11-1.56 3.43-.79 7.61 2.13 10.06-.13.36-.4 1.09-.53 1.45-.94-.93-1.87-1.87-2.76-2.84-.41-.89-.8-1.78-1.19-2.68.39-1.35.77-2.7 1.14-4.06-.56.37-1.7 1.09-2.27 1.45 1.47-1.89 2.63-3.98 3.47-6.22-.55.29-1.66.89-2.21 1.18l.24-.48c.47-.96 1.41-2.89 1.88-3.86l-2.38 1.66c.75-1.09 1.74-1.95 2.79-2.73.75-2.77.77-5.65.2-8.46l.11-1.31zM72.23 64.22c1.16.52 2.1 1.39 3.13 2.11.27.03.81.08 1.08.1-.13 3.28 1.27 7.16-1.2 9.84.64-2.08.85-4.25.89-6.42-.67-2.27-2.6-3.74-3.9-5.63z"/>
    <path opacity=".22" d="M61.39 84.15c.78-1.12 1.64-2.17 2.58-3.16-1.04 1.79-2.1 3.56-3.29 5.25.31-1.26.14-2.57-.17-3.82l.88 1.73z"/>
    <path fill="#2f0a0b" opacity=".71" d="M84.24 35.65c.1-.08.31-.24.42-.32-.11.08-.32.24-.42.32z"/>
    <g fill="#971d1b">
        <path d="M96.7 37.1c1.66-.28 3.34-.49 5.02-.63-.47.72-1.42 2.15-1.89 2.86-1.93.05-3.86.07-5.79.08.49-1.15 1.66-1.66 2.66-2.31zM69.58 87.67c-2.92-2.45-3.69-6.63-2.13-10.06 1.4 1.91 2.86 3.78 4.36 5.61-.72 1.49-1.47 2.97-2.23 4.45z"/>
    </g>
    <g fill="#76181b">
        <path d="M96.16 39.87c1.27-.06 2.5.16 3.69.65-1.35 2.03-3.51 3-5.89 3.03 1.35-.07 2.52.3 3.52 1.11-.45.37-1.35 1.11-1.81 1.48-1.21.62-2.58.76-3.92.82.17-.49.49-1.47.65-1.96.13-.37.4-1.1.53-1.47.94-1.34 2.05-2.54 3.23-3.66zM63.3 54.97l1.95.24.05.51.12 1.18c.68 1.81 1.62 3.49 2.54 5.18.57 2.81.55 5.69-.2 8.46-1.05.78-2.04 1.64-2.79 2.73-1.78 1.06-2.61-.76-3.5-1.87 2.3-2.78 5.4-6.8 3.09-10.43-.32.43-.95 1.31-1.26 1.75-.76-1.04-1.58-2.05-2.52-2.93-.45 2.47-1.19 4.86-1.99 7.24-.65-1.94-1.28-3.99-.84-6.05 1.12-2.51 3.38-4.2 5.35-6.01zM57.08 82.54c.71-2.35 1.53-4.9 3.68-6.33-.29 1.34-.88 2.87.31 3.97l.5.36-.65.57c-1.33.34-2.58.89-3.84 1.43zM57.26 88.51c-.01-2.17.95-4.5 2.74-5.78l.51-.31c.31 1.25.48 2.56.17 3.82-.18.23-.53.7-.7.93-.68.34-2.04 1-2.72 1.34z"/>
    </g>
    <path fill="#741a1d" d="M76.06 42c.58-.43 1.73-1.29 2.31-1.72l-.07 1.97c-.34 3.76-1.05 7.65-3.31 10.78-1.48 1.93-3.15 3.71-4.63 5.65-.64.07-1.91.22-2.55.3 2.32-4.25 5.37-8.03 8.06-12.03 1.21-1.43.21-3.31.19-4.95z"/>
    <g fill="#350c0c">
        <path opacity=".7" d="M78.99 40.8c1.15 1.38 2.49 2.59 3.95 3.63l-1.21-2.82c1.24.61 2.44 1.3 3.6 2.07-2.26.87-4.5 1.79-6.69 2.82 1.68.73 3.45 1.24 5.23 1.67-.54-.62-1.61-1.88-2.15-2.5 3.2 1.24 6.64 1.53 10.03 1.29 1.34-.06 2.71-.2 3.92-.82-.34.78-.67 1.57-.99 2.36-1.84-.28-3.7-.51-5.56-.62-3.34-.21-6.68 1.73-9.93.34-.39.96-.79 1.92-1.18 2.88 3.28-.12 6.58-.13 9.86-.01 1.33.04 2.66.04 3.99.01-.01.41-.02 1.23-.03 1.64-4.84-1.23-9.87-.6-14.81-.75l-.03.96c4.11-.12 8.17.53 12.2 1.23-.05.46-.14 1.39-.18 1.86l-.56-.26c-4.26-2.55-9.54-2.46-14.12-.86 2.97 3 7.12 1.74 10.76 1.16-1.68.59-3.34 1.21-4.98 1.88-2.2-.47-4.43-1.22-6.71-.97-1.58 1.1-1.34 3.17-1.74 4.82 2.25-.53 4.71-.52 6.5 1.17 1.08-.22 2.17-.47 3.24-.72-.52 1.6-2 2.52-3.28 3.47-1.76-.03-3.27-.91-4.74-1.77-.57-.18-1.73-.53-2.31-.71l-2.2-1.56-.8-.92-.11 1.31c-.92-1.69-1.86-3.37-2.54-5.18l-.12-1.18c.5.37 1.5 1.09 2.01 1.45 2.32-4.4 6.11-7.84 8.13-12.43-.61.26-1.81.79-2.42 1.05 1.05-1.23 2.04-2.51 3.04-3.79.02 1.64 1.02 3.52-.19 4.95-2.69 4-5.74 7.78-8.06 12.03.64-.08 1.91-.23 2.55-.3 1.48-1.94 3.15-3.72 4.63-5.65 2.26-3.13 2.97-7.02 3.31-10.78.17-.37.52-1.09.69-1.45zM66.29 86.28c.89.97 1.82 1.91 2.76 2.84-.41 2.28.7 5.36-1.23 7.05.94-.72.13-4.37-.84-2.22.04.52.13 1.57.17 2.1l-1.06-.83c.41-2.39.82-4.78 1.04-7.2-1.4 1.83-2.07 4.03-2.59 6.24-.25-.51-.75-1.52-1-2.03.87-2 1.78-3.99 2.75-5.95z"/>
    </g>
    <path fill="#230e09" opacity=".62" d="M81.28 41.27c.11.09.34.25.45.34l-.45-.34z"/>
    <path fill="#501211" opacity=".75" d="M84.68 45.05c2.75-.5 5.5-1.04 8.25-1.52-.13.37-.4 1.1-.53 1.47-2.61.42-5.22.75-7.83 1.12l.11-1.07z"/>
    <path fill="#b6282e" d="M73.02 45.79c.61-.26 1.81-.79 2.42-1.05-2.02 4.59-5.81 8.03-8.13 12.43-.51-.36-1.51-1.08-2.01-1.45l-.05-.51c.29-2.05 1.49-3.81 3.04-5.13 1.01-.85 1.95-1.78 2.8-2.79.48-.37 1.45-1.12 1.93-1.5z"/>
    <path fill="#010000" opacity=".3" d="M68.29 50.08c-1.39-1.56 1.25-4.26 2.8-2.79-.85 1.01-1.79 1.94-2.8 2.79z"/>
    <path fill="#300b0d" opacity=".54" d="M50.6 49.25c.12-.5.39-.95.8-1.34.38.53 1.13 1.58 1.5 2.11-1.32 1.11-2.54 2.35-3.59 3.72.39.62 1.19 1.84 1.59 2.46-1.04-.91-1.97-1.93-2.88-2.95-6.06-.19-12.1-.84-18.14-1.18-.34-.23-1.02-.68-1.36-.91 1.41-.16 2.82-.23 4.23-.21.29.03.87.08 1.15.11 4.75 1.71 9.92 1.06 14.83 2.06.47-.61 1.43-1.84 1.91-2.46l-.04-1.41z"/>
    <path fill="#bd252c" d="M51.4 47.91c5.37-1.74 11.52.93 13.9 6.03-3.73.9-5.82 4.39-8.31 6.98-2.26-1.25-4.51-2.64-6.09-4.72-.4-.62-1.2-1.84-1.59-2.46 1.05-1.37 2.27-2.61 3.59-3.72-.37-.53-1.12-1.58-1.5-2.11m2.82 3.94h2.55c1.01-1.86-3.71-1.89-2.55 0z"/>
    <path fill="#ae2124" d="M79.19 48.22c3.25 1.39 6.59-.55 9.93-.34-.41 1.07-.83 2.14-1.25 3.21-3.28-.12-6.58-.11-9.86.01.39-.96.79-1.92 1.18-2.88z"/>
    <path fill="#7b1a1b" opacity=".97" d="M89.12 47.88c1.86.11 3.72.34 5.56.62-.75 1.09-1.69 1.96-2.82 2.6-1.33.03-2.66.03-3.99-.01.42-1.07.84-2.14 1.25-3.21z"/>
    <path fill="#100404" opacity=".31" d="M32.75 50.95c5.27-.94 10.73-.54 16.07-.94-.14.46-.44 1.39-.58 1.86-.5-.27-1.5-.8-2-1.07-4.11.24-8.22.23-12.34.26-.28-.03-.86-.08-1.15-.11z"/>
    <path fill="#8c1e23" opacity=".98" d="M48.82 50.01l1.78-.76.04 1.41c-.48.62-1.44 1.85-1.91 2.46-4.91-1-10.08-.35-14.83-2.06 4.12-.03 8.23-.02 12.34-.26.5.27 1.5.8 2 1.07.14-.47.44-1.4.58-1.86z"/>
    <path fill="#1a0707" opacity=".46" d="M54.22 51.85c-1.16-1.89 3.56-1.86 2.55 0h-2.55z"/>
    <path fill="#7b1a1c" d="M77.02 51.99c4.94.15 9.97-.48 14.81.75l-2.64 1.44c-4.03-.7-8.09-1.35-12.2-1.23l.03-.96z"/>
    <path fill="#681618" opacity=".97" d="M74.33 54.92c4.58-1.6 9.86-1.69 14.12.86-1.21.96-2.39 1.96-3.51 3.02l-4.83-.84c1.64-.67 3.3-1.29 4.98-1.88-3.64.58-7.79 1.84-10.76-1.16z"/>
    <path fill="#4d1113" opacity=".87" d="M73.4 56.99c2.28-.25 4.51.5 6.71.97 1.45.39 2.91.75 4.38 1.11-1 1.08-1.97 2.21-3.09 3.19-1.07.25-2.16.5-3.24.72-1.79-1.69-4.25-1.7-6.5-1.17.4-1.65.16-3.72 1.74-4.82z"/>
    <g fill="#a72126">
        <path d="M60.78 59.79c.94.88 1.76 1.89 2.52 2.93.31-.44.94-1.32 1.26-1.75 2.31 3.63-.79 7.65-3.09 10.43-.93-1.43-1.92-2.84-2.68-4.37.8-2.38 1.54-4.77 1.99-7.24zM68.87 61.69l2.2 1.56c.58.18 1.74.53 2.31.71 1.47.86 2.98 1.74 4.74 1.77-.42.18-1.26.53-1.68.7-.27-.02-.81-.07-1.08-.1-1.03-.72-1.97-1.59-3.13-2.11 1.3 1.89 3.23 3.36 3.9 5.63-1.23.16-2.46.32-3.7.47-.97-.95-1.95-1.89-2.94-2.82-.09-1.95-.29-3.89-.62-5.81z"/>
    </g>
    <path fill="#b8272c" d="M64.97 73.27l2.38-1.66c-.47.97-1.41 2.9-1.88 3.86l-.24.48c-2.08.27-3.98 2.13-4.16 4.23-1.19-1.1-.6-2.63-.31-3.97 1.38-1.01 2.82-1.94 4.21-2.94z"/>
    <path fill="#2d0a0a" opacity=".67" d="M61.35 90.14c.86-2.25 2.1-4.33 3.91-5.95-.64 2.17-1.55 4.24-2.55 6.27-.7 1.41-1.4 2.83-2.01 4.29-.76-.2-2.28-.6-3.04-.79l.33-.22c1.43-.87 2.93-1.86 3.36-3.6z"/>
    <g>
        <path fill="#621517" d="M60.11 87.46l1.24 2.68c-.43 1.74-1.93 2.73-3.36 3.6-.02-2.26.44-4.64 2.12-6.28z"/>
    </g>
    <g>
        <path fill="#5d1417" opacity=".96" d="M64.54 94.26c.52-2.21 1.19-4.41 2.59-6.24-.22 2.42-.63 4.81-1.04 7.2l-.36 1.97c-.75-.58-1.49-1.16-2.23-1.74-1.14.91-2.39 1.63-3.84 1.93.26-.66.78-1.98 1.04-2.63.61-1.46 1.31-2.88 2.01-4.29.21.44.62 1.33.83 1.77.25.51.75 1.52 1 2.03z"/>
    </g>
    <g>
        <path fill="#5a1418" d="M66.98 93.95c.97-2.15 1.78 1.5.84 2.22l-.67-.12c-.04-.53-.13-1.58-.17-2.1z"/>
    </g>
</svg>
