<svg width="128pt" height="128pt" viewBox="0 0 128 128" xmlns="http://www.w3.org/2000/svg">
    <g fill="#fff">
        <path d="M74.86 44.56c.71-1.45 1.48-2.87 2.26-4.28l1.8 2.48-.94 1.41 1.34.57c-.96.94-3.33 1.78-3.04-.59-.9 2.01-2.46 3.59-3.58 5.46-1.84 2.77-3.86 5.41-5.91 8.02-2.14-1.83-1.17-4.59.44-6.35 2.27-2.53 4.67-5.01 7.63-6.72z"/>
        <path d="M73.19 50.24c1.32-1.27 2.31-4.2 4.56-3.41-.1.96-.31 1.9-.62 2.83-.46.99-.9 1.99-1.31 3-1.77 2.43-4.19 4.35-5.55 7.08-1.32-2.05-2.58-.68-3.68.09 2.52 2.88 1.65 7.31 1.27 10.85-1.56.99-3.09 2.04-4.61 3.1-2.69-3.82-5.99-7.93-5.25-12.94 2.25-2.18 3.63-5.35 6.89-6.3.47 1.48.97 2.96 1.52 4.42 1.75-.8 2.53-2.44 3.36-4.04 1.74-1.09 2.54-2.92 3.42-4.68z"/>
        <path d="M49.76 49.71c4.95-4.47 12.71-1.46 15.44 4.01-3.6 1.18-5.66 4.53-8.33 6.97-3.15-1.67-6.67-3.97-7.55-7.65 1.12-1.28 2.48-2.31 3.6-3.59-.79.07-2.37.2-3.16.26m4.46 2.2c.62-.01 1.87-.01 2.49-.02 1.16-1.88-3.74-1.86-2.49.02zM68.88 61.53c2.81 3.13 7.92 5.51 7.16 10.48-.62 5.71-4.4 10.51-6.6 15.71-2.45-2.47-3.5-6.18-2.13-9.48 1.99-5.3 2.74-11.13 1.57-16.71z"/>
    </g>
</svg>
