<svg width="128pt" height="128pt" viewBox="0 0 128 128" xmlns="http://www.w3.org/2000/svg">
    <path fill="#9d9d9d" opacity=".62" d="M106.22 36.1c3.08-1.46.02 3.33 0 0z"/>
    <path fill="#e3e3e3" opacity=".89" d="M106.2 37.85c1.98-.24 3.96-.55 5.91-.96-1.73 2.06-3.06 4.42-4 6.94l-1.69-.49c.45-1.83.13-3.67-.22-5.49z"/>
    <path fill="#c2c2c2" opacity=".76" d="M94.19 61.48c1.5-1.18 2.92 1.46 1.6 2.46-1.52 1.2-2.97-1.47-1.6-2.46z"/>
    <path fill="#acacac" opacity=".67" d="M88.08 64.83c1.1-1.48 3.61.19 2.31 1.7-1.06 1.88-3.93-.16-2.31-1.7z"/>
    <path fill="#b5b5b5" opacity=".71" d="M85.71 69.94c1.53-1.41 3.7 1.3 1.81 2.36-1.48 1.11-3.35-1.24-1.81-2.36z"/>
    <path fill="#c7c7c7" opacity=".78" d="M83.06 74.54c1.56-1.83 3.77 1.6 1.66 2.51-1.54.85-2.68-1.4-1.66-2.51z"/>
</svg>
