<svg width="128pt" height="128pt" viewBox="0 0 128 128" xmlns="http://www.w3.org/2000/svg">
    <g fill="#6b1821">
        <path d="M26.73 16.3c2.4.04 4.83-.27 7.22.12 2.52.77 4.33 2.84 6.11 4.67-4.11-2.59-9.16-2.41-13.33-4.79zM44.81 49.95c1.77.31 3.54.64 5.3.99-.1 1.33-.19 2.66-.29 3.99-1.74-.46-4.22.01-5.15-1.95.04-.76.11-2.27.14-3.03zM79.17 50.48c1.59.17 4.95-1.27 5.01 1.36-.51 3.13-3.94 3.08-6.35 2.65.29-.38.88-1.13 1.18-1.5-.06-.26-.19-.78-.25-1.05l.41-1.46z"/>
    </g>
    <g fill="#721c21">
        <path d="M94.41 16.5c2.12-.49 4.33-.11 6.49-.18.17.18.52.54.7.72-4.74 1.03-9.77 1.55-13.6 4.84 1 1.47 2.08 3.27.88 4.97-2.04 4-5.31 7.16-8.3 10.43-1.47.26-2.94.56-4.42.77-2.09-.55-2.35-2.43-2.28-4.32l2.32-.04c1.38.78 2.3 2.13 3.35 3.27 3.86-3.76 7.21-8.6 6.88-14.25 2.75-1.96 4.67-5.1 7.98-6.21zM30.33 63.21c3.28-5.3 8.72-8.77 14.07-11.71-2.28 4.44-7.94 6.32-9.41 11.41-.63.7-1.31 1.34-2.03 1.93-.9-.51-1.78-1.06-2.63-1.63zM101.54 77.59c-1.03-2.39-.96-4.9.09-7.28.87 2.28 1.98 5.28-.09 7.28z"/>
    </g>
    <g fill="#551113">
        <path d="M57.44 17.47c3.43-1.53 4.56 3 5.71 5.26-.88-.07-1.76-.15-2.64-.24-.26-1.45-.53-2.89-.81-4.33-2.65 1.42-5.51 2.68-7.56 4.95-2.47 2.53-4.14 6.02-7.62 7.37 2.57-5.67 7.33-10.34 12.92-13.01zM65.48 22.83c.8-2.4 2.12-4.59 4.09-6.21 6.19 2.82 11.46 7.69 14.52 13.79-3.43-.74-4.73-4.28-6.99-6.54-2.17-2.58-5.15-4.27-8.19-5.61-.37 1.55-.71 3.11-1.01 4.67-.61-.03-1.82-.07-2.42-.1zM59.17 24.98c2.19-.71 4.51-1.5 6.84-1.04 1.92.6 3.48 1.92 5.15 2.97.55 1.93 1.28 3.82 1.54 5.81.15 1.36.29 2.73.41 4.09-3.22-.13-6.48.41-8.71 2.97-2.34-2.54-5.71-3.07-9.01-2.98.13-1.34.27-2.68.42-4.01.42-2.29 1.33-4.45 1.96-6.69l1.4-1.12zM63.21 92.32c1.17-.01 2.35-.01 3.52 0l-.28.95c-1.46 6.13-.6 12.58-1.99 18.75-.08-1.47-.17-2.95-.1-4.42.61-4.93 1.27-9.87 1.15-14.85l-1.51.18c0 1.56 0 3.12-.01 4.68-.65-.58-1.29-1.18-1.92-1.78l-.12-.59c.43-.97.85-1.94 1.26-2.92z"/>
    </g>
    <g fill="#731821">
        <path d="M39.22 25.85c-.67-2 .94-3.55 2.71-4.06-.26 6.04 2.95 11.3 7.18 15.31.92-1.48 2.12-3.51 4.12-3.44l.67.23c.7 1.08.86 2.37.49 3.86-2.18.07-4.36-.05-6.51-.42-2.92-3.78-7.01-6.86-8.66-11.48zM27.56 69.76l.2.41c.55 2.69.94 5.73-.24 8.31-2.32-2.46-2.05-6.22.04-8.72z"/>
    </g>
    <path fill="#0f0405" opacity=".44" d="M60.51 22.49c.88.09 1.76.17 2.64.24.77.05 1.55.08 2.33.1.6.03 1.81.07 2.42.1.46.02 1.39.07 1.85.1l.24.97c.24 1.03.63 2 1.17 2.91-1.67-1.05-3.23-2.37-5.15-2.97-2.33-.46-4.65.33-6.84 1.04-.33-.28-1-.86-1.33-1.15.89-.45 1.78-.9 2.67-1.34z"/>
    <path fill="#992529" opacity=".8" d="M56.51 25.12l1.33-1.29c.33.29 1 .87 1.33 1.15l-1.4 1.12-.89-.17-.37-.81z"/>
    <g fill="#ff3842">
        <path d="M69.99 24c1.63-.94 3.23 2.75 1.17 2.91-.54-.91-.93-1.88-1.17-2.91zM74.66 76.12c-.48 3.51-1.9 6.83-3.83 9.78-.89.42-1.57 1.06-2.05 1.91-.24.34-.73 1.02-.97 1.36l-1.23-.16c-1.13-.14-2.25-.11-3.38.09-1.35.09-2.38-1.11-3.18-2.03-.33-.96-.92-1.7-1.77-2.23-1.86-2.53-2.65-5.63-3.49-8.6 2.5 3.15 4.69 6.98 8.52 8.68 5.59.99 8.79-4.85 11.38-8.8zM59.43 90.35c1.27.64 2.53 1.3 3.78 1.97-.41.98-.83 1.95-1.26 2.92l.12.59-.21.74c-1.76 2.39-3.34 5-3.95 7.94-.37-.5-.72-1-1.08-1.51 1.6-2.43 2.45-5.24 3.76-7.82.93-.91.23-2.22-.75-2.64-2.97 1.74-5.79 3.71-8.77 5.42l.13-.53c2.18-2.89 5.7-4.47 8.23-7.08zM68.34 91.15l2.48-.4c2.7 2.28 5.21 4.87 8.45 6.41-.37.34-.74.68-1.11 1.01-1.67-1.89-4.11-2.79-6.13-4.22-1.27-.89-2.48-1.84-3.69-2.8zM66.73 92.32l.77-.83c.67 1.6 1.38 3.19 2.08 4.78 1.59 3.65 3.12 7.31 4.81 10.91-.03.4-.08 1.21-.1 1.61-2.28-5.33-5.48-10.23-7.84-15.52l.28-.95z"/>
    </g>
    <path fill="#060102" opacity=".32" d="M53.23 33.66c.83-.39 1.69-.68 2.58-.87-.15 1.33-.29 2.67-.42 4.01 3.3-.09 6.67.44 9.01 2.98 2.23-2.56 5.49-3.1 8.71-2.97-.12-1.36-.26-2.73-.41-4.09 1.17.32 2.33.64 3.5.97l-2.32.04c-.07 1.89.19 3.77 2.28 4.32-.41.17-1.25.5-1.66.66-2.11-.15-4.22-.27-6.32-.08-1.67 1.3-3.47 2.93-3.17 5.27-.01 13.21-.06 26.41.05 39.61.99-.67 1.99-1.34 2.95-2.06 2.6-2.36 4.44-5.4 5.9-8.56.19.81.56 2.42.75 3.23-2.59 3.95-5.79 9.79-11.38 8.8-3.83-1.7-6.02-5.53-8.52-8.68.34-.2 1.04-.6 1.38-.79 1.86 3.3 4.54 6.06 7.73 8.11.19-12.54.01-25.07.13-37.6-.07-2.12.15-4.72-1.76-6.17-2.26-1.8-5.33-1.58-7.96-.86l.11-1.18c.37-1.49.21-2.78-.49-3.86l-.67-.23z"/>
    <g fill="#5b1115">
        <path d="M54.28 38.93c2.63-.72 5.7-.94 7.96.86 1.91 1.45 1.69 4.05 1.76 6.17-.12 12.53.06 25.06-.13 37.6-3.19-2.05-5.87-4.81-7.73-8.11-3.81-6.85-4.47-14.83-5.42-22.45.2-4.76-.38-10.59 3.56-14.07zM27.56 69.76c-.21-1.56 1.8-3.78 3.34-3.62l.09.49c-.67 1.38-1.58 3.21-3.23 3.54l-.2-.41zM55.64 105.22c.38.04 1.14.11 1.52.15.3 1.01-1.71 3.53-2.09 1.58.14-.43.43-1.3.57-1.73z"/>
    </g>
    <path fill="#631315" d="M68.18 38.63c2.1-.19 4.21-.07 6.32.08 4.15 3.25 2.66 8.86 4.26 13.23.06.27.19.79.25 1.05-.3.37-.89 1.12-1.18 1.5-.61 6.24-1.27 12.64-3.92 18.4-1.46 3.16-3.3 6.2-5.9 8.56-.54-2.79-.95-5.62-.76-8.46.38-6.33-.49-12.64-.4-18.97-.05-5.16.94-10.25 1.33-15.39z"/>
    <path fill="#480f11" d="M65.01 43.9c-.3-2.34 1.5-3.97 3.17-5.27-.39 5.14-1.38 10.23-1.33 15.39-.09 6.33.78 12.64.4 18.97-.19 2.84.22 5.67.76 8.46-.96.72-1.96 1.39-2.95 2.06-.11-13.2-.06-26.4-.05-39.61z"/>
    <path fill="#681516" d="M84.55 51.52c4.41 2.79 9.06 5.55 12.31 9.72 1.01 1.06.93 2.51.56 3.82 1.42 1.65 2.81 3.34 4 5.17l-1.13-.47c-1.71-1.17-2.86-2.95-4.19-4.49l-2.16.12c-.49-3.09-1.67-6.13-4.29-8.03-1.68-1.96-5.16-2.82-5.1-5.84z"/>
    <path fill="#220809" opacity=".55" d="M42.23 64.58c1.43-2.37 3.71-4.72 6.76-3.67 2.46 0 2.32 2.52 2.15 4.31-2.49.05-5.02.44-7.49.07-.35-.17-1.06-.53-1.42-.71m2.71-2.86c-.64 3.29 2.87 3.62 5.24 3.35-.27-1.25-.53-2.49-.79-3.74-1.49.06-2.97.18-4.45.39z"/>
    <path fill="#73181b" d="M77.63 64.24c-.93-3.69 3.28-3.15 5.57-2.94 3.82 4.65 8.92 8.41 11.48 14.05.82 1.16.04 2.38-.32 3.5 1.55 3.16 3.88 6.35 3.3 10.08-.23 1.7-1.77 2.69-2.99 3.69.11-2.57.97-5.04 1.25-7.59-.26-2.37-1.99-4.25-3.12-6.27-.49-.1-1.48-.28-1.98-.38.95-5.81-3.73-10.03-6.94-14.19-1.81 1.23-4.53 1.6-6.25.05z"/>
    <path fill="#761c20" d="M44.94 61.72c1.48-.21 2.96-.33 4.45-.39.26 1.25.52 2.49.79 3.74-2.37.27-5.88-.06-5.24-3.35z"/>
    <path fill="#27090a" opacity=".64" d="M30.9 66.14c-.18-.98-.37-1.96-.57-2.93.85.57 1.73 1.12 2.63 1.63.72-.59 1.4-1.23 2.03-1.93 1.17 2.87-2.11 3.02-4 3.72l-.09-.49z"/>
    <path fill="#6b1818" d="M42.23 64.58c.36.18 1.07.54 1.42.71-2.95 3.88-6.87 7.85-5.97 13.2l-2.16.24c-1.13 2.08-2.44 4.1-3.08 6.41.51 2.35 1.19 4.67 1.54 7.06-1.08-.69-2.16-1.39-3.24-2.09-.21-4.22 1.24-8.28 3.87-11.57-1.03-.67-1.65-1.63-.91-2.8 1.76-4.44 5.46-7.65 8.53-11.16z"/>
    <path fill="#2a0b0c" opacity=".61" d="M100.29 69.76l1.13.47.21.08c-1.05 2.38-1.12 4.89-.09 7.28-.39.24-1.17.7-1.55.94-.01-2.93.12-5.85.3-8.77z"/>
    <path fill="#380e0e" opacity=".47" d="M58.25 84.84c.85.53 1.44 1.27 1.77 2.23-1.79.26-2.38-.48-1.77-2.23z"/>
    <path fill="#190507" opacity=".3" d="M68.78 87.81c.48-.85 1.16-1.49 2.05-1.91.43 1.81-.25 2.45-2.05 1.91z"/>
    <path fill="#170808" opacity=".4" d="M44.61 87.82c1.23-.21 2.61-1.27 3.82-.61.95.52 1.9 1.03 2.85 1.54-2.28.31-4.6.13-6.67-.93z"/>
    <path fill="#872022" opacity=".78" d="M48.43 87.21c2.78-.16 5.57-.26 8.36-.36l1.48 2.28c-2.33-.07-4.69.03-6.99-.38-.95-.51-1.9-1.02-2.85-1.54z"/>
    <path fill="#942326" opacity=".8" d="M73.05 86.83c2.57.09 5.14.2 7.71.37-.48.41-1.45 1.23-1.93 1.64-2.42.05-4.84.16-7.25.26l1.47-2.27z"/>
    <path fill="#1c0a0b" opacity=".42" d="M80.76 87.2c1.11-.24 2.27-.26 3.49-.06-.49 2.58-3.58 1.4-5.42 1.7.48-.41 1.45-1.23 1.93-1.64z"/>
    <path fill="#611619" opacity=".62" d="M63.2 89.1c1.13-.2 2.25-.23 3.38-.09.45 1.78-3.63 1.92-3.38.09z"/>
    <path fill="#230809" opacity=".41" d="M67.5 91.49c.71-1.37 2.11-1.28 3.32-.74l-2.48.4c1.21.96 2.42 1.91 3.69 2.8l-2.6-.4c.03.68.11 2.04.15 2.72-.7-1.59-1.41-3.18-2.08-4.78z"/>
    <path fill="#cd3136" opacity=".92" d="M64 92.93l1.51-.18c.12 4.98-.54 9.92-1.15 14.85-.27-3.32-.36-6.65-.37-9.99.01-1.56.01-3.12.01-4.68z"/>
    <path fill="#250c0d" opacity=".47" d="M48.27 99.76c-.53-1.36 1.69-3.13 2.93-2.33l-.13.53c-.27 1.14-1.61 2.23-2.8 1.8z"/>
    <path fill="#0e0506" opacity=".37" d="M80.06 99.69c.11-.48.31-1.44.41-1.92 1.9-.05 1.21 3.43-.41 1.92z"/>
</svg>
