<svg width="128pt" height="128pt" viewBox="0 0 128 128" xmlns="http://www.w3.org/2000/svg">
    <g fill="#fff">
        <path d="M54.88 75.85c1.73 3 3.85 5.73 6.39 8.09 1.86.95 4.24 1.78 6.12.39 3.54-1.79 5.3-5.53 7.49-8.63-1.17 4.61-2.68 9.53-6.57 12.6-2.46 2.37-6.32 1.17-8.38-1.11-2.73-3.19-4.29-7.25-5.05-11.34zM45.9 87.7c3.56-.04 7.12-.32 10.66-.67.4.5 1.21 1.5 1.61 2-4.09-.41-8.21-.64-12.27-1.33zM73.34 87.08c3.58.22 7.16.7 10.76.61-4.16.68-8.37.91-12.55 1.35.45-.49 1.34-1.47 1.79-1.96zM59.27 90.46c.53.23 1.61.7 2.15.93-4.11 2.76-8.29 5.46-12.7 7.73 3.35-3.09 7.26-5.5 10.55-8.66zM70.3 90.57c3.49 2.94 7.27 5.53 10.62 8.63-3.83-2.03-7.5-4.36-11.11-6.76-.42.49-.85.97-1.28 1.45 2.14 4.51 3.56 9.39 6.28 13.61l-1.28.14c-2.28-5.11-4.81-10.11-7.65-14.94-.46 6.13-.72 12.29-1.4 18.41-.24-5.97-.2-11.98-.65-17.92l-.84.64c-2.63 4.65-4.88 9.54-7.61 14.09 1.53-5.49 4.5-10.57 6.45-15.97 2.95 1.18 5.88.11 8.47-1.38z"/>
    </g>
</svg>
