<svg width="128pt" height="128pt" viewBox="0 0 128 128" xmlns="http://www.w3.org/2000/svg">
    <path fill="#686868" opacity=".41" d="M27.4 16.09c3.01-1.54.17 3.3 0 0z"/>
    <g fill="#fff">
        <path d="M28.92 17.66c3.51-3.79 8.57.67 11.07 3.59-1.22-.64-2.42-1.32-3.56-2.09-2.37-1.08-4.97-1.22-7.51-1.5zM90.15 19.12c2.41-1.76 7.28-4.9 9.29-1.32-3.95-.08-7.8 1.08-10.9 3.56.4-.56 1.21-1.68 1.61-2.24zM44.56 30.51c3.25-6.26 8.68-11.83 15.61-13.75-.76 2.2-3.08 2.53-4.85 3.45-2.18 1.48-4.02 3.38-5.57 5.49-1.43 1.9-3.07 3.66-5.19 4.81zM69.48 16.82c3.95 1.68 7.41 4.23 10.25 7.45.91 1.06 1.83 2.13 2.65 3.27.5.98.96 1.97 1.39 2.98-3.63-2.16-5.44-6.2-8.64-8.84-1.78-1.67-4.1-2.55-6.23-3.65-.68 3.09-3.31 7.79 1.84 8.99-.06-.91-.17-2.72-.23-3.62 3.18 1.46 1.11 3.06.38 4.6.5 1.23 1.48 3.69 1.97 4.92l-1.8-.1c3.35.45 7.43 1.26 8.34 5.12-1.71-.09-3.44-.15-5.12-.51.01-1.16-.18-2.26-.58-3.29-1.15.25-.59 2-.9 2.86-3.16-.48-6.47.18-8.29 3.03-2.18-2.83-5.79-3.39-9.14-3.09.35-4.26 1.12-8.65 4.17-11.91l-2.44.23c.85-.67 1.7-1.34 2.54-2.02-.08.41-.24 1.23-.31 1.63 2.4-.8 4.92-1.52 7.46-.85-.25-.69-.75-2.08-1-2.78 1.24-1.47 2.44-2.96 3.69-4.42z"/>
        <path d="M59.82 17.98h.83c.73 1.63 1.68 3.15 2.37 4.79-3.15 1.51-2.3-3.08-3.2-4.79zM39.2 24.07c.7-.9 1.56-1.66 2.39-2.43.41 3.24.75 6.61 2.47 9.47 1.53 2.43 3.68 4.39 5.34 6.72-2.67-1.31-4.2-3.95-6.2-6.04-1.86-2.2-4.07-4.65-4-7.72zM81.31 35.26c3.79-3.57 5.22-8.64 5.54-13.68 1.33 1.05 3.02 2.36 2.27 4.3-1.01 3.12-3.63 5.39-5.41 8.08l-.3.12c-1.27.65-2.23 3.93-3.82 2.56.43-.35 1.29-1.04 1.72-1.38zM65.09 42.07c1.77-5 10.44-5.16 11.79.26 1.95 6.95.63 14.34-.34 21.36.32.01.95.02 1.26.03.15-.58.43-1.76.57-2.35 1.39-.05 2.81-.28 4.2-.07 4.93 4.9 10.94 9.57 12.74 16.63l-2.86.07c3.4 2.12 4.82 6.31 5.15 10.11.03 1.95-1.2 3.32-3.06 3.8.42-3.06 2.66-6.4.78-9.38-.85-1.98-2.66-3.23-4.15-4.67.3-5.99-4.55-10.26-7.92-14.61l-.36 1.82c-2.63-.02-5.24-.38-7.87-.54l1.19.34c-1.33 7.19-4.48 14.91-11.14 18.69-.09-13.83-.16-27.67.02-41.49zM54.36 39.1c2.69-1.3 6.35-1.05 8.47 1.18 1.64 1.87 1.1 4.43 1.18 6.7-.07 12.19.08 24.39-.08 36.58-9.81-5.79-11.72-18.26-12.72-28.62-.19-5.29-1.2-11.88 3.15-15.84zM45.81 50.14c1.41.33 2.81.68 4.23 1 .02.85.08 2.56.1 3.41-2.1-.09-6.49.49-5.24-3.32-2.7 4.05-7.52 6.15-9.77 10.59.05 1.5-.38 2.8-1.32 3.91-1.16-.72-2.28-1.49-3.39-2.28 3.31-6.25 10.17-9.02 15.39-13.31z"/>
        <path d="M78.4 51.14c1.79-.2 4.08-1.72 5.57-.03.52 3.07-3.41 3.97-5.7 3.35.04-.83.1-2.49.13-3.32zM84.43 51.65c5.15 3.19 10.61 6.52 13.76 11.88-.36.25-1.1.73-1.46.98 1.4 1.58 2.74 3.23 4.16 4.8 1.11 2.1 1.67 4.41 1.84 6.77-.99.75-1.98 1.51-2.98 2.26l.96-1.64c-.83-2.68 1.19-5.71-1.33-7.87-1.12-1.17-2.18-2.41-3.06-3.77l-2.22.21c-.4-3.13-1.85-6.07-4.35-8.04-1.72-1.94-4.69-2.83-5.32-5.58zM44.7 61.9c1.55-1.16 3.55-.51 5.31-.57.28 1.16.54 2.31.78 3.48-2.54.45-6.38.85-6.09-2.91zM33.24 77.9c1.47-6.32 6.72-10.52 11.08-14.91-1.51 5.27-7.88 8.61-6.75 14.8-1.78 1.25-3.31 2.8-4.45 4.65-1.71 3.27.28 6.62.79 9.92-.92-.8-1.92-1.5-2.81-2.33-.63-4.4 1.13-9.3 4.65-12.08l-2.51-.05zM25.88 76.05c-.05-3.71 1.52-8.18 4.99-9.87.22 1.21-1.22 1.74-1.73 2.61-2.3 2.62-.83 6.41-1.29 9.57-.66-.77-1.31-1.54-1.97-2.31z"/>
    </g>
    <path fill="#d0d0d0" opacity=".82" d="M100.18 16.2c.7.66.7.66 0 0z"/>
    <path fill="#f2f2f2" opacity=".95" d="M49.47 37.94c-.17-3.28 3.07-4.04 5.55-4.7-.2 1.08-.6 3.26-.8 4.35-1.58.14-3.16.25-4.75.35z"/>
</svg>
