<svg width="128pt" height="128pt" viewBox="0 0 128 128" xmlns="http://www.w3.org/2000/svg">
    <g fill="#fff">
        <path d="M35.81 17.51c.89-.69 1.84-1.3 2.83-1.82l-.44 2.88 1.49-1.76c.42 3.49 4.48 4.8 5.69 8.04-1.49-.7-2.97-1.41-4.46-2.09-.45 2.58.59 4.78 2.57 6.39-1.79-.37-3.53-1.03-5.37-1.09-1.74 1.44-3.72 2.76-5.99 1.42.53.46 1.59 1.38 2.12 1.83-2.89 2.4-5.94 4.84-7.63 8.29-2.49 5.23-2.23 11.34-.92 16.85 1.9 6.24 3.92 12.52 7.3 18.14-1.67.28-3.3.72-4.81 1.47-3.41-4.57-6.53-9.54-8.05-15.08-1.28-6.34-.35-12.86.57-19.18.28-4.25 4.27-6.61 6.59-9.76 1.79-.68 3.69-1.03 5.58-1.35-.95-.41-1.92-.78-2.9-1.11 1.9-.79 4.48-2.17 2.97-4.94.58 1 1.13 2.01 1.67 3.03 1.62-4.47-5.28-3.77-4.76-7.57 1.57.89 3.12 1.8 4.63 2.79 1.24-.36 2.47-.74 3.72-1.1-.41-1.62-.82-3.38-2.4-4.28zM41.63 82.8c1.27-2.88 2.9-6.18 6.32-6.84 6.15 3.18 13.28 2.77 19.92 1.74 1.02 3.36.87 7.05 2.71 10.14-7.62 2.03-15.6 2.98-23.44 1.84-4.01-1.64-7.79-3.85-11.35-6.31 1.91-.38 4.08.36 5.84-.57z"/>
    </g>
</svg>
