<svg width="128pt" height="128pt" viewBox="0 0 128 128" xmlns="http://www.w3.org/2000/svg">
    <g fill="#fff">
        <path d="M54.04 35.35c.46-3.81 2.74-7.09 5.78-9.34 1.89 2.37 3.19 5.14 5.04 7.54-2.71 2.66-3.03 6.55-3.89 10.03-2.79-2.24-3.74-6.2-6.93-8.23zM75.64 27.06c1.18 2.58 2.87 5 3.4 7.82-1.87 2.58-3.65 5.23-5.26 7.98.36.57.72 1.13 1.08 1.69.92-4.25 3.83-10.21 9.05-9.86-.2 4.24 1.17 8.34 1.23 12.57-2 1.62-2.96 3.99-3.9 6.31-.2-2.04-.57-4.04-1.08-6.02-1.12-1.15-2.29-2.26-3.59-3.21-.78 1.17-1.55 2.35-2.28 3.56-.01-2.02-1.07-3.64-2.3-5.12.28-2.83-1.43-5.23-3.02-7.39 1.29-3.42 3.68-6.25 6.67-8.33zM41.48 32.32c1.88-1.04 3.99 1.33 5.66 2.18-2.06 3.88-1.69 8.36-.57 12.45-1.7-1.92-3.89-3.24-5.92-4.74-.94-3.29-.29-6.74.83-9.89z"/>
        <path d="M48.27 48.67c-1.54-4.36-2.68-10.48.85-14.07 4.62 1.33 8.33 4.56 10.04 9.07-.5.39-1.49 1.17-1.99 1.57-.63.81-.45 2.8-1.87 2.56l-.41-.47c-1.02-1.1-2.44-1.57-3.79-2.11-1.2.92-2.24 2.02-2.83 3.45zM61.99 43.58c.78-3.31.91-7.16 4.11-9.18 2.83 1.92 4.64 4.95 5.47 8.22-3.03-.61-5.04 1.79-5.79 4.45-1.16-1.28-2.44-2.43-3.79-3.49zM86.08 44.37c2.8-2.7 6.08-5.41 10.06-5.95 1.62-.47 3.38.92 2.89 2.67-.3 2.02-1.17 3.88-1.98 5.74-3.26.86-6.37 2.25-9.08 4.25-.57-1.28-1.23-2.51-1.97-3.69-.02-1.01.01-2.02.08-3.02zM33.81 49.18c-1.35-2.36-2.49-5.58-.92-8.08 3.58 2.04 8.22 1.66 11.28 4.71 1.68 1.72 4.52 3.09 3.91 5.96-2.88-2.79-5.46-6.45-9.74-7.06-.92 2.52-1.4 5.41.11 7.82.72 2.26 3.15 4.42 2.07 6.92-3.1-2.85-4.31-6.93-6.71-10.27z"/>
        <path d="M67.91 45c.45-1.63 2.64-1.49 3.62-.43 2.15 2.05 2.95 5.07 4.27 7.67.35-2.25-.53-5.11 1.7-6.59 2.03 2.22 2.53 5.21 3.34 7.99-2.25-.94-3.97.69-5.46 2.11-.95-3.75-5.24-3.85-8.31-4.47-.04-2.12-.34-4.39.84-6.28zM59.06 45.01c4.04-1.03 6.81 2.87 7.16 6.45-5.26.26-11.27 1.42-14.15 6.37-1.11-2.5-1.74-5.21-3.13-7.59.5-1.4 1-4.33 3.14-3.44 2.74.38 3.29 3.51 4.64 5.45.14-2.56.11-5.49 2.34-7.24zM39.11 45.7c3.15 1.5 5.73 3.92 7.78 6.71-1.13 5.17.18 10.44 2.38 15.14-2.34-2.03-4.62-4.19-6.21-6.86-1.27-5.01-6.3-9.58-3.95-14.99zM88.16 52.27c3.48-3.34 8.5-4.81 13.28-4.3-.95 2.86-1.49 5.89-2.91 8.58-3.67 5.73-9.91 9.2-16.34 10.96.86-2.11 2.6-3.67 3.62-5.68 1.39-3.01 1.71-6.35 2.35-9.56z"/>
        <path d="M82.13 53.42c.76-1.9 1.74-3.69 3.41-4.95 2.31 4.71.79 10.55-1.71 14.9-.29-1.65-.57-3.29-.88-4.93-2.34-.89-.9-3.32-.82-5.02zM49.5 65.46c-1.99-4.26-3.37-9.76-1.06-14.12 2.11 6.5 4.8 12.78 8.03 18.81.85-3.72 3.94-6.35 7.62-7.12 3.84 1.05 6.52 5 6.52 8.92 2.69-5.13 5.89-10.21 10.32-14.02 1.22 1.71 1.99 3.88 1.42 5.98-.9 5.6-5.59 9.5-10.12 12.35-.67-.27-2-.82-2.66-1.09-3 4.01-8.86 2.42-11.33-1.3-2.04-3.62-6.94-4.47-8.74-8.41z"/>
        <path d="M53.25 61.1c1.01-1.74 1.33-4.45 3.77-4.71 2.48 1.09 2.96 4 3.83 6.27-1.74 1.42-3.64 2.78-4.48 4.97-1.12-2.14-2.13-4.33-3.12-6.53zM65.13 62.03c1.07-1.5 2-3.61 3.97-4.05 2.38.08 4.41 2.19 4.67 4.53.56 2.33-1.76 4-2.55 5.99-1.31-2.77-3.06-5.4-6.09-6.47zM18.54 58.53c6.79.87 13.65 1 20.47.46 1 .8 1.98 1.63 2.86 2.57l-1.47.75c-5.65-1.24-11.72-3.65-17.44-1.46-1.47 1.44 1.73 2.69 2.71 3.48 4.41 1.85 7.59 5.55 11.81 7.65-3.36-4.75-9.05-6.59-13.47-10.06 5.39-2.02 11.35-.49 16.48 1.57 1.03 2.51 1.79 5.27 3.82 7.2 1.76 1.31 3.56 2.56 5.21 4.02l-2.62-.65-2.4.52c-.18-2.29-3.71-1.93-5.34-2.44.56.57 1.13 1.14 1.69 1.71-.21.05-.64.17-.86.22-8.32-3.04-17.39-7.12-21.45-15.54m19.06 12.7c.37.58.37.58 0 0zM87.04 67.09c4.13-1.23 7.04-5.39 11.58-5.28.08 2.93-2.83 4.47-3.98 6.92-6.19 3.32-12.45 10.02-20.08 6.99 2.75-1.48 5.16-3.53 6.84-6.18 1.14-1.95 3.83-1.44 5.64-2.45z"/>
        <path d="M44.62 69.37c-1.56-2.14-3.35-4.82-2.49-7.56 4.47 6.04 12.78 7.69 16.59 14.28-5.8 1.02-10.1-3.29-14.1-6.72zM100.24 63.09c3.06-.26 6.12-.72 9.19-.47-.48 2.38-2.18 4.2-3.88 5.82-4.02 3.66-8.55 6.74-13.29 9.39-2.1-1.01-4.22-1.98-6.57-2.22 3.97-2.55 8.91-4.14 11.63-8.22 1.07-1.37 2.12-2.76 2.92-4.3zM42.17 74.17l.57-.49.86.39-.04.88-.89.4c-.12-.3-.37-.89-.5-1.18z"/>
        <path d="M37.14 77.15c2.57-1.35 5.47-1.27 8.28-1.47 1.69 2.81 3.37 7.92 7.43 7.15-.18-1.21-1.82-1.27-2.53-2.08-1.68-1.95-2.19-4.84-4.83-5.93 2.7 1.11 5.63 1.22 8.43 1.95 2.19.64 4.58-.57 6.68.58.39 1.54.61 3.12 1.11 4.63-2.47.56-5.19.2-7.54 1.11-2.14 2.31-5.34 3.08-8.2 4.09-5.91 1.95-12.5 2.26-18.26-.37-.07-5.27 5.24-7.93 9.43-9.66zM76.28 77.36c2.93.47 5.77-.26 8.52-1.21 4.43 1.13 9.57 3.3 10.2 8.49-6.95 3.55-15.37 3.02-22.03-.92 1.34-1.98 2.82-3.96 3.31-6.36zM61.68 78.5c2.91.09 6.05.16 8.35-1.95 1.77.14 3.53.31 5.29.53-.54 2.28-1.86 4.22-3.4 5.94-3.73.07-10.2.95-10.24-4.52z"/>
        <path d="M53.03 85.26c2.82-1.3 5.91-1.62 8.92-2.24 3.05 1.61 6.55 1.81 9.87 1 .56.34 1.67 1.02 2.23 1.36-1.22 5-5.39 8.3-8.78 11.86-1.83 1.71-3.4 4.18-6.21 4.14-3.02-.1-3.71-3.56-4.83-5.75-1.84-3.16-1.14-6.89-1.2-10.37z"/>
    </g>
    <path fill="#f9f9f9" opacity=".98" d="M74.44 63.56c.41-3.48 1.28-7.53 4.54-9.48.57.82 3.31 2.12 1.43 3.18-2.32 1.77-4.01 4.17-5.97 6.3z"/>
</svg>
