<svg width="128pt" height="128pt" viewBox="0 0 128 128" xmlns="http://www.w3.org/2000/svg">
    <path fill="#cb2829" d="M92.45 13.11c.7-1.49 1.85-2.69 2.8-4.02.96 7.92-3.75 15.12-3.47 22.98.74 1.63 2.58 1.99 4.1 2.55-.14.76-.41 2.29-.54 3.05-.81-.1-2.43-.29-3.24-.39-1.17.71-2.35 1.42-3.52 2.13-.89 3.61-1.61 7.27-2.68 10.83l-1.01.54c-.37-.29-1.09-.88-1.45-1.18-.53-4.15 3.24-8.31 1.89-12.59-2.76-3.48-7.51-5.04-11.73-5.73 2.62-1.88 4.74-4.33 6.7-6.88l.16.01c.73.02 2.2.07 2.93.09-.79 1.91-1.66 3.79-2.59 5.64 1.95.7 5.07 2.62 6.44.1 1.67-5.73 3.55-11.4 5.21-17.13z"/>
    <path fill="#310909" opacity=".49" d="M86.7 12.52c.14-1.02.66-1.87 1.58-2.55.85 2.94-.58 5.85-2.1 8.29.62-1.97 1.17-3.96 1.74-5.95l-1.22.21z"/>
    <path fill="#140403" opacity=".29" d="M79.25 17.02c1.94-1.37 3.84-2.8 5.91-3.98l-.14 1.07c-1.2 1.24-2.51 2.37-3.81 3.5.44.22 1.3.66 1.73.88-.52 1.22-1.04 2.45-1.55 3.68-.01-.78-.02-2.33-.03-3.1-.52-.51-1.58-1.54-2.11-2.05z"/>
    <path fill="#ad221f" opacity=".97" d="M86.7 12.52l1.22-.21c-.57 1.99-1.12 3.98-1.74 5.95-.8 2.13-1.71 4.23-2.79 6.24-.73-.02-2.2-.07-2.93-.09.23-.56.69-1.68.93-2.24.51-1.23 1.03-2.46 1.55-3.68-.43-.22-1.29-.66-1.73-.88 1.3-1.13 2.61-2.26 3.81-3.5.42-.4 1.26-1.19 1.68-1.59z"/>
    <path fill="#360a0a" opacity=".51" d="M99.53 15.58c.32-.15.94-.44 1.25-.59-.07.22-.22.66-.3.88-1.36 3.31-1.58 6.89-2.27 10.36-.02-3.58.12-7.25 1.32-10.65z"/>
    <path fill="#ad2021" d="M98.21 26.23c.69-3.47.91-7.05 2.27-10.36 1.05 2.65 1.95 5.35 2.81 8.06l-1.8-.66c-1.21 5.2-1.01 10.67.84 15.69-2.34-.37-4.69-.69-7.05-.95l.06-.34c.13-.76.4-2.29.54-3.05.4-.03 1.21-.08 1.61-.1-.19-2.79.08-5.58.72-8.29z"/>
    <g fill="#aa2021">
        <path d="M35.48 40.27c5.78-2.11 11.29 1.27 16.88 2.42 1.79 2.61 3.14 5.49 4.84 8.16 1 2.36 4.77 1.56 5.37 4.23.58 1.53-1.47 2.42-2.19 3.51l.6.99c.82 1.35 1.65 2.69 2.54 3.99 0 1.78-1.04 3.96.47 5.39 1.85 1.16 4.06 1.52 6.18 1.9-.65.22-1.94.65-2.59.87 1.34 2.48 2.65 4.98 4 7.46-2.28.31-4.55.64-6.83.99-.23-.48-.7-1.43-.94-1.91-.98-1.86-2.13-3.64-3.36-5.35-1.2-.88-2.69-.98-4.12-1.09-.31 2.09-.62 4.17-.96 6.25-1.67-2.45-2.96-5.13-3.96-7.93-3.39-.41-6.88-.27-9.86 1.56-.78-.92-1.61-1.81-2.42-2.71 1.78-3.15 3.55-6.83 1.2-10.2l-1.52-.84c-2.05-1.07-4.18-1.96-6.32-2.85l-.17-.36c-.57-1.22-1.15-2.43-1.73-3.64 1.6-2.87 3.21-5.73 5.04-8.45l-.12-2.1-.03-.29m13.11 14.16c.44 1.24.9 2.48 1.37 3.71.84-.06 2.53-.19 3.37-.25-1.2-1.62-2.97-2.6-4.74-3.46zM73.72 49.84c.33-.82.97-2.47 1.3-3.29.95 2.35-.07 4.05-1.92 5.32-.53-.81-1.08-1.61-1.64-2.41.57.09 1.7.28 2.26.38z"/>
    </g>
    <g fill="#9c2021">
        <path d="M29.1 42.05c2-.93 4.27-1.04 6.41-1.49l.12 2.1c-1.83 2.72-3.44 5.58-5.04 8.45.58 1.21 1.16 2.42 1.73 3.64-2.92-1.11-5.73-2.45-8.53-3.81 1.42-3.15 3.1-6.23 5.31-8.89zM31.08 68.4c.48-3.03.95-6.42 3.99-7.97.94.57 1.87 1.14 2.8 1.71 1.01.63 2.01 1.26 3.02 1.89-.9 1.85-1.8 3.69-2.7 5.54-1.25-1.61-2.76-2.99-4.59-3.89-.52 1.49-1.03 2.99-1.53 4.48-1.68-.01-3.36-.03-5.04-.11l-1-1.39c1.69.06 3.38 0 5.05-.26zM79.27 63.88c.44 1.52 1.01 3 1.57 4.48.45.14 1.33.42 1.77.56 2.36 1.15 4.77 1.74 7.37 1.26.23.12.67.36.9.48-2.89 4.32-7.91-.2-11.71-.66 2.46 1.08 4.99 1.98 7.54 2.83-.22 3.45-.51 6.9-.82 10.34-1.62.63-3.2 1.37-4.81 2.01-1.01.17-3.01.52-4.01.69.12-3.54 3.91-3.65 6.37-4.85.97-2.27 1.65-4.97.08-7.15l-1.24-.26c-2.91-1.24-5.72.06-7.78 2.21.11-.7.32-2.09.43-2.79.82-.64 1.67-1.26 2.53-1.86.72-2.4 1.27-4.85 1.81-7.29zM69.72 100.55l1.63-1.46c.24 3.31-.16 6.62-.3 9.93-.74.81-1.5 1.61-2.16 2.49-1.11 1.51-2.02 3.16-2.91 4.8.19-2.75.15-5.52-.36-8.24.39-.52 1.16-1.58 1.55-2.11.28-.4.83-1.2 1.11-1.6.52-1.26.98-2.53 1.44-3.81z"/>
    </g>
    <path fill="#270707" opacity=".43" d="M70.95 45.9c.83-1.9 2.93-.11 4.31.05l-.24.6c-.33.82-.97 2.47-1.3 3.29-.56-.1-1.69-.29-2.26-.38.56.8 1.11 1.6 1.64 2.41l.35.53c-.78-.05-2.34-.16-3.12-.22.69 2.24 1.24 4.52 1.65 6.83.61-.45 1.81-1.33 2.41-1.78-1.22 2.71-2.9 5.22-5.01 7.31-1.99 1.02-4.16.23-5.86-.97-.89-1.3-1.72-2.64-2.54-3.99 1.74 1.63 3.76.16 5.62-.37.2-3.81.26-7.62.25-11.44.56-.15 1.69-.45 2.26-.6-.32.29-.96.85-1.28 1.14-.27 3.59.3 7.31-.73 10.81-.94 1.07-2.27 1.68-3.41 2.5 1.2 1.17 2.28 3.15 4.27 2.51 2.07-.79 2.31-3.41 2.97-5.25.13-3.26-1.66-6.27-1.68-9.52.98-2.05 3.54-2.26 5.34-3.21-1.21-.1-2.43-.18-3.64-.25z"/>
    <path fill="#bd2421" d="M69.11 47.17c.46-.32 1.38-.96 1.84-1.27 1.21.07 2.43.15 3.64.25-1.8.95-4.36 1.16-5.34 3.21.02 3.25 1.81 6.26 1.68 9.52-.66 1.84-.9 4.46-2.97 5.25-1.99.64-3.07-1.34-4.27-2.51 1.14-.82 2.47-1.43 3.41-2.5 1.03-3.5.46-7.22.73-10.81.32-.29.96-.85 1.28-1.14z"/>
    <path fill="#b52423" d="M74.39 57.23c1.39-3.2 3.88-6.64 7.65-6.95 2.15.7 4.14 1.78 6.18 2.74-.14 2.64-.3 5.28-.23 7.92-1.67-.3-3.71.01-4.7-1.69.16-.69.34-1.39.53-2.07-.89 2.42 1.7 1.24 2.97 1.32-.67-1.41-1.19-2.91-2.11-4.18-1.12-.04-2.24-.05-3.37-.02-2.7 5.48-5.49 10.94-9.23 15.8l-1.91.76c-2.12-.38-4.33-.74-6.18-1.9-1.51-1.43-.47-3.61-.47-5.39 1.7 1.2 3.87 1.99 5.86.97 2.11-2.09 3.79-4.6 5.01-7.31z"/>
    <path fill="#1f0606" opacity=".49" d="M48.59 54.43c1.77.86 3.54 1.84 4.74 3.46-.84.06-2.53.19-3.37.25-.47-1.23-.93-2.47-1.37-3.71z"/>
    <path fill="#af2220" opacity=".98" d="M81.68 54.76c.73-.03 2.19-.07 2.93-.1-.2.63-.59 1.89-.79 2.52-.19.68-.37 1.38-.53 2.07-.77 3.05-1.56 6.1-2.45 9.11-.56-1.48-1.13-2.96-1.57-4.48.56-3.09 1.4-6.15 2.41-9.12z"/>
    <path fill="#230606" opacity=".41" d="M83.29 59.25c.99 1.7 3.03 1.39 4.7 1.69-1.48.32-3 .35-4.51.34-.86 2.46-1.38 5.04-.87 7.64-.44-.14-1.32-.42-1.77-.56.89-3.01 1.68-6.06 2.45-9.11z"/>
    <g fill="#942021">
        <path d="M86.43 67.7c.76-1.55 1.97-2.72 3.61-3.23.88 1.2 1.76 2.42 2.62 3.64l-.42.37c-1.12.39-1.74-.94-2.53-1.42l-.77-.52c-.62.29-1.88.87-2.51 1.16zM75.3 78.98c.77-2.03 2.03-3.82 3.64-5.28-.34 2.09-.72 4.17-1.15 6.24-.49 2.41-1.07 4.79-1.64 7.19-.66 2.68-1.38 5.35-2.1 8.02l-2.4-2.36c1.1-4.62 1.97-9.35 3.65-13.81z"/>
    </g>
    <path fill="#460d0c" opacity=".67" d="M27.39 65.03c1.43-.44 1.95.03 1.56 1.4-1.43.43-1.95-.03-1.56-1.4z"/>
    <path fill="#a31f20" opacity=".98" d="M74.94 66.19c.79.17 2.36.53 3.14.71l-.72 3.61c-1.31.18-2.61.35-3.91.53-.08-1.77.67-3.34 1.49-4.85z"/>
    <path fill="#9a1f21" d="M32.98 72.45c2.63.36 4.59-1.64 6.15-3.45.81.9 1.64 1.79 2.42 2.71l.32.64.54 1.42c-3.65 5.64-10.84 2.98-16.1 1.72-1.89-.43-3.78-.82-5.68-1.21-1.18 1.15-3.25 1.79-3.53 3.61.66 2.56 3.09 3.91 5.58 4.08l.2-2.34c-.69-1.04-1.38-2.07-2.05-3.12 1.68 1.17 3.23 2.54 4.65 4.03-1.13 1.01-2.26 2.02-3.38 3.05-1.62-.56-3.41-.79-4.91-1.65-1.5-1.72-2.5-3.8-3.63-5.77 2.5-2.23 4.74-5.13 8.22-5.81 3.81.3 7.45 1.52 11.2 2.09z"/>
    <path fill="#9a2021" d="M41.55 71.71c2.98-1.83 6.47-1.97 9.86-1.56 1 2.8 2.29 5.48 3.96 7.93.34-2.08.65-4.16.96-6.25 1.43.11 2.92.21 4.12 1.09-1.84 3.81-1.53 8.43.35 12.17.65 1.42 1.33 2.84 1.98 4.27 4.25 2.31 9.1 3.92 12.16 7.89-.19 2.58-.77 5.14-2.41 7.23l.08-5.24c-5.09-2.16-10.73-4.02-14.34-8.46-1.82-2.23-3.89-4.25-5.57-6.59-1.12-2.99-1.21-6.25-1.66-9.39-2.69 2.5-4.28 5.83-5.49 9.24.78 1.68 1.57 3.37 2.35 5.05 2.47 1.16 5.21 1.9 7.38 3.59 1 1.61 1.16 3.55 1.51 5.37-1.02.96-1.99 1.97-3.11 2.82-1.87-.26-3.61-1.03-5.38-1.65.34-2.81 2.96-3.83 5.32-2.36-1.09.24-3.26.7-4.34.94l4.06 1.93c1.16-1.23 2.19-3.36.82-4.81-3.37-2.53-8.01-2.23-11.53-4.5-1.94-3.04-4.71-6.86-2.7-10.5.41-2.58 3.72-5.04 1.94-7.57l-.32-.64z"/>
    <path fill="#350a09" opacity=".6" d="M75.3 78.98c-.84-1.87-2.65-4.37-.37-5.95-.11.7-.32 2.09-.43 2.79 2.06-2.15 4.87-3.45 7.78-2.21l-2.27.16c.36.65 1.07 1.93 1.42 2.57-1.22 1.19-2.44 2.39-3.64 3.6.43-2.07.81-4.15 1.15-6.24-1.61 1.46-2.87 3.25-3.64 5.28z"/>
    <path fill="#2c0909" opacity=".49" d="M60.8 85.09c-1.88-3.74-2.19-8.36-.35-12.17 1.23 1.71 2.38 3.49 3.36 5.35-1.16-1.18-2.32-2.35-3.48-3.52-.21 3.45-.21 6.93.47 10.34z"/>
    <path fill="#2e0909" opacity=".56" d="M83.52 73.87c1.57 2.18.89 4.88-.08 7.15.04-2.38.06-4.77.08-7.15z"/>
    <path fill="#991f1b" d="M71.58 79.19c.66.59 1.33 1.19 1.99 1.79-.4 1.33-.81 2.66-1.22 3.99-2.56-1.52-5.9-2.13-7.6-4.79 2.28-.35 4.55-.68 6.83-.99z"/>
    <path fill="#390a0c" opacity=".62" d="M66.43 100.83c.99-.96 1.98-1.92 2.98-2.87.07.65.23 1.94.31 2.59-.46 1.28-.92 2.55-1.44 3.81-.62-1.18-1.23-2.36-1.85-3.53z"/>
    <path fill="#130304" opacity=".35" d="M65.16 107.05c.5-.27 1.51-.81 2.01-1.09-.39.53-1.16 1.59-1.55 2.11.51 2.72.55 5.49.36 8.24.89-1.64 1.8-3.29 2.91-4.8-.45 2.03-1.19 3.97-2.16 5.81-.32-.24-.97-.71-1.29-.94-.21-3.1-.38-6.23-.28-9.33z"/>
</svg>
