<svg width="128pt" height="128pt" viewBox="0 0 128 128" xmlns="http://www.w3.org/2000/svg">
    <g fill="#fff">
        <path d="M29.22 42.15c3.79-1.19 7.72-2.23 11.67-2.63 3.79 1.14 7.59 2.2 11.41 3.24 2.18 3.13 3.51 6.84 6.09 9.69.7.14 2.09.43 2.78.57.64.94 1.15 1.94 1.53 3.01-.76.86-1.57 1.66-2.45 2.4 1.42 2.16 2.62 4.69 4.86 6.12 1.41.11 2.82.14 4.24.22 1.63-2.53 3.8-4.71 5.01-7.49 1.56-3.15 3.91-6.48 7.67-6.98 2.02.72 3.88 1.77 5.83 2.64-.01 2.56-.03 5.12.01 7.68-1.36.09-2.72.18-4.08.28.05-.46.14-1.39.19-1.85.58.13 1.73.41 2.31.55.43-2.44-.59-5.53-3.35-5.94-1.86.43-2.63 2.29-3.45 3.79-1.9 3.93-3.84 7.87-6.54 11.32-1.35 1.71-3.43 2.62-5.57 2.85 1.76 3.36 3.36 6.85 5.96 9.66-.33 1.2-.66 2.39-.98 3.59-2.09-1.06-4.19-2.13-6.38-3-1.9-2.96-3.33-6.36-6.18-8.58-.91 5.61-.09 11.65 3.28 16.25 4.2 2.52 9.23 3.98 12 8.35-.56 2.17-.97 4.5-2.62 6.15.12-1.49.29-2.97.5-4.45-4.81-2.59-10.37-4.21-14.16-8.36-2.07-2.34-4.18-4.66-6.03-7.18-1.08-3.14-1.24-6.52-1.78-9.78-2.4 2.92-4.37 6.14-5.5 9.77.81 1.68 1.35 3.53 2.47 5.04 2.37 1.35 4.98 2.22 7.35 3.58.48 1.53.98 3.04 1.49 4.56-.95 1.27-1.92 2.52-2.9 3.76-1.91-.58-3.81-1.22-5.69-1.88.81-1.27 1.74-2.45 2.71-3.59.78.5 1.58 1 2.37 1.5l-3.67.8c.86.45 2.6 1.35 3.46 1.81 2.16-.74 1.79-2.97 1.69-4.73-3.74-2.38-8.4-2.37-12.18-4.62-1.41-2.28-2.63-4.7-3.56-7.21.88-4.3 3.91-7.79 4.81-12.09-1.67 2.48-3.24 5.98-6.69 6.1-.98-.08-2.94-.23-3.93-.31-.05.57-.17 1.7-.22 2.27l-.2-2.16c-2.65-.51-5.26-1.21-7.87-1.87-1.04-1.01-1.8-2.58-3.42-2.68.03.36.1 1.08.13 1.44-1.9 1.05-3.67 2.32-5.26 3.8 1.43 1.95 3.7 5.72 6.53 3.77 1.78-2-1.79-3.22-2.73-4.74 1.93.96 3.69 2.23 5.31 3.66-1.15 1.09-2.33 2.15-3.5 3.22-1.93-.8-4.51-.8-5.65-2.83-1.02-1.43-1.79-3-2.59-4.55 1.79-1.58 3.56-3.19 5.34-4.79 4.98-1.94 9.9 1.24 14.85 1.22 4.97-.42 6-5.95 8.14-9.47-.59-1.46-1.03-3-1.84-4.36-5.3-2.92-10.93-5.21-16.38-7.81 1.58-3.03 3.06-6.18 5.36-8.73m19.31 12.21c.51 1.26 1.05 2.51 1.59 3.76l3.17-.48c-1.54-1.15-3.13-2.25-4.76-3.28z"/>
        <path d="M67.59 48.11c1.48-.88 2.95-1.77 4.42-2.67.62.2 1.87.59 2.5.78.29 1.1.59 2.19.9 3.29-.83.82-1.66 1.65-2.49 2.48-.59-.92-1.19-1.83-1.77-2.74.73.11 2.19.35 2.91.47-.12-.74-.37-2.21-.5-2.94-1.57.44-2.98 1.25-4.31 2.17.23 3.12 1.44 6.04 1.97 9.11-.72 2.1-.86 5.22-3.23 6.09-2.31.63-3.74-1.38-4.69-3.13 1.44-.46 3.68-.68 3.97-2.57.43-3.42.3-6.89.32-10.34zM31.12 68.45c.68-2.99.86-6.57 4.2-7.84 1.81 1.14 3.59 2.34 5.42 3.45-.86 1.82-1.74 3.63-2.63 5.44-1.11-1.82-2.68-3.21-4.71-3.87-.42 1.38-.83 2.77-1.24 4.16-1.73.08-3.46.39-5.19.16-.54-1.37-.9-2.78-1.1-4.24.46 2.78 2.73 4.06 5.25 2.74z"/>
        <path d="M27.47 65.03c1.41-.43 1.94.04 1.59 1.4-1.4.42-1.93-.04-1.59-1.4zM86.57 67.78c.78-1.2 1.7-2.31 2.66-3.38 1.17 1.06 2.48 2.09 3.17 3.55-.74 2.68-3.21 6.05-6.28 3.93.56-2.48 5.33-1 5.04-4.37-1.52-1.64-3.09-.87-4.59.27zM74.87 66.31c.79.17 2.37.52 3.17.69-.38 1.18-.75 2.37-1.13 3.56-.85.09-2.56.27-3.41.37.03-1.65.65-3.16 1.37-4.62zM81.26 68.12c1.63.76 3.23 1.59 4.92 2.26-1.29.4-2.64.92-4 .6-.88-.75-1.19-1.7-.92-2.86zM74.49 74.37c.71-2.35 3.38-3.03 5.4-3.81 1.27 1.17 3.01 1.04 4.6.92.66.76 1.36 1.5 2.09 2.2-.2 3.11-.42 6.22-.78 9.32-2.75 1.09-5.44 2.53-8.44 2.8-.38-4.04 4.41-2.71 6.05-5.25 1.46-1.65.67-3.98.9-5.96-2.51-1.57-5.39-1.43-8.06-.36-.54 1.23-1.08 2.46-1.64 3.67-.09-1.18-.13-2.35-.12-3.53z"/>
        <path d="M79.75 78.12c-1.72-.21-1.09-2.89.32-3.11 1.44.3.86 2.78-.32 3.11zM68.36 99.08c1.8.32.31 3.03-.64 3.63-1.87-.27-.7-3.29.64-3.63z"/>
    </g>
</svg>
