<svg width="128pt" height="128pt" viewBox="0 0 128 128" xmlns="http://www.w3.org/2000/svg">
    <g fill="#fff">
        <path d="M92.03 14.63c.43-2.15 2.04-3.74 3.16-5.55.97 8-3.93 15.27-3.42 23.22 1.11 2.18 3.78 2.09 5.85 2.35-.21-6.63 1.45-13.19 2.37-19.74 1.23 2.9 2.14 5.93 3.3 8.86-.51-.1-1.52-.32-2.02-.42-.97 5.22-.82 10.64 1 15.66-3.38-.66-6.77-1.33-10.18-1.79-1.14.7-2.31 1.36-3.48 2-1.1 3.96-1.6 8.11-3.38 11.86-.53-.48-1.58-1.44-2.11-1.92.84-3.06 1.78-6.1 2.52-9.18.89-2.41-1.17-4.59-3.12-5.67-2.72-1.31-5.49-2.76-8.53-3.15 4.21-3.24 7.51-7.65 8.91-12.83-.54-.08-1.62-.25-2.16-.33 2.87-2.05 5.16-4.77 7.88-6.98l-.75 1.7c-1.54 5.98-4.62 11.4-6.79 17.14.89 2.19 4.12 1.49 6.01 1.47 1.31-5.67 3.46-11.08 4.94-16.7zM77.55 71.1c1.59-5.53 2.45-11.26 4.4-16.69.59.13 1.77.38 2.36.5-.89 5.28-2.35 10.54-4.06 15.6-.67.15-2.03.44-2.7.59zM77.46 74.35c.54-.12 1.63-.35 2.17-.46-2.45 6.92-3.65 14.21-5.68 21.27-.77-.88-1.54-1.75-2.3-2.63 2.08-6 2.46-12.66 5.81-18.18zM69.63 99.79c.53.2 1.58.59 2.11.79-.9 2.88-.83 5.88-.93 8.85-2.59 1.86-3.62 4.96-4.9 7.74-.25-3.01.83-6.18-.68-8.98 2.75-2.02 3.71-5.23 4.4-8.4z"/>
    </g>
</svg>
