<svg width="128pt" height="128pt" viewBox="0 0 128 128" xmlns="http://www.w3.org/2000/svg">
    <path fill="#fff" d="M17.29 18.19c2.2-1.28 4.86-1.02 6.95.34-.5 1.43-1.38 2.79-1.41 4.34 1.08 2.8 3.86 4.31 5.88 6.36 2.16 1.91 3.88 4.34 6.29 5.93 1.42.07 2.81.3 4.13.84 2.31-2.3 4.15-5.17 7.03-6.84 2.13-1.25 4.69-1 7.06-1.08 1.37 2.32 2.78 4.66 3.31 7.34-2.83-.43-5.64-.97-8.42-1.68-1.99 1.46-4.07 3.68-3.34 6.38 1.53 5.26 6.25 8.58 10.3 11.87 1.49-.48 2.96-.16 3.81 1.24 10.91 12.05 22.37 23.59 33.01 35.89 4.13 4.86 8.47 9.65 11.48 15.32.97 1.74 1.19 3.74 1.29 5.69-5.28-.57-9.83-3.62-13.69-7.07-14.94-13.41-30.23-26.45-44.6-40.48.11-.58.34-1.73.45-2.31-3.03-3.8-6.66-7.09-10.31-10.3-2.97-.32-6.14.49-8.08 2.91.47 3.01 1.32 5.94 1.61 8.98-2.26-.87-4.45-1.92-6.68-2.86-2.11-6.32 2.97-11.29 7.58-14.64-.73-1.32-1.31-2.7-1.24-4.23-3.83-3.73-6.66-8.52-11.14-11.55-1.8-1.33-3.82.43-5.6.86-1.84-4.16-.1-9.63 4.33-11.25z"/>
</svg>
