<svg width="128pt" height="128pt" viewBox="0 0 128 128" xmlns="http://www.w3.org/2000/svg">
    <path fill="#b52431" d="M64.91 20.13c3.99-1.38 7.52-4.84 12.05-3.84 2.1 1.12 3.11 3.47 4.3 5.42.64 1.04 1.27 2.12 2.15 2.99 3.63.43 7.3.09 10.95.15.01-1.59.03-3.17.05-4.76-1.84.14-3.68.29-5.53.35-.36-.33-1.08-1-1.44-1.33 2.88-.22 5.77-.25 8.66-.23.05 2.7.06 5.41.05 8.11-6.54.33-13.11.47-19.62-.39 1.65-1.85 2.83-4.74.46-6.56-2.53-2.88-7.29.48-6.19 3.86l1.59 2.46c-.58.24-1.73.73-2.31.97-.93-.58-1.86-1.17-2.79-1.75-.35.52-1.05 1.55-1.4 2.07-1.05.59-2.17 1.15-3.42.92.31-2.77 1.09-5.46 1.72-8.16l.72-.28z"/>
    <path fill="#d13538" opacity=".91" d="M32.77 18.75c.52-1.98 3.87-2.02 4.38-.02l-.18.46c-1.3-.32-2.6-.33-3.91-.03l-.29-.41z"/>
    <g fill="#d62b2e">
        <path d="M38.75 18.72c.43-2 3.84-1.86 4.3.07-1.08 1.13-3.2.96-4.3-.07zM44.55 18.78c.34-2.22 4.81-1.79 4.11.47-1.33.26-3.03.59-4.11-.47zM50.54 18.97c.1-2.26 4-2.15 3.94.13-1.29.42-2.69.42-3.94-.13zM56.57 18.77c.14-1.99 3.58-1.91 3.78.01-.96.99-2.83 1.01-3.78-.01zM73.1 21.96c.71 0 2.11 0 2.81-.01 1.58 3.3-4.38 3.35-2.81.01zM38.95 56.92c2.36-1.32 5.13-2.28 6.27-5.01-.06 4.37-.01 8.73-.06 13.09 3.72-.02 7.44-.03 11.15 0-.15.75-.46 2.24-.62 2.98-4.02.86-8.3-.12-12.17 1.42-1.12.4-2.2.88-3.3 1.35.08-1.12.15-2.22.22-3.33-1.94-1.09-3.89-2.17-5.86-3.22 1.34-2.47 2.29-5.31 4.37-7.28zM55.56 54.9c.22.23.65.68.86.91.51.47 1.51 1.41 2.02 1.88-1.76-.03-3.51-.05-5.26-.08.78-.91 1.58-1.82 2.38-2.71zM61.28 55.15l.33.12c1.07.57 1.88 1.52 2.77 2.34-1.82.05-3.65.06-5.47.08.79-.85 1.57-1.7 2.37-2.54zM83.53 56.34c1.13-1.44 2.14-1.37 3.03.21-1.15.91-2.16.84-3.03-.21zM89.25 77.37l.48-.45c.38.29 1.13.87 1.51 1.16.14 1.32-.67 2.37-1.63 3.15-.86-1.21-.98-2.49-.36-3.86zM89.69 82.19c1.39 1.83 1.74 4-.53 5.32-.03-1.8.14-3.57.53-5.32zM46.6 92.28l.97-.13.84.64-.07.66c-.47.12-1.41.37-1.88.49.03-.41.1-1.24.14-1.66zM90.08 95.12c1.83-1.18 1.87 3.94.01 2.91 0-.73-.01-2.19-.01-2.91zM89.53 106.53l.75.02c1.03 1.24.9 2.14-.37 2.7-.1-.68-.29-2.04-.38-2.72z"/>
    </g>
    <g fill="#7e1b1b">
        <path d="M87.29 18.16c3.14-.01 6.27-.01 9.41 0 .02 3.23.02 6.46.01 9.68-8.89.04-17.79.07-26.68-.06l.05-.45c.58-.24 1.73-.73 2.31-.97 1.38.13 2.76.18 4.14.24 6.51.86 13.08.72 19.62.39.01-2.7 0-5.41-.05-8.11-2.89-.02-5.78.01-8.66.23.36.33 1.08 1 1.44 1.33.79.68 1.6 1.34 2.43 1.98.1.08.31.26.41.34l.49.43c-1.55.66-3.24.8-4.9.76-.02-1.93-.02-3.86-.02-5.79zM31.29 21.3h.65c9.81.02 19.62-.07 29.42.05-.36.11-1.09.33-1.46.44-5.4.32-10.81 0-16.22.17-3.92-.05-7.84-.07-11.77.05-.08 3.01-.14 6.03-.16 9.04-.04 4.67.03 9.33.06 14-.04 5.91-.12 11.82.05 17.72.06 4.07-.03 8.14-.13 12.21 8.27.03 16.54-.06 24.8-.01 4.03.05 8.06.02 12.09-.09.66 4.2.39 8.46.44 12.68-.03 5.65.42 11.31-.11 16.95-4.08.22-8.16.83-12.26.56-1.81-.13-3.61-.33-5.42-.44-5.53-.2-11.07.25-16.58-.46 11.25-.58 22.53-.12 33.79-.25-.1-9.5-.06-19 0-28.49-12.4.02-24.8.01-37.2-.01.01-18.04-.02-36.08.01-54.12z"/>
        <path d="M41.94 91.42c2.3 1.12 3.96 3.07 5.44 5.11.35-.45 1.07-1.34 1.42-1.79 1.52.67 2.08 2.49 3.1 3.71.78-.26 2.33-.78 3.1-1.04.48-.13 1.45-.38 1.94-.51-3.11 5.16-11.33 3.61-14.85-.29l-.56-2.17c1.68 1.28 3.36 2.59 5.25 3.57-1.59-2.21-3.62-4.12-4.84-6.59z"/>
    </g>
    <path fill="#2a0b0b" opacity=".5" d="M33.06 19.16c1.31-.3 2.61-.29 3.91.03l-.21.56c-1.11.94-3.05.85-3.7-.59z"/>
    <path fill="#040101" opacity=".17" d="M70.8 23.9c-1.1-3.38 3.66-6.74 6.19-3.86 2.37 1.82 1.19 4.71-.46 6.56-1.38-.06-2.76-.11-4.14-.24L70.8 23.9m2.3-1.94c-1.57 3.34 4.39 3.29 2.81-.01.25-1.53-3.1-1.53-2.81.01z"/>
    <g fill="#b32426">
        <path d="M61.36 21.35c.71-.23 2.12-.7 2.83-.94-.63 2.7-1.41 5.39-1.72 8.16 1.25.23 2.37-.33 3.42-.92 1.3.68 2.59 1.37 3.89 2.07-1.46 1.37-2.92 2.73-4.39 4.09l1.87 1.91c-2.33-.04-4.66-.05-6.99-.04-.27-.66-.55-1.32-.82-1.98l-.36 2.12c-1.83.93-3.73 2.02-5.84 2.1-.95-.59-1.83-1.27-2.72-1.93.7-2.22 1.37-4.46 2.02-6.69 2.26.57 4.51 1.17 6.74 1.86 1.8-2.86 1.07-6.24.61-9.37.37-.11 1.1-.33 1.46-.44zM75.78 64.97c1.6 0 3.21-.01 4.82-.02-.37 8.74-.18 17.49-.2 26.23-4.19.39-8.08-1.09-11.34-3.62-.05-4.22.22-8.48-.44-12.68-.38-1.39-.8-2.77-1.22-4.14 2.2-1.28 4.42-2.74 7.06-2.82.27.66.8 1.97 1.07 2.63 1.19-.34 2.39-.68 3.59-1.02-1-.45-2-.9-2.99-1.35-.12-1.07-.24-2.14-.35-3.21z"/>
    </g>
    <path fill="#5a1414" opacity=".73" d="M73.1 21.96c-.29-1.54 3.06-1.54 2.81-.01-.7.01-2.1.01-2.81.01z"/>
    <path fill="#a72126" d="M31.91 22.01c3.93-.12 7.85-.1 11.77-.05 1.87 3.55 4.69 6.72 8.87 7.34-.65 2.23-1.32 4.47-2.02 6.69.89.66 1.77 1.34 2.72 1.93 2.11-.08 4.01-1.17 5.84-2.1l.16 3.1c-4.51-.1-9.03.07-13.54-.18l-.57.82c-.58.78-1.16 1.56-1.75 2.34-.38-1.02-.77-2.03-1.15-3.05-4.1-2.04-5.27-6.83-8.8-9.5-.42.43-1.27 1.28-1.69 1.7.02-3.01.08-6.03.16-9.04z"/>
    <g fill="#c6252c">
        <path d="M43.68 21.96c5.41-.17 10.82.15 16.22-.17.46 3.13 1.19 6.51-.61 9.37-2.23-.69-4.48-1.29-6.74-1.86-4.18-.62-7-3.79-8.87-7.34zM82.65 57.85c.22-.38.66-1.13.88-1.51.87 1.05 1.88 1.12 3.03.21.44.25.87.53 1.29.82-1.73.22-3.46.35-5.2.48z"/>
    </g>
    <path fill="#de3831" d="M91.31 22.42c.1.08.31.26.41.34-.1-.08-.31-.26-.41-.34z"/>
    <path fill="#0a0202" opacity=".23" d="M67.29 25.58c.93.58 1.86 1.17 2.79 1.75l-.05.45c-.22 1.4-.08 2.97 1.26 3.76-.08.08-.24.25-.33.33-1.25 1.26-2.48 2.55-3.7 3.85l-1.87-1.91c1.47-1.36 2.93-2.72 4.39-4.09-1.3-.7-2.59-1.39-3.89-2.07.35-.52 1.05-1.55 1.4-2.07z"/>
    <path fill="#be2426" d="M33.44 29.35c3.53 2.67 4.7 7.46 8.8 9.5.38 1.02.77 2.03 1.15 3.05.59-.78 1.17-1.56 1.75-2.34-.01 1.56.01 3.11.04 4.67-3.92-.25-7.93.16-11.22 2.51-.72-.56-1.43-1.13-2.15-1.69-.03-4.67-.1-9.33-.06-14 .42-.42 1.27-1.27 1.69-1.7z"/>
    <path fill="#bd2831" d="M67.26 35.72c1.22-1.3 2.45-2.59 3.7-3.85 1.11 1.35 2.25 2.69 3.4 4 1.31-1.44 2.66-2.83 4.06-4.18.86 1.4 1.73 2.79 2.61 4.18 1.18-1.44 2.39-2.86 3.61-4.26.99 1.54 1.99 3.07 3.02 4.59.99-1.53 1.96-3.08 2.93-4.63.95 1.52 1.9 3.03 2.86 4.54 1.05-1.54 2.12-3.08 3.21-4.59-.01 2.43-.04 4.86-.06 7.3-11.54-.03-23.1-.24-34.64.23-.56-1.12-1.13-2.25-1.69-3.37 2.33-.01 4.66 0 6.99.04z"/>
    <path fill="#030101" opacity=".21" d="M45.14 39.56l.57-.82c.75 6.73.11 13.51.32 20.27 11.34-.2 22.68.07 34.01-.06 2.4.03 4.96-.37 7.17.79-.71.05-2.14.14-2.86.19-12.65.12-25.3-.08-37.95.09.23.46.7 1.37.93 1.82 12.28.39 24.59.03 36.88.15-.4 5.87-.04 11.76-.16 17.64 0 2.8.03 5.6-.03 8.4-.08 1.28-.09 2.56-.02 3.84.05 5.55 0 11.09.09 16.64v.51c-.17 1.04-.38 2.07-.62 3.1-.31-16.42.17-32.85-.23-49.26-12.41-.21-24.82-.03-37.23-.14l-.01 1.3c11.85.41 23.72-.1 35.57.3.15 12.88-.04 25.76.07 38.63.02 2.77.25 5.62-.63 8.3-.02-15.44-.03-30.87 0-46.3h-.41c-1.61.01-3.22.02-4.82.02-3.92-.02-7.83.08-11.74.01-1.36-.12-2.71-.12-4.07-.01-1.22.03-2.44.04-3.66.03-3.71-.03-7.43-.02-11.15 0 .05-4.36 0-8.72.06-13.09.04-2.56 0-5.12-.04-7.68-.03-1.56-.05-3.11-.04-4.67z"/>
    <path fill="#b52326" d="M47.45 40.97c3.57 3.56 7.63 6.55 11.28 10.01.23-2.7.48-6.26 3.35-7.51 2.93-.66 6.28.42 8.32 2.66-1.6-.3-3.13-.87-4.64-1.44.76 1.08 1.25 2.27 1.49 3.56-1.32-1.24-2.55-2.56-3.77-3.89-.58.48-1.74 1.43-2.33 1.91.32 2.7 2.52 4.96 2.07 7.82H61.8c-2.33-.01-4.66.01-6.98-.02-2.61-.04-5.08-.97-7.49-1.89.02-3.74.02-7.48.12-11.21z"/>
    <path fill="#cb282c" d="M33.96 46.74c3.29-2.35 7.3-2.76 11.22-2.51.04 2.56.08 5.12.04 7.68-1.14 2.73-3.91 3.69-6.27 5.01-2.08 1.97-3.03 4.81-4.37 7.28-.91-.48-1.81-.95-2.72-1.43-.17-5.9-.09-11.81-.05-17.72.72.56 1.43 1.13 2.15 1.69z"/>
    <path fill="#0f0403" opacity=".4" d="M54.82 54.07c2.32.03 4.65.01 6.98.02l-.19 1.18-.33-.12c-1.67-.46-3.3.13-4.86.66-.21-.23-.64-.68-.86-.91l-.74-.83z"/>
    <path fill="#5a1819" opacity=".6" d="M48.82 55.73c1.59-1.82 3.29.95 3.76 2.27-1.89.03-3.78-.01-5.67-.12l1.44-.71c2.26.84 3.37-1.71.47-1.44z"/>
    <path fill="#d73c41" opacity=".92" d="M66.07 56.85c-1-1.96 3.83-1.96 2.81-.03-.71.01-2.11.02-2.81.03z"/>
    <path fill="#4c1415" opacity=".56" d="M76.44 58c.49-1.64 1.78-2.65 3.23-3.41l.57 1.23c-.54.26-1.63.79-2.17 1.05.68.07 2.03.22 2.71.29.36.17 1.1.5 1.47.67-1.94.17-3.88.19-5.81.17z"/>
    <path fill="#f34246" opacity=".95" d="M48.35 57.17c.12-.36.35-1.08.47-1.44 2.9-.27 1.79 2.28-.47 1.44z"/>
    <path fill="#651b1c" opacity=".65" d="M72.89 58.24c-1.43.53-2.81-1.76-.88-1.94.89.72 1.87.87 2.96.45 2.16.78-1.22 1.96-2.08 1.49z"/>
    <path fill="#ff4142" d="M72.01 56.3c1.26-1.17 2.24-1.02 2.96.45-1.09.42-2.07.27-2.96-.45z"/>
    <path fill="#fc3e46" d="M78.07 56.87c.54-.26 1.63-.79 2.17-1.05.13.34.4 1.01.54 1.34-.68-.07-2.03-.22-2.71-.29z"/>
    <path fill="#6c1e21" opacity=".68" d="M68.88 56.82c3.42 1.73-6.11 1.9-2.81.03.7-.01 2.1-.02 2.81-.03z"/>
    <path fill="#822325" opacity=".79" d="M89.53 63.86c-1.69-.64-.53-6.37.64-3.7l.04 2.74-.68.96z"/>
    <path fill="#e92d35" d="M46.4 60.02c12.65-.17 25.3.03 37.95-.09-.03.51-.11 1.55-.14 2.06-12.29-.12-24.6.24-36.88-.15-.23-.45-.7-1.36-.93-1.82z"/>
    <path fill="#b52c31" d="M84.35 59.93c.72-.05 2.15-.14 2.86-.19-.35 8.37.16 16.76-.28 25.12l-1.4-1.44c-.08-.77-.14-1.53-.19-2.3-.32-.37-.96-1.12-1.29-1.49.12-5.88-.24-11.77.16-17.64.03-.51.11-1.55.14-2.06z"/>
    <path fill="#ff454a" d="M90.17 60.16c.29.24.85.71 1.13.95l.01.77-1.1 1.02-.04-2.74z"/>
    <path opacity=".44" d="M91.3 61.11c.01.19.01.58.01.77l-.01-.77z"/>
    <path fill="#b52426" d="M31.86 62.77c.91.48 1.81.95 2.72 1.43 1.97 1.05 3.92 2.13 5.86 3.22-.07 1.11-.14 2.21-.22 3.33 1.1-.47 2.18-.95 3.3-1.35 4.56.84 11.01.31 13.01 5.57-8.26-.05-16.53.04-24.8.01.1-4.07.19-8.14.13-12.21z"/>
    <path fill="#c6272c" d="M56.31 65c1.22.01 2.44 0 3.66-.03.65 1.76 3.38 1.71 4.07.01 3.91.07 7.82-.03 11.74-.01.11 1.07.23 2.14.35 3.21.99.45 1.99.9 2.99 1.35-1.2.34-2.4.68-3.59 1.02-.27-.66-.8-1.97-1.07-2.63-2.64.08-4.86 1.54-7.06 2.82.42 1.37.84 2.75 1.22 4.14-4.03.11-8.06.14-12.09.09-2-5.26-8.45-4.73-13.01-5.57 3.87-1.54 8.15-.56 12.17-1.42.16-.74.47-2.23.62-2.98z"/>
    <path fill="#ff3431" d="M59.97 64.97c1.36-.11 2.71-.11 4.07.01-.69 1.7-3.42 1.75-4.07-.01z"/>
    <path fill="#6e191a" opacity=".78" d="M80.6 64.95h.41c-.03 15.43-.02 30.86 0 46.3v.63c-16.61-.07-33.21.01-49.82-.07.1-6.7-.2-13.41-.07-20.11.77 1.27 1.36 2.64 1.72 4.09-2.02 4.87-.95 10.23-.96 15.34 5.34.15 10.67-.16 16-.02 3.32.11 6.65.14 9.97.04 7.48-.19 14.97.13 22.45-.06l-.04-.75c-.03-2.68.05-5.36.06-8.05.03-3.7.11-7.41.08-11.11.02-8.74-.17-17.49.2-26.23z"/>
    <path fill="#831f21" opacity=".8" d="M89.49 69.78c-1.53-.7-.51-6.32.73-3.73-.01.7-.02 2.1-.03 2.8-.18.23-.53.69-.7.93z"/>
    <path fill="#f73b3f" d="M90.22 66.05c1.55-.33 1.53 3.23-.03 2.8.01-.7.02-2.1.03-2.8z"/>
    <path fill="#3b0e10" opacity=".51" d="M88.93 70.58c.67.27 2.01.79 2.68 1.06-.19 1.12-.23 2.34-1 3.27 1.1-.82-.16-4.22-.97-1.96l.24 1.91c-.04.51-.12 1.54-.15 2.06l-.48.45c-.21-2.26-.3-4.52-.32-6.79z"/>
    <path fill="#f33e46" opacity=".95" d="M89.64 72.95c.81-2.26 2.07 1.14.97 1.96l-.73-.05-.24-1.91z"/>
    <path fill="#190606" opacity=".31" d="M91.24 78.08c.05-.32.13-.96.17-1.28.08 5.29-.39 10.61.35 15.88-.71.19-2.12.58-2.83.77.02-1.98.07-3.96.23-5.94 2.27-1.32 1.92-3.49.53-5.32l-.08-.96c.96-.78 1.77-1.83 1.63-3.15M89.7 89.95c-1.27 3.29 3.22 0 0 0z"/>
    <path fill="#9f2023" d="M48.5 81.35c-.82-1.62.97-3.11 2.57-2.55 5.69 1.22 10.63 4.61 15.6 7.48-.04 3.41-.01 6.82-.05 10.23-3.01-2.48-5.85-5.29-9.6-6.64-.17 2.34-.1 4.69-.08 7.03-.49.13-1.46.38-1.94.51-.05-6.07-5.35-10.28-6.5-16.06z"/>
    <path fill="#a52429" d="M84.05 79.63c.33.37.97 1.12 1.29 1.49.05.77.11 1.53.19 2.3l1.4 1.44c.42 6.1.11 12.28.1 18.4-1.04 1.72-2.01 3.47-2.94 5.25-.09-5.55-.04-11.09-.09-16.64 2.13-.51 3.07-4.55.02-3.84.06-2.8.03-5.6.03-8.4z"/>
    <path fill="#c62829" d="M69.06 87.56c3.26 2.53 7.15 4.01 11.34 3.62.03 3.7-.05 7.41-.08 11.11-.61-.14-1.82-.43-2.43-.58l-1.02-2.88c-1.81.39-4.39.03-5.35 2.02-1.46 2.17 1.04 3.91 2.14 5.59 2.92-.26 4.98 1.74 6.6 3.9l.04.75c-7.48.19-14.97-.13-22.45.06.56-.9 1.12-1.79 1.68-2.68-.98-.56-1.95-1.11-2.92-1.66l.08-1.74c4.1.27 8.18-.34 12.26-.56.53-5.64.08-11.3.11-16.95z"/>
    <path fill="#791b1b" d="M84.02 88.03c3.05-.71 2.11 3.33-.02 3.84-.07-1.28-.06-2.56.02-3.84z"/>
    <path fill="#ef3439" d="M89.7 89.95c3.22 0-1.27 3.29 0 0z"/>
    <path fill="#120405" opacity=".33" d="M41.94 91.42c1.89.11 3.86-.12 5.63.73l-.97.13c-.04.42-.11 1.25-.14 1.66.47-.12 1.41-.37 1.88-.49l.74-.34-.28 1.63c-.35.45-1.07 1.34-1.42 1.79-1.48-2.04-3.14-3.99-5.44-5.11z"/>
    <path fill="#751b1d" opacity=".77" d="M89.41 98.9c-1.49-.7-.5-6.35.67-3.78 0 .72.01 2.18.01 2.91-.17.22-.51.65-.68.87z"/>
    <path fill="#b52429" d="M31.88 111.13c.01-5.11-1.06-10.47.96-15.34.5 2.81 1.14 5.6 1.85 8.38 5.51.71 11.05.26 16.58.46-1.14 2.16-2.26 4.32-3.39 6.48-5.33-.14-10.66.17-16 .02z"/>
    <path fill="#aa2024" d="M71.52 100.85c.96-1.99 3.54-1.63 5.35-2.02l1.02 2.88c.61.15 1.82.44 2.43.58-.01 2.69-.09 5.37-.06 8.05-1.62-2.16-3.68-4.16-6.6-3.9-1.1-1.68-3.6-3.42-2.14-5.59z"/>
    <path fill="#701a1c" opacity=".75" d="M89.41 104.09c-1.97-1.12.23-6.23 1.29-2.97-.76.84-1.05 1.83-.86 2.95l-.43.02z"/>
    <path fill="#ff3c42" d="M89.84 104.07c-.19-1.12.1-2.11.86-2.95 1 1.44.71 2.43-.86 2.95z"/>
    <path fill="#c92e31" d="M84.09 108.51c.93-1.78 1.9-3.53 2.94-5.25.06 2.78.06 5.56.07 8.33-.74.04-2.23.11-2.97.15l-.04-2.72v-.51z"/>
    <path fill="#9f2123" d="M51.27 104.63c1.81.11 3.61.31 5.42.44l-.08 1.74c.97.55 1.94 1.1 2.92 1.66-.56.89-1.12 1.78-1.68 2.68-3.32.1-6.65.07-9.97-.04 1.13-2.16 2.25-4.32 3.39-6.48z"/>
    <path fill="#491314" opacity=".56" d="M89.17 105.16l.36 1.37c.09.68.28 2.04.38 2.72 1.27-.56 1.4-1.46.37-2.7l1.13-.26-.24 3.72-2.2.8c.01-1.89.04-3.77.2-5.65z"/>
</svg>
