<svg width="128pt" height="128pt" viewBox="0 0 128 128" xmlns="http://www.w3.org/2000/svg">
    <path fill="#9b9b9b" opacity=".61" d="M33.5 17.45c1.77-1.15 3.5.24 3.88 2.04-1.45-.25-6.08.78-3.88-2.04z"/>
    <path fill="#8e8e8e" opacity=".56" d="M40.26 16.94c1.68-.18 2.61 1.18 3.12 2.57-1.7.02-3.4.02-5.11 0 .61-.9 1.2-1.82 1.99-2.57z"/>
    <path fill="#7f7f7f" opacity=".5" d="M44.04 19.53c.67-.88 1.32-1.77 2.1-2.55 1.67-.32 2.48 1.5 3.31 2.59-1.81.02-3.61 0-5.41-.04z"/>
    <path fill="#747474" opacity=".45" d="M49.75 19.51c.72-.87 1.43-1.75 2.26-2.53 1.62-.25 2.37 1.62 3.43 2.51-1.9.05-3.8.06-5.69.02z"/>
    <path fill="#757575" opacity=".46" d="M55.6 19.54c.94-1.05 1.48-3.15 3.27-2.52.85.76 1.6 1.62 2.36 2.46-1.88.05-3.75.08-5.63.06z"/>
    <path fill="#a3a3a3" opacity=".64" d="M47.41 57.94c.68-.98.91-3.2 2.65-2.51 1.24.29 1.71 1.59 2.39 2.5-1.68.03-3.36.03-5.04.01z"/>
    <path fill="#a2a2a2" opacity=".64" d="M55.45 54.78c1.06 1 2.08 2.04 3.02 3.14-1.78.01-3.57-.01-5.35-.05.73-1.06 1.51-2.09 2.33-3.09z"/>
    <path fill="#adadad" opacity=".68" d="M61.43 54.86c1.01.98 2 1.99 2.95 3.03-1.77 0-3.53-.01-5.29-.05.73-1.03 1.5-2.04 2.34-2.98z"/>
    <path fill="#aeaeae" opacity=".68" d="M67.23 55.02c.42.27 1.25.82 1.67 1.09.28.46.84 1.37 1.12 1.83-1.73-.04-3.45-.06-5.18-.06.79-.97 1.58-1.92 2.39-2.86z"/>
    <path fill="#aeaeae" opacity=".69" d="M70.62 57.85c1.14-1.33 2.45-3.37 4.36-1.91.2.5.6 1.49.8 1.98-1.72-.03-3.44-.04-5.16-.07z"/>
    <path fill="#949494" opacity=".58" d="M76.53 57.97c.78-1.01 1.45-2.26 2.69-2.78 1.5.08 1.88 1.73 2.67 2.7-1.79.06-3.58.09-5.36.08z"/>
    <path fill="#a5a5a5" opacity=".65" d="M82.55 57.96c.64-1.16 1.51-2.15 2.41-3.1 1.07.85 2.09 1.77 2.68 3.02-1.69.07-3.39.09-5.09.08z"/>
    <path fill="#c5c5c5" opacity=".77" d="M89.04 59.19l2.04.96c0 .66-.01 1.99-.01 2.65-.52.32-1.56.95-2.08 1.27.03-1.63.05-3.25.05-4.88z"/>
    <path fill="#c3c3c3" opacity=".76" d="M88.96 64.93c.56.33 1.69.99 2.26 1.32.08 1.68-.42 3.1-2.06 3.83-.08-1.72-.14-3.44-.2-5.15z"/>
    <g fill="#bfbfbf">
        <path opacity=".75" d="M88.99 70.77c.52.33 1.55.99 2.07 1.32 0 .7.01 2.11.01 2.82-.51.15-1.51.46-2.02.61-.01-1.58-.04-3.17-.06-4.75zM89.05 88.47c.5.16 1.51.47 2.01.62v2.81c-.51.34-1.55 1-2.07 1.34l.06-4.77zM89.03 99.97c.51.27 1.52.82 2.03 1.1 0 .69 0 2.08.01 2.77-.52.24-1.54.72-2.06.96.02-1.61.02-3.22.02-4.83z"/>
    </g>
    <g fill="#bebebe">
        <path opacity=".75" d="M89.01 76.52c2.52.8 2.9 4.44.02 5.05-.03-1.68-.04-3.36-.02-5.05zM89.01 82.66c3.09.16 2.42 4.09 0 4.82-.02-1.61-.02-3.21 0-4.82z"/>
    </g>
    <path fill="#c4c4c4" opacity=".77" d="M89.05 94.21c.51.23 1.52.7 2.03.93 0 .66-.01 1.99-.01 2.65-.52.33-1.57.98-2.09 1.31.04-1.63.06-3.26.07-4.89z"/>
    <path fill="#b0b0b0" opacity=".69" d="M89.04 105.55c1.87.8 2.28 2.48 2.13 4.35-.55.13-1.65.4-2.2.53.02-1.63.02-3.26.07-4.88z"/>
</svg>
