<svg width="128pt" height="128pt" viewBox="0 0 128 128" xmlns="http://www.w3.org/2000/svg">
    <g fill="#fff">
        <path d="M59.97 21.43c6.21-.12 10.79-5.88 17.08-5.23 2.83 2.37 3.98 6 6.39 8.69 3.65.28 7.31.03 10.97.11-.04-1.69-.06-3.39-.1-5.08-1.94.27-4.31-.28-5.67 1.51.85.19 2.56.56 3.41.75 0 .42.01 1.26.02 1.69-1.52-.01-3.04-.02-4.56-.02-.01-1.87-.01-3.74-.02-5.61h9.01v9.52c-8.19.01-16.39-.03-24.58.01-1.76.04-3.13-1.28-4.59-2.08-.37.48-1.11 1.44-1.47 1.92 1.28.64 2.57 1.29 3.84 1.96-1.36 1.55-2.81 3.01-4.36 4.36l1.85 1.85c1.19-1.35 2.4-2.68 3.61-4.01 1.14 1.44 2.3 2.85 3.49 4.25 1.33-1.42 2.69-2.81 4.04-4.21.91 1.41 1.84 2.81 2.82 4.18 1.1-1.41 2.08-2.91 3.36-4.17 1.16 1.42 2.12 2.99 3.1 4.53 1.02-1.52 1.99-3.07 2.89-4.67.99 1.53 1.97 3.05 2.93 4.6 1.01-1.57 2.03-3.13 3.12-4.65-.04 2.41-.06 4.81-.07 7.22-11.47.01-22.94-.05-34.41.03-1.03-1.79-1.99-3.61-3.05-5.37-.03 1.79-.03 3.57-.03 5.36-4.61-.05-9.22-.01-13.83-.02.08 8.72.01 17.43-.01 26.15h35.71c-.14 15.5-.02 31.01-.06 46.51H31.5c-.01-6.68.06-13.37-.14-20.05 1.24 4.15 2.24 8.37 3.09 12.62 11.41.07 22.82.02 34.23.03-.14-9.62-.01-19.23-.04-28.85-12.39.01-24.78-.01-37.17.01.07-17.94.01-35.88.03-53.83 9.49-.01 18.98.04 28.47-.01m13.28-2.2c-1.11.58-2.27 1.44-2.44 2.8-1.11 3.17 3.46 6.36 5.97 3.92 3.63-2.18.27-8.37-3.53-6.72z"/>
        <path d="M74.26 25.16c-1.58-1.03-1.88-4.38.54-4.12 2.36.84.99 3.24-.54 4.12zM47.48 41.09c3.59 3.67 7.72 6.72 11.55 10.12-.48-3.31.74-6.75 3.95-8.14 2.69.6 5.68.92 7.62 3.13-1.68-.38-3.28-1.05-4.91-1.59.65 1.11 1.19 2.26 1.63 3.47-1.38-1.18-2.62-2.5-3.9-3.78-.66.45-1.99 1.34-2.65 1.78.87 2.62 2.55 5.02 2.46 7.88-5.29.62-10.8.27-15.75-1.81.06-3.68.06-7.37 0-11.06zM46.8 59.87c13.4.03 26.8-.02 40.2.03v51.78c-.73-.01-2.18-.01-2.91-.01 0-16.56-.02-33.11.01-49.67H46.83c-.01-.53-.02-1.59-.03-2.13z"/>
        <path d="M48.74 78.86c6.67.01 12.22 4.37 17.8 7.49-.1 3.33-.07 6.67 0 10-3.03-2.5-5.87-5.37-9.66-6.72-.23 3.05.75 6.33-1.17 9.03-3.22 2.03-7.07 1.32-10.47.19-1.89-.69-3.5-2.25-3.68-4.34 1.92 1.25 3.34 3.68 5.92 3.53l-2.11-1.21c.2-.19.59-.57.78-.76.57-.08 1.71-.26 2.27-.35-.98-1.43-1.99-2.84-2.84-4.34 3.23 1.36 4.35 4.99 6.48 7.5 1.04-.67 2.08-1.35 3.12-2.03-.4-6.57-7.32-11.11-6.44-17.99z"/>
        <path d="M42.61 91.95c1.71-.13 2.81 2.04 3.84 3.18-.07.24-.22.71-.3.94-1.57-.58-3.56-2.39-3.54-4.12z"/>
    </g>
</svg>
