<svg width="128pt" height="128pt" viewBox="0 0 128 128" xmlns="http://www.w3.org/2000/svg">
    <g fill="#fff">
        <path d="M51.1 25.97c.66-2.76 4.45-3.44 6.37-1.61 1.09 1.33.51 3.17.57 4.73 2.8-3.15 7.42-4.05 11.31-2.61 4.4 1.83 7.39 5.94 11.81 7.73 3.18 1.73 6.91-1.54 9.85 1.07 0 1.22.02 2.45.04 3.67-2.05 3.04-6.1 3.34-9.29 2.16-4.02-.93-6.75-4.21-9.45-7.06 1.52 3.86 4.55 6.8 7.89 9.13-3.65-1.43-7.73-2.73-10.06-6.13-1.68-2.14-1.96-5.15-4.09-6.96-1.63-1.6-4.06-1.44-6.13-1.93 3.48 1.28 4.81 7.68.15 8.02 2.79 3.02 2.8 8.4-.81 10.8-2.95-.14-5.9-.12-8.86-.07-.85-.97-1.71-1.94-2.56-2.91 3.32 0 6.64-.01 9.96.03 1.2-1.81 1.38-4.83-1.11-5.68-3.72-.08-8.08-.9-10.91 2.18.12-3.1.08-6.19.08-9.28 3.32.05 6.64.07 9.97-.03.43-1.42 1-2.81 1.23-4.28-.82-1.98-4.41-3.11-4.38-.03.12.63.34 1.89.45 2.52-1.21-.85-2.87-1.69-2.03-3.46m6.83 8.22c1.26-.11 2.35-.68 3.31-1.45-.53-.41-1.59-1.24-2.12-1.65-1.08.69-1.17 1.92-1.19 3.1m-11.04-1.45c-.02 1.62-.05 3.24-.08 4.86 2.4-.4 4.88-.71 7.27-.03-1.69-1.44-3.16-3.11-4.46-4.91l-2.73.08m27.44.57c2.66 3.33 6.27 6.57 10.76 6.72 1.92-.1 5.22-1.04 3.88-3.65-2.84.26-5.73 1.18-8.56.43-2.21-.81-4.08-2.3-6.08-3.5zM60.99 76.67c7.23-1.48 14.84-4.67 22.19-2.27-.01 3.34-2.58 5.73-4.45 8.21-3.04 3.78-7.69 6.39-9.35 11.14.69 1.88 2.13 3.27 4.18 3.45 2.46-2.41 5.2-6.51 8.98-6.02-1.9 1.4-3.85 2.94-4.48 5.33 3.19-1.35 5.72-4.26 9.26-4.67-2.52 2.27-5.46 3.99-8.22 5.93 2.65.97 5.08-.49 7.18-1.97-.22 3.02-3.97 3.6-6.35 4.17-4.21-.55-10.08-.4-11.92-5.08-1.33-3.61 2.15-6.59 1.3-10.07-4.62.07-8.71 2.43-12.73 4.42 2.24-3.89 3.38-8.24 4.41-12.57zM54.46 91.9c5.28 1.27 12.73 1.96 14.54 8.09-2.31 6.04-9.11 8.46-15.02 9.17-5.07.95-10.23.3-15.3.09-3.1 1.98-6.76 2.46-10.37 2.32 0-.25-.01-.75-.01-.99 2.8-.31 6.32.11 8.1-2.57-3.47.12-6.96.32-10.43-.03 3.15-1.98 7.22-.62 10.76-1.18-2.59-1.99-5.97-1.57-9.01-1.91 3.85-1.85 9.97-1.4 11.92 3.02 7.48 1.15 16.57.08 21.38-6.45-1.87-2.01-4.62-1.05-6.97-.87-5.86.62-12.18.4-17.45-2.51 6.54 1.03 13.11-1.77 17.86-6.18z"/>
    </g>
</svg>
