<svg width="128pt" height="128pt" viewBox="0 0 128 128" xmlns="http://www.w3.org/2000/svg">
    <g fill="#d62b2e">
        <path d="M30.15 15.92c1.23 1.07 2.44 2.15 3.66 3.22-2.1 1.96-2.61 5.04-1.85 7.72 1.36 3 3.3 5.71 4.44 8.82.72.16 2.18.48 2.9.64-.02 4.8.04 9.61-.06 14.41.53.25 1.58.74 2.1.99-1.66 3.97-3.71 8.25-8.37 9.19-.02.43-.08 1.3-.11 1.73-.44.87-1.33 2.63-1.78 3.5-1.15-2.21-.78-4.75-.86-7.14.02-14.36.15-28.72-.07-43.08zM67.55 31.65c.56.18 1.68.55 2.24.73l.64 2.53c.55-.05 1.66-.13 2.21-.18 1.63 3.29 4.24 5.91 7 8.27-5.67-1.46-10.82-5.4-12.09-11.35z"/>
    </g>
    <path fill="#030101" opacity=".31" d="M102.28 16.32c.07-.17.2-.51.27-.68.5 16.64.24 33.32.14 49.97-11.74.35-23.49-.06-35.22.46-.01-1.52.53-2.05 1.63-1.61 2.19.82 4.59.74 6.9.72 8.68-.23 17.37-.15 26.06-.18.14-16.22-.32-32.47.22-48.68z"/>
    <path fill="#701518" d="M92.82 24.13c3.2-2.54 5.66-6.13 9.46-7.81-.54 16.21-.08 32.46-.22 48.68-8.69.03-17.38-.05-26.06.18-2.31.02-4.71.1-6.9-.72 5.12-1.9 7.79-7.31 7.95-12.51.29-.26.89-.79 1.18-1.05 2.16.54 4.31 1.09 6.46 1.63-.13 1.48-.25 2.96-.38 4.45 4.69 2.51 9.77 4.13 14.77 5.89 2.41-3.04 1.18-6.96.6-10.39-3.97-1.18-7.81-2.78-11.3-5.02.16-1.1.31-2.2.45-3.3 1.33-.83 2.66-1.66 3.99-2.48-.03-5.85-.06-11.7 0-17.55z"/>
    <path fill="#bb2426" d="M31.96 26.86c-.76-2.68-.25-5.76 1.85-7.72 1.82 1.71 3.64 3.41 5.49 5.08.03 4.03.03 8.07 0 12.1-.72-.16-2.18-.48-2.9-.64-1.14-3.11-3.08-5.82-4.44-8.82z"/>
    <path fill="#60141a" opacity=".69" d="M53.17 23.87c-.19-1.8 3.95-1.58 3.5.22-1.18.02-2.34-.05-3.5-.22z"/>
    <g fill="#e72d34">
        <path d="M52.05 23.73l1.12.14c1.16.17 2.32.24 3.5.22.31.5.95 1.49 1.26 1.99.04.69.11 2.06.14 2.75l-.79-1.25c-.84-1.5-2.18-3.1-4.11-2.34-.51 1.38-.5 2.79.02 4.23-2.93-.92-2.39-3.66-1.14-5.74zM63.12 39.63c-.93-1.31.19-2.32.93-3.19 2.28 1.1 4.75 2.05 6.46 4 2.86 2.93 3.46 7.19 3.73 11.09-5.73 2.7-11.4 6.46-13.92 12.54.69.03 2.07.09 2.76.13-1.1.3-2.2.58-3.31.83l-.79.18c.01.78.05 2.34.07 3.12-1.67-.69-3.34-1.37-5.01-2.05-1.89.86-3.7 2.17-5.82 2.34-2.72-.14-5.33-1.05-7.96-1.66-.15-.45-.46-1.35-.62-1.8-2.37.05-4.75.05-7.11-.19.08-.58.25-1.75.33-2.33.03-.43.09-1.3.11-1.73 4.66-.94 6.71-5.22 8.37-9.19 4.62 1.52 8.83 4.38 13.63 5.24 4.35.13 9.57-2.22 10.51-6.86.27-2.29-2.2-2.97-3.8-3.69 1.28-1.99 2.13-4.42 1.44-6.78z"/>
    </g>
    <path fill="#360c0d" opacity=".55" d="M62.63 25.87c2.51-.74 5.3-.53 7.56.83l-1.39-.36c-2.83-.53-5.92-.71-8.18 1.42.83.28 2.5.83 3.33 1.11-.63.15-1.89.44-2.51.58-.5-.74-.94-1.52-1.33-2.32-.45.56-1.35 1.7-1.8 2.27l-.24-.57c-.03-.69-.1-2.06-.14-2.75 1.21 2.1 3.07.16 4.7-.21z"/>
    <path fill="#e72f33" d="M60.62 27.76c2.26-2.13 5.35-1.95 8.18-1.42-1.42.91-2.85 1.82-4.27 2.72l-.58-.19c-.83-.28-2.5-.83-3.33-1.11z"/>
    <path fill="#b32326" d="M68.8 26.34l1.39.36c2.3 1.29 4.32 3.01 6.33 4.7-2.22.44-4.47.78-6.73.98-.56-.18-1.68-.55-2.24-.73-1.09-.75-2.02-1.72-3.02-2.59 1.42-.9 2.85-1.81 4.27-2.72z"/>
    <path fill="#c32726" d="M57.28 27.58l.79 1.25.24.57c.45-.57 1.35-1.71 1.8-2.27.39.8.83 1.58 1.33 2.32l1.64 1.76c.01.67.03 2.01.05 2.68-.55.81-1.08 1.63-1.6 2.45l-1.87-.04c-2.16-.05-4.33.12-6.48.33-.63-.6-1.26-1.2-1.87-1.81-.49-.52-1.47-1.58-1.96-2.11 2.05-.47 4.11-.93 6.13-1.53.63-1.18 1.24-2.38 1.8-3.6m1.36 4.08c-1.34 1.06-.37 3.24 1.31 2.02 1.56-.44-.19-3.47-1.31-2.02z"/>
    <path fill="#010000" opacity=".29" d="M45.07 40.96c-.04-3.39-.02-6.8.66-10.13.19 3.19.23 6.39.33 9.59l.02.5-1.01.04z"/>
    <path fill="#791a1e" opacity=".82" d="M45.73 30.83c3.25.03 6.5.11 9.75.35-2.02.6-4.08 1.06-6.13 1.53-.56.12-1.68.37-2.23.49-.02 1.35-.04 2.7-.07 4.04 2.01-.15 4.02-.29 6.03-.42-.45-.5-1.33-1.5-1.77-2 .61.61 1.24 1.21 1.87 1.81l1.18 1.06c-1.82.27-3.62.61-5.4 1.09-.72.41-2.17 1.23-2.9 1.64-.1-3.2-.14-6.4-.33-9.59z"/>
    <path fill="#962021" opacity=".96" d="M76.52 31.4l.36-.06c.44.4 1.32 1.2 1.75 1.6-.57.5-1.71 1.49-2.28 1.99l-.45.36c-.36-.16-1.06-.5-1.41-.67l-1.34.08-.51.03c-.55.05-1.66.13-2.21.18l-.64-2.53c2.26-.2 4.51-.54 6.73-.98z"/>
    <path fill="#d12c31" d="M78.63 32.94c.75.43 1.5.85 2.27 1.26 3.04 1.22 6.34.51 9.48.18 1.4 2.47.92 6.9-2.61 6.73-1.8-.17-3.64-.37-5.44-.04l-1.06.16c-3.21-1.46-6.15-3.56-8.12-6.53l1.34-.08c.35.17 1.05.51 1.41.67 2.26 1.65 4.34 3.84 7.2 4.36 2.07.48 4.13-.25 6.14-.65-.18-.88.18-2.76-1.36-2.32-3.98.69-8.07.62-11.53-1.75.57-.5 1.71-1.49 2.28-1.99z"/>
    <path fill="#551115" opacity=".71" d="M80.9 34.2c3.16.48 6.36-.71 9.48.18-3.14.33-6.44 1.04-9.48-.18z"/>
    <path fill="#f73439" d="M53.18 36.63c2.15-.21 4.32-.38 6.48-.33 3.5 2.19 3.12 7.92.2 10.33-3.16.34-6.36.18-9.53.1-.63-.64-1.89-1.91-2.52-2.54 3.33-.17 6.66-.22 9.99-.19.31-.56.91-1.67 1.22-2.23-.26-1.02-.49-2.04-.7-3.08-1.32-.33-2.64-.66-3.96-1l-1.18-1.06z"/>
    <path fill="#2d090a" opacity=".44" d="M48.96 38.78c1.78-.48 3.58-.82 5.4-1.09 1.32.34 2.64.67 3.96 1 .21 1.04.44 2.06.7 3.08-.31.56-.91 1.67-1.22 2.23-3.33-.03-6.66.02-9.99.19l-.51.02c3.18-.95 6.52-.31 9.77-.68 1.61-.81.58-2.97.92-4.38-3.01-.15-6.02-.3-9.03-.37z"/>
    <path fill="#621417" opacity=".76" d="M82.33 41.07c1.8-.33 3.64-.13 5.44.04-.41 1.75-5.01 1.67-5.44-.04z"/>
    <path fill="#621313" d="M78.23 50.9c3.53-2.27 7.05-4.53 10.6-6.74-.14 1.1-.29 2.2-.45 3.3 3.49 2.24 7.33 3.84 11.3 5.02.58 3.43 1.81 7.35-.6 10.39-5-1.76-10.08-3.38-14.77-5.89.13-1.49.25-2.97.38-4.45-2.15-.54-4.3-1.09-6.46-1.63z"/>
    <path fill="#d62b2c" d="M60.32 64.07c2.52-6.08 8.19-9.84 13.92-12.54.11 5.2-3.33 10.22-8.47 11.39-.45.27-1.35.81-1.8 1.09l-.89.19c-.69-.04-2.07-.1-2.76-.13z"/>
    <path fill="#4d0f12" opacity=".65" d="M63.97 64.01c.45-.28 1.35-.82 1.8-1.09l-.04.91-.92.55-.84-.37z"/>
    <path fill="#230809" opacity=".42" d="M58.98 65.21l.79-.18c.67 5.09-.39 10.13-.89 15.18 1.15-1.72 1.55-4.97 4.37-4.14l-2.37.88c-.79 4.27-2.19 8.4-4.1 12.31l1.98-1-2.19 1.62c-.17-1.57-.32-3.14-.43-4.71 2.2-5.34 3.4-11.05 2.91-16.84-.02-.78-.06-2.34-.07-3.12z"/>
    <path fill="#d6292c" d="M48.22 68.62c2.12-.17 3.93-1.48 5.82-2.34 1.67.68 3.34 1.36 5.01 2.05.49 5.79-.71 11.5-2.91 16.84-.98 1.8-2.15 3.5-3.61 4.94-1.63 1.51-3.48 2.74-5.34 3.95-.57.24-1.7.73-2.27.97-4.69 1.67-9.68 2.18-14.63 2.02-.17-10.04.12-20.09-.11-30.13 3.36.02 6.72-.17 10.08.04 2.63.61 5.24 1.52 7.96 1.66M33.15 74c.32.33.96 1.01 1.28 1.34l-1.37 1.79c4.47.33 8.46 2.4 12.46 4.21.07.74.13 1.48.19 2.21.93.58 1.85 1.16 2.77 1.74 2.42-2.64 6.01-3.96 7.66-7.35-.54-.62-1.09-1.23-1.64-1.84-.31.72-.93 2.16-1.24 2.87-1.53-2.39-.26-4.76 2.32-5.62-2.34-1.37-4.65-3.19-7.48-3.24-3.7-.46-6.63 2.23-9.79 3.66-.62-1.92-1.25-3.85-1.89-5.76-1.33 1.86-2.41 3.87-3.27 5.99z"/>
    <path fill="#030101" opacity=".16" d="M29.09 68.05l.8.02c.08 9.66.03 19.32 0 28.99l.4-.01c4.95.16 9.94-.35 14.63-2.02.57-.24 1.7-.73 2.27-.97 1.86-1.21 3.71-2.44 5.34-3.95 2.26.84 4.5 1.71 6.7 2.69-2.06-.32-4.55-1.51-6.26.31-4.6 3.8-10.54 5.62-16.49 5.16-2.4-.2-4.79-.51-7.19-.71-.48-9.82-.14-19.67-.2-29.51z"/>
    <path fill="#c02426" d="M33.15 74c.86-2.12 1.94-4.13 3.27-5.99.64 1.91 1.27 3.84 1.89 5.76 3.16-1.43 6.09-4.12 9.79-3.66 2.83.05 5.14 1.87 7.48 3.24-2.58.86-3.85 3.23-2.32 5.62.31-.71.93-2.15 1.24-2.87.55.61 1.1 1.22 1.64 1.84-1.65 3.39-5.24 4.71-7.66 7.35-.92-.58-1.84-1.16-2.77-1.74-.06-.73-.12-1.47-.19-2.21-4-1.81-7.99-3.88-12.46-4.21l1.37-1.79c-.32-.33-.96-1.01-1.28-1.34z"/>
    <path fill="#89191e" d="M63.25 76.07c4.77-1.45 9.72-2.37 14.69-2.76 1.99 0 5.5-.12 5.26 2.75-2.38 5.68-7.4 9.59-11.64 13.86-1.03-.24-2.07-.48-3.11-.72.86-1.3 1.14-2.81.76-4.33-3.72.27-7.19 1.69-10.45 3.39l-1.98 1c1.91-3.91 3.31-8.04 4.1-12.31l2.37-.88z"/>
    <path fill="#911f21" d="M68.45 89.2c1.04.24 2.08.48 3.11.72-.78 1.37-1.54 2.75-2.29 4.14 1.07 1.25 2.25 2.4 3.6 3.35 2.99-2.61 5.61-6.27 9.81-6.89-1.73 1.84-3.44 3.71-4.73 5.9 1.88-.95 3.7-2.01 5.47-3.16 1.15-.84 2.45-1.42 3.92-1.38l-1.67 1.35c-2.24 1.62-4.49 3.21-6.57 5.04 2.59-.07 5.01-.96 7.15-2.37-.38 2.89-3.76 3.86-6.24 4.05-3.9-.24-8.67-.26-11.33-3.61-1.75-2.04-.96-4.87-.23-7.14z"/>
    <path fill="#090203" opacity=".27" d="M82.68 90.52c.18.69.55 2.06.74 2.74-1.77 1.15-3.59 2.21-5.47 3.16 1.29-2.19 3-4.06 4.73-5.9z"/>
    <path fill="#b82426" d="M52.97 93.11c1.71-1.82 4.2-.63 6.26-.31 3.42 1.02 7.24 2.19 9.35 5.3.86 2.59-.96 5.21-2.93 6.74-5.55 4.16-12.79 5.03-19.52 4.8l1.25-1.3c4.86-1.04 10.28-2.28 13.37-6.56-1.08-2.22-3.75-1.29-5.66-1.22-6.23.95-12.88.55-18.61-2.29 5.95.46 11.89-1.36 16.49-5.16z"/>
    <path fill="#4e0f13" opacity=".72" d="M44.92 95.03c.57-.24 1.7-.73 2.27-.97-.57.24-1.7.73-2.27.97z"/>
    <path opacity=".18" d="M79.1 98.27c2.08-1.83 4.33-3.42 6.57-5.04.15.67.43 2 .58 2.67-2.14 1.41-4.56 2.3-7.15 2.37z"/>
    <path fill="#120505" opacity=".37" d="M29.21 103.74c2.15-.6 4.42-.54 6.64-.73.13.45.39 1.33.52 1.77-.71.34-1.42.7-2.11 1.08l2.96 1.04c-3.47.12-6.94.11-10.41.1l-.12 1c3.34.01 6.68-.07 10.02.19-1.28.77-2.57 1.51-3.91 2.17-1.53-2.36-4.63-1.28-6.94-1.62.43-1.59 1.47-2.86 2.51-4.09 1.9.71 4.01.47 5.98.26-1.33-1.31-3.42-1.04-5.14-1.17z"/>
    <path fill="#d72c32" opacity=".95" d="M28.37 104.65c.21-.23.63-.68.84-.91 1.72.13 3.81-.14 5.14 1.17-1.97.21-4.08.45-5.98-.26z"/>
    <path fill="#d52c31" opacity=".98" d="M34.26 105.86c.69-.38 1.4-.74 2.11-1.08l1.62.07.01 1.13c.2.53.61 1.57.82 2.1l.68-.06c.74-.02 2.22-.05 2.96-.07l.79 1.82-4.24-.64c-1.58.84-3.2 1.65-4.91 2.19-.33-.24-.98-.72-1.3-.96 1.34-.66 2.63-1.4 3.91-2.17-3.34-.26-6.68-.18-10.02-.19l.12-1c3.47.01 6.94.02 10.41-.1l-2.96-1.04z"/>
    <path fill="#79191d" opacity=".81" d="M38 105.98c1.49-.17 2 .51 1.5 2.04l-.68.06c-.21-.53-.62-1.57-.82-2.1z"/>
    <path fill="#5c1314" opacity=".69" d="M27.82 111.93c0-2.6 3.32-2.3 4.98-1.57.32.24.97.72 1.3.96-2.03.65-4.16.75-6.28.61z"/>
</svg>
