<svg width="128pt" height="128pt" viewBox="0 0 128 128" xmlns="http://www.w3.org/2000/svg">
    <path fill="#020000" opacity=".18" d="M63.03 17.78c.46-.29 1.36-.89 1.81-1.18-.33 1.14-.22 2.23.31 3.26-1.48 1.2-2.87 2.52-4.06 4.01l-1.41-.16c.86-2.11 2.02-4.08 3.35-5.93z"/>
    <path fill="#060102" opacity=".28" d="M69.93 17.66c1.09-1.32 2.85-.39 4.28-.51-.48.32-1.44.98-1.92 1.31.25.29.74.87.99 1.17-2.63.52-5.12 1.53-7.58 2.59l.85 1.09c-.8.01-2.39.02-3.18.03 1.74-2.38 4.31-3.86 6.56-5.68z"/>
    <g fill="#c62831">
        <path d="M59.33 21.24c.97-1.41 2.34-2.45 3.7-3.46-1.33 1.85-2.49 3.82-3.35 5.93-.56 1.32-1.13 2.62-1.65 3.95-.21-2.24.18-4.46 1.3-6.42zM65.15 19.86c1.5-.92 3.14-1.59 4.78-2.2-2.25 1.82-4.82 3.3-6.56 5.68-.1.2-.29.61-.39.82l-.56.14-.03.46c.15-.15.44-.45.59-.6l.52-.34-.13-.48c.79-.01 2.38-.02 3.18-.03-.55.37-1.65 1.11-2.2 1.47.79.16 2.37.48 3.15.64-2.53.74-5.2.05-7.78.42.35-.49 1.03-1.47 1.37-1.97 1.19-1.49 2.58-2.81 4.06-4.01z"/>
        <path d="M73.28 19.63c3.07-.51 6.22-.57 9.33-.5-5.43 1-11.28 1.08-16.06 4.18l-.85-1.09c2.46-1.06 4.95-2.07 7.58-2.59zM66.12 24.42c5.23-2.39 11.11-3.45 16.79-2.26 1.93.7 5.3-.11 5.74 2.54.59-.17 1.77-.53 2.37-.71l-.61.44c-.7.5-1.4 1.01-2.08 1.54 1.93.59 3.89 1.16 5.63 2.22 1.38.8 2.41 2.06 3.33 3.34-.55-.18-1.65-.55-2.2-.74-7.06-5.92-16.78-5.64-25.4-4.66 1.62-.71 3.08-1.66 4.38-2.84-2.24.55-4.38 1.41-6.57 2.13l-1.38-1m7.51-.1c4.95-.24 10.03-.48 14.76 1.26-.15-.5-.46-1.49-.62-1.99-3.26-.14-6.51-.64-9.78-.49-1.45.25-3.57-.51-4.36 1.22zM55.25 27.25c.33-1.78.71-3.56 1.88-5.01-.34 2.04 1.57 6.7-1.72 6.63-.39.52-1.19 1.56-1.59 2.08-.15-1.43.75-2.55 1.43-3.7zM69.27 25.88c.57.54.57.54 0 0zM71.06 35.06c.78-.72 2.16-1.79 3.13-.76-.12 1.28-2.9 2.38-3.13.76zM74.74 33.12c2.39.82 4.94 1.43 6.92 3.09l.64.38c-2.48-.67-4.94-1.42-7.49-1.81l-.07-1.66zM67.2 43.31c.22-1.11 1.5-2.58 2.72-2.03.99 1.41-1.84 3.46-2.72 2.03zM40.46 42.03l.55.17c.99 1.3 2.89 1.01 4.09 1.97-1.12 1.27-6.56.54-4.64-2.14zM34.86 44.66c1.15.96 2.2 2.03 3.22 3.13.87-.09 2.61-.28 3.48-.37.33-.06 1-.17 1.34-.23l1.89-.28c3.59.16 7.34-.44 10.84.43-2.26 1.9-6.49.22-9.46 1-3.47.08-6.82.96-10.16 1.8-.68-1.75-.9-3.64-1.15-5.48zM33.86 70.34c1-1.17 2.11-2.26 3.49-2.99.67 4.26 3.54 7.88 7.39 9.76 5.07 2.66 11.57 4.27 16.88 1.39 4.44-2.14 10.05-3.21 14.23.11 2.21-.64 4.48-.31 6.72-.13.03 1.41.04 2.82.06 4.23-.95-.27-1.89-.53-2.84-.8.01-.64.02-1.91.03-2.54-1.31-.21-2.62-.27-3.94-.16l1.01 1.39c-2.38-.7-4.85-.62-7.25-.12-4.8.65-8.77 4.04-13.71 4.12-9.58.96-18.44-5.67-22.07-14.26zM60.98 99.11c2.34-.6 4.51-1.65 6.74-2.57 1.74.8 3.2 2.06 4.72 3.21-6.16 3.63-13.57 3.74-20.51 3.52.09-.68.26-2.02.34-2.7 2.57-.39 5.16-.64 7.76-.47-1.35.57-2.64 1.28-4.01 1.8 1.11-.08 2.21-.23 3.3-.46.54-.79 1.09-1.56 1.66-2.33z"/>
    </g>
    <path opacity=".1" d="M82.61 19.13l2.7-.2c-.03 1.59-1.15 2.5-2.4 3.23-5.68-1.19-11.56-.13-16.79 2.26l1.38 1c-.78-.16-2.36-.48-3.15-.64.55-.36 1.65-1.1 2.2-1.47 4.78-3.1 10.63-3.18 16.06-4.18z"/>
    <path opacity=".1" d="M57.13 22.24c-.2-1.41.53-1.74 2.2-1-1.12 1.96-1.51 4.18-1.3 6.42.52-1.33 1.09-2.63 1.65-3.95l1.41.16c-.34.5-1.02 1.48-1.37 1.97 2.58-.37 5.25.32 7.78-.42 2.19-.72 4.33-1.58 6.57-2.13-1.3 1.18-2.76 2.13-4.38 2.84 8.62-.98 18.34-1.26 25.4 4.66 1.59 2.05 3.17 4.13 5.05 5.93-.41.41-1.23 1.24-1.64 1.65-2.94-6.44-9.67-10.17-16.39-11.39-3.87-.7-7.81-.34-11.71-.19l-.11 1.48C80.17 27 91.77 29.4 97.21 38.56c-.7 2.15-2.71 1.52-3.13-.33-2.29-3.82-6.6-5.76-10.48-7.58-4.27-1.79-9.15-2.45-13.54-.72.02-.59.07-1.76.09-2.35-.53.37-1.59 1.12-2.12 1.49.03-.45.08-1.36.1-1.81-1.51-.05-3.03-.1-4.55-.16-.02.91-.07 2.73-.1 3.64h1.6c.13-.77.4-2.32.53-3.09l.16 3.71c.41-.29 1.22-.87 1.62-1.16.71 1.78 2.15 3 3.53 4.24.68-.37 2.04-1.12 2.72-1.5-.66-.9-1.29-1.82-1.91-2.74 1.7-.09 3.41-.16 5.11-.21-.92.41-2.75 1.23-3.67 1.63 3.15.88 6.33 1.66 9.42 2.73l-.93 1.86c-1.98-1.66-4.53-2.27-6.92-3.09l.07 1.66-.62-.48c-.97-1.03-2.35.04-3.13.76-.25.22-.76.66-1.02.88-1.63-3.62-5.86-6.17-9.64-3.68l1.05-1.45 1.05-.91c1.06-.77 1.15-1.79.28-3.04-.22.35-.67 1.05-.89 1.4-.52-.6-1.56-1.81-2.09-2.41.04.79.1 2.37.13 3.16-.36-.35-1.09-1.04-1.45-1.39-1.02 1.37-2.17 2.63-3.43 3.78 0 .58-.01 1.75-.01 2.33-.98-.39-1.89-.95-2.71-1.68.37-.28 1.12-.82 1.49-1.1.4-.52 1.2-1.56 1.59-2.08 3.29.07 1.38-4.59 1.72-6.63m12.14 3.64c.57.54.57.54 0 0z"/>
    <path opacity=".1" d="M73.63 24.32c.79-1.73 2.91-.97 4.36-1.22 3.27-.15 6.52.35 9.78.49.16.5.47 1.49.62 1.99-4.73-1.74-9.81-1.5-14.76-1.26zM23.48 36.71c1.11-1.03 2.49-.45 3.74-.14-1.67.38-3.74.52-4.44 2.4-.06 1.53.7 2.92 1.08 4.36-.47.65-.97 1.29-1.47 1.92l2.26.08c-.23 1.6-.54 3.18-.94 4.74-.38-1.71-.98-3.36-2.09-4.74.1-.34.29-1.01.39-1.35.12-.27.37-.82.49-1.09.02-2.01-1.38-4.97.98-6.18zM57.99 39.78l.95-.97c2.27.81 3.55 4.06.96 5.38-.38.19-1.15.58-1.54.77-1.83.56-3.4.3-4.73-.77 2.51-.41 4.34-1.76 4.36-4.41zM41.22 39.93c2.43 1.67 4.57 3.73 7.05 5.35-1.16.54-2.32 1.1-3.48 1.63l-1.89.28c-1.98-.98-4.95-2.52-3.89-5.28-.46.31-1.39.93-1.85 1.24-.03-.61-.08-1.85-.1-2.47 1.11.51 2.24.96 3.4 1.35-1.92 2.68 3.52 3.41 4.64 2.14-1.2-.96-3.1-.67-4.09-1.97.06-.57.16-1.7.21-2.27zM25.08 48.92c-.66-2.71 2.82-2.88 4.61-3.27-.01 1.69.01 3.37.01 5.06l-.3-.46c-.17-.24-.5-.74-.67-.99-.9.93-3.68 1.69-3.65-.34zM42.33 57.1c1.01.58 2.02 1.19 3.01 1.82-1.43.81-2.98 1.56-3.9 3 .66-.02 1.98-.05 2.64-.06l1.27-1.08.85 1.21c-.04.39-.11 1.18-.15 1.58-1.6.04-3.21.05-4.81.04L41 59.54c-.43.57-1.3 1.7-1.74 2.27-.21.42-.64 1.26-.85 1.68l.57.55c2.19 2.3 4.85 4.06 7.6 5.62.08-.71.24-2.15.33-2.86l.96 2.47c.01.77.03 2.3.03 3.06-.23-.79-.7-2.38-.94-3.18-.98 2.26-2.44 4.28-4.01 6.15.71.29 2.13.88 2.84 1.17 2.81-1.49 7.33-1.79 8.52-5.07 2.19-1.46 5.31-1.18 7.91-1.48-2.3.76-4.94.81-6.94 2.26-.59 1.94 1.66 3.16 2.51 4.69-1.07.88-2.22 1.65-3.39 2.4 1.85-.24 4.35.63 5.65-1.17 2.35-2.6 4.27-5.54 6.46-8.27 1.83.6 3.52 1.5 5.16 2.52-.7.82-2.1 2.48-2.79 3.31 5.13.42 10.27 1.8 15.43 1.08l.41-.04c-.03.16-.09.47-.13.63-.57 2.33-.81 4.72-.92 7.11-1.79-.36-3.57-.73-5.36-1.12.44 1.46.87 2.92 1.28 4.38.12.93.05 1.9-.24 2.8-.29.7-.85 2.11-1.13 2.82.08-1.57.01-3.14.07-4.7-.01-.38-.02-1.14-.03-1.52-.21-2.21-.58-4.41-1.37-6.5l-1.01-1.39c1.32-.11 2.63-.05 3.94.16-.01.63-.02 1.9-.03 2.54.95.27 1.89.53 2.84.8-.02-1.41-.03-2.82-.06-4.23-2.24-.18-4.51-.51-6.72.13-4.18-3.32-9.79-2.25-14.23-.11-5.31 2.88-11.81 1.27-16.88-1.39-3.85-1.88-6.72-5.5-7.39-9.76-.18-4.11 1.94-7.66 4.98-10.25m-4.32 8.99c.14 2.09.87 3.78 2.19 5.08l2-2.44c-.13.77-.38 2.32-.51 3.1.52.25 1.56.76 2.07 1.02.29-.81.86-2.42 1.14-3.23-2.28-1.2-4.49-2.54-6.89-3.53m28.93 4.65c-1.22 1.99-2.59 3.88-3.76 5.91 1.1-.18 3.28-.54 4.37-.72-.87-.98-2.06-1.87-.53-2.88.41.31 1.24.93 1.65 1.24.4-.53 1.21-1.58 1.61-2.1-1.1-.52-2.21-1-3.34-1.45m-18.77 6.97c1.25.34 3.75 1.03 5 1.38-.4-.79-1.2-2.38-1.6-3.17 1.58.55 3.15 1.53 4.91 1.1-.72-1.18-1.54-2.3-2.31-3.45-2.12 1.21-4.08 2.65-6 4.14z"/>
    <path opacity=".1" d="M19.35 64.82c.22-.09.65-.25.87-.33.26.78.78 2.32 1.04 3.1l1.74-.24c.11 3.21-.19 6.41-.15 9.62.31 3.09 1.15 6.11 1.17 9.23-.47-1.63-.84-3.28-1.12-4.95-.47.7-.94 1.4-1.41 2.11.99 5.22 3.02 10.64 7.73 13.59-1.57-.04-4.23-1.94-5.15.06 1.74 2 5.28.12 7.55 1.45 3.61 1.78 7.47 2.96 11.4 3.76-.69.02-2.09.07-2.79.09l-.28 1.95c-.68-.47-2.02-1.42-2.69-1.89-.61.6-1.22 1.2-1.83 1.82.65.49 1.94 1.48 2.59 1.98 2.1-1.02 4.19-2.06 6.22-3.22.5-.04 1.51-.11 2.02-.15 1.89.16 3.78.35 5.67.47 6.94.22 14.35.11 20.51-3.52 1.92-1.48 3.79-3.11 4.8-5.36.79-.05 2.36-.14 3.15-.19l.51.92c-.53.11-1.58.35-2.11.47.39 2.28 1.63 2.82 3.49 1.49l.3 1.65c-1.01.74-2 1.51-2.99 2.27-.64-1.47-1.31-2.93-1.97-4.39-3.84 2.52-5.12 7.11-7.23 10.95l1.4-.2c-3.08.75-5.54 3.08-8.74 3.43-2.38.41-4.82.37-7.22.22 3.91-.42 7.84-.94 11.52-2.39-1.21-.48-2.4-1-3.57-1.55.75-1.4 1.51-2.81 2.26-4.21-4.94.65-8.34 4.61-12.24 7.3-1.29-1.28-2.56-2.59-3.89-3.84.4-.3 1.18-.9 1.58-1.2.23-.25.68-.73.91-.97-1.67-.64-3.57-.64-5.24-.03-3.62 1.15-7.15 2.54-10.74 3.77-.78-1.94-1.67-3.84-2.96-5.5.66-.2 1.99-.59 2.65-.79-3.9-2.37-8.64-1.77-12.97-2.54l-.31 1.2-.21.83c.02-.28.08-.85.11-1.14.15-1.77.36-3.54.09-5.32l1.96-1.28c-2.27-1.9-4.61-3.75-7.16-5.28-.19.09-.58.26-.77.35l-.92.13c.16-.36.47-1.08.62-1.44 1.09-1.85 3.09-3.54 5.05-1.48-.4-1.25-.79-2.51-1.17-3.77.24-.21.71-.62.95-.82.29.1.87.32 1.16.43-.24-2.99-.3-6-.9-8.94-.11-.42-.32-1.26-.42-1.68 2.21 0 1.05-4-.42-1.75-.39-1.46-.96-2.86-1.45-4.28m-.34 22.7c1.22.26 1.65-.33 1.27-1.77-1.25-.29-1.68.3-1.27 1.77m2.19.4c.51.54.51.54 0 0m46.91 14.27c.51.46 1.53 1.38 2.05 1.84-.8-.12-2.4-.37-3.2-.49-.45.67-1.34 2.02-1.78 2.69 1.44.1 2.95 1.14 4.4.58.88-1.91 1.59-3.89 2.31-5.86-.95.31-2.84.93-3.78 1.24m-12.62 2.24c-.27 1.73 3.12 1.41 3.01-.1-1.03-.65-2.03-.62-3.01.1m-2.93 1.17c-.98 2.02 3.36 3.11 3.14.78-.75-.74-2.15-1.53-3.14-.78z"/>
    <path fill="#050101" opacity=".33" d="M88.33 25.97c.68-.53 1.38-1.04 2.08-1.54 1.73-.07 2.96 1.24 4.38 1.98-.21.45-.62 1.34-.83 1.78-1.74-1.06-3.7-1.63-5.63-2.22z"/>
    <path fill="#581110" d="M59.8 25.85c.53.6 1.57 1.81 2.09 2.41.15.41.46 1.23.61 1.64l-1.05.91-1.05 1.45c3.78-2.49 8.01.06 9.64 3.68-4.02 2.71-7.28-2.3-11.34-2.17l1.79-.63c-.53-.54-1.05-1.08-1.57-1.62-.57 1.25-2.34 3.87-3.88 2.21 0-.58.01-1.75.01-2.33 1.26-1.15 2.41-2.41 3.43-3.78.36.35 1.09 1.04 1.45 1.39-.03-.79-.09-2.37-.13-3.16z"/>
    <path fill="#831e25" opacity=".96" d="M61.89 28.26c.22-.35.67-1.05.89-1.4.87 1.25.78 2.27-.28 3.04-.15-.41-.46-1.23-.61-1.64z"/>
    <g fill="#7e1d21">
        <path d="M63.58 27.1c1.52.06 3.04.11 4.55.16-.02.45-.07 1.36-.1 1.81.53-.37 1.59-1.12 2.12-1.49-.02.59-.07 1.76-.09 2.35 4.39-1.73 9.27-1.07 13.54.72 3.88 1.82 8.19 3.76 10.48 7.58-4.98-3.59-10.89-7.4-17.26-6.85 4.86.87 9.18 3.42 12.98 6.46-2.4-1.17-4.74-2.47-7.21-3.49-3.09-1.07-6.27-1.85-9.42-2.73.92-.4 2.75-1.22 3.67-1.63-1.7.05-3.41.12-5.11.21.62.92 1.25 1.84 1.91 2.74-.68.38-2.04 1.13-2.72 1.5-1.38-1.24-2.82-2.46-3.53-4.24-.4.29-1.21.87-1.62 1.16l-.16-3.71c-.13.77-.4 2.32-.53 3.09h-1.6c.03-.91.08-2.73.1-3.64z"/>
        <path d="M70.4 26.79c3.9-.15 7.84-.51 11.71.19 6.72 1.22 13.45 4.95 16.39 11.39.68 1.22 1.39 2.43 2.01 3.68-1.64-.55-2.36-2.18-3.3-3.49C91.77 29.4 80.17 27 70.29 28.27l.11-1.48zM36.01 50.14c3.34-.84 6.69-1.72 10.16-1.8 2.63 1.56 7.3-1.15 8.74 2l-5.62-.04.22 1.24 1.76-.26c-3.26.63-6.44 1.6-9.64 2.44l.94-1.67-4.31.76c-1.17-.43-1.5-1.79-2.25-2.67zM43.02 102.22c1.08.21 2.16.42 3.24.58-.51.04-1.52.11-2.02.15-2.03 1.16-4.12 2.2-6.22 3.22-.65-.5-1.94-1.49-2.59-1.98.61-.62 1.22-1.22 1.83-1.82.67.47 2.01 1.42 2.69 1.89l.28-1.95c.7-.02 2.1-.07 2.79-.09zM68.11 102.19c.94-.31 2.83-.93 3.78-1.24-.72 1.97-1.43 3.95-2.31 5.86-1.45.56-2.96-.48-4.4-.58.44-.67 1.33-2.02 1.78-2.69.8.12 2.4.37 3.2.49-.52-.46-1.54-1.38-2.05-1.84zM55.49 104.43c.98-.72 1.98-.75 3.01-.1.11 1.51-3.28 1.83-3.01.1z"/>
    </g>
    <g fill="#5d1418">
        <path d="M95.09 30.79c.55.19 1.65.56 2.2.74 3.3 5.63 8.94 9.37 14.67 12.26-4.67-.8-8.32-4.14-11.82-7.07-1.88-1.8-3.46-3.88-5.05-5.93zM23.14 99.06c4.33.77 9.07.17 12.97 2.54-.66.2-1.99.59-2.65.79 1.29 1.66 2.18 3.56 2.96 5.5 3.59-1.23 7.12-2.62 10.74-3.77 1.37.58 2.8 1.14 4.33 1-.4.3-1.18.9-1.58 1.2 1.33 1.25 2.6 2.56 3.89 3.84 3.9-2.69 7.3-6.65 12.24-7.3-.75 1.4-1.51 2.81-2.26 4.21 1.17.55 2.36 1.07 3.57 1.55-3.68 1.45-7.61 1.97-11.52 2.39-7.92.37-16.3.23-23.6-3.21-3.62-1.82-6.81-4.43-9.4-7.54l.31-1.2z"/>
    </g>
    <g fill="#d92b31">
        <path d="M21.91 34.99c3.68-2.66 10.13 1.58 7.05 5.87.03-1.67-.11-3.37-1.74-4.29-1.25-.31-2.63-.89-3.74.14-2.36 1.21-.96 4.17-.98 6.18-.12.27-.37.82-.49 1.09-.28-.14-.84-.43-1.12-.58-1.88-2.71-.7-5.99 1.02-8.41zM34.86 42.15l.85-.22c.36.31 1.09.92 1.45 1.22.46-.31 1.39-.93 1.85-1.24-1.06 2.76 1.91 4.3 3.89 5.28-.34.06-1.01.17-1.34.23-2.19-1.08-4.27-2.41-6.29-3.78-.1-.37-.31-1.11-.41-1.49zM69.64 80.48c2.4-.5 4.87-.58 7.25.12.79 2.09 1.16 4.29 1.37 6.5-2.01-.36-3.13 1.82-2.34 3.49.95-.47 1.74-1.13 2.37-1.97-.06 1.56.01 3.13-.07 4.7.28-.71.84-2.12 1.13-2.82 1.12 1.74 2.44 3.34 3.69 5-.19.39-.57 1.18-.76 1.58-1.86 1.33-3.1.79-3.49-1.49.53-.12 1.58-.36 2.11-.47l-.51-.92c-.75-1.07-1.73-1.23-2.94-.49l-.21.68c-1.01 2.25-2.88 3.88-4.8 5.36-1.52-1.15-2.98-2.41-4.72-3.21 2.13-1.38 4.29-2.92 5.55-5.2 2.32-3.72.82-9.56-3.63-10.86z"/>
    </g>
    <path fill="#3f0e0f" d="M31.76 33.83c5.44-.59 10.73.96 16.07 1.68 2.04.59 4.87-.21 6.08 2.05-2.48.4-6.98-1.56-7.59 2.22-3.86-2.57-8.68-2.51-12.69-4.7.05.37.16 1.11.21 1.48l-.96.74c-1.07-.71-1.44-1.87-1.12-3.47z"/>
    <g fill="#47100b">
        <path d="M21.17 44.02c-2.62-2.46-1.84-6.89.74-9.03-1.72 2.42-2.9 5.7-1.02 8.41l.28.62zM19.35 64.82c.49 1.42 1.06 2.82 1.45 4.28.1.44.31 1.31.42 1.75.1.42.31 1.26.42 1.68l-1.1.75c-1.22 1.07-2.96 1.12-4.33 1.9.71-3.55 1.65-7.06 3.14-10.36zM46.65 100.25c4.8-.02 9.6-.25 14.33-1.14-.57.77-1.12 1.54-1.66 2.33-1.09.23-2.19.38-3.3.46 1.37-.52 2.66-1.23 4.01-1.8-2.6-.17-5.19.08-7.76.47-1.88.02-3.75-.18-5.62-.32z"/>
    </g>
    <g fill="#521018">
        <path d="M52.68 36.2c4.59-1.06 9.29-.71 13.28 1.89 1.38.35 2.77.69 4.16 1.03-2.8 2.15-6.46 4.22-6.45 8.26-2.44 1.26-5.18 2.23-7.84.96 1.62-1.09 3.07-2.48 4.07-4.15 2.59-1.32 1.31-4.57-.96-5.38-.71-.47-1.44-.89-2.19-1.28-1.48-.09-2.84-.54-4.07-1.33zM71.36 38.1l2.83-.36c2.99 1.12 6.69 3.93 6.74 7.08-.31.32-.94.96-1.25 1.28-.3.29-.91.87-1.22 1.17l-.48-1.09-.05-.45-.07-.83-.82-.27c-1.75-.5-3.57-.7-5.38-.79.82-.68 1.63-1.37 2.43-2.08-.79-1.31-1.79-2.46-2.73-3.66zM99.86 41.76c3.79 3.12 7.82 5.91 12.18 8.17-4.79-1.13-9.55-3.95-12.18-8.17zM81.23 46.06c2.04.14.65 2.77.83 4.07-.58 3.25-2.65 6.14-5.63 7.6-.18-3.12-.11-6.24.17-9.35 1.29.19 2.57.37 3.86.54.19-.72.57-2.14.77-2.86z"/>
    </g>
    <path fill="#581315" opacity=".86" d="M32.88 37.3l.96-.74c1.3.06 2.61.18 3.9.35l-.11.41-.48 1.79c-.6 1.61 2.5 1.34 2.78.11.32.18.97.53 1.29.71-.05.57-.15 1.7-.21 2.27l-.55-.17c-1.16-.39-2.29-.84-3.4-1.35.02.62.07 1.86.1 2.47-.36-.3-1.09-.91-1.45-1.22l-.37-.28c-.28-.09-.84-.29-1.12-.38l-1.34-.44c.12-.52.37-1.54.49-2.06l-.04-.21c-.06-.01-.17-.03-.22-.05l-.23-1.21z"/>
    <path fill="#2e0a0c" opacity=".55" d="M65.96 38.09c2.78.23 5.54-1.46 8.23-.35l-2.83.36c.94 1.2 1.94 2.35 2.73 3.66-.8.71-1.61 1.4-2.43 2.08 1.81.09 3.63.29 5.38.79-.21.32-.63.94-.84 1.26l1.73-.16.05.45c-.54.48-1.61 1.45-2.15 1.93-.37-.96-.75-1.93-1.14-2.89-3.2-.27-8.65-1.88-10.03 2 3.01-.27 6.28-1.23 8.93.76-.35.23-1.04.67-1.39.89-2.68-1.26-5.72-.78-8.53-1.49-.01-4.04 3.65-6.11 6.45-8.26-1.39-.34-2.78-.68-4.16-1.03m4.81 1.94c-1.1 2.93 3.49-.15 0 0m-3.57 3.28c.88 1.43 3.71-.62 2.72-2.03-1.22-.55-2.5.92-2.72 2.03z"/>
    <path fill="#bd2c31" d="M33.11 38.51c.05.02.16.04.22.05l.04.21-.26-.26z"/>
    <path fill="#ae262a" d="M37.15 39.11l.48-1.79c3.52.28 6.94 1.78 9.73 3.91.78.73 1.71 1.19 2.76 1.38.43.3 1.27.91 1.69 1.21-.72.41-2.17 1.23-2.89 1.64l-.65-.18c-2.48-1.62-4.62-3.68-7.05-5.35-.32-.18-.97-.53-1.29-.71-.7-.03-2.09-.08-2.78-.11z"/>
    <path fill="#cc3236" opacity=".96" d="M54.38 39.2c.04-1.57.56-1.72 1.53-.45-.38.12-1.15.34-1.53.45z"/>
    <path fill="#190707" opacity=".63" d="M37.15 39.11c.69.03 2.08.08 2.78.11-.28 1.23-3.38 1.5-2.78-.11z"/>
    <path fill="#200809" opacity=".42" d="M47.36 41.23c-.16-1.51 2.08-2.98 3.28-1.96-.44.41-.88.84-1.3 1.28.24.32.74.96.98 1.27l-.2.79c-1.05-.19-1.98-.65-2.76-1.38z"/>
    <path fill="#e53436" opacity=".96" d="M50.64 39.27l2.92-1.23c-.36 1.65-.59 3.36-1.32 4.91l-1.92-1.13c-.24-.31-.74-.95-.98-1.27.42-.44.86-.87 1.3-1.28z"/>
    <path fill="#0e0304" opacity=".42" d="M54.38 39.2c.38-.11 1.15-.33 1.53-.45.88.98 1.58 3.18-.26 3.56-.54-.8-1.03-1.62-1.48-2.47l.21-.64z"/>
    <g fill="#ef3039">
        <path d="M55.91 38.75l1.09-.03.99 1.06c-.02 2.65-1.85 4-4.36 4.41 1.33 1.07 2.9 1.33 4.73.77l-.47 1.57c-2.95-.63-5.97-.83-8.97-1.07.72-.41 2.17-1.23 2.89-1.64.43.21 1.29.64 1.71.86.15-1.62.4-3.23.65-4.84.45.85.94 1.67 1.48 2.47 1.84-.38 1.14-2.58.26-3.56zM70.77 40.03c3.49-.15-1.1 2.93 0 0zM23.86 43.33c1.83.84 3.8 1.34 5.82.96.91-.09 2.72-.28 3.63-.37-1.07.84-2.22 1.63-3.62 1.73-1.79.39-5.27.56-4.61 3.27-.03 2.03 2.75 1.27 3.65.34.17.25.5.75.67.99-1.86 1.45-3.95 1.3-5.69-.18.4-1.56.71-3.14.94-4.74l-2.26-.08c.5-.63 1-1.27 1.47-1.92zM64.66 47.22c1.38-3.88 6.83-2.27 10.03-2 .39.96.77 1.93 1.14 2.89.42 2.23-.99 4.55-.05 6.81-.25.56-.75 1.69-1 2.26-.08-.37-.22-1.11-.3-1.48.26-.6.77-1.8 1.03-2.4-3.84.47-7.73 1.41-11.59.64-3.23-.25-7.73-1.88-9.5 1.96-.23-.66-.71-1.98-.94-2.63-2.76.55-5.49 1.24-8.23 1.9.1 1.74.58 3.49 1.4 5.02-.11.45-.34 1.35-.45 1.8l-.85-1.21-1.27 1.08c-.66.01-1.98.04-2.64.06.92-1.44 2.47-2.19 3.9-3-.99-.63-2-1.24-3.01-1.82-3.04 2.59-5.16 6.14-4.98 10.25-1.38.73-2.49 1.82-3.49 2.99-1.46-5.32-.62-11.87 4.51-14.94.04-.03.13-.09.17-.12l1.86-1.19 1.23-.37c3.2-.84 6.38-1.81 9.64-2.44 2.08-.29 4.18-.36 6.28-.29 4.11.95 8.51 1.6 12.61.23.77-.7 1.45-1.49 2.04-2.35.35-.22 1.04-.66 1.39-.89-2.65-1.99-5.92-1.03-8.93-.76z"/>
    </g>
    <path fill="#060101" opacity=".29" d="M34.22 41.27c.28.09.84.29 1.12.38l.37.28-.85.22c.1.38.31 1.12.41 1.49l-1.96.28c-.91.09-2.72.28-3.63.37 1.5-1.26 4.57-.42 4.54-3.02z"/>
    <path fill="#9a252e" opacity=".93" d="M76.2 45.89c.21-.32.63-.94.84-1.26l.82.27.07.83-1.73.16z"/>
    <path fill="#a52831" d="M78.46 47.27c.31-.3.92-.88 1.22-1.17.47 1.7.07 2.09-1.22 1.17z"/>
    <path fill="#721b1d" opacity=".74" d="M57.55 50.99c4.2.09 8.4.34 12.61.23-4.1 1.37-8.5.72-12.61-.23z"/>
    <path fill="#150505" opacity=".43" d="M45.25 55.17c2.74-.66 5.47-1.35 8.23-1.9.23.65.71 1.97.94 2.63 1.77-3.84 6.27-2.21 9.5-1.96 3.86.77 7.75-.17 11.59-.64-.26.6-.77 1.8-1.03 2.4-.57-.1-1.7-.3-2.27-.41-2.25-.42-4.19.89-6.02 1.99-.34-1.13-1.45-2.99-2.86-2.18-.46 1.54 1.71 2.13 2.86 2.18-.23.22-.68.65-.91.86-.48.17-1.42.49-1.9.66-1.28-1.74-1.43-5.67-4.43-4.34-2.37 1.37-4.22 3.54-6.51 5.07-.93-1.5-1.75-3.07-2.82-4.49-2.45-.07-2.01 3.55-2.97 5.15-.82-1.53-1.3-3.28-1.4-5.02m6.93.85c.32 3.19 3.03-1.48 0 0z"/>
    <path fill="#841f20" opacity=".86" d="M38.37 55.4c.04-.03.13-.09.17-.12-.04.03-.13.09-.17.12z"/>
    <path fill="#631418" d="M46.65 60.19c.96-1.6.52-5.22 2.97-5.15 1.07 1.42 1.89 2.99 2.82 4.49 2.29-1.53 4.14-3.7 6.51-5.07 3-1.33 3.15 2.6 4.43 4.34-6.2-.91-15.12.72-16.47 8-.09.71-.25 2.15-.33 2.86-2.75-1.56-5.41-3.32-7.6-5.62l.28-2.23c.44-.57 1.31-1.7 1.74-2.27l.24 4.07c1.6.01 3.21 0 4.81-.04.04-.4.11-1.19.15-1.58.11-.45.34-1.35.45-1.8z"/>
    <path fill="#b8282b" opacity=".96" d="M63.33 55.1c1.41-.81 2.52 1.05 2.86 2.18-1.15-.05-3.32-.64-2.86-2.18z"/>
    <path fill="#5a1018" d="M66.19 57.28c1.83-1.1 3.77-2.41 6.02-1.99l.12 1.04.07.44c.09.48.28 1.45.38 1.94-2.7 0-5.39.02-8.08-.06l.58-.51c.23-.21.68-.64.91-.86z"/>
    <path fill="#aa1f21" d="M52.18 56.02c3.03-1.48.32 3.19 0 0z"/>
    <path opacity=".32" d="M72.33 56.33c.02.11.05.33.07.44l-.07-.44z"/>
    <g fill="#47100d">
        <path d="M23.88 58.96c.7-1.28 1.73-1.92 3.08-1.94.35 1.44-1.92 2.84-3.08 1.94zM16.17 75.16c2.05 1.73 2.81 4.5 4.26 6.7.38 1.26.77 2.52 1.17 3.77-1.96-2.06-3.96-.37-5.05 1.48-.49-3.97-.5-7.97-.38-11.95z"/>
    </g>
    <g fill="#6b1c21">
        <path d="M22.98 59.45c.47.58.94 1.17 1.42 1.75.54-.42 1.62-1.27 2.16-1.7-1.15 2.05-2.27 4.28-4.28 5.63.18.55.54 1.66.72 2.22l-1.74.24c-.26-.78-.78-2.32-1.04-3.1.96-1.66 1.54-3.53 2.76-5.04zM16.85 88.42c.19-.09.58-.26.77-.35 2.55 1.53 4.89 3.38 7.16 5.28l-1.96 1.28c.27 1.78.06 3.55-.09 5.32-2.66-3.44-4.39-7.47-5.88-11.53z"/>
    </g>
    <path fill="#a52026" d="M38.41 63.49c.21-.42.64-1.26.85-1.68l-.28 2.23-.57-.55z"/>
    <path fill="#aa2329" opacity=".95" d="M38.01 66.09c2.4.99 4.61 2.33 6.89 3.53-.28.81-.85 2.42-1.14 3.23-.51-.26-1.55-.77-2.07-1.02.13-.78.38-2.33.51-3.1l-2 2.44c-1.32-1.3-2.05-2.99-2.19-5.08z"/>
    <path fill="#581010" d="M48.07 66.88c1.98 1.65 3.85 3.45 6.24 4.52-1.19 3.28-5.71 3.58-8.52 5.07-.71-.29-2.13-.88-2.84-1.17 1.57-1.87 3.03-3.89 4.01-6.15.24.8.71 2.39.94 3.18 0-.76-.02-2.29-.03-3.06l.2-2.39z"/>
    <path opacity=".19" d="M20.8 69.1c1.47-2.25 2.63 1.75.42 1.75-.11-.44-.32-1.31-.42-1.75z"/>
    <path fill="#581113" d="M62.22 69.92c4.29-1.56 9.17-2.48 13.5-.56 3.61 1.45 6.11 4.53 8.59 7.38-5.16.72-10.3-.66-15.43-1.08.69-.83 2.09-2.49 2.79-3.31-1.64-1.02-3.33-1.92-5.16-2.52-2.19 2.73-4.11 5.67-6.46 8.27-1.3 1.8-3.8.93-5.65 1.17 1.17-.75 2.32-1.52 3.39-2.4-.85-1.53-3.1-2.75-2.51-4.69 2-1.45 4.64-1.5 6.94-2.26z"/>
    <path fill="#a4252a" opacity=".96" d="M66.94 70.74c1.13.45 2.24.93 3.34 1.45-.4.52-1.21 1.57-1.61 2.1-.41-.31-1.24-.93-1.65-1.24-1.53 1.01-.34 1.9.53 2.88-1.09.18-3.27.54-4.37.72 1.17-2.03 2.54-3.92 3.76-5.91z"/>
    <path fill="#891f25" opacity=".89" d="M21.64 72.53c.6 2.94.66 5.95.9 8.94-.29-.11-.87-.33-1.16-.43-.24-.61-.73-1.81-.97-2.42-.51-.41-1.54-1.23-2.05-1.64 2.97.7 2.13-1.92 2.18-3.7l1.1-.75z"/>
    <path fill="#9b2327" opacity=".94" d="M48.17 77.71c1.92-1.49 3.88-2.93 6-4.14.77 1.15 1.59 2.27 2.31 3.45-1.76.43-3.33-.55-4.91-1.1.4.79 1.2 2.38 1.6 3.17-1.25-.35-3.75-1.04-5-1.38z"/>
    <path fill="#c62c31" d="M18.28 75.29c1.78-1.97 1.78 2.28-.06.82l.06-.82z"/>
    <path fill="#4d1010" d="M83.67 84.44c.11-2.39.35-4.78.92-7.11 3.23 6 3.85 13.56.43 19.62-2.45-2.62-3.37-6.31-5.43-9.25-.41-1.46-.84-2.92-1.28-4.38 1.79.39 3.57.76 5.36 1.12z"/>
    <path fill="#da2e36" d="M21.49 83.36c.47-.71.94-1.41 1.41-2.11.28 1.67.65 3.32 1.12 4.95.33.91.7 1.81 1.09 2.71.24.51.73 1.54.97 2.06l.65.19c1.56 1.41 2.93 3.03 4.7 4.2.05.03.16.09.21.12 1.74.94 3.6 1.66 5.3 2.67l1.93.8 2.28.32c1.42.62 2.94.91 4.49.89l1.01.09c1.87.14 3.74.34 5.62.32-.08.68-.25 2.02-.34 2.7-1.89-.12-3.78-.31-5.67-.47-1.08-.16-2.16-.37-3.24-.58-3.93-.8-7.79-1.98-11.4-3.76-2.27-1.33-5.81.55-7.55-1.45.92-2 3.58-.1 5.15-.06-4.71-2.95-6.74-8.37-7.73-13.59z"/>
    <path fill="#bb292c" opacity=".97" d="M19.01 87.52c-.41-1.47.02-2.06 1.27-1.77.38 1.44-.05 2.03-1.27 1.77z"/>
    <path fill="#a42226" d="M75.92 90.59c-.79-1.67.33-3.85 2.34-3.49.01.38.02 1.14.03 1.52-.63.84-1.42 1.5-2.37 1.97z"/>
    <g>
        <path fill="#f73439" d="M21.2 87.92c.51.54.51.54 0 0z"/>
    </g>
    <g>
        <path fill="#230709" opacity=".43" d="M25.11 88.91c1.75-.16 2.29.59 1.62 2.25l-.65-.19c-.24-.52-.73-1.55-.97-2.06z"/>
    </g>
    <g>
        <path fill="#6d161b" opacity=".71" d="M31.43 95.36c.05.03.16.09.21.12-.05-.03-.16-.09-.21-.12z"/>
    </g>
    <g>
        <path fill="#521010" d="M70.39 107.56c2.11-3.84 3.39-8.43 7.23-10.95.66 1.46 1.33 2.92 1.97 4.39.99-.76 1.98-1.53 2.99-2.27.39-.24 1.16-.71 1.55-.94-2.9 4.39-7.64 7.38-12.34 9.57l-1.4.2z"/>
    </g>
    <g>
        <path fill="#72171b" opacity=".72" d="M36.94 98.15l.79-.5.99.42.15.88-1.93-.8z"/>
    </g>
    <g>
        <path fill="#2c0a0c" opacity=".48" d="M41.15 99.27c1.09-1.21 4.66-1.15 4.49.89-1.55.02-3.07-.27-4.49-.89z"/>
    </g>
    <g>
        <path fill="#861d21" d="M47.16 104.12c1.67-.61 3.57-.61 5.24.03-.23.24-.68.72-.91.97-1.53.14-2.96-.42-4.33-1z"/>
    </g>
    <g>
        <path fill="#912226" opacity=".98" d="M52.56 105.6c.99-.75 2.39.04 3.14.78.22 2.33-4.12 1.24-3.14-.78z"/>
    </g>
</svg>
