<svg width="128pt" height="128pt" viewBox="0 0 128 128" xmlns="http://www.w3.org/2000/svg">
    <g fill="#fff">
        <path d="M66.27 19.16c1.86-.55 3.68-2.11 5.7-1.35-2.52.9-5.02 1.89-7.16 3.52l-.43 1.8-.37-.3-.37.31c-.16.22-.47.64-.62.85l-.53.17.04.42c.12-.15.36-.44.49-.59l.62-.25v-.6l.37.2.37-.21c2.72-1.14 5.42-3.72 8.55-2.94-1.76 1.78-5.25 1.65-7.18 3.69-1.54 1.85-3.86 2-6.09 2.23 1.63-2.82 3.81-5.26 6.61-6.95z"/>
        <path d="M58.97 23.19c.1-2.74 2.58-4.39 4.83-5.39-3.26 2.9-6.45 7.94-4.21 12.3.15-.99.44-2.97.59-3.96l1.36 2.88c.38-.79 1.13-2.36 1.51-3.15.14 1.08.43 3.24.57 4.32-3.27-.38-5.41 2.03-6.88 4.61-1.57-.95-3.57-1.73-3.82-3.82.55.64 1.65 1.92 2.21 2.56.78-1.19 1.35-2.49 2.05-3.73 1.72-2.06 1.17-5-.19-7.08.04 2.07.04 4.15-.01 6.23l-1.69.32-.59.55-.71.58c.23-.66.7-1.98.94-2.65.81-1.33.89-2.93 1.07-4.43.85-1.04 2.05-1.19 2.97-.14m-.77 7.02c.66.56.66.56 0 0zM74.31 19.32c3.26-.35 6.54-.06 9.8.18-3.11.27-6.23.36-9.34.52 2.64 2.65 6.62 1.61 9.97 2.13l-.42.71c2.88.4 5.75 1.12 8.31 2.55l-.75-.16c-.41.56-.84 1.13-1.26 1.69 2.38.18 4.41 1.85 5.92 3.59 3.63 5.58 8.7 10.4 14.93 12.94-.55-.05-1.66-.17-2.22-.22-4.94-3.12-9.86-6.49-13.25-11.35-6.91-7.43-17.98-6.63-27.17-5.6 3.26-2.04 7.4-2.27 11.17-2.25 1.27-.07 3.55 1.03 3.87-.85-3.61-.51-7.33-.22-10.93.25.83-1.44 2.46-2.16 1.37-4.13m10.81 5.54c1.65.24 3.26.62 4.84 1.14l.04-1.25c-1.2-.56-4.61-1.6-4.88.11z"/>
        <path d="M72.16 22.13c.41.75.23 1.36-.52 1.84-1.31 0-4.15 2.09-4.62.16 1.72-.66 3.44-1.3 5.14-2zM66.29 27.54c.44-.14 1.33-.42 1.77-.57l.12 1.75 1.45-.28c.36.69.72 1.38 1.1 2.05 1.63-2.75 5.4-1.22 7.96-1.11.9-.43 1.78-.89 2.65-1.38-3.68 0-7.36-.08-11.04.12l.12-1.02c8.25-1.08 17.42-.21 23.83 5.62 2.74 2.16 3.85 5.54 5.6 8.42 2.83 4.02 7.47 6.03 11.4 8.75-4.22-1.57-7.95-4.18-11.18-7.27l-.59.9c-.03-.56-.1-1.69-.13-2.26-3.7-6.37-9.71-11.25-16.98-12.86-.87.48-1.72.97-2.57 1.47 5.97.8 11.33 4.5 15.23 8.97-4.85-3.81-10.65-7.45-16.89-7.71-.08 1.77 3 1.04 4.06 1.92 2.09 1.21 4.25 2.32 6.35 3.54-3.23-.1-5.78-2.3-8.71-3.35-2.06-.55-4.16-.97-6.23-1.47l1.8-.76.38-.26c.04-.18.12-.55.15-.73-1.05-.06-3.16-.16-4.21-.22.93 1.71 1.73 3.48 2.5 5.27-1.19.41-2.38.82-3.57 1.22l1.09-1.63c-1.67-1.06-3.38-2.34-4.11-4.26-.13-.09-.37-.29-.5-.38l-1.26 1.4-.32-2.94.98.11c-.06-.27-.19-.79-.25-1.05m5.93 5.63v.67l.67-.01-.01-.66h-.66z"/>
        <path d="M58.65 33.43c2.46-1.67 5.25-2.42 8.15-1.47 1.18 1.34 2.28 2.77 3.13 4.36-4.24 1.39-7.23-2.62-11.28-2.89zM75.01 33.4c1.83.52 3.63 1.12 5.46 1.61.55.63 1.08 1.27 1.59 1.93-2.32-.83-4.54-2.04-7.07-2.14.01-.35.02-1.05.02-1.4zM20 37.28c1.58-1.54 3.46-3.81 5.96-2.84 2.84.42 3.92 3.4 4.28 5.88-1.35-1.86-2.72-4.08-5.21-4.44-1.13.57-2.14 1.34-3.18 2.05.22 1.65-.07 3.63 1.36 4.83 2.73 2.73 6.88 1.1 10.26 1.5-2.06 1.04-4.3 1.66-6.59 1.92-2.27.18-2.85 4.3-.15 4.2.54-.51 1.62-1.54 2.16-2.05-.09.85-.17 1.69-.25 2.54-2.09.94-5.65-.12-4.61-3.01.17-.54.52-1.61.69-2.15-3.96-.77-5.76-4.73-4.72-8.43zM65.69 43.9c2.07-1.65 4.11-3.33 6.28-4.86.34.87.64 1.76.9 2.65-.77-.12-2.32-.38-3.09-.51l.72 2.09c-1.61.17-3.21.41-4.81.63zM76 44.98c1.31.08 2.61.17 3.92.25.02.84.07 2.51.1 3.34-.91-.77-1.63-1.7-2.14-2.78-.47.22-1.42.65-1.89.87 0-.42.01-1.26.01-1.68zM74.23 52.49c1.63.57 1.62 2.24 1.89 3.68-.52 0-1.57 0-2.09.01l.55 1.66c-.53-.79-1.06-1.58-1.58-2.36.58-.01 1.75-.02 2.34-.02-.28-.74-.83-2.23-1.11-2.97zM50.77 55.76c1.86-.88 3.7-1.85 5.79-2.06-1.01 1.21-2.04 2.4-3.18 3.49-.65-.36-1.96-1.07-2.61-1.43zM66.03 55.74c-.34-1.41.17-1.97 1.52-1.7.31 1.4-.2 1.97-1.52 1.7zM63.6 55.11c1.41-.15 2.02.46 1.81 1.82-1.44.15-2.04-.45-1.81-1.82zM41.89 58.19c1.39-.93 2.83-1.79 4.29-2.61-.26 2.18-.63 4.34-1.05 6.48-.92-.05-2.74-.17-3.65-.23.74-1.67 2.78-1.93 3.73-3.38-.83-.07-2.49-.2-3.32-.26zM19.93 64.39c.99-.5 1.99-.98 3-1.45-.2.63-.59 1.91-.79 2.55.1.33.31 1 .41 1.34-.41.25-1.22.76-1.63 1.01.2-.62.6-1.88.8-2.5-.45-.24-1.35-.72-1.79-.95zM37.95 66.2c2.27 1.04 4.53 2.12 6.77 3.25-.35 1.17-.68 2.35-.99 3.54-.47-.35-1.4-1.05-1.87-1.4l.36-3.17c-.9.95-1.77 1.92-2.62 2.91-.55-1.71-1.09-3.43-1.65-5.13zM63.29 76.53c1.27-1.87 2.46-3.8 3.67-5.72 1.08.48 2.15.96 3.23 1.43-.41.49-1.24 1.47-1.66 1.96-.39-.34-1.17-1.02-1.56-1.35-1.92 1.72-.44 2.34 1.13 2.86-1.61.22-3.22.48-4.81.82zM19.41 73.74c.8 1.76 1.3 3.62 1.5 5.56-1.08-.99-2.18-1.99-3.15-3.09.41-.62 1.24-1.85 1.65-2.47zM48.19 77.6c1.94-1.31 3.84-2.69 5.92-3.8.98 1.02 1.75 2.22 2.5 3.42-1.84-.23-3.59-.85-5.34-1.41.46.8 1.4 2.39 1.86 3.19-1.64-.51-3.29-.98-4.94-1.4zM76.82 77.86c1.93.22 3.86.5 5.79.78-.01 1.4 0 2.8.01 4.2-1.02-.39-2.04-.78-3.06-1.16.19-.63.59-1.88.78-2.51-1.13.07-2.26.17-3.38.32-.04-.41-.11-1.22-.14-1.63zM19.2 84.6c1.39 1.45 2.97 2.84 3.45 4.9-1.42-.57-2.79-1.22-4.16-1.87.23-1.01.47-2.03.71-3.03zM79.36 90.31c1.21 1.92 2.46 3.81 3.84 5.61-1.06.96-2.13 1.9-3.18 2.85-.88-1.76-1.61-3.61 1.03-4.15-.31-.39-.92-1.17-1.23-1.56-.56.43-1.69 1.3-2.25 1.74.59-1.5 1.21-2.98 1.79-4.49zM24.31 94.55c.8.93 1.56 1.9 2.29 2.89l.96-1.28c.5.44 1.5 1.31 2 1.75-1.8-.1-3.6.06-5.41.12l.16-3.48zM68.03 102.5c1.26-.53 2.52-1.07 3.77-1.61-.82 2.07-1.59 4.17-2.35 6.27-1.35-.33-2.69-.67-4.04-1.02.47-.72 1.4-2.18 1.87-2.91.26.4.79 1.19 1.05 1.58.49-.37 1.45-1.11 1.93-1.48-.55-.2-1.67-.62-2.23-.83zM35.75 103.16c2.73-.45 5.51-.97 8.16.17-2.11.86-4.13 1.92-6.2 2.89-.69-.99-1.31-2.04-1.96-3.06zM51.5 106.14c2.52-1.23 5.13-2.5 7.98-2.63-1.63 1.69-3.18 3.6-5.39 4.56-.64-.48-1.94-1.44-2.59-1.93z"/>
    </g>
    <path fill="#dbdbdb" opacity=".86" d="M68.19 26.27l.66.05-.09.66-.7-.01.13-.7z"/>
    <path fill="#f3f3f3" opacity=".95" d="M64.5 27.25c1.67-.54 1.05 2.91-.29 2.5.08-.62.22-1.87.29-2.5z"/>
</svg>
