<svg width="128pt" height="128pt" viewBox="0 0 128 128" xmlns="http://www.w3.org/2000/svg">
    <g fill="#fff">
        <path d="M31.83 34.02c5.78-.39 11.4.97 17.06 1.89 4.08.69 8.18-.27 12.27.06 2.76 1.2 5.57 3.28 8.73 2.11 5.33-1.79 9.76 2.93 11.87 7.27-3.53-.34-6.96-1.25-10.49-1.57.98-.76 1.97-1.51 2.95-2.27-.97-.94-1.89-1.95-2.97-2.77-2.59 1.93-5.89 3.34-7.09 6.58-1.1 2.81-4.31 3.64-6.88 4.45.05-2.4 2.08-4.33 3.47-6.17.29-.41.88-1.24 1.18-1.66-1.57-3.22-5.27-4.96-8.74-4.72.61.98 2.38.56 2.81 1.75-.44.11-1.32.32-1.76.43.23.75.71 2.24.94 2.99 2.07.16 1.75-2.35.82-3.42.6.12 1.8.37 2.4.49-.43 1.72-1.13 3.53-2.82 4.35-2.65-.6-4.86-2.29-7.21-3.54 1.56-.67 3.18-1.18 4.85-1.54-1.92-1.39-6.52-2.8-6.84.82-3.85-2.79-8.9-2.19-12.8-4.73.59 1.51 1.07 3.07 1.23 4.7l.97-.39c.6 1.77-1.06 2.21-2.48 2.21l.31-2.2-1.55-.48c.47-.28 1.42-.84 1.89-1.11-1.64-.52-2.35-1.7-2.12-3.53z"/>
        <path d="M42.15 40.09c-2.44-.89-5.17-.87-7.38-2.38 2.39-.59 4.77-.42 7.13.51 5.56 2.48 10.34 7.18 16.78 7.16-.79.76-1.59 1.5-2.42 2.21-1.04.36-1.29-.17-.73-1.57-4.61.37-9.15-1.02-12.02-4.79-.86.14-1.72.27-2.58.41l.23 1.8 3.03-.28c-.87.53-2.62 1.59-3.49 2.12l.19-.67c-2.19-1.81-.62-3.52 1.26-4.52z"/>
        <path d="M34.28 42.68c.62-.37 1.87-1.12 2.5-1.5l.24 2.73c.52-.55 1.54-1.65 2.05-2.2l-.4 3.48c-1.66-.44-3.13-1.34-4.39-2.51z"/>
        <path d="M34.85 44.45c1.11 1.16 2.14 2.4 3.18 3.63 4.4-1.26 9.03-1.45 13.57-1.06-4.92 1.58-10.3 2.08-15.35 3.54.26-2.25-1.72-3.84-1.4-6.11zM65.36 45.24c3.17-.71 6.44-.95 9.6-.05 1.22 2.46 1.46 5.35 0 7.78-1.63.69-3.35 1.36-5.17.97-.09.33-.27.99-.35 1.31.79-.09 2.37-.29 3.16-.38l-.8 2.48c.86.09 2.6.25 3.47.33-3.43 1.04-7.05.85-10.6.89 1.4-1.07 2.89-2.02 4.51-2.7-.29-.61-.58-1.22-.87-1.84-1.78-.01-3.55-.03-5.33-.09-7.8-1.06-16.98-.82-22.81 5.27-4.02 4.03-3.24 10.66.02 14.92l2.36-1.75L41 74.73c4.95 3.9 11.56 6.13 17.83 5.01 4.62-2.24 9.79-4.15 14.95-2.62 4.74 3.49 5.09 10.12 3.92 15.4-1.53 5.77-7.22 9.3-12.88 9.97-9.23 1.39-18.8 1.05-27.83-1.37-.17.26-.51.79-.68 1.05-.52.19-1.55.57-2.06.76.67 1.72 1.43 3.39 2.02 5.14 5.51-1.71 10.8-4.92 16.77-4.07-1.09.79-2.18 1.58-3.25 2.4 1.27 1.2 2.49 2.46 3.78 3.64 4.33-2.12 7.5-6.45 12.54-7.27-.92 1.53-1.83 3.06-2.73 4.59 1.37.4 2.74.8 4.1 1.21-6.53 2.36-13.61 2.64-20.49 2.39-5.92-.48-12.13-1.28-17.16-4.72-3.58-2.07-6.3-5.25-8.67-8.59-1.87-3.13-3.12-6.56-4.35-9.98 3.21 2.26 6.95 4.04 9.07 7.51-.73-.17-2.17-.53-2.89-.7 0 1.54.01 3.08.02 4.62 4.28.48 8.64 1.26 12.84 1.57-4.59-1.96-9.04-4.64-11.71-9.02-1.12-2.47-1.97-5.06-2.39-7.75l-1.12 1.12c-.4-.28-1.2-.83-1.6-1.11-.5.83-1.49 2.5-1.98 3.34-2.08-7.58-.6-15.58 2.51-22.66 2.03 6.49 2.16 13.34 3.82 19.9 1.52 6.08 6.44 10.82 12.18 13.04 8.6 3.47 18.4 3.54 27.28 1.13 4.28-1.48 8.87-3.75 10.89-8.04 1.27-3.19.73-8.01-2.79-9.5-4.28-1.57-7.81 2.23-11.86 2.86-11.03 3-23.19-5.01-25.61-15.98-1.3-4.89 1.07-10.44 5.46-12.94 7.52-4.56 16.72-4.51 25.18-3.51 3.46.54 7.43-.02 9.15-3.48-2.46-2.06-5.76-.87-8.62-.64l.72-2.19M16.5 75.85c1.99 1.65 2.2 5.07 4.42 6.24.67-2.2.04-4.5.04-6.74-.37-.55-1.1-1.64-1.47-2.18-1 .89-2 1.79-2.99 2.68z"/>
        <path d="M40.01 46.02l.65-.16.16.65-.65.16-.16-.65zM80.52 49.23c.28-1.48.58-2.99 1.48-4.24.83 4.89-1.09 10.13-5.47 12.68-.17-3.04-.06-6.09.51-9.09 1.16.24 2.32.45 3.48.65zM50.93 47.93c2.34-1.55 4.12 1.25 6.11 2.07-6.24-.53-12.27 1.22-18.25 2.68-.59-.31-1.78-.93-2.37-1.24 4.76-1.51 9.85-1.79 14.51-3.51zM48.27 55.06c2.36-.57 2.74 2.86 4.22 4.06 2.47-.74 3.87-3.3 5.85-4.82 1.48.09 2.95.17 4.43.23-.21.46-.61 1.36-.82 1.81.36.49 1.09 1.46 1.45 1.94-4.89.27-10.59.01-14.24 3.89-3 2.56-2.75 6.91-1.75 10.36.55-1.82.64-3.73.8-5.61 1.43 1.3 2.82 2.64 4.21 3.99 6.96 2.02 13.39-3.81 20.4-2.27 5.02.79 8.51 4.77 11.54 8.49-5.19-.05-10.28-1.31-15.48-1.35.72-.9 2.17-2.72 2.9-3.63-1.67-.98-3.4-1.84-5.2-2.54-2.49 3.11-4.83 6.34-7.42 9.37-1.53.02-3.06.05-4.58.08 1.12-.73 2.33-1.35 3.38-2.19-1.09-1.49-2.25-2.92-3.36-4.4-3.61 1.41-7.05 4.06-11.07 3.8 1.41-2.04 1.97-4.49 2.77-6.8-2.66-1.81-5.29-3.64-7.9-5.52.81-1.65 1.47-3.46 2.9-4.7-.21 1.05-.64 3.14-.85 4.18 1.78.18 3.57.4 5.35.61.75-3.01 1.3-6.09 2.47-8.98zM20.94 62.48c2.19-2.24 4.21-4.72 6.94-6.34-.69 2.36-4.66 3.55-4.45 5.88.8-.67 2.38-2.02 3.18-2.69-1.17 1.94-2.39 3.85-3.68 5.71l.27-2.84-1.92 1.04-.34-.76zM21.86 67.31c1.25.25 1.18 2.61.62 3.54-1.45-.11-1.21-2.63-.62-3.54zM84.17 77.46c3.6 5.71 4.2 13.62.53 19.42-1.9-4.53-5.38-8.48-6.04-13.46 1.75.42 3.49.81 5.24 1.22.07-2.39.1-4.79.27-7.18zM75.19 98.27c.48-.48 1.44-1.43 1.91-1.91.91 1.46 1.61 3.04 2.43 4.55 1.61-.99 3.15-2.07 4.8-3-3.76 4.34-8.66 7.71-13.96 9.91 1.61-3.18 3.23-6.36 4.82-9.55z"/>
    </g>
    <path fill="#ededed" opacity=".93" d="M37.28 40.08c1.45-2.08 2.1 2.39.04.75l-.04-.75z"/>
    <path fill="#dbdbdb" opacity=".86" d="M44.19 44c.68.68.68.68 0 0z"/>
</svg>
