<svg width="128pt" height="128pt" viewBox="0 0 128 128" xmlns="http://www.w3.org/2000/svg">
    <g fill="#a52029">
        <path d="M44.66 19.68c1.99-1.02 2.92-3.77 5.42-3.67-.91 1.89-2.75 3.03-3.96 4.71l-.52.12c-.55.48-1.65 1.43-2.19 1.91-1.08 1.99-3.38 2.23-5.41 2.4l-.36-2.45c1.86-1.91 5.14-1.05 7.02-3.02zM44.31 47.39c.56.18 1.68.54 2.23.72.08 2.37.37 4.74.86 7.07-1.85 2.88-3.73 5.82-6.38 8.05.3-3.14-1.03-6.13-.42-9.27 1.29-2.16 2.41-4.42 3.71-6.57z"/>
    </g>
    <path fill="#470d0b" d="M49.47 19.24c1.52-3.55 5.59.41 8.35-.35 3.28 2.86 6.79 5.43 10.46 7.71-2.04.4-3.72-1.63-5.67-1.11-.6-.73-1.22-1.44-1.86-2.14-.51 1.46-.95 2.94-1.34 4.43-.14-.48-.43-1.44-.57-1.92-.54.27-1.61.81-2.15 1.08 2.61-4.18-3.34-7.96-7.22-7.7z"/>
    <path fill="#de2c31" d="M52.12 22.26c-1.24-1.71-3.74-.55-5.05-2.31 3.41-.2 8.71.82 9.11 5.01.48 1.51-1.36 2.56-.44 4.07-1.2 1.08-2.5 1.83-3.34 3.24-.29-1.28-.61-2.54-.94-3.8-1.31-.09-2.62-.05-3.93.12-.15-.34-.44-1.04-.59-1.38 1.54-.85 3.28-.91 5-.78l-.61-1.41-4.18-.04.63-1.2c1.58 0 2.87-1.08 4.34-1.52z"/>
    <path fill="#d62c31" d="M46.12 20.72c.31.41.94 1.25 1.25 1.66-.21.42-.63 1.25-.84 1.67-.23-.81-.7-2.41-.93-3.21l.52-.12z"/>
    <path fill="#2a090a" opacity=".55" d="M43.41 22.75c.54-.48 1.64-1.43 2.19-1.91.23.8.7 2.4.93 3.21.21-.42.63-1.25.84-1.67.1.35.31 1.05.41 1.4l-.63 1.2 4.18.04.61 1.41c-1.72-.13-3.46-.07-5 .78.15.34.44 1.04.59 1.38-.18.75-.38 1.48-.59 2.22l-1.79 1.11c.12-.48.37-1.45.5-1.93.23-1.37.4-2.74.52-4.12-.91-1.05-1.85-2.07-2.76-3.12z"/>
    <g fill="#de2c39">
        <path d="M36.25 24.76c.35-.52 1.04-1.55 1.39-2.06l.36 2.45c2.03-.17 4.33-.41 5.41-2.4.91 1.05 1.85 2.07 2.76 3.12-.12 1.38-.29 2.75-.52 4.12-2.06-2.05-5.34-.04-7.76-1.52.55-.06 1.65-.2 2.2-.26 1.71-.05 3.33-.69 4.77-1.56-.47-.87-1.3-1.14-2.51-.81-1.97.12-3.99.3-5.91-.33l-.19-.75zM64.39 67.6l1.97.56c-.76.86-1.51 1.73-2.26 2.6 1.09.33 2.2.65 3.3.97.79 1.71.72 3.84-1.13 4.82-2.13-2.39-4.22-5.92-1.88-8.95zM75.3 83.2c.24.23.73.67.97.89.16 3.49-.49 7.22 2.01 10.09-.69 3.28-.77 6.6-.72 9.95-.39-2.11-.7-4.51-2.71-5.74l-.54-.49c1.05-4.74 2.19-9.92.99-14.7z"/>
    </g>
    <path fill="#280909" opacity=".49" d="M36.02 23.87l.23.89.19.75c1.92.63 3.94.45 5.91.33-.83.71-1.59 1.5-2.26 2.37-.55.06-1.65.2-2.2.26-.47-.14-1.43-.43-1.91-.57-.07-1.35-.06-2.69.04-4.03z"/>
    <path fill="#681818" d="M59.41 27.78c.39-1.49.83-2.97 1.34-4.43.64.7 1.26 1.41 1.86 2.14l.34.47c-.7 1.14-1.37 2.32-1.78 3.61.07.58.21 1.73.29 2.31-.14.59-.4 1.75-.53 2.33-.37-.47-1.1-1.4-1.46-1.87-.53.51-1.07 1.02-1.6 1.53-1.66 2-4.6 3.12-5.02 5.95-.83 1.67-.6 3.4.32 5.03-1.44-.2-3.19.44-3.12 2.17-.4 2.84-1.06 5.73-2.65 8.16-.49-2.33-.78-4.7-.86-7.07-.55-.18-1.67-.54-2.23-.72 2.14-3.94 5.04-7.62 4.59-12.41.2-.31.6-.92.8-1.23 2.98.48 4.57-2.2 6.6-3.78-.11-1.05.02-2.06.39-3.03.54-.27 1.61-.81 2.15-1.08.14.48.43 1.44.57 1.92z"/>
    <path fill="#65171a" opacity=".78" d="M42.35 25.84c1.21-.33 2.04-.06 2.51.81-1.44.87-3.06 1.51-4.77 1.56.67-.87 1.43-1.66 2.26-2.37z"/>
    <path fill="#300c0d" opacity=".8" d="M61.17 29.57c.41-1.29 1.08-2.47 1.78-3.61 2.47.52 3.6 3.66 5.56 5.22-2.26.96-3.64-1.8-5.29-2.86-.07.83-.22 2.49-.3 3.32-.43-.52-1.31-1.55-1.75-2.07z"/>
    <path fill="#b82426" d="M47.53 28.59c1.31-.17 2.62-.21 3.93-.12.33 1.26.65 2.52.94 3.8-1.33.42-2.71.47-4.09.47.59 2.62-2.14 3.99-4.38 3.55l-.72-.2-.94-.58c.96-1.17 1.37-2.94 2.88-3.59l1.79-1.11c.21-.74.41-1.47.59-2.22z"/>
    <path fill="#240a0a" opacity=".68" d="M57.87 33.87c.53-.51 1.07-1.02 1.6-1.53.36.47 1.09 1.4 1.46 1.87.13-.58.39-1.74.53-2.33.81 2.9.67 5.99.56 8.96-1.64-.86-.95-2.97-1.3-4.45-1.21-.56-2.59-1.02-2.85-2.52z"/>
    <path fill="#ce2c31" d="M43.21 36.09l.72.2c.44.32 1.3.97 1.74 1.29.28-.07.84-.21 1.13-.28 1.77 4.88-4 8.34-4.95 12.89l-.94.61c-.23-4.93-.04-9.88 1.33-14.65l.97-.06z"/>
    <path fill="#190606" opacity=".45" d="M53.17 44.85c-.92-1.63-1.15-3.36-.32-5.03-.67 2.28 1.78 4.06.73 6.14l-1.44.12c-.98 5.74-3.33 11.11-7.21 15.51-1.48 1.52-3.02 2.97-4.57 4.42.57 1.33 1.12 2.67 1.7 4-1.6-.99-2.55-3.41-1.7-5.15 1.35-3.59-1.83-7.48.24-10.9-.61 3.14.72 6.13.42 9.27 2.65-2.23 4.53-5.17 6.38-8.05 1.59-2.43 2.25-5.32 2.65-8.16-.07-1.73 1.68-2.37 3.12-2.17z"/>
    <path fill="#9c2021" d="M52.14 46.08l1.44-.12 1.24-.08c.71.98 1.21 2.06 1.52 3.23-2.99 4.1-7.08 8.34-6.47 13.84.87 1.91 2.86 3.06 4.78 3.71.24.04.71.13.94.18 1.56.03 3.12.04 4.68.05.42.12 1.26.35 1.68.46-2.05 3.63.8 7.36 3.37 9.81-2.42-.54-4.91-.72-7.33-.13-2.36-2.89-5.88-3.65-9.42-3.92 1.67-3.41-.66-8.13-3.83-9.83.05-.42.14-1.27.19-1.69 3.88-4.4 6.23-9.77 7.21-15.51z"/>
    <path fill="#260809" opacity=".47" d="M63.73 50.52c.53-2.81 4.24-1.01 6.25-1.35l-.29.86c-1.65-1.13-3.45-.03-4.92.85.96.08 2.87.23 3.83.31-.25 1.96-1.32 3.64-3.13 4.52-2.85 1.43-5.23 4.4-5.13 7.71-.41.22-1.21.66-1.62.87-.38-1.08-.27-2.16.33-3.24 1.15-3.96 4.75-6.06 7.54-8.73-1.54-.73-3.08-1.44-4.61-2.18.44.1 1.31.29 1.75.38z"/>
    <path fill="#4f100d" d="M52.14 56.72c1.63-2.62 3.26-5.47 5.52-7.54.84.13 2.54.39 3.39.51l.93.45c1.53.74 3.07 1.45 4.61 2.18-2.79 2.67-6.39 4.77-7.54 8.73-3.14.15-5.32-1.84-6.91-4.33z"/>
    <path fill="#f03437" d="M64.77 50.88c1.47-.88 3.27-1.98 4.92-.85.43.4 1.29 1.19 1.72 1.59-1.66 1.77-3.16 4.27-5.94 4.09 1.81-.88 2.88-2.56 3.13-4.52-.96-.08-2.87-.23-3.83-.31z"/>
    <path fill="#ce282e" d="M71.41 51.62l.06-.07c.96.8 2.12 1.21 3.32 1.5.31.37.94 1.13 1.26 1.51.32.42.96 1.27 1.28 1.69-.22.33-.66.99-.87 1.32 1.18.86 1.9 2.11 2.47 3.43-1.53 0-3.07 0-4.61.01 2.52.94 4.62 2.64 6.34 4.68-.73.16-2.17.48-2.9.64 2.05.94 4.57 1.57 5.54 3.88-3.79-.82-7.37-2.92-11.34-2.71-2.11.19-4.09-.59-5.99-1.39-1.73-.67-3.18-2.1-5.1-2.21-.13-.12-.4-.36-.53-.48-.1-3.31 2.28-6.28 5.13-7.71 2.78.18 4.28-2.32 5.94-4.09z"/>
    <path fill="#4d1013" d="M76.76 52.84c2.96-.08 5.92.49 8.84.94l-.62.83-2.77.16c1.04.8 2.06 1.61 3.07 2.44-1.76 1.52.37 3.59-1.24 5.38.81 1.21 1.54 2.51 1.39 4.02 2.05 2.25 4.66 4.24 5.87 7.11-.41.3-1.23.91-1.64 1.22-.37-.18-1.12-.54-1.5-.72l1.31.14.09-1.25c-1.67-.01-3.39-.04-3.37-2.09-.58-2.21-3.39-2.92-3.97-5.18-.42-1.7-1.76-2.75-3.27-3.47 3.27-.04 1.51-2.44.26-3.83.22-.33.67-.98.9-1.31-.79-1.41-1.85-2.62-3-3.73l-.35-.66z"/>
    <path fill="#140405" opacity=".35" d="M76.05 54.56l1.06-1.06c1.15 1.11 2.21 2.32 3 3.73-.23.33-.68.98-.9 1.31 1.25 1.39 3.01 3.79-.26 3.83 1.51.72 2.85 1.77 3.27 3.47.58 2.26 3.39 2.97 3.97 5.18-1-.15-1.93-.62-2.89-.81-.97-2.31-3.49-2.94-5.54-3.88.73-.16 2.17-.48 2.9-.64-1.72-2.04-3.82-3.74-6.34-4.68C75.86 61 77.4 61 78.93 61c-.57-1.32-1.29-2.57-2.47-3.43.21-.33.65-.99.87-1.32-.32-.42-.96-1.27-1.28-1.69z"/>
    <path fill="#6d1515" d="M52.14 56.72c1.59 2.49 3.77 4.48 6.91 4.33-.6 1.08-.71 2.16-.33 3.24.41-.21 1.21-.65 1.62-.87.13.12.4.36.53.48l-.24 2.64 2.26-.1c-.23.23-.7.68-.94.91-.42-.11-1.26-.34-1.68-.46-.99-1.72-3.63-1.71-4.68-.05-.23-.05-.7-.14-.94-.18.04-.32.11-.97.15-1.29-4.58-.14-4.63-5.65-2.66-8.65z"/>
    <path fill="#e32f33" d="M40.36 66.01c1.55-1.45 3.09-2.9 4.57-4.42-.05.42-.14 1.27-.19 1.69-.19 3.19.96 6.51-1.38 9.22-.32-.62-.97-1.87-1.3-2.49-.58-1.33-1.13-2.67-1.7-4z"/>
    <path fill="#bd2526" d="M43.36 72.5c2.34-2.71 1.19-6.03 1.38-9.22 3.17 1.7 5.5 6.42 3.83 9.83 3.54.27 7.06 1.03 9.42 3.92 2.42-.59 4.91-.41 7.33.13l.77.78c-4.64.1-9.43.84-13.93-.74.78.83 1.54 1.68 2.33 2.51 1.02 1.2 2.47 2.17 2.94 3.76-5.22-2.84-10.72-5.72-14.16-10.75l.09-.22z"/>
    <path fill="#100304" opacity=".29" d="M60.87 63.9c1.92.11 3.37 1.54 5.1 2.21-.54.49-1.07.98-1.58 1.49-2.34 3.03-.25 6.56 1.88 8.95 2.46 2.18 5.27 3.89 7.91 5.83-.66.68-1.31 1.38-1.96 2.09-.55-2.35-3.51-2.87-4.8-4.8-1.62.28-3.26.4-4.89.32-2.31-1.5-5.55-1.29-8.04-.28-.79-.83-1.55-1.68-2.33-2.51 4.5 1.58 9.29.84 13.93.74l-.77-.78c-2.57-2.45-5.42-6.18-3.37-9.81.24-.23.71-.68.94-.91l-2.26.1.24-2.64z"/>
    <path fill="#0e0405" opacity=".42" d="M55.59 66.84c1.05-1.66 3.69-1.67 4.68.05-1.56-.01-3.12-.02-4.68-.05z"/>
    <path fill="#130404" opacity=".38" d="M65.97 66.11c1.9.8 3.88 1.58 5.99 1.39 3.97-.21 7.55 1.89 11.34 2.71.96.19 1.89.66 2.89.81-.02 2.05 1.7 2.08 3.37 2.09l-.09 1.25-1.31-.14c-4.29-1.51-8.61-3.27-13.02-4.25l-.15.58c-.4 1.21-.63 2.45-.69 3.73-.37-1.62-.67-3.25-.94-4.89-2.32-.66-4.93.2-7-1.23l-1.97-.56c.51-.51 1.04-1 1.58-1.49z"/>
    <path fill="#bd2831" d="M66.36 68.16c2.07 1.43 4.68.57 7 1.23.27 1.64.57 3.27.94 4.89.8 3.75 3.61 6.55 6.74 8.54-.17 3.84-2 7.59-2.76 11.36-2.5-2.87-1.85-6.6-2.01-10.09-.24-.22-.73-.66-.97-.89l-1.12-.82c-2.64-1.94-5.45-3.65-7.91-5.83 1.85-.98 1.92-3.11 1.13-4.82-1.1-.32-2.21-.64-3.3-.97.75-.87 1.5-1.74 2.26-2.6z"/>
    <path fill="#73181b" d="M75.14 69.97c4.41.98 8.73 2.74 13.02 4.25.38.18 1.13.54 1.5.72-.22.44-.68 1.32-.91 1.76-1.24-.24-2.48-.48-3.72-.74-.68 1.83-1.51 3.62-3.07 4.86-2.16-1.56-2.38-7.5-5.87-5.63-1.03-1.35-.7-3.1-1.1-4.64l.15-.58z"/>
    <path fill="#971d21" d="M89.66 74.94c4.98.3 7.24 5.75 9.81 9.29-.1.58-.3 1.74-.4 2.31l1.08 2.63c-.46-.61-1.39-1.82-1.85-2.42-.17.72-.49 2.17-.66 2.9-.93-1.54-2.31-2.76-2.89-4.5l-.82.21c-.49.17-1.46.5-1.94.67-.46.23-1.36.67-1.82.9-.7-.75-1.36-1.52-2-2.32l-.29 1.94c-1.18-.77-1.6-2.22-2.36-3.32-1.85 1.49-2.26-1.67-3.56-2.41 1.56-1.24 2.39-3.03 3.07-4.86 1.24.26 2.48.5 3.72.74.23-.44.69-1.32.91-1.76z"/>
    <path fill="#5a1418" d="M62.53 79.99c1.63.08 3.27-.04 4.89-.32 1.29 1.93 4.25 2.45 4.8 4.8l-.71.46c-1.92.51-3.86.21-5.59-.74-1.45-1.09-2.38-2.78-4.08-3.6l.69-.6z"/>
    <path fill="#74181e" opacity=".96" d="M65.92 84.19c1.73.95 3.67 1.25 5.59.74-1.61 2.63-3.73 5.02-5.38 7.57-1.32.56-2.65 1.07-3.97 1.63 1.45-3.23 4.25-6.16 3.76-9.94z"/>
    <g fill="#c62831">
        <path d="M91.99 86.03c.48-.17 1.45-.5 1.94-.67l.68.92-.5.86-2.08-.08-.04-1.03zM94.11 87.14l.85-.14.01.92-.86.11v-.89zM73.91 98.43l.94-.04c2.01 1.23 2.32 3.63 2.71 5.74-.79 1.29-1.96 2.4-2.36 3.9-.35 2.61-3.54 2.14-5.25 3.34l-1.98.16c-.44-1.64 1.38-2.37 2.15-3.48l-1.35.08c-.23-.51-.68-1.54-.91-2.06 1.66-1.45 4.06-1.85 5.28-3.88.21-.5.63-1.49.85-1.99l-.08-1.77z"/>
    </g>
    <path fill="#942029" d="M62.16 94.13c1.32-.56 2.65-1.07 3.97-1.63-1.3 3.36-3.76 6.08-5.26 9.31-1.54 1.27-3.4 2.43-3.81 4.55-1.38-.17-2.77-.31-4.16-.4.24-.53.73-1.58.98-2.11-.99.68-3.43.28-3.13 2l1.39.58-.8.82-.65-1.26c-.87 1.03-1.84 1.32-2.9.87.2-1.3 1.08-2.15 2.18-2.76 3.22-1.68 6.55-3.44 9.23-5.89.86-.61 1.49-1.41 1.87-2.39l1.09-1.69z"/>
    <path fill="#0d0203" opacity=".38" d="M59.2 98.21c-.49-1.78.14-2.58 1.87-2.39-.38.98-1.01 1.78-1.87 2.39z"/>
    <path fill="#440d11" opacity=".65" d="M72.64 101.4c.34-.3 1.01-.9 1.35-1.2-.22.5-.64 1.49-.85 1.99l-.5-.79z"/>
    <path fill="#190506" opacity=".45" d="M45.33 105.9c-.19-1.41 3.49-2.63 4.64-1.8-1.1.61-1.98 1.46-2.18 2.76h-.6c-.46-.24-1.39-.72-1.86-.96z"/>
    <path fill="#28090b" opacity=".57" d="M50.75 105.85c-.3-1.72 2.14-1.32 3.13-2-.25.53-.74 1.58-.98 2.11 1.39.09 2.78.23 4.16.4-1.42.9-3.4.72-4.92.07l-1.39-.58z"/>
    <path fill="#842324" opacity=".86" d="M44.31 106.73c.25-.21.77-.62 1.02-.83.47.24 1.4.72 1.86.96-.72-.04-2.16-.1-2.88-.13z"/>
    <path fill="#4b1012" opacity=".64" d="M62.29 108.46c1.79-.59 3.13-1.93 4.82-2.7-.43 2.27-3.26 2.4-4.28 4.42l-2.1.73c.31-.47.94-1.41 1.26-1.88l.3-.57z"/>
    <path fill="#e03034" d="M67.11 105.76l.75.31c.23.52.68 1.55.91 2.06-1.58.73-3.18 1.5-4.36 2.82l-1.18.24-.4-1.01c1.02-2.02 3.85-2.15 4.28-4.42z"/>
    <path fill="#470f11" opacity=".63" d="M68.77 108.13l1.35-.08c-.77 1.11-2.59 1.84-2.15 3.48l1.98-.16c-1.53.87-4.55 1.21-5.54-.42 1.18-1.32 2.78-2.09 4.36-2.82z"/>
    <path fill="#731a1d" opacity=".78" d="M60.73 110.91c-3.59 1.21-.79-2.73 1.26-1.88-.32.47-.95 1.41-1.26 1.88z"/>
</svg>
