<svg width="128pt" height="128pt" viewBox="0 0 128 128" xmlns="http://www.w3.org/2000/svg">
    <g fill="#fff">
        <path d="M49.48 18.01c2.84-.38 5.48.88 8.27 1.1 3.19 2.33 5.98 5.18 9.6 6.88l-1.75-.06c-1.01-.47-3.04-1.41-4.05-1.88 2.24 2.37 4.53 4.7 6.58 7.24-2.54-.74-4.32-2.77-6.18-4.51.4 1.61.79 3.23 1.16 4.85-.55-.65-1.64-1.96-2.18-2.62.1 3.91 1.41 7.83.5 11.72-.21-1.69-.36-3.38-.47-5.07-1.25-.41-2.39-1.08-3.52-1.73-1.39 1.53-2.89 2.97-4.41 4.38-.32 2.19-.91 4.56.33 6.6-1.57-.23-3.07.38-3.15 2.14-.67 6.44-4.64 11.9-9.11 16.32.07-2.96-1.07-5.89-.54-8.82 2.76-6.82 8.98-12.43 8.62-20.27 5.65-.21 9.82-6.66 7.64-11.82-1.6-2.65-5.15-2.53-7.34-4.45m9.58 14.7l-.35.82c.6 2.66 2.71-1.53.35-.82z"/>
        <path d="M44.69 22.49c2.54-4.18 8.83-2.59 11.16.95.95 3.32-.89 6.37-3.22 8.56-1.49.41-3.01.68-4.54.92-.25 2.87-.42 5.84-1.53 8.53-1.88 3.13-3.77 6.24-5.53 9.43-.11-5.82-.47-12.12 2.59-17.34.71-1.44 2.19-2.15 3.51-2.92 0-1.21-.03-2.41-.1-3.61 1.62-.54 3.28-.9 4.95-1.23-2.6-.9-5.52-.78-7.29-3.29m1.87.45c1.86 1.64 3.84.16 5.66-.64-1.77-1.89-4.51-1.84-5.66.64zM52.03 45.99c.66-.01 1.98-.01 2.64-.02.85 1.2 2.16 2.93.64 4.22-2.99 3.95-6.47 8.34-5.39 13.65 3.19 3.51 8.54 3.52 12.79 2.36-3.44 4.17.22 8.9 3.44 11.75-4.66.31-9.51.9-13.98-.89 1.84 2.11 3.7 4.19 5.42 6.4-4.88-2.56-9.92-5.3-13.38-9.71-1.67-2.39-2.75-5.11-3.99-7.73 2.88-2.45 5.37-5.3 7.59-8.36 2.31-3.52 3.29-7.62 4.22-11.67z"/>
        <path d="M51.19 62.83c-.91-5.29 3.44-9.43 6.19-13.43 3.38.42 6.6 1.5 9.64 3.02-4.1 2.69-7.65 6.26-8.76 11.2 1.05.62 2.1 1.25 3.13 1.91-3.42-.11-8.21.96-10.2-2.7z"/>
        <path d="M64.09 49.96l4.77-.36c3.07 2.59 7.37 3.81 9.17 7.71l-2.29-.1c.48.27 1.43.83 1.91 1.11.49.88.99 1.76 1.48 2.64-1.61.05-3.23.11-4.84.15 2.54.88 4.79 2.39 6.4 4.55-.71.19-2.15.56-2.87.74 2.21.77 4.52 1.67 5.79 3.82-4.49-1-8.8-3.02-13.5-2.72-3.59-.8-7.16-2.57-10.09-4.72.56-5.32 6.61-6.64 8.55-11-1.51-.58-3-1.19-4.48-1.82z"/>
        <path d="M76.66 52.92c3.02.08 6.01.56 8.98 1.1l-3.63.88c.73 1 4.77 2.5 1.97 3.61.27.42.81 1.26 1.08 1.67-.55.76-1.1 1.52-1.66 2.28 1.26 1.06 1.75 2.53 1.87 4.12 1.5 1.61 2.9 3.31 4.58 4.75.5.95.98 1.91 1.45 2.88-1.71-.83-3.57-1.78-5.31-.44 6.64.09 10.64 5.71 13.65 10.85h-1.45c.7 1.54 1.45 3.06 2.05 4.64-.65-.7-1.95-2.1-2.59-2.8l.36 2.97c-1.45-1.59-2.67-3.37-4.19-4.89.45 1.33.92 2.65 1.43 3.96l-1.75-1.55-1.11.63c-.54-.69-1.64-2.05-2.19-2.74l.93 2.52c-1.38-.93-3.26-4.23-3.67-.81l-1.86-3.42-2.29-.69c-2.16-2.52-3.46-5.62-5.48-8.24-.44.26-1.31.78-1.75 1.04-.44-1.8-.8-3.62-1.14-5.45 2.29.65 4.56 1.36 6.72 2.34 1.74-.78 3.84-1.65 5.53-.03-2.07-2.74-4.75-5-6.09-8.23-.53-.39-1.6-1.16-2.13-1.54.57-.15 1.7-.44 2.27-.59-.76-1.27-1.56-2.51-2.42-3.72l1.49-.11c-.89-1.89-2.26-3.46-3.65-4.99m7.67 19.21c.18.32.53.96.71 1.28l.65-.54c-.17-.32-.53-.95-.71-1.27l-.65.53z"/>
    </g>
</svg>
