<svg width="128pt" height="128pt" viewBox="0 0 128 128" xmlns="http://www.w3.org/2000/svg">
    <g fill="#fff">
        <path d="M43.43 20.63c2.44-1.37 4.04-3.91 6.67-5-1.62 2.87-4.38 4.8-6.64 7.12 1.29 1.24 2.47 2.75 4.27 3.27-.62.26-1.24.52-1.85.78l.96 3.57c-2.01-1.62-4.54-1.22-6.87-1.67 1.73-1.01 3.57-1.8 5.39-2.65-1-.01-2-.03-3-.03-1.11-.01-3.34-.04-4.45-.05-.56.7-1.12 1.41-1.68 2.11.22-1.61-.06-3.42.91-4.84 1.67-1.69 4.19-1.75 6.29-2.61zM69.66 79.29c-3.71-2.38-8.58-7.35-5.18-11.88 2.77 1.46 5.84 1.8 8.94 1.78.15 5.63 2.69 11.12 7.79 13.86-1.69 6.79-4.22 13.55-3.71 20.67-1.1 1.87-2.09 3.79-3.09 5.71-2.89 1.55-6.11 2.41-9.39 2.39l1.65-2.27c-.95.47-2.85 1.4-3.81 1.87.22-1.02.45-2.04.67-3.06 2.92-2.19 6.79-2.97 9.3-5.68 2.33-5.24 2.77-11.09 3.11-16.74.33-3.7-4.05-4.64-6.28-6.65m-3.02 31.88c1.48.38 2.32-1.94 2.87-2.99-1.45-.2-3.66 1.35-2.87 2.99z"/>
        <path d="M61.73 80.08c1.84-.09 3.68-.16 5.5-.37 1.34 1.65 4.15 2.45 4.76 4.37-4.35 5.47-7.67 11.59-11.25 17.58-1.6 1.38-2.99 2.97-4.13 4.74-1.5-.13-3.01-.21-4.47-.63.77-.41 2.3-1.24 3.07-1.65-1.52.25-3.03.55-4.54.87l1.9 2.61-2.02-1.51c-1.92 1.34-4.44.66-6.63.56 6.36-2.54 13.57-5.07 17.37-11.18 1.82-2.63 3.58-5.38 4.6-8.44 1.23-3.22-2.26-5.05-4.16-6.95zM59.01 111.03c-.58-1.48 1.97-2.33 3.04-1.76.39 1.37-1.95 2.55-3.04 1.76z"/>
    </g>
    <path fill="#7f7f7f" opacity=".5" d="M42.36 26.02c1 0 2 .02 3 .03-1.82.85-3.66 1.64-5.39 2.65-.38.2-1.12.58-1.49.77.27-.96.55-1.93.84-2.89l3.04-.56z"/>
</svg>
