<svg width="128pt" height="128pt" viewBox="0 0 128 128" xmlns="http://www.w3.org/2000/svg">
    <path fill="#fff" d="M67.76 35.84c1.03-1 2.06-2 3.09-3.01 3.22 3.75 6.58 7.39 9.08 11.68-.43 2.23-.83 4.46-1.08 6.72-1.55-1.03-3.11-2.05-4.66-3.09-.2 1.93-.64 3.81-1.2 5.66-2.43-.16-2.73 1.82-2.84 3.82-2.47-4.07-4.41-8.46-7.3-12.27-.72.26-2.14.79-2.85 1.05l.83.71-2.73-.24c-.42.58-1.28 1.73-1.7 2.31 1.84-.6 3.67-1.27 5.49-1.95 3.67 4.03 6.19 8.91 8.92 13.58.08-1.18-.01-2.34-.27-3.5.75-1.34 1.59-2.63 3.34-2.51.4-1.62.85-3.23 1.25-4.85 1.34.98 2.71 1.91 4.11 2.8.54-2.29 1.02-4.58 1.47-6.88 3.1 6.29 6.31 12.52 9.28 18.87.46-.72 1.37-2.16 1.83-2.88 1.37 3.47 2.59 7.02 3.35 10.68.5.02 1.51.07 2.02.09 3.29 3.31 5.42 7.55 8.04 11.37-8.26-.08-16.53.14-24.78-.09-1.79-2.02-3.94-3.79-5.16-6.23-.71-1.6-2.59-1.85-3.98-2.59-1.26-7.09-10.64-11.03-16.26-6.23-2.19-3.36-5.38-5.98-9.24-7.17 2.75-4.59 5.69-9.06 8.48-13.63 1.48-.76 2.99-1.48 4.44-2.32 2.41-3.74 3.94-9.15 9.03-9.9z"/>
</svg>
