<svg width="128pt" height="128pt" viewBox="0 0 128 128" xmlns="http://www.w3.org/2000/svg">
    <path fill="#170505" opacity=".36" d="M28.51 17.17c.53-.52 1.05-1.04 1.59-1.56-.24 2.95-.54 5.89-.72 8.84-.34-2.42-.52-4.86-.87-7.28z"/>
    <path fill="#e72c34" d="M98.94 16.05c4.08 4.66 7 10.69 6.8 16.99.1 5.15-1.96 10.08-4.79 14.29-2.9-1.14-5.88-2.1-8.68-3.49-1.72-1.89-1.64-4.58-2.07-6.95 3.53-3 7.18-6.32 8.6-10.89 1.15-3.21.74-6.68.14-9.95z"/>
    <path fill="#d92b2e" d="M28.51 17.17c.35 2.42.53 4.86.87 7.28.39 1.76 1.2 3.4 2.06 4.98.02.03.05.09.07.13 1.56 2.5 3.73 4.5 5.84 6.52.18.19.55.57.74.76 0 2.33-.54 4.59-1.34 6.76-3.07 1.35-6.18 2.59-9.36 3.67-2.46-4.39-4.75-9.13-4.57-14.29-.19-5.8 2.42-11.18 5.69-15.81z"/>
    <path fill="#b9292e" opacity=".97" d="M39.72 29.89c2.68-4.69 10.11-6.96 14.19-2.85.41.92 1.07 1.62 1.97 2.08 1.97 1.43-.18 2.43-.85 3.53-.36-5.14-7.06-7.19-10.83-4.32-1.09.97-1.87 2.26-2.99 3.18l-1.92.95c.11-.64.32-1.93.43-2.57z"/>
    <path fill="#b52031" d="M73.43 28.42c2.47-3.69 7.86-4.5 11.58-2.28 6.18 2.57 6.28 12.32.84 15.74-2.3 1.59-6.43 1.93-7.88-.95 2.2-.26 4.84.41 6.65-1.25 3.54-2.39 3.88-8.22.52-10.91-3.48-3.27-10.14-1.6-11.41 3.12-.82 2.47.14 4.97 1.41 7.08-4.45-.1-7.67 3.33-10.74 6.06-3.08-2.71-6.29-6.11-10.71-6.08 1.1-1.95 2-4.07 1.72-6.38.5.07 1.48.2 1.98.27-.98 2.69 1.01 5.14 2.95 6.7 2.1 1.85 3.82-1.52 2.31-3.19-.48-.91-.97-1.82-1.46-2.71 1.61-.91 2.56-2.45 3.17-4.14.69 1.45 1.44 2.93 2.91 3.74-.13.36-.38 1.07-.51 1.42-.22.58-.66 1.73-.88 2.3l-.52 1.32c.54 2.99 3.5 1.41 4.8-.12 2.18-2.86 1.05-6.92 3.27-9.74z"/>
    <path fill="#190606" opacity=".38" d="M53.91 27.04c1.79-.39 2.44.3 1.97 2.08-.9-.46-1.56-1.16-1.97-2.08z"/>
    <path fill="#ce2c39" d="M42.19 36.16c-.71-3.91 1.36-8.15 5.64-8.51.06 1.38.11 2.76.15 4.14-.9 1.35-1.07 2.79-.21 4.2-1.86.09-3.72.11-5.58.17z"/>
    <path fill="#de3039" d="M47.83 27.65c5.05-.36 8.65 5.84 5.55 9.93-2.88 3.96-9.28 3.02-11.19-1.42 1.86-.06 3.72-.08 5.58-.17.86-.61 1.69-1.25 2.48-1.93-.73-.78-1.49-1.54-2.27-2.27-.04-1.38-.09-2.76-.15-4.14z"/>
    <path fill="#de2c39" d="M78.09 27.94c2.4 0 4.94-.2 7 1.31-.39.65-1.17 1.94-1.55 2.58l-.63.38c-1.82.56-5.44.81-2.97 3.28.02.61.06 1.84.07 2.46l-.24 2.35c-2.49-.88-5-2.51-5.38-5.36-.75-2.99 1.54-5.35 3.7-7z"/>
    <path fill="#2c080b" opacity=".63" d="M31.44 29.43c.02.03.05.09.07.13-.02-.04-.05-.1-.07-.13z"/>
    <path fill="#110404" opacity=".3" d="M37.35 36.08c.81-2.06 1.58-4.13 2.37-6.19-.11.64-.32 1.93-.43 2.57-.65 2.74.28 5.47 1.67 7.81-1.27 1.62-2.55 3.23-3.89 4.79-2.61 1.88-5.77 2.78-8.74 3.93-.23-.43-.71-1.29-.94-1.72 3.18-1.08 6.29-2.32 9.36-3.67.8-2.17 1.34-4.43 1.34-6.76-.19-.19-.56-.57-.74-.76z"/>
    <path fill="#f73031" d="M83.54 31.83c.6-.39 1.82-1.18 2.42-1.58.61 2.4 1.39 5.29-.39 7.42-1.25 1.98-3.69 2.29-5.8 2.63l.24-2.35c1.51-.4 3.89-2.01 1.7-3.36.35-.82.75-1.61 1.2-2.38l.63-.38z"/>
    <path fill="#9d2427" opacity=".97" d="M39.29 32.46l1.92-.95c0 2.76.14 5.94 2.55 7.78 1.88 2 4.81 1.35 7.23 1.59-2.18 3.82-7.82 2.39-10.03-.61-1.39-2.34-2.32-5.07-1.67-7.81z"/>
    <path fill="#240809" opacity=".36" d="M47.98 31.79c.78.73 1.54 1.49 2.27 2.27-.79.68-1.62 1.32-2.48 1.93-.86-1.41-.69-2.85.21-4.2z"/>
    <path fill="#1b0504" opacity=".44" d="M67.27 33.24l.79.11.23.84c-.38.12-1.15.35-1.53.47.13-.35.38-1.06.51-1.42z"/>
    <path fill="#b12628" opacity=".95" d="M79.94 35.49c.44-.23 1.33-.68 1.77-.9 2.19 1.35-.19 2.96-1.7 3.36-.01-.62-.05-1.85-.07-2.46z"/>
    <path fill="#060102" opacity=".29" d="M62.65 36.35c1.51 1.67-.21 5.04-2.31 3.19.58-1.17 1.46-2.21 2.31-3.19z"/>
    <path fill="#28090a" opacity=".45" d="M65.36 38.28l.52-1.32c.17.67.52 2.01.7 2.67 1.19-.5 2.38-.99 3.58-1.47-1.3 1.53-4.26 3.11-4.8.12z"/>
    <path fill="#8f1d21" d="M37.07 45.06c1.34-1.56 2.62-3.17 3.89-4.79l-.62 1.35c2.92 1.58 6.16 2.4 9.49 1.99-1.26 2.47-4.65 1.1-6.81 1.87 2.46 1 6.46-1.14 7.58 1.96-.84.94-1.66 1.89-2.47 2.85-1.27.13-2.55.25-3.83.38-.24-.72-.74-2.15-.98-2.87-.68-1.1-1.49-2.87-3.1-2.52-6.75.78-11.7 7.18-12.22 13.7-.31 3.23.29 6.43.59 9.64.01.45.01 1.36.01 1.82-1.34-.84-2.67-1.67-4-2.52.93-6.02 1.69-12.06 2.49-18.1l.05-.41 1.19-.42c2.97-1.15 6.13-2.05 8.74-3.93z"/>
    <path fill="#5d1416" d="M50.74 46.38c-1.45-2.45.42-4.72 2.22-6.23 4.72-.54 8.3 2.65 11.36 5.78 3.01-2.63 6.16-6.41 10.62-5.62 3.89.09 4.87 5.84 1.25 7.24l-2.36.4c.24 2.05 1.36 4.45-.56 6.03-.11-2.3-1.11-4.16-3.24-5.17 1.85-.76 3.65-1.64 5.39-2.63-3.91.32-7.09 3.13-11.02 3.38-1.76-.33-3.48-.83-5.21-1.27-2.36-2.19-5.51-1.75-8.45-1.91z"/>
    <path fill="#8c1c21" d="M86.99 41.38c.56.76 1.08 1.55 1.63 2.32l.28-2.75c1.47 1.4 3.23 3.01 1.17 4.63-1.27.05-2.53.2-3.78.43-.66 1.64-1.37 3.25-2.07 4.87-1.3-.25-2.59-.5-3.89-.74-.73-1.08-1.48-2.15-2.23-3.22 1.98-2.05 5.14-.73 7.64-1.44-2.21-.76-5.5.52-6.91-1.82 2.63-.57 6.83.87 8.16-2.28z"/>
    <path fill="#0f0304" opacity=".29" d="M28 58.98c.52-6.52 5.47-12.92 12.22-13.7 1.61-.35 2.42 1.42 3.1 2.52l-1.53-.13c-4.02-1.14-7.3 1.81-9.71 4.61.68-.07 2.04-.2 2.72-.27.35-.22 1.05-.66 1.4-.87-.05 1.7-.84 2.37-2.38 2.03-.54-.11-1.6-.33-2.14-.44-1.64 5.55-2.57 11.57-.56 17.16-.63-.32-1.9-.96-2.53-1.27-.3-3.21-.9-6.41-.59-9.64z"/>
    <g fill="#9c2029">
        <path d="M93.53 47.89c.54-.43 1.09-.85 1.64-1.27 2.1 1.14 4.29 2.13 6.51 3.02.02.28.07.82.1 1.09.39 4.75 1.06 9.47 1.76 14.18-.73-.24-2.19-.73-2.92-.97.58-5.94-1.2-13.36-7.09-16.05zM31.68 52.73c.54.11 1.6.33 2.14.44.08.49.25 1.47.34 1.97-1.66.45-1.56 2.38-1.91 3.68-.96 4.44.19 8.96 1.85 13.07.2 1.02.75 1.79 1.65 2.32 3.72 3.86 8.46 6.92 11.6 11.22-.06.49-.17 1.46-.23 1.95-2.1-2.73-4.32-5.38-7.01-7.56-3.37-2.9-7.73-5.34-8.99-9.93-2.01-5.59-1.08-11.61.56-17.16z"/>
    </g>
    <path fill="#8d1e22" opacity=".96" d="M32.08 52.28c2.41-2.8 5.69-5.75 9.71-4.61.72 1.03 1.39 2.08 2.02 3.17-.52 1.3-1.18 2.58-1.46 3.97.55 1.55 2.36 2.7 1.82 4.52-1.25-.22-2.4-.7-3.45-1.45l.17-1.23c.23-1.41.31-2.85.12-4.27-.07-.58-.22-1.75-.29-2.33-1.6-1.47-3.1.3-4.52 1.09-.35.21-1.05.65-1.4.87-.68.07-2.04.2-2.72.27z"/>
    <path fill="#8f201b" d="M50.05 49.08c1.04-1.65 3.15-1.68 4.84-2.11-1.28 3.55-2.12 7.24-2.82 10.94-3.04-1.56-4.43-6.18-2.02-8.83z"/>
    <path fill="#671614" d="M54.89 46.97c.89.43 2.66 1.29 3.54 1.72-1.47 1.21-2.72 2.67-3.04 4.6.54.79 1.08 1.58 1.61 2.38 1.08-.23 3.72-2.57 3.41 0-.35.64-1.06 1.93-1.41 2.58-2.35.1-4.69.17-7.04.22l.11-.56c.7-3.7 1.54-7.39 2.82-10.94z"/>
    <g fill="#841b1b">
        <path d="M73.83 47.95l2.36-.4c3.72.33 4.62 5.56 2.9 8.27-1.03 1.93-3.36 2.11-5.2 2.77l.68-2.36c-.39-.11-1.17-.31-1.57-.41l-.04-.94.31-.9c1.92-1.58.8-3.98.56-6.03zM53.22 86.15c.06-1.39 1.03-3.31 2.38-3.68.47 1.51-.15 4-1.79 4.56-.15-.22-.44-.66-.59-.88z"/>
    </g>
    <path fill="#982428" opacity=".98" d="M84.97 51.28c.72-2.13 2.41-4.53 5-3.98 4.46.79 6.59 5.23 8.61 8.77-.88.57-1.8 1.05-2.71 1.55-.13-3.46-2.65-6.01-5.11-8.12-1.38-1.67-4.68.19-3.27 2.17 2.15 2.59.68 6.78-2.4 7.7-1.71-1.78 1.25-2.84 1.22-4.56.09-1.32-.83-2.4-1.34-3.53z"/>
    <path fill="#360c0d" opacity=".58" d="M87.49 51.67c-1.41-1.98 1.89-3.84 3.27-2.17-.79 1.03-2.04 1.78-3.27 2.17z"/>
    <path fill="#1d0607" opacity=".42" d="M24.16 70.3c.38-6.86 1.08-13.85 2.93-20.48-.8 6.04-1.56 12.08-2.49 18.1l-.44 2.38z"/>
    <g fill="#ef3039">
        <path d="M58.16 49.58c2.04.11 4.02.55 6 1.02 2.2-.11 4.34-1.43 6.58-.66 1.53 1.19 2.81 3.49.95 5.01l-.48-.11c-.2-1.21-.35-2.42-.47-3.64-.75.39-2.26 1.18-3.02 1.57l.29.07c-.41.38-1.24 1.12-1.66 1.49.84 1.85 2.12 3.41 3.59 4.8-1.6.95-3.38 1.44-5.19 1.79-.06-1.64-.12-3.29-.19-4.93-.16 1.61-.31 3.22-.47 4.84-1.81-.29-3.58-.78-5.17-1.71 1.49-1.49 2.79-3.15 3.77-5.03-1.9-1.73-4.76-2.02-5.16 1.24-2.24-1.82-1.06-4.09.63-5.75z"/>
        <path d="M49.39 59.36c2.71-.65 5.48-.22 8.22-.09 4.03 2.92 9.63 2.73 13.7-.01 2.64.16 6.12-1.82 8.03.8 1.18 4.42.32 9.18-1.82 13.17-.15-2.47-.43-4.94-.48-7.42-.2-.49-.61-1.46-.82-1.95-.23-.18-.68-.53-.91-.7-1.29 3.17-5.71 1.63-8.38 2.57-.11-2.17-.4-2.19-.87-.06-2.74-.42-6.35.98-8.46-1.21-1.66 1.25-3.68.41-4.35-1.48-.46.95-.93 1.9-1.29 2.9-.61 2-1.09 4.05-1.66 6.07-1.32-4.06-1.94-8.39-.91-12.59zM79.78 59.05c1.34-.18 2.68-.32 4.03-.42 1.84 2.92 1.23 6.46 1.26 9.72-.48-.29-1.44-.86-1.93-1.15-1.38-2.61-2.86-5.2-3.36-8.15z"/>
    </g>
    <path fill="#1d0709" opacity=".43" d="M101.78 50.73c1.72 7.36 2.59 14.95 3.12 22.48l-.28-1.65c-.4-2.21-.75-4.43-1.08-6.65-.7-4.71-1.37-9.43-1.76-14.18z"/>
    <path fill="#3b0d0f" opacity=".68" d="M40.89 56.65c-1.8 0-1.73-4.35.12-4.27.19 1.42.11 2.86-.12 4.27z"/>
    <path fill="#651415" d="M43.26 54.01c.41-2.32 2.83-2.71 4.76-2.88-.03 2.86.97 5.47 2.75 7.69-3.06-.15-7.08-1.17-7.51-4.81z"/>
    <path fill="#611718" opacity=".89" d="M67.72 52.77c.76-.39 2.27-1.18 3.02-1.57.12 1.22.27 2.43.47 3.64l.18.7 1.61.28c.4.1 1.18.3 1.57.41l-.68 2.36c-1.29-.13-2.57-.27-3.86-.4l-1.76-2.36c.66-.79 1.1-1.64 1.33-2.57-.4-.11-1.19-.31-1.59-.42l-.29-.07z"/>
    <path fill="#631018" d="M80.65 51.01c2.1.24 5.27 1.26 4.87 3.94-1.29 3-4.4 3.82-7.4 3.76 1.88-2.17 2.66-4.85 2.53-7.7z"/>
    <path fill="#9d2029" d="M96.43 58.51c.35-.05 1.04-.16 1.39-.21 2.19 4.49.87 9.94-1.33 14.17-4.24 6.13-13.03 8.72-14.85 16.57.34 3.14 2.74 5.53 4.03 8.32 1.76 3.41 3.21 7.81 1.21 11.43-2.5 2.95-6.84 3.44-10.42 2.69-3.04-1.04-4.33-4.29-5.98-6.77-4.19.06-8.38.01-12.57.09-1.28 3.06-3.24 6.67-6.97 6.94-4.32.76-10.29-1.65-10.11-6.75-.17-6.65 6.21-11.08 6.29-17.61.06-.49.17-1.46.23-1.95.97 1.53 2.39 3.29 1.64 5.24-2.07 4.11-4.55 8.27-4.21 13.07 2.46 2.05 5.6 4.79 9.02 3.2 1.1-1.17 1.89-2.57 2.74-3.92 5.26-.03 10.51-.06 15.77.03 1.08 1.84 2.1 4.37 4.6 4.48 2.84-.33 5.94-1.88 7.04-4.67.86-5.49-4.69-9.46-4.19-14.97 3.29-6.82 11.13-9.77 14.73-16.36 2.3-3.9 2.82-8.63 1.94-13.02z"/>
    <path fill="#f73039" d="M44.06 69.73c-.94-3.94-.82-8.07 1.22-11.65 2.17.46 4.62 1.33 2.89 3.91-.5 1.55-1.48 2.87-2.34 4.23-.75 1.08-1.34 2.27-1.77 3.51z"/>
    <path fill="#531113" opacity=".63" d="M76.22 63.86c.21.49.62 1.46.82 1.95l-.88-.16-.43-.99.49-.8z"/>
    <path fill="#71151b" d="M100.62 63.94c.73.24 2.19.73 2.92.97.33 2.22.68 4.44 1.08 6.65-1.22.51-2.43 1.03-3.65 1.55-1.3-2.95-1.44-6.13-.35-9.17z"/>
    <path fill="#481011" opacity=".53" d="M44.06 69.73c.43-1.24 1.02-2.43 1.77-3.51 1.02 1.22.31 4.31-1.55 4.05l-.22-.54z"/>
    <path fill="#450f10" opacity=".58" d="M50.3 71.95c.57-2.02 1.05-4.07 1.66-6.07-.1 2.41-.19 4.82-.25 7.23-.38-.2-1.13-.62-1.51-.83l.1-.33z"/>
    <path fill="#491214" opacity=".62" d="M83.14 67.2c.49.29 1.45.86 1.93 1.15.78 3.26-4.2.8-1.93-1.15z"/>
    <path fill="#631310" d="M24.6 67.92c1.33.85 2.66 1.68 4 2.52l.01.01c-2.65 6.4-4.2 13.21-7.09 19.52.63-6.59 1.71-13.12 2.64-19.67l.44-2.38z"/>
    <path fill="#26080a" opacity=".53" d="M34.1 71.89c1.77-.11 2.33.66 1.65 2.32-.9-.53-1.45-1.3-1.65-2.32z"/>
    <path fill="#631418" d="M100.97 73.11c1.22-.52 2.43-1.04 3.65-1.55l.28 1.65c.67 5.38 1.67 10.73 2.07 16.14-2.63-5.15-3.79-10.9-6-16.24z"/>
    <path fill="#e92d34" d="M73.53 83.62c1.94 2.3 3.37 4.97 4.82 7.6 2.06 3.61 3.9 7.47 3.84 11.73-1.61.95-3.16 2.44-5.2 2.09-2.28.23-2.56-2.59-3.47-4.04-6.07 0-12.14-.01-18.21 0-.8 1.34-1.62 2.68-2.44 4.01l-3.7-.03c-.57-.35-1.72-1.03-2.29-1.38-.92-4.02 1.06-7.76 2.72-11.28 1.15-2.09 2.41-4.12 3.62-6.17.15.22.44.66.59.88l.4.6c-.63 2.18-.66 4.45-.42 6.7.52-.58 1.56-1.73 2.08-2.31.2.65.62 1.93.82 2.57 2.31-.26 4.63-.35 6.96-.38l.72 1.88c.56-2.95 3.87-1.53 5.96-1.81.24.46.72 1.39.96 1.85.2-.5.6-1.49.8-1.98.23-.39.69-1.15.92-1.53.52.5 1.57 1.49 2.09 1.98.07-2.33.08-4.68-.45-6.96-.28-1.01-.84-3.02-1.12-4.02z"/>
    <path fill="#2d0a0a" opacity=".43" d="M74.65 87.64c.53 2.28.52 4.63.45 6.96-.52-.49-1.57-1.48-2.09-1.98-.23.38-.69 1.14-.92 1.53.15-1.43.98-2.27 2.47-2.51.04-1.33.07-2.67.09-4z"/>
    <path fill="#120404" opacity=".35" d="M78.35 91.22l1.41-3.33c-.5 5.51 5.05 9.48 4.19 14.97-1.1 2.79-4.2 4.34-7.04 4.67-2.5-.11-3.52-2.64-4.6-4.48-5.26-.09-10.51-.06-15.77-.03-.85 1.35-1.64 2.75-2.74 3.92-3.42 1.59-6.56-1.15-9.02-3.2-.34-4.8 2.14-8.96 4.21-13.07.15.41.46 1.23.61 1.65-1.66 3.52-3.64 7.26-2.72 11.28.57.35 1.72 1.03 2.29 1.38l3.7.03c.82-1.33 1.64-2.67 2.44-4.01 6.07-.01 12.14 0 18.21 0 .91 1.45 1.19 4.27 3.47 4.04 2.04.35 3.59-1.14 5.2-2.09.06-4.26-1.78-8.12-3.84-11.73z"/>
</svg>
