<svg width="128pt" height="128pt" viewBox="0 0 128 128" xmlns="http://www.w3.org/2000/svg">
    <g fill="#fff">
        <path d="M29.74 16.05c-2.7 7.76 1.78 16.07 8.28 20.35.19 2.51-.11 5-1.36 7.22-2.98 1.42-6.01 2.81-9.24 3.56-2.82-4.9-5.1-10.39-4.43-16.17.31-5.61 3.19-10.74 6.75-14.96zM98.98 16.42c4.01 4.17 6.45 9.81 6.8 15.58.24 5.52-1.97 10.74-4.81 15.35-2.98-1.14-5.92-2.35-8.91-3.47-1.03-2.14-1.68-4.47-1.63-6.87 3.58-3.44 7.62-6.96 8.68-12.07.94-2.79.34-5.7-.13-8.52z"/>
        <path d="M39.87 30.02c2.42-4.58 9.29-6.83 13.53-3.39 2.44 1.66 3.66 4.54 3.66 7.44.04 3.29 2.75 6.07 6.05 6.19.23-2.29-.49-4.41-1.57-6.39 1.27-1.29 2.3-2.77 3.17-4.35.28 1.68.98 3.27 2.67 3.94-.8 2.08-2.55 4.33-1.29 6.59 4.15.12 6.04-4.7 6.01-8.21.72-5.69 7.97-8.75 12.71-5.7 5.44 2.05 6.59 10.37 2.47 14.15.83.41 1.67.82 2.51 1.22.37 1.35.65 3.01 2.02 3.75 3.09 1.76 6.47 2.98 9.76 4.32 1.43 11.44 3.16 22.83 4.62 34.26.23 1.81.77 3.63.42 5.47-1.84-6.2-4.13-12.25-6.19-18.37-1.15-2.56.15-5.24.35-7.85.54-5.74-1.74-11.86-6.42-15.38-2.17-1.79-5-2.29-7.61-3.12-2.58.07-5.87 1.7-7.83-.76 3.27.27 6.53-.36 9.37-2.05-.96-.39-1.92-.78-2.89-1.15l1.31.96c-2.58 1.31-6.61 2.57-8.59-.4 3.82.45 8.31-1.13 9.18-5.3 1.91-5.5-4.54-11.08-9.72-8.43-4.47 1.88-5.45 7.82-2.56 11.49-4.53-.21-7.89 3.52-10.97 6.34l-.07-1.06c-3.13-2.13-5.94-5.51-10.07-5.33 2.37-3.47 2.1-8.96-1.93-11.05-3.4-2.07-7.62-.62-9.94 2.37-1.07 2.47-1.09 5.09 0 7.56 2.11 2.66 5.25 3.73 8.58 3.4-1.39 2.43-4.56 1.16-6.45 2.85 1.36-.11 4.08-.33 5.44-.45-1.02 2.8-4.74.94-6.86 1.34 1.86 2.77 6.53-.76 7.71 2.46-1.36 2.25-3.55 3.34-6.15 3.19-.61-2.56-2.05-6.59-5.56-5.01-.34-.55-.67-1.09-.99-1.64l1.07-.86c.08-.65.23-1.97.31-2.63 1.73 1.22 3.4 2.64 5.55 3.06-.27-.39-.8-1.18-1.07-1.57-4.54-1.7-5.48-7.85-3.74-11.9z"/>
        <path d="M52.96 46.29c-4.01.99-2.66-5.37.29-5.67 4.72-1.2 8.11 2.89 11.36 5.54 1.53-2.12 3.77-3.48 5.78-5.06 2.61-.97 5.6-.98 7.72 1.04.11 1.27.05 2.54-.18 3.8-1.87 1.23-4.28-.57-6.15.87-2.21 1.52-5.01 1.55-7.25 2.96-1.44-.86-3.09-1.19-4.73-1.38-2.01-1.38-4.3-2.67-6.84-2.1zM27.19 50.06c2.52-2.27 6.64-2.81 9.62-4.67-.33.44-.99 1.33-1.32 1.78-7.68 3.73-8.92 14.14-6.52 21.56-2.62 6.84-4.4 14.03-7.46 20.69 2.17-13.08 3.49-26.29 5.68-39.36zM78.36 47.23c.79-2.01 3.01-.9 4.55-1.16 1.55-.15 3.07-.52 4.53-1.11-1.56 1.69-2.45 3.83-3.48 5.85-1.2-.34-2.4-.66-3.61-.97-.63-.9-1.29-1.77-1.99-2.61z"/>
        <path d="M85.17 50.96c.58-2.18 2.92-4.42 5.29-3.41 3.87.99 6.25 4.69 7.37 8.29 2.03 5.82 1.27 12.65-2.23 17.75-4.18 4.78-10.71 7.48-13.5 13.47-1.75 3.93 2.12 7.06 3.49 10.41 1.91 3.68 3.77 9.09.13 12.35-2.86 1.84-6.61 2.64-9.83 1.32-2.52-1.32-3.83-4.01-5.06-6.44-4.34.03-8.68.01-13.02.02-1.18 3.04-3.12 6.46-6.67 6.95-3.95.58-9.27-1.03-10.12-5.47-.41-4.95 2.38-9.35 4.84-13.41 1.09-1.64 1.62-3.72.84-5.6-3.67-7.83-14.25-10.21-16.14-19.13-1.23-5.4-.89-11.49 2.22-16.23 1.65-2.43 4.22-4.64 7.33-4.55 1.79.48 2.75 2.1 3.62 3.59-1.54 2.14-2.32 5.07.39 6.71.12 1.56-1.6 1.97-2.33.65-2.51-2.19-1.02-5.54-.54-8.26-.54-.22-1.63-.67-2.18-.89-5.66 2.45-7.71 9.13-7.12 14.86 0 5.81 3.67 10.78 7.97 14.35 3.44 3.13 7.89 5.92 9.11 10.69-.13 4.92-5.15 8.76-4.02 13.96 1.08 2.7 4.09 4.32 6.93 4.45 2.5-.06 3.62-2.57 4.41-4.55 5.38-.02 10.75-.02 16.12 0 .68 1.72 1.41 4.05 3.56 4.34 2.56.59 4.83-1.12 6.92-2.33 3.79-6.14-4.6-11.25-2.99-17.52 4.37-7.28 13.75-10.63 16.11-19.25 2.23-6.75.45-16.49-7.02-19.13-.63.6-1.26 1.2-1.89 1.81 2.02 2.93 1.39 6.99-1.87 8.68-.13-.47-.4-1.4-.53-1.87 2.62-1.59 1.46-4.49.41-6.61z"/>
        <path d="M50.64 48.72c2.11-2.47 5.47-1.23 7.85.08-2.67.88-4.32 4.63-1.8 6.62.76 1.62 1.92-.58 2.85-.96.32 1.19.72 2.36 1.27 3.47.62-1.56 1.84-3.09 1.2-4.85-1.92-.65-4.55-.51-4.3 2.24-.44-.59-1.33-1.77-1.78-2.36.64-1.07 1.33-2.1 2.07-3.1 2.15-.21 4.27.13 6.25.98 2.11-.72 4.27-1.2 6.51-1.01 1.57 1.74 2.68 3.63.63 5.5-.33-2.3-2.23-3.08-4.22-2.37-.2.5-.59 1.5-.79 2 .89 1.37 1.91 2.67 3.25 3.64-.82 1.94-3.1 1.79-4.8 2.21-.1-1.59-.19-3.17-.28-4.75l-.39 4.78c-1.31-.26-2.61-.56-3.9-.9-.72-.74-1.32-2.18-2.61-1.84-2.6.37-5.22-.06-7.48-1.4-1.31-2.5-1.94-5.9.47-7.98z"/>
        <path d="M70.32 48.78c2.5-1.65 5.64-2.14 8.14-.23 2.32 3.03 1.52 7.46-1.78 9.39-3.07.41-8.67 1.34-7.58-3.82.64.56 1.91 1.68 2.54 2.23 2.65-2.22 1.96-6.34-1.32-7.57zM44.22 52.24c1.19-.36 2.39-.7 3.59-1.02-.11 2.78.89 5.37 2.89 7.31-1.48-.22-2.95-.41-4.43-.59-1.03-1.02-2.04-2.06-3.02-3.12.24-.64.72-1.94.97-2.58z"/>
        <path d="M80.9 51.2c1.38.34 3.38.45 4.01 1.97 1.31 1.98-1 3.43-2.16 4.7-1.49.24-2.99.5-4.47.78 1.84-2.06 2.77-4.69 2.62-7.45z"/>
    </g>
</svg>
