<svg width="128pt" height="128pt" viewBox="0 0 128 128" xmlns="http://www.w3.org/2000/svg">
    <g fill="#fff">
        <path d="M42.46 32.17c.82-4.64 7.72-5.79 10.47-2.26 1.87 1.85 1.47 4.63 1.1 6.97-1.24 1.1-2.53 2.15-3.86 3.15-1.3-.01-2.61-.01-3.91 0-2.92-1.41-4.91-4.6-3.8-7.86m4.24 2.66c.48.2 1.45.62 1.93.83.56-.67 1.12-1.35 1.66-2.04l-2.41-1.61c-.42.93-.81 1.87-1.18 2.82zM78.31 27.92c2.19.12 4.63-.3 6.44 1.26 2.85 2.72 2.49 8.58-1.32 10.28-3.2 1.72-7.64-.02-8.65-3.56-1.3-3.1.85-6.43 3.53-7.98m1.89 4.55c-2.09.33-1.4 3.38.59 2.93 2.3.04 1.24-3.58-.59-2.93zM44.29 70.37c-.84-4.03-1.2-8.26.8-12.03l3.8.92c-.91 3.96-3.4 7.25-4.6 11.11zM49.09 61.19c-.05-1.94 1.84-2.2 3.32-2.54 1.7.43 3.45.57 5.2.57 3.9 3.09 9.76 2.73 13.74-.05 1.76.07 3.54-.07 5.25-.56.55.18 1.67.54 2.22.72 2.27 4.52.62 9.74-1.35 14.05.11-3.64-.46-7.26-1.62-10.71-.93 1.91-2.52 2.87-4.63 2.12-.87.31-2.61.92-3.49 1.23-.4-.54-1.21-1.62-1.61-2.15l.21 1.95h-4.11c.11-.44.34-1.32.45-1.76-.92 1.94-4.19 2.39-4.97.1-.95.7-2.12.84-3.25 1.01-.23-.62-.68-1.88-.91-2.5-2.31 3.02-2.24 7.01-2.32 10.64-1.97-3.73-2.7-7.95-2.13-12.12zM79.89 59.19c.92-.2 2.75-.59 3.67-.78 2.02 3.52 1.92 7.93.55 11.67-.71-3.94-3.69-6.92-4.22-10.89zM54.28 84.45c.45-.59 1.33-1.77 1.78-2.36-1.78 3.93-3.37 8.38-2.06 12.7.38-.71 1.13-2.13 1.5-2.84.69 1.49 1.42 2.97 2.19 4.43l-.06-2.13c2.52.32 5.87-.93 7.35 1.88.03-.48.1-1.45.13-1.93 1.74.06 3.48.11 5.22.16.25.46.74 1.39.99 1.86.58-1.34 1.19-2.67 1.91-3.94.44.61 1.32 1.82 1.76 2.42.6-4.33-.57-8.57-2.19-12.55 3.66 6.52 9.47 12.77 9.28 20.66-.81.73-1.62 1.48-2.43 2.22-1.44.01-2.89-.02-4.33-.07-.64-1.3-1.24-2.62-1.77-3.97-6.12.11-12.23.08-18.35.03-.68 1.37-1.21 2.88-2.36 3.95-2.08.64-4.1-.26-5.9-1.2-1.61-7.26 4.26-13.28 7.34-19.32z"/>
    </g>
</svg>
