<svg width="128pt" height="128pt" viewBox="0 0 128 128" xmlns="http://www.w3.org/2000/svg">
    <g fill="#8c201e">
        <path d="M62.48 16.49c1.92-.09 3.86-.04 5.76.3l-1.22.1c-.08 0-.25 0-.34.01.85 2.51 1.46 5.1 2.27 7.63-2.73.2-5.48.24-8.19-.18.11-2.19.19-4.37.45-6.54l.33-.68.36-.68c-.48 1.76-.11 3.61.69 5.21.55-1.66.82-3.58-.11-5.17zM72.22 57.9c-.32-1.4.22-1.95 1.6-1.66.28 1.38-.25 1.93-1.6 1.66zM93.18 61.86c2.94-1.24 3.89 3.13 3.29 5.22-.36.62-1.07 1.87-1.42 2.49-.33-2-.77-3.98-1.31-5.93-2.91 4.3-4.2 9.35-5.88 14.19-1.08 3.35-4.77 4.44-7.73 5.54-.71-.35-2.14-1.04-2.85-1.39 4.88.22 8.45-3.31 10.48-7.39l-1.32-.13.17-.28c2.71-3.83 2.72-9.24 6.57-12.32z"/>
    </g>
    <path fill="#230808" opacity=".4" d="M54.96 19.92c1.85-1.63 4.15-2.5 6.58-2.79l-.33.68-.19.09c-2.05.6-4.08 1.23-6.06 2.02z"/>
    <path fill="#a1272f" d="M61.9 16.45l.58.04c.93 1.59.66 3.51.11 5.17-.8-1.6-1.17-3.45-.69-5.21z"/>
    <g fill="#de2c2e">
        <path d="M66.68 16.9c.09-.01.26-.01.34-.01 2.69 1.24 5.54 2.33 7.8 4.31 2.45 2.13 4 5.04 5.74 7.73-1.12-.1-2.24-.19-3.35-.29-.91.89-1.82 1.78-2.72 2.67-1.11-2.81-3.36-4.82-5.54-6.78-.81-2.53-1.42-5.12-2.27-7.63zM26.85 74.67c1.1-.31 3.72-.66 3.2 1.37.67 1.72-1.69 1.53-2.58 2.19-.16-.89-.47-2.67-.62-3.56z"/>
    </g>
    <path fill="#e72c34" d="M54.96 19.92c1.98-.79 4.01-1.42 6.06-2.02-1.55 1.34-3.16 2.62-4.84 3.8.27.68.53 1.35.8 2.03.67-.45 1.33-.9 2-1.34.07.66.22 1.98.29 2.64l-1.45.81c-.97.4-1.61 1.09-1.91 2.09-.32.73-.95 2.2-1.27 2.93-.8-1.22-1.6-2.44-2.4-3.67l-1.67 2.39c-.64-.68-1.28-1.35-1.92-2.02.95-1.46 1.93-2.91 2.91-4.35l.65-.05c1.1-.06 1.77-.66 2.03-1.82.18-.35.54-1.06.72-1.42z"/>
    <path fill="#c6292c" d="M61.02 17.9l.19-.09c-.26 2.17-.34 4.35-.45 6.54-.37.17-1.12.51-1.49.68-.07-.66-.22-1.98-.29-2.64-.67.44-1.33.89-2 1.34-.27-.68-.53-1.35-.8-2.03 1.68-1.18 3.29-2.46 4.84-3.8z"/>
    <path fill="#9f1f28" opacity=".91" d="M52.21 23.16c-.24-1.63.43-2.23 2.03-1.82-.26 1.16-.93 1.76-2.03 1.82z"/>
    <path opacity=".29" d="M55.91 27.93c.3-1 .94-1.69 1.91-2.09.46 1.73-.18 2.42-1.91 2.09z"/>
    <path fill="#ac2325" d="M50.57 29.58l1.67-2.39c.8 1.23 1.6 2.45 2.4 3.67-.23.29-.68.85-.9 1.14-.77.73-1.08 1.62-.93 2.66l.02 1.78c-.43-1.42-.9-2.83-1.36-4.24-1.5-.19-3-.39-4.49-.59.54-1.36 1.1-2.71 1.67-4.05.64.67 1.28 1.34 1.92 2.02z"/>
    <g fill="#9c2021">
        <path d="M77.21 28.64c1.11.1 2.23.19 3.35.29 2.05 4.43-1.9 8.21-4.34 11.51-.39-3.08-.94-6.13-1.73-9.13.9-.89 1.81-1.78 2.72-2.67zM50.3 58.93c1.24-1.18 3.17-.01 4.56.34 3.1 1.31 6.19 2.67 9.44 3.62 1.94-.62 3.95-1.11 5.7-2.2.52.46 1.04.93 1.55 1.4l-1.86.17c.48.38 1.42 1.15 1.89 1.54-.04.59-.14 1.78-.18 2.37-4.7-.62-9.45-.9-14.18-.47l.08-2.08c.53-.39 1.57-1.17 2.1-1.57-.76-.28-2.26-.86-3.01-1.15-.07.79-.23 2.37-.31 3.16-.62.93-1.11 1.93-1.46 3-.96-.12-1.92-.22-2.88-.33.08.45.25 1.35.34 1.8l.56 1.71c-.6-.11-1.8-.33-2.41-.44-.6-1.04-1.19-2.09-1.76-3.15.59-1.14 1.15-2.3 1.88-3.36 1.79-.88 3.9-.51 5.82-.83l-.41-.86-.35-.73-.44-.87c-1.89-.17-3.78-.21-5.68-.18l1.01-.89zM72.52 59.62c4.14-2.05 10.85-1.7 12.14 3.65-.32.24-.96.74-1.28.99l-.85-1.34c-2.27-3.3-6.44-3.25-10.01-3.3zM65.4 75.39c.9-1.41 2.76-1.59 4.18-2.21l3.16.12c-.37.86-1.1 2.57-1.46 3.42-1.51-.87-3.1-1.56-4.7-2.25l1.22 1.02c.09 1.46.17 2.91.23 4.37-.78-.02-2.35-.05-3.14-.07.13-1.47.11-2.97.51-4.4z"/>
    </g>
    <g fill="#bd2826">
        <path d="M55.25 38.06c.08-6.05 7.17-10.7 12.69-7.98 6.17 2.33 7.49 11.69 2.09 15.55-.45-.38-1.34-1.14-1.79-1.51l-1.69-1c.92-1.24 1.84-2.48 2.77-3.71-.33-2.63-1.81-4.73-4.16-5.94-2 .68-4.47 1.29-5.2 3.57-1.06 2.14.77 4.06 1.84 5.74-.3 1.01-.91 3.05-1.22 4.06-3.21-1.67-5.67-5.03-5.33-8.78zM26.03 60.01c.63.01 1.9.04 2.53.06-.2.4-.6 1.22-.8 1.62-.44.9-.9 1.79-1.37 2.68 1.11 1.62 2.67 2.67 4.72 2.38l-.13 1.05c-1.93.18-3.86.37-5.79.57l-.15-.83c-.22-1.27-.46-2.54-.72-3.8.51-1.28 1.08-2.52 1.71-3.73z"/>
    </g>
    <path fill="#901c28" d="M46.98 31.61c1.49.2 2.99.4 4.49.59.46 1.41.93 2.82 1.36 4.24 0 .97.01 2.91.02 3.88-1.35-1.36-2.64-2.76-4.02-4.09-.53-1.57-1.2-3.1-1.85-4.62z"/>
    <path fill="#3f0e0e" opacity=".67" d="M52.81 34.66c-.15-1.04.16-1.93.93-2.66 1.05 1.47.74 2.36-.93 2.66z"/>
    <path fill="#6b171c" d="M82.5 30.82c2.35 3.38 1.22 7.48-1.36 10.33l-.2-.09c-.78-.36-2.35-1.07-3.13-1.43 2.06-2.65 3.75-5.57 4.69-8.81z"/>
    <path fill="#75191e" d="M45.63 31.51c1.16 1.51 2.18 3.12 3.2 4.72 1.95 3.27 4.59 6.04 7.1 8.86l-.02.23c-.1.83-.3 2.47-.39 3.3-3.61-3.16-7.34-6.37-9.84-10.52-1.21-2.01-.23-4.46-.05-6.59z"/>
    <g fill="#581310">
        <path d="M40.8 38.04c-.02-2.21 1.57-3.76 3.39-4.74-.16 3.97 1.92 7.32 4.7 9.95l-.06.13c-.34.75-1.02 2.27-1.36 3.03-2.93-1.99-6.86-4.31-6.67-8.37zM21.98 78.6c-1.89-.23-1.78-4.93.14-5.1.04 1.7.11 3.41-.14 5.1z"/>
    </g>
    <g fill="#5a1413">
        <path d="M84.73 33.26c3.47 1.5 4.17 6.31 1.77 9.03-2.1 2.32-4.9 3.81-7.2 5.91-.28-.78-.83-2.33-1.11-3.1l-.03-.09c3.33-3.15 6.75-6.81 6.57-11.75zM106.9 74.46c1.78-.42 1.86 3.53.06 3.16-.36-1.05-.38-2.1-.06-3.16z"/>
    </g>
    <path fill="#7b191c" opacity=".94" d="M33.81 38.67c1.99-.44 4.01-.73 6.03-.98.23.84.68 2.52.91 3.37-2.09.1-4.19.22-6.28.3.5-.61 1.49-1.83 1.99-2.44-.66-.06-1.99-.19-2.65-.25z"/>
    <g fill="#aa2429">
        <path d="M90.7 39.62c-.87-.59-1.73-1.18-2.57-1.82 3.6-.35 7.05.65 10.06 2.57-.78.39-2.32 1.16-3.09 1.54l-.21.11c-2.31-.77-5-.6-7.04-2.03.71-.09 2.14-.28 2.85-.37zM43.07 51.31c.09-2.08 1.13-3.75 2.53-5.18 1.34 1.07 2.7 2.14 4.02 3.25-.67 1.1-1.35 2.21-2.04 3.31-.56-.36-1.69-1.07-2.26-1.42l.32-2.31c-.65.58-1.93 1.76-2.57 2.35zM72.63 85.67c1.53-.43 3.06-.85 4.59-1.3-.79 2.04-1.62 4.07-2.5 6.07-.71-1.58-1.42-3.17-2.09-4.77zM37.21 96.86c-1.32-3.75 3.77-7.17 6.92-5.12 1.68 1.09 1.87 3.43 1.34 5.18-1.48 2.22-6.31.52-3.74-2.2l2.2-.56c-.64-.23-1.28-.46-1.93-.7-1.39 1.21-2.74 3.68-.49 4.8 2.52 1.67 4.25-1.44 6.41-2.02l.02.39c-.23.64-.68 1.92-.91 2.57.29 1.09.59 2.18.89 3.28-4.44 1.42-9.7-.84-10.71-5.62z"/>
    </g>
    <g fill="#bd2831">
        <path d="M27.69 44.01c1.77-2.05 3.49-4.36 6.12-5.34.66.06 1.99.19 2.65.25-.5.61-1.49 1.83-1.99 2.44l-.85.92c.56.31 1.12.61 1.68.91l-.28 1.74c-.27.54-.82 1.62-1.1 2.16-.59-.41-1.76-1.24-2.34-1.65.72-.93 1.4-1.89 2.04-2.87-.62.39-1.86 1.16-2.48 1.54-.86-.02-2.58-.08-3.45-.1zM50.59 51.15c2.03-1.18 2.52 3.48.68 3.74-1.38-.57-1.55-2.67-.68-3.74zM95.7 56.99c.52-.24 1.57-.72 2.1-.96 0 .44.02 1.33.03 1.77 3.37-1.3 6.93.11 8.66 3.22-.28.49-.83 1.47-1.11 1.97-1.19-4.01-5.54-4.04-8.88-4.95l2.17 1.65c-.56.37-1.67 1.12-2.22 1.5l.01-.18c-.09-1.37-.34-2.71-.76-4.02zM72.98 63.15c1.97-.57 4.92-1.21 6.11 1.02 1.67 2.66.28 6.25-3.07 6.42.22-.78.66-2.33.87-3.1.15-1.48-1.52-.65-2.38-.76-.4.81-1.19 2.44-1.59 3.25-.14-2.27-.29-4.57.06-6.83zM56.6 87.63c.58 1.09 1.14 2.17 1.72 3.26-1.48.17-2.47 1.73-2.23 3.14-.56 0-1.7.01-2.27.01.95-2.13 1.88-4.27 2.78-6.41z"/>
    </g>
    <path fill="#8f2025" d="M77.81 39.63c.78.36 2.35 1.07 3.13 1.43-4.48 4.95-10.23 9.12-12.51 15.67l-.37-.61c-.27-1.32-.34-2.65-.2-3.98 2.61-4.7 6.36-8.57 9.95-12.51z"/>
    <path fill="#ea3039" d="M95.1 41.91c.77-.38 2.31-1.15 3.09-1.54.26.35.8 1.06 1.07 1.41 1.23 2.37 2.06 4.93 2.66 7.53l.2.89c-1.19.38-1.59 1.18-1.18 2.39l.3 1.22c-1.1 1.36-2.23 2.7-3.41 3.99-.01-.44-.03-1.33-.03-1.77-.53.24-1.58.72-2.1.96.81-2.44 2.71-4.38 3.25-6.93.57-3.24-1.84-5.93-3.85-8.15z"/>
    <path fill="#6e1516" d="M35.47 41.87c1.72-.05 3.44-.11 5.16-.17 1.45 1.33 2.94 2.6 4.46 3.85-.49.67-1.47 2-1.96 2.67-1.2-1.33-2.42-2.64-3.68-3.91l.35 1.82c-.77-.05-2.3-.16-3.07-.22-.43-.25-1.28-.74-1.71-.98l.28-1.74.17-1.32z"/>
    <path fill="#791c22" d="M87.47 41.54c3.35.1 7.3.14 9.38 3.28-.26.77-.79 2.31-1.05 3.09l-.44.01c-1.35-3.01-4.47-3.82-7.45-3.02-.08-.59-.24-1.76-.31-2.34l-.13-1.02z"/>
    <path fill="#4c1013" opacity=".6" d="M99.26 41.78c1.97 2.01 2.99 4.69 2.66 7.53-.6-2.6-1.43-5.16-2.66-7.53z"/>
    <path fill="#811b16" d="M63 42.88l2.98-.04c.91 1.97 3.03 3.68 2.82 5.99-2.74 1.61-6.13.53-9.13.48 1.08-2.16 2.2-4.3 3.33-6.43z"/>
    <path fill="#521316" d="M83.91 45.23c1.22-.9 2.45-1.79 3.69-2.67.07.58.23 1.75.31 2.34l.11.85c-.79.83-1.63 1.59-2.54 2.29l-.43.32c-.38-1.05-.76-2.09-1.14-3.13z"/>
    <path fill="#d82f37" d="M27.69 44.01c.87.02 2.59.08 3.45.1-.46 1.58-.91 3.16-1.34 4.74l-1.73.12c.55.06 1.11.13 1.66.2-.07 4.19 6.6 8.06 1.3 11.68l.57-2.46c-1.42-1.29-2.81-2.64-3.89-4.23-.88-3.11-.82-6.39-.13-9.53l.11-.62z"/>
    <path fill="#6f161e" d="M47.47 46.41c.34-.76 1.02-2.28 1.36-3.03 4.72 4.26 10.07 8.74 11.19 15.39l-1.97-.18c-1.86-5.22-6.67-8.5-10.66-12l.08-.18z"/>
    <path fill="#ff3439" d="M68.24 44.12c.45.37 1.34 1.13 1.79 1.51-.57 1.9-3.27-.43-1.79-1.51z"/>
    <path fill="#220809" opacity=".37" d="M27.71 54.16c-1.85-2.86-1.74-6.59-.13-9.53-.69 3.14-.75 6.42.13 9.53z"/>
    <path fill="#521213" d="M96.85 44.82c2.78 3.33 1.28 7.95-1.83 10.49-1.17-2.55-.11-5.01.78-7.4.26-.78.79-2.32 1.05-3.09z"/>
    <path fill="#4c1111" opacity=".98" d="M30.83 51.1c-.57-1.92.1-3.86.75-5.66.58.41 1.75 1.24 2.34 1.65-.2 2.27.99 4.65-.1 6.78-1.85.99-2.54-1.47-2.99-2.77z"/>
    <g fill="#ff3431">
        <path d="M36.53 45.98c.05-.01.15-.05.2-.07-.05.02-.15.06-.2.07zM39.8 46.13c.04.01.11.02.15.03-.04-.01-.11-.02-.15-.03z"/>
    </g>
    <path fill="#9e2224" d="M36.73 45.91c.77.06 2.3.17 3.07.22.04.01.11.02.15.03 1.24.92 2.35 1.99 3.34 3.2-3.02.31-6.03.73-8.89 1.77.12-1.82-.56-4.84 2.13-5.15.05-.01.15-.05.2-.07z"/>
    <path fill="#932125" d="M55.91 45.32c3.61 2.88 5.86 7.21 5.13 11.92-1.65-2.99-3.47-5.88-5.52-8.62.09-.83.29-2.47.39-3.3z"/>
    <path fill="#6e1a1c" opacity=".97" d="M69.3 60.08c-.78-6.53 4.61-11.02 8.89-14.98.28.77.83 2.32 1.11 3.1l-.52.59c-3.83 3.18-6.91 7.05-9.48 11.29z"/>
    <path fill="#a52429" d="M86.35 49.86c.61-2.42 2.6-5.71 5.55-4.36 2.63.77 2.57 3.68 2.33 5.87-2.42-1.37-5.12-1.96-7.88-1.51z"/>
    <path fill="#a22023" d="M83.24 48.72c-1.14-.69-1.36-1.31-.66-1.88.58.41 1.73 1.21 2.31 1.62l.16-.1.43-.32c.12.67.35 2 .47 2.67 2.39-.13 5.35-.89 7.17 1.19 1.26 1.84 1.75 4.08 2.43 6.17-3.19-.29-7.09-1.62-9.54 1.26-.72.19-1.44.37-2.16.56-2.36-1.68-5.12-2.54-8.05-2.23 3.16-2.48 6.49-4.76 10.17-6.41-.48-.45-1.45-1.34-1.93-1.79-.2-.18-.6-.55-.8-.74z"/>
    <path fill="#8a1d22" opacity=".89" d="M78.78 48.79c1.02.15 2.03.26 3.04.35.35-.1 1.07-.31 1.42-.42.2.19.6.56.8.74-.45 1.41-1.18 2.68-2.21 3.81-1.02-1.49-2.06-2.97-3.05-4.48z"/>
    <path fill="#64191c" d="M61.25 50.48c1.84-.78 4.01-.36 5.97-.26 1.68.83-1.57 1.32-2.1 1.1-1.07-.27-3.57.6-3.87-.84z"/>
    <path fill="#601418" opacity=".71" d="M100.94 52.59c-.41-1.21-.01-2.01 1.18-2.39.68 1.41.29 2.21-1.18 2.39z"/>
    <path fill="#a72023" d="M35.48 51.42c6.55-3.07 12.36 2.77 17.47 6.14-2.06.21-4.17.41-6.04 1.36-.67.29-1.34.58-2 .87-3.16-1.99-6.56-3.57-10.12-4.7.02-1.23.24-2.45.69-3.67z"/>
    <path fill="#a4262c" opacity=".9" d="M78.04 53.91c-1.08-.43-1.32-2.78.07-2.91 1.18.36 1.34 2.8-.07 2.91z"/>
    <path fill="#611615" d="M62.3 52.18c1.12-.67 4.03-1.12 4.41.41-1.15.55-3.96 1.01-4.41-.41z"/>
    <path fill="#521212" d="M61.56 53.3c1.86 0 3.73 0 5.6-.01.04.75.13 2.27.18 3.03-1.95 0-3.89.01-5.84.06.02-.77.04-2.31.06-3.08z"/>
    <path fill="#7e181e" d="M34.17 55.06l.62.03c3.56 1.13 6.96 2.71 10.12 4.7-.74 1.65-1.44 3.32-2.02 5.03-1.33-.19-2.66-.36-3.99-.51-1.85-2.8-6.7-5.54-4.73-9.25z"/>
    <path fill="#882223" opacity=".87" d="M56.24 57.08c.51.46.51.46 0 0z"/>
    <path fill="#350d10" opacity=".88" d="M59.1 60.13c.84-1.16 1.68-2.33 2.49-3.52.45.68 1.33 2.02 1.77 2.69 1.31-.49 2.62-.98 3.91-1.52l1.83 2.39c-3.13 2.27-6.75 1.37-10-.04z"/>
    <path fill="#49151a" d="M61.59 56.61c1.86.03 3.84-.35 5.55.61l.13.56c-1.29.54-2.6 1.03-3.91 1.52-.44-.67-1.32-2.01-1.77-2.69z"/>
    <path fill="#7b1c21" d="M86.01 59.33c2.45-2.88 6.35-1.55 9.54-1.26-2.81 2.82-5.07 6.7-9.42 7.07-.54-1.85-1.33-3.59-2.28-5.25.72-.19 1.44-.37 2.16-.56z"/>
    <g fill="#de2c39">
        <path d="M22.36 61.01c1.72-2.24 4.78-5.22 7.7-3.06.67 1.9 1.16 3.86 1.75 5.79-1.31-.76-2.6-1.56-4.05-2.05.2-.4.6-1.22.8-1.62l1.33.05-.17-1.38c-2.7.22-5.04 1.4-6.12 3.99l-1.24-1.72zM48.72 77.97c1.48-.93 2.97-1.85 4.48-2.72.09 1.08.18 2.16.26 3.24.49-.14 1.47-.43 1.96-.57-.93 1.01-1.84 2.04-2.75 3.07-1.12 0-2.24.01-3.36.02-.39-.07-1.16-.2-1.55-.27-1.15-.87-2.28-1.76-3.41-2.66 1.46-.04 2.91-.08 4.37-.11zM67.8 75.49c2.66 1.43 4.99 3.39 6.89 5.74-.79-.16-2.38-.5-3.17-.66-.07-.16-.21-.47-.29-.62-.8-.02-2.4-.07-3.2-.09-.06-1.46-.14-2.91-.23-4.37zM71.61 87.62c.48.93.97 1.86 1.45 2.79-1.09 1.12-2.17 2.26-3.3 3.34-.19 0-.56.01-.74.01.85-2.05 1.72-4.1 2.59-6.14z"/>
    </g>
    <g fill="#ef3039">
        <path d="M46.91 58.92c.85 0 2.54.01 3.39.01l-1.01.89c-1.74 1.47-3.17 3.24-4.44 5.12 2.87-2.8 6.32-5.24 10.56-4.07l.35.73c-2.39.36-5.68-.41-7.16 2.09-1.81 2.3-.36 5.14.41 7.54l-.92.27-.35-.01c-.32-.64-.94-1.93-1.25-2.57-1.22-.41-3.36-1.17-2.74-2.9.04-2.73 1.67-4.96 3.16-7.1m-1.74 6.71c-1.57 3.08 3.26.26 0 0zM96.88 75.51c1.78-.17 3.57-.38 5.37-.45-.55 1.17-1.19 2.3-1.81 3.43-.68-.69-2.03-2.08-2.7-2.77l-.1 1.68-1.19 1.48-.34-.99c.25-.79.5-1.59.77-2.38zM61.27 110.26c3.01-2.64 5.93-5.39 8.92-8.06l-.14 2.05c-.11 1.12-.11 2.24-.01 3.37l.02 1.11c-.31.3-.92.89-1.22 1.19-1 .55-2.31 1-2.62 2.24-.81-.04-2.43-.13-3.24-.17-.43-.44-1.28-1.3-1.71-1.73z"/>
    </g>
    <path fill="#851e23" opacity=".86" d="M32.13 60.25c.55.57.55.57 0 0z"/>
    <path fill="#a72327" d="M96.65 63.65c.66-1.74 1.94-4.64 4.36-3.84 2.15-.11 3.67 2.08 3.22 4.13.02.41.05 1.24.06 1.65-.04.64-.11 1.92-.15 2.57-1.86-.18-3.72-.33-5.56-.62l-.83-.72c1.35-.22 2.7-.47 4.05-.73-.46-1.16.13-2.97-.92-3.8-1.06.34-3.18 1.02-4.23 1.36z"/>
    <path fill="#5f1618" opacity=".73" d="M25.04 67.54c-3.4-.26-3.24-4.06-2.68-6.53l1.24 1.72.72 1.01c.26 1.26.5 2.53.72 3.8z"/>
    <path fill="#af2d2f" opacity=".91" d="M73.56 61.98c-.04-.28-.13-.84-.18-1.11 1.72-.3 3.59-.37 5.25.2l-.05.28c-1.49.82-3.36.64-5.02.63z"/>
    <g fill="#631416">
        <path d="M106.49 61.02c.32 2.22.08 4.45-.65 6.58-.38-.51-1.16-1.51-1.55-2.01-.01-.41-.04-1.24-.06-1.65l1.15-.95c.28-.5.83-1.48 1.11-1.97zM57.22 65.7c4.73-.43 9.48-.15 14.18.47l-.39 3.77c-1.08.37-2.15.72-3.23 1.06-3.53.44-7.08-.01-10.56-.62-.01-1.56-.01-3.12 0-4.68z"/>
    </g>
    <path fill="#5a1618" opacity=".94" d="M34.06 77.79c-2.8-4.96-3.23-11.26-.59-16.39.37.56 1.12 1.68 1.5 2.24-1.21 4.59-.96 9.83 1.72 13.86 2.75 3.19 6.74 5.13 9.13 8.67 1.17 1.88 1.73 4.05 2.56 6.08-.65-.26-1.95-.78-2.59-1.04-1.92-6.03-7.98-8.79-11.73-13.42z"/>
    <path fill="#a72024" d="M33.47 61.4c1.5.42 3.22.8 3.94 2.38 2.06 3.25 3.35 7.02 3.67 10.85.39-.63.78-1.27 1.16-1.91-.67-1.5-1.32-2.99-1.96-4.49.59-.22 1.79-.64 2.38-.85 1.14 1.44 2.38 2.8 3.58 4.2.97 1.51 1.74 3.13 2.56 4.73-2.23.89-4.85.98-6.18-1.47-.16.12-.48.36-.64.47-.39.22-1.17.65-1.56.86l-.08.03c-1.03-4.46-2.64-8.84-5.37-12.56-.38-.56-1.13-1.68-1.5-2.24z"/>
    <path fill="#e23539" d="M78.58 61.35c1.32.5 2.64 1.03 3.95 1.57-.14.4-.42 1.22-.56 1.63.05.75.15 2.24.19 2.99-.11.68-.34 2.03-.46 2.71l-2.08 1.28c2.13-3.41 1.31-7.21-1.04-10.18z"/>
    <path fill="#d12f31" d="M27.61 64.19c.36-1.41 2.14-.35 2.96-.01.84 2-3.13 1.98-2.96.01z"/>
    <path opacity=".36" d="M82.53 62.92l.85 1.34c-.35.07-1.06.22-1.41.29.14-.41.42-1.23.56-1.63z"/>
    <path fill="#761c1e" opacity=".81" d="M84.66 63.27l.5-.4c-.07.54-.22 1.64-.29 2.19-1.33.71-1.27 1.3.17 1.76-.4 1.3-1.12 2.42-2.16 3.36l-.72-2.64c-.04-.75-.14-2.24-.19-2.99.35-.07 1.06-.22 1.41-.29.32-.25.96-.75 1.28-.99z"/>
    <path fill="#c32b2e" d="M97.83 64.05c.59-1.36 3.6-1.23 3.04.64-.36 1.78-3.26.97-3.04-.64z"/>
    <path fill="#e73133" d="M54.62 67.06c.35-1.07.84-2.07 1.46-3 .1 1.73.4 3.57-.3 5.23-.29-.56-.87-1.68-1.16-2.23z"/>
    <path fill="#340b0c" opacity=".69" d="M71.58 63.8c.22 2.22.39 4.44.57 6.67 1.62-.94 3.17-1.97 4.74-2.98-.21.77-.65 2.32-.87 3.1l-.17.59-2.96-.36c.38.63 1.12 1.9 1.49 2.54-.41-.02-1.23-.05-1.64-.06l-3.16-.12c.33-.6 1-1.81 1.34-2.42l-3.14.24c1.08-.34 2.15-.69 3.23-1.06l.39-3.77c.04-.59.14-1.78.18-2.37z"/>
    <path fill="#ac2529" opacity=".92" d="M39.7 66.56c.79-1.35 1.62-1.31 2.48.1-.84.84-1.67.8-2.48-.1z"/>
    <path fill="#190a08" opacity=".52" d="M45.17 65.63c3.26.26-1.57 3.08 0 0z"/>
    <g fill="#d63039">
        <path d="M85.04 66.82c-1.44-.46-1.5-1.05-.17-1.76.04.44.13 1.32.17 1.76zM22.12 73.5c.42-4.09 5.35-4.92 8.72-4.86.07.56.19 1.66.25 2.22-2.5-.4-5.73-.48-7.12 2.12-2.37 3.09-.24 7.9 3.48 8.61 2.83.76 4.97-1.68 7.19-2.94-.16 2.51-2.47 4.6-5.01 4.31-.59.03-1.78.08-2.37.11-2.35.3-3.81-1.99-5.42-3.28l.14-1.19c.25-1.69.18-3.4.14-5.1zM98.04 68.94c1.9.21 3.8.39 5.68.78 1.61.53 2.39 2.19 3.5 3.35l-.32 1.39c-.32 1.06-.3 2.11.06 3.16l.35 1.38c-1.42 1.83-2.99 3.65-5.2 4.53-2.34-.19-4.59-.88-6.76-1.73-.16-.65-.47-1.93-.63-2.57 1.96 1.24 3.99 2.36 6.07 3.38.11-.48.33-1.44.45-1.92-1.62-.55-3.24-1.1-4.79-1.81l1.19-1.48c.64.62 1.91 1.86 2.55 2.48 1.76-1.36 3.08-3.12 3.85-5.21-2.18-1.11-4.57-1.51-7-1.37 1.48-.72 3.01-2.47 4.77-1.41 1.37.95 2.49 2.2 3.68 3.37-.92 1.95-2.02 3.85-3.94 4.98.63.43 1.26.85 1.9 1.28 1.59-2.21 3.76-5.22 1.9-7.94-1.22-2.94-4.58-3.23-7.34-3.3.01-.33.02-1.01.03-1.34zM72.74 73.3c3.6 2.56 7.5 4.87 12.03 5.16-2.59 1.51-5.53 3.48-8.67 2.55-1.88-1.09-3.25-2.83-4.82-4.29.36-.85 1.09-2.56 1.46-3.42z"/>
    </g>
    <path fill="#ba292f" d="M84.04 70.64c1.4-2.16 2.53-5.2 5.45-5.54-1.17 2.96-2.18 5.97-2.88 9.08l-.17.28c-.3.46-.88 1.37-1.17 1.82-.35-1.89-.77-3.77-1.23-5.64z"/>
    <path fill="#2a090a" opacity=".57" d="M97.01 66.16c.19.16.56.49.74.66l.83.72c1.84.29 3.7.44 5.56.62-.11.39-.32 1.17-.42 1.56-1.88-.39-3.78-.57-5.68-.78-.01.33-.02 1.01-.03 1.34 2.76.07 6.12.36 7.34 3.3 1.86 2.72-.31 5.73-1.9 7.94-.64-.43-1.27-.85-1.9-1.28 1.92-1.13 3.02-3.03 3.94-4.98-1.19-1.17-2.31-2.42-3.68-3.37-1.76-1.06-3.29.69-4.77 1.41 2.43-.14 4.82.26 7 1.37-.77 2.09-2.09 3.85-3.85 5.21-.64-.62-1.91-1.86-2.55-2.48l.1-1.68c.67.69 2.02 2.08 2.7 2.77.62-1.13 1.26-2.26 1.81-3.43-1.8.07-3.59.28-5.37.45-.27.79-.52 1.59-.77 2.38l.34.99c1.55.71 3.17 1.26 4.79 1.81-.12.48-.34 1.44-.45 1.92-2.08-1.02-4.11-2.14-6.07-3.38.16.64.47 1.92.63 2.57 2.17.85 4.42 1.54 6.76 1.73-2.29.04-4.8.41-6.83-.92-.59-.31-1.78-.93-2.38-1.23-2.41 1.44-4.23 3.63-6.15 5.65-.64 0-1.93.01-2.57.02 3.48-3.48 7.98-6.02 10.7-10.2 1.51-2.12.8-4.69.15-6.97 0-.08.01-.23.02-.31.35-.62 1.06-1.87 1.42-2.49.13-.23.4-.69.54-.92z"/>
    <path fill="#681719" opacity=".75" d="M52.08 68.53c2.17-2.06 3.41 2.68.56 1.71l-.56-1.71z"/>
    <g fill="#8f1b1b">
        <path d="M46.24 71.58l1.5-.09.35.01c1.55.08 3.07-.28 4.56-.64.84.55 1.68 1.09 2.53 1.64-2.19 1.16-4.24 2.55-6.38 3.81-.82-1.6-1.59-3.22-2.56-4.73zM69.76 93.75c1.13-1.08 2.21-2.22 3.3-3.34.41.82 1.23 2.46 1.65 3.28-1.65.02-3.3.05-4.95.06z"/>
    </g>
    <path fill="#4b1014" opacity=".85" d="M52.65 70.86c3.85-1.88 6.77 2.03 10.03 3.42-1.06.34-2.1.71-3.15 1.09-.94-.65-1.9-1.29-2.86-1.93-.37-.23-1.12-.71-1.49-.94-.85-.55-1.69-1.09-2.53-1.64z"/>
    <g fill="#941c1e">
        <path d="M72.89 70.82l2.96.36c2.75.6 5.58.66 8.19-.54.46 1.87.88 3.75 1.23 5.64-.24.36-.71 1.06-.94 1.41-3.64-.64-6.73-2.68-9.95-4.33-.37-.64-1.11-1.91-1.49-2.54zM51.04 84.36c1.68.26 3.39.38 5.09.51-.83 1.82-1.59 3.68-2.38 5.52-.9-2.01-1.74-4.05-2.71-6.03z"/>
    </g>
    <g fill="#7b181b">
        <path d="M95.03 69.88c.65 2.28 1.36 4.85-.15 6.97-2.72 4.18-7.22 6.72-10.7 10.2.64-.01 1.93-.02 2.57-.02 1.92-2.02 3.74-4.21 6.15-5.65.6.3 1.79.92 2.38 1.23-2.78 1.96-4.93 4.62-6.17 7.8-.87-.02-2.61-.05-3.48-.07-.48-.99-.96-1.98-1.47-2.95-.19.76-.56 2.26-.74 3.01-.65.32-1.95.94-2.6 1.25.91-2.27 1.5-4.79 3.22-6.63 2.46-2.87 5.88-4.74 8.33-7.62 1.45-2.26 1.92-4.98 2.66-7.52zM58.32 90.89c.22.62.68 1.85.9 2.47-.95.58-1.99.81-3.13.67-.24-1.41.75-2.97 2.23-3.14z"/>
    </g>
    <path fill="#af2828" opacity=".98" d="M24.48 78.52c-2.94-3.74 2.72-9.49 6.46-6.53 1 1.92 1.47 4.07 2.24 6.09-1.91 3.07-6.68 3.82-8.7.44m2.44-4.65c-.84 1.18-.52 2.77-.8 4.13 1.55.48 3.17.62 4.72.06l-.15-4.17c-1.25-.12-2.55-.51-3.77-.02z"/>
    <path fill="#170506" opacity=".46" d="M48.8 76.31c2.14-1.26 4.19-2.65 6.38-3.81.37.23 1.12.71 1.49.94-1.16.6-2.32 1.19-3.47 1.81-1.51.87-3 1.79-4.48 2.72-1.46.03-2.91.07-4.37.11 1.13.9 2.26 1.79 3.41 2.66-2.38-.2-4.1-1.98-5.85-3.4.02-.51.05-1.52.07-2.03.16-.11.48-.35.64-.47 1.33 2.45 3.95 2.36 6.18 1.47z"/>
    <path fill="#c02a2f" d="M53.2 75.25c1.15-.62 2.31-1.21 3.47-1.81.96.64 1.92 1.28 2.86 1.93-1.41.77-2.76 1.66-4.11 2.55-.49.14-1.47.43-1.96.57-.08-1.08-.17-2.16-.26-3.24z"/>
    <path fill="#1e0707" opacity=".51" d="M62.68 74.28c1.55 1.41 1.49 3.61 1.93 5.5l.28.01c.79.02 2.36.05 3.14.07.8.02 2.4.07 3.2.09l.24 1.39c-4.55-.14-9.11-.15-13.66.05l.28-1.59c1.94-.05 3.88-.14 5.81-.26-.25-.85-.75-2.57-1.01-3.42-3.21-1.1-5.71 2.4-8.09 4.09 1 .59 2 1.19 2.99 1.81-1.24.07-3.72.19-4.96.26-.33-.04-.98-.11-1.3-.14-1.09-.12-3.28-.37-4.37-.49l2.15-.64c1.12-.01 2.24-.02 3.36-.02.91-1.03 1.82-2.06 2.75-3.07 1.35-.89 2.7-1.78 4.11-2.55 1.05-.38 2.09-.75 3.15-1.09z"/>
    <path fill="#761a1c" opacity=".91" d="M40.42 76.17c.39-.21 1.17-.64 1.56-.86-.02.51-.05 1.52-.07 2.03 1.75 1.42 3.47 3.2 5.85 3.4.39.07 1.16.2 1.55.27l-2.15.64c1.09.12 3.28.37 4.37.49-.37.46-1.09 1.39-1.46 1.85-3.99-1.37-8.88-2.98-9.65-7.82z"/>
    <path fill="#a72429" d="M54.8 80.21c2.38-1.69 4.88-5.19 8.09-4.09.26.85.76 2.57 1.01 3.42-1.93.12-3.87.21-5.81.26l-.28 1.59c4.55-.2 9.11-.19 13.66-.05l-.24-1.39c.08.15.22.46.29.62l.51 1.15c.68.04 2.03.14 2.71.19-.78.29-2.34.88-3.13 1.17-1.06-.19-2.13-.4-3.19-.61-5.18-2.11-10.45 1.61-15.59-.19 1.24-.07 3.72-.19 4.96-.26-.99-.62-1.99-1.22-2.99-1.81z"/>
    <path fill="#5b151b" d="M34.96 80.1c3.88 2.95 7.72 6.13 10.18 10.42-1.8-.08-3.6-.14-5.41-.17-1.18-3.24-3.53-5.72-6.22-7.77.36-.62 1.09-1.86 1.45-2.48z"/>
    <path fill="#2b0a09" opacity=".6" d="M51.53 82.14c.32.03.97.1 1.3.14 5.14 1.8 10.41-1.92 15.59.19-4.12.17-8.91-.48-12.29 2.4-1.7-.13-3.41-.25-5.09-.51l-.97-.37c.37-.46 1.09-1.39 1.46-1.85z"/>
    <path fill="#3e0e0d" opacity=".75" d="M74.74 81.91c.85.04 1.69.06 2.54.07.71.35 2.14 1.04 2.85 1.39-.97.34-1.94.68-2.91 1-1.53.45-3.06.87-4.59 1.3-.35-.86-.69-1.72-1.02-2.59.79-.29 2.35-.88 3.13-1.17z"/>
    <path fill="#360c0c" opacity=".56" d="M27.26 83.07c.59-.03 1.78-.08 2.37-.11.83 1.81-3 1.98-2.37.11z"/>
    <path fill="#8f1d1b" d="M80.82 91.65c.65-.31 1.95-.93 2.6-1.25-.42 2.98-2.73 4.87-4.71 6.85 1-.52 1.99-1.06 2.98-1.61.74 1.01 1.49 2.03 2.24 3.04 0 1.14.01 3.4.01 4.53-3.5-.9-6.47-2.95-9.44-4.92 1.48-.28 2.95-.6 4.42-.96-6.84.79-13.57-2.68-20.33-.51-4.74 1.61-11.59-.2-12.8-5.61.64.26 1.94.78 2.59 1.04 1.1.61 2.18 1.25 3.33 1.76 3.28 1.76 6.99.67 10.45.24 4.99-.81 10.03 1.9 14.94.06 1.27-.84 2.5-1.75 3.72-2.66z"/>
    <path fill="#ba272d" d="M83.78 91.84c2.64-1.02 5.46-.85 7.34 1.49-.25 1.42-.15 2.87-.06 4.3-.35 3.38-4.22 4.83-7.12 5.58 0-1.13-.01-3.39-.01-4.53 1.54-.22 4.19.32 4.56-1.79.65-1.58-.98-2.54-1.93-3.47-.38.19-1.14.58-1.53.78 2.4-.75 4.27 3.71 1.16 3.54-3.89 1.02-3.06-3.71-2.41-5.9z"/>
    <path fill="#150405" opacity=".47" d="M59.22 93.36c3.26.24 6.53.36 9.8.4.18 0 .55-.01.74-.01 1.65-.01 3.3-.04 4.95-.06.79.2 1.59.41 2.39.62-4.91 1.84-9.95-.87-14.94-.06-3.46.43-7.17 1.52-10.45-.24.53.01 1.58.02 2.11.03.57 0 1.71-.01 2.27-.01 1.14.14 2.18-.09 3.13-.67z"/>
    <path fill="#480e0e" opacity=".68" d="M91.12 93.33c1.78.17 1.87 4.35-.06 4.3-.09-1.43-.19-2.88.06-4.3z"/>
    <path fill="#6e191d" d="M47.94 96.63c2.21.5 4.4 1.08 6.6 1.62-2.22 1.39-4.44 2.78-6.62 4.23-.3-1.1-.6-2.19-.89-3.28.23-.65.68-1.93.91-2.57z"/>
    <path fill="#601416" opacity=".96" d="M61.2 96.91c2.86-.25 5.77-.13 8.5.83-2.29.49-4.51 1.2-6.73 1.93l-1.16-1.8-.61-.96z"/>
    <path fill="#a52329" d="M56.46 98.89c1.62-.6 3.25-1.17 4.88-1.73l.47.71 1.16 1.8c2.22-.73 4.44-1.44 6.73-1.93 5.71.33 9.13 6.91 15.22 6.15.53 1.09 1.07 2.18 1.62 3.26-2.56-.2-5.14-.25-7.63-.92-3.09-2.29-6.45-4.2-10.1-5.43-.3.03-.9.07-1.2.1-3.86.46-7.54-.85-11.15-2.01z"/>
    <path fill="#c8272c" d="M46.07 103.93c3.59-1.22 6.61-3.64 10.07-5.14l.32.1c3.61 1.16 7.29 2.47 11.15 2.01.87.4 1.73.84 2.58 1.3-2.99 2.67-5.91 5.42-8.92 8.06.43.43 1.28 1.29 1.71 1.73-2.98-.61-4.49-3.29-5.4-5.94.72-1.52.98-3.42 2.57-4.34-.39-.31-.79-.62-1.18-.91-3.81 1.83-7.27 4.29-11.07 6.11-4.42 1.73-8.74-1.53-10.07-5.69 2.47 1.38 5.17 4 8.24 2.71z"/>
    <path fill="#501113" opacity=".9" d="M84.92 103.89c2-1.05 4.04-2.04 6.11-2.97-.7 2.61-2.42 4.65-4.42 6.36l-.07-.13c-.55-1.08-1.09-2.17-1.62-3.26z"/>
    <path fill="#6d161a" opacity=".69" d="M70.05 104.25c1.85-.36 1.83 3.82-.01 3.37-.1-1.13-.1-2.25.01-3.37z"/>
    <path fill="#0f0304" opacity=".32" d="M78.91 106.23c2.49.67 5.07.72 7.63.92l.07.13.23.42c-2.71.06-5.75.52-7.93-1.47z"/>
    <path fill="#441011" opacity=".52" d="M66.22 112.16c.31-1.24 1.62-1.69 2.62-2.24.92 1.4-1.37 3.33-2.62 2.24z"/>
</svg>
