<svg width="128pt" height="128pt" viewBox="0 0 128 128" xmlns="http://www.w3.org/2000/svg">
    <g fill="#fff">
        <path d="M61.16 16.78c.79-.06 1.58-.11 2.37-.14-.7 2.56 1.16 6.58-1.27 8.12-2.37-1.67-.59-5.43-1.1-7.98z"/>
        <path d="M63.66 25.12c.28-3.15-.93-6.95 1.35-9.54.31 2.86.24 5.75.48 8.61.19-2.46.03-4.94.14-7.41.57.04 1.72.11 2.29.15.16 2.4.07 4.8.08 7.2-1.45.33-2.9.64-4.34.99zM45.53 37.43c-1.22-2.1.05-4.47.59-6.58 2.17 7.37 8.37 12.37 13.01 18.15 1.63 2.2 1.95 4.99 2.22 7.62l-.94.03c-2.4-8.21-11.13-11.88-14.88-19.22zM82.69 30.82c.72 2.51 1.73 5.35.04 7.73-4.11 5.88-10.41 9.89-13.94 16.25.33.73.66 1.45 1.01 2.16.45-4.39 3.99-7.33 6.91-10.23 2.7-2.43 5.05-5.19 7.24-8.08.37-1.71.62-3.45.87-5.18 2.95 1.41 3.95 5.59 2 8.19-2.04 2.29-4.45 4.27-7.19 5.67 1.11.6 2.31 1.06 3.32 1.83.7 1.56-.18 2.74-1.32 3.76-.55-1.8-2.11-2.87-3.38-4.12-2.96 3.29-6.85 6.11-8.01 10.64-1.91.76-3.84 1.47-5.74 2.24-1.45-.55-2.93-1.05-4.4-1.54.3-.83.89-2.48 1.19-3.31 2.46.34 6.68-1.5 6.78 2.46.21-.13.64-.39.86-.52.04-1.04-.26-1.98-.9-2.84-.81-3.86 1.49-7.24 4.17-9.76 3.89-4.8 8.88-9.14 10.49-15.35z"/>
        <path d="M41.13 39.92c-.7-2.51.48-5.31 2.88-6.41-.24 3.97 2.13 7.32 4.88 9.92l.17.57.9.01.06.7c.3.26.91.77 1.21 1.03 1.01 1 2.01 2.01 3.04 2.99 2.96 2.91 5.44 6.62 5.3 10.95-2.48-3.96-5.59-7.44-8.82-10.85-1.91 1.15-2.98 3.04-3.89 5.01 2.28.87 4.08 2.54 6.08 3.87-4.69-.85-9.96 2.13-10.08 7.24-1.31-.46-2.66-.74-4-1.06-1.67-1.77-3.17-3.71-4.96-5.36-.06-3.41 1.07-7.58 4.96-8.28 2.4.64 4.8 1.37 6.9 2.75l-.48-2.88c1.13-1.04 2.29-2.04 3.52-2.96-1.21-.75-2.39-1.53-3.56-2.35-1.51-1.49-3.32-2.83-4.11-4.89z"/>
        <path d="M34 42.95c1.92-1.44 4.42-1.13 6.65-.96 1.33 1.27 2.76 2.43 4.33 3.39-1.1 1.27-1.65 2.78-1.64 4.51-.13.02-.38.06-.51.09-.23-2.05-.74-4.6-3.03-5.23-2.45-1.04-5.97.49-6.13 3.35-.26 2.27 1.07 4.47.1 6.75-4.14-2.59-3.81-9.4.23-11.9zM88.15 41.95c1.84-.12 3.68-.08 5.52.09 2.11 1.74 4.66 3.92 4.37 6.96.29 2.36-1.4 4.23-2.6 6.06-1.24-1.97-.75-4.03-.21-6.09.38-3.81-5.06-6.11-7.55-3.3-1.61 1.41-1.78 3.57-1.72 5.56 2.32-.56 5.26-1.41 7.09.71 1.23 1.89 2.25 4.25 1.87 6.55-2.57 2.65-4.63 6.25-8.73 6.45-.54-5.05-5.56-8.13-10.39-7.23 2.18-1.47 4.26-3.08 6.47-4.5 1.08-.48 2.16-.97 3.24-1.48-.09-2.21-.41-4.41-1.27-6.46 1.27-1.14 2.62-2.19 3.91-3.32zM63.2 43c.67 0 2.03-.01 2.71-.01 1.14 1.94 2.29 3.89 3.21 5.95-3.01 1.04-6.24.44-9.33.23 1.1-2.08 2.24-4.13 3.41-6.17zM61.13 50.41c2.07-.57 4.66-.56 6.74-.05-1.1 1.37-5.71 1.42-6.74.05z"/>
        <path d="M62.06 52.64c.48-1.25 4.49-1.44 4.82-.01-1.47.6-3.36.59-4.82.01zM61.98 53.59c1.67-.04 3.34-.08 5-.11l.04 2.8c-1.71-.03-3.42-.06-5.13-.08.02-.65.07-1.96.09-2.61zM22.77 60.84c1.21-2.09 3.59-4.06 6.13-3.42 1.79 1.01 3.56 2.21 4.65 4.02-.98-.62-2.93-1.86-3.91-2.48-2.95-.66-5.47 1.38-6.02 4.24l-1.1.06c.06-.6.19-1.81.25-2.42zM96.18 60.16c1.22-1.15 2.64-2.06 3.97-3.09 2.33.26 4.28 1.47 5.84 3.17.93 2.54.56 5.19-.89 7.46-.53-3.01.82-7.38-3.02-8.63-1.03-.01-3.08-.05-4.11-.07 1.24 1.03 2.87 1.16 4.43 1.11.37.31 1.11.93 1.47 1.24.46 2.25.54 4.54.13 6.8-2.31-.43-5.16.6-6.99-1.31 1.84.2 3.59-.29 5.25-1.02.11-2.14-1.02-4.52-3.61-3.99 1.12.88 2.23 1.77 3.32 2.68-1.21 1.29-4.1 2.95-4.37-.52-1.24 2.9-.47 6.14-1.31 9.14-.64 1.33-.12 2.7.58 3.83l.56-4.72c2.29-1.48 5.52-.96 6.89 1.52 2.4 3.2-1.69 8.26-5.33 6.74-2.26-.35-2.93-2.72-3.79-4.5-2.28 6.18-10.55 8.05-12.03 14.85-.37 2.86-2.69 4.9-5.27 5.85-5.81 1.79-11.52-2.09-17.39-.42-4.86 1.72-11.3 1.37-14.34-3.37-.66-7.11-7.95-10.23-12-15.22-2.62-4.83-2.9-10.83-.7-15.89 5.82.69 6.71 8.57 7.74 13.26 2.12-3.47-1.49-7.05-1.77-10.6 3.43 1.44 3.89 6.22 7.58 7.08 3.28 1.56 6.16-2.23 9.43-.86 2.15-2.65-1.32-8.26 3.64-8.1-3.55-1.64-7.81-4.33-11.65-1.89-3.31 1.66-3.52 6.05-2.91 9.23-3.81-3.78-.76-11.34 4.64-11.19 3.54-.59 6.64 1.62 9.87 2.66l-.28.63c1.57-.04 3.1.27 4.54.89 1.54-.5 3.11-.86 4.72-1.03l-.06-.59c3.22-1.02 6.33-3.19 9.86-2.56 5.37-.11 8.16 7.4 4.46 11.09.29-3.01.67-6.87-2.35-8.7-3.79-3.12-8.59-.3-12.26 1.53 4.53-.48 2.32 4.8 2.77 7.35-4.04 1.37-8.54 1.41-12.65.34-.42.6-.83 1.19-1.24 1.79l2.01.67c-3.39-1.07-6.49.65-9.1 2.64-2.44 1.87-7.41 2.91-7.95-1.44-1.61 3.33 2.18 5.9 4.68 7.26 3.85 2.04 8.41-.4 12.24 1.55-5.32 1.52-11.43 1.16-16.11-1.99-2.52-1.83-2.84-5.1-3.78-7.83-.94-3.42-2.43-6.68-4.58-9.51-1.87 4.61-.79 9.93 1.47 14.18 2.65 2.69 5.98 4.66 8.45 7.58 1.93 1.67 1.93 4.43 3.28 6.46 2.77 3.05 7.39 4 11.29 2.91 3.75-1.1 7.74-.76 11.44.35 4.28.48 10.03-1.04 10.99-5.89C83.79 82 93.5 80.49 94.26 72.89c.86-3.11.83-6.39-.41-9.39-2.33 3.2-3.89 6.91-4.9 10.72-.69 2.34-1.27 5-3.35 6.54-3.34 2.39-7.64 3.13-11.67 2.86-3.99-.8-8-2.06-12.12-1.35-1.58.52-2.96-.57-4.27-1.25 4.87.08 9.91-.76 14.65.72 5.25 1.41 11.8.13 14.4-5.13 1.57-4.12 2.47-8.48 4.5-12.43 1.11-1.12 2.3-2.18 3.84-2.65.35.6 1.05 1.8 1.4 2.41 1.73-1.03 1-2.65-.15-3.78m1.84 13.83c-.09 1.3-.15 2.6-.18 3.9 1.88 1.11 3.92 1.24 5.14-.81.88-3.07-2.66-4.49-4.96-3.09z"/>
        <path d="M50.05 63.17c1.93-.41 3.89-.33 5.83-.02.11 2.08.13 4.17.12 6.26l-.69-.2c.02-1.73-1.32-2.54-2.62-3.33-.47.94-.9 1.91-.99 2.98l2.93-.8c-.97 1.58-2.45 2.27-4.46 2.08-1.32-2.24-1.16-4.67-.12-6.97zM73.07 63.07c2.35-.23 5.91-.92 6.46 2.28 1.63 3.24-3.03 7.11-5.05 3.06l2.84.37c.28-3.24-4.33-2.85-3.27.28l-1.07.36c.01-2.12.03-4.24.09-6.35z"/>
        <path d="M81.41 71.69c4.02-.6 4.35-5.71 8-7.04-1.22 3.67-2.37 7.37-3.6 11.03-1.95 2.7-5.7.93-7.9-.53-2.29-1.85-5.08-3.04-8.08-2.77 1.04-.7 2-1.56 3.16-2.06 2.92-.36 5.52 2.46 8.42 1.37zM24.67 78.54c-2.46-3.19 1.13-8.11 4.91-7.07 2.27.56 2.12 3.38 2.95 5.13.8 1.18-.42 2.21-.79 3.26-2.38 1.18-5.58 1.25-7.07-1.32m1.35-3.56c-1.02 3.03 2.63 4.89 4.82 2.96l.32-1.02-.32-2.92c-1.76-.84-3.78-1-4.82.98zM54.33 81.2c2.14-3.18 5.34-5.68 9.28-5.97.05 1.1.13 3.31.18 4.42-3.21.14-6.34.84-9.46 1.55zM65.1 75.27c4.04.14 7.19 2.77 9.41 5.93-3.13-.77-6.29-1.42-9.53-1.53l.12-4.4zM35.49 80.54c3.53 2.94 7.18 5.95 9.44 10.03-1.71-.4-3.44-.58-5.19-.54-1.06-3.18-3.4-5.63-6.2-7.38l1.95-2.11zM83.92 90.39c2.42-3.88 5.99-6.78 9.31-9.85.55.51 1.67 1.54 2.22 2.05-2.92 1.77-5.15 4.41-6.44 7.57-1.27.06-3.81.18-5.09.23z"/>
        <path d="M83.35 94.19c.74-4.87 7.73-3.18 8.36.85.34 4.06-3.65 8-7.7 7.73-3.73-.08-6.41-3-9.58-4.55 2.53-.1 4.9-.96 7.04-2.27 1.36 1.96 4.29 4.27 6.39 1.9 1.62-1.03.52-2.62.06-3.95-1.04-.01-2.07.01-3.11.01.91.52 2.71 1.56 3.62 2.08-1.45 3.35-6.67 1.6-5.08-1.8zM37.69 93.75c1.2-1.9 3.96-3.57 6.07-2.08 2.74 1.01 2.69 6.94-.97 6.22-.61-.48-1.83-1.42-2.44-1.9 1.24-.82 2.54-1.53 3.92-2.11-1.54-.21-3.35-.2-4.14 1.43-1.02 1.86 1.47 3.06 2.79 3.71 1.96-.09 3.28-1.7 4.5-3.03 2.18 1.21 4.5 2.21 7.04 2.25-2.03 1.15-4.06 2.3-5.91 3.73-3.03 1.15-6.75 1.19-9.11-1.34-1.47-1.83-3.48-4.62-1.75-6.88z"/>
    </g>
    <path fill="#fbfbfb" d="M26.12 60H30c.69 1.06 1.38 2.13 2.06 3.21-1.05.9-1.44 3.3-3.23 2.79-.52-.47-1.55-1.41-2.07-1.89.88-.49 2.63-1.49 3.51-1.99-1.65-.4-2.98.21-3.91 1.59.19.57.56 1.71.75 2.28 1.25.52 2.55.95 3.93.77l-.05 1.22c-2.03-.03-4.06.02-6.08.13l-.06-1.95c0-1.01 0-2.02.01-3.03.05-1.16.47-2.2 1.26-3.13z"/>
    <path fill="#8f8f8f" opacity=".56" d="M23.24 67.69c-1.09-2.18-1.48-4.57-.47-6.85-.06.61-.19 1.82-.25 2.42l1.1-.06 1.24-.07c-.01 1.01-.01 2.02-.01 3.03-.4.39-1.21 1.15-1.61 1.53z"/>
</svg>
