<svg width="128pt" height="128pt" viewBox="0 0 128 128" xmlns="http://www.w3.org/2000/svg">
    <path fill="#230709" opacity=".38" d="M88.63 17.66c2.58-3.01 7.31-2.6 10.51-.86-3.5-1.05-7.28-1-10.51.86z"/>
    <g fill="#ce2b31">
        <path d="M26.92 17.89c2.83-1.29 5.97-2.49 9.13-1.83.45.23 1.34.68 1.79.91l.85-.2c.98 1.21 2.03 2.38 2.8 3.74.02.03.05.1.07.13 1.63 3.88 1.76 8.19 1.69 12.34.17 1.61-.61 2.98-1.53 4.22-1.48 1.98-2.12 4.37-2.38 6.79 1.62.65 3.23 1.3 4.84 1.95-1.82 1.85-4.46 3.43-7.11 2.46-3.55-.99-4.36-5.25-4.43-8.41-.42-4.67 4.49-7.42 4.72-11.93.35-2.81.14-6.18-2.3-8.05-2.27-1.91-5.38-1.72-8.14-2.12zM53.57 41.05c-.14 2.99-2.13 5.36-2.89 8.15l.98 1.06c-.27.4-.83 1.2-1.11 1.6 1.18 2.51 3.17 4.46 5.34 6.13l-.56.47c-2.19.17-3.71-2.33-5.05-3.84-3.23-4.49-.16-10.22 3.29-13.57zM55.01 93.5c.81-.07 2.43-.22 3.23-.29-.93 1.15-1.84 2.32-2.81 3.44-1.06 1.3-.88 1.92.54 1.87-.23 2.74.87 5.25 2.3 7.51l.08.16c-.59-.03-1.79-.08-2.39-.11-1.71-2.7-.97-6.19-2.22-9.11.42-1.16.84-2.32 1.27-3.47zM69.73 93.27c.83.02 2.49.07 3.32.09.4 1.26.83 2.52 1.05 3.83-.75 2.92-1.19 5.91-2.08 8.78-.6.06-1.78.18-2.37.23.57-2.02 1.02-4.08 1.17-6.18.06-.85.19-2.54.25-3.38.34.7 1.03 2.1 1.38 2.81 1.31-1.4.29-3.35-.97-4.36-.44-.45-1.31-1.37-1.75-1.82z"/>
    </g>
    <path fill="#511213" opacity=".72" d="M36.05 16.06c.42.01 1.26.04 1.69.05l.1.86c-.45-.23-1.34-.68-1.79-.91z"/>
    <path fill="#d62b31" d="M88.63 17.66c3.23-1.86 7.01-1.91 10.51-.86.54.24 1.6.72 2.14.97-3.18.54-7.03.56-9.06 3.51-2.76 3.99-1.2 9.4 1.57 12.97 2.91 3.51 2.36 8.84.07 12.51-2.23 3.01-6.41 1.85-9.01.03 2.09-1.35 3.81-3.16 4.86-5.43-.83-.97-1.65-1.96-2.45-2.95-2.4-2.53-2.53-6.22-2.17-9.49.29-3.95.93-8.11 3.54-11.26z"/>
    <path fill="#280809" opacity=".57" d="M41.49 20.51c.02.03.05.1.07.13-.02-.03-.05-.1-.07-.13z"/>
    <g fill="#a52029">
        <path d="M54.77 38.98c1.87-3.98 6.64-3.04 10.24-3.17 2.64.23 7.52-.54 6.75 3.53 3.13 1.79 5.57 4.51 7.13 7.76l.2.39-.04.28c-.28 2.3-.52 4.6-.65 6.91l.37.03.3.03-.33.21c-2.13.98-3.87 2.58-5.6 4.13l-.89-.71c1.68-1.99 4.34-3.48 4.96-6.16.82-4.33-1.68-8.96-5.61-10.85-1.43-.96-3.55-1.22-4.06-3.16.96.16 2.88.5 3.84.66-3.05-2.06-6.95-1.58-10.43-1.48l-.99.65c-.15.04-.44.14-.59.19-.55.17-1.64.51-2.19.67-.12.19-.36.55-.48.73l-1.93-.64zM39.34 43.99c.26-2.42.9-4.81 2.38-6.79-1.16 3.73 2.51 6.24 5.89 5.8-1.03 1.03-2.06 2.05-3.09 3.08l-.34-.14c-1.61-.65-3.22-1.3-4.84-1.95z"/>
    </g>
    <path fill="#060300" opacity=".42" d="M57.18 38.89c.55-.16 1.64-.5 2.19-.67-.55.17-1.64.51-2.19.67z"/>
    <g fill="#e72c39">
        <path d="M59.37 38.22c.15-.05.44-.15.59-.19 2.66.51 6.86-1.41 8.39 1.5-4.63-.75-9.92-.47-13.45 3.01-.43-.53-.85-1.07-1.27-1.6.76-.33 2.3-.99 3.07-1.32.12-.18.36-.54.48-.73.55-.16 1.64-.5 2.19-.67zM69.47 70.39c2.23-1.79 4.88-3.02 7.48-4.15 5.08-.03 7.85 7.68 3.94 11.06-1.72.45-3.47.72-5.21 1.07 2.01.74 4.14.95 6.27.98 0 .42-.01 1.25-.02 1.67-2.23-.32-4.43-.83-6.67-1.11l1.33-.43c-.56-.21-1.67-.62-2.23-.83 1.22-1.24 2.43-2.5 3.64-3.75.01-.69.02-2.08.03-2.78l-3.12-2.37c-2.33 1.54-3.6 3.74-2.4 6.53-.86-.06-2.57-.2-3.43-.26-.18-1.89-1.26-4.08.39-5.63z"/>
    </g>
    <g fill="#9c2029">
        <path d="M87.26 38.41c.8.99 1.62 1.98 2.45 2.95-1.05 2.27-2.77 4.08-4.86 5.43-1.36-1.28-2.78-2.48-4.21-3.68 1.72-.34 3.43-.7 5.11-1.17.5-1.18 1-2.35 1.51-3.53zM66.5 76.74c.29-1.22.59-2.45.89-3.67.62 1.59 1.52 3.04 2.52 4.42l.3.57c-.53.19-1.59.57-2.12.77 1.63.24 3.37.14 4.89.86-1.16.59-2.32 1.17-3.45 1.8-.14.56-.42 1.7-.56 2.26-.76-1.1-1.56-2.17-2.36-3.24l-.78-1.03c.87-.95 1.71-1.92 2.55-2.89-1.5.74-2.98 1.52-4.46 2.3-1.3-.72-2.6-1.43-3.91-2.14.1-.16.29-.49.39-.65 1.21.45 2.42.95 3.61 1.48l2.49-.84z"/>
    </g>
    <g fill="#bd2429">
        <path d="M56.19 42.37c5.05-3 11.42-2.65 16.36.41-1.36.67-2.72 1.34-4.07 2.02l1.04.56c3.05 2.96 4.76 7.2 3.15 11.36-.74-.18-2.21-.53-2.95-.71.53-1.9.99-3.81 1.37-5.74-1.71.19-3.42.4-5.13.6l1.92-3.99c-1.27-.94-2.53-1.88-3.8-2.82-2.47 1.8-4.91 3.79-6.17 6.66-1.05.08-2.09.15-3.14.22.91-1.85 2.14-3.52 3.55-5.03-.61.08-1.82.25-2.43.33.07-.89.2-2.67.27-3.56l.03-.31zM56.79 84.72c.36-.13 1.09-.41 1.46-.55 3.13 3.09 7.85 2.95 11.44.75l.11.2c.34 1.37 1.6 2.06 2.86 2.43-1.19.19-2.39.07-3.59.06-.23-.08-.68-.23-.9-.3-1.58-.06-2.97 1.01-4.44 1.44-.36-.17-1.07-.52-1.42-.69-.3-.17-.88-.5-1.17-.66-1.8-.34-3.43-.99-4.35-2.68z"/>
    </g>
    <path fill="#a72527" opacity=".98" d="M52.15 48.91c-.49-2.7 1.99-4.86 4.01-6.23-.07.89-.2 2.67-.27 3.56l-.02.3c-1.25.7-2.16 2.43-3.72 2.37z"/>
    <path fill="#8e2023" opacity=".95" d="M72.55 42.78c2.2 2.02 3.61 4.66 4.32 7.55l-1.27-1.15c-1.64-1.82-3.89-2.83-6.08-3.82l-1.04-.56c1.35-.68 2.71-1.35 4.07-2.02z"/>
    <path fill="#ce292c" d="M57.91 50.72c1.26-2.87 3.7-4.86 6.17-6.66 1.27.94 2.53 1.88 3.8 2.82l-1.92 3.99c1.71-.2 3.42-.41 5.13-.6-.38 1.93-.84 3.84-1.37 5.74.74.18 2.21.53 2.95.71-.79.39-2.35 1.17-3.14 1.56.75.28 1.51.55 2.28.8l.83.26c-.71.55-2.13 1.66-2.84 2.22-.45-.87-.82-1.77-1.18-2.67-3.55 4.68-9.54 1.29-12.68-2-1.31-1.7-.97-3.95-1.17-5.95 1.05-.07 2.09-.14 3.14-.22z"/>
    <g fill="#81191b">
        <path d="M41.77 51.38c2.65-2.89 5.42-5.68 8.53-8.08-1.96 3.54-3.48 8.63-.57 12.09 1.69 2.25 4.1 3.76 6.31 5.42-.06 1.98-.13 3.97-.19 5.95-2.07-1.07-4.37-2.24-6.75-1.44-3.19 1.1-4.39 4.72-7.2 6.33-1.99.37-5.05-2.66-2.97-4.21 1.33.37 2.58 1.05 3.96 1.25 1.49-1.14 2.58-2.67 3.61-4.21.39-.42 1.17-1.28 1.56-1.71-.28-2.03-.54-4.07-.88-6.1-1.9-1.56-3.67-3.28-5.27-5.14l-.14-.15zM69.53 81.49c1.33.15 3.36-.86 4.18.68.17 1.3.28 2.61.33 3.93-1.37-.29-2.92-2.09-4.24-.98l-.11-.2-.72-1.17c.14-.56.42-1.7.56-2.26z"/>
    </g>
    <path fill="#731818" d="M78.07 43.61c3.85 3.7 9.45 7.36 9.65 13.23.01 4.02-6.65 4.06-5.81 8.04.38.41 1.14 1.22 1.53 1.63-.45.72-.92 1.43-1.4 2.12-1.05-3.74-5.9-4.27-8.9-2.65-2.84.95-5.18 4.1-8.41 2.95-.27-.23-.8-.69-1.07-.93-.34.25-1.01.73-1.34.97-2.46.8-4.47-1.14-6.47-2.21.06-1.98.13-3.97.19-5.95 2.61 1.37 5.26 2.66 7.96 3.85 5.45-2.31 10.83-5.15 14.74-9.71l.33-.21-.3-.03c1.47-2 1.52-4.69.68-6.96l-.4.02.04-.28-.2-.39c-.21-.88-.62-2.62-.82-3.49z"/>
    <path fill="#060101" opacity=".2" d="M69.52 45.36c2.19.99 4.44 2 6.08 3.82.7.91 1.19 1.96 1.61 3.03-.62 2.68-3.28 4.17-4.96 6.16-.11.17-.33.53-.44.71-.77-.25-1.53-.52-2.28-.8.79-.39 2.35-1.17 3.14-1.56 1.61-4.16-.1-8.4-3.15-11.36z"/>
    <g fill="#651418">
        <path d="M41.91 51.53c1.6 1.86 3.37 3.58 5.27 5.14.34 2.03.6 4.07.88 6.1-.39.43-1.17 1.29-1.56 1.71-1.15-3.4-5.9-3.85-6.45-7.57-.32-2 .99-3.7 1.86-5.38zM83.15 70.21c1.58-1.44 3.61-2.27 5.65-2.8 2.18.84-.13 3.38-1.46 3.93-1.43 1-2.9-.82-4.19-1.13z"/>
    </g>
    <path fill="#440d10" d="M35.18 52.13c1.21 2.26 1.76 5.1 3.99 6.64 2.22 1.68 4.59 3.2 6.36 5.39-.93 1.02-1.67 2.18-2.38 3.36-2.01-1.21-4.08-2.31-6.24-3.23-.39-1.28-.78-2.55-1.17-3.82-.61.08-1.83.26-2.44.34.52-2.92 1.09-5.82 1.88-8.68z"/>
    <path fill="#420d10" d="M88.66 58.67c2.22-1.55 2.7-4.39 4.04-6.58 1.28 5.72 2.62 11.67 1.88 17.55-3.47 4.96-6.92 9.96-9.96 15.21-1.5.15-2.01-1.69-3-2.43.85-.44 1.7-.9 2.55-1.35l-.17-.61c-.07-.85-.22-2.56-.29-3.41 3.18-1.84 6.57-4.23 7.42-8.05.19-1.47 1.06-4.06-1.07-4.54-1.84.81-3.52 1.95-5.2 3.03-.36-.24-1.07-.73-1.42-.98-.37-.6-1.11-1.81-1.48-2.41 2.1-1.97 4.43-3.67 6.7-5.43z"/>
    <path fill="#ff4142" d="M55.33 58.46c.22.14.65.4.86.53-.21-.13-.64-.39-.86-.53z"/>
    <g fill="#ff4139">
        <path d="M71.81 59.08c.11-.18.33-.54.44-.71-.11.17-.33.53-.44.71zM58.12 60.12c.9.63.9.63 0 0z"/>
    </g>
    <path fill="#ce2e37" opacity=".96" d="M56.19 58.99l.77-.21c.29.34.87 1.01 1.16 1.34l-1.7-.32-.23-.81z"/>
    <g fill="#631516">
        <path d="M33.3 60.81c.61-.08 1.83-.26 2.44-.34.39 1.27.78 2.54 1.17 3.82-1.41 2.76-.02 5.46.99 8.05-.24.61-.71 1.85-.95 2.46-1.46-1.8-2.99-3.59-4.02-5.68-.23-2.78.16-5.55.37-8.31zM62.32 68.97c.33-.24 1-.72 1.34-.97.27.24.8.7 1.07.93 1.05.98 2.02 2.03 3.01 3.08-1.26 1.26-2.51 2.51-3.78 3.74-1.44-1.4-2.6-3.05-3.6-4.79.49-.49 1.47-1.49 1.96-1.99z"/>
    </g>
    <g fill="#ff3839">
        <path d="M60.48 61.48c.3.3.3.3 0 0zM67.37 61.37c.28.28.28.28 0 0z"/>
    </g>
    <path fill="#d02e2f" opacity=".98" d="M62.66 63.1c-1.98-1.73 4.66-1.74 2.69.01-.67-.01-2.02-.01-2.69-.01z"/>
    <path fill="#ce2831" d="M45.65 70.14c1-1.97 2.91-4.2 5.36-3.92 2.46 1.01 4.9 2.18 7.06 3.75 1.77 1.39.6 3.97 1.7 5.76l1.17-2.95c-.14.83-.41 2.49-.54 3.32-.1.16-.29.49-.39.65l-.44 2.72c-.19-.16-.57-.47-.76-.63l-.23-.59-3.02-.32c-.12.26-.35.77-.46 1.03-1.67-.08-3.09.41-4.26 1.47-.52-.7-1-1.44-1.48-2.17-3.41-.68-5.31-5.09-3.71-8.12m6.83.26c-2.03.37-3.64 2.6-2.38 4.52.46 2.33 4.08 2.14 5.13.26 2.19-1.83-.46-5.25-2.75-4.78m3.92 5.77c.15.28.47.85.63 1.13l1.14-.01c.82-1.02.4-1.56-1.24-1.61l-.53.49m-4.07.99c.18 3.32 3.02-1.46 0 0z"/>
    <path fill="#28090b" opacity=".62" d="M52.48 70.4c2.29-.47 4.94 2.95 2.75 4.78-1.05 1.88-4.67 2.07-5.13-.26-1.26-1.92.35-4.15 2.38-4.52m-1.84 4.7c.84-.04 2.53-.12 3.37-.15.69-.99.23-2.13.06-3.18-2.29-.13-3.51 1.01-3.43 3.33z"/>
    <path fill="#370e0f" opacity=".65" d="M72.51 76.28c-1.2-2.79.07-4.99 2.4-6.53l3.12 2.37c-.01.7-.02 2.09-.03 2.78-1.21 1.25-2.42 2.51-3.64 3.75.56.21 1.67.62 2.23.83l-1.33.43c-.42.02-1.25.05-1.66.07l-.62-.29c-1.52-.72-3.26-.62-4.89-.86.53-.2 1.59-.58 2.12-.77.64-.08 1.92-.25 2.56-.33l-.11-.62c-.04-.2-.11-.62-.15-.83m-.17-2.07c1.72 1.04 3.54 1.16 5.28.12-.39-.71-1.17-2.11-1.56-2.81-1.57.38-2.71 1.49-3.72 2.69z"/>
    <path opacity=".05" d="M50.64 75.1c-.08-2.32 1.14-3.46 3.43-3.33.17 1.05.63 2.19-.06 3.18-.84.03-2.53.11-3.37.15z"/>
    <path opacity=".07" d="M72.34 74.21c1.01-1.2 2.15-2.31 3.72-2.69.39.7 1.17 2.1 1.56 2.81-1.74 1.04-3.56.92-5.28-.12z"/>
    <g fill="#3f0f0d">
        <path d="M36.95 74.8c.24-.61.71-1.85.95-2.46 1.9 1.74 3.91 3.36 6.07 4.77-.8 2.53.3 4.67 2.49 6-1.27.45-2.21 1.41-3.17 2.29-1.68-3.78-4.37-6.98-6.34-10.6zM69.34 100.92c.37-.23 1.11-.68 1.48-.9-.15 2.1-.6 4.16-1.17 6.18-.93-1.25-1.67-2.63-2.35-4.03.51-.31 1.53-.94 2.04-1.25zM65.51 103.63c1.65 1.51 3.39 2.91 5.3 4.08-.6.19-1.79.56-2.38.75-.27.32-.8.95-1.06 1.27-.12-.26-.38-.77-.5-1.02-.48-1.69-.92-3.38-1.36-5.08z"/>
    </g>
    <path fill="#1a0707" opacity=".51" d="M56.4 76.17l.53-.49c1.64.05 2.06.59 1.24 1.61l-1.14.01c-.16-.28-.48-.85-.63-1.13z"/>
    <path fill="#2b090b" opacity=".62" d="M52.33 77.16c3.02-1.46.18 3.32 0 0z"/>
    <path fill="#ef383c" d="M69.91 77.49l.7-.66 2.05.28.11.62c-.64.08-1.92.25-2.56.33l-.3-.57z"/>
    <path fill="#160405" opacity=".46" d="M75.68 78.37c1.74-.35 3.49-.62 5.21-1.07.52.19 1.56.55 2.08.73.25.61.77 1.82 1.03 2.43l.17.61c-.85.45-1.7.91-2.55 1.35l-.9.43-.48.22c-.24-.16-.72-.48-.96-.65-1.33-.86-2.66-1.7-4.02-2.51 2.24.28 4.44.79 6.67 1.11.01-.42.02-1.25.02-1.67-2.13-.03-4.26-.24-6.27-.98z"/>
    <path fill="#0a0303" opacity=".49" d="M55.1 78.96c.11-.26.34-.77.46-1.03l3.02.32.23.59c-1.21.37-2.44.41-3.71.12z"/>
    <path fill="#921f22" opacity=".95" d="M45.26 78.8c1.33-1.19 4.15.82 3.45 2.34-1.34.26-4.13-.52-3.45-2.34z"/>
    <g fill="#73181b">
        <path d="M55.1 78.96c1.27.29 2.5.25 3.71-.12.19.16.57.47.76.63.41.28 1.24.82 1.65 1.1l-.13-1.96c.39.36 1.16 1.09 1.54 1.45.18 1.03.35 2.07.51 3.11-1.62.37-3.27.65-4.89 1-.37.14-1.1.42-1.46.55-.75.37-2.25 1.11-2.99 1.48l.69-2.18c.39-.2 1.18-.6 1.58-.8-.61.11-1.83.34-2.44.45.03-2.76 2.86-2.49 4.67-2.15-1.39-.67-2.82-1.26-4.28-1.76l1.08-.8zM74.91 83.76c.54 1.86 1.16 3.69 1.98 5.45l.53 1.21c-1.7 1.39-3.77 2.05-5.94 2.16-1.3-1.97-3.06-3.53-5.13-4.65l2.72-.32c1.2.01 2.4.13 3.59-.06 1.61-.37 1.77-2.51 2.25-3.79z"/>
    </g>
    <path fill="#73191b" d="M52.86 79.56c.62.54 1.23 1.09 1.83 1.65l-1.51.38c.19 1.63.29 3.27.23 4.92 1.3.34 2.61.67 3.93.98-.87 1.73-1.73 3.45-2.62 5.17-1.86-.69-3.9-1.46-5.03-3.22.02-2.5-.81-4.83-1.52-7.18 1.59-.84 3.16-1.74 4.69-2.7z"/>
    <path fill="#911f25" d="M73.6 79.98c.41-.02 1.24-.05 1.66-.07 1.36.81 2.69 1.65 4.02 2.51-.67 2.56-.93 5.2-.97 7.84l-1.42-1.05c-.82-1.76-1.44-3.59-1.98-5.45-.11-.38-.34-1.14-.45-1.52-.22-.57-.65-1.7-.86-2.26z"/>
    <path fill="#4a1013" d="M63.14 83.17c1.2-.83 2.33-1.75 3.47-2.66.8 1.07 1.6 2.14 2.36 3.24l.72 1.17c-3.59 2.2-8.31 2.34-11.44-.75 1.62-.35 3.27-.63 4.89-1z"/>
    <path fill="#d92e32" opacity=".94" d="M46.46 83.11c1.62-.24 2.05.44 1.28 2.02-1.64.28-2.06-.39-1.28-2.02z"/>
    <path fill="#ff3739" d="M80.24 83.07l.48-.22 1.03 1.47c-.29.23-.86.7-1.15.93l-.36-2.18z"/>
    <path fill="#f73439" d="M47.77 86.75c-.32-.4-.32-.4 0 0z"/>
    <path fill="#be292c" opacity=".94" d="M79.2 88.98c-.75-1.04.57-5.15 1.45-2.5.14.83-.45 4.79-1.45 2.5z"/>
    <path fill="#d22b30" opacity=".98" d="M47.77 86.75l.63-.18c.04.45.13 1.35.17 1.81l-.76-.02-.04-1.61z"/>
    <path fill="#58110e" d="M61.14 87.4c.29.16.87.49 1.17.66.5.89.97 1.8 1.46 2.7.84-.96 1.68-1.92 2.58-2.83 2.07 1.12 3.83 2.68 5.13 4.65-2.65-.27-5.63-1.11-7.77 1.02-.44-.38-1.33-1.13-1.78-1.5-2.4.19-4.8.38-7.21.56.89-1.72 1.75-3.44 2.62-5.17 1.26-.04 2.53-.08 3.8-.09z"/>
    <path fill="#420d0b" d="M45.87 90.78c2.13 1.34 4.59 2.43 6.08 4.55 2.03 3.1 1.03 6.99 1.4 10.44-4.01-4.1-5.77-9.67-7.48-14.99z"/>
    <path fill="#4a1010" d="M75.16 96.43c1.2-2.76 4.03-4.03 6.48-5.43-1.68 5.37-2.68 11.54-7.27 15.33.49-3.28.65-6.6.79-9.9z"/>
    <path fill="#1c0607" opacity=".42" d="M71.48 95.09c1.26 1.01 2.28 2.96.97 4.36-.35-.71-1.04-2.11-1.38-2.81.1-.39.31-1.16.41-1.55z"/>
    <path fill="#270909" opacity=".47" d="M62.4 96.68c.13-2.22 5.16-1.14 4.27 1.07-1.4-.43-2.83-.76-4.27-1.07z"/>
    <path fill="#140405" opacity=".43" d="M55.97 98.52c-1.42.05-1.6-.57-.54-1.87.14.47.41 1.4.54 1.87z"/>
    <g fill="#8c2029">
        <path d="M55.43 96.65c2.03.78 1.48 3.48 2.94 4.79.77.77 1.54 1.55 2.3 2.33-.6.57-1.8 1.7-2.4 2.26-1.43-2.26-2.53-4.77-2.3-7.51-.13-.47-.4-1.4-.54-1.87zM62.3 107.28c1.13-2.3 1.98-4.73 2.81-7.15.1.48.29 1.44.38 1.92-.31 2.38-1.18 5.17 1.38 6.66.12.25.38.76.5 1.02-2 3.19-6.66 2.78-7.77-.84l.56-.93c.54-.17 1.61-.51 2.14-.68z"/>
    </g>
    <path fill="#9a2226" opacity=".98" d="M62.4 96.68c1.44.31 2.87.64 4.27 1.07.91 1.04 1.8 2.1 2.67 3.17-.51.31-1.53.94-2.04 1.25-.74-1.46-1.44-2.99-2.62-4.16-1.37-.43-2.1.79-2.84 1.69-.08.18-.23.53-.31.7l-.93 2.21c-.56-.42-1.68-1.25-2.25-1.67 1.39-1.38 2.66-2.88 4.05-4.26z"/>
    <path fill="#0c0303" opacity=".42" d="M74.1 97.19l1.06-.76c-.14 3.3-.3 6.62-.79 9.9v.01c-1.2.44-2.38.89-3.56 1.37-1.91-1.17-3.65-2.57-5.3-4.08.44 1.7.88 3.39 1.36 5.08-2.56-1.49-1.69-4.28-1.38-6.66-.09-.48-.28-1.44-.38-1.92-1.08-.17-2.18-.32-3.27-.43.74-.9 1.47-2.12 2.84-1.69 1.18 1.17 1.88 2.7 2.62 4.16.68 1.4 1.42 2.78 2.35 4.03.59-.05 1.77-.17 2.37-.23.89-2.87 1.33-5.86 2.08-8.78z"/>
    <path fill="#410e10" opacity=".89" d="M61.53 100.4c.08-.17.23-.52.31-.7 1.09.11 2.19.26 3.27.43-.83 2.42-1.68 4.85-2.81 7.15l-.77-.34c-.34.25-1.03.76-1.37 1.02l-.56.93c-1.14-.56-2.3-1.1-3.45-1.64 3.43-.32 6.01-3.41 5.38-6.85z"/>
    <path fill="#0d0304" opacity=".57" d="M60.16 107.96c.34-.26 1.03-.77 1.37-1.02l.77.34c-.53.17-1.6.51-2.14.68z"/>
</svg>
