<svg width="128pt" height="128pt" viewBox="0 0 128 128" xmlns="http://www.w3.org/2000/svg">
    <g fill="#fff">
        <path d="M57.28 36.34c4.41-.66 8.93-.36 13.38-.12.72.95 1.44 1.89 2.19 2.82-5.96-2.83-13.03-2.73-18.71.74 1.05-1.15 1.84-2.55 3.14-3.44zM57.76 41.78c7.3-4.02 18.23.31 18.96 9.13-1.73-2.86-4.38-5.09-7.76-5.68 1.31 1.59 3.1 2.88 3.93 4.83.58 1.94.25 3.97.13 5.94-2 2.18-4.66 3.57-7.28 4.83-2.33 1.41-4.68-.72-6.76-1.64-2.45-1.02-4.28-3.43-4.02-6.16-.47-3.26 2.1-5.62 4.1-7.77-3.52.67-6.01 3.12-7.96 5.93.81-3.89 2.68-7.92 6.66-9.41z"/>
        <path d="M40.28 55.09c1.65-4.84 5.86-8.31 9.83-11.26-1.54 2.94-3.18 6.35-1.68 9.68 3.26 5.84 9.75 8.66 15.55 11.34 5.83-2.67 12.24-5.52 15.58-11.31 1.25-3.12.12-6.59-1.33-9.44l.65-.14.17.71c3.36 3.33 7.92 6.42 8.56 11.48-.01 3.17-3.2 4.95-5.7 6.17-.05 1.37-.12 2.82.82 4-.54.25-1.07.51-1.6.77-.9-1.38-2.44-2.4-4.14-2.19-4.69-.24-7.7 4.64-12.38 4.23.86.78 1.73 1.56 2.61 2.33-.97 1.42-1.77 4.05-3.92 3.53-1.72-1.52-3.35-4.15-1.08-6-4.58.45-7.64-4.79-12.33-4.03-3.71.61-4.91 4.75-7.88 6.47-2.24.3-3.42-1.67-4.21-3.4 1.58-.65 3 .27 4.42.83 1.41-.39 2.2-1.78 3.27-2.67.3-1.1.53-2.21.68-3.34-2.6-1.85-6.93-3.85-5.89-7.76z"/>
        <path d="M33.05 69.06c-.09-5.63.4-11.49 2.56-16.74.23 5.29 5.21 7.67 8.73 10.65 1.76 1.35.1 4.84-2.05 3.91-1.97-.92-4.9-4.18-6.32-.88-.06 5.07 3.75 9.02 7.96 11.25-.49 1.92-.57 4.93 2.13 4.98-.89 1.03-1.77 2.06-2.58 3.16-2.81-5.85-6.99-10.88-10.43-16.33zM90.74 56.65c.65-1.48 1.24-2.98 1.97-4.41 1.05 5.67 2.34 11.44 1.83 17.24-3.49 5.17-7.37 10.15-10.18 15.75-.87-.98-1.66-2.03-2.61-2.92.58-.34 1.74-1.01 2.32-1.35l-.21-3.74c4.13-2.24 8.1-6.12 7.76-11.2-.32-.48-.96-1.44-1.27-1.93-2.34 1.32-4.68 2.66-7.09 3.84.69-1.57-1.29-3.19-.13-4.57 2.2-2.62 5.74-3.78 7.61-6.71z"/>
        <path d="M86.3 68.45c1.16-.52 2.39-.95 3.65-.47-1.01 2.85-4.45 4.94-6.82 1.93.99-.62 2.07-1.08 3.17-1.46zM50.33 71.55c1.78-.65 3.5-.23 4.97.85l-.64.21c-1.71-2.39-5.43.01-3.82 2.54 1.57.58 3.02-.17 4.46-.72-.97 1.23-2.52 1.31-3.96 1.32-1.68-.64-1.2-2.8-1.01-4.2zM72.28 73.1c.85-.64 1.4-2.12 2.69-1.79 2.55-.44 3.45 3.14 1.76 4.62L72 75.69c.57-.77.67-1.63.28-2.59m.19.63c.62 1.49 2.41 1.67 3.8 1.76.5-1.2 1.73-3.02-.21-3.7-1.71-.43-2.9.22-3.59 1.94zM58.81 77.01c.66-1.38 1.29-2.77 1.95-4.14.16 1.28.31 2.57.45 3.87 1.75.55 3.53.91 5.29.1l-.03.85c-.99.42-1.96.85-2.93 1.3-1.16-.81-2.2-1.75-3.13-2.81l-.63 1.01.16 2.06c-1.56-.96-3.29-1.42-5.17-1.4.4-1.77 2.78-.58 4.04-.84zM66.95 74.64c1.92-1.6 1.12 2.9-.26 1.03l.26-1.03zM69.23 77.73c.22-1.45 2.92-.87 3.93-.4l.03.51c-1.33.46-2.66.42-3.96-.11z"/>
        <path d="M45.04 79.11c.07-2.34 2.8-.18 3.82.27 1.62-.23 3.57-2.19 5.08-1.28-.58.28-1.75.85-2.34 1.13.91.72 2.06 1.01 3.08 1.54-2.67.55-2.59 4.9-.57 6.19 2.35.65 4.83.7 7.25.84.87 1 1.69 2.04 2.37 3.19.88-1.01 1.69-2.09 2.74-2.94 2.61-.77 5.67-.06 8.01-1.74l.51-.2c-.35-1.91.99-4.8-1.87-5.45.79-.29 1.58-.57 2.38-.82 1.05 1.18 2.42 1.96 3.92 2.43-.97 2.8-.88 6.04-2.62 8.52-3.05 2.52-7.27 1.16-10.83 1.14-.55.39-1.66 1.16-2.21 1.54-.43-.38-1.27-1.15-1.7-1.53-3.19.03-6.51.88-9.62-.2-3.51-1.96-2.83-6.51-4.26-9.73l2.45-.02c-1.41-2.05-5.7.26-5.59-2.88z"/>
        <path d="M67.28 78.22c1.51 2.85 5.01-.82 7.17.47-1.26.94-2.71 1.54-4.11 2.24l-.61-.56c1.04 5.8-8.2 8.46-10.45 3.02l-2.22-.16c1.53.81 3 2.05 3.77 3.59-.56.09-1.68.27-2.25.36-.65-.96-1.34-1.9-2.05-2.82l-2.32 1.8c-1.27-1.83-.77-2.69 1.5-2.57l.26-.43c-.66.14-1.99.43-2.66.57.67-2.57 3.14-2.88 5.15-1.71-.8-1.23-2.8-1.48-3.26-2.79 2.24-1.57 5.13 2.14 7.17-.5l-1.83 2.67 2.82-1.55-1.28 1.75c.39.46 1.17 1.38 1.56 1.83 1.18-.89 2.02-2.06 2.16-3.56.37-.41 1.11-1.24 1.48-1.65zM74.67 78.3c2.47 3.93 5.85-1.61 7.93.24.57 4.72-6.8 2.11-7.93-.24z"/>
        <path d="M70.15 82.81c.28-1.3 1.12-1.83 2.51-1.59 1.93 1.14 1.03 3.29.98 5.04-1.33-.69-2.38-1.67-3.14-2.93l2.17.46.06-.37c-.64-.15-1.94-.45-2.58-.61z"/>
        <path d="M69.63 83.95c2.42-.8.03 3.7-.22.92l.22-.92zM67.38 85.95c2-1.6 1.64 2.73-.18.76l.18-.76zM62.33 87.27c.98-.54 2.86-.91 3.59.14-.7 1.14-3.51 1.48-3.59-.14zM45.98 90.89c2.37 1.71 5.68 2.95 6.53 6.05.9 2.95.11 6.13 1.08 9.07-3.92-4.26-5.86-9.71-7.61-15.12zM76.69 94.55c1.31-1.47 3.15-2.32 4.79-3.35-1.84 5.38-2.74 11.67-7.56 15.36 1.92-3.8-.36-8.77 2.77-12.01zM61.75 101.94c.62-1.1 1.94-4.33 3.12-1.94 2.02 2.08-.12 4.77-.05 7.2.62.29 1.86.86 2.48 1.15l.22-.9c-2.54-.57-2.13-2.63-1.05-4.3.35 2.57 2.49 3.82 4.76 4.4-.94.24-1.88.47-2.82.71-1.54 1.62-3.49 4.79-6.09 3.37-1.95-1.33-3.04-3.75-5.55-4.21 2.09.08 3.04-2.91 5.05-2.24.97 1.6-1.07 2.04-2 2.87 3.48.95 3.6-4.34 1.93-6.11z"/>
    </g>
</svg>
