<svg width="128pt" height="128pt" viewBox="0 0 128 128" xmlns="http://www.w3.org/2000/svg">
    <g fill="#fff">
        <path d="M26.82 17.63c3.78-1.09 8.18-2.85 11.85-.46 4.55 3.42 4.39 9.69 4.51 14.81.28 2.55-.87 4.81-2.1 6.93.87 2.96 3.43 4.32 6.4 4.35-2.88 2.29-5.79 5.81-9.88 5.23-4.13-.91-5.12-5.89-4.83-9.5.03-3.93 4.01-6.24 4.55-10 .53-2.9.47-6.35-1.74-8.59-2.36-2.19-5.77-2.24-8.76-2.77zM90.63 16.7c3.48-1.77 7.4-.01 10.87.91-3.05.52-6.64.53-8.83 3.1-2.09 1.85-1.89 4.82-1.73 7.35.22 4.47 5.09 7.27 4.81 11.88-.16 2.86-.81 6.01-3.09 7.95-1.96 1.07-4.09.49-6.12.02-1.88-1.68-3.88-3.22-5.92-4.72 1.79-.28 3.59-.54 5.3-1.17.46-1.3.92-2.6 1.24-3.93-3.21-3.58-2.1-8.66-1.53-12.95.5-3.25 1.67-7.07 5-8.44zM51.2 44.04c6.12-8.74 21.38-8.09 26.59 1.29 1.41 2.22 1.25 4.89 1.28 7.41-3.38 5.5-9.4 8.39-15.07 10.94-4.7-2.32-9.72-4.52-13.28-8.5-2.88-3.12-1.94-8.03.48-11.14m2.36-.53c-2.55 2.53-3.95 6.64-2.24 10.01 2.6 4.04 7.06 6.19 11.19 8.31.58.1 1.72.28 2.3.37 4.45-2.17 9.12-4.51 12.01-8.71 1.55-3.19.35-6.99-1.84-9.56-5.26-6.23-15.93-6.51-21.42-.42zM47.18 68.1c3.48-4.28 8.2.76 11.74 2.39.35 1.74.4 3.56-.18 5.27-3.51.89-7 2.07-10.63 2.41-3.15-2.43-4.24-7.28-.93-10.07m2.69 5.8c.01 2.38 2.88 2.75 4.7 2.43.39-.67 1.17-1.99 1.56-2.65-.74-.97-.83-2.79-2.32-2.9-1.83-.86-4.48 1.04-3.94 3.12zM69.34 70.49c2.46-1.89 5.39-3.02 8.04-4.61 2.36 1.06 4.57 2.87 5.15 5.51 1 2.66-1.05 5-2.75 6.79-3.7-.26-7.14-1.78-10.8-2.34-.12-1.79-.83-3.76.36-5.35m3.41 1.28c-1.6 1.29-.07 3.04.39 4.48 1.8.4 3.46-.01 4.87-1.18 0-.78-.01-2.32-.01-3.09-1.59-1.16-3.89-2.4-5.25-.21zM44.62 85.61c1.02-.99 1.7-2.53 3.23-2.83.82 2.21.99 4.57 1.47 6.87l-2.18.16c.27-.7.8-2.11 1.06-2.81-.53.23-1.59.71-2.12.94.43-.78 1.31-2.36 1.75-3.15-.81.2-2.41.61-3.21.82zM80.13 82.49c1.17.93 2.16 2.05 3.2 3.12-.81-.2-2.44-.61-3.26-.81.43.77 1.29 2.29 1.71 3.06-.48-.19-1.45-.56-1.93-.74.18.68.55 2.05.73 2.73-.5-.04-1.49-.13-1.99-.18.47-2.4.77-4.85 1.54-7.18zM54.85 93.59c.87-.12 2.62-.35 3.49-.46-1.7 1.89-4.09 3.82-3.48 6.74l1.76-3.13c.31 1.99.9 3.92 1.53 5.83.49-.77.93-1.58 1.34-2.39 1.3-1.88 2.84-3.59 5.18-4.04 2.05 1.82 3.77 3.98 5.19 6.32.59-1.95 1.14-3.92 1.65-5.9 1.49 2.99 2.34 6.63.44 9.66-.6-.09-1.8-.25-2.4-.34-.59-.47-1.78-1.41-2.37-1.88.12-.38.34-1.15.45-1.53-.99-1.72-2.07-3.38-3.29-4.93-4.3 1.7-2.59 8.82-8.06 8.71-2.07-1.96-.98-5.06-1.97-7.51-.72-1.74.02-3.48.54-5.15zM69.63 93.15c.87.11 2.59.34 3.45.46.84 2.18 1.2 4.51.86 6.84-.85-2.74-2.12-5.37-4.31-7.3z"/>
    </g>
</svg>
