<svg width="128pt" height="128pt" viewBox="0 0 128 128" xmlns="http://www.w3.org/2000/svg">
    <path fill="#9f2021" d="M17.52 25.88c-1.65-1.51-1.92-3.83-2.43-5.89 1.23 2 2.4 4.3 4.69 5.26 6.1 3.07 13.22 1.26 19.53 3.57 2.63 4.42-3.2 7.69-2.13 12.2-.03 3.49 3.42 5.06 5.93 6.66.73 2.75 2.53 4.96 4.63 6.8 2.14 0 4.3.2 6.41-.21 1.22-1.11 2.34-2.33 3.61-3.38-.52-4.67-.25-9.83-2.77-13.97-3.07-3.67-8.06 2.2-11.36-1.25l3.3-.2c-.27-.91-.54-1.81-.81-2.71.75-.06 2.27-.17 3.02-.23-1.73-1.78-4.26-3.31-6.11-.48.04-1.44-.86-3.28.68-4.22 3.9-3.48 9.54-1.96 14.27-2.53-.15.6-.46 1.8-.61 2.4 1.46.09 2.93.19 4.39.29-1.24.6-2.49 1.2-3.73 1.8 1.17.75 2.35 1.5 3.52 2.25.28 3.54.79 7.22 3.13 10.06.72-2.77 1.42-5.55 2.3-8.27l-.56-1.61c1.39-.87 2.78-1.75 4.14-2.67-1.5-.75-3.01-.33-4.4.41.57-2.3 3.47-1.89 5.22-2.63-.9-.79-1.79-1.59-2.68-2.4 3.75.58 7.54.58 11.31.86 2.49.22 5.44 1.65 5.5 4.52-2.09-.18-4.1.17-5.75 1.5 1.11.91 1.76 2.18 2.02 3.58.81.06 2.43.17 3.24.23-.93.62-1.88 1.21-2.82 1.81-2.73-1.35-6.74-3.18-9.08-.23-2.36 4.13-1.76 9.19-2.64 13.73 2 .5 2.7 2.7 4.45 3.51 2.37.14 5.29.58 7.09-1.36 1.63-1.51 2.27-3.72 3.46-5.53 2.09-1.64 4.92-2.82 5.63-5.67 1.74-4.46-4.3-7.8-2.53-12.18 4.58-3.58 10.85-1.58 16.12-3.11 3.71-.45 6.34-3.21 8.75-5.79-1.06 4.46-4.54 7.35-8.4 9.35 2.51-.43 4.97-1.12 7.41-1.86-2.27 3.08-5.93 4.13-9.49 4.81-4.24.25-6.15 6.36-3.22 9.2 1.2.47 2.54.4 3.79.69.74.17 2.2.51 2.94.67-3.07.86-6.22 1.39-9.34 1.96 4.22 1.86 8.88 1.65 13.39 1.64.87.14 1.74.31 2.6.53-5.94 2.42-12.38 1.93-18.63 2-.49 2.16 2.06 3.19 3.16 4.64.65.79 1.47 1.28 2.48 1.48 4.3 1.89 8.52 3.96 12.76 6-7.83.11-14.68-3.8-21.54-6.99 1.65 2.24 3.56 4.36 4.67 6.94.27 1.01.87 1.76 1.8 2.25.81.55 1.5 1.22 2.07 2.01.43.92 1.09 1.6 2 2.07 3.59 3.58 7.96 6.16 11.86 9.36-6.76-1.11-13.15-4.46-17.66-9.66-.44-.91-1.12-1.6-2.02-2.05-2.01-2.31-3.05-5.45-5.78-7.1-.18 3.53 1.15 6.83 1.9 10.21 1.88 8.25 5.11 16.19 9.46 23.45 2.21 3.76 5.16 7.01 7.51 10.68-4.3-2.15-8.43-5.05-11.1-9.1-.32-.96-.9-1.72-1.73-2.29-.84-.88-1.59-1.87-2.1-2.97-.25-.47-.74-1.4-.98-1.87-2.5-4.49-4.09-9.49-5.37-14.45-.73-3.43-1.65-6.84-3.15-10.01-2.03 6.7.27 13.67-.28 20.5-3.2-4.78-2.23-10.56-2.6-15.95.08-1.62-1.84-1.97-2.82-2.79-.34 4.15-.42 8.32-.29 12.48-1.52-2.67-2.19-5.68-2.3-8.72.16-1.42-.95-2.3-1.83-3.21-2.12 5.75 1.48 11.09 2.21 16.68.92 3.21 3.39 5.72 5.69 8.04 3.79.76 9.24-.2 10.62 4.6-2.34-.42-4.7-1.62-7.1-.88.94 3.36 6.21 3.69 5.75 7.97-2.5-1.74-5.16-3.38-8.2-3.97.07 2.05 1.66 4.98-.87 6.15-.66-2.42-1.28-4.86-1.55-7.36-2.15-2.72-5.46-3.8-8.86-3.33.93-.81 1.88-1.58 2.86-2.33 1.2.07 2.4.14 3.6.22-.87-1.39-1.72-2.78-2.57-4.17-2.29-3.93-6.09-6.65-8.59-10.44.1 2.62-.67 5.79 1.56 7.77 1.07-.38 2.12-.8 3.16-1.26.46 1.06.89 2.13 1.3 3.22-1.74 1.01-1.76 2.95-2.01 4.67-.93-2.04-1.87-4.23-3.96-5.34-.51 4.36-.14 8.77-.4 13.14-.07 2.26 1.72 5.28 4.31 4.66 1.62-1.85.34-3.96-.88-5.57.06-.73.13-1.45.21-2.18.72 1.58 1.64 3.07 2.96 4.22l-.78 3.21c1.38.07 2.75.14 4.13.22.87 2.18 1.52 4.43 1.87 6.76-2.34.07-5.15 1.22-6.81-1.1 1.46.08 2.93.14 4.39.19.14-1.38.61-2.79.21-4.17-2.89-1.06-4.75 1.46-6.31 3.43l-.19.22c-.38-1.32-.76-2.64-1.15-3.95-1.13-.58-2.26-1.15-3.39-1.72-.86.79-1.97 1.38-2.58 2.41-.32.62-.97 1.87-1.3 2.5-1.82-1.45-3.61-3.18-6.02-3.48l-1.18.28c.38-.31 1.14-.93 1.52-1.25 2.07-.73 4.22-.16 6.19.61 4.79-4.99 2.63-12.46 2.11-18.58-1.05.77-2.1 1.55-3.15 2.33-.28-.25-.84-.75-1.12-.99.04-1 .08-2 .13-3 .76.16 2.28.49 3.05.66 1.09-2.58 1.34-5.38 1.32-8.16-1.93 3.6-5.37 5.93-7.77 9.12-1.14 1.87-2.11 3.84-3.16 5.76 2.48-.74 4.62.45 6.55 1.91-3.41.43-7.37.58-9.51 3.73-.38 2.38-.58 4.79-1 7.17-2.14-1.5-1.21-4.34-1.44-6.54-1.22.79-2.44 1.59-3.65 2.38l-2.47.12c-.52.9-1.03 1.81-1.58 2.7-.56-4.44 3.7-6.23 6.5-8.61-2.66-.23-5.32-.09-7.94.4.95-1.57 2.01-3.24 3.86-3.81 2.33-.2 4.75.5 6.99-.46.63-.81 1.31-1.58 2.03-2.31.87-.55 1.45-1.32 1.76-2.29.43-.94.86-1.89 1.29-2.83 1.35-4.99 3.38-9.99 3.14-15.24-.38-.61-1.13-1.84-1.5-2.45-1.39 3.96-1.56 8.25-3.25 12.13-.3-3.99-.26-7.99-.54-11.98-.54.37-1.63 1.1-2.17 1.46-1.35 5.23.73 11.37-2.48 16.22l-.88 1.16c-.35-6.93 1.52-13.85.27-20.74-2.62 4.53-3.33 9.79-4.87 14.72-1.15 3.27-2.2 6.63-3.99 9.62-.3.43-.91 1.29-1.22 1.72-.27.52-.82 1.57-1.09 2.1-.85.54-1.44 1.29-1.77 2.24-1.31 2.27-3.13 4.28-5.31 5.74-.41.33-1.23 1-1.64 1.33-1.48 1.49-3.56 2.13-5.36 3.12 6.89-7.81 12.08-17.02 15.43-26.87 1.92-5.88 3.98-11.86 4.19-18.1-1.67 1.29-3.18 2.81-4.18 4.68C31.5 70.5 23.53 75.98 14.81 77.5c2.02-2.26 4.68-3.79 7.24-5.35.93-.39 1.64-1.02 2.12-1.91 2.27-2.72 5.17-4.86 7.28-7.73 1.95-2.67 3.77-5.45 5.69-8.15-6.5 3.9-13.66 7.51-21.45 7.4 5.42-2.97 11.58-4.71 16.39-8.71 1.19-.76 1.44-2.17 1.87-3.4-6.13-.04-12.84 1.02-18.42-2.15 4.95-.76 10.16-.06 14.92-1.81-6.04-.28-12.79-2.72-15.42-8.62 3.93 3.47 8.76 6.97 14.34 5.28.49-2.97.94-7.15-2.26-8.77-3.71-1.08-7.81-1.42-10.74-4.26 2.6.33 5.18.8 7.76 1.21-2.25-1.48-4.54-2.92-6.61-4.65m30.99 1.71c-1.74 1.5 1.66 2.97 2.8 1.78 2.93-1.02-1.88-3.92-2.8-1.78m27.29 1.22c1.3.72 2.68 1.46 4.22 1.04 1.39-2.42-1.41-2.66-3.06-3.2l-1.16 2.16z"/>
    <path fill="#160405" opacity=".45" d="M17.52 25.88c2.07 1.73 4.36 3.17 6.61 4.65-2.58-.41-5.16-.88-7.76-1.21l-.51-.07c.55-1.13 1.1-2.25 1.66-3.37z"/>
    <path fill="#2c0808" opacity=".6" d="M48.51 27.59c.92-2.14 5.73.76 2.8 1.78-1.14 1.19-4.54-.28-2.8-1.78z"/>
    <path fill="#270808" opacity=".58" d="M75.8 28.81l1.16-2.16c1.65.54 4.45.78 3.06 3.2-1.54.42-2.92-.32-4.22-1.04z"/>
    <path fill="#200606" opacity=".48" d="M61.76 27.99l.53-.26c-.07 3.98.36 7.97 1.59 11.78 2.08-2.77 1.79-6.31 2.28-9.55 1.39-.74 2.9-1.16 4.4-.41-1.36.92-2.75 1.8-4.14 2.67l.56 1.61c-.88 2.72-1.58 5.5-2.3 8.27-2.34-2.84-2.85-6.52-3.13-10.06-1.17-.75-2.35-1.5-3.52-2.25 1.24-.6 2.49-1.2 3.73-1.8z"/>
    <path fill="#641313" opacity=".82" d="M103.54 42.99c3.54-1.56 6.72-3.73 9.84-5.99-1.23 3.04-3.63 5.52-6.74 6.62l-.16.04c-.74-.16-2.2-.5-2.94-.67z"/>
    <path fill="#160405" opacity=".4" d="M97.14 45.62c3.12-.57 6.27-1.1 9.34-1.96l.16-.04.01.34c-.69.56-2.07 1.69-2.77 2.25 2.24.17 4.54.18 6.65 1.05-4.51.01-9.17.22-13.39-1.64z"/>
    <path fill="#200606" opacity=".43" d="M97.66 54.43c1.65-.83 2.48-.34 2.48 1.48-1.01-.2-1.83-.69-2.48-1.48z"/>
    <path fill="#140404" opacity=".37" d="M36.04 62.93c1-1.87 2.51-3.39 4.18-4.68-.21 6.24-2.27 12.22-4.19 18.1.29-4.79 1.97-9.32 2.77-14.02l-2.76.6z"/>
    <path fill="#240707" opacity=".47" d="M96.03 61.86c1.77-.19 2.37.56 1.8 2.25-.93-.49-1.53-1.24-1.8-2.25z"/>
    <path opacity=".18" d="M40.98 77.35c1.54-4.93 2.25-10.19 4.87-14.72 1.25 6.89-.62 13.81-.27 20.74l.88-1.16c-.22.53-.67 1.58-.89 2.1-2.12-4.95.3-10.39-1.02-15.53-.93 2.95-1.35 6.23-3.57 8.57zM55.03 84.75c2.4-3.19 5.84-5.52 7.77-9.12.02 2.78-.23 5.58-1.32 8.16-.77-.17-2.29-.5-3.05-.66-.34-.08-1.02-.22-1.36-.3-.01.87-.04 2.62-.05 3.49-.5-.39-1.49-1.18-1.99-1.57z"/>
    <path fill="#170404" opacity=".39" d="M82.46 82.89c.55-6.83-1.75-13.8.28-20.5 1.5 3.17 2.42 6.58 3.15 10.01-.95-1.98-1.96-3.92-3.05-5.83-.2 5.71.8 11.39.5 17.09-.31.12-.93.38-1.24.5-3.44-4.65-2.68-10.68-3.29-16.09-.28-.39-.83-1.17-1.11-1.56-.36 3.36.14 6.85-.95 10.12-.13-4.16-.05-8.33.29-12.48.98.82 2.9 1.17 2.82 2.79.37 5.39-.6 11.17 2.6 15.95z"/>
    <path opacity=".1" d="M48.94 65.99c.54-.36 1.63-1.09 2.17-1.46.28 3.99.24 7.99.54 11.98 1.69-3.88 1.86-8.17 3.25-12.13.37.61 1.12 1.84 1.5 2.45.24 5.25-1.79 10.25-3.14 15.24-.29-1.83-.61-3.66-.98-5.48-1.07.34-2.13.68-3.2 1.03-.16-3.87-.68-7.77-.14-11.63z"/>
    <path fill="#130404" opacity=".43" d="M94.08 65.84c.9.45 1.58 1.14 2.02 2.05-1.8.41-2.47-.28-2.02-2.05z"/>
    <path fill="#130404" opacity=".42" d="M99.9 66.12c1.77-.42 2.44.27 2 2.07-.91-.47-1.57-1.15-2-2.07z"/>
    <path fill="#0f0303" opacity=".36" d="M22.05 72.15c-.35-1.8.36-2.44 2.12-1.91-.48.89-1.19 1.52-2.12 1.91z"/>
    <path opacity=".15" d="M67.17 83.65c-2.23-1.98-1.46-5.15-1.56-7.77 2.5 3.79 6.3 6.51 8.59 10.44-.65-.18-1.93-.53-2.57-.71-.41-1.09-.84-2.16-1.3-3.22-1.04.46-2.09.88-3.16 1.26zM53.93 103.73c2.41.3 4.2 2.03 6.02 3.48.33-.63.98-1.88 1.3-2.5.65 2.22-1.09 3.08-2.82 3.76-.24.58-.73 1.72-.97 2.3-2-.16-4.47.61-5.87-1.31 1.7.12 3.39.14 5.09.13-1.38-1-2.73-2.03-3.97-3.19.3-.67.91-2.01 1.22-2.67z"/>
    <path fill="#210707" opacity=".47" d="M50.21 87.19c-.64-1.7-.06-2.46 1.76-2.29-.31.97-.89 1.74-1.76 2.29z"/>
    <path fill="#200606" opacity=".42" d="M59.42 87.12c1.05-.78 2.1-1.56 3.15-2.33.52 6.12 2.68 13.59-2.11 18.58-1.97-.77-4.12-1.34-6.19-.61-.38.32-1.14.94-1.52 1.25l-.33.27c-.14-2.1 2.29-2.27 3.62-3.14-.39-.76-1.17-2.28-1.55-3.04 1.03 1.4 2.21 2.84 3.94 3.37.04-2.13-1.85-3.53-3.82-3.7l-.55-.13c1.83.02 3.66 0 5.49-.02-.11 1.56-.22 3.13-.31 4.7 4.18-1.65 3.56-6.71 3.43-10.33-.32-1.79.13-4.28-1.88-5.23-.21.89-.62 2.67-.83 3.56-.57-.42-1.71-1.25-2.28-1.67.16-.63.47-1.89.62-2.52.28.24.84.74 1.12.99z"/>
    <path fill="#250708" opacity=".55" d="M35.77 88.69c.31-.43.92-1.29 1.22-1.72l.32.87-.63.88-.91-.03z"/>
    <path fill="#140404" opacity=".43" d="M91.26 86.85c.24.47.73 1.4.98 1.87l-.92-.1-.5-.96.44-.81z"/>
    <path fill="#0b0202" opacity=".35" d="M32.91 93.03c.33-.95.92-1.7 1.77-2.24.63 1.73.04 2.48-1.77 2.24z"/>
    <path fill="#0f0203" opacity=".36" d="M94.34 91.69c.83.57 1.41 1.33 1.73 2.29-1.82.2-2.4-.56-1.73-2.29z"/>
    <g fill="#8c1c18">
        <path d="M54.61 97.77c1.97.17 3.86 1.57 3.82 3.7-1.73-.53-2.91-1.97-3.94-3.37l.12-.33zM52.42 104.28l.33-.27 1.18-.28c-.31.66-.92 2-1.22 2.67 1.24 1.16 2.59 2.19 3.97 3.19-1.7.01-3.39-.01-5.09-.13-.25-.02-.76-.05-1.02-.07.66-1.69 1.24-3.41 1.85-5.11z"/>
    </g>
    <g>
        <path fill="#280808" opacity=".53" d="M25.96 100.1c.41-.33 1.23-1 1.64-1.33l.08.92-.85.69-.87-.28z"/>
    </g>
</svg>
