<svg width="128pt" height="128pt" viewBox="0 0 128 128" xmlns="http://www.w3.org/2000/svg">
    <g fill="#fff">
        <path d="M56.28 39.79c5.34-.59 10.83-.82 16.12.26.14 2.79.47 5.56.71 8.34 3.54-1.82 7.13-3.52 10.64-5.38 2.46 1.18 4.86 2.47 7.21 3.84-6.65 2.63-13.16 7.17-16.1 13.9-1.29 2.27.73 5.52-1.97 7.11-1.83.3-4.32-.59-4.08-2.81.62-.03 1.87-.08 2.49-.1-.55-1.07-1.12-2.12-1.7-3.17-2.37-.02-5.06 2.13-4.53 4.66 1.63 2.7 5.16 2.81 7.96 2.64 2.83-.16 3.53-3.33 4.85-5.27 2.54-4.87 7.56-8.71 13.19-8.75 6.93.63 14.14 4.94 15.54 12.2-2.44-.51-4.97-1.65-7.47-.89-3.25.97-5.88 3.4-7.79 6.13-1.38 2.87-.68 6.19-1.44 9.23-1.16.96-2.05 2.82-3.84 2.25-2.19-2.14-3.6-5.18-6.5-6.51-4.77-1.82-9.95-1.43-14.95-1.51 1.63-2.7 5.4-1.29 8-2.07 2.3-1.17 4.69-2.18 7.07-3.18.28.64.85 1.92 1.13 2.56.05-.77.14-2.29.19-3.05 1.93-2.39 4.79-4.79 8.09-4.08 4.46 1 8.75-1.48 11.92-4.42-1.4-2.43-4.46-3.74-7.1-4.6-7.31-1.43-13.16 5.25-15.18 11.59-2.1 1.39-4.14 2.87-6.2 4.32-3.36-2.37-7.58-4.71-11.78-3.13-2.16.53-3.63 2.74-5.77 3.04-2.51-1.78-5.79-3.12-6.74-6.32-1.95-4.71-6.08-8.8-11.29-9.44-3.9-.19-7.25 2.17-10.29 4.31 2.98 3.46 7.84 5.9 12.48 5 3.13-.58 5.79 1.6 7.73 3.79.17 1.31.35 2.61.55 3.91l.68-3.33c3.45 1.57 6.87 3.72 10.8 3.63 1.6.15 3.63-.32 4.54 1.44-6.25.1-13.95-.13-18.21 5.31-1.27 1.24-2.02 3.68-4.19 3.41-4.84-3.03-2.5-9.68-5.96-13.68-2.66-5.04-9.2-5.48-13.96-3.53 1.94-9.73 15.07-15.93 23.33-9.81 3.64 2.44 5.58 6.5 7.79 10.13 2.5 2.4 6.65 1.45 9.43.01 2.7-2.14-.46-6.45-3.37-5.78-.91.78-1.42 1.77-1.54 2.97.61.02 1.82.06 2.42.07.08 3.24-4.74 3.82-6.12 1.08 1.55-4.17-1.41-8.17-4.01-11.17-3.5-3.44-7.53-6.47-12.24-8.03 1.7-1 3.39-2.06 5.21-2.86 3.43 1.04 6.7 2.58 10.05 3.86 1.44-2.69 2.83-5.39 4.2-8.12z"/>
        <path d="M19.06 72.02c3.43-5.07 11.77-4.03 14.83.94 2.45 3.06 1.33 7.35 3.36 10.59.88 1.31 2.02 2.41 3.07 3.57 5.77.67 7.05-7.12 12.54-7.4 7.94-1.06 16.2-1.26 24.08.34 4.64.7 5.72 7.78 10.91 6.89 3.74-1.76 4.7-6.28 5.18-10 .62-5.38 6.6-9.44 11.83-8.05 2.88.57 6.09 3.41 4.56 6.59-2.31 3.63-5.91 6.62-6.86 11.02-1.78 4.85.89 9.72.44 14.63-.35 5.45-5.5 10.16-10.99 9.9-7.88.22-14.2-5.42-19.82-10.24-3.61-3.37-9.41-3.81-13.68-1.55-5.48 3.95-10.32 9.14-16.96 11.15-5.04 1.63-11.65.55-14.45-4.39-2.13-3.31-1.9-7.41-1.07-11.09 1.02-4.83.26-10.17-2.89-14.1-1.95-2.59-5.34-5.12-4.08-8.8m1.08 2.32c.65.18 1.94.54 2.59.71 4.48 4.02 7.63 9.82 7.31 15.96.33 4.31-2.62 8.95.05 12.96 2.1 3.84 7.24 4.12 10.97 2.86 5.46-1.98 9.6-6.2 14.12-9.65 5.88-4.5 14.94-3.74 20.08 1.54 4.61 3.82 9.5 8.26 15.75 8.78 3.26.32 6.72-1.44 7.92-4.58 1.63-4.88-1.41-9.86-.32-14.83.42-4.46 2.84-8.39 5.67-11.75.83-1.2 2.28-1.33 3.6-1.58-.31-.4-.91-1.2-1.21-1.61-3.29-1.88-7.47-1.02-9.46 2.3-1.3 3.24-.89 6.99-2.91 9.98-1.81 4.09-6.8 6.56-10.99 4.5-3.32-1.68-4.58-5.99-8.41-6.72-6.95-.82-13.99-.73-20.95-.08-4.27.65-5.65 5.84-9.7 7.03-1.92.98-4.04.29-6-.17-2.12-1.92-4.27-4.06-5.13-6.88-1.39-3.33-.43-7.98-4.2-9.92-2.78-2.37-6.19-.49-8.78 1.15z"/>
    </g>
    <path fill="#fbfbfb" d="M57.74 73.17c3.41-2.97 8.63-3.05 12.19-.31-4.05.4-8.12.39-12.19.31z"/>
</svg>
