<svg width="128pt" height="128pt" viewBox="0 0 128 128" xmlns="http://www.w3.org/2000/svg">
    <path fill="#ce2931" d="M43.67 29.06c2.2-5.69 6.82-11.03 13.15-11.95-2.78 3-4.73 6.63-5.38 10.7-2.6.35-5.19.77-7.77 1.25z"/>
    <path fill="#bd2426" d="M68.54 16.7c5.84.97 10.8 5.17 13.16 10.54 2.04 4.03 2.15 8.63 2.67 13.03-1.12-1.11-2.16-2.78-3.96-2.69-1.62.43-3.1 1.23-4.63 1.87.93-8.18-.96-17.03-7.24-22.75z"/>
    <path fill="#bb2429" d="M43.67 29.06c2.58-.48 5.17-.9 7.77-1.25-.76 5.02-.87 10.09-.44 15.15.01.79.01 2.37.02 3.15-1.14-.56-2.27-1.12-3.41-1.67-.04-3.4-.03-6.8.21-10.19-2.06.76-4.15 1.45-6.25 2.08.53-2.47 1.25-4.89 2.1-7.27z"/>
    <path fill="#9f2023" d="M41.57 36.33c2.1-.63 4.19-1.32 6.25-2.08-.24 3.39-.25 6.79-.21 10.19-2.25-1.11-4.5-2.23-6.72-3.38.11-1.59.34-3.17.68-4.73z"/>
    <g fill="#9c2029">
        <path d="M75.78 39.45c1.53-.64 3.01-1.44 4.63-1.87 1.8-.09 2.84 1.58 3.96 2.69-2.96 2.6-6.7 4.05-10.03 6.1.49-2.31.96-4.61 1.44-6.92zM18.69 54.75c.24-2.33.48-4.66 1.09-6.92-.28 3.06-.2 6.13.29 9.16-.2 1.21-.43 2.4-.68 3.6l-2.32.52c-.06-.5-.19-1.48-.25-1.98-.07-1.65-.08-3.3-.07-4.95.48.14 1.46.42 1.94.57z"/>
    </g>
    <path fill="#ad2326" d="M52.9 46.32c1.42-2.2 1.83-5.42 4.18-6.79 5.11-.41 10.29-.46 15.37.24.2 2.92.47 5.83.83 8.74-1.58 1.5-3.45 1.13-5.16.08l2.44-1c-.15-1.04.4-2.45-.7-3.08-3.61.46-7.05 1.71-10.5 2.79-2.6.67-3.89 3.33-6.35 4.3-.69-.47-1.38-.94-2.07-1.4-1.65.69-3.29 1.4-4.93 2.1-2.73-2.31-5.82-4.14-9.19-5.33 1-.81 2.1-1.48 3.28-1.98.56-.25 1.68-.76 2.23-1.01 3.21 1.4 6.49 2.62 9.72 4 .21-.42.64-1.24.85-1.66z"/>
    <path fill="#300c0c" opacity=".6" d="M21.07 42.37c.53-1.19 1.39-1.62 2.59-1.31.16 1.19-.4 1.84-1.68 1.97l-.7-.09-.21-.57z"/>
    <path fill="#0e0303" opacity=".32" d="M40.89 41.06c2.22 1.15 4.47 2.27 6.72 3.38 1.14.55 2.27 1.11 3.41 1.67-.01-.78-.01-2.36-.02-3.15.65 1.11 1.28 2.24 1.9 3.36-.21.42-.64 1.24-.85 1.66-3.23-1.38-6.51-2.6-9.72-4-.55.25-1.67.76-2.23 1.01 1.09-1.16 1.87-2.44.79-3.93z"/>
    <g fill="#c62831">
        <path d="M104.04 41.24c2.77 1.48 4.87 3.93 6.26 6.72 1.85 4.63.41 9.45.2 14.2-.2-1.67-.56-3.45-2.55-3.73l.12-.14c.27-.32.82-.96 1.09-1.28-.06-3.07.12-6.24-.88-9.19-.78-2.56-2.63-4.53-4.24-6.58zM16.73 51.48c.34-3.27 1.97-6.48 4.55-8.54l.7.09c-.82 1.56-1.68 3.11-2.2 4.8-.61 2.26-.85 4.59-1.09 6.92-.48-.15-1.46-.43-1.94-.57-.01-.68-.01-2.03-.02-2.7zM98.67 69.43l2.56-.48c.65-.01 1.95-.03 2.61-.05 2.18-.52 3.82 1.39 5.5 2.42l-.19.91c-.32 1.16-.36 2.33-.12 3.5l.15.95c-.41.29-1.24.86-1.66 1.14-1.27.61-2.18 1.69-2.45 3.09-.43 1.17-1.13 2.22-1.74 3.31-1.18-.37-2.36-.73-3.54-1.08 1.33-2.72 3.01-5.25 5.02-7.51 1.12-.41 2.25-.79 3.37-1.19-2.03-2.16-5.51-3.4-8.16-1.61-.79.64-1.55 1.31-2.3 2.01-.91.43-1.85.82-2.8 1.17-.43.03-1.31.1-1.74.13.65-2.82 2.59-5.3 5.2-6.56.07-.04.22-.11.29-.15zM58 95.33c.7-.16 2.1-.48 2.79-.64.94.09 2.81.26 3.75.34-.44.98-.87 1.96-1.32 2.93-1.9-.09-3.66.65-5.32 1.48-.22-.72-.43-1.45-.64-2.17.19-.48.55-1.45.74-1.94zM53.77 98.27c.51-.31 1.53-.92 2.04-1.23.23 1.3.44 2.6.64 3.9-.99.75-1.96 1.52-2.91 2.31l-.28.24c-5.89 4.94-13.83 9.87-21.73 6.7.67-4.35 6-.84 8.68-2.97 1.06-.44 2.1-.94 3.11-1.47.13-.08.39-.22.53-.29 3.49-1.84 6.46-4.47 9.52-6.92.1-.06.3-.2.4-.27z"/>
    </g>
    <path fill="#9a1d23" d="M59.36 47.3c3.45-1.08 6.89-2.33 10.5-2.79 1.1.63.55 2.04.7 3.08l-2.44 1c1.71 1.05 3.58 1.42 5.16-.08.53-.32 1.6-.96 2.14-1.29.9.59 1.81 1.17 2.72 1.75-1.04.65-2.01 1.38-2.94 2.17-1.68.37-3.3.93-4.82 1.74-2.64-.15-5.25-.66-7.84-1.18l-1.6 1.04c-.69-.47-1.37-.94-2.06-1.4-.59.76-1.18 1.53-1.76 2.29-2.26 1.05-4.58 1.98-6.92 2.81-1.21-1.56-2.65-2.92-4.19-4.14 1.64-.7 3.28-1.41 4.93-2.1.69.46 1.38.93 2.07 1.4 2.46-.97 3.75-3.63 6.35-4.3z"/>
    <g fill="#84191b">
        <path d="M75.17 47.06c2.96-1.28 5.81-2.81 8.76-4.11 2.28 1.18 4.62 2.25 6.85 3.52-.03.2-.08.6-.11.81-6.18 1.95-11.42 6.44-14.98 11.79-1.84-2-3.6-4.08-5.31-6.19 1.52-.81 3.14-1.37 4.82-1.74.93-.79 1.9-1.52 2.94-2.17-.91-.58-1.82-1.16-2.72-1.75l-.25-.16zM44.18 57.17c1.95 1.51 3.65 3.3 5.12 5.29-.61.92-1.21 1.85-1.82 2.78-1.03-1.69-2.26-3.25-3.56-4.75.07-.83.19-2.49.26-3.32zM20.99 67.9c.85-3.3 2.09-6.56 4.88-8.7.28.56.83 1.68 1.11 2.24.13.28.4.82.54 1.1.41.26 1.24.79 1.66 1.05-1.64.2-3.27.41-4.9.62-.15.61-.43 1.83-.58 2.43-.67.32-2.03.94-2.71 1.26z"/>
    </g>
    <g fill="#471010">
        <path d="M108.28 47.82c1 2.95.82 6.12.88 9.19-.27.32-.82.96-1.09 1.28.57-3.46.89-6.99.21-10.47zM110.3 47.96c2.49 5.23 1.74 11.54.03 16.91.08-.9.13-1.8.17-2.71.21-4.75 1.65-9.57-.2-14.2zM52.74 60.31c4.5-.15 8.61-2.32 13.04-2.69 2.72 1.66 5.71 2.73 8.85 3.31-.44 2.23 1.15 5.91-1.79 6.83-1.67.77-4.89-.51-3.97-2.77.57-.09 1.7-.29 2.26-.39-.79-1.06-1.34-2.79-3.01-2.51-1.68.86-4.17 3.19-2.28 5.05 2.12 2.13 5.46 1.86 8.21 1.57 1.92-.87 2.44-3.19 3.57-4.8l2.16 2.28c-.26.87-.53 1.74-.8 2.6-2.25 1.46-4.39 3.11-6.77 4.37-2.56-2-5.63-3.74-8.98-3.55-3.1.06-5.53 2.18-8.05 3.7-3.08-2.17-6.95-3.96-7.7-8.07.61-.93 1.21-1.86 1.82-2.78 1.11 1.7 2.1 3.48 2.92 5.34 2.81 1.66 6.6 1.48 9.34-.26 2.84-1.98-1.33-7.19-3.85-4.78-.22.43-.66 1.29-.87 1.73.52.14 1.56.42 2.09.57 1.63 3.11-5.55 4.19-5.66 1.01-.03-1.93-.11-3.87-.53-5.76zM52.81 87.9l.82.36c.06.46.19 1.37.26 1.82-.27-.54-.81-1.63-1.08-2.18z"/>
    </g>
    <path fill="#350d0d" opacity=".59" d="M16.52 50.83l.21.65c.01.67.01 2.02.02 2.7-.01 1.65 0 3.3.07 4.95-1.04-2.65-1.02-5.57-.3-8.3z"/>
    <g fill="#6b1416">
        <path d="M58.88 51.34c.69.46 1.37.93 2.06 1.4l1.6-1.04c2.59.52 5.2 1.03 7.84 1.18 1.71 2.11 3.47 4.19 5.31 6.19-.19.49-.55 1.46-.74 1.94l-.32-.08c-3.14-.58-6.13-1.65-8.85-3.31-4.43.37-8.54 2.54-13.04 2.69-.86-1.29-1.71-2.58-2.54-3.87 2.34-.83 4.66-1.76 6.92-2.81.58-.76 1.17-1.53 1.76-2.29zM20.07 56.99c2.31 3.4.56 7.07-.25 10.62-1.7-1.76-1.92-4.31-2.75-6.5l2.32-.52c.25-1.2.48-2.39.68-3.6z"/>
    </g>
    <path fill="#60161b" opacity=".77" d="M32.83 55.69c2.66-1.16 5.61-1.03 8.28.02-2.76-.17-5.52-.16-8.28-.02z"/>
    <path fill="#79181b" d="M77.62 63.91c2.74-4.87 7.52-9 13.35-9.03 5.6.66 11.36 3.3 14.4 8.24l-.13 1.11c-1.96.14-3.91.32-5.88.32-.22-.22-.65-.66-.86-.87.64-.51 1.92-1.52 2.56-2.03-2.8-3-6.9-5.09-11.09-4.46-4.67 1.07-7.93 5.02-10.19 9l-2.16-2.28z"/>
    <g fill="#ad2429">
        <path d="M25.87 59.2c2.12-1.52 4.44-2.78 6.96-3.51 2.76-.14 5.52-.15 8.28.02 1.04.45 2.06.93 3.07 1.46-.07.83-.19 2.49-.26 3.32-2.49-2.05-5.7-3.67-9.01-3.07-3.01.4-5.52 2.31-7.93 4.02-.28-.56-.83-1.68-1.11-2.24zM98.63 103.78c2.08-6.77-2.41-13.99 1.16-20.64 1.18.35 2.36.71 3.54 1.08-.54 1.92-.96 3.87-1.47 5.79-1.26.73-1.22 1.35.11 1.88 1 4.68 2.39 10.27-.85 14.42-.83-.84-1.66-1.69-2.49-2.53z"/>
    </g>
    <g fill="#de2c39">
        <path d="M87.84 59.82c2.19-.69 4.53-.95 6.73-.17.06 1.08.12 2.16.19 3.25-.45-.44-1.36-1.32-1.81-1.76-1.71-.07-3.42.07-5.08.51 1.45-1.08 3.31-1.02 5.02-1.21-1.69-.19-3.36-.42-5.05-.62zM31.94 94.37c.61.87 1.24 1.72 1.89 2.56l.12 1.27c.24.46.73 1.38.98 1.84l1.32 2.08c.55.95 1.09 1.91 1.63 2.88l-3.97.12-.76.02c-.28-.64-.84-1.92-1.13-2.56.07-1.75.04-3.5-.1-5.24 0-.74.01-2.23.02-2.97z"/>
    </g>
    <path fill="#561214" opacity=".94" d="M107.95 58.43c1.99.28 2.35 2.06 2.55 3.73-.04.91-.09 1.81-.17 2.71-.23 1.33-1.01 2.44-1.8 3.5-.94-3.25-2.6-6.74-.58-9.94z"/>
    <path fill="#e82f37" d="M29.35 62.73c1.65-1.54 3.3-3.46 5.74-3.59 3.55-.51 6.77 1.55 9.02 4.1l.01.62c.02.57.04 1.73.05 2.3-.44-.19-1.31-.58-1.75-.78-.9-1.51-1.86-3.03-3.56-3.74-1.34-.9-3.52-1.24-4.78-.09-.81.89-1.42 1.9-1.84 3.05-.73-.47-2.17-1.4-2.89-1.87z"/>
    <path fill="#d02b33" opacity=".97" d="M82.46 66.94c.12-3.21 2.16-6.37 5.38-7.12 1.69.2 3.36.43 5.05.62-1.71.19-3.57.13-5.02 1.21-1.94 1.66-2.81 4.45-5.41 5.29z"/>
    <g fill="#b52431">
        <path d="M94.57 59.65c1.26 1.2 2.6 2.44 3.03 4.21-.69.15-2.06.43-2.75.58l-.09-1.54c-.07-1.09-.13-2.17-.19-3.25zM76.3 99.49c2.55 2.09 5.18 4.11 8.02 5.8-.57 1.13-1.21 2.22-1.93 3.24-1.72-1.3-4.2-1.98-5.21-3.99-.28-1.21-.99-1.74-2.13-1.59l-.66.05c-1.07-1.01-2.15-2.01-3.23-3.01 1.72-.16 3.43-.32 5.14-.5z"/>
    </g>
    <path fill="#200607" opacity=".43" d="M34.08 61.55c1.26-1.15 3.44-.81 4.78.09-1.3.99-3.54 1.01-4.78-.09z"/>
    <path fill="#571315" opacity=".93" d="M98.25 63.43l.25.25c.21.21.64.65.86.87 1.97 0 3.92-.18 5.88-.32l.53-.05c.31 1.13.62 2.25.94 3.38-2.6-.76-5.39-1.6-8.1-.82-2.63.75-4.37 3.01-6.48 4.6-.47-.21-1.4-.61-1.86-.81.46-.99.93-1.97 1.39-2.95-.42-.31-1.26-.91-1.68-1.21 2.73-.06 5.5-.66 7.62-2.51.16-.11.49-.33.65-.43z"/>
    <path fill="#6e1516" d="M24.28 64.21c1.63-.21 3.26-.42 4.9-.62 3.62 2.79 8.46 3.85 12.8 2.23l.44-.44c.44.2 1.31.59 1.75.78-.01-.57-.03-1.73-.05-2.3.48 1.02.81 2.09 1 3.2l-1.27-.03c-2.62-.13-5.24.01-7.86.12 2.47 1.18 3.73 3.59 4.78 5.99 2.08.46 4.14 1.14 6.28 1.13.39-1.19.74-2.39 1.06-3.59 3.51 1.51 6.94 3.86 10.92 3.61 1.46.31 4.49-.7 4.36 1.79-5.21.03-10.8.01-15.42 2.77-2.38 1.27-3.42 3.9-5.31 5.69-3.27 1-4.72-3.14-5.13-5.65-.2-4.94-2.92-10.09-7.6-12.11-2.06-.3-4.15-.14-6.23-.14.15-.6.43-1.82.58-2.43z"/>
    <path fill="#911d1e" d="M80.91 73.32c-1.16-4.65 4.31-7.71 8.33-7.49-.57 1.32-1.14 2.64-1.73 3.95.21.15.63.44.85.59-1.3 2.66-1.17 5.77-2.59 8.4-1.19-2.2-3.42-3.49-4.86-5.45z"/>
    <path fill="#7b1818" d="M89.24 65.83l.74.54c.42.3 1.26.9 1.68 1.21-.46.98-.93 1.96-1.39 2.95.46.2 1.39.6 1.86.81-2.81 4.11.2 10.66-5.18 13.34-2.7-1.85-4.07-5.13-6.9-6.8-4.83-2.17-10.28-1.7-15.43-1.78.08-2.32 2.88-1.54 4.36-1.92 3.98-.08 7.33-2.43 10.96-3.74.24.72.73 2.16.97 2.88 1.44 1.96 3.67 3.25 4.86 5.45 1.42-2.63 1.29-5.74 2.59-8.4-.22-.15-.64-.44-.85-.59.59-1.31 1.16-2.63 1.73-3.95z"/>
    <path fill="#9a1f21" d="M35.99 67.15c2.62-.11 5.24-.25 7.86-.12 1.27 1.13 2.37 2.43 3.49 3.69-.07.89-.22 2.66-.29 3.55-2.14.01-4.2-.67-6.28-1.13-1.05-2.4-2.31-4.81-4.78-5.99z"/>
    <path fill="#230808" opacity=".54" d="M101.23 68.95c-.58-1.7 3.2-1.76 2.61-.05-.66.02-1.96.04-2.61.05z"/>
    <g fill="#ce2831">
        <path d="M18.99 76.45c-2.35-6.27 6.1-9.7 10.75-6.97 3.81 1.53 5.91 5.49 6.16 9.44.23 3.17 2.05 5.91 4.38 7.97.71.01 2.12.04 2.82.05 2.25-1.7 4-3.93 6.07-5.81 3.17-2.09 7.19-1.76 10.82-2.18 5.65-.13 11.42-.23 16.95 1.05 4.73.8 5.68 7.77 10.98 6.99-2.46 1.52-5.42.53-8.07.23-.27-.39-.81-1.18-1.08-1.58-1.39-2.2-4.06-2.82-6.5-2.69-5.18-.44-10.4-.44-15.59-.03-1.4.06-2.81.18-4.18.53-1.6.91-2.69 2.45-3.91 3.78l-.39.39c-2.36 2.37-5.91 4.06-9.2 2.58-4.57-2.23-6.57-7.46-7.09-12.24-.21-3.06-2.99-5.47-5.94-5.81-1.99-.02-3.72 1.15-5.51 1.87-.29.48-.87 1.45-1.16 1.93l-.31.5z"/>
        <path d="M67 89.08c.74-1.4 1.55-2.76 2.37-4.12.63 3.12 1.31 6.22 2.14 9.3-1.64-.6-3.32-1.07-5.05-1.22-.34-.05-1-.15-1.33-.2.62-1.25 1.23-2.51 1.87-3.76zM84.32 105.29c.76.38 1.54.73 2.32 1.06.56.25 1.68.76 2.24 1.01 0 1.01-.16 2-.47 2.98-.63-.03-1.89-.07-2.52-.1-1.2-.51-2.34-1.12-3.5-1.71.72-1.02 1.36-2.11 1.93-3.24z"/>
    </g>
    <path fill="#250809" opacity=".57" d="M98.38 69.58c.07-.04.22-.11.29-.15-.07.04-.22.11-.29.15z"/>
    <path fill="#e43137" d="M57.96 73.37c2.78-3.31 8.86-3.4 11.92-.31-3.97.22-7.95.14-11.92.31z"/>
    <path fill="#2a0a0b" opacity=".49" d="M100.02 72.83c2.65-1.79 6.13-.55 8.16 1.61-1.12.4-2.25.78-3.37 1.19.33-.48.98-1.44 1.31-1.93-1.8-1.29-4.02-1.22-6.1-.87z"/>
    <path fill="#5e1414" opacity=".75" d="M109.15 72.23c1.72-.23 1.52 3.81-.12 3.5-.24-1.17-.2-2.34.12-3.5z"/>
    <g fill="#d62c31">
        <path d="M19.3 75.95c.29-.48.87-1.45 1.16-1.93 1.3.72 2.6 1.45 3.77 2.36.1.09.29.27.38.36.96 1.17 1.86 2.38 2.71 3.63.06.11.18.32.25.43 2.48 4.56 3.2 9.99 1.98 15.05-.77 3.3-.86 7.29 1.86 9.76 2.36 2.28 5.83 1.83 8.8 1.61-2.68 2.13-8.01-1.38-8.68 2.97-2.56-1.44-4.49-3.59-5.68-6.28l.1-1.27c.22-2.08.15-4.17.03-6.25l.24-2.33c.49-2.26.95-4.52 1.35-6.79-.43-.04-1.29-.11-1.72-.15l.17-1.27c-.21-.47-.64-1.42-.85-1.9-1.77-2.8-3.93-5.32-5.87-8zM54.28 84.84c.91-.15 1.82-.31 2.72-.48-.75 2.81-1.49 5.63-2.21 8.45-.33-.9-.63-1.81-.9-2.73-.07-.45-.2-1.36-.26-1.82l-.82-.36c-.6-1.58-.78-3.09 1.47-3.06z"/>
    </g>
    <g fill="#b52829">
        <path d="M94.92 76.01c.95-.35 1.89-.74 2.8-1.17-.25.49-.75 1.49-1 1.98-1.09.96-1.22 2.06-.38 3.32-.9 4.27-3.11 8.55-7.32 10.36-1.51-.93-3.46-1.08-5.04-.22-1.44-.93-2.86-1.9-4.13-3.06 2.65.3 5.61 1.29 8.07-.23.32-.2.96-.61 1.28-.82.96-.46 1.57-1.2 1.83-2.21.65-1.69 1.1-3.46 2-5.03 1.12-.48 2.42-1.54 1.89-2.92zM60.4 84.32c2.26-.11 4.51-.18 6.77-.17-.08 1.32-.55 2.55-1.47 3.51l-1.73-3.02c-.39.86-1.17 2.6-1.56 3.47-.67-1.27-1.34-2.53-2.01-3.79z"/>
    </g>
    <path opacity=".43" d="M24.23 76.38c.1.09.29.27.38.36-.09-.09-.28-.27-.38-.36zM48.2 87.62l.39-.39-.39.39zM43.32 105.75c.13-.08.39-.22.53-.29-.14.07-.4.21-.53.29zM99.21 108.51c.07-.07.22-.2.3-.26-.08.06-.23.19-.3.26z"/>
    <path fill="#ef3039" d="M93.18 76.14c.43-.03 1.31-.1 1.74-.13.53 1.38-.77 2.44-1.89 2.92.04-.7.11-2.09.15-2.79z"/>
    <path fill="#340c0d" opacity=".56" d="M96.34 80.14c-.84-1.26-.71-2.36.38-3.32.68 1.19.55 2.3-.38 3.32z"/>
    <path fill="#440d10" opacity=".61" d="M105.07 80.91c.27-1.4 1.18-2.48 2.45-3.09 1.11 1.31-.96 3.97-2.45 3.09z"/>
    <path fill="#030503" opacity=".45" d="M27.32 80.37c.06.11.18.32.25.43-.07-.11-.19-.32-.25-.43z"/>
    <path fill="#160505" opacity=".33" d="M52.5 83.45c1.37-.35 2.78-.47 4.18-.53 5.12.82 10.48 1.01 15.59.03 2.44-.13 5.11.49 6.5 2.69-1.03.33-2.05.67-3.07 1.04.02-.35.05-1.05.07-1.4-1.46-.28-2.93-.52-4.4-.77.59 2.34 1.14 4.69 1.7 7.04-.62 1.39-1.27 2.76-1.92 4.14-1.04-.34-2.08-.66-3.13-.97l-.86-.9-.7-.78c1.73.15 3.41.62 5.05 1.22-.83-3.08-1.51-6.18-2.14-9.3-.82 1.36-1.63 2.72-2.37 4.12-.44-.47-.87-.94-1.3-1.42.92-.96 1.39-2.19 1.47-3.51-2.26-.01-4.51.06-6.77.17.67 1.26 1.34 2.52 2.01 3.79-.37.63-.75 1.27-1.14 1.89-.84-1.75-1.72-3.48-2.63-5.2-.35 3.01-1.94 5.96-1.52 9.01 1.85.34 3.53-.85 5.26-1.3.17.42.5 1.25.67 1.67-.57.13-1.69.39-2.26.51-.69.16-2.09.48-2.79.64-.19.49-.55 1.46-.74 1.94.21.72.42 1.45.64 2.17 1.66-.83 3.42-1.57 5.32-1.48l2.26-.04c1.28.09 2.5.4 3.66.92-4.4-.8-8.89-.38-12.69 2.1-.2-1.3-.41-2.6-.64-3.9.25-.44.74-1.33.98-1.77-.66-.83-1.32-1.65-2-2.46.72-2.82 1.46-5.64 2.21-8.45-.9.17-1.81.33-2.72.48-.44-.35-1.33-1.04-1.78-1.39z"/>
    <path fill="#511013" opacity=".72" d="M25.17 83.95c.21.48.64 1.43.85 1.9l-.88-.11-.44-.97.47-.82z"/>
    <g fill="#ce2839">
        <path d="M71.37 84.51c1.47.25 2.94.49 4.4.77-.02.35-.05 1.05-.07 1.4-.69 2.08-1.39 4.16-2.13 6.23-.13-.34-.38-1.02-.5-1.36-.56-2.35-1.11-4.7-1.7-7.04zM66.38 95.49c.41-.19 1.23-.58 1.64-.77 1.05.31 2.09.63 3.13.97 1.85 1.08 3.52 2.43 5.15 3.8-1.71.18-3.42.34-5.14.5-.5-.29-1.51-.87-2.02-1.15-1.16-.52-2.38-.83-3.66-.92.23-.61.68-1.82.9-2.43z"/>
    </g>
    <path fill="#100303" opacity=".38" d="M89.2 86.17c-.49-1.74.12-2.48 1.83-2.21-.26 1.01-.87 1.75-1.83 2.21z"/>
    <g fill="#d62c39">
        <path d="M58.64 84.8c.91 1.72 1.79 3.45 2.63 5.2.27.63.83 1.88 1.11 2.51-1.73.45-3.41 1.64-5.26 1.3-.42-3.05 1.17-6 1.52-9.01zM97.86 104.7l.77-.92c.83.84 1.66 1.69 2.49 2.53l.24.23c-.46.43-1.39 1.28-1.85 1.71-.08.06-.23.19-.3.26-.89.8-1.9 1.43-3.01 1.88-2.56.58-5.19.68-7.81.68l.4-1.88c.51.2 1.53.61 2.04.81-.19-.46-.56-1.37-.75-1.83 2.73-.82 6.1-.74 7.78-3.47z"/>
    </g>
    <path fill="#71171c" opacity=".82" d="M25.85 87.12c.43.04 1.29.11 1.72.15-.4 2.27-.86 4.53-1.35 6.79.02-2.32-.09-4.64-.37-6.94z"/>
    <path fill="#d62831" d="M34.06 89.2c1.25 1.29 2.3 2.94 4.03 3.64 3.08 1.52 6.5-.14 9.38-1.32-2.58 2.93-3.28 6.94-2.62 10.69-6.86.18-9.11-7.73-10.79-13.01z"/>
    <path fill="#450d11" opacity=".69" d="M83.98 90.28c1.58-.86 3.53-.71 5.04.22-1.49 1.06-3.62.94-5.04-.22z"/>
    <path fill="#ef3031" d="M101.97 91.89c-1.33-.53-1.37-1.15-.11-1.88.02.47.08 1.41.11 1.88z"/>
    <path fill="#140505" opacity=".43" d="M82.03 92.65c-2.93 1.43-1.18-4 .13-.82l-.13.82z"/>
    <path fill="#aa2424" d="M88.98 93.47c1.94-.99 3.63-2.37 5.1-3.97-1.35 5.44-4.13 12.53-10.69 12.95.68-3.38-.25-6.65-1.36-9.8l.13-.82c.51.34 1.53 1.02 2.03 1.36l.64-.16 1.11.4c.75 1.12 2.19.92 3.04.04z"/>
    <path fill="#370c0d" opacity=".55" d="M31.94 94.37c-.15-3.66 4.17.82 1.89 2.56-.65-.84-1.28-1.69-1.89-2.56z"/>
    <path fill="#ff3831" d="M84.19 93.19l.64-.16-.64.16z"/>
    <path fill="#460e0e" opacity=".73" d="M85.94 93.43l.86-.61c.55.16 1.64.49 2.18.65-.85.88-2.29 1.08-3.04-.04z"/>
    <path fill="#841b20" opacity=".89" d="M60.79 94.69c.57-.12 1.69-.38 2.26-.51 1.36-.17 2.74-.29 4.11-.36l.86.9c-.41.19-1.23.58-1.64.77-.22.61-.67 1.82-.9 2.43l-2.26.04c.45-.97.88-1.95 1.32-2.93-.94-.08-2.81-.25-3.75-.34z"/>
    <path fill="#af2021" d="M95.33 93.1c.28.66.82 1.96 1.1 2.62.41 3.31.83 7.1-1.9 9.59-1.92.27-3.85.43-5.79.47.54-.65 1.62-1.94 2.16-2.59 1.23-.4 1.92-1.25 2.08-2.56 1.15-2.38 1.79-4.96 2.35-7.53z"/>
    <path fill="#4f0f13" opacity=".63" d="M25.95 102.64c-1.78-.5-1.8-5.81.03-6.25.12 2.08.19 4.17-.03 6.25z"/>
    <path fill="#380b0c" opacity=".49" d="M96.43 95.72c1.25 2.93.71 6.08-.17 9.03l1.6-.05c-1.68 2.73-5.05 2.65-7.78 3.47.19.46.56 1.37.75 1.83-.51-.2-1.53-.61-2.04-.81l-.4 1.88c2.62 0 5.25-.1 7.81-.68-3 1.81-7.22 1.31-10.31-.15.63.03 1.89.07 2.52.1.31-.98.47-1.97.47-2.98-.56-.25-1.68-.76-2.24-1.01.42-.05 1.26-.17 1.68-.23 1.59.41 3.19.84 4.85.92.34-.43 1.02-1.3 1.36-1.73 2.73-2.49 2.31-6.28 1.9-9.59z"/>
    <path fill="#511114" opacity=".65" d="M32.02 102.58c-1.91.01-1.9-5.18-.1-5.24.14 1.74.17 3.49.1 5.24z"/>
    <path fill="#521114" opacity=".64" d="M33.95 98.2l.89.05.51.95-.42.84c-.25-.46-.74-1.38-.98-1.84z"/>
    <path fill="#521113" opacity=".71" d="M53.37 98.54c.1-.06.3-.2.4-.27-.1.07-.3.21-.4.27z"/>
    <path fill="#170504" opacity=".42" d="M90.9 103.19c-.16-1.54.53-2.39 2.08-2.56-.16 1.31-.85 2.16-2.08 2.56z"/>
    <g>
        <path fill="#6a1619" opacity=".72" d="M36.25 102.12c1.34 1.13 2.7 2.26 3.75 3.68-2.05.26-4.33.72-6.09-.68l3.97-.12c-.54-.97-1.08-1.93-1.63-2.88z"/>
    </g>
    <g>
        <path opacity=".44" d="M53.26 103.49l.28-.24-.28.24z"/>
    </g>
    <g>
        <path fill="#661516" opacity=".81" d="M75.05 102.95c1.14-.15 1.85.38 2.13 1.59-1.57.46-2.28-.07-2.13-1.59z"/>
    </g>
</svg>
