<svg width="128pt" height="128pt" viewBox="0 0 128 128" xmlns="http://www.w3.org/2000/svg">
    <path fill="#631417" opacity=".76" d="M42.67 35.9c4.42-1.95 9.68-.47 14.43-.81-.96 1.48-2.96 1.06-4.43 1.53l-1.07.88c-1.11.22-2.23.39-3.36.32-.43-.22-1.28-.66-1.7-.88-.06-.03-.18-.09-.23-.12l.05.19-1.59-.47c-.53-.16-1.58-.48-2.1-.64z"/>
    <path fill="#921d23" d="M63.41 35.71c1.65-.6 3.41-.64 5.14-.49 2.77 1.21 5.22 3.05 7.05 5.46-2.43.23-4.87.37-7.31.58-.12-.58-.37-1.74-.5-2.32-1.47-1.07-2.93-2.15-4.38-3.23z"/>
    <path fill="#430e12" opacity=".84" d="M68.55 35.22c2.36-.26 4.77.17 6.61 1.77.86.6 1.72 1.2 2.58 1.81-.71.63-1.42 1.25-2.14 1.88-1.83-2.41-4.28-4.25-7.05-5.46z"/>
    <path fill="#220708" opacity=".47" d="M75.16 36.99c1.83-.79 3.75-1.4 5.77-1.28 5.45.07 11.14-.19 16.27 1.93-5.7-.97-11.48-1.56-17.27-1.58-.6 1.24-1.21 2.47-1.83 3.71 1.25.42 2.5.86 3.75 1.31 1.48-.2 2.96-.4 4.44-.61-.29.62-.87 1.87-1.15 2.5-1.76-.6-3.56-1.23-5.43-1.21-.97.06-2.92.19-3.89.25-3.39.33-6.77.72-10.15 1.12.62.29 1.85.86 2.47 1.14l-2.07 3.54-.9-1.86c-.16-.36-.49-1.07-.66-1.43.41-1.96 1.58-3.47 3.78-3.26 2.44-.21 4.88-.35 7.31-.58.72-.63 1.43-1.25 2.14-1.88-.86-.61-1.72-1.21-2.58-1.81z"/>
    <g fill="#b82426">
        <path d="M39.97 36.91c.67-.25 2.02-.76 2.7-1.01.52.16 1.57.48 2.1.64-1.16.57-2.36 1.06-3.6 1.47-.87.09-1.27-.28-1.2-1.1zM51.6 37.5c3.25-.64 6.57-.95 9.72-2.06.52.07 1.57.2 2.09.27 1.45 1.08 2.91 2.16 4.38 3.23.13.58.38 1.74.5 2.32-2.2-.21-3.37 1.3-3.78 3.26.17.36.5 1.07.66 1.43-.38.22-1.14.68-1.52.9-1.83-.45-3.71-1.09-5.62-.65-3.97.83-8.14-.02-11.99 1.43-.11 2.42-.29 4.83-.49 7.24 3.62 5.25 7.52 10.29 11.01 15.62-1.15-.42-2.28-.85-3.42-1.29.5 3.31.85 6.64.88 9.98-1.02-.76-2.05-1.52-3.07-2.29-.29-4.11-1.12-8.19-2.49-12.08.48 4.02.53 8.07.56 12.11-.39-.18-1.15-.55-1.53-.73-.5 1.2-.98 2.41-1.46 3.62.16-4.5.18-9.04-.62-13.49-.18 1.71-.32 3.41-.4 5.13-1.06 1.32-2.07 2.68-3.01 4.09.06-2.07-.15-4.13-.5-6.16-.47 2.61-.9 5.23-1.62 7.78l-3.56.96c.57-1.75 1.13-3.51 1.53-5.32-.79 1.62-1.52 3.27-2.23 4.93l-.27-.57c-1.47-3.22-3.46-6.18-4.69-9.52 2.13-2.62 4.22-5.28 5.79-8.28.4.99.81 1.97 1.24 2.94-1.11-4.72 2.21-8.32 4.79-11.75.62-3.68 1.66-8.62-1.88-11.2 2.04-2.09 5-1.66 7.64-1.53 1.13.07 2.25-.1 3.36-.32zM79.93 36.06c5.79.02 11.57.61 17.27 1.58 2.5.66 4.85 1.77 7.15 2.93l.08.04c3.62 1.84 6.04 5.27 7.53 8.96-.71-.24-2.12-.72-2.82-.96l1.06-.34c-2.86-3.93-7.26-6.33-11.93-7.42-1.4-.35-2.82-.58-4.24-.8-1.63-.34-3.31-.28-4.94.02-.93.13-1.87.26-2.8.4-1.48.21-2.96.41-4.44.61-1.25-.45-2.5-.89-3.75-1.31.62-1.24 1.23-2.47 1.83-3.71zM88.27 50.64c4.41-.13 8.87.02 13.2.98-3.75 3.73-8.88 5.18-14 5.67.23-2.22.51-4.43.8-6.65z"/>
    </g>
    <path fill="#af2126" opacity=".93" d="M46.31 36.82c.05.03.17.09.23.12l-.18.07-.05-.19z"/>
    <g fill="#9c2021">
        <path d="M23.57 39.12c1.3 1.65 3.34 3.94-.1 4.91.17-.8.49-2.41.66-3.21-.75.54-2.24 1.62-2.99 2.16.8-1.29 1.61-2.58 2.43-3.86zM107.13 47.05l.36-.78c.84 1.52 2.48 2.86 2.24 4.78.42 2.71-2.2 4.45-4.37 5.33l-.95.1c-.93-.59-.76-1.65-.34-2.49.55-.03 1.66-.1 2.21-.13-.12-1.46-.19-2.91-.22-4.37.27-.61.8-1.83 1.07-2.44z"/>
    </g>
    <g fill="#891c21">
        <path d="M36.19 41.4c.24-1.55 1.82-2.35 2.69-3.5.94 1.49 2.06 2.83 3.22 4.14.31 1.63.17 3.3.19 4.96-3.6-.1-6.75 1.72-9.96 3.06l.43-.92c1.43-2.45 3.01-4.87 3.43-7.74zM101.7 47.08l1.07.28c2.57 1.5 2.36 4.22 1.3 6.63-.42.84-.59 1.9.34 2.49l.18.28c-2.11.23-4.28.42-6.37-.09 1.04-.39 2.11-.66 3.16-.98-1.88-1.65.7-3.08 1.53-4.54.36-1.49-.64-2.79-1.21-4.07z"/>
    </g>
    <path fill="#380c0e" opacity=".73" d="M86.29 40.47c.93-.14 1.87-.27 2.8-.4 1.26 1.54 3.8 1.8 4.94-.02 1.42.22 2.84.45 4.24.8-.46.19-1.36.58-1.82.78-2.03.43-4.07.83-6.11 1.17-1.73.27-3.47.21-5.2.17.28-.63.86-1.88 1.15-2.5z"/>
    <path fill="#180606" opacity=".53" d="M89.09 40.07c1.63-.3 3.31-.36 4.94-.02-1.14 1.82-3.68 1.56-4.94.02z"/>
    <path opacity=".43" d="M104.35 40.57l.08.04-.08-.04z"/>
    <g fill="#a52029">
        <path d="M20.24 43.94c4.79 4.62 12.06 1.82 15.95-2.54-.42 2.87-2 5.29-3.43 7.74l-.62 1.07c-2.76-.05-5.55-.28-8.09-1.46-.56-.21-1.69-.63-2.26-.83.07-.46.19-1.36.25-1.81-1.15-.07-1.83.53-2.03 1.82l-1.14.02c.46-1.34.91-2.67 1.37-4.01zM87.84 66.46c.66-1.72 1.31-3.44 1.98-5.15 2.46 2.22 5.14 5.08 4.82 8.66-1 5.24-6.61 7.56-10.98 9.34 3.79-2.78 7.12-6.77 6.27-11.8l-2.44-.16c.09-.22.26-.67.35-.89z"/>
    </g>
    <path fill="#861c21" d="M65.67 43.13c3.38-.4 6.76-.79 10.15-1.12-.76 2.16-1.48 4.34-2.17 6.53-2.54-.13-5.05-.46-7.58-.73l2.07-3.54c-.62-.28-1.85-.85-2.47-1.14z"/>
    <path fill="#511114" opacity=".93" d="M75.82 42.01c.97-.06 2.92-.19 3.89-.25-.95 1.13-1.94 2.22-2.89 3.34.72.18 2.15.53 2.87.7-1.07 1.03-2.06 2.27-3.54 2.7l-2.5.04c.69-2.19 1.41-4.37 2.17-6.53z"/>
    <path fill="#74191d" d="M90.34 42.8c2.04-.34 4.08-.74 6.11-1.17 4.11.11 7.84 2.19 11.05 4.6l-.37.82c-.27.61-.8 1.83-1.07 2.44-3.6-5.04-9.82-6.64-15.72-6.69z"/>
    <path fill="#220807" opacity=".55" d="M90.34 42.8c5.9.05 12.12 1.65 15.72 6.69.03 1.46.1 2.91.22 4.37-.55.03-1.66.1-2.21.13 1.06-2.41 1.27-5.13-1.3-6.63l-1.07-.28c-2.01-.28-3.4-1.88-5.07-2.85-2.02-.79-4.19-1-6.29-1.43z"/>
    <path fill="#421113" opacity=".71" d="M18.1 45.15c.71-.41 1.42-.81 2.14-1.21-.46 1.34-.91 2.67-1.37 4.01l1.14-.02c.45 0 1.34-.01 1.78-.01.57.2 1.7.62 2.26.83-2.83.2-5.67.55-8.36 1.52 1.01-1.61 1.87-3.3 2.41-5.12z"/>
    <path fill="#190506" opacity=".53" d="M20.01 47.93c.2-1.29.88-1.89 2.03-1.82-.06.45-.18 1.35-.25 1.81-.44 0-1.33.01-1.78.01z"/>
    <path fill="#100304" opacity=".32" d="M46.04 47.63c3.85-1.45 8.02-.6 11.99-1.43 1.91-.44 3.79.2 5.62.65.38-.22 1.14-.68 1.52-.9l.9 1.86c2.53.27 5.04.6 7.58.73l2.5-.04c-1.45.44-2.89.95-4.39 1.17-4.22-.34-8.41-.96-12.48-2.12-3.9.97-7.97.4-11.86 1.39 0 1.91-.02 3.82-.05 5.74 3.58 4.9 7.35 9.66 11.06 14.46l-.19.22c-.98 1.22-2.58 1.47-3.97 1.94.11 3.3.65 6.7-.29 9.94l.04-2.06c-.03-3.34-.38-6.67-.88-9.98 1.14.44 2.27.87 3.42 1.29-3.49-5.33-7.39-10.37-11.01-15.62.2-2.41.38-4.82.49-7.24z"/>
    <path fill="#941d1e" d="M47.42 48.94c3.89-.99 7.96-.42 11.86-1.39 4.07 1.16 8.26 1.78 12.48 2.12l1.38.15c-3.05 6.21-8.44 10.76-13.55 15.24l-.15.13.52 1.32c-.39.66-1.15 1.98-1.53 2.63-3.71-4.8-7.48-9.56-11.06-14.46.03-1.92.05-3.83.05-5.74z"/>
    <g fill="#471010">
        <path d="M35.51 49.19c1.62.33 3.86-.06 4.81 1.68-2.47 2.73-2.6 6.73-5.2 9.29-1.34 2.83-3.95 4.73-5.58 7.36-2.49 3.98-5.05 8.18-9.07 10.79 1.15-2.17 2.59-4.18 3.51-6.47 1.54.17 2.18-.44 1.92-1.83-1.17-.23-1.81.38-1.92 1.83-1.3 1.33-2.8 2.43-4.29 3.54 3.09-5.56 6.47-11.18 11.5-15.21 3.25-2.63 3.99-7.05 4.32-10.98zM73.14 49.82c1.95.64 3.54 1.97 5.07 3.29-1.8.05-3.6.1-5.41.08 1.28.88 2.32 1.99 3.1 3.34-1.05-.18-3.15-.53-4.2-.71.67.84 2.01 2.5 2.68 3.33-1.25-.34-3.75-1.01-5.01-1.35 1.05 1.37 1.91 2.88 1.96 4.66-1.51-.83-2.99-1.71-4.44-2.65 1.2 1.68 2.24 3.46 3.12 5.32-1.88-.59-3.68-1.4-5.35-2.45 1.13 1.48 2.08 3.09 2.85 4.79-1.55-.8-3.07-1.67-4.53-2.63 1.19 1.54 2.04 3.3 2.5 5.2-2.16-1.41-4.25-2.97-5.89-4.98 5.11-4.48 10.5-9.03 13.55-15.24zM59.96 66.51c2.61 2.55 3.49 6.22 4.03 9.71-2.18-2.05-3.96-4.47-5.75-6.86l.19-.22c.38-.65 1.14-1.97 1.53-2.63zM22.23 81.83c1.54-3.02 3.39-5.87 5.18-8.74l1.57 1.13.34.7c-1.61 2.83-4.26 5.22-7.09 6.91zM40.81 80.14c.98.32 1.96.64 2.95.96-1.47 2.19-2.64 4.95-5.34 5.85.58-1.67 1.25-3.31 1.82-4.99l.57-1.82z"/>
    </g>
    <path fill="#260809" opacity=".49" d="M83.65 50.94c6.23-2.1 12.92-.55 19.26.21-.83 1.46-3.41 2.89-1.53 4.54-1.05.32-2.12.59-3.16.98l-.31.11c-3.75-.8-7.41.95-11.19.62l.75-.11c5.12-.49 10.25-1.94 14-5.67-4.33-.96-8.79-1.11-13.2-.98-1.55.07-3.08.17-4.62.3z"/>
    <path fill="#110404" opacity=".45" d="M111.23 49.88l.67.22-.12 1.33-.94-.28-.26-.94.65-.33z"/>
    <path fill="#a52023" d="M77.21 55.25c1.53-2.21 3.87-3.64 6.44-4.31 1.54-.13 3.07-.23 4.62-.3-.29 2.22-.57 4.43-.8 6.65l-.75.11c-.4.05-1.18.15-1.58.21l-.32-.2c-2.13-1.86-4.92-2.11-7.61-2.16z"/>
    <path fill="#7e1b16" d="M76.78 55.22l.43.03c2.69.05 5.48.3 7.61 2.16-1.56.6-3.12 1.18-4.68 1.79-.16.75-.48 2.27-.64 3.02-2.13-1.74-3.57-4.21-2.72-7z"/>
    <g fill="#420c0d">
        <path d="M80.84 61.99c-1.58-1.6.63-3.06 2.08-3.17 2.58-.58 4.75 1.4 6.9 2.49-.67 1.71-1.32 3.43-1.98 5.15-2.28-1.58-4.73-2.88-7-4.47zM63.13 80.68c6.44.76 12.89 1.37 19.37.59-3.86 1.32-7.97 1.05-11.98 1.05l8.94 1.44c-5.6.32-11.13-1.11-16.33-3.08z"/>
    </g>
    <path fill="#240809" opacity=".49" d="M49.02 76.92c-.03-4.04-.08-8.09-.56-12.11 1.37 3.89 2.2 7.97 2.49 12.08.15 3.39.78 6.73 1.68 9.99l.16.62c-3.59-2.27-.09-8.23-3.48-10.4l-.29-.18z"/>
    <path fill="#0a0302" opacity=".4" d="M45.41 66.32c.8 4.45.78 8.99.62 13.49-.16.74-.31 1.47-.46 2.21-.35-.67-1.06-2.01-1.42-2.68.62-2.59.82-5.24.86-7.89.08-1.72.22-3.42.4-5.13z"/>
    <path fill="#7e1a1d" opacity=".97" d="M27.41 73.09c1.16-1.77 2.25-3.59 3.25-5.45 1.23 3.34 3.22 6.3 4.69 9.52-.15 1.08-.5 2.08-1.06 3.03-.79-.02-2.36-.05-3.14-.07.24-.64.72-1.94.96-2.58.13-.24.4-.72.54-.96l.08-.14-.21.05-.22.02c-.71-.08-2.13-.23-2.84-.31.5-1.19 1.03-2.37 1.57-3.54l-1.27 1.59-.78-.03-1.57-1.13z"/>
    <path fill="#b52429" d="M93.1 76.27c2.5-2.17 3.48-5.41 4.76-8.34-.26 3.71-.78 7.63-3.22 10.62-.02.02-.05.06-.06.08-1.24 1.51-2.86 2.65-4.53 3.63-3.08.76-6.21 1.31-9.37 1.61-.31-.03-.92-.08-1.22-.11l-8.94-1.44c4.01 0 8.12.27 11.98-1.05 3.75-1.09 7.71-2.21 10.6-5z"/>
    <path fill="#270909" opacity=".69" d="M23.98 71.84c.11-1.45.75-2.06 1.92-1.83.26 1.39-.38 2-1.92 1.83z"/>
    <path fill="#1b0606" opacity=".46" d="M41.5 69.38c.35 2.03.56 4.09.5 6.16-.4 1.53-.78 3.07-1.19 4.6l-.57 1.82c-.24-.73-.73-2.2-.98-2.93.23-.62.43-1.24.62-1.87.72-2.55 1.15-5.17 1.62-7.78z"/>
    <path fill="#891b1e" opacity=".98" d="M42 75.54c.94-1.41 1.95-2.77 3.01-4.09-.04 2.65-.24 5.3-.86 7.89l-.39 1.76c-.99-.32-1.97-.64-2.95-.96.41-1.53.79-3.07 1.19-4.6z"/>
    <path fill="#4b1112" opacity=".91" d="M29.46 76.2c.71.08 2.13.23 2.84.31l.35.07c-.14.24-.41.72-.54.96-2.18 2.52-3.93 5.58-6.98 7.16 1.2-2.86 2.28-6.31 4.33-8.5z"/>
    <path opacity=".58" d="M32.52 76.49l.21-.05-.08.14-.35-.07.22-.02z"/>
    <path fill="#521213" opacity=".88" d="M47.49 76.19c.38.18 1.14.55 1.53.73l.29.18c-.8 3.17-1.65 6.56-4.36 8.69.16-.94.47-2.83.62-3.77.15-.74.3-1.47.46-2.21.48-1.21.96-2.42 1.46-3.62z"/>
    <path fill="#541214" opacity=".89" d="M36.32 78.12l3.56-.96c-.19.63-.39 1.25-.62 1.87-1.03 3.22-3.31 5.93-6.3 7.51.94-2.77 1.99-5.5 2.87-8.29l.49-.13z"/>
    <path fill="#511214" opacity=".9" d="M50.95 76.89c1.02.77 2.05 1.53 3.07 2.29l-.04 2.06c-.31 1.91-.85 3.77-1.35 5.64-.9-3.26-1.53-6.6-1.68-9.99z"/>
    <path fill="#3c0c0b" opacity=".71" d="M94.58 78.63c.01-.02.04-.06.06-.08-.02.02-.05.06-.06.08z"/>
    <path fill="#4b1112" opacity=".97" d="M30.8 80.11l.35.01c.78.02 2.35.05 3.14.07-1.64 2.39-3.31 4.85-5.79 6.48.68-2.22 1.48-4.39 2.3-6.56z"/>
    <path fill="#330c0c" opacity=".51" d="M80.68 83.87c3.16-.3 6.29-.85 9.37-1.61-2.77 1.79-6.18 2.04-9.37 1.61z"/>
</svg>
