<svg width="128pt" height="128pt" viewBox="0 0 128 128" xmlns="http://www.w3.org/2000/svg">
    <path fill="#360b0e" opacity=".6" d="M38.77 41.75c2.03-1.19 4.41-1.19 6.68-1.33.62.76 1.23 1.52 1.84 2.28-.56 1.53-1.1 3.06-1.65 4.6.79.52 1.57 1.04 2.35 1.56-1.21-.31-2.42-.66-3.62-1-1.47.61-2.94 1.2-4.42 1.78.71-.54 2.13-1.61 2.84-2.14.89-2.25 1.85-4.47 2.85-6.68-2.3.23-4.61.44-6.87.93z"/>
    <path fill="#bd252c" d="M38.77 41.75c2.26-.49 4.57-.7 6.87-.93-1 2.21-1.96 4.43-2.85 6.68-.71.53-2.13 1.6-2.84 2.14 1.48-.58 2.95-1.17 4.42-1.78 1.2.34 2.41.69 3.62 1 5.8 2.31 10.11-2.86 15.06-4.73 4.82-.89 10.09-2.31 14.78-.21-.99 3.91 1.33 7.12 3.8 9.85-1.26 1.63-2.75 3.05-4.35 4.34 2.23 1.17 4.48 2.28 6.76 3.34-1.17 1.86-2.33 3.73-3.59 5.53-.93 1.29-1.8 2.63-2.51 4.05l-1.23 2.46c-.35-.41-1.06-1.22-1.42-1.62l.52-2.08c.52-1.32 1.42-2.44 2.21-3.61-4.02-.66-8.06-2.02-11.17-4.74-.25-.23-.75-.71-1-.95.34-2.52 1.14-4.93 1.95-7.33-4.63 2.16-6.51 7.2-8.79 11.41l-.56 1.13c.73 2.59 1.46 5.19 2.34 7.74-1.58-.15-3.17-.29-4.76-.44-1.1-1.81-1.99-3.83-3.57-5.3-2.35-1.66-5-2.98-6.91-5.2-2.55-2.35.06-6.04-1.22-8.88-.47-1.08-1.38-1.88-2.29-2.59-.46-.31-1.37-.95-1.83-1.27-1.87.03-3.74.13-5.6.3.36-.56 1.09-1.67 1.45-2.23-1.52.81-3.01 1.65-4.5 2.5-.43-.91-.84-1.83-1.24-2.75-.76-1.15.87-2.04 1.61-2.64 2.23-1.16 4.63-1.98 6.84-3.19z"/>
    <g fill="#9a201e">
        <path d="M82.87 44.09c3.46-1.89 6.97.59 9.98 2.17l-.23.37c-.48.77-.96 1.53-1.44 2.29 3.18 2.23 6.89 1.78 10.31.42l.41-.12c1.83 2.12 4.34.71 6.66 1.16-1.42 2.3-2.71 4.69-3.86 7.14l-.26.54c-4.17 1.5-8.82.61-11.76-2.83 1.16-.38 3.47-1.16 4.63-1.55-2.47.05-4.9.54-7.37.49-2.8-.97-4.74-3.37-7-5.17-.47 1.58-.89 3.18-1.31 4.77-2.47-2.73-4.79-5.94-3.8-9.85 1.66.31 3.42 1.1 5.04.17zM27.05 48.9c1.08-.46 2.17-.9 3.27-1.32.4.92.81 1.84 1.24 2.75.44.38 1.31 1.16 1.75 1.55l.83.67c1.04.45 2.11.84 3.18 1.23-3.78-.2-7.57-.09-11.34.21.76-.48 2.28-1.45 3.04-1.93l-3.58.24c.54-1.13 1.08-2.27 1.61-3.4m2.4 2.16l.13.96.83.15-.05.77.98.41.36-1.31-.69-.25-.08-.66c-.37-.01-1.11-.05-1.48-.07z"/>
    </g>
    <path fill="#ba252b" d="M91.18 48.92c.48-.76.96-1.52 1.44-2.29 2.77 1.46 5.76 2.37 8.87 2.71-3.42 1.36-7.13 1.81-10.31-.42z"/>
    <path fill="#1f0608" opacity=".45" d="M31.56 50.33c1.49-.85 2.98-1.69 4.5-2.5-.36.56-1.09 1.67-1.45 2.23l-.76.26c.35.39 1.05 1.16 1.41 1.54-.49.01-1.46.01-1.95.02-.44-.39-1.31-1.17-1.75-1.55z"/>
    <path fill="#410d12" opacity=".85" d="M21.81 50.33c1.75-.47 3.49-.97 5.24-1.43-.53 1.13-1.07 2.27-1.61 3.4-.13.28-.39.83-.52 1.11-1.05-1.02-2.09-2.05-3.11-3.08z"/>
    <path fill="#581314" opacity=".75" d="M33.85 50.32l.76-.26c1.86-.17 3.73-.27 5.6-.3.46.32 1.37.96 1.83 1.27l-1.18.58c-1.87.11-3.74.19-5.6.25-.36-.38-1.06-1.15-1.41-1.54z"/>
    <path fill="#000100" opacity=".37" d="M29.45 51.06c.37.02 1.11.06 1.48.07l.08.66-.6.38-.83-.15-.13-.96z"/>
    <path fill="#cb2b29" d="M35.26 51.86c1.86-.06 3.73-.14 5.6-.25 1.22.55 2.21 1.45 3.24 2.28-.04 3.83-.89 7.78.51 11.48-1.25-1.4-2.51-2.8-3.76-4.2-.24-2.53-1.14-4.9-2.49-7.03l-1.04-.36c-1.07-.39-2.14-.78-3.18-1.23l-.83-.67c.49-.01 1.46-.01 1.95-.02z"/>
    <path fill="#bd2831" d="M108.56 50.38c1.52 1.86 2.35 4.09 2.82 6.42-2.27-.41-4.51.07-6.68.72 1.15-2.45 2.44-4.84 3.86-7.14z"/>
    <path fill="#d62831" d="M30.41 52.17l.6-.38.69.25-.36 1.31-.98-.41.05-.77z"/>
    <path fill="#2f0b0a" opacity=".47" d="M38.36 54.14c1.35 2.13 2.25 4.5 2.49 7.03-1.01-2.28-1.84-4.63-2.49-7.03z"/>
    <path fill="#3c0d0e" opacity=".6" d="M59.01 64.57c2.28-4.21 4.16-9.25 8.79-11.41-.81 2.4-1.61 4.81-1.95 7.33.25.24.75.72 1 .95-.36.09-1.09.26-1.45.35-.19-1.69-.37-3.39-.55-5.08-1.46 2.5-2.81 5.06-4.08 7.66l2.14-1.14c-.93 1.26-2.49 1.23-3.9 1.34z"/>
    <path fill="#b3282e" d="M60.77 64.37c1.27-2.6 2.62-5.16 4.08-7.66.18 1.69.36 3.39.55 5.08-.62.36-1.87 1.08-2.49 1.44l-2.14 1.14z"/>
    <path fill="#2c0a0c" opacity=".71" d="M82.89 64.14c.7.68 2.95 1.93 1.34 3.04-1.5 1.85-3.18 3.53-4.79 5.29-.37-.36-1.12-1.08-1.5-1.44.71-1.42 1.58-2.76 2.51-4.05l1.14-.71c.32-.54.97-1.6 1.3-2.13z"/>
    <g fill="#6b1418">
        <path d="M44.65 76.39c.67-3.23 1.23-6.47 1.81-9.72 1.8.45 3.61.82 5.43 1.18-1.36 2.66-2.69 5.33-3.99 8.01.64.87 1.27 1.73 1.9 2.6-.16.49-.46 1.46-.62 1.94l-.96-.77c-.95-.96-1.91-1.92-2.97-2.74l-.6-.5zM70.7 77.97c1.66-2.76 3.22-5.58 5.11-8.18l-.52 2.08c.36.4 1.07 1.21 1.42 1.62-.9 1.78-2.69 3.46-2.24 5.62.56 2.18-.84 3.98-2.11 5.58-1.13-2.07-1.35-4.43-1.66-6.72z"/>
    </g>
    <path fill="#791b1c" opacity=".96" d="M56.03 73c1.59.15 3.18.29 4.76.44.78 1.99 1.42 4.06 1.64 6.2-.37.12-1.09.35-1.45.47l-.87-.36c-.06-.57-.16-1.73-.21-2.31-.24.13-.72.39-.96.51-1.03-1.61-2-3.26-2.91-4.95z"/>
    <path fill="#2e0a07" opacity=".8" d="M45.25 76.89c1.06.82 2.02 1.78 2.97 2.74-1.53 1.51-4.23-1.13-2.97-2.74z"/>
    <path fill="#2c0b0b" d="M49.8 78.46c1.58-.08 2.92-.83 4.1-1.83.78.39 2.32 1.19 3.09 1.59l-.5 1.23c.82-.49 1.64-.99 2.45-1.5.24-.12.72-.38.96-.51.05.58.15 1.74.21 2.31-1.72.53-3.34 1.33-5.06 1.87-1.99-.21-3.92-.79-5.88-1.19l.01-.03c.16-.48.46-1.45.62-1.94z"/>
    <path fill="#6b1818" d="M62.43 79.64l.63-.29c.2 1.97 1.47 4.08 3.75 3.2.76 1.7 1.49 3.41 2.21 5.13-4.29-.2-6.74-3.74-8.87-6.94.2-.16.62-.47.83-.63.36-.12 1.08-.35 1.45-.47z"/>
</svg>
