<svg width="128pt" height="128pt" viewBox="0 0 128 128" xmlns="http://www.w3.org/2000/svg">
    <g fill="#fff">
        <path d="M100.97 51.7c2.53-.27 5.59-2.78 7.8-.58 1.77 1.35 2.02 3.69 2.45 5.7-3.94-1.13-7.37 1.83-11.22 2.01-2.84-.03-5.15-1.84-7.26-3.53 3.99-1.85 9 .49 12.43-2.83-1.05-.2-3.15-.58-4.2-.77zM26.26 53.79c1.97-1.36 4.35-1.86 6.56-2.71-.24.36-.7 1.06-.93 1.42 4.04-1.57 9.17-2.43 12.19 1.49.2 3.81-1.29 7.91.82 11.43-1.41-1.81-3.96-3.08-4.34-5.55-.62-2.28-1.05-5.55-3.76-6.21-3.5-.44-7.03.15-10.54.13zM60.55 64.59c1.77-3.7 3.33-7.65 6.54-10.37-.65 1.53-1.31 3.06-1.95 4.6.14.66.44 1.97.58 2.62-1.75 1.01-3.44 2.11-5.17 3.15z"/>
    </g>
</svg>
