<svg width="128pt" height="128pt" viewBox="0 0 128 128" xmlns="http://www.w3.org/2000/svg">
    <g fill="#fff">
        <path d="M72.35 24.91c5.71-5.27 13.25-8.44 20.99-9.03-1.35 1.52-2.59 3.14-3.59 4.92-1.08.1-2.02.5-2.79 1.19-.37 1.64 1.69 1.94 2.79 2.21.56 1.43 1.19 2.82 1.83 4.21-6.19-2.06-12.69-3.45-19.23-3.5zM20.93 52.52C31.81 35.21 52.5 24.6 72.94 26.31c9.08 1 18.9 2.28 26.11 8.44 6.85 6.17 9.24 16.22 7.42 25.08-1.31 7.93-5.03 15.25-9.67 21.73.7.55 2.1 1.63 2.79 2.17-1.63 1.41-3.9 1.19-5.85 1.84-3.86 3.88-7.99 7.53-12.5 10.66-1.69 1.06-1.82 3.21-2.45 4.9-1.16-.56-2.31-1.12-3.46-1.67 9.21-6.6 18.29-14 23.95-24 2.66-4.53 4.22-10.12 2.55-15.27-1.88-5.21-6.7-8.54-11.5-10.83 4.82-2.7 10.13.82 14.55 2.77-3.24-5.85-6.69-13.42-14.02-14.72-6.77-.85-10.7 6.08-16.73 7.55-8.62-.32-17.24 1-25.41 3.74-4.33 1.24-8.26 4.17-12.98 3.4 3.33-3.35 7.28-5.89 11.49-7.97-6.32 1.52-12.78 3.47-17.81 7.78-2.84.07-5.67.23-8.49.61m46.93-20.93c2.7 3 3.92 6.96 2.78 10.91 1.14-1.77 2.91-3.85 1.82-6.07-.69-2.27-2.68-3.67-4.6-4.84m-6.75 1.52c.56.4 1.68 1.2 2.24 1.59.92 1.15 1.79 2.33 2.63 3.54.05 1.41.15 2.81.3 4.21 2.86-3.99-.52-9.42-5.17-9.34m-7.18 1.03c3.62 1.44 7.12 4.05 7.69 8.18.25-1.41.75-2.95.06-4.32-1.05-3.12-4.88-3.69-7.75-3.86m-9.44 2.2c-2.4 1.06-4.43 2.77-6.02 4.84 2.74-1.5 5.49-3.06 8.59-3.7-.3-1.15-1.48-2.05-2.57-1.14z"/>
        <path d="M58.72 51.93c4.39.5 8.79 1.01 13.05 2.22-1.33 1.63-2.89 3.49-2.56 5.76.57 3.33 2.62 6.12 4.16 9.06-3.95-.96-7.61-2.97-10.19-6.15-3.12-2.79-3.51-7.08-4.46-10.89zM37.91 78.57c6.13-3.15 13.63-4.18 20.08-1.38 3.88 1.76 7.45 4.72 9.31 8.59 1.21 4.22 1.59 8.7 3.5 12.71-2.38 1.85-4.46 4.07-6.17 6.56 2.45-.71 4.87-1.57 7.03-2.98-3.94 6.71-11.87 11.56-19.82 9.48 4.24-1.96 9.11-4.18 10.94-8.81 1.23-4.73-1.73-9.01-4.02-12.86.61-.93 1.29-1.8 1.95-2.69-1.12.29-2.23.58-3.34.86-4.56-6.03-12.09-9-19.46-9.48z"/>
    </g>
</svg>
