<svg width="128pt" height="128pt" viewBox="0 0 128 128" xmlns="http://www.w3.org/2000/svg">
    <path fill="#521010" d="M72.2 25.05c5.58-5.66 13.5-8.81 21.41-9.23-1.42 1.59-2.76 3.27-3.75 5.17-1.29.2-2.96.1-2.81 1.89.78.74 1.72 1.13 2.83 1.15.54 1.58 1.21 3.1 1.97 4.58-6.35-2.04-12.95-3.49-19.65-3.56z"/>
    <path fill="#731516" d="M52.16 28.52c7.69-2.43 15.9-2.82 23.88-2l-.53.08c-2.86.61-5.94.17-8.62 1.49.31 1.19.15 2.63.99 3.62 2.35 2.31 3.66 5.43 3.39 8.75-.91-.29-2.71-.85-3.62-1.14-.16-3.54-3.17-5.8-6.35-6.68.9 1.13 1.9 2.18 2.9 3.22-.81.03-2.44.1-3.26.13-2.09-.9-4.2-1.76-6.36-2.49-.01.6-.01 1.2.05 1.8l1.56.02c-3.12 2.94-7.67 4.38-9.48 8.55-.95 1.15-2.56 1.18-3.87 1.61-5.03 1.07-9.54 3.69-13.69 6.64-2.8.04-5.6.24-8.38.53 4.26-6.81 9.98-12.87 16.88-17.02.89 1.09 1.74 2.21 2.63 3.3-.44.57-1.31 1.71-1.74 2.28 2.84-1.68 5.87-3.02 9.08-3.82.74.5 1.51.97 2.29 1.41.29-.4.86-1.22 1.15-1.62-.11-2.95 1.25-5.7 1.1-8.66z"/>
    <path fill="#651515" d="M66.89 28.09c2.68-1.32 5.76-.88 8.62-1.49 8.34.67 17.2 2.54 23.74 8.14 5.87 5.3 8.42 13.55 7.86 21.31-.71 9.27-4.75 17.97-10.06 25.49 1.09.73 2.04 1.61 2.84 2.65-1.97.78-4.11.94-6.12 1.56-3.81 3.78-7.84 7.38-12.27 10.43-1.9 1.02-1.91 3.39-2.58 5.18-1.24-.66-2.72-1.09-3.62-2.25 1.99-.89 3.36-2.89 5.51-3.43l-.32-.97 1.57.3-.64-1.08c2.24 0 3.63-2.1 5.27-3.33 5.74-5.32 11.39-11.29 14.25-18.7 1.8-4.44 2.07-9.58-.14-13.93-2.23-3.98-6.21-6.47-10.17-8.48.32-.33.97-.97 1.29-1.3 4.59-.31 8.9 1.63 12.8 3.82-3.16-5.45-6.16-12.18-12.65-14.25-6.22-1.56-10.6 3.86-15.53 6.51-.29-1.27-.57-2.54-.86-3.81-.79-.33-2.38-.98-3.17-1.31.63-3.34-2.05-5.86-4.63-7.44-.84-.99-.68-2.43-.99-3.62z"/>
    <path fill="#631315" d="M37.38 35.32c4.75-2.65 9.51-5.31 14.78-6.8.15 2.96-1.21 5.71-1.1 8.66-.29.4-.86 1.22-1.15 1.62-.78-.44-1.55-.91-2.29-1.41-2.16-3.01-5.25.06-7.34 1.54-.89-1.09-1.74-2.21-2.63-3.3l-.27-.31z"/>
    <path fill="#120605" opacity=".42" d="M61.3 32.64c3.18.88 6.19 3.14 6.35 6.68-.35.78-1.05 2.35-1.4 3.13-.17-2.31-.15-4.93-2.05-6.59-1-1.04-2-2.09-2.9-3.22z"/>
    <path fill="#190607" opacity=".49" d="M54.63 35.3c-.06-.6-.06-1.2-.05-1.8 2.16.73 4.27 1.59 6.36 2.49 1.22 1.96 1.18 4.24.99 6.45-1.04-2.95-2.93-5.61-5.74-7.12l-1.56-.02z"/>
    <path fill="#170505" opacity=".46" d="M40.28 38.93c2.09-1.48 5.18-4.55 7.34-1.54-3.21.8-6.24 2.14-9.08 3.82.43-.57 1.3-1.71 1.74-2.28z"/>
    <path fill="#7e191b" d="M46.71 43.87c1.81-4.17 6.36-5.61 9.48-8.55 2.81 1.51 4.7 4.17 5.74 7.12.19-2.21.23-4.49-.99-6.45.82-.03 2.45-.1 3.26-.13 1.9 1.66 1.88 4.28 2.05 6.59.35-.78 1.05-2.35 1.4-3.13.91.29 2.71.85 3.62 1.14l.06 1.38c.3-.67.89-2.02 1.18-2.69.79.33 2.38.98 3.17 1.31.29 1.27.57 2.54.86 3.81-2.61 1.48-5.66.67-8.51.87-9.67.39-19.11 3.19-27.93 7.05l-4.24.04c.97-1.13 1.91-2.3 3.03-3.3 2.27-2.2 5.81-2.71 7.82-5.06z"/>
    <g fill="#e73039">
        <path d="M46.86 50.37c9.06-3.37 18.75-3.83 28.32-3.47.19 1.46.34 2.92.48 4.39 2.16.81 5.39.54 6.08 3.3-.43.5-1.28 1.48-1.7 1.98-9.4-6.73-21.79-6.12-32.78-5.53l-.4-.67zM31.96 51.82c.7-2.18 3.7-2.6 5.56-3.49-.43 2.36-3.31 3.65-5.56 3.49z"/>
    </g>
    <path fill="#bd2426" d="M75.18 46.9c4.67.77 9.5 1.41 13.76 3.61 6.93 2.77 12.45 10.05 10.34 17.77-.52-.14-1.56-.43-2.07-.58.17-1.02.35-2.04.52-3.06-3.95 2.79-6.92 6.92-11.58 8.64.09-1.62.09-3.23-.06-4.84 2.41-3.64 8.6-1.89 9.87-6.3-4.59-.84-8.36-3.9-12.82-5-.46.11-1.39.33-1.85.43-.46-.24-.88-.58-1.25-1 .42-.5 1.27-1.48 1.7-1.98-.69-2.76-3.92-2.49-6.08-3.3-.14-1.47-.29-2.93-.48-4.39z"/>
    <path fill="#922425" opacity=".84" d="M37.52 48.33c.86-1.28 1.31-1.08 1.37.6-.35-.15-1.03-.45-1.37-.6z"/>
    <path fill="#110304" opacity=".32" d="M88.94 50.51c.83-.97 1.59-2.16 2.98-2.32-.32.33-.97.97-1.29 1.3 3.96 2.01 7.94 4.5 10.17 8.48-2.04 3.62-.55 8.09-1.01 12.08.29.46.86 1.38 1.15 1.85-2.86 7.41-8.51 13.38-14.25 18.7-1.64 1.23-3.03 3.33-5.27 3.33.43-.4 1.28-1.18 1.7-1.58 3.28-3.18 6.62-6.34 9.29-10.07 3.14-4.18 5.79-8.83 6.87-14 2.11-7.72-3.41-15-10.34-17.77z"/>
    <path fill="#5a1113" d="M58.53 51.65c4.47.67 8.94 1.27 13.34 2.29-4.66 4.43-1.38 10.68 1.82 14.83-4.73-.07-8.69-3.37-11.55-6.86-2.52-2.83-2.64-6.79-3.61-10.26z"/>
    <g fill="#de2c34">
        <path d="M81.29 57.57c.46-.1 1.39-.32 1.85-.43 4.46 1.1 8.23 4.16 12.82 5-1.27 4.41-7.46 2.66-9.87 6.3-.57-3.97-2.01-7.91-4.8-10.87zM79.07 90.58l4.05 1.77c-.42.4-1.27 1.18-1.7 1.58-4.44 3.1-8.26 7.69-13.86 8.6l1.9-1.1c.11-.43.31-1.28.42-1.71.1-.6.32-1.79.43-2.38.77.63 1.2 1.59 1.79 2.38 1.24-3.6 5.06-5.78 6.97-9.14z"/>
    </g>
    <path fill="#020000" opacity=".07" d="M99.79 70.05c.46-3.99-1.03-8.46 1.01-12.08 2.21 4.35 1.94 9.49.14 13.93-.29-.47-.86-1.39-1.15-1.85z"/>
    <path fill="#d3282e" d="M86.15 73.28c4.66-1.72 7.63-5.85 11.58-8.64-.17 1.02-.35 2.04-.52 3.06.51.15 1.55.44 2.07.58-1.08 5.17-3.73 9.82-6.87 14-.13-.52-.38-1.56-.51-2.08-.87.46-1.73.91-2.59 1.37-.9-2.5-.93-5.19-1.45-7.77-.51 1.32-1.25 2.48-2.23 3.49.12-1.34.3-2.68.52-4.01z"/>
    <path fill="#bd2526" d="M87.86 73.8c.52 2.58.55 5.27 1.45 7.77.86-.46 1.72-.91 2.59-1.37.13.52.38 1.56.51 2.08-2.67 3.73-6.01 6.89-9.29 10.07l-4.05-1.77c1.8-2.64 3.42-5.39 4.81-8.26-.98-.92-1.92-1.87-2.82-2.85 1.31-.22 2.63-.44 3.95-.67.16-.38.46-1.13.62-1.51.98-1.01 1.72-2.17 2.23-3.49z"/>
    <path fill="#4f1010" d="M37.88 78.56c8.24-4.93 19.9-4.24 26.63 2.95 4.55 3.99 3.69 10.64 5.8 15.83-.11.59-.33 1.78-.43 2.38-2.02 1.28-3.54 3.13-4.84 5.1 2.27-.63 4.29-1.93 6.56-2.57-3.75 6.89-11.93 11.57-19.78 9.3 3.8-2.19 8.33-3.85 10.48-8.02 1.84-4.9-1.16-9.89-4.03-13.7.78-.8 1.56-1.59 2.35-2.39-1.14.24-2.28.48-3.42.71-4.53-6.06-12.02-8.83-19.32-9.59z"/>
</svg>
