<svg width="128pt" height="128pt" viewBox="0 0 128 128" xmlns="http://www.w3.org/2000/svg">
    <g fill="#fff">
        <path d="M31.06 51.33c2.56-1.49 5.27-2.68 7.96-3.9l-.04 1.18c-1.48.61-2.88 1.47-4.52 1.59l.52 1.52c-1.3-.16-2.61-.29-3.92-.39zM45.01 51.44c7.15-3.25 15.13-4.72 22.97-4.45 9.08-.31 18.86 1.11 26.28 6.73 4.73 3.47 6.26 9.79 4.84 15.3-2.4 10.15-10 17.91-17.47 24.71-4.24 3.37-8.35 7.16-13.58 8.95 6.18-6.01 12.43-12.27 15.91-20.33-.91-.98-1.87-1.92-2.8-2.87 1.3-.17 2.59-.36 3.89-.55 1.98-6.23 1.61-13.46-1.9-19.1-4.31-6.04-12.07-8.01-19.07-8.8-6.34-.51-12.77-.57-19.07.41z"/>
    </g>
</svg>
