<svg width="128pt" height="128pt" viewBox="0 0 128 128" xmlns="http://www.w3.org/2000/svg">
    <g fill="#fff">
        <path d="M63.49 17.41c2.58.86 4.89-1.48 7.46-1.15 3.14.71 5.99 2.39 9.2 2.8 3.26.53 6.28 1.94 9.02 3.73-1.21 1.5-2.46 2.98-3.58 4.55 2.5-1.68 4.86-3.6 7.59-4.92 1.09.57 2.15 1.18 3.19 1.85-1.57 1.95-3.36 4.15-1.41 6.51 1.18.44 2.39.79 3.5 1.37.45 1.42.87 2.86 1.26 4.31-.56 1.65-1.45 3.12-2.57 4.45-5.3-2.63-10.67-5.84-16.83-5.42 4.49 2.77 4.66 8.57 6.68 12.97l-.12 1.35c-1.83 1.74-3.66 3.53-5.9 4.74-.11.64-.23 1.29-.34 1.93 1.76.39 3.56.57 5.29 1.07-1.44.83-2.86 1.7-4.25 2.61 2.97.36 4.85-1.99 6.61-3.95l-1.54.72c-.58-1.27-1.13-2.56-1.76-3.8l1.71-2.71 1.14.37c1.03 3.65 2.14 7.33 2.25 11.15l.85-.08c1.2-1.86-.35-4.12-.42-6.12 1.89-.26 3.78-.54 5.67-.82-1.32 2.89-3.02 5.67-3.69 8.81-.46-.13-1.37-.4-1.83-.53-.22 3.71.05 7.44-.44 11.14-2.38-3.2-4.44-6.62-6.91-9.74-1.31.62-2.51 1.43-3.74 2.19 1.22-.29 2.45-.56 3.68-.82 7.14 10.01 13.7 20.41 20.92 30.35-7.36-4.41-15.28-8.07-22.15-13.21-.25-2.51-.36-5.04-.53-7.56-.69 2.99-1.57 6.23-.24 9.18 1.16 1.58 3.08 2.32 4.66 3.39-2.24 4.42-5.23 8.57-9.4 11.34-4.54 2.39-4.09 8.31-5.95 12.46-1.43-2.91-2.54-6.13-5.36-8.03 2.51-.9 4.96-1.99 7.17-3.5-4.25 1.32-8.55 2.46-12.85 3.64-2.8 2.61-6.27 4.41-10.05 5.09 1.14-2 3.42-4.27.47-6.09 1.14-.18 2.27-.36 3.41-.55-5.36-.14-10.39-2.06-15.56-3.25 1.59.94 3.25 1.76 4.97 2.43-3.41 1.26-6.86 2.38-10.3 3.56.96-2.31 2.05-4.57 3.15-6.81-1.77-4.18-3.79-8.27-5.33-12.54.04-.37.11-1.11.15-1.48-1.39-.67-1.73-2.21-2.32-3.5-1.31-3.28-2.69-6.53-4.04-9.8 3.55 3.88 6.76 8.14 9.05 12.89 2.31 5.27 7.33 9.22 12.87 10.58l-3.02 1.58 3.8-.72-.63 1.17c5.85-.57 12.4-1.3 16.7-5.79 2.32-2.01 3.46-4.92 4.43-7.75 1.92.11 3.35-1.04 4.68-2.27-1.6-1.87-1.27-5.75-3.49-6.59.14 2.37 2.9 5.18.36 7.07-5.44.09-10.98-1.57-16.35.04-3.27 1.12-6.87.93-10.15-.07C46.86 73.67 54.81 69 62.3 64.82c.91 1.56 1.77 3.15 2.78 4.65-2.1-6.5-5.06-12.78-6.28-19.53.08-6.62.37-13.24-.25-19.85-.81 1.83-1.22 3.78-1.47 5.75-2.66.35-5.29.89-7.94 1.3-1.19 1-2.96 2.98-4.42 1.18-2.4-2.63-3.51-6.2-5.78-8.96-.04-2.34-.34-5.63 2.73-6.08 2.71 1.44 1.96 5.06 4.26 6.84-.59-2.38-1.42-4.69-2.11-7.05 2.12-1.27 4.27-2.49 6.48-3.6 2.65.55 4.44-1.8 6.87-2.33 2.09-.37 4.24-.13 6.32.27m-.97 12.95c-2.33 3.59-2.03 8.11-2.17 12.2 1.28-2.84.83-6.76 3.82-8.56 2.71.04 5.29 1.18 7.78 2.17 3.43 1.37 4.65 5.22 7.23 7.58-2.47-5.1-5.32-10.45-10.11-13.74-1.86-1.38-5.1-1.85-6.55.35m-18.9 50.63c2.39-.02 4.8.13 7.19-.07.99-.61 2.45-1.17 1.32-2.68-.74.23-2.21.68-2.95.9-.19-.97-.58-2.91-.78-3.88-1.81 1.71-3.46 3.6-4.78 5.73m52.18 7.36c-.47 1.54 1.59 3.24 3.01 3.26.39-1.46-1.47-3.66-3.01-3.26m-38.87 12.79c2.03-.64 3.95-1.66 6.13-1.65-.46-.19-1.39-.58-1.86-.77 1.7-1.22 3.84-2.34 4.21-4.62-2.59 2.62-5.73 4.59-8.48 7.04z"/>
        <path d="M98.13 30.62c-2.31-.89-3.35-4.17-.4-4.84 1.17 1.44.68 3.2.4 4.84zM84.23 54.46c.37.32.37.32 0 0zM81.28 55.09c1.84-1.43 2.15 2.39.12.9l-.12-.9z"/>
    </g>
</svg>
