<svg width="128pt" height="128pt" viewBox="0 0 128 128" xmlns="http://www.w3.org/2000/svg">
    <g fill="#5b1113">
        <path d="M56.23 28.26c.83-.07 2.49-.23 3.32-.31-.16 5.2 1.87 11.86-3.21 15.38-.07-4.36.03-8.73.04-13.1-13.47 15.34-26.06 31.46-39.41 46.91.86 1.42 1.71 2.84 2.57 4.25 1.79.66 3.54 1.37 5.28 2.15.02-2.13.05-4.26.1-6.39-.67-.05-2.03-.16-2.7-.21 1.25-1.4 2.86-2.67 4.85-2.6 5.65-.11 11.3-.06 16.94-.01 2.1-.08 4.02.9 5.47 2.36-.62.18-1.87.55-2.5.73-.27 3.27-.06 6.55-.08 9.83 3.16-.01 6.32.06 9.47.21-.07-2.97-.04-5.95.18-8.92-1.84.27-3.68.51-5.53.73-.85-2.85 2.49-2.38 4.06-2.67 11.05-1.31 22.08-2.76 33.11-4.21-.03.65-.08 1.94-.11 2.59-10.21.87-20.34 2.53-30.55 3.33l2.12 1.12c.04 2.67.05 5.34.03 8 5.67-.12 11.35-.31 16.99-.9 1.22-1.5 1.78-3.39 2.61-5.11 4.3-.46 8.63-1.06 12.77-2.39 2.63-.14 1.62-3.16 1.95-4.81-1.48.28-2.63-.13-3.47-1.23.82-.13 2.47-.38 3.29-.51-.01-.29-.02-.89-.03-1.18-.74.1-2.23.29-2.97.39.81-3.56 4.2-1.33 6.42-1.14l-.01 1.2c1.94-.08 4.05.05 5.53-1.44 2.13.18 4.27.3 6.41.34l.28-.72c.2-.49.59-1.47.79-1.97l-1.93-.81c.65-.54 1.3-1.07 1.98-1.58.22 2.12.32 4.41 2.19 5.82-5.4.85-10.83 1.57-16.28 1.92-.02 1.31-.03 2.63-.03 3.95 2.37-.78 4.7-1.71 7-2.69-.51 3.04-1.04 6.08-1.53 9.12-.54.19-1.62.58-2.15.78-1.03 2.51-3.81 5.43-.77 7.6-.77 2.4-1.98 4.64-2.89 6.99-2.32.05-4.64.07-6.96.06 2.53-4.89 6.1-9.21 8.22-14.3-3.42 4.7-6.39 9.73-10.01 14.31-14.01.79-28.06.81-42.08.51-6.3-.55-13-.67-18.6-3.97-6.16-3.71-9.83-10.72-10.43-17.76.32-.87.78-1.66 1.36-2.38 12.97-15.75 25.98-31.47 38.9-47.27M26.7 77.18c-.94 2.85 2.35 2.5 4.1 2.64.08-.67.24-2 .33-2.67-1.48-.03-2.95-.02-4.43.03m4.43.37c1.34 3.62 5.79 1.46 8.68 2.06.1-.62.28-1.84.37-2.45-3.02-.07-6.07-.21-9.05.39m9.5-.57c.08.75.25 2.23.33 2.98 2.07-.05 5.18.16 4.37-2.95l-4.7-.03m-13.95 3.7c.02.84.07 2.53.1 3.37 1.43.3 2.87.6 4.31.9v-4.17c-1.47-.03-2.94-.06-4.41-.1m5.09.01c.04 1.51.07 3.01.11 4.51 2.73.54 5.49.94 8.26 1.26l-.06-5.76c-2.77.01-5.54.01-8.31-.01m9.03.06c.03 2 .07 4.01.12 6.01 1.4.04 2.8.07 4.2.11.05-2.08.09-4.15.12-6.22-1.48.03-2.96.07-4.44.1z"/>
        <path d="M65.81 30.8c.53-1.38 1.98-1.46 3.22-1.72C63.97 38.76 56.73 47.2 51.91 57c-.32-.44-.96-1.34-1.28-1.79 4.74-8.32 10.2-16.23 15.18-24.41zM93.99 45.06c.54-.09 1.6-.27 2.13-.36.03 2.19.05 4.38.11 6.56 1.68-1.96 2.44-5 5.14-5.83-1.28 2.79-3.55 5.08-4.24 8.14l-1.07-.47.53 1.16c-.26.19-.76.57-1.01.76l-.43.97-.37.81c-1.07 1.83-2.39 3.58-4.18 4.76.77-2.84 2.62-5.18 4.03-7.72-1.1-2.78-.88-5.85-.64-8.78zM79.04 55.88c2.25-.97 4.36-2.53 6.86-2.73 2.2 2.6-2.86 3.12-4.34 4.39l-.91.73c-.23.11-.69.34-.92.45l.03-.33-.31.11-.1.41c-.39.2-1.18.6-1.57.8l.01-.35-.32.11-.1.42c-.25.12-.76.34-1.01.46-3.15.57-5.93 2.19-8.61 3.86-.25.13-.75.37-1 .49l.04-.3-.27.11-.13.37c-.41.21-1.22.63-1.62.84l.03-.32-.29.11-.11.39c-.41.21-1.22.62-1.63.83l.01-.36-.33.11-.09.45c-.4.19-1.21.57-1.61.77l.04-.33-.31.1-.12.4c-.23.1-.67.3-.9.4-3.3.53-6.13 2.39-9.21 3.57 0-1.72.76-2.86 2.28-3.41 8.93-4 17.64-8.44 26.51-12.55zM103.82 56.96c1.74-1.19 3.43-2.5 5.46-3.18-.64 1.25-1.6 2.28-2.59 3.27l1.55.3c-.88.31-2.64.95-3.51 1.26l-.07.03-.06.04c-.34.21-1.01.63-1.35.84-.67.11-2 .32-2.66.43l1.17-2.13c.19-.14.59-.4.78-.54l1.28-.32z"/>
        <path d="M105.48 60.82c1.97-.54 3.89-1.25 5.82-1.92-.33 1.1-.99 1.91-1.99 2.45.3.96.59 1.92.87 2.89l-1.05-.72c-.33-.23-1-.69-1.33-.92-.06-.05-.19-.14-.25-.18l.05.26c-.51.2-1.52.62-2.03.83l.25-.86c-1.2.42-2.39.85-3.59 1.26l.84.89c-.6.23-1.78.69-2.38.92-.08.05-.25.14-.33.18l-.62.47 2.08 1.61c-.77.85-1.67 1.12-2.7.82l-.46-.81-.17-.85-.08-.45c-.13.07-.38.2-.5.27l-.78.45c-2.2-.85-3.93-2.82-6.27-.51.8-1.48 1.87-2.73 3.22-3.76-1.25.35-2.5.69-3.75 1.02 1.17-2.19 3.08-3.79 5.04-5.24-1.7 2.44.61 4.48 1 6.79 1.18-.59 2.26-1.35 3.4-2.01l.41-.21.22-.11.22-.13c.4-.23 1.22-.69 1.62-.92l-.03.32.3-.11.11-.39c.42-.2 1.27-.6 1.69-.8l-.07.25.25-.09.16-.31c.21-.1.62-.29.83-.38zM80.52 63.69c2.67.07 5.21-.72 7.66-1.7l-.28 2.6c-1.4.47-2.81.94-4.12 1.61-.21.1-.63.3-.84.39-.43-1.71-2.71-.82-2.81.62-.28.12-.83.37-1.1.49-.72-1.36-1.31-1.23-1.78.38-.31.15-.94.47-1.25.62-.31-1.8-2.58-.93-2.79.46-.3.14-.91.43-1.21.57-.69-1.35-1.29-1.22-1.79.38-.31.15-.93.44-1.24.58-.29-1.8-2.62-.99-2.75.46-.32.14-.96.41-1.28.54-.57-1.34-1.19-1.26-1.85.26-.22.21-.65.64-.87.85-.52-.24-1.55-.7-2.07-.94-2.19 1.09-4.21 3.53-6.87 2.52l.41 1.11.2.51c-1.34-.45-2.67-.94-3.98-1.48 1.65-1.31 3.53-2.3 5.63-2.61l.18-.02c.54-.22 1.62-.66 2.16-.89.27-.16.82-.48 1.1-.65.27.22.81.64 1.08.85l.72-.48-.1-.85 1.34-.59.26.67c.39-.04 1.17-.13 1.56-.18l-.05-.82c.32-.13.96-.4 1.28-.53 1.49 1.14 6.24.61 5.16-1.83.42-.14 1.26-.41 1.68-.54l.25.77c.41.03 1.23.1 1.64.13-.27-.3-.81-.89-1.08-1.18.54-.16 1.62-.48 2.17-.64.94 1.34 1.56 1.22 1.86-.36.32-.14.96-.43 1.29-.57.59 1.4 1.18 1.33 1.76-.21.18-.08.54-.23.72-.3z"/>
    </g>
    <g fill="#f73439">
        <path d="M53.73 54.82c4.49-7.05 9-14.09 13.7-21.01 1.35 1.69 3.19 2.81 5.11 3.75-5.67 5.1-10.94 10.63-16.44 15.91l-.17.71c-.07.29-.22.88-.29 1.18l-1.91-.54zM74.47 40.47c.9 1.91 2.12 3.64 3.71 5.05-4.79 3.22-9.52 6.55-14.36 9.71-.22.14-.65.43-.87.57-.59.38-1.76 1.14-2.34 1.51-.13.12-.39.37-.51.49-1.26.85-2.54 1.67-3.83 2.48.33 1.02.65 2.05.97 3.08 3-2.48 6.43-4.36 9.63-6.56.28-.17.82-.53 1.09-.71 1.55-.45 3.14-1.08 4.08-2.48.15.46.44 1.37.59 1.83.86.51 1.72 1 2.6 1.48-7.02 3.26-13.95 6.71-20.97 9.96.36-1.11.72-2.21 1.1-3.32.19-.66.56-1.99.75-2.66-.61.11-1.84.34-2.45.45l-.47-.83c7.3-6.46 14.33-13.24 21.28-20.05z"/>
    </g>
    <path fill="#5a1615" opacity=".96" d="M75.27 35.71c.52.31 1.57.91 2.09 1.22-8.54 8.19-17.04 16.44-25.77 24.44l-1.73-.02c1.47-2.39 3.3-4.6 5.78-5.99.07-.3.22-.89.29-1.18l.11-.43c1.32-.51 2.45-1.35 3.41-2.36 5.22-5.27 10.72-10.28 15.82-15.68z"/>
    <path fill="#4f1213" opacity=".91" d="M63.81 56.01c5.77-3.85 11.39-7.94 17.23-11.67.45.19 1.36.56 1.82.74-2.84 3.25-7.45 4.68-10.54 7.82l-.45.18c-2.04-.43-3.43 1.21-3.91 3.01-.27.18-.81.54-1.09.71l.36-1.05c-3.41 1.28-5.98 5.56-9.89 4.77l2.76-2.72c.12-.12.38-.37.51-.49.82 1.82 2.68-.19 2.34-1.51.22-.14.65-.43.87-.57l-.01.78z"/>
    <g fill="#de2c39">
        <path d="M72.32 52.9c2.87-1.07 5.22-3.1 7.81-4.7-.01.95-.02 2.85-.03 3.8.38.46 1.14 1.39 1.52 1.86-2.11 1.07-4.25 2.07-6.39 3.06-.88-.48-1.74-.97-2.6-1.48-.15-.46-.44-1.37-.59-1.83l-.17-.53.45-.18zM107.6 62.68l.2-.08c.33.23 1 .69 1.33.92l.3 1.84c.82-.38 1.64-.75 2.46-1.12v1.32l-1.6.01c-.68.51-1.33 1.04-1.98 1.58l1.93.81c-.2.5-.59 1.48-.79 1.97-2.42.02-4.88.3-7.28-.11.43-.4 1.28-1.21 1.71-1.61-1.41-.55-2.81-1.11-4.14-1.84l.62-.47.33-.18c.6-.23 1.78-.69 2.38-.92.42.64.24 1.8 1.03 2.1 1.11-.67.94-2.32 1.47-3.39.51-.21 1.52-.63 2.03-.83m-1.08 2.36l-.09.94c1.8 1.39 1.93-2.62.09-.94m-.49 2.04c.15.31.43.92.57 1.23l.77-.49-.06-.95-.82-.38-.46.59z"/>
    </g>
    <path fill="#c62b2e" opacity=".96" d="M98.02 53.84c.17-1.57 1.41-3.71 2.97-4.3 1.62 1.46-1.32 3.54-2.53 4.31l-.44-.01z"/>
    <path fill="#470f10" d="M102.93 52.01c.68-.75.68-.75 0 0z"/>
    <g fill="#791d21">
        <path d="M102.22 52.77c.18-.19.53-.57.71-.76-.18.19-.53.57-.71.76zM102.22 52.77c-.69.74-.69.74 0 0z"/>
    </g>
    <path fill="#932324" opacity=".9" d="M104.34 52.13c.49.59 1.45 1.76 1.93 2.34-1.18 1.02-2.45 1.93-3.73 2.81-.19.14-.59.4-.78.54-1.22.78-2.35 1.7-3.43 2.67l-1.07-.83c.56-.74 1.03-1.52 1.4-2.36-.34-.25-1.01-.75-1.35-1 .39-.54 1.15-1.62 1.53-2.16.46.46 1.38 1.39 1.84 1.85 1.35-1.15 2.59-2.44 3.66-3.86z"/>
    <path fill="#de3031" d="M98.02 53.84c-.61.58-.61.58 0 0z"/>
    <path fill="#7e2121" opacity=".81" d="M95.15 55.99c2.23-.03.47 3.34-.37.81l.37-.81z"/>
    <g fill="#030100">
        <path opacity=".42" d="M79.45 58.5l.31-.11-.03.33-.38.19.1-.41zM77.47 59.47l.32-.11-.01.35-.41.18.1-.42z"/>
    </g>
    <path fill="#e42f34" d="M80.65 58.27c.71-.31 2.13-.93 2.84-1.23-.05 1.81.15 3.62.81 5.32-1.29.37-2.55.81-3.78 1.33-.18.07-.54.22-.72.3-.44.05-1.32.15-1.76.21-.33.14-.97.43-1.29.57l-1.86.36c-.55.16-1.63.48-2.17.64l-.81.28c-.42.13-1.26.4-1.68.54-1.78.43-3.5 1.07-5.16 1.83-.32.13-.96.4-1.28.53-.45.08-1.33.25-1.77.33l-1.34.59c-.42.12-1.27.36-1.7.48-.28.17-.83.49-1.1.65-.46.02-1.39.06-1.85.07l-.31.82-.18.02c-.84.02-2.51.07-3.35.09 2.14-1.75 4.83-2.54 7.27-3.73.23-.1.67-.3.9-.4l.39-.17c.4-.2 1.21-.58 1.61-.77l.41-.2c.41-.21 1.22-.62 1.63-.83l.37-.18c.4-.21 1.21-.63 1.62-.84l.36-.18c.25-.12.75-.36 1-.49 1.09-.4 2.18-.79 3.28-1.18 1.16.3 2.33.58 3.53.68-.78-.54-1.58-1.07-2.37-1.59 1.04-.45 3.13-1.33 4.17-1.77.25-.12.76-.34 1.01-.46l.41-.18c.39-.2 1.18-.6 1.57-.8l.38-.19c.23-.11.69-.34.92-.45z"/>
    <path opacity=".38" d="M104.66 58.64l.07-.03c-.03.02-.1.05-.13.07l.06-.04zM78.04 64.2c.44-.06 1.32-.16 1.76-.21-.58 1.54-1.17 1.61-1.76.21z"/>
    <path fill="#d93037" opacity=".95" d="M104.73 58.61c.87-.31 2.63-.95 3.51-1.26l-.27 1.84c-.62.4-1.87 1.22-2.49 1.63-.21.09-.62.28-.83.38l-.34.15c-.42.2-1.27.6-1.69.8l-.38.18c-.4.23-1.22.69-1.62.92l-.25.14-.19.1-.41.21-2.58.84.05-1.96 1.71.45-1.03-1.87c2.08 1.41 3.71-.73 5.33-1.64.34-.21 1.01-.63 1.35-.84.03-.02.1-.05.13-.07z"/>
    <g fill="#d62931">
        <path d="M96.34 59.99c3.39.3-1.51 2.92 0 0zM83.78 66.2l1.4-.48c-.07 1.99-.05 3.99.27 5.97-8.2.84-16.31 2.59-24.56 3 .34-.47 1-1.42 1.33-1.89.22-.21.65-.64.87-.85.46-.06 1.39-.19 1.85-.26.32-.13.96-.4 1.28-.54.68-.11 2.06-.34 2.75-.46.31-.14.93-.43 1.24-.58.45-.09 1.34-.29 1.79-.38.3-.14.91-.43 1.21-.57.7-.11 2.1-.34 2.79-.46.31-.15.94-.47 1.25-.62.44-.1 1.33-.29 1.78-.38.27-.12.82-.37 1.1-.49.7-.16 2.11-.46 2.81-.62.21-.09.63-.29.84-.39z"/>
    </g>
    <path fill="#c42e32" opacity=".89" d="M53.66 61.35c-.07 3.37-3.05-1.4 0 0z"/>
    <path opacity=".33" d="M104.31 61.35l.34-.15-.16.31-.25.09.07-.25zM107.55 62.42c.06.04.19.13.25.18l-.2.08-.05-.26zM102.24 62.33l.38-.18-.11.39-.3.11.03-.32zM100.37 63.39l.25-.14-.22.13-.22.11.19-.1z"/>
    <path fill="#4f1516" opacity=".87" d="M51.05 65.73c0-1.36 2.01-2.6 3.32-2.46.38 1.53-1.96 2.93-3.32 2.46z"/>
    <path fill="#260809" opacity=".61" d="M102.23 63.91c1.2-.41 2.39-.84 3.59-1.26l-.25.86c-.53 1.07-.36 2.72-1.47 3.39-.79-.3-.61-1.46-1.03-2.1l-.84-.89z"/>
    <path opacity=".45" d="M66.52 64.51l.27-.11-.04.3-.36.18.13-.37zM64.51 65.51l.29-.11-.03.32-.37.18.11-.39z"/>
    <path fill="#010100" opacity=".34" d="M74.89 65.13l1.86-.36c-.3 1.58-.92 1.7-1.86.36z"/>
    <path opacity=".44" d="M106.52 65.04c1.84-1.68 1.71 2.33-.09.94l.09-.94z"/>
    <path fill="#ff3c42" d="M53.5 66.24c.27.31.27.31 0 0z"/>
    <g fill="#000300">
        <path opacity=".44" d="M62.45 66.48l.33-.11-.01.36-.41.2.09-.45zM60.48 67.47l.31-.1-.04.33-.39.17.12-.4z"/>
    </g>
    <path fill="#030100" opacity=".39" d="M71.91 66.05l.81-.28c.27.29.81.88 1.08 1.18-.41-.03-1.23-.1-1.64-.13l-.25-.77z"/>
    <path fill="#160704" opacity=".61" d="M80.13 67.21c.1-1.44 2.38-2.33 2.81-.62-.7.16-2.11.46-2.81.62z"/>
    <path opacity=".37" d="M97.91 66.96c.12-.07.37-.2.5-.27l.08.45-.58-.18z"/>
    <path fill="#290a0a" opacity=".55" d="M65.07 68.42c1.66-.76 3.38-1.4 5.16-1.83 1.08 2.44-3.67 2.97-5.16 1.83z"/>
    <path opacity=".57" d="M77.25 68.08c.47-1.61 1.06-1.74 1.78-.38-.45.09-1.34.28-1.78.38z"/>
    <path fill="#461417" opacity=".9" d="M93.69 66.94l.12 1.5c-.62.14-1.84.41-2.46.55.15-1.2.93-1.89 2.34-2.05z"/>
    <path fill="#a4282c" opacity=".91" d="M97.13 67.41l.78-.45.58.18.17.85-.45.62-1.08-1.2z"/>
    <path fill="#140405" opacity=".49" d="M106.03 67.08l.46-.59.82.38.06.95-.77.49c-.14-.31-.42-.92-.57-1.23z"/>
    <path fill="#200b08" opacity=".62" d="M73.21 69.16c.21-1.39 2.48-2.26 2.79-.46-.69.12-2.09.35-2.79.46z"/>
    <path fill="#000100" opacity=".44" d="M62.02 69.28c.44-.08 1.32-.25 1.77-.33l.05.82c-.39.05-1.17.14-1.56.18l-.26-.67z"/>
    <path fill="#090705" opacity=".57" d="M70.21 70.11c.5-1.6 1.1-1.73 1.79-.38-.45.09-1.34.29-1.79.38z"/>
    <path fill="#992024" opacity=".95" d="M95.9 68.79c1.56.13 3 1.24 4.66 1.21v1.01c-.83-.11-2.49-.35-3.32-.46-.33-.44-1.01-1.32-1.34-1.76z"/>
    <path fill="#020200" opacity=".45" d="M58.98 70.35c.43-.12 1.28-.36 1.7-.48l.1.85-.72.48c-.27-.21-.81-.63-1.08-.85z"/>
    <path fill="#250a09" opacity=".64" d="M66.22 71.15c.13-1.45 2.46-2.26 2.75-.46-.69.12-2.07.35-2.75.46z"/>
    <path fill="#040400" opacity=".5" d="M56.03 71.07c.46-.01 1.39-.05 1.85-.07-.54.23-1.62.67-2.16.89l.31-.82z"/>
    <g>
        <path fill="#000200" opacity=".6" d="M63.09 71.95c.66-1.52 1.28-1.6 1.85-.26-.46.07-1.39.2-1.85.26z"/>
    </g>
    <g>
        <path fill="#f73339" d="M56.72 74.93c.32-1.45 6.31-2.4 3.5.01-.88-.01-2.62-.01-3.5-.01z"/>
    </g>
    <g>
        <path fill="#f73c42" d="M53.69 75.49l.2.51-.2-.51z"/>
    </g>
    <g>
        <path fill="#050202" opacity=".21" d="M40.63 76.98l4.7.03c.81 3.11-2.3 2.9-4.37 2.95-.08-.75-.25-2.23-.33-2.98z"/>
    </g>
</svg>
