<svg width="128pt" height="128pt" viewBox="0 0 128 128" xmlns="http://www.w3.org/2000/svg">
    <g fill="#fff">
        <path d="M67.29 33.93c1.56 1.49 3.19 3 5.4 3.4-7.19 6.28-13.51 13.49-20.67 19.78 5.41-7.51 10.15-15.47 15.27-23.18zM57.53 56.66c5.68-5.45 11.48-10.77 17.16-16.21.52 2.06 1.81 3.7 3.36 5.1-8.79 5.92-17.42 12.12-26.39 17.78.69-3.09 3.89-4.48 5.87-6.67zM68.65 55.74c3.78-2.45 7.54-4.92 11.32-7.36l.04 3.59c.36.47 1.07 1.41 1.42 1.88-9.91 4.77-19.82 9.54-29.8 14.15.16-.38.48-1.14.63-1.52 5.29-3.83 10.96-7.11 16.39-10.74zM100.37 48.88l2.45 1.41c-3.6 3.08-6.59 6.77-9.96 10.08 2.17-4.04 5.3-7.47 7.51-11.49zM92.19 64.04c4-3.96 8.4-7.48 12.37-11.47.42.52 1.25 1.58 1.67 2.1-3.56 2.25-7.13 4.52-10.44 7.14-1.13.85-2.35 1.58-3.6 2.23zM91.85 67.09c5.25-3.63 10.71-6.97 16.13-10.36-.05.73-.14 2.17-.18 2.89-3.81 1.45-7.39 3.39-11.04 5.18-1.63.79-3.25 1.58-4.91 2.29zM59.44 68.3c8-3.81 16.14-7.32 24.07-11.28-.4 1.85.03 3.66.72 5.38-10.95 3.24-21.73 7.05-32.71 10.2 2.15-2.21 5.26-2.91 7.92-4.3zM92.25 69.71c5.89-2.73 11.82-5.39 17.85-7.8.1 2.95-3.08 3.05-5.14 3.78-4.29 1.18-8.36 3.06-12.71 4.02zM57.87 73.68c9.13-2.7 18.33-5.12 27.42-7.94-.37 1.99-.37 4.01.24 5.96-11.39 1.18-22.71 3.1-34.08 4.43 1.77-1.56 4.27-1.72 6.42-2.45zM92.43 71.8c5.92-1.68 11.91-3.12 17.8-4.92.12.71.34 2.14.46 2.85-6.14.27-12.14 1.81-18.26 2.07z"/>
    </g>
</svg>
