<svg width="128pt" height="128pt" viewBox="0 0 128 128" xmlns="http://www.w3.org/2000/svg">
    <g fill="#fff">
        <path d="M42.09 38.08c.32-1.94-1.08-5.11 1.35-6.01.11 1.98.13 3.96.15 5.95 1.32.46 2.89.56 3.84 1.73-2.84-.44-6.52.13-8.58-2.3 1.08.19 2.16.4 3.24.63zM64.36 42c.06-1.76.07-3.54.6-5.24.79 1.69.75 3.55.69 5.36 1.15.54 2.3 1.1 3.4 1.74-2.38-.12-4.7-.66-7.05-.99l-.01-.87h2.37zM36.57 48.91c2.03.17 4.09 1.18 6.13.49 2.03.82 4.12 1.5 6.3 1.79l.01.96c-4.08-1.06-9.08-.47-12.44-3.24zM59.58 52.24c3.87-1.1 7.5.92 11.3 1.18-.21.55-.43 1.09-.65 1.64-3.02-2.04-7.28-1.27-10.65-2.82zM26.61 54.57c4.06 1.77 7.96 4.77 10.65 8.32-3.94-2.11-8.05-4.64-10.65-8.32zM33.44 65.96c2.69.54 5.37 1.11 8.08 1.49.48-2.27 2.83-1.65 2.36.38 2.9.64 5.85 1.06 8.76 1.63.18.31.53.93.71 1.24-6.18-1.28-12.43-1.99-18.56-3.48-.34-.31-1.01-.94-1.35-1.26zM56.69 66.08c2.41.53 4.84.97 7.29 1.25.31-.41.92-1.22 1.22-1.63.21.51.61 1.55.82 2.06 2.65.5 5.3 1.08 7.99 1.38L74 70.16c-5.7-1.5-12.22-.91-17.31-4.08zM92.4 79.29c6.6-1.25 13.12-2.97 19.79-3.87-.38 1-1.09 1.54-2.14 1.62-4.93 1.14-10.02 1.71-14.84 3.2l-.92 1.16c-3.37 1.12-7.02 1.22-10.32 2.5-2.12 2.91-4.5 5.61-7.21 7.99-2.93 1.67-6.45 1.37-9.68 1.86-9.98.47-19.94 1.6-29.94 1.26-4.44-3.6-10.04-6.23-13.21-11.14.92.04 2.75.13 3.67.17-3.06-3.48-8.86.27-12-2.83 8.8-.01 17.59.51 26.37.97 2.54-.3 1.47 2.83 1.62 4.25 1.44-.01 2.88-.01 4.33 0l.13-1.43c5.49.03 10.99.12 16.44-.65-.08-.77-.23-2.29-.3-3.06.41-.19 1.25-.58 1.67-.77-.08 1.22-.15 2.44-.22 3.67 8.26-.54 16.51-1.55 24.59-3.39.47-.89 1.19-1.39 2.17-1.51m-64.82 3.46l.1 1.44c2.07.12 4.13.25 6.19.32.18.52.54 1.56.72 2.07 2.53-.06 5.06-.07 7.59-.1-.41-.76.53-3.69-1.31-3.55-4.43.09-8.87.17-13.29-.18z"/>
    </g>
</svg>
