<svg width="128pt" height="128pt" viewBox="0 0 128 128" xmlns="http://www.w3.org/2000/svg">
    <g fill="#fff">
        <path d="M63.1 25.62c-2.74-2.71-1.76-6.93.97-9.22 2.49 2.45 3.64 6.45.84 9.17.01 2.58 2.32 4.06 3.84 5.83 5.25.86 10.17 2.98 14.59 5.92 2.14.13 4.38.48 6.42-.41 1.1-1.46 1.16-3.49 2.45-4.82 1.62-1.29 3.81-1.38 5.71-2.01-.64 1.91-.72 4.13-2.04 5.75-1.33 1.21-3.28 1.25-4.73 2.26-1.23 1.97-.74 4.3-.64 6.47 2.36 3.48 4.43 7.23 5.31 11.39.32 3.39 3.1 6.73 6.56 7.13 2.83-3.08 6.73-1.24 9.41.91-2.63 2.23-6.56 3.96-9.38.97-2.69-.21-4.39 2.31-5.82 4.19-.9 4.18-2.11 8.34-4.48 11.95-1.93 2.4-2.37 5.93-1.01 8.73 1.46 1.03 3.39 1.17 4.74 2.39 1.25 1.59 1.36 3.72 1.96 5.59-1.51-.34-3.02-.67-4.52-1-.72-.67-1.44-1.33-2.16-1.99-.36-1.28-.74-2.55-1.13-3.82-2.15-.77-4.4-.69-6.62-.37-4.16 3.28-9.24 4.95-14.31 6.17-1.97 1.29-4.36 3.03-4.12 5.7.65 1.18 1.27 2.39 1.86 3.61-.62 2.09-1.66 4.02-3.2 5.58-1.85-2.76-3.82-6.74-.5-9.29-.06-2.64-2.38-4.18-4.15-5.76-4.58-.7-8.96-2.41-12.84-4.92-2.25-1.59-5.46-1.93-7.91-.61-1.55 1.57-1.23 4.64-3.63 5.42-1.46.55-3 .86-4.51 1.27.35-1.58.71-3.15 1.01-4.74 1.54-1.82 3.78-2.56 5.99-3.23.49-2.17.4-4.38.17-6.56-2.79-3.82-4.72-8.24-5.62-12.88-.4-2.26-2.32-3.84-4.07-5.13-2.2-1.05-4.19 1.39-6.39 1.3-1.88-.47-3.52-1.6-4.85-2.98 2.76-2.11 6.68-3.61 9.34-.45 3.1-.57 5.71-3.27 6.2-6.36.87-4.4 2.85-8.51 5.51-12.09-.02-2.14.51-4.4-.44-6.43-1.31-1.26-3.31-1.32-4.71-2.44-1.41-1.64-1.56-3.89-2.16-5.87 2.47.67 5.23 1.03 6.86 3.25.27 1.28.32 2.7 1.25 3.72 2.04.87 4.29.56 6.44.44 3.8-2.52 7.92-4.7 12.46-5.46 1.5-.15 2.59-1.23 3.78-2.04 1.09-1.22 2.05-2.56 2.27-4.23m-6.95 7.55c-11.73 2.89-21.35 12.97-23.46 24.9-2.66 12.03 2.96 25.29 13.11 32.16 8.11 5.68 18.96 7.41 28.33 4.02 14.68-4.69 24.45-21.12 21.06-36.26-2.95-17.32-22.02-29.68-39.04-24.82z"/>
        <path d="M57.47 37.36c6.97-1.02 14.31-.46 20.5 3.16-2.54.68-5.26-1.99-7.89-2.51.97 3.77-4.21 3.72-4.98 6.96-.92 1.81.44 3.28 1.69 4.43-1.22 1.55-2.02 3.34-1.94 5.34 1.36 1.11 2.94 1.87 4.68 2.13l2.11-2.23c.11-.66.32-1.96.43-2.62 4.67.41 6.26-5.01 4.18-8.5.65-.87 1.32-1.73 2.02-2.57 3.71 2.03 6.51 5.29 8.81 8.78-2.28 3.72-6.47-.36-9.39 2.05-1.58.76-1.2 2.82-1.73 4.21-.65.06-1.95.2-2.61.26-.74.74-1.48 1.47-2.22 2.21.23 1.75.99 3.32 2.12 4.68 1.91-.19 3.77-.67 5.28-1.91 1.23 1.16 2.66 2.6 4.5 1.68 3.05-.81 3.22-5.43 6.67-5.12-.82-2.63-1.99-5.14-2.83-7.76 6.01 8.1 5.24 20.22-.05 28.65-2.25 3.16-4.98 5.9-8.14 8.14-8.44 5.46-19.54 5.4-28.36.86l.12-.85c2.41 1.12 4.9 2.06 7.39 2.97-.55-3.35 3.84-3.4 4.71-6.19 1.33-1.81-.1-3.78-1.41-5.07 1.31-1.36 1.9-3.12 1.99-4.98-.61-.51-1.83-1.52-2.45-2.03l-2.55-.12c-1.43 1.29-2.21 2.99-2.53 4.86-1.17.2-2.34.4-3.51.58-1.61 2.34-1.5 5.38-.5 7.94-.62.76-1.25 1.51-1.9 2.25-3.46-2.26-6.66-5.06-8.7-8.7.71-.67 1.45-1.32 2.2-1.96 2.02.93 4.27.88 6.43.57.39-.35 1.18-1.04 1.58-1.39.18-1.12.37-2.24.57-3.36.75-.07 2.24-.23 2.99-.3 1.26-1.27 2.04-2.79 1.83-4.61-.51-.57-1.53-1.71-2.03-2.28-1.78.34-3.67.54-5.07 1.82-3.01-3.86-7.7-.56-8.95 3.09l-2.52.24c.43 2.59 3.29 5.32 2.5 7.8-3.63-6.24-4.18-13.63-3.12-20.64 3.53.18 4.54 3.7 6.95 5.6.65.07 1.96.19 2.61.26.82-.67 1.64-1.33 2.46-1.98 1.48 1.37 3.33 2.04 5.36 1.95 1.14-1.45 1.83-3.13 1.96-4.97-1.45-1.21-3.12-2.05-4.96-2.48-.25-1.19-.47-2.38-.7-3.58-2.31-1.46-5.29-1.55-7.75-.4-.52-.47-1.54-1.41-2.05-1.87-1.1 2.54-2.01 5.19-3.36 7.61.37-5.51 4.1-10.01 7.89-13.72 3.33-2.79 7.24-5.44 11.67-5.84-2.41 1.42-5.14 2.2-7.67 3.39l1.74 1.98c-.77 2.03-.8 4.22-.54 6.36.37.43 1.1 1.31 1.47 1.75 1.1.18 2.2.37 3.3.56-.13 2.16 1.13 3.71 2.66 5.05 1.66-.52 3.25-1.26 4.67-2.29-.42-1.84-.9-3.7-1.96-5.3 4.11-2.66.53-7.61-2.97-8.67-.18-.85-.53-2.53-.7-3.37m4.96 20.11c-4.11.75-6.46 5.86-4.4 9.49 2.14 5.18 10.98 4.56 12.21-1 1.81-4.66-3.03-9.89-7.81-8.49m10.99 7.38c-.64.82-1.29 1.64-1.95 2.45l-.2 2.37 2.16 2.19 2.61.28c.21 1.13.42 2.26.62 3.4.43.36 1.28 1.1 1.71 1.47 2.14.24 4.35.24 6.38-.58.44.41 1.31 1.22 1.75 1.62 1.2-2.57 2.34-5.17 3.22-7.87-3.43.65-3.37-3.87-6.18-4.76-1.84-1.24-3.78-.04-4.96 1.45-1.55-1.05-3.32-1.69-5.16-2.02m-8.56 8.57c.11 1.89.69 3.7 1.92 5.18-.69.85-1.38 1.71-2.08 2.55-.44 4.32 5.29 4.78 5.56 8.55 2.55-.89 5.05-1.91 7.52-3-.36-.52-1.08-1.57-1.44-2.09 1.05-2.47 1-5.4-.47-7.7-1.22-.22-2.44-.45-3.65-.69-.27-1.81-.84-3.53-2.29-4.73-.67 0-2.01.01-2.68.02l-2.39 1.91z"/>
        <path d="M61.75 64.02c.76-.75 1.52-1.51 2.29-2.26.67.75 1.33 1.51 2 2.26-.66.68-1.33 1.36-1.99 2.04-.77-.68-1.54-1.36-2.3-2.04z"/>
    </g>
</svg>
