<svg width="128pt" height="128pt" viewBox="0 0 128 128" xmlns="http://www.w3.org/2000/svg">
    <path fill="#941c29" d="M61.4 20.41c.6-1.64 1.68-3.03 2.62-4.48 1.07 1.88 2.85 3.67 2.78 5.98-.41 1.52-1.21 2.88-1.93 4.27 1.15 2.54 3.2 5 6.03 5.63 4.55 1.08 9.02 2.76 12.7 5.71l-1.14.4c-6.6-4.1-14.36-6.46-22.18-5.63l-.42-.38c-.07-.34-.22-1.04-.29-1.39.97-1 2.18-1.79 2.95-2.97 1.23-2.49-2.12-4.62-1.12-7.14z"/>
    <g fill="#941c21">
        <path d="M30 29.94c1.85.39 3.81.61 5.49 1.57 1.57 1.15 1.77 3.2 2.22 4.94 2.14.99 4.51.96 6.82.97 3.44-2.74 7.57-4.49 11.8-5.62.38.12 1.14.35 1.52.47-.38.22-1.12.67-1.5.9-12.57 2.76-22.22 14.04-24.1 26.63-.47.15-1.4.44-1.87.59 1.94-5.63 3.33-11.54 7.11-16.32.93-1.4 1.14-3.56-.05-4.87-1.24-1.9-3.66-2.02-5.35-3.3-1.38-1.66-1.51-3.95-2.09-5.96zM90.62 34.98c.44-3.71 4.3-4.5 7.35-4.91-.53 2-.82 4.15-1.96 5.92-1.48.9-3.22 1.24-4.71 2.12-1.22 1.89-.65 4.23-.76 6.34 2.56 3.41 4.42 7.32 5.35 11.49.58 3.04 2.71 6.37 5.95 6.92 1.38-.49 2.69-1.18 4.09-1.61 2.33-.03 4.18 1.72 6.14 2.74-1.7 1-3.33 2.2-5.23 2.8-1.86.06-3.43-1.03-4.95-1.94-2.67.75-4 3.53-6.59 4.41.23-1.82.4-3.65.5-5.49.06-10.12-5.35-19.61-13.2-25.78 2.4-.47 4.84-.77 7.28-.94.19-.52.56-1.55.74-2.07z"/>
    </g>
    <path fill="#070102" opacity=".26" d="M56.33 31.8c1.05-.49 2.13-.93 3.24-1.28.07.35.22 1.05.29 1.39l.42.38c7.82-.83 15.58 1.53 22.18 5.63l1.14-.4c2.38-.84 5.17-.52 7.02-2.54-.18.52-.55 1.55-.74 2.07-2.44.17-4.88.47-7.28.94 7.85 6.17 13.26 15.66 13.2 25.78-.59 1.89-1.05 3.8-.79 5.79-.65 8.09-5.84 15.23-12.1 20.08-7.05 5.21-16.29 7.57-24.93 5.78l.11.92c.02.25.08.75.1 1.01l-.22-.64-.45-1.18c-6.6-1.93-13.03-5.11-17.54-10.45-5.96-6.85-8.94-16.26-7.73-25.28 1.88-12.59 11.53-23.87 24.1-26.63.38-.23 1.12-.68 1.5-.9-.38-.12-1.14-.35-1.52-.47m1.88 2.4c-7.8 1.53-14.86 6.26-19.32 12.83-7.87 11.31-6.5 28.1 3.29 37.86 7.41 8.02 19.4 11.02 29.84 8.16 7.81-2.01 14.46-7.56 18.42-14.52 3.69-6.54 4.45-14.46 2.86-21.72-2.2-9.39-9.23-17.41-18.18-20.94-5.28-2.47-11.26-2.03-16.91-1.67z"/>
    <path fill="#5a1416" opacity=".93" d="M58.21 34.2c5.65-.36 11.63-.8 16.91 1.67C84.07 39.4 91.1 47.42 93.3 56.81c1.59 7.26.83 15.18-2.86 21.72-3.96 6.96-10.61 12.51-18.42 14.52-10.44 2.86-22.43-.14-29.84-8.16-9.79-9.76-11.16-26.55-3.29-37.86 4.46-6.57 11.52-11.3 19.32-12.83m4.72 1.73c-9.13.29-18.1 5.27-22.76 13.18-4.09 6.32-5.02 14.27-3.53 21.56.1-.68.3-2.05.41-2.73.41.8.88 1.56 1.42 2.29.56 1.87 1.63 3.7 1.44 5.72-.23-.14-.69-.43-.92-.57l-.71-1.99-.99.13C41.56 83.73 51.57 92 62.99 91.77c11.6.94 22.96-6.88 27.06-17.59 2.75-6.27 1.57-13.24.94-19.81-.42.62-.83 1.25-1.23 1.89l.69 1.47-.93.1c-.79-2.55-1.84-5.01-2.87-7.47l1.16-.33.88 3.76 1.91.52c-4.52-10.92-15.62-19.09-27.67-18.38M37.05 70.98c-1.47 3.14 3.17.36 0 0z"/>
    <path fill="#a72029" d="M58.07 37.24c4.2-.6 8.46-.48 12.66.15-.23.82-.67 2.44-.9 3.26-2.64 1.37-5.01 3.55-4.97 6.76.5.43 1.48 1.31 1.97 1.74-.89 1.79-1.58 3.66-2.08 5.6 1.57.85 3.22 1.54 4.94 2.02-2.67.17-5.34.31-7.99.7-1.85.86-3.35 2.42-4.14 4.3-.68 1.51-1.3 3.04-1.93 4.57-.28-.31-.85-.93-1.13-1.25-1.81.23-3.51.86-5.09 1.76-1.41-.98-3.11-2.46-4.9-1.36-2.55 1-2.94 4.97-6.04 4.74-.54-.73-1.01-1.49-1.42-2.29-.43-3.6-.12-7.22.24-10.81.81.29 2.44.88 3.26 1.17 1.24 1.74 2.37 3.89 4.56 4.58 1.64.38 2.98-.9 4.37-1.54 1.52.84 3.14 1.43 4.83 1.78.49-.53 1.46-1.59 1.95-2.12 1.12-.62 1.58-2.56.08-3.03-1.43-.89-2.94-1.62-4.49-2.27-.62-1.46-.54-3.56-2.29-4.19-2.04-.89-4.28-.18-6.35.16-.85-.64-1.7-1.29-2.54-1.94 3.41-5.69 9.02-9.53 15.02-12.08.64.45 1.29.88 1.96 1.28-2.6.13-5.09.95-7.24 2.41 1.77 3.17-.63 7.02 1.86 10.05 1.21.12 2.41.24 3.62.38l.44 2.84 1.63 1.83c.7 1.38 2.48.84 3.11-.29l1.89-1.81c-.54-1.66-1.09-3.32-1.66-4.96.75-1.24 2.07-2.47 1.52-4.07-.74-2.32-2.99-3.53-4.91-4.74.05-1.11.11-2.22.16-3.33z"/>
    <path fill="#841f1c" opacity=".87" d="M71.69 37.97c2.01-1.53 1.41 2.45-.22.92l.22-.92z"/>
    <path fill="#4a0e10" opacity=".75" d="M37.44 39.2c1.19 1.31.98 3.47.05 4.87-1.01-1.32-1.01-3.53-.05-4.87z"/>
    <path fill="#841b21" d="M77.83 41.26c-.82-.6-4.62-.9-2.93-2.47 5.03 2.45 9.21 6.32 12.42 10.87-.85.69-1.7 1.37-2.55 2.06-2.79-.79-5.88-1.03-8.23.98-1.46-.26-2.91-.55-4.35-.85 1.2-.25 2.41-.46 3.62-.68 1.34-2.5 1.22-5.3.46-7.95l1.56-1.96z"/>
    <g fill="#841c1e">
        <path d="M38.11 56.85c-.4-1.98.78-4.92 2.45-5.92-.42 1.92-.93 4.73-2.45 5.92zM59.57 64.84c-.99-3.52 3.26-6.72 6.4-4.87 2.74 1.03 2.48 4.46 2.04 6.77-.75-1.11-1.72-2.45-.81-3.87-.88-.95-1.65-2.44-3.21-2.13-2.79-.38-4.49 3.92-2.28 5.55 1.49 1.58 3.78.34 5.63.47-2.13 2.96-7.31 1.63-7.77-1.92z"/>
        <path d="M61.69 63.93c.96-2.43 4.58-2.02 4 .76-1.27 2.08-2.9.58-4-.76zM95.01 69.56l1.65-.89c-.56 4.68-2.23 9.19-4.84 13.12-1.62 1.99-1.52 4.77-1.06 7.16 1.04 2.2 4.27 1.68 5.56 3.63.86 1.67 1.14 3.57 1.66 5.36-1.98-.52-4.27-.54-5.91-1.91-1.56-1.51-1.49-3.96-2.93-5.54-2.03-.56-4.14-.72-6.23-.85 6.26-4.85 11.45-11.99 12.1-20.08z"/>
    </g>
    <g fill="#942021">
        <path d="M72.19 51.85c1.44.3 2.89.59 4.35.85-.07.84-.22 2.51-.29 3.34-.72.11-2.17.32-2.89.43-.46.42-1.39 1.27-1.86 1.69l.24 2.73 1.74 2.22c1.86-.45 3.67-1.11 5.36-2 .43.51 1.29 1.51 1.72 2.01 3.34.12 5.3-2.55 6.97-5.03.5-.06 1.49-.19 1.99-.26l.93-.1c1.49 6.72.21 13.67-2.48 19.92-.42-.55-.83-1.09-1.24-1.63 1.5-1.57 2.21-3.64 2.99-5.62-.59-.12-1.76-.35-2.34-.47-1.21-1.79-2.36-3.88-4.49-4.72-1.69-.66-3.01.74-4.29 1.58-1.65-.69-3.32-1.34-5.01-1.92l-1.99 2.39-.24 2.77c1.53.99 3.16 1.78 4.85 2.43.18 1.11.36 2.22.54 3.34 2.46 1.5 5.28 1.58 7.98.69.86.66 1.74 1.3 2.63 1.92-2.77 3.45-5.89 6.62-9.52 9.18-.33-.71-1-2.13-1.34-2.84.48-2.71.75-5.57-.84-7.98l-3.65-.36c-.13-.78-.4-2.33-.53-3.1-.41-.42-1.23-1.25-1.64-1.67-.65.02-1.94.04-2.59.05-.59.46-1.76 1.38-2.34 1.84.39 1.77.98 3.48 1.77 5.11-.67 1.31-1.93 2.58-1.57 4.19.68 2.21 2.88 3.34 4.61 4.64.18.45.54 1.35.73 1.81l3.8-.16c-5.35 2.42-11.33 2.09-17.02 1.44.23-.79.69-2.35.92-3.13 1.84-1.22 3.96-2.44 4.71-4.66.42-1.62-.97-2.84-1.66-4.13.84-1.65 1.47-3.4 1.93-5.19-2.09-2.09-5.41-2.53-6.98.37-.26-.55-.79-1.66-1.05-2.22 1.01-1.61 1.85-3.54.53-5.26.63-1.53 1.25-3.06 1.93-4.57-1.09 3.7 1.29 8.37 5.38 8.68 3.85.75 7.87-2.43 7.55-6.44.38-4.58-4.66-7.66-8.79-6.54 2.65-.39 5.32-.53 7.99-.7 1.27-1.39 2.03-3.11 2.5-4.92zM57.98 95.42c8.64 1.79 17.88-.57 24.93-5.78 2.09.13 4.2.29 6.23.85-3.32-.32-6.54.25-9.13 2.46-4.77 3.61-13.29 2.1-15.16 9.04.8 1.53 1.99 3.08 1.79 4.91-.49 1.92-1.79 3.5-2.78 5.17-1.8-2.7-4.18-6.28-1.4-9.26.83-1.09.79-2.46 1.02-3.75-.64-.22-1.9-.65-2.54-.86-.71-.47-2.14-1.39-2.85-1.86l-.11-.92z"/>
    </g>
    <path fill="#3e0e0f" opacity=".65" d="M57.96 56.44c.78-.07 2.33-.22 3.11-.29-.63 1.13-2.41 1.67-3.11.29z"/>
    <path fill="#521213" opacity=".73" d="M56.34 57.97c1.5.47 1.04 2.41-.08 3.03l.08-3.03z"/>
    <path fill="#070202" opacity=".24" d="M57.56 61.77c.79-1.88 2.29-3.44 4.14-4.3 4.13-1.12 9.17 1.96 8.79 6.54.32 4.01-3.7 7.19-7.55 6.44-4.09-.31-6.47-4.98-5.38-8.68m2.01 3.07c.46 3.55 5.64 4.88 7.77 1.92-1.85-.13-4.14 1.11-5.63-.47-2.21-1.63-.51-5.93 2.28-5.55 1.56-.31 2.33 1.18 3.21 2.13-.91 1.42.06 2.76.81 3.87.44-2.31.7-5.74-2.04-6.77-3.14-1.85-7.39 1.35-6.4 4.87m2.12-.91c1.1 1.34 2.73 2.84 4 .76.58-2.78-3.04-3.19-4-.76z"/>
    <path fill="#9c2021" d="M30.38 60.39c.47-.15 1.4-.44 1.87-.59-1.21 9.02 1.77 18.43 7.73 25.28 4.51 5.34 10.94 8.52 17.54 10.45l.45 1.18c-4.18-1.01-8.25-2.52-11.88-4.86-2.02-1.38-4.71-1.81-7.04-1.04-2.55.78-1.53 4.39-3.79 5.49-1.61.9-3.49 1.12-5.26 1.56.37-1.8.48-3.75 1.5-5.34.99-1.45 2.83-1.74 4.32-2.44 1.86-.37 1.47-2.68 1.55-4.07.1-3.32-2.62-5.71-3.69-8.68-1.96-3.82-1.53-9.01-5.58-11.53-2.02-1.72-4.2.38-6.26.86-2.27-.03-4.04-1.74-5.91-2.81 1.74-1.11 3.54-2.13 5.35-3.13 1.56.56 3.09 1.22 4.42 2.24 1.88-.21 3.15-1.65 4.68-2.57z"/>
    <path opacity=".29" d="M37.05 70.98c3.17.36-1.47 3.14 0 0z"/>
    <path fill="#8c1c21" d="M51.81 72.04l3.29-.44c.26.56.79 1.67 1.05 2.22l-.4 2.5c-1.16.23-2.29.53-3.41.88-2.21 1.99-1.42 5.23-.7 7.73-.64.81-1.29 1.62-1.94 2.42-3.38-2.51-6.56-5.36-8.93-8.87l.28-.53c.71-.51 1.43-1.03 2.14-1.55 2.08.61 4.37 1.22 6.45.23 1.81-.75 1.58-3.03 2.17-4.59z"/>
    <path fill="#631716" d="M76.18 87.39c.59.52.59.52 0 0z"/>
    <path fill="#65181d" opacity=".88" d="M52.83 88.21c.52.58.52.58 0 0z"/>
    <path fill="#731c21" d="M73.98 88.23c.58.59.58.59 0 0z"/>
    <path fill="#62161a" opacity=".87" d="M54.79 88.92l1.63.16-.02.75-1.63-.16.02-.75z"/>
    <path fill="#450e0f" opacity=".77" d="M60.94 98.2c.64.21 1.9.64 2.54.86-.23 1.29-.19 2.66-1.02 3.75-.29-1.62-.63-3.21-1.52-4.61z"/>
</svg>
