<svg width="128pt" height="128pt" viewBox="0 0 128 128" xmlns="http://www.w3.org/2000/svg">
    <g fill="#fff">
        <path d="M60.04 25.07c1.86-.22 3.71-.45 5.56-.69.26 2.83-.17 5.75.58 8.51 1.73.58 3.65.1 5.38.77-1.47.67-5.2-1.1-5.33 1.1 2.02.69 4.33.46 6.36-.13 1.65-1.81 1.91-4.35 2.66-6.59 2.73.4 5.41 1.13 7.97 2.16-1.46 3.56-3.17 7.01-4.74 10.53-1.92-.67-5.32-1.11-3.73-3.94-3.91-2.1-8.55-.6-12.74-1.96.13-.52.39-1.55.52-2.06-1.98-.01-3.96 0-5.94.01.24 1.27.65 2.48 1.23 3.63-.09.57-.26 1.7-.35 2.26-2.54.75-4.88 1.91-7.07 3.39-1.21-.67-1.57-1.97-2.01-3.16-1.43-3.07-2.58-6.32-3.57-9.56 1.79-.56 3.53-1.29 5.17-2.2.65 1.02 1.23 2.08 1.96 3.05 3.1.43 6.09-.83 9.14-1.2-.55-1.25-.8-2.59-1.05-3.92m.68.36c.55 1.29.95 2.63 1.13 4.03-3.55.43-7.05 1.84-10.68 1.27-.15-.57-.47-1.72-.63-2.29-1.72.29-3.57.44-4.88 1.73 1.62 3.64 2.97 7.43 4.39 11.17 1.99-2.28 5.43-2.19 7.4-4.44-.84-1.46-1.22-3.09-1.51-4.72 2.19-.02 4.37 0 6.56.04.33.67.99 2.03 1.32 2.71 2.96-2.46.73-6.74 1.24-10.01l-4.34.51m14.4 4c.59 2.46-3.25 6.27.67 7.19-.33.72-.66 1.45-.97 2.18.72.24 2.15.71 2.87.94 2.37-2.58 2.99-6.32 4.25-9.52-2.23-.39-4.56-1.9-6.82-.79zM31.18 39.05c.42-.26 1.25-.76 1.67-1.02-1 1.69-2.42 3.26-2.74 5.26.96 1.68 4.72.96 4.64 3.58-.96 3.4-2.12 6.73-3.24 10.08l-1.19 1.07c-2.19-1.21-4.76-1.26-7-2.35-.87 2.43-1.35 4.98-1.58 7.55.6-.23 1.79-.68 2.39-.9-.01-.78-.02-2.36-.03-3.14 4.81-.24 9.47 1.15 14.11 2.17-.04-1.38-.07-2.76-.1-4.14-1.32-.45-4.51-1.46-2.34-3.11.36-1.49 1.12-2.77 2.49-3.54l.22 1.32-1.34.26c-.5 1.3-.99 2.61-1.43 3.94.75.07 2.25.23 3 .3.06 1.91.27 3.9-.68 5.64-4.2-1.39-8.65-1.78-13-2.5-.37 1.52-.77 3.04-1.16 4.56l-2.69-.28c-.25-2.96 1.04-5.73 1.44-8.62 2.89.01 5.41 1.56 8.18 2.13 1.14-3.79 2.75-7.46 3.37-11.39-1.93-.52-4.01-.94-5.62-2.19.83-1.59 1.83-3.08 2.63-4.68z"/>
        <path d="M63.75 37.87c5.28 8.76 9.51 18.17 14.48 27.13 1.29.58 2.59 1.15 3.87 1.74-4.62-.22-9.25-.19-13.88-.08-.41 2.13-1 4.22-1.52 6.33 3.85-.17 7.7-.16 11.55.03-.88-1.73-1.78-3.45-2.63-5.19 1.38.03 2.76.07 4.15.13.98 1.94 1.98 3.89 2.99 5.82-5.5-.24-11.01.31-16.5-.16-.55 2.79-1.35 5.53-1.9 8.32-1.1-2.7-1.79-5.54-2.51-8.36-5.19.48-10.4.06-15.6.13.96-1.97 1.92-3.93 2.92-5.88l4.07.06c-.83 1.7-1.65 3.41-2.48 5.12 3.62-.18 7.24-.14 10.85-.09-.58-2.12-1.16-4.24-1.8-6.33-4.62.04-9.24-.08-13.85.12 1.56-.65 3.13-1.26 4.71-1.87 4.19-9.07 8.8-17.94 13.08-26.97m-.15 9.16c-2.98 5.2-5.34 10.74-7.98 16.12 1.52-.46 3.03-.94 4.56-1.35 1.49-4.83 2.05-9.9 3.42-14.77m4.38 14.68c1.79.49 3.54 1.1 5.31 1.64-2.7-5.17-5.52-10.27-8.05-15.52.32 4.68 1.66 9.31 2.74 13.88zM95.58 39.04c1.95 2.91 4.11 5.67 6.14 8.52-1.87 1.52-4.37 1.78-6.58 2.56.93 2.6.97 5.6 2.61 7.9 2.08 1.52 4.51-1.4 6.79-.58.66 1.9.62 4 1 5.98-2.46.41-4.94.73-7.37 1.32-.06-1.29-.12-2.57-.19-3.86-2.16.67-4.4 1.01-6.66 1.03-.21-1.5-.44-2.99-.75-4.48.58-.67 1.15-1.35 1.71-2.04-.42-1.3-.76-2.63-1-3.98-.95-1.58-2.26-2.15-3.87-1.05-.76-1.24-1.49-2.51-2.17-3.8 3.46-2.49 6.92-4.97 10.34-7.52m-9.39 8.13c1.25 1.47 2.55 3.29 4.32 1.22 1.51 2.52 1.9 5.47 2.4 8.3-3.3-.33-.87 3.14-1 4.7 2.24-.23 4.48-.53 6.67-1.08.1.87.29 2.61.39 3.49 1.94-.39 3.89-.72 5.86-.94-.36-1.51-.38-3.12-1.01-4.55-2.16-.13-4.33.79-6.51.95-1.49-2.86-2.01-6.09-3.31-9.03 2.23-1.04 4.72-1.63 6.68-3.19-1.64-2.32-3.64-4.39-5.02-6.9-3.51 1.86-6.42 4.54-9.47 7.03zM42.21 48.07c.45-.32 1.36-.96 1.81-1.29-1.64 2.15-2.25 5.55-5.06 6.44 1.29-1.57 2.62-3.17 3.25-5.15zM22.88 73.05c3.84-1.19 7.87-1.64 11.73-2.75 2.4 4.15 3.66 8.83 6.21 12.93-4.12-2.37-3.63-8.66-6.87-11.99-3.3.54-6.56 1.32-9.82 2.09-.34 1.68.63 3.3.91 4.92 2.01-.63 4.01-1.26 5.97-2.03l2.7.04c.99 2.59 2.35 5 3.38 7.57-.67.35-2.03 1.04-2.71 1.39l-.06-1.1 1.94-.26c-1.29-2.39-2.25-4.93-3.25-7.44-2.87.77-5.7 1.67-8.52 2.59-.39-2.02-.89-4.03-1.61-5.96zM97.07 75.37c.67-1.5 1.35-2.99 2.07-4.46 2.14.64 4.32 1.12 6.51 1.58-1.29 3.01-1.36 6.56-3.15 9.3-1.21-.53-2.44-1.03-3.65-1.56-1.91-.27-3.73-1.37-5.66-1.2 1.03 3.05 5.23 3.49 7.65 5.32-.07.57-.21 1.7-.27 2.27-1.19 1.42-1.74 3.6-3.51 4.38-1.53-.8-3.14-1.44-4.71-2.14-1.46 2.39-3.08 4.68-4.68 6.97-2.87-2.58-5.72-5.21-8.28-8.1.93-.95 1.88-1.89 2.83-2.83.55.5 1.67 1.49 2.22 1.98 1.3-.56 2.54-1.24 3.7-2.05-.79-.98-1.65-1.91-2.32-2.97 1.54.16 2.38 1.47 3.22 2.59-1.13 1.27-2.42 2.4-3.67 3.56-1.56-1.3-3.2-2.77-5.11-.99.36.56 1.07 1.7 1.42 2.27 2.19 1.59 3.94 3.64 5.82 5.57 1.74-2.39 3.29-4.95 5.35-7.08 1.42 1.14 3.19 1.63 4.83 2.35.97-1.69 1.99-3.36 2.93-5.06-2.53-1.6-5.13-3.18-8.08-3.9 0-1.1-.68-2.48.31-3.35.85-.99 1.98.3 2.87.6 2.03 1.13 4.34 1.62 6.47 2.55 1.26-2.43 1.58-5.19 2.53-7.73-1.77-.6-3.56-1.13-5.42-1.35-.49 1.39-1.03 2.77-1.56 4.14-1.95-.38-3.83-1.06-5.79-1.33-1.87.21-2.75 2.26-3.75 3.61-.5 1.17-1.15 2.26-1.83 3.32-.02-3.3 2.98-5.73 4.66-8.4 1.92.96 3.96 1.63 6.05 2.14z"/>
        <path d="M41.56 80.62c2.69 1.58 4.16 4.42 6.14 6.7 2.47 1.82 5.37 2.9 8.19 4.04.01 2.69-1.16 5.09-2.41 7.4 1.8 1.12 3.92 1.41 5.94 1.91.41-1.48.75-2.97 1.06-4.47 2.67.02 5.34.08 8 .38.1-1.72-1.14-4.04.71-5.18 3.14-.69 6.3-1.4 9.39-2.32 1.63 2.78 2.66 5.85 4.27 8.65-1.73 1.25-4.03.94-6.03 1.38.03 2 .87 3.85 1.34 5.78-3.03-.17-6.04.28-9.06.46-1.58-.67-.48-3.12-.99-4.47-1.45-.05-2.89-.1-4.34-.14.05 3.06.03 6.13.07 9.2-5.43-.19-10.4-2.7-15.75-3.49 1.26-4.11 2.48-8.23 3.89-12.29-1.46-.3-2.84-.8-4.11-1.58.83-1.01 1.18-2.14 1.06-3.37-.86.23-1.68.58-2.45 1.06-.51.22-1.52.68-2.03.9-1.13-2.39-3.07-4.23-4.54-6.4 2.71.73 3.23 3.78 5.16 5.36.9-.61 1.76-1.27 2.65-1.9-1.53-1.87-2.97-3.82-4.61-5.6l-.03-.65-1.67.1.15-1.46m7.3 10.22c.63 1.65 2.11 2.46 3.68 2.99-.36 1.22-.71 2.44-1.07 3.65-.95 2.83-1.77 5.69-2.64 8.54 2.41.58 4.84 1.11 7.22 1.81 2.39.46 4.75 1.05 7.12 1.62.01-3.13-.01-6.26.07-9.38 1.86.06 3.79-.06 5.53.74.05 1.41.12 2.82.21 4.23 2.79-.33 5.58-.66 8.37-.96-1.23-1.61-1.11-3.65-1.07-5.55 1.85-.22 3.92-.12 5.37-1.48-1.05-2.4-2.4-4.64-3.78-6.87-2.67.15-5.19 1.48-7.91 1.38-1.14 1.46-.95 3.26-.34 4.89-2.75 1-5.72.18-8.57.33-.48 1.59-.95 3.19-1.43 4.79-2.13-.84-4.36-1.42-6.6-1.9.07-2.71 1.33-5.1 2.35-7.54-2.14-.49-4.3-2.74-6.51-1.29zM32.35 85.3l1.06-.16c.25.77.77 2.29 1.02 3.06 1.63-.78 3.24-1.64 4.95-2.24-1.38 1.47-3.37 2.06-5.12 2.96-.61-1.22-1.25-2.42-1.91-3.62z"/>
    </g>
</svg>
