<svg width="128pt" height="128pt" viewBox="0 0 128 128" xmlns="http://www.w3.org/2000/svg">
    <path fill="#b02b2c" d="M23.53 13.91c4.58 2.48 7.75 6.79 11.95 9.79.59 3.33.97 6.86 2.92 9.73 2.84 4.45 8 6.54 11.34 10.53 2.35 2.42 3.74 5.54 4.84 8.68-.54.64-1.07 1.29-1.61 1.93-.2-.74-.62-2.23-.82-2.98-4.02-6.49-12.38-7.3-17.91-11.97-8.24-5.56-11.4-16.17-10.71-25.71z"/>
    <path fill="#b2282c" d="M100.23 27.62c3.71-3.9 6.67-8.51 10.84-11.95.62 4.2.2 8.42-1.04 12.47-1.26 8.77-8.6 14.8-15.5 19.47-3.22 2.08-6.72 4.14-10.72 3.91 1.02-.98 2.09-1.9 3.21-2.77 3.85-3.04 8.17-5.88 10.55-10.31 1.65-3.36 2.27-7.13 2.66-10.82z"/>
    <path fill="#180506" opacity=".39" d="M35.48 23.7c1.05 1.31 1.52 2.94 1.89 4.55.17-.64.51-1.9.68-2.53 2.54.18 4.82 1.49 7.28 2.03 1.71.59 3.91.48 5.06 2.12-4.2-.83-8.37-1.88-12.27-3.68 1.11 3.92 2.86 7.99 6.53 10.14 6.28 3.89 11.44 10.35 11.9 17.95.79-.56 1.58-1.12 2.36-1.7.25.54.74 1.62.99 2.15-.74.89-1.55 1.69-2.37 2.49-.07-.61-.21-1.84-.27-2.45-1.48.14-2.95.28-4.42.43-.24-1.2-.47-2.4-.69-3.61.2.75.62 2.24.82 2.98.54-.64 1.07-1.29 1.61-1.93-1.1-3.14-2.49-6.26-4.84-8.68-3.34-3.99-8.5-6.08-11.34-10.53-1.95-2.87-2.33-6.4-2.92-9.73z"/>
    <g fill="#b22b2c">
        <path d="M70.62 26.62c2.03-2.21 5.21-1.25 7.81-1.04l.31.63c.47.95 1.26 1.52 2.37 1.71l.85 1.05c.46.26 1.36.79 1.81 1.05 1.34.15 2.39.89 3.16 2.2-1.46.04-2.91.07-4.36.11-.42.5-1.26 1.52-1.67 2.03-1.58.54-3.15 1.09-4.72 1.64 1.53 4.84 1.76 10.04-.26 14.78-3.82 4.66-8.74 8.54-14.23 11.01-.48.24-1.42.72-1.89.96-.47.34-1.39 1.03-1.86 1.37-1.96 1.52-3.74 3.27-5.62 4.9.03-3.8 1.15-7.65 3.83-10.44.34-.34 1.03-1.02 1.38-1.36.82-.8 1.63-1.6 2.37-2.49.69-.83 1.36-1.66 2.03-2.51 1.23-.4 2.02-1.23 2.36-2.48.22-.42.67-1.25.9-1.66 1.28-2.14 2.29-4.75 1-7.14-1-2.17-5.2-4.74-1.9-6.75l2.13.61c-.19-.31-.58-.94-.77-1.26l-.25-.39c2.39-1.63 3.46-4.37 5.22-6.53z"/>
        <path d="M48.29 60.31c.76-.76 1.67-1.37 2.67-1.78.53-.22 1.59-.64 2.12-.85-2.71 4.58-4.83 10.14-2.54 15.36 1.7.01 2.65-1.77 3.92-2.66 2.03-2.11 4.64-3.51 7.49-4.18-1.61 2.78-3.07 5.94-1.93 9.19.88 2.25 3.17 3.33 5.03 4.64 4.42 3.18 9.68 5.11 13.68 8.87 1.72 1.9 3.18 4 4.46 6.21.84 1.72 1.7 3.44 2.69 5.1.15-2.5.12-5.04-.68-7.43-.41-1.28-1.24-3.83-1.66-5.11l2.31 1.91c2.36 2.93 2.97 6.79 3.36 10.42.26 6.11-3.82 11.53-8.83 14.62-.03-3.07.06-6.27-1.21-9.13-1.73-4.81-6.19-7.79-10.45-10.17-7.27-4.51-16.26-6.28-22.16-12.84-4.3-3.94-5.59-10.18-4.62-15.75 1.01-1.8 2.36-3.44 3.99-4.69.97-.32 1.76-.9 2.36-1.73z"/>
    </g>
    <path fill="#270909" opacity=".51" d="M78.74 26.21c1.62-.59 2.41-.02 2.37 1.71-1.11-.19-1.9-.76-2.37-1.71z"/>
    <path fill="#b22b2b" d="M38.12 26.19c3.9 1.8 8.07 2.85 12.27 3.68 4.4 1.77 9.51 4.17 10.46 9.37l.6 1.84c-.72 2.23-1.03 4.67-.04 6.88-.81 1.55-1.65 3.09-2.5 4.62-.78.58-1.57 1.14-2.36 1.7-.46-7.6-5.62-14.06-11.9-17.95-3.67-2.15-5.42-6.22-6.53-10.14z"/>
    <g fill="#b0292c">
        <path d="M87.27 35.17c4.65-2.11 8.67-5.17 11.9-9.12-.41 7.39-5.16 13.48-10.74 17.93-.74.64-1.52 1.23-2.34 1.77-2.3 1.2-4.63 2.35-6.91 3.61 1.11-3.96 1.27-8.13.14-12.1 2.72-.37 5.48-.81 7.95-2.09zM78.07 79.61l.2-.2c.68 2.18 1.41 4.34 2.02 6.54-1.31-1.55-2.65-3.08-4.04-4.57.61-.59 1.21-1.18 1.82-1.77z"/>
    </g>
    <path fill="#120404" opacity=".34" d="M99.17 26.05l1.06 1.57c-.39 3.69-1.01 7.46-2.66 10.82-2.38 4.43-6.7 7.27-10.55 10.31.84-1.46 1.34-3.09 1.41-4.77 5.58-4.45 10.33-10.54 10.74-17.93z"/>
    <path fill="#380d0d" opacity=".61" d="M81.96 28.97l.82-.39.93.53.06.91c-.45-.26-1.35-.79-1.81-1.05z"/>
    <path fill="#130404" opacity=".33" d="M76.18 36c1.57-.55 3.14-1.1 4.72-1.64 1.92 1.27 4.19 1.14 6.37.81-2.47 1.28-5.23 1.72-7.95 2.09 1.13 3.97.97 8.14-.14 12.1 2.28-1.26 4.61-2.41 6.91-3.61-1.79 3.12-5.57 3.94-8.89 4.04-.31.52-.92 1.55-1.22 2.07-.02-.27-.04-.81-.06-1.08 2.02-4.74 1.79-9.94.26-14.78z"/>
    <path fill="#521313" opacity=".74" d="M61.45 41.08c1.03 2.17 1.37 4.78-.04 6.88-.99-2.21-.68-4.65.04-6.88z"/>
    <path fill="#451010" opacity=".67" d="M66.19 40.94c1.29 2.39.28 5-1 7.14.48-2.36.73-4.75 1-7.14z"/>
    <path fill="#180505" opacity=".45" d="M61.93 52.22c-.02-1.6.77-2.43 2.36-2.48-.34 1.25-1.13 2.08-2.36 2.48z"/>
    <path fill="#130404" opacity=".33" d="M50.96 58.53c.95-2.81 3.47-.5 5.19.05-2.68 2.79-3.8 6.64-3.83 10.44 1.88-1.63 3.66-3.38 5.62-4.9l-.16 2.01c1.56.02 3.95-1.3 4.82.71-1.19 2.75-2.31 5.54-2.58 8.55-1.14-3.25.32-6.41 1.93-9.19-2.85.67-5.46 2.07-7.49 4.18-1.27.89-2.22 2.67-3.92 2.66-2.29-5.22-.17-10.78 2.54-15.36-.53.21-1.59.63-2.12.85z"/>
    <path fill="#1e0707" opacity=".38" d="M45.93 62.04c-.14-1.82.64-2.4 2.36-1.73-.6.83-1.39 1.41-2.36 1.73z"/>
    <path fill="#170605" opacity=".43" d="M59.8 62.75c.47-.24 1.41-.72 1.89-.96l-.07.92-.97.5-.85-.46z"/>
    <path fill="#0e0303" opacity=".33" d="M39.67 68.25c.76-.5 1.52-1.01 2.27-1.52-.97 5.57.32 11.81 4.62 15.75 5.9 6.56 14.89 8.33 22.16 12.84 4.26 2.38 8.72 5.36 10.45 10.17-2.66-1.51-3.49-4.91-6.35-6.22-.12.68-.35 2.05-.47 2.73-3.76-4.3-8.96-6.93-14.2-8.95-6.14-2.34-11.48-6.54-15.61-11.61-3.03-3.69-2.62-8.72-2.87-13.19z"/>
    <path fill="#4c1111" opacity=".63" d="M62.84 69c.25-1.29 2.45-.92 1.96.41-.39 1.09-.76 2.18-1.11 3.29-1.52-.05-1.2-2.68-.85-3.7z"/>
    <path fill="#b2292b" d="M42.89 93.14c-7.73-5.49-8.28-17.43-3.22-24.89.25 4.47-.16 9.5 2.87 13.19 4.13 5.07 9.47 9.27 15.61 11.61 5.24 2.02 10.44 4.65 14.2 8.95 3.44 4.04 2.16 10.98-3.24 12.51.32-2.3 1.41-5.17-.5-7.07-2.75-3.08-6.96-4.01-10.56-5.69-.77-.67-1.66-1.05-2.67-1.14-4.59-1.63-8.61-4.58-12.49-7.47z"/>
    <path fill="#ad2829" d="M63.69 72.7c.35-1.11.72-2.2 1.11-3.29l1.99 1.87c.49.19 1.47.56 1.96.75 3.58 1.84 6.96 4.26 9.32 7.58-.61.59-1.21 1.18-1.82 1.77-2.2-1.44-4.62-2.5-6.9-3.8-.71-.74-1.56-1.2-2.57-1.38-1.21-.66-2.27-1.55-3.38-2.35l.29-1.15z"/>
    <path fill="#140404" opacity=".44" d="M66.79 71.28l.75-.53 1.01.39.2.89c-.49-.19-1.47-.56-1.96-.75z"/>
    <path fill="#270908" opacity=".49" d="M66.78 76.2c1.01.18 1.86.64 2.57 1.38-1.66.87-2.52.41-2.57-1.38z"/>
    <path fill="#1e0707" opacity=".39" d="M82.66 87.04c1.53.27 2.95.85 3.19 2.54l-2.31-1.91c.42 1.28 1.25 3.83 1.66 5.11l-.16 3.16c-.46-.21-1.39-.63-1.85-.83-1.28-2.21-2.74-4.31-4.46-6.21 1.74.97 3.35 2.13 4.95 3.31-.26-1.29-.76-3.88-1.02-5.17z"/>
    <path fill="#300c0a" opacity=".61" d="M85.2 92.78c.8 2.39.83 4.93.68 7.43-.99-1.66-1.85-3.38-2.69-5.1.46.2 1.39.62 1.85.83l.16-3.16z"/>
    <path fill="#230808" opacity=".46" d="M55.38 100.61c1.01.09 1.9.47 2.67 1.14-1.58 1.02-2.47.65-2.67-1.14z"/>
</svg>
