<svg width="128pt" height="128pt" viewBox="0 0 128 128" xmlns="http://www.w3.org/2000/svg">
    <g fill="#fff">
        <path d="M33.87 39.11C25.77 33.49 23.14 23 23.58 13.63c3.61 2.96 7.11 6.04 10.5 9.24 2.91 2.24 1.76 6.52 3.71 9.38 2.48 5.1 8.11 7.2 11.7 11.31 3.09 3.15 5.09 7.37 5.22 11.82-1.78-1.69-2.46-4.17-4.16-5.92-4.49-5.03-11.79-5.82-16.68-10.35zM109.49 17.01c.29-.65.68-1.22 1.17-1.7 1.48 6.04-.33 12.13-2.2 17.86-2.73 5.71-7.73 9.97-12.85 13.51-3.52 2.31-7.22 4.95-11.63 4.85 3.58-3.63 8.09-6.21 11.47-10.03 3.17-3.7 4.05-8.66 4.75-13.32 2.78-3.97 6.3-7.36 9.29-11.17zM42.44 66.07c2.51-4.1 6.87-6.53 11.03-8.7-3.16 4.76-5.26 10.81-2.66 16.32 3.18-3.29 6.67-6.82 11.42-7.5-1.91 3.02-3.93 6.89-1.67 10.32 5.26 5.71 13.41 7.6 18.76 13.23 3.13 2.81 4.83 6.75 6.31 10.6.65-4.57-.75-9.02-2.51-13.17 4.65 3.38 6.13 9.45 5.93 14.91-.68 5.33-4.4 9.6-8.63 12.61.71-6.13-1.56-12.76-6.87-16.23-8.46-6.7-20.12-8.26-27.48-16.44-4.02-4.07-5.73-10.56-3.63-15.95z"/>
        <path d="M63.5 67.89c1.8 3.54 5.97 4.3 8.95 6.49 4.18 2.62 6.95 7 7.9 11.81-1.6-1.98-2.99-4.23-5.19-5.62-3.32-2.39-7.67-3.16-10.59-6.13-1.8-1.73-1.26-4.35-1.07-6.55zM43.01 93.04c-7.8-5.54-8.5-18.02-2.65-25.19-.88 4.38-.79 9.22 1.8 13.04 4.64 5.89 10.86 10.63 18.05 12.93 5.43 2.64 12.34 5.54 13.72 12.1 1.14 3.7-1.61 7.03-4.7 8.63.34-1.79.62-3.6.77-5.42-2.29-4.01-6.87-5.46-10.91-7.03-5.88-1.96-11.23-5.25-16.08-9.06z"/>
    </g>
</svg>
