<svg width="128pt" height="128pt" viewBox="0 0 128 128" xmlns="http://www.w3.org/2000/svg">
    <path fill="#561315" opacity=".73" d="M44.39 19.74c.47 1.26.84 2.55 1.15 3.85.83-.16 2.47-.49 3.3-.65-.03 3.1-2.75 3.21-4.59 4.64-.63-.16-1.25-.32-1.88-.49-.41.91-1.24 2.72-1.65 3.62l-.81-1.44c-.3-2.83 1.66-5.64 1.23-8.69.61 1.47 1.16 2.97 1.67 4.48 1.83-.98.94-3.63 1.58-5.32z"/>
    <path fill="#571315" opacity=".68" d="M57.43 19.57c.43 1.77.75 3.57 1.03 5.37.76-1.69 1.09-3.63 2.34-5.06.13 1.66.23 3.33.28 4.99l1.7-.02.24-2.79-.02.37c-.13 1.54-.11 3.12.31 4.63l.38.22c.94.56 1.87 1.15 2.78 1.77l.37.25c-.17.42-.5 1.26-.66 1.68-.55.23-1.63.7-2.17.93l.52-3.02c-2.99-.49-5.4-2.33-7.56-4.34l-.48-.42c.29-1.52.61-3.04.94-4.56z"/>
    <path fill="#cb282c" d="M52.85 26.06c1.34-1.37.44-3.6 1.44-5.16.6 1.89 1.02 3.83 1.68 5.71.25-.52.75-1.55 1-2.06 2.16 2.01 4.57 3.85 7.56 4.34l-.52 3.02c.54-.23 1.62-.7 2.17-.93.42 1.14.84 2.28 1.27 3.42.94-1.94 1.93-3.85 2.91-5.76-.03.87-.09 2.62-.11 3.49-.43 1.89-1.49 3.55-2.41 5.22 3.17-.41 3.32-3.76 5.38-5.35-.19.65-.57 1.96-.76 2.62-1.29 3.18-3.84 5.54-6.07 8.04 3.25-.48 5.8-2.66 7.35-5.47-.04 3.14-2.65 6.06-5.66 6.85-2.61.31-5.3-.17-7.84.7l-1.13.26c.83-1.41 1.65-2.83 2.46-4.25-2.68.78-4.69 2.7-6.59 4.63.04-1.71.07-3.42.08-5.14-1.62 1.65-2.97 3.53-4.1 5.55-.94-1.89-1.89-3.77-2.9-5.62l-.42 1.58c-.5 1.75-.81 3.58-.34 5.37-2.24-1.39-4.91-1.99-7.44-1.03 1.13.89 2.26 1.79 3.38 2.7-.68.26-2.05.77-2.74 1.02-1.09.26-2.03.98-2.52 2 1.5.22 3.01.28 4.53.19l-.71.45c-2.01.62-4.32-.06-6.18 1.1-2.12 1.21-3.07 3.63-4.72 5.32-.89.46-1.57 1.13-2.02 2.02-.88.82-1.91 1.23-3.09 1.23-.53-.22-1.57-.66-2.1-.88.68-.08 2.04-.23 2.73-.3 1.61-1.03 2.86-2.48 3.95-4.03-1.8.96-3.62 1.94-5.63 2.4-.3-.28-.89-.84-1.19-1.12.67-.07 2-.2 2.67-.26-.34-.43-1.01-1.28-1.34-1.71.52-.18 1.56-.54 2.09-.72-1.36-.98-2.98-1.55-4.66-1.49-1.86-.27-4.23-.12-5.52-1.76.42.08 1.26.25 1.67.33 3.21.62 6.49.66 9.72 1.12-1.72-1.01-3.48-1.93-5.28-2.8.79-.46 2.37-1.38 3.15-1.84-1.53.02-3 .45-4.4 1.04-1.89-.8-3.76-1.66-5.57-2.63 1.28.29 2.52.68 3.78 1.04 1.47.69 2.96.13 4.32-.52-1.59-1.02-3.22-1.98-4.88-2.89-.84-.42-1.62-.95-2.32-1.57 1.42.33 2.81.8 4.2 1.27 1.71.55 3.47.97 5.22 1.39-.93-.94-1.87-1.86-2.83-2.77 1.25-.39 2.38-.99 3.4-1.8-.62-.39-1.86-1.15-2.48-1.54-1.53-.92-3.02-1.92-4.42-3.03 3.21 1.02 6.08 2.81 9.2 4.05-.72-.49-2.15-1.47-2.87-1.96.64-.66 1.29-1.31 1.97-1.94 1.1.55 2.18 1.14 3.27 1.73-.8-1.3-1.59-2.61-2.4-3.91-.83-1.34-1.7-2.64-2.55-3.96 1.8.93 3.2 2.41 4.69 3.74.55-1.82.18-3.64-.41-5.39.93 1.04 1.86 2.07 2.81 3.09.6-1.14 1.44-2.37.56-3.6-.62-1.55-1.29-3.07-1.77-4.65.75.69 1.35 1.53 1.81 2.45.71 1.37 1.46 2.72 2.21 4.06.47-.64.95-1.28 1.42-1.92-.31-1.75-.55-3.51-.7-5.29.89 1.9 1.54 3.91 2.6 5.72l.81 1.44c.41-.9 1.24-2.71 1.65-3.62.63.17 1.25.33 1.88.49 1.84-1.43 4.56-1.54 4.59-4.64.22.79.66 2.35.88 3.14 1.87-.8.51-3.48 1.05-5 1.24 1.4 1.91 3.13 2.08 4.98M27.1 43.14c.39 3.26 2.93-1.67 0 0z"/>
    <path fill="#2a090a" opacity=".51" d="M36.13 21.91c.61.43 1.01.98 1.18 1.64.15 1.78.39 3.54.7 5.29-.47.64-.95 1.28-1.42 1.92-.75-1.34-1.5-2.69-2.21-4.06.55-.4 1.66-1.2 2.21-1.6-.12-.8-.34-2.39-.46-3.19z"/>
    <path fill="#cb2c30" opacity=".94" d="M63 22.43c1.83.16 1.44 3.62.69 4.85l-.38-.22c-.42-1.51-.44-3.09-.31-4.63z"/>
    <path fill="#a72426" opacity=".91" d="M66.47 29.05c-.97-1.28-1.18-4.28.36-5 .08 1.74.46 3.54.01 5.25l-.37-.25z"/>
    <path fill="#260809" opacity=".42" d="M66.83 24.05c1.3 1.69.18 4.08.47 6.01 2.21-.03 1.9-2.85 3.67-3.58.03 1.9.35 3.95-.72 5.65.02-.87.08-2.62.11-3.49-.98 1.91-1.97 3.82-2.91 5.76-.43-1.14-.85-2.28-1.27-3.42.16-.42.49-1.26.66-1.68.45-1.71.07-3.51-.01-5.25z"/>
    <path fill="#26090a" opacity=".5" d="M29.31 27.26l.54-.91.42 1.83.12.51.5-.15c1.2-.54 2.46-.69 3.45.36.88 1.23.04 2.46-.56 3.6-.95-1.02-1.88-2.05-2.81-3.09.59 1.75.96 3.57.41 5.39-1.49-1.33-2.89-2.81-4.69-3.74l-.73-.4.05-.9c1.94 2.04 4.16-.3 3.3-2.5z"/>
    <path fill="#9f2326" d="M30.27 28.18c.16.09.47.27.62.36l-.5.15-.12-.51z"/>
    <path fill="#410f11" opacity=".64" d="M23.74 31.91c1.89.97 3.5 2.37 5.09 3.76l.41-.65c.81 1.3 1.6 2.61 2.4 3.91-1.09-.59-2.17-1.18-3.27-1.73-.52-.24-1.55-.7-2.06-.94l-.24 2.54c-1.52-1.53-2.96-3.13-4.45-4.69 1.27.61 2.64.91 4.04.98-.48-.8-1.44-2.38-1.92-3.18z"/>
    <path fill="#0d0303" opacity=".29" d="M66.39 42.66c2.23-2.5 4.78-4.86 6.07-8.04.32.64.96 1.93 1.28 2.57-1.55 2.81-4.1 4.99-7.35 5.47z"/>
    <path fill="#240808" opacity=".53" d="M24.49 40.08c.62.39 1.86 1.15 2.48 1.54-1.02.81-2.15 1.41-3.4 1.8.96.91 1.9 1.83 2.83 2.77-1.75-.42-3.51-.84-5.22-1.39.41-.39 1.25-1.17 1.67-1.56.17-.22.52-.68.69-.91.24-.56.71-1.69.95-2.25z"/>
    <g fill="#731518">
        <path d="M18.44 41.42c1.65-.4 3.68-.03 5.1.91-.17.23-.52.69-.69.91-1.43-.19-3.67-.62-4.41-1.82zM45.68 66.16c.27-2.85-.45-5.91.75-8.59.3 1.51.56 3.03.79 4.56.41-.26 1.23-.79 1.64-1.05.31.62.94 1.87 1.25 2.5.53.91 1.11 1.79 1.69 2.68.12-1.52.25-3.05.37-4.57 1.54 2.77 3 5.59 4.23 8.5.12-.38.35-1.14.47-1.53.57-.9 1.16-1.79 1.76-2.67 1.39 5.97 3.36 11.78 5.88 17.36 1.58-3.64.85-7.63.1-11.37.64 0 1.92.01 2.57.01-.04.39-.1 1.17-.13 1.56-1.46 3.85-.88 7.98-.07 11.91.17 1.88.34 3.77.52 5.66.16-2.4.29-4.8.45-7.2.52.34 1.56 1.03 2.08 1.37.07.44.23 1.32.31 1.75l.7-.06c-.12-2.56-.25-5.12-.37-7.68-.41.18-1.23.53-1.64.71-.15-.64-.44-1.92-.59-2.56 3.46-4.85-1.11-10.47.71-15.75 1.22 2.21.09 4.88.21 7.25 2.26-.3 3.18-1.34 2.73-3.14l1.23.46c.95.88 1.66 1.99 2.47 2.99l.32-2.29c2.08 3.61.58 7.84-.06 11.63-.32-.11-.97-.34-1.3-.46-.4 1.28-.72 2.59-.69 3.94 1.37-.23 2.09-1.48 2.46-2.7.76-1.14 1.6-2.24 2.38-3.37 1.57-2.36 3.13-4.74 4.9-6.96-.76 3.15-2.59 5.88-3.86 8.83-1.42 2.88-2.32 6.13-4.67 8.44-.01.65-.01 1.94-.02 2.59-1.49 1.38-3.17 2.54-4.81 3.72-1.21 1.14-2.04 2.61-2.95 3.99-.77-.83-1.86-1.05-2.91-1.26-1.19-2.8-1.4-5.81-1.29-8.81-.82-1.87-2.44-3.25-3.63-4.88-.06-.08-.19-.25-.25-.34l-.55-.79c-1.54-4.13-4.43-7.56-6.38-11.48.09 2.04.11 4.09.06 6.14-2.89-2.56-3.24-7.27-6.86-9.04z"/>
    </g>
    <path fill="#140505" opacity=".42" d="M48.06 40.17c1.01 1.85 1.96 3.73 2.9 5.62 1.13-2.02 2.48-3.9 4.1-5.55-.01 1.72-.04 3.43-.08 5.14 1.9-1.93 3.91-3.85 6.59-4.63-.81 1.42-1.63 2.84-2.46 4.25l1.13-.26.83-.17c-1.57 1.65-3.2 3.25-4.51 5.12 1.21 2.26-.27 4.25-1.26 6.2-.32 1.07-.62 2.14-.89 3.23-.29-2.15-.61-4.3-1.03-6.42l-.4-1.93c.42.64 1.25 1.94 1.67 2.58 1.43-2.28 1.49-5.09 2.57-7.53.07-.09.22-.27.29-.36-.07.09-.22.27-.29.36-1.47 1.12-2.61 2.58-3.53 4.16-.35-1.59-.78-3.16-1.29-4.7-.31 1.63-.59 3.26-.87 4.89-.68-1.12-1.38-2.24-2.06-3.35-.96-1.55-1.82-3.2-1.83-5.07l.42-1.58z"/>
    <path fill="#330c0c" opacity=".66" d="M47.3 47.12c-.47-1.79-.16-3.62.34-5.37.01 1.87.87 3.52 1.83 5.07-.2 1.14-.4 2.29-.59 3.43-.23-.19-.69-.58-.92-.78-.16-.59-.49-1.76-.66-2.35z"/>
    <path fill="#78191e" opacity=".91" d="M27.1 43.14c2.93-1.67.39 3.26 0 0z"/>
    <path fill="#180506" opacity=".41" d="M19.3 45.1c1.66.91 3.29 1.87 4.88 2.89-1.36.65-2.85 1.21-4.32.52-.21-1.13-.39-2.27-.56-3.41z"/>
    <path fill="#2c0b0c" opacity=".86" d="M57.22 45.82c.07-.09.22-.27.29-.36-.07.09-.22.27-.29.36z"/>
    <path fill="#4d1010" d="M52.4 45.28c.51 1.54.94 3.11 1.29 4.7.92-1.58 2.06-3.04 3.53-4.16-1.08 2.44-1.14 5.25-2.57 7.53-.42-.64-1.25-1.94-1.67-2.58l.4 1.93-1.09.15c-.76-.64-1.5-1.31-2.21-2.01.06 1 .19 3.02.26 4.03-.55-.46-1.65-1.38-2.2-1.83l-.28 1.79c-1.02-1.24-2.2-2.27-3.56-3.1l.5 1.92c-.85-.76-1.84-1.16-3-1.2l.71-.45.46-.32c-.67-.79-1.5-1.41-2.47-1.87.69-.25 2.06-.76 2.74-1.02l2.51 2.19c-1.15-1.61-2.31-3.23-3.48-4.83 2 .91 3.96 1.95 5.69 3.32.23.2.69.59.92.78.19-1.14.39-2.29.59-3.43.68 1.11 1.38 2.23 2.06 3.35.28-1.63.56-3.26.87-4.89z"/>
    <path fill="#390d0d" opacity=".58" d="M21.65 50.1c1.4-.59 2.87-1.02 4.4-1.04-.78.46-2.36 1.38-3.15 1.84 1.8.87 3.56 1.79 5.28 2.8-3.23-.46-6.51-.5-9.72-1.12l4.48.12c-.32-.65-.97-1.95-1.29-2.6z"/>
    <path opacity=".3" d="M37.98 51.81c.49-1.02 1.43-1.74 2.52-2 .97.46 1.8 1.08 2.47 1.87l-.46.32c-1.52.09-3.03.03-4.53-.19z"/>
    <g fill="#631415">
        <path d="M51.2 57.71c.4-1.5-1.05-4.68 1.09-4.86l1.09-.15c.42 2.12.74 4.27 1.03 6.42.27-1.09.57-2.16.89-3.23.43.54 1.3 1.62 1.73 2.16.13-.78.37-2.33.5-3.1 1.45 1.19 1.24 3.17 1.48 4.85.26 2.56.85 5.07 1.43 7.57.26-3.09 1.86-6.17 1.08-9.28-.53-1.85-.98-3.72-1.34-5.61 2.51 2.37 3.27 6.25 6.62 7.77-.51-2.11-.87-4.23-1.07-6.39 1.44 2.31 2.33 4.89 3.48 7.35l-.06.49c-1.82 5.28 2.75 10.9-.71 15.75-.43-1.81-.86-3.64-1.26-5.46-.65 0-1.93-.01-2.57-.01.75 3.74 1.48 7.73-.1 11.37-2.52-5.58-4.49-11.39-5.88-17.36-.6.88-1.19 1.77-1.76 2.67-1.28-2.87-2.28-5.86-3.43-8.79-.24-.6-.72-1.82-.96-2.42l-1.28.26zM71.32 56.93c.72 3.1 1.5 6.19 2 9.34l-1.23-.46c-.61-2.92-.81-5.9-.77-8.88z"/>
    </g>
    <path fill="#140505" opacity=".51" d="M22.31 54.01c1.68-.06 3.3.51 4.66 1.49-.53.18-1.57.54-2.09.72-.47-.04-1.4-.14-1.87-.19-.18-.5-.53-1.52-.7-2.02z"/>
    <path fill="#5c1516" opacity=".73" d="M15.85 56.13c2.38-.15 4.77-.25 7.16-.1.47.05 1.4.15 1.87.19.33.43 1 1.28 1.34 1.71-.67.06-2 .19-2.67.26.3.28.89.84 1.19 1.12l.58.56c-1.99.16-3.99.22-5.97-.03 1.27-.59 2.58-1.04 3.94-1.36-2.59-.3-5.47-.41-7.44-2.35z"/>
    <path fill="#4d161a" opacity=".89" d="M49.26 56.01c1.59.2 2.42 3.59 1.11 4.42-1.14-.91-2.73-3.23-1.11-4.42z"/>
    <path fill="#3c0c0d" opacity=".56" d="M24.74 59.31c2.01-.46 3.83-1.44 5.63-2.4-1.09 1.55-2.34 3-3.95 4.03-.28-.27-.83-.8-1.1-1.07l-.58-.56z"/>
    <path fill="#1b0807" opacity=".62" d="M61.52 58.09c.78 3.11-.82 6.19-1.08 9.28-.58-2.5-1.17-5.01-1.43-7.57.63-.43 1.88-1.29 2.51-1.71z"/>
    <path fill="#040000" opacity=".33" d="M28.88 60.89c.45-.89 1.13-1.56 2.02-2.02.44 1.8-.23 2.48-2.02 2.02z"/>
    <path fill="#130504" opacity=".53" d="M53.44 59.87c1.15 2.93 2.15 5.92 3.43 8.79-.12.39-.35 1.15-.47 1.53-1.23-2.91-2.69-5.73-4.23-8.5-.12 1.52-.25 3.05-.37 4.57-.58-.89-1.16-1.77-1.69-2.68.97-1.36 2.1-2.59 3.33-3.71z"/>
    <g fill="#4d1013">
        <path d="M111.66 59.74c-.04 1.76-.36 3.51-.95 5.17-2.92 8.93-6.54 17.86-12.54 25.2-2.67 3.41-6.23 6.13-10.32 7.6 4.65.99 9.1-.59 13.12-2.83-1.12 2.4-2.3 5.12-4.95 6.18-4.89 2.66-10.32-.93-15.41.75l-.23-.77c-.36-1.18-.71-2.36-1.05-3.54l-.04-.14c16.15-6.37 26.98-21.62 32.37-37.62zM66.98 85.46c-.81-3.93-1.39-8.06.07-11.91.24 3.97.16 7.94-.07 11.91zM75.5 86.71c3.65-3.12 6.16-7.29 9.52-10.69-2.17 4.51-5.95 8.02-8.02 12.58-.51-.63-1.01-1.25-1.5-1.89z"/>
    </g>
    <path fill="#0c0304" opacity=".35" d="M23.06 61.46l.63-.22c.53.22 1.57.66 2.1.88.02 1.92-3.85 1.1-2.73-.66z"/>
    <path fill="#631313" d="M42.46 61c1.72 3.19 2.96 6.62 3.79 10.15.38-.4 1.13-1.2 1.5-1.6 1.75 2.85 3.43 5.75 5.18 8.61l.51-5.13c1.85 2.47 3.64 4.98 5.42 7.51l.55.79c.06.09.19.26.25.34 1.19 1.63 2.81 3.01 3.63 4.88-.11 3 .1 6.01 1.29 8.81 1.05.21 2.14.43 2.91 1.26-2.01 1.89-4.31.04-6.44-.43-4.76.38-9.32-1.14-14.07-1.12-2.18-.12-4.4-.16-6.49-.88 4.67-.57 9.39-.16 14.06-.62.56 0 1.12.01 1.68.01.23-.39.67-1.16.89-1.55.15-.2.43-.6.57-.8-1.31-1.68-2.64-3.35-3.94-5.04-1.95-2.55-3.82-5.18-5.9-7.64.49 1.44 1.01 2.87 1.53 4.3l-2.99.16c-.38-1.04-.81-2.06-1.27-3.06-2.09-3.55-4.29-7.05-5.79-10.91 1.78 1.68 3.09 3.77 4.33 5.86.29-.56.88-1.68 1.17-2.24l.4 2.36.7-.22c-1.26-4.57-2.29-9.21-3.47-13.8z"/>
    <path fill="#130505" opacity=".43" d="M77.49 61.68c1.99 4.56-1.82 9.91 1.41 14.33-.78 1.13-1.62 2.23-2.38 3.37l-.47-.78c.64-3.79 2.14-8.02.06-11.63l-.11-.23c.42-1.71.94-3.39 1.49-5.06z"/>
    <path fill="#6b1418" d="M48.99 89c-3.59-3.98-7.88-7.34-10.95-11.79 2.11 1.42 4.02 3.11 5.79 4.93-.05-.63-.16-1.88-.22-2.51l1.51.32c.46 1 .89 2.02 1.27 3.06l2.99-.16c.59 1.57 1.19 3.13 1.82 4.67.44 1.03.92 2.04 1.4 3.06.16-.69.49-2.07.65-2.76 1.29 1.4 2.58 2.8 3.87 4.21-.22.39-.66 1.16-.89 1.55-.56 0-1.12-.01-1.68-.01-6.66-2.39-13.39-4.82-19.72-7.98 3.16.63 6.25 1.55 9.33 2.49.42-.33 1.27-.99 1.69-1.32 1.03.77 2.07 1.53 3.14 2.24z"/>
    <path fill="#1e0806" opacity=".65" d="M74.75 78.14c.33.12.98.35 1.3.46l.47.78c-.37 1.22-1.09 2.47-2.46 2.7-.03-1.35.29-2.66.69-3.94z"/>
    <path fill="#0b0302" opacity=".36" d="M47.85 78.55c2.08 2.46 3.95 5.09 5.9 7.64-.64.34-1.91 1-2.55 1.33-.63-1.54-1.23-3.1-1.82-4.67-.52-1.43-1.04-2.86-1.53-4.3z"/>
    <g fill="#420d0b">
        <path d="M69.03 80.01c.41-.18 1.23-.53 1.64-.71.12 2.56.25 5.12.37 7.68l-.7.06c-.08-.43-.24-1.31-.31-1.75-.28-1.77-.59-3.54-1-5.28zM68.14 109.03c.39-6.23 3.37-12.58 9.29-15.28-.72 1.73-1.5 3.44-2.43 5.09 1.43-.5 2.88-.93 4.33-1.34.34 1.18.69 2.36 1.05 3.54l.22.77c-4.89.86-8.79 4.11-12.46 7.22z"/>
    </g>
    <path fill="#140404" opacity=".61" d="M59.41 81.33c.06.09.19.26.25.34-.06-.08-.19-.25-.25-.34z"/>
    <path fill="#1c0708" opacity=".51" d="M76.38 89.94c2.83-2.2 6.15-3.92 9.66-4.74-3.41 1.42-5.89 4.57-9.39 5.67-2.14.34-4.08 1.39-6.21 1.76 1.64-1.18 3.32-2.34 4.81-3.72.28.26.85.77 1.13 1.03z"/>
    <path fill="#1a0606" opacity=".59" d="M53.75 86.19c1.3 1.69 2.63 3.36 3.94 5.04-.14.2-.42.6-.57.8-1.29-1.41-2.58-2.81-3.87-4.21-.16.69-.49 2.07-.65 2.76-.48-1.02-.96-2.03-1.4-3.06.64-.33 1.91-.99 2.55-1.33z"/>
    <path fill="#551010" d="M70.44 92.63c2.13-.37 4.07-1.42 6.21-1.76-3.9 3.09-7.38 6.82-9.41 11.42-.95-.58-1.93-1.09-2.93-1.55-7.62-1.08-15.38-.1-22.97-1.41 6.64-.62 13.18-1.87 19.71-3.14 2.13.47 4.43 2.32 6.44.43.91-1.38 1.74-2.85 2.95-3.99z"/>
    <path fill="#090404" opacity=".39" d="M39.9 100.33l1.44-1c7.59 1.31 15.35.33 22.97 1.41-8.14.21-16.3.09-24.41-.41z"/>
</svg>
