<svg width="128pt" height="128pt" viewBox="0 0 128 128" xmlns="http://www.w3.org/2000/svg">
    <g fill="#fff">
        <path d="M48.01 44.32c1.28 1.95 2.37 4.02 3.44 6.09.16-2.18.65-4.32 1.7-6.25.1 2.04.23 4.09.46 6.12 1.23-2.27 2.62-4.55 4.85-5.99-2.22 2.54-3.24 5.84-1.51 8.92l-1.92-1.82c.3.95.89 2.86 1.19 3.81-1.19-1.49-2.3-3.05-3.4-4.61.65 2.67 1.42 5.31 1.95 8 .08-.73.25-2.21.33-2.95.56.86 1.67 2.59 2.22 3.46l-.04-3.94c.28.28.84.85 1.12 1.13.78 3.63 1.49 7.26 2.22 10.9.27-2.58.19-5.17-.02-7.74 1.12-2.17.11-4.57-.06-6.83 2.02 2.85 3.19 6.54 6.66 8.02-.54-2.48-1.38-4.89-1.84-7.38 2.31 2.63 2.55 6.47 4.26 9.5-.23 4.18-.77 8.36-.43 12.54.64-2.47 1.04-5 1.61-7.49.6.7 1.79 2.1 2.39 2.8l-.99-2.72c.57-.45 1.14-.9 1.7-1.35.42.78 1.24 2.33 1.66 3.11.95-2.63 1.6-5.35 2.45-8.01-.22 3.96-1.49 7.88-.74 11.86-.47 3.84-3.36 6.92-4.06 10.7 3.58-5.14 7.07-10.35 10.89-15.31-3.1 6.64-6.38 13.23-9.55 19.81 3.57-4.07 6.75-8.46 10.42-12.45-2.47 4.4-5.75 8.26-8.77 12.29 2.1.99 4.01-.49 5.83-1.37-1.71 1.44-3.54 3.29-5.84 3.5-.17-.39-.5-1.17-.67-1.57-1.31 1.51-3.14 2.23-5 2.8l.64.66c-.49.34-1.47 1.01-1.96 1.35 1.53-.6 2.88-2.06 4.62-1.81-1.56 3.55-5.35 5.95-6.41 9.92-1.25-.57-2.5-1.18-3.84-1.49-7.58-.64-15.23-.08-22.8-.95 7.35-.68 14.56-2.3 21.89-3.17-3.52-.58-7.13-.13-10.58-1.15-4.42-.47-8.9-.26-13.33-.76 5.39-.62 10.8-.47 16.21-.54-6.37-3.07-13.21-5.03-19.57-8.1 3.57.76 7.09 1.76 10.58 2.83l-1.38-2.19c1.71.92 3.41 1.85 5.11 2.81-3.7-3.88-8-7.22-11.08-11.67 1.23.94 2.43 1.93 3.59 2.97l1.69 1.73-.04-2.8c1.35 1.47 2.68 2.97 4.05 4.42-.67-1.21-1.37-2.41-2.09-3.59-2.51-3.36-4.53-7.07-6.13-10.95 1.53 1.85 2.85 3.86 4.14 5.88.07-.61.21-1.83.29-2.44.75 1.28 1.54 2.54 2.37 3.78-1.02-4.83-2.51-9.54-3.71-14.33.49 1.24 1.6 3.54 3.14 1.94.07-2.31.04-4.64.38-6.94.67 2.78.77 5.72 2.1 8.31l-.08-4.98c1.11 1.87 2.27 3.71 3.43 5.55.1-1.76.21-3.52.34-5.28 1.65 3.25 3.03 6.66 5.08 9.7-1.48-4.55-3.29-9-4.63-13.59l-1.25.52c-.13-1.81-.12-3.64.63-5.33l-1.87-1.51c-1.09 3.84.92 7.26 1.18 11.01-.86-1.24-2-2.37-2.45-3.85.38-1.91.55-3.84.07-5.76-.28.63-.84 1.87-1.12 2.49-1.56-2.87-4.96-3.3-7.61-4.65 2.12.04 4.23.34 6.32.66-1.53-1.45-3.08-2.89-4.52-4.44 2.61.97 4.86 2.63 7.08 4.26-.38-2.02-.71-4.06-.99-6.1m-1.42 28.07l.72-2.91c1.99 2.88 3.79 5.89 5.57 8.91.23-1.63.46-3.27.68-4.9 1.73 2.34 3.53 4.65 5.02 7.15.6.7.75 2.44 2.03 2.16-.35-1.53-1.61-2.75-2.36-4.13-1.93-3.31-3.88-6.61-5.8-9.93-.07 2.08-.13 4.17-.19 6.26-1.96-2.92-3.37-6.2-5.62-8.91-3.66-.28-.21 4.53-.05 6.3m20.89 18.86c.39-2.53.6-5.08.78-7.63.98 1.31 1.93 2.65 2.93 3.94-1.47-5.28-2.91-10.57-3.92-15.95-.39 6.52-.59 13.14.21 19.64M47.52 78.04c1.69 4.28 3.45 8.53 5.18 12.79.05-.84.16-2.51.21-3.34 1.74 1.7 3.45 3.45 5.4 4.93-3.81-4.63-7.07-9.68-10.79-14.38z"/>
        <path d="M72.06 67.39c.11-3.31-.62-6.53-.89-9.81.41 3.21 3.08 6.74.89 9.81zM111.97 59.93c-1.85 7.27-4.6 14.3-7.95 21-3.81 7.15-8.98 14.37-16.99 17.07 4.87.92 9.72-.47 13.91-2.95-1.76 4.65-6.64 8.1-11.69 6.73-7.69-2.25-15.65 1.62-20.96 7.09.34-6.23 3.55-11.97 9-15.1-.76 1.82-1.6 3.61-2.48 5.38C86.9 95.59 97.1 87.19 103.8 76.62c3.44-5.2 5.67-11.02 8.17-16.69z"/>
    </g>
</svg>
