<svg width="128pt" height="128pt" viewBox="0 0 128 128" xmlns="http://www.w3.org/2000/svg">
    <path fill="#8d8d8d" opacity=".56" d="M44.34 19.87c.52 1.61 1.07 3.21 1.68 4.78.51-1.59.94-3.21 1.3-4.84.61 1.17 1.22 2.34 1.88 3.49-.78 1.25-1.55 2.51-2.33 3.77-.46-.52-1.38-1.55-1.84-2.06l-.2 3-.63-.64c-.46-.55-.93-1.09-1.39-1.64 1.15-1.75 1.21-3.86 1.53-5.86z"/>
    <g fill="#fff">
        <path d="M50.35 19.77c1.04 2.09 2.02 4.23 2.73 6.46.34-.97 1.03-2.91 1.38-3.88.38 1.1 1.15 3.32 1.54 4.42 1.11-2.11 1.23-4.52 1.5-6.84.31 2.29.49 4.64 1.59 6.73.49-2.27.89-4.55 1.53-6.78.04 1.99-.03 3.97-.13 5.95l1.07-.56.33 2.79c1.09-2.07 1.06-4.46 1.66-6.68.64 2.37.8 4.96-.1 7.28.33-.06.98-.19 1.31-.25-.07.97-.2 2.9-.27 3.87 1.41-2.78 1.6-5.89 2.26-8.88.58 2.93.25 5.93-.58 8.77l1.79-1.62-.92 4.19c1.81-2.41 2.39-5.42 3.68-8.1-.02 3.84-.83 7.73-3.12 10.89 3.13-.59 4.08-3.46 5.41-5.89-.16 4.69-3.73 8.08-6.85 11.13 2.32-.64 4.56-1.62 6.14-3.5.64-.85 1.3-1.69 1.98-2.51-.97 2.8-2.38 5.91-5.39 6.97-2.48.68-5.1.05-7.62.43-1.19.79-2.21 1.79-3.26 2.74 1.23-2.07 2.44-4.16 3.51-6.31-2.72 1.09-4.93 3.05-6.72 5.33.12-1.84.22-3.68.29-5.52-1.83 1.56-3.09 3.61-4.1 5.78-1-1.94-1.86-3.95-2.77-5.94-.73 2.26-1.03 4.63-.86 7-2.34-1.59-5.16-2.26-7.88-1.26 1.61 1.12 3.21 2.26 4.75 3.48-1.66.08-3.3.27-4.94.51-.45.5-1.34 1.52-1.78 2.03 2.31.1 4.65.09 6.93.56-3.5.65-8.08-.97-10.55 2.38-2.68 3.52-5.65 7.82-10.63 7.7 1.41-1.9 4.03-2.18 5.74-3.77l.01-.87h1.01l-.02-.97c-2.91 2.32-6.76 3.15-10.41 2.73 1.09-.23 3.27-.7 4.36-.93-2.5-1.61-5.59-1.33-8.33-2.3 3.97-.03 7.96.02 11.83-1.02-3.54-1.44-7.46-1.53-10.96-3.07 3.36.36 6.73.68 10.11.67-1.29-.7-2.54-1.47-3.75-2.31-1.03-.6-2.08-1.17-3.11-1.76-1.23-.48-2.46-.95-3.68-1.42 1.45.08 3.16.86 4.4-.24l.2 1.66c1.5.12 2.42-.9 3.24-1.95-.71.12-2.13.34-2.83.45l.71-1.01c-1.57-.84-3.13-1.7-4.56-2.78 1.97.38 3.87 1.07 5.89 1.19 1.58-2.35-3.24-2.4-4.38-3.89 2.84.23 6.42 3.72 8.26.1l-2.37.27.31-1.12c-1.54-.94-3.06-1.93-4.37-3.18 3.12 1.29 6.03 3.03 9.13 4.35-.82-.97-1.69-1.91-2.59-2.81 1.46-2.45-2.32-4.45-3-6.75 2.74 2.47 5.25 5.17 7.82 7.81-1.2-1.92-2.44-3.81-3.56-5.78-.7-1.04-1.25-2.15-1.63-3.35 1.84 1.13 3.06 3 4.86 4.19l.16-2.54c-.89-1.81-1.78-3.62-2.54-5.49 2.01 1.22 2.93 6.45 5.78 4.15-.83-2.1-1.61-4.23-2.17-6.43 1.09 1.32 1.92 2.83 2.63 4.38.44-.61 1.32-1.81 1.76-2.41l-1 3.89c.47-.36 1.4-1.1 1.86-1.46-.57-2.03-1.16-4.06-1.59-6.13 1.47 2.19 2.34 4.71 3.66 6.99.04-.91.1-2.73.14-3.64.24.66.73 1.99.98 2.65.56-1.19 1.6-1.95 2.94-1.37l.63.64.2-3c.46.51 1.38 1.54 1.84 2.06.78-1.26 1.55-2.52 2.33-3.77.19.83.58 2.51.78 3.34 1.51-2.12.94-4.53.37-6.87M40.4 30c.24.17.24.17 0 0M26.97 43.23c.55.51.55.51 0 0m-2.91 1.12v1.42c1.89 2.12 2.03-3.12 0-1.42m-.47 4.75c.15 3.28 3.1-1.51 0 0m.34 8.11l.2.67c.35-.03 1.04-.07 1.38-.1l-.25-.92-.95-.27-.38.62z"/>
        <path d="M40.89 25.72c-.15-1.31-.13-3.42.92-4.22.69 1.09 1.05 4.79-.92 4.22zM22.3 34.35c1.23.04 3.63 1.32 3.17 2.79-1.41.26-3.21-1.41-3.17-2.79z"/>
    </g>
    <path fill="#a2a2a2" opacity=".64" d="M40.4 30c.24.17.24.17 0 0z"/>
    <path fill="#b8b8b8" opacity=".72" d="M26.97 43.23c.55.51.55.51 0 0z"/>
    <path fill="#7d7d7d" opacity=".49" d="M24.06 44.35c2.03-1.7 1.89 3.54 0 1.42v-1.42z"/>
    <path fill="#9c9c9c" opacity=".61" d="M23.59 49.1c3.1-1.51.15 3.28 0 0z"/>
    <path fill="#707070" opacity=".44" d="M23.93 57.21l.38-.62.95.27.25.92c-.34.03-1.03.07-1.38.1l-.2-.67z"/>
</svg>
