<svg width="128pt" height="128pt" viewBox="0 0 128 128" xmlns="http://www.w3.org/2000/svg">
    <path fill="#8c1c21" d="M66.66 16.32c.73 2.1 1.23 4.26 1.58 6.45 6.77 1.11 14.84 2.67 18.47 9.23-3.26.85-5.39-1.26-7.28-3.5-1.52.05-3.03.64-4.55.33-1.27-.77-2.62-1.58-4.17-1.23-5.47.59-11 .63-16.44-.32-.43.3-1.3.9-1.73 1.2L54.22 30c-2.27-.9-4.6-1.66-7-2.14l-1-.21c.05-.32.14-.96.19-1.28 5.82-3.29 12.68-3.55 19.19-3.74.3-2.11.63-4.22 1.06-6.31z"/>
    <path fill="#6a181d" d="M41.61 21.15c1.47 1.85 3.01 3.66 4.8 5.22-.05.32-.14.96-.19 1.28l1 .21c-1.22 1.33-2.45 2.65-3.68 3.97l-3.27-.48c.85-.99 1.72-1.97 2.59-2.94-.49-2.41-.91-4.83-1.25-7.26z"/>
    <path fill="#5e1316" opacity=".82" d="M54.27 27.28c5.44.95 10.97.91 16.44.32 1.55-.35 2.9.46 4.17 1.23l.88.84 2.29-.44-.38 1.36-.48 1.6c-1.87-.6-3.73-1.24-5.57-1.93-1.49.3-2.98.6-4.47.91-.18 5.68-1.29 11.3-1.13 17 .07 3.73-.06 7.47-.33 11.19-.42-.47-1.26-1.43-1.68-1.9-.72-5.19 1.03-10.27.93-15.44.14-4.37-1.01-9.29 2.01-12.99-2.18.96-4.51 1.04-6.7.07 2.06 4.36 1.95 9.24 1.81 13.94-.23 5.77 1.57 11.41 1.04 17.19-.57-1.91-1.23-3.79-1.8-5.7-.07-.62-.21-1.86-.27-2.47-.06-1.87-.02-3.73-.05-5.59-.52-5.06-1.5-10.11-1.01-15.22-1.53-.33-3.06-.66-4.59-1-1.96.75-3.91 1.5-5.84 2.31-1.99 2.26-4.51 3.96-6.55 6.18.18.83.63 1.74.16 2.57-1.03.6-2.05 1.2-3.08 1.8.25-.79.74-2.37.99-3.16l-.94-.02 3.61-4.57c2.42-1.26 4.54-3.02 5.56-5.63-1.74.99-3.44 2.08-4.84 3.52-1.13-.05-2.26-.13-3.38-.23-.32-.43-.97-1.3-1.3-1.74l.5.07 3.27.48c1.23-1.32 2.46-2.64 3.68-3.97 2.4.48 4.73 1.24 7 2.14l-1.68-1.52c.43-.3 1.3-.9 1.73-1.2z"/>
    <path fill="#941c21" d="M60.25 29.1c2.19.97 4.52.89 6.7-.07-3.02 3.7-1.87 8.62-2.01 12.99.1 5.17-1.65 10.25-.93 15.44.4 10.37.33 20.8-.12 31.17.15 1.36 1.75 1.57 2.64 2.25l.42-1.79c3.78-2.73 2.94 3.26.93 4.63-.79-.87-1.61-1.73-2.44-2.56-1.1.54-1.17 1.96-1.75 2.91l-1.35-1.77.14-.41c.2-.65.62-1.97.82-2.62-.3-9.68-.19-19.36-.2-29.04.53-5.78-1.27-11.42-1.04-17.19.14-4.7.25-9.58-1.81-13.94z"/>
    <path fill="#851d1f" d="M44.45 33.25c1.4-1.44 3.1-2.53 4.84-3.52-1.02 2.61-3.14 4.37-5.56 5.63l.72-2.11z"/>
    <path fill="#b22126" d="M55.38 30.25c1.53.34 3.06.67 4.59 1-.49 5.11.49 10.16 1.01 15.22-1.94.83-4.55 1.08-5.6 3.18-1.09 1.98-.05 4.27 1.04 5.99 2.16.09 3.19-2.32 4.61-3.58.06.61.2 1.85.27 2.47l.48 3.75c-.73 1.14-1.46 2.28-2.2 3.42.49.67.97 1.34 1.46 2l.47-3.17c.38 6.29.1 12.59.11 18.88-1.56-4.72-1.07-9.72-.28-14.53-.32-.15-.97-.44-1.29-.58-.2-.16-.6-.47-.79-.63l-1.2 3.35c-.75-1.41-1.44-2.84-2.19-4.25.05-1.75-.2-3.48-.7-5.15-.24.56-.73 1.69-.97 2.26-.54.03-1.62.1-2.16.13.15-2.86.37-5.71.78-8.54-1.48.14-2.97.29-4.45.44-.21-2.2-.25-4.43-.8-6.57-1.84-.95-3.89-1.76-4.42-4.03.47-.83.02-1.74-.16-2.57 2.04-2.22 4.56-3.92 6.55-6.18 1.93-.81 3.88-1.56 5.84-2.31z"/>
    <path fill="#b22326" d="M67.15 31.17c1.49-.31 2.98-.61 4.47-.91 1.84.69 3.7 1.33 5.57 1.93l.37.12c1.27 1.78 3.04 3.01 4.87 4.14 2.17 1.97 3.51 4.65 4.86 7.21 1.7.99 3.44 1.94 5.11 2.97.02.23.04.68.05.91l.08.91c-1.77-.43-3.53-.88-5.29-1.33-2.69 1.53-5.16 3.39-7.44 5.48.2-2.85-.7-5.63-2.57-7.8.95-.85 1.89-1.7 2.84-2.55-1.48-.62-3-1.17-4.54-1.63.03 1.05.07 2.1.11 3.14-1.27-.88-2.55-1.76-3.83-2.63-.86 1.55-1.17 3.23-.59 4.93-1.73.71-3.46 1.41-5.2 2.11-.16-5.7.95-11.32 1.13-17z"/>
    <g fill="#631518">
        <path d="M78.05 29.23c2.63 2.06 5.4 4.18 8.98 3.62 1.32 2.86 2.61 5.74 3.59 8.74-3.82.54-5.39-3.35-7.69-5.53-1.94-1.56-4.86-2.69-5.26-5.47l.38-1.36zM25.29 73.62c.74-.28 1.72-.53 2.03.46 1.63 3.19 4 5.92 7.14 7.71-.42.47-1.27 1.4-1.69 1.87-3.4-2.54-5.46-6.4-7.48-10.04z"/>
    </g>
    <path fill="#5d1410" d="M41.07 33.02c1.12.1 2.25.18 3.38.23l-.72 2.11-3.61 4.57.94.02c-1.45.1-3.35 3.03-4.71 1.08 1.01-2.75 2.33-5.37 3.33-8.13l1.39.12z"/>
    <path fill="#c0272c" d="M71.81 41.13c1.28.87 2.56 1.75 3.83 2.63-.04-1.04-.08-2.09-.11-3.14 1.54.46 3.06 1.01 4.54 1.63-.95.85-1.89 1.7-2.84 2.55 1.87 2.17 2.77 4.95 2.57 7.8-1.21 2.35-3.09 4.53-3.17 7.3-.26 1.97.03 4.05-.8 5.91-1.96-.52-1.9-3.67-3.09-5.18-1.61 2.06-2.66 4.49-4.34 6.5-.76-2.63-1.55-5.27-2.71-7.77.27-3.72.4-7.46.33-11.19 1.74-.7 3.47-1.4 5.2-2.11-.58-1.7-.27-3.38.59-4.93z"/>
    <path fill="#be252c" d="M40.07 43.11c1.03-.6 2.05-1.2 3.08-1.8.53 2.27 2.58 3.08 4.42 4.03.55 2.14.59 4.37.8 6.57 1.48-.15 2.97-.3 4.45-.44-.41 2.83-.63 5.68-.78 8.54.54-.03 1.62-.1 2.16-.13.24-.57.73-1.7.97-2.26.5 1.67.75 3.4.7 5.15-.34-.55-1.03-1.67-1.37-2.23-2.11 2.25-3.07 5.25-4.4 7.97l.04-1.5c.23-3.49.7-7.16-.79-10.45-1.82-4.19-5.53-7.3-9.58-9.25-1.59.17-3.13.6-4.7.82l-1.54-.02c.42-.43 1.28-1.29 1.7-1.71 1.59-1.14 3.19-2.25 4.84-3.29z"/>
    <g fill="#6e181b">
        <path d="M92.4 46.63c-.07-1.96 2.37-2.18 3.58-3.12-.04 2.02-.07 4.04-.09 6.05-1.11-.21-2.21-.42-3.31-.63l-.05-.48-.08-.91c-.01-.23-.03-.68-.05-.91zM73.26 82.43c1.03-2.77 2.65-5.26 4.94-7.16.54 1.18.9 2.4 1.08 3.68-.16 2.32 1.53 3.85 3.06 5.32-.86 1.09-1.8 2.11-2.71 3.15-.8-1.3-1.71-2.53-2.63-3.75-.42.53-1.24 1.59-1.66 2.12l-.13.16c-.67-1.11-1.35-2.22-2.04-3.32l.09-.2zM36.07 83.99l2.79-.32c-.43 1.11-.86 2.22-1.3 3.34-.03.09-.11.28-.15.38l2.22 1.39c-1.77 2.61-3.72 5.13-6.04 7.28.69-3.04 1.49-6.06 2.36-9.05l-2.08 1.22c.2-.68.6-2.02.8-2.7.43.41.85.82 1.28 1.23l.12-2.77z"/>
    </g>
    <g fill="#581316">
        <path d="M30.62 49.88c.94-1.82 2.83-2.71 4.61-3.48-.42.42-1.28 1.28-1.7 1.71l1.54.02c-1.45.68-2.93 1.26-4.45 1.75zM98.98 56.31c4.51-1.78 8.89-3.86 13.41-5.61-2.74 3.81-6.41 6.84-9.08 10.7-.34 4.76-.41 9.71-2.73 14.03l-1.47-.13c2.49-6.07 2.21-12.91-.13-18.99z"/>
    </g>
    <path fill="#c0252c" d="M55.38 49.65c1.05-2.1 3.66-2.35 5.6-3.18.03 1.86-.01 3.72.05 5.59-1.42 1.26-2.45 3.67-4.61 3.58-1.09-1.72-2.13-4.01-1.04-5.99z"/>
    <path fill="#340b0d" d="M32.72 51.63c2.21-1.37 4.5-2.74 7.03-3.41 5.03 2.26 8.46 7.28 9.84 12.53-2.14-.16-4.28-.34-6.43-.53-.15 1.23-.34 2.45-.56 3.67-1.57 1.02-3-.32-4.41-.93-2.48 1.87-5.37 2.15-7.99.39.04 4.54-.75 10.16 3.15 13.45 3.68 3.21 8.66.52 12.93 1.46-1.35 1.72-2.83 3.81-5.2 4.03-4.64.75-8.92-2.6-10.73-6.68-3.08-5.95-2.4-13.07.67-18.88 2.27.9 4.56 1.72 6.87 2.51-.01-2.54-.05-5.09-.14-7.63-1.68.03-3.35.06-5.03.02z"/>
    <path fill="#2e090b" d="M77.6 60.57c1.47-5.11 4.69-9.8 9.39-12.41 2.32.44 4.76 1.28 6.34 3.13-.98.03-2.93.07-3.91.1-.21 2.58-.29 5.18-.23 7.77 2.21-.81 4.42-1.63 6.62-2.46 3.22 5.53 3.95 12.4 1.31 18.31-1.57 4.5-6.27 8.08-11.16 7.33-2.34-.18-3.73-2.42-5.17-3.98 4.53-.7 9.96 1.81 13.64-1.94 3.26-3.59 2.25-8.77 2.5-13.19-2.58 1.99-5.6 1.54-8.11-.34-.91.54-1.84 1.04-2.78 1.53-2.14-.35-1.95-2.64-2.45-4.24-2 .17-4 .3-5.99.39z"/>
    <path fill="#0e0303" opacity=".38" d="M61.3 54.53c.57 1.91 1.23 3.79 1.8 5.7.01 9.68-.1 19.36.2 29.04l-1.27.11c-.03-3.17-.17-6.34-.39-9.5l-.02-.47c-.01-6.29.27-12.59-.11-18.88l-.47 3.17c-.49-.66-.97-1.33-1.46-2 .74-1.14 1.47-2.28 2.2-3.42l-.48-3.75z"/>
    <path fill="#631418" d="M15.8 56.74c4.1-.43 8.23-.39 12.35-.64-.6 1.61-1.17 3.22-1.76 4.84-.32-.64-.97-1.92-1.3-2.56-.49.56-1.46 1.7-1.95 2.26-2.5-1.2-4.97-2.47-7.34-3.9z"/>
    <path fill="#6e181d" d="M25.09 58.38c.33.64.98 1.92 1.3 2.56-.72 3.99.64 8.37-1.28 12.08-1.3-4.75-2.06-9.97-.02-14.64z"/>
    <path fill="#2a090a" opacity=".55" d="M50.1 68.51c1.33-2.72 2.29-5.72 4.4-7.97.34.56 1.03 1.68 1.37 2.23.75 1.41 1.44 2.84 2.19 4.25l1.2-3.35c.19.16.59.47.79.63-1.61 4.9-.2 10.39-2.81 14.99-2 4.08-2.96 8.85-1.55 13.27-.21-.14-.64-.42-.85-.56-1.29-2.47-.68-5.31-.68-7.95-1.14 1.88-2.68 3.66-3.11 5.88 1.29 3.14 3.05 6.19 2.88 9.71.24.4.48.79.73 1.2-3.45 2.73-1.77 7.79-1.7 11.56-1.7-1-2.61-2.65-2.95-4.55.59 1.04 1.19 2.07 1.81 3.09.07-2.99.3-5.97.98-8.89-1.04-.45-2.08-.89-3.12-1.34 1.03-1.01 2.07-2.01 3.11-3.01-.55-2.28-1.37-4.51-2.91-6.32.13-5.13 3.78-8.99 6.48-12.98 2.92-4.92.93-11.03-2.03-15.42-1.35 2.74-2.62 5.51-3.91 8.27-.35-1.37-1.31-2.92-.28-4.24l-.04 1.5z"/>
    <path fill="#aa2021" d="M65.14 60.59c1.12 3.4 4.85 7.14 2.65 10.7-.37.33-1.12.99-1.49 1.32-.48 1.17-.89 2.37-1.23 3.6.02-5.21-.31-10.42.07-15.62z"/>
    <path fill="#9a1f23" d="M72.25 63.2c.24.03.72.07.95.1 1.86 3.91 3.25 8.02 5 11.97-2.29 1.9-3.91 4.39-4.94 7.16-1.71-2.27-4.19-4.32-4.27-7.39-.68-3.04.83-5.94.66-8.99.48-.38 1.46-1.14 1.95-1.52.16-.33.49-.99.65-1.33z"/>
    <path fill="#941f21" d="M50.42 71.25c1.29-2.76 2.56-5.53 3.91-8.27 2.96 4.39 4.95 10.5 2.03 15.42-2.7 3.99-6.35 7.85-6.48 12.98 1.54 1.81 2.36 4.04 2.91 6.32-1.04 1-2.08 2-3.11 3.01 1.04.45 2.08.89 3.12 1.34-.68 2.92-.91 5.9-.98 8.89-.62-1.02-1.22-2.05-1.81-3.09-.93-3.27-.49-6.85-2.19-9.91-.07-2.05-.75-3.98-1.67-5.79.27-.84.81-2.52 1.08-3.37 1.46-4.29 6.09-6.82 6.59-11.53l-5.31-1.5c.6-1.51 1.23-3.02 1.91-4.5z"/>
    <path fill="#b52426" d="M60.05 64.3c.32.14.97.43 1.29.58-.79 4.81-1.28 9.81.28 14.53l.02.47c-.01 2.69-.19 5.37-.31 8.06l-.58-.03c-.99-.14-1.98-.19-2.98-.15-1.84.75-1.21 3.42-2.08 4.8-1.41-4.42-.45-9.19 1.55-13.27 2.61-4.6 1.2-10.09 2.81-14.99z"/>
    <path fill="#9a2526" opacity=".94" d="M76.36 67.13c.32.3.32.3 0 0z"/>
    <path fill="#b52429" d="M66.3 72.61c.37-.33 1.12-.99 1.49-1.32.23 3.56 1.06 6.99 3.14 9.93.53 3.14 1.81 6.52.83 9.67-1.94.63-1.37-1.98-1.89-3.04-1.47.01-3.74-.87-3.95 1.65-.42-.56-.83-1.11-1.23-1.68.76-3.84.05-7.75.38-11.61.34-1.23.75-2.43 1.23-3.6z"/>
    <g fill="#9c2029">
        <path d="M99.11 75.3l1.47.13c-2.26 4.11-5.3 7.82-9.06 10.63l-.66.28c-.19.98.07 1.85.79 2.6l.83 1.61c-.41.07-1.24.22-1.66.29-.89-1.11-1.72-2.26-2.57-3.41-.21.16-.63.46-.83.61-2.2-.37-3.48-2.45-5.08-3.77-1.53-1.47-3.22-3-3.06-5.32l-.11-.71c1.72 2.24 3.79 4.73 6.87 4.83 5.44.4 10.37-3.28 13.07-7.77zM34.46 81.79c3.98 2.03 8.5 1.48 12.03-1.18.34.09 1.01.26 1.34.34-.75 1.23-1.5 2.46-2.25 3.68-.25-.11-.74-.34-.99-.46-2.1 1.43-4.25 3.43-7.03 2.84.44-1.12.87-2.23 1.3-3.34l-2.79.32-.12 2.77c-.43-.41-.85-.82-1.28-1.23-.48-.47-1.43-1.4-1.9-1.87.42-.47 1.27-1.4 1.69-1.87z"/>
    </g>
    <path fill="#841b18" d="M45.99 80.48c.91-1.54 1.76-3.11 2.52-4.73l5.31 1.5c-.5 4.71-5.13 7.24-6.59 11.53-.54-1.38-1.1-2.77-1.65-4.15.75-1.22 1.5-2.45 2.25-3.68-.33-.08-1-.25-1.34-.34l-.5-.13z"/>
    <path fill="#470f10" opacity=".75" d="M61.33 87.94c.12-2.69.3-5.37.31-8.06.22 3.16.36 6.33.39 9.5l1.27-.11c-.2.65-.62 1.97-.82 2.62l-1.13-.64c-1.02-.96-2-1.95-2.95-2.98.58-.09 1.76-.27 2.35-.36l.58.03z"/>
    <path fill="#9c1c29" d="M75.34 85.79c.42-.53 1.24-1.59 1.66-2.12.92 1.22 1.83 2.45 2.63 3.75.36 2.21 1.57 4.75.08 6.78-.84 1.35-1.1 2.97-.78 4.52-.82.88-2.03 1.7-3.24.93-3.49-2.3-.33-6.28 1.12-8.83-.11-1.77-.91-3.39-1.47-5.03z"/>
    <path fill="#b52431" d="M51.05 89.93c.43-2.22 1.97-4 3.11-5.88 0 2.64-.61 5.48.68 7.95 1.49 3.57 2.6 7.28 3.7 10.99 1.17-.93 2.54-1.69 3.44-2.92.01-2.46-1.39-4.59-2.24-6.8 2.18.81 2.77 3.33 3.96 5.08l.41-2.29c.62 1.22 1.58 2.59.66 4.01 1.14.96 2.3 1.91 3.46 2.85 1.34-3.8 2.28-7.78 4.16-11.37.58-3.08-.33-6.26-.4-9.35 1.53 2.68 4.03 5.34 3.97 8.63-.74 1.58-1.88 2.98-2.31 4.7-.14 1.49-1.53 3.9 1.18 4.14-.61.18-1.84.54-2.46.72-1.65 2.5-.99 5.7-2.51 8.29l-.3-.38c-.36-.44-1.06-1.31-1.41-1.74l-.41 1.82c-.36-.48-1.1-1.43-1.46-1.9l-1.2 2c-1.1-2.9-1.21-6.01-1.61-9.05-.3 2.34-.46 4.69-.78 7.02-.22.5-.66 1.51-.88 2.01-.26-.31-.79-.92-1.05-1.23-.92.47-1.82.37-2.65-.23-.32 4.12-2.1-1.34-2.67-2.29.61-1.41.35-2.7-.78-3.87-.25-.41-.49-.8-.73-1.2.17-3.52-1.59-6.57-2.88-9.71z"/>
    <path fill="#160505" opacity=".45" d="M90.86 86.34l.66-.28.68.81c-.14.52-.41 1.55-.55 2.07-.72-.75-.98-1.62-.79-2.6z"/>
    <path fill="#400e10" opacity=".73" d="M88.25 87.43c.85 1.15 1.68 2.3 2.57 3.41.42-.07 1.25-.22 1.66-.29l.19-.04c.34 1.25.67 2.51.98 3.77-2.35-1.64-5.64-3.19-6.23-6.24.2-.15.62-.45.83-.61z"/>
    <path fill="#4d1317" opacity=".93" d="M56.57 90.08c.45-.45 1.37-1.36 1.83-1.81.95 1.03 1.93 2.02 2.95 2.98-.84.84-1.68 1.69-2.52 2.53-.76-1.23-1.51-2.47-2.26-3.7z"/>
    <path fill="#992223" opacity=".91" d="M64.71 95.68c.43-.39 1.28-1.18 1.71-1.57 1.27 1-.83 2.73-1.71 1.57z"/>
    <path fill="#0c0202" opacity=".35" d="M78.93 98.72c-.32-1.55-.06-3.17.78-4.52 1.09 1.13 1.02 4.31-.78 4.52z"/>
    <path fill="#0f0404" opacity=".44" d="M63.47 99.43c.4 3.04.51 6.15 1.61 9.05l-2.39-2.03c.32-2.33.48-4.68.78-7.02z"/>
    <path fill="#a22427" d="M75.34 101.02c1.72-.58 2.03 1.46 2.2 2.66.01 2.47-.98 4.78-1.98 6.99-.31-2.62-.92-5.18-1.34-7.78.28-.47.84-1.41 1.12-1.87z"/>
    <path fill="#290909" opacity=".55" d="M74.22 102.89c.42 2.6 1.03 5.16 1.34 7.78-.28.7-.79 1.3-1.5 1.81.05-3.2.18-6.39.16-9.59z"/>
    <path fill="#311215" opacity=".66" d="M69.56 108.3l.3.38c-.07-.1-.23-.29-.3-.38z"/>
</svg>
