<svg width="128pt" height="128pt" viewBox="0 0 128 128" xmlns="http://www.w3.org/2000/svg">
    <g fill="#fff">
        <path d="M62.46 57.33c.55-4.17 5.37-4.75 8.44-2.98-2.84.9-5.64 1.94-8.44 2.98zM68.97 65.21c1.16-.51 2.32-1.02 3.49-1.51-.65 3.75-.87 7.63-.15 11.39.45 4.68 4.61 7.69 7.77 10.69 4.09 3.84 9.79 4.58 15.1 5.38.47.55.95 1.11 1.42 1.67-.12-.55-.38-1.66-.51-2.21 2.97-.96 5.44-2.9 7.69-4.99-.8 2.82-1.58 6.12-4.27 7.76-1.62 1-2.98 2.34-4.55 3.42-6.97 2.19-14.03-.84-20.53-3.21-6.21-3.59-12.3-7.44-18.16-11.58-.53-.01-1.58-.02-2.1-.02-2.53-2.94-4.92-6.4-3.89-10.5 2.42.71 1.65 3.67 2.8 5.44.69 2.27 3.2 2.63 5.09 3.4.13-3.15-1.53-5.89-2.75-8.68.69-.38 2.06-1.14 2.74-1.52.63 3.29.99 6.81 3.04 9.59 2.25 2.88 5.52 4.65 8.27 6.98.86.86 2.1.98 3.25 1.11-.08-1.9-.28-3.88-1.59-5.38-2.03-5.53-2.02-11.43-2.16-17.23z"/>
        <path d="M59.36 69.58c2.65-1.4 5.34-2.71 8.08-3.91.85 6.4-.02 13.92 4.7 19.04-.09.54-.26 1.63-.35 2.17-.32.03-.94.1-1.26.14-2.62-2.88-6.24-4.73-8.37-8.06-2.3-2.57-2.36-6.16-2.8-9.38zM52.45 73.56l2.68-.72c.96 2.03 1.94 4.09 2.12 6.38-2.81-.69-3.85-3.23-4.8-5.66zM86.84 88.43c1.88-1.16 3.68-2.44 5.39-3.83-.2 1.63-.49 3.25-.95 4.83-1.48-.33-2.96-.66-4.44-1z"/>
    </g>
    <path fill="#f6f6f6" opacity=".96" d="M75.62 79.94c1.83-.16 3.62-.59 5.38-1.09v3.16l3.46-.12c-1.15 1.17-2.28 2.35-3.46 3.49-1.83-1.78-3.65-3.57-5.38-5.44z"/>
    <path fill="#f7f7f7" opacity=".97" d="M85.14 83.39c.54-.44 1.62-1.33 2.16-1.77.47 2.25-.75 4.24-1.51 6.26-.67-.32-2.02-.97-2.7-1.29-.19-.38-.57-1.15-.77-1.53l2.82-1.67z"/>
</svg>
