<svg width="128pt" height="128pt" viewBox="0 0 128 128" xmlns="http://www.w3.org/2000/svg">
    <path fill="#fafafa" opacity=".98" d="M28.26 50.78c2.57 1.97 5.53 3.41 8.82 3.54-1.35 1.1-2.34 2.81-3.93 3.53-.02-1.1.07-2.19.29-3.29-2.52 2.76-2.15 6.77-2.69 10.21-1.3-2.51-.81-5.35-.89-8.05 3.27.24-.65-3.28 0 0-1.68 2.18-.25 5.28-1 7.78-2.31-3.38-1.64-7.28.19-10.65-.73.52-1.44 1.06-2.12 1.64-.16 2.38-.4 4.75-.67 7.12-3.38-3.75-1.06-8.8 2-11.83z"/>
    <path fill="#767676" opacity=".46" d="M29.86 56.72c3.27.24-.65-3.28 0 0z"/>
    <g fill="#fff">
        <path d="M33.78 61.76c.96-3.03 1.73-8.36 6.1-7.4-.9 1.61-1.97 3.13-2.74 4.82-.27 2.42.16 4.99-1.24 7.15-.46-.64-1.39-1.91-1.85-2.55-.56.19-1.66.57-2.22.76.08-1.82-.1-3.7.39-5.48.73.65 1.13 1.55 1.21 2.68l.35.02z"/>
        <path d="M40.04 54.7c1.73.05 3.45.1 5.18.16-.18 1.65-.27 3.47-1.78 4.5-2.32 1.83-3.18 4.73-3.31 7.59-3.72-3.35-1.83-8.41-.09-12.25zM50.47 59.84c2.73-1.27 5.57.04 7.65 1.91-6 9.58-10.08 20.96-8.74 32.38.63-9.14 2.5-18.56 7.93-26.14-.21 2.7-.24 5.47-1.35 8-3.95 11.51-6.56 24.55-1.86 36.24-6.98-3.11-10.12-10.98-10.16-18.21-.62-11.75 2.86-23.17 6.53-34.18zM22.25 59.97c1.08 2.26 2.09 4.56 3.49 6.64.57-.44 1.69-1.34 2.26-1.79l.01 1.59 2.08-.56c-4.7 12.69-1.09 26.5 2.42 39.02-4.18-4.59-7.91-9.76-9.57-15.83-3.14-9.43-1.92-19.44-.69-29.07zM71.39 61.99c1.51-.24 2.56 1.29 3.84 1.85.81-.32 2.42-.95 3.23-1.26.04 4.06-.8 8.52-5.27 9.93.77-2.32 1.67-4.62 1.95-7.06-1.26 2.06-2.04 4.35-3.07 6.52-1.83 3.22-5.07 5.25-8.16 7.12 2.86-3.66 5.87-7.73 5.29-12.68-1 .94-1.96 1.91-3.01 2.79-.69-1.19-1.35-2.41-1.99-3.63.99-1.27 2.02-2.5 3.06-3.72.64 1.05 1.29 2.1 1.95 3.15.68-1.03 1.41-2.04 2.18-3.01z"/>
    </g>
</svg>
