<svg width="128pt" height="128pt" viewBox="0 0 128 128" xmlns="http://www.w3.org/2000/svg">
    <g fill="#fff">
        <path d="M69.85 22.46c1.67-2.08 3.36-4.15 5.16-6.13.46 2.31-1.35 6.05 1.83 6.88-.36 1.98-.84 4.25-3.21 4.55-2.53.09-3.2 6.48-5.37 2.64-1.53 2.88-1.91 6.08-2.35 9.25-2.63 2.39-5.81 4.05-8.55 6.3-.46 1.58-.83 3.2-1.52 4.7-1.35 1.49-3.19 2.36-4.69 3.66-.81 1.35-1.16 2.91-1.75 4.36-.71-.16-2.13-.47-2.84-.62-.43.5-1.3 1.49-1.73 1.98.61-2.44 1.97-5.08.02-7.33-5.45 1.39-11.66.81-16.09-2.92-.8.26-2.41.77-3.21 1.03 3.35-2.59 4.58-6.78 7.29-9.9 1.97-2.84 6.36-3.78 6.6-7.71 1.6-1.03 3.2-2.04 4.82-3.03 1.79-.67 3.55-1.39 5.28-2.2 4.14-5.01 11.33-5.95 17.45-6.02l.04-1.48 1.4.34c-.19.46-.56 1.38-.74 1.84-4.59 1.98-9.46 3.56-13.5 6.59-1.2 1.31-2.39 2.63-3.48 4.03 1.63-1.23 3.14-2.6 4.66-3.97 3.82-1.86 7.38-4.39 11.6-5.27 2.61-.51 5.29-.84 7.68-2.11-1.62.03-3.22.22-4.8.54M41.5 32.65c-.91.86-1.48 1.95-1.78 3.16-1.66 2.78-4.39 4.84-5.35 8.03.45.53 1.36 1.59 1.81 2.12 1.65-.09 4.3 1.5 4.92-.92 1.32-3.12 3.42-5.77 6.09-7.85-1 1.52-2.06 3.01-3.19 4.44v5.32c2.43 1.2 5.15 1.19 7.8 1.1 2.75-2.71 3.62-6.53 4.41-10.17 2.03-1.11 6.85-2.62 4.6-5.64-4.38-2.23-8.39 1.43-12.15 3.24.59-1.58 1.17-3.16 1.66-4.78-3.15-1.12-6.18.32-8.82 1.95z"/>
        <path d="M78.07 19.1c1.39 2.46 2.62 5.01 3.97 7.49 2.75.88 4.19 3.71 6.86 4.78.42.58 1.25 1.75 1.67 2.33-.76 1.08-1.99 2.06-3.34 2.15-.79-1.93-1.52-3.88-2.33-5.79l.79.02c-.55-.21-1.67-.63-2.23-.84.76 2.22 1.5 4.44 2.21 6.68l-3.31-.96c-.84-1.5-1.35-3.6-3.25-4.07-1.71.53-2.54 2.36-3.47 3.76-2.08.29-2.14 2.42-2.7 4.02l1.76-.17c-.5 2.43-1.47 4.94-.85 7.44 1.51 4.27 6.94 7.21 11.2 5.16 1.6-.58 1.87-2.49 2.26-3.9 1.83 4.39 7.51 4.3 10.31 7.9-.12.73-.37 2.19-.49 2.93.61-1.2 1.22-2.41 1.83-3.61l-1.6-.43c1.39-1.23 2.66-2.6 4.12-3.76 2.03-.81 4.19-1.21 6.29-1.78-4.91 6.29-9.22 13.11-15.12 18.55h-2.72c1.25-1.56 2.06-3.37 2.61-5.29.8 0 2.4-.01 3.19-.02-3.8-2.94-8.79-2.5-13.1-1.09-.2 1.82-.64 3.59-2.76 3.84.04-.86.13-2.59.17-3.45-1.62.6-3.26 1.15-4.9 1.7-1.19-1.07-2.42-2.09-3.7-3.05-.83 1.03-1.68 2.04-2.54 3.05-.4-.55-1.2-1.63-1.6-2.17-1.17 1.1-2.34 2.21-3.71 3.08.61-2.08 2.58-3.04 4.03-4.43-1.09-4.17-1.35-8.47-1.93-12.72 1.14-.83 2.27-1.67 3.41-2.49-.34-3.64-.5-7.42.88-10.86 1.05-1.57 3-2.3 3.77-4.1l.5-.68c1.16-.56 2.34-1.07 3.48-1.67 1.25.64 2.51 1.23 3.79 1.79l.23-.97c-1.32-.42-2.57-1-3.74-1.73-.26-2.21 0-4.43.06-6.64z"/>
        <path d="M90.25 35.46c3-1.53 6.31-2.29 9.44-3.51-2.42 2.54-5.26 4.7-7.37 7.52-.75 3.41-.83 6.93-.65 10.41-3.13-1.73-3.77-5.29-5.14-8.26-1.32-.74-2.72-1.33-4.08-1.99-.04-.62-.13-1.85-.18-2.47 2.36-.15 4.71-.42 7.06-.65.22.71.67 2.11.89 2.81.01-1.28-.24-2.59.03-3.86zM68.36 31.32c.55 1.45.74 3.01.05 4.44 0 2.26.07 4.56-.46 6.77-.92 1.01-1.94 1.91-2.94 2.83-.03 4.38.03 8.75-.01 13.13-1.34 1.68-2.61 3.43-3.91 5.14-2.22-3.87-6.29-6.03-10.66-6.34 1.73-3.9 7.11-5.31 7.31-10.13 2.98-2.07 5.96-4.13 8.9-6.23.18-3.24-.25-6.79 1.72-9.61z"/>
    </g>
    <path fill="#dbdbdb" opacity=".86" d="M96.75 51.08c1.89-1.81 1.65 2.25-.15.98l.15-.98z"/>
</svg>
