<svg width="128pt" height="128pt" viewBox="0 0 128 128" xmlns="http://www.w3.org/2000/svg">
    <g fill="#fff">
        <path d="M49.48 22.59c2.44-2.16 5.06-4.1 7.86-5.76-.57 3.14-3.72 4.21-5.67 6.14.56 1.39 2.06-.31 2.94-.46 2.19-1.05 3.2-3.55 3.71-5.79 1.6-.16 3.21-.2 4.82-.27.94 2.93 2.63 5.56 5.47 6.96.79-.42 1.57-.84 2.35-1.27-3.19.15-5.37-2.58-6.47-5.23 2.93 1.59 5.48 3.77 8.22 5.65-.95.44-1.88.93-2.8 1.44 3.54-.79 7.38.43 9.11 3.77-1.46-.83-2.81-1.84-4.29-2.62-4.64-.25-9.75-.87-13.71 1.98-4.27-2.32-9.15-2.51-13.91-1.98-.85.45-1.67.95-2.46 1.5-3.16 2.09-5.79 4.85-8.57 7.4.88-1.5 1.72-3.01 2.54-4.54.65-3.94-2.62-7.48-3.42-11.29 2.54 2.08 5.06 4.18 7.76 6.05-.67 1.24-1.33 2.49-1.98 3.74 2.89-1.64 5.3-4.64 8.96-4.26l-.06-.49-.4-.67zM78.95 25.26c1.74-1.15 3.48-2.3 5.22-3.46-1.13 1.86-2.2 3.76-3.34 5.61-.63-.72-1.25-1.44-1.88-2.15z"/>
        <path d="M47.34 26.13c3.81-.37 7.82-.42 11.45 1.01 2.81 5.61 1.24 11.93 1.49 17.97l-.82-.77c.11 7.59.84 15.26-.35 22.8 1.72 7.4.73 15.09 1.23 22.62l-1.44-.29.13-1.72-.96.26-.19 2.3c-1.43-3.46-2.18-7.15-3.39-10.69-1.34-4.25-3.66-8.09-5.27-12.24l-1.98 1.68c.93-1.17.42-4.41 2.74-4 3.2.18 6.28-1.33 8.69-3.31-2.24-1.59-3.45 1.03-4.98 2.05-.6-6.5-1.9-13.04-4.84-18.9-1.44-2.62-3.63-5.25-6.74-5.77-3.93 0-8.08 1.31-10.44 4.63-.61.19-1.82.58-2.42.77.47-1.82.88-3.82 2.75-4.66 3.14-1.84 5.02-4.99 7.22-7.76l.43-.27c2.34-2.17 4.95-4.07 7.69-5.71m4.14 5.76c-.45 1.52-.03 2.1 1.28 1.75.34-1.38-.09-1.96-1.28-1.75m-1.3 4.8c.5.29 1.48.88 1.97 1.17 1.62-.88 3.01-2.14 3.44-4-.32.1-.96.31-1.27.42-.73 1.09-1.49 2.16-2.3 3.19-.43-.92-1.3-2.75-1.73-3.67-.04.96-.07 1.93-.11 2.89m8.18 27.34c.33.29.33.29 0 0z"/>
        <path d="M63.18 27.07c2.84-1.13 5.87-1.2 8.88-1.12 3.21-.54 5.55 2.16 7.59 4.19.13-.49.38-1.46.5-1.95 1.39.4 2.37 1.67 3.63 2.34-.87.37-1.71-.24-2.58-.23-.64 1.24 1.93 1.72 2.38 2.67l1.86-1.28-1.3 1.75c.04.77.13 2.33.17 3.1 2.68-1.18 4.13 2.93 6.58 3.76 1.81 2.89 2.51 6.24 3.55 9.43.64.05 1.93.14 2.57.19-1.69 1.8-3.95 2.48-6.38 2.31.45-2.33 1.44-4.86.31-7.15-1.86-4.19-6.73-5.88-11.01-5.99-3.62.47-5.53 3.72-7.73 6.21-1.74 6.09-3.53 12.18-4.22 18.51-1.13-.8-1.83-2.81-3.41-2.67-.78 1.67-1.42 3.39-2.17 5.07-.19-6.52-.11-13.05-.4-19.57-.56 1.03-1.1 2.07-1.68 3.08-.25-1.52.46-2.85 1.46-3.93-.02-4.82-.19-9.63-.32-14.45.94-1.26 1.38-2.76 1.72-4.27m6.05 5.11c.01.36.02 1.07.03 1.42 2.03 1.61 1.58-3.73-.03-1.42m-2.98 1.56c.31 1.08.66 2.15 1.04 3.21.88.3 1.77.57 2.67.81 1.71-.59 1.46-2.66 2.04-4.03-.8 1.23-1.59 2.47-2.41 3.69-.69-1.02-1.36-2.05-1.91-3.15-.36-.14-1.07-.4-1.43-.53zM33.09 46.14c.78-2.22 2.99-3.93 5.38-3.89-1.74 1.37-4.29 2.35-4.72 4.77-1.2 3.97 2.31 7.96 6.32 7.93-1.3.52-2.6 1.05-3.94 1.46-2.45-2.61-4.49-6.67-3.04-10.27z"/>
        <path d="M82.02 42.46c5.23-1.12 9.88 6.54 5.48 10.02.46-2.02.87-4.07.48-6.13-.41-.6-1.22-1.8-1.63-2.4-1.48-.4-2.9-.96-4.33-1.49zM29.04 44.28c.48.67.96 1.36 1.42 2.05-.67 4.12 1.79 7.79 3.93 11.07-3.57-.45-5.83-3.07-7.51-6 .64-2.4 1.4-4.76 2.16-7.12zM71.41 62.92c-.25-1.79 4.95-2.4 4.3-.26-1.18.83-3.04.99-4.3.26z"/>
        <path d="M64.92 62.85c4.22 3.26 9.95 2.52 14.62.63 2.16-1 4.59-.36 6.89-.44-1.41 2.52-5.38 3.85-4.52 7.21-.35-.23-1.04-.7-1.39-.94l-2.6 1.6c-2.51.43-3.79-2.34-5.49-3.66-2.77 7.32-6.65 14.3-7.76 22.17-.28-.5-.84-1.52-1.13-2.03-.69 1.19-1.42 2.36-2.16 3.53l-1.42-.04c.38-.37 1.14-1.1 1.52-1.47.03-5.84.36-11.67.55-17.49.5-3.12.87-6.51 2.89-9.07zM38.77 67.32c1.72-.79 3.48-1.51 5.26-2.16.74 1.59 1.48 3.18 2.2 4.78l-1.38.07c1.5 1.61-.27 2.71-1.26 3.86l-.87-3.47c-1.35-.98-2.67-2.01-3.95-3.08z"/>
        <path d="M65.08 94.35c2.76-7.55 3.25-16.66 9.67-22.27-2.22 7.75-2.95 16.82-9.67 22.27zM47.2 72.35c6.15 5.55 6.86 14.32 9.4 21.75-6.52-5.34-7.4-14.14-9.4-21.75zM60.69 100.35c-.51-3.59-3.07-7-2.36-10.64.86 2.47 1.65 4.97 2.52 7.45 1.3-2.75 1.68-5.92 3.4-8.47-.59 4.03-1.98 7.92-3.56 11.66z"/>
    </g>
    <path fill="#505050" opacity=".31" d="M58.36 64.03c.33.29.33.29 0 0z"/>
</svg>
