<svg width="128pt" height="128pt" viewBox="0 0 128 128" xmlns="http://www.w3.org/2000/svg">
    <g fill="#fff">
        <path d="M97.07 38.57c1.74 1.37 3.22 3.03 4.59 4.76.42-.29 1.24-.87 1.66-1.16-.9 2.15.28 4.1 1.05 6.02-.34.49-1.02 1.47-1.36 1.97 2.41-1.14 4.76-2.43 7.2-3.52-1.09 1.44-2.27 2.81-3.45 4.17-2.12 2.01-1.67 5.2-2.81 7.71 1.42 1.45 2.78 2.97 4.14 4.48-2.23-.72-4.41-1.87-6.72-2.15-2.8 1.08-5.77 1.56-8.77 1.6.15.74.45 2.22.6 2.95-1.45-1.08-2.73-2.46-4.41-3.19-6.12-.56-12.23-1.3-18.29-2.3.52-3.01.99-6.03 1.63-9.02 2.87.58 5.76 1.1 8.67 1.46.2-.92.59-2.78.78-3.71.88 1.89 1.52 3.88 2.22 5.84-.67.86-1.33 1.71-1.99 2.57 1.28-.73 2.57-1.45 3.86-2.18-.28-.47-.85-1.4-1.13-1.86 4.7.97 10.1 1.97 14.3-1.05-1.14-2-2.28-3.99-3.27-6.07 1.55 1.04 3.05 2.17 4.56 3.26-.25-3.7-1.2-7.35-3.06-10.58zM41.02 46.31c2.98 2.28 5.86 4.68 8.86 6.93.63 3.41 1.29 6.81 2.19 10.15-1.49.04-2.98.09-4.48.16-.36 1.24-.71 2.49-1.06 3.74-.64-1.12-1.26-2.26-1.86-3.39-5.88 1.28-11.32 5.43-11.87 11.8 1.48-1.85 2.79-3.82 4.28-5.67-.12 5.06 5.57 6.5 9.43 7.56.69 4.74 2.39 9.23 4.68 13.41-1.84 0-3.68.01-5.52.06-1.41.97-2.88 1.84-4.34 2.73.22-2.63.48-5.26.72-7.88.49.84.98 1.69 1.47 2.54.36-2.29-1.29-3.96-2.25-5.81-.19 2.28-.37 4.57-.66 6.84-4.25-1.4-8.03-3.86-11.46-6.68-1.6.87-3.09 1.9-4.65 2.82.84-1.87 1.94-3.64 2.51-5.61-.94-2.65-1.68-5.4-1.43-8.24-2.12-1.57-4.35-2.99-6.36-4.7 3.25-.08 6.51-.07 9.77-.14-.28-.36-.84-1.07-1.12-1.43.99-1.14 1.96-2.29 2.94-3.44-.86-1.73-1.74-3.45-2.65-5.16 2.19.74 4.39 1.46 6.59 2.17 2.92-1.84 6.29-2.65 9.43-3.96-.77-3.03-2.02-5.9-3.16-8.8zM74.17 79.8c6.3 2.05 13.49 4.75 15.96 11.56-.86-.07-2.57-.2-3.42-.26 3.11 2.07 6.42 3.85 9.78 5.48-2.86 1.36-6.37 1.54-8.65 3.93.41.7 1.23 2.11 1.64 2.81-.56-.27-1.67-.81-2.23-1.08-2.96 3.25-6.74 5.76-10.98 6.98-1.35.28-2.29 1.31-3.28 2.16l.01-1.4c-2.8.39-5.64.49-8.45.16 3.48-1.18 6.67-2.99 9.62-5.17-.97-1.67-1.5-3.55-2.24-5.32.58.37 1.74 1.12 2.32 1.49.5.78 1.01 1.56 1.54 2.33 1.01-2.48 2.24-4.85 3.16-7.37 1.29 1.6 2.28 3.39 3.23 5.2.07-2.12.34-4.47-.96-6.31-2.14-3.48-6.36-4.63-10.03-5.69 1.53-2.97 2.96-6.1 2.98-9.5z"/>
    </g>
</svg>
