<svg width="128pt" height="128pt" viewBox="0 0 128 128" xmlns="http://www.w3.org/2000/svg">
    <g fill="#fff">
        <path d="M50.07 40.56c1.42 2.08 3.08 4 4.36 6.18-.35 1.8-2.52 1.52-3.8 2.2 1.41-.3 3.18.41 4.37-.6 2.24-2.61 5.83-.9 8.61-.4.3 1.58.67 3.14 1.1 4.69.22-1.54.22-3.09.2-4.63 2.58.46 1.99-2.55 2.7-4.09.17.87.51 2.59.68 3.45 1.68-.27 3.37-.44 5.05-.66 1.1 1.28 2.25 2.5 3.48 3.65-.4-1.07-1.21-3.21-1.62-4.28 2.62-2.07 5.32-4.03 7.79-6.28-.93 2.84-1.89 5.68-2.57 8.59 2.75 2.01 7.35 2.41 7.91 6.47l.36.5c.33.83.62 1.67.88 2.52l-.32.45-.41.35c-1.65-.76-3.04-2.08-4.88-2.39-2.44-.78-4.55 1.1-6.43 2.33-.09-2.17.08-4.34.51-6.47.6-.38 1.8-1.15 2.39-1.54 3.06.42 4.11 4 6.97 4.81-1.68-2.54-4.02-5.55-7.35-5.63-1.91.56-3.7 2.77-3.05 4.85-1.06-.91-2.21-1.71-3.42-2.42.93 1.54 2.86 2.58 2.99 4.51.55 2.64.41 6.41 3.64 7.23-.17 1.27-.22 2.53-.14 3.8 2.81 4.5 9.09 5.5 13.85 4.14 3.09-1.55 1.18-5.4 2.97-7.74.14 1.28.43 3.84.57 5.12.42-2.17 1.36-3.93 3.96-3.5-2.41 3.37-4.16 7.54-7.96 9.59-2.46 1.49-3.71 4.26-5.98 5.96-1.26.82-2.02 2.12-2.83 3.35-.45-2.74-1.3-5.39-2.36-7.95.3 4.49.13 8.98-.34 13.44-1.39-.08-2.78-.15-4.17-.2.23-3.37.15-6.85-1.28-9.96-.88 3.7-1.43 8.12-5.15 10.14-.36-.27-1.07-.82-1.43-1.09.99 1.81 1.88 3.65 1.56 5.78 2.28-2.8 3.62-6.21 4.91-9.55l.65-.04c0 5.96-1.03 12.03-3.19 17.56-2.76 1.72-3.29-3.15-3.65-4.83l1.93.87-.36-3.04c-.51.45-1.54 1.37-2.06 1.83-.42-2.46-.35-4.91.51-7.28-.42.61-1.26 1.84-1.68 2.45l-1.96-1.28c.87 1.23 1.7 2.49 2.48 3.79-.5.56-1.49 1.69-1.99 2.25-.38-1.47-.37-2.95.02-4.45-1.01-.8-2.19-.78-3.2.01.25 1.83.29 3.66.1 5.5-2.12-1.15-1-3.33-.84-5.11-.59-.56-1.18-1.13-1.75-1.7-.18.34-.53 1.04-.7 1.39-.5-.72-1.51-2.14-2.01-2.86.36 1.05 1.08 3.14 1.44 4.18.5-.33 1.49-.99 1.99-1.32v4.02l-3.24-2.18c1.32 2.46 3.47 4.35 5.67 6.02 1.66-1.33 3.16-2.84 4.85-4.14-.34 2.12-2.33 2.89-3.68 4.17.87 1.09 4.24-.72 4.17 1.62-1.79.68-3.78 2.37-5.35.34-1.62 2.01-3.52.58-5.33-.34-1.02-3.17 6.92.45 4.17-1.78l-2-1.12-.59-1.67c-.37.86-.71 1.72-1.02 2.61-2.79-1.34-1.69 4.43-4.79 2.03-1.97-5.93-3.13-12.19-2.98-18.47 1.39 3.06 2.78 6.11 4.39 9.06.93 1.93.04 4.37 1.7 6.03 1.07-1.48.2-2.99-.52-4.38-1.06-2.14.73-4.02 1.67-5.79l-1.72.76c-3.71-1.97-4.09-6.44-5.1-10.06-1.26 3.19-1.43 6.64-1.23 10.03-1.38.05-2.76.11-4.14.19-.48-4.46-.61-8.94-.42-13.42-.94 2.45-1.67 4.98-2.27 7.54-1.66-2.03-2.95-4.32-4.33-6.54.25 1.1.53 2.2.84 3.29-.83 1.7-1.63 3.43-2.44 5.15-.59-3.24.16-6.93-1.56-9.86-2.22-1.58-4.78-2.92-5.89-5.58-1.09-.75-2.17-1.52-3.23-2.31.72.07 2.15.2 2.86.27.69-1.72 1.38-3.45 2.2-5.11-.01 2.19-1.79 4.75-.04 6.63 1.98 3.06 6.13 2.25 9.19 1.91 2.96-.25 5.34-2.17 7.14-4.39-.11-1.25-.23-2.49-.37-3.73 4.44-1.72 2.99-7.66 5.22-11.17 1.49-.52 3.69-1.18 4.5.74 1.39 1.6.12 3.64-.39 5.31-2.03 4.11-4.64 8.43-3.93 13.21.58 3.07.04 6.8 2.57 9.12 2.02 1.75 2.88 4.8 5.73 5.42-.4-2.07-.76-4.16-.48-6.27 2.16 1.35 1.96 4 2.63 6.14.54-2.16.24-4.86 2.48-6.12.12 2.1-.07 4.19-.45 6.26 2.81-.68 3.69-3.68 5.69-5.43 1.73-1.57 1.91-3.98 2.4-6.11-2.08-2.33-2.3-5.83-4.81-7.83-2.31.01-3.66 2.07-5.32 3.34-1.77-1.2-3.12-3.24-5.44-3.36-2.3 1.88-2.86 4.92-4.18 7.43.11-2.85-.18-5.77.64-8.54 1.1-5.58 6.25-8.89 8.57-13.86-1.42 1.43-2.04 3.95-4.06 4.61-.6-1.82-.71-3.78-1.84-5.4-2.73-.68-4.64 1.33-6.26 3.2 1.07-4.2-4.93-6.92-7.26-2.95 1.87-.5 5.05-2.01 6.04.7.9 1.94.82 4.09.68 6.17-1.98-1.46-4.44-3.28-7.04-2.16-1.73.08-2.72 1.8-4.26 2.16-1.41-.76-.19-2.2.17-3.21l.42-.62c.58-4.24 5.63-4.46 8.4-6.74.8-2.38.55-5.01.92-7.48M69.4 53.89c.14 1.2.4 3.6.53 4.8-1.78-1.89-3.4-3.91-5.05-5.91.42.65 1.26 1.95 1.69 2.6-.25.56-.74 1.67-.99 2.23l1.09-2.25c1.53 2.1 3.27 4.05 4.73 6.21 2.4 3.21 2.31 7.44 2.71 11.24l.93-.11c-.04-2.64.15-5.38-.9-7.86-.94-3.21-3.97-5.46-4.15-8.92-.36-2.22 1.76-3.59 2.98-5.1-1.12 1.05-2.96 1.62-3.57 3.07m-26.67.36c1.42-.16 2.22-.94 2.41-2.35-1.4.14-2.2.92-2.41 2.35z"/>
        <path d="M34.65 71.41c-2.82-3.56-.42-9.84 3.82-10.8-.84 1.97-2.06 3.72-3.16 5.53-.14 1.77-.36 3.53-.66 5.27zM90.57 60.41c3.61 1.78 4.34 6.35 4.47 9.96-1.27-3.44-2.83-6.69-4.47-9.96zM95.07 63.03c2.43-.53.62 2.73-.45.76l.45-.76zM46.98 91.42c1.23-.02 2.46-.04 3.69-.05 3.38 6.06-.14 13.01 2.56 19.31-5.58-4.5-6.01-12.63-6.25-19.26zM78.34 91.45c1.23-.03 2.47-.06 3.7-.08-.29 6.66-.7 14.8-6.28 19.34 1.11-3.83 1.54-7.82.92-11.78-.58-2.63.92-5.05 1.66-7.48zM65.21 93.47l.47.04c.26 1.12 1.18 3.94-.32 4.22-.57-1.4-.62-2.82-.15-4.26zM69.11 99.22c3.17.26-1.48 3.2 0 0zM56.16 105.8c1.51-.96 3.1-1.85 4.94-1.91-.01.6-.03 1.81-.03 2.41 1.27-.53 2.3-1.88 3.7-1.98 1.04.65 2.05 1.34 3.08 2 .01-.62.01-1.84.01-2.45 1.84.16 3.48 1.01 5.09 1.84l-.5-1.93c3.87 1.92-.01 5.4-1.67 7.28-1.92.36-3.88.5-5.83.32.35-2.2.35-4.38.02-6.55-.51.75-1 1.5-1.48 2.27.18 1.06.53 3.17.71 4.22-4.18 1.2-9.22-1.37-9.34-6l1.73-1.56c-.11.51-.32 1.53-.43 2.04z"/>
    </g>
</svg>
