<svg width="128pt" height="128pt" viewBox="0 0 128 128" xmlns="http://www.w3.org/2000/svg">
    <path fill="#b82429" d="M61.5 27.92c-.12-4.85 3.1-9.04 7.03-11.52-2.04 4.34-4.11 10.27-.26 14.26 3.65 3.43 7.79 6.31 11.37 9.83-2.62 3.03-5.98 5.63-10.19 5.59-.18-.4-.53-1.21-.71-1.61-.5-1.23-.98-2.46-1.43-3.7-1.85 1.28-1.1 3.92-1.58 5.81l-.96.06c.22-2.2.68-4.43.31-6.64-.58-4.21-3.61-7.73-3.58-12.08z"/>
    <g fill="#b52429">
        <path d="M57.22 38.59c-.73-2.98-3.99-6.78-1.24-9.5 0 2.9 1.69 5.3 3.05 7.73-.32.57-.97 1.7-1.29 2.27l-.52-.5zM48.77 63.84c2.26-.6 2.87-2.86 3.33-4.86 1.46 1.02 3 1.92 4.59 2.74-1.78 3.09-2.61 6.63-2.57 10.19-1.82-1.4-4.03-2.08-6.21-2.68 1.04-1.63.97-3.54.86-5.39zM87.5 67.95c.49-.77.93-1.56 1.33-2.38.64 1.94 1.13 3.93 1.37 5.96-1.44-.19-2.89-.34-4.35-.45.53-1.05 1.08-2.1 1.65-3.13zM78.11 91.45c1.39-.04 2.77-.07 4.15-.1-.16 4.22-.81 8.39-1.83 12.49l-.31.92c-.94 2.3-2.37 4.36-4.18 6.07 1.94-6.4-.76-13.23 2.17-19.38z"/>
    </g>
    <path fill="#b52324" d="M39.91 48.86c-1.44-4.98-2.13-11.32 2.24-15.09-.03 4.22.42 8.84 3.8 11.81.35.51 1.05 1.54 1.39 2.06-2.18 1.34-4.44 2.58-6.71 3.77-.18-.63-.54-1.91-.72-2.55z"/>
    <g fill="#420d10">
        <path d="M57.74 39.09c.72 3.25-3.85.41-.52-.5l.52.5zM57.01 104.64c1.77-.19 4.5-1.72 4.63 1.14.71-.36 1.43-.72 2.14-1.08.12 2.29.29 4.58.46 6.86-1.83.02-3.66.04-5.5 0-2.14-1.48-3.74-3.68-4.36-6.23.78-.52 1.66-.75 2.63-.69zM67.1 105.71c1.12-2.87 4.03-.71 6.19-1.34.32.27.96.81 1.28 1.07-.52 2.61-2.33 4.62-4.38 6.18-1.8 0-3.61-.07-5.41-.13.15-2.26.32-4.53.44-6.79.47.25 1.41.76 1.88 1.01z"/>
    </g>
    <path fill="#160405" opacity=".44" d="M79.64 40.49c.44.2 1.31.6 1.75.8-1.89 1.71-3.94 3.24-5.97 4.78.39 1.43.81 2.87 1.02 4.34-.99-1.14-1.98-2.29-2.96-3.45-1.8.09-3.6.2-5.39.33-.23-.69-.68-2.08-.91-2.78l-.2-.63c.44.15 1.32.44 1.76.59.18.4.53 1.21.71 1.61 4.21.04 7.57-2.56 10.19-5.59z"/>
    <path fill="#c3282c" d="M50.02 40.51c.24.3.72.89.96 1.19 1 1.94 3.89 3.85 2.95 6.2-.77.21-2.3.62-3.06.83 1.26.02 2.52.05 3.78.1.42-.51 1.24-1.54 1.66-2.05 1.53.15 3.07.32 4.6.49.97.17 1.93.38 2.89.61.13 1.29.27 2.58.4 3.86-.36.56-1.07 1.69-1.42 2.25-.64.95-1.3 1.89-1.98 2.82l-1.57 1.61c.27-2.46.33-5.26-1.93-6.85-2.18-.99-3.54 1.45-4.83 2.75-.91-1.92-1.87-5.36-4.87-3.94-.08-.92-.1-1.84-.26-2.74-.34-.52-1.04-1.55-1.39-2.06 1.37.63 2.55 1.59 3.49 2.77-.03-2.63.25-5.24.58-7.84z"/>
    <g fill="#c62831">
        <path d="M58.84 40.85c.85 1.18 1.47 2.49 1.92 3.87l.5 1.47c-1.38-.04-2.76-.1-4.13-.17l.12-.42c.47-1.6 1.03-3.18 1.59-4.75zM30.47 46.97c1 1.73.65 3.78.27 5.63-1.72-.67-1.23-4.25-.27-5.63zM45.19 49.44c.34.63.68 1.27 1 1.92l-.11.11c-1.93.44-2.98 2.18-4.36 3.4-.3-.29-.91-.86-1.21-1.15 1.45-1.55 3.07-2.91 4.68-4.28zM27.6 61.11c-.07-2.11.31-4.18.97-6.18.77 2.63 2.52 4.74 4.34 6.71-.72 1.27-1.43 2.55-2.14 3.83l1.94-.24c-.25 1.5-.46 3.01-.63 4.53-.32-.35-.95-1.03-1.26-1.37.23-.71.69-2.13.93-2.84h-2.11c-.02-.03-.06-.11-.09-.14-.75-1.39-1.4-2.83-1.95-4.3zM43.58 58.38c2.57-1.7 7.36.35 6.46 3.74-1.04.31-2.09.58-3.15.83.04 1.85 1.39 4.14-.16 5.69-2.73 2.84-6.98 2.68-10.61 2.9.19-3.09 1.17-6.05 2.72-8.72l2.51-.08c.81-1.42 1.44-2.94 2.23-4.36z"/>
    </g>
    <path fill="#9f1f1e" d="M81.39 41.29l1.48-1.33c-.79 3.55-2.15 6.93-3.16 10.42-3.26.9-3.46 5.24-2.89 7.99.55 2 .63 5.62 3.62 5.09-.12 1.56-.19 3.12-.21 4.68-1.77 1.46-3.62 2.81-5.55 4.05.14-2.07.14-4.16-.05-6.23-.06-.2-.16-.62-.22-.82-.89-1.85-2.03-3.56-3.15-5.27.24-1.06.77-2.19.43-3.28-1.33.35-2.49-.53-1.61-1.96.17-2.74 3.11-2.99 5.16-2.16l.83.23c.09-.57.28-1.72.37-2.29-.21-1.47-.63-2.91-1.02-4.34 2.03-1.54 4.08-3.07 5.97-4.78z"/>
    <path opacity=".05" d="M50.98 41.7c2.32 1.2 3.14 4.59 6.27 3.9l-.12.42c1.37.07 2.75.13 4.13.17l-.5-1.47c1.32.91 1.37 1.76.15 2.55-1.53-.17-3.07-.34-4.6-.49-.42.51-1.24 1.54-1.66 2.05-1.26-.05-2.52-.08-3.78-.1.76-.21 2.29-.62 3.06-.83.94-2.35-1.95-4.26-2.95-6.2zM47.34 47.64c.16.9.18 1.82.26 2.74 3-1.42 3.96 2.02 4.87 3.94-.01 1.56-.16 3.11-.37 4.66-.46 2-1.07 4.26-3.33 4.86.11 1.85.18 3.76-.86 5.39-4.37 3.35-11.59 4.85-15.83.53.17-1.52.38-3.03.63-4.53l-1.94.24c.71-1.28 1.42-2.56 2.14-3.83.7.04 2.1.13 2.8.17-1.97 2.63-3.83 6.62-.91 9.34.38-2.97.78-6.06 2.85-8.39l1.19.06c-1.55 2.67-2.53 5.63-2.72 8.72 3.63-.22 7.88-.06 10.61-2.9 1.55-1.55.2-3.84.16-5.69 1.06-.25 2.11-.52 3.15-.83.9-3.39-3.89-5.44-6.46-3.74-.79 1.42-1.42 2.94-2.23 4.36.16-1.09.33-2.19.5-3.28-.77-.14-2.32-.4-3.09-.54.13-.71.4-2.15.53-2.86.4.52 1.21 1.56 1.61 2.08 1.66-.73 3.28-1.68 5.11-1.88 2.1.07 3.81 1.52 5.63 2.38.06-2.63.28-5.6-1.72-7.64-1.25.02-2.49.21-3.73.36-.32-.65-.66-1.29-1-1.92-1.61 1.37-3.23 2.73-4.68 4.28-.22-1.62-.42-3.24-.6-4.86.18.64.54 1.92.72 2.55 2.27-1.19 4.53-2.43 6.71-3.77zM82.28 48.22c.37 0 1.1 0 1.47.01-.13.38-.38 1.14-.5 1.52l-.24.84c1.64 1.78 3.43 3.42 5.31 4.95-3.57-.64-5.52-4.49-6.88-7.5l.84.18zM57.3 51.57c2.26 1.59 2.2 4.39 1.93 6.85l1.57-1.61c-1.51 2.18-3.26 4.24-4.43 6.64-1.55 3.37-1.49 7.15-1.45 10.77 1.33-2.39 2.6-4.82 4.02-7.17 2.09.89 3.95 2.19 5.66 3.68 1.59-1.58 3.39-2.94 5.53-3.69 1.4 2.33 2.62 4.76 3.81 7.2.13-2.74-.85-5.77.69-8.28.19 2.07.19 4.16.05 6.23-.01 4.06-.87 8.16-4.13 10.89-.69.86-1.34 1.75-2 2.64-.46.11-1.38.34-1.83.46.15-1.7.87-3.49.15-5.14-2.5.22-1.69 3.46-2.32 5.15-.76-1.7-.04-5.6-2.66-5.22-.17 1.84-.17 3.7-.24 5.55-2.16-2.08-4.1-4.38-6.05-6.66-.89-2.56-1.13-5.28-1.48-7.95-.04-3.56.79-7.1 2.57-10.19 1.88-3.05 3.56-7.15.61-10.15m1.86 17.01c-1.41 2.68-2.28 5.6-3.61 8.32.6 2.64 2.41 4.63 4.27 6.48.65-.97.61-3.03 2.2-3.04 2.63-.1 7.09-1 6.49 3.2 2.25-2.06 4.28-4.4 4.77-7.53-.38-.42-1.14-1.28-1.52-1.71-.63-1.82-.82-4.28-2.67-5.3-1.92.22-2.67 2.16-3.54 3.59-2.97.3-3.86-3.13-6.39-4.01zM83.74 70.95c.53.03 1.58.1 2.11.13 1.46.11 2.91.26 4.35.45.98.17 1.94.38 2.91.62-2.98.49-6.05.2-8.86-.88l-.51-.32z"/>
    <path opacity=".05" d="M46.41 76.99c.01.22.02.67.02.9-.22 4.17-.01 8.35.53 12.5 1.44-.08 2.87-.17 4.31-.25.02-3.22.11-6.48 1.07-9.58 1.28 3.58 1.56 8.88 6.26 9.51.4.87.8 1.75 1.2 2.63 3.08.07 6.16.06 9.24-.01.43-1.01.85-2.02 1.28-3.03l1.64.36c1.83-1.42 3.02-3.39 3.54-5.64.39-1.28.78-2.55 1.18-3.82 1 3.09 1.03 6.36 1.01 9.58 1.46.07 2.92.14 4.38.22.5-4.46.72-8.97.34-13.45.73 2.5 2.07 5.05 1.31 7.72.54.16 1.61.46 2.14.62l-.67 1.82c-.54 1.29-1.1 2.57-1.59 3.89-1.17 4.66-.64 9.61-2.41 14.17l1.59-.48c-.31.87-.94 1.45-1.9 1.75-.11-.64-.34-1.92-.45-2.56 1.02-4.1 1.67-8.27 1.83-12.49-1.38.03-2.76.06-4.15.1-2.93 6.15-.23 12.98-2.17 19.38 1.81-1.71 3.24-3.77 4.18-6.07.08 3.18-1.9 6.24-5.19 6.72 1.19-4.2 1.56-8.62.43-12.88 1.05-4.54 1.91-9.18 1.31-13.86-1.4 3.17-2.82 6.34-4.57 9.33-.45-1.38-.9-2.76-1.36-4.13-.56 1.33-1.11 2.66-1.67 3.99-.58-.27-1.73-.81-2.3-1.08-.07 1.54-.13 3.08-.19 4.63.58-.37 1.75-1.12 2.33-1.5.45.31 1.36.91 1.82 1.22.39-.77 1.16-2.3 1.55-3.06-.49 3.24-1.96 6.4-.89 9.7 2.29-.29 3.31-2.02 3.69-4.08-.04 2-.08 4.01-.13 6.01l-.38-.33c-.32-.26-.96-.8-1.28-1.07-2.16.63-5.07-1.53-6.19 1.34-.47-.25-1.41-.76-1.88-1.01-.12 2.26-.29 4.53-.44 6.79 1.8.06 3.61.13 5.41.13-3.67 1.01-7.81 1.15-11.45-.06 1.84.04 3.67.02 5.5 0-.17-2.28-.34-4.57-.46-6.86-.71.36-1.43.72-2.14 1.08-.13-2.86-2.86-1.33-4.63-1.14-.97-.06-1.85.17-2.63.69l-.35.22c-.08-1.57-.22-3.13-.43-4.69-1.67 3.34.03 7.07.64 10.46-2.57.16-4.52-1.88-4.54-4.4 1.07 1.33 2.18 2.61 3.34 3.86-.76-4.26-1.18-8.59-.48-12.89-.13-1.53-.51-3.02-1.02-4.46l-.84-2.07-3.71-.06c-.21 4.63.63 9.19 2.03 13.59-.23.4-.7 1.19-.93 1.59-2.16-5.17-2.68-10.8-2.48-16.34-1.2.04-2.41.14-3.61-.01 1.26-.54 2.53-1.06 3.8-1.57.05-2.61-.26-5.2-.38-7.8.3-1.27.65-2.52.99-3.77m5.71 7.66c-.24 2.75-.17 5.5.01 8.25l.36-.32c.18 1.07.53 3.21.7 4.28l.9-.42-.76.61c.5 2.01.98 4.03 1.46 6.05.75.13 2.23.41 2.98.55.29-1.26.56-2.52.82-3.79-2.04-1.76-1.16-4.41-.77-6.68l-1.05.98c-.59-1.25-1.19-2.5-1.77-3.75-.8-2-1.7-3.95-2.88-5.76m5.96 6.63c-.72 1.69.14 3.69.45 5.41 1.41-.79 1.22-4.78-.45-5.41m3.13 2.08c-1.29.65-1.29 2.88.14 3.38 1.34-.23 1.23-3.28-.14-3.38m4.04-.15c-.68 1.24-1.06 4.14.59 4.61.47-1.29.6-3.89-.59-4.61m-1.92.53c-.72 1.33-.8 2.68-.23 4.04 1.4-.36.97-2.93.64-4.06l-.41.02m-2.28 4.65c-1.49 2.86 3.42.56 0 0m6.1.16c-1.95 1.9 2.5 1.74.85-.09l-.85.09m-8.02.65c-1.56 3.02 3.26.37 0 0m10.09.03c-1.68 3.11 3.28.11 0 0m-11.11 3.22c1.66.7 3.3 1.46 4.91 2.26.39-.39 1.16-1.17 1.55-1.56 1.12 2.54 4.62.64 5.49-1.08-1.34-1.25-3.12-.79-4.68-.37l.61-1.43-2.93.11.77 1.47c-1.9-.92-4.07-.83-5.72.6m6.09 1.81c.6.6.6.6 0 0z"/>
    <path fill="#030101" opacity=".22" d="M30.15 46.27l1.8-1.4c-.13 2.66-.24 5.31-.3 7.97l-.91-.24c.38-1.85.73-3.9-.27-5.63l-.32-.7z"/>
    <path fill="#c6282c" d="M67.18 44.51c.23.7.68 2.09.91 2.78 1.79-.13 3.59-.24 5.39-.33.98 1.16 1.97 2.31 2.96 3.45-.09.57-.28 1.72-.37 2.29l-.83-.23c-.88-.27-1.76-.57-2.63-.88l-2.16.88c-1.08 1.71-1.41 3.71-.68 5.67-2.56-1.29-3.79-3.82-4.93-6.27-.07-1.39-.13-2.78-.2-4.17.52.03 1.57.08 2.09.11.12-.83.34-2.47.45-3.3z"/>
    <path fill="#77181f" opacity=".89" d="M82.18 46.13l.67-.39c.23.62.68 1.86.9 2.49-.37-.01-1.1-.01-1.47-.01-.02-.52-.07-1.57-.1-2.09z"/>
    <path fill="#5a1113" d="M80.37 50.63c.27-.65.81-1.94 1.07-2.59 1.36 3.01 3.31 6.86 6.88 7.5l.75.09c.19 1.07.37 2.13.54 3.2-2.43-.94-4.74-2.61-7.43-2.54-1.73.54-3.2 1.66-4.78 2.51-.32-2.93-.48-7.04 2.97-8.17z"/>
    <g fill="#aa2323">
        <path d="M83.25 49.75c2.46 1.15 5.32 2.52 5.07 5.79-1.88-1.53-3.67-3.17-5.31-4.95l.24-.84zM59.16 68.58c2.53.88 3.42 4.31 6.39 4.01.87-1.43 1.62-3.37 3.54-3.59 1.85 1.02 2.04 3.48 2.67 5.3.38.43 1.14 1.29 1.52 1.71-.49 3.13-2.52 5.47-4.77 7.53.6-4.2-3.86-3.3-6.49-3.2-1.59.01-1.55 2.07-2.2 3.04-1.86-1.85-3.67-3.84-4.27-6.48 1.33-2.72 2.2-5.64 3.61-8.32z"/>
    </g>
    <path fill="#631018" d="M46.19 51.36c1.24-.15 2.48-.34 3.73-.36 2 2.04 1.78 5.01 1.72 7.64-1.82-.86-3.53-2.31-5.63-2.38-1.83.2-3.45 1.15-5.11 1.88-.4-.52-1.21-1.56-1.61-2.08 3.49.69 4.51-2.86 6.79-4.59l.11-.11z"/>
    <g fill="#a22326">
        <path d="M52.47 54.32c1.29-1.3 2.65-3.74 4.83-2.75 2.95 3 1.27 7.1-.61 10.15-1.59-.82-3.13-1.72-4.59-2.74.21-1.55.36-3.1.37-4.66zM95.98 70.53c-.03-2.78-.42-5.52-.57-8.29 1.08 2.13 2.59 4.35 2.01 6.86.23-.37.67-1.1.9-1.46.22.28.67.83.9 1.11-1.13 3.29-3.69 5.77-6.74 7.31-2.26-1.27-4.8-1.86-7.39-1.48-.28-1.11-.56-2.21-.84-3.31 2.81 1.08 5.88 1.37 8.86.88.78-.46 1.55-.95 2.3-1.47-.55-.75-1.65-2.26-2.2-3.01.27-.12.81-.36 1.09-.48.42.84 1.26 2.51 1.68 3.34z"/>
    </g>
    <path fill="#4f1114" opacity=".65" d="M27.19 52.75c.47.72.93 1.45 1.38 2.18-.66 2-1.04 4.07-.97 6.18-.78-2.72-.71-5.57-.41-8.36z"/>
    <path fill="#9c1f21" d="M64.44 51.62c2.05 5.71 8.4 8.73 9.2 15.09.19-.39.58-1.18.77-1.57.06.2.16.62.22.82-1.54 2.51-.56 5.54-.69 8.28-1.19-2.44-2.41-4.87-3.81-7.2-2.14.75-3.94 2.11-5.53 3.69-1.71-1.49-3.57-2.79-5.66-3.68-1.42 2.35-2.69 4.78-4.02 7.17-.04-3.62-.1-7.4 1.45-10.77 1.17-2.4 2.92-4.46 4.43-6.64.68-.93 1.34-1.87 1.98-2.82.41-.6 1.24-1.78 1.66-2.37z"/>
    <g fill="#b5242c">
        <path d="M78.85 62.48c-1.84-3.31 2.51-5.11 5.17-4.69-1.32 1.95-1.98 6.03-5.17 4.69zM33.48 90.76c.88-.56 1.76-1.11 2.64-1.66 2.03.06 4.16-.33 5.88 1.03 1.2.15 2.41.05 3.61.01-.2 5.54.32 11.17 2.48 16.34-2.98-2.42-6.72-4.56-7.68-8.57-.82-3.5-2.95-6.97-6.93-7.15z"/>
    </g>
    <g fill="#631416">
        <path d="M35.71 61.81c.69-.26 2.08-.79 2.78-1.05l-.84 2c-2.07 2.33-2.47 5.42-2.85 8.39-2.92-2.72-1.06-6.71.91-9.34zM90.69 60.5c1.43.55 2.55 1.6 3.19 2.99-.1.95-.25 1.89-.45 2.83-.98-1.9-2.37-3.66-2.74-5.82zM46.43 77.89c3.05.68 6.06 1.58 9.17 1.97 1.95 2.28 3.89 4.58 6.05 6.66.07-1.85.07-3.71.24-5.55 2.62-.38 1.9 3.52 2.66 5.22.63-1.69-.18-4.93 2.32-5.15.72 1.65 0 3.44-.15 5.14.45-.12 1.37-.35 1.83-.46.66-.89 1.31-1.78 2-2.64 1.65.43 3.3.86 4.95 1.3-.52 2.25-1.71 4.22-3.54 5.64l-1.64-.36c-.43 1.01-.85 2.02-1.28 3.03-3.08.07-6.16.08-9.24.01-.4-.88-.8-1.76-1.2-2.63-4.7-.63-4.98-5.93-6.26-9.51-.96 3.1-1.05 6.36-1.07 9.58-1.44.08-2.87.17-4.31.25-.54-4.15-.75-8.33-.53-12.5z"/>
    </g>
    <path fill="#0f0304" opacity=".44" d="M94.03 62.15c.34.03 1.03.07 1.38.09.15 2.77.54 5.51.57 8.29-.42-.83-1.26-2.5-1.68-3.34-.28.12-.82.36-1.09.48l-.16.07c.1-.36.29-1.07.38-1.42.2-.94.35-1.88.45-2.83l.15-1.34z"/>
    <path fill="#220708" opacity=".57" d="M29.55 65.41c.03.03.07.11.09.14-.02-.03-.06-.11-.09-.14z"/>
    <path fill="#240b0c" opacity=".52" d="M87.5 67.95c-1.95-.92.3-4.82 1.33-2.38-.4.82-.84 1.61-1.33 2.38z"/>
    <path fill="#67181b" opacity=".88" d="M98.32 67.64c-.84-1.38 1.44-2.37 2.41-1.55.42 1.07.1 1.94-.94 2.62l-.57.04c-.23-.28-.68-.83-.9-1.11z"/>
    <path fill="#83191b" d="M27.95 68.39h2.87c.31.34.94 1.02 1.26 1.37 4.24 4.32 11.46 2.82 15.83-.53 2.18.6 4.39 1.28 6.21 2.68.35 2.67.59 5.39 1.48 7.95-3.11-.39-6.12-1.29-9.17-1.97 0-.23-.01-.68-.02-.9-.34 1.25-.69 2.5-.99 3.77-.33 1.35-.66 2.7-.97 4.06-1.5-2.17-2.96-4.37-4.17-6.72 1.35 2.87-.55 5.57-1.81 8.08-.43-2.93-.52-5.89-1.06-8.8-1.18-2.08-3.87-2.63-5.22-4.58-1.2-1.67-2.67-3.09-4.24-4.41z"/>
    <path fill="#7c181b" d="M80.23 68.14c1.15.96 2.27 1.96 3.51 2.81l.51.32c.28 1.1.56 2.2.84 3.31 2.59-.38 5.13.21 7.39 1.48-2.12 2.39-3.91 5.19-6.85 6.66.29.35.88 1.06 1.18 1.41l.08.58c-.57.78-1.14 1.56-1.7 2.36l.67-1.82c-.53-.16-1.6-.46-2.14-.62.76-2.67-.58-5.22-1.31-7.72.38 4.48.16 8.99-.34 13.45-1.46-.08-2.92-.15-4.38-.22.02-3.22-.01-6.49-1.01-9.58-.4 1.27-.79 2.54-1.18 3.82-1.65-.44-3.3-.87-4.95-1.3 3.26-2.73 4.12-6.83 4.13-10.89 1.93-1.24 3.78-2.59 5.55-4.05z"/>
    <path fill="#941c1e" d="M92.33 78.17c2.53-.78 5.36.33 7.62 1.49-6.28 1.7-8.42 8.72-9.77 14.33-.45 3.54-2.53 6.53-5.09 8.9-2.2-3.3.14-6.82.34-10.28-.45-.41-1.37-1.24-1.83-1.65.49-1.32 1.05-2.6 1.59-3.89.56-.8 1.13-1.58 1.7-2.36l-.08-.58.26-.71c2.15-1.34 3.45-3.55 5.26-5.25z"/>
    <path fill="#7c1d1e" opacity=".91" d="M52.12 84.65c1.18 1.81 2.08 3.76 2.88 5.76-.84.72-1.67 1.45-2.51 2.17l-.36.32c-.18-2.75-.25-5.5-.01-8.25z"/>
    <path fill="#bd2831" d="M76.67 84.74c.6 4.68-.26 9.32-1.31 13.86l-.28 1.16c-.38 2.06-1.4 3.79-3.69 4.08-1.07-3.3.4-6.46.89-9.7-.39.76-1.16 2.29-1.55 3.06-.46-.31-1.37-.91-1.82-1.22-.58.38-1.75 1.13-2.33 1.5.06-1.55.12-3.09.19-4.63.57.27 1.72.81 2.3 1.08.56-1.33 1.11-2.66 1.67-3.99.46 1.37.91 2.75 1.36 4.13 1.75-2.99 3.17-6.16 4.57-9.33z"/>
    <path fill="#b22321" d="M46.99 91.3l3.71.06.84 2.07c-1.25.67-2.51 1.35-3.76 2.02.55 1.56 1.15 3.11 1.8 4.63.99-.72 1.99-1.45 2.98-2.19-.7 4.3-.28 8.63.48 12.89-1.16-1.25-2.27-2.53-3.34-3.86l-.68-2.03c-1.4-4.4-2.24-8.96-2.03-13.59z"/>
    <path fill="#b7252a" d="M52.49 92.58c.84-.72 1.67-1.45 2.51-2.17.58 1.25 1.18 2.5 1.77 3.75-.86.79-1.76 1.55-2.68 2.28l-.9.42c-.17-1.07-.52-3.21-.7-4.28z"/>
    <path fill="#aa252a" d="M58.08 91.28c1.67.63 1.86 4.62.45 5.41-.31-1.72-1.17-3.72-.45-5.41z"/>
    <path fill="#ac2228" d="M81.19 105.13c1.77-4.56 1.24-9.51 2.41-14.17.46.41 1.38 1.24 1.83 1.65-.2 3.46-2.54 6.98-.34 10.28-.76.6-1.53 1.19-2.31 1.76l-1.59.48z"/>
    <path fill="#8a1f1d" d="M61.21 93.36c1.37.1 1.48 3.15.14 3.38-1.43-.5-1.43-2.73-.14-3.38z"/>
    <path fill="#9a2325" d="M65.25 93.21c1.19.72 1.06 3.32.59 4.61-1.65-.47-1.27-3.37-.59-4.61z"/>
    <path fill="#841c1b" d="M47.78 95.45c1.25-.67 2.51-1.35 3.76-2.02.51 1.44.89 2.93 1.02 4.46-.99.74-1.99 1.47-2.98 2.19-.65-1.52-1.25-3.07-1.8-4.63z"/>
    <path fill="#942029" d="M56.77 94.16l1.05-.98c-.39 2.27-1.27 4.92.77 6.68-.26 1.27-.53 2.53-.82 3.79-.75-.14-2.23-.42-2.98-.55-.48-2.02-.96-4.04-1.46-6.05l.76-.61c.92-.73 1.82-1.49 2.68-2.28z"/>
    <path fill="#b12829" d="M63.33 93.74l.41-.02c.33 1.13.76 3.7-.64 4.06-.57-1.36-.49-2.71.23-4.04z"/>
    <path fill="#761e1f" opacity=".88" d="M61.05 98.39c3.42.56-1.49 2.86 0 0z"/>
    <g>
        <path fill="#951b1e" opacity=".87" d="M67.15 98.55l.85-.09c1.65 1.83-2.8 1.99-.85.09z"/>
    </g>
    <g>
        <path fill="#a52629" d="M59.13 99.2c3.26.37-1.56 3.02 0 0z"/>
    </g>
    <g>
        <path fill="#be2e31" d="M69.22 99.23c3.28.11-1.68 3.11 0 0z"/>
    </g>
    <g>
        <path fill="#6c1513" opacity=".97" d="M58.11 102.45c1.65-1.43 3.82-1.52 5.72-.6l-.77-1.47 2.93-.11-.61 1.43c1.56-.42 3.34-.88 4.68.37-.87 1.72-4.37 3.62-5.49 1.08-.39.39-1.16 1.17-1.55 1.56-1.61-.8-3.25-1.56-4.91-2.26z"/>
    </g>
    <g>
        <path fill="#7b2021" d="M64.2 104.26c.6.6.6.6 0 0z"/>
    </g>
</svg>
