<svg width="128pt" height="128pt" viewBox="0 0 128 128" xmlns="http://www.w3.org/2000/svg">
    <g fill="#fff">
        <path d="M68.62 16.29c-2.15 4.23-4.24 9.71-.88 13.91 3.69 3.89 8.41 6.68 12 10.73-1.98 1.7-4.13 3.17-6.18 4.77-1.44.11-2.89.23-4.33.35-.7-2.42-1.58-4.78-2.56-7.09-.44 2.72-.64 5.47-1.05 8.19-.99-2.27-.09-4.77-.49-7.13-.31-3.96-3.4-7.12-3.4-11.16-.77-5.23 2.82-9.76 6.89-12.57zM55.2 28.96c1.01 2.82 2.31 5.52 3.79 8.13-.72 1.03-1.44 2.07-2.18 3.1.94-3.96-2.95-7.25-1.61-11.23zM41.7 33.88l.91.75c-1.63 4.95 1.45 10.19 5.72 12.77-2.59 1.18-5.11 2.5-7.6 3.86-1.93-5.6-3.17-12.41.97-17.38zM58.97 41c.87 1.64 1.56 3.37 2.22 5.11-1.43-.05-2.86-.09-4.29-.11.81-1.62 1.47-3.3 2.07-5zM30.41 53.12c-.37-2.58-1.38-6.11 1.28-7.82-.14.8-.38 1.57-.73 2.31.08 1.86.07 3.74-.55 5.51zM82.15 45.43c1.45-.39 2.79 2.34 1.82 3.41-1.89.79-3.03-2.19-1.82-3.41zM27.29 52.85c1.42 3.16 2.9 6.37 5.62 8.63-.95 1.57-1.83 3.18-2.71 4.79-3.03-3.81-2.81-8.83-2.91-13.42zM40.9 62.68c2.1-.59 1.47-3.53 3.04-4.6 1.29-.09 2.57-.14 3.87-.15 1.14 1.19 2.49 2.36 2.38 4.18-1.16.25-2.32.5-3.48.74.28 1.42.6 2.83.95 4.24-2.11 4.26-7.58 4.35-11.7 4.19.89-3.11.92-7.94 4.94-8.6zM79.45 62.87c-1.76-2.09-.37-3.66 1.46-4.92.74.01 2.24.02 2.99.03-.77 1.32-1.5 2.66-2.16 4.04-.76.29-1.53.57-2.29.85zM87.52 65.01c.35.29 1.05.89 1.39 1.19.62 1.7 1.11 3.44 1.26 5.26-1.41-.19-2.82-.35-4.23-.5 1.26-1.71 2.13-3.82 1.58-5.95zM59.29 68.7c1.71.88 3.13 2.21 4.04 3.92.6 0 1.79-.01 2.39-.01.44-1.94 2.19-3.03 3.83-3.88 1.34 2.38 1.67 5.23 3.46 7.36-.01 3.27-2.72 5.31-4.55 7.65-.19-1.36-.14-2.98-1.56-3.7-1.67.37-3.36.35-5.03 0-1.2.68-1.7 2.07-2.42 3.17-1.43-1.98-3.65-3.72-3.56-6.41 1.06-2.73 1.82-5.6 3.4-8.1zM92.41 78.01c2.65-.01 5.23.63 7.73 1.44-6.45 1.63-8.81 8.73-10.03 14.52-.7 5.24-4.84 9.03-9.08 11.71 1.37-4.16 2.24-8.46 2.03-12.86 1.67-3.74 2.22-8.53 6-10.83 1.25-1.2 2.2-2.68 3.35-3.98zM33.5 90.36c1.3-.54 2.61-1.07 3.92-1.59-.06.58-.18 1.74-.25 2.33.62-.75 1.27-1.47 1.96-2.15 1.54-.13 2.6 1.29 3.88 1.93.84-.52 1.67-1.03 2.51-1.56.02 5.72-.01 11.69 2.56 16.95-1.9-1.56-4.13-2.78-5.72-4.69-1.95-2.37-2.04-5.67-3.82-8.14-1.09-1.78-3.29-2.21-5.04-3.08z"/>
    </g>
</svg>
