<svg width="128pt" height="128pt" viewBox="0 0 128 128" xmlns="http://www.w3.org/2000/svg">
    <g fill="#73181b">
        <path d="M51.56 21.21c1.29-1.84 2.31-3.93 4.08-5.39-.69 3.03-.45 6.23-1.47 9.18-.9-1.24-1.77-2.51-2.61-3.79zM84.38 27.1c3.28 4.16 5.58 8.98 8.7 13.25-.24.39-.72 1.15-.96 1.54.51-.03 1.53-.08 2.04-.11.34 1.19-.24 2.37-.39 3.54.03.15.09.45.11.6l.19.91c-.69.34-2.06 1.03-2.75 1.37-2.84-3.12-3.16-7.63-5.07-11.3-1.06-3.16-1.18-6.55-1.87-9.8zM69.86 84.33c3.27.5 6.57.57 9.87.23 1.27.73.99 2.68 1.62 3.86-1.8-.35-3.66-.63-5.27-1.59-.46-.19-1.4-.59-1.87-.79-1.53.32-3.85.05-4.35-1.71z"/>
    </g>
    <path fill="#af2427" d="M48.01 26.24c1.28-1.6 2.42-3.31 3.55-5.03.84 1.28 1.71 2.55 2.61 3.79l-1.36.2c-1.12-.32-2.56 1.56-.84 1.84.64 0 1.93.01 2.57.01l1.97-.13-.42.59c-1.04.69-2.1 1.36-3.16 2.01-2.79-1.47-5.74.03-8.63.14-.13-.74-.39-2.21-.51-2.95l1.41.27c1.15.41 2.08.16 2.81-.74z"/>
    <path fill="#5d1316" d="M68.36 21.53c.34-.09 1-.28 1.33-.37 2.47 3.39 4.62 7.04 6.06 10.99-3.27 2.14-3.95 6.02-5.55 9.28-.42-6.2 1.27-12.47-.49-18.57l-.73-.7c-.15-.15-.46-.47-.62-.63z"/>
    <path fill="#9f2026" d="M87.87 19.34c3.4 1.36 6.29 3.6 9.09 5.9-.69.98-1.43 1.93-2.09 2.92 3.05-.43 5.25-2.79 7.95-4.07-.94 2.28-3.37 4.27-2.61 6.95 1.06 4.52-.39 9.6-3.43 13.07-1.3.59-1.34 1.23-.1 1.92l1.52 1.88c-.69-.1-2.06-.29-2.75-.39-.39-.4-1.18-1.2-1.57-1.6-.02-.15-.08-.45-.11-.6.15-1.17.73-2.35.39-3.54-.62-2.87-2.28-5.81-.96-8.75 1.19-5.21-2.37-9.82-5.33-13.69z"/>
    <path fill="#84181e" d="M68.36 21.53c.16.16.47.48.62.63.34 3.3.07 6.61.11 9.91-.54-.64-1.08-1.29-1.63-1.93-.33 2.36-.71 4.72-1.16 7.06-1.72-1.28-3.71-2.11-5.67-2.96.85-2.06 1.71-4.11 2.5-6.2.59-.09 1.78-.26 2.37-.34.67-2.18 1.68-4.23 2.86-6.17z"/>
    <path fill="#390c0c" opacity=".58" d="M51.97 27.04c-1.72-.28-.28-2.16.84-1.84 1.15.25 1.73.87 1.73 1.85-.64 0-1.93-.01-2.57-.01z"/>
    <path fill="#5a1113" opacity=".71" d="M45.2 26.98c.43-1.44 1.37-1.69 2.81-.74-.73.9-1.66 1.15-2.81.74z"/>
    <path fill="#7e1b1b" d="M23.55 27.15c1.31.39 2.61.84 3.9 1.33l.3.3c2.26 2.51 5.8 3.22 8.25 5.53.27.52.83 1.56 1.1 2.09 1.88-.37 4.15-.08 5.59-1.56 2-1.97 4.79-2.74 7.34-3.72 1.13.3 2.14.93 3.19 1.45 1.66-1.64 3.34-3.23 5.04-4.82.9.47 1.8.94 2.7 1.4-.66 1.5-1.31 3-1.98 4.49-2.53-.45-4.92.49-7.26 1.3-2.67.97-5.87-.36-8.24 1.48-.74 1.27-.64 2.8-.82 4.21l-.11.3c-.45 1.24-.87 2.48-1.29 3.73-1.41-1.97-2.11-4.27-2.41-6.65l-.16-1.04c-.8.59-1.6 1.18-2.41 1.76-4.04-4.08-8.83-7.38-12.73-11.58z"/>
    <path fill="#9a1c1e" d="M36.85 31.69c1.56-2.55 4.41-3.67 6.94-4.98.12.74.38 2.21.51 2.95 2.89-.11 5.84-1.61 8.63-.14 1.06-.65 2.12-1.32 3.16-2.01l2.17.24c-1.7 1.59-3.38 3.18-5.04 4.82-1.05-.52-2.06-1.15-3.19-1.45-2.55.98-5.34 1.75-7.34 3.72-1.44 1.48-3.71 1.19-5.59 1.56-.27-.53-.83-1.57-1.1-2.09.28-.88.56-1.75.85-2.62z"/>
    <g fill="#c6272c">
        <path d="M27.75 28.78c3.08.8 6.06 1.95 9.1 2.91-.29.87-.57 1.74-.85 2.62-2.45-2.31-5.99-3.02-8.25-5.53zM42.83 55.85c1.35.02 2.7.05 4.05.07 4.1 4.83 9.34 8.51 14.72 11.78-1.83.16-3.65.37-5.47.57 1.15.6 2.35 1.14 3.42 1.87.01 1.26-.23 2.5-.7 3.75-.46-.41-1.39-1.22-1.85-1.63-3.34-.84-7-3.73-10.29-1.25l-2.48 1.85 1.57-2.68c-.86-.52-1.71-1.04-2.56-1.56-2.75 2.18-5.8 3.92-8.66 5.94 2.13-4.39 3.48-9.1 5.44-13.56.41-.39 1.23-1.16 1.64-1.55.32.84.95 2.53 1.26 3.38.12-2.33.09-4.66-.09-6.98z"/>
    </g>
    <path fill="#9f2023" d="M67.46 30.14c.55.64 1.09 1.29 1.63 1.93 0 12.07-.09 24.14.01 36.22-2.7-.74-5.33-1.73-7.85-2.96 1.4-1.54 1.08-3.18.06-4.77-1.63.83-3.35 1.48-5.1 2.03-1.76-1.64-3.6-3.19-5.5-4.67 3.24-7.92 6.69-15.75 9.92-23.68 1.96.85 3.95 1.68 5.67 2.96.45-2.34.83-4.7 1.16-7.06z"/>
    <path fill="#79171b" d="M75.75 32.15l.18-.17c2.8 6.13 5.73 12.21 8.65 18.29-2.54 1.85-6.78 1.75-7.66 5.29 1.52 1.86 2.77 3.91 3.93 6.01-1.68-.78-3.09-1.98-4.4-3.27-.85 1.1-1.13 2.46-1.47 3.78l-.5.26c-.8.41-1.61.82-2.41 1.23 0-2.1.01-4.21-.16-6.3-.25-.2-.76-.59-1.01-.79-2.75-1.45-.53-4.43-.02-6.56-1.31-2.6-1.55-5.73-.68-8.49 1.6-3.26 2.28-7.14 5.55-9.28z"/>
    <path fill="#631018" d="M51.72 34.94c2.34-.81 4.73-1.75 7.26-1.3-.99 2.5-2.03 4.98-3.06 7.46-3.65-3.33-9.57-4.28-13.26-.47.18-1.41.08-2.94.82-4.21 2.37-1.84 5.57-.51 8.24-1.48z"/>
    <g fill="#581010">
        <path d="M86.25 36.9c1.91 3.67 2.23 8.18 5.07 11.3l.33.37c-1.38.45-2.77.9-4.16 1.33-1.66-3.97-3.56-7.85-4.89-11.95 1.44.17 4.61 2.14 3.65-1.05zM43.91 42.24c.21-.32.62-.97.82-1.29.99 1.1 1.99 2.2 2.95 3.33-1.61-.08-3.22-.19-4.83-.39.27-.41.8-1.23 1.06-1.65zM48.21 77.04c2.17.8 4.77 1.46 6.09 3.54-1.36 0-2.72 0-4.08-.01-.69-1.17-1.37-2.34-2.01-3.53z"/>
    </g>
    <path fill="#ad2324" d="M33.05 38.85c1.3 1.09 2.63 2.14 3.96 3.19.45-1.41.83-2.9 1.84-4.03.3 2.38 1 4.68 2.41 6.65.49 1.84.93 3.71 1.7 5.46 1.17 2.02 2.57 3.9 3.92 5.8-1.35-.02-2.7-.05-4.05-.07-.04-.44-.14-1.33-.19-1.78-.29.09-.87.27-1.17.37-.36.47-1.08 1.42-1.44 1.9l-1.01-.2c-.66-.15-1.98-.45-2.63-.6-.17-2.64-.24-5.31-1.02-7.86-2.98-1.17-6.24-1.29-9.32-2.13 1.98-.65 4.03-1.02 6.1-1.32.26-1.8.55-3.59.9-5.38z"/>
    <path fill="#220708" opacity=".49" d="M41.26 44.66c.42-1.25.84-2.49 1.29-3.73.34.33 1.02.99 1.36 1.31-.26.42-.79 1.24-1.06 1.65l-.61.94c.19 1.77.45 3.53.72 5.29-.77-1.75-1.21-3.62-1.7-5.46z"/>
    <path fill="#0d0304" opacity=".5" d="M96.68 46.03c-1.24-.69-1.2-1.33.1-1.92-.03.48-.08 1.44-.1 1.92z"/>
    <path fill="#be2730" d="M32.47 48.54c.73-.21 2.18-.64 2.9-.86.78 2.55.85 5.22 1.02 7.86.65.15 1.97.45 2.63.6l.56.6c-.46.36-1.36 1.07-1.82 1.42-.38.12-1.15.35-1.54.47l-1.13-1.37c-1.29-2.76-2.14-5.71-2.62-8.72z"/>
    <path fill="#941c1e" d="M84.58 50.27c2.29 4.64 4.4 9.37 6.84 13.94-1.59 1-3.5 1.02-5.3 1.29-1.71-1.37-3.6-2.51-5.27-3.93-1.16-2.1-2.41-4.15-3.93-6.01.88-3.54 5.12-3.44 7.66-5.29z"/>
    <path fill="#4b1012" opacity=".72" d="M41.47 54.44c.3-.1.88-.28 1.17-.37.05.45.15 1.34.19 1.78.18 2.32.21 4.65.09 6.98-.31-.85-.94-2.54-1.26-3.38-.41.39-1.23 1.16-1.64 1.55.09-2.49 3.32-3.91 1.45-6.56z"/>
    <path fill="#681413" d="M70.9 56.48c.25.2.76.59 1.01.79.17 2.09.16 4.2.16 6.3.8-.41 1.61-.82 2.41-1.23.95 2.15 1.36 4.47 1.69 6.78-1.88-.14-3.75-.34-5.61-.62-2.2-3.88-.36-8.02.34-12.02z"/>
    <path fill="#180506" opacity=".4" d="M35.09 57.26l1.13 1.37c.39-.12 1.16-.35 1.54-.47 1.31 3.58-5.07 1.94-2.67-.9z"/>
    <path fill="#aa2124" d="M81.93 70.73c0-1.28-.03-2.59.45-3.8.34.61 1.02 1.82 1.36 2.42 3.25-1.03 8.33-1.19 9.35 2.97.45.16 1.36.47 1.81.63.74 0 2.21.01 2.94.01-1.3 1.82-4.25.87-5.4 3l-2.07.36c.18.4.53 1.19.71 1.58l.15.39c-2.22-1.72-4.98-1.5-7.56-1.09.94-1.32 1.76-2.71 2.52-4.14-2.26 1.35-4.2 3.16-6.35 4.68 1.79 1 3.6 1.96 5.41 2.91-1.86 2.06-5.01 1.61-7.51 2.18-8.93.28-17.69-2.79-25.24-7.38-2.02-1.35-4.3-2.47-5.79-4.44 3.29-2.48 6.95.41 10.29 1.25l.76 2.61c1.77-.04 3.39-.7 4.69-1.92-.9.24-2.7.71-3.6.94.47-1.25.71-2.49.7-3.75-1.07-.73-2.27-1.27-3.42-1.87 1.82-.2 3.64-.41 5.47-.57 3.7 1.38 7.38 3.14 11.43 3.19 2.97.39 5.94-.54 8.9-.16z"/>
    <path fill="#180505" opacity=".64" d="M93.09 72.32c.42-.05 1.25-.16 1.67-.21l.14.84c-.45-.16-1.36-.47-1.81-.63z"/>
    <path fill="#1d0607" opacity=".43" d="M79.84 77.74c2.15-1.52 4.09-3.33 6.35-4.68-.76 1.43-1.58 2.82-2.52 4.14l-.62.39c1.25.64 2.5 1.27 3.75 1.91-.25.6-.74 1.81-.99 2.42-2.61.74-5.34 1.42-8.07.91 2.5-.57 5.65-.12 7.51-2.18-1.81-.95-3.62-1.91-5.41-2.91z"/>
    <path fill="#6f171b" opacity=".95" d="M83.67 77.2c2.58-.41 5.34-.63 7.56 1.09l-.15-.39.37.02c1.12 1.68 2.14 3.43 3.06 5.23-2.6-1.15-5.17-2.38-7.71-3.65-1.25-.64-2.5-1.27-3.75-1.91l.62-.39z"/>
    <path fill="#7b1821" d="M58.07 80.77c3.67 1.63 7.52 2.83 11.47 3.59-3.81 2.61-8.98 2.73-13.34 4.23.75-2.58 1.4-5.18 1.87-7.82z"/>
    <g fill="#521010">
        <path d="M43.12 81.95c4.53-.17 9.07-.05 13.6-.11-.18 3.12-1.09 6.13-1.59 9.2 3.72-.77 7.57-1.71 11.26-.26-1.85 2.2-4.19 4.45-7.33 3.94-4.99.38-9.33-2.45-12.1-6.39.51-1.42 1.83-2.14 3.06-2.88-2.02-1.72-5.21-1.49-6.9-3.5zM74.21 86.04c.47.2 1.41.6 1.87.79l-.79.48-.95-.41-.13-.86z"/>
    </g>
    <path fill="#81191b" d="M46.96 88.33c2.77 3.94 7.11 6.77 12.1 6.39 3.14.51 5.48-1.74 7.33-3.94 1.35.7 2.68 1.44 3.98 2.24-1.16 1.63-2.48 3.14-3.96 4.49.18.06.54.19.72.26 3.43 1.29 6.81 2.75 10.42 3.47l.6.15c.18 2.56-.28 5.15-1.99 7.16-.31-1.44-.7-2.85-1.02-4.28-1.51-1.28-2.86-2.8-4.62-3.74-3.95-1.11-8.11-1.05-12.16-1.59 1.03 1.24 1.81 2.64 2.2 4.21-4.36-.4-10.58-1.38-11.95-6.21-.88 1.05-1.9 1.98-3.04 2.74 1.71-3.6.96-7.53 1.39-11.35z"/>
    <path fill="#5e1618" opacity=".91" d="M69.28 96.17c2.04-1.57 3.95-3.74 6.57-4.25-.62 1.33-1.27 2.65-1.88 3.99-1.56.2-3.12.29-4.69.26z"/>
    <path fill="#a42021" d="M67.13 97.77c.63-.67 1.34-1.2 2.15-1.6 1.57.03 3.13-.06 4.69-.26 1.5 1.52 3.34 3.06 3.58 5.33-3.61-.72-6.99-2.18-10.42-3.47z"/>
    <path fill="#6b1418" d="M58.36 98.94c4.05.54 8.21.48 12.16 1.59 1.76.94 3.11 2.46 4.62 3.74.32 1.43.71 2.84 1.02 4.28-1.07 1.55-2.62 2.67-4.16 3.73.87-2.2 1.68-5.13-.3-6.98-3.09-2.51-7.35-2.89-11.14-2.15-.39-1.57-1.17-2.97-2.2-4.21z"/>
    <path fill="#411114" opacity=".8" d="M57.14 103.91c3.13.38-1.48 3.17 0 0z"/>
</svg>
