<svg width="128pt" height="128pt" viewBox="0 0 128 128" xmlns="http://www.w3.org/2000/svg">
    <g fill="#fff">
        <path d="M81.05 22.98c1.64 1.44 3.1 3.09 4.32 4.91.44-.38 1.32-1.12 1.76-1.49-2.58 2.75 2.67 5.36-.31 7.85 2.17-1.15 4.29-2.42 6.51-3.49-1.2 2-3.01 3.55-4.16 5.57-.54 1.91-1.01 3.83-1.69 5.69 1.28 1.4 2.58 2.78 3.78 4.25-2.04-.51-4-1.3-5.97-2.01-2.69 1.26-5.63 1.74-8.57 1.85.14.61.41 1.83.55 2.45-3.79-3.77-9.31-3.11-14.13-4.14-2.27-.32-4.73-1.17-6.9.02l-.5-1.22c-4.13-.42-8.3-.83-12.46-.49-.62 1.24-1.26 2.48-2.01 3.65-.32-.74-.96-2.22-1.29-2.96-5.62.64-10.44 5.13-10.99 10.85 1.4-1.8 2.7-3.67 4.13-5.45-.34 5.25 5.5 7.18 9.28 9.18-.67 3.85-.56 7.84.68 11.57-6.3-1.61-12.79-3.85-17.51-8.51-1.69.91-3.21 2.06-4.76 3.18.92-1.92 1.82-3.85 2.77-5.76-1.49-2.49-1.74-5.37-1.61-8.2-2.2-1.22-4.28-2.66-6.31-4.15 3.4-.12 6.81-.11 10.2-.37-.46-.29-1.4-.86-1.86-1.15 1-1.05 2.03-2.08 3.08-3.08-.85-1.65-1.69-3.3-2.49-4.97 1.98.53 3.92 1.2 5.84 1.9 3.11-1.5 6.31-2.81 9.67-3.61-1.23-2.69-2.21-5.49-3.33-8.23 3.27 1.93 5.8 4.86 9.11 6.71-.21.63-.63 1.87-.85 2.49.77-.6 1.53-1.21 2.29-1.82 7.88-.48 15.52 1.81 23.07 3.7 3.94.47 8.8 1.33 11.94-1.75-.52-2.1-1.95-3.85-2.99-5.71 1.55.96 3.06 1.99 4.6 2.97-.34-3.57-1.43-6.97-2.89-10.23zM91.9 62.27c1.7-1.15 3.44-2.23 5.16-3.35-.43 1.49-.83 2.98-1.21 4.48-1.32-.38-2.64-.76-3.95-1.13z"/>
        <path d="M86.05 61.38c6.68 2.02 13.91 4.86 17.53 11.26 1.74 2.24-1.21 2.52-2.81 1.92 3.51 2.57 7.6 4.17 11.21 6.59-3.27 1.41-7.81 1.04-9.91 4.35.51 1.07 1.27 2.01 1.74 3.11-1.16-.11-2.56-2.07-3.43-.49-3.07 3.71-7.13 6.25-11.19 8.73.19 1.3.4 2.61.66 3.91-1.13-.92-2.24-1.87-3.32-2.84-3.73 1.35-7.6 2.2-11.53 2.73.02-1.66 0-3.31-.03-4.97-2.13 3.4-4.26 6.81-6.57 10.1-.91-1.84-1.85-3.67-2.75-5.51-6.45-1.33-12.71-4.15-17.17-9.13-2.26 1.11-4.55 2.15-6.9 3.07 1.69-3.42 3.84-6.58 5.63-9.95-2.86 1.38-2-1.84-2.2-3.28.27-3.53-2.77-6.09-4.12-9.09 1.79.92 3.64 1.77 5.6 2.27 1.43-3.61 4.6-6.09 7.77-8.12-.27-1.35-.56-2.7-.86-4.05.69 1.14 1.34 2.29 1.96 3.47 3.76-1.15 7.72-1.67 11.58-.7.74-.44 2.2-1.32 2.93-1.76-.26.67-.78 2-1.04 2.66 3.32 1.25 6.21 3.57 8.07 6.6-4.44-1.94-9.24-3.49-14.13-2.51l.82 1.96c-1.52-.77-3.51-1.64-4.81.01-3.88 2.75-4.56 8.61-1.57 12.27 5.1 6.42 14.03 8.12 21.79 6.96 0-.81-.01-2.42-.01-3.23.71.81 1.45 1.57 2.24 2.3 4.61-1.37 8.75-5.04 10.21-9.71 1.97 1.83 2.99 4.32 4.02 6.74 1.9-7.37-4.74-13.48-11.59-14.19 2.15-3.41 2.71-7.54 2.18-11.48zM34.9 68.5c1.22-.86 2.33 1.12 1.39 2.01-1.18 1.15-2.36-1.16-1.39-2.01z"/>
        <path d="M63.17 87.11h.66v.66h-.66v-.66z"/>
    </g>
</svg>
