<svg width="128pt" height="128pt" viewBox="0 0 128 128" xmlns="http://www.w3.org/2000/svg">
    <g fill="#fff">
        <path d="M55 32.6c2.37-1.81 4.81-4.03 7.95-4.18 5.64-.61 10.37 3.83 13.11 8.3-1.98-.26-3.95-.54-5.92-.77-.86-1.46-1.7-2.94-2.59-4.37-.17.89-.5 2.67-.67 3.57-3.92-1.04-7.84-2.11-11.88-2.55zM47.77 46.69c.73-3.39 4.58-1.33 6.93-1.63.52 1.75 1.13 3.47 1.55 5.25 1-1.53 1.99-3.06 3.03-4.56 4.15.54 8.29 1.13 12.45 1.53 2.78 1.32 5.29 3.16 7.96 4.7-.31-1.1-.94-3.29-1.25-4.38.58-.08 1.72-.24 2.29-.32 3.22 5.65 3.72 12.41 3.26 18.78-1.42 12.17-15.82 20.44-27.06 15.7-.43-3.52 1.09-7 4.13-8.88 1.8.74 3.65 1.37 5.45 2.12-.3-.87-.91-2.6-1.21-3.47 4.84-.38 9.52 1.12 13.8 3.25-1.6-4.3-4.11-8.38-8.21-10.7.15-1.68.39-3.35.71-5.01-1.49 1.22-3.01 2.38-4.54 3.54-3.83-.92-7.77-.51-11.54.48-1.14-2-2.58-3.78-4.06-5.53.4 2.33.58 4.69.95 7.02-1.34 1.23-3.08 2.11-4.74.84 1.86 2.46-1.01 4.18-2.47 5.85-2.74-8.11-1.26-17.07 2.57-24.58z"/>
    </g>
</svg>
