<svg width="128pt" height="128pt" viewBox="0 0 128 128" xmlns="http://www.w3.org/2000/svg">
    <g fill="#fff">
        <path d="M44.48 20.24c3.61-.99 7.47-1.45 11.09-.2.41.46 1.24 1.4 1.65 1.86 3.9-.83 7.74 1.91 9.63 5.16-3.08 2.62-5.68 5.72-8.01 9.01-1.31-1.11-2.63-2.21-3.78-3.48-1.03-3.81 2.35-7.27 1.45-10.92-1.18 3.19-2.07 6.49-2.68 9.84-1.99-.55-4.01-.99-6.03-1.37 1.01-3.79-1.03-7.11-3.32-9.9z"/>
        <path d="M35.09 25.57c2.49-2.06 5.14-4.22 8.44-4.74.75.85 1.51 1.69 2.29 2.5 1.26 2.24 1.31 4.8 1.23 7.3-1.39.39-2.74.85-4.06 1.42-1.58-3.28-4.71-5.07-7.9-6.48z"/>
        <path d="M34.3 26.81c3.48.17 6.11 2.62 7.87 5.43-1.13 1.76-2.28 3.51-3.38 5.3-2.41-1.46-5.16-1.87-7.93-1.7-.17-3.39 1.44-6.43 3.44-9.03zM59.65 37.15c1.88-3.77 4.91-6.85 8.21-9.41 3.18 1.47 5.6 4.35 6.82 7.6-3.4 3.74-8.53 6.18-13.24 8.06-.36-2.15-1.6-4.1-1.79-6.25zM30.93 36.44c2.41.25 5.01.28 7.03 1.8-.37 1.92-.65 3.86-.91 5.8-2.02-.18-4.03-.29-6.05-.4-.7-2.34-.17-4.82-.07-7.2zM61.92 44.62c4.64-2.09 9.03-4.71 13.15-7.69 1.32 2.43 2.28 5.04 3.09 7.69-1.91 4.27-5.99 7.12-9.85 9.56-1.11-.49-2.2-1.01-3.34-1.41-1.3-2.59-3.11-5.13-3.05-8.15zM30.72 45.01c3.25-1.71 8.56-.08 7.35 4.39 1.78 0 3.49-.4 5.11-1.21-.63.73-1.89 2.18-2.52 2.91-4.29.34-8.17-2.28-9.94-6.09z"/>
        <path d="M69.21 54.6c4.54-1.89 7.45-5.93 10.29-9.73 2.45 1.22 6.61 2.63 5.7 6.16-1.41 4.98-1.3 10.13-1.06 15.26-2.35-2.64-5.17-4.85-8.8-5.26 1.06-4.07-3.6-4.8-6.13-6.43z"/>
        <path d="M86.18 51.18c1.14-2.09 3.93-.88 5.84-1.28 4.18-.51 7.55 3.45 11.82 2.23-.2 2 1.85 2.4 3.2 3.26-5.31-.05-10.36-1.71-15.24-3.63.13 1.52.04 3.27 1.64 4.06 3.88 1.53 8.16 1.58 12.28 1.65-4.55 6.56-12.57 11.22-20.72 9.52.09-5.27-.67-10.75 1.18-15.81zM62.71 58.28c-1.48-1.67-.45-3.88.84-5.27 2.42 1 4.81 2.06 7.16 3.2 1.32.85 2.84 1.5 3.89 2.7.48 2.87-2.5 4.09-4.37 5.46.05-2.55 1.08-5.29-.36-7.65-.85.47-1.7.96-2.54 1.46-1.19 1.67-3.46 1.88-4.62.1z"/>
        <path d="M56.3 72.32c.57-5.89 6.23-8.75 9.83-12.72-.44 1.02-1.31 3.08-1.74 4.1l.36 1.01-1.13-.25c-.65 4.09-4.42 6.46-5.97 10.17-5.09 2.1-9.19 6.78-15.11 6.65-3.35 2.31-7.66 1.77-11.51 1.82-2.79.12-5.52-.98-7.61-2.81 4.1.72 8.71.84 12.38-1.45 1.76-1.12 3.82-1.66 5.87-1.11 4.13-3.39 9.23-5.55 14.63-5.41zM74.98 61.84c2.59-.03 4.96 1.55 6.81 3.26-.27.73-.79 2.18-1.06 2.9-.89 0-2.66-.01-3.55-.01.16-.58.48-1.75.64-2.34-1.53-1.49-5.12-1.35-4.52 1.69-1.39-.76-2.05-1.87-1.97-3.32 1.18-.79 2.39-1.52 3.65-2.18z"/>
        <path d="M64.81 64.12c1.37.99 2.76 1.93 4.14 2.91-1.16 1.66-2.27 3.35-3.28 5.1l-3.42-1.62c.71-2.29 3.55-3.69 2.56-6.39zM81.91 65.64c5.61 2.82 10.91 7.42 13.26 13.29l.93.13c-.1 5.18-.46 10.43.49 15.56-1.16 1.62-2.29 3.26-3.59 4.78 3.6-6.48 1.76-14.14.9-21.1-2.53-2.15-4.53-4.82-6.91-7.1-1.83-1.73-5.62-2.32-5.08-5.56zM69.88 72.16c1.2-1.46 1.56-4.92 4.07-4.15 1.35.87.95 2.12.01 3.12 1.36.76 2.59 1.74 3.51 3.01-2.68 0-6.08.99-7.59-1.98z"/>
        <path d="M89.51 69.48c-.41-.38-1.24-1.13-1.65-1.51 2.94-.33 5.92.1 8.54 1.48.8 3.62 1.92 7.18 3.79 10.4 1.95 3.2.17 7.01-.98 10.17.03-2.36.49-4.71.3-7.07-1.64-4.25-3.66-8.37-4.91-12.77-1.69-.25-3.39-.51-5.09-.7zM59.66 71.76c2.1-1.6 3.98.19 5.75 1.31-.06 2.75-.24 5.5-.51 8.24-1.62-.65-3.14-1.94-5-1.4.11-2.72.2-5.45-.24-8.15zM72.61 75.11c5.66-1.24 10.43 3.06 15.4 5.09.62 2.28-2.4 2.37-3.95 2.51-4.67-.83-8.48-4.07-11.45-7.6zM50.43 84.25c3.21-2.09 7.06-2.81 10.64-4 .69.79 1.39 1.59 2.08 2.39-5.31 3.5-10.04 7.79-15.2 11.5-1.12 1.01-2.65.91-4.06 1.03-.69-4.82 3.22-8.18 6.54-10.92zM78.64 82.27c.49-.11 1.48-.31 1.97-.42-.81 5.05-1.95 10.46-4.92 14.84-2.72.25-3.68 3.12-5.89 4.26-1.97.99-3.9 2.03-5.8 3.14-2.33.55-4.76.55-7.12.81 5.36-2 9.47-5.98 13.52-9.86 2.82-.23 2.38-3.37 3.42-5.27 1.3-2.7 3.7-4.69 4.82-7.5zM85.76 83.13c.6-.07 1.8-.22 2.41-.29-2.73 5.13.34 11.14-2.45 16.21-1.25-.31-2.48-.68-3.7-1.07-.86-2.56-1.65-5.54-.14-8.02 1.5-2.16 2.63-4.53 3.88-6.83zM17.63 94.39c7.71-.19 15.19-2.16 22.53-4.38.64 1.69 1.25 3.4 1.91 5.09-5.14.88-10.03 2.86-15.24 3.44-3.21-1.03-6.33-2.36-9.2-4.15zM79.47 99.48c1.23.54 2.45 1.12 3.66 1.7-2.21 2.87-4.45 5.71-6.4 8.76-2.64.73-5.3 1.38-7.93 2.13 4.72-3.1 7.92-7.77 10.67-12.59z"/>
    </g>
    <path fill="#f9f9f9" opacity=".98" d="M67.12 65.56c-2.49-2.51-.43-7.4 3-7.92.12 2.73.13 6.81-3 7.92z"/>
    <path fill="#f7f7f7" opacity=".97" d="M74.23 66.18c.9-1.42 3.63-.25 2.53 1.36-.94 1.15-2.84-.07-2.53-1.36z"/>
</svg>
