<svg width="128pt" height="128pt" viewBox="0 0 128 128" xmlns="http://www.w3.org/2000/svg">
    <path fill="#c2c2c2" opacity=".76" d="M43.52 16.37c4.09-1.05 8.78-.5 11.62 2.91-4.17.2-7.77-1.73-11.62-2.91z"/>
    <path fill="#d0d0d0" opacity=".82" d="M59.1 16.79c4.04 1.51 6.98 5.19 8.17 9.27-3.81-2.03-6.03-5.7-8.17-9.27z"/>
    <path fill="#bbb" opacity=".73" d="M29.05 25.15c2.74-3.3 7.6-6.72 11.87-4.12-1.09.66-2.19 1.3-3.27 1.97-3.11-.48-5.89.83-8.6 2.15z"/>
    <path fill="#cdcdcd" opacity=".8" d="M75.55 26.75c.76 2.47.43 5.08.42 7.62-1.58-.15-2.25-1.44-2.91-2.68 1.66-1.17 2.03-3.11 2.49-4.94z"/>
    <path fill="#dcdcdc" opacity=".86" d="M24.18 36.21c.93-4.02 3.65-8.3 8.19-8.51-.46 1.08-.94 2.16-1.44 3.23-2.69 1.14-4.72 3.25-6.75 5.28z"/>
    <path fill="#d3d3d3" opacity=".83" d="M28.41 37.22c2.31-1.31 1.38 2.08 1.68 3.33-2.81 1.31-3.88 4.17-5.04 6.81-.4-3.6.16-7.91 3.36-10.14z"/>
    <g fill="#ababab">
        <path opacity=".67" d="M78.83 42.87c-2.29.48-1.98-4.35-.03-4.3.66 1.27.68 3.02.03 4.3zM83.38 46.46c.84-1.39 1.64-2.8 2.49-4.19.41 2.19.6 4.43.1 6.62-.86-.82-1.72-1.63-2.59-2.43z"/>
    </g>
    <path fill="#9d9d9d" opacity=".62" d="M30.71 53.58c-1.17-2.57-1.99-5.89.09-8.24 1.12 2.67.3 5.52-.09 8.24z"/>
    <path fill="#b5b5b5" opacity=".71" d="M87.99 46.49c1.14.95 3.51 1.16 3.18 3.11-.78.13-2.36.41-3.15.54 0-.91-.02-2.74-.03-3.65z"/>
    <path fill="#dbdbdb" opacity=".86" d="M107.43 49.06c.56.69 1.13 1.38 1.69 2.07-.97 1.56-2.12 3.13-4.15 3.21-.01-.78-.02-2.35-.03-3.14.83-.71 1.66-1.42 2.49-2.14z"/>
    <path fill="#a9a9a9" opacity=".66" d="M91.59 52.83c5.82.81 11.38 3.37 17.4 3.23 2.04 2.14.83 5.71 1.66 8.43-1.08 2.36-2.19 4.72-3.79 6.78.56-2.14 1.54-4.14 2.18-6.25.25-2.66-.16-5.35-.09-8.02-4.89.23-9.79-.2-14.56-1.25-1.18-.71-1.94-1.89-2.8-2.92z"/>
    <path fill="#a8a8a8" opacity=".66" d="M40.97 90.98c.94-.66 1.98-1.11 3.12-1.35-.42 1.45-.84 2.9-1.19 4.37l-.85.05c-.39-1.02-.74-2.04-1.08-3.07z"/>
    <path fill="#a6a6a6" opacity=".65" d="M80.21 97.72c1.37-.55 2.81.79 3.7 1.7-.35 2.12-4.99.12-3.7-1.7z"/>
</svg>
