<svg width="128pt" height="128pt" viewBox="0 0 128 128" xmlns="http://www.w3.org/2000/svg">
    <path fill="#6d171b" opacity=".93" d="M66.29 21c1.55-2.02 3.23-4.03 5.52-5.24.43.6 1.3 1.81 1.74 2.42-1.44.99-2.87 1.97-4.32 2.94L66.29 21z"/>
    <path fill="#080202" opacity=".28" d="M71.81 15.76c2.34.33 1.69 3.78 4.21 3.63-3.51 1.67-6.61 4.06-8.79 7.31-1.64-.58-3.35-.9-5.04-1.23v.01c3.4 1.17 4.97-2.43 7.04-4.36 1.45-.97 2.88-1.95 4.32-2.94-.44-.61-1.31-1.82-1.74-2.42z"/>
    <path fill="#5d1316" d="M76.02 19.39c1.16-.67 2.41-1.17 3.71-1.51l-.34.68c-1.18 2.13-2.12 4.37-2.93 6.66-2.96 1.24-5.91 3.3-9.23 1.48 2.18-3.25 5.28-5.64 8.79-7.31z"/>
    <path fill="#9c2021" d="M76.46 25.22c.81-2.29 1.75-4.53 2.93-6.66 2.44 2.34 4.72 4.92 6.36 7.89.71 2.09.82 4.33 1.19 6.49-5.21.37-10.79-.28-15.61 2.14-.78-.86-1.53-1.75-2.28-2.63-.54.11-1.07.22-1.61.32.43.89.85 1.78 1.28 2.66-2.97-.17-5.94-.1-8.86.46-.43-.03-1.28-.08-1.71-.11 1.75-2.5 4.06-4.59 5.35-7.41 4.31-.12 10.79 2 12.96-3.15z"/>
    <path fill="#b52326" d="M50.02 19.57c2.22 1.1 4.69 2.12 5.98 4.39 1.53 2.71 4.74 3.92 7.72 4.03l-.22.38c-1.29 2.82-3.6 4.91-5.35 7.41.43.03 1.28.08 1.71.11.4 1.06.8 2.11 1.19 3.18-2.72 1.48-4.92-1.54-4.66-4.09-.36-1.74-2.09-2.3-3.32-3.29-1.34-1.47-2.5-3.09-3.89-4.51-.74.84-1.46 1.7-2.27 2.48-1.14-.35-2.22-.85-3.32-1.29.77-.13 2.31-.4 3.08-.54.83-2.22 1.6-4.47 2.47-6.68.22-.4.66-1.19.88-1.58z"/>
    <path fill="#841b1b" d="M41.7 25.8c3.3-.01 5.08-2.83 7.44-4.65-.87 2.21-1.64 4.46-2.47 6.68-.77.14-2.31.41-3.08.54-.37-.01-1.09-.04-1.46-.06-.18 5.29-.07 10.58-.15 15.87-.03 2.39-.2 4.78-.34 7.16-.77-3.74-.18-7.59-.34-11.38.18-4.71-.4-9.48.4-14.16z"/>
    <path fill="#571216" opacity=".98" d="M59.22 23.78c2.67.03 5.49-.37 7.07-2.78l2.94.12c-2.07 1.93-3.64 5.53-7.04 4.36-.74-.43-2.22-1.28-2.97-1.7z"/>
    <path fill="#9d1f23" d="M46.91 29.66c.81-.78 1.53-1.64 2.27-2.48 1.39 1.42 2.55 3.04 3.89 4.51 1.23.99 2.96 1.55 3.32 3.29-4.74 3.15-9.93 5.61-14.41 9.2.08-5.29-.03-10.58.15-15.87.37.02 1.09.05 1.46.06 1.1.44 2.18.94 3.32 1.29z"/>
    <path fill="#c6272c" d="M67.44 32.77c.54-.1 1.07-.21 1.61-.32.75.88 1.5 1.77 2.28 2.63.96.82 1.97 1.6 2.97 2.38-.56 3.28 2.29 5.49 2.9 8.37-1.34 4.36-6 6.4-9.21 9.26-1.52.73-3 1.55-4.42 2.45-.5.4-1.04.46-1.62.17-2.91-1.81-6.36-.71-9.55-.74-1.29-.06-2.29.88-3.36 1.43-.84.02-2.51.07-3.34.09l-.88-.9c-.06-.06-.17-.17-.22-.23-.45-.43-1.34-1.3-1.79-1.74l.16-.78c-.23-.46-.69-1.38-.92-1.83-.1-.42-.31-1.25-.41-1.67.14-2.38.31-4.77.34-7.16 4.48-3.59 9.67-6.05 14.41-9.2-.26 2.55 1.94 5.57 4.66 4.09-.39-1.07-.79-2.12-1.19-3.18 2.92-.56 5.89-.63 8.86-.46-.43-.88-.85-1.77-1.28-2.66z"/>
    <path fill="#aa2124" d="M71.33 35.08c4.82-2.42 10.4-1.77 15.61-2.14.19 1.51.32 3.02.4 4.53-.95 2.56-3.94 3.25-5.58 5.25-1.49 1.94-2.52 4.17-3.7 6.3 2.52 3.33 6.88 1.01 9.71-.58.16.67.49 2 .66 2.67-.33.7-.66 1.41-.98 2.11-3.54-.48-6.85 1.28-10.36 1.3-3.04.04-6.09.1-9.1.57 3.21-2.86 7.87-4.9 9.21-9.26-.61-2.88-3.46-5.09-2.9-8.37-1-.78-2.01-1.56-2.97-2.38z"/>
    <path fill="#9a1d1e" d="M87.34 37.47l.24-.47c.2 4.71 1.81 9.39.85 14.11-.17-.67-.5-2-.66-2.67-2.83 1.59-7.19 3.91-9.71.58 1.18-2.13 2.21-4.36 3.7-6.3 1.64-2 4.63-2.69 5.58-5.25z"/>
    <path fill="#4e1013" opacity=".72" d="M42.05 53.01c.23.45.69 1.37.92 1.83l-.88-.12-.04-1.71z"/>
    <path fill="#73181a" d="M77.09 54.52c3.51-.02 6.82-1.78 10.36-1.3-1.07 3.4-5.42 3.38-8.37 3.82-5.18 0-10.35.25-15.51.5 1.42-.9 2.9-1.72 4.42-2.45 3.01-.47 6.06-.53 9.1-.57z"/>
    <path fill="#78191a" opacity=".96" d="M49.04 58.4c1.07-.55 2.07-1.49 3.36-1.43 3.19.03 6.64-1.07 9.55.74-5.15 1.6-11.2 3.87-16.25.78.83-.02 2.5-.07 3.34-.09z"/>
    <path opacity=".43" d="M44.6 57.36c.05.06.16.17.22.23-.06-.06-.17-.17-.22-.23z"/>
    <path fill="#5d1115" d="M76.01 60.32c2.77.08 5.49-.53 8.16-1.18.32 11.07 4.33 21.7 4.03 32.82-.09 2.91.21 5.85-.29 8.73-.4 1.27-.84 2.51-1.28 3.77-2.1.39-4.25.66-6.38.31-.36.35-1.08 1.06-1.44 1.41-.49-7.32.83-14.72-1.06-21.92-.23-1.51-.83-2.92-1.67-4.19-.19.92-.58 2.76-.77 3.68-.38-.04-1.14-.12-1.52-.17-.88-3.03-2.88-5.36-5.84-6.51.14-.28.43-.84.58-1.12-5.31 3.87-6.39 10.93-7.54 16.96-.74 5.73-1.89 11.42-4.07 16.79-1.22-1.02-2.54-2.06-3.12-3.6-3.43-8.3-1.91-17.58-4.53-26.1-1.8-5.5-2.71-11.22-3.19-16.98 2.86.19 5.83.7 8.6-.31 6.88-2.2 14.17-2.5 21.33-2.39z"/>
    <path fill="#420d0d" d="M45.65 75.23c.21-.2.63-.62.84-.82.4 2.88 1.07 5.71 1.94 8.48 1.5 4.59 1 9.49 1.79 14.21.67 3.58-.92 8.23-5.14 8.43-2.11-3.75-2.8-8.15-2.72-12.4.85-6 1.95-11.99 3.29-17.9z"/>
    <path fill="#470d0b" d="M66.06 80.53c.47-.86 1.42-2.59 1.89-3.46 2.96 1.15 4.96 3.48 5.84 6.51.38.05 1.14.13 1.52.17.19-.92.58-2.76.77-3.68.84 1.27 1.44 2.68 1.67 4.19l-1.58-.78c1.36 3.4 1.08 7.08 1.06 10.66-3.98-4.26-3.99-12.95-11.17-13.61z"/>
    <path fill="#3c0d0b" d="M86.63 104.46c.44-1.26.88-2.5 1.28-3.77-.92 4.44-2.01 10.16-6.96 11.77-1.12-1.94-1.73-4.09-2.14-6.28.36-.35 1.08-1.06 1.44-1.41 2.13.35 4.28.08 6.38-.31z"/>
</svg>
