<svg width="128pt" height="128pt" viewBox="0 0 128 128" xmlns="http://www.w3.org/2000/svg">
    <path fill="#f8f8f8" opacity=".97" d="M65.24 22.26c2.1-2.26 3.96-4.76 6.52-6.55.6.92 1.14 1.88 1.62 2.87-3.54 1.35-5.72 4.51-8.42 6.96-2.04-.02-4.08-.45-5.86-1.48 2.07-.31 4.64-.02 6.14-1.8z"/>
    <path fill="#fff" d="M67.29 26.67c2.59-4.33 7.23-6.48 11.59-8.58 2.62 2.57 4.91 5.45 6.99 8.48.99 6.76 1.95 13.53 2.77 20.31.51 2.82-.91 5.41-1.96 7.91-3.78 2.33-8.38 2.24-12.65 2.17-6.76-.19-13.43 1.18-19.97 2.71-3.22.83-6.97.09-9.35-2.3-2.66-2.28-3.29-6.04-3.25-9.36.05-6.88-.1-13.75.02-20.62.17-1.39 1.64-1.69 2.67-2.23 2.57-1.01 4.2-3.38 5.98-5.37 2.19.97 4.59 1.99 5.8 4.2 2.43 4.06 7.81 4.36 12.05 4.8 3.56.45 8.3-.46 8.9-4.69-2.68 2.33-6.01 4.06-9.59 2.57z"/>
</svg>
