<svg width="128pt" height="128pt" viewBox="0 0 128 128" xmlns="http://www.w3.org/2000/svg">
    <g fill="#fff">
        <path d="M62.28 55.17c.59-2.04 1.14-4.09 1.69-6.13.5 2.05 1.06 4.1 1.64 6.14-1.11-.01-2.22-.01-3.33-.01z"/>
        <path d="M58.37 56.89c-1.19-1.66-1.47-3.74-2.01-5.66 1.37 1.4 2.76 2.78 4.18 4.13l.11.72.13.81c4.34-1.34 8.35 1.03 11.28 4.07l-.57-2.91c1.84-.35 3.66-.79 5.49-1.18-1.75 1.78-3.55 3.52-5.61 4.95.75 1.91.18 4.04.84 5.95 1.69 1.3 3.4 2.58 4.82 4.18-1.5-.4-3-.84-4.48-1.32-1.88-4.4-3.72 2.56-6.63 2.36-1.31.06-2.61.06-3.91 0-4.31-.61-7.78-5.38-6.33-9.65-.36.03-1.07.07-1.42.1.98 4.22-3.58.79-5.42 1.01 2.47-.72 4.93-1.49 7.24-2.62.27-1.93 2.39-2.8 2.82-4.57l-.53-.37z"/>
        <path d="M71.56 51.12c-.56 1.97-1.08 3.95-1.58 5.93-.96-.47-1.92-.93-2.87-1.4 1.5-1.49 2.99-2.99 4.45-4.53zM51.01 56.81c1.86.45 3.7.94 5.52 1.51-.66.77-1.32 1.55-1.99 2.32-1.16-1.29-2.37-2.54-3.53-3.83zM73.71 62.96c1.82.45 3.65.88 5.48 1.29-1.77.47-3.53.95-5.28 1.48l-.2-2.77zM50.86 71.87c1.17-1.17 2.36-2.32 3.54-3.48.28.56.83 1.68 1.11 2.24-1.55.4-3.1.82-4.65 1.24zM57.65 72.75c.61.52 2.24.5 1.85 1.63-.98 1-2.05 1.9-3.13 2.77.42-1.47.85-2.94 1.28-4.4zM71.69 77.8c-.96-1.42-5.48-4.28-1.6-4.94.66 1.6 1.11 3.28 1.6 4.94zM62.56 74.48c.68.28 2.05.85 2.73 1.13-.5 1.19-.97 2.39-1.5 3.57-.2-.77-.61-2.32-.82-3.09l-.41-1.61z"/>
    </g>
    <path fill="#373737" opacity=".22" d="M62.01 72.99c1.3.06 2.6.06 3.91 0l-.63 2.62c-.68-.28-2.05-.85-2.73-1.13l.41 1.61c-.32-1.03-.65-2.07-.96-3.1z"/>
</svg>
