<svg width="128pt" height="128pt" viewBox="0 0 128 128" xmlns="http://www.w3.org/2000/svg">
    <g fill="#fff">
        <path d="M44.47 75.25c2.44 2.73 4.97 5.39 7.56 7.98-3.42-1.23-6.7-2.84-9.98-4.42.82-1.17 1.63-2.36 2.42-3.56zM84.39 77.33c1.24 1.72 5.55 6.23-.36 4.73 1.06.65 2.18 1.62 3.55 1.08 1.66-.56 2.02 1.72 3.02 2.52-2.81.55-5.4 2.04-8.25 2.36-3.17-1.49-.02-5.81 2.91-4.08-1.07-.55-2.16-1.03-3.28-1.45 1.38-1.39 1.75-3.39 2.41-5.16zM75.67 83.59c2.12-1.24 4.3-2.39 6.35-3.76-1.1 1.8-1.86 3.77-2.34 5.82-1.34-.69-2.67-1.39-4.01-2.06zM39.56 82.26c.33-2.23 3.14-2.2 3.79-.3.83 2.83 2.27 6.64-1.16 8.3-.91-2.66-1.92-5.28-2.63-8zM44.53 81.82c1.97.84 3.95 1.66 5.8 2.74-1.55.69-3 1.57-4.37 2.57-.53-1.76-.99-3.54-1.43-5.31zM32.71 89.2c1.97-1.74 3.8-3.61 5.73-5.36.7 2.61 1.76 5.16 2.14 7.85-.29.3-.88.9-1.17 1.2-2.3-1.1-4.48-2.44-6.7-3.69zM83.79 89.22c3.21.03 6.66-3.71 9.46-1.02-1.28 2.28-2.55 4.57-3.62 6.96-1.91-2.01-3.83-4.02-5.84-5.94zM28.2 92.45c1.25-.86 2.42-1.85 3.77-2.54.63.68 1.25 1.37 1.85 2.08 1.71.14 3.17 1.05 4.62 1.9-1.13 1.18-2.25 2.35-3.42 3.47-.53-1.8 1.24-5.16-1.7-5.44.19 2.72.54 5.43.73 8.15-2.08-2.43-3.79-5.16-5.85-7.62zM91.8 93.08c.85-1.24 1.68-2.5 2.56-3.71 1.14 1.04 2.27 2.09 3.44 3.11-2 .16-4 .39-6 .6zM23.2 95.57c1.22-.68 2.33-1.62 3.66-2.06 2.1 2.4 3.9 5.05 5.77 7.63-.37.62-1.13 1.87-1.5 2.49-2.71-2.63-5.25-5.41-7.93-8.06zM91.6 94.23c2.82-.34 5.67-.2 8.5-.48-2.29 1.8-4.56 3.63-6.99 5.24-1.66-.14-4.04-3.71-1.51-4.76zM93.83 100.75c2.32-2.14 5.11-3.85 7.63-5.8.6.39 1.8 1.16 2.4 1.55-2.69 2.77-5.31 5.68-8.47 7.92-.54-1.21-1.06-2.44-1.56-3.67z"/>
    </g>
</svg>
