<svg width="128pt" height="128pt" viewBox="0 0 128 128" xmlns="http://www.w3.org/2000/svg">
    <g fill="#fff">
        <path d="M45.78 15.79c2.39.33 3.85 2.37 5.51 3.87 3.93 3.94 7.93 7.82 11.59 12.02-.76.45-1.52.9-2.28 1.36-4.35-6.27-10.93-10.65-14.82-17.25zM81.69 18.69c.73-.41 2.2-1.23 2.93-1.64-1.31 3-3.88 5.1-6 7.48-6.22 6.8-13.01 13.05-18.92 20.14-5.18 5-9.45 11.91-8.81 19.36.07 2.24 1.44 4.12 2.48 6.02 15.55-14.37 31.68-28.11 47.37-42.33 1.57-1.66 3.42-3.03 5.5-3.99-.42 1.29-.93 2.61-1.98 3.53-15.65 15.5-30.59 31.72-46.25 47.21C61.6 78.9 68.08 78.81 73 76.96c6.58-1.98 11.31-7.19 16.63-11.22 4.06-3.99 8.65-7.4 12.62-11.49 3.12-3.05 6.15-6.27 9.96-8.47-.41 2.63-2.78 4.2-4.42 6.07-8.21 8.11-16.37 16.28-25.02 23.93-5.95 4.75-13.96 8.45-21.64 6.03-4.74-1.41-7.72-5.5-10.98-8.9-3.63-3.73-4.98-9.47-3.63-14.46 1.92-8.18 7.82-14.62 13.99-19.97 7.27-6.38 13.6-13.77 21.18-19.79zM23.7 21.5c1.24.65 2.57 1.22 3.55 2.24C34.43 30.9 41.66 38.02 49.01 45c-.52 1.37-1.68 2.4-2.46 3.63-6.99-8.37-14.44-16.34-21.65-24.51-.3-.66-.9-1.96-1.2-2.62z"/>
        <path d="M69.36 38.7c2.7 1.63 4.4 4.4 6.55 6.64-.94.71-1.87 1.43-2.8 2.16-1.69-2.17-3.51-4.23-5.17-6.42.36-.59 1.06-1.79 1.42-2.38zM16.8 43.42c3.07.81 4.94 3.5 7.23 5.46 6.14 5.51 11.6 11.75 18.01 16.95.92.72 1.69 1.62 2.17 2.69-.86.86-1.72 1.73-2.56 2.62-5.73-6.51-11.73-12.78-17.89-18.88-2.55-2.75-4.95-5.67-6.96-8.84zM57.43 53.11c1.45 1.33 2.91 2.68 3.95 4.37-1.38 1.06-2.71 2.18-3.99 3.35-.83-.96-1.67-1.92-2.5-2.88.88-1.6 1.74-3.2 2.54-4.84zM78 58.28c1.25-1.07 2.5-2.15 3.82-3.14.55 4.29 1.62 9.06-.55 13.09-3.26 3.11-7.7 4.5-11.91 5.87-1.05-1.19-2.11-2.37-3.16-3.55 1.45-1.51 2.87-3.05 4.36-4.52 1.37 1.3 2.66 2.69 3.92 4.1 3.31-3.06 4.02-7.56 3.52-11.85zM45.74 70.8c3.62 3.85 7.33 7.62 10.96 11.47-.76.59-1.54 1.17-2.32 1.74-3.36-3.87-7.43-7.15-10.41-11.32l1.77-1.89zM18.28 99.74c3.72 1.75 5.85 5.66 8.94 8.27-2.83 3.22-7.39 2.74-11.25 2.75-.08-3.78-.2-7.9 2.31-11.02zM99.78 109.75c1.49-3.78 5.64-5.88 8.31-8.87 3.11 2.87 2.63 7.35 2.68 11.18-3.77.03-7.9.28-10.99-2.31z"/>
    </g>
    <g fill="#fdfdfd">
        <path d="M20.37 94.82c3.51 3.5 6.98 7.04 10.5 10.54.95 1.17-.51 2.38-1.55 2.6-3.2-3.25-6.37-6.53-9.6-9.75-1.69-.98.05-2.41.65-3.39zM105.51 97.16c.94-1.1 2.37.67 2.44 1.52-3.23 3.21-6.54 6.35-9.73 9.61-.96 1.66-2.42-.04-3.44-.58 3.49-3.59 7.04-7.15 10.73-10.55z"/>
    </g>
</svg>
