<svg width="128pt" height="128pt" viewBox="0 0 128 128" xmlns="http://www.w3.org/2000/svg">
    <g fill="#fff">
        <path d="M50.75 19.61c.61 1.31 1.09 2.68 1.52 4.06 5.58 3.63 9.8 9.21 11.68 15.61-3.24 4.12-6.09 8.62-8.23 13.42-1.42 3.11-2.1 7.75 1.43 9.73 3.26-1.4 6.07-3.64 9.21-5.3.74 2.96-1.26 5.79-.48 8.78 5.89 1.9 12.2 1.79 18.19 3.3 7.64.42 15.36 1.3 22.48 4.28 2.08.93 3.95 2.28 5.4 4.05-7.42-3.64-15.79-4.16-23.9-4.53-12.29-.5-24.33 2.83-36.57 3.05-.95.52-1.92 1.02-2.89 1.5-1.5-2.96-3.55-5.61-4.87-8.66 1.79-5.72 5.12-10.87 8.46-15.81 1.83-2.82 4.39-5.59 4.37-9.15-1.74-6.4-7.19-10.93-9.68-16.98-.86-3.11 2.05-5.33 3.88-7.35m15.51 53.33c1.67.41 3.76.46 5.37-.24-.7-1.5-4.63-1.24-5.37.24zM21.51 34.63c.66 7.88 2.94 15.84 7.6 22.34 2.63 2.76 5.83 4.93 8.41 7.77 2.67 2.96 6.19 5.34 7.75 9.14-2.87-2.56-5.24-5.63-8.2-8.08-4.17-2.88-9.11-4.67-12.83-8.17-2.6-4.48-3.53-9.69-4.86-14.63.82-2.77 1.47-5.57 2.13-8.37z"/>
        <path d="M64.79 39.78c5.57.95 10.75 4.09 13.84 8.87 1.4.19 2.79.36 4.19.51-.85 1.68-1.35 3.69-2.86 4.92-1.43 1.02-3.15.06-4.66-.22-4.61-1.35-9.17-2.88-13.71-4.43-1.31 2.98-.97 6.23.84 8.92-1.71.42-3.43.8-5.15 1.2-1.09-4.66.91-9.16 2.86-13.27.91-1.33 1.62-3.02 3.22-3.68.95-.62 2.57-1.07 1.43-2.82zM65.41 98.32c3.13-.08 6.26-.25 9.37-.69 1.55 2.57 3.14 5.16 5.31 7.27 1.14.18 2.27.37 3.4.59-.11.34-.33 1-.44 1.33-1.94.27-4.14 1.39-5.93.02-2.05-1.57-2.98-4.18-5.05-5.74-1.89-1.58-4.37-2.05-6.66-2.78z"/>
    </g>
</svg>
