<svg width="128pt" height="128pt" viewBox="0 0 128 128" xmlns="http://www.w3.org/2000/svg">
    <g fill="#fff">
        <path d="M68.66 68.18c2.19.22 4.32.77 6.43 1.34.03 3.58-.2 7.16-.8 10.69-1.85 4.39-3.66 9.71-8.51 11.58-2.13 1.2-4.51 0-6.3-1.26-5.02-4.17-6.52-10.99-7.23-17.17.67.22 2.02.65 2.7.87l-1.19.53c1.74 1.46 3.87 1.92 6.08 1.97-.3-1.4.78-3.09-.17-4.3-1.71-.65-3.45.1-5.01.8-1.16-.04-2.08-.48-2.76-1.32l-.35-.58-.39-.03c.23 8.01 1.2 16.67 6.62 22.99 2.53 2.71 2.91 7.14.17 9.83-.51-2.5.29-5.46-1.33-7.63-1.76-2.85-4.83-5.01-5.24-8.55-.64-3.89-1.11-7.91-.53-11.83-2.08 3.94-1.1 8.87-.31 13.06-.49-.12-1.49-.36-1.99-.49.53-3.27.45-6.58.24-9.87.97-2.64.8-5.47.59-8.21 2.85-1.73 6.32-1.83 9.52-2.41 1.58 1.58 3.19 3.14 4.84 4.66 1.67-1.53 3.35-3.05 4.92-4.67m-1.57 4.72c.13 1.27.23 2.54.3 3.82 1.22.04 2.43.09 3.65.14 1.27-1.25 2.45-2.6 3.6-3.97h-4.25l3.06-1.53c-2.16.33-4.4.48-6.36 1.54m-6.02 7.33c-1.64.88.72 2.88 1.69 3.35l-.13.52c-1.43-.14-2.64.35-3.62 1.46 1.15 3.34 5.51 2.45 8.16 1.89-1.63-.55-5.24.71-5.98-1.2 2.42-.83 5.12-.25 7.62-.78-1-.55-2.04-1.03-3.11-1.44.15-.5.45-1.5.6-1.99.24-.29.7-.87.93-1.15l-.64-.64-.77.27c-.32.34-.95 1.01-1.26 1.35-1.43-.01-2.35-1.01-3.49-1.64z"/>
        <path d="M72.05 90.99c3.73-6.46 4.4-14.16 4.02-21.47.81.41 2.44 1.25 3.25 1.67l-.77-.05c-2.26-.51-1.75 2.49-1.35 3.77.35 2.37.01 4.78-.05 7.16-.89 3.49-.75 7.31-2.85 10.41l-.49.01c-1.27 1.91-2.8 3.66-3.82 5.72-.35 2.13-.29 4.29-.38 6.43-.85-1.77-2.34-3.48-1.97-5.59.09-3.27 2.87-5.43 4.41-8.06z"/>
        <path d="M78.94 73.92c1.31 1.84.58 4.12.6 6.19-.34 4.78.9 9.64-.32 14.35-.76 1.92-1.84 3.7-2.67 5.59-.23 2.24.03 4.5.07 6.75-3.74-4.1-1.68-9.71 1.78-13.22 1.18-6.52-1.12-13.14.54-19.66zM47.52 89.66c-.55-4.83-.26-9.68.12-14.51.57 4.8.96 9.75-.12 14.51z"/>
        <path d="M76.52 90.62c.91-2.78.84-5.79 1.47-8.63-.54 3.8.85 8.25-1.3 11.77-1.71 2.84-3.97 5.79-3.4 9.32.68 2.85 2.85 5.03 4.03 7.68-2.33-1.59-4.31-3.61-6.22-5.66.12-2.71-.03-5.48.66-8.12 1.35-2.29 3.51-4 4.76-6.36zM50.01 98c-1.81-2.83-2.62-6.23-2.13-9.57 1.11 2.58 1.09 5.58 3.1 7.74 2.64 3.06 2.54 7.66-.24 10.62-.22-2.9 1.13-6.21-.73-8.79z"/>
        <path d="M49.51 91.55c.45-.8.9-1.59 1.35-2.39.39 3.57 4.08 5.4 5.09 8.69.39 2.39.46 4.81.48 7.23-2.02 2.02-3.94 4.18-6.41 5.68 1.39-2.56 3.43-4.81 4.21-7.66.64-4.49-2.9-7.83-4.72-11.55z"/>
    </g>
    <g fill="#3e3e3e">
        <path opacity=".24" d="M67.09 72.9c1.96-1.06 4.2-1.21 6.36-1.54l-3.06 1.53h4.25c-1.15 1.37-2.33 2.72-3.6 3.97-1.22-.05-2.43-.1-3.65-.14-.07-1.28-.17-2.55-.3-3.82m2.02 2.21c.21 3.26 3.06-1.59 0 0zM61.07 80.23c1.14.63 2.06 1.63 3.49 1.64l-.17.53c-.41.3-1.22.89-1.63 1.18-.97-.47-3.33-2.47-1.69-3.35z"/>
    </g>
    <path fill="#8c8c8c" opacity=".55" d="M77.2 74.91c-.4-1.28-.91-4.28 1.35-3.77 1.58 1.15.38 3.72-1.35 3.77z"/>
    <path fill="#ececec" opacity=".93" d="M56.78 74.82c.41.08 1.23.22 1.63.3l-.14.76c-.41-.08-1.22-.23-1.63-.31l.14-.75z"/>
    <path fill="#eee" opacity=".93" d="M69.11 75.11c3.06-1.59.21 3.26 0 0z"/>
    <path fill="#c6c6c6" opacity=".78" d="M64.56 81.87c.31-.34.94-1.01 1.26-1.35l.48 1.52c-.15.49-.45 1.49-.6 1.99-1.02.13-2.04.15-3.07.07l.13-.52c.41-.29 1.22-.88 1.63-1.18l.17-.53z"/>
    <path fill="#838383" opacity=".51" d="M65.82 80.52l.77-.27.64.64c-.23.28-.69.86-.93 1.15l-.48-1.52z"/>
</svg>
