<svg width="128pt" height="128pt" viewBox="0 0 128 128" xmlns="http://www.w3.org/2000/svg">
    <g fill="#fff">
        <path d="M61.8 17.03c.14-1.88 1.2-3.51 1.98-5.18 6.33 14.71 9.05 31.1 7.5 47.06-.71 1.9-1.02 3.91-1.56 5.87-1.75 2.11-3.98 3.79-5.83 5.82-2.06-1.86-4.09-3.76-6.18-5.59-3.74-15.08-1.54-30.87 3.08-45.49.7-.48 1.19-.26 1.47.67l.25-1.8c-.17-.34-.53-1.02-.71-1.36m-1.39 39.94c-.51 3.2.58 6.24 1.54 9.24.69.49 1.38.97 2.09 1.45 1.69-2.18 3.13-4.79 2.52-7.66-.96-8.88 2.43-18.8-2.76-26.85-4.63 7-3.47 15.87-3.39 23.82zM91.71 42.75c5.12-4.35 10.27-8.67 14.95-13.5.42 3.22.69 7.08-1.93 9.51-4.01 4.02-8.58 7.52-13.55 10.28.17-2.1.39-4.19.53-6.29zM20.74 29.13c4.84 4.74 9.82 9.33 15.1 13.6.24 2.14.46 4.3.36 6.46-5.03-3.27-10.13-6.65-14.09-11.22-2.14-2.45-1.42-5.89-1.37-8.84z"/>
        <path d="M63.34 34.11c3.49 4.11 3.09 9.87 3.07 14.92-.27 1.7.41 4.01-1.25 5.15-.31-.86-.92-2.58-1.23-3.44-1.35 1.65-2.16 3.56-1.64 5.78-2.27-1.75-1.3-4.98-1.66-7.47-.43-5.16.94-10.15 2.71-14.94zM91.68 49.08c4.9-2.3 9.85-4.56 14.43-7.48-.53 2.57-.34 6.21-3.2 7.45-3.91 1.99-8.18 3.09-12.25 4.68.43-1.53.72-3.09 1.02-4.65zM21.25 41.73c4.94 2.7 10.13 4.96 14.91 7.95.1.95.3 2.84.41 3.78-4.21-1.25-8.44-2.58-12.33-4.67-2.69-1.21-2.14-4.74-2.99-7.06zM36.93 43.88c4.16 2.98 8.18 6.15 12.65 8.68 2 .29 3.96-.08 5.74-1.05.28 2.64.41 5.29.59 7.94-4.01-3.96-8.98-6.73-13.03-10.63-.37.32-.74.65-1.11.98 4.92 3 9.37 6.7 13.82 10.35 1.2 1.74 1.12 4.01 1.78 5.98-3.17.99-6.77 1.02-9.35 3.39.73-1.88 1.33-4.04-.09-5.75-2.25-3.57-6.17-5.54-8.88-8.69-2.48-2.46-1.41-6.31-2.12-9.39 1.36 1.44 2.93 2.53 4.72 3.26-1.59-1.67-3.32-3.23-4.72-5.07zM80.67 50.68c3.29-1.92 6.04-4.6 9.35-6.48-1.05 1.92-2.85 3.57-5.06 4.01 1.89 1.64 3.27-.81 4.91-.99 1.39 4.23-1.02 8.82-4.93 10.72-1.35 1.62-2.78 3.55-5.09 3.61-.23 2.78-2.09 5.46-.29 8.16-2.47-2.59-6.22-2.54-9.4-3.63.44-1.95.7-3.98 1.53-5.82 4.02-3.59 8.88-6.25 12.53-10.19-2.15.65-3.77 3.15-6.12 2.88.1-1.28 1.72-1.59 2.57-2.27zM22.63 52.16c4.67.02 9.27.53 13.82 1.53.93.91 1.86 1.83 2.78 2.75-4.22 1.21-8.89 1.94-13.15.55-2.21-.55-2.46-3.17-3.45-4.83zM91.99 53.78c4.08-1.62 8.53-1.37 12.83-1.56-.93 1.57-1.19 3.74-2.86 4.78-4.2 1.27-8.61.45-12.88.05-.31-1.91 1.31-2.96 2.91-3.27z"/>
        <path d="M63.75 58.21c-1.49-.92-.97-3.45-.02-4.56 1.19.97 1.55 3.74.02 4.56zM29.8 59.71c3.32-1.08 6.77-1.76 10.2-2.41.59.45 1.77 1.36 2.36 1.82-3.4 1.7-6.58 4.05-10.4 4.71-2.23.23-4.22-1.06-6.13-2.02 1.32-.7 2.65-1.39 3.97-2.1z"/>
        <path d="M64.01 67.09c-2.38-2.67-4.59-6.85-2.38-10.24.7 1.37 1.43 2.74 2.18 4.09l1.4-3.12c2.53 2.59.42 6.72-1.2 9.27zM85.02 59.04c2.16-2.77 5.12-.92 7.85-.64 3.22.49 6.15 2.01 9.01 3.49-1.85.69-3.63 1.9-5.66 1.94-4.18-.27-7.58-2.98-11.2-4.79zM33.19 65.34c3.39-1.47 6.31-3.8 9.71-5.25.54.48 1.6 1.43 2.13 1.91-1.83 3.69-6.04 5.57-9.99 4.2l.26 1.22c-.64.08-1.29.11-1.94.11.39-.25 1.19-.75 1.59-1l-1.76-1.19zM82.12 62c.66-.5 1.98-1.5 2.63-2 3.23 1.94 6.48 3.84 9.82 5.59l-2.36.39c.5.57.99 1.16 1.47 1.76-1.1-.21-2.06-.8-3.07-1.25-3.71.97-6.36-1.97-8.49-4.49z"/>
    </g>
    <path fill="#fcfcfc" d="M72.33 51.49c1.52.89 3.21 1.3 4.97 1.19l.8.27c.11.28.35.84.46 1.12-2.51 1.27-4.5 3.29-6.72 4.96.09-2.52.13-5.04.49-7.54z"/>
    <g fill="#f9f9f9">
        <path opacity=".98" d="M45.6 62.66c1.13.95 2.12 2.05 3.1 3.16-1.75 2.32-4.31 3.28-7.15 2.57 1.27-1.97 2.7-3.82 4.05-5.73zM81.25 63.17c2.51.14 3.13 3.59 4.72 5.17-2.78.81-5.18-.12-7-2.24.69-1.03 1.46-2 2.28-2.93z"/>
    </g>
</svg>
