<svg width="128pt" height="128pt" viewBox="0 0 128 128" xmlns="http://www.w3.org/2000/svg">
    <path fill="#fff" d="M57.18 21.29c1.89-2.95 1.65-6.47 1.92-9.81 1.93 5.85.46 12.11 1.94 18.06 1.16 4.76.6 9.66.88 14.49 1.27 5.35.29 10.91 1.63 16.25-.75 1.03-1.44 2.12-2.37 3-2.49.75-5.33.72-7.41 2.48-2.43 1.81-2.78 5.38-1.73 8.05 2.25 4.8 7.17 7.72 12.17 8.94 4.45-.97 8.7-3.47 11.29-7.28 2.17-2.86 2.1-7.57-.91-9.83-2.69-2.5-7.66-.79-9.25-4.74.06-6.64.94-13.3 1.37-19.94-.78-7.09 1.93-13.92 1.56-20.98-.13-2.91.25-5.81 1.11-8.59.09 3.76.37 7.62 2.41 10.9 3.22 5.47 5.65 12.03 3.99 18.41-1.67 5.06-4.72 10.72-1.51 15.83-.25-2.18-1.12-4.35-.64-6.55 1.54-5.9 6.14-10.69 6.68-16.9.02-3.16-1.26-6.12-1.86-9.18 3.95 5.5 6.03 12.3 6.21 19.04.42 6.57-6.72 11.49-4.53 18.14.57-2.66.68-5.5 2.11-7.89 1.72-2.97 3.89-5.79 4.61-9.23 1.04-3.46-.28-6.96-.65-10.42 4.1 4.01 5.22 10 5.16 15.52-.31 5.65-4.28 10.1-5.99 15.32.12.04.34.12.46.16 1.43-4.24 6.15-5.64 8.43-9.24 1.28-1.99 1.73-4.36 2.55-6.55.99 4.15 1.92 8.86-.45 12.73-1.73 4.02-6.62 5.22-8.41 9.19 6.35 1.59 11.39-3.33 14.24-8.4 0 .48.01 1.44.02 1.92-2.03 3.8-3.5 8.41-7.5 10.61-2.24 1.64-5.6.08-7.39 2.53 2.01.14 4.03.12 6.05.09-1.07 3.28-2.41 6.66-5.05 9-2.52 2.28-6.11 2.91-8.52 5.31-1.86 2.26-1.95 5.28-2.15 8.06-2.54 2.93-4.48 6.27-5.85 9.88-2.55 1.85-5.66 3.67-8.94 3.18-2.27-.71-4.48-1.8-6.31-3.33-.89-2.12-1.51-4.41-3.1-6.14-.87-1.44-1.87-2.8-2.7-4.26-.11-2.82-.35-6.13-2.76-8.01-2.76-2-6.28-2.9-8.59-5.53-2.27-2.16-3.26-5.2-4.23-8.08 2-.02 4.01.01 6.01-.16-1.8-2.57-5.46-.9-7.79-2.68-4.03-2.99-6.07-7.9-7.56-12.54 2.44 2.65 4.23 6.11 7.64 7.67 2.16 1.25 4.75 1.06 7.14.9-1.77-3.9-6.55-5.06-8.35-8.94-2.37-3.93-1.87-8.83-.26-12.94.57 4.05 2.44 7.94 5.91 10.26 2.43 1.54 4.21 3.74 5.38 6.35-1.25-6.11-6.48-10.91-6.18-17.39.17-5.17 1.28-10.76 5.25-14.41-.49 3.41-1.73 6.89-.68 10.33.65 3.38 2.72 6.18 4.49 9.04 1.41 2.29 1.62 5.05 2.13 7.63 2-5.43-3.29-9.58-4.05-14.69-1.31-7.73 1.62-15.6 5.7-22.07-.55 3.64-2.39 7.19-1.54 10.92 1.1 5.06 4.54 9.15 6.1 14.04.91 2.53.08 5.21-.04 7.8 2.82-5.52-.37-11.31-1.9-16.68-1.4-6.56 1.37-13.07 4.61-18.65M42.33 78.7c3.05.97 4.19 3.79 5.74 6.25 3.15 2.4 6.01 5.32 9.78 6.76-1.87.88-1.35 2.96-1.49 4.64 3.57-.09 5.16 4.38 8.63 3.79 2.16-1.51 4.11-3.39 6.83-3.84-.02-1.66-.11-3.34-1.18-4.69 3.17-1.32 5.54-3.85 8.38-5.69 1.72-1.16 2.4-3.21 3.21-5.01 1.24-.72 2.5-1.42 3.73-2.16-3.98-.42-8.23 1.63-9.69 5.51-1.2 3.5-4.44 5.42-7.71 6.64-.06.33-.18.99-.23 1.31.47.68 1.42 2.03 1.89 2.71-2.22 1.13-4.28 2.53-6.33 3.92-.91-.72-1.8-1.45-2.69-2.18-1.01-.54-2.02-1.08-3.02-1.63.55-1.35 1.23-2.64 1.9-3.94-2.42-1.19-5.31-2.01-6.84-4.41-1.54-2.11-2.24-4.94-4.61-6.33-1.85-1.28-4.09-1.71-6.3-1.65m14.78 26.26c3.95 3.51 10.6 3.5 14.41-.23-4.51 2.54-9.82 2.62-14.41.23z"/>
</svg>
