<svg width="128pt" height="128pt" viewBox="0 0 128 128" xmlns="http://www.w3.org/2000/svg">
    <path fill="#380b0b" opacity=".58" d="M38.59 53.18c1.78-2.3 4.99-1.05 7.46-1.5 10.6-1.2 21.35-1.63 31.96-.2 3.03.59 6.47-.44 9.19 1.34-10.05-.19-20.06-2.28-30.12-1.29-6.16.54-12.34.92-18.49 1.65z"/>
    <path fill="#9c2021" d="M38.59 53.18c6.15-.73 12.33-1.11 18.49-1.65 10.06-.99 20.07 1.1 30.12 1.29.67.19 2.02.57 2.69.75-.6 2.62-1.16 5.25-1.77 7.87-12.24-2.37-24.77-1.75-37.16-1.56-4.38.02-8.67 1.04-12.99 1.6-.6-2.61-1.23-5.23-1.53-7.89.54-.1 1.61-.31 2.15-.41z"/>
    <path fill="#1f0606" opacity=".57" d="M89.89 53.57c.82 3.93-.71 9.32-5.55 9.33-8.18-2.66-16.86-1.8-25.32-1.95-5.59-.13-11.19.31-16.61 1.77-1.57.03-2.99-.75-4.44-1.24 4.32-.56 8.61-1.58 12.99-1.6 12.39-.19 24.92-.81 37.16 1.56.61-2.62 1.17-5.25 1.77-7.87z"/>
    <g fill="#9f2021">
        <path d="M42.41 62.72c5.42-1.46 11.02-1.9 16.61-1.77 8.46.15 17.14-.71 25.32 1.95.59.23 1.77.7 2.36.94-2.57 4.15-5.62 8.49-10.36 10.31-2.72.8-5.57 1.13-8.39.79-5.02-.56-10.04.12-15.06.26-5.6-1.65-10.6-5.79-12.65-11.26.54-.31 1.63-.92 2.17-1.22zM54.85 77.45c5.47-.98 11.66-2.03 16.87.39l-1.47.52c-.43.36-1.28 1.08-1.71 1.44-2.94 4.87.24 10.38.9 15.45-4.17.18-8.35.19-12.52.05.77-5.24 4.49-11.91.16-16.41-.56-.36-1.68-1.08-2.23-1.44zM55.15 97.11c5.16-.42 10.39.46 15.56-.31l.86-.08.14.64c.52 2.51 1.03 5.02 1.5 7.53-6.73.96-13.67 1.2-20.31-.54.73-2.42 1.32-4.89 2.25-7.24z"/>
        <path d="M49.2 105.56c9.16 1.31 18.52 2.1 27.62-.09 2.48 2.74 5.58 5.54 6.05 9.42-3.63 1.99-7.97 1.94-11.97 2.64-9.16.61-18.61.44-27.43-2.38.42-3.87 3.39-6.72 5.73-9.59z"/>
    </g>
    <path fill="#220607" opacity=".55" d="M52.89 75.2c5.02-.14 10.04-.82 15.06-.26 2.82.34 5.67.01 8.39-.79-1.36.93-2.89 1.58-4.45 2.1.02.63.08 1.88.11 2.51l-1.75-.4 1.47-.52c-5.21-2.42-11.4-1.37-16.87-.39l-.16-1.18c-.45-.27-1.35-.81-1.8-1.07z"/>
    <path fill="#220706" opacity=".51" d="M57.08 78.89c4.33 4.5.61 11.17-.16 16.41 4.17.14 8.35.13 12.52-.05-.66-5.07-3.84-10.58-.9-15.45-1.1 5.78.8 11.44 2.17 17-5.17.77-10.4-.11-15.56.31-.93 2.35-1.52 4.82-2.25 7.24 6.64 1.74 13.58 1.5 20.31.54-.47-2.51-.98-5.02-1.5-7.53 2.08 1.66 1.52 4.83 2.41 7.15.9.32 1.8.63 2.7.96-9.1 2.19-18.46 1.4-27.62.09 1.05-.53 2.19-.85 3.34-1.12.91-2.97.23-7.14 3.56-8.7.71-5.61 3.71-11.33.98-16.85z"/>
</svg>
