<svg width="128pt" height="128pt" viewBox="0 0 128 128" xmlns="http://www.w3.org/2000/svg">
    <g fill="#fff">
        <path d="M41.12 52.58c7.28-.33 14.52-1.53 21.83-1.41 7.39-.23 14.69 1.1 22.06 1.36 1.51.12 2.95.63 4.41 1.02.51 2.71-.69 5.29-1.2 7.9-2.46.32-4.79-.58-7.16-1.03-11.67-.86-23.41-.87-35.08-.07-2.66.32-5.29 1.63-7.99.87-.45-2.53-1.37-5.03-1.13-7.64 1.42-.32 2.81-.83 4.26-1z"/>
        <path d="M39.83 63.85c8.11-4.01 17.45-2.86 26.2-3.11 6.86.28 14.43-.42 20.51 3.33-3.64 5.99-9.57 11.88-17.13 11.21-4.81-1.1-9.64-.16-14.47.1-6.83-.65-11.75-5.97-15.11-11.53zM50.47 105.25c8.36 2 17.28 2.43 25.58-.1 3.02 2.65 6.12 5.82 6.81 9.94-11.64 3.42-24.08 3.35-35.91.99-1.36-.3-2.6-.96-3.68-1.82 2-3.27 3.86-6.91 7.2-9.01z"/>
    </g>
</svg>
