<svg width="128pt" height="128pt" viewBox="0 0 128 128" xmlns="http://www.w3.org/2000/svg">
    <g fill="#fff">
        <path d="M63.13 41.92c.1-1.26.21-2.52.31-3.78.85.95 1.71 1.91 2.55 2.87.29-.93.86-2.79 1.15-3.73.88 1.25 1.73 2.52 2.52 3.82.79-1.12 1.59-2.23 2.4-3.34l.64 4.12c.76-.78 1.53-1.55 2.3-2.32.39 1.92.6 3.86.87 5.8 1.12-.83 2.25-1.65 3.38-2.45-.14 2.16-.57 4.3-1.13 6.39l2.64-1.76c-.21 1.11-.63 3.32-.85 4.42l2.75-.84c-.6 1.91-1.28 3.79-2.09 5.63.57.01 1.69.04 2.26.05-.81 1.07-1.63 2.13-2.45 3.19.71.05 2.14.14 2.85.18-1.3 1.41-2.58 2.82-3.91 4.2.71.46 1.41.92 2.12 1.39-.82.42-2.45 1.26-3.26 1.68.45.5 1.34 1.51 1.79 2.01-1.7.36-3.41.62-5.13.85.41.6 1.22 1.79 1.63 2.38-1.04.06-3.14.16-4.18.22.68 1.07 1.38 2.13 2.08 3.2-.98-.07-2.95-.22-3.93-.29.24.65.73 1.95.97 2.6-1.05-.28-3.14-.84-4.18-1.12-.95.77-1.89 1.53-2.83 2.3 2.73 1.59 4.81 3.94 6.66 6.46 1.31 1.97 3.88 1.41 5.88 1.53-.15-.57-.47-1.71-.63-2.28 2 .25 4 .48 6.01.61-.37-.87-.74-1.75-1.1-2.62l2.4.32c3.55 3.4 6.63 7.37 7.91 12.2 3.79-.65 5.3-4.43 6.28-7.68.2-3.96-.97-7.85-.94-11.81 1.04-3.66 2.67-7.75 6.28-9.53 1.66-.19 3.33-.1 5-.1 1.42.96 2.99 1.77 4.13 3.08 1.02 1.98 1.32 4.24 2.06 6.33 0 2.64-.58 5.21-1.15 7.77-2.53 2.26-4.61 5.01-7.49 6.88.24-.96.71-2.89.95-3.86-.47.2-1.41.59-1.88.78 1.27-2.85 2.2-5.95 4.36-8.28.63-.26 1.9-.78 2.53-1.03-.03-2.95-.06-6.35-2.49-8.43-2.46-2.47-7.23-1.47-8.27 1.94-2.88 5.43.58 11.29-.39 16.95-1.38 5.17-4.5 10.56-10.17 11.7-.91 1.73-1.88 3.41-2.84 5.1.78.63 1.57 1.25 2.36 1.87 0 1-.01 2-.01 3-7.97 1.01-16.06-.63-23.97.89-2.85.03-5.64-.85-8.49-.93-.25-2.35 1.71-3.81 3.2-5.27 1.72.57 3.47 1.57 5.33.97 3.32-1.06 6.8-.58 10.2-.99-3.34-1.27-7.34-1.7-9.8-4.57-1.63-1.7-1.14-4.27-1.23-6.42-2.75-.62-5.56-.86-8.33-1.35.24.85.73 2.55.97 3.4-2.37 2.79-4.79 5.58-6.58 8.8.86 1.85 2.67 3.03 3.83 4.68-2.41.21-4.6-1.04-6.95-1.3-4.93-.37-9.78.97-14.44 2.42l-.53-1.59c-.73.5-2.18 1.5-2.91 2-.98-2.59 1.58-3.2 3.15-3.98 4.99-.16 11.31.29 14.67-4.19 1.5-3.25 4.8-6.23 3.65-10.14-1.02-3.05-1.55-6.2-1.46-9.43l2.11 1.95c-.16-2.07-.27-4.14-.33-6.22.9.9 1.8 1.81 2.7 2.71-.81-6.26 3.32-12 8.57-14.92 5.24-.9 9.97-5.47 10.04-10.97.45-3.78-1.55-7.57-4.61-9.7-3.38-1.86-7.04.75-10.56.25.14-2.12 2.1-3.49 2.93-5.34.53.17 1.59.51 2.12.67z"/>
        <path d="M25.28 73.7c2.37.97 5.1 2.39 5.27 5.32-.32.82-.98 2.46-1.3 3.28 2.41 1.97 5.36 3.01 8.19 4.19.75-.77 1.5-1.54 2.24-2.31.64.4 1.92 1.21 2.56 1.62-1.25 1.5-2.48 3.02-3.7 4.53-2.84-1.66-5.69-3.33-8.8-4.43-.18 2.6-1.62 4.7-4.12 5.57.38-1.03.78-2.06 1.19-3.08-.69-2.01-.3-4.67-2.3-5.98-2.22-2.3-5.41-.72-8.07-.49 1.98-2.74 5.42-2.89 8.49-2.82-1.89-1.44-4.03-2.57-5.71-4.29 3.65-.02 6.62 2.04 9.23 4.34-.77-1.98-2.05-3.67-3.17-5.45z"/>
    </g>
</svg>
