<svg width="128pt" height="128pt" viewBox="0 0 128 128" xmlns="http://www.w3.org/2000/svg">
    <g fill="#fff">
        <path d="M37 16.74c9.98-1.41 17.46 6.45 25.71 10.5-3.31-3.56-7.94-5.44-11.37-8.87 2.49-.78 5.2-.47 7.42.9 6.44 3.69 13.11 7.11 18.73 12.04-1.19-2.32-2.6-4.51-4.28-6.5-1.32-.64-2.6-1.32-3.86-2.06 6.96-1.8 10.51 5.31 13.9 9.88-.89-3.73-3.29-6.73-5.5-9.74 2.21.62 4.54 1.49 6.19 3.15 2.43 3.15 2.87 7.3 5.06 10.6.02-3.8-2.23-6.91-3.69-10.24 3.78-.19 6.13 3.19 7.07 6.42 1.34 2.84.62 6.04 1.09 9.05 1.09-2.63.78-5.54 1.34-8.28 4.19 4.4 3.43 10.65 3.45 16.2 1.14-2.68 1.72-5.53 2.51-8.31 2.32 1.29 1.43 4.19 1.46 6.34-.22 3.92-2.37 7.33-4.95 10.16 1.67-.99 3.36-1.95 5.09-2.83.7 3.37-2.12 5.42-4.26 7.42l2.97-.96c-.2 2.35-1.48 4.11-3.51 5.22.19.5.57 1.49.76 1.98-1.12 1.12-2.26 2.2-3.45 3.24-.13 3.44-4.03 4.01-6.69 4.5.57.37 1.72 1.12 2.3 1.49-1.99 1.02-4.17 1.53-6.34 1.95 1.4.64 2.8 1.29 4.17 1.98-2.09 1.34-4.53 1.69-6.96 1.54.15.61.45 1.83.59 2.44-1.92-.18-3.85-.38-5.77-.58.25.58.74 1.74.98 2.31-2.08-.19-4.71.32-6.21-1.54-1.92-2.41-3.88-4.83-6.59-6.4.94-.82 1.89-1.64 2.84-2.46 1.05.28 3.16.83 4.22 1.11-.25-.65-.76-1.94-1.01-2.59.99.07 2.98.22 3.97.29-.71-1.06-1.41-2.13-2.1-3.19 1.04-.06 3.13-.17 4.18-.23-.41-.6-1.23-1.82-1.64-2.42 1.74-.17 3.47-.42 5.17-.84-.46-.5-1.38-1.48-1.84-1.97.82-.42 2.47-1.25 3.29-1.66l-2.16-1.44c1.37-1.33 2.65-2.75 3.94-4.16l-2.83-.24c.82-1.04 1.64-2.09 2.45-3.14l-2.23-.04c.79-1.86 1.46-3.78 1.95-5.74-.67.27-2.02.82-2.69 1.1.21-1.14.64-3.42.85-4.57-.66.45-1.98 1.35-2.64 1.79.62-2.09 1.05-4.23 1.17-6.41l-3.41 2.45c-.24-1.95-.42-3.9-.75-5.84-.81.76-1.61 1.53-2.4 2.31-.18-1.34-.39-2.67-.64-4-.83 1.11-1.63 2.22-2.41 3.36-.74-1.37-1.57-2.68-2.51-3.92-.39 1.25-.76 2.5-1.12 3.75-.85-.97-1.7-1.93-2.56-2.89l-.32 3.7-2.26-.67c-.68 1.65-1.81 3.04-2.98 4.37-3.49-1.39-6.42-3.78-9.41-5.98-4.69-3.39-10.27-5.14-15.3-7.92-3.58-1.92-7.56-2.9-11.22-4.66-2.71-1.39-6.13-1.62-8.12-4.16 3.78-2.1 8-.45 11.99-.21 5.96.96 11.41 3.78 17.23 5.3-5.54-3.71-12.07-5.53-18.12-8.22 4.14-2.95 9.64-1.43 14.03.12 3.45.87 6.43 2.9 9.74 4.14-3.15-3.55-8.35-4.12-11.71-7.22z"/>
        <path d="M46.83 49.07c1.56-1.05 3.39-1.77 5.29-1.2 2.92.65 6.72.54 8.34 3.56 1.53 4.29 2.77 8.7 5.13 12.63-.54-.1-1.62-.31-2.16-.42-.08 1.22-.26 2.42-.46 3.62-5.27 2.7-9.1 8.58-8.31 14.67-.91-.92-1.83-1.82-2.74-2.73.07 2.06.19 4.12.36 6.18-.54-.47-1.63-1.42-2.18-1.89 0 3.41.44 6.81 1.83 9.95-3.82-3.03-7.66-6.04-11.62-8.89-1.12-1.97-2.17-3.99-2.49-6.27-.8.1-1.6.21-2.39.31 1.33-1.14 2.1-2.7 2.79-4.27-.83.18-2.48.55-3.31.73 1.65-1.59 3.34-3.15 4.9-4.84-.76-.01-2.27-.02-3.03-.03 3.07-1.44 5.45-3.87 7.95-6.09l-2.8-.08c2.86-1.41 5.13-3.69 6.55-6.55-1.92-1.46-3.9-2.86-5.72-4.45-1.42.24-2.84.5-4.25.77.7-3.97 4.88-4.89 8.32-4.71z"/>
    </g>
</svg>
