<svg width="128pt" height="128pt" viewBox="0 0 128 128" xmlns="http://www.w3.org/2000/svg">
    <path fill="#b02321" d="M59.14 21c1.34-1.73 3.2-2.95 4.88-4.31 1.69 1.39 3.55 2.64 4.9 4.39.4.94 1.04 1.65 1.93 2.15 2.49 2.46 3.26 6.05 4.93 9.04 1.91 4.05 5.28 7.43 6.2 11.91.25.47.75 1.4 1 1.86 2.56 4.11 4.75 8.44 7.31 12.55 1.11 1.58 1.28 3.54 1.63 5.38-1.98 2.59-4.07 5.15-5.55 8.08-.65 1.84.66 3.65 1.09 5.41l3.09 1.35c-.2 1.2-.07 2.59-1.06 3.5-3.15 3.77-7.19 6.67-10.39 10.41.04-3.49 3.01-5.6 5.29-7.78-.46-3.02-1.13-5.99-2.01-8.91.35-2.46 1.58-4.68 2.41-6.99-1.57-1.93-3.29-3.77-4.65-5.86-.43-.31-1.28-.93-1.71-1.24-.46-.21-1.38-.64-1.84-.86-7.69-4.35-17.7-4.29-25.37.09-.41.19-1.23.57-1.65.76-.43.32-1.28.94-1.71 1.25-1.36 2.08-3.06 3.91-4.62 5.84 1.15 2.99 2.22 6 3.23 9.03-.8-1.07-2.39-3.21-3.19-4.28-2.37-3.29-4.73-6.59-7.2-9.81.26-7.18 6.31-11.71 8.93-17.92.25-.47.76-1.39 1.01-1.86 1.41-5.02 5.23-8.9 7.19-13.69 1.13-2.53 1.87-5.44 4.04-7.33.88-.5 1.51-1.22 1.89-2.16z"/>
    <g fill="#120303">
        <path opacity=".38" d="M57.25 23.16c-.55-1.75.08-2.47 1.89-2.16-.38.94-1.01 1.66-1.89 2.16zM68.92 21.08c1.82-.31 2.46.4 1.93 2.15-.89-.5-1.53-1.21-1.93-2.15z"/>
    </g>
    <path fill="#4a0e0d" opacity=".75" d="M45.11 44.26l.91-.08c-.25.47-.76 1.39-1.01 1.86l-.43-.83.53-.95z"/>
    <path fill="#4d0f0d" opacity=".75" d="M81.98 44.18l.91.08.52.96-.43.82c-.25-.46-.75-1.39-1-1.86z"/>
    <path fill="#080101" opacity=".26" d="M51.22 61.17c7.67-4.38 17.68-4.44 25.37-.09-.71 1.29-1.42 2.57-2.13 3.86.07-.45.2-1.33.27-1.77-2.31-1.27-4.82-2.09-7.37-2.72-2.31-.42-4.68-.38-7.03-.46l-.09.54c-1.96.58-3.91 1.21-5.85 1.89-.2.58-.61 1.75-.82 2.33-.84-1.15-1.57-2.38-2.35-3.58z"/>
    <path fill="#210607" opacity=".57" d="M60.33 59.99c2.35.08 4.72.04 7.03.46-.34 3.17-.49 6.35-.93 9.51-.43-2.86.11-5.9-.84-8.65-1.33-.8-2.72-.2-4.02.32.32 2.75.32 5.54.08 8.3-.53-3.3-.84-6.63-1.32-9.94z"/>
    <path fill="#ad2021" d="M54.39 62.42c1.94-.68 3.89-1.31 5.85-1.89l.09-.54c.48 3.31.79 6.64 1.32 9.94.24-2.76.24-5.55-.08-8.3 1.3-.52 2.69-1.12 4.02-.32.95 2.75.41 5.79.84 8.65.44-3.16.59-6.34.93-9.51 2.55.63 5.06 1.45 7.37 2.72-.07.44-.2 1.32-.27 1.77-1.22 1.77-3.13 3.09-3.96 5.11-.32 2.47-.24 4.98-.28 7.47.29-1.43.45-2.9.81-4.32 2.09-2.32 4.87-3.89 7.17-6l-.25 1.16c-.28 1.02-.01 1.91.82 2.66 1.23 1.72 3 3.98 1.53 6.11-1.38 1.45-3.14 2.45-4.8 3.54-1.61 3.98-.9 8.35-1.92 12.47.61-.22 1.82-.66 2.42-.88-.82 4.58-3.17 8.65-4.91 12.91-1.02 2.59-2.98 4.6-4.74 6.68.73-2.91 1.25-5.87 1.58-8.85-.52-.16-1.56-.47-2.08-.63-.13-2.71-.33-5.42-.45-8.13 4.81-3.84 2.33-10.26 3.79-15.42-1.18 3.02-1.59 6.26-2.16 9.43-.32-.96-.94-2.89-1.26-3.85-.25 2.31-.51 4.62-.82 6.92-3.28-.82-2.13-4.73-2.79-7.2l-1.04 4.09-1.52-5.6c-.83 4.22-.34 8.72 3.01 11.63-.13 2.74-.34 5.47-.49 8.21-.51.12-1.54.38-2.05.51.33 3 .85 5.96 1.58 8.88-1.76-2.08-3.73-4.08-4.74-6.66-1.74-4.27-4.09-8.34-4.92-12.92.61.22 1.82.65 2.43.87-1.02-4.11-.3-8.48-1.92-12.45-2.37-1.34-4.53-3.05-5.88-5.46.88-1.41 1.72-2.85 2.67-4.22.79-.77 1.05-1.66.77-2.69l-.22-1.08c2.29 2.06 4.99 3.67 7.12 5.92.37 1.43.53 2.9.83 4.35-.12-2.63.16-5.34-.44-7.92-.96-1.75-2.55-3.04-3.91-4.45l.13-.38c.21-.58.62-1.75.82-2.33z"/>
    <g fill="#3e0b0b">
        <path opacity=".65" d="M47.86 63.18c.43-.31 1.28-.93 1.71-1.25l.04.94-.89.63-.86-.32zM78.43 61.94c.43.31 1.28.93 1.71 1.24l-.86.33-.88-.64.03-.93z"/>
    </g>
    <g fill="#260606">
        <path opacity=".5" d="M49.29 71c-1.12-1.34-.86-2.23.77-2.69.28 1.03.02 1.92-.77 2.69zM77.95 68.36c1.63.42 1.91 1.31.82 2.66-.83-.75-1.1-1.64-.82-2.66z"/>
    </g>
    <path fill="#ad2121" d="M41.05 72.46c.55.32 1.67.98 2.23 1.31.47 2.1 1.78 3.93 2.04 6.07-.28 1.72-.85 3.38-1.09 5.11 1.73 2.28 3.75 4.37 5.02 6.97-2.85-2.14-5.9-4.16-8.12-6.99-.43-.93-1.1-1.63-2.01-2.09-4.75-3.25 1.96-6.6 1.93-10.38z"/>
    <path fill="#1a0505" opacity=".44" d="M39.12 82.84c.91.46 1.58 1.16 2.01 2.09-1.8.37-2.46-.32-2.01-2.09z"/>
</svg>
