<svg width="128pt" height="128pt" viewBox="0 0 128 128" xmlns="http://www.w3.org/2000/svg">
    <path fill="#fff" d="M53.04 63.54c2.38-1.47 4.88-2.96 7.79-2.86.06 3.16.35 6.3 1.22 9.35l-.73 1.07c.44.17.88.33 1.33.49-.71-3.59-.89-7.25-.84-10.9 1.47 0 2.93 0 4.4.01.03 3.78-.49 7.53-.83 11.29.15.23.46.69.61.93.14-.24.41-.72.55-.95-.04-3.77.33-7.52.64-11.26 2.96-.17 5.48 1.39 7.85 2.96-1.35 3.04-5.25 4.7-5.02 8.42.1 1.74-1.12 4.45 1.07 5.31l-.72-3.47c2.05-2.62 5.47-3.81 7.31-6.65.41 2.93 1.9 5.5 3.48 7.94-1.09 2.44-3.28 3.98-5.55 5.23-.52 1.31-1.03 2.62-1.58 3.92-.79.56-2.24.57-2.63 1.5.83 1.4 2.02-.01 2.81-.63.92 2.84-1.26 5.72-.34 8.44 2.4-.4 2.39-3.81 3.76-5.55-3.02 8.14-5.34 16.9-11.11 23.61.94-5 1.94-9.99 4.21-14.59-2.02 1.65-2.09 4.55-3.9 6.38-1.15-2.98-1.04-6.22-1.34-9.34 5.42-3.75 1.81-11.01 4.42-16.16-2.07 2.12-2.09 5.12-2.53 7.87-.49-.18-1.49-.53-1.99-.71.1 2.41-.44 4.78-1.53 6.93-.45-1.41-.74-2.84-.87-4.3-.03-1.2-.06-2.4-.07-3.59-.49.35-1.48 1.07-1.97 1.42-.38-1.83-.72-3.67-1.03-5.51-.66-.71-1.32-1.41-1.98-2.11 1.31 3.92.8 8.1 1.57 12.12.69 1.56 1.55 3.09 3.02 4.05-.32 3.13-.15 6.4-1.4 9.36-1.67-1.91-1.84-4.76-3.86-6.39 2.31 4.56 3.21 9.57 4.28 14.52-5.84-6.62-8.18-15.41-11.09-23.55.95 1.9 1.81 3.85 2.63 5.82 3.33-1.77-.77-5.92.72-8.69.79.58 1.56 1.34 2.63 1.19-.82-.9-1.67-1.76-2.65-2.47-.46-1.18-.91-2.36-1.36-3.54-2.27-1.24-4.48-2.78-5.57-5.23 1.58-2.43 3.06-5.01 3.49-7.93 1.86 2.82 5.2 4.06 7.32 6.61-.18.86-.55 2.6-.74 3.47 2.24-.79.93-3.61 1.06-5.33.3-3.79-3.91-5.26-4.94-8.5z"/>
    <path fill="#6e6e6e" opacity=".43" d="M57.93 78.03c.66.7 1.32 1.4 1.98 2.11.31 1.84.65 3.68 1.03 5.51.49-.35 1.48-1.07 1.97-1.42.01 1.19.04 2.39.07 3.59-.86-.16-2.58-.48-3.45-.64-.01.74-.02 2.23-.03 2.97-.77-4.02-.26-8.2-1.57-12.12z"/>
    <path fill="#171717" opacity=".09" d="M53.24 106.45c1.97-1 2.94 3.3.84 3.53-1.42-.37-1.76-2.52-.84-3.53z"/>
</svg>
