<svg width="128pt" height="128pt" viewBox="0 0 128 128" xmlns="http://www.w3.org/2000/svg">
    <path fill="#b02121" d="M82.48 31.49c3.36-3.3 7.8-5.65 12.53-6.1 2.06-.31 3.58 1.31 4.97 2.56 4.46 3.95 7.93 8.86 11.32 13.72 3.77 5.32 2.65 12.43.44 18.14-4.35 8.2-13.15 12.22-19.67 18.35-.95.68-1.89 1.37-2.83 2.06 1.84-4.23 4.51-8.01 7.81-11.23 4.58-5.18 8.98-12.15 7.05-19.32-.28-.45-.83-1.36-1.11-1.81-2.22-2.26-3.86-5-5.78-7.5-1.59-.04-3.21-.22-4.78.08-3.01 1.71-5.59 4.08-8.58 5.84-.45-1.3-.91-2.59-1.38-3.88l.36 2.75c-.95.68-1.88 1.38-2.76 2.16 1.02 1.83 2.28 3.59 2.78 5.65-.2 1.78-.84 3.46-1.31 5.17.69 1.05 1.38 2.1 2.07 3.16-1.39 3.01-4.15 4.85-6.93 6.44-1.4 4.31-1.11 8.87-1.34 13.33.4.51 1.22 1.53 1.63 2.04-2.44 7.06-5.11 14.37-10.29 19.93.83-3.95 1.55-7.92 2.34-11.88-.54.68-1.63 2.04-2.17 2.72-.91-3.49-1.3-7.09-1.38-10.69.45-.47 1.36-1.41 1.81-1.87 3.23-4.37 1.33-10.11 2.31-15.09l2.15.72c-.58-.42-1.18-2.09-2.02-1.2-1.81 2.79-1.65 6.34-2.44 9.47-.34-.91-1.01-2.73-1.35-3.64-.5 3.03-1.16 6.03-2.06 8.97-.89-2.96-1.49-5.99-1.91-9.05-.55 1.27-1.1 2.55-1.64 3.82-.41-3.99-1.3-7.94-3.35-11.43 1.52 4.66 1.6 9.56 1.91 14.4.84 1.89 2.16 3.5 3.47 5.08-.18 3.6-.53 7.24-1.77 10.65-1.1-2.93-2.56-5.74-4.64-8.09.77 2.41 1.73 4.76 2.88 7.02l.68 1.61c0 1.38 0 4.13-.01 5.5-1.77-1.9-3.32-4-4.54-6.3-2.18-4.7-4-9.55-5.44-14.52 1.05 1.1 2.09 2.23 3.13 3.35-.42-4.14-.09-8.37-.93-12.45-.78-3.94-5.72-4.55-7.2-8.07.47-2.09 1.66-4.16.75-6.3-1.3-3.09.93-5.91 1.82-8.75-5.34-.75-8.89-5.16-13.86-6.78-1.67 2.12-3.4 4.2-5.13 6.28-1.44 2.11-4.34 4.11-3.45 7 .55 2.59 1.52 5.08 2.34 7.59l-.03-.46c3.28 7.01 10 11.59 13.16 18.67-2.16-1.59-4.29-3.21-6.43-4.81-6.91-4.94-15.21-10.33-16.81-19.32-.79-4.01-1.16-8.57 1.09-12.2 2.64-4.68 6.77-8.23 9.91-12.53 1.43-1.11 2.88-2.19 4.34-3.27 2.9.18 5.83-.1 8.72.23 3.82 2.2 7.5 4.68 11.45 6.66.01.49.03 1.48.03 1.97 1.36.49 2.7 1.02 4.03 1.58 2.09-1.78 3.35-4.4 5.65-5.93 1.84-1.05 3.67.14 5.38.82.34 1.03.68 2.05 1.02 3.07 1.83 1.26 3.93 1.27 5.91.34.74.28 1.48.57 2.22.86 1.45-2.27 3.99-3.43 5.86-5.29M65.51 54.16c.34-6.56-.1-13.15-1.06-19.64-2.21 6.43-1.24 13.38 1.06 19.64m13.01-5.44l-.04 3.26c-.32.43-.98 1.28-1.31 1.71-2.22 1.95-2.46 5.07-3.2 7.75 1.09-1.09 2.15-2.19 3.19-3.32l-.86.41c1.46-.72 2.9-1.49 4.34-2.26.3-2.74-.84-5.22-2.12-7.55m-30.28 4.06L46.2 54.9c1.55 1.88 3.19 3.68 4.86 5.46.12 1.14.83 1.63 2.11 1.47 1.43-.14 1.51-2.65-.04-2.56-.78-2.29-1.22-5.09-3.36-6.56l.39-.58c-.37-.46-1.1-1.37-1.47-1.82-1.34.58-1.49 1.41-.45 2.47m22.84 9.05c-1.64 2.93 3.32.27 0 0z"/>
    <path fill="#801819" opacity=".9" d="M65.51 54.16c-2.3-6.26-3.27-13.21-1.06-19.64.96 6.49 1.4 13.08 1.06 19.64z"/>
    <g fill="#060103">
        <path opacity=".38" d="M24.64 53.51c-.89-2.89 2.01-4.89 3.45-7-.96 2.1-2.38 4.09-2.66 6.43 1.29 5.22 3.51 10.43 7.37 14.29 4.05 4.19 7.97 8.86 9.24 14.71-3.56-1.49-6.58-3.99-8.36-7.44 2.14 1.6 4.27 3.22 6.43 4.81-3.16-7.08-9.88-11.66-13.16-18.67l.03.46c-.82-2.51-1.79-5-2.34-7.59zM56.97 63.88c2.05 3.49 2.94 7.44 3.35 11.43.54-1.27 1.09-2.55 1.64-3.82.42 3.06 1.02 6.09 1.91 9.05.9-2.94 1.56-5.94 2.06-8.97.34.91 1.01 2.73 1.35 3.64.79-3.13.63-6.68 2.44-9.47.84-.89 1.44.78 2.02 1.2l-2.15-.72c-.98 4.98.92 10.72-2.31 15.09.44-2.12.85-4.24 1.21-6.38-2.12 1.54-3.42 3.8-4.48 6.13-1.21-2.04-2.53-4.01-3.89-5.95l-1.24 3.17c-.31-4.84-.39-9.74-1.91-14.4z"/>
    </g>
    <path fill="#3a0b0b" opacity=".62" d="M102.99 47.86c.28.45.83 1.36 1.11 1.81l-.92-.05-.57-.92.38-.84z"/>
    <path fill="#190405" opacity=".49" d="M48.24 52.78c-1.04-1.06-.89-1.89.45-2.47.37.45 1.1 1.36 1.47 1.82l-.39.58c-.39.01-1.15.05-1.53.07z"/>
    <path fill="#4a0e0e" opacity=".7" d="M73.97 61.44c.74-2.68.98-5.8 3.2-7.75-.74 1.75-1.33 3.56-1.95 5.36l1.08-.52.86-.41c-1.04 1.13-2.1 2.23-3.19 3.32z"/>
    <path fill="#240606" opacity=".52" d="M53.13 59.27c1.55-.09 1.47 2.42.04 2.56-1.28.16-1.99-.33-2.11-1.47.52-.27 1.55-.82 2.07-1.09z"/>
    <path fill="#561111" opacity=".78" d="M71.08 61.83c3.32.27-1.64 2.93 0 0z"/>
    <path fill="#440c0c" opacity=".72" d="M55.94 85.92c2.08 2.35 3.54 5.16 4.64 8.09l-1.76-1.07c-1.15-2.26-2.11-4.61-2.88-7.02z"/>
    <path fill="#300909" opacity=".47" d="M54.95 93.75c1.22 2.3 2.77 4.4 4.54 6.3.01-1.37.01-4.12.01-5.5.93 2.8 1.56 5.69 2.14 8.59-.51-.09-1.53-.27-2.04-.35-1.76-2.9-3.95-5.64-4.65-9.04z"/>
</svg>
