<svg width="128pt" height="128pt" viewBox="0 0 128 128" xmlns="http://www.w3.org/2000/svg">
    <path fill="#721613" opacity=".87" d="M60.83 13.47c1.63-.34 7.14-1.99 5.72 1.36l-.23.97c-1.86-.71-3.68-1.5-5.49-2.33z"/>
    <g fill="#a52021">
        <path d="M41.76 16.96c.02-1.65 1.26-2.73 2.85-2.79-.39 1.61-.84 3.28.07 4.8 1.48 1.91 3.21 3.63 4.44 5.72.85 3.83 2.27 8.41-.47 11.82-2.37 2.87-3.56 6.55-2.68 10.24-3.04 3.98-1.33 9.07.3 13.24l-2.3.66c-3.37-2.23-7.73-3.12-10.3-6.45-1.37-1.68-1.31-3.97-1.74-5.99 1.35-.99 2.54-2.32 4.17-2.86 1.34.13 2.62.56 3.9.93-.31.82-.93 2.47-1.24 3.3.15-1.38-1.86-4.16-2.84-2.04-1.8 2.36.5 3.98 2.02 5.58 1.27-1.9 3.78-3.5 3.42-6.08-.13-4.1-1.78-7.96-4.3-11.16-1.06-1.4-2-3.1-1.5-4.92.81-1.9 2.6-3.08 3.95-4.55.85-.85 1.7-1.7 2.54-2.55.07.75.22 2.27.29 3.02-.47.65-1.42 1.94-1.89 2.59-1.77 1.45.53 5.19 2.3 3.33.86-1.19 1.67-2.43 2.46-3.68 1.21-1.13 1.48-3.04.15-4.19-1.59-2.43-3.44-4.97-3.6-7.97zM84.48 16.73c-3.55.04-.1-5.29.6-2.04 2.92 3.23-.74 7.36-2.46 10.28-1.33 1.16-1.03 3.06.19 4.17.78 1.25 1.58 2.48 2.44 3.67 1.77 1.83 4.06-1.93 2.28-3.37-.47-.64-1.4-1.92-1.87-2.56.07-.76.22-2.27.29-3.02.84.86 1.69 1.72 2.55 2.57 1.34 1.46 3.12 2.62 3.93 4.49.51 1.79-.37 3.49-1.43 4.86-2.89 3.66-4.8 8.38-4.2 13.08.9 1.56 2.14 2.88 3.28 4.26 1.51-1.59 3.78-3.21 2-5.56-1-2.11-2.93.73-2.97 2.04-.28-1.14-.51-2.29-.68-3.44 2.72-2.03 5.58.1 7.61 1.98-.16 3.31-1.22 6.83-4.36 8.47-4.06 2.14-8.53 3.9-11.22 7.87-.07-4.81 1.81-9.27 2.9-13.87.68-1.46-.66-2.4-1.49-3.37.48-3.09.58-6.56-1.72-9-2.88-2.94-3.27-7.33-1.99-11.1.69-3.25 3.19-5.56 4.95-8.23.47-.72.92-1.45 1.37-2.18z"/>
    </g>
    <path fill="#190405" opacity=".42" d="M61.15 14.21c.19.43.56 1.29.74 1.72.17.56.52 1.68.69 2.24 1.02-.04 2.04-.1 3.07-.17.16-.53.49-1.59.65-2.12l.02-.08.23-.97c-.12 8.16.07 16.31.01 24.47 2.7.47 5.37 1.08 8.03 1.75-.09-.43-.28-1.31-.37-1.75 1.31.81 2.66 1.54 4.05 2.2-.31.88-.6 1.77-.88 2.66-7.72-5.42-18.73-5.35-26.56-.2-1.45-1.03-2.9-2.05-4.36-3.05.04 2.45.07 4.91.21 7.37l-.71-1.53c-.88-3.69.31-7.37 2.68-10.24 2.74-3.41 1.32-7.99.47-11.82 2.44 3.39 1.86 7.73 1.41 11.63l2.13-.28c-2.06 1.55-3.82 3.45-4.36 6.06 1.88-.9 3.77-1.8 5.56-2.89 2.21 1.88 5.09.38 7.6.16-.23-8.39.43-16.79-.31-25.16m.43 4.43c-.36 3.48 4.92 3.36 4.9.11-1.63-.05-3.27-.09-4.9-.11m-.02 3.19c-.04 3.06 4.97 3.03 4.88-.05-1.63 0-3.26.01-4.88.05m.06 3.03c-.16 3.03 4.86 2.99 4.77.01-1.59-.02-3.18-.02-4.77-.01m-.02 3.02c-.07 3.1 4.76 2.93 4.82.01-1.61-.02-3.22-.02-4.82-.01m.01 5.25c1.59.02 3.18.02 4.77.01.16-3.22-4.93-3.25-4.77-.01m-.06 3.02c1.64-.01 3.29-.04 4.94-.1-.21-2.91-4.92-2.89-4.94.1m.12 3.27c1.54.01 3.09.01 4.64 0 .7-3.73-5.18-3.58-4.64 0z"/>
    <path fill="#8c1b19" opacity=".93" d="M61.89 15.93l-.21-.69 4.62.64c-.16.53-.49 1.59-.65 2.12-1.03.07-2.05.13-3.07.17-.17-.56-.52-1.68-.69-2.24z"/>
    <path fill="#8b1a19" opacity=".93" d="M61.58 18.64c1.63.02 3.27.06 4.9.11.02 3.25-5.26 3.37-4.9-.11z"/>
    <path fill="#8f1a1a" opacity=".96" d="M61.56 21.83c1.62-.04 3.25-.05 4.88-.05.09 3.08-4.92 3.11-4.88.05z"/>
    <g fill="#3b0b0b">
        <path opacity=".65" d="M45.36 24.93c1.33 1.15 1.06 3.06-.15 4.19-.6-1.45-.55-2.84.15-4.19zM82.81 29.14c-1.22-1.11-1.52-3.01-.19-4.17.71 1.33.78 2.72.19 4.17z"/>
    </g>
    <path fill="#921b20" opacity=".96" d="M61.62 24.86c1.59-.01 3.18-.01 4.77.01.09 2.98-4.93 3.02-4.77-.01z"/>
    <g fill="#961b20">
        <path opacity=".96" d="M61.6 27.88c1.6-.01 3.21-.01 4.82.01-.06 2.92-4.89 3.09-4.82-.01z"/>
        <path opacity=".96" d="M61.61 33.13c-.16-3.24 4.93-3.21 4.77.01-1.59.01-3.18.01-4.77-.01zM61.55 36.15c.02-2.99 4.73-3.01 4.94-.1-1.65.06-3.3.09-4.94.1z"/>
    </g>
    <g fill="#160405">
        <path opacity=".47" d="M42.75 32.8c-1.77 1.86-4.07-1.88-2.3-3.33.82 1.07 1.6 2.17 2.3 3.33zM87.53 29.44c1.78 1.44-.51 5.2-2.28 3.37.69-1.17 1.47-2.29 2.28-3.37z"/>
    </g>
    <path fill="#410b0d" opacity=".6" d="M55.43 29.79c1.48 2 2 4.3 1.1 6.68-.13-1.11-.41-3.33-.54-4.44-.62.88-1.26 1.75-1.9 2.61.44-1.61.88-3.24 1.34-4.85z"/>
    <path fill="#ad2021" d="M71.95 30.48c.94 1.14 1.29 2.57 1.62 3.96 1.46 1.42 3.15 2.59 4.99 3.47v.02c.41 1.38.8 2.77 1.18 4.16l-1.47-.59c-1.39-.66-2.74-1.39-4.05-2.2-1.2-.78-2.59-2.04-2.3-3.65.06-1.1.07-2.21.03-3.32v-1.85z"/>
    <path fill="#400b09" opacity=".65" d="M71.92 35.65c-1.9.38-1.88-3.81.03-3.32.04 1.11.03 2.22-.03 3.32z"/>
    <g fill="#b52421">
        <path d="M54.09 34.64c.64-.86 1.28-1.73 1.9-2.61.13 1.11.41 3.33.54 4.44-.85.95-1.74 1.87-2.67 2.74-1.79 1.09-3.68 1.99-5.56 2.89.54-2.61 2.3-4.51 4.36-6.06.36-.35 1.07-1.05 1.43-1.4zM43.01 63.1c.74.61 1.46 1.25 2.15 1.92 6.09 5.87 6.68 14.76 8.09 22.61-1.83-1.87-3.64-3.77-5.53-5.59-2.45-2.45-4.93-4.88-7.46-7.26.08-.52.25-1.56.33-2.08 1.04-.13 2.08-.25 3.12-.38.07 1.41-.61 3 .18 4.28 1.3.13 2.6.22 3.9.27.62-4.07-1.37-7.71-4.45-10.22-.65-.7-1.3-1.4-1.93-2.12.4-.36 1.2-1.08 1.6-1.43zM82.31 65.5c.88-.75 1.76-1.5 2.65-2.23 1.12.59 2.23 1.17 3.35 1.77-3.65 1.49-7.2 4-8.1 8.08-1.32 1.94.29 4.59 2.66 3.69 2.72.05 1.29-2.87 1.39-4.51 1.34.2 2.68.41 4.02.63-3.85 5.47-9.15 9.66-13.5 14.71 1.16-7.59 2.12-15.69 7.15-21.85.1-.07.28-.22.38-.29z"/>
    </g>
    <g fill="#9c2021">
        <path d="M28.53 32.57l2.11 2.52c-.15 3.06-2.78 4.86-4.38 7.17-.4 1.61-.36 3.28-.47 4.93 1.5-1.97 2.79-4.15 4.65-5.82 2.07-1.67 4.9-1.75 7.44-1.83.34 1.05.59 2.11.76 3.2-2.28 1.27-5.71 1.14-6.84 3.89-1.5 2.85-1.94 6.7.26 9.32 2.82 3.48 7.42 4.58 10.95 7.15-.4.35-1.2 1.07-1.6 1.43.63.72 1.28 1.42 1.93 2.12-4.08-1.55-7.9-3.7-12.03-5.14-4.2-1.61-8.86-3.8-10.49-8.34-2.18-4.22-1.19-9.94 2.3-13.11 1.08-.33 1.7-1.02 1.86-2.05 2.17-1.09 4.38-2.46 3.55-5.44zM97.35 35.09l2.1-2.52c-.72 2.88 1.51 4.15 3.33 5.61.54.85 1.27 1.47 2.2 1.86 4.54 4.37 4.4 12.62-.37 16.74-.97.6-1.83 1.36-2.59 2.21-4.34 2.5-9.23 3.84-13.71 6.05-1.12-.6-2.23-1.18-3.35-1.77 3.27-2.66 7.62-3.69 10.55-6.79 3.04-3.14 2.22-8.39-.45-11.48-1.71-1.17-3.86-1.43-5.79-2.08l.9-3.64c2.3.48 4.77.57 6.88 1.7 2.25 1.63 3.55 4.19 5.2 6.36-.14-1.7-.08-3.44-.53-5.1-1.6-2.31-4.2-4.1-4.37-7.15zM50.83 43.96c7.83-5.15 18.84-5.22 26.56.2l1.73 1.38c-1.21.37-2.48.66-3.73.4-.62-.32-1.85-.96-2.46-1.28-5.73-2.01-12.33-2.14-17.99.17-.58.26-1.76.77-2.35 1.02-1.24.38-2.52.06-3.71-.35l1.95-1.54z"/>
    </g>
    <path fill="#0c0202" opacity=".36" d="M30.64 35.09c.04 1.49.07 2.98.09 4.48 1.94-.32 3.88-.64 5.82-.95.13-.69.38-2.05.51-2.74 2.52 3.2 4.17 7.06 4.3 11.16.36 2.58-2.15 4.18-3.42 6.08-1.52-1.6-3.82-3.22-2.02-5.58.6 1.1 1.54 1.96 2.64 2.55l.2-.51c.31-.83.93-2.48 1.24-3.3-1.28-.37-2.56-.8-3.9-.93-1.63.54-2.82 1.87-4.17 2.86.43 2.02.37 4.31 1.74 5.99 2.57 3.33 6.93 4.22 10.3 6.45 1.6 1.55 3.11 3.21 4.46 4.98-1.09-.2-2.18-.4-3.27-.61-.69-.67-1.41-1.31-2.15-1.92-3.53-2.57-8.13-3.67-10.95-7.15-2.2-2.62-1.76-6.47-.26-9.32 1.13-2.75 4.56-2.62 6.84-3.89-.17-1.09-.42-2.15-.76-3.2-2.54.08-5.37.16-7.44 1.83-1.86 1.67-3.15 3.85-4.65 5.82.11-1.65.07-3.32.47-4.93 1.6-2.31 4.23-4.11 4.38-7.17z"/>
    <path fill="#0b0202" opacity=".35" d="M97.24 39.57c.03-1.49.06-2.99.11-4.48.17 3.05 2.77 4.84 4.37 7.15.45 1.66.39 3.4.53 5.1-1.65-2.17-2.95-4.73-5.2-6.36-2.11-1.13-4.58-1.22-6.88-1.7l-.9 3.64c1.93.65 4.08.91 5.79 2.08 2.67 3.09 3.49 8.34.45 11.48-2.93 3.1-7.28 4.13-10.55 6.79-.89.73-1.77 1.48-2.65 2.23-.1.07-.28.22-.38.29-.4 0-1.2.02-1.6.02.03-.33.09-1 .13-1.33 2.69-3.97 7.16-5.73 11.22-7.87 3.14-1.64 4.2-5.16 4.36-8.47-2.03-1.88-4.89-4.01-7.61-1.98.17 1.15.4 2.3.68 3.44l.13.51c1.19-.52 2.2-1.41 2.84-2.55 1.78 2.35-.49 3.97-2 5.56-1.14-1.38-2.38-2.7-3.28-4.26-.6-4.7 1.31-9.42 4.2-13.08.11.71.34 2.13.46 2.83l5.78.96z"/>
    <path fill="#861919" opacity=".93" d="M61.67 39.42c-.54-3.58 5.34-3.73 4.64 0-1.55.01-3.1.01-4.64 0z"/>
    <g fill="#1f0607">
        <path opacity=".49" d="M23.12 40.06c-.42-1.67.2-2.36 1.86-2.05-.16 1.03-.78 1.72-1.86 2.05zM102.78 38.18c1.77-.58 2.51.04 2.2 1.86-.93-.39-1.66-1.01-2.2-1.86z"/>
    </g>
    <path fill="#220606" opacity=".47" d="M54.94 44.83c5.66-2.31 12.26-2.18 17.99-.17l-2.64.32c-.19 7.84.54 15.74-.68 23.53-.13-8.04.1-16.08-.04-24.12-1.86-.13-3.72-.26-5.58-.3-1.85.03-3.7.16-5.55.29-.54 7.94-.55 15.94.31 23.86.87 16.02.8 32.36 5.39 47.87 3.23-11.54 3.63-23.55 4.79-35.4l.11-.92c.17 4.07.27 8.15-.12 12.2-1 8.07-1.65 16.33-4.05 24.1-.79 1.84-2.05-.19-2.21-1.26-1.96-8.65-3.19-17.48-3.66-26.34l-.92-.56c-1.16 1.32-.63 3.73-1.36 5.45l-.12-1.09c-.44-4.88-.66-9.77-1.08-14.65.37 2.72.88 5.43 1.54 8.1.21.01.63.02.83.03 1.53-2.64.58-5.88.53-8.76-1.35-10.73-.32-21.55-.88-32.32-.65.04-1.95.11-2.6.14z"/>
    <path fill="#9c1c1b" d="M58.44 44.38c1.85-.13 3.7-.26 5.55-.29.51 11.79.13 23.61 1.25 35.36.92.32 2.77.95 3.69 1.26-1.16 11.85-1.56 23.86-4.79 35.4-4.59-15.51-4.52-31.85-5.39-47.87-.03-7.95.2-15.92-.31-23.86z"/>
    <g fill="#891413">
        <path d="M63.99 44.09c1.86.04 3.72.17 5.58.3.14 8.04-.09 16.08.04 24.12-.2 3.76-.35 7.52-.57 11.28l-.11.92c-.92-.31-2.77-.94-3.69-1.26-1.12-11.75-.74-23.57-1.25-35.36zM47.81 50.35c2.11.99 4.33 1.7 6.55 2.36.05 8.32.41 16.64 1.16 24.93.42 4.88.64 9.77 1.08 14.65-.46-1.17-.93-2.34-1.17-3.57-.46-2.58-.82-5.17-1.04-7.78.3-2.97.41-5.96.02-8.93-.75-6.12-.25-12.3-.55-18.44-2.12-.86-4.27-1.74-6.05-3.22z"/>
    </g>
    <path fill="#220504" opacity=".46" d="M49.84 48.13c-1.12-.13-1.99-1.92-.96-2.63 1.19.41 2.47.73 3.71.35-.53 1.07-1.32 2.5-2.75 2.28z"/>
    <path fill="#550d0d" opacity=".83" d="M58.75 68.24c-.86-7.92-.85-15.92-.31-23.86.51 7.94.28 15.91.31 23.86z"/>
    <path fill="#220706" opacity=".46" d="M79.12 45.54c1.03.71.15 2.49-.96 2.61-1.42.2-2.19-1.18-2.77-2.21 1.25.26 2.52-.03 3.73-.4z"/>
    <g fill="#200506">
        <path opacity=".58" d="M35.92 47.54c.98-2.12 2.99.66 2.84 2.04l-.2.51c-1.1-.59-2.04-1.45-2.64-2.55zM89.11 49.6c.04-1.31 1.97-4.15 2.97-2.04-.64 1.14-1.65 2.03-2.84 2.55l-.13-.51z"/>
    </g>
    <path fill="#b52321" d="M46.27 59.99c-1.63-4.17-3.34-9.26-.3-13.24l.71 1.53c.28.52.85 1.55 1.13 2.07 1.78 1.48 3.93 2.36 6.05 3.22.3 6.14-.2 12.32.55 18.44.39 2.97.28 5.96-.02 8.93-1.03-5.41-2.86-10.72-5.96-15.31-1.35-1.77-2.86-3.43-4.46-4.98l2.3-.66z"/>
    <path fill="#b82421" d="M73.68 52.76c3.4-.61 6.91-2.01 8.19-5.52.83.97 2.17 1.91 1.49 3.37-1.09 4.6-2.97 9.06-2.9 13.87-.04.33-.1 1-.13 1.33-2.34 1.3-3.23 3.98-4.22 6.3-2.06 5.05-2.56 10.53-3.6 15.85l-1.12-.1c1.64-11.63 2.29-23.37 2.29-35.1z"/>
    <path fill="#170405" opacity=".38" d="M102.02 58.99c.76-.85 1.62-1.61 2.59-2.21 1.27 1.47-1.32 3.6-2.59 2.21z"/>
    <path fill="#170404" opacity=".44" d="M45.16 65.02c1.09.21 2.18.41 3.27.61 3.1 4.59 4.93 9.9 5.96 15.31.22 2.61.58 5.2 1.04 7.78-3.84-.21-6.34-3.4-7.71-6.68 1.89 1.82 3.7 3.72 5.53 5.59-1.41-7.85-2-16.74-8.09-22.61z"/>
    <path fill="#5d1011" opacity=".79" d="M81.93 65.79c.1-.07.28-.22.38-.29-.1.07-.28.22-.38.29z"/>
    <path fill="#1a0505" opacity=".44" d="M76.11 72.11c.99-2.32 1.88-5 4.22-6.3.4 0 1.2-.02 1.6-.02-5.03 6.16-5.99 14.26-7.15 21.85 4.35-5.05 9.65-9.24 13.5-14.71-.34 1.58-.61 3.29-1.99 4.32-3.73 3.29-7.19 6.85-10.32 10.71h-3.46c1.04-5.32 1.54-10.8 3.6-15.85z"/>
</svg>
