<svg width="128pt" height="128pt" viewBox="0 0 128 128" xmlns="http://www.w3.org/2000/svg">
    <g fill="#fff">
        <path d="M61.16 13.22c1.95.31 5.16-1.2 5.91 1.38-1.78.19-3.55.3-5.33.43-.14-.45-.43-1.36-.58-1.81zM62.03 15.65c1.3-.01 2.61-.03 3.91-.04-.04.56-.13 1.69-.17 2.26-1.17 0-2.33.02-3.49.03-.06-.56-.19-1.69-.25-2.25zM61.85 18.59l4.15-.03c-.11.75-.34 2.26-.46 3.01-2.35.37-3.79-.46-3.69-2.98zM62.08 37.24c1.28.01 2.56.01 3.84.01-.02.55-.04 1.65-.05 2.21-1.25-.01-2.49-.01-3.74 0-.01-.56-.03-1.66-.05-2.22zM55.34 41.51c5.89-1.98 12.82-2.05 18.54.56 2.1 1.33 5.67 2.43 4.89 5.58-8.52-5.97-21.03-5.96-29.54 0-.68-3.58 3.65-4.73 6.11-6.14z"/>
        <path d="M58.33 44.51c3.69-.42 7.83-1.14 11.29.33.44 17.02-.69 34.01-1.78 50.98-1.07 7.1-1.78 14.31-3.82 21.21-4.5-16.28-4.49-33.27-5.49-50.01-.32-7.5-.17-15-.2-22.51z"/>
    </g>
    <g fill="#f3f3f3">
        <path opacity=".95" d="M62.37 22.37c.94-.86 4.51-.43 3.13 1.3-.94.78-4.41.39-3.13-1.3zM62.4 25.39c.95-.83 4.42-.42 3.06 1.33-.92.97-4.27.33-3.06-1.33zM62.41 28.37c.95-.84 4.48-.37 3.01 1.35-.92.91-4.33.29-3.01-1.35zM62.38 31.35c.91-1.03 4.35-.46 3.1 1.26-.92.8-4.31.46-3.1-1.26z"/>
    </g>
    <path fill="#e4e4e4" opacity=".89" d="M62.04 33.67h3.92v2.82h-3.93c.01-.71.01-2.11.01-2.82z"/>
</svg>
