<svg width="128pt" height="128pt" viewBox="0 0 128 128" xmlns="http://www.w3.org/2000/svg">
    <g fill="#9f2021">
        <path d="M59.23 19.79c.66-1.89 1.56-3.68 2.5-5.44-.04 6.87-.29 14.08 2.61 20.48 1.99 3.37 1.88 7.38.61 10.97-.95 2.16.09 4.34.91 6.34.19 2.56.36 5.11.51 7.67-2.22 1.78-3.96 5.61-7.29 4.76-3.26-.85-4.81-4.22-5.51-7.21-1.09-4.59 1.99-8.8 1.55-13.39-.19-8.25 1.54-16.39 4.11-24.18zM45.08 21.39l1.14 1.89c-.52 6.97-.1 14.82 4.91 20.22l.16.24c.73 5.39.24 10.9 1.44 16.23-2.79 2.02-6.02 4.4-9.51 2.43l-1.78-2.06c-.02-2.36.69-4.57 2.13-6.44-.02-3.16-1.31-6.04-2.3-8.97-.76-8.04 1.88-15.84 3.81-23.54zM72.45 40.9c.8-6.02 2.99-11.68 4.38-17.57 1.96 6.76 1.42 13.84 1.76 20.79 0 2.14.69 4.23 2.01 5.92.14 5.03-2 9.57-3.56 14.21-.53.36-1.61 1.08-2.14 1.44-2.17-.85-4.95-1.03-6.3-3.2-1.58-2.02.07-4.55.3-6.75.47-.28 1.42-.85 1.9-1.13.1-4.63-.71-9.5 1.65-13.71zM27.54 62.08c-.59-7.41.75-15.65 5.92-21.29-.8 5.47-2.02 11.11-.73 16.61.38 1.65 1.21 3.64-.53 4.93 2.6.4 5.21 1.53 6.68 3.82 4.28 6.01 6.41 13.48 5.62 20.85-1.52-1-2.94-2.15-4.47-3.13-1.95-1.19-4.51 1.22-6.17-.48-.46-3.16.47-6.88-1.87-9.48-1.4-1.95-3.56-3.03-5.78-3.77.06-2.77 1.8-5.24 1.33-8.06z"/>
        <path d="M42.29 64.85c3.69.01 7.46.1 10.96-1.26 2.66-1.08 4.16 2.26 6 3.61 2.35-.84 4.62-1.89 6.8-3.11 2.63 1.59 5.36 3.27 8.55 3.26 1.42.35 3.96-.37 4.19 1.72.98 5.42 2.54 11.12 7.09 14.69-1.6 1.93-3.43 3.79-4.35 6.18-.24 2.11.51 4.17.9 6.22-1.48 3.93-3.42 7.83-6.55 10.72-2.19 2.03-5.24 2.5-7.93 3.57-.57-.75-1.12-1.51-1.64-2.29-3.47-6.37-2.74-14.19-.29-20.77l1.7-.46c1.86-.47 3.63-1.24 5.32-2.13-2.68.01-5.37.18-8.05.21-2.8-1.07-5.59-2.19-8.37-3.31 2.11 2.08 4.26 4.11 6.4 6.16.03 6.9-.97 14.01 1.31 20.68-7.02-.26-12.3-5.65-16.95-10.32-1.26-.75-2.55-1.46-3.86-2.13 2.48-5.59 3.77-11.77 2.93-17.88-.56-4.75-4.72-8.38-4.16-13.36z"/>
    </g>
    <path opacity=".14" d="M61.73 14.35c2.17 3.88.8 8.48 1.51 12.68.18 3.65 2.17 6.79 3.5 10.09 1.34 3.9-1.12 7.84-.47 11.78.48 2.9.97 5.8 1.13 8.74.38-.47 1.12-1.42 1.5-1.9-.23 2.2-1.88 4.73-.3 6.75 1.35 2.17 4.13 2.35 6.3 3.2.53-.36 1.61-1.08 2.14-1.44 1.56-4.64 3.7-9.18 3.56-14.21 2.48 5.48-1.5 10.73-3.26 15.75.25.3.77.92 1.02 1.23.88-2.02 1.33-4.61 3.67-5.47-.31.47-.91 1.41-1.22 1.88-.34 5.24-1.16 11.73 3.19 15.63 1.55 1.14 2.18 2.82 1.88 4.7-4.55-3.57-6.11-9.27-7.09-14.69-.23-2.09-2.77-1.37-4.19-1.72-3.19.01-5.92-1.67-8.55-3.26-2.18 1.22-4.45 2.27-6.8 3.11-1.84-1.35-3.34-4.69-6-3.61-3.5 1.36-7.27 1.27-10.96 1.26-.56 4.98 3.6 8.61 4.16 13.36.84 6.11-.45 12.29-2.93 17.88 1.31.67 2.6 1.38 3.86 2.13-1.63-.32-3.25-.63-4.88-.97.77-3.4 1.92-6.75 2-10.25.79-7.37-1.34-14.84-5.62-20.85l-.32-.5 2.84-.33c.61-.97 1.21-1.95 1.82-2.92 3.49 1.97 6.72-.41 9.51-2.43-1.2-5.33-.71-10.84-1.44-16.23 1.47 1.41 1.87 3.42 2.31 5.31.11-8.45.69-17.01 3.2-25.13.43-1.58 1.39-2.91 2.43-4.13-2.57 7.79-4.3 15.93-4.11 24.18.44 4.59-2.64 8.8-1.55 13.39.7 2.99 2.25 6.36 5.51 7.21 3.33.85 5.07-2.98 7.29-4.76-.15-2.56-.32-5.11-.51-7.67-.82-2-1.86-4.18-.91-6.34 1.27-3.59 1.38-7.6-.61-10.97-2.9-6.4-2.65-13.61-2.61-20.48z"/>
    <path fill="#200606" opacity=".46" d="M40.32 44.98c-.22-8.31 1.35-16.69 4.8-24.27.62.13 1.86.37 2.48.49-1.41 7.6-.37 15.58 3.53 22.3-5.01-5.4-5.43-13.25-4.91-20.22l-1.14-1.89c-1.93 7.7-4.57 15.5-3.81 23.54.99 2.93 2.28 5.81 2.3 8.97-1.44 1.87-2.15 4.08-2.13 6.44-1.19-2.6.03-4.94 1.28-7.23.23-2.93-1.72-5.39-2.4-8.13z"/>
    <path fill="#9c2021" d="M89.53 34.7c2.11 2.15 2.1 5.38 2.63 8.16.42 5.05.39 10.14.07 15.19-1.22 3.98-3.18 7.8-3.34 12.05-.09 3.51-1.17 6.85-2.79 9.94-.53-.25-1.58-.74-2.1-.98-4.35-3.9-3.53-10.39-3.19-15.63.31-.47.91-1.41 1.22-1.88 5.5-7.84 7.54-17.4 7.5-26.85z"/>
    <path fill="#110304" opacity=".46" d="M56.62 81.7c2.78 1.12 5.57 2.24 8.37 3.31.92.62 1.83 1.26 2.73 1.92l-1.7.46c-2.45 6.58-3.18 14.4.29 20.77-.5.1-1.49.29-1.98.38-2.28-6.67-1.28-13.78-1.31-20.68-2.14-2.05-4.29-4.08-6.4-6.16z"/>
    <path fill="#2d0909" opacity=".64" d="M64.99 85.01c2.68-.03 5.37-.2 8.05-.21-1.69.89-3.46 1.66-5.32 2.13-.9-.66-1.81-1.3-2.73-1.92z"/>
</svg>
