<svg width="128pt" height="128pt" viewBox="0 0 128 128" xmlns="http://www.w3.org/2000/svg">
    <path fill="#b02023" d="M31.28 21.27c4.78 1.15 9.23 3.34 13.51 5.69 3.37 1.98 7.11 3.21 11.01 3.5l-2.4 1.92c-4.51 1.26-9.13 2.08-13.8 2.39.86-1.51 1.71-3.03 2.49-4.59-1.23 1.13-2.3 2.41-3.28 3.76-3.51 1.47-4.75 5.94-8.56 6.78 2.07-4.21 6.18-7.13 8.64-11.17-.35.01-1.06.02-1.41.03-3.63 4.68-7.66 9.21-12.96 12.03l-1.2.56-1.03-.16c4.46-4.82 10.02-8.8 13.13-14.72-6.02 4.68-10.41 11.18-16.69 15.55-1.33.77-2.87 1.07-4.31 1.54 5.64-6.39 13.9-10.61 17.46-18.7-6.43 5.92-12.08 12.8-19.44 17.65-1.18.41-2.39.75-3.61 1.01.64-.73 1.3-1.46 1.97-2.17 2.07-2.08 4.16-4.14 6.44-5.97.9-.44 1.55-1.1 1.96-2 .55-.81 1.22-1.5 2.01-2.07.89-.46 1.54-1.15 1.94-2.06 2.54-3.02 4.5-6.99 8.13-8.8m11.66 10.06c-1.56 2.98 3.33.12 0 0z"/>
    <g fill="#ad2021">
        <path d="M95.5 21.15c2.05.49 3.59 1.93 4.72 3.65 4.37 6.13 9.77 11.42 15.43 16.35.97 1.06 1.88 2.17 2.78 3.29-4.52-.66-7.54-4.28-10.9-7-4.3-3.54-7.71-8-11.88-11.67 3.47 7.9 11.46 12.21 17.18 18.27-1.59-.26-3.18-.53-4.77-.79-.22-.27-.67-.81-.9-1.08-2.08-2.38-4.53-4.4-6.78-6.61-2.79-2.71-5.12-5.96-8.48-8.04 3.65 5.65 8.97 9.86 13.5 14.74-.48-.14-1.46-.41-1.94-.54-5.29-1.44-8.53-6.13-12.39-9.62 1.86 3.46 5.17 5.74 7.51 8.83-.96-.22-2.9-.65-3.86-.86-2-2.1-3.07-5.87-6.6-5.59-.05-.56-.16-1.68-.22-2.24-.68-.56-1.36-1.12-2.04-1.67-.94.65-1.89 1.3-2.83 1.95 1.54.03 3.07.06 4.61.1-.64.71-1.29 1.41-1.94 2.11-3.87-.56-7.77-1.15-11.47-2.49l-2.24-.84c1.26-.46 2.53-.9 3.79-1.38 6.67-2.76 12.88-6.51 19.72-8.87zM55.63 32.98c1.49-.64 2.94-1.39 4.39-2.12 1.44 2.38 3.53 4.91 2.78 7.9-.61 1.28-1.7 2.24-2.74 3.17l-1.18.24c.58-1.97 1.02-3.98 1.37-6.01-1.53 1.9-2.46 4.14-3.33 6.39-.65.56-1.34 1.06-2.08 1.49l-1.8.56c.46-1.8.91-3.6 1.31-5.41-1.46 1.82-2.54 3.9-3.44 6.05-.6.71-1.28 1.32-2.05 1.83-.42.14-1.27.42-1.69.57.79-2.62 1.49-5.27 1.87-7.98-1.91 3.37-3.26 7.02-4.91 10.51-.44.5-1.32 1.49-1.76 1.99-.58.55-1.75 1.65-2.33 2.2 1.53-5.27 3.56-10.39 4.78-15.76-4.44 6.16-5.24 14.17-9.77 20.33-.68.25-2.04.75-2.71 1 2.05-7.21 5.59-13.91 7.41-21.19-4.05 6.94-6.23 14.78-9.82 21.96-1.32 2.5-3.3 4.58-5.67 6.11 2.9-7.51 4.86-15.39 8.45-22.62 1.74-2.88 2.39-7.64 6.36-8.2 5.57-.64 11.45-.28 16.56-3.01z"/>
        <path d="M64.4 37.94c-.37-2.77 1.92-4.86 3.21-7.04 1.4.75 2.79 1.52 4.21 2.23 5.53 2.91 11.91 1.93 17.82 3.1 1.87 1.2 2.93 3.25 3.97 5.14 3.87 8.21 6.35 16.96 9.51 25.45-2.21-1.52-4.19-3.43-5.41-5.84-3.65-7.21-6.24-14.9-9.62-22.23 1 7.54 5.19 14.12 7.03 21.43-1.43-1.02-2.88-2.01-4.26-3.1-3.49-5.37-4.52-11.93-7.73-17.39.71 4.88 4.19 9.37 3.57 14.33-.2.02-.6.07-.8.09-1.3-1.99-2.71-3.93-3.8-6.06-1.07-2.86-2.23-5.71-3.8-8.34.47 2.63 1.11 5.22 1.79 7.81-1.03-.41-2.06-.82-3.09-1.24-.22-.47-.65-1.42-.87-1.89-.82-1.83-1.81-3.57-2.84-5.28.11 1.9.15 3.8.23 5.69-3.28-1.61-4.54-5.13-6.08-8.17.44 2.04.89 4.07 1.23 6.13-1.67-1.3-4.06-2.43-4.27-4.82zM40.25 58.22c2.01-.85 3.58 1.42 5.15 2.35 2.78 2.51 6.34 3.79 9.96 4.49-.15.39-.46 1.17-.62 1.56-2.94-.76-5.87-1.64-8.56-3.07-2.02-1.63-4.99-2.81-5.93-5.33zM85.09 62.37l1.19-.75c-.84 12-4.47 23.85-10.41 34.31-.27.45-.82 1.35-1.1 1.8-2.91 5.08-5.65 10.5-10.04 14.49-.09-1.74-.16-3.47-.21-5.2 1.81-2.59 3.63-5.16 5.39-7.78 5.98-10.62 11.99-22.06 11.64-34.6 1.18-.75 2.37-1.49 3.54-2.27zM41.41 62.29c1.45.82 2.89 1.65 4.33 2.49-.21 7.7 1.78 15.48 5.27 22.3 1.84 2.67 3.28 5.58 4.53 8.57 1.61 3.78 4.46 6.82 6.54 10.32 1.21 1.85.48 4.19.56 6.26-1.5-1.46-2.95-3-4.09-4.76-4.45-6.76-8.64-13.74-11.74-21.23-2.31-7.86-4.99-15.7-5.4-23.95z"/>
    </g>
    <path fill="#b02321" d="M51.89 27.15c4.23-1.73 8.33-4.9 13.08-4.59 3.87 1.27 7.81 2.78 11 5.4-1.35.61-2.74 1.12-4.16 1.51-1.68.03-3.36.01-5.03.01-1.12 1.53-1.36 4.3-3.6 4.5-.81-1.35-1.45-2.79-2.27-4.12-3.08-.74-6.92.25-9.02-2.71z"/>
    <path fill="#320909" opacity=".62" d="M12.44 43.33c7.36-4.85 13.01-11.73 19.44-17.65-3.56 8.09-11.82 12.31-17.46 18.7 1.44-.47 2.98-.77 4.31-1.54 6.28-4.37 10.67-10.87 16.69-15.55-3.11 5.92-8.67 9.9-13.13 14.72l1.03.16.79.13c-2.57-.02-4.74 1.28-7.06 2.15-3.02.2-6.05.16-9.05.58.16-.57.49-1.73.65-2.3.54-.14 1.62-.42 2.15-.56-.67.71-1.33 1.44-1.97 2.17 1.22-.26 2.43-.6 3.61-1.01z"/>
    <path fill="#32090a" opacity=".61" d="M95.65 25.77c4.17 3.67 7.58 8.13 11.88 11.67 3.36 2.72 6.38 6.34 10.9 7-.9-1.12-1.81-2.23-2.78-3.29 1.91.6 3.37 1.9 4 3.83-3.8-.81-8.28.72-11.59-1.73 1.59.26 3.18.53 4.77.79-5.72-6.06-13.71-10.37-17.18-18.27z"/>
    <g fill="#010000">
        <path opacity=".16" d="M44.79 26.96c1.73.33 3.45.68 5.16 1.05.41-.29 1.23-.86 1.63-1.14l.31.28c2.1 2.96 5.94 1.97 9.02 2.71.82 1.33 1.46 2.77 2.27 4.12 2.24-.2 2.48-2.97 3.6-4.5 1.67 0 3.35.02 5.03-.01 1.31.29 2.63.45 3.97.55-1.26.48-2.53.92-3.79 1.38l2.24.84c-.6.22-1.8.67-2.41.89-1.42-.71-2.81-1.48-4.21-2.23-1.29 2.18-3.58 4.27-3.21 7.04.21 2.39 2.6 3.52 4.27 4.82-.34-2.06-.79-4.09-1.23-6.13 1.54 3.04 2.8 6.56 6.08 8.17.86-.2 1.73-.33 2.61-.41.22.47.65 1.42.87 1.89 1.18 1.65 3.33 1.43 5.1 1.77 1.09 2.13 2.5 4.07 3.8 6.06.2-.02.6-.07.8-.09.49.37 1.46 1.1 1.94 1.47-.39.32-1.17.98-1.56 1.3-1.03-.91-2.12-1.76-3.09-2.73-1.91-2.09-4.03-4.05-6.75-4.98-2.34-1.87-5.05-3.18-7.93-4-1.14-.56-2.26-1.18-3.36-1.83-.34-1.63-1.46-2.88-2.46-4.15-.55.81-1.63 2.42-2.18 3.22l.93 1.3c-1.21.4-2.41.86-3.62 1.29-3.04.89-6.01 2.1-8.49 4.11-2.13.85-4.03 2.17-5.46 3.97-.57-.21-1.72-.62-2.3-.83.44-.5 1.32-1.49 1.76-1.99 1.49-1.15 3.14-2.09 4.73-3.1.77-.51 1.45-1.12 2.05-1.83 1.31-.38 2.64-.74 3.93-1.2.74-.43 1.43-.93 2.08-1.49.49-.09 1.47-.28 1.96-.38l1.18-.24c1.04-.93 2.13-1.89 2.74-3.17.75-2.99-1.34-5.52-2.78-7.9-1.45.73-2.9 1.48-4.39 2.12l-2.23-.6 2.4-1.92c-3.9-.29-7.64-1.52-11.01-3.5zM80.93 63.86c1.6-.91 3.16-1.9 4.7-2.91l-.54 1.42c-1.17.78-2.36 1.52-3.54 2.27.35 12.54-5.66 23.98-11.64 34.6.28-2.04.62-4.06 1.02-6.08-.46-.06-1.39-.2-1.85-.26 6.78-6.18 10.11-15.02 11.26-23.94.24-1.7.41-3.4.59-5.1zM58.48 81.49c3.08-1.77 7.01-1.57 10.22-.26-3.29 1.3-6.85 1.17-10.22.26z"/>
    </g>
    <g fill="#210605">
        <path opacity=".51" d="M91.9 27.52c3.36 2.08 5.69 5.33 8.48 8.04 2.25 2.21 4.7 4.23 6.78 6.61-1.28.29-2.57.59-3.85.88l.15-1.33c.48.13 1.46.4 1.94.54-4.53-4.88-9.85-9.09-13.5-14.74zM37.48 29.58c.35-.01 1.06-.02 1.41-.03-2.46 4.04-6.57 6.96-8.64 11.17 3.81-.84 5.05-5.31 8.56-6.78.98-1.35 2.05-2.63 3.28-3.76-.78 1.56-1.63 3.08-2.49 4.59 4.67-.31 9.29-1.13 13.8-2.39l2.23.6c-5.11 2.73-10.99 2.37-16.56 3.01-3.97.56-4.62 5.32-6.36 8.2-.02-.67-.07-2.02-.09-2.7-1.57.23-3.33.47-4.61-.7-1.17.26-2.33.53-3.49.82 5.3-2.82 9.33-7.35 12.96-12.03zM83.03 32.52c.94-.65 1.89-1.3 2.83-1.95.68.55 1.36 1.11 2.04 1.67.06.56.17 1.68.22 2.24 3.53-.28 4.6 3.49 6.6 5.59l-1.11 1.3c-1.04-1.89-2.1-3.94-3.97-5.14-5.91-1.17-12.29-.19-17.82-3.1.61-.22 1.81-.67 2.41-.89 3.7 1.34 7.6 1.93 11.47 2.49.65-.7 1.3-1.4 1.94-2.11-1.54-.04-3.07-.07-4.61-.1z"/>
        <path opacity=".51" d="M29.93 60.7c3.59-7.18 5.77-15.02 9.82-21.96-1.82 7.28-5.36 13.98-7.41 21.19.67-.25 2.03-.75 2.71-1-1.15 1.78-3.28 1.62-5.12 1.77z"/>
        <path opacity=".51" d="M35.05 58.93c4.53-6.16 5.33-14.17 9.77-20.33-1.22 5.37-3.25 10.49-4.78 15.76.58-.55 1.75-1.65 2.33-2.2.58.21 1.73.62 2.3.83-1.03 1.24-1.99 2.54-2.96 3.83 3.73 2.49 7.14 5.78 11.6 6.91 3.5.86 7.04 1.58 10.42 2.85 3.25-1.22 6.64-2 10.02-2.76 4.64-1.05 8.15-4.47 11.98-7.06-.57-.92-1.15-1.81-1.74-2.7.97.97 2.06 1.82 3.09 2.73.35.31 1.05.92 1.4 1.23-.24.33-.74 1.01-.99 1.34l-.77-1.09c-.26-.11-.77-.32-1.03-.42-3.09 2.37-6.64 4.2-9.5 6.82.29.12.88.36 1.18.48-.8.24-1.6.47-2.39.7-.02-2.48-3.2-.25-.58.34-.98.55-1.97 1.11-2.95 1.65 1.59.11 3.19.23 4.78.37-4.44.13-8.94 1.07-12.58 3.74-4.53-3.41-10.43-4.15-15.91-3.27 2.12-.94 4.41-1.17 6.71-1.05.07-.25.22-.76.29-1.01.16-.39.47-1.17.62-1.56-3.62-.7-7.18-1.98-9.96-4.49-1.57-.93-3.14-3.2-5.15-2.35.94 2.52 3.91 3.7 5.93 5.33.18 1.81.35 3.63.7 5.42 1.6 5.24 2.64 10.7 4.99 15.69-.21.6-.64 1.81-.86 2.42-3.49-6.82-5.48-14.6-5.27-22.3-1.44-.84-2.88-1.67-4.33-2.49.41 8.25 3.09 16.09 5.4 23.95-1.97-2.38-2.27-5.6-3.27-8.43-1.72-5.1-2.58-10.42-3.4-15.72-.04-1.46-.57-2.81-.99-4.17.47-.69 1.41-2.06 1.88-2.74-2.94-.62-3.77 2.71-5.98 3.75m21.34 7.19c.28 1.33 1.03 1.59 2.25.79-.27-1.34-1.02-1.6-2.25-.79M63.81 68c-1.67-.64-3.36-1.25-5.07-1.76 1.56 1.59 3.24 3.07 4.98 4.47 2.11-2.97 6.14-2.91 8.54-5.33-2.96.37-5.8 1.27-8.45 2.62zM95.12 60.18c-1.84-7.31-6.03-13.89-7.03-21.43 3.38 7.33 5.97 15.02 9.62 22.23-2.79-.24-5.82-.93-6.85-3.9 1.38 1.09 2.83 2.08 4.26 3.1z"/>
        <path opacity=".51" d="M60.33 76.57c-2.74-.59-2.23-2.66-1.21-4.51 1.26 3.9 8.08 4.32 8.82-.05.56 1.01 1.13 2.02 1.71 3.03-1.6.75-3.1 1.97-4.94 2.01l-1.57.08c-.66-.12-1.97-.36-2.63-.49-.04-.02-.13-.05-.18-.07zM58.25 81.44l.23.05c3.37.91 6.93 1.04 10.22-.26l.16-.05c.82.89 1.65 1.78 2.47 2.67-5.01-1.5-10.44-1.47-15.45.01.79-.8 1.58-1.61 2.37-2.42z"/>
    </g>
    <path fill="#120303" opacity=".38" d="M21.21 32.13c-.5-1.78.15-2.46 1.94-2.06-.4.91-1.05 1.6-1.94 2.06z"/>
    <path fill="#581112" opacity=".78" d="M42.94 31.33c3.33.12-1.56 2.98 0 0z"/>
    <path fill="#0f0203" opacity=".33" d="M17.24 36.2c-.47-1.8.18-2.47 1.96-2-.41.9-1.06 1.56-1.96 2z"/>
    <path fill="#330909" opacity=".67" d="M56.92 42.55c.87-2.25 1.8-4.49 3.33-6.39-.35 2.03-.79 4.04-1.37 6.01-.49.1-1.47.29-1.96.38z"/>
    <path fill="#420c0d" opacity=".67" d="M44.13 50.17c1.65-3.49 3-7.14 4.91-10.51-.38 2.71-1.08 5.36-1.87 7.98.42-.15 1.27-.43 1.69-.57-1.59 1.01-3.24 1.95-4.73 3.1z"/>
    <path fill="#280707" opacity=".59" d="M50.91 45.24c.9-2.15 1.98-4.23 3.44-6.05-.4 1.81-.85 3.61-1.31 5.41l1.8-.56c-1.29.46-2.62.82-3.93 1.2z"/>
    <path fill="#a21f20" d="M63.49 39.1c1 1.27 2.12 2.52 2.46 4.15-1.24.13-2.47.25-3.71.37l-.93-1.3c.55-.8 1.63-2.41 2.18-3.22z"/>
    <path fill="#310909" opacity=".64" d="M73.29 39.11c1.03 1.71 2.02 3.45 2.84 5.28-.88.08-1.75.21-2.61.41-.08-1.89-.12-3.79-.23-5.69z"/>
    <path fill="#410c0c" opacity=".68" d="M78.3 39.71c1.57 2.63 2.73 5.48 3.8 8.34-1.77-.34-3.92-.12-5.1-1.77 1.03.42 2.06.83 3.09 1.24-.68-2.59-1.32-5.18-1.79-7.81z"/>
    <path fill="#240607" opacity=".55" d="M62.24 43.62c1.24-.12 2.47-.24 3.71-.37 1.1.65 2.22 1.27 3.36 1.83-3.56.01-7.13-.03-10.69-.17 1.21-.43 2.41-.89 3.62-1.29z"/>
    <path fill="#b02121" d="M50.13 49.02c2.48-2.01 5.45-3.22 8.49-4.11 3.56.14 7.13.18 10.69.17 2.88.82 5.59 2.13 7.93 4 2.72.93 4.84 2.89 6.75 4.98.59.89 1.17 1.78 1.74 2.7-3.83 2.59-7.34 6.01-11.98 7.06-3.38.76-6.77 1.54-10.02 2.76-3.38-1.27-6.92-1.99-10.42-2.85-4.46-1.13-7.87-4.42-11.6-6.91.97-1.29 1.93-2.59 2.96-3.83 1.43-1.8 3.33-3.12 5.46-3.97z"/>
    <path fill="#981d1d" opacity=".95" d="M85.69 57.85c.26.1.77.31 1.03.42l.77 1.09c-.46.4-1.39 1.19-1.86 1.59-1.54 1.01-3.1 2-4.7 2.91-1.16.51-2.34.94-3.56 1.29-.3-.12-.89-.36-1.18-.48 2.86-2.62 6.41-4.45 9.5-6.82z"/>
    <path fill="#010000" opacity=".17" d="M77.37 65.15c1.22-.35 2.4-.78 3.56-1.29-.18 1.7-.35 3.4-.59 5.1-1.36-.29-2.72-.61-4.11-.75-1.59-.14-3.19-.26-4.78-.37.98-.54 1.97-1.1 2.95-1.65l.58-.34c.79-.23 1.59-.46 2.39-.7z"/>
    <path fill="#b52421" d="M74.4 66.19c-2.62-.59.56-2.82.58-.34l-.58.34z"/>
    <path fill="#9b1e1f" opacity=".94" d="M56.39 66.12c1.23-.81 1.98-.55 2.25.79-1.22.8-1.97.54-2.25-.79z"/>
    <path fill="#971d1d" opacity=".95" d="M63.81 68c2.65-1.35 5.49-2.25 8.45-2.62-2.4 2.42-6.43 2.36-8.54 5.33-1.74-1.4-3.42-2.88-4.98-4.47 1.71.51 3.4 1.12 5.07 1.76z"/>
    <path fill="#b02021" d="M76.23 68.21c1.39.14 2.75.46 4.11.75-1.15 8.92-4.48 17.76-11.26 23.94-.73.79-1.46 1.59-2.17 2.4-2.01.08-4.02.23-6.02-.02-3.57-2.97-6.87-6.47-9.02-10.62-2.35-4.99-3.39-10.45-4.99-15.69l.86-.29c5.48-.88 11.38-.14 15.91 3.27 3.64-2.67 8.14-3.61 12.58-3.74m-15.9 8.36c.05.02.14.05.18.07.66.13 1.97.37 2.63.49l.02.82.84.41.78-.5-.07-.81c1.84-.04 3.34-1.26 4.94-2.01-.58-1.01-1.15-2.02-1.71-3.03-.74 4.37-7.56 3.95-8.82.05-1.02 1.85-1.53 3.92 1.21 4.51m-1.85 4.92l-.23-.05c-.79.81-1.58 1.62-2.37 2.42 5.01-1.48 10.44-1.51 15.45-.01-.82-.89-1.65-1.78-2.47-2.67l-.16.05c-3.21-1.31-7.14-1.51-10.22.26m.62 3.44c1.98 3.22 7.23 3.32 9.1-.07-3.03-.16-6.07-.17-9.1.07z"/>
    <path fill="#5e1011" opacity=".8" d="M60.33 76.57c.05.02.14.05.18.07-.04-.02-.13-.05-.18-.07z"/>
    <path fill="#661212" opacity=".85" d="M63.14 77.13l1.57-.08.07.81-.78.5-.84-.41-.02-.82z"/>
    <path fill="#020000" opacity=".27" d="M59.1 84.93c3.03-.24 6.07-.23 9.1-.07-1.87 3.39-7.12 3.29-9.1.07z"/>
    <path fill="#2c0808" opacity=".52" d="M74.77 97.73c.28-.45.83-1.35 1.1-1.8l.39.85-.57.92-.92.03z"/>
</svg>
