<svg width="128pt" height="128pt" viewBox="0 0 128 128" xmlns="http://www.w3.org/2000/svg">
    <g fill="#fff">
        <path d="M51.65 27.97c3.53-2.86 8.05-4.64 12.48-5.44 4.15.99 8.01 3.02 11.69 5.15-2.72 1.64-5.9 2.29-9.02 1.56-1.22 1.71-1.63 4.16-3.71 5.06-.66-1.66-1.38-3.29-2.13-4.9-3.2.36-6.41.02-9.31-1.43zM61.16 42.41c.85-1 1.71-2 2.58-2.98.71 1.1 2.05 1.97 2.05 3.39-1.34 1.54-3.38.84-4.63-.41zM50.55 49.47c3.91-5.18 11.54-5.01 17.47-4.57 3.16 1.01 7.26 1.45 8.95 4.69 4.34-.25 5.96 4.7 9.21 6.72-3.81 3.2-7.93 6-12.37 8.26 4.9-.76 8.51-4.4 12.27-7.29.47.35 1.4 1.03 1.86 1.37-3.46 2.89-7.2 5.6-11.61 6.8-4.22 1.74-9.76 1.23-12.55 5.46l-3.63-3.33-.66 1.25c.13-1.54.3-3.08.7-4.58l-.84.8c-3.77-.54-7.74-1.12-10.92-3.37-2.41-1.6-4.68-3.4-7.09-5 2.78-2.64 4.96-7.03 9.21-7.21m13.09 17.51c-.67-1.56-2.48-.55-3.63-.34.95.35 2.85 1.06 3.8 1.41 2.74-1.77 5.98-2.26 9.12-2.86l-.19-.98c-3.1.66-6.34 1.09-9.1 2.77z"/>
        <path d="M41.6 60.38c-1-.6-2.64-2.65-.59-3.25 4.25 3.16 8.35 7.42 14.02 7.6-.1.48-.29 1.46-.39 1.95-4.62-1.46-9.3-3.08-13.04-6.3zM41.24 61.97c1.56.89 3.11 1.78 4.66 2.67-.8 6.62 1.7 12.87 3.51 19.09.97 3.29 3.56 5.8 4.5 9.1.38 1.48.93 2.92 1.86 4.14 2.32 3.39 4.7 6.73 6.95 10.17-.01 1.69-.01 3.37-.04 5.07-6.44-6.93-10.69-15.56-14.86-23.96-3.41-8.37-6.02-17.22-6.58-26.28zM81.52 64.62c1.57-.87 3.12-1.77 4.71-2.6C85 76.01 80.12 89.61 72.52 101.4c-2.3 3.77-4.44 7.75-7.76 10.74.03-1.7-.41-3.47.01-5.14 2.3-4.03 5.8-7.34 7.41-11.77 1.66-4.45 4.96-8.09 6.22-12.7 1.53-5.86 3.89-11.72 3.12-17.91z"/>
        <path d="M47.23 69.18c4.35-2.08 9.32-.48 13.72.65.95.82 1.89 1.66 2.83 2.51l2.43-2.49c4.45-1.2 9.32-2.49 13.83-.85-.45 4.91-1.89 9.66-3.74 14.2-2.26 4.62-6.02 8.18-9.42 11.94-2.14 0-4.58.62-6.53-.41-3.68-3.45-7.2-7.25-9.43-11.82-1.74-4.43-2.87-9.05-3.69-13.73m10.75 5.87c2.01.89 3.94 2.27 6.21 2.29 1.89-.49 3.61-1.41 5.32-2.32-.63-1.13-1.22-2.28-1.81-3.43 1.07 3.17-2.3 3.21-4.38 3.98-1.9-.95-4.82-1.38-3.75-4.27-.49 1.27-1.03 2.52-1.59 3.75m-2.25 9.09c1.04-.44 2.08-.92 3.1-1.41 4.29.18 8.9-.91 12.84 1.32-2.14-2.23-4.93-4.83-8.26-3.52-3.04-1.46-5.68 1.74-7.68 3.61m3.26.72c1.98 3.26 7.45 3.54 9.33.01-3.1-.24-6.23-.3-9.33-.01z"/>
    </g>
    <path fill="#e8e8e8" opacity=".91" d="M56.35 65.97c.58.08 1.75.22 2.33.29.39 1.52-3.01 1.34-2.33-.29z"/>
    <path fill="#5e5e5e" opacity=".37" d="M53.91 92.83c2.07-1.02 4.07 3.23 1.86 4.14-.93-1.22-1.48-2.66-1.86-4.14z"/>
</svg>
