<svg width="128pt" height="128pt" viewBox="0 0 128 128" xmlns="http://www.w3.org/2000/svg">
    <g fill="#fff">
        <path d="M25.81 26.73c1.66-2.14 3.24-4.51 5.84-5.58 1.58 1.11 3.44 1.61 5.27 2.15 6.27 2.13 11.7 7.35 18.66 6.94-.21.37-.64 1.1-.85 1.46-4.24 1.8-8.78 2.82-13.38 3.09-1-2.39 2.11-2.11 3.42-3.01-1.25-.26-2.59-.03-3.74-.71-.59.49-1.18.98-1.77 1.48.09.56.26 1.67.35 2.23-4.68-1.39-4.58 5.83-8.87 5.85l-1.79.27c3.57-3.73 7.4-7.36 9.71-12.06-5.18 5.19-9.6 12.06-17.29 13.74C26 37.55 31.84 33.42 35.3 27.42c-5.27 4.67-9.72 10.25-15.21 14.73-1.63 1.9-4.3 1.89-6.55 2.39 6.25-6.03 14.05-10.89 18.24-18.74-5.97 6.41-12.17 12.67-19.28 17.83-1.38.85-3.1.73-4.65 1.04 6.49-5.45 12.84-11.16 17.96-17.94zM95.84 21.16c3.69 1.89 5.5 5.84 8.26 8.74 4.83 5.3 9.84 10.55 15.76 14.65-1.79-.23-3.8.06-5.32-1.13-6.86-5.21-13.08-11.2-18.79-17.63 3.87 7.98 11.96 12.49 17.93 18.7-1.63-.29-3.24-.62-4.84-.98-4.37-4.1-9.03-7.92-12.91-12.51-1.13-1.38-2.44-2.61-4.03-3.44 3.88 5.78 9.57 9.99 14.06 15.24-3.11-1.27-6.23-2.68-8.78-4.92-3.18-2.63-5.12-6.45-8.46-8.92.73 1.69 1.96 3.07 3.16 4.44-2.62 2.53-4.52-1.39-6.14-3.04-.97.64-1.89 1.35-2.82 2.04 1.06.07 2.13.03 3.13-.35.68.69 2.04 2.08 2.72 2.77-4.57-.59-10.37.19-13.98-3.03-.54.72-1.04 1.47-1.57 2.2 4.51 1.11 9.13 1.52 13.76 1.61 1.96-.14 3.85.91 4.87 2.57 5.26 9.08 6.99 19.68 11.8 28.97-6.86-4.25-8.64-12.42-11.83-19.23-1.31-2.99-2.25-6.13-3.7-9.05 1.11 7.65 5.57 14.37 7.18 21.91-7.53-4.7-8.11-14.4-11.93-21.65-.19.11-.57.32-.76.42 1.86 5.25 3.54 10.57 5.31 15.85-4.92-3.94-7.1-9.85-9.41-15.48.34 2.82 1.38 5.48 2.18 8.18-4.74-.58-4.86-6.08-7.73-8.86.44 1.99 1.18 3.9 1.78 5.85-1.43-.84-3.09-1.41-4.25-2.64-1.32-1.91-1.52-4.51-3.44-6.01.53 2.11 1.4 4.12 1.75 6.27-1.98-1-3.57-2.66-4.37-4.75-.21-2.73 1.94-4.76 3.11-7.01 1.7.9 3.39 1.84 5.08 2.76.31-1.24-.29-2.37-.75-3.48 5.55.54 10.21-3.12 15-5.34 2.85-1.58 6.12-2.14 8.97-3.72z"/>
        <path d="M38.63 35.62c7.31.14 14.93-.55 21.19-4.69 1.05 2 2.84 3.77 3.1 6.1.22 2.66-2.33 4.2-3.94 5.84.31-2.16.68-4.32 1.09-6.47-2.2 3.13-2.83 7.93-7.48 8.48.6-1.77 1.27-3.53 1.87-5.31-3.19 2.46-2.97 8.09-7.83 8.69.89-2.75 2.09-5.46 2.05-8.41-2.04 5.62-4.09 11.55-9.04 15.34 1.52-5.56 3.78-10.89 5.18-16.49-2.37 2.42-2.98 5.8-4.12 8.86-2.11 4.86-3.53 10.5-8.62 13.17 1.78-7.5 5.68-14.31 7.56-21.78-1.66 2.11-2.35 4.75-3.35 7.2-1.23 3.35-3.04 6.47-4.14 9.87-1.43 4.41-4.49 8.12-8.08 10.98 4.25-9.55 6.47-19.93 11.65-29.05.73-1.05 1.91-1.6 2.91-2.33z"/>
    </g>
    <path fill="#f2f2f2" opacity=".95" d="M91.27 35.86c.54-.5 1.07-1 1.61-1.51 1.14 2.73 4.01 4.14 5.55 6.62-3.57.38-5.53-2.54-7.16-5.11z"/>
</svg>
