<svg width="128pt" height="128pt" viewBox="0 0 128 128" xmlns="http://www.w3.org/2000/svg">
    <g fill="#b23031">
        <path d="M90 18.09c.51-.36 1.53-1.07 2.04-1.42.45 3.01 1.02 6.01 1.5 9.02-.34-.15-1.03-.44-1.37-.59l-.57-.33c-1.34 1-2.6 2.11-3.84 3.24-2.03.85-3.04 5.48.07 4.55 2.34-1.66 4-4.11 4.6-6.93.26.43.8 1.3 1.07 1.73-.74 1.61-1.54 3.19-2.35 4.76 4.05 2.02 6.24 6.48 6.79 10.81.39 3.06 1.92 6.31 5.09 7.26-.7 3.13-5.34 1.4-7.08-.17 2.77 5.28 1.46 11.75 5.18 16.63-3.5.22-6.75-1.21-8.79-4.08 1.2 3.83 3.95 7.2 3.88 11.37.14 2.37-.3 5.55 2.63 6.39.69-.18 2.07-.53 2.76-.7-.55 3.42-3.21 6.43-6.68 7.01-2.75.17-5.2-1.54-6.91-3.53.79 2.75 1.45 6.13 4.18 7.67 2.29 1.72 5.39.87 7.63-.48-.83 3.49-3.11 6.71-6.41 8.24-3.18 1.7-7.01 1-10.25-.15l-.15-.71c-.23-1.07-.93-1.68-2.09-1.85-.82-.76-2.46-2.3-3.27-3.07.96 3.11 2.79 6.13 5.86 7.52.03.01.09.04.12.06 1.43.54 2.86 1.05 4.31 1.53l-2.22 2.3c-4.71 1.31-10.36.7-13.96-2.86-3.8-4.58-5.23-10.62-5.68-16.44-6.78 2.28-12.49 6.82-17.85 11.42-3.58 3.11-8.72 2.73-12.81.91-3.22-2.5-4.52-8.11-.06-10.1-.8 2.32-1.56 5.71 1.57 6.61 4.04.43 6.6-3.15 9.1-5.71 2.78-3.21 5.23-6.77 8.71-9.28 3.35-2.77 7.67-3.69 11.61-5.28-4.16-1.04-7.63 1.99-11.61 2.43-3.81.45-7.78.16-11.33-1.34-2.8-1.1-4.6-3.65-6.5-5.84-1.07-1.95-.65-4.23-.51-6.33l1.97-.24c.81 1.88 1.13 4.36 3.04 5.49 3.53.96 7.01-.8 9.95-2.58 2.69-1.5 5.31-3.34 8.42-3.82 4.38-.65 8.84.85 13.18-.27 3.76-.69 7.15-2.59 9.94-5.15-2.12-2.85-3.92-5.9-5.83-8.89.8 3.03 2.38 5.8 3.05 8.85-5.03 4.24-12.08 3.29-18.16 3.05-4.84-.5-8.5 3.36-13.11 4.07.41-3.24-.08-6.61.97-9.76 1.03-.89 2.02-1.84 2.48-3.16 1.68.22 2.17 2.12 3.66 2.64 3.16.39 4.22-3.29 5.63-5.38 4.05.94 3.46 8.13 8.53 6.3-2.75-3.06-5.53-6.13-8.69-8.77-2.09-1.64-4.91-1.11-7.13-.07-.58.76-1.13 1.55-1.65 2.35-2.31-.77-4.05-2.53-5.98-3.93-.39-1.45-.84-2.89-1.24-4.33 1.47-1.59 3.09-3.05 4.78-4.4-1.83.11-3.66.33-5.49.51-.29-1.55.19-2.95 1.06-4.23 3.81-.95 7.73-.91 11.63-.9.5-1.25 1.01-2.5 1.5-3.76 3.27-2.32 7.36-2.23 11.06-3.42 4.45-.36 8.91.26 13.37.29-.05 1.02-.13 3.05-.18 4.06 2.01-3.21 6.33-4.72 6.83-8.82M65.28 30.45l1.05-.09c-.66.42-1.97 1.27-2.63 1.7-.64.76-1.41 1.5-1.51 2.55 2 .68 4.07.27 6.05-.19l.51-.54c1.45-.78 4.39-2.56 2.86-4.42-2.17-.26-4.28.39-6.33.99zM26.23 57.62c3.51.34 7.07 1.15 10.58.38-1.81 2.1-4.82 4.33-7.63 2.71-1.41-.53-2.04-2.02-2.95-3.09z"/>
        <path d="M30.22 70.38c1.53 2.74 2.28 6.89 6 7.38 2.13-.34 4.17-2.21 6.35-1.13 3.1 1.12 6.37 1.62 9.66 1.62-2.09 2.19-3.71 4.98-6.3 6.6-2.79.26-5.57-.38-8.3-.85-5.4-1.91-10.28-7.73-7.41-13.62zM57.48 93.93c.66-3.95 3.87-6.54 7.76-6.95 1.07 4.78 1.95 9.88 4.86 13.94 2.64 2.62 5.34 5.24 6.95 8.68l-2.94-1.57c-3.9-1.83-8.74-1.67-11.9-4.99-2.34-2.59-3.7-5.82-4.73-9.11zM52.57 93.57c1.25-.31 2.5-.61 3.76-.88.84 3.44 2.05 6.83 4.25 9.66-1.3.92-2.64 1.78-3.95 2.67-.71.46-1.44.86-2.2 1.2-4.63 1.65-9.61 1.13-14.23-.24 2.26-1.38 4.8-2.23 7.04-3.67.54-.8 1.05-1.61 1.53-2.45 1.22-2.13 2.45-4.25 3.8-6.29z"/>
    </g>
    <path opacity=".14" d="M87.76 28.01c1.24-1.13 2.5-2.24 3.84-3.24l.57.33.26.53c-.6 2.82-2.26 5.27-4.6 6.93.01-1.52.02-3.04-.07-4.55zM54.31 44.67c2.22-1.04 5.04-1.57 7.13.07 3.16 2.64 5.94 5.71 8.69 8.77-5.07 1.83-4.48-5.36-8.53-6.3-.3-.47-.89-1.42-1.19-1.9-2.03-.19-4.07-.38-6.1-.64zM26.04 52.64c4.36 3.93 11.48 4.13 16.2.7-1.32 2.05-3.42 3.37-5.43 4.66-3.51.77-7.07-.04-10.58-.38 1.86-.42 3.74-.76 5.61-1.11-2.08-.94-6.14-.69-5.8-3.87zM48.24 96.29c5.36-4.6 11.07-9.14 17.85-11.42.45 5.82 1.88 11.86 5.68 16.44 3.6 3.56 9.25 4.17 13.96 2.86-2.53 2.41-6.1 2.02-9.21 1.24.31 1.69.64 3.38.91 5.08-1.5-.21-3.28-.6-3.32-2.46l2.94 1.57c-1.61-3.44-4.31-6.06-6.95-8.68-2.91-4.06-3.79-9.16-4.86-13.94-3.89.41-7.1 3-7.76 6.95 1.03 3.29 2.39 6.52 4.73 9.11-1.71 1.05-3.53 1.97-5.58 1.98 1.31-.89 2.65-1.75 3.95-2.67-2.2-2.83-3.41-6.22-4.25-9.66-1.26.27-2.51.57-3.76.88-1.35 2.04-2.58 4.16-3.8 6.29-.3-.33-.9-.99-1.2-1.31-3.89.63-9.42 2.58-12.14-1.35 4.09 1.82 9.23 2.2 12.81-.91z"/>
    <path fill="#4b1313" opacity=".67" d="M87.83 32.56c-3.11.93-2.1-3.7-.07-4.55.09 1.51.08 3.03.07 4.55z"/>
    <path fill="#2e0c0c" opacity=".53" d="M65.28 30.45c2.05-.6 4.16-1.25 6.33-.99 1.53 1.86-1.41 3.64-2.86 4.42 1-1.08 1.98-2.16 2.96-3.25-1.77-.39-3.59-.51-5.38-.27l-1.05.09z"/>
    <path opacity=".11" d="M66.33 30.36c1.79-.24 3.61-.12 5.38.27-.98 1.09-1.96 2.17-2.96 3.25l-.51.54-5.13-.42c.15-.48.44-1.45.59-1.94.66-.43 1.97-1.28 2.63-1.7z"/>
    <g fill="#b53031">
        <path d="M27.53 32.52c3.63-2.41 9.78-2.57 11.9 1.87.81 1.98 1.77 5.15-.39 6.57-1.1-2.53-3.16-5.26-6.15-5.39-2.99.97-6.88 1.79-8.1 5.1-.38 1.16-.9 2.24-2.26 2.38.36-3.88 1.06-8.64 5-10.53z"/>
        <path d="M25.32 43.32c1.52-3.1 4.65-4.8 7.61-6.24.09 2.16-2.11 3.22-2.73 5.07-.51 3.4 2.52 6.71 5.9 6.79 3.5 1.06 6.66-1.02 9.83-2.13 1.67-.73 3.86.29 3.69 2.33-2.81.72-5.25 2.28-7.38 4.2-4.72 3.43-11.84 3.23-16.2-.7-2.24-2.56-2.48-6.44-.72-9.32z"/>
    </g>
    <path fill="#3b0f11" opacity=".64" d="M62.19 34.61c.1-1.05.87-1.79 1.51-2.55-.15.49-.44 1.46-.59 1.94l5.13.42c-1.98.46-4.05.87-6.05.19z"/>
    <path fill="#1d0708" opacity=".48" d="M77.08 46.9c1.91 2.99 3.71 6.04 5.83 8.89-2.79 2.56-6.18 4.46-9.94 5.15-4.34 1.12-8.8-.38-13.18.27-3.11.48-5.73 2.32-8.42 3.82l.12-1.91c-.93.03-2.79.09-3.72.13.85-3.17.45-6.47 1-9.66.26-.12.8-.36 1.06-.48-1.05 3.15-.56 6.52-.97 9.76 4.61-.71 8.27-4.57 13.11-4.07 6.08.24 13.13 1.19 18.16-3.05-.67-3.05-2.25-5.82-3.05-8.85z"/>
    <path fill="#260a0a" opacity=".51" d="M30.02 69.94c.88-.56 1.82-1.01 2.81-1.35-.7 2.71-1.12 6.54 2.01 7.9 2.29 1.33 4.38-.71 6.21-1.84-1.57-1.84-3.04-3.79-4.13-5.96 1.9 2.19 3.7 4.74 6.5 5.84 3.55 1.5 7.52 1.79 11.33 1.34 3.98-.44 7.45-3.47 11.61-2.43-3.94 1.59-8.26 2.51-11.61 5.28-3.48 2.51-5.93 6.07-8.71 9.28l.72-2.49c-3.04-.22-6.6.67-9.13-1.51 2.73.47 5.51 1.11 8.3.85 2.59-1.62 4.21-4.41 6.3-6.6-3.29 0-6.56-.5-9.66-1.62-2.18-1.08-4.22.79-6.35 1.13-3.72-.49-4.47-4.64-6-7.38l-.2-.44z"/>
    <g>
        <path fill="#731c20" opacity=".82" d="M80.93 95.83c1.16.17 1.86.78 2.09 1.85-1.67.36-2.37-.26-2.09-1.85z"/>
    </g>
    <g>
        <path fill="#581818" opacity=".75" d="M83.52 100.28c.03.01.09.04.12.06-.03-.02-.09-.05-.12-.06z"/>
    </g>
    <g>
        <path fill="#26090a" opacity=".44" d="M37.76 102.16c3.07 1.47 6.36 1.47 9.48.15-2.24 1.44-4.78 2.29-7.04 3.67 4.62 1.37 9.6 1.89 14.23.24-2.94 2.25-6.99 2.57-10.44 1.39-2.73-.91-6.55-1.76-6.23-5.45z"/>
    </g>
</svg>
