<svg width="128pt" height="128pt" viewBox="0 0 128 128" xmlns="http://www.w3.org/2000/svg">
    <g fill="#fff">
        <path d="M87.07 23.08c2.19-1.69 2.91-4.5 4.52-6.66 1.27 5.16 3.2 11.11-.61 15.74 4.66 2.08 6.35 7.23 7.05 11.89.45 3.42 3.01 6.04 6.25 7.02-3.44 1.42-6.9.26-9.65-2.02 4.86 4.85 1.81 12.89 6.86 17.68-3.88-.07-7.39-1.62-9.5-4.94 1.04 4.18 4.15 7.72 4.07 12.17.12 2.32-.22 5.55 2.63 6.37.77-.06 2.33-.19 3.11-.25-1.31 2.18-2.38 4.83-4.98 5.76-3.16 1.99-6.69-.66-9.06-2.73 1 2.85 1.6 6.27 4.51 7.85 2.39 1.95 5.45.47 7.89-.53-1.61 2.56-2.8 5.66-5.54 7.25-3.73 2.6-9.35 2.42-12.76-.69-3.11-2.36-4.46-6.12-6.01-9.55.82 6.64 4.89 13.8 12.24 14.49-4.51 4.7-12.78 3.25-16.78-1.37-3.35-4.63-4.71-10.38-5.2-15.99-4.89 1.91-9.37 4.76-13.52 7.96-2.74 1.99-4.93 5.01-8.41 5.76-4.62 1.26-10.8-.91-11.55-6.17-.73-2.2 1.29-3.57 2.54-5.01-.33 1.71-.6 3.42-.77 5.15 1.93 1.88 4.98 2.14 7.06.35 5.07-3.71 7.57-9.83 12.65-13.51 3.38-3.21 8.01-4.24 12.35-5.44-4.17-1.36-7.58 1.97-11.6 2.35-6.01.87-13.47-.35-16.81-6.02-2.21-2.48-2.6-6.33-.13-8.79 1.08 2.4 1.32 5.82 4.16 6.89 7.28.83 11.87-6.88 18.91-7.13 3.7-.43 7.42.91 11.11.07 3.91-.83 8.01-2.24 10.59-5.47-2.06-2.73-3.81-5.66-5.52-8.62.82 3.05 2.19 5.9 3.47 8.78-3.52 2.87-8.25 3.52-12.65 3.57-3.97-.27-8.23-1.22-11.9.87-2.36 1.37-4.91 2.32-7.6 2.84.93-2.95.55-6.04.75-9.08 1.65-1.14 2.84-2.75 3.67-4.56 1.18 1.24 1.82 3.97 3.98 3.35 3.16-.24 3.25-5.05 6.19-5.2 1.4 1.83 2.1 4.08 3.48 5.92 1.16.3 2.36.39 3.58.27-2.47-3.42-5.71-6.19-8.73-9.11-3.12-2.15-7.38-.63-9.22 2.46-1.81-1.39-3.6-2.81-5.53-4.04-.25-1.57-1.37-3.29-.43-4.81 1.26-1.65 3.2-2.59 4.59-4.12-2.02.19-4.04.47-6.04.82-.11-1.61-.09-3.62 1.76-4.22 3.67-.99 7.57-.19 11.29-1.02.27-1.05.54-2.1.79-3.16 3.25-2.77 7.6-2.56 11.46-3.84 4.11-.31 8.23.26 12.34.32 2.21 1.35-1.35 3.6-.91 5.69 1.73-1.98 3.49-3.94 5.56-5.59m-.39 9.54c4.04-.67 5.54-5.09 6.16-8.6-3.04 1.46-6.97 4.79-6.16 8.6m-24.86 1.7c4.25 1.25 9.07-.2 10.75-4.57-4.24-.9-8.45.94-10.75 4.57z"/>
        <path d="M30.73 78.53c-2.17-3.36-1.14-7.47 1.62-10.09-1.09 2.94-1.1 6.56 1.85 8.4 2.05 2.06 4.57-.16 6.55-1.13 3.77 1.8 7.95 2.41 12.09 2.51-2.28 1.94-4.03 4.38-6.16 6.45-5.89 1.14-12.45-1.22-15.95-6.14zM58.19 92.16c.65-3.31 4.25-4.26 6.95-5.26 1.31 5.86 2.24 12.71 7.39 16.58 2.1 1.65 3.25 4.12 4.55 6.38-3.74-3.87-9.77-2.73-13.78-6.11-3.29-2.82-5.76-7.13-5.11-11.59z"/>
        <path d="M48.13 101.17c2.02-3.44 3.5-8.19 8.18-8.62.61 3.62 1.96 7.08 4.22 9.99-3.67 2.04-7.25 4.75-11.62 4.91-3.88.11-8.68-.6-10.6-4.48 3.17 2.03 7.74 1.51 9.82-1.8z"/>
    </g>
</svg>
