<svg width="128pt" height="128pt" viewBox="0 0 128 128" xmlns="http://www.w3.org/2000/svg">
    <g fill="#fff">
        <path d="M48.01 35.45c2.62-1 3.77 1.93 5.51 3.16 5.82 4.1 14.18 4.03 20-.01 1.82-1.15 2.89-4.42 5.58-2.99-2.2 3.29-5.05 6.5-9.06 7.49-6.2 2.41-13.18.68-18.7-2.64-1.17-1.63-2.31-3.28-3.33-5.01zM27.18 37.12c2.19 1.59 3.53 3.98 5.15 6.09-2.24 3.63-4.21 7.46-4.95 11.7-.08 2.13-2.14 3.07-3.58 4.22.57-6.15 1.19-12.62 4.37-18.06-.33-.59-.65-1.18-.98-1.76-2.58 6.23-4.05 12.84-4.65 19.56-1.59 3.35 1.65 5.95 2.48 8.99.22 2.03 1.91 1.97 3.48 1.63.7-1.2 1.37-2.41 2.03-3.64-.76-2.16-2.76-3.54-4.67-4.64 4.09-5.27 2.48-13.26 8.01-17.79-.42 5.57-2.02 10.99-2.15 16.6-.54 6.13.79 12.21 2.36 18.11 1.09.53 2.38 1.81.22 1.71 1.43 5.56 3.31 10.99 5.41 16.33-1.78 4.04-3.27 8.2-5.2 12.18-1.71-.69-3.49-1.56-4.12-3.44.2-1.32.45-2.62.77-3.91-.72-.62-1.44-1.24-2.17-1.85-.02-.67-.08-2.01-.1-2.68-1.26-1.13-2.46-2.33-3.71-3.47.2-1.34.4-2.67.61-4.01-1.72-1.45-4.8-2.19-4.71-4.97.69-4.65 2.84-9.11 2.77-13.89-.86-3.05-2.64-5.9-2.37-9.18.32-4.12.56-8.28 1.23-12.36 1.51-3.8 2.03-8.11 4.47-11.47m-.9 48.46c-.71-.18-2.14-.53-2.86-.71-1.16 2.45 5.7 4.37 2.86.71m.96 7.63c-.86 1.43 1.46 1.98 2.03 2.97.84-.03 2.53-.1 3.38-.14-1.71-.94-3.23-3.56-5.41-2.83z"/>
        <path d="M40.57 46.89c1.31-4.14 3.53-7.96 6.82-10.84 1.49 1.64 2.55 3.68 4.32 5.06 5.77 3.34 13.02 4.67 19.32 1.98 3.81-.97 6.18-4.28 8.69-7.04 3.15 3.12 5.75 6.9 6.76 11.28l-.84 1.77c.4.6.81 1.2 1.22 1.81l.9-.69c.02.69.05 2.09.07 2.78-1.34.14-2.68.27-4.01.37.49-.38 1.47-1.16 1.96-1.54-.55-.42-1.1-.84-1.65-1.27-4.23 4.45-11.53 2.43-15.58 6.98-1.8 3.61-1.16 7.86-.9 11.74.66-2.17.86-4.45 1.17-6.68 3.01 2.36 7.04 2.79 10.64 1.72 4.43-1.71 4.59-7.49 8.87-9.42 1.76 6.51.56 13.54-.7 20.08-.37 3.24-4.25 4.28-6.95 3.29-1.38-1.77-.24-3.46.94-4.84-1.13.35-2.25.71-3.39 1-.66.7-1.32 1.39-1.98 2.09.1 2.23-.09 4.86 1.84 6.44 1.54 1.85 4.15 1.75 6.06 2.96-2.48 7.03-7.38 12.8-12.43 18.15-1.54-3.22-4.29-6.25-8.17-6.21 3.25 1.06 5.83 3.1 6.99 6.4-3.3 4.44-10.81 4.46-14.09-.01 1.1-3.36 3.81-5.22 6.97-6.38-3.84.03-6.71 2.95-8.12 6.28-5.14-5.49-9.78-11.44-12.77-18.39 3.28-.73 7.37-2.03 8.05-5.84.77-2.06-.23-3.96-1.58-5.47-1.19-.28-2.36-.62-3.54-.97 1.23 1.42 1.76 3.1 1.21 4.97-1.78-.14-3.89.59-5.45-.59-2.26-1.2-1.92-4.15-2.5-6.29-.65-5.47-1.58-11.26-.09-16.63 4.34 1.83 4.47 7.61 8.84 9.36 3.63 1.12 7.66.61 10.73-1.69.32 2.45.61 4.92 1.05 7.36.26-4.1 1.16-8.62-.8-12.45-3.41-4-9.48-2.58-13.52-5.59-2.21-2.36-3.27 2.21-5.72 1.26-.04-.62-.13-1.84-.17-2.45 1.79-.47 2.5-2.15 1.53-3.85m16.87 28.27c-.42 1.55-.81 3.11-1.1 4.69 2.21.82 4.4 1.75 6.69 2.34 2.5-.1 4.79-1.32 7.14-2.04.92-1.83-.28-3.8-1.16-5.4.37 2.76-1.86 4.18-3.86 5.47-2.66 1.58-4.85-1.48-6.94-2.66l.2-2.2c-.24-.05-.72-.15-.97-.2m-6.66 15.85c2.24.95 4.34-.31 6.41-1.11 5.56 2.07 11.69-1.4 16.9 1.7.49-.22 1.45-.64 1.93-.85-3.13-1.7-5.76-4.23-9.24-5.26-2.06 1.79-4.43 1.5-6.63.14-3.63.82-6.24 3.58-9.37 5.38m3.05 1.47c1.34 1.83 3.37 2.94 5.24 4.13 2.98.14 5.98-.1 8.96.09 1.74-1.43 3.88-2.42 5.19-4.31-6.23 2.51-13.13 2.44-19.39.09zM96.75 40.48c1.81-.28 2.67-1.78 3.36-3.32 4 7.92 5.53 16.86 5.32 25.68-.12 2.86-2.21 5.26-2.36 8.09.51 4.47 1.8 8.79 3.09 13.07-.48.89-.95 1.77-1.42 2.66-1.24.78-2.46 1.56-3.69 2.35l.69 4.01c-1.52 1.85-4.56 3.13-3.83 5.98-1.02 1.14-2.57 2.2-1.6 3.98 1.1 2.72-1.59 4.69-3.87 5.37-1.81-4.04-3.59-8.11-5-12.3 3.79-9.93 6.64-20.23 8.05-30.78 1.75 1.55 2.61 4.84 5.45 4.52 1.14-3.62 5.05-6.94 3.5-10.96-.44-1.95.33-4.61-1.63-5.87-.02 2.05.11 4.09.39 6.12-1.14-.86-2.28-1.73-3.38-2.64-.34-4.38-2.32-8.32-4.43-12.08-.79-1.41.9-2.64 1.36-3.88m2.24.1c.95 2.77 2.24 5.46 2.76 8.36.42 1.42.09 3.39 1.64 4.18.23-3.68-1.54-7.07-2.08-10.65-.58-.47-1.74-1.42-2.32-1.89m.84 48.11c2.23-1.06 4.49-2.27 5.81-4.48-2.63.43-7.42.32-5.81 4.48m-5.33 7.48c3.29.79 5.67-1.84 6.96-4.46-2.55 1.08-5.1 2.35-6.96 4.46z"/>
        <path d="M94.3 45.19c4.6 4.15 2.91 11.36 6.79 15.94-1.71 1.18-3.64 2.36-4.25 4.51-.48-.55-.95-1.11-1.42-1.66.16-6.31-1.72-12.49-1.12-18.79zM44.68 58.83c2.47-.69 5.03-.84 7.57-1.04 1.19.89 2.34 1.82 3.43 2.83-3.75 1.8-8.15 1.41-11-1.79zM71.33 60.61c1.09-1.01 2.26-1.94 3.46-2.83 2.52.22 5.07.36 7.53 1.04-2.84 3.22-7.25 3.6-10.99 1.79zM47.93 74.69c1.46 1.3 3.07 3.1 2.04 5.2-.88 3.4-4.54 4.71-7.72 4.73-.76-2.07-1.45-4.15-2.22-6.21 2.25.94 5.15 1.46 7.27-.06.16-.91.47-2.75.63-3.66zM77.35 80.63c-1.18-2.21-.31-4.53 1.69-5.86-.91 4.83 4.84 5.43 7.92 3.63-.76 2.08-1.47 4.19-2.23 6.27-2.83-.31-6.35-.92-7.38-4.04z"/>
    </g>
    <path fill="#0c0c0c" opacity=".05" d="M99.83 88.69c-1.61-4.16 3.18-4.05 5.81-4.48-1.32 2.21-3.58 3.42-5.81 4.48z"/>
</svg>
