<svg width="128pt" height="128pt" viewBox="0 0 128 128" xmlns="http://www.w3.org/2000/svg">
    <g fill="#fff">
        <path d="M49.55 17.73c10.06-1.31 20.5-1.7 30.43.67 1.49.06.98 2 .08 2.54-10.72-3.06-22.38-2.69-33.17-.04-2.45-2.15.98-2.83 2.66-3.17z"/>
        <path d="M52.76 22c1.57-1.59 3.68-2.25 5.83-2.67-.67 1.85-2.3 4.01-.84 5.93 3.11 3.36 9.29 3.51 11.8-.6 1.22-1.76-.17-3.42-.89-5.03 1.59.76 8.33-.16 3.97 2.84.65-.42 1.95-1.24 2.6-1.66l.82 3.28-2.68-1.84c2.99 3.14.75 7.14-1.14 10.07-2.06 2.91-5.65 3.66-8.87 4.57 5.77.66 10.82-4.53 11.73-9.94.68-.63 1.36-1.26 2.05-1.88.26 4.69-1.01 10.28-5.58 12.59-5.96 2.91-14.35 3.25-19.02-2.18-2.69-3.91-3.98-9.57-.58-13.5.37 2.69.1 5.51.92 8.13 1.92 3.85 6 7.42 10.58 6.58-3.23-.69-6.7-1.57-8.76-4.39-2.55-2.79-2.07-6.83-1.94-10.3z"/>
        <path d="M59.59 21.26c.67-.49 2.01-1.46 2.68-1.95 2.76-.28 7.04 1.36 6.08 4.8-2.26 2.93-6.95 2.64-9.38.04.15-.72.46-2.17.62-2.89zM46.42 22.31c1.3 3.06 3.18-2.31 5.42-1.17-.49.45-1.49 1.33-1.99 1.77-1.02 2.93-1.78 6.07-.76 9.11-4.32 3.49-8.5 7.69-9.95 13.23-1.93 8.44-3.66 17.17-2.41 25.85 1.39 8.51 3.27 17.01 6.54 24.99-1.77 4.63-3.56 9.26-5.49 13.82-.26 1.38-1.61 1.65-2.71 2.03 1.05-5.51 3.93-10.49 5.77-15.78-3.49-6.94-4.96-14.67-6.75-22.17-2.01-11.34-.87-23.2 2.94-34.06 2.31-6.13 6.62-11.16 10.18-16.57-6.43 4.78-9.76 12.47-12.77 19.67-1.36-1.27-2.69-2.56-3.96-3.89 3.43-4.59 8.25-8.38 10.38-13.78 1.91-.92 3.76-1.95 5.56-3.05zM75.78 20.73c1.71.7 3.35 1.61 4.37 3.19 3.33 4.72 6.75 9.41 9.3 14.62 4.21 10.95 5.33 23.02 3.7 34.61-1.84 7.79-3.39 15.79-7 23 1.91 4.96 4.12 9.81 5.82 14.84L90.91 112c-3.83-4.51-4.65-10.84-7.34-16.05 3.5-7.2 4.85-15.16 6.41-22.94 1.78-9.01-.03-18.15-1.89-26.99-1.21-5.89-5.69-10.34-10.18-14.01 1.4-3.92-.22-7.86-2.13-11.28z"/>
        <path d="M80.07 22.06c3.8 2.47 8.11 3.89 12.12 5.95-.42 3.89 1.68 7.19 3.95 10.11-.24 2.83-2.3 5.28-2.86 8.13-2.3-9.02-7.46-17-13.21-24.19zM27.17 35.02c3.22-3.8 7.45-6.52 11.56-9.24-.17.82-.49 2.45-.66 3.26C35.35 32 32.88 35.18 30 38c-.96-.98-1.9-1.98-2.83-2.98z"/>
        <path d="M93.69 29.38c2.23 1.83 4.78 3.81 5.41 6.8-3.42 1.93-5.98-3.91-5.41-6.8z"/>
    </g>
</svg>
