<svg width="128pt" height="128pt" viewBox="0 0 128 128" xmlns="http://www.w3.org/2000/svg">
    <path fill="#b0292c" d="M68.82 17.45c4.33-.76 9.4 1.31 11.34 5.37 1.25 5.58.5 11.58-2.29 16.6-.59-1.61-1.19-3.2-1.8-4.8-1.57-.18-3.13-.33-4.7-.45.15 2 .06 4.05.68 5.99 2.26 7.53 4.59 15.13 8.62 21.94 3.65-4.5 8.25-8.13 12.61-11.91.96-.43 1.61-1.12 1.95-2.09 3.99-7.06-1.72-14.34-3.98-20.9 5.82 2.32 10.24 7.78 11.74 13.83 1.97 6.98 2.51 14.65-.04 21.56-1.34-1.86-2.02-4.07-2.75-6.21-4.37-1.01-8.05 2.13-10.79 5.1-2.53 4.59-5.71 8.78-8.26 13.37-2.99-1.22-2.45-5.82-6.25-5.88-1.19-4.63-3.45-8.87-4.84-13.42-1.06-5.81-1.62-11.69-2.82-17.47-.37-2.37-1.4-4.85-.43-7.19 2.44-1.65 5.8-2.13 7.44-4.79 1.82-4.18-3.17-6.17-5.43-8.65z"/>
    <path fill="#b22829" d="M49.04 22c2.65-3.37 7.08-4.92 11.28-4.86-1.13 2.02-2.97 3.44-4.83 4.74-.61 2.08-1.02 4.29-.01 6.31 2.34.73 5.12.81 6.94 2.64.51 3.98-.9 7.86-1.66 11.72-.94 3.98-1.28 8.07-1.59 12.14-1.24 4.97-4.04 9.42-5.01 14.49-.76.04-2.28.13-3.04.17-.86 1.62-1.67 3.27-2.48 4.92-2.82-2.98-4.75-6.61-6.91-10.06-2.47-4.05-6.78-6.4-9.88-9.91-2.71 2.09-4.45 5.03-4.75 8.48-3.52-5.75-3.36-12.89-1.85-19.25 1.34-4.98 3.58-10.09 7.69-13.37.95-.42 1.67-1.09 2.16-2 1.2-1.04 2.58-1.8 4.15-2.29-1.95 3.34-4.93 6.28-5.52 10.26-.62 3.96-2.69 8.24.05 11.89.34.96.96 1.68 1.88 2.17 3.69 3.43 7.77 6.43 11.4 9.92l-2.6.5c1.15 1.8 2.5 3.54 4.52 4.41.13-4.34 2.35-8.14 3.65-12.17 1.39-3.61 2.38-7.45 4.62-10.65.08-2.69.1-5.37.18-8.05-2.81-.97-5.09 1.03-6.76 3.02-2.65-4.49-3.33-10.25-1.63-15.17z"/>
    <path fill="#210708" opacity=".45" d="M32.94 30.16c-.33-1.78.39-2.45 2.16-2-.49.91-1.21 1.58-2.16 2z"/>
    <path fill="#1d0607" opacity=".38" d="M67.24 38.08c1.2 5.78 1.76 11.66 2.82 17.47-.99 1.47-1.5 3.2-.84 4.92 1.63 6.99 4.72 13.65 5.61 20.8-4.82-12.14-7.31-25-10.6-37.59l1.03.87c.83 1.81 1.69 3.61 2.58 5.39-.17-3.95-1.13-7.9-.6-11.86z"/>
    <path fill="#3e0e0f" opacity=".63" d="M59.17 54.69c.31-4.07.65-8.16 1.59-12.14-.14 4.07.1 8.32-1.59 12.14z"/>
    <path fill="#b02929" d="M64.23 43.68c3.29 12.59 5.78 25.45 10.6 37.59.22.62.65 1.85.87 2.47 4.21 1.43 8.08-1.58 11.96-2.76l-.16 1.68c2.73-.58 5.15-2.04 6.52-4.54 1.33-2.5 4.48-2.26 6.89-2.53.8-3.51 4.52-4.75 7.03-6.81 3.84-2.34 5.43-6.74 8.38-9.93 1.05 3.77-.42 7.51-.81 11.25-1.22 9.08-3.04 18.41-8.29 26.12-4.42 6.08-8.86 12.41-15.27 16.6 3.32-6.42 8.05-12.13 10.26-19.1 1.72.12 3.44.22 5.17.28-.93-1.33-1.99-2.53-3.18-3.63.7-3.62.86-7.35-.05-10.96-2.21 1.04-4.4 2.17-6.41 3.56-2.6 2.09-5.84 2.91-8.91 4.01-3.72 2.04-7.28 4.44-11.28 5.94-.43.3-1.3.91-1.73 1.22-1.25 2.23-3.06 4.07-5.15 5.52-.56-8.95-1.13-17.96-3.44-26.66-.66-2.99-1.68-5.87-2.92-8.65-1.46 1.73-2.53 3.75-2.75 6.04-1.47 9.29-3.68 18.72-2.21 28.17-2.76-1.96-5.67-3.72-8.18-6.02-.6-.81-1.38-1.39-2.34-1.71-4.41-2.51-8.57-5.67-13.6-6.88-1.53-1.39-3.3-2.45-5.11-3.43-1.82 0-3.64-.07-5.46-.14-1.88 8.33 3.29 15.47 6.34 22.73 1.38 2.82 3.18 5.42 4.56 8.25-3.92-1.89-5.72-6.19-9.02-8.87-3.16-2.6-4.44-6.56-6.39-10-1.05-1.98-1.37-4.46-3.43-5.73-1.94-7.83-2.79-15.9-4.85-23.7-.81-1.77.14-3.45.97-4.99 2.95 3.14 4.29 7.56 7.81 10.19 2.26 1.79 4.55 3.56 6.88 5.25 2.29 1.65 5.17 2.25 7.38 4.01.63.82 1.44 1.34 2.45 1.55 3.57 1.94 7.61 3.2 10.79 5.74 2.14-.08 4.15-.82 6.08-1.68 3.02-13.23 7.32-26.14 10-39.45z"/>
    <path fill="#100304" opacity=".33" d="M33.78 48.02c1.79-.29 2.41.44 1.88 2.17-.92-.49-1.54-1.21-1.88-2.17z"/>
    <path fill="#100304" opacity=".35" d="M93.28 50.19c-.46-1.74.19-2.44 1.95-2.09-.34.97-.99 1.66-1.95 2.09z"/>
    <path fill="#1c0607" opacity=".41" d="M61.56 70.39c.22-2.29 1.29-4.31 2.75-6.04 1.24 2.78 2.26 5.66 2.92 8.65-1.57-2.24-2.51-4.82-3.42-7.37C60.6 76.3 60 87.51 59.35 98.56c-1.47-9.45.74-18.88 2.21-28.17z"/>
    <path fill="#130404" opacity=".35" d="M34.91 77.52c1.69-.75 2.51-.23 2.45 1.55-1.01-.21-1.82-.73-2.45-1.55z"/>
    <path fill="#210707" opacity=".44" d="M97.74 82.97c2.01-1.39 4.2-2.52 6.41-3.56.91 3.61.75 7.34.05 10.96 1.19 1.1 2.25 2.3 3.18 3.63-1.73-.06-3.45-.16-5.17-.28 1.58-4.02 1.88-8.35 1.41-12.62-1.96.63-3.91 1.26-5.88 1.87z"/>
    <path fill="#110404" opacity=".35" d="M48.83 90.83c.96.32 1.74.9 2.34 1.71-1.75.67-2.53.1-2.34-1.71z"/>
    <path fill="#320c0c" opacity=".64" d="M75.82 94.14c.43-.31 1.3-.92 1.73-1.22l.02.93-.89.62-.86-.33z"/>
</svg>
