<svg width="128pt" height="128pt" viewBox="0 0 128 128" xmlns="http://www.w3.org/2000/svg">
    <g fill="#fff">
        <path d="M46.63 37.07c.33-2.82-.96-5.99 1.09-8.37.79 2.28.72 4.74 1.34 7.04 1.85 2.22 4.18 3.97 6.4 5.8-2.9 1.75-5.79 3.55-9 4.7.72-1.74 1.44-3.48 2.14-5.23-1.66-1.63-3.45-3.11-5.15-4.69-.29-2.33-1.66-5.48.73-7.19.67 2.69.57 5.71 2.45 7.94zM83.64 29.28c.41.18 1.22.53 1.62.7-.17 2.04-.37 4.07-.5 6.11-1.85 1.54-3.59 3.19-5.33 4.84.72 1.74 1.44 3.48 2.18 5.21-3.13-1.27-6.07-2.92-9.01-4.56 2.29-2.05 4.52-4.16 6.7-6.33.26-2.32-.15-5.05 1.88-6.73.64 2.74.09 5.54.18 8.32 1.86-2.1 1.94-4.93 2.28-7.56z"/>
        <path d="M68.89 30.36c-.21.72-.4 1.43-.58 2.16-1.27 1.3-3.12 2.5-3.12 4.53.02 1.82.28 3.63.39 5.45 3.6 2.42 7.13 4.96 10.6 7.58-4.22 5.67-9.65 10.56-12.17 17.33-2.58-6.68-7.97-11.52-12.05-17.23 3.38-2.63 6.86-5.14 10.49-7.42.01-2.4.82-4.89.02-7.23-1.11-1.52-2.63-2.67-3.82-4.12 1.64.76 3.18 1.71 4.74 2.62l.6-3.47c.27 1.17.52 2.34.75 3.52 1.5-1.09 3.17-2.08 4.15-3.72zM28.96 31.99c1.97 1.79 1.37 4.58 1.78 6.92.58-.59 1.16-1.18 1.73-1.77.07.55.2 1.64.26 2.19 2.93-.92 3.95 1.89 5.5 3.62l.62-2.24c1.13 2.01 1.74 4.18 1.85 6.5-.48-.98-1.43-2.93-1.91-3.91-.65-.3-1.29-.59-1.94-.89 1.52 1.98 1.96 4.5 2.69 6.83 3.15 1.4 6.95 1.45 9.75 3.47 4.52 5.95 8.74 13.18 7.25 20.97-2.17.35-4.31-.1-6.35-.86 1.61-1 3.55-.45 5.33-.57-.56-1.59-1.14-3.24-2.67-4.14-2.67-1.69-3.11-5.05-4.29-7.73l-.45.83-.34.63c-.18.01-.54.04-.71.05.32-1.82.91-3.66.54-5.53-1.5 2.62-1.57 5.61-.39 8.33.46 1.18.89 2.37 1.29 3.57.26.31.79.94 1.06 1.25-.48-1.46-.65-3 .16-4.36 1.71 1.65 2.56 6.09-.6 6.56 1.87 3.3 4.56 5.98 7.18 8.7.1 2 .12 4.01.08 6.02-1.67-1.85-3.7-3.29-5.78-4.63-2.64-7.08-4.56-14.4-6.31-21.75 1.71-1.52 3.29-3.89 1.71-6.06-.76 1.65-1.48 3.32-2.15 5.01-2.44-1.84-5.08-3.45-7.31-5.55-1.08-3.71-1.16-7.67-2.06-11.43-1.33-.45-2.67-.9-4.02-1.28 1.33.84 2.65 1.69 3.97 2.55-2.8.08-5.55-.73-8.17-1.64-.92-2.14-1.34-4.45-1.95-6.69.48.06 1.45.18 1.93.23.45 1.71.89 3.41 1.32 5.12.73.25 2.19.74 2.92.98-3.57-1.88-1.86-6.17-1.52-9.3zM96.02 38.99c2.65-1.52.85-5.16 2.98-7.15.9 2.73.68 5.63.72 8.46-2.09.17-4.09.81-6.08 1.43-.85 3.67-1.17 7.43-1.93 11.12-1.93 2.6-5.1 3.91-7.56 5.95-.62-1.64-1.34-3.24-2.11-4.81-1.77 2.07.24 4.36 1.7 5.92-1.83 7.43-3.57 14.92-6.51 22-2.1 1.15-3.97 2.65-5.54 4.46-.09-1.84-.08-3.69.03-5.53 1.66-3.22 5.31-5.08 6.52-8.59.95-2.8 1.66-5.69 2.88-8.39.99-2.58.19-5.24-.23-7.83-1.1 3.57-2.46 7.06-3.82 10.53l.3-.02.47-.1c1.92-1.62.81 2.65.35 3.51-.38 3.33-3.89 4.37-6.74 3.51-1.42-8.07 3.11-15.34 7.65-21.56 3.15-.88 6.31-1.74 9.4-2.83.56-2.05 1.13-4.14 2.29-5.95-.77-.06-1.38.2-1.84.79-.44 2.15-2.32-.88-.52-1.35.26-.37.78-1.12 1.04-1.5.54.79 1.06.86 1.56.23.32-2.38 3.06-1.9 4.76-2.41l-.32-1.97.55 2.08M73.44 69.27c-.18.73-.55 2.18-.73 2.9l3.5.08c.25-1.45 1.3-3.37.06-4.64-1.07.13-2.01.68-2.83 1.66zM100.77 41.22c-.32-2.11.04-5.69 2.2-6.52 1.37 2-.94 5.19-1.58 7.33l-.62-.81z"/>
        <path d="M66.45 38.71c4.35 2.56 8.48 5.53 12.96 7.89 2.37 1.53 5.17.13 7.71-.06l1.2-.11c-.67 4.17-6 2.88-9 4.22-3.5 3.96-5.89 8.72-8 13.51-1.5 2.84-.87 6.12-1.09 9.2 1.57 1.61 3.83 1.21 5.87 1.17-1.67 1.71-3.28 3.46-4.82 5.28-2.01-2.41-4.32-4.54-6.49-6.79-.72-3.46.49-6.87 2.31-9.78 3.02-4.84 6.69-9.25 10.48-13.49-3.77-2.35-7.26-5.11-10.81-7.76l-.32-3.28zM47.76 47.18c4.75-2.43 9.18-5.41 13.64-8.32l-.12 3.32c-3.32 2.76-7.18 4.84-10.32 7.83 3.87 5.48 8.89 10.26 11.57 16.51 1.02 2.1 1.17 4.62.52 6.82-2.11 2.17-4.3 4.26-6.21 6.61-1.61-1.75-3.2-3.52-4.81-5.27 1.76-.37 4.32.82 5.52-1.03.31-3.18.61-6.6-.91-9.54-2.12-4.76-4.47-9.55-8.07-13.38-3.02-.8-6.47-.68-8.94-2.88 2.5-1.86 5.43.18 8.13-.67zM94.63 42.95c.16-1.75 3.86-2.27 5.23-1.74-.7 1.65-3.59 2.12-5.23 1.74zM57.33 81.07c1.76-2.91 4.4-5.13 6.7-7.59 2.46 2.37 4.99 4.73 6.9 7.6-.14 7.11.08 14.34-2.6 21.07-2.6 3.96-4.34 8.67-3.83 13.45l-.37.28-.45.12c.18-4.87-1.2-9.73-3.98-13.75-2.54-6.77-2.79-14.06-2.37-21.18z"/>
    </g>
    <path fill="#cacaca" opacity=".79" d="M80.14 60.58c2.43-.31-.21 3.54-.45.77l.45-.77z"/>
    <g fill="#d2d2d2">
        <path opacity=".82" d="M48.11 63.45c2.51-.4.31 2.88-.54.66l.54-.66zM79.2 63.38l.93.25c1.39 2.11-2.56 1.35-.93-.25z"/>
    </g>
</svg>
