<svg width="128pt" height="128pt" viewBox="0 0 128 128" xmlns="http://www.w3.org/2000/svg">
    <g fill="#fff">
        <path d="M45.21 9.78c1.58 3.38 3.77 6.54 4.61 10.22.26 2.68-1.38 4.94-2.48 7.22-1.9-2.5-4.58-4.84-4.91-8.14.65-3.18 2.01-6.15 2.78-9.3zM77.77 20.03c.76-3.16 2.1-6.53 4.89-8.43 1.17 2.34 2.83 4.62 2.96 7.32-.5 3.28-3.01 5.66-4.89 8.21-1.09-2.31-2.55-4.53-2.96-7.1zM19.82 14.95c3.25 1.92 7.16 3.67 8.55 7.47 1.49 2.86 1.53 6.1 1.89 9.22-1.53-.57-3.07-1.12-4.62-1.65-.01-.41-.01-1.22-.01-1.63-.58.4-1.15.82-1.71 1.25-4.15-3.66-4.87-9.48-4.1-14.66m5.53 5.26c.47.52.47.52 0 0zM99.84 21.8c1.51-3.49 5.25-5.01 8.23-6.96.77 4.26.6 9.31-2.34 12.76-.85.96-3.12 3.55-3.46.44.13.43.4 1.28.53 1.7-1.65.52-3.28 1.11-4.9 1.73.37-3.27.22-6.73 1.94-9.67m2.41-1.54c.48.5.48.5 0 0zM33.59 17.29c3.03 1.09 5.49 3.32 7.29 5.94.42.03 1.25.1 1.67.13-1.43 1.75-.12 3.7.3 5.58-2.22-1.35-4.59-2.54-6.49-4.35-1.48-2.19-2.21-4.75-2.77-7.3zM62.52 20.3c.53-.93 1.07-1.85 1.63-2.76.94 2.1 2.68 4.04 2.6 6.48-.02 2.57-1.44 4.78-2.65 6.93-2.28-2.94-4.17-7.29-1.58-10.65zM87.04 23.24c1.79-2.72 4.36-4.92 7.34-6.24-.54 2.64-1.17 5.45-2.9 7.6-1.9 1.72-4.2 2.9-6.43 4.12.4-1.23.83-2.45 1.27-3.66-.32-.55-.63-1.11-.93-1.67.42-.03 1.24-.11 1.65-.15zM70.46 24.67c1.52-.47 2.82.16 3.98.99-.46 1.44-.61 3.02-1.35 4.36-1.07 1.56-3.03 1.57-4.71 1.85.93-2.54 1.88-5.26 4.78-6.18-.9-.35-1.8-.69-2.7-1.02zM53.72 24.88c2.42 1.49 4.7 3.25 5.8 5.97-.19.32-.56.94-.74 1.26-3.84-.2-5.11-3.92-5.06-7.23zM18.91 27.62c3.07 1.29 5.36 3.81 6.4 6.97-3.6-.3-6.14-3.49-6.4-6.97zM102.74 34.87c.85-3.35 3.2-6.09 6.41-7.38-.19 3.69-3.08 6.31-6.41 7.38z"/>
    </g>
    <path fill="#181818" opacity=".09" d="M62.22 15c1.22-.04 2.44-.07 3.67-.11l-.02.8c-.75.08-2.27.26-3.03.35.36.31 1.09.94 1.45 1.26l-.14.24c-.56.91-1.1 1.83-1.63 2.76-2.56-1.16-1.12-3.48-.3-5.3z"/>
    <path fill="#cfcfcf" opacity=".81" d="M25.35 20.21c.47.52.47.52 0 0z"/>
    <path fill="#d3d3d3" opacity=".83" d="M102.25 20.26c.48.5.48.5 0 0z"/>
    <path fill="#242424" opacity=".14" d="M55.25 24c3-1.5.1 3.33 0 0z"/>
</svg>
