<svg width="128pt" height="128pt" viewBox="0 0 128 128" xmlns="http://www.w3.org/2000/svg">
    <path fill="#9f2021" d="M44.22 26.75c3.44-5.99 8.54-11.47 14.91-14.37 4.6-2.38 9.96-.13 13.63 2.92.54.84 1.28 1.45 2.21 1.83.75.51 1.37 1.13 1.87 1.89.38.93 1.01 1.64 1.9 2.13 2.07 1.65 3.34 4.06 4.41 6.43 1.47 6.02 3.48 12.02 3.12 18.3-.71 1.72-1.39 3.46-2.27 5.1-1.58 2.98-4.72 4.91-5.83 8.18-1.28 3.55-1.44 7.37-1.77 11.1 1.87.98 4.03 2.26 6.15 1.11 1.84-1.4 2.76-3.67 3.62-5.75 4.87-12.6-1.34-26.95 4.66-39.26 3.32-2.79 7.86-4.1 12.15-3.44 4.35 1.68 6.5 6.93 6.21 11.33-.59 3.49-4.06 4.89-7.2 5.11-.94-.82-1.89-1.64-2.84-2.45.44-1.49.93-2.97 1.45-4.44 1.59.19 3.07.69 4.43 1.51-.93.25-2.78.73-3.7.98 1.04.3 2.79 1.35 3.46-.14 1.96-2.95.55-9.01-3.78-8.58-2.08.12-4.59-.03-6.09 1.72-1.7 2.29-2.63 5.13-2.7 7.98-.36 8.02.56 16.04.12 24.05-1.03 5.09-2.04 10.41-5.58 14.44-1.55.14-3.2-.04-4.66.61-.86 1.06-1.54 2.24-2.3 3.36 2 .82 4.11 1.71 6.32 1.24 4.01-1.44 7.15-5.29 7.33-9.62.96-5.65 1.46-11.87 5.06-16.58 2.55-3.47 7.12-4.88 11.27-4.13 4.36 1.87 6.35 7.25 5.81 11.73-.51 5.71-10.3 6.54-11.74 1.09-.63-2.2.77-4.06 1.9-5.77.88.05 2.65.16 3.53.22.39 1.95 1.2 4.55-1.49 5.31-.17-.87-.5-2.62-.67-3.49-.93 1.35-.65 2.92-.35 4.42 1.4-.04 2.8-.09 4.21-.13.85-2.93 1.49-6.55-.86-8.98-2.1-1.78-5.16-1.11-7.36.1-3.51 2.57-4.28 7.15-5.01 11.14-.74 3.39.35 7.09-1.43 10.24.02.78.08 2.34.11 3.12-.96.39-1.91.82-2.83 1.28-.05.82-.13 2.47-.18 3.29-.72-.11-2.18-.31-2.91-.42l-.53 1c-.3.33-.91 1.01-1.22 1.34-1.01-.15-1.98-.46-2.9-.94-.49.33-1.49.98-1.99 1.31-2.41-.95-4.84-1.86-7.24-2.83.97.73 1.94 1.47 2.92 2.2-.1 2.07-.27 4.16-.08 6.24 1.14 1.19 2.94.82 4.42.81 6.76-.55 13.57-4.28 20.33-1.6 3.29 2.77 6.51 6.41 6.48 10.99.49 3.94-2.05 7.52-4.83 10.05-2.77 1.14-6.46 1.02-8.53-1.42-1.41-1.52-3.58-3.45-2.65-5.74 1.22-2.6 4.29-5.88 7.36-3.96.17.83.52 2.49.69 3.32-.56.37-1.69 1.11-2.26 1.48-.03-.77-.08-2.3-.11-3.07-.73.83-1.47 1.66-2.21 2.49.13.67.38 2.01.5 2.68 2.17-.11 4.83.18 6.18-1.93 2.21-2.22 1.52-5.46.96-8.19l-.01-.06c-1.32-.82-2.61-1.68-3.88-2.57-.92.35-1.84.71-2.76 1.08-.52-.63-1.03-1.26-1.55-1.89-1.06.59-2.13 1.17-3.2 1.75-.6-.44-1.8-1.3-2.41-1.73l-2.06 2.54c-2.21-.85-4.53-1.84-6.46.19-1.48-.6-2.96-1.21-4.45-1.78.61 5.46 5.84 9.01 6.12 14.6 1.06 4.85-2.96 10.31-8.17 9.43-6.42.14-10.65-6.43-10.58-12.25 2.13-5.06 9.81-4.81 12.22-.11-.82 1.46-1.55 3.02-2.79 4.18-2.48.49-3.89-1.17-4.81-3.25 1.56.57 3.13 1.16 4.68 1.76-.12-1.37.52-3.46-1.19-4.07-1.96-1.1-4.12.88-4.88 2.6-1.34 2.05.94 3.76 2.5 4.73 2.19 1.37 4.94 1.45 7.26.33.55-.27 1.64-.81 2.19-1.08.3-7.11-6.2-12.02-11.92-14.87-9.18-4.44-18.86 2.39-24.03 9.77-.08 2.29-.36 4.95 1.75 6.48 3.15.85 6.84.61 9.2-1.9 3.2-2.27-1.09-7.76-4.13-6.04-1.56.8-1.08 2.68-1.19 4.09 1.53-.62 3.06-1.22 4.59-1.82-.54 1.12-1.15 2.19-1.83 3.22-2.61.55-4.76-1.52-5.07-4.01.5-1.41 1.53-2.62 2.89-3.26 3.12-1.27 6.24.18 8.68 2.1.52 3.99-1.3 7.9-3.82 10.89-3.45 2.89-9.39 3.77-12.83.4-2.05-2.17-2.35-5.46-1.97-8.29.67-5.16 5.83-8.3 6.09-13.62-1.53.53-3.05 1.08-4.57 1.64-1.19-.57-2.39-1.14-3.58-1.7l-1.75 1.91-2.91-2.49c-1.95 1.08-3.95 1.17-5.76-.19-.5.51-1 1.03-1.5 1.55-2.48-1.4-4.63.26-6.72 1.52l-.04.24c-.5 2.53-1.27 5.45.48 7.71 1.2 2.12 4.64 3.75 6.56 1.82 1.86-1.54-.78-3.3-1.38-4.87l-.64 3.45c-.32-.45-.95-1.37-1.26-1.82-.17-1.38-.78-3.63 1.32-3.59 3.61-.54 5.89 3.46 6.61 6.5-1.81 1.98-3.33 4.46-5.86 5.59-2.02.3-4.05-.03-6.06-.16-2.12-3.08-5.12-6.27-4.65-10.31-.06-4.8 3.46-8.57 7.03-11.32 7.88-2.5 15.42 2.78 23.31 1.84 1.9-2.33.46-5.97 2.06-8.59-1.8.77-3.63 1.46-5.47 2.15-.5-.24-1.5-.71-2-.95-1.85.49-3.59.25-4.92-1.19-1.89-.41-2.87-1.71-3.01-3.61-.41-.1-1.24-.29-1.65-.39-3.46-7.3-.66-16.29-5.52-23.11-1.29-2.24-3.95-2.72-6.19-3.51-4.24.68-5.61 5.44-4.29 9.05.52 2.29 3.35.96 5.01 1.24-.03-1.43-.12-2.87-.73-4.19-.19.87-.57 2.61-.75 3.47-2.86-.87-1.6-3.71-1.21-5.68 4.91-1.15 7.02 5.57 3.69 8.49-2.72 1.77-6.19.83-8.96-.31-3.18-5.81-.32-13.95 6.19-15.82 3.52.88 7.66 1.54 9.81 4.84 3.75 5.48 4.02 12.39 5.2 18.71.76 3.72 4.07 6.06 7.16 7.83 1.75-.29 3.49-.58 5.2-1.06 1.39-.66 1.35-1.21-.12-1.65-.56-2.91-3.63-2.79-5.94-2.86-1.8-2.51-3.2-5.27-4.23-8.18-2.86-10.56-.26-21.54-1.36-32.29-.37-2.94-2.04-5.53-4.24-7.45-2.51.3-5.82-1.16-7.7 1.09-1.55 2.23-1.92 5.82.09 7.88 1.08.36 2.15-.29 3.2-.43-.98-.25-2.95-.76-3.93-1.01 1.39-2 3.68-.81 5.53-.54.46 2.39-.12 4.71-2.52 5.73-2.92.17-6.11-1.22-6.92-4.25-1.25-4.8 1.76-9.59 5.54-12.34 3.81.15 7.87.34 11.11 2.62.94 1.04 1.9 2.11 2.57 3.36 4.69 13.48-2.77 29.46 6.03 41.82 1.88 2.38 5.13 1.2 7.25-.18-.49-5.23-.45-11.29-4.48-15.24-2.59-2.46-4.19-5.69-5.26-9.06-.74-6.61 1.82-12.89 3.37-19.19M49 45.59c.19 1.61.26 3.25.64 4.83 1.45 2.31 3.77 3.95 5.08 6.36-.64 1.6-1.52 3.09-2.06 4.72-.65 2.41.7 4.67 1.79 6.71 1.87.19 3.73.56 4.9 2.21.4-3.45.69-7.05-.85-10.29-.99-3.48-4.32-5.36-6.55-7.96-1.83-1.72-2.21-4.29-2.95-6.58m28.9.26c-.68 1.94-.91 4.16-2.33 5.74-2.31 2.9-6.01 4.83-7.07 8.59-1.39 3.02-1.41 6.38-.73 9.58 1.53-.7 3.12-1.26 4.76-1.64 2.79-3.37 2.01-7.72-.14-11.17.81-2.67 3.65-4.11 4.97-6.53.33-1.5.38-3.05.54-4.57z"/>
    <path fill="#0e0202" opacity=".33" d="M72.76 15.3c1.77-.6 2.5.01 2.21 1.83-.93-.38-1.67-.99-2.21-1.83z"/>
    <path fill="#090201" opacity=".3" d="M76.84 19.02c1.79-.35 2.43.36 1.9 2.13-.89-.49-1.52-1.2-1.9-2.13z"/>
    <g fill="#040100">
        <path opacity=".33" d="M34.74 25.24l2.4.64c1.65 3.3 2.38 6.92 2.58 10.59 2.77-2.63 1.74-7.13 4.5-9.72-1.55 6.3-4.11 12.58-3.37 19.19-2.75 8.15-.44 16.74 2.49 24.48-8.8-12.36-1.34-28.34-6.03-41.82-.67-1.25-1.63-2.32-2.57-3.36zM86.71 37.45c1.55-3.7.27-8.57 4.12-11.09-6 12.31.21 26.66-4.66 39.26.93-6.54 1.72-13.22.1-19.74.36-6.28-1.65-12.28-3.12-18.3 1.94 2.98 2.52 6.54 3.56 9.87zM49 45.59c.74 2.29 1.12 4.86 2.95 6.58 2.23 2.6 5.56 4.48 6.55 7.96 1.54 3.24 1.25 6.84.85 10.29-1.17-1.65-3.03-2.02-4.9-2.21-1.09-2.04-2.44-4.3-1.79-6.71.54-1.63 1.42-3.12 2.06-4.72-1.31-2.41-3.63-4.05-5.08-6.36-.38-1.58-.45-3.22-.64-4.83m4.45 18.42c.13 2.95 3.05 3.99 5.57 3.91-.26-3.12-.9-6.19-1.77-9.19-1.88 1.17-4.64 2.56-3.8 5.28zM31.62 78.97c.41.1 1.24.29 1.65.39.14 1.9 1.12 3.2 3.01 3.61 1.33 1.44 3.07 1.68 4.92 1.19.5.24 1.5.71 2 .95 1.84-.69 3.67-1.38 5.47-2.15-1.6 2.62-.16 6.26-2.06 8.59-7.89.94-15.43-4.34-23.31-1.84 1.31-1.07 2.89-1.85 4.64-1.6 6.23.31 12.18 2.81 18.48 2.55.13-1.75.27-3.49.4-5.22-5.68.88-13.25-.06-15.2-6.47zM79.55 84.54c-.98-.73-1.95-1.47-2.92-2.2 2.4.97 4.83 1.88 7.24 2.83.5-.33 1.5-.98 1.99-1.31.92.48 1.89.79 2.9.94.31-.33.92-1.01 1.22-1.34 1.01-.04 2.03-.09 3.04-.16-3.61 2.99-8.3 2.35-12.67 2.19 0 1.78.01 3.55.02 5.33 7 .04 13.62-3.16 20.63-2.65 1.34-.01 2.25 1.07 3.22 1.82-6.76-2.68-13.57 1.05-20.33 1.6-1.48.01-3.28.38-4.42-.81-.19-2.08-.02-4.17.08-6.24z"/>
    </g>
    <g fill="#050100">
        <path opacity=".31" d="M77.9 45.85c-.16 1.52-.21 3.07-.54 4.57-1.32 2.42-4.16 3.86-4.97 6.53 2.15 3.45 2.93 7.8.14 11.17-1.64.38-3.23.94-4.76 1.64-.68-3.2-.66-6.56.73-9.58 1.06-3.76 4.76-5.69 7.07-8.59 1.42-1.58 1.65-3.8 2.33-5.74m-8.12 12.86c-.88 2.98-1.53 6.02-1.75 9.11 1.37-.11 2.73-.23 4.1-.34.67-1.77 1.82-3.53 1.45-5.5-.71-1.61-2.49-2.26-3.8-3.27zM45.62 105.99c5.17-7.38 14.85-14.21 24.03-9.77-6.27-1-13.67-.45-17.85 5 1.78.06 3.56.12 5.33.13-1.78.39-3.64.58-5.3 1.4-1.36.64-2.39 1.85-2.89 3.26.31 2.49 2.46 4.56 5.07 4.01.68-1.03 1.29-2.1 1.83-3.22-1.53.6-3.06 1.2-4.59 1.82.11-1.41-.37-3.29 1.19-4.09 3.04-1.72 7.33 3.77 4.13 6.04-2.36 2.51-6.05 2.75-9.2 1.9 1.85-.24 3.71-.45 5.58-.64-2.47-1.73-4.46-4-6.09-6.51-.17 1.7-.34 3.4-.52 5.11l-.72-4.44zM69.62 107.11c.76-1.72 2.92-3.7 4.88-2.6 1.71.61 1.07 2.7 1.19 4.07-1.55-.6-3.12-1.19-4.68-1.76.92 2.08 2.33 3.74 4.81 3.25-.65.61-1.29 1.22-1.93 1.84 1.83.09 3.66.17 5.49.26-2.32 1.12-5.07 1.04-7.26-.33-1.56-.97-3.84-2.68-2.5-4.73z"/>
    </g>
    <path fill="#9c2021" d="M53.45 64.01c-.84-2.72 1.92-4.11 3.8-5.28.87 3 1.51 6.07 1.77 9.19-2.52.08-5.44-.96-5.57-3.91z"/>
    <path fill="#9a201e" d="M69.78 58.71c1.31 1.01 3.09 1.66 3.8 3.27.37 1.97-.78 3.73-1.45 5.5-1.37.11-2.73.23-4.1.34.22-3.09.87-6.13 1.75-9.11z"/>
    <path fill="#120303" opacity=".51" d="M46.11 77.27c1.47.44 1.51.99.12 1.65l-.12-1.65z"/>
    <path fill="#0c0202" opacity=".29" d="M21.15 96.71c.51 2.47.03 5.45 2.03 7.35.05-.72.14-2.17.18-2.89.35.75.86 1.35 1.55 1.83.31.45.94 1.37 1.26 1.82l.64-3.45c.6 1.57 3.24 3.33 1.38 4.87-1.92 1.93-5.36.3-6.56-1.82-1.75-2.26-.98-5.18-.48-7.71z"/>
    <path opacity=".07" d="M104.66 102.03c.39-1.78.69-3.58 1.14-5.34.56 2.73 1.25 5.97-.96 8.19-1.35 2.11-4.01 1.82-6.18 1.93-.12-.67-.37-2.01-.5-2.68.74-.83 1.48-1.66 2.21-2.49.03.77.08 2.3.11 3.07.57-.37 1.7-1.11 2.26-1.48.63-.41 1.27-.81 1.92-1.2z"/>
</svg>
