<svg width="128pt" height="128pt" viewBox="0 0 128 128" xmlns="http://www.w3.org/2000/svg">
    <path fill="#fff" d="M51.6 17.66c3.64-3.27 8.21-6.66 13.38-6.03 6.86 1.52 11.71 7.1 15.99 12.27 2.65 3.47 2.99 7.88 4.24 11.92 1.19 4.22 1.8 8.89-.34 12.93-.8 3.71-4.35 5.6-6.2 8.67-1.63 3.89-2.39 8.15-2.2 12.36 1.39 2.62 5.27 3.21 7.15.86 3.49-4.69 4.33-10.61 4.81-16.28.1-2.97.38-5.93.75-8.89 1.01 1.55 2.02 3.1 2.9 4.73-.28 4.63.96 9.42-1.08 13.76-.19 3.95-2.17 7.43-4.43 10.55l-2.1-.32c-.92.3-1.83.59-2.75.88-.66 1.17-1.34 2.33-2.06 3.47 1.97.87 4.07 1.36 6.21 1.63 5.41-2.14 8.61-7.67 8.22-13.43 1.5 1.57 2.48 3.52 3.04 5.6l.12.35c-2.33 2 .02 7.22-4.43 6.52 1.94 1.88-.19 4.52-2.42 2.83-.32 1.08-.84 2.04-1.55 2.88-.99-.32-1.95-.71-2.88-1.18l-2.08 1.44c-2.28-.96-4.67-1.67-6.87-2.82.83.82 2.19 1.27 2.54 2.46-.08 2.09-.22 4.17-.23 6.25 2.86 1.12 5.95.4 8.87-.07 2.28-.21 4.26.78 5.58 2.61-2.13-.65-3.53.55-4.7 2.18-1.54-2.36-3.99-1.42-5.7.08-2.93-1.4-6.09-2.24-8.35-4.77.3 2.63 3.94 2.78 4.28 5.37.58 3.44 3.83 5.63 4.47 9.04-.16.92-.47 2.77-.62 3.7-.23-1.37-.42-2.76-.62-4.13l-1.23.44c.04-.4.13-1.2.17-1.59-2.62-.91-4.62-2.84-6.56-4.74-5.07-4.19-12.45-5.8-18.46-2.68-3.99 1.45-6.46 5.07-9.79 7.48-.65.27-1.96.8-2.62 1.06.13-.73.38-2.21.51-2.95 1.21-1.5 2.45-3.03 2.9-4.95.5-2.62 3.21-3.68 4.47-5.85-2.26 2.59-5.64 2.98-8.42 4.64-.76-.58-1.51-1.19-2.24-1.8-1.28.13-2.38.75-3.34 1.58-1.09-1.18-2.31-2.22-3.87-2.72-.83 2.42-3.14 1.28-4.06-.17.22-.12.65-.38.87-.5-.77-.9-1.54-1.8-2.31-2.69.71-.06 2.13-.16 2.84-.21 5.34.73 10.87 3.42 16.26 1.66.1-2.29-.35-4.61-.02-6.88.82-.64 1.66-1.26 2.52-1.86-2.25 1.07-4.62 1.84-6.93 2.77-1.68-1.9-3.67-.3-5.62-.55-.22-.62-.68-1.86-.9-2.48-2.19 1.7-4.52-.97-2.59-2.92-1.48.12-2.61-.57-3.44-1.74 1.32-1.58-.18-3.13-.71-4.64-.13-1.33-.2-2.67-.19-4 .06-2.8.05-5.59-.01-8.39.73 1.13 1.47 2.26 2.18 3.4 1.77 3.24.66 7.32 2.54 10.56 1.3 2.78 4.03 4.4 6.62 5.79 2.15-.25 4.25-.76 6.26-1.56-.73-1.15-1.43-2.32-2.09-3.51-.9-.3-1.81-.6-2.72-.9l-2.16.32c-1.72-2.59-3.55-5.22-4.09-8.36-.19-3.37-2.4-6.36-1.33-9.8.54-2.05 1.52-3.94 2.58-5.77.23.92.68 2.76.91 3.68.71 5.88 1.31 12.23 5.4 16.87 2.22 1.92 5.18.79 6.81-1.28-.21-3.68-.45-7.42-1.73-10.92-.98-3.57-4.87-5.24-6.18-8.61-.99-2.67-2.52-5.35-2.12-8.3.4-4.63 2.05-9.01 3.07-13.52 1.35-4.41 4.92-7.5 7.88-10.83m-2.35 27.29c.28 2.18-.63 4.85 1.1 6.6 1.58 1.98 3.76 3.59 4.59 6.09-3.04 2.26-3 6.58-1.24 9.6 1.5 1.44 3.72 1.68 5.55 2.54 1.3-4.18.19-8.59-1.98-12.27-2.23-2.71-5.41-4.61-7.09-7.77-.5-1.56-.65-3.19-.93-4.79m28.28.33c.65 5.35-4.12 8.34-7.34 11.67-2.63 3.67-3.7 8.45-2.51 12.86 2.5-1.02 6.29-1.4 6.49-4.83 1.28-2.98-.7-5.63-1.99-8.15 1.47-2.37 3.76-4.08 5.28-6.41.51-1.64.25-3.45.07-5.14z"/>
    <g fill="#2a2a2a">
        <path opacity=".16" d="M29.14 24.17c2.83.28 6.99.75 7.68 4.12.1 5.02-.71 9.99-1.58 14.92-.26-3.78.05-7.63-.78-11.35-.72-3.17-3.18-5.42-5.32-7.69zM18.64 57.36c1.25.12 2.49.24 3.73.35.17 2.11.78 4.37-.2 6.38-2.59 1.41-5.83.54-8.63.27-1.42-1.62-.98-4.09-1.4-6.08 1.74 2.22 3.23 6.26 6.78 5.24 2.17-.36 2.35-3.12 2.41-4.86-1.86-1.51-2.42 1.12-3.22 2.17.19-1.16.36-2.31.53-3.47z"/>
    </g>
    <path fill="#717171" opacity=".45" d="M88.27 40.38c.01-4.76-.55-11.17 4.25-13.94-.68 5.03-.82 10.1-1.03 15.17-.52-1.64-1.1-3.26-1.67-4.88-.53 1.21-1.07 2.42-1.55 3.65z"/>
    <path fill="#7f7f7f" opacity=".5" d="M35.24 43.21c.87-4.93 1.68-9.9 1.58-14.92 1.72 5.5 2.44 11.36 1.95 17.11-.46-1.13-.97-2.24-1.49-3.34-.68 1.75-1.39 3.5-2.01 5.27-.14-1.37-.15-2.75-.03-4.12z"/>
    <path fill="#1d1d1d" opacity=".11" d="M20.91 38.37c-3.14-1.36-3.92-6.84-.68-8.5.42 2.88 1.06 6.26 4.67 6.3.45-.56 1.37-1.69 1.83-2.26-.01 1.23 1.04 2.71 0 3.74-1.16 2.08-4.02 1.65-5.82.72z"/>
    <g fill="#1c1c1c">
        <path opacity=".11" d="M99.82 34.39c1.03.55 2.05 1.11 3.13 1.57 1.94-.61 3.72-1.64 5.54-2.54.43 3.69-3.02 6.33-6.49 5.55-1.97-.59-1.73-3-2.18-4.58zM44.38 110.63c1.14.76 2.28 1.52 3.42 2.29-.63 1.37-1.26 2.74-1.89 4.12-1.71-1.07-3.43-2.26-3.67-4.44.59-.23 1.16-.47 1.74-.72.1-.32.3-.94.4-1.25z"/>
    </g>
    <path fill="#e0e0e0" opacity=".88" d="M88.27 40.38c.48-1.23 1.02-2.44 1.55-3.65.57 1.62 1.15 3.24 1.67 4.88.34 2.85.44 5.73.59 8.59-.88-1.63-1.89-3.18-2.9-4.73-.37 2.96-.65 5.92-.75 8.89-.56-4.63-.53-9.33-.16-13.98z"/>
    <path fill="#dedede" opacity=".87" d="M37.28 42.06c.52 1.1 1.03 2.21 1.49 3.34.22 2.94.22 5.93-.3 8.85-.23-.92-.68-2.76-.91-3.68-1.06 1.83-2.04 3.72-2.58 5.77-.2-3-.25-6.04.29-9.01.62-1.77 1.33-3.52 2.01-5.27z"/>
    <path fill="#2b2b2b" opacity=".17" d="M18.74 50.31c3.13-1.08 6.23-.07 8.77 1.86v.62c-.01 1.12.01 2.24.05 3.37-2.68-2.33-5.9-3.86-8.82-5.85z"/>
    <path fill="#3a3a3a" opacity=".23" d="M100.58 50.92c2.5-.84 5.11-1.48 7.77-1.02-2.03 2.35-4.97 3.44-7.86 4.3.01-.59.05-1.78.06-2.38l.03-.9z"/>
    <path fill="#d3d3d3" opacity=".83" d="M94.09 66.74c1.21-5.34 2.25-11.01 6.46-14.92-.01.6-.05 1.79-.06 2.38-.01.33-.02 1-.03 1.33l-1.11-.13c.07.49.21 1.47.29 1.96l-.95.09c-.59 4.96-2.19 9.84-1.56 14.89-.56-2.08-1.54-4.03-3.04-5.6z"/>
    <g fill="#aaa">
        <path opacity=".67" d="M27.56 56.16c-.04-1.13-.06-2.25-.05-3.37 2.43 3.18 4.47 6.9 4.44 11.01-.71-1.14-1.45-2.27-2.18-3.4.06 2.8.07 5.59.01 8.39-.13-4.32-1.4-8.45-2.22-12.63zM21.64 91.66c2.61-2.58 6.26-3.39 9.76-2.23-.71.05-2.13.15-2.84.21.77.89 1.54 1.79 2.31 2.69-.22.12-.65.38-.87.5l-.94.53c-.26.31-.76.93-1.02 1.24-.52-.27-1.55-.8-2.07-1.07-1.42-.68-2.88-1.27-4.33-1.87z"/>
    </g>
    <g fill="#202020">
        <path opacity=".13" d="M105.33 64.5c-2.23-2.21-1.38-6.13 1.33-7.56-.18 1.84-1.27 3.87-.09 5.57 2.18 1.9 5.05.37 7.5.01-1.64 3.08-5.95 4.06-8.74 1.98zM49.88 102.93c2.43-.31 5.07-1.22 7.42-.08 1.05.77 1.76 1.9 2.58 2.89-2.76-.7-5.58-1.36-8.45-.88-.22.9-.66 2.7-.88 3.59-2.07-1.34-1.38-3.61-.67-5.52z"/>
    </g>
    <path fill="#eaeaea" opacity=".92" d="M88.2 91c5.45-.99 12.36-4.12 16.92.64-.26.14-.8.43-1.06.58-.49.19-1.46.57-1.95.77-.33.15-.98.45-1.3.6-1.42 1.36-2.41.58-3.09-1.05-.72.56-2.17 1.67-2.89 2.22-.26-.29-.79-.87-1.05-1.15-1.32-1.83-3.3-2.82-5.58-2.61z"/>
    <path fill="#3e3e3e" opacity=".24" d="M20.93 91.37l.71.29c1.45.6 2.91 1.19 4.33 1.87-1.88 1.03-3.75 2.08-5.58 3.19-.91-.13-1.81-.25-2.71-.38 1.06-1.67 2.15-3.33 3.25-4.97z"/>
    <path fill="#585858" opacity=".35" d="M105.12 91.64l.91-.46c1.03 1.72 1.75 3.59 2.19 5.55-2.63-.63-5.04-1.86-7.41-3.14.32-.15.97-.45 1.3-.6.49-.2 1.46-.58 1.95-.77.26-.15.8-.44 1.06-.58z"/>
    <g fill="#111">
        <path opacity=".07" d="M17.21 96.27l.47.07c.9.13 1.8.25 2.71.38.06 2.91.48 5.84.12 8.74-.76.56-1.55 1.1-2.35 1.62-2.41-3.19-1.86-7.19-.95-10.81zM99.23 99.22c1.59-.39 2.42 1.03 2.92 2.27-1.4.51-2.83.95-4.16 1.61-1.03 1.44-.9 3.43-1.42 5.09-3.8-2.67-.76-7.65 2.66-8.97zM70.53 114.95c3.48-1.95 7.63-1.97 11.13-3.9 0 1.9.43 3.76.97 5.57-3.75 2.63-9.1 1.65-12.1-1.67z"/>
    </g>
    <path fill="#747474" opacity=".45" d="M42.24 112.6c.28-3.56-.33-7.64 2.32-10.5-.13.74-.38 2.22-.51 2.95.66-.26 1.97-.79 2.62-1.06-.99 2.13-1.72 4.36-2.29 6.64-.1.31-.3.93-.4 1.25-.58.25-1.15.49-1.74.72z"/>
    <g fill="#676767">
        <path opacity=".4" d="M68.08 105.51c1.34-.96 2.62-2.1 4.18-2.7 1.5-.11 2.94.43 4.39.7.88 2.04 1.27 4.49-.78 5.98-1.46-.31-2.94-.55-4.41-.79l.76-1.45c1.56.99 3.48.81 4.94-.29-.99-1.46-1.98-4.02-4.24-3.67-1.85 0-3.27 1.42-4.84 2.22zM81.31 105.52l1.23-.44c.2 1.37.39 2.76.62 4.13.15-.93.46-2.78.62-3.7 2.71 3.29.69 7.9-1.15 11.11-.54-1.81-.97-3.67-.97-5.57-.03-1.85-.11-3.7-.35-5.53z"/>
    </g>
</svg>
