<svg width="128pt" height="128pt" viewBox="0 0 128 128" xmlns="http://www.w3.org/2000/svg">
    <path fill="#100404" opacity=".33" d="M62.07 24.3l.28-3.03c.71 1.58 1.44 3.16 2.19 4.73-2.03-.19-4.65-1.34-5.75 1.07 2.33 1.6 4.96 3.06 5.96 5.92-3.12-1.19-6.06-2.78-9.02-4.31-.12.67-.38 2-.51 2.67 3.09 2.95 8.79 3.42 9.51 8.41-4.47-1.46-8-5.62-12.79-5.82-.18.42-.55 1.26-.74 1.69 4.18 3.86 11.15 4.43 13.6 10.07-5.35-1.58-9.92-4.83-14.64-7.68-.02-1.62 0-3.23.06-4.85 1.29-.14 2.58-.29 3.87-.44.2-1.3.4-2.61.61-3.91l3.1-.57c.18-1.22.37-2.44.58-3.65 1.23-.09 2.46-.19 3.69-.3z"/>
    <path fill="#b23031" d="M62.35 21.27c3.31 1.65 5.57 4.65 8.21 7.14C79.01 37 87.63 45.45 95.8 54.3c.43.88 1.08 1.56 1.94 2.04 5.22 5.07 10.13 10.48 15.22 15.69-6.19 4.8-13.46 7.85-20.12 11.89-7.95 4.3-15.6 9.17-23.67 13.22-.99.18-1.82.64-2.5 1.38-.83.65-1.68 1.27-2.54 1.87l-1-1.52c-.47-.24-1.41-.71-1.88-.94-.39-.22-1.16-.66-1.54-.89-.28-.61-.84-1.84-1.12-2.45 2.1.97 4.31 1.71 6.53 2.37-1.84-3.68-5.82-5.03-9.13-6.98-8.71-4.91-17.32-10.01-26-14.98-3.36-1.91-6.6-4.21-10.45-4.99.18-.86.53-2.58.71-3.43 6.2 1.97 11.4 6.07 17.1 9.09 9.17 5 17.78 11.15 27.49 15.11-.82-1.93-2.06-3.68-3.96-4.66-11.42-6.64-23.19-12.71-34.45-19.63-.97-.89-3.07-1.71-2.52-3.32.49-.11 1.47-.32 1.96-.43 8.56 4.95 17.16 9.83 25.74 14.74 4.36 2.45 8.48 5.38 13.2 7.14-.64-1.66-1.46-3.36-3.17-4.13-11.37-6.38-22.52-13.14-33.8-19.68l-.64-.64.72-1.4 1.17-.54 1.03.4c10.8 6.43 21.63 12.84 32.72 18.77.27.12.81.36 1.09.49.69-2.14-.78-4.09-2.81-4.66-10.01-5.09-19.56-11.05-29.46-16.37l-1.04-.55c.58-.61 1.75-1.81 2.33-2.42 9.78 5.61 19.47 11.37 29.33 16.83.31.17.92.51 1.23.68.93-.77 1.05-2.64-.26-3.1-9.49-5.12-18.86-10.49-28.02-16.18 0-1.83.96-2.35 2.86-1.54 9.1 4.42 17.14 10.96 26.77 14.29-1.53-3.79-5.47-5.26-8.75-7.12-5.81-3.1-11.53-6.35-17.12-9.82.28-.6.84-1.82 1.12-2.43 8.5 3.9 15.98 9.71 24.61 13.31-.73-1.41-1.18-3.16-2.72-3.95-5.94-3.87-12.57-6.63-18.34-10.78l-1.36-1.01c.63-.24 1.87-.72 2.5-.96 7.29 2.03 12.71 8.03 19.99 10.24-.71-1.24-1.07-2.88-2.46-3.58-4.76-3.12-10.16-5.3-14.53-8.97-.18-.45-.56-1.35-.75-1.81l1.99-.6 1.12.63c4.72 2.85 9.29 6.1 14.64 7.68-2.45-5.64-9.42-6.21-13.6-10.07.19-.43.56-1.27.74-1.69 4.79.2 8.32 4.36 12.79 5.82-.72-4.99-6.42-5.46-9.51-8.41.13-.67.39-2 .51-2.67 2.96 1.53 5.9 3.12 9.02 4.31-1-2.86-3.63-4.32-5.96-5.92 1.1-2.41 3.72-1.26 5.75-1.07-.75-1.57-1.48-3.15-2.19-4.73z"/>
    <path fill="#130405" opacity=".35" d="M44.35 42.01c1.34-1.02 2.16-2.46 2.7-4.02.19.46.57 1.36.75 1.81 4.37 3.67 9.77 5.85 14.53 8.97 1.39.7 1.75 2.34 2.46 3.58-7.28-2.21-12.7-8.21-19.99-10.24l-.45-.1z"/>
    <g fill="#0d0303">
        <path opacity=".31" d="M43.66 44.08c5.77 4.15 12.4 6.91 18.34 10.78 1.54.79 1.99 2.54 2.72 3.95-8.63-3.6-16.11-9.41-24.61-13.31 1.19-.47 2.37-.94 3.55-1.42zM32.3 53.52c.97-.47 1.95-.93 2.93-1.4 9.16 5.69 18.53 11.06 28.02 16.18-.24.61-.72 1.82-.97 2.42-9.86-5.46-19.55-11.22-29.33-16.83l-.65-.37z"/>
    </g>
    <path fill="#0d0304" opacity=".31" d="M36.19 49.58c.93-.55 1.87-1.1 2.8-1.65 5.59 3.47 11.31 6.72 17.12 9.82 3.28 1.86 7.22 3.33 8.75 7.12-9.63-3.33-17.67-9.87-26.77-14.29-.64-.33-1.27-.66-1.9-1z"/>
    <path fill="#0c0303" opacity=".3" d="M95.8 54.3c1.82-.43 2.46.25 1.94 2.04-.86-.48-1.51-1.16-1.94-2.04z"/>
    <path fill="#0a0303" opacity=".28" d="M27.96 57.19c1.22-.12 2.47-.68 3.7-.33 9.9 5.32 19.45 11.28 29.46 16.37.26 1.5.73 2.98 1.72 4.17-11.09-5.93-21.92-12.34-32.72-18.77-.73-.47-1.45-.94-2.16-1.44z"/>
    <path fill="#0e0303" opacity=".32" d="M26.06 59.85c.45.24 1.34.72 1.78.96 11.28 6.54 22.43 13.3 33.8 19.68 1.71.77 2.53 2.47 3.17 4.13-4.72-1.76-8.84-4.69-13.2-7.14-8.58-4.91-17.18-9.79-25.74-14.74l-.28-.38c.15-.84.31-1.67.47-2.51z"/>
    <path fill="#0d0303" opacity=".31" d="M22.47 65.8c.31-.98.79-1.86 1.44-2.63-.55 1.61 1.55 2.43 2.52 3.32 11.26 6.92 23.03 12.99 34.45 19.63 1.9.98 3.14 2.73 3.96 4.66-9.71-3.96-18.32-10.11-27.49-15.11-5.7-3.02-10.9-7.12-17.1-9.09.74-.24 1.48-.5 2.22-.78z"/>
    <path fill="#090202" opacity=".28" d="M18.54 68.39c.28.58.61 1.12 1 1.62 3.85.78 7.09 3.08 10.45 4.99 8.68 4.97 17.29 10.07 26 14.98 3.31 1.95 7.29 3.3 9.13 6.98-2.22-.66-4.43-1.4-6.53-2.37-11.19-7.03-22.82-13.33-34.2-20.03-2.87-1.47-5.85-4.05-9.29-2.79 1.18-1.09 2.39-2.16 3.44-3.38z"/>
    <path fill="#250b09" opacity=".6" d="M63.25 68.3c1.31.46 1.19 2.33.26 3.1-.31-.17-.92-.51-1.23-.68.25-.6.73-1.81.97-2.42z"/>
    <path fill="#95272a" opacity=".93" d="M15.1 71.77c3.44-1.26 6.42 1.32 9.29 2.79 11.38 6.7 23.01 13 34.2 20.03.28.61.84 1.84 1.12 2.45-2.24-.96-4.49-1.97-6.45-3.43-.66-.77-1.49-1.25-2.47-1.44-2.76-1.09-5.39-2.54-7.8-4.28-.89-.78-1.9-1.43-3.05-1.76-2.12-.83-4.18-1.86-6-3.23-.88-.79-1.88-1.46-3.01-1.81-2.8-1.16-5.41-2.75-7.86-4.51-1.22-.97-2.57-1.74-4.02-2.31-1.46-.58-2.72-1.53-3.95-2.5z"/>
    <path fill="#280a0b" opacity=".54" d="M61.12 73.23c2.03.57 3.5 2.52 2.81 4.66-.28-.13-.82-.37-1.09-.49-.99-1.19-1.46-2.67-1.72-4.17z"/>
    <path fill="#260a0b" opacity=".46" d="M19.05 74.27c1.45.57 2.8 1.34 4.02 2.31-1.41 1.52-4.92-.32-4.02-2.31z"/>
    <path fill="#220909" opacity=".44" d="M30.93 81.09c1.13.35 2.13 1.02 3.01 1.81-1.09 1.37-3.93-.17-3.01-1.81z"/>
    <path fill="#2a0a0b" opacity=".48" d="M39.94 86.13c1.15.33 2.16.98 3.05 1.76-1.08 1.36-3.94-.12-3.05-1.76z"/>
    <path fill="#230a0a" opacity=".45" d="M50.79 92.17c.98.19 1.81.67 2.47 1.44-1.65.86-2.47.38-2.47-1.44z"/>
    <path fill="#26090a" opacity=".44" d="M66.67 98.52c.68-.74 1.51-1.2 2.5-1.38-.05 1.82-.88 2.28-2.5 1.38z"/>
    <path fill="#2e0b0c" opacity=".58" d="M61.25 97.93c.47.23 1.41.7 1.88.94l-.81.43-.96-.48-.11-.89z"/>
</svg>
