<svg width="128pt" height="128pt" viewBox="0 0 128 128" xmlns="http://www.w3.org/2000/svg">
    <g fill="#fff">
        <path d="M63.53 21.3c2.28 4.83.37 10.56 1.03 15.74-3.28-2.17-6.95-3.65-10.18-5.9.49-.57 1.47-1.72 1.95-2.29 2.66 1.35 5.11 3.15 8.01 3.94.05-3.43-3.72-3.96-5.84-5.73.33-3.21 3.54-.85 5.48-1.23.67-1.46-.83-2.33-1.56-3.36.28-.29.84-.88 1.11-1.17zM50.67 35.65l1.28-2.28c4.63 1.02 8.05 4.84 12.61 6.18-.21 1.31-.41 2.62-.61 3.93-4.08-3.11-8.9-5.16-13.28-7.83zM46.67 39.59c.69-.84 1.36-1.69 2.04-2.54 4.77 3.16 9.7 6.08 14.87 8.54.35 1.25.61 2.53.89 3.81l-1.05-.29c-5.9-2.53-11.14-6.4-16.75-9.52zM42.72 43.56c1.89-2.73 5.16-.77 7.28.58 3.83 2.66 7.88 4.94 11.96 7.18.61.29 1.83.88 2.44 1.18-.29 1.09-.57 2.18-.84 3.27-6.85-4.24-14.17-7.7-20.84-12.21zM38.75 47.43c.55-.46 1.66-1.37 2.21-1.83 7.34 4.44 14.93 8.45 22.23 12.95.21.16.64.48.85.64.03.86.08 2.57.11 3.43-8.12-5.62-17.55-9.17-25.4-15.19zM35.49 52.43c-1.33-1.36 1.28-2.87 2.43-1.96 8.84 4.61 17.13 10.24 26.13 14.54-.1 1.26-.17 2.52-.22 3.79-9.48-5.33-18.98-10.77-28.34-16.37zM30.74 56.19c.76-.77 1.53-1.54 2.31-2.31C43.37 59.8 53.53 66.02 64.1 71.51c-.04 1.3-.11 2.61-.29 3.9-2.92-2.73-6.75-4.04-10.09-6.13-7.6-4.47-15.47-8.47-22.98-13.09zM26.98 60.12c.88-.69 1.85-2.57 3.18-1.4 11.03 6.47 22.01 13.03 33.33 18.98.57 1.29.41 2.69.37 4.06-12.39-7.04-24.77-14.12-36.88-21.64zM25.28 62.21c11.31 6.99 23.13 13.11 34.48 20.05 1.38.86 2.85 1.58 4.35 2.22.1 1.33.17 2.67.19 4C51 79.7 36.28 73.25 23.1 64.26c.54-.51 1.63-1.54 2.18-2.05zM20.16 67.35c1.11-1.3 2.73.06 3.89.53 13.04 7.64 26.11 15.23 39.23 22.74.2.14.6.43.8.57.04.88.12 2.63.17 3.51-14.31-8.06-28.41-16.49-42.78-24.44-1.11-.47-3.27-1.82-1.31-2.91zM16.16 72.49c-.34-1.51 1.43-1.75 2.35-.96 14.73 7.68 28.67 16.79 43.35 24.56.52.3 1.57.91 2.09 1.22l.52 2.28c-16.23-8.8-32.45-17.65-48.31-27.1z"/>
    </g>
    <path fill="#787878" opacity=".47" d="M64.56 39.55l.14-.9c.4 20.54.4 41.12-.07 61.65l-.16-.71-.52-2.28c-.52-.31-1.57-.92-2.09-1.22.61.13 1.83.39 2.44.53-.01-.48-.04-1.44-.05-1.92-.05-.88-.13-2.63-.17-3.51-.2-.14-.6-.43-.8-.57.25-.54.76-1.6 1.02-2.14-.02-1.33-.09-2.67-.19-4-.07-.64-.21-1.93-.27-2.57l.02-.15c.04-1.37.2-2.77-.37-4.06.1-.76.2-1.53.32-2.29.18-1.29.25-2.6.29-3.9-.14-.9-.23-1.8-.27-2.71.05-1.27.12-2.53.22-3.79.03-.59.08-1.79.1-2.39-.03-.86-.08-2.57-.11-3.43-.21-.16-.64-.48-.85-.64 1.05-.74 1.18-1.66.37-2.78.27-1.09.55-2.18.84-3.27-.61-.3-1.83-.89-2.44-1.18.61.06 1.83.18 2.44.25-.25-.62-.73-1.85-.98-2.46l1.05.29c-.28-1.28-.54-2.56-.89-3.81.09-.53.27-1.59.37-2.11.2-1.31.4-2.62.61-3.93z"/>
</svg>
