<svg width="128pt" height="128pt" viewBox="0 0 128 128" xmlns="http://www.w3.org/2000/svg">
    <g fill="#fff">
        <path d="M76.81 17.85c4.58-1.01 9.51-.16 13.75 1.74 2.36 1.48.41 4.16-.25 6.03-2.86-.09-4.8-2.46-7.36-3.38-2.16-.43-6.28 1.37-6.3-2.21l.16-2.18zM72.41 21.32c2.18-1.85 3.77.87 3.99 2.81-2.28 2.79-1.87 6.47-2.28 9.8-.85 2.01-3.36.95-5 1.14.09-4.64-.43-10.28 3.29-13.75zM90.93 25.46c1.01-1.12 2.02-2.23 3.08-3.3 3.36 2.19 3.79 6.32 4.43 9.92-1.9.42-3.86.47-5.62-.45.11-2.24-.65-4.35-1.89-6.17zM92.23 35.16c.72-2.44 3.58-2.21 5.57-1.92 3.33 4.66-1.23 10.12-6.13 10.66.8-.83 1.52-1.72 2.16-2.67-.68-1.98-2.88-3.87-1.6-6.07zM69.39 38.43c1.13-3.3 6.3-2.55 7.16.54.49 2.06-1.04 3.76-2.03 5.37-.94-.07-2.83-.22-3.77-.29-.57-1.84-1.47-3.65-1.36-5.62zM66.55 50.82c1.21-2.15 2.66-4.16 4.33-5.98 1.71.31 3.43.53 5.1 1-.29 2.91-.53 5.83-1.18 8.69-3.18.06-6.91-.32-8.25-3.71z"/>
        <path d="M63.27 54.18c2.45-3.95 6.05.93 9.27 1.14 2.42.29 1.58 2.45 1.25 4.09-4.14-.2-8.03-1.81-10.52-5.23z"/>
        <path d="M62.06 55.64c1.77.56 3.12 1.84 4.53 2.99 1.79 1.47 4.97.21 6.28 2.36-.12.91-.34 2.73-.46 3.64-4.48-.72-8.68-2.89-12.46-5.35.71-1.21 1.41-2.42 2.11-3.64zM56.98 63.57c4.37 2.29 8.85 4.35 13.39 6.29-3.96 6.08-16.15 1.11-13.39-6.29z"/>
        <path d="M53.91 71.36c1.94-1.15 4.13-.19 6.08.34-.53 5.3-3.59 9.84-5.82 14.55-1.89-.87-3.5-2.37-3.32-4.64-1.65-.37-5.05-1.66-2.3-3.26.84.44 1.69.87 2.54 1.3.77-2.8 1.43-5.72 2.82-8.29z"/>
        <path d="M62.05 72.82c1.88.85 4.65 1.78 4.73 4.22-.75 2.55-2.21 4.88-4 6.85.28.64.56 1.29.85 1.93 2.56-.26 1.39 1.76.95 3.03-.44-.51-1.32-1.52-1.77-2.03l-1.86-1.23c-.15 2.68-3.26 1.55-4.77 2.62-.34.58-1.03 1.74-1.37 2.31-.58-.85-1.15-1.7-1.73-2.55l-.79 2.14c-.38-.98-.75-1.97-1.12-2.96 1.58.28 3.16.76 4.78.54-1.42-1.6.07-3.41.59-4.99 1.47-3.49 3.26-6.84 5.51-9.88zM40.6 84.46c.64-.4 1.27-.8 1.91-1.21-1.62 4.25 3.56 6.47 3.95 10.45-2.74-2.49-5.68-5.28-5.86-9.24zM63.79 96.31c.27-1.13.93-1.89 1.98-2.27-.23.93-.47 1.85-.74 2.77-1.27.03-2.54.07-3.81.14l.67 1.04c-2.41-.08-4.82-.13-7.21-.34 2.57-1.99 6.09-1.11 9.11-1.34z"/>
    </g>
    <path fill="#fafafa" d="M57.62 63.04c.89-1 1.44-3.14 3.21-2.02 3.54 1.4 6.89 3.27 10.24 5.07-.01.68-.04 2.03-.05 2.71-4.81-.98-9.11-3.5-13.4-5.76z"/>
</svg>
