<svg width="128pt" height="128pt" viewBox="0 0 128 128" xmlns="http://www.w3.org/2000/svg">
    <path fill="#bf2426" d="M31.73 26.62c6.26-2.53 13.15.89 18.23 4.58-3.45 1.03-7.48.03-10.56 2.05-.01.85-.05 1.7-.1 2.54-1.03.24-2.07.44-3.11.65.39.32 1.17.98 1.56 1.3-1.2.72-2.68.43-3.91 1-2.19 2.3-3.92 4.98-5.97 7.4-.67.69-1.34 1.38-2 2.08-6.12-.24.89-7.32-3.84-8.81l-.66-.44c3.17-4.36 7.07-8.1 10.36-12.35z"/>
    <g fill="#c32526">
        <path d="M84.88 27.78c3.33-1.92 8.15-4.01 11.49-1.1-.25 3.04-.34 6.11-.87 9.12-2.35-.32-4.8-.34-6.99.71-.13.43-.39 1.3-.51 1.74l-.18.62c-1.89 1.15-3.86 2.17-5.67 3.46-1.36-1.42-2.35-3.14-3.81-4.46-1.06-1.4-2.32-2.73-2.39-4.59 1.98-2.79 6.08-3.56 8.93-5.5zM52.17 45.69c5.51.48 7.12-6.25 10.91-8.89-.26 5.08 1.02 10.05 1.47 15.08.69-3.98.71-8.03.62-12.06.61.16 1.83.49 2.43.65 1.59 1.85 2.28 4.22 2.72 6.58.01 3.23-2.11 6.01-1.85 9.25.13.84-.27 2.73-1.4 1.72-1.59-1.66-3.83-.62-5.75-.38-1.45-2.41-2.23-5.27-4.32-7.24-1.24.64-2.48 1.26-3.71 1.89-.54-1.1-1.12-2.17-1.73-3.22-.11-.47-.33-1.39-.44-1.85l1.05-1.53z"/>
    </g>
    <path fill="#ad2121" d="M96.37 26.68c3.01 1.21 4.18 4.35 5.87 6.84 1.49 2.55 3.74 4.65 4.75 7.47.01 1.96-.38 3.89-2.35 4.73-.71 1.94-2.44 2.51-4.16 1.39-1.46-1.78-3.08-3.52-4.2-5.52-.34-.39-1.01-1.16-1.34-1.55-.85-.96-1.72-1.91-2.77-2.65-1.41.91-2.81 1.2-4.17.86.12-.44.38-1.31.51-1.74 2.19-1.05 4.64-1.03 6.99-.71.53-3.01.62-6.08.87-9.12z"/>
    <path fill="#d32829" d="M39.4 33.25c3.08-2.02 7.11-1.02 10.56-2.05 1.09.26 2.01.81 2.76 1.68-.57.71-1.71 2.14-2.28 2.86l.22 1.62c-.36 1.88-2.11 3.38-3.8 4.13-3.34.61-6.29-2.31-9.11-3.75-.39-.32-1.17-.98-1.56-1.3 1.04-.21 2.08-.41 3.11-.65.05-.84.09-1.69.1-2.54z"/>
    <path fill="#d62829" d="M59.36 33.25c.48-3.66 4.91-2.9 7.5-2.26.53 1.58 1.86 2.59 3.06 3.64 2.06-.2 4.07-.71 6.03-1.35.07 1.86 1.33 3.19 2.39 4.59-.04 1.72 3.15 4.15.24 5.22-1.6.78-2.75 2.14-4.03 3.34-1.3.64-2.83.42-4.23.62-.44-2.36-1.13-4.73-2.72-6.58-.6-.16-1.82-.49-2.43-.65-.05-2.59-.22-5.19-.58-7.75-1.57 1.04-1.19 3.12-1.51 4.73-3.79 2.64-5.4 9.37-10.91 8.89l-1.05 1.53c-.45-.48-.98-.81-1.61-.97-1.31 1.89-1.85 4.07-1.71 6.37-1.35-1.14-1.06-3.1-1.12-4.66.86-1.39 1.53-2.87 2.22-4.34-.73-.18-2.19-.54-2.91-.72l.87-1.41c1.69-.75 3.44-2.25 3.8-4.13.85-1.46 1.94-2.78 3.33-3.75 1.76 1.55 3.85 1.38 5.37-.36z"/>
    <path fill="#901b1c" opacity=".89" d="M63.08 36.8c.32-1.61-.06-3.69 1.51-4.73.36 2.56.53 5.16.58 7.75.09 4.03.07 8.08-.62 12.06-.45-5.03-1.73-10-1.47-15.08z"/>
    <path fill="#a52021" d="M20.99 39.54l1.04-.13c4.73 1.49-2.28 8.57 3.84 8.81.66-.7 1.33-1.39 2-2.08-1.23 3.95 1.17 7.78 2.8 11.24 2.36 4.86 6.54 8.38 9.5 12.81.03.53.09 1.58.11 2.11-1.49-1.07-2.89-2.23-4.32-3.38-5.48-3.49-10.6-7.69-14.38-13.02-1.96-5.15-3.45-11.24-.59-16.36z"/>
    <path fill="#2f0809" opacity=".56" d="M94.94 40.04c.33.39 1 1.16 1.34 1.55l-.95.12-.73-.78.34-.89z"/>
    <g fill="#9c2021">
        <path d="M106.99 40.99c2.13 3.78 1.1 8.68-.22 12.76-.64 3.23-3.83 4.91-5.39 7.66-4.44 4.07-9.58 7.36-14.32 11.01-.1-2.84 2.16-4.62 3.62-6.72 5.34-4.7 9.43-11.37 9.8-18.59 1.72 1.12 3.45.55 4.16-1.39 1.97-.84 2.36-2.77 2.35-4.73zM59.15 99.85c.55.01 1.65.03 2.21.03 1.98 1.71.54 4.69 1.03 6.95-.31-.89-.55-1.81-.77-2.72-.03-1.83-2.42-2.47-2.47-4.26z"/>
    </g>
    <path fill="#b22321" d="M74.55 46.43c1.28-1.2 2.43-2.56 4.03-3.34.72 2.05 1.53 4.1 2.75 5.91-1.35 3.2-2.36 6.54-2.09 10.05-1.75 3.12-.85 8.03-4.22 9.94-.25-.33-.75-.97-1-1.3-2.89.37-1.65 4.04-3.32 5.72-.8.04-1.59.1-2.39.19-.93.9-1.55 2.66-3.16 2.3-3.4-1.17-5.06-4.79-5.97-8.03-.86-2.51-1.84-5.3-4.14-6.84-.63 2.15 2.14 3.8 2.32 6.01-1.3.45-2.63.96-4.03.83-1.03-.69-2.06-1.37-3.15-1.95-.8-4.52-3.12-9.49-1.38-13.89 1.34 1.52 2.56 3.15 4.06 4.53 1.18 1.78 3.44-.68 1.34-1.56-.31-.9-.62-1.8-.91-2.71 1.23-.63 2.47-1.25 3.71-1.89 2.09 1.97 2.87 4.83 4.32 7.24 1.92-.24 4.16-1.28 5.75.38 1.13 1.01 1.53-.88 1.4-1.72-.26-3.24 1.86-6.02 1.85-9.25 1.4-.2 2.93.02 4.23-.62m1.78-.47c.3.49.92 1.48 1.22 1.98-2.69 2.22-3.7 5.43-4.11 8.79 2.13-.94 3.09-3.15 4.99-4.38.86-2.17.64-5.75-2.1-6.39m-8.42 25.21c1.71.06 1.38-2.07 1.87-3.15.02-2.75 2.22-4.58 3.05-7.05-4.11 1.1-4.74 6.58-4.92 10.2z"/>
    <path fill="#390b0a" opacity=".57" d="M49.51 46.25c.63.16 1.16.49 1.61.97.11.46.33 1.38.44 1.85-.69-.59-1.47-.85-2.32-.78-.53 1.19-.53 2.46-.44 3.74-1.74 4.4.58 9.37 1.38 13.89 1.09.58 2.12 1.26 3.15 1.95.96 3.27 1.12 6.69 1.63 10.05-2.44.09-.84-2.53-1.21-3.94.06-2.82-2.58-4.52-4.03-6.62-.19-3.56-2.55-6.69-2.11-10.32.68-3.09-3.14-6.29-.93-9.08.06 1.56-.23 3.52 1.12 4.66-.14-2.3.4-4.48 1.71-6.37z"/>
    <path fill="#250607" opacity=".56" d="M54.2 55c2.1.88-.16 3.34-1.34 1.56.33-.39 1.01-1.17 1.34-1.56z"/>
    <path fill="#3e0c0c" opacity=".71" d="M55.04 61.03c2.3 1.54 3.28 4.33 4.14 6.84.3 1.51-.01 2.56-.92 3.15-.25-1.34-.47-2.69-.9-3.98-.18-2.21-2.95-3.86-2.32-6.01z"/>
    <path fill="#480d0d" opacity=".74" d="M67.91 71.17c.18-3.62.81-9.1 4.92-10.2-.83 2.47-3.03 4.3-3.05 7.05-.49 1.08-.16 3.21-1.87 3.15z"/>
    <path fill="#a22021" d="M57.36 67.04c.43 1.29.65 2.64.9 3.98.91-.59 1.22-1.64.92-3.15.91 3.24 2.57 6.86 5.97 8.03 1.61.36 2.23-1.4 3.16-2.3.8-.09 1.59-.15 2.39-.19 1.67-1.68.43-5.35 3.32-5.72-.62 2.73-.59 5.58-1.07 8.29-3.02 5.51-4.06 11.8-3.75 18.07-.95 2.81-.44 7.41-4.37 7.88-.01-.66-.03-1.96-.05-2.61-.62-.21-1.87-.65-2.49-.87.52-.28 1.56-.85 2.08-1.13-.69-1.4 1-2.32 1.26-3.59.17-.4.5-1.22.66-1.62.85-4.25 3.28-9.26 1.08-13.33-.39 3.24-1.05 6.45-2.26 9.48-.29.46-.88 1.37-1.18 1.83-1.34-.24-1.99-1.07-1.95-2.48-.56-3.18-1.7-6.24-2.27-9.42l-.76-.02c.43 3.61.6 7.29 1.39 10.84.83 1.82.47 4.16 2.01 5.62l-.25.56c-.36.71-.88 1.3-1.54 1.78.93.68 1.2 1.66.8 2.91-.56 0-1.66-.02-2.21-.03l-.69.01c-2.55-6.89 1.23-15.62-3.5-21.94-.51-3.36-.67-6.78-1.63-10.05 1.4.13 2.73-.38 4.03-.83m.81 7.23c-.8 1.34-.58 2.17.64 2.51.78-1.32.57-2.16-.64-2.51z"/>
    <path fill="#0a0202" opacity=".24" d="M35.96 68.92c1.43 1.15 2.83 2.31 4.32 3.38-.02-.53-.08-1.58-.11-2.11 2.52-.31 1.05 3.05 1.49 4.55-3.26.31-4.98-3.16-5.7-5.82z"/>
    <path fill="#6f1616" opacity=".88" d="M58.17 74.27c1.21.35 1.42 1.19.64 2.51-1.22-.34-1.44-1.17-.64-2.51z"/>
    <path fill="#400c0c" opacity=".73" d="M58.95 78.17l.76.02c.57 3.18 1.71 6.24 2.27 9.42l-1.64 1.4c-.79-3.55-.96-7.23-1.39-10.84z"/>
    <path fill="#2f090a" opacity=".66" d="M67.37 78.78c2.2 4.07-.23 9.08-1.08 13.33.08-1.43-.31-2.72-1.18-3.85 1.21-3.03 1.87-6.24 2.26-9.48z"/>
    <path opacity=".05" d="M60.34 89.01l1.64-1.4c-.04 1.41.61 2.24 1.95 2.48.3-.46.89-1.37 1.18-1.83.87 1.13 1.26 2.42 1.18 3.85-.16.4-.49 1.22-.66 1.62-1.26.69-2.53 1.37-3.8 2.04l.27-.58.25-.56c-1.54-1.46-1.18-3.8-2.01-5.62z"/>
</svg>
