<svg width="128pt" height="128pt" viewBox="0 0 128 128" xmlns="http://www.w3.org/2000/svg">
    <g fill="#fff">
        <path d="M31.87 26.77c7.38-3.13 14.57 2.41 20.69 5.95-2.11 3.36-4.93 6.19-7.05 9.52-2.41-2.14-5.59-3.05-8.42-4.48-.3-.02-.9-.05-1.2-.07-3.87 1.8-6.05 5.78-8.36 9.16-.58 5.77 3.26 10.85 6.12 15.56 2.26 3.76 7.8 6.48 6.6 11.55-.23-.73-.46-1.46-.69-2.18-6.14-5.28-13.65-9.23-18.01-16.33-1.8-4.79-3.08-10.46-.6-15.25 2.85-5.07 7.35-8.91 10.92-13.43zM75.28 33.05c5.86-2.68 11.1-7.26 17.73-7.79 2.97.88 5.9 2.78 7.4 5.59 2.05 3.72 5.07 6.83 6.85 10.71 1.56 4.29.3 8.86-.9 13.06-4.34 8.3-13.53 12.07-19.74 18.7.76-2.53 1.82-5.06 3.78-6.9 3.16-2.97 5.79-6.47 8.02-10.19.74-3 2.57-5.94 2.11-9.1-2.59-3.25-4.91-6.74-7.81-9.72-3.97.23-7.34 2.66-10.49 4.86-1.99-3.33-5.26-5.72-6.95-9.22z"/>
    </g>
</svg>
