<svg width="128pt" height="128pt" viewBox="0 0 128 128" xmlns="http://www.w3.org/2000/svg">
    <g fill="#b22c2e">
        <path d="M71.38 19.43c3.64-1.97 6.38-5.14 9.46-7.84-.29 3.23-.93 6.64-3.1 9.17-.85.53-1.45 1.27-1.8 2.2-1.23 1.91-3.25 3.06-5.21 4.08-4.67 2.68-10.09 2.96-15.15 4.44-3.31 1.39-6.53 3.4-8.73 6.28-.71 1.32-1.3 2.69-1.9 4.06-6.66.48-12.93 3.26-17.71 7.94-1.31 1.39-2.47 2.91-3.67 4.4-4.06-2.19-2.26-7.54.9-9.68.09-.6.28-1.79.37-2.39 1.91-1.92 4.02-3.64 6.33-5.05 3.67-2.3 6.94-5.35 11.04-6.9.45-.27 1.36-.81 1.81-1.08 2.54-1.6 5.56-2.11 8.41-2.87 6.5-1.66 13.04-3.51 18.95-6.76M30.39 41.08c-.62 1.36-.19 1.83 1.28 1.42.63-1.36.2-1.83-1.28-1.42z"/>
        <path d="M68.31 31.96c4.52-.24 9.13-.21 13.55.96 5.67 1.5 10.93 4.22 16.63 5.64.82.19 2.46.56 3.28.75l-2.68.8c-5.61-1.15-11.47-2.44-17.17-1.11-3.03.62-5.56 3.34-8.83 2.56-1.73-2.9-4.52-4.76-7.19-6.69-.7-.88-1.57-1.18-2.6-.89l-1.7.38-.18-1.89c2.3-.17 4.59-.35 6.89-.51z"/>
    </g>
    <path fill="#120404" opacity=".38" d="M75.94 22.96c.35-.93.95-1.67 1.8-2.2.62 1.74.02 2.47-1.8 2.2z"/>
    <path fill="#150505" opacity=".32" d="M55.58 31.48c5.06-1.48 10.48-1.76 15.15-4.44l1.25-.49c-1.32 1.36-2.72 2.65-4.13 3.93 4.8.21 9.64.4 14.32 1.56 5.75 1.3 10.99 4.13 16.61 5.83l-.29.69c-5.7-1.42-10.96-4.14-16.63-5.64-4.42-1.17-9.03-1.2-13.55-.96-2.17-.09-4.33-.28-6.49-.42-.46.79-.92 1.57-1.38 2.36-.02-.6-.05-1.79-.07-2.38-1.6-.01-3.2-.02-4.79-.04z"/>
    <path fill="#350d0c" opacity=".57" d="M42.26 29.22l.93-.56.83.4c-.45.27-1.36.81-1.81 1.08l.05-.92z"/>
    <path fill="#511316" opacity=".74" d="M63.3 33.98c1.03-.29 1.9.01 2.6.89-1.42 1.02-2.29.73-2.6-.89z"/>
    <path fill="#270a09" opacity=".51" d="M44.95 41.82c.6-1.37 1.19-2.74 1.9-4.06-.24 2.82-1.03 6.03-4.55 5.89.05.61.14 1.84.19 2.45-.51-1.06-1-2.13-1.46-3.21-2.04 1-4.07 2.02-6.08 3.07 1.31 3.52.41 7.21-2.18 9.89-1 .98-2.07 1.87-3.11 2.8-.07-.34-.22-1.03-.29-1.37-.53.15-1.59.46-2.12.62 3.51-2.85 7.27-6.05 7.19-11.03-.86.87-1.73 1.74-2.58 2.63-1.54-.2-3.1-.06-4.62.26 4.78-4.68 11.05-7.46 17.71-7.94z"/>
    <path fill="#360d0e" opacity=".54" d="M54.28 37.78c1.15.59 2.3 1.21 3.42 1.85-.64-.18-1.93-.53-2.58-.7-.2 1.87-.42 3.74-.5 5.63-.55-.12-1.63-.36-2.18-.47.52-.59 1.55-1.78 2.07-2.37-.09-1.31-.16-2.63-.23-3.94z"/>
    <path fill="#1a0706" opacity=".42" d="M60.12 38.02c.41.03 1.24.08 1.66.11l-.05.18c-.55 3.11-1.47 6.23-4.19 8.14.09-1.67.16-3.34.16-5.01.59.29 1.77.86 2.36 1.15l.06-4.57z"/>
    <path fill="#2e0b0b" opacity=".53" d="M81.92 39c5.7-1.33 11.56-.04 17.17 1.11l2.68-.8c.35-.1 1.07-.31 1.43-.41-.32 1.52-1.59 2.68-3.21 2.12-6.1-1.16-12.28-2.37-18.51-1.47.09.55.26 1.63.35 2.17-.47-.34-1.41-1.04-1.87-1.39-1.47.83-3.06 1.51-4.29 2.67.04 3.64.34 7.28.14 10.93 5-3.17 11.99-4.63 17.15-1.07-3.83-.7-7.8-1.96-11.66-.7 1.23 3.06 2.5 6.1 3.55 9.22-2.04-2.55-3.06-5.67-3.89-8.78-1.97.98-3.93 2.04-5.63 3.45-.68-4.81 1.45-10.54-2.24-14.49 3.27.78 5.8-1.94 8.83-2.56z"/>
    <g fill="#ad2c29">
        <path d="M55.12 38.93c.65.17 1.94.52 2.58.7v1.81c0 1.67-.07 3.34-.16 5.01 2.72-1.91 3.64-5.03 4.19-8.14l.62 1.22c2.05 4.35-.72 8.43-3.4 11.7 1.56-.73 3.14-1.43 4.66-2.26 1.92-1.92 3.22-4.34 4.72-6.57.27 2.64 1.46 5.57.24 8.1-2.07 2.36-5.19 3.43-7.96 4.76l.23-.99c-2.13.95-4.43 1.31-6.73 1.48.61-1.52 1.45-2.88 2.52-4.1l.71-.79c.05-1.26-.13-2.6-.91-3.63-.46-.67-1.36-2.01-1.81-2.67.08-1.89.3-3.76.5-5.63zM31.86 49.5c.85-.89 1.72-1.76 2.58-2.63.08 4.98-3.68 8.18-7.19 11.03-1.86 1.46-2.93 3.61-3.58 5.85-.21-1.11-.45-2.23-.7-3.33 1.23-4.81 6.06-7.19 8.89-10.92z"/>
    </g>
    <path fill="#190606" opacity=".42" d="M62.35 39.53c2.51 2.48.72 6.32 1.26 9.44-1.52.83-3.1 1.53-4.66 2.26 2.68-3.27 5.45-7.35 3.4-11.7z"/>
    <path fill="#541512" opacity=".76" d="M30.39 41.08c1.48-.41 1.91.06 1.28 1.42-1.47.41-1.9-.06-1.28-1.42z"/>
    <path fill="#b22c29" d="M75.67 43c1.23-1.16 2.82-1.84 4.29-2.67.46.35 1.4 1.05 1.87 1.39 3.86 3.09 8.68 4.77 12.28 8.2 4.41 3.91 7.02 9.29 10.7 13.81-5.16-2.09-7.57-7.58-11.85-10.87-5.16-3.56-12.15-2.1-17.15 1.07.2-3.65-.1-7.29-.14-10.93z"/>
    <g fill="#b22c2c">
        <path d="M68.26 42.01c.33.03.97.08 1.29.11-.13 1.73.32 3.38 1.51 4.67-.41 4.4-3.67 7.71-6.6 10.7-5.93 4.62-11.81 9.69-15.7 16.21-2.87 4.57-2.35 10.1-1.72 15.2-4.63-4.4-5.3-11-5.83-17-2.2 1.77-4.3 3.67-6.39 5.57.47-1.53.93-3.06 1.47-4.57 3.53-4.97 7.98-9.24 12.7-13.07 3.23-2.89 7.86-2.74 11.62-4.57 2.77-1.33 5.89-2.4 7.96-4.76 1.22-2.53.03-5.46-.24-8.1l-.07-.39zM34.95 45.96c2.01-1.05 4.04-2.07 6.08-3.07.46 1.08.95 2.15 1.46 3.21.79 1.32 2.35 2.24 2.53 3.87-2.21 1.08-4.95 1.41-6.57 3.45-1.39 1.42-1.44 3.52-1.98 5.32-1.67.33-3.34.64-5.02.93.6-1.22 1.22-2.44 1.32-3.82 2.59-2.68 3.49-6.37 2.18-9.89z"/>
        <path d="M75.33 56.05c1.7-1.41 3.66-2.47 5.63-3.45.83 3.11 1.85 6.23 3.89 8.78 4.69 4.52 3.29 11.59 7.05 16.58-5.41-1.51-4.84-8.85-9.16-11.71-2.04-1.67-4.74-1.87-7.24-2.2-.41 2.41-1.57 5.17-.07 7.44 2.92 4.69 4.06 10.12 5.41 15.4-4.88-3.86-5.41-11.82-12-13.66-2.77 3.4-5.55 7.17-5.65 11.75-.91 4.95 2 10.16 6.48 12.28 6.45 2.86 14.23.34 18.69-4.89 4.59-4.59 6.6-11.17 11.68-15.31 2.18-2.08 4.72-3.89 7.72-4.52-1.95 1.74-4.27 3.34-5.04 5.99-1.76 5.3-3.7 10.54-5.2 15.92-1.33 3.03-2.7 6.64-5.68 8.35-1.04.24-1.69.88-1.97 1.92-.96 1.99-3.09 3.23-5.04 4.12l-1.84 1.04c-11.45 5.96-25.97 4.51-36.78-2.2-.59-.83-1.37-1.38-2.35-1.65-4.44-2.64-7.1-7.35-9.33-11.85.09-2.51.42-5.06 1.57-7.32 1.89.23 2.25 2.51 3.29 3.78 2.86 5.47 8.81 8.33 14.61 9.56 5.87 6.84 15.98 6.85 24.16 5.36 4.53-.3 8.07-3.52 10.97-6.72 1.98-2.55 3.29-5.54 4.19-8.62-1.68 1.6-3.29 3.28-4.95 4.89-3.86 3.67-9.07 5.88-14.38 6.15-5.48.09-10.66-3.1-13.63-7.61-2.97-3.84-2.31-9.13-1.36-13.56.85-2.9 1.99-6.96 5.81-6.58-.3-.37-.91-1.11-1.22-1.48 1.51-2.24 3.5-4.07 5.35-6.02 2.18-3.29 3.9-6.89 6.39-9.96z"/>
    </g>
    <path fill="#3e0e0e" opacity=".6" d="M56.43 47.23c.78 1.03.96 2.37.91 3.63l-.71.79c-1.23-1.01-1.26-3.28-.2-4.42z"/>
    <path fill="#160505" opacity=".43" d="M23.67 63.75c-1.38 2.08-3.13-3.56-.7-3.33.25 1.1.49 2.22.7 3.33z"/>
    <path fill="#290a0a" opacity=".53" d="M34.82 77.47c2.09-1.9 4.19-3.8 6.39-5.57.53 6 1.2 12.6 5.83 17-.63-5.1-1.15-10.63 1.72-15.2-.69 3.39-1.88 6.8-1.33 10.31.3 2.37.38 4.77.03 7.15-4.72-4.25-6.46-10.49-7.9-16.43-1.41 1.7-2.84 3.4-4.2 5.15-.65-2.35-1.75-5.45.93-6.98-.54 1.51-1 3.04-1.47 4.57z"/>
    <path fill="#b32c2c" d="M39.56 74.73c1.44 5.94 3.18 12.18 7.9 16.43l1.48 2.04c.23.47.69 1.42.92 1.89.2.69.61 2.07.82 2.76-6.53-2.63-10.45-8.61-13.55-14.6-1.18 1.64-2.36 3.29-3.57 4.91.12-2.13.23-4.26.46-6.38.33-.47 1.01-1.43 1.34-1.9 1.36-1.75 2.79-3.45 4.2-5.15z"/>
    <path fill="#1e0707" opacity=".48" d="M32.55 87.09c.34-1.8.74-3.61 1.47-5.31-.23 2.12-.34 4.25-.46 6.38 1.21-1.62 2.39-3.27 3.57-4.91 3.1 5.99 7.02 11.97 13.55 14.6 1.16.69 2.24 1.52 3.32 2.35-5.8-1.23-11.75-4.09-14.61-9.56-1.04-1.27-1.4-3.55-3.29-3.78-1.15 2.26-1.48 4.81-1.57 7.32-.72-1.64-.61-3.39-.35-5.12-.41-.49-1.22-1.47-1.63-1.97z"/>
    <path fill="#270909" opacity=".52" d="M88.37 95.11c1.66-1.61 3.27-3.29 4.95-4.89-.9 3.08-2.21 6.07-4.19 8.62.33-1.37.08-2.61-.76-3.73z"/>
    <path fill="#110404" opacity=".43" d="M48.94 93.2l.91.13.47.97-.46.79c-.23-.47-.69-1.42-.92-1.89z"/>
    <path fill="#771d1d" opacity=".83" d="M89.87 104.72c.28-1.04.93-1.68 1.97-1.92.39 1.66-.27 2.3-1.97 1.92z"/>
    <path fill="#220808" opacity=".45" d="M43.86 106.03c.98.27 1.76.82 2.35 1.65-1.7.72-2.48.17-2.35-1.65z"/>
    <path fill="#2a0a0a" opacity=".56" d="M82.99 109.88l1.84-1.04-.07.92-.95.53-.82-.41z"/>
</svg>
