<svg width="128pt" height="128pt" viewBox="0 0 128 128" xmlns="http://www.w3.org/2000/svg">
    <path fill="#0c0303" opacity=".38" d="M48.38 30.46c5.72-3.24 5.09-10.66 5.25-16.31 1.28 1.16 3.56 1.92 3.58 3.96.21 5.34 4.04 9.53 4.94 14.73 4.19-2.89 1.41-8.69 3.16-12.82.58.02 1.73.07 2.31.1.12 5.32 1.47 11.4-1.33 16.22.87-4.93 1.63-10.07.49-15.02-.21.01-.62.02-.82.03-.63 4.73-.08 9.68-2.32 14.09.75.93 1.5 1.86 2.26 2.79.69 2.4 1.5 4.77 2.39 7.11 3.58-3.33 4.94-8.51 4.08-13.26-.27-5.38-3.84-10.78-1.41-16.1 1.03-.53 2.09-1.02 3.16-1.47-.64 5.5-.03 11.66 3.95 15.86.04-3.54-1.25-6.87-1.79-10.31-.17-.96.14-1.76.93-2.41l.03.62c-.02 4.35 2.11 8.4 1.77 12.78.07 6.82-1.98 13.37-3.29 19.99 1.61 1.03 3.22 2.07 4.83 3.11.16-6.08 2.24-12.03 1.47-18.13-.43-4.18-1.13-8.32-1.89-12.45.25.27.76.81 1.02 1.07 1.2 5.05 2.04 10.17 2.87 15.29 3.98-2.62 2.91-7.77 2.96-11.8l2.66.24c.04.7.13 2.12.17 2.82-.67-.97-1.37-1.93-2.08-2.87-.14 3.67.81 7.78-1.43 11.01-2.42 3.79-5.11 7.96-4.43 12.69.27 5.7 5.84 8.69 8.65 13.1-.14-.87-.41-2.62-.54-3.49l1.04 2.45c-.42 1.34-.83 2.68-1.25 4.02-3.74-7.24-10.09-12.74-16.94-16.97-1.23 5.71-3.86 11.09-7.93 15.31 1.25-3.45 3.1-6.64 5.08-9.71-1.25-1-2.51-1.99-3.76-2.99l.06-.75c.26-3.18 1.39-6.46.34-9.61-1.72-5.45-5.39-10.01-7.35-15.38-2.09-4.05-2.71-8.61-4.44-12.78.74 5.94-1.99 11.18-4.11 16.48-.95 2.81-1.43 5.76-1.51 8.72-.6-3.28-.91-6.62-.83-9.96m22.69-10.41c1.25 5.6 2.41 11.27 2.4 17.03-.59 5.74-6.19 9.91-5.73 15.88.64 1.16 2.02 1.52 3.05 2.23.26-1.6.51-3.2.75-4.8.62-.13 1.84-.4 2.46-.54 2.55-5.86 3.44-12.54 2.21-18.81-1.86-5.13-4.3-10.37-2.84-15.97-1.21 1.35-3 2.92-2.3 4.98z"/>
    <g fill="#ad2021">
        <path d="M71.07 20.05c-.7-2.06 1.09-3.63 2.3-4.98-1.46 5.6.98 10.84 2.84 15.97 1.23 6.27.34 12.95-2.21 18.81-.62.14-1.84.41-2.46.54-.24 1.6-.49 3.2-.75 4.8-1.03-.71-2.41-1.07-3.05-2.23-.46-5.97 5.14-10.14 5.73-15.88.01-5.76-1.15-11.43-2.4-17.03zM54.83 15.22c1.73 4.17 2.35 8.73 4.44 12.78 1.96 5.37 5.63 9.93 7.35 15.38 1.05 3.15-.08 6.43-.34 9.61-1.42-.68-2.83-1.37-4.25-2.05 1.22-9.04-4.53-16.75-6.76-25.12-.79 5.09-2.8 10.68-.17 15.55 1.33 3.04 2.5 6.15 3.41 9.34.08.35.25 1.04.33 1.39l-.12 1.69-1.6 1.52c-.8-2.55-1.93-4.97-4.55-6.05-2.34-5.55-2.29-11.67-1.85-17.56 2.12-5.3 4.85-10.54 4.11-16.48z"/>
        <path d="M79.01 31.05c.34-4.38-1.79-8.43-1.77-12.78 1.16 1.65 2.3 3.36 2.89 5.3.76 4.13 1.46 8.27 1.89 12.45.77 6.1-1.31 12.05-1.47 18.13-1.61-1.04-3.22-2.08-4.83-3.11 1.31-6.62 3.36-13.17 3.29-19.99zM45.55 32.65c.75-4.51.91-9.56 4.26-13.05.22 3.71-1.37 7.19-1.43 10.86-.08 3.34.23 6.68.83 9.96.73 3.79 1.74 7.53 2.13 11.38-1.56.95-3.13 1.9-4.69 2.85-.04-4.03-.77-7.99-1.57-11.93.01-3.36.21-6.72.47-10.07zM87.73 28.32c.71.94 1.41 1.9 2.08 2.87 1.22 1.97.96 4.47.73 6.67-1.2 3.51-4.17 6.28-4.62 10.08-.54 2.62.26 5.24 1.4 7.58.92 2.02 1.86 4.03 2.66 6.11.13.87.4 2.62.54 3.49-2.81-4.41-8.38-7.4-8.65-13.1-.68-4.73 2.01-8.9 4.43-12.69 2.24-3.23 1.29-7.34 1.43-11.01zM38 29.84c.48-.15 1.45-.45 1.94-.6-.3 2.85-1 5.9.13 8.67 1.18 2.61 2.94 4.89 4.35 7.37.95 2.83 1.2 5.84.98 8.8-1.32 4.98-6.1 7.79-8.87 11.9.57-2.48 1.15-4.97 2.07-7.35.9-1.93 1.84-3.85 2.76-5.77 1.17-1.76 1.24-4.05-.01-5.79-1.45-2.97-3.38-5.71-4.55-8.81-.75-2.87-.04-5.81 1.2-8.42z"/>
        <path d="M29.13 41.95c1.81-2.45 4.69-1.5 6.06.83.68 1.22 1.31 2.48 1.77 3.8 1.02 7.01-2.87 13.58-1.52 20.54.33 3.08-1.57 5.8-2.24 8.71l-.45.21c-.53.08-1.59.24-2.11.32-.18-4.22-1.88-8.53-.08-12.63 2.31-5.49 4.3-11.44 2.88-17.45-.41-2.2-2.74-3.1-4.31-4.33zM92.77 41.66c1.12-1.91 4.51-2.23 5.08.31-1.62 1.02-3.66 1.92-4.08 4.02-1.41 5.49.4 11.12 2.56 16.16 2.11 4.76 1.02 10.09-.55 14.84-1.71-2.34-3.93-4.83-3.35-7.97.5-4.36-.07-8.71-1.55-12.83-.67-4.78-1.75-10.64 1.89-14.53zM81.2 74.1c.48-1.04.96-2.09 1.44-3.13.67 1.43 1.37 2.85 1.99 4.31.23 1.92 1.17 4.55-.83 5.86-.57-1.54-1.14-3.08-1.7-4.62-.3-.81-.6-1.61-.9-2.42zM75.41 77.45c.9-.47 2.69-1.4 3.58-1.86-1.48 4.71-.97 9.61.06 14.34-1.84 1.17-3.66 2.38-5.46 3.61 1.99.66 3.25-1.42 4.79-2.25-1.5 3.26-2.75 6.62-3.57 10.11-.47-.39-1.41-1.17-1.88-1.55.06.45.16 1.36.22 1.81-.97 1.79-2.79 2.86-4.13 4.34-.79 2.1-.69 4.42-.98 6.62l-1.02-.07c-.22-2.87-.55-5.73-1.09-8.56 2.02-1.25 4.08-2.56 5.26-4.71.41.2 1.24.61 1.65.81.46-1.84.93-3.69 1.4-5.53-.93.65-1.85 1.33-2.76 2.02-1.58-1.04-3.14-2.11-4.68-3.22.29.6.85 1.8 1.13 2.4-1.38.73-2.74 1.49-4.1 2.26-1.19-.75-2.38-1.5-3.58-2.23 2.05-3.62 3.2-7.64 3.2-11.81.64 1.54 1.29 3.07 1.97 4.59-.06 1.22-.11 2.43-.15 3.65.24-.88.71-2.64.95-3.52 1.6 1.79 3.15 3.66 5 5.2 2.92-.87 4.33-3.8 6.08-6.03-2.41 1.44-4.83 2.87-7.27 4.24-1.83-1.97-3.66-4.02-4.49-6.63l.01-1.05c1.86 1.4 3.68 2.86 5.59 4.2 2.95-1.3 4.27-4.52 6.05-7C74.5 83.16 72 85 69.66 87.02c-1.59-1.85-3.08-3.78-4.34-5.87 2.07.48 3.97 1.44 5.76 2.55 1.96-1.69 3.32-3.89 4.33-6.25z"/>
        <path d="M83.68 83.66c2.74-3.02 6.09-5.47 9.98-6.76-1.47 6.2-2.29 12.69-5.31 18.4-.43.9-.91 1.77-1.44 2.62-.29.44-.86 1.33-1.15 1.77-1.85 3.59-4.69 6.62-7.72 9.25-.94.32-1.7.88-2.28 1.68-1.75 1.62-3.74 2.93-5.69 4.28 1.38-3.37 3.07-6.59 4.78-9.8.37-.28 1.12-.82 1.49-1.1 4.86-4.91 8.67-11.49 8.61-18.58-1.85 6.26-4.12 12.88-9.33 17.18.09-3.58 1.39-6.92 2.98-10.07 2.12-3.85 1.15-8.35 1.35-12.54.83-.47 1.67-.93 2.5-1.39.47 1.66 1.03 3.33 1.23 5.06zM49.97 81.8c2.13 2.34 4.11 4.81 6.06 7.3 2.2-1.46 4.28-3.18 5.46-5.61-.01 3.08-.19 6.15-.39 9.23-1.7 1.46-3.37 2.97-4.88 4.63-2.18-2.97-4.71-5.69-7.67-7.9.5-2.54.96-5.1 1.42-7.65m.17 6.03c2 2.36 3.64 5.58 7.01 6.1.97-1.48 1.98-2.93 2.96-4.41-.97.8-1.93 1.62-2.89 2.44-2.34-1.4-4.68-2.82-7.08-4.13z"/>
    </g>
    <path fill="#a32021" d="M65.96 21.35c.2-.01.61-.02.82-.03 1.14 4.95.38 10.09-.49 15.02l-.39 1.89c-.76-.93-1.51-1.86-2.26-2.79 2.24-4.41 1.69-9.36 2.32-14.09z"/>
    <g fill="#020000">
        <path opacity=".37" d="M55.1 41.37c-2.63-4.87-.62-10.46.17-15.55 2.23 8.37 7.98 16.08 6.76 25.12-.08.86-.15 1.72-.21 2.58l-4.17 3.33c2.2 3.23 4.21 6.6 5.53 10.29-4.07-4.71-7.06-10.28-8.54-16.34-2.72 1.5-5.37 3.15-7.68 5.25-.52-.66-1.04-1.31-1.56-1.97.22-2.96-.03-5.97-.98-8.8.17-.64.49-1.92.66-2.56.8 3.94 1.53 7.9 1.57 11.93 1.56-.95 3.13-1.9 4.69-2.85-.39-3.85-1.4-7.59-2.13-11.38.08-2.96.56-5.91 1.51-8.72-.44 5.89-.49 12.01 1.85 17.56 2.62 1.08 3.75 3.5 4.55 6.05l1.6-1.52.12-1.69c2.29-3.08 1.9-6.88 1.19-10.42-.46.43-1.38 1.31-1.84 1.74.12-.87.24-1.74.35-2.62-1.29-3.37-1.29-7.08-2.72-10.41-1.54 3.47-1.59 7.33-.72 10.98z"/>
        <path opacity=".37" d="M53.3 59.33c1.8 2.62 3.98 4.95 6.2 7.22 2.77 2.7 2.88 6.86 3.6 10.41-.2 1.41-.38 2.82-.55 4.23-.26-.04-.79-.11-1.05-.15-1.63.79-3.18 1.73-4.71 2.69-2.91-2.03-3.67-5.94-6.68-7.79l-.72.56c-.99 1.51.27 3.43.47 5.03 2.94 1.45 5.66 3.28 8.18 5.37 1.15-1.13 2.31-2.26 3.45-3.41-1.18 2.43-3.26 4.15-5.46 5.61-1.95-2.49-3.93-4.96-6.06-7.3-.46 2.55-.92 5.11-1.42 7.65 2.96 2.21 5.49 4.93 7.67 7.9-.26.62-.51 1.25-.75 1.88-.28.74-.83 2.22-1.1 2.95-.57.15-1.71.45-2.28.59 0-4.85-2.73-8.98-4.2-13.44-.38-4.02.13-8.14-1.04-12.09-1.23 2.32-2.28 4.74-3.31 7.16.23-4.52 4.04-9.03 1.58-13.38-1.15 2.73-2.06 5.54-3.09 8.31.34-8.15 6.11-14.29 11.27-20m-6.95 9.75c-.17 1.93.57 4.24 1.83 5.68 3.97 1.25 7 3.96 9.73 7.02 1.21-.45 2.42-.89 3.63-1.34.84-3.68.94-7.7-.67-11.19-1.97-3.27-5.35-5.42-7.24-8.77-2.91 2.38-5.65 5.16-7.28 8.6m3.2 22.23c1.52 3.46 1.98 7.45 4.28 10.52.55-1.47 1.08-2.94 1.6-4.42-1.77-2.19-3.48-4.52-5.88-6.1zM65.91 70.68c1.46-4.69 5.97-7.38 8.66-11.31 4.17 5.2 9.7 10.09 10.56 17.08l-.5-1.17c-.62-1.46-1.32-2.88-1.99-4.31-.48 1.04-.96 2.09-1.44 3.13.3.81.6 1.61.9 2.42-.72.7-1.43 1.42-2.13 2.15l-.02 1.32c-.2 4.19.77 8.69-1.35 12.54-1.59 3.15-2.89 6.49-2.98 10.07 5.21-4.3 7.48-10.92 9.33-17.18.06 7.09-3.75 13.67-8.61 18.58-1.09-.75-2.18-1.49-3.19-2.34-.06-.45-.16-1.36-.22-1.81.47.38 1.41 1.16 1.88 1.55.82-3.49 2.07-6.85 3.57-10.11-1.54.83-2.8 2.91-4.79 2.25 1.8-1.23 3.62-2.44 5.46-3.61-1.03-4.73-1.54-9.63-.06-14.34-.89.46-2.68 1.39-3.58 1.86-1.01 2.36-2.37 4.56-4.33 6.25-1.79-1.11-3.69-2.07-5.76-2.55 1.26 2.09 2.75 4.02 4.34 5.87C72 85 74.5 83.16 77.19 81.63c-1.78 2.48-3.1 5.7-6.05 7-1.91-1.34-3.73-2.8-5.59-4.2l-.36-.27c-.32-2.36-.55-4.73-.68-7.1.26.42.79 1.26 1.05 1.67.3.51.9 1.53 1.2 2.03 3.89 2.15 5.81-2.59 8.88-4.03 1.67-1.09 4.09-1.42 4.82-3.54 3.13-5.18-3.06-9.28-6.11-12.7-2.84 3.37-6.12 6.4-8.44 10.19z"/>
        <path opacity=".37" d="M65.42 88.57l.12-3.09c.83 2.61 2.66 4.66 4.49 6.63 2.44-1.37 4.86-2.8 7.27-4.24-1.75 2.23-3.16 5.16-6.08 6.03-1.85-1.54-3.4-3.41-5-5.2-.24.88-.71 2.64-.95 3.52.04-1.22.09-2.43.15-3.65zM50.14 87.83c2.4 1.31 4.74 2.73 7.08 4.13.96-.82 1.92-1.64 2.89-2.44-.98 1.48-1.99 2.93-2.96 4.41-3.37-.52-5.01-3.74-7.01-6.1z"/>
    </g>
    <path fill="#130303" opacity=".34" d="M38 29.84c.68-1.28 1.52-1.44 2.5-.48.52 3.53-1.35 8.34 2.49 10.47.77-2.41.84-5.19 2.56-7.18-.26 3.35-.46 6.71-.47 10.07-.17.64-.49 1.92-.66 2.56-1.41-2.48-3.17-4.76-4.35-7.37-1.13-2.77-.43-5.82-.13-8.67-.49.15-1.46.45-1.94.6z"/>
    <g fill="#a61f20">
        <path opacity=".98" d="M58.19 43.42c.46-.43 1.38-1.31 1.84-1.74.71 3.54 1.1 7.34-1.19 10.42-.08-.35-.25-1.04-.33-1.39-.06-1.95-.27-3.9-.5-5.83.04-.37.13-1.09.18-1.46zM46.35 69.08c1.63-3.44 4.37-6.22 7.28-8.6 1.89 3.35 5.27 5.5 7.24 8.77 1.61 3.49 1.51 7.51.67 11.19-1.21.45-2.42.89-3.63 1.34-2.73-3.06-5.76-5.77-9.73-7.02-1.26-1.44-2-3.75-1.83-5.68zM74.35 60.49c3.05 3.42 9.24 7.52 6.11 12.7-.73 2.12-3.15 2.45-4.82 3.54-3.07 1.44-4.99 6.18-8.88 4.03-.3-.5-.9-1.52-1.2-2.03.27-2.67.39-5.36.35-8.05 2.32-3.79 5.6-6.82 8.44-10.19z"/>
    </g>
    <g fill="#010000">
        <path opacity=".16" d="M87.32 55.52c3.3-2.5.47-7.53 2.47-10.87.58 3.82-.02 7.79 1.09 11.54 1.48 4.12 2.05 8.47 1.55 12.83-.58 3.14 1.64 5.63 3.35 7.97l.12.16c-3.82 4.9-3.21 11.63-5.65 17.19-.47.24-1.42.72-1.9.96 3.02-5.71 3.84-12.2 5.31-18.4-3.89 1.29-7.24 3.74-9.98 6.76-.2-1.73-.76-3.4-1.23-5.06-.83.46-1.67.92-2.5 1.39l.02-1.32c.7-.73 1.41-1.45 2.13-2.15.56 1.54 1.13 3.08 1.7 4.62 2-1.31 1.06-3.94.83-5.86l.5 1.17c.23 1.57.16 3.16.24 4.75 2.37-2.51 5.11-4.64 8.09-6.4-1.23-2.23-2.45-4.47-3.69-6.7.42-1.34.83-2.68 1.25-4.02l-1.04-2.45c-.8-2.08-1.74-4.09-2.66-6.11zM36.96 46.58c2.3 3.79-1.02 8.58 1.64 12.05-.92 2.38-1.5 4.87-2.07 7.35 2.77-4.11 7.55-6.92 8.87-11.9.52.66 1.04 1.31 1.56 1.97-5.86 4.88-8.78 12.06-12.78 18.33 2.03 1.59 4.07 3.15 6.06 4.79-1.05-.37-3.14-1.12-4.19-1.5-1.34-1.12-3.62.43-2.16 2.21-1.17-.78-2.11-1.84-3.32-2.57.73-.42 1.45-.85 2.18-1.27l.45-.21c.67-2.91 2.57-5.63 2.24-8.71-1.35-6.96 2.54-13.53 1.52-20.54z"/>
    </g>
    <path fill="#4e0e0e" opacity=".72" d="M41.35 47.07c1.25 1.74 1.18 4.03.01 5.79-.91-1.82-.9-3.97-.01-5.79z"/>
    <path fill="#af2121" d="M46.96 56.05c2.31-2.1 4.96-3.75 7.68-5.25 1.48 6.06 4.47 11.63 8.54 16.34-1.32-3.69-3.33-7.06-5.53-10.29l4.17-3.33c-.13 3.12.09 6.24.5 9.33.57-2.26 1.01-4.54.99-6.88.7 2.16 1.55 4.27 2.49 6.33.21-2.85.27-5.71.42-8.56 1.25 1 2.51 1.99 3.76 2.99-1.98 3.07-3.83 6.26-5.08 9.71 4.07-4.22 6.7-9.6 7.93-15.31 6.85 4.23 13.2 9.73 16.94 16.97 1.24 2.23 2.46 4.47 3.69 6.7-2.98 1.76-5.72 3.89-8.09 6.4-.08-1.59-.01-3.18-.24-4.75-.86-6.99-6.39-11.88-10.56-17.08-2.69 3.93-7.2 6.62-8.66 11.31-.74 2.17-1.72 4.26-2.81 6.28-.72-3.55-.83-7.71-3.6-10.41-2.22-2.27-4.4-4.6-6.2-7.22-5.16 5.71-10.93 11.85-11.27 20 1.03-2.77 1.94-5.58 3.09-8.31 2.46 4.35-1.35 8.86-1.58 13.38 1.03-2.42 2.08-4.84 3.31-7.16 1.17 3.95.66 8.07 1.04 12.09 1.47 4.46 4.2 8.59 4.2 13.44l-1.18-1.28c-4.41-4.82-6.25-11.13-8.74-17 .17 6.9 3.22 13.65 8.09 18.51 4.17 2.63 5.09 7.87 7.46 11.85-3.17-2.34-6.63-4.36-9.47-7.12-.43-.89-1.08-1.55-1.96-1.98-.32-.41-.96-1.24-1.28-1.66-.31-.96-.87-1.73-1.69-2.31-1.88-2.27-3.08-4.99-4.53-7.53-2.64-4.7-2.88-10.21-4.57-15.24.46-.34 1.37-1.01 1.83-1.34 1.05.38 3.14 1.13 4.19 1.5-1.99-1.64-4.03-3.2-6.06-4.79 4-6.27 6.92-13.45 12.78-18.33z"/>
    <path fill="#6d1513" opacity=".87" d="M62.03 50.94c1.42.68 2.83 1.37 4.25 2.05l-.06.75c-.15 2.85-.21 5.71-.42 8.56-.94-2.06-1.79-4.17-2.49-6.33.02 2.34-.42 4.62-.99 6.88-.41-3.09-.63-6.21-.5-9.33.06-.86.13-1.72.21-2.58z"/>
    <path fill="#591011" opacity=".77" d="M63.1 76.96c1.09-2.02 2.07-4.11 2.81-6.28.04 2.69-.08 5.38-.35 8.05-.26-.41-.79-1.25-1.05-1.67.13 2.37.36 4.74.68 7.1l.36.27-.01 1.05-.12 3.09c-.68-1.52-1.33-3.05-1.97-4.59 0 4.17-1.15 8.19-3.2 11.81l-.59 1.29c1.52 1.01 3.08 1.95 4.64 2.89 1.37-1.25 2.95-2.4 3.63-4.21-.28-.6-.84-1.8-1.13-2.4 1.54 1.11 3.1 2.18 4.68 3.22.91-.69 1.83-1.37 2.76-2.02-.47 1.84-.94 3.69-1.4 5.53-.41-.2-1.24-.61-1.65-.81-.54-.23-1.62-.7-2.16-.93-1.65 1.37-3.31 2.71-4.94 4.09-2.03-1.17-3.95-2.53-5.7-4.1-.62.56-1.26 1.12-1.89 1.66l-1.03-.77c.24-.63.49-1.26.75-1.88 1.51-1.66 3.18-3.17 4.88-4.63.2-3.08.38-6.15.39-9.23 0-.61.01-1.84.01-2.45.26.04.79.11 1.05.15.17-1.41.35-2.82.55-4.23z"/>
    <path fill="#a81f20" d="M49.39 76.5l.72-.56c3.01 1.85 3.77 5.76 6.68 7.79 1.53-.96 3.08-1.9 4.71-2.69 0 .61-.01 1.84-.01 2.45-1.14 1.15-2.3 2.28-3.45 3.41-2.52-2.09-5.24-3.92-8.18-5.37-.2-1.6-1.46-3.52-.47-5.03z"/>
    <path fill="#310909" opacity=".65" d="M42.17 84.49c2.49 5.87 4.33 12.18 8.74 17-.16.38-.49 1.13-.65 1.51-4.87-4.86-7.92-11.61-8.09-18.51z"/>
    <path fill="#1c0505" opacity=".33" d="M33.02 93.45c1.38-.43 1.88.05 1.48 1.46-1.39.44-1.89-.04-1.48-1.46z"/>
    <path fill="#a81f20" d="M49.55 91.31c2.4 1.58 4.11 3.91 5.88 6.1-.52 1.48-1.05 2.95-1.6 4.42-2.3-3.07-2.76-7.06-4.28-10.52z"/>
    <path fill="#1f0505" opacity=".56" d="M60.25 95.79c1.2.73 2.39 1.48 3.58 2.23 1.36-.77 2.72-1.53 4.1-2.26-.68 1.81-2.26 2.96-3.63 4.21-1.56-.94-3.12-1.88-4.64-2.89l.59-1.29z"/>
    <path fill="#240606" opacity=".45" d="M85.76 99.69c.29-.44.86-1.33 1.15-1.77l.37.86-.6.91h-.92z"/>
    <path fill="#a01f1f" opacity=".96" d="M54.37 102.18c.27-.73.82-2.21 1.1-2.95l1.03.77c1.76 1.33 3.5 2.71 5.37 3.89-.63 1.88-1.29 3.74-1.79 5.66-.48-1.4-.95-2.8-1.42-4.2-.88-.52-1.76-1.06-2.62-1.61-.42-.39-1.25-1.17-1.67-1.56z"/>
    <path fill="#1f0506" opacity=".42" d="M43.32 101.78c.82.58 1.38 1.35 1.69 2.31-1.83.17-2.4-.6-1.69-2.31z"/>
    <path fill="#2b0808" opacity=".47" d="M56.04 103.74c.86.55 1.74 1.09 2.62 1.61.47 1.4.94 2.8 1.42 4.2.5-1.92 1.16-3.78 1.79-5.66-.33 3.47-.49 6.96-1.07 10.4-2.62-1.28-1.76-4.42-2.29-6.77-.61-1.38-1.58-2.57-2.47-3.78z"/>
    <path fill="#020000" opacity=".24" d="M46.29 105.75c.88.43 1.53 1.09 1.96 1.98-1.8.48-2.45-.19-1.96-1.98z"/>
    <path fill="#120303" opacity=".38" d="M75.76 110.62c.58-.8 1.34-1.36 2.28-1.68.23 1.83-.54 2.39-2.28 1.68z"/>
</svg>
