<svg width="128pt" height="128pt" viewBox="0 0 128 128" xmlns="http://www.w3.org/2000/svg">
    <path fill="#b02321" d="M91.04 24.94c.95-.81 2.05-1.44 3.11-2.11.13 3.69.23 7.6-1.49 10.98-.9 2-2.62 3.85-2.17 6.2.16 4.38 4.18 7.54 3.98 11.98-2.45-1.7-3.79-4.46-5.98-6.4-5.4-4.5-13.44-3.96-19.11-.24-4.09 2.2-6.79 6.14-8.61 10.3 3.2-.4 6.45-.65 9.63.1-.31-2.79-.78-5.56-1.16-8.34 3.93 3.96 5.44 9.42 6.67 14.69 5.24-4.78-.59-11.93 1.54-17.46.99 2.94 2.28 5.75 3.39 8.64l1.21 1.73c.74 3.2.94 6.64.1 9.84-1.28 2.83-3.46 5.11-5.19 7.66 1.35.04 2.91.61 4-.53 6.69-4.88 9.83-13.56 8.78-21.66 2.81 4.42 1.38 9.85 1.45 14.77-.98 2.76-2.52 5.27-3.97 7.79-1.59.53-2.81 1.73-3.32 3.32-3.28 2.44-7.07 4.12-10.17 6.8-1.94.83-.66 4.37 1.08 2.23 5.85-4.46 13.41-7.41 16.86-14.36 2.78-4.45 3.17-9.76 3.27-14.85 1.73 1.46 1.9 3.77 2.14 5.85.45 8.75.46 18.16-4.3 25.87-4.16 7.64-12.79 11.31-20.86 13.2-9.89 2.76-20.28 3.04-30.18 5.78 2.09-2.76 4.02-5.9 7.09-7.68.98-.32 1.77-.89 2.39-1.72 5.42-4.23 12.08-7.13 16.01-13.05 3.59-4.25 4.78-9.84 4.39-15.29.4-5.08-4.62-9.98-9.75-8.27-4.69 2.74-5.08 9.25-2.4 13.56-1.24.53-2.47 1.1-3.76 1.52l-1.96.84c-1.99 2.2-4.28 4.35-5.18 7.26-.12 1.77.04 3.55.12 5.32-3.09.51-6.38.82-9.1-1.06 3.93-2.54 5.57-7 7.45-11.05 1.2-2.58.1-5.43-.04-8.11-.37-2.99 1.47-5.61 2.69-8.18l-.28-3.04c-1.67 2.88-3.2 5.85-4.45 8.94-.46.41-1.39 1.22-1.85 1.62-1.03.87-2.09 1.71-3.2 2.47-.9.44-1.59 1.11-2.05 2-2.37 3.43-7.2 5.5-6.98 10.28-2.61-2.57-3.47-6.55-2.83-10.07.62-3.21 3.5-5.13 5.35-7.62 1.84-2.11 2.01-5.04 2.19-7.7 3.99-3.39 7.67-7.13 11.62-10.55.91-.4 1.61-1.03 2.12-1.88.84-.86 1.85-1.56 2.97-1.99.45-.29 1.34-.86 1.78-1.14.3-.24.91-.7 1.21-.93.48-.22 1.44-.67 1.92-.89 9.97-6.3 21.67-8.84 32.1-14.15.43-.3 1.29-.92 1.73-1.22M40.03 64.91c1.86-2.14 3.76-4.27 5.13-6.77-3.74-.68-6.87 3.36-5.13 6.77z"/>
    <path fill="#340909" opacity=".65" d="M89.29 25.23l.89-.63.86.34c-.44.3-1.3.92-1.73 1.22l-.02-.93z"/>
    <path fill="#190505" opacity=".44" d="M55.42 40.29l.98-.46.81.48c-.48.22-1.44.67-1.92.89l.13-.91z"/>
    <path fill="#140303" opacity=".43" d="M52.33 42.34l.91-.58.84.37c-.44.28-1.33.85-1.78 1.14l.03-.93z"/>
    <path fill="#080101" opacity=".29" d="M47.21 47.14c-.36-1.82.35-2.45 2.12-1.88-.51.85-1.21 1.48-2.12 1.88z"/>
    <path fill="#2a0708" opacity=".57" d="M80.84 53.28l.93-.01.61.89-.33.85-1.21-1.73z"/>
    <path opacity=".07" d="M92.14 55.38c1.88 2.02 1.04 5.04 1.26 7.54.31-2.34.79-4.66 1.54-6.9-.1 5.09-.49 10.4-3.27 14.85-3.45 6.95-11.01 9.9-16.86 14.36-.27-.56-.81-1.67-1.08-2.23 3.1-2.68 6.89-4.36 10.17-6.8 1.93.07 3.36-1.4 3.32-3.32 1.45-2.52 2.99-5.03 3.97-7.79 1.22-3.09.65-6.48.95-9.71z"/>
    <path opacity=".09" d="M40.03 64.91c-1.74-3.41 1.39-7.45 5.13-6.77-1.37 2.5-3.27 4.63-5.13 6.77zM44.96 66.71c1.25-3.09 2.78-6.06 4.45-8.94l.28 3.04C48.47 63.38 46.63 66 47 68.99c.14 2.68 1.24 5.53.04 8.11-1.88 4.05-3.52 8.51-7.45 11.05-.12.11-.38.33-.5.44-.74-.54-1.48-1.07-2.22-1.61 2.54-2.83 5.3-5.57 7.08-8.96 1.17-2.78.81-5.9.97-8.83-.34.67-1.01 2.01-1.34 2.69l-1.82-2.27c.34-.32 1.01-.96 1.35-1.28.46-.4 1.39-1.21 1.85-1.62z"/>
    <path fill="#ad2021" d="M43.58 71.88c.33-.68 1-2.02 1.34-2.69-.16 2.93.2 6.05-.97 8.83-1.78 3.39-4.54 6.13-7.08 8.96-3.06 2.59-3.79 6.62-5.07 10.2-1.95-2.79-1.08-6.4-.08-9.39 2.54-6.3 9.26-9.63 11.86-15.91z"/>
    <path fill="#110303" opacity=".35" d="M37.86 72.8c.46-.89 1.15-1.56 2.05-2 .43 1.79-.25 2.46-2.05 2z"/>
    <path fill="#170404" opacity=".45" d="M83.9 76.2c.51-1.59 1.73-2.79 3.32-3.32.04 1.92-1.39 3.39-3.32 3.32z"/>
    <path fill="#120303" opacity=".43" d="M53.75 76.63l1.96-.84-.16.91-1 .43-.8-.5z"/>
    <path fill="#5b1012" opacity=".82" d="M74.81 85.23c-1.74 2.14-3.02-1.4-1.08-2.23.27.56.81 1.67 1.08 2.23z"/>
    <g>
        <path fill="#280707" opacity=".47" d="M48.83 99.04c-.14-1.81.65-2.38 2.39-1.72-.62.83-1.41 1.4-2.39 1.72z"/>
    </g>
</svg>
