<svg width="128pt" height="128pt" viewBox="0 0 128 128" xmlns="http://www.w3.org/2000/svg">
    <path fill="#fff" d="M82.61 29.49c4.15-1.59 7.86-4.1 11.53-6.56.15 4.83-.16 10.25-3.64 13.98-1.29 5.52 3.24 9.73 4.2 14.84-3.19-1.63-4.19-5.6-7.46-7.11-5.78-4.15-13.82-2.47-19.27 1.45-3.65 2.24-5.63 6.16-7.68 9.76 3.32-.43 6.68-.94 9.97.04.31-2.97-.53-5.82-1.26-8.66 3.82 3.99 5.52 9.31 6.71 14.57 1.31.48 1.56-1.22 2.06-2.03 1.73-5.13-1.51-10.3-.76-15.51 1.79 6.29 6.94 11.87 5.39 18.78-.29 4.32-5.03 6.52-5.31 10.81 6.85-1.9 10.6-8.63 12.52-14.98.55-2.85.11-5.77.17-8.66 4.53 9.11 1.03 20.65-7.01 26.59-3.21 3.13-9.4 3.55-9.68 8.98C80.63 81.65 89.3 77.3 92.8 68.9c2.08-4.05 2.03-8.69 2.34-13.11 2.48 3.92 1.67 8.78 1.87 13.19.38 8.98-2.33 18.63-9.27 24.69-13.19 9.96-30.62 8.55-45.78 13.03 6.15-10.89 20.35-13.27 26.57-24.09 3.35-4.43 3.47-10.2 3.09-15.49-.6-4.83-5.93-8.43-10.51-6.1-3.97 3.13-4.35 9.05-1.77 13.19-6.46 1.53-12.66 7.72-10.69 14.8-3.24.75-6.58.84-9.43-1.11 4.9-1.42 5.57-6.84 7.93-10.62 1.66-3.03-.47-6.28-.14-9.41.24-3.7 3.92-6.52 2.47-10.38-1.54 2.93-3.49 5.69-4.38 8.92-4.59 3.61-8.81 7.64-12.71 11.98-1.35 1.24-1.4 3.21-2.06 4.81-1.61-3.3-3.03-7.03-2-10.74 1.09-3.27 4.14-5.26 5.96-8.06 1.23-1.99 1.16-4.42 1.43-6.66 4.92-4.05 9.18-8.83 14.16-12.79 9.97-6.91 21.28-11.61 32.73-15.46m-42.6 35.62c1.92-2.4 4.57-4.43 5.09-7.66-3.69.34-7.1 3.97-5.09 7.66z"/>
</svg>
