<svg width="128pt" height="128pt" viewBox="0 0 128 128" xmlns="http://www.w3.org/2000/svg">
    <path fill="#b22c2e" d="M60.68 12.72c1.26-1.91 3.83-1.32 5.78-1.62.2.75.59 2.26.79 3.02-1.11 4.32-.9 8.8-.59 13.22C70 24.06 73 20.43 76.68 17.51c.09 2.5.31 5.02.01 7.52-1.24 1.81-2.77 3.6-4.71 4.66-1.09.26-1.76.92-2.03 1.96-.1.34-.32 1.03-.42 1.38-1.03.77-2.05 1.57-3.07 2.36.03 2.37.04 4.75.1 7.12 3.5-2.99 6.54-6.57 10.58-8.89-.11 4.33-.58 8.67.22 12.97 1.79-1.7 3.49-3.49 5.14-5.33-.16-3.85-.96-7.7-.61-11.56.8-2.93 3.42-4.91 6.25-5.71.13 3.91.08 7.83.15 11.74 1.88-1.93 3.69-4 6.08-5.34.91-2.38 3.04-4.41 5.81-3.74 1.75 1.27 1.88 3.65 1.29 5.56-1.21.72-2.62.93-3.97 1.25-1.65 2.71-3.87 4.98-6.02 7.28 4.92.22 9.9-.26 14.77.75-1.65 1.74-3.35 3.41-5.09 5.06-6.82.49-15.33-2.2-20.32 4.02 4.71.29 9.46.13 14.08 1.21-2.41 3.52-6.79 5.62-8.07 9.87 2.83-.32 5.34-1.59 7.48-3.41.87-.49 1.5-1.19 1.9-2.11 1.59-2.03 3.58-3.71 5.45-5.49 2.36.05 4.72.1 7.08.23-2.22 4.07-6.14 6.7-9.05 10.21 5.28.31 10.57.22 15.84.5.06 1.6.07 3.2.02 4.8-2.25 1.34-4.75 1.45-6.99.04-.29.26-.87.77-1.16 1.02-2.32-.12-4.65-.2-6.97-.19 2.87 3.22 6.17 6.02 9.01 9.28-2.99 0-6.23.9-9.08-.34-3.26-2.54-4.94-6.77-8.7-8.7-1.81-.44-3.69-.22-5.52-.26 2.95 3.15 6.11 6.09 9 9.29-4.8.37-9.63.1-14.44.29 1.64 1.56 3.17 3.38 5.3 4.3 4.32.45 8.69-1.23 12.98-.18 2.74.9 4.2 3.6 5.01 6.19-4.17.06-8.33-.01-12.49.15 2.86 2.34 4.88 5.55 7.83 7.77 1.94 1.99 1.15 4.5.06 6.69-1.6-.25-3.66.21-4.75-1.32-.55-1.08-1-2.19-1.37-3.34-1.9-1.77-3.79-3.56-5.73-5.28-.38 4.44-.11 8.89-.27 13.34-2.07-1.87-4.6-3.52-5.82-6.11-1.04-4.57.8-9.35-.39-13.88-1.21-1.62-2.91-2.77-4.42-4.1.45 4.32.77 8.72-.47 12.95-3.4-2.71-6.15-6.14-9.71-8.66.17 2.04-.66 4.51.88 6.21 1.28 1.74 2.94 3.16 4.33 4.81.53.84 1.26 1.44 2.19 1.79 3.26 2.27 3.67 6.61 2.68 10.16-3.86-2.26-6.68-5.76-9.89-8.79-.24 4.91-.53 9.83-.24 14.75-2.12 1.97-4.61 1.57-6.65-.27.47-1.75.96-3.5 1.57-5.2-.01-3.05-.01-6.1-.15-9.15-3.72 2.76-6.51 6.56-10.23 9.32.09-2.94-1.86-6.74.92-8.97 3.38-3.1 6.73-6.25 9.52-9.91-.07-.92-.19-2.78-.26-3.71-4.34 2.55-6.66 7.49-11.32 9.56-.12-4.67.06-9.35-.15-14.02-1.08 1.12-2.15 2.24-3.21 3.38.09 4.97.16 9.95-.16 14.92-1.84 1.64-3.65 3.33-5.52 4.96-.63-4.63-.19-9.3-.36-13.95-2.35 2.42-4.77 4.79-7.51 6.78-.98 1.55-1.48 4.17-3.88 3.67-1.74.33-2.67-1.56-3.91-2.41.45-1.23.9-2.45 1.36-3.66.62-.02 1.86-.07 2.48-.09 2.01-2.52 4.27-4.83 6.47-7.17-3.98-.21-7.96.01-11.94-.18 1.1-2.7 3.22-4.7 5.42-6.52 4.05.07 8.1 1.11 12.14.52 2.63-.67 3.82-3.35 5.3-5.36-4.23-.17-8.47.07-12.69-.27 2.19-3.49 5.36-6.15 8.12-9.15-2.11-.04-4.23-.02-6.34.03-1.64 1.76-3.13 3.66-4.83 5.36-.83.54-1.43 1.27-1.79 2.2-2.62 2.56-6.47 1.33-9.69 1.26 2.26-3.34 5.34-5.95 8.16-8.78-2.51-.13-5.02-.1-7.52-.02-.4-.25-1.19-.76-1.59-1.02-2.38 1-4.91 1.05-7.19-.24.17-1.52.28-3.06.71-4.53 5.39-.63 10.89-.19 16.32-.43-1.26-1.68-2.83-3.18-3.71-5.11-.25-1.06-.9-1.72-1.95-1.99-1.89-.22-2.53-2-3.33-3.44 2.72-.05 5.71-.53 8.18.95 3.93 2.4 6.61 6.25 9.63 9.63 1.86-.04 3.72-.07 5.57-.14-2.49-3.47-5.9-6.13-8.53-9.49 4.27-.35 8.55-.15 12.83-.16-1.53-1.74-3.16-3.4-4.84-5-4.29.09-8.58.06-12.86.04-1.72-1.68-3.49-3.31-5.19-5 4.09-.75 8.26-.72 12.4-.76-2.33-2.1-4.68-4.23-6.37-6.91-2.15-.96-3.57-2.78-4.54-4.88 1.16-1.16 1.72-3.55 3.73-3.4 2.35-.67 3.22 2.35 4.12 3.88 2.73 2.56 5.4 5.17 8.11 7.74.36-4.53.2-9.07.21-13.61 2.1 1.39 4.23 2.83 5.84 4.8.23 4.26-.4 8.51-.26 12.77-.12 2.63 2.12 4.34 3.71 6.08.37-4.3.09-8.62.4-12.92.2-.11.62-.33.82-.44 3.32 2.59 5.96 5.93 9.06 8.76.46-2.66.95-5.56-.65-7.97-2.7-3.05-5.82-5.68-8.79-8.45-.07-2.73-.07-5.46.11-8.18 3.3 2.97 6.36 6.18 9.62 9.2.52-3.21.8-6.5.36-9.74-.14-.33-.43-1-.57-1.33-.48-1.06-1.15-2.28-.46-3.42M56.8 47.17c.1 2.29.26 4.57.6 6.83 1.3.97 2.61 1.93 3.95 2.84.5-3.22-.31-6.37-2.47-8.85l.04-.18-2.12-.64m13.7.52c-1.28 1.35-2.53 2.73-3.81 4.08l-.21-1.27c-.25 2.3-.43 4.61-.51 6.92 1.12-.77 2.23-1.56 3.33-2.38l-1.16.49c.7-.46 2.09-1.38 2.79-1.84l-.11-1.13c2.36.07 1.48-6.71-.32-4.87M48.43 58.86c.47.36 1.41 1.09 1.87 1.46.15 2.32 4.99 2.52 5.86.62-1.2-1.83-2.73-4.15-5.27-3.77l-.2-.48c-1.37-1.58-4.52 1.45-2.26 2.17m25.15-1.14c-.28.47-.86 1.41-1.15 1.87l.09-.61c-.44.55-1.31 1.66-1.75 2.21 2.83.58 5.76.43 8.28-1.09.53-.59 1.59-1.76 2.12-2.35l.81.12c-2.5-2.08-5.71-1.44-8.4-.15M51.39 67.81l-1.09-.26c-.95.89-1.89 1.79-2.83 2.69-1.92 1.64 3.95 3.1 4.17.93l1.01.27c.98-.94 1.96-1.88 2.93-2.82 2.13-1.67-3.92-2.89-4.19-.81m20.89.77c.42.43 1.28 1.29 1.71 1.72 2.56.67 5.65 1.58 7.78-.59l-.57.07c-.9-.5-2.7-1.49-3.6-1.99-.6-1.8-7.07-1.25-5.32.79m-12.26 2.68l.09.44c-1.2 1.23-2.39 2.48-3.55 3.75l.31 1.07c-1.5.57-1.23 3.11-.59 4.32.65.78 1.22.77 1.7-.01l2.09-1.81c2.01-2.39 1.88-5.5 1.01-8.32-.27.14-.8.42-1.06.56m6.56 5.64c.36.23 1.08.68 1.44.9.98 1.05 2.01 2.04 3.07 3.02-.14-2.05-.33-4.11-.81-6.12-.78-1.14-1.72-2.17-2.63-3.21-2.08-1.61-2.58 4.44-1.07 5.41z"/>
    <path fill="#591517" opacity=".77" d="M61.14 16.14c.14.33.43 1 .57 1.33.44 3.24.16 6.53-.36 9.74-.6-3.67-.62-7.39-.21-11.07z"/>
    <path fill="#1b0606" opacity=".41" d="M47.33 28.36c2.76 5.36-1.55 12.27 2.68 17.02.36-4.04.11-8.1.54-12.12l1.33-.36c3.6 1.86 5.87 5.47 8.91 8.08-.13-2.12-.26-4.23-.38-6.34 1.6 2.41 1.11 5.31.65 7.97-3.1-2.83-5.74-6.17-9.06-8.76-.2.11-.62.33-.82.44-.31 4.3-.03 8.62-.4 12.92-1.59-1.74-3.83-3.45-3.71-6.08-.14-4.26.49-8.51.26-12.77z"/>
    <path fill="#791d1b" opacity=".84" d="M69.95 31.65c.27-1.04.94-1.7 2.03-1.96.33 1.66-.35 2.31-2.03 1.96z"/>
    <path fill="#170505" opacity=".45" d="M56.8 47.17l2.12.64-.04.18c-.51 2-1 4-1.48 6.01-.34-2.26-.5-4.54-.6-6.83z"/>
    <path fill="#3a0d0e" opacity=".65" d="M70.5 47.69c1.8-1.84 2.68 4.94.32 4.87-.16-1.62-.28-3.24-.32-4.87z"/>
    <path fill="#390d0e" opacity=".63" d="M66.48 50.5l.21 1.27c.23 1.37.46 2.75.67 4.12.2-.09.59-.27.78-.36l1.16-.49c-1.1.82-2.21 1.61-3.33 2.38.08-2.31.26-4.62.51-6.92z"/>
    <path fill="#761d1c" opacity=".86" d="M22.37 54.11c1.05.27 1.7.93 1.95 1.99-1.66.35-2.31-.31-1.95-1.99z"/>
    <path fill="#3d0f0f" opacity=".61" d="M48.43 58.86c-2.26-.72.89-3.75 2.26-2.17l.2.48c-.81.58-1.63 1.15-2.46 1.69z"/>
    <path fill="#40100f" opacity=".63" d="M73.58 57.72c2.69-1.29 5.9-1.93 8.4.15l-.81-.12c-2.5-.46-5.07-.44-7.59-.03z"/>
    <path fill="#100304" opacity=".35" d="M94.33 58.24c-.55-1.78.09-2.48 1.9-2.11-.4.92-1.03 1.62-1.9 2.11z"/>
    <path fill="#380d0f" opacity=".59" d="M72.52 58.98l-.09.61c-.05.39-.16 1.17-.22 1.56 2.29-.31 4.58-.61 6.84-1.05-2.52 1.52-5.45 1.67-8.28 1.09.44-.55 1.31-1.66 1.75-2.21z"/>
    <path fill="#6e1a1c" opacity=".86" d="M50.3 60.32c1.94.31 3.91.39 5.86.62-.87 1.9-5.71 1.7-5.86-.62z"/>
    <path fill="#230808" opacity=".54" d="M51.39 67.81c.27-2.08 6.32-.86 4.19.81-1.41-.2-2.81-.47-4.19-.81z"/>
    <path fill="#150505" opacity=".47" d="M72.28 68.58c-1.75-2.04 4.72-2.59 5.32-.79-1.78.24-3.54.58-5.32.79z"/>
    <path fill="#030101" opacity=".18" d="M47.47 70.24c.94-.9 1.88-1.8 2.83-2.69l1.09.26c1.38.34 2.78.61 4.19.81-.97.94-1.95 1.88-2.93 2.82l-1.01-.27c-1.38-.37-2.77-.68-4.17-.93z"/>
    <path fill="#050101" opacity=".16" d="M72.28 68.58c1.78-.21 3.54-.55 5.32-.79.9.5 2.7 1.49 3.6 1.99-2.39.31-4.8.56-7.21.52-.43-.43-1.29-1.29-1.71-1.72z"/>
    <path fill="#1c0706" opacity=".51" d="M81.2 69.78l.57-.07c-2.13 2.17-5.22 1.26-7.78.59 2.41.04 4.82-.21 7.21-.52z"/>
    <path fill="#3a0e0e" opacity=".64" d="M51.64 71.17c-.22 2.17-6.09.71-4.17-.93 1.4.25 2.79.56 4.17.93z"/>
    <path fill="#3d0e0f" opacity=".62" d="M60.02 71.26c.26-.14.79-.42 1.06-.56.87 2.82 1 5.93-1.01 8.32.77-2.39.69-4.92.04-7.32l-.09-.44z"/>
    <path fill="#411010" opacity=".65" d="M66.58 76.9c-1.51-.97-1.01-7.02 1.07-5.41-.26 1.82-.61 3.63-1.07 5.41z"/>
    <g fill="#0f0303">
        <path opacity=".33" d="M28.83 74.97c.36-.93.96-1.66 1.79-2.2.63 1.76.03 2.49-1.79 2.2zM71.69 96.35c1.75-.63 2.48-.03 2.19 1.79-.93-.35-1.66-.95-2.19-1.79z"/>
    </g>
    <path fill="#240908" opacity=".53" d="M70.28 74.7c.48 2.01.67 4.07.81 6.12-1.06-.98-2.09-1.97-3.07-3.02.59.34 1.78 1.02 2.38 1.37l-.12-4.47z"/>
    <path fill="#280909" opacity=".54" d="M56.28 80.84c-.64-1.21-.91-3.75.59-4.32.46 1.41.79 2.86 1.11 4.31-.48.78-1.05.79-1.7.01z"/>
</svg>
