<svg width="128pt" height="128pt" viewBox="0 0 128 128" xmlns="http://www.w3.org/2000/svg">
    <g fill="#9c2021">
        <path d="M52.05 21c5.35-3.28 11.94-2.6 17.94-2.56 8.02.68 16.06 3.29 22.72 7.83.62.85 1.43 1.42 2.45 1.7 1.45.68 3.06 1.44 3.9 2.89.28 1.01.87 1.78 1.77 2.32 4.41 3.53 6.52 8.98 8.93 13.92-.03.37-.09 1.12-.13 1.49-4.99-8.28-10.78-17.08-20.06-20.94-7.77-4.95-17.41-6.87-26.52-5.9-6.23 1.47-12.59 3.4-17.69 7.42-.65.26-1.94.78-2.58 1.05l-.22.74C36 37.49 31.35 45.91 29.68 55.04c-.83 7.41-.75 15.49 3.61 21.89 3.56 6.4 10.45 10.64 17.64 11.44 7.88.75 14.84-6.71 14.5-14.37-.68-3.2-2.01-7.08-5.45-8.19-3.81-1.38-8.62 1.35-11.72-2.02-4.41-3.36-6-9.28-5.13-14.59.53-7.39 5.59-13.47 10.74-18.35 8.82-4.62 19.65-6.45 29.14-2.78 7.73 2.68 14.83 7.57 19.38 14.45 4.43 5.04 7.3 11.2 8.82 17.71 1.11 4.29.3 8.73.79 13.08.53 3.02-.98 5.77-1.95 8.51-2.05 6.36-5.8 12.1-10.36 16.93-.83.51-1.48 1.19-1.93 2.05-2.46 2.21-5.55 3.59-7.9 5.94-2.91 1.68-6.13 2.73-9.22 4.03l-.39.13c-.7.09-2.09.26-2.79.35-.76-.32-1.5-.67-2.22-1.04 2.08-.43 4.16-.97 6.09-1.89 5.73-1.6 10.25-5.48 14.77-9.15.91-.49 1.6-1.19 2.08-2.1 1.25-1.72 2.58-3.38 4.01-4.94.28-.45.85-1.35 1.13-1.8 2.35-3.85 3.63-8.13 4.36-12.55 1.25-3.15.8-6.48.58-9.76.45-8.36-3.36-16.38-8.5-22.76-3.51-3.2-6.44-7.17-10.84-9.23-6.62-4.37-15.29-5.52-22.81-2.95-2.86.91-5.44 2.45-8.09 3.8-.96.36-1.71.98-2.24 1.87-.6.71-1.21 1.4-1.83 2.09-6.26 6.17-2.68 18.56 6.08 20.16 2.68.93 4.8-1.05 6.12-3.12 1.46-2.33 2.1-5.04 3.21-7.53 2.2-3.12 6.12-3.9 9.65-4.52 3.23 1.13 7.31.64 9.71 3.46.58.86 1.37 1.44 2.37 1.71 2.91 1.65 4.09 5.22 6.1 7.79 5.97 12.68 1.16 28.27-8.79 37.51-.3.17-.9.5-1.21.67-1.01.33-1.79.95-2.35 1.87-2.71 2.86-6.97 3.27-10.08 5.59-6.47 1.35-13.09 3.09-19.74 1.95-6.93-.92-13.46-3.62-19.65-6.77-11.23-8.14-19.04-21.51-18.96-35.57-.17-7.28 1.21-14.62 4.18-21.28 1.34-3.14 3.92-5.48 5.73-8.33 1.55-2.48 3.7-4.49 5.99-6.27-1.14 2.97-3.26 5.34-4.94 7.98-3.83 8.14-8.74 16.48-7.89 25.83.83 9.12 3.05 18.55 8.59 26.02 2.17 3.13 5.6 4.92 8.4 7.4 6 5.05 13.79 7.58 21.55 7.98 5.84.04 11.54-1.54 16.98-3.51 5.59-1.71 9.94-5.88 14.04-9.85 5.78-7.68 7.27-18.44 3.04-27.2-2.8-4.42-7.87-7-13.05-6.94-5.08.7-9.64 4.31-11.36 9.16-.74 2.56 1.22 4.8 2.15 7.04.35.95.98 1.67 1.89 2.16 1.74 1.34 2.99 3.46 2.64 5.72.07 5.79-3.97 10.72-8.87 13.34-9.46 4.33-21.34 2.24-28.87-4.92-5.87-5.64-10.8-12.94-11.5-21.26-1.14-5.73-.22-11.57.71-17.25 1.52-4 3.43-7.88 5.6-11.58.78-.67 1.31-1.5 1.59-2.49 4.26-6.07 10.67-10.43 17.24-13.68.45-.28 1.35-.83 1.8-1.11z"/>
        <path d="M71.73 60.61c1.93-.37 3.89-.36 5.8.12l-.14 1.58c-.35 1.63-.96 3.21-1.96 4.55-2.2.6-3.72-1.06-4.9-2.6.41-1.22.81-2.43 1.2-3.65zM54.94 69.94c1.77-.39 4.76-1.29 5.41 1.21 1.63 3.07-2.79 5.26-5.18 3.72-1.32-1.48-.65-3.27-.23-4.93zM49.55 109.19c7.82 2.3 16.12 2.77 24.15 1.36.66.49 1.33.99 1.99 1.49-.99.21-2.99.63-3.99.84l-.36.07c-7.34-.12-15.2-.07-21.79-3.76z"/>
    </g>
    <path fill="#260708" opacity=".57" d="M50.28 21.19l.92-.56.85.37c-.45.28-1.35.83-1.8 1.11l.03-.92z"/>
    <path fill="#210707" opacity=".47" d="M92.71 26.27c1.71-.66 2.52-.1 2.45 1.7-1.02-.28-1.83-.85-2.45-1.7z"/>
    <path opacity=".06" d="M89.57 27.65c9.28 3.86 15.07 12.66 20.06 20.94.04-.37.1-1.12.13-1.49l.85-1.3c.1.88.31 2.64.42 3.53-1.54.37-1.62.9-.25 1.59-.41 3.11.67 6.18.43 9.31-1.52-6.51-4.39-12.67-8.82-17.71-4.55-6.88-11.65-11.77-19.38-14.45 2.18.53 4.56.84 6.56-.42z"/>
    <path fill="#190506" opacity=".4" d="M42.78 30.22c.64-.27 1.93-.79 2.58-1.05-.44 1.54-1.38 2.14-2.8 1.79l.22-.74z"/>
    <path fill="#1f0606" opacity=".44" d="M99.06 30.86c1.78-.15 2.37.62 1.77 2.32-.9-.54-1.49-1.31-1.77-2.32z"/>
    <path fill="#1d0506" opacity=".41" d="M31.42 38.28c-.76-1.71-.23-2.54 1.59-2.49-.28.99-.81 1.82-1.59 2.49z"/>
    <path fill="#100303" opacity=".38" d="M55.78 38.75c.53-.89 1.28-1.51 2.24-1.87.24 1.81-.5 2.44-2.24 1.87z"/>
    <path fill="#170405" opacity=".42" d="M60.03 61c-8.76-1.6-12.34-13.99-6.08-20.16-1.68 3.82-2.96 7.94-1.86 12.12.85-.21 1.7-.42 2.54-.65-.01 1.45-.31 3.05.67 4.28 1.45.35 2.93.54 4.4.75-.97.56-1.92 1.13-2.87 1.72 1.7.49 3.37 1.34 5.18 1.31 1.45-.71 2.79-1.62 4.14-2.49-1.32 2.07-3.44 4.05-6.12 3.12z"/>
    <path fill="#0c0202" opacity=".38" d="M88.72 49.29c1.7-.65 2.49-.08 2.37 1.71-1-.27-1.79-.85-2.37-1.71z"/>
    <path fill="#31090b" opacity=".54" d="M110.78 50.92c-1.37-.69-1.29-1.22.25-1.59-.06.39-.19 1.19-.25 1.59z"/>
    <path fill="#9f2021" d="M54.63 52.31c1.54-2.15 4.84-2.3 6.46-.17.81 1.89.06 3.87-1.39 5.2-1.47-.21-2.95-.4-4.4-.75-.98-1.23-.68-2.83-.67-4.28z"/>
    <path fill="#220607" opacity=".47" d="M77.39 62.31c2.54.64.55 5.54-1.96 4.55 1-1.34 1.61-2.92 1.96-4.55z"/>
    <path fill="#320a0a" opacity=".55" d="M54.5 69.52c2.59-1.42 6.39-1.07 6.89 2.42.33 3.79-4.06 4.83-6.9 3.62-.71-1.98-.8-4.07.01-6.04m.44.42c-.42 1.66-1.09 3.45.23 4.93 2.39 1.54 6.81-.65 5.18-3.72-.65-2.5-3.64-1.6-5.41-1.21z"/>
    <path fill="#0c0202" opacity=".33" d="M69.82 72.07c1.78-.31 2.41.42 1.89 2.16-.91-.49-1.54-1.21-1.89-2.16z"/>
    <path fill="#100303" opacity=".43" d="M102.38 90.35l.94-.02c-.28.45-.85 1.35-1.13 1.8l-.39-.85.58-.93z"/>
    <path fill="#220707" opacity=".47" d="M84.84 98.84c.56-.92 1.34-1.54 2.35-1.87.15 1.79-.64 2.41-2.35 1.87z"/>
    <path fill="#160404" opacity=".45" d="M96.1 99.17c-.42-1.8.28-2.5 2.08-2.1-.48.91-1.17 1.61-2.08 2.1z"/>
    <path fill="#0f0203" opacity=".34" d="M97.76 100.8c.45-.86 1.1-1.54 1.93-2.05.54 1.82-.1 2.5-1.93 2.05z"/>
    <path fill="#140404" opacity=".37" d="M80.64 110.77c3.09-1.3 6.31-2.35 9.22-4.03-1.37 3.34-6.08 3.48-9.22 4.03z"/>
    <path fill="#1a0505" opacity=".4" d="M57.17 110.04c8.07 1.58 16.21-.3 24.16-1.72-1.93.92-4.01 1.46-6.09 1.89.72.37 1.46.72 2.22 1.04.7-.09 2.09-.26 2.79-.35-2.67 1.31-5.62 1.7-8.55 1.98 1-.21 3-.63 3.99-.84-.66-.5-1.33-1-1.99-1.49-8.03 1.41-16.33.94-24.15-1.36 6.59 3.69 14.45 3.64 21.79 3.76-.58.3-1.74.9-2.32 1.21-5.37-.71-10.86-.81-16.07-2.37-1.91-.58-4.12-.91-5.35-2.68 3.24-.94 6.46-.04 9.57.93z"/>
</svg>
