<svg width="128pt" height="128pt" viewBox="0 0 128 128" xmlns="http://www.w3.org/2000/svg">
    <path fill="#2b2b2b" opacity=".17" d="M50.57 22.54c1.56-3.01 5.47-3.33 8.44-3.86 6.68-.19 13.53-.64 20.01 1.35 9.51 2.85 18.73 7.98 24.62 16.18 2.65 3.64 4.52 7.79 6.24 11.94-5.61-7.29-10.44-16.17-19.38-19.83-7.1-4.7-15.63-6.4-24.02-6.57-2.59-.28-5.15-1.01-7.77-.9-2.73.47-5.38 1.35-8.14 1.69z"/>
    <path fill="#4c4c4c" opacity=".3" d="M50.57 22.54c2.76-.34 5.41-1.22 8.14-1.69 2.62-.11 5.18.62 7.77.9-10.78.69-21.75 5.75-28.32 14.53l-.47.07c-1.11.18-2.37.24-3.18 1.15-4.26 4.1-6.19 9.87-8.64 15.11l-1.07.59c2.31-8.35 6.3-16.68 12.74-22.65 4.09-2.97 8.04-6.73 13.03-8.01z"/>
    <path fill="#676767" opacity=".4" d="M65.93 26.42c7.84-1.56 16.31.27 22.94 4.47 2.89 4.39 7.85 7.36 9.24 12.65-2.91-2.34-5.18-5.52-8.72-6.98-.92-.69-2.55-.89-2.89-2.12-.1-.44-.31-1.32-.42-1.76-6.16-3.49-12.93-6.4-20.15-6.26z"/>
    <path fill="#848484" opacity=".52" d="M59.69 28.49c2.02-.84 4.07-1.69 6.24-2.07 7.22-.14 13.99 2.77 20.15 6.26.11.44.32 1.32.42 1.76-2.8-1.03-5.78-1.5-8.56-2.58-5.52-3.29-12.14-2.41-18.25-3.37z"/>
    <path fill="#242424" opacity=".15" d="M27.68 32.49c1.39-1.88 3.14-3.45 5.09-4.74-1.7 3.88-4.75 6.97-6.4 10.87-3.23 6.77-6.73 13.76-6.82 21.43.71 8.53 2.44 17.19 6.76 24.68 1.32 2.41 3.49 4.24 4.74 6.69 1.21 4.33 5.84 6.25 8.38 9.71-4.51-.42-7.52-4.14-10.61-7.01-6.51-7.19-11.49-16.26-12.13-26.09-.36-8.08.32-16.38 3.36-23.94 1.72-4.35 4.87-7.89 7.63-11.6z"/>
    <path fill="#b3b3b3" opacity=".7" d="M50.7 34.66c1.31-3.87 5.42-5.26 8.99-6.17 6.11.96 12.73.08 18.25 3.37-4.41-.26-8.76.4-12.99 1.51-4.8-1.49-9.56.23-14.25 1.29z"/>
    <path fill="#494949" opacity=".29" d="M88.87 30.89c4.74 1.96 9.34 5.36 11.91 9.85 1.52 3.75 3.57 7.4 3.87 11.51-2.02-3.02-4.37-5.81-6.54-8.71-1.39-5.29-6.35-8.26-9.24-12.65z"/>
    <path fill="#d6d6d6" opacity=".84" d="M50.7 34.66c4.69-1.06 9.45-2.78 14.25-1.29-1.84.92-3.64 1.99-5.63 2.59-4.4.86-8.49 2.78-12.85 3.83.99-1.95 2.03-4.32 4.23-5.13z"/>
    <path fill="#6a6a6a" opacity=".42" d="M34.51 37.5c.81-.91 2.07-.97 3.18-1.15-2.02 3.1-3.25 6.66-5.52 9.6-3.25 3.88-4.06 9.08-5.3 13.83-.56 6.36.95 12.73 2.35 18.9-3.38-3.39-3.63-8.43-4.42-12.87-.36-4.4-.67-9.04 1.07-13.2 2.45-5.24 4.38-11.01 8.64-15.11z"/>
    <path fill="#eee" opacity=".93" d="M46.47 39.79c4.36-1.05 8.45-2.97 12.85-3.83-2.62 1.99-5.05 4.25-6.93 6.97-3.64.83-6.5 3.31-8.82 6.11-.79-3.49 1.08-6.47 2.9-9.25z"/>
    <path fill="#333" opacity=".2" d="M100.78 40.74c4.52 4.46 8.57 10.32 8.97 16.83-.1 4.77.37 9.69-1.16 14.3-.51-3.38-.39-6.82-.91-10.2-.52-3.29-2.57-6.12-3.03-9.42-.3-4.11-2.35-7.76-3.87-11.51z"/>
    <path fill="#fff" d="M43.57 49.04c2.32-2.8 5.18-5.28 8.82-6.11-3.2 6.44-.46 15.68 6.92 17.6 6.22 1.96 8.78-5.89 9.88-10.53 4.02-3.78 9.73-4.77 14.91-3.12 1.96 3.51 3.18 7.34 3.72 11.31-3.73-1.61-8.14-3.25-12.09-1.38-4.06 1.53-6.94 5.05-8.47 9.02.63 3.47 2.56 6.48 5.04 8.94 4 3.69 1.54 9.95-.9 13.9-4.7-.04-9.8 1.19-14.14-1.19 3.47-2.18 6.55-5.32 7.61-9.39 1.45-3.86-.25-8.24-2.85-11.17-3.15-2.51-7.27-.96-10.85-1.32-6.1-2.48-8.34-9.11-8.65-15.18.26-.35.78-1.03 1.05-1.38z"/>
    <path fill="#969696" opacity=".59" d="M26.87 59.78c1.24-4.75 2.05-9.95 5.3-13.83-.92 4.35-3.04 8.52-2.69 13.07.12 4.05-.34 8.24 1.13 12.11.74 2.16 2.14 4.05 2.77 6.26 1.02 7.59 8.46 11.69 13.55 16.52-4.19.05-7.33-3.1-10.33-5.58-2.81-2.89-5.86-5.85-7.38-9.65-1.4-6.17-2.91-12.54-2.35-18.9z"/>
    <path fill="#e9e9e9" opacity=".91" d="M84.1 46.88c1.79.23 3.34 1.13 4.7 2.27 1.95 1.63 4.59 2.86 5.42 5.45.58 6.05 1.99 12.23.59 18.27-.8-5.25-2.15-11.13-6.91-14.25l-.08-.43c-.54-3.97-1.76-7.8-3.72-11.31z"/>
    <path fill="#b9b9b9" opacity=".73" d="M94.22 54.6c1.78 2.36 4.29 4.78 4.14 7.96-.67 4.15-.64 8.5-2.14 12.46-.48.39-1.45 1.17-1.94 1.55.15-1.24.32-2.47.53-3.7 1.4-6.04-.01-12.22-.59-18.27z"/>
    <path fill="#1c1c1c" opacity=".11" d="M109.75 57.57c2.35 1.7 2.1 4.85 2.22 7.41-.11 4.3.14 8.65-.48 12.92-2.32 8.7-7.15 16.61-13.58 22.89-3.09 2.18-6.05 4.55-9.1 6.76-12.68 6.16-28.04 7.64-41.17 1.94 3.87-1.52 7.61.61 11.32 1.51 5.71-.59 11.58.32 17.15-1.42 12.25-2.56 22.75-11.22 28.47-22.22 2.6-4.78 2.47-10.38 4.01-15.49 1.53-4.61 1.06-9.53 1.16-14.3z"/>
    <path fill="#9e9e9e" opacity=".62" d="M96.22 75.02c1.5-3.96 1.47-8.31 2.14-12.46 3.2 6.15 1.19 13.28-.32 19.61-.04-.64-.12-1.92-.17-2.56-3.66 5-5.91 12.25-12.5 14.06 4.92-4.32 8.2-10.42 8.74-16.99l.17-.11c.49-.38 1.46-1.16 1.94-1.55z"/>
    <path fill="#c6c6c6" opacity=".78" d="M46.93 93.91c-5.09-4.83-12.53-8.93-13.55-16.52 2.59 2.79 4.72 6.4 8.46 7.78 1.39.62 2.77 1.3 3.93 2.28 4.11 4.74 10.25 6.82 16.37 6.97-2.11 1.38-4.69.99-7.07 1.07-2.74-.15-5.95.48-8.14-1.58z"/>
    <path fill="#757575" opacity=".46" d="M85.37 93.67c6.59-1.81 8.84-9.06 12.5-14.06.05.64.13 1.92.17 2.56-1.6 4.04-4.15 7.65-6.76 11.11-2.14 3.01-5.57 4.63-8.29 7.03l-.61.06c-6.5.26-12.44 4.56-19.09 2.8 4.96-1.28 9.93-2.63 14.65-4.62 2.78-1.15 4.71-3.64 7.43-4.88z"/>
    <path fill="#e8e8e8" opacity=".91" d="M56.99 87.36l.27.12c4.34 2.38 9.44 1.15 14.14 1.19-2.81 2.32-5.38 5.38-9.26 5.75-6.12-.15-12.26-2.23-16.37-6.97 3.7.89 7.57 1.23 11.22-.09z"/>
    <path fill="#464646" opacity=".27" d="M39.43 101.13c-2.54-3.46-7.17-5.38-8.38-9.71 3.06 1.23 5.13 3.84 7.77 5.67 4.56 2.66 9.44 5.05 14.79 5.46l-.03.41c-.03.43-.09 1.29-.13 1.71 3.69.45 7.35 1.03 11.01 1.63-4.78 1.56-9.99.03-14.75-1.01-3.5-1.15-7.26-1.98-10.28-4.16z"/>
    <path fill="#555" opacity=".33" d="M63.29 103.17c6.65 1.76 12.59-2.54 19.09-2.8-2.4 1.63-5.2 2.56-7.56 4.26-3.46.52-6.86 1.51-10.36 1.67-3.66-.6-7.32-1.18-11.01-1.63.04-.42.1-1.28.13-1.71 3.24.04 6.48-.11 9.71.21z"/>
</svg>
