<svg width="128pt" height="128pt" viewBox="0 0 128 128" xmlns="http://www.w3.org/2000/svg">
    <path fill="#fff" d="M46.96 24.6c2.5 2 2.43 5.55 3.28 8.39 1.38-1.06 2.74-2.15 4.21-3.09-.4 2.04-1.21 4.03-1.21 6.13.38 2.71 2.48 4.62 4.29 6.46 1.94 1.93 3.13 4.43 4.58 6.72.56-1.66-1.28-6.24 1.55-6.09.87 1.88 1 3.95 1.11 5.98 1.5-3.98 4.8-6.72 7.27-10.04 2.03-2.84.56-6.3-.31-9.25 1.63.73 3.06 1.8 4.23 3.14.81-2.96 1.03-6.1 2.47-8.86 1.74 2.85 1.14 6.14.21 9.12 2.09-2.15 3.89-4.92 7.01-5.62-.12 3.31-3.4 4.85-5.27 7.14 2.8-.54 6.09-1.8 8.51.43-2.57 1.33-5.55 1.35-8.2 2.47 1.16 1 2.32 2.01 3.41 3.09-2.93.38-6.13-1.32-8.78.48-5.83 3.76-8.31 10.64-9.55 17.15 1.98-1.84 3.25-4.41 5.67-5.75-.08.76-.24 2.27-.31 3.03-1.05 1.26-2.02 2.57-2.84 3.98 3-1.98 5.82-4.76 9.69-4.68 5.39-.02 10.43-1.94 14.98-4.69-.74 1.73-1.9 3.18-3.17 4.53 2.13.06 4.26.1 6.39-.09 1.05.65 2.09 1.34 3.11 2.06-3.17 1.1-6.55.61-9.82.61 1.61 1.2 2.87 2.72 3.56 4.64-.59-.07-1.78-.21-2.37-.29-3.22-3.29-8.01-4.5-12.49-4.27-2.98.87-5.19 3.29-7.66 5.07 2.2-.75 4.49-.96 6.77-.4-2.85 1.52-5.84 2.82-8.32 4.92 1.85.3 3.57 1.04 4.6 2.68-1.7.1-3.4.3-5.01.9.37 10.14.15 20.28.7 30.42.38 3.61-1.05 7.58.81 10.92 1 1.33 4.92 1.03 2.78 3.56-1.64.19-3.04-.65-4.38-1.47.51 1.07.92 2.17 1.22 3.32-1.98-.06-3.31-1.37-4.45-2.8.25 1.7-.19 3.1-1.33 4.21-1.13-1.22-1.36-2.79-1.41-4.38-.82 1.11-1.65 2.2-2.49 3.29-.48-.38-1.44-1.14-1.92-1.51.51-.58 1.52-1.72 2.03-2.29-1.47.81-2.83 1.94-4.55 2.17-2-1.95.45-3.52 2.39-3.56 1.25-1.97.9-4.32.92-6.53-.25-11.82.1-23.67-.89-35.47-1.47-.31-2.94-.63-4.4-.97 1.23-1.35 2.99-1.89 4.7-2.35-2.43-1.74-5.59-2.54-7.39-5.07 1.73-.04 3.46.08 5.18.27-3.53-2.91-8.29-4.84-12.91-3.98-2.65.59-4.9 2.18-7.22 3.5-.49-.2-1.48-.61-1.97-.82 1.03-.97 2.07-1.94 3.12-2.91-2.38-.01-4.75-.01-7.13 0-.57-.55-1.14-1.11-1.71-1.67 2.76-1.06 5.73-1.2 8.65-1.28-1.43-1.16-2.58-2.6-3.17-4.36 3.54 1.04 6.42 3.83 10.21 4.1 3.5.26 6.93 1.01 10.4 1.53 1.03 1.18 2.31 2.08 3.73 2.76-1.41-2.11-3-4.18-3.26-6.8 2.96 1.36 4.5 4.33 6.51 6.71-1.75-6.49-3.67-13.97-9.88-17.62-2.76-1.76-5.76.12-8.55.69.12-.6.36-1.8.48-2.41.64-.46 1.91-1.39 2.55-1.86-3-.78-6.08-1.23-8.98-2.34 2.56-2.24 5.86-1 8.82-.59-1.96-2.26-4.57-4-5.72-6.86 3.29.17 5.39 2.82 7.59 4.91-.65-2.76-1.46-5.63-.67-8.46z"/>
</svg>
