<svg width="128pt" height="128pt" viewBox="0 0 128 128" xmlns="http://www.w3.org/2000/svg">
    <g fill="#fff">
        <path d="M42.92 23.07c-.64-4.23 2.34-7.82 5.05-10.69 2.34 3.05 4.99 6.44 4.75 10.51-.01 2.93-4.75 3.34-3.16 6.6-.58-1.8-1.41-3.49-2.27-5.16-.25.77-.74 2.3-.98 3.07-1.3-1.28-3.28-2.28-3.39-4.33zM73.68 23.01c-.68-4.17 2.05-7.8 4.35-10.98 3.5 3.14 6.71 8.1 4.35 12.85-1.01.64-2.01 1.27-3.02 1.9-.21-.64-.63-1.94-.85-2.58-.35.68-1.06 2.05-1.42 2.74-1.47-.98-3.13-2.02-3.41-3.93zM83.12 28.45c-1.92-5.23 4.58-6.52 8.28-7.1-.06 3.82-.83 10.09-6.14 9.27.05-.73.16-2.2.21-2.93l-2.35.76zM34.38 22.38c4.07-.48 10.19 1.12 8.99 6.48-.82-.2-2.46-.61-3.28-.81.53 1.07 1.06 2.13 1.62 3.19-1.51-.54-3.03-.34-4.43.37.66.6 1.98 1.8 2.65 2.4-.73.39-2.18 1.18-2.91 1.58.66.25 1.97.76 2.63 1.01-.66 1.15-1.33 2.29-1.99 3.44-4.77 2.02-8.88-1.76-12.53-4.26 3.21-3.21 7.29-5.27 11.67-6.34-1.48-2.09-1.89-4.62-2.42-7.06zM51.97 26.99c2.02-2.7 5.71-2.6 8.73-2.99-.53 2.54-.52 5.47-2.17 7.59-1.31 1.53-5.42 1.88-4.29-1.27-.57.13-1.72.41-2.29.55-.1-1.3-.09-2.59.02-3.88zM65.4 23.75c3.08.27 6.83.42 8.76 3.26.02 1.07.07 3.19.09 4.25-.63-.35-1.89-1.05-2.52-1.41.16.65.46 1.95.62 2.61-5.34 1.37-6.47-4.88-6.95-8.71z"/>
        <path d="M88.11 35.14c-2.61-2.55 1.27-5.5 3.9-5.35 3.57.49 6.48 2.77 9.36 4.74-3.46 2.8-7.26 7.06-12.22 5.12-.8-1.45-2.72-2.93-1.04-4.51zM61.51 45.46c-6.01-3.57-2.13-11.43 2.06-14.79 1.99 3.22 4.89 6.39 4.7 10.43-.22 2.06-2.3 3.04-3.65 4.32-.51-.87-.59-2.24-1.79-2.43-.33.62-.99 1.85-1.32 2.47z"/>
        <path d="M83.37 38.83c4.21-.6 6.37 3.48 6.3 7.12 3.04-3.18 7.64-3.45 11.71-4.19-.79 3.67-.8 8.11-3.82 10.8-1.71 1.56-4.01.65-5.95.2.33-.6.97-1.79 1.3-2.39-.92.36-1.84.72-2.75 1.08-.45-1.26-.89-2.52-1.32-3.78-3.59 0-9.7-2.01-7.49-6.7.55-.06 1.64-.19 2.18-.25l-.16-1.89zM38.66 40.87c.88-1.94 3.05-1.19 4.71-1.24-.11.61-.35 1.84-.47 2.45.66-.11 1.97-.33 2.63-.45 1.12 4.81-4.15 6.71-7.96 6.66-.14.82-.43 2.45-.57 3.27-.76-.14-2.26-.4-3.02-.53.19.77.58 2.32.77 3.1-1.76 0-3.87.72-5.36-.61-3.36-2.49-3.08-7.16-4.08-10.81 4 .67 8.78.42 11.63 3.87.41-1.93.57-4.03 1.72-5.71zM46.08 45.26c3.75-.15 7.93.3 10.71 3.09 1.69 1.43.84 3.68.83 5.55-.69-.33-2.08-.98-2.77-1.31.23.95.7 2.85.93 3.8-2.13-.19-4.34-.03-6.4-.72-2.04-3.1-2.66-6.82-3.3-10.41zM70.03 48.06c2.76-2.62 6.82-2.94 10.37-3.68-.22 3.24-.74 6.48-2.16 9.43-2.18 1.32-4.53 2.32-7.11 2.38.07-.88.22-2.63.3-3.5-.56.27-1.67.8-2.22 1.07-.27-1.94-.81-4.19.82-5.7zM96.95 55.24c1.17-1.14 2.1-3.02 4-2.96 2.88.1 5.28 1.86 7.42 3.61-2.71 3.01-7.85 5.83-11.02 1.81.47-.39 1.39-1.17 1.85-1.56-.56-.22-1.69-.67-2.25-.9zM18.63 56.92c2.25-2.18 5.14-4.29 8.46-3.74 1.76 1.16 2.59 3.82 2.1 5.75-3.05 3.71-8.05.84-10.56-2.01zM74.18 61.54c1.27-1.38 1.75-3.98 3.93-4.1 1.26-.37 2.57-.11 3.56.76 2.34 1.62 5.01 2.79 7.07 4.79-3.26 2.3-6.8 5.17-11.04 4.77-1.39-.66-2.82-1.51-3.44-2.99-.38-1.81 1.9-1.83 2.95-2.6l-3.03-.63zM45.59 58.31c2.98-.72 5.37 1.35 7.3 3.31l-1.9.97c.57.45 1.73 1.36 2.31 1.81-1.73 1.78-3.35 4.63-6.27 4.07-3.33-.58-5.77-3.19-8.44-5.05 1.91-2.25 4.75-3.28 7-5.11zM92.16 59.18c1.92-.51 4.45-1.07 5.89.72 2.53 2.54 2.72 6.26 3.36 9.58-.31.2-.94.59-1.25.78-3.36-.73-7.36-.8-9.71-3.7-1.74-1.89-1.1-6.38 2.24-4.6-.13-.69-.4-2.09-.53-2.78zM28.92 60.62c1.74-1.7 5.83-1.9 6.05 1.17.56-.09 1.68-.25 2.24-.33.04 1.98.71 4.33-.83 5.94-2.63 3.02-6.98 3.17-10.69 3.41.5-3.47.52-7.58 3.23-10.19zM72.18 67.94c1.84.03 3.68-.03 5.52-.18l-1.14.37c2.06 2.4 2.89 5.51 2.93 8.62-3.26-.42-6.72-.98-9.04-3.55.26-1.82.72-3.56 2.88-3.73-.29-.38-.86-1.15-1.15-1.53zM47.52 77.3c.84-3.22.44-8.3 4.44-9.37 1.48.71 2.7 1.9 4.34 2.31 1.28 5.24-4.97 6.62-8.78 7.06z"/>
    </g>
</svg>
