<svg width="128pt" height="128pt" viewBox="0 0 128 128" xmlns="http://www.w3.org/2000/svg">
    <path fill="#9f2021" d="M57.98 15.9c1.22-2.15 3.96-2.38 6.04-3.27 1.88.77 4.22 1.09 5.46 2.9 2.43 3.71 2.32 8.36 4.06 12.36 1.41-1.03 2.9-3.57 4.95-2.35 1.68.74 4 2.28 5.48.35 3.03-2.94 6.41-6.37 10.85-6.64 4.38 1.77 9.47 3.85 12.01 8.01.24 1.03.87 1.69 1.9 1.97 2.63 1.51 3.37 4.9 4.49 7.53 2.86 7.64.27 15.94-3.46 22.78-.98 1.57-1.69 3.69-3.6 4.33-.85-1.5-.7-3.26-.71-4.92.28-7.53-1.88-15.54-7.45-20.89-1.51 1.11-3.46 1.96-4.17 3.85 0 4.06 1.18 8.08.61 12.16-.39 2.94-.04 5.9.02 8.85-.39 5.58-2.85 10.75-3.77 16.21 2.54 6.76 4.02 14.88-.23 21.29-3.54 4.43-7.49 9.2-13.28 10.56.57-5.19 2.34-10.27 1.51-15.55-4.18 2.65-7.67 6.77-12.67 7.86-4.66 1.01-8.64-2.15-12.39-4.36-2.97 5.62.65 11.43 2.02 16.93-3.71-.3-7-2.29-9.63-4.83-3.86-3.73-8.18-7.62-9.41-13.1-.8-4.51-.57-9.35 1.61-13.45 1.66-2.74-.56-5.42-1.5-7.94-3.33-9.79-4.48-20.4-2.65-30.61.7-3.11.02-6.24-1.36-9.04-1.43.45-2.72 1.17-3.98 1.95-.92.48-1.51 1.23-1.76 2.26-2.32 4.62-4.44 9.56-4.4 14.84-.08 2.7.55 5.68-1.12 8.05-3.2-5.22-6.83-10.64-7.14-16.95-.57-5.82.06-12.21 3.95-16.85.86-.51 1.48-1.23 1.86-2.14 3.7-4.02 8.41-7.65 13.82-8.85 3.88 1.37 7.28 3.75 10.12 6.71 1.96 2.21 4.66-.28 6.87-.72 1.78.4 3.13 3.85 5.04 1.87.96-3.66.24-7.71 2.01-11.16m4.46 1.26l-1.27-.12c-.86 1.17-1.86 2.29-2.39 3.66-1.17 3.15-.89 6.52-.05 9.71l.88-.04c3.22.81 6.56.63 9.83.18.49-3.31 1.32-6.93-.39-10.04-.61-1.61-1.81-2.86-3.2-3.84-.09-1.65-3.84-1.19-3.41.49M17.7 34.55c-2.08 6.98-2.21 15.58 2.54 21.57.95-5.31 1.3-10.89 4.04-15.67 1.77-3.54 5.09-5.97 8.7-7.41 1.17 1.24 2.35 2.47 3.52 3.71h2.66c-1.31-3.06-3.82-5.32-6.06-7.7-3.21.28-5.67 2.5-8.59 3.61 1.5-3.95 4.96-6.46 8.58-8.33 2.7 2.26 5.34 4.62 8.34 6.48 1.38-4.68-4.17-6.97-6.8-9.86-7.31 1.6-13.17 7.36-16.93 13.6m67.23-3.52c4.24-.55 6.32-4.89 10-6.59 1.57.25 2.63 1.63 3.91 2.45 2.18 1.62 4.17 3.53 5.25 6.09-1.89-.68-3.64-1.64-5.31-2.72-2.61 2.23-9.36 4.6-6.02 8.84 2.26-1.29 4.47-5.34 7.38-3.33 5.85 4.64 6.29 12.7 7.7 19.47.92-.82 2.06-1.56 2.29-2.87 1.12-4.69 2.08-9.64.96-14.42-.79-3.73-3.44-6.59-5.55-9.62l-.81-.11c.29-1.64-.38-2.26-2.02-1.84-.43-.47-1.27-1.43-1.7-1.91-2.57-1.45-5.91-4.94-8.78-2.32-2.98 2.42-6.16 5.06-7.3 8.88m-36.34 2.83c2.25 5.63 5.1 11.14 8.36 16.22l-.34.85.61.9h.91c.36 1.11.85 2.17 1.47 3.18 1.37-.38 2.73-.75 4.1-1.12-1.52-2.08-3.46-4.19-3.37-6.94-.47-4.23 3.33-7.36 6.9-8.71 3.42-1.48 7.13-.51 10.69-.45 2.09-.9 4.32-5.4.77-5.81.77-1.84-3.09-1.88-2.37-.02l-2.09 1.37c-4.17 3.73-10.22 1.99-15.26 1.82-2.99.08-5.13-2.09-7.53-3.49-1.37-.91-4.11.31-2.85 2.2m19.76 8.63c-2.65 1.65-1.66 5.09-.86 7.48l.81-.15c-.69 1.92 3.06 1.72 2.24-.14.46 0 1.37-.01 1.83-.01.17-.87.52-2.61.7-3.47.83.88 1.65 1.78 2.47 2.68-.68 2.14-3.71 4.85-1.44 6.94 3.8 3.98 6.68 9.62 5.18 15.23-1.28 4.3-4.2 9.47-9.48 8.73-2.74-2.42-4.77-6.85-2.23-10.11.42 1.26.87 2.5 1.36 3.73 4.16.35 6.68-6.14 3.72-8.92-5.18-.96-10.51 2.58-12.67 7.22-3.3 6.56-4.84 14.82-1.19 21.56 1.38 2.6 5.36 4.6 7.81 2.29 4.61-3.32 7.67-8.21 10.11-13.25 1.2.49 2.41 2.04 3.84 1.4 1.47-1.54 2.59-3.41 3.29-5.41 5.34-9.25 6.82-21.17 3.12-31.28-2.59 3.95-1.61 8.92-1.68 13.37-.31 2.66-1.15 5.24-2.46 7.58-1.27-7.09-1.08-14.68-4.59-21.17-1.69-3.57-6.16-5.41-9.88-4.3m-27.77 10.6c1.41.45 2.81.91 4.21 1.37.58 5.19.48 10.46 1.65 15.59 1.69-3.11 3.71-6.02 5.48-9.09l-.83-.16c-.11-.41-.31-1.23-.41-1.64l-.88.08c-1.74-5.71-5.23-10.84-6.92-16.64-1.71 3.23-2 6.91-2.3 10.49m46.43 32.72c.09.69.29 2.07.39 2.76-.22 2.98-.53 5.95-1.03 8.9l-.34.53c-.51.28-1.53.83-2.04 1.11-.23-1.88-.37-3.84-1.38-5.5-.34-.84-1.02-1.37-2.05-1.58l.17 1.52-.52-1.29c-.21 3.4.04 6.79.15 10.19-.46 1.97-.83 3.97-1.03 5.99 5.67-1.55 9.18-7.51 10.51-12.85 2 .16 1.99-4.28.01-4.19 0-1.75-.2-3.58-1.13-5.11 2.2-2.1-3.22-3.21-1.71-.48m-45.82 16.94c2.67 4.49 6.02 9.35 11.59 10.25-.5-2.67-1.21-5.29-1.71-7.95-.75-3.28.14-6.72-.9-9.95-.84.93-1.67 1.87-2.51 2.81-.34 1.73-.57 3.47-.81 5.22-.91-.76-1.82-1.51-2.74-2.25-.67-2.22-1.06-4.54-1.08-6.86-.07-2.44.86-5.2-1.04-7.18-2.45 4.8-3.89 11.07-.8 15.91z"/>
    <path fill="#2d0808" opacity=".6" d="M62.44 17.16c-.43-1.68 3.32-2.14 3.41-.49-1.09.5-2.23.66-3.41.49z"/>
    <path fill="#32090a" opacity=".57" d="M62.63 19.63l1.52-.64c3.1-.43 2.65 3.26 2.76 5.22-.37-1.42-.78-2.84-1.18-4.26l-3.1-.32z"/>
    <path fill="#9c2021" d="M61.84 19.55l.79.08 3.1.32c.4 1.42.81 2.84 1.18 4.26.14.58.42 1.73.55 2.3-1.89-.16-3.79-.31-5.68-.45.01-1.71.03-3.41.05-5.11l.01-1.4z"/>
    <path fill="#2f0909" opacity=".59" d="M58.73 30.41c-.84-3.19-1.12-6.56.05-9.71-.03 3.24.04 6.47-.05 9.71z"/>
    <path fill="#4d0f0f" opacity=".74" d="M60.67 22.79l1.16-1.84c-.02 1.7-.04 3.4-.05 5.11 1.89.14 3.79.29 5.68.45-2.12.55-4.31.65-6.48.44-.1-1.39-.21-2.77-.31-4.16z"/>
    <path fill="#340a0a" opacity=".6" d="M69.05 20.51c1.71 3.11.88 6.73.39 10.04-3.27.45-6.61.63-9.83-.18 3.12-.14 6.25-.34 9.37-.57.32-3.09.41-6.2.07-9.29z"/>
    <path opacity=".05" d="M84.93 31.03c1.14-3.82 4.32-6.46 7.3-8.88 2.87-2.62 6.21.87 8.78 2.32-.74.79-1.45 1.61-2.17 2.42-1.28-.82-2.34-2.2-3.91-2.45-3.68 1.7-5.76 6.04-10 6.59z"/>
    <path fill="#1c0606" opacity=".45" d="M102.71 26.38c1.64-.42 2.31.2 2.02 1.84-1.07-.11-1.74-.72-2.02-1.84z"/>
    <path fill="#651415" opacity=".81" d="M106.83 27.26c1.69-.37 2.32.29 1.9 1.97-1.03-.28-1.66-.94-1.9-1.97z"/>
    <path fill="#100303" opacity=".38" d="M18.26 30.19c-.57-1.78.05-2.49 1.86-2.14-.38.91-1 1.63-1.86 2.14z"/>
    <path fill="#150404" opacity=".49" d="M76.32 31.96c-.72-1.86 3.14-1.82 2.37.02-.59 0-1.78-.01-2.37-.02z"/>
    <path fill="#240707" opacity=".49" d="M26.97 41.1c.25-1.03.84-1.78 1.76-2.26.59 1.69 0 2.44-1.76 2.26z"/>
    <path fill="#220707" opacity=".48" d="M85.28 60.38c.07-4.45-.91-9.42 1.68-13.37 3.7 10.11 2.22 22.03-3.12 31.28 3.06-8.8 5.79-18.46 3.15-27.72-.85 3.22-1.26 6.52-1.71 9.81z"/>
    <path opacity=".13" d="M95.55 64.2c-.99-5.34-.7-10.83-.05-16.19.71 5.36 1.17 10.85.05 16.19z"/>
    <path fill="#100303" opacity=".43" d="M56.95 50.08c.3.44.89 1.31 1.18 1.75h-.91l-.61-.9.34-.85z"/>
    <path fill="#4f1010" opacity=".76" d="M68.3 49.82c.56-.04 1.68-.11 2.24-.14.82 1.86-2.93 2.06-2.24.14z"/>
    <path fill="#150405" opacity=".43" d="M49.8 59.24l.88-.08c.1.41.3 1.23.41 1.64-.32-.39-.97-1.17-1.29-1.56z"/>
    <path fill="#330a0a" opacity=".67" d="M87.01 85.81c-1.51-2.73 3.91-1.62 1.71.48-.43-.12-1.29-.36-1.71-.48z"/>
    <path fill="#1d0605" opacity=".48" d="M87.4 88.57c.52 3 .72 6.23-1.03 8.9.5-2.95.81-5.92 1.03-8.9z"/>
    <path fill="#5e1212" opacity=".86" d="M89.85 91.4c1.98-.09 1.99 4.35-.01 4.19-.03-1.4-.03-2.8.01-4.19z"/>
    <path fill="#350a0a" opacity=".63" d="M80.21 92.26l.52 1.29c.51 2.96.38 5.99-.37 8.9-.11-3.4-.36-6.79-.15-10.19z"/>
    <path fill="#4a0e0e" opacity=".68" d="M82.61 93.61c1.01 1.66 1.15 3.62 1.38 5.5.51-.28 1.53-.83 2.04-1.11-.76 1.07-1.53 2.11-2.33 3.14-.7-2.45-.93-5-1.09-7.53z"/>
    <path fill="#470d0e" opacity=".67" d="M46.85 103.13c.24-1.75.47-3.49.81-5.22.24 2.13.47 4.26.4 6.4-2.24.34-3.15-1.79-3.95-3.43.92.74 1.83 1.49 2.74 2.25z"/>
</svg>
