<svg width="128pt" height="128pt" viewBox="0 0 128 128" xmlns="http://www.w3.org/2000/svg">
    <path fill="#fff" d="M38.56 36.96c2.68-4.75 6.6-9.23 11.64-11.54 1.6-.99 2.37 1.11 3.22 2.06 4.4 3.71 10.57 4.3 16 2.97 3.34-.88 5.24-4.05 8.3-5.42 6.17 3.97 12.57 8.7 15.46 15.68 1.74 10.02 2.49 20.56-.55 30.42-2.62 12.98-12.13 23.44-22.88 30.58-4.89 3.22-10.82.89-14.98-2.39-5.14-2.83-8.23-7.91-12.12-12.09-2.86-3.05-4.1-7.12-5.81-10.84-3.97-12.3-5.57-26.39.23-38.39.37-.26 1.12-.78 1.49-1.04m9.65-4.66c.12 2.74 1.77 5.15 2.89 7.6 2.85 5.01 5.06 10.41 8.5 15.09 1.52-.26 2.99-.72 4.44-1.24-2.77-2.59-4.93-6.79-2.83-10.44 3.25-5.69 11.17-7.07 16.9-4.62.79-1.29 1.62-2.56 2.37-3.88 1.2-1.54-1.1-2.73-1.89-3.78-.51.02-1.54.04-2.05.05-2.01 1.58-3.78 3.88-6.5 4.17-4.62.7-9.29-.22-13.89-.68-2.46-1.08-5.34-5.36-7.94-2.27m19.53 10.47c-2.34 2.24-1.1 5.79.53 8.07 2.83-.03 4.78-1.97 5.57-4.59 2.02 2.69.61 5.83-1.62 7.86 3.48 3.17 6.28 7.2 7.24 11.87.36 4.63-1.34 9.63-4.97 12.63-1.78 1.8-4.88 1.08-6.25-.86-2.35-2.37-1.73-5.91-.91-8.78.79 1.57.33 4.84 2.77 4.69 3.43-1.54 5.1-5.73 3.37-9.14-4.05-1.22-8.28.81-11.22 3.54-5 6.41-7.24 15.47-4.56 23.29 1.04 3.15 4.23 6.19 7.76 5.18 5.23-3.3 8.94-8.56 11.29-14.2 1.14.83 2.28 1.67 3.42 2.5 7.67-10.65 11.08-25.11 6.78-37.74-1.65 2.3-1.37 5.22-1.57 7.89-.12 4.53-.57 9.15-2.55 13.28-1.07-8.35-.97-17.51-6.42-24.49-2.69-.96-6.01-3.28-8.66-1M40.37 53.09c1.49.56 2.98 1.11 4.45 1.73-.02 5.18.49 10.34 1.35 15.44 1.98-2.85 3.81-5.81 5.7-8.73-3.62-6.11-6.45-12.64-9.07-19.22-1.91 3.26-1.94 7.13-2.43 10.78z"/>
</svg>
