<svg width="128pt" height="128pt" viewBox="0 0 128 128" xmlns="http://www.w3.org/2000/svg">
    <g fill="#fff">
        <path d="M58.14 15.92c2.88-3.88 9.99-3.66 12.01 1.03 1.52 3.66 1.97 7.67 3.34 11.39-3.84 3.18-8.94 2.41-13.54 2.23-2.15.02-3.84-1.48-5.61-2.5.39-.17 1.16-.52 1.55-.7 1.36-3.68.43-7.91 2.25-11.45m1.55 2.63c-1.99 3.57-1.45 7.79-1.1 11.68 3.53.27 7.06.2 10.6.06.99-4.05 1.23-8.71-1.34-12.26-1.77-2.96-6.45-2.03-8.16.52zM14.31 40.8c.88-10.54 10.15-18.41 19.6-21.63 4.61 2 8.46 5.12 12.1 8.52-2.3 2.58-4.69 5.08-6.98 7.67-1.86-1.9-3.42-4.08-5.4-5.86-3.47-1.64-6.21 2.14-9.18 3.37 1.64-3.9 4.98-6.51 8.64-8.4 2.64 2.1 4.96 4.66 8.02 6.18.36-.45 1.07-1.36 1.43-1.81-2.27-3.35-5.41-5.98-8.61-8.39-6.93 3.02-13.51 8.03-16.71 15.03-1.55 6.81-1.87 15.11 3.01 20.7-.05-1.6.48-2.81 1.6-3.64l.66.07c-.33 3.81.63 7.72-.72 11.41-4.81-6.69-8.61-14.76-7.46-23.22zM88.14 22.14c1.91-1.21 4.02-2.04 5.99-3.15 8.68 3.22 17.11 9.64 19.31 19.06 2.22 7.36-.32 15.09-3.88 21.57-.77 1.79-2.13 3.2-3.54 4.51-.91-4.33.08-8.81-1.03-13.11-.99-4.95-3.3-9.67-6.97-13.18-2.23 1.46-4.98 3.13-4.55 6.23.17-1.92-.24-3.77-1.17-5.45 3 .46 4.25-4.61 7.23-3.06 6.54 4.62 6.72 13.47 8.46 20.55 3.13-3.21 3.09-7.95 3.71-12.09 1-10.91-8.43-19.6-17.66-23.58-3.39 2.8-6.81 5.69-9.26 9.39-1.14-.8-2.28-1.58-3.47-2.29 2.92-.87 4.52-3.64 6.83-5.4z"/>
        <path d="M61.19 26.55c0-2.93-.09-7.76 4.16-7.36 1.13 2.33 1.64 4.89 1.49 7.47-1.88 0-3.77-.05-5.65-.11zM86.37 31.47c2.88-2.37 5.61-4.92 8.6-7.16 3.47 2.35 7.32 4.73 9.03 8.76-1.85-.9-3.57-2.06-5.49-2.82-2.61 1.97-5.78 3.51-7.33 6.55-1.49-1.88-3.07-3.68-4.81-5.33zM21.12 51.72c.71-7.52 4.07-15.78 11.73-18.53 1.38 1.58 2.91 3.05 4.64 4.26-1.36 2.7-2.64 5.49-3.03 8.52.23-3.43-.08-7.19-2.51-9.86-3.66 2.76-6.59 6.52-7.8 10.99-.67 1.44-.57 3.48-2.05 4.41l-.98.21zM87.31 84.05c1.01-1.61 2.03-3.21 3.11-4.77 2.84 6.35 3.72 14.16.32 20.46-3.55 4.64-7.54 9.62-13.48 11.14.24-5.36 3.5-10.73 1.06-16.01.63-.52 1.26-1.03 1.9-1.54 1.04 5.24-.43 10.42-1.28 15.56 6.09-1.84 9.86-8 11.28-13.88.14-3.7.08-8.35-2.91-10.96zM39.37 82.36c.76 1.33 1.56 2.63 2.38 3.93-1.76 4.93-3.92 10.75-1.13 15.72 2.67 4.91 6.34 10.18 12.27 11.19-.94-5.32-2.86-10.69-1.64-16.13.82.51 1.65 1.03 2.47 1.55-3.41 5.65.45 11.73 1.82 17.36-4.62-.8-8.44-3.7-11.55-7.07-4.12-3.89-7.8-8.97-7.72-14.89-.31-4.15 1.3-8.03 3.1-11.66z"/>
        <path d="M81.59 91.73c2.05-2.08 3.78-4.45 5.15-7.03.47 5.36 1.6 11.83-3.18 15.71-.32-2.96.31-6.34-1.97-8.68zM43.31 87.86c2.11 2.42 4.11 4.93 6.08 7.46-2.26 2.53-2.12 5.74-1.69 8.88-5.71-3.08-4.33-10.91-4.39-16.34z"/>
    </g>
</svg>
