<svg width="128pt" height="128pt" viewBox="0 0 128 128" xmlns="http://www.w3.org/2000/svg">
    <g fill="#fff">
        <path d="M17.68 15.29c1.94 1.05 3.78 2.26 5.57 3.55 1.5.86 3.07 1.6 4.6 2.4.91.54 1.83 1.05 2.77 1.55l-.4.56c2.25.24 4.25 1.36 5.83 2.95 2.85 1.51 5.19 3.76 7.75 5.68 1.16 1.06 2.39 2.04 3.68 2.94l-.29.35c1.59.15 2.99.91 4.4 1.56-3.62 3.39-7.32 6.69-11.51 9.36-.93-1.49-1.86-3-3.05-4.31-.6-1.32-1.26-2.62-1.92-3.9-2.16-2.53-3.67-5.68-6.53-7.54.41-.15 1.22-.45 1.62-.6-2.46.14-3.23-2.33-4.38-4-3.72-2.56-5.94-6.72-8.14-10.55zM72.15 15.26c3.59 1.36 9.17 3.84 6.87 8.68-2.38 1.9-5.02 3.52-7.21 5.69-1.86-.93-1.28-2.71-.93-4.32-3.12.63-6.25 1.74-9.44.75 1.35-1.62 2.29-4.03 4.62-4.4 2.94-.65 6.39 1 8.74-1.58-.53-1.79-1.62-3.3-2.65-4.82zM88.16 19.69c2.02 1.95 4.83 3.94 4.5 7.12-.38 3.69-4.65 4.26-7.29 5.78-.78-.35-2.35-1.06-3.14-1.41.31-.6.91-1.78 1.22-2.38-3.02 1.22-6.43 2.79-9.38.45 3.57-4.93 10.13-3.01 15.12-5.04-.33-1.51-.69-3.02-1.03-4.52zM100.28 27.57c2.94 2.1 7.02 5.6 4.85 9.59-1.36 3.94-5.67 5.01-9.11 6.39-1.09-1.12-2.16-2.24-3.22-3.37 1.26-.97 2.71-1.62 4.16-2.25-3.58-.68-7.69-.59-10.18-3.69 4.07-3.69 8.74 1.64 13.13.06 2.32-1.75.97-4.49.37-6.73zM96.35 45.22c.56-1.36 1.76-2.85 3.43-2.36 2.46.88 4.47 3.06 7.16 3.19 1.33-.82 2.25-2.12 3.37-3.19.47 2.97.08 6.72-2.62 8.54-2.57.9-5.36.5-8.01.25l-1.01-2.86c.79-.13 2.36-.38 3.15-.5-1.33-1.8-3.34-2.62-5.47-3.07zM52.31 49.64c-2.69-2.58 1.15-5.73 3.93-5.36.34 1.66.59 3.34.67 5.03-1.35.37-3.64 2.32-4.6.33zM100.25 52.94c3.13 2.17 5.83 5.77 10.05 5.39-.86 1.4-1.77 2.78-2.69 4.14-2.89.54-8.11.84-7.81-3.38 1.41.51 2.83 1.02 4.25 1.51-1.19-1.7-2.47-3.34-3.78-4.96 0-.68-.01-2.02-.02-2.7zM99.6 66.32c.11-.97.21-1.95.32-2.92 5.51.35 4.01 8.18 9.22 8.77.55-.52 1.64-1.56 2.18-2.08-1.37 4.91-9.07 7.7-12.26 2.96-.11-.77-.34-2.32-.45-3.1 1.66.76 3.28 1.59 4.96 2.31-.99-2.19-2.32-4.2-3.97-5.94zM37.14 76c2.05-2.61 5.47-3.35 7.79-5.64.43.94.89 1.87 1.35 2.79-.61 1.18-1.1 2.45-1.84 3.57-.3-.64-.9-1.93-1.2-2.57-2.2 1.94-4.36 3.92-6.63 5.77-2.62-.49-.45-2.83.53-3.92z"/>
    </g>
</svg>
