<svg width="128pt" height="128pt" viewBox="0 0 128 128" xmlns="http://www.w3.org/2000/svg">
    <g fill="#b82423">
        <path d="M46.9 20.81c4.98-1.28 10.49-4.23 15.31-.76-3 1.61-6.97 2.27-8.2 5.92-.53-.22-1.61-.65-2.14-.86-.29 1.06-.58 2.13-.86 3.2-.48.08-1.45.23-1.93.31-1.44 1.59-2.96 3.11-4.32 4.78-.6-.03-1.8-.08-2.4-.1-1.09-.87-2.2-1.72-3.29-2.58-.97-.81-1.9-1.68-2.82-2.55 3.29-2.74 6.28-6.38 10.65-7.36z"/>
        <path d="M33.04 30.94c1.3-2.81 4.01-.92 6.03-.22 1.89 3.66 6.19 4.5 9.86 5.27 3.55-3.01 7.82-4.99 12.34-6.04-.73 1.07-1.24 2.5-2.56 3.01-.44.28-1.33.86-1.77 1.15-2.23 2.3-4.8 4.26-7.5 5.96-2.93 1.74-5.8 3.58-8.48 5.68-1.79-.35-3.63-.58-5.36-1.2C33.51 41 32.72 36.89 31.49 33c.38-.51 1.16-1.54 1.55-2.06zM67.01 50.12c.38-1.65.87-3.27 1.35-4.9.28 2.23.57 4.46.87 6.69 2.02-.36 4.02-.77 6.02-1.21l-.12 3.16c1.81.38 3.66.78 5.51.5.64.67 1.27 1.34 1.89 2.01.47.63 1.4 1.89 1.86 2.52-.37 1.68-.73 3.36-1.11 5.04-3.73 1.1-7.11 3.07-10.7 4.52-5.03 1.43-10.43 1.58-15.57.65-3.6-.59-6.52-2.98-9.95-4.07-2.76-.87-5.57-1.6-8.24-2.71 1.84-2.1 3.95-3.95 5.78-6.06l.4-.47c.64-.27 1.27-.54 1.91-.81 1.74-.58 3.55-.93 5.35-1.31.29-.62.59-1.24.88-1.86 5.16.45 10.34.52 15.52.41-.38-.32-1.12-.98-1.49-1.3l-.16-.8z"/>
    </g>
    <path fill="#b52421" d="M65.75 29.32c4.3-4.44 12.1-4.93 17.39-2.13.75.71 1.65 1.03 2.68.96 2.56.07 4.77 1.6 6.7 3.14 1.22.4 2.59.67 3.37 1.81l1.6 1.8c-.77 4.01-1.7 8-2.86 11.92-2.46.48-5.07 1.31-7.47.09-3.71-2.22-7.83-3.96-11.12-6.79-.44-.31-1.3-.92-1.73-1.22-2.26-.92-4.38-2.37-5.62-4.54 3.46.77 6.84 1.83 10.22 2.89.24.54.73 1.61.97 2.14 1.51.19 3.03.34 4.55.46 1.33-1.8 2.89-3.41 4.54-4.93-.97.56-1.93 1.12-2.88 1.69-1.99-2.11-4.82-2.71-7.54-3.25-3.03-3.64-8.52-3.25-12.8-4.04z"/>
    <path fill="#4f0f0f" opacity=".72" d="M83.14 27.19c1.51-1.07 2.41-.75 2.68.96-1.03.07-1.93-.25-2.68-.96z"/>
    <path fill="#54100f" opacity=".7" d="M49.08 28.62c.48-.08 1.45-.23 1.93-.31l-.34.78c-.4-.12-1.19-.35-1.59-.47z"/>
    <path fill="#280707" opacity=".51" d="M30.9 31.96c.53-.25 1.6-.76 2.14-1.02-.39.52-1.17 1.55-1.55 2.06 1.23 3.89 2.02 8 4.11 11.55 1.73.62 3.57.85 5.36 1.2 2.68-2.1 5.55-3.94 8.48-5.68-2.99 3.63-7.25 5.75-11.26 8-3.35-1.2-6.78-2.17-10.19-3.21.22.62.66 1.86.88 2.47-2.26-.8-.87-2.65-.38-4.14-.39-1.88-1.05-3.78-.82-5.73.95-.85 2.03-1.53 3.07-2.27.05-1.07.11-2.15.16-3.23m-2.59 7.05c.21 3.52 3.11 5.91 6.25 6.91-1.35-3.22-2.68-6.45-3.87-9.73-.81.91-3.1 1.21-2.38 2.82z"/>
    <path fill="#360a09" opacity=".64" d="M56.94 34.11c.44-.29 1.33-.87 1.77-1.15l-.01.91-.9.6-.86-.36z"/>
    <path fill="#240706" opacity=".49" d="M95.89 33.1c.56.2 1.66.6 2.21.79.1 1.19.21 2.38.31 3.57.72.12 2.17.37 2.89.49.42 1.84.68 3.74-.36 5.44.06-1.64.1-3.27.13-4.9l-2.51.16c-1.29 2.83-2.01 5.87-2.84 8.85 1.33-.81 2.66-1.62 3.93-2.53-.65 2.1-1 4.32-2.08 6.26-.01-.55-.04-1.67-.06-2.23-5.21-1.39-9.77 1.87-14.49 3.43 1.33-1.77 3.53-2.26 5.48-3.04-.34-.62-1-1.86-1.34-2.48 2.4 1.22 5.01.39 7.47-.09 1.16-3.92 2.09-7.91 2.86-11.92l-1.6-1.8z"/>
    <path fill="#9f1f20" d="M28.31 39.01c-.72-1.61 1.57-1.91 2.38-2.82 1.19 3.28 2.52 6.51 3.87 9.73-3.14-1-6.04-3.39-6.25-6.91z"/>
    <path fill="#420d0f" opacity=".66" d="M74.31 38.9c.43.3 1.29.91 1.73 1.22l-.87.33-.88-.63.02-.92z"/>
    <g fill="#9c2021">
        <path d="M95.72 47.5c.83-2.98 1.55-6.02 2.84-8.85l2.51-.16c-.03 1.63-.07 3.26-.13 4.9-.32.39-.97 1.18-1.29 1.58-1.27.91-2.6 1.72-3.93 2.53zM21.35 56.66c.49 1.2.97 2.41 1.53 3.58.75 1.1 1.74 2 2.68 2.92.74.69 1.47 1.38 2.21 2.07 2.59.27 5.16.61 7.73.97-.05.92-.16 2.78-.21 3.7-3.13-.26-6.31-.72-9.06-2.34-.29.26-.89.79-1.18 1.06-1.92-1.91-3.76-3.9-5.44-6.02.87-.39 1.73-.77 2.6-1.16-.69.02-2.06.05-2.75.06.63-1.61 1.26-3.22 1.89-4.84zM13.99 71.85c2.79-.18 5.55.46 8.33.65l.01 1.15c.29-.34.87-1.04 1.16-1.38 2.56.4 5.12.82 7.68 1.26-.21.63-.63 1.89-.84 2.53-5.95.6-11.73-1.46-17.62-1.94.32-.57.96-1.71 1.28-2.27zM32.12 73.54c.85-1.54 3.72-.36 2.38 1.26-.83 1.55-3.8.36-2.38-1.26zM92.35 74.72c-1.57-2.94 4.55-2.21 2.57.28l-2.57-.28zM85.41 80.46c.96-1.04 1.88-2.51 3.55-2.2 3.64.38 7.05 1.92 10.63 2.64-.55 1.25-1.11 2.51-1.66 3.77-1.42-.5-2.83-1.01-4.24-1.54-.49-.18-1.47-.55-1.96-.73-2.09-.7-4.21-1.28-6.32-1.94zM39.21 84.78c2.27-1.88 4.96-3.14 7.71-4.13 1.03.53 2.05 1.06 3.08 1.58-3.24 1.27-6.67 2.46-9.09 5.08-.25.23-.75.71-1 .95-1.31 1.04-2.95 3.53-4.62 1.67-.1-1.81 1.93-2.81 2.82-4.18.27-.24.83-.73 1.1-.97zM23.9 83.72c.25-.4.75-1.19 1.01-1.59 2.06-.1 4.28 1.3 3.48 3.62-.39.2-1.18.6-1.57.8-.98.45-1.97.9-2.96 1.34-.36 2.58-.74 5.15-1.27 7.69-1.09-3.97-1.27-8.4 1.31-11.86z"/>
    </g>
    <path fill="#791814" opacity=".87" d="M57.52 44.1c-.78-1.55 1.11-1.57 1.97-1.97-.41 3.29-.09 6.59.77 9.78 1.99-.35 3.97-.74 5.96-1.08l.95.09c.37.32 1.11.98 1.49 1.3-5.18.11-10.36.04-15.52-.41-.29.62-.59 1.24-.88 1.86l-.4-2.85c2.01-.06 3.95.6 5.9.98.09-2.57.02-5.14-.24-7.7z"/>
    <path fill="#721716" opacity=".8" d="M67.97 42.96c1.59-.61 2.13-.06 1.59 1.62-1.59.61-2.12.07-1.59-1.62z"/>
    <path fill="#b52321" d="M27.99 44.86c3.41 1.04 6.84 2.01 10.19 3.21.42.3 1.27.91 1.7 1.21.45.92 1.15 1.55 2.1 1.9 1.67 1.13 4.42 1.61 4.93 3.8-.64.27-1.27.54-1.91.81l-.4.47c-1.22.8-2.42 1.63-3.61 2.49-1.66-1.24-3.55-2.25-4.89-3.86-.34-.95-.96-1.67-1.84-2.14-2.01-1.57-3.83-3.41-5.39-5.42-.22-.61-.66-1.85-.88-2.47z"/>
    <path fill="#0f0303" opacity=".34" d="M39.88 49.28c1.73-.52 2.43.11 2.1 1.9-.95-.35-1.65-.98-2.1-1.9z"/>
    <path fill="#ad2421" d="M83.02 52.43c4.72-1.56 9.28-4.82 14.49-3.43.02.56.05 1.68.06 2.23-4.02 2.13-7.73 4.77-11.37 7.49-1.24-.76-2.46-1.54-3.67-2.35-.62-.67-1.25-1.34-1.89-2.01.69-.78 1.48-1.43 2.38-1.93z"/>
    <path fill="#0f0203" opacity=".33" d="M34.26 52.75c.88.47 1.5 1.19 1.84 2.14-1.8.31-2.42-.41-1.84-2.14z"/>
    <path fill="#1b0505" opacity=".43" d="M18.74 62.98c.3-2.73 1.18-5.34 2.52-7.73 1.37 1.32 1.4 3.24 1.62 4.99-.56-1.17-1.04-2.38-1.53-3.58-.63 1.62-1.26 3.23-1.89 4.84.69-.01 2.06-.04 2.75-.06-.87.39-1.73.77-2.6 1.16l-.87.38z"/>
    <path fill="#1a0505" opacity=".42" d="M103.98 60.87c.54-1.73-.09-4.24 1.76-5.25 1.32 2.12 3.52 4.76 2 7.33-1.39 2.67-3.43 5.6-6.69 5.94-3.26.67-6.46 1.57-9.47 3.01-.38-1.37-.77-2.74-1.14-4.11-.4-1.55-.89-3.09-1.5-4.57.94.78 1.86 1.57 2.8 2.37 2.86-.5 5.74-.94 8.63-1.27-.29.23-.86.69-1.14.92-2.43.42-4.88.66-7.32.93.02.92.07 2.77.09 3.7 3.03-.37 6.09-.93 8.79-2.43l1.32.76c1.67-1.74 3.33-3.5 5.03-5.23-.3-2.25-.78-4.47-1.39-6.66-.4 1.33-.83 2.65-1.27 3.97l-.5.59z"/>
    <g fill="#942021">
        <path d="M105.75 56.31c.61 2.19 1.09 4.41 1.39 6.66-1.7 1.73-3.36 3.49-5.03 5.23l-1.32-.76c-2.7 1.5-5.76 2.06-8.79 2.43-.02-.93-.07-2.78-.09-3.7 2.44-.27 4.89-.51 7.32-.93.28-.23.85-.69 1.14-.92 1.27-1.08 2.49-2.22 3.61-3.45l.5-.59c.44-1.32.87-2.64 1.27-3.97zM114.2 71.19c2.69-.81 5.28-1.89 7.91-2.86-1.01 2.03-2.83 3.43-4.88 4.3-.55.25-1.65.77-2.2 1.02-.21-.61-.62-1.85-.83-2.46zM98.06 73.05c5.01-.69 10.09-.71 15.08-1.58.32.68.96 2.03 1.28 2.7-5.88.64-11.67 2.46-17.63 1.95-.25-.68-.77-2.05-1.02-2.73.57-.08 1.72-.26 2.29-.34zM77.08 82.56c3.13-3.18 7.8-.85 10.47 1.76 1.93 1.86 3.75 3.83 5.57 5.8.36 3.16-.01 6.34-.52 9.46-.83-1.92-1.63-3.87-2.41-5.82l-.24-.6c.22-.54.64-1.61.86-2.14-1.29-1.03-2.59-2.05-3.86-3.09-1.19-.88-2.13-2.02-2.88-3.28-.17.07-.51.2-.68.26-2.1-.78-4.17-1.65-6.31-2.35zM34.16 90.99c1.2-.17 2.35.02 3.45.56-.7 2.83-1.32 5.68-1.99 8.52-.39-2.96-2.11-6.28-1.46-9.08z"/>
    </g>
    <path fill="#9f2021" d="M84.39 58.89l.21-.98c1.46 1.76 2.99 3.46 4.34 5.31.61 1.48 1.1 3.02 1.5 4.57.33 2.83.17 5.69.11 8.53-5.64 1.65-11.52 2.77-16.8 5.43-.95.89-1.8 1.88-2.69 2.83-4.98-.48-10.01-.33-15-.05-.54-.73-1.11-1.43-1.7-2.11-5.09-3.51-11.47-4.05-17.19-6.03-1.23-3.94-.73-8.43.52-12.34.36-.59.74-1.16 1.13-1.73 2.67 1.11 5.48 1.84 8.24 2.71 3.43 1.09 6.35 3.48 9.95 4.07 5.14.93 10.54.78 15.57-.65 3.59-1.45 6.97-3.42 10.7-4.52.38-1.68.74-3.36 1.11-5.04z"/>
    <path opacity=".2" d="M25.56 63.16c3.92 1.24 8.15 2.77 12.13.89-1.25 3.91-1.75 8.4-.52 12.34 5.72 1.98 12.1 2.52 17.19 6.03-.99.09-1.97.17-2.95.25-3.52 1.52-6.8 3.58-10.5 4.64 2.42-2.62 5.85-3.81 9.09-5.08-1.03-.52-2.05-1.05-3.08-1.58-2.75.99-5.44 2.25-7.71 4.13-.18-.49-.55-1.46-.73-1.94-3.51.38-6.73 1.93-10.09 2.91.8-2.32-1.42-3.72-3.48-3.62 1.15-2.05 3.25-2.57 5.45-1.97-.64.18-1.92.55-2.56.73.36 1.25.72 2.5 1.07 3.75 4.47-1.56 8.98-2.99 13.41-4.68-3.46-2.87-7.68-.95-11.42.06 1.52-.97 3.03-1.97 4.51-2.99-5.47-.18-11 .18-16.41-.88-3.33-.35-6.53-1.98-9.93-1.44l-.75-2.67c1.78.74 3.69 1.41 5.48.09-1.96-1.08-3.95-2.12-6.04-2.91 8.67 1.61 17.54 3.13 26.38 2.37-2.91-1.3-5.97-2.18-9.05-2.97.29-.27.89-.8 1.18-1.06 2.75 1.62 5.93 2.08 9.06 2.34.05-.92.16-2.78.21-3.7-2.57-.36-5.14-.7-7.73-.97-.74-.69-1.47-1.38-2.21-2.07m-11.57 8.69c-.32.56-.96 1.7-1.28 2.27 5.89.48 11.67 2.54 17.62 1.94.21-.64.63-1.9.84-2.53-2.56-.44-5.12-.86-7.68-1.26-.29.34-.87 1.04-1.16 1.38l-.01-1.15c-2.78-.19-5.54-.83-8.33-.65m18.13 1.69c-1.42 1.62 1.55 2.81 2.38 1.26 1.34-1.62-1.53-2.8-2.38-1.26z"/>
    <path opacity=".2" d="M33.32 90.11c.55-2.3 2.91-3.34 4.79-4.36-.89 1.37-2.92 2.37-2.82 4.18 1.67 1.86 3.31-.63 4.62-1.67-1.7 2.98-2.22 6.4-2.49 9.77.86.76 1.72 1.54 2.57 2.31-1.72.04-3.45.17-5.16-.06-1.42-3.15-2.06-6.74-1.51-10.17m.84.88c-.65 2.8 1.07 6.12 1.46 9.08.67-2.84 1.29-5.69 1.99-8.52-1.1-.54-2.25-.73-3.45-.56z"/>
    <path fill="#7e1a1b" opacity=".92" d="M5.05 68.37c.66.21 2 .63 2.67.85 2.09.79 4.08 1.83 6.04 2.91-1.79 1.32-3.7.65-5.48-.09-1.45-.85-2.38-2.28-3.23-3.67z"/>
    <path opacity=".08" d="M95.66 72.14c6.13-.69 12.39-2.16 18.54-.95.21.61.62 1.85.83 2.46.55-.25 1.65-.77 2.2-1.02-1.63 1.25-3.15 2.96-5.28 3.29-6.63.96-13.32 1.38-20.01 1.56 3.66 1.14 7.69 1.55 10.74 4.1l-.83.32c-.67.26-2.03.8-2.71 1.07-.29.5-.87 1.48-1.16 1.98l-.44.77c-1.35-.77-2.67-1.59-3.85-2.59 1.41.53 2.82 1.04 4.24 1.54.55-1.26 1.11-2.52 1.66-3.77-3.58-.72-6.99-2.26-10.63-2.64-1.67-.31-2.59 1.16-3.55 2.2 2.11.66 4.23 1.24 6.32 1.94-1.43.56-2.83 1.19-4.18 1.92-2.67-2.61-7.34-4.94-10.47-1.76-1.07-.4-2.29-.25-3.33-.81 5.28-2.66 11.16-3.78 16.8-5.43 2.03-.58 4.17-.28 6.24-.2 5.96.51 11.75-1.31 17.63-1.95-.32-.67-.96-2.02-1.28-2.7-4.99.87-10.07.89-15.08 1.58l-2.39.32-.01-1.23z"/>
    <path fill="#951e20" d="M30.86 80.02c3.74-1.01 7.96-2.93 11.42-.06-4.43 1.69-8.94 3.12-13.41 4.68-.35-1.25-.71-2.5-1.07-3.75.64-.18 1.92-.55 2.56-.73l.5-.14z"/>
    <path fill="#8e1b1e" opacity=".97" d="M99.14 82.97c.68-.27 2.04-.81 2.71-1.07.3.46.9 1.39 1.2 1.85.82 1.3 1.59 2.61 2.36 3.94-1.94-.25-3.89-.57-5.67-1.39-.44-.34-1.32-1.01-1.76-1.35.29-.5.87-1.48 1.16-1.98z"/>
    <path fill="#1a0505" opacity=".41" d="M21.62 95.66c-.54-4.06-2.53-9.71 2.28-11.94-2.58 3.46-2.4 7.89-1.31 11.86.53-2.54.91-5.11 1.27-7.69.99-.44 1.98-.89 2.96-1.34-.71.81-1.42 1.63-2.13 2.45-.31 2.22-.67 4.44-1.08 6.64-.5.01-1.49.02-1.99.02z"/>
    <path fill="#240707" opacity=".48" d="M103.05 83.75c3.9 1.94 4.36 7.45 1.99 10.73 0-2.05.55-4.31-.31-6.25-1.83 1.4-.39 4.66-.41 6.72-1.64-1.64-1.42-4.13-1.83-6.24-.92-.8-1.84-1.6-2.75-2.41 1.78.82 3.73 1.14 5.67 1.39-.77-1.33-1.54-2.64-2.36-3.94z"/>
    <path fill="#2f0a08" opacity=".58" d="M86.95 87.93c1.27 1.04 2.57 2.06 3.86 3.09-.22.53-.64 1.6-.86 2.14-.92-1.79-1.93-3.53-3-5.23z"/>
    <path fill="#8e1c1f" opacity=".98" d="M104.32 94.95c.02-2.06-1.42-5.32.41-6.72.86 1.94.31 4.2.31 6.25l-.35.53-.37-.06z"/>
    <g>
        <path fill="#0f0303" opacity=".31" d="M93.12 90.12c1.11 1.21 1.66 2.76 2.2 4.28-.81 1.84-1.49 3.74-2.44 5.52-3.12.19-2.34-4.13-2.69-6.16.78 1.95 1.58 3.9 2.41 5.82.51-3.12.88-6.3.52-9.46z"/>
    </g>
</svg>
