<svg width="128pt" height="128pt" viewBox="0 0 128 128" xmlns="http://www.w3.org/2000/svg">
    <path fill="#fff" d="M52.42 50.73c3.68 1.76 7.74 1.49 11.67 1.17 3.63.67 7.32.14 10.8-1-.04.75-.13 2.26-.17 3.01 6.49 1.29 11.97 5.78 15.42 11.33-.12 3.7 1.14 7.82-.4 11.27-4.62.97-9.15 2.35-13.61 3.89-2.2.7-3.91 2.33-5.18 4.22-2.31-.46-4.71-1.44-7.03-.46-2.6-.75-5.24-.15-7.82.4-.73-.95-1.44-2.35-2.86-2.18-1.24.23-1.08-1.43-1.57-2.17-5.05-.55-9.6-3.21-14.69-3.64-.38-3.8-.53-7.71.31-11.46 2.28-3.99 5.58-7.33 9.7-9.44-1.54-1.75-.51-1.25.36-.47 1.66-.67 3.42-1.03 5.15-1.43l-.08-3.04z"/>
</svg>
