<svg width="128pt" height="128pt" viewBox="0 0 128 128" xmlns="http://www.w3.org/2000/svg">
    <path fill="#fff" d="M31.73 15.29c6.05-.83 12.18-.4 18.26-.57 14.7.18 29.44-.39 44.13.43-.67.98-1.14 2.18-2.15 2.87-4.76 3.47-9.99 6.81-12.89 12.12-2.93 3.47-3.78 8.02-5.67 12.04-2.2 4.28-1.96 9.21-3.3 13.74 7.21.31 14.08-2.33 20.58-5.14 7.72-3.32 14.09-9.34 18.72-16.27.46-.32 1.38-.94 1.84-1.26.85 19.95.25 39.92.45 59.88-.23.91-.58 1.78-1.05 2.61-3.76-4.35-6.69-9.49-11.43-12.92-8.39-6.02-18.45-9.75-28.76-10.49 1.27 13.57 7.42 27.35 18.59 35.6 1.73 1.18 3.14 2.74 4.12 4.59-20.11.48-40.22.44-60.33.04 2.05-4.05 6.47-6.02 9.47-9.28 7.72-8.44 12.11-19.6 13.35-30.9-14.32 1.13-29.33 7.33-37.4 19.75-.88 1.19-1.8 2.35-2.73 3.5-.31-.43-.95-1.31-1.26-1.75.31-20.25-.5-40.53.55-60.77 1.47.92 2.53 2.27 3.42 3.74 5.45 7.51 13.31 13.09 22.12 15.99 4.96 1.92 10.17 3.3 15.53 3.13-1.36-4.43-1.13-9.27-3.19-13.49-2-4.61-3.27-9.6-6.56-13.52-3.32-6.04-10.47-8.3-14.41-13.67z"/>
</svg>
