<svg width="128pt" height="128pt" viewBox="0 0 128 128" xmlns="http://www.w3.org/2000/svg">
    <path fill="#fff" d="M31.71 15.28c6.03-.82 12.15-.39 18.22-.56 14.73.18 29.49-.39 44.21.43-1.86 3.76-6.14 5.17-9 8.01-7.19 5.63-10.1 14.57-13.13 22.82-.62 3.32-1.05 6.68-1.89 9.96 9.21.16 17.93-3.6 25.88-7.89 4.81-3.45 9.39-7.49 12.64-12.48.67-.97 1.5-1.77 2.51-2.42.97 17.93.42 35.89.5 53.83-.09 2.94.74 6.15-1 8.77-3.76-4.38-6.72-9.53-11.48-12.97-8.41-5.99-18.48-9.78-28.81-10.42 1.23 11.3 5.61 22.45 13.3 30.91 3.04 3.23 7.34 5.27 9.54 9.24-20.12.5-40.26.47-60.39.04 2.15-4.05 6.55-6.07 9.59-9.36 7.66-8.44 12.02-19.55 13.27-30.81-11.26.8-22.49 4.93-31.09 12.31-3.74 3.15-5.98 7.6-9.36 11.08-1.34-2.35-.88-5.07-.87-7.64.05-18.34-.43-36.69.47-55.01.54.47 1.62 1.43 2.16 1.9 3.35 5.17 7.95 9.5 13 12.99 7.95 4.33 16.69 8.07 25.91 7.97-1.33-4.41-1.14-9.21-3.15-13.42-1.95-4.13-2.84-8.81-5.8-12.4-2.72-4.86-7.32-8.16-11.78-11.3-1.43-.89-2.49-2.22-3.45-3.58z"/>
</svg>
