<svg width="128pt" height="128pt" viewBox="0 0 128 128" xmlns="http://www.w3.org/2000/svg">
    <g fill="#f8f8f8">
        <path opacity=".97" d="M46.26 33.12C51.64 29.55 58.28 29 64 26.22c5.98 2.97 13.09 3.4 18.52 7.5 1.62 1.24 2.17 3.39 1.22 5.25-3.71-2.15-7.78-4.6-12.16-4.49.01-.97.01-1.95 0-2.92-1.68-.11-3.37-.3-4.97-.87-3.43-.81-6.78.81-10.19.87-.01.98-.01 1.95 0 2.93-4.48-.17-8.51 2.54-12.43 4.44-.75-2.25.26-4.63 2.27-5.81m1.44 1.69c2.67-.63 5.38-1.31 7.71-2.82-2.89-.33-5.76.64-7.71 2.82m24.91-2.79c2.36 1.46 5.05 2.19 7.71 2.88-1.8-2.38-4.86-3.11-7.71-2.88zM50.15 69.16c3.4-2.93 7.42-5.08 11.09-7.68.92.61 1.84 1.23 2.76 1.85.91-.62 1.83-1.24 2.76-1.85 3.21 2.11 6.4 4.26 9.6 6.38 2.26 1.32 2.87 4.06 3.8 6.31 1.87 4.7 1.58 9.87.85 14.78-.36 1.53-.68 3.34-2.24 4.14.01-1.73.15-3.46.43-5.17-1.85-2.32-4.18-4.78-7.39-4.75-5.95.07-11.9.08-17.85-.06l2.25 1.57c-.9-.24-1.65-.79-2.41-1.3-1.92 1.22-3.62 2.75-5.02 4.55.25 1.62.45 3.26.58 4.9-1.98-.15-1.85-2.46-2.36-3.84-1.2-6.72-.56-13.97 3.15-19.83m1.87-.03c-2.42 2.64-.95 6.44.06 9.38 3.31.1 6.88 1.46 9.51-1.3-.3-1.44-.09-3.44-1.84-3.98-2.14-1.43-3.66 1.96-5.81 1.29-1.53-1.51-1.08-4.8 1.13-5.49 2.4-.8 5.07-1.76 7.55-.72.98 3.83.18 7.96 1.04 11.83.18.18.54.52.73.69.33-4.03.72-8.08.42-12.12 2.79-1.62 6.05-.51 8.81.63 1.5 1.04 1.48 3 1.02 4.58-2 2.36-4.12-2.35-6.37-.7-1.75.53-1.56 2.52-1.88 3.96 2.62 2.8 6.21 1.43 9.53 1.33 1.01-2.93 2.49-6.75.06-9.38-3.04-3.35-7.93-2.57-11.97-2.52-4.05-.05-8.95-.83-11.99 2.52z"/>
    </g>
    <g fill="#e4e4e4">
        <path opacity=".89" d="M47.7 34.81c1.95-2.18 4.82-3.15 7.71-2.82-2.33 1.51-5.04 2.19-7.71 2.82zM72.61 32.02c2.85-.23 5.91.5 7.71 2.88-2.66-.69-5.35-1.42-7.71-2.88z"/>
    </g>
    <path fill="#fafafa" opacity=".98" d="M58.45 33.72c-.6-1.1-.06-2.39 1.39-2.16 2.77-.17 5.55-.17 8.32 0 1.45-.23 1.99 1.05 1.39 2.15-3.66-.76-7.44-.76-11.1.01z"/>
    <g fill="#fbfbfb">
        <path d="M31.41 34.35c2.78-1 6.8-2.71 9.09.14 1.58 1.4 2.1 3.9 3.83 4.99 6.98-3.41 14.68-6.05 22.56-5.21 6 .49 11.71 2.64 16.99 5.44 1.5-2.11 2.61-4.59 4.71-6.2 2.57-1.5 5.57.02 8.07.88 2.9 2.73 5.6 6.4 5.75 10.51-1.17 2.41-2.97 4.42-4.59 6.53l-1.34-.2c-.6-1.04-1.19-2.07-1.77-3.11-.62-.03-1.84-.11-2.46-.15-.11 3.54-.28 7.07-.51 10.61-2.32-.3-4.49.57-6.7 1.07-1.94-1.06-3.7-3.01-6.13-2.54-2.58.16-4.2 3.76-6.94 2.46-.38-.66-1.14-1.99-1.52-2.66 4.18-5.96 13.61-6.96 19.44-2.84-1.33-4.32-2.33-10.03-7.39-11.49-3.11-1.57-5.67 1.38-7.8 3.21-3.85 3.67-6.86 9.54-4.48 14.8 4.11 1.26 8.51 2.17 12.8 1.34 2.42-.83 4.34-2.94 7.06-2.92 4.38 2.44 8.15 5.95 10.61 10.34-1.33.02-2.65.04-3.98.05-.15.99-.3 1.98-.44 2.97-.78.66-1.57 1.33-2.34 1.99-2.59-3.49-5.23-7.62-9.79-8.58-2.89-.73-6.28-2.14-9.08-.42-3.47-1.92-7.51-3.49-9.59-7.09.25-4.54.72-9.42 3.84-13 2.44-2.3 5.32-4.13 8.45-5.31-8.52-4.3-19.05-4.28-27.58.01 4.72 1.84 9.63 5.02 11.15 10.14.93 2.62.87 5.43 1.21 8.15-2.12 3.45-5.95 5.41-9.58 6.88-3.33-1.25-6.85-.08-10.06.95-4.26 1.22-6.43 5.4-9.18 8.5-1.16-2.82-2.2-5.87-4.98-7.53 2.36-3.36 5.67-5.99 9.18-8.05 3.42-.03 5.63 3.39 9.08 3.21 3.66.2 7.32-.53 10.79-1.64 2.37-5.28-.66-11.16-4.53-14.83-2.2-2.09-5.19-4.94-8.37-2.9-4.74 1.64-5.42 7.12-6.78 11.23 5.35-3.99 12.83-2.88 17.98.82 1.7 1.28 1.17 3.27-.01 4.7-2.77 1.24-4.39-2.28-6.97-2.49-2.43-.48-4.21 1.45-6.13 2.54-2.09-.23-4.17-1.72-6.27-.88-1.52.75-2.9 1.76-4.3 2.7.01-1.59.03-3.18.05-4.77 1.13-.38 2.25-.75 3.39-1.12-.09-2.65.7-5.62-.79-8.01-2.13.21-2.72 2.36-3.65 3.92-.31-.03-.93-.08-1.24-.11-1.63-2.08-3.43-4.09-4.59-6.48.17-4.14 2.88-7.85 5.83-10.55m-.55 4.38c-2.6 2.63-1.05 6.36.22 9.23.33-.34 1-1.01 1.33-1.35 2.3.12 3.96-1.46 5.37-3.07-.19-.81-.57-2.42-.76-3.22.85.32 2.56.95 3.41 1.27-.75-1.55-.9-3.66-2.52-4.62-2.45-.78-5.61-.76-7.05 1.76m56.68 2.87c.86-.32 2.58-.96 3.43-1.28-.18.81-.56 2.42-.75 3.22 1.5 1.51 2.98 3.51 5.4 2.89.33.43.98 1.27 1.3 1.69.8-2.29 2.06-4.65 1.54-7.14-1.05-2.54-3.36-5.19-6.43-4.38-2.97-.32-3.7 2.86-4.49 5z"/>
        <path d="M76.39 65.19c4.69.53 10.28 1.16 13.38 5.19 2.01 2.32 3.65 4.96 4.6 7.9-.78 0-1.56.01-2.33.01 1.03 2.97 1.31 6.13.27 9.14-1.31-1.05-.59-2.85-.93-4.26-.32-5.54-4.23-10.58-9.3-12.68-2.39-1.14-3.96-3.4-5.69-5.3z"/>
    </g>
    <g fill="#f2f2f2">
        <path opacity=".95" d="M31.41 51.49c.93-1.56 1.52-3.71 3.65-3.92 1.49 2.39.7 5.36.79 8.01-1.14.37-2.26.74-3.39 1.12-.02 1.59-.04 3.18-.05 4.77-3.54 3.15-6.35 6.97-8.82 10.99-.17-5.77 2.51-11.03 5.35-15.87-1.16 1.13-2.25 2.33-3.47 3.41.18-3.63 3.02-5.77 4.7-8.62.31.03.93.08 1.24.11zM92.25 47.97c.62.04 1.84.12 2.46.15.58 1.04 1.17 2.07 1.77 3.11l1.34.2c1.78 2.78 4.49 4.98 4.7 8.58-1.2-1.08-2.29-2.28-3.43-3.42 2.8 4.86 5.49 10.1 5.32 15.87-3.27-5.26-7.08-10.52-12.7-13.46l.03-.42c.23-3.54.4-7.07.51-10.61z"/>
    </g>
    <path fill="#f3f3f3" opacity=".96" d="M40.3 68.26c3.41-1.99 7.41-2.8 11.31-3.09-2.81 5.21-9.46 5.85-12.41 10.86-2.31 3.02-2.87 6.95-2.64 10.65-.42.35-1.26 1.03-1.68 1.38-1.38-.27-2.58-.95-3.67-1.8 1.65-1.65 1.58-4.06 2.09-6.18.73-4.66 3.6-8.69 7-11.82z"/>
    <path fill="#e2e2e2" opacity=".89" d="M23.21 78.59c1-4.2 3.25-7.92 5.53-11.53 2.78 1.66 3.82 4.71 4.98 7.53l.13.31c-2.95 2.43-3.06 6.33-3.27 9.84-3.12-1.15-5.04-3.95-7.37-6.15z"/>
    <g fill="#e0e0e0">
        <path opacity=".88" d="M96.71 69.4c1.33-.01 2.65-.03 3.98-.05 1.76 2.86 3.2 5.9 4.14 9.12-2.4 2.18-4.16 5.48-7.62 6.06.34-3.75-.62-7.45-3.28-10.17.77-.66 1.56-1.33 2.34-1.99.14-.99.29-1.98.44-2.97zM37.47 90.63c2.31-4.64-.35-10.34 3.25-14.6.26 3.03.73 6.08 2.37 8.72-.15.42-.44 1.25-.59 1.67.3.37.89 1.11 1.18 1.48-.61 1.12-1.49 1.76-2.64 1.91-.28-.78-.47-1.58-.58-2.41-.41 1.51-1.56 2.64-2.99 3.23z"/>
    </g>
    <g fill="#fcfcfc">
        <path d="M40.72 76.03c1.5-1.8 3.23-3.48 5.54-4.15-1.38 4.21-3.08 8.37-3.17 12.87-1.64-2.64-2.11-5.69-2.37-8.72zM81.94 71.81c2.17.86 3.84 2.46 5.33 4.19-.29 3.02-.71 6.08-2.36 8.71-.06-4.5-1.95-8.6-2.97-12.9zM53.34 99.62c1.05-.72 1.99-1.56 2.83-2.53 1.67.61 2.1 2.93 3.94 3.14 3.79.77 9 1.2 10.92-2.95 1.47-.03 2.19 1.53 3.31 2.23-3.57 1.73-6.91 4.64-11.18 3.97-3.8.23-6.35-3-9.82-3.86z"/>
    </g>
    <path fill="#dfdfdf" opacity=".87" d="M84.91 84.71c1.65-2.63 2.07-5.69 2.36-8.71 2.44 3.29 2.37 7.46 2.15 11.34 1.59 2.18.85 3.5-2.22 3.96.26-1.45.47-2.9.65-4.36-.45 1.27-.76 2.58-1.09 3.89l-2.4-3.04c.28-.34.86-1.02 1.14-1.36-.14-.43-.44-1.29-.59-1.72z"/>
    <path fill="#dcdcdc" opacity=".86" d="M92.04 78.29c.77 0 1.55-.01 2.33-.01.48 2 .89 4.02 1.11 6.08.35.44 1.04 1.34 1.39 1.79-1.22 1.35-2.85 1.93-4.67 1.75l.11-.47c1.04-3.01.76-6.17-.27-9.14z"/>
</svg>
