<svg width="128pt" height="128pt" viewBox="0 0 128 128" xmlns="http://www.w3.org/2000/svg">
    <g fill="#f9f9f9">
        <path opacity=".98" d="M52.44 40.04c7.22-3.39 15.89-3.35 23.12.01-3.91 2.17-8.28 4.61-9.57 9.27-.39.01-1.18.02-1.57.03.26.64.52 1.28.79 1.92-.7 2.84-1.03 5.83-.07 8.65.52 1.16-.72 2.03-1.14 3-2.51-2.21.03-5.12-.55-7.82-.21-3.08-1.19-6.09-2.84-8.7-1.84-3.06-5.29-4.5-8.17-6.36zM62.02 97.37c1.46 1.01 3 1.03 4.62.06l-.94.59-.63 1.86-3.31-.12c.06-.6.2-1.79.26-2.39z"/>
    </g>
    <g fill="#fbfbfb">
        <path d="M41.77 45.85c1.72-1.13 3.44-2.27 5.2-3.33 4.86 1.82 9.3 6.08 9.96 11.4-3.06-.6-5.69-2.43-8.74-3.03-2.84-.3-5.66.24-8.43.81.58-1.98 1.22-3.94 2.01-5.85zM71.03 53.89c.73-5.31 5.1-9.56 9.98-11.37 3.99 1.54 6.76 4.93 7.22 9.22-2.88-.73-5.87-1.2-8.83-.79-2.87.74-5.42 2.41-8.37 2.94z"/>
    </g>
    <g fill="#fff">
        <path d="M51.78 85.79c.69-1.86 2.81-1.48 4.36-1.69-.51 2.59-1.5 5.04-2.37 7.53-1.14-1.74-2.49-3.62-1.99-5.84zM71.8 83.85c1.5.49 3.74.1 4.41 1.95.53 2.22-.84 4.12-2.03 5.84-.93-2.55-1.84-5.12-2.38-7.79z"/>
    </g>
    <g fill="#fefefe">
        <path d="M56.68 88.16c.71-1.49 1.47-2.96 2.36-4.36.65.26 1.96.77 2.62 1.03.44-.26 1.31-.78 1.75-1.03-.04.87-.12 2.61-.17 3.48-.55-.59-1.65-1.77-2.2-2.35-.68 1.18-1.86 1.9-2.75 2.89 1.2.06 2.4.05 3.61-.02.68.98 1.36 1.96 2.04 2.96 1.33-1.99 2.78-4.24 5.62-2.66-.94-1.01-1.82-2.07-2.58-3.21l-2.24 2.44c-.04-.88-.11-2.64-.15-3.52.44.25 1.33.75 1.77 1.01.65-.26 1.96-.78 2.62-1.03.86 1.41 1.6 2.91 2.31 4.4-.71 2.26-1.09 4.63-2.36 6.68l-1.23-1.42c.12 2.1 2.84 5.56-.3 6.39l-.37-1.6.96-1.82c-2.57-.59-5.34-1.04-7.84.02.27.79.81 2.38 1.09 3.17l-2.52-.56c.31-1.46.67-2.95 1.86-3.95-3.14-1.07-3.02-4.35-3.9-6.94zM53.48 98.73c-2.04-.64-2.6-3.15-2.8-5.04 1.67.87 3.19 1.98 4.72 3.08-.6.7-1.23 1.35-1.92 1.96zM72.67 96.51c1.53-.96 3.03-1.95 4.64-2.77-.05 1.91-.96 3.76-2.32 5.07-1.18-.28-1.69-1.4-2.32-2.3z"/>
    </g>
    <path fill="#e9e9e9" opacity=".91" d="M65.07 99.88l.63-1.86c.05.42.15 1.26.19 1.68l-.82.18z"/>
</svg>
