<svg width="128pt" height="128pt" viewBox="0 0 128 128" xmlns="http://www.w3.org/2000/svg">
    <g fill="#fcfcfc">
        <path d="M90.45 40.05c4.95-1.81 10.26-2.53 15.52-2.48 3.03.11 6.51.7 8.22 3.51-6.42-2.27-11.19 3.37-16.8 5.31-8.49 3.6-14.7 10.67-22.35 15.54.94-6.77 7.62-9.7 12.07-13.9 2.34-1.95 3.73-4.91 3.34-7.98zM97.32 67.12l3.93-.08c1.64 1.38 3.82.65 5.75.79 2 .14 3.93.7 5.87 1.17-2.88.52-5.81.72-8.65 1.43-2.22-1.27-4.48-2.47-6.9-3.31z"/>
    </g>
    <g fill="#fefefe">
        <path d="M63.64 58.42c-1.71-1.83.23-4.74 2.6-4.1.03.72.08 2.15.11 2.87l1.63.11c.14-.78.44-2.33.58-3.11.93.87 2.12 1.65 2.41 2.98-.61 3.28-5.59 4.11-7.33 1.25zM83.79 70.36c6.09 1 12.26-1.25 18.26.37-4.94 1.19-9.87 2.47-14.63 4.23-1.74-1.17-3.46-2.4-4.74-4.08l1.11-.52z"/>
    </g>
    <path fill="#fff" d="M85.53 67.59c3.45-3.52 8.97-4.97 13.79-5.02-1.87 1.63-3.71 3.89-6.4 3.97-2.06.46-4.5-.39-6.2 1.19 2.51-.36 5.05-.33 7.58-.32-.02.42-.05 1.25-.06 1.66-4.78.25-9.69-.33-14.32 1.15-1.17-.98-2.32-1.97-3.45-2.99 2.98.65 6.03.7 9.06.36z"/>
    <path fill="#bebebe" opacity=".75" d="M94.31 66.66c1.01.13 2.01.28 3.01.46 2.42.84 4.68 2.04 6.9 3.31-.71.28-1.44.38-2.17.3-6-1.62-12.17.63-18.26-.37 3.3-1.77 7.68 1.86 10.45-1.29.01-.41.04-1.24.06-1.66l.01-.75z"/>
</svg>
