<svg width="128pt" height="128pt" viewBox="0 0 128 128" xmlns="http://www.w3.org/2000/svg">
    <path fill="#9b2f30" d="M29.34 20.87c1.47-1.42 3.22-.63 4.89-.13 1.89 3.04 3.49 6.34 6.29 8.67 2.52 3.32 4.33 7.2 7.47 10.04l-.39.23c-1.43.28-2.9.51-4.19 1.23l-.35.36c-.57-2.5-2.68-4.17-4.05-6.23-2.26-2.64-3.86-5.84-6.53-8.12-.02 5.67-.62 11.55.64 17.09 2.05 1.79-2.91 3.89-2.32 1-1.87-7.9-1.71-16.07-1.46-24.14z"/>
    <path fill="#8f2c2d" opacity=".94" d="M86.12 29.14c3.83-2.45 4.32-8.3 8.93-9.49 1.5.52 2.66 1.8 2.48 3.48.01 6.68.1 13.42-1.35 19.97l.21 1.7c-.42.2-1.25.58-1.66.78-.12 0-.35 0-.46.01l-1.75-.64c2.69-5.52 1.59-12.06 1.72-18.03-.42.32-1.28.96-1.7 1.28-2.18 0-4.32.38-6.42.94z"/>
    <g fill="#bd3c39">
        <path d="M86.12 29.14c2.1-.56 4.24-.94 6.42-.94-2.77 3.94-5.81 7.68-8.64 11.57-.9 1.18-1.18 2.66-1.71 4.01-1.17 1.99-4.32 3-3.9 5.71-1.94.07-3.88.33-5.78.7.64-4.37 3.55-7.95 6.48-11.08 2.32-1.87 3.39-4.84 5.5-6.79 1.11-.36 1.64-1.1 1.59-2.21l.04-.97zM33.57 67.62c.98 1.31 1.13 2.95 1.27 4.53-1.42.86-2.92 1.59-4.45 2.24-1.69.33-3.42.43-5.14.38-.93-1.45-1.89-2.89-2.86-4.32l.63-.6c3.09-.27 6.16-.77 9.14-1.66.35-.15 1.06-.43 1.41-.57z"/>
    </g>
    <path fill="#702425" opacity=".81" d="M84.49 32.32c-.53-1.61 0-2.34 1.59-2.21.05 1.11-.48 1.85-1.59 2.21z"/>
    <path fill="#010000" opacity=".19" d="M47.99 39.45c1.72-1.26 4.05-.5 6.04-.67 2.07.21 4.83-.3 5.96 1.91-3.28-.76-6.67-.48-9.99-.36 2.03 3.26 5.13 6.27 4.73 10.46 1.59 2.03 2.55 4.51 4.37 6.35 1.16-3.15 2.22-6.37 3.96-9.28 2.19 2.78 3.05 6.31 4.15 9.6 2.31-2.71 4.5-5.84 4.85-9.48.43-3 3.56-4.76 3.85-7.77-3.01-.02-6.02-.08-9.02.22.12-1.57 2.04-1.19 3.1-1.51 2.99-.43 6.01-.06 9 .19-2.93 3.13-5.84 6.71-6.48 11.08 1.9-.37 3.84-.63 5.78-.7.6.32 1.18.66 1.75 1.04-2.11-.27-4.3-.66-6.4-.11-4.87 4.11-7.2 12.33-2.85 17.53 1.31-1.77 2.68-3.51 4.05-5.24 2.29-.37 4.68-.64 6.74.68 2.7 1.69 5.88 1.57 8.88.95.09-1.81.15-3.63-.11-5.43 1.69 2.01.9 4.69-.1 6.81-1.4-.8-2.94-.47-4.38-.01-2.51 4.11-5.62 7.81-8.15 11.9-2.25-1.62-3.56-4.44-6.33-5.3.37.76 1.11 2.28 1.48 3.05-1.36.26-2.04 1.07-2.02 2.42-.21 4.62-.32 9.25-.21 13.88-.01 1.66 0 3.33-.03 4.99l-.66.4c-.17-.94-.31-1.88-.43-2.82.54-8.4.37-16.85.23-25.25-2.67-6.09-3.73-12.75-5.9-19.04-.36.12-1.09.35-1.45.47-2.07 6.51-3.28 13.29-5.82 19.63-.29 6.99.26 14 .14 21l-.91-.04c.06-4.98.2-10-.7-14.92-4.63 3.37-5.13 10.28-4.36 15.63.05 1.48.09 2.96.14 4.45-1.41-2.88-.74-6.29-1.55-9.34l-.38-.82c-3.08-1.79-6.21-3.49-9.02-5.69-1.87 1.82-4 3.32-6.28 4.57.05.71.14 2.14.18 2.85.14 1.43.32 2.86.59 4.27l-3.71-.63c-.29-1.14-.51-2.29-.68-3.45.97 1.17 2 2.29 3.08 3.36.34-2.4-.2-4.79-.58-7.15 2.28-1.33 4.54-2.67 6.68-4.2l-2.34-2.46c-1.03-1.01-1.22-2.49-1.65-3.8-1.83.13-3.53.8-5.2 1.51l.36-.79c1.53-.65 3.03-1.38 4.45-2.24-.14-1.58-.29-3.22-1.27-4.53.23-2.19.43-4.4.05-6.59-3.96.95-8.03 1.34-11.98 2.34-3.85.75-2.16 5.34-1.81 7.97l1.09.59c.35-.65 1.05-1.94 1.4-2.59 3.15.11 6.15-.86 9.14-1.66l.7.51c-2.98.89-6.05 1.39-9.14 1.66l-.63.6c-2.8 2.87-.63 6.84 1.08 9.65.3-1.29.69-2.57 1.22-3.78.04 2.12 0 4.25.18 6.37-2.41-1.95-4.13-4.7-4.66-7.77-.01-2.03-2.6-2.79-2.32-4.89.02-3.68.86-7.3 1.21-10.95.04-1.38.6-2.67 1.94-3.22-.58 2.3-1.22 4.59-1.79 6.89 1.65-.39 3.29-.84 4.94-1.19 3.81-.62 9.75.15 10.65-4.8.79 2.98 1.09 6.06 1.03 9.13-1.45 2.93.05 6.18 1.34 8.88 2.46 5.23 7.64 8.36 12.65 10.8.28-3.9 2.19-7.27 4.09-10.58.44.16 1.33.47 1.78.63-.03-2.48-.01-4.96-.11-7.44 4.37-5.21 2.29-13.45-2.59-17.61-2.04-.43-4.14.33-6.2-.08 1.39-.4 2.81-.69 4.21-1.05.7-.06 2.1-.19 2.8-.25-.92-3.72-3.18-7.2-6.24-9.51l.39-.23m26.93 25.08c-.91 1.01-1.28 2.12-1.11 3.33 2.69 1.27 4.64-.42 5.83-2.71-1.35-1.15-3.12-.63-4.72-.62m5.22 3.67c-2.09 1.86-5.07 1.79-7.67 2.29 1.78 2.07 2.95 4.68 5.3 6.21 1.87-3.46 4.51-6.42 6.57-9.76-.04-.52-.13-1.56-.17-2.08-1.92.33-2.85 2.03-4.03 3.34z"/>
    <path fill="#b83b3c" d="M43.41 40.91c1.29-.72 2.76-.95 4.19-1.23 3.06 2.31 5.32 5.79 6.24 9.51-.7.06-2.1.19-2.8.25l-2.36-.56c-1.81-2.65-4.81-4.57-5.27-7.97z"/>
    <g fill="#010000">
        <path opacity=".2" d="M82.19 43.78c.53-1.35.81-2.83 1.71-4.01.68 1.81.13 3.56-1.45 4.64.06.63.11 1.26.16 1.9-1.95.28-1.46 3.38-.04 4.1 2.57 1.87 6 2.38 8.17 4.83 1.3 1.31 1.7 3.17 2.32 4.84 2.36.5 4.73 1 7.14 1.29 2.39.25 4.74.74 7.08 1.25-.6-2.61-1.62-5.12-1.98-7.79 3.13 4.47 2.73 10.02 2.93 15.2-1.18 1.99-2.11 4.09-2.98 6.25-.05-1.61.9-3.65-.32-5.01-.97-1.82-3.22-1.42-4.92-1.77-2.52-.28-4.97-1.03-7.15-2.34-.57 1.59-1.05 3.21-1.25 4.89l1.85 1.05.37.86c-1.44-.3-3.48.03-2.97 1.99 1.66 2.5 4.93 3.25 7.66 4.05.12 1.99.09 4.08 1.25 5.81l-1.66.08-.06-3.9v-1.12c-2.16-.83-4.24-1.85-6.26-2.98-1.58-1.43-2.99.71-4.28 1.38l-.7-.64c2.56-3.04 3.98-6.82 4.71-10.69-.32-.55-.95-1.66-1.27-2.22 1-2.12 1.79-4.8.1-6.81-2.91-3.39-7.05-5.36-10.31-8.38-.57-.38-1.15-.72-1.75-1.04-.42-2.71 2.73-3.72 3.9-5.71m10.73 17.24c-.7 2.1-.68 4.73.84 6.47 1.83.26 3.6.78 5.34 1.38l.7-.54-.24.69c2.44.32 4.89.61 7.35.87-.12-1.85.31-3.78-.21-5.58-2.05-1.22-4.39-1.85-6.77-1.87-2.36-.36-4.67-.99-7.01-1.42zM43.06 41.27l.35-.36c.46 3.4 3.46 5.32 5.27 7.97l2.36.56c-1.4.36-2.82.65-4.21 1.05-2.92 2.2-5.94 4.26-8.83 6.48-2.53 1.69-1.71 5.04-1.56 7.58 3.29.7 6.63.13 9.45-1.72 2.25-.24 5.01-.7 6.62 1.34-1.77.02-3.53.03-5.3.04.1 1.43.19 2.85.27 4.28-.59-.42-1.77-1.26-2.37-1.67-.42-1.44-4.09-2.61-2.86-.18 1.83 3.63 4.87 6.44 7.46 9.51 1.53-1.76 3.05-3.53 4.52-5.35-1.59-.57-3.24-.87-4.95-.89.46-.44 1.37-1.32 1.82-1.76 1.03-.11 1.7-.64 2.02-1.59l.92-1.11c.39.68 1.19 2.04 1.58 2.73.1 2.48.08 4.96.11 7.44-.45-.16-1.34-.47-1.78-.63.46-1.04.89-2.09 1.28-3.15-2.82.25-3.52 3.65-5.77 4.94-2.92-3.14-5.44-6.59-8.01-10-1.19-2-3.77-1.91-5.58-.89.06-3.07-.24-6.15-1.03-9.13 1.65-5.25 10.9-3.78 10.29-10.04-3.93 1.34-7.99 2.05-12.13 1.52-2.02 3.01-5.19 5.47-9.05 4.48l-1.19-.09c-.54.8-1.04 1.61-1.51 2.45v-2.83c2.98-.39 6.59.24 8.71-2.44 1.9-2.16 5.02-3.94 7.84-2.39 2.06-.16 5.58.17 5.87-2.6.41-1.29-2.01-2.58-.61-3.55z"/>
    </g>
    <path fill="#bd3e3c" d="M50 40.33c3.32-.12 6.71-.4 9.99.36 1.1 1.02 2.15 2.09 3.21 3.16 1.19-1.18 2.41-2.34 3.69-3.42 3-.3 6.01-.24 9.02-.22-.29 3.01-3.42 4.77-3.85 7.77-.35 3.64-2.54 6.77-4.85 9.48-1.1-3.29-1.96-6.82-4.15-9.6-1.74 2.91-2.8 6.13-3.96 9.28-1.82-1.84-2.78-4.32-4.37-6.35.4-4.19-2.7-7.2-4.73-10.46z"/>
    <path fill="#972f2c" opacity=".92" d="M94.27 45.59c.11-.01.34-.01.46-.01l-.46.01z"/>
    <path fill="#bb3f3f" d="M33 48.24c4.14.53 8.2-.18 12.13-1.52.61 6.26-8.64 4.79-10.29 10.04-.9 4.95-6.84 4.18-10.65 4.8-.45-.18-1.37-.53-1.83-.71.62-.64 1.24-1.27 1.87-1.91.08-2.08-.02-4.16-.28-6.22 3.86.99 7.03-1.47 9.05-4.48z"/>
    <g fill="#b53939">
        <path d="M82.57 50.41c-1.42-.72-1.91-3.82.04-4.1 2.51 1.87 6.32 2.72 9.28 1.39l2.59 1.08c1.17 3.78 5.99 4.66 9.37 3.57l.02.67c-1.3.11-2.6.25-3.9.42.49 2.66 1.66 5.32.23 7.93-2.41-.29-4.78-.79-7.14-1.29-.62-1.67-1.02-3.53-2.32-4.84-2.17-2.45-5.6-2.96-8.17-4.83zM85.87 65.71c1.44-.46 2.98-.79 4.38.01.32.56.95 1.67 1.27 2.22-.73 3.87-2.15 7.65-4.71 10.69-3.04 2.48-6.14 5.09-9.91 6.36-.73-3.45-1.94-6.76-4.03-9.63-.37-.77-1.11-2.29-1.48-3.05 2.77.86 4.08 3.68 6.33 5.3 2.53-4.09 5.64-7.79 8.15-11.9z"/>
    </g>
    <path fill="#c03f3f" d="M62.4 50.41c.36-.12 1.09-.35 1.45-.47 2.17 6.29 3.23 12.95 5.9 19.04.14 8.4.31 16.85-.23 25.25-4.13 1.94-8.54 1.7-12.7.06-.03-.81-.07-2.43-.1-3.25.12-7-.43-14.01-.14-21 2.54-6.34 3.75-13.12 5.82-19.63z"/>
    <path fill="#c34142" d="M73.64 50.42c2.1-.55 4.29-.16 6.4.11 3.26 3.02 7.4 4.99 10.31 8.38.26 1.8.2 3.62.11 5.43-3 .62-6.18.74-8.88-.95-2.06-1.32-4.45-1.05-6.74-.68-1.37 1.73-2.74 3.47-4.05 5.24-4.35-5.2-2.02-13.42 2.85-17.53z"/>
    <path fill="#c64442" d="M38 56.97c2.89-2.22 5.91-4.28 8.83-6.48 2.06.41 4.16-.35 6.2.08 4.88 4.16 6.96 12.4 2.59 17.61-.39-.69-1.19-2.05-1.58-2.73-1.1-3.47-5.22-4.24-8.15-2.62-2.82 1.85-6.16 2.42-9.45 1.72-.15-2.54-.97-5.89 1.56-7.58z"/>
    <g fill="#9c3031">
        <path d="M21.25 55.08c.47-.84.97-1.65 1.51-2.45l1.19.09c.26 2.06.36 4.14.28 6.22-.63.64-1.25 1.27-1.87 1.91.46.18 1.38.53 1.83.71-1.65.35-3.29.8-4.94 1.19.57-2.3 1.21-4.59 1.79-6.89l.21-.78zM50.75 91.71c.65 1.27 1.24 2.57 1.74 3.91 1.07.16 2.15.32 3.22.49 1.68 1.69 4.08 2.3 5.87 3.84-.06.56-.19 1.67-.25 2.23-2.25.23-4.5-.1-6.64-.83-1.77-1.3-3.05-3.13-3.8-5.19-.05-1.49-.09-2.97-.14-4.45z"/>
    </g>
    <path fill="#9c2f2e" d="M99.97 53.44c1.3-.17 2.6-.31 3.9-.42.36.45 1.07 1.36 1.43 1.81.36 2.67 1.38 5.18 1.98 7.79-2.34-.51-4.69-1-7.08-1.25 1.43-2.61.26-5.27-.23-7.93z"/>
    <path fill="#b53c39" d="M92.92 61.02c2.34.43 4.65 1.06 7.01 1.42.63.79 1.26 1.57 1.9 2.37-.69 1.17-1.36 2.34-2.03 3.52l-.7.54c-1.74-.6-3.51-1.12-5.34-1.38-1.52-1.74-1.54-4.37-.84-6.47z"/>
    <path fill="#b73c3c" d="M21.64 63.37c3.95-1 8.02-1.39 11.98-2.34.38 2.19.18 4.4-.05 6.59-.35.14-1.06.42-1.41.57l-.7-.51c-2.99.8-5.99 1.77-9.14 1.66-.18-2-.41-3.98-.68-5.97z"/>
    <path fill="#531b1c" opacity=".61" d="M45.89 62.83c2.93-1.62 7.05-.85 8.15 2.62l-.92 1.11c-1.4-1.84-3.46-2.26-5.67-1.99.03 1.37.65 2.49 1.87 3.37.44.05 1.33.16 1.78.21-.45.44-1.36 1.32-1.82 1.76-1.25-.4-2.44-.95-3.59-1.58-.14-.38-.43-1.13-.58-1.51.6.41 1.78 1.25 2.37 1.67-.08-1.43-.17-2.85-.27-4.28 1.77-.01 3.53-.02 5.3-.04-1.61-2.04-4.37-1.58-6.62-1.34z"/>
    <path fill="#942829" d="M99.93 62.44c2.38.02 4.72.65 6.77 1.87.52 1.8.09 3.73.21 5.58-2.46-.26-4.91-.55-7.35-.87l.24-.69c.67-1.18 1.34-2.35 2.03-3.52-.64-.8-1.27-1.58-1.9-2.37z"/>
    <path fill="#7c2122" d="M19.83 71.34c-.35-2.63-2.04-7.22 1.81-7.97.27 1.99.5 3.97.68 5.97-.35.65-1.05 1.94-1.4 2.59l-1.09-.59z"/>
    <path fill="#f05b5c" opacity=".97" d="M47.45 64.57c2.21-.27 4.27.15 5.67 1.99-.32.95-.99 1.48-2.02 1.59-.45-.05-1.34-.16-1.78-.21-1.22-.88-1.84-2-1.87-3.37z"/>
    <path fill="#ea5554" opacity=".94" d="M74.92 64.53c1.6-.01 3.37-.53 4.72.62-1.19 2.29-3.14 3.98-5.83 2.71-.17-1.21.2-2.32 1.11-3.33z"/>
    <path fill="#c64142" d="M80.14 68.2c1.18-1.31 2.11-3.01 4.03-3.34.04.52.13 1.56.17 2.08-2.06 3.34-4.7 6.3-6.57 9.76-2.35-1.53-3.52-4.14-5.3-6.21 2.6-.5 5.58-.43 7.67-2.29z"/>
    <path fill="#ba3c3c" d="M35.87 65.89c1.81-1.02 4.39-1.11 5.58.89 2.57 3.41 5.09 6.86 8.01 10 2.25-1.29 2.95-4.69 5.77-4.94-.39 1.06-.82 2.11-1.28 3.15-1.9 3.31-3.81 6.68-4.09 10.58-5.01-2.44-10.19-5.57-12.65-10.8-1.29-2.7-2.79-5.95-1.34-8.88z"/>
    <path fill="#d64542" d="M42.25 66.64c-1.23-2.43 2.44-1.26 2.86.18.15.38.44 1.13.58 1.51 1.15.63 2.34 1.18 3.59 1.58 1.71.02 3.36.32 4.95.89-1.47 1.82-2.99 3.59-4.52 5.35-2.59-3.07-5.63-5.88-7.46-9.51z"/>
    <g fill="#b53839">
        <path d="M91.61 72.05c.2-1.68.68-3.3 1.25-4.89 2.18 1.31 4.63 2.06 7.15 2.34-.54 1.8-.95 3.63-1.23 5.49-1.79-.58-3.56-1.24-5.32-1.89l-1.85-1.05zM70.85 77.78c.48-.18 1.45-.54 1.93-.71 3.84 5.7 3.39 12.66 2.26 19.1-.62-.15-1.86-.47-2.48-.62-.47-1.38-1.07-2.71-1.92-3.89-.11-4.63 0-9.26.21-13.88zM77.82 86.08c3.1-1.52 5.85-3.65 8.94-5.18 1.83 1.52 3.79 2.88 5.79 4.16-.05.68-.14 2.04-.19 2.72-1.7 1.16-3.38 2.34-5.03 3.56-2.83-.47-5.67-.9-8.53-1.01-.19-.48-.56-1.45-.74-1.93l-.24-2.32z"/>
    </g>
    <path fill="#9c2829" d="M100.01 69.5c1.7.35 3.95-.05 4.92 1.77 1.22 1.36.27 3.4.32 5.01l-.32 1.17c-1.89-1.19-4.01-1.89-6.15-2.46.28-1.86.69-3.69 1.23-5.49z"/>
    <path fill="#7b2221" opacity=".95" d="M23.47 80.1c-1.71-2.81-3.88-6.78-1.08-9.65.97 1.43 1.93 2.87 2.86 4.32 1.72.05 3.45-.05 5.14-.38l-.36.79c-.97.4-1.94.8-2.9 1.21-.75 1.45 1.03 2.24 1.78 3.15-1.57 1.13-1.71 3.24-2.42 4.91-.4-.44-1.21-1.32-1.62-1.76-.18-2.12-.14-4.25-.18-6.37-.53 1.21-.92 2.49-1.22 3.78z"/>
    <path fill="#401212" opacity=".68" d="M93.46 73.1c1.76.65 3.53 1.31 5.32 1.89 2.14.57 4.26 1.27 6.15 2.46-1.83 2.11-2.4 5.03-4.6 6.8.81-2.06 1.28-4.24.74-6.44-1.17-3-5.33-1.61-7.24-3.85l-.37-.86z"/>
    <path fill="#b83837" d="M30.03 75.18c1.67-.71 3.37-1.38 5.2-1.51-.07.78-.2 2.34-.27 3.11-1.97 1.02-4 1.91-6.05 2.76-.75-.91-2.53-1.7-1.78-3.15.96-.41 1.93-.81 2.9-1.21z"/>
    <path fill="#471414" opacity=".72" d="M35.23 73.67c.43 1.31.62 2.79 1.65 3.8-2.58 1-5.07 2.23-7.5 3.56-.26.89-.51 1.78-.76 2.67-.18 1.66-.96 2.12-2.33 1.38l.2-.63c.71-1.67.85-3.78 2.42-4.91 2.05-.85 4.08-1.74 6.05-2.76.07-.77.2-2.33.27-3.11z"/>
    <path fill="#ad3031" d="M90.86 75.95c-.51-1.96 1.53-2.29 2.97-1.99 1.91 2.24 6.07.85 7.24 3.85-.86.73-1.71 1.46-2.55 2.19-2.73-.8-6-1.55-7.66-4.05z"/>
    <path fill="#320f0f" opacity=".57" d="M70.85 77.78c-.02-1.35.66-2.16 2.02-2.42 2.09 2.87 3.3 6.18 4.03 9.63 3.77-1.27 6.87-3.88 9.91-6.36l.7.64c1.93 2.08 4.5 3.32 6.75 5-.29 2.01-.5 4.02-.64 6.04.51-.34 1.53-1.03 2.03-1.37.21 2.45-3.06 2.56-4.29 4.21.42-1.78.78-3.56 1-5.37.05-.68.14-2.04.19-2.72-2-1.28-3.96-2.64-5.79-4.16-3.09 1.53-5.84 3.66-8.94 5.18l.24 2.32-1.36.46c-.57 3.41-.05 6.99-1.65 10.19l-1.92 1.04c.81-1.22 1.49-2.52 1.91-3.92 1.13-6.44 1.58-13.4-2.26-19.1-.48.17-1.45.53-1.93.71z"/>
    <path fill="#b33a3a" d="M50.75 91.71c-.77-5.35-.27-12.26 4.36-15.63.9 4.92.76 9.94.7 14.92-.03 1.7-.06 3.4-.1 5.11-1.07-.17-2.15-.33-3.22-.49-.5-1.34-1.09-2.64-1.74-3.91z"/>
    <path fill="#b53431" d="M29.38 81.03c2.43-1.33 4.92-2.56 7.5-3.56l2.34 2.46c-2.14 1.53-4.4 2.87-6.68 4.2-1.09-1-2.14-2.04-3.16-3.1z"/>
    <path fill="#a53031" d="M87.51 79.27c1.29-.67 2.7-2.81 4.28-1.38 2.02 1.13 4.1 2.15 6.26 2.98v1.12c-1.16.93-2.46 1.65-3.79 2.28-2.25-1.68-4.82-2.92-6.75-5z"/>
    <path fill="#772020" d="M98.52 80c.84-.73 1.69-1.46 2.55-2.19.54 2.2.07 4.38-.74 6.44l-.56 1.56c-1.16-1.73-1.13-3.82-1.25-5.81z"/>
    <path fill="#832123" d="M28.62 83.7c.25-.89.5-1.78.76-2.67 1.02 1.06 2.07 2.1 3.16 3.1.38 2.36.92 4.75.58 7.15-1.08-1.07-2.11-2.19-3.08-3.36-.38-.47-1.15-1.4-1.53-1.86.03-.59.08-1.77.11-2.36z"/>
    <path fill="#b53539" d="M33.66 84.88c2.28-1.25 4.41-2.75 6.28-4.57 2.81 2.2 5.94 3.9 9.02 5.69l.38.82c-.52 1.08-.98 2.18-1.38 3.31-2.9.39-5.83.59-8.7 1.17-1.77-1.25-3.56-2.46-5.42-3.57-.04-.71-.13-2.14-.18-2.85z"/>
    <path fill="#78211f" opacity=".98" d="M94.26 84.27c1.33-.63 2.63-1.35 3.79-2.28l.06 3.9c-.82 1.01-1.61 2.05-2.46 3.05-.5.34-1.52 1.03-2.03 1.37.14-2.02.35-4.03.64-6.04z"/>
    <path fill="#732021" d="M33.84 87.73c1.86 1.11 3.65 2.32 5.42 3.57.07 1.19-.15 2.37-.64 3.54-1.78-.22-3.33-1.25-4.19-2.84-.27-1.41-.45-2.84-.59-4.27z"/>
    <path fill="#812528" opacity=".98" d="M87.33 91.34c1.65-1.22 3.33-2.4 5.03-3.56-.22 1.81-.58 3.59-1 5.37-1.1 1.03-2.35 1.52-3.76 1.47-.08-1.1-.17-2.19-.27-3.28z"/>
    <path fill="#a53431" d="M70.64 91.66c.85 1.18 1.45 2.51 1.92 3.89.62.15 1.86.47 2.48.62-.42 1.4-1.1 2.7-1.91 3.92-.83.9-1.86 1.61-2.97 2.12-1.72.05-3.43.03-5.15.01-.63-3.18 2.86-3.95 4.94-5.17l.66-.4c.03-1.66.02-3.33.03-4.99z"/>
    <path fill="#1c0809" opacity=".44" d="M61.58 99.95c.16 1.31.24 2.63.33 3.94-1.58 0-3.17.24-3.43 2.1-.88-1.84-2.22-3.35-3.79-4.64 2.14.73 4.39 1.06 6.64.83.06-.56.19-1.67.25-2.23z"/>
    <path fill="#190708" opacity=".42" d="M65.01 102.22c1.72.02 3.43.04 5.15-.01-.65.41-1.31.82-1.96 1.23 2.39 3.47-3.73 3.87-6.04 4.27l.55-.9c1.84-.34 3.63-.9 5.35-1.63-.71-.33-2.13-1-2.84-1.34-.05-.4-.16-1.21-.21-1.62z"/>
    <path fill="#712223" opacity=".91" d="M58.48 105.99c.26-1.86 1.85-2.1 3.43-2.1.83-.01 2.48-.03 3.31-.05.71.34 2.13 1.01 2.84 1.34-1.72.73-3.51 1.29-5.35 1.63-1.41-.29-2.82-.56-4.23-.82z"/>
</svg>
