<svg width="128pt" height="128pt" viewBox="0 0 128 128" xmlns="http://www.w3.org/2000/svg">
    <g fill="#fff">
        <path d="M29.37 22c-.09-2.76 3.19-1.62 4.81-1.34 1.3 2.64 2.77 5.25 4.85 7.35 3.23 2.98 4.64 7.37 7.75 10.47 3.29 3.38 6.78 7.14 7.16 12.1-1.73-.71-3.55-1.12-5.41-.94-.07-1.62-.88-3.3-2.65-3.52-1.97-2.28-2.28-5.46-4.19-7.77-3.06-3.9-5.98-7.9-8.97-11.86-.51-.7-1.01-1.41-1.51-2.11.11 5.9 1.28 12.08-.94 17.74-1.22-6.61-1.05-13.42-.9-20.12zM91.06 23.25c1.8-1.03 3.63-2.51 5.85-2.16-.19 1.67-1.23 3.01-2.26 4.26l-1.31 1.59c-2.99 4.4-6.4 8.49-9.49 12.81-1.37 3.99-4.56 6.79-6.86 10.21 1.71.46 3.4 1.06 4.86 2.09 2.48 1.84 5.1 3.53 7.42 5.58 1.96 1.75 1.12 4.55 1.25 6.83-5.6 2.06-10.08-3.4-15.61-1.86-1.46 1.95-3.04 3.81-4.65 5.64-.34-.97-1.02-2.89-1.36-3.86-.62-4 .25-7.96 2.31-11.42.57-.54 1.73-1.6 2.3-2.13-.22-.42-.67-1.26-.89-1.68 1.64-6.78 8.14-10.4 11.21-16.35 1.82-3.5 5.35-5.73 6.95-9.38l.28-.17z"/>
        <path d="M49.59 40.31c3.13-.06 6.29-.37 9.41.09 1.62.73 2.72 2.17 4.09 3.25 1.92-.7 2.85-3.1 4.99-3.36 2.79-.24 5.59-.08 8.39 0-2.46 3.36-4.74 6.87-5.2 11.09-1.32 2.01-2.55 4.08-3.71 6.19-1.21-3.61-2.69-7.12-4.54-10.45-1.6 3.36-2.94 6.83-4.13 10.35-.71-1.28-1.44-2.55-2.19-3.8-.65-1.07-1.31-2.12-1.97-3.17.32-4.14-2.67-7.28-5.14-10.19zM41.93 48.06c.64-.53 1.92-1.61 2.56-2.15.01 1.09.04 3.27.05 4.36-3.43 1.96-7.77 2.82-9.91 6.46-.32 1.12-.38 2.4-1.27 3.27-4.67 1.43-9.65 1.27-14.3 2.78.68-2.52 1.52-5 2.19-7.52.45-.92.9-1.83 1.35-2.74 1.99.29 4.09.61 6.02-.18 2.02-.59 2.83-2.74 4.29-4.06 3.01.04 6.02.18 9.02-.22zM81.57 46.15L84.42 48l2.9.28c1.24.05 2.81.69 3.63-.63 1.11.34 2.21.7 3.32 1.06 1.57 3.75 5.97 4.94 9.64 3.79 1.68 3.28 2.63 6.86 3.47 10.43-4.68-2.01-9.94-1.35-14.64-3.26-.49-5.88-6.74-7.2-10.99-9.56l-.18-3.96zM34.9 60.28c3.29-4.04 7.83-6.68 11.91-9.82 2.59-.53 5.46-.63 7.57 1.22.77 1.18 1.56 2.33 2.28 3.54 1.44 3.69 1.75 7.77.09 11.46-.31.3-.94.89-1.26 1.19-1.12-1.82-2.46-3.49-3.75-5.19-2.42-.45-4.97-.65-7.11.81-2.57 1.69-5.63 1.45-8.51.92l.28-3.98c-.37-.03-1.12-.11-1.5-.15z"/>
        <path d="M56.72 70.17c2.66-6.88 4.1-14.16 6.23-21.22 2.61 5.37 3.55 11.32 5.36 16.97 2.3 3.27 1.41 7.32 1.55 11.07-.13 5.77.32 11.58-.35 17.33-4.02 1.54-8.3 1.71-12.31.03-.83-5.76-.25-11.59-.66-17.38-.07-2.26-.28-4.57.18-6.8zM19.51 63.99c4.82-1.33 9.77-2.24 14.74-2.69-.13 2.05-.5 4.08-.94 6.09-3.67.79-7.32 1.77-11.09 1.99-.7 1.02-1.46 1.98-2.28 2.9-.36-2.74-1.02-5.53-.43-8.29zM92.55 61.01c4.88 1.38 10.24 1.06 14.76 3.56-.27 2.11-.52 4.21-.69 6.32-2.75-2.63-6.84-2.08-10.29-2.89-4.03.36-4.18-4.09-3.78-6.99zM86.02 65.56c2.06-.8 4-.22 5.46 1.42-.36 8.7-7.1 15.45-14.81 18.54-.35-4.8-3.08-8.77-5.34-12.84 1.2-.76 1.13-2.01 1.05-3.25 4.15 2.22 8.06-1.25 10.67-4.13l1.9.26c-2.02 4.03-5.01 7.43-7.36 11.25-1.73-1.74-3.35-3.6-5.2-5.23 1.59 2.15 3.43 4.09 5.21 6.08 2.77-4.06 5.79-7.94 8.42-12.1zM34.98 67.04c1.37-1.27 3.06-2.5 5-1.6 3.67 3.39 6.02 7.93 9.55 11.47.93-.94 1.84-1.89 2.68-2.91-.71.53-2.12 1.6-2.82 2.13-2.64-3.63-6.13-6.72-7.81-10.98 2.35-.76 3.21 1.61 4.6 2.78 1.83 2.01 4.7 2.21 7.24 2.28l1.77 2.37c-2.18 4.18-5.06 8.19-5.28 13.07-7.63-3.34-14.46-9.82-14.93-18.61z"/>
        <path d="M23.09 69.59c3.75.17 7.38-.82 10.86-2.1.35 1.46.64 2.94.93 4.42-1.7 1.12-3.5 2.1-5.44 2.75l.17.89c1.81-.43 4.85-3.34 6.03-.52-.23 4.61-8.12 2.95-8.27 7.51 2.18-2.86 6-3.34 8.8-5.39l3.33 2.7c-2.27 1.45-4.57 2.86-6.95 4.1.22 2.47.65 4.94.6 7.43-1.63-1.74-3.05-3.63-4.61-5.42.08-1.46.18-2.91.31-4.36-.5 1.26-.96 2.56-1.8 3.64-2.49-2.64-3.6-7.27-.55-9.94-.68.37-2.04 1.1-2.72 1.47l.2 3.91c-1.61-2.37-2.79-4.98-3.32-7.8.8-1.11 1.61-2.2 2.43-3.29zM92.68 67.2c.54.27 1.62.81 2.16 1.07 2.61 1.35 5.57 1.68 8.47 1.52.75 1.12 1.5 2.24 2.17 3.42-.02.39-.05 1.19-.06 1.59-.31 1.76-.94 3.52-2.55 4.5-.07-.7-.2-2.09-.26-2.78-3.85-1.02-7.58-2.47-11.03-4.46.34-1.62.71-3.24 1.1-4.86z"/>
        <path d="M91.32 73.55c3.42 1.16 6.98 1.84 10.36 3.13.76 3.46-.36 6.54-2.53 9.21-.17-1.91-.34-3.82-.49-5.72-2.58-.78-4.99-2-7.44-3.1.03-.88.07-2.64.1-3.52z"/>
        <path d="M87.15 79.91c1.01-.93 2.01-1.86 3.01-2.8 2.55 1.46 5.2 2.71 7.96 3.72 1.06 4.38-1.93 7.87-4.95 10.59.2-2.47.54-4.92.76-7.38-2.29-1.34-4.53-2.73-6.78-4.13zM33.63 84.84c2.31-1.2 4.43-2.7 6.33-4.48 2.89 2.21 6.01 4.13 9.33 5.66-.46 1.45-1.01 2.88-1.74 4.22-2.48.21-4.96.47-7.42.81-1.82.51-1.25 2.62-1.52 3.99-1.52-.92-3.51-1.55-4.14-3.4-.64-2.2-.64-4.53-.84-6.8z"/>
        <path d="M77.15 85.92c3.54-1.31 6.59-3.58 9.76-5.57 1.51 2.05 3.75 3.24 5.93 4.44-.1 2.43-.4 4.85-.7 7.27-1.25 1.23-2.67 2.28-4.31 2.93-.07-1.33.11-4.16-1.93-4.09-2.35-.22-4.69-.51-7.03-.7-.6-1.42-1.17-2.85-1.72-4.28z"/>
    </g>
    <path fill="#e1e1e1" opacity=".88" d="M92.35 20.7c.69-.21 2.07-.62 2.76-.82.5.23 1.51.71 2.01.95.62 7.79.54 15.84-1.4 23.46-2.61-6.05-.24-12.64-1.07-18.94 1.03-1.25 2.07-2.59 2.26-4.26-2.22-.35-4.05 1.13-5.85 2.16.43-.85.85-1.7 1.29-2.55z"/>
    <path fill="#919191" opacity=".57" d="M31.21 24.38c.5.7 1 1.41 1.51 2.11-.39 6.38-.57 12.89 1.04 19.13-.86.41-1.72.81-2.58 1.21-.32-1.57-.82-3.11-.91-4.71 2.22-5.66 1.05-11.84.94-17.74z"/>
    <path fill="#888" opacity=".53" d="M93.34 26.94l1.31-1.59c.83 6.3-1.54 12.89 1.07 18.94.11.83.15 1.67.14 2.52l-3.18-.96c1.31-6.15 2.47-12.8.66-18.91z"/>
    <g fill="#323232">
        <path opacity=".2" d="M76.99 49.96c2.3-3.42 5.49-6.22 6.86-10.21.41 2.21-.93 4.03-2.01 5.8 1.94.67 3.85 1.47 5.48 2.73l-2.9-.28-2.85-1.85.18 3.96.1 1.94c-1.46-1.03-3.15-1.63-4.86-2.09zM58.89 57.47c1.19-3.52 2.53-6.99 4.13-10.35 1.85 3.33 3.33 6.84 4.54 10.45 1.16-2.11 2.39-4.18 3.71-6.19-.01.4-.05 1.18-.06 1.58-2.06 3.46-2.93 7.42-2.31 11.42-.15.39-.45 1.15-.59 1.54-1.81-5.65-2.75-11.6-5.36-16.97-2.13 7.06-3.57 14.34-6.23 21.22-.63-.57-1.25-1.14-1.87-1.71l.64-.59c.32-.3.95-.89 1.26-1.19 1.66-3.69 1.35-7.77-.09-11.46l.04-1.55c.75 1.25 1.48 2.52 2.19 3.8z"/>
    </g>
    <path fill="#797979" opacity=".47" d="M107.31 64.57c.35 2.39.34 4.81.25 7.21-.58-.19-1.73-.58-2.31-.77.41 1.26.46 2.52.17 3.79.01-.4.04-1.2.06-1.59-.67-1.18-1.42-2.3-2.17-3.42-2.9.16-5.86-.17-8.47-1.52.37-.06 1.11-.2 1.49-.27 3.45.81 7.54.26 10.29 2.89.17-2.11.42-4.21.69-6.32z"/>
</svg>
