<svg width="128pt" height="128pt" viewBox="0 0 128 128" xmlns="http://www.w3.org/2000/svg">
    <g fill="#b52c29">
        <path d="M24.87 25.8c1.54-3.14 4.89-5.01 8.25-5.57 4.94-.18 9.53 2.62 12.27 6.63-2.09.85-4.18 1.71-6.26 2.58-1.86-3.14-6.33-5.73-9.48-2.74-2.39 2.6-1.76 6.22-1.53 9.43-1.19 1.4-2.4 2.79-3.51 4.26-1.7-4.64-2.18-10.1.26-14.59zM82.65 26.87c2.52-3.86 6.75-6.38 11.36-6.68 4.16.22 8.31 2.83 9.72 6.86 1.83 4.12.9 8.74.16 13-1.38-1.22-2.74-2.45-4.09-3.7.29-3.27 1.01-6.99-1.46-9.66-3.16-2.98-7.63-.36-9.49 2.78-2.07-.86-4.13-1.74-6.2-2.6zM57.81 28.93c3.86-2.23 8.5-2.23 12.36 0-4.44 6.11-4.27 13.93-6.17 20.94-1.93-7-1.68-14.86-6.19-20.94z"/>
    </g>
    <path fill="#060102" opacity=".32" d="M28.12 36.13c-.23-3.21-.86-6.83 1.53-9.43-.68 3.28-2.25 7.74 1.29 9.95-2.33 1.68-4.51 3.54-6.63 5.47 3.2 2.1 5.93 4.81 8.01 8.03-2.71-.23-5.43-.4-8.15-.43-.45 1.61-.89 3.22-1.33 4.82 3.47.58 6.52 2.35 8.42 5.35-3.47 1.17-6.88 2.56-9.92 4.63.48 1.85.97 3.69 1.46 5.54 3.26-1.61 6.75-2.75 10.42-2.67-2.21 3.12-4.16 6.42-5.53 9.99 2.37-.47 4.74-1.41 7.19-1.1 4.42.99 7.98 4.13 10.17 8.02 1.38-2.22 4.44-4.3 3.29-7.26-2-6.78-9.13-9.68-14.5-13.34.7-8.32 1.64-17.15 6.55-24.19 2.47-3.26 7.05-6.46 11.14-4.03 5.97 3.1 7.68 10.34 7.53 16.54 1.24-1.03 2.48-2.07 3.72-3.1-.49-7.29-2.69-14.51-7.17-20.36.55.09 1.65.28 2.2.37 4.51 6.08 4.26 13.94 6.19 20.94 1.9-7.01 1.73-14.83 6.17-20.94l2.21-.36c-4.42 5.87-6.7 13.08-7.16 20.37 1.24 1.02 2.48 2.05 3.72 3.08.17-4.22.36-8.75 2.94-12.31 1.96-2.9 5.37-5.65 9.08-4.98 4.63 1.34 7.77 5.51 9.43 9.85 2.36 6.07 3.66 12.63 3.42 19.15-5.06 3.97-12.28 6.55-14.18 13.36-1.07 2.93 1.95 4.99 3.31 7.19 2.24-3.86 5.75-7.1 10.24-7.98 2.35-.17 4.67.45 6.99.78-1.33-3.48-3.26-6.66-5.41-9.68 3.69-.15 7.19.98 10.42 2.65.49-1.83.98-3.66 1.46-5.48-3.01-2.1-6.39-3.55-9.86-4.7 1.93-3.09 5.11-4.79 8.64-5.39-.7-1.62-1.27-3.32-2.34-4.74-2.49-.18-4.97.18-7.44.42 2.13-3.2 4.86-5.92 8.08-8.03-2.16-1.94-4.36-3.83-6.72-5.52 3.67-2.07 1.99-6.66 1.34-9.92 2.47 2.67 1.75 6.39 1.46 9.66 1.35 1.25 2.71 2.48 4.09 3.7-.02.43-.04 1.29-.06 1.71 2.2 2.12 4.03 4.72 4 7.9-1-2.03-2.11-4.02-3.2-6.02-2.13 1.52-4.21 3.12-6.19 4.83 2.17-.04 4.34-.11 6.51-.18.82 2.56 1.61 5.14 2.36 7.74-3.33-.29-6.42.84-8.9 3.04 2.98 1.48 6.03 2.83 9.12 4.08.05 3.05-.71 6.03-2.22 8.69-2.61-1.16-5.22-2.29-7.88-3.31 2.06 3.15 3.73 6.56 4.27 10.33-3.41-.7-7.03-2.46-10.49-1.03-3.71 1.43-5.68 5.14-7.63 8.33 1.55-1.14 3.07-2.31 4.61-3.47-1.24 2.51-3.32 4.39-5.45 6.13-.37-2.97-1.89-5.55-3.88-7.71-3.49-3.5-2.49-8.83-3.58-13.25-.79 3.89-.59 7.91-1.41 11.78-1.37 1.74-3.16 3.09-4.82 4.54.16-.58.49-1.74.65-2.32-3.75.32-7.52.35-11.27.04.14.57.41 1.69.55 2.25-1.74-1.64-4.07-2.95-5.05-5.2-.5-3.68-.52-7.41-1.25-11.06-.66 3.45-.67 7.04-1.64 10.43-1.99 3.47-5.45 6.23-5.79 10.5-.56-.53-1.11-1.06-1.67-1.59 0-.23-.01-.69-.01-.92l-.04-1.63c-1.81-3.38-4.57-6.79-8.59-7.38-2.93-.21-5.73.9-8.55 1.5.45-3.78 2.18-7.16 4.23-10.3-2.68 1.01-5.31 2.14-7.93 3.28-1.17-2.5-2.54-5.17-2.08-8.01 2.64-2.16 5.97-3.19 8.96-4.75-2.51-2.12-5.55-3.39-8.88-2.99.76-2.59 1.55-5.18 2.38-7.75 2.17.08 4.35.16 6.52.22-1.99-1.73-4.07-3.33-6.22-4.85-.71 1.23-1.43 2.46-2.12 3.71.1-.67.31-2 .42-2.66.97-1.44 1.91-2.9 2.94-4.31 1.11-1.47 2.32-2.86 3.51-4.26m15.87 1.72c-3.5 2.4-4.71 6.68-6.2 10.42 3.05.08 6.25-.26 9.09 1.06 3.74 1.42 6.45 4.55 8.57 7.82 4.19-5.86 2.72-14.35-2.27-19.25-2.39-2.47-6.61-1.96-9.19-.05m28.25 3.51c-2.81 4.75-3.03 11.2.36 15.74 3.41-6.3 10.49-9.94 17.62-8.83-1.77-4.93-4.16-11.33-10.2-11.95-3.57-.78-6.3 2.17-7.78 5.04m-35.4 8.68c.03 2.17.16 4.37 1.28 6.29 3.9-.81 7.85.14 11.78.23l.56.82c-4.21.21-8.77-1.59-12.68.56-.43-.71-1.27-2.12-1.7-2.82-.65 2.7-1.03 5.47-.97 8.26 5.97 3.12 11.87 7.17 14.69 13.54.64-4.28 1.88-8.82 1.34-13.04l-.95-.03c.35-.1 1.05-.3 1.4-.41.61 1.61 1.18 3.24 1.83 4.84.29-1.99.58-3.97.88-5.96-.38-.24-1.13-.72-1.51-.96l-.8-1.68c.49.43 1.47 1.31 1.96 1.74.03-1.85.47-3.94-.73-5.56-3.35-5.43-10.36-7.73-16.38-5.82m44.61.32c-4.37 1.79-8.76 5.95-7.35 11.13.46-.46 1.37-1.38 1.83-1.84-.19.43-.56 1.29-.75 1.72-.36.25-1.09.74-1.46.99l.93 6.06c.58-1.67 1.15-3.33 1.72-5 .37.14 1.11.41 1.47.55l-1.31-.47c.33 4.54.93 9.05 1.49 13.56 2.87-6.38 8.8-10.21 14.54-13.71.98-2.65-.23-5.56-.66-8.23-.41.68-1.22 2.04-1.63 2.72-4.02-1.81-8.47-.33-12.69-.51 3.04-1.69 6.93-.87 10.31-1.64l2.04.96c.93-2.08 1.21-4.34 1.25-6.6-3.2-.55-6.68-1.26-9.73.31m-19.89 1.13c-3.43 2.55-5.45 6.51-7.09 10.35 2.87-2.15 5.79-4.75 9.53-5.1 3.66.31 6.49 2.89 9.41 4.84-1.35-3.34-3.16-6.56-5.75-9.1-1.48-1.76-4.11-1.43-6.1-.99m2.64 6.64c-4.13-.38-7.24 2.7-9.84 5.44.53 5.07.64 10.17.65 15.27 5.55 3.33 12.52 3.33 18.05-.05-.12-5.08.07-10.15.56-15.21-2.52-2.63-5.44-5.67-9.42-5.45z"/>
    <g fill="#bd2c2c">
        <path d="M30.94 36.65c4.85-3.74 10.48-6.25 16.23-8.28 2.7-.96 5.81-1.05 8.44.19 4.48 5.85 6.68 13.07 7.17 20.36-1.24 1.03-2.48 2.07-3.72 3.1.15-6.2-1.56-13.44-7.53-16.54-4.09-2.43-8.67.77-11.14 4.03-4.91 7.04-5.85 15.87-6.55 24.19 5.37 3.66 12.5 6.56 14.5 13.34 1.15 2.96-1.91 5.04-3.29 7.26-2.19-3.89-5.75-7.03-10.17-8.02-2.45-.31-4.82.63-7.19 1.1 1.37-3.57 3.32-6.87 5.53-9.99-3.67-.08-7.16 1.06-10.42 2.67-.49-1.85-.98-3.69-1.46-5.54 3.04-2.07 6.45-3.46 9.92-4.63-1.9-3-4.95-4.77-8.42-5.35.44-1.6.88-3.21 1.33-4.82 2.72.03 5.44.2 8.15.43-2.08-3.22-4.81-5.93-8.01-8.03 2.12-1.93 4.3-3.79 6.63-5.47zM72.38 28.57c4.17-2.05 8.79-.3 12.71 1.44 4.28 1.6 8.25 3.88 11.91 6.6 2.36 1.69 4.56 3.58 6.72 5.52-3.22 2.11-5.95 4.83-8.08 8.03 2.47-.24 4.95-.6 7.44-.42 1.07 1.42 1.64 3.12 2.34 4.74-3.53.6-6.71 2.3-8.64 5.39 3.47 1.15 6.85 2.6 9.86 4.7-.48 1.82-.97 3.65-1.46 5.48-3.23-1.67-6.73-2.8-10.42-2.65 2.15 3.02 4.08 6.2 5.41 9.68-2.32-.33-4.64-.95-6.99-.78-4.49.88-8 4.12-10.24 7.98-1.36-2.2-4.38-4.26-3.31-7.19 1.9-6.81 9.12-9.39 14.18-13.36.24-6.52-1.06-13.08-3.42-19.15-1.66-4.34-4.8-8.51-9.43-9.85-3.71-.67-7.12 2.08-9.08 4.98-2.58 3.56-2.77 8.09-2.94 12.31-1.24-1.03-2.48-2.06-3.72-3.08.46-7.29 2.74-14.5 7.16-20.37z"/>
        <path d="M72.24 41.36c1.48-2.87 4.21-5.82 7.78-5.04 6.04.62 8.43 7.02 10.2 11.95-7.13-1.11-14.21 2.53-17.62 8.83-3.39-4.54-3.17-10.99-.36-15.74z"/>
    </g>
    <path fill="#bb2c2c" d="M43.99 37.85c2.58-1.91 6.8-2.42 9.19.05 4.99 4.9 6.46 13.39 2.27 19.25-2.12-3.27-4.83-6.4-8.57-7.82-2.84-1.32-6.04-.98-9.09-1.06 1.49-3.74 2.7-8.02 6.2-10.42z"/>
    <g fill="#bd2c31">
        <path d="M23.37 43.65c2.15 1.52 4.23 3.12 6.22 4.85-2.17-.06-4.35-.14-6.52-.22-.83 2.57-1.62 5.16-2.38 7.75 3.33-.4 6.37.87 8.88 2.99-2.99 1.56-6.32 2.59-8.96 4.75-.46 2.84.91 5.51 2.08 8.01 2.62-1.14 5.25-2.27 7.93-3.28-2.05 3.14-3.78 6.52-4.23 10.3 2.82-.6 5.62-1.71 8.55-1.5 4.02.59 6.78 4 8.59 7.38l.04 1.63c-2.22-2.23-4.41-4.85-7.59-5.68-3.22-1-6.53-.02-9.78.2-8.65-8.51-9.95-22.78-4.95-33.47.69-1.25 1.41-2.48 2.12-3.71z"/>
        <path d="M35.11 63.38c-.06-2.79.32-5.56.97-8.26.43.7 1.27 2.11 1.7 2.82 2.44 4.13 7.36 9.4 12.41 5.91l.95.03c.54 4.22-.7 8.76-1.34 13.04-2.82-6.37-8.72-10.42-14.69-13.54z"/>
    </g>
    <path fill="#c62c31" d="M98.44 48.47c1.98-1.71 4.06-3.31 6.19-4.83 1.09 2 2.2 3.99 3.2 6.02 3.39 10.4 2.15 23.2-5.99 31.14-4.59-.53-9.88-1.57-13.65 1.89-1.54 1.16-3.06 2.33-4.61 3.47 1.95-3.19 3.92-6.9 7.63-8.33 3.46-1.43 7.08.33 10.49 1.03-.54-3.77-2.21-7.18-4.27-10.33 2.66 1.02 5.27 2.15 7.88 3.31 1.51-2.66 2.27-5.64 2.22-8.69-3.09-1.25-6.14-2.6-9.12-4.08 2.48-2.2 5.57-3.33 8.9-3.04-.75-2.6-1.54-5.18-2.36-7.74-2.17.07-4.34.14-6.51.18z"/>
    <g fill="#bb2c2b">
        <path d="M36.84 50.04c6.02-1.91 13.03.39 16.38 5.82 1.2 1.62.76 3.71.73 5.56-.49-.43-1.47-1.31-1.96-1.74-.5-.77-1.01-1.54-1.53-2.3l-.56-.82c-3.93-.09-7.88-1.04-11.78-.23-1.12-1.92-1.25-4.12-1.28-6.29zM81.45 50.36c3.05-1.57 6.53-.86 9.73-.31-.04 2.26-.32 4.52-1.25 6.6l-2.04-.96c-3.38.77-7.27-.05-10.31 1.64-.58.75-1.11 1.54-1.65 2.32-.46.46-1.37 1.38-1.83 1.84-1.41-5.18 2.98-9.34 7.35-11.13z"/>
    </g>
    <path fill="#be2b2e" d="M61.56 51.49c1.99-.44 4.62-.77 6.1.99 2.59 2.54 4.4 5.76 5.75 9.1-2.92-1.95-5.75-4.53-9.41-4.84-3.74.35-6.66 2.95-9.53 5.1 1.64-3.84 3.66-7.8 7.09-10.35z"/>
    <path fill="#bd2c29" d="M91.9 55.12c.43 2.67 1.64 5.58.66 8.23-5.74 3.5-11.67 7.33-14.54 13.71-.56-4.51-1.16-9.02-1.49-13.56l1.31.47c1.78.58 3.66 1.49 5.55.61.06-.03.18-.07.24-.1 2.86-1.45 5.01-3.93 6.64-6.64.41-.68 1.22-2.04 1.63-2.72z"/>
    <g fill="#c02c2e">
        <path d="M64.2 58.13c3.98-.22 6.9 2.82 9.42 5.45-.49 5.06-.68 10.13-.56 15.21-5.53 3.38-12.5 3.38-18.05.05-.01-5.1-.12-10.2-.65-15.27 2.6-2.74 5.71-5.82 9.84-5.44z"/>
        <path d="M75.28 67.86c1.09 4.42.09 9.75 3.58 13.25 1.99 2.16 3.51 4.74 3.88 7.71-.93 3.15-4.21 4.17-6.85 5.46-.43.2-1.31.6-1.74.8-2.91-2.12-6.05-3.9-8.86-6.14-.24-.21-.7-.64-.94-.86 1.57-1.29 3.18-2.55 4.7-3.9 1.66-1.45 3.45-2.8 4.82-4.54.82-3.87.62-7.89 1.41-11.78z"/>
    </g>
    <path fill="#1f0607" opacity=".53" d="M83.39 64.58c.06-.03.18-.07.24-.1-.06.03-.18.07-.24.1z"/>
    <path fill="#bd2c2e" d="M52.68 67.89c.73 3.65.75 7.38 1.25 11.06.98 2.25 3.31 3.56 5.05 5.2.21.18.63.54.84.71 1.33 1.16 2.64 2.33 3.97 3.48-3.3 2.28-6.68 4.43-9.95 6.75-.46-.21-1.37-.63-1.82-.84-2.64-1.26-5.76-2.37-6.77-5.43.34-4.27 3.8-7.03 5.79-10.5.97-3.39.98-6.98 1.64-10.43z"/>
    <path fill="#c42d30" d="M55.33 96.53c2.64-1.85 5.73-2.85 8.67-4.09 2.92 1.25 6.04 2.19 8.64 4.08 1.85.95.81 3.08.77 4.66-1.4 2.23-3.43 3.95-5.31 5.74-.24-.77-.71-2.32-.94-3.09-1.07 1.44-2.12 2.89-3.16 4.34-1.06-1.45-2.11-2.9-3.17-4.35l-.92 3.08c-1.89-1.77-3.91-3.47-5.3-5.68-.01-1.54-1.09-3.76.72-4.69z"/>
</svg>
