<svg width="128pt" height="128pt" viewBox="0 0 128 128" xmlns="http://www.w3.org/2000/svg">
    <g fill="#fff">
        <path d="M24.71 25.86c2.65-4.19 8.29-7.02 13.05-4.74 3.22.81 5.55 3.29 7.6 5.74-2.19.79-4.35 1.65-6.45 2.68-.87-2.73-3.59-3.7-5.96-4.73-1.5.8-3.22 1.46-4.11 3.02-1.77 2.5-.75 5.67-.43 8.44-1.28 1.29-2.55 2.6-3.83 3.89-1.69-4.59-1.81-9.77.13-14.3zM82.79 26.91c2.43-3.89 6.69-6.18 11.18-6.72 3.76.37 7.3 2.45 9.32 5.67 1.92 4.47 1.76 9.54.31 14.12-1.49-1.06-2.75-2.39-4.03-3.68.35-2.76 1.35-5.92-.38-8.43-.89-1.57-2.62-2.25-4.13-3.06-2.3.93-4.6 2-6.02 4.14l2.06.97c-2.86-.74-5.56-1.96-8.31-3.01zM19.95 70.87c-2.5-9.07-1.88-19.16 3.2-27.26 2.35 1.44 4.84 2.8 6.47 5.11-1.44-.09-4.31-.29-5.75-.39.26-.64.78-1.94 1.04-2.59-1.93 3.26-3.71 6.75-3.9 10.63 3.03-1.22 6.8.38 8.12 3.34-2.95 1.22-6.6 1.78-8.65 4.41.21 2.61.31 5.68 2.51 7.48 2.6-1 5.04-2.44 7.78-3.07-1.87 3.2-4.48 6.36-4.15 10.33 3.17-.82 6.58-2.58 9.84-1.17 4.48 1.29 5.88 6.35 9.46 8.87.54-3.46 3.74-5.39 5.3-8.28.65-3.8.86-7.68 1.49-11.5.69 4.02 1.08 8.08.99 12.16 2.74 3.62 6.53 6.48 10.07 9.36-3.24 2.38-6.9 4.17-9.9 6.87-3.34-1.96-9.84-3.52-8.06-8.58-.71-.03-2.13-.07-2.84-.09-.08-.38-.25-1.13-.34-1.51-4-4.41-10.53-6.5-16.08-3.75-2.58-3.18-5.27-6.44-6.6-10.37zM98.38 48.74c1.63-2.31 4.09-3.73 6.47-5.13 5.1 8.11 5.69 18.22 3.19 27.3-1.33 3.92-4.04 7.15-6.6 10.33-5.25-2.58-11.59-.95-15.49 3.24-.12.49-.36 1.45-.48 1.93-3.5-.04-2.65 4.59-5.42 5.65-2.15.93-3.99 2.48-6.26 3.13-2.6-3.03-6.49-4.43-9.56-6.9 3.68-2.72 6.97-5.91 10.18-9.16-.37-4.15.25-8.28.88-12.36.82 4.02.55 8.31 1.82 12.2 2.1 2.1 3.51 5.25 5.74 6.92 2.99-2.9 4.9-7.36 9.27-8.63 3.19-.65 6.27.8 9.29 1.62.25-3.96-2.21-7.19-4.19-10.35 2.81.47 5.17 2.12 7.8 3.06 2.21-1.82 2.3-4.92 2.5-7.53-2-2.47-5.41-3.12-8.29-4.07l.08-1.63c2.18-1.64 4.9-3.23 7.67-2-.18-3.86-1.94-7.36-3.92-10.6.27.65.81 1.94 1.08 2.58l-5.76.4z"/>
        <path d="M74.34 56.57c3.12-5.78 10.24-8.48 16.49-6.73.17 1.4.32 2.81.46 4.21-.63.83-1.25 1.66-1.87 2.49-1.69-1.2-3.7-.38-5.56-.28-1.95.25-3.99-.01-5.87.63-1.69 1.17-2.32 3.26-3.4 4.93-.33-1.69-1.45-3.67-.25-5.25zM37.13 49.83c6.16-1.65 13.22.84 16.4 6.5 1.34 1.62.29 3.72-.13 5.48-1.18-1.73-1.75-4.21-3.83-5.07-3.12-.52-6.33-.31-9.45-.97-3.25 2.28-3.73-3.84-2.99-5.94z"/>
    </g>
    <path fill="#191919" opacity=".1" d="M23.26 82.19c1.34-1.18 3.63 1.04 2.49 2.42-1.36 1.17-3.62-1.03-2.49-2.42z"/>
    <path fill="#fefefe" d="M54.11 97.51c2.97-2.17 6.27-3.99 9.9-4.74 3.61.76 6.88 2.57 9.86 4.7 0 3.93-2.88 6.7-5.35 9.37-.37-.76-1.09-2.29-1.45-3.06-1.05 1.42-2.07 2.87-3.07 4.32-.99-1.44-2-2.87-3.03-4.28-.55 1.01-1.09 2.02-1.62 3.04-2.33-2.76-5.19-5.47-5.24-9.35z"/>
    <g fill="#242424">
        <path opacity=".14" d="M52.08 101.28c3.33.17-1.58 2.96 0 0zM75.12 101.27c3.33.21-1.6 2.95 0 0z"/>
    </g>
</svg>
