<svg width="128pt" height="128pt" viewBox="0 0 128 128" xmlns="http://www.w3.org/2000/svg">
    <path fill="#67090c" opacity=".77" d="M63.89 18.84c.34-.27 1.03-.81 1.38-1.08.09 1.6.22 3.21.1 4.81-1.09 13.33.14 26.75-.94 40.1-.09 2.82-3.35 3.63-5.24 5.07.16-1.12.32-2.24.46-3.35.77-5.47.39-11.01.87-16.51.3-2.31-.6-4.51-1.66-6.51.61.07 1.85.22 2.46.29.93-7.6 1.55-15.23 2.57-22.82z"/>
    <path fill="#4f070a" opacity=".64" d="M65.37 22.57c1.65 5.95 1.72 12.3 2.37 18.44 2.89-2.51 5.49-5.35 8.43-7.81.46.14 1.39.42 1.86.57 1.3 4.23.48 9.91 4.77 12.54 1.8 1.5 3.54 3.06 5.32 4.58-.46.23-1.37.67-1.83.9-1.07-.4-2.14-.79-3.22-1.19-2.27 2.55-3.89 5.57-5.12 8.74-1.23.28-2.46.54-3.69.81-.78-.47-2.35-1.41-3.13-1.87l-1.47-.87c-.09 3.49-.1 6.98-.09 10.47-.8-.82-1.6-1.64-2.41-2.46-.62-.01-1.23-.03-1.85-.04-.22 4.33-.56 8.66-.96 12.98-1.46.13-2.92.25-4.38.33-.88-.91-1.79-1.8-2.71-2.67.13-6.02 1.36-11.94 1.53-17.96l-1.88.6 2.28-1.12c.18 2.28.38 4.56.46 6.85-.14 1.11-.3 2.23-.46 3.35 1.89-1.44 5.15-2.25 5.24-5.07 1.08-13.35-.15-26.77.94-40.1z"/>
    <path fill="#5d0a0b" opacity=".74" d="M50 34.89c1.01.49 2.01 1.02 3 1.55-2.06 3.31-2.09 7.29-2.52 11.04l-2.3-.18c1.71-3.91.99-8.3 1.82-12.41z"/>
    <g fill="#53080a">
        <path opacity=".66" d="M53 36.44c1.95 1.63 4.28 2.91 5.86 4.93 1.06 2 1.96 4.2 1.66 6.51-.48 5.5-.1 11.04-.87 16.51-.08-2.29-.28-4.57-.46-6.85l-2.28 1.12c-3.25 1.39-5.95 3.72-8.6 6-4.52-2.86-7.11-7.61-10.56-11.52-2.45.19-4.89.39-7.33.61-.06-.71-.11-1.41-.17-2.12 3.87-.1 7.85.1 11.6-1.05 1.91-.87 3.54-2.22 5.27-3.37l1.06.09 2.3.18c.43-3.75.46-7.73 2.52-11.04zM46.63 91.12c.4-.67 1.21-2.01 1.61-2.69 2.31 2.79 5.07 5.33 8.39 6.84 1.93.85 3.87 1.65 5.81 2.48-.28.29-.83.85-1.1 1.13-5.82.01-10.82-3.75-14.71-7.76z"/>
    </g>
    <path fill="#450609" opacity=".58" d="M83.07 50.6c1.08.4 2.15.79 3.22 1.19.46-.23 1.37-.67 1.83-.9l.75-.4c3.15 1.1 6.5 1.23 9.81 1.34.29 1.48-.14 2.48-1.3 3.02-1.5-.27-2.99-.64-4.47-1.01-3.96 2.9-2.57 8.71-6.27 11.75-1.29 1.17-2.81 2.04-4.28 2.94-.79-1.95-1.76-3.89-3.48-5.19-1.51-1.11-3.05-2.17-4.62-3.19 1.23-.27 2.46-.53 3.69-.81 1.23-3.17 2.85-6.19 5.12-8.74z"/>
    <path fill="#450709" opacity=".59" d="M30.42 53.75c2.44-.22 4.88-.42 7.33-.61 3.45 3.91 6.04 8.66 10.56 11.52 1.46 1.62 2.72 3.39 4.09 5.07l-.09.69c-.8 3.09-1.67 6.16-2.42 9.26-2.05-2.97-.52-6.45-.31-9.7-.52-1.23-1.96-1.5-2.99-2.15-2.99 6.69-2.49 14.52 1.65 20.6-.4.68-1.21 2.02-1.61 2.69-2.71-3.21-4.23-7.18-6.52-10.66-2.18-3.36-6.94-3.62-8.99-7.16 2.68-2 2.6-5.45 3.26-8.39 1.17-4.2-2.23-7.67-3.96-11.16z"/>
    <path fill="#3d0607" opacity=".54" d="M86.64 65.59c3.7-3.04 2.31-8.85 6.27-11.75 1.48.37 2.97.74 4.47 1.01-1.75 2.25-3.47 4.53-5.03 6.92.55 2.71 1.08 5.44 1.45 8.19 1.08.94 2.17 1.84 3.24 2.79-1.62 3.01-3.76 5.71-6.41 7.89-4.55 3.64-6.24 9.64-10.74 13.34-3.58 3.3-8.41 4.64-13.12 5.32.95-1.78 2.45-3.15 4.28-4 5.84-2.2 10.52-7.19 12.03-13.29 1.37-4.45.2-9.07-.72-13.48 1.47-.9 2.99-1.77 4.28-2.94z"/>
    <path fill="#390605" opacity=".53" d="M69.66 57.41l1.47.87c-1.09 5.82 1.24 11.7.42 17.59-1.59 2.7-3.84 4.98-5.14 7.88 1.29-.75 2.58-1.49 3.9-2.17.37.43 1.09 1.28 1.45 1.7-.8 1.16-1.61 2.31-2.41 3.47-1.15-.61-2.33-1.15-3.5-1.71-.88 2.23-1.85 4.43-2.65 6.68-1.25-1.92-2.17-4.35-4.43-5.3-3.33-1.71-6.98-3.29-8.88-6.74.75-3.1 1.62-6.17 2.42-9.26-.14 2.56-.3 5.12-.61 7.66 3.19 2.03 6.62 3.64 10.2 4.85-.63-1.42-1.23-2.85-1.93-4.24 1.46-.08 2.92-.2 4.38-.33.4-4.32.74-8.65.96-12.98.62.01 1.23.03 1.85.04.81.82 1.61 1.64 2.41 2.46-.01-3.49 0-6.98.09-10.47z"/>
    <path fill="#2d0503" opacity=".45" d="M78.88 63.34c1.72 1.3 2.69 3.24 3.48 5.19-.58-.51-1.75-1.55-2.33-2.06l-1.48 2.52c1.34 3.11 2.53 6.3 3.4 9.58-3.48 3.73-7.11 7.84-12.6 8.18.8-1.16 1.61-2.31 2.41-3.47-.36-.42-1.08-1.27-1.45-1.7 2.16-.87 4.4-1.49 6.62-2.17-.22-3.56-1.46-6.92-2.12-10.4.45-2.31 2.72-3.82 4.07-5.67z"/>
    <path fill="#330506" opacity=".48" d="M24.76 78.28c2.13-1.65 4.21-3.36 6.36-4.98 2.05 3.54 6.81 3.8 8.99 7.16 2.29 3.48 3.81 7.45 6.52 10.66 3.89 4.01 8.89 7.77 14.71 7.76.27-.28.82-.84 1.1-1.13.78 1.57 1.66 3.08 2.48 4.62.6-1.03 1.21-2.06 1.85-3.07 4.71-.68 9.54-2.02 13.12-5.32 4.5-3.7 6.19-9.7 10.74-13.34 2.65-2.18 4.79-4.88 6.41-7.89 2.31 1.6 4.64 3.19 7.01 4.7-.63 3.13-4.49 3.36-6.73 4.95-2.92 1-3.89 4.03-5.55 6.31-2.62 2.83-2.02 6.87-2.19 10.4-3.42.49-6.85-.01-10.26-.26-.4.22-1.19.66-1.58.87-1.04.65-2.16 1.02-3.39 1.12-4.61.03-6.96 4.58-10.13 7.22-1.44-1.47-2.91-2.91-4.35-4.37-.61-.63-1.22-1.25-1.84-1.87-2.77-.6-5.31-1.94-8.04-2.66-4.35.84-8.2 3.75-12.8 3.53.35-4.05 1.42-7.97 2.39-11.89-2.02-2.56-3.81-5.31-5.27-8.22-3.05-1.72-7.58-1.08-9.55-4.3z"/>
    <path fill="#280404" opacity=".41" d="M65.85 85.04c1.17.56 2.35 1.1 3.5 1.71-1.18 2.86-1.88 5.9-2.06 8.99l3.76-.44c-1.83.85-3.33 2.22-4.28 4-.64 1.01-1.25 2.04-1.85 3.07-.82-1.54-1.7-3.05-2.48-4.62-1.94-.83-3.88-1.63-5.81-2.48 1.88.21 3.76.34 5.65.43.25-1.34.51-2.68.92-3.98.8-2.25 1.77-4.45 2.65-6.68z"/>
    <path fill="#0d0101" opacity=".33" d="M89.58 99.11c.17-3.53-.43-7.57 2.19-10.4-1.04 4.05-.16 8.17-.01 12.25-.26.22-.77.64-1.03.86-4.36-.48-8.59-1.86-12.99-2.1.39-.21 1.18-.65 1.58-.87 3.41.25 6.84.75 10.26.26z"/>
    <path fill="#0f0201" opacity=".33" d="M64.22 108.06c3.17-2.64 5.52-7.19 10.13-7.22l.94.33c-5.22.74-6.76 5.98-9.5 9.6-.44.22-1.33.65-1.78.86-1.59-2.52-3.26-5.05-4.14-7.94 1.44 1.46 2.91 2.9 4.35 4.37z"/>
</svg>
