<svg width="128pt" height="128pt" viewBox="0 0 128 128" xmlns="http://www.w3.org/2000/svg">
    <path fill="#fdfdfd" d="M57.51 75.74c2.27-19.88 4.81-39.74 7.15-59.61 1.96 19.92 5.3 39.7 6.65 59.68-2.1 2.37-4.85 4.48-4.92 7.97 3.48-1.31 6.95-2.65 10.57-3.49 1.97-3.97-1.2-8.12-1.77-12.11 1.72-1.33 3.34-2.78 5.06-4.13-.33 1.51-1.19 2.78-2.18 3.92-.17 3.72 2.5 6.63 3.25 10.14-2.07 2.35-4.44 4.43-6.62 6.68-2.19.48-5 .45-6.25 2.66-1.75 3.06-3.07 7.06-.5 10.07-1 1.59-2 3.17-3.03 4.75-1.13-1.71-2.24-3.43-3.26-5.2 1.04-1.21 1.85-2.58 2.34-4.1-.91-1.87-1.72-3.79-2.52-5.7-2.9-1.8-6.16-2.99-8.92-5-1.5-1.7-2.45-3.79-3.63-5.71.4-1.85.91-3.67 1.27-5.53-.27-2.13-2.32-3.47-3.27-5.28 2.41-.01 3.41 2.69 4.95 4.13-.37 2.38-.03 4.92-1.06 7.15 2.34 4.24 7.97 4.78 11.9 7.02-.73-3.34-2.18-6.51-5.21-8.31z"/>
</svg>
