<svg width="128pt" height="128pt" viewBox="0 0 128 128" xmlns="http://www.w3.org/2000/svg">
    <path fill="#fff" d="M67.64 41.8c3.02-3.04 6.35-5.75 9.41-8.74 2.05 4.43.78 10.66 5.42 13.52 1.44 1.19 2.68 2.58 4.1 3.79 3.89 1.55 8.14 1.96 12.29 2.28-2.71 2.81-5.29 5.8-7.11 9.28.69 2.72 1.15 5.48 1.51 8.26 3.24 3.09 6.9 5.67 10.71 8-4.07 2.76-10.43 3.65-11.82 9.07-.65 1.44-1.46 2.79-2.22 4.17.42 3.27.58 6.56 1.09 9.82-3.93-1.16-7.95-2.12-12.04-2.46-2.66 1.19-5.39 2.22-8.24 2.86-2.41 2.88-4.63 5.97-5.99 9.5-1.97-3.31-3.6-6.88-6.03-9.88-3.25-.52-6.2-1.91-9.12-3.35-3.75 2.08-7.79 3.74-12.04 4.45.89-4.1 2.02-8.15 2.68-12.29-2.34-2.23-4.05-5-5.32-7.96-3.23-1.21-6.56-2.12-9.84-3.19 2.99-2.29 5.79-4.8 8.63-7.27.35-3.03 1-6 1.85-8.92-1.39-3.75-3.44-7.22-5.57-10.59 3.99-.13 8.04-.15 11.96-1.06 2.55-1.35 4.76-3.26 7.28-4.66.38-3.8.46-7.63 1.14-11.4 3.7 2.49 6.82 6.01 11.15 7.45-.66 4.98-1.25 9.96-1.9 14.94-9.76 2.17-16.88 12.36-15.25 22.29 1.06 8.76 8.46 15.99 17.15 17.22 1.13 1.79 2.24 3.59 3.42 5.35 1.16-1.83 2.26-3.69 3.31-5.58 5.65-1.26 10.74-4.89 13.53-9.99 3.41-5.88 3.38-13.54.04-19.44-2.52-4.83-7.25-8.06-12.28-9.84-.45-5.23-1.27-10.42-1.9-15.63z"/>
</svg>
