<svg width="128pt" height="128pt" viewBox="0 0 128 128" xmlns="http://www.w3.org/2000/svg">
    <path fill="#0f0101" opacity=".35" d="M47.49 22.84c2.63-5.07 8.35-7.1 13.78-7.04-.73 1.94-2.47 2.92-4.3 3.62 1.07-.93 2.13-1.86 3.19-2.79-5.04-.1-9.39 2.61-12.67 6.21z"/>
    <path fill="#3a0606" opacity=".55" d="M47.49 22.84c3.28-3.6 7.63-6.31 12.67-6.21-1.06.93-2.12 1.86-3.19 2.79-1.6 1.3-3.3 2.47-5.04 3.58-1.51.72-2.49 2.13-2.9 3.72-.47 1.68-1.43 3.12-2.63 4.38-.15 3.22.39 6.4 1.08 9.53l.19.96c1.3-.01 2.6-.01 3.9.03-1.04.61-2.09 1.22-3.13 1.82 2.88 3.65 5.92 8.19 11.21 7.88-2.17 1.39-4.55-.17-6.77-.62-.47-.01-1.4-.01-1.87-.02l-.65.01c-2.67-3.04-4.24-6.86-7-9.82 1.93-5.1 1.02-10.73 2.68-15.91.4-.77.88-1.47 1.45-2.12z"/>
    <path fill="#830d0e" opacity=".83" d="M67.72 17.32c4.31-.59 8.67 1.21 11.36 4.6 1.3 1.84 2.18 3.92 3.24 5.9.17 1.07.35 2.13.55 3.2.58 2.56.79 5.19.78 7.82.51-.15 1.52-.44 2.03-.58l-.13 1.22c-.02.32-.08.96-.1 1.29-.41-.08-1.22-.22-1.62-.3-2.28 6.52-7.41 11.54-12.8 15.61l2.88 2.16c.67.51 1.35 1.01 2.03 1.52-1.42.85-2.85 1.7-4.23 2.63-1.77 1.38-1.36 3.73-1.35 5.69-1.8.48-3.49 1.29-5.1 2.22.07 1.81.16 3.62.26 5.43 1.78.17 3.41-.47 4.82-1.53-.02 1.44-.02 2.88-.02 4.32l5.66-.3c-1 .73-2.01 1.46-3.03 2.17-1.73 1.37-3.88 2.52-4.86 4.6-2.36 7.71-1.78 16.05-4.39 23.68-1.28-6.91-2.35-13.86-3.85-20.73-.33-1.46-.86-2.87-1.64-4.14-2.19-2.06-4.67-3.77-7.06-5.57 1.14.17 3.43.5 4.58.67-.07-1.89-.03-3.78-.03-5.68 1.09 1.3 2.19 2.58 3.29 3.87 1.74-2.33 2.78-6.16.39-8.4-1.16-1.17-2.79-.58-4.22-.59l.57-4.38c-.42-.31-1.26-.91-1.68-1.22-.3-.19-.9-.59-1.21-.79-1.61-.16-3.23-.24-4.85-.34.32-.77.65-1.55.98-2.32 1.28-.56 2.57-1.11 3.82-1.72 1.18-.77 2.3-1.6 3.39-2.48-1.72-1.39-3.45-2.78-5.17-4.17.47.01 1.4.01 1.87.02 2.22.45 4.6 2.01 6.77.62.45-.3 1.36-.9 1.82-1.2 1.6-.65.57-2.61-.63-3.04-.6-1.52-1.21-3.03-1.81-4.54-2.48-.4-4.95-.81-7.46-.92-1.3-.04-2.6-.04-3.9-.03l-.19-.96c5.77.44 9.91-3.95 13.9-7.41.53-2.23 1.12-4.45 1.88-6.62 1.69 5.32 4.32 10.96 9.66 13.44 2.78.63 5.66.37 8.48.41.75-5.01-.28-9.84-2.26-14.42-2.83-4.05-7.28-6.28-11.42-8.71m-1.71 32.55c3.67 3.42 9.56.84 12-2.88 1.81-1.07 2.69-2.98 3.86-4.63-4 .62-8.02.2-11.84-1.06-2.03 2.49-4.15 5.16-4.02 8.57m-4.68 7.69c-3.42 2.45.97 7.28 4.09 4.82 3.31-2.41-.97-7.78-4.09-4.82z"/>
    <path fill="#060101" opacity=".31" d="M49.03 26.72c.41-1.59 1.39-3 2.9-3.72.92 1.53-1.19 4.32-2.9 3.72z"/>
    <path fill="#490808" opacity=".53" d="M43.61 39.15c-.49-4.85-1.05-10.24 2.43-14.19-1.66 5.18-.75 10.81-2.68 15.91-1.42-.11-2.83-.2-4.24-.29-2.49-3.05-4.59-6.64-3.53-10.73 1.91 3.68 3.77 7.82 8.02 9.3z"/>
    <path fill="#500808" opacity=".52" d="M85.68 38.26c1.72-3.11 4.34-5.97 5.39-9.57.5 3.64.81 7.41-.52 10.93-1.66-.05-3.33-.1-5-.14l.13-1.22z"/>
    <path fill="#280404" opacity=".54" d="M60.84 47.08c1.2.43 2.23 2.39.63 3.04-.16-.76-.47-2.28-.63-3.04z"/>
    <path fill="#5b0909" opacity=".56" d="M33.04 60.14c4.45-4.13 8.5-8.64 12.39-13.3.05 3-.88 6.69 1.85 8.84 1.36 1.68 3.57 1.58 5.51 1.65-1.25.61-2.54 1.16-3.82 1.72-.33.77-.66 1.55-.98 2.32 1.62.1 3.24.18 4.85.34.31.2.91.6 1.21.79-3.67-.72-6.98.93-9.65 3.32.68 2.45 1.24 4.93 1.88 7.4-4.27-4.51-8.49-9.07-13.24-13.08z"/>
    <path fill="#610a0b" opacity=".62" d="M73.91 58.24c4.63-.39 7.62-4.16 9.68-7.94 1.25 1.33 2.52 2.65 3.77 3.97l-.04.12c-2.27 3.89-1.34 8.34-.65 12.52-.87 1.63-2.28 2.91-3.7 4.06-2.39-1.13-.48-4.83-2.62-6.39-1.95-2.91-5.65-2.23-8.64-2.19 1.38-.93 2.81-1.78 4.23-2.63-.68-.51-1.36-1.01-2.03-1.52z"/>
    <path fill="#560908" opacity=".52" d="M86.67 66.91c-.69-4.18-1.62-8.63.65-12.52 2.34 1.77 4.58 3.69 6.73 5.69-2.35 2.4-4.76 4.73-7.38 6.83z"/>
    <path fill="#0e0101" opacity=".37" d="M61.33 57.56c3.12-2.96 7.4 2.41 4.09 4.82-3.12 2.46-7.51-2.37-4.09-4.82m1.77.68c-1.89.4-1.23 3.59.69 3.01 1.84-.41 1.2-3.57-.69-3.01z"/>
    <path opacity=".09" d="M63.1 58.24c1.89-.56 2.53 2.6.69 3.01-1.92.58-2.58-2.61-.69-3.01z"/>
    <path fill="#1d0303" opacity=".45" d="M68.09 84.99c.98-2.08 3.13-3.23 4.86-4.6-1.36 2.08-3.45 3.72-4.37 6.05-1.8 8.51-2.48 17.21-3.83 25.8-2.62-.92-2.1-4-2.61-6.19-.75-7.51-2.85-14.79-3.93-22.25.78 1.27 1.31 2.68 1.64 4.14 1.5 6.87 2.57 13.82 3.85 20.73 2.61-7.63 2.03-15.97 4.39-23.68z"/>
</svg>
