<svg width="128pt" height="128pt" viewBox="0 0 128 128" xmlns="http://www.w3.org/2000/svg">
    <g fill="#fdfdfd">
        <path d="M67.78 17.19c5.43-.33 11.14 2.81 13.05 8.05 2.62 4.34 2.01 9.59 3.48 14.29l.86-2.29c.45.93.83 1.9 1.2 2.87-1.67.27-3.25 1.04-3.7 2.81-2.6 5.48-7.45 9.41-11.97 13.26 1.78 1.27 4.01 3.11 6.28 1.77 3.16-1.35 5.27-4.28 6.61-7.35 2.82 3.39 6.11 6.33 9.44 9.2-8.84-.25-17.72.18-26.55-.21l-.44-2.22c-.95.75-1.86 1.53-2.82 2.26.25-1.04.94-1.88 1.49-2.77l-1.5-.18c.1-9.97 0-19.94.04-29.91 1.27 2.98 1.55 6.61 4.1 8.87 1.87 1.66 3.33 4.06 5.93 4.63-3.31.6-5.55 3.18-7.04 6.03-1.15 1.49-.21 3.58.96 4.74 1.56 1.76 4.06.25 5.93-.13 3.12-.37 4.05-3.99 6.84-4.99.57-1.31 1.07-2.65 1.56-4-3.14.97-6.35.85-9.51.05.69-.55 1.39-1.1 2.09-1.63 2.4.27 4.83.34 7.24.07.17-2.5.54-5.01.3-7.52-.63-2.42-1.9-4.63-2.45-7.08-2.76-4.12-7.27-6.23-11.42-8.62zM90.61 28.75c.52 3.68.81 7.46-.58 11-1.29-.85-2.58-1.69-3.87-2.53 3.18-1.55 3.97-5.31 4.45-8.47zM33.18 59.96c8.83.01 17.65-.04 26.47.03.84 1.81 2.42 2.9 4.37 3.19-.22 16.3.58 32.64-.5 48.92-.68-9.39-2.4-18.68-4.75-27.78-2.28-2.63-5.26-4.51-7.92-6.71 1.82.82 3.73 1.44 5.69 1.88-.49-1.94-.78-3.93-.57-5.93.58.88 1.75 2.65 2.34 3.53 1.6-.83 2.53-2.27 3.08-3.95-.28-2.21-1.22-4.21-2.86-5.73-.81.18-2.43.56-3.24.74.2-1.93 1.11-4.3-.81-5.69-3.7-1.67-7.99.34-10.31 3.37.11 2.6 1.25 4.97 2.33 7.29-4.14-4.68-8.27-9.41-13.32-13.16z"/>
    </g>
</svg>
