<svg width="128pt" height="128pt" viewBox="0 0 128 128" xmlns="http://www.w3.org/2000/svg">
    <g fill="#fdfdfd">
        <path d="M50.99 20c2.69-2.56 6.55-2.95 10.07-3.38-5.72 2.24-10.76 6.42-13.46 12-3.45 3.26-1.6 8.13-.59 12.06 6.06.71 10.46-3.71 14.64-7.33.56-2.23 1-4.5 1.53-6.75.17 9.88.09 19.77.05 29.65-1.49.9-2.73 2.12-3.36 3.77-8.82.05-17.65-.02-26.47.04 4.89-3.57 8.35-8.59 12.38-13.03-.41 1.61-1.25 3.14-1.26 4.84.84 3.17 3.7 6.67 7.37 5.76 2.03-.03 3.14-1.76 4.52-2.95-4.48-2.99-8.6-6.71-10.34-11.97-1.93-1.46-3.89-3.26-6.53-2.42-2.26-2.97-4.6-6.37-3.79-10.32.98 4.88 4.44 8.86 9.16 10.5-.76-3.63-2.06-7.52-.68-11.18 1.51-3.56 4.06-6.57 6.76-9.29m-3.5 22.52c1.78 3.13 4.04 6.03 6.9 8.24 2.58 1.6 6.3 1.38 7.75-1.6-1.22-2.52-1.92-5.48-4.2-7.31-3.49-.49-7.03-.03-10.45.67zM65.87 62.09l.8-2.35c9.05.1 18.1-.16 27.14.15-4.11 3.71-8.32 7.37-11.53 11.92-.02-1.92-.12-3.85-.15-5.77-2.36-3.72-8.08-6.28-11.56-2.56-1.62 1.15-.44 3.04-.24 4.56-2.59-.05-6.26 2.03-5.43 5.04.12 1.52 1.16 2.72 2.06 3.87 1.07-.92 2.16-1.82 3.21-2.77-.02 1.55-.01 3.09 0 4.63 2.18-.2 4.32-.63 6.4-1.31-3.09 2.22-6.08 4.61-8.65 7.42-1.26 9.12-3.21 18.18-3.44 27.42-1.12-16.38-.24-32.82-.52-49.23.48-.25 1.43-.76 1.91-1.02z"/>
    </g>
</svg>
