<svg width="128pt" height="128pt" viewBox="0 0 128 128" xmlns="http://www.w3.org/2000/svg">
    <path fill="#6c0e10" opacity=".84" d="M94.42 22.21c4.75-2.74 8.61-6.72 13.36-9.45-.72 2.71-1.45 5.52-3.13 7.81-1.67 2.26-3.54 4.36-5.41 6.46-6.7 8.5-12.4 18.63-22.49 23.57-2.31-.52-3.24-3.1-4.64-4.77-1.33-2.46-4.1-4.65-3.79-7.67 1.41-2.69 3.43-5.26 6.3-6.45 6.64-3.08 13.74-5.29 19.8-9.5z"/>
    <path fill="#170303" opacity=".47" d="M99.24 27.03c1.87-2.1 3.74-4.2 5.41-6.46.12 2.71.41 5.83-1.98 7.73.23-.69.68-2.07.9-2.76-1.45.48-2.9.95-4.33 1.49z"/>
    <path fill="#610c0c" opacity=".73" d="M76.75 50.6c10.09-4.94 15.79-15.07 22.49-23.57 1.43-.54 2.88-1.01 4.33-1.49-.22.69-.67 2.07-.9 2.76-1.44 2.68-3.65 5.06-3.71 8.3 2.2-1.48 4.38-3 6.58-4.48-1.19 4.72-3.96 8.72-6.92 12.49.29 2.84-1.03 5.33-2.54 7.62l-.75-.06c-2.94 0-6.63-1.1-8.94 1.31-1.06 2.06-.07 4.74-1.34 6.69-2.25 1.34-5.02.96-7.52 1.31-7.69 1.08-14.91 5.21-22.79 4.82l-.32-2.49c2.05-.69 4.12-1.35 6.2-1.98 1.6 1.3 3.11.23 4.35-1 2.36-1.24 4.41-2.95 6.41-4.68.36-3.43.68-6.87.73-10.32 1.4 1.67 2.33 4.25 4.64 4.77z"/>
    <path fill="#170404" opacity=".46" d="M47.91 31.7c-2.69.01-.4-4.24.89-1.77l-.06.68c-.2.27-.62.82-.83 1.09z"/>
    <path fill="#6f1516" opacity=".76" d="M47.91 31.7c.21-.27.63-.82.83-1.09 1.37 1.79 2.73 3.59 4.08 5.39.88-.43 2.65-1.29 3.54-1.72.03.89.08 2.68.11 3.57 2.12 2.04 4.27 4.15 7.04 5.29-2.98 3.3 1.31 6.96 2.26 10.29-.32.29-.97.88-1.29 1.18.21 1.82.8 3.66.48 5.51-1.59-1.23-3.13-2.5-4.68-3.77.2 1.38.39 2.76.58 4.14-.75-.06-2.23-.19-2.97-.25.9.54 1.81 1.07 2.73 1.59-2.08.63-4.15 1.29-6.2 1.98-1.98-1.78-3.8-3.73-5.48-5.8-.92-1.06-1.98-2.39-3.54-2.31-1.9.48-3.47 1.76-5.25 2.53l.28-.7c.25-.54.74-1.63.99-2.18-.29-.85-.88-2.57-1.18-3.43.84.14 2.53.4 3.38.54l1.01.16c.39-.48 1.18-1.44 1.57-1.92l3.19-.03c.51-1.76 1.03-3.52 1.55-5.28l-2.63-.16c-.46-.44-1.36-1.32-1.82-1.76-1.72.12-3.44.14-5.16.02.32-1.25.75-2.47 1.26-3.65 2.33-.47 4.67-1 6.85-1.99 1.94-1.03-.21-3.42-.8-4.75l-.73-1.4z"/>
    <path opacity=".24" d="M48.64 33.1c.59 1.33 2.74 3.72.8 4.75-1.5-.92-1.63-3.35-.8-4.75z"/>
    <path fill="#5e0e0b" opacity=".71" d="M29.34 44.28c3.71.03 7.37.6 10.99 1.32 1.17 2.25 2.42 4.47 3.29 6.86-.85-.14-2.54-.4-3.38-.54l-.33-.05c-.58-1.4-1.16-2.79-1.77-4.17-2.37-.49-4.77-.86-7.17-1.15l-1.65 2.29c-1.54-.66-3.08-1.32-4.63-1.95 1.65-.69 3.29-1.44 4.65-2.61z"/>
    <path fill="#570c0d" opacity=".65" d="M86.39 53.48c2.31-2.41 6-1.31 8.94-1.31-1.59 3.33-3.76 6.62-7.58 7.54 2.83-.25 5.66-.27 8.5-.08-2.93 3.37-9.01 4.19-9.03 9.56-2.73 2.32-6.59 1.1-9.83 1.39l3.91 1.2c.19.66.58 2 .77 2.67-2.33-.19-4.63-.58-6.89-1.15.19.82.58 2.47.78 3.29-1.74-.26-3.28-1.06-4.72-2.02-.21.27-.62.8-.82 1.07-2.16-1.15-4.35-2.23-6.53-3.32 2.17 2.41 4.27 4.97 5.2 8.14-4.4-.38-8.18-3.2-12.62-3.23-1.98-.09-3.96-.03-5.94-.02-4.36-2.41-6.68-6.82-8.3-11.34-.92-.87-2.04-1.59-2.69-2.69-.74-1.78-1.38-3.62-2.42-5.25-1.47-.39-3.01-.4-4.52-.55 1.36-1.15 2.76-2.25 4.11-3.41 1.2 1.15 2.51 2.16 3.93 3.03l-.21.53-.28.7c1.78-.77 3.35-2.05 5.25-2.53 1.56-.08 2.62 1.25 3.54 2.31 1.68 2.07 3.5 4.02 5.48 5.8l.32 2.49c7.88.39 15.1-3.74 22.79-4.82 2.5-.35 5.27.03 7.52-1.31 1.27-1.95.28-4.63 1.34-6.69z"/>
    <path fill="#1f0404" opacity=".48" d="M30.48 59.44c1.32-2.47 2.95-5.68 6.23-5.47-1.35 1.16-2.75 2.26-4.11 3.41 1.51.15 3.05.16 4.52.55 1.04 1.63 1.68 3.47 2.42 5.25-1.66-1.76-2.58-4.41-5.12-5.11-.31 2.21.14 4.38 1.11 6.38-1.17 1.24-2.58 2.23-3.76 3.45-.5-2.8-1.32-5.59-1.29-8.46z"/>
    <path opacity=".17" d="M60.28 56.35c1.55 1.27 3.09 2.54 4.68 3.77l.01.71c-1.24 1.23-2.75 2.3-4.35 1-.92-.52-1.83-1.05-2.73-1.59.74.06 2.22.19 2.97.25-.19-1.38-.38-2.76-.58-4.14z"/>
    <path fill="#4d0a0a" opacity=".53" d="M50.53 77.21c1.98-.01 3.96-.07 5.94.02 4.44.03 8.22 2.85 12.62 3.23 5.22 1.26 5.34 7.72 7.67 11.63 3.07 1.36 6.8 2.56 8.28 5.87 1.26 3.35 1.69 6.96 1.66 10.52-1.79-1.92-2.29-5.02-4.9-6.09-2.2-1.14-4.62-1.7-7.02-2.21-3.37-3.91-3.77-9.1-4.37-13.98-1.34 1.91-2.69 3.82-4.06 5.72.41 1.16.8 2.33 1.19 3.49-1.53.5-3.05.99-4.57 1.49.17.27.5.81.67 1.08.4 1.34.79 2.69 1.16 4.04-1.02.42-2.05.86-3.07 1.28l-1.32-4.4-2.2-1.32c-2.47-1.29-3.34-4.15-4.57-6.44.39-2.05 1.04-4.11.85-6.21-.71-2.84-2.39-5.29-3.96-7.72z"/>
    <path fill="#330507" opacity=".45" d="M62.97 96.9c1.52-.5 3.04-.99 4.57-1.49 1.45 2.07 2.77 4.23 4.13 6.37-1.23 4.27-1.24 8.72-1.63 13.11-.96 2.55-4.11 1.09-6.14 1.31 1.13-4.01 3.24-7.95 2.75-12.25 0-2.38-1.86-4.09-3.01-5.97-.17-.27-.5-.81-.67-1.08z"/>
    <path fill="#370505" opacity=".45" d="M58.21 97.58l2.2 1.32 1.32 4.4c1.02-.42 2.05-.86 3.07-1.28-3.54 3.35-5.28 7.93-6.49 12.54-2.22-.1-4.43-.21-6.64-.36 2.3-4.1 6.68-6.85 7.95-11.54.59-1.84-.77-3.47-1.41-5.08z"/>
</svg>
