<svg width="128pt" height="128pt" viewBox="0 0 128 128" xmlns="http://www.w3.org/2000/svg">
    <path fill="#fdfdfd" d="M53.98 36.06c.55-.42 1.66-1.25 2.21-1.67l-.08 3.53c2.39 2.33 4.89 4.61 7.91 6.09-.73.13-2.19.39-2.92.51 1.56 3.24 3.2 6.44 4.91 9.6l-2.02-.85c.62 2.49.49 5.32 2.07 7.48-2.08-1.3-3.77-3.15-5.8-4.53.07 1.52.25 3.05.52 4.56l-2.2-1.52c-.45 3.63-.73 7.45.97 10.82 3.26 2.48 7 4.86 8.62 8.8.81 2.11 3.01 3.12 4.61 4.54 1.14 3 1.77 6.39 3.86 8.9 3.01 1.51 6.15 2.95 8.29 5.68-.17.33-.51 1-.68 1.33 1.55 2.88 2.85 6.24 1.74 9.51-.49-1.72-.15-3.89-1.71-5.13-2.35-2.51-6.04-2.92-8.91-4.64.11.53.32 1.59.42 2.13-1.69-2.89-3.86-5.73-4.05-9.21-.14-3.23-.72-6.45-2.3-9.31-.09 1.46-.17 2.93-.23 4.39-1.46 2.07-4.29 4.65-2.62 7.35 1.12 2.6 2.58 5.04 4.39 7.21-.9 3.53-1.32 7.16-1.67 10.78-1.18.24-2.36.49-3.55.74 1.3-3.89 2.73-8.45.7-12.31-1.2-2.92-3.87-4.85-5.58-7.44-.09.23-.26.7-.34.94 1.15 2.42 2.02 5.06 4.04 6.95-2.53 2.92-5.4 6-5.75 10.05-1.36-.11-2.71-.22-4.06-.32 3.01-2.79 5.45-6.48 6.11-10.58-2.5-2.66-4.88-5.46-6.66-8.67.05-3.01 1.62-6.22.05-9.06-1.15-2.96-2.96-5.64-5.66-7.39-3.42-2.13-4.52-6.22-5.84-9.77-1.22-.9-2.38-1.87-3.52-2.87-.64-1.81-1.48-3.55-2.51-5.17-1.22.28-2.42.62-3.6 1.03l.52 3.32c-.46.41-1.37 1.22-1.83 1.62-.31-1.23-.63-2.46-.95-3.69 1.99-1.68 2.5-5.38 5.52-5.41 1.97 2.07 4.28 3.75 6.57 5.46-1.29-3.92-2.25-8.01-4.31-11.62-2.56-3.33-8.57.47-10.04-3.95 4.14.67 8.64.42 12.4 2.54.41 2.38 1.84 4.37 2.98 6.45 1.48-1.67 3.48-2.37 5.64-2.67.86-1.68 1.12-3.59 1.58-5.4-.69-.1-2.07-.3-2.77-.41-1.14-.84-2.28-2.36-3.81-1.3-1.91 1.05-3.91-1.42-2.14-3.02 2.3-.72 4.65-1.34 6.87-2.31 1.47-.85 3.04-1.48 4.61-2.09z"/>
</svg>
