<svg width="128pt" height="128pt" viewBox="0 0 128 128" xmlns="http://www.w3.org/2000/svg">
    <g fill="#fdfdfd">
        <path d="M84.11 27.89c9.02-3.64 16.72-9.72 24.05-15.96-1.04 3.2-2.19 6.38-3.81 9.34.12.61.36 1.82.47 2.43-2.16 3.94-3.86 8.5-7.66 11.18l2.56-1.05c-1 1.34-1.98 2.69-2.93 4.05 3.2-1.63 6.21-3.65 8.78-6.17-1.74 7.09-6.89 12.42-11.79 17.48 1.99-1.19 3.69-2.77 5.5-4.2-.98 3.36-2.67 6.45-5.41 8.67-.5 3.22-3.66 4.83-6.25 6.21 2.85-.18 5.72-.26 8.59-.29-1.9 1.7-4.08 3.01-6.36 4.12-1.38 2.32-4.04 2.68-6.52 2.77 1.92.41 3.84.84 5.77 1.25-3.32 2.84-7.56 3.12-11.7 2.3 2 1.23 3.93 2.57 5.85 3.93-3.44.36-6.81-.28-9.83-1.97 1.04 1.36 2.07 2.73 3.07 4.12-2.19.46-3.96-.94-5.64-2.1.17.5.5 1.5.67 2.01-2.96-1.83-6.54-3.1-8.27-6.36-.21.35-.62 1.06-.82 1.41-1.27-1.17-2.86-2.04-3.84-3.49-.63-2.49-.23-5.09-.32-7.62 1.32.98 2.63 1.97 3.92 2.99 3.11-2.09 6.38-3.96 9.24-6.4.82-3.72 1.06-7.54.68-11.33-1.54-1.93-3.25-3.82-4.02-6.21 2.43-6.9 10.07-8.51 16.02-11.11m19.16-6.69c.13 2.97-2.89 4.53-4.48 6.64 2.21-1.43 6.36-3.44 4.48-6.64zM46.3 28.32c.55.55 1.07 1.12 1.58 1.71 1.79 2.22 3.65 4.38 5.17 6.8-2.67 1.35-3.22-1.88-4.27-3.53-.75-1.69-2.24-3.09-2.48-4.98zM24.55 46.23c2.03-.22 4.06-.61 6.1-.4-.38 1.02-.77 2.04-1.15 3.06-1.68-.83-3.35-1.69-4.95-2.66zM31.76 62.74c1.32-.06 2.52.29 3.61 1.03-1.17 1.34-2.38 2.66-3.58 3.98-.02-1.67-.03-3.34-.03-5.01zM51.8 113.92c1.05-1.14 2.09-2.27 3.15-3.4 1.27.29 2.53.57 3.81.82-.17.65-.49 1.94-.66 2.58-2.1.09-4.2.01-6.3 0zM65.43 112.82c1.41-.13 2.8-.35 4.2-.59-.02 1.15-.04 2.31-.05 3.47-1.84.09-3.67.09-5.5.08.45-.99.9-1.97 1.35-2.96z"/>
    </g>
</svg>
