<svg width="128pt" height="128pt" viewBox="0 0 128 128" xmlns="http://www.w3.org/2000/svg">
    <path fill="#8a1a1b" opacity=".94" d="M55.43 21.47c5.25-.8 10.63-1.21 15.75.58-1.3.04-2.6.1-3.9.17 1.21 9.52-1.31 18.87-1.67 28.33.36 9.36.36 18.93-2.16 28.01-1.02-10.16-.93-20.42-2.51-30.53-.76-4.89-1.78-9.74-2.48-14.65-1.03-.89-2.05-1.79-3.08-2.68.07-3.08.05-6.15.05-9.23z"/>
    <path fill="#751313" opacity=".8" d="M50.6 24.57c1.01-1.76 3.11-2.29 4.83-3.1 0 3.08.02 6.15-.05 9.23 1.03.89 2.05 1.79 3.08 2.68.7 4.91 1.72 9.76 2.48 14.65 1.58 10.11 1.49 20.37 2.51 30.53 2.52-9.08 2.52-18.65 2.16-28.01.36-9.46 2.88-18.81 1.67-28.33 1.3-.07 2.6-.13 3.9-.17 4.05 1.47 5.32 6.05 5.4 9.96.02 3.97 1.55 7.68 3.47 11.09-1.53.67-3.07 1.3-4.53 2.1.39 2.24 1.01 4.44 1.85 6.56.58 1.01 1.21 2 1.82 2.99l.69-1.59.04 1.55c3.64 3.93 8.23 6.73 12.32 10.13 2.69 2.42 5.14 5.1 7.71 7.65-4.49.36-7.26-3.5-10.67-5.67-4.05-2.63-8.29-4.96-12.5-7.34.53 2.71 1.3 5.38 2.78 7.73 2.04 3.71 3.94 7.52 5.29 11.55.59 3.14 1.12 6.29 1.78 9.41-6.24-8.9-11.33-18.65-14.27-29.15-.45 1.46-.9 2.92-1.3 4.4.12-5.8.17-11.59.33-17.38-1.89 4.33-2.21 9.08-2.43 13.74-1.18 8.7-3.37 17.4-2.64 26.24.24 3.83 2.24 7.23 4.27 10.38 2.14 2.73 4.87 4.9 7.63 6.97-3.33-.37-6.55-1.32-9.69-2.44.52 3.35.96 6.72 1.39 10.09-.56-.96-1.13-1.92-1.69-2.87-.97-1.63-1.92-3.26-2.87-4.9.06-.74.16-2.21.22-2.95-2.7-2.16-4.4-5.15-5.39-8.43-4.25-13.84.79-28.48-2.77-42.39.03 1.36.07 2.72.12 4.08-.37 4.84-.94 9.66-1.13 14.52-.72.21-1.44.41-2.15.62-3.39 8.67-8.07 16.97-9.46 26.29-.04 3.02-.41 6.33 1.08 9.09 1.77 2.12 4.4 3.25 6.7 4.68-2.2-.56-4.5-.89-6.56-1.89-2.46-1.82-3.76-4.71-5.46-7.17.22-.54.67-1.62.89-2.16 1.2-3.83 1.41-7.87 1.84-11.84 1.34-6.25 3.76-12.31 7.1-17.77 1.78-2.54 2.11-5.69 2.43-8.69-4.01 3.84-7.49 8.46-12.67 10.84-1.58.28-3.17.5-4.76.77 1.01-1.2 1.96-2.44 2.96-3.65 2.13-1.86 4.76-3.06 6.79-5.05 2.29-2.05 3.43-5.01 4.41-7.85 1.01-3.31.69-6.79.37-10.18.23-.12.69-.37.92-.49 1.76-.47 4.09-.08 5.36-1.66.69-1.82-.12-4.59-2.26-4.93-1.77-.6-3.13 1.05-4.6 1.71l-.73.41c-.39-.2-1.16-.61-1.55-.81 2.21-4.34.77-9.66 3.54-13.78m19.74 12.99c-1.59.93-.97 3.14-1.42 4.67 1.34.53 2.7 1.01 4.07 1.44.55-.53 1.66-1.61 2.21-2.14 1.74-.91-.1-3.76-1.77-3.25l.92-1.77c-1.35.29-2.69.64-4.01 1.05z"/>
    <path opacity=".36" d="M49.34 38.75c1.47-.66 2.83-2.31 4.6-1.71 2.14.34 2.95 3.11 2.26 4.93-1.27 1.58-3.6 1.19-5.36 1.66l-1.5-4.88zM57.42 49.48c3.56 13.91-1.48 28.55 2.77 42.39l-.03.76-.31.67c-3.27-5.66-1.15-12.54-3.76-18.37 2.62-6.82 2.49-14.25 1.45-21.37-.05-1.36-.09-2.72-.12-4.08zM24.32 57.77c.3-1.33 1.46-2.22 2.18-3.31-1.38 2.55-1.73 6.28 1.55 7.51 2.8.63 2.89-2.68 1.52-4.27l2.09 1.58c-1.05 1.28-1.45 3.81-3.54 3.51-1.75-1.17-3.44-2.88-3.8-5.02z"/>
    <path fill="#150403" opacity=".48" d="M70.34 37.56c1.32-.41 2.66-.76 4.01-1.05l-.92 1.77-2.64-.48 1.88.98c-.64.63-1.29 1.25-1.95 1.86-.45.4-1.35 1.2-1.8 1.59.45-1.53-.17-3.74 1.42-4.67z"/>
    <path fill="#691010" opacity=".8" d="M40.8 45.76c2.85-1.73 4.37-4.8 6.26-7.41.39.2 1.16.61 1.55.81l.73-.41 1.5 4.88c-.23.12-.69.37-.92.49.32 3.39.64 6.87-.37 10.18l.02-2.1c-3.54.6-7.04 1.41-10.54 2.19l-.52-.28c-2.65-1.35-5.48-3.08-8.58-2.65-3.02.47-5.69 2.08-8.42 3.33.91-1.4 1.81-2.81 2.68-4.23l.46-.75c5.41-1.14 11.35-.97 16.15-4.05z"/>
    <path fill="#160404" opacity=".53" d="M73.43 38.28c1.67-.51 3.51 2.34 1.77 3.25l-.57-.13c-.67-.87-1.39-1.73-1.72-2.79l.52-.33z"/>
    <path fill="#020000" opacity=".22" d="M68.92 42.23c.45-.39 1.35-1.19 1.8-1.59 1.3.23 2.61.48 3.91.76l.57.13c-.55.53-1.66 1.61-2.21 2.14-1.37-.43-2.73-.91-4.07-1.44z"/>
    <path fill="#610f10" opacity=".76" d="M80.05 43.1c4.18 2.91 8.53 6.34 13.92 6.24 2.94.42 6.6-.65 8.88 1.79 1.24 1.17 2.46 2.36 3.67 3.57.96.76 1.66 1.65 2.11 2.68-.31 1.83-.68 3.65-1.01 5.49-1.05-3.96-3.1-7.56-6.24-10.21-1.66 1.01-3.35 1.99-5 3.04l.36-1.17c-5.58.73-11.24 1.15-16.82.18l-.04-1.55-.69 1.59c-.61-.99-1.24-1.98-1.82-2.99.19-1.49.41-2.97.65-4.45-.62-.53-1.88-1.58-2.5-2.11 1.46-.8 3-1.43 4.53-2.1z"/>
    <path fill="#420a0b" opacity=".66" d="M75.52 45.2c.62.53 1.88 1.58 2.5 2.11-.24 1.48-.46 2.96-.65 4.45-.84-2.12-1.46-4.32-1.85-6.56z"/>
    <path fill="#320707" opacity=".6" d="M68.96 59.78c.22-4.66.54-9.41 2.43-13.74-.16 5.79-.21 11.58-.33 17.38-.12.78-.36 2.36-.48 3.15-.43-1.06-.86-2.11-1.29-3.16-.13-1.21-.24-2.42-.33-3.63z"/>
    <path fill="#3d0909" opacity=".64" d="M102.85 51.13c4.22-1.43 8.67-1.89 13.09-2.24-1.96 3.48-6.23 3.92-9.42 5.81-1.21-1.21-2.43-2.4-3.67-3.57z"/>
    <path fill="#590b0b" opacity=".73" d="M14.47 53.09c2-3.61 6.27-2.93 9.72-2.53-.87 1.42-1.77 2.83-2.68 4.23 2.73-1.25 5.4-2.86 8.42-3.33 3.1-.43 5.93 1.3 8.58 2.65-2.14.13-4.28.2-6.43.2 1.73 1.18 3.92 2.29 4.18 4.64-.22 3-1.57 6.47-4.61 7.61-2.85.94-6.23 1.17-8.92-.38-1.88-1.53-3.38-3.68-3.91-6.07.09-2.49 1.36-5.04.51-7.5-1.62.12-3.24.28-4.86.48m9.85 4.68c.36 2.14 2.05 3.85 3.8 5.02 2.09.3 2.49-2.23 3.54-3.51l-2.09-1.58c1.37 1.59 1.28 4.9-1.52 4.27-3.28-1.23-2.93-4.96-1.55-7.51-.72 1.09-1.88 1.98-2.18 3.31z"/>
    <g fill="#470a0a">
        <path opacity=".67" d="M96.38 55.7c1.65-1.05 3.34-2.03 5-3.04 3.14 2.65 5.19 6.25 6.24 10.21.33-1.84.7-3.66 1.01-5.49 1.16 3.31.73 7.15-1.19 10.09-2.07 2.14-5.31 1.96-8.01 2.49.14.64.44 1.92.59 2.56l-.07-.03c-2.57-2.55-5.02-5.23-7.71-7.65.16-3.52 1.25-6.94 4.14-9.14m2.9 8.68c1.07-.01 2.14-.02 3.21-.04.07-2.23.09-4.46.01-6.69-2.14 1.63-3.22 4.06-3.22 6.73zM26.43 94.75c.79.6 1.6 1.2 2.41 1.79.91 1.6 1.8 3.22 2.66 4.85-.1-1.06-.2-2.12-.29-3.18.34.07 1.03.2 1.37.26 2.3 2.11 5.79 5.16 4.07 8.58-2.21-2.05-4.27-4.26-6.6-6.18-1.39-1.92-2.34-4.12-3.62-6.12z"/>
    </g>
    <path fill="#540e10" opacity=".71" d="M57.54 53.56c1.04 7.12 1.17 14.55-1.45 21.37-2.62 6.19-5.77 12.18-7.49 18.73l-.32.11c-1.16.41-2.32.81-3.48 1.22 1.39-9.32 6.07-17.62 9.46-26.29.71-.21 1.43-.41 2.15-.62.19-4.86.76-9.68 1.13-14.52z"/>
    <path fill="#5b0f11" opacity=".66" d="M72.36 59.02c2.94 10.5 8.03 20.25 14.27 29.15-.66-3.12-1.19-6.27-1.78-9.41.25.19.75.57.99.76 2.27-2.45 4.7-4.75 7.57-6.47-5.06-2.32-9.71-5.39-14.46-8.26l.61 2.42c-1.48-2.35-2.25-5.02-2.78-7.73 4.21 2.38 8.45 4.71 12.5 7.34 3.41 2.17 6.18 6.03 10.67 5.67l.07.03c4.71 1.8 10.52 3.94 11.77 9.47 2.03 5.3-1.49 10.33-2.82 15.32-.5.14-1.51.42-2.02.56.35-4.71 3.72-9.08 2.27-13.88-.75-1.62-1.84-3.03-2.9-4.45-.11 4.27.94 9.13-2 12.74-2.72 3.69-7.71 3.42-11.78 3.16-.17 4.66-2.62 8.47-6.02 11.46-1.2 1.47-2.24 3.05-3.28 4.63 1.64.43 3.28.85 4.92 1.27-.82.42-2.46 1.26-3.28 1.67-3.49-.13-3.66-3.84-3.53-6.5 2.17-2.85 4.53-5.65 5.93-8.98.44-2.6-.94-5.09-2.09-7.33-4.71-8.23-10.82-15.68-14.43-24.52-.04-.14-.13-.43-.18-.57.12-.79.36-2.37.48-3.15.4-1.48.85-2.94 1.3-4.4m19.25 21.43c-1.12 2.09-1.11 4.53-1.46 6.82 1.96 2.73 4.91 3.85 8.21 3.41l2.31-2.64c.45-4.31-.89-8.42-3.41-11.88-2 1.22-4.36 2.22-5.65 4.29m-1.28 15.12c-.94 1.3-.94 3.38-.07 4.71 1.42-.49 1.57-4.25.07-4.71z"/>
    <path fill="#580d0d" opacity=".73" d="M40.15 70.08c5.18-2.38 8.66-7 12.67-10.84-.32 3-.65 6.15-2.43 8.69-4.67 3.35-10 5.55-15.08 8.18 1.43-2.15 2.87-4.33 4.84-6.03z"/>
    <path fill="#4f0b0b" opacity=".69" d="M66.32 86.02c-.73-8.84 1.46-17.54 2.64-26.24.09 1.21.2 2.42.33 3.63.11 6.57-.66 13.1-.72 19.66-.06 2.54.42 5.09 1.54 7.38.47.49 1.4 1.48 1.86 1.98 1.79-.99 3.57-2 5.41-2.89 1.94 1.84 3.92 4.44 2.29 7.17-2.21 3.38-6.27.51-9.08-.31-2.03-3.15-4.03-6.55-4.27-10.38m10.37 5.67c-.3.8-.88 2.42-1.17 3.22-1.69-.76-3.39-1.5-5.11-2.17 1.63 1.4 3.08 3.69 5.54 3.44 1.33.08 3.06-.56 3.2-2.1-.73-.89-1.68-1.56-2.46-2.39z"/>
    <path fill="#090101" opacity=".34" d="M69.29 63.41c.43 1.05.86 2.1 1.29 3.16.05.14.14.43.18.57-1.28 7.08-1.58 14.31-.8 21.47 1.03-.2 2.06-.4 3.08-.6-.98.8-1.96 1.62-2.93 2.44-1.12-2.29-1.6-4.84-1.54-7.38.06-6.56.83-13.09.72-19.66z"/>
    <path fill="#5c1014" opacity=".67" d="M30 72.95c2.41-2.39 5.06-4.68 8.35-5.75-1 1.21-1.95 2.45-2.96 3.65-3.93 2.72-5.42 7.28-5.87 11.84l-.96 4.35c2.09-1.2 4.14-2.58 6.49-3.23 2.86-.18 5.54 1.16 8.24 1.89-.43 3.97-.64 8.01-1.84 11.84l-1.46-.05c.31-1.46.62-2.93.94-4.4-3.8 1.86-7.91 2.91-12.09 3.45-.81-.59-1.62-1.19-2.41-1.79-2.7-1.56-3.3-4.92-3.7-7.75.03-5.55 3.26-10.46 7.27-14.05m4.45 15.7c-1.6.68-1.71 2.87-2.72 4.1 1.81-.02 3.61-.14 5.41-.38 1.86-.54 1.31-2.68 1.65-4.12-1.44.1-2.91.11-4.34.4z"/>
    <path fill="#5f1115" opacity=".89" d="M35.39 70.85c1.59-.27 3.18-.49 4.76-.77-1.97 1.7-3.41 3.88-4.84 6.03-1.91 2.21-3.92 4.33-5.79 6.58.45-4.56 1.94-9.12 5.87-11.84z"/>
    <path fill="#670e0f" opacity=".71" d="M73.04 88.01c2.44-2.35 6.26-2.05 8.68.16-1.45.45-2.9.89-4.34 1.37-1.84.89-3.62 1.9-5.41 2.89-.46-.5-1.39-1.49-1.86-1.98.97-.82 1.95-1.64 2.93-2.44z"/>
    <path fill="#601011" opacity=".66" d="M81.72 88.17c.14-.05.42-.13.56-.18 1.16 1.98 2.3 3.96 3.45 5.94-1.58 3.44-3.33 6.95-6.34 9.37l-1.17.07c-2.76-2.07-5.49-4.24-7.63-6.97 2.81.82 6.87 3.69 9.08.31 1.63-2.73-.35-5.33-2.29-7.17 1.44-.48 2.89-.92 4.34-1.37z"/>
    <path fill="#190303" opacity=".49" d="M76.69 91.69c.78.83 1.73 1.5 2.46 2.39-.14 1.54-1.87 2.18-3.2 2.1-2.46.25-3.91-2.04-5.54-3.44 1.72.67 3.42 1.41 5.11 2.17.29-.8.87-2.42 1.17-3.22z"/>
    <path fill="#691318" opacity=".78" d="M28.84 96.54c4.18-.54 8.29-1.59 12.09-3.45-.32 1.47-.63 2.94-.94 4.4-2.42.64-4.89 1.25-7.41.98-.34-.06-1.03-.19-1.37-.26.09 1.06.19 2.12.29 3.18-.86-1.63-1.75-3.25-2.66-4.85z"/>
    <path fill="#581013" opacity=".66" d="M44.8 94.99c1.16-.41 2.32-.81 3.48-1.22 0 1.85-.01 3.7.01 5.55 2.11-.04 4.8-.53 6.05 1.71 1.05 2.77-.3 5.43-1.76 7.73-2.3-1.43-4.93-2.56-6.7-4.68-1.49-2.76-1.12-6.07-1.08-9.09m5.64 8.11c.12 1.44.76 1.7 1.92.79-.11-1.44-.76-1.7-1.92-.79z"/>
    <path fill="#6a1318" opacity=".81" d="M90.33 95.57c1.5.46 1.35 4.22-.07 4.71-.87-1.33-.87-3.41.07-4.71z"/>
    <path fill="#3b0d0f" opacity=".58" d="M40.56 99.7c1.7 2.46 3 5.35 5.46 7.17 2.06 1 4.36 1.33 6.56 1.89-1.1.17-2.19.35-3.29.53.82 1.08 2.43 2.03 1.58 3.59-4.91-.1-6.95-4.98-9.24-8.5-1.08-1.33-.98-3.07-1.07-4.68z"/>
    <path fill="#4e0c0f" opacity=".65" d="M68.53 100.93c3.14 1.12 6.36 2.07 9.69 2.44l1.17-.07c-2.34.9-4.82.68-7.23.22.16 2.34.54 4.71.21 7.06-1.19 2.15-3.8 2.82-5.74 4.03.55-2.15 1.09-4.3 1.6-6.46.56.95 1.13 1.91 1.69 2.87-.43-3.37-.87-6.74-1.39-10.09z"/>
    <g>
        <path fill="#270708" opacity=".55" d="M50.44 103.1c1.16-.91 1.81-.65 1.92.79-1.16.91-1.8.65-1.92-.79z"/>
    </g>
    <g>
        <path fill="#230707" opacity=".47" d="M83.24 111.53c1.04-1.58 2.08-3.16 3.28-4.63.9 2 1.77 4.03 2.5 6.11-.22-.05-.65-.16-.86-.21-1.64-.42-3.28-.84-4.92-1.27z"/>
    </g>
</svg>
