<svg width="128pt" height="128pt" viewBox="0 0 128 128" xmlns="http://www.w3.org/2000/svg">
    <path fill="#171717" opacity=".09" d="M68.49 23.27c1.06-.81 3.01-.33 3.41.99-.28 1.9-4.13.69-3.41-.99z"/>
    <g fill="#fff">
        <path d="M44.21 43.24c2.21-3.19 3.63-7.81 7.91-8.72 3.2-1.09 6.77 1.32 6.94 4.7.42 1.61.82 3.23 1.16 4.87 1.14 7.56 1.51 15.23 1.47 22.88.19 7.65-.75 15.38.73 22.95 1.39 4.89 4.77 9.17 9.17 11.72-.43.28-1.27.84-1.7 1.12l3.05-.79c-.43.85-1.3 2.56-1.73 3.42.5 1.46 1.42 3.01 1.01 4.61-1.19 2.22-3.5 3.65-5.96 4.05 1.74-1.89 4.71-3.95 3.22-6.87-1.04-2.05-.19-5.22-2.43-6.49-.34 2.17.27 4.3.62 6.43-1.32-2.07-2.74-4.26-1.81-6.79-5.66-4.31-7.24-11.66-7.4-18.39-.52-9 .62-18.01.09-27.01-.24-2.17-.72-4.45-2.33-6.04.69 2.68 1.81 5.32 1.65 8.15-.13 5.74.74 11.79-1.72 17.19-3.41 7.35-7.33 14.72-8.51 22.83-.53 2.56 1.3 4.66 2.44 6.77.79-.06 2.36-.16 3.14-.21-1.09-.26-2.18-.5-3.27-.71-1.08-1.37-1.58-4.07 1.04-3.73 4.37.6 4.38 6.82 1.07 8.88-2.76-.92-5.66-2.42-6.96-5.17-1.98-11.74 4.29-22.57 8.86-32.93 2.22-4.55 1.87-9.69 1.94-14.6-.51-.84-1.02-1.67-1.52-2.51l-.76 2.44c-.29-.28-.88-.82-1.17-1.1-.1 4.25.84 10.55-3.76 12.72.4.68.8 1.36 1.21 2.05.62-.5 1.87-1.48 2.49-1.97-6.34 10.82-11.06 23.19-9.52 35.96 1.67 2.08 4.12 3.57 5.23 6.07.61 1.21 2.13 1.57 3.12 2.4-1.88 2.44-4.73-1.46-6.73-2.2.08-.58.22-1.74.3-2.32-1.31-1.24-2.59-2.51-3.83-3.82-.07-2.38.08-4.75.44-7.1-1.85 1.55-4.24 2.36-6.64 1.76 2.24-.69 4.46-1.41 6.58-2.39.17-1.82.41-3.64.44-5.47-.7 1.84-1.08 4.11-3.23 4.81-4.48 2.47-12.32 2.5-14.28-3.16-2.19-4.6-.78-10.14 2.11-14.09 4.02-5.13 9.31-9.08 15.02-12.14 2.83-1.96 6.46-4.15 6.65-7.96.53.54 1.07 1.07 1.61 1.6-3.93 7.48-13.71 8.72-17.82 16.08-2.27 4.72-4.96 10.03-3.13 15.36 1.77 3.14 6.53 3.56 9.39 1.8 1.88-1.18 1.21-3.99-.88-4.41-2.82-.42-5.2 1.61-5.42 4.4-1.71-.66-3.46-2.27-2.48-4.25 2.7-4.78 11.31-5.23 13.54.16 1.14-6.39 3.55-12.58 6.67-18.25-.46-.44-.93-.89-1.4-1.33-1.34 2.03-3.78 2.76-5.87 3.75-3.74 1.57-7 4-10.21 6.44 4.07-5.86 10.07-9.74 15.52-14.15 2.97-2.14 2.87-6.08 3.07-9.35l-1.65 1.25c1.36-3.94 2.08-8.62-.65-12.18.78 2.61 1.29 5.3 1.08 8.04-2.94-.17-5.72.76-8.52 1.49-5.36.32-11.89-1.41-16.25 2.67-1.32 2.42 1.33 4.5 2.92 5.98 2.26 1.75 3.41-1.92 4.01-3.57-.81-.47-1.61-.96-2.4-1.45.65.79 1.09 1.69 1.31 2.68-1.04 4.26-5.15.27-5.7-2.13 1-2.33 3.65-3.33 6.04-2.92 2.43 1.12 5.56 3.81 3.73 6.73-2.26 4-7.39 4.48-11.41 3.33-2.71-2.7-4.21-7.74-.46-10.34-2.24-2.02-5-3.11-7.95-1.84 2.11-2.85 6.08-3.3 9.11-1.74l-1.54.83c.51.55 1.01 1.1 1.52 1.65 2.73-2.66 6.59-2.5 10.09-2.44 4.59-.64 9.92-1.85 12.15-6.44-.67-.04-2-.11-2.66-.15l.8-1.4m6.98-6c-2.28 1.23-2.04 5.57.78 6.08 1.73.78 4.31-.28 4.44-2.3.74-2.79-2.75-5.37-5.22-3.78z"/>
        <path d="M67.87 36.89c1.57-2.96 5.86-2.96 8.28-1.08 1.38 1.76 1.75 4.12 3.01 5.98 2.76 4.31 7.75 6.49 12.52 7.75-4.37-.14-8.52-1.9-11.9-4.64 1.13 2.44 3.16 4.35 5.52 5.57 4.37 1.73 9.18.73 13.71 1.48 5.76 1.24 8.9 7.81 7.75 13.29-.32 4.36-6.5 4.91-9.47 3.33 2.27 3.46 5.35 6.4 9.68 6.7-1.53.08-2.1 1.45-2.76 2.59-1.82-.07-3.01-.9-3.58-2.49 1.1.22 3.29.67 4.39.89-1.83-2.32-5.7-1.88-8.42-1.56-5.88 1.25-7.93 8.47-5.86 13.5 2.28 4.02 7.85 3.4 11.06.88-2.32-1.52-.36-4.01-.89-6.12-.53-3-2.45-5.56-5.03-7.11 1.26.19 2.51.41 3.76.68 1.72 2.81 2.82 6.46 1.53 9.67.63.5 1.26 1.01 1.89 1.52.26-3.33-.01-6.67-.71-9.93 3.1.64 3.24 4.01 3.61 6.58.66 3.96-1.26 8.79-5.3 10.15-2.81 1.08-6 1.08-8.82.05.11 1.9.17 3.83-.4 5.68-.31-1.96-.18-3.94-.04-5.9-1.06-.73-2.07-1.5-3.06-2.32 2.12 3.15 2.29 7.3.89 10.77-1.05 3.38-5.5 5.1-4.97 9.02l1.46.24c-.22-.59-.66-1.78-.88-2.38.87-1.13 2.22.28 3.26.33.11 2.18-1.26 3.58-3.08 4.48-1.39-.91-3.42-1.51-3.44-3.52-.45-5.31 5.99-7.87 6.05-13-.18-4.87-3.72-8.59-5.91-12.7-4.29-6.07-8.19-12.47-11.1-19.33-.7-4.59.05-9.26-.03-13.89-.09-2.18 1.05-4.09 1.8-6.07-1.4 1.4-2.58 3.11-2.55 5.17-.17 9.3-.76 18.58-1.22 27.86-.07 4.89-.45 10.41 2.78 14.48 1.61 2.25 5.42 3.47 7.55 1.26.13-2.26-2.45-2.36-4.06-2.56.54.27 1.6.79 2.13 1.05-.82.65-1.65 1.29-2.47 1.93-.7-.56-2.09-1.69-2.78-2.26 1.61-3.01 5.45-3.2 7.39-5.56-3.57-.19-6.07 2.28-8.54 4.34-1.19-1.86 1.38-2.52 2.37-3.49 2.05-1.1 5.56-3.03 6.88-.08 3.55.72 6.38 5.51 4.14 8.75-1.13 2.35-2.78 4.6-5.08 5.9-5.82-1.29-9.51-6.99-11.21-12.35-2.5-7.32-1.02-15.05-.56-22.56.33-5.93.92-11.9.17-17.83-.05-4.35-1.4-9.01.54-13.14m2.59.69c-2.08 1.17-1.22 3.67-.5 5.42 1.01.29 2.01.57 3.02.87 1.24-.92 3.18-1.87 2.73-3.75-.12-2.51-3.19-4.3-5.25-2.54m9.1 18.91c3.93 6.67 11.37 9.91 16.59 15.33.98 1.25 2.32 1.78 4.02 1.59-1.21-1.69-2.55-3.28-4.01-4.74l1.28-1.81c-2.34 2.92-2.92-.16-3.86-1.42-3.24-.36-5.38-3.78-8.29-5.23 2.65 1.38 5.14 3.05 7.49 4.88-.26-3.92 1.24-8 5.01-9.72.76.25 1.53.5 2.3.74-1.51 1.98-2.04 4.65-1.09 6.99.12 1.45 2.3 2.59 3.25 1.17 1.86-1.48 1-4.07.9-6.04-2.33-5.27-8.65-4.48-13.23-3.3-3.25.04-6.65.15-9.76-.94-2.37-2.37-3.09-5.64-3.13-8.87-1.28 3.92.54 8.01 2.53 11.37m-5.17 5.95c2.49 8.8 6.85 17.03 11.93 24.57-.26-1.75-.54-3.52-.07-5.27-4.61-6.42-7.54-13.9-10.47-21.21l1.25-.28.08 2.53 1.11-.25c-.71-1.62-1.31-3.31-1.52-5.08-.24-.17-.74-.51-.98-.68.41-1.75-.05-2.87-1.39-3.37.5-1.71.05-3.47-.05-5.21-1.55 4.6-1.17 9.64.11 14.25m3.15.43c2.9 6.02 5.4 12.25 8.83 18 1.01-3.72 4.26-6.16 7.77-7.32-5.45-3.68-11.56-6.36-16.6-10.68zM110.88 50.85l.12-1.68c.03.5.1 1.5.13 2.01 1.35-.81 2.71-1.59 4.09-2.35-.27 2.27-2.79 3.44-4.85 2.91-.26.3-.77.88-1.02 1.18l-2.45.88c-.66-1.11-1.58-2.01-2.63-2.74 2.18-.7 4.42-1.35 6.61-.21m-3.63.31c.23 2.9 2.95-1.36 0 0zM49.23 56.46c.37.31.37.31 0 0z"/>
        <path d="M74.79 57.45c1.27.18 2.22 2.29.99 3.08-.25-.77-.74-2.31-.99-3.08zM52.48 65.66l.37-.32.31.43c-.17-.02-.51-.08-.68-.11zM105.16 78.85c.62-.5 1.24-1 1.86-1.51 1.63 1.44 3.16 2.98 4.52 4.68 1.76 5.58-1.73 10.56-3.25 15.7-1.89-.55-.69-3.43.01-4.67 2.8-4.53 2.21-11.88-3.14-14.2zM28.69 96.53c1.3.47 2.6.95 3.89 1.45.53 3.25 6.46 5.66 3.1 9.07l-.6-2.8c-.7-.8-1.39-1.6-2.08-2.39-.35-.41-1.06-1.22-1.41-1.63l-1.58 1.06c.14-.61.41-1.82.55-2.43l-1.3.97c-.14-.82-.43-2.48-.57-3.3z"/>
    </g>
    <g fill="#181818">
        <path opacity=".09" d="M60.21 36.81c2.69 2.43 2.76 6.12 3 9.47-.92-.84-1.92-1.57-2.99-2.19-.34-1.64-.74-3.26-1.16-4.87.29-.6.87-1.81 1.15-2.41zM29.26 99.83l1.3-.97c-.14.61-.41 1.82-.55 2.43l1.58-1.06c.35.41 1.06 1.22 1.41 1.63l-2.98.28c-.82-.87-1.07-1.64-.76-2.31z"/>
    </g>
    <path fill="#838383" opacity=".51" d="M44.36 42.98l-.15.26-.8 1.4c.66.04 1.99.11 2.66.15-4.31 3.05-9.48 4-14.59 4.68-.02-.16-.05-.48-.07-.65 4.82-.44 9.46-2.47 12.95-5.84z"/>
    <path fill="#202020" opacity=".13" d="M65.1 47.27c3.31.09-1.48 3.03 0 0z"/>
    <path fill="#a5a5a5" opacity=".65" d="M54.38 52.85c.5.84 1.01 1.67 1.52 2.51-.67 1.92-1.21 3.89-1.9 5.81-1.36.58-1.39 1.19-.09 1.84-.26.58-.79 1.75-1.06 2.33l-.37.32c.17.03.51.09.68.11-.19.31-.58.91-.77 1.22-.62.49-1.87 1.47-2.49 1.97-.41-.69-.81-1.37-1.21-2.05 4.6-2.17 3.66-8.47 3.76-12.72.29.28.88.82 1.17 1.1l.76-2.44z"/>
    <path fill="#e3e3e3" opacity=".89" d="M74.13 54.34l.72-.02v1.77l-.69.02c-.01-.45-.02-1.33-.03-1.77z"/>
    <path fill="#7c7c7c" opacity=".49" d="M89.92 54.93c4.58-1.18 10.9-1.97 13.23 3.3-.86.19-2.58.58-3.44.77.37-.65 1.1-1.96 1.46-2.61l-1.08-.28c-.77-.24-1.54-.49-2.3-.74-2.53-.92-5.25-.51-7.87-.44z"/>
    <path fill="#dadada" opacity=".85" d="M53.91 63.01c-1.3-.65-1.27-1.26.09-1.84-.02.46-.06 1.38-.09 1.84z"/>
</svg>
