<svg width="128pt" height="128pt" viewBox="0 0 128 128" xmlns="http://www.w3.org/2000/svg">
    <path fill="#651111" opacity=".73" d="M42.21 20.84c2.04-2.72 4.28-5.29 6.33-7.99-1.89 3.88-3.74 7.78-5.69 11.64-.99 1.97-1.93 3.97-2.83 5.99-1.07 6.73-1.78 13.54-1.12 20.35 2.36-.25 4.72-.52 7.07-.86 3.89 1.19 7.56 3.01 11.04 5.11-.53.57-1.06 1.14-1.58 1.71l.65.88-.7-.02c-1.89-.15-2.17 1.9-2.85 3.22-1.98-.17-3.96-.36-5.93-.57l1.93.04-2.16-1.36 2.43-.53-1.22-.15c1.87-.41 4.33.32 5.79-1.21-.65-1.29-2.14-1.69-3.25-2.43-.45-.26-1.33-.78-1.77-1.04-.45-.29-1.36-.86-1.82-1.15-2.55.08-5.14.25-7.67-.22-2.2-2.41-.98-6.18-1.19-9.18.78-7.47-.12-15.82 4.54-22.23z"/>
    <g fill="#3e0707">
        <path opacity=".65" d="M80.01 13.88c2.62 2.49 5.1 5.17 6.93 8.31-1.22-.62-2.47-1.19-3.69-1.8-1.84-1.64-2.31-4.31-3.24-6.51zM23.75 75.82c8.16-6.44 18.37-9.88 28.56-11.4.28 4.38-3.7 6.42-5.71 9.66-.52 1.65-1.07 3.33-2.13 4.73-.29-.09-.88-.26-1.17-.34-.68-.19-2.03-.56-2.71-.75 1.65-2.12 3.21-4.35 5.15-6.22 1.67-1.49 4.52-1.56 5.3-3.98-9.72-1.22-17.45 5.73-25.45 10.02-.31 7.17-1.6 14.28-1.29 21.48-.2 4.5 1.35 8.96.42 13.43-1.02-2.05-1.68-4.26-2.13-6.5-1.04-5.22-2.74-10.45-2.03-15.84.62-4.79.8-10.02 3.19-14.29z"/>
    </g>
    <path fill="#600d10" opacity=".69" d="M83.25 20.39c1.22.61 2.47 1.18 3.69 1.8 1.22.97 2.03 2.41 2.35 3.93 1.65 8.98 1.59 18.16 1.39 27.27-2.95-.13-5.89-.36-8.82-.69-1.08.5-2.16.98-3.24 1.46.16-.73.48-2.18.64-2.9.63-.62 1.38-1.12 2.07-1.68 2.47.57 4.97.99 7.47 1.36.47-5.16.63-10.41-.53-15.49-.84-5.27-2.82-10.23-5.02-15.06z"/>
    <path fill="#110202" opacity=".37" d="M37.72 28.79c.31-3.15 1.32-6.6 4.49-7.95-4.66 6.41-3.76 14.76-4.54 22.23.21 3-1.01 6.77 1.19 9.18 2.53.47 5.12.3 7.67.22.46.29 1.37.86 1.82 1.15-3.8-.15-7.6-.14-11.4-.02-1.13-8.25-.21-16.6.77-24.81z"/>
    <path fill="#0c0201" opacity=".36" d="M15.95 23.55c.86 1.37 3.2 2.6 2.58 4.45-.15.56-.45 1.69-.61 2.25 2.19 8.38 2.26 17.48 6.62 25.17.18.26.55.8.73 1.07.27.42.79 1.27 1.06 1.7-5.03-3.79-6.08-10.34-6.97-16.16-.83-6.23-3.65-12.11-3.41-18.48z"/>
    <path fill="#0d0202" opacity=".38" d="M40.02 30.48c.9-2.02 1.84-4.02 2.83-5.99-1.93 8.26-3.79 16.66-2.77 25.21 2.41-.28 4.83-.51 7.27-.47l-1.38.74c-2.35.34-4.71.61-7.07.86-.66-6.81.05-13.62 1.12-20.35z"/>
    <path fill="#480a0a" opacity=".68" d="M104.99 39.75c.93-5.49 3.56-10.5 6.64-15.06-.29 3.81-1.3 7.51-2.28 11.19-1.41 5.47-1.54 11.3-3.87 16.51-1.9 3.46-4.2 6.72-6.71 9.75-2.14-.19-4.24-.71-6.34-1.16-3.87-.66-7.81-.82-11.73-.67-.21-.62-.62-1.87-.83-2.5 6.22-.63 12.41.27 18.55 1.14 2.82-6.16 5.31-12.52 6.57-19.2z"/>
    <path fill="#480c0b" opacity=".74" d="M17.92 30.25c.16-.56.46-1.69.61-2.25 1.24 2.5 2.69 4.96 3.44 7.68.65 3.97 1.34 7.97 2.88 11.72.95 2.49 1.84 5.01 2.79 7.5.62 1.51 1.23 3.03 2.09 4.42 5.94-.34 11.85-2.07 17.85-1.02l1.22.15-2.43.53 2.16 1.36-1.93-.04c-5.97-.41-11.84.8-17.71 1.67-.86-1.26-1.74-2.5-2.56-3.78-.27-.43-.79-1.28-1.06-1.7-.18-.27-.55-.81-.73-1.07-4.36-7.69-4.43-16.79-6.62-25.17z"/>
    <path fill="#0b0101" opacity=".36" d="M21.97 35.68c1.77 3.66 2.58 7.68 2.88 11.72-1.54-3.75-2.23-7.75-2.88-11.72z"/>
    <path fill="#150303" opacity=".45" d="M88.27 35.45c1.16 5.08 1 10.33.53 15.49-2.5-.37-5-.79-7.47-1.36 1.88-.17 3.76-.01 5.64-.02 1.75.07 1.13-2.43 1.35-3.52-.04-3.53-.32-7.06-.05-10.59z"/>
    <path fill="#781313" opacity=".72" d="M56.46 49.14c1.18-2.42 2.21-4.91 3.17-7.42-.19 3.14-.44 6.33.35 9.41.5-.57 1.52-1.71 2.02-2.28.66.81 1.31 1.63 1.96 2.44.69-.81 1.38-1.62 2.08-2.43l2.2 2.35c.42-3.17.28-6.36.11-9.53.99 2.45 2.14 4.84 2.92 7.37.11 1.64-1.46 2.82-2.13 4.21.83.53 1.65 1.06 2.48 1.58 2.36-1.55 4.91-2.81 7.64-3.58-.16.72-.48 2.17-.64 2.9-1.24 1.25-2.77 2.17-4.17 3.23 1.81.13 3.62.18 5.42.42.21.63.62 1.88.83 2.5-1.32.2-2.64.37-3.96.54-.51.06-1.54.19-2.06.25 1.04 2.92.14 7.99 3.85 8.98l.53.27.24.39c1.02 2.13 1.8 4.35 2.59 6.57.42-.15 1.27-.46 1.7-.62l-.58.49 1.32 2.84c-2.93 3.01-5.46 6.37-7.79 9.85-.19.33-.57.98-.76 1.31l-.25-.74c-.27.37-.81 1.1-1.08 1.47-.84.99-1.69 1.98-2.56 2.95-.33-.48-.66-.95-.98-1.42-.23-.35-.69-1.06-.92-1.41 1.12-1.09 2.24-2.18 3.3-3.32 1.66-1.34 3.18-2.85 4.69-4.34-.12-.51-.38-1.53-.5-2.04l.68.14c-.26-2.45-.2-5.02-1.15-7.34-1.46-2.21-3.88-3.55-5.52-5.63l-.81-.5 1.7-.91-2.02-.1 2.3-.88c-.61-.14-1.82-.42-2.42-.56l.23-.73-.57 1.15-.72-.65c-1.62-1.5-3.41-2.81-5.17-4.13-1.71 1.26-3.44 2.5-5.1 3.84-6.14 4.43-4.62 12.72-7.51 18.91-1.02-1.55-2.05-3.09-3.09-4.63-1.51 1.4-3.02 2.8-4.53 4.19-.09-1.52-.15-3.05-.18-4.58l.87-1.11c1.06-1.4 1.61-3.08 2.13-4.73 2.01-3.24 5.99-5.28 5.71-9.66.12-1.18.08-2.37.22-3.55.68-1.32.96-3.37 2.85-3.22l.7.02-.65-.88c.52-.57 1.05-1.14 1.58-1.71.61-.66 1.22-1.32 1.84-1.98-.8-1.32-1.6-2.64-2.39-3.96z"/>
    <path fill="#070101" opacity=".34" d="M27.64 54.9c.92 1.12 1.82 2.24 2.73 3.37 6.83-.85 13.71-1.25 20.59-1.24l-.84-2.37c1.11.74 2.6 1.14 3.25 2.43-1.46 1.53-3.92.8-5.79 1.21-6-1.05-11.91.68-17.85 1.02-.86-1.39-1.47-2.91-2.09-4.42z"/>
    <path fill="#47080b" opacity=".74" d="M74.68 61.1c.52-.06 1.55-.19 2.06-.25-.48 1.1-.96 2.2-1.43 3.31 10.21 2.11 20.63 5.05 28.85 11.74 1.28 1.48 1.5 3.53 1.94 5.36.94 5.77 2.17 11.75.77 17.55-1.04 4.3-1.73 8.68-3 12.91l-.95.03c.03-4.94 1.12-9.84.83-14.8.23-6.62-1.11-13.13-1.28-19.72-6.39-3.17-12.14-7.79-19.21-9.4l.03-.49c-1.99.04-3.99.11-5.93.53l.78 1 .53.74-.14.47c-3.71-.99-2.81-6.06-3.85-8.98z"/>
    <path fill="#9a1918" opacity=".91" d="M58.91 66.03c1.66-1.34 3.39-2.58 5.1-3.84 1.76 1.32 3.55 2.63 5.17 4.13.31 1.12.6 2.24.88 3.36l-.87.2.09-.69c-.45-.34-1.36-1.02-1.81-1.36-3.1-.78-6.22-.14-9.15.97.2-.92.39-1.84.59-2.77z"/>
    <path fill="#841312" opacity=".78" d="M51.4 84.94c2.89-6.19 1.37-14.48 7.51-18.91-.2.93-.39 1.85-.59 2.77 2.93-1.11 6.05-1.75 9.15-.97.45.34 1.36 1.02 1.81 1.36l-.09.69.87-.2c-.28-1.12-.57-2.24-.88-3.36l.72.65.57-1.15-.23.73c.6.14 1.81.42 2.42.56l-2.3.88 2.02.1-1.7.91.81.5c1.64 2.08 4.06 3.42 5.52 5.63.95 2.32.89 4.89 1.15 7.34l-.68-.14c.12.51.38 1.53.5 2.04-1.51 1.49-3.03 3-4.69 4.34.92-6.97-7.51-12.6-13.49-8.95-2.73 1.28-4.16 4.02-4.68 6.86l-.74.87 1.64-.1.51 3.98c-2.08-1.82-3.64-4.13-5.13-6.43m4.48-6.14c2.68-1.17 5.24-2.73 8.12-3.36 3.16.82 5.99 2.52 9.06 3.6-.91-5.07-5.07-8.22-9.08-10.91-3.68 2.66-7.92 5.65-8.1 10.67z"/>
    <path fill="#9c1618" opacity=".94" d="M55.88 78.8c.18-5.02 4.42-8.01 8.1-10.67 4.01 2.69 8.17 5.84 9.08 10.91-3.07-1.08-5.9-2.78-9.06-3.6-2.88.63-5.44 2.19-8.12 3.36z"/>
    <path fill="#580d0d" opacity=".73" d="M79.3 70.74c2.06-.7 3.2 1.24 4.37 2.45 3.3 4.01 6.88 7.78 10.6 11.41-1.67 5.62-1.95 11.51-2.46 17.31-.16 2.23-.32 4.45-.55 6.67-1.75 3.29-5.15 5.72-8.52 7.11 3.07-4 5.84-8.33 7.42-13.16 1.78-7.1 2.25-16.16-3.41-21.69-1.2-1.27-2.49-2.45-3.74-3.66l.58-.49c-.43.16-1.28.47-1.7.62-.79-2.22-1.57-4.44-2.59-6.57z"/>
    <g fill="#4d0c0c">
        <path opacity=".78" d="M34.24 83.59c2.47-1.55 4.25-3.89 6.35-5.87.68.19 2.03.56 2.71.75-1.13 1.45-2.32 2.85-3.43 4.31-3.98 4.55-2.65 10.95-2.67 16.47 2.52 1.38-.99 3.38-1.05 1.73-.38-2.6-.18-5.27-.8-7.84-.44-3.17-.76-6.36-1.11-9.55zM36.55 102.97l1.05.08c2.06 4.46 4.71 8.62 7.45 12.69-3.34-2.14-7.63-4.11-8.6-8.37.02-1.1.07-3.3.1-4.4z"/>
    </g>
    <path fill="#921416" opacity=".94" d="M59.8 79.76c5.98-3.65 14.41 1.98 13.49 8.95-1.06 1.14-2.18 2.23-3.3 3.32-1.52-2.49-3.53-5.53-6.96-4.65-2.72-.25-3.27 2.83-4.4 4.6-.52-.15-1.57-.45-2.1-.61l-.51-3.98-1.64.1.74-.87c.52-2.84 1.95-5.58 4.68-6.86z"/>
    <path fill="#5f0d0d" opacity=".69" d="M43.78 84.5c1.51-1.39 3.02-2.79 4.53-4.19 1.04 1.54 2.07 3.08 3.09 4.63 1.49 2.3 3.05 4.61 5.13 6.43.53.16 1.58.46 2.1.61 1.13-1.77 1.68-4.85 4.4-4.6 3.43-.88 5.44 2.16 6.96 4.65.23.35.69 1.06.92 1.41-.24-.06-.71-.17-.95-.22-1.85 1.02-3.7 2.67-5.97 2.38-2.86-.46-5.49-1.75-8.2-2.71 1.56 2.8 3.39 5.74 6.59 6.86 2.18 1.44 4.22-.71 6.06-1.66l.33-.03c1.05-1.05 2.09-2.12 3.12-3.2.87-.97 1.72-1.96 2.56-2.95.27-.37.81-1.1 1.08-1.47l.25.74c.19-.33.57-.98.76-1.31 2.33-3.48 4.86-6.84 7.79-9.85.73 7.29-3.3 14.18-8.17 19.28-2.06 2.31-5.2 2.68-8.07 3.19-1.93.22-2.8 2.28-4.09 3.49-.95-1.09-1.86-2.23-2.95-3.2-2.51-.81-5.41-.58-7.59-2.26-5.25-3.71-7.77-9.9-10.06-15.67l.38-.35m16.11 6.46c1.39.91 2.79 1.82 4.18 2.73 1.72-1.27 5.22-2.24 3.01-4.88-2.64-1.68-5.64-.26-7.19 2.15z"/>
    <path fill="#0d0102" opacity=".42" d="M86.75 80.84c5.66 5.53 5.19 14.59 3.41 21.69-.54-4.18-.03-8.39-.23-12.58-.07-3.31-1.85-6.19-3.18-9.11z"/>
    <path fill="#0d0202" opacity=".4" d="M37.2 99.25c.02-5.52-1.31-11.92 2.67-16.47-2.55 6.06-2.1 12.67-1.5 19.06-.2.3-.58.91-.77 1.21l-1.05-.08c-.03 1.1-.08 3.3-.1 4.4-1.67-7.3-2.67-14.77-2.84-22.26.16-.38.47-1.14.63-1.52.35 3.19.67 6.38 1.11 9.55.62 2.57.42 5.24.8 7.84.06 1.65 3.57-.35 1.05-1.73z"/>
    <path fill="#070101" opacity=".33" d="M94.27 84.6l.31-1.07c0 4.86-1.11 9.61-1.44 14.44-.34 3.57-.34 7.29-1.88 10.61.23-2.22.39-4.44.55-6.67.51-5.8.79-11.69 2.46-17.31z"/>
    <path fill="#8b1213" opacity=".95" d="M59.89 90.96c1.55-2.41 4.55-3.83 7.19-2.15 2.21 2.64-1.29 3.61-3.01 4.88-1.39-.91-2.79-1.82-4.18-2.73z"/>
    <path fill="#770f11" opacity=".91" d="M55.79 92.89c2.71.96 5.34 2.25 8.2 2.71 2.27.29 4.12-1.36 5.97-2.38.24.05.71.16.95.22.32.47.65.94.98 1.42-1.03 1.08-2.07 2.15-3.12 3.2l-.33.03c-1.84.95-3.88 3.1-6.06 1.66-3.2-1.12-5.03-4.06-6.59-6.86z"/>
</svg>
