<svg width="128pt" height="128pt" viewBox="0 0 128 128" xmlns="http://www.w3.org/2000/svg">
    <g fill="#fdfdfd">
        <path d="M39.48 25.03c2.48-3.98 5.71-7.46 8.5-11.24-2.64 5.63-6.12 10.95-7.6 17.06-1.11 5-1.65 10.17-1.21 15.29-.47.14-1.41.43-1.88.57.36-7.24.45-14.63 2.19-21.68zM80.02 13.79c3.42 5.28 9.58 9.48 9.5 16.35.6 4.9.93 9.84 1.18 14.77-.57.69-1.14 1.39-1.71 2.08.17-5.38-.14-10.82-1.36-16.09-1.47-6.13-4.95-11.47-7.61-17.11z"/>
        <path d="M16.25 23.8c1.85 4.4 4.35 8.55 5.7 13.16 1.52 7.93 3.81 15.81 7.86 22.85 7.57-2.2 15.5-1.36 23.25-1.8l.75-1.06c-2.38-1.8-5.02-3.21-7.61-4.69-2.95.49-5.94.3-8.9.42-.13-2.12.28-4.16 1.56-5.88.18.96.56 2.88.74 3.84 1.87.18 3.72-.2 5.43-.95 3.81 1.97 8.19 2.85 11.54 5.65.93-.72 1.86-1.42 2.8-2.11-.87-1.27-1.72-2.54-2.6-3.79 1.17-2.53 2.13-5.14 3.08-7.75-.22 2.53-.73 5.03-1.15 7.53.79.79 1.59 1.58 2.38 2.37.16-.71.5-2.13.67-2.84.74 1.12 1.49 2.25 2.24 3.37.76-1.11 1.53-2.23 2.31-3.33.15.7.45 2.12.6 2.82.8-.8 1.6-1.6 2.41-2.39-.42-2.5-.94-4.98-1.26-7.5 1.06 2.55 1.99 5.16 3.18 7.65-.86 1.28-1.71 2.57-2.57 3.85.91.7 1.82 1.41 2.73 2.12 3.38-2.77 7.76-3.68 11.59-5.65 1.61.68 3.36 1.18 5.13.92.61-1.46 1.18-2.95 2.3-4.11.13 2.07.2 4.14.21 6.22-2.94-.18-5.91.03-8.83-.47-2.53 1.48-5.15 2.85-7.49 4.62l.5 1.15c7.81.41 15.78-.41 23.39 1.8 4.02-7.04 6.32-14.91 7.85-22.83 1.32-4.56 3.82-8.68 5.64-13.06-.67 4.12-1.74 8.15-2.86 12.16-1.42 5.29-1.34 10.97-3.65 16.01-1.9 3.43-4.21 6.63-6.64 9.7-5.44-1.29-10.98-2.29-16.6-2.24-2.4.55-4.76 1.3-7.16 1.85.33 1.17.66 2.34 1 3.51 10.24 1.35 20.08 5.28 28.49 11.28 2.06 6.05 2.75 12.5 2.83 18.87-.99 6.19-2.62 12.25-3.8 18.41-.42-4.87 1.07-9.62 1.02-14.46.18-7.33-1.04-14.59-1.46-21.88-8.32-4.3-16.41-11.64-26.48-9.89.05 3.03 2.96 3.26 5.2 3.93 1.3 1.75 2.74 3.38 4.27 4.93-.56.55-1.12 1.11-1.67 1.67-.58-.63-1.74-1.9-2.31-2.53 4.34 5.76 1.58 13.25-1.88 18.72-2.35 3.88-6.02 8.22-11.03 7.75-2.6-.29-3.73 2.47-4.95 4.22-1.23-1.76-2.37-4.54-4.98-4.21-3.89.42-7.19-2.4-9.36-5.34-3.42-4.79-6.37-10.52-5.72-16.59.65-1.55 1.54-3 2.22-4.54-.58.63-1.75 1.89-2.33 2.52-.55-.57-1.11-1.12-1.67-1.67 1.52-1.55 2.96-3.18 4.26-4.92 2.22-.69 5.23-.92 5.17-3.97-10.02-1.68-18.08 5.58-26.36 9.87-.54 7.3-1.7 14.57-1.54 21.9-.06 4.84 1.45 9.58 1 14.44-1.17-6.14-2.79-12.19-3.78-18.37.08-6.36.77-12.81 2.83-18.86 8.41-6 18.25-9.93 28.49-11.28.34-1.17.67-2.34 1-3.51-2.39-.55-4.73-1.29-7.11-1.84-5.63-.07-11.2.95-16.66 2.23-2.41-3.06-4.71-6.24-6.6-9.65-2.34-5.04-2.25-10.73-3.67-16.03-1.15-4.07-2.19-8.16-2.94-12.32m41.17 46.38c2.14-1.3 4.19-2.83 6.59-3.64 2.39.82 4.43 2.34 6.57 3.65-.69-3.69-3.55-6.05-6.58-7.85-3.03 1.81-5.9 4.15-6.58 7.84m.37 2.63c-1.83 2.11-2.66 4.83-3.52 7.44 3.12-2.03 6.24-4.08 9.72-5.44 3.49 1.36 6.62 3.41 9.74 5.45-.65-1.95-1.25-3.94-2.3-5.73-1.6-2.97-5.07-4.04-7.43-6.29-1.96 1.68-4.24 2.92-6.21 4.57m-2.8 10.1c-1.57.03-2.89-.96-4.3-1.49 1.57 4.8 4.87 8.84 9.09 11.57-.11-1.54-1.5-3.76.19-4.93 2.24-1.86 5.83-1.86 8.06.01 1.7 1.15.28 3.37.2 4.91 4.2-2.77 7.64-6.78 9.03-11.68-1.59.56-3.31 2.37-5.1 1.26-2.64-1.38-5-3.78-8.18-3.74-3.51-.03-5.92 2.91-8.99 4.09m5.98 8c1.42 3.15 6.32 2.6 6.73-.98-1.01-.63-2.02-1.25-3.04-1.87-1.55.44-3.52.87-3.69 2.85m3.05 5.61c-2.75-.93-5.35-2.22-7.91-3.58 1.15 3.9 4.54 5.98 7.89 7.76 3.41-1.73 6.73-3.96 7.89-7.83-2.58 1.3-5.14 2.67-7.87 3.65z"/>
        <path d="M41.18 77.22c.53.55 1.07 1.1 1.61 1.64-2.45 2.88-5.47 5.87-5.48 9.94-.31 6.27-.94 13.07 2.17 18.81 1.57 2.87 3.49 5.53 5.46 8.14-3-2.73-7.77-4.57-8.17-9.17-.77-7.22-1.37-14.47-2.59-21.64 2.27-2.62 4.99-4.86 7-7.72zM85.21 78.86c.54-.54 1.08-1.09 1.61-1.64 1.99 2.9 4.8 5.08 7 7.78-1.22 7.11-1.81 14.29-2.58 21.46-.31 4.68-5.16 6.54-8.19 9.3 3.5-4.73 7.41-9.74 7.71-15.87.17-4.75.52-9.61-.67-14.26-1.08-2.6-3.12-4.63-4.88-6.77z"/>
    </g>
</svg>
