<svg width="128pt" height="128pt" viewBox="0 0 128 128" xmlns="http://www.w3.org/2000/svg">
    <path fill="#501010" opacity=".93" d="M59.26 21.97c4.02-1 8.18-.5 12.27-.45l.05.95c-2.67.03-5.33.01-8 0-8.44.73-14.46 7.64-19.58 13.7-2.91 4.06-3.85 9.02-4.94 13.77-.87 3.97-2.6 7.7-3.37 11.69l.72 2.6c-1.78 1.3-3.6 2.54-5.36 3.85.45-.69 1.34-2.07 1.79-2.76-.7 0-2.1.01-2.8.01.79-2.16 1.99-4.14 3.14-6.13 2.26-3.9 2.23-8.59 3.97-12.69 1.8-3.69 3.58-7.4 5.1-11.22 4.21-5.88 9.99-11.1 17.01-13.32z"/>
    <path fill="#ad2021" d="M44 36.17c5.12-6.06 11.14-12.97 19.58-13.7 1.12.71 2.24 1.41 3.38 2.09 1.28 4.13 2.66 8.81 6.51 11.29 1.47.79 2.96 1.64 4.59 2.06 3.58-.89 4.6-5.05 5.96-8 .27-1.74.49-3.48.63-5.24.8.79 1.56 1.62 2.29 2.48 1.71.19 3.42.39 5.13.59 1.03.34 2.06.71 3.08 1.1 3.14.86 6.47 2.54 7.24 6.04 1.46 3.63 2.51 7.45 2.69 11.38-2.28-2.18-4.48-5.46-8.06-5.12-5.76.2-11.49 1.11-17.27 1.02 2.67-1.45 5.68-2.5 7.99-4.52 2.48-2.81.18-6.46-.82-9.39.06 3 1.88 6.64-.3 9.26-3.02 1.85-6.39 3.04-9.54 4.66.13.47.37 1.43.49 1.91.61.19 1.83.57 2.44.77-.07 1.4-.18 2.96-1.55 3.74-3.72 3-8.77 3.5-12.6 6.36-2.15 1.72-4.18-.8-5.99-1.76-2.02-1.76-4.75-1.6-7.24-1.69-.58-1.17-1.09-2.37-1.68-3.53-1.88-.12-3.76-.02-5.63-.16-.72-3.85-.68-7.78-1.32-11.64z"/>
    <path fill="#ce2726" d="M63.58 22.47c2.67.01 5.33.03 8 0 3.92-.26 7.69.98 11.51 1.57.39.16 1.17.48 1.56.63-.14 1.76-.36 3.5-.63 5.24-4.02-.27-8.04-.4-12.07-.51.53 2.15 1.06 4.29 1.52 6.45-3.85-2.48-5.23-7.16-6.51-11.29-1.14-.68-2.26-1.38-3.38-2.09z"/>
    <g fill="#3c0c0d">
        <path d="M86.92 28.25c1 2.93 3.3 6.58.82 9.39-2.31 2.02-5.32 3.07-7.99 4.52 5.78.09 11.51-.82 17.27-1.02 3.58-.34 5.78 2.94 8.06 5.12-.18-3.93-1.23-7.75-2.69-11.38.06-.7.17-2.1.23-2.79 1.75 4.96 4.05 9.95 2.79 15.35-1.97.73-2.61-1.16-3.39-2.53-.4-.25-1.2-.76-1.6-1.01-3.35-2.54-7.62-1.18-11.43-1.08-3 .43-6.57-.25-8.98 2.03-.61-.2-1.83-.58-2.44-.77-.12-.48-.36-1.44-.49-1.91 3.15-1.62 6.52-2.81 9.54-4.66 2.18-2.62.36-6.26.3-9.26zM35.69 61.63c1.25-.8 2.48-1.63 3.69-2.48.71.95 1.99 1.68 2.04 2.99.39 4.29.31 8.6.43 12.91.19 5.58-1.56 11.01-1.27 16.59-.21.46-.42.92-.62 1.38-.69 1.58-1.97 2.55-3.82 2.92 1.6-8.11 1.24-16.33 1.44-24.54l-1.61-.01c.53-2.34.69-4.77.44-7.16l-.72-2.6zM45.5 80.76c.13-.53.41-1.59.54-2.12.98 1.48 2 2.95 2.93 4.46-2.69 7.22-7.3 13.81-8.22 21.6 3.3-2.72 6.15-6.15 7.6-10.22.87-3.29.85-6.74.91-10.12 1.21 4.42 1.3 9.17-.42 13.47-2 4.33-5.49 7.78-7.87 11.92-2.22-.44-1.67-3.15-1.88-4.79-.06-2.8.36-5.6 1.72-8.07l.63-.99c3.02-4.45 4.89-9.71 4.06-15.14z"/>
    </g>
    <path fill="#410f0e" opacity=".93" d="M71.95 29.4c4.03.11 8.05.24 12.07.51-1.36 2.95-2.38 7.11-5.96 8-1.63-.42-3.12-1.27-4.59-2.06-.46-2.16-.99-4.3-1.52-6.45m2.93 1.52c-1.17 2.28.04 6.02 3.16 5.24 2.68-.03 2.94-3.05 2.95-5.06l-6.11-.18z"/>
    <path fill="#cb2526" d="M74.88 30.92l6.11.18c-.01 2.01-.27 5.03-2.95 5.06-3.12.78-4.33-2.96-3.16-5.24z"/>
    <path fill="#0f0304" opacity=".5" d="M37.15 46.51c.04-4.21 2.31-8.19 5.1-11.22-1.52 3.82-3.3 7.53-5.1 11.22z"/>
    <path fill="#8c1c1b" d="M39.06 49.94c1.09-4.75 2.03-9.71 4.94-13.77.64 3.86.6 7.79 1.32 11.64 1.87.14 3.75.04 5.63.16.59 1.16 1.1 2.36 1.68 3.53 2.49.09 5.22-.07 7.24 1.69 1.81.96 3.84 3.48 5.99 1.76 3.83-2.86 8.88-3.36 12.6-6.36 1.37-.78 1.48-2.34 1.55-3.74 2.41-2.28 5.98-1.6 8.98-2.03 3.81-.1 8.08-1.46 11.43 1.08-1.43.49-2.87.93-4.31 1.37-2.33.21-4.66.51-7 .4-2.98-.42-5.98-.56-8.97-.7 1.35.58 2.7 1.13 4.07 1.67-1.68 1.82-3.64 3.56-4.41 6-1.73 4.92-.72 10.2-.55 15.27-4.32-3.89-6.34-9.47-8.01-14.88-2.02 7.77 1.89 15.01 3.69 22.35-2.63-2.13-4.5-5.02-7.12-7.17-4.79-4.28-9.9-8.83-11.75-15.22.23 7.06 4.97 12.85 5.57 19.82.53 4.72 1.88 9.84-.34 14.32-1.55 3.46-3.84 6.52-6.25 9.41 1.44-7.91 2.28-16.25-.64-23.95-2.46-6.19-4.51-12.53-6.29-18.96-.32 5.77-1.24 11.49-1.41 17.27-.05 2.59-.11 5.2-.66 7.74-.13.53-.41 1.59-.54 2.12-1.13 3.84-2.78 7.5-4.92 10.88-.29-5.58 1.46-11.01 1.27-16.59-.12-4.31-.04-8.62-.43-12.91-.05-1.31-1.33-2.04-2.04-2.99-1.21.85-2.44 1.68-3.69 2.48.77-3.99 2.5-7.72 3.37-11.69z"/>
    <path fill="#420d0d" d="M80.14 44.97c2.99.14 5.99.28 8.97.7l1.03.54c-1.7.23-3.41.38-5.13.46-1.49 2.97-3.67 5.87-3.5 9.37-.28 4.46 1.1 8.77 2.25 13.01 1.44 2.89 2.53 5.99 2.65 9.25-1.02-.96-1.93-2.01-2.8-3.09-2.36.75-3.85-2.34-6.32-2.2l.7 2.16c1 3.06 2.19 6.06 3.36 9.06-.27.68-.82 2.05-1.09 2.73C75.11 82.53 72 76 66.01 72.55c.05 3.21.49 6.53-.51 9.65-1.91 6.49-6.39 11.72-10.53 16.9-.24.27-.73.81-.97 1.08-.62.09-1.86.25-2.48.34.46-5.64 1.63-11.42.09-17-1.03-3.84-1.72-7.78-2.89-11.58-.5-.26-1.51-.78-2.02-1.04.17-5.78 1.09-11.5 1.41-17.27 1.78 6.43 3.83 12.77 6.29 18.96 2.92 7.7 2.08 16.04.64 23.95 2.41-2.89 4.7-5.95 6.25-9.41 2.22-4.48.87-9.6.34-14.32-.6-6.97-5.34-12.76-5.57-19.82 1.85 6.39 6.96 10.94 11.75 15.22 2.62 2.15 4.49 5.04 7.12 7.17-1.8-7.34-5.71-14.58-3.69-22.35 1.67 5.41 3.69 10.99 8.01 14.88-.17-5.07-1.18-10.35.55-15.27.77-2.44 2.73-4.18 4.41-6-1.37-.54-2.72-1.09-4.07-1.67z"/>
    <path fill="#4f1213" d="M31.05 68.08c1.76-1.31 3.58-2.55 5.36-3.85.25 2.39.09 4.82-.44 7.16-.8 5.74-5.63 10-11.33 10.47 0-1.02.01-2.04.03-3.05 1.69-3.77 2.89-8.17 6.38-10.73m-3.99 9.93c5.59-1.24 8.24-7.03 9.01-12.2-3.88 3.28-7.52 7.23-9.01 12.2z"/>
    <g fill="#8c1c18">
        <path d="M27.06 78.01c1.49-4.97 5.13-8.92 9.01-12.2-.77 5.17-3.42 10.96-9.01 12.2zM67.17 88.09c2.63-2.63 2.4-6.5 2.76-9.93.33.45.99 1.34 1.32 1.78 1.52 7.18-1.83 14.29-7.66 18.46-.43-3.86.91-7.53 3.58-10.31z"/>
    </g>
    <path fill="#0d0303" opacity=".42" d="M46.7 70.9c.51.26 1.52.78 2.02 1.04 1.17 3.8 1.86 7.74 2.89 11.58 1.54 5.58.37 11.36-.09 17 .62-.09 1.86-.25 2.48-.34-1.01.72-2.12 1.2-3.34 1.45 0-1.44-.01-2.87-.02-4.31-.45.13-1.35.39-1.8.51 1.72-4.3 1.63-9.05.42-13.47l-.29-1.26c-.93-1.51-1.95-2.98-2.93-4.46.55-2.54.61-5.15.66-7.74z"/>
    <path fill="#120404" opacity=".53" d="M66.01 72.55C72 76 75.11 82.53 80.26 86.96c.27-.68.82-2.05 1.09-2.73.48.67.92 1.36 1.31 2.08.57-.73 1.14-1.46 1.72-2.19 2.74 3.82 1.84 9.37 5.15 12.69-.94-.08-1.88-.22-2.82-.38-.07-3.58-1.13-7.01-2.55-10.26-.4.68-1.19 2.05-1.59 2.73-3.53-.6-5.47-4.03-8.16-6.04-.29 3.69.73 8.64-2.72 11.17 1.66-4.54 2.62-9.88-.44-14.09-.33-.44-.99-1.33-1.32-1.78-.81-.52-1.65-1-2.48-1.49-.09 2.44.04 4.92-.51 7.31-1.35 3.74-4.69 6.42-5.77 10.29-.79 2.67.35 5.37.94 7.96-2.38-1.16-1.89-4.17-2.43-6.33-1.51 1.15-3.08 2.22-4.71 3.2 4.14-5.18 8.62-10.41 10.53-16.9 1-3.12.56-6.44.51-9.65z"/>
    <path fill="#1a0606" opacity=".62" d="M77.99 75.17c1.08.08 2.17.17 3.25.29.73.75 1.39 1.56 1.98 2.42l-.07.39-1.71.15c.96 1.91 1.97 3.79 2.94 5.7-.58.73-1.15 1.46-1.72 2.19-.39-.72-.83-1.41-1.31-2.08-1.17-3-2.36-6-3.36-9.06z"/>
    <path fill="#310c0b" d="M67.45 76.67c.83.49 1.67.97 2.48 1.49-.36 3.43-.13 7.3-2.76 9.93-2.67 2.78-4.01 6.45-3.58 10.31 5.83-4.17 9.18-11.28 7.66-18.46 3.06 4.21 2.1 9.55.44 14.09-1.89 3.04-4.99 5.09-6.74 8.23-.9.19-1.79.38-2.68.57l-.16-.6c-.59-2.59-1.73-5.29-.94-7.96 1.08-3.87 4.42-6.55 5.77-10.29.55-2.39.42-4.87.51-7.31z"/>
    <path fill="#551013" d="M83.15 78.27l.07-.39.65-.12c2.48.39 4.33 2.34 6.2 3.85 2.35 3.12 2.65 7.01 2.16 10.76-3.28-4.88-6.08-10.24-10.79-13.95l1.71-.15z"/>
    <path fill="#2b090b" d="M81.44 78.42c4.71 3.71 7.51 9.07 10.79 13.95l.23.43.06.11c-1.02 1.29-1.96 2.62-2.99 3.9-3.31-3.32-2.41-8.87-5.15-12.69-.97-1.91-1.98-3.79-2.94-5.7z"/>
    <path fill="#160405" opacity=".62" d="M45.5 80.76c.83 5.43-1.04 10.69-4.06 15.14l-1.48-2.88c.2-.46.41-.92.62-1.38 2.14-3.38 3.79-7.04 4.92-10.88z"/>
    <path fill="#110303" opacity=".5" d="M90.07 81.61c4 1.97 4.41 7.64 2.39 11.19l-.23-.43c.49-3.75.19-7.64-2.16-10.76z"/>
    <path fill="#941c1b" d="M40.75 104.7c.92-7.79 5.53-14.38 8.22-21.6l.29 1.26c-.06 3.38-.04 6.83-.91 10.12-1.45 4.07-4.3 7.5-7.6 10.22z"/>
</svg>
