<svg width="128pt" height="128pt" viewBox="0 0 128 128" xmlns="http://www.w3.org/2000/svg">
    <path fill="#fdfdfd" d="M60.58 25.88c5.81-3.98 11.65-8.56 18.7-10-2.91 3.56-6.45 6.54-9.29 10.17 7.8-.29 15.38-2.14 23.02-3.55-.83 4.56-2.44 8.92-3.43 13.43 4.42 2.05 8.52 4.77 13.18 6.29-2.15 2.2-4.1 4.59-6.24 6.8.88 4.16 1.17 8.42 1.98 12.59 1.1 1.82 2.62 3.36 3.9 5.07-1.01 1.21-2.07 2.38-3.2 3.49-.29 7.04.47 14.1-.4 21.12-5.17 5.03-10.54 10.19-17.28 13.05.77-7.03 1.71-14.1.96-21.2-2.72 4.5-5.84 8.74-9.28 12.71.6-3.54-.17-7.24 1.15-10.66 1.96-6 3.1-12.22 4.29-18.41-3.74 3.35-6.58 7.46-9.54 11.46-8.08 4.27-15.68 9.42-23.06 14.81-5.94 4.09-11.44 8.75-16.54 13.83 4.58-8.79 11.57-15.97 18.3-23.13 9.48-9.84 18.86-19.92 29.88-28.08 4.09-2.28 4.79-7.52 5.73-11.65-2.11-3.21-5.07-6.24-8.55-7.84-5.76.57-10.64 4.51-14.5 8.59 2.47-.38 4.9-.97 7.35-1.46-1.95 2.62-4.38 4.82-6.56 7.24-1.56 0-3.51-.59-4.59.93-3.41 3.74-5.77 8.29-8.52 12.5-.8 1.05-2.1 1.54-3.15 2.29.33-4.02.15-8.07-.31-12.07 1.71-1.28 3.31-2.71 4.75-4.3-.21-2.2-.38-4.4-.56-6.59-2.46.84-4.91 1.71-7.36 2.6-1.67 3.21-3.25 6.47-4.82 9.73-.62 1.51.14 3.1.45 4.59-1.44 0-2.88-.01-4.33-.02.67 2.13 3.04 2.5 4.81 3.31-3.18.18-6.38.26-9.53-.33-.06-1.97-.14-3.94-.2-5.91 1.62-3.98 5.67-7.57 4.55-12.19-.43-3.37.09-6.75.57-10.08 4.35-4.15 8.53-8.51 11.69-13.66-.77 2.95-1.69 5.85-2.48 8.79 3.63-2.54 7.51-4.76 11.71-6.21 3.63-.94 4.33-5.1 6.6-7.58-.02 3.18-.05 6.36.15 9.53m-25.3 18.97c1.52-2.5 3.25-5.1 2.7-8.18-2.29 2.12-2.6 5.25-2.7 8.18z"/>
</svg>
