<svg width="128pt" height="128pt" viewBox="0 0 128 128" xmlns="http://www.w3.org/2000/svg">
    <path fill="#fff" d="M28.81 25.8c2.77-3.8 7.65-4.74 11.37-7.29 2.99.39 5.93 1.1 8.89 1.68 5.62.42 9.54 4.92 13.99 7.84 3.39 4.76 5.29 10.49 6.68 16.14.81 4.3.44 8.73 1.16 13.05.87 2.92 2.33 5.64 2.98 8.63-3.9-.29-6.61-3.43-9.75-5.4-5.4 1.09-10.7 2.7-16.21 3.2-1.21-.91-2.6-1.69-3.34-3.08-2.94-4.8-5.88-9.61-8.47-14.62-.58-1.9-2.46-2.3-4.18-2.67-.45.59-.9 1.19-1.35 1.78 1.79-.42 2.74 1.47 3.8 2.51 2.25 2.72 3.68 5.96 5.53 8.94-3.31 1.59-6.86 4.6-5.68 8.73-1.81-.02-3.62.14-5.4.44-.49-1.59-1-3.17-1.54-4.74-2.53-.85-5.03-1.84-7.31-3.24-.88-5.56-1.68-11.19-1.4-16.83 2.47-5.58 6.58-10.23 10.23-15.07m7.47 1.88c6.5-1.62 6.17 7.17 5.51 11.26 4.77-2.33 10.09-3.88 15.43-2.93-5.03 1.32-9.12 5.89-8.1 11.34 1.31 1.34 2.51 2.79 3.59 4.34.36-1.72.79-3.43 1.25-5.13l3.48 3.09c0-1.79.01-3.57.1-5.36 2.34 1.94 3.52 5.05 6.43 6.33-.75 2.49-2.04 4.76-3.92 6.57-2.5-.17-4.99-.41-7.47-.73 3.46 1.32 8.06 3.63 10.9 0 3.72-2.5 2.37-7.31 2.38-11.07.11-4.32-3.64-7.05-6.13-10.07-2.53-.12-5.05-.78-7.58-.42-2.63.25-5.21 1.43-7.87.74-.73-3.16.37-7.81-3.37-9.3-1.71-1.35-3.21.56-4.63 1.34M22.49 47.2l1.94.68c.46-1.37.87-2.76 1.24-4.17 1.76.25 3.51.5 5.27.74-.36-.51-1.07-1.52-1.42-2.03-1.67-.34-3.34-.66-5.02-.96-.65 1.92-1.33 3.83-2.01 5.74z"/>
</svg>
