<svg width="128pt" height="128pt" viewBox="0 0 128 128" xmlns="http://www.w3.org/2000/svg">
    <path fill="#790d0d" opacity=".86" d="M40.53 15.9c4.5 2.65 6.87 7.96 7 13.06-1.59 2.17-3.15 4.35-4.65 6.58l-1.26-.73c-1.89-1.93-3.65-4.01-5.78-5.68 2.05-1.04 3.6-2.77 5.45-4.07.12-3.08-.32-6.13-.76-9.16m-.33 14.37c.48.5.48.5 0 0z"/>
    <path fill="#210304" opacity=".47" d="M91.18 28.15c.55.07 1.65.2 2.2.27l.64 2.36c-.76-.65-1.52-1.31-2.27-1.96-.04 1.63-.11 3.25-.11 4.88-1.71-1.49-.72-3.66-.46-5.55z"/>
    <path fill="#750c0d" opacity=".82" d="M91.75 28.82c.75.65 1.51 1.31 2.27 1.96 1.35 1.17 2.78 2.25 4.25 3.28l.52 2.47c.08 1.72.13 3.44.21 5.17-1.07-.2-2.15-.39-3.22-.57.85 1.31 1.64 2.66 2.46 4-2.32.77-4.65.24-6.86-.6.62-.27 1.87-.79 2.49-1.06-.04-2.05-.85-4.43.75-6.12-.8-1.36-1.83-2.57-2.98-3.65 0-1.63.07-3.25.11-4.88z"/>
    <path fill="#7b0d0d" opacity=".84" d="M26.03 34.86c2.2-2.15 5.11-3.58 7.96-4.66 3.31-.05 4.79 3.54 7.63 4.61l1.26.73c-2.03 1.8-4.22 6.51-7.36 4.54-.2-.12-.61-.36-.81-.47-1.25 1.09-2.5 2.18-3.71 3.31-1.5-1.09-3.11-2.09-4.33-3.5-.39-1.49-.55-3.03-.64-4.56z"/>
    <path fill="#0a0100" opacity=".45" d="M40.2 30.27c.48.5.48.5 0 0z"/>
    <path fill="#5a090b" opacity=".73" d="M25.99 34l.04.86c.09 1.53.25 3.07.64 4.56 1.22 1.41 2.83 2.41 4.33 3.5 1.21-1.13 2.46-2.22 3.71-3.31.2.11.61.35.81.47 1.18 3.41 4.07 6 5.08 9.4-.29 2.98 3.64 5.89.61 8.31.28-.18.83-.56 1.1-.75-1.02 2.14-1.88 4.36-2.64 6.6-3.17.13-5.61-2.3-8.75-2.37-6.7-7.19-7.64-18.17-4.93-27.27m2.3 17.37c2.57-2.01 6.81-1.74 8.06-5.21-2.76 1.7-6.68 1.83-8.06 5.21z"/>
    <path fill="#530908" opacity=".66" d="M98.79 36.53l1.2-1.02c.36 2.32.63 4.66.91 7l-1.01 1.01c1.49 4.07.54 8.64-.71 12.66-.91-.97-1.68-2.03-2.3-3.18-.05-1.8-.07-3.6-.11-5.39-2.36-.35-4.78-.75-6.67-2.34.32-.19.96-.56 1.28-.74 2.21.84 4.54 1.37 6.86.6-.82-1.34-1.61-2.69-2.46-4 1.07.18 2.15.37 3.22.57-.08-1.73-.13-3.45-.21-5.17z"/>
    <path fill="#1b0303" opacity=".51" d="M58.47 39.32c.37-.17 1.12-.51 1.5-.68.16.73.49 2.18.65 2.9 4.2-3.21 9.58.21 12.33 3.73l-1.05-.65c-2.53-1.35-4.93-3.27-7.81-3.75-3.16 1.2-5.45 4.28-6.99 7.19-.05 6.33 4.97 10.53 9.51 14.08 2.46 2.11 5.81 2.85 8.04 5.26 1.71 1.7 4.28 1.77 6.43 2.57-1.68-.13-3.37-.13-5.05-.14-1.61 1.7-3.27 3.35-4.97 4.95.47 2.6 1.01 5.19 1.71 7.74l-1.23-.9c-.44-2.13-.79-4.28-1.32-6.39-1.5-1.79-3.03-3.55-4.43-5.4 1.98.93 3.91 1.97 5.81 3.06.94-1.34 3.09-2.59 2.1-4.48-.49-1.58-2.43-1.73-3.67-2.43-2.37-.79-3.98-2.8-5.77-4.41.15 2.24.29 4.49.37 6.73-.99-3-1.39-6.19-2.64-9.09-1.29-1.48-3.31-2.07-4.63-3.51-1.88-3.55-2.68-7.53-3.96-11.3l-.05-.14 2.36.48c-.1-1.19-.19-2.38-.28-3.57.72 1.57 1.43 3.14 2.14 4.71.63-2.12 3.35-4.69.9-6.56z"/>
    <path fill="#62080b" opacity=".82" d="M55.43 41.17c.76-.46 2.28-1.39 3.04-1.85 2.45 1.87-.27 4.44-.9 6.56-.71-1.57-1.42-3.14-2.14-4.71z"/>
    <path fill="#7e0e0e" opacity=".88" d="M57.1 48.06c1.54-2.91 3.83-5.99 6.99-7.19 2.88.48 5.28 2.4 7.81 3.75-.09.46-.28 1.38-.38 1.84l.24.13c-.08 2.07-.18 4.15-.06 6.23l.85-.47c.21 1.89-.32 3.74-.36 5.62l.86.43-1.19.75.98.31c-.32 1.07-.65 2.14-.98 3.22-.74-.77-1.49-1.54-2.23-2.31-1.01.59-2.01 1.18-3.02 1.77-4.54-3.55-9.56-7.75-9.51-14.08z"/>
    <path fill="#740d0d" opacity=".83" d="M53.4 44.4c1.28 3.77 2.08 7.75 3.96 11.3 1.32 1.44 3.34 2.03 4.63 3.51 1.25 2.9 1.65 6.09 2.64 9.09-.08-2.24-.22-4.49-.37-6.73 1.79 1.61 3.4 3.62 5.77 4.41 1.24.7 3.18.85 3.67 2.43.99 1.89-1.16 3.14-2.1 4.48-1.9-1.09-3.83-2.13-5.81-3.06 1.4 1.85 2.93 3.61 4.43 5.4-1.93 1.32-3.76 4.02-6.43 3.1-2.42-.57-3.79-2.82-5.34-4.55-2.37-3.15-5.8-6.7-10.16-5.11 1.18-.46 2.37-.87 3.56-1.3-1.37-.36-2.73-.72-4.09-1.08-.58-1.52-1.14-3.05-1.71-4.57.35-1.18.71-2.35 1.06-3.52l-1.8.36c-1.01-.49-1.99-1.02-3-1.52-.27.19-.82.57-1.1.75 3.03-2.42-.9-5.33-.61-8.31 2.88.71 6.32 1.66 8.97-.22 1.25-1.64 2.45-3.32 3.83-4.86z"/>
    <path fill="#6e0c0d" opacity=".83" d="M71.9 44.62l1.05.65c2.36 1.4 3.38 4.05 4.73 6.29.42.68.93 1.31 1.42 1.95.05 2.35.05 4.72.59 7.03.4.75 1.22 2.27 1.63 3.02-.4 1.12-.82 2.23-1.27 3.33l-.22-1.02c-.7.65-1.39 1.31-2.07 1.97-1.04-.15-2.07-.3-3.11-.44-2.23-2.41-5.58-3.15-8.04-5.26 1.01-.59 2.01-1.18 3.02-1.77.74.77 1.49 1.54 2.23 2.31.33-1.08.66-2.15.98-3.22l-.98-.31 1.19-.75-.86-.43c.04-1.88.57-3.73.36-5.62l-.85.47c-.12-2.08-.02-4.16.06-6.23l-.24-.13c.1-.46.29-1.38.38-1.84z"/>
    <path fill="#6e0c0c" opacity=".82" d="M89.38 44.79l.72.48c1.89 1.59 4.31 1.99 6.67 2.34.04 1.79.06 3.59.11 5.39-.83-.34-1.68-.55-2.56-.64.36.29 1.08.86 1.43 1.14-.33 1.71.04 4.35-2.08 5.02-1.57-.35-2.81-1.51-4.14-2.34-1.93-2.14-4-4.15-5.7-6.48l.63-1.8c.9.66 1.8 1.32 2.7 1.99 1.09-1.54 2.48-3.05 2.22-5.1z"/>
    <path fill="#230404" opacity=".54" d="M28.29 51.37c1.38-3.38 5.3-3.51 8.06-5.21-1.25 3.47-5.49 3.2-8.06 5.21z"/>
    <path fill="#6a0a0d" opacity=".84" d="M78.05 49.18c1.93.17 3.86.34 5.78.52 1.7 2.33 3.77 4.34 5.7 6.48.57 1.29 1.11 2.59 1.63 3.9-1.92.81-3.78 2-5.87 2.28-1.9-.52-3.75-1.19-5.6-1.82-.54-2.31-.54-4.68-.59-7.03-.49-.64-1-1.27-1.42-1.95l.77-.06-.4-2.32z"/>
    <path fill="#470708" opacity=".69" d="M95.75 53.5c.15.46.43 1.39.57 1.85l1.45.11c2.27 2.47-.75 5.81-1.83 8.28l-.56.09c-3.61.89-8.3.49-10.75 3.76-.26-1-.5-2.01-.69-3.02 2.69-.76 5.35-1.6 7.95-2.64-.18-.46-.55-1.39-.73-1.85-.52-1.31-1.06-2.61-1.63-3.9 1.33.83 2.57 1.99 4.14 2.34 2.12-.67 1.75-3.31 2.08-5.02z"/>
    <path fill="#5b080b" opacity=".74" d="M42.31 57.04c1.01.5 1.99 1.03 3 1.52-.56 1.56-1.13 3.11-1.67 4.68.6-.38 1.81-1.14 2.41-1.52.57 1.52 1.13 3.05 1.71 4.57 1.36.36 2.72.72 4.09 1.08-1.19.43-2.38.84-3.56 1.3-1.31 1.01-2.51 2.15-3.8 3.18-.54.39-1.08.77-1.62 1.14-.44-1.89-.88-3.78-1.33-5.66.26-.29.78-.87 1.04-1.15-.94-.89-1.9-1.75-2.91-2.54.76-2.24 1.62-4.46 2.64-6.6z"/>
    <path fill="#280404" opacity=".59" d="M45.31 58.56l1.8-.36c-.35 1.17-.71 2.34-1.06 3.52-.6.38-1.81 1.14-2.41 1.52.54-1.57 1.11-3.12 1.67-4.68z"/>
    <path fill="#5e0b0b" opacity=".71" d="M91.16 60.08c.18.46.55 1.39.73 1.85-2.6 1.04-5.26 1.88-7.95 2.64.19 1.01.43 2.02.69 3.02.46.38 1.37 1.14 1.82 1.52l1.52 2.6c-.07 2.66-.73 5.22-2.36 7.35-.27-3.09-.35-6.66-3.38-8.41-.29-.17-.86-.51-1.15-.68-2.15-.8-4.72-.87-6.43-2.57 1.04.14 2.07.29 3.11.44.68-.66 1.37-1.32 2.07-1.97l.22 1.02c.45-1.1.87-2.21 1.27-3.33-.41-.75-1.23-2.27-1.63-3.02 1.85.63 3.7 1.3 5.6 1.82 2.09-.28 3.95-1.47 5.87-2.28z"/>
    <path fill="#080101" opacity=".36" d="M84.63 67.59c2.45-3.27 7.14-2.87 10.75-3.76-2.64 2.54-8.41.73-8.93 5.28-.45-.38-1.36-1.14-1.82-1.52z"/>
    <path fill="#530909" opacity=".62" d="M39.2 73.06c-.19-2.22.94-4.13 2.34-5.73.45 1.88.89 3.77 1.33 5.66.54-.37 1.08-.75 1.62-1.14.01 3.25-1.06 7.36 1.94 9.68 2.23 2.16 5.49 1.9 8.34 1.76-2.11 1.75-1.58 4.57-1.4 6.97-.02.37-.07 1.1-.09 1.46.44 1.3 1.12 2.49 1.98 3.55.5-1.8.96-3.61 1.42-5.42.42 3.96.29 7.95.58 11.92-1.4-.24-3.09.2-4.28-.71-.99-2.16-1.61-4.46-2.5-6.65.47-.98.95-1.96 1.43-2.93-3.97-1.78-8.59-5.27-12.91-2.45.49-1.54 1.51-2.81 2.64-3.93.18-4.21-2.89-7.78-2.44-12.04z"/>
    <path fill="#3d0607" opacity=".55" d="M82.23 70.65c3.03 1.75 3.11 5.32 3.38 8.41 1.63-2.13 2.29-4.69 2.36-7.35l.6-.82c1.75 5.34-1.88 10.22-3.6 15.05.91 1 1.84 1.98 2.76 2.99-.95 3.02-2.28 5.99-4.77 8.06l-4.13-.84c-1.1 1.15-2.11 2.39-3.05 3.68-.49-.94-.97-1.89-1.43-2.84 1.12-2.63 1.94-5.37 2.45-8.18.3.04.9.11 1.2.15l-.42-1.58 1.3 1.45-.37-1.19c1.27-.12 2.54-.21 3.81-.24.16-1.09.31-2.19.46-3.28-2.96.58-6.58 2.07-8.86-.73 2.4.53 4.86.36 7.29.12 2.89-3.71 3.38-8.74 1.02-12.86z"/>
    <path fill="#610a0a" opacity=".69" d="M58.45 73.78c1.55 1.73 2.92 3.98 5.34 4.55 2.67.92 4.5-1.78 6.43-3.1.53 2.11.88 4.26 1.32 6.39-.63 5.56-.94 11.56 2.37 16.42-.87 2.03-1.63 4.1-2.52 6.11-.27.56-.81 1.66-1.08 2.21-.65.18-1.96.53-2.62.7-.06-.57-.19-1.71-.25-2.28-.46.74-.92 1.47-1.38 2.21-.83-.18-2.47-.53-3.29-.7-.39 2.39-1.98.81-3.24.06l.87-1.26-1.02.81c-.68-1.39-1.42-2.75-2.12-4.13-.29-3.97-.16-7.96-.58-11.92-.46 1.81-.92 3.62-1.42 5.42-.86-1.06-1.54-2.25-1.98-3.55.02-.36.07-1.09.09-1.46-.18-2.4-.71-5.22 1.4-6.97 2.79-2.4 4.36-5.78 3.68-9.51m2.03 18.33l-2.2 1.16c1.76 3.26 4.1 6.18 5.48 9.64.1-2.06-.22-4.1-1.24-5.91.24-.74.74-2.23.98-2.97-.56-1.45-1.18-2.93-2.41-3.95-.15.51-.46 1.52-.61 2.03m6.26 3.64c-.01 2.49.17 4.97.49 7.44.76-1.8 2.34-3.7 2.03-5.66 1.18-1.97 1.3-4.21.19-6.24-1.97-.19-3.71 2.73-2.71 4.46z"/>
    <path fill="#4b0809" opacity=".62" d="M71.54 81.62l1.23.9 1.15.87c2.28 2.8 5.9 1.31 8.86.73-.15 1.09-.3 2.19-.46 3.28-1.27.03-2.54.12-3.81.24l.37 1.19-1.3-1.45.42 1.58c-.3-.04-.9-.11-1.2-.15-.51 2.81-1.33 5.55-2.45 8.18l-.44 1.05c-3.31-4.86-3-10.86-2.37-16.42z"/>
    <path fill="#3f0608" opacity=".55" d="M39 89.03c4.32-2.82 8.94.67 12.91 2.45-.48.97-.96 1.95-1.43 2.93l-1.15.26c-1.8.34-3.56 1.06-5.41.95-2.25-1.67-3.49-4.25-4.92-6.59z"/>
    <path opacity=".2" d="M60.48 92.11c.15-.51.46-1.52.61-2.03 1.23 1.02 1.85 2.5 2.41 3.95-.24.74-.74 2.23-.98 2.97 1.02 1.81 1.34 3.85 1.24 5.91-1.38-3.46-3.72-6.38-5.48-9.64l2.2-1.16z"/>
    <path fill="#090101" opacity=".31" d="M66.74 95.75c-1-1.73.74-4.65 2.71-4.46 1.11 2.03.99 4.27-.19 6.24-.63-.45-1.89-1.33-2.52-1.78z"/>
    <path fill="#3e0607" opacity=".71" d="M49.33 94.67l1.15-.26c.89 2.19 1.51 4.49 2.5 6.65 1.19.91 2.88.47 4.28.71.7 1.38 1.44 2.74 2.12 4.13l1.02-.81-.87 1.26c-.94 1.48.66 3.16 1.07 4.62-3.27-.25-5.23-3-7.24-5.25-2.82-3.1-1.1-7.97-4.03-11.05z"/>
    <path fill="#120201" opacity=".49" d="M66.74 95.75c.63.45 1.89 1.33 2.52 1.78.31 1.96-1.27 3.86-2.03 5.66-.32-2.47-.5-4.95-.49-7.44z"/>
    <path fill="#420607" opacity=".73" d="M73.91 98.04l.44-1.05c.46.95.94 1.9 1.43 2.84.56 1.1 1.2 2.15 1.91 3.16-1.76 2.88-3.27 6.03-6.04 8.1.01-2.31 0-4.63-.26-6.94.89-2.01 1.65-4.08 2.52-6.11z"/>
</svg>
