<svg width="128pt" height="128pt" viewBox="0 0 128 128" xmlns="http://www.w3.org/2000/svg">
    <g fill="#fdfdfd">
        <path d="M40.57 15.6c3.47 3.28 6.45 7.45 6.75 12.38-2.27 5.13-6.22 9.4-10.37 13.11-2.31-1.96-3.75-4.56-4.73-7.4.06 1.69.46 3.34.94 4.95 1.59 1.58 2.8 3.46 4.1 5.27-.31.68-.61 1.35-.9 2.04-.93.67-1.85 1.36-2.77 2.05-2.82-.27-4.37 2.1-5.75 4.15 1.91-1.39 3.64-3.32 6.2-3.17 1.35-1.24 2.73-2.46 3.85-3.91.95 1.52 1.97 2.99 3.07 4.4-1.14.66-2.28 1.31-3.42 1.93-2.42 1.44-6.98 1.15-7.47 4.49l-.61 3.42c-2.59-3.67-3.7-8.07-4.5-12.41 2.39-2.8 6.05-1.69 9.2-2.39-3.19-.53-7.02-1.74-9.43 1.25.1-3.61.48-7.24 1.44-10.73 2.25-2.1 5.2-3.45 7.93-4.86 2.85 1.1 5.46 3.09 6.64 5.99.22-1.8.98-3.61.53-5.44-1.04-1.11-2.43-1.79-3.66-2.66 1.18-.9 2.42-1.71 3.73-2.42.26-3.37.23-6.79-.77-10.04z"/>
        <path d="M36.37 28.96c1.74-.37 3.75 1.42 4.26 3.04l-.3.43c-1.35-.89-3.47-1.9-3.96-3.47zM91.8 27.84c1.44 2.91 4 4.89 6.6 6.71-.58.9-1.16 1.78-1.75 2.66.69-.48 2.08-1.44 2.77-1.92.47 2.71.89 5.42 1.3 8.14-1.77-.92-3.59-1.77-5.55-2.19 1.64 1.26 4.08 1.68 5.06 3.66.25 3.63-.56 7.21-1.01 10.79-1.63-1.38-3.1-3.12-5.25-3.68 1.78 1.71 3.6 3.44 4.54 5.78-1 1.92-1.93 3.87-2.9 5.8-3.7.68-7.31 1.74-10.94 2.71-1.8-.24-1.84-2.46-2.24-3.82-2.12-4.15-2.43-8.9-4.59-13.06 1.12.08 3.36.25 4.48.33 2.33 2.61 4.32 5.59 7.35 7.47 1.81 1.04 2.03 3.29 2.98 4.97-.17-1.41-.3-2.82-.71-4.18-2.26-2.07-5.23-3.4-6.82-6.15-.35-1.03-2.53-2.85-.5-3.44 2.07 1.54 4.3 2.9 6.85 3.45-1.36-.95-2.78-1.85-4.2-2.72 1.99-.83 2.71-2.27 2.16-4.3 2.51 2.14 5.84 2.35 8.98 2-2.34-.99-5.43-.57-7.08-2.8 1.98.48 4.71-.72 2.3-2.6 2.13-.78.81-2.17.06-3.38h2.22c-.99-.95-1.84-2.02-2.52-3.2-2.68-1.57-1.98-4.44-1.59-7.03zM40.33 32.43c.6.72.6.72 0 0zM40.88 49.79c3.12 1.19 6.46.89 9.54-.26.39 4.38-3.09 7.85-5.71 10.95-.7 1.81-1.03 3.74-1.57 5.59-2.22-1.3-4.43-3.03-3.08-5.84 3.06-2.15 4.71-5.62 6.93-8.53-3.09 2.23-4.75 5.91-8.01 7.97-.18 1.34-.41 2.67-.69 3.99-2.52-1.75-5.55-2.26-8.36-3.34.29-.73.87-2.19 1.16-2.93.29-.73.57-1.45.86-2.18 2.52-1.02 5.18-1.94 7.18-3.85.44-.39 1.31-1.18 1.75-1.57z"/>
    </g>
    <path fill="#666" opacity=".4" d="M30.07 55.89c.49-3.34 5.05-3.05 7.47-4.49l1.59-.04c-2 1.91-4.66 2.83-7.18 3.85-.29.73-.57 1.45-.86 2.18-.26-.37-.77-1.12-1.02-1.5z"/>
</svg>
