<svg width="128pt" height="128pt" viewBox="0 0 128 128" xmlns="http://www.w3.org/2000/svg">
    <path fill="#fdfdfd" d="M57.26 44.43c1.06-2.3.3-4.91 1.09-7.27 3.08 6.89-.19 13.96-1.02 20.93 1.21.8 2.46 1.55 3.68 2.33 1.34-1.61 2.64-3.25 3.84-4.97 1.02 2.05 2.69 4.09 5.26 3.78l.51-.34c-1.47-6.64-.63-13.42-.21-20.13.69 3.15.82 6.48 2.31 9.41 2.39 5.97 6.01 12.12 4.14 18.79.04 3.05-2.5 4.95-4.64 6.66-.26 2.67-.35 5.34-.46 8.01-.77.29-2.31.85-3.08 1.14 1.51 1.24 3.77 2.03 4.31 4.13.58 2.2.63 4.49.78 6.74-.57-.39-1.7-1.19-2.26-1.59-1.14 2.89 2.17 5.38 1.04 8.35-1.49 3.86-4.51 6.83-6.55 10.38-1.59-.41-3.31-.49-4.54.76-1.08-1.72-3-.85-4.62-.71.59-.94 1.17-1.88 1.75-2.82-1.51-3.52-3.9-8.05-1-11.51.73 2.55 1.78 4.99 2.48 7.55 2.85.91 1.93-3.45 2.79-5.17.72 2.27 1.26 4.67 2.75 6.59.73-2.22 1.46-4.44 2.14-6.68.55 1.3 1.13 2.59 1.77 3.84.54-2.1 2.66-4.21 1.25-6.42-.44-.6-1.34-1.81-1.79-2.42-.78 1.24-1.55 2.5-2.29 3.77-1.89-.47-3.82-.61-5.72-.15-.63-1.76-1.45-3.44-2.41-5.03-.44.66-1.3 1.99-1.73 2.66-1.76-2.69-1.17-6.02-1.09-9.05-.18-1.86 1.56-2.84 2.67-4-1.04-.31-2.09-.63-3.14-.94-.16-2.29-.26-4.6-.55-6.88-.8-2.88-2.72-5.29-3.71-8.11l-3.85-.24c1.79-2.07 1.79-4.56 1.03-7.05 2.72-5.1 2.77-11.07 5.82-16.03.19 2.09.58 4.17.58 6.28-.6 3.76-4.15 7.13-2.87 11.13 1.43-5.38 3.67-10.49 5.54-15.72m.13 15.13c.67 3.93 1.26 7.87 1.94 11.8-.46.68-.92 1.36-1.38 2.05 1.23 1.23 2.44 2.49 3.67 3.72.18.83.52 2.49.7 3.32l3.8-.15.04-3.51c1.01-1.07 2.01-2.16 3-3.25-.58-.94-1.17-1.87-1.75-2.8 2.31-2.55 5.05-7.01 2.69-9.97-.33 3.39-.67 6.78-3.23 9.36-1.86-2-1.86-4.7-1.78-7.25-.54-.07-1.63-.22-2.17-.29-.18 2.91.33 6.31-2.39 8.29-.52-3.59-2.32-7.49-1.3-11l-1.84-.32m.57 30c2.03 1.45 3.96 3.05 5.31 5.19 2.28-1.29 4.24-3.09 6.53-4.38-.26-.2-.77-.6-1.03-.8-1.61.47-3.18 1.45-4.91 1.26-1.96-.48-3.83-1.45-5.9-1.27z"/>
</svg>
