<svg width="128pt" height="128pt" viewBox="0 0 128 128" xmlns="http://www.w3.org/2000/svg">
    <path fill="#810e0e" opacity=".86" d="M35.14 18.06c.84-1.05 1.84-1.97 2.78-2.93 5.2 3.23 10.48 6.4 16.23 8.59 3.44 1.11 4.64 4.91 6.83 7.45-2.1-3.57-3.34-7.73-1.15-11.62.7 3.73 1.5 7.45 2.71 11.06.14.48.42 1.44.57 1.92.46-.14 1.4-.42 1.87-.55-.19 4.31.23 8.6 1.09 12.82-.45-.09-1.37-.28-1.82-.38l-.96 3.74-.65-1.39c-.72 1.14-1.43 2.27-2.13 3.41-1.22-2.48-2.09-5.1-3.12-7.66-2.46-6.06-5.83-11.85-10.21-16.74-3-2.48-7.68-4.34-11.38-2.34-4.02 1.92-7.52 4.7-11.39 6.85 1.26-2.22 2.46-4.67 4.64-6.14.94-.45 1.63-1.16 2.05-2.11.5-.8 1.15-1.45 1.94-1.95.93-.43 1.63-1.11 2.1-2.03z"/>
    <path fill="#100101" opacity=".38" d="M33.04 20.09c-.38-1.78.33-2.45 2.1-2.03-.47.92-1.17 1.6-2.1 2.03z"/>
    <path fill="#120202" opacity=".42" d="M29.05 24.15c-.42-1.74.27-2.45 2.05-2.11-.42.95-1.11 1.66-2.05 2.11z"/>
    <path fill="#1d0303" opacity=".49" d="M35.8 23.44c3.7-2 8.38-.14 11.38 2.34 4.38 4.89 7.75 10.68 10.21 16.74-.23.55-.68 1.64-.91 2.19-6.5-5.83-12.8-13.06-21.95-14.34-.68.55-1.35 1.09-2.02 1.64.05-.67.14-2 .19-2.66 4.77.23 9.09 2.37 13.14 4.72-.13-.84-.4-2.51-.54-3.34 2.23 4.18 5.56 7.56 9.45 10.23-2.16-5.13-4.61-10.24-8.35-14.42-1.39-1.72-3.79-1.94-5.7-2.78l1.2 2.07c-.97-.81-1.91-1.65-2.85-2.5-1.08.04-2.17.07-3.25.11z"/>
    <path fill="#850e0e" opacity=".9" d="M40.7 23.76c1.91.84 4.31 1.06 5.7 2.78 3.74 4.18 6.19 9.29 8.35 14.42-3.89-2.67-7.22-6.05-9.45-10.23-1.08-1.67-2.35-3.21-3.4-4.9l-1.2-2.07z"/>
    <path fill="#7f0d0d" opacity=".86" d="M34.53 30.37c9.15 1.28 15.45 8.51 21.95 14.34 1.11 1.95 2.06 3.98 3.06 5.98-.98-.51-1.95-1-2.94-1.49 1.22 4.66 5.7 9.52 2.45 14.29-3.39-2.37-6.29-5.34-8.47-8.86.68 2.04.53 4.77 2.54 6.09 3.74 2.99 9.34 5.59 8.9 11.27.32 2.18.92 4.3 1.4 6.44-.7-.69-1.4-1.37-2.1-2.05-.21-2.25-.35-4.51-.74-6.73-.92-.94-1.88-1.86-2.89-2.69-2.3-3.01-6.12-1.93-9.31-1.6 1.45-.79 2.87-1.64 4.29-2.48-2.07.14-4.75-.4-5.31 2.28-.35-.85-.7-1.71-1.06-2.56-.42 2.83-1.01 5.63-1.96 8.33 1.56 2.15 3.32 4.13 5.14 6.06.75.92 1.48 1.85 2.22 2.78-.79.18-2.37.55-3.16.74-1.54-2.46-3.17-4.87-4.89-7.21-4.1-3.85-1.56-9.63-2.39-14.49 2.44 2.53 1.45 6.23 1.9 9.38 1.94-2.2 2.73-5.3 1.87-8.13-1.64-3.55-5.35-5.46-8.12-8.06-1.26-1.45-3.15-.31-4.67-.05-.21-3.09-.26-6.46 2.35-8.67 2.35 2.09 4.89 3.95 7.42 5.8-.74-3.91-5.12-5.34-8.11-7.26-.46-.26-1.4-.77-1.86-1.02.49-.63 1.49-1.88 1.99-2.5 4.33 1.97 8.43 4.49 11.68 8.02 1.97 2.28 4.88 3.17 7.45 4.54 1.94 3.24 2.77 7.07 5.02 10.16-.75-3.76-2.04-7.37-3.33-10.97-6.63-1.55-10.25-7.78-15.91-11.04-.33-.23-1-.71-1.34-.95-2.91-2.22-5.67.3-7.65 2.42-1.08 1.41-1.95 2.98-3.13 4.31-.49.39-1.47 1.17-1.95 1.56.37-3.28 1.04-6.51 1.71-9.73.34-.13 1.02-.38 1.36-.51 1-.33 1.72-1 2.17-1.99.74-.77 1.54-1.47 2.4-2.11.67-.55 1.34-1.09 2.02-1.64m5.09 18.17c1.67 4.09 4.34 7.8 7.53 10.84-1.42-4.2-3.67-8.43-7.53-10.84z"/>
    <path fill="#1a0203" opacity=".47" d="M62.54 30.61l3.74-.44c-.33 3.13-.71 6.29-.1 9.41 4.81.22 10.71.48 13.86 4.68-4.03-2.46-8.63-3.77-13.34-3.93-.23 3.8 3.04 8.44-.54 11.42-.01-2.32.05-4.64-.09-6.95-.86-4.22-1.28-8.51-1.09-12.82-.47.13-1.41.41-1.87.55-.15-.48-.43-1.44-.57-1.92z"/>
    <path fill="#110202" opacity=".42" d="M27.94 36.11c-.28-1.73.44-2.4 2.17-1.99-.45.99-1.17 1.66-2.17 1.99z"/>
    <g fill="#470808">
        <path opacity=".69" d="M23.76 48.05c.31-3.92.82-7.97 2.82-11.43-.67 3.22-1.34 6.45-1.71 9.73.48-.39 1.46-1.17 1.95-1.56-.52 1.91-1.22 3.76-2 5.57-.83-.57-1.18-1.34-1.06-2.31zM39.31 54.62c2.09 1.6 4.05 3.39 5.72 5.44.86 2.83.07 5.93-1.87 8.13-.45-3.15.54-6.85-1.9-9.38-.49-1.04-1.46-3.14-1.95-4.19zM55.05 66.71c.66.06 1.98.19 2.64.25 1.01.83 1.97 1.75 2.89 2.69-.03 1.59-.05 3.18-.07 4.77l-2.22 2.04c-2.11-.58-4.95-.44-5.89-2.95l4.78-.08c-.46-1.57-.94-3.14-1.39-4.71.02-.19.05-.56.07-.75l-.81-1.26z"/>
    </g>
    <path fill="#280404" opacity=".58" d="M29.95 40.48c1.98-2.12 4.74-4.64 7.65-2.42.34.24 1.01.72 1.34.95 5.66 3.26 9.28 9.49 15.91 11.04 1.29 3.6 2.58 7.21 3.33 10.97-2.25-3.09-3.08-6.92-5.02-10.16-2.57-1.37-5.48-2.26-7.45-4.54-3.25-3.53-7.35-6.05-11.68-8.02-.5.62-1.5 1.87-1.99 2.5-.53-.08-1.57-.24-2.09-.32z"/>
    <path fill="#7b0c0c" opacity=".8" d="M66.7 40.33c4.71.16 9.31 1.47 13.34 3.93.48.44 1.45 1.3 1.94 1.74-1.95 1.69-3.93 3.42-5.26 5.66 2-1.34 3.74-3.53 6.38-3.47 1.21.78 1.41 2.32 2 3.52-4.94 2.7-10.62 5.17-12.65 10.92-1.99-.3-3.94-.76-5.89-1.23-.2 2.45-.48 4.96-1.64 7.17-1.95-1.71-3.87-3.45-5.87-5.08 3.25-4.77-1.23-9.63-2.45-14.29.99.49 1.96.98 2.94 1.49 3.46 4.26 3.9 9.86 5.17 14.98.61-5.44-.46-11.31-4.2-15.49.7-1.14 1.41-2.27 2.13-3.41l.65 1.39.96-3.74c.45.1 1.37.29 1.82.38.14 2.31.08 4.63.09 6.95 3.58-2.98.31-7.62.54-11.42M68.36 55c2.49-1.76 3.67-4.65 4.83-7.35-2.28 1.93-4.24 4.34-4.83 7.35z"/>
    <path fill="#230403" opacity=".56" d="M33.9 41.82c2.99 1.92 7.37 3.35 8.11 7.26-2.53-1.85-5.07-3.71-7.42-5.8-.17-.36-.51-1.09-.69-1.46z"/>
    <path fill="#2c0405" opacity=".62" d="M57.39 42.52c1.03 2.56 1.9 5.18 3.12 7.66 3.74 4.18 4.81 10.05 4.2 15.49-1.27-5.12-1.71-10.72-5.17-14.98-1-2-1.95-4.03-3.06-5.98.23-.55.68-1.64.91-2.19z"/>
    <path fill="#3e0606" opacity=".63" d="M68.36 55c.59-3.01 2.55-5.42 4.83-7.35-1.16 2.7-2.34 5.59-4.83 7.35z"/>
    <path fill="#290404" opacity=".58" d="M39.62 48.54c3.86 2.41 6.11 6.64 7.53 10.84-3.19-3.04-5.86-6.75-7.53-10.84z"/>
    <g fill="#1e0303">
        <path opacity=".5" d="M72.45 62.63c2.03-5.75 7.71-8.22 12.65-10.92 2.65 3.16 2.2 7.49 2.03 11.32-.36 3.83-.01 7.67-.12 11.51-2.14-6.81-.07-13.99-1.01-20.96-2.34 1.13-4.8 2.05-6.96 3.5-2.11 1.95-3.77 4.52-6.59 5.55zM53.03 78.7c1.67.72 3.32 1.48 4.97 2.26l-2.31 3.03c.88.66 1.78 1.31 2.66 1.99 2.89 2.15 4.23 5.54 6.17 8.43 3.82-.09 7.57.66 11.06 2.24-3.62.71-7.35 1.15-11.02.78-1.14-1.03-2.05-2.28-3.01-3.45-.24.45-.72 1.34-.96 1.79l-1.57-1.81-2.24.92.13-1.33.12-.33c-1.38.15-2.75.29-4.14.31l-.4-1.63c3.26.23 6.51.46 9.74.95l-2.16-4.2c-1.5.16-3 .35-4.5.55.56-.38 1.67-1.13 2.23-1.5-1.9-1.76-2.71-4.13-2.55-6.69l-2.22-2.31z"/>
    </g>
    <path fill="#730c0c" opacity=".75" d="M79.04 57.08c2.16-1.45 4.62-2.37 6.96-3.5.94 6.97-1.13 14.15 1.01 20.96.09.51.28 1.53.37 2.04-2.74-2.12-6.02-3.26-9.35-4.04 1.5-.79 2.97-1.62 4.43-2.47-3.51-1.25-7.28-.97-10.23 1.48-.31.19-.94.56-1.25.75.99.41 1.98.83 2.97 1.25-1.41.63-2.81 1.27-4.19 1.96.19-1.68.08-3.47.8-5.04 4-3.13 9.02-4.71 14.08-4.83-1.52-.58-3-1.37-4.63-1.6-3.89.67-7.35 2.74-10.95 4.28-1.08 5.26-.83 10.63-.36 15.95l.04 1.38c-1.61.66-3.22 1.32-4.82 1.99-1.25-.96-2.5-1.91-3.75-2.87-.22-.83-.66-2.51-.88-3.34-.31 1.52-.62 3.03-.94 4.55-.88-.68-1.78-1.33-2.66-1.99L58 80.96c-1.65-.78-3.3-1.54-4.97-2.26l2.22 2.31c-.16 2.56.65 4.93 2.55 6.69-.56.37-1.67 1.12-2.23 1.5-1.1.63-2.19 1.27-3.26 1.94.05.19.14.57.18.76l.4 1.63c-.05.95-.1 1.9-.16 2.84-1.74-2.99-2.23-6.47-3.53-9.64-2.02-4.72-7.21-7.54-7.96-12.89 3.31 2.84 5.47 6.63 7.78 10.26 1.25 2.27 4.03 2.7 6.17 3.71-2.46-2.19-4.98-4.41-6.65-7.3.79-.19 2.37-.56 3.16-.74-.74-.93-1.47-1.86-2.22-2.78-1.06-2.63-2.09-5.27-3.11-7.91 2.01 2.29 3.6 5.18 6.52 6.44.14.25.27.5.41.75l.61 1.02c2.2 1.31 4.47 2.49 6.65 3.83-.87-1.47-1.73-2.95-2.58-4.43 1.38.17 2.76.33 4.14.51.22 1.46.42 2.93.59 4.4.77.89 1.54 1.77 2.31 2.65-.49-.77-.98-1.54-1.46-2.32-.03-1.17-.07-2.33-.14-3.5-.48-2.14-1.08-4.26-1.4-6.44.97-1.13 1.95-2.26 2.9-3.42 1.16-2.21 1.44-4.72 1.64-7.17 1.95.47 3.9.93 5.89 1.23 2.82-1.03 4.48-3.6 6.59-5.55z"/>
    <path fill="#270404" opacity=".56" d="M50.58 54.63c2.18 3.52 5.08 6.49 8.47 8.86 2 1.63 3.92 3.37 5.87 5.08-.95 1.16-1.93 2.29-2.9 3.42.44-5.68-5.16-8.28-8.9-11.27-2.01-1.32-1.86-4.05-2.54-6.09z"/>
    <path fill="#270404" opacity=".58" d="M46.3 62.6c.36.85.71 1.71 1.06 2.56.56-2.68 3.24-2.14 5.31-2.28-1.42.84-2.84 1.69-4.29 2.48 3.19-.33 7.01-1.41 9.31 1.6-.66-.06-1.98-.19-2.64-.25-1.25-.76-3.53-1.71-4.4.04 1.45.54 2.92.52 4.4-.04l.81 1.26c-.02.19-.05.56-.07.75-.51.08-1.52.23-2.03.31-1.98-.96-4.01-1.81-6.07-2.58 1.48 3.17 3.49 6.04 5.2 9.07-2.92-1.26-4.51-4.15-6.52-6.44 1.02 2.64 2.05 5.28 3.11 7.91-1.82-1.93-3.58-3.91-5.14-6.06.95-2.7 1.54-5.5 1.96-8.33z"/>
    <path fill="#210303" opacity=".51" d="M69.06 68.32c3.6-1.54 7.06-3.61 10.95-4.28 1.63.23 3.11 1.02 4.63 1.6-5.06.12-10.08 1.7-14.08 4.83-.72 1.57-.61 3.36-.8 5.04-.02.44-.07 1.33-.09 1.78l-.93.61c-.01 2.12-.05 4.25-.04 6.37-.47-5.32-.72-10.69.36-15.95z"/>
    <path fill="#7b0e0e" opacity=".88" d="M50.65 66.75c.87-1.75 3.15-.8 4.4-.04-1.48.56-2.95.58-4.4.04z"/>
    <path fill="#840f11" opacity=".91" d="M47.69 66.45c2.06.77 4.09 1.62 6.07 2.58.51-.08 1.52-.23 2.03-.31.45 1.57.93 3.14 1.39 4.71l-4.78.08c.94 2.51 3.78 2.37 5.89 2.95l-.31.23c-1.56-.11-3.13-.25-4.68-.42-.14-.25-.27-.5-.41-.75-1.71-3.03-3.72-5.9-5.2-9.07z"/>
    <path fill="#120101" opacity=".4" d="M72.23 71.55c2.95-2.45 6.72-2.73 10.23-1.48-1.46.85-2.93 1.68-4.43 2.47l-5.8-.99z"/>
    <path fill="#6c0b0b" opacity=".69" d="M70.98 72.3c.31-.19.94-.56 1.25-.75l5.8.99c3.33.78 6.61 1.92 9.35 4.04l.44.3c-.96.8-1.91 1.61-2.87 2.42-.49.08-1.46.23-1.95.31-.91 1.13-1.82 2.26-2.76 3.37-2.21 2.34-3.73 6.02-7.5 5.91-.55-1.64-1.11-3.27-1.64-4.91-.59-2.2-1.05-4.44-1.43-6.69.02-.45.07-1.34.09-1.78 1.38-.69 2.78-1.33 4.19-1.96-.99-.42-1.98-.84-2.97-1.25z"/>
    <path fill="#170202" opacity=".46" d="M40.54 72.79c1.03.17 2.07.34 3.11.51 1.72 2.34 3.35 4.75 4.89 7.21 1.67 2.89 4.19 5.11 6.65 7.3-2.14-1.01-4.92-1.44-6.17-3.71-2.31-3.63-4.47-7.42-7.78-10.26.75 5.35 5.94 8.17 7.96 12.89 1.3 3.17 1.79 6.65 3.53 9.64.13.25.38.74.51.98-.08.48-.23 1.44-.3 1.92.8 1.21 1.58 2.43 2.36 3.66-3.28-3.68-8.02-5.7-10.81-9.86l.05-.35c1.03-3.17-.79-6.08-2.33-8.69.05.74.17 2.23.22 2.97-.04 1-.75 1.86-1.78 1.53 2.16-5.07.53-10.55-.11-15.74M42 79.91c1.62 4.37 3.79 8.55 4.72 13.15.33 2.55 2.82 3.73 4.62 5.18-1.46-5.86-3.36-11.8-6.77-16.82-.64-.38-1.93-1.13-2.57-1.51z"/>
    <path fill="#250404" opacity=".55" d="M53.3 76.27c1.55.17 3.12.31 4.68.42.85 1.48 1.71 2.96 2.58 4.43-2.18-1.34-4.45-2.52-6.65-3.83l-.61-1.02z"/>
    <path fill="#160202" opacity=".44" d="M68.74 77.9l.93-.61c.38 2.25.84 4.49 1.43 6.69.1 1.33.16 2.66.21 4-2.1.48-4.17 1.08-6.31 1.34-2.26-1.04-3.96-3.44-6.65-3.34.32-1.52.63-3.03.94-4.55.22.83.66 2.51.88 3.34 1.25.96 2.5 1.91 3.75 2.87 1.6-.67 3.21-1.33 4.82-1.99l-.04-1.38c-.01-2.12.03-4.25.04-6.37z"/>
    <path fill="#630d0b" opacity=".76" d="M42 79.91c.64.38 1.93 1.13 2.57 1.51 3.41 5.02 5.31 10.96 6.77 16.82-1.8-1.45-4.29-2.63-4.62-5.18-.93-4.6-3.1-8.78-4.72-13.15z"/>
    <path fill="#610a0a" opacity=".63" d="M81.24 82.19c1.36-.92 2.81-1.68 4.43-2.04-.91 4.29-1.69 8.6-2.45 12.91-.7 4.79-4.97 7.74-8.48 10.52l.8-2.87c.27-.55.8-1.65 1.06-2.2-1.93.37-3.84.79-5.78 1.1-2 .18-3.99.37-6 .48-.24-.02-.72-.05-.97-.07l.27-1.62c-.72.51-1.43 1.03-2.14 1.55.22.24.64.71.85.95.05.62.14 1.87.19 2.5-.76-.95-1.52-1.91-2.27-2.87-.24.25-.73.74-.97.99-.91.05-1.81.11-2.72.18-.43-2.25-.42-4.55-.28-6.82l2.24-.92 1.57 1.81c.24-.45.72-1.34.96-1.79.96 1.17 1.87 2.42 3.01 3.45 3.67.37 7.4-.07 11.02-.78-3.49-1.58-7.24-2.33-11.06-2.24-1.94-2.89-3.28-6.28-6.17-8.43 2.69-.1 4.39 2.3 6.65 3.34 2.14-.26 4.21-.86 6.31-1.34-.05-1.34-.11-2.67-.21-4 .53 1.64 1.09 3.27 1.64 4.91 3.77.11 5.29-3.57 7.5-5.91l1-.79z"/>
    <path fill="#570b0b" opacity=".73" d="M42.21 84.03c1.54 2.61 3.36 5.52 2.33 8.69-.49-.68-1.49-2.04-1.98-2.72.32-1.03.27-2.03-.13-3-.05-.74-.17-2.23-.22-2.97z"/>
    <path fill="#560a09" opacity=".67" d="M55.57 89.2c1.5-.2 3-.39 4.5-.55l2.16 4.2c-3.23-.49-6.48-.72-9.74-.95-.04-.19-.13-.57-.18-.76 1.07-.67 2.16-1.31 3.26-1.94z"/>
    <path fill="#530909" opacity=".68" d="M52.89 93.53c1.39-.02 2.76-.16 4.14-.31l-.12.33c-.71 1.56-1.47 3.11-2.21 4.66-.49-.29-.98-.57-1.46-.86-.13-.24-.38-.73-.51-.98.06-.94.11-1.89.16-2.84z"/>
    <path fill="#680c0c" opacity=".79" d="M54.7 98.21c.74-1.55 1.5-3.1 2.21-4.66l-.13 1.33c-.14 2.27-.15 4.57.28 6.82.51.41 1.53 1.22 2.04 1.63-.33.45-1 1.35-1.33 1.81l-.62.13c-.76-.64-1.38-1.42-1.85-2.34-.78-1.23-1.56-2.45-2.36-3.66.07-.48.22-1.44.3-1.92.48.29.97.57 1.46.86z"/>
    <path fill="#520808" opacity=".55" d="M61.98 99.95c.71-.52 1.42-1.04 2.14-1.55l-.27 1.62c.25.02.73.05.97.07l1.71 1.55c1.84-.24 3.69-.51 5.52-.8l-1.23-1.23c1.94-.31 3.85-.73 5.78-1.1-.26.55-.79 1.65-1.06 2.2-3.19 2.5-4.24 7.95-8.95 8-.67 2.27-1.02 4.62-.99 7-2.83-3.1-6.38-5.75-7.95-9.77l.12-.8c.33-.46 1-1.36 1.33-1.81 2.31.44 4.64.64 6.98.86-1.08-1.1-2.18-2.19-3.25-3.29-.21-.24-.63-.71-.85-.95z"/>
    <path fill="#260403" opacity=".53" d="M59.78 101.52c.24-.25.73-.74.97-.99.75.96 1.51 1.92 2.27 2.87-.05-.63-.14-1.88-.19-2.5 1.07 1.1 2.17 2.19 3.25 3.29-2.34-.22-4.67-.42-6.98-.86-.51-.41-1.53-1.22-2.04-1.63.91-.07 1.81-.13 2.72-.18z"/>
    <path fill="#220404" opacity=".48" d="M64.82 100.09c2.01-.11 4-.3 6-.48l1.23 1.23c-1.83.29-3.68.56-5.52.8l-1.71-1.55z"/>
</svg>
