<svg width="128pt" height="128pt" viewBox="0 0 128 128" xmlns="http://www.w3.org/2000/svg">
    <g fill="#fdfdfd">
        <path d="M24.11 30.67c3.73-5.88 8.99-10.5 14.02-15.23 5.41 3.84 11.45 6.63 17.5 9.28 2.83 2.23 4.27 5.71 6.31 8.6-.79-2.83-2.29-5.39-3.13-8.2.13-1.88.53-3.72.94-5.55.52 4.63 1.82 9.12 3.69 13.39.7-1 1.39-2 2.09-2.99-.51 3.96-.82 8.04.24 11.95.8 2.93.79 5.98.35 8.97.44 4.33.22 8.69-.13 13.01-.21-.01-.62-.05-.83-.07-.72-3.09-.94-6.3-1.92-9.33-.85-2.26-3.23-3.58-3.76-6.01-2.61-8.26-6.62-16.14-12.3-22.71-2.42-2.37-6.03-2.68-9.15-3.46-5.05 2.04-9.69 4.93-13.92 8.35z"/>
        <path d="M40.39 23.7c1.82.39 3.56 1.01 5.2 1.87 4.39 4.56 7.12 10.34 9.63 16.08-3.09-2.87-7.2-5.08-8.73-9.23-1.59-3.19-3.93-5.93-6.1-8.72zM33.39 29.74c4.78 1.41 9.79 2.88 13.53 6.36 4.75 4.32 10.89 7.91 12.61 14.51 3.68 4.09 4.13 9.86 5.02 15.06l.43.42c.02.85.04 2.56.05 3.41-2.14-3.29-6.53-4.93-7.94-8.57.37-.15 1.1-.46 1.46-.61-1.78-3.27-2.71-6.9-3.91-10.4-3.04-.81-6.01-2.07-8.08-4.55-3.43-3.5-7.47-6.3-11.85-8.48-1.66 1.28-3.42 2.42-5.03 3.76-2.74 2.92-4.28 6.67-5.54 10.41.13-4.33.55-8.73 2.02-12.82 1.92-2.75 4.86-4.49 7.3-6.7l-.07-1.8z"/>
        <path d="M31.52 40.09c.7-.47 2.09-1.41 2.78-1.88 5.4 2.44 10.06 6.12 14.13 10.39 1.67.55 3.39 1 4.95 1.82 1.29 3.44 3.71 6.79 3.71 10.51-.17.27-.53.8-.7 1.06-3.02-1.86-4.33-5.1-5.96-8.04.6 2.1 1.26 4.18 1.97 6.25 3.96 2.55 9.78 5.27 9.73 10.66-2.65-1.29-4.5-3.67-6.52-5.73-2.16 0-4.44-.63-6.47.42 1.86.36 3.84.07 5.65.7 1.81 1.06 3.3 2.57 4.78 4.03.55 1.04-.65 6.52 1.25 4.42-.01-.49-.02-1.47-.03-1.96.86-1.19 1.92-2.28 3.19-3.01.38-.01 1.13-.03 1.51-.03.97 3.93 1.6 7.96 1.61 12.02-1.97-1.92-3.77-4.07-5.98-5.7l-.51.19c.53.81 1.58 2.43 2.11 3.24-.16.45-.48 1.36-.64 1.82 1.65 1.77 3.15 3.67 4.46 5.7-2.93 1.86-4.94-1.2-6.98-2.8.41-1.32 2.02-2.94.49-4.13-1.15-2.55-4.04-2.7-6.27-3.73-2.63-2.82-4.58-6.16-6.47-9.49 1.38-2.07 3.44-3.16 5.82-3.73-1.55-.03-3.1-.09-4.64.03-.32.78-.94 2.33-1.26 3.11l-.6-3.2-.66.05c-.28 6.61 5.41 10.71 8.08 16.1 2.15 1.14 1.23 3.39 1.53 5.3.11 1.65 2 2.24 3.07 3.12-.8.41-3.03.4-2.48 1.81 1.74-.56 3.13 2.29 4.48.37.87 1.11 1.75 2.22 2.81 3.16-.85-2.57-2.57-4.64-4.56-6.39l.01-.6.73-.28c2.18.93 3.72 2.88 5.64 4.22-.32 1.78-.56 3.58-.58 5.39-1.46-1.94-3.75-2.51-6.02-2.88-1.49-.13-2.97-.15-4.45-.05-.75-.49-1.49-.98-2.23-1.46 1.23 1.74 2.49 3.46 3.66 5.24-.03-.9-.08-2.69-.1-3.59.82.73 1.61 1.5 2.38 2.29.31-.52.94-1.54 1.25-2.05.52 1.35 1.05 2.69 1.6 4.03l.02-3.52c1.29 1.25 2.49 2.59 3.66 3.95.37 2.31 1.07 4.55 1.48 6.86-.76-.99-2.28-2.97-3.04-3.95.09.88.25 2.64.34 3.53-1.55-.69-2.06-2.27-2.69-3.67-.11.59-.34 1.76-.45 2.35-.47-.52-1.41-1.55-1.88-2.06-.33.54-.67 1.08-1 1.61 1.62.67 3.2 1.45 4.84 2.07.78-.09 2.32-.26 3.09-.35-1.32 3-1.3 6.22-.36 9.36l-1.49-1.44c-.01.39-.01 1.18-.02 1.57-.15-.34-.46-1.02-.61-1.36-1.6-.49-2.1-2.18-3.01-3.39-1.92-3.06-4.54-5.63-6.31-8.78-1.77-4.19-2.63-8.69-4.16-12.97.68-.26 1.36-.53 2.05-.78 1.51.87 3.06 1.72 4.71 2.32-1.89-2.14-4.94-3.06-6.3-5.7-2.58-4.22-5.57-8.2-7.89-12.58-.32-1.89 2.07-2.05 2.63-3.46.87-2.41.96-5.09.3-7.56.37-.47.73-.93 1.1-1.39l1.44 2.04c-1.51-3.52-3.25-7.08-6.13-9.69.19-.61.58-1.82.77-2.42-3.34-2.59-6.83-4.98-10.36-7.31m12.69 30.62c2.08 2.67 4.27 5.27 6.78 7.54-1.85-3.48-5.42-6.43-4.79-10.77-.66 1.07-1.32 2.15-1.99 3.23m6.73-3.79c3.45.51 5.69 2.21 6.71 5.11-.45 2.85-3.87 1.55-5.56 1.1 2.03 2.06 4.85 2.81 7.49 3.76-.42-4.6-2.41-11.15-8.64-9.97m7.28 29.37c.57.48.57.48 0 0m-2.98 3.19c.37 3.35 2.86-1.7 0 0z"/>
        <path d="M32.49 52.78c-.62-3.41-.32-6.89 2.35-9.37 1.97 1.49 3.91 3 5.86 4.51-1.22 3.47 2.6 5.63 4.08 8.29-.55.36-1.1.73-1.64 1.09-2.44-2.7-5.37-4.89-8.16-7.22-.83.9-1.66 1.79-2.49 2.7zM41.12 72.83c2.86 3.64 5.45 7.47 8.16 11.21-.34.5-.69.99-1.04 1.49-1.91-4.6-7.45-7.19-7.12-12.7zM54.14 78.13c1.14-.02 2.26.09 3.38.33.81.87 1.63 1.73 2.45 2.6-.76 1.53-1.6 3.13-1.06 4.89l-.38.37c-1.54-.39-2.14-2.08-2.95-3.25.62-.4 1.87-1.2 2.49-1.6-1.13-1.23-3.64-1.6-3.93-3.34zM44.52 86.15c-.94-2.29-2.76-4.3-2.39-6.94 1.29 1.23 2.92 2.26 3.66 3.97 2.53 5.14 4.45 10.56 6.13 16.02-1.51-1.51-3.6-2.49-4.82-4.27-.89-2.92-1.35-5.97-2.58-8.78zM41.9 84.5l.85-.19c1.45 3.1 2.47 6.38 3.14 9.73-2.77-2.47-3.28-6.12-3.99-9.54z"/>
    </g>
    <path fill="#f9f9f9" opacity=".98" d="M39.44 54.77c3.8 2.57 6.26 7.66 3.92 11.96-.32.17-.96.5-1.29.67l-.84.06c.67-4.32.82-8.88-1.79-12.69z"/>
    <path fill="#adadad" opacity=".68" d="M58.22 96.29c.57.48.57.48 0 0z"/>
    <path fill="#c9c9c9" opacity=".79" d="M55.24 99.48c2.86-1.7.37 3.35 0 0z"/>
</svg>
