<svg width="128pt" height="128pt" viewBox="0 0 128 128" xmlns="http://www.w3.org/2000/svg">
    <path fill="#0a0101" opacity=".35" d="M60.18 28.53c.94-2.55 2.21-4.97 3.83-7.15-.72 2.64-1.84 5.22-3.83 7.15z"/>
    <path fill="#6d0b0c" opacity=".81" d="M64.01 21.38l.19-.59c.84 2.68 1.79 5.44 3.86 7.45 2.29 2.6 5.85 2.1 8.9 1.55-1.14.95-2.17 2.04-3.48 2.75-2.77.33-5.2-1.21-7.41-2.65-2.18-2.73-4.61 1.16-6.85 1.98-2.01.6-4.12.56-6.19.76l-.58-2.89c2.64.93 5.66.84 7.73-1.21 1.99-1.93 3.11-4.51 3.83-7.15z"/>
    <path fill="#0e0101" opacity=".39" d="M64.2 20.79c1.61 2.29 2.92 4.8 3.86 7.45-2.07-2.01-3.02-4.77-3.86-7.45z"/>
    <g fill="#7b0d0d">
        <path opacity=".83" d="M59.22 31.87c2.24-.82 4.67-4.71 6.85-1.98 2.21 3.02 6.39 3.29 9.81 2.96-1.05 3.18-.96 7.22-3.82 9.49-3.47-.5-2.51-3.78-1.52-6.03-1.5 1.51-2.48 3.41-3.11 5.43 1.07.4 3.21 1.21 4.28 1.62-3.08 1.81-5.46-.93-7.38-3.07.05 4.15 4.66 4.68 6.46 7.35-2.16.9-4.35 1.73-6.48 2.71-2.38-1.13-4.77-2.21-7.17-3.27 2.02-1.04 4.11-1.97 5.94-3.33.21-1.53-.06-3.07-.18-4.6-.5 1.63-.99 3.27-1.46 4.9-1.63-.13-3.26-.24-4.88-.45 1.3-.93 4.16-1.17 3.81-3.44-.44-1.36-1.09-2.63-1.7-3.91.07 1.76.16 3.51.26 5.27-.78.2-2.35.59-3.13.78-1.76-2.81-2.43-6.07-2.76-9.33 2.06-.23 4.42.28 6.18-1.1m3.13 1.02c-.76 1.56-1.54 3.1-2.27 4.67 1.59-1.25 3-2.71 4.35-4.21.88 1.2 1.75 2.41 2.63 3.62.55-.27 1.66-.81 2.21-1.08-.45-.09-1.34-.28-1.79-.37-.94-2.15-2.74-3.85-5.13-2.63m1.63 4.39c-1.52 3 3.33.12 0 0z"/>
        <path opacity=".83" d="M59.84 49.42c1.49.98 2.98 1.96 4.47 2.95 1.49-1.06 2.97-2.13 4.45-3.2-1.56 2.23-3.05 4.51-4.42 6.86-1.42-2.26-2.95-4.45-4.5-6.61z"/>
    </g>
    <g fill="#1b0203">
        <path opacity=".47" d="M62.35 32.89c2.39-1.22 4.19.48 5.13 2.63.45.09 1.34.28 1.79.37-.55.27-1.66.81-2.21 1.08-.88-1.21-1.75-2.42-2.63-3.62-1.35 1.5-2.76 2.96-4.35 4.21.73-1.57 1.51-3.11 2.27-4.67zM61.17 81.85c2.22.03 4.44.05 6.67.07.1.8.31 2.41.41 3.21l-3.27-2.37c.02 1.75.05 3.51.07 5.26 3.62.62 7.28.94 10.95.92 2.7-.01 5.4-.02 8.11-.08 2.8-.1 5.59-.31 8.39-.54-.28 2.25-.65 4.5-1.1 6.72-2.67 1.4-5.21 3.56-8.39 3.46-12.01.16-24.03.01-36.05.1-3.79.22-7.64-1.56-10.09-4.4-.54-2.18-.56-4.43-.77-6.66 2.96 1.13 6.14 1.45 9.29 1.52 2.93 0 5.86-.05 8.79-.17 2.67-.17 5.52.27 8.05-.79 2.44-.95 1.07-3.82.97-5.71l-.73 1.45c-.7.24-2.12.7-2.83.93.51-.97 1.02-1.94 1.53-2.92m-14.32 9.71c11.72.64 23.49.61 35.22-.05-6-.52-12.13-.54-17.86-2.62-5.57 2.08-11.53 2.08-17.36 2.67m-8.86 2.26c7.59 1.23 15.31 1.16 22.98 1.1 10.03.13 20.14.36 30.1-1.07-9.35-.75-18.74-1.03-28.12-.73-8.33-.24-16.66.09-24.96.7m4.04 2.59c5.56 1.46 11.33 1.62 17.04 1.5 9.32-.18 18.76.58 27.98-1.26-7.31-.94-14.69-.59-22.03-.65-7.67.01-15.33-.05-22.99.41z"/>
    </g>
    <path fill="#200303" opacity=".5" d="M67.43 41.74c.63-2.02 1.61-3.92 3.11-5.43-.99 2.25-1.95 5.53 1.52 6.03-.13 1.77.11 3.61-.38 5.34-1.09 1.51-2.39 2.85-3.55 4.3.21 1.66.4 3.32.59 4.98-.45-1.17-.89-2.34-1.32-3.51-1.05 1.6-2.1 3.2-3.14 4.8-.91-1.48-1.81-2.95-2.71-4.43-.78 1.15-1.53 2.32-2.35 3.43.51-1.77.99-3.54 1.45-5.32-1.21-1.36-2.41-2.73-3.62-4.08-.51-1.83-.95-3.67-1.23-5.55.78-.19 2.35-.58 3.13-.78-.1-1.76-.19-3.51-.26-5.27.61 1.28 1.26 2.55 1.7 3.91.35 2.27-2.51 2.51-3.81 3.44 1.62.21 3.25.32 4.88.45.47-1.63.96-3.27 1.46-4.9.12 1.53.39 3.07.18 4.6-1.83 1.36-3.92 2.29-5.94 3.33 2.4 1.06 4.79 2.14 7.17 3.27 2.13-.98 4.32-1.81 6.48-2.71-1.8-2.67-6.41-3.2-6.46-7.35 1.92 2.14 4.3 4.88 7.38 3.07-1.07-.41-3.21-1.22-4.28-1.62m-7.59 7.68c1.55 2.16 3.08 4.35 4.5 6.61 1.37-2.35 2.86-4.63 4.42-6.86-1.48 1.07-2.96 2.14-4.45 3.2-1.49-.99-2.98-1.97-4.47-2.95z"/>
    <path fill="#250404" opacity=".56" d="M63.98 37.28c3.33.12-1.52 3 0 0z"/>
    <path fill="#520909" opacity=".62" d="M35.62 42.47c2.61 4.08 5.64 8.15 6.08 13.14 2.34 4.17 6.62 6.86 10.22 9.88 1.66 2.88 3.09 5.92 5.27 8.46.7.82 1.43 1.62 2.15 2.43-2.76-.51-5.59-.59-8.28.33-.32-.24-.94-.72-1.26-.96l-.93.54-.34-1.21-.99.55c-3.71-1.8-9.32-2.26-10.32-7.07 2.53.93 5.09 1.8 7.69 2.52-.95-3.4-1.8-7.05-4.25-9.74-1.47-1.8-4.08-1.84-5.75-3.37-.58-5.15-.4-10.43.71-15.5m15.54 24.88c-.66 1.11.2 3.57 1.65 3.33.68-1.11-.19-3.59-1.65-3.33z"/>
    <path fill="#550909" opacity=".62" d="M87.67 51.03c1.87-2.64 2.77-6.14 5.48-8.08.68 5.16.36 10.39.5 15.58-1.46.37-2.91.74-4.37 1.08-3.06 3.27-5.13 7.33-5.31 11.88 2.52-1.06 5.03-2.14 7.55-3.2-.69 1.52-1.17 3.49-2.95 4.09-3.27 1.49-6.62 2.81-9.76 4.55-.54.26-1.62.77-2.16 1.02l-.78-.18c.52-2.47.91-4.96 1.29-7.45.42-1.81.88-3.61 1.34-5.41-1.34 1.96-2.68 3.92-4.05 5.86.55-1.72 1.11-3.43 1.69-5.14l.21-.62c3.94-1.7 6.79-4.97 9.65-8.03 1.69-1.51 1.35-3.93 1.67-5.95z"/>
    <path fill="#330505" opacity=".49" d="M97.76 62.49c4.86-1.89 8.5-5.66 12.09-9.28-.54 3.63-1.87 7.06-3.43 10.35.9-.05 2.68-.17 3.57-.22-1.09 2.76-1.86 5.76-3.73 8.12-3.08 2.91-7.31 4.4-10.11 7.64-1.67 2.87-2.52 6.12-3.65 9.22-2.8.23-5.59.44-8.39.54.89-1.38 1.79-2.76 2.68-4.14-1.64-.4-3.28-.8-4.93-1.19.04-1.64-.84-3.67.57-4.97 2.05-1.54 4.57-2.23 6.93-3.15-3.5.59-7.04 1.01-10.55 1.52 3.14-1.74 6.49-3.06 9.76-4.55 1.78-.6 2.26-2.57 2.95-4.09l.18-.43c.34-.18 1.02-.55 1.36-.73 1.15-1.94 2.4-3.96 4.7-4.64m2.62 6.8c-1.29.33-2.67 1.94-2.13 3.3 1.44.57 3.84-2.56 2.13-3.3z"/>
    <path fill="#2f0505" opacity=".5" d="M19.07 53.73c4.08 4.13 8.57 7.84 14.04 9.95 1.09 1.73 2.44 3.26 3.99 4.58l.12.3c1 4.81 6.61 5.27 10.32 7.07l.99-.55.34 1.21.93-.54c.32.24.94.72 1.26.96.62.5 1.86 1.49 2.47 1.99-2.71-.7-5.46-1.29-8.19-1.92.6 1.39 1.21 2.77 1.8 4.16-1.51 2.46-3.36 5.22-1.75 8.12-3.15-.07-6.33-.39-9.29-1.52-1.42-2.32-2.14-4.98-3.32-7.42-2.59-4.78-9.14-5.72-11.62-10.48.02-1.02.08-3.06.11-4.08 3.23 1.75 6.07 4.12 8.01 7.28l.72-.12c1.02 1.13 2.04 2.24 3.08 3.34-.3-.77-.9-2.32-1.2-3.1l-.42-.23c-1.67-2.17-3.54-4.2-5.04-6.51l-1.86.78c.07-.52.22-1.57.29-2.1-1.38-1.55-2.82-3.05-4.14-4.66-1.4-1.86-1.32-4.31-1.64-6.51m18.42 23.6c1.05 1.39 4.96 1.31 6.07.04-1.83-.82-4.25-.92-6.07-.04z"/>
    <path fill="#760c0c" opacity=".76" d="M61.55 53.82c.9 1.48 1.8 2.95 2.71 4.43 1.04-1.6 2.09-3.2 3.14-4.8.43 1.17.87 2.34 1.32 3.51L70.48 58c.05 1.73-.02 3.47-.07 5.2 1.22 1.68 2.46 3.35 3.71 5.01-1.01 1.35-1.96 2.77-3.18 3.95-1.77.79-3.78.63-5.67.87l-.21-3.94c.66-.1 1.97-.31 2.62-.41.05.96.15 2.9.21 3.87 1.48-1.83.94-3.7-.21-5.4-2.41.13-4.83.13-7.24.03-.7 1.66-.81 3.45-.6 5.22l2.17-4.38c1.04 1.59 1.51 3.41 1.48 5.3-2.7-.53-6.25-.3-7.77-3.12-1.09-1.42 0-3.14.5-4.56 1.16-1.91 1.98-4.03.23-5.92.93-.81 1.91-1.57 2.75-2.47.82-1.11 1.57-2.28 2.35-3.43z"/>
    <path fill="#210303" opacity=".5" d="M70.48 58c.51.22 1.52.67 2.03.89l-1.26 4.23c.74.89 1.48 1.78 2.22 2.66l2.67-.15c-.58 1.71-1.14 3.42-1.69 5.14 1.37-1.94 2.71-3.9 4.05-5.86-.46 1.8-.92 3.6-1.34 5.41-1.64 2.97-4.27 5.17-7.43 6.38 1.42-1.5 2.9-2.95 4.41-4.38-5.33 2.5-11.27 1.73-16.95 1.63-2.18-2.54-3.61-5.58-5.27-8.46l4.3.15c-.5 1.42-1.59 3.14-.5 4.56 1.52 2.82 5.07 2.59 7.77 3.12.03-1.89-.44-3.71-1.48-5.3l-2.17 4.38c-.21-1.77-.1-3.56.6-5.22 2.41.1 4.83.1 7.24-.03 1.15 1.7 1.69 3.57.21 5.4-.06-.97-.16-2.91-.21-3.87-.65.1-1.96.31-2.62.41l.21 3.94c1.89-.24 3.9-.08 5.67-.87 1.22-1.18 2.17-2.6 3.18-3.95-1.25-1.66-2.49-3.33-3.71-5.01.05-1.73.12-3.47.07-5.2z"/>
    <path fill="#0a0101" opacity=".4" d="M20.71 60.24c1.32 1.61 2.76 3.11 4.14 4.66-.07.53-.22 1.58-.29 2.1l1.86-.78c1.5 2.31 3.37 4.34 5.04 6.51l.42.23c.3.78.9 2.33 1.2 3.1-1.04-1.1-2.06-2.21-3.08-3.34l-.72.12c-1.94-3.16-4.78-5.53-8.01-7.28-.03 1.02-.09 3.06-.11 4.08-1.14-1.79-2.2-3.67-2.72-5.74.71-.42 2.12-1.25 2.83-1.66l-.56-2z"/>
    <path fill="#1f0304" opacity=".5" d="M51.16 67.35c1.46-.26 2.33 2.22 1.65 3.33-1.45.24-2.31-2.22-1.65-3.33z"/>
    <path fill="#090101" opacity=".43" d="M100.38 69.29c1.71.74-.69 3.87-2.13 3.3-.54-1.36.84-2.97 2.13-3.3z"/>
    <path fill="#5d0a0a" opacity=".68" d="M69.73 76.7c3.16-1.21 5.79-3.41 7.43-6.38-.38 2.49-.77 4.98-1.29 7.45-1.2.89-2.4 1.78-3.55 2.73-.51 1.92-.42 3.92.32 5.77 1.1.91 2.23 1.79 3.36 2.67-3.67.02-7.33-.3-10.95-.92-.02-1.75-.05-3.51-.07-5.26l3.27 2.37c-.1-.8-.31-2.41-.41-3.21-2.23-.02-4.45-.04-6.67-.07-.51.98-1.02 1.95-1.53 2.92.71-.23 2.13-.69 2.83-.93l.73-1.45c.1 1.89 1.47 4.76-.97 5.71-2.53 1.06-5.38.62-8.05.79l1.38-.37-1.3-.08c.31-.51.93-1.52 1.24-2.03.59-1.48 2.21-3.23.9-4.78-.79-1.12-1.84-2.03-2.87-2.93-.61-.5-1.85-1.49-2.47-1.99 2.69-.92 5.52-.84 8.28-.33-.72-.81-1.45-1.61-2.15-2.43 5.68.1 11.62.87 16.95-1.63-1.51 1.43-2.99 2.88-4.41 4.38z"/>
    <path fill="#430608" opacity=".56" d="M78.81 76.93c3.51-.51 7.05-.93 10.55-1.52-2.36.92-4.88 1.61-6.93 3.15-1.41 1.3-.53 3.33-.57 4.97 1.65.39 3.29.79 4.93 1.19-.89 1.38-1.79 2.76-2.68 4.14-2.71.06-5.41.07-8.11.08-1.13-.88-2.26-1.76-3.36-2.67l5.17-.69c-1.47-.33-2.94-.65-4.41-.97l-1.08-4.11c1.15-.95 2.35-1.84 3.55-2.73l.78.18c.54-.25 1.62-.76 2.16-1.02z"/>
    <path fill="#0a0100" opacity=".44" d="M37.49 77.33c1.82-.88 4.24-.78 6.07.04-1.11 1.27-5.02 1.35-6.07-.04z"/>
    <path fill="#410707" opacity=".58" d="M45.34 76.78c2.73.63 5.48 1.22 8.19 1.92.85 2.26 1.42 4.61 1.89 6.98-2.04-.9-4.01-1.95-5.86-3.19.38 1.01.76 2.03 1.13 3.04 1.6.3 3.2.59 4.81.88-.31.51-.93 1.52-1.24 2.03l1.3.08-1.38.37c-2.93.12-5.86.17-8.79.17-1.61-2.9.24-5.66 1.75-8.12-.59-1.39-1.2-2.77-1.8-4.16z"/>
    <path fill="#140201" opacity=".48" d="M76.65 77.95c.54-.25 1.62-.76 2.16-1.02-.54.26-1.62.77-2.16 1.02z"/>
    <path fill="#1b0202" opacity=".49" d="M53.53 78.7c1.03.9 2.08 1.81 2.87 2.93 1.31 1.55-.31 3.3-.9 4.78-1.61-.29-3.21-.58-4.81-.88-.37-1.01-.75-2.03-1.13-3.04 1.85 1.24 3.82 2.29 5.86 3.19-.47-2.37-1.04-4.72-1.89-6.98z"/>
    <path fill="#0c0101" opacity=".45" d="M72.64 86.27c-.74-1.85-.83-3.85-.32-5.77l1.08 4.11c1.47.32 2.94.64 4.41.97l-5.17.69z"/>
    <path fill="#360507" opacity=".61" d="M46.85 91.56c5.83-.59 11.79-.59 17.36-2.67 5.73 2.08 11.86 2.1 17.86 2.62-11.73.66-23.5.69-35.22.05z"/>
    <path fill="#370505" opacity=".59" d="M37.99 93.82c8.3-.61 16.63-.94 24.96-.7 9.38-.3 18.77-.02 28.12.73-9.96 1.43-20.07 1.2-30.1 1.07-7.67.06-15.39.13-22.98-1.1z"/>
    <path fill="#2d0404" opacity=".6" d="M42.03 96.41c7.66-.46 15.32-.4 22.99-.41 7.34.06 14.72-.29 22.03.65-9.22 1.84-18.66 1.08-27.98 1.26-5.71.12-11.48-.04-17.04-1.5z"/>
</svg>
