<svg width="128pt" height="128pt" viewBox="0 0 128 128" xmlns="http://www.w3.org/2000/svg">
    <path fill="#790c0c" opacity=".77" d="M46.94 17.77c2.93-.3 5.88-.37 8.82-.44 1.08.63 1.34 2.04 2.03 3.02 4.7 3.09 7.68 8.1 12.44 11.08l-2.1 1.71C63.5 27.45 57.36 22.9 50.72 19.82c1.73 1.71 3.65 3.22 5.66 4.59-1.22 2.1-2.54 4.15-4.05 6.05-.15-1.02-.43-3.08-.57-4.11-.49 1.51-.93 3.04-1.34 4.57-1.49-.13-2.98-.28-4.46-.43-1.76-2.6-2.96-5.53-3.69-8.58 1.44-1.46 2.5-3.66 4.67-4.14m-1.72 3.15c-.42 2.3-.1 5.03 3.01 4.19.86-2.33-1.07-3.66-3.01-4.19z"/>
    <path fill="#180202" opacity=".41" d="M50.72 19.82c6.64 3.08 12.78 7.63 17.41 13.32 2.29 3.26 5.1 6.18 6.94 9.74 1.75 3.95 2.62 8.21 3.69 12.37.45 2.2-.65 4.29-1.97 5.96.23-6.76-1.31-13.49-4.6-19.4-1.67-3.17-3.93-5.97-6.38-8.57-2.82-3.27-5.82-6.43-9.43-8.83-2.01-1.37-3.93-2.88-5.66-4.59z"/>
    <path fill="#1c0202" opacity=".49" d="M45.22 20.92c1.94.53 3.87 1.86 3.01 4.19-3.11.84-3.43-1.89-3.01-4.19z"/>
    <path fill="#680a0a" opacity=".67" d="M52.33 30.46c1.51-1.9 2.83-3.95 4.05-6.05 3.61 2.4 6.61 5.56 9.43 8.83-.26 2.7-.11 5.45-.59 8.14-.36 2.25-2.66 3.31-4.43 4.33l-1.57-.07c4.79 5.88.65 13.58-2.97 18.88.24-4.49.44-9.07-1.38-13.29-.39-1.75-.81-3.48-1.16-5.23.69-2.26.88-4.84-.71-6.79l-.08-.14c-.61-1.2-1.25-2.38-1.9-3.56 1.23-.61 2.99-.55 3.85-1.74.14-1.31.24-2.62.27-3.93-.98 1.07-1.96 2.15-2.92 3.24.03-.65.08-1.96.11-2.62z"/>
    <path fill="#4e0807" opacity=".65" d="M50.42 30.92c.41-1.53.85-3.06 1.34-4.57.14 1.03.42 3.09.57 4.11-.03.66-.08 1.97-.11 2.62.96-1.09 1.94-2.17 2.92-3.24-.03 1.31-.13 2.62-.27 3.93-.86 1.19-2.62 1.13-3.85 1.74.65 1.18 1.29 2.36 1.9 3.56-.19 2.3-.67 4.91.79 6.93.35 1.75.77 3.48 1.16 5.23l.12.87c-.58-1.53-1.03-3.11-1.42-4.69l-1.48.46c.02-3.27-.05-6.54.11-9.8-2.4-2.46-4.5-5.19-6.89-7.65l.65.07c1.48.15 2.97.3 4.46.43z"/>
    <path fill="#490808" opacity=".52" d="M70.23 31.43l.57-.46c2.91 1.72 5.93 3.39 8.3 5.85 2.17 2.68 3.3 6.06 3.89 9.42-2.25-2.1-4-4.8-6.81-6.26 1.51 4.98 3.21 9.96 2.58 15.27-1.07-4.16-1.94-8.42-3.69-12.37-1.84-3.56-4.65-6.48-6.94-9.74l2.1-1.71z"/>
    <path fill="#540808" opacity=".55" d="M65.22 41.38c.48-2.69.33-5.44.59-8.14 2.45 2.6 4.71 5.4 6.38 8.57-1.16 3.32-2.86 6.42-4.03 9.74-1.01 3.82-1.49 7.78-2.83 11.52.23-4.04.18-8.18-1.16-12.04-1.01-1.85-2.34-3.49-3.38-5.32 1.77-1.02 4.07-2.08 4.43-4.33z"/>
    <path fill="#480707" opacity=".47" d="M72.19 41.81c3.29 5.91 4.83 12.64 4.6 19.4-.41 3.17-1.72 6.38-4.15 8.54-3.88 3.52-7.85 7-12.38 9.67-1.03-2.56-1.74-5.23-2.11-7.95l-.05-.33c2.61-2.5 5.14-5.11 7.23-8.07 1.34-3.74 1.82-7.7 2.83-11.52 1.17-3.32 2.87-6.42 4.03-9.74z"/>
    <path fill="#5a0909" opacity=".56" d="M53.08 79.69c1.68-2.76 2.67-5.95 5.07-8.22.37 2.72 1.08 5.39 2.11 7.95-2.78 1.77-5.85 4.52-4.88 8.21 1.41 2.36 4 3.55 6.35 4.76l.08 1.75-.04 1.24c-3.7-1.81-7.27-4.27-9.37-7.91-1.35-2.5-.93-5.52.68-7.78z"/>
    <path fill="#600909" opacity=".62" d="M52.36 78.04l.72 1.65c-1.61 2.26-2.03 5.28-.68 7.78 2.1 3.64 5.67 6.1 9.37 7.91-.1 1.41-.24 2.81-.39 4.22-4.58-2.59-8.72-6.22-11.37-10.8-1.62-3.74.56-7.55 2.35-10.76z"/>
    <path fill="#490707" opacity=".46" d="M61.73 92.39c5.15.81 10.26-.04 15.33-.93 5.66-.97 11.27 2.3 13.88 7.28-5.78-2.62-12.18-.23-18.05-2.1-3.63-1.1-7.41-1.54-11.08-2.5l-.08-1.75z"/>
    <path fill="#4d0807" opacity=".49" d="M61.81 94.14c3.67.96 7.45 1.4 11.08 2.5l-1.14.16c5.03 3.54 4.05 11.59 10.19 13.87-3.84-.04-8.26.59-11.35-2.22-3.19-2.82-5.96-6.09-9.21-8.85.15-1.41.29-2.81.39-4.22l.04-1.24z"/>
</svg>
