<svg width="128pt" height="128pt" viewBox="0 0 128 128" xmlns="http://www.w3.org/2000/svg">
    <path fill="#fdfdfd" d="M42.6 21.8c1.54-1.35 2.59-4.01 4.99-3.79 10.52 6.95 21.19 15.12 26.37 27 3.17 6.95 4.44 15.62.42 22.5-2.67 3.24-6.1 5.77-9.36 8.39-3.92 3.2-9.76 5.32-10.42 11.05 2.42 3.87 6.88 5.99 11.38 6.01 6.31.59 13.07-3.53 19.01.13 3.31 1.45 5.12 4.61 6.98 7.51-1.75-1.4-3.58-2.85-5.81-3.37-4.69-.44-9.49.71-14.09-.67-4.03-1.16-8.17-2.06-12.01-3.78-.56.27-1.12.54-1.68.8l-.12-1.63c-3.09-1.4-5.21-4.55-5.29-7.94.25-2.74 1.22-5.38 2.38-7.86 1.96-5.35 7.93-7.84 9.88-13.21.81-3.9.7-8.12-.62-11.9-1.97-3.5-4.86-6.4-7.55-9.35 1.62 3.34 4.09 6.48 4.26 10.34-.6 4.75-2.98 9.05-5.25 13.2.16-4.04 1.3-8.29-.42-12.16-1.37-3.89-2.44-7.96-2.33-12.13.6-3.1-2.63-4.58-4.4-6.47 1.9.28 3.81.18 5.65-.36-.04-1.53-.08-3.05-.1-4.58-.4 1.39-.79 2.78-1.17 4.17-2.18-.04-4.34-.36-6.47-.79 6.58-.43.82-1.85-.68-2.34-1.56-2.76-3.02-5.6-3.55-8.77m2.88-.29c-1.62 1.89 1.54 5.23 2.99 2.84-.04-1.49-1.35-3.42-2.99-2.84m6.1 5.94c-.52 1.46-.8 3.05-.76 4.6 1.92.62 1.88-3.97.76-4.6z"/>
</svg>
