<svg width="128pt" height="128pt" viewBox="0 0 128 128" xmlns="http://www.w3.org/2000/svg">
    <g fill="#fdfdfd">
        <path d="M64.1 38.45c2.78 1.91.32 4.78.04 7.23 1.87.06 3.74.1 5.62.11-1.45 1.34-3.43 1.36-5.29 1.52.35 10.91.14 21.82.04 32.73-.18 1.8.67 3.42 1.35 5.03 2.78-.96 6.43-1.48 6.87-5.04 1.08-.1 2.15-.19 3.23-.3-.34 1.14-.67 2.28-1 3.42-2.88-.12-5.04 2.41-7.79 3.06-1.84.39-2.36 2.33-3.1 3.78-1.68-4.21-6.65-5.33-10.44-6.92h2.79c1.86.66 3.74 1.28 5.63 1.88 1.48-2.03 1.09-4.57 1.12-6.91-.15-10.37-.13-20.74 0-31.1-1.99-.21-4.28.02-5.7-1.68 1.96.21 3.93.45 5.91.59-.15-1.89-.85-3.64-1.71-5.3.66.44 1.97 1.33 2.62 1.77-.04-.97-.14-2.9-.19-3.87z"/>
        <path d="M51.41 80.13c1.19-1.07 3.16.59 2.73 1.98-.87.67-1.82.76-2.84.28.02-.57.08-1.69.11-2.26z"/>
    </g>
</svg>
