<svg width="128pt" height="128pt" viewBox="0 0 128 128" xmlns="http://www.w3.org/2000/svg">
    <path fill="#fdfdfd" d="M62.29 18.26c4.09-2.97 9.18-.79 12.48 2.27-2.07-.36-4.53-1.67-6.43-.23-1.25 3.38 1.7 6.28 3.68 8.65 5.08-.66 8.85-4.75 13.84-5.43 5.01-.12 7.6 4.45 9.31 8.43-1.59-1.56-3.3-3.01-5.25-4.11-3.12 2.37-2.36 6.55-1.53 9.86 5.32 2.56 12.66-.89 16.74 4.22 2.6 2.61 2.04 6.57 1.82 9.9-.94-2.12-1.21-6.7-4.63-5.53-2.47 1.69-3.48 4.63-4.25 7.38 2.57 2.63 5.64 4.65 8.81 6.47 2.47 1.36 3.78 4.14 3.87 6.87-.02 3.05-2.07 5.53-3.83 7.82.43-2.05 1.67-4.3.54-6.37-3.48-1.59-6.45 1.52-8.92 3.54.77 4.41 3.54 7.99 5.18 12.05 1.39 5.3-3.3 9.26-7.73 10.96 1.1-1.86 3.75-3.45 3.08-5.88-2.56-2.32-6.28-1.43-9.3-.72-2.44 5.23.78 12.24-3.83 16.46-2.69 2.66-6.68 2.43-10.14 2.05 2.09-.76 4.22-1.49 6.01-2.85-.82-3.71-4.62-5.05-7.83-6.02-3.85 3.03-5.29 7.98-8.81 11.25-4.05 2.86-9.22.8-12.44-2.33 2.14.72 4.38 1.15 6.61.57.76-3.63-1.55-6.66-4.03-8.98-4.46.83-8.06 3.71-12.23 5.21-5.3 1.1-9.04-3.66-10.66-8.07 1.64 1.56 3.35 3.1 5.57 3.76 2.35-2.55 2.24-6.27 1.17-9.36-4.24-2.56-9.47-.75-13.98-2.26-4.45-2-5.55-7.46-4.35-11.79.53 2.15 1.21 4.32 3.04 5.74 3.34-1.3 4.61-4.75 5.66-7.86-3.11-3.57-7.7-5.24-11.11-8.41-3.3-4.07-.93-9.5 2.13-12.93-.73 2.15-.98 4.39-.76 6.66 3.64.93 6.77-1.42 9.18-3.84-.91-4.48-3.76-8.17-5.27-12.4-1.13-5.38 3.79-9.05 8.29-10.54-1.61 1.51-3.1 3.16-4.04 5.17 2.4 3.1 6.52 2.25 9.83 1.5 1.51-4.23.98-8.77 1.63-13.12 1.41-5.11 7.56-6.55 12.15-5.23-1.88.7-4.17.85-5.48 2.56-.18 3.9 4.56 4.88 7.32 6.19 3.9-3.02 5.35-8.01 8.89-11.28m-6.08 13.96c-13.09 2.82-23.45 14.47-24.86 27.77-1.42 12.22 4.7 25.13 15.44 31.3 12.1 7.61 28.96 5.59 39.14-4.36 7.45-7.35 11.32-18.44 9.33-28.79-1.6-8.86-6.85-17.2-14.67-21.82-7.15-4.51-16.15-6.19-24.38-4.1z"/>
</svg>
