<svg width="128pt" height="128pt" viewBox="0 0 128 128" xmlns="http://www.w3.org/2000/svg">
    <path fill="#8c0e10" opacity=".88" d="M58.77 16.65c.34-.17 1.01-.51 1.35-.68-.15 5.63.88 11.5-.88 16.87l2.03-.12c.45-2.31.02-4.84 1.39-6.87 3.58-2.47 6.2-6.13 9.93-8.37-1.55 5.13-4.6 10.04-4.33 15.54 2.69-5.4 8.44-7.99 13.36-10.97-3.02 5.2-6.9 10-11.4 13.92-3.05 2.53-4.79 6.27-7.03 9.47 1.03 1.06 1.94 2.24 3.13 3.13l-1.69 1.07c.27.28.82.84 1.1 1.11l.12 1.14c-.59-.64-1.16-1.28-1.73-1.94-.05-.73-.15-2.18-.21-2.91-2.44.58-4.95 1.33-6.89 3-1.26.78-2.3 2.32-3.88 2.33-1.47-.9-2.73-2.12-4.28-2.91-1.82-.71-2.03-2.85-3.06-4.27-1.12-3.21-2.88-6.15-4.2-9.28.29-.28.88-.85 1.18-1.13 2.42 2.57 4.98 5.03 7.57 7.44-.6-2.29-3.44-3.64-2.99-6.27.32-5.02-.32-10.09-.36-14.99 2.66 4.44 4.03 9.57 6.98 13.83l.78.17c-.15-2.64-1.21-5.31.11-7.83 1.78-3.3 2.97-6.85 3.9-10.48z"/>
    <path fill="#1c0303" opacity=".49" d="M41.05 35.88c-.69-.8-1.17-3.6.73-2.65.29.24.86.7 1.15.94l-.15.61c-.3.28-.89.85-1.18 1.13l-.55-.03z"/>
    <path fill="#540908" opacity=".76" d="M73.18 41.7c1.15-3.12 2.21-6.43 4.36-9.03.18 2.31.2 4.64.09 6.95 2.12.82 2.95-1.74 4.46-2.62 1.97-1.23 3.67-2.91 5.81-3.86-.87 3.64-2.97 6.84-3.83 10.53 4.33.18 8.82-.72 12.95.94-.22.4-.65 1.19-.87 1.58-5.78.55-11.46 2.52-16.51 5.39-.76 1.37-1.87 2.57-2.3 4.1-.78-.47-1.58-.9-2.41-1.29-2.08.45-4.05 1.41-6.2 1.53-.27-1.27-.55-2.54-.84-3.8-.54-.34-1.62-1.02-2.16-1.37-.28-.27-.83-.83-1.1-1.11l1.69-1.07c-1.19-.89-2.1-2.07-3.13-3.13 2.24-3.2 3.98-6.94 7.03-9.47.88 1.81 1.44 3.66 1.37 5.7l1.59.03z"/>
    <path fill="#830d0e" opacity=".83" d="M35.44 41.55c.6.39 1.78 1.17 2.37 1.55.65 1.03 1.73 1.74 2.85 2.17 2.78 1.2 4.98 4.56 8.2 4.19 1.55.79 2.81 2.01 4.28 2.91 1.58-.01 2.62-1.55 3.88-2.33 1.94-1.67 4.45-2.42 6.89-3 .06.73.16 2.18.21 2.91.57.66 1.14 1.3 1.73 1.94l.2 3.33c-.77-.76-1.56-1.52-2.35-2.26-1.18.11-2.58.3-3.16 1.49-1.59 2.62-3.04 5.33-4.63 7.95-2.72 2.71-7.82 3.25-10.36.05-1.52-1.96-3.86-2.5-6.25-2.36-.27-.29-.82-.88-1.1-1.17-.38-.98-1.03-1.7-1.95-2.16-.45-.48-1.37-1.45-1.83-1.94l-.3-1.8c3.39 2 7.31 2.31 11.1 2.94-.94-2.56-3.08-4.38-4.96-6.26-2-2.43-4.19-4.97-4.82-8.15z"/>
    <path fill="#0c0101" opacity=".38" d="M37.81 43.1c1.07-1.22 3.68.79 2.85 2.17-1.12-.43-2.2-1.14-2.85-2.17z"/>
    <g fill="#330604">
        <path opacity=".55" d="M40.26 49.7c1.88 1.88 4.02 3.7 4.96 6.26-3.79-.63-7.71-.94-11.1-2.94l.3 1.8c-.37-.2-1.1-.61-1.47-.81-.26-.85-.46-1.71-.57-2.58 3.5 1.17 6.66 3.24 10.52 3.4.13-2.21-2.31-3.1-2.64-5.13zM76.81 87.67c3.18.72 6.61-.92 9.62-.02.11 1.69.18 3.39.35 5.08-.87 1.22-1.63 2.54-2.81 3.49-1.53-1-3.12-1.97-4.97-2.19-2.27 2.05-4.9 3.99-6.16 6.86-3.13.65-3.49-4.86-6.54-3.11 1.76-2.56 4.03-4.74 5.67-7.39 2.15.46 3.02-2.12 4.84-2.72z"/>
    </g>
    <path fill="#490807" opacity=".71" d="M65.73 50.75c.54.35 1.62 1.03 2.16 1.37.29 1.26.57 2.53.84 3.8 2.15-.12 4.12-1.08 6.2-1.53.83.39 1.63.82 2.41 1.29.97 2.45-.34 5.02-2.69 6.03l-.2-3.6c-2.07.44-3.57 2.08-5.58 2.65-2.88.07-3.26 2.94-4.15 5.04-.96.45-2.01.64-3.14.55.03.94.07 1.89.12 2.84-.56-.13-1.68-.38-2.24-.51-.87-1.76-1.92-3.52-2.26-5.47 1.53-3.13 3.22-6.2 5.18-9.09 1.87.96 3.09 2.78 4.78 3.99-.05-1.09-.42-2.06-1.11-2.89l-.2-3.33-.12-1.14z"/>
    <path fill="#150201" opacity=".46" d="M60.54 54.45c.58-1.19 1.98-1.38 3.16-1.49.79.74 1.58 1.5 2.35 2.26.69.83 1.06 1.8 1.11 2.89-1.69-1.21-2.91-3.03-4.78-3.99-1.96 2.89-3.65 5.96-5.18 9.09.34 1.95 1.39 3.71 2.26 5.47.56.13 1.68.38 2.24.51-.05-.95-.09-1.9-.12-2.84 1.13.09 2.18-.1 3.14-.55.89-2.1 1.27-4.97 4.15-5.04-.56.93-1.34 1.68-2.34 2.26-.15 1.46-.2 2.93-.14 4.41 2.12.04 4.85.9 6.14-1.39l1.24.25c-.17.48-.49 1.45-.66 1.93-3.1.46-6.2-.01-9.28-.37 1.37.64 2.49 1.54 3.36 2.72-2.1.04-4.2-.13-6.3-.21 1.22 1.03 2.77 1.65 3.77 2.95-2.32.12-5.15-.87-6.06-3.19-.91-2.55-2.7-4.91-2.69-7.72 1.59-2.62 3.04-5.33 4.63-7.95z"/>
    <path fill="#040000" opacity=".29" d="M36.25 56.76c.92.46 1.57 1.18 1.95 2.16-1.77.32-2.42-.4-1.95-2.16z"/>
    <path fill="#740d0c" opacity=".77" d="M39.3 60.09c2.39-.14 4.73.4 6.25 2.36 2.54 3.2 7.64 2.66 10.36-.05-.01 2.81 1.78 5.17 2.69 7.72-1.18 2.1-3.71 2.11-5.82 2.2-2.93.03-6.07-.1-8.53-1.89-1.04-.78-2.21-1.09-3.53-.94-2.33-2.58-5.16-4.64-7.4-7.3 3.38.25 6.36 2 9.86 1.65-1.49-1.06-2.78-2.31-3.88-3.75z"/>
    <path fill="#6c0b0c" opacity=".71" d="M73.77 66.29c1.47.79 3.06.02 4.52.33 1.63 1.72 3.94.28 5.89.04.93.38 1.65 1.01 2.16 1.89 1.45-.07 2.37.92 3.29 1.88 3.64-.47 4.79 3.39 4.03 6.28-1.58.42-2.22-1.01-2.39-2.32-1.96.35-5.82.2-5.88 2.83 1.31 1.55 3.6 1.71 4.8 3.11-1.7.49-3.35 1.32-5.17.96-.14-.28-.41-.83-.54-1.11-.62-1.18-.59-3.08-2.05-3.6-5.88-2.78-12.07 1.81-18.15.2-.43-.45-.87-.9-1.31-1.33-3.33 4-8.82 2.21-13.33 2.81-2.29-.32-4.53-1.52-6.77-2.28.53-.39 1.61-1.17 2.15-1.55-3.63-.42-7.6-1.59-10.61-3.82 3.28-.06 6.56-.31 9.84-.18 2.46 1.79 5.6 1.92 8.53 1.89 2.11-.09 4.64-.1 5.82-2.2.91 2.32 3.74 3.31 6.06 3.19-1-1.3-2.55-1.92-3.77-2.95 2.1.08 4.2.25 6.3.21-.87-1.18-1.99-2.08-3.36-2.72 3.08.36 6.18.83 9.28.37.17-.48.49-1.45.66-1.93z"/>
    <path fill="#5f0a0a" opacity=".64" d="M49.64 78.26c4.51-.6 10 1.19 13.33-2.81.44.43.88.88 1.31 1.33 6.08 1.61 12.27-2.98 18.15-.2 1.46.52 1.43 2.42 2.05 3.6-1.96 1.6-4.56 1.09-6.87 1.48-4.74.04-9.25 3.25-13.95 1.56-2.73-1.2-5.34 1.17-8.11.63-1.35-1.21-2.25-2.76-3.1-4.33-1.12-.01-2.06-.43-2.81-1.26z"/>
    <path fill="#500809" opacity=".58" d="M48.17 80.17c1.03.05 3.1.16 4.13.22.96 1.19 1.41 3.42 3.25 3.46 2.77.54 5.38-1.83 8.11-.63 4.7 1.69 9.21-1.52 13.95-1.56-.85 3-3.65 4.99-5.09 7.76-2.91.14-6.35-.8-8.76 1.34-2.9 2.28-6.23 3.87-9.6 5.33-1.13-.57-1.86-1.64-2.71-2.53.9-4.75-3.38-8.61-3.28-13.39z"/>
    <path fill="#3d0606" opacity=".5" d="M63.76 90.76c2.41-2.14 5.85-1.2 8.76-1.34l-.55.97c-1.64 2.65-3.91 4.83-5.67 7.39-.58 1.55-2.2 2.66-2.11 4.45.64.33 1.92.99 2.56 1.33.47 1.28.99 2.51 1.98 3.5.33 2.06-1.45 3.59-2.84 4.78-2.26-.98-4.73-1.47-6.56-3.27-.05-1.51.46-3.07-.08-4.53-1.83-2.57-5.1-4.43-5.09-7.95 3.37-1.46 6.7-3.05 9.6-5.33z"/>
</svg>
