<svg width="128pt" height="128pt" viewBox="0 0 128 128" xmlns="http://www.w3.org/2000/svg">
    <path fill="#fdfdfd" d="M54.04 30.1c2.19-5.05 4.35-10.13 5.53-15.53.06 5.76.56 11.57-.28 17.29-.26 1.92.56 3.75 1.01 5.57.78-3.71 1.56-7.43 2.29-11.15 3.4-2.94 6.76-5.91 10.05-8.98-2.84 5.87-4.37 12.24-6.56 18.35 2.23-2.6 4.08-5.59 6.74-7.8 2.94-2.1 6.04-3.98 9.09-5.93-2.77 3.24-4.79 7.06-7.85 10.06-4.19 4.18-7.74 8.99-10.7 14.1.98 3.55 4.25 6.35 3.29 10.39-1.01-1.14-2-2.29-2.99-3.43-.61.12-1.82.37-2.43.49-2.05 3.1-3.6 6.49-5.5 9.67 1.21 2.83 2.42 5.65 3.64 8.47 1.78.66 3.5 1.88 5.51 1.48-1.22-.72-3.66-2.14-4.88-2.85 3.08.08 6.16.14 9.23.38-2.26-.95-4.5-1.98-6.49-3.43 3.74 1.1 7.62 1.3 11.5.98-.61-.55-1.84-1.65-2.46-2.2 1.9.58 3.8 1.16 5.69 1.78l-.43-1.42c2.31 1.81 5.18 1.01 7.85.87 1.21 1.5 3.05 2.16 4.63 3.17 3.45.16 5.33 3.98 3.39 6.79-.35-.79-1.04-2.35-1.38-3.14-1.92.27-3.81.64-5.7 1-.25.83-.5 1.65-.75 2.47 1.7 1.12 3.54 1.99 5.45 2.68-4.14.96-8.38-.27-12.5 1.12-2.42 2.78-4.55 5.81-6.64 8.84.49.28 1.48.83 1.97 1.11.99-.99 1.98-1.97 2.98-2.94 2.47.24 4.95.09 7.42.15.22-.28.67-.84.89-1.11.51.19 1.53.56 2.04.75-1.51.52-2.56 1.47-3.14 2.86.6-.13 1.8-.4 2.39-.53l.77 2.32-3.96-.92c.71.53 2.14 1.59 2.85 2.12-.86.86-1.71 1.74-2.55 2.62-.03-.97-.09-2.91-.13-3.89-.43.52-1.3 1.55-1.73 2.06-.38-.63-1.14-1.9-1.51-2.53-2.39 2.43-4.8 4.85-7.32 7.14.19.6.56 1.78.75 2.37-1.94-1.75-3.74-3.65-5.42-5.65-1.31.99-2.46 2.16-2.65 3.89-.38-.51-1.12-1.53-1.49-2.04.08 2.16.23 4.32.38 6.48 1.06-.56 2.24-.74 3.41-.84-.39.6-1.19 1.79-1.59 2.39 1.5.36 2.53 1.24 3.09 2.62-.63-.14-1.88-.44-2.5-.59.12 1.04.21 2.08.28 3.13l-2.28.96c.49-1.24.82-2.53 1.01-3.85-1.34 1.18-2.89 1.9-4.67 2.18.55-.68 1.64-2.02 2.18-2.7-.9.28-2.71.84-3.61 1.13 1.02-1.84 1.47-4.29-.16-5.91-1.1-2.04-4.31-3.21-3.74-5.84l-3.3-3.45c1.23-1.3.13-2.81-.39-4.14-1.4-2.97-2.37-6.11-3.51-9.18.98.15 2.96.45 3.94.59.75 1.19 1.5 2.37 2.24 3.55 2.15.92 4.32 1.81 6.55 2.53-1.79-1.18-3.8-2.03-5.47-3.39-1.09-1.39-1.81-3.01-2.7-4.52-3.29-.99-6.49-2.24-9.74-3.36.64-.3 1.9-.9 2.54-1.2-3.87-1.03-7.68-2.26-11.36-3.81 3.5.07 7.01.1 10.5-.27-4.65-1.39-7.59-5.37-11.31-8.21 3.64 1.09 7.37 1.88 11.08 2.69-4.2-4.38-8.86-8.39-12.26-13.47 3.84 2.94 8.56 3.75 13.25 4.23-3.65-4.55-7.98-8.94-10.15-14.38 4.32 3.65 9.06 6.75 13.94 9.6-3.28-5.84-5.85-12.04-8.64-18.12 3.34 3.71 6.98 7.13 10.71 10.45-1.09-2.26-2.89-4.18-3.61-6.6.04-5.4.04-10.82-1.06-16.12 3.05 5.64 4.77 12.07 9.31 16.82-.52-2.45-1.17-4.87-1.87-7.27m29.52 40.82c.22 1.33 2.8 1.58 3.13.24-.27-1.39-2.87-1.9-3.13-.24z"/>
</svg>
