<svg width="128pt" height="128pt" viewBox="0 0 128 128" xmlns="http://www.w3.org/2000/svg">
    <path fill="#950f0e" opacity=".91" d="M59.08 19.86c.93-1.94 2.57-3.39 4.04-4.9.15 7.13.08 14.26.2 21.39-4.26-1.35-8.74-2.65-11.99-5.91 2.14-2.64 3.74-5.67 6-8.21.84-.6 1.42-1.39 1.75-2.37z"/>
    <path fill="#960f0e" opacity=".91" d="M68.89 15.02c1.48 1.48 3.12 2.9 4.03 4.83.33.98.93 1.76 1.78 2.35 2.16 2.53 3.79 5.46 5.82 8.1-.79.91-1.57 1.83-2.36 2.74-2.61.4-5.17 1.08-7.5 2.35-.64-.49-1.28-.96-1.94-1.43.11-6.31-.01-12.63.17-18.94z"/>
    <path fill="#0c0101" opacity=".36" d="M57.33 22.23c-.65-1.73-.06-2.52 1.75-2.37-.33.98-.91 1.77-1.75 2.37z"/>
    <path fill="#0d0101" opacity=".36" d="M72.92 19.85c1.81-.16 2.4.62 1.78 2.35-.85-.59-1.45-1.37-1.78-2.35z"/>
    <path fill="#820d0d" opacity=".84" d="M49.89 32.7c.46-.77.95-1.51 1.44-2.26 3.25 3.26 7.73 4.56 11.99 5.91.03 4.1-.08 8.19.14 12.28-2.23-1.07-4.47-2.13-6.71-3.19-.54.89-1.09 1.78-1.63 2.68.18-5.23-4.81-8.08-7.08-12.24.61-1.07 1.22-2.13 1.85-3.18z"/>
    <path fill="#860d0d" opacity=".86" d="M80.52 30.3c1.37 1.92 2.75 3.85 4.22 5.7-1.15 1.41-2.28 2.84-3.54 4.14-1.5 1.21-3.19 2.34-4.14 4.06-.43 1.81-.39 3.69-.42 5.54-1.37-3.69-5.14-5.36-7.97-7.74.04-2.68.05-5.36.05-8.04.66.47 1.3.94 1.94 1.43 2.33-1.27 4.89-1.95 7.5-2.35.79-.91 1.57-1.83 2.36-2.74z"/>
    <path fill="#250403" opacity=".53" d="M44.04 32.7c1.23.71 2.29 1.63 3.19 2.75.88-.93 1.77-1.84 2.66-2.75-.63 1.05-1.24 2.11-1.85 3.18 2.27 4.16 7.26 7.01 7.08 12.24.31 2.47.71 4.97.38 7.45-1.27-3.45-1.28-7.2-2.38-10.68-2.69-3.85-5.89-7.34-8.54-11.23-.38 4.94-1.51 10.04-.47 14.95 2.16 2.56 5.59 3.99 6.92 7.24.91 2.59 1.65 5.25 2.28 7.93-2.43-2.68-3.25-6.24-4.78-9.41-1.88-2.02-4.2-3.59-6.14-5.56.2-5.4.56-10.81 1.65-16.11z"/>
    <path fill="#790d0d" opacity=".82" d="M81.2 40.14c2.96-1.49 4.22-4.66 5.97-7.26 2.13 3.97 1.2 8.78 1.62 13.14.7 2.93-2.31 4.29-4.15 5.85-3.69 2.15-3.5 6.98-5.47 10.38l-3.67.6c-1.91-3.84-3.77-7.7-5.81-11.48-1.68-2.84-.86-6.25-1.02-9.37 2.83 2.38 6.6 4.05 7.97 7.74.03-1.85-.01-3.73.42-5.54.95-1.72 2.64-2.85 4.14-4.06z"/>
    <path fill="#760c0c" opacity=".79" d="M44.58 33.66c2.65 3.89 5.85 7.38 8.54 11.23 1.1 3.48 1.11 7.23 2.38 10.68-1.49.13-2.98.2-4.47.28-1.33-3.25-4.76-4.68-6.92-7.24-1.04-4.91.09-10.01.47-14.95z"/>
    <path fill="#6a0c0c" opacity=".76" d="M55.12 48.12c.54-.9 1.09-1.79 1.63-2.68 2.24 1.06 4.48 2.12 6.71 3.19-2.11 4.95-4.63 9.73-7.03 14.55-2.35 5.1-8.52 4.36-13.07 3.58-2.78-6.48-4.05-13.67-3.77-20.72.7.69 2.1 2.08 2.8 2.77 1.94 1.97 4.26 3.54 6.14 5.56 1.53 3.17 2.35 6.73 4.78 9.41-.63-2.68-1.37-5.34-2.28-7.93 1.49-.08 2.98-.15 4.47-.28.33-2.48-.07-4.98-.38-7.45z"/>
    <path fill="#6e0c0c" opacity=".8" d="M82.74 54.06c3.29-2.66 6.61-5.31 9.69-8.22.47 5.75-.79 11.4-2.23 16.92.76.68 3.96 2.11 1.93 2.97-3.85.47-7.44 2.89-11.56 2.3-.28-1.63-.56-3.25-.78-4.88.71-3.12 2.24-5.97 2.95-9.09z"/>
    <path fill="#5f0a0b" opacity=".73" d="M75.5 62.85l3.67-.6.48-.08.14.98c.22 1.63.5 3.25.78 4.88 4.12.59 7.71-1.83 11.56-2.3.08.29.25.88.33 1.17-2.09 2.37-4.32 5.21-4.03 8.57.14 1.34-.34 2.68-1.49 3.46-2.64.81-5.51 2.23-8.3 1.34-2.17-1.24-3.71-3.28-5.6-4.87 1.22-4.09 3.48-8.14 2.46-12.55z"/>
    <path fill="#590a09" opacity=".68" d="M43.36 66.76c4.55.78 10.72 1.52 13.07-3.58-.8 4.31 1.45 8.22 2.5 12.26-1 .08-2.01.15-3.02.21-.41-1.34-.82-2.68-1.22-4.01-.88 1.42-1.76 2.84-2.65 4.27-2.7.13-5.46.53-7.58 2.36l-.36.24c.16-1.2.3-2.4.45-3.6-1.81-3.65-4.4-6.94-5.42-10.95 1.19.88 2.37 1.78 3.53 2.7l.7.1z"/>
    <path fill="#510809" opacity=".63" d="M58.93 75.44c2.71-1.18 4.57-3.84 7.06-5.43 2.26 1.91 4.71 3.58 7.05 5.39 1.89 1.59 3.43 3.63 5.6 4.87 2.79.89 5.66-.53 8.3-1.34-2.08 2.4-4.47 4.5-7.2 6.13-.13.52-.37 1.56-.5 2.08-1.75.23-3.5.45-5.25.68-1.13 1.19-2.26 2.38-3.42 3.54-1.25 1.23-2.49 2.46-3.75 3.67-1.9-1.11-3.74-2.31-5.37-3.8-1.18-1.08-2.29-2.22-3.43-3.35-1.72-.38-3.8-.19-5.05-1.69-2.76-2.72-6.08-4.85-8.51-7.92 2.12-1.83 4.88-2.23 7.58-2.36.89-1.43 1.77-2.85 2.65-4.27.4 1.33.81 2.67 1.22 4.01 1.01-.06 2.02-.13 3.02-.21m2.46-.19c1.46 2.8 3.1 5.5 4.62 8.27 1.37-2.39 2.6-4.86 3.64-7.41-1.17 1.27-2.31 2.58-3.51 3.83-1.67-1.46-2.86-3.45-4.75-4.69z"/>
    <path fill="#260305" opacity=".53" d="M61.39 75.25c1.89 1.24 3.08 3.23 4.75 4.69 1.2-1.25 2.34-2.56 3.51-3.83-1.04 2.55-2.27 5.02-3.64 7.41-1.52-2.77-3.16-5.47-4.62-8.27z"/>
    <path fill="#460609" opacity=".57" d="M61.45 91.23c1.63 1.49 3.47 2.69 5.37 3.8 1.26-1.21 2.5-2.44 3.75-3.67.28 1.54.59 3.09 1.06 4.58.69 2.32 1.53 4.62 2.94 6.61 1.5 1.63 2.22 3.64 2.37 5.85-1.89-1.12-4.2-1.77-5.71-3.43-.63-2.08-1.07-4.21-1.75-6.27.95 4.33 2.59 10.01-1.85 13-2.34 2.65-4.37-1.62-6.01-3.02l-.16-3.57c-1.72.73-3.43 1.46-5.15 2.16 1.51-3.65 2.88-7.37 4.04-11.15.49-1.6.8-3.24 1.1-4.89z"/>
    <path fill="#400609" opacity=".56" d="M52.6 102.47c2.32-2.41 4.54-5.1 7.75-6.35-1.16 3.78-2.53 7.5-4.04 11.15-.32.25-.94.75-1.26 1 .31-2.14 1.2-4.12 2.3-5.96l-4.75.16z"/>
    <path fill="#200303" opacity=".47" d="M71.63 95.94c3.31 1.2 5.7 3.86 7.72 6.63-1.6 0-3.19-.01-4.78-.02-1.41-1.99-2.25-4.29-2.94-6.61z"/>
</svg>
