<svg width="128pt" height="128pt" viewBox="0 0 128 128" xmlns="http://www.w3.org/2000/svg">
    <path fill="#fdfdfd" d="M47.93 35.82c4.87-6.98 9.63-14.03 14.93-20.69-.29 11.33.64 22.66.06 33.98-2.13 5.7-6.07 10.79-7.42 16.81.83 3.35 2.15 6.56 3.39 9.78.48-.09 1.44-.27 1.91-.37 2.32 2.43 4.33 5.12 5.17 8.43.97-3.24 2.97-5.94 5.2-8.42l1.94.36c1.23-3.22 2.56-6.41 3.38-9.76-1.25-6.06-5.37-11.11-7.37-16.86-.21-11.32.18-22.64.07-33.96 5.35 6.77 10.09 14 15.17 20.96-2.04 2.97-4.49 5.62-6.84 8.33 0 4.04-1.11 7.94-1.85 11.88 2.18-3.49 2.26-7.68 2.86-11.62 2.77-2.94 5.26-6.12 7.65-9.38-.32-.97-.69-1.93-.93-2.92.8.54 1.59 1.11 2.4 1.66.59 4.69 1.18 9.42.94 14.16-1.7 2.12-4.05 3.55-6.13 5.26-1.31 3.23-2.55 6.52-3.63 9.84 2.44-2.5 3.34-6.01 4.22-9.29 3.21-2.5 6.51-4.92 9.31-7.9-.09 5.75-.99 11.46-2.62 16.98-.2 1.36-1.44 3.17.04 4.2 1.06-1.14 2.14-2.28 3.27-3.36-1.78 3.46-3.61 6.9-5.67 10.21l1.59 1.44c-2.51 4.15-6.33 7.17-10.23 9.92-2.73-.63-4.1-3.22-6.14-4.86.96 3 3.48 5.39 6.64 5.92-2.01.56-4.14.63-6.09 1.38-3.06 3.22-4.67 7.5-7.36 11.02-1.92-3.32-3.56-6.82-5.87-9.89-1.53-2.4-4.8-1.66-7.15-2.2 2.99-.91 5.71-3.04 6.52-6.18-2 1.66-3.33 4.25-6.07 4.83-3.99-2.91-7.79-6.12-10.44-10.35 2.8 2.53 6.57 1.95 10.03 2.3 1.05-1.86 2.15-3.75 2.43-5.9-1.17 1.48-1.91 3.25-3.08 4.73-2.27.06-4.53-.07-6.79-.29-1.96-4.09-4.37-7.94-6.35-12.01 1.45 1.23 2.7 2.68 4.27 3.77 2.75 1.11 5.76 1.04 8.68 1.12.67-.67 1.34-1.35 2-2.03-3.32 1.7-7.31 1.57-10.6-.09-2.25-6.6-3.55-13.52-3.71-20.5 2.71 3.04 6.06 5.35 9.2 7.86 1.18 3.16 1.84 6.72 4.31 9.2-.74-2.69-1.93-5.21-2.8-7.85-.71-3.67-5.49-4.02-6.92-7.23-.28-5.08.3-10.16 1.23-15.15 2.47 4 5.15 7.88 8.52 11.2 1.08 3.87.78 8.33 3.1 11.89-.8-3.93-1.68-7.85-1.86-11.88-2.22-2.79-4.93-5.21-6.51-8.48m29.94 31.13c2.78 3.36 7.57 1.57 11.16.89-1.89-1.21-3.95.22-5.96.25-1.82.36-3.46-.82-5.2-1.14m-.99 4.64c.13 2.2 1.22 4.14 2.52 5.85 2.83-.25 5.66-.37 8.5-.51-2.39-1.69-5.45-.41-8.12-.56-.94-1.61-1.82-3.26-2.9-4.78z"/>
</svg>
