<svg width="128pt" height="128pt" viewBox="0 0 128 128" xmlns="http://www.w3.org/2000/svg">
    <path fill="#ce2829" d="M63.33 14.26c1.2-.3 1.8 1.15 2.59 1.77 2.68 3.35 5.65 6.46 8.21 9.9-.9.69-1.8 1.39-2.7 2.08-1.4-1.72-3.04-3.25-5.18-3.98.01 1.74.08 3.48.11 5.22 3.86 2.71 8.79 3.03 12.65 5.74 5.58 3.6 11.77 6.6 16.08 11.82 4.09 4.39 6.48 10.12 10.82 14.3 1.1 1.24 2.74 1.62 4.25 2.09-1.92 1.97-4.53 3.13-6.24 5.33-1.55-.8-3.09-1.6-4.64-2.4.64-.54 1.92-1.63 2.56-2.17-.94-.92-1.89-1.83-2.76-2.81-.65-2.46-3.34-2.24-4.23-.07-.88.98-1.79 1.94-2.68 2.92 1.5 1.27 2.96 2.6 4.53 3.8-2.97-.13-5.88-.75-8.73-1.54.12-2.04.45-4.09 2.02-5.54-.57-.45-1.12-.92-1.65-1.4 2.38-.8 4.47-2.2 6.46-3.71-2.64-3.9-5.93-7.3-9.59-10.25-.5-.36-1.5-1.07-2-1.43-.18-.12-.55-.34-.74-.46-2.61-1.87-5.44-3.42-8.44-4.59-3.31-1.27-6.71-2.32-10.11-3.32-6.48 1.26-12.33 4.23-18.04 7.42-.51.34-1.53 1.04-2.04 1.38-4.37 2.97-8.33 6.65-10.87 11.35 1.77 1.31 3.49 2.7 5.21 4.08 1.15-1.19 2.31-2.38 3.47-3.57 1.53-.2 2.36-1.07 2.52-2.6 4.37-6.02 11.69-9.03 18.87-9.95 8.45.27 16.5 4.6 21.71 11.24-2.43.46-4.87.91-7.29 1.37-.69-.47-1.39-.92-2.1-1.35-.37-.47-1.12-1.41-1.5-1.88-5.27-2.7-11.66-3.55-17.25-1.33-5.57 2.79-9.51 7.75-14.29 11.57-1.63 1.32-3.31 2.58-4.95 3.88-.74-1.09-1.47-2.17-2.24-3.24-1.18-1.54-2.68-2.8-4.28-3.89-.43.15-1.27.46-1.69.61-.54-2.26-1-4.55-1.45-6.83.44-1.11 1.1-2.18 1.14-3.4l.05-.47c1.58-.59 2.51-2.05 3.62-3.21 4.34-5.24 10.59-8.24 16.21-11.84 3.02-1.77 6.52-2.45 9.57-4.12 1.11-.42 2.09-1.11 3.18-1.57-.03-1.66-.06-3.31-.12-4.97-2.34.38-3.93 2.14-5.48 3.78l-2.58-2.13c3.29-3.92 6.49-7.93 10.03-11.63z"/>
    <path fill="#a82021" d="M43.99 24.42c1.61 1.36 3.17 2.88 5.22 3.56l.1.31c.32.98.66 1.94.97 2.92-1.8.62-3.56 1.32-5.25 2.18l-3.5 1.47c.29-3.59 1.26-7.06 2.46-10.44z"/>
    <path fill="#aa2121" d="M76.1 30.92c.6-3.38 4.52-4.53 6.82-6.63.91 3.37 1.71 6.77 2.43 10.19-3.34-.45-6.11-2.5-9.25-3.56z"/>
    <path fill="#1c0505" opacity=".37" d="M49.31 28.29l2.07-.24c-.17 1.15-.52 3.45-.69 4.6 2.49-.74 4.93-2.1 7.61-1.87-3.05 1.67-6.55 2.35-9.57 4.12-1.23-.5-2.47-1-3.7-1.51 1.69-.86 3.45-1.56 5.25-2.18-.31-.98-.65-1.94-.97-2.92z"/>
    <path fill="#150404" opacity=".39" d="M89.95 35.32c1.54-2.34 4.67-1.81 7.08-1.87-2.33.73-4.7 1.34-7.08 1.87z"/>
    <path fill="#a22121" d="M29.57 33.59c3.13.75 6.24 1.51 9.33 2.42-1.48 3.34-5.3 4.67-7.07 7.84-2.5-2.65-1.5-6.93-2.26-10.26z"/>
    <path fill="#a52021" d="M89.95 35.32c2.38-.53 4.75-1.14 7.08-1.87-.35 3.24-.61 6.49-1.09 9.71-3.43-1.51-6.1-4.36-8.43-7.23.81-.21 1.63-.41 2.44-.61z"/>
    <path fill="#3a0b0b" opacity=".56" d="M74.03 38.88c3 1.17 5.83 2.72 8.44 4.59-3.04-1.07-6.13-2.23-8.44-4.59z"/>
    <path fill="#4b0e0f" opacity=".66" d="M43.84 44.36c.51-.34 1.53-1.04 2.04-1.38-.51.34-1.53 1.04-2.04 1.38z"/>
    <path fill="#1d0606" opacity=".42" d="M20.22 44.44c2.62-.28 5.28-.01 7.86.53 2.64.37.37 2.42-.37 3.49.28.49.85 1.47 1.14 1.96-.04 1.22-.7 2.29-1.14 3.4-.31.21-.94.64-1.25.86-.53-.77-1.07-1.53-1.61-2.28-.42.55-1.27 1.65-1.69 2.2-1.88-.47-1.6-3.01-2.36-4.44-.29-1.83-1.78-4.02-.58-5.72m.15.49c.75 3.01 1.54 6.02 2.46 8.98 2.11-2.52 4.01-5.21 5.67-8.04-2.69-.43-5.4-.75-8.13-.94z"/>
    <path fill="#470e0e" opacity=".65" d="M83.21 43.93c.5.36 1.5 1.07 2 1.43-.5-.36-1.5-1.07-2-1.43z"/>
    <g fill="#9c2021">
        <path d="M20.37 44.93c2.73.19 5.44.51 8.13.94-1.66 2.83-3.56 5.52-5.67 8.04-.92-2.96-1.71-5.97-2.46-8.98zM97.66 45.46c2.95-.55 5.94-.82 8.95-.91-.76 3.21-1.58 6.4-2.64 9.53-2.46-2.6-4.44-5.59-6.31-8.62z"/>
    </g>
    <path fill="#3e0d0c" opacity=".65" d="M73.86 53.05c.38.47 1.13 1.41 1.5 1.88-.4-.26-1.19-.76-1.59-1.02l.09-.86z"/>
    <path fill="#bd2429" d="M26.46 54.68c.31-.22.94-.65 1.25-.86.45 2.28.91 4.57 1.45 6.83-.27.27-.82.81-1.09 1.08-2.05.39-3.7 2.58-1.02 3.55 1.18.87 2.29 1.84 3.46 2.75l.6.44 1.95-2.39c.69-.72 1.38-1.43 2.07-2.15.77 1.07 1.5 2.15 2.24 3.24 1.64-1.3 3.32-2.56 4.95-3.88 3.87 4.9 8.47 9.25 13.84 12.45 4.63 2.06 10.03 1.81 14.76.23 5.45-3.02 9.81-7.59 14.09-12.04-2.53-2.54-4.8-5.34-7.55-7.65 2.42-.46 4.86-.91 7.29-1.37 1.31 1.37 2.4 2.93 3.59 4.41.53.48 1.08.95 1.65 1.4-1.57 1.45-1.9 3.5-2.02 5.54 2.85.79 5.76 1.41 8.73 1.54.97-.37 1.76-1.05 2.58-1.67 1.55.8 3.09 1.6 4.64 2.4-4.16 6.39-8.34 12.99-14.51 17.64-3.51 2.24-7.09 4.39-10.59 6.67-3.67 2.58-8.27 3.1-12.22 5.14-1.76.74-3.51 1.48-5.28 2.21.07-.36.2-1.08.26-1.44-3.78-2.9-8.74-3.14-12.65-5.79-5.8-3.68-12.12-6.89-16.64-12.21-5.1-5.29-7.45-13.15-14.27-16.72 3.28-2.48 6.47-5.24 8.1-9.13l.34-.22m6.46 17.31c6.2 10.19 17.44 16.45 28.69 19.43 3.48 1.16 6.77-1.11 10.14-1.68 8.89-3.9 17.7-9.19 23-17.63-1.74-1.15-3.38-2.44-4.84-3.92-1.46.58-2.8 1.5-3.58 2.89-1.81-.35-2.48.37-2.03 2.14-2.65 3.13-5.59 5.91-9.29 7.77l-.85-.36-.9.59-.02.92c-3.1.34-6.04 1.51-9.12 2-4.33-.64-8.76-1.56-12.58-3.78-5.57-2.77-8.7-8.47-13.44-12.31-1.64 1.43-3.37 2.74-5.18 3.94z"/>
    <path fill="#7a1715" opacity=".8" d="M41.65 56.22c.34-1.35 1.17-2.22 2.52-2.6-.16 1.53-.99 2.4-2.52 2.6z"/>
    <path fill="#991f1e" d="M59.31 54.23c5.96-2.54 13.37 1.24 14.87 7.52.74 4.42-3.08 7.73-6.22 10.14-5.84 3.04-14.09-2.23-13.66-8.87.12-3.39 1.69-7.37 5.01-8.79z"/>
    <path fill="#561110" opacity=".73" d="M94.85 61.08c.89-2.17 3.58-2.39 4.23.07-1.42.39-2.83.36-4.23-.07z"/>
    <path fill="#270707" opacity=".54" d="M27.05 65.28c-2.68-.97-1.03-3.16 1.02-3.55-.11 1.26-.45 2.44-1.02 3.55z"/>
    <path fill="#801816" opacity=".86" d="M30.51 68.03c.34-1.21 1.19-1.86 2.55-1.95l-1.95 2.39-.6-.44z"/>
    <path fill="#881c1c" opacity=".89" d="M84.3 73.22c-.45-1.77.22-2.49 2.03-2.14-.44.93-1.12 1.64-2.03 2.14z"/>
    <path fill="#210606" opacity=".57" d="M73.26 81.22l.9-.59.85.36c-.44.29-1.32.86-1.77 1.15l.02-.92z"/>
    <path fill="#0a0202" opacity=".25" d="M31.2 83.3c1.39-.31 1.89.23 1.52 1.62-1.39.31-1.89-.24-1.52-1.62z"/>
    <path fill="#b12123" d="M61.32 100.19c1.77-.73 3.52-1.47 5.28-2.21-.26 1.98-.3 3.99-.09 5.98 1.68-1.14 3.21-2.46 4.66-3.88.58.16 1.75.47 2.33.62.04.48.1 1.44.14 1.92-3.26 3.76-6.47 7.57-9.75 11.32-.94-.97-2-1.85-2.74-2.99-.37-.98-.99-1.73-1.89-2.26-2.2-2.04-3.92-4.53-5.99-6.69.47-.49 1.41-1.46 1.88-1.95.47.14 1.4.41 1.86.54.88 1.77 2.59 2.27 4.43 2.32l-.12-2.72z"/>
    <path fill="#130303" opacity=".38" d="M59.26 108.69c.9.53 1.52 1.28 1.89 2.26-1.79.22-2.42-.53-1.89-2.26z"/>
</svg>
