<svg width="128pt" height="128pt" viewBox="0 0 128 128" xmlns="http://www.w3.org/2000/svg">
    <g fill="#fff">
        <path d="M44.17 24.7c2.41 1.76 4.7 3.67 7.08 5.47-2.9 1.9-6.02 3.74-9.51 4.23.72-3.26 1.51-6.49 2.43-9.7zM75.86 30.08c2.39-1.88 4.8-3.74 7.1-5.73 1 3.29 1.79 6.65 2.29 10.06-3.32-.98-6.43-2.55-9.39-4.33zM30.04 33.76c3.1.84 6.3 1.39 9.24 2.75-2.47 2.42-5.27 4.51-7.49 7.18-1.58-3.06-1.3-6.61-1.75-9.93zM87.96 36.03c3.05-1.01 6.19-1.72 9.31-2.5-.57 3.31-.64 6.72-1.64 9.95-2.45-2.6-5.42-4.66-7.67-7.45zM20.41 44.84c2.9.27 5.79.53 8.68.85-1.88 2.92-3.79 5.83-6.04 8.48-1.04-3.06-1.78-6.22-2.64-9.33zM98.07 45.47c2.88-.31 5.76-.59 8.64-.82-.81 3.12-1.61 6.24-2.62 9.3-2.23-2.67-4.13-5.57-6.02-8.48zM59.31 54.49c6.22-2.76 14.65 1.43 15.01 8.49-.21 3.83-3.33 6.93-6.4 8.89-6.29 3.01-14.61-3.29-13.19-10.21.75-2.69 1.85-5.95 4.58-7.17z"/>
    </g>
</svg>
