<svg width="128pt" height="128pt" viewBox="0 0 128 128" xmlns="http://www.w3.org/2000/svg">
    <path fill="#540000" opacity=".73" d="M63.33 16.33l1.99.4c1.04 6.14 2.35 12.27 3.01 18.42l-.2-.5c-1.31-4.16-2.32-8.51-2.15-12.89l-.95.1c-.32 14.04-.06 28.09-.2 42.14-.14 1.68.23 3.54-.79 5.02-1.07-1.46-.73-3.33-.86-5.01-.1-13.38.06-26.77-.23-40.14-.14-1.23-.49-2.41-1.03-3.54.32-1.34.24-3.11 1.41-4z"/>
    <path fill="#7b0000" opacity=".82" d="M53.94 19.18c.51-1.11 1.24-2.07 2.11-2.93.31 6.79.18 13.64.07 20.41-.89 1.97-1.3 4.1-1.66 6.21-.83-1.05-1.6-2.15-2.38-3.23.22-1.6.41-3.2.57-4.81l-1.79.29c-.11.95-.32 2.87-.43 3.82-.2-.41-.6-1.23-.79-1.64-.19-3.88 1.3-7.64 2.16-11.41 1.04-.91.18-3.23 1.39-3.59.23 1.42.12 3.23 1.72 3.87.33-2.39.22-4.83-.97-6.99z"/>
    <path fill="#7d0000" opacity=".83" d="M72.07 17.18c1.56-.42 1.54 1.71 2.17 2.59 1.52 5.06 3.39 10.26 3.95 15.37-.17 1.45-.34 2.9-.53 4.34-.66-1.77.16-4.34-2.16-5.17.1 1.05.29 3.17.39 4.22-.88 1.45-1.74 2.91-2.62 4.36-.09-3.47-.08-7.05-1.47-10.3.12-5.12-.38-10.39.27-15.41z"/>
    <path fill="#820000" opacity=".89" d="M53.94 19.18c1.19 2.16 1.3 4.6.97 6.99-1.6-.64-1.49-2.45-1.72-3.87.18-.78.56-2.34.75-3.12z"/>
    <path fill="#9e0000" opacity=".91" d="M61.92 20.33c.54 1.13.89 2.31 1.03 3.54.29 13.37.13 26.76.23 40.14.13 1.68-.21 3.55.86 5.01 1.02-1.48.65-3.34.79-5.02.14-14.05-.12-28.1.2-42.14l.95-.1c-.17 4.38.84 8.73 2.15 12.89.63 2.14.83 4.43.53 6.64l-1.34.03c.37 11.02-1.01 22.28 1.39 33.1-2.45-.65-1.28 1.9-1.23 3.14.77-.07 2.31-.2 3.08-.26.67 2.04.11 2.58-1.66 1.61-2.13-1.67-3.55 1.19-2.68 3.02.21 1.74.45 3.5.93 5.19.33.48.98 1.44 1.31 1.91-2.06-.03-3.31 2.05-3.12 3.94-.66 5.47 1.6 10.63.92 16.08l.61 1.37c-1.96-.17-1.94 2.27-2.88 3.38-.79-1.19-.91-3.36-2.8-3.39 1.34-2.63-.21-5.73.83-8.43.89-3.25.69-6.68.59-10.02.01-1.54-1.32-2.72-2.78-2.88.24-.52.71-1.54.94-2.06.22-1.46.37-2.92.45-4.39.53-1.21 1.16-3.03-.11-3.99-1.78-.51-4.74 2.7-5.12-1.06 1.52-.24 3.04-.26 4.56-.06-.01-1.12 1.11-3.72-1.21-3.1 2.34-10.82.8-22.05 1.5-33.04-.39-.04-1.17-.11-1.56-.15-.36-7.1 2.58-13.82 2.64-20.9z"/>
    <path fill="#500" opacity=".6" d="M47.04 26.18l.77-.26c-.05 5.48.8 10.91.68 16.38.32-1.65.32-3.34.48-5.01l.67.01c.19.41.59 1.23.79 1.64.11-.95.32-2.87.43-3.82l1.79-.29c-.16 1.61-.35 3.21-.57 4.81-2.03 5.03.02 10.28.5 15.4 1.05 6.12-1.27 12.26.11 18.36-.67 2.94.6 5.52 2.21 7.88-.55 1.67-1.22 3.33-1.45 5.09-2.42 2.33-2.79 6.08-.98 9.01-2.29-.54-3.92-2.41-5.17-4.27.14-.64.41-1.93.54-2.58.73-9.8.34-19.68.29-29.51.95 2.07 1.77 4.2 2.78 6.25.45-5.47-2.07-10.62-4.02-15.59-3.74-7.33-3.08-16.24.15-23.5z"/>
    <path fill="#560000" opacity=".62" d="M80.19 25.98c.32.09.95.26 1.26.34 2.31 7.55 3.52 15.95-.36 23.25-1.94 4.96-4.39 10.18-3.95 15.61 1.2-2.39 2.1-4.9 3.27-7.29-.87 9.93-.87 19.93-.39 29.9.28 2.95-1.27 5.32-3.28 7.3l-1.42.42c1.04-2.1 1.68-4.31 1.2-6.66-.42-.5-1.28-1.52-1.7-2.03-2.31-.64-4.79-.79-7.07.03 2.11-1.24 4.52-1.49 6.91-1.43-.21-1.62-.58-3.21-.89-4.81 1.22-2.13 2.43-4.59 1.45-7.06l.08-.6c.63-3.14.69-6.39.03-9.52-.77-9.57 5.36-18.04 4.75-27.56.12-3.3.11-6.59.11-9.89z"/>
    <path fill="#410000" opacity=".57" d="M39.78 38.98c1.42-3.11-.49-7.64 2.41-9.88.7 5.85 1.56 11.69 2.5 17.44l-1.14.75c-.88-.21-1.7-.61-2.56-.89.32 2.14.71 4.29 1.37 6.35-1.33-2.55-2.17-5.33-3.46-7.91 1.66-.91.13-4.08.88-5.86z"/>
    <path fill="#3d0000" opacity=".51" d="M85.51 30.32l1.6-.12c.41 4.81 1.67 9.56 1.31 14.42l1.06.1c-1.03 3.06-4.03 6.88-.6 9.51-1.26 3-2.99 5.75-4.43 8.66l3.35-.18c-.82 1.22-1.79 2.33-2.63 3.53.82.19 1.63.38 2.44.58.34 4.71.23 9.47.06 14.19.12 1.29-1.38 1.64-2.07 2.44-.18.68-.35 1.37-.52 2.06-.91.29-1.83.56-2.75.83-.25 1.2-.46 2.41-.65 3.62-.56-.71-1.12-1.44-1.66-2.17-.48-9.97-.48-19.97.39-29.9-1.17 2.39-2.07 4.9-3.27 7.29-.44-5.43 2.01-10.65 3.95-15.61 3.81-5.61 3.3-12.81 4.42-19.25z"/>
    <path fill="#690000" opacity=".7" d="M71.8 32.59c1.39 3.25 1.38 6.83 1.47 10.3.88-1.45 1.74-2.91 2.62-4.36 2.88 6.84-.51 13.86-1.65 20.65-.47 1.53.52 2.9 1.09 4.25.66 3.13.6 6.38-.03 9.52-1.14-.35-2.31-.57-3.5-.64-.17-5.14-.02-10.29-.06-15.44.82-1.54 1.16-3.3.02-4.8-.01-6.49-.05-12.99.04-19.48z"/>
    <path fill="#230000" opacity=".51" d="M78.19 35.14c.47.18 1.42.55 1.89.73.61 9.52-5.52 17.99-4.75 27.56-.57-1.35-1.56-2.72-1.09-4.25 1.14-6.79 4.53-13.81 1.65-20.65-.1-1.05-.29-3.17-.39-4.22 2.32.83 1.5 3.4 2.16 5.17.19-1.44.36-2.89.53-4.34z"/>
    <path fill="#690000" opacity=".69" d="M54.46 42.87c.36-2.11.77-4.24 1.66-6.21.24 5.13.09 10.27.14 15.41-.74 1.58-1.2 3.33-.02 4.84.02 5.09.06 10.18 0 15.27-1.28.16-2.46.56-3.55 1.22-1.38-6.1.94-12.24-.11-18.36-.48-5.12-2.53-10.37-.5-15.4.78 1.08 1.55 2.18 2.38 3.23z"/>
    <path fill="#2c0000" opacity=".44" d="M34.99 38.02c2.88.67 2.38 4.82 3.91 6.82 1.29 2.58 2.13 5.36 3.46 7.91 1.17 2.15 2.44 4.3 2.85 6.75-1.79-1.54-3.02-3.57-4.39-5.47-1.81 4.08 3.07 6.79 3.94 10.43-4.37 3.63-2.68 9.65-2.85 14.54-.68 2.59.64 4.8.8 7.34l.85.13c1.59.45 2.24 3.63.82 4.18-.56-1.39-.83-4.14-3.08-3.39.01-1.05.03-2.1.08-3.15-1.54.24-3.08.29-4.62.15.05-.9.14-2.71.18-3.62-1.64-.25-3.49-.07-4.68-1.45.51-1.04 1.56-1.86 1.68-3.06-1-.99-2.57-1.5-2.92-3 1.04-.98 2.68-.67 3.95-1.17-1.85-3.08-4.57-5.56-6.17-8.8 1.08.13 3.24.38 4.31.5-1.41-2.23-3-4.42-3.54-7.07 2.41-.4 3.32 2.49 5.25 3.4.35-1.4-.45-2.68-.9-3.94-1.34-3.22-1.91-6.71-1.81-10.18 2.65.86 2.2 4.41 4.28 5.94.08-4.59-2.15-9.18-1.4-13.79z"/>
    <path fill="#300" opacity=".51" d="M89.48 44.72c1.27-2.05.68-6.15 3.53-6.73.69 4.41-1.3 8.89-1.63 13.34l-.95 1.16c-.51.58-1.03 1.16-1.55 1.74-3.43-2.63-.43-6.45.6-9.51z"/>
    <path fill="#3f0000" opacity=".51" d="M40.99 46.4c.86.28 1.68.68 2.56.89l1.14-.75.31-.2c.57 1.14 1.11 2.31 1.89 3.34 1.95 4.97 4.47 10.12 4.02 15.59-1.01-2.05-1.83-4.18-2.78-6.25.05 9.83.44 19.71-.29 29.51-.48.63-1.45 1.89-1.93 2.51 0-1.93.01-3.87-.01-5.81l-1.61 1.51c-.18-.07-.55-.2-.73-.27l-.85-.13c-.16-2.54-1.48-4.75-.8-7.34.17-4.89-1.52-10.91 2.85-14.54-.87-3.64-5.75-6.35-3.94-10.43 1.37 1.9 2.6 3.93 4.39 5.47-.41-2.45-1.68-4.6-2.85-6.75-.66-2.06-1.05-4.21-1.37-6.35z"/>
    <path fill="#2a0000" opacity=".43" d="M91.78 52.34c1.46-2.13 1.55-5.39 4.1-6.61.47 5.08-1.61 9.77-3.27 14.41 2.21-.79 3.26-3.83 5.8-3.57-.43 2.26-1.69 4.18-2.83 6.13.85.12 2.56.36 3.41.49-.97 3.49-4.77 5.64-5.59 8.94 1.24.16 2.45.41 3.65.75-.21 1.75-1.97 2.29-3.14 3.29.59 1.04 1.19 2.06 1.82 3.07-1.34 1.06-3.04 1.17-4.66 1.45.03.9.07 2.69.09 3.58-1.5.14-3.01.09-4.51-.15.34 1.36.17 2.52-.52 3.48-.71-.05-2.13-.16-2.84-.22 0 1.1-.12 2.17-.37 3.23-2.67.69-3.46 3.89-6.18 4.48 2.01-1.98 3.56-4.35 3.28-7.3.54.73 1.1 1.46 1.66 2.17.19-1.21.4-2.42.65-3.62.92-.27 1.84-.54 2.75-.83.17-.69.34-1.38.52-2.06.69-.8 2.19-1.15 2.07-2.44.17-4.72.28-9.48-.06-14.19-.81-.2-1.62-.39-2.44-.58.84-1.2 1.81-2.31 2.63-3.53l-3.35.18c1.44-2.91 3.17-5.66 4.43-8.66.52-.58 1.04-1.16 1.55-1.74.33-.04 1.01-.12 1.35-.15z"/>
    <path fill="#050000" opacity=".19" d="M75.22 73.55c.98 2.47-.23 4.93-1.45 7.06-1.84 2.07-5.23 3.34-7.55 1.32-.87-1.83.55-4.69 2.68-3.02.37.39 1.13 1.16 1.51 1.54 1.38-.36 1.92-1.87 1.96-3.16.27.79.75 1.35 1.43 1.67.49-1.79.86-3.62 1.42-5.41z"/>
    <path fill="#790000" opacity=".78" d="M66.22 81.93c2.32 2.02 5.71.75 7.55-1.32.31 1.6.68 3.19.89 4.81-2.39-.06-4.8.19-6.91 1.43l-.6.27c-.48-1.69-.72-3.45-.93-5.19z"/>
    <path fill="#8b0000" opacity=".8" d="M53.45 86.37c.23-1.76.9-3.42 1.45-5.09 1.59 1.89 4.15 1.42 6.32 1.35-.08 1.47-.23 2.93-.45 4.39-2.29-1.08-4.87-.8-7.32-.65z"/>
</svg>
