<svg width="128pt" height="128pt" viewBox="0 0 128 128" xmlns="http://www.w3.org/2000/svg">
    <path fill="#fdfdfd" d="M63.17 15.24c.48 15.24.49 30.5.46 45.75.58 17.53.47 35.08.18 52.61-.19-1.53-.92-2.67-2.18-3.42-.03-6.13 1.81-12.17 1.13-18.31-.05-1.73-1.73-2.56-2.94-3.44.37-.31 1.1-.94 1.46-1.26-3.02-1.7-7.92-2.46-9.81 1.21-1.67 2.29-.2 4.86.86 7.04-2.8-1.49-5.51-4-4.44-7.54-.8 1.12-1.6 2.26-2.4 3.39.08-1.85.17-3.7.27-5.55-1.48.46-2.97.92-4.46 1.37.58-1.43 1.15-2.86 1.76-4.27-1.97.45-3.95.8-5.94 1.15.43-1.02 1.28-3.05 1.71-4.07-2.16-.12-4.32-.31-6.47-.61 1.16-1.01 2.34-1.99 3.54-2.95-1.68-1.07-3.37-2.14-5.09-3.15 2.01-.07 4.01-.34 6.01-.62-3.02-3.27-5.54-6.94-8.25-10.46 2.43 1.89 5.04 3.53 7.67 5.12-2.39-3.66-4.75-7.35-6.75-11.24 4.01 4.12 8.47 7.78 13.47 10.65-2.35-2.24-5.16-4.15-6.71-7.08-2.28-4.36-3.5-9.23-3.84-14.12C36 54.06 40.55 62.99 48.6 68.25c-5.38-4.92-9.65-11.15-11.58-18.23-.89-4.34-1.25-8.76-1.85-13.14 3.3 8.63 5.75 17.93 11.86 25.12-2.9-5.1-5.95-10.32-6.68-16.25-.61-6.19.87-12.31 1.6-18.41-.03 7.55.98 15.13 3.65 22.23 2 5.18 3.64 10.49 5.39 15.76-.97-9.67-6.84-18.36-6.32-28.28.62-4.27 2-8.38 2.73-12.63.03 5.51.04 11.05.85 16.52 1.49 7.69 5.28 14.98 4.48 23.01 2.84-7.21-3.41-14.15-1.75-21.46.88-3.84 1.54-7.74 1.64-11.69-.47 2.02-1.4 6.07-1.86 8.09l-1.55-.17c1.33-7.66 3.19-15.36 6.53-22.42-.25 11.53.51 23.14-.36 34.62-1.55-2.15-1.85-4.8-2.2-7.34-.16 4.63 1.35 9.04 2.51 13.45.21 5.06-.04 10.13.12 15.2-2.68-.81-4.31 2.42-3.51 4.64.6 3.95 5.15 7.84 9.09 5.63 1.01-1.32 1.09-3.2-.48-4.16-1.14.17-2.23.54-3.25 1.11-.64-.59-1.28-1.19-1.92-1.79 1.74-.16 3.49-.23 5.22-.5.71-1.5.24-2.52-1.42-3.08 2.01-9.54 1.1-19.35 1.38-29.02-.25-1.66.79-4.5-1.85-4.54 1.06-8.48 3.25-16.77 4.1-25.28z"/>
</svg>
