<svg width="128pt" height="128pt" viewBox="0 0 128 128" xmlns="http://www.w3.org/2000/svg">
    <path fill="#fdfdfd" d="M50.06 53.01c5.23-12.9 12.77-24.79 16.61-38.24-.92 11.24-1.58 22.54-4.17 33.55-.58-3.21-1.85-6.21-2.85-9.29.34-.63 1.04-1.91 1.38-2.55.62 1.17 1.23 2.34 1.83 3.52-.05-.67-.14-2.01-.19-2.67-.74-.45-1.49-.89-2.23-1.33l-1.8 1.84c.06.7.16 2.09.22 2.79-2.39.75-2.74 2.68-1.36 4.57.07-.9.23-2.7.3-3.6.47.18 1.41.55 1.88.73 1.95 4.9 2.73 10.19 2.51 15.44-1.36-2.6-3.79-4.05-6.66-4.34-.5-2.32-.31-5.99 3.12-4.79-.45 1.02-.89 2.04-1.33 3.07.77-.71 2.82-1.14 2.15-2.55-.2-2.21-3.76-2.5-4.75-.69-1.11 1.93-.48 4.22.53 6.03-2.15 1.32-2.03 3.88-2.07 6.07l-2.01-.01c.1-.93.3-2.79.39-3.72-.84 1.38-2.3 3.69-.07 4.61 1.92-.31 3.76.25 5.66.4 1.45-.01 1.88-1.67 2.71-2.55-1.54.89-3.15 2.25-4.93.94-2.05-2.22.13-6.39 3.17-5.25 3.59 2.2 4.07 6.75 4.98 10.46-2.38.01-4.41 2.04-2.68 4.21.13-.66.39-1.98.53-2.65l1.44-.7c.21.28.65.84.87 1.13 2.57 7.02 4.09 14.4 5.29 21.77-.52-2.15-4.49-5.95-6.37-2.91-1.31 1.83.16 3.93 1.74 4.99-.6-1.37-2.08-5.71.99-4.81 3.54 2.59 3.21 7.69 2.32 11.51-1.01 3.86-1.86 8.01-4.41 11.19-.09-2.79 1.67-6.2-.99-8.3.22 3.3-.28 6.59-.29 9.88.32.34.97 1.01 1.29 1.35-.72-.51-1.45-1-2.18-1.48-.15-.65-.44-1.95-.59-2.6-9.2-4.4-17.44-12.57-18.93-23.03-.44-11.34 4.22-21.96 8.95-31.99m-1.64 11.72c.52.54 1.58 1.62 2.1 2.15-.24 2.37 1.5 5.98-1.59 7.06-2.16 1.42-2.98-1.87-2.77-3.38.83.37 2.48 1.11 3.31 1.48-.65-1.05-1.89-3.04-3.36-1.99-2.04 1.42-.85 5.37 1.85 5.14 2.34.24 3.44-2.04 3.96-3.93.54 0 1.62.01 2.16.02.3-.58.92-1.72 1.23-2.3-1.13.9-2.35 1.27-3.68 1.11-.37-1.41-.47-3.64 1.36-4.04 1.73-.53 2.91 1.51 3.21 2.91.78 3.37-2.53 5.4-3.54 8.26l-1.9-.77c-1.28 1.13-1.06 2.6-.31 3.99.13-.77.38-2.31.5-3.08 3.31 1.82 1.19 6.96 4.84 8.88-.57.36-1.14.73-1.71 1.11-1.21-1.43-2.95-1.62-4.69-1.48.41-2.19-.62-5.96-3.53-5.21-1.87.87-1.01 2.86-.86 4.4l.51-.1c.01-1.1.74-5.1 2.17-2.73 1.63 1.69-.29 3.87-.6 5.72-1.39 3.57 1.21 7.79 4.79 8.73 3.31 1.11 7.75 1.18 9.34 4.9.38-.57.76-1.15 1.14-1.73-3.58-3.54-9.63-2.21-12.94-6.14-1.69-1.82-2.2-5.85.47-7.02 2.14.15 5.26 2.15 4.18 4.59-1.44 1.5-2.73-.91-4.08-1.29.65.91.94 2.24 2.03 2.77 2.07.62 4.31-1.89 3.39-3.91.48-.49.96-.99 1.44-1.48 2.22 4.13 6.91 7.44 6.2 12.69-.13 1.02 1.06.84 1.07-.05.54-8.24-8.25-12.4-10.21-19.74-.68-3.13.9-8.38 5.05-7.1 2.56.12 3.35 2.78 3.89 4.82-.78 1.16-1.76 2.13-2.93 2.88-2.15-1.2-1.54-3.41-1.11-5.36-1.15.98-2.46 2.57-1.42 4.13 1.02 2.13 3.68 1.89 5.51 1.14 2.75-3.97-.59-10.03-5.65-8.75 1.03-2.63-.06-5.32-2.26-6.91-1.76-.09-3.5.3-5.25.35l1.12-3.16c-.84.78-1.65 1.58-2.43 2.42m16.84 24.51c.47.6.47.6 0 0z"/>
</svg>
