<svg width="128pt" height="128pt" viewBox="0 0 128 128" xmlns="http://www.w3.org/2000/svg">
    <g fill="#fdfdfd">
        <path d="M68.41 23.59c3.8 11.6 7.38 23.34 12.97 34.24-.34.65-.69 1.3-1.03 1.94-2.15-1.67-2.33 1.07-3.17 2.11-.72.67-1.43 1.35-2.13 2.03 1.08-.46 2.15-.94 3.22-1.43.17 1.53.08 5.1-2.44 4.18-2.27-.22-2.59-3.6-1.12-5.01 2.03-2.37 1.2-5.88-.4-8.26.52-1.06 1.91-2.21 1.15-3.5-.91-1.12-2.16-.17-3.12.26.36.26 1.09.76 1.46 1.02.06 2.58-3.04.71-4.48.92 1.88-3.41 4.48-7.21 2.99-11.28-.42-1.74-2.74-3.35-4.06-1.46-1.59 1.82-.11 3.97 1.51 5.1-.68-1.67-2.34-4.24.22-5.28 1.43 1.04 1.92 2.95 1.8 4.65-1.09 5.69-6.77 10.11-5.56 16.3 1.13 6.34 4.44 12.18 4.36 18.77.37 0 1.1-.01 1.47-.01-.27-3.27 1.43-8.93 5.66-7.68 3.07.92 1.76 6.05-1.4 4.95-.3-.58-.89-1.75-1.19-2.33.25 1.09-.12 2.54.89 3.31 1.9.78 3.78-.78 4.39-2.53 3.12 1.86 4.51-1.42 5.54-3.75.6 6.26 2.79 12.94.16 19.03-2.28 4.8-5.18 9.52-9.51 12.75-4.32 3.46-9.61 5.51-13.64 9.37 2.12-3.04 2.56-7.36 5.93-9.36 4.63-3.18 9.13-6.63 13.02-10.7 2.43-2.32 3.16-6.28 1.22-9.14-.53-1.33-2.29-2.57-.97-4.11 2.03-.09 1.98 2.23 2.77 3.54.13-1.95-.38-3.76-1.86-5.09-1 .99-1.99 2-2.94 3.03-1.72.24-3.86.18-4.95 1.8-2.08 2.59-.92 6.58 1.96 8.05-.28 1.58-3.43 4.37-3.32 1.08-.06-.64-.17-1.9-.23-2.54-1.5 1.54-1.06 5 1.42 5 2.04.17 2.43-2.37 2.73-3.86 3.54-.25 3.42-4.27 1.27-6.19.36 1.54.42 3.08.18 4.6-1.55 1.01-3.67-.46-3.8-2.15-.16-1.59.88-2.92 1.52-4.29 2.4-.17 5.79.3 5.73 3.45 1.48 5.73-4.39 9.28-8.07 12.47-.65-1.68-1.87-2.36-3.52-1.79.57.31 1.72.93 2.29 1.24-1.38 2.6-4.18 3.81-6.32 5.64 2.01-6.96 2.76-14.19 4.25-21.26-.39-.8-.79-1.59-1.2-2.38-.15 1-.44 3.02-.58 4.03-1.63-11.93-8.75-23.64-4.88-35.89.69.5 2.07 1.5 2.75 2l-2.79.28c1.13 1.13 2.87 1.1 3.57-.5-.21-2.12-2.09-3.04-3.96-2.04 1.65-7.73 4.17-15.33 4.24-23.33z"/>
        <path d="M69.03 53.31c.78-.05 2.35-.16 3.13-.22 1.18 1.46 2.9 2.89 2.62 4.98.24 2.08-2.04 3.47-3.9 2.95-1.54-1.77-.04-3.41.9-4.99-4.16.43-3.27 7.14.9 6.45.05 1.79-.14 3.99 1.74 4.95 2.2 1.18 4.43-.65 5.19-2.66-.22-1.46-2.54-4.22-.03-4.69.26.44.79 1.33 1.06 1.78.35-1.07.73-2.13 1.15-3.17 1.12 3.74 2.42 7.43 3.72 11.11-.47.74-.94 1.48-1.4 2.22l-.95-2.25c-.89.65-1.76 1.32-2.62 2 .54-.15 1.64-.44 2.18-.59.44.47 1.32 1.42 1.76 1.89-1.03.35-2.07.68-3.11 1-1.37-1.69-2.51-4.65-5.15-4.26-2.64-.17-3.7 2.68-4.97 4.46-.47-2.48-1.08-4.92-1.46-7.41.66.3 1.98.9 2.64 1.19-.33-2.1-1.39-2.5-3.17-1.19-1.58-4.32-3.19-9.4-.23-13.55z"/>
    </g>
</svg>
