<svg width="128pt" height="128pt" viewBox="0 0 128 128" xmlns="http://www.w3.org/2000/svg">
    <path fill="#130202" opacity=".37" d="M57.61 22.15c.32-2.94-.79-6.34.96-8.94 1.12 1.86 2.32 3.8 2.29 6.06-.79-1.46-1.57-2.93-2.33-4.4-.41 3.09 1.63 7.46-1.52 9.65.08 1.43.17 2.85.29 4.27l-1.13.01c-.03-1.58-.07-3.16-.14-4.73.4-.48 1.19-1.44 1.58-1.92z"/>
    <path fill="#92120e" opacity=".94" d="M58.53 14.87c.76 1.47 1.54 2.94 2.33 4.4l.17.44c1.41 4.55 1.38 9.4-.62 13.77-.86-.93-1.73-1.86-2.6-2.78l-.4-.44c-.03-.36-.09-1.1-.11-1.47-.12-1.42-.21-2.84-.29-4.27 3.15-2.19 1.11-6.56 1.52-9.65z"/>
    <path fill="#130202" opacity=".38" d="M49.2 27.36c.36-2.77-.57-6.88 2.86-8.05.8 3.96 1.27 7.98 2.49 11.85-.1 2.64-1.06 5.19-1.95 7.66-1.81 1.48-2.94-1.44-3.42-2.76-.8-2.66-2.75-6.22-.03-8.4-.99 3.88.8 7.52 2.34 10.96.83-2.24 1.64-4.5 2.42-6.76-1.8-3.41-1.83-7.33-2.21-11.08-1.65 1.81-1.99 4.29-2.5 6.58z"/>
    <path fill="#130202" opacity=".42" d="M61.03 19.71c3.16 4.45 2.26 10.6-.14 15.18-1.94-.58-2.76-2.32-3.08-4.19.87.92 1.74 1.85 2.6 2.78 2-4.37 2.03-9.22.62-13.77z"/>
    <path fill="#7a0f0c" opacity=".78" d="M49.2 27.36c.51-2.29.85-4.77 2.5-6.58.38 3.75.41 7.67 2.21 11.08-.78 2.26-1.59 4.52-2.42 6.76-1.54-3.44-3.33-7.08-2.34-10.96l.05-.3z"/>
    <path fill="#2a0504" opacity=".51" d="M66.57 32.06c2.03-2.67.06-6.82 2.58-8.97.17.46.53 1.38.7 1.84-.9 3.06-4.04 7.88-.2 10.09-.19.36-.55 1.1-.73 1.47-1.19-1.24-1.78-2.85-2.35-4.43z"/>
    <path fill="#800f0d" opacity=".87" d="M69.65 35.02c-3.84-2.21-.7-7.03.2-10.09l.44 1.57c.43 2.02.67 4.1.43 6.16-.26.59-.8 1.77-1.07 2.36z"/>
    <path fill="#190302" opacity=".45" d="M70.29 26.5c1.51 1.72 1.46 4.04 1.58 6.19l-1.15-.03c.24-2.06 0-4.14-.43-6.16z"/>
    <path fill="#160302" opacity=".39" d="M77.92 46.06c-3.74-3.64-4.18-10.82.49-13.94-2.3 3.43-3.48 7.85-.75 11.45 1.91-2.93 2.79-6.39 1.36-9.71 3.87 3.32.31 8.52-1.1 12.2z"/>
    <path fill="#8a1112" opacity=".87" d="M78.41 32.12c.15.43.46 1.3.61 1.74 1.43 3.32.55 6.78-1.36 9.71-2.73-3.6-1.55-8.02.75-11.45z"/>
    <path fill="#2d0406" opacity=".57" d="M60.61 39.07c-.87-1.34-.65-2.44.65-3.3 1.38.61 1.64 1.59.79 2.96-.36.08-1.08.25-1.44.34z"/>
    <path fill="#720d0d" opacity=".82" d="M57.73 39.56c.72-.12 2.16-.37 2.88-.49.36-.09 1.08-.26 1.44-.34.3.57.91 1.72 1.21 2.29.59 2.84.19 5.74.29 8.61-.78-.22-1.54-.51-2.34-.64-1.21-.18-2.42-.29-3.64-.33-1.71-2.92.09-6.03.16-9.1z"/>
    <path fill="#0d0101" opacity=".35" d="M63.26 41.02c.97 1.21 2 2.36 3.07 3.47-.15 1.51-.25 3.03-.35 4.55-4.04 5.85 1.38 13.55-3.05 19.35.39-1.94.48-3.92.3-5.88 1.21-2.85.33-5.86-.36-8.72.53-1.32.78-2.73.68-4.16-.1-2.87.3-5.77-.29-8.61z"/>
    <path fill="#710c0c" opacity=".8" d="M66.33 44.49c.08-.68.23-2.05.31-2.74.91-.04 2.71-.13 3.61-.17 1.92 2.94 2.83 6.34 3.31 9.78l-.68.68c-.51.5-1.03 1-1.54 1.49-1.3-.8-2.61-1.6-3.89-2.45-.36-.51-1.1-1.53-1.47-2.04.1-1.52.2-3.04.35-4.55z"/>
    <path fill="#740c0c" opacity=".81" d="M51.09 43.88c1.52.68 3.63 1.08 3.88 3.09.54 3.56.45 7.23.5 10.84-.31.22-.93.66-1.25.88.38 1.07.76 2.15 1.13 3.23-.81 2.43-1.27 5.01-.99 7.57.82 1.15 1.8 2.19 2.47 3.44-1.41-.75-2.83-1.51-4.3-2.14l-1.01-.41c-.63-.79-1.27-1.57-1.9-2.35-.08-3.11.57-6.15 1.01-9.21-2.8-1.88-1.42-5.29-2.7-7.92-.25-2.65 1.55-5.05 3.16-7.02z"/>
    <g fill="#5c0a0a">
        <path opacity=".66" d="M61.21 48.99c.8.13 1.56.42 2.34.64.1 1.43-.15 2.84-.68 4.16.69 2.86 1.57 5.87.36 8.72.18 1.96.09 3.94-.3 5.88l-.15.86c-3.84-2.03-1.45-6.85-3.14-10.06-1.51-3.02-.84-6.4-1.12-9.63.68-.14 2.02-.43 2.69-.57zM45.2 91.81c1.83 2.5 2.87 5.45 3.77 8.39-1.96-.67-3.64-2.49-3.81-4.59l-.04-1.53.08-2.27z"/>
    </g>
    <path fill="#6b0b0b" opacity=".75" d="M74.82 50.08c.6.12 1.78.37 2.37.49 1.22 2.2 2.86 4.14 4.04 6.36.3 2.41.22 4.86.21 7.29-.79-.91-1.59-1.81-2.4-2.7-.87.74-1.74 1.48-2.6 2.23-3.8-3.73-1.74-9.08-1.62-13.67z"/>
    <path fill="#060101" opacity=".31" d="M37.5 58.88c-.98-3.34 1.22-6.18 2.7-8.96-.43 1.95.32 4.72-2.01 5.67.13 1 .27 2 .41 3l-1.1.29z"/>
    <path fill="#97120e" opacity=".92" d="M40.2 49.92l.36 1.06c.86 2.43 1.73 4.99 1.12 7.6l-.56 2.85-1.72-1.6-.68-.43-.12-.81c-.14-1-.28-2-.41-3 2.33-.95 1.58-3.72 2.01-5.67z"/>
    <path fill="#150202" opacity=".42" d="M40.56 50.98c2.52 1.62 2.35 5.25 2.27 7.91l-1.15-.31c.61-2.61-.26-5.17-1.12-7.6z"/>
    <path fill="#630a0b" opacity=".7" d="M67.45 51.08c1.28.85 2.59 1.65 3.89 2.45.51-.49 1.03-.99 1.54-1.49.35 4.07-1.91 7.97-.73 12 .3 3.04-.04 6.19 1.29 9.04-1.62 2.03-3-.7-3.89-1.82-.9-1.31-1.37-2.85-1.91-4.33 2.25-5.06.38-10.64-.19-15.85z"/>
    <path fill="#0f0201" opacity=".37" d="M39.4 59.83l1.72 1.6c-.43 2.03-3.15-.53-1.72-1.6z"/>
    <path fill="#5e0a0a" opacity=".67" d="M79.04 61.52c.81.89 1.61 1.79 2.4 2.7.37 1.46-.43 2.75-1.05 3.99-1.04 1.97-1.08 4.27-1.97 6.3 2.38 2.02 5.22 4.17 5.52 7.54-.92.99-1.83 1.99-2.74 2.99 1.24 1.82 1.24 3.95 1.37 6.05 1.2 1.77 1.54 4.05.42 6-.08-1.34-.15-2.68-.22-4.01l-.68.03c.05 1.4.13 2.79.19 4.18-1.18 1.27-.99 3.03-1.23 4.62-.72 2.49-2.93 4.06-4.83 5.64-.86-3.47-1.2-7.17.24-10.54-.3-.2-.88-.6-1.18-.8-.92-.68-1.93-1.19-3.03-1.52-.4-.16-1.21-.47-1.61-.62-.28.87-.55 1.74-.82 2.61-.56-.56-1.11-1.13-1.65-1.7-2.95-3.75-5.06-9.14-10.23-10.19 1.7 2.65 4.39 4.41 6.42 6.77 1.24 2.32 1.35 5.01 1.78 7.56-1.65-2.49-3.5-4.88-6.03-6.52 1.28 2.11 2.58 4.24 3.5 6.55-3.99 1.25-7.52 3.53-11.26 5.35-4.48-4.05-.58-10.45-1.97-15.44-.73-1.57-.93-3.27-.95-4.97 2.04.79 4.09.3 5.96-.66l-3.62.12c-.28-.63-.85-1.89-1.13-2.51.37-2.22-1.53-3.94-1.31-6.09 1.08-1.38 2.29-2.66 3.2-4.16 1.47.63 2.89 1.39 4.3 2.14.56.29 1.08.64 1.57 1.03-.51-2.91 2.64-2.55 4.57-2.73 4.11-.6 8.06 1.93 10.65 4.91 0-.82-.01-2.46-.01-3.28.72-.08 2.16-.22 2.88-.3.78-2.89 1.08-5.97-.05-8.81.86-.75 1.73-1.49 2.6-2.23M57.7 79.8c.97 1.24 2.04 2.42 3.2 3.5 2.53-.43 5.37.35 7.7-.91-3.74-.41-7.52-.8-10.9-2.59z"/>
    <path fill="#660a0e" opacity=".89" d="M41.51 69.38c.52.59.52.59 0 0z"/>
    <path fill="#6a0c0c" opacity=".76" d="M37.44 70.63c.67-.09 2.02-.26 2.69-.35 2.9 2.42 5.95 5.3 5.53 9.47-3.15.53-5.97 2.01-7.62 4.83-1.91-2.12 1.46-4.62.25-6.93-.86-2.22-1.3-4.65-.85-7.02z"/>
    <path fill="#4e0809" opacity=".64" d="M38.04 84.58c1.65-2.82 4.47-4.3 7.62-4.83-.81 1.76-.75 3.74-1.25 5.59-3 2.26-2.6 6.97.71 8.74l.04 1.53c-1.47-.32-3.37-.03-4.26-1.53-.92-3.18-1.72-6.39-2.86-9.5z"/>
    <path fill="#150202" opacity=".47" d="M57.7 79.8c3.38 1.79 7.16 2.18 10.9 2.59-2.33 1.26-5.17.48-7.7.91-1.16-1.08-2.23-2.26-3.2-3.5z"/>
    <path fill="#160202" opacity=".41" d="M57.94 84.79c5.17 1.05 7.28 6.44 10.23 10.19-.52 5.07-2.13 10.73.96 15.33-1.47.77-2.93 1.57-4.4 2.36-1.02-1.92.1-3.64 1.52-4.92.23-2.68.45-5.38.2-8.06l-1.83-.21c-.46 2.87.83 6.45-1.3 8.81.09-3.05.35-6.09.29-9.14-.92-2.31-2.22-4.44-3.5-6.55 2.53 1.64 4.38 4.03 6.03 6.52-.43-2.55-.54-5.24-1.78-7.56-2.03-2.36-4.72-4.12-6.42-6.77z"/>
    <path fill="#4a0707" opacity=".61" d="M70.64 94.07c.4.15 1.21.46 1.61.62-.51 1.83 1.93 3.24 3.03 1.52.3.2.88.6 1.18.8-1.44 3.37-1.1 7.07-.24 10.54l.08.44c-2.06 1.4-4.26 2.62-6.66 3.32l-.51-1c-3.09-4.6-1.48-10.26-.96-15.33.54.57 1.09 1.14 1.65 1.7.27-.87.54-1.74.82-2.61z"/>
    <path fill="#1a0202" opacity=".49" d="M72.25 94.69c1.1.33 2.11.84 3.03 1.52-1.1 1.72-3.54.31-3.03-1.52z"/>
    <path fill="#500709" opacity=".62" d="M52.35 104.5c3.74-1.82 7.27-4.1 11.26-5.35.06 3.05-.2 6.09-.29 9.14-1.09.52-2.15 1.11-3.19 1.73-2.7-1.68-5.26-3.57-7.78-5.52z"/>
</svg>
