<svg width="128pt" height="128pt" viewBox="0 0 128 128" xmlns="http://www.w3.org/2000/svg">
    <path fill="#fdfdfd" d="M44.98 40.51c2.06 1.6 4.16 3.15 6.31 4.62 0 5.21.27 10.43.13 15.65 2.62 2.83 5.44 5.47 7.83 8.52 3.2-.02 6.4.01 9.6 0 2.6-2.83 5.05-5.8 7.86-8.43-.03-5.23.14-10.46.15-15.69 2.14-1.48 4.25-3.03 6.27-4.67.15 2.32.17 4.63.23 6.95 1.25 1.36 3.32 2.5 2.77 4.71-.01 7.53-.01 15.06.01 22.6-2.29 1.09-4.48 2.38-6.46 3.97-1.77-.72-3.37-1.78-4.89-2.93-2.31 2.17-4.69 4.27-7.1 6.33 1.23 1.26 2.51 2.47 3.7 3.77-2.39 3.46-1.57 7.74-1.49 11.67-3.82.72-7.7.5-11.54.06-.04-3.95.71-8.19-1.52-11.73 1.1-1.36 2.32-2.61 3.57-3.83-2.37-2.07-4.69-4.2-7.11-6.2-1.47.97-2.92 1.96-4.38 2.93-2.24-1.42-4.53-2.76-6.83-4.1.11-8.18.02-16.37.06-24.56 3.47-2.12 2.72-6.16 2.83-9.64z"/>
</svg>
