<svg width="128pt" height="128pt" viewBox="0 0 128 128" xmlns="http://www.w3.org/2000/svg">
    <path fill="#810d0d" opacity=".82" d="M42.58 14.41c2.73 1.35 5.65 3.38 6.3 6.57.97 4 1 8.75 4.5 11.56 2.18 2.45 5.55 2.8 8.6 3.2.12 1.4.23 2.81.35 4.21.54-.04 1.62-.13 2.17-.17-.02-1.3-.04-2.59-.05-3.88 1.63-.32 3.27-.61 4.89-1 7.47-2.36 7.61-11 10.24-17.05 2.07-.94 4.16-1.82 6.3-2.59-.55 2.99-3.48 5.64-2.19 8.82 1.82 5.2 5.58 9.57 6.78 15.02.5 3.31.06 6.68-.15 10 .65.83 1.31 1.66 1.96 2.49-1.19-.04-2.37-.07-3.55-.11-.24-.99-.49-1.98-.73-2.97-.73.38-1.47.76-2.2 1.14-.55-.9-1.09-1.8-1.64-2.7-1.4-2.22-3.17-5-6.18-4.8-3.73-.76-6.61 2.57-7.53 5.81-.8 2.89 1.17 5.4 2.39 7.82-2.41.62-4.97.82-7.37 0-.3-.26-.9-.79-1.2-1.05.06.36.19 1.08.25 1.44-1.35.68-2.7 1.34-4.06 1.98.23-1.45.97-2.56 2.24-3.35-.98.34-1.96.67-2.94.99-.56 1.48-1.13 2.96-1.68 4.45-1.92-1.91-3.93-3.72-6.06-5.39 5.49-1.35 5.86-8.61 2.53-12.27-3.59-2.48-9.37-1.38-10.54 3.22-.51 1.14-1 2.28-1.49 3.42-2.03-.61-4.05-1.22-6.07-1.83.91-4.78 1.69-9.59 2.82-14.32.81-3.5 4.16-5.66 5.14-9.1 1.06-3.31-1.03-6.44-1.83-9.56z"/>
    <path fill="#1f0303" opacity=".48" d="M48.88 20.98c4.4-.87 8.63-2.51 13.08-3.14 5.25-.31 10.38 1.3 15.26 3.08.79-1.02 1.58-2.04 2.36-3.07-2.63 6.05-2.77 14.69-10.24 17.05-1.81-.22-3.61-.53-5.41-.82-.11-1.29-.23-2.57-.35-3.85l.59.35c.14.85.41 2.54.55 3.39 2.57-.66 5.66-.62 7.59-2.71 2.75-2.57 3.28-6.45 3.99-9.93-4.05-1.16-8.11-2.52-12.37-2.54-4.69 0-9.16 1.59-13.57 3.02.79 3.39 1.25 7.29 4.19 9.61 1.91 2 4.74 2.37 7.32 2.88.03.36.08 1.08.11 1.44-3.05-.4-6.42-.75-8.6-3.2-3.5-2.81-3.53-7.56-4.5-11.56z"/>
    <path fill="#8d0f10" opacity=".88" d="M50.36 21.81c4.41-1.43 8.88-3.02 13.57-3.02 4.26.02 8.32 1.38 12.37 2.54-.71 3.48-1.24 7.36-3.99 9.93-1.93 2.09-5.02 2.05-7.59 2.71-.14-.85-.41-2.54-.55-3.39l-.59-.35c-.49-.06-1.49-.19-1.99-.25.09 1.44.18 2.88.28 4.32-2.58-.51-5.41-.88-7.32-2.88-2.94-2.32-3.4-6.22-4.19-9.61z"/>
    <g fill="#010000">
        <path opacity=".15" d="M61.59 29.98c.5.06 1.5.19 1.99.25.12 1.28.24 2.56.35 3.85 1.8.29 3.6.6 5.41.82-1.62.39-3.26.68-4.89 1 .01 1.29.03 2.58.05 3.88-.55.04-1.63.13-2.17.17-.12-1.4-.23-2.81-.35-4.21-.03-.36-.08-1.08-.11-1.44-.1-1.44-.19-2.88-.28-4.32zM59.76 55.79c.98-.32 1.96-.65 2.94-.99-1.27.79-2.01 1.9-2.24 3.35-.45 2.14-.91 4.28-1.63 6.35-.29-1.13-.66-2.24-1.09-3.33l.34-.93c.55-1.49 1.12-2.97 1.68-4.45zM64.27 54.73c.3.26.9.79 1.2 1.05 2.63 2.75 2.57 6.54 2.09 10.06-1.29-3.13-2.35-6.35-3.04-9.67-.06-.36-.19-1.08-.25-1.44z"/>
    </g>
    <path fill="#680b0b" opacity=".67" d="M42.52 49.22c.49-1.14.98-2.28 1.49-3.42-.11 2.59-.39 5.66 1.6 7.67 1.61 1.76 4.28 1.17 6.41 1.38 2.13 1.67 4.14 3.48 6.06 5.39l-.34.93c-1.5 1.18-.79 5.89 1.09 3.33.72-2.07 1.18-4.21 1.63-6.35 1.36-.64 2.71-1.3 4.06-1.98.69 3.32 1.75 6.54 3.04 9.67.48-3.52.54-7.31-2.09-10.06 2.4.82 4.96.62 7.37 0 2.99.28 6.37 1.03 8.93-1.03 2.45-1.76 2.35-5.09 2.39-7.8.55.9 1.09 1.8 1.64 2.7.73-.38 1.47-.76 2.2-1.14.24.99.49 1.98.73 2.97 1.18.04 2.36.07 3.55.11l.49.01c1.66 2.79 3.62 5.4 5.11 8.28.21 1.11.4 2.22.59 3.34-4.48 1.68-8.85 4.51-13.84 3.82-.33-.54-.98-1.63-1.3-2.17.12-.96.37-2.86.49-3.81-1.1 1.26-2.19 2.54-3.28 3.81-.18 3.26 1.7 8.64-3.06 9.36l-.08-4.52c-.74 1.81-1.45 3.62-2.13 5.45-1.27.25-2.54.5-3.81.77.22-1.89.44-3.77.65-5.65-1.34 2.05-2.67 4.1-4.02 6.15l-3.62.36c-.34-1.8-.67-3.61-1.1-5.39l-.44-.44c-2.7-.46-5.48-.41-8.13-1.11-1.46-.83-2.19-2.52-3.49-3.56-1.46-.59-3.08-.59-4.62-.81l-1.6-2.24c.7.09 2.1.25 2.8.33-1.86-.53-3.98-.63-5.51-1.9-1.02-1.58-1.64-3.36-2.4-5.07-.01 1.67-.03 3.35-.04 5.02 1.53 1.55 3.06 3.13 4.25 4.98l-.59 1.74c-5.01-1.25-10-2.65-14.74-4.72 1.1-2.64 2.2-5.28 3.34-7.9 1.08-2.01 2.7-3.65 4.18-5.36.02-.74.05-2.23.07-2.97 2.02.61 4.04 1.22 6.07 1.83z"/>
    <path fill="#3e0707" opacity=".43" d="M25.94 69.87c1.09-5.06 2.99-10.08 6.26-14.15-1.14 2.62-2.24 5.26-3.34 7.9-1.43 3.82-3.53 9.45.26 12.54 5.5 4.78 11.2 11.31 19.26 10.38.24 0 .7.01.93.01 5.64 6.16 13.22 11.75 14.82 20.46.56 2.59.35 5.27.17 7.9-3.03-3.6-3.45-8.93-7.4-11.77-8.77-6.92-19.2-11.88-26.37-20.68-3.12-3.35-5.63-7.87-4.59-12.59z"/>
    <path fill="#1a0303" opacity=".39" d="M39.94 61.62c.01-1.67.03-3.35.04-5.02.76 1.71 1.38 3.49 2.4 5.07 1.53 1.27 3.65 1.37 5.51 1.9-.7-.08-2.1-.24-2.8-.33l1.6 2.24c2.24 2.56 1.24 5.91.89 8.92 1.14-.94 2.27-1.88 3.42-2.82.08 1.41.17 2.83.26 4.25 1.13.03 2.26.06 3.4.1.11-1.4.22-2.8.32-4.2 1.24 2.68 3.16 4.89 6.16 5.57.59-2.12 1.18-4.23 1.79-6.34l.44.44c.43 1.78.76 3.59 1.1 5.39l3.62-.36c1.35-2.05 2.68-4.1 4.02-6.15-.21 1.88-.43 3.76-.65 5.65 1.27-.27 2.54-.52 3.81-.77-3.62 2.52-8.23 2.44-12.45 2.37-5.46-.37-11.11-.38-16.19-2.69.14-2.02.41-4.02.86-6-.39-.64-1.15-1.94-1.53-2.59-.31.29-.92.87-1.23 1.16-.13-.2-.41-.61-.54-.81-1.19-1.85-2.72-3.43-4.25-4.98z"/>
    <path fill="#530908" opacity=".54" d="M97.88 59.88c2.17 2.66 4.3 5.66 4.74 9.14-.29 2.28-1.42 4.33-2.31 6.41-.11.03-.34.1-.45.14-8.12 1.51-12.02 9.94-19.61 12.64 2.41-3.62 4.65-7.39 6.05-11.53.52-1.52 1.21-3.06 1.19-4.7-.73-1.77-1.84-3.34-2.86-4.94 4.99.69 9.36-2.14 13.84-3.82-.19-1.12-.38-2.23-.59-3.34z"/>
    <path fill="#400807" opacity=".58" d="M58.83 64.5c-1.88 2.56-2.59-2.15-1.09-3.33.43 1.09.8 2.2 1.09 3.33z"/>
    <path fill="#540909" opacity=".53" d="M29.12 76.16c-3.79-3.09-1.69-8.72-.26-12.54 4.74 2.07 9.73 3.47 14.74 4.72-1.19 1.17-2.35 2.37-3.52 3.57 1.19 5.66 4.73 10.26 8.3 14.63-8.06.93-13.76-5.6-19.26-10.38z"/>
    <path fill="#5c0b09" opacity=".62" d="M46.69 65.48c1.54.22 3.16.22 4.62.81 1.3 1.04 2.03 2.73 3.49 3.56 2.65.7 5.43.65 8.13 1.11-.61 2.11-1.2 4.22-1.79 6.34-3-.68-4.92-2.89-6.16-5.57-.1 1.4-.21 2.8-.32 4.2-1.14-.04-2.27-.07-3.4-.1-.09-1.42-.18-2.84-.26-4.25-1.15.94-2.28 1.88-3.42 2.82.35-3.01 1.35-6.36-.89-8.92z"/>
    <path fill="#3c0807" opacity=".44" d="M80.25 88.21c7.59-2.7 11.49-11.13 19.61-12.64-.8 4.31-4.04 7.45-6.69 10.72-4.4 5.3-10.58 8.57-15.97 12.71-3.91 2.71-5.21 7.53-7.77 11.31.01-3.47-.5-7.08.54-10.45 2.72-5.96 7.98-10.19 11.32-15.74 1.55-2.56 3.14-5.1 5.01-7.44-1.4 4.14-3.64 7.91-6.05 11.53z"/>
</svg>
