<svg width="128pt" height="128pt" viewBox="0 0 128 128" xmlns="http://www.w3.org/2000/svg">
    <path fill="#fdfdfd" d="M42.85 14.74c4.03 1.72 6.56 5.84 6.96 10.12.08 6.31 6.13 11.05 12.21 10.83 0 1.41.02 2.83.05 4.24.63.04 1.91.13 2.55.18-.03-1.43-.05-2.87-.08-4.3 4.55.17 8.64-2.63 11.12-6.26.94-2.11 1.34-4.39 1.87-6.62-.31-.11-.93-.31-1.23-.41 2.06-.05 1.97-2.79 3.24-3.97 1.73-1.36 3.79-2.2 5.78-3.09 1.14 2.62-2.9 3.87-2.23 6.57 1.06 6.79 6.85 11.96 7.56 18.92.43 5.5-1.65 10.75-1.81 16.23-.36 3.56-5.11 3.32-6.96 5.8-2.14 1.76-1.69 4.76-1.06 7.12.37 2.2-1.9 3.38-3.41 4.42.08-1.23.25-3.69.33-4.92-1.21 1.64-1.96 3.54-2.8 5.38-1.41.55-2.82 1.1-4.22 1.66.73-1.97 1.21-4.02 1.3-6.12-1.42 1.81-2.42 3.9-2.73 6.2-1.98.05-3.95.13-5.92.22.05-2.06.18-4.12.17-6.18-1.27 1.89-1.87 4.08-1.84 6.35-1.66-.23-3.33-.47-4.98-.73-.31-1.93-.72-3.91-2.37-5.14.33 1.75.67 3.51.94 5.28-1.49-.21-2.97-.45-4.45-.71-.01-1.57-.03-3.14-.15-4.7-.73 1.29-1.17 2.7-1.41 4.16-3.88-1.05-1.07-4.3-.89-6.74-1.59-2.74-3.61-5.55-6.64-6.81-.49-1.38-.89-2.8-1.26-4.22-1.75-3.22-4.25-6.56-3.73-10.43.53-4.55 1.62-9.01 2.58-13.48.75-4.04 4.97-6.3 5.45-10.46.94-3.02-1.33-5.58-1.94-8.39M46 41.91c-2.8 3.72-3.57 9.41.27 12.73 3.56 1.44 7.56.31 10.02-2.57 1.41-3.5.21-7.3-1.95-10.21-2.75-.75-5.62-.88-8.34.05m28.39.51c-3.53 2.01-5.53 6.88-3.36 10.57 2.61 6.23 13.59 3.7 13.39-3.02.57-5.09-5.19-10.3-10.03-7.55m-16.91 22.8c3.45-2.38 3.06-6.87 2.87-10.51-1.84 3.2-2.76 6.83-2.87 10.51m6.69-10.65c.53 3.98 1.86 7.75 3.32 11.47-.08-2.05 1.74-5.19-.06-6.61.44-1.57-.11-2.29-1.64-2.14l.1-1.14c-.43-.39-1.29-1.19-1.72-1.58z"/>
    <g fill="#111">
        <path opacity=".07" d="M62.29 29.02c1.53.66 2.45 2.01 3.18 3.45.71.24 2.13.72 2.85.96-1.25.72-2.69.62-4.08.66-.17-.65-.51-1.93-.68-2.57-.61-.21-1.84-.61-2.45-.81.29-.42.89-1.27 1.18-1.69zM49.74 52.05c2.11-3.11 4.06-6.41 4.6-10.19 2.16 2.91 3.36 6.71 1.95 10.21-2.18-.03-4.37-.04-6.55-.02zM65.79 57.29c1.53-.15 2.08.57 1.64 2.14-1.21-.29-1.75-1.01-1.64-2.14z"/>
    </g>
    <path fill="#131313" opacity=".07" d="M49.65 87.67c4.37 1.76 7.77 5.72 9.84 9.87-3.67-2.84-7.09-6.13-9.84-9.87z"/>
</svg>
