<svg width="128pt" height="128pt" viewBox="0 0 128 128" xmlns="http://www.w3.org/2000/svg">
    <g fill="#fdfdfd">
        <path d="M50.31 21.86c3.74-1.69 7.78-2.6 11.81-3.22 4.9-.28 9.77.99 14.26 2.85-.61 3.72-1.5 7.78-4.4 10.44-2.1 1.87-5.02 1.8-7.64 1.98-.08-2.09.55-5.02-2.63-4.09 0 1.4.01 2.8.01 4.21-4.22.64-7.93-2.34-9.96-5.77-.7-2.08-.95-4.28-1.45-6.4zM89.97 48.8c4.4 5.48 8.35 11.38 11.65 17.58 1.75 2.89-.36 6.01-1.48 8.69-2.16 5.17-5.88 9.42-9.66 13.47-4.73 4.46-10.47 7.62-15.54 11.65-2.48 3.11-3.9 6.9-5.7 10.42.44-3.44.35-6.95 1-10.36 3.12-6.9 9.54-11.51 12.94-18.23 1.75-3.23 4.34-6.31 4.87-9.99-1.41-2.82-3.38-5.32-4.94-8.06 1.64-2.25 4.27-3.24 6.63-4.5.02-3.56-.86-7.18.23-10.67zM36.69 50.18c1.62 3.12 3.49 6.27 3.38 9.92-.25 3.06 3.2 4.05 5.01 5.85-1.63 1.9-3.26 3.81-5.1 5.52.28 3.53 1.81 6.83 3.86 9.67 5.01 6.9 12.15 11.93 17.03 18.94 3.1 4.37 3.42 9.97 3.24 15.15-2.1-4.19-2.86-9.59-7.01-12.37-9.38-7.57-20.86-12.81-28-22.91-3.36-3.86-3.31-9.55-1.54-14.11 1.96-5.77 5-11.17 9.13-15.66z"/>
    </g>
</svg>
