<svg width="128pt" height="128pt" viewBox="0 0 128 128" xmlns="http://www.w3.org/2000/svg">
    <path fill="#860e0e" opacity=".89" d="M60.56 14.67c3.09 3.57 5.17 7.9 8.8 10.98 3.54 6.03 6.79 12.55 7.47 19.61 1.18-2.02 2.18-4.14 3.17-6.26 2.53 6.08 3.07 12.74 2.43 19.24.58.99 1.15 1.98 1.71 2.98-2.76 6.88-7.37 13.07-13.79 16.91-3.77 1.66-7.89 2.28-11.78 3.58-.54-.58-1.1-1.15-1.67-1.7.32-2.37.64-4.74.95-7.11 1.94 1.47 3.99 2.77 6.06 4.04 3.39-2.55 7.9-4.45 9.68-8.53.6-5.13-4.11-9.19-3.44-14.41-1-6.44-2.76-12.82-4.89-18.99-1.76 5.87-6.04 10.91-6.21 17.23-1.61 1.51-4.43 3.05-3.21 5.68 1.36 4.68 2.61 9.55 1.27 14.4-4.73-3.56-6.52-9.54-10.54-13.75 1.08-2.88 2.5-5.97 1.06-9.02l-.11-.49c3.41-4.85 5.29-11.18 2.44-16.77 2.68 1.22 4.96 3.17 6.27 5.84 1.83-3.5 4.38-6.6 6.16-10.09-.15-4.52-2.13-8.8-1.83-13.37z"/>
    <path fill="#9e1212" opacity=".98" d="M65.26 35.01c2.13 6.17 3.89 12.55 4.89 18.99-.67 5.22 4.04 9.28 3.44 14.41-1.78 4.08-6.29 5.98-9.68 8.53-2.07-1.27-4.12-2.57-6.06-4.04l-.74-.58c1.34-4.85.09-9.72-1.27-14.4-1.22-2.63 1.6-4.17 3.21-5.68.17-6.32 4.45-11.36 6.21-17.23z"/>
    <path fill="#700d0c" opacity=".78" d="M46.3 52.01c.33-.62 1-1.85 1.33-2.46 1.44 3.05.02 6.14-1.06 9.02 4.02 4.21 5.81 10.19 10.54 13.75l.74.58c-.31 2.37-.63 4.74-.95 7.11-2.35-1.56-5.33-2.27-7.97-.93-1.57-4.85-3.56-9.56-5.09-14.42l-.28-.89c.49-.62 1.46-1.86 1.94-2.48.48-4.1-.99-7.89-2.38-11.65 1.06.78 2.12 1.57 3.18 2.37z"/>
    <path fill="#6c0c0c" opacity=".77" d="M84.14 61.22c.55-.49 1.64-1.47 2.19-1.96-.34 5.04 1.32 9.79 2.27 14.65-1.87 4.03-4.03 7.91-5.71 12.02 1.5-3.01-.14-5.91-1.77-8.42-3.14-.11-7.49-.92-9.19 2.55-1.76 3.41.19 6.94 2.6 9.39.33.43.98 1.29 1.31 1.71l-2.27.45c-2.24-2.23-5.37-2.34-8.32-2.02-.26.02-.79.07-1.06.09-3.11.11-5.83 2.04-8.98 1.82 1.02-.77 2.05-1.54 3.08-2.3.55-2.46 1.43-5.05.28-7.49 3.89-1.3 8.01-1.92 11.78-3.58 6.42-3.84 11.03-10.03 13.79-16.91z"/>
    <path fill="#5e0b0b" opacity=".69" d="M43.36 63.18l.48 1.48c1.53 4.86 3.52 9.57 5.09 14.42-.6.67-1.16 1.38-1.69 2.11-1.3 2.1-1.6 4.58-2.06 6.96-1.58-.82-3.16-1.64-4.74-2.47-.18-.09-.53-.28-.71-.38-.54-7.53-.98-15.63 3.63-22.12z"/>
    <path fill="#52090a" opacity=".64" d="M88.6 73.91c.94 2.62 1.57 5.36 1.9 8.12.05 3.11-1.84 6.07-1.1 9.22.53.2 1.61.59 2.14.78-1.29 2.48-2.28 5.17-4.03 7.38-2.21 1.16-5.9-1.75-6.72 1.68-1.07 2.08 1.14 4.02.61 6.12-2.35 1.9-5.62 2.69-8.62 2.33-3.88 1.81-8.35.63-12.49 1.12l-.08-1.46c-.06-.97-.12-1.95-.2-2.92-2.1-1.75-4.09-3.71-5.1-6.31-1.33-4-5.53-5.5-8.6-7.88.53-.96 1.05-1.92 1.58-2.88 2.33 1.06 4.77 1.93 7.32 2.29 3.15.22 5.87-1.71 8.98-1.82-2.01 2.96-2.67 6.47-2.07 9.99 1.93-3.03 2.61-6.58 3.13-10.08 2.95-.32 6.08-.21 8.32 2.02l2.27-.45c-.33-.42-.98-1.28-1.31-1.71 1.91-.01 3.81 0 5.71.05.97-1.12 2.06-2.19 2.65-3.57 1.68-4.11 3.84-7.99 5.71-12.02M67.99 90c-.29 3.5.31 7.03 2.53 9.85 2.21-3.28-1.28-6.82-2.53-9.85z"/>
    <path fill="#480809" opacity=".58" d="M45.18 88.15c.46-2.38.76-4.86 2.06-6.96-1.3 2.66-.37 5.45.65 8.02-.53.96-1.05 1.92-1.58 2.88 3.07 2.38 7.27 3.88 8.6 7.88 1.01 2.6 3 4.56 5.1 6.31.08.97.14 1.95.2 2.92-2.06 2.52-5.03.79-6.01-1.66-.85.08-2.55.24-3.4.33-1.06-2.76-1.39-5.68-1.29-8.61l-2.85.09c-.42.44-1.25 1.3-1.67 1.73-2.65-1.43-4.78-3.62-6.66-5.94-.43-2.32 1.89-2.82 3.43-3.71-.61-1.87-1.15-3.78-1.32-5.75 1.58.83 3.16 1.65 4.74 2.47z"/>
    <path fill="#130202" opacity=".46" d="M64.19 89.68c.27-.02.8-.07 1.06-.09-.52 3.5-1.2 7.05-3.13 10.08-.6-3.52.06-7.03 2.07-9.99z"/>
    <path fill="#080101" opacity=".4" d="M67.99 90c1.25 3.03 4.74 6.57 2.53 9.85-2.22-2.82-2.82-6.35-2.53-9.85z"/>
</svg>
