<svg width="128pt" height="128pt" viewBox="0 0 128 128" xmlns="http://www.w3.org/2000/svg">
    <g fill="#fff">
        <path d="M30.93 28.55c3.09 2.74 3.09 7.22 4.96 10.68 2.25 4.19 4.74 8.37 8.26 11.62 5.53 5.18 13.56 5.78 19.74 9.89 6.06-3.47 13.42-4.42 18.85-9 4.53-4.79 8.93-10.1 10.65-16.61.83-2.21 1.24-4.78 3.08-6.44.31 2.96-.99 5.65-1.8 8.41-1.14 7.88-1.16 15.87-1.64 23.81-.53 6.02 1.86 11.73 3.35 17.44-2.69 1.69-5.59 3.01-8.35 4.57-9.9 6.77-16.79 18.77-14.93 31-2.4-2-3.01-5.11-3.57-8.01-.48-2.67-1.96-5.12-1.85-7.88-.31-9.38-.43-19.02 2.45-28.06 6.09-.59 11.6-3.84 15.52-8.46-8.49 5.04-18.45 9.4-28.5 6.77 1.2 2.79 2.08 5.73 2.18 8.79.85 10.38 2.57 21.45-1.76 31.32-.68 1.97-.59 4.41-2.63 5.6-.57-5.31.15-10.89-2.14-15.88-4-9.3-12.54-15.69-21.53-19.79 6.2-15.96 3.26-33.57-.34-49.77m11.65 33c2.82 3.32 6.35 6.18 10.58 7.45 1.41 1.07 2.76-.28 4.03-.76-5.31-1.15-9.91-4.14-14.61-6.69z"/>
        <path d="M55.13 36.21c2.87-2.26 6.37-3.97 8.08-7.37 4.03 1.52 5.99 6.24 10.37 7.18-2.03.8-3.93 1.87-5.82 2.93-.17-.37-.5-1.1-.67-1.47-1.11-.65-2.21-1.31-3.3-1.98-3.99 3.9-8.9 6.52-13.56 9.49 3.19 4.26 8.34 7.22 13.76 7 5.37.05 10.4-2.88 13.65-7.05-1.36-1.28-3.96-1.64-4.58-3.5 1.57-.83 3.22-1.5 4.86-2.18 2.6 1.34 5.3 2.47 7.8 4-1.06 2.57-2.28 5.26-4.59 6.96-5.1 4.03-11.64 5.4-17.27 8.49-5.66-3.37-12.51-4.57-17.59-8.94-2-1.64-3-4.1-4.11-6.36 4.11-2.76 8.95-4.27 12.97-7.2z"/>
    </g>
</svg>
