<svg width="128pt" height="128pt" viewBox="0 0 128 128" xmlns="http://www.w3.org/2000/svg">
    <g fill="#6b1818">
        <path d="M25.23 25.45c23.27-.18 46.55-.02 69.83-.08 2.61.12 5.29-.22 7.86.34.78 1.89 1.7 3.71 2.8 5.44.74 1.27-.83 2.21-1.45 3.11-8 8.68-15.63 17.67-23.67 26.3-.98 1.06-1.94 2.15-2.59 3.45 9.49 10.95 19.12 21.9 28.8 32.6l-1.88 2.32c-.94 1.4-1.93 2.77-3 4.08-25.76.11-51.52-.16-77.27.15-.59-.7-1.08-1.45-1.49-2.26-.72-1.49-1.8-2.8-1.99-4.49 7.51-7.89 14.62-16.17 22.2-24.02 1.64-3.1 5.94-4.89 6.33-8.39C40.27 53.38 30.8 42.74 21.3 32.16c1.01-2.23 2.42-4.23 3.46-6.44l.47-.27m7.11 1.84c-1.97 1.79-3.94 3.62-5.47 5.81 24.74.27 49.56.56 74.28-.14-1.22-2.34-3.44-3.98-5.44-5.64-7.02-.14-14.16-.57-21.14.17-.74.86-1.12 2.41-2.56 2.18-5.56.11-11.12 0-16.67 0-.58-.77-1.15-1.54-1.72-2.32-6.99-.64-14.22-.11-21.28-.06m-3.28 8.08c.91 2.19 2.7 3.84 4.31 5.51 2.82-.96 4.79-3.98 7.48-5.49-3.93.03-7.86 0-11.79-.02m59-.09c1.81 2.07 3.95 3.81 6.08 5.54 2.54-.28 3.46-3.29 5.03-4.96-3.44-1.11-7.46-.08-11.11-.58m-45.91.98c6.27 7.27 12.57 14.5 18.92 21.7 1.44-.09 2.17-1.84 3.6-1.85.69.83 1.46 1.56 2.31 2.19 6.45-7.31 12.95-14.57 19.12-22.11-14.65.13-29.3.05-43.95.07m-6.78 6.08c3.95 4.75 8.24 9.25 12.38 13.85 1.94 2.72 4.84 4.69 6.2 7.82-5.84 7.52-12.9 14.09-18.69 21.64 2.12 1.24 4.8 6.08 7.1 2.79 6.26-7.29 13.18-14.02 19.22-21.47.89 1.08 1.48 2.73 3.02 2.99 1.3-1.9 2.96-3.51 4.22-5.44l-.39-.93c.34-.01 1.01-.01 1.35-.02.45 1.78-1.21 3.04-2.02 4.43 5.19 6.79 11.41 12.75 16.89 19.31 1.08.89 1.84 2.51 3.32 2.69 1.8-1.28 3.66-2.76 4.75-4.71-4.41-4.94-8.72-9.99-13.38-14.71-1.71-2.08-3.77-3.97-5.03-6.37.72-2.07 2.48-3.46 3.97-4.97 5.43-4.89 9.29-11.23 14.6-16.25-1.64-1.7-3.33-3.37-5.27-4.74-5.05 4.72-9.39 10.17-14.21 15.11-1.7 3.14-5.67 5.06-5.72 8.93-1.18-1.46-1.91-3.73-3.75-4.39-.94.99-1.76 2.09-2.43 3.28-6.57-7.88-13.48-15.52-20.61-22.9-2.23.56-3.86 2.55-5.52 4.06M61.4 70.08C56.11 75.57 51.43 81.63 46.01 87c-1.3 1.58-2.95 2.94-3.9 4.78 14.61-.03 29.22-.03 43.83-.04-1.8-3.27-4.74-5.69-7.07-8.55-4.14-4.24-7.77-8.94-11.98-13.1-1.24.09-1.87 1.36-2.81 1.99-.72-.65-1.4-1.33-2.06-2.02l-.62.02M29.06 92.62c3.77.24 7.54.28 11.31.18-1.32-2.59-4.12-4-6.35-5.74-1.94 1.43-3.89 3.36-4.96 5.56m58.09.01c4.24.05 8.47.41 12.7.18-1.8-1.79-3.27-3.89-5.03-5.72-2.94 1.13-4.93 3.95-7.67 5.54m-59.73 2.03c.54 2.56 3.25 4.05 4.96 5.92 7.06.03 14.14.14 21.18-.08.63-.67 1.27-1.35 1.91-2.01 5.69-.39 11.43-.1 17.13-.16.94.74 1.79 1.57 2.74 2.3 6.77-.24 13.54.07 20.31-.04 2.02-1.39 5.09-3.3 4.77-6.01-24.32-.03-48.67-.24-73 .08z"/>
        <path d="M55.84 39.09c5.42.14 10.86-.27 16.28.09-1.87 4.24-5 7.83-7.46 11.75l-.75.1c-2.94-3.77-5.61-7.82-8.07-11.94zM56.08 88.78c2.32-4.13 4.97-8.14 7.85-11.89l.78.19c2.56 3.86 5.37 7.62 7.45 11.77-5.35.76-10.72.06-16.08-.07z"/>
    </g>
    <path fill="#b22829" d="M32.34 27.29c7.06-.05 14.29-.58 21.28.06.57.78 1.14 1.55 1.72 2.32 5.55 0 11.11.11 16.67 0 1.44.23 1.82-1.32 2.56-2.18 6.98-.74 14.12-.31 21.14-.17 2 1.66 4.22 3.3 5.44 5.64-24.72.7-49.54.41-74.28.14 1.53-2.19 3.5-4.02 5.47-5.81z"/>
    <path fill="#b0292c" d="M29.06 35.37c3.93.02 7.86.05 11.79.02-2.69 1.51-4.66 4.53-7.48 5.49-1.61-1.67-3.4-3.32-4.31-5.51z"/>
    <path fill="#b02b2c" d="M88.06 35.28c3.65.5 7.67-.53 11.11.58-1.57 1.67-2.49 4.68-5.03 4.96-2.13-1.73-4.27-3.47-6.08-5.54z"/>
    <path fill="#b52b2c" d="M42.15 36.26c14.65-.02 29.3.06 43.95-.07-6.17 7.54-12.67 14.8-19.12 22.11-.85-.63-1.62-1.36-2.31-2.19-1.43.01-2.16 1.76-3.6 1.85-6.35-7.2-12.65-14.43-18.92-21.7m13.69 2.83c2.46 4.12 5.13 8.17 8.07 11.94l.75-.1c2.46-3.92 5.59-7.51 7.46-11.75-5.42-.36-10.86.05-16.28-.09z"/>
    <path fill="#9c2424" d="M35.37 42.34c1.66-1.51 3.29-3.5 5.52-4.06 7.13 7.38 14.04 15.02 20.61 22.9-.43.93-.87 1.86-1.21 2.82.31 1.04.8 2.01 1.29 2.97-6.04 7.45-12.96 14.18-19.22 21.47-2.3 3.29-4.98-1.55-7.1-2.79 5.79-7.55 12.85-14.12 18.69-21.64-1.36-3.13-4.26-5.1-6.2-7.82-4.14-4.6-8.43-9.1-12.38-13.85z"/>
    <path fill="#9d2426" d="M73.4 53.36c4.82-4.94 9.16-10.39 14.21-15.11 1.94 1.37 3.63 3.04 5.27 4.74-5.31 5.02-9.17 11.36-14.6 16.25-1.49 1.51-3.25 2.9-3.97 4.97 1.26 2.4 3.32 4.29 5.03 6.37 4.66 4.72 8.97 9.77 13.38 14.71-1.09 1.95-2.95 3.43-4.75 4.71-1.48-.18-2.24-1.8-3.32-2.69-5.48-6.56-11.7-12.52-16.89-19.31.81-1.39 2.47-2.65 2.02-4.43-.34.01-1.01.01-1.35.02-.19-.33-.56-.98-.75-1.3.05-3.87 4.02-5.79 5.72-8.93z"/>
    <g fill="#bd2c31">
        <path d="M61.5 61.18c.67-1.19 1.49-2.29 2.43-3.28 1.84.66 2.57 2.93 3.75 4.39.19.32.56.97.75 1.3l.39.93c-1.26 1.93-2.92 3.54-4.22 5.44-1.54-.26-2.13-1.91-3.02-2.99-.49-.96-.98-1.93-1.29-2.97.34-.96.78-1.89 1.21-2.82zM29.06 92.62c1.07-2.2 3.02-4.13 4.96-5.56 2.23 1.74 5.03 3.15 6.35 5.74-3.77.1-7.54.06-11.31-.18z"/>
    </g>
    <path fill="#b82c2c" d="M61.4 70.08l.62-.02c.66.69 1.34 1.37 2.06 2.02.94-.63 1.57-1.9 2.81-1.99 4.21 4.16 7.84 8.86 11.98 13.1 2.33 2.86 5.27 5.28 7.07 8.55-14.61.01-29.22.01-43.83.04.95-1.84 2.6-3.2 3.9-4.78 5.42-5.37 10.1-11.43 15.39-16.92m-5.32 18.7c5.36.13 10.73.83 16.08.07-2.08-4.15-4.89-7.91-7.45-11.77l-.78-.19c-2.88 3.75-5.53 7.76-7.85 11.89z"/>
    <path fill="#bd2c2e" d="M87.15 92.63c2.74-1.59 4.73-4.41 7.67-5.54 1.76 1.83 3.23 3.93 5.03 5.72-4.23.23-8.46-.13-12.7-.18z"/>
    <path fill="#bb2c2c" d="M27.42 94.66c24.33-.32 48.68-.11 73-.08.32 2.71-2.75 4.62-4.77 6.01-6.77.11-13.54-.2-20.31.04-.95-.73-1.8-1.56-2.74-2.3-5.7.06-11.44-.23-17.13.16-.64.66-1.28 1.34-1.91 2.01-7.04.22-14.12.11-21.18.08-1.71-1.87-4.42-3.36-4.96-5.92z"/>
    <path fill="#050101" opacity=".26" d="M101.93 103.01c1.07-1.31 2.06-2.68 3-4.08-.53 1.98-1.18 5.29-3.94 4.72-25.01.34-50.03-.11-75.04.15l-1.58-.2c-.61-.8-1.01-1.7-1.2-2.7.41.81.9 1.56 1.49 2.26 25.75-.31 51.51-.04 77.27-.15z"/>
</svg>
