<svg width="128pt" height="128pt" viewBox="0 0 128 128" xmlns="http://www.w3.org/2000/svg">
    <g fill="#fff">
        <path d="M15.18 64.14C31.05 48.05 47.11 32.2 63.04 16.17c7.18 6.43 13.86 13.4 20.62 20.27-4.74 3.86-8.56 8.71-13.22 12.65-2.14-2.39-4.49-4.59-6.7-6.93-1.76 1.66-3.42 3.43-5.32 4.93-4.1-4.51-8.61-8.61-12.79-13.03l-2.87 2.75c4.35 4.4 8.72 8.77 13.13 13.1-1.07 1.06-2.12 2.13-3.18 3.2-4.52-4.23-8.7-8.8-13.22-13.02-.81 1.08-1.64 2.13-2.5 3.16 4.29 4.22 8.49 8.52 12.76 12.76-2.77 2.75-5.48 5.57-8.3 8.28 7.32 7.52 14.82 14.87 22.23 22.32 7.34-7.49 14.88-14.77 22.18-22.3-2.15-2.07-4.23-4.2-6.37-6.28 4.18-4.32 8.6-8.4 12.63-12.86-.8-.52-1.62-1.01-2.46-1.47l2.45-.31c-.2.2-.6.59-.8.79 6.87 6.81 13.93 13.47 20.43 20.63-7.11 6.87-13.89 14.07-21.08 20.86-.09-.34-.26-1.03-.35-1.37-3.02-2.82-5.96-5.73-8.78-8.77-1.03.98-2.04 1.98-3.01 3.02 3.02 2.83 5.97 5.75 8.79 8.78.35.09 1.05.25 1.39.33-.99 1.07-1.98 2.13-2.96 3.21-2.94-3.23-6.05-6.3-9.24-9.28-.97.99-1.96 1.95-2.98 2.89 2.96 3.21 6.12 6.23 9.23 9.29-6.05 5.97-11.99 12.05-18.06 17.99-.43.06-1.29.19-1.72.26C57 106.36 51.16 100.5 45.5 94.53c3.28-2.53 5.97-5.71 8.9-8.62-.89-.91-1.77-1.81-2.65-2.72-2.97 2.82-5.95 5.64-8.69 8.69.71.49 1.44.95 2.19 1.38l-2.61.45c.31-.19.93-.59 1.24-.78-1.65-1.47-3.22-3.01-4.69-4.65l-.84.84.36-2.4c.45.78.92 1.55 1.42 2.31 3.16-2.97 6.12-6.14 9.27-9.12-.96-.96-1.91-1.92-2.88-2.86-2.92 3.32-6.19 6.3-9.27 9.48C29.96 79 22.31 71.81 15.18 64.14m48.35-36.09c-3.38 3.46-6.85 6.82-10.22 10.29.85.87 1.7 1.75 2.55 2.63 2.65-2.65 5.3-5.3 7.92-7.97 3.02 3.3 6.27 6.37 9.41 9.56l2.6-2.3c-4.06-4.1-8.04-8.28-12.26-12.21M40.55 50.61c-4.24 4.77-8.98 9.06-13.43 13.62 4.54 4.53 9.12 9.01 13.56 13.63.89-.91 1.77-1.84 2.67-2.75-3.59-3.5-7.02-7.16-10.71-10.56C36 60.49 40.1 57.13 43.6 53.2c-1.03-.85-2-1.76-3.05-2.59m45.59 5.04c2.91 2.99 5.89 5.89 8.81 8.86-3.41 3.33-6.89 6.6-10.05 10.18.91.76 1.85 1.49 2.76 2.25 4.04-4.28 8.33-8.32 12.42-12.55-3.86-3.68-7.54-7.54-11.36-11.26l-2.58 2.52m-22.3 39.77c-2.68-2.34-5.1-4.96-7.63-7.47-.88.95-1.76 1.9-2.63 2.86 3.37 3.35 6.73 6.72 10.09 10.1 3.53-3.74 7.31-7.24 10.85-10.98-.83-.92-1.67-1.83-2.52-2.72-2.71 2.75-5.47 5.45-8.16 8.21z"/>
        <path d="M85.42 38.14c1.37 1.46 2.82 2.85 4.26 4.26-4.3 4.22-8.57 8.48-12.76 12.81-1.21-1.03-2.36-2.12-3.45-3.27 4.2-4.04 8.26-8.23 12.42-12.31-.12-.37-.35-1.12-.47-1.49zM44.63 64.53c6.11-6.62 12.66-12.82 19-19.22 6.28 6.43 12.69 12.74 19.04 19.1-6.43 6.28-12.58 12.85-19.16 18.97-6.21-6.36-12.48-12.68-18.88-18.85m7.28.04c3.97 3.7 7.82 7.55 11.52 11.52 4.11-3.79 8.07-7.75 11.9-11.82-3.98-3.78-7.83-7.7-11.66-11.62-3.99 3.9-8.02 7.78-11.76 11.92z"/>
        <path d="M59.21 64.3c1.45-1.52 2.96-2.98 4.58-4.31 1.49 1.47 2.95 2.97 4.32 4.56-1.51 1.37-2.98 2.78-4.43 4.21-1.54-1.44-3.03-2.93-4.47-4.46z"/>
    </g>
</svg>
