<svg width="128pt" height="128pt" viewBox="0 0 128 128" xmlns="http://www.w3.org/2000/svg">
    <path fill="#6b1818" d="M64.21 14.67c1.4 1.69 2.73 3.44 3.99 5.24C85.52 44.47 103 68.92 120.28 93.5c-37.25.19-74.5.08-111.76.05 18.45-26.37 37.1-52.61 55.69-78.88m-34 54.72c5.41 5.74 10.95 11.38 16.67 16.83 5.35-5.43 10.57-11.01 15.7-16.65-.04-15.6.29-31.2.05-46.81-10.79 15.56-21.51 31.16-32.42 46.63m35.61-46.22c-.42 14.97 0 29.94.04 44.9-.07 1.86 1.53 3.11 2.6 4.41 4.45 4.54 8.52 9.45 13.21 13.75 5.42-5.56 10.96-11 16.44-16.5-5.18-8.3-11.06-16.12-16.52-24.22-5.35-7.38-10.12-15.17-15.77-22.34M28.47 73.66c-4.44 5.78-9.01 11.46-13.48 17.22 2.61.04 5.22.06 7.83.04 1.81-2.27 3.7-4.48 5.65-6.63 2.06 1.94 3.88 4.14 5.18 6.68 3.22.1 6.45.02 9.67-.27-.96-1.95-2.26-3.71-3.79-5.25-3.77-3.85-6.92-8.3-11.06-11.79m56.3 16.57c3.27 1.15 6.77.76 10.16.63.97-2.71 3.06-4.73 5.12-6.64 1.85 2.18 3.66 4.39 5.39 6.66 2.63.05 5.25.06 7.88.05-4.4-5.89-8.94-11.66-13.52-17.4-5.19 5.4-10.04 11.12-15.03 16.7M62.45 78.47c-3.93 4.04-7.62 8.29-11.41 12.45 2.99.07 5.98.09 8.97.06 1.39-1.27 2.78-2.54 4.17-3.8 1.36 1.25 2.72 2.5 4.06 3.77 3.02.09 6.04.02 9.05-.22-3.94-4.42-8.01-8.71-11.97-13.1-.89-1.43-2.13.22-2.87.84z"/>
    <path fill="#af2829" d="M30.21 69.39c10.91-15.47 21.63-31.07 32.42-46.63.24 15.61-.09 31.21-.05 46.81-5.13 5.64-10.35 11.22-15.7 16.65-5.72-5.45-11.26-11.09-16.67-16.83m23.53-27.61c-5.77 8.92-11.93 17.59-17.92 26.37 3.64 4.07 7.5 7.93 11.44 11.71 3.99-3.87 8.15-7.65 11.56-12.04.61-2.88.38-5.86.45-8.78-.08-8.26.41-16.52.08-24.78-2.06 2.36-3.93 4.87-5.61 7.52z"/>
    <path fill="#ad2829" d="M65.82 23.17c5.65 7.17 10.42 14.96 15.77 22.34 5.46 8.1 11.34 15.92 16.52 24.22-5.48 5.5-11.02 10.94-16.44 16.5-4.69-4.3-8.76-9.21-13.21-13.75-1.07-1.3-2.67-2.55-2.6-4.41-.04-14.96-.46-29.93-.04-44.9m3.29 10.64c-.36 10.07-.06 20.15.11 30.22.19 1.57-.26 3.48.98 4.72 3.48 3.83 7.25 7.39 10.8 11.17 3.95-3.78 7.84-7.63 11.56-11.63-7.76-11.53-15.67-22.96-23.45-34.48z"/>
    <g fill="#6e1b1b">
        <path d="M69.11 33.81c7.78 11.52 15.69 22.95 23.45 34.48-3.72 4-7.61 7.85-11.56 11.63-3.55-3.78-7.32-7.34-10.8-11.17-1.24-1.24-.79-3.15-.98-4.72-.17-10.07-.47-20.15-.11-30.22zM53.74 41.78c1.68-2.65 3.55-5.16 5.61-7.52.33 8.26-.16 16.52-.08 24.78-.07 2.92.16 5.9-.45 8.78-3.41 4.39-7.57 8.17-11.56 12.04-3.94-3.78-7.8-7.64-11.44-11.71 5.99-8.78 12.15-17.45 17.92-26.37z"/>
    </g>
    <g fill="#b22929">
        <path d="M28.47 73.66c4.14 3.49 7.29 7.94 11.06 11.79 1.53 1.54 2.83 3.3 3.79 5.25-3.22.29-6.45.37-9.67.27-1.3-2.54-3.12-4.74-5.18-6.68-1.95 2.15-3.84 4.36-5.65 6.63-2.61.02-5.22 0-7.83-.04 4.47-5.76 9.04-11.44 13.48-17.22zM84.77 90.23c4.99-5.58 9.84-11.3 15.03-16.7 4.58 5.74 9.12 11.51 13.52 17.4-2.63.01-5.25 0-7.88-.05-1.73-2.27-3.54-4.48-5.39-6.66-2.06 1.91-4.15 3.93-5.12 6.64-3.39.13-6.89.52-10.16-.63z"/>
    </g>
    <path fill="#af292c" d="M62.45 78.47c.74-.62 1.98-2.27 2.87-.84 3.96 4.39 8.03 8.68 11.97 13.1-3.01.24-6.03.31-9.05.22-1.34-1.27-2.7-2.52-4.06-3.77-1.39 1.26-2.78 2.53-4.17 3.8-2.99.03-5.98.01-8.97-.06 3.79-4.16 7.48-8.41 11.41-12.45z"/>
    <path opacity=".1" d="M11.61 94.62c1.45-.28 2.9-.54 4.37-.63 28.32.09 56.65-.03 84.98.05 6.41.04 12.84-.28 19.22.46-6.34.82-12.75.46-19.13.51-24.7 0-49.4 0-74.09-.01-5.12-.03-10.26.26-15.35-.38z"/>
</svg>
