<svg width="128pt" height="128pt" viewBox="0 0 128 128" xmlns="http://www.w3.org/2000/svg">
    <g fill="#fff">
        <path d="M62.46 17.37c.62-.91 1.34-1.74 2.11-2.52 18.29 26.35 37.07 52.36 55.53 78.59-37.15.11-74.3-.07-111.44.09 17.87-25.43 35.89-50.75 53.8-76.16M30.22 69.76c5.82 5.23 10.98 11.14 16.69 16.48 5.29-5.48 10.41-11.13 15.7-16.63-.07-15.63.19-31.26.08-46.9-10.77 15.73-21.82 31.25-32.47 47.05m35.5-47.07c-.09 15.6.15 31.2.17 46.79 4.89 5.75 10.49 10.94 15.42 16.69 5.98-5.05 11.08-11.08 16.78-16.45-10.5-15.87-21.61-31.33-32.37-47.03M28.56 73.43c-4.47 5.87-9.01 11.71-13.66 17.44 2.73-.02 5.46.01 8.19-.02 1.5-2.43 3.5-4.48 5.36-6.63 1.7 1.8 3.36 3.65 5.17 5.35l-1.08 1.32c3.46-.17 6.95.38 10.39-.15.11-1.01-.21-1.85-.94-2.52-4.56-4.86-8.84-9.97-13.43-14.79m71.02 0c-4.68 5.72-9.91 10.98-14.67 16.66 3.21 1.88 7.25.34 10.81.77l-.76-1.36c1.65-1.79 3.32-3.56 5.03-5.28 1.73 2.2 3.9 4.08 5.18 6.6 2.82.1 5.63.09 8.45.05-4.95-5.59-9.13-11.82-14.04-17.44M50.96 90.87c3.17-.02 6.33 0 9.5-.02 1.22-1.28 2.45-2.54 3.68-3.8 1.32 1.26 2.63 2.53 3.93 3.81h9.38c-4.44-4.75-8.77-9.59-13.3-14.26-4.45 4.71-8.74 9.57-13.19 14.27z"/>
        <path d="M35.84 68.39c7.75-11.66 15.6-23.26 23.63-34.73-.02 11.41-.24 22.81-.28 34.22-3.96 4.03-7.96 8.04-11.84 12.15-3.79-3.93-7.59-7.84-11.51-11.64zM68.76 33.05c7.79 11.89 15.99 23.51 23.91 35.3-3.83 3.92-7.75 7.75-11.59 11.65-4.01-3.93-7.74-8.12-11.81-11.99-.41-11.65.31-23.33-.51-34.96z"/>
    </g>
</svg>
