<svg width="128pt" height="128pt" viewBox="0 0 128 128" xmlns="http://www.w3.org/2000/svg">
    <path fill="#971f1e" d="M60.04 19.86c1.38-3.11 2.34-6.39 3.87-9.44 1.77 5.09 4.32 9.93 5.2 15.29 1.64 6.02 2.48 12.38 1.06 18.55-.54.05-1.6.16-2.14.21-.61.06-1.23.11-1.85.15-.07-.15-.22-.47-.3-.63-.29-2.71-3.68-3.52-3.43-6.32-1.28 2.61-2.72 5.16-4.68 7.33-2.68-8.42.35-16.94 2.27-25.14z"/>
    <g fill="#020000">
        <path opacity=".22" d="M46.05 14.77l.95-.27c2.55 2.32 4.01 6.37 3.83 9.89-1.43-3.05-2.33-6.33-4.1-9.22-.98 4.88-1.38 9.84-1.79 14.79-.88 6.68 2.05 13.01 4.4 19.09 2.18-1.44 4.39-2.85 6.62-4.22-.67-6.88-3.26-13.32-4.94-19.98.32.15.96.44 1.28.58.93 3.63 2.82 6.95 3.18 10.73.95-4.65 1.67-9.36 2.92-13.96.2-1 .75-1.78 1.64-2.34-1.92 8.2-4.95 16.72-2.27 25.14 1.96-2.17 3.4-4.72 4.68-7.33-.25 2.8 3.14 3.61 3.43 6.32-1.89-1.7-3.48-.33-4.72 1.08.23-1.85 2.71-3.77 1.09-5.48-1.52 2.73-2.96 5.52-4.09 8.44-2.14 5.57 2.59 10.09 5.79 14.01 1.88-2.56 3.84-5.06 5.56-7.73.96-3.35.14-6.84-1.48-9.84.54-.05 1.6-.16 2.14-.21 1.42-6.17.58-12.53-1.06-18.55 2.33 2.55 2.24 6.27 3.24 9.41 1.83-5.45 3.48-10.97 5.51-16.36.34-.99.99-1.74 1.94-2.24-2.29 6.32-4.49 12.66-6.32 19.13-.51 3.55-2.99 7.68-.29 10.83l-2.52.28c.68.55 2.03 1.65 2.71 2.2-.04-.85-.12-2.54-.15-3.38 1.64 1.21 3.3 2.42 4.97 3.6.91-2.22 1.85-4.43 2.61-6.71 1.55-3.95 2.27-8.19 1.91-12.43-.38-5.09-.55-10.33-2.34-15.16.34.06 1.01.2 1.34.27 1.64 4.45.98 9.31 2.08 13.89 1.01 3.64-.55 7.23-.77 10.87 1.13-1.21 1.52-3.39 3.29-3.79-2.38 4.71-3.37 10.31-7.39 14 1.13 1.68 2.39 3.27 3.81 4.72 2.85-2.59 5.28-5.63 6.91-9.14-.11 1.53-.52 3.35 1.43 3.85-2.29 2.36-4.78 4.5-7.31 6.6-1.05.89-2.12 1.78-3.17 2.67.5.13 1.49.38 1.99.51-.17.45-.51 1.36-.69 1.81 1.11-.32 2.21-.65 3.31-.97 3.23-.93 6.4-2.14 9.23-3.97 2.41.96 7.23-1.03 7.08 2.76-.43.47-1.29 1.4-1.71 1.86l-.07-.94-.16-2.62c-3.62.26-6.82 2.07-9.95 3.74.48.98.97 1.97 1.45 2.96 2.59-.35 4.84-1.66 7.01-3.03-.75 3.06-4.51 3.27-6.98 4.2-.73 3.44.68 8.38-3.53 9.9.43 2.67 1.11 5.29 1.43 7.98.12 1.54-.18 3.62-2.04 3.9 2.15-4.28-.02-9.07-.97-13.38.46-.31 1.38-.91 1.84-1.22 2.3-3.14 2.94-9.57-1.75-10.77-1.28.78-2.57 1.53-3.87 2.26-1.07-2.77-2.28-5.52-4.03-7.94-1.78-2.66-4.09-5.12-7.23-6.08-.19 1.94-.36 3.89-.52 5.83l3.39-1.41c1.26 1.04 2.47 2.14 3.59 3.33 1.36 2.71 3.4 5.32 3.36 8.5.34 2.87-1.98 4.94-3.51 7.05.28 9.02-1.51 18.05.05 27.03 1.13-1.5 2.31-2.96 3.54-4.38-.27 2.61-2.6 4.26-3.32 6.69-1.02 2.6-1.14 5.83-3.44 7.73-1.28 1.1-3.06.81-4.59.63 2.66-.59 5.13-1.95 5.98-4.71 1.16-3.31 1.38-6.9 1.06-10.37-.43-.3-1.29-.9-1.72-1.21l.2-.96c.59-1.68.05-2.6-1.61-2.76-.74-.28-1.48-.58-2.22-.88.51-.4 1.52-1.2 2.03-1.6.57.44 1.71 1.33 2.28 1.77-.14-1.4-.59-2.7-1.33-3.9.54.25 1.61.75 2.15 1.01.03-.97.11-2.91.14-3.89-.12-2.9.1-5.9-.92-8.67-.88-2.59-2.13-5.09-4.53-6.57-.1-.27-.31-.81-.41-1.08 1.55-1.53 3.86-1.59 5.73-2.55.83.94 1.94 1.54 3.11 1.97.6-4.19-1.92-7.82-4.6-10.73-4.22-.65-7.35 2.33-9.63 5.44 1.1 1.09 2.21 2.16 3.23 3.33.31.41.93 1.22 1.24 1.63l-1.73-.09c.52.39 1.57 1.17 2.09 1.56-2.24-.84-1.93 1.82-2.66 2.97 1.87-2.82 4.4-.53 5.53 1.31-.62.5-1.87 1.48-2.5 1.98-.82-.69-1.66-1.36-2.49-2.04-1.06.7-2.11 1.43-3.17 2.14.42-.71 1.26-2.14 1.68-2.85-.06-.35-.19-1.04-.25-1.39-.03-.19-.1-.58-.13-.77.42-.48 1.28-1.44 1.7-1.93-1.44-1.93-3.77-1.82-5.9-1.55.12-.46.38-1.37.51-1.83 1.28 1.19 3.22.85 4.83.97-1.05-1.47-2.9-2.32-4.67-1.74l-1.76-.11c.46-.33 1.37-1 1.83-1.34-2.28-2.89-5.34-6.66-9.52-5.46-2.95 2.2-5.06 5.78-4.83 9.54.53-.04 1.6-.11 2.13-.15 2.66 0 5.31.3 7.95.67-.94.79-1.97 1.46-3.08 1.98l1.48-1.84c-2.81.07-5.62.26-8.41.59l.16 3.19c.67.43 2.02 1.29 2.69 1.71.42.25 1.25.75 1.67 1-.41 1.32-.71 2.66-.95 4.02-.5-1.28-1.05-2.54-1.7-3.74-6.12-5.44-2-14.77 3.82-18.65 1.13.49 2.26.98 3.4 1.46-.39-2.2-.72-4.41-1-6.62-5.18 3.62-8.95 8.83-11.1 14.74-1.89-1.17-4.45-3.1-6.37-.85-1.39 3.22-1.03 7.22 1.43 9.84.33.72.65 1.45.96 2.19-.75 2.98-1.7 5.98-1.68 9.09.42 1.87 1.57 3.46 2.49 5.11-2.22-.23-3.35-2.35-3.67-4.33-.41-3.5 1.74-6.71 1.47-10.18-4.74-1.69-1.03-8.31-4.89-11.05.4.01 1.19.05 1.58.07.51-.9 1.01-1.8 1.5-2.7-1.75-.86-3.5-1.72-5.26-2.56-.66-.32-1.33-.62-2-.91l1.33-2.58c2.95 2.88 7.23 5.41 11.47 4.55.14.31.43.93.57 1.24.78-1 1.55-2 2.33-3l-3.12 1.6c.1-.78.31-2.35.41-3.14-2.49-2.36-5.28-4.41-7.61-6.94.84-.67 1.68-1.33 2.53-1.99 1.58 2.92 3.86 5.37 6.22 7.68 1.28-1.55 2.54-3.1 3.79-4.67-4.15-3.88-5.24-9.66-7.7-14.56 1.91.7 2.63 2.73 3.72 4.27-1.98-8.33-.58-17.05 1.24-25.19m8.31 32.35l-.06.85c1.9 1.51 1.86-2.94.06-.85m-2.84 2.06c-.72 1.53-.36 1.95 1.06 1.26.73-1.56.38-1.98-1.06-1.26m23.26-.38c-.26 1.35.33 2.01 1.75 1.97.22-1.36-.36-2.02-1.75-1.97m-26.44 3.53c-.62 1.45-.21 1.87 1.23 1.28.63-1.44.22-1.87-1.23-1.28m29.84-.16c-1.29 3.1 3.27.27 0 0M47.15 55c.6.63.6.63 0 0m33.09.02c.59.62.59.62 0 0m-7.88 13.14c1.32 1.05 2.39 2.36 3.42 3.68 1.13-.63 2.26-1.25 3.39-1.87l.32-3.38c-2.55-.25-5.61-1.12-7.13 1.57z"/>
        <path opacity=".22" d="M55.06 69.95c1.25-.68 2.76-.08 4.12-.23 1.65.42 2.51 1.76 3.23 3.16-1.16-.31-2.32-.62-3.48-.94-.47.62-.93 1.24-1.4 1.87-.6-.35-1.81-1.06-2.41-1.42-.02-.61-.05-1.83-.06-2.44z"/>
    </g>
    <path fill="#992021" d="M80.38 14.88c1.79 4.83 1.96 10.07 2.34 15.16.36 4.24-.36 8.48-1.91 12.43-.44-2.37-1-4.72-1.5-7.08-1.94-.07-3.89.04-5.83.26 1.83-6.47 4.03-12.81 6.32-19.13l.58-1.64z"/>
    <g fill="#9c2021">
        <path d="M46.73 15.17c1.77 2.89 2.67 6.17 4.1 9.22l.19.46c1.68 6.66 4.27 13.1 4.94 19.98-2.23 1.37-4.44 2.78-6.62 4.22-2.35-6.08-5.28-12.41-4.4-19.09.41-4.95.81-9.91 1.79-14.79zM86.32 36.12c1.71-3.06 2.23-7.7 5.82-9.06.64 6.29.76 12.99-2.49 18.64-1.63 3.51-4.06 6.55-6.91 9.14-1.42-1.45-2.68-3.04-3.81-4.72 4.02-3.69 5.01-9.29 7.39-14zM28.09 43.01c3.71.53 5.83 3.65 8.16 6.22 2.33 2.53 5.12 4.58 7.61 6.94-.1.79-.31 2.36-.41 3.14l3.12-1.6c-.78 1-1.55 2-2.33 3-.14-.31-.43-.93-.57-1.24-4.24.86-8.52-1.67-11.47-4.55-1.42-3.95-4.24-7.55-4.11-11.91zM91.08 49.55c2.52-2.64 4.67-6.17 8.71-6.45-.62 4.67-2.92 9.17-5.35 13.1-2.83 1.83-6 3.04-9.23 3.97l-1.44-4.02c2.53-2.1 5.02-4.24 7.31-6.6z"/>
        <path d="M78.19 55.86c1.75 2.42 2.96 5.17 4.03 7.94 1.3-.73 2.59-1.48 3.87-2.26 4.69 1.2 4.05 7.63 1.75 10.77-.45-.33-1.35-1-1.8-1.34 2.02-1.98 2.9-5.02.8-7.32-1.37.73-2.72 1.49-4.05 2.29 1.06 2.53 2.2 5.03 3.21 7.59.95 4.31 3.12 9.1.97 13.38-1.06 1.38-2.14 2.75-3.25 4.09-.82.82-1.41 1.82-1.74 2.93l-1.12 1.8c-1.23 1.42-2.41 2.88-3.54 4.38-1.56-8.98.23-18.01-.05-27.03 1.53-2.11 3.85-4.18 3.51-7.05.04-3.18-2-5.79-3.36-8.5l.77-1.67z"/>
    </g>
    <path fill="#a52021" d="M35.52 26.99c1.64.05 2.05 1.73 2.64 2.94.83 2 1.94 3.85 2.93 5.76 2.46 4.9 3.55 10.68 7.7 14.56-1.25 1.57-2.51 3.12-3.79 4.67-2.36-2.31-4.64-4.76-6.22-7.68-1.51-3.23-3.52-6.54-3.2-10.24.2-3.38-1.48-6.69-.06-10.01z"/>
    <path fill="#ad2321" d="M73.48 35.65c1.94-.22 3.89-.33 5.83-.26.5 2.36 1.06 4.71 1.5 7.08-.76 2.28-1.7 4.49-2.61 6.71-1.67-1.18-3.33-2.39-4.97-3.6.03.84.11 2.53.15 3.38-.68-.55-2.03-1.65-2.71-2.2l2.52-.28c-2.7-3.15-.22-7.28.29-10.83z"/>
    <path fill="#bd2421" d="M58.16 48.03c1.13-2.92 2.57-5.71 4.09-8.44 1.62 1.71-.86 3.63-1.09 5.48 1.24-1.41 2.83-2.78 4.72-1.08.08.16.23.48.3.63.62-.04 1.24-.09 1.85-.15 1.62 3 2.44 6.49 1.48 9.84l-1.19-2.5c-.16-1.96-.42-3.91-.87-5.83-.17 3.76-1.09 7.6-3.85 10.33-2.2-3.04-3.04-6.6-2.91-10.31-.63.85-1.14 1.77-1.55 2.74l-.98-.71z"/>
    <path fill="#310909" opacity=".63" d="M59.14 48.74c.41-.97.92-1.89 1.55-2.74-.13 3.71.71 7.27 2.91 10.31 2.76-2.73 3.68-6.57 3.85-10.33.45 1.92.71 3.87.87 5.83-.9 2.2-1.97 4.38-3.57 6.16-2.12.81-2.95-1.54-3.93-2.91-1.3-1.85-1.51-4.13-1.68-6.32z"/>
    <path fill="#8d1d1e" opacity=".91" d="M54.36 47.12c1.8-2.09 1.84 2.36-.06.85l.06-.85z"/>
    <g fill="#ce2829">
        <path d="M58.16 48.03l.98.71c.17 2.19.38 4.47 1.68 6.32.98 1.37 1.81 3.72 3.93 2.91 1.6-1.78 2.67-3.96 3.57-6.16l1.19 2.5c-1.72 2.67-3.68 5.17-5.56 7.73-3.2-3.92-7.93-8.44-5.79-14.01zM67.96 65.96l1.73.09c.23.23.69.69.92.91.1.27.31.81.41 1.08 2.4 1.48 3.65 3.98 4.53 6.57-1.15.56-2.29 1.13-3.42 1.71-.12 1.2-.23 2.41-.33 3.62-6.53-2.3-14.4-1.92-19.93 2.6.04-1.99.05-3.97.02-5.95.24-1.36.54-2.7.95-4.02.55-.73 1.66-2.19 2.21-2.92l.01.3c.01.61.04 1.83.06 2.44.6.36 1.81 1.07 2.41 1.42.47-.63.93-1.25 1.4-1.87 1.16.32 2.32.63 3.48.94-.72-1.4-1.58-2.74-3.23-3.16l1.04-.12c1.97.27 4.05 1.17 5.97.04.06.35.19 1.04.25 1.39-.42.71-1.26 2.14-1.68 2.85 1.06-.71 2.11-1.44 3.17-2.14.83.68 1.67 1.35 2.49 2.04.63-.5 1.88-1.48 2.5-1.98-1.13-1.84-3.66-4.13-5.53-1.31.73-1.15.42-3.81 2.66-2.97-.52-.39-1.57-1.17-2.09-1.56z"/>
    </g>
    <path fill="#731616" opacity=".82" d="M51.52 49.18c1.44-.72 1.79-.3 1.06 1.26-1.42.69-1.78.27-1.06-1.26z"/>
    <g fill="#b52421">
        <path d="M74.78 48.8c1.39-.05 1.97.61 1.75 1.97-1.42.04-2.01-.62-1.75-1.97zM48.32 66.67c2.79-.33 5.6-.52 8.41-.59l-1.48 1.84c-1.45 1.11-2.78 2.37-4.08 3.65-.67-.42-2.02-1.28-2.69-1.71l-.16-3.19z"/>
    </g>
    <path fill="#9a2021" d="M45.31 63.78c2.15-5.91 5.92-11.12 11.1-14.74.28 2.21.61 4.42 1 6.62-1.14-.48-2.27-.97-3.4-1.46-5.82 3.88-9.94 13.21-3.82 18.65-.41 8.81-.09 17.63-.16 26.45-1.07-1.7-2.38-3.23-3.93-4.51-1.66-1.61-2.68-3.73-3.96-5.63-.92-1.65-2.07-3.24-2.49-5.11-.02-3.11.93-6.11 1.68-9.09.52-3.64 4.41-7.03 2.08-10.65-.68.64-1.35 1.29-2.01 1.95.36.35 1.09 1.05 1.45 1.4-.45.21-1.34.63-1.78.83-.02-1.54-.06-3.07-.11-4.61-2.51 2.06-.86 4.77.18 6.97-.19.48-.58 1.44-.77 1.92-2.46-2.62-2.82-6.62-1.43-9.84 1.92-2.25 4.48-.32 6.37.85z"/>
    <path fill="#b42224" opacity=".96" d="M70.96 49.78c3.14.96 5.45 3.42 7.23 6.08l-.77 1.67c-1.12-1.19-2.33-2.29-3.59-3.33l-3.39 1.41c.16-1.94.33-3.89.52-5.83z"/>
    <path fill="#501010" opacity=".73" d="M48.34 52.33c1.45-.59 1.86-.16 1.23 1.28-1.44.59-1.85.17-1.23-1.28z"/>
    <path fill="#831718" opacity=".83" d="M78.18 52.17c3.27.27-1.29 3.1 0 0z"/>
    <path fill="#991f1b" d="M47.15 55c.6.63.6.63 0 0z"/>
    <path fill="#891c1c" opacity=".88" d="M80.24 55.02c.59.62.59.62 0 0z"/>
    <g fill="#d62829">
        <path d="M53.08 55.88c4.18-1.2 7.24 2.57 9.52 5.46-.46.34-1.37 1.01-1.83 1.34-.55.36-1.67 1.07-2.23 1.43-.84-.35-1.68-.7-2.51-1.06-.37-1.5-2.35-1.65-3.04-.32-.85.87-1.72 1.72-2.61 2.54-.53.04-1.6.11-2.13.15-.23-3.76 1.88-7.34 4.83-9.54zM52.82 84.38c.5-1.57 1.89-2.6 3.56-2.57 0 2.43-.14 4.86-.36 7.28-.5-.42-1.5-1.25-2-1.67-.5 2.13-.42 4.32.03 6.46-.32-.5-.96-1.49-1.28-1.99l.01-.16c.31-2.43 1.45-5.04.04-7.35z"/>
    </g>
    <path fill="#c62829" d="M65.22 61.09c2.28-3.11 5.41-6.09 9.63-5.44 2.68 2.91 5.2 6.54 4.6 10.73-1.17-.43-2.28-1.03-3.11-1.97-.37-.43-1.12-1.27-1.49-1.69-2.3-.26-4.4.68-6.4 1.7-1.02-1.17-2.13-2.24-3.23-3.33z"/>
    <path fill="#370b0b" opacity=".63" d="M80.6 58.82c1.05-.89 2.12-1.78 3.17-2.67l1.44 4.02c-1.1.32-2.2.65-3.31.97.18-.45.52-1.36.69-1.81-.5-.13-1.49-.38-1.99-.51z"/>
    <path fill="#721616" opacity=".93" d="M27.31 57.36c1.22-.22 2.4-.17 3.56.14.67.29 1.34.59 2 .91-.41 1.35-.87 2.74-.6 4.17-1.71-.81-3.3-1.85-4.81-2.98-.04-.56-.11-1.68-.15-2.24z"/>
    <path fill="#941d1b" d="M89.63 61c3.13-1.67 6.33-3.48 9.95-3.74l.16 2.62c-.41.26-1.23.79-1.65 1.05-2.17 1.37-4.42 2.68-7.01 3.03-.48-.99-.97-1.98-1.45-2.96z"/>
    <path fill="#941c21" d="M32.27 62.58c-.27-1.43.19-2.82.6-4.17 1.76.84 3.51 1.7 5.26 2.56-.49.9-.99 1.8-1.5 2.7-.39-.02-1.18-.06-1.58-.07l-2.56-.16-.22-.86z"/>
    <path fill="#871b17" opacity=".89" d="M52.99 62.73c.69-1.33 2.67-1.18 3.04.32l-3.04-.32z"/>
    <path opacity=".05" d="M50.38 65.27c.89-.82 1.76-1.67 2.61-2.54l3.04.32c.83.36 1.67.71 2.51 1.06.34.13 1.02.4 1.36.53-.39.32-1.18.97-1.57 1.3-2.64-.37-5.29-.67-7.95-.67zM68.45 64.42c2-1.02 4.1-1.96 6.4-1.7.37.42 1.12 1.26 1.49 1.69-1.87.96-4.18 1.02-5.73 2.55-.23-.22-.69-.68-.92-.91-.31-.41-.93-1.22-1.24-1.63z"/>
    <path fill="#490e0d" opacity=".67" d="M58.54 64.11c.56-.36 1.68-1.07 2.23-1.43l1.76.11-.16.77c-.13.46-.39 1.37-.51 1.83-.35.52-1.05 1.55-1.41 2.07 1.65 1.18 3.61 1.63 5.61 1.41.03.19.1.58.13.77-1.92 1.13-4 .23-5.97-.04l-1.04.12c-1.36.15-2.87-.45-4.12.23l-.01-.3c-.55.73-1.66 2.19-2.21 2.92-.42-.25-1.25-.75-1.67-1 1.3-1.28 2.63-2.54 4.08-3.65 1.11-.52 2.14-1.19 3.08-1.98.39-.33 1.18-.98 1.57-1.3-.34-.13-1.02-.4-1.36-.53m.81 3.21c.58.58.58.58 0 0z"/>
    <g fill="#ad2021">
        <path d="M62.53 62.79c1.77-.58 3.62.27 4.67 1.74-1.61-.12-3.55.22-4.83-.97l.16-.77zM72.36 68.16c1.52-2.69 4.58-1.82 7.13-1.57l-.32 3.38c-1.13.62-2.26 1.24-3.39 1.87-1.03-1.32-2.1-2.63-3.42-3.68z"/>
    </g>
    <path fill="#280709" opacity=".65" d="M82.79 65.94c1.33-.8 2.68-1.56 4.05-2.29 2.1 2.3 1.22 5.34-.8 7.32.45.34 1.35 1.01 1.8 1.34-.46.31-1.38.91-1.84 1.22-1.01-2.56-2.15-5.06-3.21-7.59m2.6.08c-1.03.71-.54 3.69.98 2.43 1.31-.71.63-3.75-.98-2.43z"/>
    <path fill="#29070a" opacity=".65" d="M40.96 63.88c.05 1.54.09 3.07.11 4.61.44-.2 1.33-.62 1.78-.83-.36-.35-1.09-1.05-1.45-1.4.66-.66 1.33-1.31 2.01-1.95 2.33 3.62-1.56 7.01-2.08 10.65-.31-.74-.63-1.47-.96-2.19.19-.48.58-1.44.77-1.92-1.04-2.2-2.69-4.91-.18-6.97z"/>
    <path fill="#d62927" d="M60.45 67.46c.36-.52 1.06-1.55 1.41-2.07 2.13-.27 4.46-.38 5.9 1.55-.42.49-1.28 1.45-1.7 1.93-2 .22-3.96-.23-5.61-1.41z"/>
    <path fill="#711715" opacity=".89" d="M85.39 66.02c1.61-1.32 2.29 1.72.98 2.43-1.52 1.26-2.01-1.72-.98-2.43z"/>
    <path fill="#020000" opacity=".31" d="M59.35 67.32c.58.58.58.58 0 0z"/>
    <path fill="#531112" opacity=".75" d="M50.19 72.85c.65 1.2 1.2 2.46 1.7 3.74.03 1.98.02 3.96-.02 5.95 5.53-4.52 13.4-4.9 19.93-2.6 1.67.95 3.19 2.13 4.67 3.34-.03.98-.11 2.92-.14 3.89-.54-.26-1.61-.76-2.15-1.01-.12-1.21-.18-2.42-.19-3.64-5.35-2.05-11.17-3.31-16.76-1.38-.16.57-.46 1.69-.61 2.26 1.44-.39 2.88-.99 4.41-.86 3.37.17 6.82-.58 10.08.67 0 1.35.01 2.71.03 4.07-.24-1.05-.48-2.09-.74-3.13-4.26-1.31-8.99-1.45-13.23.05-.17 1.84-.36 3.68-.54 5.53l-2.35-.44c.29 1.55.21 3.08-.23 4.59-.45-2.14-.53-4.33-.03-6.46.5.42 1.5 1.25 2 1.67.22-2.42.36-4.85.36-7.28-1.67-.03-3.06 1-3.56 2.57-1.12 2.32-2.12 5.2-.04 7.35l-.01.16c-.07 1.01-.22 2.06.11 3.05.17-.03.49-.08.66-.1l1.53-.25c.06.75.16 2.24.21 2.99-1.47-.24-2.26.38-2.37 1.88-.1 1.16-.28 2.36.03 3.5.57.83 1.17 1.64 1.77 2.46-1 .53-1.56 1.35-1.69 2.45-2.03-1.84-1.81-4.94-2.52-7.39-1.82-1.6-3.19-3.62-4.4-5.69 1.55 1.28 2.86 2.81 3.93 4.51.07-8.82-.25-17.64.16-26.45z"/>
    <path fill="#b82326" d="M75.55 74.61c1.02 2.77.8 5.77.92 8.67-1.48-1.21-3-2.39-4.67-3.34.1-1.21.21-2.42.33-3.62 1.13-.58 2.27-1.15 3.42-1.71z"/>
    <path fill="#bd2429" d="M57.23 81.14c5.59-1.93 11.41-.67 16.76 1.38.01 1.22.07 2.43.19 3.64.74 1.2 1.19 2.5 1.33 3.9-.57-.44-1.71-1.33-2.28-1.77-.51.4-1.52 1.2-2.03 1.6-.02-.65-.05-1.96-.06-2.61-.02-1.36-.03-2.72-.03-4.07-3.26-1.25-6.71-.5-10.08-.67-1.53-.13-2.97.47-4.41.86.15-.57.45-1.69.61-2.26z"/>
    <path fill="#220608" opacity=".59" d="M52.78 91.73c-2.08-2.15-1.08-5.03.04-7.35 1.41 2.31.27 4.92-.04 7.35z"/>
    <path fill="#781717" opacity=".83" d="M73.42 90.77c1.66.16 2.2 1.08 1.61 2.76-1.55-.43-2.08-1.35-1.61-2.76z"/>
    <path fill="#130303" opacity=".37" d="M81.98 93.93c.33-1.11.92-2.11 1.74-2.93 1.47 1-.17 3.91-1.74 2.93z"/>
    <path fill="#901b17" opacity=".98" d="M52.88 94.94l.66-.1c-.17.02-.49.07-.66.1z"/>
    <path fill="#420d0b" opacity=".69" d="M72.55 95.56c.57-.27 1.71-.8 2.28-1.07.43.31 1.29.91 1.72 1.21.32 3.47.1 7.06-1.06 10.37-1.23-1.27-1.1-3.11-1.53-4.69l-.93-.87c-.23-.22-.71-.67-.94-.89.09-1.36.29-2.71.46-4.06z"/>
    <path fill="#7b1815" opacity=".88" d="M52.91 99.46c.11-1.5.9-2.12 2.37-1.88.11 1.77-.68 2.39-2.37 1.88z"/>
    <path fill="#ad2421" d="M53.21 99.69c1.6.76 2.45 2.33 3.31 3.79 4.74 1.31 10.01 1.54 14.72-.07.59-.97 1.19-1.94 1.79-2.9l.93.87c.43 1.58.3 3.42 1.53 4.69-.85 2.76-3.32 4.12-5.98 4.71-4.68 1.89-9.84.88-14.36-.93-.94-.41-1.65-1.07-2.13-1.98.13-1.1.69-1.92 1.69-2.45-.6-.82-1.2-1.63-1.77-2.46.06-.82.2-2.45.27-3.27m1.89 6.55c2.48 1.23 5.33.73 7.99.78-1.33-1.89-4.51-.56-6.21-2.36-.44.4-1.33 1.18-1.78 1.58m8.86.03c2.35 1.61 6.5 1.08 8.91-.32-.49-.28-1.47-.83-1.96-1.11-2.16 1.1-4.58 1.23-6.95 1.43z"/>
    <path fill="#440d0e" opacity=".74" d="M55.1 106.24c.45-.4 1.34-1.18 1.78-1.58 1.7 1.8 4.88.47 6.21 2.36-2.66-.05-5.51.45-7.99-.78z"/>
    <g>
        <path fill="#4e0f0f" opacity=".76" d="M63.96 106.27c2.37-.2 4.79-.33 6.95-1.43.49.28 1.47.83 1.96 1.11-2.41 1.4-6.56 1.93-8.91.32z"/>
    </g>
</svg>
