<svg width="128pt" height="128pt" viewBox="0 0 128 128" xmlns="http://www.w3.org/2000/svg">
    <g fill="#fff">
        <path d="M61.79 40.01c.98-.63 1.52-1.67 2.2-2.57 2.27 4.34 5.63 8.46 5.96 13.53.19 4.58-3.98 7.45-6.05 11.08-2.79-3.73-6.59-7.34-6.4-12.38.51-.49 1.52-1.47 2.03-1.96-.39 3.93 1.11 8.24 4.3 10.64 2.85-2.07 4.68-5.94 3.92-9.47-.35-3.48-2.26-6.5-4.14-9.34l-.73 2.49c-.37-.67-.73-1.35-1.09-2.02z"/>
        <path d="M61.25 40.89c.4 1.02.79 2.04 1.17 3.07l1.59-1.35c4.44 3.41 3.8 10.69-.66 13.74-1.94-3.43-4.36-7.65-1.7-11.44-1.11 1.54-2.48 2.86-3.97 4.02 1.2-2.68 2.6-5.26 3.57-8.04zM71.23 49.07c5.27 3.65 8.91 9.04 11.18 14.96 1.19-.82 2.36-1.67 3.54-2.51 5.16 1.33 4.24 8.72 1 11.67-.22-.69-.65-2.05-.87-2.73 1.56-1.59 2.47-3.9 1.15-5.95-1.55-.82-2.76.97-4.11 1.52 2.73 5.9 4.8 12.35 4.67 18.89-3.22 5.23-6.86 10.24-10.38 15.31-.69-9.1-.11-18.24-.09-27.36 2.1-2.08 4.28-4.77 3.47-7.96-1.01-4.27-3.45-8.49-7.25-10.85-.76.36-2.28 1.1-3.04 1.46.36-2.13.64-4.28.73-6.45zM45.28 63.95c2.18-5.98 6.02-11.2 11.2-14.9.08 2.08.22 4.16.43 6.24-2.8-2.48-5.55.38-6.99 2.76-1.66 2.85-3.64 5.96-3.19 9.41.59 2.23 2.22 3.94 3.72 5.61-.04 1.2-.1 2.41-.17 3.61-.54 6.67-.26 13.36-.21 20.04 0 .8-.01 2.39-.01 3.19-3.5-5.23-8.23-9.83-10.39-15.84.38-6.33 2.37-12.44 4.91-18.21-1.38-.64-2.75-1.3-4.17-1.84-.43 2.39-.51 4.81 1.2 6.73-.32.6-.96 1.81-1.28 2.41-2.57-3.37-3.45-9.03.49-11.75 1.55.73 3.02 1.61 4.46 2.54z"/>
        <path d="M53.01 56c4.21-1.44 7.25 2.48 9.48 5.4-1.23.97-2.45 1.95-3.65 2.94-.97-.55-1.92-1.13-2.87-1.71-3.51-1.42-5.52 4.64-8.46 1.81 1.43-3.01 2.47-6.62 5.5-8.44zM65.51 61.07c1.87-2.85 4.81-5.95 8.59-5.27 2.92 1.21 4.22 4.42 5.22 7.19 1.36 1.67-2.24 3.71.37 4.75-.64 1.96-2.06 3.31-3.91 4.13-1.38-2.18-3.05-4.14-5.1-5.72 2.52.11 5.04.16 7.55.47-1.06-1.3-2.05-2.65-3.02-4-2.26-.01-4.43.5-6.42 1.58-1.07-1.05-2.83-1.6-3.28-3.13z"/>
        <path d="M67.16 64.81c1.61.48 2.41 1.47 2.42 2.96 6.95 2.09 6.74 10.76 6.73 16.66-.24-.31-.71-.93-.94-1.25-1.96-2.96-5.69-3.62-8.92-4.24-5.1-.56-10.69.5-14.52 4.14-.09-1.64-.18-3.28-.26-4.92-.57-3.23 2.33-5.79 2.08-8.93-.69.79-1.26 1.66-1.73 2.62-1.12-.65-2.24-1.3-3.35-1.96l-.48-3.1c2.73-.47 5.51-.52 8.27-.76-.59.85-1 1.76-1.25 2.73.88.39 1.76.76 2.64 1.12-6.08-1.15-.22 7.25.87 2.08 1.41.22 2.69.84 3.94 1.52-.87-1.28-1.12-3.49-3.16-3.38-.32-.46-.96-1.39-1.29-1.85 3.11 1.65 6.79 2.33 9.98.54.31-.59.61-1.17.92-1.75l-1.95-2.23m-2.26 9.03c1.45-1.59 4.88-2.83 5.21.32.87-.75 1.72-1.52 2.56-2.31-.43-.67-1.28-2.01-1.7-2.68-3.02-.02-5.32 1.79-6.07 4.67zM41.94 68.84c-1.23-.46-1.76-3.14-.22-3.46 1.18.5 1.69 3.08.22 3.46z"/>
        <path d="M56.19 81.45c5.71-2.76 12.5-1.92 17.92 1.1.06.69.19 2.06.25 2.75l-.31.89.32.91c-.23 1.25-.59 2.46-.95 3.68.02-.65.04-1.95.05-2.6l-2.1 1.7c-.12-1.99-.23-3.99-.35-5.98-1-.38-1.99-.76-2.98-1.15-1.34-.04-2.68-.04-4.02 0-1.46-.04-2.92-.06-4.38-.06-.98.45-1.96.91-2.94 1.36-.16 2.01-.3 4.03-.45 6.04-.79-.89-1.57-1.78-2.34-2.69.12 2.16.29 4.32.16 6.48-.3-.59-.9-1.76-1.2-2.35l.11-.5c-.02-.73-.05-2.19-.06-2.92l.08-.12c1.03-1.29.89-2.48-.42-3.57.21-.45.62-1.35.83-1.81.93-.37 1.86-.76 2.78-1.16zM53.41 99.97c1.29 1.02 2.23 2.37 3.08 3.76 4.11 1.12 8.52 1.11 12.71.48 2.41-.06 3.15-2.67 4.43-4.24l.63.99v3.2c-.99 2.21-3.63 1.1-5.44 1.83-3.25 1.09-6.6.45-9.89.06-.47-.22-1.41-.67-1.88-.9-.69.38-1.38.75-2.07 1.13 7.01.96 14.08.99 20.93-.92-.99 3.22-3.8 5.02-6.97 5.44-4.75 1.85-9.9.49-14.41-1.36-1.51-1.11-1.96-3.14-2.88-4.71.29-.25.86-.75 1.15-1.01.15-.94.46-2.81.61-3.75z"/>
    </g>
    <path fill="#d3d3d3" opacity=".83" d="M61.97 63.67c.07-1.32 3.62-1.43 3.64.03-1.21.66-2.42.65-3.64-.03z"/>
    <g fill="#fdfdfd">
        <path d="M58.96 64.93c.68.15 2.03.46 2.7.62 2.33-.78 4.58-.16 6.33 1.51-1.38.94-2.76 1.87-4.16 2.77-.93-.69-1.83-1.42-2.7-2.19-1.36-.55-2.85-.77-4.08-1.63l4.45.98-2.54-2.06zM52.98 94.6c2.28-.33 1.88 3.19 1.68 4.43l-.63.12c-1.65-.85-.45-3.19-1.05-4.55z"/>
    </g>
    <path fill="#c8c8c8" opacity=".78" d="M85.75 68.7c-1.5-.29-1.12-2.95.26-3.2 1.59.26 1.07 2.9-.26 3.2z"/>
    <path fill="#3e3e3e" opacity=".24" d="M38.28 73.25c.5.49.5.49 0 0z"/>
    <path fill="#868686" opacity=".53" d="M50.28 76.68c.35.37 1.04 1.11 1.39 1.48.08 1.64.17 3.28.26 4.92.37-.11 1.11-.35 1.48-.47-.21.46-.62 1.36-.83 1.81-.88 1.32-.74 2.51.42 3.57l-.08.12c-1.13.6-1.75 2.83.06 2.92l-.11.5c-.84 4.01-.07 8.13-.07 12.19-.29.26-.86.76-1.15 1.01-.8-2.61-1.26-5.31-1.58-8.01-.05-6.68-.33-13.37.21-20.04z"/>
    <path fill="#a0a0a0" opacity=".63" d="M74.11 82.55l1.26.63c.23.32.7.94.94 1.25.02 2.21-1.26 4.35-.65 6.6 1.1 4.45.7 9.03.65 13.56-.52-.1-1.54-.32-2.05-.43v-3.2l.11-.89c.18-1.47.43-2.92.71-4.37-.64 1.77-1.3 3.58-2.78 4.86.18-1.87.4-3.74.64-5.61.59-.13 1.78-.4 2.37-.53-.38-1.02-1.16-1.68-2.35-1.97.12-.42.35-1.26.46-1.67.36-1.22.72-2.43.95-3.68 1.4-.46 1.4-1.06-.01-1.8-.06-.69-.19-2.06-.25-2.75z"/>
    <path fill="#303030" opacity=".19" d="M52.98 91.03c-1.81-.09-1.19-2.32-.06-2.92.01.73.04 2.19.06 2.92z"/>
</svg>
