<svg width="128pt" height="128pt" viewBox="0 0 128 128" xmlns="http://www.w3.org/2000/svg">
    <g fill="#fff">
        <path d="M63.85 10.57c3.68 9.75 7.81 19.88 6.86 30.52.03 1.27.42 2.43 1.18 3.48 1.3-10.36 4.95-20.28 8.94-29.88 1.17 6.68 2.07 13.43 1.91 20.23-.77 4.93-2.54 9.69-4.65 14.2-2.9-2.24-6.04-5.58-10.08-4.21l1.52-.28c-1.78-2.57-3.19-5.46-5.56-7.56-2.86 2.03-4.12 5.39-6.22 8.07-2.87-11.86 1.88-23.66 6.1-34.57m-.61 16.9c-1 .93-.77 3.21.75 3.43 2.07-.23 1.25-4.5-.75-3.43zM46.82 14.74c2.63 5.8 4.71 11.82 6.34 17.97.47.08 1.4.25 1.86.33-.41.1-1.25.3-1.67.39 1.52 4.34 2.6 8.9 2.3 13.52l1.6-.31c-.93.74-1.87 1.45-2.82 2.16l-.64-1.92 1.68.49c-.43-.66-.87-1.32-1.3-1.97-1.56 1.28-3.15 2.52-4.71 3.78-2-5.22-4.43-10.46-4.69-16.14.13-6.14 1.16-12.23 2.05-18.3zM35.65 26.62c2.28 1.89 2.83 4.99 4.37 7.41 3.29 5.28 4.26 11.83 8.63 16.45-1.31 1.39-2.55 2.86-3.73 4.37-5.34-5.09-9.57-12.17-9.27-19.74-.47-2.82-.67-5.68 0-8.49zM87.29 34.4c1-2.82 2.62-5.33 4.23-7.83 1.61 3.8.15 7.71.73 11.56-1.7 6.43-4.64 12.86-10.07 16.97l-.05-1.92c-1.07.72-2.02 1.56-2.88 2.51-.3-.44-.88-1.33-1.18-1.77 1.22-.53 2.42-1.11 3.55-1.82L80 51.75l-.97-1.49c4.31-4.36 5.35-10.65 8.26-15.86zM27.88 43.04c1.57.67 3.37 1.07 4.62 2.31 3.43 3.71 6.92 7.44 11.02 10.42.18.48.54 1.44.72 1.93l1.17-.2c.27.13.8.39 1.07.52-1.19.83-1.21 2.14-1.09 3.45-.79-.69-1.56-1.4-2.3-2.13-1.42 1.51-3.32-.21-4.87-.56-2.38-1.06-5.28-2.07-6.25-4.75-1.46-3.62-3.52-7.08-4.09-10.99zM94.82 45.71c1.22-1.58 3.21-2.07 5.05-2.55-.72 4.24-3 8.01-4.77 11.88-2.93 4.01-8.44 3.98-12.53 6.05-.49-1.09-1.02-2.16-1.43-3.28.68.24 2.06.73 2.75.98-.02-.62-.05-1.87-.07-2.49 3.77-3.42 7.68-6.71 11-10.59z"/>
        <path d="M70.85 46.23l2.97.8-.87 1.42c.69 0 2.06-.01 2.74-.02.41.95.82 1.91 1.21 2.88-2.08-1.58-4.85-2.63-6.05-5.08zM51.19 50.75c-.24-1.65.41-2.35 1.97-2.1.26 1.59-.4 2.29-1.97 2.1zM89.63 60.91c2.12-.92 4.19-1.94 6.28-2.92 1.42.31 2.81.75 4.17 1.26-2.7 1.96-5.43 4.27-8.88 4.63-.51-1-1.04-1.99-1.57-2.97zM32.01 58.24c1.99.78 3.94 1.65 5.85 2.6-.22.7-.68 2.1-.9 2.8-1.43-.11-2.85-.24-4.27-.38-.03-.16-.07-.49-.1-.65-.19-1.45-.37-2.91-.58-4.37z"/>
    </g>
    <path fill="#e9e9e9" opacity=".91" d="M63.24 27.47c2-1.07 2.82 3.2.75 3.43-1.52-.22-1.75-2.5-.75-3.43z"/>
    <g fill="#dcdcdc">
        <path opacity=".86" d="M49.22 51.79c1.95.95-.95 3.05-1.47 4.24-1.19.98-1.55-1.1-.62-1.62.47-1.09 1.17-1.97 2.09-2.62zM27.46 57.33c1.5.07 3 .19 4.48.43l.07.48c.21 1.46.39 2.92.58 4.37-1.76-.98-3.45-2.08-5.11-3.23-.01-.51-.02-1.53-.02-2.05z"/>
    </g>
    <path fill="#727272" opacity=".45" d="M95.91 57.99c1.27-1.41 3.15-.93 4.79-.7 0 .55.02 1.64.02 2.19-.16-.06-.48-.17-.64-.23-1.36-.51-2.75-.95-4.17-1.26z"/>
    <path fill="#1d1d1d" opacity=".11" d="M100.33 64.05c1.37-.46 1.88.03 1.53 1.44-1.37.46-1.88-.02-1.53-1.44z"/>
</svg>
