<svg width="128pt" height="128pt" viewBox="0 0 128 128" xmlns="http://www.w3.org/2000/svg">
    <g fill="#fff">
        <path d="M62.3 17.08c1.5-1.26 3.1.17 4.49.82 12.89 7.54 25.88 14.91 38.79 22.42.01 7.23.03 14.46-.02 21.69 1.47.83 2.95 1.65 4.43 2.46-1.49.86-2.98 1.74-4.45 2.64.1 7.18.04 14.36.03 21.55-13.89 8.03-27.8 16.02-41.71 24.02-14-7.79-27.86-15.83-41.67-23.95-.79-7.12-.11-14.4-.32-21.59-1.41-.87-2.81-1.74-4.2-2.63 1.39-.86 2.77-1.71 4.18-2.52.26-7.22-.49-14.57.37-21.71 13.21-7.97 26.72-15.46 40.08-23.2M48.12 27.54c5.37 2.63 10.29 6.07 15.62 8.78 5.23-2.91 10.5-5.75 15.55-8.95-5.14-2.85-10.17-5.9-15.33-8.72-5.52 2.42-10.54 5.97-15.84 8.89M27.5 39.29c5.22 2.95 10.33 6.1 15.63 8.92 5.27-2.86 10.41-5.97 15.61-8.97-5.21-2.93-10.39-5.92-15.58-8.89-5.28 2.88-10.43 5.98-15.66 8.94m41.39-.07c5.07 3.17 10.35 5.99 15.5 9.03 5.26-2.87 10.27-6.19 15.63-8.87-5.23-3.11-10.47-6.24-15.86-9.05-5.01 3.09-10.14 5.99-15.27 8.89m-50.2 25.33c15.09 8.57 30.06 17.37 45.16 25.93 14.95-8.73 29.97-17.33 45.01-25.91-14.95-8.79-30.08-17.27-45.03-26.05-15.06 8.65-30.18 17.2-45.14 26.03m8.8 25.17c5.23 2.95 10.46 5.9 15.64 8.93 5.16-3.08 10.55-5.79 15.58-9.1-5.3-2.75-10.31-6-15.57-8.83-5.26 2.93-10.41 6.03-15.65 9m41.29-.03c5.32 2.92 10.44 6.23 15.89 8.92 5.02-3.16 10.3-5.87 15.35-8.98-5.31-2.77-10.35-6.05-15.64-8.87-5.24 2.91-10.4 5.96-15.6 8.93M48.12 101.5c5.31 2.9 10.4 6.16 15.72 9.03 5.06-3.12 10.26-6.03 15.46-8.9-5.02-3.25-10.36-5.97-15.46-9.11-5.29 2.91-10.41 6.1-15.72 8.98z"/>
        <path d="M60.54 27.34c1.08-.53 2.17-1.06 3.24-1.6 1.03.58 2.06 1.15 3.09 1.73-1.07.6-2.13 1.2-3.2 1.8-1.04-.65-2.09-1.29-3.13-1.93zM39.9 39.21c1.06-.54 2.12-1.08 3.17-1.63 1 .63 1.98 1.26 2.97 1.89-1.08.54-2.16 1.07-3.24 1.6-.97-.62-1.94-1.24-2.9-1.86zM81.6 39.46c.93-.65 1.86-1.28 2.81-1.91 1.09.59 2.2 1.17 3.3 1.75-1.05.6-2.1 1.19-3.14 1.79-.99-.55-1.98-1.09-2.97-1.63zM25.47 64.52c12.77-7.35 25.51-14.76 38.35-22 12.77 7.27 25.44 14.72 38.23 21.96-12.71 7.38-25.53 14.6-38.21 22.04-12.89-7.15-25.56-14.7-38.37-22m30.4.05c2.6 1.58 5.28 3.05 7.96 4.49 2.56-1.51 5.13-2.99 7.57-4.68-2.59-1.38-5.17-2.79-7.71-4.28-2.66 1.41-5.2 3.01-7.82 4.47zM39.93 89.56c1.03-.53 2.06-1.04 3.1-1.55l3.15 1.83c-1.18.52-2.33 1.15-3.56 1.54-.94-.54-1.81-1.19-2.69-1.82zM81.51 89.69c.74-.42 2.21-1.26 2.95-1.67 1.11.59 2.21 1.18 3.32 1.77-1.13.54-2.26 1.08-3.39 1.63-.96-.58-1.92-1.16-2.88-1.73zM60.77 101.66c.94-.62 1.88-1.23 2.82-1.84 1.09.57 2.18 1.15 3.28 1.72-1.08.6-2.16 1.22-3.23 1.84-.95-.59-1.91-1.16-2.87-1.72z"/>
    </g>
</svg>
