<svg width="128pt" height="128pt" viewBox="0 0 128 128" xmlns="http://www.w3.org/2000/svg">
    <g fill="#fff">
        <path d="M48.12 27.57c5.21-3.09 10.4-6.23 15.74-9.08 5.07 3.04 10.25 5.89 15.39 8.81-5 3.26-10.19 6.27-15.53 8.91-5.43-2.43-10.19-6.14-15.6-8.64m12.42-.26c1.03.65 2.06 1.3 3.08 1.95.81-.4 2.44-1.2 3.25-1.61-1.01-.65-2.03-1.3-3.05-1.94-1.09.54-2.18 1.08-3.28 1.6zM27.54 39.32c5.16-3.06 10.35-6.06 15.6-8.96 5.19 2.97 10.41 5.89 15.57 8.92-5.2 2.97-10.32 6.06-15.57 8.94-5.29-2.81-10.38-5.97-15.6-8.9m12.26-.11c1.01.63 2.03 1.27 3.04 1.91 1.1-.61 2.19-1.24 3.28-1.88-1.04-.53-2.07-1.06-3.11-1.59l-3.21 1.56zM68.92 39.28c5.07-3.07 10.33-5.83 15.32-9.03 5.28 3.03 10.61 5.97 15.79 9.17-5.37 2.67-10.4 5.96-15.66 8.83-5.11-3.06-10.39-5.83-15.45-8.97m12.63-.01c.97.64 1.95 1.29 2.92 1.95 1.09-.69 2.17-1.36 3.26-2.04l-3.33-1.59c-.71.42-2.14 1.26-2.85 1.68zM18.74 64.48c14.96-8.77 30.03-17.36 45.09-25.95 14.96 8.69 29.99 17.28 44.96 25.95-14.88 8.82-30.03 17.19-44.92 26-15.09-8.6-30.14-17.24-45.13-26m6.75.06c12.82 7.27 25.47 14.85 38.37 21.97 12.67-7.42 25.45-14.66 38.18-22C89.28 57.2 76.59 49.8 63.83 42.52c-12.84 7.24-25.59 14.63-38.34 22.02z"/>
        <path d="M55.84 64.53c2.69-1.38 5.2-3.08 7.91-4.43 2.53 1.56 5.16 2.94 7.78 4.35-2.47 1.69-5.17 2.99-7.68 4.61-2.71-1.43-5.4-2.91-8.01-4.53zM27.52 89.71c5.27-2.97 10.4-6.17 15.75-8.98 5.15 2.99 10.31 5.97 15.45 8.99-5.17 3.02-10.41 5.93-15.59 8.93-5.18-3.02-10.41-5.95-15.61-8.94m12.4-.01c.94.6 1.88 1.2 2.82 1.81.85-.43 2.55-1.27 3.4-1.69-1.05-.61-2.09-1.23-3.13-1.84-1.03.56-2.07 1.13-3.09 1.72zM68.78 89.7c5.19-2.99 10.35-6.02 15.58-8.93 5.33 2.75 10.3 6.14 15.67 8.81-4.98 3.19-10.31 5.78-15.26 9.02-5.54-2.58-10.62-6.01-15.99-8.9m12.63.13c1.05.55 2.1 1.1 3.16 1.63.8-.43 2.41-1.29 3.22-1.72-1.1-.6-2.19-1.2-3.28-1.81-1.04.63-2.07 1.26-3.1 1.9zM48.13 101.41c5.38-2.72 10.42-6.06 15.74-8.89 5.04 3.2 10.47 5.77 15.39 9.17-5.25 2.68-10.17 5.94-15.37 8.71-5.44-2.61-10.49-6.03-15.76-8.99m15.42-1.57c-.99.62-2 1.23-3.01 1.83 1.06.53 2.11 1.1 3.13 1.71.81-.5 2.42-1.49 3.22-1.98-1.11-.53-2.22-1.05-3.34-1.56z"/>
    </g>
    <path fill="#141414" opacity=".08" d="M81.41 89.83c1.03-.64 2.06-1.27 3.1-1.9 1.09.61 2.18 1.21 3.28 1.81-.81.43-2.42 1.29-3.22 1.72-1.06-.53-2.11-1.08-3.16-1.63z"/>
</svg>
