<svg width="128pt" height="128pt" viewBox="0 0 128 128" xmlns="http://www.w3.org/2000/svg">
    <path fill="#b52c29" d="M29.01 20.38c2.61-1.77 5.69-3.33 8.95-2.85 5.2.37 9.97 4.73 10.55 9.94-1.07.74-2.06 1.59-3 2.5-.16-3.17-1.52-6.45-4.5-7.93-2.44-1.56-5.39-1.02-8-.29-1.32-.51-2.65-.96-4-1.37z"/>
    <path fill="#c62c31" d="M29.01 20.38c1.35.41 2.68.86 4 1.37-2.93 2.06-5.21 5.55-4.25 9.26.89 5.57 8.07 8.48 12.7 5.39 2.34-1.35 3.25-4.01 4.05-6.43.94-.91 1.93-1.76 3-2.5 8.32-1.85 17.23-.74 24.91 2.92 9.11 4.49 16.32 12.77 19.24 22.53 4.24-1.36 9.28-1.46 12.79 1.68 4.99 3.83 5.85 11.78 1.78 16.58-2.81 3.66-7.81 5.12-12.23 4.07.35-.18 1.06-.53 1.41-.71.23-.81.44-1.62.65-2.43 4.29.07 8.93-2.59 9.5-7.15 1.05-4.71-2.81-9.42-7.52-9.77-3.45-.55-6.33 1.84-8.34 4.34-2.38 1.4-4.99 2.41-7.79 1.77-2.58-.87-4.25 1.3-5.87 2.87.96.38 1.92.75 2.88 1.12l.04 2.41-4.41.57c1.95-8.49-2.62-17.79-10.71-21.1-7.27-3.4-15.96-.7-21.32 4.9-1.26-.95-2.46-1.99-3.62-3.05 1.37.74 2.76 1.46 4.17 2.12l.18-4.78c-.4.24-1.21.7-1.62.94-.47-.68-.94-1.35-1.41-2.03-.71 1-1.42 1.99-2.12 2.99-2.11-2.4-4.32-4.72-6.62-6.94-.36.47-1.1 1.39-1.47 1.86-.89.09-1.79.19-2.68.3-.21-.64-.62-1.94-.83-2.59l2.16-2.12c-5.64-4.52-5.82-13.44-.65-18.39m20.93 11.04c.59 3.19 1.56 6.29 2.53 9.38 11.23-2.41 23.43 4.13 27.2 15.05 3.09-.53 6.16-1.15 9.21-1.9-1.34-4.32-3.79-8.13-6.26-11.86-2.39-.58-3.49 2.45-5.42 2.53-4.01-3.75-8.86-6.42-14.1-8.03.44-1.75.8-3.52 1.26-5.26-4.76-.92-9.68-1.01-14.42.09z"/>
    <path fill="#140504" opacity=".4" d="M33.01 21.75c2.61-.73 5.56-1.27 8 .29 2.98 1.48 4.34 4.76 4.5 7.93-.8 2.42-1.71 5.08-4.05 6.43-4.63 3.09-11.81.18-12.7-5.39-.96-3.71 1.32-7.2 4.25-9.26m1.37 1.51c-4.53 1.85-5.32 8.95-1.01 11.45 3.58 2.83 9.36.26 10-4.17 1.19-4.94-4.39-9.26-8.99-7.28z"/>
    <path fill="#791c1b" d="M34.38 23.26c4.6-1.98 10.18 2.34 8.99 7.28-.64 4.43-6.42 7-10 4.17-4.31-2.5-3.52-9.6 1.01-11.45z"/>
    <path fill="#bb2c2c" d="M19.72 65.94c-.64-8.98 2.67-17.79 7.78-25.05.21.65.62 1.95.83 2.59.89-.11 1.79-.21 2.68-.3-2.63 3.2-4.29 7.05-5.81 10.87 1.79.52 3.59 1.04 5.38 1.59-1.43 5.43-1.42 11.12.02 16.54-1.8.6-3.59 1.19-5.39 1.77 1.57 4.26 3.76 8.25 6.56 11.81.42.01 1.26.02 1.68.03 2.11-2.16 4.21-4.33 6.28-6.53 1.37-.36 2.17-1.24 2.39-2.63.36-.19 1.07-.58 1.42-.77 4.21 4.36 10.31 7.38 16.49 6.32 6.28-.83 11.88-5.09 14.46-10.87 1.1 1.32 2.2 2.63 3.3 3.95-2.91 5.19-7.94 8.92-13.54 10.77-4.05.61-8.17.67-12.21.01-1.01 3.55-1.81 7.15-2.4 10.79 4.96.57 9.99.73 14.93-.22-.39-1.76-.75-3.53-1.14-5.29.9-.5 1.83-.95 2.79-1.34 4.19-1.38 7.59-4.19 11.03-6.84 1.67.81 3.12 2 4.73 2.91 1.4.09 2.1-.72 2.1-2.41 1.18-2.18 2.4-4.33 3.43-6.58.9 1.21 1.81 2.42 2.7 3.64l.2.27c-7.59 14.65-25.13 23.15-41.3 19.42-.94 5.34-5.59 9.83-11.1 10.01-6.71.62-12.97-5.68-12.4-12.38-.08-3.36 1.96-6.2 4.07-8.6-.57-.77-1.11-1.56-1.61-2.37-.36-.98-.97-1.76-1.82-2.35-3.99-5.43-5.9-12.12-6.53-18.76m13.64 25.23c-4.96 2.42-5.99 9.67-1.9 13.37 4.37 4.81 13.37 1.78 14.08-4.66 1.51-6.49-6.58-12.2-12.18-8.71z"/>
    <path fill="#e53537" d="M39.1 48.26c.7-1 1.41-1.99 2.12-2.99.47.68.94 1.35 1.41 2.03.41-.24 1.22-.7 1.62-.94l-.18 4.78c-1.41-.66-2.8-1.38-4.17-2.12l-.8-.76z"/>
    <path fill="#140404" opacity=".4" d="M90.7 59.53c2.01-2.5 4.89-4.89 8.34-4.34 4.71.35 8.57 5.06 7.52 9.77-.57 4.56-5.21 7.22-9.5 7.15-2.47-1.06-5.11-2.4-6.29-4.98-1.36-2.34-.74-5.14-.07-7.6m5.57-2.38c-4.41 1.46-5.91 7.77-2.39 10.9 3.33 3.65 9.92 1.62 10.93-3.13 1.43-4.78-3.96-9.46-8.54-7.77z"/>
    <path fill="#841d21" d="M96.27 57.15c4.58-1.69 9.97 2.99 8.54 7.77-1.01 4.75-7.6 6.78-10.93 3.13-3.52-3.13-2.02-9.44 2.39-10.9z"/>
    <path fill="#d63031" d="M82.91 61.3c2.8.64 5.41-.37 7.79-1.77-.67 2.46-1.29 5.26.07 7.6 1.18 2.58 3.82 3.92 6.29 4.98-.21.81-.42 1.62-.65 2.43-.35.18-1.06.53-1.41.71-.52-.17-1.55-.51-2.06-.69-.83 2.08-1.74 4.13-2.73 6.14-.89-1.22-1.8-2.43-2.7-3.64.36-.83 1.07-2.49 1.42-3.32-3.05-.92-6.09-1.85-9.15-2.71-.65 1.42-1.29 2.84-1.99 4.23-1.1-1.32-2.2-2.63-3.3-3.95.4-1 .76-2.01 1.06-3.04l4.41-.57-.04-2.41c-.96-.37-1.92-.74-2.88-1.12 1.62-1.57 3.29-3.74 5.87-2.87z"/>
    <path fill="#230808" opacity=".45" d="M39.73 79.26c.12-1.49.91-2.36 2.39-2.63-.22 1.39-1.02 2.27-2.39 2.63z"/>
    <path fill="#841e22" opacity=".87" d="M81.98 86.05c.12-1.25.82-2.05 2.1-2.41 0 1.69-.7 2.5-2.1 2.41z"/>
    <path fill="#1e0707" opacity=".38" d="M26.25 84.7c.85.59 1.46 1.37 1.82 2.35-1.81.18-2.42-.61-1.82-2.35z"/>
    <path fill="#3a0d0e" opacity=".53" d="M49.64 96.83c.59-3.64 1.39-7.24 2.4-10.79 4.04.66 8.16.6 12.21-.01-3.77 1.7-7.93.97-11.9 1.33-.95 2.88-1.37 5.89-1.89 8.86 4.35.73 8.78.64 13.14.06-.17-1.81-.63-3.57-.79-5.38 1.13-.32 2.27-.63 3.41-.92-.96.39-1.89.84-2.79 1.34.39 1.76.75 3.53 1.14 5.29-4.94.95-9.97.79-14.93.22z"/>
    <path fill="#120404" opacity=".4" d="M33.36 91.17c5.6-3.49 13.69 2.22 12.18 8.71-.71 6.44-9.71 9.47-14.08 4.66-4.09-3.7-3.06-10.95 1.9-13.37m1.88 1.14c-5.04 1.49-5.88 9.37-1.24 11.84 3.37 2.38 8.39.32 9.55-3.51 1.91-4.76-3.52-10.17-8.31-8.33z"/>
    <path fill="#761c1e" d="M35.24 92.31c4.79-1.84 10.22 3.57 8.31 8.33-1.16 3.83-6.18 5.89-9.55 3.51-4.64-2.47-3.8-10.35 1.24-11.84z"/>
</svg>
