<svg width="128pt" height="128pt" viewBox="0 0 128 128" xmlns="http://www.w3.org/2000/svg">
    <path opacity=".06" d="M51.6 19.87c1.65-1.41 4.1-3.63 6.23-1.74.58 2.56.51 5.2.56 7.8 3.82.09 7.64.07 11.46-.03.09-2.79.16-5.57.24-8.35 1.47.09 3.01.17 4.18 1.22-.71-.25-2.14-.74-2.85-.98-.24 2.3-.49 4.61-.7 6.91 8.75 2.67 16.66 9.15 19.33 18.12.56 2.29.89 4.62 1.27 6.94 1.94.05 3.88.09 5.82.12 2.57 3.13 2.21 7.35.91 10.94-1.14 3.12-1.89 6.88-5.06 8.62 3.18-5.13 4.99-11 5.29-17.02-2.17-.06-4.34-.12-6.51-.17-.33 9.14-6.29 16.33-9.91 24.31.12.17.36.53.48.7-1.34-.17-2.68-.35-4.02-.52 4.41-7.81 9.55-15.73 10.53-24.84-4.33-.06-8.67-.06-13 0v-1.67c4.32.08 8.64.05 12.96-.09-.24-8.67-5.5-16.75-13.06-20.85-5.4-2.49-11.63-3.3-17.46-1.99-10.67 1.93-18.85 12.25-18.97 22.99 4.33.02 8.66-.07 12.98-.06 0 .42-.02 1.25-.03 1.66-2.79.02-5.57.07-8.36.03-1.53-.04-3.05-.07-4.58-.09.77 9.56 6.41 17.75 11.03 25.87-.91-.37-1.82-.73-2.73-1.09-.96 1.27-1.77 2.98-3.63 2.99-1.74-.27-2.27-2.17-3.13-3.42 1.72 1.74 3.78 3.01 6.02 1.18-4.17-7.88-9.93-15.43-10.4-24.68l-.04-.01c-2.3-.64-4.67-.91-7.03-1.08 1.98-1.72 4.61-1.85 7.1-2.05.12-.66.36-2 .49-2.66 1.64-10.71 10.2-19.4 20.53-22.16-.1-2.27-.22-4.54-.35-6.81-1.87.62-3.74 1.25-5.59 1.96z"/>
    <path opacity=".06" d="M56.74 29.8C67.81 25.74 81 31.95 85.2 42.9c-.14 1.58 1.55 4.3-.24 5.21-.78-.71-1.41-1.54-1.89-2.49-1.64-4.75-4.55-9.13-8.94-11.73-5.89-3.47-13.65-3.74-19.59-.24-5.68 2.95-9.17 8.93-10.13 15.13l-3.07-.15c1.44-8.4 7.04-16.27 15.4-18.83z"/>
    <path fill="#b52b2b" d="M51.6 19.87c1.85-.71 3.72-1.34 5.59-1.96.13 2.27.25 4.54.35 6.81-10.33 2.76-18.89 11.45-20.53 22.16-.13.64-.38 1.92-.51 2.57-2.17-.03-4.34-.06-6.51-.1 1.15-12.91 9.99-24.15 21.61-29.48z"/>
    <path fill="#b82b2c" d="M71.42 17.79c.71.24 2.14.73 2.85.98 12.63 4.99 23 16.68 24.02 30.57-2.24.02-4.48.03-6.71.05-.44-2.21-.85-4.42-1.53-6.57-2.67-8.97-10.58-15.45-19.33-18.12.21-2.3.46-4.61.7-6.91z"/>
    <path fill="#b82c2c" d="M58.29 27.3c5.83-1.31 12.06-.5 17.46 1.99 7.56 4.1 12.82 12.18 13.06 20.85-4.32.14-8.64.17-12.96.09-.7-5.85-5.76-11.1-11.86-10.89-6.03-.15-10.99 5.11-11.69 10.89-4.32-.01-8.65.08-12.98.06.12-10.74 8.3-21.06 18.97-22.99m-1.55 2.5c-8.36 2.56-13.96 10.43-15.4 18.83l3.07.15c.96-6.2 4.45-12.18 10.13-15.13 5.94-3.5 13.7-3.23 19.59.24 4.39 2.6 7.3 6.98 8.94 11.73.01.84.04 2.52.06 3.37 1.29-.02 2.58-.04 3.87-.07-.53-2.03-1.14-4.03-1.8-6.02C81 31.95 67.81 25.74 56.74 29.8z"/>
    <path fill="#350c0c" opacity=".56" d="M85.2 42.9c.66 1.99 1.27 3.99 1.8 6.02-1.29.03-2.58.05-3.87.07-.02-.85-.05-2.53-.06-3.37.48.95 1.11 1.78 1.89 2.49 1.79-.91.1-3.63.24-5.21z"/>
    <path fill="#bd2c2c" d="M36.45 52.67l.04.01c.47 9.25 6.23 16.8 10.4 24.68-2.24 1.83-4.3.56-6.02-1.18-6.29-6.35-10.61-14.83-10.79-23.89 2.13.08 4.25.22 6.37.38z"/>
    <path fill="#aa2729" d="M39.33 51.83c1.53.02 3.05.05 4.58.09l.44 1.28c-.77.09-2.3.26-3.06.34 1.41 7.68 6.1 14.51 13.05 18.17-.59.05-1.76.13-2.34.17 1.24.91 2.5 1.8 3.77 2.7-.08 1.71-.17 3.42-.25 5.13-1.06.46-2.13.92-3.19 1.38-.68-1.12-1.32-2.26-1.97-3.39-4.62-8.12-10.26-16.31-11.03-25.87z"/>
    <path fill="#ba2c2c" d="M43.91 51.92c2.79.04 5.57-.01 8.36-.03.47 4.76 3.82 8.44 7.9 10.59.29 6.72-.21 13.46.3 20.17.13 2.69 3.26 2.86 5.25 3.37.89-1.56 2.16-3.06 2.04-4.97.14-6.1-.01-12.21.06-18.32 4-2.39 7.43-6.01 8.03-10.83 4.33-.06 8.67-.06 13 0-.98 9.11-6.12 17.03-10.53 24.84-1.87 3.15-3.9 6.38-4.37 10.09-.68 5.71 0 11.53-.95 17.21-.61 3.35-3.38 5.66-6.29 7.06-.19-7.42-.03-14.86-.16-22.28-1.69.12-3.38.28-5.07.43 0 7.29.04 14.58-.12 21.86-2.69-1.32-5.49-3.2-6.25-6.29-1.48-7.83.84-16.32-2.78-23.73 1.06-.46 2.13-.92 3.19-1.38.08-1.71.17-3.42.25-5.13-1.27-.9-2.53-1.79-3.77-2.7.58-.04 1.75-.12 2.34-.17.53.24 1.58.71 2.11.95 2.64 1.89 3.93-2.81 1.06-3.29-7.18-2.31-11.74-9-13.16-16.17l-.44-1.28m39.72 1.64c-1.26 7.6-6.83 13.75-13.92 16.47-.12.77-.35 2.32-.47 3.09 9.21-2.03 16.14-10.26 17.44-19.48l-3.05-.08M72.24 74c.36 2.1.73 4.19 1.13 6.29 2-2.07 3.36-4.61 3.07-7.58-1.4.42-2.8.85-4.2 1.29z"/>
    <path opacity=".05" d="M41.29 53.54c.76-.08 2.29-.25 3.06-.34 1.42 7.17 5.98 13.86 13.16 16.17l-.64 1.53c-.1.44-.31 1.32-.42 1.76-.53-.24-1.58-.71-2.11-.95-6.95-3.66-11.64-10.49-13.05-18.17z"/>
    <path fill="#b72b2c" d="M91.77 52.25c2.17.05 4.34.11 6.51.17-.3 6.02-2.11 11.89-5.29 17.02-2.47 3.76-5.71 6.93-9.12 9.83-.38-.5-1.15-1.5-1.53-2.01-.12-.17-.36-.53-.48-.7 3.62-7.98 9.58-15.17 9.91-24.31z"/>
    <path opacity=".04" d="M83.63 53.56l3.05.08c-1.3 9.22-8.23 17.45-17.44 19.48.12-.77.35-2.32.47-3.09 7.09-2.72 12.66-8.87 13.92-16.47z"/>
    <path fill="#230807" opacity=".47" d="M57.51 69.37c2.87.48 1.58 5.18-1.06 3.29.11-.44.32-1.32.42-1.76l.64-1.53z"/>
    <g>
        <path fill="#9f2526" opacity=".94" d="M72.24 74c1.4-.44 2.8-.87 4.2-1.29.29 2.97-1.07 5.51-3.07 7.58-.4-2.1-.77-4.19-1.13-6.29z"/>
    </g>
</svg>
