<svg width="128pt" height="128pt" viewBox="0 0 128 128" xmlns="http://www.w3.org/2000/svg">
    <g fill="#fff">
        <path d="M52.91 28.96c5.1-2.03 10.82-3.11 16.24-1.8 10.88 1.6 19.56 12.01 19.59 22.95-4.32.1-8.64.2-12.96.1-.62-4.47-3.37-8.74-7.79-10.19-6.94-2.85-15.29 2.8-15.57 10.2-4.36-.07-8.72.04-13.08.04-.05-8.97 5.73-17.27 13.57-21.3m.37 2.38c-6.52 3.38-10.97 10.18-11.79 17.44.99.02 1.98.03 2.98.05.68-5.82 3.91-11.36 8.9-14.52 5.66-3.78 13.36-4.34 19.4-1.11 6.09 2.85 9.93 9.07 10.93 15.58.98-.07 1.96-.14 2.95-.22-1.03-5.24-3.23-10.41-7.3-14.02-6.84-6.42-17.88-7.82-26.07-3.2zM30.05 52.36c2.16-.07 4.33-.09 6.5-.1.13 9.31 5.99 16.96 10.3 24.76-.91.67-1.83 1.33-2.75 1.98-7.97-6.55-13.84-16.11-14.05-26.64zM91.53 52.24c2.17.04 4.34.06 6.51.05.37 10.74-6.08 20.39-14.09 26.99-.75-.83-1.48-1.68-2.17-2.55 3.44-8.1 9.97-15.2 9.75-24.49z"/>
    </g>
</svg>
