<svg width="128pt" height="128pt" viewBox="0 0 128 128" xmlns="http://www.w3.org/2000/svg">
    <g fill="#7b0808">
        <path d="M97.24 17.94c-.53-1.94 2.43-1.69 3.33-2.46-.36 1.14-.72 2.27-1.09 3.4.49.32 1.45.97 1.94 1.3-.11-.62-.31-1.84-.42-2.45 1.06 2.28 3.17 3.44 5.52 4.04-.72-.04-2.17-.12-2.89-.15 2.7 2.81 5.33 5.96 6.13 9.88 1.49 6.2-2.06 12.64-7.08 16.13-3.98 1.58-8.78 3.13-12.66.39-2.8-1.11-3.58-4.07-4.72-6.54-1.07-1.31-2.83-.71-4.26-.79-1.92-2.47-4.35-4.41-7.7-3.5-.97-2.99 2.15-4.46 4.64-4.53 5.85-1.2 10.44 3.94 16.31 3.31 3.29-.29 7.32-.76 9.17-3.86.37-2.88.07-6.21-2.11-8.34l-.44-.48c-1.23-1.74-3.79-2.95-3.67-5.35m-5.54 20.6c.53.73 1.08 1.45 1.66 2.15 4.43.53 8.25-2.49 10.88-5.75-3.62 2.77-8.03 3.86-12.54 3.6m3.47 4.11c.03.44.08 1.33.1 1.77 1.52.23 3.06.4 4.45 1.12l-.36-1.25c2.96-2.29 5.57-5.08 7.04-8.57-3.09 3.25-6.67 6.15-11.23 6.93m10.72-3.29c-1.21 3.07 3.35-.27 0 0zM67.77 66.28c2.56 1.19 4.78 2.92 6.92 4.73 1.54-1.26 3.19-2.63 5.32-2.46-.99 2.53-2.94 5.72-.74 8.18 3.19 3.77 6.51 7.48 9.93 11.04 1.67-.55 3.25-1.34 4.89-1.97-.44 1.8-.96 3.57-1.52 5.33 3.7 3.09 7 6.63 10.85 9.54 2.54 1.92 4.34 4.95 3.81 8.25-1.91-1.77-3.92-3.55-6.64-3.77-1.05-6.1-7.03-8.99-11.66-12.11-4.09-2.41-6.7-6.49-10.12-9.65-1.63.29-2.9 1.45-4.31 2.22-.65-2.12.37-4.01 1.42-5.79-2.18-3.84-5.64-6.66-8.38-10.06.05-.87.17-2.61.23-3.48z"/>
    </g>
    <path fill="#9d2424" opacity=".93" d="M101 17.73c3.04-1.22 5.49 1.01 5.52 4.04-2.35-.6-4.46-1.76-5.52-4.04z"/>
    <path opacity=".07" d="M29.65 21.19c3.42-2.53 7.63-1.76 10.94.48-.31 1.55-.61 3.11-.89 4.68-.16-1.44-.23-2.93-.87-4.26-1.31-.4-1.96.99-2.82 1.68.24 2.77.08 5.55-.08 8.32-.43-2.28-.47-4.63-1.06-6.88-1.76-1.32-3.76-2.33-5.22-4.02m1.63.88c1.98 2.48 5.66 1.24 6.69-1.56-2.02.14-6.05-1.19-6.69 1.56zM91.7 38.54c4.51.26 8.92-.83 12.54-3.6-2.63 3.26-6.45 6.28-10.88 5.75-.58-.7-1.13-1.42-1.66-2.15zM95.17 42.65c4.56-.78 8.14-3.68 11.23-6.93-1.47 3.49-4.08 6.28-7.04 8.57l.36 1.25c-1.39-.72-2.93-.89-4.45-1.12-.02-.44-.07-1.33-.1-1.77zM105.89 39.36c3.35-.27-1.21 3.07 0 0z"/>
    <g fill="#b52829">
        <path d="M28.86 20.37c.2.21.6.62.79.82 1.46 1.69 3.46 2.7 5.22 4.02.59 2.25.63 4.6 1.06 6.88.17 1.06.43 2.11.71 3.16l.28 1.01c1.21-2.76 2.3-5.58 3.37-8.4 1.1 1.59 2.2 3.19 3.12 4.89 1.19 4.69-.72 9.42-4.42 12.41-.84-2.73-1.76-5.43-2.66-8.14-.29.24-.88.72-1.18.96.02-2.42.06-4.84.1-7.26-.68.94-2.06 2.83-2.75 3.77-.17-3.27.76-6.82-1.1-9.76l-2.42-.28-1.87-.24c.57-1.28 1.15-2.56 1.75-3.84z"/>
        <path d="M31.28 22.07c.64-2.75 4.67-1.42 6.69-1.56-1.03 2.8-4.71 4.04-6.69 1.56zM22.05 29.52c.63-2.37 1.18-5.32 3.58-6.58l2.09 1.93c-1.89 1.56-3.7 3.21-5.67 4.65zM26.18 47.95c4.3-2.02 5.78-7.29 10.33-8.83.82 2.48 1.65 4.95 2.38 7.45-3.35 2.39-7.47 2.39-11.35 1.6l-1.36-.22zM38.96 46.43c.99-1.03 1.99-2.06 2.99-3.08 2.4-.38 6.41.08 5.42 3.49-2.8.47-5.64.04-8.41-.41z"/>
    </g>
    <g fill="#c62c31">
        <path d="M36.01 23.77c.86-.69 1.51-2.08 2.82-1.68.64 1.33.71 2.82.87 4.26.11 3.22-1.9 6.01-3.06 8.9-.28-1.05-.54-2.1-.71-3.16.16-2.77.32-5.55.08-8.32zM28.65 24.87c.74.39 2.22 1.19 2.96 1.59.9 1.52.14 3.31.01 4.93.69 4.1-1.75 7.4-3.68 10.72 2.5-2.38 4-5.53 6.06-8.26l.48 4.93c-1.36 1.53-2.66 3.12-3.98 4.69-2.22 2.87-5.99 3.62-9.14 5.06.28-1.41.66-2.8 1.16-4.15 1.39-1 3.16-1.24 4.77-1.73-3.03-.45-5.51-2.18-7.22-4.68 1.32-.28 2.64-.59 3.95-.92 1.52-.43 2.3-1.95 3.24-3.06l.53.55c-.07-1.59.02-3.19 0-4.78-.33 2-1.54 4.9-4.12 3.92-.43-.51-1.3-1.53-1.73-2.04.66-.1 1.97-.31 2.63-.41.08-1.77.49-3.48 1.75-4.79.89.95 1.77 1.91 2.64 2.88-.08-1.11-.23-3.34-.31-4.45z"/>
    </g>
    <g fill="#ad2829">
        <path d="M97.88 23.77c.29-.42.88-1.24 1.17-1.66.47.3 1.4.89 1.86 1.18l.44.48-.01 1.27c-2.21 3.22-4.7 6.27-7.34 9.16-1.16 1.26-3.16.53-4.63.85.75-1.99 2.06-3.66 3.56-5.14 1.8-1.92 3.45-3.97 4.95-6.14zM46.09 86.03C58.42 71.1 70.35 55.83 83.2 41.32c1.25 1.04 3.17 2.79 1.65 4.47-5.58 6.93-11.34 13.7-17.08 20.49-11.98 15.13-24.62 29.73-37.54 44.06-1.34 1.5-2.97 2.69-4.65 3.8 5.44-10.31 13.7-18.73 20.51-28.11z"/>
    </g>
    <path opacity=".05" d="M28.98 24.45l2.42.28c1.86 2.94.93 6.49 1.1 9.76.69-.94 2.07-2.83 2.75-3.77-.04 2.42-.08 4.84-.1 7.26.3-.24.89-.72 1.18-.96.9 2.71 1.82 5.41 2.66 8.14 3.7-2.99 5.61-7.72 4.42-12.41 1.15 2.7.74 5.71 1.48 8.49 1.38 1.84 3.3 3.18 5.04 4.65.53-3.58-1.47-8.4 1.79-10.99-1.87 5.6-.8 12.01 3.51 16.2.13-2.48-.05-4.96-.6-7.38.18-.38.53-1.14.71-1.52.02-2.55.16-5.12.78-7.6-.12 4.3.08 8.59.6 12.86.61-.68 1.84-2.05 2.46-2.73-1.1 2.49-2.05 5.05-2.8 7.66.43-.05 1.29-.16 1.72-.21l.73-.1c-.9.57-1.79 1.14-2.69 1.7.94.54 1.87 1.08 2.8 1.62l-.99.72c-2.43-1.27-4.33-3.29-6.17-5.27-.18-1.07-.35-2.14-.53-3.2-.42-.17-1.27-.5-1.69-.67-.05.8-.13 2.41-.18 3.21-2.12.74-4.24 1.48-6.34 2.27 3.93.81 7.94 1.73 10.9 4.65-.6 1.19-1.2 2.38-1.84 3.56.21-.55.61-1.65.81-2.2-2.48.7-5.23 1.5-6.14 4.27-.71-.8-1.28-1.96-.36-3.11-2.09.81-4.06 1.9-5.67 3.48l1-3.25c-1.72.56-3.45 1.12-5.18 1.66 2.1-1.72 4.71-2.24 7.39-1.83-.13-.28-.39-.85-.52-1.13 3.18 1.45 6.53-.01 9.66-.83-3.03-2.68-7.09-3.46-11.01-2.93.21-.47.62-1.4.83-1.87-1-.86-1.99-1.73-2.99-2.59 2.35.76 4.82.5 7.22.21.26-.67.77-2.01 1.02-2.68-3.02-.13-6.05-.24-9.07-.47-.56.59-1.11 1.18-1.67 1.77l1.09.51c-3.66-.47-7.65.43-10.97-1.51 3.88.79 8 .79 11.35-1.6-.73-2.5-1.56-4.97-2.38-7.45-4.55 1.54-6.03 6.81-10.33 8.83-1.98 1.17-6.58 1.86-5.12-1.87.7-1.18 1.46-2.31 2.22-3.44-2.24-1.88-3.67-4.4-4.31-7.23 1.16.41 2.33.84 3.52 1.18.38.12 1.15.35 1.53.46-1.31.33-2.63.64-3.95.92 1.71 2.5 4.19 4.23 7.22 4.68-1.61.49-3.38.73-4.77 1.73-.5 1.35-.88 2.74-1.16 4.15 3.15-1.44 6.92-2.19 9.14-5.06 1.32-1.57 2.62-3.16 3.98-4.69L34 33.85c-2.06 2.73-3.56 5.88-6.06 8.26 1.93-3.32 4.37-6.62 3.68-10.72.13-1.62.89-3.41-.01-4.93-.74-.4-2.22-1.2-2.96-1.59.08 1.11.23 3.34.31 4.45-.87-.97-1.75-1.93-2.64-2.88.9-.65 1.78-1.32 2.66-1.99M44.14 42.3c-.62-.59-.62-.59 0 0m-5.18 4.13c2.77.45 5.61.88 8.41.41.99-3.41-3.02-3.87-5.42-3.49-1 1.02-2 2.05-2.99 3.08z"/>
    <path fill="#320b0c" opacity=".47" d="M92.93 29.91c.92-2.56 2.73-4.61 4.95-6.14-1.5 2.17-3.15 4.22-4.95 6.14z"/>
    <path fill="#bd2c2e" d="M15.81 45.12c-2.49-5.36.85-11.17 5.76-13.65.98 1.7 2.01 3.36 3 5.04l-2.08.08c-1.19-.34-2.36-.77-3.52-1.18.64 2.83 2.07 5.35 4.31 7.23-.76 1.13-1.52 2.26-2.22 3.44-1.74-.39-3.49-.69-5.25-.96z"/>
    <path fill="#870c10" d="M51.72 34.9c3.46-3.73 9.16-4.62 13.58-2.04-1.6 2.8-2.71 5.86-2.92 9.1-.56 3.64-.69 8.11-4.28 10.22-.43.05-1.29.16-1.72.21.75-2.61 1.7-5.17 2.8-7.66-.62.68-1.85 2.05-2.46 2.73-.52-4.27-.72-8.56-.6-12.86-.62 2.48-.76 5.05-.78 7.6-.18.38-.53 1.14-.71 1.52.55 2.42.73 4.9.6 7.38-4.31-4.19-5.38-10.6-3.51-16.2z"/>
    <path fill="#9d2425" opacity=".91" d="M44.14 42.3c-.62-.59-.62-.59 0 0z"/>
    <g>
        <path fill="#7e0b08" d="M49.56 46.98c.42.17 1.27.5 1.69.67.18 1.06.35 2.13.53 3.2 1.84 1.98 3.74 4 6.17 5.27l.99-.72c1.14-.54 2.49-2.67 3.83-1.5-.41 1.4-.98 2.74-1.39 4.15.63 1.68 2.24 2.72 3.38 4.04-.83.93-1.67 1.86-2.5 2.79-.54-.43-1.6-1.29-2.14-1.72-1.54.65-3.06 2.41-4.83 1.45.3-1.66 1.44-2.94 2.43-4.24-1.24-1.1-2.48-2.22-3.78-3.26-2.96-2.92-6.97-3.84-10.9-4.65 2.1-.79 4.22-1.53 6.34-2.27.05-.8.13-2.41.18-3.21z"/>
    </g>
    <g>
        <path fill="#aa2825" d="M37.42 49.17c.56-.59 1.11-1.18 1.67-1.77 3.02.23 6.05.34 9.07.47-.25.67-.76 2.01-1.02 2.68-2.4.29-4.87.55-7.22-.21l-1.41-.66-1.09-.51z"/>
    </g>
    <g>
        <path fill="#8c0c10" d="M28.81 65.64c2.27-5.57 7.46-9.54 13.27-10.84 3.92-.53 7.98.25 11.01 2.93-3.13.82-6.48 2.28-9.66.83.13.28.39.85.52 1.13-2.68-.41-5.29.11-7.39 1.83 1.73-.54 3.46-1.1 5.18-1.66l-1 3.25c1.61-1.58 3.58-2.67 5.67-3.48-.92 1.15-.35 2.31.36 3.11.91-2.77 3.66-3.57 6.14-4.27-.2.55-.6 1.65-.81 2.2-2.11 2.57-4.62 4.76-7.08 7-5.53.27-10.64-2.74-16.21-2.03z"/>
    </g>
</svg>
