<svg width="128pt" height="128pt" viewBox="0 0 128 128" xmlns="http://www.w3.org/2000/svg">
    <path fill="#b5282b" d="M51.33 14.4c4.51-1.12 9.95-1.7 13.72 1.6 6.01 4.14 6.85 12.72 4 18.99-4.77 1.02-9.52 2.17-14.02 4.07-2.53 1.17-4.91-1.1-7.24-1.84 1.5 1.41 3 2.84 4.51 4.24-.51 1.34-1 2.67-1.5 4.01-3.58-5.35-8.53-10.61-8.34-17.48-.26-5.78 3.14-11.86 8.87-13.59m1.59 5.38c-4.6 2.28-6.16 9.17-2.74 13.09 1.54 2.3 4.55 2.64 6.95 3.54 2.88-.82 5.86-2.12 7.31-4.92 2.52-3.98.44-9.19-3.08-11.79-2.73-.74-5.75-.88-8.44.08z"/>
    <path fill="#c62d30" d="M55.03 39.06c4.5-1.9 9.25-3.05 14.02-4.07-3.21 3.99-7.67 7.23-13.07 6.72 3.82 4.73 7.5 9.57 11.56 14.1l-.33 4.04c.57-.2 1.71-.61 2.27-.81-.14.51-.41 1.54-.55 2.05-2.01.68-4.01-.02-5.9-.69.52 1.74 1.03 3.47 1.53 5.22.93-.48 1.86-.95 2.79-1.42.17.41.5 1.22.67 1.63-.26 2.02-.56 4.05-.61 6.09-.03 5.2.32 10.39.17 15.59-2.39.91-4.75 1.86-7.06 2.94l-1.17-1.92c-.74-.22-2.23-.65-2.98-.86.09-2.88-.35-5.84.4-8.66l.6-1.93c-1.26-2.74-1.97-5.69-1.48-8.71 1.48.08 2.96.18 4.44.26-.97-1.63-1.93-3.27-2.88-4.91-.04-3.4-.08-6.88-1.2-10.14-1.1-3.13-3.39-5.6-5.45-8.11.5-1.34.99-2.67 1.5-4.01-1.51-1.4-3.01-2.83-4.51-4.24 2.33.74 4.71 3.01 7.24 1.84z"/>
    <path fill="#ae2829" d="M95.89 39.72c2.94-.66 6.04-1.7 8.99-.47 8.85 2.12 13.54 14.34 7.82 21.54-.84.54-1.43 1.29-1.77 2.23-1.94 1.93-4.52 2.99-6.9 4.24l-.21-6.32c2.79-1.77 5.51-4.38 5.62-7.91.21-3.39-2.44-5.93-4.25-8.49-3.14-.31-6.35-.48-9.4.49.32-.39.94-1.17 1.26-1.56 1.76-.49 3.56-.87 5.34-1.29-2.15-.85-4.31-1.69-6.5-2.46z"/>
    <path fill="#bd2c2c" d="M88.9 60.68c-5.16-7.24-1.28-18.11 6.99-20.96 2.19.77 4.35 1.61 6.5 2.46-1.78.42-3.58.8-5.34 1.29-.32.39-.94 1.17-1.26 1.56-1.77 2.33-3.85 4.88-3.54 8.01-.14 5.74 6.36 9.63 11.57 7.9l.21 6.32c-6.7.89-13.44.05-20.07-.93-6.16-1.43-10.79 3.73-16.07 5.84l-.48-.25c.05-2.04.35-4.07.61-6.09-.17-.41-.5-1.22-.67-1.63-.93.47-1.86.94-2.79 1.42-.5-1.75-1.01-3.48-1.53-5.22 1.89.67 3.89 1.37 5.9.69.14-.51.41-1.54.55-2.05.27-.59.64-1.13 1.1-1.61 6.01 1.58 12.24 2.02 18.32 3.25z"/>
    <path fill="#ba2b2c" d="M56.25 53.58c1.12 3.26 1.16 6.74 1.2 10.14.95 1.64 1.91 3.28 2.88 4.91-1.48-.08-2.96-.18-4.44-.26-.49 3.02.22 5.97 1.48 8.71l-.6 1.93c-12.44 6.53-24.37 14-36.62 20.88 1.2-5.3 2.92-10.51 5.49-15.31.97-1.78 3.02-2.51 4.62-3.58 8.73-4.93 17.28-10.2 26.19-14.82-.06-4.2-.23-8.4-.2-12.6z"/>
    <path fill="#110404" opacity=".34" d="M110.93 63.02c.34-.94.93-1.69 1.77-2.23.64 1.73.05 2.47-1.77 2.23z"/>
    <path fill="#b5292b" d="M56.37 87.67c.75.21 2.24.64 2.98.86l1.17 1.92c2.31-1.08 4.67-2.03 7.06-2.94-.08 6.53.24 13.07-.11 19.59-2.63 5.27-6.79 9.63-11.09 13.59-.04-11.01-.03-22.02-.01-33.02z"/>
</svg>
