<svg width="128pt" height="128pt" viewBox="0 0 128 128" xmlns="http://www.w3.org/2000/svg">
    <g fill="#fff">
        <path d="M42.38 28.93c-.5-6.02 2.7-12.61 8.72-14.53 4.59-1.04 10.14-1.84 13.97 1.57 7.46 5.18 7.61 17.88 0 23-2.48 2.2-5.78 2.73-8.99 2.78 3.59 4.5 7.12 9.04 10.87 13.41 1.19 1.29.2 3.27.53 4.81 1.2-.83 2.41-1.65 3.62-2.47 5.8 1.67 11.88 1.87 17.77 3.14-5.15-7.12-1.31-18.44 7.19-20.81 8.67-4.33 19.45 3.69 19.06 13.04.61 6.11-4.07 11.46-9.46 13.62-5.32 2.16-11.16.96-16.7.6-3.7-.2-7.62-2.07-11.18-.22-3.5 1.78-6.91 3.75-10.37 5.61.31 11.66.32 23.35.01 35-2.86 5.11-6.96 9.39-11.02 13.55-.18-14.02-.01-28.03-.08-42.05-12.14 7.09-24.35 14.07-36.53 21.09 1.91-5.67 3.37-11.63 6.65-16.72 9.89-5.88 19.81-11.78 30.01-17.13-.18-4.08.01-8.18-.4-12.25-.24-3.35-3.2-5.43-4.89-8.07-3.61-5.21-8.39-10.3-8.78-16.97m3.6 4.24c2.88 6.04 7.21 11.24 11.29 16.5 1.14 1.68 1.06 3.79 1.48 5.7-.4 4.04.21 8.1-.21 12.15-9.16 5.63-18.67 10.72-27.96 16.15-4.27 2.04-4.63 7.42-6.6 11.19C33.37 89.21 43 83.97 52.39 78.33c1.5-.97 3.16-1.67 4.94-1.88.73 1.07 1.45 2.19 1.25 3.55.23 11.73-.01 23.47.14 35.2 2.34-2.88 4.57-5.85 6.56-8.99.08-11.61-.09-23.24.01-34.83 3.99-3.29 8.84-5.59 13.59-7.58 5.74-.34 11.36 1.56 17.13 1.47 5.84.74 12.1-1.73 15.29-6.8 3.09-5.45.5-12.88-4.75-15.94-2.58-1.64-5.82-1.32-8.74-1.07 3.49.11 6.91.75 10.01 2.42 1.73 2.41 4.37 4.72 4.05 7.98.54 5.12-3.1 9.85-7.79 11.5-2.45.51-4.97.22-7.45.22-2.91-2.53-6.66-5.19-6.7-9.47-.86-4.49 2.11-8.31 5.02-11.33-3.12 2.06-5.47 5.28-5.89 9.06-.48 3.32 1.68 6.16 2.33 9.3-.36.45-1.08 1.35-1.44 1.79-6.11-.58-12.16-1.63-18.21-2.63-1.82.71-3.52 2.66-5.64 1.72-1.57-1.35-.78-3.6-1.03-5.39-3.81-4.2-7.3-8.69-10.76-13.18-1-1.09-1.03-3.89.87-3.95 4.6-.21 9.86-1.92 11.79-6.51 2.04-3.65 1.36-8.09-.36-11.71-2.29-4.01-7.25-6.15-11.74-4.98-8.08.13-12.21 10.22-8.89 16.87M97.53 44.7c-5.65 2.02-7.18 10.45-2.5 14.24 3.85 3.94 11.13 2.51 13.37-2.45 2.12-3.77.23-8.46-2.78-11.13-2.43-1.3-5.5-1.72-8.09-.66z"/>
        <path d="M49.33 19.34c2.99-3.72 8.33-2.86 12.43-2.07 6.9 3.26 8.51 14.04 2.13 18.64-3.53 3.57-8.77 2.55-13.1 1.43-5.59-4.08-6.7-13.21-1.46-18m.78 2.91c-3.66 4.47-1.21 11.91 4.36 13.37 4.74 1.59 10.12-1.82 10.88-6.71.99-3.71-1.58-6.96-4.13-9.32-3.84-.98-8.6-.91-11.11 2.66z"/>
    </g>
    <path fill="#151515" opacity=".08" d="M45.98 33.17c-3.32-6.65.81-16.74 8.89-16.87 4.49-1.17 9.45.97 11.74 4.98 1.72 3.62 2.4 8.06.36 11.71-1.93 4.59-7.19 6.3-11.79 6.51-1.9.06-1.87 2.86-.87 3.95 3.46 4.49 6.95 8.98 10.76 13.18-.5 2.09-1 4.18-1.5 6.28-1.17-.17-2.34-.35-3.5-.55-.26-2.36-.67-4.71-1.32-6.99-.42-1.91-.34-4.02-1.48-5.7-4.08-5.26-8.41-10.46-11.29-16.5m3.35-13.83c-5.24 4.79-4.13 13.92 1.46 18 4.33 1.12 9.57 2.14 13.1-1.43 6.38-4.6 4.77-15.38-2.13-18.64-4.1-.79-9.44-1.65-12.43 2.07z"/>
    <path fill="#1c1c1c" opacity=".11" d="M59.67 91.91c-.01-2.38-.14-4.86.86-7.09.24 2.01.4 4.03.53 6.05.95.7 1.89 1.4 2.84 2.11-.43 3.38-.75 6.83.1 10.17-1.18.66-2.33 1.36-3.46 2.08-1.24-4.34-.8-8.87-.87-13.32z"/>
</svg>
