<svg width="128pt" height="128pt" viewBox="0 0 128 128" xmlns="http://www.w3.org/2000/svg">
    <path fill="#fff" d="M52.03 16.59c3.28-.68 7.11-1.81 10.1.36 7.6 3.38 8.49 15.23 1.83 19.99-2.61 2.15-6.04 2.81-9.33 2.66-.36 1.2-1.24 2.75-.12 3.82 3.22 4.13 6.43 8.27 9.86 12.23 2.01 1.56-.19 4.63 1.82 6.21 2.1.55 3.78-.83 5.46-1.82 5.97.9 11.93 2.15 17.95 2.58 3.05-1.87-.11-5.15-.62-7.58-2.07-8.89 8.9-17.16 16.87-12.93 7.52 3.05 9.79 14.7 3.02 19.72-7.65 6.3-17.97 2.91-26.83 2.2-5.02-.83-8.78 3.2-13.1 4.94-1.52.87-3.9 1.87-3.59 4 .31 9.68.08 19.37.17 29.05 1.08 5.66-4.04 9.51-7.06 13.56-.01-12.44.03-24.87-.07-37.31-.8-1.97-3.32-1.42-4.67-.45-10.06 5.78-20.08 11.61-30.13 17.42 1.16-3.5 2.72-6.85 4.31-10.17 7.86-4.52 15.63-9.18 23.54-13.6 2.34-1.31 4.97-2.29 6.87-4.25.57-4.37-.16-8.8-.02-13.2.17-4.12-3.49-6.65-5.49-9.81-3.41-4.96-7.91-9.84-8.24-16.16-.09-4.77 2.61-10.08 7.47-11.46m2.05.42c-4.92.99-8.31 6.1-7.83 11.03-.47 8.32 10.78 13.38 17.02 8.19 5.37-3.67 6.09-12.36 1.16-16.68-2.45-3.04-6.83-2.94-10.35-2.54m44.81 25c-7.48.75-11.26 10.46-7.33 16.49 1.95 2.26 4.23 4.78 7.47 4.81 6.22 1.42 12.73-4.01 12.48-10.36.48-6.57-6.01-12.59-12.62-10.94z"/>
</svg>
