<svg width="128pt" height="128pt" viewBox="0 0 128 128" xmlns="http://www.w3.org/2000/svg">
    <path fill="#b82b2c" d="M59.19 15.8c2.26-.08 4.51-.09 6.77-.07 2.32 2.88 5.16 5.55 6.16 9.23.89 3.15 3.42 5.43 4.64 8.42-.68.08-2.06.22-2.74.3.97 2.51 2.18 4.94 3.8 7.11 5.72.37 11.27-1.9 15.2-6.03.86-1.06 1.65-2.18 2.45-3.28 1.84-1.22 3.67-2.45 5.51-3.67.19.64.59 1.92.79 2.57l2.23-1.43c0 .78 0 2.33-.01 3.11.55-.17 1.66-.52 2.21-.69-.58 6.13-2.24 12.07-4.06 17.93-2.88 5.52-8.63 9-11.22 14.67-.85 5.02-1.66 11.02 1.97 15.17 7.04 9.56 11.83 21.87 8.15 33.73-1.17-1.8-3.35-1.37-5.17-1.59-.1.7-.31 2.09-.41 2.79-2.37-5.99-6.58-11.23-12.27-14.34-4.18-.91-8.49-1.06-12.75-1.26-2.2 2.1-4.42 4.29-5.76 7.07-.83 2.54-1.22 5.2-1.96 7.77-1.07-5.45-2.67-11.48-7.78-14.52-3.33-.6-6.73.17-10.06.46-3.79.02-6.32 3.27-9.12 5.36-.02.02-.07.06-.09.08-2.58 2.2-3.27 8.37-7.74 6.66l-.92 2.53-.28-3.2c-.64.22-1.92.65-2.56.87-2.98-10.46.75-21.66 6.94-30.23 1.79-2.44 4.16-4.82 4.11-8.07.12-4.33.64-9.43-2.61-12.84-2.81-3.3-5.62-6.62-8.64-9.73l-.49-.51c-.07-.22-.2-.67-.27-.89-1.69-5.42-3.19-10.91-3.85-16.56 2.18-.88 3.22-4.15 5.75-3.97 1.48.61 2.96 1.24 4.17 2.32.3-.22.91-.66 1.22-.88.22 5.57 5.94 8.76 10.72 10.1 2.18.22 4.64.98 6.69-.05 1.72-1.79 2.4-4.26 3.3-6.5l-2.39-.32c.61-2.02 1.48-4.07 3.25-5.35.24-.47.74-1.4.99-1.86.32-4.26 3.83-7.13 6.13-10.41z"/>
    <path fill="#2b0a0a" opacity=".45" d="M18.77 30.18c2.02-1.4 4.05-2.81 5.93-4.4.32.56.95 1.69 1.27 2.25 1.02 1.74 3.34.74 4.95 1.34.18 5.8 6.14 8.17 10.3 10.92-4.78-1.34-10.5-4.53-10.72-10.1-.31.22-.92.66-1.22.88-1.21-1.08-2.69-1.71-4.17-2.32-2.53-.18-3.57 3.09-5.75 3.97.66 5.65 2.16 11.14 3.85 16.56-.87-.92-1.55-2.02-1.82-3.27-1.37-5.17-3.02-10.4-2.62-15.83z"/>
    <path fill="#3b0d0d" opacity=".62" d="M52.15 26.3l.91-.09c-.25.46-.75 1.39-.99 1.86l-.43-.81.51-.96z"/>
    <path fill="#310b0c" opacity=".49" d="M94.39 29.71c2.36-.57 4.87-1 6.36-3.13 2.46 1.42 6.88 2.8 5.93 6.48-.99 5.5-1.53 11.4-4.54 16.24 1.82-5.86 3.48-11.8 4.06-17.93-.55.17-1.66.52-2.21.69.01-.78.01-2.33.01-3.11l-2.23 1.43c-.2-.65-.6-1.93-.79-2.57-1.84 1.22-3.67 2.45-5.51 3.67-.8 1.1-1.59 2.22-2.45 3.28.45-1.68.54-3.49 1.37-5.05z"/>
    <path fill="#2c0a0a" opacity=".45" d="M23.97 50.68c3.02 3.11 5.83 6.43 8.64 9.73 3.25 3.41 2.73 8.51 2.61 12.84.05 3.25-2.32 5.63-4.11 8.07.96-2.54 2.57-4.77 3.47-7.32.47-3.45.08-7.02-.93-10.34-2.29-4.99-7.97-7.63-9.68-12.98z"/>
    <path fill="#621717" opacity=".86" d="M35.67 104.69c.02-.02.07-.06.09-.08-.02.02-.07.06-.09.08z"/>
</svg>
