<svg width="128pt" height="128pt" viewBox="0 0 128 128" xmlns="http://www.w3.org/2000/svg">
    <path fill="#fff" d="M53.16 31.27c3-3.97 3.77-9.26 7.65-12.69l3.63-.04c4.19 3.29 4.68 8.85 7.86 12.81-2.03 4.49 1.21 9.46 4.71 12.22 4.19-.18 8.71-.02 12.42-2.29 3.97-2.49 7.12-6.01 9.92-9.72 1.43.85 2.79 1.83 4.1 2.86-1.4 4.92-2.14 10.07-4.31 14.74-2.58 4.85-6.97 8.32-10.57 12.35-1.3 4.98-1.26 10.32-.52 15.4 3.2 5.1 6.37 10.25 9.59 15.34.69 1.52 1.01 3.18 1.57 4.75.19 3.69.38 7.39.25 11.08-.93.14-2.8.4-3.73.54-2.22-5.27-6.92-8.92-11.81-11.54-4.64-.97-9.43-1.06-14.15-.9-3.72.78-5.11 4.72-6.96 7.56-1.46-2.06-2.72-4.26-4.35-6.19-1.98-1.94-4.9-1.46-7.4-1.43-3.53.2-7.19.15-10.55 1.36-4.37 2.88-8.92 6.11-10.89 11.18-.91-.15-2.73-.45-3.64-.61-.54-4.54.29-9.06.69-13.58l.66.02.28-2.37c2.65-3 4.14-6.78 6.43-10.04 1.53-2.51 3.97-4.85 3.66-8.04-.27-5.19 1.27-11.66-3.35-15.38-.82-.87-1.63-1.74-2.5-2.54-3.02-3.09-6.1-6.49-7.07-10.82-1.02-3.65-1.99-7.32-2.89-11.01 1.32-.96 2.67-1.88 4.06-2.74 4.69 6 10.75 12.47 19.09 11.92 4.23 1.14 6.74-3.05 8.09-6.35 1.08-1.81.64-3.96.03-5.85z"/>
</svg>
