<svg width="128pt" height="128pt" viewBox="0 0 128 128" xmlns="http://www.w3.org/2000/svg">
    <path fill="#fff" d="M59.35 15.86c2.21-.13 4.43-.15 6.65-.06 2.62 3.04 5.44 6.07 6.44 10.09.63 2.87 4.05 4.46 3.97 7.47-.57.12-1.71.34-2.28.45 1.42 2.47 1.99 7.52 5.8 6.99 5.67.15 10.46-3.22 14.21-7.15.38-1.63.3-3.4 1.24-4.86-.62 4.62 2.13.11 3.87.17.77-.74 1.31-1.7 1.62-2.87.01 2.32 1.7 6.63 3.31 1.24.01 1.22.04 3.64.05 4.85.74-.76 1.45-1.55 2.18-2.32-.32 6.14-1.62 12.21-3.61 18.03-1.04 3.25-3.67 5.56-5.62 8.25-.27.25-.81.73-1.08.98-1.88 1.85-3.43 4.01-5.18 5.99-.49 5.05-2.08 11.07 1.54 15.34 3.38 5.19 6.88 10.48 8.68 16.47.89 5.6 2.19 11.81-.38 17.13-.16.1-.49.3-.66.4l-.07-1.91c-1.24.32-3.16-.16-3.82 1.19l-.96 2.36c-.69-3.29-3.26-5.69-4.72-8.65-3.21-2.44-6.11-6.29-10.5-6.26-4-.07-9.24-2.21-12.1 1.69-3.4 3.31-4.25 7.98-5.12 12.42-1.23-2.51-1.18-5.4-2.23-7.94-1.7-2.56-3.2-5.8-6.39-6.73-4.1-.13-8.18.45-12.23 1.07-2.14 1.93-4.61 3.46-6.75 5.39-1.73 2.08-2.6 4.72-4.42 6.74l-1.02-.72c-1.27-.1-2.61.09-3.75-.6-.57.53-1.13 1.07-1.68 1.61-1.89-5.2-1.15-10.83-.46-16.18 1.51-5.59 4.61-10.53 7.66-15.38 1.26-2.11 3.22-3.95 3.48-6.51.45-3.72-.2-7.45-.68-11.13-2.38-3.42-5.8-5.93-8.15-9.36l-.42-.1c-4.92-6.93-6.25-15.75-6.75-24.06.36.67 1.08 2 1.44 2.67.98-1.33 1.16-2.87.53-4.61l2.26 2.82c.56-1.38 1.08-2.77 1.66-4.14.2.72.6 2.14.8 2.85 1.52.15 2.84.78 3.8 2.02.44-.72.88-1.43 1.33-2.14.01 1.41.02 2.81.01 4.22 4 4.71 9.77 8.4 16.18 7.68 2.46-1.39 2.91-4.53 4.33-6.76-.68-.26-2.04-.76-2.72-1.01 1.29-2.98 4.02-5.14 4.75-8.39.92-3.52 3.81-5.95 5.96-8.74m1.58 2.75c-1.78 2.31-3.99 4.45-4.78 7.34-.58 2.02-1.67 3.82-3.02 5.41 2.26 4.23-1.16 9.16-4.3 11.97-2.22.46-4.53.22-6.77 0-6.59-.61-11.53-5.83-15.35-10.77l-1.25-.38.12 1.5c-.53-.38-1.04-.76-1.55-1.14-.47.52-1.4 1.57-1.86 2.09 1.16 4.51 2.02 9.15 3.72 13.49 2.45 3.78 5.7 6.95 8.67 10.31 4.7 4.76 3.23 12.15 2.97 18.18-3.33 5.69-7.38 11.05-9.75 17.26-1.5 4.46-2.21 9.21-1.74 13.9.87.23 2.61.68 3.48.9 1.32-2.61 2.74-5.28 5.21-6.99 2.88-2.02 5.39-5.21 9.21-5.22 3.89-.27 7.78-.68 11.68-.55 3.39 1.14 5.07 4.43 7.13 7.07 1.99-2.61 3.62-5.99 6.98-7.06 4.76-.23 9.57.25 14.27 1.01 4.74 2.86 9.7 6.35 11.76 11.75.89-.19 2.69-.57 3.59-.76 1.56-11.72-5.31-21.77-11.38-31.05-.68-4.82-.72-9.89.28-14.68 2.88-5.42 8.43-8.84 11.32-14.28 1.64-4.44 2.84-9.07 3.56-13.76-1.12-.8-2.25-1.6-3.37-2.4-4.45 4.18-8.19 10.09-14.67 11.25-3.46.33-8.12 1.9-10.53-1.52-1.74-2.97-4.45-6.71-2.29-10.16-2.02-1.8-2.63-4.44-3.58-6.85-1.55-2.99-3.83-6.77-7.76-5.86z"/>
    <path fill="#161616" opacity=".09" d="M44.65 92.39c1.72-.16 3.68-.71 4.84.99 1.49 1.91 3.98 1.97 6.13 2.53-3.9-.13-7.79.28-11.68.55.24-1.36.47-2.71.71-4.07z"/>
    <path fill="#797979" opacity=".47" d="M24.34 112.11c.55-.54 1.11-1.08 1.68-1.61 1.14.69 2.48.5 3.75.6l1.02.72.48 2.57c-.55-1.65-3.97-2.11-4.33-.1l-.09-1.91c-.79.11-2.38.34-3.17.45.16-.18.49-.54.66-.72z"/>
    <path fill="#707070" opacity=".44" d="M96.21 111.73c.66-1.35 2.58-.87 3.82-1.19l.07 1.91c.17-.1.5-.3.66-.4-.35 1.3-1.76 1.36-2.85 1.66l-1.7-1.98z"/>
</svg>
