<svg width="128pt" height="128pt" viewBox="0 0 128 128" xmlns="http://www.w3.org/2000/svg">
    <path fill="#b82b2c" d="M55.62 16.55c13.79-3.44 29.26 2.98 36.72 15.03 5.75 8.8 6.95 20.3 3.48 30.18-3.31 9.15-10.55 16.78-19.57 20.48-.58.22-1.73.66-2.31.89-8.48 2.45-17.89 2.09-25.83-1.96-7.4-3.52-13.31-9.86-16.55-17.37-2.76-6.36-3.62-13.59-2.11-20.38 2.44-13.04 13.16-24.15 26.17-26.87z"/>
    <path fill="#b52a2c" d="M21.01 75.77c-5.57-1.52-4.29-10.59 1.03-11.48 2.69-.37 6.14-.31 7.69 2.36 3.87 8.22 10.46 15.45 19.09 18.7 9.43 3.33 20.07 3.42 29.43-.2 8.4-3.52 15.02-10.57 18.6-18.88 2.04-2.52 5.74-2.51 8.59-1.64 2.01 1.16 3.04 3.32 4.1 5.28-.67 1.83-1.43 3.64-2.28 5.4-2.9 1.21-5.82.4-8.75.06-2.38 3.93-3.35 8.54-5.73 12.49-3.45 5.91-9.28 10.22-15.82 12.15-3.1.67-3.62 5.54-.7 6.87 3.09 2.39 5.64-1.61 8.73-1.6-.42 2.49-1.36 4.83-2.67 6.97-12.6-.19-25.2.13-37.79-.13-2.17-1.48-2.36-4.54-3.21-6.81 1.98-.09 3.55.85 4.83 2.28 1.91-.08 4.29-.13 5.39-1.99.69-1.57.05-3.28-.13-4.88-5.47-1.58-10.74-4.22-14.51-8.58-4.53-4.5-5.9-10.92-8.72-16.42-2.17-1.14-4.86 1.38-7.17.05z"/>
    <path fill="#4f1213" opacity=".74" d="M73.94 83.13c.58-.23 1.73-.67 2.31-.89-.58.22-1.73.66-2.31.89z"/>
</svg>
