<svg width="128pt" height="128pt" viewBox="0 0 128 128" xmlns="http://www.w3.org/2000/svg">
    <g fill="#fff">
        <path d="M58.08 16.17c7.67-1.25 15.75.27 22.44 4.2 9.23 5.24 15.64 15.03 16.96 25.53 1.02 8.74-1.28 17.92-6.69 24.91-5.38 7.29-13.74 12.32-22.74 13.49-10.37 1.52-21.41-2.06-28.81-9.52-7.19-6.84-11.01-16.99-10.38-26.87.91-15.65 13.59-29.72 29.22-31.74M34.86 36.91c-4.57 8.88-4.06 19.78.94 28.36 4.49 9.07 13.99 14.63 23.71 16.37 2.15.25 4.31.22 6.46.13C70.11 81 74.28 80 78 77.95c12.79-6.51 19.99-22.72 15.45-36.47-2.55-8.84-8.95-16.54-17.55-20.03-14.8-7.41-34.58.38-41.04 15.46z"/>
        <path d="M20.84 64.75c2.73-1.27 5.91-.58 8.39.94 3.47 8.28 9.83 15.26 17.95 19.15 12.43 5.08 27.69 4.22 38.61-4 4.28-3.45 8.03-7.67 10.14-12.82 1.69-4.58 8.87-5.35 11.62-1.41 2.57 2.72 1.52 8.54-2.52 9.22-2.13.71-4.24-.42-6.26-.97-3.04 4.83-4.04 10.72-7.6 15.25-3.51 4.78-8.66 8.18-14.31 9.87-3.86.87-3.27 7.02.61 7.54 3 1.26 4.55-2.58 7.51-2.08-.54 2.12-1.1 4.29-2.27 6.16-12.23.74-24.56-.13-36.81.49-3.58.25-3.52-4.42-4.45-6.83 1.91.21 3.42 1.38 5.05 2.25 1.71.47 3.31-.48 4.87-1.02 1.07-2.21 1.32-5.61-1.54-6.48-7.76-2.06-14.54-7.78-17.59-15.24-1.59-3.32-2.54-6.96-4.68-10-1.49.55-3 1.09-4.51 1.59-1.9-.74-4.43-1.15-5.05-3.45-1.51-2.97.17-6.54 2.84-8.16m-.81 5.21c.53 1.52 1.81 4.28 3.84 2.84 2.04-.29 4.11-.34 6.17-.39-.56-.67-1.12-1.34-1.7-1.99-.88-1.67-2.11-3.74-4.33-3.36-1.96-.27-2.81 1.78-3.98 2.9m77.05 2.21c2.38-.17 4.67.48 6.97.96 1.58-.08 1.63-2.06 2.45-3.02-1.13-1.44-2.25-3.25-4.31-3.3-2.89.29-3.8 3.24-5.11 5.36m-65.07 4.48c2.59 5.82 4.57 12.46 10.12 16.23 3.49 3 8.25 3.61 11.95 6.23.49 1.84.82 3.73.8 5.64l.46.36c-.91 1.43-1.87 2.84-2.86 4.22 7.29-.07 14.59-.09 21.88.05-1.23-1.28-2.3-2.71-3.15-4.27.22-2.06.61-4.1 1.38-6.04h.08c1.03-.8 2.02-1.7 3.32-2.03 3.8-1.1 7.33-3.1 10.26-5.76 3.99-3.89 6.01-9.24 7.87-14.37-3.98 4.1-8.19 8.17-13.45 10.58-10.7 4.33-23.04 4.41-33.84.38-5.93-2.2-10.46-6.81-14.82-11.22z"/>
    </g>
    <path fill="#161616" opacity=".09" d="M59.42 24.47c1.33-1.41 3.53-.9 4.79.32.86 2.26.67 4.79.32 7.13 0 2.29-3.44 2.47-4.8 1.37-1.22-2.61-2.24-6.34-.31-8.82z"/>
    <path fill="#171717" opacity=".09" d="M97.08 72.17c1.31-2.12 2.22-5.07 5.11-5.36 2.06.05 3.18 1.86 4.31 3.3-.82.96-.87 2.94-2.45 3.02-2.3-.48-4.59-1.13-6.97-.96z"/>
    <path fill="#8d8d8d" opacity=".56" d="M28.34 70.42c.58.65 1.14 1.32 1.7 1.99-2.06.05-4.13.1-6.17.39.47-.24 1.42-.72 1.9-.96l3.28-.2-.71-1.22z"/>
    <g fill="#1c1c1c">
        <path opacity=".11" d="M61.03 77.78c1.48-.66 3.15.02 4.7.07l.24 3.92c-2.15.09-4.31.12-6.46-.13.45-1.31.96-2.59 1.52-3.86zM54.08 99.11c2.05.09 4.1.19 6.15.28 1.15 1.77 2.23 3.6 3.37 5.39.72-1.79 1.44-3.57 2.2-5.33 2.27-.09 4.53-.26 6.79-.38-.77 1.94-1.16 3.98-1.38 6.04-.81-.1-1.63-.2-2.44-.29-3.35 4.08-9.78 3.89-13.43.29l-.46-.36c.02-1.91-.31-3.8-.8-5.64z"/>
    </g>
    <path fill="#131313" opacity=".07" d="M68.77 104.82c.81.09 1.63.19 2.44.29.85 1.56 1.92 2.99 3.15 4.27-7.29-.14-14.59-.12-21.88-.05.99-1.38 1.95-2.79 2.86-4.22 3.65 3.6 10.08 3.79 13.43-.29z"/>
</svg>
