<svg width="128pt" height="128pt" viewBox="0 0 128 128" xmlns="http://www.w3.org/2000/svg">
    <path fill="#030101" opacity=".2" d="M20.86 15.02c4.31-.79 8.74-.08 13.1-.27 23.36.53 46.73.39 70.08.37 3.01.24 2.73 3.87 1.69 5.86-.22 18.04-.02 36.08-.07 54.12.16 3.01-1.66 6.16-4.59 7.15 1.59-2.57 3.9-5.04 3.75-8.27.02-19.2.09-38.4-.04-57.6-27.77-.08-55.55-.08-83.32-.07-.15-.32-.45-.96-.6-1.29z"/>
    <path fill="#b8292c" d="M21.46 16.31c27.77-.01 55.55-.01 83.32.07.13 19.2.06 38.4.04 57.6.15 3.23-2.16 5.7-3.75 8.27-10.25 14.36-23.78 26.11-38.01 36.38-15.07-11.36-29.7-23.98-40.14-39.89-2.03-2.87-1.34-6.48-1.44-9.77-.04-17.55.03-35.1-.02-52.66z"/>
</svg>
