<svg width="128pt" height="128pt" viewBox="0 0 128 128" xmlns="http://www.w3.org/2000/svg">
    <path fill="#fff" d="M21.58 16.31c27.76-.08 55.53.09 83.29-.02-.01 18.56-.01 37.13 0 55.69-.09 2.2-.01 4.62-1.31 6.52-10.55 15.97-25.03 28.95-40.52 40-14.99-11.32-29.57-23.82-39.94-39.66-1.3-1.65-1.61-3.77-1.56-5.82.05-18.9-.02-37.81.04-56.71m23.72 7.82c-.01 6.24-.03 12.48.01 18.72 5.45-.12 10.9.05 16.35-.01.12 1.11-.31 2.07-1.02 2.9-.09 17.51-.14 35.02-.02 52.53 1.66 1.46 1.35 3.69.83 5.61.63 1.28 1.28 2.57 1.94 3.85.46-.79 1.38-2.35 1.84-3.13-1.71-2.14-1.89-5.05.6-6.65-.01-17.32.01-34.65 0-51.97-1.03-.81-1.53-1.86-1.51-3.13 7.37-.22 14.75-.38 22.13-.27-.02-1.88-.02-3.76-.02-5.64-6.34-.17-11.08-6.99-9.66-13.06-10.49.46-20.99-.06-31.47.25z"/>
    <path fill="#202020" opacity=".13" d="M106.06 17.37c1.4-.37 1.91.13 1.55 1.52-1.4.38-1.91-.13-1.55-1.52z"/>
</svg>
