<svg width="128pt" height="128pt" viewBox="0 0 128 128" xmlns="http://www.w3.org/2000/svg">
    <g fill="#991f1e">
        <path d="M47.31 20.35c6.33-2.04 13.08-2.94 19.73-2.57 3.84 1.17 7.31 3.38 10.62 5.59 2.29 2 4.29 4.3 6.07 6.76-2.86-.54-5.23-2.05-6.8-4.48-5.91.98-11.58-2.3-17.51-1.16-12.34 1.01-21.59 13.99-19.71 25.98 3.34-7.65 8.44-15.14 16.32-18.64 4.7-1.88 9.96-.18 13.94 2.57-5 .36-10.61.39-14.52 4.02-8.75 8.08-10.26 22.78-3.53 32.57 5.01 7.73 10.61 15.08 15.42 22.94 2.07 3.02 1.03 6.74-.24 9.84-1.01 1.48-2.12 2.89-3.32 4.22-.43.23-1.27.69-1.7.92-2.5 1.04-5.06 1.93-7.64 2.77.46-.78 1.37-2.34 1.82-3.12 3.17-3.35 3.31-8.48 1.35-12.48-1.37-2.82-2.84-5.59-4.29-8.36-5.58-9.57-13.52-17.71-18-27.95-3.4-9.94-5.74-21.83.58-31.16 3.37-3.27 6.8-6.81 11.41-8.26z"/>
        <path d="M65.43 41.4c5.15-1.44 9.9 1.54 13.23 5.21-4.98 1.66-10.93 3.37-13.42 8.48-4.45 8.22-1.09 18.34 4.48 25.12 3.64 5.5 9.13 10.51 9.42 17.53-.47 1.44-1.28 2.74-2.28 3.87-1.22 1.23-2.48 2.42-3.72 3.63.84-3.92 2.46-8.41-.26-12-3.48-5.24-7.86-9.83-11.19-15.19-4.1-6.18-8.24-13.29-7.07-21.01.89-6.4 4.26-13.5 10.81-15.64zM80.19 90.4c.87 1.34 1.18 3.12.19 4.48-.65-1.03-1.06-2.14-1.25-3.34.26-.28.8-.85 1.06-1.14z"/>
    </g>
    <g fill="#0e0202">
        <path opacity=".42" d="M77.66 23.37c4.3.68 5.96 5.57 8.42 8.61-2.5-1.07-5.05-1.99-7.61-2.88.28 2.39.57 4.77.84 7.16-2.36.43-4.82.74-7-.49-4.73-.35-9.97-.55-13.92 2.54-6.23 3.96-9.45 11.48-9.06 18.72-.05 6.87 2.98 13.34 7.17 18.65 3.68 5.57 7.48 11.06 11.26 16.56 2.25 3.14 2.4 7.09 3.04 10.76-1.24.26-2.47.51-3.7.77 1.27-3.1 2.31-6.82.24-9.84-4.81-7.86-10.41-15.21-15.42-22.94-6.73-9.79-5.22-24.49 3.53-32.57 3.91-3.63 9.52-3.66 14.52-4.02-3.98-2.75-9.24-4.45-13.94-2.57-7.88 3.5-12.98 10.99-16.32 18.64-1.88-11.99 7.37-24.97 19.71-25.98 5.93-1.14 11.6 2.14 17.51 1.16 1.57 2.43 3.94 3.94 6.8 4.48-1.78-2.46-3.78-4.76-6.07-6.76m-23.6 3.66c-5.98 2.96-11.2 8.46-12.23 15.24 4.04-4.11 7.66-9.06 13.23-11.23 5.73-2.32 12.82-.99 16.84 3.86.35-2.57 1.01-5.09 2.13-7.43-6.48-1.66-13.56-3.18-19.97-.44m19.02 7.17c1.27 1.43 3 1.44 4.75 1.21-.28-2.94-.41-5.89-.77-8.81-1.98 2.15-2.96 4.92-3.98 7.6m-31.25 8.07c-3.27.58 2.03 2.72 0 0z"/>
        <path opacity=".42" d="M88.22 32.9c2.49 1.97 5.75 2.82 7.91 5.23-2.03-.66-4.49-3.13-6.54-1.55-1.21 2.29 1.05 4.75 1.11 7.16-.71 1.97-1.89 3.71-2.92 5.51 3.52-.07 7.04-.09 10.56-.05.52-2.62.36-5.26-1.95-6.94.6-.1 1.81-.29 2.41-.39.73-1.37-1.2-2.09-1.76-3.09 1.64.45 3.58 1.34 3.6 3.33-.76 5.27-2.73 10.71-7.41 13.75-.69-1.81-.59-3.75-.37-5.63-2.1.06-4.21.02-6.31-.13.27-.51.81-1.54 1.08-2.06.79-1.58 1.7-3.14 2.2-4.85-.26-2.96-2.88-4.67-4.98-6.37 1.3-.25 2.58-.56 3.84-.93-.11-1.01-.27-2-.47-2.99m6.47 16.4c-.57 1.72-1.13 3.45-1.64 5.18 1.43-.76 2.66-1.82 3.73-3.04-.69-.73-1.38-1.44-2.09-2.14zM57.7 45.57c2.52-3.6 6.79-6.1 11.29-5.47 4.75-.2 8.29 3.49 10.96 6.94-3.36 1.56-7.02 2.65-9.95 5.02-4.94 3.77-5.88 10.88-4.6 16.6 1.97 8.98 9.79 14.88 13.73 22.88.19 1.2.6 2.31 1.25 3.34.99-1.36.68-3.14-.19-4.48-3.4-7.72-10.71-13.22-12.99-21.51-1.02-4.69-.3-10.09 2.9-13.82 2.64-2.57 6.38-4.33 10.12-3.64-1.88 2.97-3.46 6.11-4.7 9.4 1.3.37 2.61.75 3.92 1.13-.48 2.22 1.29 3.5 2.7 4.83-.64-.1-1.92-.29-2.56-.38-.55-1.28-.97-2.62-1.43-3.94-1.12-.17-2.5-.84-3.13.54.02.99.11 1.99.17 2.98-.38 5.65 3.74 10.02 7.19 13.97-.7-3.3-1.74-6.52-3.16-9.57 2.87 2.71 4.31 7.31 3.22 11.1-.32.11-.98.34-1.31.46-4.27-5.61-9-12.6-6.93-20 .7-3.42 2.25-6.57 3.54-9.79-3.96 1.26-7.54 3.9-8.77 8.03-2.47 5.11-.27 10.84 2.65 15.23 2.76 4.78 6.91 8.54 9.79 13.23 1.73 2.59 1.18 5.79 1.11 8.71-1.13.12-2.26.25-3.38.38-.29-7.02-5.78-12.03-9.42-17.53-5.57-6.78-8.93-16.9-4.48-25.12 2.49-5.11 8.44-6.82 13.42-8.48-3.33-3.67-8.08-6.65-13.23-5.21-6.55 2.14-9.92 9.24-10.81 15.64-1.17 7.72 2.97 14.83 7.07 21.01 3.33 5.36 7.71 9.95 11.19 15.19l-.68 2.32c-4.1-6.89-8.88-13.33-13.62-19.78-2.61-4.23-5-8.75-5.64-13.74-.92-5.88 1.45-11.72 4.76-16.47zM49.21 112.9c2.82-.6 4.73-2.82 7.05-4.34-.45.78-1.36 2.34-1.82 3.12 2.58-.84 5.14-1.73 7.64-2.77-2.41 1.65-4.81 3.34-6.88 5.42-2.07-.1-4.06-.69-5.99-1.43z"/>
    </g>
    <path fill="#b52421" d="M54.06 27.03c6.41-2.74 13.49-1.22 19.97.44-1.12 2.34-1.78 4.86-2.13 7.43-4.02-4.85-11.11-6.18-16.84-3.86-5.57 2.17-9.19 7.12-13.23 11.23 1.03-6.78 6.25-12.28 12.23-15.24z"/>
    <path fill="#c62829" d="M73.08 34.2c1.02-2.68 2-5.45 3.98-7.6.36 2.92.49 5.87.77 8.81-1.75.23-3.48.22-4.75-1.21z"/>
    <path fill="#110303" opacity=".38" d="M32.75 32.52c.42-1.73 1.79-2.89 3.15-3.91-6.32 9.33-3.98 21.22-.58 31.16 4.48 10.24 12.42 18.38 18 27.95-.65-.18-1.96-.53-2.61-.71.22 2.44.64 4.99-.53 7.27.89-5.87-2.24-11.23-6.04-15.42-4.17-4.48-6.76-10.1-9.3-15.6-2.25-5.01-2.69-10.58-4.67-15.68-.7 6.25.19 12.53 1.67 18.6-2.78-4.46-2.73-10.09-2.93-15.17 2.6-5.88 1.42-12.53 3.84-18.49z"/>
    <path fill="#c02726" d="M78.47 29.1c2.56.89 5.11 1.81 7.61 2.88.53.23 1.6.69 2.14.92.2.99.36 1.98.47 2.99-1.26.37-2.54.68-3.84.93 2.1 1.7 4.72 3.41 4.98 6.37-.5 1.71-1.41 3.27-2.2 4.85-.78.07-2.32.19-3.09.25-.61 1.15-1.22 2.29-1.83 3.44-.62-.08-1.87-.23-2.49-.3-3.74-.69-7.48 1.07-10.12 3.64-3.2 3.73-3.92 9.13-2.9 13.82 2.28 8.29 9.59 13.79 12.99 21.51-.26.29-.8.86-1.06 1.14-3.94-8-11.76-13.9-13.73-22.88-1.28-5.72-.34-12.83 4.6-16.6 2.93-2.37 6.59-3.46 9.95-5.02-2.67-3.45-6.21-7.14-10.96-6.94-4.5-.63-8.77 1.87-11.29 5.47-3.31 4.75-5.68 10.59-4.76 16.47.64 4.99 3.03 9.51 5.64 13.74l-2.08-.1c-4.19-5.31-7.22-11.78-7.17-18.65-.39-7.24 2.83-14.76 9.06-18.72 3.95-3.09 9.19-2.89 13.92-2.54 2.18 1.23 4.64.92 7 .49-.27-2.39-.56-4.77-.84-7.16z"/>
    <path fill="#ad2421" d="M89.59 36.58c2.05-1.58 4.51.89 6.54 1.55.23.16.69.48.91.65.56 1 2.49 1.72 1.76 3.09-.6.1-1.81.29-2.41.39 2.31 1.68 2.47 4.32 1.95 6.94-3.52-.04-7.04-.02-10.56.05 1.03-1.8 2.21-3.54 2.92-5.51-.06-2.41-2.32-4.87-1.11-7.16z"/>
    <path fill="#761714" opacity=".84" d="M41.83 42.27c2.03 2.72-3.27.58 0 0z"/>
    <g fill="#9f2021">
        <path d="M30.17 47.58c1.98 5.1 2.42 10.67 4.67 15.68 2.54 5.5 5.13 11.12 9.3 15.6 3.8 4.19 6.93 9.55 6.04 15.42-1.16 1.36-2.7 2.3-4.19 3.24-.31-3.79-.56-7.73-2.35-11.17-1.48-3.08-3.78-5.66-5.36-8.67-.28-.45-.84-1.34-1.12-1.79-1.96-3.13-3.41-6.55-5.32-9.71-1.48-6.07-2.37-12.35-1.67-18.6zM82.38 79.96c-3.45-3.95-7.57-8.32-7.19-13.97 1.46 1.35 2.96 2.71 4.03 4.4 1.42 3.05 2.46 6.27 3.16 9.57z"/>
    </g>
    <path fill="#aa2021" d="M84.54 48.29c.77-.06 2.31-.18 3.09-.25-.27.52-.81 1.55-1.08 2.06-1.14 2.22-2.39 4.42-2.98 6.87-.42 3.03 2.9 4.57 4.68 6.39.34-.74 1.01-2.22 1.34-2.96-.01 1.52 0 3.04.03 4.57-1.8 1.85-3.83 3.45-5.86 5.04-1.57-.97-3.56-1.66-4.18-3.6.64.09 1.92.28 2.56.38-1.41-1.33-3.18-2.61-2.7-4.83-1.31-.38-2.62-.76-3.92-1.13 1.24-3.29 2.82-6.43 4.7-9.4.62.07 1.87.22 2.49.3.61-1.15 1.22-2.29 1.83-3.44z"/>
    <path fill="#831918" opacity=".91" d="M94.69 49.3c.71.7 1.4 1.41 2.09 2.14-1.07 1.22-2.3 2.28-3.73 3.04.51-1.73 1.07-3.46 1.64-5.18z"/>
    <g fill="#9a2021">
        <path d="M68.97 60.19c1.23-4.13 4.81-6.77 8.77-8.03-1.29 3.22-2.84 6.37-3.54 9.79-2.07 7.4 2.66 14.39 6.93 20 2.22 3.1 5.58 6.53 4.51 10.69-.37 2.2-1.84 3.96-3.15 5.68l.03-.96c.07-2.92.62-6.12-1.11-8.71-2.88-4.69-7.03-8.45-9.79-13.23-2.92-4.39-5.12-10.12-2.65-15.23zM56.5 75.68l2.08.1c4.74 6.45 9.52 12.89 13.62 19.78-.22 2.52-.62 5.02-1.4 7.44-.64-3.67-.79-7.62-3.04-10.76-3.78-5.5-7.58-10.99-11.26-16.56z"/>
    </g>
    <path fill="#0f0303" opacity=".43" d="M37.16 75.89c.28.45.84 1.34 1.12 1.79l-.92-.03-.58-.92.38-.84z"/>
    <path fill="#0b0202" opacity=".29" d="M72.2 95.56l.68-2.32c2.72 3.59 1.1 8.08.26 12 1.24-1.21 2.5-2.4 3.72-3.63-.2 2.66-2.49 4-4.78 4.74-.12-.55-.36-1.67-.49-2.22-2.61 1.28-5.2 2.59-7.81 3.86 1.2-1.33 2.31-2.74 3.32-4.22 1.23-.26 2.46-.51 3.7-.77.78-2.42 1.18-4.92 1.4-7.44z"/>
</svg>
