<svg width="128pt" height="128pt" viewBox="0 0 128 128" xmlns="http://www.w3.org/2000/svg">
    <path fill="#bb2b2c" d="M40.47 17.54c1.24-1.39 2.56-2.74 4.22-3.64 3.92 7.33 15.55 9.12 21.43 3.24 2.32 1.52 4.11 3.66 5.92 5.73-7.05 7.2-14.5 14.14-20.8 21.95.74 1.45 2.52.92 3.83 1.18 4.41 3.84 7.82 8.87 12.74 12.05 1.99-2.24 4.1-4.37 6.17-6.55l.21.02c2.1.22 4.22.41 6.33.55-.01 1.28-.02 2.56-.02 3.84 2.48-1.88 5.14-3.56 8.12-4.56-.06.54-.16 1.62-.21 2.17-4.22 4.15-8.34 8.39-12.57 12.52 1.05 2.21 2.97 3.75 4.66 5.44 8.12 8.1 16.19 16.24 24.34 24.31.25.38.74 1.15.99 1.53.28 1.4.38 2.86.85 4.22 1.01 1.9 3.31 2.14 5.15 2.69.45 1.61.88 3.22 1.32 4.83-1.84-.58-3.67-1.15-5.5-1.74-.55-.73-1.11-1.45-1.68-2.16-1.17-2.32-4.17-1.58-5.82-3.2C90.1 92.01 80.19 81.91 70.1 72.01c-2.95 2.47-4.92 5.77-7.11 8.87-.28.45-.85 1.35-1.14 1.8l-.32 1.68c-2.13.56-4.15 1.47-6.14 2.41-.09.8-.18 1.61-.26 2.41 1.7 1.08 3.34 2.27 4.86 3.6 2.53-1.4 5.41-1.51 7.74.39-1.27 1.43-2.88 2.52-4.66 3.22-4.51-1.17-8.53-3.88-13.15-4.84-3.01.68-5.78 2.12-8.45 3.62-.66-1.04-1.32-2.08-1.97-3.11 1.21-2.58 2.92-5.15 2.97-8.08-1.03-4.19-3.24-7.94-4.75-11.95-.04-1.94 1.45-3.47 2.23-5.16 3.09 1.24 2.57 4.52 1.39 6.96 1.09 2.24 2.71 4.17 4.39 5.98 2.46-1.53 3.04-4.41 3.99-6.92 4.29-2.52 8.91-4.95 12.02-8.95-3.43-4.45-8.07-7.98-11.83-12.2-.41-1.22-.49-4.38-2.57-3.34-3.35 2.95-6.36 6.27-9.61 9.33-2.09 1.8-3.6 4.49-6.34 5.36-5.93-6.13-12.01-12.11-18.06-18.13 8.82-9.35 18.2-18.17 27.14-27.42z"/>
    <path fill="#c62c2e" d="M97.12 30.02c4.57-2.48 9.08-5.08 13.68-7.51-1.62 2.83-2.91 5.86-4.75 8.55-.3.43-.88 1.29-1.17 1.72-1.09 3.76-3.07 7.43-6.03 10.07-3.61 3.43-6.89 7.18-10.44 10.67.05-.55.15-1.63.21-2.17-2.98 1-5.64 2.68-8.12 4.56 0-1.28.01-2.56.02-3.84-2.11-.14-4.23-.33-6.33-.55 5.64-6.11 11.67-11.85 17.42-17.86 1.13-.96 2.12-2.42 3.71-2.57.45-.27 1.35-.81 1.8-1.07z"/>
    <path fill="#3a0d0f" opacity=".57" d="M95.33 30.18l.93-.56.86.4c-.45.26-1.35.8-1.8 1.07l.01-.91z"/>
    <path fill="#501211" opacity=".72" d="M104.88 32.78c.29-.43.87-1.29 1.17-1.72l.34.86-.6.88-.91-.02z"/>
    <path fill="#3b0d0d" opacity=".58" d="M61.85 82.68c.29-.45.86-1.35 1.14-1.8l.39.85-.58.93-.95.02z"/>
    <path fill="#b22929" d="M30.71 100.84c2.92-2.94 5.68-6.04 8.79-8.78.65 1.03 1.31 2.07 1.97 3.11l.29.47c-3.22 2.86-6.2 5.98-9.18 9.09-.33 1.46-.74 2.91-1.26 4.32-2.7.1-4.97 1.78-7.66 1.88-.23-2.85 1.75-5.22 2.03-8.02 1.71-.56 3.76-.62 5.02-2.07z"/>
    <path fill="#0e0303" opacity=".38" d="M104.84 95.79c2.75.58 2.33 3.58 2.54 5.71 1.68.68 3.47 1.14 5.03 2.09 1.41 1.44 2.1 3.38 3.03 5.13-1.51 1-3.02 2.01-4.52 3.02-1.84-1.97-4.85-3.56-4.95-6.58.57.71 1.13 1.43 1.68 2.16 1.83.59 3.66 1.16 5.5 1.74-.44-1.61-.87-3.22-1.32-4.83-1.84-.55-4.14-.79-5.15-2.69-.47-1.36-.57-2.82-.85-4.22-.25-.38-.74-1.15-.99-1.53z"/>
</svg>
