<svg width="128pt" height="128pt" viewBox="0 0 128 128" xmlns="http://www.w3.org/2000/svg">
    <path fill="#fff" d="M40.58 17.53c1.2-1.38 2.52-2.65 4.04-3.66 3.98 7.53 15.8 9.28 21.7 3.18 1.87 1.9 3.77 3.78 5.71 5.62-4.78 5.31-10.12 10.08-15 15.29-1.99 2.11-3.43 4.79-6.04 6.25.45 2.06 2.44 2.25 4.2 1.95 17 17.09 34.07 34.11 51.07 51.21-1.16 3.62 1.92 6.79 5.5 6.46.6 1.79 1.08 3.63 1.63 5.44l-1.52-.05c-1.5-1.46-4.42-.82-5.18-3.05-.88-2.3-3.29-3.38-5.63-3.44C83.93 85.8 66.99 68.67 49.93 51.67c-.27-1.57-.5-3.22-1.97-4.16-5.27 5.4-10.99 10.34-16.01 15.98-6.12-6.21-12.3-12.37-18.49-18.5 8.8-9.38 18.24-18.15 27.12-27.46z"/>
</svg>
