<svg width="128pt" height="128pt" viewBox="0 0 128 128" xmlns="http://www.w3.org/2000/svg">
    <g fill="#fff">
        <path d="M109.08 23.11c.94-.28.38-1.55 1.18-1.96.8.76 2.34 3.54-.07 2.54-3.15 5.08-5.65 10.63-8.47 15.92-8.51 9-17.34 17.71-25.95 26.62-3.21-2.18-5.46-5.44-8.55-7.77 9-8.69 17.48-18.1 26.64-26.68 5.04-2.92 10.48-5.21 15.22-8.67zM49.8 72.93c4.49-2.35 8.78-5.22 12.2-9 2.77 2.49 5.3 5.25 8.04 7.78-3.73 3.58-6.34 8.06-8.9 12.49-1.78.95-3.76 1.43-5.56 2.33-.23.61-.67 1.81-.89 2.42 1.78 1.33 3.6 2.64 5.54 3.74 1.65.01 3.08-1.6 4.74-.86l2.93 1.16c-1.46 1.61-3.36 3.03-5.56 3.31-4.11-1.66-8.1-3.84-12.45-4.77-3.42.94-7.06 2.11-9.36 4.99-3.33 4.01-8.57 6.87-9.31 12.48-2.76-.06-4.95 2.15-7.73 1.69.65-2.48 1.38-4.94 2.23-7.36 1.41-1.31 3.9-.84 5.17-2.48 2.87-3.16 5.97-6.11 8.91-9.2 1.38-2.11 2.12-4.6 2.85-6.99-.92-4.53-3.17-8.67-5.11-12.83.77-1.73 1.62-3.42 2.51-5.09 1.1.91 1.98 2.1 2.36 3.5-.22 1.22-.88 2.33-1.09 3.56.91 2.15 2.62 3.85 3.76 5.88 3.34-.66 3.6-4.17 4.72-6.75z"/>
    </g>
    <path fill="#454545" opacity=".27" d="M76.34 67.34c.4.41.4.41 0 0z"/>
</svg>
