<svg width="128pt" height="128pt" viewBox="0 0 128 128" xmlns="http://www.w3.org/2000/svg">
    <path fill="#fff" d="M37.66 76.45c8.72-21.24 17.53-42.44 26.52-63.56 7.08 17.02 14.38 33.95 21.29 51.05 3.53 7.93 6.1 16.28 10.47 23.83-.47-.51-1.43-1.53-1.9-2.03-6.47-2.62-15.41-4.6-20.46 1.7.27.3.82.88 1.09 1.18-.48.01-1.46.03-1.95.03-.87 3.44-1.34 7.04-.43 10.52-2.34.2-4.98 1.23-5.56 3.78-.27 2.64.79 5.15 1.77 7.53-.87 1.86-1.51 3.82-2.25 5.75-1.42.09-2.83.07-4.25-.06-.73-1.9-1.31-3.86-2.13-5.72 1.19-2.81 2.67-6.26.9-9.15-1.09-1.59-3.02-2.21-4.74-2.87 1.4-5.42-.21-12.27-5.9-14.45-5.3-1.61-10.97-.35-16.22.91 1.59-2.65 2.75-5.52 3.75-8.44m1.59 4.19c5.34.11 11.88-1.29 15.89 3.22 3.71 2.93 4.34 7.89 4.14 12.31 1.82 1.35 3.37 3.01 4.86 4.7 1.29-1.42 2.62-2.8 3.99-4.16l.93.7c.1-3.14-.07-6.34.85-9.37 1.77-3.12 4.37-6.21 8.01-7.06 3.62-.79 7.38-.54 11.03-.02-1.08-3.04-2.21-6.06-3.39-9.06-1.43-3.59-3.01-7.11-4.59-10.63C75.71 47.56 69.7 34.1 64.14 20.49c-8.31 20.05-16.8 40.02-24.89 60.15M64.37 106c-.76 2.48-1.74 5.13-.03 7.46.95-2.45.23-4.96.03-7.46z"/>
    <g fill="#0f0f0f">
        <path opacity=".06" d="M80.97 61.27c1.58 3.52 3.16 7.04 4.59 10.63-1.08.93-2.15 1.87-3.21 2.82-1.77-1.68-3.02-3.81-3.84-6.09 1.17-.27 2.36-.53 3.54-.79-.29-2.21-.65-4.4-1.08-6.57zM64.37 106c.2 2.5.92 5.01-.03 7.46-1.71-2.33-.73-4.98.03-7.46z"/>
    </g>
    <g fill="#111">
        <path opacity=".07" d="M61.07 79.19c.93-1.17 1.71-2.51 2.93-3.41 1.95-.06 3.49 1.6 4.19 3.27.37 2.59-.35 5.17-.69 7.73-3.83.04-7.37-1.43-10.59-3.38.33-2.22 2.35-3.31 4.16-4.21zM63.97 88.44l4.06-.45c.07 1.98.11 3.96.16 5.95.57-1.97 1.04-3.97 1.72-5.9-.92 3.03-.75 6.23-.85 9.37l-.93-.7c-1.31-.98-2.66-1.93-3.75-3.16-.5-1.64-.46-3.41-.41-5.11z"/>
    </g>
</svg>
