<svg width="128pt" height="128pt" viewBox="0 0 128 128" xmlns="http://www.w3.org/2000/svg">
    <path fill="#fdfdfd" d="M68.3 18.09c7.77 6.42 15.91 12.38 23.73 18.75-2.95 1.59-5.93 3.13-8.93 4.63-4.86-3.64-9.95-6.99-14.62-10.87-.79-4.02-.08-8.37-.18-12.51z"/>
    <g fill="#fefefe">
        <path d="M36.5 36.89c7.83-6.42 15.96-12.47 23.82-18.85-.07 4.09.02 8.18.14 12.27-4.98 3.86-10.02 7.67-15.27 11.17-2.84-1.63-5.77-3.11-8.69-4.59zM50.43 47.31c4.41-3.47 9.06-6.61 13.67-9.81 4.32 3.17 9.16 5.66 13.2 9.23 1.29 1.07.73 2.84.86 4.29-.07 10.08.05 20.17-.05 30.25-3.89 4.24-9.32 6.84-13.87 10.35-4.64-3.27-9.39-6.39-13.85-9.91-.04-11.47-.12-22.93.04-34.4zM33.65 43.34c3.1 1.99 6.29 3.81 9.51 5.59.01 10.37.05 20.73-.01 31.1-3.19 1.92-6.45 3.72-9.55 5.79-.03-14.16-.05-28.32.05-42.48zM85.44 48.9c3.17-1.81 6.34-3.62 9.44-5.54 0 14.1-.08 28.2.03 42.3-3.17-1.84-6.35-3.67-9.47-5.59-.17-10.39-.16-20.78 0-31.17zM36.73 92.13c2.79-1.61 5.73-2.95 8.5-4.59 5.21 3.54 10.24 7.34 15.23 11.19-.15 4.05-.18 8.11-.15 12.16-7.84-6.28-16.03-12.13-23.58-18.76zM68.21 98.53c4.86-3.81 9.94-7.31 14.9-10.98 3.01 1.46 5.95 3.06 8.91 4.63-7.77 6.43-16.03 12.28-23.68 18.86-.19-4.17-.21-8.34-.13-12.51z"/>
    </g>
</svg>
