<svg width="128pt" height="128pt" viewBox="0 0 128 128" xmlns="http://www.w3.org/2000/svg">
    <g fill="#fff">
        <path d="M34.19 35.2c9.56-7.45 19.02-15.03 28.66-22.38-.31 6.39-.01 12.78.03 19.17-5.71 4.27-11.49 8.45-17.24 12.65-4.66-2.16-9.1-4.75-13.63-7.18.6-.87 1.33-1.64 2.18-2.26m2.3 1.67c2.93 1.49 5.83 3.03 8.7 4.62 5.18-3.57 10.26-7.29 15.25-11.12-.14-4.13-.24-8.28-.09-12.42-7.86 6.43-15.98 12.54-23.86 18.92zM65.73 12.84c10.43 8 20.65 16.27 31.09 24.26-4.45 2.86-9.24 5.1-13.9 7.59-5.81-4.21-11.55-8.51-17.33-12.75.08-6.37.16-12.73.14-19.1m2.45 5.37c.19 4.08-.32 8.21.16 12.27 4.7 3.94 9.84 7.32 14.77 10.97 2.98-1.53 6.02-2.95 8.94-4.6-7.94-6.24-15.84-12.52-23.87-18.64zM47.78 46.01c5.25-4.37 10.97-8.16 16.67-11.94 1.98 2.31 4.86 3.43 7.27 5.17 3.02 2.16 5.99 4.38 8.94 6.63-.29 12.47.19 25.06-.24 37.47-5.23 4.11-10.71 7.89-16.23 11.6-5.42-3.98-11.18-7.49-16.36-11.81.03-12.37.12-24.75-.05-37.12m2.63 1.26c-.1 11.48-.08 22.96-.01 34.44 4.44 3.54 9.23 6.59 13.83 9.91 4.53-3.54 10.01-6.08 13.87-10.35.12-8.74-.01-17.49.05-26.24-.02-2.75.21-5.56-.52-8.25-4.41-3.24-8.98-6.24-13.55-9.26-4.59 3.2-9.23 6.33-13.67 9.75zM31.17 38.68c4.65 3.1 9.61 5.68 14.39 8.55.1 11.52.03 23.04.03 34.55-4.78 2.86-9.63 5.62-14.39 8.51-.1-17.2-.06-34.41-.03-51.61m2.39 4.59c.05 14.14.04 28.28 0 42.42 3.01-2.31 7.41-3.24 9.55-6.42.17-10.11.03-20.22.05-30.33-3.24-1.82-6.48-3.65-9.6-5.67zM82.81 47.39c4.78-3 9.72-5.73 14.56-8.62-.01 17.14-.06 34.29.02 51.43-4.88-2.76-9.7-5.65-14.55-8.47.03-11.45.08-22.89-.03-34.34m2.67 1.45c-.25 10.42-.11 20.84-.04 31.26 3.17 1.82 6.3 3.72 9.46 5.56-.08-14.07-.03-28.15-.02-42.23-3.11 1.86-6.24 3.66-9.4 5.41zM32.01 91.74c4.54-2.49 8.98-5.59 13.9-7.12 5.68 4.16 11.5 8.13 16.95 12.59-.05 6.36-.26 12.73-.07 19.09-10.11-8.02-20.34-15.92-30.45-23.96-.08-.15-.24-.45-.33-.6m4.54.47c6.17 4.94 12.42 9.78 18.61 14.7 1.7 1.37 3.43 2.69 5.15 4.04.35-4.12.1-8.24.05-12.35l-1.48-1.16c-4.59-3.26-8.97-6.8-13.66-9.92-2.83 1.68-5.8 3.09-8.67 4.69zM65.52 97.3c5.66-4.48 11.52-8.69 17.39-12.88 4.72 2.33 9.39 4.78 13.92 7.47-10.4 8.12-20.81 16.22-31.12 24.46.02-6.35.06-12.7-.19-19.05m3.32 1.36l-.63-.76c-.25 4.37-.06 8.75.01 13.12 1.56-1.28 3.15-2.52 4.72-3.8 6.28-5.1 12.8-9.9 19.07-15.03-2.96-1.59-5.92-3.18-8.93-4.67-4.58 3.9-10.33 6.61-14.24 11.14z"/>
    </g>
    <path fill="#141414" opacity=".08" d="M58.88 97.44l1.48 1.16c.05 4.11.3 8.23-.05 12.35-1.72-1.35-3.45-2.67-5.15-4.04 1.25-1.94 3-1.2 4.65-.41.22-2.3-1.02-4.41-1.72-6.54.2-.63.6-1.89.79-2.52z"/>
    <path fill="#151515" opacity=".08" d="M68.21 97.9l.63.76c.27 3.34 1.26 6.53 4.1 8.56-1.57 1.28-3.16 2.52-4.72 3.8-.07-4.37-.26-8.75-.01-13.12z"/>
</svg>
