<svg width="128pt" height="128pt" viewBox="0 0 128 128" xmlns="http://www.w3.org/2000/svg">
    <g fill="#a52021">
        <path d="M30.71 21.42c21.46-.17 42.94-.05 64.4-.09 2.26-.45 4 1.41 4.48 3.46-.24.78-.71 2.33-.95 3.11-2.52-.17-5.06-.59-7.59-.38C83.26 31.55 74.21 29 65.83 30c-2.63.48-5.24-.24-7.85-.43-5.32-.3-10.64-.42-15.95-.16-3.3-.35-6.63-.56-9.86.42-.08.3-.24.9-.32 1.21l-.46 1.59c-1.46-1.14-2.86-2.35-4.21-3.62.88-2.66 2.07-5.2 3.53-7.59zM36.65 36.19c16.77-.53 33.57.11 50.35-.24 2.26.09 5.13-.37 6.51 1.91 1.75 3.29 4.25 6.05 6.39 9.06.34.94.93 1.71 1.75 2.3.45.5 1.36 1.49 1.82 1.99-.99 2.52-2.42 4.94-5.1 5.89-3.12.88-.88 5.22-3.54 6.59-2.96 1.93-3.95 5.46-5.54 8.41-1.47-.97-2.96-1.92-4.43-2.89-1.42 2.28-2.73 5-5.39 6.06-2.11.5-4.31 0-6.44.28-2.2 1.31-4.09 3.24-6.74 3.63.16-1.55.34-3.11.53-4.66-.81-.09-1.62-.16-2.44-.24-.81-1.11-1.63-2.22-2.45-3.33-1.69.59-3.38 1.19-5.08 1.79.47-1.38.93-2.76 1.4-4.14-1-1.04-2-2.07-3-3.11-.47 2.1-.95 4.19-1.43 6.29-2.05.26-4.12.82-6.2.56-.69-1.06-1.21-2.21-1.9-3.27-1.76-.77-3.78-.63-5.62-1.15-.84-1.8-.53-3.85-.57-5.77-3.34 3.11-7.68 4.42-12.2 4.1.57 1.01 1.14 2.01 1.71 3.02-.58.53-1.17 1.06-1.75 1.6-1.01-1.16-2.07-2.26-3.2-3.31-.3-1.15-.59-2.3-.87-3.46-.4.04-1.2.12-1.6.15-.76 1.4-1.52 2.8-2.24 4.23-.35-6.25 2.7-12.09 5.88-17.25.86-.57 1.44-1.34 1.77-2.31 1.98-3.11 4.42-5.96 6.93-8.66l1.2-1.24c.52-.93 1.01-1.88 1.49-2.83z"/>
    </g>
    <path fill="#941718" d="M99.59 24.79c.58 1.38 1.08 2.79 1.59 4.19-1.49 2.04-3.59 3.28-6.12 3.52-.56 1.77-1.08 3.56-1.55 5.36-1.38-2.28-4.25-1.82-6.51-1.91-16.78.35-33.58-.29-50.35.24-.48.95-.97 1.9-1.49 2.83l-1.2 1.24c1.57-3.32.08-6.65-2.11-9.22.08-.31.24-.91.32-1.21 3.23-.98 6.56-.77 9.86-.42 5.31-.26 10.63-.14 15.95.16 2.61.19 5.22.91 7.85.43 8.38-1 17.43 1.55 25.22-2.48 2.53-.21 5.07.21 7.59.38.24-.78.71-2.33.95-3.11z"/>
    <path fill="#170404" opacity=".38" d="M99.9 46.92c1.81-.23 2.4.54 1.75 2.3-.82-.59-1.41-1.36-1.75-2.3z"/>
    <path fill="#1f0606" opacity=".43" d="M25.26 51.23c-.64-1.71-.06-2.48 1.77-2.31-.33.97-.91 1.74-1.77 2.31z"/>
    <path fill="#9a1b1b" d="M103.47 51.21c1.77 3.78 4.07 7.37 5 11.49-.43 3.38-.31 7-1.69 10.16-1.89 2.01-4.19 3.77-4.73 6.66-5.59 1.07-10.88 4.28-14.45 8.69.16 3.43-.65 6.72-2.89 9.4-1.93-3.46-5.25-5.73-8.6-7.66-1.05-.91-2.2.28-3.25.58.91 1.68 2.12 3.27 2.58 5.16-.5.92-1.11 1.77-1.7 2.65-2.38-.19-4.52.68-6.23 2.32l-1.39.04c-.31-1.78-.82-3.57-.7-5.39.5-1.17 1.73-1.77 2.61-2.61-.87-1.48-1.66-3.28-3.45-3.83-1.47.1-2.89.53-4.32.86-.17.99-.33 1.98-.49 2.98-.81-.85-1.62-1.69-2.43-2.53l-1.92 2.55c-1.59-2.4-3.32-4.71-5.21-6.88.04 2.34.11 4.68.17 7.02-4.48-.21-2.4-5.92-2.51-8.74l-4.08 1.77c.63 1.07 1.27 2.15 1.9 3.22-.34 1.22-.68 2.44-1.03 3.66-2.03-2.48-3.68-5.26-5.79-7.68-1.07-1.57-2.77.09-4.08.36-3.45-1.14-7.04-1.84-10.69-1.83l-.67-.03c-2.16-4.75-4.28-9.8-4.05-15.12.72-1.43 1.48-2.83 2.24-4.23.4-.03 1.2-.11 1.6-.15.28 1.16.57 2.31.87 3.46 1.13 1.05 2.19 2.15 3.2 3.31.58-.54 1.17-1.07 1.75-1.6-.57-1.01-1.14-2.01-1.71-3.02 4.52.32 8.86-.99 12.2-4.1.04 1.92-.27 3.97.57 5.77 1.84.52 3.86.38 5.62 1.15.69 1.06 1.21 2.21 1.9 3.27 2.08.26 4.15-.3 6.2-.56.48-2.1.96-4.19 1.43-6.29 1 1.04 2 2.07 3 3.11-.47 1.38-.93 2.76-1.4 4.14 1.7-.6 3.39-1.2 5.08-1.79.82 1.11 1.64 2.22 2.45 3.33.82.08 1.63.15 2.44.24-.19 1.55-.37 3.11-.53 4.66 2.65-.39 4.54-2.32 6.74-3.63 2.13-.28 4.33.22 6.44-.28 2.66-1.06 3.97-3.78 5.39-6.06 1.47.97 2.96 1.92 4.43 2.89 1.59-2.95 2.58-6.48 5.54-8.41 2.66-1.37.42-5.71 3.54-6.59 2.68-.95 4.11-3.37 5.1-5.89z"/>
    <path fill="#8b1314" d="M108.47 62.7c2.34 7.84-1.03 15.74-4.27 22.78-.28.08-.84.26-1.13.34-2.27.76-4.73 1.2-6.74 2.57-.98 1.25-.88 3.03-1.54 4.45-1.15 1.44-2.8 2.37-4.26 3.47.43 1.25.86 2.5 1.3 3.75-2.59-.85-5.48-1.88-7.74.37-4.06-.73-7.87 1.63-11.93 1.06-1.55-.27-3.1-.55-4.65-.83 1.71-1.64 3.85-2.51 6.23-2.32.59-.88 1.2-1.73 1.7-2.65-.46-1.89-1.67-3.48-2.58-5.16 1.05-.3 2.2-1.49 3.25-.58 3.35 1.93 6.67 4.2 8.6 7.66 2.24-2.68 3.05-5.97 2.89-9.4 3.57-4.41 8.86-7.62 14.45-8.69.54-2.89 2.84-4.65 4.73-6.66 1.38-3.16 1.26-6.78 1.69-10.16z"/>
    <path fill="#8b1414" d="M24.1 83.63c3.65-.01 7.24.69 10.69 1.83 1.31-.27 3.01-1.93 4.08-.36 2.11 2.42 3.76 5.2 5.79 7.68.35-1.22.69-2.44 1.03-3.66-.63-1.07-1.27-2.15-1.9-3.22l4.08-1.77c.11 2.82-1.97 8.53 2.51 8.74-.06-2.34-.13-4.68-.17-7.02 1.89 2.17 3.62 4.48 5.21 6.88l1.92-2.55c.81.84 1.62 1.68 2.43 2.53.16-1 .32-1.99.49-2.98 1.43-.33 2.85-.76 4.32-.86 1.79.55 2.58 2.35 3.45 3.83-.88.84-2.11 1.44-2.61 2.61-.12 1.82.39 3.61.7 5.39l1.39-.04c1.55.28 3.1.56 4.65.83-5.36.72-10.76.15-16.13.04-3.68.06-7.17-1.36-10.85-1.36-3-1.59-6.02-3.16-9.32-4.06-1.53-.29-2.48-1.53-3.51-2.58-2.74-3.28-7.19-5.5-8.25-9.9z"/>
    <path fill="#730d0d" d="M96.33 88.39c2.01-1.37 4.47-1.81 6.74-2.57-1.39 3.16-4.31 5.1-6.66 7.47-.11 3.25.06 6.53-.1 9.79-1.44 1.18-2.92 2.3-4.41 3.42-3.28-1.13-6.06-3.23-8.49-5.67l.68-.4c2.26-2.25 5.15-1.22 7.74-.37-.44-1.25-.87-2.5-1.3-3.75 1.46-1.1 3.11-2.03 4.26-3.47.66-1.42.56-3.2 1.54-4.45z"/>
    <path fill="#7b0f0f" d="M32.35 93.53c1.03 1.05 1.98 2.29 3.51 2.58 3.3.9 6.32 2.47 9.32 4.06-1.73 2.55-4.22 4.7-7.2 5.61-2.31.45-4.31-1.11-6.37-1.87-.74-3.49.29-6.93.74-10.38z"/>
    <path opacity=".16" d="M97.21 96.58c1.47.97 1.61 5.26 0 6.08-.33-1.96-.84-4.2 0-6.08z"/>
</svg>
