<svg width="128pt" height="128pt" viewBox="0 0 128 128" xmlns="http://www.w3.org/2000/svg">
    <path fill="#fff" d="M31.23 21.27c21.96.31 43.93.11 65.9.01 1.84 2.2 3.1 4.79 3.9 7.53-1.35 1.67-2.93 3.66-5.38 2.96-1.25 2.42-3.2 5.3-1.24 7.9 4.24 6.4 10.24 11.79 12.61 19.31 3.76 7.2 1.81 15.76-1.26 22.84-.54 1.06-1.09 2.11-1.66 3.16-.65.83-1.29 1.68-1.91 2.53l-.38-.04c-1.53 2.55-3.93 4.34-6.26 6.11.77 2.93 1.8 6.02 1.03 9.06-1.72 1.81-4.37 4.13-7.03 2.77-2.86-1.33-4.84-3.87-7.29-5.78-5.18 2.18-10.83 1.63-16.26 2.47-6.78-.72-13.7-.43-20.3-2.45-2.07 2.31-4.29 4.61-7.17 5.9-2.55 1.15-4.79-1.25-7.05-2.09-.54-3.55.92-6.9 1.11-10.4-2.28-1.17-3.99-3.08-5.62-5-.86-.82-1.62-1.74-2.28-2.73-.47-.86-.94-1.72-1.42-2.57-3.49-6.96-5.48-15.44-2.27-22.88 2.2-6.74 6.87-12.21 11.28-17.61 1.95-2.19 3.36-5.44 1.73-8.22-.29-2.67-3.33-1.86-4.83-3.15-3.61-2.68.35-7 2.05-9.63m1.19 3.17c-.61 1.34-1.16 2.72-1.65 4.11 3.58-.14 5.73 2.71 6.74 5.78.7 3.55-.36 7.03-2.68 9.74-5.66 6.35-10.72 13.58-12.49 22.04-.41 4.73 1.02 9.38 2.92 13.65.48.96.94 1.93 1.4 2.9l.98.08c-.11.44-.33 1.33-.43 1.77l1.48-.32-.86 1.38 1.26-.2c1.43 2.91 4.25 4.79 6.65 6.86-.26 3.1-1.08 6.11-1.62 9.16 1.13.36 2.18 1.42 3.41 1.3 2.83-1.17 4.65-3.71 6.66-5.88 4.35.06 8.46 1.77 12.8 1.82 3.79.19 7.59.5 11.38.07.98 0 1.96-.04 2.95-.11.8-.03 2.39-.08 3.19-.11 3.29-.79 6.64-1.33 10.04-1.45 1.64 2.48 3.92 4.4 6.52 5.8.95-.6 1.91-1.18 2.88-1.77-.31-3.01-.81-6-.91-9.03 1.97-2.07 4.93-3.38 5.91-6.23 1.13-.41 1.69-1.49 2.34-2.41 1.09-1.72 1.91-3.59 2.81-5.41.11-.42.34-1.27.45-1.69.63-2.01 1.3-4.03 1.57-6.12.86-6.83-3.22-12.81-6.21-18.59-3.4-5.36-10.05-9.51-9.02-16.71.29-.72.53-1.45.72-2.2.78-1.17 1.62-2.3 2.49-3.41.86-.08 2.58-.26 3.44-.34-.02-2.43-1.39-5.33-4.27-4.72-7.43-.16-14.84.27-22.27.39-6.7-.54-13.43-.19-20.14.06-6.15-.15-12.3-.3-18.44-.21z"/>
    <path fill="#1b1b1b" opacity=".11" d="M32.42 24.44c6.14-.09 12.29.06 18.44.21-4.51 2-9.52-.29-14.06 1.63 2.86.5 5.76.87 8.67.97-1.54.52-3.24.73-4.64 1.62-1.45 1.59-2.29 3.61-3.32 5.46-1.01-3.07-3.16-5.92-6.74-5.78.49-1.39 1.04-2.77 1.65-4.11z"/>
    <path fill="#242424" opacity=".14" d="M93.27 24.2c2.88-.61 4.25 2.29 4.27 4.72-.86.08-2.58.26-3.44.34-.87 1.11-1.71 2.24-2.49 3.41-2.37-1.66-3.89-4.13-5.04-6.73 2.16-.83 4.4-1.45 6.7-1.74z"/>
    <path fill="#161616" opacity=".09" d="M81.76 31.05c-.71-3.05 2.78-3.97 4.81-5.11 1.15 2.6 2.67 5.07 5.04 6.73-.19.75-.43 1.48-.72 2.2-.4.81-.82 1.61-1.25 2.41.41.85.82 1.7 1.23 2.54-1.35.68-2.7 1.37-4.05 2.05-.2-2.09-.21-4.23-.77-6.27-1.02-1.84-3.43-2.59-4.29-4.55z"/>
    <path fill="#0f0f0f" opacity=".06" d="M40.83 28.87c1.4-.89 3.1-1.1 4.64-1.62.6 1.71 2.17 3.5 1.21 5.38-1.61 1.13-3.46 1.86-5.12 2.9.21 1.93.92 3.8.89 5.76-.41 2.65-1.61 5.08-2.63 7.54-1.82-1.41-3.5-3-4.99-4.76 2.32-2.71 3.38-6.19 2.68-9.74 1.03-1.85 1.87-3.87 3.32-5.46z"/>
    <path fill="#717171" opacity=".44" d="M89.64 37.28c.43-.8.85-1.6 1.25-2.41-1.03 7.2 5.62 11.35 9.02 16.71-1.42-.02-2.84-.05-4.26-.07-1.23-2.22-1.85-4.71-2.29-7.2-.85-1.48-1.71-2.96-2.49-4.49-.41-.84-.82-1.69-1.23-2.54z"/>
    <g fill="#101010">
        <path opacity=".06" d="M95.65 51.51c1.42.02 2.84.05 4.26.07 2.99 5.78 7.07 11.76 6.21 18.59-.27 2.09-.94 4.11-1.57 6.12-.18-1.24-.42-2.48-.64-3.71-1.73-.04-3.48.04-5.19-.28-1.68-1.06-2.38-3.33-1.79-5.19.58-2.75 4.07-1.54 6.12-1.95-.18-3.08-.67-6.15-1.74-9.06-.46.5-1.38 1.49-1.85 1.98-1.3-2.17-2.6-4.34-3.81-6.57zM39.89 76.92c4.47-.95 8.81.84 12.99 2.19 2 .4 2.96 3.71.83 4.62-4.31 1.77-9.82 1.05-13.17-2.32-1.41-1.15-.66-2.97-.65-4.49z"/>
    </g>
    <path fill="#202020" opacity=".13" d="M92.49 90.35c1.85-1.9 4.05-3.44 6.46-4.55-.98 2.85-3.94 4.16-5.91 6.23.1 3.03.6 6.02.91 9.03-2.09-1.01-6.04-.92-5.86-4.07.72-2.59 2.83-4.52 4.4-6.64z"/>
    <path fill="#141414" opacity=".08" d="M71.32 98.59c1.51-4.36 5.82-6.8 9.8-8.53 3.79.11 7.66 2.52 11.37.29-1.57 2.12-3.68 4.05-4.4 6.64-.18 3.15 3.77 3.06 5.86 4.07-.97.59-1.93 1.17-2.88 1.77-2.6-1.4-4.88-3.32-6.52-5.8-1.29-1.26-2.06-3.96-4.27-3.6-2.93.04-4.2 3.1-5.77 5.05-.8.03-2.39.08-3.19.11z"/>
    <path fill="#151515" opacity=".08" d="M43.84 95.44c5.1.56 8.14-5.31 13.17-4.63 2.38.31 5.29.14 7.11 1.97.37 1.66.25 3.37.28 5.05 1.32.31 2.64.6 3.97.87-3.79.43-7.59.12-11.38-.07-4.34-.05-8.45-1.76-12.8-1.82-2.01 2.17-3.83 4.71-6.66 5.88-1.23.12-2.28-.94-3.41-1.3.54-3.05 1.36-6.06 1.62-9.16 2.67 1.11 5.26 2.55 8.1 3.21z"/>
    <path fill="#2a2a2a" opacity=".16" d="M74.51 98.48c1.57-1.95 2.84-5.01 5.77-5.05 2.21-.36 2.98 2.34 4.27 3.6-3.4.12-6.75.66-10.04 1.45z"/>
</svg>
