<svg width="128pt" height="128pt" viewBox="0 0 128 128" xmlns="http://www.w3.org/2000/svg">
    <path fill="#bb2b2c" d="M59.55 24.58c3.9-2.74 8.08-5.29 12.98-5.67-4.11 1.46-7.94 5.61-6.89 10.23 3.3 10.84 10.7 19.78 15.07 30.15 1.95 5.8 2.29 11.98 2.97 18.02.77-6.3 3.37-12.16 6.95-17.36-.27 6.14-.05 12.36 1.65 18.3-1.79 3.92-4.39 7.38-6.87 10.88 1.75-1.36 3.52-2.69 5.36-3.93-3.93 8.56-12.04 14.7-20.9 17.49-4.41 1.14-9.21 2.19-13.5.07-7.11-1.97-12.26-7.84-15.71-14.08-3.05-6.27 1.18-12.74.7-19.23 1.11 2.38 2.25 4.81 2.2 7.5.25-5.11 3.63-9.04 6.18-13.18 1.66-2.5.39-5.54.13-8.26 1.33 1.84 2.71 3.67 3.55 5.8.15 4.24-1.54 8.16-3.35 11.9 2.01-1.82 4.02-3.64 5.99-5.51-2.15-10.51-1.33-21.34-.2-31.92l3.16 3.55c-.48-4.92-.22-9.87.53-14.75z"/>
    <path fill="#2a0909" opacity=".46" d="M57.76 35.92c-.28-3.87.12-7.8 1.79-11.34-.75 4.88-1.01 9.83-.53 14.75l-3.16-3.55c-1.13 10.58-1.95 21.41.2 31.92-1.97 1.87-3.98 3.69-5.99 5.51 1.81-3.74 3.5-7.66 3.35-11.9.57-4.32.27-8.67.38-13 .44-4.44 1.08-8.87 1.13-13.34.7.23 2.12.71 2.83.95z"/>
</svg>
