<svg width="128pt" height="128pt" viewBox="0 0 128 128" xmlns="http://www.w3.org/2000/svg">
    <path fill="#fff" d="M12.04 29.33c5.54 6.12 12.59 10.74 20.34 13.58.76 1.4 1.39 2.88 2.33 4.18 1.76 1.78 4.33 2.3 6.46 3.5.2-1.53.3-3.08.68-4.58 5.03-2.24 9.93-4.8 14.66-7.62 2.23-1.51 3.29-4.25 3.22-6.88.93-.04 2.78-.12 3.71-.15.06 9.17-.01 18.34.03 27.51-1.59-.61-2.96.49-4.39.94-3.97 1.7-8.23 2.68-12.09 4.66 2.69 2.74 7.12.79 10.41 2.17.92.81 1.61 1.82 2.39 2.76.07 9.88-.15 19.76.1 29.63-7.38-3.65-14.47-8.62-19.12-15.54-.59-5.24-.52-10.56-.65-15.84-6 .08-11.31-2.75-16.62-5.16 2.36.08 4.73.17 7.09.26-2.87-1.73-5.94-3.4-7.92-6.21-2.4-3.49-5.2-6.68-7.54-10.21 3.18 1.61 6.42 3.1 9.69 4.52-2.67-3.28-4.88-6.9-7.49-10.23-2.65-3.29-3.55-7.53-5.29-11.29z"/>
</svg>
