<svg width="128pt" height="128pt" viewBox="0 0 128 128" xmlns="http://www.w3.org/2000/svg">
    <path fill="#fff" d="M93.46 43.23c7.42-3.69 15.32-7.07 21.06-13.24-1.08 2.5-1.75 5.17-3.07 7.57-3.22 4.55-7.11 8.73-10.01 13.45 3.03-2.55 7.04-3.16 10.52-4.87-3.28 5.54-8.23 9.71-12.18 14.73-.8.61-1.65 1.17-2.53 1.65 1.35.21 2.7.45 4.05.72-4.86 2.28-9.6 5.22-15.11 5.5 0 3.75-.34 7.5-.07 11.25.49 3.6-2.29 6.29-4.22 8.96-3.78 5.12-9.86 7.58-15.15 10.74-.08-9.93-.05-19.86-.02-29.78.76-1.09 1.5-2.19 2.22-3.3 3.47-.23 6.95-.12 10.41-.34.23-.44.67-1.32.89-1.76-5.67-1.78-11.07-4.29-16.78-5.95.17-9.11 0-18.22.09-27.32.81 0 2.44-.01 3.26-.01.22 1.65-.58 3.82 1.12 4.9 4.7 3.55 10.12 6.14 15.75 7.85.08 1.71.15 3.42.22 5.14.49.35 1.47 1.07 1.95 1.43 2.08-.87 4.18-1.7 6.27-2.54.43-1.6.88-3.19 1.33-4.78z"/>
</svg>
