<svg width="128pt" height="128pt" viewBox="0 0 128 128" xmlns="http://www.w3.org/2000/svg">
    <path fill="#fff" d="M38.64 31.48c3.79-3.84 8.28-7.19 13.34-9.13 4.17.29 8.34.41 12.52.36.01 12.1-.02 24.21.02 36.31.01 1.49-.13 2.96-.44 4.41-.9-1.59-1.6-3.26-1.66-5.11-1.27 4.46-2.75 8.84-4.22 13.24 1.55 2.07 3.06 4.18 4.52 6.32.65-1.58 1.3-3.16 1.9-4.75-.36 5.77.17 11.57-.29 17.33-2.75.74-2.02-2.72-2.46-4.26-.62.04-1.84.13-2.46.17.11 1.34.31 2.67.43 4.02h-4.53c-.19-1.22-.39-2.43-.59-3.64-2.43 1.36-1.78 4.87-2.72 7.16-1.45 4.4-.69 8.94-.06 13.4-3.04-4.25-4.52-9.37-6.4-14.19-.09-4.57 1.15-9.1 1.46-13.67-1.33-.82-2.43-2.18-4.05-2.4-3.01.89-5.71 2.54-8.51 3.91-1.33-2.37-2.21-5.34-4.94-6.5 1.39-2.31 3.13-4.4 4.49-6.73.26-4.26.71-8.5 1.3-12.72.67-3.36-1.84-6.48-.92-9.83.93-4.67 1.85-9.54 4.27-13.7m2.79 21.71c-1.19 3.84-1.54 7.86-2.11 11.82 1.86 2.55 4.23 4.67 6.94 6.29 3.88-1.07 8.02-2.4 10.76-5.52 2.1-4.16 1.43-8.97-.42-13.08-2.49-.5-4.83-1.51-6.95-2.91-2.92.65-5.72 1.75-8.22 3.4z"/>
</svg>
