<svg width="128pt" height="128pt" viewBox="0 0 128 128" xmlns="http://www.w3.org/2000/svg">
    <path fill="#fff" d="M64.63 22.76c5.05.11 9.97-1.11 14.97-1.62 5.58 4.38 9.94 10.32 12.21 17.05-.3 9.71 1.37 19.27 3.14 28.77 1.73 1.85 3.31 3.84 5.12 5.61-1.28.91-2.59 1.79-3.74 2.87-.96 1.77-1.03 3.88-1.62 5.78-2.76-1.41-5.51-2.81-8.35-4.03-1.42.67-2.85 1.32-4.28 1.96.28 6.2 1.68 12.39 1.11 18.61-1.74 3.64-3.92 7.1-6.72 10.03l1.74.14c-.63.23-1.27.43-1.91.6.17-2.23 1.63-4.24 1.35-6.54-.39-4.8-1.16-9.57-2.32-14.24l-1.58-.88c-.04.95-.11 2.85-.15 3.8-1.62-.04-3.25-.08-4.88-.13.07-1.4.14-2.8.2-4.2-.64-.05-1.94-.14-2.59-.18-.36 1.61.91 4.32-1.62 4.65-.14-6.21-.12-12.42-.03-18.63.77 1.63 1.48 3.3 2.23 4.94 1.22-1.63 2.43-3.28 3.62-4.94-1.7-4.03-2.96-8.23-3.92-12.5l-.18-.75-1.86 1.27c.13-12.48.03-24.96.06-37.44m7.91 29.14c-3.09 4.29-3.24 10.37-.35 14.79 2.75 1.66 5.66 3.24 8.76 4.12 3.06-.94 6.72-1.91 8.55-4.73.13-4.41-.59-8.86-2.29-12.94-2.67-1.18-5.36-2.36-8.17-3.16-2.11.82-4.29 1.45-6.5 1.92z"/>
    <path fill="#919191" opacity=".57" d="M64.57 60.2l1.86-1.27.18.75c-.42.68-1.27 2.04-1.69 2.72-.09-.55-.26-1.65-.35-2.2z"/>
</svg>
