<svg width="128pt" height="128pt" viewBox="0 0 128 128" xmlns="http://www.w3.org/2000/svg">
    <path fill="#b8292c" d="M13.5 20.77c2.01-2.15 4.09-4.23 6.25-6.24 1.33.17 2.65.36 3.98.56-.01 2.34 0 4.72.93 6.92-1.46 1.16-3.01 2.2-4.7 2.99-1.94.05-4.79 1.05-6.09-.92-.09-.83-.28-2.48-.37-3.31z"/>
    <g fill="#c62d31">
        <path d="M24.66 22.01l.55-.43c3.29 1.69 6.68 3.33 9.35 5.95 5.07 4.67 10.22 9.27 14.94 14.29 1.74-.18 3.91.42 5.23-1.05 3.25-3.46 7.14-6.37 9.43-10.61 2.73-.38 5.04 2.83 4.48 5.41-3.91 1.72-7 4.72-10.14 7.53 1.62 4.15 3.86 8.19 7.48 10.92 2.46-2.5 4.97-4.97 7.48-7.42 2.25 2.37 4.57 4.69 6.93 6.96-2.09 2.79-5.61 4.89-7.1 7.84 8.6 8.83 17.41 17.47 26.12 26.19 4.16 3.79 6.99 8.89 8.97 14.08-.22 2.02-.48 4.03-.75 6.04-3.87.21-7.75.16-11.58-.32-3.42-1.47-6.48-3.69-9.05-6.38-8.72-8.72-17.44-17.46-26.06-26.28-.76-1.21-1.38-1.15-1.88.21-3.14 3.11-5.98 6.7-9.64 9.2-2.84.75-5.69.19-7.33-2.42 2.95-2.56 7.99-5.13 6.09-9.84 1.61-1.66 3.24-3.3 4.85-4.95-3.16-3.03-6.97-7-11.66-6.61-2.78 2.74-5.2 5.89-6.88 9.43-2.51.69-4.07-1.56-5.76-2.97.21-.52.63-1.55.85-2.06 3.82-1.66 6.24-5.2 9.24-7.93 2.2-1.6 2.9-5.47.73-7.35C32.39 41.86 23.91 34.95 19.96 25c1.69-.79 3.24-1.83 4.7-2.99zM98.55 21.25l.19.96c.19 1.1.86 1.75 2.03 1.96 2.06.86 3.29 2.91 4.79 4.47-1.64 1.59-3.27 3.2-4.95 4.76.98-.01 2.93-.02 3.91-.02 1.42 1.53 2.72 3.24 4.47 4.42 1.29-.67 2.58-3.61 4.07-1.89 2.93 2.95 5.95 5.82 8.75 8.89-2.23 2.12-4.3 4.42-6.7 6.37-1.23-1.3-2.47-2.58-3.72-3.85.89-.83 1.77-1.66 2.66-2.49-1.1-1.29-2.21-2.58-3.35-3.84-1.41 1.12-2.74 2.33-3.97 3.64-2.08-1.76-3.74-3.98-6.05-5.47-.5-1.13-.98-2.27-1.46-3.42l-2.96-.66-1.92-3.27c-1.87.79-3.33 2.21-4.57 3.79.55.41 1.09.81 1.63 1.21.27 1.66.57 3.31.76 4.98-2.48 2.91-5.39 5.43-8.09 8.12-2.32-2.35-4.71-4.63-6.98-7.02 7.14-7.22 14.51-14.23 21.46-21.64z"/>
    </g>
    <path fill="#771c1a" opacity=".81" d="M98.74 22.21c1.62-.3 2.3.35 2.03 1.96-1.17-.21-1.84-.86-2.03-1.96z"/>
    <path fill="#dc3134" d="M89.77 35.6c1.24-1.58 2.7-3 4.57-3.79l1.92 3.27 2.96.66c.48 1.15.96 2.29 1.46 3.42l-1.13.92c-1.66.23-3.32.44-4.98.58.28 1.08.55 2.17.83 3.26-.8.06-2.38.17-3.17.23-.02-.59-.05-1.77-.07-2.36-.19-1.67-.49-3.32-.76-4.98-.54-.4-1.08-.8-1.63-1.21z"/>
    <g fill="#c82f2e">
        <path d="M94.57 40.66c1.66-.14 3.32-.35 4.98-.58-.38.47-1.13 1.41-1.51 1.89 1.82 1.89 3.65 3.78 5.59 5.56-1.17 1.4-2.68 2.58-3.5 4.23-.08 2.29 1.24 5.02-.61 6.93-1.86-1.86-3.74-3.71-5.55-5.62.99-1.05 2.01-2.07 2.99-3.13-1.6-1.88-4.24-3.23-4.73-5.79.79-.06 2.37-.17 3.17-.23-.28-1.09-.55-2.18-.83-3.26zM74.47 44.78c.56-.16 1.66-.47 2.21-.63 1.84 2.12 3.98 3.94 5.94 5.95-.05.52-.16 1.57-.21 2.09l-1.36.51c-2.25-2.48-6.12-4.37-6.58-7.92z"/>
    </g>
    <path fill="#bd2c31" d="M100.13 51.76c1.22 1.16 2.5 2.24 3.82 3.28.71-.86 1.42-1.72 2.13-2.59 1.31 1.25 3.46 2.28 3.78 4.17-1.89 2.2-4.11 4.08-6.08 6.19-1.45-1.34-2.88-2.71-4.26-4.12 1.85-1.91.53-4.64.61-6.93z"/>
    <path fill="#bd2c2c" d="M42.2 77.72c2.01-1.93 3.97-3.91 5.98-5.84 1.9 4.71-3.14 7.28-6.09 9.84 1.64 2.61 4.49 3.17 7.33 2.42 2.57 6.15 3.59 13.43.16 19.49-4.97 9.88-19.16 13.5-28 6.69l-.36-.63c-.36-1.05-1.08-1.69-2.15-1.92-1.68-.43-2.32-2.29-3.23-3.58-4.61-7.46-3.01-17.97 3.54-23.78 5.93-5.83 15.67-6.73 22.82-2.69m-13.94 5.77c-3.45 1.51-6.28 4.65-7.04 8.39-1.62 5.99 2.73 12.62 8.71 13.91 7.21 2.13 14.97-4.38 14.49-11.79.02-7.81-9-13.81-16.16-10.51z"/>
    <path fill="#440f12" opacity=".65" d="M59.06 74.94c.5-1.36 1.12-1.42 1.88-.21-.47.05-1.41.16-1.88.21z"/>
    <path fill="#b52829" d="M108.38 101.67c1.1 2.66 2.08 5.38 2.8 8.18.06.67.2 2.02.27 2.7-2.26-.54-4.53-1.05-6.79-1.58-3-.85-5.91-2.02-8.61-3.58 3.83.48 7.71.53 11.58.32.27-2.01.53-4.02.75-6.04z"/>
    <path fill="#7c1d1c" opacity=".83" d="M19.07 107.77c1.07.23 1.79.87 2.15 1.92-1.67.38-2.39-.26-2.15-1.92z"/>
    <path fill="#380c0d" opacity=".56" d="M111.18 109.85c.43 1.12.84 2.26 1.22 3.41-2.67-.39-5.49-.65-7.74-2.29 2.26.53 4.53 1.04 6.79 1.58-.07-.68-.21-2.03-.27-2.7z"/>
</svg>
