<svg width="128pt" height="128pt" viewBox="0 0 128 128" xmlns="http://www.w3.org/2000/svg">
    <path fill="#fff" d="M13.62 20.85c1.95-2.06 3.86-4.15 5.94-6.07 1.26.37 4.08-.71 4.18 1.31.13 1.59.03 3.19.01 4.78 9.22 3.94 15.94 11.52 22.97 18.37 1.74 2.69 5.53 3.79 8.12 1.69 3.02-3.49 7.17-6.12 8.97-10.52l2.1-.32c.92 1.12 1.84 2.22 2.79 3.31-.03.52-.11 1.54-.15 2.06-3.8 1.93-7.03 4.74-10.19 7.57 2.7 8.43 10.37 13.33 15.91 19.7 8.92 9.09 18.24 17.78 27.09 26.94 5.59 6.59 8.4 15.01 10.55 23.26-8.14-1.95-16.32-4.76-22.93-10.06-11.73-11.53-23.08-23.46-34.9-34.9-3.24-3.82-7.4-6.78-12.11-8.49-2.88 3.13-5.66 6.4-7.61 10.2-.49.02-1.48.07-1.97.1-1.14-.93-2.27-1.85-3.42-2.75-.12-2.98 3.37-3.07 4.83-5.02 2.13-2.32 4.47-4.44 6.58-6.77.52-1.41.38-2.99.55-4.47-7.51-8.14-16.66-15.34-20.96-25.86-1.95-.01-3.91-.03-5.87-.05-.18-1.34-.34-2.67-.48-4.01z"/>
</svg>
