<svg width="128pt" height="128pt" viewBox="0 0 128 128" xmlns="http://www.w3.org/2000/svg">
    <g fill="#fff">
        <path d="M65.91 34.41c3.4-.59 6.82-1.39 10.27-.64 1.2 3.59.97 7.72-.82 11.07 4.49 1.85 9.86 1.19 13.94 3.91 1.4 3.52.34 7.56 1.13 11.26.93 4.73.11 9.51.09 14.29-.15-.81-.44-2.42-.58-3.22-3.37 1.56-6.74 3.15-9.87 5.17-2.26 1.48-4.57 2.89-6.89 4.28-4.83 2.96-10.19 5.59-13.27 10.59 4.07-.56 7.94-2.03 12-2.63 1.7-.03 3.38-.32 5.04-.71.2.88.6 2.65.8 3.54-1.45 4.57-.29 9.47-.46 14.19-4.94 0-9.98.73-14.84-.43-2.26.86-4.54-.11-6.78-.54-.03-.76-.11-2.28-.15-3.04l-1.73-.68c-.14-.32-.4-.96-.54-1.28-2.42 3.79-4.72-.75-6.22-2.58.02-3.59-.1-7.18-.22-10.77 1.46.52 2.91 1.08 4.39 1.54-2.43-2.18-5.26-3.85-7.88-5.79-.71-2.95-.12-5.97.09-8.93.24-5.71.78-11.41 1.5-17.07 2.67-.47 4.06 1.49 3.45 3.96 1.77 2.35 4.77 2.58 7.23 3.76.68-.01 2.03-.01 2.7-.02 1.41.99 2.95 2.01 2.73 4.01.15-.46.47-1.4.63-1.86 1.68-1.33 3.16-2.89 4.68-4.4 4.13-.33 8.38-.18 12.45-.92 1-1.76.18-3.97 0-5.84l.67-.28c-1.24-.16-2.48-.33-3.72-.52-1.63-.3-2.97-1.4-4.41-2.15-.12-.47-.37-1.4-.5-1.86-.32-1.02-.68-2.03-1.07-3.03.64-1.27 1.28-2.54 1.95-3.8l2.69.91c-1.04-.56-2.09-1.09-3.15-1.61-2.23 2.69-2.15 6.04-.78 9.13l-.19.92c-1.42-.01-2.85-.02-4.28-.02-.29-3.51-.26-7.03-.51-10.54-.52 4.06-.07 8.13-.08 12.2-2.97.17-5.94.37-8.89.76-.43-5.64-.28-11.32-1.01-16.93 2.3-2.19 5.72-2.91 8.74-2.82.5 1.83.81 3.7 1.27 5.54.01-2.05.05-4.1.4-6.12M58.7 70.09c-.9.85-1.97 2.27-1.43 3.57 1.56.42 4.05-4.83 1.43-3.57z"/>
        <path d="M77.69 36.26c2.77-.08 5.57-.03 8.31.5.07 3.25.27 6.5.43 9.75-3.28-.32-6.51-.98-9.7-1.75.46-2.82.67-5.67.96-8.5zm-31.07 6.71c2.6-1.11 5.27-2.16 7.55-3.87.21.44.63 1.33.84 1.77.43 5.33.88 10.66.91 16.01l-1.58.42c-1.85.27-3.71.53-5.55.81-.56-2.58-.89-5.19-1.37-7.77-.44-1.36-2.2-1.19-3.26-1.71.22-.47.66-1.4.89-1.87.49.42 1.47 1.24 1.96 1.65-.25-1.81-.41-3.62-.39-5.44z"/>
    </g>
    <path fill="#b5b5b5" opacity=".71" d="M70.82 49.82c.13.46.38 1.39.5 1.86-.01.9-.06 1.79-.16 2.69.76.09 2.28.29 3.04.38-.12 1.7.54 3.7-.87 5.04-.57-1.1-1.13-2.21-1.69-3.32-1.65-.49-3.3-.97-4.95-1.45-.23-.9-.47-1.8-.7-2.7 1.43 0 2.86.01 4.28.02l.19-.92.36-1.6z"/>
    <path fill="#a8a8a8" opacity=".66" d="M56.51 54.74c2.95-.39 5.92-.59 8.89-.76.06 2.34.16 4.68.26 7.01-.95.64-1.89 1.27-2.82 1.91-1.78-.36-4.01.45-5.42-.95-.14-2.42-.39-4.84-.91-7.21z"/>
    <path opacity=".64" d="M75.73 53.83c1.24.19 2.48.36 3.72.52l-.67.28-1.45.6c1.24 1.3 1.49 2.84.74 4.6-.67-.04-2.02-.13-2.7-.17.09-1.95.13-3.89.36-5.83zm-9.04 1.19c1.65.48 3.3.96 4.95 1.45.56 1.11 1.12 2.22 1.69 3.32-2.19.21-4.39.43-6.59.49.01-1.75 0-3.5-.05-5.26zM58.7 70.09c2.62-1.26.13 3.99-1.43 3.57-.54-1.3.53-2.72 1.43-3.57z" fill="#a3a3a3"/>
    <path fill="#9b9b9b" opacity=".61" d="M48.79 58.11c1.84-.28 3.7-.54 5.55-.81l1.02-.07c.35 1.67.73 3.34 1.1 5.02-2.36-1.69-6.8-.87-7.67-4.14z"/>
    <path fill="#e3e3e3" opacity=".89" d="M80.07 76.25c3.13-2.02 6.5-3.61 9.87-5.17.14.8.43 2.41.58 3.22-2.3 1.89-4.71 3.65-7.17 5.33-1.08-1.15-2.18-2.26-3.28-3.38z"/>
    <path opacity=".85" d="M73.18 80.53c2.32-1.39 4.63-2.8 6.89-4.28 1.1 1.12 2.2 2.23 3.28 3.38-3.87 2.69-7.32 6-11.48 8.25-.03-.69-.1-2.08-.13-2.77.9-.81 1.86-1.55 2.73-2.4-.32-.55-.96-1.64-1.29-2.18zM47.03 96.96c1.5 1.83 3.8 6.37 6.22 2.58.14.32.4.96.54 1.28-.17 1.04-.38 2.08-.62 3.11-.57.01-1.7.02-2.27.03-1.1-.51-2.22-1.31-3.5-1.08-.05-1.98-.16-3.95-.37-5.92z" fill="#d8d8d8"/>
    <path fill="#b7b7b7" opacity=".72" d="M59.91 91.12c3.08-5 8.44-7.63 13.27-10.59.33.54.97 1.63 1.29 2.18-.87.85-1.83 1.59-2.73 2.4.03.69.1 2.08.13 2.77l.04.61c-4.06.6-7.93 2.07-12 2.63z"/>
    <path fill="#5a5a5a" opacity=".35" d="M47.4 102.88c1.28-.23 2.4.57 3.5 1.08.02 2.8-5 1.23-3.5-1.08z"/>
</svg>
