<svg width="128pt" height="128pt" viewBox="0 0 128 128" xmlns="http://www.w3.org/2000/svg">
    <path d="M104.25 34.63c4.86 3.18 9.74 6.33 14.68 9.37-3.85 3.5-7.14 7.53-10.22 11.7-1.96 1.52-3.53-1.26-5.01-2.19.76-1.3 1.5-2.62 2.25-3.94 2.48-1.01 4.79-2.37 7.1-3.73-7.36.7-14.72 1.3-22.06 2.09-1.42.41-2.53-.75-3.7-1.31-.01-.61-.02-1.84-.02-2.46 6.19-.81 12.39-1.57 18.62-1.92-.39-2.22-2.4-3.27-4.04-4.48.78-1.06 1.58-2.1 2.4-3.13zM26.42 45.19c1.98-.27 3.96-.52 5.95-.79 2.27 1.73 4.47 3.56 6.63 5.44 2.67-.04 5.33-.01 8 .03v3.62c-11.27 1.31-22.57 2.3-33.82 3.74.03-1.21-.31-2.48.09-3.64.86-.18 2.59-.55 3.46-.74-2.15-1.87-4.28-3.77-6.26-5.82l6.42-.66c2.63 2.09 4.88 4.69 7.87 6.29-1.39-2.77-4.41-4.18-6.34-6.53 2.06-.28 4.12-.52 6.19-.65 2.84 1.93 5.05 5.43 8.66 5.86-2.12-2.23-4.63-4.03-6.85-6.15zm6.69 12.83c1.95-.19 3.9-.38 5.86-.46-1.28 1.97-2.68 3.87-4.13 5.72-2.11.28-4.22.53-6.34.69 1.51-2 3.02-4 4.61-5.95zm-8.58 1.08c2.21-.3 4.43-.52 6.66-.64-1.5 1.9-3.02 3.79-4.47 5.73-2.06.28-4.13.54-6.19.75 1.28-1.98 2.71-3.86 4-5.84zm-8.07 1.19c2.17-1.04 4.68-.7 7-1.11-1.48 2-2.98 3.99-4.51 5.94-2.09.23-4.18.42-6.26.64 1.23-1.84 2.38-3.74 3.77-5.47z" fill="#fff"/>
</svg>
