<svg width="128pt" height="128pt" viewBox="0 0 128 128" xmlns="http://www.w3.org/2000/svg">
    <path fill="#fff" d="M13.34 32.02c-.16-1.3-.57-4.18 1.54-3.87 5.9.01 11.97-.59 17.67 1.32 10.6 3.78 20.3 10.49 26.6 19.93.2-1.76.42-3.52.69-5.28 1.1-1.01 2.25-1.97 3.52-2.77.04 17.87-.03 35.73.04 53.6-3.3-3.3-7.73-4.94-12.11-6.23-2.74 4.41-4.62 9.31-5.9 14.33.76 1.14 1.51 2.27 2.26 3.42-6.44-1.47-10.71-7.68-12.8-13.58-2.61-.45-5.43-1.6-6.41-4.29-1.18-2.45.64-4.9 2.08-6.76-.89-2.43-2.51-5-1.56-7.67 1.26-3.04 4.06-4.97 6.32-7.21-3.96-1.87-8.47-3.5-11.07-7.23-2.08-2.88-1.01-6.67-2.25-9.78-4.31-5.15-6.77-11.56-8.62-17.93m23.03 34.86c3.59 6.25 11.42 8.92 18.13 6.3.64.3 1.91.91 2.55 1.22-.41-4.21-3.21-8.01-7.07-9.72-4.65-1.04-9.38.27-13.61 2.2z"/>
</svg>
