<svg width="128pt" height="128pt" viewBox="0 0 128 128" xmlns="http://www.w3.org/2000/svg">
    <path fill="#3f0e0f" opacity=".52" d="M92.54 30.06c6.36-3.59 14.04-2.01 21.01-2.36 1.42 3.32.27 6.87-1.58 9.76 1.05-2.89 1.41-5.95 1.54-9-7.02-.63-14.17-.47-20.97 1.6z"/>
    <path fill="#bd2c2e" d="M13.34 28.32c6.46-.44 13.09-.94 19.34 1.15 10.59 3.67 20.21 10.45 26.47 19.84-.16-3.06.65-6.51 3.78-7.77 3.95.06 5.04 4.53 4.93 7.71 5.9-8.88 14.85-15.3 24.68-19.19 6.8-2.07 13.95-2.23 20.97-1.6-.13 3.05-.49 6.11-1.54 9-1.76 4.65-3.78 9.32-7.3 12.94-.29 3.61-.05 7.77-2.73 10.59-2.77 2.84-6.56 4.32-10.08 5.99 2.39 2.38 5.61 4.43 6.41 7.93.65 2.32-.76 4.4-1.69 6.4.95 1.89 1.9 3.78 2.83 5.68-1.04 3.19-3.61 5.51-6.98 5.92-2.43 5.88-6.46 11.72-12.77 13.8.6-1.21 1.15-2.43 1.66-3.68-.8-5.04-3.04-9.76-5.58-14.16-4.52 1.08-8.73 3.19-12.33 6.13-3.44-2.89-7.61-5.46-12.15-5.84-2.95 4.1-4.42 9.03-5.8 13.82.66 1.23 1.31 2.47 1.94 3.72-6.42-1.93-10.4-7.96-12.87-13.83-3.36-.43-5.94-2.67-6.94-5.88.92-1.9 1.87-3.8 2.82-5.69-.95-1.95-2.29-4.02-1.73-6.3.65-3.52 4.52-5.09 5.48-8.45-3.61-1.73-7.61-3.35-10.04-6.71-2.46-3.42-.41-8.38-3.46-11.5-3.88-5.9-7.67-12.75-7.32-20.02m23.09 38.47c1.97 2.88 4.52 5.58 7.94 6.64 3.31.91 6.77.37 10.08-.24.85.35 1.69.7 2.54 1.05-.58-4.08-3.22-7.83-7.07-9.43-4.56-1.14-9.25.28-13.49 1.98m33.58 7.32c.86-.29 1.71-.6 2.57-.9 3.31.53 6.75 1.13 10.05.24 2.81-.84 4.84-3.06 6.94-4.96.1-.48.29-1.43.39-1.9-4.06-1.6-8.52-2.91-12.87-1.76-3.83 1.52-6.41 5.29-7.08 9.28z"/>
</svg>
