<svg width="128pt" height="128pt" viewBox="0 0 128 128" xmlns="http://www.w3.org/2000/svg">
    <path fill="#fff" d="M59.29 32.03c.71-5.95-.95-12.65 3.27-17.61.28 3.96.04 7.95.32 11.91.42-.25 1.24-.77 1.66-1.02.35-3.62-.01-7.26.26-10.88 1.18 2.01 2.76 3.99 2.89 6.42.18 11.34 1.4 22.64.99 34-1.32 2.23-2.63 4.63-2.54 7.31-.1 2.58 1.64 4.69 2.95 6.73.71 1.59 2.24 1.73 3.86 1.44-.06-2.47-2.47-3.94-2.83-6.29-.38-1.67-.32-3.38-.28-5.08l1.29-1.01c-3.04-2.51.94-3.66 3.02-4.23.41 2.72.98 5.45.94 8.21-.53 2.9 2.18 5.21 4.75 5.86 3.71.79 7.56.87 11.33.55 2.83 7.83 3.78 16.93-.36 24.49-2.4 5.79-6.72 10.66-12.03 13.94-4.54 2.8-9.91 3.71-15.12 4.33-4.38-.56-8.81-1.34-12.87-3.13-8.54-4.22-14.54-12.65-16.55-21.86-1.31-5.95.19-12 1.87-17.7 5.73.02 14.17 1.28 16.58-5.53-.94-2.95.19-6.01.44-8.97 1.91.15 5.99 1.4 3.27 3.65.41.77 1.23 2.32 1.63 3.09l-.04.42c-.73.57-1.46 1.14-2.17 1.73l.26-1.95c-.89 2.57-1.87 5.37-4.26 6.95-2.22 1.75-5.39 1.66-7.53 3.47-4.61 6.18-3.03 15.53 2.45 20.66 7.13-2.54 9.73-11.07 9.32-17.94-1.21-1.51-2.76-2.69-4.18-3.99 1.07-.95 2.16-1.9 3.2-2.89l-.67 1.73-.37.68c.83.31 2.51.92 3.34 1.23l.72-1.97c.45-1.34.87-2.7 1.31-4.05.39.26 1.18.77 1.57 1.02.54-2.73.49-5.52 0-8.25-.6.08-1.81.24-2.41.33.33-8.6-.1-17.22.72-25.8m11.74 28.91c-.74 3.81 1.65 6.98 4.53 9.12-1.45 1.19-2.89 2.4-4.35 3.56-.1 6.9 1.99 16.36 9.83 18.1 5.24-5.56 6.72-15.07 1.52-21.14-2.33-1.07-5.1-1.22-7.14-2.89-2.24-1.66-3.16-4.37-4.39-6.75M36.06 77.26c1.36.05 2.71.06 4.07.05.73-2.26 1.6-4.47 2.57-6.65-1.58-.01-3.14.08-4.7.28-1 1.98-1.43 4.18-1.94 6.32m48.79-6.52c.8 2.21 1.69 4.4 2.37 6.66 1.37.01 2.75-.02 4.12-.11-.47-2.28-1.06-4.55-2.16-6.61l-4.33.06m-48.81 9.2c.04 2.89.24 5.87 1.67 8.45.74-.35 2.24-1.05 2.99-1.41-.37-2.56-.81-5.11-.91-7.7-1.25.23-2.5.45-3.75.66m51.68-.61c-.16 2.27-.55 4.51-.94 6.75.27 1.55 2.09 1.58 3.22 2.1 1.03-2.65 1.49-5.47 1.24-8.31-.88-.14-2.64-.41-3.52-.54M38.45 90.8c1.51 1.92 3.04 3.83 4.54 5.76.89-.95 1.77-1.92 2.64-2.89-1.35-1.71-2.65-3.45-3.8-5.3-1.15.77-2.28 1.59-3.38 2.43m43.29 2.75c.86 1 1.72 1.99 2.58 3 1.71-1.99 3.57-3.93 4.5-6.43-1.17-.5-2.34-1.01-3.51-1.51-1.02 1.76-2.26 3.38-3.57 4.94m-35.68 3.2c.04.69.13 2.07.18 2.76 2.45 1.85 5.09 3.44 7.97 4.55.28-.81.86-2.42 1.15-3.22-3.49-.6-5.61-4.7-9.3-4.09m26.01 4.21c.39 1.04.78 2.08 1.17 3.13 2.42-1.07 4.88-2.16 6.92-3.87 2-.94 1.4-2.95-.07-4.08-2.63 1.68-5.1 3.65-8.02 4.82m-12.45 1.58c-.32 1.15-.66 2.3-1.01 3.45 3.18.94 6.67 1.38 9.82.05l-.44-3.55c-2.78.35-5.59.35-8.37.05z"/>
    <path fill="#e6e6e6" opacity=".9" d="M66.14 62.16c-.09-2.68 1.22-5.08 2.54-7.31.64 4.66.49 9.35.41 14.04-1.31-2.04-3.05-4.15-2.95-6.73z"/>
    <path fill="#ececec" opacity=".93" d="M58.57 57.83c.6-.09 1.81-.25 2.41-.33.49 2.73.54 5.52 0 8.25-.39-.25-1.18-.76-1.57-1.02-.44 1.35-.86 2.71-1.31 4.05.2-2.34.36-4.69.49-7.04-1.2 2.47-2.38 4.99-4.18 7.1l.67-1.73c.5-1.18 1.01-2.36 1.5-3.55 1.04-1.14 2-2.36 2.92-3.6l-1.51 1.11.04-.42c.14-.7.41-2.12.54-2.82z"/>
    <path fill="#0e0e0e" opacity=".05" d="M54.41 68.84c1.8-2.11 2.98-4.63 4.18-7.1-.13 2.35-.29 4.7-.49 7.04l-.72 1.97c-.83-.31-2.51-.92-3.34-1.23l.37-.68z"/>
</svg>
