<svg width="128pt" height="128pt" viewBox="0 0 128 128" xmlns="http://www.w3.org/2000/svg">
    <path fill="#fefefe" d="M83.91 75.96c2.99-4.54 4.34-9.87 6.22-14.91-.28 7.65-2.83 15.39-7.83 21.29-4.18 6.54-11.16 10.27-17.35 14.59.87 1.4 1.89 2.7 2.71 4.13-4.93 1.59-9.54 3.95-14.1 6.38-.99-1.58-2.41-2.79-3.79-4.01-3.91 3.29-7.35 7.26-9.61 11.87.73-5.33 3.77-9.8 7.26-13.72-2.04-3.48-5.62-5.55-8.63-8.08 4.55-.36 8.31 2.69 12.28 4.43 2.7-.71 4.94-2.77 7.51-3.92-.92-1.99-2.28-3.82-2.67-6.02 2.57.41 3.85 2.93 5.65 4.52 8.71-3.43 16.68-9.04 22.35-16.55M57.88 98.83c-.66.29-1.98.88-2.64 1.17.81.54 1.63 1.05 2.47 1.52 1.06-.75 2.41-1.41 2.22-2.93l-2.05.24z"/>
</svg>
