<svg width="128pt" height="128pt" viewBox="0 0 128 128" xmlns="http://www.w3.org/2000/svg">
    <path fill="#f2f2f2" opacity=".95" d="M53.71 21.05c3.67-2.54 7.63-5.41 12.32-5.24 2.29.14 4.77-.6 6.92.42-5.43 1.38-11.07 2.44-15.46 6.21-1.26-.46-2.52-.93-3.78-1.39z"/>
    <path fill="#fff" d="M61.39 22.51c4.26-3.11 9.47-3.81 14.59-3.88 5.12.75 9.47 3.85 13.74 6.56 2.28 1.23 3.5 3.59 4.86 5.68-2.22-1.43-3.96-3.85-6.72-4.24-6.19-.95-12.9-.73-18.61 2.11 8.43.61 15.25 7.76 17.51 15.6 2.8 7.38 1.05 15.48-1.8 22.55-4.6 9.95-13.29 18.62-24.17 21.16 2.01-1.8 4.82-2.31 6.8-4.16 2.38-2.19 4.27-4.91 5.67-7.82l-2.91-.28c-4.57 8.06-13.28 12.98-21.99 15.34 6.79-4.68 15.05-8.11 19.44-15.56-.98-.04-2.95-.11-3.93-.15 1.8-.82 3.73-1.33 5.51-2.18.87-2.11.95-4.44 1.25-6.67-4.68.08-8.94 1.99-13.28 3.46 2.73-4.53 8.39-4.62 12.56-7.06-.39-1.93-.53-3.89-.45-5.85 1.2-1.34 2.63-2.72 2.63-4.66 1.77-.99 3.59-1.87 5.44-2.69-.66-2.25-1.32-4.5-2.03-6.73-1.29.5-2.58 1.02-3.84 1.6-2.66-.41-5.35-.76-8.05-.77l-1.67-.01c-.17-1.66-.3-3.32-.58-4.96l-1.22-1.16c.72-1.07 1.44-2.14 2.14-3.22-1.98.14-3.93.61-5.78 1.32.07-.97.14-1.93.22-2.9 3.67-1.78 6.8-6.42 4.67-10.43m2.34 16.53c1.04 1.02 2.07 2.04 3.09 3.08 1.67-.89 3.17-2.06 4.63-3.26-1.46-.87-2.92-1.76-4.36-2.67-1.13.94-2.25 1.88-3.36 2.85m8.78 15.28c.39 2.23.65 4.49.85 6.75 1.67-.35 3.32-.73 4.97-1.13-.07-2.1-.17-4.2-.25-6.31-1.88.03-3.75.21-5.57.69m-.87 18.1c1.43-.34 2.85-.66 4.28-.96.63-2 1.21-4.02 1.8-6.04-1.11.12-3.32.34-4.43.45-.63 2.17-1.07 4.38-1.65 6.55z"/>
    <g fill="#d0d0d0">
        <path opacity=".82" d="M48.89 26.19c.94-2.27 2.85-3.81 4.82-5.14 1.26.46 2.52.93 3.78 1.39-3.26 2.48-6.59 5.11-8.11 9.06-2.34 5.48-2 11.62-1.5 17.43-3.65-7.09-3.03-15.94 1.01-22.74z"/>
        <path opacity=".82" d="M52.86 29.35c1.2-1.99 3.1-3.35 4.96-4.68v3.77c-1.65.31-3.31.61-4.96.91zm8.5 9.55c.28 1.64.41 3.3.58 4.96-.51-.32-1.53-.97-2.04-1.29-1.22 1.61-2.42 3.24-3.73 4.79.6-2.09 1.3-4.15 2.02-6.2l-1.18-.37.47-.2c1.29-.56 2.58-1.12 3.88-1.69z"/>
    </g>
    <path fill="#eee" opacity=".93" d="M57.82 24.67c1.2-.7 2.39-1.43 3.57-2.16 2.13 4.01-1 8.65-4.67 10.43-.08.97-.15 1.93-.22 2.9-.15.08-.45.25-.6.33 1.42.5 2.84 1 4.24 1.57l1.22 1.16c-1.3.57-2.59 1.13-3.88 1.69-1.52-.49-3.04-.97-4.55-1.46-1.69 3.58-3.12 7.33-3.53 11.28.41-4.52-1.84-8.96-.5-13.42.67-2.79 2.26-5.21 3.76-7.6l.2-.04c1.65-.3 3.31-.6 4.96-.91v-3.77z"/>
    <path fill="#efefef" opacity=".94" d="M63.61 43.87c2.7.01 5.39.36 8.05.77-.47.24-1.43.73-1.91.97 1 2.2 1.79 4.49 2.34 6.85 0 1.94-1.43 3.32-2.63 4.66-.12-.34-.37-1-.49-1.34-3.59 1.95-7.07 4.07-10.08 6.86 2.78-3.42 5.51-7.26 9.87-8.76-.84-2.04-1.78-4.03-2.76-6.01-4.56 2.46-8.14 6.26-10.77 10.67 1.18-3.83 2.66-7.8 5.57-10.67 1.17-1.16 2.15-2.49 2.81-4z"/>
</svg>
