<svg width="128pt" height="128pt" viewBox="0 0 128 128" xmlns="http://www.w3.org/2000/svg">
    <path fill="#b22929" d="M42.42 16.87c2.99-.12 5.62-1.67 8.5-2.23 3.15.21 6.92.82 8.73 3.75 1.58 2.08 2.64 4.48 3.7 6.85 2.4-3.55 3.72-8.83 8.46-9.87 5.03-1.91 10.06 1.08 14.57 3.09-1.19 1.43-2.26 2.96-3.18 4.57.61.28 1.85.84 2.47 1.12-.29.55-.87 1.65-1.15 2.2-2.67-1.26-5.68-.94-8.33.2-1.02-3.07.25-6.23.59-9.31-3.24 5.81-3.92 13.14-1.66 19.38 1.1 2.52 2.56 4.87 4.25 7.03-2.15 2.44-4.26 4.98-5.51 8.02-2.75 5.14-2.3 11.02-2.27 16.64-2.81-1-4.89-3.12-6.7-5.4 1.22-1.39 3.01-2.39 3.8-4.09.64-3.21.47-6.51.55-9.77 2.33-2.59 4.17-5.63 4.81-9.09-2.14 1.95-3.74 4.37-5.24 6.83-.1 3.99.48 8.19-.96 12-2.6 2.07-6.11 1.22-9.01.38-1.38-5.31.94-11.63-3-16.09-.86-1.14-1.9-2.12-2.93-3.09.76 3.41 2.47 6.49 4.84 9.05.2 4.39-.85 10.05 3.56 12.81l.87.79c-1.71 2.47-3.76 4.87-6.83 5.55-.05-4.79.49-9.76-1.36-14.31-1.26-3.97-3.82-7.26-6.38-10.47 2.21-2.28 3.73-5.14 4.68-8.15.41-1.76.67-3.54.85-5.33 1.96 1.5 1.99-2.35.01-.86.13-4.09-.98-8.07-2.84-11.69.34 2.9.8 5.78 1.24 8.66l-1.89-.19c-2.96-.54-5.94-.21-8.72.92-.45-.13-1.36-.38-1.82-.51 1.99-2 4.78-4.59 2.41-7.43l1.85.73c-.19-.53-.57-1.6-.76-2.14l-.2-.55m16.77 14.75c2.78-1.57 5.9-1.57 8.69-.01-1.9-3.06-6.86-3.16-8.69.01z"/>
    <path fill="#6a191a" opacity=".81" d="M42.12 16.27c.13.29.38.87.5 1.15.19.54.57 1.61.76 2.14l-1.85-.73c2.37 2.84-.42 5.43-2.41 7.43.46.13 1.37.38 1.82.51-1.5 1.82-2.94 3.86-2.44 6.35-.23-.35-.69-1.05-.92-1.41 1.13-.75.2-4.01-.88-2 .03.45.1 1.33.13 1.77.46 1.65.42 3.67 1.85 4.88 2.27 2.24 5.7 1.53 8.54 1.32-2.62 1.94-6.66 2.7-9.3.39-4.67-3.94-4.39-11.53-.97-16.16 1.43-2.18 4.5-2.99 5.17-5.64z"/>
    <path fill="#44100f" opacity=".63" d="M50.31 17.38c1.86 3.62 2.97 7.6 2.84 11.69l-.01.86c-.18 1.79-.44 3.57-.85 5.33.11-2.59.12-5.18.11-7.77-.69-.41-2.05-1.23-2.74-1.64l1.89.19c-.44-2.88-.9-5.76-1.24-8.66z"/>
    <path fill="#410f0f" opacity=".64" d="M75.12 36.62c-2.26-6.24-1.58-13.57 1.66-19.38-.34 3.08-1.61 6.24-.59 9.31-.55.39-1.11.78-1.67 1.17.14 2.97.45 5.93.6 8.9z"/>
    <path opacity=".83" d="M86.38 18.46c6.46 3.87 8.79 14.37 2.67 19.51-1.61 1.76-4.07 1.53-6.2 1.16 2.27-1.43 5.49-2.07 6.46-4.91.87-1.5 1.48-3.54.49-5.14-1.59.61-.74 3.22-.64 4.55l-.2-.73c-.42-1.74-.93-3.48-1.74-5.09-.91-.47-1.81-.96-2.7-1.46.28-.55.86-1.65 1.15-2.2-.62-.28-1.86-.84-2.47-1.12.92-1.61 1.99-3.14 3.18-4.57zM53.14 60.74c1.42 5.01.23 10.2.51 15.31.01 11.65-.17 23.3.05 34.95-.03 3.67.3 7.39-.55 11-.4-2.46-.64-4.95-.79-7.43l-.04-1.18c1.4-17.51.26-35.1.82-52.65zm20.2 58.75c.43-16.27-.01-32.55.25-48.83 1.45 12.69-.95 25.61 1.35 38.19.03.6.09 1.8.11 2.39-.61 3.58-.32 7.31-1.44 10.79-.07-.64-.2-1.91-.27-2.54zM47.2 73.64c1.83 6.36.11 12.99 1.41 19.4.42-4.11.58-8.24.69-12.37.76 5.44.79 11-.34 16.39l-.33 1.59c-1.53-7.65-1.16-15.5-1.56-23.24l.13-1.77z" fill="#6a191a"/>
    <path opacity=".98" d="M42.81 29.44c1.75-.82 3.57-1.44 5.41-2 .85 1.18 2.25 2.18 2.37 3.74.43 2.4-1.22 4.39-2.27 6.38l-1.1.12c-2.84.21-6.27.92-8.54-1.32-1.43-1.21-1.39-3.23-1.85-4.88l.75.23c.23.36.69 1.06.92 1.41.38.56 1.13 1.68 1.51 2.24 3.81 2.68 8.56-1.66 8.07-5.75-1.75-.09-3.51-.16-5.27-.17zm1.7 21.65c4.03 2 6.74 5.67 8.63 9.65-.56 17.55.58 35.14-.82 52.65-.29-6.12-.47-12.25-1.01-18.36-.79-10.87.83-21.87-1.14-32.65l-.07-.7c.08-1.01-.2-1.91-.86-2.68-1.51-2.68-2.93-5.41-4.73-7.91zm29.25 9.56c2.05-3.82 4.65-7.55 8.68-9.49-1.79 2.45-3.15 5.15-4.64 7.78-.67.78-.97 1.68-.89 2.71l-.08.8c-1.58 8.11-.79 16.38-.95 24.57.12 7.29-.86 14.55-.94 21.83-2.3-12.58.1-25.5-1.35-38.19-.27-3.33-.16-6.68.17-10.01zm14.56-1.49c.32.08.96.24 1.28.33 1.77 2.45 3.73 4.8 5.11 7.5-1.71-1.39-3.46-2.74-5.35-3.89-.91-.6-1.82-1.19-2.73-1.78.42-.54 1.27-1.62 1.69-2.16zm-45.8 8.27c.44-.21 1.33-.64 1.77-.85.28 1.55-.2 2.73-1.44 3.55-2.2 1.09-4.45 2.06-6.68 3.09 2.04-2 3.79-4.43 6.35-5.79zm40.11-1.25c.33.2.98.6 1.31.81.92.6 1.82 1.25 2.68 1.94.7.54 2.09 1.62 2.78 2.16-.48.41-.97.81-1.47 1.21-.67-.41-2-1.25-2.67-1.66-2.23-.67-3.64-1.93-2.63-4.46z" fill="#a52728"/>
    <path fill="#aa2728" d="M78.6 37.21c-2.5-2.84-3.19-7.3.22-9.76 2.42.46 4.56 1.58 6.06 3.55-1.61-.98-3.31-2.06-5.29-1.4-1.7 3.25 2.02 5.48 4.34 6.98 2.08-.64 3.75-1.94 5.03-3.68l.2.73.15.59c-.97 2.84-4.19 3.48-6.46 4.91-1.4-.67-2.81-1.34-4.25-1.92z"/>
    <path fill="#e73839" d="M36.7 29.71c1.08-2.01 2.01 1.25.88 2l-.75-.23c-.03-.44-.1-1.32-.13-1.77z"/>
    <path fill="#f73c39" d="M53.15 29.07c1.98-1.49 1.95 2.36-.01.86l.01-.86z"/>
    <path opacity=".23" d="M59.19 31.62c1.83-3.17 6.79-3.07 8.69-.01-2.79-1.56-5.91-1.56-8.69.01zm-9.02 30.76c1.97 10.78.35 21.78 1.14 32.65.54 6.11.72 12.24 1.01 18.36l.04 1.18c-2.76-5.46.68-12.68-3.4-17.51 1.13-5.39 1.1-10.95.34-16.39-.15-3.44-.23-6.89-.33-10.33-.02-2.7.59-5.35 1.2-7.96z" fill="#010000"/>
    <path fill="#b72a2e" d="M89.16 33.63c-.1-1.33-.95-3.94.64-4.55.99 1.6.38 3.64-.49 5.14l-.15-.59z"/>
    <path fill="#0a0202" opacity=".25" d="M41.47 30.86c.34-.35 1.01-1.07 1.34-1.42 1.76.01 3.52.08 5.27.17.49 4.09-4.26 8.43-8.07 5.75 3.57.77 5.99-1.78 7.47-4.68-2 .07-4.01.15-6.01.18z"/>
    <path opacity=".16" d="M52.91 39.99c1.03.97 2.07 1.95 2.93 3.09 3.94 4.46 1.62 10.78 3 16.09 2.9.84 6.41 1.69 9.01-.38 1.44-3.81.86-8.01.96-12 1.5-2.46 3.1-4.88 5.24-6.83-.64 3.46-2.48 6.5-4.81 9.09-.08 3.26.09 6.56-.55 9.77-.79 1.7-2.58 2.7-3.8 4.09 1.81 2.28 3.89 4.4 6.7 5.4-.03-5.62-.48-11.5 2.27-16.64-.42 2.98-.6 6-.1 8.98-.33 3.33-.44 6.68-.17 10.01-.26 16.28.18 32.56-.25 48.83-1.67-2.52-.69-5.67-.88-8.49.4-10.99-.44-21.97-.42-32.96-.23-2.78 1.44-6.22-.82-8.45-1.04 1.64-2.08 3.28-3.24 4.84-.01-.64-.02-1.92-.02-2.56.51-1.27 1.47-2.27 2.27-3.36-2.52-1.77-4.63-4.06-7.18-5.78-.44-.22-1.31-.66-1.74-.88-4.41-2.76-3.36-8.42-3.56-12.81-2.37-2.56-4.08-5.64-4.84-9.05z"/>
    <path fill="#260909" opacity=".45" d="M31.16 51.58c4.22-1.56 8.81-2.09 13.29-1.62-.49.6-.99 1.2-1.48 1.81-3.73-1.89-7.89-.4-11.81-.19z"/>
    <path fill="#240809" opacity=".45" d="M82.61 50.39c4.32-1.47 9.04-.22 13.23 1.19-3.92-.29-7.86-1.23-11.79-.52l-.64.09-.8-.76z"/>
    <g fill="#ad2829">
        <path d="M31.16 51.58c3.92-.21 8.08-1.7 11.81.19-1.37.43-2.75.83-4.14 1.19 3.1 1.81 5.97 4.23 7.9 7.28 1.42 3.17 1.96 6.67 2.24 10.1.1 3.44.18 6.89.33 10.33-.11 4.13-.27 8.26-.69 12.37-1.3-6.41.42-13.04-1.41-19.4-.77-4.4-1.79-8.88-4.18-12.72-3.25-3.87-7.26-7.21-11.86-9.34zm52.89-.52c3.93-.71 7.87.23 11.79.52l-2.8 1.24c-1.25.42-2.29 1.25-3.15 2.23-.54.52-1.09 1.02-1.65 1.51-3.39 2.43-5.67 6.05-6.63 10.1-3.46 10.18-1.13 21.12-3.48 31.49-1.59-9.21-.17-18.53-.15-27.79.18-3.34 1.2-6.54 1.81-9.8l.52-.31c.91-.52 1.54-1.29 1.87-2.33 1.02-2.14 4.55-2.78 4.59-5.24-.68-.4-2.04-1.21-2.72-1.62z"/>
        <path d="M37.54 59.05c1.53.17 2.19 1.33 2.59 2.68-2.88 1.34-5.46 3.21-7.84 5.31 1.39-2.9 3.66-5.22 5.25-7.99zm25.51 3.68c2.55 1.72 4.66 4.01 7.18 5.78-.8 1.09-1.76 2.09-2.27 3.36-.49 1.3-.75 2.67-1.18 3.99-.48 1.44-.97 2.88-1.5 4.3-.3-2.05-.54-4.12-.75-6.19-.03 2.27-.26 4.6-1.35 6.63-.28-2.23-.5-4.46-.69-6.7-.22 2.06-.45 4.13-.7 6.19-.53-1.39-1.06-2.77-1.53-4.18-.78-2.71-1.46-5.61-3.8-7.44 2.64-1.35 4.75-3.44 6.59-5.74z"/>
    </g>
    <path fill="#220808" opacity=".44" d="M89.89 55.05c.86-.98 1.9-1.81 3.15-2.23.66 1.59-1.86 3.2-3.15 2.23z"/>
    <path fill="#010000" opacity=".16" d="M81.61 66.66c.96-4.05 3.24-7.67 6.63-10.1l.08 2.6c-.42.54-1.27 1.62-1.69 2.16.91.59 1.82 1.18 2.73 1.78-1.7-.19-3.22-.95-4.63-1.86-.89 1.81-1.3 3.76-.79 5.75-.33-.21-.98-.61-1.31-.81-1.01 2.53.4 3.79 2.63 4.46-1.24.21-2.41.58-3.53 1.1-2.23 8.35-.2 17.23-2.41 25.6-.42 1.72-1.85 2.86-3 4.09-.26 3.28-.04 6.69-1.27 9.81-.02-.59-.08-1.79-.11-2.39.08-7.28 1.06-14.54.94-21.83.16-8.19-.63-16.46.95-24.57.65 2.59 1.25 5.22 1.15 7.91-.02 9.26-1.44 18.58.15 27.79 2.35-10.37.02-21.31 3.48-31.49z"/>
    <path fill="#1d0707" opacity=".4" d="M80.31 60.25c-.52-1.72.11-2.5 1.87-2.33-.33 1.04-.96 1.81-1.87 2.33z"/>
    <path fill="#2d0a0a" opacity=".53" d="M49.24 59c.66.77.94 1.67.86 2.68-1.74-.35-2.03-1.24-.86-2.68zm27.67 2.65c-.08-1.03.22-1.93.89-2.71 1.15 1.41.85 2.31-.89 2.71z"/>
    <path fill="#280909" opacity=".48" d="M43.02 60.92c2.39 3.84 3.41 8.32 4.18 12.72l-.13 1.77c-.58-1.68-1.06-3.39-1.53-5.1-.67-.04-2.01-.13-2.69-.18 1.24-.82 1.72-2 1.44-3.55-.44.21-1.33.64-1.77.85.45-.56 1.35-1.67 1.8-2.22-.44-1.43-.87-2.86-1.3-4.29z"/>
    <path fill="#0e0303" opacity=".24" d="M86.62 68.93c1.69.64 3.15 1.71 4.4 2.99-.01.76-.02 2.26-.02 3.01-1.17-.75-2.35-1.51-3.52-2.26l.45-.37c.5-.4.99-.8 1.47-1.21-.69-.54-2.08-1.62-2.78-2.16z"/>
    <path fill="#330b0c" opacity=".53" d="M62.49 73.9c.19 2.24.41 4.47.69 6.7 1.09-2.03 1.32-4.36 1.35-6.63.21 2.07.45 4.14.75 6.19.53-1.42 1.02-2.86 1.5-4.3-.39 2.94-.67 5.89-.91 8.84-.48-1.21-.96-2.41-1.42-3.63-.48.02-1.43.05-1.91.06-.3.8-.91 2.4-1.21 3.2-.56-2.77-.86-5.6-1.07-8.42.47 1.41 1 2.79 1.53 4.18.25-2.06.48-4.13.7-6.19z"/>
</svg>
