<svg width="128pt" height="128pt" viewBox="0 0 128 128" xmlns="http://www.w3.org/2000/svg">
    <path fill="#ad2829" d="M82.73 35.54c5.14 4.68 12.24 5.72 18.67 7.6-4.58.13-9.16.12-13.74.19.72 7.58-.67 15.65-5.69 21.61-5.77 6.14-12.26 11.53-17.83 17.85-4.89-5.11-10.77-9.11-15.71-14.15-7.54-5.81-11.41-16.19-8.99-25.47-5.89-.11-11.78.26-17.67.37 7.66-1.11 14.88-3.89 22.16-6.39-.25 5.56-.5 11.15-.25 16.71 3.02 10.35 12.84 16.06 20.14 23.17 5.32-5.44 11.38-10.22 15.88-16.42 1.86-2.41 2.65-5.46 2.72-8.47.12-5.53.42-11.07.31-16.6z"/>
    <path fill="#ff393c" d="M55.53 48.4c2.45-2.55 5.01-5.01 7.58-7.43 2.34 2.49 4.54 5.1 6.62 7.81-2.12 2.21-4.07 4.58-6.06 6.9-3.52-.9-5.46-4.94-8.14-7.28z"/>
    <path fill="#9c2322" d="M9.93 47.84c7.56-.64 15.16-.22 22.74-.37-.13 3.68-.41 7.51 1.03 11 3.01 5.99 6.24 12.11 11.33 16.63 3.63 3.45 8.63 5.24 11.68 9.34 1.46 1.94 3.67 3.78 3.51 6.44.14 5.98.25 12-.22 17.97l-1.11 1.03c-2.19-5.86-6.11-10.77-10.83-14.79 1.1-1.01 2.2-2.01 3.3-3.02 2.07 2.08 4.01 4.31 5.47 6.88-.21-2.69.3-5.51-.54-8.1-1.72-2.7-4.6-4.32-7.17-6.1-5.36-3.43-10.63-7.41-13.86-13.01-2.56-4.49-6.11-8.5-7.5-13.56-.62-2.03-1.53-3.96-2.47-5.86-1.77-.04-3.54-.08-5.31-.08 1.18 1.71 2.53 3.29 3.77 4.96-.23 1.31-1.61 1.44-2.62 1.87-3.59-3.89-8.89-6.26-11.2-11.23z"/>
    <path fill="#9c2321" d="M93.7 48.23c7.36-.62 14.87-.79 22.2.19-3.66 3.69-6.78 8.14-11.4 10.7-.58-.48-1.73-1.45-2.31-1.94l3.32-2.78.28-2.34c-1.61.14-3.22.28-4.83.44-1.8 3.78-2.55 8.02-4.9 11.54-3.34 5.22-6.21 10.93-10.99 15.03-4.58 4.44-10.92 6.73-14.94 11.8-3.18 3.79-2.35 9.08-3.39 13.63-.19-5.42-.08-10.85.06-16.27 2.28-2.73 4.25-5.84 7.3-7.8 4.31-2.74 8.62-5.74 11.66-9.94 2.77-3.28 4.41-7.28 6.52-10.97 2.07-3.38 1.4-7.53 1.42-11.29z"/>
    <path fill="#8c2021" d="M66.74 104.5c1.04-4.55.21-9.84 3.39-13.63.07 2.46.13 4.93.3 7.4 1.9-1.48 3.41-3.36 4.81-5.3.89 1 1.79 1.99 2.69 2.98-4.46 3.99-7.64 9.05-11.07 13.89-.1-1.78-.34-3.56-.12-5.34z"/>
</svg>
