<svg width="128pt" height="128pt" viewBox="0 0 128 128" xmlns="http://www.w3.org/2000/svg">
    <g fill="#fff">
        <path d="M22.07 43.51c7.67-1.17 14.89-3.98 22.28-6.15-1.33 4.42-.52 9.1-.88 13.64-.45 4.2 2.13 7.78 4.39 11.04 4.26 6.1 11.14 9.64 15.81 15.38 3.37-3.85 7.55-6.87 10.91-10.74 3.43-3.58 7.43-7.41 7.77-12.68.29-6.03.72-12.07.49-18.11 5.18 4.4 12.05 5.47 18.39 7.19-4.52.11-9.05.05-13.58.07.59 7.24-.71 14.63-4.81 20.73-.61.67-1.22 1.34-1.83 2.02-2.94 2.78-5.58 5.85-8.77 8.36-3.14 2.35-5.13 5.79-8 8.41-5.16-5.18-11.21-9.32-16.25-14.62-7.45-5.82-10.59-16.08-8.47-25.18-5.82-.08-11.62.68-17.45.64z"/>
        <path d="M10.05 47.9c7.5-.59 15.03-.17 22.55-.39-.14 4.11-.62 8.63 1.63 12.31 2.17 3.81 3.95 7.88 6.82 11.23 5.2 7.15 14.9 9.74 18.81 17.98.77 6.4.1 12.86.11 19.28l-.92 1.48c-2.44-5.66-5.93-10.91-10.99-14.57 1.2-1.04 2.36-2.14 3.28-3.44 1.78 2.6 4.05 4.8 5.86 7.37-.69-3.34.75-7.54-2.16-10.07-4.08-3.77-9.27-6.09-13.3-9.93-4.83-3.97-7.69-9.64-10.97-14.83-1.7-2.63-2.95-5.55-3.49-8.64-.81-1.27-1.64-2.54-2.72-3.61l.06-.58c-1.56.28-3.1.57-4.65.89 1.03 1.93 2.36 3.73 4.31 4.82-.9.72-1.79 1.46-2.67 2.22-3.55-4.18-9.16-6.42-11.56-11.52zm83.57.58c7.36-.87 14.84-.23 22.25-.31-3.48 4.26-7.56 7.99-11.59 11.71.11-.31.32-.93.43-1.23-.67-.34-2.02-1-2.7-1.33 1.96-1.21 3.44-2.99 4.86-4.76-1.63-.74-3.43-.81-5.18-.96-2.87 3.7-2.99 8.65-5.74 12.41-3.46 5.36-6.35 11.32-11.43 15.4-3.91 3.58-8.83 5.83-12.75 9.39-2.82 2.37-1.33 6.47-1.44 9.63 2.06-1.34 3.48-3.38 4.92-5.31.87.92 1.75 1.84 2.64 2.75-3.67 3.34-6.54 7.36-9.61 11.22-.09.61-.28 1.81-.38 2.42-.26-.35-.77-1.05-1.03-1.4-.26-6.08-.02-12.18.02-18.26-.02-2.37 2.07-3.86 3.32-5.63 3.06-4.08 8.13-5.75 11.67-9.31 3.82-3.63 7-8.03 9.02-12.91.83-1.28 1.61-2.59 2.42-3.88.43-3.19 1.5-6.49.3-9.64z"/>
    </g>
</svg>
