<svg width="128pt" height="128pt" viewBox="0 0 128 128" xmlns="http://www.w3.org/2000/svg">
    <g fill="#fff">
        <path d="M57.65 23.58c.79-3.12 3.03-5.38 5.26-7.54 2.65 2.25 5.22 4.66 6.77 7.84-.56.35-1.68 1.05-2.23 1.4-.39 2.69.39 5.23 2.09 7.34.46-.09 1.37-.26 1.82-.34-.85 2.4-3.49 1.38-5.27.8l-.62-.42c-.49-.02-1.48-.07-1.97-.1l-.59.36c-2.04.71-4.24.57-6.33 1.03.15-2.45 3.16-3.47 3.03-5.97.15-1.75-.46-3.4-1.96-4.4zM30.86 47.62c2.3-1.64 5.21-1.91 7.57-3.43 1.6.24 3.14.75 4.57 1.52-2.65 3.86-4.34 8.25-5.86 12.65l-1.65.56c-.44-.65-1.31-1.96-1.75-2.61-3.76.44-1.68 3.8-1.07 5.98-1.02-1.92-1.82-3.94-2.71-5.91-1.29.82-2.96 1.26-3.8 2.64.48 2.18 2.94 3.01 4.48 4.38-.57.4-1.15.79-1.73 1.18-1.02-1.65-2.03-3.32-2.99-5.01-1.1.68-2.71.89-3.27 2.22.28 2.27 2.84 2.96 4.47 4.08-.24.28-.71.84-.95 1.11-1.36-1.32-2.73-2.63-4.13-3.9-.42.77-1.26 2.33-1.69 3.1.94 1.42 2.77 1.75 4.14 2.61-.44.24-1.31.71-1.75.94-.78-.98-1.66-1.88-2.67-2.62-.54.69-1.62 2.08-2.16 2.78 1.25.61 2.49 1.23 3.74 1.84-2.23-1.22-4.26-.26-6.12 1.09.02 1.17.05 2.35.08 3.52l-.61.08c-1.95-.55-2.27-3.41-1.47-5.01 1.59-3.33 2.37-7.1 4.84-9.94 3.96-4.79 7.14-10.43 12.49-13.85zm53.46-1.84c1.42-.66 2.84-1.6 4.47-1.49 3.83 1.61 8.1 2.71 10.98 5.92 3.57 3.19 6.01 7.35 9.06 11 2.99 3.38 3.82 7.94 5.7 11.92-.26.72-.77 2.16-1.02 2.88l-2.19.33c.38-.82.75-1.64 1.13-2.45-.73-1.35-1.72-1.75-2.97-1.2-.29-1.8.09-4.14-1.6-5.32-2.02-.46-3.33 4-4.78 1.16 1.85-.65 3.78-1.34 4.52-3.36-.69-.45-2.08-1.34-2.77-1.79-1.47 1.29-2.58 3.26-4.67 3.6 1.09-1.59 2.74-2.61 4.14-3.89 1.22-2.16-1.6-2.88-2.96-3.62-.89-1.36-2.22-2.31-3.59-3.15-.97 1.92-1.78 3.91-2.64 5.88.38-1.54.81-3.06 1.23-4.58-.56-.31-1.67-.94-2.22-1.25-1.11.7-1.79 3.11-3.4 2.18-2.23-4.2-3.39-8.98-6.42-12.77z"/>
        <path d="M97.17 63.07c1.25-.85 2.5-1.71 3.8-2.5-.83 1.49-1.76 2.93-2.76 4.31-.26-.45-.78-1.35-1.04-1.81zm-63.54 38.08c1-6.06 4.04-11.91 9.57-14.97 3.53 3.63 6.53 7.78 10.41 11.07-1.17.38-2.45.62-3.35 1.56-.94-.45-1.89-.89-2.83-1.32-.09.95-.28 2.87-.37 3.83-.45-.73-1.33-2.18-1.78-2.9-3.64.15-2.28 3.36-1.79 5.62-1.28-1.5-2.52-3.04-4-4.34-.57 1.38-1.14 2.79-1.45 4.26-.19-1.14-.42-2.27-.68-3.39-.89.75-1.78 1.51-2.67 2.27-.36-.56-.72-1.12-1.06-1.69zm40.44-3.89c3.45-3.42 6.65-7.06 9.91-10.65 1.49-.42 2.4 1.18 3.45 1.94 4.02 3.62 6.64 9.21 5.72 14.67-.92-.99-1.6-2.54-3.25-2.14-.31 1.77-.29 3.57-.45 5.35.08-2.36.06-4.95-1.9-6.61-1.26 1.41-2.44 2.9-3.53 4.45-.13-1.54 1.99-4.08.1-4.99-1.53-1.89-2.84.94-3.79 1.9.52-1.32.13-4.99-1.96-2.91-.29.18-.87.55-1.16.74-.79-1-1.84-1.59-3.14-1.75zm-10.95 5.37c2.69.09.96 3.39 1.38 5.08-1.71-1.05-.9-3.43-1.38-5.08z"/>
    </g>
    <path fill="#101010" opacity=".06" d="M27.12 65.87c1.68 1.87.75 4.62.35 6.81-1.02 2.89-4.54 2.76-6.9 3.88-2.12 1.11-4.46.58-6.65.04l1.08-.18.61-.08c-.03-1.17-.06-2.35-.08-3.52 1.86-1.35 3.89-2.31 6.12-1.09.56.17 1.69.53 2.25.7-.29-.67-.87-2.03-1.16-2.7.44-.23 1.31-.7 1.75-.94.59-.57 1.14-1.18 1.68-1.81.24-.27.71-.83.95-1.11z"/>
    <path fill="#6c6c6c" opacity=".42" d="M106.29 71.09c3.08-1.51 0 3.32 0 0z"/>
    <path fill="#707070" opacity=".44" d="M38.25 105.28c.5.47.5.47 0 0z"/>
</svg>
