<svg width="128pt" height="128pt" viewBox="0 0 128 128" xmlns="http://www.w3.org/2000/svg">
    <path d="M62.7 16.01c3.01 2.1 5.6 4.86 7.26 8.15.64 1.87 1.06 3.8 1.51 5.71-1.17.98-2.33 1.96-3.5 2.94-1.9-.17-3.8-.36-5.71-.32-1 .23-3.02.7-4.02.93-.55-.44-1.1-.89-1.64-1.33 4.12-1.4 4.07-6.25 1.38-8.98.92-1.8 1.91-3.58 3.09-5.22.41-.47 1.22-1.41 1.63-1.88m4.59 9.32c-.74 1.08-.87 3.74.54 4.17.72-1.08.96-3.81-.54-4.17zm-33.62 75.61c.86-5.81 3.8-11.14 8.66-14.53 3.82 2.89 6.68 6.77 10.15 10.04-.37.38-1.11 1.15-1.49 1.54-4.39-1.34-8.23 1.47-12.37 2.34-1.65.25-3.3.42-4.95.61z" fill="#b22b2c"/>
    <path fill="#400f0f" opacity=".66" d="M56.2 25.76c1.36-2.74 1.94-6.29 4.87-7.87-1.18 1.64-2.17 3.42-3.09 5.22 2.69 2.73 2.74 7.58-1.38 8.98.54.44 1.09.89 1.64 1.33 1-.23 3.02-.7 4.02-.93-.8.87-1.61 1.74-2.42 2.62l-.66.7c1.12 3.54 5.38 1.85 8.14 2.32.23-1.31.69-2.73-.56-3.74 1.13-.04 2.26-.04 3.39.05 2.01 1.19 4.02 2.4 5.92 3.78-2.36-1.1-4.84-1.9-7.33-2.65-.65 3.93 3.57 4.6 6.22 5.94.78-.83 1.57-1.66 2.35-2.5.51.45 1.03.9 1.55 1.34-.95.69-1.9 1.37-2.84 2.05 1.26 1.51 2.53 3.03 3.8 4.54 1.08-.71 2.16-1.42 3.25-2.12 2.04-.24 4.06-.63 6.07-1.06 1.41.73 2.81 1.47 4.23 2.19-2.79-.95-5.75-1.04-8.66-.85 2.18 4.28 4.31 8.59 5.93 13.12.78-.35 2.34-1.04 3.12-1.39-.08.86-.24 2.57-.33 3.43-.83-.44-2.49-1.32-3.33-1.76.16 2.03.01 4.21 1.43 5.85.12 1.27-1.58 2-2.06 3.03.21.66.64 1.96.86 2.61-.25.51-.76 1.51-1.02 2.01-.08-1.26-.15-2.53-.23-3.79-1.68-.37-3.37-.75-5.05-1.12-.7 2.86-1.41 5.72-2.13 8.58 1.57.78 3.14 1.56 4.71 2.35.74-1.7 1.48-3.39 2.26-5.07-.48 2.33-1.25 4.58-2.2 6.76-1.77-1-3.37-2.67-5.47-2.86-1.65 1.41-1.98 3.66-2.59 5.63-.94 1.68-1.91 3.34-2.93 4.97-1.82 1.21-3.46 2.66-4.97 4.22.94 1.44 1.88 2.88 2.81 4.33.89-.23 1.78-.46 2.68-.68-.37.47-1.09 1.43-1.46 1.91.55.07 1.64.23 2.19.31l.4 1.52c-1.25-.59-2.49-1.18-3.73-1.77-.34.08-1 .26-1.33.34-.55-1.58-1.11-3.16-1.67-4.74-1.21.78-2.42 1.56-3.64 2.34l-.24 3.17c-.28-.61-.85-1.82-1.14-2.43-1.39.07-2.78.15-4.17.23l-1.02 4.54c-.83-.51-1.66-1.02-2.48-1.52.47-.11 1.42-.32 1.89-.42.5-1 .99-2 1.47-3.01-1.43-.97-2.87-1.95-4.31-2.91-.63 1.51-1.27 3.02-1.9 4.54-1.35.24-2.71.4-4.07.57.38-.39 1.12-1.16 1.49-1.54-3.47-3.27-6.33-7.15-10.15-10.04.45-.26 1.36-.79 1.82-1.05-1.17-1.43-2.29-2.93-2.84-4.71.85 1.17 1.76 2.3 2.66 3.43 1.34-.55 2.69-1.1 4.03-1.64l-3.34 3.34c1.26 1.5 2.53 2.99 3.82 4.47.89-1.11 1.84-2.19 2.61-3.39-1.43-3.2-3.17-6.28-4.14-9.68-.7-.1-2.09-.32-2.79-.43.27-.43.8-1.3 1.07-1.73-.59-2.66-1.17-5.32-1.75-7.97-1.87.38-3.74.77-5.61 1.15.04.78.11 2.32.15 3.09-1.05-4.38-.51-8.91-.44-13.36-2.01 1.38-2.98 3.86-5.35 4.75-.66-2.01-1.32-4.02-2.11-5.98.23.24.71.7.95.94.84.97 1.63 2 2.45 3.01.05-1.57.09-3.14.11-4.71.62.78 1.87 2.34 2.49 3.11 2.07-4.5 3.94-9.12 6.51-13.37-1.24-.42-2.48-.83-3.72-1.26-3.03 1.26-6.12 2.38-9.13 3.7 2.35-2.06 5.37-3.02 8.27-4.02 1.94-.93 3.73.85 5.45 1.46 1.07-1.34 2.22-2.64 3.64-3.63-.85 1.01-1.67 2.03-2.5 3.05.98.66 1.97 1.31 2.95 1.97 1.17-1.32 2.4-2.58 3.41-4.03-.3-1.18-1.41-1.9-2.11-2.83.62-.58 1.24-1.16 1.85-1.75.18.74.53 2.21.7 2.94 2.64-.67 5.22-1.54 7.74-2.56-.43-1.04-.86-2.08-1.27-3.13-.77.23-1.54.45-2.3.69.28-1.61.53-3.22.78-4.83-.45-1.84-1.12-3.87-.19-5.69m.91-1.56c-.33 2.22-.45 4.48-.4 6.73 3.31-.81 3.15-5.31.4-6.73m-.96 16.83c2.01 2.55 3.2 6.9 6.88 7.25 4.51.82 6.13-4.43 8.32-7.32-4.55-2.66-10.78-3.07-15.2.07m-8.18 8.2c3.16.68 6.29 1.49 9.36 2.52.92-1.24 1.84-2.47 2.77-3.71-1.82-2.13-3.67-4.23-5.47-6.37-3.17 1.53-4.89 4.7-6.66 7.56m19.36-1.1c.94 1.2 1.89 2.39 2.84 3.58 2.85-.97 5.8-1.58 8.71-2.34-.27-2.95-3.04-5.13-4.9-7.29-3.15.1-4.55 4.07-6.65 6.05M38.07 67.09c1.98-.39 3.95-.79 5.93-1.21v-8.75c-1.62-.23-3.25-.47-4.87-.71 1.59-.16 3.19-.31 4.78-.45 1.16-2.57 2.71-5.04 3.16-7.86-.94-.66-1.9-1.29-2.88-1.89-4.98 5.72-6.89 13.41-6.12 20.87m41.87-19.03c1.18 2.63 2.31 5.29 3.39 7.96 1.63-.09 3.25-.18 4.88-.28-.54-3.49-2.8-6.29-4.52-9.26-1.25.52-2.5 1.05-3.75 1.58m-22.11 4.91c.73 2.98 2.58 5.95 6.13 5.11 3.79.87 5.18-3.1 5.28-6.1-1.54-1.36-2.86-3.64-5.24-3.28-3.03-.64-4.67 2.23-6.17 4.27m-10.79-2.12c-.82 3.02-1.92 6.02-2.01 9.18.12 1.24-.33 3.1 1.24 3.58 2.63.63 5.53.58 8.13-.17 2.11-1.73 5.64-4.25 3.77-7.35-1.32-4.65-7.03-5.33-11.13-5.24m24.05 2.27c-2.18 2.11-3.39 6.16-.45 8.2 2.66 3.6 7.52 2.64 11.36 2.22-.07-4.18.65-9.2-2.18-12.63-3.05-.53-6.16.63-8.73 2.21m12.44 3.83c-.06 2.95-.15 5.89-.29 8.84 2.02.45 4.03.89 6.05 1.31.03-3.51-.21-7.01-.37-10.5-1.8.11-3.6.22-5.39.35m-27.55 7.11c.74 2.42 2.79 4.17 4.23 6.2 2.24.01 4.49.12 6.71-.14 2.16-1.56 3.38-4.05 4.98-6.11-1.41-1.68-2.83-3.36-4.24-5.04-1.9-.09-3.8-.19-5.7-.09-2.99-.16-4.76 2.91-5.98 5.18m-11 .87c-.57 4.74 1.26 9.16 3.12 13.39 4.6-.99 9.83-2.86 11-8-1.49-1.76-2.97-3.53-4.45-5.3-3.22.01-6.45-.03-9.67-.09m27.42.21c-1.24 1.71-2.51 3.4-3.82 5.06.73 5.31 6.34 7.35 10.99 7.94 1.28-4.33 4.07-8.75 2.52-13.39-3.22.21-6.46.3-9.69.39m-12.34 5.57c-1.14 1.74-2.54 3.44-2.92 5.54.9 1.77 2.06 3.59 3.79 4.64 1.91.25 3.84.15 5.77.15 1.24-1.79 3.74-3.34 3.26-5.82-.39-1.5-1.24-2.85-2.28-3.99-2.45-.74-5.09-.37-7.62-.52m-10.74 9.26c.66 3.83 3.81 6.87 6.66 9.37 1.35-2.67 2.54-5.43 3.62-8.23-1.21-1.45-2.35-2.99-3.85-4.15-2.38.33-4.57 1.53-6.43 3.01m18.66 1.06c.46 2.98 2.3 5.54 3.5 8.26 2.84-2.28 5.23-5.14 6.83-8.42-.68-2.59-4-3.02-6.21-3.81-1.88.36-3.09 2.44-4.12 3.97m-6.78 1.08c-2 2.55-2.66 5.93-4.27 8.75 2.01 2.18 4.65 4.42 7.84 4.04 2.02-.79 4.43-1.92 5.24-4.06-.51-3.12-2.34-5.85-3.38-8.81-1.81-.03-3.64-.31-5.43.08m-12.46 8.93c1.01 1.38 1.94 2.85 3.21 4.02 2.17 2.43 3.35-1.99 4.71-3.18-1.14-1.39-2.08-3.06-3.66-4.02-1.92.04-2.92 2.07-4.26 3.18z"/>
    <path fill="#551315" opacity=".73" d="M69.96 24.16l1.04-.38c1.65 3.51 1.27 7.42-.85 10.66-1.13-.09-2.26-.09-3.39-.05-2.32.13-4.62.4-6.92.72.81-.88 1.62-1.75 2.42-2.62 1.91-.04 3.81.15 5.71.32 1.17-.98 2.33-1.96 3.5-2.94-.45-1.91-.87-3.84-1.51-5.71z"/>
    <path fill="#a52629" d="M57.11 24.2c2.75 1.42 2.91 5.92-.4 6.73-.05-2.25.07-4.51.4-6.73z"/>
    <path fill="#721b1c" opacity=".84" d="M67.29 25.33c1.5.36 1.26 3.09.54 4.17-1.41-.43-1.28-3.09-.54-4.17z"/>
    <path d="M55.61 36.28c.76-.24 1.53-.46 2.3-.69.41 1.05.84 2.09 1.27 3.13-2.52 1.02-5.1 1.89-7.74 2.56-.17-.73-.52-2.2-.7-2.94 1.57-.8 3.17-1.57 4.87-2.06zm20.41 6.12c.94-.68 1.89-1.36 2.84-2.05 1.46 1.43 2.86 2.93 4.21 4.47-1.09.7-2.17 1.41-3.25 2.12-1.27-1.51-2.54-3.03-3.8-4.54z" fill="#942421"/>
    <path d="M59.84 35.11c2.3-.32 4.6-.59 6.92-.72 1.25 1.01.79 2.43.56 3.74-2.76-.47-7.02 1.22-8.14-2.32l.66-.7zM81.2 76.85c2.1.19 3.7 1.86 5.47 2.86-.86 1.64-1.76 3.26-2.67 4.87-1.43-.55-2.85-1.1-4.29-1.61 1.23.79 2.48 1.54 3.74 2.29-1.16 1.85-2.46 3.61-3.85 5.29-1.11-.76-2.21-1.51-3.32-2.25.66.65 1.98 1.94 2.65 2.59-.93 1.47-1.86 2.93-2.73 4.43-.9.22-1.79.45-2.68.68-.93-1.45-1.87-2.89-2.81-4.33 1.51-1.56 3.15-3.01 4.97-4.22 1.02-1.63 1.99-3.29 2.93-4.97.61-1.97.94-4.22 2.59-5.63zM66.96 95.23c1.22-.78 2.43-1.56 3.64-2.34.56 1.58 1.12 3.16 1.67 4.74-1.47.78-2.96 1.52-4.45 2.24-2.01 2.04-5.03 2.75-7.43.87l1.02-4.54c1.39-.08 2.78-.16 4.17-.23.29.61.86 1.82 1.14 2.43l.24-3.17z" fill="#942323"/>
    <path d="M68.74 35.57c2.49.75 4.97 1.55 7.33 2.65.31.2.93.6 1.24.79-.78.84-1.57 1.67-2.35 2.5-2.65-1.34-6.87-2.01-6.22-5.94zm36.18 35.64c.27-1.25.87-2.86 2.36-3 1.72.66-.31 2.68-1.17 3.23-.3-.06-.89-.17-1.19-.23z" fill="#942429"/>
    <path d="M56.15 41.03c4.42-3.14 10.65-2.73 15.2-.07-2.19 2.89-3.81 8.14-8.32 7.32-3.68-.35-4.87-4.7-6.88-7.25zM38.07 67.09c-.77-7.46 1.14-15.15 6.12-20.87.98.6 1.94 1.23 2.88 1.89-.45 2.82-2 5.29-3.16 7.86-1.59.14-3.19.29-4.78.45 1.62.24 3.25.48 4.87.71v8.75c-1.98.42-3.95.82-5.93 1.21zm29.91 13.94c1.03-1.53 2.24-3.61 4.12-3.97 2.21.79 5.53 1.22 6.21 3.81-1.6 3.28-3.99 6.14-6.83 8.42-1.2-2.72-3.04-5.28-3.5-8.26z" fill="#972421"/>
    <path fill="#962325" d="M48.89 40.09c.7.93 1.81 1.65 2.11 2.83-1.01 1.45-2.24 2.71-3.41 4.03-.98-.66-1.97-1.31-2.95-1.97.83-1.02 1.65-2.04 2.5-3.05.44-.46 1.31-1.38 1.75-1.84z"/>
    <path d="M47.97 49.23c1.77-2.86 3.49-6.03 6.66-7.56 1.8 2.14 3.65 4.24 5.47 6.37-.93 1.24-1.85 2.47-2.77 3.71-3.07-1.03-6.2-1.84-9.36-2.52zm9.86 3.74c1.5-2.04 3.14-4.91 6.17-4.27 2.38-.36 3.7 1.92 5.24 3.28-.1 3-1.49 6.97-5.28 6.1-3.55.84-5.4-2.13-6.13-5.11zM37.87 68.2c1.87-.38 3.74-.77 5.61-1.15.58 2.65 1.16 5.31 1.75 7.97-.27.43-.8 1.3-1.07 1.73-1.2.65-2.38 1.33-3.54 2.04-.88-2.5-1.94-4.93-2.6-7.5-.04-.77-.11-2.31-.15-3.09z" fill="#972424"/>
    <path fill="#972326" d="M67.33 48.13c2.1-1.98 3.5-5.95 6.65-6.05 1.86 2.16 4.63 4.34 4.9 7.29-2.91.76-5.86 1.37-8.71 2.34-.95-1.19-1.9-2.38-2.84-3.58z"/>
    <path fill="#b5292c" d="M29.78 48.12c3.01-1.32 6.1-2.44 9.13-3.7 1.24.43 2.48.84 3.72 1.26-2.57 4.25-4.44 8.87-6.51 13.37-.62-.77-1.87-2.33-2.49-3.11-.02 1.57-.06 3.14-.11 4.71-.82-1.01-1.61-2.04-2.45-3.01-.24-.24-.72-.7-.95-.94-.2-.18-.6-.55-.8-.74-7.3 3.5-10.26 11.3-14.11 17.84.63-.03 1.89-.08 2.52-.11l1.06.91c-1.4.59-2.77 1.25-4.11 1.97-.73-1.1-1.41-2.23-2.06-3.37 2.02-3.89 2.87-8.37 5.7-11.81 3.72-4.51 6.84-9.59 11.46-13.27z"/>
    <path fill="#b2292c" d="M84.71 45.1c2.91-.19 5.87-.1 8.66.85 7.05 2.61 10.96 9.4 15.39 15 2.52 2.84 3.64 6.53 5.05 9.97.19 1.46.35 2.91.49 4.37-.49.08-1.49.25-1.98.33-.21-.6-.62-1.81-.83-2.41-4.03-4.17-4.74-10.66-9.6-14.14-1.66-1.59-3.77-2.54-6.05-1.77-.67 1.46-1.36 2.91-2.11 4.33l-.3-1.37c.09-.86.25-2.57.33-3.43-.78.35-2.34 1.04-3.12 1.39-1.62-4.53-3.75-8.84-5.93-13.12z"/>
    <path d="M79.94 48.06c1.25-.53 2.5-1.06 3.75-1.58 1.72 2.97 3.98 5.77 4.52 9.26-1.63.1-3.25.19-4.88.28-1.08-2.67-2.21-5.33-3.39-7.96zm3.59 8.89c1.79-.13 3.59-.24 5.39-.35.16 3.49.4 6.99.37 10.5-2.02-.42-4.03-.86-6.05-1.31.14-2.95.23-5.89.29-8.84zM19.65 68.67c.98-.54 2.08.2 3.01.5.25 1.51-.38 2.24-1.89 2.19-.59-.69-1.7-1.7-1.12-2.69zm24.51 8.08c.7.11 2.09.33 2.79.43.97 3.4 2.71 6.48 4.14 9.68-.77 1.2-1.72 2.28-2.61 3.39-1.29-1.48-2.56-2.97-3.82-4.47L48 82.44c-1.34.54-2.69 1.09-4.03 1.64-.9-1.13-1.81-2.26-2.66-3.43-.12-.34-.37-1.02-.49-1.36 1.13-.82 2.26-1.65 3.34-2.54zm12.8 16.13c1.44.96 2.88 1.94 4.31 2.91-.48 1.01-.97 2.01-1.47 3.01-.47.1-1.42.31-1.89.42-.72-.45-2.14-1.35-2.85-1.8.63-1.52 1.27-3.03 1.9-4.54z" fill="#9c2429"/>
    <path fill="#972426" d="M47.04 50.85c4.1-.09 9.81.59 11.13 5.24 1.87 3.1-1.66 5.62-3.77 7.35-2.6.75-5.5.8-8.13.17-1.57-.48-1.12-2.34-1.24-3.58.09-3.16 1.19-6.16 2.01-9.18z"/>
    <path d="M71.09 53.12c2.57-1.58 5.68-2.74 8.73-2.21 2.83 3.43 2.11 8.45 2.18 12.63-3.84.42-8.7 1.38-11.36-2.22-2.94-2.04-1.73-6.09.45-8.2zm1.31 12.02c3.23-.09 6.47-.18 9.69-.39 1.55 4.64-1.24 9.06-2.52 13.39-4.65-.59-10.26-2.63-10.99-7.94 1.31-1.66 2.58-3.35 3.82-5.06zM49.32 79.97c1.86-1.48 4.05-2.68 6.43-3.01 1.5 1.16 2.64 2.7 3.85 4.15-1.08 2.8-2.27 5.56-3.62 8.23-2.85-2.5-6-5.54-6.66-9.37z" fill="#9c2426"/>
    <path fill="#8e2221" d="M29.32 55.96c.2.19.6.56.8.74.79 1.96 1.45 3.97 2.11 5.98-2.65 1.13-4.33 4.11-7.4 4.21.49.2 1.47.61 1.96.81l-3.02 1.91-1.11-.44c-.93-.3-2.03-1.04-3.01-.5-.58.99.53 2 1.12 2.69-.12.52-.37 1.56-.5 2.08-.63.06-1.9.19-2.54.25-.63.03-1.89.08-2.52.11 3.85-6.54 6.81-14.34 14.11-17.84z"/>
    <path fill="#430f10" opacity=".63" d="M95.84 57.3c2.28-.77 4.39.18 6.05 1.77 4.86 3.48 5.57 9.97 9.6 14.14.21.6.62 1.81.83 2.41.49-.08 1.49-.25 1.98-.33-.14-1.46-.3-2.91-.49-4.37 1.17 1.65.81 3.54.31 5.36-1.24.23-2.48.44-3.74.55-1.4-1.81-2.9-3.55-4.27-5.39.86-.55 2.89-2.57 1.17-3.23-1.49.14-2.09 1.75-2.36 3-2.14-1.56-3.73-4-6.33-4.78-.33-1.47-1.22-2.63-2.67-3.47l-.88 1.85c-.01-.67-.04-2.02-.05-2.69-.31-.12-.94-.36-1.26-.49.75-1.42 1.44-2.87 2.11-4.33m1-.05c-.47 1.48-.94 2.96-1.42 4.44.47.5.95.99 1.44 1.48.47-1.96 2.52-2.56 4.03-3.47-1.07-1.26-2.29-2.39-4.05-2.45m3.33 4.7c-.66.08-1.32.19-1.98.33-.17 1.26.43 2.48 1.08 3.52 2.68 1.1 4.41-1.53 5.25-3.69-.62-.55-1.85-1.67-2.46-2.23-.47.52-1.42 1.55-1.89 2.07m1.62 5.72l3.12 1.62c.95-1.86 2.2-3.85.44-5.73-1.2 1.36-2.39 2.73-3.56 4.11m7.61 5.42c.05 3.35 3.01-1.46 0 0z"/>
    <path fill="#992327" d="M96.84 57.25c1.76.06 2.98 1.19 4.05 2.45-1.51.91-3.56 1.51-4.03 3.47-.49-.49-.97-.98-1.44-1.48.48-1.48.95-2.96 1.42-4.44z"/>
    <path fill="#972423" d="M55.98 64.06c1.22-2.27 2.99-5.34 5.98-5.18 1.9-.1 3.8 0 5.7.09 1.41 1.68 2.83 3.36 4.24 5.04-1.6 2.06-2.82 4.55-4.98 6.11-2.22.26-4.47.15-6.71.14-1.44-2.03-3.49-3.78-4.23-6.2z"/>
    <path fill="#882020" opacity=".96" d="M100.17 61.95c.47-.52 1.42-1.55 1.89-2.07.61.56 1.84 1.68 2.46 2.23-.84 2.16-2.57 4.79-5.25 3.69-.65-1.04-1.25-2.26-1.08-3.52.66-.14 1.32-.25 1.98-.33z"/>
    <path d="M44.98 64.93c3.22.06 6.45.1 9.67.09 1.48 1.77 2.96 3.54 4.45 5.3-1.17 5.14-6.4 7.01-11 8-1.86-4.23-3.69-8.65-3.12-13.39zM61.2 82.11c1.79-.39 3.62-.11 5.43-.08 1.04 2.96 2.87 5.69 3.38 8.81-.81 2.14-3.22 3.27-5.24 4.06-3.19.38-5.83-1.86-7.84-4.04 1.61-2.82 2.27-6.2 4.27-8.75z" fill="#9a2424"/>
    <path fill="#8f2121" opacity=".98" d="M101.79 67.67c1.17-1.38 2.36-2.75 3.56-4.11 1.76 1.88.51 3.87-.44 5.73l-3.12-1.62z"/>
    <path d="M84.03 67.09c1.68.37 3.37.75 5.05 1.12.08 1.26.15 2.53.23 3.79l-.44.95c-.78 1.68-1.52 3.37-2.26 5.07-1.57-.79-3.14-1.57-4.71-2.35.72-2.86 1.43-5.72 2.13-8.58zm3.39 33.95c.4 1.02.8 2.05 1.21 3.08-.64.71-1.28 1.42-1.95 2.11l-1.03.21-.8-1.34c.81-1.38 1.69-2.72 2.57-4.06z" fill="#9d2526"/>
    <path fill="#9a2425" d="M60.06 70.71c2.53.15 5.17-.22 7.62.52 1.04 1.14 1.89 2.49 2.28 3.99.48 2.48-2.02 4.03-3.26 5.82-1.93 0-3.86.1-5.77-.15-1.73-1.05-2.89-2.87-3.79-4.64.38-2.1 1.78-3.8 2.92-5.54z"/>
    <path fill="#8b211f" opacity=".94" d="M109.4 73.09c3.01-1.46.05 3.35 0 0z"/>
    <path fill="#b0292b" d="M76.2 95.32c2.46-3.19 5.37-6.01 7.8-9.23 2.82 1.6 5.47 3.8 7.02 6.69.75 2.85 1.34 5.73 1.97 8.6-5.52-.73-10.38-4.16-16.06-3.84-.55-.08-1.64-.24-2.19-.31.37-.48 1.09-1.44 1.46-1.91z"/>
    <path fill="#9a2426" d="M48.74 91.04c1.34-1.11 2.34-3.14 4.26-3.18 1.58.96 2.52 2.63 3.66 4.02-1.36 1.19-2.54 5.61-4.71 3.18-1.27-1.17-2.2-2.64-3.21-4.02z"/>
    <path fill="#932320" d="M91.02 92.78c1.47 2.79 2.62 5.81 2.53 9.02-.79 1.47-1.46 3-2.1 4.54-1.72.04-3.44.14-5.15.3l.38-.41c.67-.69 1.31-1.4 1.95-2.11-.41-1.03-.81-2.06-1.21-3.08-.88 1.34-1.76 2.68-2.57 4.06-.13-.51-.39-1.52-.52-2.02-.77.19-2.31.57-3.07.76-.04-.63-.12-1.9-.15-2.53l-3.22.08c-.14-.59-.42-1.75-.56-2.33l-.4-1.52c5.68-.32 10.54 3.11 16.06 3.84-.63-2.87-1.22-5.75-1.97-8.6z"/>
    <path d="M38.62 100.33c4.14-.87 7.98-3.68 12.37-2.34-.6 1.19-1.22 2.38-1.82 3.58-1.01-.52-2.01-1.04-3.02-1.55-.06.82-.17 2.47-.22 3.3-1.01-.38-2.01-.76-3.01-1.14-.32 1.32-.65 2.65-1.02 3.96-.67.18-2.03.54-2.71.72l-.12-1.34c-.16-1.73-.31-3.46-.45-5.19zm24.28 1.96c3.05.2 1.29 3.03 1.05 4.84-.44-1.59-.76-3.22-1.05-4.84z" fill="#881f20"/>
    <path fill="#330b0b" opacity=".58" d="M46.15 100.02c1.01.51 2.01 1.03 3.02 1.55-1.67 1.06-3.26 2.68-5.43 2.3-.61.76-1.22 1.52-1.84 2.27.37-1.31.7-2.64 1.02-3.96 1 .38 2 .76 3.01 1.14.05-.83.16-2.48.22-3.3z"/>
    <path fill="#891f20" opacity=".98" d="M33.67 100.94c1.65-.19 3.3-.36 4.95-.61.14 1.73.29 3.46.45 5.19-.79.27-2.37.8-3.15 1.07-.73-1.89-1.47-3.78-2.25-5.65z"/>
</svg>
