<svg width="128pt" height="128pt" viewBox="0 0 128 128" xmlns="http://www.w3.org/2000/svg">
    <g fill="#fff">
        <path d="M57.66 23.48c1.98 2.23 2.59 7.35-1.11 8.05-.38-2.76-.53-5.63 1.11-8.05zm13.58 8.48c-4.32-.09-5.17-7.5-.8-8.12 1.33 2.53 1.59 5.37.8 8.12zm-12.28 2.71c3.16-.48 6.38-.4 9.55.02l-1.23 3.63c-2.52-.08-5.04-.23-7.55-.41-.26-1.08-.52-2.16-.77-3.24zm-8.86 4.32c2.52-1.55 5.26-2.69 7.96-3.87.34.82 1.01 2.46 1.35 3.28-2.39 1.32-4.86 2.49-7.37 3.58-.49-.75-1.46-2.24-1.94-2.99zM69 35.33c3.02.62 5.78 2.1 8.37 3.72-.53.73-1.59 2.21-2.12 2.94-2.37-1.2-4.91-2.14-7.07-3.72.21-.73.62-2.2.82-2.94z"/>
        <path d="M55.62 40.87c4.8-3.22 11.31-2.93 16.14.06-1.73 2.69-3.61 5.27-5.69 7.69-2.06-.46-4.84.42-6.19-1.65-1.63-1.88-2.87-4.05-4.26-6.1zm-10.65 3.26c1.41-1.47 2.86-2.91 4.43-4.22 2.01 1.37 2.07 3.24.97 5.26.86-.91 1.65-1.88 2.38-2.9.54-.2 1.64-.59 2.18-.79 1.79 2.31 3.71 4.5 5.52 6.78-1.05 1.26-2.11 2.52-3.17 3.77-3.09-1.02-6.21-1.95-9.41-2.53 1.22-1.24 1.08-2.88.37-4.2-.98 3.7-2.43 7.23-3.95 10.73-1.9-.07-3.8-.16-5.69-.26 1.12-3.08 2.62-6.01 4.53-8.67 1.07-.69 1.67-1.72 1.84-2.97zm30.61-1.61c.63-.64 1.89-1.91 2.52-2.55 1.73 1.64 3.48 3.26 5.12 4.99l-3.32 2.36c-1.45-1.59-2.85-3.22-4.32-4.8zm-2.66-1.3c3.03 1.98 5.09 5.05 6.89 8.12-3.3.83-6.61 1.67-9.87 2.7-.96-1.33-1.92-2.65-2.89-3.96 1.84-2.38 3.88-4.6 5.87-6.86zm6.86 6.73c.94-.49 2.82-1.47 3.77-1.96 2 3.1 4 6.22 5.45 9.63-1.97.24-3.95.41-5.93.52-1.04-2.75-2.15-5.48-3.29-8.19z"/>
        <path d="M61.1 48.82c2.63-.58 6.38-.37 7.64 2.49 1.39 1.75.29 4.05-.71 5.7-1.18 2.24-4.1.88-6.11 1.07-3.16.29-4.08-3.58-3.72-6.05.74-1.25 1.72-2.36 2.9-3.21z"/>
        <path d="M46.93 50.88c3.4-1.43 6.84.98 10.06 1.94.79 1.99 1.91 3.94 1.93 6.14-1.22 1.88-2.92 3.38-4.5 4.93-3.08.04-6.17.2-9.24-.17-.47-4.35-.1-8.83 1.75-12.84zm23.68 1.84c3.1-1.2 6.27-2.42 9.65-2.45 1.71 4.27 2.84 8.89 1.96 13.5-3.14.29-6.29.19-9.43.05-1.65-1.69-3.22-3.46-4.61-5.36.7-1.96 1.51-3.87 2.43-5.74zm-44.43 6.34c1.24-.86 2.49-1.7 3.76-2.52.93 2.32 1.82 4.67 2.48 7.08-2.38-1.05-4.64-2.46-6.24-4.56zm12.34-2.79c1.91.06 3.83.16 5.74.29.15 3.26.01 6.52-.25 9.77-2.09.35-4.21.52-6.33.58-.03-3.56.23-7.13.84-10.64zm44.77.34c1.9-.17 3.81-.28 5.72-.31.34 3.49.82 6.99.71 10.5-2.18.35-4.37-.19-6.51-.56-.06-3.21.03-6.42.08-9.63zm9.08 2.91c.69-1.11 1.46-2.17 2.29-3.18.78 1.14 1.53 2.3 2.28 3.45l.56-3.06c1.29.76 2.56 1.55 3.84 2.35-1.56 1.57-3.26 2.98-5.01 4.32-1.34-1.27-2.67-2.55-3.96-3.88zm-32.32-.85c2.57-.36 5.18.06 7.77.12 1.51 1.74 2.96 3.52 4.37 5.35-1.66 2.05-2.97 4.56-5.18 6.07-2.32.24-4.67.14-7 .15-1.62-2.07-3.24-4.15-4.76-6.31 1.57-1.82 3.04-3.73 4.8-5.38zm-36.81 4.24c-.36-1.74 1.2-2.44 2.38-3.24 1.26 2.08 2.5 4.17 3.35 6.45-2.25-.34-4.17-1.61-5.73-3.21zm75.35 2.19c1.1-1.8 2.18-3.62 3.3-5.41.7.59 2.08 1.78 2.78 2.38-1.29 1.72-3.04 2.97-4.77 4.21-.33-.29-.99-.89-1.31-1.18zm-53.92-.67c3.42.04 6.82.53 10.25.45 1.5 1.78 2.93 3.61 4.38 5.44-.71 1.61-1.48 3.2-2.26 4.77-2.79 1.37-5.59 2.73-8.51 3.8-2.97-4.19-4.04-9.39-3.86-14.46zm23.53 5.68c1.47-1.76 2.92-3.53 4.42-5.27 3.24.04 6.46-.24 9.68-.54 1.36 5.05-.68 10.51-3.61 14.63-2.44-1.1-4.95-2.09-7.29-3.4-1.87-1.19-2.29-3.57-3.2-5.42z"/>
        <path d="M37.67 67.94c2.17-.44 4.35-.79 6.56-.96-.01 3.03.82 5.94 1.58 8.85-1.76.84-3.51 1.7-5.26 2.56-1.08-3.45-2.65-6.8-2.88-10.45zm45.98-.96c2.01.25 4.01.54 6.01.87.17 3.8-1.84 7.16-2.82 10.74-1.7-1.02-3.47-1.93-5.23-2.85.73-2.91 1.58-5.79 2.04-8.76zm-23.86 3.65c2.68.02 5.35 0 8.03-.07.99 1.85 1.98 3.71 2.88 5.62-1.17 1.74-2.42 3.42-3.76 5.04-2.08.11-4.16.2-6.24.23-1.36-1.69-3.07-3.25-3.73-5.37.66-1.95 1.72-3.72 2.82-5.45zm-19.11 8.61c1.63-.93 3.24-1.88 4.86-2.83.86 1.28 2.85 2.04 2.81 3.75.43 2.62-2.7 3.43-4.37 4.61-1.27-1.74-2.4-3.58-3.3-5.53zm7.98.47c2.35-1.24 4.77-2.35 7.23-3.36 1.31 1.75 3.36 3.22 3.81 5.44-1.03 2.74-2.34 5.37-3.69 7.97-3.47-2.49-5.77-6.15-7.35-10.05zm18.82 1.93c1.12-1.99 2.59-3.73 4.22-5.31 2.3 1.52 6.31 1.67 6.92 4.87-1.91 3.13-4.24 5.98-6.95 8.46-1.69-2.51-2.87-5.31-4.19-8.02z"/>
        <path d="M79.18 81.94c-1.42-2.11 1.1-4.13 2.14-5.83 1.79 1.03 3.55 2.11 5.29 3.24-.74 1.76-1.62 3.46-2.73 5.01l-4.96-1.68 2.69-.26-2.43-.48zm-18.67.1c2.09-.06 4.36-.71 6.34.2 1.47 2.79 2.55 5.77 3.86 8.64-1.85 1.81-3.84 4.26-6.7 4.06-2.88.23-5.67-1.66-7.06-4.1.81-3.06 2.48-5.83 3.56-8.8zm-16.35 3.53c1.64-1.13 3.35-2.14 5.01-3.22.88 1.59 1.8 3.16 2.7 4.74-1.14 1.03-2.25 2.12-3.51 3.02-1.88-.98-2.93-2.93-4.2-4.54zm34.13-2.81c1.86.47 3.41 1.67 5.11 2.51-1.19 1.88-2.62 3.58-4.15 5.19-1.26-1.14-2.57-2.23-3.58-3.6.67-1.49 1.64-2.82 2.62-4.1zm-7.71 8.91c1.34-1.61 2.77-3.14 4.28-4.59 1.33 1.18 2.6 2.43 3.84 3.71-.98 2.36-2.55 4.51-4.81 5.8-1.33-1.48-2.28-3.23-3.31-4.92z"/>
        <path d="M56.53 93.2c1.89-.43 3.2 1.42 4.71 2.19-.45 1.51-.94 3.01-1.45 4.5-1.83-.86-3.61-1.82-5.35-2.86.68-1.28 1.33-2.59 2.09-3.83zm12.61-.18c.48.77.95 1.55 1.43 2.33.55.21 1.67.61 2.23.81-.75 2.21-3.45 2.72-5.22 3.81-.42-1.47-.89-2.92-1.17-4.42.69-.63 2.05-1.9 2.73-2.53zm-7.37 2.41c1.37.05 2.75.13 4.12.25.55 1.51.97 3.07 1.39 4.63-2.21 1.9-5.02 1.94-7.25 0 .55-1.64 1.14-3.27 1.74-4.88z"/>
    </g>
    <path d="M32.99 62.02c-.76-1.72-2.7-5.84.98-4.87 1.53 1.7.3 3.46-.98 4.87zm-10.84 2.13c1.62.38 3.89 2.66 3.43 4.63-1.86-.69-3.64-1.59-5.27-2.72.46-.48 1.38-1.43 1.84-1.91zM52.57 87.2c1.55 1.45 3 3 4.4 4.58-1.07 1.63-2.18 3.23-3.35 4.79-2.16-1.46-3.78-3.51-5.17-5.68 1.34-1.26 2.71-2.5 4.12-3.69zm24.68 12.85c.55-.94 1.23-1.78 1.9-2.62l1.02 2.08.91-.08c2.83-1.4 3.61 1.37 4.66 3.36l1.01-1.83 1.36-.43c1.4 1.97.71 4.25.01 6.34-1.85-.31-3.39-1.05-3.39-3.18-.65-.38-1.29-.76-1.94-1.15l-.71 2.09c-.42-1.15-.85-2.29-1.31-3.41l-1.52.12c-.69-.4-1.37-.82-2-1.29zm-34.47.8c-.24-1.83 1.67-1.61 2.88-1.96.6 1.79.85 3.66.53 5.53-1.24-1.07-2.79-1.96-3.41-3.57zm-7.01.65c1.61-.03 3.14-.48 4.56-1.22.99 1.76 3.18 3.51 1.8 5.68-.68.21-2.06.63-2.74.85-.15-1.3-.29-2.59-.43-3.88-.91-2.21-1.09 1.83-.28 1.89-.56.47-1.67 1.41-2.23 1.88-1.28-1.51-1.55-3.42-.68-5.2zm54.79-.78c2.34 1.24 2.11 4.14.57 5.95-2.83-.81-1.17-4.15-.57-5.95z" fill="#fefefe"/>
    <path opacity=".98" d="M101.75 68.91c-.41-2.51 2.37-3.78 3.64-5.52 1.3 2.14 2.28 4.45 3.67 6.55-1.45.56-2.91 1.1-4.38 1.6.29-1 .65-1.99 1.13-2.92-.64-.31-1.28-.63-1.92-.94-.54.31-1.61.92-2.14 1.23zm-83.4-.55c2.49-1.38 5.05 1.28 3.89 3.75l-1.34-1.74c-.83 1.28-1.46 2.72-2.76 3.63.09.31.28.93.37 1.23-1.21-.02-2.43-.05-3.64-.09 1-1.25 1.91-2.82 3.82-2.51-.14-1.42-.25-2.84-.34-4.27zm88.37 3.66c3-2.52 4.68 1.55 5.67 3.75l-2.41-1.48.48 2.65c-.7-2.03-1.62-4.07-3.74-4.92zM47.37 97.64c.98.57 2.32.86 2.65 2.12-.22 1.24-1.88 2.82-2.67 1.07 0-.79.02-2.39.02-3.19z" fill="#fafafa"/>
</svg>
