<svg width="128pt" height="128pt" viewBox="0 0 128 128" xmlns="http://www.w3.org/2000/svg">
    <path d="M82.54 19.19l.81.08c4.74.5 9.54.16 14.24 1.08.47 4.91 1.95 9.72 1.67 14.69-.24 4.09-1.36 8.06-1.66 12.14-.19.44-.57 1.3-.76 1.74-4.83.03-9.65.02-14.47-.12l-.94-.04c-.05-1.88-.06-3.76-.11-5.64-2.92-3.47-1.18-8.05-1.62-12.11-.34-2.36.47-4.59 1.38-6.72.19-1.78.5-3.56 1.46-5.1zM22.72 26.8c1.77-.04 3.53-.08 5.3-.13.79 1.15 1.58 2.3 2.33 3.48.14 3.01.17 6.01.22 9.02-2.2 1.96-5.01 2.74-7.92 2.54-.32-4.97-.38-9.95.07-14.91zm10.03 2.85c14.83.45 29.67.21 44.5.22.28 3.02.21 6.06.11 9.08-14.97.24-29.94.03-44.91.14.2-3.14.26-6.29.3-9.44zm16.83 25.96c.35-.46 1.04-1.4 1.39-1.86 17.13-.68 34.28-.02 51.41-.22.14 3.71.18 7.41.12 11.12-6.27.62-13.09 1.39-17.93 5.88-.98.9-1.82 1.95-2.59 3.04-2.94 4.14-3.85 9.42-3.46 14.4.26 3.8 3.2 6.48 5.7 9-13.03-.72-26.07.51-39.1-.18 1.63-1.77 3.33-3.5 4.73-5.46 3.37-4.12 3.01-10.67-.98-14.23-2.71-1.84-6.03-2.38-9.1-3.37-.07-5.95-.09-11.9-.05-17.86 3.29-.14 6.57-.24 9.86-.26zm-35.94 1.52c8.11-.16 16.22-.13 24.34-.11 0 5.35.01 10.71-.03 16.06l-2.12-.2c-.68-.29-2.03-.85-2.71-1.14-.46-.25-1.39-.76-1.85-1.02-2.27-.88-4.36-2.28-6.12-3.97-.54-.86-1.29-1.45-2.26-1.77-1.8-1.04-3.44-2.41-4.72-4.05-.45-.92-1.13-1.58-2.06-2-.62-.45-1.85-1.35-2.47-1.8zm24.23 41.62c5.98-1.13 12.06-.81 18.1-.62 11.85.5 23.7-.25 35.55.16.19 2.36.41 4.72.66 7.08-18.08.61-36.17.46-54.26.3-.05-2.31-.06-4.61-.05-6.92z" fill="#9f2021"/>
    <path fill="#260808" opacity=".51" d="M83.35 19.27c4.67-.33 9.79-1.44 14.22.39 2.68 7.26 4.33 16.11.92 23.41-.09 2.08-.16 4.16-.24 6.24-5.26.34-10.76 1.14-15.88-.51 4.82.14 9.64.15 14.47.12.19-.44.57-1.3.76-1.74.3-4.08 1.42-8.05 1.66-12.14.28-4.97-1.2-9.78-1.67-14.69-4.7-.92-9.5-.58-14.24-1.08z"/>
    <path fill="#110303" opacity=".33" d="M21.9 26.86c1.52-1.59 3.93-.85 5.88-1.16 1.03.97 2.07 1.93 3.1 2.89 10.02-.55 20.06 0 30.09-.2 5.5.15 11.04-.4 16.51.3 2.44 3.09 2.08 8-.17 11.12l.05-.86c.1-3.02.17-6.06-.11-9.08l-.36-.76c-14.95-.16-29.9-.04-44.85-.01-.03 3.02-.07 6.04.18 9.06-.66-2.66-1.16-5.36-1.87-8.01-.75-1.18-1.54-2.33-2.33-3.48-1.77.05-3.53.09-5.3.13-.45 4.96-.39 9.94-.07 14.91l-.96-.01c-.2-4.93-.48-9.94.21-14.84z"/>
    <path fill="#681314" opacity=".89" d="M32.04 29.1c14.95-.03 29.9-.15 44.85.01l.36.76c-14.83-.01-29.67.23-44.5-.22-.04 3.15-.1 6.3-.3 9.44-.05-.23-.17-.7-.23-.93-.25-3.02-.21-6.04-.18-9.06z"/>
    <path fill="#1a0505" opacity=".45" d="M30.35 30.15c.71 2.65 1.21 5.35 1.87 8.01.06.23.18.7.23.93 14.97-.11 29.94.1 44.91-.14l-.05.86c-7.44.51-14.9.31-22.36.36-8.07-.07-16.19.38-24.21-.88-.78 1.04-1.56 2.09-2.34 3.14-2.26-.01-4.51-.24-6.71-.73l.96.01c2.91.2 5.72-.58 7.92-2.54-.05-3.01-.08-6.01-.22-9.02z"/>
    <path fill="#320a0a" opacity=".58" d="M48.93 54.67c1.55-2.45 4.62-1.87 7.09-1.97 15.69.1 31.4-.16 47.1.17.2 4.11.22 8.22.11 12.33-6.47.76-12.98 1.93-18.66 5.33 4.84-4.49 11.66-5.26 17.93-5.88.06-3.71.02-7.41-.12-11.12-17.13.2-34.28-.46-51.41.22-.35.46-1.04 1.4-1.39 1.86-3.29.02-6.57.12-9.86.26-.04 5.96-.02 11.91.05 17.86 3.07.99 6.39 1.53 9.1 3.37 3.99 3.56 4.35 10.11.98 14.23.95-4.4 2.58-10.34-1.52-13.62-4.2-2.62-9.36-2.92-13.85-4.94l1.35.11 2.12.2c.04-5.35.03-10.71.03-16.06-8.12-.02-16.23-.05-24.34.11h-.89c1.7-.55 3.44-1.06 5.24-1.03 6.74-.08 13.48-.12 20.21.22 3.18-2.15 7.11-1.53 10.73-1.65z"/>
    <path fill="#1d0607" opacity=".46" d="M16.11 58.93c.93.42 1.61 1.08 2.06 2-1.76.46-2.45-.2-2.06-2z"/>
    <path fill="#230707" opacity=".45" d="M22.89 64.98c.97.32 1.72.91 2.26 1.77-1.73.63-2.48.04-2.26-1.77z"/>
    <path fill="#150305" opacity=".43" d="M31.27 70.72c.46.26 1.39.77 1.85 1.02l-.81.43-.96-.52-.08-.93z"/>
    <path fill="#070101" opacity=".31" d="M78.52 87.97c-.39-4.98.52-10.26 3.46-14.4-1.17 4.73-3.2 9.48-2.48 14.44.47 3.61 3.41 6.09 5.81 8.55 2.08.51 4.17 1.05 6.21 1.73-11.85-.41-23.7.34-35.55-.16-6.04-.19-12.12-.51-18.1.62-.01 2.31 0 4.61.05 6.92l.01.57c17.81.13 35.63-.2 53.43.17-15.76.8-31.56.03-47.33.43-2.21-.2-4.83.38-6.75-.95-.83-2.47-.27-5.1-.14-7.64 2.63-.63 5.26-1.45 7.98-1.46 13.03.69 26.07-.54 39.1.18-2.5-2.52-5.44-5.2-5.7-9z"/>
</svg>
