<svg width="128pt" height="128pt" viewBox="0 0 128 128" xmlns="http://www.w3.org/2000/svg">
    <path d="M81.31 24.92c.15-2.02-.38-4.47 1.64-5.73 4.91.97 9.98-.57 14.83.89-.21 2.72.24 5.37 1.65 7.73-.53 5.06 1.26 10.62-1.62 15.17-.25 1.81.4 3.76-.25 5.49-3.02 1.3-6.42.42-9.61.68-2.14-.17-5.09.59-6.54-1.41-.06-1.59.09-3.17.15-4.74-2.78-2.71-1.61-6.65-1.78-10.08.01-2.73-.46-5.78 1.53-8zM22.64 41.65c-.32-4.98-.53-10 .13-14.96 1.72.01 3.44.02 5.15.04.85 1.05 1.72 2.09 2.61 3.11.08 2.91.06 5.83.08 8.74-.94 1.03-1.87 2.06-2.8 3.1l-5.17-.03zm9.56-12.44c15.06.06 30.13.04 45.19.07.16 3.28.18 6.57-.12 9.85-15 .15-30 .19-45-.02-.17-3.3-.13-6.6-.07-9.9z" fill="#fff"/>
</svg>
