<svg width="128pt" height="128pt" viewBox="0 0 128 128" xmlns="http://www.w3.org/2000/svg">
    <g fill="#fff">
        <path d="M67.61 21.5c.15-2.48 1.12-4.73 2.89-6.47-.11 1.29-.2 2.58-.26 3.87.24 2.07 2.39 2.82 3.75 4.05-.3.63-.9 1.88-1.19 2.5 3.57-2.01 7.67-2.5 11.46-3.94-2.08 2.49-5.55 3.45-7 6.48.34.59 1.04 1.76 1.38 2.35-1.57-.37-3.16-.66-4.51.53 2.75 1.84 5.71 3.87 9.01 1.89-.32.56-.97 1.69-1.29 2.26 2.04 1.77 4.96 3.22 5.44 6.15.1 3.03-2.26 5.28-3.23 7.96-.1 1.75 1.25 2.71 2.67 3.38 1.06-.77 2.12-1.53 3.2-2.26-1.08 1.94-3.19 4.32-5.42 2.33-3.08-2.51-.11-6.16 1.11-8.8 1.21-2.7-1.34-4.89-2.81-6.82-.26.45-.79 1.33-1.05 1.77-1.05-.64-1.95-2.05-3.35-1.5-.6.74-1.78 2.21-2.37 2.95.41.28 1.23.85 1.64 1.13-2.07 3.67-6.95 3.66-10.64 3.72.83-1.26 1.62-2.55 2.38-3.85-3.43.54-6.81 1.7-9.88 3.33-1.75 1 .08 3.09 1.14 3.85.69-.63 2.05-1.88 2.74-2.51-.8 1.02-.89 3.09-2.52 3.17-2.85.38-4.45-3.58-2.41-5.43 2.16-1.82 5.03-2.33 7.62-3.21-.78-1.09-1.59-2.16-2.47-3.17l.08-2.58c-1.74 2.3-3.47 4.64-5.88 6.3 1.06-2.11 2.22-4.16 3.18-6.32-2.48 1.07-4.02 3.23-5.49 5.37-.04-1.05-.1-3.15-.13-4.2-1.06.96-2.1 1.94-3.13 2.94.38-2.1 1.07-3.82 3.46-3.16-.45-.54-.9-1.07-1.37-1.59 2.14-1.31 5.63-1.35 6.03-4.46-3.08 1.81-6.35 3.58-8.68 6.36-.26-1.52-.58-3.03-1.11-4.47.25 3.71.26 7.43-.14 11.14-.99-1.52-1.91-3.08-2.8-4.66-.75 4.1-2.26.08-3.62-1.07 1.07 3.81.81 8.05 3.05 11.47-1.37-.61-2.75-1.2-4.12-1.79.87 2.14 1.85 4.24 2.98 6.26-.58 1.57-1.13 3.15-1.55 4.76 1.52-.9 2.54-2.34 3.55-3.74.91.49 1.81 1.01 2.7 1.55-.07 1.53-.12 3.05-.15 4.58 1.55-1.08 1.63-3.04 2.28-4.63 1.21.14 2.42.26 3.62.51.15 1.32.25 2.65.3 3.98l.87.11c.28-1.36.56-2.71.85-4.07 1.08.01 3.24.02 4.33.02-.07 1.58-.15 3.16-.2 4.74.25-.13.75-.38 1-.51.29-1.23.59-2.46.9-3.68 1.02.21 3.06.64 4.08.86-.11 1.95-.61 3.96.3 5.81.83-1.37 1.6-2.79 2.36-4.21 1.79.98 3.53 2.05 5.25 3.16-.58 1.52-2.84 2.79-1.87 4.58 1.62-.25 2.76-1.57 4.12-2.36.89 1.33 1.77 2.66 2.64 3.99-1.36 1.35-2.76 2.71-3.71 4.4 1.64-.57 3.2-1.31 4.77-2.04.81 1.62 1.56 3.27 2.31 4.92-1.36.89-2.71 1.78-4.04 2.71 1.5.39 2.99.8 4.48 1.23.31 1.99.05 4.01-.02 6.01-1.87-.18-3.75-.34-5.63-.49 1.59 1.26 3.17 2.53 4.69 3.88-.53 1.39-1.24 2.75-1.14 4.29 1.64-2.14 3.79-3.5 6.32-2.01-2.01.75-4.23 1.26-5.68 3 1.27.6 2.55 1.19 3.83 1.77-1.6-.15-3.21-.19-4.82-.12.01 2.69 1.68 5.05 2.02 7.71-2.54-2.81-3.94-6.4-5.88-9.61.81.12 2.42.35 3.22.47-1.19-1.17-2.2-2.84-3.99-3.07-1.51-.39-2.33 1.1-3.28 1.92.67.42 2.02 1.24 2.7 1.66.57 1.52 1.12 3.06 1.63 4.61-3.16-1.71-6.75-1.71-10.15-.87.69 2.01 1.26 4.06 1.52 6.18-2.54-.88-5.03-1.93-7.67-2.45-.68 2.17-1.32 4.35-2.03 6.52-2.77-1.93-5.67-3.96-9.21-3.94.69 1.83 1.58 3.58 2.49 5.32-3.83-1.02-7.44-2.67-11.03-4.33-6.81-3.07-11.66-9.1-15.8-15.11-2.23-2.89-2.03-6.7-1.68-10.12.93 3.32 1.6 6.97 4.45 9.27.53-1.27 1.07-2.54 1.59-3.81.42 3.77 1.53 7.57 4.55 10.08.77-1.29 1.53-2.57 2.33-3.84.09 5.72 4.68 10.55 10.53 10.35-.58-1.31-1.17-2.62-1.77-3.92 4.09 3.34 10.18 4.15 14.58.93 1.65-2.42-1.47-4.29-2.73-6.07 3.67 1.64 7.86.95 11.63.02-1.13-1.31-2.26-2.63-3.35-3.99 2.99.18 6.59-.17 8.01-3.27 4.83-9.21-1.63-21.49-11.42-24.02-.52.3-1.55.9-2.07 1.2-1.62-2.23-4.57-1.32-6.9-1.38-4.88.55-10-.25-14.06-3.15-.04.87-.13 2.63-.18 3.5-3.35-3.59-5.67-8.31-5.3-13.32-.46.62-1.38 1.85-1.84 2.47-.97-5.32 1.69-9.98 4.22-14.38-3.08.61-6.1 1.51-9.18 2.14 2.62-2.97 6.11-4.89 9.3-7.14-2.18.2-4.36.42-6.54.66 3.7-2.94 8.21-4.36 12.87-4.79-1.31-2.01-3.65-2.48-5.79-3.14 3.43-.97 6.89.41 10.35.26l-1.56-3.54c1.9.83 3.71 1.93 5.76 2.35-.46-1.29-.97-2.56-1.53-3.82 2.59.75 4.93 2.14 7.53 2.84-.56-1.26-1.16-2.51-1.8-3.74 2.55.7 4.99 1.72 7.39 2.82l-.21-1.98c.8.31 2.4.95 3.2 1.27m-2.15 8.29c2 1.52 4.42 2.17 6.91 2.21-.05-.54-.15-1.61-.21-2.15-2.23-.17-4.48-.4-6.7-.06m.11 5.82c1.1 2.73 5.88 1.6 4.4 5.66 2.13-1.61 3.78.03 5.09 1.76 1.26-1.7.25-3.79.1-5.66l-3.3.32c-.89-1.13-1.8-2.25-2.77-3.32-1.18.41-2.35.82-3.52 1.24z"/>
        <path d="M60.99 69.26c1.24-1.63 1.86-3.63 3.04-5.29 1.68-.53 3.12.87 4.56 1.49-2.78-.27-5.31.53-6.04 3.44 2.04.18 3.81 1.04 5.12 2.62-1.57-.38-3.13-.75-4.7-1.12 1.9 2 3.57 4.3 3.13 7.24-1.34-1.83-2.65-3.69-4.16-5.39-.21.71-.62 2.13-.83 2.84l-2 .64c.48-1.28.97-2.56 1.44-3.85-.62-.35-1.87-1.05-2.49-1.41-2.5 1.75-5.47 2.52-8.43 1.33 1.73-.51 3.49-.87 5.25-1.25-.54-.23-1.61-.69-2.14-.92 2.91-.89 5.37-2.84 6.67-5.63.53 1.76.82 3.59 1.58 5.26z"/>
    </g>
</svg>
