<svg width="128pt" height="128pt" viewBox="0 0 128 128" xmlns="http://www.w3.org/2000/svg">
    <path fill="#fff" d="M80.9 25.29c11.37 4.09 20.76 13.32 25.25 24.52 4.88 11.75 4.34 25.64-1.34 37.02-5.09 10.46-14.55 18.33-25.4 22.3-.39-.56-.79-1.12-1.19-1.67-5.77 4.13-13.57 3.47-20.31 3.21-2.47.25-3.52-2.09-4.47-3.92 3.05-.35 4.99 2.57 7.6 3.64 1.51-1.87 2.5-4.05 2.85-6.43 2.46.76 4.99 1.84 7.62 1.5.95-1.89-.18-4-.29-5.96 2.51-.18 4.99.22 7.32 1.15.67-.53 1.35-1.05 2.03-1.57.33 2.41.86 5.3-1.15 7.19.56.36 1.13.72 1.69 1.07C90.86 103 99.37 95.6 104 85.88c6.66-13.46 5.67-30.42-2.8-42.87-4.69-7.4-11.82-12.97-19.79-16.46-.13-.32-.38-.95-.51-1.26z"/>
    <path fill="#fbfbfb" d="M28.39 41.36c2.31-1.14 4.79-1.86 7.17-2.83-2.88 4.28-3.77 9.59-2.97 14.65l2-1.16c.1 4.99 2.96 9.65 7.17 12.27l.04-3.79c4.85 3.41 11.2 3.57 16.8 2.29-.75 3.01-4 4.1-6.36 5.61-.24.52-.73 1.56-.97 2.08-1.16-.28-2.32-.59-3.46-.94.63 1.08.93 2.54 2.2 3.07 2.79 1.56 5.83-.99 8.72-.29.52 1.69-.67 3.24-1.21 4.77 2.16-.25 3.9-1.52 5.54-2.85 1.02 1.86 1.88 3.79 2.64 5.76.81-2.33 1.14-4.78.97-7.24.62.6 1.86 1.82 2.48 2.42.16-3.36-1.96-5.72-4.05-8.01 2.74-1.64 5.19.78 6.86 2.76 3.25 4.5 4.83 10.53 2.64 15.85-2.22 2.36-5.41 2.89-8.53 2.55.68 1.65 1.37 3.3 2.09 4.94-3.34.4-7.06.86-9.64-1.82-.27 2.85 3.3 6.38.49 8.64-4.27 2.23-8.68-.97-12.12-3.32-.15 1.4-.28 2.8-.37 4.2-4.89-1.51-6.99-6.46-6.94-11.25-1.74 1.23-2.88 3.02-3.93 4.83-2.27-2.96-2.3-6.8-2.8-10.33-1.24 1.27-2.36 2.65-3.39 4.09-1.82-3.16-2.53-6.78-2.52-10.4-2 1.8-2.38 4.51-2.89 7-5.59-11.22-4.95-24.72-.31-36.15 1.21-2.65 2.59-5.3 4.65-7.4z"/>
</svg>
