<svg width="128pt" height="128pt" viewBox="0 0 128 128" xmlns="http://www.w3.org/2000/svg">
    <path opacity=".82" d="M64.15 12.07l.82.16c1.18 2.83 2.12 5.76 2.99 8.71.4 3.56 1.29 7.05 1.85 10.62-.66 1.81-1.03 3.69-1.62 5.52-.76-3.94-1.94-7.99-.38-11.95-.48.33-1.43.97-1.9 1.3-.01-.68-.04-2.03-.05-2.7.43-.88.84-1.77 1.22-2.67-.49.3-1.48.91-1.98 1.21l-.2-2.48-.86.13c-.03.59-.09 1.76-.13 2.34-.49-.3-1.49-.91-1.98-1.22.33 1.34.82 2.63 1.18 3.95-.02.71-.05 2.13-.07 2.84-1.01-.49-1.63-1.4-1.83-2.75-.31 1.77 1.76 3 1.07 4.76-.52 2.84-.34 5.87-1.36 8.59-1.02-2.15-1.19-4.56-1.79-6.83.54-4.78 1.75-9.46 2.91-14.13.48.31 1.44.92 1.91 1.23l.67.27.17-.71-.73-.3c-.43-.17-1.27-.51-1.7-.69.4-1.8 1.25-3.44 1.79-5.2zM17.77 38.85c1.33-.32 2.68-.22 4.06.29 2.34.71 4.77 1.1 7.13 1.74 4.87 1.31 9.47 3.4 14.15 5.23l.18.7-.04.82h.62l.22-.88c.49.22 1.46.67 1.94.89-.9.61-1.69 1.35-2.36 2.2-3.94-1.88-7.89-3.84-12.13-4.95 0-.37-.01-1.09-.01-1.45-.36.22-1.07.66-1.43.88-1.59-.75-3.29-1.19-5.04-1.3.3.36.9 1.09 1.2 1.46-.48.37-1.45 1.13-1.94 1.5l-.26.19c-.26-.33-.8-.99-1.06-1.33-.78-1.07-1.71-2.01-2.71-2.88-.95-.94-1.92-1.89-2.52-3.11m6.46 2.43l.07.69c.42-.02 1.26-.07 1.68-.09l-.08-.76-1.67.16z" fill="#71181b"/>
    <path fill="#c63031" d="M64.06 17.96l.73.3-.17.71-.67-.27.11-.74z"/>
    <path fill="#1f0707" opacity=".45" d="M64.04 19.92l.86-.13.2 2.48c.5-.3 1.49-.91 1.98-1.21-.38.9-.79 1.79-1.22 2.67-.42-.12-1.27-.37-1.7-.49-.26.44-.78 1.32-1.05 1.75-.36-1.32-.85-2.61-1.18-3.95.49.31 1.49.92 1.98 1.22.04-.58.1-1.75.13-2.34z"/>
    <path fill="#270909" opacity=".39" d="M67.96 20.94c1.44 1.73 1.52 3.92 1.52 6.06 1.56 3.78.71 8.01 1.65 11.98.74 3-.6 6.56 1.78 8.99-1.85-.27-3.76-1.13-5.58-.25.9-7.13-.94-14.21-1.42-21.29.47-.33 1.42-.97 1.9-1.3-1.56 3.96-.38 8.01.38 11.95-.32 3.1-.11 6.24.34 9.31.62.04 1.85.13 2.47.17-.04-2.04.14-4.19-.69-6.11.29-2.96-.34-5.93-.5-8.89-.56-3.57-1.45-7.06-1.85-10.62z"/>
    <path fill="#bd2c31" d="M59.13 31.6c.6 2.27.77 4.68 1.79 6.83.6 3.85-1.44 8.31 1.96 11.39-.36.88-.77 1.73-1.24 2.56l-.86.33-.24.97c-.28 1.51-.21 3.05-.37 4.57-1.95-1.48-7.28-2.04-5.46-5.45 1.1.45 2.2.91 3.28 1.38-.72-6.75 1.27-13.43.97-20.12.04-.62.13-1.85.17-2.46z"/>
    <path fill="#ab2728" opacity=".95" d="M68.19 37.08c.59-1.83.96-3.71 1.62-5.52.16 2.96.79 5.93.5 8.89.83 1.92.65 4.07.69 6.11-.62-.04-1.85-.13-2.47-.17-.45-3.07-.66-6.21-.34-9.31z"/>
    <path fill="#3d0d0e" opacity=".52" d="M57.33 47.46c1.1-4.39-.6-9.42 1.63-13.4.3 6.69-1.69 13.37-.97 20.12-1.08-.47-2.18-.93-3.28-1.38-1.82 3.41 3.51 3.97 5.46 5.45.16-1.52.09-3.06.37-4.57.14 1.72.46 3.43.35 5.16-.91-.15-2.72-.46-3.62-.62.44 1.48.57 2.87.4 4.18-.89.01-2.67.04-3.56.05.55.67 1.65 2.02 2.19 2.7-3.8-1.3-7.25-3.63-10.53-5.94l1.76-.24c2.27 3.12 6.16 2.95 9.61 2.93.17-2.87-3.57-5.28-3.66-8.41 1.13-1.05 2.52-1.75 3.76-2.64.02-.85.07-2.54.09-3.39z"/>
    <path fill="#190506" opacity=".34" d="M21.83 39.14c2.36.14 5.54-.44 7.13 1.74-2.36-.64-4.79-1.03-7.13-1.74z"/>
    <path opacity=".98" d="M105.12 39.51c1.91-.34 3.85-.57 5.73-1.06-.15 2.04-2.18 3.25-3.28 4.85-.53-1.44-.83-3.18-2.45-3.79zM39.07 73.32c1.23-1.02 2.63-1.85 3.92-2.82.53 0 1.58 0 2.11-.01-.02.56-.06 1.68-.09 2.24-1.25.79-2.5 1.59-3.75 2.38-1.25.82-2.37.67-3.58-.07.35-.43 1.04-1.29 1.39-1.72zm18.96 11.67c1.45-.94 3.27.12 2.81 1.85.46 3.79-.3 7.57-.56 11.35-.26.26-.77.79-1.03 1.05-.18-4.77-.99-9.48-1.22-14.25z" fill="#a82728"/>
    <path fill="#75191b" opacity=".78" d="M101.03 40.97c.56-1.64 2.8-.98 4.09-1.46 1.62.61 1.92 2.35 2.45 3.79-5.65 6.26-12.31 11.55-19.38 16.1-1.52.5-3.41 2.87-4.47.5.38-1.17 1.44-1.9 2.22-2.78 6.47-4.04 12.72-8.52 18.03-14.02-1.35.05-2.75.08-3.96.75-.83-.69-1.65-1.39-2.46-2.09.38-.16 1.14-.48 1.51-.64.78 1.23 1.44 1.18 1.97-.15z"/>
    <path fill="#330b0b" opacity=".68" d="M24.23 41.28l1.67-.16.08.76c-.42.02-1.26.07-1.68.09l-.07-.69z"/>
    <path fill="#9a2324" opacity=".91" d="M99.06 41.12c.5-.04 1.48-.11 1.97-.15-.53 1.33-1.19 1.38-1.97.15z"/>
    <path fill="#0c0303" opacity=".25" d="M20.29 41.96c1 .87 1.93 1.81 2.71 2.88-1.5 1.4-4.09-1.46-2.71-2.88z"/>
    <path opacity=".83" d="M81 48.6c5.3-2.69 10.87-5.38 16.55-6.84.81.7 1.63 1.4 2.46 2.09l-1.09.46c-2.16-1.87-3.27.24-5.28.55l.21 1.09c-3.74 1.22-7.09 3.3-10.68 4.87-.71-.75-1.44-1.49-2.17-2.22zm-56.68-2.62c.49-.37 1.46-1.13 1.94-1.5 5.7 5.49 12.29 9.89 18.86 14.24-.9.04-2.1-.62-2.77.3.16.4.48 1.2.65 1.59-3.24-1.25-5.78-4.03-8.8-5.8-3.34-2.87-7.25-5.32-9.88-8.83z" fill="#821e20"/>
    <path fill="#c22b30" opacity=".98" d="M43.29 46.81l.8-.06-.22.88h-.62l.04-.82z"/>
    <path fill="#972223" opacity=".89" d="M43.67 49.84c.67-.85 1.46-1.59 2.36-2.2 1.8 1.25 4.42 1.58 5.75 3.17l-1.1.98c-.46.14-1.38.41-1.84.55-1.76-.74-3.44-1.67-5.17-2.5z"/>
    <path d="M50.68 51.79c2.42-1.01 3.87-3.76 6.65-4.33-.02.85-.07 2.54-.09 3.39-1.24.89-2.63 1.59-3.76 2.64.09 3.13 3.83 5.54 3.66 8.41-3.45.02-7.34.19-9.61-2.93 1.82-.09 3.65-.07 5.47-.16-1.47-2.06-2.12-4.99-4.16-6.47.46-.14 1.38-.41 1.84-.55zm26.17 11.12c1.12-.25 3.67-1.45 3.45.79-.59.4-1.78 1.19-2.38 1.59 1.26 2.27 4.62 2.93 6.78 4.46 8.57 5.3 16.75 11.46 23.55 18.95.88 1.35 2.35 2.39 2.76 4.01-1.79-.5-3.64-.57-5.48-.69 1.28-.43 2.17-1.22 2.68-2.36-2.13-.68-3.98 1.46-6.17 1.38.05-1.75 3.03-.86 2.74-2.78-.68-.91-1.5-1.7-2.32-2.48-2.58-1.26-4.52-3.8-7.02-5.36l-.33-.79c-.49-1.55-2.18-4.76-3.99-2.79-2.76-.75-4.89-3.29-7.58-4.45-1.1-.3-1.66-1.24-1.82-2.28l-1.38.65c-1.95-2.55-6.55-2.93-7.75-5.68 1.44-.67 2.74-1.63 4.26-2.17zm-31.02 9.17c-.87-2.87-1.09-6.17-.28-9.04 4.29-.17 1.14 4.9 3.54 6.63 2.96.48 6.02-.15 9.02.03-.86 2.47-2.9 4.3-4.03 6.67-.48.23-1.44.71-1.92.95l-1.58-.68c.42-.62 1.28-1.87 1.7-2.49.25-.54.74-1.61.99-2.15-2.48-.13-4.97.2-7.44.08zm22.85.44c2.21 1.52 5.22 1.99 6.67 4.44-.44 2.77-3.09 1.45-4.15.06.7 5.16-.34 10.29-.42 15.43l-1.56-.03c.38.07 1.15.2 1.54.27-.3 4.61-1.65 9.16-1.49 13.77-2.77-1.13-1.68-4.36-2.4-6.65.53.47 1.57 1.41 2.09 1.88.65-3.24-1.09-6.43-.69-9.72.61-6.46.25-12.96.41-19.45zm10.51 6.17c3.88 1.2 7.66 4.12 11.76 5.47-.65.68-1.29 1.36-1.93 2.06-3.66-1.89-8.23-3.25-11.11-5.78l1.28-1.75z" fill="#b52c29"/>
    <path d="M67.33 47.72c1.82-.88 3.73-.02 5.58.25l2.25 1.25c.97 2.46 3.33 1.44 4.8.11L81 48.6c.73.73 1.46 1.47 2.17 2.22-1.01.43-2.01.89-3 1.37-3.6 1.66-7.04 3.67-10.37 5.81l-1.21-.29c.4-2.29-1.19-6.46 2.16-6.95.07.86.22 2.59.29 3.45 1.8-.94 4.34-1.47 5.34-3.3-2.21 1.25-4.16.07-6.21-.79-2.09.55-2.99 2.91-4.08 4.58l-1.12 2.77c-1.89-.12-1.58-2.95-3.29-3.55l-.04-1.54c.47-.83.88-1.68 1.24-2.56l.73 1.13c.26.44.79 1.33 1.06 1.78.57-.85 1.05-1.75 1.42-2.7.31-.58.93-1.73 1.24-2.31zM54.08 76.37c2.06-1.58 4.45-2.56 6.57-4.09.91 2.54 1.32 7.05-1.43 8.74-1.49-.75-1.96-2.07-1.4-3.99-3.11 2.18-6.55 3.83-9.94 5.6l-1.34-1.5c.42-.46 1.28-1.38 1.7-1.84 1.38-.66 2.2-2.28 3.92-1.97.48-.24 1.44-.72 1.92-.95z" fill="#c62c31"/>
    <path fill="#27090a" opacity=".4" d="M75.16 49.22c1.55.18 3.45-1.04 4.8.11-1.47 1.33-3.83 2.35-4.8-.11z"/>
    <path fill="#240808" opacity=".44" d="M63.61 50.95l2.48-.92c-.37.95-.85 1.85-1.42 2.7-.27-.45-.8-1.34-1.06-1.78z"/>
    <path fill="#440f10" opacity=".58" d="M66.09 54.7c1.09-1.67 1.99-4.03 4.08-4.58 2.05.86 4 2.04 6.21.79-1 1.83-3.54 2.36-5.34 3.3-.07-.86-.22-2.59-.29-3.45-3.35.49-1.76 4.66-2.16 6.95l1.21.29c3.33-2.14 6.77-4.15 10.37-5.81-1.11 2.1-2.76 4.1-3 6.51 3.03.04 6.26.49 8.77-1.58-.78.88-1.84 1.61-2.22 2.78 1.06 2.37 2.95 0 4.47-.5-.89 1.24-2.06 2.18-3.63 2.33-.16 2.64-.31 5.38.14 8.02-2.16-1.53-5.52-2.19-6.78-4.46.6-.4 1.79-1.19 2.38-1.59.22-2.24-2.33-1.04-3.45-.79-.73-.29-2.18-.88-2.91-1.18 2.17-.5 4.44-.31 6.64-.14 1.87 1.27-.09 3.53.49 5.29.84.72 1.81 1.15 2.91 1.28-.22-2.95.66-6.31-1.04-8.93-2.38-.15-4.78.05-7.16-.14.46-1.72 2.09-2.91 2.08-4.79-3.62.95-5 4.86-6.47 7.89-1-1.52 1.12-3.22 1.5-4.65-2.26-1.29-2.7 2.79-5.03 1.47-.51-1.42 1.18-5.63-1.77-4.31z"/>
    <path d="M71.39 62.19c1.47-3.03 2.85-6.94 6.47-7.89.01 1.88-1.62 3.07-2.08 4.79 2.38.19 4.78-.01 7.16.14 1.7 2.62.82 5.98 1.04 8.93-1.1-.13-2.07-.56-2.91-1.28-.58-1.76 1.38-4.02-.49-5.29-2.2-.17-4.47-.36-6.64.14-.63.12-1.91.34-2.55.46zm-29.04-3.17c.67-.92 1.87-.26 2.77-.3l.65.49c3.28 2.31 6.73 4.64 10.53 5.94l.08.77c-2.51.97-4.6 3.2-7.42 3.12-.73-2.03 2.17-2.27 2.04-3.87-2.43-1.21-4.61-2.85-7.08-3.98l-.92-.58c-.17-.39-.49-1.19-.65-1.59z" fill="#d63031"/>
    <path fill="#340c0c" opacity=".51" d="M43.92 61.19c2.47 1.13 4.65 2.77 7.08 3.98.13 1.6-2.77 1.84-2.04 3.87 2.82.08 4.91-2.15 7.42-3.12l-1.02 1.25-.1 1.48c1.4-.44 2.35-.09 2.85 1.05-3-.18-6.06.45-9.02-.03-2.4-1.73.75-6.8-3.54-6.63-.81 2.87-.59 6.17.28 9.04 2.47.12 4.96-.21 7.44-.08-.25.54-.74 1.61-.99 2.15-1.06-3.16-4.91-.75-7.27-1.42.03-.56.07-1.68.09-2.24-.53.01-1.58.01-2.11.01 2.51-2.29 2.07-6.46.93-9.31z"/>
    <path fill="#c22c2e" opacity=".98" d="M71.11 69.33c2.27-.08 4.55-.07 6.82-.06 1.3.95 2.74 1.73 3.82 2.95-1.96-.07-3.92-.07-5.88-.01.95 1.91 2.65 3.44 3.11 5.56-.87 3.18-4.21 5.27-7.24 5.9l.28-3.7c1.44-.6 3.17-1.3 3.6-2.99-1.63-2.46-3.17-5-4.51-7.65z"/>
    <path fill="#591416" opacity=".76" d="M28.17 81.19c3.75-2.43 6.76-6.18 10.9-7.87-.35.43-1.04 1.29-1.39 1.72 1.21.74 2.33.89 3.58.07-5.18 4.13-11.5 7.42-15.29 12.94 7.93-1.33 14.97-5.67 22.27-8.76-.42.46-1.28 1.38-1.7 1.84l1.34 1.5c-9.26 5.18-19.53 8.84-30.07 10.26 2.35-4.67 6.67-8.08 10.36-11.7m-2.05 7.92l.04.72c.41.01 1.24.02 1.65.03l-.03-.72c-.41-.01-1.25-.02-1.66-.03z"/>
    <path fill="#461011" opacity=".58" d="M67.43 78.2c.31-1.91.42-3.91 1.25-5.68-.16 6.49.2 12.99-.41 19.45-.4 3.29 1.34 6.48.69 9.72-.52-.47-1.56-1.41-2.09-1.88.54-5.17 1.48-10.58.61-15.74-1.22-1.24-1.84-4.72-4.1-3.21.2-.53.6-1.57.8-2.1 1.81.27 1.74 3.4 3.88 2.85-.11-1.16-.32-2.29-.63-3.41z"/>
    <path fill="#b82a2d" opacity=".97" d="M64.15 73.74c1.8.3 2.21 3.08 3.28 4.46.31 1.12.52 2.25.63 3.41-2.14.55-2.07-2.58-3.88-2.85-.2.53-.6 1.57-.8 2.1-.55 1.12-1.19 2.19-1.93 3.2-1.89.37-3.78-.15-5.56-.75-1.12-.67-2.44-1.13-3.3-2.14 1.5-3.26 4.52-1.4 6.44.27.96-.61 2.39-1.19 2.43-2.52.2-2.03 2.23-3.21 2.69-5.18z"/>
    <path fill="#631716" opacity=".74" d="M91.12 76.84c1.81-1.97 3.5 1.24 3.99 2.79-1.35.34-3.55-1.53-3.99-2.79z"/>
    <path fill="#250809" opacity=".42" d="M55.89 83.31c1.78.6 3.67 1.12 5.56.75-.33 3.99.3 7.96.86 11.9l-.31.42c-1.35 1.58-2.2 3.57-2.46 5.63-1.65-2.34-.57-5.4-1.45-7.99-1.4-3.52.99-7.91-2.2-10.71m2.14 1.68c.23 4.77 1.04 9.48 1.22 14.25.26-.26.77-.79 1.03-1.05.26-3.78 1.02-7.56.56-11.35.46-1.73-1.36-2.79-2.81-1.85z"/>
    <path fill="#6e191a" opacity=".78" d="M90.95 84.16c1.94.48 3.63 1.73 5.67 1.87-.05.47-.16 1.42-.21 1.89.1-.35.3-1.07.4-1.43.61.13 1.82.38 2.42.5.01.4.01 1.18.01 1.57 1-.41 2.04-.6 3.11-.56-.22 1.13-.98 1.93-2.27 2.39-3.72-1.08-7.77-2.26-11.06-4.17.64-.7 1.28-1.38 1.93-2.06z"/>
    <path fill="#360c0c" opacity=".51" d="M102.46 85.78c.82.78 1.64 1.57 2.32 2.48.29 1.92-2.69 1.03-2.74 2.78 2.19.08 4.04-2.06 6.17-1.38-.51 1.14-1.4 1.93-2.68 2.36-1.79-.41-4.08-.26-5.45-1.63 1.29-.46 2.05-1.26 2.27-2.39-1.07-.04-2.11.15-3.11.56 0-.39 0-1.17-.01-1.57.76.13 2.28.37 3.04.49l.19-1.7z"/>
    <path fill="#350c0c" opacity=".58" d="M26.12 89.11c.41.01 1.25.02 1.66.03l.03.72c-.41-.01-1.24-.02-1.65-.03l-.04-.72z"/>
    <path fill="#721a1b" opacity=".83" d="M59.54 102.01c.26-2.06 1.11-4.05 2.46-5.63.21 1.59.21 3.18-.01 4.75-1.08 1.26-1.86 5 .99 3.87 1.05 2.07-.41 3.79-1.15 5.65l-.92-.13c.18-2.94-1.31-5.59-1.37-8.51z"/>
    <path fill="#3b0d0e" opacity=".57" d="M61.99 101.13c1.35.43 1.53 2.72.99 3.87-2.85 1.13-2.07-2.61-.99-3.87z"/>
    <path fill="#751b1d" opacity=".83" d="M66.05 104.24c.6 1.27 1.18 2.59 2.36 3.44.02 2.45-1.17 4.66-1.55 7.05-.65-.84-1.17-1.75-1.55-2.73.1 1.37-.26 2.63-1.16 3.69.49-.13 1.47-.37 1.96-.5.13 1.68-1.14 2.87-1.81 4.26-.54-1.88-1.78-3.63-1.76-5.62l.98-.44c.07-.29.22-.87.3-1.16-.47.36-1.39 1.09-1.86 1.45-1.39-2.31.87-3.29 1.16-5.34l1.09.01c0 .77.01 2.32.01 3.1.21-.54.64-1.62.85-2.16l.83.04.48 1.43.52-.34c-.41-.73-.87-1.43-1.36-2.1.13-1.02.38-3.06.51-4.08z"/>
    <path fill="#250909" opacity=".43" d="M65.31 112c.38.98.9 1.89 1.55 2.73-.56 1.78.05 4.71-2.39 5.11l-.17-.39c.67-1.39 1.94-2.58 1.81-4.26-.49.13-1.47.37-1.96.5.9-1.06 1.26-2.32 1.16-3.69z"/>
</svg>
