<svg width="128pt" height="128pt" viewBox="0 0 128 128" xmlns="http://www.w3.org/2000/svg">
    <path d="M62.12 17.87c.88-2.05 1.67-4.13 2.46-6.21 1.03 3.45 3.93 7.66.62 10.8.07-.76.22-2.28.29-3.04-.53.08-1.6.24-2.13.33.15-.6.46-1.8.62-2.4l-1.86.52m2.1-2.63c.67.54.67.54 0 0m.98 2.98c.67.55.67.55 0 0zM43.95 81.76c5.69-3.29 11.59-6.27 17.24-9.65-.07 3.05.03 6.21-1.09 9.11-2.49-.07-2.06-2.46-2.26-4.21-6.79 4.23-14.02 7.79-21.5 10.62 2.62-1.87 5.99-2.88 7.61-5.87z" fill="#fdfdfd"/>
    <path fill="#dadada" opacity=".85" d="M62.07 18.43l.9.02.39.86c-.3.12-.91.38-1.21.51l-.5-.55.42-.84z"/>
    <path opacity=".88" d="M60.88 20.35c.85.94 1.64 1.94 2.46 2.92-.31 1.44-.38 2.92-.43 4.39-.58-1.42-1.18-2.83-1.79-4.24l-.24-3.07zm8.27 10.84c.19.09.58.27.78.36.31 5.1 1.14 10.17 1.12 15.3-.71-.08-2.11-.22-2.82-.3-.14-4.14-.15-8.31-.82-12.41.26.15.76.46 1.02.61-.07-1.25.17-2.44.72-3.56zm-8.63 75.83c.8-.61 1.62-1.22 2.47-1.77.09 1.26-.23 5.04-2.01 4.31-.11-.63-.35-1.9-.46-2.54zm.85 4.63c.34-.21 1.03-.64 1.38-.86 1.44 1.65-1.14 3.44-1.38.86z" fill="#e0e0e0"/>
    <path fill="#c5c5c5" opacity=".77" d="M63.03 21.05c.69.6.69.6 0 0z"/>
    <path d="M67.17 19.76c1.13 3.32 1.93 6.77 2.23 10.26-.98.58-1.81 1.35-2.48 2.3.3-2.82.7-5.62 1.09-8.43-.49.94-1.46 2.82-1.94 3.76.12-2.66.24-5.35 1.1-7.89zM28.5 43.99c.49-1.53 2.15-1.58 3.37-2.12 6.79 2.58 13.44 5.52 19.9 8.86-.69.7-1.39 1.4-2.1 2.09-4.31-2.2-8.45-5.07-13.19-6.19.58-.4 1.72-1.19 2.29-1.59-1.16.26-3.48.79-4.64 1.05l1.88-2.05c-1.62.4-3.26.74-4.9 1.03.54-.5 1.62-1.51 2.16-2.01-1.58.37-3.17.71-4.77.93zm-10.76 48.7c7.3-9.4 16.86-16.8 26.95-22.98l.66 2.67c-5.17 3.12-10.24 6.49-14.78 10.5l-1.62-1.04.81 1.81c-.95.72-1.89 1.46-2.8 2.22-.78 2.5-5.02.56-4.41 3.83l-1.67.28.26.51c1.17.02 3.25-.33 3.73.99-2.35.55-4.79.62-7.13 1.21zm50.85-20.25c2.21 1.75 6.41 2.24 6.59 5.57-1.4 1.34-2.75-.45-4.08-.86.08 8.24-.02 16.66-1.93 24.71-1.6-5.84-.88-11.95-.82-17.92.02-3.84-.07-7.67.24-11.5zm10.84 6.23c1.9.97 3.92 1.77 5.63 3.06 1.38 3.04 5.05 3.27 7.07 5.63-4.89-1.82-9.57-4.16-14.23-6.5.38-.55 1.15-1.65 1.53-2.19zM58.1 84.79c.68.07 2.03.22 2.7.29.07 1.9.2 3.8.09 5.7-.43 3.41-.86 6.83-.9 10.27.69-1.16 1.37-2.33 2.03-3.51-.07.77-.2 2.3-.27 3.07-.49 1.77-1.07 3.52-1.58 5.28-.8-7.02-1.91-14.02-2.07-21.1zm9.03 13.66c.81 1.4 1.52 2.87 2.28 4.3-.46 1.28.09 3.29-1.19 4.1-1.14-2.64-.96-5.6-1.09-8.4z" fill="#fbfbfb"/>
    <path fill="#595959" opacity=".35" d="M59.98 22.71l1.14.71c.61 1.41 1.21 2.82 1.79 4.24-.16.62-.49 1.85-.65 2.46l-.22-.69c-.54-1.78-1.14-3.53-1.67-5.31-.1-.35-.29-1.06-.39-1.41z"/>
    <path opacity=".68" d="M60.37 24.12c.53 1.78 1.13 3.53 1.67 5.31.14 3.1-.35 6.21-1.31 9.15-.6-2.65-1.16-5.32-1.32-8.04.22-2.15.58-4.29.96-6.42zM81.2 48.65c4.65-2.69 9.73-4.52 14.68-6.57l.19 3.29c-.79-.35-2.38-1.03-3.17-1.37l2.02 1.7c-4.24 1.1-7.99 3.43-12.02 5.08-.43-.54-1.28-1.6-1.7-2.13zM32.35 86.33c4.02-1.14 7.62-3.35 11.6-4.57-1.62 2.99-4.99 4-7.61 5.87-2.9 1.66-6.23 2.34-9.34 3.51-1.44-.17-.4-1.39.23-1.87-.68-.45-1.36-.93-2.02-1.42 2.01-.05 4.01.18 5.81 1.12-.5-.51-1.49-1.54-1.99-2.06 1.78-.13 3.47.31 5.03 1.12-.43-.43-1.28-1.28-1.71-1.7z" fill="#aeaeae"/>
    <path fill="#fefefe" d="M59.41 30.54c.16 2.72.72 5.39 1.32 8.04.5 6.71-.49 13.45-.19 20.16-2.14-1.73-6.73-1.98-6.36-5.54 1.29-.95 2.53.59 3.75.88-.15-7.87.56-15.73 1.48-23.54z"/>
    <path d="M17.37 38.39c1.46.41 2.95.74 4.47.83-.16.53-.47 1.6-.63 2.13 1.63-.39 2.9-.01 3.81 1.13.63-.29 1.9-.87 2.53-1.16l.17-1.44c.4.54 1.21 1.62 1.62 2.16-1.33.92-3.03.71-4.54 1.02 1.29 2.64 5.28 3.6 5.6 6.48.39.03 1.15.11 1.54.14 7.62 6.24 16.25 11.09 24.83 15.88-2.51 1.63-5.03 3.48-8.05 3.99-.27-1.91 1.06-3.06 2.29-4.21-12.65-6.94-24.48-15.72-33.64-26.95zm78.94 3.75c.85-1.19 2.52.25 3.15 1.03-.3 1.2-2.05 1.36-3.09 1.57-.28-.78 0-1.75-.06-2.6zm-25.2 11.94c3.35-1.84 6.69-3.68 10.09-5.43.42.53 1.27 1.59 1.7 2.13-4.95 2.6-9.87 5.3-14.59 8.32.5-2.74-1.6-8.27 2.81-8.26 0 .81-.01 2.43-.01 3.24zm1.01 11.36c2.03-1.07 4.06-2.16 6.03-3.35.71.14 2.12.42 2.83.55-.67 1.43-1.99 2.29-3.26 3.13 12.9 7.07 25.23 15.88 34.22 27.67-2.12-1.49-4.77-1.52-7.23-1.82 1.26-.53 2.51-1.07 3.76-1.63-1.85.25-3.66.65-5.51.86-3.58-.48-6.88-2.11-10.32-3.13.99-.49 1.98-.97 2.97-1.45l1.03-.49c-.2.49-.59 1.48-.78 1.98 1.4-.32 2.81-.61 4.22-.87-.63.53-1.9 1.58-2.54 2.11 2.14-.51 4.3-.89 6.5-.93l-4.17 1.86c1.54-.15 3.08-.32 4.61-.5 0-.38-.01-1.15-.01-1.53-1.69-1.87-5.14-2.99-4.98-5.9l-1.07.89c-7.79-7.11-17.3-12.05-26.3-17.45zm-5.98 39.1c.77 1.28 1.08 2.89 2.32 3.84-.63 1.81-1.25 3.63-1.53 5.54-.58-.21-1.15-.42-1.71-.65-.92 1.37-1.29 3.01.93 2.53-.61 1.35-1.19 2.73-1.76 4.1-1.02-2.8-1.34-5.7-.86-8.65l1.83.56c-.09-.75-.28-2.27-.37-3.02.51.71 1.52 2.13 2.03 2.84-.42-2.35-.93-4.7-.88-7.09z" fill="#fff"/>
    <path fill="#d6d6d6" opacity=".84" d="M106.79 39c1.61-.07 3.23-.25 4.82-.53-1.4 1.52-2.75 3.11-3.74 4.93-.52-.57-1.03-1.15-1.55-1.72l1 2.61-2.7-1.04c.6.55 1.2 1.1 1.81 1.65-7.04 6-14.08 12.12-22.15 16.75l-.48-2.95c7.32-4.57 14.61-9.46 20.5-15.83-2.29.11-4.79.07-6.43-1.82.62-.02 1.85-.07 2.47-.1.68.33 2.03.98 2.7 1.3l5.22-1.29c-.37-.49-1.11-1.47-1.47-1.96m-3.57 6.23c.59.57.59.57 0 0z"/>
    <path fill="#787878" opacity=".47" d="M22.42 39.5c.24.24.24.24 0 0z"/>
    <path fill="#898989" opacity=".54" d="M100.34 40.95c2.06-.92 4.24-1.5 6.45-1.95.36.49 1.1 1.47 1.47 1.96l-5.22 1.29c-.67-.32-2.02-.97-2.7-1.3z"/>
    <path fill="#dcdcdc" opacity=".86" d="M24.24 40.2c3.15-1.48.27 3.27 0 0z"/>
    <path fill="#414141" opacity=".25" d="M103.22 45.23c.59.57.59.57 0 0z"/>
    <path fill="#909090" opacity=".56" d="M85.06 81.73c3.67 1.11 7.21 2.67 10.55 4.54-.99.48-1.98.96-2.97 1.45l-.09.05-.42-.41c-2.02-2.36-5.69-2.59-7.07-5.63z"/>
    <path fill="#f8f8f8" opacity=".97" d="M23.64 88.86l.67.11-.12.67-.68-.11.13-.67z"/>
    <path fill="#6f6f6f" opacity=".44" d="M60.89 90.78c.53 2.22 1.07 4.47 1.13 6.76-.66 1.18-1.34 2.35-2.03 3.51.04-3.44.47-6.86.9-10.27z"/>
    <path fill="#6b6b6b" opacity=".42" d="M61.75 100.61c.76 1.44 1.19 3.01 1.24 4.64-.85.55-1.67 1.16-2.47 1.77-.09-.28-.26-.84-.35-1.13.51-1.76 1.09-3.51 1.58-5.28z"/>
    <path fill="#c6c6c6" opacity=".78" d="M62.75 110.79c-1.11-3.37 3.26-.26 0 0z"/>
</svg>
