<svg width="128pt" height="128pt" viewBox="0 0 128 128" xmlns="http://www.w3.org/2000/svg">
    <path fill="#a22424" d="M56.64 29.7c3.24-4.59 7.52-8.23 11.49-12.13-2.24 4.4-2.21 9.65-1.03 14.34 3.27 8.54 8.07 16.39 13.02 24.05 4.14 6.15 6.03 13.48 7.31 20.69.97 5.53 1.19 11.49-1.19 16.71-1.48 3.26-4.72 5.75-8.3 6.09-5.67-.27-9.08-5.8-9.84-10.89.25-1.44.47-2.88.68-4.32-1.65 2.2-3.24 4.46-4.65 6.83-4.41 7.33-10.91 13.15-17.62 18.35-2.75-.42-5.53-.22-8.26.23 4.57-2.97 9.6-5.19 13.94-8.52 6.88-4.93 11.45-12.27 15.61-19.49-2.97-.3-6.25.3-8.87-1.46-4.32-2.73-7.03-7.32-9.25-11.79-1.71-3.92-3.87-8.05-3.09-12.46-.74-9.76 4.51-18.63 10.05-26.23z"/>
    <path opacity=".14" d="M45.77 60.45c-1.22-3.08-1.49-7.01.17-9.96.19 3.32.16 6.65-.17 9.96z"/>
    <path fill="#1b0606" opacity=".39" d="M64.13 91.07c1.41-2.37 3-4.63 4.65-6.83-.21 1.44-.43 2.88-.68 4.32l-.32 1.4c-1.22.35-2.44.72-3.65 1.11z"/>
</svg>
