<svg width="128pt" height="128pt" viewBox="0 0 128 128" xmlns="http://www.w3.org/2000/svg">
    <g fill="#fff">
        <path d="M33.61 37.7c.58-2.66.78-6.93 4.25-7.41 3.92-1.09 8.38 1.47 8.51 5.74-4.31.05-8.58.66-12.76 1.67zm48.34-3.52c1.48-4.83 10.15-5.96 11.59-.59.4 1.34.68 2.7.84 4.1-2.86-.63-5.74-1.1-8.62-1.58-1.12 9.95.37 20.06-1.26 29.96-.38 3.26-2.24 6.15-4.76 8.19l-1.02.9c1.33-3.69-1.31-6.23-3.63-8.61-.54.5-1.07 1-1.61 1.51 1.32.74 2.64 1.48 3.96 2.23-.1.84-.21 1.68-.34 2.51-.29 3.81-3.14 6.84-6.51 8.32-.49 1.4-.89 2.83-1.27 4.27 1.3-.48 2.61-.94 3.92-1.39-2.02 2.71-3.22 6-5.54 8.47-2.66 1.08-6.92 1.49-8.6-1.42-1.47-2.33-2.77-4.77-4.32-7.06 1.3.46 2.6.92 3.89 1.4-.37-1.42-.76-2.83-1.22-4.22-4.31-1.73-6.69-6.07-7.37-10.46 2.13-1.85 4.3-3.67 6.36-5.61l.82.34c3.01 2.55.56 6.59-1.26 9.15 2.32 1.29 5.04 1.87 7.11 3.61.5 2.2-2.94 2.2-4.26 2.79.08.3.24.92.32 1.23 1.85 4.12 7.89 3.85 9.83-.05.11-.28.34-.85.46-1.13-1.31-.55-5.21-.61-4.53-2.83 2.03-1.82 4.81-2.34 7.17-3.57-1.87-2.42-4.7-7.21-1.13-9.14 1.3.14 2.54.52 3.73 1.14-.96-.68-2.89-2.04-3.85-2.72 1.39-2.89 4.42-2.76 7.18-2.71 1.3-2.37 3.55-3.83 5.53-5.54.35-5.4.8-11-.23-16.33-.31 5.44.3 10.94-.69 16.33-2.09 2.32-5.55 1.49-8.07 2.94-1.82.83-2.6 2.82-3.78 4.29-1.87-3.4-4.13-7.45-2.59-11.4 2.19-6.96 6.95-14.83 15.28-14.57l.64 3.2c.54-1.33 1.08-2.66 1.6-3.99-1.4-.21-5.06.8-3.77-1.96z"/>
        <path d="M44.78 36.97c4.46.06 8.72 2.41 11.06 6.2 1.96 3.41 4.01 6.93 4.54 10.9-.13 3.15-1.61 5.99-3.05 8.71-1.56-2.26-3.39-4.56-6.27-5.07-1.96-.61-3.91-1.29-5.82-2.04-.41-6.23-.06-12.47-.46-18.7z"/>
        <path d="M42.64 38.27c1.81 5.62 1.1 11.68 1.25 17.51 1.27.87 2.56 1.73 3.8 2.66.88.82 1.56 1.82 2.3 2.76 2.54-.04 5.18 0 7.16 1.85-2.16 2.89-4.98 5.17-7.68 7.52l.42 5.27c-2.98-2.53-5.97-5.62-6.38-9.71-1.44-9.2-.57-18.58-.87-27.86zm18.73 13.38c.66.44 1.98 1.31 2.64 1.74.65-.43 1.96-1.29 2.61-1.72-.23 4.37 2.28 8.13 3.25 12.1l-.3.59c-.81 3.2-1.92 7.15 1.35 9.46-4.61.73-9.23.73-13.84 0 3.32-2.31 2.1-6.26 1.34-9.47l-.3-.58c.97-3.97 3.5-7.75 3.25-12.12z"/>
    </g>
    <path fill="#676767" opacity=".41" d="M42.4 37.54c.59-.24 1.77-.73 2.36-.98l.02.41c.4 6.23.05 12.47.46 18.7 1.91.75 3.86 1.43 5.82 2.04-.84.18-2.52.54-3.37.73-1.24-.93-2.53-1.79-3.8-2.66-.15-5.83.56-11.89-1.25-17.51l-.24-.73z"/>
    <path fill="#969696" opacity=".59" d="M73.48 68.06c.54-.51 1.07-1.01 1.61-1.51 2.32 2.38 4.96 4.92 3.63 8.61l1.02-.9c-.44.53-.88 1.07-1.32 1.61-.33-.76-.99-2.3-1.32-3.07.13-.83.24-1.67.34-2.51-1.32-.75-2.64-1.49-3.96-2.23z"/>
</svg>
