<svg width="128pt" height="128pt" viewBox="0 0 128 128" xmlns="http://www.w3.org/2000/svg">
    <path d="M66.99 23.28c4.98-2.5 10.68-2.27 16.1-2.58 5.19-.36 9.72 2.66 13.83 5.43-3.04.73-6.08.45-7.73-2.48-2.95-1.52-6.17 1.3-5.15 4.45 2.59.05 5.25.07 7.69 1.06-2.61 1.74-5.31 3.66-6.28 6.81 1.73 4.44 4.48 8.42 8.07 11.56 2.09 1.42 2.16 4.05 2.78 6.26 1.24-.37 1.66-1.29 1.26-2.79 2.52 3.81 2.06 8.63 4.54 12.45l1.56-1.65c-.24 1.09-1.06 1.91-1.64 2.83-3.15-1.82-3.97-5.9-3.96-9.26-.38-.29-1.14-.86-1.51-1.15 1.2 6.16 3.48 12.46 8.29 16.74-2.53-.85-5.16-1.76-6.92-3.9-3.15-2.81-4.11-7.1-6.63-10.35.32-3.99-1.16-7.78-2.49-11.46-.07.87-.14 1.77.3 2.57 1.57 3.89 1.73 8.58-.43 12.28-1.03-3.48-1.92-7.1-4.06-10.1.48 4.38-3.51 6.89-6.54 9.2-2.38 1.85-5.17 3.08-8.09 3.79 4.67-3.99 6.11-10.06 8.98-15.25 1.47-1.59 2.1-3.65 2.78-5.66-.72.83-1.43 1.67-2.12 2.52l-1.38-.94c1.81 2.45-1.3 4.92-2.25 7.11-1.93 3.95-5.84 6.12-9.94 7.2l-2.3.65c1.63-3.46 4.02-6.45 6.18-9.58-3.25 1.97-5.65 4.96-7.53 8.22-1.13 2.28-3.34 3.59-5.39 4.92-1.33-.04-2.65-.1-3.97-.18 1.26-1.11 2.53-2.21 3.79-3.31-.05-2.47-1.06-5.16.4-7.41 1.46-2.5 4.06-4 6.04-6.03-2.06.13-4.06.58-5.98 1.36 3.65-3.09 7.45-6.2 12.11-7.63-6.04-.8-11.59 2.91-17.64 2.92 3.67-2 6.59-5.16 10.48-6.79 2.5-1.36 5.38-1.51 8.1-2.12-4.89-1.35-9.55 2.49-14.47 1.03 6.08-1.14 11.07-4.81 16.42-7.63-4.03-.05-8.21-.46-11.48-3.06 2.04.08 4.23.95 6.18-.05zM31.54 51.67c-1.95-3.23.29-8.02 4.39-6.96-.15 1.9-.5 3.77-.6 5.67l4.48-.16c.01-.78.04-2.35.05-3.14 1.47 2.35.27 4.98-1.61 6.69-2.25-.08-4.29-1.04-6.3-1.92l-.41-.18z" fill="#fff"/>
    <path fill="#8f8f8f" opacity=".56" d="M62.4 57.26c1.88-3.26 4.28-6.25 7.53-8.22-2.16 3.13-4.55 6.12-6.18 9.58l2.3-.65c-1.05.6-2.14 1.07-3.3 1.42-.08-.54-.26-1.6-.35-2.13z"/>
    <path fill="#5f5f5f" opacity=".37" d="M31.95 51.85c2.01.88 4.05 1.84 6.3 1.92-1.38.53-2.78 1.02-4.17 1.53-.71-1.16-1.42-2.31-2.13-3.45z"/>
    <path fill="#1e1e1e" opacity=".12" d="M105.36 68.16c1.33-1.05 3.36 1.12 2.26 2.39-1.29.95-3.22-1.15-2.26-2.39z"/>
</svg>
