<svg width="128pt" height="128pt" viewBox="0 0 128 128" xmlns="http://www.w3.org/2000/svg">
    <g fill="#fff">
        <path d="M84.31 26.54c.94-.99 1.9-1.97 2.87-2.94 1.5.67 2.89 1.55 3.93 2.84 3.1.4 7.47.16 8.15 4.19-1.75-.26-3.48-.58-5.22-.91.81 1.35 1.68 2.66 2.61 3.94l-.35-2.32c1.05.17 2.1.35 3.14.55 1.78 2.78 5.91 4.78 5.23 8.55-.65-.02-1.31-.05-1.96-.08 0 1.22-.06 2.43-.18 3.64-1.05 1.56-2.72 2.81-2.61 4.9-3.46-.04-4.29-4.19-6.14-6.36-.08.95-.25 2.84-.33 3.79-3.09-3.14-7.08-6.58-6.38-11.49.96-2.89 3.92-4.32 5.95-6.38-2.87-.76-6.39.27-8.71-1.92zm-54.98 11.6c3.97-2.35 8.62-1.17 12.02 1.57 4.76 4.65 4.37 12.9-.29 17.41-2.95 2.66-9.52 3.81-11.17-.76-.54.27-1.63.83-2.18 1.1-.76-2.45 1.37-3.7 2.96-5.01 1.99 1.35 4.41 3.33 6.96 2.09 2.21-1.41 4.83-3.59 4.04-6.57-.74-3.57-2.72-7.6-6.71-8.28-4.04-1.01-7 2.53-8.98 5.51-5.58 9.43-7.34 21.11-4.56 31.73 1.26 4.75 4.04 8.87 6.75 12.89 2.63 2.89 5.81 5.51 9.89 5.84.86-1.11 1.71-2.23 2.54-3.36-.87-4.76 1.64-9.12 3.04-13.51 6.37-6.42 14.67-10.71 20.16-18.02 3.37-1.86 7.36-2.81 10.17-5.71-.71 4.55-4.69 6.89-8.45 8.74 3.41.51 7.2.68 10.12-1.49 3.44-2.54 6.62-5.44 9.63-8.48.61 1.35 1.21 2.7 1.82 4.04.09 1.41.2 2.83.32 4.24 1.2-.97 2.38-1.97 3.57-2.96.91 2.74 2.79 5.06 3.55 7.84-1.38 4.07-2.59 8.17-2.98 12.48l.66.05c1.31 7.08 5.35 13.26 7.77 19.98.21-.13.63-.4.84-.54.89-.29 2.67-.89 3.56-1.19.88 1.09 1.7 2.25 2.45 3.44 2.34.91 1.64 3.91 3.2 5.5-2.38-.16-2.12-2.8-2.23-4.58l-.98.01c.18 1.16.54 3.5.72 4.67-3.91-.13-7.58-1.8-11.53-1.34-2.48-5.39-7.88-9.2-8.7-15.4-4.26-7.48-8.41-15.36-9.83-23.97-.25-2.6 2.85-3.53 3.3-5.74-.71.28-1.36.68-1.95 1.2-1.78 1.7-2.9 3.96-3.2 6.4 1.86 5.84 3.75 11.76 6.61 17.21-2.6 2.85-6.62 3.37-9.73 5.42-2.13 1.66-3.65 3.93-5.54 5.83.19-2.57 1.99-4.44 3.17-6.59l-2.78.56.13.76c-1.52 2.6-2.49 5.5-4.24 7.98.88.23 1.75.46 2.63.68 1.66-.38 3.37-.73 5.08-.49 1.45.86 1.9 2.65 2.74 4.02.46.3 1.38.89 1.84 1.19-7.98 1.78-16.17.45-24.24-.06-.64.39-1.29.79-1.94 1.18.03-.58.07-1.74.09-2.32-1.99-1.03-4.04-1.94-6.07-2.88-5.72 1.73-12.26-.23-16.01-4.96-7.74-10.05-10.09-23.31-8.9-35.73 1.55-7.99 4.85-15.96 10.86-21.62m2.07 17.05c-.74 1.19 1.27 2.5 2.19 1.58.73-1.18-1.27-2.5-2.19-1.58m25.04 20.33c-4.33 1.59-7.23 5.39-11.09 7.77l.73 1.82c2.45-3.73 6.18-6.25 10.02-8.39 5.2.17 8.71 4.7 11.85 8.33-.14 1.62-.24 3.25-.32 4.87 1.94.3 2.62-1.15 3.24-2.56-1.95-2.1-3.12-4.85-5.46-6.59-2.63-2.16-5.06-6.03-8.97-5.25z"/>
        <path d="M95.02 67.92c1.26.63 2.51 1.28 3.76 1.92-1.74 2.92-3.26 5.96-4.97 8.9-.6-3.68.55-7.24 1.21-10.82z"/>
    </g>
    <path fill="#ddd" opacity=".87" d="M31.4 55.19c.92-.92 2.92.4 2.19 1.58-.92.92-2.93-.39-2.19-1.58z"/>
</svg>
