<svg width="128pt" height="128pt" viewBox="0 0 128 128" xmlns="http://www.w3.org/2000/svg">
    <g fill="#fff">
        <path d="M65.02 77.01c1.66-5.57 4.88-10.44 7.58-15.54 4.58 2.25 9.66 3.05 14.41 4.85.36 4.74-.05 10.34 3.62 13.96 1.33 2.08 3.65 2.99 6.03 3.21 1.82 8.16 1.56 16.58 2.62 24.87-7.32 2.37-15.03 2.17-22.62 2.2l-1.53.94-.56-.75c-.18-.33-.54-.98-.73-1.31-1.97-1.82-3.66-3.95-4.33-6.6-2.45-1.65-5.02-3.6-8.16-3.23-.84 5.49-5.41 11.74-11.65 9.98-1.73-.25-3.97.22-5.05-1.55-.03-1.21.03-2.42.17-3.62 1.17-.39 2.35-.77 3.52-1.15.77-4.48 3.14-9.8-.23-13.79-.93.53-1.86 1.04-2.76 1.62-2.07 5.24-1.04 11.07-3.04 16.27l-3.08-.92c.79-7.14.72-14.6 3.55-21.33 3.27 1.44 6.85 1.3 9.84-.7l-.02-.78c1.5-.07 2.99-.15 4.49-.21 2.49-2.32 4.86-4.81 7.93-6.42m18.31 9.31c.48.47.48.47 0 0m-10.4 10.11c.33 3.4.62 6.95 2.34 9.99.1-3.37 1.27-8.01-2.34-9.99m-26.67 8.69c.28 3.31 2.93-1.65 0 0z"/>
        <path d="M56.89 111.86c1.2-3.24 3.65-5.72 6.25-7.89 1.42-1.06 2.29.5 2.99 1.5.76-.56 1.53-1.11 2.3-1.65 1.55 3.46 4.11 6.29 6.31 9.33l-2.69.56c-5.25 1.76-10.49-.36-15.7-1.07.13-.2.41-.58.54-.78m8.27-2.67c-.82 1.01-1.65 2.01-2.47 3.01 2.28-.42 4.54-.95 6.75-1.65-1.38-.58-2.82-1.02-4.28-1.36zm13.45 5.03l1.4-.39c.58.77 1.15 1.55 1.72 2.32-2.23.3-4.48.06-6.61-.68l1.4-.73c.7-.17 1.4-.34 2.09-.52z"/>
    </g>
    <path fill="#222" opacity=".14" d="M95.23 81.1c2.97-1.57.2 3.32 0 0z"/>
    <path fill="#c9c9c9" opacity=".79" d="M83.33 86.32c.48.47.48.47 0 0z"/>
    <path fill="#f0f0f0" opacity=".94" d="M45.35 91.1c.9-.58 1.83-1.09 2.76-1.62 3.37 3.99 1 9.31.23 13.79-1.17.38-2.35.76-3.52 1.15.12-4.44.32-8.88.53-13.32z"/>
    <path fill="#ececec" opacity=".93" d="M72.93 96.43c3.61 1.98 2.44 6.62 2.34 9.99-1.72-3.04-2.01-6.59-2.34-9.99z"/>
    <path fill="#191919" opacity=".1" d="M61.35 99.61c3.14-.37 5.71 1.58 8.16 3.23.67 2.65 2.36 4.78 4.33 6.6.19.33.55.98.73 1.31l.56.75c1.04 1.04 2.28 1.86 3.48 2.72-.69.18-1.39.35-2.09.52-1.5-.3-2.98-.68-4.47-1.03l2.69-.56c-2.2-3.04-4.76-5.87-6.31-9.33-.77.54-1.54 1.09-2.3 1.65-.7-1-1.57-2.56-2.99-1.5-2.6 2.17-5.05 4.65-6.25 7.89-.13.2-.41.58-.54.78-2.6.04-5.25.11-7.44 1.7.45.43 1.37 1.3 1.82 1.73-2.48.6-4.98.07-7.39-.58 2.48-1.88 5.37-3.23 8.54-3.2-.78-.85-1.51-1.75-2.18-2.7 6.24 1.76 10.81-4.49 11.65-9.98z"/>
    <path fill="#dfdfdf" opacity=".87" d="M46.26 105.12c2.93-1.65.28 3.31 0 0z"/>
    <path fill="#eaeaea" opacity=".92" d="M65.16 109.19c1.46.34 2.9.78 4.28 1.36-2.21.7-4.47 1.23-6.75 1.65.82-1 1.65-2 2.47-3.01z"/>
</svg>
