<svg width="128pt" height="128pt" viewBox="0 0 128 128" xmlns="http://www.w3.org/2000/svg">
    <path fill="#fff" d="M42.51 59.63c15.55-15.83 31.36-31.47 45.72-48.4 1.03.54 2.06 1.07 3.1 1.59.68 1.04 1.35 2.08 2.02 3.13-17.11 15.11-33.43 31.1-49.63 47.18-.06.95-.33 1.84-.79 2.66 6.12 5.02 12.08 11.5 20.15 12.92-1.21.62-2.37 1.59-3.8 1.54-8.61-2.24-16.39-6.78-24.22-10.77-.11.46-.32 1.39-.43 1.86.3-1.64-.13-3.1-1.3-4.38l.95-.31c-3.58-4.23-5.64-9.46-7.69-14.53-1.54-4.12-3.47-8.43-2.8-12.94 3.54 8.35 8.62 15.97 15.07 22.34.61-.31 1.81-.92 2.41-1.23l-.31 1.9c.42-.91.94-1.76 1.55-2.56z"/>
</svg>
