<svg width="128pt" height="128pt" viewBox="0 0 128 128" xmlns="http://www.w3.org/2000/svg">
    <path fill="#9f2423" d="M88.67 10.88c1.81 1.48 3.48 3.11 4.99 4.9C77.12 30.5 61.18 45.87 45.48 61.49c-1.2 1.25-3.24 3.72-1.35 5.16 4.93 4.56 10.24 8.86 16.39 11.67-.29.54-.88 1.62-1.17 2.16-8.92-2.9-17.74-6.66-25.39-12.09-1.14-4.26-4.04-7.74-5.62-11.82-2.18-5.59-5.28-11.18-4.75-17.39 2.73 4.13 4.3 8.95 7.36 12.88 2.04 2.63 4.07 5.29 6.35 7.72.91 1.35 2.71.73 4.05 1-.11.29-.34.88-.45 1.17 3.45-5.1 8.46-8.84 12.49-13.45C65.38 36.18 77.3 23.78 88.67 10.88z"/>
    <path fill="#811c1e" d="M65.67 74.8c1.89-4.68 4.44-9.03 6.89-13.41 4.59 2.14 9.68 2.82 14.28 4.89.67 3.47.57 7.08 1.69 10.47.98 2.09 2.6 3.79 3.9 5.67 1.29-.36 2.56-.76 3.85-1.12.11 1.08.37 2.14.61 3.19 1.83 7.84 1.42 15.94 2.44 23.88-2.37.62-4.72 1.29-7.14 1.69-5.48.13-10.96.17-16.42.74l-1.3.08c-2.1-2.57-4.02-5.29-5.42-8.31-2.28-1.24-4.61-2.37-6.98-3.42-1.46 4-3.32 8.03-6.96 10.51-3.15-.18-6.31-.26-9.46-.45-1.17-1.08-1.01-2.72-1.01-4.16.06-4.52.52-9.02.59-13.53-1.08 5.24-1.61 10.58-2.58 15.84-.86-.24-2.6-.74-3.47-.99.5-5.28.91-10.56 1.67-15.81.38-1.8 1.04-3.53 1.64-5.26 3.63.53 7.63 1.03 10.6-1.64 1-.12 2.01-.22 3.01-.32.57-.26 1.7-.79 2.26-1.05.25-.45.74-1.35.99-1.81.29-.54.88-1.62 1.17-2.16.37.15 1.11.43 1.48.57 1.36-1.22 3.02-2.3 3.67-4.09z"/>
    <path fill="#020001" opacity=".16" d="M96.89 84.49c2.96 4.47 1.94 10.03 2.64 15.07.52 3.73.53 7.52-.41 11.19-7.83 1.18-15.84.1-23.58 1.81 1.81.24 3.62.45 5.43.68-.2.07-.6.22-.8.29-1.82.66-3.63 1.34-5.41 2.1 2.35.4 4.71.75 7.08 1.09-2.89.63-5.8.16-8.22-1.58-6.44.13-12.94-.1-19.12-2.11-.01-.46-.04-1.38-.05-1.84-5.61.15-11.63-1.02-15.79-5.05-.32-5.24-.09-10.75 2.19-15.58-.76 5.25-1.17 10.53-1.67 15.81.87.25 2.61.75 3.47.99.97-5.26 1.5-10.6 2.58-15.84-.07 4.51-.53 9.01-.59 13.53 0 1.44-.16 3.08 1.01 4.16 3.1.65 6.31.84 9.46.45 3.64-2.48 5.5-6.51 6.96-10.51 2.37 1.05 4.7 2.18 6.98 3.42 1.4 3.02 3.32 5.74 5.42 8.31l1.3-.08c5.48-.06 11 .23 16.42-.74 2.42-.4 4.77-1.07 7.14-1.69-1.02-7.94-.61-16.04-2.44-23.88M56.33 112.7c6.11 1.34 12.41 2.55 18.54.56-2.26-3-4.38-6.11-6.29-9.36-.76.27-1.53.53-2.3.8-1.05-.41-2.11-.82-3.16-1.23-2.68 2.75-5.48 5.52-6.79 9.23z"/>
    <path fill="#811c21" d="M56.33 112.7c1.31-3.71 4.11-6.48 6.79-9.23 1.05.41 2.11.82 3.16 1.23.77-.27 1.54-.53 2.3-.8 1.91 3.25 4.03 6.36 6.29 9.36-6.13 1.99-12.43.78-18.54-.56z"/>
    <path fill="#450f0e" opacity=".72" d="M45.65 109.21c3.15.19 6.31.27 9.46.45-3.15.39-6.36.2-9.46-.45z"/>
    <path fill="#2d0a0b" opacity=".59" d="M75.77 110.8c5.46-.57 10.94-.61 16.42-.74-5.42.97-10.94.68-16.42.74z"/>
    <path fill="#65161a" opacity=".89" d="M74.76 115.63c1.78-.76 3.59-1.44 5.41-2.1.42.8 1.25 2.4 1.67 3.19-2.37-.34-4.73-.69-7.08-1.09z"/>
</svg>
