<svg width="128pt" height="128pt" viewBox="0 0 128 128" xmlns="http://www.w3.org/2000/svg">
    <path fill="#a82526" d="M52.9 17.93c10.79-.78 21.4 2.97 30.44 8.64 6.48 4.23 12.32 9.88 15.59 16.99 5.27 12.11 6.54 26.05 2.29 38.68-3.96 10.18-12.24 18.19-21.67 23.41-9.6 5.24-21.2 6.41-31.68 3.34.34-2.54.53-5.1.66-7.66-1.46-.74-2.9-1.5-4.35-2.25.65-.93 1.3-1.85 2-2.74 12.77-4.3 24.47-13.66 29.44-26.45 3.17-7.68 2.85-16.6-.41-24.19-4.44-11.31-13.56-19.74-22.31-27.77z"/>
    <path fill="#240808" opacity=".42" d="M98.93 43.56c1.69 1.32 2.15 3.47 2.78 5.41 2.65 7.78 3.28 16.14 2.36 24.28-.63 3.05-.87 6.44-2.85 8.99 4.25-12.63 2.98-26.57-2.29-38.68z"/>
    <path fill="#9f2421" d="M24.6 96.96c7.14 1.3 14.55 1.34 21.58-.62-.7.89-1.35 1.81-2 2.74 1.45.75 2.89 1.51 4.35 2.25-.13 2.56-.32 5.12-.66 7.66-8.41-2.47-16.42-6.57-23.27-12.03z"/>
</svg>
