<svg width="128pt" height="128pt" viewBox="0 0 128 128" xmlns="http://www.w3.org/2000/svg">
    <path fill="#280909" opacity=".44" d="M63.24 16.25c.43-.07 1.28-.2 1.7-.26 1.27 3.76 2.09 8.02 1.76 12.01-.69-3.9-1.45-7.8-2.43-11.64-1.41 3.69-1.78 7.65-2.52 11.51l-.68-.07c.36-3.91 1.39-7.71 2.17-11.55z"/>
    <path d="M64.27 16.36c.98 3.84 1.74 7.74 2.43 11.64l-2.14 2.02c-1.19-.34-1.98-1.3-2.81-2.15.74-3.86 1.11-7.82 2.52-11.51zm33.56 31.48c2.46-.35 4.96-.86 7.46-.5-1.09.98-2.13 2.02-3.17 3.04-1.41.89-3.09 2.53-4.74 1.1-.13-.58-.41-1.74-.55-2.32l1-1.32z" fill="#b52c29"/>
    <path fill="#260908" opacity=".41" d="M80.41 22.7c.34.13 1.02.4 1.36.54-.29 2.73-.28 5.58-1.3 8.17-1.16.24-2.32.5-3.47.77-1.5-.77-1.49-2.49-1.79-3.93l.54.2c.47 1.03.91 2.08 1.32 3.14.71-.22 2.15-.66 2.87-.88.38-2.48 1.41-5.03.58-7.53l-.11-.48z"/>
    <path fill="#bd2c29" d="M80.52 23.18c.83 2.5-.2 5.05-.58 7.53-.72.22-2.16.66-2.87.88-.41-1.06-.85-2.11-1.32-3.14 1.55-1.79 3.31-3.4 4.77-5.27z"/>
    <path d="M59.78 32.61c8.71-2.03 18.08 1.21 24.9 6.75 11.83 9.42 15.02 27.58 7.25 40.54-1.28-.02-2.56-.03-3.84-.05 4.27-6.6 6.3-15.08 3.94-22.75-1.9-7.6-6.96-14.47-13.96-18.11-3.47-1.98-7.4-2.83-11.22-3.85-2.28-1.05-4.58-2.08-7.07-2.53zm1.79 67.49c.61-.53 1.83-1.6 2.44-2.13.69.51 2.06 1.55 2.74 2.06-.68 3.65-1.59 7.26-2.05 10.95l-1.37-.93c-.06-.49-.2-1.46-.26-1.95-.34-2.7-.94-5.35-1.5-8z" fill="#b52829"/>
    <path d="M86.07 35.28c1.65-.48 3.21-1.31 4.93-1.51-.38 1.6-.71 3.21-.94 4.84-.81-.07-2.41-.2-3.21-.27-.46-.97-.72-1.99-.78-3.06zm11.95 28.71c.82-1 1.74-1.88 2.76-2.65 3.33.6 6.64 1.36 9.97 1.99-.85 2.36-4.07 1.58-5.98 2.48-2.63 1.2-5.31.96-6.75-1.82zm-65.58 3.22c1.56 2.88 4.11 5.1 5.59 7.97 5.15 14.51 23.88 21.64 37.62 15.04.6 2.52 3.29 1.33 5.01.93-.55 1.44-2.42 1.3-3.56 1.98-8.23 3.46-17.59 3.33-25.85.03-10.22-4.54-17.8-14.74-18.81-25.95zm-9.35 13.41c2.02-1.59 3.79-3.45 5.67-5.19.94.67 3.63.39 3.11 2.21-.26.58-.79 1.73-1.05 2.31-2.56.36-5.13 1.25-7.73.67zm77.76-3.63c1.93.71 3.06 2.58 4.47 3.98-2.57-.09-5.15-.28-7.67-.77-.13-.26-.4-.77-.53-1.02 1.52.29 3.05.5 4.58.72-.27-.97-.55-1.94-.85-2.91zM37.53 94.2c.33-2.22.62-5.51 3.76-4.8.46.99.86 2.01 1.22 3.04-.34.13-1 .38-1.34.5-1.21.43-2.42.85-3.64 1.26zm10.29 2.83l1.32-.21c2.4-1.07 3.06 1.31 3.5 3.13-.41.28-1.21.84-1.62 1.12-.98.65-1.97 1.3-2.97 1.94-.05-1.65-.11-3.29-.18-4.94l-.05-1.04z" fill="#ad2829"/>
    <path fill="#290909" opacity=".54" d="M66.85 35.14c3.82 1.02 7.75 1.87 11.22 3.85 7 3.64 12.06 10.51 13.96 18.11 2.36 7.67.33 16.15-3.94 22.75-2.95 4.66-7.47 8.1-12.44 10.37-13.74 6.6-32.47-.53-37.62-15.04.88.35 1.75.7 2.63 1.07l.14.44c2.7 6.69 9.4 11.2 16.03 13.57 12.83 4.29 27.39-3.83 32.36-16.01 6.98-13.87-2.62-31.85-16.92-36.11l-.94.43-.19.09c-1.27-1.37-2.79-2.44-4.29-3.52z"/>
    <path fill="#b52929" d="M72.27 38.14c14.3 4.26 23.9 22.24 16.92 36.11-4.97 12.18-19.53 20.3-32.36 16.01-6.63-2.37-13.33-6.88-16.03-13.57.55.34 1.65 1.02 2.2 1.37.44.27 1.34.82 1.79 1.1 6.67 2.23 14.39 2.7 20.8-.66 5.32-2.43 9.29-7.09 11.78-12.29.19-.5.56-1.49.75-1.98 2.83-8.93.4-19.48-6.79-25.66l.94-.43z"/>
    <path fill="#0e0303" opacity=".25" d="M98.4 46.57c2.42-.32 4.87-.34 7.31-.28 0 .27-.01.82-.01 1.1l-.41-.05c-2.5-.36-5 .15-7.46.5.14-.32.42-.95.57-1.27z"/>
    <path fill="#3b0d0e" opacity=".5" d="M99.91 52.88c-1.96-.03-5.54-1.54-3.08-3.72.14.58.42 1.74.55 2.32 1.65 1.43 3.33-.21 4.74-1.1-.71.86-1.44 1.7-2.21 2.5z"/>
    <path fill="#2a0a0a" opacity=".45" d="M110.75 63.33l.31-.78c2.3-.21 1.76 3.15-.19 2.79-2.03.24-4.07.35-6.1.47 1.91-.9 5.13-.12 5.98-2.48z"/>
    <path fill="#100303" opacity=".38" d="M77.2 64.35l.92-.12c-.19.49-.56 1.48-.75 1.98l-.57-.84.4-1.02z"/>
    <path d="M96.3 76.71c1.27-.57 2.59-.94 3.96-1.11.15.35.44 1.05.59 1.39.3.97.58 1.94.85 2.91-1.53-.22-3.06-.43-4.58-.72-.21-.62-.61-1.85-.82-2.47zm-8.21 3.14c1.28.02 2.56.03 3.84.05-1.69 2.95-3.91 5.54-6.51 7.72-.65.58-1.29 1.16-1.94 1.73-.7.45-2.11 1.35-2.82 1.8-1.72.4-4.41 1.59-5.01-.93 4.97-2.27 9.49-5.71 12.44-10.37z" fill="#c63031"/>
    <path fill="#150505" opacity=".31" d="M30.82 79.95c.26-.58.79-1.73 1.05-2.31-.07.72-.2 2.17-.26 2.9-2.6 1.36-5.59.89-8.4 1.1l-.12-1.02c2.6.58 5.17-.31 7.73-.67z"/>
    <path fill="#320c0c" opacity=".57" d="M43 78.06l.83-.37.92.57.04.9c-.45-.28-1.35-.83-1.79-1.1z"/>
    <path fill="#320b0c" opacity=".45" d="M83.48 89.35c.65-.57 1.29-1.15 1.94-1.73.51.78 1.18 1.38 2.01 1.82 3.39-2.34 4.35 3.27 3.32 5.23-1.04-.24-2.54.08-2.79-1.34.7.14 2.12.4 2.82.53-.27-1.09-.82-3.27-1.1-4.36-2.57-.68-3.35 1.5-3.58 3.6-.33-1.55-1.25-2.95-2.62-3.75z"/>
    <path fill="#250808" opacity=".42" d="M37.64 89.5c1.06-1.11 2.42-.36 3.65-.1-3.14-.71-3.43 2.58-3.76 4.8 1.22-.41 2.43-.83 3.64-1.26-.85 1.45-2.52 1.57-4 1.85.04-1.77.1-3.55.47-5.29z"/>
    <path fill="#c82e31" d="M86.1 93.1c.23-2.1 1.01-4.28 3.58-3.6.28 1.09.83 3.27 1.1 4.36-.7-.13-2.12-.39-2.82-.53l-1.86-.23z"/>
    <path fill="#260809" opacity=".4" d="M51.25 93.16c8.26 3.3 17.62 3.43 25.85-.03-.67 2.16-3.59 1.51-5.27 2.42-2.58 1.23-5.66.14-8.02 1.89-.91-1.72-3.13-.86-4.67-1.22-2.58-.09-4.84-2.16-7.45-1.68.53 1.76 1.07 3.54.95 5.41-.44-1.82-1.1-4.2-3.5-3.13 1.19-.97 2.78-1.85 2.11-3.66z"/>
    <path fill="#a82829" d="M76.8 96.27c.82.15 2.47.46 3.29.62.31 2.53.72 5.04.99 7.58-1.03-.83-2.05-1.65-3.05-2.5-.96-.8-1.8-1.72-2.44-2.79.3-.72.91-2.18 1.21-2.91z"/>
    <path fill="#2b0a0b" opacity=".45" d="M80.09 96.89c1.7 2.2 1.15 5.28 1.68 7.89-1.86 1.3-3.19-1.42-3.74-2.81 1 .85 2.02 1.67 3.05 2.5-.27-2.54-.68-5.05-.99-7.58z"/>
    <path fill="#5b1615" opacity=".7" d="M46.93 105.38c-.26-2.48.3-4.93.94-7.31.07 1.65.13 3.29.18 4.94 1-.64 1.99-1.29 2.97-1.94-.94 1.78-2.31 3.32-4.09 4.31z"/>
    <path fill="#190606" opacity=".36" d="M63.07 108.1c-1.92-2.03-2.07-5.41-1.5-8 .56 2.65 1.16 5.3 1.5 8z"/>
    <path fill="#250808" opacity=".43" d="M66.75 100.03c.24 4.06-.55 8.19-1.75 12.06-1.57 1.3-2.19-.88-1.67-2.04l1.37.93c.46-3.69 1.37-7.3 2.05-10.95z"/>
</svg>
