<svg width="128pt" height="128pt" viewBox="0 0 128 128" xmlns="http://www.w3.org/2000/svg">
    <path fill="#b5292b" d="M53.63 19.46c14.4-3.63 30.3.75 41.27 10.65 13.62 12.16 18.56 32.76 12.15 49.83-4.16 11.61-13.31 21.25-24.59 26.19-6.25 2.15-12.8 3.85-19.45 3.66-5.27-.06-10.38-1.53-15.43-2.87-5.28-1.98-10.34-4.89-14.32-8.9-.56-.97-1.34-1.71-2.33-2.23-14.5-14.28-16.84-38.73-5.95-55.81 6.21-10.38 16.87-17.92 28.65-20.52m-4.91 5.43C31.54 31.15 20.01 49.8 22.08 67.97c.93 11.17 6.64 21.85 15.42 28.83 1.9.37 3.89-.89 4.66-2.61 1.92-4.13 3.71-8.31 5.56-12.46.83-2.15 3.39-2.65 4.96-4.12 1.5-2.42 1.07-6.01 3.74-7.62-.46-5.86 4.05-9.98 6.7-14.71 3.69 4.54 7.33 9.13 10.89 13.77 2.06 3.76 3.02 8.02 4.94 11.85 1.76 2.29 4.4 3.79 5.91 6.28 1.42 3.62 2.55 7.36 3.97 10.99 13.49-9.78 20.27-27.83 16.09-44.03-3.28-13.88-14.11-25.78-27.78-30.02-9.14-3.08-19.47-2.83-28.42.77z"/>
    <path opacity=".11" d="M48.72 24.89c8.95-3.6 19.28-3.85 28.42-.77-2.53.11-5.03.52-7.54.85-4.92-.79-10.04-.84-14.8.85.23-.4.68-1.2.9-1.6-2.33.2-4.66.38-6.98.67z"/>
    <path fill="#b52b2c" d="M54.8 25.82c4.76-1.69 9.88-1.64 14.8-.85 8.09 2.38 15.03 8.88 17.13 17.15 2.62 8.96-.6 19.23-7.91 25.04 3.31-4.78 6.54-10.17 6.06-16.23.05-9.59-8.27-18.3-17.83-18.76-5.84-.49-11.92 1.7-15.79 6.16-4.88 5.04-6.35 12.8-4.2 19.41 1.47 4.47 4.78 8.04 8.59 10.69-.67.53-2 1.57-2.67 2.1-4.42-2.23-8.36-5.58-10.69-10.01-4.94-8.47-3.96-19.94 2.4-27.42 1.6-.12 2.44-.97 2.52-2.56 2.23-2.01 4.77-3.68 7.59-4.72z"/>
    <path fill="#801e1e" opacity=".87" d="M44.69 33.1c.41-1.29 1.25-2.14 2.52-2.56-.08 1.59-.92 2.44-2.52 2.56z"/>
    <path fill="#250909" opacity=".45" d="M30.93 95.79c.99.52 1.77 1.26 2.33 2.23-1.78.3-2.55-.44-2.33-2.23z"/>
    <path fill="#290a0a" opacity=".4" d="M63.01 109.79c6.65.19 13.2-1.51 19.45-3.66-7.35 4.56-16.47 4.59-24.83 4-3.38-.87-7.24-.91-10.05-3.21 5.05 1.34 10.16 2.81 15.43 2.87z"/>
</svg>
