<svg width="128pt" height="128pt" viewBox="0 0 128 128" xmlns="http://www.w3.org/2000/svg">
    <path fill="#fff" d="M56.63 18.86c8.2-1.6 16.73-.25 24.47 2.68 14.04 5.57 24.91 18.47 27.75 33.33 2.04 8.58.86 17.61-2.1 25.82-5.24 13.48-17.11 24.28-31.22 27.74-11.69 3.17-24.52 1.19-34.96-4.86-10.74-6.52-18.91-17.44-21.35-29.84-3.2-13.78.82-28.88 10.03-39.55 6.93-8.14 16.83-13.64 27.38-15.32M34.24 34.23c-7.9 7.74-12.35 18.73-12.41 29.75-.11 12.84 6.04 25.66 16.33 33.38 1.42-.91 3.41-1.34 4.06-3.08 2.05-4.62 4-9.3 6.24-13.84 1.36-1.03 2.89-1.8 4.35-2.69 1.03-2.77 1.32-6.05 3.73-8.06-.31-5.65 3.84-9.91 6.79-14.29 3.43 4.71 7.27 9.1 10.71 13.79 2.02 3.79 3 8.04 4.94 11.85 1.65 1.97 3.76 3.48 5.48 5.39 1.62 3.81 2.93 7.76 4.15 11.73 9.65-6.45 15.86-17.53 17.17-28.99 1.48-11.23-1.93-22.99-9.13-31.73-7.6-9.47-19.52-15.27-31.66-15.45-11.35-.35-22.75 4.17-30.75 12.24m35.53 38.01c-.88 2.23-1.83 4.43-2.76 6.64-1.18 2.47-2.73 4.75-3.82 7.25-1.3 7.13 4.3 12.91 4.08 19.92 6.54-.91 12.74-3.73 18.91-6.02-.81-2.79-1.72-5.55-2.64-8.31-.51-3.66-4.4-4.99-6.73-7.37-.21-.61-.62-1.82-.83-2.43-.4-1.32-.7-2.67-1.08-3.99-.44-1.5-.86-3.01-1.29-4.51-1.27-.42-2.57-.78-3.84-1.18m-12.82 4.72c-1.96 2.36-4.36 4.27-6.52 6.42-3.03 5.46-4.13 12.35-9.45 16.25 4.63 2.61 9.53 4.68 14.72 5.86-.43-7.39.85-15.15 5.75-20.96 2.73-2.82 3.75-6.67 5.37-10.14-3.57-.28-6.2 2.91-9.87 2.57m.5 28.8c2.63.29 5.28.43 7.94.39-.09-2.9-1.26-5.58-2.39-8.19-1.63-3.11-1.14-6.77-1.44-10.15-4.14 4.97-4.29 11.79-4.11 17.95z"/>
    <path fill="#373737" opacity=".22" d="M69.77 72.24c1.27.4 2.57.76 3.84 1.18.43 1.5.85 3.01 1.29 4.51-2.61.46-5.25.74-7.89.95.93-2.21 1.88-4.41 2.76-6.64z"/>
    <path fill="#121212" opacity=".07" d="M67.01 78.88c2.64-.21 5.28-.49 7.89-.95.38 1.32.68 2.67 1.08 3.99-3.2 1.33-6.23 4.33-5.81 8.05.37 2 1.55 4.75 4.01 4.53 3.1-1 6.04-2.56 9.36-2.78.92 2.76 1.83 5.52 2.64 8.31-6.17 2.29-12.37 5.11-18.91 6.02.22-7.01-5.38-12.79-4.08-19.92 1.09-2.5 2.64-4.78 3.82-7.25z"/>
</svg>
