<svg width="128pt" height="128pt" viewBox="0 0 128 128" xmlns="http://www.w3.org/2000/svg">
    <g fill="#fff">
        <path d="M41.4 38.35C45.2 30.2 53.85 24.14 63 24.48c9.67-.54 19.08 5.81 22.71 14.7 4.13 9.71 1.12 21.79-7.21 28.32 3.8-5.01 7.12-11 6.43-17.51-.43-7.01-5.06-13.46-11.46-16.28-6.95-3.19-15.73-1.77-21.26 3.54-5.4 4.92-7.57 13.05-5.31 20 1.22 4.75 4.75 8.47 8.69 11.19-.65.51-1.96 1.52-2.61 2.02-6.89-3.27-12.21-9.93-13.38-17.52-.24-4.9-.58-10.1 1.8-14.59zm28.37 33.63c1.29.35 2.57.72 3.85 1.09 1.04 3.62 1.93 7.3 3.27 10.82 1.71 1.99 3.95 3.44 5.94 5.13 1.16 3.7 2.4 7.36 3.63 11.03-3.05 1.66-6.44 2.48-9.69 3.61-3.16 1.01-6.25 2.44-9.63 2.46-.02-7.23-5.87-13.58-3.8-20.91 2.48-4.24 4.69-8.63 6.43-13.23zm-12.85 4.84c3.68.02 6.52-2.84 10.19-2.72-1.55 3.94-3.02 8-5.96 11.15-4.64 5.77-5.57 13.29-5.34 20.45-5.32-1.12-10.39-3.21-14.99-6.11 5.32-3.95 6.34-10.86 9.51-16.28 2.07-2.28 4.61-4.11 6.59-6.49z"/>
        <path d="M57.3 106c-.29-6.42-.2-13.79 4.63-18.65-.08 3.04.08 6.07.48 9.08 1.5 3 3.02 6.17 3.13 9.59-2.75-.02-5.49-.02-8.24-.02z"/>
    </g>
</svg>
