<svg width="128pt" height="128pt" viewBox="0 0 128 128" xmlns="http://www.w3.org/2000/svg">
    <path fill="#240808" opacity=".43" d="M94.58 14.46c2.67 1.78-.14 5.07-1.72 6.67.64-1.44 1.3-2.88 1.79-4.38-.01-.43-.04-1.29-.05-1.73l-.02-.56z"/>
    <path d="M86.57 23.47c2.75-2.74 4.98-5.99 8.03-8.45.01.44.04 1.3.05 1.73-.49 1.5-1.15 2.94-1.79 4.38-.94 1.81-1.97 3.58-2.91 5.39 8.89 6 14.96 15.29 18.38 25.32l-.91 2.98v.28c-2.64-10.45-8.58-19.98-17.17-26.55-1.6-1.86-3.09.66-3.39 2.17-1.72 3.35-3.88 6.45-6.2 9.41l-2.89.36c1.31-2.66 3.1-5.04 4.65-7.57.75-1.24 1.44-2.51 2.12-3.8.11-.2.32-.61.43-.81l-2.46.55c.85-1.27 1.71-2.55 2.56-3.83l-2.68.2c.98-1.47 2.44-2 4.18-1.76zM35.41 28.4c6.1-4.88 13.49-8.15 21.2-9.37 4.92-.41 9.86-.34 14.78-.04.38.08 1.13.25 1.5.33.5.15 1.51.46 2.02.61 2.85.44 5.54 1.67 8.43 1.96-.44.64-.87 1.28-1.3 1.92-11.93-5.08-26.14-5.03-37.75.92-1.03.46-2.03 1.01-2.98 1.62-2.68 2.16-7.3 3.5-7.31 7.56-1.24-.89-2.59-1.57-3.98-2.16 1.91-.93 3.76-1.99 5.39-3.35zm-16.7 26.64c.5-.08 1.5-.25 2-.33L20.54 56l-.2 1.38c-.94 4.74-.86 9.61-.02 14.37-.43.64-.86 1.28-1.3 1.91-.89-6.18-.53-12.41-.31-18.62zm89.48 1.18c.17.02.52.07.69.1 1.01 5.45.55 11.03.07 16.51-.41-.06-1.23-.17-1.64-.23.08-.52.25-1.55.33-2.07.95-4.73.24-9.55.55-14.31zm-1.1 17.48l1.6-.9c-.46 2.16-.9 4.34-1.46 6.48-4.46 12.65-14.61 23.09-27.15 27.87-.59-.24-1.76-.72-2.34-.96 14.61-4.68 26.16-17.49 29.35-32.49z" fill="#a92728"/>
    <path fill="#180506" opacity=".35" d="M56.61 19.03c4.71-2.02 10.07-2.01 14.78-.04-4.92-.3-9.86-.37-14.78.04z"/>
    <path fill="#360d0b" opacity=".55" d="M72.89 19.32l.72-.58 1.04.32.26.87c-.51-.15-1.52-.46-2.02-.61z"/>
    <path fill="#080202" opacity=".22" d="M41.31 26.35c.95-.61 1.95-1.16 2.98-1.62.64.82.72 2.22.11 3.08-1.16.44-2.43-.57-3.09-1.46z"/>
    <path fill="#1a0506" opacity=".38" d="M66.26 34.79c-.16-3.08-1.2-7.71 2.96-8.47.53 3.21-1.18 5.98-2.96 8.47z"/>
    <path fill="#1f0707" opacity=".44" d="M86.86 30.72c.3-1.51 1.79-4.03 3.39-2.17-.66 1.27-2.03 1.95-3.39 2.17z"/>
    <path fill="#220707" opacity=".43" d="M51.29 28.91c2.53 1.36 3.37 4.08 3.1 6.82-2.99-1.08-3.39-4.06-3.1-6.82z"/>
    <path fill="#220808" opacity=".44" d="M78.63 32.5c1.65-1.62 3.17-4.25 5.91-3.38-.68 1.29-1.37 2.56-2.12 3.8-3.13.73-4.81 3.61-6.87 5.78.09-.29.26-.87.35-1.16.79-2.35 1.02-4.82.3-7.23.82.72 1.63 1.45 2.43 2.19z"/>
    <path fill="#070102" opacity=".21" d="M75.31 39.61c-2.31-2.75-.93-6.67.89-9.3.72 2.41.49 4.88-.3 7.23-.09.29-.26.87-.35 1.16l-.24.91z"/>
    <path fill="#c02c31" d="M23.23 34.1c3.07-1.83 7.7-.92 9.37 2.43 1.5 2.28.56 5.14-.44 7.42-3.36 2.7-8.41 2.77-11.02-1.02-1.53-2.92-.78-7 2.09-8.83z"/>
    <path d="M59.29 39.86c1.72-1.81 3-3.95 4.15-6.15.93 1.64 1.18 3.93 2.76 5.09 3.33.64 6.63 1.41 9.79 2.67.44-.24 1.33-.73 1.78-.98l2.89-.36c-.39 1.31-2.26 3.93.05 4.52 1.32-.41 2.58-.94 3.86-1.46-.51 1.6-1.62 3.31-.8 5.01 1.43.53 2.95.73 4.44 1.02-.28.46-.86 1.4-1.14 1.87.25.38.75 1.16.99 1.55.55 3.06 1.15 6.15 2.4 9.01 1.74 1.12 3.73 1.77 5.64 2.53-2.42 1.29-4.72 2.81-6.83 4.57 1.02.97 2.06 1.94 3.1 2.91-1.22.33-2.41.72-3.58 1.17-1.44 1.98.83 3.42 1.9 4.89-1.48.28-2.97.53-4.46.8-1.35 1.76-2.7 3.52-4.04 5.29.29 2.33.6 4.66.97 6.98-1.81-1.17-3.64-2.31-5.62-3.16-.1-.02-.29-.04-.39-.06-.35-.02-1.05-.06-1.41-.09-.32-.02-.97-.08-1.3-.11-.85-2.24 1.75-3.1 3.14-4.18-1.44-1.55-2.87-3.11-4.3-4.67 1.12-.79 2.24-1.6 3.36-2.39-.05-.7-.1-1.39-.14-2.08.23-.37.7-1.1.94-1.47-.99-1.34-1.97-2.68-2.96-4.01.77-.47 1.53-.93 2.3-1.4-1.22-.64-2.44-1.29-3.65-1.94l1.8-2.97c-4.96 1.09-6.04 7.1-8.09 11.06-.2-.91-.41-1.83-.61-2.74-.94-.22-1.88-.45-2.82-.68.4.68.8 1.37 1.2 2.05-.61 1.6-1.21 3.2-1.81 4.81 1.16-.86 2.33-1.71 3.49-2.56.49.38.97.76 1.46 1.14-.7.55-1.39 1.11-2.09 1.67.44 3.28-.45 6.44-2.25 9.18-1.09-1.07-2.17-2.16-3.26-3.24 1.15-1.09 2.26-2.23 3.4-3.33-2.36-1.96-5.04-1.21-7.4.31-.73-1.9-.94-3.93-.82-5.95-.5-.35-1-.69-1.5-1.04-.49 3.02-1.2 6-2.05 8.94.77.54 1.53 1.09 2.3 1.64.6 2.68 2.56 4.37 5.02 5.4.37.33 1.1.99 1.47 1.31l-4.13.21c-.96.81-1.91 1.62-2.87 2.43.03-1.41.07-2.81.1-4.21-1.68-.94-3.37-1.87-4.97-2.93-1.57-1.24-2.97-2.69-4.28-4.2-1.15-1.32-2.11-2.79-3.06-4.25-1.53.06-3.05.14-4.58.23 2.38-2.17 3.39-5.05 1.75-8-.69.06-2.08.19-2.78.25 1.89-1.83 3.74-4.36 1.64-6.85 3.12-2.2-.5-4.22-2.37-5.55 1.93-.67 5.27-.08 5.52-2.83.49-2.44-1.87-4.35-2.88-6.4 2.12.09 4.24.18 6.37.25.89-.96 1.77-1.91 2.67-2.86-.74-2.5-1.18-5.07-1.44-7.66 1.25 2.13 2.61 4.19 3.97 6.26.4-1.35.79-2.7 1.16-4.06.4.48 1.2 1.45 1.61 1.93 3.03-.63 3.79-3.32 3.7-6.1 1.19 1.33 2.37 2.67 3.59 3.97zm-39.05 5.87c1.54.8 3.07 1.61 4.61 2.4-3.33.36-3.61 3.79-3.92 6.5-.44-.64-.88-1.28-1.31-1.93.61-1.63 1.19-3.27 1.76-4.92-.29-.51-.85-1.54-1.14-2.05z" fill="#b8292c"/>
    <path fill="#130404" opacity=".3" d="M21.14 42.93c2.61 3.79 7.66 3.72 11.02 1.02-.95 2.67-4.02 2.57-6.33 3.18l-.16 2.53c-.67.05-2 .16-2.66.21-.7 2.09-1.5 4.15-2.47 6.13l.17-1.29c-.5.08-1.5.25-2 .33-.22 6.21-.58 12.44.31 18.62.44-.63.87-1.27 1.3-1.91-.84-4.76-.92-9.63.02-14.37.36 5.09.09 10.22.91 15.29-.14.33-.43.99-.57 1.32-.3.03-.9.1-1.21.13.61 2.47 1.26 4.93 2.09 7.33l-.98.29c-2.49-7.2-3.81-14.91-2.94-22.53.43-3.74 1.86-7.3 2.15-11.06-.48-1.17-1.32-2.15-1.97-3.22.8.05 2.41.14 3.22.19.02-.55.08-1.64.1-2.19m-.9 2.8c.29.51.85 1.54 1.14 2.05-.57 1.65-1.15 3.29-1.76 4.92.43.65.87 1.29 1.31 1.93.31-2.71.59-6.14 3.92-6.5-1.54-.79-3.07-1.6-4.61-2.4z"/>
    <path fill="#1d0707" opacity=".36" d="M108.33 51.84c2.38 4.91 2.34 10.62 1.99 15.95-.69 3.88-.85 8.11-3.09 11.49.56-2.14 1-4.32 1.46-6.48l-1.6.9c.05-.27.17-.82.22-1.1.41.06 1.23.17 1.64.23.48-5.48.94-11.06-.07-16.51-.17-.03-.52-.08-.69-.1-.31 4.76.4 9.58-.55 14.31-.03-5.15-.53-10.29-.22-15.43v-.28l.91-2.98z"/>
    <path fill="#c52d2e" d="M66.84 73.32c2.05-3.96 3.13-9.97 8.09-11.06l-1.8 2.97c1.21.65 2.43 1.3 3.65 1.94-.77.47-1.53.93-2.3 1.4.99 1.33 1.97 2.67 2.96 4.01-.24.37-.71 1.1-.94 1.47.04.69.09 1.38.14 2.08-1.12.79-2.24 1.6-3.36 2.39 1.43 1.56 2.86 3.12 4.3 4.67-1.39 1.08-3.99 1.94-3.14 4.18.33.03.98.09 1.3.11.06 1.51.09 3.02.13 4.53-.62-1.2-1.3-2.37-2.02-3.52-1.89.48-1.6 2.75-2.25 4.17-.58-.92-1.17-1.84-1.75-2.75-.29.52-.86 1.55-1.14 2.07l-1.41-1.9c-1.67.45-3.33.89-5 1.33l-.47-.04c-.31-.29-.95-.85-1.26-1.14-.37-.32-1.1-.98-1.47-1.31-2.46-1.03-4.42-2.72-5.02-5.4-.77-.55-1.53-1.1-2.3-1.64.85-2.94 1.56-5.92 2.05-8.94.5.35 1 .69 1.5 1.04-.12 2.02.09 4.05.82 5.95 2.36-1.52 5.04-2.27 7.4-.31-1.14 1.1-2.25 2.24-3.4 3.33 1.09 1.08 2.17 2.17 3.26 3.24 1.8-2.74 2.69-5.9 2.25-9.18.7-.56 1.39-1.12 2.09-1.67-.49-.38-.97-.76-1.46-1.14-1.16.85-2.33 1.7-3.49 2.56.6-1.61 1.2-3.21 1.81-4.81-.4-.68-.8-1.37-1.2-2.05.94.23 1.88.46 2.82.68.2.91.41 1.83.61 2.74z"/>
    <path fill="#a92728" opacity=".98" d="M19.47 74.12c.31-.03.91-.1 1.21-.13 1.54 1.65 1.18 4.15 2.06 6.13 2.32 5.9 5.87 11.41 10.48 15.77.8.56 1.63 1.08 2.46 1.61l.37-.86c3.28-3.85 6.46-7.79 9.85-11.54-.65.2-1.96.59-2.61.79.3-1.48.68-2.93 1.13-4.36 1.31 1.51 2.71 2.96 4.28 4.2-3.67 4.59-7.6 9.03-10.71 14.02 11.01 8.62 26.54 10.75 39.75 6.44.58.24 1.75.72 2.34.96-13.88 5.01-30.14 3.29-42.24-5.31-.47-1.38-1.08-1.44-1.84-.19-3.27 4.52-7.12 8.58-10.98 12.61l-1.54.12c2.17-6.02 6.35-11.04 9.07-16.74-4.59-4.68-8.74-9.96-10.99-16.19-.83-2.4-1.48-4.86-2.09-7.33z"/>
    <path fill="#150405" opacity=".31" d="M75.74 87.48c.36.03 1.06.07 1.41.09.1.02.29.04.39.06-.74 3.65-.4 7.38-.23 11.07-.79-1.74-1.7-3.42-2.27-5.25-2.37-.1-4.99-.6-7.09.85-.57.48-1.71 1.45-2.28 1.93-.4-.94-.79-1.89-1.18-2.83.93-.07 2.78-.2 3.71-.27-1.61-1.52-3.86-1.5-5.9-1.72 1.67-.44 3.33-.88 5-1.33l1.41 1.9c.28-.52.85-1.55 1.14-2.07.58.91 1.17 1.83 1.75 2.75.65-1.42.36-3.69 2.25-4.17.72 1.15 1.4 2.32 2.02 3.52-.04-1.51-.07-3.02-.13-4.53z"/>
    <path fill="#340c0c" opacity=".53" d="M33.22 95.89c2.34-2.58 3.75-5.99 6.69-7.99-1.46 2.84-2.85 5.71-3.86 8.74l-.37.86c-.83-.53-1.66-1.05-2.46-1.61z"/>
    <path fill="#310c0a" opacity=".49" d="M48.33 89.17c1.62-.57 2.15-.02 1.58 1.63-1.63.55-2.16.01-1.58-1.63z"/>
    <path fill="#160505" opacity=".32" d="M65.67 96.23c.57-.48 1.71-1.45 2.28-1.93 1.98 2.89 1.76 6.43 1.61 9.75-1.42-2.54-2.75-5.14-3.89-7.82z"/>
    <path fill="#2b090b" opacity=".51" d="M36 101.65c.76-1.25 1.37-1.19 1.84.19-.46-.05-1.38-.14-1.84-.19z"/>
</svg>
