<svg width="128pt" height="128pt" viewBox="0 0 128 128" xmlns="http://www.w3.org/2000/svg">
    <path fill="#fefefe" d="M83.29 27.56c4.1-4.19 7.06-9.87 12.34-12.66-1.71 5.36-5.09 9.96-7.97 14.72-10.65 16.51-21.95 32.59-33.7 48.33-7.23 10.33-14.98 20.3-23.08 29.97-2.21 2.45-4.3 5.1-7.12 6.89.11-2.36 1.56-4.36 2.58-6.4 3.77-6.56 7.99-12.85 12.07-19.22.53-.96 1.35-1.7 2.2-2.39-1.97 3.73-4.82 6.99-6.1 11.05 4.29-3.83 7.63-8.56 11.37-12.9 8.28-11.15 16.54-22.33 24.23-33.9 4.57-6.26 8.95-12.7 12.9-19.38l.29-.09c.2-.06.59-.19.79-.25.23-.81.68-2.43.91-3.24-.43-.13-1.28-.4-1.71-.53z"/>
    <path fill="#737373" opacity=".45" d="M83.08 27.49l.21.07c.43.13 1.28.4 1.71.53-.23.81-.68 2.43-.91 3.24-.2.06-.59.19-.79.25l-.56-1.92c-2.57 3.34-4.88 7.03-8.17 9.7 1.64-4.6 5.68-7.93 8.51-11.87z"/>
    <path fill="#fff" d="M24.42 33.61c4.1-1.96 9.59 1.81 8.9 6.38.17 5.29-7.06 8.15-10.74 4.55-3.78-2.77-2.63-9.53 1.84-10.93z"/>
</svg>
