<svg width="128pt" height="128pt" viewBox="0 0 128 128" xmlns="http://www.w3.org/2000/svg">
    <path d="M29.19 32.39c1.93-2.26 3.87-4.51 5.89-6.69.61 2.87 1.18 5.75 1.76 8.63 2.8 1.11 5.55 2.33 8.31 3.53-2.6 1.39-5.15 2.87-7.72 4.33-.38 3-.7 6-.88 9.02-2.11-2.07-4.33-4.02-6.5-6.03-2.92.6-5.79 1.46-8.75 1.81 1.31-2.61 2.52-5.27 3.66-7.96-1.53-2.57-3.05-5.13-4.69-7.63 2.98.28 5.95.67 8.92.99zm-1.46 24.37c2.21 1.91 4.52 3.7 6.6 5.76 3.07-.55 6.08-1.39 9.04-2.38-1.3 2.75-2.47 5.56-3.59 8.39 1.61 2.48 3.13 5.02 4.86 7.43-2.97-.19-5.94-.35-8.89-.64-1.86 2.33-3.69 4.7-5.7 6.92-.67-2.86-1.39-5.7-1.96-8.57-2.84-1.07-5.64-2.26-8.51-3.26 2.6-1.42 5-3.19 7.65-4.53.2-3.04.36-6.08.5-9.12zm12.41 34.66c2.18-2.15 4.3-4.37 6.44-6.56.39 2.84.69 5.7 1.28 8.52 2.39 1.87 5.44 2.71 8.07 4.21-2.75 1.27-5.43 2.68-8.06 4.19-.31 3-.66 6.01-1.29 8.96-1.68-2.51-4.12-4.35-6.12-6.59-2.94.53-5.87 1.15-8.83 1.57 1.32-2.65 2.78-5.23 4.17-7.85-1.38-2.7-2.86-5.35-4.36-7.99 2.89.55 5.82.92 8.7 1.54z" fill="#fff"/>
</svg>
