<svg width="128pt" height="128pt" viewBox="0 0 128 128" xmlns="http://www.w3.org/2000/svg">
    <path fill="#b52829" d="M53.11 22.34c3.87-2.24 9.15-2.93 11.19-7.41 2.45 5.29 9.03 5.98 13.72 8.43.57.37 1.16.74 1.75 1.09 2.74 1.58 5.4 3.44 7.28 6.03.86 1.12 1.7 2.26 2.53 3.41 1.73 2.25 2.69 4.95 4.05 7.41.6-.1 1.8-.3 2.41-.4-.78.61-1.56 1.23-2.34 1.84 1.01 3.05 1.4 6.23 1.94 9.38.6.17 1.81.5 2.42.67-.84.26-1.67.53-2.5.79-.03 1.49-.08 2.98-.16 4.47-.52-1.38-.64-2.86-.61-4.32.56-5.54-1.61-10.89-3.27-16.08-.62-.17-1.84-.5-2.45-.67-.3-.49-.91-1.48-1.21-1.98-.92 1.58-1.87 3.15-2.85 4.7 1.77-.02 3.56.34 5.33.02l-.04-.63c.75 1.35 1.37 2.78 1.89 4.23l-.53.59c.02-3.1-3.7-2.86-5.85-3.42-.67.71-1.37 1.4-2.08 2.08l-.42.1c.12-.82.25-1.65.42-2.46-.59-.11-1.77-.33-2.37-.44-.1-.4-.32-1.19-.42-1.58 1.15.29 2.3.63 3.44.98 1.27-2.05 2.79-4.21 2.26-6.77-2.52-.02-5.03.28-7.49.86l.45 1.96c-.16-.11-.49-.33-.65-.44-.21-.15-.62-.44-.82-.59l1.36-1.32-2.06.57c.87-2.56 1.38-5.23 1.01-7.93-1.24.08-2.47.21-3.69.4-1.34 1.01-2.65 2.06-3.93 3.16-.43.04-.85.07-1.28.1.25-3.28-.27-7.05-3.33-8.91-.52-.33-1.56-1.01-2.07-1.34-.89.39-1.68.93-2.36 1.62-.94.89-2.01 1.75-2.39 3.04-.42 1.93-.5 3.91-.61 5.88-.21.06-.64.17-.85.23-1.66-1.92-3.7-3.46-6.1-4.34-.41.15-1.23.43-1.64.57-.42.23-1.26.69-1.68.91-1.59 1.24-3.1 2.56-4.7 3.8l-.17.13c-.45-.06-1.37-.19-1.82-.25.96-2.49 3.44-3.77 5.52-5.19 1.42-.66 2.19-1.83 1.99-3.43.36.42 1.09 1.24 1.45 1.65.58-.3 1.74-.9 2.33-1.2m-.14 2.01c1.55 1.31 3.21 2.49 4.94 3.55.22-1.99.57-3.96 1.05-5.91-1.96.89-3.95 1.7-5.99 2.36m16.44-2.36c.52 1.97.94 3.96 1.2 5.98 1.63-1.07 3.21-2.19 4.71-3.43-1.99-.82-3.96-1.66-5.91-2.55m10.12 4.7c-.05 2.05-.46 4.07-1.06 6.03 2.21-.57 4.43-1.07 6.67-1.5-1.66-1.76-3.6-3.2-5.61-4.53z"/>
    <path fill="#0e0303" opacity=".31" d="M61.78 20.54c.68-.69 1.47-1.23 2.36-1.62.51.33 1.55 1.01 2.07 1.34-1.12 1.3-3.09 1.08-4.43.28z"/>
    <path fill="#130404" opacity=".32" d="M48.22 20.96c1.62.47 3.25.93 4.89 1.38-.59.3-1.75.9-2.33 1.2-.36-.41-1.09-1.23-1.45-1.65.2 1.6-.57 2.77-1.99 3.43.29-1.46.58-2.91.88-4.36z"/>
    <path fill="#380d0e" opacity=".54" d="M78.02 23.36c-.03-1.4.55-2.06 1.73-1.99.71 1.04.71 2.06.02 3.08-.59-.35-1.18-.72-1.75-1.09z"/>
    <path fill="#0b0202" opacity=".26" d="M52.97 24.35c2.04-.66 4.03-1.47 5.99-2.36-.48 1.95-.83 3.92-1.05 5.91-1.73-1.06-3.39-2.24-4.94-3.55z"/>
    <path fill="#0b0302" opacity=".27" d="M69.41 21.99c1.95.89 3.92 1.73 5.91 2.55-1.5 1.24-3.08 2.36-4.71 3.43-.26-2.02-.68-4.01-1.2-5.98z"/>
    <path fill="#120404" opacity=".35" d="M58.78 29.46c.11-1.97.19-3.95.61-5.88.09 1.55.19 3.1.32 4.64 2.49-.17 5-.03 7.43.64-2.8-.16-5.62.02-8.36.6z"/>
    <path fill="#5b1515" opacity=".69" d="M48.51 26.83c.42-.22 1.26-.68 1.68-.91-.05 2.31.01 4.65.84 6.83.49-.08 1.46-.25 1.95-.33-.96.73-1.89 1.5-2.81 2.28-2.2-1.73-5.03-1.99-7.69-2.43-1.19 3.16 1.12 5.7 3.24 7.72-.3-.12-.91-.36-1.22-.49.2 1.03.37 2.07.51 3.1-.09.2-.28.59-.37.79-1.58-3.22-5.69-2.75-7.97-.57 1.54 1.72 3.16 3.37 4.63 5.15l.19.44.38-.06.02-.48.85-.13c.03 3.53.09 7.1-.52 10.6-.27-2.97-.14-5.94.11-8.91-1.5.37-3 .71-4.47 1.17-.5.3-1.52.9-2.03 1.2l-.78.57c.02-1.92.25-3.82.66-5.69-.04.9-.11 2.68-.14 3.57 1.41-.58 2.82-1.17 4.23-1.75-1.22-1.24-2.45-2.47-3.69-3.7.41-1.59.88-3.17 1.52-4.69 1.74-.17 3.49-.35 5.24-.55-.82-1.6-1.65-3.21-2.48-4.81.92-1.46 2.04-2.77 3.25-3.99l.17-.13c1.71.45 3.43.89 5.14 1.32-.14-1.71-.29-3.41-.44-5.12z"/>
    <path opacity=".16" d="M74.75 25.91c1.22-.19 2.45-.32 3.69-.4.37 2.7-.14 5.37-1.01 7.93-.66-.33-1.98-.98-2.63-1.31 1.23-1.13 3.27-2.04 2.54-4.08-.64-.53-1.94-1.61-2.59-2.14z"/>
    <path d="M69.54 29.17c.43-.03.85-.06 1.28-.1.98 1.42 2.53 2.22 3.98 3.06.65.33 1.97.98 2.63 1.31l2.06-.57-1.36 1.32c-1.12-.12-1.85.32-2.2 1.31-.5 2.28-2.33 3.94-4.44 4.78 1.28-1.9 3.18-3.5 3.63-5.85-1.83-.63-3.64-2.26-5.57-2.11-.71 1.2-2.14 3.58-2.86 4.77.34-1.43 1-4.3 1.33-5.73-2.64-.65-5.34-.53-7.98-.03.26 1.29.79 3.87 1.06 5.16-.56-1.13-1.67-3.4-2.22-4.53-1.91.69-3.82 1.45-5.46 2.67-.68.52-1.34 1.05-1.98 1.62-1.44 1.44-2.71 3.06-3.43 4.98 1.79.78 3.57 1.63 4.95 3.04-2.04-.48-4.01-1.19-5.96-1.95-.21.6-.61 1.79-.81 2.39-.47 1.35-.93 2.7-1.39 4.06 1.12.14 3.34.41 4.46.55l-2.45.96c-.57-.03-1.71-.08-2.28-.1-.36-.62-1.08-1.86-1.43-2.48.26-1.52.78-2.96 1.54-4.31.09-.2.28-.59.37-.79-.14-1.03-.31-2.07-.51-3.1.31.13.92.37 1.22.49 1.32-1.9 2.69-3.78 4.45-5.29.92-.78 1.85-1.55 2.81-2.28 1.59-1.01 3.23-1.95 4.95-2.73.21-.06.64-.17.85-.23 2.74-.58 5.56-.76 8.36-.6.79.13 1.59.24 2.4.31zm10.11 9.91c1.03 1.22 1.71 2.68 2.24 4.18-2.21-.22-4.34.48-6.45 1.01 1.3-1.16 2.84-1.96 4.4-2.69-.06-.84-.13-1.67-.19-2.5zm4.39 12.64c.31 1.72.68 3.42 1.12 5.1l1.07.95c2.3.62 4.7.46 7.05.42.49-1.49 1.02-2.97 1.51-4.46-.03 1.46.09 2.94.61 4.32.41.22 1.24.68 1.65.91 1.81 2.11 1.08 4.93.94 7.44-.19 1.02-.55 2.01-1.29 2.75-.39-.7-1.15-2.12-1.53-2.83-2.87-1.14-5.9.18-8.51 1.4-4.86 2.09-8.04 6.51-10.19 11.17l-1.19-.62c.07-.47.22-1.41.29-1.88 1.85-5.62 6.97-9.52 12.35-11.53 1.3.18 2.39-.17 3.28-1.05l-.94-1.18c-1.74-1.6-3.95-2.57-6.36-2.37l.09-1.98.03-.44c.08-2.04.12-4.08.02-6.12m9.22 8.62c-.32 1.62.01 3.55 2.09 3.26 2.26-1.64.07-4.05-2.09-3.26z" fill="#ad2829"/>
    <path fill="#0c0303" opacity=".24" d="M79.53 26.69c2.01 1.33 3.95 2.77 5.61 4.53-2.24.43-4.46.93-6.67 1.5.6-1.96 1.01-3.98 1.06-6.03z"/>
    <path fill="#c32c2e" d="M38.39 30.65c1.14-.07 2.28-.12 3.43-.14.45.06 1.37.19 1.82.25-1.21 1.22-2.33 2.53-3.25 3.99-.99 1.75-1.9 3.55-2.76 5.36-.64 1.52-1.11 3.1-1.52 4.69l-.4 1.88c-.41 1.87-.64 3.77-.66 5.69-.05 1.92.02 3.84.05 5.77 2.37.05 4.75.11 7.12.2.61-3.5.55-7.07.52-10.6l.36-.04c.35.62 1.07 1.86 1.43 2.48-.07 2.69-.22 5.38-.08 8.07 3.06-.08 6.13-.09 9.19-.06.02-2.46.06-4.92.12-7.38 1.37-.02 2.74-.07 4.11-.15 1.26 2.23 2.3 4.67 2.08 7.29-.17 17.18.25 34.37-.27 51.53-2.62-3.06-4.84-6.58-5.94-10.47-.22-5.48.09-10.97-.14-16.44-1.33-1.01-1.58-2.7-2.12-4.16-2.16-7.06-9.26-12.13-16.56-12.33-1.99-.45-2.42 1.71-3.13 3.02-1.99-1.81-1.22-4.92-2.02-7.28.51-1.64 1.75-2.79 3-3.9-.38-5.21.6-10.36 2.02-15.4-.54-.35-1.62-1.04-2.16-1.38.69-.13 2.07-.38 2.75-.51 1.01-2.98 2.65-5.65 4.27-8.32-.32-.41-.94-1.25-1.26-1.66M32.4 60.42c-.98 2.36 1.56 4.18 3.31 2.2-.36-1.8-1.41-2.87-3.31-2.2m5.81 1.92c-.01.47-.05 1.42-.07 1.9 7.18 1.48 13.56 6.83 15.59 13.98-.15-6-.05-11.99-.03-17.98-5.16.54-11.1-1.49-15.49 2.1z"/>
    <path fill="#370c0c" opacity=".54" d="M87.05 30.48c1.21-.11 2.41-.23 3.62-.36-.55 1.2-1.05 2.43-1.09 3.77-.83-1.15-1.67-2.29-2.53-3.41z"/>
    <path fill="#561415" opacity=".67" d="M51.44 36.25c.64-.57 1.3-1.1 1.98-1.62 1.04 2.1 2.62 3.85 3.94 5.77-2.58-.32-4.13-2.54-5.92-4.15z"/>
    <path d="M75.93 35.5c.35-.99 1.08-1.43 2.2-1.31.2.15.61.44.82.59.73 1.09 1.46 2.2 1.99 3.41.1.39.32 1.18.42 1.58.6.11 1.78.33 2.37.44-.17.81-.3 1.64-.42 2.46l.42-.1c.69 1.82 1.28 3.68 1.85 5.54 2.49-.6 4.39-2.37 6.08-4.2l.53-.59c-.52-1.45-1.14-2.88-1.89-4.23-.31-.53-.93-1.58-1.23-2.11.61.17 1.83.5 2.45.67 1.66 5.19 3.83 10.54 3.27 16.08-.49 1.49-1.02 2.97-1.51 4.46.08-2.06.09-4.12.09-6.18-2.25-1.25-4.63-2.25-7.08-3.04-.09 2.93-.05 5.87-.06 8.8l-1.07-.95c-.44-1.68-.81-3.38-1.12-5.1-.08-.51-.24-1.54-.33-2.06-1.43.26-2.86.52-4.29.74-.48-.1-1.45-.29-1.93-.39 2-.59 4.02-1.08 6.05-1.54-.57-1.73-1.11-3.47-1.65-5.21-.53-1.5-1.21-2.96-2.24-4.18-1.25-1.19-2.52-2.34-3.72-3.58m11.99 13.22c1.77.58 3.53 1.21 5.27 1.87-.23-1.9-.49-3.79-.78-5.68-1.77.91-3.12 2.4-4.49 3.81zm-34.48-2.68c1.71-2.41 3.74-4.59 6-6.49.24 2.5.29 5.1 1.4 7.41.27.55.82 1.63 1.09 2.18.27.5.79 1.5 1.05 2 1.53.48 3.06.96 4.59 1.43-.69 1.73-1.04 3.57-1 5.43.01 17.43-.02 34.86 0 52.29-.17.52-.51 1.58-.68 2.1-.33-6.7-.11-13.4-.33-20.1-1.19-.16-2.39-.31-3.59-.46.01-11.3 0-22.6.02-33.91.18-2.91-1.07-5.61-2.48-8.07-1.43-2.09-3.8-2.97-6.07-3.81zM41.3 47.97l.59-.1-.02.48-.38.06-.19-.44z" fill="#c63031"/>
    <path fill="#110404" opacity=".29" d="M37.63 40.11c.86-1.81 1.77-3.61 2.76-5.36.83 1.6 1.66 3.21 2.48 4.81-1.75.2-3.5.38-5.24.55z"/>
    <path fill="#bd2c31" d="M59.44 39.55c1.79-1.21 3.89-3.08 6.2-2.07 3.78 1.94 6.93 5.01 9.21 8.59-1.52.67-3.04 1.33-4.5 2.09-1.06 1.39-1.96 2.88-2.78 4.41-1.53-.47-3.06-.95-4.59-1.43-.26-.5-.78-1.5-1.05-2 .54.41 1.61 1.24 2.14 1.65 1.42-.97 2.68-2.13 3.55-3.61 1.82-3.66-3.26-5.39-5.87-3.59l-1.15.36.24 3.01c-1.11-2.31-1.16-4.91-1.4-7.41z"/>
    <path fill="#1f0708" opacity=".43" d="M61.75 43.59c2.61-1.8 7.69-.07 5.87 3.59-.52-1.14-1.08-2.25-1.68-3.34-1.39-.24-2.78-.32-4.19-.25z"/>
    <path fill="#030000" opacity=".24" d="M36.11 44.8c1.24 1.23 2.47 2.46 3.69 3.7-1.41.58-2.82 1.17-4.23 1.75.03-.89.1-2.67.14-3.57l.4-1.88z"/>
    <path fill="#200707" opacity=".37" d="M46.19 44.71c.12 1.14.27 2.28.44 3.42 1.75.51 4.48.36 3.84 3.05-1.22-.31-2.44-.61-3.66-.9l2.45-.96c-1.12-.14-3.34-.41-4.46-.55.46-1.36.92-2.71 1.39-4.06z"/>
    <path fill="#070101" opacity=".24" d="M87.92 48.72c1.37-1.41 2.72-2.9 4.49-3.81.29 1.89.55 3.78.78 5.68-1.74-.66-3.5-1.29-5.27-1.87z"/>
    <path fill="#020000" opacity=".2" d="M37.86 50.6c1.47-.46 2.97-.8 4.47-1.17-.25 2.97-.38 5.94-.11 8.91-2.37-.09-4.75-.15-7.12-.2-.03-1.93-.1-3.85-.05-5.77l.78-.57c.03 1.81.07 3.61.11 5.42 1.73-.02 3.46-.05 5.19-.06.1-2.07.15-4.15.16-6.22-.85-.08-2.57-.25-3.43-.34z"/>
    <path fill="#0a0203" opacity=".34" d="M59.51 49.85c1.41 2.46 2.66 5.16 2.48 8.07-.02 11.31-.01 22.61-.02 33.91-.01 5.4.08 10.8-.04 16.2-.18 3.37 1.47 6.41 2.25 9.61-1.94-2.03-2.32-4.91-3.37-7.4-.28-.19-.85-.57-1.13-.76.52-17.16.1-34.35.27-51.53.22-2.62-.82-5.06-2.08-7.29.41-.2 1.23-.61 1.64-.81z"/>
    <path fill="#020000" opacity=".19" d="M79.42 50.4c1.43-.22 2.86-.48 4.29-.74.09.52.25 1.55.33 2.06.1 2.04.06 4.08-.02 6.12-3.03.04-6.06.08-9.09.13.11-2.36.24-4.72.42-7.08.28 2.02.54 4.04.78 6.06 2.38.13 4.76.15 7.15.08-.05-1.93-.13-3.85-.26-5.76-.9-.22-2.7-.66-3.6-.87z"/>
    <path fill="#c02c31" d="M68.48 56.04c-.17-3.32 2.42-6.34 5.92-5.27.23 2.46.3 4.93.31 7.4 3.1.03 6.19.12 9.28.11l-.09 1.98c-3-.02-5.99.04-8.99.09l-.77.01c.17 5.78-.08 11.56.06 17.34l1.08.57 1.19.62c.03 1.51-.12 3.36-1.82 3.88-.04 5.08.06 10.17 0 15.25.08 1.81-.67 3.49-1.62 4.98-.29.44-.87 1.31-1.17 1.74-.34 1.4-1.31 2.53-2.09 3.71l-1.44.63c.2-17.68-.08-35.36.15-53.04z"/>
    <path fill="#200707" opacity=".4" d="M97.05 58.96c3.04.82 1.93 5.28.94 7.44.14-2.51.87-5.33-.94-7.44z"/>
    <path fill="#641619" opacity=".76" d="M74.14 60.36l.77-.01c0 5.35-.35 10.74.66 16.04-.07.47-.22 1.41-.29 1.88l-1.08-.57c-.14-5.78.11-11.56-.06-17.34z"/>
    <path fill="#200807" opacity=".43" d="M87.92 64.86c.59-.96 1.37-1.7 2.34-2.23l.94 1.18c-.89.88-1.98 1.23-3.28 1.05z"/>
    <path fill="#110403" opacity=".33" d="M86.66 67.72c2.61-1.22 5.64-2.54 8.51-1.4-2.83.53-5.66 1.02-8.51 1.4z"/>
    <path fill="#bd2c29" d="M61.97 91.83c1.2.15 2.4.3 3.59.46.22 6.7 0 13.4.33 20.1-.45 1.79-1.09 3.51-1.71 5.25-.78-3.2-2.43-6.24-2.25-9.61.12-5.4.03-10.8.04-16.2z"/>
    <path fill="#450f11" opacity=".64" d="M71.86 104.74c.3-.43.88-1.3 1.17-1.74l.34.87-.6.89-.91-.02z"/>
</svg>
