<svg width="128pt" height="128pt" viewBox="0 0 128 128" xmlns="http://www.w3.org/2000/svg">
    <path fill="#fff" d="M66.05 37.5c.11-.51.32-1.51.42-2.01-.05.57-.14 1.7-.19 2.27 3.17 2.39 6.76 4.72 8.3 8.56-5.05.61-7.77 6-8.04 10.59-.07 17.66.01 35.33-.03 53-.41 2.88-1.87 5.53-2.37 8.42-.47-3.52-2.49-6.72-2.3-10.33.05-17.02.01-34.05.02-51.07-.18-4.71-3.02-10.06-8.15-10.69 1.93-3.45 4.88-6.29 8.28-8.28 1.19-.9 2.69-.56 4.06-.46m-5.59 6.64c.25 2.86 1.17 6.28 4.58 6.62 1.77-1.74 2.71-4 2.91-6.44-2.35-1.59-5.09-1.91-7.49-.18z"/>
</svg>
