<svg width="128pt" height="128pt" viewBox="0 0 128 128" xmlns="http://www.w3.org/2000/svg">
    <g fill="#fff">
        <path d="M17.39 31.25c4.16 2.21 7.3 7.01 12.29 7.13 2.61 1.97 5.28 4.01 7.03 6.84-1.31 4.41 1.77 8.1 2.42 12.17-1.22 2.44-2.84-.5-2.63-2.01l-.72 1.92.61-.14c.11 1.15.19 2.31.35 3.46 2.51 2.89 2.07 7.61 5.46 9.84 1.15-.14 2.13-.92 3.23-1.25l.28-2.13c-.99 1.4-2.67 3.43-4.51 1.94-1.28-2.1-1.64-4.59-2.69-6.8-.48-1-1.61-3.16.32-3.39 2.5.08 3.17 3.02 2.55 5.02.48-.83 1.22-1.28 2.23-1.34.07 2.07.84 3.8 3.17 3.4.83 1.96 2.65 2.18 4.53 1.6-.04 1.49.76 2.61 1.92 3.43 1.22 3.27-.87 6.03-3.49 7.83-1.42-1.87-.99-3.97.26-5.76-1.28 2.01-3.59 2.18-5.48 3.22 3.96-2.38 5.81 3.16 3.73 5.92 1.59-2.7 3.63-5.05 5.84-7.27.64 3.8-1.26 7.34-2.81 10.66-.85 1.96-3.01 2.47-4.9 2.81.19-1.4.39-2.8.59-4.19-1.61 1.52-3.5 2.78-5.81 2.81.17-2.66 1.51-4.95 2.74-7.24-.35-.02-1.05-.05-1.41-.07v2.13c-1.7 2.15-4.24 4.69-7.08 2.73.33-.77.98-2.32 1.31-3.1-.84.23-2.53.7-3.37.93-.86-1.53.47-2.91 1.26-4.08-1.88.79-3.89 1.2-5.93 1.06-.79-2.69 1.05-4.71 3.09-6.09-1.96 1.28-4.25 1.55-6.55 1.32.63-2.22 1.95-4.09 3.81-5.44-2.57.6-5.26.94-7.82.06.82-.97 1.64-1.93 2.5-2.86-1.78-.07-3.57-.16-5.34-.3.71-1.32 1.57-2.54 2.53-3.69-1.74-.06-3.44-.41-5.04-1.1.47-.44 1.39-1.32 1.86-1.76-1.16-.23-2.3-.47-3.45-.7.12-.51.37-1.54.49-2.06-.66-.17-2-.52-2.66-.69 1.64-2.84 5.01-3.13 7.93-3.49-3.11-.09-6.53-.25-8.97-2.44 4.99-.17 10 0 14.98-.5-5.22-.66-11.28-.44-15.24-4.5 5.05.5 10.08 1.22 15.17 1.12-4.49-2.52-10.39-3.36-13.23-8.13 5.09.24 9.29 3.45 14.07 4.79-3.3-2.77-7.28-5.11-9.44-8.95.01-.67.02-2 .02-2.67m17.08 21.9c-.76 1.12 1.07 2.69 2.07 1.76.76-1.14-1.08-2.59-2.07-1.76m-18.24 4.09c.48.56.48.56 0 0M42.07 72.3c-1.44 3.05 3.3.09 0 0m3.15-.04c.52.52.52.52 0 0m-7.01 5.98c-1.19.11-2.02 2.6-.41 2.61 1.14-.15 1.96-2.55.41-2.61zm59.94-39.23c3.76-2.45 7.16-5.54 11.1-7.62-.13 5.73-6.19 8.43-10.13 11.53 4.98-1.13 9.19-4.57 14.37-4.95-2.57 5.11-8.89 5.65-13.34 8.38 5.1-.2 10.17-.7 15.25-1.26-3.91 4.15-10.12 3.78-15.34 4.47 5.06.51 10.16.32 15.23.61-2.65 2.12-6.1 2.51-9.37 2.24 2.46.63 5.39.44 7.34 2.33 1.59 1.24-.55 2.26-1.75 1.82.11.61.33 1.83.45 2.44-.71.04-2.12.13-2.82.17l1.12 2.08c-1.55.72-3.23 1.02-4.93 1.11 1.09 1.09 2.15 2.24 2.6 3.76-1.7.06-3.39.1-5.09.12.74 1.03 1.47 2.06 2.18 3.11-2.61.55-5.27.39-7.86-.16 1.95 1.26 3.43 3.09 3.8 5.46-2.32.21-4.46-.61-6.63-1.2 2.38.88 3.69 3.03 3.58 5.54-1.97.79-4.02.07-5.88-.65.44.85.84 1.71 1.19 2.6.38 2.46-2.3 1.12-3.31.5.22.78.67 2.34.89 3.12-.68.21-2.06.64-2.74.86-2.14-1.23-3.99-2.92-4.93-5.25.73 2.19 1.8 4.29 2.02 6.62l-3.27-.45c-.86-.77-1.72-1.52-2.57-2.28.24 1.43.43 2.88.58 4.33-5.49-.25-6.25-6.53-7.78-10.58l.14-2.04c1.48 1.21 3 2.39 4.7 3.28-1.31-1.4-2.51-3.05-4.41-3.67.02-2.82.96-5.39 2.79-7.52 1.54-.05 3.19.03 4.01-1.54 1.02-.31 2.03-.63 3.04-.94.04-.59.11-1.76.15-2.35 2.41.29 2.56-1.9 2.93-3.62.47-.24 1.4-.72 1.86-.96-.15-4.68 4.06-8.59 2.43-13.48 2.03-3.16 5.3-5.14 8.05-7.6l.35 1.64M84.18 71.17c-1.13.22-1.85 2.61-.32 2.73 1.15-.19 1.8-2.63.32-2.73m-3.78.7c1.09.86 1.25 1.86.49 3-.36.18-1.08.55-1.43.73.51.33 1.02.65 1.53.99.57-1.49 1.17-3.83-.59-4.72m-4.2 1.39c-.72.98.45 2.95 1.68 2.41.8-.97-.47-3.01-1.68-2.41m11.85 6.04c-1.44 3.06 3.29.09 0 0m-10.96.98c-1.59 2.98 3.29.27 0 0zM50.53 47.06c.42.71.83 1.43 1.24 2.15 1.58 1.33 3.24 2.56 5.09 3.5-1.43 1.5-2.8.79-3.97-.61-.37-1.04-1.07-1.71-2.09-2.01l-.27-3.03zm4.61 8.82c1.25.36 2.47.92 3.13 2.12-1.07.32-1.92.92-2.55 1.81.56-.21 1.69-.64 2.25-.85l-.49 1.58 2.46-.16-.18.36c-.52.09-1.55.29-2.07.38.53.3 1.58.89 2.1 1.18.03 2.4-3.49 2.2-5.16 2.14-.37-1.45-.76-2.9-1.14-4.35.56-1.4 1.12-2.8 1.65-4.21z"/>
        <path d="M70.34 55.44c1.28 1.26 1.89 2.95 2.54 4.59-1.16 4.26-1.26 8.97-4.15 12.58l-1.31.22c.01-.66.05-1.98.06-2.65-.28.65-.85 1.95-1.14 2.6-.81-.55-1.44-1.26-1.9-2.12-.03 1.02-.1 3.07-.13 4.09-2.93-.18-2.76-2.66-1.62-4.55-.69.86-1.35 1.75-1.97 2.66-1.08-.46-1.45-1.82-2.26-2.62.03.81.09 2.42.13 3.22-2.65-2.23-3.31-5.76-4.5-8.83 1.98-.05 3.96-.09 5.94-.14.31-1.09.88-1.99 1.71-2.7.77.68 1.54 1.36 2.31 2.05-.72-1.68-3.11-3.18-2.09-5.17 2.39-2.4 2.84 1.74 2.66 3.34.91-.59 2.74-1.77 3.66-2.36-.45.84-.91 1.67-1.38 2.5 2.35.56 3.21-2.14 2.88-3.93l-2.01.28c.64-.77 1.93-2.3 2.57-3.06z"/>
        <path d="M59.41 73.79c2.17-1.34 1.34 3.07-.21.73l.21-.73zM61.99 75c1.38-1.12 3.85.87 2.23 2.24-1.22 1.61-3.54-.96-2.23-2.24zm-5.33 12.41c.35-.54 1.03-1.62 1.38-2.16 1.44 2.33 2.19 4.98 3.07 7.55-2.15-.97-4.14-2.23-5.55-4.16.27-.3.83-.92 1.1-1.23z"/>
    </g>
    <path opacity=".9" d="M75.56 48.36l.81-1.17-.56 1.71c-.87.93-1.57 1.99-1.72 3.28l-.61.08c-.8.66-1.61 1.32-2.41 1.97-.31-.44-.91-1.32-1.22-1.76 2.17-.99 3.65-2.95 5.71-4.11zM65.09 92.95c1.24-2.41 1.16-5.97 3.78-7.36.5.56 1.5 1.67 2 2.23-.69 2.9-3.24 4.15-5.78 5.13z" fill="#e6e6e6"/>
    <path fill="#d2d2d2" opacity=".82" d="M34.47 53.15c.99-.83 2.83.62 2.07 1.76-1 .93-2.83-.64-2.07-1.76z"/>
    <path fill="#c7c7c7" opacity=".78" d="M16.23 57.24c.48.56.48.56 0 0z"/>
    <path fill="#ddd" opacity=".87" d="M84.18 71.17c1.48.1.83 2.54-.32 2.73-1.53-.12-.81-2.51.32-2.73z"/>
    <path fill="#d0d0d0" opacity=".82" d="M42.07 72.3c3.3.09-1.44 3.05 0 0z"/>
    <path fill="#cdcdcd" opacity=".8" d="M45.22 72.26c.52.52.52.52 0 0z"/>
    <path fill="#dbdbdb" opacity=".86" d="M76.2 73.26c1.21-.6 2.48 1.44 1.68 2.41-1.23.54-2.4-1.43-1.68-2.41z"/>
    <path fill="#fefefe" d="M65.36 73.77c3.19-1.65-.08 3.52 0 0z"/>
    <path fill="#e7e7e7" opacity=".91" d="M38.21 78.24c1.55.06.73 2.46-.41 2.61-1.61-.01-.78-2.5.41-2.61z"/>
    <path opacity=".86" d="M88.05 79.3c3.29.09-1.44 3.06 0 0zm-10.96.98c3.29.27-1.59 2.98 0 0z" fill="#dcdcdc"/>
</svg>
