<svg width="128pt" height="128pt" viewBox="0 0 128 128" xmlns="http://www.w3.org/2000/svg">
    <path fill="#b52b29" d="M58.19 23.17c3.35-1.51 7.16-1.09 10.73-.89 7.48 1.6 13.52 9.11 12.77 16.87 2.73 2.39 5.4 4.91 7.23 8.09 2.01 3.52 4.88 6.98 8.96 8.05 3.4-.18 6.36-1.97 9.37-3.37 2.48-.78 5.15-1.29 7.65-.23-8.38 2.89-13.74 10.48-19.55 16.72-3.76 3.73-5.77 8.74-9.08 12.81-4.44 4.36-9.97 7.96-16.26 8.82-5.4.41-11.1.68-16.14-1.66-6.76-2.86-12.08-8.58-15.19-15.15-3.59-5.83-8.8-10.42-13.5-15.33-3.44-3.62-7.94-5.91-12.47-7.86 5.9-.26 11.16 2.27 16.43 4.48 4.43 2.09 9.15-1.6 10.84-5.62 1.86-3.9 5.05-6.9 8.22-9.75-.59-6.81 3.9-13.25 9.99-15.98m-1.39 4.56c-3.32 1.98-4.59 5.85-5.59 9.35 3.78-1.42 7.61-3.09 11.75-2.74 5.53-.35 11.24.25 16 3.31-.87-3.72-2.23-7.72-5.64-9.86-4.76-3.54-11.76-3.64-16.52-.06m-4.96 15.22c1.24 3.45 3.51 6.62 6.95 8.14 7.04 4 17.82-.25 19.17-8.52-8.03-4.57-18.3-4.74-26.12.38m-8.51 27.54c4 11.98 18.95 18.27 30.43 13.3 10.18-3.66 16.33-15.39 14.07-25.87-.81-4.95-3.52-9.29-6.78-12.99-1.71 3.76-4.49 7.05-8.18 8.99-3.55 2.14-7.88 1.66-11.82 1.4-5.46-1.09-9.86-5.34-12.06-10.34-6.13 6.74-9.49 16.79-5.66 25.51M32.74 59.73c1.53 1.28 3.01 2.6 4.48 3.95-.04-1.44-.07-2.88-.09-4.32-1.47.13-2.93.25-4.39.37m60.04-.53l.06 4.84c1.68-1.42 3.31-2.9 4.97-4.34-1.68-.13-3.36-.3-5.03-.5z"/>
    <path fill="#2d0a0a" opacity=".48" d="M107.25 51.92c2.85-2.39 6.89-2.21 10.39-2.01-.71.65-1.42 1.3-2.14 1.94l-.6-.16c-2.5-1.06-5.17-.55-7.65.23z"/>
    <path opacity=".26" d="M32.74 59.73c1.46-.12 2.92-.24 4.39-.37.02 1.44.05 2.88.09 4.32-1.47-1.35-2.95-2.67-4.48-3.95zm60.04-.53c1.67.2 3.35.37 5.03.5-1.66 1.44-3.29 2.92-4.97 4.34l-.06-4.84z"/>
    <path fill="#b52c29" d="M29.54 82.91c2.08-2.29 4.91-2.99 7.89-2.47l.45.63c.91 1.49 2.43 2.96 2.14 4.87-.47 1.52-1.35 2.86-2.04 4.28.18.26.52.78.7 1.04 2.74 3.75 6.82 6.24 11.03 8.01 2.81 1.19 5.84 1.62 8.84 1.94.43-1.18.88-2.35 1.35-3.51l1.16-1.2c1.78-.33 3.6-.43 5.41-.45 1.27.63 2.2 1.74 2.49 3.14.18.48.53 1.42.7 1.89 2.97-.05 5.95-.58 8.67-1.81 4.23-1.94 8.34-4.49 11.16-8.29.37-.49.74-.98 1.11-1.46-.54-2.17-.89-4.37-1.13-6.59 2.22-2.39 5.81-3.65 8.69-1.6 2.05 2.78 2.09 8.84-2.48 8.84.32-1.31 1.57-2.06 2.42-3.03-.07-.87-.22-2.63-.29-3.51-1.41-1.72-4.21-2.45-5.92-.72-1.55 1.31-1.08 3.47-.6 5.17.74.27 2.22.8 2.96 1.07-1.73 1.03-3.16 2.48-4.32 4.11-.78 1-1.53 2.07-2.66 2.71-1.27.71-2.43 1.61-3.5 2.59-1.3 1.09-2.83 1.86-4.4 2.47-3.22.81-6.51 1.21-9.76 1.86-1.31 1.5-2.62 3.41-4.79 3.59-2.37.46-4.21-1.4-5.65-2.99-.57-.21-1.72-.65-2.29-.87-1.75-.75-3.66-.76-5.53-.79l-1.14-.13c-1.71-.97-3.49-1.81-5.34-2.47-3.73-1.7-6.65-4.83-9.01-8.11-.01-.49-.03-1.48-.03-1.98 1.24-.77 2.33-1.79 2.49-3.33-.42-1.13-.84-2.25-1.28-3.37-2.98-.72-5.96.35-6.2 3.76l.26 1.01c-.81-1.31-1.12-2.84-1.56-4.3m30.94 19.03c.26 3.65 6.05 4.23 6.97.63 1.36-2.57-1.3-4.69-3.44-5.53-1.92.9-4.3 2.37-3.53 4.9z"/>
    <path fill="#120404" opacity=".3" d="M37.88 81.07l2.4.68c.57 3.3.25 6.65-1.6 9.51-.18-.26-.52-.78-.7-1.04.69-1.42 1.57-2.76 2.04-4.28.29-1.91-1.23-3.38-2.14-4.87z"/>
    <path fill="#300b0c" opacity=".47" d="M98.16 81.33c2.85 1.15 2.64 5.28 1.29 7.52-1.28 2.32-4.18 2.45-6.5 2.75-1.13.29-2.14.85-3.02 1.66 1.16-1.63 2.59-3.08 4.32-4.11 1.33-.58 2.6-1.27 3.85-2.01-.85.97-2.1 1.72-2.42 3.03 4.57 0 4.53-6.06 2.48-8.84z"/>
    <path fill="#220807" opacity=".44" d="M91.89 82.91c1.71-1.73 4.51-1 5.92.72-1.79-.29-3.74-1.36-5.46-.24-1.08 1.3-.79 3.13-1.06 4.69-.48-1.7-.95-3.86.6-5.17z"/>
    <path fill="#6b1918" opacity=".78" d="M35.86 91.12c-4.6 1.01-8.17-4.08-6.32-8.21.44 1.46.75 2.99 1.56 4.3.54.67 1.11 1.32 1.69 1.95.76-.01 2.28-.01 3.04-.02 0 .5.02 1.49.03 1.98z"/>
    <path fill="#2e0b0a" opacity=".49" d="M89.49 90.98c-.14-2.69-.71-5.39-.02-8.05.24 2.22.59 4.42 1.13 6.59-.37.48-.74.97-1.11 1.46z"/>
    <path fill="#0e0303" opacity=".33" d="M30.84 86.2c1.35.87 2.69 1.74 4.04 2.6 1.14-1 2.29-2.01 3.44-2.99-.16 1.54-1.25 2.56-2.49 3.33-.76.01-2.28.01-3.04.02-.58-.63-1.15-1.28-1.69-1.95l-.26-1.01z"/>
    <path fill="#120404" opacity=".32" d="M61.06 96.5c.11-2.3 5.16-2.85 5.41-.45-1.81.02-3.63.12-5.41.45z"/>
    <path fill="#270909" opacity=".43" d="M83.77 98.56c1.07-.98 2.23-1.88 3.5-2.59.98 1.74-2.05 3.8-3.5 2.59z"/>
    <path fill="#1d0707" opacity=".39" d="M60.48 101.94c-.77-2.53 1.61-4 3.53-4.9 2.14.84 4.8 2.96 3.44 5.53-.92 3.6-6.71 3.02-6.97-.63m.79-.9c-.79 2.53 2.54 3.72 4.36 2.59 2.03-.88.59-3.43.7-5.01-2.01-.35-5.29-.61-5.06 2.42z"/>
    <path fill="#1b0607" opacity=".36" d="M57.72 99.99c.72-.77 1.45-1.53 2.18-2.29-.47 1.16-.92 2.33-1.35 3.51-3-.32-6.03-.75-8.84-1.94 2.67.3 5.33.56 8.01.72z"/>
    <path fill="#240808" opacity=".42" d="M44.87 99.23c1.85.66 3.63 1.5 5.34 2.47-1.67 1.36-5.6-.29-5.34-2.47z"/>
    <path fill="#260908" opacity=".41" d="M68.96 99.19c3.04 1.11 6.26.5 9.37.08-2.72 1.23-5.7 1.76-8.67 1.81-.17-.47-.52-1.41-.7-1.89z"/>
    <path fill="#2e0b0a" opacity=".53" d="M69.61 102.89c3.25-.65 6.54-1.05 9.76-1.86-2.82 1.97-6.44 2.23-9.76 1.86z"/>
    <path fill="#330c0c" opacity=".55" d="M51.35 101.83c1.87.03 3.78.04 5.53.79-1.39 1.15-5.18 1.28-5.53-.79z"/>
</svg>
