<svg width="128pt" height="128pt" viewBox="0 0 128 128" xmlns="http://www.w3.org/2000/svg">
    <g fill="#fff">
        <path d="M43.4 28.29c2.39.32 4.72.99 7.03 1.68-.07 1.66-.15 3.33-.22 4.99-2.23-.6-5.2-.21-6.57-2.46-.99-1.23-.33-2.83-.24-4.21zm22.39-.94c3.25 1.59 5.19 4.73 6.29 8.06-1.56 3.29-.32 6.88.62 10.14-1.79 1.08-3.28 4.64-5.6 3.27-.15-1.64 1.75-2.3 2.53-3.47-2.02 1.37-4.14 3.54-6.22.86 2.02-.95 4.07-1.86 5.99-3.01-2.25.44-4.42 2.69-6.66 2.04-1.79-3.52 3.91-2.65 5.87-3.71-2.35.26-4.7.55-7.06.64.23-4.07 4.77-1.87 7.33-2.57-2.17-.39-4.39-.34-6.58-.39.26-.85.78-2.54 1.05-3.38 1.67.47 3.35.89 5.05 1.25-1.48-.75-3.03-1.36-4.51-2.11-.47-1.38-.09-2.44 1.13-3.19 1.43.78 2.77 1.74 4.22 2.49-2.08-1.8-5.61-3.65-3.45-6.92z"/>
        <path d="M50.53 29.96c2.26 1.89 5.68 2.96 6.34 6.2 1.77 5.93 5.96 10.87 10.9 14.47 6.01-5.16 12.97-9.23 20.71-11.15 1.07 1.16 2.13 2.33 3.16 3.53-.9-.17-2.7-.49-3.6-.66-6.68 4.06-11.42 11.72-10.96 19.67-.25 4.58 2.32 8.59 3.17 12.97-3-.85-5.78-2.27-8.47-3.82-4.81.4-10.37 2.78-12.16 7.65-5.13 8.97-10.7 17.7-16.53 26.23-2.92 4.47-7.51 7.97-12.89 8.74-.11-2.05 1.73-3.27 3.02-4.55 3.76-3.29 7.41-6.84 9.88-11.24 1.96-2.46 3.67-5.11 5-7.96 4.08-5.71 8.64-11.59 9.17-18.89-2.21-3.05-.48-6.56.94-9.51.7 0 2.11-.01 2.81-.01 1.31-2.43 2.68-4.95 2.8-7.77-7.17-5.79-13.24-14.37-13.29-23.9m27.61 15c-1.52.31-1.1 2.85.51 1.97 1.51-.32 1.08-2.83-.51-1.97m-7.37 21.09c1.56-1.71 3.2-3.37 5.23-4.53.13-2.6.07-5.2-.15-7.79-4.7 1.78-4.96 8.01-5.08 12.32z"/>
        <path d="M45.13 34.97c1.83-.27 3.61.49 5.39.78.39 1.02 1.16 3.07 1.54 4.1-2.16.25-4.34.43-6.51.56-1.15-1.54-2.42-3.98-.42-5.44zm.94 6.77c2.05-.66 4.24-.68 6.36-1.01.48 1.04.95 2.08 1.43 3.11-2.44.83-4.84 1.78-7.2 2.81-1.19-1.36-2.18-3.4-.59-4.91zm44.05 1.48c2.63-.07 2.34 2.78 1.99 4.6-.55 2.74-3.03 4.41-4.85 6.31-3.89 3.52-5.47 8.7-8.55 12.84-2.66-7.9.6-17.82 7.73-22.41 1.37 1.43 3.84 1.04 3.68-1.34zm-43.53 4.46c2.41-1.39 5-2.43 7.58-3.46.39.56 1.16 1.68 1.55 2.24-2.3 1.66-4.62 3.3-6.88 5.01-1.52-.76-2.25-2.11-2.25-3.79zm6.18 8.46c1.55-2.39 3.55-4.43 5.4-6.57 3.37 2.47-.36 5.57-1.49 8.24-.85 2.4-4.87.68-3.91-1.67zm7.92-3.78c3.29 1.78 1.99 5.37.4 7.9-.79 1.63-2.89.3-4.09.03.67-2.87 2.29-5.37 3.69-7.93zm22.6 10.03c1.55 1.53 3.06 3.11 4.48 4.77-2.29.03-4.45-.74-6.56-1.53l2.08-3.24z"/>
    </g>
    <path fill="#e4e4e4" opacity=".89" d="M78.14 44.96c1.59-.86 2.02 1.65.51 1.97-1.61.88-2.03-1.66-.51-1.97z"/>
    <path fill="#f7f7f7" opacity=".97" d="M49.68 52.15c1.97-1.98 4.35-3.48 6.52-5.22.34.55 1.02 1.65 1.37 2.19-1.71 2.34-3.56 4.57-5.57 6.66-2.08.24-3.3-1.88-2.32-3.63z"/>
    <path fill="#f1f1f1" opacity=".95" d="M70.77 66.05c.12-4.31.38-10.54 5.08-12.32.22 2.59.28 5.19.15 7.79-2.03 1.16-3.67 2.82-5.23 4.53z"/>
</svg>
