<svg width="128pt" height="128pt" viewBox="0 0 128 128" xmlns="http://www.w3.org/2000/svg">
    <g fill="#fff">
        <path d="M57.17 57.73c2.45.93 3.87 3.11 5.18 5.24-1.57 1.92-2.83 4.42-5.66 4.49-.82-1.46-1.64-2.92-2.58-4.3.49 1.53 1.24 2.98 1.64 4.54-1.04 1.87-1.75 4.28-4.07 4.89-.42-.98-1.25-2.93-1.67-3.91.16.99.49 2.97.66 3.96-.96 1.91-1.69 3.93-2.6 5.87-.47-2.92-.88-5.92-.48-8.87.52-.11 1.55-.33 2.06-.44.63-2.23.19-7.15 3.72-5.79.88-2.13 2.24-4 3.8-5.68zm8.66 5.36c1.1-2.34 2.53-4.58 5.03-5.59 1.44 1.49 2.71 3.12 3.9 4.81-1.2 1.62-2.28 3.33-3.23 5.12-2.6-.34-4.04-2.57-5.7-4.34zm6.52 4.48c.72-2.43 2.02-4.7 4.74-5.15.65 1.74 1.25 3.49 1.89 5.23-.8 1.68-1.44 3.54-2.94 4.75-1.34-1.52-2.44-3.23-3.69-4.83zm-12.19-.7c1.15-1.01 2.03-2.91 3.81-2.8 2.05-.13 3.18 1.91 4.64 2.99-1.42 2.26-2.41 5.58-5.68 5.37-.89-1.87-1.85-3.7-2.77-5.56zm6.25 5.43c1.17-1.76 1.91-4.54 4.55-4.26 1.61.71 2.47 2.4 3.58 3.67-1.41 2.09-1.52 6.58-4.62 6.56-1.05-2.06-2.07-4.15-3.51-5.97z"/>
        <path d="M54.17 71.97c.91-1.36 1.87-2.7 2.88-4 2.73.11 4.33 1.99 5.18 4.39-1.2 1.94-2.27 3.96-3.44 5.92-3.25.2-2.98-4.33-4.62-6.31zm-5.76 6.14c1.23-1.9 1.77-5.16 4.49-5.35 1.99.79 2.5 3.18 3.06 5.02-1.27 2.15-2.14 5.46-5.11 5.56-.61-1.83-1.34-3.63-2.44-5.23zm13.73-4.77c.8-.17 2.38-.5 3.17-.66 1.81 1.37 2.92 3.31 3.62 5.44-1.13 1.77-2.33 3.48-3.6 5.15-2.94.01-4.03-2.69-5.38-4.77.22-1.91.96-3.68 2.19-5.16zm10.47 4.58c.72-2.25 1.24-5.9 4.5-5.17 3.67 2.57 2.55 7.19 1.05 10.68-3.21.09-3.69-3.64-5.55-5.51zm-26.87.67c2.57.13 3.8 2.58 4.37 4.76-1.59 1.07-1.34 3.73-2.92 4.52-1.98-2.66-1.4-6.18-1.45-9.28z"/>
        <path d="M78.73 83.74c.63-2.22 1.54-4.32 3.55-5.63.01 2.97-.08 5.94-.1 8.92-.97-.62-1.33-3.15-2.77-2.49.28 1.41.9 2.72 1.61 3.97-1.23 2.04-1.06 5.79-4.02 6.02-1.2-1.9-2.18-3.92-3.12-5.95.45-1.25.86-2.52 1.23-3.8 1.2-.37 2.42-.67 3.62-1.04zm-24.91-.54c.89-1.56 1.9-3.05 3.03-4.45 2.75.26 4.47 2.25 5.61 4.59-1.93 1.8-3.13 5.13-6.24 5-.72-1.75-1.5-3.48-2.4-5.14zm12.64.04c.79-1.87 1.98-4.46 4.44-4.15 2.24-.13 3.08 2.42 4.07 3.98-.79 1.71-1.28 3.53-1.54 5.39-3.53.4-4.76-3.29-6.97-5.22zm-15.67.28c2.49.54 3.79 2.63 4.92 4.7-1.11 2.31-2.28 4.59-3.68 6.74-2.33-1.63-2.72-4.6-3.9-6.99.84-1.51 1.71-3.01 2.66-4.45zm12.03.1l3.07.12c1.33 1.34 2.62 2.73 3.8 4.22-1.62 1.93-2.94 4.08-3.84 6.43-3.56.12-3.83-4.45-6.09-6.36.83-1.6 1.88-3.06 3.06-4.41zm-18.24 6.09c2.97-1.84 4.88 1.91 5.41 4.31-.96 1.73-1.82 3.51-2.8 5.22-2.46-2.25-1.78-6.43-2.61-9.53zm8.89 4.43c1.15-1.78 1.62-4.22 3.54-5.37 3.18-.17 4.48 2.94 5.63 5.31-1.12 1.36-2.27 2.7-3.44 4.01l-2.96.32c-.77-1.52-1.72-2.93-2.77-4.27zm14.21-1.95c.86-2.3 2.91-3.53 5.33-3.33 1.02 1.74 2.01 3.49 2.99 5.25-1 1.38-1.98 2.77-2.9 4.2-.79.01-2.35.04-3.14.05-1.1-1.86-4.05-3.85-2.28-6.17zm14-2.77c.19.24.59.73.78.97.23 1.89-.93 4.59 1.21 5.66-.05.66-.16 1.98-.22 2.64-.38.03-1.15.1-1.54.13-.78-1.65-1.65-3.26-2.57-4.83.69-1.56 1.31-3.19 2.34-4.57zM60.04 98.7c.98-1.65 2.14-3.28 4-4 2.52-.21 4.04 1.87 5.27 3.71-1.37 1.37-2.4 3.02-3.09 4.83-.76 0-2.28-.01-3.04-.01-.69-1.73-1.39-3.6-3.14-4.53zm-11.71.09c.95-1.41 1.33-4.1 3.63-3.54 2.06-.15 2.74 2.16 3.63 3.55-1.56 1.74-2.33 4.51-4.94 4.93-.55-1.75-1.15-3.51-2.32-4.94zm25.49-.08c1.05-2.1 2.51-3.92 5.12-3.69.72 1.23 1.39 2.48 2.04 3.74-1.06 1.41-1.81 3-1.91 4.78-.64-.09-1.91-.28-2.54-.37-.72-1.6-1.62-3.09-2.71-4.46z"/>
        <path d="M45.13 99.12c2.89-.42 4.05 2.08 4.96 4.26-.31.64-.93 1.91-1.24 2.55 2.31-3.51 5.69-1.06 7.25 1.51l-2.4 1.48c2.51-.69 5.12-.96 7.7-.42.32.53.97 1.58 1.3 2.11-4.12-.27-8.48-.27-12.17-2.38-3.38-1.71-5.01-5.51-5.4-9.11z"/>
        <path d="M53.47 102.92c1.13-1.36 2.33-2.66 3.61-3.88 2.73.39 4.57 2.06 5.56 4.57-1.89 1.21-2.91 4.67-5.57 4.01-1.26-1.52-2.4-3.14-3.6-4.7zm15.56-3.08c1.32-.33 2.66-.44 4-.34 1.12 1.07 1.91 2.42 2.74 3.72-1.18 1.52-2.37 3.03-3.48 4.6.98.57 2.03.98 3.08 1.4-.5-.45-1.48-1.34-1.98-1.78 1.39-1.27 2.45-3.81 4.75-3.14.98 1.22 2.49 1.46 3.96 1.54-3.57 3.38-9.2 5.35-13.95 4.06-1.08-1.63 1.77-1.54 2.61-2.32-1.3-1.33-2.6-2.66-4.01-3.88.8-1.26 1.53-2.56 2.28-3.86z"/>
        <path d="M79.72 104.18c-.26-2.7 1.71-5.64 4.72-4.86-.54 2.05-1.24 4.05-1.88 6.08-1.27.15-2.21-.26-2.84-1.22zm-19.75 3.07c1.72-1.3 3.27-4.03 5.82-3.11 1.46.76 2.46 2.13 3.59 3.29-1.57.98-3.03 2.1-4.52 3.19-1.8-.86-3.21-2.32-4.89-3.37z"/>
    </g>
    <path fill="#fbfbfb" d="M60.13 58.14c2.47-1.25 5.19-1.2 7.73-.23-1.54 1.76-1.79 4.66-3.97 5.79-1.55-1.63-2.48-3.73-3.76-5.56z"/>
    <path fill="#fafafa" opacity=".98" d="M77.44 71.81c.86-1.26 1.74-2.5 2.69-3.69 2.13 3 .89 6.84.82 10.19-1.13-2.19-1.97-4.54-3.51-6.5z"/>
    <path fill="#707070" opacity=".44" d="M82.28 78.11c.4 4.07.8 8.2.18 12.28-.19-.24-.59-.73-.78-.97l-.66-.91c-.71-1.25-1.33-2.56-1.61-3.97 1.44-.66 1.8 1.87 2.77 2.49.02-2.98.11-5.95.1-8.92z"/>
</svg>
