<svg width="128pt" height="128pt" viewBox="0 0 128 128" xmlns="http://www.w3.org/2000/svg">
    <path d="M66.93 28.8c1.23-4.98 3.51-9.65 5.98-14.13-.38 1.68-.83 3.35-1.31 5-1.51 4.86-1.52 10.26-4.65 14.51-.06-1.8-.06-3.59-.02-5.38zM56.75 17.22c3.75 5 6.34 10.75 8.32 16.65-.04 1.62-.08 3.23-.13 4.85-3.31-4.61-5.61-9.84-7.27-15.24-.6-2.03-.73-4.16-.92-6.26zm8.37 36.45c2.46-2.67 5.93-3.95 9.32-4.96-.9.76-1.81 1.51-2.72 2.26-.32.26-.96.78-1.28 1.03-.11 1-.25 2-.38 3-.47-.28-1.41-.85-1.87-1.13-.46.47-1.39 1.41-1.85 1.88l-.41.39c-.4.34-1.2 1.03-1.59 1.37-.3.06-.9.17-1.21.23.7-1.34 1.31-2.72 1.99-4.07z" fill="#8c1c21"/>
    <path fill="#220708" opacity=".48" d="M66.95 34.18c3.13-4.25 3.14-9.65 4.65-14.51-.23 2.76-.51 5.51-.83 8.26.56-.17 1.7-.52 2.27-.7-3.73 5.1-7.56 10.5-8.29 16.96 2.87-2.65 5.24-5.79 7.09-9.22-.14.72-.4 2.18-.54 2.91 2.2-.81 4.41-1.62 6.62-2.4-.29.88-.85 2.64-1.14 3.52.81-.15 2.41-.43 3.22-.58-1.84.45-3.69.89-5.53 1.33.82-1.1 1.56-2.26 2.32-3.41-5.35 2.19-9.52 6.29-13.14 10.68-2.6-4.36-5.15-8.85-8.73-12.5.43-.39 1.28-1.17 1.71-1.56 2.35 3.86 4.15 8.07 7.06 11.58.08-8.33-5.61-14.75-10.86-20.53 1.66 1.08 3.3 2.19 4.95 3.29-.03-.96-.09-2.86-.11-3.82 1.66 5.4 3.96 10.63 7.27 15.24.05-1.62.09-3.23.13-4.85.47-1.74 1.16-3.41 1.86-5.07-.04 1.79-.04 3.58.02 5.38z"/>
    <g fill="#8c2021">
        <path d="M48.83 21.09c1.4.88 2.86 1.7 4 2.92 5.25 5.78 10.94 12.2 10.86 20.53-2.91-3.51-4.71-7.72-7.06-11.58-2.52-4.01-5.36-7.81-7.8-11.87zm24.21 6.14c1.07-1.45 2.35-2.73 3.62-4.01-1.1 4.1-2.71 8.06-4.82 11.75-1.85 3.43-4.22 6.57-7.09 9.22.73-6.46 4.56-11.86 8.29-16.96z"/>
        <path d="M52.99 32.7c.48.46 1.45 1.37 1.93 1.82 3.58 3.65 6.13 8.14 8.73 12.5 3.62-4.39 7.79-8.49 13.14-10.68-.76 1.15-1.5 2.31-2.32 3.41-.59.59-1.78 1.76-2.37 2.34-.26.24-.78.7-1.04.94-1.6 1.33-3.19 2.67-4.74 4.08 1.65-.68 3.29-1.38 4.93-2.09.52.13 1.57.39 2.1.52-3.06 2.2-6.17 4.32-9.22 6.53-1.57-1.45-3.15-2.87-4.76-4.26-.41-.36-1.21-1.1-1.62-1.46-.24-.25-.71-.74-.94-.99l.92.07c1.05.08 2.11.18 3.16.29-1.21-1.26-2.42-2.52-3.56-3.84-2.21-2.63-3.31-5.96-4.34-9.18zm-.97 16.23c2.2-.23 4.45-.26 6.56.51 2.25 1.26 4.04 3.16 5.35 5.38-.77.74-1.54 1.49-2.36 2.17-1.31-2.1-2.21-4.57-4.33-6.03-1.72-.74-3.48-1.36-5.22-2.03z"/>
    </g>
    <path fill="#2e0a0b" opacity=".54" d="M57.33 41.88c1.14 1.32 2.35 2.58 3.56 3.84-1.05-.11-2.11-.21-3.16-.29l-.92-.07-1.87-.08c-.82-.23-2.46-.67-3.28-.9 1.93-.54 3.94-.68 5.94-.68-.06-.45-.2-1.36-.27-1.82z"/>
    <path fill="#110404" opacity=".34" d="M71.06 43.03c.26-.24.78-.7 1.04-.94 1.2.6 2.41 1.19 3.62 1.78-.01.36-.01 1.09-.01 1.45-1.26.97-2.54 1.93-3.81 2.89.93.09 2.81.28 3.74.37-.47 1.4-.93 2.8-1.38 4.21l-2.54-1.82c.91-.75 1.82-1.5 2.72-2.26-3.39 1.01-6.86 2.29-9.32 4.96l-1.19 1.15c-1.31-2.22-3.1-4.12-5.35-5.38l.79-1.63c1.61 1.39 3.19 2.81 4.76 4.26 3.05-2.21 6.16-4.33 9.22-6.53.7-.5 1.41-1 2.12-1.51-1.83.05-3.65.09-5.47.11l1.06-1.11z"/>
    <path fill="#370c0b" opacity=".62" d="M66.32 47.11c1.55-1.41 3.14-2.75 4.74-4.08L70 44.14c1.82-.02 3.64-.06 5.47-.11-.71.51-1.42 1.01-2.12 1.51-.53-.13-1.58-.39-2.1-.52-1.64.71-3.28 1.41-4.93 2.09z"/>
    <path fill="#0a0202" opacity=".29" d="M54.94 45.28l1.87.08c.23.25.7.74.94.99-.51 1.75-3.42.54-2.81-1.07z"/>
    <path fill="#3f0e0f" opacity=".61" d="M57.24 50.96c2.12 1.46 3.02 3.93 4.33 6.03.82-.68 1.59-1.43 2.36-2.17l1.19-1.15c-.68 1.35-1.29 2.73-1.99 4.07-.7.14-2.1.43-2.8.58 1.38 1.53 2.07 4.19 4.24 4.73 1.08-1.63 1.97-3.38 2.89-5.11-.78-.1-2.34-.32-3.12-.43.39-.34 1.19-1.03 1.59-1.37.49.34 1.47 1.03 1.96 1.37 3.71-1.64 5.38 2.16 7.21 4.56.96.45 1.93.91 2.88 1.4-1.05-.23-2.1-.46-3.16-.69-.64 1.42-1.35 2.81-1.81 4.31.67 2 2.04 3.65 3.2 5.38.94-1.66 1.87-3.32 2.83-4.96L79 69.25c-.32.96-.65 1.91-.98 2.86.78 1.27 1.55 2.54 2.34 3.8-1.79-1.07-4.43-4.61-6.23-1.76-2.41 3.09.18 6.56 2.37 8.86 4.83-2.86 4.53-9.72 4.75-14.72.94 3.65-.51 7.71 1.44 11.07.79 5.35-.79 10.87.95 16.1.82 2.88 1.32 6.15-.59 8.72.43-1.75.77-3.51 1.1-5.28-2.73.86-4.18 3.03-4.49 5.8-2.27-.35-4.21.73-5.96 2.05.43.65 1.3 1.97 1.73 2.63-1.17-.4-2.35-.79-3.52-1.18 1.16-2.26 4.6-4.77 2.17-7.31-2.25-3.01-5.78.04-7.04 2.42 1.33 1.49 2.65 2.99 3.97 4.5-1.28.74-2.55 1.48-3.82 2.23 2.39.03 4.78.06 7.16-.02-4.91 1.3-10.09 1.35-15.1.66.74-.53 1.53-.98 2.28-1.5-2.36-.58-4.75-.74-7.18-.41.16-.61.5-1.81.67-2.41-1.04-.8-2.07-1.6-3.11-2.4-.81.65-1.61 1.31-2.41 1.97.17-2.85-.62-5.67-3.27-7.12-1.71 2.29.79 5.13 1.51 7.47-1.67-1.62-2.75-3.76-2.46-6.14.28-3.47-1.12-6.9-.45-10.34.63 2.68.06 6.43 2.19 8.33 1.35-1.14 2.1-2.82 3.15-4.22-1.31-2.01-2.73-3.93-4.35-5.69-.26-3.17-.55-6.33-.88-9.48.54-.26 1.63-.77 2.18-1.02.07-2.71.02-5.44.42-8.12.07 3.61.14 7.45 2.12 10.62.77 1.06 1.28 2.84 2.87 2.74 1.3-1.61 2.36-3.41 3.47-5.15-.79-1.61-1.56-3.22-2.4-4.79l-.34-.03c-.02-.26-.05-.8-.07-1.06l.28-.08c.85-1.65 1.66-3.33 2.47-5l2.85.12c1.05-1.3 2.1-2.6 3.16-3.9-.74-1.27-1.47-2.54-2.2-3.8-.99-.43-1.98-.85-2.97-1.28l-.76-.32c1.24.01 3.72.05 4.95.07-.73-.63-2.2-1.9-2.94-2.53 1.03-1.11.74-1.55-.86-1.32l-1.84.48c.61-.48 1.84-1.46 2.45-1.94-.14-.37-.4-1.1-.54-1.47m8.71 12.05c1.54 1.75 3.2 3.46 5.41 4.33 1.01-1.79 2.04-3.57 3.07-5.35-1.41-1.39-2.28-3.71-4.42-4.05-2.16.78-2.71 3.42-4.06 5.07m-5.04 4.88c.62 1.83 1.77 4.25 4.05 4.19 1.4-1.49 2.36-3.31 3.41-5.06-1.11-.9-2.18-1.84-3.38-2.61-2-.52-4.6 1.25-4.08 3.48m-3.67.33c-.86 1.24-2.19 2.29-2.49 3.84.54 2.3 1.69 4.45 3.24 6.24 1.69-1.76 2.8-3.95 3.96-6.07-.49-.94-.98-1.89-1.47-2.83-1.08-.39-2.16-.78-3.24-1.18m11.02 1.01c-.43 1.11-.86 2.22-1.28 3.34 1.05 1.81 1.99 3.69 3.22 5.39 2.31.31 2.56-2.91 3.39-4.48 1.29-2.38-1.26-3.94-2.57-5.58-.92.44-1.84.88-2.76 1.33m-8.34 8.86c1.25 2.28 2.69 4.71 5.58 4.92 1.12-1.69 2.26-3.38 3.4-5.05-1.23-1.9-2.14-4.9-4.85-4.97-2.65.25-3.34 3.05-4.13 5.1m-13.7 1.15c-.4 1.55-.07 3.15-.02 4.71-.75 1.2-.18 3.28 1.17 3.82 1.15-.63 1.42-1.6.8-2.91l.71.42c1.87-2.03.03-6.67-2.66-6.04m11.09-.16c-1.43.98-2.64 2.36-3.12 4.04.62 1.84 1.52 3.57 2.34 5.32 2.38-.97 3.96-3.03 5.64-4.87-.34-.57-1.01-1.72-1.34-2.3l.39-.6c-1.29-.57-2.56-1.18-3.91-1.59m21.68 4c.85.85 1.48 1.82 1.88 2.93-1.26-.24-2.16-1.17-3.13-1.97-1.6.49-3.7 1.44-2.94 3.74-1.85-2.37.76-5.95-2.13-7.75-2.58-2.58-5.22.78-5.96 3.21 1.35 1.47 2.67 2.97 4.02 4.43 4.62-.78 4.15 5.41 7.7 6.77 2.17-5.07 4.62-10.26 3.62-15.96-1.18 1.42-2.2 2.97-3.06 4.6m-19.01 4.67c1.34 1.95 2.57 3.97 3.67 6.07.47.03 1.41.11 1.88.15 1.17-2.01 2.48-3.94 3.45-6.06-.75-1.6-2.04-2.84-3.14-4.2-2.78-.05-4.66 1.7-5.86 4.04M51.06 94c1.7.32 2.39-.4 2.06-2.17.32-.41.97-1.23 1.29-1.65.28-.52.84-1.58 1.13-2.11-1.26-1.83-2.79-3.44-4.69-4.61-2.91 3.1-2.14 7.39.21 10.54m5.24-5.18c-.78 1.69-1.66 3.34-2.23 5.12.56 1.42 1.38 2.73 2.13 4.06h2.93c1.31-1.78 4.13-3.94 2.17-6.27-.87-2.05-2.94-2.76-5-2.91m10.57 4.93c1.05 1.41 2.1 2.83 3.15 4.25.71 0 2.14 0 2.86-.01 1-1.3 2-2.61 3.02-3.9-1.13-1.82-2.25-3.64-3.37-5.45-2.74.57-4.3 2.88-5.66 5.11m13.13.27c.53 1.82 1.58 3.44 2.47 5.11.78-1.45.6-2.92-.2-4.3-.08-1.8-.12-3.59-.19-5.39-.82 1.44-2.45 2.74-2.08 4.58M60.94 98.1c.28.49.84 1.48 1.11 1.98.42.97.84 1.94 1.25 2.92l2.55-.04c1.05-1.71 2.14-3.4 3.28-5.05-1.51-1.2-2.81-3.46-5.06-2.82-1.55.31-2.25 1.87-3.13 3.01m13.41.17c.58 1.63 1.42 3.15 2.14 4.71.52.01 1.56.01 2.08.01.72-1.47 1.45-2.93 2.2-4.38-.88-1.09-1.24-3.24-2.95-3.2-1.76-.23-2.9 1.43-3.47 2.86m-23.98 4.53c.61.07 1.81.19 2.42.26.8-1.64 1.69-3.26 2.25-5-.77-1.77-2.72-2.38-4.26-3.25-2.34 2.36-1.48 5.28-.41 7.99m6.68-3.38c-1.08 1.14-2.19 2.26-3.12 3.53.99 1.95 2.53 3.54 4 5.13 1.4-1.43 2.79-2.86 4.19-4.29-.51-1.12-1.01-2.24-1.51-3.35-1.19-.34-2.38-.68-3.56-1.02m3.32 7.94c1.64.68 3.02 1.8 4.5 2.74 1.54-.73 2.96-1.71 4.41-2.61-1.38-1.29-2.69-2.73-4.41-3.57-1.91.47-3.09 2.21-4.5 3.44z"/>
    <path fill="#1d0606" opacity=".42" d="M70.44 52c.32-.25.96-.77 1.28-1.03l2.54 1.82c-2.35 1.66-4.95 3.01-7.92 2.96.46-.47 1.39-1.41 1.85-1.88.46.28 1.4.85 1.87 1.13.13-1 .27-2 .38-3z"/>
    <path fill="#561212" opacity=".75" d="M57.17 53.89c1.6-.23 1.89.21.86 1.32-.21-.33-.65-.99-.86-1.32z"/>
    <path fill="#b82b2c" d="M56.78 57.99c.99.43 1.98.85 2.97 1.28.73 1.26 1.46 2.53 2.2 3.8-1.06 1.3-2.11 2.6-3.16 3.9l-2.85-.12c-.81 1.67-1.62 3.35-2.47 5l-.28.08c-.52-.14-1.55-.41-2.07-.55-.54-1.13-1.09-2.25-1.65-3.36.89-1.96.67-5.59 3.81-4.89 1.03-1.8 2.18-3.53 3.5-5.14z"/>
    <path fill="#ba2b2e" d="M60.33 58.32c.7-.15 2.1-.44 2.8-.58.31-.06.91-.17 1.21-.23.78.11 2.34.33 3.12.43-.92 1.73-1.81 3.48-2.89 5.11-2.17-.54-2.86-3.2-4.24-4.73z"/>
    <path fill="#b5292c" d="M65.95 63.01c1.35-1.65 1.9-4.29 4.06-5.07 2.14.34 3.01 2.66 4.42 4.05-1.03 1.78-2.06 3.56-3.07 5.35-2.21-.87-3.87-2.58-5.41-4.33z"/>
    <g fill="#ad2829">
        <path d="M74.82 62.78c1.06.23 2.11.46 3.16.69.31 1.35.66 2.71 1.06 4.04-.96 1.64-1.89 3.3-2.83 4.96-1.16-1.73-2.53-3.38-3.2-5.38.46-1.5 1.17-2.89 1.81-4.31zm-29 25.44c1.62 1.76 3.04 3.68 4.35 5.69-1.05 1.4-1.8 3.08-3.15 4.22-2.13-1.9-1.56-5.65-2.19-8.33l.99-1.58zm4.55 14.58c-1.07-2.71-1.93-5.63.41-7.99 1.54.87 3.49 1.48 4.26 3.25-.56 1.74-1.45 3.36-2.25 5-.61-.07-1.81-.19-2.42-.26z"/>
        <path d="M46.23 98.81c2.65 1.45 3.44 4.27 3.27 7.12.8-.66 1.6-1.32 2.41-1.97 1.04.8 2.07 1.6 3.11 2.4-.17.6-.51 1.8-.67 2.41 2.43-.33 4.82-.17 7.18.41-.75.52-1.54.97-2.28 1.5l-.2.14c-3.95-.86-8.36-1.48-11.31-4.54-.72-2.34-3.22-5.18-1.51-7.47z"/>
    </g>
    <path fill="#c63031" d="M60.91 67.89c-.52-2.23 2.08-4 4.08-3.48 1.2.77 2.27 1.71 3.38 2.61-1.05 1.75-2.01 3.57-3.41 5.06-2.28.06-3.43-2.36-4.05-4.19z"/>
    <path fill="#d63033" d="M57.24 68.22c1.08.4 2.16.79 3.24 1.18.49.94.98 1.89 1.47 2.83-1.16 2.12-2.27 4.31-3.96 6.07-1.55-1.79-2.7-3.94-3.24-6.24.3-1.55 1.63-2.6 2.49-3.84z"/>
    <path d="M68.26 69.23c.92-.45 1.84-.89 2.76-1.33 1.31 1.64 3.86 3.2 2.57 5.58-.83 1.57-1.08 4.79-3.39 4.48-1.23-1.7-2.17-3.58-3.22-5.39.42-1.12.85-2.23 1.28-3.34zm-10.95 9.85c1.35.41 2.62 1.02 3.91 1.59l-.39.6c-1.54 2.32-2.99 4.71-4.3 7.17-.82-1.75-1.72-3.48-2.34-5.32.48-1.68 1.69-3.06 3.12-4.04z" fill="#b2292c"/>
    <path fill="#b52b29" d="M47.54 68.41c2.22.45 2.79 2.52 3.51 4.34-.82 1.04-1.64 2.09-2.44 3.14 1.43-1.11 2.78-2.58 4.65-2.9l.34.03c.84 1.57 1.61 3.18 2.4 4.79-1.11 1.74-2.17 3.54-3.47 5.15-1.59.1-2.1-1.68-2.87-2.74-1.98-3.17-2.05-7.01-2.12-10.62v-1.19z"/>
    <path fill="#b52929" d="M79 69.25c.57-.24 1.69-.72 2.25-.96-.22 5 .08 11.86-4.75 14.72-2.19-2.3-4.78-5.77-2.37-8.86 1.8-2.85 4.44.69 6.23 1.76-.79-1.26-1.56-2.53-2.34-3.8.33-.95.66-1.9.98-2.86z"/>
    <path d="M59.92 78.09c.79-2.05 1.48-4.85 4.13-5.1 2.71.07 3.62 3.07 4.85 4.97-1.14 1.67-2.28 3.36-3.4 5.05-2.89-.21-4.33-2.64-5.58-4.92zm19.07 4.99c.86-1.63 1.88-3.18 3.06-4.6 1 5.7-1.45 10.89-3.62 15.96-3.55-1.36-3.08-7.55-7.7-6.77-1.35-1.46-2.67-2.96-4.02-4.43.74-2.43 3.38-5.79 5.96-3.21 2.89 1.8.28 5.38 2.13 7.75-.76-2.3 1.34-3.25 2.94-3.74.97.8 1.87 1.73 3.13 1.97-.4-1.11-1.03-2.08-1.88-2.93z" fill="#bd2c31"/>
    <path fill="#b22a29" d="M46.22 79.24c2.69-.63 4.53 4.01 2.66 6.04l-.71-.42c-.49-.23-1.47-.68-1.97-.91-.05-1.56-.38-3.16.02-4.71z"/>
    <path fill="#d63233" d="M56.53 88.44c1.31-2.46 2.76-4.85 4.3-7.17.33.58 1 1.73 1.34 2.3-1.68 1.84-3.26 3.9-5.64 4.87z"/>
    <path fill="#d13131" opacity=".96" d="M46.2 83.95c.5.23 1.48.68 1.97.91.62 1.31.35 2.28-.8 2.91-1.35-.54-1.92-2.62-1.17-3.82z"/>
    <path fill="#bd2c2b" d="M59.98 87.75c1.2-2.34 3.08-4.09 5.86-4.04 1.1 1.36 2.39 2.6 3.14 4.2-.97 2.12-2.28 4.05-3.45 6.06-.47-.04-1.41-.12-1.88-.15-1.1-2.1-2.33-4.12-3.67-6.07z"/>
    <path fill="#b52c29" d="M51.06 94c-2.35-3.15-3.12-7.44-.21-10.54 1.9 1.17 3.43 2.78 4.69 4.61-.29.53-.85 1.59-1.13 2.11-.36-1.1-1.05-1.73-2.08-1.88-.38 1.22.47 2.39.79 3.53.33 1.77-.36 2.49-2.06 2.17z"/>
    <path d="M52.33 88.3c1.03.15 1.72.78 2.08 1.88-.32.42-.97 1.24-1.29 1.65-.32-1.14-1.17-2.31-.79-3.53zm8.61 9.8c1.8-.77 4.01 1.99 1.11 1.98-.27-.5-.83-1.49-1.11-1.98z" fill="#e73439"/>
    <path fill="#b0292c" d="M56.3 88.82c2.06.15 4.13.86 5 2.91 1.96 2.33-.86 4.49-2.17 6.27H56.2c-.75-1.33-1.57-2.64-2.13-4.06.57-1.78 1.45-3.43 2.23-5.12z"/>
    <path fill="#b0282b" d="M66.87 93.75c1.36-2.23 2.92-4.54 5.66-5.11 1.12 1.81 2.24 3.63 3.37 5.45-1.02 1.29-2.02 2.6-3.02 3.9-.72.01-2.15.01-2.86.01-1.05-1.42-2.1-2.84-3.15-4.25z"/>
    <path fill="#c22c30" d="M80 94.02c-.37-1.84 1.26-3.14 2.08-4.58.07 1.8.11 3.59.19 5.39.8 1.38.98 2.85.2 4.3-.89-1.67-1.94-3.29-2.47-5.11z"/>
    <path fill="#b22929" d="M60.94 98.1c.88-1.14 1.58-2.7 3.13-3.01 2.25-.64 3.55 1.62 5.06 2.82-1.14 1.65-2.23 3.34-3.28 5.05l-2.55.04c-.41-.98-.83-1.95-1.25-2.92 2.9.01.69-2.75-1.11-1.98z"/>
    <path fill="#b32b2c" d="M74.35 98.27c.57-1.43 1.71-3.09 3.47-2.86 1.71-.04 2.07 2.11 2.95 3.2-.75 1.45-1.48 2.91-2.2 4.38-.52 0-1.56 0-2.08-.01-.72-1.56-1.56-3.08-2.14-4.71z"/>
    <path fill="#b22829" d="M57.05 99.42c1.18.34 2.37.68 3.56 1.02.5 1.11 1 2.23 1.51 3.35-1.4 1.43-2.79 2.86-4.19 4.29-1.47-1.59-3.01-3.18-4-5.13.93-1.27 2.04-2.39 3.12-3.53z"/>
    <path fill="#b52829" d="M67.04 103.31c1.26-2.38 4.79-5.43 7.04-2.42 2.43 2.54-1.01 5.05-2.17 7.31 1.17.39 2.35.78 3.52 1.18-.43-.66-1.3-1.98-1.73-2.63 1.75-1.32 3.69-2.4 5.96-2.05.31-2.77 1.76-4.94 4.49-5.8-.33 1.77-.67 3.53-1.1 5.28-1.67 3.33-5.24 5-8.7 5.84-2.38.08-4.77.05-7.16.02 1.27-.75 2.54-1.49 3.82-2.23-1.32-1.51-2.64-3.01-3.97-4.5z"/>
    <path fill="#af292b" d="M60.37 107.36c1.41-1.23 2.59-2.97 4.5-3.44 1.72.84 3.03 2.28 4.41 3.57-1.45.9-2.87 1.88-4.41 2.61-1.48-.94-2.86-2.06-4.5-2.74z"/>
</svg>
