<svg width="128pt" height="128pt" viewBox="0 0 128 128" xmlns="http://www.w3.org/2000/svg">
    <path d="M72.74 13.99c-.02 3.07-1.54 5.84-1.78 8.87-.85-.71-1.73-1.4-2.56-2.14l1.37.8c1.06-2.49 2.1-4.98 2.97-7.53zm-23.81 7.33c4.65 2.38 7.77 6.78 10.79 10.9 2.59 3.36 3.81 7.62 4.13 11.81l-1.48-.43c-4.01-7.7-8.21-15.31-13.44-22.28zm25.63 4.16c.77-.71 1.28-2.2 2.54-1.93-3.78 6.94-5.64 15.74-12.52 20.53.76-7.24 5.54-13.16 9.98-18.6z" fill="#fefefe"/>
    <g fill="#fff">
        <path d="M57.08 17.84c3.52 4.59 5.44 10.09 7.69 15.35 1.04 1.79.57 3.87.28 5.79-4.55-6.08-7.67-13.51-7.97-21.14zm11.55 6.21c.3-1.01 1.31-.82 2.1-.6-.42 2.45-.96 4.87-1.4 7.32-.93 1.28-1.86 2.56-2.8 3.84-.16-3.63.62-7.25 2.1-10.56z"/>
        <path d="M52.97 32.84c4.91 3.52 7.77 9.07 10.69 14.2 3.62-4.79 8.13-9.43 14.11-11.04-2.19 2.53-4.36 5.12-7 7.2-1.63 1.26-3.25 2.57-4.52 4.21 2.26-.97 4.43-2.65 7.01-2.43-2.41 3.16-6.26 4.62-9.15 7.26-3.11-3.64-6.88-6.86-11.58-8.17 2.93-.24 5.75.56 8.37 1.8-3.92-3.45-6.14-8.23-7.93-13.03z"/>
        <path d="M52.1 48.78c4.64-.47 11.81 1.5 11.11 7.39 2.66-4.62 7.59-6.98 12.7-7.73-2.53 1.42-4.95 3.02-7.23 4.82 1.49-.3 4.45-.89 5.93-1.19-2.08 1.01-4.49 1.64-5.82 3.7.02-.63.08-1.88.1-2.5-1.32 1.12-2.4 2.53-3.84 3.51-2.14-1.03-5.3 1.47-5.58-2.25-1.66.58-2.79-.22-3.39-1.75.39.37 1.18 1.11 1.57 1.47.81-.33 1.61-.67 2.41-1.02-2.35-2.01-5.11-3.34-7.96-4.45z"/>
    </g>
    <path fill="#676767" opacity=".4" d="M66.25 47.41c1.27-1.64 2.89-2.95 4.52-4.21l-1.01 1.88c1.68-.63 3.41-1.05 5.19-1.26.33.51.97 1.53 1.29 2.04-.97-.34-1.95-.73-2.98-.88-2.58-.22-4.75 1.46-7.01 2.43z"/>
</svg>
