<svg width="128pt" height="128pt" viewBox="0 0 128 128" xmlns="http://www.w3.org/2000/svg">
    <g fill="#fff">
        <path d="M17.18 41.51c1.77-.37 3.59-.35 5.39-.17-1.03 2.33-2.36 4.5-3.72 6.65-.58-.21-1.72-.64-2.29-.85-.81 5.61 3.5 10.88 8.5 12.82 5.03-3.08 6.28-9.47 10.4-13.5 1.9-3.2 6.21-2.55 8.59-.3-.14.49-.42 1.49-.56 1.99-1.38.47-2.77.92-4.16 1.39l-.08-2.4c-2.98 3.51-5.32 7.47-7.84 11.3-1.63 2.24-4.92 4.48-7.6 2.6-4.16-2.97-8.4-6.89-9.01-12.27.98-2.35.89-5.13 2.38-7.26m23.24 4.73c.55 3.28 2.9-1.77 0 0zm65.69-5.06c1.74-.04 3.47.07 5.2.31 1.62 3.69 3.26 8.25.88 12.03-2.04 3.08-4.75 5.78-7.87 7.75-1.26 1.15-2.86.36-4.21-.13-1.21.08-2.44.14-3.64.14.86-.29 1.72-.57 2.58-.87-3.95-3.7-5.83-9.03-9.57-12.94-.87-1.26-2.5-1.28-3.86-1.42 1.58.98 3.9 1.17 4.08 3.5-1.6-.85-5.35-.39-5.1-3.04 1.22-2.26 4.35-2.87 6.55-1.78 5.2 3.97 6.61 11.2 11.86 15.04 5.42-1.08 9.37-7.08 9.02-12.54l-2.57.12c-.36-.5-1.08-1.51-1.44-2.01-.87-1.26-1.56-2.66-1.91-4.16zM23 44.3c.67-.78.67-.78 0 0z"/>
        <path d="M22.8 43.17l.2 1.13c-.68 3.31 7.37-1.37 2.48 2.73l2.06-.66-.02 1.26 2.78-.4c-1.19 1.71-1.65 4.75-4.22 4.69l1.76-2.69-2.13.25.01 2.25c-2.56-1.11-.02-2.88.77-4.15-.84-.02-2.53-.07-3.38-.09l.47 2.13c-.93-.41-2.79-1.23-3.71-1.64.95-1.62 2-3.17 2.93-4.81M26.95 48l.12.61.62-.14c-.19-.12-.56-.35-.74-.47zm71.58-.45c1.42-.88 2.71-1.98 4.3-2.55-.06.64-.19 1.91-.26 2.55-1.07.55-2.22.94-3.29 1.48 1.68.29 2.74 1.37 3.18 3.25l-3.12-1.88 1.06 3.01c-2.36-.15-2.85-3-3.99-4.6.65-.04 1.95-.13 2.6-.17l-.48-1.09zm5.68-.72l2.28-.8.34.73c-.36.28-1.08.82-1.44 1.1-.3-.26-.89-.77-1.18-1.03zm-74.22 3.98c.22-.52.67-1.58.9-2.11 1.12.67 1.03 1.43-.27 2.27l-.63-.16z"/>
        <path d="M103.72 50.9c-1.92 1.35-2.41-2.94-.34-1.53l.57.76-.23.77zm-74.41-.12l.68.03c1.53 2.93-3.68 2.18-.68-.03zm7.23-.08c3.5 2.75 8.42 4.86 9.88 9.33-3.07-2.6-6.37-4.93-9.4-7.57l-.48-1.76zm50.48 3.53c1.68-1.16 3.06-3.16 5.34-3.02-2.76 3.73-7.22 5.83-10.58 9.04.46-2.93 3.27-4.24 5.24-6.02zM35.9 53.05c3.74 2.98 8.51 5.31 10.75 9.7 1.45 1.11 3 2.09 4.35 3.33.95 1.93 1.04 4.18 1.6 6.25 2.84.83 5.7 1.58 8.57 2.28-1.5 1.43-3.19 2.66-4.91 3.82-1.67-1.32-3.51-2.7-3.66-5.01-2.31.83-3.61-1.53-5.08-2.83-3.09-3.43-7.38-5.36-10.83-8.36-1.43-1.26-3.11-2.19-4.81-3.01.44-.69 1.34-2.07 1.79-2.75l.29 1.18c.26-1.68 1.14-3.14 1.94-4.6z"/>
        <path d="M76.61 66.47c5.32-4.45 10.09-9.56 15.82-13.55 1.45 2.01 2.79 4.1 4.16 6.17-2.34.89-4.26 3.72-6.68 3.65l-.37-.35.08 1.38c-2.92 2.39-6.28 4.23-8.88 7-1.37 1.3-2.63 3.2-4.81 2.81-.23 2.45-2.45 3.7-4.15 5.11-11.69 10.08-25.65 17.87-40.73 21.41-3.65 1.19-7.36.13-10.94-.71l2.9-1.39-3.67.42-.12-1.2c2.77.05 5.51.51 8.27.71-1.23-.64-2.54-1.1-3.84-1.58 2.87-.3 5.6-1.27 8.19-2.52.7.35 1.39.72 2.08 1.12l-3.66.4.01 1.24c4.95-1.89 10.12-3.68 14.41-6.84-2.12.69-4.19 1.49-6.23 2.38.66-.72 1.98-2.18 2.64-2.9l.39.7c4.32-2.45 8.81-4.83 12.53-8.12.61.36 1.25.67 1.91.95-2.86 1.88-6.99 3.21-8.73 6.08 5.69-3.17 11.35-6.72 16.25-11.1l.98.64c-.42-.64-.82-1.28-1.2-1.94-1.74 2.27-4.43 3.55-6.2 5.79-.63-.32-1.26-.65-1.89-.97 3.4-1.96 6.1-4.89 9.48-6.86.14.51.4 1.55.53 2.07 2.78-2.34 6.56-2.75 9.57-4.72.65-1.76 1.14-3.57 1.9-5.28M45.53 89.29c.37.51.37.51 0 0m-17.7 6.9c.59 3.15 3.03-1.75 0 0zm43.72-15.2c1.18-.46 2.04-.09 2.58 1.12-.09 1.61-3.54.17-2.58-1.12z"/>
        <path d="M65 85.32c1.73-1.04 3.44-2.11 5.1-3.26 5.66 3.21 10.82 7.28 16.82 9.9.6-.23 1.19-.49 1.78-.76-4.4-.91-8.14-3.56-11.84-5.95-1.06-.48-1.84-1.5-1.48-2.66 4.75 3.52 9.78 6.96 15.55 8.56-.93.56-1.84 1.16-2.77 1.72 3.77.82 7.06 3.43 11.08 3.14-3.02-1.12-6.05-2.25-9.13-3.19.67-.32 1.33-.64 2.01-.95 2.57 1.81 5.62 2.68 8.63 3.44l.07.5-3.24.65c2.06.76 4.16-.38 6.26-.2-.62.64-1.33 1.19-2.12 1.63.82-.04 2.44-.13 3.26-.18.45.55 1.35 1.65 1.81 2.21-7.12 1.93-14.31-.89-20.88-3.43C78.42 93.83 71.7 89.52 65 85.32zm-26.85 5.86c.28.84-.05 1.5-.99 1.99-.76.24-2.29.74-3.05.98 0-.29 0-.89.01-1.19 1.37-.53 2.71-1.13 4.03-1.78z"/>
    </g>
    <path fill="#5d5d5d" opacity=".36" d="M102.83 45c.79-.61 1.59-1.19 2.41-1.75.21.54.64 1.63.85 2.17l.4.61-2.28.8c.29.26.88.77 1.18 1.03.36-.28 1.08-.82 1.44-1.1l.18-.18.09.55c.11-.16.31-.47.42-.63l.5-1.16c.36.5 1.08 1.51 1.44 2.01-1.39 1.63-3.59 2.1-5.51 2.78l-.57-.76-1.01-1.27.2-.55c.07-.64.2-1.91.26-2.55z"/>
    <path fill="silver" opacity=".75" d="M105.24 43.25c.31.34.94 1.03 1.25 1.38l-.4.79c-.21-.54-.64-1.63-.85-2.17z"/>
    <path opacity=".93" d="M106.09 45.42l.92.28-.52.33-.4-.61zm.92 1.16l.51-.08c-.11.16-.31.47-.42.63l-.09-.55z" fill="#eee"/>
    <path fill="#494949" opacity=".29" d="M40.42 46.24c2.9-1.77.55 3.28 0 0z"/>
    <path fill="#323232" opacity=".2" d="M45.53 89.29c.37.51.37.51 0 0z"/>
    <path fill="#4e4e4e" opacity=".31" d="M27.83 96.19c3.03-1.75.59 3.15 0 0z"/>
    <path fill="#838383" opacity=".51" d="M104.75 97.18c.71-1.48 3.68.21 5.16.23-.83 1.05-1.83 1.96-2.82 2.87l-.3-.36c-.46-.56-1.36-1.66-1.81-2.21l-.23-.53z"/>
</svg>
