<svg width="128pt" height="128pt" viewBox="0 0 128 128" xmlns="http://www.w3.org/2000/svg">
    <path fill="#bb2829" d="M67.29 33.52c6.05-1.49 12.42-2.96 18.63-1.4 6.17 1.65 12.85-.61 18.83 2.05 4.98 1.45 6.82 6.89 8.95 11.06-6.32-.51-12.64.11-18.89 1.01 5.71 2.27 12.31 1.1 17.72 4.17.59 1.2-.35 2.22-1 3.15-2.34 3.23-5.6 5.71-9.16 7.46-3.47 1.55-5.94 4.49-8.33 7.34-1.61-2.32-3.55-4.61-3.96-7.5-.51-3.96-.2-7.99-.91-11.93-1.41 3.45-1.67 7.2-.73 10.82-1.12.54-2.25 1.07-3.41 1.51-.94.36-1.87.73-2.8 1.1.68 1.44 1.37 2.87 2.07 4.3 1.35-.84 2.69-1.69 4.03-2.55-1.63 2.72-3.07 5.55-4.65 8.31-1.75-3.67-2.96-7.6-5.09-11.09-1.94-2.87-1.45-6.57-3.04-9.58-.59 3.71-.15 7.65 1.66 10.98 2.48 4.59 4.46 9.43 6.8 14.09-1.64.48-3.26 1.01-4.94 1.35-1.48-1.51-1.82-3.79-2.66-5.68-1.36-4.14-3.79-7.79-6.51-11.15-.77.03-1.53.07-2.3.11l-1.96-.88c-.78-3.43-1.69-6.83-2.67-10.2l-2.56 1.84c-1.4-3.78.55-7.16 2.94-9.99 1.23 2.03 2.46 4.06 3.77 6.04 1.67-4.46-3.79-7.54-2.02-11.99.54.42 1.63 1.26 2.17 1.68l1.55-1.11c-.51-1.11-1.03-2.22-1.53-3.32m31.33 4.92c-.82.64-1.64 1.28-2.46 1.91 2.32-.1 4.65-.13 6.98-.17-1.24-1.17-2.84-1.67-4.52-1.74z"/>
    <path fill="#b22829" d="M54.06 41.1c4.37-2.63 8.28-6.05 13.23-7.58.5 1.1 1.02 2.21 1.53 3.32l-1.55 1.11c-.54-.42-1.63-1.26-2.17-1.68-1.77 4.45 3.69 7.53 2.02 11.99-1.31-1.98-2.54-4.01-3.77-6.04-2.39 2.83-4.34 6.21-2.94 9.99l2.56-1.84c.98 3.37 1.89 6.77 2.67 10.2-1.55-.62-3.14-1.13-4.73-1.62 2.24 1.47 4.55 2.82 6.78 4.31-.17 5.78-.52 11.78-3.84 16.76 1.63-1.27 3.27-2.53 4.88-3.83-.71 2.57-.75 5.24-.36 7.87 1.02-1.44 2.01-2.88 3.01-4.33.05 1.29.11 2.59.16 3.88.52.19 1.55.56 2.06.75-.18.38-.55 1.12-.74 1.5-1.3 2.44-2.47 5-2.69 7.8.88.75 1.76 1.51 2.64 2.27-.5.39-1.51 1.17-2.02 1.56-.4-.37-1.21-1.11-1.61-1.47.05.55.16 1.66.21 2.21-5.72-.56-11.65-.16-17.18-1.84.17-6.16 5.02-10.35 7.81-15.35-2.21-2.36-4.98-4.09-7.29-6.34-4.09-.31-8.3-.3-11.8 2.13-.92.34-1.67.92-2.23 1.73-4.1 2.88-7.15 6.93-11.24 9.83-3.69 2.75-8.14 4.1-12.36 5.79 2.04-4.97 4.8-9.63 8.49-13.57 6.22-8.56 10.09-18.78 17.56-26.45 4.3-4.35 7.74-9.65 12.91-13.06z"/>
    <path fill="#420f0f" opacity=".61" d="M88.44 59.75c-.94-3.62-.68-7.37.73-10.82.71 3.94.4 7.97.91 11.93.41 2.89 2.35 5.18 3.96 7.5 2.39-2.85 4.86-5.79 8.33-7.34-3.2 2.74-6.07 5.82-8.72 9.09-2.32-3.13-4.72-6.37-5.21-10.36z"/>
    <path fill="#430f0f" opacity=".63" d="M75.55 51.75c1.59 3.01 1.1 6.71 3.04 9.58 2.13 3.49 3.34 7.42 5.09 11.09.65 1.2 1.35 2.38 2.07 3.54-.39.55-1.15 1.65-1.54 2.2-2.29.22-4.58.39-6.88.46-.23 1.15-.43 2.32-.7 3.47.65-7.28-2.59-14.96-8.94-18.83-2.23-1.49-4.54-2.84-6.78-4.31 1.59.49 3.18 1 4.73 1.62l1.96.88c.77-.04 1.53-.08 2.3-.11 2.72 3.36 5.15 7.01 6.51 11.15.84 1.89 1.18 4.17 2.66 5.68 1.68-.34 3.3-.87 4.94-1.35-2.34-4.66-4.32-9.5-6.8-14.09-1.81-3.33-2.25-7.27-1.66-10.98z"/>
    <path fill="#b22929" d="M85.03 61.26c1.16-.44 2.29-.97 3.41-1.51.49 3.99 2.89 7.23 5.21 10.36 1.89 3.41 3.92 6.83 7.19 9.11 1.8 1.83 5.56 3.78 4.31 6.79-2.62-.33-3.79-3.13-6.06-4.21 1.12 2.67 2.36 5.33 2.64 8.25-2.82-1.06-3.7-4.24-5.6-6.32.21 3.12 1.26 6.1 1.43 9.22-2.9-1.36-3.57-4.73-5.07-7.26-.37 1.66 1.11 4.92-1.4 5.28-2.22-2.79-1.08-6.36-1.58-9.56-1.16-1.88-2.63-3.55-3.76-5.45-.72-1.16-1.42-2.34-2.07-3.54 1.58-2.76 3.02-5.59 4.65-8.31-1.34.86-2.68 1.71-4.03 2.55-.7-1.43-1.39-2.86-2.07-4.3.93-.37 1.86-.74 2.8-1.1z"/>
    <path fill="#bd2c2e" d="M63.85 80.02c3.32-4.98 3.67-10.98 3.84-16.76 6.35 3.87 9.59 11.55 8.94 18.83-1.19 1.32-2.46 2.57-3.77 3.77.19-.38.56-1.12.74-1.5-.51-.19-1.54-.56-2.06-.75-.05-1.29-.11-2.59-.16-3.88-1 1.45-1.99 2.89-3.01 4.33-.39-2.63-.35-5.3.36-7.87-1.61 1.3-3.25 2.56-4.88 3.83z"/>
    <path fill="#080202" opacity=".3" d="M38.7 78.56c.56-.81 1.31-1.39 2.23-1.73.27 1.84-.47 2.41-2.23 1.73z"/>
</svg>
