<svg width="128pt" height="128pt" viewBox="0 0 128 128" xmlns="http://www.w3.org/2000/svg">
    <g fill="#ad2829">
        <path d="M51.01 44.08c7.81-11.69 22.48-16.39 35.97-16.52 5.57.1 11.25.88 16.32 3.28 4.2 1.95 7.36 5.47 10.43 8.82-.22.07-.65.19-.86.25-.27-.2-.81-.62-1.07-.83-6.99-7.64-18.15-7.97-27.78-7.91-8-.11-15.51 3.21-21.97 7.69-.95.33-1.71.91-2.27 1.75-2.65 2.81-5.49 5.45-8.18 8.23-.84.56-1.42 1.31-1.74 2.27-2.39 4.31-6.08 7.73-8.62 11.96-4.47 7.4-9.1 14.83-15.36 20.87-1.37 1.51-3.46 1.45-5.33 1.61 4.18-2.83 7.55-6.63 10.12-10.94 7.15-9.93 12.57-21.03 20.34-30.53z"/>
        <path d="M95.52 34.81c1.58-.51 3.16-1.01 4.76-1.47.67 1.84 2.19 4.56-.2 5.87-2.87.97-4.47-1.96-4.56-4.4m2.74.25c-2.04.32-1.04 3.41.81 2.82 2.12-.29 1.07-3.45-.81-2.82zm14.61 4.85c.49.22 1.47.66 1.97.88.32.55.98 1.64 1.31 2.19-.12.19-.37.57-.49.76-5.43-.26-10.88-.03-16.2 1.13 4.46 1.87 9.24 2.64 13.86 4 1.43.74 2.39 2.06 3.18 3.42-4.71-1.4-9.13-3.69-14.04-4.4-.83-.19-1.62-.48-2.37-.89-1.3-1.1-3.68-1.59-4.03-3.44 5.4-1.11 10.84-2.3 16.39-2.06.11-.39.31-1.19.42-1.59zM52.16 68.32c.16-.46.5-1.37.67-1.83 5.74-.95 9.34 4.69 11.63 9.08 3.09 5.19 2.92 12.3-1.37 16.8 2.63.63 5.2 1.56 7.9 1.89 2.07.11 3.39-1.74 4.71-3.03 2.36-.28 4.55.53 6.64 1.51-.33.61-1 1.83-1.33 2.44-1.32-.34-2.64-.65-3.96-.94.59 1.07 1.19 2.14 1.8 3.2-.77.3-2.33.91-3.11 1.21l-1.85-1.52c-.12 1.76-1.2 2.84-2.8 3.42-.82-1-1.51-2.12-2.48-2.99-2.7-.9-5.92-.48-8.21-2.4.32-.98.7-1.95 1.13-2.88 1.88-3.69 3.1-8.16 1.34-12.14-2.16-4.82-6.42-8.26-10.39-11.56l-.32-.26z"/>
        <path d="M46.49 75.86c4.2-1.2 9.38-2.56 12.71 1.22-4.89.55-9.99.38-14.44 2.85-.89.37-1.79.72-2.7 1.05-1.59.43-2.99 1.34-4.16 2.48-4.43 3.59-9.81 6.31-15.32 7.65-1.41-.05-2.82-.07-4.23-.06-2.48.12-4.18-1.81-5.72-3.42.44-.93.8-1.89 1.07-2.88 1.32 1.26 2.61 2.56 4.13 3.56 2.26 1.28 4.89 1.38 7.13.02 2-1.05 3.93-2.22 5.88-3.34 1.24-.62 2.3-1.5 3.29-2.45 3.52-3.18 7.97-5.04 12.36-6.68z"/>
    </g>
    <path fill="#130404" opacity=".37" d="M59.78 40.61c.56-.84 1.32-1.42 2.27-1.75.23 1.82-.52 2.4-2.27 1.75z"/>
    <path fill="#1e0707" opacity=".38" d="M111.8 39.08c.26.21.8.63 1.07.83-.11.4-.31 1.2-.42 1.59-5.55-.24-10.99.95-16.39 2.06.35 1.85 2.73 2.34 4.03 3.44-1.48-.26-2.95-.53-4.42-.81-.18-1.1-.34-2.2-.48-3.3 4.93-.93 9.87-1.86 14.81-2.72.45-.27 1.35-.81 1.8-1.09z"/>
    <path fill="#1b0607" opacity=".36" d="M114.84 40.79c2.35-.39 2.55 1.18 2.13 3.04l-.4.52c-3.92.16-7.86-.2-11.77.39 2.69 1.68 5.77 2.57 8.52 4.13-4.62-1.36-9.4-2.13-13.86-4 5.32-1.16 10.77-1.39 16.2-1.13.12-.19.37-.57.49-.76-.33-.55-.99-1.64-1.31-2.19z"/>
    <path fill="#260909" opacity=".43" d="M102.46 47.89c4.91.71 9.33 3 14.04 4.4-2.11.78-3.96 2.08-5.61 3.59.66-.88 2-2.62 2.66-3.5-2.25 1.31-4.5 2.62-6.79 3.88 1.89-1.57 3.82-3.09 5.75-4.61-3.32-1.34-6.8-2.26-10.05-3.76z"/>
    <path fill="#160405" opacity=".4" d="M49.86 51.11c.32-.96.9-1.71 1.74-2.27.65 1.75.07 2.51-1.74 2.27z"/>
    <path fill="#150505" opacity=".31" d="M89.59 50.54c1.36-.21 2.73-.57 4.12-.36.34 2.28-.18 4.62-.29 6.92-.14-1.72-.35-3.43-.57-5.14-.03-.21-.1-.63-.14-.84-3.79-.13-2.6 4.99-2.03 7.35-2.08-2.19-1.32-5.23-1.09-7.93z"/>
    <path fill="#b52929" d="M90.68 58.47c-.57-2.36-1.76-7.48 2.03-7.35.04.21.11.63.14.84-.78 2.79-.13 5.58 1.05 8.14 1.4 3.49 2.98 6.92 4.99 10.1.74 1.22 1.49 2.43 2.08 3.72.31 1 .92 1.74 1.84 2.22 1.95 1.38 3.59 3.18 4.76 5.27-1.67-.15-3.32-.41-4.96-.68-.02 1.06 2.1 3.01.31 3.41-1.01-.49-1.98-1.05-2.92-1.67-.08.81-.25 2.44-.34 3.25-1.25.49-2.25-.64-3.32-1.09-.18.27-.54.79-.72 1.05-2.3.85-2.36-3.28-3.6-4.67-.14-.26-.42-.78-.55-1.05-.77-1.37-1.56-2.72-2.43-4.02-.38-1.26-.87-2.47-1.54-3.6l-.39-.51-.17-.43c-.5-1.19-1.02-2.37-1.55-3.54l-.2-.48c-1.66-4.32-2.81-9.29-7.15-11.77-.32-1.69 1.37-1.99 2.53-2.55 3.34 3.39 3.91 8.25 5.73 12.45 1.79 4.19 3.8 8.3 6.3 12.12 1.5 2.45 3.9 5.27 7.12 4.09l1.52-1.68c1.33-1.29-.12-3.04-1.02-4.1-1.5-1.95-2.88-4.02-3.91-6.26-.25-.46-.75-1.4-1-1.86-1.81-2.98-3.16-6.2-4.63-9.35z"/>
    <path fill="#9d2526" opacity=".95" d="M106.76 56.26c2.29-1.26 4.54-2.57 6.79-3.88-.66.88-2 2.62-2.66 3.5-.73.99-1.74 1.7-2.81 2.27-1.48.77-2.95 1.63-4.12 2.84-2.22 2.01-4.19 4.27-6.02 6.64-.35-.91-.72-1.82-1.08-2.72.66-.84 1.32-1.68 1.99-2.5 2.05-2.71 5-4.5 7.91-6.15z"/>
    <path fill="#290909" opacity=".45" d="M78.04 55.61c4.34 2.48 5.49 7.45 7.15 11.77-2.64-3.78-3.87-8.39-7.15-11.77z"/>
    <path fill="#210708" opacity=".41" d="M71.13 58.25c1.16-.06 2.32-.07 3.49-.04.4 2.25.76 4.52 1.5 6.68-.64-.92-1.28-1.86-1.9-2.79l-.52-2.82c-2.23-1.42-1.41 3.18-2.13 4.46-.39-1.8-.5-3.65-.44-5.49z"/>
    <path fill="#250809" opacity=".42" d="M103.96 60.99c1.17-1.21 2.64-2.07 4.12-2.84.65 1.96-2.49 4.02-4.12 2.84z"/>
    <path fill="#aa2828" d="M71.57 63.74c.72-1.28-.1-5.88 2.13-4.46l.52 2.82c.62.93 1.26 1.87 1.9 2.79.14.21.43.63.57.84 1.62 2.58 2.88 5.39 3.62 8.36-.04 2.58.06 5.18-.27 7.74-.86 1.81-1.2 4.22-2.99 5.35l-.73-.41c.44-3.29 1.4-6.5 1.55-9.82.11-3.21-1.23-6.25-2.78-8.98-1-1.54-2.23-2.92-3.52-4.23z"/>
    <path fill="#2c0a0a" opacity=".51" d="M93.9 60.1c1.33 1.45 2.75 3.16 4.95 2.31-.67.82-1.33 1.66-1.99 2.5.36.9.73 1.81 1.08 2.72.24.64.72 1.93.95 2.57-2.01-3.18-3.59-6.61-4.99-10.1z"/>
    <path fill="#110304" opacity=".33" d="M76.69 65.73c3.05 2.29 4.13 6.98 8.61 7 .03-1.62.07-3.25.09-4.87.53 1.17 1.05 2.35 1.55 3.54l.17.43c-.28.24-.85.74-1.13.99-.45.02-1.34.06-1.79.09l-1.86-.16c-.68.44-1.35.88-2.02 1.34-.74-2.97-2-5.78-3.62-8.36z"/>
    <path fill="#280909" opacity=".46" d="M75.09 67.97c1.55 2.73 2.89 5.77 2.78 8.98-.15 3.32-1.11 6.53-1.55 9.82l.73.41c1.79-1.13 2.13-3.54 2.99-5.35-.47 2.46-1.03 4.97-2.45 7.09-.5-.11-1.5-.32-2-.42.03-3.88 1.42-7.6 1.44-11.47-.01-3.12-1.09-6.09-1.94-9.06z"/>
    <path fill="#100404" opacity=".35" d="M95.31 67.82c.25.46.75 1.4 1 1.86l-.92-.09-.52-.95.44-.82z"/>
    <path fill="#1d0707" opacity=".38" d="M52.48 68.58c3.97 3.3 8.23 6.74 10.39 11.56 1.76 3.98.54 8.45-1.34 12.14 1.07-5.01 2.34-10.58-.92-15.08-5.18 1.53-10.68 1.13-15.85 2.73 4.45-2.47 9.55-2.3 14.44-2.85-3.33-3.78-8.51-2.42-12.71-1.22 2.83-1.91 6.25-2.44 9.61-2.47-1.23-1.59-2.45-3.18-3.62-4.81z"/>
    <path fill="#ab2829" d="M84.19 72.91c.45-.03 1.34-.07 1.79-.09.54.23 1.61.71 2.15.95-.93 1.04-2.01 1.88-3.23 2.5-1.89.28-3.3-1.55-2.36-3.23l1.65-.13z"/>
    <path fill="#2a0909" opacity=".47" d="M100.97 73.92c1.77-.23 2.39.51 1.84 2.22-.92-.48-1.53-1.22-1.84-2.22z"/>
    <path fill="#0a0203" opacity=".24" d="M81.2 76.36c.92.23 1.85.43 2.78.61 1.75-.01 3.29-1.21 5.06-1.03.87 1.3 1.66 2.65 2.43 4.02-1.2-.85-2.4-1.71-3.59-2.57-2.89.06-6.46-.15-7.16 3.55.17-1.52.24-3.06.48-4.58z"/>
    <path fill="#450f0f" opacity=".64" d="M100.22 75.94c.9 1.06 2.35 2.81 1.02 4.1-1.36-.68-2.01-2.89-1.02-4.1z"/>
    <path fill="#180605" opacity=".39" d="M92.6 77.63c2.13 1.75 4.44 3.32 7.12 4.09-3.22 1.18-5.62-1.64-7.12-4.09z"/>
    <path fill="#3f0e0f" opacity=".58" d="M37.9 83.46c1.17-1.14 2.57-2.05 4.16-2.48.67 1.92-2.67 3.63-4.16 2.48z"/>
    <path fill="#190606" opacity=".36" d="M92.02 81.01c1.24 1.39 1.3 5.52 3.6 4.67.18-.26.54-.78.72-1.05 1.07.45 2.07 1.58 3.32 1.09.09-.81.26-2.44.34-3.25.94.62 1.91 1.18 2.92 1.67 1.79-.4-.33-2.35-.31-3.41 1.64.27 3.29.53 4.96.68-2.47 1.22-3.36 4.27-6.06 5.05-2.77 1-5.83.45-8.66-.01-.26-1.82-.53-3.63-.83-5.44z"/>
    <path fill="#190506" opacity=".36" d="M30.84 84.99c-1.14-1.75 1.87-3.75 3.29-2.45-.99.95-2.05 1.83-3.29 2.45z"/>
    <path fill="#2f0a0c" opacity=".57" d="M12.63 87.63c-2.37-.26-.21-5.4 1.07-2.88-.27.99-.63 1.95-1.07 2.88z"/>
    <path fill="#340c0c" opacity=".51" d="M17.83 88.31c2.37.25 4.76.29 7.13.02-2.24 1.36-4.87 1.26-7.13-.02z"/>
    <path fill="#3d0e0e" opacity=".58" d="M18.35 91.05c1.41-.01 2.82.01 4.23.06.11 1.97-4.34 1.91-4.23-.06z"/>
</svg>
