<svg width="128pt" height="128pt" viewBox="0 0 128 128" xmlns="http://www.w3.org/2000/svg">
    <path fill="#bb2c2c" d="M98.6 27.53c1.78.8 3.57 1.58 5.46 2.09 1.84 3.04 4.71 5.53 5.61 9.07 1.26 1.55 3.2 2.93 2.81 5.19-1.75-.55-3.49-1.11-5.23-1.67.77 2.89 1.43 7.63-2.85 7.78.43 9.29 1.23 18.86-1.33 27.92-1.64 3.33-4.27 6.17-7.32 8.28-3.5.05-5.46 3.64-8.71 4.57-1.38 3.76-6.06 4.49-7.39 8.18-.43-.57-1.29-1.69-1.72-2.25.91 3.77 1.11 8.27 4.24 11 1.63 1.06 3.78.22 5.52-.17l.2-.33c.23-.38.69-1.15.92-1.53 2.26-.26 4.86.37 5.31 3.04-2.15-1.63-4.18-1.14-5.95.58-7.26.05-14.56.39-21.72-1.03 3.54-2.02 7.62.01 11.45-.53-.31-3.61-.14-8.47-3.53-10.66.14-.53.43-1.58.58-2.1-.46-.11-1.37-.32-1.83-.42.2-.44.59-1.32.78-1.76-2.08-.14-4.19-.5-5.83-1.89-3.01-2.35-6.74-3.83-9.12-6.91-1.66-1.99-2.96-4.23-4.35-6.4-.44-.28-1.31-.84-1.74-1.12-.2-1.45-.43-2.9-.66-4.34-1.99.09-4.19-.11-5.68 1.52-.85-1.49-1.2-3.17-1.43-4.85-1.6 1.19-3.15 2.46-4.67 3.76l1.76-4.67c-3.44 1.25-6.98 2.8-8.64 6.34-.68-3.11.21-6.07 2.51-8.24-2.32.61-4.98 1.26-6.32 3.47-1.01 1.27-1.56 3.07-3.29 3.6-.17-3.11.72-6.37 3.33-8.3-.12-.53-.35-1.61-.47-2.14-2.04-1.06-5.43-1.56-5.05-4.59 1.03-.85 2.15-1.55 3.38-2.09-1.13-1.22-2.19-2.51-2.74-4.11 1.82-.43 3.64-.85 5.45-1.31-.86-.89-1.41-2.82-2.98-2.01-4.7 1.63-5.62 7.15-6.55 11.4-.9 4.15 1.27 7.95 2.77 11.65-3.5-.62-5.14-4.78-6.54-7.71-.55-4.63-2.06-9.5-.23-14.02 1.41-4.37 4-8.35 7.79-11.02.32-1 .63-2.01.95-3.01 2.05-1.33 4.29-2.32 6.66-2.9-.69-.53-2.06-1.57-2.74-2.09 2.09-2.12 5.38-1.55 8.08-1.57 4.31.5 9.22.89 12.5 4.09.26.37.78 1.13 1.04 1.51 1.05-.12 2.1-.24 3.16-.35 2.27 3.66 4.6 7.32 6.14 11.37 1.65 3.7 2.77 8.06 6.3 10.47 4.04 2.95 9.93 2.19 13.62-.97 3.23-2.73 3.71-7.37 6.8-10.24 1.64-1.27 1.56-3.32 1.44-5.19 2.94-4.16 7.74-6.79 12.69-7.75l-1.56-1.11c-.27-.88-.81-2.64-1.08-3.53z"/>
    <path fill="#4b1112" opacity=".6" d="M46.91 27.63c2.85 1.82 5.35 4.11 7.34 6.85-1.06.11-2.11.23-3.16.35-.26-.38-.78-1.14-1.04-1.51-1.11-1.87-2.15-3.76-3.14-5.69z"/>
    <path fill="#2a090b" opacity=".51" d="M82.17 107.69c1.54-1.08 4.06-1.55 5.72-.5l-.2.33c-1.74.39-3.89 1.23-5.52.17z"/>
</svg>
