<svg width="128pt" height="128pt" viewBox="0 0 128 128" xmlns="http://www.w3.org/2000/svg">
    <g fill="#fff">
        <path d="M63.43 48.31c2.05-.68 1.98 2.63 2.52 3.9.39 1.99.76 3.98 1.17 5.97.29 5.57.98 11.21 3.42 16.3l1.37-1.33c-.47-.41-1.42-1.22-1.89-1.62 1.33-1.75 2.89-3.36 3.85-5.35.55-1.86.85-3.78 1.19-5.69.61.34 1.82 1.02 2.43 1.36-.73 3.46-2.2 6.75-4.7 9.29.4.42.8.83 1.21 1.24 1.27-2.3 2.55-4.59 3.81-6.88.28 1.58.55 3.16.79 4.75.08.56.22 1.68.29 2.24-2.9 1-5.81 1.97-8.6 3.24l-2.15-.24c-1.74 3.3-2.87 6.86-4.07 10.39-1.46-4.79-3.12-9.59-6.41-13.47-3.86-.69-4.93-5.04-7-7.79.98 5.18 5.8 8 9.13 11.55-3.49-1.28-6.88-2.82-10.48-3.78.18-2.2.34-4.4.46-6.59.83-2.38 1.25-4.95 3.57-6.41.27.64.54 1.27.79 1.91-1.42 4.33 2.18 7.65 4.62 10.68 2.76-7.65 1.29-16.26 4.68-23.67z"/>
        <path d="M59.41 53.27c2.83-1.44.18 2.95 0 0zm-5.5 4.9c.35-1.69 1.37-2.74 3.07-3.15.56 1.25-1.76 3.49-3.07 3.15zm1.65.49c1.53-1.37 3.2-3.66 5.45-2.17-1.17 4.58-1.32 9.36-2.74 13.89-1.16-1.42-2.54-2.73-3.21-4.47-1.18-2.36.11-4.86.5-7.25zm12.07-3.34c.6.32 1.8.95 2.4 1.27 2.33 2.1 4.05 5.27 3.34 8.46-.42 2.31-2.13 4.02-3.45 5.84-1.17-3.6-1.57-7.37-2.13-11.1l-.16-4.47zM50.68 76.77c-.54-1.24-1.16-2.45-1.6-3.73 3.01-.12 4.5 2.98 7.27 3.29 1.24.15 2.25.91 3.19 1.68-1.2-.37-3.61-1.13-4.81-1.5.93.82 2.78 2.47 3.71 3.29-1.71 6.43.06 13.2 3.66 18.64-5.22-3.32-10.85-6.24-15.17-10.76.58-.27 1.75-.8 2.33-1.07-.09-2.76-.14-5.51-.01-8.27 1.62 2.24 1.81 4.98 2.26 7.6 1.1-3 0-6.23-2.29-8.36.37-.2 1.1-.61 1.46-.81m1.11 1.21c1 1.04 2.25 1.85 3.13 3.01.34 4.61.42 9.48 2.83 13.59-1.65-4.51-1.99-9.26-2.18-14.02-1.25-.87-2.49-1.76-3.78-2.58zm16.65.47c3.01-2.32 6.76-3.46 10.19-5.17v2.91l-2.09.12c.48.09 1.42.27 1.89.36.49.81.97 1.62 1.45 2.43-.33-.01-.99-.02-1.32-.03.25 2.25.63 4.57.2 6.83-2.63-.4-2.01-3.52-.84-5.1-.27-.54-.54-1.08-.82-1.62-.19 1.84-1.6 3.89-.69 5.75.55 2.13 3.26 1.94 4.82 2.87-2.52 2.97-5.92 4.93-9.08 7.14-.25-.02-.75-.07-1.01-.1-.02-.29-.08-.86-.11-1.14 1.96-4.59 1.92-9.68 2.19-14.58-1.32 4.76-.94 9.79-2.19 14.58l-.09.47c-.21.44-.62 1.33-.82 1.77-1.28 1.02-2.71 1.83-4.07 2.73 3.58-5.48 5.29-12.24 3.66-18.69 1.01-.87 3.03-2.63 4.04-3.5l-5.31 1.97z"/>
    </g>
    <path fill="#b6b6b6" opacity=".71" d="M65.95 52.21c.9.5 1.79 1.02 2.68 1.53 2.92 1.42 5.85 3.06 6.46 6.55l-.03.2c-.34 1.91-.64 3.83-1.19 5.69.1-1.81.12-3.62.15-5.43-1.51-2.39-3.32-4.58-5.47-6.42l1.48 2.26c-.6-.32-1.8-.95-2.4-1.27l.16 4.47-.67-1.61c-.41-1.99-.78-3.98-1.17-5.97z"/>
    <path fill="#8e8e8e" opacity=".56" d="M77.49 61.85c1.26 2.64 1.43 5.54 1.11 8.4-.24-1.59-.51-3.17-.79-4.75-1.26 2.29-2.54 4.58-3.81 6.88-.41-.41-.81-.82-1.21-1.24 2.5-2.54 3.97-5.83 4.7-9.29z"/>
</svg>
