<svg width="128pt" height="128pt" viewBox="0 0 128 128" xmlns="http://www.w3.org/2000/svg">
    <g fill="#fff">
        <path d="M54.25 45.18c.26.32.78.97 1.04 1.29-2.67 1.64-4.07 4.43-4.01 7.53.39.78 1.17 2.34 1.56 3.13-4.18.8-2.87-3.07-2.85-5.17.1-2.91 2.26-4.95 4.26-6.78z"/>
        <path d="M71.99 45.11c3.82 1.14 5.99 4.99 5.67 8.86.66 2.86-2.96 3.23-4.74 4.32-3.61.27-7.5.81-9.2 4.54-1.17-1.58-2.31-3.68-4.48-3.91-2.12-.25-4.26-.42-6.32-1.06l-.18-2.93c1.45-.54 2.88-1.12 4.3-1.75 3.57 3.73 9.94 3.51 13.6.02 1.82.89 3.67 1.72 5.56 2.45-.07-1.91-.06-3.85-.64-5.68-1.05-1.73-2.88-2.9-3.57-4.86z"/>
        <path d="M62.03 48.25c1.17-.02 2.34-.03 3.51-.05.35 1.13.67 2.28 1.13 3.38.67-.19 2.01-.56 2.68-.75-.23.75-.68 2.24-.91 2.99-2.77 1.4-5.93 1.22-8.85.41-.56-1.08-1.12-2.16-1.67-3.25 2.81 1.54 3.6-.47 4.11-2.73zm-9.41 11.11c3.67.48 9.14.29 10 5.01.29 5.35.1 10.73.06 16.09-2.45-.52-5.02-1.35-6.65-3.38-1.23-1.71-1.64-3.85-2.33-5.8-1.25.13-2.5.27-3.74.43-.14 2.65.04 5.33-.45 7.96-2.01-2.63-.3-6.27-2.24-8.99l-1.14 3.25c-.89-3.33-.6-6.81-.19-10.18 2.31-.52 4.7-.25 7.04-.33l-.36-4.06m-5.32 5.58c-.12 1.73-.21 3.47-.3 5.21.63.43 1.26.86 1.89 1.31.65-2.24 3.24-1.31 4.9-1.8-.26-1.56-.5-3.13-.74-4.69-1.92-.03-3.84-.04-5.75-.03zm18.62-2.74c1.99-2.93 5.97-2.12 8.97-2.86-.09 1.36-.17 2.73-.23 4.1 2.25.02 4.51-.12 6.76.15.9 3.15.76 6.47.62 9.72-.74-.32-2.23-.95-2.97-1.27.09 2.47.16 4.97-.29 7.42-2.1-2.1-.76-5.3-1.25-7.9l-3.69-.12c-.74 4.61-4.13 8.65-9 9.01-.06-4.85-.09-9.71-.11-14.57-.07-1.32.5-2.58 1.19-3.68m8.59 2.69c-.21 1.61-.41 3.22-.63 4.83 2.42-.39 4.19.96 6.06 2.12.99-2.19.48-4.61.36-6.92-1.93-.01-3.86-.01-5.79-.03z"/>
    </g>
</svg>
