<svg width="128pt" height="128pt" viewBox="0 0 128 128" xmlns="http://www.w3.org/2000/svg">
    <path fill="#c02c2e" d="M56.2 15.38c1.79-.11 3.17 1.52 4.75 2.19 1.16-.39 3.15-2.3 4.03-.56.23 1.7.24 3.61 1.96 4.55.97-.43 1.94-.87 2.92-1.3.22.86.66 2.57.89 3.42l-1.71.55c-1.19.3-2.18 1.04-3.14 1.77.67 1.1 1.14 3.19 2.91 2.7 1.37.2 1.44-1.45 1.84-2.33l.88-2.17c.8.41 2.4 1.25 3.2 1.67-.29.78-.88 2.35-1.18 3.13 3.36 4.51 9.9 4.08 14.91 4.9-.98 2-2.17 4-2.17 6.31-1.25.21-2.28-.23-3.09-1.31-4.6-4.2-11.9-5.78-17.5-2.65-1.91-.37-3.82-.78-5.72-1.19.21 1.99-.92 4.72 1.16 5.99 1.8 1.44 4.03 2.19 6.19 2.88 2.08.62 5.21 1.16 3.79 4.12 2.39 2.5 5.69 3.96 7.93 6.65-.45.47-1.35 1.4-1.81 1.87 1.23 3.63 2.58 7.22 3.62 10.92-.62.18-1.84.55-2.45.73 0 3.15-.38 6.28-.7 9.41-.5-.05-1.48-.16-1.98-.22-1.81 2.43-3.08 5.27-5.42 7.28-1.02-.74-2.02-1.52-3.01-2.3-1.97 1.75-3.97 3.47-5.87 5.3-2.87-1.75-5.92 1.47-9.05.14l-.42-4.81c-1.33-.72-2.63-1.48-3.91-2.27 1.31-.85 2.26-.01 3.02 1.15.29-.51.88-1.53 1.18-2.05 1.29-.61 1.35-1.27.17-1.97-2.05-.75-.43-2.98-.24-4.38 1.5.59 2.46.16 2.9-1.3 1.31-2.97-.09-6.16-.33-9.2-.41-4.86-2.86-9.15-4.95-13.44l-.75-.26c-1.69-.14-2.59-1.06-2.71-2.75 1.33-.62 1.54-1.95 1.67-3.26l-2.37-.12c.01-.87.03-2.61.03-3.49h2.15c-.02-.54-.06-1.62-.07-2.16-1.4-.23-2.05-1.06-1.95-2.49.88-.69 1.89-.92 3.04-.69.32-1.83-.25-3.43-1.93-4.28.23-.66.7-1.98.93-2.65 2.18 1.2 2.89-1.32 3.96-2.66-2.28-.37-1.64-2.16-.86-3.63 1.51-.14 3.53.91 4.68-.45 1.09-1.89-1.99-4.02.58-5.29z"/>
    <path fill="#c62c31" d="M65.9 26c.96-.73 1.95-1.47 3.14-1.77l1.76-.31-.15 2.45c-.4.88-.47 2.53-1.84 2.33-1.77.49-2.24-1.6-2.91-2.7z"/>
    <path fill="#350c0d" opacity=".51" d="M65.7 36.25c5.6-3.13 12.9-1.55 17.5 2.65-5.27-2.73-11.88-5.39-17.37-1.66-1.77-.45-3.55-1.19-5.42-.89-.87 4.41 4.2 5.51 6.92 7.58-2.16-.69-4.39-1.44-6.19-2.88-2.08-1.27-.95-4-1.16-5.99 1.9.41 3.81.82 5.72 1.19z"/>
    <path fill="#380d0c" opacity=".54" d="M49.05 49.3l.75.26c2.09 4.29 4.54 8.58 4.95 13.44.24 3.04 1.64 6.23.33 9.2-.33-1.56-.68-3.13-.67-4.73-.08-4.6-1.31-9.31-3.98-13.09-3.7.28-6.86-1.65-9.84-3.58l-.36-.22c3.91.14 6.54 4.52 10.73 3.12-.63-1.47-1.27-2.93-1.91-4.4z"/>
    <path fill="#b52c2c" d="M40.59 50.8c2.98 1.93 6.14 3.86 9.84 3.58 2.67 3.78 3.9 8.49 3.98 13.09-2.12 3.82-5.84 6.53-7.47 10.68-1.08-1.29-2.76-2.35-2.98-4.16 1.76-2.28 4.39-3.79 6.19-6.07-3.12.37-5.29 2.81-8.04 4.08-.37-.65-1.12-1.96-1.49-2.62.95-.62 2.86-1.85 3.82-2.47-1.12.14-3.37.4-4.49.54-.37-1.2-.74-2.39-1.09-3.59 3.21-.51 6.52-.56 9.65-1.53-3.59-.16-7.27.19-10.76-.86-.08-.75-.23-2.25-.31-3 3.87-.58 7.75.47 11.64.03-3.56-1.27-7.42-1.7-10.96-3.2.67-1.57 1.23-3.26 2.47-4.5z"/>
    <path fill="#1a0707" opacity=".45" d="M52.42 77.88c1.18.7 1.12 1.36-.17 1.97.04-.49.13-1.47.17-1.97z"/>
    <path fill="#b2292c" d="M48.05 80.75c1.28.79 2.58 1.55 3.91 2.27l.42 4.81c3.13 1.33 6.18-1.89 9.05-.14 1.9-1.83 3.9-3.55 5.87-5.3.99.78 1.99 1.56 3.01 2.3-1.16 1.23-2.53 2.54-4.29 1.44-2.49 2.41-4.79 7.62-8.9 6.26-1.3 1.98-2.06 4.67-4.48 5.57-.45 2.86-.52 6.47 2.17 8.29 3.19 2.69 8.29 2.79 11.32-.19 1.53-2.6 1.08-6.54-2.12-7.6-.66.3-1.97.9-2.63 1.2-.19 1.41-.42 3.14 1.36 3.6-.01-.68-.01-2.05-.01-2.73 1.81-.8 3.43 1.99 2.07 3.27-.88 1.45-2.93 1.8-4.31.84-3.48-1.21-2.88-6.55.08-8.05 1.5-1.49 3.69-.9 5.57-.99 2.37 1.76 4.71 4.12 4.58 7.31.73 3.32-1.91 6.06-1.54 9.32-1.29.19-2.57.15-3.86-.1-.45 2.01-1.21 3.86-3.7 3.19.02-.54.08-1.63.1-2.17-1.05.14-2.11.27-3.16.39-.11.68-.32 2.04-.43 2.72-.69-.17-2.06-.52-2.75-.7-.13-.58-.39-1.75-.53-2.34-2.41-.75-3.36 2.73-5.81.91.95-1.87.38-3.42-1.61-3.95-.57.37-1.71 1.12-2.28 1.5-.48-.44-1.45-1.32-1.93-1.76.72-1.8.73-3.71.07-5.54-2.96 1.62-3.21-1.82-3.21-3.85 2.77.47 3.78-4.95.39-4.57.69-1.08.48-3.82 2.4-3.3 1.56.53 1.44-1.66 2.12-2.48l-1.8-1.77c.75-1.64 2.09-2.59 3.78-1.47.42-.55 1.27-1.64 1.7-2.18-1.05-1.19-2.01-2.62-.62-4.01z"/>
</svg>
