<svg width="128pt" height="128pt" viewBox="0 0 128 128" xmlns="http://www.w3.org/2000/svg">
    <path opacity=".98" d="M90.31 51.2c0-.38.02-1.15.03-1.53 4.39 1 8.97 2.15 12.47 5.16-1.08-.51-2.14-1.07-3.2-1.63l-.04 1.66c-3.29-.65-6.23-2.32-9.26-3.66zM28.63 71.14c.46-1.97 1.51-3.72 2.88-5.2.01 1.08 0 2.17-.02 3.25-2.73 3.31-3.96 7.54-6.46 10.97.99-3.09 2.86-5.83 3.6-9.02zm53.5 3.3c.52-.38 1.04-.74 1.57-1.09.22.53.65 1.61.87 2.15 4.97-.02 6.64 6.26 7.05 10.2l1.2-.09c-.11.47-.33 1.4-.45 1.87h1.33c-.11.87-.31 2.59-.41 3.45.59.86 1.33 1.66 1.49 2.73-1.16-.82-2.19-1.88-2.75-3.2-1.94-4-4.55-7.75-5.45-12.17-.05-1.71-2.28-1.52-3.38-2.07.16-.49.49-1.47.65-1.96l-1.72.18zm-47.24 27.58c-1.08-4.75 2.27-9.01 2.95-13.6.82.36 2.48 1.07 3.31 1.43-2.18 4.01-3.45 8.54-6.26 12.17z" fill="#fafafa"/>
    <path d="M89.09 61.95c.81-.88 1.57-1.81 2.49-2.58.93.66 1.7 1.47 2.32 2.44.58 0 1.72-.01 2.29-.01 2.79 3.35 5.9 6.55 7.81 10.5 2.35.51 1.84 3.83-.52 3.33.05-.6.14-1.82.19-2.42-3.96-1.28-6.59-4.66-9.94-6.92-.31-.26-.95-.79-1.26-1.05l-.06-.59c-1.61-.24-2.06-1.93-3.32-2.7zM60.46 94.51c.46.03 1.39.1 1.85.14-.1 2.57.24 5.2 1.41 7.53 1.76 3.39 1.84 7.33 3.52 10.76-.49 1.42-.77 2.89-.78 4.39-.62.11-1.86.34-2.48.45.18-.57.53-1.7.71-2.26l-2.78.44c-.58-3.43-.92-6.92-.5-10.39l-.83.03c.17-3.69.23-7.4-.12-11.09z" fill="#fff"/>
</svg>
