<svg width="128pt" height="128pt" viewBox="0 0 128 128" xmlns="http://www.w3.org/2000/svg">
    <path fill="#8f2125" opacity=".92" d="M60.12 15.76c1.29.07 2.6.05 3.79-.55-.83 2.17-1.66 5.45.67 6.98-1.12-.05-2.24-.08-3.36-.1.97-2.19.07-4.4-1.16-6.25l.06-.08z"/>
    <path fill="#b5292c" d="M59.34 25.12c.3-1.2.2-2.93 1.88-3.03 1.12.02 2.24.05 3.36.1.3.25.9.77 1.2 1.02-1.94 2.86.6 5.75 1.24 8.56-.25 2.07-2.46 2.73-3.97 3.68-1.58-.94-3.18-1.83-4.79-2.7l.11 1.34-1.07-.3-.28-.08c.33-1.8-.31-4.08 1.23-5.45-.48-1.59-.12-2.64 1.09-3.14z"/>
    <path fill="#410e0f" opacity=".63" d="M67.02 31.77c-.64-2.81-3.18-5.7-1.24-8.56 2.98 3.16 5.63 9.3 2.09 12.87.48-1.85 1.15-3.75.82-5.69-1.2 2.3-2.61 4.54-4.73 6.11-.03 3.44.33 6.89-.05 10.32-.93 3.55-5.21 3.03-8.03 3.71-2.15.57-4.33 1-6.52 1.41-.46 1.08-.95 2.15-1.46 3.22.38.95.77 1.91 1.17 2.87 8.65.78 17.62-1.26 25.99 1.88 1.23 4.75 1.2 9.67 1.15 14.54-7.84 2.65-16.21.65-24.16 2.61-1.75.41-3.69.77-4.97 2.15-.55 2.6-.23 5.26-.16 7.89l3.34 1.05.11.65c7.96 1.04 16.08-.64 23.96.85 3 .65 2.43 4.06 2.14 6.32-.37 1.79-.03 4.65-2.31 5.22-4.84 1.23-9.9.85-14.81.33 5.01-.75 10.32-.3 15.08-2.21 1.03-2.18.44-4.79.6-7.15-4.26-1.59-8.84-2.06-13.35-1.61-3.06.29-6.13.18-9.18-.06-2.85-.36-7.46-.54-7.5-4.42.15-3.05-1.14-7.25 1.65-9.41 8.92-2.67 18.44-1.6 27.47-3.68.43-3.62.22-7.26-.15-10.87-4.56-3.2-10.52-2.52-15.8-2.6-3.78.18-8.28 1.21-11.42-1.51-.84-2.58-.69-6.81 2.55-7.57 3.7-.99 7.67-.41 11.33-1.62 3.43-3.1 1.95-8.34 2.21-12.43-1.57-1.16-3.11-2.35-4.58-3.63 1.61.87 3.21 1.76 4.79 2.7 1.51-.95 3.72-1.61 3.97-3.68m-.9-6.51c-.79.9 0 3.17 1.36 2.69.72-.88-.08-3.11-1.36-2.69z"/>
    <path fill="#a22526" opacity=".94" d="M66.12 25.26c1.28-.42 2.08 1.81 1.36 2.69-1.36.48-2.15-1.79-1.36-2.69z"/>
    <path fill="#b52829" d="M63.96 36.5c2.12-1.57 3.53-3.81 4.73-6.11.33 1.94-.34 3.84-.82 5.69l-.91.38c-.27.12-.83.37-1.11.49.08 4.54.49 9.12-.42 13.61l-.26.47c-2.2.99-4.51 2.01-6.99 1.62l-.3.75-.83-.75c-2.01.42-4.66-.13-5.92 1.91.48 2 3.19 1.83 4.83 1.93 5.76-.58 11.65-1.27 17.36.11l1.17.32c.86.41 1.61 1.02 2.37 1.6-.36 1.92.77 3.49 1.95 4.83.55 3.65.57 7.36.24 11.03-.57 1.35-1.86 2.17-2.88 3.15l.04-3.08c.05-4.87.08-9.79-1.15-14.54-8.37-3.14-17.34-1.1-25.99-1.88-.4-.96-.79-1.92-1.17-2.87.51-1.07 1-2.14 1.46-3.22 2.19-.41 4.37-.84 6.52-1.41 2.82-.68 7.1-.16 8.03-3.71.38-3.43.02-6.88.05-10.32z"/>
    <path fill="#bd2c29" d="M58.37 34.09l-.11-1.34c1.47 1.28 3.01 2.47 4.58 3.63-.26 4.09 1.22 9.33-2.21 12.43-3.66 1.21-7.63.63-11.33 1.62-3.24.76-3.39 4.99-2.55 7.57 3.14 2.72 7.64 1.69 11.42 1.51 5.28.08 11.24-.6 15.8 2.6.37 3.61.58 7.25.15 10.87-9.03 2.08-18.55 1.01-27.47 3.68-2.79 2.16-1.5 6.36-1.65 9.41.04 3.88 4.65 4.06 7.5 4.42 3.05.24 6.12.35 9.18.06 4.51-.45 9.09.02 13.35 1.61-.16 2.36.43 4.97-.6 7.15-4.76 1.91-10.07 1.46-15.08 2.21 4.91.52 9.97.9 14.81-.33 2.28-.57 1.94-3.43 2.31-5.22.29-2.26.86-5.67-2.14-6.32-7.88-1.49-16 .19-23.96-.85l-.11-.65-3.34-1.05c-.07-2.63-.39-5.29.16-7.89 1.28-1.38 3.22-1.74 4.97-2.15 7.95-1.96 16.32.04 24.16-2.61l-.04 3.08c-7.5 2.17-15.56.03-23 2.62-1.85.54-3.59 3.05-2.19 4.8 1.18 2.18 3.91 1.89 6.01 1.89 6.07-.24 12.15.32 18.16 1.04 2.86.41 4.87 3.39 3.85 6.18-.68 3.13-.1 7.76-3.78 9.08-6.66.81-13.4.79-20.1 1.13-2.17.67-2.61 3.89-.48 4.96-.42.28-1.25.84-1.66 1.12-.64-.4-1.91-1.21-2.54-1.61l.36-2.05c.96-4.02 5.76-4.03 8.81-5.66-2.84.13-5.66.52-8.45 1.08-.49.98-.96 1.97-1.43 2.97-.54-.97-1.06-1.95-1.55-2.94 5.17-3.71 11.71-3.7 17.79-3.56 2.33-.3 5.93.22 6.68-2.66-.95-1.15-2.12-2.38-3.69-2.5-6.47-.73-12.95.59-19.42.26-2.76-.53-5.71-1.67-7.57-3.84-1.6-4.27-.73-9.1.59-13.35 2.9-1.9 6.02-3.73 9.57-3.9 5.33-.18 10.68-.19 16.01-.51 2.99-.54 3.99-3.73 3.15-6.37-3.2-4.63-9.41-3.46-14.16-2.69-4.83.89-10.32.07-13.62-3.89.33-3.4-.65-7.25 1.31-10.26 4.14-4.15 11.14-.09 15.38-3.89.57-2.59.39-5.26.3-7.88-1.3-.86-2.55-1.84-3.2-3.31l1.07.3z"/>
    <path fill="#0f0303" opacity=".33" d="M65.85 36.95c.28-.12.84-.37 1.11-.49-.68 4.64 1.19 9.96-1.53 14.1.91-4.49.5-9.07.42-13.61z"/>
    <path fill="#2b0a0a" opacity=".45" d="M58.18 52.65c2.48.39 4.79-.63 6.99-1.62-3.11 3.52-8.6 2.22-12.78 3.18l-.09 1.37c7.35.93 15.37-2.67 22.19 1.34l-1.17-.32c-5.71-1.38-11.6-.69-17.36-.11-1.64-.1-4.35.07-4.83-1.93 1.26-2.04 3.91-1.49 5.92-1.91l.83.75.3-.75z"/>
    <path fill="#3f0e0e" opacity=".58" d="M76.86 58.52c.75 1.1 1.48 2.22 2.31 3.26.7 4.42 1.82 9.07-.17 13.34l.05-.74c.33-3.67.31-7.38-.24-11.03-1.18-1.34-2.31-2.91-1.95-4.83z"/>
    <path fill="#4a1111" opacity=".69" d="M51.16 102.11c2.79-.56 5.61-.95 8.45-1.08-3.05 1.63-7.85 1.64-8.81 5.66-.27-.4-.8-1.21-1.07-1.61.47-1 .94-1.99 1.43-2.97z"/>
    <path fill="#791c1c" opacity=".84" d="M48.7 111.38c-1.68-2.72-.78-6.22-.52-9.24.49.99 1.01 1.97 1.55 2.94.27.4.8 1.21 1.07 1.61l-.36 2.05c-1.11 1.84 1.28 3.18 2.54 1.61.41-.28 1.24-.84 1.66-1.12l.53.12c1.02.49 2.05.99 3.07 1.51-1.61.29-3.21.56-4.82.82 2.85-.21 5.71.02 8.45.87-4.33 1.62-8.96.11-13.17-1.17z"/>
    <path fill="#2e0a0a" opacity=".52" d="M61.36 106.96c.9.69 3.87.42 2.47 2.34-.02.09-.07.28-.09.37l.26-.13c0 1.34-.86 2.61-2.13 3.01-2.74-.85-5.6-1.08-8.45-.87 1.61-.26 3.21-.53 4.82-.82-1.02-.52-2.05-1.02-3.07-1.51 2.54.7 4.77-.26 6.19-2.39m-1.45 3.83c1.59.42 2.22-.19 1.89-1.81-1.1.1-1.73.7-1.89 1.81z"/>
    <path fill="#430f11" opacity=".7" d="M52.98 110.35c-1.26 1.57-3.65.23-2.54-1.61.63.4 1.9 1.21 2.54 1.61z"/>
    <path fill="#7e1b1f" opacity=".83" d="M59.91 110.79c.16-1.11.79-1.71 1.89-1.81.33 1.62-.3 2.23-1.89 1.81z"/>
    <path fill="#881d21" opacity=".83" d="M63.74 109.67c.02-.09.07-.28.09-.37l.17.24-.26.13z"/>
</svg>
