<svg width="128pt" height="128pt" viewBox="0 0 128 128" xmlns="http://www.w3.org/2000/svg">
    <path fill="#fff" d="M44.56 17.31c5.34 3.62 10.84 7.02 16.26 10.53 1.03-1.36 2.06-2.72 3.07-4.09.96 1.38 1.93 2.76 2.91 4.14 5.44-3.55 10.91-7.05 16.37-10.57 1.36 6.36 2.89 12.69 4.11 19.07 1.72-.31 3.45-.6 5.17-.92-.33 1.68-.64 3.36-.96 5.04 6.39 1.41 12.79 2.82 19.2 4.14-3.71 5.38-7.03 11.02-10.65 16.46 1.38.97 2.76 1.96 4.13 2.95-1.36.97-2.7 1.98-4.05 2.97 3.61 5.38 6.85 11.01 10.58 16.32-6.37 1.35-12.69 2.96-19.1 4.13.26 1.74.54 3.49.84 5.22-1.71-.34-3.42-.67-5.14-1-1.17 6.4-2.7 12.72-4 19.09-5.48-3.49-10.95-7.01-16.37-10.59-1.05 1.45-2.08 2.91-3.1 4.38-.96-1.43-1.93-2.85-2.89-4.27-5.46 3.52-10.95 7-16.38 10.59-1.2-6.33-2.88-12.55-4.01-18.89-1.75.16-3.48.39-5.21.64.26-1.7.5-3.41.69-5.12-6.32-1.29-12.63-2.67-18.92-4.09 3.62-5.42 7.02-10.97 10.61-16.4-1.45-.94-2.89-1.89-4.35-2.81 1.45-1.02 2.88-2.05 4.32-3.07-3.54-5.46-7.06-10.93-10.55-16.42 6.3-1.43 12.64-2.67 18.93-4.15-.24-1.69-.52-3.38-.8-5.07 1.69.31 3.39.62 5.09.93 1.4-6.38 2.63-12.8 4.2-19.14m-2.1 19.6c2.61.45 5.23.84 7.86 1.19-1.64 1.25-3.57 1.65-5.54.9 2.93 3.06 5.78 6.19 8.87 9.1-1.51-2.76-2.06-6.32-4.57-8.33.71-.53 1.41-1.06 2.11-1.6 1.71 3.58 3.51 7.12 5.15 10.73.55-.06 1.64-.17 2.19-.23-1.29-3.87-2.99-7.61-3.98-11.56 1.5-2.59 3.41-4.91 5.13-7.35-4.58-3.18-9.26-6.21-13.88-9.32-1.28 5.46-2.26 10.97-3.34 16.47M68 29.74c1.7 2.42 3.62 4.7 5.04 7.3-.91 3.43-2.35 6.68-3.33 10.09-1.35 2.05 1.75 2.5 2.07.63 1.57-3.1 2.94-6.3 4.51-9.4 2.26-.43 4.53-.83 6.81-1.14l-1.41 2.09c-1.54.27-3.88-.2-4.53 1.7-1.15 2.3-2.12 4.68-3.07 7.07 3.9-3.77 7.5-7.82 10.96-11.97-.91-5.25-2.1-10.44-3.13-15.66-4.7 3.01-9.29 6.17-13.92 9.29m-6.02-.69c-.26 6.13.73 12.28.83 18.43l1.86.2c.46-6.16 1.13-12.34 1.09-18.51-.61-2.44-3.31-2.72-3.78-.12m-5.44 8.24c.84 2.81 2.1 5.49 3.26 8.19.22-4.24-.18-8.48-.22-12.72-1.08 1.46-2.32 2.85-3.04 4.53m11.63-4.46c-.12 4.09-.44 8.18-.26 12.27 1.25-2.56 2.25-5.24 3.33-7.88-1.03-1.46-2.07-2.91-3.07-4.39m-31.08 4.41c.46 1.63.26 3.69 1.83 4.76 4.21 3.56 8.14 7.43 12.44 10.87.37-.24 1.11-.73 1.47-.97-3.55-4.34-7.38-8.45-11.08-12.67-1.07-1.5-3.09-1.43-4.66-1.99m49.98.66c-3.5 3.87-6.9 7.83-10.43 11.67-.76.98-2.7 2.44-.5 3.38 4.18-3.36 8.05-7.1 12.14-10.58 1.67-1.11 1.91-3.17 2.49-4.91l-3.7.44m-66.81 8.28c3.16 4.56 6.09 9.29 9.38 13.77 2.42-1.7 4.63-3.83 7.38-4.98 3.92 1.07 7.64 2.81 11.61 3.71.04-.47.12-1.41.15-1.88-3.6-1.63-7.1-3.5-10.7-5.13-.48-3.01-.98-6.01-1.54-9-5.41 1.25-10.93 2.03-16.28 3.51m70.83-3.58c-.48 2.56-.84 5.14-1.19 7.72-1.2-1.61-1.66-3.49-.96-5.43-2.94 3.06-6.17 5.83-9.04 8.95 2.77-1.54 6.75-1.88 8.3-4.86.55.78 1.1 1.56 1.67 2.34-2.96 1.69-6.06 3.07-9.15 4.48-1.11.46-1.78 1.31-2.02 2.56 4.29-.34 8.08-2.61 12.23-3.53 2.54 1.53 4.83 3.42 7.26 5.1 3.15-4.57 6.1-9.26 9.25-13.83-5.38-1.5-10.92-2.25-16.35-3.5m-52.56 2.35c.37 1.76.53 3.59 1.18 5.27 2.68 1.5 5.57 2.56 8.37 3.81-3.1-3.12-6.28-6.15-9.55-9.08m24.55 6.1c.11 1.69.24 3.37.45 5.05.91-1.48.95-3.23 1.14-4.9-.4-.04-1.19-.11-1.59-.15m-4.56 1.15c-.92 1 .2 3.23 1.6 2.45 1.07-.95-.26-3.44-1.6-2.45m9.37 2.59c1.42-.08 2.31-2.85.46-2.94-1.19.2-1.96 2.72-.46 2.94m4.39-.39c-1.09 1.34-2.12 2.73-2.9 4.27 1.47-.98 2.83-2.09 4.2-3.19-.44-.36-.87-.72-1.3-1.08m-17.77.59c-.22 1.59 1.83 3.23 3.23 3.44.74-1.45-1.74-4.31-3.23-3.44m-22.03 4.88c4.22-.18 8.43.27 12.65.25-2.66-1.29-5.43-2.31-8.2-3.32-1.51.99-2.99 2.02-4.45 3.07m50.25-.05c4.15.22 8.31.01 12.46 0-1.45-1.07-2.93-2.09-4.42-3.1-2.68 1.02-5.39 2-8.04 3.1m-9.19-1.12c-.06.47-.19 1.41-.26 1.88 1.15.72 3.26-.09 3.19-1.59-.8-.93-1.78-1.03-2.93-.29m-21.68.09c-1.06 1.55 1.66 2.68 2.77 1.84.89-1.46-1.65-2.9-2.77-1.84m11.81 2.99c-1.95.13-3 2.77-1.42 4.03.97 1.32 3.21.5 3.72-.87 1-1.39-.83-3.4-2.3-3.16m17.05 1.38c.02.46.05 1.38.06 1.84 5.42.4 10.84.64 16.26 1.08 1.84.46 3.18-1.18 4.62-1.99l-2.78-1.97c-6.05.19-12.14.34-18.16 1.04m-54.85.9c1.57.85 3.01 2.45 4.98 2.03 4.74-.2 9.48-.62 14.23-.83 1.22.02 2.22-.47 3-1.48-3.57-1.27-7.43-.85-11.14-1.24-3.77-.16-8-1.41-11.07 1.52m24.68.86c1.8-.12 3.61-.32 5.39-.61-1.72-.57-4.93-2.11-5.39.61m21.29-.71c1.69.29 3.39.48 5.1.66-.03-.42-.07-1.25-.09-1.66-1.69.2-3.49.13-5.01 1M51.55 68.9c.46 1.94 4.12.34 3.09-1.34-1.08-.57-2.93-.01-3.09 1.34m21.73-1.34c-1.01 1.67 2.64 3.23 3.16 1.38-.19-1.35-2.06-1.93-3.16-1.38m-40.56.87c1.39 1.05 2.8 2.09 4.25 3.06 2.72-1.15 5.55-2.03 8.24-3.28-4.17-.19-8.33.05-12.49.22m49.93-.27c2.62 1.29 5.4 2.21 8.12 3.25 1.5-1 2.99-2.03 4.44-3.1-4.19-.15-8.37-.23-12.56-.15m-53.3.21c-2.97 4.63-6.1 9.15-9.04 13.81 5.45 1.21 10.96 2.15 16.41 3.36l-.12-2.83c1.01-.05 2.03-.11 3.05-.18 2.66-2.9 5.68-5.46 8.34-8.37-2.73 1.5-5.89 2.29-8.39 4.15-.17 1.03-.53 3.08-.7 4.11-2-1.26-1.41-4.18-.41-5.9 3.27-1.69 6.66-3.16 9.95-4.81.04-.57.11-1.71.14-2.29-3.91 1.39-7.84 2.74-11.77 4.09-2.45-1.76-4.89-3.55-7.46-5.14m43.35 5.66c1.99-2.27-2.24-3.37-3.52-4.71 1.03 1.67 2.24 3.22 3.52 4.71m18.25-.61c-3.92-1.31-7.78-2.77-11.75-3.91.08.55.25 1.65.33 2.2 3.5 1.64 6.97 3.36 10.42 5.12-.6.63-1.19 1.26-1.77 1.9-2.04-2.4-5.37-3.03-8.12-4.37 2.69 3.19 6.07 5.7 8.89 8.78-.7-1.95-.27-3.83.95-5.44.35 2.57.71 5.14 1.19 7.69 5.44-1.19 11.03-1.83 16.33-3.55-3.2-4.46-6.08-9.14-9.16-13.68-2.4 1.81-4.88 3.5-7.31 5.26m-36.02.63c1.27-1.33 2.55-2.69 3.4-4.35-1.45 1.02-4.69 2.02-3.4 4.35M63.04 77c.41.1 1.23.32 1.64.43-.1-1.82-.24-3.64-.52-5.44-.87 1.52-.89 3.31-1.12 5.01m-3.99-.48c1.4-.12 1.87-2.04 1.38-3.13-1.62-.98-3.33 2.61-1.38 3.13m8.32-3.16c-.6 1.14-.13 3.37 1.46 3.29 2.04-.57.29-4.37-1.46-3.29m-28.3 12.73c-1.58 1.12-1.54 3.22-2.06 4.89 1.69-.51 3.81-.47 4.92-2.08 3.62-4.07 7.2-8.18 10.82-12.25-.29-.38-.87-1.14-1.16-1.51-4.16 3.66-8.33 7.32-12.52 10.95m35.84-9.75c4.02 4.64 8.15 9.18 12.1 13.87.96.13 2.86.38 3.81.51-.64-1.46-.58-3.38-1.9-4.47-4.17-3.6-8.25-7.31-12.3-11.05-.43.29-1.28.86-1.71 1.14m-18.44 2.87c-1.69 3.41-3.09 6.97-4.88 10.33-1.54.51-3.11.93-4.72 1.25-.48-.61-.97-1.21-1.46-1.8 1.47-.46 4.1.41 4.93-1.41 1.2-2.5 2.22-5.07 3.46-7.55-2.96 2.67-5.45 5.83-8.53 8.38.03.95.08 1.9.13 2.86l-2.85.12c.97 5.46 2.2 10.87 3.3 16.3 4.64-3.09 9.36-6.07 13.89-9.33-1.86-2.33-3.54-4.79-5.26-7.21 1.44-3.75 2.65-7.58 4.01-11.35-.5-.15-1.52-.45-2.02-.59m13.04.43c.83 3.92 2.41 7.64 3.78 11.4-1.7 2.47-3.4 4.94-5.22 7.33 4.59 3.16 9.15 6.39 13.97 9.19 1.15-5.36 2.12-10.75 3.28-16.11-3.01-.58-6.03-1.1-9.04-1.71-1.57-3.54-3.26-7.04-5.12-10.45l-1.65.35m4.51.29c1.21 2.78 2.44 5.54 3.61 8.34 1.88.39 3.76.78 5.63 1.22-3.04-3.23-6.07-6.46-9.24-9.56m-11.12.95c-.24 5.39-.6 10.78-.98 16.17-.45 1.94 1.09 3.42 1.91 4.98.49-.77 1.48-2.31 1.98-3.08.05-6.04-.59-12.08-.9-18.11l-2.01.04m-6.38 10.13c1.02 1.45 2.06 2.87 3.13 4.28.2-4.16.23-8.33.15-12.5-1.24 2.68-2.23 5.47-3.28 8.22m11.65 4.38c1.08-1.46 2.14-2.95 3.14-4.47-1.15-2.64-2.12-5.36-3.33-7.98-.15 4.15.17 8.3.19 12.45z"/>
</svg>
