<svg width="128pt" height="128pt" viewBox="0 0 128 128" xmlns="http://www.w3.org/2000/svg">
    <g fill="#fff">
        <path d="M63.64 13.34c2.81 3.95 5.69 7.85 8.24 11.97-.61.02-1.84.05-2.45.07-2-2.73-3.8-5.6-5.69-8.4-1.99 2.96-3.96 5.91-5.95 8.86-.46-.24-1.38-.73-1.84-.97 2.29-4.02 5.27-7.59 7.69-11.53zM48.2 26.76c1.5.89 3 1.78 4.5 2.68.94-1.46 1.64-3.48 3.93-2.76-.61 1.42-1.24 2.83-1.89 4.22.68.37 2.04 1.12 2.72 1.5-1.08 1.65-2.15 3.3-3.22 4.96-.65-3.25-1.71-6.7-5.01-8.15-1.16 3.33.45 6.4 2.21 9.15-.64-.11-1.93-.34-2.58-.46-.72-.11-2.18-.33-2.91-.44.18-.86.53-2.56.7-3.41-1.13-.24-2.27-.46-3.41-.67.07-.56.2-1.66.27-2.21.85.17 2.55.5 3.4.66.51-1.67.9-3.37 1.29-5.07zm23.58-.72c1.19.98 2.28 2.06 3.3 3.21 1.38-.94 2.77-1.86 4.17-2.77.38 1.67.75 3.34 1.15 5 .88-.1 2.63-.32 3.51-.42 2.18 2.1-1.64 2.43-2.83 2.87.11.9.34 2.7.46 3.6-.72.08-2.14.26-2.85.35-.65.09-1.95.28-2.6.37l.73-1.32c1.62-2.32 2.43-5.03 1.45-7.79-1.05.66-2.09 1.33-3.12 2-.63 2.01-1.29 4.01-1.85 6.04-.59-.83-1.19-1.66-1.78-2.49-.52-.71-1.04-1.43-1.55-2.14.98-.64 1.96-1.28 2.95-1.92-.37-.64-1.11-1.93-1.48-2.58l.34-2.01zm-43.79 2.37c4.59.75 9.14 1.64 13.72 2.41-.21.69-.45 1.37-.73 2.04-3.53-.47-7-1.33-10.53-1.88.72 3.48 1.4 6.96 2.14 10.43-.56.1-1.7.29-2.27.39-.65-4.49-1.65-8.91-2.33-13.39zm58.22 2.12c4.46-.87 8.92-1.69 13.4-2.47-.69 4.59-1.76 9.11-2.38 13.71-.54-.12-1.61-.35-2.15-.47.59-3.58 1.32-7.13 2-10.69-3.55.69-7.1 1.41-10.66 2.1-.05-.54-.16-1.64-.21-2.18zm-29.62 6.88c.14-.16.41-.49.55-.65.81 2.12 1.66 4.23 2.48 6.34.03.96.05 1.92.06 2.89-.99-2.88-2.11-5.7-3.09-8.58zm14.12-1.22c.04 3.12-1.45 5.94-2.35 8.85-.12-.38-.34-1.14-.46-1.53.96-2.43 1.78-4.92 2.81-7.32zm-25.59 3.6c.21-.3.61-.89.81-1.19 1.8-.49 2.26 2.57.61 2.93l-1.42-1.74zm35.53 1.19c-2.31-2.05 2.97-3.46 1.57-.55-.39.14-1.18.41-1.57.55zM49.5 39.2c1.51 2.92 2.88 5.91 4.12 8.96-.59-.7-1.17-1.41-1.71-2.15-.94-2.19-2.4-4.34-2.41-6.81zm27.89.92c.21.09.64.28.86.37-.68 1.47-1.3 2.96-1.98 4.43-.63 1.17-1.34 2.28-2.1 3.37.91-2.78 2.14-5.45 3.22-8.17zm-46.63 3.55c2.65-1.07 2.52 1.54 2.94 3.27 2.05-.32 4.11-.54 6.16-.82l.04.04c.35.31 1.06.94 1.41 1.26l-1.91-.19c-.6.53-1.78 1.59-2.37 2.12.89.16 1.78.28 2.69.34l-.63.59c2.84 0 5.4 1.29 7.92 2.44.24.35.73 1.04.97 1.38-1.87-.87-3.72-1.77-5.56-2.69-.03.71-.09 1.42-.1 2.14l-.35.28c-2.86-1.89-6.07-3.12-9.17-4.54-1.5.24-2.84-.45-4.09-1.16l2.79-.49c-.19-.99-.56-2.98-.74-3.97zm63.83-.32c3.36-.81 1.56 2.48 1.82 4.07 1.63.28 3.26.57 4.89.87-.93 1.51-1.88 3.01-2.81 4.52l3.33 2.1c-1.07 2.86-2.93.75-4.44-.22-.69 1-1.38 2-2.07 3.01l-.75-.57c-1.14-.85-2.33-1.74-3.74-2.11-3.02.46-5.84 1.82-8.87 2.27 4.93-1.47 9.91-2.87 14.64-4.91.52-.7 1.56-2.11 2.08-2.81-.9-.2-2.7-.58-3.6-.77-1.87.94-3.74 1.89-5.6 2.86l.38-1.54.31-1.33c.09-.68.27-2.03.37-2.7 1.2.25 2.4.5 3.61.74.11-.87.33-2.61.45-3.48z"/>
        <path d="M88.1 45.21c3.21.62-.76 4.39-1.65 1.39.41-.35 1.23-1.04 1.65-1.39zm-60.25 2.5c1.08 1.47 1.83 3.13 2.84 4.64 1.85 1.24 4.14 1.62 6.2 2.43-.6.41-1.78 1.23-2.38 1.64-.48.36-1.44 1.09-1.92 1.46-.74-.88-1.46-1.79-2.15-2.7-.7.4-2.1 1.22-2.79 1.62-2.92-.88.35-2.76 1.36-3.74-.59-1.78-3.3-3.41-1.16-5.35zm54.62 4.06c2.03-.95 4.07-2.1 6.37-2.23-2.91 1.77-6.02 3.17-9.21 4.32.92-.73 1.85-1.45 2.84-2.09zm-19.28 1.47c1.44-1.12 2.26 1.47 1.24 2.31-1.44 1.24-2.56-1.51-1.24-2.31zm-8.73 2.44c-.3-.65.97-1.89 1.29-.83.82 1.43 1.89 2.7 2.85 4.03-1.45-.96-2.98-1.89-4.14-3.2zm15.2 2.66c.79-1.24 2.6-5.77 4.02-2.7-1.2 1.1-2.42 2.21-4.02 2.7zm-56.46 6.1c3.9-2.95 7.91-5.75 12.08-8.31-.01.63-.03 1.88-.03 2.51-2.83 1.84-5.57 3.81-8.36 5.71 2.84 1.98 5.87 3.7 8.57 5.86l-.1 1.14-1.13.49c-3.72-2.39-7.25-5.08-11.03-7.4zm22.22-7.63c2.19.03 4.21.88 6.19 1.71 1.12.44 2.25.87 3.38 1.3-.34.09-1.02.28-1.37.37-2.78-1.01-5.53-2.09-8.2-3.38zm47.3 3.05c2.73-.83 5.53-3.22 8.48-2.02-2.58.28-4.97 1.36-7.39 2.21-.27-.04-.82-.14-1.09-.19zm19.31-2.14c.37-.38 1.12-1.14 1.49-1.51 3.49 2.38 7.01 4.73 10.46 7.16l-.32 1.16c-3.35 2.4-6.75 4.73-10.09 7.14-.46-.39-1.37-1.17-1.82-1.56 3.11-2.1 6.23-4.2 9.37-6.27-3.02-2.05-6.1-4.03-9.09-6.12zm-69.09 1.31c1.17-1.53 2.94-.31 2.76 1.35l-1.69-.2-1.07-1.15zm59.53-.86c.33-.03 1-.08 1.33-.1 1.71.33.75 2.84-.77 2.37l-.81-.31c.06-.49.18-1.47.25-1.96zm-41.82 6.01c1.17-.72 2.51-.91 3.86-.74.31.35.93 1.03 1.24 1.37-1.01-.15-2.01-.34-3-.57-.53-.01-1.57-.04-2.1-.06zm21.85-.74c1.61.3 3.23.57 4.86.3-1.6.48-3.25.75-4.9.96l.04-1.26zm-39.09 6.48c-.47-1.35-.03-2.15 1.33-2.41l.82.19c1.24 1.25-.96 3.78-2.15 2.22zm9.4-1.52c.84-.03 1.69-.06 2.53-.07-2.94 1.11-5.92 2.12-8.75 3.49 1.43-2.03 4.12-2.39 6.22-3.42zm39.32-.24c.33-.09.97-.27 1.3-.36 2.63.76 5.16 1.81 7.68 2.87-.16.21-.47.61-.63.81-2.74-1.21-5.53-2.3-8.35-3.32z"/>
        <path d="M91.65 67.87l1.44.38.84.21c1.25 1.39 2.37 2.87 3.33 4.47 1.45-.62 2.83-1.61 4.51-1.41-.66 1.38-1.74 2.46-2.71 3.6.47 1.6 1.51 2.96 2.26 4.43-1.67.32-3.33.64-4.99.97.21.9.43 1.79.65 2.69-.29.82-.88 2.47-1.17 3.29l1.7-.22c.82 4.48 1.69 8.95 2.44 13.45-4.57-.77-9.11-1.64-13.69-2.33l.18-1.34c-1.89.35-3.8.58-5.72.66-.48 1.57-.75 3.2-1.09 4.81-1.41-.96-2.83-1.9-4.25-2.83-1.21.98-1.73 3.93-3.9 2.6-.04-1.52 1.23-2.64 1.81-3.95l-2.32-1.44c-.83-.69-1.74-1.26-2.58-1.94-.14-.57-.43-1.71-.57-2.28 1.11 1.07 2.22 2.12 3.31 3.21l1.08-2.16.68-1.71c-.73-4.02-2.71-7.73-3.45-11.77 1.99 5.52 3.78 11.12 5.83 16.62.53 1.52 2.18 2.16 3.29 3.18.94-3.06-.03-5.98-1.69-8.58l1.45-.56 2.29.85c.06-1.2.06-2.41.06-3.61.46.22 1.39.68 1.85.91-.59 1.86-.98 3.77-1.31 5.69 1.32.63 2.63 1.28 3.93 1.96 4.19-.63 8.27.84 12.33 1.61-.74-4.01-2.09-8-1.73-12.13-.56-1.32-1.13-2.63-1.73-3.93-1.21.09-2.38.34-3.57.54-.06-.66-.2-1.98-.26-2.64-.24-.98-.5-1.96-.76-2.93-3.61-1.46-7.12-3.15-10.53-5.02l.31-.11c4.61 2.3 9.27 4.51 13.85 6.87 1.83 1.12 3.96.75 5.97.46-1.6-3.2-4.98-4.23-8.15-5.2.69-.39 2.07-1.18 2.76-1.57l1.31-.68c-1.13-1.01-2.21-2.07-3.29-3.12zm-36.32 3.35c.09-1.31 2.79-2.29 2.83-.49-.16 1.28-2.77 2.34-2.83.49zm14.6-1.33c1.9-.55 2.72 2.43 2.56 3.88-1.43-.14-3.5-2.36-2.56-3.88zm-37.54.71c1.09.63 2.14 1.35 3.19 2.05.45.29 1.35.88 1.8 1.17-3.36.59-6.86 1.65-8.51 4.93 3.32 1.08 6.42-.42 9.26-2.01l-.56 1.94c.06 1.26.65 2.4 1.11 3.56l.64-1.61c.47.21 1.4.64 1.87.85-.42.2-1.25.59-1.67.78-1.85.35-3.69-.75-5.53-.89-1.93 5.19-1.75 10.86-3.22 16.2 3.52-.69 7.03-1.41 10.55-2.11.07.56.21 1.68.29 2.23-4.45.78-8.89 1.6-13.35 2.36 1.3-4.39.65-9.54 3.13-13.42.01-1.93.07-3.86.05-5.78-1.61-.4-3.25-.69-4.89-.97.9-1.57 1.83-3.11 2.76-4.66-1.61-.89-3.63-1.63-2.62-4.01 1.32.66 2.61 1.36 3.91 2.05.45-.67 1.34-2 1.79-2.66zm31.12 1.42c1.3 1.86.39 4.13.56 6.21-.43-2.04-.65-4.12-.56-6.21z"/>
        <path d="M38.64 78.54c3.14-1.53 6.31-3 9.52-4.38-.69.64-1.38 1.29-2.09 1.9-2.36 1.11-4.76 2.43-7.43 2.48zm41.19-4.15c3.04 1.17 6.08 2.41 8.87 4.1-2.33-.7-4.6-1.59-6.84-2.56-.69-.49-1.36-1.02-2.03-1.54zm-28.17 8.55c.63-1.12 1.32-2.19 2.05-3.24-1.16 3.26-2.63 6.4-4.1 9.53.47-2.16 1.18-4.26 2.05-6.29zm22.41-3.22c.73.9 1.46 1.8 2.13 2.75.91 2.2 2.32 4.39 2.11 6.87-1.62-3.11-3.08-6.31-4.24-9.62zm12.82.49c.63.19 1.9.59 2.54.78-.37.47-1.09 1.39-1.46 1.85-1.08-.63-1.44-1.5-1.08-2.63z"/>
        <path d="M59.67 82.82c.1.26.3.77.41 1.03-.61 2.49-1.68 4.83-2.51 7.25-.72.6-1.44 1.2-2.14 1.81.82.95 1.64 1.89 2.46 2.84l-2.79 1.53c.58 1.46 1.38 2.86 1.53 4.45-1.61-.46-2.76-1.62-3.79-2.85-1.42.91-2.84 1.84-4.25 2.78l-1.11-5.1c-1 .18-2.99.55-3.99.73-1.13-2.73 1.55-2.51 3.29-2.95-.55-2.11.18-4.6-1.3-6.37.7-.32 1.41-.64 2.11-.96-.26.51-.79 1.54-1.06 2.05.47.55.95 1.1 1.43 1.65l1.2-.4 2.59-.84c-1.45 3.03-3.23 6.12-2.3 9.61 1.1-.73 2.19-1.46 3.28-2.2.74-1.97 1.05-4.14 2.2-5.92.28.25.85.77 1.13 1.02 1.36-2.99 2.44-6.09 3.61-9.16zm8.24 1.05c.05-.25.13-.74.17-.99 1.12 2.75 2.26 5.52 2.83 8.45-1.3-2.36-2.08-4.95-3-7.46z"/>
        <path d="M58.12 93.86c.21-1.35.95-1.76 2.2-1.2-.04.33-.13 1-.18 1.34-.74 1.01-1.41.96-2.02-.14zm-1.73 9.8c.37-.42 1.12-1.28 1.49-1.7 2.04 3.09 4.19 6.1 6.36 9.09 1.94-2.82 3.74-5.74 5.81-8.46l1.44.08.19 1.08c-2.24 3.77-5.02 7.19-7.33 10.92-2.94-3.46-5.24-7.39-7.96-11.01z"/>
    </g>
    <path fill="#171717" opacity=".09" d="M57.46 32.4l2.37 1.38c-1.44-.14-2.04.53-1.8 2.01l-.89.97c-.14.16-.41.49-.55.65.98 2.88 2.1 5.7 3.09 8.58-.01-.97-.03-1.93-.06-2.89.15-2.54.32-5.08.53-7.62l.17-.94c4.19 2.7 2.29 8.56 3.07 12.73.47-1.84.93-3.68 1.46-5.5.24.37.71 1.12.95 1.49.24-2.57.44-5.16.25-7.74.57-.42 1.7-1.27 2.27-1.7-.13.39-.39 1.15-.52 1.53-.67 2.7-1.03 5.53.1 8.16.12.39.34 1.15.46 1.53.9-2.91 2.39-5.73 2.35-8.85.2-.37.61-1.12.81-1.5.59.83 1.19 1.66 1.78 2.49-.89 3.37-1.71 6.76-2.45 10.17 1.89-3.53 3.61-7.17 5.97-10.42l-.73 1.32c.65-.09 1.95-.28 2.6-.37l.12 2.85-.56-.24c-.22-.09-.65-.28-.86-.37-1.08 2.72-2.31 5.39-3.22 8.17.76-1.09 1.47-2.2 2.1-3.37 2.17-.42 3.21-2.32 4.38-3.94.39-.14 1.18-.41 1.57-.55.17.63.49 1.88.65 2.51-1.82 2.93-4.64 5.1-6.35 8.12 3.86-2.07 6.57-7.21 11.58-5.85-.42.35-1.24 1.04-1.65 1.39-1.64 1.46-3.95 2.68-3.98 5.17-.99.64-1.92 1.36-2.84 2.09 3.19-1.15 6.3-2.55 9.21-4.32.33-.19.99-.56 1.32-.75l-.31 1.33c-2.09 3.7-6.92 4.08-9.36 7.45l1.46-.28c3.03-.45 5.85-1.81 8.87-2.27 1.41.37 2.6 1.26 3.74 2.11l-.76.94c-.33.02-1 .07-1.33.1l-1.27-.33c-2.95-1.2-5.75 1.19-8.48 2.02.27.05.82.15 1.09.19 2.76.68 5.62.59 8.41.08l.81.31c-.48.92-.69 2.37-2.01 2.37-3.31.5-6.67.41-10 .51 1.01.54 2.03 1.08 3.04 1.63-1.05.18-2.09.38-3.13.6 3.99.53 8.01.7 12.03.72.04.49.1 1.48.13 1.98l-1.44-.38c-2.68-1.01-5.56-1.31-8.22-.07-.33.09-.97.27-1.3.36 2.82 1.02 5.61 2.11 8.35 3.32.16-.2.47-.6.63-.81.83.35 1.67.68 2.52 1-.69.39-2.07 1.18-2.76 1.57-3.17-1.08-6.31-2.31-9.61-2.92l-2.06.79-.31.11c3.41 1.87 6.92 3.56 10.53 5.02.26.97.52 1.95.76 2.93l-1.48-.68c-2.79-1.69-5.83-2.93-8.87-4.1.67.52 1.34 1.05 2.03 1.54 1.21 1.91 2.84 3.54 5.03 4.28-.36 1.13 0 2 1.08 2.63-5.37.79-7.4-5.84-12.27-6.91l-1.16-.53c.99 3.07 2.89 5.8 6.13 6.76 2.15 1.31 3.01 3.54 1.85 5.91-.46-.23-1.39-.69-1.85-.91-.63-2.11-1.83-4.9-4.47-4.69-.67-.95-1.4-1.85-2.13-2.75 1.16 3.31 2.62 6.51 4.24 9.62l.01.58-1.45.56c-2.3-3.83-2.75-9.39-7.43-11.22.74 4.04 2.72 7.75 3.45 11.77l-.68 1.71c-.33-.35-.98-1.06-1.3-1.41-.57-2.93-1.71-5.7-2.83-8.45-.04.25-.12.74-.17.99-.58 2.56-.83 5.25-.09 7.82.14.57.43 1.71.57 2.28-.61-.28-1.85-.84-2.47-1.12-.72-3.92-1.04-7.91-1.34-11.88-.5 1.41-1.01 2.82-1.54 4.22-.13-.85-.38-2.56-.51-3.41-.52 3.52-.93 7.09-.51 10.64-.47.4-1.41 1.19-1.88 1.58.05-.34.14-1.01.18-1.34.39-2.93 1.44-6.08-.24-8.81-.11-.26-.31-.77-.41-1.03-1.17 3.07-2.25 6.17-3.61 9.16-.28-.25-.85-.77-1.13-1.02.91-3.84 2.87-7.48 2.79-11.51-.38-.14-1.13-.42-1.5-.56-1.99 3.18-3.43 6.66-4.35 10.29l-.12.29-2.59.84.45-1.08c1.47-3.13 2.94-6.27 4.1-9.53-.73 1.05-1.42 2.12-2.05 3.24-1.88.77-3.32 2.18-4.07 4.07-.7.32-1.41.64-2.11.96-.04-.66-.11-1.96-.14-2.61 2.11-2.82 4.61-5.35 6.51-8.32l-.28-1.64c-3.91 1.4-6.82 4.49-8.92 7.96l-.21.3c-.97-.47-1.94-.93-2.92-1.4.42-.19 1.25-.58 1.67-.78 2.52-.83 3.92-3.1 4.88-5.42.71-.61 1.4-1.26 2.09-1.9-3.21 1.38-6.38 2.85-9.52 4.38l-1.07.14.56-1.94c3.21-1.73 6.47-3.41 9.34-5.68-3.4.79-6.67 2.05-10.09 2.76-.45-.29-1.35-.88-1.8-1.17.25-.2.76-.62 1.01-.83 2.83-1.37 5.81-2.38 8.75-3.49-.84.01-1.69.04-2.53.07-2.42-.13-4.85-.34-7.25-.7l-.82-.19c.35-.41 1.07-1.22 1.42-1.62 3.58-.9 7.31-.76 10.95-1.26-2.45-.44-4.91-.87-7.34-1.47 1.45-.18 2.9-.42 4.34-.66-2.99-.43-6.01-.69-9.02-.87-.27-.37-.81-1.09-1.08-1.45l1.69.2c2.62.91 5.36.92 7.92-.19.35-.09 1.03-.28 1.37-.37-1.13-.43-2.26-.86-3.38-1.3 1.16-2.98 4.24-1.01 6.5-.81-2.04-1.31-4.11-2.56-6.14-3.88l.35-.28c.01-.72.07-1.43.1-2.14 1.84.92 3.69 1.82 5.56 2.69-.24-.34-.73-1.03-.97-1.38-1.29-2.36-3.35-4.07-5.7-5.3-.35-.32-1.06-.95-1.41-1.26.66-.2 1.98-.59 2.64-.78 3.19 2.27 5.81 5.36 9.51 6.87-2.72-3.93-8.29-6.89-6.93-12.46l1.42 1.74c1.53 1.79 3.11 3.61 5.37 4.48.54.74 1.12 1.45 1.71 2.15-1.24-3.05-2.61-6.04-4.12-8.96-.16-.33-.48-.98-.64-1.3.65.12 1.94.35 2.58.46 2.08 3.24 3.74 6.72 5.7 10.03-.84-3.71-2.01-7.34-2.9-11.03 1.07-1.66 2.14-3.31 3.22-4.96m5.74 18.82c.24 3.32 2.95-1.6 0 0m-.01 2.02c-1.32.8-.2 3.55 1.24 2.31 1.02-.84.2-3.43-1.24-2.31m-8.73 2.44c1.16 1.31 2.69 2.24 4.14 3.2-.96-1.33-2.03-2.6-2.85-4.03-.32-1.06-1.59.18-1.29.83m15.2 2.66c1.6-.49 2.82-1.6 4.02-2.7-1.42-3.07-3.23 1.46-4.02 2.7m-19.01 5.84c.53.02 1.57.05 2.1.06.99.23 1.99.42 3 .57-.31-.34-.93-1.02-1.24-1.37-1.35-.17-2.69.02-3.86.74m11.48.54c1.02 2.08 4.21.72 3.67-1.46-1.28-.42-2.59-.47-3.93-.16-1.45.72-1.36 1.27.26 1.62m10.37-1.28l-.04 1.26c1.65-.21 3.3-.48 4.9-.96-1.63.27-3.25 0-4.86-.3m-17.17 7.78c.06 1.85 2.67.79 2.83-.49-.04-1.8-2.74-.82-2.83.49m14.6-1.33c-.94 1.52 1.13 3.74 2.56 3.88.16-1.45-.66-4.43-2.56-3.88m-6.42 2.13c-.09 2.09.13 4.17.56 6.21-.17-2.08.74-4.35-.56-6.21z"/>
    <path fill="#8d8d8d" opacity=".55" d="M58.03 35.79c-.24-1.48.36-2.15 1.8-2.01l.49.76-.17.94c-.53.08-1.59.23-2.12.31z"/>
    <path fill="#b7b7b7" opacity=".72" d="M68.32 33.82l.76.17c-.11.39-.34 1.17-.45 1.57l-.83-.21c.13-.38.39-1.14.52-1.53z"/>
    <path fill="#2b2b2b" opacity=".17" d="M65.29 34.55l.76.97c.19 2.58-.01 5.17-.25 7.74-.24-.37-.71-1.12-.95-1.49-.28-2.41.14-4.83.44-7.22z"/>
    <path fill="#5c5c5c" opacity=".36" d="M63.2 51.22c2.95-1.6.24 3.32 0 0z"/>
    <path opacity=".22" d="M35.09 61.63c3.01.18 6.03.44 9.02.87-1.44.24-2.89.48-4.34.66-1.6.05-3.19-.09-4.79-.17l.11-1.36zm27.04 3.09c-1.62-.35-1.71-.9-.26-1.62.07.41.2 1.22.26 1.62z" fill="#373737"/>
    <path fill="#313131" opacity=".2" d="M80.93 65.55c1.04-.22 2.08-.42 3.13-.6 2.96-.33 5.95.03 8.91.15l-.01 1.17c-4.02-.02-8.04-.19-12.03-.72z"/>
    <path fill="#0b0b0b" opacity=".04" d="M83.43 67.8c2.66-1.24 5.54-.94 8.22.07 1.08 1.05 2.16 2.11 3.29 3.12l-1.31.68c-.85-.32-1.69-.65-2.52-1-2.52-1.06-5.05-2.11-7.68-2.87z"/>
    <path fill="#303030" opacity=".19" d="M42.65 83.36c2.1-3.47 5.01-6.56 8.92-7.96-2.49 3.13-5.36 6.06-8.92 7.96z"/>
    <path fill="#2d2d2d" opacity=".18" d="M74.54 75.4l1.16.53c1.68 2.05 3.23 4.22 4.97 6.23-3.24-.96-5.14-3.69-6.13-6.76z"/>
    <path fill="#434343" opacity=".26" d="M56.22 78.89c.37.14 1.12.42 1.5.56-2.12 3.15-3.34 6.85-5.85 9.73.92-3.63 2.36-7.11 4.35-10.29z"/>
    <path fill="#414141" opacity=".25" d="M62.02 92.42c-.42-3.55-.01-7.12.51-10.64.13.85.38 2.56.51 3.41.2 2.76-.01 5.53-.25 8.29l-.77-1.06z"/>
</svg>
