<svg width="128pt" height="128pt" viewBox="0 0 128 128" xmlns="http://www.w3.org/2000/svg">
    <path fill="#9c2421" d="M63.42 13.61c3.27 3.25 5.41 7.39 8.29 10.96 3.77-2.57 7.64-4.98 11.53-7.35 1.06 4.38 1.97 8.8 2.97 13.2.1.52.3 1.55.39 2.07.21 1.28.41 2.57.6 3.86 1.67-.23 3.34-.47 5.01-.7-.2 1.76-.39 3.53-.57 5.3.88.03 2.65.07 3.53.1l.32-1.52c.63.71 1.26 1.43 1.89 2.14 4.49.91 8.93 2.01 13.42 2.91-2.24 4-5.58 7.47-6.82 11.97 3.3 2.22 6.69 4.31 9.84 6.74-.06.33-.19.99-.25 1.32-3.33 2.56-6.91 4.77-10.29 7.27 2.59 3.79 5.01 7.7 7.53 11.54-4.39 1.04-8.78 2.08-13.22 2.87l-1.91.36c-1.85.34-3.62.99-5.17 2.06-1.23-1.57-2.5-3.12-3.96-4.48l4.17-.2c.25.19.74.57.98.76 1.07.01 2.13-.03 3.19-.12 2.48-.39 4.93-.95 7.41-1.4.47-.06 1.42-.2 1.9-.27 1.83.3 4.07-1.42 2.04-2.98-1.74-2.17-3.29-4.48-4.79-6.81-.32-.49-.96-1.48-1.28-1.97-.62-.95-1.23-1.9-1.84-2.85-.91.6-1.82 1.19-2.73 1.77-1.8 1.09-3.68 2.06-5.56 3.02-3.52-1.13-7-2.41-10.58-3.33.17-1.75.48-3.48.83-5.2 1.15.14 2.31.27 3.47.4 5.08.58 10.22 1.31 15.33.68.61-.4 1.84-1.2 2.45-1.6-.68-.47-2.05-1.42-2.74-1.89-2.75-.46-5.66-.66-7.92-2.5h4.42c-1.44-.78-2.86-1.59-4.26-2.43-2.26.9-4.51 1.82-6.81 2.57-1.56.04-3.1-.1-4.64-.27-.04-.29-.1-.89-.14-1.18 3.5-1.23 6.99-2.47 10.5-3.68 1.84 1.05 3.68 2.09 5.5 3.19.95.57 1.9 1.16 2.85 1.74l1.96-2.92c.4-.62.8-1.23 1.19-1.85 1.52-2.44 3.11-4.82 4.89-7.08 2.42-2.59-2.3-3.1-4.08-2.95l-1.01-.17c-2.17-.41-4.32-.91-6.48-1.33-1.3-.11-2.72-.52-3.9.26l-.64.27c-.9-.04-2.71-.13-3.61-.17 2.13-1.62 4.21-3.89 3.03-6.78-1.83 1.12-3.69 2.27-5.13 3.9-.44-1-.88-1.99-1.35-2.97l-.38-.69c.53-.14 1.58-.41 2.11-.54-.11-1.18-.24-2.36-.41-3.54-.36-2.16-.82-4.31-1.29-6.45-.41-1.95-.85-3.9-1.28-5.85-2.5 1.48-5.01 2.97-7.45 4.55-1.18.75-2.35 1.52-3.51 2.3-.83.56-1.67 1.12-2.51 1.66l-.24.59c-1.53 3.31-2.52 6.85-3.04 10.46.15-3.46.53-6.93.41-10.4-.01-1.33-.8-3.11-2.39-2.78-.82 1.35-1.05 2.93-1.17 4.47-.59.43-1.77 1.28-2.36 1.7-.03.03-.09.07-.12.09l.13.01c.04.59.13 1.75.18 2.33-1.1-.33-2.19-.66-3.29-.98.45-.78.9-1.55 1.34-2.33 1.4-1.94.96-3.93-1.24-4.93-.67-.44-1.37-.84-2.06-1.26-2.39-1.37-4.7-2.89-6.81-4.67-1.67-2.19-3.41.26-2.87 2.2l-.2 1.94c-.27 2.07-.59 4.13-.96 6.17l-.32 1.23-.99 3.72c.36.07 1.08.21 1.44.29 2.45.52 4.94.81 7.43 1.02.56 1.11 1.13 2.22 1.67 3.34-.4.81-1.21 2.42-1.61 3.23-.73-1.65-1.51-3.27-2.29-4.89-1.27-.22-2.54-.44-3.81-.67 1.33 1.38 2.65 2.76 3.95 4.17l-1.63 2.79c-2.82-2.97-4.99-6.72-8.72-8.68l-1.85-.32c-.35 1.21-.29 2.76.76 3.61 1.15 1.06 2.33 2.09 3.5 3.11-1.55-.19-3.1-.37-4.66-.54-1.07-.1-2.14-.17-3.21-.21l-.01.57c-.52.05-1.57.16-2.09.21-3.81.34-7.52 1.24-11.21 2.18.36.48.71.96 1.06 1.45 1.82 2.45 3.6 4.93 5.3 7.46.31.49.92 1.47 1.23 1.97.53.91 1.06 1.83 1.57 2.75-.17.82-.34 1.64-.5 2.45-.65.52-1.96 1.56-2.62 2.07.69.48 2.06 1.44 2.74 1.92l-1.94.18c-1.29-.65-2.53-1.39-3.78-2.13 1.38-1.04 2.76-2.08 4.15-3.11-.39-.69-1.17-2.07-1.57-2.76-.4-.69-.82-1.37-1.25-2.04-2.62-3.8-5.12-7.68-7.48-11.64 4.45-.91 8.86-1.95 13.26-3.05.58-.11 1.74-.31 2.32-.42.46-.07 1.37-.22 1.83-.3l1.68-.24c-.19-1.66-.39-3.31-.59-4.96.69.05 2.07.16 2.76.21.57.14 1.73.42 2.31.57.37-1.96.71-3.92 1.04-5.88.69-4.53 1.74-8.99 2.89-13.42 3.82 2.49 7.66 4.95 11.47 7.46 2.36-3.75 5.01-7.31 7.43-11.03m.16 3.49c-1.85 2.92-3.81 5.77-5.66 8.69.7.5 2.11 1.5 2.82 1.99.93-1.36 1.86-2.73 2.81-4.09 1.21 1.27 2.37 2.59 3.41 4.01.69-.45 2.07-1.34 2.76-1.79-1.91-3.03-3.97-5.96-6.14-8.81m38.62 40.89c-.66 1.01-1.32 2.02-1.98 3.02 1.17 1.15 3.45 1.66 3.59 3.53-1.14.94-2.36 1.77-3.55 2.63.64.89 1.29 1.78 1.93 2.68 2.95-1.98 5.86-4.03 8.74-6.11-2.92-1.9-5.8-3.87-8.73-5.75M84.56 68.27c1.9.82 3.81 1.62 5.78 2.26.02 0 .07.01.09.01.75-.13 2.24-.41 2.98-.55l-1.49-2.06c-2.46.07-4.91.17-7.36.34z"/>
    <path fill="#2e0a09" opacity=".58" d="M44.92 23.83c-.54-1.94 1.2-4.39 2.87-2.2-.74.98-1.83 1.58-2.87 2.2z"/>
    <path d="M70.96 27.67c1.16-.78 2.33-1.55 3.51-2.3-.1 1.33-.12 2.66-.16 3.98 1.61-.94 3.22-1.89 4.83-2.84.53 1.78 1.05 3.56 1.58 5.35.7-.29 2.11-.86 2.81-1.14-.03-1.36-.14-2.71-.33-4.05.47 2.14.93 4.29 1.29 6.45l-3.34.78c.08.64.25 1.91.33 2.55l1.31.75.38.69c-2.27.01-4.54.03-6.81.04 1.45-2.61 2.5-5.47 2.08-8.51-3.59 1.11-4.19 4.94-5.27 8-1.08-1.64-2.16-3.28-3.26-4.9.98-.62 1.96-1.23 2.94-1.84-.63-1.01-1.26-2.01-1.89-3.01zM54.6 26.3c.69.42 1.39.82 2.06 1.26-.63 1.11-1.25 2.22-1.87 3.33 1.04.53 2.07 1.07 3.11 1.6-.44.78-.89 1.55-1.34 2.33-.65 1.28-1.2 2.6-1.75 3.92-1.15-3.54-1.9-7.75-5.76-9.33-.09 3.1.69 6.12 2.27 8.79-2.49-.21-4.98-.5-7.43-1.02l1.34.23c.58-.97 1.12-1.96 1.66-2.96-1.15-.43-2.3-.86-3.45-1.28l.32-1.23c1.1-.13 2.21-.26 3.32-.38.33-1.62.66-3.25.99-4.88 1.43.83 2.86 1.67 4.28 2.52.75-.96 1.5-1.93 2.25-2.9zm31.61 4.12c4.48-.87 8.97-1.76 13.49-2.39-.75 4.55-1.62 9.08-2.32 13.64-.63-.71-1.26-1.43-1.89-2.14l.44-2.52c.35-2.08.62-4.17.92-6.25-2.68.59-5.38 1.12-8.1 1.47-.54.06-1.61.19-2.15.26-.09-.52-.29-1.55-.39-2.07zM32.36 70.45c1.64 1.07 3.31 2.1 4.97 3.13-3.25.93-6.53 2.22-8.41 5.23 3.23.3 6.4-.42 9.13-2.18-.28 1.8-.56 3.6-.87 5.4-1.1-.2-2.2-.4-3.31-.6l-.64 3.24c-.56-.14-1.67-.41-2.23-.54.21-.99.42-1.98.63-2.96-1.69-.42-3.39-.83-5.09-1.22.92-1.75 1.83-3.51 2.72-5.27-1.29-.07-2.58-.21-3.86-.35.32-.52.64-1.03.97-1.54l1-1.48c1.1.61 2.21 1.22 3.31 1.83.56-.89 1.12-1.79 1.68-2.69zM31.07 86.7l1.73.3c-.11.73-.35 2.19-.47 2.92-.43 2.51-.88 5.02-1.29 7.54 3.02-.69 6.05-1.35 9.06-2.05l.46.9c.25.5.49 1 .72 1.51-4.35.88-8.73 1.61-13.09 2.42 1-4.48.92-9.35 2.88-13.54zm14.13 4.27c2.22-.41 4.43-.85 6.64-1.3-1.62 2.93-3.03 6.09-2.27 9.52 1.36-1.19 2.73-2.41 3.8-3.89l2.18.08c.29-.38.85-1.12 1.13-1.49.31.52.92 1.57 1.23 2.1-.96.45-1.93.9-2.89 1.35.6.99 1.2 1.98 1.81 2.97-.49.31-1.46.92-1.94 1.23-.63-.85-1.26-1.7-1.89-2.54-1.46.9-2.91 1.8-4.37 2.71-.41-1.5-.81-3.01-1.22-4.51-.8-.05-2.39-.16-3.19-.21.14 1.77.29 3.55.5 5.32-.58-2.46-1.14-4.92-1.55-7.4.98-.18 2.92-.53 3.9-.7-.62-1.09-1.24-2.17-1.87-3.24zM73.27 90c1.32 3.17 1.55 7.76 5.73 8.41.02-3.01-.92-5.87-2.49-8.42 1.77.29 3.53.58 5.29.87-.44 2.15.26 3.74 2.54 4.3-.07.41-.23 1.22-.3 1.62-.82-.03-2.46-.1-3.28-.14-.31 1.55-.62 3.1-.92 4.65-1.51-.73-3.02-1.46-4.54-2.17l-2.17 2.56c-.46-.31-1.39-.91-1.85-1.22.61-1.04 1.21-2.07 1.82-3.1-.99-.6-1.98-1.2-2.97-1.79 1.08-1.84 2.11-3.7 3.14-5.57z" fill="#711717"/>
    <path fill="#250809" opacity=".51" d="M43.76 31.94c.37-2.04.69-4.1.96-6.17-.14 1.52-.27 3.05-.39 4.58.68.3 2.06.91 2.75 1.21-1.11.12-2.22.25-3.32.38z"/>
    <path opacity=".08" d="M54.79 30.89c.62-1.11 1.24-2.22 1.87-3.33 2.2 1 2.64 2.99 1.24 4.93-1.04-.53-2.07-1.07-3.11-1.6zm13.66-1.56c.84-.54 1.68-1.1 2.51-1.66.63 1 1.26 2 1.89 3.01-.98.61-1.96 1.22-2.94 1.84-.43-.65-1.28-1.95-1.7-2.6l.24-.59zm-26 7.56l.99-3.72c1.15.42 2.3.85 3.45 1.28-.54 1-1.08 1.99-1.66 2.96l-1.34-.23c-.36-.08-1.08-.22-1.44-.29zm2.83 2.32c1.27.23 2.54.45 3.81.67.78 1.62 1.56 3.24 2.29 4.89.14.42.44 1.26.59 1.68-.91-1.03-1.82-2.05-2.74-3.07-1.3-1.41-2.62-2.79-3.95-4.17zm24.07 9.92c.88-3.42 2.08-6.74 3.26-10.06.71.73 1.41 1.46 2.12 2.19-1.6 2.69-2.11 6.66-5.38 7.87zm9.27-9.56c.55 0 1.63.02 2.17.03-.66 3.19-3.65 4.98-5.66 7.28 1.25-2.39 2.38-4.85 3.49-7.31zm-45.2 3.57c1.07.04 2.14.11 3.21.21.13.78.37 2.34.5 3.11l-3.68.36-.04-3.11.01-.57zm57.45.5c1.18-.78 2.6-.37 3.9-.26-.39 1.16-.77 2.32-1.15 3.48-.95-.31-1.9-.63-2.84-.96.02-.56.07-1.69.09-2.26zm-2.45 1.08c-.08 1.45-.09 2.91-.28 4.36-2.27 1.38-4.75 2.37-7.06 3.67 2.03-2.05 3.98-4.23 6.5-5.68l.84-2.35zm-49.26 2.43c3.34.59 5.24 3.66 7.71 5.67-2.58-1.8-7.58-1.76-7.71-5.67zM27.7 56.98c.94-.6 1.88-1.18 2.81-1.77.53.9 1.06 1.81 1.59 2.71-.93.62-1.88 1.22-2.83 1.81-.51-.92-1.04-1.84-1.57-2.75zm69.4-2.16c1.05.64 2.1 1.29 3.16 1.94l-1.96 2.92c-.95-.58-1.9-1.17-2.85-1.74l1.65-3.12zm-12.87 5.06c2.3-.75 4.55-1.67 6.81-2.57 1.4.84 2.82 1.65 4.26 2.43h-4.42c-2.22-.03-4.44.09-6.65.14zM51.9 58.86c1.05-1.25 3.61.21 2.76 1.72-1.04 1.11-3.65-.2-2.76-1.72zm21.56.19c.79-1.44 3.49-.26 2.13 1.19-.83 1.26-3.39.27-2.13-1.19zm7.17 4.28c6.02-.75 12.11-1.01 18.17-1.09.69.47 2.06 1.42 2.74 1.89-.61.4-1.84 1.2-2.45 1.6-5.1-.42-10.21-.71-15.33-.68-1.16-.13-2.32-.26-3.47-.4.08-.33.25-.99.34-1.32zm-28.85 4.94c.79-.97 1.73-1.22 2.83-.73-.1.44-.3 1.32-.41 1.75-.79.9-3.31.53-2.42-1.02zm21.57-.8c1.11-.81 3.19.05 3.11 1.52-.73 1.05-1.67 1.19-2.83.4l-.28-1.92zm-44 .97c1 .68 2 1.35 3.01 2.01-.56.9-1.12 1.8-1.68 2.69-1.1-.61-2.21-1.22-3.31-1.83.66-.96 1.32-1.91 1.98-2.87zm68.98-.05c.61.95 1.22 1.9 1.84 2.85-.97.58-1.93 1.16-2.89 1.75-.57-.95-1.12-1.89-1.68-2.83.91-.58 1.82-1.17 2.73-1.77zm-14.12 10.4c.39-.3 1.16-.88 1.54-1.17l2.6.96c-.02 1.55-.04 3.11-.05 4.66-.17-.58-.51-1.74-.69-2.32-1.11-.74-2.25-1.45-3.4-2.13zm-50.34 2.64c1.11.2 2.21.4 3.31.6l-.48 2.59c-.41.13-1.21.41-1.61.55-.47-.13-1.4-.37-1.86-.5l.64-3.24zM18.59 83.9c3.21.66 6.41 1.34 9.59 2.15-3.33.1-7.06.47-9.59-2.15zM32.8 87l3.12.57c-.21 1.71-.43 3.41-.64 5.13 1.81-.21 3.62-.4 5.43-.58-.05 1.39-.09 2.79-.15 4.19l-.46-.9c-.31-.62-.63-1.24-.94-1.86-1.4-.22-2.79-.45-4.19-.67-.21-1.63-.41-3.26-.61-4.89-.68.65-1.35 1.29-2.03 1.93.12-.73.36-2.19.47-2.92zm22.22 10.34c.96-.45 1.93-.9 2.89-1.35.56.94 1.11 1.88 1.7 2.8-.94.48-1.87.99-2.78 1.52-.61-.99-1.21-1.98-1.81-2.97zm13.29 1.27c.61-1.01 1.22-2.03 1.82-3.04.99.59 1.98 1.19 2.97 1.79-.61 1.03-1.21 2.06-1.82 3.1-.99-.62-1.98-1.24-2.97-1.85z"/>
    <path d="M27.81 28.36c4.62.68 9.2 1.55 13.82 2.24-.33 1.96-.67 3.92-1.04 5.88.01-.91.02-2.71.02-3.61-3.32-.57-6.64-1.18-9.97-1.72.68 3.35 1.33 6.7 1.96 10.05-.58.11-1.74.31-2.32.42-.93-4.4-1.65-8.84-2.47-13.26zm67.87 58.29l1.91-.36c.86 4.48 1.76 8.96 2.37 13.49-2.6-.37-5.2-.71-7.76-1.31-1.94-.44-3.87-.89-5.81-1.36.14-.51.4-1.53.54-2.04 1.06.29 2.12.57 3.19.83 2.29.41 4.59.68 6.9 1-.33-2.25-.64-4.49-.95-6.74-.1-.88-.29-2.63-.39-3.51z" fill="#721717"/>
    <path fill="#a52429" d="M68.21 29.92c.42.65 1.27 1.95 1.7 2.6 1.1 1.62 2.18 3.26 3.26 4.9l-.56 1.65c-1.18 3.32-2.38 6.64-3.26 10.06 3.27-1.21 3.78-5.18 5.38-7.87.53-1.11 1.08-2.22 1.63-3.33 2.27-.01 4.54-.03 6.81-.04.47.98.91 1.97 1.35 2.97-1.16 1.3-2.29 2.63-3.42 3.96-1.83.22-3.12 1.71-3.04 3.56-.36.38-1.09 1.14-1.45 1.52-.71.61-1.29 1.31-1.74 2.12 1.09 1.15 2.62.54 3.12-.82 2.79-2.59 5.72-5.02 8.63-7.46.9.04 2.71.13 3.61.17-.31 2.61-.56 5.23-.88 7.85-3.28 1.75-6.7 3.23-9.99 4.95.02.43.07 1.29.09 1.72.04.29.1.89.14 1.18 1.54.17 3.08.31 4.64.27 2.21-.05 4.43-.17 6.65-.14 2.26 1.84 5.17 2.04 7.92 2.5-6.06.08-12.15.34-18.17 1.09-.09.33-.26.99-.34 1.32-.35 1.72-.66 3.45-.83 5.2-.01.34-.04 1.02-.05 1.36 3.53 1.88 7.18 3.51 10.73 5.34.05.5.14 1.51.18 2.01.13 1.83.24 3.65.4 5.47l-4.17.2c-2.55-2.17-5.09-4.37-7.53-6.67-.89-.83-1.78-1.66-2.68-2.49-.31.41-.93 1.24-1.25 1.65.82.81 1.63 1.63 2.44 2.45 2.42 2.42 4.61 5.06 6.78 7.7-.36 1.57-.71 3.14-1.05 4.71-.26-2.27-1.6-4.04-3.09-5.66-1.53-1.3-2.97-2.69-4.39-4.11 1.02 2.12 1.97 4.28 2.82 6.48 1.23.55 3.51.68 3.2 2.57-1.76-.29-3.52-.58-5.29-.87-2.01-3.7-3.72-7.56-5.86-11.2-.21-.38-.63-1.15-.85-1.53-1.02 1.99-1.88 4.07-2.65 6.17-.51.21-1.53.62-2.04.82-.29-1.45-.78-2.85-1.41-4.19-1.17 4.88-1.04 9.93-1.47 14.91-.28 2.38.29 4.72 1.07 6.96l-1.12.34c-.37-.47-1.1-1.4-1.46-1.87-.28-.4-.84-1.21-1.11-1.61-.59-.92-1.14-1.86-1.7-2.8-.31-.53-.92-1.58-1.23-2.1-.28.37-.84 1.11-1.13 1.49l-2.18-.08c1.22-4.18 2.23-8.45 4.09-12.41.58-.91.84-1.89.8-2.93-.37-1.69-2.57-.72-2.38.68-.16.58-.48 1.72-.64 2.29-.32.53-.94 1.59-1.25 2.12-.7 1.55-1.41 3.09-2.15 4.62-2.21.45-4.42.89-6.64 1.3.91-1.59 2.59-2.3 4.22-2.94 1.16-2.31 2.28-4.64 3.42-6.95-2.13 2.12-4.68 4.07-5.63 7.06-.44.03-1.33.1-1.77.13l-.48 3c-.48-1.47-.97-2.93-1.46-4.39 1.82-2.02 3.63-4.04 5.5-6 1.32-1.41 2.62-2.85 3.91-4.29-.49-.46-.98-.93-1.48-1.39-1.12 1.03-2.23 2.07-3.34 3.12-2.11 2.03-4.31 3.96-6.56 5.83-1.61.12-3.22.28-4.83.47l.48-2.59c.31-1.8.59-3.6.87-5.4 3.8-2.03 7.8-3.7 11.43-6.04-4.32-.6-8.12 1.93-12.15 2.99-1.66-1.03-3.33-2.06-4.97-3.13-1.01-.66-2.01-1.33-3.01-2.01-.66.96-1.32 1.91-1.98 2.87l-1 1.48c-.18-.85-.35-1.69-.48-2.55.31-1.31.7-2.6 1.06-3.89l1.94-.18c.47-.05 1.4-.15 1.86-.19 5.73-.05 11.48-.15 17.15-1.05-.17-.48-.52-1.44-.7-1.91-1.77-.02-3.54-.03-5.31-.08-4.37-.22-8.74-.6-13.12-.76.16-.81.33-1.63.5-2.45.95-.59 1.9-1.19 2.83-1.81 1.5-1.03 2.94-2.15 4.39-3.26 3.6 1.12 7.25 2.17 10.64 3.85 2.57 1.72 2.97-2.68.27-2.57-3.22-.99-6.24-2.52-9.22-4.07-.36-1.8-.73-3.6-1.05-5.41-.13-.77-.37-2.33-.5-3.11 1.56.17 3.11.35 4.66.54 3.65 3.01 6.77 6.71 10.95 9.02 2.61-.88.02-4.19-2.03-3.86-.85-.98-1.74-1.92-2.61-2.88l1.63-2.79c.92 1.02 1.83 2.04 2.74 3.07-.15-.42-.45-1.26-.59-1.68.4-.81 1.21-2.42 1.61-3.23 1.35 2.84 2.55 5.87 4.96 8.01-.39-3.77-1.88-7.28-3.14-10.81.55-1.32 1.1-2.64 1.75-3.92.61 3.16 1.81 6.16 3.29 9.01.1-2.67.15-5.35 0-8.03-.05-.58-.14-1.74-.18-2.33l-.01-.1c.59-.42 1.77-1.27 2.36-1.7.06.76.16 2.27.21 3.03.2 4.07-.45 8.3.8 12.25.45.38 1.34 1.14 1.79 1.53.13-2.26.16-4.52.22-6.78.03-.33.09-.99.13-1.32.52-3.61 1.51-7.15 3.04-10.46m-.01 13.41c1.15-2.81 2.97-5.81 1.83-8.94-3.46 1.63-1.81 5.93-1.83 8.94m10.42-3.76c-1.11 2.46-2.24 4.92-3.49 7.31 2.01-2.3 5-4.09 5.66-7.28-.54-.01-1.62-.03-2.17-.03m3.56-.32c.52.49.52.49 0 0m-43.91 5.9c.04 3.35 3.03-1.43 0 0m50.15-.43l-.84 2.35c-2.52 1.45-4.47 3.63-6.5 5.68 2.31-1.3 4.79-2.29 7.06-3.67.19-1.45.2-2.91.28-4.36m-49.26 2.43c.13 3.91 5.13 3.87 7.71 5.67-2.47-2.01-4.37-5.08-7.71-5.67m24.07 4.13c-1.16.84-.14 3.53 1.3 2.38 1.16-.85.13-3.52-1.3-2.38m-4.75.87c-1.1.94.17 3.33 1.54 2.47 1.11-.93-.15-3.37-1.54-2.47m9.85-.05c-1.17.12-1.93 2.49-.42 2.63 1.21-.09 1.96-2.51.42-2.63M55 55.18c-.41 1.34.1 1.91 1.53 1.69.4-1.35-.11-1.91-1.53-1.69m16.16.03c-.57 1.64-.03 2.14 1.61 1.47.58-1.65.04-2.14-1.61-1.47m-34.93 1.88c-.54.56-1.62 1.67-2.16 2.23 2.89.94 5.94.77 8.92.54-2.19-1.07-4.47-1.95-6.76-2.77m15.67 1.77c-.89 1.52 1.72 2.83 2.76 1.72.85-1.51-1.71-2.97-2.76-1.72m21.56.19c-1.26 1.46 1.3 2.45 2.13 1.19 1.36-1.45-1.34-2.63-2.13-1.19m-11.48 3.24c-.41 1.61-.19 4.07 2 4.04 2.19.08 1.64-2.56 1.86-4-1.29-.02-2.58-.04-3.86-.04m-10.8 1.01c-1.22 1.55 1.63 2.78 2.61 1.53 1.18-1.53-1.65-2.77-2.61-1.53m23-.06c-1.19 1.54 1.66 2.75 2.63 1.54 1.2-1.55-1.65-2.78-2.63-1.54m-22.4 5.03c-.89 1.55 1.63 1.92 2.42 1.02.11-.43.31-1.31.41-1.75-1.1-.49-2.04-.24-2.83.73m21.57-.8l.28 1.92c1.16.79 2.1.65 2.83-.4.08-1.47-2-2.33-3.11-1.52m-40.1.81c.52.5.52.5 0 0m2.13 2.42c2.86.83 5.62-1.49 8.18-2.58-2.2-.09-4.41-.22-6.61-.01-1.36.14-3.04 1.28-1.57 2.59m20.12.4c-1.18.27-1.86 2.32-.37 2.68 2.07.56 2.92-3.67.37-2.68m15.63.13c-1 1.29 1.11 3.43 2.34 2.21 1.06-1.3-1.1-3.2-2.34-2.21m-11.8 2.76c-1.23.86-1.21 1.58.05 2.16 1.23-.85 1.21-1.57-.05-2.16m3.92.34c-1.36.95-.07 3.74 1.49 2.56 1.34-.94.05-3.71-1.49-2.56m4.87 0c-1.49 3 3.34.15 0 0m12.76.85c1.05 1.25 2.11 2.48 3.18 3.72l.15-.11c1.15.68 2.29 1.39 3.4 2.13.18.58.52 1.74.69 2.32.01-1.55.03-3.11.05-4.66l-2.6-.96.53-.4c-1.78-.73-3.58-1.41-5.4-2.04m-41.8 6.62l.44-1.19c1.4.89 3.69-.45 3.69-2.08l.66.43c.91-1.2 1.83-2.4 2.73-3.6-2.89 1.45-8.68 1.91-7.52 6.44m17.74 10.02c.9 1.04 1.79 2.07 2.68 3.12.46-3.44.68-6.92.32-10.38-1.12 2.37-2.09 4.81-3 7.26z"/>
    <path fill="#160404" opacity=".4" d="M86.6 32.49c.54-.07 1.61-.2 2.15-.26-.46 1.03-.92 2.06-1.37 3.1 1.78-.03 3.55-.07 5.33-.11.01 1.89.04 3.78.1 5.67 1.19-1.17 2.39-2.37 3.12-3.88l-.44 2.52-.32 1.52c-.88-.03-2.65-.07-3.53-.1.18-1.77.37-3.54.57-5.3-1.67.23-3.34.47-5.01.7-.19-1.29-.39-2.58-.6-3.86z"/>
    <path fill="#480f10" opacity=".75" d="M59.54 33.46c.03-.02.09-.06.12-.09l.01.1-.13-.01z"/>
    <path opacity=".06" d="M81.15 33.9l3.34-.78c.17 1.18.3 2.36.41 3.54-.53.13-1.58.4-2.11.54l-1.31-.75c-.08-.64-.25-1.91-.33-2.55z"/>
    <path fill="#210707" opacity=".46" d="M35.32 34.97c.98.32 1.97.64 2.96.94-.69-.05-2.07-.16-2.76-.21.2 1.65.4 3.3.59 4.96l-1.68.24c.34-1.97.59-3.95.89-5.93z"/>
    <path fill="#1e0705" opacity=".49" d="M56.56 34.82c1.1.32 2.19.65 3.29.98.15 2.68.1 5.36 0 8.03-1.48-2.85-2.68-5.85-3.29-9.01z"/>
    <path fill="#2e090a" opacity=".55" d="M62.23 34.7c.49 3.8.96 7.6 1.37 11.41.5-1.46 1-2.93 1.44-4.41-.06 2.26-.09 4.52-.22 6.78-.45-.39-1.34-1.15-1.79-1.53-1.25-3.95-.6-8.18-.8-12.25z"/>
    <path fill="#180605" opacity=".47" d="M68.2 43.33c.02-3.01-1.63-7.31 1.83-8.94 1.14 3.13-.68 6.13-1.83 8.94z"/>
    <path fill="#4d1011" opacity=".75" d="M37.03 37.17l1.85.32c-.25 1.13-.61 2.23-1.09 3.29-1.05-.85-1.11-2.4-.76-3.61z"/>
    <path fill="#621517" opacity=".78" d="M82.18 39.25c.52.49.52.49 0 0z"/>
    <path fill="#220708" opacity=".46" d="M20.11 46.1c3.69-.94 7.4-1.84 11.21-2.18-.07.41-.2 1.22-.26 1.62-3.49-.9-6.96.04-9.89 2.01-.35-.49-.7-.97-1.06-1.45z"/>
    <path fill="#791717" d="M31.32 43.92c.52-.05 1.57-.16 2.09-.21l.04 3.11 3.68-.36c.32 1.81.69 3.61 1.05 5.41-2.86-1.61-6-2.91-9.36-2.14 1.71 2.78 4.63 4.16 7.67 4.93-1.45 1.11-2.89 2.23-4.39 3.26-.53-.9-1.06-1.81-1.59-2.71-.93.59-1.87 1.17-2.81 1.77-.31-.5-.92-1.48-1.23-1.97.86-.63 1.72-1.25 2.58-1.87-.9-1.45-1.8-2.9-2.7-4.34 1.44-.35 2.9-.69 4.33-1.09.1-.55.28-1.63.38-2.17.06-.4.19-1.21.26-1.62z"/>
    <path fill="#71171a" d="M90.23 43.91l.64-.27c-.02.57-.07 1.7-.09 2.26.94.33 1.89.65 2.84.96.38-1.16.76-2.32 1.15-3.48 2.16.42 4.31.92 6.48 1.33-1.38-.21-2.78-.32-4.17-.35l-.92 2.89c1.61.27 3.23.54 4.85.8-.61 1.54-1.32 3.04-1.75 4.63.69.78 1.42 1.52 2.19 2.23-.39.62-.79 1.23-1.19 1.85-1.06-.65-2.11-1.3-3.16-1.94l-1.65 3.12c-1.82-1.1-3.66-2.14-5.5-3.19 3.25-1.16 7.26-1.84 8.52-5.58-3.3-.31-6.34.96-9.12 2.59.32-2.62.57-5.24.88-7.85z"/>
    <path fill="#64151a" opacity=".85" d="M38.27 45.15c3.03-1.43.04 3.35 0 0z"/>
    <path fill="#4e1113" opacity=".64" d="M78.06 48.38c-.08-1.85 1.21-3.34 3.04-3.56-.25 1.7-1.41 3.03-3.04 3.56z"/>
    <path fill="#220707" opacity=".47" d="M102.26 44.88c1.78-.15 6.5.36 4.08 2.95-1.55-.7-2.81-1.86-4.08-2.95z"/>
    <path fill="#6f181a" opacity=".78" d="M50.21 49.05c2.05-.33 4.64 2.98 2.03 3.86-.75-1.25-1.36-2.57-2.03-3.86z"/>
    <path fill="#170505" opacity=".45" d="M74.87 52.02c.45-.81 1.03-1.51 1.74-2.12.34.33 1.04.97 1.38 1.3-.5 1.36-2.03 1.97-3.12.82z"/>
    <path fill="#4b1010" opacity=".73" d="M63.23 51.28c1.43-1.14 2.46 1.53 1.3 2.38-1.44 1.15-2.46-1.54-1.3-2.38z"/>
    <path fill="#481011" opacity=".71" d="M58.48 52.15c1.39-.9 2.65 1.54 1.54 2.47-1.37.86-2.64-1.53-1.54-2.47z"/>
    <path fill="#440f0f" opacity=".68" d="M68.33 52.1c1.54.12.79 2.54-.42 2.63-1.51-.14-.75-2.51.42-2.63z"/>
    <path fill="#2d090a" opacity=".6" d="M55 55.18c1.42-.22 1.93.34 1.53 1.69-1.43.22-1.94-.35-1.53-1.69z"/>
    <path fill="#3a0d0d" opacity=".67" d="M71.16 55.21c1.65-.67 2.19-.18 1.61 1.47-1.64.67-2.18.17-1.61-1.47z"/>
    <path fill="#9c2321" d="M24.5 56.31c.43.67.85 1.35 1.25 2.04-2.94 1.94-5.86 3.91-8.78 5.88 2.92 2.08 5.87 4.13 8.92 6.01.13.86.3 1.7.48 2.55-.33.51-.65 1.02-.97 1.54-1.61 2.58-3.14 5.21-4.62 7.87 3.4.67 6.82 1.25 10.22 1.93.56.13 1.67.4 2.23.54.46.13 1.39.37 1.86.5.4-.14 1.2-.42 1.61-.55 1.61-.19 3.22-.35 4.83-.47-1.44 1.25-2.81 2.6-4.07 4.04-1.86 1.52.82 4.22 2.34 2.33 1.29-1.16 2.53-2.37 3.7-3.64.49 1.46.98 2.92 1.46 4.39-2.64-.45-1.75 2.18-1.79 3.64.41 2.48.97 4.94 1.55 7.4.36 1.64.76 3.27 1.15 4.91 3.12-1.71 6.07-3.69 9.02-5.68.48-.31 1.45-.92 1.94-1.23.91-.53 1.84-1.04 2.78-1.52.27.4.83 1.21 1.11 1.61-.63.51-1.89 1.55-2.53 2.06 2.05 2.86 4.02 5.76 5.92 8.72 2.07-3.01 4.11-6.04 6.02-9.15-1.12-.35-2.24-.69-3.37-1.03-.92 1.07-1.82 2.16-2.82 3.15-.62-.6-1.21-1.22-1.76-1.88l1.12-.34c.99-1.12 2.43-2.23 2.41-3.88.06-4.61-.47-9.2-.6-13.8.51-.2 1.53-.61 2.04-.82.77-2.1 1.63-4.18 2.65-6.17.22.38.64 1.15.85 1.53-.11.55-.35 1.66-.47 2.21.95 3.03 2.04 6.01 3.09 9-1.03 1.87-2.06 3.73-3.14 5.57-.6 1.01-1.21 2.03-1.82 3.04.99.61 1.98 1.23 2.97 1.85.46.31 1.39.91 1.85 1.22 2.87 1.99 5.79 3.89 8.85 5.58.64-3.5 1.37-6.99 2.06-10.48.07-.4.23-1.21.3-1.62.23-1.44.36-2.9.5-4.36l-1.58.78c.34-1.57.69-3.14 1.05-4.71 1.11 1.29 2.33 2.47 3.67 3.51.53.24 1.58.71 2.1.94.28-.69.82-2.06 1.09-2.75.3.94.91 2.82 1.21 3.76-1.78-.15-3.55-.3-5.33-.44l-.12 3.18c-.14.51-.4 1.53-.54 2.04-1.07 3.33-1.72 6.77-2.29 10.21l-.72 3.62c-4.06-2.16-7.51-5.4-11.87-6.97-2.27 3.76-4.85 7.31-7.37 10.9-2.47-3.73-5.12-7.33-7.58-11.06-4.36 1.78-8.03 4.81-12.08 7.16-1.16-4.36-1.55-8.94-3.2-13.15-.23-.51-.47-1.01-.72-1.51.06-1.4.1-2.8.15-4.19-1.81.18-3.62.37-5.43.58.21-1.72.43-3.42.64-5.13L32.8 87l-1.73-.3c-.97-.19-1.93-.41-2.89-.65-3.18-.81-6.38-1.49-9.59-2.15-.4-.08-1.18-.25-1.58-.34 2.14-3.67 4.66-7.1 6.76-10.78-.05-.33-.16-.98-.21-1.31-2.99-2.45-6.55-4.11-9.5-6.61l.04-.86c3.08-2.99 7.04-4.99 10.4-7.69m43.53 27.94c-.04 2.6-.03 5.21-.04 7.81l2.05 1.45c1.84-3.21-.98-6.3-2.01-9.26m.27 9.93c.47.55.47.55 0 0z"/>
    <path fill="#4e1112" opacity=".72" d="M47.4 55.94c2.7-.11 2.3 4.29-.27 2.57 0-.87.09-1.72.27-2.57z"/>
    <path fill="#1f0606" opacity=".49" d="M36.23 57.09c2.29.82 4.57 1.7 6.76 2.77-2.98.23-6.03.4-8.92-.54.54-.56 1.62-1.67 2.16-2.23z"/>
    <path opacity=".05" d="M61.98 62.29c1.28 0 2.57.02 3.86.04-.22 1.44.33 4.08-1.86 4-2.19.03-2.41-2.43-2-4.04zM47.21 88.14c.95-2.99 3.5-4.94 5.63-7.06-1.14 2.31-2.26 4.64-3.42 6.95-1.63.64-3.31 1.35-4.22 2.94.63 1.07 1.25 2.15 1.87 3.24-.98.17-2.92.52-3.9.7.04-1.46-.85-4.09 1.79-3.64l.48-3c.44-.03 1.33-.1 1.77-.13zm16.49-8.08c.63 1.34 1.12 2.74 1.41 4.19.13 4.6.66 9.19.6 13.8.02 1.65-1.42 2.76-2.41 3.88-.78-2.24-1.35-4.58-1.07-6.96.43-4.98.3-10.03 1.47-14.91z"/>
    <path fill="#020000" opacity=".12" d="M26.15 64.25c.66-.51 1.97-1.55 2.62-2.07 4.38.16 8.75.54 13.12.76 1.5.55 2.98 1.13 4.47 1.68-5.19.53-10.43.61-15.61 1.36-.46.04-1.39.14-1.86.19-.68-.48-2.05-1.44-2.74-1.92z"/>
    <path fill="#2a090a" opacity=".53" d="M41.89 62.94c1.77.05 3.54.06 5.31.08.18.47.53 1.43.7 1.91-5.67.9-11.42 1-17.15 1.05 5.18-.75 10.42-.83 15.61-1.36-1.49-.55-2.97-1.13-4.47-1.68z"/>
    <path fill="#4d1011" opacity=".74" d="M51.18 63.3c.96-1.24 3.79 0 2.61 1.53-.98 1.25-3.83.02-2.61-1.53z"/>
    <path fill="#491010" opacity=".73" d="M74.18 63.24c.98-1.24 3.83-.01 2.63 1.54-.97 1.21-3.82 0-2.63-1.54z"/>
    <path fill="#350b0c" opacity=".59" d="M83.76 65.05c5.12-.03 10.23.26 15.33.68-5.11.63-10.25-.1-15.33-.68z"/>
    <path fill="#491012" opacity=".77" d="M33.25 68.28c.52.5.52.5 0 0z"/>
    <path fill="#1a0606" opacity=".47" d="M35.38 70.7c-1.47-1.31.21-2.45 1.57-2.59 2.2-.21 4.41-.08 6.61.01-2.56 1.09-5.32 3.41-8.18 2.58z"/>
    <path fill="#1a0605" opacity=".49" d="M84.56 68.27c2.45-.17 4.9-.27 7.36-.34l1.49 2.06c-.74.14-2.23.42-2.98.55-.02 0-.07-.01-.09-.01-1.97-.64-3.88-1.44-5.78-2.26z"/>
    <path fill="#541214" opacity=".77" d="M90.34 70.53c.02 0 .07.01.09.01-.02 0-.07-.01-.09-.01z"/>
    <path fill="#791b17" d="M90.04 73.18c1.88-.96 3.76-1.93 5.56-3.02.56.94 1.11 1.88 1.68 2.83.96-.59 1.92-1.17 2.89-1.75.32.49.96 1.48 1.28 1.97-.85.6-1.69 1.21-2.54 1.81l2.58 4.44c-1.77.45-3.55.91-5.32 1.37.11 3.72 3.62 2.81 6.13 2.44-2.48.45-4.93 1.01-7.41 1.4-.16-.84-.47-2.53-.63-3.37-1.19.18-2.38.36-3.56.55-.1-.82-.29-2.46-.38-3.29-.04-.5-.13-1.51-.18-2.01 2.69 1.61 5.73 2.48 8.86 1.93-1.82-3.38-5.49-4.44-8.96-5.3z"/>
    <path fill="#491011" opacity=".73" d="M55.5 71.1c2.55-.99 1.7 3.24-.37 2.68-1.49-.36-.81-2.41.37-2.68z"/>
    <path fill="#491011" opacity=".72" d="M71.13 71.23c1.24-.99 3.4.91 2.34 2.21-1.23 1.22-3.34-.92-2.34-2.21z"/>
    <path fill="#26090a" opacity=".57" d="M59.33 73.99c1.26.59 1.28 1.31.05 2.16-1.26-.58-1.28-1.3-.05-2.16z"/>
    <path fill="#4b1012" opacity=".73" d="M63.25 74.33c1.54-1.15 2.83 1.62 1.49 2.56-1.56 1.18-2.85-1.61-1.49-2.56z"/>
    <path fill="#100404" opacity=".5" d="M68.12 74.33c3.34.15-1.49 3 0 0z"/>
    <path fill="#1b0606" opacity=".4" d="M51.43 75.2c.5.46.99.93 1.48 1.39-1.29 1.44-2.59 2.88-3.91 4.29-.23-.64-.68-1.92-.91-2.56 1.11-1.05 2.22-2.09 3.34-3.12z"/>
    <path fill="#180505" opacity=".42" d="M76.34 75.07c.9.83 1.79 1.66 2.68 2.49l-1.49 1.61c-.81-.82-1.62-1.64-2.44-2.45.32-.41.94-1.24 1.25-1.65z"/>
    <path fill="#3a0d0c" opacity=".65" d="M80.88 75.18c1.82.63 3.62 1.31 5.4 2.04l-.53.4c-.38.29-1.15.87-1.54 1.17l-.15.11c-1.07-1.24-2.13-2.47-3.18-3.72z"/>
    <path fill="#4a1010" opacity=".75" d="M39.08 81.8c-1.16-4.53 4.63-4.99 7.52-6.44-.9 1.2-1.82 2.4-2.73 3.6l-.66-.43c-1.59-1.52-3.47.42-3.69 2.08l-.44 1.19z"/>
    <path fill="#140404" opacity=".39" d="M39.52 80.61c.22-1.66 2.1-3.6 3.69-2.08 0 1.63-2.29 2.97-3.69 2.08z"/>
    <path fill="#310a0b" opacity=".55" d="M55.88 80.64c-.19-1.4 2.01-2.37 2.38-.68.04 1.04-.22 2.02-.8 2.93-.39-.56-1.18-1.68-1.58-2.25z"/>
    <path fill="#250708" opacity=".47" d="M106.24 80.02c2.03 1.56-.21 3.28-2.04 2.98.26-1.21.95-2.34 2.04-2.98z"/>
    <path opacity=".07" d="M75.78 81.81c1.42 1.42 2.86 2.81 4.39 4.11 1.49 1.62 2.83 3.39 3.09 5.66l1.58-.78c-.14 1.46-.27 2.92-.5 4.36-2.28-.56-2.98-2.15-2.54-4.3.31-1.89-1.97-2.02-3.2-2.57-.85-2.2-1.8-4.36-2.82-6.48z"/>
    <path fill="#380c0d" opacity=".62" d="M53.99 85.05c.31-.53.93-1.59 1.25-2.12-.32.53-.94 1.59-1.25 2.12z"/>
    <path fill="#2e0a0a" opacity=".6" d="M56.82 91.82c.91-2.45 1.88-4.89 3-7.26.36 3.46.14 6.94-.32 10.38-.89-1.05-1.78-2.08-2.68-3.12z"/>
    <path fill="#110403" opacity=".43" d="M68.03 84.25c1.03 2.96 3.85 6.05 2.01 9.26l-2.05-1.45c.01-2.6 0-5.21.04-7.81z"/>
    <path fill="#2b0909" opacity=".51" d="M90.51 88.71c1.55-1.07 3.32-1.72 5.17-2.06.1.88.29 2.63.39 3.51-.94-1.29-1.68-4.03-3.59-2.21-.07 1.63.1 3.26.2 4.89-1.31.47-4.9-1.35-4.45.99.45.84 1.08 1.53 1.89 2.07-1.07-.26-2.13-.54-3.19-.83l.12-3.18c1.78.14 3.55.29 5.33.44-.3-.94-.91-2.82-1.21-3.76-.27.69-.81 2.06-1.09 2.75-.52-.23-1.57-.7-2.1-.94.84-.56 1.68-1.12 2.53-1.67z"/>
    <path fill="#3c0d0c" opacity=".64" d="M39.8 90.52c-1.52 1.89-4.2-.81-2.34-2.33.85.71 1.63 1.48 2.34 2.33z"/>
    <path fill="#400f0c" opacity=".76" d="M68.3 94.18c.47.55.47.55 0 0z"/>
    <path fill="#1c0606" opacity=".4" d="M84.1 107.32c.57-3.44 1.22-6.88 2.29-10.21 1.94.47 3.87.92 5.81 1.36-1.85-.02-3.71-.06-5.56-.08-.91 2.92-.45 6.5-2.54 8.93z"/>
</svg>
