<svg width="128pt" height="128pt" viewBox="0 0 128 128" xmlns="http://www.w3.org/2000/svg">
    <path d="M20.45 62.19c1.91-4.4 4.72-9.29 9.69-10.59 5.74-1.34 11.79.58 16.7 3.56 7.79 7.25 11.72 17.98 11.99 28.48-1.69-.12-3.38-.16-5.08-.08-.42-4.4-3.31-8.77-7.79-9.79-4.15-.83-9.2-.37-12.05 3.12-3.3 3.46-3.81 8.45-4.35 12.97-2.03-1.42-3.97-3.04-5.09-5.3-3.57-6.75-6.22-14.76-4.02-22.37zm57.18-4.52c4.73-5.71 12.89-7.73 19.94-5.99 4.78 1.54 7.06 6.46 9.18 10.6 1.83 9.8-.86 21.53-9.43 27.48-.25-5-1.19-10.55-5.16-14.01-4.67-3.45-12.2-3.32-16.15 1.2-1.66 1.76-2.15 4.2-2.86 6.44-1.67.08-3.34.16-5 .27.66-9.27 3.49-18.72 9.48-25.99zM53.84 87.7c1.51.04 3.02.1 4.54.19-.5 6.31-2.42 12.84-6.95 17.46-2.21 2.39-6.89 3.17-8.6-.2-2.3-3.88-1.44-11.91 4.3-11.79 2.22.67 2.34 3.18 2.96 5 3.14-2.61 3.41-6.91 3.75-10.66zm14.59.07c1.72.14 3.45.28 5.17.43-.28 3.73.79 7.49 3.19 10.39.65-1.84 1.31-3.7 2.48-5.27 7.67-.72 8.66 12.67 1.64 14.36-2.7-.85-5.44-2.1-7.01-4.59-1.98-3.1-4.31-6.34-4.35-10.17-.12-1.77-.57-3.48-1.12-5.15z" fill="#fff"/>
</svg>
