<svg width="128pt" height="128pt" viewBox="0 0 128 128" xmlns="http://www.w3.org/2000/svg">
    <path fill="#fff" d="M63.46 10.2c1.99 4.48 3.6 9.11 5.78 13.5 3.06 7.54 8.14 14.86 7.44 23.35-1.1 9.87-7.67 18.06-9.26 27.82-.24 2.99-1.69 6.02-.72 8.99 4.9-1.4 12.2-.1 12.47 6.14-3.7-2.49-8.2-1.92-12.43-2.26-1.82 4.8 1.73 9.43 1.66 14.25.01 5.53-3.3 10.22-4.72 15.4-2.01-4.57-4.22-9.17-4.81-14.19-.36-5.16 3.23-10.22 1.43-15.34-4.28-.33-8.72-.21-12.48 2.13.24-6.23 7.66-7.33 12.5-6.18 1.96-14.48-10.69-26.34-9.69-40.76.38-6.43 4.03-11.91 6.68-17.58 2.47-4.92 3.95-10.24 6.15-15.27z"/>
</svg>
