<svg width="128pt" height="128pt" viewBox="0 0 128 128" xmlns="http://www.w3.org/2000/svg">
    <path fill="#a82629" opacity=".91" d="M41.24 14.82c1.55.09 1.65 3.77.07 3.85-.8-1.06-.87-2.78-.07-3.85z"/>
    <path fill="#9b2526" opacity=".95" d="M86.06 14.43c.31-.15.92-.46 1.22-.61.18 2.06-.24 4.14-1.02 6.05-.36-1.78-.6-3.64-.2-5.44z"/>
    <path fill="#250909" opacity=".46" d="M87.28 13.82c1.28 3.49-.03 7.21-1.17 10.56-.25-1.55-.51-3.09-.79-4.62-.35-1.81.31-3.6.74-5.33-.4 1.8-.16 3.66.2 5.44.78-1.91 1.2-3.99 1.02-6.05z"/>
    <path fill="#ba2b28" d="M42.19 21.37c.3.14.9.41 1.2.55.34 2.96-2.9 1.31-1.2-.55z"/>
    <path fill="#ad2829" d="M79.52 40.39c2.07-6.84 4.71-13.55 5.8-20.63.28 1.53.54 3.07.79 4.62-.71 5.26-1.48 10.65-3.94 15.43-.66.15-1.99.43-2.65.58z"/>
    <path fill="#bb2c2c" d="M44.72 36.51c-1.13-3.66-3.32-8-.83-11.56 1.84 5.27 2.69 10.91 5.35 15.88 2.08 3.77 1.77 8.23 2.76 12.32.7 3.71 4.04 5.98 6.2 8.82.13-1.81.28-3.62.52-5.43-.39-.42-1.16-1.26-1.55-1.68.73-2.36 1.52-4.76 3.03-6.75 2-.41 2.05 2.47 3.13 3.52-.86-.03-2.58-.1-3.43-.13.53 1.09 1.08 2.17 1.63 3.26 2.83.3 5.78-.06 7-3-.85-.04-2.55-.11-3.39-.15.68-1.52 1.37-3.04 2.06-4.55 1.71 2.92 5.07 6.48 2.26 9.8.35 1.6.7 3.2 1.01 4.81 1.65-2.31 3.81-4.27 5.13-6.79 1.76-4.64 1.1-9.9 3.38-14.38l.54-.11c.66-.15 1.99-.43 2.65-.58-1.58 6.01-2.56 12.15-3.47 18.29-1.09 1.02-2.17 2.05-3.28 3.06-1.71 1.57-3.4 3.15-5.07 4.76 2.89-1.32 5.83-2.56 8.79-3.74 4.04-1.8 7.44-4.74 11.33-6.84 7.34-4.01 14.98-7.44 22.55-10.99-2.87 3.89-7.78 5.07-11.57 7.78-5.89 3.94-12.43 6.8-18.02 11.17-3.73 2.31-8.01 3.55-11.63 6.07 4.09.14 8.28.92 12.31-.12 3.93-.82 7.92-2.94 11.95-1.25-1.23.33-2.46.63-3.69.92-6.7 4.31-14.83 3.94-22.42 4.89.51.5 1.54 1.5 2.05 2 1.82-.45 3.64-.88 5.47-1.32 1.22 1.01 2.44 2.03 3.64 3.07l-2.88.64c-2.08.41-4.14 1.09-6.28 1.03-2.14.15-3.59-1.77-5.35-2.66-1.66-1.45-3.84-.7-5.52.28-1.15.75-2.29 1.52-3.42 2.3-2.53.4-4.99-.59-7.5-.73-5.76 2.84-9.59 8.22-13.57 13.05-2.52 3.28-4.2 7.44-8.19 9.27l1.06-1.56c.84-.53 1.43-1.27 1.76-2.21 3.74-6.07 7.16-12.46 12.28-17.52 2.41-1.68 4.99-3.11 7.35-4.87 1.79.41 3.57.82 5.36 1.26.66-.68 1.33-1.36 2-2.04-6.84-.78-13.89-.69-20.3-3.56-.51-.38-1.52-1.14-2.03-1.52-.93-.11-2.79-.34-3.73-.46 3.89-2.1 7.92.2 11.83.93 3.99 1.09 8.14.39 12.19.18-4.96-3.46-11.09-4.84-15.55-9.1-7.35-3.88-14.19-8.68-21.63-12.44-1.57-.75-2.68-2.12-3.59-3.56 8.84 4.59 18.2 8.21 26.58 13.66 2.26 1.36 4.27 3.17 6.75 4.12 3.1 1.18 6.16 2.46 9.13 3.93-1.73-1.64-3.45-3.28-5.19-4.92-1.03-.96-2.06-1.92-3.09-2.89-1.27-7.28-2.16-14.71-4.86-21.66z"/>
    <path fill="#3f0e0f" opacity=".59" d="M52.67 61.06c1.74 1.64 3.46 3.28 5.19 4.92-2.97-1.47-6.03-2.75-9.13-3.93 1 .2 2.99.59 3.99.79l-.05-1.78z"/>
    <path fill="#390c0d" opacity=".57" d="M70.35 65.92c1.67-1.61 3.36-3.19 5.07-4.76l-.09 1.59c.95-.14 2.85-.42 3.81-.57-2.96 1.18-5.9 2.42-8.79 3.74z"/>
    <path d="M61.08 76.85c1.68-.98 3.86-1.73 5.52-.28.5.73.99 1.47 1.46 2.21 1.68 3.92 2.98 8.06 3.32 12.33.15 4.22-1.91 8.03-4.15 11.46-.31.23-.92.7-1.23.93-.85 1.08-1.69 2.17-2.72 3.09-.19-.83-.55-2.47-.73-3.29-.4-.18-1.2-.55-1.6-.73-2.22-3.45-4.38-7.32-4.15-11.57.69-4.83 1.56-9.91 4.77-13.79-.12-.09-.37-.27-.49-.36zm20.03.71c1.67.04 3.11 1.29 4.24 2.43 5.81 6.24 9.57 13.99 14.44 20.92-1.65-1.13-3.35-2.29-4.52-3.94-4.53-7.17-10.03-13.89-17.04-18.77l2.88-.64z" fill="#992424"/>
    <path fill="#150405" opacity=".32" d="M29.46 99.18c-.65-1.74-.06-2.48 1.76-2.21-.33.94-.92 1.68-1.76 2.21z"/>
</svg>
