<svg width="128pt" height="128pt" viewBox="0 0 128 128" xmlns="http://www.w3.org/2000/svg">
    <path fill="#fff" d="M47.94 46.76c5.39-9.65 10.49-19.5 16.27-28.91 5.31 9.6 10.62 19.21 15.8 28.88 10.9 2.39 21.89 4.38 32.86 6.49-7.54 8.11-15.16 16.15-22.81 24.16 1.09 11.13 2.69 22.21 3.97 33.33-10.04-4.81-20.13-9.5-30.18-14.3-10.07 4.74-20.17 9.38-30.24 14.11 1.29-11.11 2.96-22.17 4.16-33.29-7.65-7.99-15.13-16.16-22.66-24.26 10.94-2.11 21.89-4.1 32.83-6.21m3.77 4.9c-8.32 2.09-16.88 3.33-25.33 4.93 5.8 6.17 11.44 12.52 17.36 18.59-.65 8.59-2.15 17.11-3.11 25.68 7.81-3.58 15.52-7.34 23.38-10.8 7.61 3.72 15.34 7.2 22.94 10.95-.72-8.55-2.23-17.02-2.9-25.58 5.89-6.14 11.64-12.42 17.55-18.53-8.42-1.65-16.84-3.28-25.25-4.97-4.12-7.56-8.27-15.08-12.36-22.65-3.82 7.6-8.2 14.92-12.28 22.38z"/>
</svg>
