<svg width="128pt" height="128pt" viewBox="0 0 128 128" xmlns="http://www.w3.org/2000/svg">
    <path fill="#fff" d="M51.62 51.74c4.1-7.5 8.25-14.98 12.44-22.43 4.16 7.47 8.24 14.98 12.3 22.5 8.43 1.91 17 3.18 25.43 5.09-5.92 5.96-11.52 12.24-17.38 18.26-.58 1.55.13 3.2.18 4.78.92 7.07 1.67 14.15 2.61 21.22-7.85-3.59-15.56-7.48-23.45-10.96-7.73 3.64-15.5 7.24-23.27 10.81 1.08-8.02 2.06-16.06 3.12-24.09.58-2.16-1.69-3.28-2.84-4.68C35.9 67 31.06 61.73 26.09 56.6c8.53-1.55 17.03-3.19 25.53-4.86z"/>
</svg>
