<svg width="128pt" height="128pt" viewBox="0 0 128 128" xmlns="http://www.w3.org/2000/svg">
    <path fill="#b22829" d="M63.64 18.32c1.59-.71 1.67 2.02 2.31 2.95.27.45.8 1.36 1.07 1.81 4.76 7.68 8.53 15.97 13.26 23.65 10.75 2.38 21.68 4.33 32.53 6.35-7.2 8.42-15.09 16.24-22.68 24.32.88 11.13 3.15 22.16 3.57 33.32-9.85-4.94-19.89-9.5-29.85-14.23-10.05 4.74-20.19 9.3-30.22 14.08 1.12-11.13 2.92-22.19 4.06-33.31-7.59-8.04-15.13-16.14-22.59-24.31 10.95-2.31 22.05-3.9 32.95-6.45 5.09-9.45 10.37-18.8 15.59-28.18z"/>
    <path fill="#430f0f" opacity=".65" d="M65.95 21.27l.92.05.55.93-.4.83c-.27-.45-.8-1.36-1.07-1.81z"/>
</svg>
