<svg width="128pt" height="128pt" viewBox="0 0 128 128" xmlns="http://www.w3.org/2000/svg">
    <path fill="#bd2c2c" d="M80.97 23.66c6.83-2.25 14.12-1.53 21.2-1.89 2.05 2.16 5.18 2.01 7.92 2.02 2.63 1.11 1.33 4.88 1.01 7.05l-.83.09c-.23-.69-.67-2.07-.89-2.76-2.08.61-4.02 1.59-6.02 2.4-2.87 3.66-3.6 8.56-2.96 13.08 1.14 1.66 1.79 3.58 2.93 5.24l-1.97-.59c.19 3.12 1.36 6.08 2.12 9.08l-1.18-.52c-.46-.66-1.39-1.98-1.85-2.64.65 3.49.23 7.02-.36 10.48-.42-.88-1.27-2.65-1.69-3.53-1.92 3.48-6.18 4.94-9.57 6.78-.6-1.17-1.21-2.33-1.81-3.5 1.62-1.24 3.17-2.57 4.81-3.79-.25-4.35.78-8.61.56-12.96-.71 3.85-1.51 7.69-2.02 11.57-1.57 1.76-2.87 3.81-4.82 5.19-3.57 2.85-8.26 3.88-11.79 6.78-3.57.24-7.17-.16-10.58-1.25-4.9-.87-9.85-1.5-14.78-2.22-.01-.01-.02-.01-.02-.01-4.83-.71-9.54-2.14-14.44-2.31-.88-1.28-2.61-.76-3.89-1.12-2.76-.51-5.49-1.23-8.19-1.99.12-.15.38-.46.51-.62 7.43-.68 14.84-1.62 22.27-2.04l.77-.6c3.02-2.58 6.37-4.68 9.72-6.78 2.84-1.97 5.7-3.94 8.87-5.37 5.52-2.6 10.4-7.15 16.34-8.44 1.95-3.96 1.75-8.55 3.04-12.72-.6-.53-1.81-1.58-2.41-2.11m14.17 2.91c2.27 1.13 6.64 2.5 7.93-.4-2.68-.3-5.24.99-7.93.4z"/>
    <path opacity=".19" d="M95.14 26.57c2.69.59 5.25-.7 7.93-.4-1.29 2.9-5.66 1.53-7.93.4zM92.39 47.7c.22 4.35-.81 8.61-.56 12.96-1.64 1.22-3.19 2.55-4.81 3.79-3.28 2.66-6.98 4.73-10.42 7.16-.26.21-.78.64-1.04.86-3.39-.95-6.93-.9-10.42-.95-5.19-1.77-10.77-1.78-16.08-3.06l-.66-.69c4.93.72 9.88 1.35 14.78 2.22 3.41 1.09 7.01 1.49 10.58 1.25 3.53-2.9 8.22-3.93 11.79-6.78 1.95-1.38 3.25-3.43 4.82-5.19.51-3.88 1.31-7.72 2.02-11.57zM33.94 65.45c4.9.17 9.61 1.6 14.44 2.31-1.42.97-3.15.3-4.71.33l-.08 1.35c4.31-.1 8.35 1.69 12.51 2.57 2.02.69 4.36.64 6.15 1.88-2.81.25-5.5-1.13-8.31-.6-.39-.03-1.15-.08-1.54-.11-1.16 2.23-3.29 3.5-5.12 5.1-6.06 5.31-12.7 9.99-18.39 15.69 2.8.02 5.56-.47 8.27-1.13-2.2 2.5-6.72 2.64-9.39.82l-2.08.56c-.37-1.39-.08-2.58.88-3.57 8.62-5.23 16.33-11.79 23.58-18.77-10.25 3.63-19.84 8.96-29.42 14.06-.25-2.27.19-4.53.71-6.72.33-.03 1-.1 1.34-.13-.57 1.66-1.22 3.3-1.84 4.94 4.72-2.26 9.49-4.44 14.21-6.72 2.62-.89 4.33-3.24 7.02-3.98l1.99-2.11c-2.22.3-4.49.59-6.54 1.58.74-2.64 5.15-1.68 4.78-4.95-2.42-1.52-5.44-.88-8.14-1.24l-.32-1.16zm68.91 6.52c1.92-.11 3.69 1 5.24 2.01.54 2.04 1.38 4.52-.08 6.39-2.52-.15-5.14.05-7.5-.99 1.17-1 2.46-1.84 3.71-2.72 1.3.84 2.68 1.56 3.97 2.42-.41-1.72-.87-3.43-1.32-5.13-2.77-.08-4.71 3-7.16 4.19.35-1.39.85-2.73 1.46-4.02.87.02 2.62.07 3.49.09-.46-.56-1.36-1.68-1.81-2.24z" fill="#080202"/>
    <path fill="#330c0b" opacity=".51" d="M43.89 53.03c2.85-1.83 6.3-2.46 9.6-2.92-.46 2.19-2.73 2.85-4.41 3.87.47-.59 1.39-1.77 1.86-2.37-2.45.04-4.67 1.11-7.05 1.42z"/>
    <path opacity=".05" d="M53.49 50.11c.54.73 1.09 1.46 1.64 2.19-3.35 2.1-6.7 4.2-9.72 6.78-4.5-.65-8.85 2.16-13.28.63l-.37-1.09-.07-.45c4.78-.25 9.41-2 14.23-1.67 1.04-.85 2.12-1.66 3.16-2.52 1.68-1.02 3.95-1.68 4.41-3.87z"/>
    <path fill="#ac2827" opacity=".96" d="M43.89 53.03c2.38-.31 4.6-1.38 7.05-1.42-.47.6-1.39 1.78-1.86 2.37-1.04.86-2.12 1.67-3.16 2.52-4.82-.33-9.45 1.42-14.23 1.67l-2.55-1.04c1.56-.27 3.08-.72 4.6-1.14 3.28-.44 6.37-1.69 9.49-2.75l.66-.21z"/>
    <path fill="#200707" opacity=".4" d="M33.74 55.99c2.71-1.95 6.25-2.32 9.49-2.75-3.12 1.06-6.21 2.31-9.49 2.75z"/>
    <path fill="#1d0706" opacity=".39" d="M31.76 58.62c-1.58 1.9-6.77-.02-3.1-1.79l.48.3 2.55 1.04.07.45z"/>
    <path d="M76.6 71.61c3.44-2.43 7.14-4.5 10.42-7.16.6 1.17 1.21 2.33 1.81 3.5-2.03 1.97-4.97 3.24-7.46 4.69-1.6-.3-3.18-.72-4.77-1.03zm-5.37 15.04c1.27-.44 2.55-.8 3.86-1.08 1.19 1.93 2.53 3.76 3.57 5.78l-.35.37c-.75.71-1.5 1.44-2.24 2.16-1.46.14-2.88.56-4.32.82-.33 1.23-.66 2.45-.98 3.67-.53-.8-1.09-1.58-1.67-2.33-.69-.82-1.16-1.73-1.39-2.75 2.44.43 4.75-.7 7.17-.85-1.43-1.8-2.53-3.8-3.65-5.79z" fill="#d63031"/>
    <path fill="#b22b29" d="M48.38 67.76s.01 0 .02.01l.66.69c5.31 1.28 10.89 1.29 16.08 3.06 3.49.05 7.03 0 10.42.95.26-.22.78-.65 1.04-.86 1.59.31 3.17.73 4.77 1.03-1.12.84-2.11 1.83-2.97 2.92-2.16-.02-3.77 1.59-5.83 1.95-.31.64-.95 1.9-1.26 2.54 1.72 1.49 2.65 3.6 3.78 5.52-1.31.28-2.59.64-3.86 1.08-2-2.61-3.69-5.75-5.64-8.51.24-.65.73-1.95.97-2.6-1.32-.89-3.05-.72-4.31-1.65-1.79-1.24-4.13-1.19-6.15-1.88-4.16-.88-8.2-2.67-12.51-2.57l.08-1.35c1.56-.03 3.29.64 4.71-.33z"/>
    <path fill="#b52829" d="M98.08 78.28c.91-2.57 1.52-5.37 3-7.65.44.33 1.33 1.01 1.77 1.34.45.56 1.35 1.68 1.81 2.24-.87-.02-2.62-.07-3.49-.09-.61 1.29-1.11 2.63-1.46 4.02 2.45-1.19 4.39-4.27 7.16-4.19.45 1.7.91 3.41 1.32 5.13-1.29-.86-2.67-1.58-3.97-2.42-1.25.88-2.54 1.72-3.71 2.72l-.56 1.35c2.4.04 4.81.03 7.21.3-.59 1.3-1.14 2.62-1.63 3.97-.24-4.5-5.12-2.81-8.09-2.97l-.7.57c-.37.31-1.09.92-1.45 1.23-.39 1.18-.27 2.39.35 3.62-1.22-.5-2.43-1.02-3.63-1.56l-.59-.33c.49-.38 1.47-1.16 1.96-1.54.81-.57 1.43-1.28 1.87-2.15-.69-.72-1.58-1.09-2.67-1.12-3.93-1.18-7.68-3.04-11.75-3.68v-2.13c2.68-.44 4.57-3.42 7.27-3.01-.33 1.18-.67 2.36-1.07 3.53 1.64.42 3.2 1.06 4.74 1.75 1.92.9 3.91 1.69 5.98 2.18l.33-1.11z"/>
    <path fill="#ad2829" d="M37.62 72.8c2.05-.99 4.32-1.28 6.54-1.58l-1.99 2.11c-2.69.74-4.4 3.09-7.02 3.98-4.72 2.28-9.49 4.46-14.21 6.72.62-1.64 1.27-3.28 1.84-4.94 4.87-2.27 9.84-4.3 14.84-6.29z"/>
    <path fill="#b2292b" d="M20.73 85.94c9.58-5.1 19.17-10.43 29.42-14.06-7.25 6.98-14.96 13.54-23.58 18.77-4.16 2.44-7.91 6.56-13.2 5.69.43-2.58 1.69-4.91 2.51-7.37 1.38-1.34 3.13-2.21 4.85-3.03z"/>
    <path fill="#b2292c" d="M52.4 73.18c.39.03 1.15.08 1.54.11-4.16 5.72-7.05 12.43-12.43 17.18-1.04 1.45-2.64 2.07-4.35 2.37-2.71.66-5.47 1.15-8.27 1.13 5.69-5.7 12.33-10.38 18.39-15.69 1.83-1.6 3.96-2.87 5.12-5.1z"/>
    <path fill="#200708" opacity=".41" d="M91.77 77.21c2.11.31 4.23.57 6.31 1.07l-.33 1.11c-2.07-.49-4.06-1.28-5.98-2.18z"/>
    <path fill="#1f0707" opacity=".43" d="M99.95 80.73l.56-1.35c2.36 1.04 4.98.84 7.5.99-.25 1.85-1.26 3.43-2.18 5.02-.95-.44-1.6-1.29-1.93-2.57-2.37-.37-4.78-.06-7.16-.22l.7-.57c2.97.16 7.85-1.53 8.09 2.97.49-1.35 1.04-2.67 1.63-3.97-2.4-.27-4.81-.26-7.21-.3z"/>
    <path fill="#100303" opacity=".33" d="M92.58 80.75c1.09.03 1.98.4 2.67 1.12-.44.87-1.06 1.58-1.87 2.15-.99-.96-1.26-2.05-.8-3.27z"/>
    <path fill="#300b0c" opacity=".49" d="M95.64 87.45c-.62-1.23-.74-2.44-.35-3.62.83 1.45 1.11 2.93.82 4.45-1.36-.74-3.6-.56-4.1-2.39 1.2.54 2.41 1.06 3.63 1.56z"/>
    <path fill="#b22929" d="M78.31 91.72c4.03-1.07 6.79-4.65 10.78-5.74.16 1.97 1.62 4 .85 5.95-1.6-.18-2.22-1.83-3.53-2.55-1.46 1.17-3.45 1.72-4.59 3.25 3.29-.54 6.7-.23 9.97.15 2.05 1.53-.74 2.47-.75 4.05-.28 1.21-.94 2.12-2 2.74l-.18-1.43c-.16-1.29-.27-2.62-.92-3.78-2.28-.45-4.62-.4-6.94-.36l-.04 1.79c1.72.54 2.66 2.2 4.1 3.18.68.7 2.6 1.41 1.61 2.64-1.21.59-2.43 1.15-3.57 1.87l.08-3.46c-.15-.2-.46-.58-.62-.77-1.73-1.69-3.81-2.94-5.56-4.59-.23-.19-.69-.58-.93-.78.74-.72 1.49-1.45 2.24-2.16z"/>
    <path fill="#340b0c" opacity=".49" d="M71.75 94.7c1.44-.26 2.86-.68 4.32-.82.24.2.7.59.93.78-1.41.45-2.89.55-4.36.62-.69 1.22-.55 3.08-1.8 3.87-1.67.03-1.5-2.01-1.74-3.11.58.75 1.14 1.53 1.67 2.33.32-1.22.65-2.44.98-3.67z"/>
    <path fill="#3f0e0e" opacity=".58" d="M81 94c2.32-.04 4.66-.09 6.94.36.65 1.16.76 2.49.92 3.78-.5-.94-.92-1.92-1.27-2.93-2.13-.95-4.67-.63-6.63.58L81 94z"/>
    <path fill="#260909" opacity=".46" d="M82.56 99.25c.16.19.47.57.62.77l-.08 3.46-.39.75c-2.34-.53.04-3.44-.15-4.98z"/>
</svg>
