<svg width="128pt" height="128pt" viewBox="0 0 128 128" xmlns="http://www.w3.org/2000/svg">
    <path fill="#fff" d="M103.28 27.3c.76-1.18 1.51-2.36 2.27-3.54 1.89.18 3.78.36 5.68.46.41 2.51.2 5.04-.31 7.52-.33-.92-.99-2.75-1.32-3.66-1.9.43-3.7 1.16-5.47 1.93-.21-.67-.64-2.03-.85-2.71z"/>
    <path d="M100.94 70.76c1.2.95 2.4 1.9 3.6 2.83-2.14.21-4.43.6-4.81 3.2l1.25.05c-.69.2-2.07.61-2.76.81 1.02-2.25 1.89-4.57 2.72-6.89zm-34.78 7.72c2.04.7 4 1.6 5.95 2.51 2.13 3.48 4.01 7.13 6.33 10.49 3.95-.36 6.89-4.12 10.6-5.54.42 2.09.74 4.19 1.06 6.3-1.13-1.05-2.33-2.01-3.47-3.04-1.85 1.02-3.66 2.12-5.36 3.38 3.66.4 7.89-.88 11.2 1.18-1.14 1.9-2.06 3.92-3.03 5.91-.47-1.72-.91-3.46-1.32-5.2-2.61-.16-5.45-.96-7.89.34 2.35 2.22 4.82 4.31 7.4 6.26-2 .75-3.9 1.74-5.62 3.02.39-1.04 1.16-3.12 1.54-4.16-2.21-1.91-4.49-3.73-6.63-5.72-1.6.09-3.19.22-4.77.5-.53 1.46-1.13 2.89-1.69 4.34-.72-1.87-1.62-3.67-2.63-5.39 2.44-.21 4.86-.58 7.25-1.12-3.04-4.65-5.94-9.38-8.92-14.06z" fill="#fdfdfd"/>
    <path fill="#fefefe" d="M100.82 77.73c1.75-1.55 3.6-3 5.49-4.38.92 1.81 1.33 3.81 1.89 5.75-1.26-.89-2.54-1.76-3.8-2.67-1.68 1.19-3.29 2.47-4.83 3.85 2.59.61 5.24.44 7.87.5-.75 1.53-1.45 3.08-2.07 4.67-.15-.8-.45-2.4-.6-3.19-2.43-.25-4.87-.4-7.31-.45-.89.79-1.78 1.59-2.67 2.39.4 1.18.79 2.36 1.19 3.54-1.46-.64-2.92-1.26-4.4-1.86 1.4-1.38 2.81-2.75 4.21-4.15-4.96-1.72-9.83-3.71-14.93-4.99 2-.12 3.97-.52 5.85-1.22 4.03 1.06 7.73 3.73 12 3.55l-1.48-1.15c1.2-.05 2.39-.12 3.59-.19z"/>
</svg>
