<svg width="128pt" height="128pt" viewBox="0 0 128 128" xmlns="http://www.w3.org/2000/svg">
    <g fill="#fff">
        <path d="M82.2 13.97c2.51 1.91 3.32 5.2 4.15 8.08 2.45-1.26 3.69-3.68 4.46-6.2.06 2.46 0 4.93-.57 7.34 1.93-.55 3.88-.98 5.87-1.22-1.36 2.59-3.91 3.98-6.69 4.57 3.63-.74 6.71 1.87 10.28 2.02-1.84 1.45-4.16 1.97-6.46 2.02 1.99 2.27 4.57 3.73 7.57 4.2-2.89.75-5.86.48-8.69-.39-.33 1.46-.79 2.89-1.37 4.29.96 1.12 2.14 2.06 2.95 3.3-1.7-.92-3.81-1.38-4.97-3.05-.47-1.31-.7-2.68-.98-4.03-.21 2.06-.73 4.09-.64 6.17 1.01 2.05 3.77 1.01 5.48 1.62-2.05 1.36-5.11 2.7-7.31.92-1.31-1.71-1.69-3.92-2.66-5.82-.33 3.72 1.5 7.15 4.37 9.4-2.62-.29-4.92-1.54-6.91-3.22-.55 2.32-.98 4.74.42 6.86l-1.28-.2c-1.96-2.11-1.88-5.03-2.79-7.59-.75 2.96-.18 5.97.41 8.9-2.42-.71-3.68-2.84-5.09-4.71.13 2.39 1.1 4.55 2.29 6.58-1.08-.41-2.16-.82-3.23-1.24-1.08.71-2.89 1.65-1.53 3.12 1.35.51 2.72.94 4.13 1.28-2.43.63-4.98 1.01-7.37-.03 1 6.9.19 14.29 3.33 20.72 1.04 2.31 3.2 3.8 5.48 4.75 2-.6 4.66-.86 5.4-3.21.21-2-1.24-3.59-2.16-5.21-2.29-3.23-2.83-7.3-2.78-11.16.29-5.15 4.25-10.26 9.59-10.71 5.32-1 8.16 5.39 13.53 4.58-3.86 3.92-9.1-.28-13.54-.57.7 1.31 2.77 5.08-.37 4.23l1.23-1.2c-.94-.45-2.81-1.34-3.75-1.78-3.54 1.2-2.9 5.74-2.93 8.7-.09 4.9 4.51 8.24 4.83 13-1.41 6.09-9.51 7.64-14.3 4.54.21 2.47-.06 5.16 1.25 7.38 1.13 2.48 5.41 2.18 4.96 5.53 1.55.8.53 2.3.46 3.48 2.19-.12 4.39-.19 6.59-.14-1.86 2.35-4.92 1.63-7.49 1.55.21.22.61.66.82.88.93.26 2.79.77 3.73 1.03-1.82 1.54-4.19.74-6.33.88 1.28.87 2.68 1.54 4.05 2.27-1.52.94-3.24.38-4.89.37-2.39 1.1-5.17.11-7.49 1.54-1.6-2.02-4.76-1.93-5.93-4.24l-3.83 1.52 3.24-3.76-3.17.45c1.76-1.63 4.05-1.74 6.29-1.81 2.7 2.49 6.07 1.44 9.26.8-.7-1.62-2.44-1.65-3.94-1.98l.93-2.43c-2.6-1.14-5.83-1.86-6.85-4.91-2.48.02-3.69 1.87-3.84 4.19-1-2.97-3.2-5.04-5.51-7.02 1.43.18 2.85.38 4.28.6 1.92-3.75-2.32-7.08-1.19-10.86.6-2.78 3.07-5.02 2.79-7.98-.61-6.24-8.09-8.3-9.82-14.05-.59-1.97-2.03-3.5-3.06-5.24-3.14 1.62-6.39 3.15-9.65 4.55 1.18-1.58 2.45-3.08 3.68-4.61 1.75-.35 3.61-.51 5.08-1.61-1 .07-3.01.2-4.02.27-.75-1.09-1.3-2.28-1.9-3.45-.52.25-1.55.76-2.06 1.01-.23-.48-.69-1.42-.92-1.89-2.45.52-5-.32-7.32.9.65-1.04 1.3-2.08 1.96-3.11-.34-.69-1.02-2.07-1.35-2.76-.65.14-1.93.4-2.57.53 1.4-.91 2.81-1.79 4.26-2.62-.22-1.39-.47-2.78-.74-4.16 1.69 1.34 4.1 2.08 4.94 4.21.49 1.99 2.87 1.53 4.37 2.07 1.35 1.02 2.74 1.99 4.17 2.89 1.46-2.43 3.84-4 6.62-4.59l-1.75-1c.66.21 1.29.5 1.89.86 2.15-.4 4.28-.9 6.44-1.27-1.89-.86-3.64-2-4.83-3.73 4.25-.6 7.59 2.84 11.74 2.97 3.63.11 7.24-.53 10.79-1.17-2.47-2.02-6.31-1.49-8.41-3.93 1.16-2.26 4.86-.85 7.05-1.36.86.38 1.73.74 2.61 1.1-.3-1.09 0-2.71-1.43-3.04-2.69-.97-5.68-.98-8.21-2.43.61-1.38 1.24-2.76 1.89-4.12 2.93-.68 6.01-.79 8.76-2.11 2.54.1 5.09.12 7.63.14-.61-2.04-1.37-4.08-1.43-6.24m-2.84 9.69c-.96 1.48 1.63 2.38 2.55 1.39 1.06-1.4-1.68-2.29-2.55-1.39z"/>
        <path d="M58.44 27.1c1.06-2.83 3.65-4.58 6.61-4.95-.77 1.94-2.35 3.32-3.76 4.78 2.95 2.45 6.9 2.35 10.51 2.57-3.97.72-8.13 1.49-12-.08l-1.36-2.32zm-.79 7.3c-1.47-1-2.47-3.12-1.36-4.75.91 1.19 1.61 2.57 2.75 3.57 2.64.88 5.57 1.08 7.77 2.99-3.12.19-6.54.14-9.16-1.81zm35.08.64c3.25 1.84 6.83 1.9 10.35.98-2.57 3.7-8.98 4.04-10.35-.98zm4.62 14.24c.28-2.89-1.32-6.9 1.87-8.63-.38 2.98-.8 6.04 1.01 8.69-.27 4.57-6.54 7.42-9.57 3.39 2.52-.5 5.39-.9 6.69-3.45zm-9.59 8.03c3.85.81 6.63 4.04 10.61 4.46-3.74 4.51-8.97-.68-10.61-4.46zm-16.77 31.3c3.43-.2 7.38-1.43 10.33.94-3.13-.14-5.91.93-8.26 2.96-.71-1.28-1.4-2.58-2.07-3.9z"/>
    </g>
</svg>
