<svg width="128pt" height="128pt" viewBox="0 0 128 128" xmlns="http://www.w3.org/2000/svg">
    <path d="M16.63 45.39c-.13-.17-.39-.52-.52-.7 4.45.87 8.94 1.38 13.42 1.98.13 2.89 2.97 3.16 5.12 3.89 4.18 2.2 8.85 3.11 13.2 4.9 12.05 4.25 24.13 8.42 36.2 12.64 2.19.73 4.33 1.75 6.68 1.86-.78 3.54-3.71.12-5.75-.13-18.35-6.22-36.52-12.95-54.94-18.92h-1.72c.1.52.29 1.56.39 2.08-3.92-2.7-8.03-5.1-12.08-7.6zm74.49 25.74c2.12-.94 4.52-.81 6.64.05 3.77 1.38 7.77 2.14 11.4 3.89-.43.06-1.29.18-1.73.24 0 1.34.01 2.68.03 4.02-4.68-1.61-9.49-2.85-14.08-4.69-.96-1-1.83-2.19-2.26-3.51z" fill="#fff"/>
</svg>
