<svg width="128pt" height="128pt" viewBox="0 0 128 128" xmlns="http://www.w3.org/2000/svg">
    <path d="M96.83 55.03c1.03-.85 2.05-1.71 3.06-2.59 3.99 3.74 8.08 7.44 12.56 10.59-3.98 3.97-8.4 7.44-12.62 11.15-.99-.81-1.98-1.61-2.98-2.39 1.84-1.76 3.53-3.67 4.88-5.83-1.68-.19-3.36-.35-5.05-.49l-.92 2.12c-.35-2.45-.54-4.91-.69-7.37 2.61.35 5.23.54 7.85.78-2.14-1.88-4.06-3.97-6.09-5.97zm-80.94-.16c1.9.19 3.97-.41 5.78.36 2.27 1.88 3.68 4.81 6.49 6-1.28-2.45-3.34-4.34-5.17-6.37 1.8 0 3.59-.01 5.39-.04 2.43 2.13 4.04 5.6 7.44 6.29-1.64-2.31-3.66-4.32-5.64-6.33 1.85.13 3.87-.48 5.63.28 2 1.72 3.66 3.79 5.48 5.7 10.34.18 20.69-.13 31.02.08 1.34 1.74.24 4.63.37 6.79-.53-.96-1.29-1.94-2.54-1.75-9.71-.06-19.42-.01-29.14-.01-1.76 1.95-3.55 3.88-5.36 5.78-1.79-.04-3.57-.06-5.36-.09 1.77-1.87 3.62-3.68 5.27-5.66-3.35.07-4.8 3.93-7.32 5.68-1.75-.02-3.51-.03-5.26-.03 1.72-1.87 3.45-3.74 5.03-5.74-3.07.47-4.2 3.84-6.51 5.51-1.79.54-3.72.15-5.56.2 1.54-1.94 3.2-3.78 4.81-5.66l-3.51.04c.04-1.71.06-3.42.08-5.13.88-.02 2.64-.06 3.52-.07-1.61-1.97-3.3-3.89-4.94-5.83z" fill="#fff"/>
    <path fill="#303030" opacity=".19" d="M94.49 58.16c2.93-1.65.28 3.32 0 0z"/>
</svg>
