<svg width="128pt" height="128pt" viewBox="0 0 128 128" xmlns="http://www.w3.org/2000/svg">
    <g fill="#fff">
        <path d="M57.47 15.61c.63.02 1.88.08 2.51.11.79 1.54 1.58 3.15 3.04 4.16 6.57 5.12 14.29 9 19.37 15.81 5.92 8.95 12.51 18.27 13.1 29.36.11 2.27-1.47 4.06-2.09 6.15-1.38 5.93-5.34 10.7-8.35 15.85-3.95 7.18-10.71 12.22-17.5 16.53-3.03 2.22-6.93 4.28-7.69 8.33-1.33-1.35-2.6-2.75-3.83-4.17 1.95-2.56 3.82-5.19 6.04-7.52 2.84-2.67 6.45-4.32 9.43-6.81 4.36-3.56 7.99-7.99 10.72-12.89 1.62-4.24 5.1-7.78 5.12-12.55-.05-6.08.63-12.95-3.4-18-3.5-8.13-9.39-15.32-17.08-19.83-4.98-2.74-8.26-7.52-11.4-12.1.5-.61 1.51-1.83 2.01-2.43z"/>
        <path d="M49.09 25.04l2.02-1.66c3.99 2.86 5.87 7.72 9.66 10.85 4.28 3.36 7.73 7.63 12.06 10.94 4.87 5.02 7.15 12.04 7.75 18.9-.91 6.22-3.09 12.47-7.35 17.18-4.54 3.41-7.95 8.1-12.71 11.24-3.91 2.41-5.76 6.8-8.89 9.99-1.1-1.23-2.18-2.46-3.27-3.68C53 90.88 60.1 84.95 66.4 78.42c2.39-3.59 6.58-6.61 6.37-11.37-.08-4.76.61-10.19-2.58-14.18-3.13-4.48-6.42-8.91-10.46-12.62-4.61-4.15-8.85-9.16-10.64-15.21z"/>
    </g>
</svg>
