<svg width="128pt" height="128pt" viewBox="0 0 128 128" xmlns="http://www.w3.org/2000/svg">
    <path fill="#330b0c" opacity=".42" d="M49.3 11.06c.86.67 1.72 1.34 2.59 2.01l-.11.44c-.51 2.13-.95 4.29-1.63 6.37-.02-2.96-.34-5.91-.85-8.82z"/>
    <path d="M50.15 19.88c.68-2.08 1.12-4.24 1.63-6.37 1.11 4.6.17 9.48-1.65 13.74-2.93 2.52-1.17 7.35-4.64 9.41-1.03-6.01.63-12.19 4.66-16.78zM16.36 37.04c8.84-.1 10.27 10.32 15.6 15.26l-.45 3.72c-1.43-.69-2.87-1.37-4.27-2.14-2.31-3.07-3.77-6.69-4.29-10.5-.52-3.38-3.65-5.28-6.59-6.34zm75.04 8.65c5.42-.91 11.11.33 15.48 3.7 2.76 2.27 6.49 1.49 9.69.9-1.09.65-2.16 1.31-3.28 1.89-3.55.13-7.12-.13-10.54-1.1l-.57-.14c-1.95-.54-3.93-.95-5.93-1.18-1.61-1.37-3.2-2.76-4.85-4.07zm-46.13 55.29c2.66-1.41 5.69-1.51 8.47-.39-.41.36-1.23 1.06-1.64 1.42-2.58 1.54-5.48 2.36-8.39 2.99-3.58.45-6.05 3.5-6.98 6.8-.38-5.31 4.31-8.73 8.54-10.82z" fill="#e73439"/>
    <path fill="#d63031" d="M88.3 21.31c1.2-1.33 1.86-3.02 2.68-4.59.25 4.33-3.03 7.82-6.82 9.35-1.22.35-2.33 1-3.23 1.89-1.89 1.51-3.85 2.94-5.42 4.78-1.52-.72-3.01-1.48-4.43-2.38 1.15-1.17 2.26-2.39 3.53-3.43 4.08-3.08 9.6-2.67 13.69-5.62z"/>
    <path fill="#2c0a0a" opacity=".4" d="M74.61 26.93c3.37-4.11 9.17-3.67 13.69-5.62-4.09 2.95-9.61 2.54-13.69 5.62z"/>
    <path fill="#461011" opacity=".54" d="M80.93 27.96c.9-.89 2.01-1.54 3.23-1.89.68 1.62-2.08 3.05-3.23 1.89z"/>
    <path d="M45.49 36.66c3.47-2.06 1.71-6.89 4.64-9.41-.02 2.48-1.13 5.58 1.09 7.49 2.85 1.81 6.34 2.61 8.57 5.35-.49.24-1.45.71-1.93.95-.49-.21-1.47-.64-1.96-.85l-1.02.06c-.56.03-1.68.11-2.24.14l-1.2 3.15c-1.19.36-2.38.71-3.57 1.06-.94-2.59-2.23-5.16-2.38-7.94zm-7.75 33.81c1.14-1.72 3.63-1.63 5.24-2.53-1.37 1.48-3.42 2.88-2.9 5.21.92 2.61 2.74 4.74 4.23 7.04-5.1 2.49-10.89 3.41-16.47 2.2 1.56-.21 3.12-.46 4.67-.73-.46-1.67-1.69-2.8-3.27-3.42 1.65-.13 3.64.24 4.94-1.04 1.68-1.95 2.21-4.58 3.56-6.73z" fill="#cb2d31"/>
    <path fill="#b52929" d="M65.34 43.56c.62-4.87 2.77-9.35 5.74-13.2 1.42.9 2.91 1.66 4.43 2.38.35 4.46 4.73 9.5.47 13.36-.58-1.43.39-3.95-1.15-4.88-2.42-.03-2.59 2.48-2.57 4.28 2.63 1.25 5.08 2.9 6.93 5.19 1.49-.9 2.99-1.79 4.49-2.68 1.6 2.24 3.43 4.39 4.28 7.05-1.74.07-3.45.42-4.92 1.41.75 2.95 1.24 5.96 1.36 9.01 1.81.43 3.62.85 5.38 1.45-1.32 3.37.91 6.35 2.06 9.35-3.12 2.07-6.81 2.37-10.13.56 1.83-.6 3.7-1.07 5.56-1.61-.77-1.89-2.49-2.68-4.38-3.02-1.51 2.66-3.32 5.13-5.47 7.3 1.31 2.18 2.58 4.39 3.64 6.7.57 1.64 1.09 3.32 1.24 5.05-.44.4-1.31 1.21-1.75 1.62-.68 2.72-.41 5.92-2.78 7.9-.11-2.12.4-4.35-.3-6.39-2.33-2.56-6.49-2.5-8.49-5.46-.64-1.22-.8-2.63-1.22-3.93 1.42 1.53 3.04 2.91 5.2 3.19-.19-1.61.11-3.61-1.42-4.68-3 .33-5.97.95-9 1.09-.47 1.88-.97 3.76-1.47 5.64l-.23.8c-.62-.74-1.26-1.46-1.88-2.2-2.83-.03-5.64-.65-8.47-.38l-.74.04c-.11-2.34.51-4.57 1.47-6.68.46 1.77.92 3.53 1.4 5.3 2.05-.46 3.1-2.09 3.07-4.14-1.14-.69-2.28-1.37-3.38-2.11-1.19-.83-2.23-1.83-3.42-2.66-1.72-.18-3.08 1.33-4.58 1.98-1.49-2.3-3.31-4.43-4.23-7.04.83.1 1.66.21 2.5.33.89-.88 2.61-1.78 1.8-3.32-.73-2.65-.86-5.39-.87-8.12-.03-.31-.08-.93-.11-1.24l-1.65-1.13c.52-1.31 1.04-2.62 1.55-3.93.51.01 1.52.01 2.02.02l.59-1.54c1.22-1.87 2.79-3.47 4.04-5.32-.18-1.63-1.3-2.92-2.08-4.3 1.19-.35 2.38-.7 3.57-1.06l1.2-3.15c.56-.03 1.68-.11 2.24-.14-1.45 3.71 2.77 6.32 5.77 4.15l.38-.18c1.43-.26 2.86-.48 4.31-.66z"/>
    <path fill="#180506" opacity=".32" d="M54.88 40.25l1.02-.06c.49.21 1.47.64 1.96.85.91 1.15 1.49 2.58 2.79 3.36-3 2.17-7.22-.44-5.77-4.15z"/>
    <path fill="#c62c31" d="M83.68 48.01c2.5-.99 5.03-2.01 7.72-2.32 1.65 1.31 3.24 2.7 4.85 4.07-.53.2-1.58.59-2.11.79-2.93 2.62-2.57 8.23-7.02 9.17l-2.41.44c1.77-1.21 3.23-2.83 3.25-5.1-.85-2.66-2.68-4.81-4.28-7.05z"/>
    <path fill="#c32c2e" d="M40.28 50.29c2.3-.77 4.33.87 6.2 1.93-1.75.03-3.5.07-5.25.12-.09 1.59.42 2.94 2.07 3.4-.51 1.31-1.03 2.62-1.55 3.93l1.65 1.13c.03.31.08.93.11 1.24l-.41.34c-6.12-.49-11.9-3.85-15.86-8.5 1.4.77 2.84 1.45 4.27 2.14l.45-3.72c2.96.28 5.6-1.12 8.32-2.01z"/>
    <path fill="#370c0d" opacity=".49" d="M94.14 50.55c.53-.2 1.58-.59 2.11-.79 2 .23 3.98.64 5.93 1.18-2.67-.24-5.36-.37-8.04-.39z"/>
    <path fill="#461112" opacity=".53" d="M102.75 51.08c3.42.97 6.99 1.23 10.54 1.1-3.41 1.74-7.34.52-10.54-1.1z"/>
    <path fill="#c62d31" d="M91.84 76.28c-1.15-3-3.38-5.98-2.06-9.35 2.13.93 4.21 1.95 6.2 3.13 1.3.99 2.5 2.1 3.73 3.17l.03.44c.15 3.15.42 6.32 1.3 9.36-1.48-2.17-2.73-4.54-4.57-6.44-1.42-.77-3.11-.28-4.63-.31z"/>
    <path fill="#d83233" opacity=".96" d="M99.74 73.67c.3.27.91.81 1.22 1.08 2.7 3.57 3.03 8.13 4.8 12.11.27.35.82 1.07 1.09 1.43.36.84.64 1.7.85 2.59-3.02-1.81-5.19-4.7-6.66-7.85-.88-3.04-1.15-6.21-1.3-9.36z"/>
    <path fill="#2b0a0a" opacity=".38" d="M100.96 74.75c3.76 2.72 4.15 7.89 4.8 12.11-1.77-3.98-2.1-8.54-4.8-12.11z"/>
    <path fill="#ef3839" d="M11.62 77.68c5.39-3.87 11.92-.68 17.62.56 1.58.62 2.81 1.75 3.27 3.42-1.55.27-3.11.52-4.67.73-2.55-.57-4.75-2.01-6.82-3.52-2.71-2.12-6.24-2.06-9.4-1.19z"/>
    <path fill="#230808" opacity=".35" d="M10.61 78.85l1.01-1.17c3.16-.87 6.69-.93 9.4 1.19-3.42-1-6.97-.73-10.41-.02z"/>
    <path fill="#c62f31" d="M50.49 88.46c2.83-.27 5.64.35 8.47.38.62.74 1.26 1.46 1.88 2.2-1.75 3.56-3.95 6.9-6.86 9.62l-.24-.07c-2.78-1.12-5.81-1.02-8.47.39 2.31-1.48 5.01-2.73 6.49-5.15.55-2.54-.56-5-1.27-7.37z"/>
    <path fill="#2b0a0a" opacity=".36" d="M106.85 88.29c1.76.8 3.43 1.77 5.01 2.89-1.33.43-2.7.36-4.05.15l-.11-.45c-.21-.89-.49-1.75-.85-2.59z"/>
    <path fill="#ce3031" d="M80.55 92.88c.44-.41 1.31-1.22 1.75-1.62.79 4.86.39 10.22-2.64 14.29-2.45 2.54-2.74 6.11-3.29 9.42-1.73-4.65-.39-9.8 1.4-14.19 2.37-1.98 2.1-5.18 2.78-7.9z"/>
    <path fill="#300b0a" opacity=".42" d="M76.37 114.97c.55-3.31.84-6.88 3.29-9.42-1.84 3.64-2.79 7.71-.94 11.56-.81-.55-1.62-1.11-2.44-1.65l.09-.49z"/>
</svg>
