<svg width="128pt" height="128pt" viewBox="0 0 128 128" xmlns="http://www.w3.org/2000/svg">
    <g fill="#fff">
        <path d="M68.9 40.08c.82-2.99 2.5-5.63 4.27-8.14.03 2.24.09 4.51 1.03 6.59-2.07.63-4.33 2.14-4.44 4.51-1.17 5.6 6.11 6.32 8.54 10.17 3.04.26 5.1-2.42 7.81-3.31 3.11-1.08 6.29-2.22 9.58-2.53-3.02.93-5.5 3.06-6.47 6.14-1.43-1.5-3.55-.84-5.34-.97-1.21 1.35-3.53 2.33-3.23 4.49.31 3.1 1.35 6.13 1.06 9.29 1.68 2.03 4.42 2.13 6.73 2.99 2.9.94 5.47 2.6 8.09 4.12-2.48-.09-5 .02-7.29 1.1.11-2.14-1.86-3.27-3.22-4.55-1.38.01-2.76.01-4.14 0-1.7 1.6-2.98 3.56-4.31 5.46-1.01 1.55-3.14 2.67-2.73 4.82 3.12 4.93 5.54 10.53 5.76 16.43-.4-3.51-2.87-6.19-6.15-7.33.3-.31.9-.92 1.2-1.23.51-3.1-1.23-7.01-4.63-7.31-3.14.57-6.25 1.32-9.46 1.28-.9.98-1.93 2.07-3.38 1.57-.54-4.5-6.22-5.01-8.51-8.44-.59-.02-1.78-.05-2.37-.07-3.81 3.01-8.49 4.55-13.2 5.44 2-1.59 3.89-3.46 4.52-6.04 2.65 2.88 6.67.71 8.62-1.9-.16-3.61-1.34-7.09-1.29-10.73-.31-.39-.94-1.16-1.25-1.55-4.9-.98-9.64-2.82-13.55-5.98 2.42.73 5 .55 7.27-.61.78 3.53 4.91 5.83 8.17 4.03 2.39-2.5 3.73-5.83 6.39-8.12-.03-.54-.07-1.63-.1-2.18-3.13-3.86-4.44-8.71-5.53-13.46 1.56 2.21 3.59 4.11 6.22 4.93-.3.22-.91.66-1.22.87-.69 3.12.63 6.25 3.58 7.59 3.45-.02 6.76-1.55 10.26-1.18 1.96-1.47 1.95-4.06 2.71-6.19z"/>
        <path d="M58.07 83.8c.52.85 1.04 1.69 1.56 2.54-1.22 3.72-3.07 7.14-5.13 10.44.15-2.42.16-4.9-.94-7.13 2.54-.72 5.06-2.87 4.51-5.85z"/>
    </g>
</svg>
