<svg width="128pt" height="128pt" viewBox="0 0 128 128" xmlns="http://www.w3.org/2000/svg">
    <path fill="#bd2c2c" d="M19.11 20.15c3.95-2.07 8.06-4.08 12.49-4.87-3.09 3.38-7.24 5.6-10.13 9.18-2.8 3.17-4.3 7.24-5.07 11.34 1.25-.19 2.5-.39 3.73-.71 4.06-.67 6.1-4.96 9.98-6.07 5.32-1.69 10.55-4.11 16.17-4.5-8.51 5.09-18.44 9.2-23.94 17.93-.41 1.96 1.46 3.24 2.39 4.72 4.65.64 9.04 2.38 13.59 3.45 3.38.75 6.62 2.48 10.18 2.07 1.42-3.01 3.14-5.85 4.68-8.79.57-1.05.36-2.77 1.77-3.09.26.11.78.35 1.03.46-.57 5.37-2.71 10.45-3.17 15.84.42 1.62 1.53 2.93 2.38 4.33-.24 2.37-.88 4.66-1.84 6.84-.75-1.06-1.48-2.12-2.2-3.18-1.82-2.46-3.15-5.47-5.69-7.29-5.64-2.34-11.48-4.26-17.52-5.27-3.37-.82-7.16-1.13-9.94-3.39-2.53-5.12-4.79-10.39-7.74-15.31 3.09-4.47 5.48-9.43 8.85-13.69z"/>
    <path fill="#d63031" d="M96.69 15.33c4.23.38 7.93 2.59 11.69 4.36 1.35.58 2.02 1.94 2.82 3.08 2.33 3.74 4.6 7.51 7.01 11.19-2.17 3.57-4.16 7.26-5.83 11.09-.2-3.43-1.43-6.69-3.24-9.58.68.12 2.05.37 2.73.49-.37-4.1-2.11-8-4.66-11.19-3-3.69-7.14-6.15-10.52-9.44z"/>
    <path fill="#e73439" d="M82.4 24.21c5.3 1.21 10.49 2.89 15.61 4.71 4.28 1.26 6.55 5.91 11.13 6.55 1.81 2.89 3.04 6.15 3.24 9.58-.58 1.5-1.31 2.92-2 4.36-5.83 2.92-12.45 3.38-18.69 4.96.24-1.02.73-3.05.97-4.07.03-.1.07-.3.1-.39 3.63-.9 7.17-2.19 10.9-2.66 1.02-1.42 2.02-2.84 3-4.29-2.43-3.09-4.93-6.19-8.09-8.57-3.8-2.97-8.31-4.85-12.15-7.78-1.72-.18-3.06-.98-4.02-2.4z"/>
    <path fill="#310b0c" opacity=".44" d="M53.99 37.97c.9.82 1.72 1.74 2.57 2.62.14 6.55-4.44 12.93-2.07 19.36 5.11-.44 10.91-2.71 15.73-.17-4.55-.47-9.14-.36-13.64.46l-.28 2.22c-.55 2.24-1.56 4.32-2.54 6.39-1.18-.46-2.37-.91-3.52-1.44.23-.58.68-1.73.91-2.31.72 1.06 1.45 2.12 2.2 3.18.96-2.18 1.6-4.47 1.84-6.84-.85-1.4-1.96-2.71-2.38-4.33.46-5.39 2.6-10.47 3.17-15.84-.25-.11-.77-.35-1.03-.46-1.41.32-1.2 2.04-1.77 3.09.35-1.96.57-3.95.81-5.93z"/>
    <path d="M72.46 41c.43-.64 1.3-1.92 1.73-2.55-.53 5.48 3.86 9.32 5.6 14.15 4.46.65 8.46-2.14 12.87-2.3-.24 1.02-.73 3.05-.97 4.07-2.52 1.59-5.93 2.17-8.79 3.35-3.29 3.19-5.36 7.29-7.93 11.02 3.42-1.37 6.48-3.42 9.77-5.05 3.99-1.95 7.5-5.26 12.18-5.34-1.17 4.92-3.21 9.63-5.97 13.87l-.61.01c-3.29.02-6.58.18-9.86.26 3.29-3.44 7.28-6.05 11.09-8.87-4.9 1.51-9.31 4.51-12.57 8.44.22 1.14.49 2.26.81 3.37 1.11 5.01 1.14 10.24.5 15.32-1.27 1.22-2.5 2.5-3.55 3.91-.37.51-1.11 1.52-1.48 2.02-2.1-4.21-.84-8.99-2.43-13.31 1.03-.35 2.07-.68 3.1-1.06 2.88-1.05 1.41-4.8 1.95-7.1l-1.12.6c-1.84-.11-3.66-.32-5.49-.53-.03-4.72.56-9.42.61-14.13 2.09-.42 2.83-2.4 3.75-4.05-1.04-5.36-2.94-10.64-3.19-16.1zm-18.7 27.85c.98-2.07 1.99-4.15 2.54-6.39 1.44 1.72 3.12 3.37 3.84 5.56-1.15 1.05-2.44 1.93-3.7 2.85.45.75.89 1.5 1.33 2.25 2.76.63 5.47 1.57 7.58 3.51-1.34.91-2.69 1.82-4.04 2.72.4.99.79 1.97 1.19 2.96 1.56-.95 2.92-2.16 4.42-3.19 1.25.45 2.41 1.08 3.6 1.68-2.67 2.9-5.93 5.14-9.5 6.79 2.59 1.1 5.08 2.46 7.28 4.24.13 3.61.66 7.19 1.15 10.77-2.73-.5-5.5-.71-8.27-.67-.8.46-1.6.91-2.4 1.35 1.37-5.67 1.44-11.51 1.22-17.31L59 86v2.34c-2.38.27-4.73-.04-6.28-2.05 1.59-1.5 4.76-3.31 2.88-5.8-.32-.69-.97-2.06-1.29-2.75-.47-1.4-1.4-1.97-2.79-1.71l-.21-.32-1.16-.44-1.51.6c.29-1.24.61-2.47.93-3.71-1.82-1.76-3.66-3.51-5.67-5.07.21-.7.62-2.09.82-2.79 1.93.88 3.71 2.01 5.52 3.11 1.15.53 2.34.98 3.52 1.44z" fill="#c62d31"/>
    <path fill="#b52829" d="M31.5 58.29c5.03.38 8.87 3.86 13.24 5.94l-.02.07c-.2.7-.61 2.09-.82 2.79-2.01-1.39-4.25-2.41-6.52-3.3 3.72 2.82 7.63 5.45 10.8 8.92-3.51-.11-7.01-.38-10.5-.75l-.66-.07c-2.19-4.38-4.62-8.73-5.52-13.6z"/>
    <path fill="#d63131" d="M56.58 60.24c4.5-.82 9.09-.93 13.64-.46l1.69.12-.01 1.25c-.05 4.71-.64 9.41-.61 14.13 1.83.21 3.65.42 5.49.53-2.39 1.67-3.86 4.18-4.75 6.9l3.92-.4c-1.03.38-2.07.71-3.1 1.06 1.59 4.32.33 9.1 2.43 13.31-1.53 2.38-2.84 4.9-4.22 7.37-2.11-6.08-.51-12.7-2.42-18.79-.27 2.18-.41 4.38-.34 6.57-2.2-1.78-4.69-3.14-7.28-4.24 3.57-1.65 6.83-3.89 9.5-6.79-1.19-.6-2.35-1.23-3.6-1.68-1.5 1.03-2.86 2.24-4.42 3.19-.4-.99-.79-1.97-1.19-2.96 1.35-.9 2.7-1.81 4.04-2.72-2.11-1.94-4.82-2.88-7.58-3.51-.44-.75-.88-1.5-1.33-2.25 1.26-.92 2.55-1.8 3.7-2.85-.72-2.19-2.4-3.84-3.84-5.56l.28-2.22z"/>
    <path fill="#2e0b0b" opacity=".44" d="M37.38 63.79c2.27.89 4.51 1.91 6.52 3.3 2.01 1.56 3.85 3.31 5.67 5.07-.32 1.24-.64 2.47-.93 3.71-.36 1.51-.6 3.04-.86 4.56-1.07 2.73-1.4 5.63-1.39 8.55-.26-5.33 1.46-10.47 1.82-15.75-3.33-.63-7.93 1.48-10.53-1.27 3.49.37 6.99.64 10.5.75-3.17-3.47-7.08-6.1-10.8-8.92z"/>
    <path fill="#3e0e0f" opacity=".54" d="M79 72.06c3.26-3.93 7.67-6.93 12.57-8.44-3.81 2.82-7.8 5.43-11.09 8.87 3.28-.08 6.57-.24 9.86-.26-2.96 1.89-6.72.65-10 .84-.13.59-.4 1.77-.53 2.36-.32-1.11-.59-2.23-.81-3.37z"/>
    <path d="M48.64 75.87l1.51-.6c.61 2.46-.42 7.02 3.26 7.3.34-.19 1.02-.58 1.37-.77.2-.33.62-.98.82-1.31 1.88 2.49-1.29 4.3-2.88 5.8 1.55 2.01 3.9 2.32 6.28 2.05.09 5.23-.44 10.45-1.34 15.6-.83-1.09-1.66-2.17-2.45-3.28-1.82-2.79-3.21-5.88-5.58-8.28-3.28-3.05-1.68-8-1.85-11.95.26-1.52.5-3.05.86-4.56zm21.73 28.46c.64 1.35 1.27 2.71 1.92 4.06-1.54 1.81-2.93 3.73-4.24 5.71-2.69.01-5.39 0-8.08-.04.03-.51.1-1.54.13-2.05 3.45-.21 7.56 1.06 10.34-1.62-3.4.34-6.85.71-10.25.07 2.81-.28 5.64-.37 8.46-.38.58-1.91 1.15-3.83 1.72-5.75z" fill="#b5292b"/>
    <path fill="#751b1e" opacity=".76" d="M51.52 76.03c1.39-.26 2.32.31 2.79 1.71-1.34.2-2.27-.37-2.79-1.71z"/>
    <path opacity=".1" d="M81.67 90.38c-.99-4.75-1.4-9.9-.18-14.65.72 4.85.88 9.8.18 14.65z"/>
    <path fill="#441010" opacity=".62" d="M59 86l1-.03c.22 5.8.15 11.64-1.22 17.31.8-.44 1.6-.89 2.4-1.35 2.77-.04 5.54.17 8.27.67-.49-3.58-1.02-7.16-1.15-10.77-.07-2.19.07-4.39.34-6.57 1.91 6.09.31 12.71 2.42 18.79 1.38-2.47 2.69-4.99 4.22-7.37.37-.5 1.11-1.51 1.48-2.02-1.57 3.64-3.76 6.95-5.45 10.52.43 1.28.86 2.56 1.28 3.84l-.3-.63c-.65-1.35-1.28-2.71-1.92-4.06-.57 1.92-1.14 3.84-1.72 5.75-2.82.01-5.65.1-8.46.38 3.4.64 6.85.27 10.25-.07-2.78 2.68-6.89 1.41-10.34 1.62-.03.51-.1 1.54-.13 2.05-.85-1.1-1.7-2.19-2.54-3.29l.96-.25c.26-.06.79-.19 1.06-.25-.04-1.7-.07-3.39-.07-5.08-.47-.53-.95-1.06-1.43-1.58-.21.53-.63 1.61-.83 2.14-.67-1.69-1.32-3.38-1.91-5.09.79 1.11 1.62 2.19 2.45 3.28.9-5.15 1.43-10.37 1.34-15.6V86m1.06 21.86c2.59.07 5.2.3 7.79-.03 1.35-.44 1.86-2.23 1.02-3.33-1.37-2.46-4.6-1.33-6.89-1.48-2.67-.1-1.77 3.17-1.92 4.84z"/>
    <path fill="#bd2b2c" d="M60.06 107.86c.15-1.67-.75-4.94 1.92-4.84 2.29.15 5.52-.98 6.89 1.48.84 1.1.33 2.89-1.02 3.33-2.59.33-5.2.1-7.79.03z"/>
    <path fill="#942324" opacity=".91" d="M57.95 103.61c.48.52.96 1.05 1.43 1.58 0 1.69.03 3.38.07 5.08-.27.06-.8.19-1.06.25-2.6-.41-2.34-3.08-1.27-4.77.2-.53.62-1.61.83-2.14z"/>
</svg>
