<svg width="128pt" height="128pt" viewBox="0 0 128 128" xmlns="http://www.w3.org/2000/svg">
    <g fill="#a52021">
        <path d="M65.23 13.61c1.76 2.77 3.7 6.27 2.02 9.55-1.42 1.85.11 5.4-3.28 5.4.77.44 1.55.85 2.28 1.36 1.77 1.88 3.52 4.36 3.04 7.09-.72 3.01-2.64 5.55-5.05 7.43 1.81-4.36 1.86-10.26-2.87-12.76-2.67-2.06-6.1-2.1-8.88-.24.5.25 1.49.76 1.99 1.02l1.36.74c.19.46.57 1.38.75 1.84-4.1 2.64-6.9 7.42-11.78 8.69.93-1.36 2.32-2.68 2.26-4.45-.72-1.37-2.64-1.56-4.02-1.41-2.07 1.33-2.68 3.92-3.66 6.01l-.38-1.2c.05-1.89.17-3.78.42-5.65.76-1.53 2.28-2.33 3.83-2.83.51-1.1 1.03-2.19 1.55-3.28 4.03-.98 6.92-4.82 11.23-4.71 2.39-.16 4.74.45 6.75 1.77-.82-2.02.95-3.57 1.65-5.33 1.5-2.79.81-6.03.79-9.04M50.3 30.1c-1.07.22-2.43 1.51-1.81 2.66 1.36.9 3.71-2.18 1.81-2.66z"/>
        <path d="M57.93 13.5c1.51 1.42 2.66 3.07 3.45 4.96-.39 1.69-2.52 3.76-.99 5.37l1.52 1.6c-1.72.13-3.43.2-5.15.23 1.97-3.78 2.56-8.04 1.17-12.16zm16.39 2.52c.91 3.3 1.11 6.73.61 10.11l-.05.59-1.21.11c-1.45-.2-3.65 1.25-2.41 2.78l.73 1.23c-.53.48-1.58 1.45-2.1 1.93-1.14-1.04-2.24-2.15-3.64-2.85 4.11-3.63 7.87-8.12 8.07-13.9zM40.57 45.71c1.22-2.63 2.36-5.35 4.32-7.54-.53 2.05-1.14 4.07-1.87 6.05-.8.78-1.77 1.35-2.68 1.99l.23-.5zm16.72-7.11c2.86.57 4.08 3.14 5.1 5.55-1.99 4.1-6.46 5.63-9.78 8.35-1.79 1.21-1.38 3.53-1.58 5.37 1.84 1.33 3.69 2.8 6 3.18 9.42 2.07 19.32 2.77 28.1 7.03 4.83 2.28 9.03 6.48 9.98 11.9.85 5.76.06 11.95-2.94 17.02-4.03 6.53-10.71 11.37-18.23 13-7.7 1.47-15.86.69-23.02-2.55.53-.12 1.59-.35 2.12-.47-.15-1.17-.31-2.33-.49-3.5 7.68 2.31 16.61 4.02 23.96-.21 5.16-3.22 10.23-7.86 11.27-14.16 1.01-3.5-.11-7.53-2.98-9.83-3.39-3.06-8.17-3.27-12.46-3.79.22 2.6.38 5.2.43 7.8-2.33-2.35-4.6-4.86-7.56-6.44l.03-.23c.08-.66.26-1.96.34-2.62l-2.16-2.25c.88-.67 1.73-1.36 2.56-2.08-.26-1.24-.68-2.43-1.07-3.62.25-.88.49-1.76.74-2.64-2.13 1.05-4.2 2.2-6.2 3.47.34 2.66.63 5.32.89 7.99-5.85-1.94-12.62-3.6-16.17-9.12-3.05-4.3-1.83-10.34 1.57-14.06 3.6-4.65 10.98-3.42 14.12-8.61-.88-1.48-1.74-2.97-2.57-4.48z"/>
        <path d="M93.02 53.72c4.9 2.04 9.58 4.89 12.59 9.38-3.17-1.59-6.95-2.52-10.24-.75-.47 2.12-.85 4.25-1.16 6.4-4.72-2.86-9.11-6.52-14.54-7.96l.33-.28c.99-.83 1.94-1.69 2.9-2.55 1.04.61 2.08 1.23 3.12 1.84.62-.91 1.24-1.82 1.87-2.72 1.78-1.01 3.51-2.12 5.13-3.36zM34.1 70.07c.96-.38 2.89-1.13 3.85-1.51.52.36 1.57 1.07 2.09 1.43.77.53 1.54 1.05 2.31 1.58-.3 2.48-.31 5 .58 7.37 1.97-.38 3.93-.75 5.91-1.08-.17 2.73-2.55 3.25-4.76 3.74.14.3.41.89.54 1.18l.5 1.08c-1.67 1.86-3.61 3.57-6.2 3.88.82-2.26 3.75-4.01 2.71-6.62-.2-.54-.59-1.62-.78-2.16-.35-.84-.7-1.67-1.05-2.51l-1.61.28c-1.53-.35-3.24-.25-4.58-1.16l-.06-.61c.53-.23 1.59-.7 2.12-.94 1.58.3 3.16.56 4.75.79-.66-.79-1.07-1.85-1.95-2.42-1.43-.82-2.94-1.51-4.37-2.32zm27.43 15.28c.85-2.6 1.51-5.27 2.21-7.92 1.2.55 2.4 1.09 3.6 1.63-1.43 2.02-2.78 4.15-3.25 6.63 1.94 0 3.89 0 5.83.1.44.99.9 1.97 1.36 2.95-2.32-1.07-4.57-.43-5.87 1.78-.62.2-1.86.61-2.47.81-1.97-.98-3.92-1.98-5.89-2.95-.66.89-1.33 1.77-2 2.66.2 1.51.4 3.02.59 4.54-1.29-.95-3.03-1.82-3.16-3.65-.62-2.47 1.84-4.01 3.66-5.03-2.91.23-5.72 1.1-7.88 3.14-.55-4.05 3.83-4.62 6.5-6.11 1.49.68 2.85 1.6 4.23 2.46.64-.26 1.9-.78 2.54-1.04zm-28.8 25.37c2.16-2.76 4.16-5.74 7.13-7.71 1.54.81 3.07 1.61 4.64 2.35-1.45.12-2.92.1-4.35.37-1.32.71-2.59 1.49-3.85 2.28.55.42 1.67 1.25 2.22 1.67-.94.61-1.87 1.22-2.82 1.81-2 1.5-4.59 1.23-6.94 1.24 1.06-.51 2.11-1.03 3.15-1.56l.82-.45z"/>
        <path d="M41.86 106.4l3.92.28c-1.03 4.35-5.27 6.6-9.03 8.28.3-.38.88-1.13 1.18-1.51 1.07-1.38 2.3-2.67 3.14-4.21.2-.71.59-2.13.79-2.84zm2.28 8.67c1.17-2.58 1.93-5.31 2.48-8.08 4.9.67 1.19 5.19-.27 7.45-.56.16-1.66.47-2.21.63z"/>
    </g>
    <path fill="#2e090a" opacity=".5" d="M74.32 16.02c-1.03-1.34 1.82-.97 1.48.06.78 3.34.28 6.85-.87 10.05.5-3.38.3-6.81-.61-10.11z"/>
    <path fill="#130304" opacity=".36" d="M61.38 18.46c1.45 1.12.56 4.48-.99 5.37-1.53-1.61.6-3.68.99-5.37z"/>
    <path fill="#220706" opacity=".4" d="M87.78 26.01c4.4-.8 8.9-.54 13.34-.28.16.47.47 1.43.63 1.91-2.7.8-6.22 1.19-7.4 4.21-.52 2.77 1.68 5.03 1.78 7.74-2.83.11-5.67.19-8.48-.26 2.6-.43 5.2-.89 7.8-1.33-.86-2.01-3.04-4.17-1.85-6.52 1.06-2.81 4.36-3.49 6.69-4.85-5.41-1.36-11.06-.26-16.2 1.61.99-1.07 2.17-2.06 3.69-2.23z"/>
    <g fill="#ad2121">
        <path d="M84.09 28.24c5.14-1.87 10.79-2.97 16.2-1.61-2.33 1.36-5.63 2.04-6.69 4.85-1.19 2.35.99 4.51 1.85 6.52-2.6.44-5.2.9-7.8 1.33-5.03.62-10.08 2.12-14.05 5.39-4.83 3.77-10.22 8.44-16.74 7.84l-.83-1.37c12.59-2.94 17.2-17.15 28.06-22.95z"/>
        <path d="M63.93 51.81c9.59-4.1 18.17-11.92 29.15-11.65 4.88-.17 9.56 1.9 13.01 5.29-2.64-1.19-6.3-2.24-8.57.2-2.35 2.1-1.17 5.57-.73 8.2-6.71-1.68-13.73-4.09-20.68-2.17-6.6 1.79-13.09 4.59-20.1 3.74l-.69.56-.92.72c-.37-.29-1.11-.85-1.49-1.13.84-1.17 1.77-2.26 2.82-3.24 2.56 1.76 5.6.34 8.2-.52z"/>
    </g>
    <path fill="#5c1212" opacity=".75" d="M71.26 29.61c-1.24-1.53.96-2.98 2.41-2.78l.16.5c-.45 1.24-1.31 2-2.57 2.28z"/>
    <path fill="#3e0b0c" opacity=".66" d="M50.3 30.1c1.9.48-.45 3.56-1.81 2.66-.62-1.15.74-2.44 1.81-2.66z"/>
    <path fill="#280808" opacity=".49" d="M52.49 31.44c2.78-1.86 6.21-1.82 8.88.24-2.39-.25-5.83-2.54-6.89.78-.5-.26-1.49-.77-1.99-1.02z"/>
    <path fill="#160404" opacity=".39" d="M39.01 42.68c-2.19-.49-1.87-5.41.42-5.65-.25 1.87-.37 3.76-.42 5.65z"/>
    <path fill="#130403" opacity=".38" d="M39.39 43.88c.98-2.09 1.59-4.68 3.66-6.01 1.38-.15 3.3.04 4.02 1.41.06 1.77-1.33 3.09-2.26 4.45-.45.12-1.35.37-1.79.49.73-1.98 1.34-4 1.87-6.05-1.96 2.19-3.1 4.91-4.32 7.54-.3-.46-.89-1.38-1.18-1.83z"/>
    <path fill="#b52324" d="M55.32 55.98c12.73 1.8 25-4.63 37.7-2.26-1.62 1.24-3.35 2.35-5.13 3.36-.63.9-1.25 1.81-1.87 2.72-1.04-.61-2.08-1.23-3.12-1.84-.96.86-1.91 1.72-2.9 2.55-8.49-1.06-18.13 1.41-25.6-3.81l.92-.72z"/>
    <path fill="#ce2829" d="M59.45 66.88c2-1.27 4.07-2.42 6.2-3.47-.25.88-.49 1.76-.74 2.64.39 1.19.81 2.38 1.07 3.62-.83.72-1.68 1.41-2.56 2.08L65.58 74c-.08.66-.26 1.96-.34 2.62-1.63-.6-3.26-1.18-4.9-1.75-.26-2.67-.55-5.33-.89-7.99z"/>
    <path fill="#150404" opacity=".34" d="M33.55 74.96c-.08-1.43-.08-2.87-.28-4.3 1.27 1.65 3.24 1.89 5.2 1.73.88.57 1.29 1.63 1.95 2.42-1.59-.23-3.17-.49-4.75-.79-.53.24-1.59.71-2.12.94z"/>
    <path fill="#340a0a" opacity=".52" d="M40.04 69.99l3.1.93c-.33 2.42-.53 4.87.11 7.26 1.84-.31 3.75-.61 5.17-1.93.89 2.46.98 5.11 1.34 7.69-.35-.09-1.04-.28-1.39-.37-.28-.55-.85-1.65-1.13-2.19-.65.35-1.96 1.05-2.62 1.4-.13-.29-.4-.88-.54-1.18 2.21-.49 4.59-1.01 4.76-3.74-1.98.33-3.94.7-5.91 1.08-.89-2.37-.88-4.89-.58-7.37-.77-.53-1.54-1.05-2.31-1.58z"/>
    <path fill="#ad2021" d="M45.99 70.63c2.4 1.11 4.94 2.21 6.74 4.22-.55 3.15-1.57 6.21-2.97 9.09-.36-2.58-.45-5.23-1.34-7.69-.86-1.85-1.74-3.7-2.43-5.62z"/>
    <path fill="#2c0808" opacity=".45" d="M31.42 78.18c.33-1.28 1.06-2.43 2.13-3.22l.06.61c1.34.91 3.05.81 4.58 1.16l1.61-.28c.35.84.7 1.67 1.05 2.51-2.76-2.26-6.27-1.85-9.43-.78z"/>
    <path fill="#ad2421" d="M36.13 88.88c1.65 1.45 3.27 2.93 5.03 4.26.89.88 2.18 1.01 3.37 1.1 2.79.48 3.58 3.88 4.79 6-3.26.06-6.77-.33-9.69 1.45-3.19 1.59-5.4 4.47-7.22 7.45-.39-1.01-.8-2-1.22-2.99-.26-.24-.77-.7-1.02-.93l-.78-.48c-2.29-.05-4.59.08-6.88.11 1.1-.52 2.21-1.02 3.33-1.52l.95-.41c2.82-.72 5.67-.22 7.67 2.02-.61-1.47-1.08-3.02-1.94-4.37-1.58-1.5-3.82-1.95-5.8-2.69l-1.3-.43c1.91-.33 3.84-.56 5.78-.65l1.32.9c1.93 1.39 3.92 2.7 6.02 3.83-1.57-2.48-3.46-4.71-5.23-7.03l1.8.54 1.02.38c2.64 1.15 5.12 2.63 7.73 3.85-1.24-2.1-2.91-3.9-4.97-5.21l-1.04-.72c-.6-1.48-1.18-2.97-1.72-4.46z"/>
    <path fill="#2b0808" opacity=".5" d="M32.16 91.88c1.16.88 2.17 1.93 2.95 3.16l-1.8-.54c1.77 2.32 3.66 4.55 5.23 7.03-2.1-1.13-4.09-2.44-6.02-3.83.25-1.95-.08-3.89-.36-5.82z"/>
    <path fill="#390b0a" opacity=".59" d="M41.16 93.14c.86-1.28 3.9-.65 3.37 1.1-1.19-.09-2.48-.22-3.37-1.1z"/>
    <path fill="#1b0505" opacity=".42" d="M38.89 94.06c2.06 1.31 3.73 3.11 4.97 5.21-2.61-1.22-5.09-2.7-7.73-3.85l2.76-1.36z"/>
    <path fill="#360a0b" opacity=".52" d="M23.89 95.37c2.47.32 4.92.74 7.31 1.43-1.94.09-3.87.32-5.78.65l-.63.1c-.3-.72-.6-1.45-.9-2.18z"/>
    <path fill="#240707" opacity=".44" d="M26.72 97.88c1.98.74 4.22 1.19 5.8 2.69.86 1.35 1.33 2.9 1.94 4.37-2-2.24-4.85-2.74-7.67-2.02 1.36-.75 2.77-1.39 4.19-2.01-1.41-1.02-2.83-2.03-4.26-3.03z"/>
    <path fill="#240607" opacity=".51" d="M39.63 101.69c2.92-1.78 6.43-1.39 9.69-1.45.79.78 1.1 1.9 1.6 2.86-3.61-.97-7.49-1.59-11.06-.09-2.97 1.97-4.97 4.95-7.13 7.71l-.82.45c-.22-1.68-.46-3.35-.72-5.02.42.99.83 1.98 1.22 2.99 1.82-2.98 4.03-5.86 7.22-7.45z"/>
    <path fill="#340a0a" opacity=".54" d="M20.39 101.99c1.82.42 3.63.89 5.45 1.34-1.12.5-2.23 1-3.33 1.52 2.29-.03 4.59-.16 6.88-.11l.78.48c-3.55.54-8.81 1.55-9.78-3.23z"/>
    <path fill="#c62829" d="M39.86 103.01c3.57-1.5 7.45-.88 11.06.09.41.1 1.23.29 1.63.38.18 1.17.34 2.33.49 3.5-.53.12-1.59.35-2.12.47-2.18-.55-4.34-1.22-6.42-2.09-1.57-.74-3.1-1.54-4.64-2.35z"/>
    <path fill="#130304" opacity=".33" d="M36.3 108.01c1.26-.79 2.53-1.57 3.85-2.28.35 1.16.66 2.33.92 3.51-.84 1.54-2.07 2.83-3.14 4.21-.56-.49-1.67-1.47-2.23-1.96.95-.59 1.88-1.2 2.82-1.81-.55-.42-1.67-1.25-2.22-1.67z"/>
</svg>
