<svg width="128pt" height="128pt" viewBox="0 0 128 128" xmlns="http://www.w3.org/2000/svg">
    <path fill="#fff" d="M63.12 18.15c2.27-.98 4.65-1.66 6.97-2.53.52.18 1.05.37 1.59.56-2.93 1.68-5.53 4.24-5.92 7.76-1.05 5.01-.04 10.16-.58 15.22-.95 3.58-4.1 5.81-6.81 8.05 2.09-1.86 1.34-4.69 1.04-7.11-.53-4.8-3.43-9.26-2.43-14.21 1.13-3.12 3.03-6.28 6.14-7.74m-2.65 6.21c-3.23 5.01 1.49 10.46 1.51 15.71 2.19-6.21-.27-13.12 1.89-19.44-1.47.89-2.6 2.22-3.4 3.73z"/>
    <path fill="#232323" opacity=".14" d="M77.04 21.88c.1-.53.32-1.58.43-2.11 1.18 2.52 1.84 5.23 2.35 7.95-.99 1.62-1.97 3.25-3.06 4.81-.05-.23-.16-.69-.21-.92.26-3.24.46-6.48.49-9.73z"/>
    <g fill="#eaeaea">
        <path opacity=".92" d="M76.55 31.61c-2.49-2.83-1.31-6.88.49-9.73-.03 3.25-.23 6.49-.49 9.73zM35.36 76.04c-.74-8.3 4.46-15.41 9.77-21.21.41.28 1.25.82 1.67 1.1-.16.47-.49 1.41-.65 1.88-4.5 4.27-7.76 9.99-8.43 16.22.04 3.72 1.37 7.23 3.93 9.95l-.36 1.13c-.18.55-.56 1.65-.74 2.2-2.67-3.19-5.36-6.9-5.19-11.27z"/>
        <path opacity=".92" d="M47.26 58.61c1.12-.34 2.18.23 3.19.65-2.48 3.47-4.94 6.99-6.83 10.83-.61-.81-1.22-1.62-1.82-2.43 1.97-2.92 3.87-5.9 5.46-9.05z"/>
    </g>
    <g fill="#fefefe">
        <path d="M68.44 38.98c.43-5.43-.76-11.8 3.6-15.98 2.75.6-.06 2.66-.38 4.06.28 4.09 3.68 6.94 4.33 10.9 1.1 3.86-2.13 7.27-1.36 11.14.03 3.27 2.54 5.65 3.96 8.38.26 2.22-1.38 3.97-2.48 5.7-.38.07-1.13.23-1.5.3.01-.48.02-1.45.03-1.94l-1.23.16-.03-.82c-1.97-1.1-3.03-3.13-4.4-4.82-4.55 3.75-7.26 9.26-11.28 13.55-4.82 5.67-5.69 13.42-5.55 20.57-1.45.72-2.76-.69-3.75-1.56-3.62-3.94-6.95-8.45-8.1-13.77-.23-2.49.85-4.84 1.5-7.19.6.81 1.21 1.62 1.82 2.43-2.67 6.16 2.81 11.68 6.07 16.41.22-5.89 1.15-12.08 4.77-16.94 4.33-5.13 8.05-10.76 12.66-15.66.76-.2 2.27-.6 3.02-.8 1.81 2.49 3.59 5.05 6.07 6.93-.52-3-2.98-5.14-3.69-8.05-.62-3.5-.33-7.12.83-10.48 1.01-2.86-.89-5.6-2.03-8.12.62 7.84-3.71 15.85-10.93 19.13-3.7 1.64-6.93 4.08-9.94 6.75-1.01-.42-2.07-.99-3.19-.65-.28-.2-.83-.6-1.11-.8.16-.47.49-1.41.65-1.88-.42-.28-1.26-.82-1.67-1.1 1.09-1.2 2.16-2.42 3.22-3.66-.83.26-2.49.77-3.32 1.03-2.87 2.8-5.6 5.74-7.77 9.12-3.93 4.88-8.13 10.22-8.91 16.58 4.73 9.31 15.4 12.93 22.14 20.43.48 2.07.8 4.17 1.02 6.28-.03 1.58-.01 3.15.07 4.73-.91.45-1.82.91-2.72 1.38 1.95-.59 3.96-.61 5.96-.33 7.14 1.07 14.21-2.43 18.6-7.95 2.52-2.24 2.67-5.9 1.93-8.96-1.26-3.35-3.59-6.26-4.25-9.84.23-2.71.19-5.42-.13-8.12 1.03-4.69 4.32-8.64 7.94-11.71 2.01-1.69 2.83-4.34 2.88-6.9.75.7 1.51 1.4 2.28 2.09-.07 6.89-8.69 8.91-9.73 15.41l-.55.1c-.27.62-.8 1.85-1.07 2.47-.69 5.51 2.56 10.3 4.74 15.06.54 2.93.47 6.03.03 8.98-2.3 3.31-4.85 6.72-8.45 8.72 2.45-.5 4.79-1.4 7.08-2.41 4.89-2.31 9.02-5.85 12.84-9.62 2.67-2.72 3.19-6.66 4.35-10.12.05-1.41-1.1-2.56-1.66-3.79.32 6.45-2.66 12.67-7.63 16.72-.92.01-2.75.01-3.67.01-.25-2.19-.06-4.35.56-6.48.71.67 1.42 1.34 2.14 1.99-.32.97-.63 1.93-.94 2.9 2.56-2.57 5.21-5.31 6.01-9 3.45-7.08-5.07-14.19-.9-21.23.01 6.59 5.49 10.79 8.17 16.29 1.47 3.9-1.16 7.72-2.26 11.35.67.32 1.34.64 2.02.96-.75.12-2.24.35-2.99.47l-.68.98c-2.21 2.66-5.03 4.73-7.79 6.78-4.6 3.28-9.7 6.12-15.39 6.87-1.87.36-3.76.53-5.64.76-5.07.72-10.2.46-15.21-.52l-3.21-.32c.03-.2.08-.59.11-.79l.89.2c1.98-2.83 5.04-5.91 4.08-9.66-3.16-6.95-11.29-9.09-16.18-14.46-2.79-2.9-6.62-5.43-7.42-9.65.7-6.96 4.94-12.83 9.35-17.99 3.74-6.46 10.04-10.69 15.48-15.58 2.15-2.1 4.55-5.1 3.55-8.28l-.37-.72-.28-2.17c.77.15 1.39.54 1.87 1.16-.05 1.63.04 3.26.19 4.88 1.5 2.94.01 6.19-1.22 8.94-2.36 2.8-4.69 5.63-7.35 8.14 2.6 1.82 4.23-1.33 6.1-2.62 3.31-2.77 7.79-3.72 10.91-6.73 1.93-2.38 3.61-5.07 4.49-8.02m-18.27 9.23c-.6.4-1.8 1.2-2.39 1.6.45.42.89.86 1.32 1.3 1.18-2.24 2.91-4.1 4.53-6.02-1.19 1-2.35 2.03-3.46 3.12z"/>
        <path d="M64.34 62.9c1.27-1.34 2.57-2.66 3.86-3.98 1.73 2.27 3.77 4.92 3.18 7.97-.79 2.52-2.4 4.68-3.55 7.05-1 2.97-.56 6.16-.13 9.19.64 6.24 7.05 11.24 4.06 17.8-4.47 4.09-9.98 8.12-16.36 7.62 2.74-3.77 2.6-8.89 1.1-13.11-2.27-5.48-2.18-11.78-.5-17.4 1.44-4.49 5.32-7.45 7.79-11.31.79-1.1.39-2.58.55-3.83m2.88.24c-.44 1.51-.49 3.1-.86 4.63-2.52 3.83-6.42 6.78-7.88 11.26-2.13 5.61-1.34 11.91 1.11 17.28.28 3.2.36 6.4.13 9.6 3.33-1.67 6.47-3.65 9.52-5.78.37-1.06.76-2.09 1.18-3.12-.45-1.47-.96-2.92-1.57-4.34-3.52-4.77-3.47-11-3.71-16.67-.21-3.44 2.07-6.24 3.58-9.13-.41-1.27.57-3.79-1.5-3.73zM41.29 85.11l.44-.81c3.44 5.49 9.34 9.01 12.36 14.75.12 1.71.16 3.42.22 5.14l-1.27-.26c-.02-.44-.07-1.32-.1-1.75-.52-1.09-1.06-2.17-1.74-3.17-3.06-4.32-7.29-7.63-10.65-11.7.18-.55.56-1.65.74-2.2z"/>
    </g>
    <path opacity=".13" d="M50.17 48.21c1.11-1.09 2.27-2.12 3.46-3.12-1.62 1.92-3.35 3.78-4.53 6.02-.43-.44-.87-.88-1.32-1.3.59-.4 1.79-1.2 2.39-1.6zm18.13 64.2c5.69-.75 10.79-3.59 15.39-6.87-.17 1.41-.32 2.83-.58 4.23-4.74 3.09-9.34 7.26-15.34 7.32.17-1.57.35-3.12.53-4.68zm-20.85.24c5.01.98 10.14 1.24 15.21.52-.02 1.3-.04 2.6-.05 3.9-6.82.71-13.89 1.54-20.57-.45l-1.12-.96c2.44-.44 5.36-.33 6.53-3.01z" fill="#222"/>
    <path fill="#f5f5f5" opacity=".96" d="M78.27 51.51l2.61.57c1.5.36 3.05.73 4.35 1.63 1.19 2.28 2 4.77 2.61 7.27-.3 3.58-3.33 5.95-4.73 9.05-.59 1.92-.93 3.91-1.11 5.91-.65 3.57 2.86 5.93 3.72 9.14.29 3.67-.66 7.37-2.61 10.49-.55-.96-1.08-1.92-1.59-2.9.84-2.15 2.11-4.37 1.7-6.78-1.03-2.39-2.98-4.35-3.6-6.91-.32-3.63 0-7.42 1.34-10.82 1.52-2.34 3.28-4.54 4.36-7.13-.77-1.89-1.58-3.96-3.67-4.71-.96-1.72-1.99-3.41-3.38-4.81z"/>
    <path fill="#111" opacity=".07" d="M91.01 65.13c1.25.03 2.5.07 3.75.1-.2 2.83-1.24 6.08.71 8.54.75-.49 1.5-.97 2.26-1.46 1.15.89 2.29 1.78 3.44 2.68-1.3 2.29-3.81 3.88-6.37 2.38-3.2-3.17-4.68-7.81-3.79-12.24z"/>
    <path fill="#858585" opacity=".52" d="M67.7 83.13c-.43-3.03-.87-6.22.13-9.19.09.85.26 2.55.35 3.4.92-.61 1.85-1.22 2.79-1.82.32 2.7.36 5.41.13 8.12-.67-1.82-1.44-3.6-2.22-5.37-.47 1.6-.86 3.22-1.18 4.86z"/>
    <path fill="#0e0e0e" opacity=".05" d="M67.7 83.13c.32-1.64.71-3.26 1.18-4.86.78 1.77 1.55 3.55 2.22 5.37.66 3.58 2.99 6.49 4.25 9.84.74 3.06.59 6.72-1.93 8.96-4.39 5.52-11.46 9.02-18.6 7.95-.02-.46-.06-1.37-.07-1.83l.65-.01c6.38.5 11.89-3.53 16.36-7.62 2.99-6.56-3.42-11.56-4.06-17.8z"/>
    <path fill="#151515" opacity=".08" d="M62.21 95.52c1.06-2.94 3.93-3.33 6.64-2.85.61 1.42 1.12 2.87 1.57 4.34-.42 1.03-.81 2.06-1.18 3.12-3.05 2.13-6.19 4.11-9.52 5.78.23-3.2.15-6.4-.13-9.6.66-.19 1.96-.59 2.62-.79z"/>
    <path fill="#c6c6c6" opacity=".78" d="M50.49 98.33l.71.68c.68 1 1.22 2.08 1.74 3.17-1.42.62-1.38 1.2.1 1.75l1.27.26c-.06-1.72-.1-3.43-.22-5.14 2.35 3.56.69 7.85-1.29 11.15-.83-1.76-1-3.7-1.29-5.59-.22-2.11-.54-4.21-1.02-6.28z"/>
    <path fill="#121212" opacity=".07" d="M83.69 105.54c2.76-2.05 5.58-4.12 7.79-6.78 1.48 2.58 3.3 5.17 3.59 8.22-.61 1.05-1.44 1.95-2.21 2.89-.89-.95-1.77-1.9-2.66-2.85-1.56 2.58-4.23 3.27-7.09 2.75.26-1.4.41-2.82.58-4.23z"/>
    <path fill="#797979" opacity=".48" d="M53.04 103.93c-1.48-.55-1.52-1.13-.1-1.75.03.43.08 1.31.1 1.75z"/>
</svg>
