<svg width="128pt" height="128pt" viewBox="0 0 128 128" xmlns="http://www.w3.org/2000/svg">
    <path fill="#941b19" d="M64.65 24.49c3.44-1.59 6.49-3.85 9.71-5.82-1.02 7.3-4.96 16.44-13.54 16.66-.37.03-1.11.11-1.49.14-3.65-.8-9.45.3-10.73-4.32 4.77-3.54 10.88-3.98 16.05-6.66z"/>
    <path fill="#9a191b" d="M27.36 23.93c.97.44 1.97.83 2.9 1.36 1.7 1.56 3.34 3.19 4.93 4.87 1.58 1.86 2.82 3.97 4.11 6.03-2.49-.31-4.99-.64-7.48-1-.33-2.21-.83-4.39-1.51-6.52-.7-1.74-1.87-3.22-2.95-4.74z"/>
    <path fill="#0d0202" opacity=".27" d="M30.26 25.29c2.9-.12 4.49 2.31 4.93 4.87-1.59-1.68-3.23-3.31-4.93-4.87z"/>
    <path fill="#250707" opacity=".42" d="M30.31 28.67c.68 2.13 1.18 4.31 1.51 6.52-.05 5.04-1.25 9.94-2.08 14.89-.87 5.12-.02 10.33 1.31 15.29-3.83-6.17-2.61-14.09-1.14-20.85 1.43-5.19.7-10.58.4-15.85z"/>
    <path d="M43.56 34.88c1.72-1.19 3.39-2.45 5.04-3.73 1.28 4.62 7.08 3.52 10.73 4.32-6.12 1.81-11.48 5.64-15.31 10.74l-.64.72c-.32-3.48-.74-6.94-1.2-10.4l1.86.76c-.1-.48-.29-1.43-.38-1.91l-.1-.5zm28.07 55.7c3.7-2.14 6.61-5.35 9.11-8.76-.7 3.94-.25 7.92-.18 11.89-.82.99-1.75 1.87-2.71 2.73-6.26 0-12.77 1.17-18.65-1.66 4.21-1.16 8.72-1.72 12.43-4.2z" fill="#ad2021"/>
    <path fill="#b22424" d="M31.82 35.19c2.49.36 4.99.69 7.48 1l.79.1.16.57c1.06 3.56 2 7.32 1.32 11.05-.74 3.44-2.41 6.61-2.9 10.11-.69 5.13.12 10.29 1.1 15.32-1.5.12-2.99.23-4.49.33-1.74-2.58-3.26-5.33-4.23-8.3-1.33-4.96-2.18-10.17-1.31-15.29.83-4.95 2.03-9.85 2.08-14.89z"/>
    <path opacity=".29" d="M40.25 36.86c1.13-.5 2.25-1.04 3.41-1.48.09.48.28 1.43.38 1.91l-1.86-.76c.46 3.46.88 6.92 1.2 10.4l.64-.72.97-1.05c.03.64.09 1.92.11 2.56C41.3 52.21 40 58.23 40.22 64c.2 3.02-.04 6.42 1.97 8.93 5.54 1.08 11.23 1.37 16.82 2.25-1.5-1.41-3.01-2.81-4.36-4.37 2.64.82 4.28 2.97 5.53 5.3 1.37.12 2.75.22 4.13.31-4.5 1.06-9.04-.27-13.49-.92-4.52-.74-9.13-1.01-13.69-.54-2.79.4-5.55 1.06-8.17 2.09 1.64-1.86 4.13-2.46 6.32-3.38 1.5-.1 2.99-.21 4.49-.33-.98-5.03-1.79-10.19-1.1-15.32.49-3.5 2.16-6.67 2.9-10.11.68-3.73-.26-7.49-1.32-11.05zm21.73 21.08c5.61-4.03 14.2 1.44 13.67 8.08.04 2.32-1.14 4.36-2.38 6.22-.3-.3-.89-.88-1.19-1.17 1.05-1.51 2.25-3.11 2.28-5.04.52-5.16-5.32-9.87-10.22-7.93-2.47.92-3.05 3.74-3.85 5.92-.12.41-.37 1.21-.49 1.62-.95-2.76-.4-6.03 2.18-7.7z" fill="#040101"/>
    <path fill="#330a0a" opacity=".56" d="M59.33 35.47c.38-.03 1.12-.11 1.49-.14 7.19.24 14.99.08 21.51 3.49-5.12-1.22-10.32-2.15-15.57-2.59-8.58-.27-16.62 4.77-21.66 11.49-.02-.64-.08-1.92-.11-2.56l-.97 1.05c3.83-5.1 9.19-8.93 15.31-10.74z"/>
    <path fill="#bb2829" d="M45.1 47.72C50.14 41 58.18 35.96 66.76 36.23c.79 1.78 1.58 3.56 2.38 5.33 2.29-.52 4.57-1.05 6.85-1.64-1.8 2.38-2.92 5.15-3.42 8.08-3.05.03-6.21-.03-9.02 1.32-8.47 2.57-13.29 13.73-8.9 21.49 1.35 1.56 2.86 2.96 4.36 4.37-5.59-.88-11.28-1.17-16.82-2.25-2.01-2.51-1.77-5.91-1.97-8.93-.22-5.77 1.08-11.79 4.88-16.28z"/>
    <path d="M66.76 36.23c5.25.44 10.45 1.37 15.57 2.59 2.47 1.32 4.91 2.73 7.46 3.92-.66 1.09-1.33 2.17-1.91 3.3 1.15 1.46 3.05 1.91 4.64 2.7.27.99.54 1.97.81 2.95.34-.37 1.04-1.11 1.39-1.48.56 1.53 1.12 3.06 1.68 4.6-7.85.4-15.21-2.68-22.63-4.73-3.3-1.05-6.81-.93-10.22-.76 2.81-1.35 5.97-1.29 9.02-1.32.5-2.93 1.62-5.7 3.42-8.08-2.28.59-4.56 1.12-6.85 1.64-.8-1.77-1.59-3.55-2.38-5.33zm11.06 16.39c4.54 1.83 9.22 3.28 14.04 4.12l.96 1.16c2.92 4.39 3.95 10.16 2.36 15.23-1.54 4.82-2.48 9.8-3.77 14.68-1.08.11-2.16.23-3.24.35-.18 2.46-.35 4.93-.51 7.41-.64.14-1.91.44-2.55.59-.31-.22-.95-.65-1.26-.87-1.87-3.45-3.07-7.46-1.66-11.31 2.27-7.42 4.66-15.46 2.24-23.15-1.05-3.51-3.78-6.06-6.61-8.21z" fill="#a52021"/>
    <path fill="#941b18" d="M89.79 42.74c6.43 3.79 14.17 4.27 21.44 3.43-2.3 2.08-4.52 4.28-7.1 6.01-2.5 1.08-5.08 1.96-7.73 2.63-.56-1.54-1.12-3.07-1.68-4.6-.35.37-1.05 1.11-1.39 1.48-.27-.98-.54-1.96-.81-2.95-1.59-.79-3.49-1.24-4.64-2.7.58-1.13 1.25-2.21 1.91-3.3z"/>
    <path opacity=".06" d="M54.65 70.81c-4.39-7.76.43-18.92 8.9-21.49 3.41-.17 6.92-.29 10.22.76 1.16.9 2.27 1.86 3.38 2.81-1.76-.29-3.51-.6-5.27-.87-7.59-1.75-16.02 3.94-16.1 11.97-.86 5.36 4.4 9.24 9.21 9.6 2.62.22 4.97-1.15 7.09-2.52.3.29.89.87 1.19 1.17-2.77 1.8-5.75 3.35-8.96 4.18-1.38-.09-2.76-.19-4.13-.31-1.25-2.33-2.89-4.48-5.53-5.3z"/>
    <path fill="#020000" opacity=".25" d="M73.77 50.08c7.42 2.05 14.78 5.13 22.63 4.73 2.65-.67 5.23-1.55 7.73-2.63-2.78 2.97-6.92 3.17-10.64 3.99-.16.43-.5 1.3-.67 1.73l-.96-1.16c-4.82-.84-9.5-2.29-14.04-4.12 2.83 2.15 5.56 4.7 6.61 8.21 2.42 7.69.03 15.73-2.24 23.15-1.41 3.85-.21 7.86 1.66 11.31l.06.35c-.76-.43-1.49-.9-2.19-1.4-1.28 1.55-2.85 2.79-4.9 3.06l1.03-.86c.96-.86 1.89-1.74 2.71-2.73-.07-3.97-.52-7.95.18-11.89-2.5 3.41-5.41 6.62-9.11 8.76-3.71 2.48-8.22 3.04-12.43 4.2-1.58.59-3.11 1.32-4.59 2.12 1.1-1.2 2.22-2.4 3.34-3.58-6.48-.18-12.67-2.19-18.97-3.48-5.12-1.18-10.13.82-15.21 1.16 2.13-.86 4.31-1.6 6.53-2.16 8.64-1.53 16.66 2.82 25.13 3.46 12.96 2.26 26.82-8.31 27.82-21.49.52-4.27-.2-8.8-2.51-12.46-2.03-3.16-5.45-5.04-8.86-6.33 1.76.27 3.51.58 5.27.87-1.11-.95-2.22-1.91-3.38-2.81z"/>
    <path fill="#b52729" d="M55.78 63.99c.08-8.03 8.51-13.72 16.1-11.97 3.41 1.29 6.83 3.17 8.86 6.33 2.31 3.66 3.03 8.19 2.51 12.46-1 13.18-14.86 23.75-27.82 21.49 3.22-1.67 7.95-1.86 9.19-5.88-2.27.54-4.53 1.17-6.78 1.79-5.6-4.14-12.56-6.26-19.32-7.61-.47-1.88-.93-3.76-1.39-5.64 4.56-.47 9.17-.2 13.69.54 4.45.65 8.99 1.98 13.49.92 3.21-.83 6.19-2.38 8.96-4.18 1.24-1.86 2.42-3.9 2.38-6.22.53-6.64-8.06-12.11-13.67-8.08-2.58 1.67-3.13 4.94-2.18 7.7 1.36 3.03 5.65 4.85 8.44 2.58 1.75-1.13 1.51-3.42 1.64-5.23.24-1.92-2.58-4.4-4.03-2.37-.77.91-1.53 1.84-2.26 2.78l4.26-.6c-.65 1.06-1.36 2.07-2.14 3.02-2 1.6-3.73-.98-5.42-1.8.8-2.18 1.38-5 3.85-5.92 4.9-1.94 10.74 2.77 10.22 7.93-.03 1.93-1.23 3.53-2.28 5.04-2.12 1.37-4.47 2.74-7.09 2.52-4.81-.36-10.07-4.24-9.21-9.6z"/>
    <path fill="#4e1111" opacity=".64" d="M65.85 60.62c1.45-2.03 4.27.45 4.03 2.37-1.46-.58-2.77-1.45-4.03-2.37z"/>
    <path fill="#a41e20" d="M28.96 77.05c2.62-1.03 5.38-1.69 8.17-2.09.46 1.88.92 3.76 1.39 5.64 6.76 1.35 13.72 3.47 19.32 7.61 2.25-.62 4.51-1.25 6.78-1.79-1.24 4.02-5.97 4.21-9.19 5.88-8.47-.64-16.49-4.99-25.13-3.46-.54-.39-1.61-1.17-2.15-1.57 1.22-.17 2.44-.35 3.66-.52-1.35-1.06-2.72-2.11-4.08-3.16 1.23-.1 2.45-.19 3.68-.3-1.28-1.78-2.87-3.3-4.62-4.62.71-.56 1.44-1.09 2.17-1.62z"/>
    <path fill="#941717" d="M15.46 95.97c2.39-6.52 5.69-13.01 11.33-17.3 1.75 1.32 3.34 2.84 4.62 4.62-1.23.11-2.45.2-3.68.3 1.36 1.05 2.73 2.1 4.08 3.16-1.22.17-2.44.35-3.66.52.54.4 1.61 1.18 2.15 1.57-2.22.56-4.4 1.3-6.53 2.16-3.03 1.17-5.71 3.05-8.31 4.97z"/>
    <path fill="#941818" d="M88.17 88.16c1.08-.12 2.16-.24 3.24-.35-1.03 5.99 1.22 11.7 2.65 17.4-3.97-1.58-7.64-5.15-8.95-9.05.64-.15 1.91-.45 2.55-.59.16-2.48.33-4.95.51-7.41z"/>
    <path fill="#9c1c1b" d="M54.61 96.9c1.48-.8 3.01-1.53 4.59-2.12 5.88 2.83 12.39 1.66 18.65 1.66l-1.03.86c-5.85 4.57-13.39 5.63-20.37 7.43-3.98 1.11-6.9 4.25-9.24 7.5.92-5.63 2.91-11.55 7.4-15.33z"/>
</svg>
