<svg width="128pt" height="128pt" viewBox="0 0 128 128" xmlns="http://www.w3.org/2000/svg">
    <path fill="#bd2c2d" d="M55.19 16.05c2.6.66-.12 3.75 0 5.5 2.06-1.07 3.74-3.13 6.23-3.11-.92 2.14-1.95 4.29-2.12 6.67 1.52-1.83 3.08-3.65 5.07-4.97-.18 4.56-3.72 8.21-5.18 12.47-1.13 1.86-2.36 3.67-3.38 5.59 1.99-.02 3.99-.34 5.99-.15 3.46 1.23 6.56 3.28 10.04 4.47-2.4-2.3-5.18-4.15-8.03-5.84.83-1 1.66-2.01 2.51-3 2.12-2.05 5.21-2.52 7.91-3.38-1.18 1.59-2.31 3.22-3.01 5.08 5.5.63 12.49-.75 14.53-6.66 3.68-.18 7.38.27 10.78 1.76.31 1.03.6 2.07.85 3.12.19 2.32.26 4.65.31 6.98-1.75 1.24-3.77 2.31-4.88 4.23-1.9 3.24-1.78 7.13-1.92 10.76 1.64-.69 3.26-1.44 4.88-2.19-.45 2.01-1 4.01-1.79 5.92-.16.19-.47.55-.63.74-1.14.82-2.31 1.62-3.48 2.4-1.68-2.83-3.59-5.56-6.02-7.8 1.24 4.65 5.76 8.49 4.69 13.59-1.74-.01-3.47-.04-5.2-.09-.23-.41-.68-1.24-.91-1.65-1.65.86-2.99 2.11-3.47 3.98-.51.84-1.03 1.68-1.57 2.5-1.24.88-.84 2.68.66 2.94.27.28.81.84 1.09 1.12.7 4.11-.15 8.13-2.96 11.28l-4.83-1.53c1.41-1.84 2.23-4.02 2.76-6.25-1.87 1.09-3.62 2.35-5.38 3.59-1.07-.31-3.21-.93-4.27-1.24 1 .46 3.01 1.38 4.01 1.84l-1.65.52c-1.54-.07-3.07-.08-4.6-.03-5.97-.04-12.82 1.87-17.7-2.7-5.6-5.93-2.9-14.73-1.54-21.8l-.64-.3-1.04-.48c.16-.25.46-.77.61-1.02 1.38-2.05 2.93-3.99 4.3-6.04-2.73.3-5.25 1.46-7.25 3.35-.7-.16-2.11-.5-2.81-.67.26-1.26.53-2.52.83-3.77 3.29-3.21 8.42-7.37 12.92-3.73.26.23.78.68 1.04.91 1.27 1.97 3.47.79 4.42-.79 1.4-.75 2.8-1.5 4.12-2.39.16-.54.49-1.63.65-2.17-2.94-.85-5.95-1.44-8.87-2.33-.13-.54-.37-1.62-.5-2.17 1.2-.66 1.72-1.68 1.55-3.08.12-.49.36-1.47.49-1.96l1.32-2.08.68-2.47c-1.49-.26-2.97-.6-4.49-.62-.94 1.47-1.56 3.11-2.2 4.72-.59 1.46-1.13 2.94-1.69 4.4-1.05 1.65-1.13 4.7 1.46 4.75l3.93.68.64.14-.15.63c1.11.12 2.22.24 3.33.34-3.57 1.23-7.3.42-10.76-.71l-.61-.17c-.82-10.4 4.36-19.99 10.93-27.63z"/>
    <path fill="#130404" opacity=".37" d="M50.31 28.9c1.52.02 3 .36 4.49.62-.96.08-2.9.24-3.86.33-.96 1.24-1.93 2.48-2.83 3.77.64-1.61 1.26-3.25 2.2-4.72z"/>
    <path d="M78.98 29.39l2.92-.03c-.1.48-.28 1.46-.38 1.94-2.05 1.52-4.44 3.18-7.15 2.37.02-.79.06-1.58.12-2.37 1.95.18 4.75 1.24 4.49-1.91zm13.84 22.76c.33-2.44 1.03-6.86 3.98-6.93.84 2.55-3.45 3.85-2.04 6.83-.49.02-1.45.07-1.94.1zm-30.6 33.06c1.53-.05 3.06-.04 4.6.03-3.59 1.67-7.23 3.22-10.78 4.97-.18 4.66 1.22 9.83 5.37 12.46 2.34.83 4.39-2.09 4.42-4.18-1.05-1.01-2.21-1.89-3.33-2.81 2.96-2.96 6.01-5.82 8.85-8.9l4.83 1.53-.57.74c-2.65 2.8-6.18 4.53-9.39 6.59 5.78-.13 11.64-.9 17.4.05l-.47 1.38c-2.57.63-5.22 1.01-7.66 2.07 2.53.73 5.14 1.13 7.7 1.76l.21 1.27c-2.82 2.01-6.77.53-10.03 1.27 1.5 2.1 4.2 2.09 6.49 2.55-.24.59-.7 1.79-.93 2.39-2.61.17-5.18-.37-7.74-.73-.18 2.71 3.54 3.16 3.42 5.84-7.14-2.46-13.53-7.04-18.03-13.11-1.85-3.14-3.34-6.82-2.9-10.52 1.45-2.68 4.63-3.52 7.36-4.25.29-.1.88-.3 1.18-.4z" fill="#b02929"/>
    <path fill="#3a0e0d" opacity=".6" d="M52.8 34.07l1.32-2.08-1.32 2.08z"/>
    <path fill="#2d0a0b" opacity=".52" d="M55.81 38.2c1.02-1.92 2.25-3.73 3.38-5.59-.66 1.7-1.44 3.35-2.28 4.96 1.98-.2 3.95-.37 5.93-.53 1.02-1.26 2.16-2.41 3.48-3.36-.85.99-1.68 2-2.51 3 2.85 1.69 5.63 3.54 8.03 5.84-3.48-1.19-6.58-3.24-10.04-4.47-2-.19-4 .13-5.99.15z"/>
    <path fill="#220708" opacity=".42" d="M97.38 33.6c1.06 2.55 1.04 5.33.93 8.05-1.56.88-3.11 1.77-4.65 2.67 1-.04 3-.11 4-.15.16 1.23.32 2.47.46 3.7-.69.23-2.08.68-2.77.91 2.49 3.42 1.09 7.56-1.37 10.52.79-1.91 1.34-3.91 1.79-5.92-1.62.75-3.24 1.5-4.88 2.19.14-3.63.02-7.52 1.92-10.76 1.11-1.92 3.13-2.99 4.88-4.23-.05-2.33-.12-4.66-.31-6.98m-4.56 18.55c.49-.03 1.45-.08 1.94-.1-1.41-2.98 2.88-4.28 2.04-6.83-2.95.07-3.65 4.49-3.98 6.93z"/>
    <path fill="#1e0607" opacity=".42" d="M50.76 39.11c-.36-1.41.16-2.44 1.55-3.08.17 1.4-.35 2.42-1.55 3.08z"/>
    <path fill="#120404" opacity=".34" d="M47.88 42.77c-2.59-.05-2.51-3.1-1.46-4.75.83 1.46 1.34 3.08 1.46 4.75z"/>
    <path fill="#461011" opacity=".64" d="M51.26 41.28c2.92.89 5.93 1.48 8.87 2.33-.16.54-.49 1.63-.65 2.17-.37-.43-1.11-1.28-1.48-1.71-.79.15-1.58.32-2.37.49-1.11-.1-2.22-.22-3.33-.34l.15-.63-.64-.14c-.14-.54-.42-1.63-.55-2.17z"/>
    <path fill="#260908" opacity=".48" d="M23.65 43.78c.61-.28 1.82-.82 2.43-1.09.46 1.85.95 3.7 1.45 5.54.72-1.74 1.27-3.55 1.63-5.4l2.64.32c.48 4.92-.02 9.9.81 14.79-.55.88-1.09 1.76-1.64 2.65-.12-5.46.53-10.95-.3-16.37-1.99 1.85-1.93 5.07-2.97 7.5-.97-2.54-1.6-5.19-2.12-7.86l-1.93-.08z"/>
    <path fill="#b5282b" d="M23.65 43.78l1.93.08c.52 2.67 1.15 5.32 2.12 7.86 1.04-2.43.98-5.65 2.97-7.5.83 5.42.18 10.91.3 16.37.55-.89 1.09-1.77 1.64-2.65 1.3-2.16 2.61-4.34 4.37-6.16-.3 1.25-.57 2.51-.83 3.77.7.17 2.11.51 2.81.67-2.82 2.63-5.46 5.44-8.27 8.07-.88-1.39-1.74-2.79-2.6-4.18-1.67 1.3-3.34 2.62-4.98 3.96 1.06 1.33 2.13 2.66 3.28 3.91-.48.26-1.46.77-1.94 1.03-4.54-5.12-10.02-10.3-10.81-17.49 1.72 1.38 2.99 3.29 4.9 4.42.3-2.72-.06-5.45-.4-8.15.83-.25 1.65-.5 2.47-.75.62 2.19.56 4.93 2.71 6.29.36-3.18.34-6.37.33-9.55z"/>
    <path fill="#370d0d" opacity=".58" d="M50.94 48.96c1.34-.79 2.92-.82 4.42-.79-.95 1.58-3.15 2.76-4.42.79z"/>
    <path fill="#440f0f" opacity=".64" d="M83.85 54.64c2.43 2.24 4.34 4.97 6.02 7.8 1.17-.78 2.34-1.58 3.48-2.4-1.2 1.37-2.52 2.63-3.88 3.84-.04 2.14-.09 4.28-.11 6.42-.33.23-.99.7-1.32.93.12-.75.37-2.25.5-3 1.07-5.1-3.45-8.94-4.69-13.59z"/>
    <path fill="#a52726" opacity=".95" d="M41.3 59.93l1.04.48c-.59 4.12-1.39 8.55-4.31 11.72-2.18 2.14-5.53.66-7.92-.31-1.23-.79-2.5-1.54-3.87-2.03-.45-.2-1.35-.58-1.79-.78.48-.26 1.46-.77 1.94-1.03 1.52.74 3.04 1.48 4.59 2.16 1.58.85 3.45 1.45 5.23.83.15-.26.45-.8.6-1.06 1.67-3.25 2.79-6.75 4.49-9.98z"/>
    <path fill="#b22829" d="M89.36 70.3c4.93-3.83 11.3-5.03 16.19-8.95.38 2.44-1.57 4.1-2.62 6.05 1.86-.71 3.72-1.42 5.61-2.08.04 2.42-2.07 3.7-3.5 5.26 2 .12 4.16-.47 6.05.46-5.92 5.12-12.71 9.76-20.63 10.94-2.4.17-4.82.16-7.22.07-1.27-3.87-1.8-7.96-.92-11.97.47 2.56.8 5.16 1.39 7.7.23.79.67 2.37.89 3.15 4.62-.74 9.23-2.17 13.1-4.85-.1-1.46-.57-2.85-.98-4.24-2.83 1.26-5.65 2.55-8.64 3.42-.59.15-1.79.46-2.39.62-1-2.51-1.59-5.15-2.35-7.74 1.73.05 3.46.08 5.2.09-.13.75-.38 2.25-.5 3 .33-.23.99-.7 1.32-.93z"/>
    <path fill="#2e0a0a" opacity=".5" d="M78.96 70.47c.48-1.87 1.82-3.12 3.47-3.98.23.41.68 1.24.91 1.65.76 2.59 1.35 5.23 2.35 7.74.6-.16 1.8-.47 2.39-.62-1.3.41-2.6.82-3.89 1.29l-.48 1.23c-.59-2.54-.92-5.14-1.39-7.7-.88 4.01-.35 8.1.92 11.97 2.4.09 4.82.1 7.22-.07-2.56.87-5.26 1.18-7.95 1.46-.45-1.09-.91-2.18-1.45-3.23-.69 3.54-2.67 6.59-5.45 8.84l.57-.74c2.81-3.15 3.66-7.17 2.96-11.28.51.58 1.06 1.11 1.66 1.6.76-3.53.61-7.2.84-10.79-.67.66-2.01 1.97-2.68 2.63z"/>
    <path fill="#2c0a0a" opacity=".49" d="M26.24 69.79c1.37.49 2.64 1.24 3.87 2.03-1.31 1.35-4.6-.12-3.87-2.03z"/>
    <path fill="#310c0b" opacity=".58" d="M30.98 70.14c1.92-.31 3.89-.66 5.83-.23-.15.26-.45.8-.6 1.06-1.78.62-3.65.02-5.23-.83z"/>
    <path fill="#260808" opacity=".53" d="M78.05 75.91c-1.5-.26-1.9-2.06-.66-2.94.17.73.5 2.21.66 2.94z"/>
</svg>
