<svg width="128pt" height="128pt" viewBox="0 0 128 128" xmlns="http://www.w3.org/2000/svg">
    <path fill="#fff" d="M44.49 43.57c-1.11-10.11 4.11-19.69 10.5-27.14.41-.05 1.22-.13 1.63-.17-.55 1.63-1.14 3.24-1.69 4.87 3.06 1.49 3.37-4.53 6.3-2.19-.71 2.02-2.49 3.95-1.5 6.19 1.54-1.48 2.67-5.81 5.27-3.48-4.12 5.04-5.15 11.79-9.47 16.71 2.43-.07 4.93-1.62 7.28-.37 2.98 1.52 5.79 3.38 8.91 4.62-2.33-2.51-5.33-4.26-8.4-5.69 2.71-3.36 6.45-5.98 10.85-6.4-1.15 1.52-2.87 2.78-2.72 4.92 5.16.53 12.78-.51 13.96-6.65 3.75.1 7.73.02 11.11 1.9 1.07 3.44 1.43 7.04 1.23 10.64-5.79 1.09-6.96 8.26-6.55 13.18 1.94 2.18 3.39-1.39 5.04-2.07-.5 4.35-2.9 8.12-6.37 10.73-1.71-2.84-3.33-5.82-5.71-8.17 1.2 3.08 2.98 5.87 4.48 8.8 1.29 2.33-.27 4.87-.27 7.3 5.01-4.1 11.38-5.68 16.76-9.15 2.07 2.42-2.7 3.33-3.33 5.53 2.56.59 5.17-3.46 6.94-.5-1.53 1.3-3.89 2.35-3.35 4.85 1.85-.19 4.19-2.79 5.54-.45-5.35 3.68-10.53 8.08-16.96 9.72-3.63.57-7.27 2-10.97 1.08-1.15-3.57-2.66-8.35-.04-11.49.32 3.4.16 6.97 1.7 10.13 4.36-.21 8.55-1.94 12.29-4.11 1.93-1.06.38-3.34.04-4.88-4.09.94-7.87 4.43-12.19 3.45-.75-2.62-.51-5.55-2.08-7.89-.7.06-2.11.16-2.82.22-.17 2.65-2.76 4.7-2.61 7.26 1.75 2.3 3.27 5.11 2.37 8.1-2.66 5.98-8.18 9.7-13.73 12.73 5.67-.14 11.38-.8 17.03-.15l.64 1.61c-2.74.38-5.65.42-8.09 1.89 2.42 1.47 5.33 1.36 8.04 1.67-.23.51-.7 1.53-.93 2.04-3.27.35-6.77-.5-9.78 1.21 2.04 1.24 4.37 1.81 6.74 1.9l-.6 2.55c-1.5-1.07-2.38.28-3.25 1.11-1.58-1.03-3.56-3.16-5.37-.81 1.4 1.09 2.88 2.1 4.32 3.14-.17.41-.52 1.21-.7 1.62-6.74-3.15-13.3-7.28-17.59-13.51-1.59-3.36-4.05-7.7-1.82-11.27 4.61-4.03 11.41-3.1 16.43-6.38-6.18 1.93-12.58 3.14-19.05 3.25-2.81-.04-5.15-1.8-7.57-2.98-.99-1.84-2.31-3.54-2.9-5.57-1.08-5.96 1-11.84 1.49-17.74-1.54 3.82-1.81 8.1-4.08 11.63-.56 1.66-2.47 1.77-3.82 2.41-4.65-1.23-9.62-2.72-12.6-6.79-4.24-3.61-6.78-8.63-9.02-13.63l1.57-.93c.68 1.15 1.34 2.3 1.98 3.47.45.07 1.35.2 1.8.27.05-2.68-.41-5.35-.37-8.03.63-.14 1.9-.4 2.53-.54.05 2.29.54 4.54 1.37 6.67 2.47-2.65.93-6.57 1.47-9.8.56-.17 1.66-.51 2.21-.69.21 2.42.3 4.88 1.05 7.2l1.15-.18c.8-2.29 1.04-4.72 1.23-7.12.46.12 1.38.37 1.83.49.31 5.66-.05 11.32-.18 16.97 2.88-5.65 6.81-11.18 12.85-13.69 3.11-.99 6.11.84 8.32 2.86 2-1.12 3.97-2.34 6.25-2.78.35-1.11.7-2.22 1.04-3.33-2.74-.99-5.65-1.29-8.47-1.97.02-4.24 2.31-7.92 3.83-11.73-.81-.41-2.43-1.21-3.24-1.62-3.34 1.77-3.59 5.84-5.06 8.93-.58 1.75-1.65 4.58.8 5.37 3.44.85 7.03.81 10.51 1.47-4.43 1.16-9.2 1.44-13.43-.62M30.92 64.21c-1.02-1.31-1.86-2.75-2.65-4.21-1.46 1.55-5.11 2.38-4.63 4.97 2.63 4.26 7.98 6.29 12.85 5.76 1.94-3.11 2.79-6.71 4.52-9.91.81-1.66 1.87-3.35 1.62-5.3.22 1.37.68 4.1.91 5.46.23-1.63.09-3.28-.11-4.91 1.73-.23 1.98-2.15 2.83-3.32-6.81.54-10.65 7.29-15.34 11.46m39.01 20.02c-.38-.61-1.12-1.84-1.49-2.46l.48 2.29c-3.29 2.18-7.11 3.28-10.7 4.83-1.37.44-2.49 1.71-2.41 3.2.12 4.55 2.65 8.95 6.44 11.47 1.82-1.33 3.16-3.16 4.53-4.93-1.14-1.1-4.02-1.48-3.68-3.44 3.9-4.47 10.01-7.95 10.92-14.29-1.79.54-4.08.89-4.09 3.33z"/>
</svg>
