<svg width="128pt" height="128pt" viewBox="0 0 128 128" xmlns="http://www.w3.org/2000/svg">
    <path d="M42.14 28.21c7.18-3.46 16.58-7 23.94-2.24.1.23.29.68.38.9.19.75.57 2.24.76 2.98-3.23-.4-6.45-1.23-8.57-3.88-.32.39-.95 1.17-1.27 1.57-.37.08-1.13.24-1.51.32-3.72.67-7.52.89-11.27.36.88 1.46 1.79 2.91 2.71 4.36-4.04 3.09-2.14 8.61-5.01 12.3L41.86 42c-.44-.7-.89-1.4-1.35-2.09.16-.44.47-1.33.62-1.77-.45-1.27-.87-2.56-1.37-3.82-1.79-1.04-1.08 1.89-1.49 2.88-.7-3.52.37-7.43 3.87-8.99m-1.9 4.58c1.29.31 2.38-1.48 1.86-2.57-1.12-.34-2.88 1.72-1.86 2.57zM98.2 39.4l3.09.04c.4.38 1.18 1.16 1.57 1.54 3.29 4.19 4.81 9.43 4.63 14.73-.27 2.64-.63 5.26-.96 7.89l-4.23.96c-.92-5.9 1.37-12.9-3.05-17.78-2.53-1.53-5.5-1.75-8.33-1.01 2.03-.76 4.13-1.28 6.23-1.81l1.05-4.56z" fill="#ad2021"/>
    <path opacity=".43" d="M57.38 27.54c.32-.4.95-1.18 1.27-1.57 2.12 2.65 5.34 3.48 8.57 3.88-.19-.74-.57-2.23-.76-2.98l.56-.49c6.61 3.27 15-1.07 21.17 3.45.5 2.88.28 5.82.29 8.73 4.14 2.09 8.84-1.35 12.81.88l-3.09-.04c-3.14.54-6.37 1.05-9.5.14-1.84.46-3.73.83-5.43 1.7-2.43 2.5-2.41 6.56-1.28 9.66.83 1.65 3 3.69 4.74 1.93.87-1.98 1.46-4.08 2.3-6.07-.27 3.9-1.87 7.46-3.98 10.69l.77-2.42c-3.76-.81-4.89-4.5-5.61-7.79.11-1.94-.07-4.18 1.35-5.74 1.53-1.77 4.05-2.03 6.11-2.82.12-3.18.22-6.43-.9-9.47-7.62 3.7-16.3.87-24.4 1.43l.01 1.18c-.37 1.95-1.15 3.78-2 5.56-.35-1.5-.7-3-1-4.51l-.63-3.42-2.88-1.59c.38-.08 1.14-.24 1.51-.32zm45.48 13.44c3.85 2.07 4.87 6.88 5.33 10.86.43 7.68.38 15.39.41 23.09-.16 2.88.38 6.15-1.62 8.55 1.69-9.16.7-18.53.51-27.77.18-5.3-1.34-10.54-4.63-14.73zm-51.2 2.91c1.34.5 2.69.96 4.03 1.48l.12.88c.18 3.59-.32 7.21-1.84 10.49-1.17.3-2.33.61-3.5.92.19.47.58 1.41.77 1.88-.62 2.13-1.39 4.2-2.24 6.24l-4.33-.06c.14.97.43 2.9.57 3.87 1.14-.13 2.28-.26 3.42-.4-3.74.13-4.16 3.81-3.94 6.69.56.9 1.15 1.79 1.74 2.67-1.17.83-2.34 1.66-3.46 2.56.5-1 .99-1.99 1.49-2.98-.93-4.37.22-8.82-.43-13.22 1.44-.1 3.01.3 4.36-.36 1.36-2.68.88-5.76.75-8.63 1.8-.06 3.58-.37 5.31-.89-1.72-.33-3.43-.64-5.13-1.07 1.01-.16 3.01-.49 4.01-.65.99-3.21 1.92-7.48-1.7-9.42zm-6.15 53.53c-.05-.75-.41-1.74.41-2.23l.66-.03c3.09 1.11 6.39.82 9.6.73 5.78-.04 11.55.37 17.32.24 3-.05 6.02.01 9 .43-5 .49-10.03.4-15.04.37-7.31.28-14.75-1.13-21.95.49zm43.72.3c2.51.94 2.7 3.54 2.53 5.85-7.74 2.14-15.82 1.57-23.75 2.03-9.32-.04-18.69.41-27.97-.79-1.73-.19-3.99-.69-4.43-2.69-.4-1.59 1.21-2.44 2.15-3.36-.66 1.2-1.31 2.41-1.93 3.63 4.05 2.19 8.74 2.11 13.21 2.34 7.76.25 15.55.32 23.31-.09 6.4-.25 12.8-.68 19.14-1.61-.5-1.86-1.11-3.73-2.26-5.31z" fill="#0f0303"/>
    <path fill="#ba2423" d="M44.6 28.22c3.75.53 7.55.31 11.27-.36l2.88 1.59.63 3.42c-.03 1.82-.17 3.63-.41 5.43l-.2.89.42.77c.27.52.8 1.56 1.06 2.07-1.64.88-3.25 1.83-4.83 2.82.32-.69.97-2.06 1.29-2.75-.45-.04-1.34-.11-1.79-.14l-.83-.29c-.38-.13-1.12-.39-1.5-.52-.45.86-.89 1.71-1.34 2.56l.41.18c3.62 1.94 2.69 6.21 1.7 9.42-1 .16-3 .49-4.01.65 1.7.43 3.41.74 5.13 1.07-1.73.52-3.51.83-5.31.89.13 2.87.61 5.95-.75 8.63-1.35.66-2.92.26-4.36.36-1.08-2.16-2.74-4.22-2.8-6.73 1.1-1.47 1.67-3.2 1.33-5.04l-.58-.46c-.38.17-1.13.52-1.51.69-.23-1.1-.46-2.19-.68-3.29l2.13.8c.08-2 .17-4.01.35-6 2.87-3.69.97-9.21 5.01-12.3-.92-1.45-1.83-2.9-2.71-4.36z"/>
    <path fill="#1e0406" opacity=".62" d="M40.24 32.79c-1.02-.85.74-2.91 1.86-2.57.52 1.09-.57 2.88-1.86 2.57z"/>
    <path fill="#bb2424" d="M62.37 30.64c8.1-.56 16.78 2.27 24.4-1.43 1.12 3.04 1.02 6.29.9 9.47-2.06.79-4.58 1.05-6.11 2.82-1.42 1.56-1.24 3.8-1.35 5.74-1.64-.57-3.28-1.14-4.91-1.71l-.8 2.21c-.84-1.99-1.38-4.19-2.74-5.9-2.52-2.14-6.14-1.51-9.2-1.73v-.91c.01-2.46-.09-4.92-.18-7.38l-.01-1.18z"/>
    <path opacity=".7" d="M62.38 31.82c.09 2.46.19 4.92.18 7.38-1.57-2.06-2.74 1.54-.5 1.58-1.51 2.4-3.75 4.17-6.25 5.47l-.12-.88c-1.34-.52-2.69-.98-4.03-1.48l-.41-.18c.45-.85.89-1.7 1.34-2.56.38.13 1.12.39 1.5.52-2.48.85.75 2.62.83.29.45.03 1.34.1 1.79.14-.32.69-.97 2.06-1.29 2.75 1.58-.99 3.19-1.94 4.83-2.82-.26-.51-.79-1.55-1.06-2.07 1.4-.77 1.33-1.32-.22-1.66.24-1.8.38-3.61.41-5.43.3 1.51.65 3.01 1 4.51.85-1.78 1.63-3.61 2-5.56zM38.27 37.2c.41-.99-.3-3.92 1.49-2.88.5 1.26.92 2.55 1.37 3.82-.15.44-.46 1.33-.62 1.77.46.69.91 1.39 1.35 2.09l.44 2.88c-.18 1.99-.27 4-.35 6l-2.13-.8c.22 1.1.45 2.19.68 3.29-.19 1.91 2.31 1.39 2.09-.23.34 1.84-.23 3.57-1.33 5.04-3.49-6.53-1.34-14.08-2.99-20.98z" fill="#470d0f"/>
    <path fill="#2b0807" opacity=".64" d="M58.97 38.3c1.55.34 1.62.89.22 1.66l-.42-.77.2-.89z"/>
    <path fill="#250806" opacity=".64" d="M62.06 40.78c-2.24-.04-1.07-3.64.5-1.58v.91l-.5.67z"/>
    <path fill="#cb2726" d="M62.56 40.11c3.06.22 6.68-.41 9.2 1.73 1.36 1.71 1.9 3.91 2.74 5.9l.8-2.21c1.63.57 3.27 1.14 4.91 1.71.72 3.29 1.85 6.98 5.61 7.79l-.77 2.42c-1.18 3.58-1.73 7.33-2.22 11.06-.59-1.36.89-5.06-1.61-4.48-.99 1.15-1.8 2.45-2.65 3.7-5.78-.28-11.57.29-17.33-.16-4.35-.17-6.08-4.76-9.18-7.09l-.82-.94c-.19-.47-.58-1.41-.77-1.88 1.17-.31 2.33-.62 3.5-.92 1.52-3.28 2.02-6.9 1.84-10.49 2.5-1.3 4.74-3.07 6.25-5.47l.5-.67z"/>
    <path fill="#b52421" d="M83.27 41.24c1.7-.87 3.59-1.24 5.43-1.7 3.13.91 6.36.4 9.5-.14l-1.05 4.56c-2.1.53-4.2 1.05-6.23 1.81-.47.25-1.42.74-1.89.99-.84 1.99-1.43 4.09-2.3 6.07-1.74 1.76-3.91-.28-4.74-1.93-1.13-3.1-1.15-7.16 1.28-9.66z"/>
    <path fill="#1b0404" opacity=".56" d="M54.92 41.96c-.08 2.33-3.31.56-.83-.29l.83.29z"/>
    <path fill="#2d0808" opacity=".49" d="M99.25 46.78c4.42 4.88 2.13 11.88 3.05 17.78.33 5.16.67 10.4-.36 15.51-.51 2.27-1.56 4.97-4.07 5.63-3.3 1.01-6.68-.53-9.12-2.72 3.49 1.71 9.68 4.09 11.68-.79 2.47-7.12.98-14.82 1.05-22.19.15-4.52-.44-9.04-2.23-13.22z"/>
    <path fill="#240706" opacity=".6" d="M40.5 53.37c.38-.17 1.13-.52 1.51-.69l.58.46c.22 1.62-2.28 2.14-2.09.23z"/>
    <path fill="#b82423" d="M107.49 55.71c.19 9.24 1.18 18.61-.51 27.77-.88 2.69-2.6 4.99-4.8 6.74-3.61 1.72-7.59-.66-11.29.76-3.1 1.04-6.48 1.33-9.1-.99.14-2.1-.82-4.6.59-6.41 1.42-.9 2.98-1.53 4.49-2.24.61.56 1.23 1.11 1.88 1.64 2.44 2.19 5.82 3.73 9.12 2.72 2.51-.66 3.56-3.36 4.07-5.63 1.03-5.11.69-10.35.36-15.51l4.23-.96c.33-2.63.69-5.25.96-7.89z"/>
    <path fill="#aa2021" d="M51.24 59.54l.82.94c.25 2.84.37 5.7.21 8.55-.64.03-1.94.08-2.59.11.7.52 1.39 1.06 2.07 1.61 2.26 2.55 3.74 5.63 5.63 8.44 2.99.8 6.1 1.05 9.19 1.12-2.37.69-4.77 1.25-7.16 1.88 2.26 1.04 4.65 1.75 7.11 2.13-.23.36-.46.71-.69 1.07 2.66 3.47 8.23 5.66 7.67 10.74-5.77.13-11.54-.28-17.32-.24-1.14-1.11-2.29-2.22-3.44-3.31l6.2-.99-.06-3.26c-1.76-.16-3.52-.32-5.27-.47.29-.97.59-1.93.82-2.91-1.14-.25-2.32-.3-3.48-.39-1.12-2.75-2.32-5.47-3.58-8.15-.67-.13-1.99-.39-2.65-.53-.22-2.88.2-6.56 3.94-6.69-1.14.14-2.28.27-3.42.4-.14-.97-.43-2.9-.57-3.87l4.33.06c.85-2.04 1.62-4.11 2.24-6.24m.09 19.7c.36 1.36 4.03 1.37 4.41.04-1.28-.76-3.13-.82-4.41-.04z"/>
    <path fill="#b82421" d="M52.06 60.48c3.1 2.33 4.83 6.92 9.18 7.09 5.76.45 11.55-.12 17.33.16.85-1.25 1.66-2.55 2.65-3.7 2.5-.58 1.02 3.12 1.61 4.48-.27 3.34 3.21 8.46-1.55 9.89 2.02.1 3.75 1.04 5.09 2.5-2.2.67-5.22 1.11-5.78 3.81-1.42 4.16 1.79 8.51 6.14 8.68-.31.84-.74 1.62-1.29 2.35.72.37 1.43.73 2.15 1.1l1.64.88c1.15 1.58 1.76 3.45 2.26 5.31-6.34.93-12.74 1.36-19.14 1.61-.72-.2-2.16-.59-2.88-.79.28-.67.55-1.34.83-2.01-.93-1.65-1.88-3.29-2.84-4.91 5.01.03 10.04.12 15.04-.37-2.98-.42-6-.48-9-.43.56-5.08-5.01-7.27-7.67-10.74.23-.36.46-.71.69-1.07-2.46-.38-4.85-1.09-7.11-2.13 2.39-.63 4.79-1.19 7.16-1.88l3.09-.96c-4.07-.45-8.19-.52-12.28-.16-1.89-2.81-3.37-5.89-5.63-8.44 6.71-1.26 13.54-.59 20.3-.42 1.98.12 3.93-.34 5.78-1-8.49-.66-17.04-.25-25.56-.3.16-2.85.04-5.71-.21-8.55z"/>
    <path fill="#34090a" opacity=".68" d="M49.68 69.14c.65-.03 1.95-.08 2.59-.11 8.52.05 17.07-.36 25.56.3-1.85.66-3.8 1.12-5.78 1-6.76-.17-13.59-.84-20.3.42-.68-.55-1.37-1.09-2.07-1.61z"/>
    <path fill="#9c2021" d="M44.72 75.88c.66.14 1.98.4 2.65.53 1.26 2.68 2.46 5.4 3.58 8.15 1.16.09 2.34.14 3.48.39-.23.98-.53 1.94-.82 2.91 1.75.15 3.51.31 5.27.47l.06 3.26-6.2.99c1.15 1.09 2.3 2.2 3.44 3.31-3.21.09-6.51.38-9.6-.73l-.66.03c-.82.49-.46 1.48-.41 2.23 7.2-1.62 14.64-.21 21.95-.49.96 1.62 1.91 3.26 2.84 4.91-.28.67-.55 1.34-.83 2.01.72.2 2.16.59 2.88.79-7.76.41-15.55.34-23.31.09-4.47-.23-9.16-.15-13.21-2.34.62-1.22 1.27-2.43 1.93-3.63 1.54-2.09 3.61-4.1 3.77-6.86.18-3.62 0-7.39 1.47-10.79 1.12-.9 2.29-1.73 3.46-2.56-.59-.88-1.18-1.77-1.74-2.67z"/>
    <path fill="#440c0d" opacity=".73" d="M51.33 79.24c1.28-.78 3.13-.72 4.41.04-.38 1.33-4.05 1.32-4.41-.04z"/>
    <path fill="#270708" opacity=".65" d="M57.38 79.19c4.09-.36 8.21-.29 12.28.16l-3.09.96c-3.09-.07-6.2-.32-9.19-1.12z"/>
    <path fill="#3c0b0b" opacity=".61" d="M80.59 84.71c.56-2.7 3.58-3.14 5.78-3.81l.5.44c-1.51.71-3.07 1.34-4.49 2.24-1.41 1.81-.45 4.31-.59 6.41 2.62 2.32 6 2.03 9.1.99 3.7-1.42 7.68.96 11.29-.76-2.21 3.06-6.17.4-9.21 1.07-1.63.44-4.19.07-5.05 1.78-.18 1.25-.29 2.51-.33 3.77-.72-.37-1.43-.73-2.15-1.1.55-.73.98-1.51 1.29-2.35-4.35-.17-7.56-4.52-6.14-8.68z"/>
</svg>
