<svg width="128pt" height="128pt" viewBox="0 0 128 128" xmlns="http://www.w3.org/2000/svg">
    <g fill="#fff">
        <path d="M67.58 28.43c6.54-.12 13.24-.98 19.59.99.97 3.07.57 6.35.52 9.51-3.36.2-7.47 2.11-7.41 6.01.18 3.7.83 9.74 5.77 9.69-1.97 4.32-3.06 9.04-2.81 13.81-1.78.54-3.62.85-5.44 1.17 1.53.7 3.13.49 4.63-.22.55 2.37 1.68 4.79 1.31 7.25-2.24 2.97-6.63.99-9.78 2.12 4.14 1.56 10.08-2.25 12.6 2.71-1.61.19-3.53.05-4.76 1.34-2.22 2.68-1.57 7.18 1.16 9.27 1.38.79 3.04.76 4.53 1.2-.42 1.17-1.22 1.9-2.39 2.18 2.97 1.25 7.49 4.15 5.62 7.92-14.18 1.54-28.47 1.86-42.71 1.32-3.88-.28-8.2.11-11.62-1.98-.43-2.95 2.8-4.9 4.06-7.31l2.37.36.14-.54c-.58.02-1.74.07-2.32.09 1.97-3.66.57-7.89 1.73-11.74.6-2.16 1.67-4.81 4.4-4.62-2.19-1.97-2.83-5.32-1.63-7.98 1.74-1.8 4.57-1.4 6.7-.6 8.57-1.34 17.38.86 25.84-.89-10.86-.39-21.79-.37-32.64.08-.1-.92-.29-2.76-.39-3.68 1.46-.25 3.41.47 4.51-.82 1.84-2.04 1.47-5 1.56-7.52 5.69-.44 4.82-7.62 4.99-11.7 1.98-.96 4.11-1.94 5.29-3.91 2.24-3.36 1.36-7.61.8-11.33 7.84-.44 15.79 1.17 23.54-.47-.51-.33-1.53-1.01-2.04-1.34-5.23-.35-10.51.45-15.72-.37m-17.66 51.1c2.35.39 4.73.25 7.09.08 4.13.06 8.4 1.17 12.42-.29-6.49-.32-13.03-.17-19.51.21m-3.67 16.94c7.22.74 14.51.05 21.76.34 4.78-.05 9.63.51 14.36-.41-12.03-.29-24.1-.87-36.12.07z"/>
        <path d="M88.85 39.35c3.57 1.93 7.3-.4 11-.07 4.08 1.71 6.38 6.15 7.29 10.28.86 8.82.76 17.7.77 26.55.05 5.37-1.6 11.32-6.42 14.3-2.38 2.28-5.6-.71-8.43.25-3.09 0-6.35 2.89-9.22.81-3.79-1.69-3.56-9.28 1.25-9.3 3.07-.84 4.7 2.47 7.37 3.13 3.12 1.01 7.71.69 8.75-3.06 2.09-6.87 1-14.19.82-21.25-.55-4.72 1-10.46-2.97-14.07-2.83-2.82-7.2-1.83-10.33-.08-1.15 2.23-.36 6.78-3.85 6.62-4.23-1.35-4.11-6.94-2.95-10.39.93-2.95 4.53-2.77 6.92-3.72z"/>
    </g>
</svg>
