<svg width="128pt" height="128pt" viewBox="0 0 128 128" xmlns="http://www.w3.org/2000/svg">
    <path fill="#a9a9a9" opacity=".66" d="M80.05 21.94c1.8-1.33 3.58-2.74 5.65-3.62-.83 1.36-2.05 2.41-3.32 3.37.48.79.97 1.58 1.46 2.36-3.98 4.14-9.29 6.56-13.77 10.08-4.79 2.23-8.71 5.79-12.25 9.63l-1.78.13c.49-.85 1.48-2.55 1.97-3.4 7.24-6.85 16.48-10.98 24.63-16.6-.57-.43-1.15-.85-1.72-1.27-6.06 4.67-12.76 8.44-19.12 12.66-1.33-.47-.18-2.4.75-2.61 5.81-3.61 11.99-6.64 17.5-10.73z"/>
    <path fill="#202020" opacity=".13" d="M80.92 22.62c.57.42 1.15.84 1.72 1.27-8.15 5.62-17.39 9.75-24.63 16.6l-1.28.6c1.21-1.78 2.53-3.47 3.73-5.25.33-.14 1-.42 1.34-.56 6.36-4.22 13.06-7.99 19.12-12.66z"/>
    <path opacity=".72" d="M104.35 28.12c.35-.29 1.04-.89 1.39-1.18-.36 1.77-.68 3.56-1.18 5.31-1.16.81-2.26 1.69-3.32 2.63.57.04 1.72.13 2.29.18l-2.32.02c1.5 3.16-1.79 4.98-3.99 6.39-1.07.43-.96 1.44-.2 2.11l-2.51 3.71c1.39-.82 2.78-1.63 4.19-2.41-1.34 3.73-4.23 8.73-8.76 8.16 1.6-1.61 3.26-3.18 4.48-5.11-2 .93-3.38 2.67-4.87 4.22-3.51.36-.94-2.37.26-3.38 1.46-1.55 3.9-2.46 4.22-4.83-2.67 2.07-4.78 4.73-7.19 7.06-.58.08-1.73.23-2.3.3 3.92-6.29 10.47-10.26 16.68-14-1.5-1.9-1.72-5.01 2.04-5.34-9.91 2.54-16.75 10.58-22.57 18.46-.58 0-1.74.01-2.32.02 3.92-5.57 7.71-11.6 13.64-15.25 3.21-2.15 7.25-2.66 10.24-5.17 1.22 1.93 3.81-.48 2.1-1.9zM33.02 87.23c-.91-2.48-.42-5.17 1.63-6.91.18.73.54 2.2.71 2.93 3.01.74 5.28 3.06 7.99 4.47 3.91 3.38 4.79 8.84 6.9 13.34l-1.42-.16c-.1-1.43-.65-2.33-1.64-2.71-.08 1.92 1.48 3.37 2.23 5.02 1.32-1.78 2-.99 2.3 1.03-.51-.14-1.52-.41-2.03-.54 2.12 4.21 5.35 7.67 8.33 11.26-5.24-1.79-7.99-6.86-10.78-11.24-2.96-6.28-5.33-12.95-10.03-18.22l-.32 2.55c-1.03-1.02-1.98-2.11-2.96-3.16 1.43 5.12 5.09 9.41 5.74 14.76-1.29-1.9-2.47-3.87-3.59-5.86-1.13-2.14-2.15-4.33-3.06-6.56m9.87 2.52c1.45 2.31 2.11 5.19 3.86 7.24-.16-2.85-2.28-5.03-3.86-7.24-.63-.41-.63-.41 0 0z" fill="#b7b7b7"/>
    <path fill="#a4a4a4" opacity=".64" d="M71.02 35.22c3.49-2.95 7.29-5.61 11.56-7.32-1.01 1.41-2.28 2.6-3.63 3.67.3.28.9.85 1.19 1.13-1.15 1.35-2.38 2.63-3.72 3.8-2.77 2.26-5.72 4.31-8.28 6.83 3.6-1.27 6.72-3.47 9.71-5.79l-1.43-1.04c.63.25 1.87.75 2.5 1-2.73 2.76-5.65 5.33-8.85 7.53.23.03.69.09.92.13 2.47-.91 4.46-2.75 6.81-3.91-1.05 3.13-5.48 7.3-8.92 4.89l-3.06-.32c.71-.8 1.43-1.6 2.15-2.39-.06-.17-.17-.49-.23-.65-1.49.89-3.02 1.73-4.59 2.46.25-.84.74-2.5.99-3.33 5.32-1.53 9.36-5.47 14.13-8.06-.41-.36-.82-.71-1.24-1.05-1.34 1.12-2.67 2.26-3.96 3.43-.69-.33-1.37-.67-2.05-1.01z"/>
    <path fill="#cdcdcd" opacity=".8" d="M59.46 35.32l1 .52c-1.2 1.78-2.52 3.47-3.73 5.25-.83 1.45-1.86 2.77-3.73 2.12 1.84-2.85 3.71-5.84 6.46-7.89z"/>
    <path fill="#dedede" opacity=".87" d="M69.93 35.78c.7.33 1.4.67 2.1 1.02-2.84 1.95-6.13 3.23-8.75 5.5-1.33 1.06-2.41 3.16-4.62 1.68 3.02-3.71 7.66-5.26 11.27-8.2z"/>
    <path fill="#d1d1d1" opacity=".82" d="M81.87 51.05c3.61-6.55 9.07-12.37 15.9-15.65.61.49 1.22.97 1.83 1.45-2.39 1.13-4.59 2.59-6.89 3.88-3.09 3.22-5.88 6.71-8.96 9.94-.47.1-1.41.29-1.88.38z"/>
    <path fill="#101010" opacity=".06" d="M68.14 43.33c2.56-2.52 5.51-4.57 8.28-6.83l1.43 1.04c-2.99 2.32-6.11 4.52-9.71 5.79z"/>
    <path fill="#b1b1b1" opacity=".7" d="M93.28 53.44c1.48-1.33 2.99-2.66 4.76-3.62-.48 1.03-1.45 3.1-1.93 4.14 1.04-.24 3.11-.72 4.14-.97-1.41 1.33-3.12 2.25-5.1 2.3 1.85.62 3.66 1.48 4.65 3.28-1.54-1.05-3.17-.5-4.57.22 3.35-.41 5.49 2.2 7.73 4.16-3.8-.48-7.36-1.94-10.85-3.42-1.98-2.38 6.18-1.25 1.9-3.16-.23-.98-.47-1.96-.73-2.93z"/>
    <path fill="#f0f0f0" opacity=".94" d="M90.65 59.75c3.71 1.29 7.41 2.62 10.78 4.66-1.19.25-2.38.51-3.56.78l-.04.77c1.59.06 3.19.13 4.78.21l-.08 1.47c-5.35-.46-11.61-1.5-15.31-5.67 3.52.12 6.56 2.12 9.94 2.85-2.06-1.73-4.94-2.02-7.02-3.63l.51-1.44z"/>
    <path fill="#8d8d8d" opacity=".55" d="M21.53 64.09c1.06-.35 2.18-2.11 3.41-1.15.83.92.53 2.05-.05 3-1.62 1.33-2.54-.91-3.36-1.85z"/>
    <path fill="#dcdcdc" opacity=".86" d="M84.44 64.41c.58-.21 1.75-.61 2.34-.82 5.57 2.14 10.69 5.73 16.86 5.92l.32 1.42c-1.42.03-2.83.04-4.25.01-5.46-1.03-10.34-4.09-15.27-6.53z"/>
    <path fill="#787878" opacity=".47" d="M101.43 64.41l.44-.09c1.48.93 3.15 1.31 4.9 1.28-.43.11-1.31.32-1.75.42 1.55 1.02 3.27 1.75 4.75 2.89-1.21-.06-3.63-.17-4.84-.22 2.78 1.63 6.11 2 8.99 3.44-.21.44-.63 1.3-.83 1.73.56-.1 1.69-.29 2.25-.39l.6 2.51-3.48-1.6c-.21-.33-.64-.99-.86-1.32l-.52-.82c-3.7-1.44-7.71.25-11.37-1.3 1.42.03 2.83.02 4.25-.01.27-.91.55-1.82.85-2.72-.58-.07-1.73-.19-2.3-.26l.02-.31.08-1.47c-1.59-.08-3.19-.15-4.78-.21l.04-.77c1.18-.27 2.37-.53 3.56-.78z"/>
    <path fill="#bcbcbc" opacity=".74" d="M82.7 65.35c2.96-.68 5.63 2.18 8.34 3.24 2.52.67 4.84 1.85 7.19 2.95 4.31 1.43 8.91 1.08 13.37 1.52.22.33.65.99.86 1.32-4.68-.6-9.44.51-14.09-.47-2.73-.55-5.29-1.67-7.79-2.87l.04 2.02c.01-4.59-7.69-3.74-7.92-7.71z"/>
    <path fill="#a3a3a3" opacity=".64" d="M78.34 74c.64-.67 1.29-1.33 1.93-2 2.01.82 4.04 1.61 5.93 2.69-1.2-.07-3.6-.22-4.81-.3.19.45.56 1.35.74 1.8 2.23-.19 4.14 1.14 6.09 1.99l.45.24c-.83.51-1.67.98-2.51 1.47 1.89.1 3.48.81 4.75 2.12-2.75-.61-5.52-1.1-8.32-1.46.14.35.4 1.06.53 1.41 4.07.22 8.38.78 11.89 3.02-3.85.05-7.68-.5-11.4-1.48-4.36-1.18-8.95-.97-13.35-1.86-.35-.42-1.03-1.28-1.38-1.7 4.63-.86 9.59 2.37 13.92.18-3.53-.22-7.07-.33-10.61-.5.05-2.62 3.16-1.79 4.8-1.85 3.37-.2 6.91 2.53 10.02.38-3.91-1.03-7.95-1.25-11.97-1.21 1.48-2.8 4.69-1.22 6.8-2.91l-3.5-.03z"/>
    <path fill="#9f9f9f" opacity=".62" d="M65.61 82.02c3.52-.52 6.71 1.49 10.16 1.84-.61 1.12-1.3 2.2-2.16 3.14 7.87.83 15.82 1.84 23.61 3.42.14-.29.42-.89.56-1.18-4.47-1.47-9.21-1.6-13.82-2.27.77-.52 1.55-1.02 2.34-1.52 4.65.6 10.01.57 13.62 4.05-.53.5-1.06 1.01-1.58 1.51l2.46-.03c-.04.42-.13 1.26-.17 1.68-9.08-3.1-18.81-2.4-28.12-4.22-3.5-1.28-7.84-2.1-10.03-5.4 3.8-1.1 6.59 4.47 10.07 2.22-2.6-.37-5.03-1.43-6.94-3.24z"/>
    <path fill="#5e5e5e" opacity=".37" d="M33.93 84.89c.98 1.05 1.93 2.14 2.96 3.16 1.12 5.46 4.57 10.08 6.88 15.09-.28.38-.84 1.16-1.12 1.55.28-2.36-2.71-2.91-2.98-5.04-.65-5.35-4.31-9.64-5.74-14.76z"/>
    <path fill="#d7d7d7" opacity=".84" d="M76.85 86.33c-.16-.56-.46-1.68-.62-2.25 2.99.2 5.97.54 8.94.96-.8.53-1.6 1.05-2.4 1.57-1.94-.38-3.97-.86-5.92-.28z"/>
    <path fill="#353535" opacity=".21" d="M36.08 93.79c-2.37-.91-4.67-4.15-3.06-6.56.91 2.23 1.93 4.42 3.06 6.56z"/>
    <path fill="#c7c7c7" opacity=".78" d="M36.89 88.05l.8-1.08c5.1 8.94 8.24 19.28 15.69 26.66 3.38 3.43 8.43 2.9 12.75 3.99-5.12.76-11.23.25-14.9-3.84-2.99-3.16-5.55-6.73-7.46-10.64-2.31-5.01-5.76-9.63-6.88-15.09z"/>
    <path fill="#737373" opacity=".45" d="M42.89 89.75c-.63-.41-.63-.41 0 0z"/>
</svg>
