<svg width="128pt" height="128pt" viewBox="0 0 128 128" xmlns="http://www.w3.org/2000/svg">
    <g fill="#b82b2c">
        <path d="M79.67 19.63c3.38-1.7 5.77-4.69 8.22-7.48-.11.31-.34.92-.45 1.23-1.61 1.97-3.35 3.84-4.91 5.85l-.2.23-.23.22c-2.36 1.59-4.75 3.15-7.16 4.68-.05-.31-.13-.91-.18-1.21 1.04-1.76 3.3-2.35 4.91-3.52zm-.21 4.48c-1.38-.58-.08-2.99 1.18-1.96-.3.49-.89 1.47-1.18 1.96z"/>
        <path d="M72.96 23.52c.47.56.67 1.22.6 1.96l.05.44c1.27-.5 2.39-1.29 3.48-2.1.44.35.88.71 1.32 1.07-4.39 2.34-8.57 5.07-12.68 7.89-2.71 1.89-5.85 3.55-7.34 6.69-.52-.69-1.05-1.36-1.6-2.02 4.48-4.32 10.18-6.89 15.09-10.56-.25-.41-.74-1.22-.98-1.62.51-.44 1.54-1.31 2.06-1.75zm-1.14 7.24c3.96-2.23 7.47-5.6 12.01-6.56-.96.84-1.95 1.65-2.96 2.43-5.2 3.53-10.37 7.13-15.79 10.32-3.27 1.99-5.3 5.52-8.8 7.16.75-1.46 1.57-2.88 2.32-4.34l-.21-.3c4.41-3.01 8.8-6.03 13.43-8.71z"/>
        <path d="M59.52 31.47c3.16-1.99 6.48-4.69 9.9-5.54l.39.36c-.03.23-.07.69-.1.92-3.7 2.48-8.03 4.02-11.28 7.15-2.88 2.41-4.71 5.74-6.32 9.07 6.68 1.1 13.55 1.93 19.74 4.89.31.14.93.43 1.24.57 6.34 3.4 13.92 2.7 20.18 6.33-2.34 3.68-5.76 6.47-9.59 8.48-1.63.69-2.43 2.33-3.03 3.87-.6 1.57-1.11 3.17-1.64 4.77 1.68.26 3.33.61 4.98 1.05-2 .35-4.23 1.08-5.79-.76-.24.35-.72 1.03-.96 1.37-2.3 2.02-4.93 3.6-7.44 5.34-2.09 1.4-4.23 2.82-6.7 3.45-.61.17-1.81.51-2.42.69 5.29 5.14 12.83 7.54 20.13 6.93.09-.25.28-.75.37-1 .17-.31.5-.94.67-1.25 1.43.36 2.78.2 4.06-.48l.39-.34c2.01-.83 4.09-.45 6.04.29-1.4.54-5.94-1.58-5.1 1.08 4.7.77 9.47 1.41 13.99 2.99-1.45.29-2.92.51-4.38.75 1.21.45 2.43.9 3.63 1.39-5.19.11-10.24-1.4-15.41-1.45-7.78-.02-15.83-1.02-22.82-4.62-4.07-2.89-8.77-.95-13.2-.51-5.52-.91-10.69-3.68-14.82-7.43-1.01 1.28-2.51 2.41-2.61 4.16-.37 3.36 2.35 6.23 1.83 9.61-1.15-2.3-2.24-4.64-2.95-7.12-.61-2.43-1.27-5.2.37-7.39 2.44-3.58 5.14-7.03 6.46-11.23l-.93.78c-.24-1.66-.46-3.33-.74-4.98-.45 3.18-.24 6.84-2.71 9.29-2.24 2.28-4.68 6.61-8.41 4.42-1.44-.95-2.87-1.95-4.34-2.86-1.92.33-3.85.29-5.57-.72 1.52-1.04 3.12-1.94 4.77-2.73 1.25-.75 1.14-1.34-.33-1.77-1.41-1.22-2.53-2.74-3.71-4.18 3.16-6.14 7.86-11.55 14.1-14.67 4.46-2.92 9.75-3.79 14.77-5.23 5.91-3.61 9.44-10.01 15.29-13.74M23.48 62.43c-1.17 1.06-.88 2.74-1.13 4.15 1.26-.19 2.51-.4 3.77-.63-.36-1.48-.77-3.4-2.64-3.52m57.99 28.53c5.12-.02 10.17.87 15.23 1.56l-.03-1.44c-4.4-.54-8.79-1.33-13.23-1.35-.7.34-1.36.75-1.97 1.23z"/>
        <path d="M72.35 34.36c2.65-2.15 5.51-4.03 8.57-5.53l.57.99-1.48.88c-4.27 2.85-8.11 6.33-12.56 8.92-2.95 1.56-5.13 4.73-8.76 4.69 3.34-4.83 9.31-6.34 13.66-9.95zm-2.21 4.81c3.11-1.78 5.74-4.38 9.15-5.62-.48.49-1.45 1.46-1.93 1.95-4.52 3.99-9.3 8.09-15.31 9.56 1.77-3.1 5.26-4.11 8.09-5.89zm-4.07 6.89c3.01-4.03 8.22-5.25 12.12-8.21-1.07 1.28-2.35 2.37-3.73 3.31 1.13 1.17 2.42 1.31 3.74.27-1.48 1.71-2.93 3.52-4.83 4.79-.89.25-2.68.74-3.57.99 1.43-1.76 3.31-3.03 5.33-4.02-.46-.39-.92-.78-1.38-1.18-2.07 2.14-4.71 3.59-7.68 4.05zm25.71-2.34c2.85-2.39 6.07-4.28 9.37-5.95-.38.47-1.15 1.4-1.54 1.87-1.35 1.66-2.59 3.4-3.88 5.1-3.27 1.79-5.94 4.45-7.55 7.84l.2-3.23c1.57-2 3.3-3.87 4.96-5.8l-1.56.17zm2.51 8.7c1.14-.78 2.28-1.54 3.43-2.3-.51 1.24-1.03 2.48-1.56 3.71.7-.06 2.1-.19 2.8-.25-.99.69-1.99 1.38-2.99 2.05 1.17.67 2.32 1.36 3.47 2.07-1.76.59-3.5-.15-5.18-.64.02-1.55.02-3.1.03-4.64zm6.2 17.84c1.4-.25 2.82-.43 4.24-.57 2.17.38 4.33.87 6.46 1.46l1.13.32c-4.44-.15-8.89-.07-13.32-.45l1.49-.76zm-23.65 4.46c2.25.52 4.5 1.08 6.72 1.7.79.26 2.36.78 3.14 1.04-3.63-.28-7.26-.65-10.9-.78l1.04-1.96z"/>
    </g>
    <path fill="#030101" opacity=".17" d="M82.53 19.23c1.56-2.01 3.3-3.88 4.91-5.85.05 2.26-1.14 4.23-2.08 6.19l-.66-.14-2.17-.2z"/>
    <path fill="#020000" opacity=".37" d="M82.33 19.46l.2-.23c-.11.11-.32.34-.43.45l.23-.22z"/>
    <path fill="#711d1f" opacity=".65" d="M82.53 19.23l2.17.2c.05 1.33-.6 2.07-1.96 2.22l-.47-.58c-.04-.35-.13-1.05-.17-1.39.11-.11.32-.34.43-.45z"/>
    <g fill="#010000">
        <path opacity=".22" d="M74.94 24.36c2.41-1.53 4.8-3.09 7.16-4.68.04.34.13 1.04.17 1.39.43 1.08.98 2.11 1.56 3.13-4.54.96-8.05 4.33-12.01 6.56-4.63 2.68-9.02 5.7-13.43 8.71 1.49-3.14 4.63-4.8 7.34-6.69 4.11-2.82 8.29-5.55 12.68-7.89-.44-.36-.88-.72-1.32-1.07-1.09.81-2.21 1.6-3.48 2.1l-.05-.44c.07-.74-.13-1.4-.6-1.96l-.56-.75c.59.09 1.77.29 2.36.38.05.3.13.9.18 1.21m4.52-.25c.29-.49.88-1.47 1.18-1.96-1.26-1.03-2.56 1.38-1.18 1.96z"/>
        <path opacity=".22" d="M68.96 25.46l1.46-.68.48.49c.24.4.73 1.21.98 1.62-4.91 3.67-10.61 6.24-15.09 10.56.55.66 1.08 1.33 1.6 2.02l.21.3c-.75 1.46-1.57 2.88-2.32 4.34 3.5-1.64 5.53-5.17 8.8-7.16 5.42-3.19 10.59-6.79 15.79-10.32.41 1.03 1.63 2.11.62 3.19l-.57-.99c-3.06 1.5-5.92 3.38-8.57 5.53-4.35 3.61-10.32 5.12-13.66 9.95 3.63.04 5.81-3.13 8.76-4.69 4.45-2.59 8.29-6.07 12.56-8.92-.01.65-.02 1.94-.03 2.59l-.69.26c-3.41 1.24-6.04 3.84-9.15 5.62-2.83 1.78-6.32 2.79-8.09 5.89 6.01-1.47 10.79-5.57 15.31-9.56.73.11 2.2.34 2.93.46-.67.66-1.37 1.3-2.1 1.89-3.9 2.96-9.11 4.18-12.12 8.21 2.97-.46 5.61-1.91 7.68-4.05.46.4.92.79 1.38 1.18-2.02.99-3.9 2.26-5.33 4.02.89-.25 2.68-.74 3.57-.99-.38.53-1.14 1.58-1.52 2.1-6.19-2.96-13.06-3.79-19.74-4.89 1.61-3.33 3.44-6.66 6.32-9.07 3.25-3.13 7.58-4.67 11.28-7.15.03-.23.07-.69.1-.92l-.39-.36-.46-.47m-13.14 13.7c-.82.95-2.25 2.25-1.68 3.62 1.39.54 2.39-1.29 2.85-2.34.13-1.02-.26-1.44-1.17-1.28zm36.53 2.14c2.65-2.14 5.75-3.64 8.37-5.83.55.34 1.65 1.03 2.2 1.38-.44.23-1.33.69-1.77.92-3.3 1.67-6.52 3.56-9.37 5.95-2.84 2.17-5.39 4.74-7.24 7.82 1.44-.45 2.72-1.18 3.84-2.19l-.2 3.23c2.29-1.47 4.32-3.3 6.42-5.02-1.5 1.98-3.11 3.87-4.54 5.9 3.9-.63 6.48-3.88 8.05-7.25-.9.16-2.7.47-3.6.62.31-.52.91-1.57 1.22-2.09 1.29-1.7 2.53-3.44 3.88-5.1-.08 1.67-.15 3.35-.23 5.02-.62 1.71-1.53 3.38-1.6 5.23.51 1.22 1.32 2.28 2.05 3.38-.69 1.4-.95 2.9-.39 4.43-1.15-.71-2.3-1.4-3.47-2.07 1-.67 2-1.36 2.99-2.05-.7.06-2.1.19-2.8.25.53-1.23 1.05-2.47 1.56-3.71-1.15.76-2.29 1.52-3.43 2.3-.01 1.54-.01 3.09-.03 4.64 1.68.49 3.42 1.23 5.18.64 2.44 2.83 4.5 6.05 7.52 8.34 1.82 1.32 3.11 3.18 4.23 5.11-2.13-.59-4.29-1.08-6.46-1.46-.16-.23-.48-.7-.64-.93-1.69.09-3.38.21-5.07.27-4.89-1.48-9.22-5.57-14.54-5 1.22 1 2.47 1.97 3.72 2.95-1.7-.58-3.31-1.65-5.14-1.72-.43 1.49 1.17 2.11 2.07 2.93-1.49-.2-2.99-.41-4.48-.62.6-1.54 1.4-3.18 3.03-3.87 3.83-2.01 7.25-4.8 9.59-8.48-6.26-3.63-13.84-2.93-20.18-6.33 1.69.23 3.38.45 5.08.63.81-.99 1.64-1.96 2.5-2.91-.68 1.04-.9 2.14-.64 3.3 3.25-1.22 4.86-5.23 7.01-7.9l1.04 1.08c-1.64 1.71-4.29 3.25-4.36 5.84-1.41.13-1.83.79-1.25 1.97 1.41.15 1.83-.5 1.25-1.97l.55 1.24c2.73-2.92 5.15-6.14 8.08-8.87m-.96 16.48c.92 2.62 4.07 2.52 5.98 4.07-2.27-.51-4.43-1.4-6.66-2.03l-.76 1.33c2.24 1.44 4.86 2.18 7.12 3.6-3.33-.84-6.4-2.54-9.83-3 .31.45.93 1.35 1.24 1.81 5.6 3.6 12.31 4.22 18.8 4.28-2.86-1.75-6.07-2.64-9.43-2.21 1.3-.31 2.61-.59 3.92-.85-1.46-.89-2.91-1.78-4.32-2.73 1.06.08 3.17.23 4.23.31-2.29-3.4-6.5-4.2-10.29-4.58zm-67.91 4.65c1.87.12 2.28 2.04 2.64 3.52-1.26.23-2.51.44-3.77.63.25-1.41-.04-3.09 1.13-4.15m-.13 1.36c-.52 1.5-.1 2.04 1.24 1.6.52-1.51.11-2.04-1.24-1.6zm12.31-.13c.28 1.65.5 3.32.74 4.98l.93-.78c-1.32 4.2-4.02 7.65-6.46 11.23-1.64 2.19-.98 4.96-.37 7.39l-1.13.24c-.18-2.81-.09-5.64.54-8.39-1.87.18-4.22 1.16-5.37-.96 3.73 2.19 6.17-2.14 8.41-4.42 2.47-2.45 2.26-6.11 2.71-9.29zm62.06 7.95c.32-.15.96-.44 1.28-.59 4.43.38 8.88.3 13.32.45 2.15-.11 3.35 1.01 2.72 3.29-5.28-3.05-11.7-1.17-17.32-3.15zM69.8 79.34c2.51-1.74 5.14-3.32 7.44-5.34l-.4.72-1.04 1.96c3.64.13 7.27.5 10.9.78.88.18 1.63.74 2.44 1.13-.55.36-1.64 1.08-2.19 1.44-4.43-1.02-9.12-3.09-13.67-1.83-.03.26-.11.79-.14 1.06 5.21.19 10.32 1.78 15.55 1.33 1.91-.38 2.7 1.15 2.78 2.85-6.63-1.88-13.51-2.49-20.22-3.96-.69.61-1.38 1.24-2.05 1.88 6.11 1 12.31 1.45 18.39 2.72-.6.43-1.2.85-1.81 1.28-4.57-1.07-9.35-.91-13.85-2.34-1.55-.32-3.1-1.16-4.71-.84-.06.25-.17.76-.22 1.02 5.87 3.43 12.92 2.45 19.3 4.14l-.39.34c-1.28.68-2.63.84-4.06.48-2.9-.42-5.79-.88-8.66-1.49-3.54-.8-6.63-2.85-10.09-3.88 2.47-.63 4.61-2.05 6.7-3.45z"/>
    </g>
    <path fill="#2d0b0c" opacity=".49" d="M103.11 29.76c.72-1.1 1.63-2.05 2.63-2.91.33 3.13-.94 6.43-4.03 7.65-4.25 1.37-8.54 3.16-11.71 6.42-.26-.26-.78-.78-1.04-1.05 2.27-1.72 4.51-3.52 7.03-4.88 2.52-1.52 5.64-2.47 7.12-5.23z"/>
    <path fill="#bc3b3d" opacity=".86" d="M88.95 37.04c4.35-3.16 9.66-4.42 14.16-7.28-1.48 2.76-4.6 3.71-7.12 5.23-2.52 1.36-4.76 3.16-7.03 4.88-.83.54-1.47 1.25-1.92 2.14-2.15 2.67-3.76 6.68-7.01 7.9-.26-1.16-.04-2.26.64-3.3.39-.38 1.18-1.12 1.57-1.49.82-.55 1.38-1.29 1.66-2.25.88-1.43 2-2.72 3.28-3.8 1.06-.34 1.65-1.02 1.77-2.03z"/>
    <path fill="#b93839" opacity=".87" d="M90 40.92c3.17-3.26 7.46-5.05 11.71-6.42l-.99.97c-2.62 2.19-5.72 3.69-8.37 5.83-2.93 2.73-5.35 5.95-8.08 8.87l-.55-1.24c.07-2.59 2.72-4.13 4.36-5.84.77-.6 1.41-1.32 1.92-2.17z"/>
    <path fill="#0d0304" opacity=".29" d="M87.18 39.07c-.5-1.67.09-2.34 1.77-2.03-.12 1.01-.71 1.69-1.77 2.03z"/>
    <path fill="#e14343" opacity=".94" d="M55.82 39.16c.91-.16 1.3.26 1.17 1.28-.46 1.05-1.46 2.88-2.85 2.34-.57-1.37.86-2.67 1.68-3.62z"/>
    <path fill="#7d2627" opacity=".76" d="M87.04 42.01c.45-.89 1.09-1.6 1.92-2.14.26.27.78.79 1.04 1.05-.51.85-1.15 1.57-1.92 2.17l-1.04-1.08z"/>
    <path fill="#2f0e0e" opacity=".4" d="M82.24 45.12c-.71-1.72-.16-2.47 1.66-2.25-.28.96-.84 1.7-1.66 2.25z"/>
    <path fill="#f14d50" opacity=".98" d="M84.54 51.54c1.85-3.08 4.4-5.65 7.24-7.82l1.56-.17c-1.66 1.93-3.39 3.8-4.96 5.8-1.12 1.01-2.4 1.74-3.84 2.19z"/>
    <path fill="#dd4749" opacity=".94" d="M88.18 52.58c1.61-3.39 4.28-6.05 7.55-7.84-.31.52-.91 1.57-1.22 2.09.9-.15 2.7-.46 3.6-.62-1.57 3.37-4.15 6.62-8.05 7.25 1.43-2.03 3.04-3.92 4.54-5.9-2.1 1.72-4.13 3.55-6.42 5.02z"/>
    <path fill="#b33838" opacity=".84" d="M82.47 50.9c-.58-1.18-.16-1.84 1.25-1.97.58 1.47.16 2.12-1.25 1.97z"/>
    <path fill="#ca4142" opacity=".91" d="M91.39 57.78c3.79.38 8 1.18 10.29 4.58-1.06-.08-3.17-.23-4.23-.31 1.41.95 2.86 1.84 4.32 2.73-1.31.26-2.62.54-3.92.85 3.36-.43 6.57.46 9.43 2.21-6.49-.06-13.2-.68-18.8-4.28-.31-.46-.93-1.36-1.24-1.81 3.43.46 6.5 2.16 9.83 3-2.26-1.42-4.88-2.16-7.12-3.6l.76-1.33c2.23.63 4.39 1.52 6.66 2.03-1.91-1.55-5.06-1.45-5.98-4.07z"/>
    <path fill="#e63b3f" opacity=".96" d="M23.35 63.79c1.35-.44 1.76.09 1.24 1.6-1.34.44-1.76-.1-1.24-1.6z"/>
    <path fill="#d64649" opacity=".91" d="M84.48 64.03c5.32-.57 9.65 3.52 14.54 5-3.62 1.94-7.08-1.87-10.73-2.24 2.84 2.13 6.15 3.5 9.43 4.82 5.62 1.98 12.04.1 17.32 3.15l1 .72c-1.23-.32-2.44-.71-3.67-1.02-6.47-1.03-13.32.61-19.49-2.36-.43-.23-1.3-.69-1.73-.92-1.19-.75-2.42-1.44-3.73-1.97-.57-.25-1.72-.77-2.29-1.02-.9-.82-2.5-1.44-2.07-2.93 1.83.07 3.44 1.14 5.14 1.72-1.25-.98-2.5-1.95-3.72-2.95z"/>
    <path fill="#752324" opacity=".73" d="M88.29 66.79c3.65.37 7.11 4.18 10.73 2.24 1.69-.06 3.38-.18 5.07-.27.16.23.48.7.64.93-1.42.14-2.84.32-4.24.57l-1.49.76c-.32.15-.96.44-1.28.59-3.28-1.32-6.59-2.69-9.43-4.82z"/>
    <path fill="#340b0c" opacity=".58" d="M19.07 69.29c1.47.43 1.58 1.02.33 1.77-.08-.44-.24-1.32-.33-1.77z"/>
    <path fill="#250b0c" opacity=".39" d="M87.42 69.21c1.31.53 2.54 1.22 3.73 1.97l.14.61c-1.1 2.16-4.52-.86-3.87-2.58z"/>
    <path fill="#21090a" opacity=".38" d="M92.88 72.1c6.17 2.97 13.02 1.33 19.49 2.36-4.31.41-8.68.03-12.95.8-2.27-.87-4.57-1.72-6.54-3.16z"/>
    <path fill="#1d0908" opacity=".41" d="M77.24 74c.24-.34.72-1.02.96-1.37 1.56 1.84 3.79 1.11 5.79.76.8.01 1.45.76 2.18 1.06-.65.5-1.95 1.48-2.61 1.97-2.22-.62-4.47-1.18-6.72-1.7l.4-.72z"/>
    <path fill="#be4345" opacity=".87" d="M73.28 78.2c4.55-1.26 9.24.81 13.67 1.83l1.74.56c-5.23.45-10.34-1.14-15.55-1.33.03-.27.11-.8.14-1.06z"/>
    <path fill="#2d0b0b" opacity=".5" d="M31.62 83.99c.1-1.75 1.6-2.88 2.61-4.16 4.13 3.75 9.3 6.52 14.82 7.43 4.43-.44 9.13-2.38 13.2.51-5.59-1.78-11.19.64-16.85-.16.03.65.1 1.96.13 2.61-2.2-2.51-5.13-4.25-8.04-5.83l-1.27.88c-.6-1.48-1.21-2.95-1.83-4.41-3.15 3.66-.58 8.34 1.26 11.95 0 1.56-.12 3.11-.23 4.67-.68-1.12-1.35-2.24-1.99-3.39l.02-.49c.52-3.38-2.2-6.25-1.83-9.61z"/>
    <path fill="#ae3a3c" opacity=".83" d="M69.2 81.36c.67-.64 1.36-1.27 2.05-1.88 6.71 1.47 13.59 2.08 20.22 3.96 1.07.29 2.12.65 3.16 1.06-2.28.1-4.56.08-6.84.06l.16 1.58c2.7-.24 5.4.16 7.94 1.08.84.43 1.63.92 2.38 1.49-2.02-.06-4.02-.39-5.93-1.08-1.95-.74-4.03-1.12-6.04-.29-6.38-1.69-13.43-.71-19.3-4.14.05-.26.16-.77.22-1.02 1.61-.32 3.16.52 4.71.84 4.5 1.43 9.28 1.27 13.85 2.34.61-.43 1.21-.85 1.81-1.28-6.08-1.27-12.28-1.72-18.39-2.72z"/>
    <path fill="#c03e3f" opacity=".88" d="M35.65 92.81c-1.84-3.61-4.41-8.29-1.26-11.95.62 1.46 1.23 2.93 1.83 4.41l1.27-.88c2.91 1.58 5.84 3.32 8.04 5.83.81 1.29 1.55 2.63 2.18 4.02l.12 3.13c-1.39-2.65-2.65-5.53-4.94-7.54-.47-.45-.47-.45 0 0 2.24 5.02 4.21 10.23 7.28 14.83.93 1.45 1.97 2.83 2.76 4.36.34.94.96 1.64 1.86 2.1.89.91 1.55 2 2.24 3.07-11.08-5.58-11.1-20.07-19.58-27.98 3.79 7.86 7.22 15.98 12.11 23.24 2.1 3.02 4.78 6.03 8.56 6.79.36.08 1.07.22 1.42.3 1.92.34 3.83.67 5.74 1.07-2.79.24-5.62.28-8.35-.4-5.47-1.54-8.86-6.75-11.66-11.35-4.12-6.85-6.94-14.4-11.18-21.16 1.4 5.06 4.17 9.57 5.92 14.5-1.55-2.06-3.01-4.19-4.36-6.39z"/>
    <path fill="#200707" opacity=".48" d="M60.68 83.48c.61-.18 1.81-.52 2.42-.69 1.47 3.13 5.03 3.98 8.01 4.99 3.27 1.07 6.72 1.24 10.12 1.48l-.05.15c-.09.25-.28.75-.37 1-7.3.61-14.84-1.79-20.13-6.93z"/>
    <path fill="#be4040" opacity=".87" d="M63.1 82.79c3.46 1.03 6.55 3.08 10.09 3.88 2.87.61 5.76 1.07 8.66 1.49-.17.31-.5.94-.67 1.25l.05-.15c-3.4-.24-6.85-.41-10.12-1.48-2.98-1.01-6.54-1.86-8.01-4.99z"/>
    <path fill="#050101" opacity=".26" d="M94.63 84.5c.41.9.84 1.81 1.26 2.72-2.54-.92-5.24-1.32-7.94-1.08l-.16-1.58c2.28.02 4.56.04 6.84-.06z"/>
    <path fill="#330f10" opacity=".49" d="M34.09 84.7c4.24 6.76 7.06 14.31 11.18 21.16-3.53-2.45-5.71-6.59-9.87-8.14l.02-.24c.11-1.56.23-3.11.23-4.67 1.35 2.2 2.81 4.33 4.36 6.39-1.75-4.93-4.52-9.44-5.92-14.5z"/>
    <path fill="#230a0a" opacity=".46" d="M37.45 86.21c8.48 7.91 8.5 22.4 19.58 27.98.27.51.82 1.54 1.09 2.05-3.78-.76-6.46-3.77-8.56-6.79-4.89-7.26-8.32-15.38-12.11-23.24z"/>
    <path fill="#491619" opacity=".72" d="M42.89 89.83c-.47-.45-.47-.45 0 0z"/>
    <path fill="#331010" opacity=".49" d="M42.89 89.83c2.29 2.01 3.55 4.89 4.94 7.54-.39 3.36 3.19-.04 0 0l-.12-3.13c1.58 1.64 1.92 3.9 2.18 6.06l-.23-.04c.05.07.14.19.19.25 1.39 1.11 1.66 2.87.32 4.15-3.07-4.6-5.04-9.81-7.28-14.83z"/>
    <path fill="#190506" opacity=".5" d="M81.47 90.96c.61-.48 1.27-.89 1.97-1.23 4.44.02 8.83.81 13.23 1.35l.03 1.44c-5.06-.69-10.11-1.58-15.23-1.56z"/>
    <path fill="#bd3e3f" opacity=".85" d="M47.83 97.37c-.39 3.36 3.19-.04 0 0z"/>
    <path fill="#be3b38" opacity=".86" d="M49.66 100.26l.23.04-.04.21c-.05-.06-.14-.18-.19-.25z"/>
    <path fill="#150606" opacity=".33" d="M52.93 109.02c1.79-.35 2.41.35 1.86 2.1-.9-.46-1.52-1.16-1.86-2.1z"/>
    <path fill="#0a0202" opacity=".2" d="M59.54 116.54c2.62-.38 5.52-.73 7.66 1.19-2.81 1.16-5.87 1.02-8.84.95-.35-.37-1.07-1.1-1.43-1.47 2.73.68 5.56.64 8.35.4-1.91-.4-3.82-.73-5.74-1.07z"/>
</svg>
