<svg width="128pt" height="128pt" viewBox="0 0 128 128" xmlns="http://www.w3.org/2000/svg">
    <path fill="#f3f3f3" opacity=".96" d="M59.06 36.74c1.6-1.85 3.16-3.73 4.85-5.49 1.73 1.78 3.39 3.62 4.96 5.53-1.53 2.08-3.18 4.08-4.86 6.04-1.83-1.87-3.55-3.86-4.95-6.08z"/>
    <path d="M26.96 34.54c1.67-.61 3.31-1.31 4.91-2.07-.24 1.63-.46 3.26-.66 4.9-1.68.91-3.39 1.76-5.11 2.58.31-1.8.6-3.61.86-5.41zm68.92-2.12c1.71.75 3.42 1.51 5.13 2.27.23 1.73.47 3.47.72 5.2-1.64-.75-3.26-1.51-4.87-2.29-.32-1.73-.64-3.46-.98-5.18zm-70.8 31.5c2.8 1.28 4.67 3.85 7.15 5.6-1.59-.03-3.17-.07-4.76-.08-1.09-1.7-2.11-3.49-2.39-5.52zm70.55 5.76c2.36-1.99 4.55-4.2 7.13-5.94-.08 2.12-1.2 3.92-2.3 5.65-1.61.05-3.23.16-4.83.29zM47.56 94.2c1.45-.83 2.88-1.69 4.33-2.52 1.39.87 2.78 1.73 4.18 2.58-1.41.86-2.83 1.69-4.24 2.55-1.42-.87-2.84-1.74-4.27-2.61zm24.05-.01c1.45-.74 2.8-1.72 4.39-2.15 1.58.43 2.94 1.41 4.39 2.14-1.45.86-2.89 1.75-4.32 2.64-1.49-.88-2.97-1.76-4.46-2.63z" fill="#fff"/>
</svg>
