<svg width="128pt" height="128pt" viewBox="0 0 128 128" xmlns="http://www.w3.org/2000/svg">
    <path opacity=".95" d="M50.78 25.92c2.61-3.78 6.48-6.96 11.26-7.19 7.14-1.31 16.58 4.17 15.31 12.24.04 10.98.48 21.95.37 32.92-4.5 3.26-9.14 6.33-13.74 9.45-4.72-3.02-9.32-6.24-13.85-9.55.18-12.62.41-25.24.65-37.87m5.2 10.74c2.67 3.17 5.21 6.45 7.98 9.53 2.7-3.1 5.28-6.31 7.95-9.43-2.52-3-5.17-5.89-7.89-8.71-2.85 2.71-5.46 5.65-8.04 8.61m7.76 20.27c.77-1.05 1.54-2.1 2.3-3.16-.67-1.02-1.34-2.03-2.01-3.04-2.33 1.64-1.96 4.21-.29 6.2zm-44.68 8.11c.39-1.27.8-2.55 1.79-3.49 1.65 3 3.04 6.2 5.32 8.8.6.67 1.81 2.01 2.41 2.68-.42 2.82-.97 5.62-1.66 8.4-2.79-.85-5.53-1.83-8.22-2.95-.46 2.11-.89 4.23-1.29 6.35l-1.62-2.67-.49-.8c1.07-5.44.9-11.41 3.76-16.32zm28.49 24.39c2.6-2.48 6.4-1.6 9.44-.56.88 1.76 1.79 3.49 2.65 5.26-3.67.59-4.18-4.93-7.68-4.49-2.61 0-3.8 2.63-5.09 4.44-2.54-1.01-.26-3.43.68-4.65z" fill="#a41f1f"/>
    <path fill="#0e0202" opacity=".25" d="M48.6 27.96c.73-.68 1.46-1.35 2.18-2.04-.24 12.63-.47 25.25-.65 37.87 4.53 3.31 9.13 6.53 13.85 9.55 4.6-3.12 9.24-6.19 13.74-9.45.17-.22.52-.67.69-.9.17-6.65-.17-13.32-.08-19.99.16-4.96-1.66-10.1.26-14.91l1.14-.13c.38.4 1.14 1.22 1.53 1.63l-2.18-.74c.58 12.06 1.14 24.12 1.52 36.19-.99.71-1.98 1.41-2.97 2.12-.22.15-.65.46-.86.61-4.29 3.01-8.53 6.1-12.81 9.13-4.28-3.03-8.56-6.05-12.82-9.11-.65-.46-1.3-.92-1.95-1.39-.35-.29-1.06-.86-1.42-1.14 1.63-5.98-.09-12.18.91-18.22.96-5.73.82-11.56.07-17.3l-.12-1.45-.03-.33z"/>
    <path fill="#ab221f" opacity=".95" d="M46.92 39.2c.39-3.59-2.3-8.79 1.71-10.91l.12 1.45c.05 11.85-1.73 23.7-.98 35.52.36.28 1.07.85 1.42 1.14.17.38.51 1.15.68 1.53-1.28.84-2.6 1.62-3.92 2.4-1.26-3.21-.61-6.66-.32-9.98l-2.07-.05c.18 3.16.33 6.33.45 9.49.78.55 1.56 1.09 2.35 1.64-.17.46-.5 1.4-.67 1.87-1.05-.75-2.06-1.58-3.01-2.45.49-1.81.4-3.69.21-5.53-.2-1.99-.06-3.98.22-5.95.73-5.29.87-10.63.96-15.96 1.5 4.8-.26 10.01 1.55 14.68.52-4.23.38-8.5.76-12.73.37-2.03.76-4.09.54-6.16z"/>
    <path fill="#0f0303" opacity=".29" d="M55.98 36.66c2.58-2.96 5.19-5.9 8.04-8.61 2.72 2.82 5.37 5.71 7.89 8.71-2.67 3.12-5.25 6.33-7.95 9.43-2.77-3.08-5.31-6.36-7.98-9.53m3.13-.04c1.4 2.16 3.01 4.17 4.78 6.03 1.73-1.8 3.33-3.72 4.82-5.72-1.45-1.95-3.02-3.81-4.76-5.49-1.65 1.69-3.25 3.43-4.84 5.18z"/>
    <path opacity=".95" d="M79.08 28.85l2.18.74c0 .45.01 1.35.02 1.8-.1 3.37-.28 6.73-.16 10.1.01 1.6.39 3.15.79 4.68.07 4.51-.06 9.02.25 13.51.17 3.43.57 6.88-.08 10.28-1.48-.94-2.94-1.91-4.45-2.8.99-.71 1.98-1.41 2.97-2.12-.38-12.07-.94-24.13-1.52-36.19zM42.73 76.87c1.33.43 2.69.81 3.96 1.43 4.69 2.28 8.71 5.64 12.77 8.86.5.39 1.51 1.18 2.01 1.58-.56 1.43-1.11 2.86-1.65 4.29-.9-1.4-1.69-2.89-2.71-4.21-3.94-2.77-9.82-1.46-11.99 2.99-1.37-4.86-3.16-9.82-2.39-14.94zm10.54 1.47c.57.54.57.54 0 0z" fill="#a41e1f"/>
    <path fill="#360b0c" opacity=".51" d="M28.08 33.55c1.51-.46 3.99-2.32 4.81.09 2.39-.54 4.73-1.28 7.11-1.81.35 3.47.97 6.99.26 10.45-.25-3.11-.49-6.22-.92-9.32-.81 3.01-1.36 6.13-2.82 8.92.32-3.07.9-6.1 1.38-9.14-4.63.76-6.09 5.57-9.54 8.07-.67-.24-2-.73-2.67-.97.44-2.09-.13-5.44 2.39-6.29m-1.62 5.87c1.41-.58 2.82-1.17 4.23-1.75.49-1.28.63-2.6.43-3.93-3.68-1.14-4.5 3.01-4.66 5.68z"/>
    <path fill="#1a0505" opacity=".34" d="M43.64 38.02c.32-1.99-.75-4.86 1.51-5.98-.12.7-.37 2.1-.49 2.8-.42 2.83-.65 5.7-.59 8.57-.09 5.33-.23 10.67-.96 15.96-.96-7.1.73-14.22.53-21.35z"/>
    <path fill="#84191a" opacity=".87" d="M45.15 32.04l.86-.92c.28 2.7.6 5.39.91 8.08.22 2.07-.17 4.13-.54 6.16-.74-3.48-1.48-6.97-1.72-10.52.12-.7.37-2.1.49-2.8z"/>
    <path fill="#d73236" opacity=".97" d="M59.11 36.62c1.59-1.75 3.19-3.49 4.84-5.18 1.74 1.68 3.31 3.54 4.76 5.49-1.49 2-3.09 3.92-4.82 5.72-1.77-1.86-3.38-3.87-4.78-6.03z"/>
    <path fill="#3f0d0d" opacity=".61" d="M81.28 31.39c4.24 1.19 1.92 6.75 2.33 9.96-.34-3.11-.54-6.25-1.24-9.32-.44 3.15-.84 6.31-1.25 9.46-.12-3.37.06-6.73.16-10.1z"/>
    <path fill="#260808" opacity=".4" d="M92.02 33.36c1.44.03 2.76-.46 4.1-.91 1.94-.19 3.78.87 5.13 2.2-1.42-.44-2.85-1.46-4.37-.79-.43 1.27-.36 2.54.19 3.8 1.5.62 2.97 1.27 4.46 1.93-.05-.73-.13-2.17-.17-2.9 1.34 1.6.06 3.55-.07 5.34.32 1.5.7 2.98 1.15 4.46-2.01 1.23-4.27 1.6-6.45.56-2.24-1.55-4.97-2-7.49-2.87l-.26-1.74c1.18.2 2.37.4 3.55.61 2.8.8 5.45 2.03 8.19 3.02.17-.16.51-.48.68-.65-.27-.25-.82-.75-1.09-1 1.33-1.66.17-3.58-1.2-4.74-2.25-1.99-3.45-5.13-6.35-6.32z"/>
    <path fill="#8e1a1c" opacity=".85" d="M82.37 32.03c.7 3.07.9 6.21 1.24 9.32.71 6.64 1.05 13.34 1.16 20.02-.11 4.31-1.67 8.26-3.16 12.21-.03.85-.4 1.15-1.1.91-1.17-.22-2.33-.49-3.49-.76-.11-1.98-.22-3.97-.25-5.96.21-.15.64-.46.86-.61 1.51.89 2.97 1.86 4.45 2.8.65-3.4.25-6.85.08-10.28.94-4.43 1.59-9.2-.25-13.51-.4-1.53-.78-3.08-.79-4.68.41-3.15.81-6.31 1.25-9.46z"/>
    <path opacity=".95" d="M87.92 32.14c2.56 1.92 1.63 6.02 2.87 8.83 1.06.29 2.12.63 3.16 1l.54 1.48-2.7-.4c-1.18-.21-2.37-.41-3.55-.61l-.53-.08c.19-2.93.22-5.86.2-8.78l.01-1.44zM25.53 51.68c4.04-2.57 8.54-4.51 13.38-4.8-1.1 6.13-2.62 12.2-3.03 18.44-.23 1.94-.64 3.84-1.05 5.75-.83-.7-1.66-1.38-2.43-2.14-1.92-2.11-3.99-4.12-6.45-5.6-.53-.32-1.59-.97-2.12-1.3l.34-1.11c.56-1.9.96-3.84 1.42-5.76 1.57 1.8 1.93 4.17 2.42 6.42-.62-.02-1.85-.05-2.46-.07 1.88 1.25 3.84 2.39 5.83 3.45.29-1.38.58-2.77.87-4.16-.91-1-1.83-2.01-2.75-3.01.15-.91.29-1.83.44-2.74-1.47-1.12-2.94-2.24-4.41-3.37z" fill="#a71f1f"/>
    <path fill="#a92122" opacity=".95" d="M89.59 32.25c.61.28 1.82.83 2.43 1.11 2.9 1.19 4.1 4.33 6.35 6.32 1.37 1.16 2.53 3.08 1.2 4.74-1.49-1.76-3.64-2.59-5.83-3.04-.66-.16-1.98-.47-2.64-.62-.63-2.82-1.13-5.65-1.51-8.51z"/>
    <path fill="#ca2d2f" d="M26.46 39.42c.16-2.67.98-6.82 4.66-5.68.2 1.33.06 2.65-.43 3.93-1.41.58-2.82 1.17-4.23 1.75z"/>
    <path fill="#9e1f22" opacity=".95" d="M28.36 40.81c3.45-2.5 4.91-7.31 9.54-8.07-.48 3.04-1.06 6.07-1.38 9.14 1.46-2.79 2.01-5.91 2.82-8.92.43 3.1.67 6.21.92 9.32-.28.06-.83.17-1.1.23-.76.15-2.28.47-3.05.62-.62.1-1.86.3-2.49.4.52-.72 1.55-2.17 2.07-2.89-2.62.83-5.17 1.85-7.66 3.01-.13-.48-.4-1.45-.54-1.94l.87-.9z"/>
    <path fill="#120304" opacity=".36" d="M87.71 42.36c-1.08-2.86-.73-5.94.2-8.78.02 2.92-.01 5.85-.2 8.78z"/>
    <path d="M96.88 33.86c1.52-.67 2.95.35 4.37.79.03.51.08 1.53.11 2.04.04.73.12 2.17.17 2.9-1.49-.66-2.96-1.31-4.46-1.93-.55-1.26-.62-2.53-.19-3.8zM72.15 94.63c1.09-3.11 6.63-3.23 7.58-.05-1.06.79-2.18 1.49-3.28 2.22l-.78-.31c-1.24-.48-2.44-1.08-3.52-1.86z" fill="#ef3c39"/>
    <path fill="#521111" opacity=".71" d="M44.07 43.41c-.06-2.87.17-5.74.59-8.57.24 3.55.98 7.04 1.72 10.52-.38 4.23-.24 8.5-.76 12.73-1.81-4.67-.05-9.88-1.55-14.68z"/>
    <path fill="#5d1213" opacity=".75" d="M28.03 43.65c2.49-1.16 5.04-2.18 7.66-3.01-.52.72-1.55 2.17-2.07 2.89.63-.1 1.87-.3 2.49-.4-3.07.96-6.05 2.19-9.1 3.19l-.2-1.22c.17-1.14.4-2.27.68-3.39.14.49.41 1.46.54 1.94z"/>
    <path fill="#751717" opacity=".77" d="M93.74 41.38c2.19.45 4.34 1.28 5.83 3.04.27.25.82.75 1.09 1-.17.17-.51.49-.68.65-2.74-.99-5.39-2.22-8.19-3.02l2.7.4-.54-1.48-.21-.59z"/>
    <path fill="#0c0202" opacity=".3" d="M36.11 43.13c.77-.15 2.29-.47 3.05-.62l.15 1.74c-1.28.13-2.53.42-3.75.85-2.41.77-4.78 1.65-7.06 2.75-.59-.29-1.79-.89-2.39-1.19.18-.39.52-1.17.7-1.56l.2 1.22c3.05-1 6.03-2.23 9.1-3.19z"/>
    <g fill="#9c1e1f">
        <path opacity=".95" d="M35.56 45.1c1.22-.43 2.47-.72 3.75-.85l.51.38c-.09.32-.26.96-.35 1.29-1.29.6-3.09.5-3.91-.82zM18.7 78.48c2.69 1.12 5.43 2.1 8.22 2.95-.19 1.24-.36 2.49-.56 3.73-.73.2-2.21.59-2.95.79-1.51 1.03-2.9 2.22-4.33 3.36l.8.51c2.71 2.64.83 6.61.74 9.85-.52-1.27-1.05-2.55-1.52-3.84l-.08-.42c-.01-1.79.04-3.59.08-5.38-1.43-.23-2.86-.45-4.29-.65.36-2.4.68-4.81.98-7.22l1.62 2.67c.4-2.12.83-4.24 1.29-6.35z"/>
        <path opacity=".95" d="M23.75 88.94c1.44-.48 2.88-.95 4.32-1.42.75 3.2 1.11 6.48 1.08 9.77-.71.11-2.15.33-2.86.43-.23-.73-.7-2.21-.93-2.95-.58-1.93-1.1-3.88-1.61-5.83zm76.11-1.35c1.39.46 2.79.92 4.18 1.39-.47 1.96-.92 3.93-1.47 5.88-.1.23-.29.7-.39.94-.58.6-1.75 1.8-2.34 2.4-1.99-3.32-.57-7.13.02-10.61zm-54.42 8.37c1.26-1.73 2.64.65 3.89 1.19-.01.63-.01 1.9-.02 2.54.68-.02 2.05-.05 2.73-.07l.4 1.32c1.76-2.08 6.21-1.43 5.33-5.35.38 1.1 1.16 3.3 1.54 4.4.66 3.46 1 6.97 1.43 10.46-2.52-2.18-5-5.17-8.66-5.11-4.1-.86-6.84 2.72-9.25 5.36.26-3.39.6-6.77 1.28-10.1.26-1.11.53-2.21.83-3.31l2.25.32c-.44-.41-1.31-1.23-1.75-1.65z"/>
        <path opacity=".95" d="M43.98 110.96c1.81-2.55 4.36-5.49 7.87-4.82 3.32 0 5.99 2.24 7.75 4.86-5.21 0-10.42.02-15.62-.04zm24.39.05c1.78-2.63 4.35-4.98 7.73-4.9 3.52-.72 6.11 2.43 7.83 5.03-5.18-.18-10.37-.15-15.56-.13z"/>
    </g>
    <path fill="#a82121" opacity=".95" d="M88.5 44.18c2.52.87 5.25 1.32 7.49 2.87.59 2.54 3.81 3.61 6.17 3.48l-.1 1.19c-1.3 1.18-2.68 2.27-4.05 3.36-.14 1.5-.27 3-.4 4.5.61-.32 1.84-.95 2.45-1.27-1.21 1.7-2.16 3.57-2.82 5.55.57.08 1.72.23 2.3.31-.06.42-.19 1.27-.25 1.7-2.18 1.12-3.72 3.36-6.05 4.12-.28-2.58 2.88-3.8 3.35-6.15.21-1.5.33-3.01.37-4.52-.48 3.34-1.45 6.6-4.24 8.75-1.22-7.05-2.68-14.06-3.79-21.13 1.52-.19 3.04-.38 4.56-.58-1.79-.12-3.57-.21-5.35-.31l.36-1.87z"/>
    <path fill="#4b0e0f" opacity=".63" d="M28.5 47.85c2.28-1.1 4.65-1.98 7.06-2.75.82 1.32 2.62 1.42 3.91.82-.63 6.54-1.93 13.06-3.59 19.4.41-6.24 1.93-12.31 3.03-18.44-4.84.29-9.34 2.23-13.38 4.8 1.47 1.13 2.94 2.25 4.41 3.37-.15.91-.29 1.83-.44 2.74.92 1 1.84 2.01 2.75 3.01-.29 1.39-.58 2.78-.87 4.16-1.99-1.06-3.95-2.2-5.83-3.45.61.02 1.84.05 2.46.07-.49-2.25-.85-4.62-2.42-6.42-.46 1.92-.86 3.86-1.42 5.76.36-3.9.74-7.86 2.02-11.58.58-.37 1.73-1.12 2.31-1.49m-2.21 6.38c-.38 1.19 1.45 2.63 2.49 1.88.36-1.21-1.43-2.57-2.49-1.88m2.5 5c-.33 1.21.83 3.27 2.11 3.38.79-1.33-.55-3.57-2.11-3.38z"/>
    <path fill="#290809" opacity=".45" d="M88.14 46.05c1.78.1 3.56.19 5.35.31-1.52.2-3.04.39-4.56.58 1.11 7.07 2.57 14.08 3.79 21.13 2.79-2.15 3.76-5.41 4.24-8.75-.04 1.51-.16 3.02-.37 4.52-.47 2.35-3.63 3.57-3.35 6.15 2.33-.76 3.87-3 6.05-4.12-.87 1.22-1.75 2.45-2.64 3.67 3 .19 5.07-1.37 5.91-4.17-.12-.72-.25-1.45-.45-2.15.49-.39 1.46-1.15 1.95-1.54-.32-.26-.95-.78-1.26-1.05.07-1.78.13-3.58.17-5.36-.33.2-.98.62-1.31.83.2-1.45.29-2.92.4-4.38l.1-1.19.04-.61c.86 4.35 1.89 8.68 2.28 13.11.58-.25 1.74-.75 2.32-1.01-2.27 3.84-4.19 7.92-7.19 11.27.39 2.61.85 5.2 1.36 7.78 1.6.02 3.21.05 4.82 0 .37-.32 1.12-.96 1.5-1.28-.26.45-.77 1.36-1.03 1.81-1.77.11-3.55.11-5.32.13.04.58.13 1.76.18 2.35-1.47-4.46-2.59-9.31-1.27-13.95-2.29.07-4.54.41-6.8.79-1.15-.7-.87-2.35-1.29-3.47-1.26-7.13-2.6-14.24-3.62-21.4z"/>
    <path fill="#4d0f10" opacity=".72" d="M81.91 46.17c1.84 4.31 1.19 9.08.25 13.51-.31-4.49-.18-9-.25-13.51z"/>
    <path fill="#631415" opacity=".75" d="M98.01 55.08c1.37-1.09 2.75-2.18 4.05-3.36-.11 1.46-.2 2.93-.4 4.38l-.96 3.7-1.7 1.88c1.04.51 2.08 1.02 3.11 1.54.2.7.33 1.43.45 2.15-1.09.16-2.18.33-3.27.5.06-.43.19-1.28.25-1.7-.58-.08-1.73-.23-2.3-.31.66-1.98 1.61-3.85 2.82-5.55-.61.32-1.84.95-2.45 1.27.13-1.5.26-3 .4-4.5z"/>
    <path d="M26.29 54.23c1.06-.69 2.85.67 2.49 1.88-1.04.75-2.87-.69-2.49-1.88zm21.2 40.02c1.44-.89 2.89-1.78 4.35-2.65 1.44.86 2.89 1.71 4.33 2.58-1.37.97-2.66 2.14-4.32 2.59-1.58-.6-2.94-1.63-4.36-2.52z" fill="#d63031"/>
    <path fill="#941d1d" opacity=".91" d="M101.66 56.1c.33-.21.98-.63 1.31-.83-.04 1.78-.1 3.58-.17 5.36.31.27.94.79 1.26 1.05-.49.39-1.46 1.15-1.95 1.54-1.03-.52-2.07-1.03-3.11-1.54l1.7-1.88.96-3.7z"/>
    <path opacity=".95" d="M28.79 59.23c1.56-.19 2.9 2.05 2.11 3.38-1.28-.11-2.44-2.17-2.11-3.38zM75.1 98.18c2.58-.52 4.83-1.89 7.1-3.15-.08.21-.22.63-.3.83-.12.34-.35 1.01-.47 1.34 3.59 3.63 2.94 9.18 3.67 13.85-2.36-2.7-4.92-6.54-9.09-5.7-4.08-.16-6.77 3.11-9.09 5.96.61-4.5 1.18-9.02 2.43-13.4.43-.89.9-1.75 1.4-2.6 1.59.41 3.3 2.92 4.92 1.18l-.57 1.69m-3.86-.1c-.14 1.49 2.3 2.39 3.51 1.83.05-1.43-2.31-2.35-3.51-1.83m7.95.15c.5.54.5.54 0 0z" fill="#ab2124"/>
    <path fill="#6c1416" opacity=".77" d="M43.56 60.3l2.07.05c-.29 3.32-.94 6.77.32 9.98 1.32-.78 2.64-1.56 3.92-2.4-.17-.38-.51-1.15-.68-1.53.65.47 1.3.93 1.95 1.39l-.66 4.91c.58.68 1.16 1.37 1.74 2.05 1.29-.66 2.58-1.32 3.86-1.98.46 2 .9 3.99 1.35 5.99l3.36 2.43c1.19-1.07 1.8-3.71 3.79-3.1.9.92 1.69 1.95 2.51 2.95.69-.48 1.39-.96 2.1-1.42.36-.25 1.09-.74 1.46-.99l.24-1.65c.24-1.47.53-2.92.83-4.37.75.51 1.51 1.03 2.26 1.55-1.11 1.83-1.92 3.84-3.15 5.6-2.13 1.99-4.6 3.58-6.83 5.46-3.45-2.85-8.33-4.97-9.03-9.93l-2.68.69c-.98-.62-1.96-1.24-2.97-1.8l-2 .2-1.97-.08.34-1c.17-.47.5-1.41.67-1.87-.79-.55-1.57-1.09-2.35-1.64-.12-3.16-.27-6.33-.45-9.49m19.66 19.79c.26 3.28 2.98-1.59 0 0z"/>
    <path fill="#340b0c" opacity=".49" d="M20.85 61.55c1.46 1.23 3.03 3.07 5.1 1.78 2.46 1.48 4.53 3.49 6.45 5.6l.21 1.41c-2.14-.16-4.31-.44-6.44.01-2.28-2.6-3.67-5.8-5.32-8.8m4.22 2.69c.69 1.57 1.42 3.14 2.16 4.69 1.01.11 3.02.32 4.03.43-1.72-2.08-3.68-4-6.19-5.12z"/>
    <path fill="#8e1b1c" opacity=".9" d="M81.61 73.58c1.49-3.95 3.05-7.9 3.16-12.21.49 3.01.61 6.06.75 9.11-1.1 1.27-2.28 2.52-3.91 3.1z"/>
    <path fill="#a42121" opacity=".95" d="M106.8 62.02c2.03-.44 1.33 2.13 1.93 3.18 2.37 3.07 2.27 7.13 3.11 10.75.18 2.01 1.09 4.2.31 6.16-.49.91-1.01 1.8-1.52 2.7-.45-2.35-1.17-4.65-2.3-6.77-.26.44-.78 1.32-1.04 1.75-.38.32-1.13.96-1.5 1.28-1.61.05-3.22.02-4.82 0-.51-2.58-.97-5.17-1.36-7.78 3-3.35 4.92-7.43 7.19-11.27z"/>
    <path fill="#dc3131" opacity=".97" d="M25.07 64.24c2.51 1.12 4.47 3.04 6.19 5.12-1.01-.11-3.02-.32-4.03-.43-.74-1.55-1.47-3.12-2.16-4.69z"/>
    <path fill="#220606" opacity=".48" d="M42.68 70.85c-1.51-.86-1.59-4.98.21-5.53.19 1.84.28 3.72-.21 5.53z"/>
    <path fill="#bf2b2d" opacity=".98" d="M99.29 65.87c1.09-.17 2.18-.34 3.27-.5-.84 2.8-2.91 4.36-5.91 4.17.89-1.22 1.77-2.45 2.64-3.67z"/>
    <path fill="#ab211f" opacity=".95" d="M51.14 67.79c4.26 3.06 8.54 6.08 12.82 9.11 4.28-3.03 8.52-6.12 12.81-9.13.03 1.99.14 3.98.25 5.96 1.16.27 2.32.54 3.49.76-1.92 2.14-4.38 3.65-6.74 5.24-2.97 3.04-6.63 5.22-9.89 7.9-.99-.81-1.98-1.62-2.97-2.42-2.16-1.73-4.32-3.46-6.44-5.24.01-.73.04-2.2.05-2.94-1 .36-2.01.72-3 1.1-1.46-1.17-2.9-2.39-4.2-3.75l2-.2c1.01.56 1.99 1.18 2.97 1.8l2.68-.69c.7 4.96 5.58 7.08 9.03 9.93 2.23-1.88 4.7-3.47 6.83-5.46 1.23-1.76 2.04-3.77 3.15-5.6-.75-.52-1.51-1.04-2.26-1.55-.3 1.45-.59 2.9-.83 4.37-1.98-1.51-4.15 1.58-1.7 2.64-.71.46-1.41.94-2.1 1.42-.82-1-1.61-2.03-2.51-2.95-1.99-.61-2.6 2.03-3.79 3.1l-3.36-2.43c-.45-2-.89-3.99-1.35-5.99-1.28.66-2.57 1.32-3.86 1.98-.58-.68-1.16-1.37-1.74-2.05l.66-4.91M75.3 75.2c.5.54.5.54 0 0z"/>
    <path fill="#531010" opacity=".68" d="M75.3 75.2c.5.54.5.54 0 0z"/>
    <path fill="#180404" opacity=".34" d="M51.52 78.13c.99-.38 2-.74 3-1.1-.01.74-.04 2.21-.05 2.94 2.12 1.78 4.28 3.51 6.44 5.24-.36.49-1.08 1.46-1.45 1.95-4.06-3.22-8.08-6.58-12.77-8.86 1.09.15 2.19.3 3.28.44.39-.15 1.16-.45 1.55-.61m1.75.21c.57.54.57.54 0 0z"/>
    <path fill="#da2526" opacity=".94" d="M69.19 79.62c-2.45-1.06-.28-4.15 1.7-2.64l-.24 1.65c-.37.25-1.1.74-1.46.99z"/>
    <path fill="#a11e1f" opacity=".95" d="M66.41 88.78c5.55-4.94 11.43-10.18 18.86-11.94.34 5.97-1.09 12.03-3.99 17.25-1.73-1.91-3.33-4.89-6.36-4.55-2.24 1.26-3.62 3.66-5.79 5.08-.92-1.94-1.85-3.88-2.72-5.84m4.28-.39c-1.09.71-1.59 1.67-1.5 2.9 1.35.3 2.13-1.63 3.13-2.31 1.29-1.18-1.12-1.31-1.63-.59z"/>
    <path fill="#941e1f" opacity=".95" d="M107.29 79.79c.26-.43.78-1.31 1.04-1.75 1.13 2.12 1.85 4.42 2.3 6.77.51-.9 1.03-1.79 1.52-2.7.38 2.44.61 4.9.79 7.37-1.26.32-2.52.64-3.78.97-.01 3.56-.51 7.11-1.08 10.62-1.84-3-2.05-6.66-1.75-10.08.66-.34 1.99-1.01 2.65-1.34-2.01-1.92-4.11-3.88-6.86-4.65l-.96-.36-.04-.56c-.05-.59-.14-1.77-.18-2.35 1.77-.02 3.55-.02 5.32-.13.26-.45.77-1.36 1.03-1.81z"/>
    <path fill="#c32426" opacity=".95" d="M63.22 80.09c2.98-1.59.26 3.28 0 0z"/>
    <path fill="#190505" opacity=".33" d="M102.12 85c2.75.77 4.85 2.73 6.86 4.65-.66.33-1.99 1-2.65 1.34l-.7.35c-.02 1.89-.03 3.78-.07 5.68-.17-1.54-.33-3.07-.48-4.61-.84.82-1.67 1.64-2.51 2.45.55-1.95 1-3.92 1.47-5.88-1.39-.47-2.79-.93-4.18-1.39-.59 3.48-2.01 7.29-.02 10.61.59-.6 1.76-1.8 2.34-2.4.89 3.43-4.37 3.19-4.35.16.04-2.92.39-5.96 1.53-8.67 1.35-.05 2.7-.05 4.06-.01-.33-.57-.98-1.71-1.3-2.28z"/>
    <path fill="#100303" opacity=".27" d="M19.08 89.31c1.43-1.14 2.82-2.33 4.33-3.36 1.8.65 3.64 1.17 5.51 1.59.77 3.27 1.56 6.75.62 10.07-.61 1.47-2.27.47-3.25.11.71-.1 2.15-.32 2.86-.43.03-3.29-.33-6.57-1.08-9.77-1.44.47-2.88.94-4.32 1.42.51 1.95 1.03 3.9 1.61 5.83-.78-.63-1.56-1.25-2.34-1.88-.41 1.14-.83 2.27-1.25 3.4.12-1.74.19-3.48.24-5.22-.53-.32-1.6-.94-2.13-1.25l-.8-.51z"/>
    <path fill="#641414" opacity=".74" d="M70.69 88.39c.51-.72 2.92-.59 1.63.59-1 .68-1.78 2.61-3.13 2.31-.09-1.23.41-2.19 1.5-2.9z"/>
    <path fill="#140404" opacity=".39" d="M14.81 89.38c1.43.2 2.86.42 4.29.65-.04 1.79-.09 3.59-.08 5.38-.4-1.3-.75-2.61-1.1-3.92-1.04-.69-2.08-1.39-3.11-2.11z"/>
    <path fill="#320a0a" opacity=".52" d="M19.88 89.82c.53.31 1.6.93 2.13 1.25-.05 1.74-.12 3.48-.24 5.22-.12 1.33-.35 2.64-.56 3.95-.53.18-1.58.54-2.11.73-.18-1.71-.24-3.44 0-5.14.47 1.29 1 2.57 1.52 3.84.09-3.24 1.97-7.21-.74-9.85z"/>
    <path fill="#350b0b" opacity=".52" d="M81.43 97.2c.12-.33.35-1 .47-1.34 3.73 4.38 3.41 10.48 3.91 15.85-6.38.11-12.78.19-19.16-.04-.09-4.69.01-9.7 2.7-13.76-1.25 4.38-1.82 8.9-2.43 13.4 2.32-2.85 5.01-6.12 9.09-5.96 4.17-.84 6.73 3 9.09 5.7-.73-4.67-.08-10.22-3.67-13.85m-13.06 13.81c5.19-.02 10.38-.05 15.56.13-1.72-2.6-4.31-5.75-7.83-5.03-3.38-.08-5.95 2.27-7.73 4.9z"/>
    <path fill="#601213" opacity=".73" d="M71.24 98.08c1.2-.52 3.56.4 3.51 1.83-1.21.56-3.65-.34-3.51-1.83z"/>
    <path fill="#4c0f0e" opacity=".66" d="M79.19 98.23c.5.54.5.54 0 0z"/>
    <path fill="#3b0c0d" opacity=".56" d="M59.31 99.99c2.24 3.37 1.75 7.78 1.98 11.65-6.4.1-12.8.26-19.2 0 .49-3.67-.1-7.8 2.02-11.04-.68 3.33-1.02 6.71-1.28 10.1 2.41-2.64 5.15-6.22 9.25-5.36 3.66-.06 6.14 2.93 8.66 5.11-.43-3.49-.77-7-1.43-10.46m-15.33 10.97c5.2.06 10.41.04 15.62.04-1.76-2.62-4.43-4.86-7.75-4.86-3.51-.67-6.06 2.27-7.87 4.82z"/>
</svg>
