<svg width="128pt" height="128pt" viewBox="0 0 128 128" xmlns="http://www.w3.org/2000/svg">
    <path fill="#841c1e" d="M81.2 27.43c10.21-3.29 21.71 2.24 26.99 11.25 3.89 5.93 4.15 13.51 2.81 20.27-3.47 11.36-13.66 18.53-22.74 25.29-8.49 5.87-16.51 12.39-24.93 18.35-9.69-7.31-19.44-14.54-29.28-21.66-6.08-4.8-12.58-9.78-15.89-17.01-3.92-8.06-2.95-18.16 2.19-25.46 5.37-8.01 15.62-12.42 25.12-10.72 6.93 1.55 12.85 5.93 17.83 10.82 5.27-4.68 10.94-9.32 17.9-11.13m-46.35 5.42c.48-.06 1.45-.18 1.94-.25 1.94 1.1 3.87 2.23 5.88 3.21 3.76 1.07 7.72-.02 11.56.49-1.95-1.09-3.92-2.15-6-2.97-1.28-.69-2.64-1.25-4.04-1.66-3.18-1.1-6.48-.47-9.34 1.18m36.93 3.97c3.84-.87 7.81-1.26 11.7-.51 3.08-1.44 6.11-2.97 9.15-4.5-2.89-.4-5.85-1.47-8.75-.54-4.41.9-8.15 3.54-12.1 5.55m-43.31-.54c-2.58 1.61-3.83 4.53-5.35 7.03 2.91.53 5.81 1.09 8.72 1.58 1.86-2.25 3.96-4.29 6.26-6.08-3.16-.97-6.28-2.45-9.63-2.53m61.41 2.46c2.29 1.82 4.41 3.84 6.27 6.1 2.82-.39 5.63-.89 8.43-1.4-1.36-2.49-2.8-4.94-4.35-7.32-3.53.55-6.97 1.5-10.35 2.62M63.71 49c-3.73-2.96-7.66-6.51-12.7-6.62-7.21-.71-14.39 5.26-14.75 12.53-.21 4.29-.58 9.12 2.35 12.66 3.85 4.83 9.24 8.02 14.1 11.7 3.55 2.48 6.78 5.42 10.47 7.69 2.83-.72 4.88-3.04 7.23-4.65 6.34-5.17 14-9 18.91-15.74 4.94-7.99 2.27-21.61-7.81-24.03-6.74-2.04-13.17 1.88-17.8 6.46m-42.07-.39c-.15 2.62-.21 5.24-.27 7.87 2.35-.05 4.69-.09 7.04-.1.3-2.45.75-4.88 1.29-7.28-2.67-.36-5.37-.51-8.06-.49m76.51.35c.56 2.5 1.05 5.02 1.53 7.55 2.16.02 4.32.06 6.48.1.08-2.74.09-5.48.04-8.22-2.69.13-5.37.34-8.05.57m.56 12.26c-.43 1.92-.98 3.8-1.56 5.67.96.41 1.93.82 2.89 1.24 2.95-1.31 3.81-4.66 5.17-7.3-2.11.02-5.04-1.78-6.5.39m-76.62.11c.76 1.47 1.42 3.01 2.37 4.38.43 1.02.85 2.04 1.27 3.07 2.1-.61 4.2-1.21 6.3-1.82-.73-1.1-1.47-2.2-2.21-3.29-.38-1.19-.77-2.37-1.16-3.55-2.2.35-4.39.75-6.57 1.21m7.2 10.28c2.1 1.72 4.21 3.43 6.38 5.07.91-.37 2.72-1.11 3.63-1.49-1.86-1.7-3.72-3.41-5.58-5.11-1.49.48-2.96 1.02-4.43 1.53m65.12-1.52c-1.93 1.73-3.9 3.43-5.73 5.27.84.16 2.52.49 3.37.65 2.03-1.62 4.06-3.24 6.04-4.93-1.23-.32-2.45-.66-3.68-.99m-55.25 8.74c1.15 1.88 3.25 2.93 5.11 3.98.96-.37 1.88-.84 2.79-1.32-1.81-1.46-3.65-2.88-5.5-4.29-.81.53-1.61 1.07-2.4 1.63m41.11 2.32l2.39 1.71c1.93-1.35 3.86-2.69 5.8-4.03-.88-.57-1.74-1.15-2.6-1.74-1.85 1.37-3.71 2.72-5.59 4.06m-33.08 4.02c1.98 1.38 3.96 2.76 6.02 4.02.16-.76.49-2.28.66-3.04-1.58-1.05-3.17-2.1-4.75-3.13-.65.71-1.29 1.43-1.93 2.15m26.19 3.78c2.48-.7 4.41-2.5 6.49-3.94l-1.73-2.21c-1.97 1.71-5.87 2.84-4.76 6.15m-16.92.19c-.92 4.05 4.07 5.88 6.78 7.74 2.74-.95 4.79-3.23 7.16-4.82-.07-.79-.22-2.36-.3-3.14-2.18 1.52-4.33 3.08-6.48 4.65-2.35-1.49-4.32-3.9-7.16-4.43z"/>
    <path fill="#240709" opacity=".51" d="M34.85 32.85c2.86-1.65 6.16-2.28 9.34-1.18-2.48.2-4.94.58-7.4.93-.49.07-1.46.19-1.94.25z"/>
    <path fill="#200707" opacity=".45" d="M48.23 33.33c2.08.82 4.05 1.88 6 2.97-3.84-.51-7.8.58-11.56-.49 2.57-.07 5.12-.31 7.68-.51-.53-.49-1.59-1.48-2.12-1.97z"/>
    <path fill="#a22424" d="M51.78 49.16c4.52-1.6 8.29 1.77 12.01 3.69 3.61-2.27 7.54-5.36 12.1-3.99 8.54 1.94 10.19 14.61 3.74 19.76-5.02 4.47-10.69 8.13-16 12.24-4.93-3.98-10.26-7.42-15.15-11.45-6.83-4.97-5.48-18.21 3.3-20.25z"/>
    <path fill="#120404" opacity=".31" d="M98.15 48.96c2.68-.23 5.36-.44 8.05-.57.05 2.74.04 5.48-.04 8.22-2.16-.04-4.32-.08-6.48-.1-.48-2.53-.97-5.05-1.53-7.55m1.12.43c.4 2.16.82 4.32 1.23 6.48 1.67-.15 3.33-.29 5-.44.01-1.98.01-3.96.02-5.94-2.09-.04-4.17-.07-6.25-.1z"/>
    <path fill="#130404" opacity=".34" d="M98.71 61.22c1.46-2.17 4.39-.37 6.5-.39-1.36 2.64-2.22 5.99-5.17 7.3 1.29-2.24 2.76-4.38 4.2-6.53-1.85-.11-3.69-.23-5.53-.38z"/>
    <path fill="#2f0a0a" opacity=".56" d="M29.82 63.67c.74 1.09 1.48 2.19 2.21 3.29-2.1.61-4.2 1.21-6.3 1.82-.42-1.03-.84-2.05-1.27-3.07.71.75 1.43 1.48 2.17 2.21 1.37-.46 2.73-.92 4.1-1.38-.23-.72-.69-2.15-.91-2.87z"/>
    <path opacity=".06" d="M94.41 70.09c1.23.33 2.45.67 3.68.99-1.98 1.69-4.01 3.31-6.04 4.93-.85-.16-2.53-.49-3.37-.65 1.83-1.84 3.8-3.54 5.73-5.27zm-55.25 8.74c.79-.56 1.59-1.1 2.4-1.63 1.85 1.41 3.69 2.83 5.5 4.29-.91.48-1.83.95-2.79 1.32-1.86-1.05-3.96-2.1-5.11-3.98zm41.11 2.32c1.88-1.34 3.74-2.69 5.59-4.06.86.59 1.72 1.17 2.6 1.74-1.94 1.34-3.87 2.68-5.8 4.03l-2.39-1.71zm-6.89 7.8c-1.11-3.31 2.79-4.44 4.76-6.15l1.73 2.21c-2.08 1.44-4.01 3.24-6.49 3.94zm-16.92.19c2.84.53 4.81 2.94 7.16 4.43 2.15-1.57 4.3-3.13 6.48-4.65.08.78.23 2.35.3 3.14-2.37 1.59-4.42 3.87-7.16 4.82-2.71-1.86-7.7-3.69-6.78-7.74z"/>
    <path opacity=".04" d="M47.19 85.17c.64-.72 1.28-1.44 1.93-2.15 1.58 1.03 3.17 2.08 4.75 3.13-.17.76-.5 2.28-.66 3.04-2.06-1.26-4.04-2.64-6.02-4.02z"/>
</svg>
