<svg width="128pt" height="128pt" viewBox="0 0 128 128" xmlns="http://www.w3.org/2000/svg">
    <path d="M57.32 24.06c-.12-3.06-.84-6.86 1.71-9.19 1.4-.19 2.8-.32 4.21-.4 2.08 2.38 2.68 5.54 2.53 8.62-.21 8.29.08 16.6-.61 24.87-1.86 1.14-5.15 1.42-5.6-1.38-.72-7.5-1.5-15.01-2.24-22.52zm22.52 2.75c1.89-2.76 5.84-2.16 7.69.33.02 5.32-2.17 10.23-4.63 14.82-1.88 3.5-2.75 7.79-6.02 10.35-1.77.52-2.96-1.24-3.8-2.48-.83-3 1.01-5.84 1.97-8.57 2.16-4.63 2.6-9.85 4.79-14.45zm-43.98 5.34c-1.71-2.69.85-6.67 4.01-6.31 3.07 1.02 4.05 4.43 5.05 7.15 1.68 5.58 5.08 10.44 6.91 15.96.48 1.93-1.59 2.87-2.83 3.79-1.4-1.12-2.85-2.25-3.81-3.8-3.5-5.37-6.26-11.17-9.33-16.79zm60.49 10.2c2.65-1.95 6.55.84 6.17 3.9-.96 2.98-4.08 4.22-6.51 5.76-3.13 1.78-5.63 4.62-9.11 5.77-1.42.89-3.59.19-3.3-1.76-.62-3.26 2.64-5.01 4.74-6.76 2.97-1.97 4.93-5.11 8.01-6.91zM18.2 66.22c1.45-2.79 5.16-1.78 7.53-.96 5.22 2 11 2.38 15.92 5.15.13 1.67.64 4-1.31 4.86-1.64 1.25-3.74.18-5.56.01-5.06-1.2-10.55-1.24-15.2-3.76-2.26-.8-1.67-3.48-1.38-5.3z" fill="#fff"/>
</svg>
