<svg width="128pt" height="128pt" viewBox="0 0 128 128" xmlns="http://www.w3.org/2000/svg">
    <path d="M82.27 42.28c4.43-4.99 9.35-9.52 13.99-14.31 1.68 1.2 3.09 2.7 4.4 4.29-.46.46-1.36 1.37-1.82 1.82 3.45 3.67 6.89 10.26 12.93 8.04 1.05.95 2.09 1.9 3.15 2.85-1.77 2.14-3.72 4.12-5.87 5.89-.76-.92-1.53-1.84-2.31-2.75-1.99 1.28-3.64 2.97-5.02 4.88.88.84 1.75 1.68 2.62 2.52-1.68 2.12-3.6 4.02-5.57 5.87-1.1-1.1-2.18-2.22-3.23-3.36 2.25-5.88-4.09-9.19-7.64-12.51-2.49 1.72-3.9-1.98-5.63-3.23m10.81 1.53c1.59 1.74 3.21 3.46 5.06 4.94 1.4-1.29 2.76-2.63 4.05-4.02-1.66-1.73-3.36-3.43-5.13-5.06-1.36 1.35-2.7 2.72-3.98 4.14zm-17.19 4.77c2.83-.18 4.5-2.75 6.92-3.85l.92 1.43c-1.73 2.7-4.31 5.39-3.63 8.9-.02 1.95 1.68 3.13 2.81 4.48-1.16.62-2.86 2.24-3.91.57-1.47-2.26-2.28-4.96-4.25-6.88-1.79-2.13-4.99-2.15-6.8-4.21-.47-1.35.61-2.42 1.27-3.44 1.48 2.18 4.01 3.54 6.67 3zm-4.64 5.38c1.21 1.05 2.34 2.19 3.4 3.41-2.32 1.15-4.34 4.14-7.21 2.74 1.19-2.1 2.6-4.06 3.81-6.15zM44.52 69.92c.65-.14 1.97-.43 2.63-.58 1.59 2.06 2.38 4.62 4.1 6.59 2.05 2.08 4.77 3.26 7.26 4.7 2.02.66.37 2.43-.29 3.45-2.8-3.43-9.18-3.18-10.63 1.36-1.26 3.43 1.4 6.22 3.14 8.84 1.45 2.21-.61 4.84-2.79 5.5-5.46 1.68-12.01.49-16.03-3.75-4.07-3.93-4.69-10.27-3.22-15.49.37-1.64 1.86-2.65 3.34-3.22 3.12.46 5.25 3.12 8.16 4.09 3.25.2 6.88-1.97 7.19-5.43-.36-2.25-1.85-4.07-2.86-6.06M30.97 88.96c1.53 1.91 4.08 2.77 6.44 2.06-2.56 6.42 7.41 8.97 11.09 4.93-1.53-2.48-3.65-4.8-3.98-7.82-.24-1.57-.49-3.77-2.53-3.83-3.6-.29-6.6-2.28-9.49-4.24-1.88 2.53-2.41 5.89-1.53 8.9zm21.21-15.94c2.28-.84 5.61-5.81 7.13-1.75-1.13 1.76-2.53 3.34-3.36 5.27-1.3-1.13-2.56-2.3-3.77-3.52z" fill="#fff"/>
</svg>
