<svg width="128pt" height="128pt" viewBox="0 0 128 128" xmlns="http://www.w3.org/2000/svg">
    <path d="M26.05 32.19c1.32-1.52 2.87-2.8 4.38-4.13 4.98 4.52 9.63 9.35 14.27 14.21-1.46 1.35-2.83 2.79-4.21 4.21-.34-.26-1.01-.78-1.35-1.04-2.33 2.35-5.18 4.16-7.22 6.79-1.34 1.59-.7 3.71-.76 5.58-.6 1.45-1.94 2.39-2.94 3.54-1.93-1.82-3.81-3.69-5.63-5.62.94-.98 1.89-1.94 2.83-2.91-1.52-1.75-3.24-3.3-5.11-4.67-.84.87-1.69 1.74-2.55 2.61-2.07-1.69-3.93-3.62-5.72-5.6 1.02-1.04 2.05-2.06 3.13-3.04 2.07.25 4.44.76 6.2-.74 2.58-2.08 4.37-4.94 6.68-7.29-.5-.47-1.5-1.43-2-1.9m-1.2 12.78c1.27 1.38 2.61 2.71 4.14 3.81 1.58-1.59 3.16-3.19 4.75-4.77-1.11-1.58-2.46-2.98-3.9-4.27-1.9 1.5-3.62 3.22-4.99 5.23zm19.45-.3c3.33 3.97 10.09 5.48 13.73 1.08.44 1.1.87 2.21 1.29 3.32-5.75 1.72-10.06 6.42-12.13 11.95-1.1-.34-2.19-.7-3.27-1.08 4.1-3.48 3.32-10.47-.93-13.49.33-.44.98-1.34 1.31-1.78zm7.6 12.52c1.1-1.25 2.33-2.4 3.68-3.38 1.14 2 2.42 3.92 3.74 5.8L57.93 61c-2.01-1.28-3.97-2.63-6.03-3.81zm8.45 4.14c2.9-1.71 7.9-.25 7.82 3.6.43 3.22-3.01 6.18-6.11 5.18-4.25-.26-4.96-6.83-1.71-8.78zm6.94 9.52c2.43-2.39 4.87.92 7.15 1.84-1.08 1.22-2.28 2.32-3.47 3.41-1.16-1.8-2.27-3.64-3.68-5.25zm11.4-.42c.66-2.22 2.94-.68 4 .29-1.69 1.2-3.22 3.03-2.98 5.24.09 2.98 2.93 4.85 5.57 5.44 4.01.33 6.52-4.94 10.65-3.58 2.63 1.78 2.85 5.32 2.94 8.19.29 6.8-5.06 13.47-11.88 14.27-3.67.41-8.09.45-10.76-2.52-1.67-4.37 4.4-7.27 3.28-11.68-.6-2.92-3.63-4.82-6.53-4.41-1.83-.05-2.96 2.4-4.77 2-1.91-1.9.73-3.34 2.21-4.17 3.75-1.92 6.46-5.33 8.27-9.07m9.18 13.14c-2.01.64-5.45.56-5.45 3.44.13 3.64-2.5 6.28-4.04 9.31 3.14 2.02 7.59 2.2 10.46-.38 1.4-1.26 1.02-3.17.7-4.79 2.06.3 4.62.35 5.91-1.63 1.62-3 .9-6.64-.71-9.47-2.54.71-4.21 3.13-6.87 3.52z" fill="#fff"/>
</svg>
