<svg width="128pt" height="128pt" viewBox="0 0 128 128" xmlns="http://www.w3.org/2000/svg">
    <path fill="#b2292c" d="M26.07 32.02c1.65-1.06 3.48-5.17 5.62-2.87 4.59 4.12 8.87 8.57 13.08 13.08-1.31 1.32-2.63 2.63-3.96 3.91-3.64-.22-5.84 3.21-8.17 5.45-1.83 1.71-1.48 4.26-1.33 6.5-.86 1.04-1.72 2.08-2.57 3.13-2.56-1.2-4.36-3.43-6.23-5.47.9-.94 1.8-1.88 2.7-2.81-1.48-1.75-3.17-3.31-5.02-4.67-.59.66-1.77 1.97-2.36 2.62-2.14-1.73-4.06-3.7-5.88-5.77.83-.9 1.69-1.77 2.59-2.59 2.19-.66 4.84.4 6.72-1.29 2.58-2 4.41-4.77 6.64-7.13-.46-.52-1.37-1.57-1.83-2.09m-.55 12.1c-1.18 1.11-.94 1.59.71 1.43-.03 1.92 2.05 2.08 3.39 2.59.79-.83 1.57-1.67 2.33-2.52 2.58 1.13 3.07-3.99.42-3.47-.75-.72-1.56-1.35-2.43-1.91-1.97.52-3.01 2.56-4.42 3.88z"/>
    <path fill="#942324" d="M96.24 27.73c1.6 1.37 3.12 2.83 4.56 4.35l-1.73 2.05c3.34 3.6 6.72 10.12 12.62 7.84 1.12 1 2.23 2.01 3.35 3.02-1.88 2.08-3.86 4.07-5.95 5.96-.89-.88-1.79-1.76-2.68-2.64-1.56 1.48-3.07 3.01-4.55 4.57.87.95 1.72 1.91 2.58 2.87-1.82 1.98-3.68 3.93-5.6 5.81-1.12-1.1-2.24-2.22-3.34-3.35.07-2.01.77-4.34-.65-6.05-1.89-2.56-4.59-4.33-6.93-6.43-2.68 1.36-4.07-2.12-5.78-3.54 4.39-5.12 9.58-9.46 14.1-14.46m-3 16.08c1.58 1.68 3.2 3.31 4.91 4.85 1.29-1.26 2.57-2.52 3.84-3.79-1.53-1.78-3.16-3.47-4.93-5.01-1.3 1.29-2.58 2.61-3.82 3.95z"/>
    <path fill="#571314" opacity=".69" d="M32.37 42.15c2.65-.52 2.16 4.6-.42 3.47.21-1.15.33-2.31.42-3.47z"/>
    <path fill="#370d0e" opacity=".65" d="M26.23 45.55c-1.65.16-1.89-.32-.71-1.43.18.35.53 1.07.71 1.43z"/>
    <path d="M43.81 44.34c3.65 3.86 10.24 5.89 14.26 1.43.45 1.09.91 2.18 1.36 3.28-5.56 1.83-10.13 6.21-11.89 11.83-1.2-.23-2.4-.48-3.6-.73 3.74-3.82 3.25-10.15-.8-13.55.17-.56.5-1.69.67-2.26zm8.01 12.59c1.24-1.12 2.51-2.21 3.84-3.21.89 1.39 1.82 2.75 2.69 4.16.3 1.1.19 2.22.05 3.34-1.31-.73-2.61-1.47-3.89-2.25-.92-.65-1.82-1.33-2.69-2.04zm15.87 14.42c.44-.58.88-1.15 1.32-1.72 2.01.94 3.95 2.03 5.81 3.26-1.27 1.18-2.63 2.28-4.18 3.09-.89-1.6-1.87-3.15-2.95-4.63zm9.33 1.7c1.11-1.28 1.66-4.62 3.95-3.6.48.36 1.44 1.09 1.92 1.46-.6.44-1.8 1.32-2.39 1.76-.28 1.7-1.22 3.55-.2 5.2 1.07 2.25 3.69 2.93 5.8 3.8 3.29-1.31 6.1-5.01 9.96-3.93 3.21 2.35 2.87 6.75 2.75 10.27-.38 6.97-6.99 12.59-13.85 12.58-3.26.09-7.44-.28-9.17-3.49-.12-3.44 2.93-5.9 3.69-9.11.54-2.84-1.82-5.56-4.5-6.15-2.63-.8-4.8 1.29-6.95 2.45l-.66-2.82c3.42-2.55 7.69-4.38 9.65-8.42m7.39 11.54c-2 .49-1.88 2.8-2.23 4.37-.27 2.97-3 4.94-3.21 7.93 2.98.78 6.68 1.59 9.26-.61 1.67-1.12 1.29-3.26 1.45-4.97 1.91-.06 3.78-.46 5.58-1.12 1.29-3.37 1.48-7.34-1.01-10.23-2.71 2.63-6.25 3.82-9.84 4.63z" fill="#ad2829"/>
    <path fill="#922323" d="M73.99 48.51c3.76.45 6.46-2.63 9.46-4.32.98 3.51-3.18 5.49-3.21 8.83-.55 2.54.99 4.67 2.61 6.42-1.3 1.77-4.18 1.97-4.75-.53-1.57-4.26-4.91-7.71-9.38-8.84-.3-.5-.89-1.51-1.18-2.02.37-.64 1.1-1.93 1.47-2.57 1.5 1.21 2.86 3.03 4.98 3.03z"/>
    <path d="M71.26 53.82c1.35 1.08 2.52 2.36 3.39 3.86-1.71.85-3.29 1.9-4.81 3.06-.61-.15-1.84-.43-2.46-.58 1.16-2.19 2.51-4.28 3.88-6.34zm-14.6 15.65c.97.59 1.93 1.18 2.9 1.78-1.43 1.65-2.64 3.46-3.61 5.41-1.29-1.16-2.58-2.32-3.85-3.5 1.61-1.12 3.16-2.32 4.56-3.69z" fill="#912321"/>
    <path fill="#160505" opacity=".34" d="M58.35 57.88c.66.61 1.33 1.23 1.99 1.85 1.57.25 3.13.49 4.71.68-2.18.51-5.06.38-6.23 2.71-.39 1.53-.4 3.17.03 4.69 1.55 3.03 6.56 3.25 8.37.36 1.5-1.85.67-4.29-.06-6.26 2.58 1.61 1.11 5.2 1.85 7.72-.44.57-.88 1.14-1.32 1.72-.41-.22-1.23-.65-1.64-.87-2.16.27-4.33.54-6.49.77-.97-.6-1.93-1.19-2.9-1.78.29-.22.85-.67 1.13-.89.09-2.19.17-4.38.23-6.58-1.22-.95-2.41-1.95-3.51-3.03 1.28.78 2.58 1.52 3.89 2.25.14-1.12.25-2.24-.05-3.34z"/>
    <path fill="#b22929" d="M58.82 63.12c1.17-2.33 4.05-2.2 6.23-2.71.53.38 1.58 1.12 2.11 1.5.73 1.97 1.56 4.41.06 6.26-1.81 2.89-6.82 2.67-8.37-.36-.43-1.52-.42-3.16-.03-4.69z"/>
    <path fill="#942321" d="M44.37 69.68c2.72-1.33 4.12 1.03 5.02 3.17 1.86 4.31 6.46 6.16 10.31 8.26-.21.64-.65 1.92-.86 2.56-2.09-.11-3.71-2.09-5.88-1.82-3.18-.07-6.07 2.98-5.51 6.19.19 3.43 4.5 5.46 3.73 9.09-1.7 3.35-5.87 3.63-9.18 3.45-6.52-.09-12.72-5.07-13.88-11.55-.89-3.85-.02-7.82 1.73-11.29 4.37-1.71 7.19 2.72 11.04 3.67 2.25-.3 4.79-1.32 5.81-3.5 1.01-3.02-1.03-5.7-2.33-8.23M31.18 88.76c1.2 2.03 3.88 2.99 6.11 2.14-1.82 6.04 6.21 8.59 10.35 5.68.58-1.73-1.04-3.01-1.74-4.4-1.51-1.98-1.3-4.61-2.23-6.82-1.21-1.11-3.03-1.03-4.51-1.58-2.52-.51-4.47-2.3-6.51-3.74-1.89 2.43-2.74 5.81-1.47 8.72z"/>
</svg>
