<svg width="128pt" height="128pt" viewBox="0 0 128 128" xmlns="http://www.w3.org/2000/svg">
    <path fill="#bb2c2c" d="M55.54 17.51c5.36-.1 10.47 2.13 14.46 5.61 4.69 3.77 8.81 8.27 12.11 13.3-6.12-2.06-12.61-3.71-19.09-2.58-2.88.59-6.12 2.03-7.01 5.1-.87 1.95-.21 4.1-.02 6.11-1.14 1.14-2.26 2.31-3.39 3.46 2.25 1.87 2.94 4.76 3.75 7.43.88-.4 1.77-.79 2.66-1.19l-.36 1.71c-1.16 4.31-1.75 8.77-1.66 13.24 4.21.77 8.46 1.26 12.73 1.43.82-3.87 1.16-7.83 1.15-11.78.03-.22.07-.66.1-.88-.93-.27-1.87-.53-2.81-.76-1.38-2.69-3.69-4.54-6.62-5.23 4.59-.52 9.37.02 13.81-1.45 1.44-.77 2.84-1.61 4.29-2.36 1.06 1.33 2.28 2.57 3.07 4.09-.48 3.2-3.42 5.07-5.85 6.8.99 1.25 2.03 2.49 2.81 3.89-.23 3.4-.92 6.75-1.49 10.1 2.28 2.07 4.3 4.4 6.06 6.92.07-3.55-.06-7.13-1-10.57.71.64 1.44 1.26 2.17 1.88.43-1.14.87-2.27 1.3-3.4 1.36-.22 2.71-.44 4.07-.65l.4.76c.55 3.74.91 7.5 1.36 11.26 1.65-5.2 2.05-10.65 2.12-16.07 1.03 2.54 1.7 5.2 2.02 7.92 2.37-.19 4.74-.32 7.11-.39-3.63 3.97-7.6 7.65-12.07 10.67-2.93 8.54-10.47 15.09-19.02 17.67-.24-1.69-.47-3.37-.71-5.05.33-.13.97-.38 1.3-.5 2.62-1.01 3.81-3.78 5.37-5.9-.73-2.48-1.79-4.87-3.67-6.69-1.03-1.16-1.68-.99-1.97.5-3.76 4.55-9.23 6.99-14.49 9.33-3.47.35-6.96.53-10.44.68l.31-1.19c-.39.57-.79 1.14-1.19 1.71-2.09-1.37-4.32-2.49-6.57-3.57-9.41-5.82-13.69-17.02-14.05-27.71-3.66 3.5-7.43 7.22-8.92 12.23-.57-5.32 1.77-10.45 5.09-14.48 3.7-4.91 8.43-9 13.45-12.52-2.99 8.58-4.96 18.24-2.15 27.09 1.47 2.75 4.73 4.97 7.95 4.18 2.31-.14 3.8-2.15 5.03-3.88-3.84-3.96-7.13-8.41-9.2-13.56-.94-4.39-.87-8.9-1.18-13.36.4-1.08.81-2.15 1.23-3.22.38-.93.93-1.74 1.66-2.42.91-.55 1.45-1.35 1.64-2.39.59-2.05 2.6-3.19 4.08-4.56 5.92-5.4 14.15-7.07 21.91-7.61-3.14-3.87-7.17-6.96-11.64-9.15m-8.15 23.31c-1.62 3.85-3.45 7.86-2.92 12.15.08 3.78 1.89 7.15 3.76 10.33.58-3.3 1.21-6.59 2.41-9.73.57-1.22-.45-2.39-.84-3.48-1.6-2.84-1.71-6.16-2.41-9.27m6.62 36.72c-.18.44-.53 1.32-.71 1.76-1.18.81-2.13 1.9-3.15 2.89l-.41-.21-2.51 2.03c3.41.22 6.87.21 10.17-.78 1.46-.5 2.84-1.23 4.1-2.12l-.17.94c.88-.9 1.75-1.8 2.61-2.72-3.34-.41-6.66-.99-9.93-1.79z"/>
    <path fill="#c62d31" d="M65.15 39.07c4.84-3.24 11.1-2.75 16.64-2.5 8.41 3.01 15.08 10.28 17.63 18.82 1.29 3.77 1.47 7.78 1.97 11.7 3.88-3.22 6.47-7.59 9.56-11.44-.72 5.81-3.2 11.24-7.16 15.56-2.37.07-4.74.2-7.11.39-.32-2.72-.99-5.38-2.02-7.92-.49-1.39-1-2.77-1.55-4.13-1.74-3.81-6.1-4.76-9.89-3.99 3.13 3.65 5.46 7.86 7.56 12.17-1.36.21-2.71.43-4.07.65-.43 1.13-.87 2.26-1.3 3.4-.73-.62-1.46-1.24-2.17-1.88-1.21-2.14-2.37-4.3-3.57-6.45-.78-1.4-1.82-2.64-2.81-3.89 2.43-1.73 5.37-3.6 5.85-6.8-.79-1.52-2.01-2.76-3.07-4.09 2.46-.59 4.97-.93 7.46-1.31-3.46-1.67-7.1-3.45-11.07-3.14-4.39-.16-8.25 2.07-11.96 4.12 3.85.42 7.77.95 11.28 2.69-4.44 1.47-9.22.93-13.81 1.45 2.93.69 5.24 2.54 6.62 5.23-3.16-.5-6.36-.71-9.51-1.25l.36-1.71c-.89.4-1.78.79-2.66 1.19-.81-2.67-1.5-5.56-3.75-7.43 1.13-1.15 2.25-2.32 3.39-3.46 2.09-2.1 4.53-3.9 7.28-5.02l1.88-.96z"/>
    <path fill="#691718" opacity=".76" d="M39.55 41.22c-.63-1.69-.08-2.49 1.64-2.39-.19 1.04-.73 1.84-1.64 2.39z"/>
    <path fill="#410e11" opacity=".62" d="M63.38 39.11l.97-.49.8.45-1.88.96.11-.92z"/>
    <path fill="#270909" opacity=".46" d="M36.21 46.39c.39-1.01 1.09-1.86 1.68-2.75-.42 1.07-.83 2.14-1.23 3.22.31 4.46.24 8.97 1.18 13.36-1.01-2.4-1.64-4.94-2.38-7.43-2.69 6.57-1.81 13.79-1.4 20.69-2.81-8.85-.84-18.51 2.15-27.09z"/>
    <path fill="#2a090a" opacity=".45" d="M58.65 56.46c3.15.54 6.35.75 9.51 1.25.94.23 1.88.49 2.81.76-4.11-.06-8.21-.43-12.28-1.02-.02 3.67-1.36 7.67-.23 11.17 3.09 1.81 7.16 1.03 10.67 1.5.37-3.62 1-7.21 1.74-10.77.01 3.95-.33 7.91-1.15 11.78-4.27-.17-8.52-.66-12.73-1.43-.09-4.47.5-8.93 1.66-13.24z"/>
    <path opacity=".16" d="M93.11 59.55c.55 1.36 1.06 2.74 1.55 4.13-.07 5.42-.47 10.87-2.12 16.07-.45-3.76-.81-7.52-1.36-11.26.57.89 1.16 1.78 1.76 2.65.12-3.86.13-7.73.17-11.59zM40.64 88.87c2.25 1.08 4.48 2.2 6.57 3.57.4-.57.8-1.14 1.19-1.71l-.31 1.19c3.48-.15 6.97-.33 10.44-.68-.98.54-1.94 1.11-2.89 1.69C61.4 94.44 67.4 94.02 73.29 94c-.33.12-.97.37-1.3.5-7.86 1.12-15.99.47-23.44-2.4-.07.45-.22 1.37-.3 1.82l-.24 1.58c-2.07-2.65-5.31-3.99-7.37-6.63z" fill="#010000"/>
    <path fill="#310b0b" opacity=".53" d="M54.01 77.54c3.27.8 6.59 1.38 9.93 1.79-.86.92-1.73 1.82-2.61 2.72l.17-.94c.06-.33.19-1 .26-1.34-2.3-.43-4.59-.89-6.9-1.22-.39.19-1.17.56-1.56.75.18-.44.53-1.32.71-1.76z"/>
    <path fill="#100303" opacity=".44" d="M73.02 81.91c.29-1.49.94-1.66 1.97-.5-.49.12-1.48.38-1.97.5z"/>
    <path fill="#140404" opacity=".36" d="M47.23 84.01l2.51-2.03.41.21c.49.24 1.48.72 1.97.96 1.75.12 3.52.13 5.28.08-3.3.99-6.76 1-10.17.78z"/>
    <path fill="#b02829" d="M48.25 93.92c.08-.45.23-1.37.3-1.82 7.45 2.87 15.58 3.52 23.44 2.4.24 1.68.47 3.36.71 5.05-3.68 1.04-7.48 1.4-11.26 1.87 3.35 3.74 7.15 7.3 12.03 8.88-3.47.94-6.88-.85-10.03-2.1-6.01-3.58-11.19-8.54-15.19-14.28z"/>
</svg>
