<svg width="128pt" height="128pt" viewBox="0 0 128 128" xmlns="http://www.w3.org/2000/svg">
    <path d="M50.05 25.67c6.87-1.44 13.76 1.7 20.19 3.83-2.24 1.04-4.39 2.25-6.57 3.38-4.14-1.92-8.61-3.03-12.77-4.82-.21-.6-.64-1.79-.85-2.39zM33.44 97.65c6.58-2.82 10.69-9.35 15.26-14.61-.33 2.53-.76 5.16-.17 7.69.45 1.49 2.01.56 3.11.63-2.53 2.79-4.07 6.25-5.59 9.64l-1.11 1.75c-.89 1.86-1.9 3.67-2.77 5.54-4.69.91-9.46-2.95-10.62-7.42.68-1.04 1.31-2.12 1.89-3.22z" fill="#b22929"/>
    <path fill="#c63031" d="M63.67 32.88c2.18-1.13 4.33-2.34 6.57-3.38 5.4 1.09 9.74 6.17 15.55 5.03 2.04.51 3.61 1.95 4.88 3.56-.1 1.01-.22 2.01-.37 3.02 2.23 1.86 3.79 4.33 5.96 6.25.02 2.13.48 4.19 1.18 6.19-.16.54-.48 1.63-.65 2.17-.8-.17-1.59-.35-2.38-.55-2.41-2.2-4.66-4.57-7.44-6.31C83.28 52 79.74 55.4 76.83 59.3c-.5.05-1.51.16-2.02.21-3.84 4.18-6.59 9.21-9.92 13.79-.85 1.12-1.76 2.19-2.53 3.37-4.07 4.5-7.36 9.65-10.72 14.69-1.1-.07-2.66.86-3.11-.63-.59-2.53-.16-5.16.17-7.69 2.62-3.57 5.67-6.85 8.24-10.43 1.29-1.45 2.86-2.62 4.04-4.17 2.06-4.78 7.1-7.92 8.02-13.19 1.69-5.3 7.22-8.51 8.66-13.8-4.23-3.43-9.16-6.04-13.99-8.57z"/>
    <path fill="#b52b2c" d="M31.9 34.71c5.1-.91 10.12-2.27 15.19-3.4 2.34 1.32.95 3.89.66 5.94-1.03 4.45-5.1 7.14-7.36 10.85-1 1.93.82 3.3 2.03 4.51 2.63 2.41 5.9 3.99 8.42 6.53 3.29 3.21 7.37 5.57 10.14 9.3-1.18 1.55-2.75 2.72-4.04 4.17-7.65-5.08-14.15-11.66-21.1-17.61-2.8 1.34-4.67 3.84-6.58 6.19-.93.88-1.73 2.7-3.34 2.04-2.4-1.6-4.63-3.49-6.71-5.49-.53-.9-1.28-1.55-2.24-1.93-.4-.21-1.2-.64-1.6-.85 1.47-3.19 4.19-5.51 6.31-8.24 3.24-4.15 6.61-8.19 10.22-12.01z"/>
    <path fill="#ad2829" d="M96.26 47.36c4.89 5.48 8.69 11.81 12.37 18.14 1.18 1.83 1.02 4.05 1.08 6.13-.77-.28-2.29-.82-3.05-1.1-1.97-3.87-4.89-7.09-7.5-10.52-.42-.97-1.1-1.71-2.03-2.22-.99-.79-1.89-1.68-2.72-2.62.79.2 1.58.38 2.38.55.17-.54.49-1.63.65-2.17-.7-2-1.16-4.06-1.18-6.19z"/>
    <path fill="#1b0607" opacity=".39" d="M16.97 55.81c.96.38 1.71 1.03 2.24 1.93-1.75.52-2.5-.12-2.24-1.93z"/>
    <path fill="#130405" opacity=".39" d="M97.13 57.79c.93.51 1.61 1.25 2.03 2.22-1.78.29-2.45-.45-2.03-2.22z"/>
    <path fill="#bd2c31" d="M64.89 73.3c1.42-.7 2.62.29 3.59 1.19 3.32 2.94 6.88 5.58 10.34 8.35-1.16-.32-2.33-.61-3.52-.74-1.75 1.26-2.76 3.24-3.96 4.97-3.11-3.2-6.82-5.73-9.96-8.88l.98-1.52c.77-1.18 1.68-2.25 2.53-3.37z"/>
    <path fill="#ce3031" d="M75.3 82.1c1.19.13 2.36.42 3.52.74 1.08.69 2.11 1.49 3.08 2.33 3.22 3.2 2.73 7.85 1.26 11.75-4.05-3.16-7.81-6.66-11.82-9.85 1.2-1.73 2.21-3.71 3.96-4.97z"/>
    <path fill="#b0292c" d="M81.9 85.17c4.03 2.56 7.29 6.1 11.18 8.83 1.81 1.01 1.62 3.23 1.84 4.99-1.42 1.41-3.05 2.56-4.8 3.52-2.37-1.81-4.66-3.71-6.96-5.59 1.47-3.9 1.96-8.55-1.26-11.75z"/>
    <path fill="#400f0e" opacity=".64" d="M44.94 102.75l1.11-1.75.38.85-.57.91-.92-.01z"/>
</svg>
