<svg width="128pt" height="128pt" viewBox="0 0 128 128" xmlns="http://www.w3.org/2000/svg">
    <path fill="#fff" d="M49.51 25.68c2.47-.64 5.06-.56 7.55-.01 5.03 1.22 10.06 2.5 14.86 4.48 3.96 1.34 7.41 3.82 11.42 5 2.73-1.73 5.65.87 7.28 2.95-.15 1.03-.28 2.07-.37 3.12 7.58 7.2 13.8 15.75 18.55 25.06.89 1.64.78 3.53.84 5.33-1.16-.52-2.68-.67-3.32-1.93C101.4 61.39 94.44 54.56 87 48.54c-3.76 3.25-7.22 6.84-10.38 10.68-3.92.33-5.3 5.02-7.42 7.74-6.17 8.29-12.48 16.48-18.24 25.07-3.84 4.93-5.43 11.24-9.14 16.21-4.46.79-9.07-3.11-10.13-7.39.61-1.07 1.24-2.14 1.88-3.18l2.2-.88c6.46-4.91 11.21-11.56 16.25-17.82 5.76-6.83 11.14-13.96 16.52-21.09.58-6.69 7.16-10.38 9.44-16.38-7.85-5.93-16.85-10.56-26.42-12.96-.67-.97-1.35-1.92-2.05-2.86z"/>
</svg>
