<svg width="128pt" height="128pt" viewBox="0 0 128 128" xmlns="http://www.w3.org/2000/svg">
    <path fill="#b82b2c" d="M21.75 23.8c2.69-1.07 5.89-3.34 8.67-1.19 2.99 1.25 3.7 5.09 6.82 6.18 4.49-.63 8.98-1.41 13.55-1.11l-.7-1.83c4.44 2.07 10.71 1.47 12.99 6.72 1.91-.81 2.48-3.27 4.53-3.88 3.06-1.06 6.25-1.64 9.32-2.65l-.81 1.72c4.6-.3 9.19.17 13.69 1.18 2.11-1.2 3.66-3.05 4.79-5.18 1.93-.94 4-2.92 6.28-1.74 2.98 1.01 6.66 2.29 7.1 5.93 1.88 4.34-1.22 8.22-3.68 11.49.14 1.38.33 2.8 1.34 3.86-.91 1.16-1.79 2.36-2.62 3.58-.7-.92-1.4-1.84-2.08-2.77-.91 1-1.82 2.01-2.74 3.01 1.05.63 2.09 1.25 3.13 1.88-.24.64-.49 1.27-.74 1.91l3.17.9c.15.91.31 1.81.47 2.71-2.99-.5-5.41-2.78-8.62-2.11l.33-3.91-1.86.99c-.61-.27-1.22-.53-1.82-.79-.45.98-.89 1.95-1.33 2.93-.82-.76-1.64-1.53-2.46-2.29-3.98 1.56-7.91 3.46-12.26 3.66-1.53-4.06-2.09-8.33-2.13-12.65-7.02-.73-14.09-.68-21.11-.01.22 5.84-1.9 11.27-3.23 16.85-.6 6.29-.43 12.66-.2 18.97-3.34 5.09-9.46 1.78-13.97.59-5.36-.97-9.81-4.21-14.67-6.44-.74.59-1.48 1.19-2.23 1.79-.41-2.26-.47-4.55-.24-6.83 1.92-1.57 3.95-2.99 6.19-4.06-2.81-.09-5.51.65-8.14 1.53-1.22-2.88-.96-5.94.19-8.79 1.33-.59 2.65-1.19 3.97-1.79-1.01-.59-2.02-1.17-3.03-1.74-1.32-3.99 2.35-6.06 4.83-8.33.12-.49.37-1.48.49-1.97 2.73-1.82 5.2-3.96 7.89-5.83 2.22 2.95 4.4 6.63 8.22 7.61 2.63.67 4.19 3.1 6.48 4.37 2.01.49 5.22-.47 5.1-2.98-.2-1.3-1.32-2.75-2.76-2.66-3.57.01-7.13 0-10.68-.38-1.84-1.85-3.51-3.86-5.16-5.88-.3-.37-.89-1.09-1.19-1.45.03-2.62-1.31-5.04-3.6-6.33-2.72-.22-3.83 2.44-6.12 2.97-.9 3.48 2.56 6.14 1.87 9.4-4.86-2.89-6.3-11.49-1.23-15.16m74.39 9.25c-2.15 2.29-4.03 4.86-6.04 7.29-3.86.24-7.71.41-11.57.25-2.87.78-2.82 5.71.61 5.33-.6 1.81 3.27 1.7 2.49-.07 2.22-.4 3.21-3.18 5.44-3.68 1.46-.48 3.13-.62 4.19-1.88 1.73-1.86 3.51-3.72 4.79-5.93 2.57 1.66 5.04 3.46 7.3 5.52.13-3.7 3.31-6.51 2.56-10.4-1.99.36-2.23-2.39-4.07-2.56-3.58-1.17-5.85 3.08-5.7 6.13z"/>
    <path opacity=".07" d="M52.97 40.34c7.02-.67 14.09-.72 21.11.01.04 4.32.6 8.59 2.13 12.65 1.8 4.78 1.37 9.93 1.44 14.93.02 3.17.02 6.34-.09 9.51-1.76-7.33 0-14.96-1.51-22.31-.73-2.81-1.56-5.6-1.92-8.48-2.58 3.13-6.46 4.51-9.58 6.94.06.89.18 2.67.25 3.56 2.65.87 5.41.34 8.12.33 1.4-.03 1.52 1.45 1.8 2.47 1.32 5.07.39 10.4 1.57 15.49l-1.21.47c-.13-2.43-.37-4.85-.57-7.27-1.35-.3-2.71-.6-4.07-.9-.29-1.49-.6-2.97-.91-4.46-3.86-1.48-8.06-1.41-11.92.03-.54 1.83-1.09 3.65-1.65 5.47-1.49-.82-2.98-1.66-4.46-2.51.16-2.95.72-5.85 1.35-8.72 3.17-.06 6.36.4 9.51-.16-.09-1.88-.19-3.76-.28-5.65-3.87.17-6.75-2.55-9.25-5.13-.38 4.32-2.33 8.35-2.41 12.72-.14 4.93-.25 9.87-.18 14.8.01 6.02 3.21 11.36 4.33 17.17.3 2.56-.07 5.14.02 7.71-.85.29-1.7.57-2.55.85 3.86-7.9-1.31-15.88-2.5-23.7-.23-6.31-.4-12.68.2-18.97 1.33-5.58 3.45-11.01 3.23-16.85m.15 1.24c.25 1.93-.54 4.43 1.35 5.73 1.59 1.53 3.58 2.64 5.77 3.03-1.38-2.37-5.31-2.5-5.01-5.83 1.88.04 3.73.35 5.55.78.72 2.05.14 5.01 2.33 6.19 2.88-.6 2.53-4.07 3.28-6.27 1.62-.02 5.06-2.02 5.3.64-.78 2.16-3.53 2.68-5.09 4.21 3.01.51 5.04-2.35 7.2-3.94-.19-1.64.45-3.53-.53-4.99-3.3-.99-6.85-.32-10.25-.51-3.29.2-6.86-.69-9.9.96m8.25 16.95c.02.43.07 1.3.09 1.74l.71-.03-.08-1.73-.72.02m3.15-.54c-1.07.97-.12 3.85 1.48 2.69 1.35-.92.08-3.84-1.48-2.69m-10.88.46c-1.18 2.89-1.22 7.27 1.35 9.15 2.02-2.1.21-6.23 3.22-7.99-1.06 4.92 3.69 1.09 2.41-1.39-2.05 2.14-4.61.82-6.98.23m13.44.07l-.52 2.64c.53.18 1.6.55 2.14.74.28-.54.84-1.61 1.12-2.15 1.21 2.45.62 5.61 2.14 7.81 2.6-2.04 2.63-6.2 1.37-9.1-2.09.33-4.51 2.12-6.25.06z"/>
    <path fill="#bb2c2b" d="M53.12 41.58c3.04-1.65 6.61-.76 9.9-.96 3.4.19 6.95-.48 10.25.51.98 1.46.34 3.35.53 4.99-2.16 1.59-4.19 4.45-7.2 3.94 1.56-1.53 4.31-2.05 5.09-4.21-.24-2.66-3.68-.66-5.3-.64-.75 2.2-.4 5.67-3.28 6.27-2.19-1.18-1.61-4.14-2.33-6.19-1.82-.43-3.67-.74-5.55-.78-.3 3.33 3.63 3.46 5.01 5.83-2.19-.39-4.18-1.5-5.77-3.03-1.89-1.3-1.1-3.8-1.35-5.73z"/>
    <path fill="#c62d2e" d="M100.94 44.11c.68.93 1.38 1.85 2.08 2.77.83-1.22 1.71-2.42 2.62-3.58 2.52 1.58 4.76 3.88 3.71 7.11-1.03.59-2.07 1.18-3.1 1.78 1.35.58 2.71 1.15 4.11 1.64.67 2.87 1.1 5.85.03 8.69-2.67-.94-5.42-1.61-8.26-1.68 1.97 1.45 4.13 2.68 5.8 4.48 1.31 2.06.36 4.64.39 6.91-6.96.94-13.66-1.26-20.46-2.27-1.96-.57-3.58-1.96-5.55-2.48-1.57-.11-3.11.26-4.66.45-.07-5 .36-10.15-1.44-14.93 4.35-.2 8.28-2.1 12.26-3.66.82.76 1.64 1.53 2.46 2.29.44-.98.88-1.95 1.33-2.93.6.26 1.21.52 1.82.79l1.86-.99-.33 3.91c3.21-.67 5.63 1.61 8.62 2.11-.16-.9-.32-1.8-.47-2.71l-3.17-.9c.25-.64.5-1.27.74-1.91-1.04-.63-2.08-1.25-3.13-1.88.92-1 1.83-2.01 2.74-3.01z"/>
    <path fill="#5c1514" opacity=".76" d="M79.14 45.92c.62-.02 1.87-.06 2.49-.07.78 1.77-3.09 1.88-2.49.07z"/>
    <g fill="#b5292c">
        <path d="M52.83 46.61c2.5 2.58 5.38 5.3 9.25 5.13.09 1.89.19 3.77.28 5.65-3.15.56-6.34.1-9.51.16-.63 2.87-1.19 5.77-1.35 8.72-.11 3.19-.55 6.45.14 9.61 1.03 3.63 2.43 7.16 3.21 10.87 1.18 3.32.38 8.51 4.47 9.87 2.93.64 6.21.83 9.04-.3 2.99-1.51 2.59-5.38 3.39-8.14.41-1.9.9-3.77 1.4-5.65l.54.89c.16 1.03.29 2.06.39 3.1-.18.32-.54.95-.73 1.26-1.81 3.87-.2 8.21-1.41 12.12-2.87 3.32-7.81 3.04-11.81 2.7-2.12-.53-4.69-1.35-5.54-3.59-.09-2.57.28-5.15-.02-7.71-1.12-5.81-4.32-11.15-4.33-17.17-.07-4.93.04-9.87.18-14.8.08-4.37 2.03-8.4 2.41-12.72z"/>
        <path d="M64.52 57.99c1.56-1.15 2.83 1.77 1.48 2.69-1.6 1.16-2.55-1.72-1.48-2.69z"/>
    </g>
    <path fill="#ba2c2c" d="M64.55 53.59c3.12-2.43 7-3.81 9.58-6.94.36 2.88 1.19 5.67 1.92 8.48 1.51 7.35-.25 14.98 1.51 22.31.11-3.17.11-6.34.09-9.51 1.55-.19 3.09-.56 4.66-.45 1.97.52 3.59 1.91 5.55 2.48 6.8 1.01 13.5 3.21 20.46 2.27-1.98 4.17-2.95 8.78-5.54 12.66-2.5 1.52-5.86.16-7.9-1.69 1.25 2.32 2.61 4.57 4.23 6.65-2.06 1.53-4.07 3.13-6.02 4.81-1.82-.77-3.65-1.61-5.12-2.96.59 1.83 1.24 3.66 2.08 5.4-2.81 2.25-7.7 2.39-9.41-1.48.52 1.14 1.55 3.41 2.07 4.55-2.14.54-4.41 2.04-6.65 1.16-3-3.76-3.22-9.37-1.47-13.7-.13-.28-.38-.83-.51-1.11-.1-1.04-.23-2.07-.39-3.1l-.11-1.14c.46-2.14 1.01-4.25 1.5-6.37l1.21-.47c-1.18-5.09-.25-10.42-1.57-15.49-.28-1.02-.4-2.5-1.8-2.47-2.71.01-5.47.54-8.12-.33-.07-.89-.19-2.67-.25-3.56z"/>
    <path fill="#240808" opacity=".41" d="M110.36 53.83c2.44 2.77 2.21 7.92-1.08 10.01-.24 2.78.72 5.91-.96 8.39-.03-2.27.92-4.85-.39-6.91-1.67-1.8-3.83-3.03-5.8-4.48 2.84.07 5.59.74 8.26 1.68 1.07-2.84.64-5.82-.03-8.69z"/>
    <path fill="#bd2c31" d="M61.37 58.53l.72-.02.08 1.73-.71.03c-.02-.44-.07-1.31-.09-1.74z"/>
    <path d="M53.64 58.45c2.37.59 4.93 1.91 6.98-.23 1.28 2.48-3.47 6.31-2.41 1.39-3.01 1.76-1.2 5.89-3.22 7.99-2.57-1.88-2.53-6.26-1.35-9.15zM18.67 72.1c.75-.6 1.49-1.2 2.23-1.79 4.86 2.23 9.31 5.47 14.67 6.44 4.51 1.19 10.63 4.5 13.97-.59 1.19 7.82 6.36 15.8 2.5 23.7-.37.48-1.1 1.42-1.47 1.9-2.17-.22-4.29-.78-6.33-1.55.5-1.1 1.51-3.3 2.01-4.4-1.66 3.97-5.36 2.68-8.5 2.39-1.3-2.15.93-4.36 1.25-6.46-1.54 1.15-3.06 2.61-5.09 2.76-2.25-1.23-3.95-3.23-5.98-4.76 1.64-2.03 2.94-4.29 4.2-6.57-1.91 1.87-4.54 2.59-7.17 2.3-3.49-3.6-4.26-8.91-6.29-13.37z" fill="#b22b2c"/>
    <path fill="#c62c31" d="M67.08 58.52c1.74 2.06 4.16.27 6.25-.06 1.26 2.9 1.23 7.06-1.37 9.1-1.52-2.2-.93-5.36-2.14-7.81-.28.54-.84 1.61-1.12 2.15-.54-.19-1.61-.56-2.14-.74l.52-2.64z"/>
    <path fill="#140405" opacity=".4" d="M54.85 86.75c.88.54 1.77 1.07 2.64 1.63-.74 2.5-.84 5.23 1.46 6.94.03-1.84.04-3.68-.09-5.52.45 1.1.9 2.21 1.34 3.33 2.2.43 4.45.39 6.66.03.42-1.14.86-2.28 1.3-3.41-.14 1.85-.15 3.72-.1 5.58 2.17-1.6 2.94-5.11.67-6.97v-.01c.76-.04 2.27-.13 3.02-.17-.8 2.76-.4 6.63-3.39 8.14-2.83 1.13-6.11.94-9.04.3-4.09-1.36-3.29-6.55-4.47-9.87m4.89 7.32c1.16 2.89 6.33 2.82 7.52 0-2.51-.14-5.02-.13-7.52 0z"/>
    <path fill="#932124" opacity=".91" d="M58.95 95.32c-2.3-1.71-2.2-4.44-1.46-6.94l1.06.7.31.72c.13 1.84.12 3.68.09 5.52z"/>
    <path fill="#912224" opacity=".9" d="M68.73 88.36c2.27 1.86 1.5 5.37-.67 6.97-.05-1.86-.04-3.73.1-5.58l.57-1.39z"/>
    <path fill="#821e20" opacity=".85" d="M59.74 94.07c2.5-.13 5.01-.14 7.52 0-1.19 2.82-6.36 2.89-7.52 0z"/>
</svg>
