<svg width="128pt" height="128pt" viewBox="0 0 128 128" xmlns="http://www.w3.org/2000/svg">
    <g fill="#fff">
        <path d="M53.38 45.98c-.62-1.91-.33-4.13 1.32-5.41 6.11.45 12.25-.06 18.36.31 1.02 1.47 1.01 3.48.52 5.14-1.82 2.12-4.25 3.98-7.12 4.28 1.68-1.57 3.8-2.59 5.44-4.2.34-3.05-3.32-1.22-4.86-1.1-2.51 1-.25 7.16-4.42 6.24-1.29-1.77-1.26-4.1-1.91-6.12-1.96-.1-4.99-2.02-5.71.84 1.45 1.75 4.07 2.3 5 4.49-2.55-.87-4.87-2.43-6.62-4.47zm8.29 15.01c-1.86 0-1.52-3.02.07-3.21 1.6.17 1.56 3.09-.07 3.21zm3.45-2.74c1.37-.11 1.94 2.39.4 2.54-1.32.09-1.77-2.29-.4-2.54z"/>
        <path d="M53.59 59.1c2.24-.09 4.46.23 6.7.14-.39 1.06-.75 2.11-1.11 3.17-.73-.77-1.46-1.54-2.2-2.31-.72 2.3-1.04 4.69-1.26 7.09-.35.14-1.04.41-1.39.55-.61-1.93-1.13-3.88-1.7-5.81l.96-2.83zm15.7.23c1.3-.25 2.62-.42 3.94-.52 1.71 2.8.5 6.09-.66 8.86-.26-.05-.79-.16-1.06-.21-.64-2.75-.59-5.7-2.22-8.13zM57.17 89c.31-.12.91-.37 1.22-.49.22 1.24.43 2.47.63 3.72 1.83 1.63 4.09 2.48 6.57 2.13l-.32-1.18 2.6.64c.16-1.79.41-3.56.69-5.32.32.13.97.39 1.3.52-.03 1.93.37 3.99-.69 5.75l.64.22c-1.14-.19-2.29-.38-3.44-.57l.18 1.38c-1.97-.08-3.95.02-5.91-.21-.54-.91-1.05-1.84-1.54-2.78l-.7 2.67c-1.54-1.87-1.43-4.21-1.23-6.48z"/>
    </g>
    <path fill="#fefefe" d="M67.33 59.53c2.47-.57.44 3.58-.31.82l.31-.82z"/>
</svg>
