<svg width="128pt" height="128pt" viewBox="0 0 128 128" xmlns="http://www.w3.org/2000/svg">
    <path fill="#fff" d="M19.12 28.02c.52-4.14 4.92-4.82 7.91-6.5 4.94.44 6.62 5.33 10.29 7.76 4.34-1.64 9.04-1.53 13.6-1.38l-1.03-1.88c4.17 1.88 9.99 1.2 12.55 5.67 1.01 1.98 2.39-.42 3.1-1.27 2.8-3.27 7.81-2.56 11.44-4.4l-.96 1.88c4.59-.2 9.27-.17 13.65 1.38 3.72-2.39 5.33-7.35 10.3-7.76 1.93 1.4 4.53 1.53 6.28 3.18 3.71 4.18 2.1 11.33-2.14 14.16-.89-3.16 3.18-5.71 2.01-9.1-1.98-1.35-3.75-3.32-6.37-3.19-2.51 1.12-3.56 3.83-3.75 6.4-1.93 2.11-3.48 4.54-5.57 6.5-3.87 1.6-8.2.91-12.27 1.17-2.31 1.06-2.54 4.35-.06 5.34 3.29 1.95 6.04-1.44 8.12-3.55 4.89-.1 7.36-4.56 10.08-7.91 2.6 1.79 5.06 3.77 7.62 5.63.81 2.34 2.48 4.11 4.45 5.55 1.69 1.04.8 3.11.82 4.69-.99.66-1.98 1.3-3 1.89 1.5.59 2.94 1.3 4.35 2.08.75 2.77 1.04 5.62-.1 8.34-2.64-.85-5.29-1.78-8.09-1.78 2.03 1.47 4.36 2.67 6.01 4.59.96 2.45.18 5.12-.57 7.51-1.43 4.01-2.71 8.13-5.06 11.72-2.44 1.81-5.66-.05-7.88-1.47 1.17 2.27 2.38 4.57 4.19 6.42-2.03 1.6-3.99 3.29-6.04 4.86-1.74-.8-3.45-1.63-5.16-2.48.66 1.78 1.39 3.54 2.16 5.28-2.21.65-4.68 1.98-6.95.89-.78-.99-1.44-2.07-2.14-3.11.41 1.74.9 3.46 1.52 5.14-1.93.54-3.87 1.06-5.81 1.56-4.5-4.81-2.94-12.01-1.21-17.67 3.39-8.32 2.38-17.48 2.08-26.23-.98-3.58-1.44-7.36-3.21-10.67.02 2.66 1.02 5.13 1.67 7.67.98 5.24.57 10.6.84 15.9.41 5.14-1.2 10.15-2.98 14.91-.37-.03-1.1-.09-1.47-.11 1.4-5.15 4.16-10.15 3.42-15.64-.47-4.29.2-9.04-2.29-12.81-1.82.17-3.64.37-5.45.63l-3.31-.84c.1-1.8.33-3.58.55-5.37 3.84.58 6.5-2.57 8.99-4.94.07-2.12.17-4.26-.12-6.37-7.09-.6-14.19-.58-21.28-.01-.29 2.08-.26 4.19-.13 6.29 2.46 2.42 5.15 5.65 9.01 5.02.24 1.82.46 3.65.56 5.49-2.79.9-5.68.37-8.54.23-1.84 1.32-1.72 3.82-2.02 5.83-.28 3.96-.8 7.95-.41 11.93 1.63 5.61 3.68 11.11 4.78 16.86.18 1.39.79 2.66 1.33 3.94 3.86 1.29 8.6 1.98 12.2-.35 1.78-2.39 1.28-5.73 2.41-8.42l-.98.03c.7-.24 2.11-.7 2.81-.94-2.63 4.45-.94 9.47-2.04 14.17-2.5 1.51-5.24 2.58-8.21 2.43l.47.59c-3.01-.78-6.14-1.25-8.83-2.94-1.05-2.71-.45-5.6-.43-8.41-.44-2.77-1.84-5.36-1.74-8.2-.93-.03-1.86-.04-2.79-.05l1.76.76c.71 5.24 2.64 11.24-.62 16.03-1.63 2.39-4.67-.15-6.89-.27.62-1.67 1.11-3.39 1.46-5.14-.94 1.16-1.37 2.97-2.95 3.44-2.15.21-4.21-.61-6.18-1.34.83-1.7 1.58-3.44 2.31-5.19-1.72.84-3.45 1.68-5.19 2.48-2.07-1.53-4-3.24-6.02-4.83 1.7-1.96 3-4.21 4.21-6.49-2.28 1.48-5.58 3.4-8.07 1.4-2.36-3.89-3.73-8.21-5.2-12.49-.69-2.17-.89-4.51-.33-6.73 1.81-1.75 3.98-3.07 6.12-4.37-2.85-.25-5.5.81-8.15 1.67-1.17-2.78-.86-5.7-.11-8.54 1.41-.68 2.86-1.28 4.3-1.87-.95-.65-1.89-1.33-2.91-1.87-1.6-3.98 2.41-5.96 4.68-8.41.03-.65.09-1.96.11-2.61-2.21-3.31-5.42-7.17-3.51-11.39m3.22 1.57c-.35-.12-1.06-.35-1.41-.47-1.08 4.04 2.63 7.04 2.69 10.97 2.17-2.05 4.51-3.93 7.08-5.47 2.69 3.34 5.27 7.65 10.09 7.82 2.08 2.14 4.87 5.5 8.17 3.52 2.41-1.02 2.18-4.21-.07-5.29-3.93-.22-7.94.18-11.8-.87-2.44-1.94-4.09-4.66-6.14-6.97-.01-2.65-1.5-4.85-3.54-6.41-2.03.5-4.53.68-5.07 3.17m27.18 28.33c-.28 8.28-1.19 16.9 1.46 24.91l.78-.04c-.08-3.28-1.82-6.39-1.59-9.75.35-5.69-.11-11.42.71-17.08.51-2.9 1.78-5.62 1.96-8.59-1.99 3.18-2.32 7.01-3.32 10.55z"/>
</svg>
