<svg width="128pt" height="128pt" viewBox="0 0 128 128" xmlns="http://www.w3.org/2000/svg">
    <path fill="#fff" d="M67.78 23.76c5.46-3.65 12.74-5.43 18.91-2.5 5.27 2.78 9.89 7.81 16.34 7.35 3.03.51 7.22-2.02 5.55-5.47-.89-2.08-2.91-.31-4.06.41-.59-2.82 3.11-3.93 5.17-2.59 2.46.97 1.57 3.83 1.89 5.88-2.13 3.55-6.73 5.04-10.64 3.97-5.66-1.2-9.58-5.94-14.91-7.89-3.95-1.48-8.8-1.82-12.3.91l2.44 1.19c-1.38.48-2.76.94-4.15 1.38 9.46 1.28 19.05 3.95 26.84 9.67 3.57 2.92 6.84 8.02 12.22 6.34-1.39 1.88-3.55 2.6-5.82 2.34 1.51 5.3 1.16 11.21 4.63 15.81-1.31-1.02-2.55-2.13-3.8-3.22-.34 7.99.95 16.7 7.06 22.43-3.7-.77-6.74-3.45-7.88-7.06-1.72 3.13-2.19 6.67-2.4 10.18-6.76 6.46-12.61 16.79-8 26.06-1.92-2.71-3.51-5.97-3.03-9.38 1.09-10.22 8.33-18.42 9.97-28.5-2.67 4.46-6.45 8.53-11.65 9.89 7.74-5.93 11.12-15.65 12.96-24.88-1.59 1.92-3.47 3.57-5.44 5.1 2.98-3.62 5.41-8.5 3.97-13.27-.71-3.12-3.02-5.51-4.93-7.95-.03.84-.08 2.53-.11 3.37-3.16-6.39-9.13-11.11-16.16-12.48 2.49 4.63 4.85 10.25 1.85 15.26-1.06 3.19 3.46 2.95 5.33 3.64-1.51 1.32-3.73 1.55-5.43.47-1.71-1.72-3.23-3.64-5.03-5.27.81.24 2.43.72 3.25.96 4.18-3.87 1.58-10.82-2.9-13.21-5.04-2.15-10.74-1.69-15.8-3.79 1.08-2.62 3.91-3.61 6.06-5.15z"/>
    <g fill="#fafafa">
        <path opacity=".98" d="M29.51 27.39c6.91-6.2 18.21-5.86 25.24-.13.68 2.72-3.21 2.39-4.9 2.8 1.59-2.8-1.54-3.57-3.56-4.18-5.94-1.54-13.38.11-16.62 5.72-1.83 2.57-2.81 6.06-5.83 7.53-2.46 1.39-6.52-.1-6.54-3.22-.53-3.37 3.72-7.23 6.35-3.76-1.71-.6-5.06 1.48-2.52 2.79 4.14-.59 5.12-5.52 8.38-7.55z"/>
        <path opacity=".98" d="M36.07 32.87c3.91-2.71 9.77-4.54 14.04-1.82-.56 3.32-3.38 5.53-5.26 8.13 1.39 2.09 3.85 3.04 5.44 4.94-.07 2.09-1.46 3.86-1.91 5.88 1.48 2.7 3.46 5.36 2.76 8.64-1.26-3.68-4.04-6.49-7.52-8.14 1.03-2.29 5.54-4.38 3.32-7.08-2.39-.54-4.88-.55-7.23-1.27 1.61-4.08 5.48-6.46 7.82-10.03-4.4-.7-8.4 2.03-10.9 5.42-3.19 4.08-5.24 9.21-5.11 14.43-.09 3.74 2.72 6.47 4.45 9.49-4.46-2.14-5.91-7.06-6.48-11.59-3.01 6.77-3 14.48-1.24 21.58-2.6-1.83-2.58-5.25-3.37-8.03-1.06 3.38-.2 6.9.89 10.13-1.87 5.41 1.8 10.46 5.74 13.77-.03.22-.11.65-.14.87C22.86 84.94 21.36 74.95 21.15 67c-1.3 2.97-1.02 6.24-.94 9.4-2.53-3.23-1.55-7.45-1.22-11.18.66-6.32 3.68-12.02 7.16-17.21-3.13.89-7.27 1.8-9.54-1.3 3.36.37 7.2.18 9.68-2.45 3.41-3.67 5.42-8.61 9.78-11.39z"/>
    </g>
    <path fill="#fcfcfc" d="M85.29 41.04c7.97 5.76 9.18 16.96 6.76 25.84-1.5 6.71-8.55 10.91-8.81 18.01-.3 4.89 2.72 9.6 7.35 11.28-4.53 1.42-8.21-3.17-9.77-6.89-2.29-5.67 1.54-11.16 5.08-15.27-1.05.57-3.14 1.71-4.19 2.28 3.58-3.04 7.71-6.26 8.35-11.26-3.78-.27-6.11 2.81-7.38 5.95-.2-5.76 6.13-8.44 6.9-13.83 1.26-5.78-1.64-11.21-4.29-16.11z"/>
</svg>
