<svg width="128pt" height="128pt" viewBox="0 0 128 128" xmlns="http://www.w3.org/2000/svg">
    <g fill="#fff">
        <path d="M57.43 29.05c3.55-1.08 7.31-2.18 10.91-.59 3.13.2 4.65 3.26 6.95 4.95.58 2.13 1.07 4.28 1.58 6.43-4.01-2.18-8.32-4.06-12.87-4.66-4.55.61-8.86 2.47-12.86 4.65.5-2.14.99-4.29 1.57-6.42 1.65-1.38 3.04-3.03 4.72-4.36z"/>
        <path d="M47.72 43.73c6.57-6.75 17.58-9.21 26.05-4.6 7.53 3.25 12.25 11.42 12.07 19.52-5.16 1.11-10.62 1.4-15.36 3.97-2.14.9-3.97 2.77-6.43 2.7-2.74.08-4.75-2.08-7.18-3.01-4.58-2.33-9.78-2.57-14.71-3.66-.19-5.51 2.06-10.75 5.56-14.92zM41.89 60.8c1.65.06 3.29.17 4.93.31-.16 10.29.61 20.55 1.31 30.81.16 6.09 1.74 11.96 3.89 17.63-4.82-4.12-7.49-10.31-8.12-16.54-1.25-10.69-2.65-21.43-2.01-32.21zm39.29.31c1.64-.14 3.28-.25 4.92-.32.64 10.79-.74 21.54-2.01 32.23-.61 6.23-3.3 12.4-8.1 16.54 1.12-3.93 2.96-7.69 3.3-11.82 1.23-12.17 1.83-24.4 1.89-36.63z"/>
        <path d="M47.46 61.16c3.03.67 6.02 1.51 8.94 2.56-.02 8.14-.27 16.3.16 24.43.1-8.07.08-16.14.26-24.2 2.32 1.02 4.52 2.82 7.18 2.67 2.67.15 4.88-1.64 7.18-2.71.34 8.12-.05 16.27.39 24.39.09-8.19.22-16.38.02-24.57 2.92-1.06 5.91-1.9 8.95-2.57.44 9.92-.07 19.88-.85 29.77-.53 6.09-1.35 12.5-5.11 17.54-2.66 3.02-6.34 4.81-9.52 7.18-3.35-.03-5.82-2.68-8.49-4.36-5.9-4.03-7.44-11.65-8.07-18.31-.97-10.57-1.58-21.21-1.04-31.82z"/>
    </g>
</svg>
