<svg width="128pt" height="128pt" viewBox="0 0 128 128" xmlns="http://www.w3.org/2000/svg">
    <g fill="#fff">
        <path d="M56.14 22.39c1.69-2.28 3.67-5.04 6.86-4.94 3.56-.62 6.54 1.84 7.99 4.87 9.72 1.37 14.74 13.61 9.69 21.75.38.45 1.12 1.36 1.49 1.81 3.51-.78 7.07-2.21 10.71-1.29 5.91.85 10.85 5.56 11.97 11.43 2.71 1.75 4.95 4.58 4.69 7.99.39 3.13-2.28 5.22-4.86 6.27-.92 4.17-3.26 8.18-7.09 10.27-3.27 2.05-7.34 1.91-11.02 1.42.25 1.35-.06 2.57-1.21 3.4l-2.19-1.98c.8-.82 1.59-1.64 2.37-2.47-1.63-.22-3.28-.28-4.92-.15.75 3.36 2.42 6.63 2 10.16-.3 5.61-3.89 11.39-9.54 12.85-3.84.23-4.26 5.58-8.12 5.76-3.75.82-6.46-2.17-8.28-4.99-6.16-1.04-11.3-6.37-11.95-12.6-.45-2.67.65-5.36-.12-8L43.15 85c-3.17.04-1.38-3.33.7-3.2.69 1.09 1.38 2.18 2.08 3.27.78-1.92 1.06-3.81-.64-5.26-3.69 2.16-8.15 3.16-12.35 2.05-5.35-1.15-10.03-5.75-10.34-11.38-2.32-1.57-5.06-3.33-5.41-6.38-.67-3.64 2.42-6.4 5.35-7.87 1.29-6.02 5.82-11.72 12.31-12.18 3.98-.9 7.38 2.01 11.28 1.87.92-2.5-1.44-4.55-1.51-7.01-.54-4.9.96-10.32 4.7-13.69 1.89-1.74 4.71-1.63 6.82-2.83m2.49 2.16c-6.28.35-11.4 6.2-11.06 12.43-.03 3.15 2.87 5.05 4.35 7.53 1 1.55 3.12.41 4.56.32-1.65-.54-4.53-.39-4.37-2.9-.32-1.46 1.39-3.32 2.88-3.1 3.83-.23 6.27 5.73 2.73 7.91-2.63 2.29-6.07 1.15-8.96.11-2.69.7-.75 3.37-.61 5.14 1.56 4.35-4.25 8.81-7.89 5.75-2.45-2.04-1.17-6.12 1.95-6.64 2.27.71 2.14 3.35 2.67 5.21.35-1.39.58-2.8.63-4.24-1.35-.81-2.62-1.75-3.59-3.02-1.31-1.87-3.92-1.75-5.95-1.77-5.03 0-9.59 3.87-10.76 8.7-.16 3.1-4.01 3.41-4.98 6.06-.06 1.19-.02 2.39.13 3.58 1.58.99 3.22 1.9 4.65 3.09.08 6.18 5.95 10.99 11.97 10.62 2.22-.28 5.44-.43 5.59-3.34 3.52-.1 3.72-4.44.98-5.86.4 1.12.82 2.24 1.26 3.35-1.06.72-2.16 1.4-3.32 1.96-4.34-1.94-2.06-8.38 2.46-7.66 4.83.25 5.24 6.56 3.24 9.86l1.73 2.17c2.27-.91 4.89-2.32 7.33-1.09 2.21.92 2.59 3.54 3.34 5.52-.31.61-.95 1.82-1.26 2.42-2.13 1.02-6.25 1.47-6.44-1.8-.44-2.42 2.77-2.49 4.39-2.76-3.2-2.22-5.44 1.62-7.79 3.28-1.32 4.1-1.17 8.99 1.65 12.45 1.94 2.7 5.26 3.72 8.37 4.37 1.21 3.18 4.19 5.15 7.63 4.41.73-1.38 1.36-2.84 2.32-4.08 1.6-.89 3.51-.93 5.1-1.83 4.43-2.32 6.89-7.69 5.88-12.58-.07-2.8-2.71-4.36-4.31-6.35-1.45-1.5-3.27-.02-4.61.79.92-.05 2.75-.16 3.67-.21L75.88 85c-.51.58-1.52 1.76-2.02 2.35-1.52.05-3.3.54-4.51-.71-2.4-1.94-1.37-5.93 1.2-7.25 2.37-1.78 5.35-.67 7.74.43 2.44-1.42 1.07-3.89.59-6.04-.53 1.07-1.06 2.13-1.56 3.21-2.22-1.85-4.17-3.99-5.89-6.31 2.44.75 4.42 2.35 5.91 4.41 1.29-2.38 1.72-5.83 4.7-6.73 2.3-1.07 5.76-.13 6.08 2.7.99 3.22-4.52 3.61-3.12 7 2.87.95 6.01 1.77 8.98.68 4.75-1.27 7.79-5.88 8.47-10.57 1.67-1.02 4.51-1.63 4.3-4.14.32-2.8-1.87-4.71-4.21-5.67-.87-5.33-4.86-10.47-10.5-11-2.59-.14-6.42-.45-7.27 2.73-.95.62-1.95 1.17-2.86 1.84-.83 1.1-.02 2.49.11 3.68.4.07 1.18.2 1.58.27-2.45-2.23-.48-4.97 2.44-4.5 3.12 1.95 1.74 6.11-1.35 7.15-2.94 1.55-6.2-1.63-5.83-4.61.51-2.36 1.78-4.64 1.22-7.12-2.98.36-6.1 2.34-9.03.76-2.99-1.19-4.38-5.8-1.54-7.88 2.92-2.15 8.81 1.74 4.66 4.52-1.18.09-2.36.23-3.53.42 2.26 1.23 5.24.83 6.19-1.81 3.73-2.54 2.89-7.49 2.15-11.26-1.23 1.35-1.66 3.12-2.13 4.83-1.93-.27-3.88-.41-5.83-.47-1.35 1.23-2.69 2.48-4.03 3.72.74-4.25 3.16-8.35 7.54-9.6 1.25.53 2.52 1 3.82 1.41-1.28-3.26-4.17-5.53-7.57-6.23-3.25-.37-3.39-5.05-6.77-5.26-2.87-.49-4.1 2.65-5.38 4.6m23.9 46.23c-.37.44-1.13 1.32-1.5 1.76.62 1.27 1.4 2.46 2.33 3.53.06-1.23-.51-2.31-1.13-3.32.37-.53 1.12-1.57 1.49-2.09l-1.19.12z"/>
        <path d="M61.67 25.67c.65-1.18 1.34-2.34 2.12-3.43.66 1.07 1.3 2.17 1.91 3.27l3.19.66c-1.58 2.33-3.5 4.55-4.24 7.32-.74 2.85.43 6.06-1.32 8.64-.56-3.2.11-6.58-1.05-9.67-.83-2.41-2.52-4.34-3.81-6.49.8-.08 2.4-.22 3.2-.3z"/>
        <path d="M55.8 27.88c3.14 1.35 4.47 4.58 5.62 7.54-1.63-2.71-4.72-4.4-5.62-7.54zm10.35 6.43c.94-2.89 2.83-5.5 5.86-6.38-1.53 2.47-3.54 4.64-5.86 6.38zm-15.97 1.81c-.15-1.74-2.02-5.08.91-5.46 5.17-1.42 8.14 4.23 9.18 8.38-2.77-2.51-6.35-3.77-10.09-2.92zm33.73 8.2c-1.01-2.24.13-4.22 2.69-3.64.75 1.85-1.66 2.65-2.69 3.64zm-41.99-1.16c-2.06-1.43 1.58-2.58 2.71-2.18-.43 1.13-1.15 3.9-2.71 2.18zm17 5.4c2.91 1.25 3.56-2.29 5-3.96.56 1.4 1.13 2.79 1.69 4.18.71-.09 2.12-.27 2.83-.37.88 3.54-1.35 8.81-5.65 8.02-3.21-1.26-3.76-4.86-3.87-7.87zm-2.62 6.17c-2.63-1.45-5.78-3.06-6.29-6.35 2.69 1.44 4.79 3.72 6.29 6.35zm15.54 0c1.78-2.44 3.54-5.42 6.78-6-1.57 2.67-3.84 4.91-6.78 6zm19.05-4.84c1.43-.37 2.84-.78 4.26-1.17.62 1.22 1.25 2.44 1.9 3.66-.48.77-1.43 2.31-1.91 3.08 1.21.36 2.43.69 3.65 1.02-1.33 1.32-2.76 2.54-4.3 3.6-.37-.98-.76-1.96-1.16-2.93-1.51 1.21-3.22 2.07-5.11 2.59 2.37-2.74 3.23-6.31 2.67-9.85zm-60.44 1.13c1.28-2.1 3.79-1.94 5.89-1.59-.94 3.7.14 7.42 2.55 10.3-1.8-.59-3.5-1.39-5.11-2.39-.49.57-.99 1.14-1.49 1.71l2.19.93c-3.23.44-5.47-2.61-6.61-5.23 1.34.62 2.43 1.54 3.28 2.75.5-.42 1.01-.85 1.52-1.27-1.26-1.46-2.74-3.12-2.22-5.21zm28.7 11.01c-1.37-1.85-1.66-4.56 1.05-5.2 1.2.62 2.18 2.95 3.81 2.02 2.13-.3 5.54-3.27 6.42.16-.57 1.42-1.67 2.54-2.49 3.81l-.87-1.89c-2.74-1.51-5.47-.37-7.92 1.1z"/>
        <path d="M94.03 62.16c2.59-.49 4.5-2.44 6.24-4.27.86 2.29 2.3 4.18 4.29 5.6-1.01.59-2.03 1.17-3.05 1.74l-.52 3.24c-4.3-4.29-10.58-4.26-16.16-5.2 2.93-1.25 6.15-.55 9.2-1.11zm-68.43-.88c.33-1.16.66-2.32 1.01-3.47 3.59 5.38 10.51 3.9 15.85 5.65-2.45.68-4.99.6-7.5.66-3.38.17-5.89 2.71-8.71 4.25-.13-.74-.4-2.2-.54-2.94-.95-.74-2.35-1.14-2.79-2.38.87-.63 1.76-1.22 2.68-1.77zm23.31-2.57c3.2-.04 7.54.71 8.52 4.29.14 3.83-4.37 5.48-7.56 5.59.23-2.78-2.58-3.69-4.06-5.48 1.34-.43 2.69-.84 4.04-1.24-.32-1.05-.63-2.1-.94-3.16zm21.7 5.24c.4-4.22 5.06-5.44 8.61-5.21l-.8 2.75c1.36.78 2.8 1.39 4.21 2.09-1.55 1.48-5 1.89-3.98 4.78-3.26.5-6.89-1.21-8.04-4.41zm-8.09-1.44c1.32-1.78 4.23.28 2.94 2.09-1.43 1.77-4.69-.03-2.94-2.09z"/>
        <path d="M58.17 69.34c-.33-1.81.36-3.47 1.11-5.08 1.84 3.64 7.59 3.95 8.97-.23 1.38 1.73 2.71 3.66.76 5.53-3.33-2.22-7.27-.76-10.84-.22zm-30.32 2.18c1.29-2.58 3.46-4.53 6.19-5.47-1.66 2.23-3.5 4.49-6.19 5.47zm65.25-5.39c2.73.78 5.01 2.58 5.96 5.33-2.51-1.11-4.23-3.29-5.96-5.33zm-4.76.85c2.92.99 6.39 1.97 7.72 5.08 1.02 1.84.16 3.86-.73 5.54-1.5-.35-3-.68-4.5-1.01.6-3.45-.29-6.88-2.49-9.61zm-58.12 7.98c.51-4.42 4.47-7.4 8.69-7.97-2.54 2.73-3.44 6.43-2.5 10.03-2.27.38-5.22.56-6.19-2.06zm19.56 2.37c.91-3.5 4.08-5.37 7.07-6.9-1.9 2.7-3.99 5.47-7.07 6.9zm9.24.23c-.59-3.87 1.83-7.77 5.99-7.81 3.21 1.79 4.01 5.63 3.32 9.01-.62-.4-1.88-1.22-2.51-1.63-.57 1.57-1.13 3.14-1.77 4.68-1.55-1.58-2.28-4.6-5.03-4.25zm4.36 6.9c1.59 5.28.6 11.97 5.56 15.68-1.09.42-2.18.8-3.28 1.17-.52.96-1.08 1.88-1.67 2.79-1.19-.6-1.74-1.81-2.31-2.93-1.15-.24-2.3-.52-3.43-.82 1.63-2 3.71-3.84 4.22-6.5.51-3.1.41-6.28.91-9.39zm3.82 2.79c2.29 2.96 5.99 4.34 9.64 3.1.47 1.39.95 2.79 1.43 4.19-2.14 2-5.57 2.36-7.5-.18-.43.5-.87.99-1.31 1.48 1.12.66 1.94 1.6 2.49 2.79-3.02-.82-4.83-3.6-5.54-6.5.43.61 1.28 1.84 1.71 2.45.51-.46 1.03-.93 1.54-1.38-1.55-1.64-2.01-3.82-2.46-5.95z"/>
        <path d="M50.3 90.51c3.66.7 7.28-.34 9.96-2.92-.99 2.93-1.89 6.47-5.14 7.69 1.19.26 2.36.6 3.53.93l-1.08-.36c1.25-1.37 2.45-2.79 3.71-4.16-.65 3.21-2.69 6.23-6.07 6.9.44-.52 1.32-1.57 1.76-2.09-2.54-.79-5.27-.29-7.78-1.25.31-1.59.7-3.17 1.11-4.74z"/>
    </g>
</svg>
