<svg width="128pt" height="128pt" viewBox="0 0 128 128" xmlns="http://www.w3.org/2000/svg">
    <path fill="#ad2121" d="M55.99 22.42c1.88-2.62 4.31-5.75 7.99-5.01 3.31-.44 5.64 2.21 7.06 4.83 5.41.92 9.63 5.17 11.34 10.26.45 4.21-.72 8.29-1.36 12.41.26.25.8.75 1.06 1.01 4.48-.99 9.06-2.04 13.62-.78 4.62 1.74 8.17 5.76 9.16 10.62 2.39 2.2 5.32 4.67 4.75 8.33.45 3.1-2.29 4.99-4.72 6.16-1.21 4.1-3.3 8.33-7.26 10.39-3.3 2.03-7.28 1.88-10.99 1.6 1.04 3.14-2.51 3.2-3.65.96.59-.52 1.79-1.55 2.38-2.06-.95-.15-2.86-.43-3.82-.58-.99 3.17 1.59 6.22 1.16 9.47.27 7.01-5 13.4-11.88 14.6-1.36 1.64-2.73 3.26-4.12 4.88-1.82.01-3.7.28-5.47-.27-2.86-1.06-3.69-4.78-6.89-5.28-6.99-2.05-11.19-10.08-9.49-17.03.43-1.88 1.57-3.56 1.73-5.5-1.14-2.27-4.19-.83-4.68 1.18l-.48-1.05c-5.69 1.96-12.67.29-16.4-4.56-1.66-1.92-2.08-4.5-2.85-6.84-2.26-1.44-5.02-3.13-5.02-6.17-.68-3.68 2.46-6.18 5.22-7.89 1.37-5.38 4.92-10.66 10.69-11.82 4.34-1.63 8.39 1.25 12.65 1.51 1.1-1.35.02-2.79-.38-4.16-2.09-5.13-.52-11.22 2.88-15.43 1.9-2.37 5.07-2.82 7.77-3.78z"/>
    <path fill="#260707" opacity=".45" d="M82.38 32.5c1.31 2.89.81 6.04.24 9.04 1.29-.57 2.59-1.15 3.88-1.72l.12 1.13c-.63.02-1.9.07-2.53.09-1.53 2.89 2.35 2.98 2.84.43-.16.6-.5 1.8-.66 2.4 3.17-.09 6.64-.66 9.43 1.27-4.56-1.26-9.14-.21-13.62.78-.26-.26-.8-.76-1.06-1.01.64-4.12 1.81-8.2 1.36-12.41z"/>
    <path fill="#6f1516" opacity=".79" d="M42.32 43.95c-3.14-1.37.5-4.03 2.58-3.39-.31 1.53-.57 3.49-2.58 3.39z"/>
    <path fill="#991e1c" opacity=".93" d="M84.09 41.04c.63-.02 1.9-.07 2.53-.09l.31.52c-.49 2.55-4.37 2.46-2.84-.43z"/>
    <path fill="#941e1d" opacity=".93" d="M41.91 82.61c1.22-1.36 3.6.6 2.06 1.89-1.19 1.36-3.44-.61-2.06-1.89z"/>
</svg>
