<svg width="128pt" height="128pt" viewBox="0 0 128 128" xmlns="http://www.w3.org/2000/svg">
    <g fill="#c6282c">
        <path d="M62.24 11.09c1.8-1.98 2.67 1.2 3.34 2.42-2.38 1.6-4.56 3.54-5.8 6.19 1.3.25 2.61.51 3.91.77-.17 1.3-.33 2.6-.56 3.9-1.14 4.38-2.37 8.77-4.15 12.95-1.5-1.75-3.13-3.41-4.44-5.3-1.05-3.74-.59-7.91.96-11.44 1.94-3.37 4.58-6.27 6.74-9.49z"/>
        <path d="M29.87 32.92c6.28 2.25 11.87-2.72 18.11-2.09 6.97-.36 11.67 6.97 12.03 13.2l-.68.64c-2.18-4.13-5.89-8.38-10.98-8.33 2.27 1.61 4.47 3.32 6.46 5.27.01.63.04 1.9.06 2.53.01.43.04 1.29.05 1.71-2.18 2.9-4.93 5.56-8.53 6.5-5.12 1.31-11.29.05-14.69-4.22-2.98-3.84-4.67-8.58-4.95-13.42l-.1-.82c.43-.19 1.28-.58 1.71-.77l1.51-.2m-.8 4.39c-1.02.95.15 3.45 1.55 2.55 1-.95-.15-3.43-1.55-2.55zm58.38 25.24l.46.65c.48.19 1.45.59 1.94.79 5.79 1.17 13.07 3.61 15.18 9.84.24.86.47 1.72.69 2.59-.58 1.08-1.22 2.13-1.91 3.14 1.41.07 2.83.12 4.24.17l.68 2.51c.31.44.92 1.3 1.23 1.73l.42 1.1.26 1.43c-1.46-.5-2.92-1-4.38-1.51l.21-2.72c-.19-.27-.58-.8-.77-1.06-.26.4-.78 1.19-1.05 1.59-2.54-1.93-5.24-3.61-7.91-5.34-2.67-4.65-6.68-8.29-11.79-10.04.82-1.63 1.65-3.25 2.5-4.87z"/>
        <path d="M81.87 74.8c4.07 1.95 8.22 3.76 12.66 4.66 3.81.8 7.13 2.93 9.97 5.52-.74.65-1.48 1.31-2.22 1.97.43.18 1.29.55 1.72.74l2.88-1.86c.37 1.09.75 2.17 1.12 3.26 1.43-.51 2.86-1.02 4.29-1.52.63 2.86-1.95 3.27-4.04 3.69-1.28-.7-2.55-1.39-3.82-2.07-.26.19-.79.57-1.05.76.33.43.97 1.3 1.3 1.74-4.62.9-9.64-1.29-12.26-5.2-3.1-4.27-6.97-7.85-10.55-11.69z"/>
    </g>
    <path fill="#b32426" d="M59.78 19.7c1.24-2.65 3.42-4.59 5.8-6.19.28.43.84 1.3 1.12 1.74.09 2.17 1.2 4.27 1.03 6.42-1.08 1.46-2.32 2.79-3.52 4.16-.27-.37-.81-1.1-1.08-1.46.23-1.3.39-2.6.56-3.9-1.3-.26-2.61-.52-3.91-.77z"/>
    <path fill="#c6292e" d="M67.73 21.67c.17-2.15-.94-4.25-1.03-6.42 2.75 2.62 5.23 5.73 6.32 9.44.05 2.31.24 4.67-.23 6.94-.86 1.8-2.23 3.28-3.42 4.84-.44-.25-1.33-.76-1.77-1.02-1.09-3.22-1.41-6.75-3.39-9.62 1.2-1.37 2.44-2.7 3.52-4.16z"/>
    <path fill="#721716" d="M63.13 24.37c.27.36.81 1.09 1.08 1.46 1.98 2.87 2.3 6.4 3.39 9.62.44.26 1.33.77 1.77 1.02l1.15-.32c-.08.09-.26.29-.35.38-2.16 1.2-3.72 3.87-6.34 3.9-.07-.9-.2-2.71-.27-3.61-.15 1.29-.29 2.58-.43 3.87-1.73-.64-2.95-2.03-4.15-3.37 1.78-4.18 3.01-8.57 4.15-12.95z"/>
    <path fill="#370b0b" opacity=".65" d="M73.02 24.69c1.02 2.24 1.14 4.67.63 7.07l1.13-.16c-1.52 1.42-2.83 3.03-4.26 4.55l-1.15.32c1.19-1.56 2.56-3.04 3.42-4.84.47-2.27.28-4.63.23-6.94z"/>
    <path d="M74.78 31.6c5.1-3.1 11.55-1.91 16.49.91.06.02.17.07.23.09 2.08 1.13 4.37.79 6.55.29.37.08 1.1.25 1.46.33 2.26 5.59-1.82 14.29-8.5 13.24.82-1.9 1.68-3.77 2.56-5.64-.64.68-1.27 1.36-1.91 2.04-.53-.5-1.06-1-1.6-1.49-.67 2.11-2.52 4.98.35 6.45-4.14 2.58-9.69 3.98-14.03 1.01-2.56-.99-2.4-3.98-3.01-6.21 2.34-2.23 4.84-4.58 8.2-5.06 3.84-.7 7.76-.59 11.65-.61-.01-.33-.02-1-.03-1.34-3.29.36-6.61.43-9.91.39.01-.54.05-1.61.07-2.14-1.51 1-3.02 2-4.55 2.95-.79.48-1.6.92-2.41 1.37-3.16.07-6.33.7-8.29 3.46.69-1.7 1.31-3.43 2.07-5.11.09-.09.27-.29.35-.38 1.43-1.52 2.74-3.13 4.26-4.55m19.51 5.55c-1.48.05-1.87 2.73-.24 2.85 1.5-.02 1.87-2.74.24-2.85zM69.97 68.72l1.34-1.14c.11.56.33 1.68.44 2.23.05.26.16.78.22 1.03-1.2 1.74-2.43 3.44-3.68 5.14.05-1.47.13-2.94.22-4.41l.12-.63c1.64 1.38 3.44-1.49 1.34-2.22z" fill="#c0252c"/>
    <path fill="#150506" opacity=".55" d="M28.2 32.29l.73-.57.86.36.08.84-1.51.2-.16-.83z"/>
    <path fill="#030500" opacity=".49" d="M91.27 32.51c.06.02.17.07.23.09-.06-.02-.17-.07-.23-.09z"/>
    <path fill="#731821" d="M98.05 32.89c.77-.08 1.54-.15 2.31-.22 2.36 5.66-.21 12.22-4.41 16.3-3.05 3.54-6.98 7.11-11.99 6.91-3.24-.86-6.32-2.34-9.26-3.96-2.25-2.49-3.94-6.44-1.33-9.3.61 2.23.45 5.22 3.01 6.21 4.34 2.97 9.89 1.57 14.03-1.01-2.87-1.47-1.02-4.34-.35-6.45.54.49 1.07.99 1.6 1.49.64-.68 1.27-1.36 1.91-2.04-.88 1.87-1.74 3.74-2.56 5.64 6.68 1.05 10.76-7.65 8.5-13.24-.36-.08-1.09-.25-1.46-.33z"/>
    <path fill="#51110f" opacity=".95" d="M78.8 36.81c1.53-.95 3.04-1.95 4.55-2.95-.02.53-.06 1.6-.07 2.14 3.3.04 6.62-.03 9.91-.39.01.34.02 1.01.03 1.34-3.89.02-7.81-.09-11.65.61-.69-.18-2.08-.56-2.77-.75z"/>
    <path d="M33.18 53.74c-3.57-5.64-8.27-11.95-6.43-19.03.28 4.84 1.97 9.58 4.95 13.42 3.4 4.27 9.57 5.53 14.69 4.22 3.6-.94 6.35-3.6 8.53-6.5.02.42.07 1.24.09 1.65.04 1.43.18 3.3-1.3 4.13-2.56 1.79-5.03 3.73-7.67 5.4-4.4.56-9.81.44-12.86-3.29zm21.99 12.95l.66-1.3.2 2.57c-.18 1.66.57 2.37 2.23 2.13 2.09 3.01 3.13 6.6 5.27 9.59-.46.15-1.38.43-1.84.58-.42-.6-1.26-1.81-1.67-2.41l.08-.41c-1.62-2.72-4.43-4.92-4.97-8.15-.01-.86.01-1.73.04-2.6m3.11 5.52c.54.55.54.55 0 0zm46.75 1.62c1.11 1.91 2.06 3.91 3.02 5.9-1.41-.05-2.83-.1-4.24-.17.69-1.01 1.33-2.06 1.91-3.14-.22-.87-.45-1.73-.69-2.59z" fill="#7b181d"/>
    <path fill="#2f0a0a" opacity=".66" d="M48.35 36.34c5.09-.05 8.8 4.2 10.98 8.33-1 1-1.99 2.02-2.95 3.06-.19-1.63-.49-3.25-.83-4.85-.17.31-.51.95-.68 1.26-.02-.63-.05-1.9-.06-2.53-1.99-1.95-4.19-3.66-6.46-5.27z"/>
    <path fill="#1d0607" opacity=".55" d="M76.39 38.18c.81-.45 1.62-.89 2.41-1.37.69.19 2.08.57 2.77.75-3.36.48-5.86 2.83-8.2 5.06-2.61 2.86-.92 6.81 1.33 9.3-.71-.24-2.15-.72-2.86-.96-.37-1.46-.89-2.89-1.39-4.31l-.04-2.83c1.86-2.02 3.89-3.87 5.98-5.64z"/>
    <path fill="#951a1b" d="M29.07 37.31c1.4-.88 2.55 1.6 1.55 2.55-1.4.9-2.57-1.6-1.55-2.55z"/>
    <path fill="#95201f" d="M94.29 37.15c1.63.11 1.26 2.83-.24 2.85-1.63-.12-1.24-2.8.24-2.85z"/>
    <path fill="#75171c" d="M68.1 41.64c1.96-2.76 5.13-3.39 8.29-3.46-2.09 1.77-4.12 3.62-5.98 5.64-.78-.71-1.55-1.44-2.31-2.18z"/>
    <path fill="#3b0c0d" opacity=".73" d="M54.87 44.14c.17-.31.51-.95.68-1.26.34 1.6.64 3.22.83 4.85.07.46.22 1.38.29 1.84.73.27 2.18.8 2.9 1.07.3 1.17.38 2.38.41 3.59l-.68.78c-.14-1.48.27-3.23-1.28-4.06-.52.32-1.55.95-2.07 1.26-.29-1.57-.66-3.13-.94-4.71-.02-.41-.07-1.23-.09-1.65-.01-.42-.04-1.28-.05-1.71z"/>
    <path fill="#b72426" d="M60.01 44.03c3.6-1.88 8.13-.71 10.44 2.62.5 1.42 1.02 2.85 1.39 4.31l-.19 1.24c-.46-.51-1.37-1.52-1.83-2.02-1.12 1.6-1.92 3.39-.36 5.06-1.33.88-2.67 1.74-4.06 2.52l-.66.36c.01-1.34.03-2.68.04-4.02-.3-.03-.91-.07-1.21-.1-.1 1.67-.5 3.29-1.56 4.61-.42-.61-1.27-1.83-1.7-2.44.27 1.7.52 3.41.8 5.12.64.29 1.93.88 2.58 1.18-2.74.84-5.3-.5-6.88-2.75-.78-1.08-1.11 1.57-1.61 1.43-.21-.54-.64-1.61-.86-2.14-.76-.93-2.28-2.8-3.05-3.74 1.48.41 4.42 1.21 5.89 1.62l.4.06.28-.32c.36-.41 1.08-1.22 1.44-1.62l.68-.78c-.03-1.21-.11-2.42-.41-3.59-.72-.27-2.17-.8-2.9-1.07-.07-.46-.22-1.38-.29-1.84.96-1.04 1.95-2.06 2.95-3.06l.68-.64z"/>
    <path fill="#490f11" opacity=".67" d="M63.57 54c.3.03.91.07 1.21.1-.01 1.34-.03 2.68-.04 4.02l-.01.46c-1.77.17-3.27.74-3.62 2.71-.28-1.71-.53-3.42-.8-5.12.43.61 1.28 1.83 1.7 2.44 1.06-1.32 1.46-2.94 1.56-4.61z"/>
    <path fill="#541214" opacity=".85" d="M69.46 55.24c.9.74 1.78 1.51 2.67 2.27l-1.32 1.12c.48.34 1.43 1.01 1.9 1.35.3.21.89.63 1.18.84-.37 1.37-.63 2.77-.8 4.18-.83-.89-1.66-1.8-2.62-2.56.12-.6.34-1.79.46-2.38-.94-1.16-1.88-2.31-2.83-3.47-.5 1.43-.97 2.87-1.52 4.28-.29-.78-.88-2.33-1.18-3.11 1.39-.78 2.73-1.64 4.06-2.52z"/>
    <path fill="#120305" opacity=".45" d="M74.23 55.17c1.39-.51 2.04-.01 1.94 1.5l-.64.23c-.33-.26-1.01-.78-1.35-1.03l.05-.7z"/>
    <path opacity=".4" d="M57.18 56.89c.17-.07.51-.2.68-.26l-.28.32-.4-.06z"/>
    <path d="M72.13 57.51c.51-.41 1.54-1.23 2.05-1.64.34.25 1.02.77 1.35 1.03-1.33.64-2.15 1.82-2.82 3.08-.47-.34-1.42-1.01-1.9-1.35l1.32-1.12zm-4.03-.92c.95 1.16 1.89 2.31 2.83 3.47-.12.59-.34 1.78-.46 2.38-.99-.17-1.98-.3-2.97-.43-.63.44-1.87 1.33-2.49 1.78l-.8-1.38c.6-.38 1.78-1.16 2.37-1.54.55-1.41 1.02-2.85 1.52-4.28zM50.5 86.76c2.26.64 4.53 1.3 6.71 2.19-.51 2.18-1.01 4.36-1.52 6.53-.75-.37-1.51-.74-2.26-1.11l-1.11 4.37c1.18.81 2.37 1.61 3.56 2.41-.23 1.17-.47 2.33-.7 3.49-1.8-1.98-3.55-4.02-5.43-5.93-.52-4-.1-8.02.75-11.95z" fill="#bd272c"/>
    <path opacity=".13" d="M64.73 58.58l.01-.46.66-.36c.3.78.89 2.33 1.18 3.11-.59.38-1.77 1.16-2.37 1.54-.13.02-.39.04-.52.06-.65-.3-1.94-.89-2.58-1.18.35-1.97 1.85-2.54 3.62-2.71z"/>
    <path fill="#360b0c" opacity=".71" d="M54.34 59.01c.22.53.65 1.6.86 2.14.5.14.83-2.51 1.61-1.43 1.58 2.25 4.14 3.59 6.88 2.75.13-.02.39-.04.52-.06l.8 1.38c.62-.45 1.86-1.34 2.49-1.78.99.13 1.98.26 2.97.43.96.76 1.79 1.67 2.62 2.56-.15 1.66.13 3.62-1.34 4.81-.11-.55-.33-1.67-.44-2.23.26-1.17.12-2.27-.42-3.3-1.87-1.07-2.2 2.21-3.32 3.15.63-1.28.63-2.52 0-3.73l-.61.77c-1.9.57-3.88.4-5.82.31-.15.96-.44 2.86-.59 3.82-.58-.8-1.07-1.65-1.47-2.55 1.93-.58 1.06-4.27-.45-1.82-1.16-.66-2.32-1.31-3.47-1.97.25 1.04.55 2.06.67 3.13l-.66 1.3c-.17-.48-.5-1.45-.67-1.93-1-1.81-.42-3.84-.16-5.75z"/>
    <path fill="#771617" d="M78.11 62.09c3.07-.88 6.29-.12 9.34.46-.85 1.62-1.68 3.24-2.5 4.87 5.11 1.75 9.12 5.39 11.79 10.04-5.95 1.65-10.5-2.97-15.03-5.92-2.44-1.64-6.81-2.78-6.49-6.46-.13-1.65 1.57-2.52 2.89-2.99z"/>
    <path fill="#3e0e10" opacity=".73" d="M39.33 63.12c.42-.02 1.27-.04 1.7-.06-.45.23-1.36.69-1.81.93l.11-.87z"/>
    <path fill="#cb282e" d="M41.03 63.06l.07-.17c1.21 1.67 2.42 3.35 3.63 5.03-2.93 1.55-6.23 2.74-8.4 5.38-1.57 1.8-2.94 3.77-4.49 5.59-3.54 2.18-7.24 4.28-9.87 7.59-.65.01-1.95.04-2.6.05-.37.4-1.09 1.19-1.45 1.59 1.08.49 2.15.99 3.23 1.48.24-.56.72-1.67.97-2.23 2.77-1.65 5-4.1 7.85-5.61 3.9-1.6 8.15-2.41 11.66-4.89 1.59-.98 3.21-1.93 4.83-2.88.54 2.18-1.61 3.34-2.96 4.58-3.04 2.29-5.86 4.89-8.17 7.93-1.96 2.62-5.04 3.9-7.71 5.62l-.76.45c-3.45-.47-6.92-.88-10.4-1.07-.65-1.27-.74-2.78.24-3.92 3.6-5.64 4.57-12.67 8.83-17.92.03-.02.08-.07.11-.1 2.31-1.48 4.77-3.16 7.53-3.52.47-.24 1.4-.72 1.87-.97 1.29-.6 2.71-1.27 4.18-1.08.45-.24 1.36-.7 1.81-.93M27.49 86.18c-.59 1.2 1.17 2.93 2.37 2.33.85-1.26-1.13-3.14-2.37-2.33m-3.71 1.71l.16 3.36c1.43-.28 2.76-.85 3.99-1.62-1.38-.6-2.76-1.17-4.15-1.74z"/>
    <path fill="#761717" d="M41.1 62.89c3.23-.39 6.66-1.3 9.81.02 2.27.89 1.94 4.16.17 5.4-3.01 2.6-6.01 5.32-9.64 7.05-3.11 1.4-6.39 2.38-9.6 3.53 1.55-1.82 2.92-3.79 4.49-5.59 2.17-2.64 5.47-3.83 8.4-5.38-1.21-1.68-2.42-3.36-3.63-5.03z"/>
    <path fill="#bb2529" d="M58.63 64.23c1.51-2.45 2.38 1.24.45 1.82-.12-.46-.34-1.37-.45-1.82z"/>
    <path fill="#3f1011" opacity=".71" d="M87.91 63.2l1.79-.08.15.87c-.49-.2-1.46-.6-1.94-.79z"/>
    <path fill="#c5272c" d="M67.57 63.7c.63 1.21.63 2.45 0 3.73-.15-.74-.46-2.22-.61-2.96l.61-.77z"/>
    <path fill="#4b0f13" opacity=".72" d="M33.26 65.14l.96-.5.82.43c-.47.25-1.4.73-1.87.97l.09-.9z"/>
    <path fill="#060101" opacity=".31" d="M54.5 64.76c.17.48.5 1.45.67 1.93-.03.87-.05 1.74-.04 2.6l-.88.43c-2.68 1.26-5.26 2.73-7.79 4.27-1.62.95-3.24 1.9-4.83 2.88l-.19-1.51c3.63-1.73 6.63-4.45 9.64-7.05l3.25 1.2c.06-1.58.12-3.17.17-4.75z"/>
    <path fill="#1c0606" opacity=".75" d="M56.03 67.96c1.51-.22 2.26.49 2.23 2.13-1.66.24-2.41-.47-2.23-2.13z"/>
    <path opacity=".43" d="M25.53 69.66c.03-.02.08-.07.11-.1-.03.03-.08.08-.11.1z"/>
    <path fill="#130304" opacity=".68" d="M68.63 70.94c.33-.56 1.01-1.67 1.34-2.22 2.1.73.3 3.6-1.34 2.22z"/>
    <path fill="#75161a" d="M46.46 73.99c2.53-1.54 5.11-3.01 7.79-4.27 1.43 3.64-.69 6.88-2.46 9.9C49.98 82.46 50.5 86 49.21 89c-2.22 2.34-4.91 4.66-8.23 5.12-4.67.97-9.28-.83-13.92-1.19l.56-.81c2.67-1.72 5.75-3 7.71-5.62 2.31-3.04 5.13-5.64 8.17-7.93 1.35-1.24 3.5-2.4 2.96-4.58z"/>
    <path fill="#79161d" d="M72.68 69.53c4.16.62 7.51 3.64 11.66 4.45l-2.63-2.44c4.53 2.95 9.08 7.57 15.03 5.92 2.67 1.73 5.37 3.41 7.91 5.34.27-.4.79-1.19 1.05-1.59.19.26.58.79.77 1.06l-.21 2.72c1.46.51 2.92 1.01 4.38 1.51l-.26-1.43c.65.83 1.28 1.66 1.91 2.5-1.43.5-2.86 1.01-4.29 1.52-.37-1.09-.75-2.17-1.12-3.26L104 87.69c-.43-.19-1.29-.56-1.72-.74.74-.66 1.48-1.32 2.22-1.97-2.84-2.59-6.16-4.72-9.97-5.52-4.44-.9-8.59-2.71-12.66-4.66 3.58 3.84 7.45 7.42 10.55 11.69 2.62 3.91 7.64 6.1 12.26 5.2-.33-.44-.97-1.31-1.3-1.74.26-.19.79-.57 1.05-.76 1.27.68 2.54 1.37 3.82 2.07-1.36.47-2.68 1.11-4.15 1.14-5.39.49-10.53 3.16-16.03 2.27-4.51-.39-9.54-1.97-11.63-6.38-.04-.19-.12-.55-.16-.74.1-2.69.53-5.55-1-7.96-1.79-3.07-2.89-6.46-2.6-10.06z"/>
    <path opacity=".57" d="M58.28 72.21c.54.55.54.55 0 0z"/>
    <path d="M67.56 74.28c.24-.68.72-2.03.95-2.71-.09 1.47-.17 2.94-.22 4.41-.71 1.33-1.03 3.77-3.06 3.56l.4 1.13c-1.51.05-3.02.08-4.53.08-.2-.1-.6-.31-.79-.41l1.38-.08c.46-.15 1.38-.43 1.84-.58 1.47-1.7 2.71-3.59 4.03-5.4zm-35.72 4.61c3.21-1.15 6.49-2.13 9.6-3.53l.19 1.51c-3.51 2.48-7.76 3.29-11.66 4.89-2.85 1.51-5.08 3.96-7.85 5.61-.25.56-.73 1.67-.97 2.23-1.08-.49-2.15-.99-3.23-1.48.36-.4 1.08-1.19 1.45-1.59.65-.01 1.95-.04 2.6-.05 2.63-3.31 6.33-5.41 9.87-7.59zm17.91 19.82c1.88 1.91 3.63 3.95 5.43 5.93 2.33 2.43 5.68 2.77 8.58 1.18 2.42 1.1 5.05 1.62 7.26-.22 2.6-1.9 4.24-4.71 5.99-7.33-.95 4.86-4.13 8.88-6.98 12.79-1.95 2.13-3.44 4.98-6.1 6.27-2.55-1.01-4.42-3.13-6.25-5.09-3.41-3.97-7-8.21-7.93-13.53z" fill="#5f1316"/>
    <path fill="#731717" d="M54.23 76.06c1.59 1.99 3.89 3.09 6.08 4.28.19.1.59.31.79.41.51.35 1.54 1.05 2.05 1.4l-.09 1.58c-.13 2.17.16 4.33.45 6.47.56-2.37 1.02-4.77 1.15-7.21l.07-.92c2.47-2.36 5.92-3.34 8.18-5.94 1.38 3.14 3.51 6.22 3.06 9.82-2.37.96-4.74 1.97-6.9 3.34-1.73 1.53-3.36 3.17-4.99 4.8-2.19-1.85-4.4-3.68-6.87-5.14-2.18-.89-4.45-1.55-6.71-2.19.49-3.8 2.13-7.27 3.73-10.7z"/>
    <path fill="#c62831" d="M60.1 77.44l-.08.41.08-.41z"/>
    <path fill="#1e0607" opacity=".72" d="M108.73 82.24l.93-.01.63.89-.33.85c-.31-.43-.92-1.29-1.23-1.73z"/>
    <path fill="#290906" opacity=".75" d="M63.06 83.73c.4-.19 1.2-.55 1.6-.74-.13 2.44-.59 4.84-1.15 7.21-.29-2.14-.58-4.3-.45-6.47z"/>
    <path fill="#971d21" d="M27.49 86.18c1.24-.81 3.22 1.07 2.37 2.33-1.2.6-2.96-1.13-2.37-2.33z"/>
    <path fill="#bd2429" d="M69.07 89.29c2.16-1.37 4.53-2.38 6.9-3.34l.31 1.6c.04.19.12.55.16.74.2.74.58 2.21.77 2.95l-.49.89c-1.27 1.69-1.27 4 .03 5.68l.26.46c-1.75 2.62-3.39 5.43-5.99 7.33-.57-.77-1.14-1.53-1.71-2.29.91-1.44 1.82-2.87 2.72-4.31-2.13-2.95-.32-7.19-2.96-9.71z"/>
    <path fill="#982223" d="M23.78 87.89c1.39.57 2.77 1.14 4.15 1.74-1.23.77-2.56 1.34-3.99 1.62l-.16-3.36z"/>
    <path fill="#ad2326" d="M57.21 88.95c2.47 1.46 4.68 3.29 6.87 5.14 1.63-1.63 3.26-3.27 4.99-4.8 2.64 2.52.83 6.76 2.96 9.71-.9 1.44-1.81 2.87-2.72 4.31.57.76 1.14 1.52 1.71 2.29-2.21 1.84-4.84 1.32-7.26.22-2.9 1.59-6.25 1.25-8.58-1.18.23-1.16.47-2.32.7-3.49-1.19-.8-2.38-1.6-3.56-2.41l1.11-4.37c.75.37 1.51.74 2.26 1.11.51-2.17 1.01-4.35 1.52-6.53z"/>
    <path fill="#e43031" d="M76.75 97.81c-1.3-1.68-1.3-3.99-.03-5.68.86 1.66.83 4.01.03 5.68z"/>
</svg>
