<svg width="128pt" height="128pt" viewBox="0 0 128 128" xmlns="http://www.w3.org/2000/svg">
    <g fill="#fff">
        <path d="M41.81 37.13c3.15-4.5 5.57-10 10.35-12.98 2.59.92 4.6 2.94 6.27 5.05 2.59.14 5.18-.1 7.77-.24-1.93 3.04-3.91 6.07-5.31 9.41 1.3 1.28 2.14 3.4 4.16 3.67 3.47.29 7.04.05 10.41-.86 2.5-1.37 4.62-3.32 6.92-5 5.19 4.45 8.03 10.83 12.78 15.7 3.4 6.13.6 13.35-2.36 19.09-3.08 5.25-6.11 10.66-10.37 15.06-.45-.66-.89-1.32-1.33-1.99-.45 3.02-1.24 6.35-3.75 8.35-3.58 3.15-7.14 6.45-11.45 8.59-2.12.57-4.36.28-6.52.39 3.4-4.68 6.49-9.77 7.09-15.66-3.22 4.54-4.95 10.05-8.75 14.22-2.2 1.16-4.72 1.61-6.91 2.83-3.26 1.85-5.95 4.52-8.65 7.08-2.3-3.26-3.73-7.07-4.51-10.96-.68-2.57 1.31-4.75 2.42-6.88 2.18-3.92 5.87-6.68 8.18-10.5 1.23-1.79.02-3.94.03-5.88 3.22-.82 6.54-.91 9.84-.89 2.63-.5 4.54-2.6 6.72-3.99 2.41-2.26 6.48-.52 8.45-3.52 2.53-3.29 6.54-6.73 5.45-11.33-.23-1.56-.61-3.08-1.04-4.58 1.47-1.29 2.91-2.63 4.18-4.12-4.73 3.17-10.27 5-16 4.84-4.42-1.82-8.32-4.79-11.89-7.93.11-1.79.26-3.58.41-5.37-1.12 1.58-1.71 3.42-2.04 5.31-2.85.21-5.68.63-8.47 1.23-2.86 1.11-5.62-1.3-7.21-3.44-1-5 1.48-9.91 3.97-14.1 1.69.12 3.38.25 5.07.39-1.4 2.95-3.42 5.69-3.91 9.01m40.57 43.14c-.04.88-1.28 3.47.3 3.53 1.25-2.58 1.51-5.54 1.07-8.35-.57 1.57-.97 3.2-1.37 4.82z"/>
        <path d="M84.01 87.08c4.46-4.56 7.06-10.42 10.9-15.41-1.3 8.49-6.33 16.34-5.51 25.11-3.28 4.31-6.93 9.14-12.44 10.55-9.94 3-20.7 4.7-30.92 2.06 3.16-2.77 6.62-5.73 10.85-6.51 3.35.37 6.74.55 10.1.14 4.33-2.07 8.07-5.26 11.52-8.56 2.38-2.06 3.1-5.32 5.5-7.38z"/>
    </g>
</svg>
