<svg width="128pt" height="128pt" viewBox="0 0 128 128" xmlns="http://www.w3.org/2000/svg">
    <g fill="#c6282c">
        <path d="M29.44 19.62c.87-2.97 4.18-3.75 6.25-1.47-1.46 1.04-3.05 1.87-4.77 2.4-.37-.24-1.11-.7-1.48-.93zM98.75 33.41c2.43-.79 4.82-1.71 7.14-2.78-.56 1.07-1.08 2.16-1.68 3.21C98.59 40 92.66 45.87 86.8 51.8c-3.28 3.24-5.8 7.14-9 10.44l-2.72-.08.49-.76c.2-.32.61-.96.81-1.28l.08-2.14c3.59-3.28 6.28-7.38 9.81-10.71 3.04-2.91 6.32-5.56 9.47-8.35 2.2-1.45 4.34-3 6.3-4.76-1.1-.25-2.2-.5-3.29-.75zM64.86 72.02c2.74-3.12 4.54-7.83 9.22-8.31-1.6 2.31-2.7 4.91-3.48 7.6 1.89-.57 4.04-.7 5.67-1.89.89-1.32 1.46-2.82 2.13-4.26 1.27 1.08 2.54 2.15 3.84 3.21-.83 1.42-1.05 3.7-3.17 3.54 1.61.52 6.25.9 2.67 3.29l-2.13.2c.45.22 1.37.64 1.83.85-.99.56-1.97 1.12-2.95 1.68 1.01 1.82 1.7 3.8 1.44 5.92l-.14.68c-2.55-1.1-4.91-3.31-7.92-2.3-3.12.39-3.8 4.14-6.48 5.14.58.91 1.17 1.83 1.75 2.75l-2.46-1.22c-.23-.11-.7-.33-.93-.44-.75-.16-2.25-.49-3-.65 1.04-1.16 2.06-2.33 3.08-3.5-.86-.67-1.72-1.33-2.6-1.97.53-.74 1.6-2.22 2.14-2.96.82.27 2.46.81 3.29 1.08-.15-1.11-.29-2.21-.41-3.32-2.35-.06-4.69-.16-7.03-.27 1.79-.94 3.75-1.43 5.77-1.08 2.24.22 4.49.24 6.74.02-1.51-.41-3.03-.76-4.56-1.09.74-.93 1.49-1.88 2.23-2.82l-4.54.12z"/>
    </g>
    <path fill="#250708" opacity=".46" d="M35.69 18.15c-.12 1.39-.18 2.78-.22 4.17l-.31.04c.09.07.28.2.38.27l1 .72.48 2.11c-1.38-1.11-3.24-2.72-5.12-2.04l-.42.15c-.69-1.49-1.47-2.93-2.46-4.23l.42.28c.37.23 1.11.69 1.48.93 1.72-.53 3.31-1.36 4.77-2.4m-3.65 2.99c.36 3.13 3.12-1.53 0 0z"/>
    <path fill="#b92529" d="M32.04 21.14c3.12-1.53.36 3.13 0 0z"/>
    <path fill="#de2c31" d="M35.16 22.36l.31-.04.07.31c-.1-.07-.29-.2-.38-.27z"/>
    <g fill="#cb2b29">
        <path d="M31.9 23.42c1.88-.68 3.74.93 5.12 2.04-.23.22-.68.68-.9.91l-.81-.24-.52-.43c-1.1-.62-2.06-1.38-2.89-2.28zM36.82 44.78c1.56-1.69 3.8-2.34 5.92-3.04l.84 1.19c-1.66.48-3.33.93-5.01 1.34l.08.81c1.96-.74 4.02-1.15 6.09-1.36.67 1.43 1.35 2.85 2.05 4.27-3.06-.03-6.37.08-8.7-2.26l-1.27-.95z"/>
    </g>
    <path fill="#8b1b1e" opacity=".89" d="M33.1 25.83c.55.08 1.66.22 2.21.3l.81.24c.86.35 1.44.92 1.72 1.69-1.44.34-4.94-.79-4.74-2.23z"/>
    <path fill="#671417" opacity=".86" d="M33.25 28.28c.58.54.58.54 0 0z"/>
    <g fill="#9c2020">
        <path d="M34.2 27.81c1.69.79 3.38 1.57 5.07 2.37l-1.19 1.34c.62.42 1.86 1.27 2.47 1.7-.7-.02-2.1-.07-2.8-.09l.57 1.18.03.66-.22 1.02-.17.69-.38 1.35c1.73.15 2.76-.5 3.1-1.95l1.89 1.77c-.82.82-1.83 1.67-3.1 1.5l.08 1.02c-.27.23-.82.67-1.09.9-.57-.37-1.72-1.09-2.3-1.46-.07-.6-.22-1.82-.29-2.43l1.05-1c-.55-.28-1.65-.85-2.2-1.13.48-.11 1.43-.32 1.91-.43l-.04-.95-.02-.78v-1.01l.18-.69.88-1.28c-.85.3-2.56.89-3.41 1.18l-.02-3.48zM59.34 54.67c2.72-2.22 4.75-5.8 7.9-7.09.44.15 1.31.44 1.74.59.05 2.2-.22 5.47 3.02 4.49-.09 2.32-.39 4.74.41 6.98.92 2.76 3.99 3.6 6.19 5.06l-.2.46c-.67 1.44-1.24 2.94-2.13 4.26-1.63 1.19-3.78 1.32-5.67 1.89.78-2.69 1.88-5.29 3.48-7.6l.84-.43c-4.51.36-8.31-2.13-12.41-3.5 1.57 1.09 3.2 2.11 4.88 3.03.02.86.07 2.59.09 3.46-1.56 2.27-3.07 4.57-4.76 6.74h3.57c-.32.69-.98 2.08-1.3 2.78-2.02-.35-3.98.14-5.77 1.08-2.25.11-4.51.1-6.77.18.43-.53 1.27-1.6 1.69-2.13-.48-1.01-.95-2.01-1.41-3.01-.95.96-1.91 1.91-2.93 2.8-.95-.77-1.9-1.54-2.85-2.3.68 2.2 1.99 4.43 1.37 6.81-.29 1.23-.6 2.45-.92 3.68-2.88-1.18-6.26-1.68-9.22-.46-1.37.36-2.72 1.3-4.18.79-1.54-.61-2.98.96-4.49.21-1.55.96-4.22 1.34-4.16 3.65.29.99.87 2.99 1.16 3.98-2.57-.82-2.93-3.89-2.46-6.09.65-1.56 2-3.1.73-4.74 2.35-3.49 4.96-6.79 7.96-9.73l.04.87c-.02 1.65.21 3.69 1.97 4.4l-.04-2.61c1.7-1.18 3.46-2.27 5.24-3.3-.22-.49-.68-1.48-.9-1.97 1.27-.95 2.55-1.89 3.83-2.83l2.88-2.1c.57.64 1.15 1.27 1.73 1.89.95.79 1.93 1.56 2.92 2.3-1.1 1.13-2.21 2.26-3.31 3.39.6.48 1.2.96 1.8 1.45 1.05-1.44 2.11-2.86 3.18-4.28 1.12.73 2.24 1.47 3.36 2.21.52-.57 1.05-1.14 1.57-1.7l-3.33-2.13c.87-.87 1.73-1.74 2.6-2.61l.77.37c1.58.39 1.88-.07.91-1.39 1.46-1.33 2.76-2.81 4.06-4.3-.9-1.17-1.79-2.34-2.68-3.5M32.71 80.23c3-2.23 5.45-5.14 8.76-6.96 1.32-.57 1.84-1.93 2.41-3.13-3.77 3.29-8.05 6.13-11.17 10.09m-4.34-.03c.26.57.79 1.71 1.05 2.28 1.25-1.48 2.08-3.23 2.75-5.04-1.43.68-2.65 1.69-3.8 2.76zM87.27 84.07c.83.07 2.48.19 3.31.25-.82 2.22 2.29 4.31 3.88 2.12-.39.5-1.16 1.52-1.54 2.03.33.38 1 1.14 1.33 1.52-1.71-.66-3.28-.41-4.71.75l.1-1.54c.72-.22 2.18-.65 2.91-.87-1.04.03-3.11.08-4.14.11.02-.46.05-1.37.07-1.82l-1.09.23-.12-2.78z"/>
    </g>
    <path fill="#2b090a" opacity=".45" d="M105.89 30.63c.38-1.6 2.77-.8 1.8.66-.77 1.14-1.95 2.73-3.48 2.55.6-1.05 1.12-2.14 1.68-3.21z"/>
    <path fill="#c2282d" d="M36.57 32.08c-2.39 1.42-1.62-2.54.18-.69l-.18.69z"/>
    <path fill="#c22631" d="M36.59 33.87c-1.85 1.81-2.01-2.43-.02-.78l.02.78z"/>
    <g fill="#9a1f23">
        <path d="M52.68 35.09c1.54-.71 3.1-1.38 4.67-2.01.66 2.49 1.37 4.97 2.11 7.43-2.43.3-4.87.56-7.3.82l-2.95-2.56c1.18-1.21 2.35-2.43 3.47-3.68zM57.21 93.69c1.45-.51 3.05-.87 4.08-2.12 1.71 1.55 2.08 3.92 2.87 5.97-.77-.53-2.31-1.6-3.08-2.14l-.19-2.22c-.59 1.18-1.06 2.41-1.5 3.65-.54-.78-1.64-2.35-2.18-3.14z"/>
    </g>
    <path fill="#7a191b" opacity=".81" d="M94.36 36.16c.78-1.66 2.92-1.91 4.39-2.75 1.09.25 2.19.5 3.29.75-1.96 1.76-4.1 3.31-6.3 4.76l-.07-1.19-.13-.73c-.12-.13-.37-.39-.49-.51l-.69-.33z"/>
    <g fill="#b52431">
        <path d="M38.32 34.31c.44.05 1.34.16 1.79.21l.01.7c-.44-.06-1.33-.19-1.77-.25l-.03-.66zM52.97 57.39c1.35-1.55 2.7-3.1 4.08-4.62.01 1.45.01 2.91.01 4.36l2.28-2.46c.89 1.16 1.78 2.33 2.68 3.5-1.3 1.49-2.6 2.97-4.06 4.3-.22.35-.68 1.04-.91 1.39l-.77-.37c-.4-.18-1.2-.55-1.6-.73-.86.72-1.68 1.49-2.51 2.25-1.59-.86-3.31-2.06-4.68-.15-.58-.62-1.16-1.25-1.73-1.89.87-1.01 1.66-2.08 2.47-3.13.34.32 1.02.98 1.35 1.31 1.13-1.26 2.27-2.5 3.39-3.76zM96.7 66.16c.01-1.27 1.78-2.81 3.05-2.18.17 1.38-1.91 2.16-3.05 2.18zM62.6 91.16c1.61.29 3.15.12 4.64-.51.39 1.42.76 2.85 1.1 4.28l-3.47-3.51c1.64 2.08 1.62 3.97-.06 5.66-.63-2.01-1.37-3.99-2.21-5.92z"/>
    </g>
    <g fill="#af2121">
        <path d="M44.26 38.39c2.82-1.08 5.64-2.15 8.42-3.3-1.12 1.25-2.29 2.47-3.47 3.68l2.95 2.56c-1.83.34-3.65.66-5.49.92.27-.48.8-1.45 1.06-1.93-1.15-.66-2.3-1.32-3.47-1.93zM79.38 48.05c2.85-2.07 5.41-4.64 8.61-6.19.66.2 1.97.62 2.62.82-5.34 4.45-10.11 9.66-14.15 15.3l-.08 2.14c-.2.32-.61.96-.81 1.28-1.62 0-2.01-1.59-2.68-2.73 1.9-2.04 4.41-4.52 3.08-7.56.85-1.15 1.83-2.18 3.12-2.85.07-.05.22-.15.29-.21zM91.15 54.03l5.39 1.44c1.59-.18 3.07.45 4.5 1.07-.6.21-1.8.63-2.4.83.59.41 1.76 1.23 2.35 1.64-2 1.2-3.88-.46-5.41-1.53l-.3-.34c.07.08.23.25.3.34.53.52 1.59 1.57 2.12 2.1-.62.68-1.23 1.37-1.85 2.05l.56.22c1.26-1.39 3.05-2.07 4.91-1.87-.94.8-1.9 1.56-2.86 2.34-1.98.97-4.99 2.29-5.97-.56-.4.88-.81 1.76-1.21 2.64.36.58 1.08 1.73 1.44 2.3 1.8.21 4 1.72 5.4-.24.72.9 1.43 1.81 2.12 2.73-1.06-.29-2.1-.64-3.12-1.04l-.45 1.32c-1.11-.48-2.13-1.28-3.38-1.3.33.74.71 1.45 1.14 2.13-2.99-.65-5.38 2.25-8.35.8.22-.72.67-2.17.89-2.9-1.14-.96-2.32-1.88-3.53-2.75 2.71-3.04 5.65.89 7.3 2.96-.63-.03-1.9-.09-2.53-.13.32.7.87 1.25 1.64 1.63.74-.48 1.48-.95 2.22-1.43-1.27-1.26-2.56-2.5-3.94-3.64.83-.4 1.67-.79 2.51-1.17-1.88-.66-3.11-2.21-4.27-3.73 2.14-.36 4.42-.59 5.33 1.83l1.33-1.09 1.55 1.27-.18-3.2c-.45.43-1.35 1.28-1.81 1.7-1.53-.73-3.09-1.44-4.37-2.58 1.6-.16 3.12.11 4.55.79.34-.4 1.02-1.19 1.35-1.59-.74-.76-2.23-2.28-2.97-3.04m5.84 2.22c.54.54.54.54 0 0z"/>
        <path d="M90.94 72.35c1.48-2.32 4.85-.93 6.53-3.12.8.95 1.6 1.91 2.39 2.87l-3.43.4c-1.83.29-3.68.15-5.49-.15zM84.66 75.72c.99-.93 2.03-1.81 3.34-2.25 1.49 1.16 3.9 1.54 4.85 3.14l.31 1.33c-1.85-.21-3.7-.41-5.56-.53 1.71.47 3.44.88 5.18 1.29l.48 1.52c-1.72-.02-3.44-.03-5.16.01-.27-.75-.83-2.23-1.1-2.97-.44-.88-1.22-1.39-2.34-1.54zM35.85 84.96c1.43-1.22 3.24-1.76 4.99-2.33 1.93 2.85 2.65 6.24 3.8 9.42-.11-3.34-1.16-6.54-2.56-9.55 1.81.23 3.57.75 5.21 1.57.72 3.74.47 8.23-2.56 10.92-.43.01-1.28.01-1.71.02-.25-.24-.75-.72-1-.95l-.41-.48c-.31-3.35-2.52-7.31-5.76-8.62zM61.11 105.58c-.62-2.01 1.41-1.12 2.26-.48-.26 1.82-.51 3.64-.74 5.46-.43.02-1.3.07-1.73.09 1.08-1.48 1.55-3.58.21-5.07z"/>
    </g>
    <path fill="#c52929" d="M38.13 35.99c2.35-1.34 1.66 2.59-.17.69l.17-.69z"/>
    <g fill="#ce2831">
        <path d="M93.61 35.87l.75.29.69.33c.12.12.37.38.49.51l.13.73c-1.37 1.94-3.24 3.45-5.06 4.95-.65-.2-1.96-.62-2.62-.82.17-.38.5-1.15.67-1.53-.64-.01-1.92-.04-2.55-.06 2.52-1.42 5.12-2.73 7.5-4.4m-3.53 3.38c.56.55.56.55 0 0zM33.37 41.74c1.39-1.05 3.53-1.26 5.09-.47-1.34 1.33-3.36.87-5.04.8l-.05-.33zM33.26 43.19c1.38-.38 1.51 1.59 1.85 2.46-.59.28-1.75.82-2.34 1.1-.44-1.15-.61-2.72.49-3.56zM69.51 51.95c3.47-3.65 8.05-5.83 11.95-8.93-.05.73-.16 2.19-.21 2.91-1.39 1.84-6.24 2.29-5.28 5.18 1.33 3.04-1.18 5.52-3.08 7.56-.04-2.38.05-4.77-.12-7.16l-3.26.44zM82.76 69.33c1.97 1.13 3.94 2.26 6.01 3.18-2.43.34-4.4 1.74-6.29 3.19.75-1.25 1.54-2.46 2.4-3.64-.81.02-2.42.05-3.22.07.27-.7.83-2.1 1.1-2.8zM95.23 75.18c-5.05-3.73.81-1.4 2.58-1.97.39.37 1.16 1.11 1.55 1.48l-1.93-.27-.18 2.22 1.58-.27.53 1.02c.12.22.36.66.49.87 1.33-.01 2.66-.1 3.99-.27-5.76 5.09-13.91 5.23-21.18 5.34 1.38-2.07 2.81-4.11 4.34-6.07.27.74.83 2.22 1.1 2.97-.64.14-1.94.42-2.59.56 4.17.16 8.36.17 12.53-.18-1.59-.21-3.18-.34-4.78-.39l-.48-1.52c2.03.09 4.06.07 6.09.01-1.9-.31-3.8-.55-5.71-.77l-.31-1.33c2.04.66 3.51.18 4.42-1.44-.95.33-2.87.97-3.83 1.3l-.41-2.05 2.2.76zM67.97 90.07c.35-3.05 2.05-6.1 5.28-6.79 2.72 2.65 5.13 5.61 7.88 8.24-1.5-3.54-5.08-5.57-7.38-8.53.95.28 2.85.83 3.8 1.11l-.36 1.08c.72-.13 2.15-.41 2.87-.54l.58-.06c1.69.52 3.03 1.62 4 3.29-1.82-2.11-3.57-.93-5.15-.05 2.21.48 2.92 2.92 4.24 4.46-.5.48-.99.96-1.47 1.46.46.46 1.37 1.4 1.82 1.87 2.97-.58 1.06-2.88.23-4.47l3.57 1.73c.08-.35.23-1.06.3-1.42 1.75-.16 3.61-1.05 5.22.06-2.36.81-4.72 1.58-7.11 2.29 1.72 1.29 3.16 2.88 4.39 4.64l.6.82c-.77-.16-2.33-.49-3.1-.65-.01-.61-.04-1.82-.05-2.43-.92-.63-1.67-.31-2.26.95-.4-.29-1.21-.86-1.62-1.14l-.85 1.09c-3.53-4.42-7.58-8.64-12.8-11.04 3.99 5.21 9.9 8.73 13.37 14.36-3.9-2.5-8.08-4.73-11.3-8.13.06.61.17 1.84.23 2.45-1.15.45-2.3.92-3.44 1.38-.27-.92-.79-2.76-1.05-3.68l2.25-.45-.99 3.67c.86-1.34 1.78-2.63 2.77-3.87-1.65.02-3.14-.55-4.47-1.7zM27.16 99.38c.98-.77 1.96-1.54 2.94-2.32 1.11.09 2.23.19 3.35.28.44 1.32.87 2.66 1.44 3.94-1.99 3.96-5.29 6.99-9.16 9.06-.19-.3-.55-.91-.74-1.21.38-1.51.22-3.42 1.37-4.61 1.69.89 1.43 2.62.55 4.04 2.58-2.71 6.91-6.17 5.64-10.27-.97 2.04-1.93 4.09-2.97 6.11-.19-.6-.57-1.78-.76-2.38-.43.46-1.28 1.36-1.71 1.81-.31-1.47-.06-2.97.05-4.45m2.49 2.82c.83-1.03 1.05-2.18.67-3.43-1.41-.33-2.13 3.28-.67 3.43z"/>
    </g>
    <path fill="#861c1b" d="M42.37 39.01c.47-.15 1.42-.46 1.89-.62 1.17.61 2.32 1.27 3.47 1.93-.26.48-.79 1.45-1.06 1.93-.87.64-2.05.61-3.09.68l-.84-1.19c-2.12.7-4.36 1.35-5.92 3.04-.43.22-1.29.66-1.71.87-.34-.87-.47-2.84-1.85-2.46-1.1.84-.93 2.41-.49 3.56-3.23 1.45-6.37 3.08-9.54 4.66-.62-2.46-1.35-4.89-2.18-7.28 4.14-.56 8.19-1.86 12.37-2.06 1.68.07 3.7.53 5.04-.8.27-.23.82-.67 1.09-.9 1.29-.72 2.67-.88 4.13-.45l-1.31-.91z"/>
    <path opacity=".43" d="M90.08 39.25c.56.55.56.55 0 0z"/>
    <path fill="#d32a2e" d="M82.03 45.03c-1.33-1.77 2.89-4.53 2.77-1.97-.69.49-2.07 1.48-2.77 1.97z"/>
    <g fill="#b52831">
        <path d="M38.09 45.73c2.33 2.34 5.64 2.23 8.7 2.26.65.33 1.95.98 2.6 1.31-.14 3.33.06 6.66.64 9.94-1.06-.33-2.1-.71-3.12-1.13-1.38-2.82-1.71-6.08-3.49-8.74-1.69 4.05 1.49 7.93 2.68 11.69-.45.21-1.33.62-1.77.83-.22.46-.65 1.38-.87 1.84-1.41-3.59-3.18-7.09-5.94-9.84 1.01-2.64.99-5.42.57-8.16zM54.98 98.69c.85.03 2.56.07 3.41.09.39 1.62.69 3.26 1 4.89.65 1.4 1.3 2.79 2.11 4.11-.5.6-1 1.19-1.51 1.78-1.43-3.73-3.28-7.27-5.01-10.87z"/>
    </g>
    <path fill="#c6292f" d="M67.24 47.58c-.02-1.42.6-1.97 1.87-1.67-.03.57-.1 1.69-.13 2.26-.43-.15-1.3-.44-1.74-.59z"/>
    <path fill="#ff3831" d="M79.09 48.26c.07-.05.22-.15.29-.21-.07.06-.22.16-.29.21z"/>
    <path fill="#160405" opacity=".32" d="M49.39 49.3c1.05 2.7-.02 5.87 1.37 8.4.55-.08 1.66-.24 2.21-.31-1.12 1.26-2.26 2.5-3.39 3.76-.33-.33-1.01-.99-1.35-1.31-.81 1.05-1.6 2.12-2.47 3.13l-2.88 2.1c.14-.33.44-1 .58-1.34.22-.46.65-1.38.87-1.84.44-.21 1.32-.62 1.77-.83-1.19-3.76-4.37-7.64-2.68-11.69 1.78 2.66 2.11 5.92 3.49 8.74 1.02.42 2.06.8 3.12 1.13-.58-3.28-.78-6.61-.64-9.94z"/>
    <path fill="#a42122" opacity=".98" d="M85.41 54.58c1.06 1.37 2.11 2.77 2.72 4.41-2 .81-4.05-.59-6.11-.4 1.14-1.33 2.27-2.66 3.39-4.01z"/>
    <path fill="#b9252c" d="M86.01 54.16c2.83-.13 5.62.53 7.27 3.04-1.73.01-3.46 0-5.19-.02-.52-.76-1.56-2.27-2.08-3.02z"/>
    <path fill="#020000" opacity=".29" d="M96.99 56.25c.54.54.54.54 0 0z"/>
    <path fill="#220707" opacity=".49" d="M95.58 57.48c-.07-.09-.23-.26-.3-.34l.3.34z"/>
    <path fill="#b6262b" d="M81.62 59.04c1.18.13 2.35.25 3.53.36.82 1.39 2.19 2.91 1.21 4.59-1.62-.39-3.1-1.07-4.46-2.04l-.28-2.91z"/>
    <path fill="#270708" opacity=".5" d="M62.51 59.78c4.1 1.37 7.9 3.86 12.41 3.5l-.84.43c-4.68.48-6.48 5.19-9.22 8.31l4.54-.12c-.74.94-1.49 1.89-2.23 2.82 1.53.33 3.05.68 4.56 1.09-2.25.22-4.5.2-6.74-.02.32-.7.98-2.09 1.3-2.78h-3.57c1.69-2.17 3.2-4.47 4.76-6.74 1.71-.72 2.54-3.63-.09-3.46-1.68-.92-3.31-1.94-4.88-3.03z"/>
    <path fill="#cc2931" d="M79.8 60.44c1.49 1.37 2.91 2.8 4.32 4.26-1.55 1.13-3.46.83-5.14.24.04-1.54.31-3.03.82-4.5z"/>
    <path fill="#63140f" d="M57.05 63.86c.23-.35.69-1.04.91-1.39.97 1.32.67 1.78-.91 1.39z"/>
    <path fill="#d02a28" d="M67.39 62.81c2.63-.17 1.8 2.74.09 3.46-.02-.87-.07-2.6-.09-3.46z"/>
    <path fill="#b32529" d="M92.59 64.71c.42-1.38 3.71-.22 3.05 1.17-1.28.32-2.3-.07-3.05-1.17z"/>
    <path fill="#d42b32" d="M81.99 66.08c1.52-.17 3.4 1.46 3.61 2.86-1.62.8-3.74-1.37-3.61-2.86z"/>
    <path fill="#3a0b0a" opacity=".7" d="M32.78 71.38c1.09-.1 1.73.5 1.93 1.79l.04 2.61c-1.76-.71-1.99-2.75-1.97-4.4z"/>
    <path fill="#741717" d="M52.73 71.91c.46 1 .93 2 1.41 3.01-.42.53-1.26 1.6-1.69 2.13-.22.25-.68.76-.91 1.02l-.76.68c-.61.12-1.84.35-2.46.47.62-2.38-.69-4.61-1.37-6.81.95.76 1.9 1.53 2.85 2.3 1.02-.89 1.98-1.84 2.93-2.8z"/>
    <path fill="#b5221f" d="M89.26 72.32c1.34-.27 2.74.59 3.81 1.33-.34 1.76-4.16.26-3.81-1.33z"/>
    <path fill="#aa2021" d="M81.44 76.25l.36-.2c1.39.45 2.81.84 4.24 1.15-.51.62-1.54 1.86-2.05 2.48-.06.09-.17.25-.23.33-.99 1.55-1.74 3.32-3.12 4.57l-.58.06-.27-.11.14-.68c.26-2.12-.43-4.1-1.44-5.92.98-.56 1.96-1.12 2.95-1.68z"/>
    <path fill="#110304" opacity=".29" d="M51.54 78.07c.23-.26.69-.77.91-1.02 2.26-.08 4.52-.07 6.77-.18 2.34.11 4.68.21 7.03.27.12 1.11.26 2.21.41 3.32-.83-.27-2.47-.81-3.29-1.08-3.85-1.03-7.86-1.37-11.83-1.31z"/>
    <path fill="#130303" opacity=".38" d="M99.36 77.39c1.1-.98 4.01-.89 4.48.6-1.33.17-2.66.26-3.99.27-.13-.21-.37-.65-.49-.87z"/>
    <path fill="#1d0505" opacity=".44" d="M28.37 80.2c1.15-1.07 2.37-2.08 3.8-2.76-.67 1.81-1.5 3.56-2.75 5.04-.26-.57-.79-1.71-1.05-2.28z"/>
    <path fill="#9a1f21" d="M50.78 78.75l.76-.68c3.97-.06 7.98.28 11.83 1.31-.54.74-1.61 2.22-2.14 2.96-.86-.57-1.73-1.11-2.62-1.64.77.94 1.54 1.87 2.37 2.75-1.89.64-3.66 1.55-5.37 2.55.78.44 1.56.89 2.33 1.36 1.73 1.09 3.79 2.5 5.81 1.1.23.11.7.33.93.44-.35.37-1.05 1.1-1.4 1.47-4.62 1.39-8.9 3.6-13.14 5.84l-.34-.04c-1.44-.2-2.88-.35-4.33-.47 3.53-4.19 2.64-9.88 2.88-14.93 1.44-.4 2.87-.79 4.32-1.18l-.17-1.37-1.72.53m2.17 4.19c1.26-.42 1.53-1.27.8-2.55-1.25.44-1.52 1.29-.8 2.55m-2.43-1.88c-.91.81-1.25 1.78-1.01 2.92 1.62.99 3.5-4.16 1.01-2.92z"/>
    <path fill="#ff3031" d="M83.76 80.01c.06-.08.17-.24.23-.33-.06.09-.17.25-.23.33z"/>
    <path fill="#0f0202" opacity=".46" d="M52.95 82.94c-.72-1.26-.45-2.11.8-2.55.73 1.28.46 2.13-.8 2.55z"/>
    <path fill="#0d0203" opacity=".45" d="M50.52 81.06c2.49-1.24.61 3.91-1.01 2.92-.24-1.14.1-2.11 1.01-2.92z"/>
    <path fill="#2c0809" opacity=".52" d="M58.61 80.7c.89.53 1.76 1.07 2.62 1.64.88.64 1.74 1.3 2.6 1.97-1.02 1.17-2.04 2.34-3.08 3.5.75.16 2.25.49 3 .65-2.02 1.4-4.08-.01-5.81-1.1 1.49-.87 2.94-1.81 4.36-2.8-.33-.27-.99-.83-1.32-1.11-.83-.88-1.6-1.81-2.37-2.75z"/>
    <path fill="#c9262a" d="M32.53 86.39c-.89-.77-.42-3.13 1.02-2.26.88.9 1.54 2.33 1.3 3.6-.96.07-1.74-.38-2.32-1.34z"/>
    <path fill="#c52729" d="M55.61 86c1.71-1 3.48-1.91 5.37-2.55.33.28.99.84 1.32 1.11-1.42.99-2.87 1.93-4.36 2.8-.77-.47-1.55-.92-2.33-1.36z"/>
    <path fill="#9d2020" opacity=".92" d="M82.88 84.34c1.3-.33 4.2-.01 3.95 1.82-1.27.86-3.93-.37-3.95-1.82z"/>
    <path fill="#a32323" opacity=".95" d="M91.13 85.01c.27-1.41 2.35-.81 2.9.09-.25 1.39-2.78 1.37-2.9-.09z"/>
    <path fill="#d52f30" d="M94.03 85.1c.43-3.26 3.18 1.38 0 0z"/>
    <path fill="#a62228" d="M29.26 84.13l2.15.31c-.43 1.86.52 3.13 2.22 3.78-.24 1.36-1.01 1.99-2.31 1.9-1.27-1.75-1.48-3.97-2.06-5.99z"/>
    <path fill="#aa2326" d="M26.07 87.88c-.57-1.63 1.6-2.11 2.7-2.45.69 2.66 1.85 5.15 2.94 7.66-2.22-1.22-4.82-2.6-5.64-5.21z"/>
    <path fill="#991f21" d="M35.6 87.39c.77-1.3 1.62-1.23 2.56.21-.87.78-1.72.71-2.56-.21z"/>
    <path fill="#631314" opacity=".74" d="M70.6 86.04c5.22 2.4 9.27 6.62 12.8 11.04l.85-1.09c.41.28 1.22.85 1.62 1.14l.12.69c-.02 1.34-.05 2.68-.08 4.03-.41-.24-1.22-.72-1.63-.96l-.31-.49c-3.47-5.63-9.38-9.15-13.37-14.36z"/>
    <path fill="#891b1d" opacity=".93" d="M85.46 87.35c1.45-.52 3.12 1.39 3.29 2.67-1.37.43-4.22-1.02-3.29-2.67z"/>
    <path fill="#b72529" opacity=".98" d="M82.47 88.18c1.36.06 3.25 1.38 3.46 2.71-1.48.35-3.82-1.09-3.46-2.71z"/>
    <path fill="#8f1c21" d="M33.06 91.2c.33-3.46 3.51-2.46 5.93-2.61.91 1.59 1.77 3.22 2.48 4.92-1.88.8-3.69 1.76-5.47 2.77 1.33.8 2.66 1.58 4 2.37.64-.57 1.28-1.15 1.92-1.72.44.49 1.3 1.46 1.73 1.94-1.55.68-3.04 1.48-4.65 2.03-.67.14-2 .43-2.67.57-.49-2.5-1.45-4.89-3.3-6.69l-.41-.49c-.52-1.33-.68-2.77-.98-4.16l1.42 1.07z"/>
    <path fill="#bd2429" d="M26.38 91.38c.27.27.27.27 0 0z"/>
    <path fill="#1f0607" opacity=".5" d="M86.29 93.8c2.39-.71 4.75-1.48 7.11-2.29-.46.68-1.4 2.02-1.86 2.7-.5-.02-1.49-.05-1.99-.06.05 1.5.82 2.1 2.34 1.78-.3.63-.91 1.88-1.21 2.51-1.23-1.76-2.67-3.35-4.39-4.64z"/>
    <path fill="#b22327" d="M25.44 93.46c1.41.06 2.8-.03 3.93-.98 1.11.56 2.19 1.17 3.25 1.81l.41.49c-2.94.48-5.47 2-7.26 4.38.31-1.93 1.27-4.04-.33-5.7z"/>
    <path fill="#661515" opacity=".96" d="M36 96.28c1.78-1.01 3.59-1.97 5.47-2.77l.55.55c.25.23.75.71 1 .95.7.53 1.51.75 2.45.69 1.45.12 2.89.27 4.33.47-1.96 1.09-4.03 1.97-6.15 2.7-.43-.48-1.29-1.45-1.73-1.94-.64.57-1.28 1.15-1.92 1.72-1.34-.79-2.67-1.57-4-2.37z"/>
    <path fill="#871b1d" opacity=".96" d="M55.94 94.21c1.45.04 2.6 2.23 2.06 3.55-1.52.21-2.36-2.32-2.06-3.55z"/>
    <path fill="#a81f27" opacity=".93" d="M89.55 94.15c.5.01 1.49.04 1.99.06.09.43.26 1.29.35 1.72-1.52.32-2.29-.28-2.34-1.78z"/>
    <path fill="#440e10" opacity=".63" d="M25.77 99.16c1.79-2.38 4.32-3.9 7.26-4.38 1.85 1.8 2.81 4.19 3.3 6.69.67-.14 2-.43 2.67-.57-1.08.5-2.17 1-3.27 1.5l-.84-1.12c-.57-1.28-1-2.62-1.44-3.94-1.12-.09-2.24-.19-3.35-.28-.98.78-1.96 1.55-2.94 2.32-.11 1.48-.36 2.98-.05 4.45.43-.45 1.28-1.35 1.71-1.81.19.6.57 1.78.76 2.38 1.04-2.02 2-4.07 2.97-6.11 1.27 4.1-3.06 7.56-5.64 10.27.88-1.42 1.14-3.15-.55-4.04-.45-1.64-.56-3.35-.92-5.01l.33-.35z"/>
    <path fill="#8a1d24" opacity=".94" d="M53.2 95.58c1.15-.67 2.72 1.15 1.86 2.14-1.04.32-3.12-1.16-1.86-2.14z"/>
    <path fill="#120303" opacity=".39" d="M85.87 97.13c.59-1.26 1.34-1.58 2.26-.95.01.61.04 1.82.05 2.43l-.58.78c-.29-.3-.88-.89-1.17-1.19l-.44-.38-.12-.69z"/>
    <path fill="#c7262c" d="M58.72 98.27c.52-.51 1.57-1.52 2.09-2.02.59 2.05 1.22 4.1 1.88 6.14-2.62 1.37-3.43-2.29-3.97-4.12z"/>
    <path fill="#a1201d" opacity=".93" d="M85.99 97.82l.44.38c.29.3.88.89 1.17 1.19.27 1.03.8 3.09 1.07 4.13-.69-.42-2.07-1.25-2.76-1.67.03-1.35.06-2.69.08-4.03z"/>
    <path fill="#490f0f" opacity=".68" d="M29.65 102.2c-1.46-.15-.74-3.76.67-3.43.38 1.25.16 2.4-.67 3.43z"/>
    <path fill="#2d090b" opacity=".57" d="M25.73 110.34c-.57 2.76-3.47-.97-.74-1.21.19.3.55.91.74 1.21z"/>
</svg>
