<svg width="128pt" height="128pt" viewBox="0 0 128 128" xmlns="http://www.w3.org/2000/svg">
    <path fill="#f8f8f8" opacity=".97" d="M29.54 20.56c-.48-1.79 1.13-3.06 2.38-3.95 1.48.25 2.91.69 4.28 1.3l-1.28.86c-.89.6-1.79 1.2-2.68 1.81-.68-.01-2.02-.02-2.7-.02z"/>
    <path fill="#a0a0a0" opacity=".63" d="M32.24 20.58c.89-.61 1.79-1.21 2.68-1.81.55 1.48 1.11 2.95 1.71 4.41-.85 0-2.54.01-3.39.01l-.21-.95-.16-.74h-1.64l1.01-.92z"/>
    <path fill="#eaeaea" opacity=".92" d="M31.23 21.5h1.64l.16.74-1.68.08-.12-.82z"/>
    <g fill="#fff">
        <path d="M32.04 23.32c.3-.03.9-.1 1.2-.13 1.1.6 2.18 1.24 3.22 1.96-.36.23-1.07.71-1.43.94-.52-.21-1.56-.64-2.08-.85-.23-.48-.68-1.44-.91-1.92zm67.41 9.7c2.87-.99 5.65-2.21 8.53-3.14-9.79 11.21-21.33 20.86-30.2 32.88-1.33-.58-2.8-.96-3.9-1.94-1.61-2.81-1.23-6.17-1.21-9.27-.83.08-2.49.23-3.32.31 5.32-4.86 11.68-8.35 17.68-12.28.21.52.64 1.57.86 2.1 2.45-1.53 4.92-3.04 7.41-4.51-.36.85-1.09 2.54-1.45 3.38 2.61-2.02 5.23-4.01 7.92-5.93l-2.32-1.6M80.52 53c-.33.17-.99.52-1.31.7-.57 1.69-1.86 2.96-2.89 4.38 5.41-5.89 10.63-11.96 16.73-17.17-4.67 3.47-8.75 7.68-12.53 12.09zM42.58 38.78c5.04-1.6 9.88-3.69 14.71-5.8.79 2.53 1.52 5.07 2.33 7.59-12.81.84-25.29 4.69-36.48 10.95-.57-2.57-1.42-5.07-2.06-7.62 5.86-.5 11.5-2.19 17.17-3.64l-2.64-.24c.27-.3.79-.9 1.06-1.2 1.38-.47 2.78-.92 4.17-1.36l-.67-.67-.76-.78 1.98.7c.3.52.9 1.55 1.19 2.07z"/>
        <path d="M37.59 45.6c2.19-1.25 4.67-1.79 7.13-2.15.71 2.66 2.48 4.71 4.83 6.07-.06 3.33.15 6.65.6 9.95-1.2-.32-2.39-.68-3.56-1.08-.94-2.54-1.56-5.18-2.41-7.76-.42-.04-1.27-.14-1.69-.19 1.1 3.85 2.62 7.56 3.82 11.38l-1.56-.28c-.38.61-1.14 1.82-1.52 2.43-1.04-3.78-3.08-7.18-5.74-10.03.93-2.74 1.06-5.58.1-8.34zm46.98 30.75c.35-.69 1.04-2.08 1.39-2.78 2.84-.31 5.03 1.79 7.58 2.64 3.65 1.26 7.56 1.31 11.38 1.46-6.35 5.04-14.63 6.05-22.48 5.78 1.56-2.28 3.21-4.5 4.68-6.84-.63-.06-1.91-.19-2.55-.26m3.12.66c2.86 2.1 7.04 3 10.21 1.1-3.42-.24-6.82-.59-10.21-1.1m-2.34 3.16c3.75 1.74 8.11.6 12.1.52-3.94-1.05-8.08-.75-12.1-.52zM49.09 82.7c1.06-.89 2.21-1.67 3.4-2.38.3.35.89 1.06 1.18 1.41l.26.3c-2.33.65-4.56 1.62-6.79 2.56 1.4 3.79.43 10.09-4.11 11.19-1.36-4.44-4-8.35-7.01-11.83 1.78-.39 3.55-.81 5.3-1.33 1.4 3.01 2.47 6.15 3.44 9.31-.53-3.25-1.4-6.46-2.72-9.49 1.95.54 3.91.79 5.86.15.3.03.89.08 1.19.11zm19.04 7.35c-.57-3.74 2.81-6.29 5.98-7.3 4.12.95 6.08 4.99 8.73 7.86 1.86.55.59 2.41-.6 1.51-2.15-1.99-3.77-4.5-6.03-6.39 2.19 2.68 3.87 5.76 6.53 8.05-.18.47-.53 1.41-.71 1.88-3.21-3.49-6.38-7.41-11.08-8.9 3.47 3.44 7.04 6.79 10.71 10.02-.19.68-.36 1.37-.52 2.07-4.29-3-8.65-5.95-13.01-8.8zm-36.67-4.96l2.36-1.88c.82 1.96 1.55 3.96 2.11 6.02-.37-.28-1.1-.84-1.47-1.12-1.08-.92-2.11-1.91-3-3.02zm-1.56-.59c1.29 1.63 2.57 3.26 3.87 4.89-.83.26-2.48.77-3.31 1.03.7 1.08 1.36 2.18 2 3.3-2.67-1.45-5.24-3.18-7.04-5.68.49-.81 1.02-1.59 1.6-2.34.37.02 1.1.05 1.47.07.45.88 1.36 2.64 1.81 3.52l-.4-4.79zm-3.16 15.07c1.49-2.46 5.42-4.57 7.64-1.76.38 1.39.81 2.98.09 4.34-2.12 4.48-6.59 7.04-10.71 9.41 1.57-3.83 2.18-7.96 2.98-11.99m-.05 5.53c.39.6 1.15 1.81 1.54 2.41 2.5-2.42 5.38-5.23 5.03-9.05-1.05 1.13-2.09 2.29-3.09 3.47.33-1.06.64-2.13.92-3.21-3.18-.05-2.97 4.3-4.4 6.38zm32.04-7.03c.55-.48 1.66-1.42 2.21-1.9 1.46 4.83 3.24 9.92 1.7 14.97-4.33-2.55-5.21-7.91-7.53-11.97.82-.17 2.47-.49 3.3-.65.89 3.24 1.82 6.49 3.21 9.57-.91-3.36-2.25-6.6-2.89-10.02z"/>
    </g>
    <path fill="#909090" opacity=".56" d="M33.24 23.19c.85 0 2.54-.01 3.39-.01.42 1.26.81 2.54 1.18 3.82-.44.03-1.31.11-1.74.15l.28.7c.4-.02 1.2-.04 1.6-.06l.18.38c-1.07.5-2.13 1.03-3.18 1.57-.72-.25-1.42-.54-2.1-.87.48-.53 1.46-1.59 1.95-2.12l.23-.66c.36-.23 1.07-.71 1.43-.94-1.04-.72-2.12-1.36-3.22-1.96z"/>
    <path fill="#e5e5e5" opacity=".9" d="M33.24 26.11c.45 0 1.35-.01 1.79-.02l-.23.66-1.44.12-.12-.76z"/>
    <path fill="#dfdfdf" opacity=".87" d="M36.07 27.15c.43-.04 1.3-.12 1.74-.15l.14.79c-.4.02-1.2.04-1.6.06l-.28-.7z"/>
    <path fill="#d4d4d4" opacity=".83" d="M34.95 29.74c1.05-.54 2.11-1.07 3.18-1.57.28.69.83 2.06 1.1 2.75-.31.21-.95.63-1.27.84l1.8-.17.2 1.69-2.29-.07 3.4.8c-.89.49-1.8.95-2.72 1.37.65.41 1.26.88 1.82 1.41l.67.67c-1.39.44-2.79.89-4.17 1.36-.79-1.31-1.39-2.69-1.81-4.16.54.06 1.61.17 2.15.23-1.14-.63-2.18-1.39-3.13-2.28.84-.01 2.53-.04 3.38-.06l-3.23-.63c.76-.44 1.55-.85 2.34-1.24-.35-.24-1.06-.7-1.42-.94z"/>
    <path fill="#d2d2d2" opacity=".82" d="M87.03 39.58c3.94-2.55 8.19-4.55 12.42-6.56l2.32 1.6c-2.69 1.92-5.31 3.91-7.92 5.93.36-.84 1.09-2.53 1.45-3.38-2.49 1.47-4.96 2.98-7.41 4.51-.22-.53-.65-1.58-.86-2.1z"/>
    <path fill="#c1c1c1" opacity=".76" d="M87.69 77.01c3.39.51 6.79.86 10.21 1.1-3.17 1.9-7.35 1-10.21-1.1z"/>
    <path fill="#9c9c9c" opacity=".61" d="M47.9 82.59c-.8-2.76 2.94-3.27 5.06-3.57.23.9.47 1.81.71 2.71-.29-.35-.88-1.06-1.18-1.41-1.19.71-2.34 1.49-3.4 2.38-.3-.03-.89-.08-1.19-.11z"/>
    <path fill="#ababab" opacity=".67" d="M85.35 80.17c4.02-.23 8.16-.53 12.1.52-3.99.08-8.35 1.22-12.1-.52z"/>
    <path fill="gray" opacity=".5" d="M29.92 82.06c.19.45.57 1.33.76 1.77 1.04-.21 2.09-.42 3.14-.62l-2.36 1.88c.89 1.11 1.92 2.1 3 3.02l-.69 1.28c-1.3-1.63-2.58-3.26-3.87-4.89l.4 4.79c-.45-.88-1.36-2.64-1.81-3.52-.37-.02-1.1-.05-1.47-.07 1.19-1.02 2.12-2.28 2.9-3.64z"/>
    <path fill="#c8c8c8" opacity=".78" d="M70.95 86.76c4.7 1.49 7.87 5.41 11.08 8.9l-.37 1.12c-3.67-3.23-7.24-6.58-10.71-10.02z"/>
    <path opacity=".95" d="M82.74 93.78c.25-.15.75-.44 1-.59 3.19 2.4 3.77 6.96 5.08 10.56-2.56-1.63-5.07-3.32-7.69-4.84l.01-.06c.16-.7.33-1.39.52-2.07l.37-1.12c.18-.47.53-1.41.71-1.88zM26.69 105.1c1.43-2.08 1.22-6.43 4.4-6.38-.28 1.08-.59 2.15-.92 3.21 1-1.18 2.04-2.34 3.09-3.47.35 3.82-2.53 6.63-5.03 9.05-.39-.6-1.15-1.81-1.54-2.41z" fill="#f1f1f1"/>
</svg>
