<svg width="128pt" height="128pt" viewBox="0 0 128 128" xmlns="http://www.w3.org/2000/svg">
    <g fill="#000">
        <path d="M57.13 56.91c4-4.12 8.01-8.24 12.23-12.14-.07 2.61-.16 5.22-.04 7.84.72-.03 2.17-.08 2.89-.1-1.17 4.53.11 10.14 5.31 11.47-5.32.63-9.79-2.04-14.54-3.81 2.31 1.24 4.7 2.35 7.02 3.58-2.5 2.78-4.47 5.97-6.86 8.83.93.22 2.78.65 3.71.87-.44.51-1.33 1.53-1.78 2.04 2.01.06 4.02.17 6.03.23-1.44-.41-2.89-.78-4.33-1.17.51-.53 1.52-1.59 2.02-2.12-1.38-.18-2.75-.36-4.12-.58 2.24-2.46 3.75-5.61 6.32-7.72 2.1-.14 4.2-.05 6.29.1 1.5.56 2.36 2.14 3.6 3.09l.04-1.49c-.63-.46-1.89-1.39-2.52-1.85 1.76-2.95 4.02-5.57 6.09-8.31 1.74-2.05 4.63-1.17 6.96-1.24.04 1.04.51 1.94 1.06 2.79-2.08.31-4.36.64-5.77-1.27.52 1.08 1.03 2.16 1.54 3.24-.54 0-1.62-.01-2.16-.02l-.04.5c1.42-.02 2.83-.02 4.25-.02.44 1.32 1.29 2.6 1.15 4.04-1.95-.87-3.6-2.23-5.27-3.54.42.99 1.25 2.99 1.67 3.99-2.38-.76-4.64-1.84-6.75-3.16.97 3.16 2.54 6.05 4.93 8.36-.81-.43-2.43-1.27-3.25-1.69-1.14 1.46-2.24 2.96-3.38 4.43 1.41.76 2.82 1.52 4.2 2.33-1.64.17-3.29.26-4.94.39 2.22 1.28 4.62 2.23 7.16 2.6-1.84 2.39-3.54 4.88-4.94 7.55-2.62-.15-4.18-2.91-6.84-2.77-4.36-.55-7.81 3.81-7.6 7.91-1.91-1.27-4.08-1.9-6.3-2.36 1.12-1.12 2.25-2.23 3.35-3.37-1.44-1.14-2.86-2.3-4.38-3.34 1.08 1.18 2.25 2.28 3.4 3.39-1.33 1.24-2.77 2.36-4.38 3.24 2.07.54 4.08 1.28 6 2.19-3.66 1.78-7.92 2.65-11.18 5.11 1.82.46 2.87 1.66 3.16 3.6-1.29-.54-2.57-1.13-3.74-1.89l-.44-.6-.55-.51c-5.31 2.13-10.37 5-15.93 6.43.09-2.53-.07-6.3-3.45-6.38-3.39-.44-5.24 2.63-5.99 5.44-.55-4.37-.64-8.77-1.89-13.01-.86-2.16.16-4.22 1.31-6.02-.21-.32-.61-.95-.82-1.27 2.1-4.03 5.26-7.39 8.6-10.43.07.9.22 2.69.29 3.59 2.07-1.27 4.12-2.55 6.12-3.93l.2-2.83c2.97-2.21 6.5-4.08 8.18-7.54.41.31 1.23.94 1.63 1.25 2.4-2.77 4.93-5.44 7.43-8.12l.04 4.18m-8.53 6.4c-.11.53-.34 1.6-.46 2.14.5.39 1.48 1.17 1.97 1.57-.85 1.69-4.32 3.63-1.24 4.94 1.03-1.37 2-2.79 3.23-3.99 1.33.55 2.56 1.29 3.81 1.98 1.65-1.86-.44-2.7-1.91-3.57.53-1.27 2.42-2.53 1.11-3.98-.98.85-1.96 1.72-2.92 2.6-1.19-.58-2.38-1.15-3.59-1.69M32.86 80.17c3.79-3.28 7.85-6.31 11.32-9.94-3.97 3.06-8.09 6.08-11.32 9.94m19.79-3.35c-.86 2.03-2.71 2.58-4.77 2.55-.03.47-.1 1.41-.13 1.87l-.67.67c-3.36.91-9.06-1.56-11.43 2.11.21 1.31 1.48 2.02 2.21 3.03 2.46 2.93 3.53 6.75 5.98 9.69 4.75-3.2 4.56-9.27 3.88-14.28.77.45 2.3 1.35 3.07 1.79l-.2-2.83c1.18.59 2.36 1.16 3.55 1.72-.38-1.76-1.02-3.44-1.75-5.08 4.93-.03 9.82.71 14.53 2.16-.92-.9-1.09-3.1-2.76-2.92-3.83-.27-7.67-.48-11.51-.48m-24.12 3.34c.93 1.15 1.21 2.49.91 3.94-1.18.16-2.33.44-3.45.84-.93 1.98-.16 4.09.34 6.07 2.41.61 4.36 2.29 6.66 3.2-.57-1.09-1.16-2.17-1.75-3.25 1.87.18 2.85-.67 2.93-2.57.8.35 1.6.71 2.4 1.07-.77-1.85-1.5-3.71-2.29-5.55-.26-.4-.78-1.19-1.04-1.59-.62.42-1.84 1.24-2.46 1.65-2.51-1.15.71-4.14.93-5.99-1.07.71-2.12 1.45-3.18 2.18zm64.76-23.73c-.02-.49-.08-1.47-.11-1.96.47.38 1.41 1.13 1.88 1.51-.44.11-1.32.34-1.77.45zm4.11 1.01c.56.55.56.55 0 0z"/>
        <path d="M88.02 57.97c2.14-.18 4.27-.39 6.41-.59 1.12.92 2.12 1.96 3.13 2.99-1.22-.41-2.44-.82-3.65-1.24-.89.15-1.78.28-2.67.4-1.3.01-2.37-.51-3.22-1.56z"/>
        <path d="M96.9 61.81c.94-.64 1.87-1.29 2.82-1.92.3.14.89.44 1.19.59l-.73.68c-1 1.19-1.1 2.5-.3 3.93-2.25 1.56-4.69 1.82-7.11.5-1.84.48-3.84 1-4.98-1.08 2.9-.22 5.86-.18 8.67.65l-.47-1.27c.57.37 1.7 1.13 2.27 1.51.2-1.04.36-2.08.48-3.12-2.39.81-5.06 1.14-6.71-1.22 1.63.22 3.25.47 4.87.75zm-13.33 3.52c.6-.13 1.79-.41 2.39-.54 1.85.1 3.25 1.6 4.98 2.12-.82.59-1.65 1.16-2.49 1.7.74.63 1.33 1.36 1.78 2.2l-.08.47c-.88-.08-2.63-.24-3.5-.33.25-.71.76-2.14 1.02-2.85-1.38-.9-2.75-1.82-4.1-2.77z"/>
        <path d="M91.2 70.03c-.02-1.73 2.02-2.52 2.96-3.72 2.37 1.35 3.97 3.55 5.67 5.6l-.9.09c-2.52.2-5.28.86-7.51-.75 1.55.13 3.11.24 4.67.34.19-.69.57-2.05.76-2.74-1.88.42-3.75.87-5.65 1.18zm7.19-.69c-1.15-1.14-1.02-1.95.37-2.44 1.51.98 1.39 1.79-.37 2.44zm-5.01 6.59c1.23-.98 2.45-1.98 3.68-2.97.35.26 1.06.78 1.42 1.05l1.11.83-3.4-.37c.8.63 2.42 1.9 3.23 2.53-2.02-.33-4.02-.73-6.04-1.07zm.15 8.45c1.36-1.14 2.53-1.03 3.16.88-1.85.3-3.69.65-5.53.98l-.03.59c.76-.14 2.27-.44 3.03-.59l-.8 3.33c-1.74-.25-3.47-.56-5.14-1.14.11-.52.33-1.58.44-2.1l-1.39.76v-2.88c2.08.2 4.17.12 6.26.17zm-10.69-.09c1.39-.36 4.63-.12 4 2.01-1.38 1.18-3.84-.69-4-2.01zm-4.31 1.17c1.49.02 3.12-.44 4.46.5.22.5.67 1.5.89 2.01.9 1.11 1.84 2.2 2.76 3.31-3.16 1.41-4.07-2.07-5.43-3.91-.9-.63-1.8-1.26-2.68-1.91z"/>
        <path d="M85.6 87.48c1.33-.61 3.17 1.15 2.93 2.43-1.2.28-3.64-.97-2.93-2.43zm-23.2 3.23c2.18-.1 4.4-.19 6.47.68l-1 3.43c-.97-1.08-1.9-2.21-2.92-3.25.18 1.51 2.06 2.97.98 4.51-1.9.96-4.41.91-5.21-1.55-.54.51-1.63 1.53-2.17 2.04l-1.45 2.29c-.58-1.77-1.55-3.45-1.66-5.34.55.37 1.66 1.11 2.21 1.48-.01-.54-.05-1.61-.07-2.14.97.3 1.93.6 2.9.91-.05-.53-.16-1.58-.22-2.1 2.85-.48 2.43 3.22 3.75 4.78.02-2.04-.93-3.87-1.61-5.74zm6.73 1.9l1.19-.99c.11.93.35 2.8.46 3.74l.16-3.12c.79.72 1.58 1.44 2.36 2.18-1.51.41-3.19 2.25-4.63.69.12-.62.35-1.87.46-2.5z"/>
    </g>
    <path fill="#939393" opacity=".58" d="M93.18 54.47c2.51.12 4.96.67 7.33 1.5.04.82.13 2.44.18 3.25l-.97.67c-.95.63-1.88 1.28-2.82 1.92-1.62-.28-3.24-.53-4.87-.75 1.65 2.36 4.32 2.03 6.71 1.22-.12 1.04-.28 2.08-.48 3.12-.57-.38-1.7-1.14-2.27-1.51l.47 1.27c-2.81-.83-5.77-.87-8.67-.65-.62.06-1.23.15-1.83.28-.6.13-1.79.41-2.39.54 1.35.95 2.72 1.87 4.1 2.77-.26.71-.77 2.14-1.02 2.85.87.09 2.62.25 3.5.33l.08-.47c.24-.2.73-.59.97-.78 1.9-.31 3.77-.76 5.65-1.18-.19.69-.57 2.05-.76 2.74-1.56-.1-3.12-.21-4.67-.34 2.23 1.61 4.99.95 7.51.75-.11.5-.34 1.5-.45 2.01-.36-.27-1.07-.79-1.42-1.05-1.23.99-2.45 1.99-3.68 2.97-2.07-.94-4.06-2.1-6.25-2.7-1.82.38-3 1.47-3.54 3.28.57.22 1.69.67 2.26.89-2.54-.37-4.94-1.32-7.16-2.6 1.65-.13 3.3-.22 4.94-.39-1.38-.81-2.79-1.57-4.2-2.33 1.14-1.47 2.24-2.97 3.38-4.43.82.42 2.44 1.26 3.25 1.69-2.39-2.31-3.96-5.2-4.93-8.36 2.11 1.32 4.37 2.4 6.75 3.16-.42-1-1.25-3-1.67-3.99 1.67 1.31 3.32 2.67 5.27 3.54.14-1.44-.71-2.72-1.15-4.04l.91-.12c.89-.12 1.78-.25 2.67-.4 1.21.42 2.43.83 3.65 1.24-1.01-1.03-2.01-2.07-3.13-2.99-.28-.23-.85-.71-1.14-.95.45-.11 1.33-.34 1.77-.45-.47-.38-1.41-1.13-1.88-1.51m4.22 2.97c.56.55.56.55 0 0M81.7 71.5c2.12.8 4.27 1.76 6.61 1.51-1.89-1.22-4.98-4.76-6.61-1.51m7.58.75c-.32 1.51 2.19 2.61 3.34 1.83-.01-1.34-2.18-2.36-3.34-1.83z"/>
    <path opacity=".15" d="M32.86 80.17c3.23-3.86 7.35-6.88 11.32-9.94-3.47 3.63-7.53 6.66-11.32 9.94zm19.79-3.35c3.84 0 7.68.21 11.51.48 1.67-.18 1.84 2.02 2.76 2.92-4.71-1.45-9.6-2.19-14.53-2.16.73 1.64 1.37 3.32 1.75 5.08-1.19-.56-2.37-1.13-3.55-1.72l.2 2.83c-.77-.44-2.3-1.34-3.07-1.79.01-.3.02-.91.03-1.22.03-.46.1-1.4.13-1.87 2.06.03 3.91-.52 4.77-2.55z" fill="#262626"/>
    <path fill="#ededed" opacity=".93" d="M81.7 71.5c1.63-3.25 4.72.29 6.61 1.51-2.34.25-4.49-.71-6.61-1.51z"/>
    <path fill="#fbfbfb" d="M89.28 72.25c1.16-.53 3.33.49 3.34 1.83-1.15.78-3.66-.32-3.34-1.83z"/>
    <path fill="#b8b8b8" opacity=".72" d="M87.12 90.17c1.89.15 3.81.61 5.71.21.33 1.31-.37 2.34-1.21 3.26.28.78.56 1.55.84 2.33-.65.91-1.95 2.72-2.61 3.63-.18-1.59-.43-3.17-.75-4.73-.48 1.39-.75 2.83-.83 4.32-1.43-2.5-2.99-4.92-4.44-7.41 1.82-.74 3.22-.38 4.19 1.1-.23-.68-.68-2.03-.9-2.71z"/>
</svg>
