<svg width="128pt" height="128pt" viewBox="0 0 128 128" xmlns="http://www.w3.org/2000/svg">
    <g fill="#fff">
        <path d="M50.03 31.07c5.27-3.52 11.47-6.66 18-5.86 4.76 1.26 9.28 3.52 13.13 6.59 4.46 4.22 5.3 10.76 6.42 16.5-2.88 1.62-6.23 3.91-5.22 7.77.89.81 1.76 1.63 2.66 2.44-1.15-1.92-3.02-4.26-1.24-6.44 1.66-1.5 3.82-3.82 6.28-2.97 3.25 1.9 6.18 4.89 7.07 8.64.48 3.18-1.93 5.87-4.38 7.5-2.61 1.2-5.49.2-8.2.02 2.28 1.26 4.88 1.79 7.47 1.38-.17 1.47-.33 2.93-.48 4.4-5.48-1.46-11.86.34-14.82 5.41 3.09-3.5 7.84-5.21 12.43-4.1 2.41.14 4.26 2.16 4.62 4.47.61 4.16-.73 8.41-2.87 11.95-3.62 4.55-10.83 6.65-15.89 3.26-1.64-1.96-1.71-4.63-2.03-7.04-.2 1.38-.32 2.77-.45 4.16-4.94 1.33-10.17 1.25-15.16.26-.1-1.23-.29-2.45-.53-3.66-.45 2.34-.39 5.14-2.18 6.93-4.39 2.33-9.95 1.3-13.72-1.77-2.59-2.23-3.79-5.59-4.62-8.81-.48-2.93-.62-6.62 2.05-8.6 4.43-2.38 10.26-1.55 13.9 1.93-2.91-4.9-9.05-5.66-14.12-4.18.09-1.48.2-2.96.3-4.43 1.76-.05 3.51-.14 5.25-.39.26-.25.77-.75 1.03-1-2.39.41-4.96 1.04-7.29.11-2.53-1.63-5.24-4.32-4.52-7.62.69-3.37 3.17-6.22 6.17-7.81 2.83-.85 6.25.46 7.91 2.88.7 2.68-1.56 4.59-2.8 6.67 1.78-1.7 4.51-3.79 3.51-6.6-.68-2.25-3.28-2.91-5.11-3.95.68-6.44 1.96-13.86 7.43-18.04m22.33 24.52c1.21-2.81 3.17-5.09 6.49-4.47-.97-.64-1.92-1.31-2.88-1.95-2.6 1.11-3.5 3.75-3.61 6.42m-20.66-4.5c3.14-.09 4.76 2.35 6.29 4.67-.48-1.92-.47-4.33-2.31-5.55-1.33-1.07-2.81.23-3.98.88m12.14 15.23c5.52-.13 10.27-3.79 13.23-8.25-3.76 3.57-8.52 7.21-14.05 6.18-4.13-.24-7.06-3.38-9.94-5.95 2.26 4.04 6.15 7.16 10.76 8.02M40.7 79.74c2.11-1.62 4.37-3.02 6.53-4.56-3.05-.04-5.34 1.87-6.53 4.56m43.02-3.51c2.12.78 4.11 1.84 6.1 2.88-1.24-1.97-3.67-4.71-6.1-2.88z"/>
        <path d="M56.76 90.01c5.29 1.57 11.03 1.34 16.32-.12.11.48.32 1.44.43 1.93-2.71 2.66-4.87 6.12-8.31 7.88-3.79-1.01-6.23-5.01-8.69-7.92.06-.44.19-1.33.25-1.77m3.95 2.17c2.46 1.81 5.7 1.55 8.11-.22-1.06.2-3.18.59-4.24.78-1.28-.22-2.58-.41-3.87-.56z"/>
    </g>
</svg>
