<svg width="128pt" height="128pt" viewBox="0 0 128 128" xmlns="http://www.w3.org/2000/svg">
    <g fill="#ad2429">
        <path d="M61.98 15.63c-.57-1.88-.66-5.46 2-5.72 2.27-.51 3.27 2.09 3.48 3.85-.48.17-1.44.52-1.92.69-.14-.69-.41-2.07-.55-2.77-2.36-.05-1.5 2.85-3.01 3.95zM62.47 16.38c1.07-.24 3.35-2.29 3.59-.21-.5 2.27 1.15 3.95 2.29 5.64-.31.01-.95.01-1.27.01-1.12-.4-2.17-.95-3.2-1.53l-.52 1.25-1.48.79-1.93-.31c1.16-1.63 3.57-3.34 2.52-5.64zM40.74 32.96c.84-3.6 5.1-4.4 8.24-4.43 3.04.19 6.59.87 8.45 3.54-3.95-.64-8.14-3.06-12.02-.63-3.13 1.29-2.17 5.76.69 6.87-.38-1.62-1.59-3.71.03-5.09 2.26-2.29 5.89-1.37 8.69-1.17-2.31 1.95-5.95.01-7.75 3.01 1.74 1.67.04 3.37-.73 4.86-.45-.37-1.37-1.11-1.82-1.48.07.95.22 2.83.3 3.77-.42-.38-1.26-1.13-1.68-1.51-.13-.17-.39-.52-.53-.69l-.66-.75-2.82-.25c1.5-.91 3.08-2.99 4.87-.25-1.4-1.67-3.87-3.25-3.26-5.8zM73.39 32.01c2.91-.06 6.73-.7 8.71 2 1.62 2.29-1.26 3.76-2.68 5.01.88-1.56 1.96-4.23-.33-5.18-1.69-1.11-3.76-.67-5.63-.46l-.07-1.37zM61.75 67.64c1.81-.34 3.65-.14 5.47-.14-.42 3.82-2.09 7.69-.32 11.45-.34 6.18.16 12.48-.68 18.7l-1.31.31c-1.19.57-1.44 1.6-.75 3.07l.05.3c-.8 1.03-1.37 2.18-1.69 3.47l-.87.03c.46-1.26.76-2.55.91-3.87.12-.78.21-1.56.24-2.35.07-.59.19-1.79.25-2.38.68-1.25 1.47-2.43 2.12-3.69 2.36-5.27-.13-11.01-.16-16.48-.48.24-1.43.72-1.91.96-.01.6-.02 1.79-.03 2.39L62 80.53c-.58-2.5 1.03-4.94.44-7.43-.18-1.83-1.75-3.65-.69-5.46z"/>
    </g>
    <g fill="#b02429">
        <path d="M57.14 19.77c1.33 1.25 2.71 2.45 4.06 3.68.41-.17 1.23-.53 1.64-.7l.52-1.21.52-1.25c1.03.58 2.08 1.13 3.2 1.53.32 0 .96 0 1.27-.01 1.52.48 1.85-2.9 2.96-1.26 2.7 3.2-1.36 6.76-4.44 7.45-.85-.88-1.69-1.77-2.49-2.7-1.01.96-2.07 1.86-3.14 2.74-1.63-.98-3.79-1.57-4.62-3.48-1.04-1.55.11-3.25.52-4.79zM55.69 118.58c-1.44 1.25-5.1-1.24-2.7-2.45 1.02.53 1.97 1.18 2.82 1.96l-.12.49z"/>
    </g>
    <g fill="#b52329">
        <path d="M57.47 32.35c1.76-2.89 5.01-4.07 7.29-6.42.06 2.21 2.36 2.66 3.95 3.21-.4 1.58-1.6 2.74-2.58 3.97 1.31-.88 2.5-1.91 3.6-3.03.17.51.5 1.55.66 2.07 4.16-4.42 12.69-4.74 16.69.11-1.33-.02-2.66-.03-3.99-.05-3.53-2.66-8.19-1.44-11.92.08.57.39 1.72 1.19 2.3 1.59-.79 2.14-2.62 3.99-5.04 4.01-1.58-1.31-2.91-2.88-4.02-4.6-1.17-.47-1.05 1.86-1.55 2.5-1.51 1.29-3.72 1.58-4.84 3.34l-.02-.01-.19-.28-1.23-.16c-.06-.36-.18-1.08-.24-1.43.11-2.02-2.63-4.86 1.13-4.9m2.65-1.3c-.16 1.38.46 1.96 1.85 1.73.16-1.37-.46-1.95-1.85-1.73zM59.22 103.42c.17.34.49 1.01.65 1.34l.34.76c-.81 4.39-2.54 8.54-4.4 12.57-.85-.78-1.8-1.43-2.82-1.96 2.69-3.9 4.99-8.11 6.23-12.71z"/>
    </g>
    <path fill="#4b100e" opacity=".72" d="M60.12 31.05c1.39-.22 2.01.36 1.85 1.73-1.39.23-2.01-.35-1.85-1.73z"/>
    <g fill="#b52429">
        <path d="M84.06 32.58c1.18.14 2.37.26 3.56.38-.2 2.06-1.18 3.45-2.95 4.16.49.39.97.77 1.47 1.15 6.54-4.49 17.18 1.78 15.7 9.86-1.28 8.6-14.06 11.35-19.2 4.63-1.16 1.11-2.61 1.77-4.2 2.03-1.59-1.37-3.4-2.74-4.02-4.85.33-.11.98-.32 1.3-.43l1.3.04c1.04-.93 2.06-1.87 3.1-2.79-2.63-.38-4.37-2.33-5.52-4.58.33-.45 1-1.35 1.33-1.8-.4.43-1.19 1.27-1.58 1.69-.82-.27-2.46-.82-3.27-1.1.34-1.28-.26-2.09-1.79-2.43 2.06-1.07 3.92-2.5 5.4-4.29.14 2.19 2.36 2.82 4.01 3.54-.65 1.1-1.25 2.23-1.81 3.38 1.03-1.06 2.24-1.85 3.63-2.36.21.55.62 1.65.83 2.2 2.62 1.45.62 3.62-.7 5.16 1.32-.72 2.61-1.51 3.8-2.43 1.21 1.15 2.66 2.03 3.81 3.25-.92 2.39-3.41 3.2-5.63 3.92 1.04.34 3.11 1 4.15 1.33l.07.99-2.41.52c3.82 1.17 8.58 1.36 11.48-1.89 3.36-2.91 2.81-8.65-.77-11.15-2.5-1.96-5.94-2.24-8.94-1.43l-.65.66c-.23.14-.67.42-.9.56-.44.16-1.33.5-1.77.66L84.76 40c-.83-.39-1.66-.77-2.51-1.12.63-2.08 3.27-3.63 1.81-6.3m-3.98 15.65c-.24 1.38.34 1.93 1.73 1.66.23-1.38-.34-1.94-1.73-1.66zM64.91 97.96l1.31-.31c-.47 7.44-2.55 14.66-5.41 21.52-1.31-.29-2.54-.81-3.65-1.57 2.82-3.43 4.6-7.51 6.16-11.62.61-1.47 1.01-3.05.89-4.65l-.05-.3c1.07-.75 1.32-1.78.75-3.07z"/>
    </g>
    <g fill="#c62831">
        <path d="M53.9 34.5c.89.84 1.88 1.62 2.44 2.75.06.35.18 1.07.24 1.43l1.23.16.19.28c-.4 1.01-1.27 1.73-1.91 2.6 1.77-.99 4.14-2.45 5.45.05-.09-.73-.17-1.46-.21-2.19-.52-.28-1.55-.82-2.06-1.09 2.18-1.03 4.29-2.34 5.65-4.4.16.91.48 2.72.63 3.63 1.33-.36 2.38-.05 3.16.94-.91 1.03-1.85 2.05-2.65 3.17 1.02-.64 1.92-1.42 2.69-2.34 1.33 1.16 2.9 1.93 4.53 2.56.3 1.78-1.69 2.67-2.33 4.12 1.2-.65 2.08-2.81 3.7-1.95 1.32.97 3.67 1.57 3.55 3.59-.62.43-1.86 1.28-2.48 1.7-.32.11-.97.32-1.3.43-1.77 1.71-2.55 4.87-5.66 4.92-.73 2.44-2.97 3.57-5.15 4.47l-1.96-1.72c-.69-.81-1.39-1.61-2.1-2.41 2.58-.88 4.71-2.73 5.52-5.38-1.52.16-1.78 1.75-2.5 2.78-.72 1.46-2.48 1.72-3.85 2.22-.09.45-.27 1.35-.36 1.79-1.36.93-2.7 2.2-4.45 2.26-1.84-.47-3.13-2.06-4.94-2.62.09-.85.41-1.61.95-2.25-1.68.94-3.04-.34-4.39-1.22-4.73 6.07-15.99 4.51-18.66-2.81-2.03-4.6.82-10.04 5.21-12 2.37-1.25 5.14-1.07 7.72-1.09-1.16 1.35-2.7 2.17-4.4 2.62-3.7.95-6.07 4.99-5.35 8.7 1.28 5.38 8.86 8.38 13.17 4.97-4.68 1.8-11.15-1.67-10.52-7.1.29-4.79 5.73-7.01 9.91-6.06.14.17.4.52.53.69-3.03.43-6.89 1.21-7.65 4.76-1.94 5.21 7.22 9.58 9.71 4.76-.77-.06-2.31-.17-3.08-.23-.76-1.15-2.61-2.15-2.11-3.75 3.29-.85 4.51-4.45 7.65-5.54.6-.68 1.3-1.16 2.08-1.47.23.49.68 1.47.9 1.96.8.14 2.4.41 3.2.54-.77 1.56-1.72 3.03-2.79 4.41 1.48-1.04 3.37-2.28 3.72-4.13-2.46-.32-4.08-1.71-4.77-4.11 1.43-.93 3.86-1.2 3.9-3.4m7.29 11.37c1.62-.21 3.89-2.22 3.62-3.97-1.89-.63-3.11 2.69-3.62 3.97m-16.05-1.92c-.1 1.37.56 1.97 1.96 1.8.09-1.38-.57-1.98-1.96-1.8m9.98.19c-.29 1.37.27 1.96 1.65 1.78.29-1.38-.26-1.97-1.65-1.78m10.02-.1c-.12 1.41.51 1.98 1.89 1.71.1-1.39-.54-1.96-1.89-1.71m-18.92 6.11c1.36-.8 2.54-1.86 3.53-3.08.31 1.28 1 2.31 2.08 3.08-.66-1.49-1.49-2.88-2.31-4.28-1.58.98-2.08 2.94-3.3 4.28m9.93 0c1.36-.78 2.59-1.77 3.58-3 .34 1.33 1.13 2.31 2.36 2.95-1.01-1.35-1.93-2.78-2.66-4.3-1.13 1.42-2.07 2.98-3.28 4.35m10.16.05c1.01-.73 1.83-1.62 2.48-2.69 1 .84 1.97 1.72 2.99 2.55-.56-1.62-1.38-3.13-2.73-4.22-.82 1.51-2.01 2.79-2.74 4.36m-14.52 4.02c1.24-.55 2.08-1.53 2.53-2.93 1.16.52 1.43 1.99 2.3 2.84-.51-1.64-1.4-3.13-2.64-4.32-.6 1.53-1.29 3.03-2.19 4.41m13.3-2.11c-.29 1.37.25 1.97 1.65 1.82.3-1.36-.25-1.97-1.65-1.82z"/>
        <path d="M46.01 56.54c1.36.96 1.2 2.32.21 3.55-.05 4.7 7.43 5.83 9.73 2.73l.18-.74.34.14c.4.15 1.21.47 1.61.63-3.13 3.94-10.43 5.14-13.41.49-1.77-2.23.22-4.82 1.34-6.8z"/>
    </g>
    <path fill="#330a0a" opacity=".55" d="M82.25 38.88c.85.35 1.68.73 2.51 1.12l-1.87 1.16c.44-.16 1.33-.5 1.77-.66-.07 1.08-.16 2.16-.21 3.24-1.19.92-2.48 1.71-3.8 2.43 1.32-1.54 3.32-3.71.7-5.16.22-.53.68-1.6.9-2.13z"/>
    <path fill="#b0222c" opacity=".98" d="M84.66 40.5c.23-.14.67-.42.9-.56 2.17-.19 4.51-.29 6.45.89 3.52 1.79 4.8 7.13 1.86 10.01-1.63 2.23-4.43 2.71-6.98 3.09.05-2.15 2.55-2.03 3.82-3.1 1.84-1.42 2.93-4.13 1.62-6.26-1.25-3.08-4.89-3.35-7.67-4.07z"/>
    <path fill="#400d0b" opacity=".57" d="M61.19 45.87c.51-1.28 1.73-4.6 3.62-3.97.27 1.75-2 3.76-3.62 3.97z"/>
    <path fill="#69130e" opacity=".72" d="M45.14 43.95c1.39-.18 2.05.42 1.96 1.8-1.4.17-2.06-.43-1.96-1.8z"/>
    <path fill="#82191e" opacity=".82" d="M55.12 44.14c1.39-.19 1.94.4 1.65 1.78-1.38.18-1.94-.41-1.65-1.78z"/>
    <path fill="#6d1617" opacity=".78" d="M65.14 44.04c1.35-.25 1.99.32 1.89 1.71-1.38.27-2.01-.3-1.89-1.71z"/>
    <path fill="#56100d" opacity=".81" d="M80.08 48.23c1.39-.28 1.96.28 1.73 1.66-1.39.27-1.97-.28-1.73-1.66z"/>
    <path fill="#5f1315" opacity=".74" d="M65.09 52.11c1.4-.15 1.95.46 1.65 1.82-1.4.15-1.94-.45-1.65-1.82z"/>
    <path fill="#bd2429" d="M73.2 52.58c.7.1 2.12.29 2.82.38l-.65 1.59c1.31-.19 2.16.2 2.56 1.17-.47 3.55-4.27 2.82-6.81 2.34.36-1.33-.25-2.19-1.85-2.56 1.37-.86 3.03-1.46 3.93-2.92z"/>
    <g fill="#bd2431">
        <path d="M81.14 59.1c-.17-.91-3.26-2.93-1.28-3.08 2.82 1.14 4.66 4.91 3.04 7.68-2.81 3.84-8.71 3.41-12.07.55-2.06-1.74-5.83-2.06-6.15-5.31 1.53-.51 3.32-.88 4.09-2.52 1.38 1.36 3.05 2.34 4.9 2.92-.86 1.07-1.64 2.2-2.35 3.37l.63.54.21.47c3.42 2.36 10.44.51 8.98-4.62zM58.36 56.61c1.77.87 3.52 1.78 5.25 2.72l-.82.48c-1.09.18-3.45 1.11-2.09 2.46l.59.71c1.06-.87 2.04-1.84 3.02-2.8 1.55 1.34 2.62 3.15 4.22 4.45-1.26 2.13-3.61 2.58-5.87 2.68-1.36-1.09-2.5-2.41-3-4.12-.4-.08-1.19-.26-1.58-.34-.4-.16-1.21-.48-1.61-.63l-.34-.14c-.51-.99-.95-2.02-1.32-3.06 1.25-.63 3.2-.69 3.55-2.41z"/>
    </g>
    <path fill="#c0262c" opacity=".93" d="M48.57 56.45l1.49.64c-1.38 1.81-.27 4.49 2.01 4.63.5-.32 4.51.75 2.07 1.31-1.63.35-3.16.16-4.58-.56l-.58-.46c-.13-.14-.38-.43-.51-.58-1.52-1.43-.03-3.34.1-4.98z"/>
    <path fill="#b22329" opacity=".95" d="M77.65 57.99c.5.02 1.51.05 2.01.07l-.28 3.02c-1.1 2.09-3.37 2.17-5.45 1.91l-1-.06c.07-1.56 2.51-.83 3.53-1.27 1.62-.81 2.02-2.03 1.19-3.67z"/>
    <path fill="#110304" opacity=".22" d="M79.38 61.08c.57-.67 1.16-1.33 1.76-1.98 1.46 5.13-5.56 6.98-8.98 4.62l-.21-.47.98-.32 1 .06c2.08.26 4.35.18 5.45-1.91z"/>
    <path fill="#e72c31" d="M60.7 62.27c-1.36-1.35 1-2.28 2.09-2.46.19 1.43-.51 2.25-2.09 2.46z"/>
    <path fill="#360b0b" opacity=".71" d="M48.47 61.43c.13.15.38.44.51.58-.13-.14-.38-.43-.51-.58z"/>
    <path fill="#2c0909" opacity=".57" d="M48.98 62.01l.58.46-.58-.46z"/>
    <path fill="#69161a" opacity=".8" d="M62 80.53l1.07-1.12c1.2.71 1.83 1.7 1.87 2.97-.67 2.07-1.26 4.18-1.98 6.23-1.63 3.11-1.04 6.76-.16 10-.03.79-.12 1.57-.24 2.35-.28-.14-.84-.41-1.11-.55-.92 1.26-.46 3-.23 4.41l-1.35-.06c-.16-.33-.48-1-.65-1.34C61.07 95.93 61.4 88.2 62 80.53z"/>
    <path fill="#be262c" d="M64.94 82.38c.85 3.32.41 6.78.23 10.16-.65 1.26-1.44 2.44-2.12 3.69.02-2.54-.09-5.08-.09-7.62.72-2.05 1.31-4.16 1.98-6.23z"/>
    <path fill="#0e0203" opacity=".45" d="M62.8 98.61c-.88-3.24-1.47-6.89.16-10 0 2.54.11 5.08.09 7.62-.06.59-.18 1.79-.25 2.38z"/>
    <path fill="#180405" opacity=".57" d="M64.16 101.03c-.69-1.47-.44-2.5.75-3.07.57 1.29.32 2.32-.75 3.07z"/>
    <path fill="#060101" opacity=".15" d="M61.45 100.41c.27.14.83.41 1.11.55-.15 1.32-.45 2.61-.91 3.87l-.43-.01c-.23-1.41-.69-3.15.23-4.41z"/>
    <path fill="#31090a" opacity=".52" d="M62.52 104.8c.32-1.29.89-2.44 1.69-3.47.12 1.6-.28 3.18-.89 4.65-.55.45-1.65 1.35-2.21 1.8-.22-.56-.68-1.69-.9-2.26l-.34-.76 1.35.06.43.01.87-.03z"/>
</svg>
