<svg width="128pt" height="128pt" viewBox="0 0 128 128" xmlns="http://www.w3.org/2000/svg">
    <g fill="#fff">
        <path d="M64.54 25.79c.68 2 2.48 2.95 4.32 3.7-1 1.33-2.01 2.65-2.94 4.02 1.49-1.13 2.84-2.42 4.21-3.68l-.34 2.56c4.62-4.26 13.03-5.2 17.36-.05.15 2.2-.62 4.12-2.35 5.52l1.13.26c-2.34-.01-4.29 1.58-6.61 1.73 1.52.91 3.02 1.87 4.49 2.87-1.21 1.21-2.48 2.37-4.04 3.1-2.02.64-2.29 3.35-4.43 3.82-1.89 1.11-3.53-.81-5.17-1.44.3 1.47 2.19 1.86 3.15 2.84-.82 2.26-2.75 4.02-5.29 3.88-1.09-1.43-2.28-2.79-3.81-3.77 4.01-1.39 5.86-5.68 9.81-7.1 1.29.2 1.98 1.57 3.02 2.23-.62-1.33-1.52-2.56-1.89-4 1.17-.7 2.36-1.38 3.43-2.25.66-1.57 1.74-2.94 2.32-4.55-1.57-2.72-4.8-2.59-7.48-2.37-.18.64-.54 1.94-.72 2.58-1.26.75-2.52 1.51-3.83 2.17-1.84-1.14-3.62-2.62-4.37-4.72l-1.17.46c-.78-.88-1.6-1.71-2.46-2.5-.19.07-.57.2-.76.27 1 1.47 2.97 2.24 3.17 4.2-1.48.91-2.96 1.94-4.74 2.18-1.56-1.15-2.88-2.59-4.43-3.76 2.57-.9 4.68-2.3 6.12-4.67 1.83-.63 3.18-2.01 4.3-3.53m17.04 7.27c.34.74.69 1.48 1.04 2.22-.5 1.3-.98 2.6-1.45 3.92 1.95-1.26 4.31-3.79 2.78-6.24-2.61-3.28-7.51-2.31-11.08-1.84 2.66 1.59 5.99.4 8.71 1.94m-9.23-.71c.32.32.32.32 0 0z"/>
        <path d="M42.36 30.52c4.23-2.95 10.35-2.3 14.49.54v.82c-2-.07-3.77-1.29-5.77-1.5-2.52-.56-4.9.68-7.11 1.72-1.32 2.12.13 3.91.7 5.83-1.67.5-2.54-1.67-3.74-2.41-.11-1.76-.32-3.94 1.43-5zM54.42 34.75c1.2 1.45 2.77 2.5 4.31 3.54-1.03 1.28-1.79 3.06-3.67 3.18-2.68.56-4.2-1.72-5.01-3.87 1.82-.35 3.38-1.22 4.37-2.85zM72.48 37.05c.6-.88 1.19-1.78 1.76-2.67.98 1.75 2.58 2.88 4.46 3.49-1 3.53-5.92 5.85-7.94 1.73-.28.43-.55.87-.83 1.3.94.24 2.83.7 3.77.94-.33.61-1 1.83-1.33 2.45-2.15 1.23-4.18 2.58-5.58 4.67-1.61 2.08-4.16.95-5.86-.31-1.57-3.32 3.21-4.09 4.52-6.45 2.75-1.2 4.13-4.21 7.03-5.15M65 43.61c-.34 1.35.17 2.01 1.53 1.96-.22-.53-.66-1.6-.87-2.13l-.66.17z"/>
        <path d="M59.5 37.96c2.02-.55 4.03-1.23 5.02-3.26 1.14 1.43 2.64 2.49 4.16 3.49-1.26 1.55-2.31 4.21-4.75 3.66-2.26.2-3.07-2.6-4.43-3.89zM26.8 43.82c2.14-6.35 11.32-9.3 16.45-4.79-4.96-.96-11.76.17-13.16 5.89-1.67 6.6 6.2 11.3 12 9.49l-1.35 1.83c-3.46.29-7.32.45-10.22-1.81-3.58-2.13-4.89-6.74-3.72-10.61zM85.93 38.12c6.8-3.95 17.36 1.67 15.95 9.99-1.39 8.65-13.48 10.92-19.19 4.99-2.51 2.18-7.3 2.01-7.07-2.16 2.49-2.79 5.77-4.92 8.5-7.54 1.14 1.53 2.86 2.4 4.41 3.42-1.14 2.78-4.6 2.87-5.89 5.41 2.32-.07 4.64-.09 6.95-.26 2.13-1.86 4.75-4.57 2.93-7.58-1.99-4.14-6.88-3.12-10.6-3.19 1.28-1.09 2.58-2.18 4.01-3.08m-1.31 1.65c2.9.4 6.3-.32 8.6 1.96 2.45 1.91 2.66 5.27 1.78 8.03-2.6 3.52-6.94 4.36-11.04 3.43 4.69 2.84 11.33 1.41 13.96-3.53.57-2.71.62-5.91-1.62-7.91-2.75-3.42-7.91-3.59-11.68-1.98m-4.68 8.17c-.21 1.33.37 1.91 1.75 1.75.17-1.37-.42-1.95-1.75-1.75z"/>
        <path d="M35.95 41.05c2.51-1.77 5.96-.28 8.3-2.4.86 1 1.76 1.96 2.66 2.92.79-.99 1.71-1.78 2.77-2.37.64 1.94 2.66 2.23 4.4 2.61-1 1.36-2.02 2.7-3.16 3.95l.42.59c2.28-2.95 5.59-4.75 7.93-7.54 1.22 1.62 2.8 2.89 4.34 4.18-2.73 2.37-5.92 4.09-7.61 7.45 1.28-.56 2.29-2.16 3.72-2.11 1.15 1 2.35 1.96 3.72 2.66-.62 1.72-2.03 3.43-3.99 3.56-2.19-.49-3.65-2.31-4.7-4.17-2.66-.5-4.08-2.92-5.7-4.82-.94 1.7-1.95 3.38-2.98 5.04 1.35-.81 2.37-1.9 3.08-3.28 1.21 1.6 2.47 3.39 4.65 3.55l-2.72 4.28c.76-.94 2.27-2.81 3.03-3.74 1.46 1.52 3.1 2.87 4.49 4.46-.69.7-2.09 2.09-2.79 2.79-3.14.33-5.29-1.74-7.38-3.72l2.65-.34c-1.93-.25-3.82-.69-5.57-1.56-.79.63-2.39 1.89-3.19 2.52-.19-1.09.47-1.94 1.1-2.76-3.36 1.71-7.61.39-9.68-2.65-1.4-1.66-.65-4.02-.79-6 .93-1.09 1.67-2.44 3-3.1m-.75 5.14c-.65 5.16 7.51 8.49 10.36 4.05-.85-.08-2.56-.23-3.41-.31-.86-1.05-1.71-2.1-2.54-3.17 2.06-1.16 3.9-2.64 5.75-4.09-3.23-3.44-9.56-1-10.16 3.52m9.85-2.56c-.35 1.36.17 2.01 1.53 1.94.27-1.43-.24-2.08-1.53-1.94m9.92.03c-.27 1.4.25 2 1.56 1.78.21-1.5-.31-2.09-1.56-1.78z"/>
        <path d="M74.13 51.61c1.19 1.42 2.66 2.54 4.1 3.68.02 2.44-2.64 2.98-4.39 3.81-1.22-.56-2.25-1.65-3.61-1.83 1.11.86 2.31 1.6 3.47 2.4-.95 1.03-1.94 2.01-3 2.91.67.49 1.32 1 1.97 1.53 2.47.59 5.47 1.04 7.51-.83 1.44-1.07 1.09-3.1.95-4.64-.11-.63-3.06-2.06-1.31-2.71 3.35 1.2 5.34 6.66 1.93 8.91-4.01 3.14-9.5.99-12.87-2.09-.51 1.11-.98 2.24-1.4 3.39-1.63.81-3.4 1.14-5.21 1.04-1.15-1.44-2.19-2.97-3.04-4.61-2.73 1.29-4.97 3.92-8.26 3.64-3 .39-5.94-1.44-6.96-4.27-.29-3.05 2.42-5.14 4.57-6.77-.57 2.34-3.68 4.56-1.8 6.99 1.91 3.2 6.25 2.43 9.23 1.68-2.63-1.52-6.11-.06-8.17-2.82.22-1.69.55-3.36.82-5.03l1.27 1.12c-2.16 3.62 2.68 5.71 5.61 4.94-2.39-3.38 2.61-3.53 3.64-5.75.91 1.03 2.03 1.8 3.2 2.49-.86-1.31-1.77-2.59-2.69-3.85 1.88-.61 3.56-1.67 5.24-2.7.88 1.41 2.03 2.55 3.44 3.43-1.21 1.46-2.7 2.66-4.55 3.17-.76 1.47-1.81 2.75-2.97 3.92l.43.54c2.61-3.31 6.53-5.06 9.14-8.34 1.52-.79 2.99-1.68 3.71-3.35m-9.12 9.05c-.38 1.31.12 1.97 1.52 1.97.3-1.38-.21-2.04-1.52-1.97M56 62.32c.43.43.43.43 0 0z"/>
        <path d="M76.39 61.89c1.2-1.22 2.37-2.48 3.59-3.68.77 5.28-5.2 5.74-8.71 4.54 1.63-.66 3.33-.95 5.12-.86z"/>
    </g>
    <path fill="#f5f5f5" opacity=".96" d="M44.82 35.01c1.92-3.89 6.5-3.48 10.1-2.93l.03.91c-3.29-.38-6.77-.15-8.4 3.16l2.09 1.13c-1.85 1.66-3.28-.64-3.82-2.27z"/>
    <path fill="#dbdbdb" opacity=".86" d="M78.45 58.45c.34.34.34.34 0 0z"/>
</svg>
