<svg width="128pt" height="128pt" viewBox="0 0 128 128" xmlns="http://www.w3.org/2000/svg">
    <g fill="#000">
        <path d="M32.29 20.24c9.74-6.8 21.73-10.32 33.61-9.6 13.5.58 26.7 6.67 35.86 16.6 10.7 10.85 15.97 26.64 14.42 41.76-1.23 15.44-9.87 29.89-22.49 38.76-13.6 9.55-31.73 12.15-47.47 6.86-7.23-2.32-13.76-6.42-19.46-11.38C15.31 92.56 8.72 76.77 9.79 61.09c.56-16.17 9.34-31.57 22.5-40.85m8.36-2.48c-13.5 6.41-23.77 19.11-27.38 33.6-3.15 12.5-1.52 26.24 4.89 37.47 7.14 13.23 20.5 22.81 35.26 25.56 11 2.03 22.7.58 32.68-4.57 13.55-6.71 23.76-19.71 27.04-34.47 3.14-13.64.37-28.4-7.37-40.05-3.69-5.22-8.25-9.86-13.44-13.6-14.88-10.43-35.41-12.11-51.68-3.94z"/>
        <path d="M61.67 47.28c1.68-3.67 5.09-8.31 9.71-7.16 3.37.71 6.75-.07 10.13-.25-.1 2.48-3.1 5.45-.18 7.36l-1.85-.81c-.33.13-.97.39-1.29.52-.26-.5-.77-1.5-1.03-1.99-.45.51-1.36 1.53-1.81 2.04 1.49 3.28 5.51 4.48 7.43 7.6.31.94.64 1.88 1 2.8 1.11 3.3 1.89 6.91.62 10.29-.02.41-.06 1.24-.07 1.66-1.02 1.77-1.73 3.69-2.42 5.61l.59.26c1.67 1.7 3.61 3.09 6.12 2.91.46-.5 1.37-1.48 1.83-1.98 3.84-.66 7.52.82 11.03 2.2 3.56 1.27 5.76 4.63 7.59 7.75-2.39.34-4.56-.61-6.76-1.34-.36-.28-1.09-.83-1.45-1.1.27-.43.83-1.27 1.11-1.7l-1.34-.24c-.55-3.09-4.16-3.23-6.62-3.65-3.98-.87-6.61 6.05-10.44 2.35-.67-1.41-1.23-2.87-1.93-4.25-.95 5.51 5.75 6.88 9.62 8.36-1.32 5.78-6.93 8.61-10.06 13.08-.09-.31-.27-.95-.36-1.27-.35.34-1.05 1.01-1.4 1.35-1.48-1.79-3.22-3.28-5.75-2.53 1.18-1.58 2.5-3.07 4.28-3.99l2.64 1.68c3.53-1.19 6.67-3.52 8-7.12-4.55-.35-9.46-.97-12.73-4.51-1.39 1-2.83 1.96-4.37 2.73-1.82-1.66-4.06.58-5.98-.63-4.35-1.82-8.82-3.52-12.76-6.15l-1.36-.52c-2.54 2.33-5.86 4.11-9.42 3.48-3.41.25-5.05-3.06-6.98-5.22-4.04 2.03-8.63 5.26-8.45 10.31-.16 3.22-2.12 5.9-4.15 8.25-2.01-1.1-2.39-5.86.58-5.68-.34-.49-1.03-1.47-1.37-1.96 1.02-2.1 1.93-4.25 2.73-6.44 3.75-2.61 7.16-6.05 11.63-7.37 1.78 1.02 3.64 3.75 5.77 1.85 3.05-3.45 1.34-8.55 4.27-12.06l-1.96.72c-.64-1.08-1.71-1.52-2.85-1.81.31-.43.94-1.28 1.25-1.7l-1.5-.01c.17-1.76.36-3.52.65-5.27 1.72 4.73 6.82 6.76 11.48 7.22 3.55.12 5.75 3.6 9.1 4.34 2.79.26 5.78.3 8.21-1.33-1.14-1.45-.11-2.98.39-4.45-1.13-1.9-.79-4.33-1.98-6.22-1.3-2.52-3.64-4.62-3.73-7.63-1.12.56-2.26 1.1-3.41 1.62z"/>
        <path d="M46.75 80.35c1.74-.59 3.28-1.63 4.69-2.79 1.16.57 2.33 1.15 3.49 1.73-1.39 3.41-5.02 4.93-6.55 8.18 3.15 6.01 9.99 9.87 10.98 17.06.89 1.86 0 3.57-1.43 4.81-.99-2.09-1.9-4.34-3.81-5.77-1.32-3.02-1.44-6.51-3.37-9.25-2.14-2.36-4.48-4.52-6.74-6.76 1.27-2.26 2.08-4.71 2.74-7.21z"/>
    </g>
</svg>
