<svg width="128pt" height="128pt" viewBox="0 0 128 128" xmlns="http://www.w3.org/2000/svg">
    <path fill="#400e10" opacity=".52" d="M50.82 11.82c7.87-2.22 16.39-2.43 24.25-.04-4.01-.84-8.12-.93-12.18-1.4.02.58.05 1.72.07 2.29 3.76.06 7.56.27 11.22 1.22-5.1-.86-10.29-.97-15.45-.98 1.01-.14 3.04-.43 4.05-.57-.69-.64-1.4-1.28-2.13-1.89-3.28.44-6.58.74-9.83 1.37z"/>
    <path fill="#b8262a" opacity=".98" d="M50.82 11.82c3.25-.63 6.55-.93 9.83-1.37.73.61 1.44 1.25 2.13 1.89-1.01.14-3.04.43-4.05.57-4.08.33-8.12 1.14-12.03 2.36.16-.6.47-1.8.63-2.39 1.11-.51 2.3-.8 3.49-1.06z"/>
    <path fill="#b2242c" opacity=".94" d="M62.96 12.67c-.02-.57-.05-1.71-.07-2.29 4.06.47 8.17.56 12.18 1.4 3.57.71 6.98 2 10.31 3.45-.67.34-1.99 1.02-2.65 1.37-2.79-1.09-5.64-2.02-8.55-2.71-3.66-.95-7.46-1.16-11.22-1.22z"/>
    <g fill="#9c1f21">
        <path d="M29.27 22.33c5.48-4.05 11.38-7.77 18.06-9.45-.16.59-.47 1.79-.63 2.39-4.77 1.77-9.27 4.16-13.6 6.83 5.07-.1 8.82 3.43 11.13 7.58 1.7-1.86 3.74-3.52 4.83-5.84 1.09-2.68-.14-5.52-.48-8.22 1.2 2.21 2.8 4.59 2.17 7.23-.75 3.08-2.92 5.51-4.91 7.86l-3.11-.68c-2.18-3.78-5.65-6.53-9.92-7.57-.79.65-1.58 1.29-2.36 1.95-.39-.7-.79-1.39-1.18-2.08zM68.03 39.95c3.84-.24 7.77 1.08 11.53-.31l1.33.43c.09.03.27.08.36.11.08 2.29-1.96 4.68-.2 6.77-.74-.03-2.22-.08-2.96-.1-.22-.44-.66-1.31-.87-1.74-.45.48-1.34 1.44-1.78 1.92 1.39 2.97 4.94 4.01 6.73 6.72 3.01 4.78 3.57 10.79 2.14 16.21-1.32 2.91-4.38 6.04-2.59 9.38 2.6 2.84 6.46 3.72 9.79 5.39-1.08 2.08-2.07 4.24-3.62 6.03-.02.03-.08.09-.1.12-2 2.23-4.42 4.05-6.36 6.34-.86.11-1.71.23-2.57.35-.4-.54-1.2-1.6-1.6-2.13-1.21-.08-2.42-.14-3.62-.21 1.07-1.75 2.45-3.27 4.32-4.2.92.57 1.84 1.13 2.76 1.7 3.34-1.24 6.42-3.39 7.68-6.86-4.45-.46-9.27-.94-12.47-4.48-2.54 2.76-6.13 2.28-9.51 2.32-5.11-1.81-10.12-4.07-14.7-6.99-3.4 2.83-7.93 4.74-12.32 3.07-1.82-1.22-3.03-3.09-4.37-4.78-3.46 1.79-6.86 4.18-8.3 7.97-1.57.82-2.76 2.01-3.07 3.81l-.81.46-.88.49c-1.26-3.15 1.56-5.53 2.33-8.38 3.64-2.9 7.3-5.89 11.66-7.63 1.65 1.24 3.51 3.81 5.72 1.99 2.94-3.34 1.4-8.3 4.11-11.79-.43.2-1.29.59-1.73.78-.64-.49-1.92-1.48-2.57-1.98-.52-2.39-.61-4.86.25-7.2 1.58 4.74 6.59 6.84 11.22 7.27 3.56.07 5.74 3.45 9.02 4.32 2.72.43 5.61.22 8.09-1.05-.39-2.38.92-4.72-.16-7.05-.32-4.3-4.49-6.93-4.96-11.13-1.17.5-2.34.99-3.52 1.46 1.36-3.07 3.72-5.69 6.6-7.4zM70.16 114.75c9.45-1.44 18.54-5.34 25.86-11.53-.35 1.23-.69 2.46-1.04 3.7-7.32 5.51-16.11 8.9-25.17 10.19.09-.59.27-1.77.35-2.36z"/>
    </g>
    <g fill="#9c2429">
        <path d="M85.38 15.23c16.38 7.52 28.53 23.64 30.74 41.59.21 4.76.2 9.54 0 14.31-1.83 14.13-9.67 27.33-21.14 35.79.35-1.24.69-2.47 1.04-3.7 5.55-4.7 10.04-10.55 13.25-17.07l.07-.14c2.73-5.55 4.13-11.64 4.86-17.75.87-3.17.84-6.45-.09-9.61-1.87-18.35-14.29-35.08-31.38-42.05.66-.35 1.98-1.03 2.65-1.37zM9.63 64.7c-.65-16.19 7.21-32.15 19.64-42.37.39.69.79 1.38 1.18 2.08C24.19 29.27 19.87 36 15.98 42.79c5.18-2.38 11.03-1.48 15.86 1.25-.93-5.71 1.36-11.93-2.15-17.08l1.22-1.16c1.09 3.32 2.65 6.63 2.27 10.22.18 2.74-.71 6.44 1.9 8.28 2.96 1.05 6-.51 8.73-1.56.37-2.49.58-5.02 0-7.49.37-.67.74-1.34 1.12-2 .43 2.73.55 5.57 1.6 8.15 4.7 2.67 10.4 2.27 15.51 1.22-1.49-1.03-2.97-2.07-4.46-3.09-4.54-.27-8.76-2.43-11.71-5.87l1.58.31c3.3 1.55 6.45 3.78 10.25 3.79-.18-3.87-1.32-7.56-2.6-11.18 4.69 3.92 1.66 12.22 7.9 14.61 1.54-1.58 3.46-3.02 4.08-5.25.72-2.28 0-4.66-.22-6.96 4.74 5.08-.16 13.14-5.52 15.65-4.98 1.22-10.2.49-15.11-.72-5.15 3.04-11.69 3.82-17.12 1.03-3.99-2.2-8.57-2.23-12.98-1.8-3.22 7.6-4.71 15.92-4.26 24.16-.76-.85-1.51-1.72-2.24-2.6zM9.93 71.3c.55-.38 1.66-1.13 2.21-1.51 1.63 14.25 9.45 27.7 21.25 35.9 10.48 7.66 23.96 10.65 36.77 9.06-.08.59-.26 1.77-.35 2.36-12.17 1.38-24.86-1.17-35.21-7.84-13.32-8.19-22.4-22.55-24.67-37.97z"/>
    </g>
    <path fill="#b8272b" opacity=".93" d="M42.73 30.03l3.11.68c.51 1.1 1.03 2.19 1.61 3.26l-1.58-.31c-.21-.21-.63-.64-.84-.85-.32-.36-.97-1.07-1.29-1.43-.25-.34-.76-1.01-1.01-1.35z"/>
    <path fill="#ef3039" d="M80.89 40.07c.09.03.27.08.36.11-.09-.03-.27-.08-.36-.11z"/>
    <path fill="#2e0b0e" opacity=".49" d="M116.12 56.82c1.17 4.69 1.16 9.62 0 14.31.2-4.77.21-9.55 0-14.31z"/>
    <path fill="#5a1213" opacity=".83" d="M114.11 58.65c.93 3.16.96 6.44.09 9.61-.04-3.2-.07-6.4-.09-9.61z"/>
    <path fill="#c62829" d="M9.63 64.7c.73.88 1.48 1.75 2.24 2.6.07.62.2 1.87.27 2.49-.55.38-1.66 1.13-2.21 1.51-.11-2.2-.23-4.4-.3-6.6z"/>
    <path fill="#731816" d="M86.02 82.19c-1.9-1.34-5.94-5.13-2.19-6.71.47 2.2 2.76 2.02 4.4 2.42 3.46-3.7 8.7-1.43 12.68.05 3.91 1.28 6.28 4.8 8.43 8.06l-.07.14c-.81.08-2.44.25-3.25.33-1.46-.71-2.97-1.31-4.34-2.17-.87-1.5-1.42-3.17-2.38-4.62-2.15-1.17-4.72-1.63-7.13-1.33-2.23.96-4.13 2.51-6.15 3.83z"/>
    <path fill="#6b1518" d="M51.5 77.39c1.22.65 2.43 1.3 3.64 1.95-1.65 3.14-4.55 5.21-6.79 7.86 3.17 6.09 10.05 9.95 11.12 17.17.88 1.99-.08 3.82-1.4 5.32-.97-1.91-2.02-3.76-3.36-5.43-2.19-2.66-2-6.38-3.67-9.27-2.02-2.79-4.7-5-7.18-7.35 1.14-2.27 2.02-4.66 2.61-7.14 1.74-.93 3.43-1.94 5.03-3.11z"/>
    <path fill="#a02023" opacity=".96" d="M23.66 86.79c.92-1.03 1.91-2 2.92-2.94.76 3.89-1.94 7.08-4.19 9.86-2.12-1.42-1.39-3.94-1.29-6.08.39.15 1.18.46 1.57.61 1.45.41 1.77-.07.99-1.45z"/>
    <path fill="#ef3231" d="M22.85 87.25l.81-.46c.78 1.38.46 1.86-.99 1.45l.18-.99z"/>
    <path fill="#de2c31" d="M87.79 90.88c.02-.03.08-.09.1-.12-.02.03-.08.09-.1.12z"/>
</svg>
