<svg width="128pt" height="128pt" viewBox="0 0 128 128" xmlns="http://www.w3.org/2000/svg">
    <g fill="#fff">
        <path d="M32.19 55.51c-9.07-12.58-7.76-32.3 4.8-42.12-4.35 7.29-9.21 15.15-8.66 23.98 1.17-9.92 8.33-19.67 18.53-21.46-3.12 2.86-6.77 5.21-9.17 8.77-5.87 7.86-5.69 18.86-1.9 27.58 2.25 5.23 6.84 8.8 11.06 12.37-2.05-.43-4.11-.83-6.15-1.33-.32.54-.64 1.07-.96 1.61.49.42 1.46 1.27 1.94 1.69 3.09-.43 6.39-.26 8.93 1.75-.83.22-2.49.67-3.32.89l.04 3.35c-2.59-1.72-5.46-3.39-6.87-6.29-2.86-1.11-5.52-2.78-7.48-5.17-6.71-8.43-10.46-19.33-9.79-30.12.29-4.45.59-9.19 3.17-12.99-.72 5.3-1.89 10.6-1.64 15.99.6 11.16 5.23 22.33 13.73 29.79.5-.45.61-1.05.32-1.82-3.09-.99-4.67-4.1-6.58-6.47zM55.04 14.55c6.36-1.04 11.32 3.94 14.76 8.6 6.44 8.54 8.61 21.23 2.79 30.63-.71-1.93-1.4-3.86-2.2-5.75-5.06 4.57-7.44 11.4-7.94 18.06-.62-.94-1.22-1.88-1.8-2.85.95-2.43 1.22-5.05 2.1-7.49 1.88-4.32 5-8.04 6.4-12.58 1.7-8.25-.51-17.64-6.86-23.43-2.14-2.1-4.89-3.38-7.25-5.19z"/>
        <path d="M67.66 14.64c9.53 5.31 13.8 16.97 13.39 27.44-.51 5.25-1.3 10.89-4.26 15.36-.54-1.8-1.09-3.6-1.67-5.38 5.14-12.56 1.1-27.36-7.46-37.42z"/>
        <path d="M79.07 18.29c2.07.96 2.29 3.55 3.17 5.41 2.2 6.55 5.25 13.15 4.61 20.24-.09 6.64-3.17 12.77-7.38 17.76-.47-1.18-.92-2.36-1.36-3.54 5.08-9.15 5.98-20.24 3.49-30.3-.78-3.2-.82-6.68-2.53-9.57zM20.46 30.66c1.03 1.99 1.62 4.16 1.89 6.38 1.13 7.96 3.63 15.89 8.4 22.44 3.99 5.34 9.82 8.81 14.33 13.63-9.66-3.58-17.56-11.59-20.77-21.42-2.08-6.79-4.81-13.81-3.85-21.03z"/>
        <path d="M88.46 37.22c3.32 10.42-.04 22.65-8.11 30.04-.31-1.5-.58-3.01-.8-4.52 2.8-3.13 5.13-6.7 6.49-10.69 1.96-4.71 1.29-9.93 2.42-14.83z"/>
        <path d="M90.4 53.07c.93-2.37 1.61-4.82 2.63-7.16.75 5.75-.89 11.38-3.23 16.56-1.52 4.6-5.84 7.79-10.47 8.81C83 65.2 87.74 59.72 90.4 53.07zM21.68 49.56l.73-.13c2.97 7.11 6.53 14.32 12.62 19.29 4.51 4.17 10.28 6.44 15.79 8.95-2.23-.02-4.45-.3-6.66-.52-3.25-.42-6.96-.39-9.39-2.96-6.99-6.43-11.51-15.29-13.09-24.63z"/>
        <path d="M93.5 54.82c1.39 3.46.27 7.09-1.24 10.28-1.23.99-1.22 2.53-.8 3.91l1.31-.65c-1.7 3.08-2.98 6.79-6.35 8.44-.43-.29-1.28-.89-1.7-1.19 2.41-1.82 4.45-4.04 6.75-5.97-.66-.24-1.32-.48-1.99-.7-.16 2.51-3.1 3.68-4.59 5.44-1.06-.99-2.13-1.96-3.21-2.92 6.95-2.54 10.96-9.57 11.82-16.64zM29.64 74.88c4.04 1.46 8.17 2.67 12.43 3.34 2.36.44 4.71.89 7.05 1.46-3.42.94-6.93 1.53-10.31 2.62-3.51-1.82-6.98-4.03-9.17-7.42zM88.41 79.18c.47-.69.93-1.38 1.39-2.07 1.59 3.87 5.6 6.41 6.35 10.73.48 3.93-2.32 7.13-4.87 9.74-1.99.02-4.01.3-5.97-.16-.14.31-.41.92-.55 1.22-.59-1.35-1.15-2.73-2.14-3.85 3.82.53 8.74.33 10.47-3.82.7-4.53-3.1-7.9-4.68-11.79zM43.93 81.97c3.51.07 6.9-.99 9.9-2.78-2.49 3.05-4.88 6.61-8.63 8.2-2.31-.09-4.31-1.4-6.28-2.45 1.62-1.03 2.89-3.05 5.01-2.97zM54.63 81.78c1-.09 2.01-.17 3.01-.25.05.39.13 1.18.17 1.57l.1.69 2.55-2.15c-1.22 3.72-2.58 7.64-5.26 10.58-1.49 1.64-3.85.65-5.74.67 1.69-3.5 7.11-4.46 7.31-8.59-2.78 4.4-7.84 6.96-13.05 6.2 2.9-3.99 8.7-4.03 10.91-8.72zM72.31 81.16c1.05 1.6 2.13 3.2 3.01 4.91-.69-.4-2.05-1.2-2.73-1.6-.78 1.47-.71 3.16-.89 4.77-1.34-1.07-2.67-2.16-3.99-3.25-.37.72-.74 1.45-1.12 2.18.86 1.53 1.68 3.09 2.34 4.72-2.21-.48-4.17-1.61-5.67-3.32.66-2.23 1.21-4.5 1.8-6.75.25 1.09.77 3.27 1.02 4.36 1.35-1.92 2.63-3.89 3.87-5.89l-.01 2.34c.79-.82 1.58-1.65 2.37-2.47z"/>
        <path d="M73.81 79.85c5.27 3.25 12.14 3.45 16.47 8.27 1.21 2.52-.62 5.6-3.28 6.11-5.32 1.38-10.02-2.84-15.38-2.08 3.39 1.14 7.29 1.05 10.05 3.67l.43-.95c.15.79.46 2.38.62 3.17-4.2-1.9-9-4.18-13.57-2.01.32-.35.97-1.04 1.29-1.38 0-2.05 1.57-3.91 3.65-4.05 4-.25 8.03 1.73 11.93.09-1.36-4.38-6.34-5.61-10.36-6.15-.64-1.56-1.26-3.12-1.85-4.69zM58.35 87.9c.77-2.04 2.41-3.53 3.93-5.02.23.76.69 2.3.91 3.06-.68 2.79-1.16 5.62-1.87 8.41-2.1-1.37-3.53-3.9-2.97-6.45zM66.84 103.12c.67-3.04 3.32-5.14 6.36-5.46-2.94 2.53-5.15 7.99-1.08 10.55.65.53 1.31 1.06 1.97 1.58-1.3.17-2.61.35-3.91.54-3.47-.19-4.22-4.52-3.34-7.21z"/>
        <path d="M62.52 104.07c.56-2.4 2.47-4.11 4.29-5.6-2.02 3.89-2.89 9.79 1.58 12.35.46.27 1.37.83 1.83 1.11 2.4-.53 4.64-1.55 6.79-2.71 1.28-.73 2.7-1.13 4.12-1.51-2.57 3.68-6.13 7.71-11.1 7.25-5.34-.07-8.88-5.99-7.51-10.89z"/>
    </g>
    <path fill="#717171" opacity=".44" d="M44.16 77.15c2.21.22 4.43.5 6.66.52l.45.01c-.61.69-1.23 1.38-1.84 2.07l-.31-.07c-2.34-.57-4.69-1.02-7.05-1.46.52-.27 1.56-.8 2.09-1.07z"/>
    <path fill="#959595" opacity=".58" d="M72.12 108.21c1.29-.13 2.59-.26 3.89-.38l-1.11 2.3 2.11-.91c-2.15 1.16-4.39 2.18-6.79 2.71-.46-.28-1.37-.84-1.83-1.11.45-.12 1.34-.36 1.79-.49 1.3-.19 2.61-.37 3.91-.54-.66-.52-1.32-1.05-1.97-1.58z"/>
</svg>
