<svg width="128pt" height="128pt" viewBox="0 0 128 128" xmlns="http://www.w3.org/2000/svg">
    <g fill="#fff">
        <path d="M31.14 17.79c2.94 4.47 7.72 8.63 7.61 14.35-.82-1.83-.66-4.16-2.43-5.46-1.89-2.87-3.95-5.66-5.18-8.89zM93.72 20.64c.58-1.06 1.2-2.09 1.83-3.12.38 2.52-1.81 4.07-2.84 6.08-.64.94-1.24 1.9-1.81 2.89-.43.49-1.28 1.48-1.71 1.97.35 1.02-.03 1.97-.42 2.89-3.44 1.47-5.48 4.96-5.49 8.66l2.97 1.28c.03 2.66.12 5.32-.08 7.98-1.78-.25-2.32 1.42-3.12 2.63-.84-.17-2.54-.5-3.39-.67 1.5 1.58 3.35 2.71 5.26 3.73.09-1.59-.13-3.24.33-4.79l.51-.17c.79 1.8.13 4 .23 5.95-3.19 1.18-6.79 1.43-9.97.09-1.5-.4-2.2-2-2.23-3.43 1.88 1.13 4.35 3.93 6.26 1.25-.95-1.28-3.14-2.53-2.62-4.39 1.93-2.16 4.05-4.24 6.54-5.76-1.85-2.77-5.03-4.46-5.89-7.9-.62 2.05.86 3.6 1.85 5.2 1.14.72 2.22 1.53 2.73 2.83-2.69 1.09-5.01 2.88-7.49 4.35l.59-2.11-1.73.08.32-1.79c-.19 0-.56-.01-.74-.01l-.24 1.44c-1.5-.94-3.14-1.58-4.67-2.45l-1.98 1.31c-.33-1.41-.68-2.81-1.08-4.19-.36.47-1.06 1.4-1.41 1.86.19-2.96.18-5.94.1-8.9 2.14-1.24 1.2-3.14.44-4.96l-1.77.68v-1.16c4.47-.16 8.95.24 13.26 1.51.57-.05 1.71-.13 2.29-.18.63.56 1.26 1.12 1.88 1.69-.88.72-1.79 1.42-2.71 2.1l-.75.22c-1.32-.84-1.58-2.63-2.64-3.75-1.06.58-1.96 1.35-2.68 2.31.56-.32 1.67-.95 2.22-1.27.74 1.07 1.85 2 1.78 3.47-1.47.01-2.94 0-4.41-.05-.74-1.39-1.45-2.8-2.22-4.17.3 2.23 1.17 4.29 2.96 5.72-.75.79-2.56 2.03.06 1.48-.1 1.62-1 4.09 1.06 4.95 1.03 1.08 2.25.22 3.01-.66-1.48 1.96-3.05.02-4.25-.91.31-1.82.29-4.09 2.81-3.62-1.38-3.42 4.07-1.23 5.26-3.66-.46 2.7 1.35 4.73 2.9 6.66.45-3.07.26-7.05 3.6-8.52 2.38-3.51 4.85-7.12 7.29-10.67zM63.46 18.86c.26 2.52.37 5.05.5 7.57-2.56-1.5-.31-5.19-.5-7.57zM53.01 28.64c3-.35 6-.73 9.02-.69-.03.51-.11 1.52-.15 2.02l-1.87-.16c2.54 3.06 2.3 7.07 1.76 10.76-.41-.41-1.25-1.24-1.66-1.65.23.54.68 1.61.91 2.14-.43 1.06-.85 2.13-1.25 3.21l-.24.65c-.69-3.75-4.28.09-5.87 1l-.26-1.59c-.19.02-.56.07-.75.09.08.42.23 1.28.3 1.71l-1.67-.03.57 2.07c-1.83-1.16-3.66-2.3-5.48-3.45-1.21-.81-2.48-1.54-3.85-2.05 2.44 2.49 5.22 4.64 7.53 7.26-1 1.35-2.02 2.68-3.1 3.98 1.8 2.3 4.28.42 5.78-1.19.21.7.65 2.1.86 2.8l-1.04-.41c-3.51 2.42-8.16 2.33-11.96.66.77-.49 1.54-.99 2.31-1.49 1.29-.87 2.48-1.89 3.69-2.87-2.04.75-4.02.27-5.2-1.61-.05-.97.01-1.94.05-2.9-.22-.46-.67-1.37-.89-1.83-.04-1.29-.07-2.58-.11-3.87 4.62-.33 5.43-5.26 7.74-8.27l.12 1.47c1.21.18 2.42.38 3.62.62-.07 1.2.59 2.05 1.49 2.74.59-.31 1.77-.95 2.37-1.27-.32-.23-.95-.69-1.26-.93 1.83-1.34 2.71-3.34 2.23-5.57-.31 2.7-1.99 5.4-5.11 3.94-2.27-2.94 1.58-3.18 3.51-2.6-.75-.78-4.89-1.85-2.14-2.69m-8.92 13.5c3.05-.59 4.91-3.55 4.99-6.52-1.25 2.49-2.68 4.88-4.99 6.52m10.38-2.9c-.7 1.43-2.65 2.06-3.19 3.25 1.67.93 4.07-.87 4.13-2.66-.24-.15-.71-.45-.94-.59z"/>
        <path d="M49.59 29.91c.33-.25 1.01-.75 1.35-1 1.06 1.56-.69 3.74-.4 5.5-1.33-1.43-3.66-2.37-3.4-4.67l1.36 1.9c.37-.57.73-1.15 1.09-1.73zM19.04 32.24c.73-.75 1.46-1.5 2.18-2.26.74-.01 2.22-.04 2.96-.06.69 1.3 1.28 2.69.9 4.19-.78-.09-2.33-.27-3.11-.35.64-.31 1.92-.93 2.56-1.23-.48-1.18-2.15-3.06-3.32-1.39-2.82 1.52-.77 5.27.69 7.01-2.4-1.08-2.77-3.63-2.86-5.91zM103.21 33.81c-.66-1.42-.01-2.69.77-3.87.78 0 2.35.01 3.13.02.6.72 1.2 1.45 1.8 2.17-.01.79-.01 2.37-.01 3.16-1.28 2.71-5.33 2.34-6.21 5.3-2.83.16-3.11 3.81-1.89 5.76-.54-.52-1.63-1.56-2.18-2.07-1.34.5-2.9.74-3.85 1.93-.96 1.78 1.5 2.03 2.61 2.37-2.6-.5-4.87.44-6.53 2.42 1.8-2.31 2.88-5.51 5.77-6.67 1.69-.55 1.75-2.84 3.43-3.4 1.02-.82 3.4-.76 2.79-2.72.81-2.11-1.66-3.05-2.78-4.31 1.73.77 3.73 1.58 3.2 3.98 1.42-.41 2.86-.8 4.22-1.39 1.12-1.62.73-3.55.35-5.33-1.41-.51-4.65-1.06-3.79 1.47.51.31 1.54.93 2.05 1.24-.96.06-1.92.04-2.88-.06zM40.03 31.08c3.79.16 3.74 4.78 3.25 7.53-1.14-.94-.42-2.44-.54-3.69-1.14-1.11-2.21-2.29-2.71-3.84z"/>
        <path d="M24.9 37.94c.06-1.83.97-3.5 2.86-3.86 1.34.76 1.91 2.11 1.94 3.59-.66-1.18-1.36-2.35-2.09-3.49-.65.88-1.95 2.62-2.6 3.5 1.4 2.45 4.82 3.44 5.25 6.37 1.31.4 2.59.9 3.8 1.55-1.7-.4-3.39-.91-5.09-1.32.76.89 1.6 1.69 2.53 2.41l-3.42-2.14 1.51 4c-.65-1.02-1.28-2.05-1.94-3.05.73-1.83.02-3.68-.69-5.37l-1.58 1.16c-.67-1.47-1.32-3.14-2.99-3.71l-.02-.27c.63.16 1.89.47 2.53.63zM64.17 43.16l.67.01-.01.67-.66-.01v-.67zM55.25 46.17c.62.05 1.84.14 2.45.18.39-.06 1.15-.18 1.53-.25l1.16-.19c-.07.37-.19 1.11-.26 1.48-.61 1.94-.18 3.93-.05 5.89l2.09.04c-.53.11-1.61.31-2.14.41.01 1.61-.02 3.23-.07 4.84-1.96-1.59-1.51-4.11-1.3-6.29-1.5-2.1-4.09-3.42-5.38-5.46l1.15-.28.82-.37z"/>
        <path d="M67.8 47.38c1.21-.82 2.43-2.39 3.98-1.26l.78.49 1.07.41c-1.43 1.88-3.75 3.27-5.24 5.26.26 1.87.11 3.73-.18 5.58.48 1.71 1.98 2.85 3.05 4.19 1.12-.96 2.24-1.93 3.4-2.85-1.04-1.12-1.8-2.4-2.28-3.85.26.03.78.1 1.04.13.19.57.56 1.72.75 2.3 1.7 1.07 3.64 1.42 5.63 1.4 3.65 3.51 5.68 9.1 4.7 14.08-.38-5.71-2.32-12.83-8.94-13.89-.9.95-1.83 1.88-2.78 2.79 4.35 2.32 8.36 5.88 9.62 10.84-2.32-1.41-2.72-5-5.26-5.88-.55 1.36 1.1 2.16 1.62 3.24 1.82 2.18 2.25 5.02 2.57 7.74l.45-.01c.45-1.97-.3-4.26 1.2-5.91-.32 2.2.92 5.23-1.04 6.94-.1.74-.3 2.21-.39 2.94-2.06-1.47-3.26-3.95-3.33-6.45-.23-3.96-2.34-7.39-4.02-10.86-1.12-.31-2.26-.52-3.41-.62.81.51 1.64 1 2.48 1.48 1.09 2.33 1.51 5.34-1.17 6.75-.1.64-.28 1.94-.37 2.59-1.47-1.11-2.26-2.37-.45-3.69-.57-1.14-1.09-2.29-1.58-3.46l-.91.23c.19.35.56 1.05.74 1.4-.86 2.38-.58 4.98-.44 7.45 1.24 1.28 3.25 2.11 3.31 4.14.09 2.13-2.14 3.05-3.54 4.19-.01 3.66 0 7.33.04 10.99 1.69-1.85 3.42-3.88 1.32-6.13 1.41-.92 2.58-.67 3.5.75 2.34-1.26.74-3-.62-4.26 1.19-1.43 1.96-3.2 3.37-4.45 1.1.9 2.47 1.78 3.26 2.84-3.47 7.04-9.32 12.87-16.13 16.78-7.15-3.4-12.79-9.62-16.68-16.42 1.45-.9 3.25-1.47 3.69-3.34.61.43 1.23.87 1.84 1.31.31 1.33.93 2.48 1.86 3.46-.7.84-1.41 1.66-2.13 2.48.29.45.88 1.33 1.18 1.78.73-.65 1.45-1.31 2.16-1.99 1.45.93 2.14 2.51.36 3.69.91 1.3 1.91 2.54 2.98 3.7.05-3.44-.67-7.02.27-10.38 3.14 2.47-.64 8.56 2.93 11.17l2.46.08c-.29-.77-.87-2.29-1.16-3.06l-1.05.58c-.26-.56-.78-1.66-1.04-2.22 1.49.22 2.97.46 4.46.7l-1.4 1.93c.34.45 1.04 1.34 1.38 1.78.98-2.78.78-5.74 1.14-8.62-.99 1.5-1.84 3.1-2.97 4.51.71-2.46.66-5.17-1.13-7.11l-.31 2.86c-.31-.76-.92-2.27-1.22-3.03-.57-.08-1.7-.23-2.26-.31-.97-.47-1.93-.95-2.88-1.44-1.44-1.73-1.18-3.83.01-5.61.56-.28 1.69-.84 2.25-1.12 1.1-1.62-1.34-2.82-2.48-3.44l-1.03 1.57c.23-.57.7-1.69.93-2.25-.93-1.31-2.31-2.39-2.75-3.99.16-2.11 2.05-3.4 3.34-4.84-4.65-.04-8.73 3.86-10.33 8.01.16.16.48.49.64.65 2.1-2.36 3.25-5.58 6.25-7.11-.8 2.47-2.74 4.38-3.24 6.95-.8 1.91-.35 4.07-1.02 6.01-1.3 1.45-1.81 3.33-2.75 5-1.99-3.45 1.98-7.52-.9-10.76.06 2.41.02 4.82-.12 7.23-.62-1.47-1.03-3.01-1.45-4.54 1.85-6.11 5.96-12.03 12.41-13.78 1.41-.67 2.42-4.66 3.94-2.74.46 3.62.96 7.33.15 10.95-.44 2.3.85 4.54.44 6.86.29-.17.88-.5 1.17-.67.04.66.11 1.98.14 2.64l-1.42-.82c.21 2.02.05 4.02-.49 5.99 1.43-1.52 2.56-3.34 2.75-5.47.15 1.11.28 2.23.41 3.34-.69.77-1.38 1.53-2.07 2.3.81.19 2.43.56 3.24.74.58 1.34 1.14 2.69 1.79 4.01.05-2.95.06-5.9.03-8.85l-.56-.87c-.68-1-1.34-2.01-1.87-3.1l-1.54 1.41.78-2.46-1.83.98c.76-2.32 1.01-4.74.58-7.15-.52-2.72 3.19-3.86 2.71-6.73.5-.66.99-1.33 1.47-2.01-.57 1.82-.64 3.75-1.21 5.57l.32.68c-.66.09-1.99.29-2.65.38.24 3.24.08 6.87 2.4 9.44.36-2.07 1.07-4.06 1.55-6.1l-.93-.09c.05.51.14 1.53.19 2.04l-1.35.02c.13-1.37.26-2.74.37-4.11.33.29 1 .87 1.33 1.16.37-.98.76-1.96 1.16-2.93l-1.6.51c1.46-2.48 1.59-5.4 2.35-8.11-.19-.43-.58-1.3-.78-1.73-.32-3.21.18-6.42.99-9.52m-11.85 24.1c.75.91 1.53 1.81 2.32 2.7.05-2.17.1-4.33.35-6.48-1.15 1.06-1.92 2.43-2.67 3.78m10.39 7.5l.5-.09c.58-2.02 1.12-4.06 1.12-6.18-1.78 1.6-1.32 4.15-1.62 6.27m-10.15 2.76c.79.54 1.66.8 2.6.77.21-1.13-.5-2.38-1.03-3.37-1.25-.41-2.3 1.62-1.57 2.6m13.16-2.65c-.46 1.08-1.11 2.26-1.17 3.42.97-.01 1.87-.28 2.71-.82.8-.92-.28-3.17-1.54-2.6m-7.17 19.28c.3.32.91.97 1.22 1.29.23-.31.68-.93.91-1.24-.8-.97-1.51-.99-2.13-.05zM23.5 52.56c1.35.23 2.69.43 4.04.62l-1.04 1.41c2.06.19 4.05.79 6.12.97l-.51 1.61 3.51-1.04c1.82 2.06 4.35 3.28 7.1 3.46-1.02.87-1.41 1.91-1.17 3.14-.54.93-.89 1.99-1.66 2.77-1.61.01-3.22-.08-4.82-.27.9 1.26 1.61 2.65 2.02 4.14-1.51 1.12-5.57 2.72-3.7 4.98-.97 1.65-.87 3.58-.91 5.42-.27-.19-.8-.57-1.07-.75.51-1.02 1.86-3.74-.04-3.85-.28.6-.85 1.79-1.13 2.39-2.01-.01-4.06-.12-5.93-.96 1.11-1.67 3.12-2.35 4.87-3.15-1.43 1-2.87 1.99-4.32 2.96 1.81.54 3.69.63 5.53.2-.66-2.07 1.25-2.85 2.36-4.01-.74-.31-2.22-.94-2.96-1.25 1.3-.34 2.59-.71 3.9-1.02.41-.76 1.22-2.26 1.62-3.02-.33-.74-.67-1.48-1-2.22-3.11 4.57-9.11 4.85-14.08 4.45 3.62-.32 7.51-.13 10.6-2.44 2.29-1.81 5.44-3.49 5.63-6.75.86.87-.31 3.44.15 4.59 2.02.27 2.95-1.78 4.43-2.7l-.82-.74c.25-.3.73-.92.97-1.22-2.23-.32-4.01-1.74-5.98-2.7-2.13-.09-3.95 1.03-5.61 2.21.82-1.32 1.7-2.6 2.62-3.85-3.07-.68-4.23.24-3.48 2.77l-3.67-.28c.67 1.81 3.12 1.35 4.57 1.84-.26.51-.77 1.53-1.03 2.03.88-.02 2.64-.08 3.53-.11-1.31.74-2.62 1.48-3.96 2.15-.16.35-.48 1.03-.64 1.37-.68-2.56-3.82-1.95-5.74-3-1.59 1.41-3.32 2.76-5.52 2.97 1.95-.63 3.65-1.74 4.99-3.29 2.62.22 7.23 2.6 7.63-1.56-2.43 1.13-5.11-.19-7.44 1.22.68-.78 2.04-2.35 2.72-3.13-.92-.03-2.76-.1-3.68-.13-.68-.58-1.33-1.19-1.97-1.8-2.87.92-7.46 1-8.34-2.6 2.16 2.96 5.69 2.61 8.86 2.11l.34-1.87c.88.83 1.95 1.61 2.29 2.84 2.07.58 4.15.2 6.08-.64-.05-.44-.17-1.3-.23-1.74l-2.35.95c-.07-.74-.19-2.23-.26-2.97-.38.05-1.15.16-1.53.21.03-.18.08-.54.11-.72zM100.96 53.01c1.36-.1 2.75-.41 4.11-.11-.51.09-1.54.29-2.06.38.01.61.02 1.83.02 2.43-1.69-.81-2.64-.45-2.87 1.09 1.57.56 3.18.88 4.85.97.3-.35.89-1.04 1.18-1.39.78 2.53 3.64.74 1.55-1.69 1.67 1.57 3.85 2.34 6.01 2.95-1.83.25-4.03-1.16-5.48.49-1.16.91-2.82.25-4.1.93 1.27 3.21 4.47 5.35 7.64 6.6-2.15.12-4.47-.68-5.34-2.83-1.83.56-3.72.91-5.62 1.16.19.48.58 1.42.77 1.89-1.32-1-2.66-1.99-3.95-3.04-1.67.04-3.17-.66-4.63-1.39 1.46.04 2.91.27 4.37.18 1.65.93 6.74 3.5 6.28-.14-1.93-.15-3.87-.26-5.76-.72.85-.4 2.53-1.2 3.38-1.59l-.06-.61c-2.38.15-4.76.04-7.02-.72-3.26-1.5-5.18 2.65-8.37 2.37 1.09 1.21 1.57 3.35 3.42 3.61 1.92-.11.87-2.57.99-3.87.39 1.13.78 2.25 1.17 3.38 4.09 3.94 9.45 6.68 15.29 6.17-2.28.28-4.58.06-6.85-.21-3.18-.65-5.57-2.94-8.43-4.27l.95 2.54c.29.22.88.67 1.18.89l-.8 1.4c1.82.93 4.61.57 5.63 2.66-1.53-.61-3.05-1.22-4.57-1.85.4 1.01 1.2 3.01 1.6 4.02 1.5-.27 3-.56 4.46-1.04 1.11.65 2.18 1.41 3.06 2.37-.32-.21-.96-.61-1.28-.82L99.76 74c-1.27.35-2.29 1.41-3.6 1.57-1.87-1.41-2.1-4.17-4.07-5.55-1.66-.89-1.19-2.93-1.33-4.45-3.18 1.11-3.99-2.38-4.97-4.54-.51-.48-1.02-.95-1.54-1.43 2.77-.07 5.32-1.27 7.1-3.39 1.52-.05 6.18 3.04 4.21-.75 1.86-.36 7.23 1.23 5.4-2.45m-3.6 3.74v.95l.86.47.55-.46c-.14-.33-.41-1-.55-1.33l-.86.37z"/>
        <path d="M53.59 55.52c.33-.04.98-.11 1.31-.14l-.93.32c.69 3.33-3.21 3.97-5.47 4.76-4.85 2.36-5.2 8.22-6.13 12.86-.71-4.4.8-9.08 3.38-12.64 1.11-1.93 3.39-1.6 5.27-1.72 1.04-1 2.18-2 2.57-3.44zM86.12 84.48c4.63.68 9.69 2.02 12.69 5.89 2.44 3.73 3.32 8.37 2.87 12.77-.67-4.77-1.8-9.83-5.54-13.2-2.76-2.77-6.55-3.9-10.02-5.46zM29.04 88c2.65-1.77 5.82-3.34 9.09-2.83-4.01 1.13-7.84 3.13-10.44 6.48-2.87 3.06-3.39 7.37-3.76 11.36-.86-5.37.36-11.75 5.11-15.01z"/>
    </g>
    <path fill="#5c5c5c" opacity=".36" d="M60.11 38.92c.41.41 1.25 1.24 1.66 1.65.57.96.94 2.02 1.39 3.04-4.25.79.72 2.51 1.75 3.53.05.57.15 1.71.21 2.28-1.29-1.25-2.33-2.85-4.05-3.56.73 1.8 1.76 3.51 2.02 5.47-1.26-1.08-2.34-2.38-2.96-3.94.07-.37.19-1.11.26-1.48l-1.16.19c.14-.45.41-1.37.54-1.83.4-1.08.82-2.15 1.25-3.21-.23-.53-.68-1.6-.91-2.14z"/>
    <path fill="#969696" opacity=".59" d="M39.97 53.53c.11-4.11-.29-8.26.47-12.33.04 1.29.07 2.58.11 3.87.22.46.67 1.37.89 1.83-.04.96-.1 1.93-.05 2.9.07 1.44.24 2.87.45 4.3l1.06.18c-.77.5-1.54 1-2.31 1.49l-.19.12c.09-2.22-1.78-2.4-3.48-2.64l3.05.28z"/>
    <path fill="#7f7f7f" opacity=".5" d="M66.5 50.66c.1-1.73-.57-4.43 1.68-5.16l-.38 1.88c-.81 3.1-1.31 6.31-.99 9.52-.4-2.08-1.3-3.91-3.29-4.88l1.94-.06-.52-1.92 1.56.62z"/>
    <path fill="#414141" opacity=".25" d="M34.56 46.88c1.36 1.39 2.78 2.83 3.05 4.86-1.84-1.66-3.88-3.28-6.43-2.11-.01-.29-.02-.88-.03-1.17 1.19-.41 2.32-.94 3.41-1.58z"/>
    <path fill="#5b5b5b" opacity=".36" d="M98.24 47.22c.56.51.56.51 0 0z"/>
    <path fill="#2c2c2c" opacity=".18" d="M27.07 49.23c3.33-.1-1.31 3.1 0 0z"/>
    <g fill="#3f3f3f">
        <path opacity=".25" d="M29.29 49.24c.55.48.55.48 0 0zM63.24 54.17c.49.53.49.53 0 0z"/>
    </g>
    <path fill="#404040" opacity=".25" d="M98.24 49.21c.52.51.52.51 0 0z"/>
    <g fill="#333">
        <path opacity=".2" d="M100.11 49.15c3.31.32-1.68 2.91 0 0zM21.26 79.01c3.09-1.36-.08 3.31 0 0z"/>
    </g>
    <path fill="#4e4e4e" opacity=".31" d="M33.09 50.42c3.3.02-1.43 3.08 0 0z"/>
    <path fill="#595959" opacity=".35" d="M94.09 50.38c3.29.15-1.52 3.04 0 0z"/>
    <path fill="#dbdbdb" opacity=".86" d="M50.19 51.18c.68.69.68.69 0 0z"/>
    <path fill="#757575" opacity=".46" d="M35.28 52.2c.54.57.54.57 0 0z"/>
    <path fill="#717171" opacity=".45" d="M92.23 52.16c.55.56.55.56 0 0z"/>
    <path fill="#7b7b7b" opacity=".49" d="M61.28 55.23c1.29.33 1.48 1.11.56 2.33-1.27-.33-1.45-1.11-.56-2.33z"/>
    <path fill="#494949" opacity=".29" d="M65.24 58.22c.51.53.51.53 0 0z"/>
    <path fill="#414141" opacity=".26" d="M33.2 61.24c.51.52.51.52 0 0z"/>
    <path fill="#151515" opacity=".08" d="M101.68 75.2c.32.21.96.61 1.28.82 2.06 1.92 5.65 2.86 6.19 5.92-2.97-1.66-6.15-2.89-9.32-4.11.46-.66 1.39-1.97 1.85-2.63z"/>
    <path fill="#323232" opacity=".2" d="M98.28 77.23c.54.48.54.48 0 0z"/>
    <path fill="#272727" opacity=".15" d="M95.41 78.11c1.38-.38 1.86.14 1.45 1.55-1.38.37-1.87-.14-1.45-1.55z"/>
    <path fill="#2b2b2b" opacity=".17" d="M25.13 80.35c3.31.26-1.63 2.94 0 0z"/>
    <path fill="#575757" opacity=".34" d="M63.58 81.97c.45-.69 1.34-2.06 1.78-2.74l.56.87c.03 2.95.02 5.9-.03 8.85-.65-1.32-1.21-2.67-1.79-4.01l-.34-.8c.49-.65 1.48-1.94 1.98-2.59l-2.16.42z"/>
    <path fill="#373737" opacity=".22" d="M102.27 81.23c.51.51.51.51 0 0z"/>
    <path fill="#ededed" opacity=".93" d="M62.26 89.37h.77c-.05.43-.14 1.27-.19 1.69h-.72c.03-.42.11-1.27.14-1.69z"/>
</svg>
