<svg width="128pt" height="128pt" viewBox="0 0 128 128" xmlns="http://www.w3.org/2000/svg">
    <g fill="#290808">
        <path d="M30.36 17.02c3.5 2.6 6.77 5.49 9.86 8.58-.54.36-1.63 1.08-2.17 1.44-.27.17-.81.52-1.08.69-.81.52-1.62 1.03-2.44 1.54-1.35-4.1-2.68-8.2-4.17-12.25m5.87 9.23c.55.51.55.51 0 0zM114.21 43.17c.97-.52 1.85-2.39 3.13-1.52 1.98.35 1.98 3.14.41 4.02-1.32.15-1.17-1.57-1.27-2.44-2.05-1.48-2.69 1.49-3.58 2.73.69.12 2.08.35 2.78.46l-.83 1.55c-1.42-.98-3.15-1.19-4.78-1.56l.33 1.2c-.69-.65-1.38-1.3-2.05-1.96-.32.65-.95 1.96-1.26 2.61-.61.79-1.21 1.6-1.8 2.41 1.46.32 2.94.55 4.43.69.03.47.08 1.42.11 1.9-1.53-.63-2.91-1.78-4.62-1.83l-1.18.65c.55-1.35 1.08-2.71 1.62-4.08-1.18 3.31-2.99 1.91-4.39.94 1.49-1.14 3.3-1.58 5.1-1.93 1.3-1.41 2.89-2.49 4.63-3.28l-1.98 1.58c2.16 1.47 4.1-.31 5.2-2.14zM30.63 58.86c3.68-1.57 7.34.05 10.67 1.66-1.27 1.57-2.54 3.14-3.82 4.71-.14-.84-.41-2.53-.55-3.38l-1.72 1.36c.58 1.23 1.15 2.45 1.73 3.68-.91.44-1.82.88-2.73 1.33-.09-.61-.27-1.83-.36-2.43-1.1 1.18-2.09 2.49-3.35 3.52-3.66.42-7.36.24-11.03.11 2.7-1.1 5.53-1.82 8.36-2.49.68-1.06 1.34-2.13 2.02-3.19.65-.94 1.26-1.9 1.83-2.88-1.72.88-3.41 1.82-5.07 2.8-3.11 1.28-6.2-1.36-8.96-2.59 1.49.01 2.98.04 4.47.14 2.6.33 5.21.04 7.77-.44-1.48-.54-2.98-1.04-4.48-1.5.67-.24 2.01-.71 2.68-.95.63.13 1.9.4 2.54.54z"/>
    </g>
    <g fill="#210800">
        <path d="M63.31 17.75c1.16 1.96 2.34 3.91 3.52 5.85-.69.77-1.38 1.53-2.06 2.29.63.1 1.91.28 2.54.37-.24.45-.73 1.36-.97 1.81-1.12.04-2.23.08-3.34.11 1.56 1.41 3.12 2.84 4.68 4.27-1.03.42-2.06.85-3.09 1.27-.28 2.7-.55 5.4-.83 8.1.56-.12 1.67-.35 2.22-.47.03.6.08 1.81.11 2.42-.74-.12-2.21-.36-2.94-.47 2.01 1.68 4.67 1.14 7.05 1.07-.72.99-1.44 1.99-2.12 3.01l-.22-2.01c-1.13 2.03-2.07 4.25-3.97 5.7-1.03-1.32-2.06-2.64-3.04-3.99l.04-.62c1.3.72 2.59 1.45 3.9 2.15-.5-1.37-1.24-2.61-2.1-3.78-.28-4.88-.19-9.86-1.93-14.5.49-.74.98-1.49 1.46-2.23-.47-.05-1.43-.16-1.91-.22l-1-.53c.41-.47 1.23-1.4 1.64-1.87-.4-.77-.79-1.54-1.18-2.31 1.19-1.8 2.36-3.62 3.54-5.42m-.62 8.19c1.94.13 1.8-3.26.99-4.45-1.23.63-1.6 3.17-.99 4.45zM97.29 56.96c2.99-1.54.15 3.33 0 0zM62.19 83.02c.46-1.16.96-2.31 1.46-3.45.16.68.49 2.03.66 2.71.34-.35 1.03-1.03 1.38-1.37-.36 2.23-.36 4.49-.32 6.75-.57-.02-1.72-.07-2.29-.09.51-.56 1.55-1.69 2.07-2.26-1.03-.49-2.06-1.01-3.07-1.53l.11-.76z"/>
    </g>
    <path fill="#370b10" d="M86.79 25.5c3.18-2.98 6.46-5.85 9.89-8.54-1.53 4.12-2.86 8.31-4.25 12.47-.38-.49-1.12-1.47-1.5-1.96-.06-.28-.17-.85-.23-1.14-.43.18-1.29.53-1.73.71-.72-.52-1.45-1.03-2.18-1.54z"/>
    <path fill="#5a1213" d="M62.69 25.94c-.61-1.28-.24-3.82.99-4.45.81 1.19.95 4.58-.99 4.45z"/>
    <g fill="#c62829">
        <path d="M36.23 26.25c.55.51.55.51 0 0zM50.23 51.24c.55.5.55.5 0 0z"/>
    </g>
    <path fill="#77171e" opacity=".97" d="M88.97 27.04c.44-.18 1.3-.53 1.73-.71.06.29.17.86.23 1.14l-2.09 1.61-.7-.25c.21-.45.63-1.35.83-1.79z"/>
    <path fill="#310c08" d="M28.36 29.24c.64-1.44 2.37-1.69 3.61-2.36-3.35.9-5.09 4.86-2.37 7.5 1.31 1.34 2.96 2.26 4.56 3.19-.73.34-2.21 1.03-2.95 1.37.34 3.55 3.97 5.06 6.49 6.92-.06-.57-.17-1.7-.23-2.27-2.8-.79-.9-3.14-.18-4.81.67 1.47 1.3 3.03 2.86 3.78v.07c.25 3.54.1 7.09-.22 10.63-.31 1.55 1.02 2.83 2.39 3.26 3.98 1.18 9.27.77 11.3-3.42-2.17.92-4.41 1.79-6.82 1.55 1.01-1.61 2.04-3.21 3.09-4.8-1.91-1.93-3.77-3.91-5.53-5.98 2.45 1.22 4.85 2.54 7.23 3.88.58-.91 1.17-1.83 1.76-2.74 1.76-.54 3.52-1.08 5.28-1.63.17.46.52 1.37.7 1.83l-.09.42c-2.08.25-4.14.61-6.21.96 2.26 2.44 5.25 4.71 5.4 8.34.49.95-.09 3.19 1.59 2.84 2.69.15 3.81-3.24 5.25-5.06.78 1.82 1.55 3.65 2.54 5.37l.76.88c-.3.02-.9.05-1.21.06-.61 1.81-1.15 3.64-1.69 5.46l-1-2.93c-1.07 1.97-2.14 3.93-3.22 5.9l3.69-2.16c.61.47 1.22.93 1.83 1.4-.48.77-.96 1.53-1.44 2.29-.1 2.5-.46 4.97-.98 7.41-.78-1.88-1.45-3.79-2.09-5.72-.47 1.03-.94 2.07-1.46 3.07l-1 .58c-.28-5.03.83-10.11-.22-15.09-4.69 1.85-9.23 4.99-12.88 8.57l-.47.59c-2.26.13-4.92-.6-6.85.92-3.36 3.69-7.43 6.61-11.87 8.93.93-1.22 1.89-2.41 2.85-3.6-1.89.28-3.77.57-5.66.78 1.92-.92 4.05-.8 6.12-.94 2.32-2 4.56-4.08 6.9-6.05.95-3.02 4.2-4.93 4.18-8.3-4.13-2.51-8.53-5.16-13.51-5.29 2.59-1.29 5.25-2.41 7.93-3.51.39.55 1.17 1.66 1.57 2.21-.05-1.38-.1-2.76-.16-4.14-2-.24-3.98-.57-5.94-1.01-.31-1.17-.71-2.3-1.19-3.41l1.05-.27-.11-.7c-.24-2.42-1.97-4.82-.55-7.2-.45-.33-1.35-.98-1.81-1.31-1.39-1.09-3.5-.71-4 1.11l-.58-.18c.97-.9 2-1.75 2.88-2.74.51-1.43.32-2.99.68-4.45m4.29 17.72c1.63.49 3.27.97 4.91 1.44-1.3-1.63-2.65-3.21-3.89-4.88-.49 1.1-.79 2.26-1.02 3.44m17.58 4.28c.55.5.55.5 0 0m-2.17 8.19c-3.66.84-4.63 5.11-5.33 8.25 1.78-2.73 3.08-6.31 6.49-7.38 2.19-.72 4.14-1.91 5.1-4.09-1.81 1.57-3.9 2.74-6.26 3.22z"/>
    <g fill="#7c1b1e">
        <path d="M36.97 27.73c.27-.17.81-.52 1.08-.69 1.31 1.98 2.79 3.84 4.62 5.38.61 1.5 1.23 2.99 1.89 4.48-.24.7-.49 1.41-.76 2.1l-.11.13c-1.26-3.12-2.99-6.03-5.31-8.47-.02-.03-.05-.1-.06-.13-.34-.7-1.01-2.1-1.35-2.8zM46.9 67.8c3.65-3.58 8.19-6.72 12.88-8.57 1.05 4.98-.06 10.06.22 15.09-.48.26-1.43.77-1.91 1.03-.22-2.35-.13-4.71-.13-7.06-.82 1.47-1.64 2.94-2.48 4.4-.84-1.26-1.74-2.51-2.14-3.98.06-1.33.36-2.73-.33-3.95-2.28 1.29-4.33 2.93-6.49 4.4l.38-1.36z"/>
    </g>
    <path fill="#030001" opacity=".19" d="M95.49 27.42c3.59-1.91 5.98 1.78 5.51 5.08-.97-1.31-1.77-2.73-2.48-4.2-.75-.22-2.27-.66-3.03-.88z"/>
    <path fill="#621313" d="M49.04 29.13c3.73-.61 7.47-1.33 11.27-1.25.48.06 1.44.17 1.91.22-.48.74-.97 1.49-1.46 2.23 1.74 4.64 1.65 9.62 1.93 14.5.86 1.17 1.6 2.41 2.1 3.78-1.31-.7-2.6-1.43-3.9-2.15-.41-.2-1.23-.62-1.65-.83l.09-.42c.52-1.59 1.1-3.17 1.67-4.75-.98-1-1.96-2-2.94-3.01-1.06-.07-2.11-.14-3.17-.22.34-1.23.69-2.46 1.03-3.69l-3.55.15c-1.68-.81-3.37-1.63-5.06-2.44.58-.71 1.15-1.42 1.73-2.12z"/>
    <path fill="#78181b" d="M63 28.18c1.11-.03 2.22-.07 3.34-.11 1.73-.02 3.47-.02 5.21.02-.15 2.11-.87 4.09-1.89 5.93.52.32 1.56.96 2.08 1.27-.15.47-.47 1.41-.63 1.88 1.1-.03 2.2-.07 3.29-.1.08-.43.25-1.28.33-1.71 1.79-.66 3.59-1.32 5.39-1.98-.12.51-.37 1.53-.49 2.04-1.53.75-4.05.62-4.44 2.68-.65 2.34 2.05 3.27 3.44 4.48-.59 1.51-1.19 3.02-1.85 4.51-.21.18-.63.53-.85.71-.49-.53-.99-1.06-1.49-1.59-3.6 3.07-6.22 7.06-6.63 11.87-.99-1.72-1.76-3.55-2.54-5.37 1-1.75 1.9-3.54 2.81-5.33.68-1.02 1.4-2.02 2.12-3.01-2.38.07-5.04.61-7.05-1.07.73.11 2.2.35 2.94.47-.03-.61-.08-1.82-.11-2.42-.55.12-1.66.35-2.22.47.28-2.7.55-5.4.83-8.1 1.03-.42 2.06-.85 3.09-1.27-1.56-1.43-3.12-2.86-4.68-4.27z"/>
    <g fill="#3c0c0b">
        <path d="M71.55 28.09c3.13.57 6.26 1.1 9.34 1.9-.09 2.69.42 5.32 1.79 7.66.03.47.1 1.4.14 1.87-1.08-1.36-2.14-2.73-3.19-4.1.12-.51.37-1.53.49-2.04-1.8.66-3.6 1.32-5.39 1.98-.08.43-.25 1.28-.33 1.71-1.09.03-2.19.07-3.29.1.16-.47.48-1.41.63-1.88-.52-.31-1.56-.95-2.08-1.27 1.02-1.84 1.74-3.82 1.89-5.93zM93.98 37.81c2.01-1.3 3.96-2.68 5.73-4.29.69.42 1.38.86 2.06 1.29-.59-.2-1.77-.58-2.36-.78-.55.69-1.65 2.06-2.2 2.74.24 1.79-.17 3.72.58 5.41.28.75.58 1.5.9 2.23-1.23 1.44-2.23 3.12-3.76 4.26-1.44.36-2.91.54-4.37.76.4.35 1.21 1.04 1.61 1.39l-1.66-.87-1.44 1.84c.29-1.87.43-3.76.52-5.65.23.62.7 1.86.94 2.48 1.71-.63 3.42-1.26 5.08-2.02-.57-.81-1.16-1.59-1.77-2.37-.46.76-1.39 2.29-1.86 3.05-.49-.4-.97-.8-1.45-1.2 1.7-1.2 3.27-2.59 5.06-3.67.61-1.41 1.14-2.85 1.6-4.32l-3.21-.28z"/>
    </g>
    <g fill="#210805">
        <path d="M45.58 30.13c1.15-.34 2.31-.68 3.46-1-.58.7-1.15 1.41-1.73 2.12 1.69.81 3.38 1.63 5.06 2.44l3.55-.15c-.34 1.23-.69 2.46-1.03 3.69-.72-.05-2.17-.16-2.89-.21l-.04-2c-1.43-.27-2.87-.49-4.32-.71-1.23 1.6-2.49 3.19-3.84 4.69.27-.69.52-1.4.76-2.1.86-2.16 1-4.48 1.02-6.77zM9.81 43.38c2.13-1.9 4.74-.45 6.08 1.64.54.59 1.64 1.76 2.19 2.34-1.72-.26-3.4.08-5.03.67 1.41-1.73 1.68-4.76-.85-5.62-.6.24-1.8.73-2.39.97zM86.15 44.36c.58-.48 1.74-1.42 2.32-1.89-.05 3.95-.08 7.92.2 11.86l1.28-3.13c2.84 1.1 5.72 2.12 8.57 3.19l-1.11.58c-2.04.91-4.1 1.79-6.16 2.67 3.73.44 7.46.84 11.21 1.09-1.4.59-2.78 1.2-4.16 1.83-.66.75-1.26 1.54-1.88 2.32-.08.11-.26.34-.35.45 1.11 1.18 2.2 2.37 3.3 3.57 2.69.71 5.4 1.41 7.98 2.49-3.61.25-7.22.11-10.82.07-1.14-1.28-2.27-2.56-3.42-3.82l-.24 2.33-1.08-1.16c.21-.88.44-1.76.68-2.64-.65-.76-1.3-1.51-1.95-2.26-.22.62-.66 1.86-.89 2.48-1.12-1.18-2.24-2.36-3.37-3.54l2.88-1.89c-1.41.14-2.82.29-4.22.44 1.07 4.24 5.3 6.44 6.53 10.58 1.04.61 2.08 1.22 3.15 1.77.39.59 1.17 1.76 1.57 2.34 1.11.16 2.21.04 3.27-.34.91.25 1.82.5 2.73.77-1.66.03-3.46-.37-4.94.63-.05 1.29 1.31 2.02 1.89 3.03-3.35-1.94-6.52-4.17-9.76-6.29.16-.8.48-2.39.63-3.19-1.19.74-2.37 1.5-3.56 2.26.81 2.86 2.69 5.14 4.89 7.05-2-.03-3.99-.05-5.98-.03-.87 3.65-2 7.24-2.87 10.9 1.19 1.71 2.19 3.56 3.51 5.18 1.79.58 2.92-1.56 3.05-3.02.42-2.69-2.02-4.44-3.51-6.28.16-.88.49-2.65.65-3.54 11.76 1.5 20.07 13.64 18.86 25.15-2.19-1.14-3.94-2.99-6.15-4.04-2.49.3-4.59 1.81-6.62 3.15.74 1.96 1.25 4 1.46 6.1-.26.31-.79.95-1.05 1.27-.14-2.78-1.39-5.21-3.81-6.64-1.43.67-2.86 1.33-4.31 1.94 1.23-1.38 2.55-2.67 3.89-3.93-1.12-1.77-2.08-3.66-3.47-5.24-1.77-.78-3.62.81-5.39 1.09 1.12-1.17 2.26-2.32 3.41-3.46-.43-1.15-.85-2.3-1.25-3.45-.37-.23-1.12-.68-1.49-.91-4.69 6.22-10.02 12.33-17.04 15.95-7.11-4.07-13.25-9.91-17.21-17.09l-.4-1.01c.71-.86 1.42-1.71 2.14-2.57 2.6 3.01 5.08 6.18 8.11 8.79 2.61 2.16 5.32 4.45 8.7 5.25 2.45-1.91 4.93-3.76 7.29-5.78 3.41-2.91 5.58-6.9 7.9-10.66-1.09-1.12-2.17-2.24-3.26-3.36-1.03 1.58-2.07 3.17-3.11 4.75.64 1.09 1.26 2.19 1.9 3.29-1.57-.02-3.12-.03-4.68-.05-.04 2.07-.33 4.13-1.1 6.06-.49-3.44-.63-6.92-.66-10.4 1.15-1.14 2.55-2.11 3.3-3.58.84-2.32-1.66-3.8-2.78-5.48-.18-1.81-.35-3.62-.41-5.43.3-.49.91-1.47 1.21-1.95.47 1.7.92 3.41 1.37 5.13.89-1.96 2.61-3.81 2.38-6.08-.64-1.49-1.69-2.75-2.61-4.06 3.73.69 6.53 3.37 9.51 5.5-2.02-3.31-5.11-5.67-8.29-7.79 1.82-.83 3.84-2.24 5.86-1.06 4.85 2.2 5.17 8.21 6.45 12.68.11-4.62-.49-9.75-3.93-13.17-1.93-1.31-4.3-1.75-6.48-2.49-.3-.71-.91-2.14-1.21-2.85 3.8 2.91 11.57 4.31 13.36-1.47.04-2.99-.18-5.98-.41-8.96M75.98 67.67c1.49 3.6 2.11 7.44 2.89 11.24.12 1.71 1.93 2.12 3.19 2.73-.96-4.96-1.44-10.95-6.08-13.97m14.73 18.15c4.05 2.93 7.68 6.34 10.49 10.5-.86-5.13-4.96-10.35-10.49-10.5m-2.97 10.59c.86 2.42 2.22 4.61 3.76 6.65.34-.41 1.01-1.22 1.35-1.62-1.3-1.51-2.32-3.21-2.85-5.14-.57.03-1.69.08-2.26.11z"/>
        <path d="M102.69 55.54c1.49-.06 3-.27 4.49-.08l1.49.84c-1.13.79-2.26 1.57-3.37 2.38l-.16.12c-1.74-.78-3.48-1.51-5.21-2.29l-.96-.66c1.23-.11 2.48-.21 3.72-.31zM91.41 74.68c3.12 3.15 5.75 7.1 9.94 8.93 1.88.88 3.89 1.43 5.85 2.11-4.71 1.07-8.47-2.5-12.24-4.65-.46.25-1.38.75-1.84 1.01-.12-2.56-.78-5.03-1.71-7.4z"/>
    </g>
    <path fill="#3f0d10" opacity=".81" d="M86.91 30.03c.31-.3.92-.9 1.23-1.2l.7.25c1.25 1.13-.31 3.95-1.86 2.75-.02-.45-.05-1.35-.07-1.8z"/>
    <g fill="#8c1c21">
        <path d="M20.04 31.15c.93-1.42 2.75-1.14 4.19-1.45.46 1.4 1.2 2.84.77 4.37-1.08-.1-2.14-.23-3.21-.4.69-.29 2.07-.87 2.75-1.16-1.5-3.81-5.64-.58-4.78 2.5.39.63 1.15 1.9 1.53 2.53-2.06-1.27-3.22-4.55-1.25-6.39zM83.65 35.37c-.05-2.3 2.06-3.65 3.26-5.34.02.45.05 1.35.07 1.8-.3 1.98-1.91 3.35-3.21 4.73l-.12-1.19zM103.01 33.98c-.83-2.56 1.19-5.06 3.88-3.88 3.72 1.71 2.12 7.46-1.68 7.99 1-.95 2.09-1.81 2.94-2.9-.04-1.43-.13-2.85-.29-4.27-1.54.12-3.95-.65-4.12 1.6l2.51 1.39c-.81.02-2.43.05-3.24.07zM101.77 34.81c1.29.83 1.64 2.33 2.15 3.66L102.63 40c.47 2.27 3.02-.73 4.41-.91-1.34.98-2.69 1.96-4.05 2.91-.14-1.49-2.53-1.43-2.33.16-.44 1.4-.35 2.86-.12 4.29-.46-.51-1.39-1.53-1.85-2.04-.32-.73-.62-1.48-.9-2.23l.56-.25c1.25-.72 2.54-1.37 3.82-2.03.41-.88.83-1.76 1.24-2.64-.41-.61-1.23-1.84-1.64-2.45zM49.59 37.54l.87 1.55c.52-.68 1.04-1.37 1.54-2.07.72.05 2.17.16 2.89.21 1.06.08 2.11.15 3.17.22.98 1.01 1.96 2.01 2.94 3.01-.57 1.58-1.15 3.16-1.67 4.75-.18-.46-.53-1.37-.7-1.83-1.76.55-3.52 1.09-5.28 1.63-.59.91-1.18 1.83-1.76 2.74-2.38-1.34-4.78-2.66-7.23-3.88 1.76 2.07 3.62 4.05 5.53 5.98-1.05 1.59-2.08 3.19-3.09 4.8 2.41.24 4.65-.63 6.82-1.55-2.03 4.19-7.32 4.6-11.3 3.42-1.37-.43-2.7-1.71-2.39-3.26.32-3.54.47-7.09.22-10.63 1.27.27 2.52.62 3.77.96 2.09-1.81 4-3.83 5.67-6.05m-7.97 15.39c.5 1.59 3.47.95 3.01-.73-.61-1.44-3.51-1.06-3.01.73zM22.57 40.45c3.1-.25 6.39-.02 8.33 2.79l-.54.59-.46.52c-.5.46-1.5 1.39-2 1.86.05-1.72-.19-3.42-.79-5.03-1.66.66-3.21.33-4.54-.73zM32.95 50.43c3.33.03-1.4 3.06 0 0zM22.73 51.08c1.29 1 2.7 1.82 4.3 2.24l.04 1.42c.38.02 1.14.07 1.52.1 4.98.13 9.38 2.78 13.51 5.29.02 3.37-3.23 5.28-4.18 8.3-2.34 1.97-4.58 4.05-6.9 6.05.31-.61.93-1.82 1.24-2.42-.54-.05-1.64-.16-2.19-.21l-.02-.49c2.4.74 3.22-1.46 4.16-3.14.91-.45 1.82-.89 2.73-1.33-.58-1.23-1.15-2.45-1.73-3.68l1.72-1.36c.14.85.41 2.54.55 3.38 1.28-1.57 2.55-3.14 3.82-4.71-3.33-1.61-6.99-3.23-10.67-1.66-.64-.14-1.91-.41-2.54-.54-.67.24-2.01.71-2.68.95l-.69.24c-1.26-.41-2.53-.8-3.8-1.21 2.91-.17 5.7-1.05 8.43-1.99-1.34-.2-2.68-.4-4.03-.58-.37-1.8-1.41-3.29-2.59-4.65m7.5 6.17c.54.52.54.52 0 0zM100.66 53.3c1.19-.24 2.31-.64 3.37-1.22l1.18-.65c-1.21 1.13-2.09 2.52-2.52 4.11-1.24.1-2.49.2-3.72.31l.96.66c.85.73 1.69 1.47 2.53 2.22-3.75-.25-7.48-.65-11.21-1.09 2.06-.88 4.12-1.76 6.16-2.67 1.41-.06 2.83-.1 4.25-.13l-1-1.54m-3.37 3.66c.15 3.33 2.99-1.54 0 0zM107.18 55.46l1.93-.76-.28 2.15c.55-.15 1.66-.46 2.22-.61-1.74 1.16-3.42 3.13-5.75 2.44 1.11-.81 2.24-1.59 3.37-2.38l-1.49-.84zM48.06 59.43c2.36-.48 4.45-1.65 6.26-3.22-.96 2.18-2.91 3.37-5.1 4.09-3.41 1.07-4.71 4.65-6.49 7.38.7-3.14 1.67-7.41 5.33-8.25zM84.92 59.4c1.4-.15 2.81-.3 4.22-.44l-2.88 1.89c1.13 1.18 2.25 2.36 3.37 3.54.23-.62.67-1.86.89-2.48.65.75 1.3 1.5 1.95 2.26-.24.88-.47 1.76-.68 2.64l1.08 1.16.45.47c.43 1.01.85 2.02 1.28 3.03l3.97-.08c-1.29.57-2.61.69-3.97.36-1.07-.55-2.11-1.16-3.15-1.77-1.23-4.14-5.46-6.34-6.53-10.58z"/>
    </g>
    <path fill="#b0252a" opacity=".86" d="M38.32 30.53c.01.03.04.1.06.13-.02-.03-.05-.1-.06-.13z"/>
    <path fill="#491010" d="M47.64 34.31c1.45.22 2.89.44 4.32.71l.04 2c-.5.7-1.02 1.39-1.54 2.07l-.87-1.55c-1.67 2.22-3.58 4.24-5.67 6.05-1.25-.34-2.5-.69-3.77-.96v-.07c-.26-1.93 2.53-2.18 3.54-3.43l.11-.13c1.35-1.5 2.61-3.09 3.84-4.69z"/>
    <path fill="#631413" d="M83.52 34.32l.13 1.05.12 1.19c.07 1.26.12 2.51.14 3.77-1.57-.13-3.14-.14-4.72-.16 1.08 1.01 2.17 2.03 3.3 2.99-1.97 1.22-3.86 2.54-5.71 3.93.66-1.49 1.26-3 1.85-4.51-1.39-1.21-4.09-2.14-3.44-4.48.39-2.06 2.91-1.93 4.44-2.68 1.05 1.37 2.11 2.74 3.19 4.1-.04-.47-.11-1.4-.14-1.87.21-.83.63-2.49.84-3.33z"/>
    <path fill="#8e1f1f" opacity=".84" d="M24.4 38.22c.56.6.56.6 0 0z"/>
    <g fill="#2c0808">
        <path d="M89.29 42.38c.75-1.5 1.53-2.99 2.43-4.4-.22.99-.46 1.98-.7 2.96l2.06.4c-.43.9-.85 1.8-1.28 2.7-.83-.56-1.67-1.11-2.51-1.66zM45.67 82.86c3.9-4.64 3.47-11.21 7.02-16.06l.65 1.91c.4 1.47 1.3 2.72 2.14 3.98.84-1.46 1.66-2.93 2.48-4.4 0 2.35-.09 4.71.13 7.06l.15.54c-1.19 1.35-2.38 2.7-3.51 4.1.66 2.13 2.32 3.64 3.59 5.39.86 2.52.75 5.26.83 7.89-.26 1.03-.57 2.04-.95 3.04-.58-1.08-1.17-2.14-1.75-3.21-.02-1.38-.03-2.76-.1-4.14-1.27.8-2.57 1.57-3.84 2.36.74-3.06.95-6.26-.39-9.21-1.76 1.45-5.58 2.41-4.38 5.42-.72.86-1.43 1.71-2.14 2.57l.4 1.01c-.19.92-.65 1.72-1.41 2.39-.39 1.08-.79 2.16-1.19 3.25 1 1.08 1.99 2.17 2.96 3.28-1.57-.53-3.13-1.09-4.69-1.63-1.33 1.98-2.6 4.02-3.83 6.07 1.46 1.21 2.92 2.43 4.32 3.71-1.52-.63-3-1.31-4.49-2-2.5 1.51-3.85 4.01-4.32 6.86-.8-2.64.06-5.26.47-7.87-1.79-1.23-3.79-2.14-5.85-2.81-2.46.75-4.3 2.79-6.6 3.91-.12-5.07.57-10.36 3.5-14.63-.54 2.37-.86 4.78-1.16 7.19 1.68-2.98 3.33-5.98 5.07-8.93l-3.15-.04c3.76-4.28 8.59-7.74 14.32-8.73.33 1.11.67 2.22 1 3.34-1.66 1.8-3.68 3.79-3.67 6.42.37 1.51 1.52 3.57 3.36 3.12 1-1.03 1.51-2.37 1.77-3.75 1.68-.3 1.82-1.34 1.03-2.71.11-3.3-1.45-6.41-2.43-9.49-1.77-.16-3.55-.08-5.32-.07 2.65-2.11 5.21-5.01 3.89-8.68 1.93-1.52 4.59-.79 6.85-.92-1.91 3.38-3.59 7.34-1.99 11.2.56-3.67.51-7.82 3.59-10.44-1.31 4.46-2.69 9.01-2.36 13.71m-16.99 6.22c3.11-1.06 6.09-2.5 8.91-4.18-3.48.01-6.96 1.1-8.91 4.18m7.89 7.01c-.89 2.13-2.02 4.14-3.14 6.15 3.34.54 3.87-3.53 5.37-5.62-.56-.13-1.67-.4-2.23-.53z"/>
        <path d="M28.1 82.25c2.64-2.02 4.7-4.66 7.11-6.94-.53 2.18-1.02 4.37-1.43 6.58-.44-.21-1.31-.61-1.75-.81-3.77 2.12-7.51 5.79-12.21 4.61 2.83-.93 5.85-1.61 8.28-3.44z"/>
    </g>
    <path fill="#440c0d" d="M79.19 40.17c1.58.02 3.15.03 4.72.16 1.64.39 3.06 1.39 4.56 2.14-.58.47-1.74 1.41-2.32 1.89.23 2.98.45 5.97.41 8.96-.43-.43-1.3-1.3-1.74-1.73-1.22.36-2.44.71-3.65 1.07-1.1-1.25-2.19-2.49-3.32-3.71 2.15-1.84 4.34-3.64 6.42-5.56-.45-.06-1.34-.17-1.78-.23-1.13-.96-2.22-1.98-3.3-2.99z"/>
    <path fill="#060101" opacity=".19" d="M100.66 42.16c-.2-1.59 2.19-1.65 2.33-.16l-2.33.16z"/>
    <g fill="#290905">
        <path d="M82.49 43.16c.44.06 1.33.17 1.78.23-2.08 1.92-4.27 3.72-6.42 5.56.04 2.25 1.08 4.28 2.02 6.26-1.87-.61-3.75-1.2-5.63-1.78l-1.04 1.36c-.2.26-.59.77-.79 1.02.47 1.28.95 2.56 1.42 3.84l-2.58 2.1c-.89-.93-1.78-1.86-2.68-2.79l-.76-.88c.41-4.81 3.03-8.8 6.63-11.87.5.53 1 1.06 1.49 1.59.22-.18.64-.53.85-.71 1.85-1.39 3.74-2.71 5.71-3.93m-6.19 8.06c.51.51.51.51 0 0zM20.44 55.15c1.63.2 3.25.39 4.88.58 1.35.18 2.69.38 4.03.58-2.73.94-5.52 1.82-8.43 1.99l-1.26-.26c.79-.83 1.05-1.79.78-2.89z"/>
    </g>
    <g fill="#410d0e">
        <path d="M16.98 43.71c1.85.86 3.53 2.01 5.1 3.31 2.81.09 4.63 2.14 6.29 4.13.3-.32.89-.96 1.18-1.28l2.41 2.77c-4.34 2.01-5.9-4.32-9.75-4.97l.79 3.28c-1.38-2.9-3.59-5.2-6.02-7.24zM66.26 75.67c.84-1.61 1.72-3.2 2.68-4.74.06 1.81.23 3.62.41 5.43 1.12 1.68 3.62 3.16 2.78 5.48-.75 1.47-2.15 2.44-3.3 3.58.24-.69.73-2.08.97-2.77-.59.24-1.78.72-2.38.97l-.33-4.15-1.4 1.44c-.35.34-1.04 1.02-1.38 1.37-.17-.68-.5-2.03-.66-2.71-.5 1.14-1 2.29-1.46 3.45l.22-1.49c-.55.39-1.65 1.15-2.2 1.53-.49-1.19-.98-2.37-1.47-3.55.13 1.25.27 2.51.41 3.76-.61-.21-1.82-.64-2.42-.85-.66-.81-1.33-1.62-2-2.43 1.13-1.4 2.32-2.75 3.51-4.1.33 1 .68 2.01 1.04 3.01.74-1.15 1.49-2.3 2.23-3.44 1.62 1.42 3.23 2.85 4.86 4.26-.03-1.35-.07-2.7-.11-4.05m2.84 3.79c-1.17.96.25 3.32 1.58 2.26 1.16-.96-.26-3.32-1.58-2.26z"/>
    </g>
    <path fill="#971d21" d="M30.36 43.83c.35.05 1.04.14 1.38.18l.11.7-1.05.27-.9-.63.46-.52z"/>
    <path fill="#070102" opacity=".08" d="M32.65 46.96c.23-1.18.53-2.34 1.02-3.44 1.24 1.67 2.59 3.25 3.89 4.88-1.64-.47-3.28-.95-4.91-1.44z"/>
    <path fill="#781919" d="M53.03 46.59c2.07-.35 4.13-.71 6.21-.96.42.21 1.24.63 1.65.83l-.04.62c-.48 3.54-.8 7.11-.83 10.69-1.68.35-1.1-1.89-1.59-2.84-.15-3.63-3.14-5.9-5.4-8.34z"/>
    <g fill="#47100d">
        <path d="M63.89 51.07c1.9-1.45 2.84-3.67 3.97-5.7l.22 2.01c-.91 1.79-1.81 3.58-2.81 5.33-1.44 1.82-2.56 5.21-5.25 5.06.03-3.58.35-7.15.83-10.69.98 1.35 2.01 2.67 3.04 3.99zM28.3 48.54c.61-1.57 3.26-.26 4.02.74-.63 1.35-3.19.08-4.02-.74z"/>
    </g>
    <path fill="#3b0c0d" opacity=".9" d="M98.2 47.66c.62-.17 3.13.48 1.9 1.28-1.29.24-3.68 1.89-4.52.47.64-.91 1.51-1.49 2.62-1.75z"/>
    <path fill="#631716" d="M77.85 48.95c1.13 1.22 2.22 2.46 3.32 3.71 1.21-.36 2.43-.71 3.65-1.07.44.43 1.31 1.3 1.74 1.73C84.77 59.1 77 57.7 73.2 54.79l1.04-1.36c1.88.58 3.76 1.17 5.63 1.78-.94-1.98-1.98-4.01-2.02-6.26z"/>
    <path fill="#290903" d="M41.62 52.93c-.5-1.79 2.4-2.17 3.01-.73.46 1.68-2.51 2.32-3.01.73z"/>
    <path fill="#942021" d="M76.3 51.22c.51.51.51.51 0 0z"/>
    <path fill="#941c21" d="M94.3 51.02c.58.63.58.63 0 0z"/>
    <path fill="#310a0b" opacity=".96" d="M98.76 53.17c-2.41.49-1.75-3.04.32-2.65 2.55-.41 1.49 2.64-.32 2.65z"/>
    <path fill="#3f0d0e" d="M18.26 52.14c.58.59.58.59 0 0z"/>
    <path fill="#290809" opacity=".51" d="M18.8 56.87c-2.13 1.6-1.67-3.2.28-1.65l-.28 1.65z"/>
    <path fill="#a52126" opacity=".89" d="M19.08 55.22c.34-.01 1.02-.05 1.36-.07.27 1.1.01 2.06-.78 2.89-.21-.29-.64-.88-.86-1.17l.28-1.65z"/>
    <path fill="#651410" d="M72.41 55.81c.2-.25.59-.76.79-1.02.3.71.91 2.14 1.21 2.85 2.18.74 4.55 1.18 6.48 2.49 3.44 3.42 4.04 8.55 3.93 13.17-1.28-4.47-1.6-10.48-6.45-12.68-2.02-1.18-4.04.23-5.86 1.06 3.18 2.12 6.27 4.48 8.29 7.79-2.98-2.13-5.78-4.81-9.51-5.5-1.47.86-2.89 1.8-4.32 2.72-.61-.47-1.22-.93-1.83-1.4l-3.69 2.16c1.08-1.97 2.15-3.93 3.22-5.9l1 2.93c.54-1.82 1.08-3.65 1.69-5.46.31-.01.91-.04 1.21-.06.9.93 1.79 1.86 2.68 2.79l2.58-2.1c-.47-1.28-.95-2.56-1.42-3.84z"/>
    <path d="M30.23 57.25c.54.52.54.52 0 0z"/>
    <path fill="#971f25" opacity=".87" d="M99.93 56.51c1.73.78 3.47 1.51 5.21 2.29l-1.67.42c.72.54 2.14 1.6 2.86 2.13-2.71.42-5.42-.11-8.03-.79 1.38-.63 2.76-1.24 4.16-1.83-.84-.75-1.68-1.49-2.53-2.22z"/>
    <path fill="#b4262f" opacity=".95" d="M22.12 61.21c.65-.43 1.95-1.27 2.6-1.7l.69-.24c1.5.46 3 .96 4.48 1.5-2.56.48-5.17.77-7.77.44z"/>
    <path fill="#430e0c" opacity=".94" d="M96.42 62.88c.62-.78 1.22-1.57 1.88-2.32 2.61.68 5.32 1.21 8.03.79l3.04-.32c-2.47 1.57-5.17 2.85-8.12 3.11-.67-1.28-2.14-1.99-3.53-1.49l-1.3.23z"/>
    <path fill="#a02128" d="M26.61 63.66c1.66-.98 3.35-1.92 5.07-2.8-.57.98-1.18 1.94-1.83 2.88-.7.44-2.08 1.34-2.78 1.79-.11-.47-.34-1.4-.46-1.87z"/>
    <path fill="#ca292a" opacity=".97" d="M97.72 62.65c1.39-.5 2.86.21 3.53 1.49-.19.19-.58.56-.77.75-1.36-.26-2.28-1.01-2.76-2.24z"/>
    <path fill="#3d0c0c" opacity=".53" d="M19.27 64.21c.52.54.52.54 0 0z"/>
    <path fill="#60151b" d="M66.97 66.69c1.43-.92 2.85-1.86 4.32-2.72.92 1.31 1.97 2.57 2.61 4.06.23 2.27-1.49 4.12-2.38 6.08-.45-1.72-.9-3.43-1.37-5.13l-2.88.63c-.07-.73-.23-2.19-.3-2.92z"/>
    <path fill="#3e0c11" opacity=".54" d="M108.28 64.24c.53.52.53.52 0 0z"/>
    <path fill="#5d1313" d="M46.52 69.16c2.16-1.47 4.21-3.11 6.49-4.4.69 1.22.39 2.62.33 3.95l-.65-1.91c-3.55 4.85-3.12 11.42-7.02 16.06-.33-4.7 1.05-9.25 2.36-13.71-3.08 2.62-3.03 6.77-3.59 10.44-1.6-3.86.08-7.82 1.99-11.2l.47-.59-.38 1.36z"/>
    <path fill="#b02428" d="M65.53 68.98c.48-.76.96-1.52 1.44-2.29.07.73.23 2.19.3 2.92l2.88-.63c-.3.48-.91 1.46-1.21 1.95-.96 1.54-1.84 3.13-2.68 4.74.04 1.35.08 2.7.11 4.05-1.63-1.41-3.24-2.84-4.86-4.26-.74 1.14-1.49 2.29-2.23 3.44-.36-1-.71-2.01-1.04-3.01l-.15-.54c.48-.26 1.43-.77 1.91-1.03l1-.58c.52-1 .99-2.04 1.46-3.07.64 1.93 1.31 3.84 2.09 5.72.52-2.44.88-4.91.98-7.41z"/>
    <path fill="#631414" d="M75.98 67.67c4.64 3.02 5.12 9.01 6.08 13.97-1.26-.61-3.07-1.02-3.19-2.73-.78-3.8-1.4-7.64-2.89-11.24z"/>
    <path fill="#210607" opacity=".71" d="M35.21 75.31c.67-.34.67-.34 0 0z"/>
    <path fill="#180400" d="M69.1 79.46c1.32-1.06 2.74 1.3 1.58 2.26-1.33 1.06-2.75-1.3-1.58-2.26z"/>
    <path fill="#911d20" d="M54.73 79.99c.67.81 1.34 1.62 2 2.43.6.21 1.81.64 2.42.85-.14-1.25-.28-2.51-.41-3.76.49 1.18.98 2.36 1.47 3.55.55-.38 1.65-1.14 2.2-1.53l-.22 1.49-.11.76c1.01.52 2.04 1.04 3.07 1.53-.52.57-1.56 1.7-2.07 2.26.57.02 1.72.07 2.29.09-.04-2.26-.04-4.52.32-6.75l1.4-1.44.33 4.15c.6-.25 1.79-.73 2.38-.97-.24.69-.73 2.08-.97 2.77-1.19 2.66-2.92 5.04-4.9 7.18.05-.75.14-2.25.19-2.99-.78.82-1.55 1.63-2.32 2.46.35-2.42.74-4.84 1.16-7.25l-2.91 1.23c-.24 2.41-.44 4.83-.9 7.22-.08-2.63.03-5.37-.83-7.89-1.27-1.75-2.93-3.26-3.59-5.39z"/>
    <path fill="#631416" d="M76.48 81.77c1.09 1.12 2.17 2.24 3.26 3.36-2.32 3.76-4.49 7.75-7.9 10.66-2.36 2.02-4.84 3.87-7.29 5.78-.13-1.57-.26-3.14-.47-4.69l.54.09c1.74 1.87 2.76-1.11.74-1.77-.42-.57-1.27-1.72-1.7-2.3l.27-.3c1.98-2.14 3.71-4.52 4.9-7.18.03 3.48.17 6.96.66 10.4.77-1.93 1.06-3.99 1.1-6.06 1.56.02 3.11.03 4.68.05-.64-1.1-1.26-2.2-1.9-3.29 1.04-1.58 2.08-3.17 3.11-4.75z"/>
    <path fill="#6d151b" d="M47.74 87.53c-1.2-3.01 2.62-3.97 4.38-5.42 1.34 2.95 1.13 6.15.39 9.21 1.27-.79 2.57-1.56 3.84-2.36.07 1.38.08 2.76.1 4.14.58 1.07 1.17 2.13 1.75 3.21-.59 0-1.76.01-2.35.01-3.03-2.61-5.51-5.78-8.11-8.79z"/>
    <path fill="#68161a" d="M28.68 89.08c1.95-3.08 5.43-4.17 8.91-4.18-2.82 1.68-5.8 3.12-8.91 4.18z"/>
    <path fill="#520f10" d="M60.05 86.05l2.91-1.23c-.42 2.41-.81 4.83-1.16 7.25.77-.83 1.54-1.64 2.32-2.46-.05.74-.14 2.24-.19 2.99l-.27.3c-.38.24-1.15.72-1.53.97.57 1.05 1.27 2.03 1.95 3.01.21 1.55.34 3.12.47 4.69-3.38-.8-6.09-3.09-8.7-5.25.59 0 1.76-.01 2.35-.01.38-1 .69-2.01.95-3.04.46-2.39.66-4.81.9-7.22z"/>
    <path fill="#470f10" d="M90.71 85.82c5.53.15 9.63 5.37 10.49 10.5-2.81-4.16-6.44-7.57-10.49-10.5z"/>
    <path fill="#611416" opacity=".97" d="M24.87 91.64c.19-.45.57-1.34.76-1.78l3.15.04c-1.74 2.95-3.39 5.95-5.07 8.93.3-2.41.62-4.82 1.16-7.19z"/>
    <path fill="#951f21" d="M62.13 93.87c.38-.25 1.15-.73 1.53-.97.43.58 1.28 1.73 1.7 2.3-.18.45-.56 1.33-.74 1.77l-.54-.09c-.68-.98-1.38-1.96-1.95-3.01z"/>
    <path fill="#260400" d="M65.36 95.2c2.02.66 1 3.64-.74 1.77.18-.44.56-1.32.74-1.77z"/>
</svg>
