<svg width="128pt" height="128pt" viewBox="0 0 128 128" xmlns="http://www.w3.org/2000/svg">
    <g fill="#601416">
        <path d="M61.52 29.36c-1.01-4.27-.56-8.93 2.33-12.41 3.2 3.66 2.83 8.55 2.33 13.04-2.19-2.95-2.25-6.69-2.6-10.19-1.24 8.65.14 17.42-1.07 26.05-1.57-.34-3.14-.71-4.7-1.07-.48 1.05-.95 2.11-1.43 3.16-.41-2.02-.87-4.03-1.31-6.04.94.39 1.87.79 2.8 1.2 1.55-.47 3.1-.92 4.65-1.35-.06-4.12.98-8.54-1-12.39zM36.64 77.93c1.95-.36 3.9-.76 5.86-1.12-.84.83-1.68 1.65-2.52 2.47 1 1.05 2 2.1 3.01 3.14.01-.63.02-1.88.03-2.5 2.93-.82 5.79-1.87 8.46-3.34 1.19 1.76 2.37 3.58 3.99 5-3.12 1.65-5.86 3.89-8.96 5.59-.46-.42-1.37-1.25-1.83-1.66.38 1.46.67 2.96 1.23 4.38.77-.01 2.31-.01 3.07-.01-1.64 1.39-3.23 2.93-5.28 3.7.3-.54.92-1.61 1.23-2.14-1.41-1.41-2.94-2.73-4.08-4.38-.4-.73-.77-1.48-1.12-2.24-.81-2.44-.59-5.4-3.09-6.89m5.64 6.21c.37 3.32 2.86-1.75 0 0z"/>
    </g>
    <g fill="#841c21">
        <path d="M62.51 45.85c1.21-8.63-.17-17.4 1.07-26.05.35 3.5.41 7.24 2.6 10.19-.29.23-.89.68-1.19.91.06 3.56.22 7.14-.19 10.69-1.51 9.07-.22 18.26-.85 27.39-.41 6.39-.08 12.79-.42 19.19-.89-12.41.1-24.87-.42-37.3H59.77l.84-2.43c-.32-.29-.96-.87-1.28-1.15.8-.36 2.39-1.08 3.18-1.44zM76.33 35.57c.7 1.41 2.02 2.87 1.3 4.55-.94 3.27-1.94 6.54-2.64 9.88 1.41.47 2.83.92 4.26 1.35-.05.42-.13 1.27-.17 1.69-1.34-.49-2.7-.95-4.05-1.39l1.11 2.03c-1.12 3.57-1.88 7.24-2.49 10.92l.47.44c.63.16 1.9.48 2.53.65.61-2.89 1.37-5.74 2.44-8.49-.65-.34-1.94-1.02-2.59-1.36.87.03 2.61.08 3.49.1 1.28-2.86 1.04-6.32 3.28-8.75.95 3.45-1.65 6.43-2.5 9.62 1.17.31 2.34.63 3.51.96-1.01.45-2.07.78-3.18.54-2.68 7.24-4.62 14.76-7.9 21.77-.5-4.96 2.2-9.44 3.23-14.17l-1.72-.09c.01.73.05 2.18.06 2.9l-1.04-1.52c-.18.02-.54.07-.73.09-1.27 7.11-1.89 14.48-4.88 21.15-.35-4.14-.04-8.29.73-12.36 1.41-8.27 2.03-16.66 3.71-24.88-.7.1-2.09.29-2.79.38l-.33-2.02c1.44.17 2.88.33 4.33.48 1.33-4.78-.08-10.02 2.56-14.47z"/>
    </g>
    <g fill="#8c1c21">
        <path d="M51.32 35.59c1.4 1.98 2.08 4.32 2.31 6.72-.6 2.6.28 5.21.66 7.77 1.46-.19 2.91-.38 4.37-.59l-.41 2.07-2.77-.4c1.55 6.99 1.82 14.18 3.26 21.19.11-1.09.32-3.27.43-4.36l1.07.04c-.45 1.6-.91 3.2-1.46 4.78.74 5.19 1.56 10.41 1.11 15.67-3.01-7.38-4.1-15.41-4.93-23.28-.75 1.36-1.42 2.77-2.12 4.15.19-1.02.56-3.07.75-4.1l-1.99.47c1.06 4.87 3.36 9.45 3.59 14.5-3.89-6.85-5.44-14.74-8.29-22.05-1.09.39-2.15.13-3.15-.39 1.15-.33 2.31-.65 3.48-.96-.89-2.65-2.18-5.15-2.94-7.84.32-.38.98-1.14 1.3-1.52.96 2.79 1.51 5.69 2.27 8.54.92.05 2.76.13 3.68.18l-2.68.96c1.18 2.64 1.86 5.46 2.43 8.29 1.09-.21 2.18-.42 3.28-.61-.93-3.71-1.48-7.51-2.72-11.14.3-.49.9-1.48 1.19-1.97-1.37.37-2.74.75-4.1 1.15-.01-.37-.03-1.12-.05-1.49 1.38-.45 2.76-.91 4.13-1.39-.37-4.83-4.41-9.68-1.7-14.39zM76.26 79.62c4.35 1.5 8.3 3.96 12.69 5.4 2.77 1.4 5.57 2.75 8.23 4.35 1.82 1.3 3.66 2.58 5.48 3.89-2.3-.7-4.61-1.41-6.88-2.22-2.69-1-5.23-2.39-7.6-4.02-3.81-2.73-8.34-4.33-11.92-7.4z"/>
    </g>
    <path fill="#6b1418" d="M64.8 41.59c2.57.69 5.39 2.3 7.81.23-.49 2.05-.97 4.1-1.45 6.15-.43-1.05-.87-2.11-1.31-3.16-1.36.29-2.72.6-4.09.9.87.78 2.66 1.22 1.91 2.74-.21 2.18-.56 4.33-.66 6.51-.2 13.67-.89 27.33-.97 41 .03 4.88-1.13 9.65-2.33 14.34-2.71-10.92-2.03-22.2-2.49-33.34-.32-8.69-.09-17.4-.58-26.09h2.47c.52 12.43-.47 24.89.42 37.3.34-6.4.01-12.8.42-19.19.63-9.13-.66-18.32.85-27.39z"/>
    <path fill="#631516" d="M26.73 53.96c6.74 2.05 13.66 3.86 19.63 7.74 1.59 1.88 1.96 4.45 2.86 6.68-8.01-3.98-15.82-8.39-22.49-14.42z"/>
    <path fill="#631418" d="M81.09 62.17c6.54-3.7 13.56-6.32 20.84-8.13-4.1 2.9-7.68 6.56-12.2 8.82-3.73 1.89-7.34 4.03-11.06 5.95.78-2.23 1.59-4.44 2.42-6.64z"/>
    <path fill="#631416" d="M76.29 76.13c2.93 1.86 6.25 2.94 9.6 3.77-.15.66-.45 2-.6 2.67 1.12-1.13 2.22-2.27 3.33-3.41l-2.34-2.54c2.18.55 4.56.86 6.33 2.39-.61.04-1.84.11-2.45.14-.38 1.96-.79 3.92-1.21 5.87-4.39-1.44-8.34-3.9-12.69-5.4 3.58 3.07 8.11 4.67 11.92 7.4-1.51 1.94-5.37 3.57-3.32 6.47-2.17-.97-4.81-2.25-5.56-4.67.84.4 2.51 1.21 3.35 1.62.38-1.22 1.13-3.65 1.51-4.87-.63.47-1.89 1.43-2.51 1.9-2.57-2.36-5.45-4.35-8.6-5.83 1.24-1.74 2.3-3.59 3.24-5.51z"/>
    <path fill="#9c2021" d="M42.28 84.14c2.86-1.75.37 3.32 0 0z"/>
    <path fill="#601518" d="M39.73 84.82c.35.76.72 1.51 1.12 2.24-3.08 1.81-6.32 3.34-9.43 5.08-1.47 3.33-5.58 3.93-8.38 5.78-1.63-.11-3.25-.21-4.88-.29 1.68-4.54 6.2-6.39 10.23-8.34l1.43.79c3.28-1.79 6.62-3.48 9.91-5.26z"/>
    <path fill="#631316" d="M97.18 89.37c1.09-.08 2.19.02 3.28.06 2.44 1.27 4.89 2.5 7.34 3.74.85 1.43 1.71 2.84 2.57 4.27-5.73 1.64-11.01-2.31-14.59-6.4 2.27.81 4.58 1.52 6.88 2.22-1.82-1.31-3.66-2.59-5.48-3.89z"/>
</svg>
