<svg width="128pt" height="128pt" viewBox="0 0 128 128" xmlns="http://www.w3.org/2000/svg">
    <path fill="#515151" opacity=".32" d="M63.48 18.86c1.05 6.34.88 12.78.96 19.18-.19 20.4-.07 40.81-.96 61.19-.44-21.07-.54-42.15-.48-63.23-.13-5.72.07-11.43.48-17.14z"/>
    <path fill="#3c3c3c" opacity=".24" d="M51.12 36.64c2.62 6.72 2.87 14.05 4.26 21.07 1.13 8.45 3.21 16.83 3.29 25.39-2.38-15.51-5.98-30.83-7.55-46.46z"/>
    <path fill="#3b3b3b" opacity=".23" d="M73.72 50.94c.85-4.8 1.2-9.77 3.21-14.27-1.69 15.6-4.96 30.98-7.68 46.42.5-10.82 2.97-21.44 4.47-32.15z"/>
    <path fill="#343434" opacity=".21" d="M44.91 48.36c2.56 3.85 3.23 8.5 4.77 12.78.3 1.8 1.9 3.93.75 5.66-1.99-6.1-4.59-12.06-5.52-18.44z"/>
    <path fill="#303030" opacity=".19" d="M79.24 58.21c1.15-3.33 1.71-6.98 3.91-9.85-.67 5.08-2.67 9.83-4.24 14.67-1.3 3.56-2.11 7.33-4.03 10.64.88-5.3 2.87-10.32 4.36-15.46z"/>
    <path fill="#2c2c2c" opacity=".17" d="M34.39 57.8c4.85 2.04 10.19 3.83 14.06 7.5-5.09-1.55-9.83-4.31-14.06-7.5z"/>
    <path fill="#2b2b2b" opacity=".17" d="M82.36 63.32c3.94-1.95 7.75-4.25 11.99-5.5-4.63 3.41-9.88 5.85-15.01 8.4.77-1.18 1.66-2.35 3.02-2.9z"/>
    <path fill="#3c3c3c" opacity=".24" d="M53.31 67.3c.41.41.41.41 0 0z"/>
    <path fill="#1e1e1e" opacity=".12" d="M51.22 68.17c2.38 1.48 1.95 5.55 2.79 8.16-1.41-2.48-3.06-5.2-2.79-8.16z"/>
    <path fill="#3f3f3f" opacity=".25" d="M74.29 68.26c.41.4.41.4 0 0z"/>
    <path fill="#444" opacity=".27" d="M67.32 71.07c3.01-1.49.09 3.34 0 0z"/>
    <path fill="#343434" opacity=".2" d="M67.35 75.32c.44.42.44.42 0 0z"/>
    <path fill="#6a6a6a" opacity=".42" d="M48.18 81.19c1.9-1.09 3.85-2.29 6.12-2.28-2.64 1.99-5.71 3.26-8.61 4.82-1.3.7-2.59 1.4-3.89 2.1-7.03 3.6-13.89 7.62-21.3 10.42 6.56-4.6 13.94-7.87 21.04-11.55 1.54-.86 3.1-1.71 4.66-2.55.5-.24 1.49-.72 1.98-.96z"/>
    <path fill="#6d6d6d" opacity=".43" d="M75.01 78.7l2.48.96c6.95 3.75 14.18 6.99 20.98 11 3.07 1.46 6.02 3.14 8.99 4.8l-.22.7c-2.29-1.16-4.61-2.29-6.93-3.39-8.48-4.26-16.84-8.78-25.32-13.04l.02-1.03z"/>
</svg>
