<svg width="128pt" height="128pt" viewBox="0 0 128 128" xmlns="http://www.w3.org/2000/svg">
    <path fill="#551115" d="M69.02 21.61c9.85-2.76 20.68-1.39 29.52 3.75 2.3 1.4 5 3.62 4.47 6.66-.69 4.27-3.49 7.81-6.22 11.01 3.38 4.43-1.31 9.23-3.08 13.31 3.06-.99 6.32-.42 9.38-1.37.49.15 1.48.45 1.98.61-.73.12-2.19.37-2.93.5-1.54 1.22-2.69 2.86-2.27 4.93-4.11 4.14-8.48 8.04-13.1 11.6 2.68.89 5.12 2.79 6.07 5.52-1.04 5.2-7.35 5.93-10.77 9.07-.18 1.18-.26 2.38-.24 3.59l3.13.28c-2.76 5.2-8.21 7.89-12.98 10.91.66-1.06 1.32-2.13 1.97-3.2-4.29 1.15-9.11 2.94-11.47 6.96.74-.2 2.23-.6 2.97-.79-3.06 3.01-7.6 3.44-11.58 4.41-6.38 1.44-13.2-.05-18.65-3.58-2.14-1.49-4.7-1.97-7.22-2.37 2.35-.55 4.77-.36 6.94.73 6.55 3.11 14.61 1.51 20.15-2.92 2.21-1.62 2.02-4.74 3.46-6.9-1.07-.45-2.15-.9-3.23-1.34.58-.86 1.16-1.71 1.74-2.57-3.4-.43-7.01.05-10.25-1.21-2.19-.75-1.69-3.26-1.86-5.06-4.07-2.03-8.85-2.84-12.04-6.34-1.17-4.74 1.66-8.78 5.17-11.58-5.27.5-12.44.22-14.99-5.34.22-4.12 3.46-7.18 5.9-10.22.44.4.89.81 1.32 1.22-1.42.87-1.88 2.29-1.39 4.25 2.49-.03 4.96-.41 7.34-1.11-.38.39-1.15 1.19-1.53 1.58 1.82 1.36 4.07 1.62 6.28 1.36 1.43-.08 2.86-.18 4.29-.27 1.54-.09 3.08-.21 4.61-.34.9-2.46 2.51-4.53 4.59-6.11l.9 2.36c-.82.6-1.64 1.19-2.48 1.77 1.2.01 2.39.14 3.56.39.45-.76.91-1.52 1.37-2.27 1.63 2.64 4.49.24 6.69.01.22-.38.66-1.14.87-1.53l1.77-.08 1.36-.16.67-.24c.48-.3 1.42-.9 1.9-1.2 2.1-.8 4.13-1.82 5.99-3.1 1.75-1.45 3.02-3.35 3.31-5.63.33.31.99.92 1.32 1.23 4.45-4.66 8.05-11.99 4.2-18.09 5.1 3.98 5.06 11.67 1.97 16.9 1.41.04 2.82.11 4.24.2.44-1.29.85-2.59 1.27-3.88.39.85.79 1.71 1.19 2.56 1.66-4.28 3.67-10.08-.57-13.59-7.04-5.27-16.56-5.4-25.01-5.28m12.87 28.34c-1.63 1.62-3.43 3.1-4.86 4.91-2.31 1.42-4.47 3.05-6.55 4.78-.36.18-1.09.55-1.46.73-2.13.97-4.3 1.87-6.5 2.69 1.23-1.35 2.5-2.66 3.73-4.01-1.74.93-3.51 1.8-5.36 2.48l-1.23.57c-2.69.75-5.33 1.65-7.95 2.62-1.95.04-3.86.45-5.78.77.32.31.97.92 1.29 1.23-1.09.61-2.16 1.24-3.22 1.9l1.12-2.6c-.87.04-2.62.13-3.5.17-2.72-.61-2.45 1.65-2.47 3.42 1.16.17 2.33.35 3.49.54.01.6.01 1.79.02 2.39-1.99 1.45-2.46 3.83-.52 5.57 5.48.02 10.89-1.1 15.98-3.13l2.82-1.14c2.75-1.14 5.54-2.26 8.03-3.93 1.38-.85 2.69-1.81 4.12-2.6.1-.06.32-.18.43-.24l2.05-1.37c3.97-1.33 7.05-4.32 10.18-6.97 3.8-3.78 8.03-7.28 10.8-11.94-.18-.71-.53-2.14-.71-2.86-2.52 2.37-5.19 4.56-7.89 6.72.56.12 1.68.35 2.24.47-.31.28-.93.83-1.24 1.11-1.38-1.12-2.28-.85-2.69.8-1.66-.51-3.25 1.72-4.69.19 1.38-1.1 2.8-2.17 4.05-3.42.3-.01.89-.02 1.19-.03 2.02-2.12 3.59-4.6 5.03-7.14l-4.3-.24c-1.89 2.51-3.72 5.07-5.65 7.56m11.35 8.79c.97.54 1.95 1.08 2.93 1.61-1.33 1.95-2.75 3.82-4.06 5.78 3.19-2.23 6.1-5.58 6.14-9.67-1.48.04-2.95.09-4.42.13-.15.54-.44 1.61-.59 2.15M35.06 70.79c-.45 2.69-.41 6.35 3.11 6.62-1.34-2.05-2.18-4.36-3.11-6.62M77.7 79.8c-2.79 4.46-6.79 7.95-10.79 11.3 3.06-1.23 6.21-2.29 9.09-3.94 1.48-.65 2.25-2.07 2.36-3.64 4.27 2.06 9.17-1.62 9.73-5.94-1.01-1.18-1.92-2.44-2.75-3.74-2.55 1.97-5.32 3.7-7.64 5.96z"/>
    <path fill="#911c21" d="M60.55 28.85c-.48-2.98-.1-6.03 2.15-8.22 1.37 2.73 1.27 5.73.72 8.65 4.54.72 8.72 2.78 12.19 5.77 1.19-1.32 2.41-2.62 3.63-3.91.88-.13 2.63-.4 3.51-.54-.57 3.14-3.21 4.9-5.55 6.69 1.06 1.43 2.11 2.87 3.21 4.27-.29 2.28-1.56 4.18-3.31 5.63-.49-1.28-.96-2.56-1.49-3.82-.18-.38-.54-1.15-.72-1.53-.27-.47-.81-1.41-1.09-1.88-.52.35-1.58 1.04-2.11 1.39-.32.24-.96.73-1.28.97-.02.01-.08.03-.1.04-.52.03-1.56.08-2.08.11 1.34-1.41 2.66-2.83 3.99-4.25-2.81-2.2-6.02-3.85-9.57-4.4-.34 3.26-.58 6.54-1.16 9.78-1.31-3.17-.74-6.68-.98-10.01-3.56.28-6.91 1.53-9.98 3.32 2.07 2.8 4.34 5.48 6.12 8.48-3.03-1.83-5.3-4.59-7.84-7-2.38 2.78-3.91 6.11-4.97 9.58 3.27.67 6.69.57 9.88 1.63-3.2.99-6.6.57-9.9.68.43 2.49.95 4.95 1.48 7.41-1.43.09-2.86.19-4.29.27-1.04-2.36-1.38-4.93-1.64-7.47-2.26-.13-4.86.37-6.69-1.32-.8.52-1.61 1.03-2.43 1.52.65-.87 1.29-1.75 1.93-2.62 2.26-1.36 4.86-1.14 7.34-.55.89-4.56 2.89-8.94 6.25-12.22-1.23-1.18-2.45-2.35-3.69-3.51-.22-.91-.67-2.72-.89-3.63 3.19.32 4.57 3.15 6.67 5.02 3.85-2.37 8.18-3.86 12.69-4.33z"/>
    <path fill="#1b0508" opacity=".22" d="M71.69 41.35c.53-.35 1.59-1.04 2.11-1.39.28.47.82 1.41 1.09 1.88-1.21.39-2.27.22-3.2-.49z"/>
    <path fill="#611217" opacity=".93" d="M70.41 42.32c.32-.24.96-.73 1.28-.97.93.71 1.99.88 3.2.49.18.38.54 1.15.72 1.53-2.93 1.54-6.04 2.69-9.17 3.77-1.12-1.06-2.27-2.09-3.41-3.13 1.84-.04 3.63-.57 5.2-1.54.52-.03 1.56-.08 2.08-.11h.06l.04-.04z"/>
    <path fill="#380a0c" opacity=".57" d="M70.31 42.36c.02-.01.08-.03.1-.04l-.04.04h-.06z"/>
    <path fill="#871b23" opacity=".93" d="M54.5 51.24c-.53-4.8 3.93-8.38 8.53-7.23 1.14 1.04 2.29 2.07 3.41 3.13.44 1.55.56 3.16.74 4.75l-1.77.08c.12-1.42.07-2.85-.1-4.26-.9-.54-1.82-1.07-2.76-1.55-3.16-1.54-6.94.57-6.74 4.23.23.4.69 1.18.93 1.58-.34.41-1.01 1.22-1.34 1.63l-.9-2.36z"/>
    <path fill="#070102" opacity=".07" d="M55.81 50.39c-.2-3.66 3.58-5.77 6.74-4.23-1.37 2.51-4.34 3.13-6.74 4.23z"/>
    <path fill="#541013" opacity=".93" d="M62.55 46.16c.94.48 1.86 1.01 2.76 1.55-2.77 1.13-5.51 2.35-8.1 3.84l-.47.42c-.24-.4-.7-1.18-.93-1.58 2.4-1.1 5.37-1.72 6.74-4.23z"/>
    <path fill="#ad2220" d="M68.09 50.24c.76.01 2.26.04 3.02.05-.48.3-1.42.9-1.9 1.2-.28-.31-.84-.94-1.12-1.25z"/>
    <path fill="#8e1c21" d="M77.03 54.86c1.43-1.81 3.23-3.29 4.86-4.91.94-.03 2.8-.11 3.73-.15-1.25 1.25-2.67 2.32-4.05 3.42h-.01c.01.34.03 1.01.05 1.35-1.25 4.08-3.29 7.87-6.04 11.13l-2.05 1.37-.43.24c-1.43.79-2.74 1.75-4.12 2.6-2.51.86-5.13 1.29-7.73 1.69-.08.56-.23 1.68-.3 2.24l-2.82 1.14-.21-3.61c-3.87-.7-7.65-2.1-10.69-4.65-.32-.31-.97-.92-1.29-1.23 1.92-.32 3.83-.73 5.78-.77 2.37.7 4.7 1.53 7.04 2.32.26-1.65.51-3.31.91-4.94l1.23-.57c.07 1.88.12 3.77.17 5.65 3.63-.64 7.12-1.93 10.24-3.9l-2.28-2.91c.37-.18 1.1-.55 1.46-.73.62.53 1.86 1.58 2.48 2.11 1.41-2.27 2.69-4.61 4.07-6.89z"/>
    <path fill="#861a1f" opacity=".81" d="M86.26 53.03c.41-1.65 1.31-1.92 2.69-.8-.73.76-1.63 1.03-2.69.8z"/>
    <path fill="#8f1a1b" d="M41.62 66.19c.88-.04 2.63-.13 3.5-.17L44 68.62c-.45.36-1.35 1.06-1.8 1.41-1.89-.77-2.74-2.78-.58-3.84z"/>
    <path fill="#290608" opacity=".51" d="M73.09 67.31l.43-.24c-.11.06-.33.18-.43.24z"/>
    <path fill="#4d1010" opacity=".85" d="M35.06 70.79c.93 2.26 1.77 4.57 3.11 6.62-3.52-.27-3.56-3.93-3.11-6.62z"/>
    <path fill="#491012" opacity=".83" d="M52.56 93.89c-.39-1.35.13-1.87 1.56-1.56.42 1.34-.1 1.86-1.56 1.56z"/>
</svg>
