<svg width="128pt" height="128pt" viewBox="0 0 128 128" xmlns="http://www.w3.org/2000/svg">
    <g fill="#fff">
        <path d="M68.79 21.63c5.43-1.04 11.07-2.33 16.55-.86 6.25 1.25 13.52 2.98 17.3 8.56 1.52 5.23-2.87 9.75-5.71 13.69 3.09 4.59-1.44 9.24-3.23 13.34 3.76-.87 7.67-1.09 11.5-1.12-.99.37-1.99.68-3.01.93-1.65 1.09-2.82 2.74-2.27 4.8-4.14 4.16-8.53 8.11-13.22 11.66 2.93.69 4.96 3.01 6.35 5.54-.53 1.06-1.07 2.13-1.64 3.18-2.74 2.05-5.88 3.45-8.72 5.31-1.4.86-.63 2.81-.84 4.15.78.05 2.33.14 3.11.19-2.7 5.36-8.36 7.93-13.12 11.11.75-1.11 1.49-2.23 2.22-3.36-4.34 1.14-9.31 2.97-11.63 7.06.82-.28 2.45-.84 3.26-1.12-1.67 2.02-4.25 2.81-6.68 3.46-4.82 1.3-9.89 2.45-14.85 1.26-6.03-.72-10.38-5.9-16.54-6.1 5.12-1.48 9.35 2.75 14.4 2.48 5.16-.09 10.49-1.88 14.16-5.61 1-1.92 1.3-4.17 2.41-6.07-.86-.26-2.58-.77-3.44-1.03.49-.64 1.48-1.9 1.97-2.54 1.2-.02 2.43.25 3.61-.05-5.17-.68-11.27.9-15.67-2.54 0-1.26-.01-2.52-.03-3.78-4.07-2.11-8.99-2.76-12.1-6.42-1.24-4.79 1.75-8.91 5.38-11.64-5.33.7-12.73.35-15.26-5.32.74-5.29 4.93-9.33 9.26-12.07-.81 1.45-2.04 2.58-3.3 3.65-.04 1.25-.06 2.5-.07 3.75 2.49.08 4.95-.35 7.26-1.28-.32.5-.95 1.5-1.27 2 4.63 2.26 10.2 1.04 15.12.46.66-2.7 2.54-4.74 4.76-6.29.07.84.13 1.68.2 2.52-.86 1.11-1.66 2.26-2.46 3.42 10.13-2.85 21.11-5.62 28.63-13.51-.27-1.01-1.55-2.41-.01-2.99.88.29 1.11 1.47 1.74 2.1 1.37-3.91 4.74-7.15 4.7-11.58.5-2.52-1.23-4.52-2.42-6.53 6.05 3.23 5.8 11.98 2.68 17.25 1.12-.04 3.36-.1 4.48-.14.45-1.27.8-2.56 1.07-3.89.25.77.74 2.32.99 3.09 1.23-3.66 3.39-7.66 1.47-11.49-2.17-3.94-6.8-5.48-10.93-6.36-5.28-1.31-10.75-1.55-16.16-1.27m18.55 20.85C81.2 51.47 72.9 60.04 62.11 63c1.51-1.27 3.08-2.51 4.31-4.08-5.81 3.24-12.32 5.27-18.88 6.27-1.18 2.69-4.2 3.8-5.96 6.07l2.26.08c-1.2 1.27-2.39 2.55-3.52 3.88l1.28.92c-1.49 1.46-3.58.41-5.21-.17-1.15-1.46-.71-3.47-1.1-5.17.13 2.31-.27 5.39 2.5 6.28 10.05 2.75 20.22-1.6 29.13-5.99 7.55-3.82 14.94-8.23 20.88-14.33 3.11-3.21 6.67-6.11 8.79-10.12-.2-.68-.62-2.04-.82-2.72-4.23 4.19-9.06 7.7-14.05 10.91-1.13.53-2.29 1.02-3.46 1.47 2.22-2.2 5.3-3.28 7.49-5.54 2.62-2.24 4.4-5.22 6.13-8.17-1.52-.02-3.03-.06-4.54-.11m5.91 16.32c.97.52 1.94 1.03 2.92 1.52-1.35 2.1-2.97 4.02-4.21 6.18 2.96-2.54 6.36-5.7 6.24-9.94-1.46-.03-2.92-.03-4.38 0-.14.56-.42 1.68-.57 2.24m-53 7.27c-.48 1.32-.96 2.64-1.43 3.96 2.94-.5 5.27-2.17 7.13-4.46-1.88.34-3.79.46-5.7.5m35.86 16.05c-3.97 4.63-8.38 9.73-14.83 10.48 2.71.03 5.59-.58 7.72-2.34 3.38-1.72 8.88-2.24 9.44-6.82 4.21 2.24 9.1-1.59 9.68-5.85-1.08-1.15-2-2.44-2.79-3.8-3.13 2.7-7.24 4.53-9.22 8.33m-6.76 11.22c4.08-1.17 8.43-2.61 11.4-5.8-4.06 1.35-7.94 3.29-11.4 5.8z"/>
        <path d="M71.37 42.03c1.78-.2 4.12-1.06 3.98 1.68-2.89 1.26-5.9 2.21-8.78 3.49-.91-.96-1.85-1.88-2.76-2.83 1.24-.62 2.49-1.2 3.76-1.77l-1.6 1.74c.84.33 1.67.65 2.51.98l-.63-.89c1.19-.78 2.36-1.58 3.52-2.4zM59.98 44.73c2.06.39 3.94 1.36 5.31 2.98-3.28 1.3-6.44 2.86-9.52 4.59-.2-3.99 6.13-2.53 6.53-6.25-.63-.02-1.87-.04-2.49-.06l.17-1.26zM52.34 93.83c-.98-2.14 3.37-2.41 2.08-.13-.52.03-1.56.1-2.08.13z"/>
    </g>
    <path fill="#d7d7d7" opacity=".84" d="M69.35 93.34c3.46-2.51 7.34-4.45 11.4-5.8-2.97 3.19-7.32 4.63-11.4 5.8z"/>
</svg>
