<svg width="128pt" height="128pt" viewBox="0 0 128 128" xmlns="http://www.w3.org/2000/svg">
    <g fill="#fff">
        <path d="M60.37 24.27c.72-1.17 1.45-2.33 2.2-3.48 1.57 2.63 1.36 5.57.64 8.44 4.54.87 8.79 2.84 12.3 5.86 1.92-2.17 3.96-4.59 7.16-4.51-.5 3.19-3.21 4.85-5.59 6.58 1.6 1.99 2.75 4.25 3.77 6.58-1.25 1.08-2.51 2.14-3.76 3.2-.87-2.45-1.78-4.94-3.35-7.04-2.78 1.91-5.29 4.16-8 6.15 1.19-3.21 4.26-5.17 6.45-7.66-2.59-2.55-5.95-4.14-9.55-4.62-.67 3.26-.24 6.74-1.52 9.86-.41-3.36-.3-6.74-.44-10.11-3.68.15-7.18 1.38-10.21 3.44 2.03 2.88 4.21 5.65 6.65 8.2 3.73-3.11 10.04-.1 9.91 4.75.54 1.74-1 2.67-2.11 3.65.85-2.27 1.67-5.12-.61-6.89-2.4-2.85-6.69-1.53-8.33 1.43 0 1.27-.01 2.54-.03 3.81.98 1.19 2.08 2.27 3.25 3.26-3.06.29-5.02-2.92-4.35-5.7-3.58.97-7.32.55-10.98.69-.03 2.71.76 5.3 1.83 7.76-1.56.03-3.12.07-4.67.11-.96-2.47-1.28-5.12-1.59-7.73-2.79.26-5.66.1-7.87-1.83 1.14-.5 2.28-1 3.41-1.52 1.59.22 3.18.45 4.76.69.55-4.65 2.71-9.08 6.16-12.27-1.26-1.21-2.53-2.41-3.8-3.61-.19-.9-.56-2.71-.74-3.62 2.88.67 4.61 2.97 6.25 5.22 3.99-2.37 8.37-4.07 13.04-4.4-.1-1.56-.19-3.13-.28-4.69M43.82 48.02c4.28.39 10.44 3.13 12.84-2.15-2.84-2.15-5.04-5-7.7-7.36-2.93 2.36-3.98 6.1-5.14 9.51zM76.88 54.84c1.5-1.86 3.45-3.31 5.1-5.03 1.53.03 3.07.09 4.6.17-1.55 1.18-3.21 2.21-4.94 3.1-.81 4.22-2.41 8.49-5.62 11.49.1.26.28.76.38 1.01-4.76 2.83-9.65 5.83-15.39 5.89v2.09c-1.05.49-2.09 1-3.11 1.53.12-1.27.25-2.53.38-3.79-4.53-.56-8.74-2.6-12.18-5.56 1.84-.38 3.68-.71 5.51-1.12 2.36.98 4.78 1.83 7.24 2.55.48-1.92-.29-4.78 2.06-5.63.08 1.88.1 3.77.13 5.66 3.59-.55 7.1-1.67 10.1-3.75-.51-1.36-1.49-2.47-2.25-3.69 1.66-.12 2.82.96 3.9 2.05 1.78-2.07 2.81-4.6 4.09-6.97zM87.38 51.06c.71-.84 3.34-.3 2.03.98-1.05.82-2.24 1.21-3.56 1.17-1.71-.66.98-1.76 1.53-2.15z"/>
        <path d="M53.4 56.63c-.17-1.29.45-1.88 1.86-1.75.27 1.25-.35 1.84-1.86 1.75zM40.4 66.32c1.71-.16 3.42-.31 5.14-.43-1.59 2.23-3.91 3.44-6.59 3.78.5-1.11.98-2.23 1.45-3.35z"/>
    </g>
    <path fill="#f3f3f3" opacity=".95" d="M68.25 50.17l2.51.04c-.37 1.2-1.21 1.39-2.53.59l.02-.63z"/>
</svg>
