<svg width="128pt" height="128pt" viewBox="0 0 128 128" xmlns="http://www.w3.org/2000/svg">
    <path fill="#6b1c21" d="M50.03 30.42c2.84-.98 4.5 1.72 6.5 3.17 1.7 1.42 3.97 1.96 5.62 3.45 1.25.71 2.49.71 3.71.01 2.52-1.94 5.7-2.93 7.87-5.38.88-1.17 3.27-2.3 4.09-.56-3.82 1.67-6.71 5.09-10.92 6.14.03 1.95 2.96 2.06 4.01 3.33-3.29 1.69-7.5-.98-11.07.79-.73.13-2.19.38-2.92.51.06-2.61 4.01-2.32 4.17-4.62-4.14-1.46-7.75-4.05-11.06-6.84z"/>
    <g fill="#521018">
        <path d="M42.29 35.44c3.9 1.71 9.4 3.39 10.55 7.85-.31.9-.64 1.79-1.01 2.66-1.53-.77-2.07-2.43-2.48-3.97-3.21-.77-4.5-4.32-7.58-5.27.13-.31.39-.95.52-1.27zM74.62 43.33c2.36-4.4 7.09-6.64 11.7-7.89l-.44 1.16c-2.63 1.54-4.29 4.36-7.22 5.42-.36 1.44-1.1 2.72-2.01 3.88-.66-.87-1.34-1.73-2.03-2.57zM76.74 63.72c.83-.7 1.69-1.37 2.62-1.94 2.19 2.4 6.63-.78 8.23 2.5 3.08 5.32 6.33 10.51 10.09 15.37-2.88-.5-4.44-3.1-6.84-4.46-1.42-2.02-2.89-4.03-3.95-6.28-.21-.42-.62-1.28-.83-1.71-3.36-.35-6.35-2-9.32-3.48z"/>
    </g>
    <path fill="#3a0e0f" opacity=".66" d="M17.41 36.87c3.91-2.1 8.38 1.13 12.31 2.06-.48.44-1.42 1.33-1.9 1.77-.33-.18-.98-.55-1.31-.73l.01-.43c-.13.06-.39.19-.52.26-.57-.17-1.71-.49-2.29-.65-.43-1.64-1.01-1.72-1.76-.26-.93-.21-1.85-.43-2.77-.65.5-.21 1.52-.62 2.02-.83-.95-.14-2.84-.4-3.79-.54z"/>
    <g fill="#631818">
        <path d="M96.34 40.04c4.51-1.49 8.83-4.09 13.74-3.84-1.19.5-2.43.79-3.74.86l-.08 1.31 1.71-.25c-.48.12-1.45.37-1.93.5-.64-1.79-4.37-.55-2.01.65-.48.12-1.45.35-1.93.47l-.64-.48.03.63c-.38.19-1.15.56-1.53.74-.21-.07-.64-.2-.85-.27l.32.53c-.26.13-.79.4-1.05.53-.7-.43-1.38-.89-2.04-1.38zM80.23 66.47c1.23 1.36 1.87 3.06 2.38 4.79.75 2.19 1.47 4.4 2.51 6.47.29.56.88 1.68 1.17 2.24-1.63-.32-3.14.15-4.29 1.35-.18-1.86-.4-3.72-.87-5.53l-.35-1.38c-.51-2.61-.55-5.29-.55-7.94z"/>
    </g>
    <path fill="#b52529" d="M16.78 37.64l2.4.6c.92.22 1.84.44 2.77.65.44.07 1.32.2 1.76.26.58.16 1.72.48 2.29.65l.51.17c.33.18.98.55 1.31.73 4.59 2.28 8.38 5.87 13.08 7.96-1.89-3.69-6.62-4.6-9.04-7.93 3.38 1.52 6.06 4.18 9.26 6.02 2.58 1.51 5.42 2.47 8.12 3.76 2.04 1.02 4.34 1.64 6.09 3.17-1.29-.44-2.56-.92-3.82-1.43v1.69c-1.2.13-2.39.24-3.59.33-.77-.16-2.31-.47-3.07-.63-.93-.14-1.85-.28-2.77-.43l-3.25-.6-1.57-.32-.59-.21c-.24-2.44-1.5-4.58-3.86-5.51-2.36.84-4.81.31-7.23.2-1.76.49-3.25 1.61-4.81 2.53-2.83-3.02-6.66-7.36-3.99-11.66m24.61 10.59c.63.58.63.58 0 0m1.61.96c.63.59.63.59 0 0m2.51 1.01c.59.64.59.64 0 0m1.61.75c.37 3.21 3.07-1.51 0 0m3.12 1.23c.61.61.61.61 0 0z"/>
    <path opacity=".31" d="M21.95 38.89c.75-1.46 1.33-1.38 1.76.26-.44-.06-1.32-.19-1.76-.26z"/>
    <path fill="#aa2423" d="M107.97 38.12c.83-.1 2.49-.31 3.32-.41 1.75 4.52-.82 8.92-4.2 11.8-1.68-1.08-3.14-2.94-5.27-3-3.38.46-6.41 2.92-9.94 2.15-1.24.79-2.47 1.61-3.67 2.47.67.3 2 .91 2.67 1.21.49.12 1.49.37 1.98.49l-.18-.84 1.41-.56.21.59c.44-.05 1.31-.16 1.74-.22l.02-.81c.28-.13.84-.4 1.12-.54 2.6 1.17 6.93-.73 8.02 2.81-2.05-1.39-4.58-.72-6.79-1.59-.2.5-.62 1.49-.82 1.99l-.55.17c.05-.26.16-.77.21-1.03-3.21.18-6.23 1.35-9.27 2.29-.61.23-.76.67-.45 1.33l.19.69c-.43-.07-1.29-.22-1.72-.3.05-1.12.08-2.25.1-3.37.98.06 2.93.17 3.9.23l-.18-.46c-3.51-.99-7.11 1.12-10.68 1.18-.98-.27-1.95-.58-2.9-.93 2.65-.64 5.19-1.64 7.47-3.15l.43-.12c1.26-.14 2.35-.61 3.28-1.42.23-.21.69-.62.92-.82l.44-.52.62-.5c3.51-.88 5.83-3.92 8.98-5.51.26-.13.79-.4 1.05-.53l.53-.26c.38-.18 1.15-.55 1.53-.74l.61-.15c.48-.12 1.45-.35 1.93-.47.5-.17 1.5-.49 2.01-.65.48-.13 1.45-.38 1.93-.5z"/>
    <path opacity=".27" d="M26 39.8c.13-.07.39-.2.52-.26l-.01.43-.51-.17z"/>
    <path fill="#300b0b" opacity=".6" d="M29.72 38.93c.13.29.38.88.5 1.18l.2.51.53-.1-.11-.57c.25.19.76.59 1.02.78 2.42 3.33 7.15 4.24 9.04 7.93-4.7-2.09-8.49-5.68-13.08-7.96.48-.44 1.42-1.33 1.9-1.77z"/>
    <path opacity=".25" d="M101.46 39.26l.64.48-.61.15-.03-.63z"/>
    <path fill="#7e1b21" d="M30.22 40.11l.62-.16.11.57-.53.1-.2-.51z"/>
    <path fill="#180506" opacity=".44" d="M70.91 40.58c.07.8.14 1.6.22 2.39 1.13.58 2.32 1.25 3.49.36.69.84 1.37 1.7 2.03 2.57.78 1.44 1.22 3.03 1.78 4.56-2.4.98-4.89 1.93-6.72 3.86-.13-2.1 1.42-3.11 3.13-3.84-1.79-1.09-3.54-2.29-5.5-3.05-5.35-1.86-10.9.32-15.58 2.9.8.56 1.6 1.13 2.4 1.69l.6 2.29c-.85.36-1.72.69-2.58 1.01-.08.64-.23 1.91-.31 2.55l-1.11.55-.76.02-.62-.37c.04-1.38.12-2.75.13-4.13v-1.69c1.26.51 2.53.99 3.82 1.43-1.75-1.53-4.05-2.15-6.09-3.17l1.72-2.44c0 .57 0 1.71-.01 2.28.33-.18.97-.52 1.3-.7 5.84-4.6 14.55-6.53 21.11-2.24.14.07.42.2.56.27.66.7 2.57 3.37 3.23 1.55-.25-.38-.76-1.13-1.01-1.51-1.29-2.62-4.13-3.63-6.65-4.67-1.14.33-3.03 1.04-3.02-1.04-1.45.02-2.9.04-4.34.07-.57-.18-1.71-.53-2.29-.71 3.57-1.77 7.78.9 11.07-.79z"/>
    <path opacity=".29" d="M99.11 40.36c.21.07.64.2.85.27l-.53.26-.32-.53z"/>
    <path fill="#581013" d="M78.43 50.46c6.64-2.15 12.13-6.4 17.89-10.15-.08.52-.25 1.58-.33 2.1-2.42 1.15-4.65 2.68-6.59 4.52l-.62.5-.27.21-.17.31c-.23.2-.69.61-.92.82-1.03-1.78-3.21-.15-3.28 1.42l-.43.12c-2.72-.12-5.83.93-7.47 3.15.95.35 1.92.66 2.9.93 1.9.47 3.85.71 5.78 1.02-2.62 1.09-5.44.34-8.12-.02-.22-.67-.65-2.01-.87-2.69-3.24.07-2.18 3.27-1.95 5.37l3.08.87c-.29 1.78-.67 3.55-1.26 5.27.19.38.56 1.16.75 1.55-7.56 3.95-16.4 2.94-24.08-.1-.5-2.02-1.09-4.02-1.73-6L52 58.44l.76-.02c2.8-.33 5.59.07 7.3 2.56l.21-3.71c1.18 1.68 2.56 3.22 4.18 4.5 2.23-1.78 4.7-3.42 7.68-3.25-.35-1.07-.87-2.06-1.47-3.01.35-.39.7-.79 1.05-1.19 1.83-1.93 4.32-2.88 6.72-3.86z"/>
    <path fill="#d62c31" d="M62.13 42.08c1.44-.03 2.89-.05 4.34-.07-.01 2.08 1.88 1.37 3.02 1.04 2.52 1.04 5.36 2.05 6.65 4.67l-2.22-.04c-.14-.07-.42-.2-.56-.27-6.56-4.29-15.27-2.36-21.11 2.24-.1-2.65 1.87-4.41 3.96-5.69 1.84-.96 3.9-1.42 5.92-1.88z"/>
    <path fill="#430f12" opacity=".68" d="M52.84 43.29c1.04.58 2.16.8 3.37.67-2.09 1.28-4.06 3.04-3.96 5.69-.33.18-.97.52-1.3.7.01-.57.01-1.71.01-2.28.22-.53.66-1.59.87-2.12.37-.87.7-1.76 1.01-2.66z"/>
    <path fill="#811b1b" d="M25.58 46.77c2.42.11 4.87.64 7.23-.2 2.36.93 3.62 3.07 3.86 5.51-1.89-.52-3.79-1.46-5.8-1.15 1.42 1.61 4.52 2.91 6.39 1.36l1.57.32-.98 1.02c1.33.66 3.11.67 4.23-.42.92.15 1.84.29 2.77.43-3.99.37.69 2.35 2.29 1.3l.02 1.27c-4.86-.68-9.76-1.36-14.39-3.07-2.62-1.03-5.45-1.28-8.24-1.14l-.62-.93c2.26-.16 4.52-.24 6.78-.44-2.46-1.07-5.3-.54-7.74.33-.73-.55-1.46-1.11-2.18-1.66 1.56-.92 3.05-2.04 4.81-2.53z"/>
    <path fill="#911d21" d="M53.76 50.33c4.68-2.58 10.23-4.76 15.58-2.9l-2.04.64c.62.76 1.23 1.51 1.85 2.26-1.7.2-3.33.71-4.72 1.73-.01 1.09.02 2.2-.17 3.28-1.04.4-2.12.66-3.24.78.55-1.55 1.12-3.1 1.7-4.64l-3.18-1.29c-.05.92-.1 1.85-.14 2.78-.88.46-1.75.91-2.64 1.34l-.6-2.29c-.8-.56-1.6-1.13-2.4-1.69z"/>
    <path fill="#6e1521" d="M91.88 48.66c3.53.77 6.56-1.69 9.94-2.15 2.13.06 3.59 1.92 5.27 3-.34.36-1 1.09-1.33 1.45-2.77-.85-5.74-.96-8.58-.51-.28.14-.84.41-1.12.54l-1.97.44-1.41.56c-.45.09-1.35.26-1.8.35-.67-.3-2-.91-2.67-1.21 1.2-.86 2.43-1.68 3.67-2.47z"/>
    <path fill="#79181b" d="M73.36 47.41c.14.07.42.2.56.27-.14-.07-.42-.2-.56-.27z"/>
    <path fill="#040000" opacity=".3" d="M88.51 47.64l.27-.21-.44.52.17-.31z"/>
    <g fill="#000100">
        <path opacity=".47" d="M41.39 48.23c.63.58.63.58 0 0zM43 49.19c.63.59.63.59 0 0z"/>
    </g>
    <path fill="#7c191b" d="M67.3 48.07l2.04-.64c1.96.76 3.71 1.96 5.5 3.05-1.71.73-3.26 1.74-3.13 3.84-.35.4-.7.8-1.05 1.19.6.95 1.12 1.94 1.47 3.01-2.98-.17-5.45 1.47-7.68 3.25-1.62-1.28-3-2.82-4.18-4.5l-.21 3.71c-1.71-2.49-4.5-2.89-7.3-2.56l1.11-.55c.08-.64.23-1.91.31-2.55.86-.32 1.73-.65 2.58-1.01.89-.43 1.76-.88 2.64-1.34.04-.93.09-1.86.14-2.78l3.18 1.29c-.58 1.54-1.15 3.09-1.7 4.64 1.12-.12 2.2-.38 3.24-.78.19-1.08.16-2.19.17-3.28 1.39-1.02 3.02-1.53 4.72-1.73-.62-.75-1.23-1.5-1.85-2.26z"/>
    <path fill="#7e1c1d" opacity=".94" d="M73.92 47.68l2.22.04c.25.38.76 1.13 1.01 1.51-.66 1.82-2.57-.85-3.23-1.55z"/>
    <path fill="#320a09" opacity=".65" d="M84.14 50.19c.07-1.57 2.25-3.2 3.28-1.42-.93.81-2.02 1.28-3.28 1.42z"/>
    <path opacity=".43" d="M45.51 50.2c.59.64.59.64 0 0z"/>
    <path fill="#260809" opacity=".63" d="M76.24 53.46c1.64-2.22 4.75-3.27 7.47-3.15-2.28 1.51-4.82 2.51-7.47 3.15z"/>
    <path fill="#0b0303" opacity=".4" d="M30.87 50.93c2.01-.31 3.91.63 5.8 1.15l.59.21c-1.87 1.55-4.97.25-6.39-1.36z"/>
    <path fill="#0b0303" opacity=".5" d="M47.12 50.95c3.07-1.51.37 3.21 0 0z"/>
    <path fill="#000200" opacity=".44" d="M94.09 51.43l1.97-.44-.02.81c-.43.06-1.3.17-1.74.22l-.21-.59z"/>
    <path fill="#782328" opacity=".98" d="M23.13 52.68l.65-.65-.65.65z"/>
    <path fill="#0d0303" opacity=".38" d="M23.78 52.03l.75-.03c2.79-.14 5.62.11 8.24 1.14 4.63 1.71 9.53 2.39 14.39 3.07l1.22 1.02c-5.1-.2-10.29-.56-15.11-2.35-2.67-1.03-5.43-1.77-8.26-2.13-.69 1.38-1.18 2.84-1.5 4.35-.34-1.41-.76-2.8-1.2-4.18l.82-.24.65-.65z"/>
    <path fill="#000100" opacity=".49" d="M50.24 52.18c.61.61.61.61 0 0z"/>
    <path opacity=".38" d="M90.88 52.34c.45-.09 1.35-.26 1.8-.35l.18.84c-.49-.12-1.49-.37-1.98-.49z"/>
    <path fill="#c3282e" d="M25.01 52.75c2.83.36 5.59 1.1 8.26 2.13 4.82 1.79 10.01 2.15 15.11 2.35l.88.72c-3.6-.33-6.04 2.65-9.35 3.38-2.18.66-4.47.41-6.7.2-2.77-2.2-7.09-1.61-9.7-4.43.32-1.51.81-2.97 1.5-4.35z"/>
    <path fill="#080202" opacity=".38" d="M37.85 53.63l.98-1.02 3.25.6c-1.12 1.09-2.9 1.08-4.23.42z"/>
    <path fill="#190606" opacity=".52" d="M73.98 58.07c-.23-2.1-1.29-5.3 1.95-5.37.22.68.65 2.02.87 2.69 2.68.36 5.5 1.11 8.12.02-1.93-.31-3.88-.55-5.78-1.02 3.57-.06 7.17-2.17 10.68-1.18l.18.46c-.97-.06-2.92-.17-3.9-.23-.02 1.12-.05 2.25-.1 3.37-2.58.25-5.18.28-7.77.52l-.53.65-.64.96-3.08-.87z"/>
    <path fill="#120404" opacity=".37" d="M87.98 55.09c3.04-.94 6.06-2.11 9.27-2.29-.05.26-.16.77-.21 1.03-3.03 1.3-6.21 2.25-9.51 2.59-.31-.66-.16-1.1.45-1.33z"/>
    <path fill="#c6292c" d="M97.59 53.66c2.05-.47 4.26-1.08 6.19.18.41 2.26-.37 4.54-2.78 5.15-3.97.96-7.69 3.44-11.91 2.65-2.3-.17-4.33-1.29-6.16-2.61-1.5-1.2-3.4-1.25-5.23-1.05l.53-.65c2.59-.24 5.19-.27 7.77-.52.43.08 1.29.23 1.72.3l-.19-.69c3.3-.34 6.48-1.29 9.51-2.59l.55-.17z"/>
    <path fill="#0c0203" opacity=".41" d="M47.14 54.94c-1.6 1.05-6.28-.93-2.29-1.3.76.16 2.3.47 3.07.63-.2.16-.59.5-.78.67z"/>
    <path fill="#300b0d" opacity=".71" d="M47.92 54.27c1.2-.09 2.39-.2 3.59-.33-.01 1.38-.09 2.75-.13 4.13l.62.37-1.26 1.22-.52.49-.09-1.39c-.22-.2-.65-.61-.87-.81l-.88-.72-1.22-1.02-.02-1.27c.19-.17.58-.51.78-.67z"/>
    <path fill="#050101" opacity=".23" d="M77.06 58.94l.64-.96c1.83-.2 3.73-.15 5.23 1.05-1.6-.1-3.22-.43-4.81-.08-.76 1.28.65 1.97 1.24 2.83-.93.57-1.79 1.24-2.62 1.94 2.97 1.48 5.96 3.13 9.32 3.48.21.43.62 1.29.83 1.71-1.31-.54-2.67-.95-4.06-1.22-.05.89-.16 2.68-.22 3.57-.51-1.73-1.15-3.43-2.38-4.79 0 2.65.04 5.33.55 7.94-1.1.4-1.83 1.15-2.2 2.26-4.07 3.57-9.95 3.37-14.64 1.2-4.92 2.22-10.93 2.01-15.03-1.77l.36 1.88c-.58-.23-1.73-.7-2.31-.93.86-3.15 1.09-6.41 1.05-9.66l1.54-.03c-.12 2.07-.27 4.14-.28 6.21l.21.52c1.26 1.18 2.66 2.21 4.21 2.98 3.55.82 7.16-.11 10.37-1.65 1.24.69 2.46 1.43 3.77 1.99 4.19.77 10.31-.42 11.47-5.15-.15-1.77-.37-3.53-.58-5.3-2.84.32-5.21 2.06-7.87 2.93-4.8.8-9.7.32-14.37-.94-1.1-.51-2.2-1-3.3-1.48-.79-.34-1.57-.68-2.36-1.01-.89.11-1.77.21-2.66.32-.56.49-1.13.99-1.69 1.49-.09-.52-.25-1.56-.33-2.09 1.16-.68 2.44-1.1 3.72-1.52.3-.39.92-1.16 1.23-1.55-.86-.46-1.71-.92-2.57-1.38l1.7-1.58.52-.49c.64 1.98 1.23 3.98 1.73 6 7.68 3.04 16.52 4.05 24.08.1-.19-.39-.56-1.17-.75-1.55.59-1.72.97-3.49 1.26-5.27z"/>
    <path fill="#4d0d10" d="M48.52 61.73c.86.46 1.71.92 2.57 1.38-.31.39-.93 1.16-1.23 1.55-1.28.42-2.56.84-3.72 1.52-1.27.94-2.82 1.09-4.33 1.17-1.33 4.59-4.88 7.88-8.27 10.99-.86.46-1.73.92-2.61 1.37.03-.3.07-.92.09-1.22 3.94-4.43 6.61-9.74 9.73-14.73 1.89-2.42 6 .43 7.77-2.03z"/>
    <path fill="#6b1418" d="M48.16 66.78c.89-.11 1.77-.21 2.66-.32.79.33 1.57.67 2.36 1.01-1.62 1.97-3.01 4.14-3.7 6.62l-.21-.52c.01-2.07.16-4.14.28-6.21l-1.54.03c.04 3.25-.19 6.51-1.05 9.66-.72 2.36.48 5.01-.67 7.25-.65-1.33-.07-4.35-2.29-4.21-.8.18-2.42.55-3.23.73 3.45-3.28 4.59-8.1 5.7-12.55.56-.5 1.13-1 1.69-1.49z"/>
    <path fill="#7b1821" d="M70.85 69.89c2.66-.87 5.03-2.61 7.87-2.93.21 1.77.43 3.53.58 5.3-2.09-.11-4.19-.24-6.29-.25.06-.6.19-1.81.25-2.41-.6.07-1.81.22-2.41.29z"/>
    <path fill="#9d1d21" d="M49.48 74.09c.69-2.48 2.08-4.65 3.7-6.62 1.1.48 2.2.97 3.3 1.48 1.55.97 3.13 1.91 4.75 2.78-.77.1-2.31.31-3.07.41-.58.82-1.16 1.63-1.74 2.45-.25-.35-.77-1.04-1.02-1.39-.62 1.27-1.17 2.57-1.71 3.87-1.55-.77-2.95-1.8-4.21-2.98z"/>
    <path fill="#be2729" d="M56.48 68.95c4.67 1.26 9.57 1.74 14.37.94.6-.07 1.81-.22 2.41-.29-.06.6-.19 1.81-.25 2.41l-2.83.28c.9 1.24 1.79 2.49 2.69 3.74-1.67.5-3.35.98-5.04 1.38-1.31-.56-2.53-1.3-3.77-1.99-3.21 1.54-6.82 2.47-10.37 1.65.54-1.3 1.09-2.6 1.71-3.87.25.35.77 1.04 1.02 1.39.58-.82 1.16-1.63 1.74-2.45.76-.1 2.3-.31 3.07-.41-1.62-.87-3.2-1.81-4.75-2.78z"/>
    <path fill="#aa2123" d="M70.18 72.29l2.83-.28c2.1.01 4.2.14 6.29.25-1.16 4.73-7.28 5.92-11.47 5.15 1.69-.4 3.37-.88 5.04-1.38-.9-1.25-1.79-2.5-2.69-3.74z"/>
    <g fill="#3c0d0d">
        <path d="M48.91 76.1c4.1 3.78 10.11 3.99 15.03 1.77 4.69 2.17 10.57 2.37 14.64-1.2.4 2.57-.66 5.02-1.35 7.44-.1-.72-.31-2.16-.41-2.87-.8 1.05-1.28 2.47-2.46 3.17-1.53.27-3.02-.5-4.51-.75-2.59 2.39-6.49 1.09-9.07 3.41-.52-.82-1.04-1.63-1.55-2.45-1.66-.21-3.31-.44-4.95-.68.12-.73.25-1.46.38-2.19-1.1-.53-2.19-1.07-3.29-1.6-.18.51-.55 1.52-.73 2.02-.57-1.35-1.11-2.73-1.37-4.19l-.36-1.88zM43.13 81.08c1.75-.48 2.08 1.67 2.07 2.88.46 2.38-1.47 4.09-2.16 6.18-.93 2.78-1.54 5.68-2.68 8.39-.3.09-.89.26-1.18.34.79-3.15 1.3-6.38 2.35-9.47 1.01-2.68.46-5.67 1.6-8.32zM84.01 88.02c-1.25-2.08-1.84-6.18.95-7.14.96 2.26.68 4.72 1.09 7.07 1.26 3.55 2.13 7.22 2.73 10.95-.92-.29-1.46-.91-1.64-1.88-1.18-2.95-1.49-6.22-3.13-9z"/>
    </g>
    <path fill="#120505" opacity=".42" d="M81.13 75.79c.47 1.81.69 3.67.87 5.53 1.15-1.2 2.66-1.67 4.29-1.35-.29-.56-.88-1.68-1.17-2.24 1.32.67 2.36 1.6 2.21 3.23l-2.37-.08c-2.79.96-2.2 5.06-.95 7.14-4.03-2.67-2.71-8.1-2.88-12.23z"/>
    <path fill="#631313" d="M51.37 80.15c1.1.53 2.19 1.07 3.29 1.6-.13.73-.26 1.46-.38 2.19 1.64.24 3.29.47 4.95.68.51.82 1.03 1.63 1.55 2.45 2.58-2.32 6.48-1.02 9.07-3.41 1.49.25 2.98 1.02 4.51.75 1.18-.7 1.66-2.12 2.46-3.17.1.71.31 2.15.41 2.87-.46 5.25-5.75 7.54-10.25 8.53-4.8 1.01-9.04-2.09-12.62-4.84-1.93-1.32-2.82-3.57-3.72-5.63.18-.5.55-1.51.73-2.02z"/>
</svg>
