<svg width="128pt" height="128pt" viewBox="0 0 128 128" xmlns="http://www.w3.org/2000/svg">
    <g fill="#a22124">
        <path d="M56.97 16.48c.1-.22.29-.67.39-.89-.12 1.86.61 3.28 2.2 4.25l-.79.69c-1.65 1.42-3.34 2.77-5.01 4.15.98-2.77 2.03-5.51 3.21-8.2zM63.71 63.52l.53.23c2.74 1.26 5.67 2.2 8.2 3.88 2.34 2.08 1.76 5.46 1.07 8.15-.89-.16-1.78-.31-2.66-.47l-2.1 3.3c1.92 2.08 1.92 4.92 1.86 7.57-1.2.59-2.39 1.18-3.59 1.77-.6-1-1.2-1.99-1.8-2.99-.27 1.75-.53 3.5-.75 5.25l-.1.75c-1.03-5.3.21-10.68-.49-16-.42-3.8-.3-7.63-.17-11.44zM19.88 82.28c3.89-2.2 8.29-3.24 12.31-5.18.55.21 1.65.63 2.2.83-2.78 1.43-5.59 2.83-8.66 3.55-2.25.31-3.45 2.35-4.83 3.89-.23-.31-.69-.94-.93-1.25-.02-.46-.07-1.38-.09-1.84z"/>
    </g>
    <path fill="#8b1c1f" opacity=".94" d="M70.5 16.11l.3-.24.18.55c.68 3.04 2.4 5.65 4 8.27l.4 1.81c-1.26-.96-2.5-1.94-3.73-2.93l-.31-.26-.41-.97c-.35-1.05-1.19-1.81-1.91-2.6.85-1.09 1.76-2.14 1.48-3.63z"/>
    <g fill="#d92c2e">
        <path d="M53.02 26.69c-.6-3.81.33-8.21 3.95-10.21-1.18 2.69-2.23 5.43-3.21 8.2-.18.5-.55 1.51-.74 2.01zM70.98 16.42c2.98 1.63 4.54 4.9 4 8.27-1.6-2.62-3.32-5.23-4-8.27zM40.92 21.42c.24-.35.7-1.06.94-1.41.9.96 1.99 2.78 1.27 4.05-.28-.13-.85-.41-1.14-.54-.26-.53-.8-1.58-1.07-2.1zM56.26 46.89c4.15-1.92 8.92-2.55 13.24-.84-.89 3.79-1.75 7.61-1.9 11.52-1.23.14-2.46.29-3.68.45l-.89-.2c-1.55-.36-3.11-.71-4.66-1.05.55-2.5 1.03-5.02 1.39-7.55-1.16-.78-2.32-1.56-3.5-2.33zM42.23 67.32c1.45-2.56 4.56-3.71 7.32-4.23-.12.22-.34.65-.45.87l-.49.55c-.43 1.17-.82 2.34-1.15 3.54-.8-.32-1.6-.63-2.39-.94-1.17.91-2.27 1.91-3.57 2.62-1.26.54-2.29 1.48-2.88 2.73-.9 1.41-1.91 2.74-2.78 4.17-1.04-.53-2.12-.94-3.26-1.21.63-.38 1.87-1.12 2.49-1.49 1.26-.6 2.28-1.57 2.98-2.76.47-.95 1.18-1.61 2.13-1.97 1.04-.22 1.73-.85 2.05-1.88zM94.16 77.63c.36-.14 1.08-.42 1.45-.55.61.24 1.83.74 2.44.99.21.5.65 1.5.86 2.01-.89-.37-1.78-.75-2.66-1.12-.63-.3-1.88-.88-2.51-1.17l.42-.16zM81.3 82.89c.86-.67 1.69-1.37 2.53-2.07.28.55.83 1.64 1.11 2.18.34.96.95 1.69 1.84 2.2 1.12 1.42 1.84 3.1 2.46 4.79.47 1.51 1.22 2.92 2.25 4.13.67.9 1.33 1.8 1.97 2.72-.34.13-1.04.38-1.39.51-.43-.01-1.27-.01-1.7-.02-2.03-4.52-4.59-8.77-6.71-13.26l-2.78-.85.42-.33z"/>
    </g>
    <path fill="#7f1a1f" opacity=".8" d="M40.14 18.35c1.15-.21 1.72.34 1.72 1.66-.24.35-.7 1.06-.94 1.41-1.35 0-1.54-2.24-.78-3.07z"/>
    <g fill="#ad2026">
        <path d="M87.57 17.53c1.62 3.69-2.17 6.91-2.76 10.48-2.36.54-4.73 1.06-7.03 1.8-.53-.13-1.59-.37-2.12-.5 2.77-.77 5.52-1.58 8.3-2.32.41-3.41 1.58-6.68 3.61-9.46zM56.04 46.74l.22.15c1.18.77 2.34 1.55 3.5 2.33-.36 2.53-.84 5.05-1.39 7.55 1.55.34 3.11.69 4.66 1.05-2.59-.15-5.18-.14-7.76-.22.29-3.62.53-7.24.77-10.86zM36.78 97.27c.24-.05.71-.14.94-.18 0 .36.01 1.09.01 1.46-.35-.09-1.06-.27-1.42-.36-1.08 1.94-3.03 3.04-4.87 4.13-.02.02-.07.05-.1.06-2.46 1.2-4.78 2.75-5.86 5.39-.41.25-1.22.75-1.63 1.01l-.36-2.72c3.79-3.81 8.83-5.92 13.29-8.79z"/>
    </g>
    <path fill="#5d1316" d="M58.77 20.53l2.62-.48c-.82 1.62-2.51 2.13-4.13 2.56l-.16 2.36c1.33.69 2.64 1.42 3.94 2.16l-2.56.96c.53 1 .97 2.02 1.34 3.08-.34-.06-1.01-.19-1.35-.26l-.7-.45c-.76-.65-1.49-1.31-2.2-2-.53.33-1.57.97-2.09 1.3-.19-1.02-.34-2.04-.46-3.07.19-.5.56-1.51.74-2.01 1.67-1.38 3.36-2.73 5.01-4.15z"/>
    <path fill="#3c0d0d" opacity=".81" d="M70.93 22.34c-2.14 1.75-5.82-2.99-1.91-2.6.72.79 1.56 1.55 1.91 2.6z"/>
    <g fill="#892021">
        <path d="M41.99 23.52c.29.13.86.41 1.14.54.32.71.94 2.11 1.26 2.82 2.49.73 4.98 1.47 7.44 2.31.03.61.1 1.82.13 2.43l.01.43-.34-.46c-1.66-3.16-5.61-2.69-8.57-3.56-.34-1.51-.72-3.01-1.07-4.51zM82.1 51.2c.52-1.75 1.12-3.47 1.81-5.16.15 1.63.38 3.25.56 4.87-.11 2.35-1.9 4.19-3.54 5.7.7-1.73 1.33-3.52 1.17-5.41zM49.58 78.3c.14.83.23 1.68.28 2.52-.21.53-.63 1.58-.83 2.11-1.32.32-2.64.66-3.94 1.03.76-1.1.82-2.46.85-3.74-.56-2.13 2.46-1.45 3.64-1.92zM79.95 77.66c1.31 1.03 2.6 2.09 3.88 3.16-.84.7-1.67 1.4-2.53 2.07-.61.11-1.84.34-2.45.45.37-1.9.73-3.79 1.1-5.68z"/>
    </g>
    <g fill="#581316">
        <path d="M70.3 25.26c.34-.43 1.01-1.27 1.35-1.69 1.23.99 2.47 1.97 3.73 2.93-.17.64-.52 1.93-.69 2.58-.75-.19-1.49-.37-2.24-.55-1.17.66-2.35 1.31-3.56 1.89l.79-2.05c-.62-.34-1.87-1.04-2.5-1.38 1.04-.58 2.08-1.16 3.12-1.73zM40.18 69.2c-.32-1.66.37-2.29 2.05-1.88-.32 1.03-1.01 1.66-2.05 1.88zM38.62 72.46c.59-1.25 1.62-2.19 2.88-2.73 1.03 1.55-1.39 3.82-2.88 2.73zM59.72 90.96c.61-.21 1.83-.65 2.44-.87.09 1.34.15 2.68.19 4.02-.15.7-.45 2.11-.59 2.81-1.43-.33-2.85-.67-4.27-1.03-.38-1.57-.76-3.12-1.16-4.68 1.13-.06 2.26-.15 3.39-.25zM31.34 102.38c.03-.01.08-.04.1-.06-.02.02-.07.05-.1.06zM24.34 112.34c-1.2-1.91-1.13-4.13-.85-6.28l.36 2.72c.41-.26 1.22-.76 1.63-1.01-.34 1.53-.73 3.05-1.14 4.57z"/>
    </g>
    <path fill="#431112" opacity=".76" d="M28.32 29.62c-1.27-1.22-.05-3.72 1.63-3.77 1.4.28.39 2.05-.17 2.67l-.94 1.14-.52-.04z"/>
    <path fill="#350d0f" opacity=".6" d="M97.51 29.81c-1.16-1.54.88-5.56 2.49-3.1-.65 1.16-1.48 2.23-2.49 3.1z"/>
    <g fill="#921c21">
        <path d="M97.51 29.81c1.01-.87 1.84-1.94 2.49-3.1.65 5.51-5.82 7.04-9.66 8.97-1.03.46-2.04.94-3.06 1.41l-.22-.69c1.73-1.18 3.44-2.45 5.45-3.14 1.81-.92 3.54-2.02 5-3.45zM49.55 63.09c.77-2.21 2.04-4.28 4.4-5.03-.26 1.84-.55 3.67-.86 5.5 3-1.12 6.44-2.1 8.99.52l.02 1.37c-2.85-.59-5.75-.77-8.65-.56.18 5.92-.1 11.89.93 17.75l3.37-.21c-.84 3.08-.06 6.1 1.97 8.53-1.13.1-2.26.19-3.39.25.4 1.56.78 3.11 1.16 4.68-4.96-3.25-7.54-9.27-7.63-15.07-.05-.84-.14-1.69-.28-2.52l-.56-1.16c-.53-4.37-.84-8.85.08-13.18.11-.22.33-.65.45-.87m.43 3.76c1.03 3.02 1.3 6.2 1.51 9.36.32-4.24.48-8.48.49-12.73-.67 1.12-1.33 2.25-2 3.37zM101.87 79.57c2.25.65 4.37 1.65 6.41 2.78l-.93 3.17c-1.13-1.23-2.22-2.5-3.35-3.72-.7-.76-1.41-1.5-2.13-2.23z"/>
    </g>
    <path fill="#1f0607" opacity=".47" d="M72.45 28.53c.75.18 1.49.36 2.24.55l.97.23c.53.13 1.59.37 2.12.5-.29.49-.85 1.47-1.13 1.96l-.26.44c-.54-.33-1.61-.99-2.15-1.32l-1.8-.72c-.92.62-1.85 1.22-2.79 1.82-1.51.16-3.03.15-4.54.12.15-1.09.27-2.19.38-3.28l.69 1.32.22.44.45-.04c.51-.04 1.53-.1 2.04-.13 1.21-.58 2.39-1.23 3.56-1.89z"/>
    <g fill="#911c21">
        <path d="M28.84 29.66l.94-1.14c2.41 3.17 6.14 4.59 9.59 6.29l-.27 1.49c-3.41-2.08-8.43-2.82-10.26-6.64zM73.18 58.15c2.84-.05 4.04 2.6 5.14 4.74 1.52.49 3.11.8 4.57 1.48 0 .58-.01 1.73-.01 2.3l-.02.83c-.59.12-1.76.38-2.35.51-.61-1.09.31-3.49-1.27-3.8-.25 10.51.61 23.06-7.71 30.97 0-3.01 1.39-5.72 2.61-8.38-2.35 2.09-4.91 3.93-7.67 5.44-.38-.21-1.14-.62-1.52-.83l-.48-1.2c.22-1.75.48-3.5.75-5.25.6 1 1.2 1.99 1.8 2.99 1.2-.59 2.39-1.18 3.59-1.77.06-2.65.06-5.49-1.86-7.57l2.1-3.3c.88.16 1.77.31 2.66.47.69-2.69 1.27-6.07-1.07-8.15-2.53-1.68-5.46-2.62-8.2-3.88.43-1.3.87-2.6 1.33-3.89.25.65.74 1.95.98 2.6.27-.53.79-1.59 1.06-2.11 2.29 2.13 4.97 3.83 8.08 4.47-.75-2.26-1.6-4.48-2.51-6.67z"/>
    </g>
    <g fill="#861b1e">
        <path d="M51.96 31.62c.97-.7 1.96-1.36 2.99-1.98 1.05.75 2.23 1.18 3.52 1.27.34.07 1.01.2 1.35.26-1.22 1.31-2.55 2.5-3.86 3.72 4.17-.58 8.45-1.02 12.58.06-3.37.07-6.78.3-9.97 1.51 4.47 3.17 10.1 3.21 15.25 4.41l-.96-4.11c.27-.52.53-1.03.8-1.54-1.34-1.08-2.68-2.16-4.01-3.23.94-.6 1.87-1.2 2.79-1.82l1.8.72c-1.96 2.06 1.38 4.17 2.15 1.32l.26-.44c2.03 2.07 2.67 4.9.66 7.24.2.4.6 1.21.8 1.61-1.18 1.62-2.36 3.24-3.51 4.87-3.75-3.33-8.84-4.82-13.8-4.62-3.1.44-5.82 2.14-8.6 3.47l-.01.01c-2.25-2.59-2.35-6.1-3.13-9.27.53-1.37 1.71-2.34 2.57-3.49l.34.46-.01-.43zM92.77 99.72c.21-.25.65-.75.87-1 3.93 2.1 7.9 4.25 11.13 7.38-.46 1.2-.92 2.4-1.37 3.61-.81-1.58-1.45-3.27-2.45-4.74-2.63-1.89-5.67-3.17-8.18-5.25z"/>
    </g>
    <path fill="#a72023" d="M59.82 31.17c.71-.39 2.13-1.18 2.84-1.57-.41.62-1.21 1.85-1.62 2.46 1.02.01 3.05.04 4.07.05 1.51.03 3.03.04 4.54-.12 1.33 1.07 2.67 2.15 4.01 3.23-.27.51-.53 1.02-.8 1.54l.96 4.11c-5.15-1.2-10.78-1.24-15.25-4.41 3.19-1.21 6.6-1.44 9.97-1.51-4.13-1.08-8.41-.64-12.58-.06 1.31-1.22 2.64-2.41 3.86-3.72z"/>
    <path fill="#842029" d="M66.18 30.15c.17.1.5.3.67.4l-.45.04-.22-.44z"/>
    <path fill="#581414" opacity=".97" d="M74.24 30.89c.54.33 1.61.99 2.15 1.32-.77 2.85-4.11.74-2.15-1.32z"/>
    <path fill="#260809" opacity=".43" d="M39.37 34.81c.19.37.59 1.12.79 1.5l.3.43.39-.21-.23-.47c.92.85 1.85 1.69 2.79 2.51.1 1.99.24 3.97.38 5.96-.37-2.02-.72-4.04-1.05-6.07-1.31-.17-2.62-.34-3.93-.49.07-.42.22-1.25.29-1.67l.27-1.49z"/>
    <path fill="#9f2026" d="M40.16 36.31l.46-.25.23.47-.39.21-.3-.43z"/>
    <path fill="#320b0c" opacity=".49" d="M87.28 37.09c1.02-.47 2.03-.95 3.06-1.41-.98 2.44-.93 5.16-2.06 7.55.29-1.76.55-3.52.82-5.29-1.13.23-2.26.45-3.38.67-.14.64-.41 1.92-.55 2.55-.09-.73-.29-2.18-.39-2.91.63-.29 1.88-.87 2.5-1.16z"/>
    <path fill="#e63135" d="M38.81 37.97c1.31.15 2.62.32 3.93.49.33 2.03.68 4.05 1.05 6.07l.11.74c.28.44.85 1.31 1.14 1.75l-.08 1.13c.23.46.68 1.39.9 1.86.15 1.84.11 3.7.08 5.55-1.39-2.68-2.61-5.44-4.04-8.09l.2-.8c.33-1.06.02-1.9-.95-2.53l-.96-1.56c-.02-1.23-.38-2.4-.88-3.51l-.5-1.1z"/>
    <path fill="#d52b35" d="M85.72 38.61c1.12-.22 2.25-.44 3.38-.67-.27 1.77-.53 3.53-.82 5.29l-.58.75c-.87.81-1.22 1.95-1.46 3.07-.46 1.34-1.05 2.63-1.77 3.86-.18-1.62-.41-3.24-.56-4.87.39-1.64.9-3.24 1.26-4.88.14-.63.41-1.91.55-2.55z"/>
    <path fill="#2e0c0d" opacity=".47" d="M39.31 39.07c.5 1.11.86 2.28.88 3.51-1.88.53-2.31-2.75-.88-3.51z"/>
    <g fill="#711416">
        <path d="M60.8 40.87c4.96-.2 10.05 1.29 13.8 4.62-4.36 1.16-8.39-2.16-12.75-1.04-3.15.5-7.01 2.81-9.65-.11 2.78-1.33 5.5-3.03 8.6-3.47zM98.05 78.07c1.28.47 2.61.84 3.82 1.5.72.73 1.43 1.47 2.13 2.23-2.65-.61-5.76-.79-7.75-2.84.88.37 1.77.75 2.66 1.12-.21-.51-.65-1.51-.86-2.01z"/>
    </g>
    <path fill="#791a1b" opacity=".81" d="M41.15 44.14c.97.63 1.28 1.47.95 2.53-1.59-.28-1.91-1.12-.95-2.53z"/>
    <path fill="#1d0607" opacity=".4" d="M86.24 47.05c.24-1.12.59-2.26 1.46-3.07 1.43.92.22 3.88-1.46 3.07z"/>
    <path fill="#390d0e" opacity=".57" d="M43.9 45.27l.9.01.58.9-.34.84c-.29-.44-.86-1.31-1.14-1.75z"/>
    <path fill="#6b1416" d="M49.24 48.26c.77-.96 1.54-1.93 2.31-2.89 1.47.55 2.96 1.02 4.49 1.37-.24 3.62-.48 7.24-.77 10.86-1.38.13-2.76.28-4.13.44-1.61-1.12-3.32-2.08-5.17-2.73.3-2.02 1.73-3.27 3.39-4.23l-.12-2.82z"/>
    <path fill="#a72123" d="M69.5 46.05c.97.31 1.93.6 2.91.88.04 3.6-.21 7.2-.63 10.78-1.4-.05-2.79-.1-4.18-.14.15-3.91 1.01-7.73 1.9-11.52z"/>
    <path fill="#601418" d="M72.41 46.93c1.26-.62 2.51-1.24 3.76-1.86 2.8 2.31 1.53 6.88 5.31 8.21-1.19 1.78-2.31 4.05-4.62 4.53-1.69.11-3.39-.05-5.08-.1.42-3.58.67-7.18.63-10.78z"/>
    <path fill="#350b0c" opacity=".57" d="M44.96 48.15l.89.11.46.95-.45.8c-.22-.47-.67-1.4-.9-1.86z"/>
    <path fill="#631010" d="M53.95 58.06c2.35.58 4.77.67 7.17.74.4.33 1.21 1 1.61 1.34l-.03.16c-.24 1.25-.44 2.51-.62 3.78-2.55-2.62-5.99-1.64-8.99-.52.31-1.83.6-3.66.86-5.5z"/>
    <path fill="#651416" d="M65.57 59.86c2.1-1.78 5.12-.99 7.61-1.71.91 2.19 1.76 4.41 2.51 6.67-3.11-.64-5.79-2.34-8.08-4.47-.27.52-.79 1.58-1.06 2.11-.24-.65-.73-1.95-.98-2.6z"/>
    <path fill="#d4292e" opacity=".97" d="M62.08 64.08c.18-1.27.38-2.53.62-3.78 1.46 3.42.38 7.13.51 10.7-.26 7.69.63 15.51-.86 23.11-.04-1.34-.1-2.68-.19-4.02-.73-8.2.18-16.42-.06-24.64l-.02-1.37z"/>
    <path fill="#bc2729" d="M49.98 66.85c.67-1.12 1.33-2.25 2-3.37-.01 4.25-.17 8.49-.49 12.73-.21-3.16-.48-6.34-1.51-9.36z"/>
    <path fill="#aa2124" d="M53.45 64.89c2.9-.21 5.8-.03 8.65.56.24 8.22-.67 16.44.06 24.64-.61.22-1.83.66-2.44.87-2.03-2.43-2.81-5.45-1.97-8.53l-3.37.21c-1.03-5.86-.75-11.83-.93-17.75z"/>
    <path fill="#d83135" d="M82.89 64.37c.48.47 1.44 1.42 1.91 1.89.56.84 1.33 1.42 2.29 1.75 2.84 2.43 5.32 5.27 8.31 7.54-1.05.25-2.08.57-3.08.97-1.83-2.7-4.27-4.87-6.64-7.07l-.09-.09c-.96-.85-1.86-1.74-2.71-2.69 0-.57.01-1.72.01-2.3z"/>
    <path fill="#330b0b" opacity=".45" d="M84.8 66.26c1.72-.65 2.48-.07 2.29 1.75-.96-.33-1.73-.91-2.29-1.75z"/>
    <path opacity=".43" d="M85.59 69.36l.09.09-.09-.09z"/>
    <path fill="#3a0c0d" opacity=".49" d="M35.07 73.93c-1.05-1.56 1.51-3.9 2.98-2.76-.7 1.19-1.72 2.16-2.98 2.76z"/>
    <path fill="#200a0a" opacity=".49" d="M32.19 77.1c.1-.42.29-1.26.39-1.68 1.14.27 2.22.68 3.26 1.21.45 1.18-.04 1.62-1.45 1.3-.55-.2-1.65-.62-2.2-.83z"/>
    <path fill="#2f0d0d" opacity=".53" d="M95.4 75.55l.45.31-.24 1.22c-.37.13-1.09.41-1.45.55-.81.74-3.1.14-1.84-1.11 1-.4 2.03-.72 3.08-.97z"/>
    <path fill="#b42a2b" opacity=".94" d="M45.48 80.05l.46.17c-.03 1.28-.09 2.64-.85 3.74l-.63.02c-.26-.28-.78-.84-1.05-1.12l-.11-.58c.38-1.08 1.11-1.83 2.18-2.23z"/>
    <path fill="#200708" opacity=".54" d="M108.28 82.35l.09-.3c.31 1.61.61 3.21.89 4.82-.67.34-2 1.01-2.66 1.35.19-.67.56-2.03.75-2.7l.93-3.17z"/>
    <path fill="#ec3138" opacity=".98" d="M43.41 82.86c.27.28.79.84 1.05 1.12l-.66 1.03c-.83 1.12-1.52 2.34-1.92 3.68-1.09 2.94-2.74 5.62-4.16 8.4-.23.04-.7.13-.94.18l-2.06-.11.52-.86c1.34-2.13 2.51-4.36 3.59-6.63 1.23-2.45 2.37-5.06 4.58-6.81z"/>
    <path fill="#300a0b" opacity=".48" d="M84.94 83c1.8-.27 2.41.46 1.84 2.2-.89-.51-1.5-1.24-1.84-2.2z"/>
    <path fill="#340e0e" opacity=".64" d="M19.64 87.42c-.97-.74-1.27-3.24.33-3.3.24.31.7.94.93 1.25.87.86.05 3.14-1.26 2.05z"/>
    <path fill="#420d0e" opacity=".55" d="M41.88 88.69c.4-1.34 1.09-2.56 1.92-3.68 1.41 1.21-.05 4.55-1.92 3.68z"/>
    <path fill="#68151b" d="M66.47 92.24c2.76-1.51 5.32-3.35 7.67-5.44-1.22 2.66-2.61 5.37-2.61 8.38-1.73.75-3.52 1.39-5.33 1.94-.44-1.39-.87-2.78-1.2-4.2.37-.17 1.1-.51 1.47-.68z"/>
    <path fill="#2f0a0c" opacity=".42" d="M35.24 96.3c.79-2.4 1.9-4.72 3.59-6.63-1.08 2.27-2.25 4.5-3.59 6.63z"/>
    <path fill="#2d090b" opacity=".48" d="M89.24 89.99c2.01-.82 3.58 2.72 2.25 4.13-1.03-1.21-1.78-2.62-2.25-4.13z"/>
    <path fill="#df2c31" d="M64.95 91.41c.38.21 1.14.62 1.52.83-.37.17-1.1.51-1.47.68l-.5-.76.45-.75z"/>
    <path fill="#210708" opacity=".52" d="M90.37 97.33c.43.01 1.27.01 1.7.02.36.2 1.08.61 1.44.82l.13.55c-.22.25-.66.75-.87 1l-.65.09c-.98-.26-2.23-1.4-1.75-2.48z"/>
    <path fill="#380c0f" opacity=".72" d="M104.77 106.1l.14-.37c.06 1.72.11 3.45.16 5.17-.65.35-1.95 1.03-2.6 1.37.23-.64.7-1.92.93-2.56.45-1.21.91-2.41 1.37-3.61z"/>
</svg>
