<svg width="128pt" height="128pt" viewBox="0 0 128 128" xmlns="http://www.w3.org/2000/svg">
    <g fill="#fff">
        <path d="M53.82 17.65l1.36-1.8c2.26.07 4.31 1 6.04 2.42-1.01.55-2.04 1.07-3.01 1.69-1.52-.66-3-1.4-4.39-2.31m2.64-.19c.33.33.33.33 0 0zM67.08 19.65c1.43-2.33 3.81-3.99 6.62-3.81.27.51.82 1.52 1.09 2.02-1.58.84-3.2 1.63-4.8 2.43.26-.68.79-2.02 1.05-2.69 2.32 2.2 1.93-2.6 0 0-1.31.7-2.63 1.38-3.96 2.05zM59.42 25.79c1.74-.8 3.34-2.42 5.39-2.15 1.96.06 3.27 1.68 4.69 2.82 4.64-.73 9.2.38 13.82.64-1.72 1.09-3.81 1.09-5.76.77 2.94 1.74 6.58 2.01 9.49 3.93 3.91 2.01 7.11 5.32 9.2 9.17-1.25.03-2.49.07-3.73.13-2.64 1.24-5.86 1.47-8 3.63-2.88 1.06-7 3.14-9.34.04-2.58-4.22-4.53-8.79-6.76-13.2-.92-1.68-.16-3.64.35-5.31-2.8-.35-5.62-.52-8.43-.12-.03 2.16.52 4.49-.59 6.49-2.19 4.54-4.36 9.09-7.01 13.38-2.88.77-5.69 0-8.31-1.22-1.44-1.2-3.24-1.76-4.91-2.54-1.14-.1-2.15-.49-3.03-1.18-1.32-.05-2.63-.11-3.95-.16 3.21-7.12 10.86-10.33 17.73-12.62l-.02-.53c-8.08 1.03-15.77 5.47-20.16 12.41.27-2.86.69-6.16 3.26-7.94 5.39-3.96 12.17-4.89 18.6-5.91 2.65-.72 5.39-.09 8.02.41l-.55-.94m-7.41 1.9c1.61 1 4 .04 5.79-.3-1.1-1.09-4.75-1.17-5.79.3m20.08-.44c1.11 1.16 3.8.86 5.45.73-.64-1.73-3.9-1.04-5.45-.73z"/>
        <path d="M82.1 28.87c.69-.45 1.39-.9 2.09-1.33 4.59 1.22 9.67 2.59 12.7 6.55 1.38 1.54 1.1 3.67 1.12 5.57-3.31-5.74-9.43-9.71-15.91-10.79zM55.19 45.05c1.96-3.83 3.82-7.72 5.55-11.65.51 1.35 1 2.71 1.5 4.07.76 1 1.56 2.06 1.52 3.39.42 4.75.33 9.52.75 14.27.29-5.28.53-10.56.55-15.85 1.5-1.53 2.19-3.55 2.83-5.54 2.57 4.06 4.03 8.72 6.64 12.73 1.19.78 2.56 1.21 3.84 1.8-2.04 1.37-4 2.86-6.18 4-.48.81-.94 1.61-1.4 2.43-3.59 1.42-5.05 5.72-4.81 9.31-.28 7.06.96 14.04 1.05 21.08-.14 3.83 1.83 7.27 2.29 11.01-.03 1.7-1.37 2.92-2.26 4.23-.04.54-.12 1.63-.17 2.18-2.08 2.37-.55 5.93-2.74 8.35.6-.27 1.81-.81 2.41-1.08l-.79 2.36c-.89-.79-1.99-1.25-3.08-1.68.04-3.91 1.15-7.65 2.25-11.36-.06-3.37.13-6.72.65-10.05-.42-5.75-.29-11.56-1.11-17.27-.6 7.72-2.51 15.68-.27 23.27.1 2.98-.81 5.82-1.71 8.61-.63-2.4-1.81-4.55-3-6.71-.22-3.38 1.89-6.48 2.04-9.87.56-7.02.74-14.07 1.3-21.1.29-4.12-.67-9.33-4.76-11.31-.49-.75-.96-1.52-1.43-2.29-2.07-1.36-4.11-2.76-6.33-3.87 1.76-.9 3.96-1.5 4.87-3.46z"/>
    </g>
</svg>
