<svg width="128pt" height="128pt" viewBox="0 0 128 128" xmlns="http://www.w3.org/2000/svg">
    <path fill="#571515" opacity=".74" d="M53.43 17.7c.41-.42 1.25-1.25 1.67-1.67.31 1.47.87 1.5 1.68.09.47.09 1.41.28 1.88.37-1.02 1.43 1.11 2.56 1.69 3.7-2.56-.03-4.95-.89-6.92-2.49z"/>
    <path fill="#d73035" d="M55.1 16.03c.42.02 1.26.07 1.68.09-.81 1.41-1.37 1.38-1.68-.09z"/>
    <path fill="#511315" opacity=".78" d="M70.39 15.62l.99.61c.26.87.55 1.74.86 2.6l.41 1.27c-.86-.12-2.58-.35-3.44-.47-.6.48-1.79 1.42-2.39 1.89l.36-1.71c.37-1.04 1.04-1.86 1.99-2.47.06-.06.19-.19.25-.26l.97-1.46z"/>
    <path fill="#a62526" opacity=".94" d="M71.38 16.23c.59-.04 1.79-.12 2.39-.15l.21.62c-.3.51-.89 1.55-1.19 2.07l-.55.06c-.31-.86-.6-1.73-.86-2.6z"/>
    <g fill="#941c21">
        <path d="M60.35 20.19c-.58-1.14-2.71-2.27-1.69-3.7 1.54.56 2.48 2.08 3.26 3.43.07.8-.26 1.07-1.01.83l-.56-.56zM66.34 71.22c.35 3.44.44 6.91.63 10.37.04 2.92-.04 5.91.94 8.71.75 2.18 1.36 4.4 1.65 6.68-1.39 1.63-2.44 3.51-2.64 5.67-.24.36-.72 1.08-.97 1.44-1.03 1.5-2.12 2.95-3.16 4.44.12-.63.35-1.9.47-2.53 2.28-8.13 2.6-16.74 1.79-25.11v-.13c1.02-3.08 1.08-6.34 1.29-9.54z"/>
    </g>
    <path fill="#ce3031" d="M69.17 17.34c.06-.06.19-.19.25-.26-.06.07-.19.2-.25.26z"/>
    <path fill="#511212" opacity=".81" d="M72.79 18.77c.3-.52.89-1.56 1.19-2.07 2.02.06.13 3.28-1.19 2.07z"/>
    <path fill="#1e090c" opacity=".56" d="M64.33 23.29c.94-1.17 1.87-2.34 2.85-3.48l-.36 1.71-.48 2.5c-1.02-.17-2.05-.3-3.08-.4l-1.87-.19c.6-.73 1.21-1.45 1.84-2.15.27.5.83 1.51 1.1 2.01z"/>
    <path fill="#781a1c" opacity=".96" d="M59.85 25.35c.85-.43 2.56-1.3 3.41-1.73 1.03.1 2.06.23 3.08.4.71.39 2.13 1.16 2.84 1.55-3.11.37-6.27.57-9.33-.22z"/>
    <path fill="#160505" opacity=".46" d="M52.81 26.12c2.26-.36 4.54-.61 6.83-.81l.21.04c3.06.79 6.22.59 9.33.22 1.97-.1 3.94.17 5.9.35-2.4-.07-4.8.24-7.14.76 3.5.54 7.07.49 10.49-.45.99-.21 1.89.41 2.82.63-1.02.08-3.05.25-4.07.33 6.96 1.52 14.4 3.89 19.07 9.62-.5.25-1.5.75-2 .99-5.03-5.89-12.51-9.03-20.09-9.92-2.14-.2-4.3-.32-6.45-.42.85 5.37 3.85 9.98 6.12 14.81 1.01 2.65 3.2 4.42 6.15 4.06l1.01-.22c-.95.84-1.89 1.68-2.82 2.53-3.92-1.4-5.74-5.13-7.21-8.73-.94-2.01-1.93-4-2.92-5.99-.9 2.01-1.9 3.96-2.84 5.95-.31 5.07-.16 10.17-.84 15.22-.24-3.95-.27-7.92-.44-11.88-.12-3.42-1.83-6.42-3.3-9.41l-1.47 3.3c-2.17 4.36-3.57 9.95-8.77 11.61-.15-.37-.45-1.09-.6-1.45-.42-.22-1.25-.64-1.67-.86 1.5-.17 3.03-.29 4.45-.8 2.57-3.01 3.99-6.8 5.81-10.27 1.32-2.48 2.05-5.2 2.4-7.98-1.61.11-3.21.22-4.82.35-1.36.1-2.73.2-4.09.31.17-.19.52-.56.69-.75 2.39-.45 4.81-.61 7.23-.88-2.32-.17-4.65-.29-6.97-.26m8.74 1.97c-.63 3.4.77 6.72 1.76 9.91.57-.07 1.7-.19 2.27-.25 1.1-3.15 1.86-6.51 1.32-9.85-1.16-1.51-4.3-1.3-5.35.19z"/>
    <path fill="#120404" opacity=".35" d="M43.28 27.38c2.9-.83 5.89-1.27 8.91-1.2l-.75.19c-1.46.36-2.93.68-4.4.96.97.43 1.95.84 2.92 1.28-7 1.73-13.8 5.53-17.33 12.06 1.57.3 3.15.58 4.7.97-1.56-.1-3.13-.18-4.69-.24-.45-.55-1.35-1.63-1.8-2.18 1.2-1.62 2.45-3.22 3.83-4.69 3.2-2.68 6.98-4.6 11-5.68-.68-.42-1.36-.84-2.04-1.25l-.35-.22z"/>
    <g fill="#ad2429">
        <path d="M51.44 26.37c.34-.06 1.03-.19 1.37-.25 2.32-.03 4.65.09 6.97.26-2.42.27-4.84.43-7.23.88-.17.19-.52.56-.69.75-.48.15-1.43.45-1.9.6-.97-.44-1.95-.85-2.92-1.28 1.47-.28 2.94-.6 4.4-.96zM77.18 27.19c1.02-.08 3.05-.25 4.07-.33 5.4 1.25 11.44 2.3 15.3 6.68 1.73 1.73 1.67 4.32 1.62 6.59-.64-1.11-1.25-2.24-1.92-3.32-4.67-5.73-12.11-8.1-19.07-9.62zM34.5 31.13c2.97-1.36 5.99-2.63 9.13-3.53.68.41 1.36.83 2.04 1.25-4.02 1.08-7.8 3-11 5.68-.06-1.14-.11-2.27-.17-3.4zM65.2 39.87c1.92 0 3.84.02 5.76.04 1.47 3.6 3.29 7.33 7.21 8.73-4.44 2.06-7.39 5.98-11 9.1-1.01.71-2.04 1.41-3.07 2.09-.9-.64-1.81-1.29-2.71-1.92l-.5-.35-.11-.88c-.13-1.01-.25-2.03-.37-3.04.68-.46 1.37-.91 2.06-1.36.63.94 1.26 1.88 1.89 2.81.68-5.05.53-10.15.84-15.22z"/>
    </g>
    <path fill="#6c1c20" opacity=".85" d="M67.94 26.68c2.34-.52 4.74-.83 7.14-.76.84.07 2.51.23 3.35.31-3.42.94-6.99.99-10.49.45z"/>
    <path fill="#5a1418" d="M61.55 28.09c1.05-1.49 4.19-1.7 5.35-.19.54 3.34-.22 6.7-1.32 9.85-.57.06-1.7.18-2.27.25-.99-3.19-2.39-6.51-1.76-9.91z"/>
    <path fill="#6b1516" d="M51.86 28.01c1.36-.11 2.73-.21 4.09-.31.62 2.6 1.43 5.15 2.42 7.63-1.82 3.47-3.24 7.26-5.81 10.27-1.42.51-2.95.63-4.45.8-3.74-1.23-6.97-3.68-10.78-4.76-1.55-.39-3.13-.67-4.7-.97 3.53-6.53 10.33-10.33 17.33-12.06.47-.15 1.42-.45 1.9-.6z"/>
    <path fill="#400e0d" d="M55.95 27.7c1.61-.13 3.21-.24 4.82-.35-.35 2.78-1.08 5.5-2.4 7.98-.99-2.48-1.8-5.03-2.42-7.63z"/>
    <g fill="#621316">
        <path d="M67.71 27.46c2.15.1 4.31.22 6.45.42-.25 2-.51 3.99-.76 5.98 1.73 1.35 4.16 2.37 4.68 4.71.68 2.58 1.2 5.19 1.9 7.76-2.95.36-5.14-1.41-6.15-4.06-2.27-4.83-5.27-9.44-6.12-14.81zM29.99 40.35c-.17-3.68 1.38-7.19 4.51-9.22.06 1.13.11 2.26.17 3.4-1.38 1.47-2.63 3.07-3.83 4.69l-.85 1.13z"/>
    </g>
    <path fill="#731518" d="M74.16 27.88c7.58.89 15.06 4.03 20.09 9.92.74 1.01 1.44 2.05 2.12 3.1-5.67-.08-10.29 3.39-15.38 5.21l-1.01.22c-.7-2.57-1.22-5.18-1.9-7.76-.52-2.34-2.95-3.36-4.68-4.71.25-1.99.51-3.98.76-5.98z"/>
    <path fill="#7f191a" opacity=".94" d="M60.62 33.8c1.47 2.99 3.18 5.99 3.3 9.41-1.8-1.86-3.39-3.92-4.77-6.11l1.47-3.3z"/>
    <path fill="#871e21" d="M68.04 33.92c.99 1.99 1.98 3.98 2.92 5.99-1.92-.02-3.84-.04-5.76-.04.94-1.99 1.94-3.94 2.84-5.95z"/>
    <path fill="#bb2426" d="M59.15 37.1c1.38 2.19 2.97 4.25 4.77 6.11.17 3.96.2 7.93.44 11.88-.63-.93-1.26-1.87-1.89-2.81-.69.45-1.38.9-2.06 1.36.12 1.01.24 2.03.37 3.04-3.44-2.72-6.15-6.38-10.4-7.97 5.2-1.66 6.6-7.25 8.77-11.61z"/>
    <path fill="#7b1a1e" opacity=".97" d="M61.39 57.91c.9.63 1.81 1.28 2.71 1.92-.44 4.21.33 8.38.72 12.55-.34 2.4-.81 4.77-1.15 7.17-.39-.57-1.17-1.7-1.56-2.26.01-.65.01-1.95.02-2.59l.05-.55c.56-4.74 1.74-9.74-.02-14.37-.19-.47-.58-1.4-.77-1.87z"/>
    <path fill="#c2282c" d="M64.1 59.83c1.03-.68 2.06-1.38 3.07-2.09-1.66 4.3-1.07 9-.83 13.48-.21 3.2-.27 6.46-1.29 9.54-.1-2.79-.06-5.59-.23-8.38-.39-4.17-1.16-8.34-.72-12.55z"/>
    <path fill="#25080a" opacity=".56" d="M62.16 59.78c1.76 4.63.58 9.63.02 14.37-.25-4.79.29-9.58-.02-14.37z"/>
    <path fill="#160505" opacity=".37" d="M59.95 93.18c1.35-6.09 1.06-12.38 2.18-18.48-.01.64-.01 1.94-.02 2.59-.07 3.61-.15 7.23-.56 10.82-.53 1.69-1.07 3.38-1.6 5.07z"/>
    <path fill="#bf2a2c" d="M62.11 77.29c.39.56 1.17 1.69 1.56 2.26-.06 2.66-.31 5.31-.45 7.98l-1.67.58c.41-3.59.49-7.21.56-10.82z"/>
    <path fill="#120404" opacity=".36" d="M63.71 91.74c1.6-3.39 1.16-7.21 1.34-10.85.81 8.37.49 16.98-1.79 25.11-.68-1.16-1.41-2.28-2.09-3.43-.01-.61-.03-1.83-.03-2.44.35.78 1.07 2.33 1.42 3.1 1.42-3.66 1.91-7.61 1.15-11.49z"/>
    <path fill="#100303" opacity=".37" d="M66.97 81.59c.84 2.83.95 5.79.94 8.71-.98-2.8-.9-5.79-.94-8.71z"/>
    <path fill="#791b1b" d="M61.55 88.11l1.67-.58c.12 1.05.37 3.16.49 4.21.76 3.88.27 7.83-1.15 11.49-.35-.77-1.07-2.32-1.42-3.1-1.58-2.03-2.46-4.51-1.19-6.95.53-1.69 1.07-3.38 1.6-5.07z"/>
    <path fill="#3d0d11" opacity=".9" d="M62.79 108.53c1.04-1.49 2.13-2.94 3.16-4.44-.22 2.54.22 7.43-3.49 7.32.08-.72.25-2.16.33-2.88z"/>
    <path fill="#5a1818" d="M65.4 111.32c.26.26.26.26 0 0z"/>
</svg>
