<svg width="128pt" height="128pt" viewBox="0 0 128 128" xmlns="http://www.w3.org/2000/svg">
    <g fill="#fff">
        <path d="M27.15 29.19c4.25-3.08 9.55-3.59 14.4-5.14 1.1 5.46 6.81 7.66 10.92 10.5 2.74 1.61 4.44 4.34 6.32 6.79 1.96 3.32 4.03 6.71 4.76 10.55.2 3.59-.15 7.2-.89 10.71.28.92.86 2.75 1.15 3.66.54-1.17 1.06-2.36 1.58-3.55-.89-3.76-1.22-7.65-.88-11.5.96-3.54 2.83-6.74 4.7-9.86 1.87-2.48 3.6-5.19 6.34-6.81 4.11-2.84 9.8-5.04 10.91-10.5 6.19 1.77 13.14 2.83 17.7 7.85 1.71 2.06 2.72 4.75 1.83 7.4-5.21-3.02-12.02-5.33-17.67-2.09-6.01 3.92-8.67 11.2-10.58 17.8h-1.47c-.09 1.78-1.07 3-2.76 3.51-.42 1.84-.83 3.68-1.31 5.51.99-1.26 2-2.5 3.02-3.73 1.08 1.2 2.17 2.39 3.29 3.57-.96.51-1.93 1.02-2.89 1.52.11.31.34.91.46 1.21-2.13 1.32-4.11 2.87-6.01 4.5-.09 1.91-.06 3.9-.92 5.67 1.22-1.24 1.89-3.31 3.89-3.43 1.66-.46 4.29-.18 4.64-2.42.35-1.99 1.45-3.63 2.99-4.89.16 2.18 1.02 5.05-1.03 6.62-1.88 1.35-3.78 2.78-4.43 5.15 1.5-1.05 3.01-2.09 4.5-3.15.15.55.43 1.64.57 2.19 1.11-.38.79-2.03 1.33-2.83 1.62-6.2 3.06-12.67 2.27-19.1-1.22-1.95-3.44-3.47-2.79-6.06.69 1.64 1.49 3.25 2.82 4.48 2.05 3.77.99 8.44.57 12.52 1.53-.41 3.07-.79 4.61-1.16-.67 4.89-2.37 9.88-6.11 13.29-1.64 1.39-3.78 2.43-4.49 4.62-1.53 4.44-3.27 9-6.28 12.66-.64.96-1.57-.1-2.24-.41-.91 3.57-4.02 6.07-5.82 9.22-2.05-3.05-5.26-5.64-6.1-9.29-.84.78-2.08 1.38-2.73.01-2.45-3.81-4.9-7.94-5.5-12.5-2.08-2.65-5.35-4.09-7.13-7.01-2.29-3.08-3.17-6.88-3.78-10.59 1.54.37 3.08.76 4.61 1.16-.66-3.5-.69-7.11-.41-10.65 1.76-2.57 3.28-5.23 2.22-8.43.56 1.49 1.37 2.95 1.55 4.56-.9 1.22-1.89 2.37-2.86 3.55-.58 7.32 1.08 14.58 3.1 21.57l-.93.04c-.79-4.13-2.03-8.28-5.87-10.59.22 4.84 2.75 9.16 6.28 12.36.78-1.07 1.42-2.23 1.92-3.45 1.43 1 2.86 2.01 4.29 3.01-.61-1.19-1.24-2.37-1.9-3.53-3.7-1.02-4.57-4.93-3.57-8.25 2.47 1.46 2.37 4.51 4 6.51 2.88.5 5.94 1.03 7.58 3.79-.8-1.64-.96-3.45-1.01-5.24-1.89-1.64-3.86-3.19-5.99-4.5.12-.31.38-.93.51-1.24-.74-.35-2.23-1.06-2.97-1.42 1.12-1.2 2.24-2.41 3.33-3.64 1.03 1.24 2.03 2.49 3.06 3.73-.47-1.87-.89-3.74-1.29-5.62-.55-.22-1.66-.65-2.21-.87-.11-.63-.34-1.9-.45-2.53h-1.65c-1.98-6.81-4.66-14.59-11.27-18.2-5.58-2.64-11.86-.41-16.85 2.47-1.58-4.01 1.63-8.17 5.02-10.08m56.14 41.98c-.64 2.59-1.57 5.09-2.64 7.53 4.1-3 6.76-7.72 7.02-12.8-1.54 1.63-3.93 2.87-4.38 5.27m-35.06 6.97c2.72 4.44 3.75 9.69 6.75 14.02.78 2.09 2.12-1.56 1.28-2.05-.06-2.38-.32-4.82-1.44-6.96-1.19-1.28-3.07-1.7-4.21-3.06-.81-.62-1.19-2.04-2.38-1.95m7.06 2.19c1.3 2.06 1.68 4.95 4.03 6.15-.89-2.86-3.61-5.37-2.62-8.57-.47.81-.93 1.62-1.41 2.42m16.04-2.43c.99 4.61-2.98 9.14-7.33 10.3-2.05-.92-4.18-2.47-6.32-.8 1.32.1 2.99 2.57 4.02.45.71.6 1.24 1.31 1.61 2.15-.32 2.44-3.53 2.31-5.22 3.48.55.58 1.09 1.17 1.64 1.75.12-.52.35-1.57.46-2.1 1.91-.7 7.25-2.12 6.44 1.48-1.7.21-3.4.48-5.09.8 1.06 1.93 3.25 1.38 5.07 1.5 1.08-1.14 2.22-2.21 3.4-3.25-1.23-.62-2.42-1.37-3.8-1.64-.36-.5-1.07-1.5-1.43-2 .29-1.83 2.17-2.68 3.22-.82v-1.01l2.7-.52-2.29-.73c2.49-1.45 3.1-4.37 4.4-6.72-.62-.7-.86-1.63-1.48-2.32m8.3 1.68l.5-.89c-1.47-2.52-3.36 2.62-.5.89m-1.83.45c-2.77 1.47-5.81 3.35-5.8 6.89.24 1.63-1.37 5.36.67 5.81 2.38-3.9 4.76-8.05 5.13-12.7z"/>
        <path d="M23.68 40.5c.59-.31 1.19-.62 1.78-.94.73.93 1.5 1.82 2.3 2.7 6.54 5.68 5.59 15.5 3.37 23.02-1.81-.6-3.6-1.26-5.34-2.07 1.4.17 2.8.35 4.19.56 1.38-5.26 2.48-11.02.52-16.27-1.21-3.19-3.93-5.37-6.82-7zM101.67 40.7c.5-1.34 1.6-.98 2.64-.53-1.88 1.76-4.39 2.93-5.69 5.24-3.48 5.48-2.18 12.41-.62 18.31 1.41-.15 2.82-.32 4.24-.41-1.76.74-3.56 1.36-5.38 1.94-1.94-7.04-2.89-15.37 1.77-21.59.28-.22.85-.66 1.13-.88.64-.69 1.28-1.39 1.91-2.08z"/>
        <path d="M40.19 53.98c1.43-4.55.93-9.38 1.08-14.07 3.03 4.62 1.76 10.59-.06 15.43-2.64 5.98-4.26 13.12-10.17 16.84-2.44 1.71-5.79.62-7.47-1.61-3.33-4.27-5.3-9.43-7.02-14.52-.51-1.54-1.36-3.91.77-4.62 3.32 7.1 7.47 15.04 15.26 17.98 4.02-4.26 5.95-9.94 7.61-15.43zM85.17 42.55c.47-.61 1.4-1.82 1.86-2.43-1.2 10.3 1.72 21.31 8.4 29.29 7.82-2.91 11.92-10.9 15.25-18 1.17.52 1.6 1.4 1.32 2.62-1.28 4.92-3.27 9.67-5.81 14.08-1.36 2.27-3.28 4.71-6.14 4.93-4.55-.52-7.62-4.68-9.47-8.53-2.75-7-7.06-14.15-5.41-21.96z"/>
    </g>
    <g fill="#fbfbfb">
        <path d="M51.94 67.66c1.68 1.3 3.35 2.64 4.71 4.29-1.57.14-3.14.13-4.71-.02v-4.27zM71.53 72.06c1.12-1.87 2.92-3.14 4.6-4.49-.04 1.45-.08 2.91-.1 4.36-1.5.1-3 .15-4.5.13z"/>
    </g>
</svg>
