<svg width="128pt" height="128pt" viewBox="0 0 128 128" xmlns="http://www.w3.org/2000/svg">
    <g fill="#fff">
        <path d="M45 55.23c.61-.82 1.21-1.63 1.83-2.44-.25 1.1-.75 3.31-.99 4.42 2.43-1.59 5.06-2.95 7.95-3.46 2.37 2.45 4.76 5.01 5.94 8.29-.87 3.24-3.82 4.85-6.29 6.74-4.53-3.32-9.79-1.31-14.63-.19.51.33 1.51.99 2.02 1.32-3.3.28-6.61.23-9.91.46 3.09.81 6.31.28 9.45.14 1.45.42 2.77 1.61 4.34 1.48 1.78-1.11 3.21-2.67 4.83-3.98 1.46.22 2.69 1.21 4.06 1.72 1.34-1.19 2.64-2.42 3.95-3.64 1.89 1.6 3.8 3.18 5.68 4.78 3.48-.96 6.29-3.27 8.1-6.37 1.88 1.97 3.46 4.9 6.53 4.93 3.67.26 7.01 1.98 9.25 4.92.9 5.06-1.81 9.94-6.08 12.56-4.54 3.73-10.79 2.99-16.02 5.02-2.38.7-4.06 2.63-6.16 3.83 2.52-2.96 5.48-5.55 8.95-7.33l-.8-.32c-4.67 2.38-9.99 4.36-13.07 8.86-3.65 4.62-6.49 9.8-9.94 14.55 1.19-3.64 1.47-7.61 3.39-10.99-1.16-.56-2.31-1.11-3.47-1.66 1.78-1.24 3.18-3.05 2.62-5.37-.88.17-2.63.5-3.51.67.61-1.07 1.22-2.14 1.82-3.21-.25-.47-.75-1.4-1-1.87-1.23-.05-2.45-.09-3.68-.12-.64 1.79-1.25 3.59-1.9 5.38-.01-1.18-.04-3.54-.05-4.72-1.44 1.12-2.53 2.56-3.46 4.11-1.77-.36-3.57-.42-5.34-.72-.66-.86-1.96-2.59-2.61-3.45l1.22 4.61c-1.46-1.83-2.79-3.74-4.15-5.63.14.78.41 2.36.55 3.15l-1.31.04c-.28-3.25 1.47-5.94 3.08-8.57.75-.19 2.24-.58 2.98-.77.27 2.55.99 5.06 2.6 7.11-.24-2.17-.58-4.32-.63-6.5l.94-.17c.53.06 1.58.19 2.11.25.7-1.37 1.38-2.73 2.06-4.1.39.74.78 1.49 1.18 2.23 1.4-.31 2.81-.63 4.21-.94.33.55 1 1.65 1.34 2.2-.02-.92-.05-2.75-.06-3.67.39.61 1.17 1.84 1.56 2.45 2.02-2.17 3.33-4.87 4.01-7.74-2.77 1.7-5.98.41-8.9-.09 1.82 1.15 3.96 1.47 6.07 1.69-.76 1.01-1.48 2.03-2.17 3.08l-1.26-1.22c-.17.43-.53 1.29-.7 1.72-.34-.5-1.02-1.49-1.36-1.99l-.08 2.27-1.77-.85-.06 1.49c-.67-.64-1.33-1.28-1.98-1.92-.43.76-1.29 2.3-1.72 3.07l-.66.09c.22-1.75.44-3.5.63-5.26-1.38 1.37-1.46 4.83-3.27 5.12l-.56-1.73c-.78.82-1.51 1.67-2.26 2.51-.65-1.64-1.36-3.26-2.27-4.77-.05 1.18-.16 3.54-.21 4.72-.46-.44-1.39-1.34-1.86-1.78.77-2.13 1.39-4.3 2.04-6.47 1.62-.82 3.09-3.27 5.13-1.38l-1.52-1.61c2.14-.9 4.39-1.34 6.7-1.33.8-1.63 1.63-3.27 2.79-4.68 1.64-1.37 3.86-1.64 5.81-2.4-.23-2.18-.23-4.38-.05-6.57m17.04 20.96c-3.07-.19-5.95-1.47-9.04-1.64-1.12 2.18-1.85 4.53-2.71 6.82 4.67 1.03 10.21 1.38 14.03-2.03 1.99-1.52 2.04-4.2 2.84-6.38-1.44 1.43-2.78 3.54-5.12 3.23z"/>
        <path d="M71.91 53.79c6.08 1.23 11.88 3.78 16.68 7.74 4.96 3.34 10.35 7.59 16.7 6.75-2.08 2.63-5.22 4.16-8.53 2.81 1.82 3.12 3.39 6.38 4.52 9.82-5.38 0-10.83.85-15.62 3.43.89-1.46 1.62-3.01 2.31-4.58 0-1.64 0-3.29.01-4.93-1.25-1.72-2.67-3.29-4.16-4.79-2.44-1.15-5.12-1.48-7.76-1.83-1.9-1.4-3.21-3.44-4.72-5.21-.07-3.09-.15-6.19.57-9.21zM25.25 97.29c2.24-1.82 5.47-1.02 8.13-1.62.99 4.58-4.44 6.13-6.57 9.26.15 2.16.7 4.27 1.1 6.39-3.01-3.9-5.29-9.32-2.66-14.03z"/>
    </g>
    <path fill="#696969" opacity=".41" d="M64.14 69.44c1-2.63 1.45-6.11 4.88-6.57.6 3.53-1.83 5.65-4.88 6.57z"/>
    <path fill="#a8a8a8" opacity=".66" d="M41.16 69.19c.66.67.66.67 0 0z"/>
    <path fill="#adadad" opacity=".68" d="M24.06 92.11c3.26.12-1.45 3.11 0 0z"/>
</svg>
