<svg width="128pt" height="128pt" viewBox="0 0 128 128" xmlns="http://www.w3.org/2000/svg">
    <g fill="#fff">
        <path d="M62.22 30.09c.73-4.7 1.02-9.48 2.26-14.09.8 11.78 3.34 23.37 4.57 35.11-.05 1.21.62 2.21 1.3 3.15 4.26-3.78 8.88-7.19 13.6-10.38l.08 1.09-.77-.08c-1.13 1.69-2.18 3.45-3.65 4.87l-1.58-.59c1.73 2.19-.42 3.61-1.53 5.09l-.46-.35c.56-.69 1.67-2.06 2.23-2.74l-.77-.95c-2.33 2.01-3.97 6.02-7.16 6.37l-.66 1.78c-1.92-11.12-3.38-22.4-5.35-33.52-.66 10.94-.18 21.95-.33 32.92-1.13.29-2.24.62-3.35.97-2.23-.22-4.44-.01-6.55.73-9.73 1.09-19.37 2.81-29.11 3.84 2.93.96 6.03.29 9.05.45 7.91.22 15.82.07 23.73.22.86 2.12 2.46 4.43-.11 6.06l1.15.24c-.25 1.3-.15 2.5.74 3.51.79 9.35 2.87 18.56 3.51 27.92l.86-.02c-.02-10.47.15-20.95.08-31.42 1.58-.48 3.09-1.13 4.55-1.89.97 1.19 1.89 2.54 1.2 4.17 2.23 1.89 5.06 3.15 6.73 5.65l-3.17-1.08.79-.71-3.39-2.19c-.52.61-1.04 1.21-1.57 1.81-1.47 11.72-3.41 23.38-4.86 35.1-2.34-12.56-3.7-25.36-5.83-37.99-4.49 3.87-9.74 6.83-13.93 11.02l-.58-.36c1.2-1.54 2.37-3.11 3.4-4.78l1.12.94c-.95-2.88 1.7-4.79 3.31-6.68.76-1.34 3.16-2.64 1.25-4.11-12.02-2.03-24.25-3.02-36.15-5.64 12.15-.99 24.14-3.39 36.26-4.61.31-.36.91-1.09 1.22-1.45-3.63-4.1-6.25-9.05-10.27-12.79l-.11-.95c2 1.41 4.49 2.61 5.22 5.16l2.1-1.32-1.1 1.81.94 1.94c.44-.46.87-.93 1.3-1.41 2.14 1.22 4.08 2.77 5.57 4.74-.57-.32-1.72-.95-2.29-1.27-.47-.56-1.41-1.67-1.88-2.23-.35.59-.69 1.18-1.04 1.77 1.89.84 3.44 2.51 4.35 4.35.57-.37 1.15-.73 1.73-1.08.74-8.73 2.35-17.39 3.35-26.1m-7.09 39.93l-.36.65c-2.02 2.42-4.02 4.88-5.72 7.53 3.35-2.21 5.82-5.44 9-7.88-.61-.22-1.83-.67-2.44-.89l-.48.59z"/>
        <path d="M72.54 58.48c.76-1.09 1.45-2.32 2.68-2.95-1.72.76-.96 2.2-.69 3.36 12.26 1.17 24.36 3.67 36.64 4.69-3.34.59-6.86 2.25-10.15.62l.49 1.37c-8.97.75-17.81 2.53-26.75 3.53-.22.33-.66.99-.87 1.32 3.69 4.33 6.86 9.08 10.34 13.58l-.84-.03c-.91-.95-1.9-1.84-3.13-2.35l.89-1.32c-1.33.35-2.58.11-3.75-.74l1.62-.88c-3.14-3.08-6.63-5.93-8.92-9.74l3.49 1.19c-.2-.62-.4-1.24-.6-1.87 9.23 0 18.44-2.65 27.71-3.27l.13-.92c-10.26.12-20.52-.18-30.78-.07l-.07-3.22c-1.45 1.96-.73 4.85-2.65 6.55-2.35 2.55-7.57 1.15-7.82-2.49-.83-2.81 1.74-5.61 4.48-5.83 1.74-.04 3.04 1.77 4.71 1.68.9-1.53 1.61-3.56 3.84-2.21m-11.67 3.66c.21 1.64-.3 3.78 1.51 4.71 1.13.14 2.27.23 3.41.25 1.32-1.53 2.52-3.96.57-5.54-1.62-1.86-3.92-.62-5.49.58z"/>
        <path d="M61.65 63.96c.78-.79 1.57-1.58 2.36-2.36.81.79 1.6 1.58 2.39 2.39-.78.79-1.57 1.58-2.36 2.36-.8-.79-1.6-1.59-2.39-2.39z"/>
    </g>
</svg>
