<svg width="128pt" height="128pt" viewBox="0 0 128 128" xmlns="http://www.w3.org/2000/svg">
    <g fill="#fff">
        <path d="M83.46 61.36c4.2.01 8.4.23 12.6-.14 2.26 5.06 1.22 11.27-2.7 15.25-4.12 4.52-6.55 10.46-6.23 16.63-3.52.5-7.04.99-10.6 1.01.47-11.31 6.56-21.46 6.93-32.75zM30.57 70.49c-1.1-2.76-.52-5.78.22-8.56 4.57.49 9.19.69 13.75-.07.25 11.26 6.45 21.38 6.85 32.65-3.77-.44-7.54-.85-11.27-1.57.25-2.77.08-5.61-.82-8.26-1.57-5.5-6.84-8.84-8.73-14.19zM59.01 62.88c3.15 1.18 6.52 1.19 9.63-.17 2.07 10.61-.68 21.18-.88 31.8-2.59-.02-5.17 0-7.76.06-.02-10.58-3.36-21.16-.99-31.69z"/>
    </g>
</svg>
