<svg width="128pt" height="128pt" viewBox="0 0 128 128" xmlns="http://www.w3.org/2000/svg">
    <g fill="#fff">
        <path d="M63.89 15.61c.58 2.42 1.02 4.87 1.4 7.34l-1.15-.02c.6.67 1.19 1.35 1.77 2.03 4.23.7 8.34 2.57 11.18 5.86 6.23 6.54 6.17 18.09-.61 24.24 1 1.37 1.85 2.83 2.67 4.31-.64-.09-1.94-.28-2.58-.37-.38-.96-.79-1.91-1.22-2.85-3.03 3.32-7.69 3.34-11.35 5.49 2.56 2.32-.08 5.85-.15 8.72-.47-2.46-.95-4.92-1.51-7.36l2.19-2.51c-6.26.22-12.35-3.08-15.69-8.33-4.6-6.86-3.29-16.98 3.02-22.36-1.64-.9-2.94-2.18-3.2-4.15l3.37 1.44-1.34 1.17c.97.37 1.94.73 2.92 1.08l-.62-.94c3.56-2.26 7.63-3.59 11.87-3.63-.66-.63-1.99-1.9-2.66-2.53.64-2.19 1.11-4.42 1.69-6.63m-3.7 11.59c-9.23 1.89-14.97 13-10.97 21.56 2.42 6.63 9.81 10.64 16.7 9.76 8.83-1.01 15.76-10.33 13.52-19.08-1.6-8.45-10.94-14.39-19.25-12.24z"/>
        <path d="M54.2 19.63c1.04 1.08 2.09 2.15 3.16 3.2-.23.66-.46 1.33-.69 1.99-.42-.16-1.26-.46-1.67-.62-.26-1.52-.53-3.05-.8-4.57zM72.13 24.83c-3.77-.83-.07-3.81 1.29-5.2-.22 1.77-.28 3.65-1.29 5.2zM76.53 26.26c1.49-1.83 3.31.6 1.91 2.04-1.21 1.64-3.52-.85-1.91-2.04zM61.46 30.58c8.32-2.02 17.03 7.14 14.25 15.33-1.78 6.49-9.63 11.28-16.04 8.34-5.57-2.13-9.42-8.48-7.88-14.4 1.37-4.43 5.09-8.23 9.67-9.27zM40.75 33.12c1.57.18 3.13.37 4.69.56.09.66.26 1.98.35 2.64-2.17-.16-3.58-1.81-5.04-3.2zM82.1 35.88c-.88-3.1 3.11-2.16 4.93-2.78-1.53 1.02-2.78 3.89-4.93 2.78zM36.54 42.63c2.93-.06 6.53-2.7 8.83.17-2.51 2.36-5.94.25-8.83-.17zM82.72 41.92c2.82-1.18 5.74.33 8.51.9-2.38.34-4.75.81-6.98 1.73-.52-.87-1.03-1.75-1.53-2.63zM40.99 52.24c1.06-1.04 2.11-2.09 3.17-3.14.45.21 1.35.63 1.81.84-.2.45-.58 1.34-.77 1.79-1.41.16-2.81.33-4.21.51zM81.82 51.11c.52-3.88 3.91-.34 5.19 1.16-1.75-.29-3.62-.26-5.19-1.16zM50.38 59.53c-2.08.83-2.13-2.44-.47-2.87 2.04-.72 2.47 2.66.47 2.87zM54.78 61.64c.42-.36 1.25-1.08 1.67-1.45 1.81 2.3-.7 3.98-2.12 5.63.14-1.4.3-2.79.45-4.18zM72.34 60.33c.59 1.71.98 3.49 1.12 5.3-1.21-1.13-2.35-2.32-3.47-3.53.78-.6 1.56-1.19 2.35-1.77z"/>
    </g>
</svg>
