<svg width="128pt" height="128pt" viewBox="0 0 128 128" xmlns="http://www.w3.org/2000/svg">
    <path fill="#81191e" d="M50.53 16.26c4.88-1.24 9.67.92 14.47 1.56 4.49-.64 8.94-2.57 13.54-1.74 2.47.43 4.42 2.07 6.1 3.83.23 7.36.48 14.72 1.14 22.05-1.9 1.41-5.27 2.08-5.14 5.01-.14 2.86.26 5.7.37 8.54-6.02-2.1 1.12-9.92-2.99-13.45-1.71-1.5-4.18-.98-6.26-1.31-.11 2.98-.27 5.97-.58 8.94-1.3-2.37-1.98-5.16-3.75-7.24-3.34-1.86-8.54-1.04-10.4 2.57-1.95 3.23.06 6.98.54 10.34l-1.75 1.83c-.33-2.99-.34-6.01-.73-9-.52-2.9-5.24-4.73-7.01-1.95-.4 3.65.02 7.33-.23 10.99-3.49-2.13-.56-6.23-.63-9.32.45-2.16-1.92-2.96-3.22-4.03.16-7.06 1.18-14.07.96-21.14-.29-3.26 2.62-5.81 5.57-6.48z"/>
    <path fill="#120404" opacity=".38" d="M84.64 19.91c1.05 7.96 1.61 16.03 1.27 24.05-1.25.75-2.55 1.45-3.68 2.37-.51 3.47.68 7.06-.32 10.47-1.92.47-4.39.54-4.9-1.85.04-3.62 1.29-7.16.88-10.8-1.17-1.29-3.89-3.25-5.06-1.04-.17 2.36.15 4.71.28 7.07-1.38.08-3.02 1.01-4.2-.15-1.36-2.28-1.96-4.92-2.86-7.4-3.09.32-5.98 1.5-8.29 3.6.25 3.71.9 7.38 1.62 11.03-1.84.52-3.72.91-5.62 1.19.29-4.02.96-8.21-.88-11.99-1.31.57-2.68 1.05-3.85 1.89.28 3.31 1.08 6.63.34 9.95-1.53-.1-3.05-.19-4.58-.29-.16-3.62.42-7.2.83-10.79.04-.5.14-1.52.19-2.03-.6-.12-1.79-.37-2.39-.5.61-7.31.24-14.7 1.54-21.95.22 7.07-.8 14.08-.96 21.14 1.3 1.07 3.67 1.87 3.22 4.03.07 3.09-2.86 7.19.63 9.32.25-3.66-.17-7.34.23-10.99 1.77-2.78 6.49-.95 7.01 1.95.39 2.99.4 6.01.73 9l1.75-1.83c-.48-3.36-2.49-7.11-.54-10.34 1.86-3.61 7.06-4.43 10.4-2.57 1.77 2.08 2.45 4.87 3.75 7.24.31-2.97.47-5.96.58-8.94 2.08.33 4.55-.19 6.26 1.31 4.11 3.53-3.03 11.35 2.99 13.45-.11-2.84-.51-5.68-.37-8.54-.13-2.93 3.24-3.6 5.14-5.01-.66-7.33-.91-14.69-1.14-22.05z"/>
    <path fill="#3a0b0d" d="M72.83 43.11c1.17-2.21 3.89-.25 5.06 1.04.41 3.64-.84 7.18-.88 10.8.51 2.39 2.98 2.32 4.9 1.85 1-3.41-.19-7 .32-10.47 1.13-.92 2.43-1.62 3.68-2.37.36 11.53 1.06 23.06.73 34.6-1-4.86-1.06-9.83-.91-14.76-2.21.67-4.4 1.43-6.49 2.41 1.6 1.01 3.22 2 4.84 2.98-.67.24-1.34.48-2.01.71.4.48 1.21 1.43 1.61 1.9-2.94 1.45-5.71 3.26-8.75 4.5-1.64.04-3.22-.56-4.81-.9-.02 2.06-.05 4.11-.08 6.16-3.52-.54-7.08-.45-10.58.16.2-2.16.39-4.33.58-6.5l-3.54.63c.46.93.92 1.86 1.38 2.8-3.8 1.16-7.76 1.55-11.71 1.78-1.9-4.16 2.91-6.67 5.12-9.47-2.7-1.11-5.53-1.85-8.43-2.17.68-7.63.15-15.34 1.21-22.95l1.55 1.38c-.41 3.59-.99 7.17-.83 10.79 1.53.1 3.05.19 4.58.29.74-3.32-.06-6.64-.34-9.95 1.17-.84 2.54-1.32 3.85-1.89 1.84 3.78 1.17 7.97.88 11.99 1.9-.28 3.78-.67 5.62-1.19-.72-3.65-1.37-7.32-1.62-11.03 2.31-2.1 5.2-3.28 8.29-3.6.9 2.48 1.5 5.12 2.86 7.4 1.18 1.16 2.82.23 4.2.15-.13-2.36-.45-4.71-.28-7.07z"/>
    <path fill="#4d0f13" d="M79.24 66.21c2.09-.98 4.28-1.74 6.49-2.41-.15 4.93-.09 9.9.91 14.76.14 1.1.26 2.2.35 3.31l-.85.08c-4.5.6-9.06.53-13.55-.1-.64-.07-1.92-.22-2.55-.29.03-2.05.06-4.1.08-6.16 1.59.34 3.17.94 4.81.9 3.04-1.24 5.81-3.05 8.75-4.5-.4-.47-1.21-1.42-1.61-1.9.67-.23 1.34-.47 2.01-.71-1.62-.98-3.24-1.97-4.84-2.98z"/>
    <path fill="#470d13" d="M42.86 68.79c2.9.32 5.73 1.06 8.43 2.17-2.21 2.8-7.02 5.31-5.12 9.47 3.95-.23 7.91-.62 11.71-1.78-.46-.94-.92-1.87-1.38-2.8l3.54-.63c-.19 2.17-.38 4.34-.58 6.5-5.39 1.21-11.07 1.49-16.44.02-.56-4.29-.03-8.64-.16-12.95z"/>
    <path fill="#240708" opacity=".51" d="M72.59 81.85c4.49.63 9.05.7 13.55.1-3.56.91-7.23 1.21-10.9 1.08 1.45 1 3.16 1.45 4.83 1.97-.26 8.5.51 17.06-.44 25.52-.46-7.19-.21-14.39-.23-21.59.02-1.23.04-2.46.08-3.69-1.93-.22-3.83-.58-5.75-.77.06.97.17 2.91.23 3.89.11 7.37.07 14.75-.09 22.13-1.42-9.45.32-19.21-1.28-28.64z"/>
    <path fill="#7b1c21" d="M49.83 85c2.02-.27 4.04-.57 6.06-.9-.23 8.79.28 17.6-.28 26.37-.2-.5-.6-1.52-.8-2.03.14-6.45.82-12.91.09-19.35-1.05.27-2.11.54-3.16.82-.47-.28-1.41-.84-1.89-1.12-.01-1.26-.02-2.53-.02-3.79z"/>
    <path fill="#7b1821" d="M73.73 84.47c1.92.19 3.82.55 5.75.77-.04 1.23-.06 2.46-.08 3.69l-5.44-.57c-.06-.98-.17-2.92-.23-3.89z"/>
    <path fill="#b82529" d="M73.96 88.36l5.44.57c.02 7.2-.23 14.4.23 21.59-1.67 1.84-4.22 2.12-5.76-.03.16-7.38.2-14.76.09-22.13z"/>
    <path fill="#c82a2f" d="M49.85 88.79c.48.28 1.42.84 1.89 1.12 1.46 3.79.35 7.55-1.64 10.89-.36-3.99-.17-8-.25-12.01z"/>
    <path fill="#b02426" d="M51.74 89.91c1.05-.28 2.11-.55 3.16-.82.73 6.44.05 12.9-.09 19.35-.51-.3-1.53-.89-2.04-1.19-1-1.34-1.99-2.68-2.99-4.01.06-.82.17-1.63.32-2.44 1.99-3.34 3.1-7.1 1.64-10.89z"/>
    <path fill="#c62c39" d="M49.78 103.24c1 1.33 1.99 2.67 2.99 4.01.51.3 1.53.89 2.04 1.19.2.51.6 1.53.8 2.03-1.23 1.58-3.24 2.3-4.9.89-1.44-2.43-.58-5.45-.93-8.12z"/>
</svg>
