<svg width="128pt" height="128pt" viewBox="0 0 128 128" xmlns="http://www.w3.org/2000/svg">
    <path fill="#8c1c21" d="M73.21 27.1c.69-.06 2.08-.18 2.77-.25 1.12 3.09 2.89 5.86 4.56 8.67-.04.97-.27 1.91-.42 2.86 2.98-.02 3.18 3.42 4.07 5.5 1.11 3.85 3.95 6.8 6.63 9.62-.65 1.7-1.33 3.39-2.02 5.07-1.17-.27-2.55-.08-3.53-.88-1.22-1.84-1.7-4.06-2.36-6.14-.47 2.26-.87 4.55-1.62 6.74 1.65-7.96-2.7-15.4-6.74-21.89-1.86-2.74-1.22-6.19-1.34-9.3z"/>
    <path fill="#a52029" d="M63.04 41.33c2.61-1.66 4.7-3.96 7.07-5.9l2.55.16c-1 1.71-2.08 3.37-3.03 5.1-.23.7-.43 1.41-.61 2.12-1.12.97-2.12 2.05-3.17 3.1.6 2.78 1.14 5.57 1.75 8.35.57 2.54 1.16 5.08 1.68 7.63-1.71-.94-3.59-1.47-5.48-1.91-.52 1.03-1.06 2.04-1.62 3.04-.21-7.23-.76-14.57.86-21.69z"/>
    <path fill="#551013" d="M101.32 35.16c1.93.18 4.42-.01 5.3 2.17 1.31 1.69.31 3.58-.76 5.06.46 2.26-.35 4.42-.65 6.63 1.96 6.07 4.86 11.8 6.72 17.9-.47.81-.98 1.59-1.53 2.35-3.45.22-6.76 1.49-9.32 3.85-1.38 1.72-2.38 3.7-3.35 5.67-1.37-3.6-3.68-6.69-5.85-9.8.34-.21 1.02-.61 1.36-.81 3.6-2.41 10.44-.79 11.33-6.15-1.19-4.99-3.92-9.47-5.12-14.45-.72-4.24.62-8.43 1.87-12.42z"/>
    <path fill="#731821" d="M69.02 42.81c.18-.71.38-1.42.61-2.12.4.59.8 1.17 1.22 1.76.01-2.62 2.68-1.94 4.27-2.27-.38 1.41-1.44 2.4-2.5 3.33-1.3 3.23-2.99 6.38-3.16 9.94-.84-2.16-1.24-4.46-1.51-6.75.85-1.29 1.66-2.61 2.44-3.95-.34.02-1.03.05-1.37.06z"/>
    <path fill="#080202" opacity=".32" d="M65.85 45.91c1.05-1.05 2.05-2.13 3.17-3.1.34-.01 1.03-.04 1.37-.06-.78 1.34-1.59 2.66-2.44 3.95.27 2.29.67 4.59 1.51 6.75l.2.58c-.52.05-1.55.17-2.06.23-.61-2.78-1.15-5.57-1.75-8.35z"/>
    <path fill="#aa2129" d="M45.71 52.59c3.6-4.3 10.29-2.88 14.56-.32.27 3.21-2.58 5.29-4.43 7.48-.73.73-1.45 1.46-2.18 2.19-1.6.15-3.19.3-4.78.46 1.62.61 3.25 1.22 4.88 1.82.48-.6 1.43-1.81 1.9-2.41.21.33.62.98.82 1.31.2.35.6 1.05.8 1.41-.11.36-.35 1.09-.47 1.45-2.39 1.7-5.26.37-7.88.19-2.82-.8-4.58 2.1-6.6 3.51l-.11-1.22c-.38-3.23-.08-6.47.4-9.67-1.2-.46-2.41-.86-3.64-1.22-3.04 1.81-5.77 4.32-9.4 4.89-4.67.24-10.43 2.34-13.96-1.87 2.43-3.13 5.52-5.88 9.43-6.93 6.41-1.91 13.2-.95 19.64.27l.96-1.27c.01-.02.04-.05.06-.07m6.52-1.01l-1.82 1.7c.65.89 1.32 1.77 2.01 2.63l-.35.43c2.88-.27 3.23-2.9 2.88-5.27-.91.17-1.82.34-2.72.51m-27.82 6.6c-.61.01-1.83.03-2.44.03l-.81-.43-.95.52-.1.92-3.27.96c4.09 2.99 9.42.68 14.03.62.08-.61.23-1.82.31-2.43l.35.28c1.38-.08 2.81-.43 4.05-1.07-.65-1.13-3.1-1.09-4.22-.42l-1.57.36c-1.27-1.22-5.21-1.45-5.38.66z"/>
    <path fill="#4c1113" opacity=".68" d="M52.23 51.58c.9-.17 1.81-.34 2.72-.51.35 2.37 0 5-2.88 5.27l.35-.43c.91-1.12 2.07-2.17 2.12-3.71-.58-.16-1.74-.47-2.31-.62z"/>
    <path opacity=".43" d="M45.65 52.66c.01-.02.04-.05.06-.07-.02.02-.05.05-.06.07z"/>
    <path fill="#941d21" d="M82.91 51.55c.66 2.08 1.14 4.3 2.36 6.14.98.8 2.36.61 3.53.88-1.1 3.77-2.8 8.69.91 11.6 2.54 2.95 4.87 6.11 6.78 9.52-3.52.24-7.05.52-10.56.93-.87 2.35-1.54 5.04-3.63 6.64-1.53.45-3.14.35-4.71.44.31-.55.94-1.65 1.26-2.2-3.23-2.5-5.9-6.05-5.29-10.38 4.33-4.69 5.24-11.18 7.73-16.83.75-2.19 1.15-4.48 1.62-6.74z"/>
    <path fill="#190406" opacity=".4" d="M24.41 58.18c.17-2.11 4.11-1.88 5.38-.66-1.75.52-3.56.84-5.38.66z"/>
    <path fill="#180506" opacity=".44" d="M31.36 57.16c1.12-.67 3.57-.71 4.22.42-1.24.64-2.67.99-4.05 1.07l-.35-.28c.04-.3.13-.91.18-1.21z"/>
    <path fill="#521113" opacity=".72" d="M20.21 58.3l.95-.52.81.43c-.47.25-1.39.76-1.86 1.01l.1-.92z"/>
    <path fill="#080202" opacity=".26" d="M29.58 62.46c3.63-.57 6.36-3.08 9.4-4.89 1.23.36 2.44.76 3.64 1.22-.48 3.2-.78 6.44-.4 9.67-.81-1.99-.98-4.14-1.28-6.24-.41.7-1.23 2.11-1.64 2.81l-.01-.29c-.01-.6-.05-1.79-.06-2.38l2.24-2.28c-3.35-1.9-5.43 1.95-8.35 2.89-.88-.12-2.65-.38-3.54-.51z"/>
    <path fill="#521418" d="M33.12 62.97c2.92-.94 5-4.79 8.35-2.89l-2.24 2.28c.01.59.05 1.78.06 2.38-2.7 4.72-8.15 7.5-13.15 9.33-.37-4.6 2.76-9.39 6.98-11.1m-5.38 9.3c3.16-1.14 5.87-3.14 8.44-5.24.11-1.11.24-2.2.4-3.3-3.47 2.25-6.65 4.98-8.84 8.54z"/>
    <path fill="#280909" opacity=".56" d="M53.66 61.94c.73-.73 1.45-1.46 2.18-2.19.51 1.06.77 2.19.64 3.37-.2-.33-.61-.98-.82-1.31-.47.6-1.42 1.81-1.9 2.41-1.63-.6-3.26-1.21-4.88-1.82 1.59-.16 3.18-.31 4.78-.46z"/>
    <path fill="#971d23" d="M63.8 59.98c1.89.44 3.77.97 5.48 1.91 1.05 3.71 3.43 7.19 2.94 11.19-1.45-.29-2.89-.6-4.32-.93-1.17.89-2.37 1.75-3.39 2.81.09 1.41.26 2.82.52 4.21-2.53 1.78-3.83 4.45-3.8 7.51 2.89 1.7 6.21 2.01 9.46 1.43 2.79 3.23 7.19 2.26 10.88 3.24 1.45 1.16.74 3.32.95 4.93-1.34 1.19-2.41 2.63-3.19 4.26-7.61.38-15.5-.89-22.19-4.67-5.69-3.19-8.87-9.26-11.03-15.17-1.61-2.85-4.22-6.53-1.85-9.71 1.41-1.19 2.85-2.63 4.77-2.88 2.35.03 4.64.65 6.94 1.07.72-1.14 1.44-2.28 2.15-3.43.93-1.44 2.75-1.76 4.06-2.73.56-1 1.1-2.01 1.62-3.04z"/>
    <path fill="#020101" opacity=".18" d="M27.74 72.27c2.19-3.56 5.37-6.29 8.84-8.54-.16 1.1-.29 2.19-.4 3.3-2.57 2.1-5.28 4.1-8.44 5.24z"/>
    <path fill="#010000" opacity=".19" d="M57.28 64.53c.43-.19 1.27-.56 1.69-.74-.21.49-.64 1.47-.85 1.96-.71 1.15-1.43 2.29-2.15 3.43-2.3-.42-4.59-1.04-6.94-1.07-1.92.25-3.36 1.69-4.77 2.88-.5-.32-1.49-.94-1.99-1.26l.06-.05c2.02-1.41 3.78-4.31 6.6-3.51 2.62.18 5.49 1.51 7.88-.19.12-.36.36-1.09.47-1.45z"/>
    <path fill="#080202" opacity=".25" d="M89.71 70.17c1.12-.77 2.25-1.51 3.53-1.99-.34.2-1.02.6-1.36.81 2.17 3.11 4.48 6.2 5.85 9.8.97-1.97 1.97-3.95 3.35-5.67 1.96.64 3.98 1.12 6.01 1.49-1.8-.14-4.05-.48-5.36 1.1-2.19 2.45-2.49 5.91-3.11 8.99-.68-1.69-1.34-3.38-2.13-5.01-1.91-3.41-4.24-6.57-6.78-9.52z"/>
    <path fill="#150505" opacity=".44" d="M65.03 79.17c-.26-1.39-.43-2.8-.52-4.21.18.54.55 1.61.73 2.15.33-.24.97-.71 1.29-.94.33 5.19 5.24 10 10.5 9.89-2.64-2.02-5.21-4.65-5.06-8.24.48-.93 1.05-1.81 1.59-2.7-.61 4.33 2.06 7.88 5.29 10.38-.32.55-.95 1.65-1.26 2.2-5.59.91-9.31-4.85-12.56-8.53z"/>
    <path fill="#521018" d="M66.76 74.76c1.45 1.48 3.2 2.55 5.21 3.06-.15 3.59 2.42 6.22 5.06 8.24-5.26.11-10.17-4.7-10.5-9.89l.23-1.41z"/>
    <path fill="#84191e" d="M101.73 75.71c1.31-1.58 3.56-1.24 5.36-1.1.75.53 1.48 1.09 2.19 1.67-2.85.62-6.29 1.64-7.26 4.77-.54 3.72-.79 7.69-3.21 10.77-4.09 6.53-12.43 7.91-19.48 8.72.78-1.63 1.85-3.07 3.19-4.26-.21-1.61.5-3.77-.95-4.93-3.69-.98-8.09-.01-10.88-3.24-3.25.58-6.57.27-9.46-1.43-.03-3.06 1.27-5.73 3.8-7.51 3.25 3.68 6.97 9.44 12.56 8.53 1.57-.09 3.18.01 4.71-.44 2.09-1.6 2.76-4.29 3.63-6.64 3.51-.41 7.04-.69 10.56-.93.79 1.63 1.45 3.32 2.13 5.01.62-3.08.92-6.54 3.11-8.99z"/>
</svg>
