<svg width="128pt" height="128pt" viewBox="0 0 128 128" xmlns="http://www.w3.org/2000/svg">
    <path fill="#0a0202" opacity=".36" d="M41.38 16.06c1.64-.74 2.5 2.05 1.23 2.88-.68-.66-1.2-1.42-1.57-2.3l.34-.58z"/>
    <g fill="#b52426">
        <path d="M41.04 16.64c.37.88.89 1.64 1.57 2.3 1.31 1.77 3.23 2.94 5.45 3.12 9.5 1.24 17.45 7.11 24.89 12.72.33 5.92-2.08 11.49-2.04 17.38-3.24-8.03-9.43-14.95-17.4-18.48 5.44 5.55 9.16 12.39 12.93 19.11-.44.58-.87 1.15-1.31 1.72-4.4-3.91-11.15-1.08-15.41-5.1-2.49-2.46-4.55-5.76-4.39-9.38-.1-5.61-2.37-10.81-4.57-15.86-1.09-2.41-.12-5.07.28-7.53zM76.44 36.79c5.46 4.27 8.9 10.56 10.14 17.33-1.69.49-3.38.98-5.04 1.53.97.06 2.92.17 3.89.22l.05.81c-.13 1.07 1.07 1.46 1.7 2.07-.02 1.46-.07 2.93-.15 4.39-1.99 5.75-8.65 7.3-11.17 12.61l1.95-.23c-.88.83-1.71 1.71-2.55 2.57.46-3.98.17-8-.4-11.96-.03-1.55-.02-3.11-.42-4.62l-.17-.7c-1.44-3.64-3.99-7.76-2.23-11.71.91-2.12 2.9-3.61 3.58-5.85.47-2.12.61-4.3.82-6.46z"/>
        <path d="M45.05 46.92c1.77 2.18 3.58 4.55 6.28 5.62 2.73 1.32 5.81 1.22 8.75 1.47 2.77.21 5.26 1.58 7.9 2.31 3.43 7.44 3.3 15.78 2.59 23.76-1.32-2.15-2.33-4.71-4.6-6.04-2.32-1.51-5.17-1.46-7.82-1.62-.4-3.57-1.28-7.2-3.44-10.15-2.05-2.58-5.15-4.18-6.87-7.04-1.45-2.57-1.95-5.52-2.79-8.31z"/>
    </g>
    <path fill="#481012" opacity=".82" d="M61.86 41.59c3.34 3.04 5.7 6.98 7.71 10.99 1.9 4.21 3.88 8.61 3.63 13.36.55-1.44.88-2.94 1.24-4.43.4 1.51.39 3.07.42 4.62-.16-.16-.47-.48-.63-.64-.26 6-.27 12.02-1.46 17.92-1.14 4.57-2.75 9-4.63 13.32-2.55 5.53-5.6 10.97-9.83 15.4 1.06-3.88 2.04-7.93 4.57-11.16 7.42-9.88 11.1-22.73 9.02-35.01-1.08-8.9-5.48-16.84-10.04-24.37z"/>
    <path fill="#5f1416" opacity=".76" d="M85.48 56.68l1.14-1.56c1.23 2.51 2.09 5.49.41 8.02.08-1.46.13-2.93.15-4.39-.63-.61-1.83-1-1.7-2.07z"/>
    <path fill="#b5242c" d="M77.81 75.52c4.16-3.01 8.42-5.98 11.24-10.41-.16.74-.48 2.2-.64 2.94l-.16-.18c-1.25 2.95-3.26 5.45-5.49 7.71 1.97-.98 3.97-2 5.55-3.56.22.28.66.85.88 1.13l-1.07 3.14c-1.63 3.83-.82 8.67-4.18 11.69-1.85 2.49-5.04 2.93-7.84 3.6-2.65.6-4.38 2.87-6.21 4.69 1.04-3.19 2.21-6.36 3.94-9.24.82-.67 1.66-1.33 2.5-1.98.92 0 2.77-.01 3.7-.01 1.62 2.59 4.49.55 4.96-1.76.67-1.39 1.32-2.79 1.94-4.2-3.07 1.32-6.23 2.44-9.17 4.05-1.36.74-2.69 1.53-4.02 2.33.63-2.43 1.18-4.88 1.52-7.37.84-.86 1.67-1.74 2.55-2.57m1.43 11.76c-.79-.07-3.46 1.26-1.51 1.8 1.38.26 2.66.03 3.82-.71.97-1.32-1.61-1.41-2.31-1.09z"/>
    <path fill="#110404" opacity=".31" d="M74.23 65.49c.16.16.47.48.63.64.57 3.96.86 7.98.4 11.96-.34 2.49-.89 4.94-1.52 7.37 1.33-.8 2.66-1.59 4.02-2.33-.36.48-1.07 1.44-1.43 1.92-.84.65-1.68 1.31-2.5 1.98-.37-1.2-.73-2.41-1.06-3.62 1.19-5.9 1.2-11.92 1.46-17.92z"/>
    <path fill="#1a0606" opacity=".38" d="M88.25 67.87l.16.18c.39.42 1.17 1.26 1.55 1.68-.57.75-1.13 1.51-1.65 2.29-1.58 1.56-3.58 2.58-5.55 3.56 2.23-2.26 4.24-4.76 5.49-7.71z"/>
    <path fill="#3d0d10" opacity=".57" d="M88.31 72.02c.52-.78 1.08-1.54 1.65-2.29.23 2.37-.19 4.76-1.84 6.56l1.07-3.14c-.22-.28-.66-.85-.88-1.13z"/>
    <path fill="#b52429" d="M58.81 74.11c3.65-.15 8.12.65 9.71 4.44 2.48 3.61.21 7.75-.64 11.48-.43-.55-1.28-1.66-1.7-2.21l-.46-.65c-.46-2.25-.69-4.55-.94-6.83.63.41 1.89 1.22 2.52 1.63-.48-1.67-.93-3.34-1.58-4.95-1.9-1.77-4.54-2.13-6.91-2.91z"/>
    <path fill="#1d0607" opacity=".4" d="M65.72 77.02c.65 1.61 1.1 3.28 1.58 4.95-.63-.41-1.89-1.22-2.52-1.63.25 2.28.48 4.58.94 6.83-1.75-3.23-1.64-6.89 0-10.15z"/>
    <path opacity=".1" d="M77.76 83.13c2.94-1.61 6.1-2.73 9.17-4.05-.62 1.41-1.27 2.81-1.94 4.2-1.65.59-3.31 1.18-4.96 1.76-.93 0-2.78.01-3.7.01.36-.48 1.07-1.44 1.43-1.92z"/>
    <path fill="#4f1111" opacity=".68" d="M80.03 85.04c1.65-.58 3.31-1.17 4.96-1.76-.47 2.31-3.34 4.35-4.96 1.76z"/>
    <path fill="#090302" opacity=".36" d="M68.14 96.73c1.88-4.32 3.49-8.75 4.63-13.32.33 1.21.69 2.42 1.06 3.62-1.73 2.88-2.9 6.05-3.94 9.24l-.26.79c-.38-.09-1.12-.25-1.49-.33z"/>
    <path fill="#420e0e" opacity=".68" d="M79.24 87.28c.7-.32 3.28-.23 2.31 1.09-1.16.74-2.44.97-3.82.71-1.95-.54.72-1.87 1.51-1.8z"/>
    <path fill="#3e0f11" opacity=".61" d="M66.18 87.82c.42.55 1.27 1.66 1.7 2.21-.73 1.31-1.44 2.62-2.13 3.95-.96-2.05-2.39-3.81-3.85-5.53 1.37.79 2.73 1.58 4.09 2.39.04-.75.14-2.27.19-3.02z"/>
</svg>
