<svg width="128pt" height="128pt" viewBox="0 0 128 128" xmlns="http://www.w3.org/2000/svg">
    <g fill="#fff">
        <path d="M40.87 24.22c-1.31-2.4-.14-5.09.57-7.47.99 2.49 2.8 5.02 5.71 5.26 9.84 1.03 18.13 7.07 25.76 12.9.46 5.83-2.3 11.23-1.99 17.03-3.3-7.75-9.18-14.67-16.99-18.1l-.06.74c6.09 5.61 9.8 13.31 13.42 20.64-3.55-1.91-7.28-3.68-11.42-3.4-5.29-.1-8.8-4.79-10.39-9.36.26-6.41-1.93-12.53-4.61-18.24zM76.25 36.92c5.49 4.1 9.22 10.37 10.06 17.18-1.62.47-3.27.93-4.76 1.75 1.72.32 3.66-.23 5.26.59 2.36 4.16-.61 8.84-3.53 11.84-1.96 2.24-5.83 2.91-6.27 6.28-.56.45-1.14.86-1.74 1.24.65-7.81-1.21-15.58-3.8-22.9-.34-2.84 1.4-5.4 3.15-7.49 2.03-2.33 1.35-5.65 1.63-8.49z"/>
        <path d="M45.08 46c1.85 5.74 8.29 8.35 13.92 8.01 3.43-.33 6.31 2.15 9.74 1.91l-.94.34c3.61 7.46 3.38 15.95 2.78 24-1.56-5.42-6.9-8.65-12.44-7.92-.27-4.25-1.59-8.7-4.78-11.69-1.77-1.61-3.61-3.16-5.26-4.9-1.66-3.03-2.24-6.43-3.02-9.75zM84.54 70.53c1.57-1.64 2.94-3.47 4.56-5.06-1.13 3.79-2.95 7.53-6.37 9.76 3.18-.48 5.27-3 7.19-5.32-.57 2.31-1 4.68-2.07 6.83-1.4 2.73-.77 6-2.1 8.78-1.92 2.56-4.29 5.43-7.79 5.52-3.71.06-6.21 3.2-8.51 5.69 2.19-3.94 2.42-10.04 7.34-11.69 2.77-.14 5.79.8 8.16-1.15.6-1.63 1.17-3.27 1.71-4.91-4.34 2.5-9.58 3.34-13.27 6.95.95-2.57 1.64-5.25 1.78-8 .76-.69 1.52-1.39 2.19-2.17 2.27-1.92 5.09-3.09 7.18-5.23m-8.33 18.42c1.89-.21 4.24.16 5.68-1.4-2-.07-4.04.14-5.68 1.4z"/>
        <path d="M59.31 74.04c3.81-.18 8.12 1.46 9.52 5.3 2.34 5-1.58 9.96-3.13 14.58.1-2.32-1.89-3.6-3.45-4.87.24.07.72.21.96.29 1.15.7 2.4 1.16 3.76 1.35-.75-3.25-2.49-6.35-2.04-9.79.5.26 1.5.77 2 1.03.22-1.23.44-2.74-.45-3.77-1.46-2.66-4.54-3.24-7.17-4.12z"/>
    </g>
    <path fill="#737373" opacity=".45" d="M66.48 78.16c.89 1.03.67 2.54.45 3.77-.5-.26-1.5-.77-2-1.03-.17-1.3.35-2.22 1.55-2.74z"/>
</svg>
