<svg width="128pt" height="128pt" viewBox="0 0 128 128" xmlns="http://www.w3.org/2000/svg">
    <g fill="#fff">
        <path d="M18.77 77.26c8.58 1.41 17.13 5.68 21.96 13.15 2.44 3.4 3.41 7.51 4.26 11.53-2.58-.46-5.16-.93-7.79-1.01-2.37-7.31-8.41-13.5-16.06-15.08-.42-1.35-.86-2.69-1.28-4.04 8.18 1.79 16.69 6.32 19.69 14.63-1.04 1.31-.41 2.79.88 3.62 2.15-1.02 1.77-3.08-.2-4.05-2.7-8.72-11.94-13.63-20.41-15.14-.4-1.19-.74-2.4-1.05-3.61zM93.23 84.21c4.66-3.77 10.44-5.94 16.3-6.97l-.88 3.47c-8.36 1.69-17.15 6.19-20.47 14.51-.38 1.2-1.33 2.01-2.19 2.86.4.45 1.2 1.36 1.6 1.81.43-.23 1.28-.68 1.7-.91-1.39-3.56 1.43-6.59 3.47-9.17 4.14-4.22 9.74-6.68 15.44-7.96-.33 1.35-.7 2.68-1.1 4.01-7.75 1.56-13.55 7.84-16.19 15.05-2.58.1-5.11.6-7.65 1.01 1.04-6.88 4.42-13.41 9.97-17.71zM50.67 89.97c1.34.03 2.69.07 4.04.13.75 3.55 1.56 7.08 1.88 10.7l3.42.18c.05-3.74-.11-7.49-.45-11.22l2.89-.12c.01 3.72.02 7.44-.03 11.17 1.24.04 2.48.08 3.72.11.03-3.73.03-7.47-.02-11.21.8 0 2.4.01 3.2.02-.3 3.74-.37 7.49-.32 11.24 1.1-.07 2.21-.14 3.31-.2.42-3.64 1.17-7.23 1.97-10.8 1.29.04 2.59.09 3.89.16-.96 3.58-2.03 7.12-3 10.7 1.11-.02 2.21-.05 3.32-.09.76-3.54 2.25-6.84 3.98-9.99.39.33 1.19.99 1.59 1.32-2.86 6.34-4.72 13.05-5.91 19.89-9.34.11-18.68 0-28.02.04-.55-7.09-2.98-13.88-5.86-20.33.59-.19 1.77-.58 2.36-.77 1.51 3.16 3.19 6.31 3.74 9.82 1.09.06 2.19.12 3.29.17-.82-3.69-1.88-7.31-2.99-10.92z"/>
    </g>
</svg>
