<svg width="128pt" height="128pt" viewBox="0 0 128 128" xmlns="http://www.w3.org/2000/svg">
    <g fill="#fff">
        <path d="M59.76 16.67c4.65 2.89 10 4.82 14.14 8.42-2.72 4.37-7.56 6.6-11.34 9.88 2.26.06 4.52.07 6.79.14-3.04 2.49-6.23 4.85-8.33 8.25-.61 1.85-.25 4.04 1.67 4.96 7.11 4 15.39 5.86 21.93 10.93 2.28 1.8 4.29 4.64 3.87 7.68-.97 3.22-3.49 5.62-5.36 8.33.17-6.54-5.38-10.76-8.83-15.66-7.17-3.97-15.15-6.5-22.2-10.74-2.19-1.42-2.31-4.53-.6-6.38 5.56-5.11 11.53-9.78 16.97-15.02.6-1.05 1.19-2.1 1.75-3.17-.61-.39-1.25-.75-1.9-1.06l-.48 2.57c-1.85-3.73-4.92-6.53-8.08-9.13z"/>
        <path d="M48.03 40.33c3.39-2.47 7.05-4.54 10.57-6.81-3.53 4.23-8.05 7.57-11.05 12.29 1.23 1.56 2.15 3.52 4.03 4.42 5.17 2.91 10.49 5.54 15.73 8.31.01.52.02 1.54.03 2.05 2.15-.26 4.3.01 6.4.44 1.13 2.37 2.54 4.58 4.03 6.73-3.85-2.44-8.96-3.62-13.06-1.09-1.44 2.64-2.39 5.84-1.29 8.8.72-2.23 1.34-4.49 1.8-6.79 3.05-1.07 6.48.87 6.1 4.33.04 5.59-6.81 5.94-10.91 5.62-1.74-2.91-3.46-5.84-5.22-8.74 1.79-5.49 7.15-8.31 12.21-10.02-7.59-2.44-14.36-6.91-21.62-10.15-.63-2.48-.15-4.99.47-7.41.27.6.81 1.8 1.08 2.41l.73.06c-.05-1.49-.06-2.97-.03-4.45zM77.24 34.86c1.11 2 2.73 3.61 4.79 4.62.43 1.9-.07 3.82-.28 5.72-.87-2.39-3.11-3.74-4.5-5.75-.18-1.52 0-3.06-.01-4.59z"/>
        <path d="M62.01 45.95c-.47-3.31 2.92-5.31 4.43-7.83-.34 4.93 5.02 7.02 8.75 8.66 1.86.88 2.68-1.58 3.88-2.5.5 2.48-.28 5.11-3.26 5.05 5.08 2.72 11.02 5.36 13.44 10.99-5.66-5.91-13.98-7.3-21.2-10.43-2.17-1-4.58-1.95-6.04-3.94zM48.74 52.89c4.52 2.07 8.94 4.37 13.41 6.54-2.38-.2-4.77-.05-7.14-.28-2.21-1.96-4.17-4.18-6.27-6.26zM51.8 62.1c2.88-.4 5.74-.89 8.64-1.17-2.49 1.76-5.16 3.54-6.28 6.54-.9-1.74-1.68-3.54-2.36-5.37zM50.51 63.34c1.95 5.09 4.57 9.89 6.75 14.88-4.23-.83-7.84-3.28-10.9-6.22 1.11-3.01 2.79-5.76 4.15-8.66z"/>
        <path d="M68.51 65.97c4.05.82 8.48 1.89 11.14 5.34.57 3.46.72 6.98 1.35 10.44-1.17 1.95-2.32 3.92-3.5 5.87-8.74-.42-17.53-.59-26.25.27-3.64-4.16-4.46-9.77-5.37-15.02l.69-.01c3.42 5.55 9.95 8.94 16.47 8.12 3.45-.48 8.11-1.04 9.45-4.84 1.65-3.83-.54-8.2-3.98-10.17z"/>
    </g>
</svg>
