<svg width="128pt" height="128pt" viewBox="0 0 128 128" xmlns="http://www.w3.org/2000/svg">
    <g fill="#fff">
        <path d="M35.2 67.09c1.35-1.7 3.75.01 2.75 1.97-1.41-.09-3.38.07-2.75-1.97zM37.96 86.97c.96.81 1.9 1.63 2.85 2.46-.6 7.02 4.02 14.43 11.17 15.78 3.66 1.32 7.96.35 11.24 2.74-6.1.05-12.62-.69-17.78-4.22-5.27-3.76-7.74-10.45-7.48-16.76z"/>
        <path d="M42.23 90.49c2.28 1.43 4.76 2.67 6.53 4.75 5.38 5.99 12.86 9.79 20.63 11.62 1.27.7 2.47-.23 3.59-.72l-2.34-1.07c8.67.53 16.3-4.81 24.08-7.75-5.73 3.96-12.44 6.57-19.13 8.58l-1.73-.06c-.09.44-.26 1.31-.35 1.75 7.99.68 16.12-.57 23.61-3.43 2.28-.89 4.74-1.58 6.58-3.27-.08.43-.25 1.29-.33 1.72-6.58 2.66-13.16 5.8-20.34 6.37-6.13.26-12.46.49-18.32-1.67-8.9-3.12-17.67-8.49-22.48-16.82z"/>
    </g>
</svg>
