<svg width="128pt" height="128pt" viewBox="0 0 128 128" xmlns="http://www.w3.org/2000/svg">
    <path fill="#fff" d="M48.34 26.31c4.04-3.68 8.96-6.73 14.5-7.29 6.02-.54 11.78 2.07 16.66 5.35 7.16 4.43 14.87 9.03 23.5 9.4 4.18.15 7.53-2.7 9.21-6.34-.37 4.13-2.97 8.49-7.44 8.94-10.09 1.37-18.54-5.41-27.53-8.69-4.3-1.51-10.28-2.78-13.2 1.79-1.23 4.98-.03 10.26 2.77 14.5 3.85 6.3 5.08 14.34 2.06 21.23 2.46-.61 5.24-1.37 6.33-3.94 3.37-5.74 9.96-11.1 17.01-9.18-5.06 2.74-9.96 6.92-11.01 12.87-.59 5.98 2.48 11.86 7.48 15.13-4.81-.13-10.16-1.43-12.96-5.71-1.63-2.71-4.98-2.71-7.71-3.32 1.53 2.66 3.98 5.87 2.42 9.08-2 4.16-2.69 9.07-1 13.47.94 3.36 3.95 5.39 6.53 7.47-3.26-1.31-6.78-1.69-10.13-2.69-13.17-3.62-25.85-9.91-35.61-19.6-3.42-2.66-6.92-5.84-11.39-6.39-1.26.49-1.82 1.77-2.55 2.79.27-2.24-.65-5.31 2.16-6.17-2.51-1.6-2.16-4.48-1.88-7.02 1.21 2.46 3.1 4.8 6.13 4.74 3.64-.98 5-4.86 6.5-7.9 5.19-11.45 10.12-23.47 19.15-32.52m.33 2.27c-3.43 4.57-.49 10.22.11 15.21 1.88 14.1-1.67 28.28-5.68 41.71 5.22 3.61 10.77 6.85 16.88 8.68-2.1-2.92-3.89-6.41-3.53-10.11.9-6.69 5.29-12.21 6.78-18.73 3.61-12.23-7.66-23.22-4.32-35.5 1.26-4.84 7.07-6.49 11.46-5.33-6.98-4.12-16.98-2.85-21.7 4.07M33.49 54.42c-3.37 6.53-3.73 14.05-3.49 21.26 2.79 2.5 5.22 5.48 8.71 7.05 1.31-9.53 3.87-18.98 3.39-28.67.2-4.53-.78-8.94-1.31-13.4-3.31 4.04-4.93 9.15-7.3 13.76m41.76 10.5c-.58 2.25.36 4.55.93 6.72 1.02 3.34 4.4 4.8 7.07 6.59-5.24-6.12-6.71-17.26.47-22.5.74-.65 1.45-1.32 2.16-2-5.02 1.93-8.59 6.35-10.63 11.19z"/>
</svg>
