<svg width="128pt" height="128pt" viewBox="0 0 128 128" xmlns="http://www.w3.org/2000/svg">
    <g fill="#fff">
        <path d="M82.4 32.5c.7 2.83.61 5.76.67 8.65 1.88-2.18.6-5.64 1.33-8.34.85 2.46.36 5.44 2.57 7.28-.09-1.87.1-3.71.55-5.51.3 2.05.52 4.11.68 6.18-1.12-.5-2.26-.94-3.39-1.44.34 1.73.1 3.38-.73 4.96 1.38-1.09 2.03-2.5 1.95-4.24.54.7 1.08 1.4 1.61 2.1-.72 1.31-1.55 2.54-2.3 3.83 3.31-1.65 3.95-5.62 5.67-8.55.2 4.3-1.42 8.6-4.93 11.2 3.1-.83 5.72-2.63 7.98-4.85-1.22 3.37-3.97 5.77-7.39 6.83 2.8.27 5.56-.18 8.31-.61-.77.67-1.55 1.33-2.34 1.98-1.95.19-3.95.3-5.83-.42 1.86 1.44 3.13 3.62 3.3 5.98-2.16-2.75-4.82-5.02-7.85-6.75-2.08-1.22-2.14-3.84-1.27-5.83 1.6-3.99.65-8.32 1.41-12.45zM44.96 33.96c.74 0 2.21-.01 2.95-.01.7 1.01 1.37 2.04 2.02 3.07-.68 1.03-1.41 2.03-2.16 3-.67 0-2 .01-2.66.01-2.1-1.69-2.3-4.33-.15-6.07zM56.44 51.22c4.07-2.76 9.34-4.07 14.19-3.06 1.23.86 1.75 2.33 2.62 3.5 4.29 5 10.45 8.79 12.59 15.34 1.2 5.43-1.06 10.89-3.98 15.37-.5-.38-1.51-1.13-2.01-1.51.78 1.74 1.6 3.47 2.34 5.23-.53-.32-1.61-.96-2.14-1.28l-.1 1.38-2.45-1.16c1.26 1.66 2.6 3.28 3.76 5.02-1.09-.67-2.16-1.36-3.22-2.07-1.55 1.12-1.95 2.57-1.2 4.35-1.12-1.41-1.9-3.04-2.85-4.56-.36 2.5-.54 5.03-.96 7.52-1.37-1.19-2.66-2.47-4.01-3.68.27 1 .82 3 1.09 3.99-1.44-3.19-6.45-1-5.32 2.28-.74-1.36-1.46-2.73-2.32-4.01l-.02 1.54c-1.71.61-3.5.86-5.31.69-1.39 1.04-2.53 2.37-3.81 3.53.25-2.19.83-4.41.29-6.61-.31.72-.94 2.15-1.25 2.86-1.55-.17-3.07-.47-4.56-.91-.11.54-.31 1.62-.42 2.17-1-1.65-1.11-3.63-1.94-5.34-.11.57-.32 1.72-.43 2.3-2.47-.96-2.89 1.65-3.91 3.16-.22-2.49-.22-4.98-.17-7.48-1.5 1.05-2.53 2.57-3.44 4.12 1.19-2.35-1.47-3.47-3.27-4.06-2.32.78-3.29 3.5-5.47 4.6.97-2.62 3.16-5.48 1.89-8.4.39-.26 1.18-.79 1.58-1.06-2.09.72-3.74 2.34-5.87 2.96 1.28-1.55 2.53-3.63.37-5.14l-1.86 1.51c.21-.84.62-2.52.83-3.36.42-.49.86-.96 1.31-1.42-2.43.49-4.93.55-7.4.41 1.18-.98 2.7-1.31 4.12-1.81-.64-1.43-1.26-2.87-1.88-4.31-1.96-.64-4.03-1.14-5.77-2.3 1.69-.1 3.37-.32 5.04-.58.49-2.26-1.91-1.86-3.35-2.34.72-.2 2.15-.58 2.87-.77-.03-1.24-.07-2.48-.12-3.71-1.28-.47-2.25-1.27-2.92-2.41.68.25 2.05.76 2.73 1.01.34-1.28.69-2.55 1.09-3.8-.42 6.02.67 12.38 4.32 17.33.99-9.21 8.53-16.64 17.4-18.62.74 5.18 3.21 10.43 7.79 13.24 4.03 3.02 9.06 4.11 13.96 4.74-4.2-3.35-8-7.26-10.71-11.93-2.23-3.98-1.65-9.72 2.26-12.46m15.58 22.05c-.86 1.52 1.38 3.49 2.77 3.44-.18-1.32-1.08-3.86-2.77-3.44m-36.59 4.11c-.59 1.59-1.02 3.22-1.58 4.81 1.28-1.01 2.74-1.75 4.17-2.51.46-1.09-1.39-3.49-2.59-2.3m16.03 4.5c.08 2.25 0 4.5-.17 6.75.9-1.99 4.15-6.22.17-6.75m12.51 2.65c-.53 1.29.66 2.99 1.43 4.04 1.99-.29.6-4.92-1.43-4.04zM97.78 65.75c.86-5 2.23-9.91 2.78-14.96.6 4.17.77 8.56-.55 12.6l1.05-2.23c.45.61.89 1.21 1.34 1.81.46-.67 1.39-2.01 1.85-2.69.95-.66.92 2.14 1.36 2.35.84-2.59 2.85-4.55 3.74-7.12.88 3.07-2.68 4.75-3.04 7.65.01.2.02.59.02.78l.38-.4-.4-.38 1.59.08.16-1.28 1.09.11-.09-1.14 1.02.17c-1.64 1.98-2.96 4.2-4.42 6.31 1.86-.57 3.65-1.34 5.36-2.26-1.3 1.95-3.72 2.65-5.11 4.51 2.01-.42 4.08-.51 6.12-.33-2.05.64-4.15 1.23-5.97 2.42 1.81.14 3.67.57 4.96 1.94-1.78-.48-3.62-.67-5.46-.73 1.44 2.08 3.9 3.04 5.57 4.89-2.37-.98-4.61-2.25-6.9-3.41 1.49 3.09 4.38 5.2 5.72 8.37-1.54-1.6-2.97-3.57-5.24-4.13-.39-.39-.39-.39 0 0 .3 2.73 2.19 4.87 3.11 7.39-2.24-2.86-4.22-5.92-6.2-8.95-.68.75-1.61.69-2.27-.06.21 4.56-.36 9.12.24 13.67-.37-.59-.67-1.21-.91-1.86.02-4.36-.5-8.7-.78-13.04 5.28-.39 7.23-6.77 4.05-10.64-1.39.2-2.78.38-4.17.56m6.5-2.95c.48.47.48.47 0 0z"/>
        <path d="M102.39 58.46c.9-2.53 1.61-5.12 2.37-7.69-.14 3.43-1.03 6.78-1.99 10.05-1.32-.26-1.45-1.05-.38-2.36zM107.72 52.95c.11 2.21-1.85 4.13-1.35 6.24-.51.09-1.54.26-2.05.35 1.37-2.07 2.43-4.31 3.4-6.59zM100.76 80.31c.35-.77.74-1.53 1.16-2.27-.01 3.15 1.14 6.09 2.03 9.06-1.56-2.01-1.91-4.63-3.19-6.79z"/>
    </g>
    <path fill="#818181" opacity=".51" d="M104.28 62.8c.48.47.48.47 0 0z"/>
</svg>
