<svg width="128pt" height="128pt" viewBox="0 0 128 128" xmlns="http://www.w3.org/2000/svg">
    <g fill="#6b1416">
        <path d="M28.76 28.5c7.66-1.68 16.55 3.12 17.7 11.24.4 2.67.5 5.38.52 8.08-1.06-.86-2.11-1.74-2.92-2.85 0-2.69-.01-5.44-.94-8-2.13-4.53-6.88-7.04-11.74-7.21-.47-.23-1.42-.68-1.9-.9l-.72-.36zM70.13 61.72c1.36 1.81 2.42 3.82 3.4 5.86.64 3.23.41 6.51-.75 9.6-.93-2.1-1.82-4.21-3.06-6.14.1-3.11.23-6.22.41-9.32z"/>
    </g>
    <g fill="#8f1c1e">
        <path d="M16.7 39.77c2.35-5.11 6.72-10.8 12.78-10.91.48.22 1.43.67 1.9.9-6.63.8-11.67 6.08-13.76 12.19-.23-.55-.69-1.64-.92-2.18zM51.47 56.82c3.64-.94 7.55-1.59 11.24-.54 2.93 1.07 5.28 3.24 7.42 5.44-.18 3.1-.31 6.21-.41 9.32-.45-.34-1.36-1.02-1.81-1.36 2.51 3.42 3.57 7.54 2.96 11.75-.83-3.07-1.73-6.21-3.88-8.66.74 2.43 1.6 4.83 2.2 7.3-2.51 1.47-5.19 2.73-7.41 4.63-.69 1.64-.68 3.46-.77 5.21-.53-.6-1.05-1.21-1.57-1.81-.36.65-1.1 1.95-1.46 2.6-.09-6.72-3.81-12.5-7.22-17.97l.23-.63c.52-.3 1.55-.92 2.07-1.23 1.28.35 2.89 1.55 3.72-.16 1.54-1.34-.35-2.93-1.09-4.05 1.78-1.89 4.15-3.04 6.1-4.72-2.83-3.26-8.44-.76-10.32-5.12z"/>
    </g>
    <path fill="#1a0607" opacity=".38" d="M43.12 36.97c.93 2.56.94 5.31.94 8-.05 3.52-.9 6.95-1.99 10.28.8-6.07 2.36-12.15 1.05-18.28z"/>
    <path fill="#3e0e0e" opacity=".68" d="M16.22 41.91c.12-.53.36-1.61.48-2.14.23.54.69 1.63.92 2.18.38 1.34-.05 2.8-.08 4.17l-1.29-.17-.74-.1.79-.74c1.2-.74.82-2.39-.08-3.2z"/>
    <path fill="#0d0303" opacity=".33" d="M46.46 39.74c1.93 5 2.24 11.19.04 16.12.36-2.66.53-5.35.48-8.04-.02-2.7-.12-5.41-.52-8.08z"/>
    <path fill="#5c1415" opacity=".72" d="M74.8 41.3c-.38-2.17 3.54-1.47 2.31.34-.45.1-1.34.3-1.78.4l-.53-.74z"/>
    <path fill="#bd2b2c" d="M16.22 41.91c.9.81 1.28 2.46.08 3.2l-.08-3.2z"/>
    <g fill="#f73039">
        <path d="M75.33 42.04c.44-.1 1.33-.3 1.78-.4l-.09 1.58c-.03.61-.1 1.83-.13 2.44l-.22 1.1c-.24.95-.38 1.91-.42 2.88 1.11.28 2.23.52 3.36.74.15 1.8 1 3.31 2.5 4.35l-1.33 1.65 1.48 1.28-.62-.08c-2.53-3.44-5.15-7.55-9.96-7.82-.34-.07-1-.2-1.33-.26-.96-.21-2.88-.61-3.84-.81l.14-.93 1.56.23c.48-.2 1.45-.61 1.93-.81 1.89-1.55 3.7-3.19 5.19-5.14zM29.38 70.3c.61 3.67.34 7.5 1.62 11.05.78 1.61 1.82 3.09 2.77 4.6.06-2.13.17-4.27.61-6.37.74 2.12 1.65 4.17 2.57 6.21-2.25.38-4.45.99-6.62 1.68-.52-1.77-1.11-3.53-1.57-5.33-.21-3.05-.15-6.12.12-9.16.12-.67.38-2.01.5-2.68zM39.67 72.71c-.22 1.81-.48 3.62-.68 5.44l-.2 2.23c.35 1.25.94 2.41 1.63 3.5.53-.75 1.09-1.49 1.68-2.2.25.82.77 2.45 1.02 3.27-1.8.11-3.61.18-5.41.22-1.01-1.76-.55-3.95-.73-5.89.28-2.39 1.64-4.46 2.69-6.57zM90.39 74.36c2.47-1.45 5.42-1.25 8.16-1.54-.43.49-1.29 1.47-1.72 1.97-1.19-.28-2.4-.34-3.62-.19l-2.82-.24z"/>
    </g>
    <path fill="#2b0909" opacity=".53" d="M77.02 43.22c1.84-.7 1.67 3.19-.13 2.44.03-.61.1-1.83.13-2.44z"/>
    <g fill="#bd2831">
        <path d="M44.06 44.97c.81 1.11 1.86 1.99 2.92 2.85.05 2.69-.12 5.38-.48 8.04-2.36 1.51-4.31 3.55-6.44 5.36.68-1.99 1.38-3.97 2.01-5.97 1.09-3.33 1.94-6.76 1.99-10.28zM16.25 45.95l1.29.17c3.07 2.46 7.1 3.25 10.14 5.71l.4 1.38c-3.63-2.97-8.82-3.47-11.83-7.26zM40.31 77.92c.6-1.59 1.09-3.2 1.61-4.81 1.76 1.37 3.43 2.87 5.3 4.12-.04 1.29-.66 2.27-1.75 2.91-.06-.88-.19-2.64-.25-3.52-.45.58-1.34 1.76-1.78 2.35-.18-.93-.4-1.86-.64-2.77-.99.26-1.65 1.17-2.49 1.72z"/>
    </g>
    <path fill="#581414" opacity=".64" d="M68.37 47.1l.98-.41.79.49c-.48.2-1.45.61-1.93.81l.16-.89z"/>
    <g fill="#3c0d10">
        <path d="M76.25 49.64c.04-.97.18-1.93.42-2.88.01.69.04 2.07.05 2.76 1.16.17 2.32.3 3.49.4l-.04 2.32c.49.62 1.46 1.87 1.94 2.49-1.5-1.04-2.35-2.55-2.5-4.35-1.13-.22-2.25-.46-3.36-.74zM28.76 82.14c-.74-3.02-.62-6.16.12-9.16-.27 3.04-.33 6.11-.12 9.16zM93.21 74.6c1.22-.15 2.43-.09 3.62.19.02 1.65-3.84 1.53-3.62-.19zM49.11 86.07c.63.02 1.88.05 2.51.07.45.01 1.36.04 1.81.05.7 1.1 1.39 2.22 2.07 3.34.51-.82 1.04-1.62 1.59-2.42-.58 2.21-.45 4.47.63 6.49l-1.44-.7c-2.62-1.27-5.41-2.18-8.25-2.78.48-.65.97-1.29 1.46-1.94-.1-.52-.29-1.58-.38-2.11z"/>
    </g>
    <path fill="#731818" d="M70.35 49.5c.33.06.99.19 1.33.26-.15.26-.44.8-.59 1.06 1.78.92 3.58 1.77 5.3 2.8-.28 3.09-.65 6.19-1.21 9.25-.6-.12-1.8-.36-2.41-.49-3.89-5.84-10.85-9.26-17.87-8.53-1.6.64-3.22 1.25-4.8 1.93 5.41-5.07 13.2-5.98 20.25-6.28z"/>
    <path fill="#090202" opacity=".27" d="M71.09 50.82c.15-.26.44-.8.59-1.06 4.81.27 7.43 4.38 9.96 7.82l.27.24c-.33.6-1 1.81-1.34 2.42-1.1-2.38-2.39-4.69-4.18-6.62-1.72-1.03-3.52-1.88-5.3-2.8z"/>
    <path fill="#320e0e" opacity=".53" d="M27.68 51.83c1.35 1.21 3.4 3.08 1.82 4.95-1.98.46-2.61 2.49-1.73 4.22-.35-.53-1.04-1.58-1.39-2.1.71-1.05 1.46-2.07 2.42-2.9-.23-.94-.47-1.86-.72-2.79l-.4-1.38z"/>
    <path fill="#0e0304" opacity=".3" d="M50.1 55.78c1.58-.68 3.2-1.29 4.8-1.93 7.02-.73 13.98 2.69 17.87 8.53.55 1.07 1.07 2.16 1.46 3.3-.18.47-.53 1.43-.7 1.9-.98-2.04-2.04-4.05-3.4-5.86-2.14-2.2-4.49-4.37-7.42-5.44-3.69-1.05-7.6-.4-11.24.54-.38.11-1.14.32-1.52.43l.15-1.47z"/>
    <path fill="#581113" d="M76.39 53.62c1.79 1.93 3.08 4.24 4.18 6.62.7 1.72 1.78 3.35 3.61 4.04.52.25 1.58.76 2.11 1.02-4.04 1.7-7.87 3.92-11.19 6.81-.09-2.17-.08-4.38-.87-6.43-.39-1.14-.91-2.23-1.46-3.3.61.13 1.81.37 2.41.49.56-3.06.93-6.16 1.21-9.25z"/>
    <path fill="#de2c31" d="M93.18 60c6.35-1.57 13.62-.6 19.05-4.97-1.21 2.15-2.54 4.34-4.95 5.28-2.02.58-1.49 2.94-2.08 4.52-2.66-1.42-5.64-1.25-8.51-.69.05 1.1.09 2.2.14 3.31-1.67-1.32-3.29-2.71-4.92-4.07-1.49-.18-2.98-.26-4.48-.22 1.91-1.07 3.8-2.17 5.75-3.16z"/>
    <path fill="#e63137" opacity=".96" d="M27.77 61c-.88-1.73-.25-3.76 1.73-4.22l1.26-.12c.27.58.79 1.75 1.05 2.33-.24.54-.72 1.64-.96 2.18-.77-.04-2.31-.13-3.08-.17z"/>
    <path fill="#b82426" d="M40.4 61.2c3.28-1.08 6.24-2.94 9.55-3.95.38-.11 1.14-.32 1.52-.43 1.88 4.36 7.49 1.86 10.32 5.12-1.95 1.68-4.32 2.83-6.1 4.72-.85.55-1.7 1.1-2.56 1.65-.01.64-.05 1.92-.07 2.56-.52.31-1.55.93-2.07 1.23l-.67-.09c-3.3-3.6-7.24-6.71-9.92-10.81z"/>
    <path fill="#1f0707" opacity=".55" d="M84.18 64.28c3.25-.92 5.5-3.91 9-4.28-1.95.99-3.84 2.09-5.75 3.16 1.5-.04 2.99.04 4.48.22-1.09.36-2.18.72-3.27 1.06l1.57.73c-5.02 1.93-10.22 4.08-13.93 8.13-3.52 3.75-4.19 9.45-8.37 12.65-1.69 1.31-2.75 3.16-3.57 5.08 1.3-.16 2.59-.35 3.88-.57-1.28.38-2.56.74-3.83 1.12l-.4 3.45v-.67c.04-2.67-.37-5.56 1.4-7.81 2.48-1.28 4.19-3.56 3.8-6.48-.6-2.47-1.46-4.87-2.2-7.3 2.15 2.45 3.05 5.59 3.88 8.66.61-4.21-.45-8.33-2.96-11.75.45.34 1.36 1.02 1.81 1.36 1.24 1.93 2.13 4.04 3.06 6.14 1.16-3.09 1.39-6.37.75-9.6.17-.47.52-1.43.7-1.9.79 2.05.78 4.26.87 6.43 3.32-2.89 7.15-5.11 11.19-6.81-.53-.26-1.59-.77-2.11-1.02z"/>
    <g fill="#8c1d1b">
        <path d="M38.32 61.5c3.54 3.2 7.05 6.48 9.99 10.24-.33 1.54-.71 3.07-1.01 4.61-1.87-1.91-3.87-3.71-6.05-5.27-2.06-1.33-4.32-2.3-6.54-3.32 1.2-2.08 2.41-4.17 3.61-6.26zM33.1 75.66c-.57-1.37-.32-3.69.92-4.55.19.4.58 1.2.78 1.6-.09 1.02-.45 2.9-1.7 2.95z"/>
    </g>
    <path fill="#ce2726" d="M96.69 64.14c2.87-.56 5.85-.73 8.51.69-.78 1.12-.93 2.44-.96 3.76-.36.34-1.08 1.02-1.45 1.36-.31.3-.94.9-1.26 1.2-1.56-1.24-3.14-2.46-4.7-3.7-.05-1.11-.09-2.21-.14-3.31z"/>
    <path fill="#130404" opacity=".38" d="M88.64 64.44c1.09-.34 2.18-.7 3.27-1.06 1.63 1.36 3.25 2.75 4.92 4.07 1.56 1.24 3.14 2.46 4.7 3.7.32-.3.95-.9 1.26-1.2l-.08 2.02c-1.03-.27-2.05-.53-3.08-.8-.27.41-.81 1.24-1.08 1.65-2.74.29-5.69.09-8.16 1.54l-.53.25c-.04-.51-.13-1.54-.17-2.06 2.95-1.13 6.16-1.04 9.26-1.24-2.8-2.2-5.51-4.58-8.74-6.14l-1.57-.73z"/>
    <path fill="#4f1010" d="M90.21 65.17c3.23 1.56 5.94 3.94 8.74 6.14-3.1.2-6.31.11-9.26 1.24-9.84 2.58-11.81 15.15-21.47 17.91-1.29.22-2.58.41-3.88.57.82-1.92 1.88-3.77 3.57-5.08 4.18-3.2 4.85-8.9 8.37-12.65 3.71-4.05 8.91-6.2 13.93-8.13z"/>
    <path fill="#170505" opacity=".33" d="M29.34 69.99c.37.03 1.09.1 1.45.14-.55 3.73-.1 7.49.21 11.22-1.28-3.55-1.01-7.38-1.62-11.05l-.04-.31z"/>
    <path fill="#e6343b" d="M34.02 71.11c-.19-1.6 2.63-2.15 2.94-.58-.41 1.05-1.13 1.78-2.16 2.18-.2-.4-.59-1.2-.78-1.6z"/>
    <path fill="#130405" opacity=".35" d="M41.25 71.08c2.18 1.56 4.18 3.36 6.05 5.27l-.08.88c-1.87-1.25-3.54-2.75-5.3-4.12-.52 1.61-1.01 3.22-1.61 4.81l-1.32.23c.2-1.82.46-3.63.68-5.44l.04-.32c.38-.33 1.15-.98 1.54-1.31z"/>
    <path fill="#521018" d="M48.31 71.74c3.5 3.99 6.26 8.67 7.95 13.7-.31.79-.68 1.56-1.1 2.3-2.31-3.71-4.35-7.87-7.94-10.51l.08-.88c.3-1.54.68-3.07 1.01-4.61z"/>
    <path fill="#230809" opacity=".45" d="M35.04 77.65c.48.4 1.45 1.22 1.94 1.63.18 1.94-.28 4.13.73 5.89 1.8-.04 3.61-.11 5.41-.22-.25-.82-.77-2.45-1.02-3.27-.59.71-1.15 1.45-1.68 2.2-.69-1.09-1.28-2.25-1.63-3.5 1.3 1.27 2.58-.06 3.83-.66.32 2.02.88 3.99 1.59 5.91 2.49.08 4.98.09 7.46 0l-.05.51c-.63-.02-1.88-.05-2.51-.07-5.69.06-11.55.5-16.85 2.72-.64-.44-1.29-.88-1.93-1.32 2.17-.69 4.37-1.3 6.62-1.68-.92-2.04-1.83-4.09-2.57-6.21.16-.48.49-1.45.66-1.93z"/>
    <path fill="#581316" d="M61.78 84.7c2.22-1.9 4.9-3.16 7.41-4.63.39 2.92-1.32 5.2-3.8 6.48-1.77 2.25-1.36 5.14-1.4 7.81-.38 3.07-4.09 3.82-6.26 2.08.35-1.9.43-3.82.25-5.74.36-.65 1.1-1.95 1.46-2.6.52.6 1.04 1.21 1.57 1.81.09-1.75.08-3.57.77-5.21z"/>
    <path fill="#531313" d="M32.26 88.79c5.3-2.22 11.16-2.66 16.85-2.72.09.53.28 1.59.38 2.11-.49.65-.98 1.29-1.46 1.94-5.13-1.26-10.6-1.48-15.44.9l-1.75-1.63 1.42-.6z"/>
    <path fill="#270808" opacity=".66" d="M32.59 91.02c4.84-2.38 10.31-2.16 15.44-.9 2.84.6 5.63 1.51 8.25 2.78-.82.28-1.63.56-2.45.83-4.04-3.47-10.44-3.86-15.38-2.21l-.19.05-.08-1.3c-2.3-.55-4.23 1.33-6.3 2.02l.71-1.27z"/>
    <path fill="#521010" d="M38.45 91.52c4.94-1.65 11.34-1.26 15.38 2.21-2.55.67-5.02 1.95-7.7 1.98-2.87-.68-5.15-2.78-7.68-4.19z"/>
</svg>
