<svg width="128pt" height="128pt" viewBox="0 0 128 128" xmlns="http://www.w3.org/2000/svg">
    <g fill="#fff">
        <path d="M70.21 41.34c3.54-.43 7.91-1.09 10.58 1.87 2.15 1.63 1.01 5.2 3.52 6.46 1.89 1.15 3.41 2.76 4.62 4.59l.64 3.04c.84-1.73.8-3.64-.49-5.19 3.26 1.02 6.7.73 10.06.98 2.74 1.46 5.39 3.13 7.99 4.86 2.95 2.94 3.39 7.34 4.94 11.04l-1.47.24c.34.48 1 1.45 1.34 1.93-.68 1.69-1.4 3.38-2.24 5-1.87-.19-3.74-.49-5.58-.88-3.12 2.12-6.73 4.81-10.72 3.54-1.82-1.22-3.21-2.94-4.67-4.54-.87-1.09-1.77-2.15-2.68-3.2 1.5 3.05 3.38 5.9 5.68 8.42-2.71 2.79-4.23 6.76-7.82 8.64-3.37 1.63-7.35 2.28-10.93.95.79.97 1.25 2.12 1.53 3.33 1.48-.04 2.93-1.2 4.43-.61 2.09.74 2.66 3.13 3.46 4.94-6.72 3.54-17.36 1.66-19.61-6.43-2.28-1.84-4.18-4.29-4.44-7.32.32-2.78 2.01-5.15 4.06-6.96 2.18.64 4.39 1.16 6.48-.06 3.45-5.79 3.42-12.8 3.06-19.31 1.64 2.69 3.99 5.03 7.01 6.07 1.92.38 3.84.84 5.54 1.86.79-1.44-1.5-1.36-2.29-1.87-5.27-1.92-10.76-6.78-10.31-12.88-1.93-2.44-2.93-5.48-1.69-8.51m2.38 5.62c.38.49.77.98 1.16 1.47.83-.23 2.51-.68 3.35-.91 1.38-.28 4.61 1.69 4.65-.26-2.9-1.28-6.15-.88-9.16-.3m1.57 2.06c-3.01 3.37.57 8.23 3.82 9.91 3.11-.14 6.48-1.41 9.14 1.08-1.13-1.52-2.28-3.06-2.99-4.82-.4-1.77.51-4.13-1.28-5.32-2.65-1.4-5.81-1.35-8.69-.85m28.44 13.81c-2.42 1.23-4.78 2.62-7.62 2.71 1.99.46 4.62-.12 5.63 2.12 1.54 1.8 3.77-.42 5.5-.76-.75-1.7-.96-4.64-3.51-4.07z"/>
        <path d="M100.42 65.38c1.1-.14 3.6-2.87 3.85-.36.95 2.39-3.84 2.93-3.85.36zM28.53 65.92c2.03-.11 3.66 1.18 5.53 1.71 3.75.47 7.2 3.31 11.03 1.5 3.16 1.09 6.67 1.73 9.74-.02 1.28 1.33 2.59 2.62 3.95 3.87-5.66-1.62-11.57-.63-16.99 1.38 4.5 2.1 8.73 6.31 8.27 11.65.7 6.12-5.63 9.86-10.9 10.61-4.29.88-8.1-1.54-11.91-3.04 3.18 3.47 10.37 5.43 8.44 11.43-1.14-1.64-2.41-3.18-3.59-4.79.76 1.99 1.54 3.98 2.13 6.03-9.01-2.79-18.62-11.09-17.09-21.42.26-.42.77-1.27 1.03-1.7 1.52 1.92 3.33 3.58 5.4 4.89-1.82-2.74-4.06-5.52-3.89-9.01.07-2.77.91-6.73 4.15-7.28-.13.81-.37 2.45-.49 3.26 1.45-3.17 3.31-6.13 5.19-9.07z"/>
        <path d="M45.3 74.55c5.2-.98 10.58-1.18 15.73.18-2 2.68-4.46 5.59-4.13 9.18-.23 3.66 3.02 6.02 5.51 8.12-3.73.33-7.24-1.05-10.69-2.26.61-5.75-1.5-11.89-6.42-15.22z"/>
    </g>
</svg>
