<svg width="128pt" height="128pt" viewBox="0 0 128 128" xmlns="http://www.w3.org/2000/svg">
    <path fill="#fff" d="M45.02 21.48c1.77 3.82 3.85 7.75 7.43 10.19 4.36 3.3 10.38 4.59 13.32 9.58 1.83 2.09 1.96 5.53 4.44 6.95-1.11.38-2.16.88-3.2 1.41 3.49 2.66 4.16 7.36 4.07 11.45-.03 4.27.14 8.94-2.26 12.68-2.35 2.83-6.22.62-8.42-1.24-3.72-2.57-7.26-7.92-4.28-12.27-.54-.38-1.63-1.12-2.18-1.49-.37-1.58-.24-3.18.12-4.75-2.45.99-5.01.01-7.44-.48 1.68 1.3 3.69 2.37 5.88 2.11-.69 2.11.15 4.18 2.15 5.15-1.25 2.28-1.04 4.88.15 7.12-2.74.71-5.59 1.05-8.34.17.67-1.17 1.33-2.34 1.97-3.52-2 3.31-5.83 4.63-9.49 3.31 2.15-1.75 4.07-3.78 5.23-6.32-1.73 1.58-3.08 3.75-5.31 4.67-1.89.98-3.92-.08-5.81-.46 2.23-1.04 4.56-2.22 5.44-4.69-2.17 1.72-4.58 3.64-7.57 2.95-3.59-.83-6.91-3.1-9.15-6.03 1.16.65 2.31 1.33 3.43 2.04 3.24.2 6.91.01 9.12-2.79-7.38 2.19-14.03-3.92-18.31-9.29 4.72 3.74 10.78 5.7 16.81 4.91-8.02-.79-13.22-7.87-16.07-14.77 1.96 2.19 4.1 4.2 6.56 5.8 8.99 4.41 19.15 1.48 28.66 1.3 4.87.04 10.49 0 14.25 3.6.52-.57 1.04-1.13 1.57-1.68-5.6-3.4-12.4-4.38-18.79-3.07-.42-1.24-.45-2.49-.09-3.75-3.55-2.74-5.08-7.32-5.5-11.64 1.21.81 2.44 1.61 3.6 2.5-2.27-2.75-2.17-6.31-1.99-9.65z"/>
</svg>
