<svg width="128pt" height="128pt" viewBox="0 0 128 128" xmlns="http://www.w3.org/2000/svg">
    <path fill="#8e1c1e" d="M46.37 30.5c-1.49-2.68-2.05-5.87-1.13-8.82 1.75 4.21 4.45 8.13 8.34 10.61 3.73 2.63 8.54 3.88 11.38 7.65 1.85 2.14 2.47 5.1 4.57 7.04-.36.33-1.09.99-1.45 1.32l-.3.02c-1.31-2.79-4.63-3.35-7.23-4.36-1.02-1.83-2.47-3.34-4.04-4.71-.33.78-.66 1.56-.98 2.34-1.53-1.09-3.07-2.17-4.6-3.26-.9.44-1.81.89-2.7 1.35-3.36-2.69-4.36-7.11-5.02-11.13.79.49 2.37 1.46 3.16 1.95z"/>
    <path fill="#300e10" opacity=".61" d="M17.64 40.07c-3.1-1.59 2.33-2.97.76-.03l-.76.03z"/>
    <path fill="#631818" d="M48.23 39.68c.89-.46 1.8-.91 2.7-1.35 1.53 1.09 3.07 2.17 4.6 3.26.32-.78.65-1.56.98-2.34 1.57 1.37 3.02 2.88 4.04 4.71-3.91-.47-7.9-.63-11.78.22-.17-1.5-.32-3-.54-4.5z"/>
    <path fill="#a42228" opacity=".98" d="M17.64 40.07l.76-.03c2.86 2.47 6.03 4.51 9.67 5.63-.11.5-.34 1.49-.46 1.99-1.36.44-2.72.86-4.09 1.25l-.38-.9c-.35-.97-1-1.68-1.95-2.14-1.7-1.57-2.52-3.79-3.55-5.8z"/>
    <path fill="#370b10" d="M69.95 41.26c4.86-1.31 11.77-.55 12.78 5.49-3.29.12-7.36-1.8-9.99.95-.41.4-1.25 1.19-1.66 1.59-1.28-2.52-2.24-5.26-1.13-8.03z"/>
    <path fill="#020100" opacity=".21" d="M48.77 44.18c3.88-.85 7.87-.69 11.78-.22 2.6 1.01 5.92 1.57 7.23 4.36l.3-.02c.83.36 1.67.72 2.51 1.06-.47.46-1.41 1.36-1.88 1.81-2.3-3.12-5.78-4.97-9.53-5.74-3.33-1.44-6.99-.33-10.41-1.25z"/>
    <path fill="#150405" opacity=".43" d="M21.19 45.87c.95.46 1.6 1.17 1.95 2.14-1.79.28-2.44-.43-1.95-2.14z"/>
    <path fill="#bd2529" d="M28.07 45.67c10.34 1.69 20.72-1.49 31.11-.24 3.75.77 7.23 2.62 9.53 5.74.64.85 1.12 1.78 1.44 2.78 1.25 6.24 1.69 13.21-1.04 19.11-1.42 3.06-5.44 2.09-7.48.23-4.05-2.7-8.49-7.83-5.7-12.91-2.12-1.49-2.37-3.91-1.98-6.28-2.42.48-4.83-.06-7.17-.66 1.56 1.22 3.33 2.11 5.2 2.76.2 1.84.9 3.51 2.4 4.65-.92 2.34-.62 4.79.05 7.14-2.55.47-5.15.6-7.71.1.5-1.1 1.01-2.19 1.52-3.28-1.11 1.05-2.17 2.17-3.43 3.04-1.89.39-3.83.12-5.74.13 2.04-1.83 3.84-3.92 5.14-6.35-1.55 1.36-2.96 2.88-4.62 4.1-1.96 1.25-4.26.46-6.32.04 2.25-1.11 4.37-2.54 5.55-4.82-3.06 2.43-7.04 4.29-10.8 2.11-.58-.32-1.73-.96-2.3-1.28-.29-.42-.88-1.24-1.18-1.66 3.38-.05 7.3.3 9.67-2.65-2.12-.04-4.23-.02-6.34-.13-4.74-1.77-8.75-5.2-11.68-9.28 2.49 1.51 4.93 3.17 7.69 4.16 2.99 1.1 6.2.87 9.3.43-1.74-.42-3.49-.78-5.22-1.22-1.6-.62-2.99-1.63-4.44-2.52 1.37-.39 2.73-.81 4.09-1.25.12-.5.35-1.49.46-1.99z"/>
    <path fill="#190505" opacity=".58" d="M72.74 47.7c2.63-2.75 6.7-.83 9.99-.95l.19.02c-.11.34-.33 1.03-.44 1.38-1.53-.11-3.03.23-4.51.57-.3.03-.9.07-1.19.1-1.36-.35-2.7-.73-4.04-1.12z"/>
    <path fill="#651415" d="M72.74 47.7c1.34.39 2.68.77 4.04 1.12-1.59.14-4.18.8-3.65 2.94.32 3.32 3.03 7.66 6.86 6.85 2.06-.27 4.17-.28 6.17.39-2.17-2.34-2.32-5.49-2.75-8.47-1.51-1.29-3.6-1.37-5.44-1.81 1.48-.34 2.98-.68 4.51-.57 3.5 1.95 6.72 4.91 7.27 9.1-.02-1.7-.01-3.43-.48-5.08 3.24.53 6.52.49 9.77.83 2.49 1.05 4.68 2.66 6.99 4.04 2.77 1.48 3.62 4.75 4.7 7.46 1.24 3.65 1.76 8.32-.89 11.48-1.92.51-3.89-.29-5.81-.5-1.53 1.06-3.05 2.13-4.67 3.06-1.97.35-3.98.47-5.99.54-2.07-2.36-4.29-4.59-6.67-6.64 1.33 2.59 3.07 4.93 5 7.09-2.42 2.97-4.11 6.75-7.57 8.69-3.18 1.62-6.84 1.64-10.26 2.43 2.17 1.48 5.57.11 7.01 2.62.75 1.13 1.27 2.42 1.57 3.74-6.6 3.25-16.6 1.71-19.49-5.74-.71-1.47-2.07-2.47-3.06-3.73-.63-2.09-2.02-4.3-.97-6.5.63-1.98 2.15-3.47 3.43-5.04 2.07.65 4.62 1.79 6.38-.18 2.79-3.37 3.07-8.01 3.37-12.18l3.39-.42c.27.61.82 1.84 1.09 2.46.93-.95 1.85-1.89 2.78-2.83 1.49.27 2.97.56 4.44.87l.14-.52c-4.84-.54-8.54-4.24-11.19-8.05-1.48-2.34-.67-5.01-.02-7.45m26.25 17.15c-.86.13-2.59.4-3.45.53 1.27.45 2.61.65 3.94.86.93 3.56 4.52 1.85 6.74.72-.46-1.34-.92-2.68-1.36-4.02-2.26-.52-4.27.35-5.87 1.91z"/>
    <path fill="#3e0e0f" opacity=".64" d="M27.96 51.43c1.73.44 3.48.8 5.22 1.22-3.1.44-6.31.67-9.3-.43 1.42.03 2.78-.23 4.08-.79z"/>
    <path fill="#1b0606" opacity=".42" d="M46.78 53.44c2.34.6 4.75 1.14 7.17.66-.39 2.37-.14 4.79 1.98 6.28-2.79 5.08 1.65 10.21 5.7 12.91 2.04 1.86 6.06 2.83 7.48-.23 2.73-5.9 2.29-12.87 1.04-19.11l1.83 2.79c.07 2.3.16 4.6.13 6.9-.3 4.17-.58 8.81-3.37 12.18-1.76 1.97-4.31.83-6.38.18-1.28 1.57-2.8 3.06-3.43 5.04-1.05 2.2.34 4.41.97 6.5-.24.38-.71 1.12-.95 1.49-4.25-4.28-1.49-10.53 1.95-14.33-4.92-1.19-10.02-.8-15-.25 4.24 4 6.68 9.67 6.02 15.54-.64-.77-1.27-1.53-1.89-2.3.62-4.93-1.96-9.9-6.41-12.14-.05-.04-.15-.11-.2-.15-.4-.27-1.18-.81-1.57-1.08 5.24-2.02 10.97-3.1 16.49-1.49-1.14-1.14-2.27-2.28-3.4-3.42-3.27 1.22-6.63.62-9.93-.01-5.76 1.29-11.04-2.34-16.52-3.6.34-.26 1.02-.78 1.37-1.03-.46-.43-1.38-1.29-1.84-1.71 3.76 2.18 7.74.32 10.8-2.11-1.18 2.28-3.3 3.71-5.55 4.82 2.06.42 4.36 1.21 6.32-.04 1.66-1.22 3.07-2.74 4.62-4.1-1.3 2.43-3.1 4.52-5.14 6.35 1.91-.01 3.85.26 5.74-.13 1.26-.87 2.32-1.99 3.43-3.04-.51 1.09-1.02 2.18-1.52 3.28 2.56.5 5.16.37 7.71-.1-.67-2.35-.97-4.8-.05-7.14-1.5-1.14-2.2-2.81-2.4-4.65-1.87-.65-3.64-1.54-5.2-2.76z"/>
    <path fill="#3e0e10" opacity=".58" d="M27.87 57.34c2.11.11 4.22.09 6.34.13-2.37 2.95-6.29 2.6-9.67 2.65.3.42.89 1.24 1.18 1.66-1.92-.85-3.38-2.36-4.37-4.19 3.29 1.95 7.32 3.26 10.83.95-1.44-.39-2.88-.79-4.31-1.2z"/>
    <path fill="#430f10" opacity=".97" d="M71.98 56.74c1.96 2.58 4.31 4.92 7.39 6.11-.93.94-1.85 1.88-2.78 2.83-.27-.62-.82-1.85-1.09-2.46l-3.39.42c.03-2.3-.06-4.6-.13-6.9z"/>
    <path fill="#140404" opacity=".47" d="M98.99 64.85c1.6-1.56 3.61-2.43 5.87-1.91.44 1.34.9 2.68 1.36 4.02-2.22 1.13-5.81 2.84-6.74-.72-1.33-.21-2.67-.41-3.94-.86.86-.13 2.59-.4 3.45-.53m3.55-.52c-1.21.29-2.34 2.52-.44 2.68 1.94.52 2.78-3.96.44-2.68z"/>
    <path fill="#c0292e" opacity=".98" d="M102.54 64.33c2.34-1.28 1.5 3.2-.44 2.68-1.9-.16-.77-2.39.44-2.68z"/>
    <path fill="#601115" d="M28.49 65.8c5.48 1.26 10.76 4.89 16.52 3.6 3.3.63 6.66 1.23 9.93.01 1.13 1.14 2.26 2.28 3.4 3.42-5.52-1.61-11.25-.53-16.49 1.49.39.27 1.17.81 1.57 1.08.05.04.15.11.2.15 4.45 2.24 7.03 7.21 6.41 12.14-.31 5.12-5.6 8.02-10.1 8.93-4.25.94-8.36-.77-12.07-2.67 3.24 3.21 9.69 5.22 8.14 11.03-1.76-1.21-2.71-3.14-3.89-4.85.26 2.17 3.98 4.69 1.12 6.29-6.76-3.09-13.55-7.93-15.91-15.32-.68-2.74-1.25-6.1 1.01-8.28l.77 1.3c.66 1.52 1.85 2.93 3.63 3-.3-1.55-1.24-2.83-2.29-3.96-1.4-2.75-1.12-6.01.06-8.77.61-1.31 1.6-3.04 3.35-2.69-.04.56-.12 1.66-.17 2.22 1.46-2.8 3.1-5.48 4.81-8.12z"/>
    <path fill="#0e0302" opacity=".42" d="M86.7 72.44c2.38 2.05 4.6 4.28 6.67 6.64 2.01-.07 4.02-.19 5.99-.54-2.27 1.5-5.1.87-7.66.99-1.93-2.16-3.67-4.5-5-7.09z"/>
    <path fill="#911d21" d="M45.9 74.45c4.98-.55 10.08-.94 15 .25-3.44 3.8-6.2 10.05-1.95 14.33 1.2 1.07 2.52 1.99 3.73 3.04-3.74.46-7.29-.92-10.76-2.08.66-5.87-1.78-11.54-6.02-15.54z"/>
    <path fill="#280606" opacity=".78" d="M43.42 75.4c.05.04.15.11.2.15-.05-.04-.15-.11-.2-.15z"/>
    <path fill="#0f0303" opacity=".52" d="M20.44 83.16c1.05 1.13 1.99 2.41 2.29 3.96-1.78-.07-2.97-1.48-3.63-3 .34-.24 1.01-.72 1.34-.96z"/>
</svg>
