<svg width="128pt" height="128pt" viewBox="0 0 128 128" xmlns="http://www.w3.org/2000/svg">
    <path fill="#fff" d="M56.37 33.11c5.1 1.98 9.06 5.87 13.18 9.31 3.9 3.86 6.37 9.09 11 12.22 1.78 1.11 1.82 3.4 2.16 5.25.84 5.81-.36 11.63-.34 17.45-1.49-1.89-2.4-4.22-4.3-5.77.28.95.85 2.85 1.13 3.8-.8-.67-2.4-2-3.2-2.66-.03 5.57.19 11.18 1.02 16.69-2.32-1.87-4.04-4.39-6.46-6.13-5.43-3.15-10.94-6.17-16.26-9.5-4.98-4.07-4.81-11.06-5.93-16.84.26-5.17 1.75-10.2 3.24-15.14 1.11-3.1 2.01-6.58 4.76-8.68z"/>
</svg>
