<svg width="128pt" height="128pt" viewBox="0 0 128 128" xmlns="http://www.w3.org/2000/svg">
    <path fill="#232323" opacity=".14" d="M113.08 14.01c3.34.09-1.5 3 0 0z"/>
    <g fill="#fff">
        <path d="M23.2 61.31c3.42-2.74 5.78-6.82 9.98-8.52-.59 1.54-1.54 2.87-2.57 4.13 1.73 1.15 4.46 2.49 3.61 5.05-1.28 3.84-.46 8.01-1.53 11.83-1.89 4.39-8.05 3.23-10.75.27-3.74-3.49-2.46-9.76 1.26-12.76zM52.97 55.77c2.46-1.93 5.16-3.72 8.47-3.56-1.5 1.46-3.17 2.71-4.81 4 1.08 1.49 2.11 3.03 2.89 4.71-1.28 1.64-2.94 2.89-4.53 4.21-2.47 2-2.18 6.17-5.26 7.59-4.64 1.33-9.48-3.17-8.95-7.86.3-5.89 6.72-9.59 12.19-9.09zM68.67 68.22c1.42-1.6 2.69-3.32 4.23-4.8-.12 2.91-1.23 5.58-2.91 7.92.1 5.86-3.68 12.67-10.05 13.12-3.65.17-5.9-2.79-7.45-5.66.03-1.28.05-2.57.07-3.85 1.98-1.6 4.25-2.75 6.36-4.14 2.27-1.46 3.06-4.98 6.14-5.09 1.41.48 2.41 1.67 3.61 2.5zM25.93 82.44c3.87.64 6.22-3.99 10.08-3.35 3.1-.02 5.61 2.08 7.69 4.15 2.01 2.15 4.26 4.59 4.22 7.74.41 3.76-3.73 6.26-3.37 9.99.45 2.12 1.3 4.14 1.84 6.24-1.89 5.55-9.56 8.38-14.4 4.86-6.43-4.4-12.23-9.84-16.72-16.23-3.46-4.56-1.58-11.57 3.17-14.42 2.51-.94 5 .78 7.49 1.02zM71.01 94.02c1.81-.61 3.03-2.25 4.62-3.27-.54 4.08-4.77 5.85-6.33 9.39-2.67 5.16-10.79 8.45-15.27 3.66-3.1-2.71-3.91-8.97.68-10.58 3.76-.88 7.71-.66 11.45-1.76 2.21-.91 3.32 1.5 4.85 2.56z"/>
    </g>
</svg>
