<svg width="128pt" height="128pt" viewBox="0 0 128 128" xmlns="http://www.w3.org/2000/svg">
    <g fill="#fff">
        <path d="M106.07 16.5c2.77-1.04 5.58-1.97 8.31-3.12l-.37.61c-6.08 4.54-12.56 8.58-18.24 13.62-3.54 1.14-6.51 3.36-9.24 5.81-.53.16-1.6.49-2.13.65 1.87-2.29 3.94-4.57 6.63-5.89 4.68-2.34 7.54-7.63 12.64-9.08.8-.87 1.6-1.74 2.4-2.6zM72.02 18.23c1.36-.29 2.71-.57 4.06-.86-.05.2-.16.6-.21.79-.43.04-1.29.11-1.72.14l-1.01 1.6c-.38-.56-.75-1.11-1.12-1.67zM66.65 22.98c1.62-.97 3.38-1.67 5.3-1.61-2.69 2.95-6.37 4.86-9.81 6.81.76-2.4 3.15-3.14 5.26-3.93l-.75-1.27zM47.12 39.22c5.14-3.52 8.64-9.5 15.1-10.92-.47 2.5-3.79 2.72-4.26 5.22-2.53 1.65-5.87 2.57-7.29 5.48-.78 1.71-2.66 2.34-4.12 3.31-.11 2.83-2.66 2.83-4.87 3.11-.55 1.21-1.13 2.45-2.42 3.03-.28 1.65-.53 3.67-2.27 4.43-1.79.36-3.53-.35-5.21-.83 2.34-.64 3.58-2.52 4.34-4.69 2.01.18 3.07-1.7 4.47-2.74 2.22-1.74 4.41-3.53 6.53-5.4zM106.94 40.99c3.27-2.01 5.66-5.09 9.06-6.93.11.26.34.79.45 1.05-3.3 2.81-7.12 4.95-10.03 8.2-1.93 1.45-4.28 2.16-6.26 3.52-2.12 2.6-5.19 4.36-8.46 5.05 1.87-3.39 5.66-5.25 9.18-6.54.76-2.8 4.12-2.77 6.06-4.35zM75.47 41.31c2.79-1.82 4.4-5.59 8.17-5.61-3.23 4.66-8.23 7.63-12.01 11.75-2.39 1.02-4.54 2.5-6.82 3.72-.41.8-1.21 2.4-1.62 3.21-1.73-1.71-2.06-4.05-1.33-6.27 4.81-1.67 9.3-4.12 13.61-6.8zM78.94 56.82c4.41.82 6.56-4.23 10.77-4.32-.33.62-.98 1.87-1.3 2.5-3.62.49-4.46 4.36-6.55 6.74-2.02.17-4.18 1.14-3.82 3.58-3.81.02-4.37-4-3.3-6.87.77.16 2.32.49 3.09.66.28-.57.83-1.72 1.11-2.29zM113.42 64.74c1.69-.48 2.23.05 1.62 1.57-1.7.49-2.25-.04-1.62-1.57zM101.63 74.34c2.21-3.81 6.49-6.25 10.59-7.62-.66 1.25-1.8 2.01-3.06 2.56-2.83 1.26-4.04 5.13-7.53 5.06z"/>
        <path d="M94.51 78.74c2.71-1.43 4.48-4.14 7.32-5.38-.06 3.79-4.12 4.75-6.57 6.76-1.85 1.53-4.19 2.03-6.48 2.54-1.24 2.27-2.96 4.29-3.7 6.81-2.52 1.52-5.54 1.29-8.35 1.69.04-3.09 3.17-4.42 5.43-5.79 2.4-.86 3.72-3.15 5.68-4.61 2.24-.61 4.64-.81 6.67-2.02z"/>
    </g>
</svg>
