<svg width="128pt" height="128pt" viewBox="0 0 128 128" xmlns="http://www.w3.org/2000/svg">
    <g fill="#fff">
        <path d="M41.89 45.88c3.37-1.6 7.14-1.99 10.82-2.05-2.88 2.74-5.58 5.66-8.43 8.44-.58-2.21-1.54-4.28-2.39-6.39zM54.67 43.86c3.37-.09 6.75.59 9.61 2.43-.68 2.11-1.59 4.15-2.82 6-2.07-2.96-4.38-5.73-6.79-8.43zM53.42 44.83c2.89 2.61 4.79 6.06 7.53 8.79-2.63 1-5.03 2.51-7.64 3.56-2.71-1.06-5.2-2.62-7.92-3.65 2.47-3.09 5.53-5.64 8.03-8.7zM32.55 51.94c2.55-1.98 5.64-3.06 8.3-4.88.73 1.94 1.45 3.87 2.26 5.77-3.49-.61-7.03-.85-10.56-.89zM62.99 53.09c1.03-2.26 2-4.55 3.06-6.79 3 1.5 6.01 3.14 8.34 5.61-3.82.16-7.62.63-11.4 1.18zM24.89 61.96c1.16-3.55 3.86-6.27 6.11-9.16 0 4.12-.01 8.25.01 12.37-2.03-1.06-4.39-1.67-6.12-3.21zM32.46 53.22c3.58.39 7.16.84 10.76.85-.8 2.69-1.71 5.35-2.38 8.08-2.74 1.18-5.57 2.13-8.39 3.07 0-4 .03-8 .01-12zM62.95 54.36c3.77-.32 7.55-.47 11.3-1.02-.32 3.96-.18 7.94-.6 11.9-2.48-.9-4.93-1.84-7.45-2.61-1.48-2.58-2.23-5.49-3.25-8.27zM75.91 53.34c2.79 2.43 4.44 5.77 6.24 8.93-2.37 1.06-4.78 2-7.19 2.94.51-3.94.57-7.92.95-11.87zM42.4 61.65c.74-2.35 1.55-4.68 2.3-7.03 2.2 1.11 4.42 2.2 6.58 3.42-2.92 1.31-5.89 2.5-8.88 3.61zM55.02 58.09c2.22-1.06 4.43-2.14 6.63-3.24.69 2.42 1.57 4.79 2.52 7.12-2.91-1.59-6.07-2.66-9.15-3.88zM53.26 59.06c3.77 1.34 7.58 2.76 11.17 4.52 2.22 3.36 3.14 7.37 5.04 10.91-1.17 3.51-2.54 6.95-3.78 10.45-.31 1.2-1.68 1.52-2.65 2-3.32 1.37-6.53 3.03-9.98 4.06-3.71-1.31-7.25-3.11-11.04-4.21-1.75-3.8-3.12-7.75-4.79-11.59 1.72-3.95 2.95-8.13 4.94-11.96 3.8-1.13 7.34-2.94 11.09-4.18zM24.01 63.62c2.09.85 4.15 1.79 6.24 2.65-2.56 2.82-5.56 5.16-8.47 7.58.18-3.51 1-6.95 2.23-10.23zM75.72 66.29c2.44-.61 4.71-1.71 7.09-2.52 1.06 3.23 1.72 6.57 2.04 9.96-3.06-2.46-6.25-4.76-9.13-7.44zM32.83 66.84c2.3-1.15 4.83-1.76 7.2-2.72-1.25 3.01-2.53 6.03-3.35 9.2-1.51-2.01-2.85-4.17-3.85-6.48zM66.58 64.3c2.14.9 4.67 1.2 6.51 2.66-.8 1.93-1.76 3.8-2.48 5.77-1.57-2.7-2.8-5.57-4.03-8.43zM23.07 74.55c3.17-1.93 5.45-4.93 8.45-7.06 1.38 2.67 2.81 5.31 4.08 8.03-.8 1.27-1.59 2.55-2.39 3.82-.54 1.05-1.09 2.09-1.66 3.12-3.12-2.3-5.73-5.19-8.48-7.91zM74.44 67.42c3.06 2.45 6.25 4.75 9.2 7.34-3.12 2.15-5.68 4.97-8.56 7.41-1.5-2.41-2.75-4.96-3.94-7.53.96-2.46 2.37-4.74 3.3-7.22zM21.88 75.62c2.9 2.5 5.58 5.25 8.22 8.02-2.19.57-4.33 1.27-6.44 2.07-1.17-3.24-1.84-6.65-1.78-10.09zM75.95 83.5c2.79-2.89 5.89-5.45 9.12-7.82-.52 3.91-1.25 7.79-2.43 11.56-2.23-1.25-4.39-2.62-6.69-3.74zM32.93 83.04c1.07-2.12 2.32-4.14 3.61-6.14.9 3.09 2.14 6.06 3.41 9-2.26-1.1-4.97-1.39-7.02-2.86zM67.06 85.23c1.18-2.87 2.11-5.85 3.5-8.62.97 2.13 2.02 4.23 3.15 6.29-2.19.84-4.41 1.63-6.65 2.33zM24.01 87.17c2.32-.81 4.63-1.67 6.98-2.38 0 4.2.04 8.4-.01 12.6-3.07-2.82-5.05-6.57-6.97-10.22zM32.4 84.78c2.77 1.15 5.93 1.6 8.37 3.39 1.16 2.52 2 5.18 3.09 7.73-3.82.25-7.59 1.01-11.42 1.19.05-4.11.01-8.21-.04-12.31zM66.28 87.24c2.57-.93 5.14-1.87 7.67-2.91.2 4.11.58 8.2.89 12.31-4.02-.33-8.04-.74-12.08-.68.92-3 2.55-5.73 3.52-8.72zM75.47 84.76c2.1 1.24 4.19 2.49 6.33 3.66-1.27 3.21-3.33 6.01-5.78 8.4.01-4.02.06-8.06-.55-12.06zM42.47 88.37c2.98 1.24 6 2.39 8.94 3.72-2.06 1.09-4.11 2.21-6.09 3.44-1-2.37-1.85-4.79-2.85-7.16zM55.04 92.09c3.1-1.49 6.3-2.74 9.42-4.17-1.07 2.49-2.19 4.96-3.24 7.46-2.09-1.03-4.15-2.14-6.18-3.29zM45.99 96.64c2.42-1.13 4.72-2.49 7.11-3.68 2.65.81 4.9 2.57 7.42 3.72-2.62 2.97-5.39 5.78-8.01 8.74-2.06-3.01-4.48-5.76-6.52-8.78zM32.33 98.78c3.73-.72 7.54-.77 11.27-1.44-1.11 2.22-2.21 4.45-3.4 6.64-2.76-1.51-5.43-3.2-7.87-5.2zM53.59 107.04c2.3-3.43 5.17-6.39 8.09-9.29.95 2.35 2.13 4.59 3.34 6.81-3.7 1.3-7.58 1.84-11.43 2.48zM62.78 97.23c4.11.37 8.22.89 12.35.78-2.72 2.3-5.64 4.36-8.81 6-1.12-2.29-2.34-4.53-3.54-6.78zM41.75 104.63c.89-2.31 2-4.52 3.24-6.67 2.32 2.87 4.44 5.9 6.74 8.79-3.38-.4-6.72-1.11-9.98-2.12z"/>
    </g>
</svg>
