<svg width="128pt" height="128pt" viewBox="0 0 128 128" xmlns="http://www.w3.org/2000/svg">
    <g fill="#fff">
        <path d="M63.35 19.21c.25.31.73.93.97 1.24 2.01 7.82 4.02 15.7 6.97 23.22 1.01-2.28 2.08-4.53 3.22-6.75.26 2.54.48 5.08.63 7.62.92-.17 2.75-.53 3.66-.7-.94-.15-1.89-.28-2.84-.38 2.74-4.49 3.63-9.88 6.59-14.18-1.14 4.37-3.29 8.5-4.9 12.74.38.46.76.91 1.16 1.35 7.17-6.92 14.79-13.35 22.12-20.1-6.85 8.41-14.4 16.22-21.61 24.31 6.34-2.13 11.76-6.67 18.2-8.27-2.18 1.74-4.81 2.64-7.24 3.95-3.19 2.46-7.29 3.24-10.51 5.66 2.82.09 5.64.23 8.46.43-2.03 1.41-4.13 2.7-6.18 4.06 9.61.48 19.24.63 28.86 1.07-9.23.72-18.48.43-27.71.75 1.96 1.67 3.93 3.33 5.77 5.14l-3.9-.08c.18 2.29.62 4.57.72 6.88C82.8 54.12 71.22 42.41 57.3 42.53c2.22-.47 4.51-.55 6.76-.84-.69-1.55-1.32-3.13-1.93-4.72 2.34 1.97 4.48 4.16 6.72 6.25-1.76-8.02-3.57-16.03-5.5-24.01z"/>
        <path d="M51.33 33.39c.06-.26.19-.78.25-1.05 3.49 2.95 7.28 5.51 10.82 8.39l-1.16.19-.08-.67c-3.43-2.07-5.93-5.68-9.83-6.86zM86.66 61.72c.94.74 1.85 1.53 2.73 2.36 1.97.82 3.44 2.45 5.05 3.8.87.53 1.59 1.24 2.29 1.96-1.81-.21-2.79-1.84-3.94-3.04-2.6-.78-4.57-2.95-6.13-5.08zM19.95 96.35c2.21-.32 4.7.43 6.66-.89 1.86 3.44 5.33 5.42 8.44 7.56-1.59-.47-3.07-1.21-4.57-1.91.21 1.99.29 3.99.18 5.98-.41-1.78-.82-3.56-1.15-5.35-.88 1.93-1.44 3.98-2.14 5.98-.17-2.35.67-4.56 1.39-6.75-2.68.99-4.42 3.37-6.7 4.97 1.07-1.88 2.28-3.7 3.75-5.3-.72-.31-1.45-.61-2.17-.89-2.14.48-4.15 1.66-6.38 1.61 2.84-1.58 6.26-1.75 9.29-2.95-1.81-1.61-4.4-1.37-6.6-2.06z"/>
    </g>
    <path fill="#2c2c2c" opacity=".18" d="M98.23 71.29c.51.5.51.5 0 0z"/>
</svg>
