<svg width="128pt" height="128pt" viewBox="0 0 128 128" xmlns="http://www.w3.org/2000/svg">
    <g fill="#fff">
        <path d="M47.32 48.01c3.82-.66 7.74-1 11.6-.52 3.16.72 5.94 2.47 8.68 4.13-4.34.41-7.61 3.99-9.18 7.82-1.37 3.24-2.64 6.52-4.21 9.68-1.55 2.72-.63 5.93.02 8.78-2.94.88-6.21 1.75-9.15.39-6.21-2-9.02-9.11-8.8-15.16.45-6.74 5.65-11.74 11.04-15.12zM22.82 51.87c1.1-1.14 2.24-2.25 3.39-3.34-.61 1.23-1.14 2.5-1.48 3.83 1.39.73 2.56 1.82 3.97 2.52-.19.64-.36 1.29-.51 1.95 1.97.26 3.98.3 5.89.87-1.19 2.8-4.36.88-6.57 1.25-.63.68-1.9 2.05-2.53 2.74 1.19.66 2.44.81 3.75.44l.03-1.72c.25-.16.75-.5 1-.67.68 1.49.16 2.98-.56 4.32-.77-.02-2.3-.07-3.07-.09l-2.28-1.44c-.04-1.96.78-3.68 2.07-5.14l1.48 1.02c-.37-2.83-2.92-4.46-4.58-6.54z"/>
        <path d="M34.14 58.37c1.51-1.84 2.88-3.79 4.62-5.42-1.84 3.44-4.43 6.9-3.8 11.04.38 6.46 3.7 13.94 10.44 15.85-1.33 3.4-3.56 6.3-6.45 8.54-.05 3.1.51 6.15 2.55 8.6-1.36.02-2.72.03-4.08.03-.98-.85-1.96-1.67-2.95-2.5.03-3.06-.18-6.16-1.21-9.07.69-.9 1.38-1.8 2.08-2.69-.81-3.21-2.8-5.89-4.16-8.85-1.7-5.29.21-10.96 2.96-15.53zM65.01 53.77c5.1-2.86 11.99.1 14.47 5.05-1.05 5.24-1.52 11.39 2.88 15.29 1.48-1.1 2.53-2.66 3.42-4.24-.68-2.4-.3-5.81 3.04-5.28l.05-.89-3.12.28c-.75-1.58-1.6-3.48-3.69-3.06 4.29 2.55 3.65 8.95.52 12.12-3.01-3.06-3.01-7.29-2.64-11.28.48-1.88 2.82-1.68 4.27-2.26 1.66.83 2.44 2.67 3.63 4l.3-1.68c3.31.73 6.75 1.48 9.62 3.38 1.44 1.15 1.17 3.08 1.35 4.7 3.69.69 7.38 1.54 11.16 1.32-.85 3.08-2.1 6.6-5.47 7.68-3.4.4-6.82.01-10.23-.21 3.47 2.32 7.96 1.19 11.84.91-1.83 2.86-5.38 2.29-7.79 4.17-7.75 5.02-18.25 6.09-26.33 1.22 2.71-2.5 2.94-6.3.98-9.32-.15 1.7.3 3.51-.36 5.14-1.59 2.31-5 2.29-6.55 4.58-1.02 1.46.07 2.98.75 4.29 2.01 2.33 4.11 4.72 4.98 7.75-2.74-.65-3.83 1.94-5.12 3.71-.61-3.32-2.01-6.36-4.09-9.01-3-5.08-6.43-10.16-7.68-16.02-1.22-5.06 2.35-9.38 3.56-14.06.59-3.61 3.29-6.39 6.25-8.28m24.93 17.79c1.45.78 3.15 1.35 4.43-.05 1.85-.48-.37-1.87-.6-2.76-1.31.9-2.6 1.81-3.83 2.81m16.16 5.4c1.53-.71 2.67-2.84 2.54-4.48-1.48.34-4.18 3.14-2.54 4.48z"/>
        <path d="M91.07 61.54c1.89-1.86 3.82-3.68 5.95-5.26-.34 2.24-1.02 4.41-1.44 6.64-1.12-.35-3.38-1.03-4.51-1.38zM51 79.74c1.23-.33 2.46-.64 3.7-.93 2.6 3.56 1.05 7.73.25 11.61 1.55 1.46 3.07 2.97 4.48 4.57-2.21.02-4.43.01-6.64.03-3.22-4.49-1.28-10.18-1.79-15.28zM74.7 87.33c1.91.61 3.86 1.13 5.79 1.69.63 3.15 3.15 5.17 5.56 7.02-2.62-.03-5.23-.04-7.84-.02-2.44-2.27-3.37-5.44-3.51-8.69zM34.25 95.92c.8.52 2.41 1.56 3.21 2.08 1.7-.05 3.43-.09 4.93-1l1.89 3.03c-3.69.61-8.46-.21-10.03-4.11zM67.16 103.03c1.06-1.61 2.01-3.31 3.26-4.79 2.69-.58 4.05 2.02 5.73 3.58-2.5 2.21-5.98 2.1-8.99 1.21z"/>
    </g>
</svg>
