<svg width="128pt" height="128pt" viewBox="0 0 128 128" xmlns="http://www.w3.org/2000/svg">
    <g fill="#4a1013">
        <path d="M55.91 32.34c-1.46-3.9-1.12-8.31-1.59-12.43 1.02 4.45 2.06 8.93 2.41 13.49l-.82-1.06zM47.05 30.93c1.79 2.32 3.34 4.82 4.49 7.52l-1.05-.78c-1.78-1.81-2.42-4.46-3.44-6.74zM75.55 41.96c4.28-1.65 9.07-1.5 13.54-2.53-4.78 1.48-9.7 2.63-14.68 3.17l1.14-.64zM74.44 87.19c2.05.53 4.11 1.05 6.17 1.52.67 3.26 3.3 5.32 5.58 7.48-2.72.05-5.44.04-8.16.03-2.28-2.5-3.35-5.69-3.59-9.03z"/>
    </g>
    <g fill="#841c21">
        <path d="M61.74 40.68c1.91-3.33 3.84-6.67 6.1-9.78-1.43 3.82-4.11 7.13-4.92 11.18-.67-.03-2-.1-2.67-.13-.55.24-1.65.71-2.19.95l-.12-2.26c1.27 0 2.54 0 3.8.04zM62.92 42.08c4.03-2.52 7.29-6.01 11.15-8.77-2.58 2.77-5.21 5.49-7.99 8.07-.85.79-1.71 1.57-2.59 2.34-.39-.01-1.16-.02-1.55-.03.25-.4.73-1.21.98-1.61zM41.94 35.23c1.84-.09 3.68 1.77 4.23 3.45l-.19.42c-1.7-.33-3.58-2.27-4.04-3.87zM35.58 56.62l.96.02c-1.88 3.98-1.65 8.47-.67 12.65-.6 1.52-1.68 2.94-1.72 4.62 1.06 2.56 4.09 3.75 5.13 6.36.73 1.88 1.71 3.66 3.03 5.21-.43.46-1.29 1.37-1.72 1.83l-.5-.5c-1.51-1.55-3.08-3.04-4.57-4.6-2.36-4.33-5.89-8.78-5.08-14.02.66-4.18 2.16-8.47 5.14-11.57z"/>
    </g>
    <path fill="#020101" opacity=".23" d="M39.24 32.43c1.16-.55 2.67 1.25 1.85 2.27-1.17.54-2.64-1.24-1.85-2.27z"/>
    <g fill="#d63039">
        <path d="M55.91 32.34l.82 1.06c.97 2.27.99 4.82 1.21 7.24l.12 2.26c.54-.24 1.64-.71 2.19-.95-.05 1.19.51 1.77 1.69 1.74.39.01 1.16.02 1.55.03l2.71.13c-.82.36-2.47 1.08-3.3 1.44 1.25 1.35 2.5 2.69 3.74 4.05-1.9-.91-3.75-1.95-5.75-2.66-.25-.07-.74-.2-.99-.26-5.54-.99-11.05.37-16.56.79l1-1.16c2.39-.61 4.84-.91 7.27-1.29-.88-1.07-2.49-1.77-2.61-3.3v-.64l1.01.54c.71.96 1.69 1.78 2.94 1.86-.08-1.22-.76-2.27-1.54-3.16l-.92-2.39 1.05.78c1.06.84 1.5 2.22 2.1 3.4.2.53.6 1.61.8 2.15.2-.71.6-2.11.8-2.81l1.92 1.88c-.19-1.52-.38-3.04-.62-4.55-.33-2.05-.58-4.11-.63-6.18zM103.22 59.73c.9-.71 1.94-1.55 3.17-1.25.08 1.48-.7 2.05-2.34 1.72l-.83-.47z"/>
    </g>
    <path fill="#731b1e" opacity=".86" d="M46.17 38.68l.44-.15c1.15.13 2.25 1.11 2.39 2.29v.64l-.51.28c-1.26-.2-2.3-1.42-2.51-2.64l.19-.42z"/>
    <path fill="#350c0d" opacity=".57" d="M56.54 38.52c.24 1.51.43 3.03.62 4.55l-1.92-1.88c-.2.7-.6 2.1-.8 2.81-.2-.54-.6-1.62-.8-2.15l.03-1.81c.65.22 1.94.65 2.59.87l.28-2.39z"/>
    <path fill="#090202" opacity=".4" d="M51.41 40.06c.78.89 1.46 1.94 1.54 3.16-1.25-.08-2.23-.9-2.94-1.86.35-.33 1.05-.98 1.4-1.3z"/>
    <path fill="#1a0606" opacity=".4" d="M63.49 43.72c.88-.77 1.74-1.55 2.59-2.34 1.32.83 2.77 1.24 4.35 1.24-1.32.2-2.63.41-3.94.63l-.26 1.2c-.21 1.08-.3 2.19-.43 3.29.45.41 1.34 1.22 1.79 1.62l.32 2.38c1.76.3 3.51.67 5.21 1.23-5.71-1.46-11.31 1.74-13.7 6.95-1.01 3.51-2.29 6.94-3.79 10.27-.47 1.65-.64 3.36-.65 5.08.72 2.68 1.53 5.35 2.74 7.86-.34.19-1.01.55-1.35.73-.41-1.71-.96-3.37-1.51-5.04-1.29.32-2.58.64-3.87.97.04 4.1-.04 8.2-.02 12.3-1.32-4.02-.03-8.34-.38-12.49-.66-.13-1.99-.38-2.66-.5 2.03-.25 4.02-.65 6.02-1.05-.39-2.66-.71-5.37-.32-8.06 1.6-3.4 3.23-6.8 4.65-10.28-.59-.56-1.19-1.1-1.8-1.62l1.61 1.01c2.1-3.5 4.97-6.81 9.18-7.62-2.65-1.55-5.39-2.92-8.2-4.14.45-.16 1.36-.5 1.82-.66 2 .71 3.85 1.75 5.75 2.66-1.24-1.36-2.49-2.7-3.74-4.05.83-.36 2.48-1.08 3.3-1.44l-2.71-.13z"/>
    <g fill="#c6282c">
        <path d="M70.43 42.62c1.69-.29 3.4-.53 5.12-.66l-1.14.64c-2.58 1.09-5.47 1.23-8.18 1.85l.26-1.2c1.31-.22 2.62-.43 3.94-.63zM59.9 46.42c.25.06.74.19.99.26-.46.16-1.37.5-1.82.66 2.81 1.22 5.55 2.59 8.2 4.14-4.21.81-7.08 4.12-9.18 7.62l-1.61-1.01c-1.17-.77-2.38-1.44-3.62-2.09-1.16 2-2.64 3.89-3.29 6.14-.32 2.25-.05 4.54.06 6.8-3.11.71-6.24 1.34-9.39 1.88l-.87-4.1-3.24-1c.09-3.49.5-7.19 2.78-9.99 1.39-1.58 2.78-3.16 4.25-4.66 3.9-4.9 10.47-3.42 15.86-3.97l.88-.68z"/>
    </g>
    <path fill="#66181c" opacity=".76" d="M34.95 47.23c3.15-.27 6.25-.9 9.39-1.18l-1 1.16c-1.02 1.19-2.89.76-4.29 1-1.38-.28-2.75-.61-4.1-.98z"/>
    <path fill="#0d0405" opacity=".35" d="M29.68 48.44c1.73-.51 3.49-.92 5.27-1.21 1.35.37 2.72.7 4.1.98-3.08.49-6.36 1.58-9.37.23z"/>
    <g fill="#631418">
        <path d="M23.38 52.64c-.98-2.18 1.97-3.14 3.46-3.89-.72 1.06-1.44 2.12-2.15 3.19 1.81 1.14 3.63 2.47 4.13 4.71-2.51 0-4.1-2.2-5.44-4.01zM52.5 75.18c.3-1.74.59-3.5 1.13-5.19-.39 2.69-.07 5.4.32 8.06-2 .4-3.99.8-6.02 1.05-2.39-.09-4.52-1.33-6.59-2.41l.96-.32c3.28-1.11 6.75-1.66 10.2-1.19zM24.25 90.17c.74-.72 1.49-1.44 2.24-2.15-.28 3.09-1.07 6.14-1 9.3-.67-2.33-1.1-4.73-1.24-7.15z"/>
    </g>
    <path fill="#200708" opacity=".51" d="M34.71 56.59c1.99-3 5.59-3.7 8.45-5.52-1.47 1.5-2.86 3.08-4.25 4.66-.65.71-1.44 1.01-2.37.91l-.96-.02-.87-.03z"/>
    <path fill="#b22426" d="M59.42 59.92c2.39-5.21 7.99-8.41 13.7-6.95 2.71 1.48 5.01 3.59 6.98 5.96-2.44 3.92-1.67 9.52.83 13.29v.01c-.27 1.66-.52 3.32-.79 4.98-2.26-1.3-3.42-4.1-6.02-4.78.36-.32 1.09-.94 1.45-1.25-.13-.41-.41-1.24-.55-1.65-1.77 1.16-3.67 2.11-5.66 2.83-.98 1.32-1.93 2.66-2.88 4-1.12-.06-2.24-.13-3.36-.19.59 2.02.93 4.1 1.05 6.2l-2.37-.03c-.53 1.76-1.08 3.52-1.64 5.27-.34-.6-1-1.81-1.34-2.41l.04-.11c1.08-2.55 1.61-5.3 1.37-8.07.67-.78 1.34-1.55 2.02-2.33v-3.02c1.13-.32 2.27-.65 3.4-.98-.25-.31-.74-.93-.99-1.24.21-.34.62-1.01.83-1.34l-1.11-3.78 3.96-.99c-2.1-2.77-5.86-2.63-8.92-3.42z"/>
    <path fill="#020101" opacity=".2" d="M104.77 56.72c.62-1.41.39-3.5 2.24-3.97-.08.3-.24.92-.32 1.23-.51 1.47-.61 2.97-.3 4.5-1.23-.3-2.27.54-3.17 1.25-.57.06-1.71.18-2.28.25 1.28-1.08 2.73-1.99 3.83-3.26z"/>
    <path fill="#320c0d" opacity=".55" d="M106.39 58.48c-.31-1.53-.21-3.03.3-4.5l.48 3.91c.4-.15 1.19-.44 1.59-.58 1.1.39 2.2.78 3.3 1.18-.7.3-2.12.92-2.82 1.22.45.57 1.34 1.72 1.79 2.29l-3.63-1.35c-.18 1.95-.39 3.89-.68 5.83-.8-2.13-1.57-4.28-2.67-6.28 1.64.33 2.42-.24 2.34-1.72m.94.9c.3.29.3.29 0 0m-1.2 1.52c-1.51 3.16 3.16.27 0 0z"/>
    <path fill="#9c2023" d="M49.57 62.14c.65-2.25 2.13-4.14 3.29-6.14 1.24.65 2.45 1.32 3.62 2.09.61.52 1.21 1.06 1.8 1.62-1.42 3.48-3.05 6.88-4.65 10.28-.54 1.69-.83 3.45-1.13 5.19-3.45-.47-6.92.08-10.2 1.19l-.98.28c-2.8-3.04-4.68-6.81-5.19-10.93l3.24 1 .87 4.1c3.15-.54 6.28-1.17 9.39-1.88-.11-2.26-.38-4.55-.06-6.8z"/>
    <g fill="#731819">
        <path d="M90.92 61.78c1.78-2.05 3.78-3.91 5.92-5.58-.08 1.56.15 3.24-.65 4.67-.31.35-.93 1.05-1.24 1.41-1.34-.16-2.69-.32-4.03-.5zM34.15 73.91c.04-1.68 1.12-3.1 1.72-4.62 1.86 4.55 4.67 9.17 9.73 10.56-1.01 1.93-2.04 3.84-3.29 5.63-1.32-1.55-2.3-3.33-3.03-5.21-1.04-2.61-4.07-3.8-5.13-6.36z"/>
    </g>
    <g fill="#971f23">
        <path d="M24.05 60.03c1.73-3.86 6.82-3.6 10.18-2.36-1.05 1.67-2.57 2.12-4.56 1.37.35 1.47 1.11 3.15-.08 4.47-2.2 1.89-7.16-.35-5.54-3.48m1.46 1.33c.21 1.59 2.11.7 3.18.85l-.08-3.52c-1.12.78-2.48 1.37-3.1 2.67zM55.63 70.19c1.5-3.33 2.78-6.76 3.79-10.27 3.06.79 6.82.65 8.92 3.42l-3.96.99 1.11 3.78c-.21.33-.62 1-.83 1.34.25.31.74.93.99 1.24-1.13.33-2.27.66-3.4.98v3.02c-.68.78-1.35 1.55-2.02 2.33.24 2.77-.29 5.52-1.37 8.07-.29-.49-.86-1.47-1.14-1.96-1.21-2.51-2.02-5.18-2.74-7.86.75-.54 1.49-1.07 2.24-1.6l1.77 1.17 2.22-2.01c-1.99-.58-3.85-1.51-5.58-2.64z"/>
    </g>
    <path fill="#300a0c" opacity=".64" d="M79.48 61.21c1.49-1.62 3.68-1.94 5.77-1.97l-.86.22c-.5.12-1.52.37-2.02.49 1.39 1.27 2.72 2.61 3.98 4.02.66-.11 1.99-.34 2.65-.45V65h-2.93c-.13 2.53.32 5.57-1.99 7.31.36-3.4 1.33-6.97-.22-10.22-1.46-.28-2.92-.58-4.38-.88z"/>
    <path fill="#de3031" d="M107.33 59.38c.3.29.3.29 0 0z"/>
    <g fill="#aa2124">
        <path d="M82.37 59.95c.5-.12 1.52-.37 2.02-.49.39.41 1.15 1.23 1.54 1.64.3.35.92 1.05 1.23 1.4 2.73-.38 5.39.27 7.94 1.23 1.2.48 2.29 1.2 3.37 1.9.26 1.65.47 3.3.72 4.96 3.16.09 6.32.6 9.24 1.88-1.74.74-4.32 3.16-2.02 4.78l.65.91c-3.92 1.99-8.25.08-12.26.94-2.89 1.08-5.91 1.93-9.03 1.6-2.36-.34-4.72-.75-7.07-1.12 1.36-.72 2.72-1.45 4.08-2.16-.21-1.09-.42-2.17-.67-3.25.68-.6 1.33-1.22 1.97-1.86 2.31-1.74 1.86-4.78 1.99-7.31H89v-1.48c-.66.11-1.99.34-2.65.45-1.26-1.41-2.59-2.75-3.98-4.02m10.03 8.39c-.68 1.21-1.37 2.42-2.08 3.61 1.77-.11 3.92.32 4.9-1.55-.94-.69-1.86-1.41-2.82-2.06zM24.63 76.87c.83 2.77 1.1 5.66 1.4 8.53-.21 1.26 1.08 1.92 2.15 1.72.95.07 2.85.2 3.8.27l-1.34.38c-1.36.35-2.74.43-4.15.25-.75.71-1.5 1.43-2.24 2.15-.46-.88-1.12-1.08-2.01-.62l-.91-.28c-.61-.11-1.83-.32-2.43-.42-.28-.16-.83-.46-1.1-.61 1.47-.36 3.13-.51 4.12-1.82.67.15 1.34.3 2.02.45.05-1.67.11-3.33.19-4.99.1-1.68.28-3.35.5-5.01z"/>
    </g>
    <path fill="#170506" opacity=".45" d="M85.43 60.51c1.73.83 3.6 1.15 5.49 1.27 1.34.18 2.69.34 4.03.5.31-.36.93-1.06 1.24-1.41.09 1.17-.27 2.13-1.09 2.86-2.55-.96-5.21-1.61-7.94-1.23-.31-.35-.93-1.05-1.23-1.4l-.5-.59z"/>
    <path fill="#ce2c31" d="M106.13 60.9c3.16.27-1.51 3.16 0 0z"/>
    <path fill="#86191b" d="M79.48 61.21c1.46.3 2.92.6 4.38.88 1.55 3.25.58 6.82.22 10.22-.5.15-1.49.45-1.98.6-2.68-3.36-2.58-7.63-2.62-11.7z"/>
    <g fill="#470d10">
        <path d="M98.47 65.63c1.08 4.8 6.24 5.59 10.39 5.31 1.71-.36 1.5 1.69.85 2.66-.66 1.64-1.69 3.09-2.65 4.56l-.65-.91c1-1.41 2.11-2.96 2.02-4.78-2.92-1.28-6.08-1.79-9.24-1.88-.25-1.66-.46-3.31-.72-4.96zM23.63 86.17c.15-1.44.32-2.87.5-4.29-.08 1.66-.14 3.32-.19 4.99-.68-.15-1.35-.3-2.02-.45-1.68-.08-2.8-1.37-4.04-2.29 1.93.65 3.83 1.37 5.75 2.04zM26.03 85.4c.51-.99 1.28-1.36 2.31-1.1.33.85.37 2.03-.16 2.82-1.07.2-2.36-.46-2.15-1.72zM40.88 96.17c1.67.8 2.76 2.29 3.68 3.86-3.64 1-7.77.01-10.08-3.1 2.26.65 4.58 1.08 6.93 1.33l-.31-1.28-.22-.81zM67.27 103.25c1.25-2.23 2.86-4.27 5.37-5.1 1.19 1.14 2.38 2.27 3.59 3.38-1.99 3.04-5.94 2.32-8.96 1.72z"/>
    </g>
    <path fill="#a22024" d="M69.36 72.36c1.99-.72 3.89-1.67 5.66-2.83.14.41.42 1.24.55 1.65-.36.31-1.09.93-1.45 1.25 2.6.68 3.76 3.48 6.02 4.78.27-1.66.52-3.32.79-4.98.3.49.89 1.45 1.18 1.94.25 1.08.46 2.16.67 3.25-1.36.71-2.72 1.44-4.08 2.16 2.35.37 4.71.78 7.07 1.12-.27.46-.8 1.39-1.07 1.85-3.32-.8-6.78-2.13-10.2-1.06.01-1.99-.36-3.94-1.05-5.79-.06 1.81-.06 3.63.06 5.45l-.48-.45c-1.8-2.18-3.89-.52-5.6.72-.34-.75-.68-1.5-1.02-2.24-1.09 2.61-2.24 5.2-3.44 7.77.98.42 1.96.85 2.94 1.28l.62.27c1.68 2.35 3.44 4.65 5.21 6.93-1.45 1.57-2.99 3.05-4.62 4.42-.28-.56-.83-1.7-1.11-2.27-1.62-3.51-4.15-6.5-5.85-9.97.56-1.75 1.11-3.51 1.64-5.27l2.37.03c-.12-2.1-.46-4.18-1.05-6.2 1.12.06 2.24.13 3.36.19.95-1.34 1.9-2.68 2.88-4z"/>
    <path fill="#ad2325" opacity=".98" d="M54.98 75.27c.01-1.72.18-3.43.65-5.08 1.73 1.13 3.59 2.06 5.58 2.64l-2.22 2.01-1.77-1.17c-.75.53-1.49 1.06-2.24 1.6z"/>
    <path fill="#4f0d13" d="M50.99 79.79c1.29-.33 2.58-.65 3.87-.97.55 1.67 1.1 3.33 1.51 5.04-.28 2.12-.77 4.2-1.21 6.3 1.55 1.59 3.07 3.21 4.53 4.89-2.26.07-4.52.12-6.79.2-.66-1.04-1.34-2.08-1.93-3.16-.02-4.1.06-8.2.02-12.3z"/>
    <path fill="#861b1e" d="M66.41 79.18c.34.74.68 1.49 1.02 2.24 1.71-1.24 3.8-2.9 5.6-.72-2.17 2.92-7.49 2.92-7.12 7.53-.98-.43-1.96-.86-2.94-1.28 1.2-2.57 2.35-5.16 3.44-7.77z"/>
    <path fill="#731518" d="M85.77 80.7c3.12.33 6.14-.52 9.03-1.6.58.26 1.75.79 2.33 1.05 1.28 1.43 3.23.88 4.71.14 1.13-.26 3.39-.77 4.52-1.03-1.48 3.5-5.61 2.96-8.27 4.92-7.65 4.95-18.04 5.61-25.97.89.81-1.19 1.61-2.37 2.38-3.58 3.42-1.07 6.88.26 10.2 1.06.27-.46.8-1.39 1.07-1.85z"/>
    <path fill="#9b1e21" d="M97.13 80.15c1.24-1.1 3.47-.84 4.71.14-1.48.74-3.43 1.29-4.71-.14z"/>
    <path fill="#971d29" d="M35.52 82.21c1.49 1.56 3.06 3.05 4.57 4.6-1.74 2.93-.76 6.56.79 9.36l.22.81c-1.29.02-2.59.04-3.88.07-3.62-2.94-2.43-7.9-3.91-11.84.55-.75 1.65-2.25 2.21-3z"/>
    <path fill="#2a090a" opacity=".54" d="M33.19 84.73l.12.48c1.48 3.94.29 8.9 3.91 11.84 1.29-.03 2.59-.05 3.88-.07l.31 1.28c-2.35-.25-4.67-.68-6.93-1.33l-.11-.03c-.17-3.16-.46-6.31-.7-9.47-.76.09-2.27.25-3.03.34l1.34-.38c.26-.08.77-.23 1.03-.3.05-.59.14-1.77.18-2.36z"/>
    <path fill="#080202" opacity=".36" d="M16.53 89.85c-.44-1.2-.02-1.74 1.27-1.61.27.15.82.45 1.1.61-.35 1.38-1.13 1.71-2.37 1z"/>
    <path fill="#050101" opacity=".31" d="M21.33 89.27l.91.28c.03 1.28-1.48 2.84-2.78 2.21-.41-1.1.78-2.4 1.87-2.49z"/>
    <path fill="#360b0e" opacity=".69" d="M71.74 95.43c.3.91.6 1.81.9 2.72-2.51.83-4.12 2.87-5.37 5.1-.68-1.83-1.3-3.69-1.26-5.67.28.57.83 1.71 1.11 2.27 1.63-1.37 3.17-2.85 4.62-4.42z"/>
</svg>
