<svg width="128pt" height="128pt" viewBox="0 0 128 128" xmlns="http://www.w3.org/2000/svg">
    <g fill="#fff">
        <path d="M57.12 42.72c-1-7.24-1.76-14.5-2.84-21.73 1.66 6.87 3.05 13.84 3.91 20.85-.06.23-.19.67-.26.9.34-.13 1.01-.39 1.34-.52 1.17.61 2.17 2.18 3.74 1.21l.2 1.4c.25-.89.48-1.79.69-2.69 2.68-2.86 6.17-5.11 8.63-8.29-.73 1.09-.89 2.36-.89 3.64l-.27-1.54c-2.36 2.77-5.33 4.97-7.55 7.87 7.44-1.21 14.83-2.83 22.34-3.57-7.73 1.64-15.47 3.23-23.19 4.9 1.54 1.58 2.98 3.26 4.43 4.93-3.73-2.29-7.89-4.32-12.38-4.12-6.72-.12-13.35 2.72-20.05 1.57 6.91-.83 13.8-2.01 20.38-4.23-.3-.79-.91-2.36-1.21-3.15.74.64 2.23 1.93 2.98 2.57z"/>
        <path d="M47.32 31.27c2.65 3.57 4.32 7.86 7.02 11.44-2.58.12-2.81-3.43-4.04-5.08-.87-2.18-2.57-4.03-2.98-6.36zM65.97 32.36c.19.18.59.55.78.73-1.09 2.81-2.49 5.48-4.09 8.03l-.55.25-.73.33c1.48-3.14 3.78-5.9 4.59-9.34zM41.01 33.9c3.05 2.72 6.32 5.18 9.38 7.88 1.45.78.51 2.26-.5 2.88l.5-1.14c-2.93-3.4-7.33-5.53-9.38-9.62zM105.64 58.68c.45-1.65.69-3.35 1.08-5.02l.2 4.97c.56-.66 1.11-1.32 1.66-1.99l-1.38 2.39c1.56-.35 3.14-.68 4.72-.99-1.24.58-2.46 1.15-3.67 1.77l1.63 1.37c-.97-.42-1.93-.84-2.88-1.29.06 2.11-.04 4.22-.45 6.3-.26-1.53-.45-3.07-.56-4.61l-1.64.08c.26-.32.78-.98 1.04-1.3-1.16-.35-2.31-.68-3.48-.99 1.25-.18 2.5-.41 3.73-.69zM24.47 76.85c.7 2.95 1.25 5.93 1.55 8.95.8-.65 1.56-1.42 2.61-1.63-.57.84-1.15 1.68-1.74 2.52 1.8.23 3.6.48 5.4.78-2.13.52-4.33.63-6.52.66l1.68 2.25-2.16-1.12c.18 2.64.4 5.29.36 7.94-.72-2.78-1.21-5.62-1.72-8.44-1.28 1.04-2.56 2.28-4.44 1.85 1.06-.54 2.07-1.14 3.05-1.8-2.2.07-4.39.27-6.55.67 2.03-.86 4.1-1.62 6.14-2.43-1.37-.96-2.75-1.91-4.12-2.87 1.94.8 3.87 1.63 5.8 2.45.25-3.26.57-6.51.66-9.78z"/>
    </g>
    <path fill="#8c8c8c" opacity=".55" d="M58.19 41.84c.93-.75 1.88-1.46 2.86-2.14l-.34 2.37c.35-.17 1.05-.52 1.4-.7l.55-.25c.31.26.93.77 1.24 1.02-.21.9-.44 1.8-.69 2.69l-.2-1.4c-1.57.97-2.57-.6-3.74-1.21-.33.13-1 .39-1.34.52.07-.23.2-.67.26-.9z"/>
    <path fill="#3a3a3a" opacity=".23" d="M30.45 48.73c.54-1.34 3.16-1.21 4.3-.51-.39 1.53-3.18 1.2-4.3.51z"/>
</svg>
