<svg width="128pt" height="128pt" viewBox="0 0 128 128" xmlns="http://www.w3.org/2000/svg">
    <g fill="#fff">
        <path d="M58.13 48.31c6.28-4.26 11.58-9.87 17.65-14.45.65 5.14-2.49 9.4-3.26 14.3-.25 2.09-1.76 3.66-2.71 5.46l3.02-.24c.17 3.85 1.61 7.55 1.24 11.44-4.09.1-8.26 0-12.21 1.25.86-1.96 2.07-4.03 1.24-6.22-1.83-.04-3.53.37-5.12 1.23 1.25-1.88 2.17-3.97 2.18-6.26-1.6.1-3.12.56-4.5 1.37 1.05-2.42 4.81-5.21 2.47-7.88zM68.96 75.12c1.22-.45 2.44-.91 3.67-1.35.37 1.82.82 3.63 1.33 5.42-1.47-1.4-3.08-2.65-4.93-3.49l-.07-.58zM54.07 77.19c4.49-.81 9.09-1.69 13.65-1.01 3.03 1.21 5.3 3.67 7.24 6.2-2.47 3.96-4.34 8.25-6.88 12.16 2.27 2.31 4.38 4.85 7.34 6.33.86.47 1.64 1.08 2.29 1.81-2.11-.4-3.75-2.1-5.98-2.17-8.37-.24-16.4 2.74-24.69 3.23-4.28.39-8.19-1.75-11.5-4.21 4.32 1.64 9.39-2.39 8.46-7.05 2.78-2.7 4.13-6.39 5.11-10.06 5.41-.75 10.86-1.23 16.24-2.13-11.75.41-24.29 1.63-34.32 8.37 5.82-6.62 14.67-9.6 23.04-11.47z"/>
        <path d="M72.01 90.23c.94-1.75 1.89-3.49 2.89-5.2.03 2.17.09 4.34.1 6.52-.75-.33-2.24-.99-2.99-1.32zM33.48 91.74c1.63-1.16 3.16-2.44 4.68-3.74-.35.86-.7 1.72-1.06 2.58.99 2.08 3.16 5.22.37 6.89-2.52 1.78-2.89-2.39-3.76-3.94l-.07 1.32-1.38-.23c.38 1.74.99 3.42 2.06 4.86-2.06-1.27-3.92-3.17-4.79-5.45.32-2.1 2.4-3.05 3.85-4.3.02.5.07 1.51.1 2.01z"/>
    </g>
</svg>
