<svg width="128pt" height="128pt" viewBox="0 0 128 128" xmlns="http://www.w3.org/2000/svg">
    <path fill="#410b0d" d="M76.57 21.47c3.56-3.24 8.32-5.11 13.01-6.05C85 23.24 79.25 30.48 72.09 36.09c-2.6 2.06-4.91 4.46-7.6 6.4.94-3.05 6.39-7.12 3.17-10.6 3.75-2.73 6.85-6.25 8.91-10.42z"/>
    <path fill="#5d1413" d="M53.87 36.9c7.05-6.31 14.34-12.53 22.59-17.21-1.65 5.18-5.58 9.11-9.76 12.38.76 1.08 1.14 2.36 1.46 3.63l-.37-.01c-4.67-.33-9.4-.07-13.92 1.21z"/>
    <path fill="#6e1516" d="M53.87 36.9c4.52-1.28 9.25-1.54 13.92-1.21-2.59 6.98-8.94 11.2-13.86 16.36.96-.65 2.9-1.94 3.87-2.59-.38 1.8-.83 3.57-1.35 5.34-.46.11-1.37.33-1.82.44l1.21 1.74c1.33 1.89 1.62 3.84-.3 5.48 2.44-.55 5.32-2.04 7.48.01-4.31 5.9-12.3 5.05-18.34 7.96-.29-3.01-1.05-5.95-2.32-8.69-.44-1.3-1.44-2.73-.72-4.11 1.26-2.98 2.85-5.8 4.13-8.77l-1.9-2.29c3.27-3.28 6.39-6.75 10-9.67z"/>
    <path fill="#c6272c" d="M64.77 42.77c4.05-2.51 7.09-6.29 11.1-8.87-.12 2.88-.21 5.85-1.59 8.46-1.68 3.22-1.13 7.3-3.76 10.05-2.29 2.75-5.03 5.06-7.61 7.53-1.28.03-2.57.07-3.85.11.45-1.78.88-3.55 1.25-5.35-.8.16-2.39.46-3.18.61l-.78.2c.86-2.25 3.28-4.54 2.04-7.11 2.27-1.7 4.34-3.65 6.38-5.63z"/>
    <path fill="#5a1018" d="M40.79 50.39c.89-1.38 1.97-2.61 3.08-3.82l1.9 2.29c-1.28 2.97-2.87 5.79-4.13 8.77-.72 1.38.28 2.81.72 4.11 1.27 2.74 2.03 5.68 2.32 8.69l-.42.31c-2.44-2.25-4.91-4.47-7.42-6.65-.01-4.37-.45-8.88 1.16-13.05l1.76.84c.26-.37.77-1.12 1.03-1.49z"/>
    <path fill="#170609" opacity=".56" d="M38 51.04c-.72-1.75 2.59-2.48 2.79-.65-.26.37-.77 1.12-1.03 1.49L38 51.04z"/>
    <path fill="#a41f24" d="M62.91 59.94c2.58-2.47 5.32-4.78 7.61-7.53l-.23 1.06c.67-.06 2.03-.19 2.7-.26.04 2.18.42 4.32.9 6.44.03.53.08 1.59.11 2.12-1.56.26-3.12.52-4.67.78.17.78.35 1.55.53 2.32-2.65.08-5.27.45-7.88.88l1.86-3.87c-.24-.49-.7-1.46-.93-1.94z"/>
    <path fill="#190605" opacity=".5" d="M57.13 55.31c.79-.15 2.38-.45 3.18-.61-.37 1.8-.8 3.57-1.25 5.35 1.28-.04 2.57-.08 3.85-.11.23.48.69 1.45.93 1.94l-1.86 3.87c2.61-.43 5.23-.8 7.88-.88 1.4-.04 2.79-.06 4.19-.08-.01-.75-.04-2.26-.05-3.02-.03-.53-.08-1.59-.11-2.12.65 1.82.68 3.76.68 5.67 7.59.43 15.2.65 22.72 1.86-3.46-.2-6.93-.24-10.38-.58-9.35-.86-18.93-1.22-28.14.98-5.63 1.21-11.09 3.1-16.61 4.75.53-.4 1.58-1.2 2.1-1.59l.42-.31c6.04-2.91 14.03-2.06 18.34-7.96-2.16-2.05-5.04-.56-7.48-.01 1.92-1.64 1.63-3.59.3-5.48.32-.41.96-1.25 1.29-1.67m.7 1.06c-1.08 2.02 2.83 1.56.93-.04l-.93.04z"/>
    <path fill="#912021" d="M57.83 56.37l.93-.04c1.9 1.6-2.01 2.06-.93.04z"/>
    <path fill="#5f1315" opacity=".97" d="M69.33 62.55c1.55-.26 3.11-.52 4.67-.78.01.76.04 2.27.05 3.02-1.4.02-2.79.04-4.19.08-.18-.77-.36-1.54-.53-2.32z"/>
    <path fill="#6b1416" d="M58.77 67.58c9.21-2.2 18.79-1.84 28.14-.98-.13 1.01-.26 2.02-.38 3.02-2.98.35-5.95.86-8.77 1.87-3.64 1.14-7.28 2.29-10.89 3.51-2.69.58-5.48.18-8.21.41-9.01.85-18.12 3.8-25.27 9.47-1.38 1.04-2.34 2.52-3.17 4.01l-.69 1.27c-1.97.34-3.98.24-5.61-1.03 3.37-7.84 9.86-14.51 18.24-16.8 5.52-1.65 10.98-3.54 16.61-4.75z"/>
    <g fill="#421010">
        <path d="M86.91 66.6c3.45.34 6.92.38 10.38.58 2.6.29 4.97 1.48 7.17 2.84-8.93-.99-17.93-.37-26.7 1.47 2.82-1.01 5.79-1.52 8.77-1.87.12-1 .25-2.01.38-3.02zM24.32 99.41c1.35-1.7 1.75-5.51 4.65-4.77 1.13 1.36 2.22 2.76 3.26 4.19-2.68-.97-5.41-.68-7.91.58z"/>
    </g>
    <path fill="#691717" d="M68.36 75.32c1.44-.56 2.88-1.11 4.34-1.62.45 1.89.9 3.78 1.37 5.67-1.85-1.44-3.74-2.8-5.71-4.05z"/>
    <path fill="#240809" opacity=".58" d="M33.39 84.88c7.15-5.67 16.26-8.62 25.27-9.47.49.2 1.48.59 1.98.79-3.72.61-7.45 1.24-11.1 2.2-4.43 1.19-8.57 3.19-12.54 5.45-1.21.33-2.42.66-3.61 1.03z"/>
    <path fill="#ce282c" d="M60.64 76.2c2.13-.24 4.3-.38 6.44-.16 3.29.77 5.55 3.55 7.7 5.95-.45 1.32-1.86 4.45-2.7 1.22l-.84-1.64c.75 2 2.06 4.04.77 6.13-1.45.45-2.85 1.05-4.27 1.59-2.58-1.23-6.01-1.95-6.84-5.12l-1.88-.48c.45-.82.89-1.66 1.31-2.49 1.78-.26 3.55-.54 5.32-.85-4.26-.33-8.51.2-12.73.77-1.13-.9-2.25-1.81-3.38-2.72 3.65-.96 7.38-1.59 11.1-2.2z"/>
    <path fill="#8b1e21" opacity=".96" d="M37 83.85c3.97-2.26 8.11-4.26 12.54-5.45 1.13.91 2.25 1.82 3.38 2.72-2.78.4-5.53.99-8.22 1.77-1.47.4-2.91.9-4.41 1.18-.82-.05-2.46-.16-3.29-.22z"/>
    <path fill="#330b0b" opacity=".62" d="M52.92 81.12c4.22-.57 8.47-1.1 12.73-.77-1.77.31-3.54.59-5.32.85-3.65.51-7.3.94-10.97 1.26-.41 1.43-.8 2.86-1.15 4.3-1.08 1.79-2.27 3.5-3.42 5.23l-.39.66c-.3 2.65-1.21 5.14-3.22 6.99l-1.31-1.47.51-.38c1.03-1.03 1.49-2.4 1.93-3.75.78-2.77 2.72-4.98 3.76-7.64.53-1.29 1-2.61 1.5-3.92-.72.1-2.15.31-2.87.41 2.69-.78 5.44-1.37 8.22-1.77z"/>
    <path fill="#b32426" d="M49.36 82.46c3.67-.32 7.32-.75 10.97-1.26-.42.83-.86 1.67-1.31 2.49-1.67 2.08-3.24 4.29-5.21 6.11-1.52.74-3.32.48-4.96.67-.05-1.26-.24-2.51-.64-3.71.35-1.44.74-2.87 1.15-4.3z"/>
    <path fill="#400e0e" opacity=".6" d="M74.78 81.99l.44-.99c-.27 1.38-.49 2.78-.77 4.16-.73 3.23-2.47 6.07-4.45 8.69 2.09 3.59 5.27 6.27 8.39 8.93-5.97-2.54-12.43-1.79-18.67-.98 4.85-1.05 9.81-1.96 14.78-1.06-1.94-1.58-3.84-3.2-5.53-5.05-.25-.29-.76-.89-1.02-1.19.34-.64.67-1.28.98-1.93-.4-1.09-.8-2.18-1.19-3.28 1.42-.54 2.82-1.14 4.27-1.59 1.29-2.09-.02-4.13-.77-6.13l.84 1.64c.84 3.23 2.25.1 2.7-1.22m-5.26 9.04c.35-.36 1.06-1.07 1.42-1.42-.64-1.97-3.31.67-1.42 1.42z"/>
    <path fill="#310b0e" opacity=".71" d="M33.39 84.88c1.19-.37 2.4-.7 3.61-1.03.83.06 2.47.17 3.29.22-3.33 1.66-6.58 3.5-10.07 4.82.83-1.49 1.79-2.97 3.17-4.01z"/>
    <path fill="#d62b2e" d="M59.02 83.69l1.88.48c.83 3.17 4.26 3.89 6.84 5.12.39 1.1.79 2.19 1.19 3.28-.31.65-.64 1.29-.98 1.93.26.3.77.9 1.02 1.19-.45 1.17-.93 2.34-1.42 3.49l-2.73-3.6c-1.45.88-2.93 1.7-4.45 2.46-1.85-2.29-5-2-7.58-2.68-2.91-.45-5.5-1.91-8-3.37 1.15-1.73 2.34-3.44 3.42-5.23.4 1.2.59 2.45.64 3.71 1.64-.19 3.44.07 4.96-.67 1.97-1.82 3.54-4.03 5.21-6.11z"/>
    <path fill="#6b1515" d="M70 93.85c1.98-2.62 3.72-5.46 4.45-8.69.71 2.02.68 4.17.73 6.28-.77-.06-2.3-.2-3.07-.26 8.74 3.63 17.29 7.76 25.72 12.06l-2.28 1.1c-3.17-1.79-6.35-3.57-9.76-4.87 3.61 3.16 8.19 4.85 12.09 7.61-2.1 2.89-5.28 4.66-8.9 4.35-3.46-2.97-7.17-5.64-10.59-8.65-3.12-2.66-6.3-5.34-8.39-8.93m11.27 3.28c-.4 1.28 1.71 2.25 2.71 1.66.44-1.29-1.7-2.29-2.71-1.66m4.04 2.12c.49.54.49.54 0 0z"/>
    <path fill="#621617" opacity=".97" d="M38.92 91.25c2.67-1.15 5.12-2.75 7.15-4.85-1.04 2.66-2.98 4.87-3.76 7.64-.44 1.35-.9 2.72-1.93 3.75l-.51.38-.56-.38-.2-1.48 1.17.27c-.28-1.82-.75-3.6-1.36-5.33z"/>
    <path fill="#2b0a0b" opacity=".56" d="M36.34 88.88c.54-.5 1.62-1.49 2.16-1.98-.24 1.5-.1 2.95.42 4.35.61 1.73 1.08 3.51 1.36 5.33l-1.17-.27c-.81-2.37-1.67-4.72-2.62-7.04l-.15-.39z"/>
    <path fill="#e43533" d="M69.52 91.03c-1.89-.75.78-3.39 1.42-1.42-.36.35-1.07 1.06-1.42 1.42z"/>
    <path fill="#581317" opacity=".71" d="M31.98 90.47c1-1.11 1.8-.91 2.41.57-.95.76-1.76.57-2.41-.57z"/>
    <path fill="#d63031" d="M34.39 91.04c.53-.44 1.58-1.33 2.1-1.77.95 2.32 1.81 4.67 2.62 7.04-1.03.29-2.06.56-3.09.8-1.27-.86-1.86-2.42-2.82-3.57-1.49 1.59-1.22 3.45.43 4.83l1.02 1.48c-2.44-1.34-3.93-3.72-5.49-5.92.91-1.18 1.84-2.34 2.82-3.46.65 1.14 1.46 1.33 2.41.57z"/>
    <path fill="#b52426" d="M44.4 92.65l.39-.66c2.5 1.46 5.09 2.92 8 3.37 2.58.68 5.73.39 7.58 2.68 1.52-.76 3-1.58 4.45-2.46l2.73 3.6c.49-1.15.97-2.32 1.42-3.49 1.69 1.85 3.59 3.47 5.53 5.05-4.97-.9-9.93.01-14.78 1.06-.99.19-1.97.37-2.96.54-2.16-3.75-7.1-1.66-9.93-4.4-.47-.35-1.4-1.06-1.86-1.41.01 1.73.01 3.46 0 5.2 2.09.58 4.18 1.18 6.29 1.67-5.1 1.17-10.34.05-14.71-2.76l.36-1.01 2.93.45c-.76-.48-1.54-.92-2.34-1.3.45-.25 1.36-.74 1.81-.99l.56.38 1.31 1.47c2.01-1.85 2.92-4.34 3.22-6.99z"/>
    <path fill="#551414" opacity=".76" d="M33.63 98.37c-1.65-1.38-1.92-3.24-.43-4.83.96 1.15 1.55 2.71 2.82 3.57 1.03-.24 2.06-.51 3.09-.8l.2 1.48c-.45.25-1.36.74-1.81.99l-1.48.91c-.6-.33-1.79-.99-2.39-1.32z"/>
    <path fill="#d62831" d="M44.97 96.53c.46.35 1.39 1.06 1.86 1.41 2.83 2.74 7.77.65 9.93 4.4-1.83.39-3.64.82-5.5 1.06-2.11-.49-4.2-1.09-6.29-1.67.01-1.74.01-3.47 0-5.2z"/>
    <path fill="#3b0f0e" opacity=".8" d="M81.27 97.13c1.01-.63 3.15.37 2.71 1.66-1 .59-3.11-.38-2.71-1.66z"/>
    <path fill="#150404" opacity=".57" d="M85.31 99.25c.49.54.49.54 0 0z"/>
    <path fill="#240907" opacity=".6" d="M85.79 99.47c3.41 1.3 6.59 3.08 9.76 4.87 1.35.65 2.04 2.02 2.94 3.14l-.61-.4c-3.9-2.76-8.48-4.45-12.09-7.61z"/>
</svg>
