<svg width="128pt" height="128pt" viewBox="0 0 128 128" xmlns="http://www.w3.org/2000/svg">
    <g fill="#fff">
        <path d="M77.14 15.85c10.96 4.59 21.96 9.1 33.02 13.41-2.36 6.09-5.36 11.91-7.53 18.07-10.53-3.87-21.22-7.29-31.94-10.61 2.09-6.98 4.18-13.96 6.45-20.87m3.13 9.32c-3.6.85-4.83 5.54-2.8 8.42 1.79 3.53 7.8 4.08 9.72.41 2.73-4.21-2.24-10.26-6.92-8.83m13.47 5.53c-2.98 2.42-1.83 6.78.43 9.27 2.01 1.12 4.28 1.27 6.53 1.06 1.6-1.62 3.77-3.53 3.12-6.1-.55-4.43-6.63-7.79-10.08-4.23zM68.39 26.84c.77-2.92 2.95-5.01 5.36-6.67-.96 3.64-2.26 7.18-3.17 10.83-.37-.23-1.09-.69-1.46-.92-.18-.81-.55-2.43-.73-3.24zM106.04 44.27c1.86-3.48 3.23-7.19 5.06-10.68 1.13 2.52 1.51 5.76-.33 8.07-1.28 1.32-3.12 1.83-4.73 2.61zM96.03 54.32c.55.26 1.66.78 2.21 1.04-.43 2.44-1.58 4.71-3.71 6.1l1.48 1.52c-.07 1.52-.1 3.05-.15 4.58-.82.56-1.65 1.12-2.48 1.68 2.92 1.41.89 4.28.53 6.54-.79.26-2.37.78-3.17 1.05l2.24 1.68c-.35-.01-1.07-.03-1.42-.03.4 2.5-.75 5.54-3.75 5.04.2.58.6 1.74.8 2.33l-.91-.44c.22 2.31-1.21 4.77-3.71 4.88.06 2.51-.89 4.82-2.41 6.77-.53-.12-1.57-.36-2.1-.47l-1.54 2.34 2.18-.72c-1.43 1.48-2.77 3.04-4.31 4.41-1.81-1.16-3.02-.27-2.67 1.78-1.69 1.41-4.18 3.78-6.17 1.49.47 3.06-2.82 3.89-5.03 4.69-.46-.4-1.39-1.19-1.86-1.59-.66.92-1.32 1.84-1.98 2.77-1.65-.07-3.31-.09-4.95.11l-1.28-1.68-1.87 1.87c-.77-.08-2.3-.24-3.07-.31-2.55.36-1.84-4.33-4.8-2.92-2.96.32-5.2-3.56-3.77-6.15-2.77 1.41-4.27-1.86-4.54-4.07.91 1 1.78 2.05 2.57 3.16l1.73-1.03c-.45-.94-.84-1.9-1.16-2.89.76.54 1.5 1.11 2.22 1.71-.11.78-.33 2.34-.44 3.13 2.77.23 5.3 2.48 5.44 5.32 1.64-.63 3.36-1.05 5.13-.84-1.08.39-2.17.74-3.28 1.05-.04.72-.13 2.15-.17 2.87 1.4.08 2.79.08 4.19.02-.15-.84-.44-2.5-.59-3.33l1.63.31-.28 1.97c.63-.44 1.89-1.3 2.52-1.73 1.45-.28 2.87-.69 4.27-1.14l-.85 1.47 2.88-.4c.61-1.01 1.44-1.82 2.48-2.41 1.47-.61 3.07-.88 4.65-.55-.68-2.05 1.38-2.7 2.64-3.45 4.67.05 4.83-7.33 9.98-5.71l-1.46-1.46c1.64-1.5 2.23-5.57 5.07-4.29l.43-1.7c-.47-.2-1.42-.61-1.89-.81.64-.04 1.93-.12 2.57-.17l-.87-1.13c.32-.56.96-1.69 1.28-2.25l1.23.37-.41-1.51L87 84.22c.18-1.54.26-3.08.24-4.62.77-1.49 1.99-2.59 3.59-3.14-1.63-2.54-.72-6.23 2.09-7.48-2.53-1.6-1.15-4.34-.85-6.66 2-.51 2.26-1.63.78-3.38.78-.03 2.34-.08 3.12-.1.52-1.49.39-3.02.06-4.52m-3.29 8.66c-.46 1.31-.67 2.68-.91 4.03.82.12 2.47.35 3.29.47.03-1.89.76-5.44-2.38-4.5m-1.83 8.04c-.11 1.61-.42 3.4 1.19 4.4 2.25-.27 1.94-2.86 2-4.48l-3.19.08m-1.55 7.3c-1.33.58-1.7 2.85-.17 3.41 2.08.54 2.29-4.07.17-3.41m-4.09 6.94c-1.55.55-1.4 2.75-.02 3.39 2 .26 2.27-3.95.02-3.39m-4.95 7.11c.05.6.14 1.79.19 2.39l1.63-.04c1.68-1.33-.55-5-1.82-2.35m-5.75 6.94c.22.36.65 1.09.86 1.46 1.64.72 3.29-2.5 1.37-3.2-.99.2-1.73.78-2.23 1.74m-3.95 3.24c-.54.27-1.62.82-2.16 1.09-.71 3.81 5.03.21 2.16-1.09m-32.16 2.7c.73 1 1.45 2.02 2.34 2.89.63-.39 1.88-1.17 2.51-1.56-.72-.93-1.44-1.86-2.29-2.68-.64.34-1.92 1.02-2.56 1.35m22.97 2.06c-.1 2.34 4.61 1.82 2.99-.68-1.1-.44-2.1-.22-2.99.68m-7.65 2.47c.45 1.48 2.64 1.32 3.84 1.01-.04-1.14-.63-1.92-1.77-2.33-.52.33-1.55.99-2.07 1.32zM53.98 56.93c.81.05 2.43.17 3.24.23-1.15 1.31-2.41 2.54-3.83 3.56.05-1.29.28-2.55.59-3.79z"/>
        <path d="M59.52 57.99c5.75 5.97 11.2 12.25 16.63 18.52-3.16 1.41-6.06 3.35-9.27 4.67-4.74-5.75-9.11-11.82-13.67-17.72 2.2-1.71 4.25-3.59 6.31-5.47m-1.74 8.26c1.31 1.5 3.05.2 4.42-.43-.24-1.53.13-3.64-1.63-4.37-2.78-2.08-5.75 3.23-2.79 4.8m5.06 4.91c-.47 2.88 1.79 6.6 5.01 5.44 3.39-.94 2.89-6.33-.38-7.06-1.77-.94-3.27.77-4.63 1.62zM21.09 72.37c1.97-.03 3.94-.12 5.91-.27v9.33c-2.15-1.43-4.21-3-6.26-4.56.13-1.5.25-3 .35-4.5zM68.77 81.53c2.01-.87 3.83-2.41 6.05-2.69 1.21 2.38-1.05 3.26-2.81 3.99-1.09-.43-2.16-.86-3.24-1.3zM30.36 84.09c.39-.33 1.17-.97 1.56-1.29l.12 2.15c1.84.44 3.71 1.15 5.45-.06-.31 1.95-2.03 2.46-3.69 2.89 2.35 1.63 2.1 4.39 2.19 6.9-.34.27-1.01.81-1.35 1.08.97.64 2.9 1.93 3.86 2.57l-2.05-1.28c-.94.49-2.81 1.48-3.75 1.97l2.05-3.09c-.65-.27-1.96-.83-2.62-1.1-.06-2.26-2.32-5.41.94-6.37-.02-1.27-.98-2.04-1.87-2.78-.21-.4-.63-1.2-.84-1.59m1.82 6.24c-.62 1.46.61 2.9.85 4.31.58-.28 1.75-.84 2.33-1.12-.09-.89-.29-2.66-.39-3.55-.51.05-1.54.14-2.05.18l-.74.18z"/>
    </g>
</svg>
