<svg width="128pt" height="128pt" viewBox="0 0 128 128" xmlns="http://www.w3.org/2000/svg">
    <g fill="#fff">
        <path d="M79.14 40.27c6-6.31 14.25-11.06 23.09-11.36-.85.79-1.71 1.57-2.59 2.33-6.18 1.61-12.94 3.52-17.37 8.4.12.41 2.63 2.16.88 2.3l-2.43-.96c.99 1.3 2.34 2.24 3.6 3.24.53-.64 1.07-1.27 1.61-1.91l1 .13 1.07-.36c1.78-.61 3.65-.85 5.46-1.37 2.96-.49-3.03.28-2.23-1.48 3.24-1.39 6.8-2.17 10.33-2.49-1.3 3.5-5.05 2.3-7.92 2.6 1.97.67 4.07.41 6.1.55-2.83 5.91-10.66 3.09-15.48 6.15 4.48.03 8.58-2.76 13.09-2.01-1.25 1.27-2.26 3.44-4.35 3.22-3.99.43-7.82-.63-11.75-.9.65.24 1.94.73 2.59.97-.98 1.89-3.81-.33-5.54.01.42-.59.83-1.18 1.24-1.78-.09-1.76-.07-3.54-.4-5.28m2.05 3.94c.61.65.61.65 0 0z"/>
        <path d="M88.18 36.23c4.66-2.48 9.71-4.04 14.75-5.52-.45 3.47-4.22 3.05-6.69 3.64l.03.62c-2.49-.06-4.58 1.32-6.76 2.3v.46c.31 1.04-.19 1.69-1.49 1.93-.56-1.1-1.53-2.78.16-3.43z"/>
        <path d="M92.35 37.35c.32.32.32.32 0 0zM85.23 38.3c1.07-.28 1.81 1.15 1.45 2.04-.11.36-.34 1.08-.46 1.43-1.76-.01-2.43-2.53-.99-3.47zM88.27 40.12c2.98-1.42.2 2.95 0 0zM77.34 47.81c2.8.77 5.75 1.15 8.54.17 2.97-.4 6.01-.07 9.01-.11-1.25 1.52-2.5 3.92-4.86 3.53-4.52-.13-9.04-.33-13.56-.27.91-.35 2.73-1.07 3.64-1.42l-2.77-1.9zM28.63 51.47c7.45-1.03 15.06.24 22.44-1.5l.14 1.03h-1.19L50 52.1l-3.17-1.38 2.73 2.39c-6.97-.69-13.97-.97-20.93-1.64zM76.2 52.86c1.12-1.66 3.11-1.04 4.74-1.13 3.72.13 7.45.01 11.17.03-1.18 2.54-3.96 2.58-6.35 2.84.91.07 2.75.19 3.66.25-2.69 1.94-5.07 4.25-7.53 6.46l.52.95c-.54-.11-1.61-.32-2.15-.43.05-.43.13-1.31.18-1.74-.92.34-1.72.9-2.5 1.46l-3.16.52c.57.21 1.73.61 2.31.82l.7.78-2.13 1.56c1.93-.81 3.49-2.3 5.52-2.91-1.4 1.91-3.34 3.31-5.28 4.62-2.82-1.98-5.26-4.41-7.93-6.57 1.88-.06 4.07.16 4.3-2.34.69.34 2.09 1.02 2.78 1.36-.93-.9-1.89-1.78-2.66-2.84 3.06.01 6.34.59 9.02 2.16 1.82.63.55-2.07 2.2-2.45-1.58.15-3.1.75-4.7.75-2.13-.17.91-2.71 1.57-2.13-2.34.48-4.7.88-7.05 1.3 2.59-4.53 7.92-1.63 11.99-2.66-3.06-.36-6.15-.33-9.22-.66m.13 6.22c.06 3.38 2.85-1.5 0 0m-3.12 2.27l-.49.68c.76 2.29 3.05-1.54.49-.68z"/>
        <path d="M77.09 62.89c.46-.45.46-.45 0 0zM57.92 83.47c-1.33-6.35 5.83-8.7 9.61-12.02-.52 2.22-2.24 3.76-3.76 5.32-2.12 2.09-3.59 4.74-5.85 6.7zM64.38 81c.51-.42 1.54-1.27 2.05-1.7-.96 4.63-3.93 8.39-5.7 12.68-.36 1.4-1.87 1.74-2.94 2.4.36-5.16 3.46-9.48 6.59-13.38zM63.2 88.35c.91-1.54 1.75-3.14 2.65-4.69l.52 3.74c.52 2.63 1.22 5.22 1.97 7.79l-1.58-.64-.65-.26c-.14.76-.41 2.28-.55 3.04-1.03-.86-1.43-1.94-1.22-3.23-1.24 1.53-2.77 2.66-4.6 3.42.92-3.15 2.14-6.18 3.46-9.17m.95 5.41c1.59-.61 1.77-3.74 1.64-5.32-1.37.63-2.11 3.8-1.64 5.32z"/>
    </g>
    <path fill="#fcfcfc" d="M96.27 34.97c2.22-.56 4.47-.97 6.73-1.3-1.34 3.3-5.82 3.18-8.85 3.18.3-.97 1-1.6 2.12-1.88z"/>
    <path fill="#fafafa" opacity=".98" d="M59.19 83.34c2.31-3.43 5.08-6.51 8.3-9.12-.48 2.42-1.67 4.64-3.42 6.38l.31.4c-3.33 1.6-3.67 6.79-7.59 7.34.77-1.68 1.58-3.34 2.4-5z"/>
    <path fill="#848484" opacity=".52" d="M66.37 87.4c.45-.07 1.36-.21 1.81-.29l-.24 1.8c.22.47.66 1.42.88 1.89.28 2.25-.22 4.49-1.45 6.39-.15-.66-.46-1.98-.61-2.64l1.58.64c-.75-2.57-1.45-5.16-1.97-7.79z"/>
    <path fill="#a7a7a7" opacity=".65" d="M67.94 88.91l.89.14c-.01.44-.01 1.31-.01 1.75-.22-.47-.66-1.42-.88-1.89z"/>
</svg>
