<svg width="128pt" height="128pt" viewBox="0 0 128 128" xmlns="http://www.w3.org/2000/svg">
    <g fill="#79181b">
        <path d="M50.31 36.2c2.03-1 4-2.22 6.23-2.75-2.37 3.41-5.42 6.59-6.17 10.85-1.96 7.15.61 14.55 4.07 20.8-.54 2.99-1.84 6.13-.81 9.17.46 1.72 1.25 3.43.98 5.27-2.18-2.19-4.29-4.44-6.33-6.75l.04-.32c1.12-7.28-4.17-13.28-5.48-20.13-1.08-2.98.78-5.87 2-8.49 1.23-2.95 5.23-3.88 5.4-7.41l.07-.24zM76.34 43.42c.2-.1.59-.3.79-.4.91 2.71 4.78.88 7.03 1.8-2.23.1-5.13-.76-6.52 1.56-.84.46-1.77.72-2.77.8l-.36-2.46c.57.03 1.72.1 2.3.13-.12-.36-.36-1.07-.47-1.43zM74.44 54.44c.01-3.12 2.6-6.29 5.56-7.49-.51 3.18-3.54 5.25-4.35 8.42l-1.21-.93zM103.23 57.76c.3-1.2.85-2.23 1.65-3.07.24.24.72.74.96.99-.09 1.24-.84 2.88-2.27 2.94-.09-.21-.26-.64-.34-.86z"/>
    </g>
    <path fill="#6e1920" opacity=".79" d="M106 36.09c.47.04 1.41.14 1.88.19-.52.14-1.57.43-2.1.58l.22-.77z"/>
    <path fill="#230808" opacity=".55" d="M107.88 36.28l1.8.8c-3.47.41-3.36 3.55-2.81 6.25.5-.33 1.5-1.01 2-1.34l.04 2.17-.67.06c-.5.04-1.49.14-1.99.19-.56 1.92-1.05 3.86-1.69 5.76.24-4.49 2.74-8.76 1.22-13.31.53-.15 1.58-.44 2.1-.58z"/>
    <g fill="#b82426">
        <path d="M15.92 63.03c10.46-9.99 21.82-19.25 34.32-26.59-.17 3.53-4.17 4.46-5.4 7.41-1.22 2.62-3.08 5.51-2 8.49 1.31 6.85 6.6 12.85 5.48 20.13-3.56-4.49-7.89-8.41-13.23-10.64-.49-.2-1.46-.59-1.94-.78-5.84-1.16-11.76-.21-17.23 1.98zM64.3 44.59c1.22-2.89 5.36-3.74 7.76-1.83 1.75 1.21 2.04 3.44 2.15 5.39-.8 1.53-1.48 3.11-2.13 4.7 4.03 4.49 10.48 5.75 15.42 9.07l-.95 1.42c-5.49-2.61-11.01-5.33-16.09-8.67-.03-.03-.08-.09-.1-.12-1.15-1.38.3-2.92.62-4.3 1.12-2.1.73-4.52.22-6.73-.79.43-1.15 1.06-1.08 1.89.6 1.05.91 2.17.92 3.38-1.38 1.13-2.66 2.38-3.71 3.82-1.43-2.74 2.4-3.48 2.79-5.75-1.42.58-2.76 1.32-4.04 2.2.15-1.93 1.15-3.1 3.02-3.5l-.2-2.42c-1.58.71-2.89 1.84-4.17 2.97-.11-.38-.33-1.14-.43-1.52zM58.73 58.76c1-2.69 1.89-5.71 4.17-7.62-.07.76-.21 2.28-.27 3.04-1.54 2.34-1.54 5.49-3.83 7.35-.02-.69-.05-2.08-.07-2.77zM96.2 53.56c.45.23 1.35.69 1.79.93-1.41 2.37-1.97 6.11-5.12 6.81l-.04-2.51c.08-.6.26-1.8.34-2.4 2.44 1.47 1.61-1.93 3.03-2.83zM58.81 63.13c1.97-.5 4.1-1.11 6.03-.07 6.02 2.6 11.65 6 17.49 8.97.32.24.96.71 1.28.95-.74.92-1.39 1.9-1.94 2.95-2.5.57-4.41-1.27-6.59-2.1-4.02-1.9-7.91-4.08-11.92-5.98-1.92-1.21-4.73.87-4.06 3.1-.1 2.78 3.38 2.15 5.17 2.02 1.54.12 3.09.09 4.61-.18 1.15-.09 2.11.33 2.88 1.28.16.42.47 1.25.62 1.67-.78 1.35-.95 3.31.45 4.33-1.13 4.1-6.43 6.05-10.09 4.12-7.32-3.15-10.75-13.52-5.78-20 .47-.26 1.39-.8 1.85-1.06m-2.78 5.88C54.7 75.9 60.7 84.14 68.06 83.3c.73-.66 1.47-1.31 2.21-1.95 1.41-2.1 1.4-5.61-1.45-6.41.01-1.82-4.65-1.77-4.54.08-.62.02-1.86.05-2.48.07-.65-.04-1.94-.14-2.58-.18-1.89-1.66-2.43-4-2.02-6.41.95-.9 1.74-2.02 2.92-2.63 2.31-1 4.35.9 6.35 1.77 4.99 2.38 9.8 5.21 15.03 7.04l-.38-1.38c-4.05-2.55-8.57-4.27-12.76-6.59-2.07-1-4.03-2.37-6.31-2.82-2.76.34-4.94 2.69-6.02 5.12zM95.48 63.75l.48-.63c.42.41 1.27 1.22 1.69 1.62-1.09 3.57-3.36 6.59-4.98 9.92-.96 1.55-1.5 3.62-3.36 4.37-.29-5.67 5.78-9.65 6.17-15.28z"/>
    </g>
    <path fill="#5c1616" opacity=".9" d="M109.68 37.08c.62-.04 1.84-.11 2.45-.15-1.11 1.67-2.12 3.41-3.26 5.06-.5.33-1.5 1.01-2 1.34-.55-2.7-.66-5.84 2.81-6.25z"/>
    <g fill="#971c1b">
        <path d="M73.3 42.09c5.09-1.04 10.51-1.84 15.53-.01 5.08 2.02 9.94 5.39 12.58 10.29.8 1.72 1.29 3.57 1.82 5.39.08.22.25.65.34.86l.44.77c-3.45.28-1.66 4.59-1.57 6.88.39.34 1.16 1.03 1.54 1.37-.04 1.47-.45 2.89-.73 4.32-1.22.18-2.45.32-3.66.56 1.89-4.66 1.6-9.69 1.63-14.57l-1.5-.08c.54 2.09-.81 4.87-3.17 4.9-.17-1.42.24-2.66 1.24-3.7.18-1.16.55-3.49.73-4.65L99 57.5c.43-.53.86-1.07 1.28-1.62-.95-.86-1.69-1.89-2.21-3.08-2.1-4.05-6.04-6.81-10.09-8.68-3.38-1.68-7.22-1.06-10.85-1.1-.2.1-.59.3-.79.4-.57.3-1.71.91-2.28 1.21-.19-.63-.57-1.9-.76-2.54z"/>
        <path d="M80.69 47.52c.95-1.43 2.34-.13 3.21.62 1.33 1.12 3.12 1.45 4.73 1.97-.57.48-1.69 1.43-2.26 1.91-1.47-.82-2.77-1.84-3.9-3.08-1.36 2.47-2.56 5.03-4.18 7.34l-1.89-.18c1.01-3.05 2.76-5.77 4.29-8.58zM87.4 51.21c1.19-.28 2.38-.54 3.57-.78l-.99 1.53c1.78.59 3.91 2.28 3.19 4.43-.08.6-.26 1.8-.34 2.4-.2.26-.59.79-.78 1.06.18 1.54.33 3.2 1.67 4.23-1.63 4.06-3.91 7.8-5.78 11.74-.54 1.35-1.63 2.31-2.74 3.19-.28-.09-.84-.29-1.12-.38.59-.74 1.77-2.21 2.36-2.94l-2.25 1.55-1.36-.03c-.01-.65-.01-1.95-.01-2.61l1.45-.69L85.8 76c.05-2.06.99-3.06 2.84-2.99-1.01-.83-2.28-1.2-3.51-1.54l.62-1.5 1.86-.69c.18.68.55 2.03.73 2.71-.5-3.37 3.48-4.91 2.89-8.21l-1.82.1c.76-2.23 2.28-4.36 2.14-6.81-.73-1.51-1.3-3.08-1.71-4.7-1.92 2.33-2.44 5.98-4.75 7.74-.34-.3-1.02-.9-1.35-1.2 1.33-2.5 3.21-4.85 3.66-7.7z"/>
    </g>
    <path fill="#180505" opacity=".44" d="M77.13 43.02c3.63.04 7.47-.58 10.85 1.1 4.05 1.87 7.99 4.63 10.09 8.68-1.26.29-2.06-.38-2.59-1.42-2.48-3.79-7.02-5.71-11.32-6.56-2.25-.92-6.12.91-7.03-1.8z"/>
    <path fill="#2c090b" opacity=".62" d="M64.73 46.11c1.28-1.13 2.59-2.26 4.17-2.97l.2 2.42c-1.87.4-2.87 1.57-3.02 3.5 1.28-.88 2.62-1.62 4.04-2.2-.39 2.27-4.22 3.01-2.79 5.75-.16.4-.47 1.21-.63 1.61-2.27-2.14-1.81-5.3-1.97-8.11z"/>
    <g fill="#bd2429">
        <path d="M64.3 44.59c.1.38.32 1.14.43 1.52.16 2.81-.3 5.97 1.97 8.11 3.48 2.34 7.34 4.01 11.01 6.02 2.74 1.35 5.34 3.14 8.38 3.76l.46-.66.95-1.42c.35.37 1.04 1.11 1.39 1.48-.15.32-.45.95-.6 1.27.58.27 1.76.8 2.35 1.07l-.87 1.34c-.51-.11-1.52-.32-2.03-.42-5.39-2.14-10.34-5.24-15.69-7.44-2.39-1.1-4.95-2.13-6.63-4.25-2.58-2.76-3.52-7.21-1.12-10.38zM99.35 72.55l.24-.03c1.21-.24 2.44-.38 3.66-.56-1.04 4.59-4.21 8.24-7.64 11.29-.08.07-.23.21-.31.28-7.23 6.25-17.42 7.47-26.49 5.43-.14-.46-.43-1.37-.57-1.83 2.19.03 4.39.05 6.58.1.77-.71 1.53-1.44 2.28-2.17 2.34 0 4.69-.16 6.99.39.02-.5.07-1.5.09-2-3.8.9-8.18 1.01-11.54-1.28 1.99-.06 3.98-.06 5.97-.01l-3.15-1.75c-.24-.45-.72-1.35-.97-1.8l.26-1.74c1.97 1.64 3.21 3.95 5 5.77 1.49-.27 2.99-.53 4.49-.79.63.1 1.91.28 2.55.38l-2.46.61c.66.58 1.32 1.15 2 1.73 2.41-1.15 4.72-2.5 6.94-3.97-2.93.56-5.96.54-8.8-.42-3.35-.97-6.3-2.88-9.55-4.1l-.02-.33c.33-.32.99-.94 1.32-1.25 2.15 2.28 5.69 1.82 7.86 4.13.28.09.84.29 1.12.38 5.58 1.28 11.81-1.02 14.15-6.46z"/>
    </g>
    <path fill="#c1292c" d="M77.64 46.38c1.39-2.32 4.29-1.46 6.52-1.56 4.3.85 8.84 2.77 11.32 6.56l.05 1.01c-2.46-.68-4.01-3.22-6.29-4.42-3.78-1.07-7.62-2.05-11.6-1.59z"/>
    <path fill="#c1282d" d="M106.25 44.41c.5-.05 1.49-.15 1.99-.19l-.29 1.25c-.67 2.54-1.51 5.05-1.8 7.68l-.29 1.75c-.7-.9-1.42-1.79-2.15-2.67l.85-2.06c.64-1.9 1.13-3.84 1.69-5.76z"/>
    <path fill="#330b0c" opacity=".51" d="M106.15 53.15c.29-2.63 1.13-5.14 1.8-7.68-.32 2.6-.53 5.33-1.8 7.68z"/>
    <path fill="#2f0a0a" opacity=".59" d="M101.41 52.37c.57-.04 1.72-.1 2.3-.14.73.88 1.45 1.77 2.15 2.67 0 .19-.02.58-.02.78-.24-.25-.72-.75-.96-.99-.8.84-1.35 1.87-1.65 3.07-.53-1.82-1.02-3.67-1.82-5.39z"/>
    <path fill="#4e1113" opacity=".71" d="M70.36 54.55c.02.03.07.09.1.12-.03-.03-.08-.09-.1-.12z"/>
    <path fill="#360c0d" opacity=".64" d="M58.8 61.53c2.29-1.86 2.29-5.01 3.83-7.35.69.19 2.09.59 2.79.79-.41 1.12-.79 2.25-1.16 3.38.03-.77.1-2.31.14-3.08-1.9 1.3-2.66 3.46-2.48 5.68.54-.01 1.62-.04 2.15-.06 1.33.36 2.63.84 3.98 1.13 1.32-.65 2.5-1.55 3.63-2.49l.37-.31c5.35 2.2 10.3 5.3 15.69 7.44-.54.18-1.61.55-2.15.73-4.19-2.21-8.34-4.56-12.68-6.48-2.27-1.28-4.8 1.85-2.5 3.48 3.98 2.21 8.08 4.19 12.03 6.45l-.11 1.19c-5.84-2.97-11.47-6.37-17.49-8.97-1.93-1.04-4.06-.43-6.03.07-1.56-1.31-.91-2.89-.08-4.37.02.69.05 2.08.07 2.77z"/>
    <path fill="#aa252a" opacity=".96" d="M61.92 60.95c-.18-2.22.58-4.38 2.48-5.68-.04.77-.11 2.31-.14 3.08-.05.64-.14 1.91-.19 2.54-.53.02-1.61.05-2.15.06z"/>
    <path fill="#be282f" d="M102.44 66.27c-.09-2.29-1.88-6.6 1.57-6.88.24 2.74.25 5.5-.03 8.25-.38-.34-1.15-1.03-1.54-1.37z"/>
    <path fill="#480f10" opacity=".72" d="M33.15 61.05c.48.19 1.45.58 1.94.78l-.79.51-.99-.41-.16-.88z"/>
    <path fill="#b52629" d="M70.41 64.39c-2.3-1.63.23-4.76 2.5-3.48 4.34 1.92 8.49 4.27 12.68 6.48l.06 2.42c-4.04-3.38-9.24-4.89-13.74-7.56l.36 1.47c3.08 1.91 6.62 2.99 9.61 5.08.93.65 1.97 1.01 3.13 1.07l-.54 2.03-2.03-1.06c-3.95-2.26-8.05-4.24-12.03-6.45z"/>
    <path fill="#a52427" opacity=".94" d="M95.48 63.75c-2.43.75-1.79-3.49.25-2.09.06.36.17 1.1.23 1.46l-.48.63z"/>
    <path fill="#260809" opacity=".65" d="M54.44 65.1c.84-.3 1.68-.6 2.52-.91-4.97 6.48-1.54 16.85 5.78 20-.11.49-.35 1.48-.46 1.98-2.97-1.54-5.11-4.19-7.68-6.26l.01-.37c.27-1.84-.52-3.55-.98-5.27-1.03-3.04.27-6.18.81-9.17z"/>
    <path fill="#1b0606" opacity=".51" d="M56.03 69.01c1.08-2.43 3.26-4.78 6.02-5.12 2.28.45 4.24 1.82 6.31 2.82 4.19 2.32 8.71 4.04 12.76 6.59l.38 1.38c-5.23-1.83-10.04-4.66-15.03-7.04-2-.87-4.04-2.77-6.35-1.77-1.18.61-1.97 1.73-2.92 2.63-.41 2.41.13 4.75 2.02 6.41.64.04 1.93.14 2.58.18l.16 1.99c-1.24-.49-2.5-.93-3.76-1.34 1.8 3.37 5.27 6.53 9.34 6.05l2.73-.44c-.74.64-1.48 1.29-2.21 1.95-7.36.84-13.36-7.4-12.03-14.29z"/>
    <path fill="#4f1111" opacity=".69" d="M64.27 72.97c.06-1.77 3.54-1.48 4.67-.66l-.06.48c-1.52.27-3.07.3-4.61.18z"/>
    <path fill="#280809" opacity=".58" d="M64.28 75.02c-.11-1.85 4.55-1.9 4.54-.08-1.51.06-3.02.1-4.54.08z"/>
    <path fill="#1c0606" opacity=".51" d="M71.76 74.07l1.5-.27 1.15.6.05.89-1.16.93c.16.91.55 1.7 1.19 2.39.25.45.73 1.35.97 1.8l3.15 1.75c-1.99-.05-3.98-.05-5.97.01 3.36 2.29 7.74 2.18 11.54 1.28-.02.5-.07 1.5-.09 2-2.3-.55-4.65-.39-6.99-.39-1.69-.32-3.35-.93-5.09-.98-2.85 1.18-5.82 1.96-8.85 2.54-.22-.12-.66-.34-.88-.45.11-.5.35-1.49.46-1.98 3.66 1.93 8.96-.02 10.09-4.12.67-1.39.38-3.08-.45-4.33-.15-.42-.46-1.25-.62-1.67z"/>
    <path fill="#922021" opacity=".96" d="M58.2 75.74c1.26.41 2.52.85 3.76 1.34 1.64 1.81 3.59 3.31 5.58 4.71-4.07.48-7.54-2.68-9.34-6.05z"/>
    <path fill="#c62c31" d="M72.38 75.74c.83 1.25 1.12 2.94.45 4.33-1.4-1.02-1.23-2.98-.45-4.33z"/>
    <path fill="#070202" opacity=".24" d="M74.9 75.75l.02.33c3.25 1.22 6.2 3.13 9.55 4.1-.06.42-.18 1.26-.23 1.67-1.5.26-3 .52-4.49.79-1.79-1.82-3.03-4.13-5-5.77l.22-1.15-.07.03z"/>
    <path fill="#270809" opacity=".53" d="M84.47 80.18c2.84.96 5.87.98 8.8.42-2.22 1.47-4.53 2.82-6.94 3.97-.68-.58-1.34-1.15-2-1.73l2.46-.61c-.64-.1-1.92-.28-2.55-.38.05-.41.17-1.25.23-1.67z"/>
    <path fill="#030500" opacity=".44" d="M95.3 83.53c.08-.07.23-.21.31-.28-.08.07-.23.21-.31.28z"/>
    <path fill="#78191b" opacity=".98" d="M63.16 86.62c3.03-.58 6-1.36 8.85-2.54 1.74.05 3.4.66 5.09.98-.75.73-1.51 1.46-2.28 2.17-2.19-.05-4.39-.07-6.58-.1.14.46.43 1.37.57 1.83-1.91-.71-3.82-1.45-5.65-2.34z"/>
</svg>
