<svg width="128pt" height="128pt" viewBox="0 0 128 128" xmlns="http://www.w3.org/2000/svg">
    <g fill="#fff">
        <path d="M44.17 40.22c3.94-2.44 7.83-5.16 12.26-6.64-2.17 2.86-4.79 5.54-5.74 9.11-2.62 7.82-.05 16.26 4.06 23.06-1.55 3.9-1.59 8.49.42 12.23.7 1.17 1.23 2.43 1.72 3.71-3.42-3.74-7.17-7.18-10.24-11.22-5.23-6.69-13.85-11.15-22.45-9.79-2.97.19-5.64 1.54-8.42 2.46 8.85-8.36 18.34-16.05 28.39-22.92z"/>
        <path d="M73.22 42.14c5.57-1.03 11.6-1.99 16.9.65 6.67 2.69 11.84 8.48 13.69 15.44-.15-1.89.3-3.6 1.34-5.1-.62.29-1.85.88-2.47 1.17 1.77-3.2 2.73-6.74 3.48-10.3h2.02c-1.36 4.93-1.41 10.49-4.37 14.8.88 7.9.07 17.08-6.41 22.58-8.56 9.36-23.18 10.6-34.27 5.33 2.33-1.12 5.04-.99 7.36-2.17 1.44-.98 3.09-.32 4.62.01 3.19.82 6.53.35 9.79.43-3.75-2.17-8.54-.05-12.42-2.26.19-2.91 6.66.87 4.44-1.97l.48.05c.62.13 1.85.39 2.47.51l-.92 1.35c1.04-.11 3.11-.34 4.15-.45.64-.36 1.91-1.09 2.54-1.45-4.04-1.18-7.56-3.8-11.63-4.71.89-.6 1.78-1.2 2.69-1.76-1.12-.44-2.2-.95-3.31-1.39-3.64-1.76-7.16-3.78-10.88-5.35-1.39-.76-2.4.96-3.54 1.49 0 .75-.01 2.24-.01 2.98 3.18 2.92 7.37-1.13 10.93.89 3.18 1.15 3.38 4.93 3.17 7.79-2.03 3.55-6.91 5.7-10.6 3.34-.68 1.65-2.65-.03-3.63.08 1.93-1.71-.38-3.14-1.55-4.4-2.99-3.7-3.61-9.02-1.86-13.4 1.12-2.29 3.54-3.48 5.88-4.17 2.69.59 5.4.07 8.1.39.17-1.62 2.33-2.88 3.7-1.76 3.48 1.71 6.9 3.56 10.37 5.29.96.63 1.91 1.27 2.85 1.92-.64 1.26-1.28 2.52-1.91 3.78-4.98-2.64-10.37-4.68-14.85-8.14-1.3-.13-2.6-.28-3.9-.36 4.3 2.05 8.53 4.23 12.73 6.46 1.85.9 3.62 1.96 5.24 3.24-.66 1.02-1.31 2.04-1.96 3.06-.96.13-1.91.24-2.87.35 2.04.56 4.04 1.27 6.03 1.97.59-1.34 1.14-2.7 1.62-4.09 1.41-1.47 2.69-3.1 2.75-5.23 1.2-1.6 2.02-3.4 2.37-5.38-.93.06-2.79.17-3.72.23-.18.67-.55 2-.74 2.67l-3.64-.48.62-.77c-2.2-.83-4.28-1.95-6.33-3.09-4.85-2.97-11.57-4.28-14-10.01-2.55-4.5 1.22-11.79 6.89-10.22.55.32 1.65.97 2.2 1.3 2.23 3.12.7 6.7-1 9.65 1.24 1.53 2.95 2.48 4.64 3.43.58-1.94 1.3-3.87 2.73-5.36-.33-.46-.66-.92-1-1.37l-2.24 4.72.91.23c-.73-.1-2.2-.29-2.94-.39 1.31-2.91 3.15-5.54 5.81-7.36l-.15 1.95c.72-.66 1.44-1.33 2.15-2 1.72 1.28 3.59 2.33 5.48 3.37 1.15-.3 3.66-.98 3.19 1.25 1.08 1.91 3.01 3.26 3.27 5.62-1.06 1.94-1.74 4.04-2.43 6.13l1.37-.66c.25.51.75 1.54.99 2.05-2.52 4.29-4.44 8.91-6.92 13.23l-1.97.78c1.93.53 3.93.63 5.91.7l.12 1.61c-1.39.32-2.92-.16-4.25.39.52 1.81-1.58 2.11-2.62 3.08 3.25-.09 6.23-1.73 8.81-3.59-.5-.59-1.03-1.15-1.6-1.68 3.36-.21 5.78-2.86 7.68-5.36 2.67-4.33 2.77-9.76 2.2-14.68C98.22 48 85.4 39.37 74.33 44.36c-.28-.55-.83-1.67-1.11-2.22m-5.98 1.83c-2.74 1.95-2.42 5.25-2.12 8.21 1.73-2.29 4.02-4.04 6.44-5.54-.67 2.92-3.32 4.9-5.84 6.17 1.17 1.26 2.36 2.59 3.97 3.32 5.24 2.78 10.61 5.34 15.77 8.28l1.27-.79c-4.85-2.65-9.73-5.23-14.64-7.78-1.3-.6-2.79-2.04-1.91-3.58.95-2.12 1.95-4.24 2.11-6.59-.66-.64-1.31-1.29-1.95-1.95-1.03.07-2.07.16-3.1.25m9.44 12.75c4.09 1.31 7.6 3.9 11.54 5.57l-.7.59c.82.14 1.64.28 2.45.42.58-1.8 1.3-3.55 1.81-5.36-.19-2.05-1.63-3.72-2.55-5.51-1 2.71-2.48 5.21-3.65 7.86-.42-.34-1.27-1.02-1.7-1.36 1.02-2.12 2.26-4.12 3.6-6.04-1.56-1.69-4.47-2.3-4.83-4.85-1.76 2.99-2.63 7.05-5.97 8.68m-4.94 5.53l.48 1.47c3.71 1.98 7.46 4.01 11.39 5.53.18-.21.54-.64.72-.85-4.25-1.95-8.32-4.26-12.59-6.15m-15.52 6.86c-1.37 5.21 2.41 9.61 5.86 12.96.94-.2 1.85-.48 2.76-.78-3.43-.27-5.48-3.32-7.13-5.94 1.29.48 2.58.97 3.87 1.46 1.63 2.07 3.67 3.75 6.1 4.81-.36-.35-4.02.85-1.8 1.38 3.76.62 6.89-4.13 4.47-7.24-2.5-2.94-6.27-.68-9.37-.45-1.85.11-2.85-1.59-4.01-2.7-.85-3.37 1.3-7.17 4.97-7.27 6.63 2.63 12.67 6.61 19.32 9.25-.12-.33-.37-.99-.5-1.32-5.39-3.03-11.04-5.63-16.56-8.43-3.26-2.06-6.96 1.23-7.98 4.27z"/>
        <path d="M65.61 50.4c-.45-3.06 1.9-4.83 4.15-6.27.27.55.81 1.67 1.08 2.23-1.88 1.16-3.5 2.68-5.23 4.04zM74.8 45.09c6.02-1.59 12.74-.51 17.8 3.16 1.62 1.41 3.7 2.81 3.71 5.21-2.4-1.75-4.39-4.07-7.12-5.33-4.43-1.98-9.48-2.52-14.16-1.12-.06-.48-.17-1.44-.23-1.92zM57.81 62.35c1.03-3.94 2.26-7.93 4.82-11.18.04 1.87.85 3.63 2.4 4.68-1.47 2.1-1.85 4.82.6 6.37-1.21-.3-2.4-.63-3.59-.98-.07-.77-.2-2.31-.27-3.08-1.51 1.08-1.46 4.07-3.96 4.19m4.33-7.07c-1.38 2.95 2.89.23 0 0zM92.64 61.92c.65-3.41 2.62-6.34 4.25-9.34 2.14 1 .4 2.83-.04 4.19-.82 2.13-2.27 3.92-4.21 5.15zM88.43 78.55c2.76-5.16 5.46-10.39 8.4-15.42l.59 1.87c-1.59 4.67-4.54 8.78-6.8 13.16-.55.09-1.64.29-2.19.39z"/>
    </g>
    <g fill="#f3f3f3">
        <path opacity=".95" d="M98.23 54.58c1.49 2.17 2.16 4.74.71 7.1-.51.37-1.52 1.1-2.02 1.46-.21-2.93 1.48-5.57 1.31-8.56zM74.91 77.43c1.58-.49 1.96 1.99 2.58 2.99l-.09.38-.48-.05c-.39-.11-1.17-.31-1.55-.42-.12-.72-.34-2.17-.46-2.9z"/>
    </g>
    <path fill="#dbdbdb" opacity=".86" d="M73.81 74.39c.25.33.25.33 0 0z"/>
</svg>
