<svg width="128pt" height="128pt" viewBox="0 0 128 128" xmlns="http://www.w3.org/2000/svg">
    <path fill="#340c0e" opacity=".76" d="M37.12 16.03c1.27-.96 3.36.98 2.45 2.3-.94-.45-1.8-1.03-2.58-1.72l.13-.58z"/>
    <path fill="#24090a" opacity=".51" d="M34.83 21.77c.31-1.34.04-3.23.86-4.25l1.6-.18c-.54 1.27-1.1 2.54-1.59 3.83.86-.51 2.6-1.52 3.46-2.02-.77 3.79-5.17 4.7-7.49 1.97.79.16 2.37.48 3.16.65z"/>
    <path fill="#b5242c" d="M35.69 17.52l1.3-.91c.78.69 1.64 1.27 2.58 1.72 1.93 1.26 3.4 3.07 4.9 4.79l-1.27 1.67.46.89c-1.12-.44-2.24-.87-3.36-1.3.76 1.54 1.61 3.03 2.56 4.45-1.75-.4-3.51-.71-5.29-.98-.52.47-1.57 1.42-2.1 1.89-.47.03-1.42.1-1.89.13.76-1.11 1.53-2.22 2.29-3.33-.49-.51-1.48-1.53-1.97-2.04-.54-.54-1.17-.97-1.87-1.29-.5-.31-1.51-.94-2.02-1.25.22-.35.67-1.05.89-1.4l.77.56c2.32 2.73 6.72 1.82 7.49-1.97-.86.5-2.6 1.51-3.46 2.02.49-1.29 1.05-2.56 1.59-3.83l-1.6.18m5.45 5.67c.11 3.29 3.07-1.51 0 0z"/>
    <path fill="#0b0202" opacity=".39" d="M30.01 21.96c-1.92.26-.8-3.09.68-2.07l.21.67c-.22.35-.67 1.05-.89 1.4z"/>
    <path fill="#100404" opacity=".47" d="M32.03 23.21c.7.32 1.33.75 1.87 1.29-.33 1.03-.69 2.06-1.07 3.07l-.2.16c-.72-1.29-1.42-3.14-.6-4.52z"/>
    <path fill="#120405" opacity=".44" d="M41.14 23.19c3.07-1.51.11 3.29 0 0z"/>
    <path fill="#1c0607" opacity=".44" d="M44.47 23.12c1.44.04 2.8.62 4.02 1.32l1.9 1.5c.35-.13 1.06-.4 1.41-.54-.12.58-.37 1.73-.49 2.3-.99.81-1.93 1.68-2.89 2.53 3.05.52 6.13.82 9.22.97-2.53.58-5.1.26-7.62-.13-.15.37-.46 1.11-.62 1.47-.9-.31-1.8-.62-2.71-.94 1.02-1.89 4.05-5.58.48-6.53l-.43.35c-1.18.28-2.36.07-3.54-.63l1.27-1.67z"/>
    <g fill="#8c1c21">
        <path d="M48.49 24.44c1.93-.67 4.33-1.88 6.03-.1-.68.26-2.04.8-2.72 1.06-.35.14-1.06.41-1.41.54l-1.9-1.5zM69.83 61.69c3.99-.36 8.43-1.87 12.11.39 7 3.77 14.64 7.65 18.18 15.23-5.87-1.02-8.76-7.15-13.78-9.83 1.04 4.58 4.16 8.3 5.16 12.87-.7-.25-2.12-.74-2.82-.99-.35-.9-.71-1.8-1.06-2.71-1.68-.44-3.36-.89-5.03-1.38-1.56-.47-3.12-.95-4.67-1.44 1.59-1.47 3.22-2.9 4.86-4.3-1.67-2.07-3.2-4.35-5.45-5.83-2.2-1.5-4.94-1.66-7.5-2.01zM70.55 79.91c1.72-.5 3.41-1.51 5.25-1.39 1.34.56 2.45 1.53 3.63 2.35-.75 1.02-1.49 2.04-2.24 3.06.97.14 1.94.27 2.9.41 2.49 1.76 5.16 3.33 8.24 3.73 2.36 1.45 4.29-.29 6.14-1.69.4.18 1.19.54 1.58.71-.56.34-1.67 1.02-2.23 1.35 2.65.6 5.3 1.2 8 1.52 3.67 4.27 4.88 9.92 7.06 14.98-.72 1.51-1.46 3.01-2.2 4.51-.67-.79-1.33-1.58-1.99-2.37.15-.49.43-1.47.57-1.95-1.53-3.98-4.41-7.23-6.53-10.89-.35.28-1.05.83-1.39 1.11-8.69.33-17.81-1.51-24.37-7.55-1.48-2.37-1.63-5.27-2.42-7.89z"/>
    </g>
    <path fill="#771b1e" opacity=".91" d="M32.83 27.57c.38-1.01.74-2.04 1.07-3.07.49.51 1.48 1.53 1.97 2.04-.76 1.11-1.53 2.22-2.29 3.33-1.28.06-2.56.12-3.84.19.96-.78 1.92-1.56 2.89-2.33l.2-.16z"/>
    <path fill="#29090a" opacity=".58" d="M40.3 24.38c1.12.43 2.24.86 3.36 1.3.78 1.46 1.53 2.93 2.29 4.4-3.48-.03-7.49-1.05-10.27 1.72-3.56 2.74-7.56 5.58-9.05 10.04-1.57 4.29-1.37 8.97-.36 13.36.93 2.93 2.21 5.74 3.54 8.51.43-.51 1.29-1.52 1.73-2.03l1.35-.24c-.56 1.34-1.07 2.71-1.47 4.1l-.11.38-2.19-2.13c-.04.55-.14 1.66-.19 2.21-.23-.5-.67-1.51-.9-2.01-.57-1.39-1.09-2.79-1.57-4.21-1.56-4.52-1.94-9.33-2.14-14.07.17-.14.52-.43.7-.57.06-6.14 4.75-10.62 9.24-14.13-1.31.06-2.63.11-3.94.16-.35-.27-1.06-.79-1.42-1.06l.84-.05c1.28-.07 2.56-.13 3.84-.19.47-.03 1.42-.1 1.89-.13.53-.47 1.58-1.42 2.1-1.89 1.78.27 3.54.58 5.29.98-.95-1.42-1.8-2.91-2.56-4.45z"/>
    <g fill="#c6282c">
        <path d="M43.2 24.79c1.18.7 2.36.91 3.54.63l.43-.35c3.57.95.54 4.64-.48 6.53l-1.3-.45-.13.26c-3.19.17-6.38.31-9.58.39 2.78-2.77 6.79-1.75 10.27-1.72-.76-1.47-1.51-2.94-2.29-4.4l-.46-.89zM32.89 61.44c1.91-2.99 4.78-5.41 8.25-6.33.57 2.75 2.32 5.69 1.54 8.49-2.87 2.15-6.25 3.49-9.61 4.67l-.79-.18c-.21-.64-.65-1.91-.86-2.55.4-1.39.91-2.76 1.47-4.1z"/>
    </g>
    <path fill="#931e20" opacity=".97" d="M48.42 30.23c.96-.85 1.9-1.72 2.89-2.53 2.61.01 4.89 1.39 6.33 3.5-3.09-.15-6.17-.45-9.22-.97z"/>
    <path fill="#73181b" d="M30.32 31.17c1.31-.05 2.63-.1 3.94-.16-4.49 3.51-9.18 7.99-9.24 14.13-.18.14-.53.43-.7.57.03-3.16.04-6.36-.96-9.39l-.03-.13c1.55-1.63 3.13-3.25 4.7-4.87.58-.04 1.72-.11 2.29-.15z"/>
    <path fill="#a72323" d="M35.68 31.8c3.2-.08 6.39-.22 9.58-.39l.13-.26 1.3.45c.91.32 1.81.63 2.71.94-1.06 1.57-2.2 3.08-3.47 4.49-3.48-2.88-8.2-1.21-11.98.07-4.56 4.75-3.26 11.65-4.47 17.55-1.07.18-2.14.36-3.21.55-1.01-4.39-1.21-9.07.36-13.36 1.49-4.46 5.49-7.3 9.05-10.04z"/>
    <path fill="#83181b" d="M33.95 37.1c3.78-1.28 8.5-2.95 11.98-.07-2.94.88-6.35.97-8.72 3.15-2.27 1.98-1.56 5.23-1.59 7.88-.25-2.58-.37-5.16-.63-7.74-1.05 2.05-1.97 4.17-2.63 6.38 2.33 2.63 3.48 5.95 4.14 9.35-1.78 1.77-3.41 3.66-4.96 5.63-.44.51-1.3 1.52-1.73 2.03-1.33-2.77-2.61-5.58-3.54-8.51 1.07-.19 2.14-.37 3.21-.55 1.21-5.9-.09-12.8 4.47-17.55z"/>
    <path fill="#941d1e" d="M23.36 36.32c1 3.03.99 6.23.96 9.39.2 4.74.58 9.55 2.14 14.07-.66-.1-2-.3-2.67-.41l-.9-3.3c-.45.78-.89 1.57-1.33 2.36l-2.07-.08c-.43-5.55.24-11.12 1.13-16.6.27-2.08 1.15-4.02 2.74-5.43z"/>
    <g fill="#6b1818">
        <path d="M32.36 46.7c.66-2.21 1.58-4.33 2.63-6.38.26 2.58.38 5.16.63 7.74 2.41 2.52 5.82 3.69 8.46 5.93-2.71-.07-5.3.61-7.58 2.06-.66-3.4-1.81-6.72-4.14-9.35zM28.58 105.56c-.32-.9-.17-1.71.47-2.42.44 1.39.86 2.79 1.24 4.2-.17.53-.52 1.6-.69 2.14-2.77.5-5.65.5-8.37-.29 1.8-2.22 4.38-3.94 7.35-3.63z"/>
    </g>
    <path fill="#ad2126" d="M41.11 54.98c1.59-.05 3.19-.09 4.8-.15.45 2.65 1.43 5.23 1.53 7.93-.3 3.11-1.19 6.15-2.35 9.05-.86-1.03-1.69-2.13-1.84-3.52-.84.29-1.69.57-2.53.85.02.43.05 1.3.07 1.73-1.56.09-3.13.18-4.69.29l.81 1.21c-.42.26-1.25.78-1.67 1.04l-.88.55c-.57-1.67-1.24-3.3-1.56-5.04l.27-.65c3.36-1.18 6.74-2.52 9.61-4.67.78-2.8-.97-5.74-1.54-8.49l-.03-.13z"/>
    <path fill="#841b1e" d="M45.91 54.83c5.03 1.48 8.72 6.82 7.53 12.08-1.39 4.07-4.42 7.49-8.31 9.35-2.39 1.04-3.11 3.71-4.39 5.75-1.43.49-2.91.81-4.36 1.22-3.24.89-6.56 2.03-9.95 1.31 1.26 1.89 2.64 3.9 2.78 6.25.11 1.71.19 3.42.28 5.13-.75-.25-1.51-.49-2.26-.72-1.07-4.37-2.91-8.51-5.04-12.47 4.5-1.91 7.27-6.96 12.57-7.01l.48-2.31c.42-.26 1.25-.78 1.67-1.04l-.81-1.21c1.56-.11 3.13-.2 4.69-.29-.02-.43-.05-1.3-.07-1.73.84-.28 1.69-.56 2.53-.85.15 1.39.98 2.49 1.84 3.52 1.16-2.9 2.05-5.94 2.35-9.05-.1-2.7-1.08-5.28-1.53-7.93z"/>
    <path fill="#b52831" d="M21.56 58.43c.44-.79.88-1.58 1.33-2.36l.9 3.3c.67.11 2.01.31 2.67.41.48 1.42 1 2.82 1.57 4.21-.62.01-1.86.04-2.48.06l-.18 2.47c-.78.62-1.55 1.25-2.33 1.87-1.64-3.17-2.96-6.51-3.55-10.04l2.07.08z"/>
    <path fill="#79181b" d="M53.36 59.23c4.69 1.95 9.78 2.7 14.84 2.76l-1.51 2.03-.73.32c-.38.02-1.12.06-1.5.07-.09 3.84 1.29 8.7-2.74 11 .12.59.37 1.78.5 2.38-4.58.15-9.23-.49-13.41-2.44 4.54-3.86 7.76-10.41 4.55-16.12z"/>
    <path fill="#b52426" d="M67.29 70.65c-.32-3.15.12-6.68 2.54-8.96 2.56.35 5.3.51 7.5 2.01 2.25 1.48 3.78 3.76 5.45 5.83-1.64 1.4-3.27 2.83-4.86 4.3 1.55.49 3.11.97 4.67 1.44-.81 1.76-1.14 3.66-1.15 5.59-.5 0-1.51.01-2.01.01-1.18-.82-2.29-1.79-3.63-2.35-1.84-.12-3.53.89-5.25 1.39-1.06-2.74-2.05-5.51-2.6-8.4-.28.34-.84 1.03-1.11 1.37-.3-.35-.9-1.04-1.19-1.39l.38-.45c.31-.09.94-.29 1.26-.39z"/>
    <path fill="#942429" d="M25.55 64.05c.62-.02 1.86-.05 2.48-.06.23.5.67 1.51.9 2.01.37.77.71 1.56 1.02 2.36-.5 2.45-1.32 4.82-2.15 7.17-1.82-2.22-3.34-4.65-4.76-7.14.78-.62 1.55-1.25 2.33-1.87l.18-2.47z"/>
    <path fill="#471010" d="M64.46 64.41c.38-.01 1.12-.05 1.5-.07l.42.43c.28 1.79-.13 3.62-.16 5.43l-.19.84-.38.45c.29.35.89 1.04 1.19 1.39.29 1.41.56 2.82.78 4.25-1.8.2-3.6.42-5.4.66-.13-.6-.38-1.79-.5-2.38 4.03-2.3 2.65-7.16 2.74-11z"/>
    <path fill="#5e141a" opacity=".93" d="M27.8 75.53c.83-2.35 1.65-4.72 2.15-7.17 1.08 2.06 2.11 4.15 3.11 6.26-1.87.55-3.73 1.15-5.57 1.8l.31-.89z"/>
    <path fill="#a52124" d="M82.59 75.27c1.67.49 3.35.94 5.03 1.38.35.91.71 1.81 1.06 2.71.7.25 2.12.74 2.82.99.74 2.12 1.87 4.08 2.97 6.03-1.85 1.4-3.78 3.14-6.14 1.69-3.08-.4-5.75-1.97-8.24-3.73-.96-.14-1.93-.27-2.9-.41.75-1.02 1.49-2.04 2.24-3.06.5 0 1.51-.01 2.01-.01.01-1.93.34-3.83 1.15-5.59z"/>
    <g fill="#631418">
        <path d="M46.37 76.36c1.2-1.03 2.98-.83 3.74.61-1.54 3.69-4.57 8.39-9.26 6.48 1.66-2.49 2.68-5.65 5.52-7.09zM56.34 102.24c2.12-1.47 4.53-2.46 6.74-3.79.89 1 1.78 2.01 2.67 3.01-1.76 1.08-3.7 1.71-5.77 1.3-.56 3.22-3.78 4.71-6.17 6.44.17-2.49.57-5.19 2.53-6.96z"/>
    </g>
    <path fill="#7b1818" d="M50.11 76.97c5.8 1.82 11.97 1.62 17.9.65.71 3.54 1.33 7.11 2.55 10.53l-1.55-.01c-.67 0-2-.02-2.67-.02-3.56-.93-4.83-4.74-7.63-6.65-1.2-.04-2.39.1-3.58.19-.55-.32-1.09-.63-1.64-.95-2.03 3.02-5.54 4.11-8.87 5.02-.28.61-.83 1.82-1.11 2.42-2.44-1.4-4.9-2.76-7.3-4.22 1.36-1.23 3.09-.58 4.64-.48 4.69 1.91 7.72-2.79 9.26-6.48z"/>
    <path fill="#a22023" d="M53.49 80.71c.55.32 1.09.63 1.64.95 1.19-.09 2.38-.23 3.58-.19 2.8 1.91 4.07 5.72 7.63 6.65-6.19 2.25-12.76 2.19-19.24 1.73-1.24-.47-2.41-1.1-3.59-1.7.28-.6.83-1.81 1.11-2.42 3.33-.91 6.84-2 8.87-5.02z"/>
    <path fill="#421010" d="M33.94 84.62c2.35.31 3.99 2.12 5.73 3.54-.91 2.36-1.76 4.76-2.65 7.14-1.23-.77-2.45-1.53-3.68-2.28.4-2.79.56-5.59.6-8.4z"/>
    <path fill="#3c1010" d="M66.34 88.12c.67 0 2 .02 2.67.02-1.05.77-2.13 1.49-3.1 2.35 2.08-.11 4.15-.37 6.2-.79.64 2.42 1.25 4.85 1.79 7.29-2.71 1.51-5.46 2.95-8.15 4.47-.89-1-1.78-2.01-2.67-3.01 1.93-1.17 3.83-2.37 5.66-3.68-1.98-1.62-3.06-4.24-5.47-5.29-1.15 1.01-2.62 1.62-4.16 1.21-3.98-.64-8.04-.13-12.01-.84 6.48.46 13.05.52 19.24-1.73z"/>
    <g fill="#521010">
        <path d="M29.21 90.79c.41.94.82 1.89 1.23 2.84.32-.15.96-.47 1.27-.62 2.11 1.23 4.58 2.34 5.53 4.77-3.34-.17-7.68.24-10.01-2.58.75.23 1.51.47 2.26.72-.09-1.71-.17-3.42-.28-5.13zM31.23 99.11l3.6.21c-1.14 2.85-2.04 5.99-4.54 8.02-.38-1.41-.8-2.81-1.24-4.2.76-1.33 1.48-2.68 2.18-4.03z"/>
    </g>
    <path fill="#4d1010" d="M97.82 112.09c1.39-2.85 4.81-2.91 6.87-5.01.66.79 1.32 1.58 1.99 2.37-.53.91-1.07 1.83-1.59 2.74-2.43-.01-4.85-.02-7.27-.1z"/>
</svg>
