<svg width="128pt" height="128pt" viewBox="0 0 128 128" xmlns="http://www.w3.org/2000/svg">
    <g fill="#fff">
        <path d="M36.45 18.45c.49 1.15.75 2.38 1 3.6-1.58.01-3.16.04-4.73-.17 2.2.16 3.72-1.19 3.73-3.43zM48.77 24.07c1.86-.18 3.85-.87 5.62.06-1.4.75-2.8 1.47-4.17 2.27-.36-.59-1.09-1.75-1.45-2.33zM41.29 23.72c1.88.77 3.76 1.54 5.62 2.34l-1.04-2.49c1.53.56 2.93 1.85 3.22 3.51-.53 1.77-1.68 3.27-2.55 4.88.71.03 2.11.07 2.81.1-.91 1.8-2.12 3.41-3.49 4.89-2.55.59-5.11 1.18-7.57 2.1-.75.76-1.51 1.52-2.28 2.27-.69 2.64-1.24 5.64.51 8.01 2.5 1.53 5.03 3.02 7.54 4.53-6.75-.69-11.57 5.25-14.03 10.8-3.25-6.64-6.52-14.4-3.9-21.81 1.5-5.46 6.35-8.9 10.69-12.07 2.49-2.38 6.07-.43 9.07-.73-1.3-1.15-2.61-2.29-3.84-3.5-.19-.71-.57-2.13-.76-2.83z"/>
        <path d="M31.12 64.88c2.14-4.84 6.13-9.71 11.84-9.91 6.89-1.07 12.8 7.31 9.71 13.47-1.49 3.44-4.34 6.1-7.67 7.74-2.46 1.03-3.26 3.74-4.32 5.93-5.38.46-10.5 4.04-15.96 1.94.55.29 1.65.87 2.2 1.17 1.09 3.1 4.13 6.58 2.22 9.83 2.44-3.82 6.3.21 8.04 2.61-3.33-.23-7.93.2-9.93-3-1.2-4.19-2.89-8.2-4.95-12.03 4.72-1.83 7.6-7.2 13.21-6.87-1.66-3.54-3.04-7.21-4.39-10.88z"/>
        <path d="M53.57 59.5c4.57 1.75 9.51 2.66 14.41 2.5-3.33 4.42-1.57 9.95-.39 14.78-6.25 1.55-12.7.76-18.76-1.18 4.27-4 8.08-10.34 4.74-16.1z"/>
        <path d="M70.5 61.61c3.95-.31 8.38-1.66 11.9.85 4.94 3.04 10.71 5.21 14.35 9.95 1.24 1.55 2.34 3.21 3.45 4.86-2.37-.28-4.45-1.53-6.01-3.3-2.37-2.72-5.6-4.46-8.06-7.08 1.18 5.6 4.93 10.16 6.02 15.79 1.11 1.67 2.22 3.36 3.37 5.01-.55.26-1.64.79-2.19 1.05 3.41.93 8.39-.01 10.27 3.72 2.07 4.06 3.55 8.39 5.16 12.65-1.18 2.34-2.4 4.66-3.75 6.92-2.38-.03-4.76-.03-7.14-.07.79-.85 1.59-1.69 2.4-2.53 2.39.47 3.72-1.68 4.94-3.32.91-.84-.2-1.8-.5-2.63-1.81-3.18-3.94-6.16-5.93-9.22-2.02 1.39-4.51.79-6.79.8-4.67-.29-9.5-1.05-13.49-3.67-2.62-1.56-6.19-2.98-6.59-6.46-.99-5.17-3.29-9.94-4.71-14.98-.17-2.96.47-6.83 3.3-8.34zM34.07 84.65c2.15.62 3.7 2.3 5.43 3.61-1.11 2.23-1.41 4.8-2.81 6.9-1.07-.93-2.18-1.81-3.3-2.68.85-2.53.57-5.21.68-7.83zM65.63 91.25c2.07-.49 4.13-1 6.21-1.45.68 2.23 1.24 4.49 1.97 6.7-3.49 2.62-7.58 4.26-11.31 6.5-.67-.18-1.99-.54-2.65-.73-.14.65-.41 1.93-.55 2.57-1.83 1.43-3.6 2.94-5.47 4.32.32-2.75.94-6.13 3.69-7.49 3.97-2.14 7.97-4.25 11.57-6.97-1.34-.95-2.46-2.16-3.46-3.45zM31.41 99.08c1.08.07 2.15.14 3.23.22-.86 2.13-1.67 4.3-2.76 6.33-1.16.94-1.87 2.23-2.39 3.6-2.5.64-5.22.88-7.69.02 1.07-2.84 4.67-3.84 7.47-3.47-.31-.28-.92-.85-1.22-1.14 1.33-1.72 2.47-3.58 3.36-5.56z"/>
    </g>
    <path fill="#fbfbfb" d="M50.51 27.71c2.65.16 5.36 1.02 6.9 3.33-3.16.27-6.28-.53-9.43-.32.63-.76 1.9-2.26 2.53-3.01z"/>
</svg>
