<svg width="128pt" height="128pt" viewBox="0 0 128 128" xmlns="http://www.w3.org/2000/svg">
    <path fill="#fff" d="M58.13 25c.75-.02 2.26-.04 3.01-.05 2.5 2.75 3.49 6.63 6.5 8.94 1.82-3.19 3.7-7.1 7.61-8.06 3.54.17 3.47 5.06 5.17 7.45l3.82-.44c1.97 2.54 1.32 5.94 1.87 8.92 3.64-2.62 7.84-6.02 12.64-4.71 3.06 2.15 1.62 6.06.56 8.87 1.36.29 2.66.76 3.89 1.43-.56 4.92-3.1 9.23-4.86 13.69 3.74.23 7.5-.43 11.22.06 2.52 1.68.55 4.83-.81 6.62-4.13 4.33-9.09 7.91-14.42 10.61 1.17 2.46 2.96 5.62 1.22 8.21-6.49 2.47-13.8 3.16-20.27.25-.84 4.61-5.1 7.19-7.93 10.54-2.66 2.53-5.18 6.7-9.48 5.64-3.55-1.09-4.28-5.17-5.75-8.08-1.37-2.43-.9-5.27-.89-7.92-7.31 3.21-16.2 5.08-23.7 1.45-2.14-.66-1.73-3.21-1.07-4.82 2.08-4.5 6.79-6.87 11.24-8.43-5.82-2.86-12.43-4.95-16.53-10.33-1.88-2.02-5.82-4.97-2.89-7.81 6.03.34 12.07 1.04 18.15.52-2.13-5.65-8.12-10.84-5.28-17.4 2.53-1.44 4.97 1.03 7.55 1.18-.26-3.82-.27-8.6 2.75-11.35 2.26.19 4.28 1.49 6.04 2.85 1.87.12 3.66.69 5.36 1.47-.28-3.96 2.89-6.64 5.28-9.3z"/>
</svg>
