<svg width="128pt" height="128pt" viewBox="0 0 128 128" xmlns="http://www.w3.org/2000/svg">
    <g fill="#bb2426">
        <path d="M58.12 24.88c.74-.01 2.22-.04 2.96-.05 2.53 2.72 3.67 6.42 6.35 9.03 1.12-1.69 2.22-3.4 3.27-5.15.32.31.97.93 1.29 1.24-1.08 1.53-1.96 3.2-2.65 4.94 1.23 2.82 2.67 5.55 3.6 8.5.44 1.27.85 2.55 1.29 3.82-1.63-1.29-3.32-2.5-5.07-3.62-1.41 2.09-2.9 4.56-1.72 7.12 1.37.69 2.89.98 4.34 1.45 1.26.81 2.45 1.73 3.64 2.64.92-.28 1.84-.56 2.75-.83 1.4.11 2.8.26 4.2.44-1.87.74-3.85 1.27-5.59 2.31-1.85 1.57-1.8 4.21-2.46 6.36-.58-.93-1.15-1.86-1.73-2.79-2.52.4-6.25-.86-7.48 2.13 2.12 1.23 4.08 2.75 5.38 4.87-1.64 1.04-3.35 1.99-5.24 2.49-2-4.38-7.14-1.36-10.34-.22.3.96.61 1.93.93 2.88-3.03-2.09-6.15-5.18-10.14-3.58-.14.6-.43 1.8-.57 2.4-2.57-1.88-3.86-4.79-4.89-7.69-2.66-.63-5.41-1.16-7.77-2.61 2.95-.04 5.84.61 8.7 1.3-.03-.53-.08-1.59-.11-2.12l-.09-.57c-.2-4.82-5.1-8.85-3.24-13.79 1.04-1.68 2.91-.49 4.16.23 2.29 1.58 4.14 3.68 6.28 5.44-.04-3.12-3.03-4.82-5.22-6.5-3.33-2.01-7.2-3.61-11.17-3.29-.32 1.5-.69 2.99-1.02 4.49-.42-1.96-.88-4.31.49-6.01 2.39-1.63 4.86.91 7.32 1.18-.52-3.46.22-6.97 1.52-10.18 1.9-2.44 5.32-.06 7.01 1.51.25.18.75.55 1 .74 2.11-1.15 3.61.43 4.62 2.13-1.75.01-3.5-.05-5.24-.14-1.66-1.61-3.75-4.23-6.36-3.15-1.38 3.14-.65 6.68-.57 9.99 1.71 1.01 3.42 2.04 5.11 3.09.19-3.14-1.08-7.24 1.82-9.5-.03 2.84-.25 5.66-.28 8.5.14 1.19.44 2.35.71 3.51 1.4-.85 2.79-1.72 4.17-2.6 1.24 1.04 2.44 2.13 3.61 3.25.8-1.57 1.6-3.14 2.39-4.71-.21-1.83-.4-3.66-.66-5.48.95 1.67 1.94 3.32 3.01 4.91.94-3.4 1.87-6.91 4.21-9.66-1.41-2.6-3.01-5.11-4.74-7.52-2.5 1.68-4.04 4.3-5.53 6.84.09.7.28 2.11.37 2.81-.27.41-.82 1.24-1.1 1.65-2.02-2.17-.01-5.24.46-7.68 1.17-1.72 2.6-3.24 4.02-4.75m6.43 10.65c-1.19 2.94-3.45 6.7-1.41 9.67-1.79.23-4.16-.22-5.19 1.7-.75 1.93-1.01 4-1.44 6.02 3.07-.51 6.16-1 9.11-2.04l-.36-3.43c1.17-2.52 3.04-4.59 5.65-5.65-.49-1.9-.9-3.94-2.4-5.33-.96-1.09-2.83-2.9-3.96-.94M42.95 59.8c1.38 2.6 3.05 5.1 5.52 6.78-.61-2.38-1.49-4.67-2.49-6.91-.75.03-2.27.1-3.03.13m10.49 1.67c.9 1.97 1.81 3.94 2.77 5.88 1.14-1.03 1.88-2.38 2.61-3.72-1.29-1.26-2.6-2.51-3.93-3.73-.49.52-.97 1.04-1.45 1.57zM103.13 60.96l1.13-.01c1.5.06 3 .05 4.5.01.49.28 1.47.86 1.95 1.14-.2.13-.61.39-.81.52-3.25-.14-6.5.01-9.72.48.76-.99 1.84-1.62 2.95-2.14z"/>
    </g>
    <g fill="#a52023">
        <path d="M70.7 28.71c1.78-1.39 3.73-3.79 6.26-2.77 1.46 2.16 2.29 4.68 3.53 6.97 1.56.06 3.43-.43 4.64.86.77 2.58.69 5.33 1.25 7.96 3.32-2.96 7.8-6.06 12.47-4.72 3.13 2.09 1.66 6.21.54 9 .73.16 2.2.49 2.93.65 1.8 1.34.28 3.66-.19 5.29-.82 3.05-2.03 5.98-4.07 8.42 1.64.53 3.36.61 5.07.59-1.11.52-2.19 1.15-2.95 2.14-.24.42-.72 1.25-.96 1.67-.3-.16-.91-.46-1.22-.61-.84-.44-1.67-.89-2.5-1.34-3.86 3-8.57 4.3-13.1 5.85-2.42 2.21-4.22 5.11-7.2 6.7l1.5 1.65c-.16.46-.47 1.39-.63 1.86-.77 1.56-1.66 3.07-2.53 4.57 4.29 3.21 9.74 3.63 14.87 4.21-3.16.46-6.36.66-9.54.41-1.15-.31-2.26-.74-3.38-1.14-.63 1.87-1.59 3.59-2.74 5.19l-.15-.11c-.39-.28-1.17-.85-1.57-1.13.88-1.88 4.22-4.81 1.69-6.48-6.38 1-13.28-2.79-19.15 1.08-1.25 2.57-.7 6.05.21 8.78 1.3 2.6 1.85 6.63 5.2 7.29 3.82-.39 5.68-4.25 8.35-6.5l.37.18.93 1.14c-3.35 2.97-6.26 7.83-11.49 6.79-4.25-4.01-6.66-10.17-5.96-16.02-.93.37-1.84.77-2.8 1.05-.89-.16-2.68-.49-3.57-.65 2.7-.9 5.29-2.09 7.86-3.29-2.58-1.85-5.24-3.91-6.39-7-.26-1.05-.53-2.09-.82-3.14 1.16-.28 2.33-.56 3.5-.83 2.78 1.69 5.88 2.85 9.19 2.76-.76-1.21-1.53-2.4-2.31-3.6-.32-.95-.63-1.92-.93-2.88 3.2-1.14 8.34-4.16 10.34.22 1.89-.5 3.6-1.45 5.24-2.49.36.09 1.06.27 1.42.36.95-1.44 1.9-2.9 2.41-4.57.66-2.15.61-4.79 2.46-6.36 1.74-1.04 3.72-1.57 5.59-2.31-1.4-.18-2.8-.33-4.2-.44 1.59-1.26 1.84-3.34 2.37-5.17.22 1.44.47 2.88.72 4.32 1.66-3.06 4.77-6.14 3.67-9.91-.64-2.29-1.18-4.78-2.67-6.69-.91-.19-1.85-.24-2.77-.34-.37-.9-.73-1.82-1.1-2.73-.88-2.21-1.67-4.46-2.42-6.73-1.34 1.07-2.69 2.11-3.98 3.23-.32-.31-.97-.93-1.29-1.24m21.12 11.63l-.3-.25c-1.9 1.56-4.58 2.62-5.6 4.95-.96 2.35 1.17 4.04 2.51 5.63 2.47-1.75 5.2-3.03 7.98-4.2l.22.66c1.09-2.83 3.73-6.16 1.14-8.96-2.1.36-4.26.75-5.95 2.17M88.2 52.2c-.59 3.25-1.05 6.58-2.27 9.67-.8 1.94-3.13 3.11-3.17 5.36 4.94-1.25 9.34-4.1 13.19-7.37 3.55-2.96 3.92-7.9 5.33-12.01-4.42 1.18-9.42 1.28-13.08 4.35M72.03 71.6c-3.36-.1-6.68.67-8.45 3.78-.55-.79-1.1-1.58-1.64-2.37-1.06.3-2.12.61-3.17.91.49 1.91 2.64 2.41 4.07 3.4-.31 1.14-.63 2.28-.95 3.42 2.96 2.77 7.16 2.4 10.89 2.13.92-2.34 3.03-5.11.3-7.06 2.28-1.85 4.67-3.61 6.5-5.93-2.62-.09-6.36-1.59-7.55 1.72m-24.27 4.34c.8 2.11 1.96 4.06 3.39 5.81 3.19.43 6.45 1 9.63.13-.09-1.65.9-5.12-1.84-4.89-3.8.37-7.44-.81-11.18-1.05zM23.09 67.12c1.14.17 2.27.37 3.4.58 2.38 1.09 4.66 2.38 6.97 3.62 1.5.8 3.05 1.5 4.61 2.18-.25-.71-.74-2.12-.99-2.83 1.39.53 2.77 1.07 4.15 1.6-.62.32-1.86.96-2.47 1.28.96.69 1.94 1.36 2.93 2.02-3.75 1.27-7.25 3.11-10.76 4.91l-.24.11c-.84.06-1.67.11-2.5.16 2.22-2.26 4.89-4.11 7.97-4.96.59-.21 1.19-.42 1.78-.62-1.68-.76-3.37-1.51-5.08-2.22-3.54-1.4-6.94-3.25-9.77-5.83z"/>
    </g>
    <path fill="#5d1310" d="M54.37 32.85c1.49-2.54 3.03-5.16 5.53-6.84 1.73 2.41 3.33 4.92 4.74 7.52-2.34 2.75-3.27 6.26-4.21 9.66-1.07-1.59-2.06-3.24-3.01-4.91-.62-1.11-1.75-1.79-2.68-2.62-.09-.7-.28-2.11-.37-2.81z"/>
    <path fill="#500f0e" d="M71.99 29.95c1.29-1.12 2.64-2.16 3.98-3.23.75 2.27 1.54 4.52 2.42 6.73-2.84 1.29-5.93 2.09-9.05 1.44.69-1.74 1.57-3.41 2.65-4.94z"/>
    <path fill="#581110" d="M52.86 32.25c.31-.65.93-1.96 1.24-2.62-.47 2.44-2.48 5.51-.46 7.68-4.1-.46-6.25 3.38-6.44 7 .03-2.84.25-5.66.28-8.5-2.9 2.26-1.63 6.36-1.82 9.5-1.69-1.05-3.4-2.08-5.11-3.09-.08-3.31-.81-6.85.57-9.99 2.61-1.08 4.7 1.54 6.36 3.15 1.74.09 3.49.15 5.24.14-1.01-1.7-2.51-3.28-4.62-2.13-.25-.19-.75-.56-1-.74 1.92-.05 3.83-.38 5.76-.4z"/>
    <path fill="#761818" d="M78.39 33.45c.37.91.73 1.83 1.1 2.73.92.1 1.86.15 2.77.34 1.49 1.91 2.03 4.4 2.67 6.69 1.1 3.77-2.01 6.85-3.67 9.91-.25-1.44-.5-2.88-.72-4.32-.53 1.83-.78 3.91-2.37 5.17-.91.27-1.83.55-2.75.83-1.19-.91-2.38-1.83-3.64-2.64.72-.89 1.42-1.8 2.1-2.72.62.89 1.24 1.78 1.85 2.67.1-.73.29-2.19.39-2.93 1.01-1.04 2.08-2.03 2.94-3.2.95-1.83-.99-3.2-2.05-4.39.08-1.04.17-2.09.25-3.14-1.57 1.53-3.01 3.18-4.32 4.94-.93-2.95-2.37-5.68-3.6-8.5 3.12.65 6.21-.15 9.05-1.44z"/>
    <path fill="#9c1f21" d="M64.55 35.53c1.13-1.96 3-.15 3.96.94 1.5 1.39 1.91 3.43 2.4 5.33-2.61 1.06-4.48 3.13-5.65 5.65l.36 3.43c-2.95 1.04-6.04 1.53-9.11 2.04.43-2.02.69-4.09 1.44-6.02 1.03-1.92 3.4-1.47 5.19-1.7-2.04-2.97.22-6.73 1.41-9.67z"/>
    <path fill="#941d1e" d="M54.74 35.66c.93.83 2.06 1.51 2.68 2.62.26 1.82.45 3.65.66 5.48-.79 1.57-1.59 3.14-2.39 4.71-1.17-1.12-2.37-2.21-3.61-3.25-1.38.88-2.77 1.75-4.17 2.6-.27-1.16-.57-2.32-.71-3.51.19-3.62 2.34-7.46 6.44-7 .28-.41.83-1.24 1.1-1.65z"/>
    <path fill="#420c08" d="M91.82 40.34c1.69-1.42 3.85-1.81 5.95-2.17 2.59 2.8-.05 6.13-1.14 8.96l-.22-.66c-.42-2.75-2.49-4.56-4.59-6.13z"/>
    <path fill="#9a1c1e" d="M72.94 43.39c1.31-1.76 2.75-3.41 4.32-4.94-.08 1.05-.17 2.1-.25 3.14 1.06 1.19 3 2.56 2.05 4.39-.86 1.17-1.93 2.16-2.94 3.2.44-1.57.99-3.11 1.49-4.66-2.09.9-2.94 2.94-3.73 4.92-.68.92-1.38 1.83-2.1 2.72-1.45-.47-2.97-.76-4.34-1.45-1.18-2.56.31-5.03 1.72-7.12 1.75 1.12 3.44 2.33 5.07 3.62-.44-1.27-.85-2.55-1.29-3.82z"/>
    <path fill="#631313" d="M91.52 40.09l.3.25c2.1 1.57 4.17 3.38 4.59 6.13-2.78 1.17-5.51 2.45-7.98 4.2-1.34-1.59-3.47-3.28-2.51-5.63 1.02-2.33 3.7-3.39 5.6-4.95z"/>
    <path fill="#841818" d="M31.78 41.66c3.97-.32 7.84 1.28 11.17 3.29 2.19 1.68 5.18 3.38 5.22 6.5-2.14-1.76-3.99-3.86-6.28-5.44-1.25-.72-3.12-1.91-4.16-.23-1.86 4.94 3.04 8.97 3.24 13.79-1.39-1.42-3.03-2.69-3.9-4.53-2.14-4.3-5.06-8.4-5.29-13.38z"/>
    <path fill="#bd282e" opacity=".98" d="M30.76 46.15c.33-1.5.7-2.99 1.02-4.49.23 4.98 3.15 9.08 5.29 13.38.87 1.84 2.51 3.11 3.9 4.53l.09.57c-5.89-1.86-12.13-.77-18.18-1.24-.71.01-2.14.02-2.85.03-.79.17-2.37.51-3.16.67l.59-2.16c1.98-.63 4.03-.48 6.01 0 4.34 1.03 8.81.41 13.2.17l-.53-.73c-1.36-3.8-4.9-6.65-5.38-10.73z"/>
    <path fill="#be2629" d="M73.88 49.44c.79-1.98 1.64-4.02 3.73-4.92-.5 1.55-1.05 3.09-1.49 4.66-.1.74-.29 2.2-.39 2.93-.61-.89-1.23-1.78-1.85-2.67z"/>
    <path fill="#7e191b" d="M88.2 52.2c3.66-3.07 8.66-3.17 13.08-4.35-1.41 4.11-1.78 9.05-5.33 12.01-3.85 3.27-8.25 6.12-13.19 7.37.04-2.25 2.37-3.42 3.17-5.36 1.22-3.09 1.68-6.42 2.27-9.67z"/>
    <path fill="#2b090a" opacity=".49" d="M17.46 57.44c.41-.22 1.24-.65 1.66-.87 5.66.37 11.34.53 17.02.31l.53.73c-4.39.24-8.86.86-13.2-.17-1.98-.48-4.03-.63-6.01 0z"/>
    <path fill="#5b1311" d="M20.03 58.93c.71-.01 2.14-.02 2.85-.03.25.42.77 1.25 1.03 1.66-.49.23-1.47.69-1.96.91 1.15.96 2.28 1.94 3.45 2.86 1.95 1.34 4.05 2.44 6.05 3.72.88.9 1.83 1.71 2.87 2.41l-.86.86c-2.31-1.24-4.59-2.53-6.97-3.62-2.78-2.2-5.27-4.75-7.21-7.71h-.54l-.71.01 2-1.07z"/>
    <path fill="#841b18" d="M22.88 58.9c6.05.47 12.29-.62 18.18 1.24.03.53.08 1.59.11 2.12-2.86-.69-5.75-1.34-8.7-1.3 2.36 1.45 5.11 1.98 7.77 2.61 1.03 2.9 2.32 5.81 4.89 7.69.14-.6.43-1.8.57-2.4 3.99-1.6 7.11 1.49 10.14 3.58.78 1.2 1.55 2.39 2.31 3.6-3.31.09-6.41-1.07-9.19-2.76-1.17.27-2.34.55-3.5.83.29 1.05.56 2.09.82 3.14-1.54-.52-3.09-1.04-4.59-1.68-.99-.66-1.97-1.33-2.93-2.02.61-.32 1.85-.96 2.47-1.28-1.38-.53-2.76-1.07-4.15-1.6.25.71.74 2.12.99 2.83-1.56-.68-3.11-1.38-4.61-2.18l.86-.86c1.86-1.73-1.29-3.53-2.87-2.41-2-1.28-4.1-2.38-6.05-3.72.24-.84-.56-2.8.9-2.7 2.05-.59 4.88.32 6.24-1.69-2.89-.17-5.82-.13-8.63.62-.26-.41-.78-1.24-1.03-1.66z"/>
    <path fill="#cd2a2f" d="M17.19 60.91c.39-.23 1.16-.69 1.55-.92h.54c1.94 2.96 4.43 5.51 7.21 7.71-1.13-.21-2.26-.41-3.4-.58-.64-.72-1.26-1.46-1.86-2.21-.49-.89-1.17-1.6-2.02-2.14-.51-.46-1.51-1.39-2.02-1.86z"/>
    <path fill="#af2326" d="M23.91 60.56c2.81-.75 5.74-.79 8.63-.62-1.36 2.01-4.19 1.1-6.24 1.69-1.46-.1-.66 1.86-.9 2.7-1.17-.92-2.3-1.9-3.45-2.86.49-.22 1.47-.68 1.96-.91z"/>
    <path fill="#901c19" d="M42.95 59.8c.76-.03 2.28-.1 3.03-.13 1 2.24 1.88 4.53 2.49 6.91-2.47-1.68-4.14-4.18-5.52-6.78z"/>
    <path fill="#9a1e1f" d="M53.44 61.47c.48-.53.96-1.05 1.45-1.57 1.33 1.22 2.64 2.47 3.93 3.73-.73 1.34-1.47 2.69-2.61 3.72-.96-1.94-1.87-3.91-2.77-5.88z"/>
    <path fill="#8e1c1e" d="M65.11 62.42c1.23-2.99 4.96-1.73 7.48-2.13.58.93 1.15 1.86 1.73 2.79-.51 1.67-1.46 3.13-2.41 4.57-.36-.09-1.06-.27-1.42-.36-1.3-2.12-3.26-3.64-5.38-4.87z"/>
    <path opacity=".31" d="M104.26 60.95c.12-1.83 4.51-1.89 4.5.01-1.5.04-3 .05-4.5-.01z"/>
    <path fill="#7b1818" d="M95.5 62.82c.83.45 1.66.9 2.5 1.34-5.09 6.13-12.06 10.27-19.53 12.85.65.08 1.96.23 2.61.3-1.67.52-3.33 1.07-5.01 1.57.16-.47.47-1.4.63-1.86l-1.5-1.65c2.98-1.59 4.78-4.49 7.2-6.7 4.53-1.55 9.24-2.85 13.1-5.85z"/>
    <path fill="#a52127" d="M110.71 62.1l.23-.14c.13 4.76-3.99 7.97-7.41 10.58-2.89 1.96-5.54 4.56-8.97 5.53l-.5.13c-.14 1.56.64 3.12 2.06 3.83l.05 1.14c-.3 1.31-.65 2.61-.93 3.93-.5.05-1.51.14-2.01.19-1.4.03-2.8-.02-4.17-.28 1.92-.79 3.86-1.54 5.8-2.26-.46-1.89-.96-3.85-2.54-5.12-3.29-2.15-7.34-4.12-11.24-2.32-.65-.07-1.96-.22-2.61-.3 7.47-2.58 14.44-6.72 19.53-12.85.31.15.92.45 1.22.61-2.51 5.45-7.93 8.36-13.14 10.72 2.15.47 4.26 1.08 6.33 1.82 6.59-3.78 13.89-7.62 17.49-14.69.2-.13.61-.39.81-.52z"/>
    <path opacity=".33" d="M19.21 62.77c.85.54 1.53 1.25 2.02 2.14-1.81.4-2.48-.31-2.02-2.14z"/>
    <path fill="#521110" d="M100.18 63.1c3.22-.47 6.47-.62 9.72-.48-3.6 7.07-10.9 10.91-17.49 14.69-2.07-.74-4.18-1.35-6.33-1.82 5.21-2.36 10.63-5.27 13.14-10.72.24-.42.72-1.25.96-1.67z"/>
    <path fill="#ae2224" d="M31.45 68.05c1.58-1.12 4.73.68 2.87 2.41-1.04-.7-1.99-1.51-2.87-2.41z"/>
    <path fill="#81191e" d="M72.03 71.6c1.19-3.31 4.93-1.81 7.55-1.72-1.83 2.32-4.22 4.08-6.5 5.93 2.73 1.95.62 4.72-.3 7.06-3.73.27-7.93.64-10.89-2.13.32-1.14.64-2.28.95-3.42-1.43-.99-3.58-1.49-4.07-3.4 1.05-.3 2.11-.61 3.17-.91.54.79 1.09 1.58 1.64 2.37 1.77-3.11 5.09-3.88 8.45-3.78z"/>
    <path fill="#1f0706" opacity=".41" d="M32.86 72.95c1.71.71 3.4 1.46 5.08 2.22-.59.2-1.19.41-1.78.62-1.09-.96-2.19-1.9-3.3-2.84z"/>
    <g fill="#681415">
        <path d="M30.93 80.48c3.51-1.8 7.01-3.64 10.76-4.91 1.5.64 3.05 1.16 4.59 1.68 1.15 3.09 3.81 5.15 6.39 7-2.57 1.2-5.16 2.39-7.86 3.29-4.21.89-8.6 1.79-12.87.68 2.37 0 4.72-.2 7.07-.41-2.88-2.23-6.06-4.21-8.08-7.33zM53.57 85.48c5.87-3.87 12.77-.08 19.15-1.08 2.53 1.67-.81 4.6-1.69 6.48-1.09 1.47-2.25 2.88-3.33 4.35l-.37-.18c-2.34-1.08-4.65-2.49-7.27-2.68-2.2.21-4.22 1.17-6.28 1.89-.91-2.73-1.46-6.21-.21-8.78z"/>
    </g>
    <path fill="#7e181b" d="M47.76 75.94c3.74.24 7.38 1.42 11.18 1.05 2.74-.23 1.75 3.24 1.84 4.89-3.18.87-6.44.3-9.63-.13-1.43-1.75-2.59-3.7-3.39-5.81z"/>
    <path fill="#6b1518" d="M81.08 77.31c3.9-1.8 7.95.17 11.24 2.32-.8.55-1.59 1.11-2.37 1.67-.77-.2-1.53-.41-2.29-.6-1.71 2.03-.7 4.99 1.4 6.31 1.37.26 2.77.31 4.17.28-4.55 1.82-9.65 2.1-14.36.78 3.18.25 6.38.05 9.54-.41-5.13-.58-10.58-1-14.87-4.21.87-1.5 1.76-3.01 2.53-4.57 1.68-.5 3.34-1.05 5.01-1.57z"/>
    <path fill="#3f0c0c" opacity=".62" d="M94.06 78.2l.5-.13c1.3.68 1.98 2.58 1.56 3.96-1.42-.71-2.2-2.27-2.06-3.83z"/>
    <path fill="#b9252d" opacity=".96" d="M28.19 80.75c.83-.05 1.66-.1 2.5-.16-.92 1.11-1.8 2.25-2.66 3.39.04 1.82.25 3.9-2.23 3.74.12-2.48.43-5.19 2.39-6.97z"/>
    <path fill="#4a0f0d" d="M87.66 80.7c.76.19 1.52.4 2.29.6.78-.56 1.57-1.12 2.37-1.67 1.58 1.27 2.08 3.23 2.54 5.12-1.94.72-3.88 1.47-5.8 2.26-2.1-1.32-3.11-4.28-1.4-6.31z"/>
    <path fill="#521013" d="M30.69 80.59l.24-.11c2.02 3.12 5.2 5.1 8.08 7.33-2.35.21-4.7.41-7.07.41-.94-.27-2.83-.82-3.78-1.09l.16 1.8c-.84-.4-1.68-.82-2.52-1.21 2.48.16 2.27-1.92 2.23-3.74.86-1.14 1.74-2.28 2.66-3.39z"/>
    <path fill="#0f0505" opacity=".39" d="M96.17 83.17c2.24 0 .96 4.34-.93 3.93.28-1.32.63-2.62.93-3.93z"/>
    <path fill="#b2252c" opacity=".98" d="M28.16 87.13c.95.27 2.84.82 3.78 1.09 4.27 1.11 8.66.21 12.87-.68.89.16 2.68.49 3.57.65-.98.39-1.97.74-2.98 1.05-4.75 1.07-9.68 1.33-14.5.58-.65-.22-1.94-.66-2.58-.89l-.16-1.8z"/>
    <path fill="#1a0507" opacity=".4" d="M30.9 89.82c4.82.75 9.75.49 14.5-.58-4.5 1.78-10 2.82-14.5.58z"/>
    <path fill="#cd2b30" d="M71.03 90.88c.4.28 1.18.85 1.57 1.13l-1.83 1.83c-.96.48-1.62 1.21-1.99 2.19l-.15.34-.93-1.14c1.08-1.47 2.24-2.88 3.33-4.35z"/>
    <path fill="#390c0b" d="M53.78 94.26c2.06-.72 4.08-1.68 6.28-1.89 2.62.19 4.93 1.6 7.27 2.68-2.67 2.25-4.53 6.11-8.35 6.5-3.35-.66-3.9-4.69-5.2-7.29z"/>
    <path fill="#020100" opacity=".29" d="M68.78 96.03c.37-.98 1.03-1.71 1.99-2.19.44 1.74-.22 2.47-1.99 2.19z"/>
</svg>
