<svg width="128pt" height="128pt" viewBox="0 0 128 128" xmlns="http://www.w3.org/2000/svg">
    <g fill="#9f2021">
        <path d="M14.13 20.21c2.43-3.04 6.65-3.45 10.15-2.33-.65 2.39-2.13 5.59.32 7.49 3.39 2.89 6.7 5.88 9.6 9.27 1.68.1 3.32.49 4.85 1.19 3.04-2.82 5.4-7.05 9.84-7.76 1.62-.54 3.25 0 4.83.39 1.12 2.25 2.52 4.44 2.79 7.01-2.94-.45-5.87-.95-8.81-1.4-1.43 1.36-2.56 2.98-3.18 4.86 1.15 5.29 5.61 8.71 9.46 12.08.95 1.02 2.49.52 3.72.71 7.87 8.92 16.45 17.2 24.15 26.26.47.96 1.18 1.69 2.13 2.2 2.58 2.32 4.83 5.01 6.91 7.78.43.99 1.11 1.74 2.05 2.26.95.65 1.83 1.51 1.91 2.73.14 1.1.74 1.82 1.82 2.16 1.36.57 2.08 1.96 2.93 3.08 2.35 3.74 5.8 7.46 4.99 12.25-5.53-.84-10.17-4.11-14.27-7.72-14.71-13.23-29.71-26.13-43.99-39.83.06-.72.18-2.16.23-2.88-3.15-3.35-6.2-6.9-9.98-9.57-3-1.02-6.02.35-8.09 2.53.71 2.95 1.42 5.91 1.56 8.94-2.51-.9-5.54-1.56-7.19-3.81-.45-3.11.3-6.46 2.42-8.83.84-.49 1.51-1.16 2-2.01 1.09-.98 2.27-1.85 3.42-2.75-.6-1.37-1.01-2.82-1.18-4.31-2.18-2.39-4.36-4.8-6.32-7.37-.44-.9-1.09-1.6-1.96-2.09-1.11-.77-2.13-1.68-3.3-2.36-1.83-.36-3.54.72-5.27 1.14-.69-3.12-.95-6.82 1.46-9.31z"/>
        <path d="M103.63 17.87c3.52-1.24 7.7-.61 10.14 2.4 2.46 2.44 2.24 6.13 1.45 9.23-1.7-.38-3.37-1.36-5.15-1.13-1.25.58-2.25 1.54-3.38 2.31-.87.49-1.51 1.19-1.91 2.11-1.96 2.6-4.3 4.88-6.47 7.29.13 1.5-.32 2.88-1.16 4.11 4.26 3.66 10.29 8.7 7.27 15-2.16 1.05-4.3 2.21-6.7 2.6.11-2.73.93-5.34 1.55-7.97-.79-3.3-4.97-4.28-7.84-3.36-3.68 2.22-6.39 5.65-9.37 8.69-1.14.85-.51 2.38-.63 3.56-2.01 1.81-3.55 6.36-6.94 4.84-3.4-3.19-6.07-7.07-9.27-10.46 1.58-1.84 3.21-3.63 4.91-5.36 1.52-.06 3.27.15 4.39-1.12 2.98-2.67 6.2-5.28 8.25-8.76 1.55-2.93-.71-8.4-4.47-7.53-2.33.3-4.63.8-6.95 1.16.32-2.44 1.52-4.6 2.59-6.76 1.58-.85 3.4-1.21 5.15-.63 4.52.72 6.76 5.22 10.01 7.94.38-.3 1.16-.89 1.55-1.19.71-.08 2.13-.24 2.84-.33 3.03-2.58 5.76-5.5 8.82-8.05l.14-.14c3.2-1.96 2.16-5.57 1.18-8.45zM45.16 79.06c2.15-2.63 4.38-5.21 6.84-7.56 2.39-.12 3.68 2.72 5.53 3.96 1.53 1.74 5.43 3.16 3.99 6.03-3.25 2.71-6.47 5.46-9.57 8.35-.93.49-1.64 1.2-2.13 2.13-1.54 1.72-3.22 3.32-5.01 4.78-.89.43-1.6 1.06-2.13 1.9-5.53 5.09-11.6 10.22-19.15 11.84-.56-3.27 1.04-6.58 2.8-9.23.84-.64 1.36-1.48 1.56-2.51 3.44-5.04 7.75-9.65 12.41-13.55 1.08-.35 1.71-1.08 1.88-2.19.25-.45.77-1.34 1.03-1.78.88-.52 1.53-1.24 1.95-2.17z"/>
    </g>
    <path fill="#4a0e0f" opacity=".71" d="M102.31 26.46l.14-.14-.14.14z"/>
    <path fill="#080102" opacity=".3" d="M21.24 30.74c.87.49 1.52 1.19 1.96 2.09-1.82.4-2.47-.29-1.96-2.09z"/>
    <path fill="#020000" opacity=".29" d="M104.78 32.79c.4-.92 1.04-1.62 1.91-2.11.53 1.78-.11 2.49-1.91 2.11z"/>
    <path fill="#010000" opacity=".27" d="M25.28 49.27c-.5-1.82.17-2.49 2-2.01-.49.85-1.16 1.52-2 2.01z"/>
    <path fill="#1e0606" opacity=".43" d="M81.85 77.98c1.78-.31 2.49.42 2.13 2.2-.95-.51-1.66-1.24-2.13-2.2z"/>
    <path fill="#0f0303" opacity=".32" d="M43.21 81.23c-.51-1.77.14-2.5 1.95-2.17-.42.93-1.07 1.65-1.95 2.17z"/>
    <path fill="#611315" opacity=".79" d="M40.3 85.2c-.38-1.65.25-2.38 1.88-2.19-.17 1.11-.8 1.84-1.88 2.19z"/>
    <path fill="#190505" opacity=".44" d="M90.89 87.96c1.78-.23 2.47.52 2.05 2.26-.94-.52-1.62-1.27-2.05-2.26z"/>
    <path fill="#140303" opacity=".39" d="M49.82 91.97c.49-.93 1.2-1.64 2.13-2.13.37 1.79-.34 2.5-2.13 2.13z"/>
    <path fill="#631414" opacity=".84" d="M94.85 92.95c1.6-.24 2.21.48 1.82 2.16-1.08-.34-1.68-1.06-1.82-2.16z"/>
    <path fill="#060101" opacity=".29" d="M42.68 98.65c.53-.84 1.24-1.47 2.13-1.9.39 1.82-.32 2.45-2.13 1.9z"/>
    <path fill="#240707" opacity=".46" d="M26.33 101.26c-.74-1.66-.22-2.49 1.56-2.51-.2 1.03-.72 1.87-1.56 2.51z"/>
</svg>
