<svg width="128pt" height="128pt" viewBox="0 0 128 128" xmlns="http://www.w3.org/2000/svg">
    <g fill="#fff">
        <path d="M103.67 18.14c3.82-1.91 8.64-.21 10.81 3.36 1.78 2.3 1.3 5.39.5 7.97-1.81-.51-3.77-2.19-5.61-.89-4.66 2.91-7.43 7.91-11.33 11.67-.12 1.44-.42 2.84-.87 4.21 2.57 2.22 5.38 4.38 6.96 7.46 1.12 2.13.71 4.59.57 6.88-2.23 1.13-4.49 2.18-6.82 3.07.22-2.97.84-5.89 1.67-8.75-2.06-2.83-6.53-4.47-9.46-1.98-3.23 2.7-6.26 5.7-8.9 8.98.83 3.72-3.04 5.93-5.3 8.2-4.24-3-6.84-7.63-10.54-11.19 2.21-2.04 3.93-6.38 7.58-5.13 3.72-2.98 7.65-6.03 10.07-10.23 1.31-3.02-.53-6.21-2.91-8.07-2.88.71-5.81 1.22-8.76 1.59 1.21-2.58 1.77-7.83 5.67-7.2 5.67-.5 8.58 4.98 12.25 8.21.43-.38 1.29-1.13 1.71-1.51l1.6.72c2.99-2.3 5.44-5.19 8.33-7.6 1.57-1.41 3.34-2.77 4.12-4.8-.02-1.75-.8-3.35-1.34-4.97zM34.23 91.29c6.45-6.33 11.78-13.68 18.18-20.06 3.48 2.76 6.64 5.88 9.96 8.83-1.34 1.81-3.13 3.17-4.86 4.58-8.44 7.53-16.04 16.12-25.58 22.31-2.62 1.77-5.67 2.76-8.79 3.11 1.19-7.42 5.97-13.55 11.09-18.77z"/>
    </g>
</svg>
