<svg width="128pt" height="128pt" viewBox="0 0 128 128" xmlns="http://www.w3.org/2000/svg">
    <g fill="#891c1e">
        <path d="M39.85 20.82c-1.36-5.11 7.4-7.15 8.53-2l-3.02-.18.59-1.76c-1.71.17-3.38.54-4.83 1.51l1.72 2.44c1.82-.85 3.56-2.13 5.64-1.24-.33.34-1.01 1.02-1.34 1.36-2.08.94-4.38.92-6.6.64-.13 2.56-.2 5.48-2.58 7.06 1.31.9 2.45 2.02 3.39 3.3-1.76-.37-3.54-.57-5.33-.57.32 1.17.66 2.34.99 3.51.75-.03 2.26-.1 3.01-.13-.09-.76-.26-2.27-.35-3.03 2.86.87 1.31 4.35-.45 5.55 1.14 1.32 2.6 2.47 2.73 4.4-.96-.44-1.92-.89-2.86-1.36l-2.03-.36-1.25-.25c.8-.66 1.6-1.32 2.39-1.98-.74-.61-1.48-1.21-2.23-1.8-.95-2.47-1.49-5.33 1.02-7.06-.96-1-1.89-2.03-2.76-3.11.3-1.28.56-2.56.79-3.86 1.29-1.55 2.98-1.82 4.83-1.08m-3.35.93c-.31 1.38-.61 2.76-.91 4.14l3.2.04c1.36-2.21-.31-3.56-2.29-4.18zM66.96 55.4c1.38.53 2.86.94 4.08 1.83-.22 1.15-.49 2.29-.81 3.41-1.19-1.68-2.29-3.43-3.27-5.24zM95.68 101.07c-1.6-2.84.12-5.93 2.45-7.71 2 2.19 4.1 4.3 6.28 6.32l-.81 6.42c-1.45-.32-2.88-.72-4.25-1.28.46-1.05.92-2.1 1.38-3.14-1.69-.18-3.4-.23-5.05-.61z"/>
    </g>
    <path fill="#320b0c" opacity=".61" d="M48.48 19.59l.36.62c.53 1.2 1.92 1.73 3.15 1.71l.98.07-.27.2c-.91.69-1.81 1.39-2.7 2.11-.78-1.02-1.61-1.12-2.46-.31-.43-.99-.56-2-.4-3.04.33-.34 1.01-1.02 1.34-1.36z"/>
    <path fill="#831e22" opacity=".85" d="M48.84 20.21c1.08-.93 3.59.22 3.15 1.71-1.23.02-2.62-.51-3.15-1.71z"/>
    <path fill="#661616" opacity=".87" d="M47.54 23.99c.85-.81 1.68-.71 2.46.31-.31.41-.92 1.22-1.22 1.63-.31-.48-.93-1.45-1.24-1.94z"/>
    <path fill="#bd2831" d="M50 24.3c.89-.72 1.79-1.42 2.7-2.11 1.52 2.62 3.12 5.19 4.71 7.76.02.53.05 1.58.06 2.1l-1.56-.16c-.32-.96-.64-1.93-.96-2.89-1.27.27-2.54.55-3.81.82-.8-1.29-1.59-2.59-2.36-3.89.3-.41.91-1.22 1.22-1.63z"/>
    <g fill="#a52431">
        <path d="M51.14 29.82c1.27-.27 2.54-.55 3.81-.82.32.96.64 1.93.96 2.89l1.56.16c-.01-.52-.04-1.57-.06-2.1 1.25 1.96 2.49 3.92 3.67 5.91-1.86.33-3.73.67-5.6 1-1.47-2.33-2.91-4.68-4.34-7.04zM35.81 39.71l1.25.25c.04 1.24.05 2.48.01 3.71.73.15 2.19.43 2.91.58l-.09-2.04c.57.74 1.14 1.48 1.69 2.22-1.07.69-2.15 1.38-3.23 2.05 2.1 2.7.98 6.69-1.72 8.52-.21-.03-.61-.07-.82-.1.28.67.82 2 1.1 2.67-.75-.09-2.24-.28-2.99-.37l-.46 1.35c-.12-.51-.38-1.51-.5-2.02.82-.96 1.75-1.81 2.64-2.71-2.9.55-2.44-3.31-1.33-4.73 1.04.81 1.31 1.94.79 3.37l2.88.08c.5-1.79.7-3.53-1.29-4.32.04-.37.14-1.11.18-1.48-.53-2.32-1.1-4.64-1.02-7.03z"/>
    </g>
    <g fill="#c6282c">
        <path d="M55.48 36.86c1.87-.33 3.74-.67 5.6-1 1.12 1.84 2.25 3.66 3.39 5.49.03.04.09.14.11.18 1.85 3.18 3.96 6.22 5.77 9.42.15 1.08.27 2.17.37 3.26-2.6-1.26-4.45-3.66-7.26-4.55-2.75-4.21-5.27-8.56-7.98-12.8zM35.81 54.9c.21.03.61.07.82.1 1.62 2.15 2.41 5.63.22 7.67l-.16.2-.86 1.04c.68.45 2.04 1.33 2.72 1.77-.57.67-1.15 1.33-1.74 1.98l.14-2.06c-.53.36-1.58 1.06-2.11 1.41l.02-1.32.43-1.39.11-.36c-3.07-1.19-3.7-4.63-2.44-7.41.12.51.38 1.51.5 2.02.15 1.01.29 2.03.44 3.05l3-.33c.02-1.23.03-2.47.01-3.7-.28-.67-.82-2-1.1-2.67z"/>
    </g>
    <path fill="#360c0d" opacity=".71" d="M64.47 41.35c.03.04.09.14.11.18-.02-.04-.08-.14-.11-.18z"/>
    <g fill="#b22426">
        <path d="M36.65 48.22c-2.36.82-1.91-3.06.18-1.48-.04.37-.14 1.11-.18 1.48zM82.39 75.28c1.2-.71 2.37-1.46 3.55-2.2 1.1 2.18 2.23 4.36 3.35 6.54-2.58.8-4.37 2.73-5.53 5.1-1.03-1.73-2.15-3.4-3.29-5.06-.03-.05-.1-.14-.13-.18l-1.59-2.26 1.64-.84c.05-.03.15-.08.2-.11l1.62-.88c.04-.03.14-.08.18-.11z"/>
    </g>
    <path fill="#b52429" d="M63.46 49.66c2.81.89 4.66 3.29 7.26 4.55-.1-1.09-.22-2.18-.37-3.26 4.46 7.17 8.95 14.34 13.33 21.56-7.14-.06-6.65-9.55-12.86-11.08-.17-.08-.53-.24-.71-.33l.12-.46c.32-1.12.59-2.26.81-3.41-1.22-.89-2.7-1.3-4.08-1.83-1.24-1.87-2.41-3.78-3.5-5.74z"/>
    <path fill="#de3839" d="M36.69 62.87l.16-.2-.16.2z"/>
    <path fill="#651515" opacity=".95" d="M70.82 61.43c6.21 1.53 5.72 11.02 12.86 11.08-1.57.86-3.12 1.76-4.66 2.69-2.73-4.59-5.88-8.95-8.2-13.77z"/>
    <path fill="#891b1e" d="M32.6 66.82c.65-1.12 1.55-1.96 2.69-2.52l-.43 1.39c-.95 1.65-.43 3.39.25 5.01l2.37-.8.24 1.89.15 1.94-.09.79.54.39.5.36-2.7-.06c.1.61.3 1.85.4 2.47.97-.11 1.95-.22 2.92-.32 1.63-1.62 2.42-3.74 2.92-5.95.47 1.7.89 3.41 1.24 5.15 1.62.52 3.26 1.02 4.9 1.49 1.31-1.4 2.66-2.76 4.03-4.09-.47 1.86-.96 3.72-1.47 5.57 1.21 1.14 2.39 2.31 3.54 3.5 1.9-.53 3.79-1.06 5.68-1.6-1.4 1.37-2.81 2.74-4.23 4.11.43 1.62.86 3.24 1.29 4.87 1.81.4 3.6.82 5.4 1.27-1.8.65-3.64 1.15-5.49 1.61-.21.99-.44 1.98-.68 2.97-2.76-.54-5.48-1.26-8.13-2.19-.22 2.2-.37 4.4-.48 6.61 1.33-.44 2.65-.89 3.98-1.33.55.79 1.11 1.58 1.66 2.38l-2.47 2.2.13.69.76 3.88c-1.14-1.06-2.27-2.13-3.41-3.19l-5.17 1.38-.24 2.35-.32 2.79c-1.57-1.14-1.48-3.34-2.13-5-1.55-.41-3.1-.83-4.65-1.26-1.41 1.4-2.8 2.82-4.19 4.23.54-1.91 1.06-3.83 1.55-5.75-1.16-1.12-2.3-2.27-3.42-3.43-1.9.53-3.79 1.06-5.69 1.58 1.39-1.42 2.79-2.84 4.18-4.25-.43-1.56-.86-3.12-1.27-4.68-1.86-.47-3.73-.92-5.59-1.38 1.87-.57 3.75-1.1 5.63-1.6.43-1.58.85-3.16 1.3-4.73-1.35-1.29-2.69-2.58-4.01-3.88 1.8.38 3.57.88 5.38 1.18 1.37-.9 2.44-2.19 3.61-3.32-.43-1.41-1.3-4.21-1.74-5.62.72.8 2.17 2.39 2.89 3.18.02-1.67.88-3.05 1.87-4.32-.93-.55-1.85-1.1-2.78-1.66-.4-1.43-.8-2.87-1.22-4.3z"/>
    <path fill="#771a1b" opacity=".89" d="M37.72 68.01l1.51.44c.12 1.41-.38 2.52-1.51 3.34l-.24-1.89.24-1.89z"/>
    <path fill="#912024" opacity=".86" d="M37.87 73.73l1.97-.16c.29 1.2-.22 1.65-1.52 1.34l-.54-.39.09-.79z"/>
    <path fill="#631417" opacity=".87" d="M82.21 75.39c.04-.03.14-.08.18-.11-.04.03-.14.08-.18.11z"/>
    <path fill="#601717" opacity=".77" d="M80.39 76.38c.05-.03.15-.08.2-.11-.05.03-.15.08-.2.11z"/>
    <path fill="#481411" opacity=".73" d="M80.34 79.48c.03.04.1.13.13.18-.03-.05-.1-.14-.13-.18z"/>
    <path fill="#9f2023" d="M83.76 84.72c1.16-2.37 2.95-4.3 5.53-5.1 2.66 4.75 5.58 9.36 8.84 13.74-2.33 1.78-4.05 4.87-2.45 7.71 1.65.38 3.36.43 5.05.61-.46 1.04-.92 2.09-1.38 3.14 1.37.56 2.8.96 4.25 1.28l.81-6.42 1.7 1.38c-.71 3.71-1.18 7.46-1.9 11.16-1.28-.58-2.7-.93-3.79-1.83-1.5-1.51-3.43-2.42-5.18-3.59-1.21-4.27-2.47-8.52-3.88-12.72-.25-1-1.1-1.65-1.73-2.4l-.08-.44c.44-.9.9-1.79 1.36-2.68-.62-.13-1.87-.38-2.49-.51-.35.48-1.05 1.45-1.4 1.93l.01-.85c.06-1.1-.44-1.91-1.5-2.42-.66-.6-1.25-1.27-1.77-1.99z"/>
    <path fill="#470e0f" opacity=".77" d="M85.53 86.71c1.06.51 1.56 1.32 1.5 2.42-1.59 0-2.09-.81-1.5-2.42z"/>
    <path fill="#7a1718" opacity=".96" d="M88.42 88.05c.62.13 1.87.38 2.49.51-.46.89-.92 1.78-1.36 2.68l.08.44c.63.75 1.48 1.4 1.73 2.4 1.41 4.2 2.67 8.45 3.88 12.72 1.75 1.17 3.68 2.08 5.18 3.59-2.27-.46-4.41-1.31-6.55-2.14-.31-2.58-.85-5.13-1.79-7.55-1.4-3.7-3.21-7.23-5.06-10.72.35-.48 1.05-1.45 1.4-1.93z"/>
    <path fill="#711718" d="M48.44 94.07c2.65.93 5.37 1.65 8.13 2.19-1.28 2.68 2.22 4.03 3.52 5.89-1.84-.49-3.66-1.04-5.48-1.61-.25.3-.76.89-1.01 1.19-.55-.8-1.11-1.59-1.66-2.38-1.33.44-2.65.89-3.98 1.33.11-2.21.26-4.41.48-6.61z"/>
    <path fill="#120303" opacity=".4" d="M92.08 100.7c.94 2.42 1.48 4.97 1.79 7.55-1.14-2.36-1.43-4.99-1.79-7.55z"/>
    <path fill="#210708" opacity=".53" d="M43.44 106.69l5.17-1.38c1.14 1.06 2.27 2.13 3.41 3.19l-.76-3.88c.65 1.6 1.27 3.21 1.84 4.84-2.1-.34-3.39-2.1-4.86-3.43l-3.94 1.11c-.28.48-.83 1.43-1.1 1.9l.24-2.35z"/>
</svg>
