<svg width="128pt" height="128pt" viewBox="0 0 128 128" xmlns="http://www.w3.org/2000/svg">
    <path fill="#fff" d="M39.92 21c-.77-3.86 3.07-5.37 6.23-5.18 1.27 1.24 1.89 2.8 1.75 4.59 2.99-1.48 4.6 1.72 5.92 3.84 9.84 16.09 19.97 32.01 29.6 48.23-1.47.78-2.91 1.62-4.29 2.56-10-16.09-19.84-32.29-29.9-48.35-.56-1.04-1.49-2.12-1.05-3.38.33.14 1 .43 1.33.57.63-.31 1.89-.94 2.52-1.25l-1.84-1.12c-.49.05-1.49.16-1.98.21l-.83-.32c-2.34-.14-4.71.14-7.04.34-.23 2.46 0 5.26-2.42 6.74 3.22 1.88 4.4 6.67 1.07 9.05 3.56 1.93 3.41 7.94-.81 8.92 2.28 2.78 1.09 7.19-2.19 8.59.52.57 1.55 1.7 2.06 2.27.15 2.45.12 4.98-2.27 6.38.73.57 1.47 1.12 2.22 1.66.86 2.46 1.71 5.24-.71 7.15.78.38 2.33 1.14 3.11 1.51-.46.54-.92 1.08-1.38 1.61l-.22-1.54c-.71.36-2.12 1.06-2.83 1.42.13.66.4 1.99.53 2.66 3.35-.52 5.28-3.47 6.02-6.55.32 1.71.64 3.42.99 5.12 1.68.47 3.35.97 5.04 1.43 1.26-1.36 2.53-2.7 3.85-4-.41 1.8-1.05 3.54-1.36 5.36 1.11 1.25 2.32 2.4 3.47 3.61 1.7-.46 3.39-.98 5.11-1.4-1.15 1.33-2.41 2.57-3.73 3.75.47 1.7.97 3.38 1.39 5.09 1.72.31 3.44.6 5.14.95-1.69.73-3.44 1.3-5.25 1.68-.34 1.66-.8 3.29-1.27 4.92 1.34 1.34 2.72 2.65 4.09 3.96-1.83-.56-3.68-1.09-5.53-1.58-1.1 1.26-2.3 2.43-3.53 3.56.55 1.76 1.09 3.53 1.57 5.31-1.33-1.28-2.61-2.62-3.9-3.94-1.65.46-3.31.89-4.97 1.33-.34 1.79-.65 3.59-.96 5.39-.69-1.8-1.33-3.61-1.94-5.44-1.52-.4-3.03-.81-4.52-1.3-1.48 1.36-2.93 2.77-4.38 4.16.5-1.78 1.56-3.5 1.67-5.38-.91-1.4-2.21-2.52-3.52-3.54-1.85.3-3.63.91-5.42 1.46 1.32-1.43 2.73-2.79 4.1-4.17-.47-1.55-.84-3.12-1.23-4.69-1.82-.43-3.62-.93-5.41-1.47 1.75-.46 3.57-.73 5.26-1.41.59-1.57.92-3.23 1.44-4.82-1.35-1.25-2.72-2.48-4.05-3.74 1.91.32 3.78.85 5.67 1.29 1.1-1.22 2.23-2.39 3.39-3.54-.62-1.8-1.2-3.62-1.78-5.44 1.19 1.25 2.35 2.54 3.48 3.84-.62-1.91-.28-3.66 1.03-5.26-2.68-.99-3.38-3.72-3.58-6.29.87-.89 1.72-1.8 2.46-2.8-3.37-.83-2.99-4.56-2.42-7.15.67-.37 2.01-1.1 2.68-1.47-3.41-2.42-2.05-7.66 1.62-9.01-1.89-2.8-1.78-6.56 1.03-8.67-.55-.36-1.66-1.08-2.21-1.44-1.06-2.6-1.24-5.33 1.14-7.24-1.02-.81-1.94-1.73-2.76-2.73.28-1.31.51-2.64.68-3.97 1.37-1.34 3.05-1.87 4.82-.93m1.2-2.96c.35.72 1.04 2.15 1.39 2.87 1.02-.18 2.05-.36 3.08-.54-.09-.47-.26-1.43-.35-1.9l1.93.57c-.82-3.46-4.04-1.73-6.05-1m-5.3 8.02c.77.09 2.32.27 3.09.37.08-.74.25-2.21.33-2.95l-2.06-2.1c-1.19 1.2-1.87 3.01-1.36 4.68m.03 5.45c.38 1.32.76 2.65 1.16 3.97.79-.17 2.39-.51 3.19-.68-.24-1.42-.54-2.82-.93-4.21-1.13.36-2.26.67-3.42.92M37 39.89v3.95c1.07.17 2.14.33 3.21.47.12-1.46.18-2.92.16-4.39-.84 0-2.53-.02-3.37-.03m-1.46 8.22c-.82 1.61-1.01 3.31-.57 5.09.38-.34 1.13-1.03 1.5-1.38l1.33 1.11.68-3.9c-.94-.51-1.92-.82-2.94-.92m-1.66 13.77c.78-.13 2.34-.4 3.12-.53v-4.39c-.31.2-.92.61-1.23.81-2.81-2.48-2.22 2.45-1.89 4.11m.09 4.58c-.3 1.91.63 3.56 1.81 4.97.08-.47.26-1.39.35-1.86.52.2 1.58.59 2.1.79-.31-1.43-.58-2.89-1.19-4.22l-3.07.32z"/>
    <path fill="#0b0b0b" opacity=".04" d="M33.97 66.46l3.07-.32c.61 1.33.88 2.79 1.19 4.22-.52-.2-1.58-.59-2.1-.79-.09.47-.27 1.39-.35 1.86-1.18-1.41-2.11-3.06-1.81-4.97z"/>
</svg>
