<svg width="128pt" height="128pt" viewBox="0 0 128 128" xmlns="http://www.w3.org/2000/svg">
    <g fill="#fff">
        <path d="M30.16 15.98c3.11 2.63 5.86 5.66 9.05 8.19-.05 8.85.15 17.71-.11 26.56 4.73 2.1 9.51 4.11 14.28 6.12 4.78.91 11.16-1.57 12.1-6.82.31-2.13-1.99-3.45-3.86-3.17.32-.56.96-1.67 1.28-2.22.66-2.86.76-5.9-.92-8.46 2.86.8 5.94 1.55 8.05 3.82 4.45 4.63 4.99 11.9 2.9 17.75-3.46 4.22-8.64 6.6-13.96 7.43.99 8.52-.12 18.07-6.21 24.6-5.67 6.15-14.62 7.6-22.61 7.22.1-10 .1-20 0-30H40v-1.95c-3.28.12-6.57.08-9.86.1.13-16.39.09-32.78.02-49.17z"/>
        <path d="M92.99 24.25c3.08-2.72 5.87-5.74 9.07-8.31.02 16.35-.01 32.7.01 49.06-11.52.09-23.05-.14-34.56.39 5.68-1.87 9.95-7.36 9.53-13.46 5.24-3.51 10.56-6.9 15.96-10.17-.02-5.84-.02-11.67-.01-17.51z"/>
    </g>
</svg>
