<svg width="128pt" height="128pt" viewBox="0 0 128 128" xmlns="http://www.w3.org/2000/svg">
    <path fill="#73171b" opacity=".92" d="M66.85 36.47c1.51-1.31 2.73-3.33 4.87-3.59l-.29.7c-.55 1.36-1.12 2.7-1.69 4.05-.96-.4-1.92-.78-2.89-1.16z"/>
    <g fill="#bb2426">
        <path d="M69.74 37.63c.57-1.35 1.14-2.69 1.69-4.05 3.23 3.2 6.02 6.82 8.43 10.67l-.12.59c-.45 2.06-.71 4.16-.87 6.27-1.83-1.35-4.19-2.48-4.45-5.02-.2 2-.54 4-1.06 5.94-1.1-2.06-2.23-4.1-3.16-6.25-.42 2.9-.48 5.82-.26 8.74.01.61.02 1.84.03 2.45-2.41-3.94-4.34-8.16-7.15-11.85-1.35.69-2.7 1.37-4.06 2.05.27-.78.82-2.35 1.09-3.13 1.49-2.96 3.05-7.72 7-7.57.97.38 1.93.76 2.89 1.16zM93.47 48.29c2.14-1.46 4.84-1.98 7.34-1.22 2.52 1.25 3.34 4.07 4.4 6.45.44-.23 1.32-.69 1.76-.91 1.44 1.98 2.85 4.03 4.88 5.47-7.94-.25-15.86.11-23.8-.04-.98-2.06-2.04-4.09-3.14-6.1 1.24-3.01 4.54-3.58 7.41-3.04-.36.61-1.07 1.84-1.43 2.45 1.22-.86 2.39-1.99 4.02-1.82l-1.44-1.24m-3.15 3.83c.39.42.39.42 0 0zM38.95 64.74c5.06-1.83 10.86-.11 14.28 3.99-4.54 0-8.47 3.23-9.61 7.57 2.68-4.04 7.89-6.88 12.63-4.6 4.07 1.53 5.44 5.89 6.71 9.62-.27-2.37-.34-4.81-1.19-7.06-.96-2.39-3.3-3.69-5.24-5.18 2.93-.77 6.24-1.3 8.89.56 2.75 1.31 3.69 4.31 5.06 6.75.19-.03.55-.1.73-.14 2.71 1.52 3.78 4.6 5.98 6.65 1.59 1.74 3.94 2.31 6.06 3.13-19.1.15-38.19-.07-57.29.08-2.9-.04-5.87.27-8.68-.64 2.58-1.12 5.6-2.79 5.81-5.96l1.72-.44c.34-.43 1-1.3 1.34-1.73l.43-.12c.66 1.69.28 3.69.98 5.42.42-1.88.63-3.81 1.27-5.64.38-.26 1.14-.79 1.52-1.06 2.14-1.28 4.44-.58 6.58.28-1.37-1.59-3.34-2.24-5.28-2.78.96-3.86 3.64-7.11 7.3-8.7z"/>
    </g>
    <path fill="#1d0606" opacity=".5" d="M57.1 46.26c1.04-.58 1.94-1.35 2.75-2.22-.27.78-.82 2.35-1.09 3.13 1.36-.68 2.71-1.36 4.06-2.05 2.81 3.69 4.74 7.91 7.15 11.85.51 1.13 1 2.27 1.44 3.44-3.94-3.69-5.73-9.09-9.46-13.02-1.75.58-3.5 1.14-5.23 1.75l.32-2.39.06-.49z"/>
    <path fill="#2a090a" opacity=".57" d="M78.87 51.11c.16-2.11.42-4.21.87-6.27.64.73 1.3 1.45 1.93 2.19-1.45 1.48-1.48 3.75-2.71 5.3-1.46-.01-2.46-1.34-3.67-2-.46 1.55-.96 3.08-1.4 4.63-1.13.37-2.26.74-3.38 1.11.09-.47.26-1.41.35-1.88l1.94-.69.56-1.47c.52-1.94.86-3.94 1.06-5.94.26 2.54 2.62 3.67 4.45 5.02z"/>
    <path fill="#881a1c" d="M70.2 45.78c.93 2.15 2.06 4.19 3.16 6.25l-.56 1.47-1.94.69-.92.33c-.22-2.92-.16-5.84.26-8.74z"/>
    <path fill="#440d10" d="M54.44 47.48c.65-.18 1.95-.54 2.6-.73l-.32 2.39c-.94 1.12-2.48 2-2.57 3.6.68 1.62 2.29 2.37 3.79 3.04-.26 3.83-.53 7.65-.56 11.48-.76.53-1.5 1.06-2.25 1.6-2.08-3.09-4.92-5.6-8.46-6.86l-1.05-.48c3.02-4.63 5.96-9.31 8.82-14.04z"/>
    <path fill="#6e1518" d="M56.72 49.14c1.73-.61 3.48-1.17 5.23-1.75 3.73 3.93 5.52 9.33 9.46 13.02.35 3.97-.28 7.95-.97 11.85-2.63-4.49-8.1-6.6-13.06-5 .03-3.83.3-7.65.56-11.48-1.5-.67-3.11-1.42-3.79-3.04.09-1.6 1.63-2.48 2.57-3.6z"/>
    <path fill="#731518" d="M78.96 52.33c1.23-1.55 1.26-3.82 2.71-5.3 2.4 5.73 5.44 11.17 8.08 16.8.75-.69 1.52-1.36 2.3-2.01.4.87.69 1.77.85 2.7-.77 2.4-1.6 4.78-2.33 7.19.71 1.35 1.42 2.7 2.13 4.06-.46.43-1.38 1.29-1.84 1.71-2.13-3.51-3.68-7.32-5-11.2-2.04 1.76-4.11 3.46-6.31 5.02-2.03-5.39-4.23-10.76-5.66-16.34.44-1.55.94-3.08 1.4-4.63 1.21.66 2.21 1.99 3.67 2m1.7 15.71c1.23-2.37.53-5 .07-7.46-2.32 1.78-2.36 5.63-.07 7.46z"/>
    <path fill="#3e1512" opacity=".76" d="M90.32 52.12c.39.42.39.42 0 0z"/>
    <path fill="#4a0f0d" d="M69.94 54.52l.92-.33c-.09.47-.26 1.41-.35 1.88 1.12-.37 2.25-.74 3.38-1.11 1.43 5.58 3.63 10.95 5.66 16.34 2.2-1.56 4.27-3.26 6.31-5.02 1.32 3.88 2.87 7.69 5 11.2 1.1 3.16 4.46 3.52 7.31 3 .68-1.43 1.37-2.85 2.06-4.27 1.87 2.4 3.49 4.99 4.92 7.67-8.26.21-16.52.14-24.78.05-2.05-2.09-3.84-4.42-5.53-6.8-.7-1.39-2.36-1.58-3.63-.88-.18.04-.54.11-.73.14l.85-.39c.24-1.33-.6-2.5-.89-3.74.69-3.9 1.32-7.88.97-11.85-.44-1.17-.93-2.31-1.44-3.44-.01-.61-.02-1.84-.03-2.45z"/>
    <path fill="#400b0b" d="M80.66 68.04c-2.29-1.83-2.25-5.68.07-7.46.46 2.46 1.16 5.09-.07 7.46z"/>
    <path fill="#140404" opacity=".33" d="M46.67 62c3.54 1.26 6.38 3.77 8.46 6.86.75-.54 1.49-1.07 2.25-1.6 4.96-1.6 10.43.51 13.06 5 .29 1.24 1.13 2.41.89 3.74l-.85.39c-1.37-2.44-2.31-5.44-5.06-6.75-2.65-1.86-5.96-1.33-8.89-.56 1.94 1.49 4.28 2.79 5.24 5.18.85 2.25.92 4.69 1.19 7.06-1.27-3.73-2.64-8.09-6.71-9.62-4.74-2.28-9.95.56-12.63 4.6 1.14-4.34 5.07-7.57 9.61-7.57-3.42-4.1-9.22-5.82-14.28-3.99 2.33-1.66 5.54-.8 7.72-2.74z"/>
    <path fill="#631413" d="M90.57 71.71c.73-2.41 1.56-4.79 2.33-7.19.97 2.38 1.73 4.84 2.4 7.31.52.15 1.55.46 2.07.61 1 1.16 2 2.32 3.01 3.47l-.15.3c-.69 1.42-1.38 2.84-2.06 4.27-2.85.52-6.21.16-7.31-3 .46-.42 1.38-1.28 1.84-1.71-.71-1.36-1.42-2.71-2.13-4.06z"/>
    <path fill="#210707" opacity=".5" d="M30.35 75.94c.44-.83.87-1.67 1.3-2.5 1.94.54 3.91 1.19 5.28 2.78-2.14-.86-4.44-1.56-6.58-.28z"/>
    <path fill="#340c0c" opacity=".58" d="M23.65 77.6c1.49-1.02 3.56-1.78 5.18-.6-.64 1.83-.85 3.76-1.27 5.64-.7-1.73-.32-3.73-.98-5.42l-.43.12c-.34.43-1 1.3-1.34 1.73l-1.72.44c.14-.47.42-1.43.56-1.91m.65.72c.44.46.44.46 0 0z"/>
    <path fill="#050101" opacity=".35" d="M71.21 76.25c1.27-.7 2.93-.51 3.63.88 1.69 2.38 3.48 4.71 5.53 6.8 8.26.09 16.52.16 24.78-.05.21.14.65.4.86.54-6.96.41-13.94-.14-20.9.34.15.57.46 1.72.62 2.3-23.33-.21-46.66-.27-69.98-.01.25-.43.76-1.29 1.02-1.72l.51.14c2.81.91 5.78.6 8.68.64 19.1-.15 38.19.07 57.29-.08-2.12-.82-4.47-1.39-6.06-3.13-2.2-2.05-3.27-5.13-5.98-6.65z"/>
    <path fill="#e73031" d="M24.3 78.32c.44.46.44.46 0 0z"/>
</svg>
