<svg width="128pt" height="128pt" viewBox="0 0 128 128" xmlns="http://www.w3.org/2000/svg">
    <g fill="#fff">
        <path d="M93.53 48.37c2.08-1.7 4.73-1.46 7.23-1.44 1.35 1.25 3.35 2.55 2.98 4.69.41.42 1.24 1.24 1.65 1.66 3.19-1.05 3.7 3.86 6.44 4.79-7.87-.32-15.75-.21-23.62-.1-1.08-2.07-2.11-4.17-3.22-6.22 1.46-2.59 4.28-3.21 7.04-2.8l-.12.64c-1.28.93-1.75 2.45-2.12 3.92.34-.55 1.03-1.65 1.37-2.2.57-.44 1.71-1.32 2.29-1.77 1.14.74 2.28 1.46 3.44 2.17-1.07-1.17-2.23-2.24-3.36-3.34m8.74 3.86c.46.48.46.48 0 0zM31.67 73.73c1.26-6.03 7.24-10.56 13.42-9.68 3.28.38 6.15 2.3 8.23 4.8-4.84-.21-8.92 3.64-9.91 8.22 2.19-5 8.47-7.83 13.45-5.19 3.76 1.73 4.9 5.92 6.21 9.47-.2-4.79-1.71-10.45-6.91-11.98 5.61-3.2 12.61.67 14.09 6.65 2.37.55 3.96 2.31 4.79 4.53 2.65 3.66 6.69 5.38 11.1 5.96-6.72-.69-13.47-.23-20.2-.35-16.57.1-33.15-.2-49.71.15 2.62-1.46 5.96-2.77 6.83-5.97.48-2.36 2.65-3.34 4.72-4-1.12 2.05-.83 4.35-.09 6.46.17-1.53.29-3.06.34-4.6 1.36-1.89 3.4-3.11 5.73-3.29.89.45 2.67 1.36 3.55 1.81-1.54-1.57-3.34-2.94-5.64-2.99z"/>
    </g>
    <path fill="#d0d0d0" opacity=".82" d="M102.27 52.23c.46.48.46.48 0 0z"/>
</svg>
