<svg width="128pt" height="128pt" viewBox="0 0 128 128" xmlns="http://www.w3.org/2000/svg">
    <g fill="#521113">
        <path d="M56.46 19.8c5.7-.48 10.89-3.49 16.62-3.55 4.85.51 7.82 4.68 10.53 8.23 4.78 4.65 8.28 10.84 8.95 17.53.24 1.67-.64 3.52-2.59 3.21-5.43.02-10.75-1.35-16.03-2.46-.29 1.46-.59 2.92-.91 4.38.09-.9.29-2.68.38-3.58l.1-.9c-12.17-2.7-25.03-5.71-34.71-14.04 5.09-4.2 11.33-7.06 17.66-8.82m12.76.66c-.61 3.25 3.93 4.72 6.48 4.22 1.55-.18 1.58-2.09.56-2.9-1.82-1.71-4.76-2.8-7.04-1.32m-20.26 9.27c4.31 4.15 14.43.8 13.25-5.68-4.37-3.6-13.45-.57-13.25 5.68m19.44-2.29c-4.57 1.82-4.86 8.51-1.01 11.22 3.34 2.22 8.15-.84 8.03-4.72.76-3.87-3.09-8.04-7.02-6.5m9.65 6.48c-.37 3.51 1.19 7.72 5 8.52 3.57.9 5.23-3.66 3.87-6.36-1-3.8-6.42-5.69-8.87-2.16zM77.43 61.48c6.75-2.41 14.57-1.38 20.6 2.42 3.83 2.26 5.39 6.63 7.88 10.08 2.54 3.85 6.37 7.32 6.45 12.26-7.82 3.97-17.24 1.66-25.04-1.32-7.87-3.84-15.05-9.61-19.91-16.95 2.17-3.56 6.25-5.19 10.02-6.49m-2.84 4.48c-.77 2.01.96 2.9 2.41 3.78 1.57-.97 4.47-2.25 3.24-4.61-1.16-2.54-4.58-1.08-5.65.83m16.6-1.73c-4.74 2.96 1.61 9.45 5.45 6.59 3.66-3.11-1.81-8.68-5.45-6.59m-9.73 5.04c-2.74 1.75-4.26 6.39-1.17 8.55 4.62 1.96 9.63-4.76 6.43-8.63-1.52-1.19-3.77-1.08-5.26.08m24.49 16.54c3.86-3.94-.31-10.96-5.2-11.79-3.33 4.07-.03 11.52 5.2 11.79m-13.46-8.35c-2.47 1.06-2.67 6.14.59 6.12 3.71-.43 3.44-7.81-.59-6.12z"/>
    </g>
    <g fill="#d62c2e">
        <path d="M63.48 48.29c3.28-1.65 6.57-3.27 9.93-4.73-.09.9-.29 2.68-.38 3.58-.73 4.63-1.63 9.24-2.39 13.88-2.86 1.57-5.19 3.97-6.28 7.1 1.32 1.65 2.67 3.28 4.01 4.9-1.72 1.05-3.43 2.12-5.14 3.19.35.86.7 1.72 1.04 2.58-2.46 2.3-3.16 5.58-3.75 8.75l-1.04-2.24c.06-4.02.59-8.24 3.35-11.38-1.66-.65-3.31-1.31-4.97-1.97.04-.58.11-1.76.15-2.35.25-2.19.5-4.41 1.11-6.53 1.51-2.45 5.01-4.9 3.22-8.1-1.22-1.9-.64-4-.15-6.04l1.13-.56.16-.08zM47.18 100.63c2.02-.4 4.05-.75 6.1-1.01-1.01 1.02-2.02 2.03-3.03 3.05.57.48 1.15.96 1.73 1.44-.45 1.62-.21 3.68 1.18 4.79.37-.57 1.1-1.71 1.47-2.28l.51-.11.65-.08c.14.62.42 1.87.57 2.5-.14.26-.42.79-.56 1.05l.28-.77-3.12.57c-1.94-2.19-3.49-4.68-4.95-7.2-.21-.49-.62-1.47-.83-1.95z"/>
    </g>
    <path fill="#621415" d="M24.89 51.46c2.32-2.65 5.21-5.48 9.02-5.29 9.8-.49 18.41 4.77 26.64 9.33 2.16 1.99.01 4.9-1.7 6.37-5.29 4.2-11.65 6.83-17.97 9.1-1.36-1.58-2.9-3-4.62-4.17 1.53-.04 3.47.4 4.48-1.12 2.72-2.94.1-8.02-3.7-8.23-2.46-.49-3.61 2.22-4.48 3.98-1.34.93-2.94 1.27-4.5 1.63-.3-2-.45-4.02-.47-6.04 2.29-.84 5.22-2.16 4.82-5.14-1.63-3.02-4.62-.22-6.09 1.41l-1.43-1.83m21.13.9c-.05 3.8 4.42 6.19 7.8 5.33 1.67-.54 1.17-2.61.04-3.45-1.97-2.22-5.08-2.84-7.84-1.88z"/>
    <path fill="#841e20" opacity=".86" d="M63.32 48.37l.16-.08-.16.08z"/>
    <path fill="#581113" d="M15.57 70.01c2.84-6.29 5.41-12.81 9.32-18.55l1.43 1.83c.43 1.24.86 2.48 1.27 3.73.02 2.02.17 4.04.47 6.04 1.56-.36 3.16-.7 4.5-1.63.6 2.17 1.58 4.31 3.7 5.37 1.72 1.17 3.26 2.59 4.62 4.17-8.22 2.3-17.28 1.92-25.31-.96m5.68-5.65l-.28 2.63c1.59 1.03 4.68 1.57 4.95-1.06.03-2.38-3.09-2.21-4.67-1.57z"/>
    <path fill="#c3282c" d="M40.35 80.08c1.55-4.54 5.89-7.59 8.85-11.28 1.78 3.78 3.48 7.6 5.21 11.42 1.86 4.08 3.72 8.17 5.69 12.2-1.82 1.25-3.62 2.52-5.39 3.82-3.86-.82-7.09-3.13-10.57-4.85-1.19-3.8-2.67-7.5-3.79-11.31z"/>
    <path fill="#0e0303" opacity=".25" d="M56.22 80.22c1.49-3.38-.2-7.4 1.79-10.62-.04.59-.11 1.77-.15 2.35-.11 2.77-.38 5.53-.85 8.26.82 1.7 1.67 3.39 2.47 5.09l1.04 2.24c2.89 4.5 3.86 9.66 4.32 14.9l.05.31c-.29.47-.57.95-.86 1.43-.8 1.31-1.6 2.63-2.39 3.96.16-.77.48-2.3.65-3.06l.36-2.38.02-.47c.02-1.49-.16-2.96-.55-4.4-.41-1.89-1.21-3.66-2.02-5.41-1.97-4.03-3.83-8.12-5.69-12.2h1.81z"/>
    <path fill="#be2a2d" d="M57.86 71.95c1.66.66 3.31 1.32 4.97 1.97-2.76 3.14-3.29 7.36-3.35 11.38-.8-1.7-1.65-3.39-2.47-5.09.47-2.73.74-5.49.85-8.26z"/>
    <path fill="#bd2426" d="M63.23 76.21c1.71-1.07 3.42-2.14 5.14-3.19l.76-.46c-.15 4.49-1.09 8.94-.71 13.44.2 3.05.45 6.11.21 9.16-.97 2.56-2.47 4.89-3.79 7.28-.46-5.24-1.43-10.4-4.32-14.9.59-3.17 1.29-6.45 3.75-8.75-.34-.86-.69-1.72-1.04-2.58z"/>
    <path fill="#bd2526" d="M74.86 89.04c4.2-.75 8.37-1.65 12.57-2.38-1.02 1.94-2.03 3.88-2.97 5.86-2.35-.72-4.96-1.94-7.36-.65-1.58 1.94-2.65 4.22-3.87 6.4 2.59-.39 5.47-1.19 7.79.53-1.46 2.96-3.02 5.86-4.41 8.86l.2 3.21c-.61-1-1.23-2-1.84-3-1.05.86-2.11 1.71-3.17 2.56.72-2.04 1.47-4.06 2.2-6.09-1.66 2.22-3.12 4.58-4.53 6.97-.45-.73-.89-1.45-1.33-2.18.46.03 1.38.1 1.84.14-.4-1.42-1.65-2.4-2.42-3.63.27-.99.55-1.98.77-2.98-.01-.37-.04-1.1-.05-1.47l-.01-.3c2.05-4.03 4.32-7.94 6.59-11.85m-5.33 17.43c1.27-1.07 2.44-2.92 2.23-4.6-1.45.42-3.59 3.58-2.23 4.6z"/>
    <path fill="#d12b2c" d="M77.1 91.87c2.4-1.29 5.01-.07 7.36.65-.38.59-1.13 1.77-1.51 2.36-.9 1.11-1.95 2.29-1.92 3.81l-.01.11c-2.32-1.72-5.2-.92-7.79-.53 1.22-2.18 2.29-4.46 3.87-6.4z"/>
    <path fill="#ad2124" d="M44.14 91.39c3.48 1.72 6.71 4.03 10.57 4.85 1.77-1.3 3.57-2.57 5.39-3.82.81 1.75 1.61 3.52 2.02 5.41-1.36 2.43-1.84 4.99.17 7.25-.17.76-.49 2.29-.65 3.06.79-1.33 1.59-2.65 2.39-3.96-.1 1.03-.29 3.1-.39 4.14-.89-.05-1.78-.06-2.67-.04 1.54-2-2.23-2.01-.84.01-.72.03-2.14.08-2.85.11 1.46-1.8.52-4.28-1.14-5.55.01 1.88.42 3.73.79 5.58-.14.12-.43.37-.57.5-.15-.63-.43-1.88-.57-2.5l-.65.08c.24-1.5.05-2.94-.57-4.32-.84 1.33-.9 3.14.06 4.43-.37.57-1.1 1.71-1.47 2.28.17-1.58-.11-3.09-.84-4.52l-.34-.27c-.58-.48-1.16-.96-1.73-1.44 1.01-1.02 2.02-2.03 3.03-3.05-2.05.26-4.08.61-6.1 1.01l-.05.01c-.64-2.28-1.53-4.5-1.94-6.84 0-.08-.02-.23-.03-.31-.25-.52-.76-1.58-1.02-2.1m15.17 14.23l1.13.77c-.5-3.83-1.17-7.75-3.11-11.15.51 3.48 1.22 6.94 1.98 10.38z"/>
    <path fill="#ff3831" d="M45.16 93.49c.01.08.03.23.03.31l-.03-.31z"/>
    <path fill="#360b0c" opacity=".55" d="M81.03 98.69c-.03-1.52 1.02-2.7 1.92-3.81 1.06 1.21-.23 4.52-1.92 3.81z"/>
    <path fill="#4c0f10" opacity=".75" d="M59.31 105.62c-.76-3.44-1.47-6.9-1.98-10.38 1.94 3.4 2.61 7.32 3.11 11.15l-1.13-.77z"/>
    <path fill="#74171a" opacity=".81" d="M62.29 105.08c-2.01-2.26-1.53-4.82-.17-7.25.39 1.44.57 2.91.55 4.4-.01.12-.01.36-.02.47l-.36 2.38z"/>
    <path fill="#40100d" opacity=".7" d="M54.63 106.62c-.96-1.29-.9-3.1-.06-4.43.62 1.38.81 2.82.57 4.32l-.51.11z"/>
    <path fill="#d62c31" d="M62.65 102.7c.01-.11.01-.35.02-.47l-.02.47z"/>
    <path fill="#2f0c0d" opacity=".56" d="M66.64 111.9c-.37-3.62-1.87-8.11 1.64-10.71.01.37.04 1.1.05 1.47-.22 1-.5 1.99-.77 2.98.77 1.23 2.02 2.21 2.42 3.63-.46-.04-1.38-.11-1.84-.14.44.73.88 1.45 1.33 2.18 1.41-2.39 2.87-4.75 4.53-6.97-.73 2.03-1.48 4.05-2.2 6.09 1.06-.85 2.12-1.7 3.17-2.56.61 1 1.23 2 1.84 3l.33.54c-1.91.1-3.83.23-5.74.38l.14-.15c-.07 0-.21.01-.28.01-1.55.07-3.08.16-4.62.25z"/>
    <path fill="#671618" opacity=".79" d="M69.53 106.47c-1.36-1.02.78-4.18 2.23-4.6.21 1.68-.96 3.53-2.23 4.6z"/>
    <path fill="#451112" opacity=".66" d="M48.01 102.58c1.46 2.52 3.01 5.01 4.95 7.2l1.02 1.18c-1.36.56-2.76.94-4.23 1.12-.74-3.14-1.39-6.3-1.74-9.5z"/>
    <path fill="#520d0d" opacity=".73" d="M56.14 102.85c1.66 1.27 2.6 3.75 1.14 5.55l-.35.03c-.37-1.85-.78-3.7-.79-5.58z"/>
    <path fill="#000200" opacity=".4" d="M60.13 108.29c-1.39-2.02 2.38-2.01.84-.01l-.84.01z"/>
    <path fill="#4f1716" opacity=".72" d="M56.93 108.43l.35-.03c.71-.03 2.13-.08 2.85-.11l.84-.01c.89-.02 1.78-.01 2.67.04l1.42.52c-.88.83-1.69 1.74-2.41 2.71-.68.06-2.04.17-2.72.22.65-2.91-3.01-1.92-3.87-.25l-.99.93-1.13-1.85 1.86-.62c.14-.26.42-.79.56-1.05.14-.13.43-.38.57-.5z"/>
    <path fill="#110504" opacity=".49" d="M56.06 111.52c.86-1.67 4.52-2.66 3.87.25-1.34.89-2.63.81-3.87-.25z"/>
    <path fill="#4f191a" opacity=".65" d="M64.35 110.8c.16.23.16.23 0 0z"/>
    <path fill="#681a19" opacity=".68" d="M71.26 111.65c.07 0 .21-.01.28-.01l-.14.15-.14-.14z"/>
</svg>
