<svg width="128pt" height="128pt" viewBox="0 0 128 128" xmlns="http://www.w3.org/2000/svg">
    <g fill="#fff">
        <path d="M59.56 19.42c4.84-.78 9.4-3.46 14.41-2.89 4.59 1.02 7.13 5.12 9.89 8.5 5.1 5.08 9.32 12.36 8.09 19.77-6.83.86-13.5-1.39-20.14-2.67-10.62-2.23-21.24-5.38-30.38-11.4-.9-.68-1.64-1.53-2.41-2.34 6.19-4.19 13.03-7.98 20.54-8.97m9.34.78c-.84 4.24 8.41 7.33 8.09 2.13-1.92-2.49-5.2-3.15-8.09-2.13m-19.95 7c.01.66.01 1.99.02 2.65 4.24 3.97 12.02 1.28 13.78-3.98.04-2.52-2.66-3.66-4.83-3.6-3.54.1-7.14 1.79-8.97 4.93m16.04 3.07c-1.06 3.47-.02 8.48 4.13 9.18 2.43.77 4.3-1.19 5.89-2.69 1.32-3.35.6-8.04-3.14-9.45-2.76-1.33-5.27.98-6.88 2.96m14.44 1.9c-.36.51-1.1 1.54-1.47 2.05-1.2 4.53 4.15 11.01 8.55 7.32 3.17-4.38-1.89-11.56-7.08-9.37zM20.21 60.06c2.62-5.39 5.74-11.83 11.95-13.63 7.35-.63 14.89 1.51 21.15 5.37 2.35 1.34 4.9 2.32 7.19 3.78 1.83 2.05-.04 4.76-1.72 6.19-3.88 2.97-8.28 5.23-12.8 7.08-3.76 1.6-7.67 3.22-11.83 3.23-6.18.23-12.65.26-18.42-2.27 1.04-3.45 3.48-6.26 4.48-9.75m7.32-8.52c-.33 1.33-2.09 3.09-.67 4.29 2.4 2.92 7.53-2.32 4.97-4.79-1.09-1.81-2.94.18-4.3.5m18.31.8c-.09 3.61 3.87 5.83 7.1 5.69 1.76.33 2.95-2.31 1.47-3.37-2.02-2.58-5.52-3.53-8.57-2.32m-12.99 8.52c-.62 2.65 1.28 4.9 3.39 6.18 1.13-.02 2.26-.02 3.39 0 .9-1.25 2.56-2.3 2.4-4.03.22-3.03-2.3-5.21-4.98-6.01-1.84.63-4.23 1.51-4.2 3.86M21.3 64.39c-2.19 2.94 3.29 5.38 4.69 2.29.84-2.65-2.96-3.78-4.69-2.29zM68.51 66.56c7.94-7.02 20.58-8.34 29.54-2.45 4.27 2.55 5.67 7.64 8.69 11.32 2.18 3.29 5.49 6.36 5.43 10.6-3.53 2.68-8.06 1.94-12.19 1.96-12.26-.83-22.89-8.35-30.68-17.42-.84-1.07-2.11-2.81-.79-4.01m5.3.46c.36.44 1.1 1.33 1.46 1.77 2.54 2.46 7.49-2.26 4.5-4.73-2.67-1.32-4.76.82-5.96 2.96m17.21-2.88c-3.26 1.75-1.3 6.48 1.77 7.14 2.66 1.28 5.72-1.05 5.38-3.95-1.35-2.49-4.3-4.55-7.15-3.19M80.6 69.61c-1.84 2.08-3.43 5.58-.96 7.83 4.44 3.38 11.13-4.28 7.13-8.22-1.76-1.91-4.38-.82-6.17.39m19.49 12.09c1.37 2.01 4.47 6.14 6.88 3.35 2.25-4.37-1.38-9.26-5.26-11.24-3.36 1.37-2.72 5.17-1.62 7.89m-7.36 2.31c.55-.3 1.67-.88 2.22-1.17 1.19-1.99 1.29-4.25-.35-6.04-4.13-.41-5.78 5.58-1.87 7.21z"/>
    </g>
</svg>
