<svg width="128pt" height="128pt" viewBox="0 0 128 128" xmlns="http://www.w3.org/2000/svg">
    <g fill="#fff">
        <path d="M62.22 49.08c3.71-2.03 7.59-3.75 11.39-5.6-1.04 5.74-1.98 11.5-3.01 17.24-2.32 2.11-5.56 3.81-5.99 7.28.95 2.21 2.84 3.77 4.29 5.62.13 2.13-.29 4.24-.46 6.35-.66 5 .4 10.01.2 15.02-1.05 2.78-2.72 5.29-4.08 7.93-.31-2.87-.37-5.77-.86-8.61-2.06-4.81-4.54-9.43-6.71-14.2 1.08-5.72.72-11.62 2.16-17.3 2.79-2.44 5.42-6.44 2.39-9.81.23-1.31.46-2.61.68-3.92zM40.4 79.43c2.3-4.01 5.89-7.01 8.77-10.57 3.32 7.58 7.03 14.98 10.4 22.54.95 2.4 2.99 4.7 2.29 7.45l-.24.39c-.05 1.14-.11 2.28-.16 3.43.2-.36.58-1.06.77-1.42.24-.1.72-.32.95-.42-.42 2.55-1.03 5.06-1.37 7.63.7-1.36 1.37-2.73 2.03-4.11-.05 1.61-.09 3.22-.1 4.84l-1.03-1.11c-.69 1.2-1.36 2.4-2.02 3.62-.91-.81-1.85-1.58-2.85-2.27-.57.61-1.72 1.82-2.3 2.43-.43-.85-.85-1.7-1.26-2.56-.65.14-1.97.42-2.62.56-.36-1.3-.7-2.59-1.02-3.9-.21 1.65-.49 3.28-.84 4.91-.37-1.71-.69-3.43-.95-5.15-2.46-8.88-6.01-17.43-8.45-26.29m17.05 14.83c.32 4.88 2.41 9.57 2.15 14.5.72.13 1.42-.01 2.09-.44-2.73-4.24-2.23-9.6-4.24-14.06m-2.36 15.58c.21.12.63.35.83.47.19-.06.55-.17.74-.22-1.33-3.32-2.11-6.81-3.26-10.18.49 3.32 1.26 6.6 1.69 9.93m1.26-7.5c.24 1.92-.47 5.76 1.68 6.39.51-1.96-.51-5.03-1.68-6.39m-4.7 1.31c.4 1.53-.64 4.67 1.42 5.04-.02-.76-.07-2.3-.09-3.07-.03-.32-.96-3.44-1.33-1.97zM74.84 89.19c4.15-.85 8.3-1.75 12.48-2.49-3.56 6.8-7.01 13.67-10.7 20.41-.1 1.6-.18 3.22-.18 4.83-.47-1.48-1.01-2.94-1.55-4.4-.81 1.23-.7 3.17-2.12 3.94-1.73.27-3.49.09-5.23.07-.48-.91-.97-1.81-1.47-2.7.73.69 1.47 1.38 2.22 2.07.69-.68 1.29-1.44 1.8-2.3-.39-.4-1.16-1.21-1.55-1.62-.44.14-1.33.42-1.78.56l-2.1-2.16 1.77 1.65c.22-1.01.37-2.03.41-3.06l.86 1.77-.16-3.18c2.11-4.63 4.89-8.92 7.3-13.39m-5.51 17.61c1.3-1.08 2.27-2.99 2.25-4.68-1.1.57-4.05 3.84-2.25 4.68m.35 3.94c3.23.52 2.9-4.3 4.26-6.27-1.47 2.05-2.77 4.22-4.26 6.27z"/>
    </g>
    <path fill="#636363" opacity=".39" d="M63.96 110.28c3.33.02-1.49 3.05 0 0z"/>
</svg>
