<svg width="128pt" height="128pt" viewBox="0 0 128 128" xmlns="http://www.w3.org/2000/svg">
    <g fill="#fff">
        <path d="M46.97 31.28c2.59-6.12 6.95-12.43 13.99-13.6.04 2.08.04 4.17.04 6.25-6.41 2.56-8.38 10.08-8.39 16.34-2.49-2.56-4.35-5.66-5.64-8.99zM68 17.69c6.68 1.66 11.39 7.67 13.28 14.03-.47 3.47-3.31 5.98-5.13 8.82-.14-6.2-1.98-13.46-8.12-16.32-.02-2.18-.03-4.36-.03-6.53zM55.58 36.5c1.2-6.33 9.94-9.47 14.65-4.81 4.96 3.88 3.64 12.13-1.7 15.05-.47-1.4-.94-2.8-1.46-4.18 2.28-1.98 2.41-5.05.89-7.54-1.66-.94-3.55-1.08-5.41-1.14-2.33 1.56-3.17 4.07-2.66 6.78.51.43 1.54 1.28 2.06 1.71-.51 1.47-.98 2.96-1.43 4.45-3.54-2.05-6.13-6.15-4.94-10.32zM26.95 48.99c-.27-6.73 6.36-11.65 12.75-11.09l1 3.24c-3.58-.74-7.96.34-9.66 3.86-2.15 3.42-1.19 8.2 1.95 10.7.01 1.24.01 2.48.02 3.71-3.42-2.33-6.53-6.02-6.06-10.42zM88.75 37.93c5.36-.65 11.06 2.45 12.55 7.82 2.04 5.24-1.11 10.65-5.33 13.69-1.56-4.37 4.12-6.97 2.9-11.38-.76-4.97-6.04-8.25-10.86-6.89.26-1.08.51-2.16.74-3.24z"/>
        <path d="M34.59 51.31c-.84-2.75.71-5.3 3.37-6.2 2.41.66 3.85 2.51 4.35 4.92-2.69-.5-5.4-.28-7.72 1.28zM44.79 46.57c.84.21 1.69.42 2.53.64-1.15 1.28-2.28 2.59-3.4 3.9.27-1.52.54-3.04.87-4.54zM81.29 46.93c.83-.03 1.67-.06 2.5-.07.19.51.57 1.53.77 2.04-.22.69-.42 1.39-.63 2.08-.75-1.43-1.63-2.79-2.64-4.05zM88.03 45.97c1.55-.24 3.31-1.04 4.69.16 1.97.98 1.36 3.31 1.42 5.09-2.28-1.34-4.86-1.6-7.45-1.32.4-1.33.85-2.64 1.34-3.93zM51.93 54.81c-1.92.74-2.54-3.6-.67-4.03 1.47.59 1.2 2.85.67 4.03zM77.77 54.98c-.87-.95-1.2-3.77.31-4.35 1.91.61 1.31 3.75-.31 4.35zM72.26 57.75c-.18-1.36.39-1.95 1.73-1.75.21 1.34-.37 1.92-1.73 1.75zM48.17 62.21c2.68-2.35 6.86-1.68 9.39.56-3.31-.96-7.26-2.01-9.61 1.33-.65 2.52.12 4.97 1.13 7.27-3.72-1.11-3.89-7.07-.91-9.16zM71.34 62.76c2.5-2.35 6.68-2.79 9.4-.57 2.74 2.51 2.48 7.8-1.14 9.36.92-2.06 1.64-4.19 1.53-6.48-.79-1.02-1.55-2.07-2.43-3-2.46-.84-4.94.26-7.36.69zM21.71 73.69c1.19-3.95 5.53-5.37 9.28-4.73 0 .5.01 1.48.02 1.98-2.67-.83-6.27-.25-7.41 2.64-1.69 2.75-.14 6.81 2.92 7.78 2.74 1.47 5.58-.74 7.44-2.61 1.66 1.97-1.43 2.93-2.34 4.23-2.08.36-4.18.36-6.26 0-2.99-2.06-4.99-5.65-3.65-9.29zM97.21 70.89c.92-3.2 5.23-2.09 7.36-.65 4.88 3.15 3.24 11.78-2.48 12.88-3.18 1.18-6.2-.84-8.35-3 .37-.33 1.12-.99 1.49-1.32 1.15 1.15 2.26 2.54 3.96 2.86 4.13 1.01 8.38-4.11 6.03-7.87-1.27-3.22-5.05-3.6-8.01-2.9zM43.93 77.93c5.53 1.42 9.07-3.92 14.1-4.88 1.74.11 3.32.92 4.97 1.4-4.37.4-7.23 3.68-10.24 6.42-3.14 1.35-6.51-.92-8.83-2.94zM65.55 74.6c1.46-.56 2.91-1.18 4.45-1.53 3.95.31 6.99 3.19 10.36 4.97 1.52-.02 3.03-.08 4.55-.18-2.1 1.94-4.7 3.46-7.64 3.44-2.66-.46-4.01-3.07-5.99-4.62-1.51-1.51-3.78-1.58-5.73-2.08z"/>
        <path d="M28.89 77.96c-2.62.35-2.29-3.21-.35-4.01 1.27 1 2.78 3.4.35 4.01zM99.29 77.54c-1.6-.98-.25-2.41.42-3.49.67.36 2.02 1.09 2.69 1.45-.5 1.05-1.81 3.72-3.11 2.04zM51.31 84.41c1.69.05 3.39.06 5.09.05-.96 1.9-1.9 3.82-2.86 5.72-.72-1.93-1.47-3.85-2.23-5.77zM72.19 84.37c1.68.09 3.36.12 5.05.15-.87 1.88-1.71 3.76-2.61 5.63-.77-1.95-1.59-3.87-2.44-5.78zM56.6 87.68c1.04 2.08 2.05 4.18 2.87 6.36-1.87.1-3.74.13-5.61.04 1.02-2.08 1.9-4.23 2.74-6.4zM71.58 87.68c1.11 2.12 2.13 4.29 3.05 6.5-1.88.04-3.76-.04-5.64-.17.92-2.08 1.78-4.2 2.59-6.33zM49.5 102.49c3.97-2.66 8.47-4.42 13.13-5.42 3.33-.65 6.55.76 9.79 1.33 3.36 1.71 6.13 4.57 9.87 5.52 3.21.66 5.97-1.58 8.67-2.89-1.16 2.86-3.34 6.3-6.87 6.13-3.13.45-5.64-1.63-8.15-3.11-2.71-1.69-5.74-2.73-8.58-4.19 2.3 1.99 4.28 5.3 2.8 8.34-1.27 3.58-6.07 4.99-9.19 2.94-3.34-1.87-3.69-6.59-1.41-9.44.51-.43 1.52-1.3 2.02-1.73-4.09 1.57-8.11 3.37-11.74 5.86-2.12 1.65-4.87 1.24-7.37 1.22-2.25-1.58-3.9-3.8-4.8-6.39.92.71 1.81 1.47 2.68 2.25 2.77 1.9 6.47 1.4 9.15-.42z"/>
    </g>
    <path fill="#b3b3b3" opacity=".71" d="M56.2 57.14c.66.64.66.64 0 0z"/>
</svg>
