<svg width="128pt" height="128pt" viewBox="0 0 128 128" xmlns="http://www.w3.org/2000/svg">
    <path fill="#fff" d="M107.84 25.71c2.62-1 4.14-3.45 5.64-5.65-1.07 4.97-5.01 8.28-9.37 10.45 2.94-.1 5.65-1.3 8.41-2.22-2.99 3.7-7.83 4.13-12.06 5.44-2.71 2.14-3.51 8.3.65 9.38 4.86.22 8.73-3.19 12.29-6.03-3.11 6.03-10.05 8.03-16.28 8.64 5.12 2.07 10.66 1.36 16.02 1.73-6.1 3.05-13.06 1.85-19.59 2.4 4.2 6.83 12.8 8.51 19.44 12.11-8.07-.39-15.4-4.01-22.36-7.79 2.11 2.64 3.96 5.46 5.89 8.23 4.81 5.99 10.73 10.95 17.2 15.03-6.51-1.06-12.5-4.31-17.09-9.02-3.37-2.87-4.84-7.32-8.31-10.07-.69 3.31.75 6.39 1.44 9.54 2.86 13.02 8.86 25.42 17.82 35.35-6.98-3.26-12.21-9.28-15.95-15.87-4.45-7.69-5.47-16.71-8.86-24.8-.22.79-.66 2.37-.87 3.17.1 6.22.85 12.41.86 18.64-2.81-5.03-3.22-10.85-2.91-16.48.37-1.82-1.01-2.92-2.5-3.51-1 4.06-.46 8.27-.67 12.4-2.5-3.8-.71-9.05-3.86-12.38-3.06 5.79 1.54 11.45 1.87 17.26 1.06 3.42 4.03 5.81 6.3 8.46 3.86-.21 9.24-.39 10.2 4.43-2.43-1.57-5.23-2.38-8.08-1.39 1.93 2.96 6.99 3.95 6.37 8.2-1.83-2.68-5.08-3.37-7.71-4.95-.15 2.44.61 5.1-.76 7.32-.71-2.66-1.59-5.31-1.72-8.08-2.28-2.64-5.59-3.64-9-3.09 1.82-1.8 4.12-2.72 6.69-2.02-2.26-2.96-3.32-6.94-6.6-9.02-1.97-1.53-3.09-3.85-4.73-5.69-.55 3.13-.51 6.69 2.36 8.72.2-.6.6-1.79.81-2.39 1.28.99 2.56 1.99 3.84 2.99-3.08.06-2.73 3-3 5.22-.77-2.05-1.73-4.03-3.14-5.73-2.1 1.94-1.19 4.79-1.2 7.27.15 2.27-.36 4.52-.27 6.79.32 2.32 2.35 3.74 4.01 5.14 2.74-2.86-.14-5.87-.4-9.02.81 1.39 1.53 2.83 2.25 4.28 1.48-.7 2.97-1.37 4.5-1.92-1.98 1.36-4.19 2.64-4.81 5.16 1.57.39 3.62-.11 4.79 1.28.9 1.68 1.25 3.58 1.85 5.37-1.76.34-3.52.68-5.28.99-.36-.51-1.09-1.55-1.45-2.07.93.21 2.79.62 3.72.83.9-1.51 2.2-4.1-.28-4.85-2.79-.87-4.03 2.43-5.46 4.16-.18-2.81-1.64-5.17-4.5-5.83.09-19.94-.1-39.89.06-59.83.9-3.31 3.22-6.81 2.36-10.26 1.39-.86 2.76-1.75 4.09-2.71-1.56 0-3.1.15-4.65.31.25-.3.76-.9 1.01-1.2 1.61-.28 3.21-.59 4.81-.91-.97-.94-1.97-1.85-2.96-2.77 4.36 1.09 8.85.77 13.28 1.32 1.46 1.11 3.23 2.04 3.42 4.09-2.48-.65-4.81.23-6.17 2.39.62.19 1.84.57 2.46.76l-.93 1.93c1.43.12 2.86.26 4.28.43-3.54 3.08-8.09-2.51-11.6.81-3.02 3.9-2.02 9.31-3.15 13.87 1.71 1.25 2.84 3.32 4.77 4.21 2.61.12 5.89.37 7.6-2.05 1.41-1.4 2.08-3.29 2.72-5.13 3.05-1.29 6.28-3.76 6.07-7.45.17-3.34-3.18-5.56-3.19-8.83-.08-1.64 1.51-2.43 2.85-2.82 5.46-1.58 11.47-.13 16.72-2.67m-30.43 1.28c-.34.49-1.01 1.47-1.35 1.95 1.36.46 3.41 1.59 4.38-.17-.51-1.29-1.88-1.43-3.03-1.78z"/>
</svg>
