<svg width="128pt" height="128pt" viewBox="0 0 128 128" xmlns="http://www.w3.org/2000/svg">
    <g fill="#fff">
        <path d="M14.8 20.05c1.76 2.88 4.11 5.68 7.6 6.36 5.43 2.07 12.05-.29 16.93 3.19 1.98 3.29-1.97 6.04-2.42 9.24-1.11 4 2.48 7.05 5.69 8.61 1.21 2.3 2.19 4.9 4.38 6.48 2.33 1 5.06 1.15 7.48.39 1.51-.94 2.13-2.89 3.82-3.68-1.15-4.54-.52-9.68-3.11-13.75-3.19-3.91-8.19 2.12-11.71-1.23.98-.05 2.95-.13 3.93-.17-.34-.61-1.03-1.82-1.37-2.42.8-.01 2.4-.02 3.2-.03-.99-1.1-1.85-2.4-3.22-3.07-1.22.4-2.11 1.38-3.13 2.1-1.09-3.79 2.83-6.17 6.11-6.29 3.57-.21 7.15-.22 10.71-.57-.78.53-2.34 1.58-3.13 2.11 2.11.84 4.73.61 6.35 2.42-1.24-.12-3.74-.37-4.98-.5 1.28 1.07 2.62 2.06 4.03 2.95-.12.32-.37.94-.5 1.25.93 2.8 1.57 5.68 2.47 8.49.31 20.06-.2 40.13.1 60.18-2.05 1.17-3.73 2.87-4.11 5.3-1.5-1.38-2.78-3.3-4.93-3.65-1.56.47-1.92 2.11-2.54 3.39 1.77.9 3.64 1.6 5.36 2.6-2.41.17-4.77-.42-7.16-.59 1.2-2.08 1.71-4.49 3.06-6.49 1.28-.15 2.57-.26 3.86-.32-.35-2.14-1.92-3.55-3.6-4.73 1.27.41 2.5.93 3.72 1.49.28-.39.86-1.17 1.15-1.56-.38 2.02-.34 4.07-.03 6.1 1.81-.64 3.63-1.77 3.99-3.82.95-5.01.2-10.16-.32-15.18-.86.74-1.7 1.5-2.53 2.27l-.52 3.42c-.47-1.56-.86-3.14-1.29-4.71-1.33-.2-2.66-.44-4.01-.54-.56 2-1.54 3.83-2.49 5.67 2.58-1.12 4.68.06 6.44 1.92-3.43-.14-7.22.36-9.35 3.4-.03 2.64-.76 5.16-1.51 7.67-.89-2.42-.59-5-.43-7.51-1.35.84-2.65 1.77-3.94 2.7-2.13-.93-3.04 1.26-4.16 2.58-.16-4.35 4.37-5.56 6.78-8.26-1.95-.35-3.93-.4-5.91-.54l-1.86 2.34c.24-1.38.34-2.99 1.63-3.86 2.27-2.18 5.69-.23 8.37-1.18 3.26-3.25 6.21-7.25 6.78-11.96.81-4.07 3.37-8.91 1.36-12.76-.39 0-1.18-.01-1.57-.01-1.15 3.67-.61 7.77-2.69 11.2-.13-4.07.02-8.15-.55-12.19-.99.78-2.89 1.11-2.67 2.76.13 5.76.28 11.93-2.85 17.03-.37-7.15 1.77-14.35.33-21.42-2.54 3.23-2.65 7.52-3.98 11.27-3.12 11.81-9.68 23.68-21.04 29.26 8.39-9.64 14.4-21.29 17.28-33.75.69-3.69 2.42-7.25 2.03-11.09-3.71 2.33-4.79 6.94-8.17 9.64-4.55 4.98-10.73 8.19-17.34 9.47 9.32-5.84 17.08-13.86 22.82-23.24-6.86 3.62-13.95 7.49-21.91 7.63 5.41-2.63 11.18-4.65 16.08-8.23 1.39-.94 2.24-2.4 3.01-3.85-6.5-.3-13.26.5-19.4-2.17 5.27-.74 10.91.34 15.86-2.06-6.33-.24-13.07-2.61-16.31-8.45 3.41 2.85 7 5.39 11.45 6.29 1.32-.58 2.58-1.29 3.73-2.15-.05-2.61.13-5.88-2.28-7.57-2.24-.85-4.62-1.2-6.94-1.75 1-.61 2-1.22 3.01-1.82-4.39-1.78-7.89-5.35-8.94-10.05m33.09 7.79c.46 2.48 2.94 1.48 4.6 1.18-.71-2.29-2.89-1.76-4.6-1.18m7.83 55c.32.7.63 1.41.94 2.12 1.33-1.69 2.91-2.25 4.56-.88 1.82-2.51 1.83-5.65 1.49-8.6-1.96 2.84-3.47 6.11-6.99 7.36z"/>
        <path d="M15.8 28.18c1.98.72 3.93 1.59 6.04 1.9-.62.57-1.23 1.14-1.84 1.72-1.46-1.14-2.86-2.34-4.2-3.62z"/>
    </g>
</svg>
