<svg width="128pt" height="128pt" viewBox="0 0 128 128" xmlns="http://www.w3.org/2000/svg">
    <g fill="#fff">
        <path d="M49.42 20.7c2.06-2.09 4.91-2.91 7.61-3.81-7.85 7.59-6.44 19.52-5.83 29.42-3.43-1.79-6.94-3.42-10.36-5.23 1.16-7.29 2.79-15.26 8.58-20.38zM68.65 16.78c5.07.89 9.51 4.27 12.09 8.67 2.66 4.61 3.37 10.06 3.3 15.3-3.18 1.85-6.37 3.69-9.58 5.48 2.92-9.93 2.34-22.09-5.81-29.45zM17.06 50.08c.86-4.14 3.84-7.41 7.3-9.64-5.17 4.39-5.98 11.82-3.85 17.97 1.59 3.01-.25 6.03-.85 9.02-2.9-5.18-3.82-11.55-2.6-17.35zM104.37 41.31c9.15 5.67 8.57 18.39 4.37 26.99-.58-2.81-2.58-5.69-1.16-8.57 2.4-6.19 1.59-13.59-3.21-18.42zM29.48 62.73c2.16-2.54 5.56-4.67 8.98-3.25 3.76.77 6.14 4.21 6.76 7.83-3.32-1.12-3.81-5.5-7.41-6.11-2.5-.98-5.43.6-5.27 3.47-1.03-.64-2.05-1.28-3.06-1.94zM82.47 66.89c.08-4.19 3.62-7.15 7.56-7.6 3.08-1.2 5.54 1.35 7.4 3.41-.49.37-1.48 1.11-1.97 1.48-1.31-3.84-6.06-3.95-8.78-1.58-1.14 1.68-2.21 3.52-4.21 4.29zM52.11 85.61c1.66-.52 3.34-.97 5.02-1.46-.77 2.94-1.59 5.88-2.37 8.82-.8-2.48-1.68-4.94-2.65-7.36zM60.44 84.15c2.33-.12 4.67-.07 7-.02l-1.2 3.98c-.56-.92-1.69-2.77-2.26-3.69-.61 1.24-1.23 2.47-1.85 3.7-.6-1.31-1.15-2.64-1.69-3.97zM58.67 84.33c1.31 2.76 2.51 5.58 3.75 8.37-2.2.59-4.36 1.3-6.44 2.22 1.38-3.39 1.91-7.04 2.69-10.59zM71.13 84.33c1.68.35 3.36.71 5.04 1.08-.87 2.51-1.79 5.01-2.82 7.46-.65-2.87-1.36-5.72-2.22-8.54zM65.18 92.91c1.47-2.8 2.72-5.71 4.09-8.57.76 3.42 1.47 6.84 2.43 10.21-2.03-1.04-4.23-1.68-6.52-1.64zM33.85 89.09c1.45 1.63 2.82 3.72 5.15 4.08 2.97.95 5.92-.57 8.59-1.71-2.85 2.86-3.36 7.01-2.76 10.83-6.97-.25-8.82-7.94-10.98-13.2zM90.49 92.83c1.38-.99 2.52-2.25 3.69-3.47-1.75 5.31-4.08 12.47-10.7 12.93.8-3.84-.25-7.74-2.51-10.87 2.83 1.59 6.37 2.9 9.52 1.41zM32.36 92.87c1.52 4.66 2.93 9.88 7.41 12.6-2.55-.06-6.12.82-7.61-1.95-1.64-3.39-.04-7.14.2-10.65zM95.35 93.11c1.16 3.32 2.63 7.42.48 10.65-1.64 2.5-4.91 1.64-7.4 1.77 4.28-2.65 6.27-7.63 6.92-12.42z"/>
    </g>
</svg>
