<svg width="128pt" height="128pt" viewBox="0 0 128 128" xmlns="http://www.w3.org/2000/svg">
    <g fill="#fff">
        <path d="M44.05 37.82c5.81-.53 11.78-.35 17.36-2.3 1.75.67 3.48-.55 5.25-.11 2.52-.28 5.02.33 7.51.65l-.07 1.54c1.36.04 2.71.09 4.07.14-2.16 4.85-7.92 3.05-12.09 3.99-.7.94-1.35 1.93-1.95 2.94.51.02 1.52.05 2.03.06-.57.58-1.7 1.74-2.27 2.32-3.17-1.7-6.53-.81-9.83-.14-2.72-.49-5.46-.36-8.01.76-.03 2.41-.33 4.82-.26 7.24 3.35 5.43 7.67 10.23 10.77 15.82-1.38-.43-2.59-1.16-3.62-2.17 1.81 6.01 1.21 12.52-.55 18.48-1.78-7.27-1.26-15.04-4-22.1.93 6.94 1.86 15.08-3.21 20.73 1-6.31 1.25-12.81.24-19.14-.76 4.45.26 9.15-1.54 13.41-.92 2.88-2.91 5.26-5.13 7.26 1.29-5.77 4.34-11.65 2.75-17.65-.71 6.38-2.74 13.36-8.5 16.99 1.71-4.54 3.84-8.96 4.91-13.71-2.64 4.81-4.71 10.33-9.28 13.68 1.26-4.48 3.8-8.44 5.3-12.83-2.76 3.68-4.54 8.41-8.7 10.78 1.2-2.79 2.64-5.45 4.03-8.15.94-1.71 1.86-3.43 2.7-5.19-2.83 3.79-5.47 7.88-9.48 10.56 4.41-7.63 8.92-15.24 14.33-22.21.18.9.52 2.71.69 3.61.2-2.7.04-5.67 1.71-7.96 1.18-1.8 2.85-3.3 3.69-5.32.18-3.6.77-7.83-2.03-10.66.94-.68 1.95-1.39 3.18-1.32zM21.46 43.84c.39-1.73 1.27-3.29 2.3-4.73.75 1.43 2.19 2.93.69 4.44l-.76-3.05c-.76 1.1-1.51 2.22-2.23 3.34zM83.69 42.41c6.84-1.7 14.58-1.62 20.84 1.95 2.72 1.79 5.92 4.47 5.03 8.14-2.16 4.65-8.6 4.9-12.98 4.05 3.42-.61 7.97-.69 9.48-4.51.09-3.16-2.47-5.64-5.14-6.89-5.37-2.49-11.42-2.6-17.23-2.74z"/>
        <path d="M65.43 43.7c4.52-2.11 9.84-1.04 14.61-2.46-1.27 1.46-2.64 2.85-4.02 4.2.89.08 2.67.22 3.56.3-3.27 4.39-9.34 2.27-13.91 2.01.81-1.24 1.67-2.45 2.54-3.65l-2.78-.4zM19.09 46.15c1.68-.62 2.21-.14 1.59 1.46-1.65.68-2.18.2-1.59-1.46zM47.52 48.98c3.72-1.83 7.92.28 11.69-1.57 6.14 2.48 13.71.63 18.81 5.62-2.37.03-4.73-.1-7.04-.62 1.81 1.05 3.68 2.11 4.9 3.88-1.99-.12-3.95-.48-5.79-1.24 1.63 1.24 3.17 2.6 4.53 4.14-2.11-.59-4.24-1.12-6.3-1.89 1.61 1.26 2.79 2.93 3.15 4.98-1.9-.93-3.68-2.09-5.57-3.02 1.72 1.72 3.07 3.74 3.91 6.02-2.21-1.06-4.31-2.32-6.45-3.51.5.5 1.51 1.5 2.01 2 .54.94 1.62 2.82 2.15 3.76-1.92-1.16-3.81-2.37-5.66-3.63 1.4 1.77 2.96 3.54 3.49 5.8-2.69-1.74-4.98-3.99-7.52-5.91 3.13 3.52 5.62 7.69 6.05 12.49-5.6-7.23-11.3-14.4-16.64-21.82.14-1.82.23-3.65.28-5.48zM31.32 60.25c3.36-2.61 3.77-7.07 4.54-10.94 1.26.58 4.82-.1 3.99 2.17-1.6 2.04-2.99 4.3-3.12 6.96-1.59.88-2.45 2.42-3.18 4.01-4.92 4.8-7.48 11.53-12.84 15.96 1.43-3.35 3.86-6.15 5.76-9.23-2.33 1.95-4.32 4.27-6.65 6.23 3.07-5.57 6.57-11.05 11.5-15.16zM80.07 60.73c1.34-1.68 3.49-2.27 5.49-1.44 4.43 1.73 9.18 5.44 8.94 10.68-1.05 5.56-7.08 7.72-11.64 9.73 4.37-2.66 8.34-7.1 7.07-12.63l-1.69.79c.2-.84.6-2.52.8-3.35-.34.49-1.01 1.47-1.35 1.96-2.35-2.18-5.48-3.32-7.62-5.74z"/>
    </g>
</svg>
