<svg width="128pt" height="128pt" viewBox="0 0 128 128" xmlns="http://www.w3.org/2000/svg">
    <g fill="#fff">
        <path d="M34.72 42.77c2.59-2.97 5.18-6.87 9.47-7.27 4.69-.01 9.38-.14 14.08-.19-5.44 1.04-10.97 1.6-16.51 1.79-.77 1.01-1.52 2.03-2.23 3.07 3.6.59 2.27 4.15 2.48 6.68-4.71-.3-8.38 3.89-13.14 3.15-4.2-.7-9.31-3.22-12.89.3 1.08-1.9 1.95-3.99 3.59-5.51.1-.19.31-.58.42-.77 1.6.91 3.21 1.81 4.83 2.69 3.53-.46 7.44-1.09 9.9-3.94m-15.21 5.25c1.51.5 3.28-1.88 1.24-2.48-1.38-.41-2.55 1.76-1.24 2.48zM76.98 36.36c9.45-.67 19.64-.26 28.02 4.68 3.76 2.13 6.03 5.97 7.28 9.99-.5-.58-1.49-1.73-1.98-2.31-2.67-4.87-8.21-7.41-13.53-8.11-5.33-.9-10.73-.04-15.98.98l-.12-1.53c-.8.09-2.39.27-3.18.35.34-.51 1.01-1.53 1.34-2.04 1.32-1.31-1.07-1.6-1.85-2.01z"/>
        <path d="M97.91 44.63c2.87.77 5.3 2.48 7.26 4.69.61 3.51-2.23 5.92-5.69 5.82 1.32-1.88 4.21-3.34 3.5-6.04-.86-2.23-3.32-3.08-5.07-4.47z"/>
        <path d="M76.91 56.14c1.36-3.1 4.74-4.77 7.96-5.28 5.64-1.11 11.37-.07 17.01.49-2.58 1.96-5.03 4.43-8.36 5-4.48.93-9.22.73-13.45 2.68-.14.78-.41 2.32-.55 3.1-1.55-1.61-3.59-3.5-2.61-5.99zM98.11 67.94c-.72 5.29-2.2 11.35-7.52 13.83-8.28 3.83-17.89 1.87-26.25-.73 8.88 1.08 18.67 1.82 26.67-3.01 3.79-2.13 5.42-6.32 7.1-10.09z"/>
    </g>
</svg>
