<svg width="128pt" height="128pt" viewBox="0 0 128 128" xmlns="http://www.w3.org/2000/svg">
    <g fill="#fff">
        <path d="M34.71 44.44c2.8-2.72 6.7-3.73 10.52-3.65.62.58 1.24 1.14 1.86 1.7-.89 1.31-1.37 2.72-1.42 4.24-.42.4-.84.8-1.27 1.19 3.33.91 6.77 1.92 10.24 1.06 5.03-3.81 11.02-6.2 17.4-6.02 3.34-.43 6.28 1.38 9.47 1.94 3.78-2.9 8.31-.46 11.63 1.9 3.4 2.68 7.99 1.87 11.78 3.56l-5.18.36c1.49.76 3.05 1.36 4.59 1.98-4.73 2.28-9.96.23-14.96 1.36-2.29-1.49-4.21-3.46-6.41-5.09-.87 3.61-2.33 7.25-5.89 8.98 2.18 1.33 4.49 2.43 6.88 3.35-1.4 2.58-3.07 5.01-4.44 7.61l-1.08.04c2.91 3.77 3.17-7.11 6.24-2.83-1.97 1.93-3.48 4.27-5.44 6.2-.75 1.04-1.67-.28-2.35-.66.22 2.3-1.7 3.99-2.85 5.77.91 2.5.3 4.98-1.43 6.96-1.68-1.92-1.74-4.57-1.41-6.96 2.27-3.81 4.47-7.68 7-11.33-4.39-.64-8.96-2.2-12.11-5.43-.98-2.56 1.06-5 1.57-7.42-4.88 2.53-6.44 8.24-9.32 12.54 1.61 5.03 2.94 10.16 4.89 15.07.56 1.5 1.92 2.62 3.54 1.78.64 1.65 1.36 3.26 2.03 4.9-5.63-.41-7.53-6.09-10.05-10.17-2.14-3.25-3.68-6.95-6.3-9.85-3.11-1.9-6.62-3.73-8.17-7.25.34-2.36 1.25-4.94-.14-7.14-.49-1.59-2.79-1.6-3.25-3.13.71-1.51 3.22-1.54 3.38-3.54-1.55 1.02-3.3 1.83-4.58 3.2-1.69 1.3-4.09.77-6.01 1.48.55-.77 1.66-2.3 2.21-3.07-3.48 1.93-7.06 3.88-11.07 4.39-.56-.25-1.66-.76-2.22-1.02 2.06-1.79 4.72-2.48 7.16-3.55.29-1.98 2.26-2.82 3.65-3.93.33.12.99.36 1.31.48m9.66-.37c.3.29.3.29 0 0z"/>
        <path d="M46.35 79.37c-2.97-3.66.11-8.48.22-12.59 1.67.52 3.35.98 5.06 1.38-1.18 2.31-2.5 4.55-3.51 6.94-.74 1.96 1.64 2.9 2.85 3.87 1.08-.55 1.87-1.94 3.17-1.9 1.64.69 3.1 1.74 4.59 2.71-1.16.64-2.32 1.26-3.49 1.88-2.92-.94-5.96-1.41-8.89-2.29z"/>
    </g>
    <path fill="#202020" opacity=".13" d="M44.37 44.07c.3.29.3.29 0 0z"/>
</svg>
