<svg width="128pt" height="128pt" viewBox="0 0 128 128" xmlns="http://www.w3.org/2000/svg">
    <path fill="#631418" d="M65.14 17.49c2.57-.93 5.43-2.05 8.08-.73 5.21 2.56 11.54 2.1 16.09 6.12l-1.04 1.28c-3.55-.68-7.18-1.32-10.37-3.11-1.39-1.17-2.96-.04-4.37.43-.82-.66-1.63-1.32-2.44-1.99-1.67.64-3.3 1.43-5.04 1.89-2.63-.71-6.55-1.03-6.55-4.56 1.92-.11 3.74.57 5.64.67z"/>
    <path fill="#84191e" d="M52.85 19.31c1.75-1.68 4.24-2.52 6.65-2.49 0 3.53 3.92 3.85 6.55 4.56 1.74-.46 3.37-1.25 5.04-1.89.81.67 1.62 1.33 2.44 1.99 1.41-.47 2.98-1.6 4.37-.43 3.19 1.79 6.82 2.43 10.37 3.11-.85.95-1.69 1.93-2.43 2.97 1.19-.84 2.36-1.71 3.53-2.58.6.84 1.13 1.71 1.62 2.62-.62 3.76 1.01 7.37 1.1 11.12-3.64-1.46-7.46-3.09-11.53-2.57 4.89 2.58 4.13 9.08 7.05 13.18-.76 1.01-1.96 1.37-3.12 1.69l1.09.8c-1.1.93-2.23 1.82-3.43 2.62.47-3.34.74-8.27-3.02-9.77-.12-.17-.35-.51-.47-.68-.71-2.47-2.17-4.63-3.48-6.81.26-.4.77-1.2 1.03-1.6-2.18-2.01-2.68-4.93-3.78-7.54-2.04-1.71-4.75-2.18-7.23-2.95-3.56 2.32-5.4 5.99-6.53 9.96-.01-.99-.02-2.99-.03-3.99-1.27 1.48-1.03 3.56-1.33 5.36-2.5.3-4.99.67-7.44 1.26l-.75-.3c-1.15-.47-2.28-.99-3.41-1.52-.38-2.2-1.34-4.4-.86-6.67.26.24.77.73 1.03.97-.88-2.19-1.47-4.47-2.2-6.71 2.98-1.4 5.6-4.31 9.17-3.71z"/>
    <path fill="#731818" d="M89.37 24.55c1.26-.83 2.54-1.62 3.84-2.39 1.05.64 2.09 1.29 3.13 1.95-.86 1.28-1.84 2.5-2.47 3.93.02 1.96 1.8 3.58 3.74 3.52l.81.11c1.46 3.01 1.99 7.33-1.44 9.25-1.65-.66-3.26-1.41-4.85-2.22l-.04-.41c-.09-3.75-1.72-7.36-1.1-11.12-.49-.91-1.02-1.78-1.62-2.62z"/>
    <path fill="#6b1716" d="M39.7 23.89c3.01-2.15 4.4 2.13 5.22 4.27l-.07.6c-.48 2.27.48 4.47.86 6.67 1.13.53 2.26 1.05 3.41 1.52-.78 1.57-3.16 3.35-4.61 1.5-2.07-2.37-3.04-5.49-4.95-7.98-1.63-1.88-.61-4.54.14-6.58z"/>
    <path fill="#aa2323" d="M65.2 24.66c2.48.77 5.19 1.24 7.23 2.95 1.1 2.61 1.6 5.53 3.78 7.54-.26.4-.77 1.2-1.03 1.6-2.55-3.65-5.99-8.54-11.1-7.6-2.85 1.51-3.05 5.28-3.46 8.11.31.4.95 1.19 1.27 1.58.11.23.34.7.45.93-.77.85-1.53 1.71-2.29 2.57-.09-1.99.26-4.2-1.12-5.87-.07-.46-.2-1.38-.26-1.85 1.13-3.97 2.97-7.64 6.53-9.96z"/>
    <path fill="#080202" opacity=".3" d="M96.34 24.11c.41.5.82 1 1.22 1.5-1.91 1.11-2.17 3.56.01 4.52l.04 1.43c-1.94.06-3.72-1.56-3.74-3.52.63-1.43 1.61-2.65 2.47-3.93z"/>
    <g fill="#f13034">
        <path d="M97.57 30.13c-2.18-.96-1.92-3.41-.01-4.52 1.13 1.19 1.77 3.56.01 4.52zM64.24 33.96c3.33.1 6.5 1.67 9.5 3.04 1.93 1.95 3.35 4.33 4.92 6.56.12.17.35.51.47.68-2.09 4.67.85 9.62.06 14.49-.97-.4-1.95-.79-2.92-1.19-1.54 2.91-4.68 5.82-3.41 9.42.76 1.64.85 4.32-1.25 4.94-.93-2.55-1.6-5.24-2.97-7.6-1.23-1.03-2.78-1.49-4.25-2.04-.03-1.59-.18-3.19.14-4.76 1.63-2.21 3.64-4.1 5.62-5.98 1.13.66 2.23 1.36 3.3 2.13l1.29-.08c-.52-2.03-1.11-4.05-1.72-6.06-1.16-.01-2.32-.02-3.48-.02.18 1.14.37 2.28.55 3.41-1.54-.02-3.17-.26-4.59.51-.05 1.31-.12 2.61-.19 3.91-.34-.32-1-.97-1.33-1.29-.33-2.41-1.01-4.74-2.07-6.93-1.36-2.39 1.41-4.89.43-7.33-.11-.23-.34-.7-.45-.93-1.01-2.09.96-3.71 2.35-4.88m7.96 4.21c.69.62.69.62 0 0z"/>
    </g>
    <path fill="#c02829" d="M58.93 36.47c1.38 1.67 1.03 3.88 1.12 5.87.76-.86 1.52-1.72 2.29-2.57.98 2.44-1.79 4.94-.43 7.33 1.06 2.19 1.74 4.52 2.07 6.93.33.32.99.97 1.33 1.29.07-1.3.14-2.6.19-3.91 1.42-.77 3.05-.53 4.59-.51-.18-1.13-.37-2.27-.55-3.41 1.16 0 2.32.01 3.48.02.61 2.01 1.2 4.03 1.72 6.06l-1.29.08c-1.07-.77-2.17-1.47-3.3-2.13-1.98 1.88-3.99 3.77-5.62 5.98-.32 1.57-.17 3.17-.14 4.76 1.47.55 3.02 1.01 4.25 2.04 1.37 2.36 2.04 5.05 2.97 7.6 2.1-.62 2.01-3.3 1.25-4.94-1.27-3.6 1.87-6.51 3.41-9.42.97.4 1.95.79 2.92 1.19.79-4.87-2.15-9.82-.06-14.49 3.76 1.5 3.49 6.43 3.02 9.77l-1.62.2c1.11.48 2.21 1.01 3.21 1.71l-3.45 1.01 3.2-.14c-1.29.23-3.15.47-3.19 2.17-.48 2.64-2.93 4.28-3.62 6.82-.82 2.58-2.01 5.31-1.02 8.02 1.33 4.07 2.26 8.31 2.05 12.62.16 3.5-2.42 6.61-5.52 7.96 2.31-5.25 5.06-11.36 2.62-17.05-.51-1.74-2.15-2.5-3.63-3.23.63 1.97 1.44 4.04.75 6.13-1.51-1.42-2-3.62-2.07-5.62-.27-2.61-1.69-5.72-4.31-6.63l-.99-.32c-2.84-7.56-6.8-15.31-5.78-23.61.1-2.52.07-5.05.15-7.58z"/>
    <path fill="#9a2326" d="M72.2 38.17c.69.62.69.62 0 0z"/>
    <path fill="#841b1e" d="M83.22 53.63c2.43.55 2.44-3.49 5.2-3.14.06 4.33 2.16 8.51 2.06 12.95-.16 3.28-.09 6.58-.55 9.85-2.34-2.64-4.17-5.66-6.23-8.51-.64.08-1.92.23-2.55.31-.45.52-.89 1.06-1.3 1.62 2.24 2.91 6.07 4.96 6.68 8.84 1.2 6.23 9.1 8.97 8.66 15.83-4.07-2.44-8.33-4.57-12.33-7.14-1.83-2.4-1.39-5.62-1.31-8.44-.81 2.87-1.43 6.1-.12 8.93 1.16 1.54 3.03 2.29 4.59 3.35-2.29 4.95-5.84 9.48-10.59 12.25-1.34.81-1.82 2.37-2.48 3.69-1.46-.45-2.92-.91-4.38-1.36 1.16-.52 2.22-1.18 3.2-2-2.5.51-4.99 1.11-7.39 1.98-.54.17-1.63.5-2.18.67-1.97-.38-3.85-1.08-5.62-2.02 2.3-.94 4.53-2.31 7.12-2.09.65.08 1.31.16 1.96.25 1.62-2.33 3.91-4 6.53-5.07 3.1-1.35 5.68-4.46 5.52-7.96.21-4.31-.72-8.55-2.05-12.62-.99-2.71.2-5.44 1.02-8.02.69-2.54 3.14-4.18 3.62-6.82.04-1.7 1.9-1.94 3.19-2.17.84.24 1.61.62 2.32 1.14-.94.45-2.83 1.34-3.77 1.78 2.64.71 5.44-1.79 5.72-4.21-1.81.41-3.58-.23-4.54-1.87z"/>
    <path fill="#4d1010" d="M90.25 55.41c2.02-.05 4.03-.25 6.01-.61-1.16 2.98-2.66 5.82-3.87 8.78l-.87.31c.02-2.89-.8-5.66-1.27-8.48z"/>
    <path fill="#290809" opacity=".63" d="M90.48 63.44l.04-.74c.61 3.63.58 7.36.3 11.01-.33.34-.98 1.01-1.3 1.35-3.11-3.08-4.32-7.88-8.37-9.97.63-.08 1.91-.23 2.55-.31 2.06 2.85 3.89 5.87 6.23 8.51.46-3.27.39-6.57.55-9.85z"/>
    <path fill="#5a1013" d="M55.59 68.57c2.39-1.29 4.49-3.22 7.11-4.02.1.76.3 2.27.41 3.02-1.66 2.93-4.91 4.05-6.82 6.68-.35.09-1.05.26-1.4.35-.83 1.3-1.81 2.51-2.91 3.6-.47.35-1.4 1.06-1.87 1.42-1.34-.85-1.94-2.18-1.78-3.98-1.54 1.4-2.94 2.95-4.1 4.67.23.3.7.88.94 1.17l.32.41c-.81-.19-2.45-.56-3.26-.75 2.96-5.51 8.33-9.12 13.36-12.57z"/>
    <path fill="#681110" d="M79.85 66.71c.41-.56.85-1.1 1.3-1.62 4.05 2.09 5.26 6.89 8.37 9.97 5.07 6.87 9.79 14.09 14.46 21.21-3.04-1.42-5.84-3.29-8.79-4.89.44-6.86-7.46-9.6-8.66-15.83-.61-3.88-4.44-5.93-6.68-8.84m16.08 22.1c-.31 1.58 1.87 2.5 3.07 2.89.03-1.29-1.56-3.74-3.07-2.89z"/>
    <path fill="#81191b" d="M56.29 74.25c1.91-2.63 5.16-3.75 6.82-6.68l.96-.8.23 1.72c.31-.13.94-.38 1.25-.51 2.62.91 4.04 4.02 4.31 6.63-.13.54-.4 1.6-.54 2.14.25.64.76 1.93 1.01 2.57-.33.52-.99 1.57-1.32 2.1-5.19.26-10.6-1.83-15.63-.02-.78-.44-1.49-.97-2.13-1.59l1.26-.11-.53-1.5c1.1-1.09 2.08-2.3 2.91-3.6.35-.09 1.05-.26 1.4-.35z"/>
    <path fill="#681816" d="M24.09 71.11c4.92 4.57 8.07 10.59 11.19 16.43-1.29.39-2.58.79-3.87 1.18l-.19.06c-2.12-5.99-5.14-11.63-7.13-17.67z"/>
    <path fill="#dc2c31" d="M71.18 74.1c1.48.73 3.12 1.49 3.63 3.23 2.44 5.69-.31 11.8-2.62 17.05-2.62 1.07-4.91 2.74-6.53 5.07-.65-.09-1.31-.17-1.96-.25-.7-.1-2.09-.29-2.79-.38 1.49-1.06 2.98-2.11 4.4-3.26l-.37-1.23c-.11-.29-.32-.88-.42-1.17 1.22-1.82 2.97-3.08 4.93-4.01 1.66-1.7.53-4.19-.2-6.05.92-.93 1.98-1.76 2.68-2.87.69-2.09-.12-4.16-.75-6.13z"/>
    <path fill="#882027" d="M45.17 81.48c1.71-1.11 4.27-.25 6.29-.67-1.07 2.33-4.05.84-5.97 1.08l-.32-.41z"/>
    <path fill="#ad2021" d="M67.17 82.75c.52.09 1.56.26 2.08.35.73 1.86 1.86 4.35.2 6.05-1.96.93-3.71 2.19-4.93 4.01-.97-.38-1.93-.77-2.9-1.17 2.85-2.38 4.69-5.65 5.55-9.24z"/>
    <path fill="#83191b" d="M31.41 88.72c1.29-.39 2.58-.79 3.87-1.18 2.95 3.32 6.76 5.98 11.06 7.17.05.43.16 1.3.21 1.73l2.68-.2c-3.06 1.17-6.16 2.22-9.27 3.27l-1.88.16c1.6.53 3.14 1.35 4.88 1.22-2.62 2.91-7.16 2.7-10.5 4.54.59-2.54 2.03-4.76 3.09-7.1-1.51-3.14-3.04-6.3-4.14-9.61z"/>
    <path fill="#080202" opacity=".32" d="M95.93 88.81c1.51-.85 3.1 1.6 3.07 2.89-1.2-.39-3.38-1.31-3.07-2.89z"/>
    <path fill="#aa2023" d="M58.1 94.11c1.14-.77 2.34-1.43 3.52-2.12.97.4 1.93.79 2.9 1.17.1.29.31.88.42 1.17-2.16 2.96-5.53 4.72-8.36 6.96-1.16.22-2.32.41-3.48.63-4.76.8-9.18-1.24-13.74-2.21l.6-.2c3.11-1.05 6.21-2.1 9.27-3.27 2.31-.46 4.64-.88 6.97-1.19.47-.23 1.42-.7 1.9-.94z"/>
    <path fill="#350b0b" opacity=".64" d="M56.34 94.13l.97-.49.79.47c-.48.24-1.43.71-1.9.94l.14-.92z"/>
    <path fill="#631310" d="M53.1 101.92c1.16-.22 2.32-.41 3.48-.63 1.77.94 3.65 1.64 5.62 2.02-4.54 1.24-7.67 6.03-12.86 5.71.84-1.26 1.6-2.58 2.2-3.97-.57-.59-1.71-1.75-2.27-2.34 1.28-.23 2.56-.49 3.83-.79z"/>
    <path fill="#230909" opacity=".58" d="M64.38 102.64c2.4-.87 4.89-1.47 7.39-1.98-.98.82-2.04 1.48-3.2 2-1.15.55-2.29 1.14-3.4 1.76-.27-.6-.53-1.19-.79-1.78z"/>
    <path fill="#5a1316" d="M65.17 104.42c1.11-.62 2.25-1.21 3.4-1.76 1.46.45 2.92.91 4.38 1.36-.58 2.71-1.46 5.35-2.37 7.97-1.99-2.4-2.15-6.35-5.41-7.57z"/>
</svg>
