<svg width="128pt" height="128pt" viewBox="0 0 128 128" xmlns="http://www.w3.org/2000/svg">
    <g fill="#8c1c21">
        <path d="M59.72 26.3c1.5-1.21 3.04-2.26 3.74.38-.75.45-1.5.91-2.25 1.36l.56.17 1.71 2.62c-1.58-.04-3.16-.08-4.74-.11-1.76.02-3.51.29-5.23.64l-1.39.12-.24-4.47c.63.01 1.88.04 2.51.05 1.78.02 3.76.3 5.33-.76zM34.76 47.59c3.33.58 1.52 4.92 1.3 7.22l-2.4-.4c.84.85 1.7 1.69 2.55 2.52-.55 0-1.65-.01-2.2-.01.15.43.45 1.27.6 1.7-.64 2.2-.31 4.89-1.59 6.79l-1.3.97c1.62-4.15 1.84-8.67 1.39-13.07.96-.32 1.91-.66 2.86-1.02-.44-1.55-.88-3.11-1.21-4.7z"/>
    </g>
    <path fill="#791818" d="M64.41 26.09c1.11-1.92 2.35-1.11 3.5.16 10.68-.36 22.65 6.19 24.28 17.51l-.01 1.09c-2.31-3.09-4.34-6.78-8.19-8.19-1.28-1.01-2.68-1.84-4.11-2.63-1.78-1.4-3.82-2.61-6.18-2.37-2.74-.36-5.51-.2-8.27-.03l-.37-.74c-.08-.47-.25-1.43-.33-1.91-.74-.19-2.22-.57-2.96-.77l-.56-.17c.75-.45 1.5-.91 2.25-1.36l.95-.59z"/>
    <path fill="#180505" opacity=".46" d="M54.39 27.06c.35-2.01 3.95-1.78 5.33-.76-1.57 1.06-3.55.78-5.33.76z"/>
    <path fill="#7e1b1b" d="M40.77 33.81c2.97-3.31 7.09-5.14 11.11-6.8l.24 4.47c-1.15.62-2.29 1.25-3.43 1.9-2.64.87-4.51 5.04-7.39 3 .1 1.14.16 2.29.17 3.44.38-.12 1.13-.37 1.5-.49.01.73.02 2.21.03 2.95-.62.17-1.85.53-2.47.71-.63.28-1.89.86-2.52 1.15.65-1.46 1.29-2.91 1.92-4.38-1.05 1.48-2 3.02-2.97 4.55-.5-.45-.99-.92-1.46-1.41 1.41-3.21 2.75-6.57 5.27-9.09z"/>
    <path fill="#270808" opacity=".53" d="M53.51 31.36c1.72-.35 3.47-.62 5.23-.64l-.08.95c-.06.76-.09 1.53-.08 2.29-.41-.24-1.24-.71-1.65-.95l.16-1.22c-1.58.6-3.17 1.19-4.76 1.77l-.01.24c-.02 1.64-.85 3.07-1.69 4.41l.03-1.43c.04-.72.04-1.44.01-2.17l-.54-.34c-.36-.22-1.08-.67-1.44-.89 1.14-.65 2.28-1.28 3.43-1.9l1.39-.12z"/>
    <path fill="#270909" opacity=".57" d="M73.7 31.66c2.36-.24 4.4.97 6.18 2.37l.01.79c-.92-.24-1.84-.4-2.78-.48-.01.56-.04 1.69-.06 2.25-.64-.73-1.29-1.45-1.94-2.17.31-.41.93-1.22 1.23-1.62-.97.03-2.9.09-3.87.13l1.23-1.27z"/>
    <g fill="#c62c31">
        <path d="M52.33 33.56c1.59-.58 3.18-1.17 4.76-1.77l-.16 1.22c-.34 1.5-.72 3-1.15 4.48-1.2-1.19-2.43-2.34-3.46-3.69l.01-.24zM71.01 32.28c.67-.15 2.02-.46 2.69-.62l-1.23 1.27c.97-.04 2.9-.1 3.87-.13-.3.4-.92 1.21-1.23 1.62-.78 1.02-1.63 2-2.51 2.94-.54-1.69-1.07-3.38-1.59-5.08zM42.47 38.73c1.69-1.26 3.35-2.57 4.98-3.9-.36 1.93-.73 3.86-1.06 5.8-1.3-.64-2.61-1.28-3.92-1.9zM92.81 56.08l1.28-.42c.12 4.34 1.38 8.52 2.46 12.7-.72-1.23-1.42-2.47-2.14-3.7-.23-2.9-.51-5.85-1.6-8.58zM53.93 82.39c.52-1.43 1.05-2.85 1.61-4.27.5 1.57 1.06 3.12 1.42 4.73.13.78.4 2.32.53 3.1-1.51-.32-3.03-.62-4.54-.92.32-.88.65-1.76.98-2.64zM67.38 80.03c1 1.59 1.96 3.2 2.92 4.81-1.33 1.04-3.01.98-4.59.73.52-1.86 1.09-3.7 1.67-5.54zM46.65 82.12c.34-.22 1.01-.67 1.35-.89l.1.79c-.35.22-1.05.65-1.41.87l-.04-.77zM48.4 84.86c.39-1.2.76-2.41 1.11-3.63.84 1.48 1.73 2.93 2.66 4.36-1.25-.26-2.51-.5-3.77-.73zM61.69 80.34c.46 1.88.95 3.76 1.43 5.64-1.42-.08-2.84-.16-4.25-.23.01-.31.04-.93.06-1.24.82-1.46 1.82-2.8 2.76-4.17zM79.54 80.56l1.9 1.28c.88.53 1.75.44 2.62-.26l.13 1.71c-.18.31-.53.92-.71 1.22-.61.18-1.82.55-2.43.73.25-.45.74-1.33.98-1.77-.85-.96-1.68-1.93-2.49-2.91zM86.25 81.17c1.1.24 2.2.43 3.31.59.17.45.5 1.36.67 1.82.51-.4 1.52-1.2 2.02-1.6l.18.96c.64 1.9-.33 3.43-1.98 4.32.04-.64.11-1.93.14-2.58-.4-.21-1.22-.62-1.63-.83-.27-.37-.8-1.11-1.07-1.47-.39.44-1.17 1.31-1.57 1.75l-.42-.59c.09-.59.26-1.78.35-2.37z"/>
    </g>
    <path fill="#ac252c" opacity=".98" d="M58.58 33.96c-.01-.76.02-1.53.08-2.29 1.47-.32 2.86-.15 4.15.5.05 1.09-.2 2.13-.76 3.11l-2.04.96c-.36-.57-1.07-1.71-1.43-2.28z"/>
    <g fill="#941d1e">
        <path d="M64.9 31.85c.84.11 2.52.31 3.36.41.49.13 1.47.4 1.96.53-.89 1.44-1.79 2.85-2.71 4.27-.91-1.72-1.77-3.46-2.61-5.21zM26.86 74.72c1.08-.73 2.15-1.45 3.21-2.2.38 1.23.79 2.45 1.23 3.66.45.26 1.35.78 1.79 1.05.56 1.05 1.08 2.12 1.58 3.2-5.33.13-9.71-2.96-13.47-6.37 1.89.18 3.78.4 5.66.66z"/>
    </g>
    <path fill="#d62c31" d="M68.26 32.26c.42-.07 1.26-.22 1.69-.29l.27.82c-.49-.13-1.47-.4-1.96-.53z"/>
    <path fill="#ba2a31" d="M50.13 34.27l.54.34c.03.73.03 1.45-.01 2.17-2.32.58-3.53-3.31-.53-2.51z"/>
    <path fill="#b32729" opacity=".95" d="M77.11 34.34c.94.08 1.86.24 2.78.48.39 1.47-1.74 2.88-2.84 1.77.02-.56.05-1.69.06-2.25z"/>
    <path fill="#2b0a0c" opacity=".51" d="M60.01 36.24l2.04-.96c.31 1.47-.28 2.02-1.8 1.62l-.24-.66z"/>
    <path fill="#b5252a" opacity=".95" d="M80.92 36.06c1.05-.38 2.08-.18 3.07.6.19.32.57.95.76 1.27-.03.4-.1 1.2-.14 1.6-.68.14-2.06.42-2.75.56.41-1.14.18-2.17-.69-3.09l-.25-.94z"/>
    <path fill="#0d0303" opacity=".38" d="M81.17 37c.87.92 1.1 1.95.69 3.09-1.39-.76-1.62-1.79-.69-3.09z"/>
    <path fill="#3b0d0f" opacity=".71" d="M83.99 36.66c3.85 1.41 5.88 5.1 8.19 8.19l.01-1.09c.1-1.04.28-3.12.38-4.15 1.09 1.48 2.85 2.98 2.5 5.04-.03.57-.11 1.7-.14 2.27-.8.93-1.18 2.01-1.15 3.23-.52-.22-1.56-.64-2.08-.85.13 1.54.89 2.06 2.28 1.56.35-.53 1.06-1.58 1.41-2.11.18.88.34 1.76.47 2.64-.59 1.43-1.17 2.85-1.77 4.27l-1.28.42.5-.87c.17-.58.52-1.74.69-2.32-.47.33-1.42 1.01-1.89 1.34-.74-2.03-1.58-4.03-2.38-6.04.57-.35 1.72-1.04 2.29-1.39-.33-1.18-1.56-1.6-2.63-1.82-.7-.23-2.09-.69-2.78-.92.9-.56 1.73-1.22 2.48-1.98-.91-.77-1.96-1.35-3.1-1.68-.16 1.14-.14 2.27.07 3.41l-.92.53c-.18-1.6-.35-3.2-.53-4.81.04-.4.11-1.2.14-1.6-.19-.32-.57-.95-.76-1.27m9.08 7.7c-1.5 3.01 3.3.13 0 0z"/>
    <path fill="#c72830" d="M85.99 40.4c1.14.33 2.19.91 3.1 1.68-.75.76-1.58 1.42-2.48 1.98l-.55-.25c-.21-1.14-.23-2.27-.07-3.41z"/>
    <path fill="#631c18" d="M34.12 41.42l.94.16c1.54 1.95-2.45 1.53-.94-.16z"/>
    <path fill="#d63039" d="M40.53 42.99c.62-.18 1.85-.54 2.47-.71 1.4 1.77-2.57 2.92-2.47.71z"/>
    <path fill="#270a0a" opacity=".64" d="M32.42 43.52c.5.26 1.5.79 2 1.05.08 1.01.2 2.02.34 3.02.33 1.59.77 3.15 1.21 4.7-.95.36-1.9.7-2.86 1.02l-.95-.53c.21-2.4.49-4.81.36-7.23-.03-.51-.07-1.52-.1-2.03m.91 7.68c.46.54.46.54 0 0z"/>
    <path fill="#a12223" opacity=".93" d="M35.16 45.9c1.41-.65 2.79-1.35 4.21-1.98-.21 1.72.69 4.6-1.86 4.87-.85-.91-1.57-1.93-2.35-2.89z"/>
    <path opacity=".31" d="M93.07 44.36c3.3.13-1.5 3.01 0 0z"/>
    <path fill="#9e2326" opacity=".93" d="M89.39 44.98c1.07.22 2.3.64 2.63 1.82-.57.35-1.72 1.04-2.29 1.39l-.71-.38c.1-.71.28-2.12.37-2.83z"/>
    <path fill="#631415" d="M95.07 44.65c2.42 3.32 5.69 6 7.52 9.73 2.16 4.4 5.1 8.4 6.93 12.96.32 2.27 0 4.56.02 6.83-.93.08-2.4 1.11-2.95-.2-.09-.35-.25-1.05-.34-1.4-2.42.18-4.84.06-7.25-.24l-.15-.85c-.48-4.6-2.94-8.81-2.82-13.49-.06-2.2-.05-4.4-.17-6.6-.13-.88-.29-1.76-.47-2.64-.11-.46-.35-1.37-.46-1.83.03-.57.11-1.7.14-2.27z"/>
    <path fill="#76151b" d="M32.52 45.55c.13 2.42-.15 4.83-.36 7.23-.21 2.88-.14 5.77-.36 8.65-4.2 3.04-7.41 7.14-10.36 11.36-.41.07-1.22.22-1.63.3.33.46 1 1.38 1.33 1.84-.42.04-1.27.11-1.69.15-.21-.1-.64-.29-.86-.39-.12-3.35-.95-7.06 1.12-10.02 3.88-6.64 6.91-13.93 12.81-19.12z"/>
    <path opacity=".38" d="M93.78 50.15c-.03-1.22.35-2.3 1.15-3.23.11.46.35 1.37.46 1.83-.35.53-1.06 1.58-1.41 2.11l-.2-.71z"/>
    <path fill="#ce3031" d="M91.7 49.3c.52.21 1.56.63 2.08.85l.2.71c-1.39.5-2.15-.02-2.28-1.56z"/>
    <path fill="#781d1e" opacity=".91" d="M33.33 51.2c.46.54.46.54 0 0z"/>
    <path fill="#100304" opacity=".51" d="M94.09 55.66c.6-1.42 1.18-2.84 1.77-4.27.12 2.2.11 4.4.17 6.6-.12 4.68 2.34 8.89 2.82 13.49-1.29-.59-2.07-1.75-2.3-3.12-1.08-4.18-2.34-8.36-2.46-12.7z"/>
    <path fill="#080202" opacity=".45" d="M32.16 52.78l.95.53c.45 4.4.23 8.92-1.39 13.07-.67.62-1.32 1.25-1.97 1.89.66-2.29 1.44-4.54 2.05-6.84.22-2.88.15-5.77.36-8.65z"/>
    <path fill="#a02529" opacity=".91" d="M92.11 54.23c.47-.33 1.42-1.01 1.89-1.34-.17.58-.52 1.74-.69 2.32-.3-.25-.9-.73-1.2-.98z"/>
    <path fill="#5d1313" d="M21.44 72.79c2.95-4.22 6.16-8.32 10.36-11.36-.61 2.3-1.39 4.55-2.05 6.84-.27 1-.52 2.02-.73 3.04l-.25 1.14c-2.45-.04-4.89.1-7.33.34z"/>
    <path fill="#290909" opacity=".64" d="M29.75 68.27c.65-.64 1.3-1.27 1.97-1.89l1.3-.97c-.81 2.26-1.65 4.79-4 5.9.21-1.02.46-2.04.73-3.04z"/>
    <path fill="#220707" opacity=".57" d="M21.44 72.79c2.44-.24 4.88-.38 7.33-.34.32.02.98.05 1.3.07-1.06.75-2.13 1.47-3.21 2.2-1.88-.26-3.77-.48-5.66-.66 3.76 3.41 8.14 6.5 13.47 6.37-.5-1.08-1.02-2.15-1.58-3.2 1.25.08 2.5.17 3.74.26.79 1.83 1.45 3.73 1.87 5.68l-3.36-1.52c.08 1.39.22 2.77.42 4.14 2.91 2.41 6.98 2.35 10.11 4.32 1.27 1.26 1.84 3.01 2.63 4.56-2.93 1.91-5.75 3.98-8.34 6.34-.7-4.28 6.37-4.09 6.79-7.78-2.96-3.85-8.52-3.38-12.29-6.05-.55-1.85-.61-3.79-.84-5.7-5.41-.51-9.93-3.55-14.37-6.4.42-.04 1.27-.11 1.69-.15-.33-.46-1-1.38-1.33-1.84.41-.08 1.22-.23 1.63-.3m13.54 6.58c-1.49 3.01 3.33.1 0 0z"/>
    <path fill="#0f0303" opacity=".41" d="M96.94 75.13c.5-1.04.16-3.53 2.06-2.8 2.41.3 4.83.42 7.25.24.09.35.25 1.05.34 1.4l-.63.29-.78-.12c-1.36-.01-2.71.14-4.06.27-.9-.44-1.8-.89-2.69-1.34-.37.51-1.11 1.54-1.49 2.06z"/>
    <path fill="#811b1b" d="M98.43 73.07c.89.45 1.79.9 2.69 1.34 1.35-.13 2.7-.28 4.06-.27l.78.12c.14.54.41 1.62.55 2.17-3.01-.23-5.18 2.04-7.36 3.71-1.96-.12-3.92-.24-5.88-.38.64-.81 1.29-1.61 1.94-2.42.6-.72 1.18-1.46 1.73-2.21.38-.52 1.12-1.55 1.49-2.06z"/>
    <path fill="#6e1516" d="M16.6 73.91c.5.2 1.49.59 1.99.78.22.1.65.29.86.39 4.44 2.85 8.96 5.89 14.37 6.4.23 1.91.29 3.85.84 5.7 3.77 2.67 9.33 2.2 12.29 6.05-.42 3.69-7.49 3.5-6.79 7.78.06.41.19 1.23.25 1.64-1.31.13-2.63.25-3.94.37v-1.03l2.35-.36-.13-.49c-.39-.67-.8-1.33-1.22-1.98 1.57-1.29 3.13-2.59 4.69-3.9-5.54-1.38-10.34-4.65-15.91-5.84.71-2.3 1.34-4.63 1.88-6.98-1.21-.29-2.42-.58-3.64-.88-.16-.46-.5-1.38-.66-1.84-.4-.08-1.2-.23-1.59-.3-1.7-1.56-3.38-3.13-4.97-4.8l-.67-.71z"/>
    <path fill="#8c1c1e" d="M17.27 74.62c1.59 1.67 3.27 3.24 4.97 4.8.39.07 1.19.22 1.59.3.16.46.5 1.38.66 1.84 1.22.3 2.43.59 3.64.88-.54 2.35-1.17 4.68-1.88 6.98 5.57 1.19 10.37 4.46 15.91 5.84-1.56 1.31-3.12 2.61-4.69 3.9.42.65.83 1.31 1.22 1.98-6.1 1.85-12.08-1.47-16.94-4.84-4.89-3.48-4.19-10.07-5.54-15.24-.84-2.23.35-4.37 1.06-6.44z"/>
    <path fill="#731718" d="M99.15 80.14c3.78-2.25 8.19-3.34 11.6-6.2.58 2.33 1.85 4.71 1.05 7.16-1.2 4.59-.74 9.87-3.89 13.73-3.27 3.18-7.54 5.18-11.83 6.58-2.71-.08-5.46-.36-8.02-1.31-2.09-2.41-4.88-3.97-7.62-5.52.84-2.99 3.57-4.36 6.33-5.15.91 2.53 4.99 2.07 3.74-.93.97-.5 1.92-1.03 2.86-1.6.46-1.73.79-3.49 1.15-5.24 1.55-.48 3.11-.94 4.63-1.52z"/>
    <path fill="#2c0a0b" opacity=".64" d="M92.34 77.42l2.87-.08c-.65.81-1.3 1.61-1.94 2.42 1.96.14 3.92.26 5.88.38-1.52.58-3.08 1.04-4.63 1.52-.36 1.75-.69 3.51-1.15 5.24-.33-1.31-.67-2.63-.94-3.96l-.18-.96c-.5.4-1.51 1.2-2.02 1.6-.17-.46-.5-1.37-.67-1.82-1.11-.16-2.21-.35-3.31-.59l-.74-1.03c1.48.11 2.95.27 4.43.46l2.4-3.18z"/>
    <path fill="#561417" opacity=".82" d="M34.98 79.37c3.33.1-1.49 3.01 0 0z"/>
    <path fill="#b9262e" opacity=".96" d="M72.48 78.32l.42.91c.94 2 1.74 4.07 2.47 6.16-1.51.19-3.02.38-4.53.58.07-.4.2-1.19.26-1.59.31-2.05.85-4.06 1.38-6.06z"/>
    <path fill="#200708" opacity=".54" d="M72.9 79.23c.94.77 1.88 1.55 2.83 2.31.16.37.47 1.11.62 1.48.19.34.55 1.02.73 1.37l.31.57c.55.01 1.65.02 2.2.03-.12-1.28-.55-2.49-1.08-3.65l-.54-1.2c.39.11 1.18.31 1.57.42.81.98 1.64 1.95 2.49 2.91-.24.44-.73 1.32-.98 1.77.61-.18 1.82-.55 2.43-.73.18-.3.53-.91.71-1.22.43.06 1.28.19 1.71.25l.42.59c.4-.44 1.18-1.31 1.57-1.75.27.36.8 1.1 1.07 1.47l-.37.36-.32.4c-5.66 2.3-11.86 1.85-17.74 3.11l3.6 2.12c-.51-.05-1.52-.13-2.03-.18-2.59.06-5.17.32-7.76.47-.18 0-.54.01-.72.02-1.37 0-2.74 0-4.11.03-2.16-.13-4.2-.86-6.14-1.77 2.32.18 4.63.41 6.96.56-.38-.38-1.13-1.13-1.5-1.51-5.31-.7-10.68-.96-16.03-1.25-.17-1.03-.35-2.07-.53-3.1.49-.05 1.46-.16 1.95-.21 0 .4.01 1.21.01 1.61.64.16 1.92.48 2.56.63-.2-.52-.61-1.56-.81-2.08l.71-.17c.36-.22 1.06-.65 1.41-.87l-.1-.79-.14-1.1c1.56.05 3.11.09 4.66.13l1.41 2.13c-.33.88-.66 1.76-.98 2.64 1.51.3 3.03.6 4.54.92-.13-.78-.4-2.32-.53-3.1.49.42 1.48 1.25 1.97 1.66-.02.31-.05.93-.06 1.24 1.41.07 2.83.15 4.25.23-.48-1.88-.97-3.76-1.43-5.64l-.21-.93c1.46 1.41 1.56 3.47 1.84 5.36l2.39.8c1.58.25 3.26.31 4.59-.73l.8-.46c-.06.4-.19 1.19-.26 1.59 1.51-.2 3.02-.39 4.53-.58-.73-2.09-1.53-4.16-2.47-6.16m-24.5 5.63c1.26.23 2.52.47 3.77.73-.93-1.43-1.82-2.88-2.66-4.36-.35 1.22-.72 2.43-1.11 3.63m2.69-3.71c-1.58 3 3.26.23 0 0m10.99 7.97c2.38-.06 4.69-.68 6.78-1.82-2.56-.45-5.96-1.75-6.78 1.82m-1.83-1.83c.2 3.33 2.97-1.58 0 0m9.15.08c.51.49.51.49 0 0z"/>
    <path fill="#84191b" d="M41 79.36c.64 1.18 1.06 2.43 1.27 3.75.18 1.03.36 2.07.53 3.1 5.35.29 10.72.55 16.03 1.25.37.38 1.12 1.13 1.5 1.51-2.33-.15-4.64-.38-6.96-.56 1.94.91 3.98 1.64 6.14 1.77-1.08.43-2.15.88-3.22 1.35l-.09 3.76c-6.31.01-10.08 5.8-15.79 7.36-.06-.41-.19-1.23-.25-1.64 2.59-2.36 5.41-4.43 8.34-6.34-.79-1.55-1.36-3.3-2.63-4.56-3.13-1.97-7.2-1.91-10.11-4.32-.2-1.37-.34-2.75-.42-4.14l3.36 1.52c1.13.66 2.23 1.36 3.32 2.09-1.25-1.79-1.59-3.75-1.02-5.9z"/>
    <path fill="#4e1113" opacity=".68" d="M44.22 82.9c-2.35-2.4 2.63-4.13 2.43-.78l.04.77-.71.17-1.76-.16z"/>
    <path fill="#831d1d" opacity=".88" d="M75.73 81.54c.78-2.76 3.06 1.54.62 1.48-.15-.37-.46-1.11-.62-1.48z"/>
    <path fill="#280a0a" opacity=".57" d="M81.44 81.84c.35-1.31 1.18-1.82 2.47-1.53.04.32.11.95.15 1.27-.87.7-1.74.79-2.62.26z"/>
    <path fill="#c63031" d="M39.07 81.17c3.29.17-1.51 3.07 0 0z"/>
    <path fill="#b32c30" d="M51.09 81.15c3.26.23-1.58 3 0 0z"/>
    <path fill="#c9282f" opacity=".96" d="M78.51 81.34c.53 1.16.96 2.37 1.08 3.65-.55-.01-1.65-.02-2.2-.03l-.31-.57c.11-1.2.59-2.21 1.43-3.05z"/>
    <path fill="#b72830" opacity=".96" d="M44.22 82.9l1.76.16c.2.52.61 1.56.81 2.08-.64-.15-1.92-.47-2.56-.63 0-.4-.01-1.21-.01-1.61z"/>
    <path fill="#561215" opacity=".95" d="M88.59 84.21l.37-.36c.41.21 1.23.62 1.63.83-.03.65-.1 1.94-.14 2.58-.23.12-.69.36-.93.48-.49-1.01-.91-2.06-1.25-3.13l.32-.4z"/>
    <path fill="#7b1816" d="M70.53 87.72c5.88-1.26 12.08-.81 17.74-3.11.34 1.07.76 2.12 1.25 3.13-2.86.92-6.11 1.34-8.29 3.64-2.38-.46-4.75-.96-7.1-1.54l-3.6-2.12z"/>
    <path fill="#7b191d" opacity=".97" d="M62.08 89.12c.82-3.57 4.22-2.27 6.78-1.82-2.09 1.14-4.4 1.76-6.78 1.82z"/>
    <path fill="#841b21" d="M60.25 87.29c2.97-1.58.2 3.33 0 0z"/>
    <path fill="#892021" d="M69.4 87.37c.51.49.51.49 0 0z"/>
    <path fill="#921c21" d="M74.13 89.84c2.35.58 4.72 1.08 7.1 1.54-.5 1.07-.96 2.16-1.43 3.24 2.92 1.85 5.89 3.74 8.07 6.48-.09.41-.26 1.23-.34 1.65-5.59-2.02-9.61-7.36-15.91-7.56.17-1.84.32-3.69.48-5.53.51.05 1.52.13 2.03.18z"/>
    <path fill="#3c0c0f" opacity=".96" d="M86.77 89.43c1.19-.51 2.46-.77 3.74-.93 1.25 3-2.83 3.46-3.74.93z"/>
    <path fill="#601315" opacity=".95" d="M59.51 90.18c1.37-.03 2.74-.03 4.11-.03-2.23 2.03-4.69 3.83-7.42 5.14l.09-3.76c1.07-.47 2.14-.92 3.22-1.35z"/>
    <path fill="#731418" d="M64.34 90.13c2.59-.15 5.17-.41 7.76-.47-.16 1.84-.31 3.69-.48 5.53-2.64-1.35-5.03-3.13-7.28-5.06z"/>
    <path fill="#2c0a0b" opacity=".67" d="M88.06 100.1c2.56.95 5.31 1.23 8.02 1.31-2.79 1.01-5.69 1.68-8.66 1.82l.11-.48c.08-.42.25-1.24.34-1.65l.19-1z"/>
</svg>
