<svg width="128pt" height="128pt" viewBox="0 0 128 128" xmlns="http://www.w3.org/2000/svg">
    <g fill="#fff">
        <path d="M61.75 24.79c.3.45.91 1.35 1.21 1.8-.17.35-.5 1.06-.66 1.42-.34 1.01-.67 2.03-1 3.04-1.4-.14-2.8-.28-4.2-.4-1.09.35-2.19.72-3.28 1.1-1.1.2-2.2.41-3.3.63-1.68 1-3.49 1.75-5.17 2.75-.74 1.02-1.76 1.74-2.89 2.26-1.14 1.84-2.91 3.1-4.52 4.48.85 1.03 1.66 2.09 2.44 3.18-.98-.74-1.91-1.54-2.87-2.32-1.44 2.2-2.85 4.44-3.26 7.1-.11-.74-.32-2.2-.43-2.93-1.88.45-.3 2.7-.48 4 1.6.48 4.45.68 2.44 2.67-.66-.83-1.34-1.64-2.04-2.44 0 6.22 2 14.67-4.04 18.73-.5 1.19-1.08 2.36-2.23 3.05-3.04.11-6.16.06-9.02-1.08-.56-4.32 1.78-7.98 3.84-11.54 2.39-3.37 3.53-7.56 6.51-10.51 2.34-2.4 4.66-5.16 5.18-8.59.95-.88 2.13-.88 3.04.05-.02-3.65 2.97-6.5 5.41-8.91 3.84-3.16 8.62-5.46 13.67-5.48 2.05-.12 4.41-.04 5.65-2.06M34.94 42.05c-.17.91-2.14 3.86-.22 3.7.79-1.09 1.24-2.32 1.35-3.67-.28-.01-.85-.02-1.13-.03m-2.77 8.33c-.23 3.23-.12 6.46-.17 9.68.21 3.25-2.42 5.85-2.28 9.11 2.35-2.95 3.59-6.76 3.41-10.54-.17-2.76.87-5.85-.96-8.25zM65.69 24.72c3.14 3.16 7.84 1.45 11.62 3.01 5.98 1.98 11.6 6.28 13.71 12.39 1.06.21 2.08.57 3.03 1.08.75 5.81 6.64 8.68 8.72 13.85 2.42 5.46 7.32 10.19 6.86 16.56-2.16 1.95-5.06 1.01-7.66 1.35-1.97.49-3-1.58-3.71-3.04-2.28-1.01-2.53-3.75-4.02-5.5-.16-2.78-.48-5.64.32-8.36.23 4.57.67 9.44 3.71 13.13.09-2.66-1.51-4.85-2.14-7.32-.37-3.71-.05-7.44-.26-11.16-1.9 1.43-.9 3.7-1.43 5.65-.5-1.79-.47-3.65-.63-5.47l1.64.02c-.25-1.5-.46-3.01-.65-4.52l-1.38-.17c.14.89.41 2.67.55 3.55-.97-2.62-1.98-5.56-4.41-7.18-.17-2.48-3.11-3.12-3.91-5.27-1.16-.52-2.24-1.19-3.06-2.18-1.74-.82-3.58-1.46-5.07-2.7-1.7-.42-3.65-.21-5.08-1.35-3.44-.12-6.93-.18-10.16 1.22.81-.97 1.97-1.44 3.05-2.03.58-1.8.38-3.7.36-5.56M94 45.79c-.01-1.41-.37-2.76-1.09-4.04-1.81.3-.44 4.54 1.09 4.04zM16.98 74.56c.88-.75 2.32-2.23 3.36-.86 1.21.83-.46 1.5-1.03 1.97 3.81 1.07 6.98 3.45 10.46 5.2 1.6.13 3.21.31 4.79.63-.03 1.71-.21 3.42-.1 5.14 3.45 3.46 9.62 2.13 12.49 6.36.69 2.43-2.32 3.14-3.9 4-2.65 1.1-3.45 5.41-7.12 4.04 1.42.68 2.89 1.24 4.25 2.02-1.89.4-3.46-.02-4.72-1.25-5.43-.55-10.55-3.06-14.72-6.52-3.92-3.54-2.88-9.27-4.37-13.85-.92-2.29.3-4.6.61-6.88z"/>
        <path d="M26.62 74.67c1.05-.62 2.1-1.24 3.12-1.89.53 1.24 1.09 2.47 1.65 3.7 2.02.61 3.61 1.72 3.37 4.1-1.74-.2-3.48-.32-5.22-.34-.74-.52-1.47-1.03-2.21-1.54-1.62-1.51-4.31-1.9-5.48-3.73.65-2.2 3.23-.59 4.77-.3zM98.26 72.78c1.02.65 2.07 1.27 3.12 1.89 1.53-.29 4.12-1.9 4.77.3-1.17 1.83-3.87 2.21-5.49 3.73-.73.52-1.47 1.04-2.21 1.56-1.75.01-3.5.12-5.24.33-.18-2.36 1.35-3.5 3.38-4.09.57-1.24 1.13-2.47 1.67-3.72zM107 74.32c.43.43.43.43 0 0z"/>
        <path d="M104.49 77.28c2.21-.7 4.04-2.17 6.09-3.2.52 2.18 1.97 4.38 1.22 6.69-1.67 4.98-.54 11.33-5.05 15.02-4.61 3.3-10.14 6.53-16.05 5.65l1.04 1.49c-7.35.93-11.53-6.54-18.3-7.52-3.49-.45-5.9-3.19-8.83-4.83.83-.46 2.5-1.38 3.33-1.84-2.58.24-5.15.19-7.69-.16-2.02.89-4.02-.04-5.99-.29 1.64 3.38 6.43.3 9.19 2.02-1.94 1.43-3.82 2.94-5.88 4.18-2.61 1.19-5.69 1.14-8.11 2.79-2.76 1.87-5.37 4.04-8.54 5.23-.5-.45-1-.9-1.49-1.35 2.04-.66 3.18-2.71 4.79-4.01 1.1-.31 2.2-.62 3.29-.94l-.38-.5c1.63-1.32.57-3.05-.3-4.38-2.51-3.38-7.46-2.23-10.5-4.97-2.54-.88-.75-3.57.4-4.92l2.12 1.8.23.82c2.57.9 5.14 1.78 7.75 2.54.24-.42.72-1.27.97-1.69l.26 1.77c1.6-.14 3.21-.19 4.81-.34l.22.63 4.66.36c-.1-.51-.31-1.53-.41-2.04.55.61 1.09 1.24 1.62 1.87 1.19-.02 2.39 0 3.58.11 2.53-.31 5.08-.35 7.63-.44.39 1.22.69 3.24 2.42 3.11-.13-.97-1.29-2.72.31-3.05 5.32-.09 10.79-.23 15.59-2.85 1.09-1.1 2.45-1.83 3.81-2.53l-.31-2.91c.66 1.35 1.19 2.77 1.77 4.16l.81-1.69c.91-.03 2.71-.09 3.61-.13 2.13-1.17 4.28-2.32 6.31-3.66m-19.54 11.7c-2.81.29-4.42 2.92-5.15 5.39.43.54 1.31 1.62 1.75 2.16 2.4.51 4.93 2.25 5.5 4.76.55-.38 1.11-.75 1.67-1.12-1.58-1.46-3.07-3.09-5.14-3.82-1.57-.5-3.76-2.32-2.06-3.99 3.25-3.35 8.56-2.73 12.21-5.54-.06-.97-.18-2.92-.23-3.89-.39 4.22-5.12 5.27-8.55 6.05m4.1 12.21l.64 1.16.82-.45-.1-.89-.89-.34-.47.52z"/>
    </g>
    <path fill="#868686" opacity=".53" d="M62.96 26.59c.92-.61 1.83-1.23 2.73-1.87.02 1.86.22 3.76-.36 5.56l-.1-1.16c-.65-.19-1.94-.58-2.59-.77l-.34-.34c.16-.36.49-1.07.66-1.42z"/>
    <path fill="#8f8f8f" opacity=".56" d="M88.24 44.21c.56.63.56.63 0 0z"/>
    <path fill="#f9f9f9" opacity=".98" d="M92.16 52.18l.67-.02.01.67-.67.01-.01-.66z"/>
    <path fill="#c3c3c3" opacity=".76" d="M35.3 80.74c.43.26.43.26 0 0z"/>
    <path fill="#161616" opacity=".09" d="M89.05 101.19l.47-.52.89.34.1.89-.82.45-.64-1.16z"/>
</svg>
