<svg width="128pt" height="128pt" viewBox="0 0 128 128" xmlns="http://www.w3.org/2000/svg">
    <g fill="#fff">
        <path d="M54.81 32.67c.59-.33 1.77-.99 2.37-1.31-.25 2.08-.95 4.06-1.54 6.06-1.05-1.23-2.11-2.47-3.03-3.8-1.07.98-1.2 4.31-3.12 2.79-2.49-1.38-3.51 2.35-2.86 4.23-1.4-.64-2.74-1.43-4.1-2.16 1.33-.85 2.68-1.66 4.02-2.51l-1.14-.58c1.4-.36 2.79-.74 4.16-1.19 1.65-.8 3.28-2.08 5.24-1.53zM57.57 31.63c1.93.16 3.87.18 5.8.08-.81 1.71-1.66 3.4-2.56 5.07-1.18-1.65-2.31-3.34-3.24-5.15zM70.91 31.46c.75.38 2.24 1.12 2.98 1.49.35-.25 1.04-.73 1.39-.98.34 2.08 1.87 1.94 3.15.74l-.55 1.09c4.66 1.35 8.03 5.07 11.55 8.17-1.02 1.23-2.49 1.88-3.9 2.55-.09-1.92-.29-3.84-1.18-5.58-.54.46-1.61 1.36-2.14 1.81-.08-.62-.24-1.84-.31-2.46l-1.28-3.11c-1.02.68-2.04 1.36-3.06 2.03-.39-1.32-1.09-2.48-2.38-3.09-.8 1.13-1.63 2.24-2.49 3.32-.64-1.98-1.24-3.97-1.78-5.98zM40.63 40.66c.65-.58 1.32-1.15 1.99-1.71.24 1.83.39 3.67.49 5.51-1.52-.53-3-1.18-4.37-2.04.59-.63 1.22-1.22 1.89-1.76zM37.02 49.22c-1.8-1.74-.67-4.63.86-5.85 1.6 1.05.93 3.33 1.49 4.9l-2.08-.83c.26.74.77 2.22 1.03 2.97l-2.94-1.92c.48.82 1.43 2.46 1.9 3.28-.91-.29-1.82-.59-2.73-.88.24-1.08.47-2.17.68-3.26l1.79 1.59zM89.99 43.27c.77 1.16 1.6 2.26 2.45 3.37-.41.33-1.21 1.01-1.62 1.35 1.8.01 2.66 1.39 3.45 2.76-.96.45-1.92.9-2.88 1.34l.64-3.16-2.08 1c.25-.6.74-1.8.98-2.4l-2.14.67c.38-1.65.79-3.29 1.2-4.93zM34.24 51.93c.53.74 1.06 1.49 1.58 2.25-.43.7-.51 1.42-.25 2.18l-.05.54c-.28-.03-.83-.09-1.11-.11-.16-1.62-.1-3.25-.17-4.86zM93.34 52.05c1.69.04.92 2.82-.26 3.19-1.83.02-.75-2.7.26-3.19zM93.17 56.13h.66l.01.67h-.67v-.67zM36.17 77.25c1.14 1.52 1.53 3.37 1.85 5.2-.53-1.67-3.42-3.41-1.85-5.2zM88.97 82.62c1.43-1.85 2.84-3.73 4.37-5.51-1.19 2.4-2.85 4.53-4.96 6.19l-.89-1.17c-.19.65-.57 1.96-.76 2.62l-.54-1.13c-1.6 1.27-3.66 1.4-5.61 1.66.38-.47 1.14-1.39 1.52-1.85-1.42-.57-2.33-1.61-2.72-3.12.75.6 2.26 1.8 3.01 2.4.51-1.08 1.04-2.16 1.58-3.22-.02.99-.08 2.97-.11 3.96.76-.1 1.52-.19 2.28-.29-.19-1.62.92-2.48 2.11-3.19l.72 2.65zM52.7 85.35c.85-2.4 1.87-4.73 2.88-7.06.72 2.58 1.59 5.12 2.15 7.75-1.67-.29-3.35-.52-5.03-.69zM72.49 78.44c1.31 2.47 2.83 4.97 2.67 7.89-.39-.31-1.17-.94-1.56-1.25-.69.41-2.07 1.21-2.77 1.62.04-2.85 1-5.53 1.66-8.26zM39.16 80.72c1.23.33 1.43 1.11.6 2.35-1.26-.33-1.46-1.12-.6-2.35zM41.03 83.75c-.35-.97-.67-3.2.66-3.46.92 1.09 1.83 6.12-.66 3.46zM43.88 84.86c.27-1.51.56-3.01.78-4.53.39.39 1.17 1.16 1.56 1.55 1.18-.36 2.13-1.23 3.22-1.79.28 2.19 1.73 3.82 3.01 5.51-1.5-.22-3.01-.37-4.52-.45.51-1.3 2.02-2.61.85-3.97l-.43-.18c-.17.47-.5 1.41-.66 1.88-.37-.01-1.12-.04-1.49-.06l-.43.27c.38.5 1.14 1.49 1.53 1.98-.86-.05-2.57-.16-3.42-.21z"/>
        <path d="M51.67 83.08c-1.77.01-.88-3.35.64-2.84.45 1.09.24 2.03-.64 2.84zM76.04 85.93c.35-2.14-.18-4.35.57-6.42.19 1.26.56 3.77.75 5.03l1.08-4.13c.52 1.63 1.09 3.25 1.71 4.85-1.45-.19-2.81.04-4.11.67zM61.97 80.17c.53 1.8.51 3.77 1.23 5.5.89-.02 1.78-.08 2.67-.17.44-1.84.97-3.65 1.46-5.47.94 1.54 1.87 3.1 2.79 4.65-.18.33-.55.97-.74 1.29-1.26.11-2.52.27-3.77.49-2.44.45-4.86-.39-7.3-.44.73-2.22 2.41-3.93 3.66-5.85z"/>
    </g>
    <path fill="#f6f6f6" opacity=".96" d="M65.02 31.7c1.84.16 3.68.11 5.52-.12-.86 1.88-1.91 3.65-3.02 5.4-.89-1.73-1.72-3.49-2.5-5.28z"/>
    <path fill="#606060" opacity=".38" d="M34.09 58.12c3.31.12-1.51 3.03 0 0z"/>
    <path fill="#8f8f8f" opacity=".56" d="M93.24 58.13c.57.62.57.62 0 0z"/>
</svg>
