<svg width="128pt" height="128pt" viewBox="0 0 128 128" xmlns="http://www.w3.org/2000/svg">
    <g fill="#fff">
        <path d="M56.39 28.21c.77-.04 2.31-.13 3.08-.17-.34 5.2 1.74 11.54-3.12 15.29.41-4.67-.07-9.38.56-14.04-2.43 2.77-5.04 5.39-7.07 8.48-1.56 1.81-3.17 3.58-4.58 5.52-4.47 4.8-8.32 10.13-12.68 15.03-1.89 3.19-4.99 5.41-6.77 8.66l-.53.08c-2.65 3.57-5.64 6.83-8.44 10.28 1.31 3.64 4.52 5.54 8.17 6.26-.01-2.19-.01-4.38-.01-6.57l-2.49-.08c1.17-1.39 2.78-2.42 4.64-2.45 5.64-.11 11.28-.06 16.91-.03 2.06-.02 4.05.83 5.3 2.5-.64.01-1.92.05-2.56.06.07 3.41.09 6.83-.01 10.24 3.29.22 6.58.38 9.88.45-.12-2.68-.15-5.37-.18-8.06 1.03-.14 2.07-.29 3.11-.43-.06 2.83-.08 5.66-.13 8.49 5.78-.13 11.53-.71 17.31-.83.95-1.76 1.81-3.57 2.63-5.39 4.97-.27 9.82-1.42 14.56-2.89.01-1.69.02-3.37.02-5.05-.83.13-2.51.4-3.34.54.57-1.45 2.31-1.24 3.54-1.61 6.02-.81 12.09-1.28 18.05-2.49-.12.37-.36 1.09-.47 1.45-5.09.48-10.16 1.46-15.28 1.56-.46 1.56-.55 3.19-.58 4.81 2.41-1.01 4.81-2.02 7.21-3.02-1.65 3.35.39 9.2-4.43 10.09l1.11.65c-1.22-.14-2.44-.28-3.65-.45-2.39 5.05-5.88 9.51-9.29 13.91-14.88.51-29.81 1.69-44.68.21-5.38-.38-11.03-.89-15.76-3.71-6.05-3.75-9.56-10.54-10.43-17.48.87-2.03 2.37-3.7 3.72-5.42 4.79-5.53 9.42-11.18 14.01-16.87 2.03-1.7 3.09-4.21 5.02-5.99 1.52-1.52 2.66-3.35 3.98-5.04 3.34-3.72 6.65-7.53 9.48-11.68l.51-.09c.26-.3.77-.91 1.02-1.21.9-1.16 1.78-2.33 2.66-3.51m-30 48.78c.06.68.2 2.05.26 2.73 1.45 0 2.89-.01 4.34 0 .06-.68.17-2.04.23-2.71-1.61-.01-3.22-.02-4.83-.02m5.51-.02c-.03.69-.09 2.06-.11 2.75h8.29c.03-.68.08-2.06.1-2.75H31.9m8.99.04c.02.67.05 2.02.07 2.7 1.43 0 2.87.02 4.3.03.02-.69.07-2.08.09-2.78-1.49.02-2.97.04-4.46.05m-14.3 3.57c-.03.86-.09 2.57-.13 3.43 1.5.4 3 .79 4.51 1.15l.24-4.66c-1.54.04-3.08.06-4.62.08m5.36-.05c-.1 1.6-.19 3.21-.29 4.82 2.78.57 5.61.94 8.4 1.45-.03-2.1 0-4.19.04-6.28-2.72.03-5.43.03-8.15.01m8.91-.02c.02 2.16.03 4.31-.04 6.47 1.5.03 3.01.06 4.51.1-.05-2.19-.06-4.37-.07-6.56-1.47 0-2.93-.01-4.4-.01z"/>
        <path d="M66.38 30.23c.61-.28 1.84-.84 2.45-1.12-2.05 4.36-5.07 8.15-7.58 12.24-3.39 5.29-6.8 10.56-10.25 15.81-.29-1.31-.06-2.51.66-3.6 4.94-7.76 9.79-15.57 14.72-23.33zM75.43 35.81l1.75 1.39c-9.34 7.89-17.44 17.14-26.89 24.91.47-3.29 3.6-4.93 5.67-7.17 6.41-6.45 13.34-12.41 19.47-19.13zM53.44 63.34c9.44-6.33 18.66-12.98 28.23-19.11.3.37.9 1.1 1.2 1.46-1.92.67-3.62 1.83-5.22 3.06-1.03.62-2.04 1.27-3 1.99-5.64 3.59-11.12 7.4-16.71 11.06-2.61 1.65-4.99 3.73-7.95 4.76.93-1.29 2.09-2.39 3.45-3.22zM94.01 45h1.98c.16 2.71-.01 5.43-.47 8.12 1.89-2.45 2.65-6.16 5.69-7.57-2.73 4.67-5.7 9.26-8.89 13.66.52.45 1.04.91 1.56 1.37 2.52-3.06 5.6-5.59 8.33-8.45 1.15-1.05 2.17-2.6 3.92-2.5-1.87 1.96-3.93 3.73-5.85 5.64-.31.25-.92.76-1.23 1.01l-.07.7-.69.09c-2.48 2.48-4.63 5.56-7.81 7.16.58-.61 1.75-1.82 2.33-2.42-.72-.42-1.43-.84-2.15-1.27.38-.6 1.14-1.8 1.51-2.4.82-1.12 1.51-2.32 2.1-3.57l1.09-.15c-2.32-2.62-1.11-6.27-1.35-9.42zM50.73 69.52c11.74-5.47 23.39-11.13 35.11-16.67 1.75 2.54-1.59 3.06-3.22 3.9-10.69 4.87-21.28 9.96-31.98 14.82l.09-2.05zM92.62 64.64c5.74-3.34 10.79-7.79 16.69-10.84-1.8 2.8-5.15 3.87-7.63 5.95-1.04.61-2.04 1.28-3.01 2-1.04.6-2.04 1.25-2.97 2.02-.8.49-1.59.98-2.38 1.48-.89.68-1.82 1.29-2.81 1.82.63-.87 1.34-1.68 2.11-2.43zM91.13 68.15c6.94-2.59 13.33-6.44 20.17-9.28-.48 2.3-3.05 2.54-4.78 3.48-4.57 2.15-9.25 4.1-13.66 6.58-1.98.48 1.07 2.78 1.7.8 5.9-1.89 11.88-3.55 17.75-5.54-.39 2.19-2.97 1.92-4.6 2.61-5.19 1.23-10.18 3.31-15.43 4.21l-.88 1.24c-.07-1.37-.15-2.73-.27-4.1zM51.43 73.62c12.18-3.95 24.53-7.4 36.69-11.44l-.32 2.3c-12.64 3.26-25.04 7.48-37.72 10.55.34-.35 1.01-1.06 1.35-1.41zM51.39 77.37c12.26-1.55 24.5-3.25 36.77-4.7-.09.54-.26 1.62-.34 2.15-12.36 1.14-24.63 3.07-36.98 4.18.14-.41.41-1.22.55-1.63zM96.28 87.07c.51-.87 1.45-.97 2.29-.53-1.6 1.61-2.61 4.56.3 5.38-1.18 2.3-2.27 4.64-3.19 7.05-2.28 0-4.56.02-6.84.07 2.65-3.88 5.05-7.93 7.44-11.97z"/>
    </g>
</svg>
