<svg width="128pt" height="128pt" viewBox="0 0 128 128" xmlns="http://www.w3.org/2000/svg">
    <g fill="#fff">
        <path d="M40.53 40c1.81.06 3.59.41 5.32.95-.09 3.43.82 6.77 2.59 9.7-3.32-1.53-7-2.26-10.63-1.59 1.83-2.67 2.68-5.85 2.72-9.06zM63.1 43.87c1.45.21 2.89.47 4.34.71.44 2.95.73 6.06 2.6 8.54-2.9-1.09-6.09-2.36-9.16-1.22 1.38-2.46 2.34-5.17 2.22-8.03zM74.13 48.06c12.95 8.48 24.56 18.86 36.19 29.04-4.29-1.62-10.23-.13-13.01-4.52-2.62-3.02-6.28-5.15-8.33-8.66-3.66-6.35-9.29-11.22-14.85-15.86zM39.48 51.5c2.74.52 5.46 1.09 8.19 1.69.1 5.51 1.32 11.14 4.35 15.8-4.91-2.95-10.97-4.19-16.62-3 2.47-4.45 4.19-9.34 4.08-14.49zM62.08 53.87c3.74.45 8.1 1.2 10.17 4.77 6.27 7.83 12.83 15.42 19.53 22.89-5.07-1.07-10.32-2.21-15.48-1.02-.24-7.31-1.79-14.6-4.86-21.26-.29-1.1-1.32-1.15-2.2-.75.72 3.55 1.81 7.03 3.5 10.25-4.07-2.79-9.18-3.25-13.96-2.69 2.13-3.69 3.65-7.85 3.3-12.19zM71.87 54.96c3.78 1.75 7.27 4.05 10.78 6.27 6.93 5.08 13.76 10.7 18.62 17.87-3.87-1.76-8.15-2.4-12.38-2.09-3.15-4.17-7.3-7.59-9.7-12.32-1.83-3.68-4.65-6.66-7.32-9.73zM28.15 57.89c2.42 1.87 4.79 3.8 7.35 5.49-.11.54-.32 1.61-.42 2.15l-2.05-.36c.01.59.02 1.79.03 2.39 1.79 2.06.83 5.12.81 7.59-.52 1.66-.49 3.89-1.88 5.02-4.75.06-9.49-.16-14.24-.09 5.07-6.52 8.2-14.29 10.4-22.19zM35.19 68.42c5.17 1.04 10.33 2.17 15.57 2.78.7 4.65 1.41 9.38 3.29 13.73-6.57-2.56-13.65-4.1-20.71-3.95 1.27-4.08 1.95-8.28 1.85-12.56zM58.6 68.34c4.41.87 8.87 1.51 13.26 2.45.63 3.78 1.16 7.64 2.75 11.17-5.84-3.81-13.46-2.04-18.37 2.44 1.5-5.22 2.17-10.64 2.36-16.06z"/>
    </g>
</svg>
