<svg width="128pt" height="128pt" viewBox="0 0 128 128" xmlns="http://www.w3.org/2000/svg">
    <g fill="#651415">
        <path d="M41.91 37.86c.22-2.1-.98-5.13 1.62-6.07.1 2 .16 4 .22 6 1.28.5 2.56 1 3.82 1.54-.87.29-2.61.85-3.48 1.13l-.8-.16c.17-.15.5-.46.67-.62-1.78-.63-4.48-.18-5.16-2.47.78.16 2.33.49 3.11.65zM64.44 36.88c2.1 1 1 3.77 1.48 5.58-1.09.2-2.17.43-3.25.68l-.49.11c-.18-.39-.54-1.16-.72-1.54l2.82.2c.02-1.68.07-3.36.16-5.03zM36.64 49.81c.77-.88 1.55-1.76 2.33-2.64 1.07.42 2.14.85 3.22 1.26-1.08.47-2.12 1.01-3.12 1.62-.72.66-1.65-.14-2.43-.24zM27.09 54.16c3.31 2.07 6.22 4.69 9.43 6.9-.51.43-1.02.87-1.53 1.3-2.46-2.47-5.54-4.18-8.02-6.61l.12-1.59zM39 66.7c.8.24 2.41.73 3.21.97 1.94.66 3.95 1.05 5.94 1.56-1.29.16-3.87.46-5.15.61-.25-.04-.76-.13-1.01-.18l-5.95-2.2L39 66.7zM41.46 86.28c.39-1.52.66-3.13 1.79-4.31.14 1.08.43 3.25.57 4.33 1.12.02 2.24.03 3.36.04.6-1.09 1.51-1.61 2.73-1.55 3.2-.19 6.4 0 9.59-.09.86 2.01 1.9 3.98 2.43 6.12-.49 1.24-1.16 2.38-1.79 3.55-7.68.37-15.36.94-23.06.95-4.27-3.98-10.31-6.26-13.17-11.58.86-.08 2.56-.25 3.42-.33 2.43 1.3 6.47-.22 7.54 2.89 2.19.03 4.4.13 6.59-.02z"/>
    </g>
    <path fill="#d9292c" d="M40.52 39.76c.7.14 2.08.41 2.77.54l.8.16 1.79.37c.1 3.29.88 6.5 2.23 9.51-.53-.15-1.59-.46-2.12-.61-.16-.05-.49-.16-.65-.21-.79-.27-2.37-.82-3.15-1.09-1.08-.41-2.15-.84-3.22-1.26.9-2.37 1.44-4.87 1.55-7.41z"/>
    <path fill="#340c0d" opacity=".62" d="M65.92 42.46c.98-.03 1.95.05 2.92.22-.38 1.47-.75 2.93-1.1 4.4-.11-.5-.32-1.5-.42-2-1.3-.51-2.57-1.05-3.85-1.58l-.8-.36c1.08-.25 2.16-.48 3.25-.68z"/>
    <path fill="#e73039" d="M63.47 43.5c1.28.53 2.55 1.07 3.85 1.58.1.5.31 1.5.42 2 .11.59.35 1.77.47 2.36-2.11.1-4.21.35-6.27.77.56-2.23 1.01-4.48 1.53-6.71z"/>
    <path fill="#110506" opacity=".38" d="M76.65 51.01c-1.46-.01-3.73-3.86-.97-2.81.32.32.97.95 1.3 1.26-.09.39-.25 1.16-.33 1.55z"/>
    <path fill="#621a1d" opacity=".9" d="M45.34 49.52c.16.05.49.16.65.21l.79.25c1.25.42 2.19 1.19 2.81 2.32-2.76-.25-5.51-.57-8.24-1.05-.07-.28-.21-.82-.29-1.09 1.28-.91 2.82-.63 4.28-.64z"/>
    <g fill="#b82826">
        <path d="M61.94 50.21c2.06-.42 4.16-.67 6.27-.77l.05-.01c.62 1.36 1.27 2.7 1.93 4.03-1.02.24-2.04.49-3.05.74l1.35-1.96c-.57-.13-1.7-.39-2.26-.53-1.77-.43-3.53-.85-5.29-1.3l1-.2zM58.83 65.88c1.2-2.38 2.19-4.87 3.06-7.39.98 1.67 1.92 3.36 2.82 5.07 2 .14 4 .27 6 .39.37 1.03.79 2.05 1.23 3.05l.44 1.04c-4.25-1.93-8.91-2.84-13.55-2.16z"/>
    </g>
    <g fill="#de3034">
        <path d="M77.69 51.85c.4-.36.81-.71 1.21-1.06 1.3 1.23 2.73 2.29 4.03 3.53.43.95.86 1.91 1.27 2.87-2.03-1.93-3.81-4.27-6.51-5.34zM78.15 62.81c.11-1.2-.3-3.45 1.71-3.11 1.8.44 3.17 1.75 4.64 2.8 5.82 4.31 11.5 9.03 15.64 15.03.22.32.68.96.9 1.28-1.81-.67-3.62-1.35-5.52-1.75-.77-.01-2.31-.01-3.08-.02-1.54-6.38-7.59-10.07-13.24-12.44-.26-.45-.79-1.34-1.05-1.79zM97.99 66.54c2.38 1.77 4.8 3.53 6.85 5.69.49.85 1.18 1.5 2.06 1.95.39.31 1.18.91 1.57 1.21.87.7 1.8 1.37 2.87 1.77-.44-.07-1.31-.2-1.75-.27-1.18-.22-2.35-.47-3.53-.66-1.35-.23-2.7-.42-4.06-.56.26-1.13.53-2.26.79-3.4-1.98-1.48-6.1-2.45-4.8-5.73z"/>
    </g>
    <path fill="#e42d31" d="M39.42 51.44c2.72.56 5.45 1.07 8.18 1.61.15 3.41.99 6.73 1.4 10.11.21.49.63 1.46.83 1.95.79 1.21 1.52 2.46 2.2 3.75-2.8-.67-6.71-4.37-9.2-1.59 1.8.56 3.58 1.22 5.32 1.96-1.99-.51-4-.9-5.94-1.56l.22-2.29c-2.09.11-4.17.47-6.26.33-.29-1.3.64-2.42 1.01-3.6 1.62-3.31 2.17-7.01 2.24-10.67z"/>
    <path fill="#4f1414" opacity=".86" d="M59.71 52.63c1.22-2.71 4.33-1.1 6.52-.92.56.14 1.69.4 2.26.53l-1.35 1.96c-.39.1-1.17.29-1.56.38-.28-.05-.82-.16-1.1-.21l-1.03-.66c-1.25-.37-2.49-.73-3.74-1.08z"/>
    <path fill="#0d0303" opacity=".27" d="M70.19 53.46l.52-.13c.45.33 1.35.99 1.79 1.31l-.08.48c-.03.15-.08.44-.1.58 1.07 1.23 2.15 2.48 3.55 3.34.72 2.26 2.83 4.12 2.4 6.66-2.71-2.73-5.04-5.79-7.74-8.53-.21 1.34-.41 2.68-.58 4.02-.47-1.99-.77-4.02-1.08-6.04-.82-.14-2.47-.43-3.29-.57.39-.09 1.17-.28 1.56-.38 1.01-.25 2.03-.5 3.05-.74z"/>
    <path fill="#dc2c2e" d="M61.94 53.86c.64.12 1.91.38 2.54.51.28.05.82.16 1.1.21.82.14 2.47.43 3.29.57.31 2.02.61 4.05 1.08 6.04l.76 2.76c-2-.12-4-.25-6-.39-.9-1.71-1.84-3.4-2.82-5.07.02-1.55.03-3.09.05-4.63z"/>
    <g fill="#ce282c">
        <path d="M82.93 54.32c1.51.93 2.98 1.94 4.3 3.13.04 1.16.07 2.32.08 3.48-1.1-1.18-2.43-2.24-3.11-3.74-.41-.96-.84-1.92-1.27-2.87zM27.34 60.01c.43.51 1.29 1.53 1.73 2.04.92 6.06-.08 12.2-.29 18.28-3.76-.17-7.52-.13-11.28-.06 4.64-5.98 7.94-12.95 9.84-20.26z"/>
    </g>
    <g fill="#ec3034">
        <path d="M72.32 55.7c.02-.14.07-.43.1-.58 1.58.46 3.6 1.22 4.16 2.93-.18.24-.53.74-.71.99-1.4-.86-2.48-2.11-3.55-3.34zM77.24 58.2c2.89-1.33.18 2.96 0 0zM75.83 67.95c.77-.16 2.3-.47 3.07-.62 4.56 3.55 7.52 8.91 11.87 12.79-.11.21-.35.63-.46.84-.99-.08-1.96-.18-2.94-.29-.69-.11-2.08-.35-2.77-.46-1.87-1.63-4.07-2.8-6.32-3.79-1-2.77-1.79-5.61-2.45-8.47z"/>
    </g>
    <path fill="#a52326" d="M87.23 57.45c1.53 1.19 3.03 2.41 4.53 3.64.03.03.1.08.14.11l1.08.88.1.35c.48 2.05 1.31 4 2.37 5.82l1.04-3.41c.38.34 1.15 1.03 1.53 1.38l-.03.32c-1.3 3.28 2.82 4.25 4.8 5.73-.26 1.14-.53 2.27-.79 3.4-3.08-.21-4.68-3-6.74-4.89-3.01-2.94-6.67-5.66-7.95-9.85-.01-1.16-.04-2.32-.08-3.48z"/>
    <path fill="#9f1d20" d="M27.34 60.01c.33-.76.61-1.55.96-2.31 2.22 2.05 4.73 3.74 7.12 5.57-.09.44-.26 1.33-.35 1.78l-.45.66-1.61-.31c1.8 5.06 1.99 11.29-1.57 15.63 3.18.71 6.45.83 9.7.51.01.46.03 1.38.05 1.84-4.57.16-9.48-1.24-13.86.03-3.69-1.95-8.63.62-11.84-2.16 4.76-.08 9.52.16 14.28.31.63-.59 1.26-1.18 1.88-1.78l-2.87.55c.21-6.08 1.21-12.22.29-18.28-.44-.51-1.3-1.53-1.73-2.04z"/>
    <path fill="#b82526" d="M70.53 57.17c2.7 2.74 5.03 5.8 7.74 8.53.35.37 1.04 1.11 1.39 1.48l-.76.15c-.77.15-2.3.46-3.07.62.66 2.86 1.45 5.7 2.45 8.47 2.25.99 4.45 2.16 6.32 3.79-2.85-.1-5.7.07-8.54.29-.02-1.52-.02-3.05.01-4.57.29-1.74-.02-3.49-.91-5.01-1.01-4.75-2.73-9.29-4.63-13.75z"/>
    <path fill="#f73431" d="M91.76 61.09c.03.03.1.08.14.11-.04-.03-.11-.08-.14-.11z"/>
    <path fill="#551313" opacity=".72" d="M49 63.16l.9.15.43 1-.5.8c-.2-.49-.62-1.46-.83-1.95z"/>
    <path fill="#bc242b" opacity=".96" d="M93.08 62.43c1.15.77 2.29 1.58 3.41 2.41l-1.04 3.41c-1.06-1.82-1.89-3.77-2.37-5.82z"/>
    <path fill="#2c0a0b" opacity=".59" d="M58.83 65.88c4.64-.68 9.3.23 13.55 2.16L71.94 67c.34.51 1.02 1.52 1.35 2.02l-2.11-.66c-.03 1.03-.04 2.06-.05 3.08-3.87-1.71-8.13-2.12-12.27-2.76l-.36 3.25c-.07.58-.23 1.73-.31 2.3.01-2.78-.15-5.61-1.19-8.22.45-.03 1.37-.1 1.83-.13m1.56 1.92c1.27.85 2.08.66 2.43-.58-1.27-.85-2.08-.65-2.43.58m4.68.35c.12 1.43 2.66 1.2 3.58.59-.17-1.35-2.65-1.19-3.58-.59z"/>
    <path fill="#9d2020" d="M79.2 64.6c5.65 2.37 11.7 6.06 13.24 12.44-.87.03-2.6.08-3.47.11-3.3-4.14-7.67-7.57-9.77-12.55z"/>
    <path fill="#731b21" d="M34.63 66.37c.55.63.55.63 0 0z"/>
    <path fill="#741a1a" opacity=".96" d="M60.39 67.8c.35-1.23 1.16-1.43 2.43-.58-.35 1.24-1.16 1.43-2.43.58z"/>
    <path fill="#7a1c21" opacity=".98" d="M65.07 68.15c.93-.6 3.41-.76 3.58.59-.92.61-3.46.84-3.58-.59z"/>
    <path fill="#d1282e" d="M35.16 68.44c2.27.41 4.55.84 6.83 1.22.25.05.76.14 1.01.18 2.24.47 4.55.71 6.74 1.44-.02 1.04.37 1.93 1.14 2.65 1.29 3.42 1.66 7.12 2.98 10.55-6.83-1.39-13.49-4.35-20.59-3.53 1.28-4.04 1.9-8.26 1.89-12.51z"/>
    <path fill="#ce2c39" d="M58.86 68.68c4.14.64 8.4 1.05 12.27 2.76.01-1.02.02-2.05.05-3.08l2.11.66.71.25c-.73.91-1.49 1.79-2.22 2.71-4.4.74-8.87.48-13.28-.05l.36-3.25z"/>
    <path fill="#c62929" opacity=".92" d="M49.74 71.28c1.7.19 2.08 1.07 1.14 2.65-.77-.72-1.16-1.61-1.14-2.65z"/>
    <path fill="#26090a" opacity=".49" d="M75.16 70.92c.89 1.52 1.2 3.27.91 5.01-1.96-.94-1.61-3.37-.91-5.01z"/>
    <path fill="#ec2d34" d="M58.5 71.93c4.41.53 8.88.79 13.28.05.24.39.7 1.18.94 1.57l.36 4.35c.23.58.69 1.73.91 2.3l.73 1.6c-.65-.25-1.95-.74-2.6-.99-1.95-.74-3.96-1.27-5.97-1.8.05-.55.14-1.66.18-2.21-.81.82-1.64 1.61-2.44 2.44-2.21.45-4.41.88-6.63 1.21.29-2.07.62-4.14.93-6.22.08-.57.24-1.72.31-2.3z"/>
    <path fill="#030100" opacity=".38" d="M104.84 72.23c1.79-.53 2.48.12 2.06 1.95-.88-.45-1.57-1.1-2.06-1.95z"/>
    <path fill="#25090b" opacity=".62" d="M108.47 75.39c1.07-1.06 4.32-.55 3.47 1.41l-.6.36c-1.07-.4-2-1.07-2.87-1.77z"/>
    <path fill="#731c21" d="M106.06 76.23c1.18.19 2.35.44 3.53.66-5.34 2.27-11.71 1.43-16.46 5.02-.61.09-1.83.28-2.44.37-.09-.33-.29-.99-.38-1.32.11-.21.35-.63.46-.84l.48-.85c1.46-.16 2.91-.32 4.37-.47-.02-.44-.07-1.31-.1-1.74 1.9.4 3.71 1.08 5.52 1.75-.22-.32-.68-.96-.9-1.28 1.97-.42 3.93-.92 5.92-1.3z"/>
    <path fill="#731518" d="M63.89 79.24c.8-.83 1.63-1.62 2.44-2.44-.04.55-.13 1.66-.18 2.21 2.01.53 4.02 1.06 5.97 1.8-2.17-.54-4.39-.76-6.61-.96.12 1.39.23 2.77.34 4.16 7.2-.72 14.7-.69 21.52-3.34.98.11 1.95.21 2.94.29.09.33.29.99.38 1.32l.07.23c-2.25.37-4.49.8-6.71 1.27-2.41 3.55-5.13 7.27-9.11 9.14-4.87.95-9.86 1.02-14.8 1.45.63-1.17 1.3-2.31 1.79-3.55-.53-2.14-1.57-4.11-2.43-6.12 1.54-.17 3.08-.32 4.62-.47.15-1.08.44-3.26.59-4.35-3 1.2-5.84 2.74-8.53 4.53.2-.98.61-2.93.81-3.91l.27-.05c2.22-.33 4.42-.76 6.63-1.21z"/>
    <path fill="#551216" opacity=".64" d="M73.08 77.9c.23.58.69 1.73.91 2.3-.22-.57-.68-1.72-.91-2.3z"/>
</svg>
