<svg width="128pt" height="128pt" viewBox="0 0 128 128" xmlns="http://www.w3.org/2000/svg">
    <path fill="#ebebeb" opacity=".92" d="M56.47 34.65c10.15-2.35 21.68.23 28.88 8.06 9.32 8.82 11.3 23.79 5.51 35.08-2.95 5.55-7.52 10.13-13.07 13.07-7.6 3.8-16.75 4.36-24.7 1.3-9.64-3.64-17.02-12.52-18.91-22.65-.59-6.35-.51-13.04 2.6-18.8 3.86-7.82 11.19-13.93 19.69-16.06M39.16 50.26c-4.53 8.43-4.53 19.04.05 27.45 4.93 8.28 13.99 14.46 23.82 14.32 7.92.49 15.93-2.88 21.25-8.74 7.66-7.49 9.85-19.64 5.98-29.53-2.28-6.17-7.03-11.13-12.56-14.56-4.52-2.31-9.53-3.73-14.66-3.38-9.87-.07-18.99 6.07-23.88 14.44z"/>
    <path fill="#ddd" opacity=".87" d="M59.8 65.79c-1.65-3.17 1.59-7.24 5.04-6.29 2.41.14 3.24 2.53 3.8 4.48-.4 2.5-2.15 4.28-4.67 4.65-1.52-.6-3.78-.92-4.17-2.84m2.53-4.75c-.32.32-.96.97-1.29 1.29l-.06 3.47c1.44 1.28 3.7 1.75 5.28.46 1.27-1.58.84-3.86-.46-5.27-1.16.01-2.31.02-3.47.05z"/>
</svg>
