<svg width="128pt" height="128pt" viewBox="0 0 128 128" xmlns="http://www.w3.org/2000/svg">
    <g fill="#7c181b">
        <path d="M50.78 17.75c12.74-3.78 26.88-1.73 38.28 5.01-.53 1.68-1.05 3.36-1.57 5.04l-4 .09c-4.26-1.84-8.65-3.37-13.25-4.12-3.04-.69-6.19-1.03-9.28-.42-5.21.73-10.37 1.91-15.19 4.03l.19.1c-.29.09-.87.28-1.17.38.71 1.36 1.36 2.75 2.02 4.14 1.03 2.16 1.95 4.37 3.01 6.52l.14.43c-.56.27-1.68.82-2.24 1.09-1.8-3.64-3.63-7.27-5.5-10.88-3.57 2.13-6.8 4.75-9.73 7.69 4.52 3.51 9.02 7.02 13.55 10.51-.58.26-1.72.78-2.29 1.03l-.66.3c-1 1.46-1.94 2.97-2.89 4.46-.92-.42-1.84-.85-2.75-1.27-.4.9-1.18 2.7-1.58 3.6.8.27 2.4.8 3.2 1.07-.26 1.84-.51 3.67-.8 5.5-4.39-.99-8.81-1.87-13.26-2.48-.13.82-.38 2.47-.5 3.29-.57-.01-1.71-.02-2.28-.03l-.75-1.45 1.71 1.37c.41-1.39.81-2.78 1.21-4.17 4.48.74 8.94 1.58 13.4 2.45.11-1.23.23-2.47.35-3.7-1.12-.5-2.23-1-3.34-1.51.76-1.69 1.52-3.39 2.29-5.09.96.46 1.92.91 2.88 1.37.82-1.44 1.65-2.88 2.48-4.31-4.11-2.85-8.08-5.92-12.31-8.58-2.16 2.96-4.21 6.01-5.8 9.32-1.81-.47-3.61-.94-5.41-1.41 5.2-14.07 17.38-25.34 31.84-29.37zM53.81 83.05c1.95.77 3.89 1.6 5.92 2.17 3.05.92 6.34 1.03 9.34-.14 2-.26 5.4-3.65 5.88.18-1.88.76-3.73 1.66-5.75 2.02-3.45.1-6.91.1-10.36-.01-2.15-.7-6.43-.93-5.03-4.22z"/>
    </g>
    <path fill="#360f10" opacity=".64" d="M60.96 23.35c3.09-.61 6.24-.27 9.28.42l-4.32.15c.07 2.93.11 5.86.25 8.79 2.22.14 4.43.3 6.64.51-1.39 2.16-4.49.91-6.63.99-2.61-2.13-.86-6.11-1.38-9.06-1.15.32-2.31.64-3.46.97.28 1.2.56 2.41.83 3.62-3.66.66-7.3 1.47-11.02 1.64-.3-.64-.89-1.93-1.18-2.57l-2.88-.28c-.09 1.16-.19 2.31-.28 3.47-.66-1.39-1.31-2.78-2.02-4.14.3-.1.88-.29 1.17-.38.3.15.91.45 1.21.6 1.13-.4 2.25-.79 3.38-1.18.5 1.08 1.01 2.16 1.52 3.24 2.91-.42 5.8-.9 8.7-1.36-.34-1.29-.69-2.57-1.03-3.86.56-.13 1.69-.39 2.26-.52-.26-.26-.78-.79-1.04-1.05z"/>
    <g fill="#731819">
        <path d="M89.06 22.76c9.68 6.19 17.37 15.53 20.93 26.51-1.17 2.34-2.29 4.7-3.38 7.08-1.62-6.29-4.67-12.18-8.86-17.14-.26.18-.79.53-1.06.71l-1.28.92c-2.54 1.94-5.2 3.7-7.86 5.48-.74.5-1.48 1.02-2.21 1.55-.77.57-1.53 1.15-2.3 1.73 3.17 4.47 4.89 9.79 4.95 15.27 1.91-.29 3.83-.57 5.75-.85 1.68-.22 3.36-.44 5.04-.64l.66 1.62c-4.66.06-9.28.77-13.93.92.41-6.12-1.72-12.17-5.81-16.72 5.37-4.09 10.62-8.31 15.99-12.4-3.05-2.84-6.27-5.49-9.81-7.7-1.19 2.4-2.38 4.8-3.58 7.19-.56-.37-1.7-1.11-2.26-1.49.62-1.46 1.26-2.93 1.9-4.39-1.94-.56-3.87-1.2-5.87-1.57-1.25 2.14-1.88 4.55-2.77 6.84.67.05 2.03.14 2.7.19-.33 1.01-.67 2.02-1 3.02.71.15 2.14.45 2.85.59.22-.42.67-1.28.89-1.71-.43.99-.85 1.98-1.29 2.96-2.11-.77-4.2-1.75-2.76-4.37-2.96-.41-6.19.26-8.93-1.14 2.01-.12 4.06.32 6.04-.15 2.43-1.56 2.44-4.71 3.31-7.18 2.37.37 4.7.99 6.99 1.71.35-.43 1.05-1.28 1.39-1.71l4-.09c.52-1.68 1.04-3.36 1.57-5.04zM28.75 41.32c1.04 1.03 1.69 2.56 3.15 3.07 1.03.76 3.11.79 3.06 2.47-1.11 3.62-2.26 7.24-3.6 10.79-.52.12-1.55.37-2.06.49-.29-1.45 1.83-1.69 2.04-3.03 1.09-2.86 1.92-5.8 2.81-8.73-2.07-1.39-6.67-1.36-5.4-5.06z"/>
    </g>
    <path fill="#4f1415" opacity=".76" d="M55.96 31.89c2.12.02 4.3-.32 6.39.13.67 1.47 1.83 2.37 3.48 2.7l-.23.99c-1.68-.47-3.99-.31-4.15-2.58-1.21-.1-2.42-.19-3.63-.28-.61.98-1.23 1.96-1.9 2.9l.04-3.86z"/>
    <g fill="#841c21">
        <path d="M80.04 34.8c.56.38 1.7 1.12 2.26 1.49-1.82 3.51-3.54 7.06-5.39 10.55-2.77-2.19-6.18-3.11-9.41-4.34-.37-.57-1.1-1.73-1.47-2.31 3.55.6 6.93 1.85 10.34 2.96.27-.6.81-1.81 1.08-2.42.44-.98.86-1.97 1.29-2.96.44-.98.88-1.97 1.3-2.97zM48.98 67.68c1.51-.02 3.03-.03 4.54-.05-.64 1.26-1.29 2.52-1.95 3.77-.21.41-.63 1.21-.85 1.62-1.41.04-2.82.1-4.23.2.82-1.86 1.66-3.7 2.49-5.54z"/>
    </g>
    <path fill="#731d21" opacity=".83" d="M57.14 36.33c3.24.03-1.31 2.87 0 0z"/>
    <path fill="#370d10" opacity=".57" d="M49.82 38.52l.5-.08c1.22 2.3 3.19.22 4.51-.81.61.47 1.21.95 1.81 1.43-1.83.79-3.66 1.6-5.49 2.4.39.46 1.15 1.36 1.54 1.81-.2.09-.6.27-.8.37-.73-1.53-1.38-3.09-1.93-4.69l-.14-.43z"/>
    <path fill="#c32831" d="M63.79 37.7c4.36 6.97 7.55 14.61 11.61 21.76.02.04.07.13.09.17L77 62.45c-1.21.44-2.45.79-3.73.99-2.81-5.22-5.52-10.5-8.3-15.75.46 2.43.99 4.85 1.52 7.26-3.02 1.45-2.34 5.07-2.79 7.8-4.5 1.73-9.26 4.25-14.2 2.81 1.67-1.48 2.41-3.62 3.38-5.55 3.62-7.45 7.25-14.89 10.91-22.31m-1.23 10.45c-1.9 5.17-4.63 9.96-6.86 14.98 1.54-.6 3.18-.99 4.6-1.87 1.49-3.97 1.01-8.66 3.4-12.24l-.08-1.73c-.26.22-.8.65-1.06.86z"/>
    <path fill="#8c1f25" opacity=".96" d="M47.72 40.04c.56-.27 1.68-.82 2.24-1.09.55 1.6 1.2 3.16 1.93 4.69.2-.1.6-.28.8-.37 2.87-1.64 6.06-2.53 9.3-3.1-.36.62-1.07 1.88-1.43 2.51-3.29 1.04-6.61 2.11-9.4 4.21-1.15-2.28-2.31-4.56-3.44-6.85z"/>
    <path fill="#330d0f" opacity=".6" d="M95.41 40.84l1.28-.92c1.84 2.62 3.73 5.21 5.6 7.82-2.31.98-4.61 1.95-6.92 2.9.78 2.46 1.55 4.93 2.29 7.41 2.33-.27 4.66-.58 6.98-.9.46 1.77.85 3.62 1.96 5.13-2.04.22-4.08.46-6.12.71 1.16-.23 2.31-.48 3.46-.74.01-.9.05-2.7.07-3.61-2.39.25-4.77.46-7.16.67-1.18-3.04-2.21-6.13-3.1-9.27 2.15-.98 4.31-1.95 6.47-2.91-1.53-2.16-3.14-4.25-4.81-6.29z"/>
    <path fill="#290a0c" opacity=".56" d="M85.34 47.87c.73-.53 1.47-1.05 2.21-1.55-.14.89-.24 1.78-.3 2.68 1.29-.22 2.57-.53 3.84-.83.8 2.56 1.58 5.12 2.21 7.73-.77 1.62-1.25 3.36-1.51 5.13 2.36-.32 4.71-.72 7.06-1.14.14 1.1.29 2.2.44 3.3l.18 1.33c4.21-.36 8.43-.57 12.65-.56-.17-3.78-.58-7.53-1.26-11.25 1.63 3.59 1.42 7.59 1.45 11.42-4.26.16-8.78 1.3-12.87.87l-.66-1.62c-1.68.2-3.36.42-5.04.64 1.79-.22 3.44-.99 4.73-2.27-2.48.12-4.95.32-7.41.5-.32-1.69-.64-3.38-.97-5.08.56-.62 1.11-1.24 1.67-1.86-.45-1.7-.89-3.4-1.33-5.1-1.05.16-2.11.33-3.16.49-.64-.94-1.28-1.89-1.93-2.83z"/>
    <path fill="#8f1c21" d="M18.94 47.12c1.8.47 3.6.94 5.41 1.41-.93 1.99-1.79 4.02-2.61 6.07-.65 1.85-.98 3.8-1.33 5.73.67-.24 2.03-.7 2.71-.93-.56.65-1.11 1.31-1.64 1.98l.75 1.45c.57.01 1.71.02 2.28.03 1.06 0 3.17.01 4.22.01l-.14 1.74c-4.24-.48-8.52-.71-12.79-.59.16-5.76 1.21-11.47 3.14-16.9z"/>
    <path fill="#8c2026" opacity=".97" d="M43.75 48.39c.57-.25 1.71-.77 2.29-1.03.58.48 1.73 1.45 2.31 1.93-2.55 3.05-4.59 6.6-5.4 10.53-.77 1.46.35 4.96-1.79 5.03-.93-1.72-.38-3.71-.4-5.56.66-3.51 2.46-6.6 4.2-9.66-.3-.31-.91-.93-1.21-1.24z"/>
    <path fill="#81181b" d="M106.61 56.35c1.09-2.38 2.21-4.74 3.38-7.08.33 1.14.62 2.28.87 3.44.68 3.72 1.09 7.47 1.26 11.25-4.22-.01-8.44.2-12.65.56l-.18-1.33 1.19-.2c2.04-.25 4.08-.49 6.12-.71l1.23-.1c-.37-1.95-.73-3.91-1.22-5.83z"/>
    <path fill="#461213" opacity=".68" d="M20.41 60.33c.35-1.93.68-3.88 1.33-5.73 2.17.46 4.35.92 6.5 1.47-.12.2-.35.61-.46.82-1.58.19-3.1-.44-4.62-.75l-.04 3.26c-.68.23-2.04.69-2.71.93z"/>
    <path fill="#841b1b" d="M63.7 62.75c.45-2.73-.23-6.35 2.79-7.8.51 2.16.98 4.32 1.44 6.48-1.05.69-2.1 1.38-3.14 2.07 4.47 1.39 9.09 2.66 13.83 2.06 1.39-.15 2.61.7 3.87 1.16-4.68.04-9.36-.08-14.04 0-.5 1.99-1.02 3.98-1.54 5.97 3.7.01 7.41 0 11.11.13-.9-1.75-1.81-3.51-2.73-5.25 1.52.05 3.03.11 4.55.17 1.17 1.92 1.58 4.67 3.68 5.83l1.23.64-1.65-.24c-5.53-.49-11.1.15-16.65-.34-.67 2.84-1.38 5.67-2.19 8.47-.65-1.75-1.23-3.52-1.79-5.29l.18-.2c.39-.45 1.17-1.33 1.56-1.78.08-3.64-.23-7.28-.38-10.91-1.4.83-2.79 1.67-4.23 2.42-4.49.85-9.21.24-13.79.34 1.01-.43 2.03-.85 3.05-1.25l.64.13c4.94 1.44 9.7-1.08 14.2-2.81z"/>
    <path fill="#2a0a0c" opacity=".55" d="M39.72 59.91c.26-.16.78-.47 1.04-.62.02 1.85-.53 3.84.4 5.56 2.14-.07 1.02-3.57 1.79-5.03-.01 2.08.04 4.17.09 6.26-9.09-.39-18.19-1.06-27.24-2.06 4.27-.12 8.55.11 12.79.59l.14-1.74c1.99.2 3.95.61 5.92.97-1.75-.12-3.47.01-5.17.4 1.77 1.11 4.3 1.27 5.88-.27 1.59.2 3.19.35 4.78.51-.1-1.14-.32-3.43-.42-4.57z"/>
    <path fill="#240708" opacity=".57" d="M75.4 59.46c.02.04.07.13.09.17-.02-.04-.07-.13-.09-.17z"/>
    <path fill="#ad2029" d="M64.79 63.5c1.04-.69 2.09-1.38 3.14-2.07 1.78.67 3.55 1.36 5.34 2.01 1.28-.2 2.52-.55 3.73-.99.54 1.03 1.07 2.07 1.62 3.11-4.74.6-9.36-.67-13.83-2.06z"/>
    <path fill="#912029" d="M29.48 64.24c1.7-.39 3.42-.52 5.17-.4l.71.13c-1.58 1.54-4.11 1.38-5.88.27z"/>
    <path fill="#b82731" d="M59.6 66.34c1.44-.75 2.83-1.59 4.23-2.42.15 3.63.46 7.27.38 10.91-.39.45-1.17 1.33-1.56 1.78-.17-.69-.52-2.08-.7-2.77-.25-1-.53-1.99-.82-2.97-.47-1.53-1.02-3.02-1.53-4.53z"/>
    <path fill="#7b1821" d="M16.57 72.54c8.74-1.7 17.56-2.96 26.3-4.68.92 6.37 5.44 11.03 9.88 15.26-.65.07-1.94.22-2.58.29-4.61-3.13-7.56-8.15-9.24-13.37-1.9.44-3.8.88-5.7 1.3 1.65 3.56 3.04 7.23 4.79 10.75.56-.35 1.68-1.04 2.24-1.39 2.02 2.14 3.9 4.4 5.75 6.7 1.72-1.37 3.45-2.74 5.15-4.14-.96 1.98-1.82 4.04-2.31 6.19 1.81.59 3.61 1.2 5.42 1.79-.77 2.5-1.6 4.97-2.52 7.41 1.78 1.01 3.76 1.53 5.76 1.91.19-1.42.37-2.83.56-4.25 2.85-.09 5.7-.19 8.55-.28-.21-1.27-.38-2.54-.5-3.82 2.87-1.73 6.44-1.91 9.59-3-.87-1.84-1.75-3.68-2.6-5.53 1.67 1.12 3.3 2.29 4.92 3.48.68-.85 1.36-1.7 2.03-2.55l3.09 2.4c.97-.87 1.95-1.74 2.92-2.61-.98-.81-1.96-1.61-2.95-2.41 1.86-2.95 3.67-5.93 5.54-8.87 2.36.77 6.95 3.71 7.46-.53-3.61-.84-7.24-1.65-10.83-2.59-1.75 4.61-4.02 9.22-7.95 12.36-1.1 1.12-2.43 1.39-3.99.81 2.53-3.12 5.98-5.49 7.75-9.2l1.65.24-1.23-.64c.58-1.82 1.17-3.65 1.72-5.48 8.82 1.21 17.57 2.91 26.35 4.41-2.65 14.37-12 27.38-25 34.13-11.33 6.15-25.21 7.31-37.43 3.27-16.58-5.32-29.6-20.18-32.59-37.36m10.71.74c-2.05.27-4.09.66-6.13 1.01.46 9.54 5.85 18.48 12.74 24.87 3.3-3.01 7.05-5.52 10.13-8.77-.95-1.57-2.09-3-3.2-4.45-2.19 1.06-4.39 2.09-6.61 3.1-.65-1.29-1.31-2.59-1.97-3.88 1.26-.51 2.51-1.01 3.76-1.52l.37.77c-.72.28-2.16.83-2.87 1.11l1.08 2.51c2.17-1.07 4.36-2.1 6.55-3.12 1.3 1.7 2.54 3.44 3.73 5.21.62-.51 1.86-1.54 2.48-2.05-1.61-2.13-3.27-4.21-5.04-6.21-.71.32-2.12.95-2.83 1.27-1.78-3.81-3.27-7.74-5.08-11.53-2.38.53-4.76 1.04-7.11 1.68m70.38 2.67c-2.3-.18-4.49-.89-6.62-1.74-1.6 2.46-3.17 4.96-4.78 7.42 1.03.96 2.06 1.91 3.1 2.86-1.41 1.19-2.83 2.38-4.26 3.56-.98-.75-1.96-1.49-2.94-2.22-.41.5-1.25 1.51-1.66 2.01 2.4 1.86 4.78 3.76 7.01 5.83l-.34.38c.43.14 1.28.43 1.71.57 1.84 1.58 3.72 3.12 5.65 4.6 6.24-6.09 10.45-13.95 12.71-22.34.19-.74.39-1.48.59-2.21-1.24-.62-3.27-.29-3.82-1.86-.89.16-2.67.46-3.56.61-1.8-1.1-1.99 1.51-2.79 2.53m-62.63 24.6c1.87 1.43 3.77 2.81 5.68 4.19 2.51-5.1 5.07-10.18 7.65-15.25-4.5 3.62-8.76 7.53-13.33 11.06M50 90.06l-.8 2.24c1.16.44 2.32.89 3.49 1.33-1.23 4.09-2.38 8.19-3.72 12.24 4.6 1.2 9.23 2.25 13.84 3.43.02-3.04.02-6.09.07-9.13 1.93.02 3.85.05 5.78.1.04 1.49.09 2.97.13 4.46 2.8-.15 5.58-.39 8.37-.62-.38-1.86-1.34-3.76-.81-5.67 1.64-.39 3.31-.58 4.98-.83-.97-2.6-2.09-5.14-3.37-7.59-2.99.83-6 1.62-9.02 2.35.2 1.45.42 2.9.63 4.35-2.91.03-5.82.14-8.73.37-.28 1.51-.56 3.02-.83 4.53-2.34-.63-4.68-1.23-7.03-1.82.47-2.73 1.32-5.36 2.32-7.93-1.76-.63-3.53-1.23-5.3-1.81m29.78-.43c2.64 4.99 5.07 10.1 7.63 15.14 2.01-1.45 3.98-2.96 5.85-4.59l-1.43-.12c.57-1.5-1.82-3.39-3.17-2.54-2.42-3.17-5.79-5.43-8.88-7.89m-37.09 16.21c12.7 7.06 29.02 7.4 41.82.43 1-2.65-1.9-5.36-2.61-7.94-1.65.26-3.29.51-4.94.77.28 2.01.69 4 1.2 5.96-3.3.1-6.59.29-9.88.51-.18-1.48-.34-2.96-.48-4.44-1.02.02-3.06.05-4.07.07.07 2.98.07 5.96.01 8.95-5.31-1-10.54-2.39-15.77-3.73 1.3-4.06 2.45-8.17 3.78-12.22-.76-.29-2.29-.86-3.05-1.15-1.94 4.29-3.96 8.55-6.01 12.79z"/>
    <path fill="#040101" opacity=".37" d="M50.72 73.02c.22-.41.64-1.21.85-1.62 3.1 1.01 6.4.67 9.6.75l.03.85c-3.49-.03-6.98-.05-10.48.02z"/>
    <path fill="#4f1112" opacity=".84" d="M61.13 70.87c.29.98.57 1.97.82 2.97-5.46-.06-11.16.94-16.48-.55l1.02-.07c1.41-.1 2.82-.16 4.23-.2 3.5-.07 6.99-.05 10.48-.02l-.03-.85-.04-1.28z"/>
    <path fill="#390e10" opacity=".66" d="M21.15 74.29c2.04-.35 4.08-.74 6.13-1.01-.96.26-1.92.53-2.88.8.29 1.28.58 2.57.86 3.86 2.75-1.1 5.6-1.97 8.49-2.59 1.19 2.88 2.48 5.72 3.58 8.64l-.96.42-.37-.77c-1.08-2.27-2.15-4.55-3.24-6.81-2.79.86-5.59 1.71-8.41 2.51-.77-1.84-.7-4.69-3.2-5.05z"/>
    <path fill="#340c0f" opacity=".64" d="M100.45 73.42c.89-.15 2.67-.45 3.56-.61.55 1.57 2.58 1.24 3.82 1.86-.2.73-.4 1.47-.59 2.21-.31-.49-.93-1.48-1.24-1.97-2.09 1.65-2 4.94-3.06 7.3-3.4-1.31-6.82-2.63-10.41-3.33 2.9 2.37 6.27 4.04 9.47 5.95-1.43 2.38-2.97 4.69-4.65 6.9-1.47-.95-2.95-1.89-4.43-2.83-1.34 1.91-2.69 3.81-4.04 5.72-.43-.14-1.28-.43-1.71-.57l.34-.38c1.82-2.05 3.54-4.2 5.27-6.33 1.45.9 2.91 1.81 4.36 2.71 1.03-1.51 2.05-3.02 3.08-4.53-2.68-2.03-6-3.2-8.44-5.51.06-.52.16-1.57.21-2.09 3.5-.74 6.81 1.62 10.13 2.48.63-2.01 1.24-4.02 1.83-6.04-1.17-.3-2.34-.62-3.5-.94z"/>
    <path fill="#320a0c" opacity=".67" d="M59.73 85.22c3.11-.04 6.23-.07 9.34-.14-3 1.17-6.29 1.06-9.34.14z"/>
    <path fill="#3b0c0e" opacity=".72" d="M58.84 87.27c3.45.11 6.91.11 10.36.01-3.36 1.08-7 1.1-10.36-.01z"/>
    <path fill="#0a0203" opacity=".4" d="M88.66 97.52c1.35-.85 3.74 1.04 3.17 2.54-1.61.14-2.49-1.34-3.17-2.54z"/>
</svg>
