<svg width="128pt" height="128pt" viewBox="0 0 128 128" xmlns="http://www.w3.org/2000/svg">
    <g fill="#fff">
        <path d="M30.11 30.18c8.49-8.87 20.67-13.82 32.87-14.2 11.95-.18 24.09 4.03 32.92 12.18 10.2 8.86 16.35 22.26 16.14 35.8-8.77.39-17.52 1.12-26.27 1.9.17-6.05-1.76-12.13-5.86-16.64 5.31-4.13 10.63-8.24 15.92-12.38-3.05-2.93-6.27-5.73-10-7.75-3.1 5.79-5.91 11.74-8.94 17.57-3.04-3.16-8.53-2.32-10.74-6.2 3.54.35 6.9 1.56 10.06 3.15 2.35-5.32 4.82-10.58 7.11-15.92-11.98-5.74-26.6-5.93-38.51.07 2.33 5.33 4.81 10.6 7.15 15.92 3.09-1.68 6.44-2.86 9.97-3.16-.36.52-1.08 1.55-1.44 2.07-3.28.9-6.56 1.98-9.27 4.13-2.93-5.94-5.99-11.82-8.93-17.75-3.67 2.18-6.95 4.91-9.97 7.9 5.23 4.13 10.62 8.07 15.73 12.34-3.82 4.7-5.96 10.59-5.66 16.68-8.81-.81-17.63-1.58-26.47-1.94.23-12.49 5.09-25.07 14.19-33.77m.16 8.89c-5.46 6.48-8.78 14.53-10.1 22.86 6.69 1.25 13.47 1.86 20.14 3.18-.05-5.6 1.75-11.04 4.92-15.63-5.04-3.39-9.94-6.98-14.96-10.41m67.56-.08c-4.97 3.54-9.93 7.1-15.01 10.47 3.21 4.58 5.06 10 5.01 15.62 6.71-1.2 13.48-2 20.2-3.15-1.48-8.34-4.66-16.44-10.2-22.94zM16.72 72.54c8.65-1.6 17.41-2.71 26-4.61 1.03 6.19 5.18 11.01 9.77 14.97-.59.11-1.76.32-2.35.43-4.54-3.25-7.48-8.24-9.16-13.49-6.8 1.64-13.59 3.32-20.41 4.86 1.02 6.04 3.39 11.79 6.64 16.97 1.92 2.81 4.15 5.38 6.57 7.78 6.34-5.44 12.81-10.72 19.33-15.93-3.8 7.31-6.97 14.93-10.48 22.38 8.6 5.12 18.87 6.01 28.64 5.04 4.85-1.25 9.89-2.29 14.17-5.07-3.04-7.04-6.51-13.9-9.52-20.95-6.85 3.15-14.87 3.89-21.85.69-.03-.59-.07-1.77-.1-2.35 6 3.01 13.21 3.18 19.32.39 1.12.41 2.24.79 3.38 1.11 5.92 4.87 11.84 9.73 17.7 14.67 6.91-6.57 11.57-15.34 13.22-24.72-6.83-1.53-13.63-3.19-20.43-4.85-1.66 5.29-4.71 10.23-9.31 13.45-.56-.08-1.68-.23-2.25-.31 4.39-4.15 8.82-8.75 9.74-15.01 8.63 1.63 17.28 3.18 25.98 4.42-2.98 19.08-18.95 35.43-37.99 38.72-.19.14-.58.41-.77.55-8.83.59-17.89.58-26.2-2.87-15.17-6.08-26.85-20.11-29.64-36.27m18.11 27.97c1.96 1.53 3.95 2.99 5.91 4.51 2.67-5.44 5.37-10.87 8.19-16.23-4.77 3.83-9.19 8.07-14.1 11.72m44.4-11.59c2.79 5.28 5.45 10.64 8.08 16 1.99-1.4 4.03-2.75 5.84-4.37-4.66-3.85-9.14-7.91-13.92-11.63z"/>
    </g>
</svg>
