<svg width="128pt" height="128pt" viewBox="0 0 128 128" xmlns="http://www.w3.org/2000/svg">
    <g fill="#fff">
        <path d="M69.94 27.77c2.23-3.83 7.8-2.96 10.56-.24 1.84 2.09 4.8 2.63 6.45 4.91-1.31-.19-2.62-.41-3.93-.64-1.53 2.49-4.16 3.53-6.89 4.07 1.84 5.01 2.18 10.91-.86 15.52-4.06 4.75-9.3 8.36-14.89 11.07-3.27 1.45-5.33 4.52-8 6.77-1.4-11.24 12.75-14.89 14.07-25.1.49-3.29-1.94-5.86-3.84-8.21 3.09-2.08 5.42-4.99 7.33-8.15z"/>
        <path d="M79.15 37.3c7.81-.78 15.36-4.88 19.94-11.32C98.66 37.42 88.5 45.06 79 49.49c1.28-3.95 1.55-8.22.15-12.19zM38.05 26.02c6.8 3.37 15.37 3.29 20.82 9.16 1.82 2.92 2.77 6.35 2.85 9.78.02 3.76-2.42 6.8-4.59 9.62l-.71-.63C56 46.24 50.35 39.8 43.95 36.03c-3.45-2.17-4.93-6.25-5.9-10.01z"/>
    </g>
</svg>
