<svg width="128pt" height="128pt" viewBox="0 0 128 128" xmlns="http://www.w3.org/2000/svg">
    <g fill="#fff">
        <path d="M66.63 16.2c.61 2.2 1.12 4.43 1.52 6.68 6.77 1.02 14.74 2.72 18.53 9.05l-3.74.08c-1.25-1.3-2.49-2.61-3.75-3.9-1.17.37-2.35.71-3.53 1.01-2.85-2.18-6.51-1.04-9.75-.87-4.73.92-9.76-1.82-14.25.54-1.33.69-2.69-.36-3.94-.74-1.32 1.32-2.64 2.63-3.95 3.96-.91-.03-2.73-.07-3.64-.1.92-1.18 1.88-2.33 2.89-3.44-.49-2.37-.96-4.74-1.23-7.15 1.41 1.67 2.48 3.68 4.19 5.09 6.01-2.82 12.68-3.7 19.26-3.56l-1.32 2.91c1.1.5 2.21.97 3.33 1.43-.52-.48-1.57-1.44-2.09-1.92.6-3.01.95-6.05 1.47-9.07z"/>
        <path d="M52.38 28.77c.72.25 2.15.74 2.86.99 4.52-.98 9.12-.31 13.7-.66l-.27 1.22c-.65-.08-1.96-.25-2.61-.33-1.2 8.29-.89 16.67-1.64 25-.94 10.89.03 21.85-.66 32.76L65 89.03c.18-9.52-.09-19.04.07-28.56 1.32 2.96 2.71 6.01 3.13 9.24-.2 2.92-.56 6.16 1.07 8.77 2.51 3.13 2.21 7.41 2.93 11.18-.23.13-.68.39-.91.52-.94-1.12-1.89-2.24-3.11-3.05-1.35.98-2.72 1.92-4.15 2.76.72.25 2.16.75 2.88 1.01-.37-2.52 2.02-2.99 3.3-1-.83 1.18-1.64 2.36-2.47 3.54-.64-.66-1.91-1.97-2.55-2.62-.4.85-1.22 2.56-1.63 3.41-.66-1.12-1.32-2.25-1.98-3.37-.78.92-1.67 1.7-2.67 2.34-.8-1.08-1.56-2.19-2.27-3.32l1.92-1.36 1.26.65.42 1.99c.36-.34 1.07-1.03 1.43-1.38l2.46 2.06c-1.57-3.42-1.08-7.19-1.13-10.82.26-17.01-.92-34-2.05-50.96-.42-.03-1.24-.1-1.66-.13 1.7 3.56 1.09 7.62 1.59 11.43.1 5.67.26 11.33.83 16.97-2.09 2.53-1.76 6.39-3.87 8.69-.36-.72-1.08-2.14-1.44-2.85-.95-1.1-1.55-2.42-2.07-3.77-1.12 2.4-3.24 4.7-3.19 7.45 2-.18 1.61-3.63 2.81-4.9 1.04 1.47 2.16 2.88 3.28 4.3.4 3.75 1.56 7.79-.65 11.31-2.99 3.77-6.37 7.88-6.66 12.9 2.05 1.52 2.5 4.04 2.99 6.39-1.03.93-2.07 1.87-3.1 2.81 1.1.4 2.2.81 3.29 1.24-1.48 3.23-1.13 6.78-.56 10.17-2.02-2.59-3.06-5.74-3.28-9 0-2.6-1.66-4.84-1.5-7.45-.5-1.59-1.92-3.15-1.06-4.86 1.33-2.54-.57-4.84-1.82-6.96-2.33 1.84-4.87 3.59-7.99 3.5.73.26 2.21.78 2.94 1.04-1.53 1.99-2.98 4.02-4.53 5.99-.56.49-1.12.98-1.69 1.47 1.07-3.15 1.6-6.46 2.84-9.56l-2.61 2.31c.24-.77.71-2.31.95-3.09-8.03-6.2-13.93-17.86-9.08-27.68-.88.85-1.75 1.71-2.61 2.59-2.45-1.17-4.91-2.31-7.34-3.52 4.06-.29 8.15-.19 12.19-.8-3.03 7.23-3.26 16.61 2.28 22.71 3.64 3.61 9.73 6.09 14.45 3.05 3.6-2.97 4.41-7.92 6.31-11.97-1.61-3.07.05-6.55-.66-9.82-.61-6.09-5.69-10.39-10.78-13.06-3.01.89-6.04 1.76-9.04 2.7 2.77-2.43 6.08-4.12 9.24-5.98.93-2.81 2.99-4.95 4.61-7.36 2.15-.84 3.98-2.25 5.06-4.32.82-.21 2.48-.64 3.31-.85-4.15-2.2-5.07 3.7-8.57 4.1-2.07 2.59-3.88 5.65-7.26 6.65-.39-3.18 2.14-5.87 2.99-8.85 3.41.74 6.01-1.25 8.37-3.36 2.24.05 4.32 1.71 6.56.84l-2.43-.77-.01-.99z"/>
        <path d="M69.11 29.04c2.85.96 5.6 2.24 8.41 3.26 1.17 1.92 2.94 3.23 5 4.08 1.74 2.36 3.58 4.67 4.7 7.41 1.9 1.02 3.76 2.11 5.64 3.17-.06-.42-.16-1.26-.22-1.68 1.13-.49 2.25-.99 3.38-1.48-.11 1.9-.18 3.8-.24 5.71-2.77-.9-5.59-1.64-8.36-2.56-4.51 2.46-9.06 5.88-10.48 11.08-1.05 3.73-.62 7.63.26 11.35-.63-2.24-1.38-2.76-2.24-1.55 2.76 5.15 3.33 12.62 9.42 15.08 4.82 1.14 9.68-1.39 12.89-4.86 5.3-6.47 4.38-15.77 1.42-23.06l2.87 4.47c-.17-.9-.52-2.69-.69-3.59 3.69-2.02 7.73-3.34 11.56-5.09-3.23 3.59-6.65 7.02-9.58 10.87 1.28 9.81-4.26 19.16-11.98 24.82.84 2.57 1.74 5.12 2.6 7.69-2-1.86-4.58-3.28-5.77-5.84-2.26-1.1-4.07-2.85-5.93-4.49-.77 1.61-1.56 3.21-2.38 4.79.29.9.88 2.69 1.18 3.58-3.41 6.24-1.75 14.21-6.32 19.89.7-3.38.85-6.88-.35-10.17 1.06-.47 2.12-.92 3.19-1.35-1.07-.87-2.14-1.75-3.19-2.64.4-1.58.85-3.14 1.26-4.72.51-.4 1.51-1.22 2.01-1.62-.64-4.47-3.1-8.43-5.92-11.85-3.57-3.59-2.21-9.18-.99-13.5.44-.45 1.32-1.36 1.75-1.81-.13-.43-.41-1.3-.55-1.73l1.29-.3c.36 1.1 1.09 3.31 1.45 4.42.35-.66.68-1.32 1.01-1.98-.95-1.41-1.81-2.87-2.71-4.3-1.4 1.71-1.73 4.96-4.29 5.33-.99-2.52-1.45-5.26-3.07-7.5 1.21-9.2.22-18.6 1.95-27.7.6-.03 1.81-.08 2.41-.11-.1-.38-.29-1.14-.39-1.52z"/>
        <path d="M81.25 34.76c-1.97-1.27-3.53-3.11-4-5.45 3.33 1.3 5.66 4.8 9.67 3.74 1.25 2.84 2.72 5.6 3.46 8.63-4.59-.08-5.43-5.5-9.13-6.92zM58.79 67.49c1.26-2.25 1.78-4.84 3.1-7.05-.18 9.6-.12 19.22-.04 28.84-1.02-.69-2.02-1.39-3.02-2.09-1.67.83-3.02 2.17-2.9 4.2-.36.5-.72 1.01-1.08 1.52 1.79 3.05 2.51 6.59 3.47 9.96 1.27-.77 2.56-1.54 3.84-2.3-.03-2.69-1.46-5.01-2.33-7.48 1.86 1.28 2.68 3.4 3.76 5.28.92-1.74 1.03-4.59 3.46-4.84-1.13 2.22-2.35 4.5-2.23 7.07 1.18.77 2.36 1.55 3.53 2.34 1-3.64 2.54-7.1 3.35-10.79l.37-.29c1.16-3.04.11-6.25.08-9.37 1.48 2.39 3.08 4.8 3.86 7.53.21 1.42-1.22 2.27-1.85 3.36-.47 2.33-2.54 5.48.7 6.8-2.07-.69-3.7 1.2-3.72 3.07.18 2.01-.92 3.79-1.45 5.65-.33-.59-.98-1.78-1.3-2.38l-.68 1.48-.63.01-.22-2.01c-.31.52-.94 1.55-1.25 2.07-.4-.33-1.2-.99-1.59-1.32.03-2.39-.01-4.78-.41-7.14-.92 2.96.37 6.7-2.41 8.83.53-4.88-1.97 1.85-3.16-1.82l-.21 2.5c-.85-1.47-1.65-2.97-2.42-4.48.26-.72.52-1.43.77-2.15-1.17-1.2-2.25-2.73-4.21-2.4 3.43-1.37 1.17-5.63-.19-7.87-1.92-2.17.26-4.89 1.16-7 .24-.02.71-.05.95-.06.84 1.79.01 3.79.04 5.67.21.03.63.08.84.11.09-2.09.2-4.18.62-6.23-.48-.39-1.43-1.17-1.91-1.56l2.14.51c.07-1.94.91-3.64 1.98-5.22 1.94-3.36.92-7.3 1.19-10.95z"/>
    </g>
</svg>
