<svg width="128pt" height="128pt" viewBox="0 0 128 128" xmlns="http://www.w3.org/2000/svg">
    <g fill="#fff">
        <path d="M32.7 51.93c2.16-1.67 4.77-2.55 7.22-3.68 4.52 2.76 8.17 7.05 9.38 12.29-2.11-.19-4.22-.39-6.33-.58-.16 1.41-.33 2.82-.51 4.23-2.23-.06-4.11-2.74-6.06-.43l-2.44.92c-1.33-.5-2.65-1.01-3.97-1.55-.03 4.85-.65 10.93 3.75 14.21 3.75 2.76 8.32.06 12.47 1.05-1.71 1.66-3.49 3.98-6.17 3.65-6.09.47-10.22-5.76-11.07-11.15-1.15-4.76-.04-9.73 2.2-14 2.28.97 4.62 1.81 6.93 2.73.16-2.77.01-5.55-.18-8.32-1.74.21-3.48.44-5.22.63zM77.84 60.45c1.38-5.19 4.8-9.63 9.43-12.33 2.4 1.02 4.8 2.04 7.05 3.35-1.64-.16-3.28-.33-4.92-.49-.49 2.83-.43 5.71-.41 8.58 2.24-.93 4.47-1.88 6.75-2.73 4.01 6.91 3.85 16.24-1.5 22.41-3.42 3.87-10.48 4.22-13.05-.79 4.1-.78 8.66 1.83 12.29-1.09 4.51-3.25 3.53-9.51 3.52-14.35-1.28.61-2.59 1.16-3.9 1.69-1.5-.65-2.97-1.36-4.48-1.96-1.27.58-2.52 1.19-3.86 1.59-.37-1.45-.7-2.91-.98-4.38-1.98.16-3.96.33-5.94.5z"/>
    </g>
</svg>
