<svg width="128pt" height="128pt" viewBox="0 0 128 128" xmlns="http://www.w3.org/2000/svg">
    <g fill="#fff">
        <path d="M29.37 40.07c11.01-9.12 25.9-10.38 39.61-10.97 5.59-.3 11.02 1.22 16.53 1.69 2.59 1.75 5.82 2.17 8.49 3.8-.33-.83-.66-1.65-.99-2.47 1.95-1.44 4.09-2.6 6.06-4.01-1.15 2.42-2.34 4.83-3.29 7.35 2.09 2.17 4.07 4.53 6.73 6.04 3.27 1.95 5.87 4.8 9.03 6.9-.06.17-.18.53-.24.7-1.47-.72-2.94-1.47-4.43-2.16.07.9.22 2.7.29 3.6-.3-.09-.89-.26-1.19-.35.7-2.57-1.35-3.91-3.05-5.26.65 2.8 1.87 5.43 3.71 7.65l.96-2.2c.44 4.3 5.7 6.64 4.46 11.47-1.42-1.27-2.36-2.85-2.59-4.75l-.45-.03c.16 2.95 1.08 5.8 1.31 8.74-.61 3.24-1.88 6.3-3.01 9.38-.48-4.22-.03-8.6-1.97-12.53-1.21-1.79 1.58-2.45 2.43-3.63-2.94.58-6.34.65-8.49 3.05.31 2.8-1.54 5.03-2.97 7.23-.62-2.03-1.41-4.12.8-5.47-1.81.78-3.56 1.9-5.56 2.07.07.93.14 1.85.22 2.78-.24.55-.73 1.65-.97 2.19-.45.31-1.36.92-1.81 1.22.04-.66.11-1.98.14-2.64.63-.61 2.81-2.25.86-2.63-1.55.62-3.05 1.41-4.68 1.82-1.18-.91-2.27-1.92-3.39-2.91-.35-1.29-.31-2.55.12-3.75 1.74-.01 2.09 1.74 2.52 3.05 1.83-.04 3.65-.11 5.46-.41-.13-1.52-1.09-2.79-1.63-4.18-1.02-3.22-4.67-2.83-7.37-3.04-11.01.07-20.98 5.59-29.72 11.8-1.29.93-1.99 2.37-2.59 3.79-2.39-1.43-5.23-.91-7.88-1.18-.07-3.28 2.86-4.96 5.83-5 1.84-2.56 4.87-3.52 7.91-2.89 9.87-6.89 22.74-11.14 34.66-7.74.8 1.9 1.48 3.85 2.24 5.77-.33-1.9-.63-3.81-.89-5.72-4.87-3.08-10.85-2.7-16.29-1.84.24-3.35-3.53-5.85-2.32-9.03 7.32 5.23 16.71 10.62 25.92 7.57-2.98-5.74-6.2-11.47-10.64-16.21-3.4-3.47-9.08-5.77-13.54-2.91-2.69 2.33-4.31 5.62-6.57 8.33-.19-2.49-.23-5-.8-7.44-1.2-1.01-2.61-1.69-4-2.39-2.95.86-6.01.94-9.03 1.35-4.21 1.38-10.01 1.17-11.88 6.08 2.67 3.4 6.13 5.94 9.78 8.19 1.69.79 1.48 3.81-.44 4.18-2.61 1.05-5.23 2.61-8.17 2.24-3-.89-5.2-3.49-8.31-4.08-3.24-.67-6.26-2.3-9.66-2.06.65-2.59 2.14-4.8 3.45-7.08-.12-2.66-1.45-5.08-2.16-7.59 1.47 1.32 2.95 2.65 4.46 3.94-.25.65-.76 1.93-1.01 2.58z"/>
        <path d="M55.05 34.01c3.76-.34 7.96-1.83 10.98 1.36-1.01 2.1-2.35 4.13-2.62 6.5-.89 6.09-2.3 12.13-4.53 17.88-1.6.95-3.15 1.99-4.72 3-2.95-1.01-6.36.02-7.77 2.91-1.75.49-3.48 1.02-5.2 1.62-1.6 2-1.07 4.6-1.22 6.96-1.25-.94-1.99-2.26-2.68-3.62-6.51-4.25-13.31-8.08-19.8-12.38-1.83-.8-1.51-3.81.35-4.37 2.83-1.27 5.24-3.18 7.21-5.57 1.97.52 3.9 1.23 5.92 1.55 3.73.65 6.81 3.03 10.06 4.78 2.87.97 5.61-.62 8.35-1.23 1.93-.6 4.33-2.63 3.04-4.81-1.88-1.77-3.69-3.81-6.14-4.78-1.57-1.34-3.07-2.78-4.12-4.58 3.36-3.68 8.31-4.18 12.89-5.22zM73.59 35.7c1.82-2.86 5.45-1.85 8.22-1.44 7.17 3.36 10.37 11.16 14.2 17.58-1.46.53-2.93 1.01-4.42 1.44 1.76-4.78-1.02-10.37-5.8-11.99-2.38-.64-1.85-3.93-3.79-5.16-2.28-2.2-5.77-.78-8.41-.43zM51.66 71.13c9.08-8.92 22.09-13.88 34.84-12.05.9 1.59 1.71 3.22 2.6 4.83-.82.02-2.47.07-3.29.09-.87-4.15-5.6-3.52-8.74-2.73-7.6 2.07-14.79 5.44-21.78 9.01-1.14.55-2.35.83-3.63.85z"/>
        <path d="M18.8 60.99c5.84 3.2 11.5 6.76 17.21 10.18 1.24 1.55 1.71 3.7 3.56 4.81.63-1.03 1.24-2.08 1.83-3.13 2.18.32 4.31.88 6.43 1.45-1.77 2.38-4.47 3.78-6.76 5.59-2.63-1.35-5.09-3.1-7.84-4.18-1.34.59-2.61 1.28-3.88 1.99-2.79-1.11-3.75-4.02-3.45-6.82-2.22-1.07-3.43-2.95-3.16-5.45-1.45-1.35-2.75-2.86-3.94-4.44z"/>
    </g>
</svg>
