<svg width="128pt" height="128pt" viewBox="0 0 128 128" xmlns="http://www.w3.org/2000/svg">
    <g fill="#a72126">
        <path d="M29.78 39.8c9.97-8.48 23.62-9.9 36.16-10.68 6.24-.03 12.73-.13 18.68 1.97.62.21 1.86.62 2.48.82 2.48.36 4.74 1.49 7 2.52-.35-.57-1.05-1.7-1.39-2.27 2.11-1.34 4.21-2.7 6.3-4.06-.99 2.45-2.07 4.86-3.13 7.28 2.19 2.83 5.1 4.89 7.86 7.08.84 1.08 1.85 2.02 3.13 2.56 1.11.63 2.17 1.33 3.18 2.11-.69.07-2.06.19-2.74.26-.2.94-.61 2.82-.81 3.76-.21-1.33-.43-2.66-.64-3.99-1.07-.83-2.13-1.66-3.21-2.47.76 3.89 2.95 7.19 6.32 9.29 2.68 1.67 3.16 4.96 3.18 7.86-1.78-1.21-2.46-3.21-2.99-5.18.15 3.11.95 6.15 1.25 9.24-.59 3.28-1.77 6.45-3.43 9.34-.08-4.68.17-9.57-2.22-13.79.89-.81 1.77-1.62 2.65-2.44-2.76.72-5.81 1.01-8 3.03.28 2.87-1.59 5.15-3.02 7.43-.37-1.51-.73-3.03-1.07-4.55l-3.12.84c-.33 2.54-.75 5.36-3.27 6.68l-.02-1.56c.78-1.58 1.77-3.05 2.69-4.55-2.15.79-4.29 1.63-6.42 2.49-1.91-1.58-4.28-3.4-3.67-6.26l1.27-.44 1.17.71c.19.53.58 1.57.78 2.1 1.82-.2 3.65-.42 5.47-.65-1.74-.43-1.64-3.96.48-3 1.33.67 1.37-.46.68-1.31l-.25-.81c-.18-.75-.54-2.25-.72-3.01-3.79-1.72-8.06-3.09-12.23-1.93l-.08-1.63-.76 2.24c-.23-2.21-2.17-2.54-3.8-2.93-.4-1.66-1.12-3.2-2.23-4.51.16-.5.5-1.52.66-2.02 4.88 3.3 10 6.43 15.78 7.86 3.38 1.1 6.97.9 10.34-.12-.71-1.39-1.43-2.78-2.17-4.16l3.93-1.32c-3.98-4.93-7.75-10.69-14.05-12.8-2.88-1.37-6.01-3.02-9.3-2.2-2.79.47-4.52 2.91-6.3 4.86-.34-.33-1.03-.98-1.37-1.31.46.47 1.4 1.41 1.86 1.88-.48.47-1.44 1.42-1.92 1.9-.39.34-1.17 1.02-1.57 1.36-.32-2.98.64-7.34-3.19-8.36-4.23-1.3-8.73.48-12.97 1.11-3.89.77-7.87 2.11-10.3 5.45 2.96 3.45 6.86 5.8 10.36 8.6 1.52.83.65 2.48.46 3.78-.38.27-1.14.81-1.51 1.08-2.58.7-5.3 1.4-7.98.91-3.1-1.18-5.96-2.89-8.94-4.31-.16-.17-.46-.52-.61-.69-.15.05-.46.16-.61.21l-1.86-.04c-1.88-.45-3.71-1.12-5.65-1.27 1.13-2.3 2.31-4.58 3.76-6.7-.66-2.55-1.41-5.08-2.16-7.61 1.55 1.91 5.74 3.18 3.8 6.32zM87.84 81.82c-.51 2.2-1.06 7.54-4.39 5.22 1.51-1.71 2.98-3.44 4.39-5.22z"/>
    </g>
    <path fill="#3e0e0f" opacity=".69" d="M84.62 31.09c-.17-2.34 3.86-.96 2.48.82-.62-.2-1.86-.61-2.48-.82z"/>
    <g fill="#420f0d">
        <path d="M51.02 34.07c4.24-.63 8.74-2.41 12.97-1.11 3.83 1.02 2.87 5.38 3.19 8.36.4-.34 1.18-1.02 1.57-1.36-.58.71-1.13 1.44-1.67 2.17-.42-2.02-.07-4.42-1.53-6.08.12-.28.35-.84.47-1.12-1.76-.73-3.52-1.87-5.51-1.6-4.78.45-9.56 1.34-14.08 2.97-1.55.7-3.85 1.49-3.54 3.61 2.92 4.55 10.43 5.81 10.18 12.21-.38-.05-1.15-.17-1.53-.22.19-1.3 1.06-2.95-.46-3.78-3.5-2.8-7.4-5.15-10.36-8.6 2.43-3.34 6.41-4.68 10.3-5.45zM18.73 60.97c6.38 3.06 12.35 6.95 18.3 10.77.17 1.71 1.31 2.9 2.54 3.96.75-1.12 1.49-2.25 2.24-3.36 2.19.69 4.34 1.47 6.44 2.4-2.33 1.85-4.75 3.6-7.21 5.29-2.62-1.49-5.27-2.92-7.95-4.3-1.22.74-2.45 1.49-3.67 2.25-2.85-1.2-3.84-4.01-3.74-6.94-2.09-1.19-3.27-3.08-3.26-5.51-1.3-1.46-2.57-2.96-3.69-4.56z"/>
    </g>
    <path fill="#1a0607" opacity=".51" d="M76.48 32.63c3.29-.82 6.42.83 9.3 2.2 3.93 4.27 7.34 9.02 10.12 14.12.74 1.38 1.46 2.77 2.17 4.16-3.37 1.02-6.96 1.22-10.34.12.75-.07 2.25-.21 3-.27.29-.52.89-1.54 1.19-2.05.01.55.02 1.66.03 2.21 1.27-.41 2.55-.83 3.82-1.24-3.15-6.06-6.39-12.54-12.15-16.55-2.7-1.94-6.18-1.25-9.25-.98 2.25.43 4.53.71 6.78 1.11-3.75-.73-7.21 1.01-10.48 2.6-.46-.47-1.4-1.41-1.86-1.88.34.33 1.03.98 1.37 1.31 1.78-1.95 3.51-4.39 6.3-4.86z"/>
    <path fill="#861c1e" d="M60.51 33.33c1.99-.27 3.75.87 5.51 1.6-.12.28-.35.84-.47 1.12-3.59 7.77-2.76 16.98-7.25 24.44-.43-2.11-1.89-4.5-.28-6.46 1.81-2.44 2.11-5.41 1.77-8.35-1.35-.4-2.71-.81-4.06-1.22-.06 2.69-.09 5.38-.12 8.07-.85-.14-1.7-.27-2.54-.41.25-6.4-7.26-7.66-10.18-12.21-.31-2.12 1.99-2.91 3.54-3.61 4.52-1.63 9.3-2.52 14.08-2.97z"/>
    <g fill="#421010">
        <path d="M74.37 34.35c3.07-.27 6.55-.96 9.25.98 5.76 4.01 9 10.49 12.15 16.55-1.27.41-2.55.83-3.82 1.24-.01-.55-.02-1.66-.03-2.21.36-4.4-2.81-8.95-7.24-9.68-.93-2.05-1.67-4.34-3.53-5.77-2.25-.4-4.53-.68-6.78-1.11zM33.11 49.58c2.98 1.42 5.84 3.13 8.94 4.31 2.68.49 5.4-.21 7.98-.91-4.78 4.01-10.94 1.23-15.48-1.64-.49-.58-.97-1.17-1.44-1.76z"/>
    </g>
    <path fill="#841c18" d="M85.78 34.83c6.3 2.11 10.07 7.87 14.05 12.8l-3.93 1.32c-2.78-5.1-6.19-9.85-10.12-14.12z"/>
    <path fill="#3a0c10" opacity=".56" d="M103.74 42.46c1.4-1.26 4.2.97 3.13 2.56-1.28-.54-2.29-1.48-3.13-2.56z"/>
    <g fill="#9a1d23">
        <path d="M55.73 44.46c1.35.41 2.71.82 4.06 1.22.34 2.94.04 5.91-1.77 8.35-1.61 1.96-.15 4.35.28 6.46-2.17 1.42-4.54 2.42-7.2 2.19-2.28-.18-3.69 1.86-5.11 3.3-1.54.45-3.19.68-4.58 1.52-2.2 1.67-.36 5.02-2.33 6.89-1.15-1.4-.64-3.13-.64-4.73l-.91 1.3c-5.92-3.94-12.06-7.55-18.11-11.26l.06-.15c.67-1.78 1.67-3.41 2.98-4.78.81 1.11 1.6 2.23 2.41 3.35 1.75-.09 3.51-.04 5.26.09.31-.87.62-1.73.93-2.6 1.43.12 2.87.24 4.3.35-.28-1.54-.56-3.08-.81-4.62 4.54 2.87 10.7 5.65 15.48 1.64.37-.27 1.13-.81 1.51-1.08.38.05 1.15.17 1.53.22.84.14 1.69.27 2.54.41.03-2.69.06-5.38.12-8.07zM86.66 88.45c1.96-1.31 3.88-2.66 5.76-4.08-.29 1.76-.62 3.51-1.05 5.24-1.57-.39-3.14-.77-4.71-1.16z"/>
    </g>
    <path fill="#310b0b" opacity=".57" d="M102.65 44.69c1.08.81 2.14 1.64 3.21 2.47.21 1.33.43 2.66.64 3.99.2-.94.61-2.82.81-3.76.68-.07 2.05-.19 2.74-.26.74.56 1.39 1.21 2.09 1.81-1.39-.4-2.75-.35-4.06.14-.74 1.69.48 3.3.89 4.9-3.37-2.1-5.56-5.4-6.32-9.29z"/>
    <path fill="#861c1b" d="M31.89 49.1c.15-.05.46-.16.61-.21.15.17.45.52.61.69.47.59.95 1.18 1.44 1.76.25 1.54.53 3.08.81 4.62-1.43-.11-2.87-.23-4.3-.35-.31.87-.62 1.73-.93 2.6-1.75-.13-3.51-.18-5.26-.09-.81-1.12-1.6-2.24-2.41-3.35-1.31 1.37-2.31 3-2.98 4.78-1.04-.62-2.08-1.25-3.12-1.88 0-1.07 0-2.14.01-3.2 3.29-1.53 6.57-3.36 8.55-6.53 2.39.1 4.6 2.68 6.97 1.16z"/>
    <g fill="#79181b">
        <path d="M62.85 55.05c2.13-2.07 5.4-2.29 7.94-.78l-.52.19c-2.5.88-4.98 1.81-7.47 2.71.01-.53.03-1.59.05-2.12zM61.62 78.69c2.87-2.04 5.18-4.75 6.57-8.01-.07 4.3.54 8.79 2.91 12.49.96 1.4 1.4 3.03 1.6 4.71-4.43-1.94-7.87-5.65-11.08-9.19z"/>
    </g>
    <path fill="#050101" opacity=".25" d="M70.27 54.46c1.23-.14 3.07 1.32 3.38-.91l1.94 1.66c-4.6.95-9.1 2.32-13.42 4.16.07-1.46.22-2.92.68-4.32-.02.53-.04 1.59-.05 2.12 2.49-.9 4.97-1.83 7.47-2.71z"/>
    <path fill="#b52431" d="M73.65 53.55c1.17.36 2.32.79 3.39 1.4 4.24-.16 8.69-.3 12.63 1.57.77 1.23 1.4 3.26-.65 3.43-.98-.35-1.83-.94-2.53-1.79-12.63-2.73-24.56 3.98-34.78 10.58-3.96-.63-7.51 1.69-11.16 2.78.42-3.25 3.1-4.52 6.05-4.92 1.53-1.34 3.11-3.04 5.36-2.8 4 .33 6.65-3.25 10.21-4.43 4.32-1.84 8.82-3.21 13.42-4.16l-1.94-1.66z"/>
    <path fill="#9b2024" opacity=".98" d="M51.59 71.14c8.87-8.83 21.75-14.09 34.32-12.18 2 .77 2.22 3.33 3.26 4.93-1.18.01-2.37.03-3.55.04-.56-2.07-2.4-3.51-4.58-3.15-6.95.68-13.34 3.82-19.65 6.6-3.24 1.31-6.14 3.84-9.8 3.76z"/>
    <path fill="#ad2426" d="M69.09 65.03c1.2-.45 2.39-.9 3.59-1.36-1.24 5.95-1.63 13.37 3.06 17.96 3.62 3.8 7.93 7.5 13.3 8.33 2.59.71 5.84.26 7.53 2.76-.09-.8-.18-1.61-.26-2.41 3.04-.66 5.35-2.78 7.64-4.73-.7 3.85-2.81 7.26-6.22 9.21-4.97 4.84-12.5 2.62-18.29.72-5.51-1.3-9.96-4.86-14.71-7.71.96-.94 1.85-1.97 2.81-2.92 1.48 1.69 3.29 3.08 5.62 3.23-.23-3.35-2.53-5.98-3.2-9.18-1.11-4.55-.67-9.26-.87-13.9z"/>
    <path fill="#470f0d" d="M59.4 69.17c2.71-1.16 5.36-2.46 8.01-3.77.25 1.76.5 3.52.78 5.28-1.39 3.26-3.7 5.97-6.57 8.01-1.76-2.84-2.56-6.19-2.22-9.52z"/>
    <path fill="#150505" opacity=".35" d="M85.18 68.82c2.13-.86 4.27-1.7 6.42-2.49-.92 1.5-1.91 2.97-2.69 4.55l-.88-2.25c-.8.08-2.4.24-3.19.33l.34-.14z"/>
    <path fill="#851c1c" d="M40.55 71.52c3.65-1.09 7.2-3.41 11.16-2.78-1.18 1.27-2.17 2.7-2.99 4.23-2.67-.77-5.44-1.02-8.17-1.45z"/>
    <path fill="#3e0f0f" d="M55.66 72.36c-1.02-2.39 4.55-2.11 1.93 0l-1.11.23-.82-.23z"/>
    <path fill="#491011" opacity=".91" d="M50.12 71.57c2.13-.13 2.71 1.91 2.26 3.68l-.38.62c-.42.19-1.24.56-1.65.75l-.31.13c.03-1.73.05-3.45.08-5.18z"/>
    <path fill="#49100f" opacity=".97" d="M52.91 73.24c2.55-1.58 4.65 1.41 3.72 3.84-.4.63-1.18 1.89-1.58 2.51l-.55-.86c-.64-1.76-1.92-3.54-1.59-5.49z"/>
    <path fill="#ad2429" d="M56.48 72.59l1.11-.23.91-.03c.67 4.52 2.97 8.6 6.78 11.2l-.16.06c-1.48.52-2.94 1.11-4.4 1.69-1.27-.9-2.56-1.78-3.87-2.62-1.08-.78-2.38-1.09-3.61-1.53-1.08-1.43-1.97-2.99-2.89-4.51.41-.19 1.23-.56 1.65-.75l.65.17c.47.67 1.39 2.01 1.85 2.69l.55.86c.4-.62 1.18-1.88 1.58-2.51l.49-.77c-.28 1.26-.58 2.51-.9 3.76.44-.06 1.3-.18 1.73-.24-.32-2.44-.9-4.84-1.47-7.24z"/>
    <path fill="#921c1e" opacity=".97" d="M75.44 79.71c1.91-.15 3.79-.46 5.64-.95.03.63.1 1.91.14 2.55l.04.63c.65-.02 1.95-.05 2.61-.07-.66 1.28-1.47 2.48-2.27 3.67-2.38-1.56-4.45-3.55-6.16-5.83z"/>
    <path fill="#050101" opacity=".26" d="M53.24 81.13c1.23.44 2.53.75 3.61 1.53-1.03 1.6-4.67.46-3.61-1.53z"/>
    <path opacity=".33" d="M81.22 81.31c1.27-1.01 2.15-.82 2.65.56-.66.02-1.96.05-2.61.07l-.04-.63z"/>
    <path fill="#7a1b1e" d="M81.6 85.54c2-1.38 4-2.76 6.24-3.72-1.41 1.78-2.88 3.51-4.39 5.22l-.07.08c-.44-.4-1.33-1.18-1.78-1.58z"/>
    <path fill="#7a1919" opacity=".94" d="M60.72 85.28c1.46-.58 2.92-1.17 4.4-1.69.61.32 1.81.97 2.42 1.29-.96.95-1.85 1.98-2.81 2.92-1.35-.82-2.69-1.65-4.01-2.52z"/>
</svg>
