<svg width="128pt" height="128pt" viewBox="0 0 128 128" xmlns="http://www.w3.org/2000/svg">
    <path fill="#79171b" d="M69.73 22.5c1.68-2.18 3.41-4.32 5.28-6.34.37 1.98-.54 4.47.85 6.16 1.51 1.19.28 3.21.37 4.75-1.59.41-4.26.38-3.56 2.8l-1.49-.14-.59.87c-1.3.35-2.6.76-3.69 1.6.7.12 2.08.36 2.77.48-.39.58-1.18 1.73-1.57 2.3.36 2.32.56 4.68.26 7.02-.77 1.26-1.95 2.2-2.98 3.25-.06 3.58-.12 7.16-.13 10.75.36 3.27-2.62 5.4-4.28 7.83-1.65-3-4.45-5.24-7.81-5.96-.67-.22-2-.65-2.67-.87 1.29-1.6 2.81-3 4.37-4.34 2.22-1.83 2.66-5.08 5.02-6.78 2.34-1.8 4.84-3.39 7.24-5.12.05-2.5-.08-5-.67-7.44-.95 1.04-1.9 2.07-2.85 3.11-.81-1.11-1.61-2.23-2.45-3.32-1.14-1.74-3.45-1.3-5.21-1.39 1.23-.47 2.47-.89 3.71-1.31.21-.47.63-1.4.84-1.87 1.84-.09 3.81.19 5.53-.66 1.75-.7 1.76-2.87 2.49-4.32.74-.21 1.48-.43 2.21-.66 1.15-.13 2.3-.3 3.44-.5-1.11.03-3.32.08-4.43.1z"/>
    <path fill="#2d0b0c" opacity=".85" d="M78.21 18.93c1.59 2.72 3.2 5.48 4.02 8.55-1.65.59-3.31-.05-4.94-.36.28-2.73.51-5.47.92-8.19z"/>
    <path fill="#1a0606" opacity=".39" d="M58.87 22.64c3.05-1.25 6.44-1.23 9.53-2.43-2.45 2.7-6.32 1.81-9.53 2.43z"/>
    <path fill="#941c21" d="M58.87 22.64c3.21-.62 7.08.27 9.53-2.43-.16.61-.49 1.83-.65 2.44-4.2 1.3-7.87 4.41-12.31 4.69l.52 1.06c-1.48 1-2.94 2.05-4.4 3.08-.45 1.7-.65 3.72-2.81 4 .44-1.56.89-3.12 1.33-4.68-2.55-.78-5.11-.21-7.42 1.02.92-2.13 3.38-2.38 5.28-3.09 1.38-.2 2.3-1.27 3.06-2.35 1.94-2.29 5.18-2.73 7.87-3.74z"/>
    <path fill="#8c1c21" d="M52.4 31.29c5.09-3.1 10.07-6.79 16.11-7.73-.73 1.45-.74 3.62-2.49 4.32-1.72.85-3.69.57-5.53.66-.21.47-.63 1.4-.84 1.87-1.24.42-2.48.84-3.71 1.31-1.55.73-3.09 1.51-4.61 2.31.27-.68.8-2.05 1.07-2.74z"/>
    <path fill="#0c0203" opacity=".34" d="M47.94 28.73c-1.03-1.58 1.75-3.58 3.06-2.35-.76 1.08-1.68 2.15-3.06 2.35z"/>
    <g fill="#7b1921">
        <path d="M76.23 27.07l1.06.05c1.63.31 3.29.95 4.94.36.4-.17 1.2-.52 1.6-.69-.57 3.22 1.23 6.2 2 9.23-.91-.23-2.72-.68-3.63-.9-.71-1.43-1.14-4.01-3.22-3.88-2.3.6-2.52 3.92-5.06 4.2-.07.64-.21 1.92-.29 2.56 1.69.65.76 2.02.41 3.09-.7-2.48-.83-6.23-4.18-6.37l-.71-.25c.66-1.41 1.45-2.76 2.33-4.05 1.58.16 1.74-1.26 2.12-2.35l2.63-1zM64.28 62.64c-.1-1.41.53-1.97 1.88-1.69.11 1.42-.52 1.98-1.88 1.69z"/>
    </g>
    <g fill="#420c0d">
        <path d="M83.79 27.58c2.19 1.93 4.96 3.23 6.78 5.56-.53 1.35-1.21 2.63-1.85 3.93 2.81-3.29 7.27-3.99 11.22-5.09-2.33 2.57-5.25 4.6-7.3 7.41-1.15 3.38-.86 7.01-.87 10.52-2.44-1.18-3.75-3.51-4.44-6.01-.32-3.63-6.05-2.7-5.34-6.87 1.69-.19 3.38-.35 5.07-.49-1.02-3.01-2.13-5.99-3.27-8.96zM46.82 37.13c-.5 2.69-3.61 4.44-2.58 7.44 1.37 2.98 4.94 3.3 7.81 3.3-2.65.23-5.32.15-7.97.04-.04-2.53-.16-5.05-.52-7.56 1.07-1.08 2.13-2.18 3.26-3.22zM97.33 49.01c.51 1.32.68 2.95 2.47 2.97-.46.3-.93.59-1.41.86-.59.04-1.78.13-2.38.17.46-1.33.9-2.66 1.32-4z"/>
    </g>
    <path fill="#941c1e" d="M39.4 33.17c1.29-.84 2.6-1.67 3.92-2.47-2.68 2.37-3.64 5.91-6.01 8.5-1.34 1.44-2.24 3.19-3.06 4.96 1.6 1.58 3.79 2.01 5.92 2.38 1.09-2.08 2.2-4.16 3.39-6.19.36 2.51.48 5.03.52 7.56 2.65.11 5.32.19 7.97-.04 2.53-2.86 3.17-6.68 4.19-10.21.37.6 1.11 1.8 1.48 2.41 2.6-.34 3.94-2.69 3.65-5.16-.05-.45-.16-1.35-.22-1.8.84 1.09 1.64 2.21 2.45 3.32.95-1.04 1.9-2.07 2.85-3.11-.21 2.11-.34 4.22-.45 6.33-3.01 2.05-6.04 4.09-8.86 6.4-.38 1.75-.09 4.07-1.92 5.09-2.55 1.75-5.3 3.6-5.64 6.99-1.2.01-2.39.02-3.59.02-.13-1.78.57-3.99-1.17-5.21-.68.07-2.05.22-2.73.3-4.34.53-9.54.25-12.7-3.17-.91.17-2.71.51-3.62.67 3.23-3.21 4.72-7.7 7.98-10.89 2.03-2.12 5.28-3.39 5.65-6.68z"/>
    <path fill="#270809" opacity=".57" d="M66.45 33.32c.59 2.44.72 4.94.67 7.44-2.4 1.73-4.9 3.32-7.24 5.12-2.36 1.7-2.8 4.95-5.02 6.78C53.3 54 51.78 55.4 50.49 57c.67.22 2 .65 2.67.87-3.42.55-6.74 1.59-10.19 2.01 1.08-1.36 1.81-2.93 2.41-4.54l-1.03-.5c-.77-.52-1.52-1.05-2.26-1.6.68-.08 2.05-.23 2.73-.3 1.74 1.22 1.04 3.43 1.17 5.21 1.2 0 2.39-.01 3.59-.02.34-3.39 3.09-5.24 5.64-6.99 1.83-1.02 1.54-3.34 1.92-5.09 2.82-2.31 5.85-4.35 8.86-6.4.11-2.11.24-4.22.45-6.33z"/>
    <path fill="#621415" opacity=".94" d="M56.13 37.48c1.83-.68 3.58-1.54 5.24-2.57.29 2.47-1.05 4.82-3.65 5.16-.37-.61-1.11-1.81-1.48-2.41l-.11-.18z"/>
    <path fill="#9a1f21" d="M68.9 43.97c.59-2.96-1.46-7.02.96-9.25 3.35.14 3.48 3.89 4.18 6.37-.61 2.57-.37 5.13 1.18 7.33-2.63 2.84-5.75 5.26-7.89 8.53l-.34.49c-.58-3.72-1.14-7.49-.88-11.26.88-.8 1.84-1.5 2.79-2.21z"/>
    <path fill="#8c1c1e" d="M75.22 48.42c1.2.94 2.36 1.93 3.6 2.83 3.8 2.54 8.73-.41 12.44 2.21-1.02.03-2.04.06-3.06.07-.29 2.19-.26 4.65-2.05 6.23-1.14.36-2.27.7-3.41 1.01-.26 1.33-.62 4.3-2.68 3.15-.03-.74-.08-2.23-.11-2.97-1.58.52-3.16 1.03-4.74 1.54-1.11-.9-2.21-1.8-3.36-2.64l-.82.24c-1.28.32-2.52.8-3.75 1.26.01-1.1.04-3.3.05-4.4 2.14-3.27 5.26-5.69 7.89-8.53z"/>
    <path fill="#7b181b" d="M87.35 47.15c.52.96 1.04 1.92 1.58 2.87 2.3.75 4.54 1.7 6.59 3l.07.78c-.04 1.21.64 2.28 1.53 3.04.16.16.47.49.63.65.35-1.53.6-3.08.64-4.65.48-.27.95-.56 1.41-.86 1.6-2.99 5.23-2.81 8.07-3.52-3.39 4.62-6.87 9.18-10.4 13.7-.12-.46-.35-1.38-.47-1.84-.43.16-1.3.49-1.73.65-2.99-.83-5.98-1.72-9.12-1.21 1.79-1.58 1.76-4.04 2.05-6.23 1.02-.01 2.04-.04 3.06-.07-3.71-2.62-8.64.33-12.44-2.21 3.45.91 8.16.31 8.53-4.1z"/>
    <path fill="#be2930" d="M28.08 50.77c2.6 1.66 5.35 3.27 8.56 3.24-.46.6-1.37 1.8-1.83 2.4l-1.85-1.21c-1.34 2.35-1.86 5.01-2.54 7.59-.49-2.03-.49-4.14-.67-6.21 3.37.29-.45-3.23 0 0-1.14 2.16-.67 4.67-.78 7-.31-.4-.93-1.22-1.24-1.63-.16-2.93.48-5.8 1.19-8.63-2.31 2.23-2.84 5.45-3.58 8.42-2.17-3.92.03-8.04 2.74-10.97z"/>
    <path fill="#4d1113" opacity=".73" d="M25.34 61.74c.74-2.97 1.27-6.19 3.58-8.42-.71 2.83-1.35 5.7-1.19 8.63-.9.02-1.69-.05-2.39-.21z"/>
    <path fill="#3a0d0d" opacity=".63" d="M36.64 54.01c1.02-.02 2.05-.04 3.08-.05-5.27 1.12-6.19 7.22-4.66 11.56.54-.32 1.62-.95 2.16-1.26-.3.53-.88 1.59-1.18 2.12-1.95-1.75-4.64-2.1-7.07-2.8.11-2.33-.36-4.84.78-7 .18 2.07.18 4.18.67 6.21.68-2.58 1.2-5.24 2.54-7.59l1.85 1.21c.46-.6 1.37-1.8 1.83-2.4m-3.26 3.11c.34.35.34.35 0 0m-1.08 5.84c1.37-.35.94-2.92.41-3.95-1.34.37-.92 2.91-.41 3.95z"/>
    <path fill="#511215" opacity=".98" d="M95.59 53.8c1.59-.72 2.82 2.08 1.53 3.04-.89-.76-1.57-1.83-1.53-3.04z"/>
    <path fill="#370d0b" opacity=".71" d="M29.75 56.58c3.37.29-.45-3.23 0 0z"/>
    <path fill="#b6272c" opacity=".98" d="M35.06 65.52c-1.53-4.34-.61-10.44 4.66-11.56-1.65 3.21-3.12 6.59-2.5 10.3-.54.31-1.62.94-2.16 1.26z"/>
    <path fill="#c52726" d="M39.88 54.55c1.5.04 2.99.13 4.47.29l1.03.5c-.6 1.61-1.33 3.18-2.41 4.54-.82 1.06-1.6 2.16-2.26 3.33-.61.98-1.09 2.04-1.51 3.11-2.5-3.7-.76-8.06.68-11.77z"/>
    <path fill="#de3031" d="M33.38 57.12c.34.35.34.35 0 0z"/>
    <path fill="#de2d31" d="M32.3 62.96c-.51-1.04-.93-3.58.41-3.95.53 1.03.96 3.6-.41 3.95z"/>
    <path fill="#c62831" d="M50.77 59.68c2.65-1.16 5.17.36 7.37 1.74-.71 1.51-1.49 3-2.34 4.45-1.4 2.34-2.66 4.76-3.69 7.29-.05-1.62-.16-3.23-.27-4.85-1.3.06-2.61.09-3.91.14.63-3.01 1.33-6.07 2.84-8.77z"/>
    <path fill="#b3262a" opacity=".97" d="M22.28 59.81c1.13 2.14 2.13 4.35 3.17 6.54l-.7.55c-.13 3.58-2.1 6.58-3.81 9.59.05-2.53-.53-5.22.4-7.65.66-1.4.99-2.93.77-4.47-.05-1.52.01-3.04.17-4.56z"/>
    <path fill="#170505" opacity=".45" d="M71.03 60.09l.82-.24c1.15.84 2.25 1.74 3.36 2.64 1.58-.51 3.16-1.02 4.74-1.54.03.74.08 2.23.11 2.97-.65.67-1.29 1.34-1.93 2.02-.01-.77-.02-2.32-.02-3.09-.96.33-1.91.65-2.87.97-1.28-.7-2.55-1.41-3.83-2.1-.68 1.14-1.35 2.27-2.02 3.4-.57-.72-1.69-2.15-2.25-2.87l.94-.22c.62-.08 1.88-.26 2.5-.34.12-.4.34-1.2.45-1.6z"/>
    <path fill="#831c1e" d="M95.27 60.97c.43-.16 1.3-.49 1.73-.65.12.46.35 1.38.47 1.84-.39.44-1.18 1.31-1.57 1.74-.94.37-1.62 1.01-2.05 1.91-.2.34-.59 1-.79 1.33h-3.35c1.25-1.64 2.07-3.54 2.94-5.4.66-.19 1.96-.58 2.62-.77z"/>
    <path fill="#ad2429" d="M69.03 61.77l-.95.26-.94.22c.56.72 1.68 2.15 2.25 2.87.67-1.13 1.34-2.26 2.02-3.4 1.28.69 2.55 1.4 3.83 2.1.96-.32 1.91-.64 2.87-.97 0 .77.01 2.32.02 3.09l.04 2.17c-.32.45-.97 1.35-1.29 1.8-.57.42-1.71 1.26-2.29 1.68.18-2.02.38-4.04.5-6.07-1.64 1.78-2.57 4-3.14 6.32-1.19 3.35-4.58 5.34-7.64 6.75 2.62-3.41 5.1-7.2 4.79-11.71-1.02.82-2.06 1.6-3.06 2.43-.59-1.15-1.22-2.29-1.86-3.41 1.03-1.9 2.15-4.46 4.85-4.13z"/>
    <path fill="#310c0e" opacity=".57" d="M39.2 66.32c.42-1.07.9-2.13 1.51-3.11 1.77 1.04-.18 5.55-1.51 3.11z"/>
    <path fill="#440e10" opacity=".69" d="M21.34 68.84c-1.11-1.04-1.17-4.69.77-4.47.22 1.54-.11 3.07-.77 4.47z"/>
    <path fill="#020000" opacity=".29" d="M93.85 65.81c.43-.9 1.11-1.54 2.05-1.91.42 1.76-.26 2.4-2.05 1.91z"/>
    <path fill="#9f1d20" d="M27.4 64.99c.84.49 1.68.97 2.53 1.45-1.71 4.42-1.88 9.15-2.05 13.83-.43-1.13-.89-2.24-1.37-3.34-2.83 1.37-4.85 3.91-4.87 7.17-.4-2.51-.98-5.06-.7-7.61 1.71-3.01 3.68-6.01 3.81-9.59l.7-.55c.49-.34 1.46-1.02 1.95-1.36z"/>
    <path fill="#250809" opacity=".47" d="M52.11 73.16c1.03-2.53 2.29-4.95 3.69-7.29-.14.68-.42 2.05-.56 2.74.67-.09 2.02-.28 2.69-.37-.21 1.96-.43 3.93-1.08 5.81.13-1.79.14-3.58.13-5.36-2.41 3.63-4.36 7.61-5.14 11.93 1.12-.38 2.24-.76 3.36-1.15-.17.37-.49 1.11-.66 1.49-1.04.65-2.04 1.39-3.25 1.7-1.17 3.49-1.26 7.19-1.92 10.78-1.12-6.87.65-13.77 2.74-20.28z"/>
    <path fill="#430d0e" opacity=".68" d="M71.95 71.84c.57-2.32 1.5-4.54 3.14-6.32-.12 2.03-.32 4.05-.5 6.07.58-.42 1.72-1.26 2.29-1.68-.35 2.37-3.11 2.4-4.93 1.93z"/>
    <path fill="#ad2326" d="M47.44 68.47l.49-.02c1.3-.05 2.61-.08 3.91-.14.11 1.62.22 3.23.27 4.85-2.09 6.51-3.86 13.41-2.74 20.28.66-3.59.75-7.29 1.92-10.78 1.21-.31 2.21-1.05 3.25-1.7-1.14 4.02-2.19 8.08-2.54 12.27-2.06 1.41-4.3 2.5-6.67 3.27.76.31 1.52.62 2.29.92.01.73.03 1.46.05 2.19 1.02.19 2.05.36 3.07.51.33 1.03.65 2.06.95 3.1.7 3.01 1.37 6.03 2.45 8.94-5.29-2.06-8.55-7.24-9.66-12.62-1.71-8.55-.23-17.28 1.63-25.67 1.59 1.16 2.82-1.54 1.15-2.25l-.54-.54.72-2.61z"/>
    <g fill="#b32326">
        <path d="M51.84 80.62c.78-4.32 2.73-8.3 5.14-11.93.01 1.78 0 3.57-.13 5.36-.69 1.76-1.34 3.54-1.65 5.42-1.12.39-2.24.77-3.36 1.15zM21.64 84.1c.02-3.26 2.04-5.8 4.87-7.17.48 1.1.94 2.21 1.37 3.34.5 8.34 2.2 16.55 4.72 24.52-5.88-5.4-9.58-12.88-10.96-20.69z"/>
    </g>
    <path fill="#681515" opacity=".86" d="M45.89 72.93c.34-.33 1.03-.98 1.37-1.31 1.67.71.44 3.41-1.15 2.25l-.22-.94z"/>
    <path fill="#811918" d="M45.33 96.5c2.37-.77 4.61-1.86 6.67-3.27-.32 3.32-.28 6.66-.31 9.99-.3-1.04-.62-2.07-.95-3.1-1.02-.15-2.05-.32-3.07-.51-.02-.73-.04-1.46-.05-2.19-.77-.3-1.53-.61-2.29-.92z"/>
</svg>
