<svg width="128pt" height="128pt" viewBox="0 0 128 128" xmlns="http://www.w3.org/2000/svg">
    <path fill="#220708" opacity=".53" d="M57.46 17.07c2.07-2.28 5.47-.76 7.96-.1l.08.31c.04 3.04 3.26 5.29 6.12 4.4l.32-.03c1.02.8 2.03 1.6 3.04 2.41-2.56-.1-5.27-.08-7.58-1.36-2.43-1.21-3.34-3.94-4.59-6.15-1.44.11-2.88.22-4.33.35-.67 1.77-1.41 3.53-2.5 5.1-1.79.89-3.67 1.81-5.72 1.84-1.89.33-1.71-2.87.15-2.15 3.38 1.03 5.53-2.15 7.05-4.62z"/>
    <path fill="#6f191c" opacity=".93" d="M50.41 21.69c2.16-1.78 4.2-4 7.05-4.62-1.52 2.47-3.67 5.65-7.05 4.62z"/>
    <path fill="#ad2026" d="M58.48 16.9c1.45-.13 2.89-.24 4.33-.35 1.25 2.21 2.16 4.94 4.59 6.15 2.31 1.28 5.02 1.26 7.58 1.36 1.08.74 2.13 1.51 3.17 2.31-.32.3-.96.9-1.28 1.19-2.85-.35-5.88-.19-8.53.94-1.44 2.25 2.01 2.78 3.42 3.45-.56.23-1.69.67-2.25.9-1.18.53-2.34 1.11-3.49 1.7l.85 1.17c-.63.17-1.88.52-2.51.69-.27 1.2-.53 2.41-.78 3.62-.41-1.92-.91-3.83-1.46-5.72.02-1.7.16-3.41.49-5.08.13-.52.4-1.57.53-2.1 3.37-1.37 7.05-1.31 10.6-.82.64-.45 1.29-.9 1.93-1.36-4.81.36-10.19-1.07-14.42 1.94l-.64.32c-1.54-.74-3.06-1.54-4.64-2.21.01-.75.01-2.25.01-3 1.09-1.57 1.83-3.33 2.5-5.1z"/>
    <path fill="#681619" opacity=".9" d="M65.5 17.28c2.14 1.33 4.17 2.81 6.12 4.4-2.86.89-6.08-1.36-6.12-4.4z"/>
    <path fill="#73181b" d="M35.13 18.12c2.64 1.98 5.17 4.11 7.84 6.04-.38.96-.77 1.92-1.16 2.88 1.14-.82 2.38-1.25 3.71-1.3-2.39 2.04-4.82 4.1-7.76 5.33 2.68-4.42-2.07-8.55-2.63-12.95z"/>
    <path fill="#c42830" d="M50.26 23.84c2.05-.03 3.93-.95 5.72-1.84 0 .75 0 2.25-.01 3-3.47-.11-7.05.38-10.4-.79 1.17-.1 3.52-.28 4.69-.37z"/>
    <g fill="#941c21">
        <path d="M79.15 25.37c1.57-1.39 3.25-2.65 5.01-3.81-.91 2.05-2.39 3.95-2.54 6.26-.8-.84-1.63-1.65-2.47-2.45zM64.95 62.93c3.56 2.79 8.4 2.63 12.49 1.23 2.86-1.45 6.02-1.65 9.16-1.22-1.24 1.69-2.7 3.19-4.32 4.53-.06.73-.18 2.19-.25 2.91-1.5-1.74-2.88.08-4.23.91-1.79-.39-3.21-1.44-4.31-2.87-.33-.07-.98-.22-1.31-.29-2.04-.46-4.05-.98-6.05-1.56l-2.4 4.89c-.45-.15-1.34-.43-1.78-.57.33-1.35.63-2.7 1.03-4.03.65-1.32 1.31-2.63 1.97-3.93z"/>
    </g>
    <path fill="#250808" opacity=".55" d="M45.76 25.06c-.05-.22-.15-.64-.19-.85 3.35 1.17 6.93.68 10.4.79 1.58.67 3.1 1.47 4.64 2.21-.31.51-.95 1.54-1.26 2.06-.12-.55-.37-1.64-.49-2.19-.43-.08-1.28-.24-1.71-.31-2.4-.7-4.89-.9-7.38-.84-2.68.06-4.82 1.8-6.92 3.26-2.18 1.63-4.1 3.58-5.81 5.69-2.01-.91-.94-3.4.72-3.81 2.94-1.23 5.37-3.29 7.76-5.33l.33-.26-.09-.42z"/>
    <path fill="#d62c31" d="M45.52 25.74l.24-.68.09.42-.33.26z"/>
    <path fill="#140404" opacity=".45" d="M61.25 26.89c4.23-3.01 9.61-1.58 14.42-1.94-.64.46-1.29.91-1.93 1.36-3.55-.49-7.23-.55-10.6.82-.13.53-.4 1.58-.53 2.1-.34-.58-1.02-1.76-1.36-2.34z"/>
    <path fill="#9a1f20" d="M42.85 29.19c2.1-1.46 4.24-3.2 6.92-3.26.69 1.11 1.38 2.23 2.06 3.35L51.51 32l-.02.36c.97.89 1.98 1.71 2.99 2.56-.63.62-1.88 1.85-2.51 2.46-.49-.91-1.48-2.72-1.97-3.62l.36 2.74c.42.3 1.26.89 1.68 1.19-1.97 1.13-3.87 2.36-5.62 3.81-.88-.6-1.89-1.04-2.59-1.86l-.07-.79c.6-1.9 1.34-3.78 1.66-5.75.1-1.75-1.5-2.81-2.57-3.91z"/>
    <path fill="#c82930" d="M49.77 25.93c2.49-.06 4.98.14 7.38.84-1.78.83-3.54 1.69-5.32 2.51-.68-1.12-1.37-2.24-2.06-3.35z"/>
    <path fill="#180506" opacity=".45" d="M78.15 26.37l1-1c.84.8 1.67 1.61 2.47 2.45.19.24.57.72.76.95-.62-.15-1.87-.47-2.49-.62.11.65.34 1.94.45 2.59-1.16-1.06-2.31-2.12-3.47-3.18.32-.29.96-.89 1.28-1.19z"/>
    <path fill="#ad2426" d="M57.15 26.77c.43.07 1.28.23 1.71.31.12.55.37 1.64.49 2.19.47 2.14.66 4.32.68 6.51-1.18 1.02-2.36 2.05-3.54 3.08 0-1.16.01-2.31-.04-3.46l-.63-.51c-1.4-1.02-2.86-1.94-4.31-2.89l.32-2.72c1.78-.82 3.54-1.68 5.32-2.51z"/>
    <path fill="#551313" opacity=".73" d="M60.61 27.21l.64-.32c.34.58 1.02 1.76 1.36 2.34-.33 1.67-.47 3.38-.49 5.08-.13 3.25-.08 6.51-.22 9.76-.65 1.28-1.59 2.49-1.62 3.99-.66 5.69-.32 11.43-.6 17.14-.23-.47-.68-1.41-.91-1.88.41-2.44.74-4.9.68-7.37-.15-6.73.75-13.44.58-20.17-.02-2.19-.21-4.37-.68-6.51.31-.52.95-1.55 1.26-2.06z"/>
    <path fill="#8c1c1e" d="M68.34 28.5c2.65-1.13 5.68-1.29 8.53-.94 1.16 1.06 2.31 2.12 3.47 3.18-.11-.65-.34-1.94-.45-2.59.62.15 1.87.47 2.49.62.07.26.22.77.29 1.02-.86.44-1.71.9-2.54 1.39l3.35.04c.29 1.79.65 3.57.95 5.36-2.29-.26-4.02-1.59-5.74-2.96-2.03-.39-4.32-.44-6.21.47-.9.97-1.74 2-2.67 2.94-.98-.51-1.88-1.13-2.7-1.87.6-.58 1.8-1.73 2.4-2.31.56-.23 1.69-.67 2.25-.9-1.41-.67-4.86-1.2-3.42-3.45z"/>
    <path fill="#86191b" d="M37.04 34.88c1.71-2.11 3.63-4.06 5.81-5.69 1.07 1.1 2.67 2.16 2.57 3.91-.32 1.97-1.06 3.85-1.66 5.75l-.68.33c-4.53 0-9.43 1.32-11.93 5.44-.63-.66-1.26-1.32-1.87-1.99 2.01-3.15 5.69-4.63 7.76-7.75z"/>
    <path fill="#230808" opacity=".51" d="M80.13 31.18c.83-.49 1.68-.95 2.54-1.39.42-.04 1.26-.13 1.69-.17.25 1.27.67 2.49 1.24 3.66-.1.74-.11 1.51-.35 2.23-.24.45-.71 1.34-.95 1.79l.13-.72c-.3-1.79-.66-3.57-.95-5.36l-3.35-.04z"/>
    <path fill="#a52029" d="M72.48 34.09c1.89-.91 4.18-.86 6.21-.47 1.72 1.37 3.45 2.7 5.74 2.96l-.13.72c-.15.27-.44.82-.59 1.1-1.98.31-3.98.63-5.88 1.27-.51.32-1.52.94-2.03 1.26-.63-1.31-1.24-2.63-1.84-3.96-.61-.31-1.83-.92-2.44-1.23.24-.41.72-1.24.96-1.65z"/>
    <path fill="#c8292c" d="M52.04 37.69c1.34-.82 2.57-1.8 3.78-2.8l.63.51c.05 1.15.04 2.3.04 3.46 1.18-1.03 2.36-2.06 3.54-3.08.17 6.73-.73 13.44-.58 20.17.06 2.47-.27 4.93-.68 7.37-.62-.76-1.22-1.53-1.8-2.32-1.08 1.01-2.17 2-3.28 2.97-.96-7.81-2.19-16.15-7.27-22.47 1.75-1.45 3.65-2.68 5.62-3.81z"/>
    <path fill="#c3272c" d="M62.12 34.31c.55 1.89 1.05 3.8 1.46 5.72.25-1.21.51-2.42.78-3.62.63-.17 1.88-.52 2.51-.69.89 2.03 4.17 2.63 4.65.02.61.31 1.83.92 2.44 1.23.6 1.33 1.21 2.65 1.84 3.96-.99 1.54-2.14 2.97-3.41 4.3-.75 2.96-1.67 5.87-2.66 8.76-.18.48-.53 1.45-.71 1.94-.03.7-.1 2.11-.14 2.81-.35 1.57-.77 3.13-1.18 4.68-.91-.95-1.81-1.91-2.71-2.86-.86 1.6-1.71 3.21-2.57 4.8.03-7.1-.06-14.2-.52-21.29.14-3.25.09-6.51.22-9.76z"/>
    <path fill="#7e1b1b" d="M84.3 37.3c.24-.45.71-1.34.95-1.79 1.95 1.82 4.06 3.45 6.04 5.24 1.59 2.71 2.77 5.75 3.25 8.88l2.54.12c-1.59 2.3-4.12 2.8-6.76 2.5.85-2.52 1.68-5.39.21-7.86-2.63-4.1-8.07-5.79-12.7-4.72 1.9-.64 3.9-.96 5.88-1.27.15-.28.44-.83.59-1.1z"/>
    <path fill="#160506" opacity=".46" d="M97.59 40.07c-2.13-2.36 3.68-1.36 2.07.83-.52-.2-1.56-.62-2.07-.83z"/>
    <path fill="#841c21" d="M97.59 40.07c.51.21 1.55.63 2.07.83 1.06 1.05 2.03 2.51 3.74 1.52-.53 1.69.01 3.37.54 4.96-.27.89-.46 1.79-.56 2.71 1.31-.19 2.44-.9 3.46-1.71.95-.69 1.9-1.38 2.85-2.05.01.31.04.93.05 1.24-1.37 1.64-2.76 3.26-4.2 4.84-2.11-.48-4.25-1.28-6.44-.9l-.79.08c-.85-1.85-2.14-3.62-2.1-5.75l1.88 1.86c.49.58 1.11.96 1.86 1.14.35-1.54.12-3.16-.52-4.59-.57-1.41-1.19-2.81-1.84-4.18z"/>
    <path fill="#060102" opacity=".32" d="M36.16 42.55c1.08-.75 3.48-1.87 4.47-.82-1.12 1.2-2.87 1.9-4.42 2.42-.01-.4-.04-1.2-.05-1.6z"/>
    <path fill="#110405" opacity=".43" d="M80.86 41.13c2.95.91 7.64 1.31 7.99 5.18l-.43-.08c-1.55-.01-2.33-1.56-3.5-2.31-1.25-1.1-3.35-1.09-4.06-2.79z"/>
    <g fill="#6b1416">
        <path d="M33.91 43.51c.51.51 1.02 1.04 1.53 1.56-4.35 3.02-.15 10.13 4.65 9.79-1.41.65-2.81 1.3-4.22 1.96-1.51-2.5-3.3-5.05-3.52-8.06.29-1.81 1.02-3.51 1.56-5.25zM27.37 52.05c1.26 1 2.76 1.07 4.23.5 1.04 1.7 2.07 3.41 3.11 5.11-3.32-.54-6.06-2.47-7.34-5.61zM78.22 91.86c2.83-.36 5.67-1.19 8.54-.79 3.22 2.03 6.71 3.6 9.81 5.81-2.44.84-4.98 1.39-7.33 2.46-2.12.94-.05 2.75.43 3.96-.64-.2-1.92-.6-2.57-.8-3.3 3.93-8.06 5.93-12.72 7.73l-.69 1.48c-1.69-2.88-5.67-.52-8.37-1.11l-.04-1.06c3.3-.76 6.12-2.68 8.67-4.83-.79-1.71-1.48-3.47-2.1-5.24 1.31.87 2.57 1.84 4 2.54 1.68-1.55 2.07-4.1 3.09-6.1 1.22 1.54 2.29 3.19 3.12 4.98.99-3.55-1.29-6.8-3.84-9.03z"/>
    </g>
    <path fill="#170606" opacity=".49" d="M99.43 44.25c.64 1.43.87 3.05.52 4.59-.75-.18-1.37-.56-1.86-1.14.11-1.29.55-2.43 1.34-3.45z"/>
    <path fill="#a52227" opacity=".96" d="M28.9 44.24c.57.7 1.12 1.41 1.67 2.12-.19 2.13.17 4.24 1.03 6.19-1.47.57-2.97.5-4.23-.5l-.82-.7c.95-2.31 1.69-4.7 2.35-7.11z"/>
    <path fill="#130505" opacity=".44" d="M60.28 48.06c.03-1.5.97-2.71 1.62-3.99.46 7.09.55 14.19.52 21.29.86-1.59 1.71-3.2 2.57-4.8.9.95 1.8 1.91 2.71 2.86.41-1.55.83-3.11 1.18-4.68.02 1.93-.02 3.86-.11 5.79 2.89.04 5.79-.09 8.67-.37-4.09 1.4-8.93 1.56-12.49-1.23-.66 1.3-1.32 2.61-1.97 3.93-.69.23-2.07.7-2.76.93-.14-.65-.4-1.94-.54-2.59.28-5.71-.06-11.45.6-17.14z"/>
    <path fill="#5b1117" opacity=".91" d="M88.42 46.23l.43.08c.55 1.59 1.01 5.6-1.21 5.77.11-1.87.11-4.07.78-5.85z"/>
    <path fill="#7b1821" d="M40.87 46.41c3.28 1.9 6.11 4.44 9.11 6.73.68 3.45 1.35 6.91 2.14 10.34l-4.37.21-1.08 3.44-1.56-1.2.45-.63c.75-1.11 1.61-2.18 2.11-3.44-.43-2.83-1.09-5.62-1.54-8.44-.28-2.06-2.54-2.87-3.87-4.17-.58-.87-1.04-1.82-1.39-2.84z"/>
    <path fill="#1e0605" opacity=".55" d="M103.94 47.38c1.17-.31 2.14.02 2.9 1-1.02.81-2.15 1.52-3.46 1.71.1-.92.29-1.82.56-2.71z"/>
    <path fill="#b52429" d="M80.47 52.42c.46-1.26.91-2.52 1.37-3.78.6 1.9 1.22 3.79 1.9 5.66-.19.4-.57 1.19-.76 1.59l.69.47c2.24 1.74 4.98 2.54 7.5 3.75 1.66.55.08 2.55.05 3.62-4.53-3.01-10.46-1.47-15.47-3.1-.43-3.11.15-6.22 1.8-8.9.73.17 2.19.52 2.92.69z"/>
    <path fill="#c6282c" d="M42.26 49.25c1.33 1.3 3.59 2.11 3.87 4.17.45 2.82 1.11 5.61 1.54 8.44-.5 1.26-1.36 2.33-2.11 3.44l-1.03-1.14c-3 .57-5.77 1.99-8.14 3.88-.49-1.32-.92-2.67-1.56-3.92-1.24-.87-2.75-1.18-4.14-1.71-.78-1.8-1.59-3.58-2.44-5.35 2.3.58 4.56 1.82 6.99 1.63.12-.03.35-.09.46-.13 2.68-1.55 5.61-2.57 8.59-3.37-.73-1.96-1.44-3.93-2.03-5.94z"/>
    <path fill="#711416" d="M71.96 50.79c1.86.31 3.72.62 5.59.94-1.65 2.68-2.23 5.79-1.8 8.9l-.35.53c.31.41.94 1.22 1.25 1.62-1.95-.07-3.89-.11-5.83-.16.59-.37 1.77-1.13 2.36-1.51l-.11-.54c-.66-.15-2-.47-2.67-.62.51-3.06 1.02-6.11 1.56-9.16z"/>
    <path fill="#9c2023" d="M99.1 51.51c2.19-.38 4.33.42 6.44.9-.29 2.07-.76 4.11-1.45 6.09 1.37 1.43 2.69 2.9 3.9 4.47-1.99-.61-3.92-1.41-5.94-1.9-2.97.56-5.91 1.38-8.95 1.51.01.77.01 2.29.01 3.05-.64-.63-1.27-1.26-1.89-1.9.03-1.07 1.61-3.07-.05-3.62-2.52-1.21-5.26-2.01-7.5-3.75 1.17-.83 1.71-1.94 1.62-3.33 4.57.81 9.98 1.86 13.81-1.52z"/>
    <path fill="#320a0a" opacity=".68" d="M69.02 55.93c.18-.49.53-1.46.71-1.94l.53.77-.37.99-.87.18z"/>
    <path fill="#1f0708" opacity=".58" d="M35.24 58.69c.12-.03.35-.09.46-.13-.11.04-.34.1-.46.13z"/>
    <path fill="#aa2126" d="M30.69 62.41c1.39.53 2.9.84 4.14 1.71.64 1.25 1.07 2.6 1.56 3.92-1.37 1.73-2.36 3.7-3.23 5.71l1.18-.31c-.59.81-1.13 1.65-1.66 2.49-1.88 3.87.78 7.33 1.9 10.9-1.94-1.19-3.79-2.52-5.57-3.93-1.56 1.02-3.14 2.02-4.73 3 .92-1.94 2.11-3.8 2.6-5.92-.97-2.63-1.72-5.35-1.4-8.19-2.16-1.52-4.37-3-6.35-4.77 3.26-.15 6.53-.17 9.8-.23l-1.2-1.4c.99-.99 1.98-1.98 2.96-2.98z"/>
    <path fill="#9f2021" d="M56.66 62.55c4.16 5.22 3.51 12.14 3.66 18.4-.06 2.98.72 6.35-1.28 8.9l-.51-2.57c-.13.37-.4 1.1-.53 1.46.94 2.62 1.88 5.25 2.81 7.88.36-.81 1.09-2.44 1.45-3.25l1.07-.64c-.59 2.66-1.33 5.31-2.61 7.73-.87-2.91-1.82-5.81-2.68-8.73-1.54-5.27-2.81-10.66-5.01-15.72-1.24-2.52-2.26-5.14-3.53-7.64-.58.07-1.76.23-2.35.3.53-1.25 1.05-2.5 1.56-3.76 2.88.18 5.92-.03 7.95-2.36z"/>
    <path fill="#7b1a1d" opacity=".94" d="M38.8 67.48c1.66-1.19 3.56-1.96 5.55-2.42.51 1.34 1.01 2.67 1.49 4.01-1.17-.47-2.35-.93-3.52-1.38-.09.36-.26 1.08-.35 1.45l-.24.95c-.73-.65-2.19-1.96-2.93-2.61z"/>
    <path fill="#a52126" d="M66.13 66.57c2 .58 4.01 1.1 6.05 1.56-2.83 6.78-6.04 13.46-7.34 20.75-.34-.31-1-.94-1.34-1.25-.4.45-1.2 1.34-1.61 1.79-.1-2.24-.21-4.47-.28-6.71-.08-3.94.19-7.88.34-11.82.44.14 1.33.42 1.78.57l2.4-4.89z"/>
    <path fill="#c1262b" d="M42.32 67.69c1.17.45 2.35.91 3.52 1.38l.8.32-1.6.8c-.91.47-1.61 1.16-2.1 2.09-.24-.79-.72-2.36-.97-3.14.09-.37.26-1.09.35-1.45z"/>
    <path fill="#4b1113" opacity=".72" d="M42.94 72.28c.49-.93 1.19-1.62 2.1-2.09 2.9 1.32-2.63 5.91-2.1 2.09z"/>
    <path fill="#841b1b" d="M34.34 73.44c.91-1.21 1.85-2.39 2.83-3.55-.19 4.62 4.74 6.25 8.3 7.38-1.1 1-2.16 2.04-3.15 3.15-3.1-1.73-6.32-3.24-9.64-4.49.53-.84 1.07-1.68 1.66-2.49z"/>
    <path fill="#5d1516" d="M47.06 72.07c1.94 1.85 3.94 3.79 4.77 6.42 1.95 5.15 3.32 10.49 4.87 15.76-6.82-5.27-7.7-14.4-9.64-22.18z"/>
    <path fill="#5d1310" d="M64.92 94.17c2.81-7.61 3.4-16.73 9.86-22.39-1.96 7.79-2.56 17.48-9.86 22.39z"/>
    <path fill="#971d23" d="M34.58 86.83c-1.12-3.57-3.78-7.03-1.9-10.9 3.32 1.25 6.54 2.76 9.64 4.49-.18.59-.55 1.77-.74 2.36-.41 2.29-.55 4.63-.96 6.93-2.07-.86-4.11-1.75-6.04-2.88z"/>
    <path fill="#040101" opacity=".17" d="M53.03 76.01c2.2 5.06 3.47 10.45 5.01 15.72-.34.63-1 1.89-1.34 2.52-1.55-5.27-2.92-10.61-4.87-15.76l1.2-2.48z"/>
    <path fill="#631313" d="M45.47 77.27c.26-.02.79-.05 1.06-.07.91 4.9 2.38 9.7 4.97 13.99-3.75-.59-7.31.33-10.24 2.77.26-2.79-.28-5.89 1.34-8.36-.34-.94-.68-1.89-1.02-2.82.19-.59.56-1.77.74-2.36.99-1.11 2.05-2.15 3.15-3.15z"/>
    <path fill="#5d1313" d="M74.05 79.69c6.53 1.85 13.78 4.86 16.24 11.8-.88-.1-2.65-.32-3.53-.42-2.87-.4-5.71.43-8.54.79l-.29.05c-2.22-1.05-4.52-1.9-6.89-2.57 1.58-3.01 2.88-6.21 3.01-9.65z"/>
    <path fill="#471110" opacity=".67" d="M59.51 89.5c1.06-2.14 1.64-4.46 2.1-6.79.07 2.24.18 4.47.28 6.71.41-.45 1.21-1.34 1.61-1.79.34.31 1 .94 1.34 1.25-.51 1.24-.43 2.96-1.51 3.85l-1.07.64c.27-1.25.57-2.48.89-3.71-.57.48-1.72 1.44-2.3 1.92L59 89.85c.72.06 2.17.19 2.89.25l-2.38-.6z"/>
</svg>
