<svg width="128pt" height="128pt" viewBox="0 0 128 128" xmlns="http://www.w3.org/2000/svg">
    <g fill="#fff">
        <path d="M65.53 27.74c.85-2.48 1.92-4.95 3.83-6.8 3.57 4.68 5.87 10.12 8.42 15.37 4.3 9.5 9.27 18.7 13.36 28.28-1.58.27-3.15.61-4.75.76-3.51-2.24-6.96-4.62-10.21-7.24-.56 1.53-1.12 3.06-1.66 4.6.76 2.05 1.27 4.19 1.62 6.35-1.74-.25-3.65.03-5.27-.72-1.94-2.88-.98-6.46-.23-9.56.79-1.56-.17-2.99-1.11-4.21.46-1.52 1.04-3.01 1.37-4.56-2.95-9.17 2.29-19.35-1.79-28.32-.45 15.48 0 30.98-.12 46.48-2.41-.69-4.73-1.64-7.12-2.37.1-1.77.13-3.53-.07-5.29-1.84.64-3.68 1.29-5.53 1.9-1.8-1.51-3.56-3.08-5.38-4.58 4.03-9.94 8.45-19.73 12.29-29.74.59-.09 1.76-.26 2.35-.35zM58.1 80.89c3.53 1.73 7.35 2.79 11.23 3.43-3.76 2.53-8.65 2.68-12.93 3.99.65-2.45 1.43-4.89 1.7-7.42zM69.7 84.49c3.41.4 6.9.89 10.29.06.42 1.24.83 2.49 1.22 3.75-3.81-1.24-8.18-1.51-11.51-3.81z"/>
    </g>
</svg>
