<svg width="128pt" height="128pt" viewBox="0 0 128 128" xmlns="http://www.w3.org/2000/svg">
    <g fill="#fff">
        <path d="M48.61 25.93c2.18-3.56 4.59-6.99 7.11-10.32-.85 2.98-.82 6.11-1.59 9.11-1.11.52-2.21 1.05-3.3 1.6 3.49.38 6.91 1.24 10.05 2.84-1.89 3.91-3.34 8.01-5.18 11.94-2.91-3.29-8.48-4.45-11.96-1.41-2.31 1.73-2.03 4.9-1.73 7.43 1 4.29 3.92 7.79 6.77 11.01 6.42 6.13 14.13 11.61 23.15 12.83 3.36.47 6.77-.53 10.11.09-.03-1.44-.02-2.89.03-4.33.31.61.93 1.84 1.23 2.45 3.65-.34 8.6-1.02 10.02 3.41 1.56.11 3.12.34 4.54 1.06-2.42.6-5.64.56-6.48 3.63l-.95-1.67c.21 2.81 2.82 4.81 3.83 7.4-3.62-1.94-7.39-3.57-11.14-5.25 1.11-1.52 2.19-3.07 3.03-4.76-2.08 1.52-3.92 3.34-6.13 4.67 2.06 1.18 4.15 2.3 6.11 3.64-13.92 4.29-28.91-1.51-39.77-10.35-.56.87-1.32 1.51-2.28 1.93.62-.91 1.28-1.79 1.96-2.64-.68-.39-2.05-1.17-2.73-1.56-2.9 1.83-5.65 3.9-8.58 5.68 2.32-5.45 4.17-11.1 6.74-16.44.23 1.56.68 3.04 1.37 4.44.01-2.79-.46-5.55-.65-8.33-1.98 1.76-4 3.47-5.86 5.35-1.98-3.23-3.21-6.89-3.65-10.64.92-.48 1.83-.98 2.74-1.49-3.1-.52-6.18-1.13-9.3-1.56 2-.73 4.1-1.03 6.18-1.41.23-1.82.52-3.62.81-5.42 1.19 1.1 2.38 2.21 3.5 3.38 1.18-1.99 2.1-4.11 3.01-6.22-1.09.85-2.15 1.74-3.21 2.63-4.04-4.05-8.8-7.28-12.7-11.45 4.19 1.77 8.62 2.91 12.86 4.57 3.09-3.5 7.52-5.2 12.04-5.84m8.7 45.77c.06 1.31.13 2.62.19 3.93 1.83-.65 3.75-1.25 5.12-2.72-.97.3-2.92.89-3.89 1.19-.36-.6-1.07-1.8-1.42-2.4zM88.04 19.44c3.21 1.61 6.25 3.57 8.92 5.99-.67.73-1.35 1.46-2.03 2.18.43.31 1.29.93 1.72 1.25.18-.36.54-1.06.72-1.42 1.66-1.05 3.34-2.07 5.12-2.93-.87 1.6-1.82 3.15-2.78 4.69 1.91 5.66-.15 11.58-3.68 16.1.71.96 1.44 1.91 2.18 2.85-1.26-.58-3.23-.38-3.53-2.15-2.05 1.62-4.28 3.11-6.88 3.64-2.09-3.66-3.47-7.7-5.14-11.56 1.26.39 2.53.77 3.81 1.14-.56-4.08-1.25-8.13-1.95-12.19 2.85 4.7 5.75 9.37 8.72 13.99-.9-.33-2.71-1-3.61-1.34 1.4 1.06 2.7 2.51 4.6 2.57-.41-3.16-2.19-6.27-.92-9.46 1.1-5.13-2.36-9.54-5.27-13.35z"/>
        <path d="M43.31 43.84c-.28-.88.49-2.25 1.37-2.49.77.6 2.4 1.41 2.06 2.55-1.16.41-2.3.39-3.43-.06zM48.24 77.1c2.3.88 4.51 1.99 6.57 3.33-1.47-.02-2.94-.04-4.41-.04-.73-1.09-1.46-2.18-2.16-3.29zM42.97 82.08c4.56-.21 9.13-.02 13.7-.08-.55 3.06-1.09 6.11-1.76 9.15 3.18-.21 6.39-1.79 9.56-.75 2.11.56 4.15 1.47 5.74 3-1.54 1.43-2.91 3.05-4.1 4.79 3.37-1.84 6.18-4.5 9.49-6.43-.49 1.35-1.4 2.58-1.55 4.03 1.56 2.22 3.97 4.2 3.97 7.15.34 4.14-3.2 7.05-6.09 9.41 1-1.96 1.96-4.64.31-6.54-2.44-2.93-6.67-3.28-10.22-2.94-4.1.49-8.31-.72-11.63-3.13-1.21-.75-1.61-1.84-1.2-3.26-1.14 1.05-2.28 2.1-3.48 3.08 1.65-3.35 1.05-7.03 1.36-10.59-.07-2 2.15-2.59 3.41-3.61-2.44-1.24-5.06-2.06-7.51-3.28z"/>
        <path d="M57.12 104c3.23.3-1.61 2.96 0 0z"/>
    </g>
</svg>
