<svg width="128pt" height="128pt" viewBox="0 0 128 128" xmlns="http://www.w3.org/2000/svg">
    <path fill="#711716" d="M80.98 22.84c1.7 1.4 3.15 3.06 4.44 4.83l1.8-1.29c-.21.64-.62 1.92-.83 2.57-.49 1.31-1.01 2.61-1.53 3.91-.68.07-2.05.21-2.73.29l.12 2.26c-1.07-1.74-2.06-3.52-2.92-5.37 1.19.49 2.05 1.31 2.58 2.44.58-.6 1.15-1.2 1.71-1.8-.74-2.66-1.7-5.24-2.64-7.84z"/>
    <path fill="#9c2023" d="M36.63 26.32c3.12 2.36 6.25 4.71 9.25 7.21l-.95 1.83c4.08-2.47 8.93-1.12 13.32-.5 7.52 1.04 15.42 5.59 22.9 2.03.29-.19.86-.57 1.15-.76l-.05-.72-.12-2.26c.68-.08 2.05-.22 2.73-.29.52-1.3 1.04-2.6 1.53-3.91.61 1.3 1.21 2.62 1.8 3.94l-1.57.37c.86.99 1.72 1.99 2.58 3-.47 1.96-.96 3.92-1.62 5.84 1.33 1.44 2.65 2.87 3.94 4.34-2.09-.68-4.18-1.37-6.29-2.02-2 .68-4.02 1.46-6.16 1.55-.5.01-1.5.04-2 .05-.02.57-.05 1.71-.07 2.28-5.35-4.21-12.66-3.06-18.96-4.64-.33.17-1 .51-1.34.68-1.35-1.48-3.38-1.35-5.2-1.5-2.78-.24-5.57-.17-8.36-.13-.49 1.27-.99 2.54-1.48 3.8l-1.38-3.27c-2.82.96-5.92 1.76-8 4.05-1.88 1.85-2.58 4.48-3.22 6.95.5 1.55 1.08 3.07 1.67 4.6 5.32 1.33 8.12 6.52 11.32 10.5-1.99-.44-3.93-1.08-5.85-1.79.02 1.12-.01 2.24-.1 3.36-.37-.18-1.11-.55-1.48-.74.49-.92.99-1.84 1.48-2.76-4-1.23-7.61-3.43-10.72-6.21-1.05.68-2.11 1.37-3.17 2.05l-.23-.82c.3-1.33.74-2.62 1.33-3.86-1.09-2.64-1.52-5.47-1.57-8.31-.47-.25-1.41-.73-1.88-.97 1.01-.59 2.03-1.18 3.04-1.76l-2.16-1.68c1.26.01 2.52.01 3.78.02-.79-2 1.35-3.12 2.4-4.48-.83-1.68-1.68-3.37-2.52-5.05 2.1.59 4.14 1.82 6.34 1.86 2.98-1.28 5.93-2.69 9.11-3.41-1.12-2.8-2.21-5.62-3.22-8.47z"/>
    <path fill="#571317" opacity=".7" d="M61.2 28.89c.51-1.71 5.01-1.73 5.52 0-1.83.13-3.69.35-5.52 0z"/>
    <path fill="#c62c31" d="M58.23 30.21c.51-.37 1.54-1.09 2.06-1.45l.91.13c1.83.35 3.69.13 5.52 0 1.19-.01 2.22.42 3.07 1.28.56.89 1.34 1.52 2.34 1.87.28.2.84.59 1.13.79.89 1.23 1.73 2.49 2.59 3.74-1.91-.22-3.81-.45-5.71-.66-.59-1.24-1.18-2.46-1.79-3.68-3.3-.78-6.72-.58-9.86.71-1.21.04-2.43.09-3.64.16l1.1-.98c.93-.44 1.68-1.08 2.28-1.91z"/>
    <path fill="#2d090c" opacity=".47" d="M55.95 32.12c-.27-1.84.49-2.47 2.28-1.91-.6.83-1.35 1.47-2.28 1.91z"/>
    <path fill="#2f090b" opacity=".47" d="M69.79 30.17c1.74-.54 2.51.08 2.34 1.87-1-.35-1.78-.98-2.34-1.87z"/>
    <path fill="#8e1e1f" opacity=".93" d="M58.49 32.94c3.14-1.29 6.56-1.49 9.86-.71-.35.19-1.04.58-1.39.78-.25.46-.75 1.39-1 1.85-.55-.18-1.66-.53-2.22-.71-.52-1.64-1.1-1.72-1.74-.25-1.17-.33-2.34-.65-3.51-.96z"/>
    <g fill="#601413">
        <path d="M88.19 32.89c1.96-.4 3.67-1.5 5.44-2.36-1.34 2.01-2.83 3.91-4.43 5.73-.86-1.01-1.72-2.01-2.58-3l1.57-.37zM29.06 54.24c1.27-1.9 2.6-3.77 3.93-5.63.08 4.68 4.6 6.81 8.14 8.71.32.18.97.54 1.3.72-.71 3.66-.53 7.42.45 11.03l-.14 1.16-.69-.89c-3.2-3.98-6-9.17-11.32-10.5-.59-1.53-1.17-3.05-1.67-4.6z"/>
    </g>
    <path fill="#0f0304" opacity=".3" d="M45.88 33.53c2.99-.12 6-.03 8.97-.43 1.21-.07 2.43-.12 3.64-.16 1.17.31 2.34.63 3.51.96.43.07 1.3.19 1.74.25.56.18 1.67.53 2.22.71l.79.12c.05-.5.16-1.48.21-1.97.35-.2 1.04-.59 1.39-.78.61 1.22 1.2 2.44 1.79 3.68 1.9.21 3.8.44 5.71.66-.86-1.25-1.7-2.51-2.59-3.74 2.13.84 2.54 3.11 3.71 4.76 1.4-.18 2.8-.41 4.18-.7-7.48 3.56-15.38-.99-22.9-2.03-4.39-.62-9.24-1.97-13.32.5l.95-1.83z"/>
    <path fill="#e73439" d="M62 33.9c.64-1.47 1.22-1.39 1.74.25-.44-.06-1.31-.18-1.74-.25z"/>
    <path fill="#ff3431" d="M65.96 34.86c.25-.46.75-1.39 1-1.85-.05.49-.16 1.47-.21 1.97l-.79-.12z"/>
    <path fill="#030101" opacity=".2" d="M51.5 42.84c1.82.15 3.85.02 5.2 1.5.34-.17 1.01-.51 1.34-.68 6.3 1.58 13.61.43 18.96 4.64.02-.57.05-1.71.07-2.28.5-.01 1.5-.04 2-.05.42.16 1.27.49 1.7.65-.54.25-1.62.74-2.16.99.11.93.33 2.8.45 3.73-.58-.3-1.72-.91-2.3-1.21l-.16-.11c-4.94-4.09-11.67-3.21-17.59-4.28-.36.71-1.09 2.12-1.45 2.83-.34.71-.67 1.42-.98 2.14-.57-1.85-1.16-3.68-1.79-5.5-.65-.11-1.96-.32-2.61-.42l-.68-1.95z"/>
    <g fill="#551310">
        <path d="M47.1 47.91c.52-1.21 1.09-2.4 1.64-3.59.86.12 2.58.35 3.44.47.65.1 1.96.31 2.61.42.63 1.82 1.22 3.65 1.79 5.5-1.02-.18-2.04-.38-3.05-.6-2.13-.77-4.27-1.53-6.43-2.2zM65.12 71.37c3.1-.23 6.28.02 9.07 1.51-2.81.37-5.73.62-8.18 2.2-2.47 1.58-6.73 1.17-7.23 4.83-.05.71-.14 2.12-.19 2.83-2.73-.58-1.86-3.73-1.31-5.67.56-1.96 2.29-3.16 3.82-4.33 1.73.66 3.47 1.27 5.21 1.88-.4-1.08-.8-2.16-1.19-3.25z"/>
    </g>
    <path fill="#561315" opacity=".95" d="M15.54 45.97c1.73-.06 3.47-.1 5.2-.12l2.16 1.68c-1.01.58-2.03 1.17-3.04 1.76-1.48-1.05-2.95-2.13-4.32-3.32z"/>
    <path fill="#4a1010" d="M59.01 45.74c5.92 1.07 12.65.19 17.59 4.28-.42.68-1.26 2.05-1.68 2.73-5.7-1.74-11.36-3.76-17.36-4.18.36-.71 1.09-2.12 1.45-2.83z"/>
    <path fill="#440f0e" opacity=".9" d="M78.61 47.61c.54-.25 1.62-.74 2.16-.99.35.69 1.04 2.05 1.39 2.73l-.18.49c-.23.62-.68 1.87-.9 2.49-.78.05-2.33.16-3.11.22-.3-.61-.9-1.82-1.21-2.42.58.3 1.72.91 2.3 1.21-.12-.93-.34-2.8-.45-3.73z"/>
    <path fill="#c0252c" d="M47.1 47.91c2.16.67 4.3 1.43 6.43 2.2.88 1.77 1.81 3.51 2.91 5.16 1.02-1.66 2.04-3.31 3.04-4.98 1.74.24 3.48.49 5.23.74.49 1.5.99 3 1.47 4.5 1.14-1 2.32-1.98 3.67-2.68-.9 2.65-3.46 5.71-1.09 8.32-.47.34-1.4 1-1.87 1.34-3.72-.78-7.52-.44-11.18.45-1.38-1.85-2.82-3.65-4.27-5.44.37 2.3.67 4.61.79 6.94l-.33.56c-1.85-.23-3.71-.39-5.57-.54-.74.93-1.47 1.87-2.21 2.8-.27-4.16-.39-8.39.46-12.5.78-2.31 1.57-4.62 2.52-6.87z"/>
    <path fill="#a72023" d="M56.58 50.71c.31-.72.64-1.43.98-2.14 6 .42 11.66 2.44 17.36 4.18.42-.68 1.26-2.05 1.68-2.73l.16.11c.31.6.91 1.81 1.21 2.42.78-.06 2.33-.17 3.11-.22.22-.62.67-1.87.9-2.49.31.91.62 1.81.94 2.72-1.31 1.69-2.2 3.62-2.42 5.76-1.45-1.17-2.92-2.32-4.43-3.41-1.9-1.11-4.12-1.51-6.22-2.06-1.35.7-2.53 1.68-3.67 2.68-.48-1.5-.98-3-1.47-4.5-1.75-.25-3.49-.5-5.23-.74-1 1.67-2.02 3.32-3.04 4.98-1.1-1.65-2.03-3.39-2.91-5.16 1.01.22 2.03.42 3.05.6z"/>
    <path fill="#b52426" d="M69.85 52.85c2.1.55 4.32.95 6.22 2.06 1.3 2.69 2.49 5.59 2.01 8.63.39.2 1.17.61 1.56.82-.94 1.63-2.05 3.12-3.72 4.1-1.45-1.74-3.23-3.17-5.02-4.54.2-1.61.42-3.22.66-4.82-.93.7-1.86 1.39-2.8 2.07-2.37-2.61.19-5.67 1.09-8.32z"/>
    <path fill="#c6292c" d="M80.5 58.32c.22-2.14 1.11-4.07 2.42-5.76 2.02 7.05 2.23 15.17-1.89 21.54-1.06-.86-2.13-1.7-3.21-2.53-.03-.02-.08-.06-.11-.08-.58-1.02-1.18-2.03-1.79-3.03 1.67-.98 2.78-2.47 3.72-4.1-.39-.21-1.17-.62-1.56-.82.48-3.04-.71-5.94-2.01-8.63 1.51 1.09 2.98 2.24 4.43 3.41z"/>
    <path fill="#0e0303" opacity=".29" d="M43.12 57.23c.51-.8 1-1.62 1.46-2.45-.85 4.11-.73 8.34-.46 12.5.34 1.36.75 2.7 1.13 4.06 1.55-1.4 2.69-3.18 3.07-5.26 1.28-.08 2.47-.43 3.58-1.06l.33-.56c-.12-2.33-.42-4.64-.79-6.94 1.45 1.79 2.89 3.59 4.27 5.44 3.66-.89 7.46-1.23 11.18-.45.47-.34 1.4-1 1.87-1.34.94-.68 1.87-1.37 2.8-2.07-.24 1.6-.46 3.21-.66 4.82 1.79 1.37 3.57 2.8 5.02 4.54.61 1 1.21 2.01 1.79 3.03-3.14-2.21-6.83-4.11-9.05-7.31-4.38.46-8.82-.1-13.13 1.13-.4-.56-1.22-1.68-1.63-2.23.02.72.05 2.16.06 2.87-2.91 2.35-5.87 4.72-7.63 8.12-.19-.07-.58-.22-.77-.29.57-2.13-1.57-3.28-2.68-4.71-.98-3.61-1.16-7.37-.45-11.03-.33-.18-.98-.54-1.3-.72.5-.02 1.49-.07 1.99-.09z"/>
    <g fill="#731518">
        <path d="M91.67 62.2c1.79-1.17 3.63-2.26 5.47-3.34-.37 1.56-.75 3.12-1.12 4.69-1.46-.45-2.91-.9-4.35-1.35zM51.28 71.09c1.9.74 3.75 1.59 5.54 2.57-1.1 2.36-1.64 4.93-1.11 7.52-.49-1.88-.87-3.8-1.26-5.7-2.03 1.72-3.98 3.54-5.91 5.37-.85-3.62.46-6.99 2.74-9.76z"/>
    </g>
    <path fill="#1f0707" opacity=".64" d="M22.21 63.25c-.8 2.48-2.6-1.7-.23-.82l.23.82z"/>
    <path fill="#651416" d="M85.95 61.12c1.9.66 3.8 1.3 5.7 1.94l-.04.23c-1.43 4.1.53 8.33-.42 12.49-2.36-1.23-4.82-2.28-7.4-2.92 1.94-3.57 2.94-7.68 2.16-11.74z"/>
    <path fill="#9e2224" opacity=".97" d="M46.33 64.48c1.86.15 3.72.31 5.57.54-1.11.63-2.3.98-3.58 1.06-.38 2.08-1.52 3.86-3.07 5.26-.38-1.36-.79-2.7-1.13-4.06.74-.93 1.47-1.87 2.21-2.8z"/>
    <path fill="#911c21" d="M53.9 63.08c.41.55 1.23 1.67 1.63 2.23 4.31-1.23 8.75-.67 13.13-1.13 2.22 3.2 5.91 5.1 9.05 7.31.03.02.08.06.11.08-4.85.41-9.86-3.67-14.49-1.39l.15 1.69c-2.52-2.44-4.77.08-6.66 1.79-1.79-.98-3.64-1.83-5.54-2.57-2.28 2.77-3.59 6.14-2.74 9.76 1.93-1.83 3.88-3.65 5.91-5.37.39 1.9.77 3.82 1.26 5.7 1.16 3.17 3.95 5.18 6.5 7.17.63-.79 1.27-1.58 1.9-2.37.02 1.07.08 2.14.18 3.2 2.1 1.05 4.47 1.34 6.71 1.97 1.88.75 2.8 2.6 3.28 4.45-.79 3.92-3.87 6.88-5.85 10.26-.97-1.84-1.95-3.67-2.92-5.51-6.31-1.35-12.57-4.01-16.88-9-1.72.73-3.46 1.44-5.2 2.13.78-2.53 1.7-5.02 2.91-7.38l.15-.25c1.26-.95.11-2.68-1.27-1.9.32-4.53-2.04-8.29-4.36-11.94 1.18.44 3.53 1.33 4.7 1.77.19.07.58.22.77.29 1.76-3.4 4.72-5.77 7.63-8.12-.01-.71-.04-2.15-.06-2.87z"/>
    <path fill="#9d2023" d="M91.19 75.78c.95-4.16-1.01-8.39.42-12.49 5.53 1.85 10.56 5.61 13 11.03l-3.59-.4.12 2.87c-.8.81-1.59 1.64-2.38 2.46 2.22.25 4.44.52 6.66.79.2.99.42 1.98.63 2.97-.6.17-1.79.52-2.39.7-.39.47-1.16 1.4-1.54 1.87.59.96 1.2 1.92 1.82 2.87-2.41-1.84-3.96.16-5.47 1.86-.03.03-.09.08-.12.11-2.69 2.54-5.8 4.58-9.07 6.29.19 1.03.58 3.11.77 4.15-.9-.7-2.71-2.1-3.61-2.8-3.71 1.31-7.55 2.18-11.44 2.73-.17-1.74-.17-3.52-.72-5.19-.48-1.85-1.4-3.7-3.28-4.45 2.65.11 5.31-.02 7.94-.34l-.04-3.51c.73.91 1.44 1.83 2.14 2.77 1.24-.52 2.45-1.1 3.73-1.52 3.05-.68 6.2-.48 9.23.19 2.4-2.09 2.49-5.29 1.19-8.03-.89-1.96-2.52-3.42-4-4.93z"/>
    <path fill="#b82429" d="M77.82 71.57c1.08.83 2.15 1.67 3.21 2.53-4.82 7.21-14.09 10.32-22.44 8.64.05-.71.14-2.12.19-2.83 3.81-2.26 8.43-2.44 12.19-4.83 1.95.76 3.9 1.53 5.85 2.29-.3-1.34-.6-2.67-.9-4 1 .42 1.99.86 2.97 1.31-.35-1.04-.71-2.08-1.07-3.11z"/>
    <path fill="#8a1c1d" d="M66.01 75.08c2.45-1.58 5.37-1.83 8.18-2.2.4-.05 1.18-.16 1.57-.21l.16.7c.3 1.33.6 2.66.9 4-1.95-.76-3.9-1.53-5.85-2.29-3.76 2.39-8.38 2.57-12.19 4.83.5-3.66 4.76-3.25 7.23-4.83z"/>
    <path fill="#6e1516" d="M101.02 73.92l3.59.4c-.69.25-2.07.76-2.76 1.01 3.54 1.83 7.01 3.8 10.46 5.8-2.08.67-4.15 1.33-6.26 1.88-.21-.99-.43-1.98-.63-2.97-2.22-.27-4.44-.54-6.66-.79.79-.82 1.58-1.65 2.38-2.46l-.12-2.87z"/>
    <path fill="#681513" d="M91.71 80.14c1.17 1.72 2.36 3.43 3.66 5.06-.04-1.12-.14-3.37-.18-4.49 1.3 2.74 1.21 5.94-1.19 8.03-3.03-.67-6.18-.87-9.23-.19 2.98-2.19 5.41-5.03 6.94-8.41z"/>
    <path fill="#230808" opacity=".62" d="M45.22 83.95c1.38-.78 2.53.95 1.27 1.9-.35-.28-1.06-.83-1.42-1.11l.15-.79z"/>
    <path fill="#370d0e" opacity=".73" d="M41.25 94.49c1.49-2.91 2.67-6.11 5.09-8.39-1.21 2.36-2.13 4.85-2.91 7.38l-.16.47-2.02.54z"/>
    <path opacity=".43" d="M98.35 90.42c.03-.03.09-.08.12-.11-.03.03-.09.08-.12.11z"/>
</svg>
