<svg width="128pt" height="128pt" viewBox="0 0 128 128" xmlns="http://www.w3.org/2000/svg">
    <path fill="#881e21" opacity=".96" d="M43.96 15.95c2.83-.27 5.74-.13 8.36 1.09-.78.6-1.56 1.19-2.35 1.78-1.97-.99-4.29-1.42-6.01-2.87z"/>
    <path fill="#b52426" d="M52.32 17.04c.5.29 1.49.87 1.99 1.16.06.37.17 1.11.22 1.48.86.58 1.72 1.16 2.57 1.76-1.8 2.81-2.77 6.03-3.82 9.17-1.4-.86-2.79-1.72-4.19-2.56.08.62.25 1.86.34 2.48l-1.38-.2c.53-3.92-1.4-7.3-3.69-10.27 1.65-.3 3.3-.58 4.97-.76l.64-.48c.79-.59 1.57-1.18 2.35-1.78z"/>
    <path fill="#a82023" d="M59.09 16.76c3.29 1.13 5.63 3.85 7.28 6.81l-1.79-.12-.28.1c.62 1.11 1.3 2.22 1.73 3.43-1.46 2.81-5.4 4.23-5.19 7.9l-.84-.81c-1.65-1.53-3.17-3.2-4.43-5.07.54-2.52 1.14-5.02 1.53-7.56 2.13.09 4.2.62 6.09 1.61-1.38-2.08-2.73-4.19-4.1-6.29z"/>
    <path fill="#731c21" d="M28.96 24.96c2.21-2.2 4.76-4.47 8.01-4.76 1.81-.36 3.27 1.17 5.06 1.07-1.26.62-2.49 1.29-3.71 1.98-3.29-.64-6.36.55-9.36 1.71z"/>
    <g fill="#9f2023">
        <path d="M42.03 21.27c1.39-1.3 2.6.51 3.37 1.48 1.72 2.12 1.87 4.94 2.17 7.53-1.49.58-2.95 1.23-4.48 1.7-1.78-2.04-3.23-5.02-6.4-4.79-.19-.05-.55-.16-.73-.22-.21-.46-.62-1.39-.82-1.86 1.05-.63 2.11-1.25 3.18-1.86 1.22-.69 2.45-1.36 3.71-1.98zM85.02 42.08c1.7 1.7 2.65 8.26-1.31 4.73.59-1.54 1.03-3.12 1.31-4.73z"/>
    </g>
    <g fill="#310b0b">
        <path d="M53.28 30.61c1.05-3.14 2.02-6.36 3.82-9.17-.39 2.54-.99 5.04-1.53 7.56-.26 1.24-.49 2.5-.72 3.75l-.04-1.23c-1.82-.12-3.69-.25-5.38-.99-.09-.62-.26-1.86-.34-2.48 1.4.84 2.79 1.7 4.19 2.56zM76.01 28.11c.17 2.28.88 4.97-1.07 6.71l-.24 1.16c-.96-2.17-2.13-4.25-3.58-6.14.88.69 1.76 1.37 2.65 2.04.58.45 1.22.75 1.93.89.33-1.53.32-3.11.31-4.66zM92.15 51.88c1.37.22 2.67.75 3.97 1.24 2.77 1.14 5.73 1.68 8.68 2.05-.34-1.03-.67-2.06-1-3.09l1.17.65c.42.62.84 1.24 1.24 1.87.18.31.54.92.72 1.23-1.2.09-2.38.24-3.56.44l-.73.87-.34.41-.2.23c-3.47-.42-6.91-1.1-10.17-2.38 0-1.17-.73-2.53.22-3.52m.22 1.05c.85 1.05 1.73 2.07 2.62 3.08 1.98-.02 3.96 0 5.94-.08-2.7-1.41-5.7-2.02-8.56-3zM64.86 59.4c1.76-.97 3.53-2.96 5.71-2.14.7 1.66.97 3.63-.28 5.11-.15-.97-.47-2.9-.62-3.86l-.96-.06c-2.39-.86-2.07 2.18-2.05 3.54-2.74 1.35-3.07 4.6-4.83 6.79-1.48 1.82-2.7 3.83-3.86 5.86-3.31 1.28-5.95 3.72-9.11 5.29-2.48 1.27-5.49.98-7.83 2.55-5.36.73-12.07 2.39-16.57-1.55 4.01-.06 8.11 1.3 12.05.08 2.87-.79 5.87-.33 8.79-.18.1-.38.29-1.14.39-1.52.78-.4 1.57-.79 2.35-1.19.27-.61.54-1.22.81-1.82.94-.25 1.89-.5 2.84-.74l.48-2.98.05-.31c1.27-.01 2.55-.01 3.82-.01.72-2.17 1.16-4.66 2.97-6.24 2.21-1.97 4.71-3.77 5.85-6.62zM70.95 73.23c1.9.17 3.76.59 5.61 1.05l.04.47c-1.27.23-2.54.39-3.81.49-1.16-.28-1.77-.95-1.84-2.01z"/>
    </g>
    <path fill="#310a0b" opacity=".64" d="M64.3 23.55l.28-.1 1.79.12.63-.01-.09 3.99c1.02.34 2.05.68 3.08 1.01-4.28-.64-6.38 3.93-9.15 6.32-.21-3.67 3.73-5.09 5.19-7.9-.43-1.21-1.11-2.32-1.73-3.43z"/>
    <path fill="#380c0d" opacity=".67" d="M31.58 27.61c.59-.02 1.77-.07 2.36-.09-1.18 2.25-3.24 4.6-2.7 7.28 1.91 1.3 4.34 1.09 6.52 1.46 1.43-1.33 2.89-2.62 4.41-3.85-1.96 3.64-5.09 6.78-4.54 11.29-.5.31-1.5.94-2 1.25-1.3-.07-2.6-.1-3.9-.11-.31-.4-.94-1.2-1.25-1.6 2.21.11 4.41.27 6.61.43-.4-.72-1.2-2.17-1.6-2.9l.05-.45c.61-.4 1.81-1.18 2.42-1.58-1.96-1.84-4.68-1.87-7.2-2-.66-1.54-.17-3.23.05-4.8-.66.17-1.97.49-2.63.65 1.27-1.1 2.52-2.25 3.57-3.57l-.16-1.31-.01-.1z"/>
    <path fill="#a52029" d="M33.94 27.52l.6-.95 1.42.4c.18.06.54.17.73.22 2.5.91 4.33 2.87 5.48 5.22-1.52 1.23-2.98 2.52-4.41 3.85-2.18-.37-4.61-.16-6.52-1.46-.54-2.68 1.52-5.03 2.7-7.28z"/>
    <g fill="#c62831">
        <path d="M75.74 26.88c.07.3.2.92.27 1.23.01 1.55.02 3.13-.31 4.66-.71-.14-1.35-.44-1.93-.89.71-1.65 1.33-3.33 1.97-5zM86.75 50.08c2.79-.4 5.62-.28 8.42-.07.49.26 1.47.78 1.96 1.05-.25.51-.76 1.54-1.01 2.06-1.3-.49-2.6-1.02-3.97-1.24-.95.99-.22 2.35-.22 3.52-2.23-.8-4.42-1.81-6.22-3.38.26-.48.78-1.46 1.04-1.94zM70.95 73.23c1.23-1.02 2.42-2.1 3.57-3.21l-.23 1.19c1.08.72 2.15 1.46 3.21 2.21l-.94.86c-1.85-.46-3.71-.88-5.61-1.05zM92.94 77.33c.16-.3.48-.9.65-1.2l1.28 1.76-1.93-.56z"/>
    </g>
    <g fill="#831b1b">
        <path d="M24.19 36.12c1.05-3.73 3.13-7.81 7.4-8.41l.16 1.31c-1.05 1.32-2.3 2.47-3.57 3.57-1.34 1.16-2.64 2.37-3.99 3.53zM64.51 44.5c-.32-2.58 3.6-2.67 5.26-3.96-.92 1.72-2.3 3.1-3.74 4.38 1.77-.04 3.54-.06 5.32-.02-1.02.9-2.04 1.79-3.05 2.69.78.22 1.56.44 2.35.66-.4 1.12-.8 2.23-1.2 3.35.33.17.98.5 1.31.67.35.25 1.06.76 1.42 1.01.96-1.3 2.13-2.42 3.38-3.43-.29 2.79.31 5.61 1.74 8.02 1.33 2.7 4.31 3.78 6.73 5.23-.1.85-.31 2.56-.42 3.41 4.03 2.27 8.04 5.38 9.98 9.62-.17.3-.49.9-.65 1.2-3.11-2.67-5.36-6.31-9.18-8.11-1.89-.66-2.32-2.62-.98-4.11-1.9-2.37-4.78-3.41-7.59-4.27.03-.7.08-2.09.1-2.79-1.5-.81-2.93-1.98-4.74-1.85-.28-.97-.55-1.94-.83-2.91-3.32-.14-5.41-2.65-7.08-5.21-1.79-1.46-.49-6.27 1.87-3.58zM104.97 52.73c-.61-2.04 1.65-2.87 2.8-3.95 1.88 2.14.6 4.52-1.56 5.82-.4-.63-.82-1.25-1.24-1.87zM27 96.07c5.03-.24 9.67-2.21 14.4-3.72l-.08.1c.08-.04.25-.13.33-.18l1.21-.48c.59 1.23.2 2.41-1.16 3.54-4.65.79-9.1 2.46-13.74 3.29L27 96.07z"/>
    </g>
    <path fill="#611515" d="M54.85 32.75c.23-1.25.46-2.51.72-3.75 1.26 1.87 2.78 3.54 4.43 5.07-.17 3.89-3.88-.08-5.15-1.32z"/>
    <g fill="#a72024">
        <path d="M60.84 34.88c2.77-2.39 4.87-6.96 9.15-6.32.28.32.85.96 1.13 1.28 1.45 1.89 2.62 3.97 3.58 6.14-4.13 2.85-8.33 6.18-13.38 7.12-.48-2.74-3.18-5.87-.48-8.22zM85.71 52.02c1.8 1.57 3.99 2.58 6.22 3.38 3.26 1.28 6.7 1.96 10.17 2.38-1.83 2-3.75 4.52-6.67 4.76-3.67.31-8.64 1.51-10.6-2.6-.07-2.67.36-5.31.88-7.92z"/>
    </g>
    <path fill="#5f1516" opacity=".93" d="M26.67 38.36c1.12-.58 2.25-1.13 3.4-1.65-.13 1.19 1.02 5.63-1.22 4.3-.54-.67-1.63-1.99-2.18-2.65z"/>
    <g fill="#9c2029">
        <path d="M30.76 36.74c2.52.13 5.24.16 7.2 2-.61.4-1.81 1.18-2.42 1.58l-.05.45c.4.73 1.2 2.18 1.6 2.9-2.2-.16-4.4-.32-6.61-.43.17-2.17.31-4.33.28-6.5zM24.91 46.28c.08-2.74.63-5.42 1.76-7.92.55.66 1.64 1.98 2.18 2.65-1.4 1.41-2.34 3.16-3.24 4.91l-.7.36zM103.37 56.27c1.18-.2 2.36-.35 3.56-.44.7.09 2.11.28 2.82.38 0 .31-.01.95-.01 1.26-.06 2.96-.06 5.93-.07 8.89-.8 2.03-2.07 3.82-3.37 5.55.92-2.31 2.23-4.5 2.74-6.96.22-2.58-.05-5.16-.08-7.74-2.11-.03-4.21-.05-6.32-.07l.73-.87z"/>
    </g>
    <path fill="#aa2123" d="M70.66 39.89c1.45-1.01 2.89-2.01 4.34-3.01.69 1.22 1.38 2.44 2.06 3.66.51-.52 1.52-1.57 2.03-2.1.55 5.81-3.39 11.72-8.33 13.83-.33-.17-.98-.5-1.31-.67.4-1.12.8-2.23 1.2-3.35-.79-.22-1.57-.44-2.35-.66 1.01-.9 2.03-1.79 3.05-2.69-1.78-.04-3.55-.02-5.32.02 1.44-1.28 2.82-2.66 3.74-4.38l.58-.95c-.28 1.99 3.64 2.92.31.3z"/>
    <path fill="#791819" d="M31.73 44.84c1.3.01 2.6.04 3.9.11 2.61-.26 2.28 3.08 3.11 4.69l4.23-1.62c-.66 1.09-1.32 2.18-1.97 3.28-4.37.19-8.32-2.19-10.47-5.95l1.2-.51z"/>
    <g fill="#aa2324">
        <path d="M79.18 44.68c2.25.94 4.35 2.19 6.31 3.64-.35 4.95-1.78 9.78-1.46 14.78-2.42-1.45-5.4-2.53-6.73-5.23-1.43-2.41-2.03-5.23-1.74-8.02 1.14-1.77 2.4-3.46 3.62-5.17zM79.63 105.69c-.04-1.69-.27-4.09 1.84-4.66l1.76-.06c-1.13 1.63-2.32 3.22-3.6 4.72z"/>
    </g>
    <path fill="#110405" opacity=".57" d="M24.91 46.28l.7-.36c2.25 1.3-1.89 2.68-.7.36z"/>
    <path fill="#0a0202" opacity=".3" d="M87.15 46.27c.73.05 2.2.17 2.94.22l-.77.34c-2.83.53-.32 3.22 1.51 2.36 1.5-.16 3.03.01 4.34.82-2.8-.21-5.63-.33-8.42.07-.27-1.3.01-2.58.4-3.81z"/>
    <path fill="#140405" opacity=".5" d="M29.9 50.83c-1.61-.04-1.38-3.85.29-3.86.1 1.3 0 2.59-.29 3.86z"/>
    <path fill="#852123" opacity=".95" d="M30.19 46.97l.44-.16c1.27 1.56.73 4.13.02 5.84-.19-.45-.57-1.37-.75-1.82.29-1.27.39-2.56.29-3.86z"/>
    <path fill="#6f191d" opacity=".87" d="M90.83 49.19c-1.83.86-4.34-1.83-1.51-2.36.38.59 1.13 1.77 1.51 2.36z"/>
    <path fill="#370c0c" opacity=".75" d="M62.64 48.08c1.67 2.56 3.76 5.07 7.08 5.21.28.97.55 1.94.83 2.91-2.15-.87-4.29-1.77-6.39-2.76-.46-1.8-.97-3.59-1.52-5.36z"/>
    <path fill="#9f2123" opacity=".96" d="M97.13 51.06c2.14.79 4.37 1.46 6.67 1.02.33 1.03.66 2.06 1 3.09-2.95-.37-5.91-.91-8.68-2.05.25-.52.76-1.55 1.01-2.06z"/>
    <path fill="#581110" d="M63.1 52.94l1.06.5c2.1.99 4.24 1.89 6.39 2.76 1.46.73 3.14 1.28 4.23 2.56.21 1.54-.27 2.84-1.43 3.87l.03.22c.77-.54 1.54-1.07 2.32-1.61 2.22.96 4.37 2.1 6.26 3.64-.19.8-.59 2.4-.79 3.2-.98.03-2.95.08-3.94.11.01-.65.05-1.96.06-2.61l-1.32-1.04c-1.46.2-2.75.87-3.82 1.87-.79-1.14-1.56-2.29-2.33-3.43-1.1 1.5-2.03 3.12-.91 4.91l-.34-.23c-1.06-.9-2.28-1.5-3.69-1.11-.12-.49-.37-1.48-.5-1.97l1.4-.16c.55-.08 1.65-.23 2.2-.31.79-.56 1.56-1.14 2.31-1.74 1.25-1.48.98-3.45.28-5.11-2.18-.82-3.95 1.17-5.71 2.14-3.69.13-3.43-4.39-1.76-6.46z"/>
    <g fill="#bd2831">
        <path d="M92.37 52.93c2.86.98 5.86 1.59 8.56 3-1.98.08-3.96.06-5.94.08-.89-1.01-1.77-2.03-2.62-3.08zM72.79 75.24c1.27-.1 2.54-.26 3.81-.49 4.05 1.66 8.04 3.52 11.86 5.68l-.95 1.51c-1.78.29-3.59.41-5.4.4l-.87-.44c-.22-.11-.66-.34-.88-.46-2.89-1.53-5.79-3.37-7.57-6.2z"/>
    </g>
    <path fill="#6b1818" d="M102.1 57.78l.2-.23h3.44c-4.08 6.52-11.56 10.1-19.15 10.08-.68-.78-1.38-1.54-2.11-2.27.1-1.81.23-3.62.35-5.42 1.96 4.11 6.93 2.91 10.6 2.6 2.92-.24 4.84-2.76 6.67-4.76z"/>
    <path fill="#080202" opacity=".4" d="M109.74 57.47c1.4 2.55 2.41 6.76-.07 8.89.01-2.96.01-5.93.07-8.89z"/>
    <path fill="#9e2027" d="M68.71 58.45l.96.06c.15.96.47 2.89.62 3.86-.75.6-1.52 1.18-2.31 1.74-.55.08-1.65.23-2.2.31 1.49-1.76.45-5.12 2.93-5.97z"/>
    <path fill="#bd2829" d="M64.88 66.55c1.41-.39 2.63.21 3.69 1.11-.9 1.47-1.91 2.88-2.91 4.29-1.32 2.49-.36 5.58-.49 8.3l.04.95c-.55-.04-1.65-.12-2.21-.17l-.45-1.17c-.82-2.64-.84-5.42-.33-8.12 3.02.62-.14-2.71 1.48-3.91.29-.32.89-.96 1.18-1.28z"/>
    <path fill="#611619" opacity=".98" d="M74.21 66.77c.37-.32 1.12-.96 1.5-1.27 2.94 1.08-.77 4.39-1.5 1.27z"/>
    <path fill="#6d1919" opacity=".93" d="M72.44 67.29c.92.68 1.83 1.38 2.73 2.09l-.65.64c-1.15 1.11-2.34 2.19-3.57 3.21-2.48-1.12.89-4.32 1.49-5.94z"/>
    <path fill="#521316" d="M87.44 68.06c3.16-1.05 6.25.05 9.14 1.27.59 3.67 1.95 7.14 3.74 10.39 1.99 3.27.22 7.17-.9 10.42-.32-2.7.21-5.48-.39-8.13-1.61-3.86-3.42-7.64-4.53-11.68-2.37-.62-5.35-.18-7.06-2.27z"/>
    <path fill="#811b1d" d="M59.77 79.99c.59-3.41-1.74-8.41 2.64-9.85l-.19 1.6c-.51 2.7-.49 5.48.33 8.12-.69.03-2.08.1-2.78.13z"/>
    <path fill="#170505" opacity=".47" d="M65.17 80.25c.13-2.72-.83-5.81.49-8.3.58 2.76.46 5.64-.49 8.3z"/>
    <path fill="#4d1010" d="M41.84 77.41c3.06-2.34 6.48-4.24 10.33-4.83l-.48 2.98c-.95.24-1.9.49-2.84.74-.27.6-.54 1.21-.81 1.82-.78.4-1.57.79-2.35 1.19-.1.38-.29 1.14-.39 1.52-2.92-.15-5.92-.61-8.79.18-3.94 1.22-8.04-.14-12.05-.08-.23-.11-.69-.34-.92-.45 2.47-.09 4.96.09 7.43-.14 3.86-.22 6.82-3.88 10.87-2.93z"/>
    <path fill="#992224" d="M93.62 78.19c3.93.02 2.19 4.2 2.5 6.73-.08 2.86-.26 5.74-.98 8.52-.51-5.08-.11-10.29-1.52-15.25z"/>
    <path fill="#1e0607" opacity=".49" d="M88.46 80.43l.16-.26c-.09 1.25-.18 2.51-.47 3.74l-.33-1.24c-1.8.43-2.91 1.85-3.65 3.45.06-.73.17-2.18.23-2.9l-2.29-.88c1.81.01 3.62-.11 5.4-.4l.95-1.51z"/>
    <path fill="#681418" d="M44.4 90.36c3.67-5.9 10.35-9.29 17.13-9.93-3.98 3.27-9.46 4.21-12.98 8.08-2.07 1.93-3.25 4.54-4.39 7.07-.33-1.41-.26-2.85-.12-4.27-.3.12-.89.36-1.18.48l-1.21.48-.25.08c-4.73 1.51-9.37 3.48-14.4 3.72l.96 2.55c-3.82-.29-7.21-2.3-10.45-4.17 5.96-.64 11.99-1.27 17.7-3.22 2.94-1.1 6.1-1 9.19-.87z"/>
    <path fill="#b52429" d="M61.53 80.43c.46.54 1.37 1.61 1.82 2.15-.77.49-1.55.95-2.35 1.39-.94.33-1.66.93-2.16 1.8-2.12 1.92-4.43 3.63-6.81 5.21-.95.32-1.69.9-2.22 1.76-1.48 1.59-3.56 2.4-5.65 2.84 1.14-2.53 2.32-5.14 4.39-7.07 3.52-3.87 9-4.81 12.98-8.08z"/>
    <g fill="#3c0d10">
        <path d="M80.36 81.44c.22.12.66.35.88.46-1.7 5-2.31 10.43-5.36 14.87-.58.18-1.75.53-2.33.71-2.27 3.61-6.36 5.1-9.98 6.94-2.2.55-4.5.32-6.74.23 2.59-1.25 5.38-2.24 7.51-4.25 2.67-2.06 4.58-5.17 7.85-6.37.8-4.79 4.43-8.15 6.61-12.28.39-.08 1.17-.23 1.56-.31zM96.12 84.92c.04 3.26.14 6.54.66 9.77-1.11 1.64-2.34 3.19-3.78 4.55.66-1.95 1.54-3.83 2.14-5.8.72-2.78.9-5.66.98-8.52z"/>
    </g>
    <path fill="#b52431" d="M84.17 86.12c.74-1.6 1.85-3.02 3.65-3.45l.33 1.24c-.43.98-.83 1.98-1.21 2.99-.26 4.05.4 8.18-.84 12.14l-2.99-.9.55-.41c.19-.15.58-.44.78-.59-2.96-2.88-1-7.02-.45-10.44l.18-.58z"/>
    <path fill="#100505" opacity=".37" d="M58.84 85.77c.5-.87 1.22-1.47 2.16-1.8.32 1.79-.4 2.39-2.16 1.8z"/>
    <path fill="#6f181a" opacity=".92" d="M80.97 95.07c-.75-3.19.96-6.1 3.02-8.37-.55 3.42-2.51 7.56.45 10.44-.2.15-.59.44-.78.59-1.39-.02-2.75-1.17-2.69-2.66z"/>
    <path fill="#280809" opacity=".42" d="M86.1 99.04c1.24-3.96.58-8.09.84-12.14.51 4.01 1.41 8.47-.84 12.14z"/>
    <path fill="#0f0503" opacity=".39" d="M49.81 92.74c.53-.86 1.27-1.44 2.22-1.76.27 1.8-.47 2.38-2.22 1.76z"/>
    <path opacity=".59" d="M41.4 92.35l.25-.08c-.08.05-.25.14-.33.18l.08-.1z"/>
    <path fill="#731818" d="M80.31 97.44c1.36.81 2.69 1.67 4.07 2.45-.73.29-2.18.85-2.91 1.14-2.11.57-1.88 2.97-1.84 4.66-1.42 4.75-6.48 5.68-10.75 6.24 4.49-3.15 7.6-7.59 10.41-12.2l1.37-.08c-.09-.55-.26-1.66-.35-2.21z"/>
</svg>
