<svg width="128pt" height="128pt" viewBox="0 0 128 128" xmlns="http://www.w3.org/2000/svg">
    <g fill="#fff">
        <path d="M57.11 62.17c8.77-2.61 18.07-.61 26.86-2.82.45 6.63 1.68 13.14 2.94 19.65 1.37 6.93 1.23 14.02.98 21.04-.77 4.13-1.68 9.01-5.37 11.55-1.31 1.28-2.42-.54-2.67-1.71-1.92-6.51-.35-13.34-1-19.98-.82-4.77-1.91-9.73-4.93-13.64 2 5.73 3.66 11.68 3.14 17.82-3.33-4.72-3.96-12.42-10.63-13.8.75-1.56 1.54-3.1 2.35-4.62-2.72 1.73-4.46 4.63-5.6 7.58-3.15 8.52-2.41 18.07-6.56 26.28-4.38-3.85-4.5-10.11-5.13-15.48-.31-5.92-1.22-11.81-3.01-17.47-1.51-4.36-1.48-9.02-2.36-13.52 3.69.85 7.46.4 10.99-.88zM43.12 89.1c.85-5.01 1.74-10.02 3.02-14.94 1.07 5.63 3.35 11.05 3.31 16.86-.02 4.18 2.03 8.9-.74 12.63-.81 1.05-3.22 2.4-3.96.65-2.48-4.58-2.48-10.18-1.63-15.2z"/>
    </g>
</svg>
