<svg width="128pt" height="128pt" viewBox="0 0 128 128" xmlns="http://www.w3.org/2000/svg">
    <g fill="#020000">
        <path opacity=".25" d="M39.09 17.8c1.07-.66 2.31-.85 3.53-1.05-.07 6.11.21 12.27 1.38 18.28.33 1.7 1.53 3.02 2.4 4.46 1.12 3.64 1.99 7.37 3.57 10.85 1.81-.3 3.62-.61 5.43-.92-.34.28-1.01.83-1.35 1.1.18.17.53.49.71.66l.46.44-2.3.4c-4-.57-7.46 2.47-8.46 6.19-.38.05-1.12.17-1.49.22l2.25-2.31c-2.84-3.72-6.38-6.84-9.14-10.61 3.41 2.78 6.15 6.25 9.09 9.5l1.48-1.48c-.75-1.2-1.51-2.41-2.24-3.63-.35-.1-1.06-.29-1.42-.39-.92-5.54-4.3-10.18-5.98-15.47-1.75-4.61-2.6-9.6-5-13.93-.47-.25-1.41-.74-1.89-.99 4.06-1.15 4.29 4.27 5.31 6.86.49-2.17.72-4.58 2.44-6.2-2.58 6.6-.18 13.78 2.12 20.09 1.29 2.98 2.26 6.21 4.37 8.74 1.25-.68.23-2.93.34-4.21 1.38-1.05 2.17-2.66 1.12-4.27-.39.11-1.16.33-1.54.45-1.72-7.72-2.67-15.59-2.73-23.5-.62.18-1.85.54-2.46.72m8.1 33.89c.42-.06 1.25-.19 1.66-.25-.64-2.49-1.37-4.96-2.02-7.45-1.69 2.38-1.02 5.36.36 7.7zM89.96 18.49c1.99 1.43 2.78 3.8 3.78 5.92.73-1.83 1.48-3.67 2.23-5.5.41-.01 1.22-.04 1.62-.06-4.56 8.31-5.75 18.05-10.61 26.26 2.31-6.54 5.18-13.12 5.12-20.19.04-2.33-1.15-4.41-2.14-6.43zM23.19 36.66c3.46 7.62 9.58 13.39 15.97 18.56-6.94-4.46-12.04-11.01-17.35-17.17.34-.35 1.04-1.04 1.38-1.39zM18.81 42.77c1.96 5.32 6.44 8.98 10.91 12.16-4.18-2.26-8.03-5.11-12.27-7.28-.31.14-.94.41-1.26.55-1.55 2.8.32 6.19 2.24 8.35 5.2 5.76 13.37 6.73 20.62 7.74l.28.67c-8.02-.93-15.58-4.11-23.62-4.78.41 1.84.71 3.72 1.41 5.49 1.28 1.94 3.78 2.34 5.89 2.8 5.76.97 11.64.96 17.46.69 0 .16.01.49.02.65-7.37-.08-14.75-.57-22.1.08.18 2 .27 4.66 2.74 5.15 6.31 1.95 12.96-.37 19.2-1.6.29-.31.87-.93 1.15-1.24.81 4.84 3.61 9 6.58 12.78-.36-.27-1.07-.83-1.43-1.1-.8.54-1.6 1.08-2.41 1.61.5-.91 1.07-1.78 1.72-2.59-1.83-2.97-3.54-6.01-4.99-9.17-5.8 1.74-11.93 1.77-17.76 3.27-1.96.5-1.54 2.53-1.64 4.07-1.18-4.14-5.46-7.58-3.52-12.26-1.69-2.46-3.72-5.28-2.41-8.4 1.76-4.27-1.28-8.35-.96-12.68 1.24-1.14 3-.97 4.54-1.01l-.39-3.95zM86.48 61.42c3.6-1.49 7.12-3.17 10.48-5.15-2.92 2.14-6.16 3.8-9.59 4.95.14 2.71.29 5.42.43 8.13 7.65-.12 15.59.42 22.91-2.26-.23 2.44 1.25 5.76-1.16 7.44.34-1.63 1.98-4.11-.65-4.61-7-1-14.13.13-21.18-.18l.54 3.88c4.64.92 9.31 1.67 14.01 2.16l-2.77.24c-3.65-.64-7.3-1.24-10.92-2.01-1.55 2.31-3.09 4.63-4.53 7 1.08-2.52 2.32-4.99 3.11-7.62.79-3.69.2-7.51-.46-11.17-.51.53-1.03 1.07-1.54 1.62.22-1.78.36-3.58-.01-5.34.09.18.26.53.35.71.24.55.73 1.66.98 2.21z"/>
        <path opacity=".25" d="M80.12 80.89c3.22-2.93 4.44-7.19 6.01-11.09-.92 7.32-6.44 12.94-12.48 16.61-3.01 1.72-5.78 3.87-7.92 6.63 1.06-.3 3.18-.9 4.24-1.21-.23.32-.71.96-.94 1.28-.71.18-2.14.53-2.85.71.24 1.35.48 2.7.74 4.05.08.55.25 1.65.33 2.21-.36-.47-1.1-1.39-1.46-1.85-1.19.28-2.39.57-3.57.85-.82 2.23-1.68 4.44-2.55 6.64-3.33.11-6.56-.7-9.81-1.27-.15-1.1-.16-2.2-.03-3.29 1.33-2.49 2.66-4.99 4.17-7.39-1.53 3.45-3.33 6.83-3.9 10.6 1.84-.8 4.51-.77 5.49-2.84 1.18-2.2 2.05-4.54 3.12-6.79-.95 3.27-3.61 6.6-2.55 10.05 1.25.4 2.42-.48 3.33-1.22 1.85-2.98 2.46-6.51 3.37-9.84l-3.2-.48c-1.17-.96-2.34-1.91-3.52-2.85-.74.91-1.47 1.81-2.21 2.71.52-1.11 1.05-2.21 1.59-3.31-1.26-.57-2.51-1.14-3.77-1.69-2.21 4.08-5.37 7.65-6.85 12.11-1.3.08-2.6.1-3.9.05-1.74-1.36-3.33-2.94-5.39-3.83 6.13 1.08 8.81-5.37 12.16-9.16.08-.58.22-1.72.29-2.3.48.12 1.44.36 1.92.47 3.45 3.81 8.35 5.82 12.95 7.85-1.5-1.93-3.1-3.77-4.63-5.67 2.43 2 4.45 4.43 6.16 7.07 3.07-6.77 11.01-8.49 15.66-13.81M48.9 85.68c-2.57 4.66-6.4 8.37-9.63 12.52.96 2.9 5.06 1.41 6.21-.66 1.89-3.33 4.55-6.23 5.91-9.84-.62-.5-1.87-1.51-2.49-2.02z"/>
    </g>
    <path fill="#bb2421" d="M87.14 17.25l2.28.2c.13.26.41.78.54 1.04.99 2.02 2.18 4.1 2.14 6.43.06 7.07-2.81 13.65-5.12 20.19 4.86-8.21 6.05-17.95 10.61-26.26.36.44 1.09 1.32 1.45 1.76 1.03 2.59 2.4 5.49 1.3 8.3-1.58 4.79-4.29 9.11-6.57 13.59-2.41 4.74-6.42 8.33-9.88 12.28-.8-.4-1.61-.78-2.42-1.16l-.76-.26c-1.66-.52-3.38-.79-5.07-1.2-2.2-.89-4.4-2.06-5.89-3.96 3.5.71 6.26 3.26 9.78 3.95 1.32-4.46 2.71-8.91 3.73-13.45.42.74.83 1.48 1.25 2.22 1.65-7.8 2.31-15.72 2.63-23.67m-3.85 27.17c-.81.71-.96 3.22.47 3.13.83-.71.97-3.23-.47-3.13m-1.41 4.59l.24 3.3c2.54-1.05 4.05-3.2 4.34-5.93-1.38 1.21-2.32 4.67-4.58 2.63z"/>
    <g fill="#bd2421">
        <path d="M39.09 17.8c.61-.18 1.84-.54 2.46-.72.06 7.91 1.01 15.78 2.73 23.5.38-.12 1.15-.34 1.54-.45 1.05 1.61.26 3.22-1.12 4.27-.11 1.28.91 3.53-.34 4.21-2.11-2.53-3.08-5.76-4.37-8.74-2.3-6.31-4.7-13.49-2.12-20.09.3-.49.91-1.48 1.22-1.98z"/>
        <path d="M30.12 19.12c.48.25 1.42.74 1.89.99 2.4 4.33 3.25 9.32 5 13.93 1.68 5.29 5.06 9.93 5.98 15.47.36.1 1.07.29 1.42.39.73 1.22 1.49 2.43 2.24 3.63l-1.48 1.48c-2.94-3.25-5.68-6.72-9.09-9.5 2.76 3.77 6.3 6.89 9.14 10.61-2.07-.25-4.13-.52-6.19-.79 1.01.73 2.03 1.45 3.05 2.17-.01.75-.03 2.24-.05 2.98-3.18-1.2-6.33-2.52-9.52-3.72 2.35 2.4 5.41 3.8 8.56 4.82-.13.56-.39 1.69-.53 2.26-.37.11-1.12.34-1.49.45-7.25-1.01-15.42-1.98-20.62-7.74-1.92-2.16-3.79-5.55-2.24-8.35.32-.14.95-.41 1.26-.55 4.24 2.17 8.09 5.02 12.27 7.28-4.47-3.18-8.95-6.84-10.91-12.16-1.04-2.32-.05-4.67 1.04-6.75.49.51 1.47 1.52 1.96 2.03 5.31 6.16 10.41 12.71 17.35 17.17-6.39-5.17-12.51-10.94-15.97-18.56-1.68-2.79-.98-6.3.79-8.86.69 1.06 1.35 2.13 1.99 3.22 2.98 5.3 6.49 10.33 10.6 14.8-2.41-5.75-6.17-10.88-8.06-16.86-1.01-2.92.29-5.91 1.15-8.69l.46-1.15zM18.39 69.89c7.35-.65 14.73-.16 22.1-.08l-.16 3.63c-6.24 1.23-12.89 3.55-19.2 1.6-2.47-.49-2.56-3.15-2.74-5.15zM87.72 69.74c7.05.31 14.18-.82 21.18.18 2.63.5.99 2.98.65 4.61-2.15.75-4.31 1.45-6.47 2.18-.36.01-1.09.05-1.45.07l-2.13-.76 2.77-.24c-4.7-.49-9.37-1.24-14.01-2.16l-.54-3.88z"/>
    </g>
    <path opacity=".07" d="M25.97 31.02c-.26-3.8 1.07-7.92 3.69-10.75-.86 2.78-2.16 5.77-1.15 8.69 1.89 5.98 5.65 11.11 8.06 16.86-4.11-4.47-7.62-9.5-10.6-14.8z"/>
    <path opacity=".08" d="M99.04 20.61c2.23 1.1 2.62 3.79 3.62 5.82 1.28 1.05 2.96 1.63 4.02 2.93.65 1.98.63 4.1.83 6.16 1.03.35 2.07.71 3.1 1.06.59 2.19 1.06 4.57-.47 6.49.19-2.22.69-4.92-1.2-6.59-3.22 2.24-5.36 5.6-7.93 8.49-4.53 5.05-9.65 9.68-15.7 12.85l.19 1.39c-.09-.18-.26-.53-.35-.71-.96-2.11-2.49-3.88-4.44-5.14l.76.26c.81.38 1.62.76 2.42 1.16 3.46-3.95 7.47-7.54 9.88-12.28 2.28-4.48 4.99-8.8 6.57-13.59 1.1-2.81-.27-5.71-1.3-8.3m3.44 10.99C99.5 37.27 95.11 42 91.67 47.37l-.27-.08c-2.17 2.48-4.51 4.79-6.72 7.24.1.35.3 1.03.4 1.38.37.21 1.1.63 1.47.85 3.82-2.05 7.14-4.9 10.17-7.97 3.83-3.15 6.7-7.69 8.93-12.18 1.42-2.47 1.37-5.85-.76-7.9-1.36.37-1.71 1.87-2.41 2.89z"/>
    <g fill="#b52121">
        <path d="M102.48 31.6c.7-1.02 1.05-2.52 2.41-2.89 2.13 2.05 2.18 5.43.76 7.9-2.23 4.49-5.1 9.03-8.93 12.18-1.69-.44-3.38-.92-5.05-1.42 3.44-5.37 7.83-10.1 10.81-15.77zM56.45 51.76c1.79 1.13 3.28 2.64 4.67 4.21-.83.29-2.51.87-3.35 1.16-.46-1.78-.91-3.57-1.32-5.37zM69.97 91.83c.84-1.45 2.1-2.71 3.93-2.12 1.9 3.02 3.11 6.39 4.44 9.69.13 1.62.22 3.24.27 4.86-2.01-.3-3.97-.86-5.57-2.16.15.86.44 2.59.59 3.45-4.19-.31-5.98-4.07-6.71-7.68-.26-1.35-.5-2.7-.74-4.05.71-.18 2.14-.53 2.85-.71.23-.32.71-.96.94-1.28z"/>
    </g>
    <path fill="#ba2421" d="M101.01 44.97c2.57-2.89 4.71-6.25 7.93-8.49 1.89 1.67 1.39 4.37 1.2 6.59-1.41 2.97-3.44 5.56-5.35 8.21 1.83-.97 3.56-2.14 5.35-3.18.66-.33 1.97-1 2.63-1.33 2.39 6.32-3.18 11.35-8.06 14.23 2.71-.34 5.43-.63 8.15-.86-.15 1.68-.31 3.36-.5 5.05-.41.47-1.24 1.43-1.65 1.9-7.32 2.68-15.26 2.14-22.91 2.26-.14-2.71-.29-5.42-.43-8.13 3.43-1.15 6.67-2.81 9.59-4.95-3.36 1.98-6.88 3.66-10.48 5.15-.25-.55-.74-1.66-.98-2.21l-.19-1.39c6.05-3.17 11.17-7.8 15.7-12.85z"/>
    <path fill="#781417" opacity=".86" d="M83.29 44.42c1.44-.1 1.3 2.42.47 3.13-1.43.09-1.28-2.42-.47-3.13z"/>
    <path fill="#c92728" d="M47.19 51.69c-1.38-2.34-2.05-5.32-.36-7.7.65 2.49 1.38 4.96 2.02 7.45-.41.06-1.24.19-1.66.25z"/>
    <path fill="#8f1b1b" opacity=".89" d="M81.88 49.01c2.26 2.04 3.2-1.42 4.58-2.63-.29 2.73-1.8 4.88-4.34 5.93l-.24-3.3z"/>
    <path fill="#010000" opacity=".13" d="M110.14 48.1c1.06-.73 2.12-1.44 3.2-2.14.74 2.5.75 5.1.19 7.63-.88 3.83.78 8-1.17 11.6.19-1.69.35-3.37.5-5.05-2.72.23-5.44.52-8.15.86 4.88-2.88 10.45-7.91 8.06-14.23-.66.33-1.97 1-2.63 1.33z"/>
    <path fill="#c62421" d="M91.4 47.29l.27.08c1.67.5 3.36.98 5.05 1.42-3.03 3.07-6.35 5.92-10.17 7.97-.37-.22-1.1-.64-1.47-.85-.1-.35-.3-1.03-.4-1.38 2.21-2.45 4.55-4.76 6.72-7.24z"/>
    <path fill="#89191a" opacity=".84" d="M55.4 49.42c.61-.13 1.83-.4 2.45-.53-.13 1.27-1.86 2.37-3.09 2.29-.18-.17-.53-.49-.71-.66.34-.27 1.01-.82 1.35-1.1z"/>
    <g fill="#b32121">
        <path d="M62.89 50.78c.37-.17 1.12-.52 1.49-.69.46 1.79.92 3.57 1.36 5.36-.83-.05-2.49-.16-3.32-.21.08-1.5.3-2.98.47-4.46zM66.92 55.98c1.31-1.76 2.83-3.36 4.53-4.75-.4 1.96-.85 3.91-1.3 5.86-.81-.27-2.42-.83-3.23-1.11zM50.89 56.91c1.88.34 3.76.7 5.65 1.06-.41.74-1.23 2.21-1.64 2.95-1.36-1.31-2.7-2.64-4.01-4.01zM48.78 64.41c1.96-.69 3.95-1.3 5.94-1.92-.11.82-.34 2.45-.45 3.27-1.86-.34-3.68-.85-5.49-1.35zM73.7 62.66c1.78.57 3.57 1.14 5.35 1.74-1.77.5-3.53.98-5.3 1.45-.02-.79-.04-2.39-.05-3.19zM50.87 71.89c1.44-1.48 3.67-5.65 4.9-1.5-1.52.83-3.22 1.18-4.9 1.5zM57.34 72.84c.71.28 2.13.83 2.84 1.11-1.26 1.14-2.52 2.29-3.82 3.39.31-1.5.64-3 .98-4.5zM67.78 73.68c.69-.11 2.07-.34 2.76-.45.5 1.5.82 3.05 1.17 4.59-1.33-1.36-2.65-2.74-3.93-4.14zM62.35 74.55h3.29c-.6 1.59-1.18 3.19-1.8 4.77-.51-1.59-1.01-3.18-1.49-4.77zM48.9 85.68c.62.51 1.87 1.52 2.49 2.02-1.36 3.61-4.02 6.51-5.91 9.84-1.15 2.07-5.25 3.56-6.21.66 3.23-4.15 7.06-7.86 9.63-12.52z"/>
    </g>
    <path fill="#c52423" d="M44.46 58.21c1-3.72 4.46-6.76 8.46-6.19-.35 1.9-2.36 2.99-3.19 4.7-4.7 7.47-1.84 18.33 5.81 22.65 7.86 4.7 19.52 2.16 23.7-6.29 4.21-6.74 1.85-15.63-3.6-20.92 1.69.41 3.41.68 5.07 1.2 1.95 1.26 3.48 3.03 4.44 5.14.37 1.76.23 3.56.01 5.34.51-.55 1.03-1.09 1.54-1.62.66 3.66 1.25 7.48.46 11.17-.79 2.63-2.03 5.1-3.11 7.62 1.44-2.37 2.98-4.69 4.53-7 3.62.77 7.27 1.37 10.92 2.01l2.13.76c.36-.02 1.09-.06 1.45-.07l2.14-.15c.98.83 1.96 1.65 2.93 2.48-1.1 1.14-2.09 2.67-3.89 2.53-5.71-.37-11.16-2.21-16.73-3.34 3.77 2.18 7.95 3.52 12.19 4.44 1.66.38 3.32.83 4.96 1.29-1.19 3.61-4.77 4.47-8.19 3.46.98 1.4 3.54 3.09 1.79 4.95-3.7.02-7.24-1.11-10.21-3.32 2.36 1.97 4.57 4.22 5.56 7.21-5.86.63-9.13-4.67-12.02-8.82-1.43-1.83 1.12-3.73 1.65-5.51-2.69 2.32-5.45 4.56-8.2 6.8.66.04 1.96.12 2.61.15.39-.61 1.15-1.84 1.53-2.45 2.77 3.01 5.36 6.18 7.99 9.32.59.95 1.83 1.77 1.53 3.04-1.52.6-3.57.53-4.53-.97-1.94-2.44-3.52-5.14-5.48-7.56 1.79 3.75 3.82 7.41 5.01 11.42-1.5-.03-2.99-.08-4.48-.17-.23-.52-.68-1.58-.9-2.11-1.33-3.3-2.54-6.67-4.44-9.69-1.83-.59-3.09.67-3.93 2.12-1.06.31-3.18.91-4.24 1.21 2.14-2.76 4.91-4.91 7.92-6.63 6.04-3.67 11.56-9.29 12.48-16.61-1.57 3.9-2.79 8.16-6.01 11.09-4.65 5.32-12.59 7.04-15.66 13.81-1.71-2.64-3.73-5.07-6.16-7.07 1.53 1.9 3.13 3.74 4.63 5.67-4.6-2.03-9.5-4.04-12.95-7.85-.48-.11-1.44-.35-1.92-.47-2.97-3.78-5.77-7.94-6.58-12.78.2-.24.59-.73.79-.97 1.72 4.97 4.22 10.07 9.17 12.53-2.53-3.57-5.86-6.73-7.12-11.04-1.72-4.7-.62-9.74.14-14.51m7.86 26.02c-.37 1.5 1.96 3.07 3.32 2.52.36-1.52-1.95-3.02-3.32-2.52m31.23.96c-.34 1.49 1.92 3.02 3.27 2.52.42-1.52-1.9-3.13-3.27-2.52z"/>
    <path fill="#871a17" opacity=".87" d="M39.03 55.33c2.06.27 4.12.54 6.19.79l-2.25 2.31c.37-.05 1.11-.17 1.49-.22-.76 4.77-1.86 9.81-.14 14.51 1.26 4.31 4.59 7.47 7.12 11.04-4.95-2.46-7.45-7.56-9.17-12.53-.2.24-.59.73-.79.97-.28.31-.86.93-1.15 1.24l.16-3.63c-.01-.16-.02-.49-.02-.65-.32-1.42-.68-2.82-1.14-4.2l-.28-.67c.37-.11 1.12-.34 1.49-.45.14-.57.4-1.7.53-2.26-3.15-1.02-6.21-2.42-8.56-4.82 3.19 1.2 6.34 2.52 9.52 3.72.02-.74.04-2.23.05-2.98-1.02-.72-2.04-1.44-3.05-2.17z"/>
    <path fill="#c82526" d="M58.61 57.53c2.65-.77 5.56-1.83 8.25-.54 4.35 1.59 6.68 7.26 4.5 11.4-1.77 3.63-6.31 6.18-10.27 4.59-3.42-1.05-6.08-4.37-5.89-8.02-.31-2.97 1.66-5.3 3.41-7.43z"/>
    <path fill="#520f10" opacity=".66" d="M73.04 57.91c.61-.95 1.53-1.32 2.78-1.09 1.69.36.09 2.37-1.03 2.06-.44-.24-1.32-.73-1.75-.97z"/>
    <path fill="#c62429" d="M74.79 58.88c-.43 3.21-5.19.05-1.75-.97.43.24 1.31.73 1.75.97z"/>
    <path fill="#bd2423" d="M15.71 60.18c8.04.67 15.6 3.85 23.62 4.78.46 1.38.82 2.78 1.14 4.2-5.82.27-11.7.28-17.46-.69-2.11-.46-4.61-.86-5.89-2.8-.7-1.77-1-3.65-1.41-5.49z"/>
    <path fill="#b42324" opacity=".93" d="M72.89 69.15c1.66-.36 2.31.23 1.96 1.79-1.69.38-2.34-.21-1.96-1.79z"/>
    <path fill="#b82321" d="M23.19 77c5.83-1.5 11.96-1.53 17.76-3.27 1.45 3.16 3.16 6.2 4.99 9.17-.65.81-1.22 1.68-1.72 2.59.81-.53 1.61-1.07 2.41-1.61.36.27 1.07.83 1.43 1.1-.07.58-.21 1.72-.29 2.3-3.35 3.79-6.03 10.24-12.16 9.16-1.41-1.6.25-3.14 1.29-4.25-2.21.48-4.56.86-6.73-.06-.71-1.95 1.01-3.26 2.01-4.66-3.1.9-6.22.04-8.11-2.6 1.38-1 2.8-1.95 4.22-2.89-2.25-.27-4.5-.54-6.74-.91.1-1.54-.32-3.57 1.64-4.07m19.03 10.24c.54.49.54.49 0 0z"/>
    <path fill="#721514" opacity=".83" d="M87.53 78.23c5.57 1.13 11.02 2.97 16.73 3.34-1.49.45-2.97 1.09-4.54 1.1-4.24-.92-8.42-2.26-12.19-4.44z"/>
    <path fill="#671312" opacity=".75" d="M75.06 88.73c2.75-2.24 5.51-4.48 8.2-6.8-.53 1.78-3.08 3.68-1.65 5.51 2.89 4.15 6.16 9.45 12.02 8.82-.99-2.99-3.2-5.24-5.56-7.21 2.97 2.21 6.51 3.34 10.21 3.32-1.26.76-2.78.73-4.19.94.02.75.06 2.24.09 2.98-1.48.2-2.97.39-4.45.57.13 1.13.04 2.22-.29 3.28-1.68-.17-3.36-.37-5.03-.61-.17.54-.52 1.61-.69 2.15-1.19-4.01-3.22-7.67-5.01-11.42 1.96 2.42 3.54 5.12 5.48 7.56.96 1.5 3.01 1.57 4.53.97.3-1.27-.94-2.09-1.53-3.04-2.63-3.14-5.22-6.31-7.99-9.32-.38.61-1.14 1.84-1.53 2.45-.65-.03-1.95-.11-2.61-.15z"/>
    <path fill="#791616" opacity=".86" d="M52.32 84.23c1.37-.5 3.68 1 3.32 2.52-1.36.55-3.69-1.02-3.32-2.52z"/>
    <path fill="#851916" opacity=".88" d="M83.55 85.19c1.37-.61 3.69 1 3.27 2.52-1.35.5-3.61-1.03-3.27-2.52z"/>
    <path fill="#410b0b" opacity=".73" d="M42.22 87.24c.54.49.54.49 0 0z"/>
    <path fill="#b52421" d="M44.9 100.22c1.48-4.46 4.64-8.03 6.85-12.11 1.26.55 2.51 1.12 3.77 1.69-.54 1.1-1.07 2.2-1.59 3.31.74-.9 1.47-1.8 2.21-2.71 1.18.94 2.35 1.89 3.52 2.85l3.2.48c-.91 3.33-1.52 6.86-3.37 9.84-.91.74-2.08 1.62-3.33 1.22-1.06-3.45 1.6-6.78 2.55-10.05-1.07 2.25-1.94 4.59-3.12 6.79-.98 2.07-3.65 2.04-5.49 2.84.57-3.77 2.37-7.15 3.9-10.6-1.51 2.4-2.84 4.9-4.17 7.39-1.68.89-3.62.4-5.41.36l.48-1.3z"/>
</svg>
