<svg width="128pt" height="128pt" viewBox="0 0 128 128" xmlns="http://www.w3.org/2000/svg">
    <g fill="#fff">
        <path d="M36.73 23.81c.54-2.7 1.86-6.09 4.88-6.71 0 8.09.85 16.19 2.84 24.04.29-.66.87-1.99 1.15-2.66.36 4.96 2.84 9.4 3.35 14.32.39-.25 1.15-.73 1.53-.97 3.19-.2 5.29-3.17 8.47-3.64-1.32 2.32-4.49 2.54-6.2 4.55-6.37 5.52-7.22 15.97-1.97 22.52 5.4 7.54 17.29 8.64 24.41 2.97 7.33-5.69 8.53-17.68 1.92-24.38-1.87-2.59-5.31-3.23-7.33-5.59 2.43.52 4.6 1.74 6.52 3.27 1.28.17 2.51.55 3.71 1.02.07-3.45 1.88-6.5 2.19-9.91.69 1.63 1.13 3.35 1.37 5.1l.25.06c-.4-1.99-.04-4.23-1.3-5.95.29-.79.86-2.37 1.15-3.17.24.67.73 2 .98 2.66 1.47-8 2.48-16.08 2.58-24.24.5.13 1.5.4 2 .53 3.09 3.72 3.55 8.69 2.17 13.21-1.17 7.1-4.7 13.42-7.17 20.09 2.51-5.64 5.56-11.05 7.68-16.86 1.55-4.95 2.88-10.07 5.02-14.79 2.93 1.07 3.52 4.98 3.85 7.77-1.35 5.55-4.64 10.36-7.15 15.43-2.37 4.87-6.61 8.35-9.89 12.55-.94-.98-1.85-1.96-2.83-2.89.06 1.66 1.3 2.67 2.5 3.61 1.09 1.63.79 3.79 2.11 5.29-.48 4.88.93 10.16-1.67 14.71-1.74 4.46-6.34 6.36-9.33 9.76-3.9 2.62-8.82 4.46-10.26 9.46-1.3-3.26-3.62-6.05-6.88-7.46-5.88-3.74-12.76-8.53-13.56-16.06-.4-3.55-1.01-7.07-1.68-10.58l1.56 3.12c.47-2.55 1.02-5.08 1.6-7.61.97-1.39 2.21-2.61 2.83-4.23-1 .91-1.98 1.84-2.94 2.79-3.58-4.14-7.84-7.85-10.22-12.87-2.45-4.89-5.68-9.52-6.89-14.93.09-2.81 1.07-5.69 2.99-7.78l1.05.26c1.76 4.56 3.23 9.24 4.6 13.94 2.03 5.32 4.5 10.48 7.08 15.56-3.25-8.13-7.32-16.33-7.07-25.31z"/>
        <path d="M22.94 28.72c1.09-.27 2.69-2.11 3.52-.57.12 1.13-.36 2.2-.55 3.29 5.32 8.65 11.71 16.55 18.67 23.93-.44.22-1.32.65-1.75.87-1.14-.38-2.26-.79-3.37-1.25-7.28-4.82-13.39-11.61-16.73-19.74-1.02-2.08.02-4.38.21-6.53zM103.18 27.45c2.75.68 3.44 4 3.38 6.49-2.95 8.71-9.64 15.45-16.83 20.84-1.76 1.31-3.77 2.88-6.02 1.54 2.81-4.31 6.96-7.51 9.97-11.67 3.26-4.34 6.56-8.7 9.2-13.44.76-1.23-1.19-2.9.3-3.76z"/>
        <path d="M18.79 42.07c-.71-2.02.12-4.03 1.02-5.82 6.63 6.71 12.15 14.69 20.31 19.76 1.21 1.19 2.31 2.51 2.11 4.34-4.13-.85-7.58-3.35-11.36-5.05 2.51 3.15 6.14 5.02 9.94 6.15l.2 2.83c-.47-.04-1.42-.11-1.89-.14-6.69-.51-13.82-1.76-19.15-6.15-1.01-1-1.96-2.06-2.85-3.17-1.7-2.24-1.71-5.15-1.35-7.82 5.06 1.89 9.13 5.69 14.03 7.9-4.61-3.24-9.59-7.06-11.01-12.83zM85 58.2c10.02-4.94 16.49-14.26 24.08-22.04 2.96 4.75-.32 10.53-3.97 13.86-3.99 4.28-9.52 6.45-14.13 9.91 6.79-3.97 13.47-8.16 20.18-12.27 2.5-1.88 2.23 1.95 2.07 3.42-1.26 5.79-6.84 9.45-12.2 11-3.99 1.51-8.35 1.4-12.38 2.72 8.32-.08 16-4.09 24.22-4.59-.31 2.62-.22 6.24-3.31 7.19-6.65 2.12-13.77 1.99-20.67 1.83-2.93-1.52-.37-5.45-.99-7.95.9 21.67-6.18 2.36-.53-1.41-.59-.42-1.78-1.25-2.37-1.67m3.31 1.86c.03 3.28 3.09-1.48 0 0z"/>
        <path d="M16 60.23c3.53-.14 6.84 1.01 10.13 2.12 4.37.93 8.72 2.09 13.19 2.49.42 1.46.81 2.93 1.18 4.4-6.84.15-13.81.28-20.46-1.51-1.46-.31-2.34-1.63-3.43-2.53-.2-1.66-.41-3.31-.61-4.97zM18.2 70.68c.71-.28 2.14-.82 2.86-1.09 6.42 0 12.85.02 19.26.32-.07.91-.2 2.74-.27 3.66-4.99.98-10 2.27-15.12 2.3-2.98-.14-7.02-1.5-6.73-5.19zM86.21 70.27c.4.06 1.21.16 1.62.21-.49 3.02-1.63 5.84-2.76 8.66 1.37-1.62 1.98-3.69 2.9-5.57 5.47 2.12 11.46 1.97 17.12 3.26 1.57.43 3.87 2.57 1.57 3.82-6.12 2.88-12.67-.85-18.7-2.32 5.2 2.82 11.32 3.19 16.53 5.98-1.22 2.98-4.65 4.31-7.59 2.91-5.01-.81-8.62-4.62-12.9-6.88-1.59 3.2-4.81 5.41-7.66 7.64 1.92 2.09 3.58 4.38 4.98 6.85 1.18 2.11 2.93 4.23 2.39 6.83-5.19 1.38-6.82-4.27-8.58-7.83-.5-1.58-2.14-3.48-.41-4.86-1.94 1.08-3.92 2.1-5.74 3.39-.79-.42-1.38-1.03-1.76-1.86 7.9-4.8 17.26-10.27 18.99-20.23z"/>
        <path d="M87.93 73.06c.48-1.32.66-3.61 2.63-3.35 5.47.04 10.93-.15 16.4-.18 1.44-.05 4.09.56 3.48 2.57-.78 3.26-4.66 3.65-7.45 3.76-5.08-.45-10.24-1.06-15.06-2.8zM41.89 72.55c.27-.16.82-.48 1.1-.63 1.75 6.4 6.84 11.18 12.28 14.62 3.01 1.76 6.34 3.54 7.72 6.99-2.7-1.07-5.21-2.52-7.61-4.14-1.3 3.77-2.97 7.41-5.06 10.8-1.03 1.71-3.96 2.22-5.36.8.18-3.65 2.88-6.46 4.58-9.51 1.2-1.38 2.06-4.43 4.53-2.98-1.19-.44-2.38-.88-3.59-1.29.01.63.01 1.9.02 2.54-3.48 3.16-4.01 10.19-9.74 10.02-3.09-.93-.11-3.64 1.27-4.65-2.23.76-4.71 2.25-6.98.76-.03-1.11.34-2.05 1.12-2.82 2.83-2.87 6.33-5.01 9.02-8.04-2.95 2.12-5.37 4.88-8.44 6.83-2.31 1.36-5.43 1.08-7.29-.91 1.23-1.29 2.17-3.05 3.98-3.58 3.52-1.36 6.91-3.2 9.53-5.96-3.96 2.83-8.11 5.67-13.09 6.26-2.48.67-4.28-1.38-5.61-3.14 5.15-3.13 11.47-3.37 16.76-6.21-5.56 1.34-11.1 4.37-16.94 3.09-1.42.08-2.7-1.07-2.98-2.4.77-1.51 2.57-2.11 4.08-2.57 5.32-.59 10.64-1.3 15.82-2.71 1.81 4.57 4.34 8.94 7.88 12.39-.61 1-1.41 1.84-2.4 2.5-.49.28-1.47.85-1.96 1.13-.03.49-.08 1.49-.11 1.98-.72.77-1.43 1.55-2.13 2.35 3.1-2.02 4.55-5.73 7.47-8-3.9-3.45-7.64-8.18-7.87-13.52zM84.19 81.13c1.76-.24 2.7 1.59 4.03 2.41 3.29 3.01 8.42 3.09 10.95 7.03-1.2 2.73-4.83 2.5-7.07 1.32-3.01-1.92-5.13-4.96-8.31-6.66 1.18 1.09 2.38 2.16 3.61 3.19l-2.05 1.01c.58-.25 1.74-.77 2.31-1.03 2.17 2.45 5.54 4.13 6.37 7.52-1.66.54-3.43.94-5.08.1-3.41-2.99-6.14-6.59-9.18-9.93 1.74-1.4 3.12-3.15 4.42-4.96zM78.52 89.78c-.85-1.06-.31-2.89 1.18-2.9 2.49 1.7 3.97 4.39 5.75 6.74 1.51 1.43 3.09 2.79 4.25 4.54-.98 2.4-3.85 1.57-5.53.52-2.01-2.88-3.7-5.98-5.65-8.9z"/>
        <path d="M55.87 90.2c1.11 1.03 3.13 1.77 2.96 3.59-1 2.63-2.1 5.23-3.05 7.88-1.12 1.9-3.46 2.06-5.38 2.48.16-5.04 3.7-9.31 5.47-13.95zM69.12 93.41c1.19-1.19 2.57-2.15 3.99-3.03 1.73 4.58 4.73 8.72 5.59 13.58-2.14.01-4.11-.75-5.82-1.98-.21-3.22-1.89-6.05-3.76-8.57z"/>
        <path d="M55.24 105.35c1.24-4.35 1.77-10.55 6.85-12.14 1.08 3.09-1.08 5.82-1.7 8.74-.48 2.38-3.25 2.78-5.15 3.4zM66.24 93.48c3.46-1.42 3.2 3.05 5.42 4.38.28 2.59 1.72 5.05 1.59 7.62-1.69-.92-4.39-1.23-4.82-3.5-.83-2.81-2.2-5.51-2.19-8.5z"/>
    </g>
    <path fill="#333" opacity=".2" d="M17.12 54.82c.89 1.11 1.84 2.17 2.85 3.17-1.31.32-2.62.62-3.93.93.33-1.37.69-2.74 1.08-4.1z"/>
    <path fill="#b9b9b9" opacity=".73" d="M40.81 61.45c-3.8-1.13-7.43-3-9.94-6.15 3.78 1.7 7.23 4.2 11.36 5.05.2-1.83-.9-3.15-2.11-4.34l-.66-1.02c1.11.46 2.23.87 3.37 1.25.43-.22 1.31-.65 1.75-.87l.75-.38-.03 1.39c-.58 2.53-1.13 5.06-1.6 7.61l-1.56-3.12c.67 3.51 1.28 7.03 1.68 10.58l-.83.47c-.28.15-.83.47-1.1.63-.46.25-1.38.76-1.84 1.02.07-.92.2-2.75.27-3.66l.22-.51-.04-.16c-.37-1.47-.76-2.94-1.18-4.4l-.2-.7c.47.03 1.42.1 1.89.14l-.2-2.83z"/>
    <path fill="#acacac" opacity=".67" d="M88.31 60.06c3.09-1.48.03 3.28 0 0z"/>
</svg>
