<svg width="128pt" height="128pt" viewBox="0 0 128 128" xmlns="http://www.w3.org/2000/svg">
    <path fill="#541316" opacity=".97" d="M45.77 15.56c2.54.69 4.34 2.69 6.18 4.44 2.66 2.69 5.48 5.27 7.73 8.34-1.71.54-3.23-.26-4.5-1.34-3.26-3.69-7.46-6.78-9.41-11.44z"/>
    <g fill="#9c2029">
        <path d="M75.68 23.71c2.96-2.28 5.45-5.67 9.23-6.5-7.39 9.7-16.78 17.69-24.7 26.96-4.76 4.84-8.93 10.87-9.41 17.85-.18 2.83 1.2 5.37 2.41 7.82C68.68 56.1 84.16 42.39 99.6 28.62c2.1-2.02 4.26-4.11 7.05-5.14-.89 2.01-2.13 3.84-3.76 5.33-15.16 15.09-29.76 30.73-44.9 45.83 5.65 5.43 14.45 3.45 20.46-.29 7.23-4.91 13.5-11.06 20.11-16.74 4.59-3.94 8.33-9.08 13.85-11.8-1.22 3.3-3.99 5.65-6.45 8.03-.91.43-1.61 1.08-2.09 1.96-6.54 6.79-13.52 13.15-20.42 19.57-6.27 5.13-15 9.35-23.1 6.23-4.43-1.48-7.14-5.47-10.29-8.62-3.16-3.12-4.29-7.77-4.12-12.08 1.04-7.73 5.81-14.42 11.44-19.59 6.25-5.72 12.24-11.7 18.3-17.6zM34.94 92.1c1.06.68 2.18 1.15 3.26.26.33-.08 1.01-.25 1.35-.34-.69 2.27-3.09 3.71-4.57 5.5.06-1.81.02-3.61-.04-5.42z"/>
    </g>
    <path fill="#521018" d="M23.36 21.41c1.68.59 3.29 1.43 4.53 2.74 6.04 5.98 12.15 11.9 18.18 17.89-.58 1.4-1.15 2.81-1.72 4.21-6.08-7.15-12.48-14.01-18.69-21.04-.97-1.13-1.6-2.5-2.3-3.8z"/>
    <g fill="#310d10">
        <path d="M55.18 27c1.27 1.08 2.79 1.88 4.5 1.34l.55-.05c.88 1.03 1.73 2.09 2.78 2.97-.69.74-1.38 1.48-2.06 2.22-1.89-2.19-3.8-4.36-5.77-6.48zM40.34 64.28c1.42 1.18 2.81 2.4 4.19 3.63-.87 1.2-1.75 2.39-2.63 3.58-1.43-1.47-2.82-2.98-4.14-4.55.86-.89 1.72-1.78 2.58-2.66z"/>
    </g>
    <g fill="#421010">
        <path d="M67.46 40.94c.84-.82 1.68-1.64 2.53-2.46 2.05 2.28 4.2 4.48 6.03 6.95-1 .82-1.99 1.65-2.98 2.47-1.73-2.42-3.58-4.76-5.58-6.96zM82.02 83.17c.78-2.07 1.63-4.11 2.58-6.11 1.07 1.59 2.07 3.22 3.03 4.89-1.88.4-3.74.81-5.61 1.22z"/>
    </g>
    <path fill="#370c0b" d="M46.07 42.04l3.3 2.94c-.89 1.29-1.75 2.59-2.62 3.9-.8-.88-1.6-1.76-2.4-2.63.57-1.4 1.14-2.81 1.72-4.21z"/>
    <g fill="#520f13">
        <path d="M16.93 43.11c1.27.63 2.56 1.29 3.6 2.29 6.7 6.19 13.16 12.63 19.81 18.88-.86.88-1.72 1.77-2.58 2.66-4.98-5.26-10.06-10.43-15.08-15.65-2.17-2.52-4.7-4.94-5.75-8.18zM103.79 104.74c1.2-1.59 2.87-2.72 4.36-4.01.86.95 1.59 1.99 2.19 3.11-.16 1.17-.33 2.33-.5 3.5-2.09.52-4.18 1.06-6.27 1.59.06-1.4.12-2.8.22-4.19z"/>
    </g>
    <path fill="#370d0b" d="M57.29 52.97c1.56 1.35 3.07 2.76 4.54 4.21-1.53 1.3-3.07 2.57-4.61 3.85-.82-1.07-1.64-2.15-2.46-3.23.85-1.61 1.69-3.22 2.53-4.83z"/>
    <path fill="#0d0303" opacity=".33" d="M103.87 55.8c.48-.88 1.18-1.53 2.09-1.96.4 1.8-.29 2.45-2.09 1.96z"/>
    <g fill="#4a1010">
        <path d="M77.91 58.26c1.18-1.12 2.35-2.24 3.54-3.35 1.68 3.72 1.46 7.88.83 11.81-2.06 1.01-4.09 2.09-6.12 3.16-.03-.4-.08-1.19-.11-1.58 1.82-3.07 2.07-6.56 1.86-10.04zM75.54 83.38c2.19-1.14 4.33-2.36 6.46-3.61-.82 2.04-1.71 4.05-2.65 6.04-1.27-.81-2.53-1.62-3.81-2.43z"/>
    </g>
    <path fill="#340c0b" d="M70.44 65.85c1.34 1.25 2.65 2.52 3.94 3.83.42-.35 1.25-1.04 1.67-1.38.03.39.08 1.18.11 1.58 2.03-1.07 4.06-2.15 6.12-3.16-2.51 4.66-8.37 5.97-13.04 7.53-1.07-1.2-2.15-2.39-3.23-3.58 1.46-1.62 2.94-3.23 4.43-4.82z"/>
    <path fill="#7a1b20" opacity=".96" d="M45.54 70.69c2.62 2.22 4.93 4.77 7.17 7.37-.41.59-1.23 1.78-1.64 2.37-2.44-2.53-4.85-5.09-7.34-7.57l1.81-2.17z"/>
    <path fill="#190506" opacity=".41" d="M43.73 72.86c2.49 2.48 4.9 5.04 7.34 7.57.66.7 1.3 1.42 1.93 2.15-.87.67-1.73 1.35-2.61 2.01-1.09-.49-2.17-.97-3.26-1.45-1.85-.84-3.7-1.7-5.44-2.75l.18-1.64c3.2 1.42 6.38 2.87 9.58 4.29-2.36-2.54-4.86-4.98-6.9-7.79-.35-.77-.55-1.6-.82-2.39z"/>
    <path fill="#b3262d" d="M44.55 75.25c2.04 2.81 4.54 5.25 6.9 7.79-3.2-1.42-6.38-2.87-9.58-4.29.92-1.15 1.79-2.33 2.68-3.5z"/>
    <path fill="#571011" opacity=".97" d="M52.71 78.06l.12-.17c1.37 1.42 2.7 2.87 4.1 4.26-.83.72-1.64 1.44-2.46 2.16-.37-.43-1.1-1.29-1.47-1.73-.63-.73-1.27-1.45-1.93-2.15.41-.59 1.23-1.78 1.64-2.37z"/>
    <path fill="#2d0a0a" opacity=".61" d="M39.48 81.27c.38-.32 1.12-.98 1.5-1.3l.71.42c1.74 1.05 3.59 1.91 5.44 2.75-.5.04-1.52.12-2.02.17.27.96.53 1.92.79 2.88-.4.75-1.22 2.25-1.62 3l-.06-.85c-.25-2.98-.16-8.4-4.74-7.07z"/>
    <path fill="#b9262f" d="M39.48 81.27c4.58-1.33 4.49 4.09 4.74 7.07-.47.52-1.39 1.56-1.86 2.08-1.03-2.73-1.96-5.5-2.67-8.33l-.21-.82z"/>
    <path fill="#180506" opacity=".35" d="M38.57 83.8c.28-.43.84-1.29 1.12-1.71.71 2.83 1.64 5.6 2.67 8.33l.16.41c-.42-.12-1.26-.35-1.69-.46l-.02.71-.73-1.63c-.64-1.84-1.17-3.73-1.51-5.65z"/>
    <g fill="#b52429">
        <path d="M45.11 83.31c.5-.05 1.52-.13 2.02-.17 1.09.48 2.17.96 3.26 1.45-1.5.71-2.91 1.61-4.2 2.67l-.29-1.07c-.26-.96-.52-1.92-.79-2.88zM23.29 95.37c.79-.51 2.38-1.52 3.17-2.03 1.44 1.79 2.91 3.56 4.23 5.44.65 1.02 1.29 2.06 1.91 3.1-.41.3-1.24.89-1.65 1.19-2.95-2.15-5.25-5.01-7.66-7.7z"/>
    </g>
    <path fill="#5a1418" d="M81.99 83.9c2.1-.25 4.2-.55 6.22-1.23.91.96 1.75 1.98 2.44 3.1-3.33.33-7.82 4.46-10.2.45.38-.58 1.15-1.74 1.54-2.32z"/>
    <path fill="#541216" opacity=".85" d="M36.33 84.95c.56-.29 1.68-.87 2.24-1.15.34 1.92.87 3.81 1.51 5.65-.87-1.48-1.99-2.79-3.23-3.98l-.52-.52z"/>
    <path fill="#bd2831" d="M36.85 85.47c1.24 1.19 2.36 2.5 3.23 3.98l.73 1.63c-.31.23-.95.71-1.26.94-.34.09-1.02.26-1.35.34-1.58-.92-3.1-1.96-4.6-2.99l-.16-1.06c1.15-.94 2.28-1.89 3.41-2.84z"/>
    <path fill="#581310" d="M83.68 89.17c2.68-.75 5.28-1.8 8.04-2.23 1.56 2.3 4.21 3.41 6.04 5.46-1.94.16-3.87.46-5.79.76 1.22-1.16 1.25-2.48.32-3.78-.59.94-1.79 2.84-2.39 3.79.4.43.81.86 1.21 1.29 2.57-.15 5.21-.94 7.75-.25-1.12 2.48-4.42 3.42-6.46 5.22-.82-1.19-1.56-2.42-2.13-3.75-2.36-2-4.41-4.33-6.59-6.51z"/>
    <path fill="#220708" opacity=".5" d="M26.39 93.26c2.41-1.56 4.74-3.25 7.05-4.95l.16 1.06c.09 2.36.05 4.72.12 7.09-.36-2.22-.87-4.41-1.43-6.58-1.31.85-2.61 1.71-3.91 2.57 1.77 2.34 3.56 4.66 5.46 6.9-.78-.14-2.36-.43-3.15-.57-1.32-1.88-2.79-3.65-4.23-5.44l-.07-.08z"/>
    <path fill="#180607" opacity=".41" d="M33.6 89.37c1.5 1.03 3.02 2.07 4.6 2.99-1.08.89-2.2.42-3.26-.26.06 1.81.1 3.61.04 5.42-.59 1.55-1.57 2.92-2.38 4.36-.62-1.04-1.26-2.08-1.91-3.1.79.14 2.37.43 3.15.57l-.12-2.89c-.07-2.37-.03-4.73-.12-7.09z"/>
    <path fill="#050101" opacity=".3" d="M92.29 89.38c.93 1.3.9 2.62-.32 3.78 1.92-.3 3.85-.6 5.79-.76 1.57.27 2.51 1.6 3.51 2.7-2.55 1.94-5.13 3.85-7.71 5.76l-1.16-1.43c2.04-1.8 5.34-2.74 6.46-5.22-2.54-.69-5.18.1-7.75.25-.4-.43-.81-.86-1.21-1.29.6-.95 1.8-2.85 2.39-3.79z"/>
    <path fill="#a52326" d="M28.38 92.45c1.3-.86 2.6-1.72 3.91-2.57.56 2.17 1.07 4.36 1.43 6.58l.12 2.89c-1.9-2.24-3.69-4.56-5.46-6.9z"/>
    <path fill="#7a1a1f" d="M18.46 96.95c.76-.7 1.54-1.4 2.31-2.09.28.31.82.93 1.1 1.24 1.42 1.61 2.89 3.16 4.39 4.69-.54.45-1.62 1.35-2.16 1.79-1.96-1.79-3.84-3.67-5.64-5.63z"/>
    <path fill="#040101" opacity=".28" d="M22.96 95l.33.37c2.41 2.69 4.71 5.55 7.66 7.7l.77.58c-.2.44-.61 1.34-.81 1.79-1.57-1.53-3.12-3.08-4.65-4.65-1.5-1.53-2.97-3.08-4.39-4.69.27-.27.82-.83 1.09-1.1z"/>
    <path fill="#731818" d="M101.27 95.1l.31-.24c.82.59 1.64 1.17 2.47 1.74-2.73 2.73-5.51 5.39-8.25 8.1-.76-1.28-1.5-2.56-2.24-3.84 2.58-1.91 5.16-3.82 7.71-5.76z"/>
    <path fill="#761819" d="M101.43 100.94c1.57-1.59 3.16-3.16 4.76-4.72.71.8 1.43 1.59 2.15 2.38-1.55 1.48-3.11 2.94-4.7 4.37l-.61.01-1.6-2.04z"/>
    <path fill="#73181b" d="M15.81 108.17c.08-3.18.31-6.88 3.23-8.84 1.58 1.63 3.13 3.3 4.62 5.02-2.14 2.14-4.93 3.26-7.85 3.82z"/>
    <path fill="#571316" d="M24.1 102.58c.54-.44 1.62-1.34 2.16-1.79 1.53 1.57 3.08 3.12 4.65 4.65l.8.78c-.54.54-1.62 1.63-2.16 2.18-1.87-1.9-3.74-3.8-5.7-5.61l.25-.21z"/>
    <path fill="#440e0f" d="M94.67 107.54c2.14-2.32 4.44-4.48 6.76-6.6l1.6 2.04.1.63c-1.91 2.08-4.12 3.87-6.11 5.88-.58-.49-1.76-1.46-2.35-1.95z"/>
    <path fill="#551018" d="M23.66 104.35l.27-.21c1.12 1.37 2.22 2.76 3.33 4.14-3.12 3.04-7.63 2.57-11.62 2.54.04-.66.13-1.99.17-2.65 2.92-.56 5.71-1.68 7.85-3.82z"/>
    <path fill="#390c0d" d="M110.34 103.84c.54 2.81.6 5.67.44 8.51-3.96-.18-8.89.34-11.49-3.37 1.47-1.44 2.96-2.87 4.5-4.24-.1 1.39-.16 2.79-.22 4.19 2.09-.53 4.18-1.07 6.27-1.59.17-1.17.34-2.33.5-3.5z"/>
</svg>
