<svg width="128pt" height="128pt" viewBox="0 0 128 128" xmlns="http://www.w3.org/2000/svg">
    <path fill="#731518" d="M50.71 19.36c.56 1.47 1.21 2.9 1.86 4.33 5.28 3.71 9.79 8.98 11.31 15.37-1.88 3.67-4.64 6.92-6.74 10.5-.26-.57-.77-1.7-1.03-2.27 1.4-8.56-7.67-13.67-9.59-21.35.18-2.77 2.51-4.63 4.19-6.58z"/>
    <path fill="#1a0607" opacity=".46" d="M20.31 31.93c.39-.35 1.16-1.04 1.54-1.39.44 3.57.54 7.15.73 10.73-.39-2.01-.63-4.05-.91-6.08-.91 3.18-2.47 6.45-1.71 9.83.76 3.93 2.18 7.7 3.57 11.44 3.35 4.22 8.66 5.92 13.02 8.82.99 1 2.02 1.97 3.19 2.76.42 1.55 1.69 2.83 3.34 2.97-.04-1.76-1.57-3.17-3.34-2.97.06-.28.19-.83.25-1.11l.31-.5c.66.22 1.98.68 2.64.9 1.54-3.82 3.38-7.5 5.36-11.11.73-.68 1.77-.94 2.62-1.43-2.45 4.62-5.8 8.98-6.92 14.16 1.04 2.86 2.84 5.37 4.39 7.97.52-.08 1.57-.25 2.09-.33 1.33.29 2.62.7 3.87 1.24-1.29.08-2.58.16-3.87.25-1.75 1.65-3.7 4.06-6.04 1.8-1.82-1.61-3.54-3.34-5.11-5.19.03-.49.1-1.47.14-1.96 2.72 2.2 5.29 4.58 8.14 6.63-1.84-4.2-5.41-7.22-8.79-10.17-4.64-4.25-11.28-5.65-15.48-10.47-2.22-5.02-4.01-10.33-4.68-15.78.46-4.11 2.1-7.98 3.01-11.99l-1.36.98z"/>
    <g fill="#b52831">
        <path d="M20.31 31.93l1.36-.98c-.91 4.01-2.55 7.88-3.01 11.99.67 5.45 2.46 10.76 4.68 15.78-.88.82-1.75 1.64-2.63 2.47-1.18-2.95-2.4-5.92-3-9.06-.73-4.02-1.31-8.11-.97-12.2 1.15-2.68 2.1-5.47 3.57-8zM40.3 66.43c2.49-3.53 4.68-7.38 8-10.21-1.98 3.61-3.82 7.29-5.36 11.11-.66-.22-1.98-.68-2.64-.9zM64.84 77.82c1.57-1.01 3.38-1.58 5.26-1.56-.03.32-.1.98-.14 1.31l-.08.95c-8.36 4.04-17.2 9.74-26.89 7.88-2.25-.16-2.24-3.2-3.3-4.59 3.49 1.69 7.43 1.58 11.07 2.73.22-.34.66-1.03.88-1.37 4.67-1 9.1-2.91 13.2-5.35z"/>
    </g>
    <g fill="#370b0b">
        <path d="M19.96 45.02c-.76-3.38.8-6.65 1.71-9.83.28 2.03.52 4.07.91 6.08 1.02 5.1 3.28 9.82 5.58 14.43-1.54.25-3.08.5-4.63.76-1.39-3.74-2.81-7.51-3.57-11.44zM50.01 95.48c7.13-.51 13.45-4.11 19.99-6.64l-1.8 1.35c1.33.65 2.76.95 4.24.87-1.71.28-3.4.69-5.08 1.09l.13-1.11c-4.44 2.37-9.21 3.94-13.94 5.58 3.49.49 7.02.91 10.55.68-3.48.61-7.04.35-10.48-.4-.11-.32-.35-.96-.47-1.28-1.05-.07-2.09-.12-3.14-.14z"/>
    </g>
    <path fill="#3b0c10" opacity=".58" d="M17.71 52.13c-1.25-3.89-2.64-8.23-.97-12.2-.34 4.09.24 8.18.97 12.2z"/>
    <path fill="#521013" d="M64.51 39.53c5.7.96 10.9 4.13 14.22 8.88 1.44.28 2.88.56 4.31.84-1.11 1.9-1.76 4.86-4.13 5.45-5.86-.49-11.09-3.89-16.89-4.58-2.47 2.15-.89 6.11.96 8.27-1.95.48-3.9.95-5.84 1.45-1.11-6.67 2.01-13.2 6.1-18.27.33-.13.98-.4 1.3-.53-.01-.38-.03-1.13-.03-1.51z"/>
    <g fill="#7b181b">
        <path d="M50.92 54.79c1.63-2.57 3.44-5.01 5.19-7.5.26.57.77 1.7 1.03 2.27-.92 3.12-3.03 6.12-2.39 9.52.36 1.42 1.4 3.07 3.09 2.84 3-1.26 5.57-3.35 8.34-5.03 1.47 2.93-1.48 6.1.17 8.93 3.97 1.76 8.46 1.52 12.67 2.23.26.97.52 1.94.79 2.92-1.16-.21-2.3-.45-3.45-.66-.49 1.17-.96 2.34-1.43 3.52-8.16.86-16.29 1.92-24.45 2.76-.52.08-1.57.25-2.09.33-1.55-2.6-3.35-5.11-4.39-7.97 1.12-5.18 4.47-9.54 6.92-14.16m15.49 17.58c.43.82 1.29 1.1 2.57.85.56.15 3.82-.35 2.07-1.2-1.49-.32-3.29-.53-4.64.35zM39.74 68.04c1.77-.2 3.3 1.21 3.34 2.97-1.65-.14-2.92-1.42-3.34-2.97z"/>
    </g>
    <g fill="#521018">
        <path d="M23.53 56.46c1.55-.26 3.09-.51 4.63-.76 2.48 2.99 5.86 5.03 8.42 7.92l-.01 1.09-.02.57c-4.36-2.9-9.67-4.6-13.02-8.82zM98.46 74.19c.68-.95 1.34-1.9 1.99-2.87 4.24 1.11 8.9 2.45 11.46 6.34-4.3-1.76-8.72-3.52-13.45-3.47z"/>
    </g>
    <path fill="#d62c39" d="M23.34 58.72c4.2 4.82 10.84 6.22 15.48 10.47 3.38 2.95 6.95 5.97 8.79 10.17-2.85-2.05-5.42-4.43-8.14-6.63-2.41-2.14-5.52-3.15-8.21-4.85.26-1.46-1.59-2.39-2.14-.74-.54-.33-1.61-.99-2.15-1.32-.87-.75-1.86-1.37-2.95-1.73-1.41-.53-2.25-1.91-3.31-2.9.88-.83 1.75-1.65 2.63-2.47z"/>
    <path fill="#380c0f" opacity=".53" d="M24.02 64.09c1.09.36 2.08.98 2.95 1.73-1.03 1.48-3.98-.09-2.95-1.73z"/>
    <g fill="#6b1821">
        <path d="M36.57 64.71c1.45-.97 3.05.92 3.42 2.22-.06.28-.19.83-.25 1.11-1.17-.79-2.2-1.76-3.19-2.76l.02-.57zM65.77 98.32c3.07-.16 6.13-.46 9.18-.91 1.18 2.06 2.39 4.09 3.57 6.15-1.87-.33-3.73-.81-5.44-1.65-2.3-1.48-4.74-2.68-7.31-3.59z"/>
    </g>
    <path fill="#5e1618" opacity=".75" d="M29.12 67.14c.55-1.65 2.4-.72 2.14.74l-.8.34c-.34-.27-1.01-.81-1.34-1.08z"/>
    <path fill="#631418" d="M79.02 68.05c6.71 1.71 13.71 1.26 20.47 2.72-.64.98-1.29 1.96-1.9 2.96-7.54-.49-15.14-1-22.66.1.47-1.18.94-2.35 1.43-3.52 1.15.21 2.29.45 3.45.66-.27-.98-.53-1.95-.79-2.92z"/>
    <path fill="#140405" opacity=".5" d="M66.41 72.37c1.35-.88 3.15-.67 4.64-.35 1.75.85-1.51 1.35-2.07 1.2-1.28.25-2.14-.03-2.57-.85z"/>
    <path fill="#b2252a" d="M39.33 74.69c1.57 1.85 3.29 3.58 5.11 5.19l-3.21-.12c-.69-1-1.35-2.01-2.01-3.02.02-.51.08-1.54.11-2.05z"/>
    <g fill="#e73039">
        <path d="M70.1 76.26c.98-.78 2.43-.95 3.64-.87-.07 1.32-2.52 2.94-3.78 2.18.04-.33.11-.99.14-1.31zM59.68 89.18c8.88-3.5 16.61-9.18 24.39-14.57 3.23-.23 6.46.18 9.67.43-7.43 4.82-15.09 9.29-22.98 13.32l-.76.48c-6.54 2.53-12.86 6.13-19.99 6.64-1.44-1.03-2.79-2.19-4.13-3.34 3.33-.23 6.69-.54 9.89-1.6l-.39 1.13c1.42-.03 2.84.01 4.25-.07.01-.6.04-1.81.05-2.42z"/>
    </g>
    <path fill="#f83339" d="M64.5 82.01c6.19-1.94 10.74-8.17 17.7-7.37-4.64 4.29-10.67 6.71-15.32 10.89-.82-1.16-1.53-2.39-2.38-3.52z"/>
    <path fill="#cb282c" d="M70.51 89.41c8.44-4.4 16.74-9.09 24.67-14.35 3.11.22 6.2.65 9.27 1.18-5.31 5.07-12.11 8.23-18.4 11.91C79 91.74 71.86 95.53 64.1 97.3c-3.53.23-7.06-.19-10.55-.68 4.73-1.64 9.5-3.21 13.94-5.58l-.13 1.11c1.68-.4 3.37-.81 5.08-1.09-1.48.08-2.91-.22-4.24-.87l1.8-1.35.76-.48-.25 1.05z"/>
    <path fill="#ad2429" d="M39.22 76.74c.66 1.01 1.32 2.02 2.01 3.02l3.21.12c2.34 2.26 4.29-.15 6.04-1.8 1.29-.09 2.58-.17 3.87-.25 3.1.04 6.18-.3 9.26-.62-4.15 3.33-9.5 4.9-14.7 5.65-4.02.39-10.56-.7-9.69-6.12z"/>
    <path fill="#b82429" d="M75.48 94.33c10.62-5.04 20.86-10.85 30.55-17.52 2.34.28 5.03 1.19 6.36 3.25-1.33 2.89-4.52 3.9-7.21 5.06-9.95 4.17-19.62 9.73-30.55 10.79l.85-1.58z"/>
    <path fill="#ef3039" d="M63.14 82.51c.8 1.15 1.49 2.37 2.3 3.52-6.72 2.37-13.38 5.76-20.74 5.14-.89-1.44-2.11-2.65-2.92-4.14 7.37 1.57 15.04-.71 21.36-4.52z"/>
    <path fill="#ff3439" d="M57.37 90.37c.28.28.28.28 0 0z"/>
    <path fill="#c62c39" d="M73.12 95.09c2.85-1.73.39 3.18 0 0z"/>
    <path fill="#471010" d="M73.08 101.91c1.71.84 3.57 1.32 5.44 1.65l.19.04c1.83.84 3.64 1.71 5.43 2.62-1.84.78-3.77 1.95-5.86 1.44-2.54-1.01-3.82-3.57-5.2-5.75z"/>
</svg>
