<svg width="128pt" height="128pt" viewBox="0 0 128 128" xmlns="http://www.w3.org/2000/svg">
    <g fill="#fff">
        <path d="M17.23 39.1c1.32-2.95 1.91-6.64 4.88-8.47-1.39 4.08-2.56 8.22-3.63 12.39 1.48 5.4 2.36 11.19 5.39 16.01 3.91 4.46 10.15 5.74 14.54 9.62 3.33 2.77 6.45 5.81 9.09 9.25l-.45 1.22c-2.67-1.58-4.7-4.09-7.17-5.96-5.05-4.82-12.57-5.68-17.68-10.38-2.83-3.48-3.76-8.05-4.79-12.31-.63-3.74-1.96-7.74-.18-11.37z"/>
        <path d="M40.65 66.58c2.04-4.05 4.81-7.89 8.28-10.83-.19.74-.56 2.21-.74 2.95l-.76-.72c-1.62 3.29-3.4 6.51-4.61 9.99-.54-.34-1.63-1.04-2.17-1.39zM38.93 74.71c2.58 2.09 4.98 4.39 7.59 6.45 2.05-1.3 3.64-3.96 6.42-3.37 4.03.6 8.03-.2 11.97-1-4.59 2.46-9.39 5.46-14.8 5.3 1.12.5 2.33 1.47 3.61.75 4.42-1.31 8.58-3.36 12.57-5.65 2.54-1.45 5.67-.99 8.35-2.1-5.7 4.21-12.19 7.34-18.82 9.8-4.57 1.62-9.66 2.69-14.34.86-.42-.99-1.28-2.98-1.71-3.97 3.16 1.57 6.63 2.16 10.11 2.4l.04-1.47c-2.59.44-5.17-.02-7.65-.79-3.17-1.04-3.12-4.45-3.34-7.21z"/>
        <path d="M76.49 75.15c1.9-.18 3.8-.35 5.7-.6-4.13 3.59-8.87 6.36-13.51 9.22-7.29 3.92-15.26 7.95-23.78 7.18-1.42-1.03-2.09-2.82-3.26-4.08 9.38 2.6 18.56-2.45 26.68-6.62 2.81-1.56 5.63-3.12 8.17-5.1z"/>
        <path d="M81.5 76.39c3.25-2.97 8.16-1.71 12.04-.92-5.27 2.58-10.03 6.05-15.23 8.77-8.04 4.34-16.2 8.94-25.18 10.98-2.93 1.09-5.3-1.59-7.46-3.15 5.25.34 10.3-1.33 15.1-3.27 7.39-3.27 14.26-7.59 20.73-12.41z"/>
        <path d="M95.38 74.99c3.22.4 6.4 1 9.63 1.33-3.66 2.64-7.49 5.05-11.31 7.45-2.37 1.27-4.7 2.61-7 4-5.24 3-11 4.97-16.21 7.96-1.89-3.99 6.8-.34 3.65.24-1.83.48-3.74.7-5.53-.06-4.96 2.32-10.62 1.45-15.86.88 13.1-4.25 25.19-10.93 36.92-18.04 1.9-1.25 3.84-2.46 5.71-3.76z"/>
        <path d="M105.59 77c2.45-.23 4.48 1.32 6.6 2.27-.18 2.71-2.89 3.98-5.06 4.93-9.82 4.03-19.24 9.38-29.78 11.36-.85-.46-1.7-.93-2.54-1.4 1.97-.15 3.61-1.3 5.37-2.07 8.85-4.33 17.46-9.25 25.41-15.09z"/>
    </g>
</svg>
