<svg width="128pt" height="128pt" viewBox="0 0 128 128" xmlns="http://www.w3.org/2000/svg">
    <g fill="#fff">
        <path d="M26.16 31.28c3.73-4.74 10.25-5.54 15.87-5.79 13.15-.26 27.32 3.52 36.44 13.51 8.77.32 17.95-1.52 26.44 1.17 1.79 3.53 3.35 7.5 3.16 11.53-5.34 4.57-11.2 8.51-16.76 12.8 1.68 10.03-.79 21.26-8.4 28.39-11.16 11.74-32.51 13.4-43.79.98-5.55-5.46-9.67-12.95-9.17-20.93-2.12-.59-4.27-1.58-5.26-3.68-1.55-1.99.46-4.66-.9-6.73-1.28-1.89-2.77-3.63-4.19-5.42 4.63-.61 9.42.25 13.11 3.24 4.41-4.49 10.93-3.4 16.38-1.9-4.46 2.41-7.4 6.67-9.45 11.19-1.04 2.35-3.71 2.64-5.94 2.1-.21 5.43 3.9 9.88 8.66 11.86 6.75 3.02 15.44 3 21.33-1.87 4.8-4.45 4.42-11.68 3.17-17.56-3.28 3.06-6.51 6.61-11.03 7.74-1.37.52-2.63-.55-3.86-.97-1.5-6.4 1.98-13.1 6.25-17.72-3.87-1.64-7.9-3.38-12.18-3.24-5.36.1-10.73-.14-16.08.12-1.27.94-2.02 2.77-3.82 2.74-.78-2.83 2.62-4.24 3.87-6.32 2.2 3.43 6.16.61 7.86-1.86l-4.46-.8 1.68 1.47c-1.45-.1-2.88-.02-4.31.24l1.69-1.73c-1.06-.05-2.13-.06-3.19-.03-.18.98-.52 2.93-.69 3.91-.22-1.01-.67-3.03-.89-4.04-.59-.03-1.78-.1-2.37-.14.19-4.04-1.34-8.56.83-12.26m.49 3.17c3.74 1.08 6.77-1.25 10.2-2.15 7.64-1.2 15.54.2 22.61 3.22 1.44.4 2.01 1.8 2.14 3.17-1.14 3.93-3.78 7.15-6.01 10.5 1.66.82 3.3 1.66 4.91 2.55.44-.27 1.3-.83 1.73-1.11-1.07-.92-2.16-1.81-3.17-2.8 3.17-3.65 4.33-8.56 7.56-12.13 4.1 2.72 7.96 5.81 11.13 9.59 7.24 9.3 9.62 21.73 7.76 33.22-.85 4.36-2.95 8.75-6.93 11.04-2.39 1.4-5.66.04-6.51-2.57-.56-2.43-.11-4.95.79-7.23 2.73-6.98.6-14.71-2.32-21.27-.59 1.21-1.23 2.4-1.7 3.67 1.47 5.57 2.47 11.87-.29 17.21-3 5.2-8.73 8.5-14.67 8.99-7.14.89-13.9-2.51-19.53-6.56 2.53 6.72 7.16 13 13.97 15.79 9.13 3.75 19.87 2.03 28.23-2.87 6.69-3.77 10.34-11.25 11.71-18.55 2.3-10-1.19-20.34-6.46-28.81-7.9-12.37-22.45-19.3-36.91-19.54-6.48-.32-14.63.4-18.24 6.64m5.42 3.66c2.98 2.89 7.09 4.04 11.13 4.33-1.57-1.44-3.15-2.88-4.66-4.38 2.98-1.18 6.18-1.59 9.3-2.26-2.76.94-5.13 3.11-3.95 6.16 2.6 1.66 5.96.02 5.17-3.32-.56-.49-1.67-1.48-2.23-1.97 3.2.69 4.54 3.84 6.16 6.3-1.43.4-2.87.75-4.32 1.1.15.82.46 2.47.61 3.29.82.22 1.63.44 2.44.66 1.47-2.73 3.7-5.12 4.56-8.13.6-3.65-3.59-4.13-6.18-4.63-5.97-.76-13.55-2.34-18.03 2.85m29.52 9.14c3.15-1.17 6.55-1.1 9.57.42-2.05-2.79-3.96-5.78-4.6-9.24-1.35 3.1-2.86 6.16-4.97 8.82m7.64-7.45c1.61 3.96 3.62 7.76 6.27 11.14-3.52-1.08-7.22-1.94-10.91-1.33 1.22 1.07 2.46 2.11 3.69 3.18 3.71-1.14 7.25.32 10.77 1.32-.05-.41-.17-1.21-.22-1.61-3.22-4.27-4.57-10.08-9.6-12.7m12.75 1.19c2.92 3.71 6.35 7.47 11.23 8.34-2.62 3.55-2.44 8.02-2.07 12.19 4.96-3.48 10.11-6.77 14.83-10.57.89-3.23-1.25-6.13-2.38-9-7.1-1.33-14.41-1.48-21.61-.96m-42.61 3.24c-1.25 1.94 3.48 2.33 2.33.19-.58-.05-1.75-.15-2.33-.19m4.85-.73l.49 1.64c-1.78.37-3.04 1.72-4.28 2.94.87-.02 2.62-.07 3.49-.1l.1-2.54c.4.7 1.22 2.1 1.62 2.8 2.38-1.75.56-3.64-1.42-4.74m-5.38 4.36l.48-.67c-.31-.28-.94-.86-1.25-1.15-2.53.05-1.16 3.2.77 1.82m41.49 8.73c-2.69.65-5.54 3.5-7.99.78 1.82 3.37 2.72 7.21 4.88 10.38 1.68 2.34 4.64 2.57 7.27 2.46-.65-5.89-1.66-11.79-3.61-17.4-.17 1.26-.35 2.52-.55 3.78m-21.4-.22c1.31 1.31 2.81 2.5 3.66 4.19-.59 1.22-1.76 1.95-2.74 2.82-1.2-1.2-2.39-2.4-3.57-3.62-.72 2.24-1.67 4.51-1.26 6.93 1.63 2.14 4.24.35 5.83-.86 2.81-1.87 4.74-4.69 6.38-7.57-1.62-1.44-3.27-2.85-4.84-4.34-1.14.83-2.29 1.65-3.46 2.45M24.07 59.4c1.1 2.17 2.63 4.2 3 6.66.34 1.32.18 2.97 1.6 3.67 1.67-.35 3.75-1.68 3.04-3.67-.69-3.75-4.51-5.37-7.64-6.66m10.87 3.7c0 1.2 0 2.39.01 3.59.62.39 1.86 1.18 2.48 1.58 1.95-3.11 3.7-6.39 6.55-8.8-3.33.2-6.99.65-9.04 3.63m41.51 9.6c-.63 3.8-1.71 7.51-2.89 11.17l.8 3.13c1.11.26 2.25 1.59 3.39.74 5.1-2.42 6.24-8.76 6.61-13.83-2.62-.5-5.26-.91-7.91-1.21z"/>
        <path d="M95.98 50.92c-1.59-2.9-.52-6.88 3.06-7.47 3.82-.25 5.82 4.1 3.94 7.15-.63.39-1.9 1.17-2.53 1.56-1.55-.18-3.03-.66-4.47-1.24m.67-2.98c1.09 1.28 3.27 3.32 4.51 1.09 1.34-1.54-.53-2.75-1.43-3.9-1.05.92-2.07 1.86-3.08 2.81zM39.58 87.94c6.02 3.83 13.44 4.62 20.26 2.75 1.29 1.88 1.91 4.09 1.28 6.33-8.28 1.68-16.36-2.9-21.54-9.08z"/>
    </g>
    <path fill="#121212" opacity=".07" d="M39.37 44.23c.58.04 1.75.14 2.33.19 1.15 2.14-3.58 1.75-2.33-.19z"/>
</svg>
