<svg width="128pt" height="128pt" viewBox="0 0 128 128" xmlns="http://www.w3.org/2000/svg">
    <path fill="#1c0606" opacity=".47" d="M31.84 23.61c4.16-1.77 8.84-1.65 13.26-1.41 4.69.55 9.54.69 13.96 2.5-8.95-1.61-18.2-3.18-27.22-1.09z"/>
    <path fill="#791a1d" opacity=".98" d="M31.84 23.61c9.02-2.09 18.27-.52 27.22 1.09 2.77.52 5.46 1.37 8.13 2.24.2 1.14.4 2.28.6 3.41-10.23-4.97-21.9-5.8-33.06-4.53-1.59.33-3.6.43-4.32 2.16l-.13.19h.53l.7.24.28.76c-.22.26-.66.79-.88 1.05-.45-.44-1.34-1.32-1.79-1.76l-.7-.66c-1.97 1.26-3.14 3.28-4.19 5.31-.19-.31-.56-.91-.75-1.21.86-4.18 4.57-6.91 8.36-8.29z"/>
    <path fill="#ad2423" d="M31.98 27.71c2.79-2.27 6.68-1.61 10.03-1.97 11.42-.65 23.04 2.45 32.34 9.17.11.09.34.27.46.36 1.21 1.15 2.41 2.31 3.62 3.47 8.04.68 16.14-.37 24.15.56l-.2 1.91c-6.79.29-13.62-1.64-20.35-.21 2.79 3.75 6.28 7.21 10.98 8.32-2.17 3.59-2.25 7.8-1.72 11.85 3.53-2.11 6.88-4.49 10.24-6.85.09-.04.25-.14.34-.19 2.1-1.02 4.21-2.28 5-4.65-1.23.37-2.43.77-3.64 1.16 1-2.1 1.42-4.39 1.8-6.67l-1.23-1.31c-.08-.15-.24-.44-.31-.59-.18-.66-.52-1.98-.69-2.64.73.44 2.19 1.31 2.92 1.75.06.23.19.68.25.91.12.45.34 1.35.45 1.81.12.22.36.67.47.89.68 2.23 1.49 4.57 1.01 6.92-5.08 4.78-11.14 8.4-16.58 12.77.98 7.97.23 16.56-4.3 23.41-2.2 3.39-5.21 6.12-8.15 8.85-.11.06-.31.18-.41.25-3.83 1.82-7.81 3.29-11.8 4.7-.07.08-.2.26-.27.34-5.6-.16-11.27.18-16.78-1.09-.13-.11-.37-.32-.49-.43-1.43-1.4-3.36-2.08-5.28-2.46l-.35-.39-.41-.25c-2.9-2.26-5.37-5.01-7.86-7.7-.09-.13-.27-.41-.36-.54l-1.12-2.56c-.2-.23-.62-.7-.83-.94l-.22-.46c-.2-.4-.6-1.21-.79-1.61l-.2-.47c-.17-.39-.5-1.18-.67-1.58-.71-2.85-1.14-5.76-1.45-8.67-2.16-.87-4.07-2.21-5.39-4.15-.07-.11-.21-.34-.28-.45.43-1.88.94-3.77.76-5.71l.78.46.76.49.13.17c.17.27.53.8.7 1.06-.05 1.48-.1 2.95-.16 4.42 2.1 1.73 5.89-.39 5.05-3.06-.13-.59-.37-1.76-.49-2.34l3.02.03c.43 1.88 1.11 3.87 3.25 4.29l2.65.2c-.66 1.3-1.58 2.45-2.64 3.45-.22.05-.67.16-.9.21-.9-.12-1.8-.27-2.71-.43-.12 3.13.52 6.33 2.97 8.49 5.83 5.33 14.83 7.39 22.25 4.35.11-.05.33-.14.44-.19 3.63-1.47 6.32-4.6 7.5-8.3l.12-.36c.92-2.88.86-5.95-.04-8.82l-.4-1.73c-.03-.19-.11-.56-.15-.75-2.02 1.89-4.04 3.78-6.15 5.56-.14.07-.41.22-.54.29-1.25.2-2.36.68-3.34 1.45l-.59-.84c.02-.59.07-1.76.09-2.35 4.33-1.68 7.81-4.73 10.5-8.47l.83-.93c.26-1.95.34-3.92.36-5.89 2.87-.06 5.74-.04 8.61 0-.37-1.4-.75-2.8-1.08-4.21.21-.18.61-.53.81-.71.48-.38 1.43-1.15 1.91-1.54 1.73 2.25 2.8 6.05 6.39 5.35-5.17-10.81-15.36-19.5-27.12-22.23-.13-.08-.41-.22-.55-.3-.7-.13-2.1-.4-2.8-.54-.25-.03-.76-.11-1.01-.15-3.36-.58-6.74-1.09-10.13-1.39-3.81.07-7.42 1.5-11.2 1.86l-.28-.76.47-.7m72.94 18.61c-.85 1.24-.62 1.99.7 2.25.84-1.25.61-2-.7-2.25M77.2 50.27c.56.56.56.56 0 0m.02 3.58c1.39.36 1.95-.16 1.67-1.56-1.38-.34-1.93.18-1.67 1.56m5.09-1.62c.55.55.55.55 0 0m1.87.02c.57.53.57.53 0 0m-6.92 5.29l-.43-.02.03.5c-.46.13-1.37.4-1.83.53l-.97-.83-.98.39c1.38 3.87 2.32 8.37 5.74 11.01 1.79 1.46 4.18 1.31 6.19.46l-.2-2.6-.75.48c.12-4.82-1.62-9.42-2.49-14.11-1.03 1.81-1.91 3.95-4.31 4.19m5.26-4.44c1.82 5.79 3.59 11.73 3.48 17.86.02 3.28-.28 6.96 1.96 9.66-.55-8.13-.92-16.31-2.94-24.26 3.49 5.84 2.56 12.77 2.97 19.24l1.01.05c.52-7.63-.37-15.28-3.43-22.34-.2.54-.58 1.62-.78 2.17-.19-.43-.56-1.3-.75-1.73l-1.52-.65m-13.53 7.54c.59 4.44 1.45 8.89 1.06 13.39-.24 4.63-3.26 8.7-7.02 11.2-6.57 4.3-15.22 3.68-22.21.75-.1-.07-.28-.2-.37-.26-1.94-1.52-3.95-2.98-6.23-3.93 1 2.14 1.55 4.62 3.14 6.4.14.08.44.24.59.32 1.5 3.38 4.48 6.38 7.91 7.85.39.46.81.92 1.25 1.34 4.82 1.44 9.83 3.2 14.92 2.26 3.94-.76 7.99-1.54 11.48-3.62l.15-.15c3.34-1.06 6.27-3.23 8.59-5.82 2.15-2.3 2.98-5.46 4.95-7.89-.34-1.84-1.05-3.58-1.86-5.27-.29 2.21-.77 4.4-1.54 6.5-1.22 1.69-2.52 3.32-3.96 4.84l.81.48c-3.03 1.1-6.61 1.82-8.71-1.39-.09-.19-.26-.56-.35-.74.89-1.32.96-3.38.1-4.73l.74-.48.01-.08c2.8-7.38 1.66-15.59-1.64-22.59-.61.54-1.21 1.08-1.81 1.62m7.66 11.44c-1.22 3.97-2.2 8.01-2.98 12.09.09.15.26.47.35.62-.01 1.7 1.2 3.3 3.02 3.22 3.34-.75 4.93-4.19 6.11-7.06.07-.1.19-.29.25-.39.49-2.12.92-4.26 1.41-6.38-2.01-1.85-4.83-1.09-7.28-1.15-.3-.31-.59-.63-.88-.95z"/>
    <path fill="#731821" d="M67.19 26.94c5.18 1.87 10.13 4.54 13.86 8.65 8.97-.15 18.65-1.66 27.05 2.21 3.05 3.13 3.78 8.01 4.11 12.23.44 1.77-1.25 2.77-2.33 3.75-4.93 3.84-9.58 8.03-14.65 11.68.97 8.24-.12 17.03-4.83 24.04-5.05 7.94-13.78 12.77-22.69 15.11-8.7 2.29-18.44.66-25.71-4.7-8.24-5.71-13.21-15.32-14.43-25.14-3.78-.97-5.96-4.42-5.86-8.23.55.43 1.65 1.3 2.2 1.74.07.11.21.34.28.45.92 2.18 2.78 3.65 4.97 4.46.37 2.46.62 4.96 1.44 7.32l.43 1.04c.17.4.5 1.19.67 1.58l-.42.02.13.39.49.06c.19.4.59 1.21.79 1.61l-.43.03.15.39.5.04c.21.24.63.71.83.94-1.82.68-.2 2.59 1.12 2.56.09.13.27.41.36.54 1.91 3.16 4.51 6.06 7.86 7.7l.41.25.35.39c.48 2.26 3.24 3.37 5.28 2.46.12.11.36.32.49.43l.91.79c4.72 2.3 10.16.84 15.19 1.3l.68-1c.07-.08.2-.26.27-.34 4.36.77 8.99-1.4 11.8-4.7.1-.07.3-.19.41-.25 7.09-4.54 11.92-12.38 12.83-20.75.67-3.65.16-7.34.12-11.01 4.77-4.4 10.45-7.71 15.44-11.86 2.52-1.69.97-5.19.09-7.45l-.46-.88c-.11-.22-.35-.67-.47-.89 1.25-.78 1.1-1.38-.45-1.81-.06-.23-.19-.68-.25-.91l-.36-1.24c-7.49-2.76-15.62-.8-23.39-1.4-2.88.35-4.99-1.77-7.16-3.27-.12-.09-.35-.27-.46-.36-1.98-1.8-4.18-3.33-6.56-4.56-.2-1.13-.4-2.27-.6-3.41z"/>
    <path fill="#48150e" opacity=".89" d="M24.23 33.11c1.05-2.03 2.22-4.05 4.19-5.31l.7.66c-5.82 4.36-4.15 12.69-.56 17.93.3-1.2.6-2.4.91-3.6.62.33 1.23.66 1.85 1-.07.69-.22 2.07-.29 2.76-2.17 1.56-3.91 3.62-5.37 5.84 1.37-.66 2.68-1.43 3.94-2.27 7.25.02 14.58-.7 21.77.43-8.25 2.06-17.28-1.38-25.02 2.8-2.68.98-5.59.87-8.38 1.3 1.48-.75 3.12-.95 4.77-.87 1.24-1.08 1.88-2.65 1.63-4.3l.06.01c.38.04 1.14.11 1.52.15 2.79-1.73 1.54-4.73-.74-6.24-.06-.61-.19-1.84-.25-2.45l-.84-.03c-.08 1.99-.18 3.98-.2 5.98-.32-4.99-.99-10.01-.44-15 .19.3.56.9.75 1.21z"/>
    <path fill="#d62c31" d="M30.41 27.98l.4.19h-.53l.13-.19z"/>
    <path fill="#6e1916" d="M33.25 29.42c6.47-2.25 13.23-1.44 19.87-.72.25.04.76.12 1.01.15.1 1.45 2.42 2.25 2.8.54.14.08.42.22.55.3l1.14.74c3.17 2.09 7 3.05 9.86 5.65-1.26 0-2.51-.02-3.76-.08-1.16-.37-2.32-.74-3.48-1.12-1.55-.44-3.17-.52-4.77-.62l-.11-.05c-6.45-3.27-14.88-4.83-21.68-1.73l-.92.81c-.14.06-.43.19-.57.26-1.83.46-3.72.69-5.58.96.9-2.65 3.23-4 5.92-3.98l-.28-1.11z"/>
    <g fill="#b82426">
        <path d="M28.56 46.39c-3.59-5.24-5.26-13.57.56-17.93.45.44 1.34 1.32 1.79 1.76-1.73 1.08-3.04 2.62-4.04 4.37 2.17.13 4.41.17 6.32-1.04.14-.07.43-.2.57-.26 7.46-2.48 15.18-.57 22.6.92l.11.05c1.43.79 2.87 1.58 4.27 2.42-.29.76-.86 2.27-1.15 3.02l-2.78-.08c-1.04-3.42-4.61-4.19-7.71-4.74-.66-.14-1.99-.4-2.65-.53-5.03-.77-10.86-.14-14.46 3.86 2.2 1.6 4.57 2.94 7.16 3.79-.03.53-.09 1.59-.11 2.11-.89.72-1.81 1.39-2.75 2.04.31-.58.92-1.73 1.23-2.31-1.57.25-3.13.53-4.71.73-.37-.19-1.11-.58-1.49-.78-.62-.34-1.23-.67-1.85-1-.31 1.2-.61 2.4-.91 3.6zM98.34 47.14c.84-1.41 3.3 0 2.17 1.36-.88 1.3-3.34.05-2.17-1.36z"/>
    </g>
    <path fill="#2e0b08" opacity=".66" d="M54.13 28.85c.7.14 2.1.41 2.8.54-.38 1.71-2.7.91-2.8-.54z"/>
    <path fill="#441010" opacity=".75" d="M57.48 29.69c11.76 2.73 21.95 11.42 27.12 22.23-3.59.7-4.66-3.1-6.39-5.35-2.67-4.19-6.69-7.21-10.75-9.95-.13 1.34-.28 2.68-.37 4.02l-2.29 1.57c.82-1.91 1.47-3.89 2-5.91-3.42 3.11-4.4 7.93-7.38 11.42.92.87 1.84 1.75 2.76 2.62-.38.46-1.13 1.38-1.5 1.84-1.68-.89-3.36-1.79-5.05-2.67 1.57-4.34 6.43-7.83 5.11-12.83-1.4-.84-2.84-1.63-4.27-2.42 1.6.1 3.22.18 4.77.62.41 1.92.79 3.84 1.17 5.77L64.72 36c1.25.06 2.5.08 3.76.08-2.86-2.6-6.69-3.56-9.86-5.65l-1.14-.74z"/>
    <path fill="#330c0b" opacity=".73" d="M34.68 32.48c6.8-3.1 15.23-1.54 21.68 1.73-7.42-1.49-15.14-3.4-22.6-.92l.92-.81z"/>
    <g fill="#7b1819">
        <path d="M46.45 34.35c.66.13 1.99.39 2.65.53-2.83 3.12-7.5.91-11 2.85.79 1.31 1.56 2.62 2.32 3.95-2.96-.5-5.61-1.9-8.03-3.61 3.88-3.38 9.14-3.91 14.06-3.72zM70.48 74c.66-4.74-1.54-9.61.25-14.21 1.23 3.31 2.49 6.67 2.83 10.21.48 3.91-.61 7.76-1.12 11.61l-.01.08-.74.48c-1.63 1.05-.91 3.36-.1 4.73.09.18.26.55.35.74 1.5 3.74 5.88 3.15 8.71 1.39l.92.52c-2.19 2.75-5.69 3.93-7.91 6.64l-.15.15c-6.13.88-12.07 3.2-18.38 2.73l.01-.81c2.12-.18 4.35.05 6.38-.67 1.52-2.63.23-5.6-1.43-7.79-3.32.65-6.69 1.52-10.09 1.11-2.66-.44-5.2-1.34-7.83-1.9 5.03 4.09 12.04 3.42 17.9 1.85.43 2.03.8 4.06 1.14 6.11-3.43-.22-6.94-.37-10.21.88.33-.36.98-1.07 1.31-1.42-3.98-1.67-7.65-3.94-11.06-6.57 2.15-3.02-1.72-1.53-3.3-1.35-.15-.08-.45-.24-.59-.32l.42-.11c-.13-1.03-.45-2.02-.95-2.96l3.62.6c.09.06.27.19.37.26l.71.5c4.13 2.21 8.94 2.37 13.51 2.03C62.59 87.85 70 81.89 70.48 74z"/>
    </g>
    <path fill="#8c1d23" d="M61.24 34.88c1.16.38 2.32.75 3.48 1.12l-2.31 4.65c-.38-1.93-.76-3.85-1.17-5.77z"/>
    <g fill="#811921">
        <path d="M47.84 36.15c3.19-1.42 7.04.35 8.62 3.31-1.28 1.91-2.33 3.95-3.17 6.08l-.28.44c-.81.98-1.75 1.23-2.82.77-.26-.69-.8-2.08-1.07-2.77.55-.15 1.64-.44 2.19-.58l.16-.03c.06-.07.17-.2.23-.26l.55-.66.31-.67c-.6-1.31-1.26-2.6-1.89-3.9-.71-.43-2.12-1.3-2.83-1.73zM51.37 50.55c.26.04.79.13 1.06.17l-.17.85.67.54c.29-.2.87-.62 1.15-.82.21.12.61.36.82.48.54.34 1.63 1.04 2.17 1.39-1 1.67-1.96 3.37-2.83 5.12-.07.12-.2.37-.26.49l-.43.78c-2.47 3.58-2.17 8.01-1.87 12.12l-1.82.22c-1.61-3.28-.35-6.92.11-10.31-5.58 2.42-5.09 9.84-9.88 12.84-.18-.77-.55-2.29-.73-3.06 2.04-5.15 5.28-10.02 10.31-12.65-3.12-.98-6.28-2.26-9.62-1.96-2.72.03-5.04 1.59-7.44 2.66-3.96-2.06-8.29-3.47-12.81-2.51-.22.01-.67.04-.89.05 1.38 1.65 2.77 3.28 4.33 4.76l-.84 2.68c-1.72-3.15-4.48-5.44-6.92-7.98.62-.44 1.87-1.32 2.49-1.76 2.79-.43 5.7-.32 8.38-1.3 7.74-4.18 16.77-.74 25.02-2.8m-19.93 4.93c1.78 1.47 3.76-.15 5.61-.56 5.34-1.74 10.92.1 16.15 1.35-.12-.51-.37-1.53-.5-2.04-5.9-2.53-12.5-1.31-18.72-1.41-1.35-.21-4.07 1.13-2.54 2.66zM59.61 56.46c2.46-3.43 5.35.24 7.03 2.4-2.32 4.08-5.9 7.13-10.17 9.05-.76-1.99-1.21-4.09-1.02-6.22.06-.32.2-.96.27-1.28 1.32 1.14 2.61 2.36 4.15 3.21 2.17-.31 2.71-2.45 2.92-4.29-1.07-.96-2.13-1.91-3.18-2.87z"/>
        <path d="M38.53 60.4c.78.55 1.56 1.1 2.33 1.66-1.19 1.94-2.43 3.85-3.69 5.75-3.59-2.1-1.51-5.99 1.36-7.41z"/>
    </g>
    <g fill="#c62831">
        <path d="M38.5 37.94c2.05-.5 4.12-.87 6.21-1.19-.45 1.57-2.09 3.41-.58 4.92 1.25 1.47 3.03.97 4.57.37.07-1.5.15-3 .25-4.5 1.57 1.27 2.66 3.01 3.3 4.91l-.55.66-.39.29c-.55.14-1.64.43-2.19.58-.13.03-.37.11-.49.14.25 1.17.54 2.33.85 3.49l2.18.4c.34-.5 1.01-1.52 1.35-2.03l.28-.44c1.23-1.94 2.36-3.93 3.52-5.92l2.78.08c.29-.75.86-2.26 1.15-3.02 1.32 5-3.54 8.49-5.11 12.83 1.69.88 3.37 1.78 5.05 2.67.37-.46 1.12-1.38 1.5-1.84-.92-.87-1.84-1.75-2.76-2.62 2.98-3.49 3.96-8.31 7.38-11.42-.53 2.02-1.18 4-2 5.91-.07.09-.2.29-.26.38-.98 1.46-1.93 2.93-2.88 4.41 3.26-.13 6.54-.05 9.71.75-1.37-2.14-2.77-4.27-4.14-6.42-.03-.17-.1-.52-.14-.69.09-1.34.24-2.68.37-4.02 4.06 2.74 8.08 5.76 10.75 9.95-.48.39-1.43 1.16-1.91 1.54-1.62-3.34-3.39-6.98-7.21-8.19 1.38 3.55 3.26 6.87 5.18 10.16-3.18-.66-6.4-1.12-9.65-1.07.76 1.61 2.01 2.87 3.34 4.02-.02 1.97-.1 3.94-.36 5.89l-.83.93c.45-2.88-2.74-4.08-4.38-5.81-1.13.73-2.27 1.47-3.4 2.21 1.23 1.64 4.13 3.2 2.82 5.56-1.78 3.08-4.29-.83-5.95-2.06l-.14.66c-.07.32-.21.96-.27 1.28-.86 2.25-.16 4.56.82 6.63-.02.59-.07 1.76-.09 2.35l-.25 1.42c-.44-.06-1.3-.16-1.74-.21-.22-.09-.67-.28-.9-.37l-1.22-.76c-.69-4.12.23-8.22 1.91-11.98.06-.12.19-.37.26-.49 1.2-1.71 2.44-3.4 3.71-5.07-1.02-.47-2.04-.96-3.05-1.44-.21-.12-.61-.36-.82-.48-.41-.14-1.24-.43-1.65-.57-.27-.04-.8-.13-1.06-.17-7.19-1.13-14.52-.41-21.77-.43-1.26.84-2.57 1.61-3.94 2.27 1.46-2.22 3.2-4.28 5.37-5.84.49-.2 1.49-.62 1.99-.82-.92.8-1.85 1.6-2.77 2.4 1.09-.01 3.27-.04 4.36-.05.01-.75.03-2.23.03-2.98l1 2.25c.17-.3.49-.9.65-1.2.67.88 1.35 1.76 2.05 2.61.51-.33 1.53-1 2.04-1.34 1.34.59 2.79.5 4.16.07 1.39 1.14 2.99-.69 2.4-2.1-.76-.58-1.53-1.13-2.33-1.67-.94.94-1.89 1.87-2.84 2.8.23-.64.69-1.93.92-2.58-.91.05-2.74.13-3.65.17.02-.52.08-1.58.11-2.11l3.03-.48c-1.3-1.11-2.52-2.32-3.68-3.58z"/>
        <path d="M19.8 56.9c4.48-.15 9.16.45 12.72 3.43 4.41-3.92 10.63-3.9 15.85-1.73-3.35 2.61-6.29 5.76-8.01 9.69l-2.65-.2c1.39-2.37 2.79-4.73 4.2-7.09.72-.61 1.43-1.22 2.14-1.83-.55.27-1.64.81-2.19 1.07-3.12-.68-5.79.98-7.4 3.56l-3.02-.03c-2.01-2.27-4.77-3.58-7.54-4.67.34.92.7 1.85 1.06 2.77l.49 1.16-.78-.46c-.35-.21-1.07-.64-1.43-.86-1.17-1.58-2.27-3.22-3.44-4.81zM43.09 92.49c1.5 1.2 2.66 2.72 3.71 4.32.5-.05 1.51-.13 2.01-.18-.42.27-1.27.81-1.7 1.07-.44-.42-.86-.88-1.25-1.34l-.72-.97c-.71-.95-1.39-1.92-2.05-2.9z"/>
    </g>
    <g fill="#6e1816">
        <path d="M44.78 37.55c3.24-1.76 3.55 2.55 3.51 4.56-2.97 1.22-6.07-1.92-3.51-4.56zM102.58 39.3l.22.13c.17.66.51 1.98.69 2.64l.08.36.23.23 1.23 1.31c-2.29-.48-4.59-1.07-6.95-1.05-2.01.47-2.95 2.43-3.5 4.23 1.64-1.8 3.52-3.9 6.24-3.04 3.18.42 1.83 4.36 2.41 6.53-1.62.5-3.23 1.05-4.91 1.29-1.63-.85-2.34-2.63-3.34-4.05-.88 4.41 3.98 6.14 7.39 4.46-.12.44-.38 1.34-.5 1.79-.09.05-.25.15-.34.19-3.59 1.58-6.57 4.2-9.96 6.14-.72-3.95.02-7.94 2.06-11.38-4.58-1.07-8.11-4.24-10.93-7.86 6.52-1.62 13.12 1.19 19.68-.01l.2-1.91m-3.42 5.41c-1.76 1.41-2.78 3.45-1.37 5.51 1.48-.23 3.28.03 4.24-1.42.61-2.1-1.65-2.92-2.87-4.09z"/>
    </g>
    <path fill="#461212" opacity=".74" d="M69.09 39.92c3.82 1.21 5.59 4.85 7.21 8.19-.2.18-.6.53-.81.71.33 1.41.71 2.81 1.08 4.21-2.87-.04-5.74-.06-8.61 0-1.33-1.15-2.58-2.41-3.34-4.02 3.25-.05 6.47.41 9.65 1.07-1.92-3.29-3.8-6.61-5.18-10.16M66.5 49.98C68.51 52.74 72 52 74.94 52l.01-.75c-2.82-.41-5.6-1.09-8.45-1.27z"/>
    <path fill="#891c19" d="M24.12 40.92l.84.03c.06.61.19 1.84.25 2.45 2.28 1.51 3.53 4.51.74 6.24-.38-.04-1.14-.11-1.52-.15.27-.49.81-1.45 1.07-1.94-.39-.16-1.18-.49-1.58-.65.02-2 .12-3.99.2-5.98z"/>
    <path fill="#891e1f" opacity=".96" d="M64.8 42.21l2.29-1.57c.04.17.11.52.14.69.32 1.6.72 3.19 1.12 4.77l-4.16.09c.12-1.2.23-2.4.35-3.6.06-.09.19-.29.26-.38z"/>
    <path fill="#41100f" opacity=".72" d="M68.35 46.1c-.4-1.58-.8-3.17-1.12-4.77 1.37 2.15 2.77 4.28 4.14 6.42-3.17-.8-6.45-.88-9.71-.75.95-1.48 1.9-2.95 2.88-4.41-.12 1.2-.23 2.4-.35 3.6l4.16-.09z"/>
    <path fill="#170904" opacity=".58" d="M103.49 42.07c.07.15.23.44.31.59l-.23-.23-.08-.36z"/>
    <path fill="#1f0a09" opacity=".63" d="M105.97 42.09c1.55.43 1.7 1.03.45 1.81-.11-.46-.33-1.36-.45-1.81z"/>
    <path fill="#320c0b" opacity=".73" d="M94.58 47.15c.55-1.8 1.49-3.76 3.5-4.23 2.36-.02 4.66.57 6.95 1.05-.38 2.28-.8 4.57-1.8 6.67-.58-2.17.77-6.11-2.41-6.53-2.72-.86-4.6 1.24-6.24 3.04z"/>
    <path fill="#2f0c0d" opacity=".67" d="M31.03 46.55c.07-.69.22-2.07.29-2.76.38.2 1.12.59 1.49.78 1.58-.2 3.14-.48 4.71-.73-.31.58-.92 1.73-1.23 2.31-.16.3-.48.9-.65 1.2l-1-2.25c0 .75-.02 2.23-.03 2.98-1.09.01-3.27.04-4.36.05.92-.8 1.85-1.6 2.77-2.4-.5.2-1.5.62-1.99.82z"/>
    <path fill="#421111" opacity=".72" d="M36.29 46.15c.94-.65 1.86-1.32 2.75-2.04.91-.04 2.74-.12 3.65-.17-.23.65-.69 1.94-.92 2.58.95-.93 1.9-1.86 2.84-2.8.8.54 1.57 1.09 2.33 1.67.59 1.41-1.01 3.24-2.4 2.1-1.37.43-2.82.52-4.16-.07-.51.34-1.53 1.01-2.04 1.34-.7-.85-1.38-1.73-2.05-2.61m3.12-.89c.46.56.46.56 0 0z"/>
    <path fill="#791b1d" opacity=".78" d="M39.41 45.26c.46.56.46.56 0 0z"/>
    <path fill="#3f0f10" opacity=".76" d="M99.16 44.71c1.22 1.17 3.48 1.99 2.87 4.09-.96 1.45-2.76 1.19-4.24 1.42-1.41-2.06-.39-4.1 1.37-5.51m-.82 2.43c-1.17 1.41 1.29 2.66 2.17 1.36 1.13-1.36-1.33-2.77-2.17-1.36z"/>
    <path fill="#210805" opacity=".71" d="M104.92 46.32c1.31.25 1.54 1 .7 2.25-1.32-.26-1.55-1.01-.7-2.25z"/>
    <path fill="#3e0e0f" opacity=".78" d="M102.37 52.34c-3.41 1.68-8.27-.05-7.39-4.46 1 1.42 1.71 3.2 3.34 4.05 1.68-.24 3.29-.79 4.91-1.29 1.21-.39 2.41-.79 3.64-1.16-.79 2.37-2.9 3.63-5 4.65.12-.45.38-1.35.5-1.79z"/>
    <path fill="#902025" d="M66.5 49.98c2.85.18 5.63.86 8.45 1.27l-.01.75c-2.94 0-6.43.74-8.44-2.02z"/>
    <path fill="#090604" opacity=".58" d="M77.2 50.27c.56.56.56.56 0 0z"/>
    <path fill="#1a0d0a" opacity=".65" d="M52.43 50.72c.41.14 1.24.43 1.65.57-.28.2-.86.62-1.15.82l-.67-.54.17-.85z"/>
    <path fill="#1a0607" opacity=".64" d="M77.22 53.85c-.26-1.38.29-1.9 1.67-1.56.28 1.4-.28 1.92-1.67 1.56z"/>
    <g fill="#180704">
        <path opacity=".59" d="M82.31 52.23c.55.55.55.55 0 0zM84.18 52.25c.57.53.57.53 0 0z"/>
    </g>
    <path fill="#020101" opacity=".14" d="M31.44 55.48c-1.53-1.53 1.19-2.87 2.54-2.66 6.22.1 12.82-1.12 18.72 1.41.13.51.38 1.53.5 2.04-5.23-1.25-10.81-3.09-16.15-1.35-1.85.41-3.83 2.03-5.61.56z"/>
    <path fill="#3a100e" opacity=".74" d="M77.26 57.54c2.4-.24 3.28-2.38 4.31-4.19.87 4.69 2.61 9.29 2.49 14.11-.2.14-.62.41-.83.55-.38-3.42-.87-6.83-1.43-10.23l-4.54-.24z"/>
    <path fill="#3e0f0d" opacity=".74" d="M82.52 53.1l1.52.65c.19.43.56 1.3.75 1.73.06.22.17.66.23.88 2.02 7.95 2.39 16.13 2.94 24.26-2.24-2.7-1.94-6.38-1.96-9.66.11-6.13-1.66-12.07-3.48-17.86z"/>
    <path fill="#390f0d" opacity=".73" d="M84.79 55.48c.2-.55.58-1.63.78-2.17 3.06 7.06 3.95 14.71 3.43 22.34l-1.01-.05c-.41-6.47.52-13.4-2.97-19.24-.06-.22-.17-.66-.23-.88z"/>
    <path fill="#76191b" d="M76.83 57.52l.43.02 4.54.24c.56 3.4 1.05 6.81 1.43 10.23.21-.14.63-.41.83-.55l.75-.48.2 2.6c-6.94 1.96-10.78-6.17-10.95-11.86l.97.83c1.13 1.02 1.74.84 1.83-.53l-.03-.5z"/>
    <path fill="#310e0e" opacity=".65" d="M75.03 58.55c.46-.13 1.37-.4 1.83-.53-.09 1.37-.7 1.55-1.83.53z"/>
    <path fill="#43100f" opacity=".75" d="M23.9 59.1c2.77 1.09 5.53 2.4 7.54 4.67.12.58.36 1.75.49 2.34.84 2.67-2.95 4.79-5.05 3.06.06-1.47.11-2.94.16-4.42l.46.8c.51 1.14 1 2.29 1.47 3.45.57-.52 1.7-1.56 2.27-2.08-.84-1.51-1.42-3.25-2.71-4.45-1.18-.26-2.37-.46-3.57-.6-.36-.92-.72-1.85-1.06-2.77z"/>
    <path fill="#481111" opacity=".78" d="M23.24 61.71c.36.22 1.08.65 1.43.86.18 1.94-.33 3.83-.76 5.71-.55-.44-1.65-1.31-2.2-1.74.17-.54.51-1.61.69-2.15l.84-2.68z"/>
    <path fill="#6c1818" opacity=".96" d="M24.96 61.87c1.2.14 2.39.34 3.57.6 1.29 1.2 1.87 2.94 2.71 4.45-.57.52-1.7 1.56-2.27 2.08-.47-1.16-.96-2.31-1.47-3.45l-.46-.8c-.17-.26-.53-.79-.7-1.06l.14-.01c-.07-.04-.2-.12-.27-.16l-.76-.49-.49-1.16z"/>
    <path fill="#0e0704" opacity=".59" d="M26.21 63.52c.07.04.2.12.27.16l-.14.01-.13-.17z"/>
    <path fill="#761818" d="M60.65 69.77c2.37-1.22 4.32-3.07 6.3-4.81l.4 1.73c-.25 2.94-.28 5.89.04 8.82l-.12.36c-1.79 3.34-4.32 6.23-7.5 8.3-.11.05-.33.14-.44.19-7.57 2.27-16.3.72-22.12-4.76-1.36-1.72-3.43-4.15-2.08-6.39.43-.32 1.27-.94 1.69-1.26.23-.05.68-.16.9-.21.41-.09 1.23-.28 1.64-.38.18.77.55 2.29.73 3.06-.53.13-1.6.39-2.14.52 2.45 3.53 5.73 6.84 10.11 7.7 5.33.93 11.63-.1 15.21-4.51 1.95-2.09 2.07-5.05 2.46-7.71-3.14 2.35-6.68 4.58-10.72 4.77-2.28.22-3.99-1.58-5.15-3.3l1.82-.22 1.61-.16c.23.09.68.28.9.37.23.36.68 1.08.9 1.44.21-.31.63-.93.84-1.23l.25-1.42.59.84c.97 1.72 3.38.16 3.34-1.45.13-.07.4-.22.54-.29z"/>
    <path fill="#3d0e0e" opacity=".71" d="M67.39 75.51c-.32-2.93-.29-5.88-.04-8.82.9 2.87.96 5.94.04 8.82z"/>
    <path fill="#361110" opacity=".73" d="M56.77 71.51c.98-.77 2.09-1.25 3.34-1.45.04 1.61-2.37 3.17-3.34 1.45z"/>
    <path fill="#270707" opacity=".72" d="M54.19 71.88c.44.05 1.3.15 1.74.21-.21.3-.63.92-.84 1.23-.22-.36-.67-1.08-.9-1.44z"/>
    <path fill="#761819" d="M76.65 72.08c.29.32.58.64.88.95l.82.84c1.59.14 3.18.2 4.77.27-.01 2.15.04 4.29.28 6.42-.06.1-.18.29-.25.39-1.55 2.24-2.75 4.94-5.17 6.41-2.07.9-3.19-1.03-3.96-2.57-.09-.15-.26-.47-.35-.62 1.94-3.67 3.86-7.85 2.98-12.09z"/>
    <path fill="#360e0b" opacity=".73" d="M76.65 72.08c.88 4.24-1.04 8.42-2.98 12.09.78-4.08 1.76-8.12 2.98-12.09z"/>
    <path fill="#410f0d" opacity=".74" d="M77.53 73.03c2.45.06 5.27-.7 7.28 1.15-.49 2.12-.92 4.26-1.41 6.38-.24-2.13-.29-4.27-.28-6.42-1.59-.07-3.18-.13-4.77-.27l-.82-.84z"/>
    <path fill="#410f0f" opacity=".74" d="M85.34 77.21c.81 1.69 1.52 3.43 1.86 5.27-1.97 2.43-2.8 5.59-4.95 7.89-2.32 2.59-5.25 4.76-8.59 5.82 2.22-2.71 5.72-3.89 7.91-6.64l-.92-.52-.81-.48c1.44-1.52 2.74-3.15 3.96-4.84.77-2.1 1.25-4.29 1.54-6.5z"/>
    <path fill="#441212" opacity=".73" d="M34.22 81.79c2.28.95 4.29 2.41 6.23 3.93l-3.62-.6c.5.94.82 1.93.95 2.96l-.42.11c-1.59-1.78-2.14-4.26-3.14-6.4z"/>
    <path fill="#1a0a09" opacity=".67" d="M71.59 86.9c-.81-1.37-1.53-3.68.1-4.73.86 1.35.79 3.41-.1 4.73z"/>
    <path opacity=".57" d="M31.28 83.15l.42-.02.2.47-.49-.06-.13-.39z"/>
    <path fill="#090404" opacity=".58" d="M32.26 85.24l.43-.03.22.46-.5-.04-.15-.39z"/>
    <path fill="#390d0d" opacity=".72" d="M34.86 89.17c-1.32.03-2.94-1.88-1.12-2.56l1.12 2.56z"/>
    <path fill="#3a0e0d" opacity=".74" d="M37.95 88.51c1.58-.18 5.45-1.67 3.3 1.35 3.41 2.63 7.08 4.9 11.06 6.57-.33.35-.98 1.06-1.31 1.42 3.27-1.25 6.78-1.1 10.21-.88-.34-2.05-.71-4.08-1.14-6.11-5.86 1.57-12.87 2.24-17.9-1.85 2.63.56 5.17 1.46 7.83 1.9 3.4.41 6.77-.46 10.09-1.11 1.66 2.19 2.95 5.16 1.43 7.79-2.03.72-4.26.49-6.38.67l-.01.81c6.31.47 12.25-1.85 18.38-2.73-3.49 2.08-7.54 2.86-11.48 3.62-5.09.94-10.1-.82-14.92-2.26.43-.26 1.28-.8 1.7-1.07-.5.05-1.51.13-2.01.18-1.05-1.6-2.21-3.12-3.71-4.32.66.98 1.34 1.95 2.05 2.9l.72.97c-3.43-1.47-6.41-4.47-7.91-7.85z"/>
    <path fill="#3b0f0c" opacity=".75" d="M66.66 101.69c3.99-1.41 7.97-2.88 11.8-4.7-2.81 3.3-7.44 5.47-11.8 4.7z"/>
    <path fill="#300e0a" opacity=".71" d="M49.61 100.94c5.51 1.27 11.18.93 16.78 1.09l-.68 1c-5.03-.46-10.47 1-15.19-1.3l-.91-.79z"/>
</svg>
