<svg width="128pt" height="128pt" viewBox="0 0 128 128" xmlns="http://www.w3.org/2000/svg">
    <g fill="#fff">
        <path d="M23.56 33.13c.24-5.45 5.45-8.89 10.34-9.91 9.21-1.7 18.61.11 27.6 2.17 7.04 2.04 14.78 4.45 19.4 10.52 8.31-.7 16.96-1.3 25.05 1.11 3.62.71 4.47 4.67 5.35 7.67.76 2.26.74 4.66.73 7.02-5.64 4.6-11.1 9.47-17.03 13.71 1.18 8.65-.17 17.93-5.42 25.1-7.21 9.69-19.5 15.23-31.49 14.92-15.96-.57-29.09-15.02-30.18-30.58-2.1-.91-4.5-1.98-5.32-4.33-1.33-2.56.87-5.72-1.22-8.03-1.32-2.56-4.12-3.8-5.65-6.16 2.48-2.44 5.92-2.61 9.19-2.33-.88-2.22-.3-4.56.42-6.73l-1.26-.51c-.27-4.54-.51-9.09-.51-13.64m4.92-4.83c-5.72 3.16-3.15 10.37-3.47 15.59 2.84-.78 2.87 2.12 3.24 4.05-1.71 1.18-2.82 2.93-2.64 5.08.76-.01 2.29-.02 3.05-.03.13-.46.38-1.38.51-1.83 4.36-1.54 9.21-.35 13.76-.82 5.04-.49 9.86 1.14 14.5 2.88-3.08 3.34-4.94 7.64-6.21 11.95-.6 2.56-.48 6.63 2.81 7.15 5.33.36 9.12-4.14 12.75-7.37.3 4.92 1.33 10.58-2.02 14.76-5.92 7.16-17.24 6.75-24.62 2.15-3.75-1.82-5.55-5.83-6.25-9.73 1.77.03 3.94.59 5.35-.85 1.14-1.37 1.59-3.16 2.51-4.67 1.84-3.49 5.01-5.96 8.14-8.22-5.61-1.88-12.69-3.1-17.41 1.4-3.67-3.47-9.08-3.55-13.77-2.73 2.14 2.62 5.88 5.21 5.04 9.04-.7 3.39 2.49 6.83 5.78 7.09-.49 10.74 6.59 20.54 15.44 25.98 14.34 8.29 34.28 2.47 42.85-11.48 4.35-6.96 4.64-15.34 4.2-23.29 5.78-4.08 11.66-8.16 16.97-12.83-.41-3.95-2.04-7.61-3.17-11.38-1.14-.64-2.31-1.25-3.64-1.33-7.65-1.12-15.4-.66-23.08-.17-5.23-5.17-11.55-9.38-18.75-11.19-10.26-2.91-22.07-4.32-31.87.8m2.48 26.67c.91 1.01 2.48 1.77 3.74.84 5.74-2.8 12.29-1.2 18.11.48.14-.52.41-1.57.55-2.09-5.87-2.25-12.24-1.33-18.37-1.53-1.55-.13-4.07.35-4.03 2.3m11.83 16.74c-.79 2.26-3.24 2.57-5.25 2.99 2.34 3.16 5.03 6.38 8.91 7.64 5.93 1.82 13.41.52 17.36-4.6 1.58-2.12 1.66-4.88 1.93-7.4-3.87 2.64-9.1 6.45-13.83 3.74-3.87-3.02-2.84-8.49-1.54-12.57-4.48 1.47-5.95 6.29-7.58 10.2z"/>
        <path d="M27.68 33.97c2.71-4.51 8.47-5.32 13.24-5.86 12.72-.28 26.05 3.7 35.15 12.91 7.39 7.73 12.37 18.13 12.4 28.95-.17 8.41-3.16 17.25-9.77 22.76-8.14 5.67-18.96 8.2-28.55 5.05-7-2.31-12.03-8.25-14.97-14.81 6.09 4.34 13.87 7.35 21.4 5.47 5.17-1.28 10.37-4.33 12.62-9.37 2.49-5.39 1.84-11.65-.07-17.12.53-.77 1.06-1.53 1.61-2.28 2.07 6.01 4.27 12.67 2.02 18.96-1.34 3.3-2.57 7.53.04 10.55 2.81 2.83 7.45.84 9.43-2.02 4.44-5.65 4.64-13.27 4.15-20.12-.71-11.75-6.75-23.29-16.68-29.8-1.26-1.01-3.87-2.45-4.87-.42-1.89 3.7-3.6 7.51-6.2 10.8.71 1.32 1.81 2.36 2.68 3.57-1.85-.3-3.36-1.42-4.91-2.39 2.37-3.56 5.57-7.1 5.74-11.58-2.69-3.11-6.92-3.8-10.7-4.78-6.22-1.26-13.09-1.98-18.96.96-1.44 1-3.18.61-4.8.57m11.27 53.7c5 6.53 13.37 11.52 21.81 9.86 2.68-2.14.54-5.51-1-7.62-6.9 2.94-14.32.49-20.81-2.24z"/>
        <path d="M32.55 38.01c4.17-4.17 10.37-2.9 15.65-3-3.07 2.04-7.57.43-10.27 3.24 1.44 1.27 2.89 2.53 4.32 3.82-3.45-.74-7.03-1.61-9.7-4.06zM49.19 37.84c-.27-.64-.81-1.92-1.09-2.56 2.27.53 4.56 1.04 6.78 1.74 2.81 3.56-1.85 6.96-3.18 10.17-.52-.07-1.55-.22-2.06-.29-.06-.71-.17-2.13-.22-2.83 1.42-.22 3.97.42 3.74-1.81-1-1.69-2.2-3.24-3.34-4.83l-.63.41z"/>
        <path d="M46.26 37.23c.42.25 1.26.74 1.68.99.26.44.77 1.33 1.03 1.77-.31.53-.94 1.6-1.25 2.14-1.53.12-3.92-.3-3.73-2.28-.24-1.39 1.54-1.76 2.27-2.62zM62.83 46.32c1.42-2.11 2.72-4.29 3.9-6.54.23 2.8 1.88 5.15 3.44 7.38-2.02-1.94-4.9-1.06-7.34-.84zM82.77 41.05c6.62-.24 13.24.2 19.8 1.13 2.25 1.99 2.64 5.24 3.66 7.93-4.81 3.72-9.76 7.35-14.92 10.52-.3-4.01.04-8.41 2.83-11.56-4.92-.64-8.46-4.33-11.37-8.02m12.05 6.98c-.05 4.97 7.1 5.74 9.2 1.68-.02-1.19-.03-2.38-.04-3.57-.29-.52-.86-1.55-1.14-2.07-3.16-2.42-8.53-.4-8.02 3.96z"/>
        <path d="M70.16 40.87c4.05 3.31 5.83 8.53 8.67 12.81-1.61-.47-3.15-1.17-4.77-1.59-2.95-.35-6.58.95-8.41-2.2 3.6-.25 7.09.72 10.58 1.38-2.31-3.29-4.51-6.67-6.07-10.4zM29.19 45.65c-1.3-1.33 1.26-2.69 2.23-1.59.93 1.26-1.27 2.74-2.23 1.59zM35.66 46.04c-1.88.03-.43-2.96.86-1.89-.22.47-.65 1.41-.86 1.89zM40.69 46.15c-1.85.16-.61-2.87.74-1.96-.18.49-.55 1.47-.74 1.96zM33.26 45.33c1.78.3.84 3.41-.92 2.91-2.11-.39-.3-2.67.92-2.91zM45.02 45.14c1.31-.14 1.71.5 1.2 1.9-1.34.16-1.74-.47-1.2-1.9zM42.52 48.03c-1.41-.79-1.33-1.58.23-2.38 1.37.84 1.29 1.63-.23 2.38zM97.54 47.1c2.16-2.92 5.39 1.11 2.15 2.72-.4-.26-1.18-.78-1.58-1.04-.14-.42-.43-1.26-.57-1.68zM60.61 55.64c2.19-2.15 4.19 1.47 5.88 2.55-1.79 4.3-5.62 8.62-10.54 8.99-1.21-2.05-.17-4.25.23-6.37 1.22 1.04 2.44 2.09 3.67 3.12 1.71-.9 4.43-3.18 2.37-5.13-.45-1.08-3.22-1.89-1.61-3.16zM80.93 56.82l.72-1.93c.31 5.13 2.1 10.03 2.35 15.17-1.63-.22-3.38-.25-4.76-1.25-3.31-2.14-3.81-6.36-5.52-9.61 2.54-.32 4.85-1.46 7.21-2.38zM36.13 62.13c2.06-1.29 4.4-2 6.8-2.26-2.23 2.09-3.91 4.67-5.24 7.42-1.41.04-2.19-.99-2.79-2.15.42-1 .83-2 1.23-3.01zM24.96 60.01c2.39 1.5 5.73 2.76 6.21 5.96.83 1.86-1.4 3.31-3.04 3.19-.13-3.3-1.36-6.42-3.17-9.15zM77.11 73.06c2.28.6 4.6.96 6.95 1.14-.66 4.51-1.52 9.65-5.39 12.61-2.22 2.03-5.54-1.04-4.5-3.51 1.19-3.35 2-6.81 2.94-10.24z"/>
    </g>
    <path fill="#a3a3a3" opacity=".64" d="M37.26 46.3c1.63-.6 2.16-.07 1.6 1.58-1.66.58-2.19.05-1.6-1.58z"/>
</svg>
