<svg width="128pt" height="128pt" viewBox="0 0 128 128" xmlns="http://www.w3.org/2000/svg">
    <g fill="#fff">
        <path d="M28.6 21.7c2.2-1.73 4.91-2.59 7.45-3.69-2.19 3.34-4.34 6.88-4.99 10.88-.81 5.13 2.91 10.63 8.07 11.53 3.19.82 6.51.52 9.76.58-1.94 1.65-3.69 3.51-5.13 5.62-1.46-.06-2.92-.08-4.39-.06-1.34-1.8-2.8-4.03-5.38-3.75-.58 3.25-.6 6.57-.05 9.82-.6.72-1.19 1.45-1.76 2.2.56 1.12.87 2.31.94 3.56-2.18-1.65-3.14-4.47-5.55-5.88-4.61-2.72-6.67-8.38-6.61-13.52-.35-6.51 2.29-13.37 7.64-17.29zM56.45 30.05c5.77 1.67 12.85 5.09 12.97 12.04-.08 4 1.19 8.74 5.57 9.86.98-.34 1.96-.7 2.94-1.05 2.42-4.24 1.25-9.39-1.23-13.3 6.41 4.71 14.05 10.3 14.47 19.01-2.85-1.39-5.93-2.36-9.12-2.36-7.98.37-16.35-.08-23.68-3.57 2.74-4.1 3.84-9.41 2.12-14.13-.85-2.44-2.61-4.39-4.04-6.5zM48.41 43.2l1.53-1.83c1.44 1.17 2.79 2.45 3.98 3.88.43 1.62.91 3.23 1.29 4.86-1.29-.24-2.58-.5-3.86-.78-.45-2.14-.92-4.27-1.58-6.35l-1.36.22zM16.92 62.11c2.54 4.22 4.94 9.54 10.06 11.06 3.46.9 6.05-2.17 6.89-5.19 1.94.18 3.79-.29 5.55-1.05.43 5.32 3.11 10.19 6.32 14.34 1.9 2.46 4.84 3.77 7.9 3.97 2.28 4.48 3.81 9.27 3.62 14.36l-2.94 2.11c-2.69-4.57-5.3-10.48-11.21-11.36-8.4-.17-16.87-3.62-22.43-10.03-4.48-4.77-5.84-12.06-3.76-18.21zM71.12 80.5c2.2.93 4.37-.76 6.55-1.04-1.82 3.18-4.32 5.89-6.46 8.84-1.03 1.86-2.12 3.69-3.03 5.61-.08-4.63 1.92-8.97 2.94-13.41z"/>
    </g>
</svg>
