<svg width="128pt" height="128pt" viewBox="0 0 128 128" xmlns="http://www.w3.org/2000/svg">
    <g fill="#b82429">
        <path d="M24.65 50.34c-8.41-10.78-2.56-29.76 11.51-32.16-2.96 3.99-5.61 8.84-4.96 13.98.82 4.19 4.37 7.86 8.68 8.36 3.11.45 6.27.35 9.4.45l-1.02.62c-1.83 1.17-2.98 3.04-4.35 4.67-1.45.38-2.98.19-4.46.24-1.4-1.86-2.83-4.09-5.51-3.65-.71 3.19-.65 6.46-.03 9.65-.41.57-1.22 1.72-1.63 2.29.55 1.19.73 2.42.55 3.71-2.25-3.2-4.94-5.96-8.18-8.16zM16.74 62.05c2.05 2.45 3.22 5.69 5.5 8.1.21 1.12.32 2.25.46 3.38-1.64.76-3.2 1.75-4.18 3.33l-.3.37c-2.51-4.66-2.84-10.12-1.48-15.18z"/>
    </g>
    <path fill="#2c0909" opacity=".62" d="M57.32 32.03c-2.4-.68.37-3.83.83-1.2l-.19.91-.64.29z"/>
    <path fill="#ad1d1b" d="M58.15 30.83c2.88.28 5.3 2.07 7.64 3.63-1.75.65-3.46 1.4-5.14 2.21l-.24.12c-.55-1.81-1.7-3.34-2.45-5.05l.19-.91z"/>
    <path fill="#c6282c" d="M60.65 36.67c1.68-.81 3.39-1.56 5.14-2.21 2.33 2.2 3.98 5.28 3.83 8.56-.2 2.64.79 5.12 2.22 7.28.21 1.24.39 2.48.54 3.73-4.82-.44-9.73-1.1-14.01-3.52 2.65-4.05 3.71-9.15 2.28-13.84z"/>
    <path fill="#a22023" d="M75.35 37.69l.6-1.12.38 1.6 1.2.13c6.52 4.15 13.21 10.16 13.82 18.38-5.79-3.67-12.62-1.8-18.97-2.65-.15-1.25-.33-2.49-.54-3.73 1.86 1.23 4.87 2.09 6.32-.19 2.05-3.98 1.28-10.05-2.81-12.42z"/>
    <path fill="#140404" opacity=".42" d="M43.91 46.26c1.37-1.63 2.52-3.5 4.35-4.67 2.22 1.84 2.67 4.65 2.96 7.35.88.81 2.45.69 3.56 1.2l.08 1.18c-1.75-.18-4.25-1.12-4.44 1.51 2.88 3.06 3.28 7.31 1.61 11.08 1.41 2.58 3.76-.71 5.17-1.7 1.84-1.17.85-3.41.85-5.15.31-.49.92-1.47 1.23-1.96 5.41 3.62 8.42 9.54 11.66 14.97 3.52-1.19 7.22-1.89 10.95-1.47.24-.65.71-1.96.95-2.62.82-2.07 1.86-4.1 3.37-5.76 1.35-1.77 3.83-1.3 5.76-1.67l.76.6-.82.86c-.73-.01-2.2-.05-2.93-.07-3.6 2.82-5.05 7.3-6.18 11.54-1.8 1.93-1.8 4.48-1.59 6.95l-.54.36c-.8.57-1.61 1.12-2.43 1.65l-.28.2-.63-.33c-1.96-.91-4.09.95-6.19.83-1.27 3.71-2.1 7.54-3.05 11.34.13.2.41.59.55.79-.22.77-.74 1.38-1.58 1.84-1.15 3.29-.48 6.76-.3 10.14l-.23-.63c-.12-.34-.35-1.01-.47-1.35-.43-5.08.36-10.16 1.52-15.1.62-2.69 1.41-5.34 2.36-7.93-.92-1.4-1.83-2.8-2.67-4.25.72-1.68 1.54-3.32 2.28-4.99-1.14-2.76-2.58-5.39-4.24-7.87-1.72-2.62-3.44-5.42-6.26-7-.04 1.95-.04 3.91-.07 5.87-1.32 1.07-2.6 2.19-3.9 3.3 3.81 5.03-2.17 12.52 3.48 16.71l.25 1.41c-4.69-1.49-4.91-6.92-3.85-10.94.03-1.41.05-2.82.06-4.23-1.13-1.19-2.43-2.22-3.89-2.99-.36.14-1.08.41-1.44.55-2.77-1.23-5.89-.69-8.81-1.18 1.04-.6 2.15-.7 3.35-.3 2.2.37 4.42-.03 6.6-.38.33-2.08 1.56-4.24.76-6.35-.5-2.05-2.12-3.47-3.56-4.89 3.1-2.31 1.29-5.88.49-8.89-1.9.62-2.63 2.66-3.72 4.14-1.73.06-3.47.14-5.2.24-1.98-.76-3.02-2.74-4.38-4.23-.82 3.67 1 7.81-1.18 11.1l.21.35c.68 1.88-.09 3.69-1.87 4.56.11-.37.34-1.11.45-1.48.18-1.29 0-2.52-.55-3.71.41-.57 1.22-1.72 1.63-2.29-.62-3.19-.68-6.46.03-9.65 2.68-.44 4.11 1.79 5.51 3.65 1.48-.05 3.01.14 4.46-.24m27.26 24.79c-.77 1.66-1.47 3.35-2.13 5.06 1.03 1.27 2.14 2.48 3.33 3.6 2.67-1.03 5.44-1.78 8.1-2.87.31-2.29.26-4.67 1.13-6.84-3.41-1.4-7.14-.1-10.43 1.05z"/>
    <path fill="#ce2c31" d="M48.26 41.59c.64.12 1.92.37 2.56.5.51.92 1.23 1.62 2.18 2.09 1.29 1.51 2.43 4.01 1.78 5.96-1.11-.51-2.68-.39-3.56-1.2-.29-2.7-.74-5.51-2.96-7.35z"/>
    <path fill="#240a0a" opacity=".44" d="M50.82 42.09c1.78-.36 2.5.34 2.18 2.09-.95-.47-1.67-1.17-2.18-2.09z"/>
    <path fill="#84191e" d="M34.04 55.07c2.18-3.29.36-7.43 1.18-11.1 1.36 1.49 2.4 3.47 4.38 4.23.43.45 1.28 1.35 1.71 1.81-.9.98-1.8 1.97-2.69 2.96.35 1.06.71 2.11 1.04 3.18-.14.48-.43 1.43-.58 1.91 1.86.22 3.23-1.3 4.6-2.29.88 2.77 1.02 5.69.55 8.56-1.2-.4-2.31-.3-3.35.3-.9.31-2.69.95-3.58 1.26.82.65 1.72 1.2 2.64 1.71-.04.54-.11 1.62-.14 2.16-.89-.47-1.8-.91-2.72-1.3l.01-.57c.02-.37.07-1.1.09-1.47l-2 .93c-.57-.17-1.71-.51-2.28-.69.79-.23 2.37-.7 3.16-.94l.41-1.08c.02-.02.06-.04.07-.06 2.38.74 4.47-1.77 6.77-2.2-.96-.21-1.92-.44-2.88-.68-2.63-1.47-4.58-3.79-6.18-6.28l-.21-.35z"/>
    <path fill="#941c21" d="M44.8 47.96c1.09-1.48 1.82-3.52 3.72-4.14.8 3.01 2.61 6.58-.49 8.89 1.44 1.42 3.06 2.84 3.56 4.89.8 2.11-.43 4.27-.76 6.35-2.18.35-4.4.75-6.6.38.47-2.87.33-5.79-.55-8.56-.76-1.32-2.87.24-4.02.38-.33-1.07-.69-2.12-1.04-3.18.89-.99 1.79-1.98 2.69-2.96-.43-.46-1.28-1.36-1.71-1.81 1.73-.1 3.47-.18 5.2-.24z"/>
    <path fill="#0e0303" opacity=".35" d="M56.03 51.62l2.34-1.11c4.28 2.42 9.19 3.08 14.01 3.52 6.35.85 13.18-1.02 18.97 2.65-.44.19-1.33.56-1.77.74-4.91-2.38-10.4-1.02-15.61-1.52-3.44-.35-6.87-.85-10.26-1.5-2.57-.91-5.06-2.02-7.68-2.78z"/>
    <path fill="#551113" d="M50.42 52.83c.19-2.63 2.69-1.69 4.44-1.51l1.17.3c2.62.76 5.11 1.87 7.68 2.78 2.2 5.47 6.75 9.28 11.5 12.48 2.45-.9 5.04-1.35 7.63-.9-.24.66-.71 1.97-.95 2.62-3.73-.42-7.43.28-10.95 1.47-3.24-5.43-6.25-11.35-11.66-14.97-.31.49-.92 1.47-1.23 1.96 0 1.74.99 3.98-.85 5.15-1.41.99-3.76 4.28-5.17 1.7 1.67-3.77 1.27-8.02-1.61-11.08z"/>
    <path fill="#3c0c0b" opacity=".69" d="M39.66 56.15c1.15-.14 3.26-1.7 4.02-.38-1.37.99-2.74 2.51-4.6 2.29.15-.48.44-1.43.58-1.91z"/>
    <path fill="#84191b" d="M63.71 54.4c3.39.65 6.82 1.15 10.26 1.5 5.21.5 10.7-.86 15.61 1.52.59.29 1.79.85 2.39 1.13-1.93.37-4.41-.1-5.76 1.67-1.51 1.66-2.55 3.69-3.37 5.76-2.59-.45-5.18 0-7.63.9-4.75-3.2-9.3-7.01-11.5-12.48z"/>
    <path fill="#6e1816" d="M34.25 55.42c1.6 2.49 3.55 4.81 6.18 6.28-1.3.96-2.61 1.89-3.89 2.88-.01.02-.05.04-.07.06l-1.12.75c-.99-.04-2.98-.14-3.97-.18.83-.91 1.86-1.59 2.86-2.3-1.57-1.57-3.35-.85-4.64.59.01-1.76.94-2.93 2.78-3.52 1.78-.87 2.55-2.68 1.87-4.56z"/>
    <path fill="#7e191b" d="M59.05 56.13c2.82 1.58 4.54 4.38 6.26 7-2.16-.02-4.33-.25-6.33-1.13.03-1.96.03-3.92.07-5.87z"/>
    <path fill="#651315" d="M82.8 71.48c1.13-4.24 2.58-8.72 6.18-11.54.73.02 2.2.06 2.93.07 3.1 1.07 6.18 3.46 6.23 7.02-.44 3.93-2.74 7.29-5.2 10.26 2.05 2.05 3.24 4.76 4.6 7.29.74 1.09-.1 2.34-.24 3.47-.98 3.5-.96 7.16-1.64 10.71-1.36 2.13-4.45 1.29-6.58 1.35-.06-.51-.17-1.54-.22-2.05.53-.42 1.59-1.26 2.13-1.68.76.38 2.29 1.13 3.05 1.51-.6-.78-1.19-1.59-1.79-2.37 1.18-2.68-.07-5.44.06-8.2-2.83-2.1-6.56-3.05-8.65-6.08-1.83-2.91-1.57-6.55-.86-9.76z"/>
    <path fill="#2a0a08" opacity=".6" d="M36.54 64.58c1.28-.99 2.59-1.92 3.89-2.88.96.24 1.92.47 2.88.68-2.3.43-4.39 2.94-6.77 2.2z"/>
    <path fill="#6b1416" d="M58.98 62c2 .88 4.17 1.11 6.33 1.13 1.66 2.48 3.1 5.11 4.24 7.87-.74 1.67-1.56 3.31-2.28 4.99.84 1.45 1.75 2.85 2.67 4.25-.95 2.59-1.74 5.24-2.36 7.93-.74.03-2.23.1-2.97.13-.63 1.73-1.35 3.52-3.22 4.22-.01-3.08-.15-6.16-.68-9.2l-2.15-1.31c-5.65-4.19.33-11.68-3.48-16.71 1.3-1.11 2.58-2.23 3.9-3.3z"/>
    <path fill="#bd2831" d="M49.69 65.81c.36-.14 1.08-.41 1.44-.55 1.46.77 2.76 1.8 3.89 2.99-.01 1.41-.03 2.82-.06 4.23-2.88-1.4-5.69-2.95-8.46-4.55.77-1.11 1.83-1.82 3.19-2.12z"/>
    <path fill="#ad2126" d="M40.92 66.2l.65-.59c.03 2.45.93 4.69 2.9 6.19.52-1.37 1.07-2.74 1.64-4.09l.39.22c2.77 1.6 5.58 3.15 8.46 4.55-1.06 4.02-.84 9.45 3.85 10.94l1.04.61c-4.58.32-10.34.66-13.29-3.62-2.89-4.12-6.24-8.97-5.64-14.21z"/>
    <path fill="#5a1116" d="M98.94 66.35c1.63 1.27 2.64 3.18 3.52 5.02.39 4.33.84 8.7 2.5 12.77-1.3.15-2.61.28-3.91.42-2.28-4.21-.08-9.25-2.28-13.5-.17-1.57.07-3.15.17-4.71z"/>
    <path fill="#b52426" d="M32.59 70.6c.84-1.05.71-3.62 2.87-2.62l1.63-.59v.5l-.01.57c.92.39 1.83.83 2.72 1.3 2.4 6.14 5.57 14.86 13.37 15.08 2.24 3.31 3.72 7.14 3.98 11.14-2.1-.03-4.19-.07-6.28-.12-2.08-2.62-4.69-5.24-8.23-5.5-8.21-.14-16.42-3.65-21.93-9.8 3.2-1.97 6.65-3.82 8.52-7.23 1.18-.83 2.67-1.37 3.36-2.73z"/>
    <path fill="#a22026" d="M22.24 70.15c1.96 1.76 4.21 3.37 6.99 3.18-1.87 3.41-5.32 5.26-8.52 7.23-.76-1.19-2.47-2.09-2.19-3.7.98-1.58 2.54-2.57 4.18-3.33-.14-1.13-.25-2.26-.46-3.38z"/>
    <path fill="#a52126" d="M71.17 71.05C74.46 69.9 78.19 68.6 81.6 70c-.87 2.17-.82 4.55-1.13 6.84-2.66 1.09-5.43 1.84-8.1 2.87-1.19-1.12-2.3-2.33-3.33-3.6.66-1.71 1.36-3.4 2.13-5.06z"/>
    <path fill="#4a1010" d="M94.74 77.51c1.53-2.03 2.89-4.18 4.03-6.45 2.2 4.25 0 9.29 2.28 13.5 1.3-.14 2.61-.27 3.91-.42 3.16 3.82 6.28 7.98 7.34 12.92-5.69-.65-10.74-4-13.57-8.97 1.81-3.89-2.34-7.3-3.99-10.58z"/>
    <path fill="#380c0d" opacity=".95" d="M78.24 80.44c.82-.53 1.63-1.08 2.43-1.65 1.7.89 1.61 3.29 3.3 4.27 1.34 1.5 3.98 1.57 4.44 3.85-4.03-.66-9.1-1.84-10.17-6.47z"/>
    <path fill="#ad2429" d="M71.14 81.14c2.1.12 4.23-1.74 6.19-.83-2.78 4.43-7.24 8.09-8.45 13.32l-.24-.36c-.14-.2-.42-.59-.55-.79.95-3.8 1.78-7.63 3.05-11.34z"/>
    <path fill="#350c0d" opacity=".93" d="M54.54 84.74c2.08 1.01 4.14 2.05 6.17 3.15.26 4.35-.33 8.68-.53 13.02-2.76 1.17-2.27 5.95-5.88 4.85.16-.86.47-2.56.62-3.42 1.29-.54 2.43-1.34 3.5-2.22-.08-5.41-1.32-10.61-3.88-15.38z"/>
    <path fill="#29090b" opacity=".85" d="M88.35 85.77c4.73.78 4.73 7.25 2.64 10.61-.54.42-1.6 1.26-2.13 1.68-.13-1.06-.09-2.13.19-3.16 1.54-2.92.21-6.25-.7-9.13z"/>
    <path fill="#7e1818" d="M64.61 88.3c.74-.03 2.23-.1 2.97-.13-1.16 4.94-1.95 10.02-1.52 15.1-.84-2.21-1.17-4.57-1.51-6.9-1.06-.55-2.13-1.09-3.2-1.61l.04-2.24c1.87-.7 2.59-2.49 3.22-4.22z"/>
    <path fill="#581310" d="M61.35 94.76c1.07.52 2.14 1.06 3.2 1.61.34 2.33.67 4.69 1.51 6.9.12.34.35 1.01.47 1.35-1.7 2.54-5.91 4.02-8.87 2.46-.45-2.4 1.38-4.59 3.41-5.6.96.86 1.94 1.71 3.03 2.4-.85-1.19-2.02-2.07-3.19-2.92.16-2.07.35-4.13.44-6.2z"/>
    <path fill="#27070a" opacity=".74" d="M85.77 97.88c.75-1.35 1.52-2.88 3.28-2.98-.28 1.03-.32 2.1-.19 3.16.05.51.16 1.54.22 2.05-1.1-.77-2.21-1.49-3.31-2.23z"/>
    <path fill="#9a1b1b" d="M50.87 95.86c2.09.05 4.18.09 6.28.12.1 1.25.19 2.5.29 3.75-1.17.69-2.33 1.38-3.49 2.08-.89-2.05-1.93-4.03-3.08-5.95z"/>
</svg>
