<svg width="128pt" height="128pt" viewBox="0 0 128 128" xmlns="http://www.w3.org/2000/svg">
    <g fill="#fff">
        <path d="M35.1 43.82c1.24 1.34 2.41 2.75 3.49 4.23 2.02-.03 4.03-.05 6.05-.05 1.07-1.63 2.23-3.2 3.52-4.67 1.28 3.03 3.09 6.94-.01 9.53 3.86 2.37 4.41 7.19 2.72 11.1-3.01.74-6.12 1.03-9.12.07-2.3 1.2-4.97 3.88-7.68 2.55-1.28-1.52-3.31-2.67-4.07-4.47.96-1.65 3.83-2.32 4.31-4.44-.32-1.74-.04-3.41.74-5-.03-2.95-.19-5.91.05-8.85m7.4 11.51c-1.34.2-3.78.9-3.24 2.71 1.26.88 2.27-1.08 3.35-1.47 1.16-.13 1.27-1.75-.11-1.24m-11.27 6.75c-.65 1.29 1.74 2.66 2.59 1.42 1.06-1.57-1.64-2.3-2.59-1.42m3 3.2c-.04.26-.11.76-.15 1.02 3.23-.74 5.76-3.09 8.91-4.01l.03-.31c-.66.03-2 .1-2.66.14-1.89 1.33-3.9 2.51-6.13 3.16z"/>
        <path d="M51.48 51c3.15.16 6.27 1.02 9.18 2.23 4.47 2.01 9.48 2.04 14.25 2.71 5.87.12 12.35-.96 17.27 3.11-1.74.19-3.9-.71-5.34.68-2.66 2.32-3.8 5.85-4.95 9.09-3.73-1-7.4.28-10.99 1.22-3.32-5.33-6.23-11.17-11.43-14.97-.49.61-.98 1.22-1.47 1.84.19 1.8.6 3.68-.46 5.3-1.4.97-2.8 1.93-4.19 2.92-.5-.42-1-.85-1.49-1.27 1.99-3.72 1.43-8.25-1.75-11.12.34-.43 1.03-1.31 1.37-1.74z"/>
        <path d="M59.02 56.14c.43.28 1.3.83 1.73 1.11.26.24.8.73 1.06.97 3.14 3.91 5.75 8.24 7.87 12.78-.81 1.61-1.69 3.2-2.22 4.92.39 1.66 1.66 2.89 2.58 4.26-2.29 6.71-4.18 13.75-4.01 20.89-.18 1.51.88 3.29-.16 4.61-2.58 1.11-5.32 3.06-8.08 1.23.08-.61.23-1.84.31-2.45.88-.96 1.76-1.91 2.64-2.87 1.15.86 2.29 1.74 3.48 2.54-.94-1.27-1.5-3.07-3.28-3.36.8-5.79.81-11.66 0-17.45-2.13-1.25-4.7-2.64-5.03-5.37-.29-4.26 1.65-8.72-.72-12.67 1.21-1.21 2.52-2.33 3.76-3.51-.01-1.87.04-3.75.07-5.63zM88.96 59.82c4.17-.04 8.87 2.79 9.07 7.3-.49 3.02-1.94 5.79-3.76 8.21-.48.62-.96 1.25-1.43 1.89 1.98 2.58 3.57 5.41 5 8.33-1.43 4.25-1.84 8.73-2.13 13.17-.46.32-1.37.97-1.82 1.29-1.82-.01-3.64-.02-5.46-.09-.13-1.68 1.29-2.88 2.52-3.73.85.45 2.56 1.37 3.41 1.83-.59-.82-1.19-1.63-1.79-2.44.41-2.81.06-5.63-.12-8.44-3.8-2.37-9.35-4.11-9.85-9.33-.52-6.44 1.32-13.63 6.36-17.99z"/>
        <path d="M40.95 65.99l.51.01c.16 2.39 1.17 4.49 3.07 5.97.52-3.52 3.41-5.71 6.55-6.86 4.52 1.3 4.37 6.23 3.61 9.98-.93 3.42.8 7.27 4.3 8.31l.05.61c-3.88-.07-8.57.7-11.41-2.63-3.71-4.2-6.94-9.6-6.68-15.39zM99.22 66.3c4.92 5.01 2.55 12.64 6.02 18.32 2.98 3.74 5.72 7.83 7.06 12.47-5.22-1.16-10.54-3.71-13.05-8.71.91-4.22-2.42-7.46-4.19-10.93 2.39-3.28 4.51-6.92 4.16-11.15zM71.14 71.02c3.35-1.18 6.91-2.13 10.47-1.36-.51 2.42-.84 4.87-1.14 7.33-2.69.98-5.41 1.84-8.12 2.77-1.2-1.19-2.38-2.4-3.52-3.65.75-1.7 1.51-3.4 2.31-5.09zM78.26 80.24c.88-.51 1.77-1.01 2.67-1.51.97 3.91 4.64 5.79 7.78 7.76-4.27-.04-9.14-1.73-10.45-6.25zM54.74 84.86c1.86 1.11 3.78 2.12 5.69 3.13.19 4.25-.35 8.48-.49 12.72-1.54 1.39-2.66 3.12-3.58 4.96-.56-.1-1.68-.31-2.23-.41.34-.88.68-1.76 1.02-2.63 1.23-.73 2.4-1.53 3.56-2.35-.17-5.4-1.17-10.73-3.97-15.42z"/>
        <path d="M88.66 85.97c3.96 1.15 3.29 5.76 2.71 8.89-1.39 1.23-4.05 1.89-3.61 4.32-.4-.47-1.22-1.4-1.62-1.86 1.3-1.09 2.65-2.12 3.96-3.22.02-2.78-.42-5.53-1.44-8.13z"/>
    </g>
</svg>
