<svg width="128pt" height="128pt" viewBox="0 0 128 128" xmlns="http://www.w3.org/2000/svg">
    <path fill="#591112" opacity=".71" d="M63.3 11.35c3.71 4.48 4.58 10.58 5.72 16.12-.93-2.48-1.77-4.99-2.47-7.54-.39-.21-1.18-.64-1.58-.85-.25-2.41-.69-4.79-1.47-7.08l-.2-.65z"/>
    <g fill="#af2021">
        <path d="M63.5 12c.78 2.29 1.22 4.67 1.47 7.08.4.21 1.19.64 1.58.85.7 2.55 1.54 5.06 2.47 7.54l.07.23c1.69 7.9 3.03 15.99 2.59 24.1-.21 4.36-.24 8.88-2.04 12.95-1.54 2.3-3.86 3.92-5.87 5.79-1.28-1.12-2.56-2.24-3.82-3.38-1.77-1.27-2.88-3.17-2.99-5.36-.35-4.6-1.06-9.18-.99-13.8.07-11.32 3.15-22.3 6.29-33.08L63.5 12m-.18 20.71c-4.92 8.82-3.05 19.27-3.28 28.91.17.03.52.1.69.14.26-1.13.49-2.27.69-3.41l.55-.48c.62 1.02 1.23 2.03 1.85 3.05l1.6-2.88c1.42 2.89.01 5.86-1.37 8.43-.92-1.16-1.56-2.63-2.82-3.46-.48 2.09 1.21 3.63 2.08 5.3 5.97-4.2 3.85-12.15 4.08-18.31-.17-5.84.64-12.93-4.07-17.29zM20.68 31.1c.13-.44.4-1.31.53-1.75 3.67 3.68 7.44 7.25 11.47 10.53 1.02.94 2.02 1.91 3.03 2.87.18 2.12.38 4.24.55 6.36-4.15-2.54-8.13-5.37-11.72-8.66-2.96-2.19-4.38-5.71-3.86-9.35z"/>
    </g>
    <path fill="#330909" opacity=".58" d="M60.47 18.14c.29-1.22 1.07-2.23 1.79-3.22C59.12 25.7 56.04 36.68 55.97 48c-.07 4.62.64 9.2.99 13.8-.05.37-.14 1.12-.19 1.49-.25-.73-.76-2.19-1.02-2.92-6.14-5.01-12.74-9.43-18.79-14.57.57-.26 1.71-.8 2.28-1.06 4.21 3.07 8.61 7.75 14.28 6.99 2.59-1.08 1.37-4.61 1.84-6.8.19-9.16 2.7-18.02 5.11-26.79M45.62 50.9c3.33 2.72 6.84 5.21 10.09 8.02-.16-2.33-.3-4.65-.42-6.98-3.22 1.92-6.61.39-9.67-1.04z"/>
    <path opacity=".18" d="M69.09 27.7c.82.97 1.56 2.05 1.72 3.35 1.42 6.61 2.2 13.34 2.51 20.09 2.09.25 4.21.28 6.31.13l-1.1.94c-2.22.6-4.47.07-6.63-.5.02 1.91.03 3.81.01 5.71.87.45 1.75.91 2.62 1.37-4.02.2-3.54 4.6-4.38 7.39 3.09.67 6.18 1.47 9.02 2.9-.08-1.61-.23-3.24.09-4.83 2.52-3.82 6.58-6.16 9.66-9.46 1.63-1.7 1.21-4.2 1.31-6.34.25 1.26.48 2.53.7 3.79l.15 1.2c4.18-1.17 8.35-2.49 12.19-4.54.64 1.52 2.48 3.28 1.14 4.91-.15-.36-.44-1.08-.59-1.44-4.31-.61-8.7.55-12.93 1.35-.7.73-2.09 2.2-2.78 2.93 4.97 1.29 10.25 1.6 15.17-.1-1.61 1.16-3.22 2.31-4.84 3.44-4.35-1.34-9.46-3.95-13.72-1.1 3.88 2.5 8.04 4.94 12.78 5.12.41.05 1.22.16 1.63.21-1.25.35-2.5.7-3.75 1.04l-1.65 2.37c-5.1-.13-10 1.35-14.79 2.94-.45-.14-1.33-.42-1.78-.56l-.96-.31-.82-.27c-2.12-.51-4.27-1.02-6.46-1.02-2.02 1.02-3.48 2.86-5.15 4.34-1.57-1.45-3.13-2.91-4.68-4.37l-4.56.21c1.69-.87 3.55-1.25 5.42-1.43 1.26 1.14 2.54 2.26 3.82 3.38 2.01-1.87 4.33-3.49 5.87-5.79 1.8-4.07 1.83-8.59 2.04-12.95.44-8.11-.9-16.2-2.59-24.1m12.75 34.22c1.67 1.59 3.17 3.48 5.3 4.49 2.39.54 4.83-.14 7.19-.5-2.89-2.29-6.09-4.2-9.43-5.76-1.09.46-2.11 1.05-3.06 1.77m-.64 1.06c-1.05.74-1.56 1.75-1.53 3.03.51 2.76 3.79 2.83 5.96 2.37-.89-2.04-1.98-4.91-4.43-5.4z"/>
    <g fill="#110303">
        <path opacity=".42" d="M21.52 39.96c-1.01-3.51-3.51-8.55-.07-11.38l-.24.77c-.13.44-.4 1.31-.53 1.75-.52 3.64.9 7.16 3.86 9.35 3.59 3.29 7.57 6.12 11.72 8.66-.17-2.12-.37-4.24-.55-6.36-1.01-.96-2.01-1.93-3.03-2.87 2.41 1.42 4.66 3.1 6.99 4.65l-.43.21c-.57.26-1.71.8-2.28 1.06.5 3.31-.13 7.3 2.57 9.78 3.72 3.66 9.19 6.45 9.6 12.3 1.39-.18 2.78-.38 4.17-.58-1.48.91-2.98 1.8-4.48 2.69-.85-.56-1.7-1.11-2.56-1.67.7-.99 1.49-1.94 1.9-3.1-.83-.92-1.74-1.75-2.64-2.6-1.28 1.92-2.55 3.84-3.8 5.78-.38-.29-1.14-.88-1.52-1.17l-6.57.27c-.19-.67-.57-2.02-.77-2.69-1.91-.24-3.88-.5-5.39-1.83 5.24 2.35 10.19-1.48 14.66-3.76-.55-.49-1.66-1.46-2.21-1.95-4.95 1.03-10.14 1.91-14.23 5.13.35-1.75 2.05-2.57 3.34-3.56-1.45-.6-2.86-1.25-4.23-2 4.77 1.04 9.72 1.09 14.42-.32-.61-.65-1.84-1.97-2.46-2.62-4.55-1.16-9.23-1.62-13.92-1.72.33.87 1 2.62 1.33 3.5-.43-.02-1.28-.05-1.7-.07.1-1.37.19-2.73.28-4.1 2.16-.13 4.31-.4 6.47-.38 2.46.73 4.89 1.54 7.33 2.34-.22-1.35-.44-2.7-.66-4.04-4.75-2.7-9.74-4.95-14.58-7.51.5 2.12.97 4.25 1.54 6.35-2.51-2.02-2.67-5.57-1.33-8.31m11.72 25.8c2.22.3 4.5 1.12 6.74.5 2.38-.59 3.83-2.72 5.42-4.4-.65-.38-1.94-1.16-2.58-1.55-3.48 1.19-6.44 3.56-9.58 5.45zM62.03 54.6c.51-1.36 1.11-2.7 1.71-4.03.41.8 1.25 2.4 1.66 3.2.09 1.42.1 2.85.02 4.27l-1.6 2.88c-.62-1.02-1.23-2.03-1.85-3.05.21-.18.61-.54.82-.72 2.22 2.39 2.77-2.21 1.03-3.22-.25.37-.77 1.11-1.03 1.48l-.76-.81zM75.38 69.43l.82.27c.16 7.04-.28 14.48-3.84 20.75-.82-.18-2.47-.53-3.3-.71 3.05-4.02 6.55-9.46 4.82-14.55-2.23.55-4.4 1.29-6.64 1.82.25-1.63.05-3.42.96-4.87 2.16.1 4.29.53 6.44.84.18-.89.55-2.66.74-3.55m-6.1 5.55c.11 3.31 3.03-1.55 0 0zM53.51 73.8c.91-.71 1.81-1.42 2.72-2.13 1.39.35 2.78.7 4.17 1.06-.16 1.43-.32 2.86-.49 4.3-2.51-.22-4.75-1.3-6.57-3.02l.17-.21m3.68 1.31c.31 3.31 2.95-1.62 0 0zM73.43 100.22c.98-3 2.4-6.31 5.03-8.19-1.61 4.23-6 8.84-2.56 13.39.27-3.48.94-6.95 2.93-9.89-1.43 4.54-1.82 9.28-2.32 13.99-1.48-2.9-4.11-5.79-3.08-9.3z"/>
    </g>
    <path fill="#b02023" d="M102.36 33.2c1.41-1.56 3.02-2.94 4.85-4.01-.07 2.67.05 5.48-1.01 7.99-2.48 3.47-6.02 6.02-9.52 8.39-.18.13-.54.38-.72.51-.56.44-1.11.88-1.65 1.35-.68.14-2.03.43-2.71.58.1-1.66.2-3.32.28-4.98l.03-.68c2.12-1.68 4.06-3.57 6.21-5.21.91-.36 1.65-.96 2.2-1.78l1.94-2.06.1-.1z"/>
    <path fill="#621212" opacity=".82" d="M63.32 32.71c4.71 4.36 3.9 11.45 4.07 17.29-.23 6.16 1.89 14.11-4.08 18.31-.87-1.67-2.56-3.21-2.08-5.3 1.26.83 1.9 2.3 2.82 3.46 1.38-2.57 2.79-5.54 1.37-8.43.08-1.42.07-2.85-.02-4.27 1.33-6.33 1.37-13.18-1.82-19-2.57 5.98-3.13 12.58-2.34 18.99.2.21.59.63.79.84l.76.81v1.74c-.21.18-.61.54-.82.72l-.55.48c-.2 1.14-.43 2.28-.69 3.41-.17-.04-.52-.11-.69-.14.23-9.64-1.64-20.09 3.28-28.91z"/>
    <path fill="#58110f" opacity=".72" d="M102.26 33.3l.1-.1-.1.1z"/>
    <g fill="#b02021">
        <path d="M63.58 34.77c3.19 5.82 3.15 12.67 1.82 19-.41-.8-1.25-2.4-1.66-3.2-.6 1.33-1.2 2.67-1.71 4.03-.2-.21-.59-.63-.79-.84-.79-6.41-.23-13.01 2.34-18.99zM74.93 58.52c4.54-4.46 9.88-7.98 14.99-11.75.08.42.23 1.26.31 1.68-.1 2.14.32 4.64-1.31 6.34-3.08 3.3-7.14 5.64-9.66 9.46-.32 1.59-.17 3.22-.09 4.83-2.84-1.43-5.93-2.23-9.02-2.9.84-2.79.36-7.19 4.38-7.39-.87-.46-1.75-.92-2.62-1.37.02-1.9.01-3.8-.01-5.71 2.16.57 4.41 1.1 6.63.5l1.79-.32c-1.82 1.48-3.66 2.95-5.49 4.43.02.55.07 1.65.1 2.2z"/>
    </g>
    <path fill="#0c0202" opacity=".31" d="M98.12 37.14c-.31-1.83.42-2.42 2.2-1.78-.55.82-1.29 1.42-2.2 1.78z"/>
    <g fill="#ad2021">
        <path d="M96.17 46.97c3.31-1.88 6.63-3.78 10.14-5.27-.59 2.46-.42 5.89-3.04 7.2-3.84 2.05-8.01 3.37-12.19 4.54l-.15-1.2c.93-1.73 2.09-3.32 3.38-4.81.54-.47 1.09-.91 1.65-1.35.18-.13.54-.38.72-.51l-.51 1.4zM21.31 41.92c4.84 2.56 9.83 4.81 14.58 7.51.22 1.34.44 2.69.66 4.04-2.44-.8-4.87-1.61-7.33-2.34-2.21-.74-4.34-1.72-6.37-2.86-.57-2.1-1.04-4.23-1.54-6.35zM39.53 55.58c-2.7-2.48-2.07-6.47-2.57-9.78 6.05 5.14 12.65 9.56 18.79 14.57.26.73.77 2.19 1.02 2.92.31.96.6 1.93.89 2.91-1.45.38-2.89.83-4.36 1.1-1.39.2-2.78.4-4.17.58-.41-5.85-5.88-8.64-9.6-12.3zM45.62 50.9c3.06 1.43 6.45 2.96 9.67 1.04.12 2.33.26 4.65.42 6.98-3.25-2.81-6.76-5.3-10.09-8.02zM90.89 53.72c4.23-.8 8.62-1.96 12.93-1.35.15.36.44 1.08.59 1.44-.28.69-.85 2.06-1.13 2.74-4.92 1.7-10.2 1.39-15.17.1.69-.73 2.08-2.2 2.78-2.93zM22.84 52.18c4.69.1 9.37.56 13.92 1.72.62.65 1.85 1.97 2.46 2.62-4.7 1.41-9.65 1.36-14.42.32l-.21-.04-.42-1.12c-.33-.88-1-2.63-1.33-3.5z"/>
        <path d="M25.69 62.4c4.09-3.22 9.28-4.1 14.23-5.13.55.49 1.66 1.46 2.21 1.95-4.47 2.28-9.42 6.11-14.66 3.76l-1.78-.58zM84.72 58.89c4.26-2.85 9.37-.24 13.72 1.1 1.2.58 2.37 1.22 3.52 1.91-1.47.74-2.93 1.5-4.46 2.11-4.74-.18-8.9-2.62-12.78-5.12zM33.24 65.76c3.14-1.89 6.1-4.26 9.58-5.45.64.39 1.93 1.17 2.58 1.55-1.59 1.68-3.04 3.81-5.42 4.4-2.24.62-4.52-.2-6.74-.5zM81.84 61.92c.95-.72 1.97-1.31 3.06-1.77 3.34 1.56 6.54 3.47 9.43 5.76-2.36.36-4.8 1.04-7.19.5-2.13-1.01-3.63-2.9-5.3-4.49zM45.52 62.62c.9.85 1.81 1.68 2.64 2.6-.41 1.16-1.2 2.11-1.9 3.1l-.35.48c-1.39-.14-2.79-.28-4.19-.4 1.25-1.94 2.52-3.86 3.8-5.78zM53.4 68.64l1.13-.05 4.56-.21c1.55 1.46 3.11 2.92 4.68 4.37 1.67-1.48 3.13-3.32 5.15-4.34 2.19 0 4.34.51 6.46 1.02-.19.89-.56 2.66-.74 3.55-2.15-.31-4.28-.74-6.44-.84-.91 1.45-.71 3.24-.96 4.87 2.24-.53 4.41-1.27 6.64-1.82 1.73 5.09-1.77 10.53-4.82 14.55-1.53 1.6-3.74 2.83-6.01 2.67-3.91-1.07-6.83-4.48-8.2-8.18-.9-3.05-1.76-6.12-2.16-9.27.16-.24.48-.71.65-.95 1.82 1.72 4.06 2.8 6.57 3.02.17-1.44.33-2.87.49-4.3-1.39-.36-2.78-.71-4.17-1.06-.91.71-1.81 1.42-2.72 2.13-1.22-1.59-.53-3.44-.11-5.16m7.55 11.91c-1.01 1.88 3.15 3.76 3.7 1.92-1.09-.74-2.33-2.03-3.7-1.92m4.92-.18c-1.58 2.97 3.34.19 0 0m-7.17 5.44c3.26.26 6.53.25 9.78.04-2.43-3.08-7.16-2.68-9.78-.04m2.55 1.49c.45 1.31 4.11 1.32 4.61.03-1.36-.75-3.24-.75-4.61-.03z"/>
        <path d="M76.2 69.7l.96.31c.28 5.38-.32 10.76-.93 16.1-.25 4.67-3.97 7.89-6.29 11.62.37 2.27.13 4.54-.6 6.71-4.2-4.75-.29-10.2 3.02-13.99 3.56-6.27 4-13.71 3.84-20.75z"/>
        <path d="M78.21 92.04c2.06-5.28-1-11.02 1.01-16.38.02 5.8.61 11.58.65 17.38-.25.87-.6 1.7-1.04 2.49-1.99 2.94-2.66 6.41-2.93 9.89-3.44-4.55.95-9.16 2.56-13.39-2.63 1.88-4.05 5.19-5.03 8.19-1.03 3.51 1.6 6.4 3.08 9.3.16.32.47.95.63 1.27-3.26-2.49-7.94-5.66-6.15-10.45.85-3.95 3.52-7.07 6.12-10.01.15-1.61.31-3.22.48-4.83.2 2.18.41 4.36.62 6.54zM51.01 80.71c.16-.39.49-1.16.66-1.55.26 2.48.76 4.94 1.72 7.25.87 2.14 2.01 4.16 3.26 6.1 2.39 3.25 4.16 7.4 1.87 11.2-.38-2.01-.52-4.08-1.16-6.04-1.42-3.1-4.23-5.35-5.5-8.53-.9-2.71-.85-5.61-.85-8.43z"/>
        <path d="M47.58 89.83c.84 1.88 1.63 3.78 2.39 5.69.44-.51.87-1.03 1.31-1.55-.58-1.5-1.14-3.01-1.67-4.52 2.1 2.57 4.42 5.03 6 7.97.78 2.73.35 5.63.38 8.43-1.78 1.8-3.62 3.56-5.83 4.83l1.17-1.93c.97-1.57 2.06-3.09 2.67-4.85.66-2.64-.47-5.26-1.2-7.76-.59-.14-1.77-.41-2.37-.55 2.65 2.93 3.26 7.11 1.01 10.44-.21-3.26-.26-6.67-2.24-9.43-1.36-2-1.54-4.42-1.62-6.77z"/>
    </g>
    <path fill="#460d0d" opacity=".71" d="M79.63 51.27c3.87-3.03 7.98-5.8 12.25-8.24-.08 1.66-.18 3.32-.28 4.98.68-.15 2.03-.44 2.71-.58-1.29 1.49-2.45 3.08-3.38 4.81-.22-1.26-.45-2.53-.7-3.79-.08-.42-.23-1.26-.31-1.68-5.11 3.77-10.45 7.29-14.99 11.75-.03-.55-.08-1.65-.1-2.2 1.83-1.48 3.67-2.95 5.49-4.43l-1.79.32 1.1-.94z"/>
    <path fill="#aa2021" d="M62.79 55.41c.26-.37.78-1.11 1.03-1.48 1.74 1.01 1.19 5.61-1.03 3.22v-1.74z"/>
    <path fill="#a61f20" opacity=".98" d="M81.2 62.98c2.45.49 3.54 3.36 4.43 5.4-2.17.46-5.45.39-5.96-2.37-.03-1.28.48-2.29 1.53-3.03z"/>
    <path fill="#2c0808" opacity=".59" d="M48.43 71.44c.52-2.2 3.29-1.97 4.97-2.8-.42 1.72-1.11 3.57.11 5.16l-.17.21c-.17.24-.49.71-.65.95.4 3.15 1.26 6.22 2.16 9.27-.37.54-1.1 1.63-1.46 2.18-.96-2.31-1.46-4.77-1.72-7.25-.07-3.14-.29-6.28-.81-9.39-2.6 6.22-2.1 13.29-1.29 19.84.35-2.98.19-6.11 1.44-8.9 0 2.82-.05 5.72.85 8.43 1.27 3.18 4.08 5.43 5.5 8.53.64 1.96.78 4.03 1.16 6.04 2.29-3.8.52-7.95-1.87-11.2 2.42 1.68 4.11 4.5 3.74 7.52.27 2.85-2.66 4.15-4.4 5.82-.03-2.8.4-5.7-.38-8.43-1.58-2.94-3.9-5.4-6-7.97.53 1.51 1.09 3.02 1.67 4.52-.44.52-.87 1.04-1.31 1.55-.76-1.91-1.55-3.81-2.39-5.69-.37-.62-.5-1.28-.4-1.97.98-3.15.87-6.43.06-9.6-.15-2.32.48-4.63 1.19-6.82z"/>
    <path fill="#2a0807" opacity=".58" d="M77.16 70.01c.45.14 1.33.42 1.78.56 2.1 7.31 2.58 15.01.93 22.47-.04-5.8-.63-11.58-.65-17.38-2.01 5.36 1.05 11.1-1.01 16.38-.21-2.18-.42-4.36-.62-6.54-.17 1.61-.33 3.22-.48 4.83-2.6 2.94-5.27 6.06-6.12 10.01-.26-.66-.79-1.96-1.05-2.61 2.32-3.73 6.04-6.95 6.29-11.62.61-5.34 1.21-10.72.93-16.1z"/>
    <path fill="#6c1414" opacity=".84" d="M49.57 89.61c-.81-6.55-1.31-13.62 1.29-19.84.52 3.11.74 6.25.81 9.39-.17.39-.5 1.16-.66 1.55-1.25 2.79-1.09 5.92-1.44 8.9z"/>
    <path fill="#951e1f" opacity=".96" d="M57.19 75.11c2.95-1.62.31 3.31 0 0z"/>
    <path fill="#9c1e1c" opacity=".96" d="M69.28 74.98c3.03-1.55.11 3.31 0 0z"/>
    <path fill="#731616" opacity=".85" d="M47.24 78.26c.81 3.17.92 6.45-.06 9.6-.54-3.18-.55-6.43.06-9.6z"/>
    <path fill="#500f0f" opacity=".76" d="M60.95 80.55c1.37-.11 2.61 1.18 3.7 1.92-.55 1.84-4.71-.04-3.7-1.92z"/>
    <path fill="#450e0e" opacity=".76" d="M65.87 80.37c3.34.19-1.58 2.97 0 0z"/>
    <path fill="#1d0406" opacity=".55" d="M58.7 85.81c2.62-2.64 7.35-3.04 9.78.04-3.25.21-6.52.22-9.78-.04z"/>
    <path fill="#3c0a0c" opacity=".7" d="M61.25 87.3c1.37-.72 3.25-.72 4.61.03-.5 1.29-4.16 1.28-4.61-.03z"/>
    <path fill="#140304" opacity=".45" d="M50.43 95.59c.6.14 1.78.41 2.37.55.73 2.5 1.86 5.12 1.2 7.76-.61 1.76-1.7 3.28-2.67 4.85-1.53-3.89-.77-8.21-2.13-12.15 1.98 2.76 2.03 6.17 2.24 9.43 2.25-3.33 1.64-7.51-1.01-10.44z"/>
</svg>
