<svg width="128pt" height="128pt" viewBox="0 0 128 128" xmlns="http://www.w3.org/2000/svg">
    <path fill="#1f0708" opacity=".42" d="M57.15 21.15c.46-3.19.78-6.42 1.67-9.53 1.85-.03 1.45 2.21 1.85 3.38.48 6.02.5 12.08 1.62 18.04.14 7.36.77 14.69 1.39 22.03l1.75 1.79c-.11 1.51-.25 3.01-.39 4.51-.98.48-1.96.97-2.96 1.43 2.21-6.06-.09-12.69-.16-18.95.23-10.45-2.5-20.65-2.08-31.11-.73 2.85-1.32 5.78-2.69 8.41z"/>
    <path fill="#b22c2e" d="M67.97 25c.58-4.47-.32-9.13 1.36-13.43-.68 8.67 6.82 14.97 7.05 23.45.61 4.55-1.88 8.62-2.48 13.01 2.18-4.57 5.11-8.91 6.25-13.9.26-3.46-1.13-6.77-1.61-10.16 2.66 3.65 4.44 7.85 5.45 12.23.74 4.3 1.19 8.94-.74 13.02-1.67 3.62-3.99 7.25-3.41 11.43.79-4.8 3.12-9.02 5.58-13.13 2.59-4.23 1.5-9.27 1.03-13.89 4.13 4.31 5.32 10.58 4.97 16.35-.63 4.45-3.35 8.23-5.03 12.31 2.31-2 4.91-3.71 6.96-6 1.72-2.15 2.39-4.91 3.56-7.36.97 4.07 1.67 8.69-.43 12.54-1.78 3.96-6.27 5.49-8.62 9.03 2.28.07 4.74.39 6.85-.72 3.52-1.5 5.37-5.13 8.04-7.64-1.77 4.76-3.58 11.02-8.84 13.02-2.25.57-4.51 1.09-6.71 1.86 2.01.24 4.04.42 6.06.59-.38 1.27-.77 2.54-1.17 3.8-1.84 5.06-6.96 7.06-11.2 9.57-3.7 2.43-1.66 7.58-4.47 10.54-.48.7-.97 1.39-1.46 2.08-1.35 1.88-2.02 4.11-3.17 6.1-2.18 1.84-4.96 3.31-7.85 3.48-3.09-.83-7.06-1.86-8.14-5.3-1.11-3.11-3.31-5.61-4.98-8.4-.33-2.97-1-5.86-2.66-8.39-.44-.29-1.32-.88-1.75-1.17-2.86-.81-5.7-2.35-7.46-4.79-.25-.99-.78-1.78-1.59-2.39-.68-.76-1.15-1.64-1.39-2.64-.2-.63-.6-1.88-.8-2.5 2.12-.16 4.24-.31 6.35-.52-3.65-1.16-7.56-1.83-10.72-4.16-2.03-3.31-3.92-6.77-4.89-10.56 2.5 2.44 4.27 5.74 7.5 7.33 2.13 1.13 4.64.86 6.97 1.01-2.1-3.87-6.79-5.45-8.55-9.54-1.67-3.62-1.97-8.15.09-11.69 1.13 2.59 1.77 5.59 3.93 7.58 1.99 1.93 4.28 3.5 6.45 5.2-2.21-4.55-5.41-8.96-5.4-14.23.46-5.1 1.31-10.72 5.3-14.35-.36 3.54-1.32 7.19-.4 10.73 2.04 5.66 6.47 10.37 6.49 16.7 1.01-3.96-.75-7.59-2.58-10.99-2.61-4.76-1.93-10.38-.85-15.47.82-2.79 1.88-5.55 3.4-8.05.38-.56 1.14-1.7 1.52-2.27-.68 3.77-2.19 7.64-1.11 11.49 1.23 4.33 4.12 7.95 5.62 12.18.95 2.73.44 5.68.46 8.5 1.54-4.63.32-9.39-1.38-13.78-2.56-6.44-.54-13.54 2.61-19.37.39-.73.79-1.45 1.17-2.19 1.37-2.63 1.96-5.56 2.69-8.41-.42 10.46 2.31 20.66 2.08 31.11.07 6.26 2.37 12.89.16 18.95-2.44 1.16-5.25 1.35-7.62 2.69-2.74 1.61-3.62 5.36-2.28 8.16 2.1 4.72 6.92 7.73 11.79 8.9 6.42-1.02 14.44-6.71 12.49-14.11-1.69-4.99-8.25-3.56-11.42-7.07.14-1.5.28-3 .39-4.51-.15-6.33 1.39-12.54 1.08-18.87-.15-4.39 1.09-8.65 1.46-12.99M42.79 78.63c2.86 1.42 3.92 4.46 5.86 6.74 2.6 2.3 5.41 4.41 8.54 5.92-.34 1.64-.64 3.29-.89 4.94 3.19.47 5.36 3.94 8.62 3.6 2.23-1.32 4.35-2.84 6.87-3.61-.18-1.65-.38-3.29-.6-4.93 2.9-1.65 5.64-3.59 8.15-5.8 2.01-2.27 3.13-5.3 5.9-6.88-1.98.3-4.09.5-5.75 1.73-2.67 1.85-3.42 5.26-5.56 7.57-1.52 1.38-3.47 2.14-5.29 3.03-.05.3-.16.9-.21 1.19 3.31 3.19-2.15 5.11-4.36 6.57-2.37-1.02-4.32-2.76-6.11-4.57.59-.58 1.76-1.74 2.34-2.32-2.01-1.32-4.21-2.39-6.09-3.9-2-2.17-2.87-5.2-5.09-7.19-1.74-1.54-4.12-1.83-6.33-2.09m14.46 26.3c3.58 4.4 10.76 3.92 14.43-.1-4.73 1.58-9.7 1.94-14.43.1z"/>
    <g fill="#030000">
        <path opacity=".23" d="M48.26 26.59c-.34-1.97.94-2.66 2.64-2.85-.7 4.54-2.21 9.24-.52 13.76 1.32-4.85 1.43-10.68 5.6-14.16-3.15 5.83-5.17 12.93-2.61 19.37 1.7 4.39 2.92 9.15 1.38 13.78-.02-2.82.49-5.77-.46-8.5-1.5-4.23-4.39-7.85-5.62-12.18-1.08-3.85.43-7.72 1.11-11.49-.38.57-1.14 1.71-1.52 2.27zM41.8 44.4c.65-3.35 1.09-6.86 3.06-9.76-1.08 5.09-1.76 10.71.85 15.47 1.83 3.4 3.59 7.03 2.58 10.99-.02-6.33-4.45-11.04-6.49-16.7zM30.8 72.92c3.16 2.33 7.07 3 10.72 4.16-2.11.21-4.23.36-6.35.52.2.62.6 1.87.8 2.5l-1.77-3.51c-1.2-1.16-2.35-2.37-3.4-3.67zM87.2 77.02c2.2-.77 4.46-1.29 6.71-1.86-.13 2.19-.09 4.61-1.82 6.25.4-1.26.79-2.53 1.17-3.8-2.02-.17-4.05-.35-6.06-.59zM42.79 78.63c2.21.26 4.59.55 6.33 2.09 2.22 1.99 3.09 5.02 5.09 7.19 1.88 1.51 4.08 2.58 6.09 3.9-.58.58-1.75 1.74-2.34 2.32 1.79 1.81 3.74 3.55 6.11 4.57 2.21-1.46 7.67-3.38 4.36-6.57.05-.29.16-.89.21-1.19 1.82-.89 3.77-1.65 5.29-3.03 2.14-2.31 2.89-5.72 5.56-7.57 1.66-1.23 3.77-1.43 5.75-1.73-2.77 1.58-3.89 4.61-5.9 6.88-2.51 2.21-5.25 4.15-8.15 5.8.22 1.64.42 3.28.6 4.93-2.52.77-4.64 2.29-6.87 3.61-3.26.34-5.43-3.13-8.62-3.6.25-1.65.55-3.3.89-4.94-3.13-1.51-5.94-3.62-8.54-5.92-1.94-2.28-3-5.32-5.86-6.74m5.31 3.51c-.69 1.23 1.05 3.14 2.34 2.61.64-1.23-1.05-3.15-2.34-2.61m29.88 2.34c1.14.49 2.71-1.24 1.9-2.28-1.16-.51-2.73 1.24-1.9 2.28z"/>
    </g>
    <path opacity=".16" d="M83.7 34.23l2.75-.6c.47 4.62 1.56 9.66-1.03 13.89-2.46 4.11-4.79 8.33-5.58 13.13-.58-4.18 1.74-7.81 3.41-11.43 1.93-4.08 1.48-8.72.74-13.02-.07-.5-.22-1.48-.29-1.97z"/>
    <path fill="#791d1d" opacity=".85" d="M48.1 82.14c1.29-.54 2.98 1.38 2.34 2.61-1.29.53-3.03-1.38-2.34-2.61z"/>
    <path fill="#881f20" opacity=".91" d="M77.98 84.48c-.83-1.04.74-2.79 1.9-2.28.81 1.04-.76 2.77-1.9 2.28z"/>
    <path fill="#28090b" opacity=".45" d="M37.36 82.74c.81.61 1.34 1.4 1.59 2.39-1.82.08-2.35-.71-1.59-2.39z"/>
    <path fill="#3d0f0e" opacity=".64" d="M46.41 89.92c.43.29 1.31.88 1.75 1.17l-.86.34-.9-.6.01-.91z"/>
    <path fill="#561614" opacity=".78" d="M57.25 104.93c4.73 1.84 9.7 1.48 14.43-.1-3.67 4.02-10.85 4.5-14.43.1z"/>
</svg>
