<svg width="128pt" height="128pt" viewBox="0 0 128 128" xmlns="http://www.w3.org/2000/svg">
    <g fill="#fff">
        <path d="M54.68 76.89c5.53-.32 11.53-1.38 16.82.5-2.96 1.27-4.53 4.47-4.07 7.61.55 3.46 1.43 6.86 2.33 10.24-4.33.42-8.75.54-13.07-.01.97-4.33 2.75-8.69 2.16-13.19-.41-2.33-2.52-3.72-4.17-5.15zM55.7 96.74c4.75.14 9.71 1.08 14.44-.28.49.36 1.46 1.09 1.95 1.46.23 2.31.87 4.56 1.47 6.8-3.01.68-6.14 1.17-9.23.77l.43 1.02c-3.75-1.18-7.73-.95-11.53-1.78.43-2.57.31-6.26 2.47-7.99z"/>
    </g>
</svg>
