<svg width="128pt" height="128pt" viewBox="0 0 128 128" xmlns="http://www.w3.org/2000/svg">
    <path fill="#270909" opacity=".52" d="M36.5 17.8c.83-2.59 3.61-1.67 5.63-1.55 2.84.07 5.18 1.87 7.86 2.54 2.21-1.65 6.19-2.38 8.17-.04-1.96-.43-3.98-.98-5.99-.55 2.33 4.02 7.65 5.02 10.12 8.99-7.75-3.72-14.84-11.52-24.11-10 2.96 2.79 7.79 3.24 10.4 6.71-7.18-2.76-15.06-7.76-22.92-4.78.42-1.1 1.2-1.62 2.32-1.57 2.84-.18 5.68.24 8.52.25z"/>
    <g fill="#b22b2c">
        <path d="M38.18 17.19c9.27-1.52 16.36 6.28 24.11 10-2.47-3.97-7.79-4.97-10.12-8.99 2.01-.43 4.03.12 5.99.55 3.8 2.33 7.8 4.34 11.53 6.77 2.62 1.84 5.11 3.85 7.71 5.71-1.04-2.1-2.07-4.27-3.74-5.97-1.7-.47-2.94-1.43-3.7-2.89 4.77-.64 8.43 2.68 11 6.25-.7-2.01-1.73-3.86-3.08-5.54 2.23.41 4.89 1.07 6.17 3.14 1.86 3.36 2.59 7.28 4.96 10.36.27-3.58-1.73-6.64-3.18-9.74.59-.04 1.76-.11 2.35-.14 1.91 1.14 3.24 3.03 4.01 5.09.8 3.24.78 6.59 1.1 9.89 1.36-2.25 1.23-4.93 1.54-7.44 4.08 4.1 2.94 10.13 3.36 15.34 1.26-2.1 1.17-4.95 2.82-6.74.26.1.8.31 1.07.41.9 5.26-1.19 10.34-4.45 14.38 1.54-.7 3.09-1.38 4.63-2.1.32 2.62-1.3 4.45-3.17 5.99.53.35 1.6 1.03 2.13 1.37-1.04 1.22-2.09 2.44-3.13 3.66-.1.59-.3 1.77-.39 2.36-.25.34-.75 1.01-1 1.35-1.06 1.12-2 2.35-2.26 3.91-1.56 1.17-3.32 2-5.25 2.32.24.45.72 1.34.96 1.78-1.73.76-3.51 1.37-5.34 1.82.77.52 2.32 1.56 3.1 2.08-.96.32-2.88.97-3.84 1.29-.28-.02-.85-.07-1.13-.09-3.37.97-6.31 3.46-9.83 3.75-3.31-2.06-5.58-5.38-8.35-8.07 3.46-.67 6.77-1.86 9.87-3.51-.55-.78-1.11-1.56-1.66-2.34.81-.08 2.43-.23 3.24-.31-.2-.84-.41-1.69-.61-2.53 1.14-.14 2.28-.27 3.42-.41 1.05-3.28 1.61-6.83 3.87-9.57-.35-.19-1.06-.57-1.41-.76.26-.62.51-1.24.77-1.86-.65-1.93-.27-3.91.34-5.8-2.25-2.41-3.77-5.36-3.23-8.74-1.1.44-2.19.88-3.28 1.31-.16-1.36-.33-2.73-.49-4.1l-2.24-.36c-.51-.55-1.03-1.09-1.54-1.63-.77.42-1.55.84-2.32 1.26-.4-.42-1.2-1.25-1.6-1.67-.84.49-1.67.98-2.51 1.48-.4-.29-1.19-.85-1.59-1.14-2.1 2.33-4.33 4.56-6 7.24-2.37-.96-4.64-2.2-6.53-3.94-.58-.82-1.34-1.4-2.28-1.75-10.94-6.45-22.73-11.32-34.64-15.69-.33-2.07 1.89-2.98 3.55-2.61 6.5.4 12.82 1.69 18.96 3.82-3.38-2.82-7.94-3.74-11.92-5.5l.73-.82c7.86-2.98 15.74 2.02 22.92 4.78-2.61-3.47-7.44-3.92-10.4-6.71z"/>
        <path d="M46.04 48.78c4.39-1.78 9.87-1.34 13.72 1.45 2.6 3.8 2.64 8.86 5.42 12.65l-1.79 1.55c-.09.63-.27 1.89-.36 2.51-5.21 1.8-8.09 7.64-9.08 12.79-.44-.15-1.32-.45-1.77-.6-.09 2.52-1.22 4.72-2.34 6.91-.04 2.32.78 4.54 1.32 6.77-2.98-2.35-6.18-4.43-9.12-6.82-.72-.71-1.4-1.44-2.06-2.2-1.38-1.57-1.91-3.62-2.5-5.57l-1.9.68c.61-1.13 1.84-3.4 2.46-4.53-.76.11-2.27.32-3.03.42 1.35-1.28 2.69-2.57 4.01-3.89-.32-.42-.94-1.28-1.26-1.71 2.54-.81 4.2-2.97 6.11-4.7-.4-.31-1.22-.93-1.63-1.24 2.74-.71 5.34-3.11 5.58-6.02-1.55-1.39-3.2-2.68-4.93-3.85-1.47-.16-2.93.24-4.39.41.5-3.82 4.33-4.69 7.54-5.01z"/>
    </g>
    <path fill="#270908" opacity=".51" d="M69.69 25.52c.99-.06 2.98-.19 3.97-.26 1.67 1.7 2.7 3.87 3.74 5.97-2.6-1.86-5.09-3.87-7.71-5.71z"/>
    <path fill="#390d0d" opacity=".66" d="M84.05 26.22c1.38.15 2.75.29 4.13.48-.59.03-1.76.1-2.35.14 1.45 3.1 3.45 6.16 3.18 9.74-2.37-3.08-3.1-7-4.96-10.36z"/>
    <path fill="#2b0a0a" opacity=".54" d="M92.19 31.79l1.17 1.89c.66.08 1.98.23 2.63.31 1.88 2.48 2.76 5.45 2.91 8.54.75-.14 2.23-.42 2.97-.56 2.36 3.17.58 8.72-.92 12.42l1.37.58-.06.56c-1.54.72-3.09 1.4-4.63 2.1 3.26-4.04 5.35-9.12 4.45-14.38-.27-.1-.81-.31-1.07-.41-1.65 1.79-1.56 4.64-2.82 6.74-.42-5.21.72-11.24-3.36-15.34-.31 2.51-.18 5.19-1.54 7.44-.32-3.3-.3-6.65-1.1-9.89z"/>
    <path fill="#762929" d="M57.79 45.61c1.67-2.68 3.9-4.91 6-7.24.4.29 1.19.85 1.59 1.14.84-.5 1.67-.99 2.51-1.48.4.42 1.2 1.25 1.6 1.67.77-.42 1.55-.84 2.32-1.26.51.54 1.03 1.08 1.54 1.63l2.24.36c.16 1.37.33 2.74.49 4.1 1.09-.43 2.18-.87 3.28-1.31-.54 3.38.98 6.33 3.23 8.74-.61 1.89-.99 3.87-.34 5.8-.26.62-.51 1.24-.77 1.86.35.19 1.06.57 1.41.76-2.26 2.74-2.82 6.29-3.87 9.57-1.14.14-2.28.27-3.42.41.2.84.41 1.69.61 2.53-.81.08-2.43.23-3.24.31.55.78 1.11 1.56 1.66 2.34-3.1 1.65-6.41 2.84-9.87 3.51 2.77 2.69 5.04 6.01 8.35 8.07 3.52-.29 6.46-2.78 9.83-3.75.28.02.85.07 1.13.09 3.15 3.73 6.42 7.49 7.75 12.3 1-.53 1.99-1.09 2.97-1.65 1.77-2.3 3.5-5.05 3.07-8.09-.45-5-2.06-10.48 1.13-14.96 1.47-3.75 5.52-4.67 9.13-4.65 6.75 2.77 7.47 11.68 5.06 17.67-2.5 2.19-4.42 5.06-7.43 6.62.02-1.2.33-2.32.94-3.35-.48.05-1.44.15-1.92.21 1.32-3.62 2.49-8.09 6.64-9.37.28-3.26-.23-7.48-3.65-8.94-2.76-1.75-5.98.59-7.01 3.24-1.84 5.72 1.05 11.71-.39 17.47-1.44 4.11-3.67 8.61-8.1 10.08-2.36.61-3.18 3.12-4.15 5.08 1.11 1.65 2.47 3.21 2.28 5.36-7.52.9-15.11-.15-22.63.65-3.49.21-6.95-.39-10.41-.81.29-2.1 1.65-3.67 3.24-4.95 4.77 2.03 9.81-.27 14.74-.13-2.66-1.23-5.36-2.36-8.07-3.45l-.8-.32-.22-.55c-.99-2.18-1.27-4.56-1.41-6.91-2.65-.46-5.31-.87-7.96-1.27.17.84.51 2.52.68 3.37-2.18 2.92-4.8 5.6-6.31 8.95.78 1.88 2.41 3.29 3.44 5.04-6.37-2.77-13.4-1.88-19.83.21-1.86-.82-3.75-.41-5.51.49 2.51-6.51 10.42-2.49 15.22-5.21 3.39-1.25 4.47-4.94 6.21-7.74 1.12-1.48.89-3.38.39-5.04-.54-2.23-1.36-4.45-1.32-6.77 1.12-2.19 2.25-4.39 2.34-6.91.45.15 1.33.45 1.77.6.99-5.15 3.87-10.99 9.08-12.79 1.7-.41 3.46-.79 4.91-1.82 6.04-3.98 6.94-13.68 1.17-18.27-3.21-2.65-7.19.61-10.75-.24-.14-.25-.43-.75-.57-1z"/>
    <path fill="#1b0607" opacity=".38" d="M48.98 39.92c.94.35 1.7.93 2.28 1.75-1.74.67-2.5.09-2.28-1.75z"/>
    <path fill="#130505" opacity=".38" d="M102.32 54.97c1.5 2.3-.37 4.65-.78 6.99-.37 1.58-.75 3.14-1.22 4.69 2.57-.52 5.21-.67 7.8-.24-3.61-.02-7.66.9-9.13 4.65-3.19 4.48-1.58 9.96-1.13 14.96.43 3.04-1.3 5.79-3.07 8.09.9-2.94 2.51-5.85 2.15-9.02-.42-4.3-.99-8.58-1.55-12.86.43-.66.87-1.32 1.31-1.97.25-.34.75-1.01 1-1.35.09-.59.29-1.77.39-2.36 1.04-1.22 2.09-2.44 3.13-3.66-.53-.34-1.6-1.02-2.13-1.37 1.87-1.54 3.49-3.37 3.17-5.99l.06-.56z"/>
    <path fill="#1b0808" opacity=".47" d="M65.18 62.88l.76-.66c-.2.84-.59 2.52-.78 3.36.7-.11 2.09-.34 2.78-.46-1.45 1.03-3.21 1.41-4.91 1.82.09-.62.27-1.88.36-2.51l1.79-1.55z"/>
    <path fill="#140607" opacity=".52" d="M22.93 75.35c1.66-.61 3.59-2.3 5.23-.7l-2.11-.12c.86 1.48 1.65 3.01 2.34 4.58-1.82-1.25-3.58-2.6-5.46-3.76z"/>
    <path fill="#732829" d="M19.74 74.69c.79.17 2.39.5 3.19.66 1.88 1.16 3.64 2.51 5.46 3.76-.69-1.57-1.48-3.1-2.34-4.58l2.11.12c2.32 1.76 3.38 5.1 1.23 7.47 2.94 2.06 7.75 5.76 10.59 1.67.66.76 1.34 1.49 2.06 2.2-1.2 1.39-1.89 3.87-3.85 4.22-2.78-1.38-5.38-3.17-8.43-3.95-.25 2.26-1.27 5.03-4.11 4.99 1.36-2.61.84-5.81-.61-8.22-2.09-2.46-5.41-1.48-8.15-1.12 1.03-3.12 4.82-2.77 7.43-3.47-1.76-.94-4.16-1.45-4.58-3.75z"/>
    <path fill="#130607" opacity=".4" d="M56.87 92.74c2.65.4 5.31.81 7.96 1.27.14 2.35.42 4.73 1.41 6.91-2.59-.83-1.6-4.16-2.16-6.21-1.76-.23-3.54-.35-5.31-.37-.8 4.32-4.67 6.98-6.72 10.67 1.59 1.61 3.38 3.35 2.69 5.84-3.45-.69-6.84-2.11-10.43-1.64-5.03.17-9.91 3.22-14.97 1.59 1.76-.9 3.65-1.31 5.51-.49 6.43-2.09 13.46-2.98 19.83-.21-1.03-1.75-2.66-3.16-3.44-5.04 1.51-3.35 4.13-6.03 6.31-8.95-.17-.85-.51-2.53-.68-3.37z"/>
    <path fill="#160707" opacity=".43" d="M67.26 101.79c2.71 1.09 5.41 2.22 8.07 3.45-4.93-.14-9.97 2.16-14.74.13-1.59 1.28-2.95 2.85-3.24 4.95 3.46.42 6.92 1.02 10.41.81 7.42.32 14.85-.1 22.26.38-5.66.39-11.35.25-17.02.16-3.98-.1-7.97.68-11.93-.05-1.44-.37-3.59.11-4.24-1.65-.59-1.44.69-2.69 1.06-4.01 1-.46 2.01-.91 3.01-1.36 2.64 1.14 5.47 1.18 8.16.16-.6-.99-1.2-1.99-1.8-2.97z"/>
</svg>
