<svg width="128pt" height="128pt" viewBox="0 0 128 128" xmlns="http://www.w3.org/2000/svg">
    <g fill="#fff">
        <path d="M56.35 24.42c2.11-2.93 4.75-5.45 7.65-7.59 3.85 2.94 7.63 6.38 9.5 10.96 1.39 3.36 3.13 6.56 5.15 9.58 3.53 5.34 4.92 11.94 9.3 16.73-.01.44-.03 1.32-.05 1.76-1.17 3.54 2.06 6.07 3.12 9.16-1.97 2.36-3.69 4.92-5.26 7.57-1.02 1.78-1.9 3.63-2.79 5.48-.14-.57-.41-1.7-.55-2.27.63-2.27 1.57-4.44 2.56-6.57-2.27-2.76-4.12-6.09-7.43-7.75-8.15-4.86-18.88-4.88-27.04-.03-3.34 1.65-5.21 4.99-7.49 7.77 1.15 2.6 2.31 5.22 3.08 7.96-3.12-3.91-5.75-8.22-9.11-11.94 1.98-3.68 4.45-7.41 3.49-11.81v-.05c1.04-.98 2.14-1.96 2.67-3.33 2.4-5.4 4.94-10.75 8.2-15.69 2.16-3.07 2.78-6.92 5-9.94zM41.18 72.71c1.35 1.78 2.72 3.57 3.78 5.54.75 2.22-.34 4.48-1.39 6.39 2.02 2.32 4.38 4.44 5.59 7.34-4.22-3.34-8.24-6.9-11.72-11.01-.1-2.37 1.32-4.17 3.15-5.48.15-.69.44-2.08.59-2.78zM85.16 76.27c.31-.25.93-.74 1.24-.99.26 2.8 4.46 2.74 4.01 5.62-3.29 4.81-8.46 7.76-11.99 12.35.75-3.62 3.83-6.07 6.38-8.48-.27-.46-.81-1.36-1.08-1.81.32-2.26.73-4.52 1.44-6.69z"/>
    </g>
    <path fill="#ccc" opacity=".8" d="M40.48 53.43c.96 4.4-1.51 8.13-3.49 11.81-1.92-3.97 1.1-8.62 3.49-11.81z"/>
    <path fill="#c8c8c8" opacity=".78" d="M91.02 65.02c-1.06-3.09-4.29-5.62-3.12-9.16 2.53 2.03 5.24 6.09 3.12 9.16z"/>
    <path fill="#626262" opacity=".38" d="M82.97 78.07c.89-1.85 1.77-3.7 2.79-5.48.34.53 1.04 1.59 1.38 2.12l-.74.57c-.31.25-.93.74-1.24.99-.71 2.17-1.12 4.43-1.44 6.69-.02-.5-.05-1.49-.07-1.99-1.62-1.62-1.17-4.11-1.48-6.18l.25 1.01c.14.57.41 1.7.55 2.27z"/>
    <path fill="#171717" opacity=".09" d="M74.19 106.28c1.73.37 1.22 3.46-.36 3.74-1.8-.37-1.26-3.48.36-3.74z"/>
</svg>
