<svg width="128pt" height="128pt" viewBox="0 0 128 128" xmlns="http://www.w3.org/2000/svg">
    <path fill="#fff" d="M56.13 37.76c3.33-1.41 3.8-6.19 7.74-6.41 2.46-.29 3.92 2.17 4.69 4.15 1.05.66 2.1 1.31 3.16 1.96.61-.43 1.83-1.28 2.44-1.71 1.91 1.15 4.41 1.4 5.88 3.2 1.61 1.83 2.12 4.29 2.91 6.53-.7.19-2.12.55-2.83.74.41 2.31 1.68 4.31 2.58 6.45.18 1.83-.92 3.47-1.4 5.17.7 1.17 1.39 2.34 2.09 3.51-1.27 2.97-4.05 4.65-6.74 6.16-2.04 4.47-.28 9.42-2.18 13.92.63.32 1.88.96 2.51 1.28-.54 2.34-1.48 4.56-2.51 6.72-2.03 4.24-3.28 9.02-6.94 12.24.28.06.85.18 1.13.25-.55.14-1.64.44-2.19.59 1.61-3.27 1.44-7.01 2.71-10.38.7-1.87 1.66-3.64 2.31-5.53-2.37 1.45-2.44 4.56-3.64 6.83-3.07-2.3-1.48-6.96-2.24-10.29 1.57-1.42 2.73-3.25 3.44-5.24.48-3.78-.64-7.79 1.11-11.36 1.2-1.06-.06-1.65-.66-2.24-.05.54-.16 1.62-.22 2.15-1.34 2.99-1.31 6.36-1.91 9.54-.47-1.47-.99-2.91-1.59-4.32-.21 3.08-.75 6.13-1.94 8.99-1.23-2.95-1.74-6.08-1.79-9.26-.66 1.56-1.21 3.16-1.64 4.8-.58-4.31-.64-9.08-4.06-12.26 1.96 3.41 2.63 7.23 2.2 11.13-.47 3.23 1.51 6.02 3.59 8.26-.1 3.3-.54 6.6-1.06 9.87-.51-.25-1.52-.75-2.03-1.01-.51-2.07-.78-4.48-2.79-5.68 1.26 3.47 3.08 6.77 3.48 10.5.1 2.25 1.26 4.2 1.84 6.33-5.42-5.31-7.85-12.64-10.54-19.53-.86-2.53-2-4.97-2.7-7.55 1.92 1.57 1.83 4.36 2.72 6.5.53-.34 1.59-1.03 2.12-1.38-.69-2.67-1.26-5.39-1.01-8.16.7.07 2.08.21 2.78.27-.88-.33-1.77-.64-2.66-.93-.36-1.66-.78-3.31-1.03-5-2.68-1.4-5.32-3.05-6.95-5.69.63-1.3 1.29-2.59 1.98-3.86-.48-1.67-1.81-3.25-1.45-5.06.83-2 1.86-3.92 2.62-5.95-.63-.17-1.89-.5-2.52-.67 1.49-4.19 4.42-7.67 8.04-10.2 1.06.54 2.11 1.08 3.15 1.63m8.07 7.53c.73 2.97-.4 6.23 1.09 9.03.3-2.78.56-5.67-.56-8.31-.76-3.98.23-8.08-.38-12.09-1.52 3.63-.47 7.6-.15 11.37m14.05 3.57c.06.77.17 2.32.23 3.09-2.76 2.32-3.26 5.86-4.33 9.08 1.72-1.69 3.71-3.05 5.73-4.35 2.39-2.55.18-5.72-1.63-7.82m-31.83 6.37c2.32 2.51 4.11 6.63 8.04 6.54-1.35-4.28-3.35-8.26-5.85-11.96-.59 1.86-1.29 3.68-2.19 5.42m24.13 6.13c-1.23 1.17.44 3.57 1.82 2.09 1.27-1.29-.4-3.2-1.82-2.09z"/>
</svg>
