<svg width="128pt" height="128pt" viewBox="0 0 128 128" xmlns="http://www.w3.org/2000/svg">
    <g fill="#fff">
        <path d="M84.55 29.71c3.38-2.16 7.1-4.24 11.23-4.25 3.37.9 5.32 4.05 7.86 6.2 3.71 5.53 9.7 10.33 10.02 17.45.08 3.89-.92 7.75-2.27 11.38-3.34 4.28-7.01 8.4-11.62 11.39-3.46 2.01-6.3 4.85-9.27 7.49l-2.21-.24c.65-.19 1.93-.58 2.58-.77.63-4.71 5.17-7.17 7.62-10.86 3.4-3.45 4.89-8.15 6.56-12.55-.02-5.93-4.47-10.3-7.9-14.65-3.46-1.26-6.41.79-9.14 2.63-1.1 1.41-2.33 2.8-4.26 2.91-1.54-4.01-3.75-7.77-7.46-10.13 1.62-.56 3.14-1.35 4.58-2.27.16.46.47 1.39.63 1.85-1.25-2.55 1.45-4.11 3.05-5.58zM32.46 27.2c2.8.3 5.61.22 8.42.07 3.74 2.84 7.97 4.9 11.9 7.44-2.06 4.05-6.3 6.57-7.62 11.08-4.06.27-6.58-3.56-9.91-5.29-.79-.02-1.57-.03-2.36-.03-2.86 3.5-5.74 6.98-8.35 10.67-.65 2.08.69 4.12 1.2 6.09 1.41 2.4 1.86 5.28 3.57 7.5 1.75 2.23 3.53 4.42 5.42 6.52 3.02 2.53 4.4 6.2 6.28 9.51-3.27-2.94-6.34-6.18-10.13-8.45-3.79-2.51-7.29-5.47-10.03-9.11-3.46-3.06-3.81-7.99-4.47-12.26-.68-5.59 2.82-10.28 6.36-14.17 3.17-3.28 5.6-7.36 9.72-9.57z"/>
    </g>
</svg>
