<svg width="128pt" height="128pt" viewBox="0 0 128 128" xmlns="http://www.w3.org/2000/svg">
    <g fill="#fff">
        <path d="M41.66 17.4c.35-2.36 2.04-3.66 4.37-3.62-.86 1.08-2.89 1.62-2.48 3.35 1.55 3.35 4.99 5.53 5.88 9.23 1.47 3.73 1.46 8.5-1.59 11.45-4.83 5.08-1.27 15.46 6.31 14.78-.03 6.46.44 12.92.64 19.38.28 6.98 1.89 13.86 1.86 20.86-.92-2.63-1.38-5.39-1.72-8.14-.58 1.32-2.39 2.51-1.25 4.12-3.98-5.53-9.27-9.87-13.82-14.9 1.23-1.02 2.65-1.71 4.29-1.4-.24.63-.73 1.88-.97 2.5.49 3.18 3.86 2.74 5.41.64-.84-3.12-1.73-6.69-4.72-8.47-5.16-3.12-10.9-5.1-16.41-7.48-6.13-2.68-9.63-10.56-6.35-16.66 1.36-3.37 4.55-5.22 7.5-7.01-.34-1.16-.69-2.31-1.03-3.46 1.09.97 2.24 1.94 2.92 3.27.31 3.33-3.81 4.31-4.6 7.22-.24 1.39.19 2.77.4 4.14 1.28-2.22 2.16-4.98 4.61-6.2 2.03-1.38 4.6-1.22 6.92-1.65.36 1.29.73 2.58 1.1 3.87-2 .45-4.25.45-5.97 1.7-3.19 3.42-3.31 9.57.57 12.55 2.31 2.35 5.79 2.72 8.33 4.73 3.71 2.76 7.08 6.34 8.45 10.86 1.28 4.34 2.2 8.79 2.79 13.28.56-1.26 1.92-2.46 1.27-3.98-1.06-8.2-4.27-16.65-10.9-21.94-2.99-2.51-7.59-2.5-9.74-6.09-1.69-1.63-1.6-3.94-1.42-6.08.47-.59 1.4-1.78 1.86-2.37 1.9-.54 4.3-1.18 5.66.75-.21.63-.64 1.88-.85 2.51l-1.57.73c.23-.83.68-2.49.91-3.32-3.97.01-4.01 5.51-.3 6.11 1.38-1.61 3.82-2.96 3.36-5.43-.48-3.07-.86-6.32-2.66-8.95-1.47-2.5-4.31-5.12-2.68-8.26 1.84-2.11 4.36-3.63 5.55-6.28.89 2.11.53 4.09-1.23 5.58l-.6 2.67c.55.42 1.66 1.25 2.22 1.67 2.49-2.12 4.77-5.75 3.25-9.05-1.45-2.27-2.74-4.64-3.57-7.21zM82 13.94c2.52-.29 4.06 1.29 4.32 3.74-.92 2.62-2.4 4.96-3.75 7.36-1.07 3.24 1.05 6.57 3.45 8.62.55-.42 1.66-1.24 2.22-1.65l-.6-2.68c-1.79-1.5-2.05-3.49-1.11-5.57 1.1 3.78 6.61 4.84 5.88 9.28-1.25 3.16-4.03 5.56-4.8 8.95-.43 2.36-1.35 4.77-.82 7.18.89 1.32 2.1 2.36 3.19 3.49 3.7-.59 3.68-6.12-.3-6.1.23.82.68 2.48.91 3.31-1.94-.05-3.47-3.57-1.18-4.27 1.41-.77 2.98.04 4.42.29.47.59 1.39 1.77 1.86 2.35.88 3.85-1.69 7.55-5.06 9.18-10.69 3.14-15.74 14.77-17.01 24.97-.64 1.5.73 2.69 1.28 3.94.59-4.51 1.51-8.98 2.82-13.34 1.38-4.5 4.75-8.07 8.46-10.81 2.53-2 5.99-2.37 8.3-4.71 3.87-2.99 3.75-9.12.57-12.55-1.73-1.25-3.97-1.25-5.99-1.7.37-1.29.74-2.58 1.11-3.86 2.3.42 4.85.25 6.87 1.61 2.5 1.28 3.4 4.12 4.9 6.3.01-1.88.8-4.1-.61-5.68-1.09-1.32-2.44-2.38-3.52-3.7-.98-1.88.64-3.34 1.59-4.77l1.09.04L99.33 36c2.99 1.8 6.22 3.68 7.6 7.11 3.21 6.08-.27 13.89-6.35 16.58-5.29 2.25-10.73 4.22-15.75 7.05-2.84 1.42-4.28 4.45-5.06 7.37-.76 1.88 1.54 3.83 3.31 3.28 2.01-1.01 1.95-3.21.77-4.88 1.1.05 2.21.11 3.31.19.16.43.48 1.28.64 1.7-4.59 4.72-9.57 9.08-13.49 14.4 1.16-1.61-.66-2.79-1.24-4.1-.34 2.75-.8 5.5-1.72 8.12-.03-7.03 1.59-13.94 1.87-20.95.19-6.43.66-12.85.63-19.28 7.6.68 11.15-9.74 6.29-14.81-3.02-2.94-3.03-7.67-1.58-11.38.81-3.44 3.83-5.56 5.49-8.52 1.5-1.72-.96-3.02-2.05-3.94z"/>
        <path d="M55.69 29.87c.47 2.02 1.36 4.21.42 6.25-1.13 3.39-4.87 4.7-7.85 5.98-.07-2.83 1.9-4.56 4.18-5.73 2.51-1.2 2.7-4.12 3.25-6.5zM71.87 36.08c-.92-2.02-.02-4.2.45-6.21.55 2.35.71 5.27 3.19 6.47 2.28 1.16 4.22 2.88 4.28 5.67-3.08-1.09-6.78-2.55-7.92-5.93z"/>
    </g>
</svg>
