<svg width="128pt" height="128pt" viewBox="0 0 128 128" xmlns="http://www.w3.org/2000/svg">
    <path fill="#200607" opacity=".49" d="M23.3 11.69c1.96-1.31 4.33-1.44 6.6-1.19 2.18-.22 2.98 2.16 4.19 3.5 3.13-.3 5.87 1.85 8.94 1.31-2.12 3.13-.97 7.16-1.12 10.7.53 6.42-1.36 13.01.73 19.28-1.43-1.8-2.86.05-4.17.95-1.52.06-3.04.07-4.57.11l-1.8 2.94c-2.66.04-5.71 1.06-8.08-.61 2.39.26 4.79.3 7.2.24 1.18-3.85 5.43-3.59 8.66-4.05 1.11-6.25-.16-12.56.11-18.84-.08-3.47.44-7.07-.65-10.43-1.96-.54-4.04-.53-5.98-1.14-1-.9-1.65-2.11-2.46-3.17-2.53.1-5.06.26-7.6.4z"/>
    <g fill="#9f2021">
        <path d="M97 14.85c1.15-1.52 2.1-3.32 3.8-4.31 2.28-.12 4.47.6 6.68 1.07 1.4 3.99.77 8.27.93 12.41-.14 7.69.25 15.4-.13 23.07-1.44 3.11-5.67 2.17-8.44 2.29-.63-1.19-1.25-2.37-1.86-3.56-2.12-.14-4.23-.25-6.34-.38-2.02-4.55-.94-9.59-1-14.38.24-5.44-.75-11.05 1.14-16.29 1.74.03 3.48.06 5.22.08zM23.3 11.69c2.54-.14 5.07-.3 7.6-.4.81 1.06 1.46 2.27 2.46 3.17 1.94.61 4.02.6 5.98 1.14 1.09 3.36.57 6.96.65 10.43-.27 6.28 1 12.59-.11 18.84-3.23.46-7.48.2-8.66 4.05-2.41.06-4.81.02-7.2-.24l-.66-.06c.78-6.84.23-13.75.39-20.62-.16-5.43.43-10.92-.45-16.31zM57.2 11.57c5.53-.48 11.09-.34 16.62-.14.56 1.17.99 2.91 2.58 3.05 4.05.55 8.22-.27 12.23.85 1.59 6.45.43 13.14.79 19.7-.22 3.17.61 6.73-.76 9.64-4.14 2.61-9.53-.32-13.9 1.95-.43.89-.86 1.78-1.3 2.67-5.51-.03-11.01-.03-16.52-.08-.15-.68-.45-2.05-.59-2.73-4.44-1.48-9.2-.07-13.71-1.19-2.09-6.27-.2-12.86-.73-19.28.15-3.54-1-7.57 1.12-10.7l.63-.98c3.73.19 7.51.8 11.23.25 1.6-.09 1.76-1.9 2.31-3.01zM57.43 51.59c5.25-1.21 10.6-.66 15.85.15.13 2.54.13 5.1-.01 7.65-4.93 1.19-10.18 1.21-15.15.44-2.44-1.84-1.26-5.68-.69-8.24zM57.78 104.86c1.69 0 3.39.03 5.08-.15 3.06-.29 6.21-.86 9.23.04 1.28 3.44 3.72 6.08 6.58 8.31-1.29 2.04-3.12 3.94-5.67 4.14-4.67.3-9.36.05-14.04.12-2.67.15-5.69-.99-6.82-3.58-.71-2.05 1.7-2.79 2.87-3.91 1.7-1.09 1.93-3.29 2.77-4.97z"/>
    </g>
    <path opacity=".23" d="M22.54 11.84c1.1 7.32.23 14.78.5 22.16-.09 4.75.3 9.52-.35 14.24-1.32-5.3-.54-10.8-.72-16.2.18-6.73-.49-13.52.57-20.2z"/>
    <path fill="#280808" opacity=".55" d="M58.63 62.24c4.06-1.22 8.33-.46 12.48-.51-1.22 3.13 1.83 6 .12 9.17-.11-1.75-.21-3.5-.3-5.25-3.99 3.73-7.82 7.64-11.67 11.52l.14-1.06-1.02-.75c-.6-3.86-.34-7.94.36-11.79.32 3.05.3 6.13.02 9.18.36.55.73 1.1 1.11 1.64 3.35-4.27 7.85-7.47 11.01-11.92-4.09-.1-8.17-.04-12.25-.23z"/>
    <g fill="#9c2021">
        <path d="M58.63 62.24c4.08.19 8.16.13 12.25.23-3.16 4.45-7.66 7.65-11.01 11.92-.38-.54-.75-1.09-1.11-1.64.28-3.05.3-6.13-.02-9.18l-.11-1.33zM59.26 77.17c3.85-3.88 7.68-7.79 11.67-11.52.09 1.75.19 3.5.3 5.25-4.39 3.63-7.68 8.44-12.42 11.67.11-1.76-.51-3.8.45-5.4zM70.39 72.92c1.58 1.62.81 4.04.93 6.06-3.98 3.83-7.55 8.06-11.58 11.85-2.02-2.14-1.5-5.59.5-7.54 3.34-3.51 7.26-6.45 10.15-10.37zM60.06 92.06c3.62-3.66 7.1-7.49 11.09-10.76.13 1.95.21 3.9.28 5.86-4.09 4.15-7.85 8.74-12.6 12.16 0-2.43-1.01-5.47 1.23-7.26zM59.72 101.43c3.14-4.31 7.03-8.41 11.65-11.12.19 2.93.44 6.6-2.98 7.83.76.34 1.52.67 2.3.98 1.57 2.18.04 3.65-2.17 3.9-.37-1.21-.75-2.41-1.15-3.61-1.7 3-5.12 3.3-8.19 3.44l.54-1.42z"/>
    </g>
    <path opacity=".2" d="M70.69 99.12c2.37.28.88 3.25 1.15 4.78-2.44.11-4.88.04-7.31-.17-.42.25-1.25.74-1.67.98-1.69.18-3.39.15-5.08.15.61-1.16 1.26-2.3 1.94-3.43l-.54 1.42c3.07-.14 6.49-.44 8.19-3.44.4 1.2.78 2.4 1.15 3.61 2.21-.25 3.74-1.72 2.17-3.9z"/>
</svg>
