<svg width="128pt" height="128pt" viewBox="0 0 128 128" xmlns="http://www.w3.org/2000/svg">
    <g fill="#fff">
        <path d="M23.35 11.97c2.6-.96 5.37-.72 8.08-.62.61 1.07 1.15 2.19 1.88 3.19 2 .75 4.39-.26 6.24.95 1.05 4.44.49 9.03.54 13.54-.03 4.97.97 9.98.07 14.91-1.45 2.57-4.86 1.31-7.22 1.93-.38 1.01-.77 2.02-1.14 3.03-2.56.1-5.21.62-7.69-.27-1.27-2.33-.8-5.04-.82-7.57.06-9.7-.05-19.39.06-29.09zM57.41 11.61c5.32-.53 10.68.07 16.01-.35.66 1.4 1.32 3.24 3.13 3.37 3.96.59 8.03-.16 11.97.73 1.32 6.81.48 13.77.67 20.65-.1 2.89.34 5.92-.6 8.7-4.61 2.98-12.73-2.13-15.25 4.33-5.43.16-10.87.17-16.3 0-.3-1.02-.6-2.04-.91-3.06-4.31-.65-8.75.28-13-.72l-1.11-1.31c-1.25-4.89 0-9.98-.23-14.95.14-4.47-.94-9.15.66-13.45 3.78-2.23 8.38.53 12.41-.75 1.62-.19 2.02-1.96 2.55-3.19zM97.08 15.14c1.19-1.49 1.96-3.43 3.69-4.4 2.39-.23 4.71.61 6.94 1.35 1.08 10.26.26 20.61.6 30.91-.1 1.92.5 4.6-1.62 5.66-2.17.82-4.54.61-6.81.52-.62-1.17-1.26-2.32-1.89-3.48-2.09-.43-4.7.57-6.44-.96-1.66-4.04-.71-8.5-.69-12.72.31-5.65-.71-11.44.92-16.95 1.77 0 3.53.03 5.3.07zM57.22 52.03c5.04-1.65 10.38-.66 15.54-.38.67 2.6.61 5.28.07 7.89-5.09.76-10.26.71-15.36.08-.73-2.48-.41-5.05-.25-7.59zM57.95 104.9c4.8.21 9.67-1.32 14.39.05.58 1.82 1.06 3.82 2.69 5.01 1.1 1.26 3.4 1.97 2.98 4.02-1.48 2.36-4.44 3.06-7.03 3.19-4-.25-8.03-.61-12.02-.01-3.1-.1-6.93-1.37-7.03-5.08 3.1-1.42 5.18-3.88 6.02-7.18z"/>
    </g>
</svg>
