<svg width="128pt" height="128pt" viewBox="0 0 128 128" xmlns="http://www.w3.org/2000/svg">
    <g fill="#fff">
        <path d="M59.03 62.25c4.04.02 8.07.01 12.1.08-3.55 4.5-7.6 8.65-12.18 12.1-.27-4.06-.35-8.13.08-12.18zM59.23 77.05c3.96-3.93 7.74-8.02 11.81-11.82.15 1.68.2 3.37.17 5.06-4.18 3.95-7.59 8.72-12.35 12.03.08-1.76.24-3.52.37-5.27zM60.87 82.9c3.59-3.18 6.84-6.69 10.24-10.06.02 2.03.05 4.07.05 6.1-4.19 3.79-7.59 8.42-12.17 11.77-.62-2.74-.44-5.9 1.88-7.81zM58.79 93.75c3.82-4.37 8.21-8.19 12.25-12.35-.04 2.46.99 5.51-1.28 7.32-3.53 3.56-7 7.21-10.72 10.57-.1-1.85-.22-3.69-.25-5.54zM59.01 102.54c3.26-4.59 7.54-8.38 11.74-12.06 1.27.66.11 3.65.41 5.2-1.06.93-1.96 2.02-3.08 2.88.24.8.48 1.59.71 2.39l1.45-2.52c1.83 1.53 1.21 4.77-1.57 4.34-.74-.91-1.75-1.51-2.63-2.26-1.23 2.68-4.68 2.04-7.03 2.03z"/>
    </g>
</svg>
