<svg width="128pt" height="128pt" viewBox="0 0 128 128" xmlns="http://www.w3.org/2000/svg">
    <path fill="#fff" d="M50.08 64.94c1.57-.56 3.01-2.22 4.8-1.67 1.57 1.23 2.91 2.72 4.39 4.06 2.48-.69 4.69-2.02 6.94-3.22 2.55 1.72 5.21 3.34 8.38 3.54 1.24-.1 2.49-.18 3.74-.22 1.19 5.57 1.88 12.44 7.26 15.69-.95 2.11-2.6 3.77-3.79 5.73-1.19 2.31.15 4.89.43 7.26-1.42 4.23-3.7 8.22-7.09 11.18-2.09 1.63-4.81 1.97-7.2 2.96-5.73-6.14-4.05-14.91-2.69-22.35.37-.22 1.11-.66 1.49-.88 2.01-.56 5.56-.61 5.86-3.28-4.84 3.85-11.1.01-15.91-2.13 1.9 2.97 6.61 4.26 6.38 8.29-.24 6.28-.79 12.75 1.45 18.77-6.28-.82-11.63-4.81-15.76-9.41-1.35-1.69-3.3-2.6-5.4-2.94 3.04-6.02 4.21-13.09 2.8-19.73-.86-4.02-4.49-7.12-3.96-11.46 2.61-.45 5.25-.14 7.88-.19z"/>
</svg>
