<svg width="128pt" height="128pt" viewBox="0 0 128 128" xmlns="http://www.w3.org/2000/svg">
    <g fill="#fff">
        <path d="M55.08 47.17c-.44-11.16 1.82-22.41 6.53-32.53.23 7.68-.37 16.01 3.96 22.79.6 2.82.73 6.21-1.15 8.64-.25 2.21.28 4.33 1.59 6.14-.55 2.58.6 5.2-.01 7.74-1.43 1.82-3.23 3.31-4.86 4.94-4.64-.22-7.54-4.74-7.66-9.04-.56-3.05 1.29-5.75 1.6-8.68zM41.99 33.06c1.21-4.32 1.67-9.05 4.36-12.78-.41 8.03-.69 17.04 4.85 23.55.61 4.37.65 8.78.63 13.18.24.73.7 2.2.93 2.93-1.75 1.13-3.46 2.38-5.39 3.2-1.73.3-3.3-.71-4.9-1.19-.83-2.43-1.8-5.52.59-7.43 2.23-4.4-3.64-8.3-1.76-12.69-.14-2.94-.15-5.92.69-8.77zM76.66 23.33c1.97 6.78 1.45 13.94 1.77 20.91-.01 2.32 1.08 4.4 1.91 6.5.08 3.72-.31 7.68-2.92 10.56l.04 3.01c-3.57 2.18-9.01.09-9.77-4.18.83-1.29 1.13-2.79 1.33-4.28.45-.21 1.36-.63 1.82-.84.8-3.32-.07-6.7.14-10.05 1.52-3.09 2.53-6.35 2.56-9.83 1.28-3.87 2.66-7.72 3.12-11.8zM89.61 34.68c.86 1.04 1.41 2.28 1.63 3.62 1.31 6.79 1.32 13.82.63 20.68-2.55 5.06-3.33 10.64-3.69 16.22-.91 1.64-1.53 3.45-2.8 4.88-5.52-3.53-4.76-10.97-4.65-16.64 2.79-2.84 4.14-6.66 5.77-10.2 2.86-5.74 2.78-12.31 3.11-18.56zM33.12 40.75c.21 5.04-2.3 10.16-.89 15.26.75 2.34.85 4.78.37 7.19 3.98-1.05 6.36 3.27 8.2 6.07 2.75 5.46 4.82 11.83 3.22 17.95-1.02-1.09-1.88-2.41-3.26-3.11-2.08-1.49-4.62-.25-6.91-.16-.06-2.82.33-5.75-.58-8.47-1.51-2.68-4.05-4.85-7.1-5.51.04-2.54 2.06-4.66 1.49-7.25-.8-7.69.99-15.61 5.46-21.97z"/>
    </g>
</svg>
