<svg width="128pt" height="128pt" viewBox="0 0 128 128" xmlns="http://www.w3.org/2000/svg">
    <g fill="#fff">
        <path d="M27.64 32.61c2.84-1.7 6.53-2.04 9.58-.71 3.1 2.04 2.93 6.17 2.3 9.39-1.45-2.63-3.39-5.87-6.81-5.88-1.75.62-3.52 1.25-5.23 1.99-2.56 1.18-3.02 4.23-4.5 6.35-.48-4.09.8-9.04 4.66-11.14z"/>
        <path d="M25.4 43.52c1.34-3.39 4.74-4.8 7.73-6.38-.52 2.35-3.25 3.59-3.37 6.02.8 3.37 3.67 6.18 7.28 6.06 4.65 1.21 8.76-4.54 13.16-1.26-2.56 1.97-5.68 3.08-8.1 5.25-3.85 3.26-9.4 3.02-13.8 1.1-3.59-2.17-5.47-7.13-2.9-10.79zM26.3 57.82c3.83.14 7.64 1.17 11.45.22-2.71.98-5.31 4.45-8.35 2.64-1.42-.44-2.17-1.83-3.1-2.86z"/>
    </g>
</svg>
