<svg width="128pt" height="128pt" viewBox="0 0 128 128" xmlns="http://www.w3.org/2000/svg">
    <path fill="#1a0504" opacity=".42" d="M47.74 17.97c1.42-.57 2.84-1.22 4.38-1.38 7.61-.68 15.28-.49 22.9-.07 1.57-.02 2.91.83 4.25 1.53-10.41-1.76-21.1-1.6-31.53-.08z"/>
    <path fill="#a41f20" opacity=".98" d="M47.74 17.97c10.43-1.52 21.12-1.68 31.53.08 1.36.07 1.86.79 1.51 2.16l-1.39.79c-6.5-2.25-13.61-2.43-20.42-1.87-4.03-.09-7.86 1.57-11.81 1.67-2.35-.16-1.15-2.85.58-2.83z"/>
    <g fill="#020000">
        <path opacity=".26" d="M58.97 19.13c6.81-.56 13.92-.38 20.42 1.87l1.39-.79c1.37 3.19 5.41 3.27 7.53 5.77-2.53-1.01-5.03-2.07-7.53-3.16 5.48 7.16 9.8 15.1 12.95 23.54.5-2.47 1.23-4.92 2.61-7.05.7-.67 1.4-1.31 2.13-1.95 1.42 2.99 2.82 6.01 3.6 9.24.44-.61.87-1.22 1.31-1.82l.33-.46c2.73 5.06 2.23 11 2.58 16.55.26 3.26-1.25 6.21-2.06 9.27-.41 5.46 2.96 10.46 2.31 15.93l-.22-.9-.21-.89c-1.01-4.05-2.36-8.04-2.85-12.21-.61-3.49 2.79-6.61 1.24-10.07-.06-.5-.12-1-.16-1.5.7-4.39.49-8.85.07-13.25-.5-.17-1.49-.49-1.99-.66.92 4.16 1.39 8.39 1.78 12.62-.6.05-1.8.16-2.4.21-.38.96-.78 1.92-1.19 2.87-.37.25-1.1.76-1.47 1.01l1.04-2.32c-.26-1.12-.59-2.23-1-3.31-.9-4.36-1.82-8.84-4.48-12.54-1.34 6.8.91 13.63.8 20.48.43-.27 1.29-.82 1.72-1.09l.67-.42c0 1.32.03 2.64.07 3.97l-.76-1.88c-2.95 2.51-3.02 6.58-3.85 10.07-1.29 6.84-3.63 13.43-6.1 19.93 1.62 4.12 3.54 8.12 4.98 12.31-.11.47-.34 1.41-.46 1.88-1.57-4.8-3.62-9.43-5.51-14.11 8.15-18.36 10.84-40.2 2.61-59.02-3.13-5.68-6.61-11.27-11.13-15.94-1.5-.26-2.99-.57-4.47-.89.07.31.2.91.26 1.21-1.22-1.22-2.82-1.83-4.47-2.25.21 2.02 1.71 4.72-.36 6.27-2.98 3.06-8.09 2.54-10.92-.43-1.18-1.38-.24-3.08.35-4.48.21-.4.63-1.2.84-1.61m1.45 1.45c-1.78 1.05-1.76 3.84.11 4.79 2.62 2.05 5.94.46 8.31-1.16-.09-4.1-5.45-6.61-8.42-3.63m35.29 24.59c2.18 3.61 3.66 7.58 4.24 11.78 1.11.65 2.23 1.31 3.35 1.96-.62-6.89-1.78-13.88-5.31-19.95-1.25 1.73-3.93 3.91-2.28 6.21zM43 24.07c1.27-1.69 3.16-3.3 5.11-1.48l-1.19 1.31c-4.67 6.11-9.37 12.54-11.23 20.13-5.19 17.28-2.07 35.99 5.03 52.25-2.02 5.02-4.15 10-5.91 15.12.58.1 1.76.31 2.34.41-2.97 1.04-3.62-3-5.34-4.62.98.35 1.97.7 2.96 1.03 1.7-4.02 3.36-8.07 4.97-12.14-3.78-9-6.03-18.51-7.78-28.08-.13-1.8-2.17-1.76-2.65-.14-.08-1.29-.14-2.58-.21-3.87.64.68 1.92 2.06 2.56 2.74-.55-7.83 1.55-15.45 2.06-23.21-5.22 4.59-4.2 12.11-7.62 17.66.52.48 1.57 1.44 2.1 1.92-2.27.06-2.61-1.84-2.87-3.63-.61-.13-1.82-.38-2.42-.51.52-5.02 1.23-10.02 2.62-14.88-.3-.04-.91-.1-1.22-.14l-.45-.61c-.51-1.62.58-3.18 1.6-4.33-.18.65-.55 1.95-.74 2.61.38.73.78 1.46 1.2 2.18 1.05-2.21 2.37-4.5 1.81-7.05-.03-.28-.1-.85-.14-1.14.6.62 1.81 1.85 2.41 2.47 3.68-3.69 7.13-7.61 10.01-11.97-.78.12-2.33.37-3.11.5 1.37-.6 2.76-1.17 4.15-1.72-2.4 5.58-6.95 9.73-10.73 14.35 1.33 1.29 2.68 2.56 4.04 3.83 3.05-7.6 7.24-14.68 12.94-20.62L43 24.07M23.76 58.81c1.11-.63 2.22-1.25 3.33-1.89.59-5.01 2.74-9.6 5.36-13.85-1.16-1.35-2.3-2.71-3.45-4.07-3.5 6.02-4.72 12.96-5.24 19.81zM57.05 75.65c1.97 2.14 4.14 5.67 7.52 4.89 2.15-1.17 4.6-2.75 4.57-5.53.6 1.51 1.98 3.33 1.03 4.97-2.96 1.33-6.38 3.01-9.61 1.5-1.32-.68-3.41-.67-4.02-2.22.13-.9.38-2.7.51-3.61zM64.73 86.69c.74-.4 1.5-.76 2.28-1.09 3.43.92 5.98 3.56 8.97 5.32-.4.14-1.2.41-1.6.54-5.56-2.58-11.7.1-17.44-1.65-.96.82-1.9 1.64-2.84 2.47 1.33.55 2.65 1.11 3.98 1.67.06.46.19 1.38.25 1.84-1.32-.7-2.63-1.41-3.95-2.11-.16-.58-.47-1.73-.62-2.31-.94-.14-1.89-.29-2.83-.43 1.24-.79 2.48-1.57 3.67-2.44l.01.01c5.46 1.27 11.18 1.6 16.64.16-2.03-1.08-4.2-1.89-6.52-1.98z"/>
    </g>
    <g fill="#ad2021">
        <path d="M52.67 21.99c.99-2.3 4-1.79 5.97-2.46l-.51 1.21c-.59 1.4-1.53 3.1-.35 4.48 2.83 2.97 7.94 3.49 10.92.43 2.07-1.55.57-4.25.36-6.27 1.65.42 3.25 1.03 4.47 2.25.71 3.04 1.22 6.48-.77 9.17-1.85 3.68-6.17 4.55-9.55 6.24 2.18-.11 4.68.32 6.45-1.28 3.88-2.37 4.94-6.98 7.24-10.58 1.04 4.64-.9 10.24-5.31 12.45-3.78 2.07-8.33 2.6-12.54 1.8-6.1-1.04-10.14-7.82-9.15-13.69.21-.27.63-.82.83-1.09l.7-.19c.51 1.84.83 3.73 1.19 5.61-.2-2.68-.65-5.43.05-8.08z"/>
        <path d="M60.42 20.58c2.97-2.98 8.33-.47 8.42 3.63-2.37 1.62-5.69 3.21-8.31 1.16-1.87-.95-1.89-3.74-.11-4.79zM48.11 22.59c.83-.46 2.5-1.38 3.34-1.84l-.66 1.51c-2 2.93-2.48 6.4-1.84 9.84-4.08 3.61-8.31 7.6-9.73 13.06-2.13 9.08-3.87 18.56-2.12 27.86 1.3 7.26 2.8 14.58 5.78 21.37l.52 1.59c-1.87 5.35-4.11 10.57-6.25 15.83-.58-.1-1.76-.31-2.34-.41 1.76-5.12 3.89-10.1 5.91-15.12-7.1-16.26-10.22-34.97-5.03-52.25 1.86-7.59 6.56-14.02 11.23-20.13l1.19-1.31zM77.12 22.72c.15-.35.47-1.06.62-1.41 4.52 4.67 8 10.26 11.13 15.94 8.23 18.82 5.54 40.66-2.61 59.02 1.89 4.68 3.94 9.31 5.51 14.11.04.36.13 1.09.17 1.46-.58-.11-1.72-.31-2.29-.41-1.73-4.41-3.56-8.78-5.31-13.18-.17-.56-.5-1.68-.67-2.23 4.96-13.33 8.8-27.89 5.91-42.14-.87-4.38-1.32-8.99-3.59-12.94-1.92-3.52-5.04-6.14-7.92-8.85.51-3.18-.09-6.32-.95-9.37z"/>
        <path d="M43 24.07l4.3-1.63c-5.7 5.94-9.89 13.02-12.94 20.62-1.36-1.27-2.71-2.54-4.04-3.83 3.78-4.62 8.33-8.77 10.73-14.35.49-.21 1.47-.61 1.95-.81zM80.78 22.82c2.5 1.09 5 2.15 7.53 3.16 1.36.57 2.66 1.26 3.97 1.93.31 2.04-.01 4.36 1.23 6.15.88 1.78 3.29 3 2.83 5.25-1.38 2.13-2.11 4.58-2.61 7.05-3.15-8.44-7.47-16.38-12.95-23.54z"/>
        <path d="M35.05 28.22c.47-.4 1.39-1.21 1.85-1.62.78-.13 2.33-.38 3.11-.5-2.88 4.36-6.33 8.28-10.01 11.97-.6-.62-1.81-1.85-2.41-2.47l-.6-.61c1.69-1.71 3.26-3.65 5.43-4.79 1.04-.41 1.96-1.07 2.63-1.98zM47.75 35.34c3.06-.37 4.63 2.49 6.91 3.88 5.12 2.99 11.75 3.14 17 .4 2.57-1.35 4.33-4.12 7.42-4.46-2.02 4.72-6.58 7.35-11.16 9.09l-1.15.28c-.22-.05-.67-.16-.89-.21-7.1.52-14.79-2.32-18.13-8.98zM98.47 37.36c3.84.3 3.39 4.84 4.91 7.42-.44.6-.87 1.21-1.31 1.82-.78-3.23-2.18-6.25-3.6-9.24zM23.76 58.81C24.28 51.96 25.5 45.02 29 39c1.15 1.36 2.29 2.72 3.45 4.07-2.62 4.25-4.77 8.84-5.36 13.85-1.11.64-2.22 1.26-3.33 1.89zM95.71 45.17c-1.65-2.3 1.03-4.48 2.28-6.21 3.53 6.07 4.69 13.06 5.31 19.95-1.12-.65-2.24-1.31-3.35-1.96-.58-4.2-2.06-8.17-4.24-11.78z"/>
        <path d="M26.1 61.18c3.42-5.55 2.4-13.07 7.62-17.66-.51 7.76-2.61 15.38-2.06 23.21-.64-.68-1.92-2.06-2.56-2.74-.22-.23-.68-.67-.9-.89-.53-.48-1.58-1.44-2.1-1.92zM95.5 65.61c.11-6.85-2.14-13.68-.8-20.48 2.66 3.7 3.58 8.18 4.48 12.54.41 1.08.74 2.19 1 3.31l-1.04 2.32c-.31.2-.93.6-1.25.8l-.67.42c-.43.27-1.29.82-1.72 1.09zM102.42 46.59c.5.17 1.49.49 1.99.66.42 4.4.63 8.86-.07 13.25l-.14-1.29c-.39-4.23-.86-8.46-1.78-12.62zM44.74 58.89c.65-.22 1.95-.65 2.6-.87 1.75-.01 3.5.01 5.25.04 1.15.68 2.23 1.45 3.27 2.3l-1.4.44c-2.01.23-4.03.39-6.05.52-1.44-.45-2.5-1.55-3.67-2.43zM74.04 57.88c1.61.51 3.31.24 4.95-.01.75.09 2.26.28 3.01.37-1.81 4.37-6.89 3.8-10.61 2.79.27-.39.82-1.15 1.09-1.53.39-.41 1.17-1.22 1.56-1.62zM54.1 92.28c.94-.83 1.88-1.65 2.84-2.47 5.74 1.75 11.88-.93 17.44 1.65l.93.31c-.54.2-1.61.59-2.15.79-4.8 1.78-10.02 2.25-15.08 1.39-1.33-.56-2.65-1.12-3.98-1.67z"/>
    </g>
    <path fill="#671313" opacity=".82" d="M73.27 20.42c1.48.32 2.97.63 4.47.89-.15.35-.47 1.06-.62 1.41l-.33.77c.02.57.06 1.13.11 1.69-2.3 3.6-3.36 8.21-7.24 10.58-1.77 1.6-4.27 1.17-6.45 1.28 3.38-1.69 7.7-2.56 9.55-6.24 1.99-2.69 1.48-6.13.77-9.17-.06-.3-.19-.9-.26-1.21z"/>
    <path opacity=".17" d="M50.79 22.26c-.02.59-.04 1.79-.06 2.39-.2.27-.62.82-.83 1.09-.99 5.87 3.05 12.65 9.15 13.69 4.21.8 8.76.27 12.54-1.8 4.41-2.21 6.35-7.81 5.31-12.45-.05-.56-.09-1.12-.11-1.69l.33-.77c.86 3.05 1.46 6.19.95 9.37 2.88 2.71 6 5.33 7.92 8.85 2.27 3.95 2.72 8.56 3.59 12.94 2.89 14.25-.95 28.81-5.91 42.14.17.55.5 1.67.67 2.23-3.24-2.87.72-6.9.78-10.32-1.22 1.6-2.46 3.19-3.94 4.57 1.16-2.23 2.15-4.53 3.1-6.84-3.5-.78-7.89-2.49-7.98-6.74-.72-2.83 1.89-4.33 4.09-5.21.05 1.58-.63 3.47.59 4.78 2.22.33 5.37.46 6.24-2.15 2.24-6.71 2-13.92 2.03-20.91-.68.09-2.04.25-2.73.34-1.22-1.31-2.45-2.6-3.69-3.89 1.42-1.12 2.81-2.33 3.74-3.9-.63-4.71-3.57-8.63-6.73-12-3.1 3.85-6.98 7.15-11.92 8.27 4.58-1.74 9.14-4.37 11.16-9.09-3.09.34-4.85 3.11-7.42 4.46-5.25 2.74-11.88 2.59-17-.4-2.28-1.39-3.85-4.25-6.91-3.88 3.34 6.66 11.03 9.5 18.13 8.98.22.05.67.16.89.21-7.52.9-15.27-2.2-19.57-8.53-3.11 3.33-6.1 7.17-6.75 11.82.74 1.92 2.58 3.09 4.1 4.34-1.87 1.04-3.78 2.04-5.6 3.18l-1.4 1.2c.25 6.94.36 13.95 2.3 20.68.34 1.31.69 2.63 1.09 3.94.29 1.02.69 2.01 1.2 2.94 1.5.21 3.02.26 4.53.46-.9.25-2.69.74-3.58.98.31 3.28 2.44 6 3.89 8.86-2.49-1.44-3.2-4.45-4.93-6.59.27 2.2.58 4.38.83 6.58-2.98-6.79-4.48-14.11-5.78-21.37-1.75-9.3-.01-18.78 2.12-27.86 1.42-5.46 5.65-9.45 9.73-13.06-.64-3.44-.16-6.91 1.84-9.84m-9.11 30.7c.69-1.16-.84-2.44-1.91-2.59-2.09.82.28 4.05 1.91 2.59m44.35.3c1.46.48 2.76-1.99 1.06-2.5-1.36-.38-2.82 2.07-1.06 2.5M77 79.9c.74 3.25 4.19 4.62 7.19 4.82 1.77-1.5 1.82-4.15 2.69-6.17-3.13 1.48-8.46 1-7.8-3.74-1.72 1.04-3.02 3.07-2.08 5.09z"/>
    <path fill="#220606" opacity=".47" d="M32.42 30.2c-1.17-1.49 1.5-3.4 2.63-1.98-.67.91-1.59 1.57-2.63 1.98z"/>
    <path fill="#961d1e" opacity=".94" d="M93.66 29.2c2.65 1.77 4.68 4.24 6.09 7.09-2.53 1.54-4.33-.91-6.24-2.23.04-1.62.09-3.24.15-4.86z"/>
    <g fill="#b02121">
        <path d="M40.45 47.82c.65-4.65 3.64-8.49 6.75-11.82 4.3 6.33 12.05 9.43 19.57 8.53l1.15-.28c4.94-1.12 8.82-4.42 11.92-8.27 3.16 3.37 6.1 7.29 6.73 12-.93 1.57-2.32 2.78-3.74 3.9-.79.46-1.59.9-2.41 1.3-2.57.52-5.15 1-7.63 1.86-1.07.35-2.13.74-3.17 1.17-.79 1.11-1.47 2.31-1.98 3.58-.88 3.19-.75 6.54-.28 9.79.96-2.09 1.5-4.34 1.95-6.58 3.01 1.6 6.59 2.2 9.91 1.26 2.68-.93 3.94-3.63 5.29-5.9.62-.9 1.29-1.76 2.01-2.59.69-.09 2.05-.25 2.73-.34-.03 6.99.21 14.2-2.03 20.91-.87 2.61-4.02 2.48-6.24 2.15-1.22-1.31-.54-3.2-.59-4.78-2.2.88-4.81 2.38-4.09 5.21.09 4.25 4.48 5.96 7.98 6.74-.95 2.31-1.94 4.61-3.1 6.84-1.03 1.51-1.82 3.51-3.56 4.32-1.04.3-1.63.98-1.77 2.05-.62 2.29-2.8 3.64-4.38 5.25-.28-.63-.84-1.88-1.11-2.51 1.65 8.26-15.42 8.22-13.78-.07-.25.66-.77 1.99-1.02 2.65-3.13-3.01-6.07-6.24-8.58-9.79-1.45-2.86-3.58-5.58-3.89-8.86.89-.24 2.68-.73 3.58-.98-1.51-.2-3.03-.25-4.53-.46-.51-.93-.91-1.92-1.2-2.94-.12-.45-.34-1.35-.45-1.8 1.58.04 3.17.21 4.74 0 2-.19 2.64-2.44 3.84-3.69 1.53 2.57.81 5.58-1.87 7.02l-.2 2.06c1.84-1.48 3.96-3.21 4.05-5.79.44-2.01-1.14-3.51-2.06-5.09-.74-.07-2.23-.2-2.97-.26.22 1.3.6 2.6.52 3.93-2.11 1.26-4.51.05-6.69-.32-1.94-6.73-2.05-13.74-2.3-20.68l1.4-1.2c.29.08.88.26 1.17.34l1.8 1.52c1.42 2.77 2.92 5.94 6.04 7.13 3.98 1.22 7.78-1.09 11.76-.97-.55-2.45-.26-5.83-2.91-7.14-3.85-2-8.4-2.01-12.26-4.06-1.52-1.25-3.36-2.42-4.1-4.34m16.6 27.83c-.13.91-.38 2.71-.51 3.61.61 1.55 2.7 1.54 4.02 2.22 3.23 1.51 6.65-.17 9.61-1.5.95-1.64-.43-3.46-1.03-4.97.03 2.78-2.42 4.36-4.57 5.53-3.38.78-5.55-2.75-7.52-4.89m-.13 11.18c-.58.42-1.73 1.26-2.31 1.68l-.01-.01c-1.19.87-2.43 1.65-3.67 2.44.94.14 1.89.29 2.83.43.15.58.46 1.73.62 2.31 1.32.7 2.63 1.41 3.95 2.11l.1.78c3.16-.07 6.32.12 9.47-.07 1.98-.97 3.61-2.51 5.26-3.94.54-.2 1.61-.59 2.15-.79l-.93-.31c.4-.13 1.2-.4 1.6-.54-2.99-1.76-5.54-4.4-8.97-5.32-.78.33-1.54.69-2.28 1.09-.42-.01-1.26-.04-1.67-.05-2-1.29-4.25-1.31-6.14.19zM104.5 62c1.55 3.46-1.85 6.58-1.24 10.07.49 4.17 1.84 8.16 2.85 12.21-1.1.12-2.2.24-3.3.4-2.29-.22-3.79 1.53-2.4 3.66.6 1.6.7 3.28-.85 4.38-1.52.96-3.09 1.84-4.68 2.68 1.4.12 3.08.53 3.6 2.03-.17 1.52-1.36 2.5-2.22 3.63.16 1.3.28 2.59.34 3.9-.4 2.13-2.63 2.84-4.37 3.54-1.44-4.19-3.36-8.19-4.98-12.31 2.47-6.5 4.81-13.09 6.1-19.93.83-3.49.9-7.56 3.85-10.07l.76 1.88.31.86c.02 1.41 2.47 2.06 2.73.45.24-.57.73-1.7.97-2.26.3-.54.9-1.61 1.2-2.15.33-.74.99-2.22 1.33-2.97z"/>
    </g>
    <path fill="#8a1a1b" opacity=".89" d="M25.46 39c.57-.57 1.7-1.69 2.27-2.26.56 2.55-.76 4.84-1.81 7.05-.42-.72-.82-1.45-1.2-2.18.19-.66.56-1.96.74-2.61z"/>
    <path fill="#7a1716" opacity=".87" d="M24.31 43.94c.31.04.92.1 1.22.14-1.39 4.86-2.1 9.86-2.62 14.88-.34.51-1.01 1.52-1.35 2.02.05-5.55-.08-11.39 2.18-16.56l.57-.48z"/>
    <path fill="#8c1b1c" opacity=".92" d="M41.68 52.96c-1.63 1.46-4-1.77-1.91-2.59 1.07.15 2.6 1.43 1.91 2.59z"/>
    <path fill="#9a1d1e" opacity=".98" d="M86.03 53.26c-1.76-.43-.3-2.88 1.06-2.5 1.7.51.4 2.98-1.06 2.5z"/>
    <path fill="#250606" opacity=".51" d="M72.79 55.04c2.48-.86 5.06-1.34 7.63-1.86-2.29 1.43-5.03 1.55-7.63 1.86z"/>
    <path fill="#370a09" opacity=".65" d="M40.12 55.68l.86-.08c.24.4.71 1.2.94 1.6l-1.8-1.52z"/>
    <path opacity=".05" d="M67.64 59.79c.51-1.27 1.19-2.47 1.98-3.58-.19 2.02-.4 4.03-.6 6.05 1.16-.91 2.33-1.81 3.46-2.76-.27.38-.82 1.14-1.09 1.53 3.72 1.01 8.8 1.58 10.61-2.79l2.51.12c-1.35 2.27-2.61 4.97-5.29 5.9-3.32.94-6.9.34-9.91-1.26l-1.38-.69c-.08-.63-.22-1.89-.29-2.52z"/>
    <g fill="#020000">
        <path opacity=".3" d="M47.34 58.02c.33-1.99 4.94-2 5.25.04-1.75-.03-3.5-.05-5.25-.04zM74.04 57.88c1.17-1.9 3.58-1.37 4.95-.01-1.64.25-3.34.52-4.95.01z"/>
    </g>
    <path fill="#4e0e0e" opacity=".73" d="M67.36 69.58c-.47-3.25-.6-6.6.28-9.79.07.63.21 1.89.29 2.52l1.38.69c-.45 2.24-.99 4.49-1.95 6.58z"/>
    <path fill="#470d0d" opacity=".67" d="M48.41 61.32c2.02-.13 4.04-.29 6.05-.52-.28 2.13-5.39 2.5-6.05.52z"/>
    <path fill="#b02321" d="M21.42 61.65c2.08 1.71 3.1 4.22 3.71 6.77.12 1.73 2.77 2.5 3.41.67l.77-1.23c.48-1.62 2.52-1.66 2.65.14 1.75 9.57 4 19.08 7.78 28.08-1.61 4.07-3.27 8.12-4.97 12.14-.99-.33-1.98-.68-2.96-1.03-2.07-1.52-1.29-4.05-.98-6.16l-2.01-1.95c-.05-.72-.14-2.17-.19-2.89l3.89-.28c-1.4-1.05-2.75-2.22-4.39-2.88-.73-.08-2.17-.25-2.89-.33.2-1.43.29-2.88.16-4.32.43-.04 1.28-.11 1.71-.15 0-.77-.01-2.31-.01-3.08-1.85-.23-3.71-.46-5.56-.68 1.27 1.32 2.54 2.65 3.86 3.91-2.14-.53-4.01-2.06-4.36-4.33.66-4.73 2.87-9.26 2.6-14.11-.77-2.76-2.28-5.33-2.22-8.29z"/>
    <path fill="#33090a" opacity=".57" d="M101.97 67.12c.3-.54.9-1.61 1.2-2.15-.3.54-.9 1.61-1.2 2.15z"/>
    <path fill="#2e0808" opacity=".55" d="M25.13 68.42c.98-.65 2.79-.37 3.41.67-.64 1.83-3.29 1.06-3.41-.67z"/>
    <path fill="#4a0d0e" opacity=".72" d="M98.27 68.93c.68.12 2.05.34 2.73.45-.26 1.61-2.71.96-2.73-.45z"/>
    <path fill="#430c0c" opacity=".71" d="M46.02 73.61c.74.06 2.23.19 2.97.26.92 1.58 2.5 3.08 2.06 5.09-.09 2.58-2.21 4.31-4.05 5.79l.2-2.06c2.68-1.44 3.4-4.45 1.87-7.02-1.2 1.25-1.84 3.5-3.84 3.69-1.57.21-3.16.04-4.74 0 .11.45.33 1.35.45 1.8-.4-1.31-.75-2.63-1.09-3.94 2.18.37 4.58 1.58 6.69.32.08-1.33-.3-2.63-.52-3.93z"/>
    <path fill="#b02320" d="M77 79.9c-.94-2.02.36-4.05 2.08-5.09-.66 4.74 4.67 5.22 7.8 3.74-.87 2.02-.92 4.67-2.69 6.17-3-.2-6.45-1.57-7.19-4.82z"/>
    <path fill="#3e0c0c" opacity=".62" d="M102.81 84.68c1.1-.16 2.2-.28 3.3-.4l.21.89c-1.79 2.5-5.74 4.08-4.34 7.77-.43.66-1.29 1.99-1.72 2.66-.62-.62-1.23-1.24-1.84-1.88l.66-.43.48-.57c1.55-1.1 1.45-2.78.85-4.38 1.44-1.15 2.87-2.32 4.27-3.53l-1.87-.13z"/>
    <path fill="#050101" opacity=".29" d="M21.54 84.47c1.85.22 3.71.45 5.56.68 0 .77.01 2.31.01 3.08-.43.04-1.28.11-1.71.15-1.32-1.26-2.59-2.59-3.86-3.91z"/>
    <path fill="#3d0b0b" opacity=".58" d="M56.92 86.83c1.89-1.5 4.14-1.48 6.14-.19-2.05-.03-4.1.01-6.14.19z"/>
    <path fill="#050101" opacity=".29" d="M100.41 88.34c-1.39-2.13.11-3.88 2.4-3.66l1.87.13c-1.4 1.21-2.83 2.38-4.27 3.53z"/>
    <path fill="#010000" opacity=".14" d="M58.08 93.95c5.06.86 10.28.39 15.08-1.39-1.65 1.43-3.28 2.97-5.26 3.94-3.15.19-6.31 0-9.47.07l-.1-.78c-.06-.46-.19-1.38-.25-1.84z"/>
    <path fill="#0d0202" opacity=".4" d="M26.74 92.74l1.39.29c1.64.66 2.99 1.83 4.39 2.88l-3.89.28c-1.58-.25-1.24-2.38-1.89-3.45z"/>
    <path fill="#751516" opacity=".84" d="M75.85 98.87c.14-1.07.73-1.75 1.77-2.05.49 1.66-.1 2.34-1.77 2.05z"/>
</svg>
