<svg width="128pt" height="128pt" viewBox="0 0 128 128" xmlns="http://www.w3.org/2000/svg">
    <g fill="#fff">
        <path d="M49.52 21.35c3.04-2.46 6.93-4.73 10.99-3.84-2.38 2.56-6.76 4.16-5.83 8.48.26 4.09 6 2.28 7.74 5.25.36 3.92-1.16 7.65-1.75 11.46-.52 3.41-.75 6.87-1.28 10.28-.66 5.56-4.37 10.14-5.18 15.67-3.42-.1-4.98 2.89-5.44 5.85-2.72-3.17-4.71-6.85-6.92-10.35-2.44-4.13-6.93-6.33-9.86-10.03-2.9 2.06-4.9 5.11-4.72 8.79-6.96-12.9-.95-30.75 11.99-37.42-1.94 3.78-5.59 6.86-5.79 11.37-.17 2.9-1.87 5.69-1.19 8.61 3.25 6.33 9.74 9.85 14.77 14.57l-2.62.48c.98 2.1 2.51 3.91 4.68 4.83-.19-4.29 2.3-7.93 3.46-11.9 1.55-3.67 2.11-7.96 4.83-11-.12-2.88.11-5.76.08-8.64-.86.04-2.57.13-3.42.17-1.59.4-1.96 2.75-3.64 2.76-2.17-4.71-3.27-10.56-.9-15.39zM68.82 17.11c3.82.07 7.95 1.3 10.45 4.33 2.56 5.61 1.52 12.54-1.57 17.77-.14-.8-.43-2.4-.57-3.2-1.49-1.69-3.62-2.55-5.85-1.89-.33 5.01 1.83 9.61 3.23 14.3 1.46 4.8 3.7 9.28 5.79 13.82 4.64-4.71 9.76-8.92 14.48-13.54 3.73-3.78 1.49-9.21.12-13.51-.56-2.93-3.21-4.88-3.58-7.88 4.2 1.22 6.56 4.98 9.32 8.04 3.94 8.41 5.35 18.51 2.12 27.38-1.55-2.27-1.19-6.73-4.77-6.92-2.8.39-4.95 2.37-7.13 4.01-2.66 1.87-3.07 5.45-5.33 7.69-1.99 2.03-2.48 5.04-4.5 7.05-2.27-.41-2.27-2.92-2.98-4.65-1.06-.33-2.11-.67-3.17-1.01-.87-4.1-2.73-7.87-4.24-11.75-2.48-7.89-2.24-16.31-4.34-24.3.24-.58.72-1.76.96-2.35 3.08-1.15 7.71-2.49 7.49-6.59-.55-3.17-4.17-4.36-5.93-6.8z"/>
    </g>
</svg>
