<svg width="128pt" height="128pt" viewBox="0 0 128 128" xmlns="http://www.w3.org/2000/svg">
    <path fill="#fff" d="M63.82 45.88c.2-.51.58-1.51.77-2.01 2.93 13.69 6.35 27.31 11.26 40.43 4.25.58 7.91-1.84 11.75-3.17l-.04 1.66c2.4-.61 4.96-1.56 6.08-3.97 1.17-2.98 4.74-3.03 7.43-2.83.35-3.69 4.48-4.98 6.94-7.08 3.85-2.24 5.4-6.6 8.15-9.87 1.34 3-.36 6.15-.54 9.22-1.33 10.57-3.34 21.69-10.21 30.2-3.75 5.43-8.18 10.42-13.48 14.38 3.72-6.46 8.37-12.51 10.61-19.71 1.08.87 3.92 1.85 4.09-.17.06-1.82-1.63-1.91-3.02-1.62 1.19-3.72 1.61-7.74.41-11.52-2.93.78-5.43 2.52-7.95 4.14-2.78 1.92-6.43 1.86-9.16 3.88-3.02 2.2-6.58 3.42-9.76 5.33-2.79 1.38-3.39 5.2-6.6 5.97-.23-11.7-1.43-23.68-6.2-34.49-.69.8-1.79 1.38-2.03 2.5-1.95 10.23-3.99 20.6-3.36 31.07C51.57 93.07 44.66 86.75 35.9 84c-1.63-.66-2.51-2.75-4.47-2.56-1.6-2.03-4.48-.59-6.65-1.33-1.84 6.36.81 12.72 3.98 18.15 1.54 4.64 4.21 8.71 6.66 12.9-1.21-.49-2.38-1.15-3.06-2.3-2.35-3.38-5.53-6.03-8.19-9.13-1.93-2.12-1.9-5.41-4.23-7.22-.49-1.69-1.08-3.35-1.62-5.03-.39-.14-1.16-.44-1.55-.58-1.7-8.27-2.96-16.63-4.96-24.82.02-.83.07-2.49.09-3.31 3.61.63 3.97 4.92 6.2 7.2 3.09 3.23 6.88 5.74 10.45 8.4 6.25 2.45 11.47 7 17.88 9.02.8.63 1.59 1.28 2.37 1.94 1.32-.44 2.66-.85 4.01-1.19 2.2-1.54 2.22-4.33 2.92-6.67 2.7-10.53 5.99-20.92 8.09-31.59z"/>
</svg>
