<svg width="128pt" height="128pt" viewBox="0 0 128 128" xmlns="http://www.w3.org/2000/svg">
    <path fill="#b5292c" d="M45.17 9.64c2.13 3.19 3.58 6.76 5.11 10.26-.38 2.65-1.46 5.11-2.75 7.43-2.34-2.27-5.09-4.86-5.19-8.34.48-3.23 1.91-6.23 2.83-9.35z"/>
    <g fill="#b22b2c">
        <path d="M77.62 19.98c.55-3.33 2.33-6.55 5.02-8.64.9 1.51 1.84 3 2.71 4.52 1.52 4.61-1.82 8.45-4.78 11.5-1.03-2.42-2.76-4.69-2.95-7.38zM70.04 27.86c.85-1.67 2.92-2.27 4.34-3.37-.13 2-.42 3.99-.93 5.94l-.95.34c-2.82 1.04-6.32 2.18-7.33 5.35-.23 2.12.11 4.24.25 6.36 3.59 2.44 7.14 4.95 10.59 7.59-3.97 5.22-8.53 10.01-11.66 15.83l-.74-.04c-3.09-5.78-7.73-10.43-11.52-15.73 3.46-2.6 6.97-5.15 10.63-7.48.22-2.96.14-5.93-.33-8.85 1.94-.35 4.18-.33 5.65-1.86.93-1.22 1.34-2.72 2-4.08z"/>
    </g>
    <g fill="#b02b2c">
        <path d="M19.5 14.58c3.97 2.07 8.31 4.51 9.76 9.08.45 2.63.7 5.29.91 7.95-.41-.13-1.23-.38-1.64-.51-2.5-.9-5.59-1.4-7-3.96-2.53-3.68-2.15-8.33-2.03-12.56zM98.75 23.69c1.29-4.64 5.65-7.07 9.62-9.13.39 3.14.39 6.34-.27 9.43-.92 1.78-2.01 3.44-3.11 5.11-2.08.71-4.13 1.48-6.18 2.26-1.42-2.37-.44-5.16-.06-7.67zM80.29 30.33c.23-.03.68-.09.9-.11.11 2.16.07 4.33.12 6.5 1.78-2.16 2.28-4.97 3.36-7.49.17 2.28.3 4.57.31 6.86-1.47 1.36-3.08 2.57-4.53 3.97-.23.24-.71.73-.95.97.51 1.66 1.1 3.29 1.68 4.92-2.85-1.37-5.71-2.74-8.28-4.59.27-.29.83-.87 1.11-1.16 1.65-1.74 3.66-3.16 5.03-5.15.47-1.56.79-3.16 1.25-4.72z"/>
    </g>
    <path fill="#190809" opacity=".38" d="M33.75 19.58c-2.96-.3 1.08-4.84 1.68-1.98-.57.65-1.13 1.32-1.68 1.98z"/>
    <path fill="#1d0809" opacity=".39" d="M89.09 20.25c.79-2.29 3.51-3.77 5.86-3.12-.19 1.03-.46 2.05-.8 3.04-.03-.71-.07-2.15-.09-2.87-1.71.9-3.38 1.86-4.97 2.95z"/>
    <g fill="#b52c29">
        <path d="M33.75 19.58c.55-.66 1.11-1.33 1.68-1.98 3.84 2.77 7.28 6.53 7.55 11.53-1.52-.6-2.8-1.47-3.83-2.64-.39-1.1-1.13-1.65-2.22-1.64l-.86-.02c-.83-1.73-1.67-3.45-2.32-5.25zM89.09 20.25c1.59-1.09 3.26-2.05 4.97-2.95.02.72.06 2.16.09 2.87-.79 1.74-1.57 3.57-2.95 4.93-1 .21-1.81.73-2.42 1.55-.64.4-1.92 1.21-2.56 1.62-.13-.58-.4-1.75-.53-2.33.49-1.16.98-2.32 1.55-3.44.46-.57 1.39-1.69 1.85-2.25z"/>
    </g>
    <g fill="#ad2c31">
        <path d="M61.36 21.77c.84-1.56 1.79-3.07 2.68-4.61.93 1.61 1.94 3.18 2.85 4.8-.07 3.14-.82 6.29-2.9 8.74-2.07-2.5-2.93-5.71-2.63-8.93zM20.17 29.26c.31-.21.93-.63 1.23-.83 1.91 1.66 3.15 3.89 4.34 6.09-.63-.04-1.89-.11-2.53-.15-1.6-.85-2.9-2.14-4-3.57.24-.38.72-1.15.96-1.54zM106.8 28.08c.64.74 1.26 1.49 1.87 2.26l-.45 1.45c-1.18.93-2.4 1.81-3.67 2.61-.34-.11-1.02-.32-1.35-.43-.44-2.17 2.43-4.13 3.6-5.89z"/>
    </g>
    <g fill="#2d0c0e">
        <path opacity=".44" d="M62.73 33.02c.28-3.88-3.63-7.49-1.37-11.25-.3 3.22.56 6.43 2.63 8.93 2.08-2.45 2.83-5.6 2.9-8.74 1.68 3.42-1.32 6.81-1.78 10.18 2.26-.6 3.43-2.71 4.93-4.28-.66 1.36-1.07 2.86-2 4.08-1.47 1.53-3.71 1.51-5.65 1.86.47 2.92.55 5.89.33 8.85-3.66 2.33-7.17 4.88-10.63 7.48 3.79 5.3 8.43 9.95 11.52 15.73l.74.04c3.13-5.82 7.69-10.61 11.66-15.83-3.45-2.64-7-5.15-10.59-7.59-.14-2.12-.48-4.24-.25-6.36 1.01-3.17 4.51-4.31 7.33-5.35-.22.97-.47 1.95-.7 2.92l-.47-1.83c-1.97 1.31-5.45 2.34-5.19 5.31.81 1 1.7 1.93 2.57 2.87-.62-.27-1.88-.8-2.5-1.07.32.84.96 2.52 1.27 3.36 3.12 2.72 6.73 4.82 9.85 7.54-3.78 4.77-7.96 9.31-10.89 14.68-1.44 2.53-2.13 5.57-1.4 8.43 1.87 2.39 4.18 4.39 6.22 6.63 1.43-1.59 2.86-3.18 4.31-4.74-1.69-.52-4.79.42-5.23-1.99-1.32-6.11 2.08-11.66 4.93-16.74 1.2-1.94 2.33-4.06 4.23-5.41 3.14-1.42 7.67-.67 9.25-4.46-2.55.33-5.09 1.2-7.68.97-3.81-1.25-7.05-3.73-10.34-5.94 1.09-.37 2.18-.74 3.28-1.1-.28.29-.84.87-1.11 1.16 2.57 1.85 5.43 3.22 8.28 4.59-.58-1.63-1.17-3.26-1.68-4.92.24-.24.72-.73.95-.97.5 2.21 1.06 4.42 1.64 6.61 1.98-.55 3.92-1.21 5.86-1.86 1.37-.48 1.43-1.11.19-1.87-1.94-1.68 3.63-3.45 2.64-.73-.7 2.33-1.27 4.76-2.54 6.87-3 1.62-6.75 1.56-9.49 3.62-4.59 5.75-8.17 12.87-7.45 20.44 1.76.29 3.78.89 5.32-.43 1.28-2.11 2.1-4.47 3.46-6.54-.68 5.71-4.05 10.41-8.29 14.08l.18 5.86c-.96 6.05-.58 12.59-3.83 18.05-1.76 2.67-2.01 6.16-4.11 8.57-1.26-.8-1.37-2.39-1.93-3.63-1.32-3.83-3.82-7.21-4.46-11.28-1.2-3.69-.51-7.69-1.8-11.33l.04-.32c.16-2.38 1.1-5.25-1-7.07-3.2-3.28-6.42-7.01-6.49-11.88 1.18 1.74 1.94 3.7 2.96 5.53 1.48 1.12 3.44.86 5.18 1.06.18-3.66.42-7.5-1.28-10.88-1.84-3.74-3.53-7.81-6.66-10.65-2.88-1.33-6.03-1.91-9.04-2.84-.78-2.5-1.59-5-2.43-7.48 1.16 1.29 2.36 2.55 3.59 3.77 1.65.54 3.4.74 5.09 1.09.73-2.18 1.34-4.4 1.77-6.66.23.22.69.66.92.87-.46 1.68-.94 3.35-1.45 5.01 2.77-1.4 5.51-2.85 8.22-4.38-.34-.35-1.01-1.06-1.34-1.41 1.3.3 2.6.59 3.9.88-2.9 2.11-5.93 4.09-9.16 5.66-2.97 1.5-6.28-.07-9.34-.35 1.71 3.91 6.43 2.96 9.6 4.69 3.18 2.99 4.91 7.13 6.89 10.94 1.96 3.73 2.79 8.15 1.56 12.24-1.58.38-3.21.51-4.81.73 1.41 1.58 2.8 3.18 4.19 4.79 2.48-3.38 7.86-5.86 6.42-10.82-1.98-7.51-8-12.97-12.47-19.05 3.62-3.5 9.47-5.17 11.13-10.28-.49 0-1.47.02-1.96.02l-.76.01c1.34-.91 4.27-1.24 2.82-3.44-.97-1.8-3.82-5.36-5.81-2.85-.29-.85-.56-1.71-.85-2.55 1.44.5 2.88 1.02 4.33 1.52-.44-1.46-.88-2.92-1.4-4.36 1.31 1.83 2.65 3.68 4.53 4.99m-5.48 48.97c-.03 3.32.17 6.65.22 9.98.29 6.94 4.16 12.89 6.53 19.23 1.35-3.14 2.53-6.34 4.04-9.4 3.1-6.4 2.69-13.67 2.73-20.58-1.54-3.03-4.29-5.17-6.68-7.48-2.51 2.48-5.78 4.71-6.84 8.25zM29.26 23.66c.73.61 1.08 1.39 1.05 2.32.24 3.74.03 7.61 1.36 11.18 1.35 1.13 3.17 1.52 4.58 2.59-1.9-.32-3.78-.7-5.66-1.1-.27-2.16-.17-4.54-1.66-6.31-.3 2.48-.41 4.99-.47 7.49 2.08.77 4.15 1.54 6.22 2.31.67 3.97 1.2 7.95 1.98 11.89-2.36-2.36-1.64-6.14-2.23-9.16-1.17-.58-2.34-1.16-3.5-1.77l3.1-.16c-2.09-1.05-4.27-1.9-6.5-2.6-.51-1.77-.99-3.55-1.59-5.3.46.15 1.37.45 1.82.6.26-1.51.52-3.02.77-4.54.41.13 1.23.38 1.64.51-.21-2.66-.46-5.32-.91-7.95z"/>
    </g>
    <path fill="#160707" opacity=".32" d="M53.39 24.64c1.01-.16 2.03-.33 3.04-.49.13.69.38 2.07.5 2.77-1.01-.66-2.04-1.31-3.07-1.94.18 1.87.38 3.73.56 5.59-1.34-1.71-1.14-3.9-1.03-5.93z"/>
    <path fill="#28090a" opacity=".46" d="M97.88 24.72c.22-.26.66-.77.87-1.03-.38 2.51-1.36 5.3.06 7.67 1.69 2.61 2.07 5.68 1.8 8.74-2.28.86-4.54 1.76-6.76 2.77.87-.02 2.61-.05 3.48-.07-1.22.73-2.47 1.4-3.62 2.23-.6 2.79-.47 5.75-1.55 8.43-.74 1.62-2.66 2.02-4.1 2.76 1.23-1.09 2.59-2.1 3.47-3.51.94-3.39.91-6.98 1.91-10.36 1.85-1.27 4.06-1.87 6.14-2.68 0-2.56.25-5.29-1.16-7.57-.38 2.05-.58 4.13-1.03 6.17-1.87.74-3.87 1.01-5.84 1.35 1.63-.82 3.3-1.53 4.97-2.24 1.07-4.15.96-8.45 1.36-12.66z"/>
    <path fill="#6b1d20" opacity=".81" d="M36.93 24.85c1.09-.01 1.83.54 2.22 1.64-1.63.52-2.37-.03-2.22-1.64z"/>
    <path fill="#250a0b" opacity=".43" d="M88.78 26.65c.61-.82 1.42-1.34 2.42-1.55.05 1.8-.76 2.32-2.42 1.55z"/>
    <path fill="#9e2b2f" opacity=".96" d="M53.86 24.98c1.03.63 2.06 1.28 3.07 1.94l1.27 1.11c.52 1.44.96 2.9 1.4 4.36-1.45-.5-2.89-1.02-4.33-1.52l-.85-.3c-.18-1.86-.38-3.72-.56-5.59z"/>
    <path fill="#2f0b0b" opacity=".55" d="M84.04 29.16c.64-1.02 1.16-2.12 1.65-3.22.13.58.4 1.75.53 2.33-.14.38-.42 1.16-.56 1.54.01 2.11.06 4.27-.68 6.28-.01-2.29-.14-4.58-.31-6.86-1.08 2.52-1.58 5.33-3.36 7.49-.05-2.17-.01-4.34-.12-6.5-.22.02-.67.08-.9.11-.46 1.56-.78 3.16-1.25 4.72-.03-2-.06-4.02.38-5.99 1.53.08 3.09.36 4.62.1z"/>
    <path fill="#1c0707" opacity=".47" d="M44.1 28.87c2.35 1.25 1.39 4.14 1.53 6.28-.63-1.82-1.06-3.71-1.41-5.6l-.12-.68z"/>
    <path fill="#b2292c" d="M46.41 36.42c.53-2.5-1.31-6.19 1.58-7.59l.07.86c.15 1.88.26 3.76.53 5.63.26.24.78.73 1.04.97 1.46 1.29 2.95 2.55 4.29 3.96.33.35 1 1.06 1.34 1.41-2.71 1.53-5.45 2.98-8.22 4.38.51-1.66.99-3.33 1.45-5.01-.23-.21-.69-.65-.92-.87-1.42-1.52-3.57-2.52-4.42-4.47-.02-1.87-.04-3.76-.37-5.6l1.44-.54c.35 1.89.78 3.78 1.41 5.6.19.32.59.95.78 1.27z"/>
    <path fill="#060201" opacity=".35" d="M43.15 35.69c-1.94-.49-1.98-4.77-.37-5.6.33 1.84.35 3.73.37 5.6z"/>
    <path fill="#3f0f10" opacity=".61" d="M48.06 29.69c.92 2.09 1.31 4.35 1.57 6.6-.26-.24-.78-.73-1.04-.97-.27-1.87-.38-3.75-.53-5.63z"/>
    <path fill="#b22829" d="M28.93 32.34c1.49 1.77 1.39 4.15 1.66 6.31 1.88.4 3.76.78 5.66 1.1.91 2.74 4.88 2.43 4.46 5.98-1.23-1.22-2.43-2.48-3.59-3.77.84 2.48 1.65 4.98 2.43 7.48 3.01.93 6.16 1.51 9.04 2.84 3.13 2.84 4.82 6.91 6.66 10.65 1.7 3.38 1.46 7.22 1.28 10.88-1.74-.2-3.7.06-5.18-1.06-1.02-1.83-1.78-3.79-2.96-5.53.07 4.87 3.29 8.6 6.49 11.88 2.1 1.82 1.16 4.69 1 7.07-1.54-1.61-3.3-2.96-5.24-4.06-2.84-7.14-4.69-14.63-6.41-22.1 1.03-1.46 1.94-3 2.74-4.6-.34-.08-1.02-.24-1.36-.31-.51 1.37-1.03 2.75-1.53 4.12-2.42-1.81-4.95-3.45-7.42-5.19-.78-3.94-1.31-7.92-1.98-11.89-2.07-.77-4.14-1.54-6.22-2.31.06-2.5.17-5.01.47-7.49m16.88 30.63c.53-.55 1.59-1.66 2.13-2.21-.39 1.33-.95 2.65-.79 4.08l.52-.12.65-.41c.5 1.08.98 2.16 1.45 3.24.55-.55 1.1-1.11 1.63-1.68-1.96-2.72-2.77-5.99-3.8-9.13-1.62 1.66-1.53 4.1-1.79 6.23m4.51 5.38c.55 2.71 2.18 4.88 5.25 4.03-.58-1.78-1.42-3.46-2.75-4.8-.63.19-1.88.57-2.5.77z"/>
    <g fill="#b02829">
        <path d="M98.42 32.1c1.41 2.28 1.16 5.01 1.16 7.57-2.08.81-4.29 1.41-6.14 2.68-1 3.38-.97 6.97-1.91 10.36-.88 1.41-2.24 2.42-3.47 3.51-1.13.89-2.32 1.7-3.48 2.56-.85-1.68-1.75-3.32-2.7-4.94-1.26 2.03-.66 5.22 1.88 5.83-1.22 6.71-3.23 13.27-5.35 19.74-.72 3.33-4.39 4.36-6.44 6.7l-.18-5.86c4.24-3.67 7.61-8.37 8.29-14.08-1.36 2.07-2.18 4.43-3.46 6.54-1.54 1.32-3.56.72-5.32.43-.72-7.57 2.86-14.69 7.45-20.44 2.74-2.06 6.49-2 9.49-3.62 1.27-2.11 1.84-4.54 2.54-6.87.2-.65.58-1.94.77-2.59 1.97-.34 3.97-.61 5.84-1.35.45-2.04.65-4.12 1.03-6.17M80.39 58.38c.25.26.25.26 0 0m-1.32 1.09c-.2 2.53-1.22 4.85-2.55 6.97 1.61.56 4.3-.98 2.62-3.08.48.7 1.45 2.08 1.94 2.77.09-2.39-.38-4.83-2.01-6.66m2.06.77c-1.62 2.96 3.29.28 0 0m-6.09 7.15c-1.15 1.48-2 3.15-2.6 4.93l3.54-.24c.69-1.16 1.22-2.39 1.6-3.7-.85-.32-1.69-.66-2.54-.99zM57.25 81.99c1.06-3.54 4.33-5.77 6.84-8.25 2.39 2.31 5.14 4.45 6.68 7.48-.04 6.91.37 14.18-2.73 20.58-1.51 3.06-2.69 6.26-4.04 9.4-2.37-6.34-6.24-12.29-6.53-19.23-.05-3.33-.25-6.66-.22-9.98z"/>
    </g>
    <g fill="#ad2829">
        <path d="M24.22 34.44l1.72.6c.6 1.75 1.08 3.53 1.59 5.3 2.23.7 4.41 1.55 6.5 2.6l-3.1.16c-1.71-.38-3.41-.84-5.12-1.25-.46-2.48-1.05-4.94-1.59-7.41zM100.61 40.1c.74-1.43-.05-5.59 2.23-4.84 1.07 2.01-.46 4.3-.69 6.39-1.6.43-3.18.94-4.82 1.15-.87.02-2.61.05-3.48.07 2.22-1.01 4.48-1.91 6.76-2.77zM59.87 39.7c.49 0 1.47-.02 1.96-.02-1.66 5.11-7.51 6.78-11.13 10.28 4.47 6.08 10.49 11.54 12.47 19.05 1.44 4.96-3.94 7.44-6.42 10.82-1.39-1.61-2.78-3.21-4.19-4.79 1.6-.22 3.23-.35 4.81-.73 1.23-4.09.4-8.51-1.56-12.24-1.98-3.81-3.71-7.95-6.89-10.94-3.17-1.73-7.89-.78-9.6-4.69 3.06.28 6.37 1.85 9.34.35 3.23-1.57 6.26-3.55 9.16-5.66.51-.36 1.54-1.07 2.05-1.43zM66.21 38.97c.62.27 1.88.8 2.5 1.07.51.32 1.51.95 2.02 1.26 3.29 2.21 6.53 4.69 10.34 5.94 2.59.23 5.13-.64 7.68-.97-1.58 3.79-6.11 3.04-9.25 4.46-1.9 1.35-3.03 3.47-4.23 5.41-2.85 5.08-6.25 10.63-4.93 16.74.44 2.41 3.54 1.47 5.23 1.99-1.45 1.56-2.88 3.15-4.31 4.74-2.04-2.24-4.35-4.24-6.22-6.63-.73-2.86-.04-5.9 1.4-8.43 2.93-5.37 7.11-9.91 10.89-14.68-3.12-2.72-6.73-4.82-9.85-7.54-.31-.84-.95-2.52-1.27-3.36z"/>
    </g>
    <path fill="#a72728" opacity=".97" d="M88.14 42.94c1.24.76 1.18 1.39-.19 1.87.05-.47.14-1.4.19-1.87z"/>
    <path fill="#240809" opacity=".58" d="M83.76 59.67c-2.54-.61-3.14-3.8-1.88-5.83.95 1.62 1.85 3.26 2.7 4.94l.42.84-1.24.05z"/>
    <path fill="#3c0d0d" opacity=".69" d="M45.81 62.97c.26-2.13.17-4.57 1.79-6.23 1.03 3.14 1.84 6.41 3.8 9.13-.53.57-1.08 1.13-1.63 1.68-.47-1.08-.95-2.16-1.45-3.24l-.65.41-.52.12c-.16-1.43.4-2.75.79-4.08-.54.55-1.6 1.66-2.13 2.21z"/>
    <path fill="#120404" opacity=".57" d="M80.39 58.38c.25.26.25.26 0 0z"/>
    <path fill="#390c0d" opacity=".69" d="M79.07 59.47c1.63 1.83 2.1 4.27 2.01 6.66-.49-.69-1.46-2.07-1.94-2.77 1.68 2.1-1.01 3.64-2.62 3.08 1.33-2.12 2.35-4.44 2.55-6.97z"/>
    <path fill="#280809" opacity=".68" d="M81.13 60.24c3.29.28-1.62 2.96 0 0z"/>
    <path fill="#160505" opacity=".39" d="M75.04 67.39c.85.33 1.69.67 2.54.99-.38 1.31-.91 2.54-1.6 3.7l-3.54.24c.6-1.78 1.45-3.45 2.6-4.93z"/>
    <path fill="#120404" opacity=".36" d="M50.32 68.35c.62-.2 1.87-.58 2.5-.77 1.33 1.34 2.17 3.02 2.75 4.8-3.07.85-4.7-1.32-5.25-4.03z"/>
</svg>
