<svg width="128pt" height="128pt" viewBox="0 0 128 128" xmlns="http://www.w3.org/2000/svg">
    <g fill="#fff">
        <path d="M20.17 37.93c-4.36-4.1-1.61-11.75 2.95-14.54 5.63-1.6 12.95.8 14.94 6.74.56 3.38.67 6.82.97 10.23l-3.98-1.14c.04-4.28-.36-9.43-4-12.28-2.71-.67-6.21-1.72-8.55.42-1.97 2.59-1.63 6.44.57 8.79.76-.27 2.29-.8 3.05-1.07-1.35-.57-2.64-1.24-3.9-1.99 2.82-.98 4.97.28 5.78 3.01-1.64 2.91-5.05 3.87-7.83 1.83zM88.7 30.91c1.41-4.93 6.26-8.03 11.29-7.88 6.3-1.22 9.92 6.76 8.76 11.95-.67 3.22-4.09 4.16-6.95 4.21-.79-.89-1.63-1.74-2.34-2.69-.08-1.17.58-2.25.86-3.35 1.48-.12 2.96-.17 4.44-.14-1.26.8-2.57 1.54-3.9 2.22 1.36.21 3.13 1.4 3.99-.32 1.9-2.85 1.05-8.12-2.78-8.88-2.03.13-4.24-.04-6.11.88-2.92 2.24-3.84 6.13-4.01 9.63-1.09-1.87-2.17-3.75-3.25-5.63zM11.49 57.99c.75-3.81 3-8.59 7.41-8.94 3.47.15 7.17 1.32 9.46 4.09.15.93.43 2.78.58 3.7-.5-.12-1.49-.35-1.98-.47-.58-.67-1.75-1.99-2.34-2.66-2.49-.92-5.13-1.42-7.75-.7-1.69 2.84-3.33 7.96.2 10 2.74 1.94 5.81-3.42 2.5-4.38-.18.8-.52 2.39-.69 3.19-2.17-1.24-1.73-3.24-.84-5.18.72-.08 2.17-.22 2.89-.29 1.57 1.77 2.85 4.24 1.67 6.59-.64 2.94-4.23 2.56-6.53 2.5-3.54-.19-5.08-4.41-4.58-7.45zM97.4 54.96c2.52-3.96 7.11-6.25 11.79-5.75 4.83 1.61 6.65 7.46 6.38 12.09-1.18 3.15-4.23 4.97-7.6 4.17-4.7.04-5-6.48-2.02-8.97.74.02 2.22.05 2.96.07.95 1.98 1.4 4.01-.83 5.26-.16-.8-.46-2.38-.61-3.17-2.54.46-1.01 3-.51 4.51 1.37-.16 3.4.48 4.16-1.11 1.91-2.81.45-6.38-1-9.05-3.02-.6-7.11-.74-9.01 2.18-1.17 1.52-1.93 3.3-2.87 4.95-.35-1.71-.58-3.45-.84-5.18zM69.61 59.85c.62-.63 1.23-1.28 1.82-1.94-.85 1.97 1.5 3.81 3.25 3.58-.59.58-1.18 1.15-1.77 1.72l1.97.78c-.35.11-1.04.31-1.38.42-.63 1.08-1.28 2.15-1.96 3.2-1.16.03-2.32.07-3.49.09.18-2.67.52-5.36 1.56-7.85zM55.7 59.51c1.71-1.15 1.9 1.15 2.6 2.16.16 2.03.42 4.06.6 6.09-1.13-.07-2.26-.15-3.39-.24-2.53-2.04-2.93-6.31.19-8.01zM16.49 103.86c-.79-4.61 1.29-9.16 4.63-12.28 1.32.7 2.63 1.41 3.95 2.11-1.24 1.08-2.52 2.15-4.05 2.8-1.72 4.08.03 10.13 4.94 10.62 1.86.58 2.58-1.51 3.33-2.72-.99-1-1.98-1.99-2.97-2.98l.28 3.18c-3.4-.41-2.71-5.19.35-5.32 2.9.78 5.64 3.59 5.4 6.7-1.34 2.21-3.13 4.33-5.51 5.43-1.92.5-3.88-.12-5.8-.27-1.77-2.24-3.59-4.54-4.55-7.27zM104.44 95.58c.75-1.1 1.52-2.19 2.28-3.28 2.76 3.15 4.5 7.33 3.8 11.55-.98 2.74-2.79 5.06-4.58 7.31-3.7 1-7.77.32-9.86-3.17-3.67-2.96.64-8.58 4.45-8.6 2.75.55 2.99 4.85-.13 5.2l.28-3.18c-.98 1.01-1.96 2.03-2.94 3.05.67 1.33 1.44 2.88 3.2 2.77 5.24-.41 7.95-8.78 3.5-11.65zM48.9 106.05c1.57-5.51 11.07-4.56 11.71 1.02-.9 4.26-2.92 9.41-7.67 10.53-2.97.59-6.78 1.08-8.96-1.54-2.04-2.14-1.84-5.29-2.1-8.02 1.03-1.09 2.06-2.18 3.08-3.27.17 2.04.3 4.08.58 6.1 3.31 3.63 9.27 2.24 12.07-1.28.83-2.94-2.29-6.02-5.22-5.22-1.65 1.07-2.13 3.73.33 4.16.57-.5 1.71-1.51 2.28-2.01 1.11 1.31-.18 2.52-.75 3.7-2.65.22-5.05-1.46-5.35-4.17zM66.45 107.97c-.5-5.34 7.27-7.4 10.53-3.86 2.44 2-.17 6.27-2.96 5.92-1.64.43-2.33-1.46-2.69-2.66 1.2-.77 2.15-.37 2.87 1.2 2.49-.43 2.11-3.1.39-4.21-2.97-.8-5.84 2.29-5.22 5.17 2.72 3.56 8.87 5 12.07 1.31.37-1 .72-2.02 1.06-3.03.69.65 1.37 1.31 2.06 1.97-.18 1.59-.35 3.19-.59 4.78-1.66 4.14-7 3.96-10.56 2.83-4.17-1.25-5.67-5.73-6.96-9.42z"/>
    </g>
    <path fill="#d6d6d6" opacity=".84" d="M87.99 40.67c.16-3.26.41-6.51.71-9.76 1.08 1.88 2.16 3.76 3.25 5.63-.03 3.78-.03 7.56.06 11.34-.37-1.53-.74-3.06-1.09-4.59-.19-.94-.37-1.88-.54-2.83l-2.39.21z"/>
    <path fill="#dbdbdb" opacity=".86" d="M35.05 39.22l3.98 1.14c-.04 1.84-.05 3.67-.03 5.5-.42-.11-1.27-.32-1.69-.43-.59.3-1.76.91-2.34 1.21.03-2.47 0-4.95.08-7.42z"/>
    <path fill="#a5a5a5" opacity=".65" d="M87.99 40.67l2.39-.21c.17.95.35 1.89.54 2.83-1.02.51-2.01 1.07-2.99 1.64.02-1.42.05-2.84.06-4.26z"/>
    <g fill="#707070">
        <path opacity=".44" d="M87.93 44.93c.98-.57 1.97-1.13 2.99-1.64.35 1.53.72 3.06 1.09 4.59 1.2 4.12-.25 8.43.85 12.57-.55-.84-1.1-1.69-1.65-2.53.5-3.62.4-7.36-1.51-10.58-.53 2.77-1.01 5.55-1.61 8.31-.1-3.58-.11-7.15-.16-10.72zM29.35 65.91c.49-1.05 1.11-2.05 2.22-2.51l1.08-.23c.15 1.55.29 3.11.42 4.67-.56-.52-1.68-1.57-2.24-2.09-.06.97-.16 2.9-.21 3.87-.39 3.02 1.01 5.83 1.04 8.83.67.09 2 .26 2.67.35-.06.95-.15 1.9-.28 2.84 1.89-.23 3.24.8 4.21 2.32.41.25 1.23.73 1.64.97-.47-.14-1.42-.43-1.89-.57-.69-3.11-6.16-.85-4.39-4.89-2.73.15-3.24-2.14-2.79-4.34-.44-.83-.88-1.66-1.31-2.49.14-2.25-.04-4.49-.17-6.73zM81.83 91.75c4.49-.52 8.84-1.74 13.25-2.66 2.14.49 4.26 1.06 6.38 1.62l-3.99 1.05c-.02.21-.07.63-.09.84-.16 1.82-2.37 3.03-3.89 1.86-1.66-1.25-2.99.71-4.3 1.52-2.89-1.76-6.33.17-9.33-1.4 3.1.18 6.21.06 9.3-.22.26-1.13.53-2.25.8-3.38-2.66.61-5.4.83-8.13.77z"/>
    </g>
    <path fill="#a1a1a1" opacity=".63" d="M37.31 45.43c.42.11 1.27.32 1.69.43.01 2.56-.05 5.12-.15 7.67-.46-1.31-.95-2.62-1.46-3.91-1.11 2.12-2.06 4.32-2.65 6.65-.3-3.21-.16-6.43.23-9.63.58-.3 1.75-.91 2.34-1.21z"/>
    <g fill="#3c3c3c">
        <path opacity=".24" d="M89.7 47.34c1.91 3.22 2.01 6.96 1.51 10.58.55.84 1.1 1.69 1.65 2.53l.33.5-1.2.21c-.26.4-.79 1.2-1.05 1.6.84 2.72-.23 5.32-1.42 7.74.1-4.35.46-8.7.44-13.05-1.09 2.19-2.14 4.4-3.14 6.63.16-2.85.62-5.66 1.27-8.43.6-2.76 1.08-5.54 1.61-8.31zM32.12 88.94c3.94 1.06 7.9 2.06 11.92 2.81-2.74-.23-5.49-.39-8.24-.48.45.83 1.36 2.51 1.82 3.34 2.57-.12 5.19-.28 7.72.34-2.47.79-5.16-.47-7.5.97-1.33-.79-2.71-1.51-4.04-2.3-.5-1.58-1.11-3.13-1.68-4.68z"/>
    </g>
    <path fill="#545454" opacity=".33" d="M34.74 56.27c.59-2.33 1.54-4.53 2.65-6.65.51 1.29 1 2.6 1.46 3.91.18 1.49.11 3 .13 4.51-.63-.75-1.28-1.49-1.93-2.22-.59 2.28-1.18 4.56-1.63 6.87-1.31-1.95-1.27-4.24-.68-6.42z"/>
    <path fill="#c5c5c5" opacity=".77" d="M28.36 53.14c2.08 2.98 3.91 6.5 3.21 10.26-1.11.46-1.73 1.46-2.22 2.51-.39-3.33-1.19-6.61-2.7-9.62l.31.08c.49.12 1.48.35 1.98.47-.15-.92-.43-2.77-.58-3.7z"/>
    <path fill="#adadad" opacity=".68" d="M94.78 64.2c.23-3.23 1.08-6.38 2.62-9.24.26 1.73.49 3.47.84 5.18l.89-.3c-.7 1.75-1.08 3.61-1.39 5.46-.99-.37-1.97-.73-2.96-1.1z"/>
    <path fill="#262626" opacity=".15" d="M37.05 55.82c.65.73 1.3 1.47 1.93 2.22 1.38 1.47.53 3.72.81 5.52-.6-1.18-1.19-2.37-1.77-3.56-.47 2.8-.77 5.63-1.13 8.44-.91-1.77-1.6-3.72-1.47-5.75.45-2.31 1.04-4.59 1.63-6.87z"/>
    <path fill="#1e1e1e" opacity=".12" d="M86.82 64.08c1-2.23 2.05-4.44 3.14-6.63.02 4.35-.34 8.7-.44 13.05l-.01.47c-1.14 1.8-2.19 4.05-4.6 4.31 1.12-1.81 2.77-3.37 3.38-5.45.42-1.77-1.27-2.9-2.17-4.14.17-.41.52-1.21.7-1.61z"/>
    <path fill="#5e5e5e" opacity=".37" d="M90.94 62.76c.26-.4.79-1.2 1.05-1.6l-.2 1.61-.85-.01z"/>
    <g fill="#787878">
        <path opacity=".47" d="M94.09 63.95l.69.25c.99.37 1.97.73 2.96 1.1-.66 3.11.27 6.44-1.13 9.37-.12-2.42-1.1-4.63-2.74-6.39.06-1.45.14-2.89.22-4.33zM75.09 95.95c1.04.62 2.08 1.25 3.11 1.88.27-.4.81-1.19 1.08-1.58.33 2.48 2.44 4.15 3.59 6.27-1.37-.95-2.78-1.85-4.21-2.72.03.53.09 1.57.11 2.09-.49-.16-1.49-.49-1.99-.66-.56-1.76-1.14-3.52-1.69-5.28z"/>
    </g>
    <g fill="#303030">
        <path opacity=".19" d="M30.83 65.75c.56.52 1.68 1.57 2.24 2.09 1.45 2.24 1.22 5.25 1.66 7.83-1.34-2.04-1.97-4.65-4.11-6.05.05-.97.15-2.9.21-3.87zM47.5 96.58c1.17.07 2.34.09 3.5.29.28.95.42 1.92.6 2.89-1.07.9-2.13 1.81-3.21 2.69-.38-.84-.77-1.67-1.15-2.51l-1.27 1.07c.51-1.48 1.02-2.95 1.53-4.43z"/>
    </g>
    <path fill="#404040" opacity=".25" d="M93.37 67.64l.5.64c1.64 1.76 2.62 3.97 2.74 6.39.5 3.34-2.21 5.72-3.79 8.32-.57.02-1.71.07-2.27.09-.92 3.44-4.07 1.36-5.79-.08 1.31.3 2.62.63 3.93.96.55-1.02 1.11-2.03 1.67-3.05.62.11 1.84.32 2.46.43-.16-.55-.46-1.64-.61-2.19.77-.57 1.55-1.15 2.32-1.73l.48-4.56c-1.39 1.48-2.8 2.95-4.2 4.42l.46-1.15c1.29-2.66 1.86-5.56 2.1-8.49z"/>
    <path fill="#222" opacity=".13" d="M90.81 77.28c1.4-1.47 2.81-2.94 4.2-4.42l-.48 4.56c-.77.58-1.55 1.16-2.32 1.73.15.55.45 1.64.61 2.19-.62-.11-1.84-.32-2.46-.43l-1.04-1.52c-1.36.34-2.73.67-4.09 1.01 1.9-1.58 3.9-3.05 6.04-4.27l-.46 1.15z"/>
    <path fill="#dedede" opacity=".87" d="M21.12 91.58c1.94-1.3 4-2.54 6.4-2.66.24.62.74 1.86.98 2.48.51.23 1.54.71 2.05.94-.08.09-.26.26-.34.34-.87.78-1.73 1.56-2.58 2.36-.85-.45-1.71-.9-2.56-1.35-1.32-.7-2.63-1.41-3.95-2.11z"/>
    <path fill="#8d8d8d" opacity=".56" d="M27.52 88.92c1.53.02 3.06.03 4.6.02.57 1.55 1.18 3.1 1.68 4.68-.67 2.68-2.88.41-4.38-.11l.79-.83c.08-.08.26-.25.34-.34-.51-.23-1.54-.71-2.05-.94-.24-.62-.74-1.86-.98-2.48z"/>
    <path fill="#d0d0d0" opacity=".82" d="M95.08 89.09c4.16-.29 8.7-.22 11.64 3.21-.76 1.09-1.53 2.18-2.28 3.28l-.24.34c-.78-.74-1.57-1.47-2.36-2.2-.9.5-1.8 1-2.69 1.5-.63-.85-1.21-1.73-1.77-2.62.02-.21.07-.63.09-.84l3.99-1.05c-2.12-.56-4.24-1.13-6.38-1.62z"/>
    <g fill="#c2c2c2">
        <path opacity=".76" d="M47.24 99.94c.38.84.77 1.67 1.15 2.51-2.43 2.13-3.09 5.32-2.85 8.42-.28-2.02-.41-4.06-.58-6.1-1.02 1.09-2.05 2.18-3.08 3.27.73-2.65 1.7-5.42 4.09-7.03l1.27-1.07zM78.66 99.8c1.43.87 2.84 1.77 4.21 2.72 2.15 3.52 3.17 8.27 1.1 12.04.24-1.59.41-3.19.59-4.78-.69-.66-1.37-1.32-2.06-1.97-.34 1.01-.69 2.03-1.06 3.03.61-3.34-1.83-5.95-2.67-8.95-.02-.52-.08-1.56-.11-2.09z"/>
    </g>
</svg>
