<svg width="128pt" height="128pt" viewBox="0 0 128 128" xmlns="http://www.w3.org/2000/svg">
    <path fill="#270a0a" opacity=".48" d="M75.52 20.55c.43-1.89 1.34-4.04 3.65-3.87 3.47.33 7.59-.05 10.43 2.3-4.24-1.06-8.62-1.86-12.98-1.13.16 1.31.38 2.6.65 3.89 3 .41 6.35 0 8.79 2.18-2.86-.64-5.78-.9-8.7-1.11-2.44 4.22-2.16 9.16-2.96 13.81-1.59-.01-3.18.12-4.76.22.09 1.85.2 3.71.44 5.55-2.32-1.68-1.09-4.42-.29-6.55-.38-.47-1.12-1.41-1.5-1.88.26-4.89.06-10.83 4.7-13.85.64.11 1.9.33 2.53.44m-3.4 1.1c-3.05 3.62-2.8 8.77-3.04 13.24 1.56-.25 3.97.92 4.84-.92.18-3.18.43-6.39 1.79-9.32 1.25-2.29-1.49-5.23-3.59-3z"/>
    <g fill="#b53031">
        <path d="M76.62 17.85c4.36-.73 8.74.07 12.98 1.13 2.55.74 1.8 5.57 5.43 3.67 2.5 2.66 3.08 6.35 3.47 9.83-1.87-.02-3.73-.09-5.59-.2-.13-2.73-1.2-5.23-2.21-7.72-1.39 2.48-3.21.06-4.64-.64-2.44-2.18-5.79-1.77-8.79-2.18-.27-1.29-.49-2.58-.65-3.89zM72.12 21.65c2.1-2.23 4.84.71 3.59 3-1.36 2.93-1.61 6.14-1.79 9.32-.87 1.84-3.28.67-4.84.92.24-4.47-.01-9.62 3.04-13.24zM58.22 36.47c1.49-.39 3.02-.34 4.54-.2.38.04 1.16.12 1.54.17 1.41 2.46 4.5 7.48.13 8.69-2.47-1.87-.84-5.5-.99-8.06-.54.22-1.62.67-2.16.9l-1.1-.23c-.49-.32-1.47-.95-1.96-1.27zM69.64 36.84c1.58-.1 3.17-.23 4.76-.22.54.28 1.64.83 2.19 1.11.29 2.37-.48 4.58-1.54 6.66-1.48 0-2.95.01-4.42.02-.14-.51-.41-1.52-.55-2.02-.24-1.84-.35-3.7-.44-5.55zM51.48 64.95c-1.32-3.95-1.18-8.9 2.58-11.46.1 2.82.01 5.65.03 8.48l.09.96c-.67.5-2.02 1.51-2.7 2.02zM61.51 56.75l1.32-1.32c2.6 2.8 6.01 4.39 9.8 4.77.07.62.2 1.85.27 2.46 1.73.29 3.47.58 5.2.88-1.36 2.65-2.43 7.74-6.47 6.61.63-2.34 1.26-4.68 1.93-7.01-.63.23-1.9.7-2.54.93-3.89-.68-7.37-2.77-10.71-4.78.4-.85.77-1.71 1.2-2.54z"/>
        <path d="M59.27 60.83c4.15 1.21 7.86 3.47 11.68 5.43-.21 1.26-.5 2.51-.58 3.78-2.2 3.17-6.01 2.65-9.34 2.18-1.46-1.3-3.07-2.48-4.27-4.05-.05-1.54-.01-3.08.12-4.61 2.7 1.53 5.46 2.96 8.3 4.25.65.39 1.97 1.17 2.63 1.56.57-.45 1.14-.9 1.72-1.35-4.12-1-7.89-2.96-11.6-4.95.34-.56 1-1.68 1.34-2.24zM51.19 67.28c.38-2.04 2.4-1.73 3.99-1.87.17.96.53 2.86.7 3.82-.69 1.25-2.15 1.73-3.36 2.33-.48-1.41-1.1-2.79-1.33-4.28zM53.59 71.36c2.27-1.08 4.66-.51 6.81.56-1.3 5.1-3.83 9.74-6.19 14.41-1.61-.98-3.74-2.11-3.57-4.34.03-3.73 2.12-7.05 2.95-10.63zM34.13 74.63c2.78-1.11 5.61-2.71 8.72-1.93-.47.87-1.42 2.61-1.9 3.48.74-.7 2.23-2.1 2.97-2.8.23.44.7 1.31.93 1.74.76 1.39 1.53 2.78 2.33 4.15 2.03-1.63 3.24.32 2.49 2.23l-3.18-2.1c.05.75.16 2.26.21 3.01 1.53.24 2.89.82 3.44 2.39-.76 1.61-2.54 2.48-4.25 2.61-1.02-.95-1.42-2.14-1.19-3.58-.42-.17-1.24-.53-1.66-.71-1.21-2.3-2.98-4.59-2.64-7.35-.6 2.41-2.54 3.91-4.68 4.94-1.79-1.21-3.77-2.09-5.88-2.58 1.45-1.14 2.89-2.3 4.29-3.5zM66.82 73.78c1.45-.45 2.9-.93 4.41-1.16.6 1.2 1.12 2.45 1.56 3.72-1.56 1.05-3.23 1.91-4.96 2.61-.32-1.73-.65-3.45-1.01-5.17z"/>
        <path d="M60.58 74.75c1.51-3.7 7.09-.01 6.1 3.08-1.6 3.24-3.46 6.44-6.09 8.96-1.35 1.65-3.61.74-5.37.74.58-4.65 3.05-8.8 5.36-12.78zM59.19 89.18c1.14-.28 2.27-.52 3.43-.68-.06 1.18-.11 2.37-.22 3.54l-.58 1.87c-.52-.06-1.56-.16-2.09-.22-1.86-.91-.94-3.01-.54-4.51z"/>
    </g>
    <g fill="#ad3031">
        <path d="M91.7 37.03c-.4-3.57 3.85-5.02 6.56-3.48.36 1.19.72 2.38 1.1 3.57-1.13 3.55-3.79 6.53-7.74 6.8 3.26-1.81 1.12-4.54.08-6.89zM87.77 49.91c1.25-2.41 3.04.12 4.03 1.27.03 1.43-.42 2.77-.89 4.09-.06-2.28-1.7-3.8-3.14-5.36zM45.06 50.9c2.34-.23 4.7-.63 7.04-.28 1.4 3.7-2.8 4.16-5.38 3.94-.44-.43-1.32-1.31-1.76-1.74.03-.48.08-1.44.1-1.92zM64.49 52.5c3.68.45 6.87 2.57 10.23 3.99-.31.76-.92 2.28-1.23 3.04-4.16-.18-7.88-2-10.31-5.42l1.31-1.61zM81.32 65.82l3.96-.16c.14.26.42.79.56 1.05.94 1.75 1.79 3.55 2.54 5.39-3.85.66-7.63-2.16-7.06-6.28zM82.22 88.7c.83.42 1.67.84 2.51 1.26l-.09 4.05c-1.33-1.5-2.55-3.18-2.42-5.31z"/>
    </g>
    <path fill="#300c0c" opacity=".5" d="M54.94 38.63c1.46-2.42 5.72-5.81 7.82-2.36-1.52-.14-3.05-.19-4.54.2.49.32 1.47.95 1.96 1.27-1.7.54-3.45.98-5.24.89z"/>
    <path fill="#190607" opacity=".42" d="M61.28 37.97c.54-.23 1.62-.68 2.16-.9.15 2.56-1.48 6.19.99 8.06l1.15.96c-.41.49-1.23 1.46-1.63 1.95.18-.61.55-1.82.74-2.43-1.65.25-3.3.57-4.83 1.25.89-.73 1.79-1.46 2.68-2.19-.35-2.25-.73-4.49-1.26-6.7z"/>
    <g fill="#b23031">
        <path d="M69.93 45.39c2.15-.54 4.93-.72 6.43 1.24-.73 2.58-1 5.26-1.23 7.92-2.51-.12-5.18-.12-7.4-1.51-1.8-2.84.71-5.39 2.2-7.65zM29.42 78.01l.42.12c2.11.49 4.09 1.37 5.88 2.58 3.94 3.81.71 10.01-2.36 13.38.05 4.1 2.12 7.68 3.74 11.32-3.87-2.4-4.32-7.51-7.28-10.75-2.07 4.75 0 9.68-.02 14.57-2.37-2.83-2.56-6.7-3.39-10.15-1.48-6.14-1.25-13.36 2.92-18.44.02-.65.07-1.97.09-2.63zM72.95 87.44c.56.4 1.66 1.18 2.22 1.58.19.41.58 1.22.77 1.63 1.23 3.49 1.45 7.22 1.21 10.89-1.71-1.93-3.44-3.84-5.39-5.53-.57-2.94-.04-5.87 1.19-8.57zM67.18 99.08c1.69-.62 3.42-1.16 5.14-1.71 1.08 1.11 2.22 2.18 3.15 3.42 1 3.54-1.66 6.46-3.61 9.08-.28.22-.83.65-1.1.87-.91.43-1.61 1.08-2.1 1.96-2.78 2.7-6.49 4.09-9.84 5.93-1.14.74-2.5.75-3.81.79 3.67-1.97 7.64-3.92 9.01-8.21-3.36-.18-6.58.83-9.84 1.42 2.26-2.22 5.54-2.71 8.19-4.32.52-3.53 1.57-7.23 4.81-9.23z"/>
    </g>
    <path fill="#a72b2e" opacity=".98" d="M59.86 46.86c1.53-.68 3.18-1 4.83-1.25-.19.61-.56 1.82-.74 2.43-.29.23-.86.69-1.14.91-1.14.61-1.78 1.76-1.94 3.01-.36.66-1.06 1.99-1.42 2.65-.54.17-1.64.5-2.19.67.59-2.52 1.26-5.02 2.15-7.44.12-.25.34-.74.45-.98z"/>
    <path opacity=".14" d="M64.49 52.5c1.45-2.61 2.61-5.68 5.44-7.11-1.49 2.26-4 4.81-2.2 7.65 2.22 1.39 4.89 1.39 7.4 1.51.09 1.46.17 2.91.25 4.37 1.75-3.48 3.09-7.2 5.24-10.47 1.82-1.86 4.71-1.82 7.05-1.16 1.94.5 4.91 1.22 4.13 3.89-.99-1.15-2.78-3.68-4.03-1.27-.5.32-1.52.94-2.02 1.25.61-1.14 1.19-2.29 1.76-3.45-2.54.39-5.95-.09-7.32 2.69.23.36.71 1.07.95 1.42.68.11 2.03.32 2.71.43-.59 2.1-1.16 4.3-2.73 5.92.47-1.55.89-3.11 1.33-4.66-.59-.22-1.77-.67-2.35-.89l-.66.05c-1.45 3.47-3.06 6.87-5.09 10.04 2.37.22 4.22-1.09 5.6-2.87-.43 1.96-.78 3.94-1.09 5.92 2.12-.27 4.34-.93 6.42-.1l-3.96.16c-.57 4.12 3.21 6.94 7.06 6.28-.75-1.84-1.6-3.64-2.54-5.39 3.03.6 3.21 4.04 3.72 6.49-2.83.14-.74 3.45-.08 4.83l.61 1.24c-3.14.16-2.31-3.7-3.5-5.64-1.79-1.06-3.75-1.77-5.66-2.57-1.73 2.08-3.53 4.24-6.1 5.3l.51-1.22c2.62-2.27 5.15-4.81 5.95-8.33-1.65.78-3.28 1.61-4.89 2.48-1.37 1.14-2.77 2.26-4.16 3.37.31 1.34.62 2.67.94 4.01.03.14.1.43.14.58 2.31 1.15 4.54 2.47 6.57 4.08-.94.06-2.83.16-3.77.22.08 3.97 4.12 5.04 7.2 5.96-.78-1.37-1.57-2.73-2.34-4.11 2.69 1.09 3.44 3.96 3.75 6.56-.84-.42-1.68-.84-2.51-1.26-3.01-1.43-5.82-3.25-8.12-5.66-2.54 1.43-5.34 2.24-8.23 2.55 3.11.57 8.01-.34 9.3 3.43-.56-.4-1.66-1.18-2.22-1.58-1.23 2.7-1.76 5.63-1.19 8.57 1.95 1.69 3.68 3.6 5.39 5.53.24-3.67.02-7.4-1.21-10.89 2.7 1.46 2.1 4.82 2.14 7.39-.29 4.53-1.75 9.74-6.22 11.83 1.95-2.62 4.61-5.54 3.61-9.08-.93-1.24-2.07-2.31-3.15-3.42-1.72.55-3.45 1.09-5.14 1.71 1.15-1.02 2.41-1.89 3.71-2.71-.6-.89-.87-2.1-1.91-2.61-1.18.26-2.11 1.09-3.14 1.68l.11-.23c-.4-.53-1.19-1.59-1.59-2.12 2.26-.34 4.52-.72 6.79-1.08.07-1.66.66-3.45-.22-5-1.84-.7-3.52.65-5.21 1.16-.38-1.61-1.59-2.42-3.11-2.83.41 1.35.79 2.71 1.14 4.08-.29-.23-.85-.69-1.13-.92-1.16.16-2.29.4-3.43.68-.77-.05-2.32-.13-3.09-.17l-1.98.63h-3.19l.89-.09c1.89.39 1.98-2.26.36-2.65-.85-.54-1.53-1.24-2.04-2.1-.55-1.57-1.91-2.15-3.44-2.39-.05-.75-.16-2.26-.21-3.01l3.18 2.1c.75-1.91-.46-3.86-2.49-2.23-.8-1.37-1.57-2.76-2.33-4.15.61-1.07 1.22-2.14 1.81-3.22 1.28 1.95 2.68 3.87 4.78 5 .23-.94.69-2.83.91-3.77-.62-.33-1.87-1-2.5-1.33l2.67-.24c1.21-.6 2.67-1.08 3.36-2.33-.17-.96-.53-2.86-.7-3.82-.11-.26-.32-.79-.43-1.05-.14-.36-.43-1.07-.57-1.43l-.09-.96 2.79 1.59c-.13 1.53-.17 3.07-.12 4.61 1.2 1.57 2.81 2.75 4.27 4.05 3.33.47 7.14.99 9.34-2.18.31.03.94.09 1.26.11 4.04 1.13 5.11-3.96 6.47-6.61-1.73-.3-3.47-.59-5.2-.88-.07-.61-.2-1.84-.27-2.46-3.79-.38-7.2-1.97-9.8-4.77.09-.33.26-.99.35-1.32 2.43 3.42 6.15 5.24 10.31 5.42.31-.76.92-2.28 1.23-3.04-3.36-1.42-6.55-3.54-10.23-3.99m-10.9 18.86c-.83 3.58-2.92 6.9-2.95 10.63-.17 2.23 1.96 3.36 3.57 4.34 2.36-4.67 4.89-9.31 6.19-14.41-2.15-1.07-4.54-1.64-6.81-.56m13.23 2.42c.36 1.72.69 3.44 1.01 5.17 1.73-.7 3.4-1.56 4.96-2.61-.44-1.27-.96-2.52-1.56-3.72-1.51.23-2.96.71-4.41 1.16m-6.24.97c-2.31 3.98-4.78 8.13-5.36 12.78 1.76 0 4.02.91 5.37-.74 2.63-2.52 4.49-5.72 6.09-8.96.99-3.09-4.59-6.78-6.1-3.08m5.59 4.88c-.61 1.2-1.22 2.41-1.82 3.62 4.54 2.05 9.33-.96 12.91-3.62-3.82-1.67-7.6 2.69-11.09 0z"/>
    <path fill="#360e0e" opacity=".62" d="M56.29 56.08c.87-2.75.59-6.3 3.12-8.24-.89 2.42-1.56 4.92-2.15 7.44.55-.17 1.65-.5 2.19-.67.66.74 1.35 1.45 2.06 2.14-.43.83-.8 1.69-1.2 2.54 3.34 2.01 6.82 4.1 10.71 4.78.64-.23 1.91-.7 2.54-.93-.67 2.33-1.3 4.67-1.93 7.01-.32-.02-.95-.08-1.26-.11.08-1.27.37-2.52.58-3.78-3.82-1.96-7.53-4.22-11.68-5.43-.34.56-1 1.68-1.34 2.24 3.71 1.99 7.48 3.95 11.6 4.95-.58.45-1.15.9-1.72 1.35-.66-.39-1.98-1.17-2.63-1.56-2.84-1.29-5.6-2.72-8.3-4.25l-2.79-1.59c-.02-2.83.07-5.66-.03-8.48l2.23 2.59m.3 6.85c1.62-2.24 2.66-4.81 2.43-7.6-4.1-.05-4.76 5.11-2.43 7.6z"/>
    <path fill="#a72d2f" d="M80.19 50.4c1.37-2.78 4.78-2.3 7.32-2.69-.57 1.16-1.15 2.31-1.76 3.45-.48.27-1.43.81-1.9 1.09-.68-.11-2.03-.32-2.71-.43-.24-.35-.72-1.06-.95-1.42z"/>
    <path fill="#1d0707" opacity=".39" d="M40.9 51.15c3.63-.97 7.36-1.74 11.14-1.48.68 1.23 1.41 2.43 2.43 3.41l-.41.41c-3.76 2.56-3.9 7.51-2.58 11.46.68-.51 2.03-1.52 2.7-2.02.14.36.43 1.07.57 1.43.11.26.32.79.43 1.05-1.59.14-3.61-.17-3.99 1.87.23 1.49.85 2.87 1.33 4.28l-2.67.24c-.77-2.52-2.04-4.83-3.89-6.73.1 1.51.2 3.02.31 4.54-.03.37-.08 1.11-.11 1.49-.19-.66-.58-1.98-.77-2.64-3.3.23-6.57-.33-9.69-1.34l-.15-.1c-.42-.26-1.26-.79-1.68-1.05-1.45.25-2.52 1.34-3.64 2.21-.05.45-.14 1.34-.19 1.78l-.12 1.28c-2.55-2.69 2.65-6.97 5.71-5.76l.64-2c5.19-.1 10.46.91 14.33 4.63-.05-4.23-1.5-8.51.24-12.61-1.37-.31-2.75-.62-4.12-.94 2.58.22 6.78-.24 5.38-3.94-2.34-.35-4.7.05-7.04.28-.02.48-.07 1.44-.1 1.92-1.78 1.42-4.1 1.83-6.18 2.63.02-.72.04-2.15.05-2.87l.76.67c1.46 2.04 5.69-1.52 2.01-1.87l-.7-.23m-4.62 14.81c2.25.65 7.02 3.94 8.11.26-1.29-2.72-5.94-1.87-8.11-.26z"/>
    <path fill="#190607" opacity=".4" d="M60.87 51.96c.16-1.25.8-2.4 1.94-3.01 1 1.13-.46 3.64-1.94 3.01z"/>
    <path fill="#812221" opacity=".85" d="M41.6 51.38c3.68.35-.55 3.91-2.01 1.87.5-.47 1.51-1.4 2.01-1.87z"/>
    <path fill="#a62d2f" opacity=".98" d="M79.44 52.67l.66-.05c.58.22 1.76.67 2.35.89-.44 1.55-.86 3.11-1.33 4.66-.29.42-.88 1.25-1.17 1.67-1.38 1.78-3.23 3.09-5.6 2.87 2.03-3.17 3.64-6.57 5.09-10.04z"/>
    <path fill="#a72e2f" opacity=".98" d="M56.59 62.93c-2.33-2.49-1.67-7.65 2.43-7.6.23 2.79-.81 5.36-2.43 7.6z"/>
    <path fill="#ad2d2f" d="M36.28 65.96c2.17-1.61 6.82-2.46 8.11.26-1.09 3.68-5.86.39-8.11-.26z"/>
    <path fill="#631a1a" opacity=".74" d="M30.23 68.18c1.12-.87 2.19-1.96 3.64-2.21.42.26 1.26.79 1.68 1.05-1.81 1.02-3.65 2-5.51 2.94.05-.44.14-1.33.19-1.78z"/>
    <g fill="#af2f2e">
        <path d="M45.96 65.07c1.85 1.9 3.12 4.21 3.89 6.73.63.33 1.88 1 2.5 1.33-.22.94-.68 2.83-.91 3.77-2.1-1.13-3.5-3.05-4.78-5-.09-.57-.29-1.72-.39-2.29-.11-1.52-.21-3.03-.31-4.54zM62.61 85.34c1.52.41 2.73 1.22 3.11 2.83 1.69-.51 3.37-1.86 5.21-1.16.88 1.55.29 3.34.22 5-2.27.36-4.53.74-6.79 1.08-.23-1.22-.37-2.45-.61-3.67-.35-1.37-.73-2.73-1.14-4.08zM51.46 87.45l.72-.55c1.62.39 1.53 3.04-.36 2.65l-.36-2.1z"/>
    </g>
    <path fill="#a82d2e" opacity=".97" d="M76.4 69.29c1.61-.87 3.24-1.7 4.89-2.48-.8 3.52-3.33 6.06-5.95 8.33-.54.38-1.62 1.15-2.16 1.53-.32-1.34-.63-2.67-.94-4.01 1.39-1.11 2.79-2.23 4.16-3.37z"/>
    <path fill="#7c211f" opacity=".85" d="M89.48 78.03c-.66-1.38-2.75-4.69.08-4.83 1.05 1.31.97 3.54-.08 4.83z"/>
    <path fill="#a02b2b" opacity=".96" d="M66.17 79.63c3.49 2.69 7.27-1.67 11.09 0-3.58 2.66-8.37 5.67-12.91 3.62.6-1.21 1.21-2.42 1.82-3.62z"/>
    <path fill="#a22b2c" opacity=".96" d="M76.12 81.55c.94-.06 2.83-.16 3.77-.22.27.52.82 1.56 1.09 2.07.77 1.38 1.56 2.74 2.34 4.11-3.08-.92-7.12-1.99-7.2-5.96z"/>
    <path fill="#812221" opacity=".88" d="M40.52 87.18c-.32-2.12.39-3.46 2.13-4-1.48 4.28 3.95 6.48 3.72 10.65-2.34-1.85-4.18-4.2-5.85-6.65z"/>
    <path fill="#6f1d1b" opacity=".79" d="M54.12 89.64l1.98-.63-.24.86-1 .32-.74-.55z"/>
    <path fill="#5a1817" opacity=".73" d="M62.62 88.5c.28.23.84.69 1.13.92.24 1.22.38 2.45.61 3.67.4.53 1.19 1.59 1.59 2.12l-.11.23c-.23.44-.69 1.3-.92 1.73-3.44.72-6.92 1.56-10.44.84.4-.46 1.2-1.36 1.61-1.81 2.64-.23 5.3-.09 7.94.12.35-1.74-.25-3.19-1.63-4.28.11-1.17.16-2.36.22-3.54z"/>
    <path fill="#010000" opacity=".18" d="M62.4 92.04c1.38 1.09 1.98 2.54 1.63 4.28-2.64-.21-5.3-.35-7.94-.12 1.2-.85 2.42-1.68 3.64-2.51.53.06 1.57.16 2.09.22l.58-1.87z"/>
    <path fill="#030101" opacity=".27" d="M68.66 112.7c.49-.88 1.19-1.53 2.1-1.96.39 1.8-.31 2.45-2.1 1.96z"/>
</svg>
