<svg width="128pt" height="128pt" viewBox="0 0 128 128" xmlns="http://www.w3.org/2000/svg">
    <g fill="#fff">
        <path d="M55.49 38.4c1.71-3.54 5.81-2.79 8.8-1.72.88 2.03 2.39 3.9 2.48 6.2-.45 1.39-1.95 1.9-3.03 2.66-1.18-2.69-.99-5.6-.09-8.34-2.65 1.26-5.55-.6-8.16 1.2zM57.38 55.84c-.55-3.88 1.6-7.9 4.59-10.27.78.26 2.34.79 3.11 1.06-3.09 2.26-4.63 5.86-6.33 9.12.14.46.43 1.38.58 1.84-.84 1.96-1.17 5.26-3.99 5.1.25-2.16-1.29-6.56 2.04-6.85zM81.83 48.73c2.47-1.46 5.35-.33 7.97-.02 1.38 1.85 2.69 4.19 1 6.3.12-2.47-1.82-4.04-3.12-5.87-1.23.18-1.91 1.45-2.63 2.31-1.33.71-2.82.72-4.27.37 1.86 1.64 1.04 4.25.25 6.16-1.47 2.16-3.35 5.51-6.47 3.99 2.33-2.87 3.96-6.24 4.92-9.8l1.09.3c-.42-1.45-.28-3.04 1.26-3.74zM38.68 54.74c.96-1.54 2.21-2.86 3.64-3.97l.46 1.69c.96-.58 1.91-1.18 2.87-1.76 2.43.08 7.64-1.87 6.83 2.41-1.54 1.89-4.18 1.81-6.11.61-2.53-1.61-5.27.11-7.69 1.02z"/>
        <path d="M52.52 66.21c-3.2-3.59-2.43-10.2 1.62-12.86.6 3.32.36 6.73-.33 10.02l-1.83.84c1.74.66 3.68 1.5 3.74 3.67 1.03 2.05-1.89 2.68-2.92 3.78-1.23-1.47-1.66-3.3-1.87-5.16l1.59-.29zM71.6 70.85c.43-2.79.86-5.67 2.18-8.2.95.03 2.85.11 3.8.14-.01 3.55-2.19 7.51-5.98 8.06zM35.81 65.18c2.87-.05 8.61-2.53 8.77 2.05-3.02 1.65-6.39-.08-8.77-2.05zM29 70.66c1.13-2.24 3.61-5.87 6.32-3.53-2.32.76-4.46 1.93-6.32 3.53zM45.53 64.95c2.73 1.65 3.94 4.72 4.51 7.71 3-.87 2.08 2.45 1.44 4.03-1.42-.58-2.81-1.36-3.33-2.91-1.97-2.5-2.11-5.82-2.62-8.83zM81.85 67.67l-.36-1.94c1.59.07 3.14.44 4.55 1.21.68 1.65 1.65 3.17 2.67 4.63-3.31 1.15-6.3-.68-7.74-3.69-1.28 3.88-4.75 6.26-7.8 8.69l-.84-3.83c3.03-1.79 5.6-6.04 9.52-5.07zM34.38 74.59c2.74-.92 5.44-2.68 8.44-1.68-1.67 2.46-3.11 5.46-5.83 6.88-2.49-.44-5.32-1.89-7.43.33 2.24.22 5.13-.64 6.85 1.3 2.09 2.9.51 6.63-.84 9.49-.76 1.68-2.83 3-2.23 5.06.41 3.41 2.38 6.29 3.71 9.38-3.91-2.36-3.79-7.75-7.27-10.59-2.38 4.67-.11 9.71.04 14.57-1.87-2.35-2.07-5.45-2.87-8.22-1.25-5-1.87-10.3-.22-15.29.47-2.67 2.84-4.54 2.98-7.3 1.42-1.46 3.17-2.56 4.67-3.93zM67.03 73.77c1.46-.28 3.35-1.94 4.58-.43.26.68.79 2.02 1.06 2.69-1.36 1.33-2.98 2.3-4.82 2.82-.24-1.7-.51-3.39-.82-5.08zM88.32 73.21c3.2-.34 1.66 4.28.49 5.84-.12-1.95-.4-3.89-.49-5.84z"/>
        <path d="M43.52 73.56c2.44 2.46 3.9 6.32 2.74 9.64-3.59 1.7-4.56-3.53-6.11-5.67 1.15-1.3 2.28-2.62 3.37-3.97zM68.75 81.33c2.54-1.46 5.43-2.3 8.38-1.92-3.3 2.86-8.07 5.57-12.48 3.88.51-1.22 1.04-2.43 1.59-3.63.84.55 1.67 1.11 2.51 1.67zM77.38 81.16c3.61-.07 3.92 4.51 6.28 6.47-2.79-.95-5.99-1.72-7.48-4.55l1.2-1.92zM44.5 85.29c1.47-.84 2.64-3 4.57-2.56.39 1 .66 2.03.79 3.1-1.98.92-4.38 2.33-5.36-.54zM63.34 93.22c-1.37-4.37 3.54-5.56 6.66-6.6 2.78.04.95 3.55 1.03 5.18-2.54.6-5.08 1.22-7.69 1.42zM73.11 87.93c4.5 2.38 3.94 8.93 4 13.36-2.27-1.01-2.49-4.14-5.06-4.87-.72-2.81-.94-6.12 1.06-8.49z"/>
        <path d="M61.83 94.18c-3.68.29-4.13-4.75-.85-5.72 3.43-.11 1.11 3.99.85 5.72zM82.08 88.85c2.85.16 2.61 3.2 2.75 5.29-1.34-1.52-2.28-3.32-2.75-5.29zM70.97 97.83c3.67-.06 5.93 5.03 3.75 7.92-4.35 6.98-11.82 11.7-19.62 13.83 3.45-2.31 7.96-3.96 9.02-8.48-3.54-.63-6.81 1.29-10.3 1.48 2.77-2.63 8.69-1.97 9.17-6.56.38-4.21 4.02-7.32 7.98-8.19z"/>
    </g>
</svg>
