<svg width="128pt" height="128pt" viewBox="0 0 128 128" xmlns="http://www.w3.org/2000/svg">
    <path fill="#fff" d="M60.42 31.01c2.13-.39 4.29-.35 6.43-.15.25.56.74 1.68.99 2.24.83.61 1.66 1.21 2.49 1.82 1.2-.4 2.39-.79 3.59-1.18 2.11 2.47 4.22 4.95 6.12 7.59-.49.83-1 1.65-1.52 2.46.83 1.75 1.65 3.52 2.51 5.26-2.75 6.65-1.45 14.66-6.08 20.58l.37-3.13c-2.37 2.58-2 6.15-2.59 9.33-.79 2.34-2.03 4.51-2.73 6.88-1.86-2.1-2.31-5.83.32-7.52l-2.09 1.97.04-3.15c-.18 1.65-.38 3.29-.66 4.93-.67 4.09-1.01 8.66-4.34 11.61-2.45-3.9-2.88-8.52-3.98-12.88.14 3.1.51 6.19.81 9.28.43 3.77 1.12 7.65 3.41 10.8 2.19-2.86 3.5-6.3 3.35-9.94 1.4-2.1.71-4.7 1.02-7.05.68.81 1.36 1.63 2.04 2.45-1.38 5.14-.49 10.56-1.94 15.69-.38 1.61-1.88 3.17-3.7 2.8.36-.54 1.08-1.62 1.45-2.17-2.28-.34-3.75-2.06-5.29-3.59.89 3.58 2.58 7.11 1.65 10.87.11-3.17-1.87-5.47-3.82-7.72-1.5-7.28 1.2-15.84-3.72-22.15-.42-3.48-.49-7.12-2.18-10.29-.04.77-.11 2.32-.15 3.09-4.69-5.95-2.89-13.98-6.05-20.49 1.13-2.07 2.44-4.12 2.6-6.54-1.13.21-2.26.42-3.38.65 2.89-2.82 5.03-6.32 8.06-9 1.09-.81 2.31.54 3.38.79.9-.6 1.8-1.21 2.7-1.82.22-.58.67-1.74.89-2.32m4.22 19.01c-.44-5.68-.05-11.37-.44-17.05-.87 5.67-.24 11.39.44 17.05m-16.09 2.1c1.84 2.1 3.56 4.71 6.56 5.16-1.04-3.99-2.88-7.7-5.34-11-1.02 1.74-2.49 3.81-1.22 5.84m28.26-6.61c-.02.75-.07 2.26-.1 3.01-2.39 2.33-2.87 5.66-3.65 8.74 2.13-1.52 4.09-3.32 5.7-5.38 1.32-2.29-.35-4.77-1.95-6.37m-22 15.47c1.8 3.31 3.14 6.79 4.08 10.43.19-3.88-.93-7.94-4.08-10.43m13.58 10.65c1.1-3.77 2.05-7.57 4.28-10.88-3.63 2.31-4.42 6.9-4.28 10.88m-10.22 2.82c-.88 1.23-.66 1.96.67 2.19.87-1.22.65-1.95-.67-2.19z"/>
    <path fill="#c2c2c2" opacity=".76" d="M58.17 74.45c1.32.24 1.54.97.67 2.19-1.33-.23-1.55-.96-.67-2.19z"/>
</svg>
