<svg width="128pt" height="128pt" viewBox="0 0 128 128" xmlns="http://www.w3.org/2000/svg">
    <g fill="#fff">
        <path d="M51.41 26.6c10.72-2.62 22.18-5.98 29.36-14.98-.32 10.27-10.14 17.44-19.63 18.6-6.12.53-12.14 3.67-15.41 8.98-.1 1.08-.2 2.15-.32 3.22-1.23-.06-2.47-.12-3.7-.17-1.01 3.42 2.23 5.07 3.35 7.58-4.16 1.08-9.14 3.71-8.43 8.81-2.29.62-4.65.8-7 .47.65-.52 1.94-1.56 2.58-2.08 1.56-3.12 5.24-6.92 2.14-10.31 1.89-2.16 4.71-2.99 7.19-4.22-7.5.77-13.61 6.22-18.4 11.67-3.24-2.76-1.77-7.42 1.34-9.56.42-2.25 1.73-4.21 3.7-5.4 7.36-4.79 14.38-10.84 23.23-12.61m-20.8 14.36c-.65 1.36-.26 1.83 1.16 1.4.72-1.33.33-1.79-1.16-1.4z"/>
        <path d="M60.6 32.94c8.09-1.4 16.7-2.02 24.56.94 6 2.2 11.95 4.56 18.13 6.2-4.19 1.05-8.19-1.07-12.35-1.29-5.63-.69-11.69.01-16.1 3.89-1.81-1.39-3.15-3.24-4.68-4.92-2.69-2.49-6.38-3.21-9.56-4.82z"/>
        <path d="M75.07 43.56c1.3-1.71 3.28-2.53 5.19-3.35 4.48 4.98 11.54 6.55 15.78 11.81 3.42 3.35 5.02 8.14 8.8 11.14-.35.07-1.05.19-1.41.25-3.92-3.28-6.73-7.68-10.78-10.82-2.56-1.67-5.75-1.42-8.65-1.55-3.2-.2-5.73 2.13-8.5 3.36.18-3.62.88-7.33-.43-10.84z"/>
        <path d="M68.69 66.63c3.67-5.04 5.79-12.46 12.61-14.14.34 5.8 4.89 9.89 6.93 15.01.6 3.74 1.27 7.5 3.55 10.64-5.22-2.31-4.82-9.6-9.57-12.45-2.11-1.49-4.76-1.52-7.24-1.51-.13 2.08-.23 4.17-.33 6.26 3.59 4.85 4.25 10.88 6.45 16.33-5.36-3.68-5.5-13.01-13.08-13.57-.23 1.97-1.87 3.21-2.83 4.81-2.05 3.41-2.34 7.51-2.41 11.39 1.57 2.88 3.09 6.16 6.2 7.68 5.67 2.92 12.87 1.37 17.53-2.76 4.8-3.99 7.3-9.89 11.05-14.73 3.03-2.59 5.8-6.28 10.04-6.74-5.86 2.94-5.93 10.22-8.39 15.51-1.43 6.5-4.4 12.87-9.68 17.14-13.35 11.45-34.77 10.09-47.77-1.22-3.62-3.24-6.37-7.51-7.42-12.28.39-2.15 1.78-3.91 2.79-5.79 2.6 7.26 9.01 12.63 16.6 13.97 5.41 6.37 14.57 6.92 22.29 5.8 8.65-.07 15.35-7.84 17.07-15.81-4.25 5.82-10.85 10.11-18.08 10.9-5.32.52-10.53-2.19-13.67-6.41-5.28-5.72-2.9-14.5.44-20.61 1.5-.16 2.99-.32 4.49-.47-.63-.19-1.9-.58-2.54-.78.9-2.6 2.91-4.46 4.97-6.17z"/>
    </g>
</svg>
