<svg width="128pt" height="128pt" viewBox="0 0 128 128" xmlns="http://www.w3.org/2000/svg">
    <g fill="#fff">
        <path d="M54.81 37.98c3.15 1.69 3.48 5.22 2.58 8.33 3.24-1.53 3.97-5.1 3.42-8.39 4.39 3.94 1.76 10.18-2.34 13.14 2.21-.9 4.86-1.3 6.48-3.21 1.71-2.13 2.78-4.67 4.18-6.99 1.32 3.63-.19 7.7-3.11 10.05-3.42 2.63-7.53 4.64-11.93 4.64.92-1.7 2-3.31 3.37-4.68-1.18-1.43-1.01-3.29-1.12-5.02-1.05-.67-2.11-1.34-3.17-1.99 1.97-1.49 2.48-3.52 1.64-5.88z"/>
        <path d="M57.9 56.45c5.53-1.57 10.65-5.3 12.72-10.81.05.79.14 2.38.19 3.18-1.55 3.02-3.71 5.68-5.95 8.21-6.58 5.24-13.73 10.73-17.06 18.73-1.88 4.3-1.2 9.04-.2 13.46-5.36-3.87-6.11-11.16-6.4-17.26-1.77 1.28-3.35 2.77-4.96 4.24.72.41 1.45.82 2.18 1.23l-.74-1.21c.6-.36 1.81-1.09 2.42-1.45.64 6.63 3.49 13.02 8.41 17.57.51 1.54 1.33 2.94 2.34 4.2-.14 1.61-1.56 2.83-3.36 1.78.9-.33 1.81-.68 2.7-1.03-6.78-1.71-9.93-8.57-13.23-14.04-1.08 1.73-1.81 3.76-3.42 5.1-.47-3.38.46-6.87 2.75-9.43-.53-.81-1.06-1.62-1.57-2.44 3.07-6.98 9.06-12.13 14.8-16.91 2.27-2.16 5.58-2.09 8.38-3.12zM28.35 53.37c2.56-1.68 3.5-4.87 6-6.55.33 3.91-1.88 7.38-5.09 9.4-3.07 1.93-5.24 4.91-6.32 8.36-.82-4.54 1.89-8.63 5.41-11.21z"/>
    </g>
</svg>
