<svg width="128pt" height="128pt" viewBox="0 0 128 128" xmlns="http://www.w3.org/2000/svg">
    <g fill="#fff">
        <path d="M37.93 68.23c3.77-7.25 9.32-14.03 16.95-17.37.96 5.44 3.5 10.4 7.01 14.63 1.29 1.24 1.03 2.82-.69 3.39-1.8-2.81-4.16-5.34-7.01-7.1 2.35 2.99 5.94 5.11 7.31 8.81.48 2.72 1.08 5.58.52 8.33-1.04 1.29-2.55 2.09-3.91 3-2.94-2.65-5.52-6.62-9.94-6.55-.54-1.4-1.23-2.76-1.56-4.23.27-4.69 4.3-7.46 7.17-10.62.13-.5.39-1.49.52-1.98-3.91 3.02-7.1 7-9.54 11.26-1.66 2.95-2.43 6.31-2.6 9.67.97-2.52 1.47-5.19 2.36-7.74l2.07 1.95c-1.03 2.89-2.53 5.7-2.43 8.86 1.05-1.82 1.81-3.79 2.71-5.69.58 2.99 1.27 6.02.88 9.08-.2 1.96-.58 4.73 1.58 5.8.38 3.8 3.24 6.97 2.69 10.96-5.4-4.59-7.35-11.61-9.74-17.96.41 7.88 4.48 15.37 10.4 20.48 1.86 3.2 3.28 6.65 5.23 9.81-6.52-4.67-13.28-9.58-16.89-16.99-4.29-6.33-5.32-13.98-6.91-21.27 3.45 1.23 6.06 3.85 9.19 5.64-2.37-3.39-5.83-5.67-9.11-8.05 1.51-1.87 2.74-3.94 3.74-6.12m9.84 1.79c1.79 3.84 5.66 5.41 9.36 6.85.86-.35 1.72-.7 2.59-1.06-.34-4.71-3.38-8.33-6.93-11.14-1.85 1.61-3.53 3.41-5.02 5.35zM70.83 51.4l2.72.08c4.56 2.97 8.76 6.5 12.36 10.59 3.16 3.68 4.44 8.54 7.59 12.23-2.59 2.26-5.79 3.74-7.9 6.57.82-8.84-5.86-15.4-11.11-21.56-1.77 2.55-3.66 5.16-6.39 6.76-.42 1.49-3.44 3.34-2.82.6 1.26-1.7 2.67-3.32 3.58-5.26 1.64-3 3.03-6.14 3.8-9.48-.45-.14-1.37-.4-1.83-.53z"/>
        <path d="M61.62 53.69c.54.02 1.62.05 2.16.07.28 3.96 2.18 7.79 1.47 11.79-.97.24-2.23.62-2.79-.51-1.36-2.89-3.06-5.59-4.86-8.22 1.33-1.05 2.68-2.09 4.02-3.13m.67 8.06c1.11-1.8 1.26-5.11.72-7.36-1.94 1.26-.58 5.15-.72 7.36zM74.14 60.56c3.09 2.53 6.14 5.6 7.43 9.44-.59 1.87-1.4 3.67-2.17 5.46-4.33-.3-6.6 3.78-9.56 6.11-1.74.29-2.88-1.48-4.26-2.25-.47-4.81.31-10.22 4.1-13.6 1.78-1.45 3.19-3.26 4.46-5.16m-4.22 9.35c-.9 1.88-1.2 3.97-1.69 5.97 1.09.19 2.2.98 3.33.58 3.19-1.1 6.82-2.75 8.04-6.17-1.02-2.21-2.77-3.93-4.42-5.66-1.81 1.69-3.88 3.18-5.26 5.28z"/>
        <path d="M61.79 69.82c.15-1.89 3.01-1.82 4.1-.84.64 1.31-.19 2.68-.47 3.97-1.71 4.72-.73 9.77-.84 14.66l.95.08c-.08 1.51-.16 3.04-.17 4.56.37-1.29.73-2.59 1.06-3.89 1.14 1.9 2.71 3.45 4.12 5.13 1.13.31 2.22.7 3.33 1.08-2.01 1.86-2.35 4.69-.61 6.81-1.12 1.7-2.46 3.34-4.4 4.13-.63 3.01-.85 6.08-1.32 9.12-.36-3.58-.71-7.16-1.49-10.68 1.73-1.32 6.21-2.81 4.19-5.57l1.06-.79-3.4-.17c.22.43.68 1.28.91 1.71-2.15.1-3.5 1.96-5.33 2.84-.38-.61-1.14-1.82-1.52-2.43 2.38 1.5 3.49-1.79 5.51-.9.3-1.21.8-2.35 1.35-3.47-.49-.42-1.47-1.27-1.96-1.69.31.63.93 1.91 1.24 2.54-1.81.02-3.01 1.36-4.25 2.48-1.37-1.29-2.89-2.4-4.51-3.35 3.17-2.1 4.33-7.33 2.87-10.77-.2.97-.59 2.91-.79 3.88-1.48 1.12-2.81 2.42-4.12 3.72-2.48-1.38-4.85-2.95-7.34-4.3 2.19 2.22 3.56 5.66 6.93 6.26 1.41-1.55 2.48-3.96 4.56-4.59 1.48 3.59-2.35 5.46-4.59 7.28 1.34.02 2.67.05 4.01.1l-1.19 1.66h2.26c-.09 5.61-1.58 11.07-1.74 16.68-.51-3.17-.74-6.39-1.31-9.55-2.26-1.18-4.94-3.14-4.25-6.1 2.38 1.29 4.57 2.9 6.74 4.52-.07-1.65-.11-3.29-.22-4.94l-1.3.94c-.16-1.95-2.31-2.01-3.5-3.03l-.08 1.43c-.9-1.6-1.8-3.2-2.7-4.79l-1.16-.03.02-.02-.03.01.01-1.21c-1.3-.8-2.58-1.62-3.9-2.38.68-2.63 1-5.33 1.3-8.03 2.59 1.88 3.83 4.99 6.37 6.94 2.65-1.29 4.43-3.67 6.37-5.78l-.43-1.14c-1.06 1.93-2.5 3.62-4.14 5.08-2.44-2.11-4.94-4.34-8.15-5.18-.38-2.08-.8-4.15-1.29-6.21 1.26.65 2.72 1.02 3.79 1.98 1 1.98 1.6 4.38 3.76 5.45 1.06 1.12 2.14-.65 3.19-.93 1.25-.77 3.37.25 4.07-1.31.32-3.77-1.26-7.28-1.57-10.97zM82.47 70.79c1.45 2.88 2.73 6.06 2.68 9.32-.18 1.66-2.82.16-2.16-1.07-.82-2.78-2.68-5.51-.52-8.25z"/>
        <path d="M70.61 83.49c4.3-1.26 3.48-7.43 8.37-7.89-.47 2.79-1.24 5.63-.72 8.49.79 1.92-.8 3.38-2.16 4.36 1.15.45 2.51.11 3.73.27-1.07 1.15-2.89 2.18-2.2 4.05-1.05 3.03-2.48 5.96-2.7 9.23-.87-1.24-1.73-2.49-2.55-3.77.91-1.51 1.85-3 2.8-4.48l-3.17-.45c2.9.33 3.16-2.27 2.49-4.01-1.62.47-3.5 4.07-5.21 1.73-1.56-1.46-2.77-3.23-3.94-5 .51-.57 1.02-1.13 1.52-1.7.77 2.3 2.82 3.79 5.05 4.47 1.98-2.31 3.74-4.78 5.56-7.21-2.83 1.39-5.4 3.24-7.67 5.43-2.27-1.94-4.01-4.46-4.93-7.31 1.94 1.18 3.61 2.92 5.73 3.79z"/>
        <path d="M80.17 88.88c.02-3.68-1.52-8.46 1.48-11.32.77 1.93.08 4.54 1.71 6.07 1.25.58 1.86-.98 2.51-1.7 2.01-2.41 4.85-3.93 7.71-5.1-1.62 7.19-2.55 14.78-6.84 21-3.53 7.49-10.32 12.42-16.84 17.14 2.52-3.86 3.45-8.89 7.26-11.78 4.69-4.98 7.88-11.49 8.27-18.37-2.53 6.24-4.26 13.48-9.85 17.89-.07-5.04 2.94-9.27 4.59-13.83zM61.45 89.35c.28-.46.28-.46 0 0z"/>
    </g>
    <path fill="#747474" opacity=".45" d="M60.65 52.56c1.75-.13 3.5-.21 5.24-.38.57.96 1.15 1.9 1.77 2.82-.53-.37-1.58-1.09-2.11-1.45.23 2.92.38 5.85.52 8.78.89-1.17 1.77-2.34 2.63-3.53l.16 2.61c-.91 1.94-2.32 3.56-3.58 5.26-.01-.28-.03-.84-.03-1.12.71-4-1.19-7.83-1.47-11.79-.54-.02-1.62-.05-2.16-.07l-.97-1.13z"/>
    <g fill="#fafafa">
        <path opacity=".98" d="M65.55 53.55c.53.36 1.58 1.08 2.11 1.45.63.42 1.89 1.27 2.52 1.69-.37.53-1.11 1.58-1.48 2.11-.86 1.19-1.74 2.36-2.63 3.53-.14-2.93-.29-5.86-.52-8.78zM49.67 91.35l2.74 2.16.01.01c.97 1.48 2.02 2.89 3.04 4.33-.79 1.35-1.55 2.71-2.28 4.09-.99-3.59-2.49-7.01-3.51-10.59z"/>
    </g>
    <path fill="#878787" opacity=".53" d="M44.76 69.8c2.44-4.26 5.63-8.24 9.54-11.26-.13.49-.39 1.48-.52 1.98-2.87 3.16-6.9 5.93-7.17 10.62-.46-.33-1.39-1-1.85-1.34z"/>
    <path fill="#f3f3f3" opacity=".96" d="M47.77 70.02c1.49-1.94 3.17-3.74 5.02-5.35 3.55 2.81 6.59 6.43 6.93 11.14-.87.36-1.73.71-2.59 1.06-3.7-1.44-7.57-3.01-9.36-6.85z"/>
    <path fill="#f3f3f3" opacity=".95" d="M69.92 69.91c1.38-2.1 3.45-3.59 5.26-5.28 1.65 1.73 3.4 3.45 4.42 5.66-1.22 3.42-4.85 5.07-8.04 6.17-1.13.4-2.24-.39-3.33-.58.49-2 .79-4.09 1.69-5.97z"/>
    <path fill="#535353" opacity=".33" d="M52.41 93.51l.03-.01-.02.02-.01-.01z"/>
</svg>
