<svg width="128pt" height="128pt" viewBox="0 0 128 128" xmlns="http://www.w3.org/2000/svg">
    <g fill="#fff">
        <path d="M54.03 15.03c.76.64 1.51 1.29 2.26 1.94-.3 4.44 2.03 8.28 3.59 12.25 1.81 4.97 5.17 9.18 6.81 14.23 1.38 3.16-.28 6.48-.63 9.66-1.47-.58-2.92-1.19-4.35-1.88.19-1.04.57-3.12.77-4.15L60.77 47c-.08 1.49-.4 2.98-1.09 4.31-.51-3.32-3.18-7.25.17-9.89l.61 2.89-.92.85c.95.1 1.88.23 2.82.38-1.64-6.97-5.5-13.16-7.15-20.13-.53 4.39-1.78 8.81-1.31 13.25 1.82 4.73 4 9.39 5.04 14.38.36 1.57-2.3 2.82-2.48.98-.17-2.16-1.18-4.08-3.6-4.13-2.81-6.62-3.13-14.24-1.22-21.13 2.41-4.12 3.86-9.03 2.39-13.73zM70.77 19.98c.23-2.05 1.01-4.14 3.04-4.99-2.12 5.05.07 10.4 2.37 14.97 1.02 6.59.87 13.86-2.37 19.82-2.95.02-2.76 3.02-3.22 5.15-.13.15-.38.43-.51.58-.8-.87-1.64-1.7-2.51-2.5.04-5.63 4.35-9.86 5.8-15.05.21-6.07-.89-12.17-2.6-17.98z"/>
        <path d="M50.57 18.39l.34.06c-3.61 8.32-3.03 17.96-.68 26.6.61 2.21.88 4.5 1.05 6.79-1.74.97-3.57 1.89-4.88 3.45 1.1-6.18-2.44-12.14-1.18-18.31.73-6.4.95-13.44 5.35-18.59zM76.51 18c4.37 4.05 4.51 10.47 5.22 15.98-.17 1.99 1.67 3.18 2.67 4.63l-2.27-.28c.72 5.5-2.22 10.77-1.32 16.32-1.63-1.3-3.4-2.39-5.08-3.61 1.17-6.68 3.48-13.19 3.18-20.07.61-4.51-1.63-8.63-2.4-12.97zM63.58 35.19c3.25-4.68.89-10.57 2.71-15.62 2.04 6.11 1.05 12.82-.8 18.86-.81-.98-1.45-2.06-1.91-3.24z"/>
        <path d="M87.58 28.11c3.67 3.47 4.07 9.49.96 13.45-2.78 3.64-3.93 8.77-1.79 13 1.62 3.11 3.22 6.31 3.62 9.86.85.3 1.74.27 2.62.19-.71-4.94-2.88-9.62-2.64-14.69-.48-3.68 1.12-7.43 4.18-9.54 1.43-.94 2.66.5 3.34 1.6-4.51 1.05-5.17 6.26-4.63 10.12.29 5.26 3.55 9.71 4.12 14.9.24 3.48-.67 6.93-2.04 10.1-.9-1.92-1.92-3.77-2.78-5.7-.28-1.42.14-2.97-.56-4.29-2.96-3.09-5.05-6.88-8.3-9.71C80 52 82.11 44.87 85.76 40c3.1-3.25 1.65-7.92 1.82-11.89zM36.99 38.82c-.83-3.54-.22-7.82 2.78-10.19-.13 4-1.38 9.12 2.21 12.02 2.14 4.09 4.45 8.6 3.23 13.36-.62 5-6.41 6.86-7.58 11.67-.64-.08-1.91-.25-2.54-.33.14 1.02.43 3.06.58 4.08-1.57 2.48-2.33 5.36-3.91 7.83-1.81-4.46-2.73-9.62-.81-14.2 2.03-5.38 4.65-11.42 2.48-17.16-.49-2.03-2.56-2.8-4.19-3.69.89-1.25 1.99-1.66 3.32-1.25-.21-1.69-.29-3.39-.36-5.09.24 1.86.45 3.74 1.11 5.5 4.65 2.99 3.66 9.06 3.33 13.75-.76 3.25-1.92 6.43-1.91 9.82.8-.01 1.61-.01 2.41-.02-.43-5.78 5.3-9.95 4.38-15.76.08-4-3-6.91-4.53-10.34z"/>
    </g>
    <path fill="#1c1c1c" opacity=".11" d="M95.1 35.3c1.51.36.55 3.75-.94 3.29-.84-1.01-.28-2.86.94-3.29z"/>
    <path fill="#1d1d1d" opacity=".11" d="M75.28 55.25c1.4.11 1.28 2.55-.12 2.55-1.39-.13-1.26-2.52.12-2.55z"/>
</svg>
