<svg width="128pt" height="128pt" viewBox="0 0 128 128" xmlns="http://www.w3.org/2000/svg">
    <g fill="#fff">
        <path d="M62.15 13.27c1.15-.42 2.52-.98 3.56.02.19 1.62-.8 2.99-1.19 4.49.54 3.68-.17 7.49 1.13 11.06 4.71-.51 6.49-5.93 9.98-8.55-.47 1.88-.08 4.16-1.65 5.57-2.91 3.15-5.99 6.13-9.12 9.05 0 3.15-.14 6.33.46 9.44 4.39-.96 6.87-5.12 10.02-7.94.21 3.65-.98 7.97.91 11.18 3.28.73 5.26-2.93 7.12-5.03 1.55-3.68-.22-7.77.13-11.62-.19-2.09 1.8-3.38 2.88-4.93.26 3.79-.14 7.61.35 11.39 3.92.14 5.2-5.44 9.04-4.32-1.94 2.77-4.55 5.06-6.05 8.14 3.91 2.89 9.13.78 13.6 1.34-1.39.7-2.44 2.53-4.18 2.35-5.63.29-11.97-1.24-16.98 2.07-1.57 1.11-3.75 4.53-1.13 5.6 3.7.25 7.4-.14 11.1.12-2.49 2.96-7.24 5.08-7.21 9.42 2.72 1.03 5.98 1.1 8.3-.87 3.09-2.62 5.63-5.81 8.58-8.58 1.43-.15 2.86-.31 4.29-.47-2.34 3.18-6.88 5.03-7.77 9 2.5 3.42 7.54.3 10.88 2.36 1.52-.35 3.03-.86 4.61-.81.43 1.31.19 2.45-.71 3.41-1.5-.24-2.89-.87-4.27-1.45-2.72 1.83-6.09-.16-8.82 1.28-1.82 1.12.13 2.98.82 4.13 1.6 2.04 3.78 3.52 5.72 5.22-1.92-.26-4.33.6-5.79-1.07-3.53-3.34-6.17-9.03-11.76-8.96-1.58.29-4.45.36-4.19 2.64 1.88 2.76 4.47 4.92 6.82 7.26-4.14-.29-8.35-.43-12.41.57.68 3.91 4.75 7.36 8.79 6.98 4.78.19 10.8-2.37 14 2.59-3.89.13-7.81-.28-11.67.31-.45 3.3 2.15 5.28 4.63 6.82.01.64.04 1.91.05 2.55 1.34.77 4.49.74 4.01 3 .47 1.75-1.64 2.45-2.92 1.8-.45-1.14-.7-2.35-1.01-3.54-2.37-1.96-4.46-4.27-7.03-5.98-.47.12-1.41.35-1.88.47-.83 3.65-.52 7.4-.51 11.1-1.48-1.67-3.54-3.37-3.04-5.9-.19-4.5 2.36-10.35-1.89-13.65-1.52-1.37-4.15-3.88-5.72-1.13.04 3.36.45 6.71.22 10.08-2.88-2.71-5.32-5.89-8.54-8.23-1.54 1.59-2.34 3.74-1.95 5.96.72 7.35 11.23 9.18 10.82 16.94-3.08-2.42-5.07-6.08-8.58-7.94-3.33 1.31-1.95 5.66-2.04 8.39-.46.73-.9 1.46-1.35 2.19.65 1.71 2.19 3.96.37 5.51-.85-.24-1.69-.51-2.52-.82 2.02-3.85 1.62-8.21 1.51-12.41.03-1.26-.61-2.61-1.98-2.77-3.7 1.63-5.86 5.29-8.88 7.8-.01-.94-.02-2.83-.02-3.77 3.63-3.9 8.4-7 10.76-11.93.27-1.91.69-5.03-1.83-5.57-4.08 1.72-6.52 5.75-9.52 8.83-.12-4.24.6-8.58-.62-12.73-2.72.03-5.01 1.78-5.94 4.3-.2 4.8.19 9.62-.27 14.41-.9.86-1.79 1.73-2.67 2.59 0-3.95.56-7.97-.28-11.86-2.15-1.17-3.77 1.02-5.11 2.37-1.51 1.77-3.31 3.26-5.4 4.3-.64 1.01-.25 3.83-2.21 3.25-1.65.51-1.64-1.7-2.37-2.58.85-.13 2.54-.38 3.39-.51 1.74-2.57 3.98-4.72 6.11-6.95.89-.75.92-2.34-.21-2.89-3.21-1.42-6.76-.41-10.12-.46 1.3-1.09 2.47-2.42 4-3.19 3.7-.29 7.39.84 11.08.4 3.47-.64 5.14-4.03 7.49-6.27-.47-1.01-.77-2.36-2.18-2.3-3.29-.7-6.68-.16-10-.13 2.63-2.68 6.45-4.76 7.12-8.78-2.62-1.06-5.54-1.21-8.23-.36-3.43 1.88-4.89 5.91-8.06 8.1-1.48 1.06-3.4.69-5.1.9 2.29-2.32 4.8-4.44 6.84-6.99-1.06-3.88-5.7-2.35-8.59-2.21-.44-.42-1.33-1.26-1.78-1.68-1.82 1.32-5.89 2.74-5.91-.82 1.63-1.2 3.59-.45 5.28.19 3.74-2.1 9.13 1.07 12.04-2.42-1.96-3.69-5.21-6.41-8.09-9.36 6.71.25 10.11 6.65 14.33 10.83 2.79.41 5.63.19 8.38-.43-.8-4.15-4.78-6.29-7.41-9.21 3.74 0 7.51.5 11.21-.25-.31-3.55-3.25-6.34-6.29-7.77-3.99-.26-8 .14-12-.14-.96-.69-1.81-1.51-2.72-2.27 3.31-.03 6.64.44 9.93-.07 1.43-2.07-.76-3.98-2.16-5.28-1.77-1.32-3.04-3.09-3.89-5.11-1.11-.34-2.21-.69-3.31-1.04-.32-1.69-.41-4.68 2.22-3.9.82 1.16 1.27 2.52 1.79 3.82 3.66 2.11 5.86 5.94 9.58 7.96 3.06-3.5 1.35-8.44 1.86-12.62 5.05 3.87 1.49 10.4 2.48 15.6.16 3.11 2.66 6.06 5.92 5.99 1.53-3.58.81-7.53.93-11.3 3.64 1.81 4.92 7.07 9.45 6.95.92-2.77 2-6.07.21-8.74-2.28-3.67-5.91-6.23-8.9-9.29-.05-1.3-.11-2.59-.16-3.89 2.44 1.99 4.23 4.75 6.91 6.41 1.35 1.06 2.67-.75 2.82-1.96.12-4.29.15-8.62-.74-12.8m-6.7 34.8c-1.01 4.52 1.74 9.9 6.69 10.26 1.86-4.17.84-9.74-3.36-12.07-1.4-1.15-3.45.06-3.33 1.81M65 50.82c-.13 2.43-.29 4.89.05 7.31 2.24 1.45 4.05-1.19 5.66-2.39 2.98-2.48 3.46-6.63 1.83-10.02-3.49.01-5.07 3.26-7.54 5.1m-18.24 4.94c-1.72 2.87 1.89 5.03 3.63 6.79 2.25.43 4.56.21 6.82.04.23-.55.7-1.64.93-2.19-2.36-3.79-6.89-6.53-11.38-4.64m22.95 6.41c5 2.04 13.32.21 12.94-6.47-5.03-1.55-12.7.11-12.94 6.47m-24.46 8.85c3.45 4.82 11.63 1.36 12.44-3.94-3.72-3.64-10.54-.53-12.44 3.94m25.6-5.03c-1.34 2.23.63 4.49 2.52 5.56 2.85 1.55 6.21 1.12 9.19.23.49-6-7.32-7.16-11.71-5.79m-11.52 4.25c-3.59 2.28-5.28 6.81-4.6 10.95.25 2.18 2.82 1.7 4.1.74 3.35-2.04 5.36-6.66 3.65-10.37-.23-1.41-2-2.37-3.15-1.32M65 77.88c1.66 1.24 3.24 2.59 4.94 3.78 2.31.38 2.4-2.03 2.62-3.69-.32-3.56-2.33-8.24-6.55-8.15-2.15 1.89-.8 5.48-1.01 8.06zM96.41 29.06c1.03-.36 2.07-.71 3.11-1.05.21.83.62 2.49.83 3.31-1.09.05-2.19.09-3.28.13-.23-.79-.44-1.59-.66-2.39z"/>
    </g>
</svg>
