<svg width="128pt" height="128pt" viewBox="0 0 128 128" xmlns="http://www.w3.org/2000/svg">
    <g fill="#fff">
        <path d="M60.75 13.11c.71-2.05 3.21-2.1 4.99-1.83 2.3 1.66 1.3 4.45.52 6.63.04 3.26-.02 6.52.25 9.76 3.49-3.25 6.38-7.12 10.19-10.04.06 2.46.07 4.93.07 7.4-3.24 3.55-6.62 6.98-10.16 10.26-.59 2.36-.21 4.89-.11 7.31 3.7-2.64 6.4-6.43 10.28-8.86.09 4.34-.21 8.69.19 13.02 2.11-1.54 4.21-3.31 5.44-5.65.37-4.05-1.15-8.12-.16-12.12 1.01-2.39 3.23-3.95 5.47-5.07.62 3.93.28 7.91.24 11.87 2.78-1.11 4.13-6.28 7.55-4.19-2.37-1.98-.33-3.35 1.24-3.59l.24 3.49c1.13-.11 2.26-.23 3.39-.34-.26-.87-.79-2.61-1.05-3.48l-1.58 1.28c-.42-1.06-.8-2.13-1.21-3.19.92 1.94 3.75.39 4.57 2.16.95 1.51.46 3.3-.02 4.88l-3.7.06c-1.16 3.3-4.21 5.28-6.02 8.17 4.85.48 9.71-.39 14.55.29-1.38 1.92-3.1 3.56-4.86 5.12-5.49.21-11.23-.99-16.52.94-1.83.48-2.65 2.28-3.56 3.75 4.57-.02 9.19-.29 13.7.6-2.45 3.5-6.13 5.89-8.53 9.44 6.39 1.65 9.42-5.11 13.48-8.53 2.14-2.73 5.81-1.69 8.78-1.55-2.07 4.1-6.25 6.42-9.01 9.98 3.37.47 6.86-.28 10.13.8 2.04-.85 4.24-.94 6.11.37.54 2.31-.58 5.56-3.45 5.18-3.8-1.35-7.73.07-11.69-.33 2.3 3.68 6.19 5.9 8.73 9.37-2.61.03-5.3.67-7.87.08-3.87-2.09-5.39-6.83-9.19-9.02-1.88-1.04-4.05-.52-6.06-.25 2.67 3.33 6.07 5.98 8.74 9.3-4.73.24-9.47-.17-14.19.3 1.63 1.55 3.14 3.37 5.21 4.35 4.02.32 8.01-.74 12.03-.47 3.16.38 4.91 3.36 6.15 5.97-4.18.25-8.36.07-12.54.17 1.42 2.87 4.73 4.12 5.89 7.21-.52.63-1.04 1.25-1.56 1.88.1-4.71-6.46-5.55-5.47-10.46 3.86-.38 7.73-.05 11.6-.15-4.08-6.15-11.79-.96-17.47-3.13-2.27-1.6-5.33-3.39-5.1-6.58 4.01-.81 8.12-.76 12.19-.48-2.38-2.85-6.58-4.92-6.79-8.99 2.19-.38 4.52-1.41 6.72-.5 4.83 1.52 6.49 7.04 10.6 9.55 1.02-.03 3.07-.08 4.09-.11-2.42-2.45-6.15-4.39-6.86-8.01.96-2.82 4.69-1.48 6.86-1.38.64-.28 1.93-.86 2.58-1.14 1.55.96 5.57 2.71 5.17-.61.19-2.7-3.33-.31-4.81-.6-3.34-1.15-6.93 0-10.24-1.16-.12-.58-.35-1.73-.47-2.31 2.12-2.97 5.33-4.91 7.57-7.78-6.09-.46-8.52 6.09-12.79 9.14-2.39 2.03-5.66 1.69-8.47.9.4-4.35 4.65-6.57 7.34-9.48-3.67-.27-7.36.1-11.03-.16-2.78-1.14-.35-4.75 1.42-5.82 5.33-3.13 11.78-1.41 17.62-1.87l3.17-2.29c-3.69 0-7.38.22-11.06.01-1.12.03-2.65-1.32-1.79-2.47 1.18-2.73 3.81-4.46 5.31-6.99-3.88-1.65-4.85 5.12-8.95 3.81-.67-3.56-.23-7.21-.33-10.81-4.38 2.97-2.64 8.51-2.45 12.91.58 3.28-2.27 5.59-4.3 7.69-1.19 1.2-2.9 1.11-4.29.34-.18-3.48-.21-6.98-.1-10.47-3.28 2.55-5.58 7.13-10.08 7.55-.48-3.05-.41-6.14-.38-9.22 3.55-3.49 7.48-6.71 10.38-10.78.01-.88.02-2.63.03-3.5-3.35 2.5-5.01 8.01-9.68 8.1-1.02-3.78-.72-7.75-1.02-11.6 1.69-1.44 1.48-5.92-1.58-4.1-2.32.58.56 3.33-.05 4.94-.65 3.5 1.75 8.53-2.19 10.63-2.87-1.99-5.04-4.76-7.6-7.1.08 1.35.15 2.7.22 4.05 2.99 3 6.5 5.58 8.86 9.13 1.72 2.69.75 5.93-.14 8.71-4.62.59-5.71-5.2-9.5-6.67-.16 3.69.59 7.57-.9 11.07-3.3.22-5.8-2.83-5.99-5.93-.93-5.15 2.66-11.75-2.5-15.56-.2 3.79.52 7.72-.67 11.41l-1.29.93c-3.86-1.57-5.71-5.8-9.46-7.62-.59-1.64-1.43-5.53-3.82-3.38-1.73 2.45 1.01 4.21 3.18 4.51.98 4.28 7.03 5.49 6.51 10.31-3.37.42-6.77.08-10.15.05.57.58 1.72 1.73 2.29 2.31 4.28.46 8.68-.47 12.89.37 2.37 1.67 4.94 3.75 5.52 6.76-.3.28-.9.83-1.2 1.1-3.31.22-6.62-.12-9.93.03 2.42 2.57 5.72 4.52 7.13 7.88-1.05 3.1-5.72 1.51-8.23 1.56-4.18-4.16-7.5-10.54-14.21-10.73 2.53 2.66 5.39 5.06 7.41 8.16.62.94.5 2.04-.63 2.5-3.01.74-6.16.2-9.23.29-.27.42-.81 1.27-1.08 1.7 2.76 3.32 9.08-1.5 10.51 3.6-1.88 2.59-4.52 4.5-6.68 6.84 4.96 1.32 7.67-3.39 10.29-6.59 2.37-3.37 7.18-3.15 10.71-2.04.12 4.18-4.4 6.08-6.7 8.96 3.88-.03 7.93-.76 11.66.7.68 2.79-2.26 4.41-3.77 6.31-3.72 3.32-8.91.97-13.31 1.32-2.26-.28-3.59 1.97-5.11 3.24 3.49-.08 7.47-1.28 10.61.77 1.11 2.91-2.83 4.53-4.35 6.48-.21.75-.62 2.23-.83 2.98 4.16-1.47 5.71-7.57 10.56-7.02.55 3.98.26 8 .24 12 .93-.9 1.8-1.85 2.59-2.86.66-4.7-.09-9.45.34-14.15.91-2.15 3.17-4.9 5.8-3.87 1.51 3.83.47 8.1.79 12.12 2.94-2.87 5.3-6.62 9.07-8.44 2.77-.33 2.6 3.54 2.21 5.37-2.33 4.96-7.15 8.03-10.76 11.96-.02 1.28.02 2.56.12 3.84 2.73-2.51 4.78-5.86 8.17-7.57 1.55-.77 2.71 1.13 2.59 2.51.01 3.83.58 7.85-1.12 11.43-.81 1.6 2.82 2.55 2.88.59.71-1.43-.7-2.72-1.03-4.04 1.85-2.68.77-5.93 1.33-8.9.2-1.43 1.97-2.31 3.13-1.31 2.76 2.11 4.75 5.05 7.43 7.28.45-5.48-4.95-8.02-8.09-11.49-3.18-2.79-3.77-7.99-1.13-11.34 3.63 1.87 5.76 5.55 8.91 8.03.21-3.37-.33-6.72-.24-10.08 1.56-2.63 4.17-.02 5.7 1.22 4.28 3.28 1.69 9.23 1.9 13.73-.54 2.53 1.64 4.19 3.1 5.87-.2-3.79-.25-7.59.41-11.34 3.38-.67 5.26 2.84 7.65 4.57 2.31 1.1 1.08 6.28 4.77 4.63.12-.88.38-2.62.5-3.5l-1.23.51c-.08-1.12-.15-2.24-.21-3.36 1.52 1.64 3.79 3.62 2.7 6.14-.63 2.05-2.87 2.09-4.63 1.98-1.11-1.24-1.87-2.71-2.03-4.38-2.02-1.86-4.04-3.72-6.2-5.42-.6 4.39-.12 8.81-.25 13.22-1.97-1.74-4.15-3.36-5.61-5.57-1.58-4.99 1.39-10.37-.78-15.28-1.48-.96-2.92-2-4.38-2.98.39 4.12.78 8.37-.31 12.42-3.73-2.19-6.07-6.04-9.45-8.68-.23 2.25-1.07 4.88.53 6.85 2.49 3.52 6.53 5.64 8.87 9.3 1.33 2.11.63 4.73.53 7.05-4.2-1.87-6.5-6.03-10.02-8.78-.71 3.12.56 6.51-1.07 9.42.81 2.18 1.54 5.38-.98 6.75-1.81 1.09-3.24-.6-4.49-1.67 1.54-4.66 1.62-9.52 1.18-14.38-3.79 2.63-6.4 6.55-10.03 9.37-.17-2.35-1.23-4.88-.53-7.19 3.31-4.08 8.07-6.92 10.7-11.6-.02-1.05-.05-3.15-.07-4.2-4.39 2.65-6.51 8.04-11.41 9.87-.23-4.62.62-9.27-.29-13.86-1.05 1.38-3.22 2.34-3.26 4.29-.14 4.62.49 9.3-.32 13.89-1.45 1.83-3.23 3.36-4.9 4.98-1.4-4.51.03-9.27-.7-13.88-2.68 2.19-4.64 5.24-7.84 6.78.14 3.95-5.8 5.28-6.88 1.32-.89-2.52 1.63-3.85 3.82-3.75 1.56-2.77 4.05-4.79 6.07-7.18-3.95-.68-7.93.19-11.9-.21 1.33-3.21 4.36-6.7 8.18-6.16 3.32.21 6.73 1.07 10.03.15 2.19-1.05 3.29-3.43 4.94-5.12-4.31-.65-8.66.05-12.98-.38 1.96-3.66 5.53-5.98 8.16-9.11-2.22-.31-4.47-.21-6.7-.07-2.54 2.48-4.45 5.54-7.14 7.88-2.43 2.17-5.89.87-8.78.91 1.95-3.47 5.43-5.6 7.93-8.6-3.09-1-6.55.54-9.43-1.25-1.88.75-4.5 1.82-6.07-.14-1.53-1.61-.46-3.89 1.04-5.08 5.05 1.04 10.13-.04 15.23.13-2.36-3.79-5.85-6.59-8.96-9.71 3.18-1.59 7.23-.76 9.86 1.53 2.91 2.42 5.26 5.39 7.71 8.26 2.06 0 4.12.01 6.19-.04-2.54-3.56-6.38-5.92-8.74-9.63 4.21-.22 8.43-.02 12.64.06-1.35-1.99-3.02-3.72-4.85-5.25-4.31.01-8.61.04-12.91-.1-1.63-1.63-3.46-3.05-4.96-4.8 4.1-.72 8.26-.36 12.4-.3-1.83-2.85-5.16-4.46-6.41-7.71-2.11-.57-4.36-1.95-3.97-4.5-.46-2.71 2.48-3.42 4.52-3.54 1.08 1.31 2.02 2.75 2.51 4.4 3.03 2.09 5.23 5.09 8.11 7.35.83-4.42.28-8.9.28-13.36 2.73 1.53 5.92 3.59 5.99 7.1.55 5.31-2.77 12.51 3.13 15.87 1-4.7-.34-9.51.72-14.21 3.1 3.38 6.33 6.63 9.64 9.78.5-2.56 1.2-5.53-.65-7.76-2.57-3.13-5.7-5.74-8.59-8.56-.08-2.66-.17-5.33.13-7.98 3.05 3.06 6.06 6.16 9.25 9.07.57-3.04-.09-6.13.34-9.18.32-1.68-1.89-3.3-.74-4.87M13.04 62.99c-2 2.76 2.72 3.19 4.23 2.31-.03-.84-.05-1.68-.08-2.53-1.04.06-3.11.17-4.15.22m14.45 36.4c1.95 2.31 4.63-.97 2.95-3.06-1.05.92-4.92.86-2.95 3.06z"/>
        <path d="M55.36 48.95c-.12-1.48.72-3.62 2.6-3.07 3.03.99 4.15 4.14 5.29 6.78.36.04 1.08.13 1.44.18.13-2.49 2.42-3.69 3.8-5.43.99-1.06 2.94-2.13 4.22-1 1.56 2.87.81 6.5-1.46 8.79.54.52 1.07 1.05 1.61 1.58 2.82-2.15 6.44-1.72 9.69-1.12.74 5.98-6.84 8.54-11.51 6.79-2.45-.52-.66-3.62.53-4.62-.45-.54-.9-1.08-1.34-1.63-.78.58-2.34 1.73-3.12 2.31-3.33.87-1.87-3.78-2.32-5.42-.52.2-1.58.58-2.1.78.28 1.47.1 2.94-.53 4.4-4.6-.2-7.44-5.05-6.8-9.32m1.82-2c-1.07 3.76-.02 8.6 4.17 9.86 1.03-3.91-.7-7.88-4.17-9.86m9.17 10.29c3.59-1.98 6.62-5.62 5.46-9.99-3.99 1.57-6.56 5.68-5.46 9.99m4.62 3.94c4.06.86 8.82-.13 10.64-4.25-4-.85-8.86.13-10.64 4.25zM46.37 56.32c4.07-2.96 10.07.18 11.65 4.51-1.09 3.27-5.43 1.67-8.02 1.69-1.31-1.96-4.29-3.48-3.63-6.2m.84.62c1.22 1.52 2.55 2.94 3.88 4.37 1.88 0 3.76-.02 5.63-.11-1.83-3.42-5.67-5.38-9.51-4.26zM71.25 69.69c-1.23-1.16-1.22-3.81.83-3.98 4.09-1.05 11.26.7 10.38 6.16-3.74 1.13-8.59 1.22-11.21-2.18m.17-2.47c1.66 4 6.57 4.55 10.19 3.26-2.1-3.61-6.55-3.73-10.19-3.26zM49.48 66.57c2.41-1.07 6.33-1.98 8.09.43-.46 4.9-6.97 7.92-11.14 5.42-2.16-2.25 1.14-4.85 3.05-5.85m-2.33 4.98c3.81 1.07 7.61-.76 9.17-4.35-3.43-.43-8.47.19-9.17 4.35zM56.54 83.34c-4.19-3.73-1.1-11.31 3.55-13.53 2.79-.27 2.75 3.52 3.04 5.31 1.17-1.67 1.6-3.75 2.83-5.37 5.26.25 8.21 7.55 5.48 11.74-2.24.62-3.69-1.69-5.32-2.78-1.34-.81-1.31-3.17-2.81-3.53-.8 3.3-2.8 6.09-5.82 7.77-1.04-1.98 1.33-2.82 2.41-3.98 2.07-2.16 2.02-5.55.64-8.06-3.99 2.82-5.22 7.84-4 12.43m9.95-12.49c-.11 1.99-.4 4.03.03 6.01 1.14 1.47 2.82 2.39 4.31 3.47.7-3.75-.77-7.79-4.34-9.48z"/>
    </g>
</svg>
