<svg width="128pt" height="128pt" viewBox="0 0 128 128" xmlns="http://www.w3.org/2000/svg">
    <path fill="#f3f3f3" opacity=".95" d="M52.74 20.77c3.96-2.22 8.65-2.18 13.06-2.26 11.2-.34 22.14 4.02 31.1 10.55 5.94 5.19 10.32 11.92 13.28 19.2-1.51-.71-2.01-2.39-2.86-3.68-3.28-5.21-7.28-9.95-11.9-14.03-4.44-1.67-7.99-5.06-12.55-6.49-8.28-2.76-17.69-4.23-25.97-.71-5.73 1.35-10.79 4.59-15.29 8.27-1.99 1.64-3.07 4.29-5.19 5.69-3 .59-4 3.69-5.31 6.05-.65.16-1.95.47-2.6.62 1.86-3.54 3.49-7.29 6.26-10.25 4.92-5.63 11.45-9.47 17.97-12.96z"/>
    <g fill="#ddd">
        <path opacity=".87" d="M61.33 28.17c3.72-1.42 7.71-2 11.69-1.91 5.8-.27 11.03 2.61 16.37 4.43.05.1.14.31.19.41 1.04 2.18 1.95 4.41 2.94 6.61-4.56-2.4-8.88-5.24-14.09-6.05-5.1-3.34-11.21-3.41-17.1-3.49zM31.11 43.36c1.31-2.36 2.31-5.46 5.31-6.05-2.76 5.59-5.9 11.02-6.94 17.28-.68 6.59-.98 13.56 1.91 19.72l.01.46c-.09 3.38 1.14 6.59 2.04 9.8-2.8-3.29-5.24-6.97-6.82-10.99-2.53-9.68-2.9-20.57 1.89-29.6.65-.15 1.95-.46 2.6-.62z"/>
    </g>
    <path fill="#b9b9b9" opacity=".73" d="M53.31 31.42c2.49-1.45 5.17-2.7 8.02-3.25 5.89.08 12 .15 17.1 3.49-4.27-.59-8.51.44-12.7.69-4.04-1.68-8.31.04-12.42-.93z"/>
    <path fill="#f7f7f7" opacity=".97" d="M21.79 40.76c3.36-4.18 6.01-9.02 10.28-12.38-1.13 2.89-3.18 5.24-4.91 7.76-2.7 6.16-6.27 12.03-7.49 18.72-1.18 7.4.4 14.9 2.57 21.97 2.19 6.64 5.82 13.28 12.02 16.93 7.68 7.48 18.74 10.67 29.3 9.62 2.59.59 5.16 1.29 7.82 1.53-4.1.65-8.15 2.02-12.34 1.69-8.28-.31-16.16-3.35-23.43-7.13-8.31-5.57-14.09-14.28-17.39-23.61-2.96-11.63-2.04-24.41 3.57-35.1z"/>
    <path fill="#a9a9a9" opacity=".66" d="M53.03 31.37l.28.05c4.11.97 8.38-.75 12.42.93l.71.17c-1.65.68-3.26 1.58-5.04 1.85-4.77-.39-8.86 2.39-13.44 3.08 1.86-1.88 3.7-3.8 5.07-6.08z"/>
    <path fill="#f8f8f8" opacity=".97" d="M92.52 37.71c-.99-2.2-1.9-4.43-2.94-6.61 3.05 1.94 6.02 4.04 8.73 6.43 4.42 5.78 9.68 11.3 11.55 18.55 2.55 6.64 1.88 13.81 1.89 20.75-1.49 3.77-2.67 7.67-4.53 11.29-2.19 4.23-5.31 7.86-8.3 11.53-3.19 2.95-7.26 4.77-10.27 7.93-6.23 2.89-13.05 4.19-19.7 5.72-7.11-.6-14.34-1.09-20.99-4 4.57-.76 8.55 2.36 13.06 1.96 4.27-.32 8.62.42 12.8-.82 12.97-1.89 24.29-10.68 30.66-21.97 2.52-4.14 2.75-9.08 4.13-13.61.6-2.26-.39-4.54-.29-6.82.76-8.24-3.18-16.07-7.98-22.5-2.52-2.69-5.29-5.15-7.82-7.83z"/>
    <path fill="#898989" opacity=".54" d="M47.96 37.45c4.58-.69 8.67-3.47 13.44-3.08-1.32.96-2.57 2.16-4.18 2.58-3.88.36-7 2.94-10.76 3.64.51-1.05 1-2.1 1.5-3.14z"/>
    <g fill="#757575">
        <path opacity=".46" d="M46.46 40.59c3.76-.7 6.88-3.28 10.76-3.64-1.89 1.85-3.59 3.87-5.28 5.9-3 1.78-5.56 4.11-7.97 6.6-.37-3.1-.07-6.72 2.49-8.86zM110.15 49.3c3.24.33-1.6 3.01 0 0z"/>
    </g>
    <path fill="#434343" opacity=".26" d="M43.97 49.45c2.41-2.49 4.97-4.82 7.97-6.6-.32 1.36-.67 2.72-1.15 4.04-1.46 4.21-4.1 7.82-6.45 11.56-.72-2.88-1.14-5.83-1.41-8.79l1.04-.21z"/>
    <path fill="#494949" opacity=".29" d="M76.24 46.81c3.29-.97 6.63.11 9.85.81l-1.72.76c2.75 3.42 4.42 7.48 6.05 11.51-2.04-1.29-4.06-2.63-6.27-3.63-2.56-3.21-5.18-6.38-7.91-9.45z"/>
    <path fill="#242424" opacity=".15" d="M44.34 58.45c2.35-3.74 4.99-7.35 6.45-11.56.07 1.97.22 3.93.17 5.9-.95 3.3-2.32 6.46-3.63 9.63-.94-1.3-2.67-2.37-2.99-3.97z"/>
    <path fill="#1a1a1a" opacity=".1" d="M69.54 50.25c1.85-1.69 3.8-3.39 6.37-3.81l.33.37c2.73 3.07 5.35 6.24 7.91 9.45-3.57-.61-7.15-.34-10.71.05-1.45-.75-2.68-1.83-3.97-2.81.03-1.08.05-2.17.07-3.25z"/>
    <path fill="#838383" opacity=".52" d="M84.37 48.38l1.72-.76c3.54 2.39 7.56 4.64 9.19 8.83.45 3.99.12 8.02-.65 11.95-1.36-2.87-2.38-5.89-4.21-8.51-1.63-4.03-3.3-8.09-6.05-11.51z"/>
    <g fill="#fff">
        <path d="M56.2 51.27c2.33-1.44 4.79.42 5.45 2.72-.7 1.93-2.39 3.97-4.7 3.26-3.04-.13-3.63-5.12-.75-5.98zM74.77 66.82c-3.7.86-5.25-5.29-1.66-6.28 1.69-.98 3.23.24 4.49 1.27-.15 1.9-.37 4.8-2.83 5.01zM56.33 69.46c1.91-.81 4.4.26 4.49 2.49.56 3.2-4.34 5.04-6.06 2.34-1.39-1.5-.51-4.45 1.57-4.83z"/>
    </g>
    <path fill="#121212" opacity=".07" d="M50.96 52.79c3.1 3.52 2.21 8.22.87 12.27-1.68-.46-3.25-1.2-4.73-2.1l.23-.54c1.31-3.17 2.68-6.33 3.63-9.63z"/>
    <path fill="#b2b2b2" opacity=".7" d="M94.63 68.4c.77-3.93 1.1-7.96.65-11.95 3.52 4.42 4.75 10.54 4.17 16.1-1.78 3.42-3.39 6.98-5.81 10.01.91-4.67 1.26-9.4.99-14.16z"/>
    <path fill="#dfdfdf" opacity=".87" d="M93.64 82.56c2.42-3.03 4.03-6.59 5.81-10.01-.54 13.07-9.55 25.73-22.03 30.08-1.8 1.28-3.71 2.5-6.04 2.28-2.66-.24-5.23-.94-7.82-1.53 6.37-1.77 13.3-2.86 18.62-7.11 2.25-1.73 4.47-3.53 6.56-5.47 2.48-2.18 2.84-5.73 4.9-8.24z"/>
    <path fill="#c5c5c5" opacity=".77" d="M33.44 84.57c-.9-3.21-2.13-6.42-2.04-9.8 2.02 3.1 4.5 5.87 6.75 8.78.89 4.4 4.98 6.76 8.55 8.83l-.76 1.04c-1.48.38-2.69-.72-3.91-1.32-3.2-2.05-6.49-4.33-8.59-7.53z"/>
    <path fill="#141414" opacity=".08" d="M67.84 76.72c1.52-.47 3.55-2.12 4.94-.57 2.51 2.26 1.44 6.1.48 8.87-.09-1.27-.2-2.53-.33-3.8-3.27.82-6.58 1.47-9.84 2.31.89-2.62 1.8-5.84 4.75-6.81z"/>
    <path fill="#2e2e2e" opacity=".18" d="M63.09 83.53c3.26-.84 6.57-1.49 9.84-2.31.13 1.27.24 2.53.33 3.8v1.27l-.93.05c-4.46.27-8.93.2-13.4.38 1.35-1.11 2.65-2.29 4.16-3.19z"/>
    <path fill="#9d9d9d" opacity=".62" d="M38.15 83.55c3.08 1.72 6.25 3.27 9.36 4.93 4.12 2.77 9.01 3.95 13.33 6.34-4.95.04-10.5 1.68-14.9-1.4l.76-1.04c-3.57-2.07-7.66-4.43-8.55-8.83z"/>
    <path fill="#4f4f4f" opacity=".31" d="M58.93 86.72c4.47-.18 8.94-.11 13.4-.38-.97 2.11-2.56 3.79-4.37 5.21l-.24-.07c-4.14-1.3-8.51-1.37-12.74-2.22.29-.23.88-.69 1.17-.92.83-.72 1.76-1.26 2.78-1.62z"/>
    <path fill="#747474" opacity=".45" d="M47.51 88.48c2.88.04 5.77.09 8.64-.14-.29.23-.88.69-1.17.92 4.23.85 8.6.92 12.74 2.22-1.95 1.76-4.52 2.38-6.88 3.34-4.32-2.39-9.21-3.57-13.33-6.34z"/>
</svg>
