<svg width="128pt" height="128pt" viewBox="0 0 128 128" xmlns="http://www.w3.org/2000/svg">
    <path fill="#300b0c" opacity=".53" d="M47.08 12.83c0-2.06 3.34-.35 2.02 1.05-.51-.26-1.52-.79-2.02-1.05z"/>
    <path fill="#b22c2e" d="M77.6 12.45c1.01-.45 1.65.71 2.32 1.24 1.72 2.49 3.59 5.22 3.47 8.39.22 2.3-2.13 3.43-3.47 4.87-.35 2.06-.75 4.11-1.21 6.15 1.3-1.46 2.66-2.87 4-4.29.23-1.66-.31-3.74 1.2-4.92 2.11-1.75 4.98-1.97 7.53-2.62-.32 2.96-.05 6.65-2.63 8.72-2.28.62-4.88.63-6.53 2.6-.64.73-1.25 1.49-1.87 2.23 2.25-.39 4.48-.83 6.74-1.15.17-.72.51-2.14.68-2.86 2.06-.66 4.2-1.07 6.37-.71 2.53 1.03 4.79 2.59 7.08 4.07-2 2.54-4.54 4.74-7.57 5.95-3.08.91-5.58-1.09-6.71-3.81-2.3.15-4.58.63-6.65 1.67 2.29.7 4.68 1.01 6.96 1.71 1.69 1.42 1.89 3.8 2.57 5.76 3.31-2.57 7.5-3.24 11.54-3.78-.73 4.02-.94 8.81-4.35 11.58-2.53.3-5.23-.21-7.52 1.15 2.58.29 5.18.29 7.77.17 2.12-3.23 6.11-2.4 8.86-.51.36.23 1.08.71 1.44.94-.16.39-.47 1.15-.62 1.54-.19.39-.55 1.17-.73 1.56-1.74.63-3.49 1.37-5.35 1.54-1.39-.4-2.39-1.54-3.54-2.37-2.67-.14-5.35-.15-8.02.01 2.47 3.52 8.11-.02 10.04 4.47 1.69 2.52 1.85 5.62 2.05 8.55-3.82-.35-8.28-.57-11.03-3.64-1.51-1.61-.55-3.98-.89-5.94-2.25-1.8-5.11-2.54-7.95-2.59 2.56 1.48 5.23 2.81 7.4 4.86-3.5 2.64-7.38 5.26-11.99 4.96-1.11-1.26-2.2-2.54-3.29-3.81-1.65.96-3.3 1.95-4.91 2.98 2.71.46 5.45.71 8.2.83 1.58 2.68 2.56 5.66 2.64 8.8-1.79-.25-3.66-.24-5.38-.84-1.1-.66-2.18-1.36-3.25-2.06-.04-1.43-.08-2.86-.11-4.29-.59.32-1.75.94-2.33 1.25.31 9.38.07 18.77.53 28.15.32 4.45-.74 9.1.94 13.38 1.73.46 3.38 1.14 3.31 3.28-1.64-.42-3.29-.83-4.91-1.3.4.88.8 1.76 1.2 2.65-2.1 1.38-3.09-1.19-4.17-2.38.2 1.76-.33 3.22-1.59 4.38-.24-.49-.71-1.47-.94-1.96-.14-.62-.43-1.85-.57-2.47-.34.54-1.03 1.61-1.37 2.15l-.86.86-1.39-.27c-.06-.49-.17-1.48-.22-1.97-1.32.41-4.39 1.11-3.97-1.41.96-.69 2-1.27 3.1-1.72 1.53-.71.85-2.82 1.06-4.15-.18-11.7.03-23.42-.57-35.11.01-1.22-.83-2.16-1.34-3.2-.38 1.81-.12 4.08-1.79 5.32-2.2 1.64-5.02 1.87-7.62 2.39.64-3.36.62-7.35 3.65-9.59l.89.17c2.17.73 4.3-.19 6.32-.91-1.6-.92-3.26-1.76-5.04-2.27-1.39 1.21-2.48 2.78-4.09 3.72-4.43.69-7.78-2.86-10.82-5.49 2.28-1.67 4.78-3.06 6.93-4.92-2.84.44-5.45 1.65-7.89 3.1.92 3.53-.38 7.58-4.22 8.56-2.45.36-4.9.62-7.36.89.57-3.52.62-7.82 3.65-10.27 1.64-1.36 3.82-.42 5.7-.37.7-.68 1.41-1.35 2.13-2.01-2.4-.05-4.8-.06-7.2-.02-1.27.91-2.41 2.14-3.97 2.54-3.01.19-5.33-2.01-7.63-3.58 1.1-1.07 2.19-2.19 3.48-3.05 1.42-.51 2.86-.97 4.29-1.44 1.13 1.01 2.24 2.03 3.35 3.06 2.18-.11 4.35-.23 6.53-.32-.32-.54-.64-1.09-.96-1.63-2.03.85-4.6 1.5-6.34-.31-2.55-2.95-2.81-7.06-3.57-10.72 4.03.32 8.08 1.09 11.58 3.22.6-2 1.28-3.98 1.99-5.95 2.51-.14 5.06-.4 7.24-1.76-1.96-.49-3.97-1.13-6.01-.88-1.04.93-1.93 2.01-2.96 2.95-4.49 2.08-8.54-1.96-11.99-4.31 1.9-2.06 4.23-3.63 6.6-5.08 3.5-1.68 6.38.6 8.32 3.35 1.93.26 3.85.51 5.78.76-1.35-1.25-2.7-2.49-4.05-3.75l-3.72.15c-2.21-2.49-3.19-5.68-3.72-8.9 1.97.07 3.93.15 5.89.31.94.68 1.83 1.4 2.69 2.18-.98-4.52 1.42-8.7 4.22-12.03.5.26 1.51.79 2.02 1.05.81.76 1.5 1.64 2.11 2.56.85 2.37 2.07 4.93 1.3 7.49-.73 1.49-2.19 2.42-3.36 3.54.43 1.94.91 3.87 1.44 5.79l1.52-2.32c0-1.67-.82-3.8.73-5.05 2.28-1.69 5.3-1.52 7.98-1.9-.47 2.9-.94 5.91-2.64 8.38-1.44-.14-2.88-.28-4.32-.43-.61 1.99-1.18 4.16-.14 6.12 2.79 3.63 6.6 6.53 8.11 11.02l-.12-3.4c-1.26-1.41-3.46-2.5-3.39-4.66-.34-4.1 2.41-7.41 4.89-10.34.24.43.74 1.31.99 1.74.37.78.92 1.39 1.66 1.85.74 2.47 2.72 4.81 2.03 7.52-.74 1.55-2.29 2.49-3.52 3.63.01 1.25.03 2.5.05 3.76 2.08-2.95 4.2-5.88 6.54-8.63.24-.31.72-.94.96-1.25 1.33-2.17 1.05-4.78 1.13-7.21-1.4.09-2.81.2-4.21.33l-.8.08c-1.26-2.83-2.13-5.8-2.72-8.84 3.04.4 7.06.32 8.76 3.43.18 1.28.31 2.57.37 3.86.49.71.98 1.42 1.48 2.12.41-1.96.76-3.93 1.09-5.91-1.26-1.28-2.96-2.35-3.46-4.18-.36-2.23.57-4.4 1.22-6.49.81-1.43 1.7-2.83 2.82-4.04M43 24.19c.06 1.54.1 3.08.12 4.62 1.42 1.44 2.88 2.83 4.39 4.18-.34-1.88-.68-3.76-1.05-5.63-1.18-1.04-2.33-2.09-3.46-3.17m2.54 17.17c.05.84.14 2.54.19 3.39-1.87 2.7-5.07 3.59-8.19 3.78-.16 1.2-.32 2.39-.5 3.58 3.45 2.44 7.68 2.94 11.79 2.79-1.64-3-2.43-6.35-2.79-9.73 2.07.07 4.15.17 6.21.36l1.61.36-.88.32c1.55 1.01 3.75 1.51 4.49 3.41.88 1.42-.08 2.96-.39 4.38 1.24 1.73 2.59 3.37 4.07 4.89-.78-5.42-2.71-10.91-6.55-14.94v.42c-1.95-3.2-5.69-3.59-9.06-3.01m27.5 1.63c-4.52 3.77-6.53 9.75-7.25 15.42 1.6-1.17 2.81-2.74 3.71-4.5-.23-1.56-.4-3.14-.56-4.71 1.22-.89 2.44-1.77 3.66-2.66l-.16-.48c2.66-.75 5.37-1.33 8.11-1.72-.24 3.65-.92 7.31-2.85 10.48 4.26-.13 8.47-1.05 12.27-3.01-.44-1.38-.92-2.75-1.44-4.11-2.19-.28-4.64-.29-6.39-1.86-1.62-1.25-1.24-3.54-1.56-5.31-2.81-.45-5.53.46-7.54 2.46M54.53 56.11c-.59 1.5 1.75 3.3 3.14 2.78.62-1.57-1.62-3.71-3.14-2.78m14.57 2.7c1.27.14 3.23-1.38 2.85-2.74-1.43-.48-3.19 1.34-2.85 2.74m-18.42.11c.51 2.69 3.15 3.43 5.4 4.15-.96-2.31-3.09-3.51-5.4-4.15m20.18 3.72c1.24-.34 2.49-.68 3.73-1.03.62-1.09 1.23-2.19 1.84-3.29-2.2.95-4.44 2.09-5.57 4.32z"/>
    <path opacity=".14" d="M79.92 13.69c3.46 1.21 3.48 5.42 5.09 8.18 2.31-.63 4.7-.92 7.1-1.01.09 2.53-.11 5.06-.63 7.54.9.56 1.81 1.13 2.72 1.7-2.17-.36-4.31.05-6.37.71-.17.72-.51 2.14-.68 2.86-1.65-.19-3.34-.37-4.87-1.08 1.65-1.97 4.25-1.98 6.53-2.6 2.58-2.07 2.31-5.76 2.63-8.72-2.55.65-5.42.87-7.53 2.62-1.51 1.18-.97 3.26-1.2 4.92-1.34 1.42-2.7 2.83-4 4.29.46-2.04.86-4.09 1.21-6.15 1.34-1.44 3.69-2.57 3.47-4.87.12-3.17-1.75-5.9-3.47-8.39z"/>
    <g fill="#010000">
        <path opacity=".15" d="M51.21 16.44c2.66 1.49 2.38 4.79 2.86 7.38 2.33-.74 4.74-1.13 7.18-1.03.02 2.47-.08 4.93-.3 7.39 1.36-.02 2.72-.03 4.08-.04.02-2.35.05-4.71.1-7.06 2.27-.02 4.54-.03 6.8-.05.67-2.27.7-5.07 2.85-6.54-.65 2.09-1.58 4.26-1.22 6.49.5 1.83 2.2 2.9 3.46 4.18-.33 1.98-.68 3.95-1.09 5.91-.5-.7-.99-1.41-1.48-2.12-.06-1.29-.19-2.58-.37-3.86-1.7-3.11-5.72-3.03-8.76-3.43.59 3.04 1.46 6.01 2.72 8.84-.43.1-1.29.3-1.72.41-.71-.14-1.42-.3-2.12-.49-.25-.43-.75-1.31-.99-1.74-2.48 2.93-5.23 6.24-4.89 10.34-.07 2.16 2.13 3.25 3.39 4.66l.12 3.4c-1.51-4.49-5.32-7.39-8.11-11.02-.01-1.55.03-3.11.08-4.67 1.46-.33 2.93-.64 4.38-1.02 1.7-2.47 2.17-5.48 2.64-8.38-2.68.38-5.7.21-7.98 1.9-1.55 1.25-.73 3.38-.73 5.05l-1.52 2.32c-.53-1.92-1.01-3.85-1.44-5.79 1.17-1.12 2.63-2.05 3.36-3.54.77-2.56-.45-5.12-1.3-7.49m3.54 17.41c-.14 2.3.42 4.53 1.86 6.35.98-2.11 1.83-4.28 2.58-6.48-1.48.04-2.96.08-4.44.13zM33.81 21.86c2.19-.39 4.52-.72 6.36.82-1.96-.16-3.92-.24-5.89-.31.53 3.22 1.51 6.41 3.72 8.9l3.72-.15c1.35 1.26 2.7 2.5 4.05 3.75-1.93-.25-3.85-.5-5.78-.76-1.94-2.75-4.82-5.03-8.32-3.35.27-1.55 1.8-1.72 3.04-2.13-.5-2.22-.8-4.49-.9-6.77zM53.21 64.83c1.78.51 3.44 1.35 5.04 2.27-2.02.72-4.15 1.64-6.32.91.42-1.07.85-2.13 1.28-3.18z"/>
    </g>
    <path fill="#140504" opacity=".41" d="M43 24.19c1.13 1.08 2.28 2.13 3.46 3.17.37 1.87.71 3.75 1.05 5.63-1.51-1.35-2.97-2.74-4.39-4.18-.02-1.54-.06-3.08-.12-4.62z"/>
    <path fill="#511315" opacity=".74" d="M53.72 38.06c-1.04-1.96-.47-4.13.14-6.12 1.44.15 2.88.29 4.32.43-1.45.38-2.92.69-4.38 1.02-.05 1.56-.09 3.12-.08 4.67z"/>
    <path fill="#2a0a0a" opacity=".53" d="M68.84 32.42c1.4-.13 2.81-.24 4.21-.33-.08 2.43.2 5.04-1.13 7.21.29-1.81.5-3.63.72-5.45-1.26-.49-2.51-1.01-3.8-1.43z"/>
    <path fill="#330c0b" opacity=".61" d="M80.41 34.82c.62-.74 1.23-1.5 1.87-2.23 1.53.71 3.22.89 4.87 1.08-2.26.32-4.49.76-6.74 1.15z"/>
    <path fill="#360d0d" opacity=".6" d="M65.86 34.27c.28-.02.83-.05 1.11-.06.72 2.14 1.41 4.29 2.16 6.42l1.83-.08c-2.34 2.75-4.46 5.68-6.54 8.63-.02-1.26-.04-2.51-.05-3.76 1.23-1.14 2.78-2.08 3.52-3.63.69-2.71-1.29-5.05-2.03-7.52z"/>
    <path opacity=".13" d="M80.35 37.98c2.07-1.04 4.35-1.52 6.65-1.67 1.13 2.72 3.63 4.72 6.71 3.81l1.05-.08.03.77c-1.88.18-3.82.27-5.53 1.16 1.89 2.06 4.24.08 6.33-.43 1.96-.84 4.12-.45 6.18-.37.65 3.51-.07 7-1.49 10.22 2.01.68 6.21-.53 5.9 2.67-2.75-1.89-6.74-2.72-8.86.51-2.59.12-5.19.12-7.77-.17 2.29-1.36 4.99-.85 7.52-1.15 3.41-2.77 3.62-7.56 4.35-11.58-4.04.54-8.23 1.21-11.54 3.78-.68-1.96-.88-4.34-2.57-5.76-2.28-.7-4.67-1.01-6.96-1.71z"/>
    <path opacity=".07" d="M37.06 40.15c1.03-.94 1.92-2.02 2.96-2.95 2.04-.25 4.05.39 6.01.88-2.18 1.36-4.73 1.62-7.24 1.76-.71 1.97-1.39 3.95-1.99 5.95-3.5-2.13-7.55-2.9-11.58-3.22.76 3.66 1.02 7.77 3.57 10.72 1.74 1.81 4.31 1.16 6.34.31.32.54.64 1.09.96 1.63-2.18.09-4.35.21-6.53.32-1.11-1.03-2.22-2.05-3.35-3.06-1.43.47-2.87.93-4.29 1.44.96-1.28 2.43-1.89 3.86-2.48-.64-3.03-1.26-6.12-.95-9.23 4.06-.59 8.47-.38 12.23-2.07z"/>
    <path fill="#350d0c" opacity=".62" d="M65.79 58.41c.72-5.67 2.73-11.65 7.25-15.42-.23.5-.69 1.49-.92 1.99l.32 1.08.16.48c-1.22.89-2.44 1.77-3.66 2.66.16 1.57.33 3.15.56 4.71-.9 1.76-2.11 3.33-3.71 4.5z"/>
    <path fill="#320c0c" opacity=".61" d="M54.6 44.37v-.42c3.84 4.03 5.77 9.52 6.55 14.94-1.48-1.52-2.83-3.16-4.07-4.89.31-1.42 1.27-2.96.39-4.38-.74-1.9-2.94-2.4-4.49-3.41l.88-.32.73-.21c0-.33.01-.98.01-1.31z"/>
    <path fill="#5e1618" opacity=".79" d="M107.62 55c1.24 1.04 1.03 1.55-.62 1.54.15-.39.46-1.15.62-1.54z"/>
    <path fill="#461211" opacity=".73" d="M54.53 56.11c1.52-.93 3.76 1.21 3.14 2.78-1.39.52-3.73-1.28-3.14-2.78z"/>
    <path fill="#2a0a0a" opacity=".64" d="M69.1 58.81c-.34-1.4 1.42-3.22 2.85-2.74.38 1.36-1.58 2.88-2.85 2.74z"/>
    <path fill="#280a0a" opacity=".5" d="M18.44 56.98c2.3 1.57 4.62 3.77 7.63 3.58 1.56-.4 2.7-1.63 3.97-2.54 2.4-.04 4.8-.03 7.2.02-.72.66-1.43 1.33-2.13 2.01-1.88-.05-4.06-.99-5.7.37-3.03 2.45-3.08 6.75-3.65 10.27 2.46-.27 4.91-.53 7.36-.89-1.95 2.06-5.02 1.36-7.55 1.57-.67-3.39.24-6.79 1.45-9.94-3.52.16-6.81-1.34-8.58-4.45z"/>
    <path fill="#2e0b0c" opacity=".58" d="M89.36 57.28c2.67-.16 5.35-.15 8.02-.01 1.15.83 2.15 1.97 3.54 2.37 1.86-.17 3.61-.91 5.35-1.54-1.51 2.62-5.67 1.03-6.87 3.65-1.93-4.49-7.57-.95-10.04-4.47z"/>
    <path fill="#3f100f" opacity=".7" d="M50.68 58.92c2.31.64 4.44 1.84 5.4 4.15-2.25-.72-4.89-1.46-5.4-4.15z"/>
    <path fill="#380d0d" opacity=".67" d="M70.86 62.64c1.13-2.23 3.37-3.37 5.57-4.32-.61 1.1-1.22 2.2-1.84 3.29-1.24.35-2.49.69-3.73 1.03z"/>
    <path opacity=".06" d="M68.79 67.12c1.61-1.03 3.26-2.02 4.91-2.98 1.09 1.27 2.18 2.55 3.29 3.81-2.75-.12-5.49-.37-8.2-.83z"/>
    <path fill="#130404" opacity=".37" d="M68.56 70.81c.58-.31 1.74-.93 2.33-1.25.03 1.43.07 2.86.11 4.29 1.07.7 2.15 1.4 3.25 2.06-1.57-.42-3.12-.87-4.67-1.36.26 12.19-.14 24.44.96 36.57l3.09 1.44.06 2.95c-1.36.47-2.71.94-4.06 1.46-.4-.89-.8-1.77-1.2-2.65 1.62.47 3.27.88 4.91 1.3.07-2.14-1.58-2.82-3.31-3.28-1.68-4.28-.62-8.93-.94-13.38-.46-9.38-.22-18.77-.53-28.15z"/>
    <path fill="#3b0f0f" opacity=".63" d="M60.99 116.69c.34-.54 1.03-1.61 1.37-2.15.14.62.43 1.85.57 2.47l-1.94-.32z"/>
</svg>
