<svg width="128pt" height="128pt" viewBox="0 0 128 128" xmlns="http://www.w3.org/2000/svg">
    <path fill="#2c0a0a" opacity=".53" d="M48.47 11.4c.85-1.27 2.55-.07 3.71.05l-2.91.72c-.69 3.16 3.35 5.16 4.17 8.15-2.17-1.9-4.34-4.53-7.6-3.47l2.7-1.59c-.2-1.29-.22-2.58-.07-3.86z"/>
    <g fill="#ad2829">
        <path d="M56.03 12.3c.8-.47 1.62-.92 2.45-1.34 0 2.12.67 4.92-1.75 6.06-.48.36-1.46 1.09-1.95 1.45.3-2.07.58-4.17 1.25-6.17z"/>
        <path d="M49.27 12.17l2.91-.72c.11.51.32 1.53.42 2.04-.43 3.97 2.66 6.28 5.27 8.63-.05 2.64-.53 5.26-.82 7.89l-.61-.4c-.99-.91-1.86-1.97-3.03-2.67.49-.98.99-1.97 1.48-2.96-1.25-.76-2.5-1.53-3.74-2.31-1.1.01-2.21.03-3.31.02-.41-.3-1.23-.89-1.64-1.18-.55-1.19-1.06-2.39-1.71-3.52l1.35-.14c3.26-1.06 5.43 1.57 7.6 3.47-.82-2.99-4.86-4.99-4.17-8.15z"/>
        <path d="M67.12 21.98l.2-.99c.35 2.39.52 4.8.66 7.21 1.23-.53 2.45-1.07 3.67-1.61.98.58 1.95 1.2 2.89 1.84l.15.16c-.53.22-1.59.67-2.11.89-.57-.74-1.15-1.48-1.73-2.21-1.33 1.38-2.67 2.75-3.99 4.14.91.12 2.74.35 3.65.46l-1.89.4c-.8.14-2.39.42-3.18.57.04.84.13 2.53.18 3.38l-.75-.27c-.71-.25-1.41-.5-2.12-.75-1.32.91-2.63 1.83-4 2.66l-.8.02c-1.63-.32-2.7 1.69-2.03 3.04l-1.23.3c1.72-3.49-4-2.06-.87.21 1.09 1.06 2.18 2.11 3.32 3.11-1.77-.17-3.54-.26-5.32-.33-.12-.46-.37-1.38-.49-1.84-.93.58-1.79 1.49-2.97 1.45-1.01-.79-1.99-1.61-2.99-2.4.39-.91 1.16-2.73 1.55-3.64l2.88 2.46c-1.1-1.57-2.19-3.15-3.17-4.8 1.96.85 3.88 1.81 5.83 2.69-.6-2.91-3.43-3.8-5.85-4.73.97-2.1 1.68-4.31 2.33-6.53.86 1.19 2.1 2.18 2.64 3.58.31 1.31.57 2.62.83 3.94.75 1.11 1.49 2.23 2.21 3.36.12-1.18.29-2.36.5-3.53 1.24-.64 2.55-1.1 3.85-1.6-.37 1.23-.76 2.45-1.14 3.68 1.34-.75 2.68-1.5 4.03-2.25.42-1.48.84-2.96 1.27-4.43-.56.49-1.69 1.47-2.25 1.96-.67-1.21-1.34-2.41-2-3.61 2.11 1.1 3.64.15 4.71-1.66.79-.35 1.57-.69 2.36-1.02.26 2.82-.8 5.4-2.13 7.82 1.28-1.28 2.54-2.58 3.8-3.88-.29-2.4-.62-4.82-.5-7.25M51.21 40.2c.52.53.52.53 0 0zM82.84 31.45c-.74-1.93-1.11-3.95.96-5.1l.87-.81c.16.71.47 2.11.63 2.81-.79 1.05-1.61 2.09-2.46 3.1zM78.38 37.05c1.12-1.03 3.54.53 3.09 1.96-1.19 1-3.66-.41-3.09-1.96zM70.29 41.25c1.45-.69 2.9-1.4 4.37-2.04-.14 1.74-.28 3.49-.44 5.23 2.95-.61 5.83-1.51 8.8-2.02l.13.65c-.12 1.62-1.93 1.66-3.07 2.29l.91.55c.33.36.99 1.07 1.33 1.42l-2.34.6c.64.12 1.92.37 2.56.49.41 1.24.92 2.45 1.3 3.71-1.19-.44-2.38-.83-3.58-1.24.42 1.46.84 2.92 1.27 4.38.46-.23 1.38-.69 1.83-.92.2-.43.59-1.3.79-1.73 1.17.19 2.29.52 3.39 1.01.15 1.41.22 2.83.31 4.24-.47.36-1.41 1.09-1.88 1.45 2.64-.36 4.66-1.97 6.06-4.17-.54-1.11-1.08-2.21-1.61-3.31.82-.71 1.65-1.42 2.48-2.13.19.6.57 1.79.77 2.39.06 1.48.16 2.95.31 4.43.1-.79.32-2.38.42-3.17 1.7 1.13 3.39 2.27 5.08 3.42-1.09.54-2.18 1.08-3.28 1.62-1.03-.42-2.07-.79-3.13-1.1-1.59.93-2.87 2.28-4.24 3.48 1.22.94 3.46 1.24 3.3 3.19l-.16.74c-.82-.49-2.45-1.49-3.27-1.99-2.26.17-4.94.43-6.24-1.85.24-.55.73-1.65.97-2.2-.43.5-.87 1-1.3 1.5.04 1.97.04 3.94-.03 5.91-.32 1.16-.69 2.31-1.1 3.44-.84-.71-1.66-1.42-2.48-2.13.28-.5.86-1.49 1.15-1.98 2.3-4.2-5.27-5.54-7.62-3.13-.57-.47-1.14-.95-1.71-1.43 2.34-.71 4.72-1.32 7.14-1.62.06-1.37.12-2.73.19-4.09-.35-1.05-.7-2.11-1.04-3.16-2.51.5-4.91 1.46-6.96 3.01-1.06-.38-2.12-.77-3.17-1.15.89-.61 1.77-1.23 2.66-1.84-1.03-.95-2.07-1.9-3.05-2.91.79.11 2.37.32 3.16.43.06.05.19.13.25.18.37.68 1.11 2.04 1.47 2.72.68-1.47 1.79-3.07 1.17-4.75-.88-1.73-2.85-2.47-4.6-2.98.35-.25 1.06-.75 1.41-1l3.13-.4c-.45-.51-1.36-1.53-1.81-2.04m6.83 8.86c.08 3.32 3.03-1.47 0 0m1.89 7.02c-.5 1.38-.02 1.81 1.44 1.26.5-1.38.03-1.8-1.44-1.26zM37.89 42.04c2.18-1 4.91-2.39 7-.35l-2.05.68c1.38.4 2.72.9 4.03 1.48.53.41 1.57 1.24 2.09 1.65l.92.77c-2.19.37-4.41.16-6.6-.08l-.32 2.73c-.55-.68-1.08-1.38-1.58-2.1-.86.94-1.7 1.91-2.75 2.64-.99-2.15-1.47-4.52-1.51-6.89 1.71.44 2.99 1.71 4.51 2.52.12-.4.35-1.21.46-1.61l-4.2-1.44z"/>
        <path d="M91.9 41.25l-.41 1.42c1.13-.61 3.41-1.83 4.55-2.44 1.6.37 3.03 1.23 4.5 1.92l-.78.66c-.93.76-1.84 1.53-2.87 2.13-1.9.28-3.59-.96-5.32-1.53-1.01.99-1.99 1.99-2.97 3-.52.4-1.55 1.2-2.07 1.6-.02 1.33 1.72 1.85 2.2 2.92-1.25 1.82-4.3 2.74-4.86-.16-1.5-1.44.79-2.61 1.42-3.76.37-.43 1.1-1.29 1.47-1.73-.38-.49-1.14-1.49-1.52-1.98.84-.07 1.69-.13 2.53-.18.53-.36 1.57-1.09 2.09-1.45.68-.15 1.36-.29 2.04-.42zM33.5 47.85c1.34 0 4.86-.18 4.36 1.99-1.47 2.63-5.38.66-4.36-1.99z"/>
        <path d="M29.19 50.26c3.19-1.38 3.15 2.89 3.02 4.91 2.56-1.26 4.04-4.27 7.29-4.05 1.18-.89 2.66-1.12 4.07-1.36 1.14 1.25 2.6 2.07 4.13 2.72l.95.44c-3.05 1.2-6.32.94-9.43.16.08.36.23 1.08.31 1.45-.91 1.82-1.87 3.62-2.85 5.41-.09-.99-.26-2.95-.35-3.94-1.8-.08-3.98-.78-5.32.85-1.4.9-2.94 3.25-4.75 1.92-1.1-2.51 3.28-2.9 4.74-4.05-2.48.55-5.46 1.23-6.61-1.73 1.38.14 2.76.29 4.14.47.06-1.11.28-2.18.66-3.2zM95.2 52.04c1.72-.55 2.25-.03 1.62 1.58-1.71.52-2.25-.01-1.62-1.58z"/>
        <path d="M41.25 57.09c.32-1.58 1.29-2.62 2.9-3.11-.36 1.83-.8 3.65-1.29 5.45 1.57-1.82 3.66-2.79 6.08-2.83-1.03 1.61-2.08 3.21-3.09 4.84 1.26-1.25 2.47-2.54 3.68-3.83.71.12 2.13.36 2.83.47-1.03 1.9-2.73 3.22-4.51 4.37 1.46-.33 2.93-.63 4.4-.94-.24.98-.48 1.95-.73 2.92.69.88 1.36 1.76 2.02 2.66-1.16.69-2.34 1.35-3.52 2.01l.52-3.97c-.64.23-1.93.67-2.58.9-.08-.58-.26-1.73-.35-2.31-.99 1.17-1.97 2.33-2.96 3.49-.76-1.26-1.52-2.52-2.26-3.78-1.16.82-2.27 1.72-3.54 2.39l.04-2.3c-1.08 1.32-2.51 1.26-3.9.69-1.6-.23-1.86.23-.78 1.37-.43.13-1.31.38-1.75.51-.49-1.4-.99-2.79-1.5-4.18.64-.08 1.9-.25 2.53-.34l-.55-2.15c1.61.87 3.16 1.84 4.87 2.51 2.28 1.22 4.53-.97 6.69-1.53-2.4-.02-5.28 1.11-7.07-1.11 1.44-.5 2.88-.97 4.32-1.42l-.5-.78zM73.97 92.56c1.26-.72 2.53-1.43 3.8-2.13l.32.04c.52.12 1.55.36 2.06.48.14 1.53.27 3.05.37 4.58-1.87-.08-3.74-.16-5.61-.26-.33-.9-.64-1.8-.94-2.71zM69.04 95.9c1.12 1.22 2.24 2.45 3.37 3.67-1.8 3.05-4.82 5.23-8.35 5.79-.09-.66-.28-1.97-.38-2.63l.02-.31 1.64-2.12c.83.11 1.66.23 2.5.34l1.2-4.74zM53.29 98.71c1.46-.83 2.94-1.65 4.41-2.47.17 1.54.33 3.08.5 4.62.95-.22 1.9-.45 2.85-.68-.05 1.67-.09 3.34-.15 5.01-3.48-.76-5.93-3.51-7.61-6.48zM73.29 101.31c2.56 1.04 5.56 1.77 6.92 4.48-.97.56-1.95 1.1-2.95 1.62-.55-.01-1.64-.02-2.18-.02-1.15-1.42-2.33-2.82-3.51-4.21.43-.47 1.29-1.41 1.72-1.87zM50.74 109.07c2.27-1.17 4.4-5.71 7.13-2.89-.54 1.3-1.03 2.62-1.63 3.9-1.06.75-2.15 1.46-3.31 2.06-.77-1-1.5-2.02-2.19-3.07zM68.12 106.12c.5-.33 1.5-.98 2-1.3 1.41 1.4 2.81 2.81 4.14 4.29-.02.81-.05 2.41-.07 3.21-.87 0-2.59-.02-3.46-.02-.84-2.08-1.71-4.13-2.61-6.18zM64.05 106.52c2.1.59 3.61 2.21 4.11 4.33.13.83.4 2.49.54 3.32-.8.46-2.4 1.39-3.2 1.86-1.54-2.94-1.72-6.27-1.45-9.51z"/>
    </g>
    <g fill="#160503">
        <path opacity=".45" d="M52.6 13.49c1.14-.4 2.29-.79 3.43-1.19-.67 2-.95 4.1-1.25 6.17.49-.36 1.47-1.09 1.95-1.45-.19.88-.38 1.77-.58 2.65.65.22 1.93.66 2.58.88-.05 2.25-.13 4.5-.2 6.76 2.51.57 3.97-1.2 4.57-3.39.96-.42 3.11-.02 2.67-1.63-.42-.43-1.25-1.28-1.66-1.71-.72.22-2.15.67-2.86.89.76-1.53 1.09-3.19 1.22-4.88 1.76-.13 3.51-.32 5.23-.72-.57 1.6-1.12 3.21-1.65 4.83 1.42-.13 2.85-.27 4.27-.42-.33-1.21-.66-2.43-1.01-3.64.63.91 1.05 1.93 1.4 2.97-.9 1.54-2.54 4.57.83 3.68-.93.52-1.88 1.01-2.84 1.49.98.6 1.97 1.21 2.95 1.81-1.22.54-2.44 1.08-3.67 1.61-.14-2.41-.31-4.82-.66-7.21l-.2.99c-.12 2.43.21 4.85.5 7.25-1.26 1.3-2.52 2.6-3.8 3.88 1.33-2.42 2.39-5 2.13-7.82-.79.33-1.57.67-2.36 1.02-1.07 1.81-2.6 2.76-4.71 1.66.66 1.2 1.33 2.4 2 3.61l-.51.41c-1.13-.62-2.23-1.29-3.32-1.98.29-2.63.77-5.25.82-7.89-2.61-2.35-5.7-4.66-5.27-8.63m10.58 3.8c-1.09 1.41 1.15 3.7 2.55 2.51 1-1.38-1.19-3.56-2.55-2.51zM47.84 21.69c1.1.01 2.21-.01 3.31-.02 1.24.78 2.49 1.55 3.74 2.31-.49.99-.99 1.98-1.48 2.96-.19-.27-.55-.82-.73-1.09-.71-1.02-1.3-2.52-2.73-2.62-1.52.27-.3 2.29.24 2.97-1.94-.79-3.12-2.37-2.35-4.51zM78.04 23.76c2.41-1.09 4.96-2.28 7.51-.77.78-.45 1.56-.9 2.34-1.36-.75 3.2-4.18 1.42-6.26 1.05.72 1.22 1.45 2.44 2.17 3.67-2.07 1.15-1.7 3.17-.96 5.1.85-1.01 1.67-2.05 2.46-3.1 1.3.19 2.61.39 3.91.59-.21 1.79-.43 3.57-.65 5.36-.42-.36-1.26-1.07-1.67-1.43-3.93-.84-7.57-2.66-11.58-3.18 2.69-.99 5.78-1.61 7.15-4.44-.94-.27-2.84-.81-3.79-1.09-.75.97-1.51 1.93-2.26 2.9-.06-1.39-.15-2.77-.26-4.15.44.56.89 1.13 1.34 1.69.13-.21.41-.63.55-.84m8.26 6.4c.25 3.42 2.89-1.72 0 0zM73.21 33.34c1.12.11 2.24.22 3.36.32-.08.71-.14 1.42-.19 2.13 2.48-.51 4.78-1.59 7.19-2.33 1.12.94 1.97 2.11 2.56 3.53-1.23-.77-2.45-1.56-3.67-2.35.49 1.47.97 2.93 1.43 4.41-2.19.73-4.33 1.66-6.11 3.17.51-3.25-2.07-5.4-3.61-7.89-.71 1-1.43 2-2.15 3 .39-1.33.79-2.66 1.19-3.99m5.17 3.71c-.57 1.55 1.9 2.96 3.09 1.96.45-1.43-1.97-2.99-3.09-1.96zM62.75 35.2c.71.25 1.41.5 2.12.75.29 1.33.6 2.65.92 3.97-1.12-.93-1.77-3.44-3.53-2.78.15 1.58.92 3.02 1.52 4.47 1.6.07 3.21.23 4.8.5-1.41.02-2.81.02-4.21 0l.32 1.72c-1.89-1.88-4.54-2.16-7.02-2.63l4.64.08c-.14-.38-.43-1.13-.57-1.51-.99-.65-1.99-1.29-2.99-1.91 1.37-.83 2.68-1.75 4-2.66zM67.56 44.69c1.75.51 3.72 1.25 4.6 2.98.62 1.68-.49 3.28-1.17 4.75-.36-.68-1.1-2.04-1.47-2.72l-.08-.15-.17-.03c-.79-.11-2.37-.32-3.16-.43-.23-.25-.68-.75-.9-1l-.34-1.54c1.63.18 3.25.38 4.88.57l.09-1.01-3.53-.6 1.25-.82zM80.26 50.89c1.2.41 2.39.8 3.58 1.24l.31.49c-.2.43-.59 1.3-.79 1.73-.45.23-1.37.69-1.83.92-.43-1.46-.85-2.92-1.27-4.38zM69.67 54.99c2.05-1.55 4.45-2.51 6.96-3.01.34 1.05.69 2.11 1.04 3.16-.07 1.36-.13 2.72-.19 4.09-2.42.3-4.8.91-7.14 1.62.57.48 1.14.96 1.71 1.43 2.35-2.41 9.92-1.07 7.62 3.13l-.71-.54c-2.07-2.42-5.43-2.39-7.73-.35.09 1.1.17 2.2.24 3.29l-.5-.42c-.42-3.58-1.82-6.94-2.41-10.47.28-.48.83-1.45 1.11-1.93m.14 4.9c1.24-.46 2.49-.91 3.74-1.32l2.16-1c-.23-1.7-.45-3.4-.66-5.1-1.81 2.43-3.49 4.95-5.24 7.42zM39.22 53.08c3.11.78 6.38 1.04 9.43-.16 1.86.79 3.63 1.77 5.32 2.87-2.64-.43-5.3-.95-7.98-.65 2.6 1.23 5.37 2.15 8.27 2.17.85.93 1.68 1.89 2.52 2.82-.13.46-.39 1.36-.52 1.81-.44 1.96-.73 3.95-1.39 5.85-.33-.17-1-.52-1.33-.7-.66-.9-1.33-1.78-2.02-2.66.25-.97.49-1.94.73-2.92-1.47.31-2.94.61-4.4.94 1.78-1.15 3.48-2.47 4.51-4.37-.7-.11-2.12-.35-2.83-.47-1.21 1.29-2.42 2.58-3.68 3.83 1.01-1.63 2.06-3.23 3.09-4.84-2.42.04-4.51 1.01-6.08 2.83.49-1.8.93-3.62 1.29-5.45-1.61.49-2.58 1.53-2.9 3.11-.57-.85-1.17-1.7-1.72-2.56-.08-.37-.23-1.09-.31-1.45m12.88 6.83c.2 1.57.32 3.14.45 4.72l2.07.14c-.18-1.87 1-4.33-.7-5.75-.46.23-1.36.67-1.82.89zM52.31 72.12c.54-.01 1.63-.04 2.18-.05l.44 1.95c.57-.12 1.69-.36 2.26-.48-.27.67-.8 2.02-1.06 2.69.46 1.72.93 3.44 1.41 5.16.92-2.3 1.62-4.8.45-7.17.98-.39 1.96-.78 2.93-1.17-1.86 5.81-2.8 11.87-2.59 17.98-.52.27-1.55.81-2.07 1.09l-.38-.86c1.12-.74 1.59-1.76 1.42-3.05-1.27-.01-2.14.57-2.59 1.73-1.54 2.66-1.66 5.78-1.42 8.77 1.68 2.97 4.13 5.72 7.61 6.48.79.04 2.37.12 3.16.17 3.53-.56 6.55-2.74 8.35-5.79.43-2.66.52-5.45-.45-8.01-.73-.8-1.47-3.65-2.83-1.85.5 1.3 1.12 2.56 1.71 3.83-.93-.88-1.87-1.74-2.7-2.71.08-2.05.61-4.05 1-6.06.41.75.83 1.51 1.24 2.27l.07-.31c.59-.59 1.76-1.77 2.35-2.36.58.59 1.15 1.18 1.72 1.78l-2.79 2.64c.5.31 1.51.93 2.01 1.24l1.66-.08c.59.12 1.77.36 2.37.48-1.27.7-2.54 1.41-3.8 2.13.3.91.61 1.81.94 2.71 1.02 1.23 2.91 1.04 4.34 1.5-1.66.17-3.31.31-4.97.47l-.24 2.48c1.29.51 2.57 1.04 3.89 1.48 2.16.87 4.6 1.1 6.72-.03-.32-1.69-1.72-2.84-2.78-4.09 2.06.74 5.76 1.61 4.7 4.63-.38 2.55-3.68 1.27-5.38 1.88 1.92 1.92 3.02 4.32 2.33 7.05-2.22-.33-4.43-.77-6.62-1.25 2.04-.35 4.05-.8 6.06-1.27-.86-1.36-1.74-2.72-2.61-4.08.11.59.32 1.76.43 2.34-.51.52-1.54 1.56-2.05 2.07-.37-.26-1.11-.78-1.47-1.04 1-.52 1.98-1.06 2.95-1.62-1.36-2.71-4.36-3.44-6.92-4.48-.43.46-1.29 1.4-1.72 1.87 1.18 1.39 2.36 2.79 3.51 4.21l1.01 1.25-.2 2.56c-.52-.72-1.06-1.41-1.63-2.09-1.33-1.48-2.73-2.89-4.14-4.29-.5.32-1.5.97-2 1.3.9 2.05 1.77 4.1 2.61 6.18l-.09.52c-.48 2.23-1.07 4.44-1.54 6.68l-4.43-.06c-.06-.69-.16-2.08-.22-2.77 1.13.76 2.25 2.69 3.78 1.63 1.46-2.28.67-5.07-.07-7.45-.5-2.12-2.01-3.74-4.11-4.33-.48 2.2-1.17 4.35-2.13 6.4-.04-1.98-.08-3.95-.13-5.92-.59.05-1.78.14-2.38.19-.89 2.3-1.89 4.56-2.5 6.95.19 1.46.42 2.92.79 4.35 1.25-.23 2.47-.62 3.69-.95-.91 1.52-2.21 2.77-4.13 2.12-1.37-1.48-.95-3.88-1.44-5.74-1.84 1.71-4.03 2.95-6.6 2.91-.59-2.24-.76-4.55-.72-6.86-1.34.5-2.67.99-4.01 1.49-.72-.64-1.45-1.28-2.17-1.92.31-1.89.89-3.72 1.65-5.47-1.5-.83-3.04-1.59-4.43-2.59.01-2.16 1.3-3.97 2.87-5.34-.98-.87-1.95-1.74-2.93-2.61-.02-.59-.08-1.75-.1-2.34 1.57-1.04 3.29-1.83 5.09-2.39-1.41-1.66-3.14-4.46-1.18-6.37 1.99-.19 3.99.13 5.97.35-.67-2.6.1-6.25-2.7-7.71-.08-.43-.25-1.29-.34-1.72l1.32-.49c-.79 1.61-.31 2.4 1.45 2.37-.03 1.39.32 2.7 1.6 3.44-.52 1.95-.87 4.05.98 5.41 1.16.99 2.33 1.95 3.5 2.92.49-.32 1.45-.97 1.94-1.3-.72-1.9-1.46-3.8-2.11-5.73l-.22-.67c-.07-1.54-.12-3.09-.17-4.63l-2.68 2.36.83-2.44c.11-.31.34-.94.45-1.26-.2-.3-.6-.91-.8-1.21m-8.27 12.65c.55 1.58 1.4 3.02 2.51 4.26 1.98.54 3.94 1.18 5.88 1.82.32-.57.94-1.7 1.25-2.27-1.31-1.35-2.6-2.71-3.85-4.12-1.95-1-3.94-.91-5.79.31m-2.76 8.4c1.93 3.51 6.56 2.44 9.81 1.92l.92.02c-.31-3.59-4.56-3.6-7.08-4.87-1.72.39-3.67.72-3.65 2.93m.09 5.13l.06 3.29c2.2.67 4.55 1.13 6.67-.08 1.37-.56 2.7-1.19 4.04-1.8-.31-.89-.62-1.78-.94-2.67-1.84.01-3.68 0-5.53-.06-1.43.45-2.87.88-4.3 1.32m5.89 5.39c-1.97 1.51-3.21 3.61-3.12 6.15 2.28-.02 4.37-.8 5.92-2.49 1.47-1.22 2.84-2.54 4.25-3.82-1.44-3.21-4.73-.35-7.05.16m3.48 5.38c-.54 1.9-.49 3.9-.56 5.85 2.94.08 5.84-1.69 6.06-4.84.6-1.28 1.09-2.6 1.63-3.9-2.73-2.82-4.86 1.72-7.13 2.89z"/>
    </g>
    <path fill="#831f21" opacity=".89" d="M79.59 14.93l1.11-.71c1.03.91 1.85 2.56 1.02 3.86-1.65.79-2.12-2.03-2.13-3.15z"/>
    <path fill="#1f0708" opacity=".44" d="M80.7 14.22c1.77.87 3.7 1.25 5.67 1.37.15 2.08.72 4.09 2.27 5.58-2.66-1.68-5.82-1.13-8.68-.44-.36-1.91-.5-3.86-.37-5.8.01 1.12.48 3.94 2.13 3.15.83-1.3.01-2.95-1.02-3.86m2.17 5.08c2.75 1.16 2.97-1.73 3.49-3.61-2.2-.13-3.79 1.38-3.49 3.61z"/>
    <path fill="#a02728" opacity=".97" d="M67.7 15.87c.4.2 1.21.58 1.61.77.35 1.21.68 2.43 1.01 3.64-1.42.15-2.85.29-4.27.42.53-1.62 1.08-3.23 1.65-4.83z"/>
    <path fill="#902325" opacity=".93" d="M82.87 19.3c-.3-2.23 1.29-3.74 3.49-3.61-.52 1.88-.74 4.77-3.49 3.61z"/>
    <path fill="#1e0707" opacity=".38" d="M46.2 20.51c-1.86.99-3.7-2.85-1.71-3.52.65 1.13 1.16 2.33 1.71 3.52z"/>
    <path fill="#9b2526" opacity=".95" d="M63.18 17.29c1.36-1.05 3.55 1.13 2.55 2.51-1.4 1.19-3.64-1.1-2.55-2.51z"/>
    <path fill="#9f2527" opacity=".97" d="M79.96 20.73c2.86-.69 6.02-1.24 8.68.44l-.75.46c-.78.46-1.56.91-2.34 1.36-2.55-1.51-5.1-.32-7.51.77.48-.75 1.44-2.27 1.92-3.03z"/>
    <g fill="#a52829">
        <path d="M61.25 21.47c.71-.22 2.14-.67 2.86-.89.41.43 1.24 1.28 1.66 1.71.44 1.61-1.71 1.21-2.67 1.63-1.02-.48-1.64-1.3-1.85-2.45zM42.83 30.89c.48-.34 1.03-.45 1.66-.35.58 3.46 2.41 6.98.79 10.45-1.77-.53-3.54-1.04-5.26-1.71-.57-.38-1.72-1.12-2.3-1.5l1.22-1.1c2.2-.29 4.37.21 6.46.85-1.03-2.11-2.63-4.18-2.57-6.64zM69.81 59.89c1.75-2.47 3.43-4.99 5.24-7.42.21 1.7.43 3.4.66 5.1l-2.16 1c-1.25.41-2.5.86-3.74 1.32zM50.16 76.76c-.09-1.24.74-1.96 2.5-2.17l-.83 2.44 2.68-2.36c.05 1.54.1 3.09.17 4.63-.17-.49-.52-1.47-.69-1.96-.4.26-1.19.77-1.58 1.03-.76-.53-1.51-1.06-2.25-1.61zM45.67 96.98c1.85.06 3.69.07 5.53.06.32.89.63 1.78.94 2.67-1.34.61-2.67 1.24-4.04 1.8-1.43-.12-2.86-.32-4.27-.58-.33-1.66.93-2.78 1.84-3.95zM74.28 97.24c1.66-.16 3.31-.3 4.97-.47.52-.06 1.58-.17 2.1-.23.1 1.46.21 2.93.33 4.39-1.25.11-2.5.2-3.75.27-1.32-.44-2.6-.97-3.89-1.48l.24-2.48z"/>
    </g>
    <g fill="#b2292c">
        <path d="M71.54 23.29c1.2-1.12 2.39-2.25 3.68-3.26.23.72.69 2.16.93 2.88.11 1.38.2 2.76.26 4.15.75-.97 1.51-1.93 2.26-2.9.95.28 2.85.82 3.79 1.09-1.37 2.83-4.46 3.45-7.15 4.44 4.01.52 7.65 2.34 11.58 3.18.41.36 1.25 1.07 1.67 1.43.86.72 1.7 1.44 2.55 2.18-.42 1.55-.82 3.11-.99 4.72 2.04-.77 2.58-2.96 2.34-4.92.95-1.54 2.91-1.42 4.45-1.75-.22 1.54-.45 3.07-.71 4.6-2.26.1-4.1 1.05-4.71 3.54l.41-1.42c-.68.13-1.36.27-2.04.42l-.92.2c-.95.21-1.9.43-2.85.66.03-.68.07-2.05.1-2.73 1.29-.19 2.59-.38 3.89-.58-.68-1.39-1.37-2.78-2.12-4.13-.19.69-.55 2.07-.73 2.76-1.11.4-2.23.79-3.34 1.2-.46-1.48-.94-2.94-1.43-4.41 1.22.79 2.44 1.58 3.67 2.35-.59-1.42-1.44-2.59-2.56-3.53-2.41.74-4.71 1.82-7.19 2.33.05-.71.11-1.42.19-2.13-1.12-.1-2.24-.21-3.36-.32-.4 1.33-.8 2.66-1.19 3.99.72-1 1.44-2 2.15-3 1.54 2.49 4.12 4.64 3.61 7.89-1.36-1.23-2.61-2.59-3.82-3.96-1.35.76-2.69 1.52-4.03 2.28-.29 1.06-.61 2.11-.96 3.15-.35.25-1.06.75-1.41 1l-1.25.82 3.53.6-.09 1.01c-1.63-.19-3.25-.39-4.88-.57l.34 1.54c-.45 2.23-.72 4.51-.22 6.76.38-.25 1.13-.76 1.51-1.01 1.05.38 2.11.77 3.17 1.15-.28.48-.83 1.45-1.11 1.93.59 3.53 1.99 6.89 2.41 10.47l.5.42c2.12 1.37 4.61 2.02 6.79 3.3-1.13.97-2.19 2.01-3.18 3.13.14-1.07.27-2.13.42-3.19-1.34-.89-2.69-1.77-4.03-2.64-.87 5.44-1.24 10.95-2.33 16.36-.39 2.01-.92 4.01-1 6.06.83.97 1.77 1.83 2.7 2.71-.59-1.27-1.21-2.53-1.71-3.83 1.36-1.8 2.1 1.05 2.83 1.85.02 1.92-.01 3.84-.04 5.76-.29-.55-.87-1.66-1.16-2.22-1.36-.47-2.72-.95-4.09-1.42.52 1.46 1.04 2.93 1.56 4.4-1.45-1.59-2.89-3.17-4.37-4.72.29 1.99.6 3.99.91 5.98-.35.51-1.07 1.52-1.42 2.02-.28-1.45-.56-2.89-.86-4.34-.15-1.09-.55-2.08-1.21-2.96-.39 1.57-.5 3.2-.32 4.81-1.5-1.22-1.96-3.15-2.72-4.84l-.72.25-.15.05c-.97.49-1.94 1-2.9 1.53.58-1.26 1.14-2.52 1.79-3.74.52-.28 1.55-.82 2.07-1.09-.21-6.11.73-12.17 2.59-17.98l.11-.81c.35-2.69.51-5.4.66-8.1-1.33-.62-2.67-1.23-4.04-1.77-.35-.11-1.04-.32-1.39-.43.13-.45.39-1.35.52-1.81-.84-.93-1.67-1.89-2.52-2.82-2.9-.02-5.67-.94-8.27-2.17 2.68-.3 5.34.22 7.98.65-1.69-1.1-3.46-2.08-5.32-2.87l-.95-.44c-.65-1.62-1.2-3.29-1.71-4.96 1.69.46 3.38.94 5.06 1.43-.12-.62-.34-1.87-.45-2.49.59-1.39 2.15-1.23 3.39-1.12-.48 1-1.43 3.01-1.91 4.02 2.33-1.55 5.04-1.99 7.79-1.81-.03-1.46-.05-2.92-.07-4.39-.38.47-1.15 1.39-1.54 1.85l-1.12-.47c-1.14-1-2.23-2.05-3.32-3.11l.87-.21 1.23-.3c1.47-.04 2.63-1.64 2.03-3.04l.8-.02c1 .62 2 1.26 2.99 1.91.14.38.43 1.13.57 1.51l-4.64-.08c2.48.47 5.13.75 7.02 2.63l-.32-1.72c1.4.02 2.8.02 4.21 0-1.59-.27-3.2-.43-4.8-.5-.6-1.45-1.37-2.89-1.52-4.47 1.76-.66 2.41 1.85 3.53 2.78-.32-1.32-.63-2.64-.92-3.97l.75.27.97.35c.84-.99 1.67-1.99 2.49-3.01.48.7 1.42 2.11 1.89 2.81-.03-.99-.07-1.97-.14-2.95-.55-.28-1.66-.86-2.21-1.15l1.89-.4c.31-.06.92-.19 1.23-.25.21-.54.63-1.61.84-2.14.52-.22 1.58-.67 2.11-.89l.08-.03c-.06-.03-.17-.1-.23-.13-.94-.64-1.91-1.26-2.89-1.84-.98-.6-1.97-1.21-2.95-1.81.96-.48 1.91-.97 2.84-1.49m-4.3 14.93c.54.49.54.49 0 0M62.3 45.1c-1.05.97.29 3.3 1.62 2.41 1.1-.98-.25-3.38-1.62-2.41m-10.09 4.59c-.13 1.67.35 3.26 1.16 4.71 1.18.79 2.32 1.64 3.55 2.36 1.2 1.77 2.85 3.13 4.66 4.24-.39-3.69-.83-7.41-1.81-11-2.2-1.34-5.09.08-7.56-.31zM50.19 26.2c-.54-.68-1.76-2.7-.24-2.97 1.43.1 2.02 1.6 2.73 2.62-.62.09-1.86.26-2.49.35z"/>
    </g>
    <g fill="#982328">
        <path opacity=".98" d="M41.05 25.18c1.11-2.41 2.85-.18 3.33 1.31 1.09-.56 2.26-1.17 3.41-.34.13.41.4 1.22.54 1.63-.32.5-.96 1.49-1.27 1.98-1.73-.43-3.46-.87-5.19-1.31-.29-1.09-.56-2.18-.82-3.27zM44.93 90.24c2.52 1.27 6.77 1.28 7.08 4.87l-.92-.02c-2.74.04-5.49-.27-7.99-1.43.46-.85 1.37-2.57 1.83-3.42z"/>
    </g>
    <path fill="#010000" opacity=".18" d="M37.16 26.54c1.3-.45 2.6-.91 3.89-1.36.26 1.09.53 2.18.82 3.27 1.73.44 3.46.88 5.19 1.31.31-.49.95-1.48 1.27-1.98l.61-.91c-.65 2.22-1.36 4.43-2.33 6.53 2.42.93 5.25 1.82 5.85 4.73-1.95-.88-3.87-1.84-5.83-2.69.98 1.65 2.07 3.23 3.17 4.8l-2.88-2.46c-.39.91-1.16 2.73-1.55 3.64 1 .79 1.98 1.61 2.99 2.4 1.18.04 2.04-.87 2.97-1.45.12.46.37 1.38.49 1.84 1.78.07 3.55.16 5.32.33l1.12.47c.39-.46 1.16-1.38 1.54-1.85.02 1.47.04 2.93.07 4.39-2.75-.18-5.46.26-7.79 1.81.48-1.01 1.43-3.02 1.91-4.02-1.24-.11-2.8-.27-3.39 1.12-.18-.05-.54-.15-.72-.19l-.92-.77c-.52-.41-1.56-1.24-2.09-1.65-1.31-.58-2.65-1.08-4.03-1.48l2.05-.68c-2.09-2.04-4.82-.65-7 .35l4.2 1.44c-.11.4-.34 1.21-.46 1.61-1.52-.81-2.8-2.08-4.51-2.52.04 2.37.52 4.74 1.51 6.89 1.05-.73 1.89-1.7 2.75-2.64.5.72 1.03 1.42 1.58 2.1.15.21.46.63.61.84-1.41.24-2.89.47-4.07 1.36-3.25-.22-4.73 2.79-7.29 4.05.13-2.02.17-6.29-3.02-4.91-.38 1.02-.6 2.09-.66 3.2-1.38-.18-2.76-.33-4.14-.47 1.15 2.96 4.13 2.28 6.61 1.73-1.46 1.15-5.84 1.54-4.74 4.05 1.81 1.33 3.35-1.02 4.75-1.92 1.34-1.63 3.52-.93 5.32-.85.09.99.26 2.95.35 3.94.98-1.79 1.94-3.59 2.85-5.41.55.86 1.15 1.71 1.72 2.56l.5.78c-1.44.45-2.88.92-4.32 1.42 1.79 2.22 4.67 1.09 7.07 1.11-2.16.56-4.41 2.75-6.69 1.53-1.71-.67-3.26-1.64-4.87-2.51.68-.39 1.36-.79 2.03-1.19-.49-.37-1.48-1.12-1.98-1.49-2.16 1.78-4.67 4.17-7.72 3-.42-2.38-.67-4.79-1.11-7.16.62-.21 1.85-.63 2.46-.85.53-.84 1.08-1.67 1.66-2.48 1.14-.22 2.29-.38 3.44-.5-.36-1.57-.73-3.14-1.12-4.7.68-.32 2.05-.97 2.73-1.29-1.04-1.46-3.62-1.01-3.56.97-2.27-.87.96-3.85.63-5.65 1.8-.08 3.68-.58 5.45-.03.89 1.16 1.59 2.44 2.34 3.7.61-.83 1.22-1.65 1.83-2.47 1.72.67 3.49 1.18 5.26 1.71 1.62-3.47-.21-6.99-.79-10.45-.63-.1-1.18.01-1.66.35-.06 2.46 1.54 4.53 2.57 6.64-2.09-.64-4.26-1.14-6.46-.85 1.2-.95 2.43-1.86 3.66-2.76-.69-2.37-2.9-3.2-5.01-3.91-.15-1.16-.29-2.31-.43-3.47m.2-.04c.05 2.17 2.24 4.21 4.41 3.29.52-2.3-2.99-2.56-4.41-3.29m-6.15 11.56c.23.81.67 2.43.89 3.24 1.52.41 3.08.59 4.67.52-.63-2.9-2.73-4.04-5.56-3.76m4.67 4.17c.6.6.6.6 0 0m-3.15 1.5c-.34 1.33-.68 2.66-1.01 3.99 2.72.01 4.61-1.72 5.19-4.36-1.05.09-3.14.28-4.18.37m22.17 1.62c-1.22 1.51 1.87 2.13 2.69 1.17 1.17-1.52-1.87-2.02-2.69-1.17m-21.4 2.5c-1.02 2.65 2.89 4.62 4.36 1.99.5-2.17-3.02-1.99-4.36-1.99z"/>
    <path fill="#872021" opacity=".88" d="M37.36 26.5c1.42.73 4.93.99 4.41 3.29-2.17.92-4.36-1.12-4.41-3.29z"/>
    <path fill="#0a0202" opacity=".31" d="M70.85 27.27c.58.73 1.16 1.47 1.73 2.21-.21.53-.63 1.6-.84 2.14-.31.06-.92.19-1.23.25-.91-.11-2.74-.34-3.65-.46 1.32-1.39 2.66-2.76 3.99-4.14z"/>
    <path fill="#180404" opacity=".6" d="M74.54 28.43c.06.03.17.1.23.13l-.08.03-.15-.16z"/>
    <g fill="#4f1314">
        <path opacity=".81" d="M51.58 30.45c.58-.04 1.74-.12 2.32-.17-1.05 2.25 1.5 3.57 2.93 1.71-.61-.89-1.4-1.6-2.35-2.12l1.96-.26.61.4c1.09.69 2.19 1.36 3.32 1.98l.51-.41c.56-.49 1.69-1.47 2.25-1.96-.43 1.47-.85 2.95-1.27 4.43-1.35.75-2.69 1.5-4.03 2.25.38-1.23.77-2.45 1.14-3.68-1.3.5-2.61.96-3.85 1.6-.21 1.17-.38 2.35-.5 3.53-.72-1.13-1.46-2.25-2.21-3.36-.26-1.32-.52-2.63-.83-3.94zM74.26 109.11c.57.68 1.11 1.37 1.63 2.09.47 1.44.75 2.92.86 4.45-2.41.12-5.17-.19-6.11-2.83l.09-.52c.87 0 2.59.02 3.46.02.02-.8.05-2.4.07-3.21z"/>
    </g>
    <path fill="#a52627" opacity=".98" d="M53.9 30.28l.58-.41c.95.52 1.74 1.23 2.35 2.12-1.43 1.86-3.98.54-2.93-1.71z"/>
    <path fill="#bd2c31" d="M86.3 30.16c2.89-1.72.25 3.42 0 0z"/>
    <path fill="#0f0304" opacity=".42" d="M65.44 32.84c.79-.15 2.38-.43 3.18-.57.55.29 1.66.87 2.21 1.15.07.98.11 1.96.14 2.95-.47-.7-1.41-2.11-1.89-2.81-.82 1.02-1.65 2.02-2.49 3.01l-.97-.35c-.05-.85-.14-2.54-.18-3.38z"/>
    <path opacity=".15" d="M87.96 35.09c.75 1.35 1.44 2.74 2.12 4.13-1.3.2-2.6.39-3.89.58-.03.68-.07 2.05-.1 2.73.95-.23 1.9-.45 2.85-.66l.92-.2c-.52.36-1.56 1.09-2.09 1.45-.84.05-1.69.11-2.53.18.38.49 1.14 1.49 1.52 1.98-.37.44-1.1 1.3-1.47 1.73-1.43-.4-2.87-.74-4.3-1.1l-.91-.55c1.14-.63 2.95-.67 3.07-2.29l-.13-.65c-2.97.51-5.85 1.41-8.8 2.02.16-1.74.3-3.49.44-5.23-1.47.64-2.92 1.35-4.37 2.04.45.51 1.36 1.53 1.81 2.04l-3.13.4c.35-1.04.67-2.09.96-3.15 1.34-.76 2.68-1.52 4.03-2.28 1.21 1.37 2.46 2.73 3.82 3.96 1.78-1.51 3.92-2.44 6.11-3.17 1.11-.41 2.23-.8 3.34-1.2.18-.69.54-2.07.73-2.76z"/>
    <path fill="#2b0a0a" opacity=".63" d="M91.11 36.48l1.35-.2c.24 1.96-.3 4.15-2.34 4.92.17-1.61.57-3.17.99-4.72z"/>
    <path fill="#741b1c" opacity=".87" d="M55.92 40.92c-.67-1.35.4-3.36 2.03-3.04.6 1.4-.56 3-2.03 3.04z"/>
    <path fill="#571416" opacity=".75" d="M67.24 38.22c.54.49.54.49 0 0z"/>
    <path fill="#a82726" opacity=".97" d="M31.21 38.06c2.83-.28 4.93.86 5.56 3.76-1.59.07-3.15-.11-4.67-.52-.22-.81-.66-2.43-.89-3.24z"/>
    <path fill="#6d191b" opacity=".84" d="M53.82 41.43c-3.13-2.27 2.59-3.7.87-.21l-.87.21z"/>
    <path fill="#390e0b" opacity=".71" d="M51.21 40.2c.52.53.52.53 0 0z"/>
    <path fill="#ab272b" d="M29.77 43.73c-.06-1.98 2.52-2.43 3.56-.97-.68.32-2.05.97-2.73 1.29l-.83-.32z"/>
    <path fill="#bd2c29" d="M35.88 42.23c.6.6.6.6 0 0z"/>
    <path fill="#0b0203" opacity=".31" d="M96.89 44.94c1.03-.6 1.94-1.37 2.87-2.13-.13.67-.39 2.01-.52 2.67-2.69.37-5.4.17-8.01-.53-.74 2.19-2.31 3.39-4.7 3.06.52-.4 1.55-1.2 2.07-1.6.98-1.01 1.96-2.01 2.97-3 1.73.57 3.42 1.81 5.32 1.53z"/>
    <path fill="#992526" opacity=".95" d="M32.73 43.73c1.04-.09 3.13-.28 4.18-.37-.58 2.64-2.47 4.37-5.19 4.36.33-1.33.67-2.66 1.01-3.99z"/>
    <path fill="#ad2928" opacity=".98" d="M54.9 45.35c.82-.85 3.86-.35 2.69 1.17-.82.96-3.91.34-2.69-1.17z"/>
    <path fill="#511214" opacity=".76" d="M62.3 45.1c1.37-.97 2.72 1.43 1.62 2.41-1.33.89-2.67-1.44-1.62-2.41z"/>
    <path opacity=".1" d="M43.28 46.19c2.19.24 4.41.45 6.6.08.18.04.54.14.72.19.11.62.33 1.87.45 2.49-1.68-.49-3.37-.97-5.06-1.43.51 1.67 1.06 3.34 1.71 4.96-1.53-.65-2.99-1.47-4.13-2.72-.15-.21-.46-.63-.61-.84l.32-2.73z"/>
    <path opacity=".07" d="M65.21 48.09c.22.25.67.75.9 1 .98 1.01 2.02 1.96 3.05 2.91-.89.61-1.77 1.23-2.66 1.84-.38.25-1.13.76-1.51 1.01-.5-2.25-.23-4.53.22-6.76z"/>
    <path fill="#4f1114" opacity=".74" d="M69.27 49.52l.17.03.08.15c-.06-.05-.19-.13-.25-.18z"/>
    <path fill="#0e0303" opacity=".33" d="M52.21 49.69c2.47.39 5.36-1.03 7.56.31.98 3.59 1.42 7.31 1.81 11-1.81-1.11-3.46-2.47-4.66-4.24 1.14.53 2.29 1.05 3.44 1.55-.4-2.56-.83-5.11-1.28-7.67-1.73.02-3.46.05-5.19.07-.13.92-.39 2.76-.52 3.69-.81-1.45-1.29-3.04-1.16-4.71z"/>
    <path fill="#531313" opacity=".76" d="M77.12 50.11c3.03-1.47.08 3.32 0 0z"/>
    <path fill="#330c0c" opacity=".68" d="M79.01 57.13c1.47-.54 1.94-.12 1.44 1.26-1.46.55-1.94.12-1.44-1.26z"/>
    <path fill="#a82728" opacity=".97" d="M52.1 59.91c.46-.22 1.36-.66 1.82-.89 1.7 1.42.52 3.88.7 5.75l-2.07-.14c-.13-1.58-.25-3.15-.45-4.72z"/>
    <path fill="#992324" opacity=".94" d="M93.18 62.83c-1.94-2.34 2.47-3.41 3.74-1.69.21 1.91-2.44 3.23-3.74 1.69z"/>
    <path fill="#6a1919" opacity=".81" d="M56.52 65.79c.28-.86.85-2.57 1.13-3.42 1.37.54 2.71 1.15 4.04 1.77-.15 2.7-.31 5.41-.66 8.1-.01-1.54-.05-3.08-.11-4.62-1.32 1.07-2.71 2.08-3.82 3.38.25 1.08.55 2.16.89 3.22 1.17 2.37.47 4.87-.45 7.17-.48-1.72-.95-3.44-1.41-5.16.26-.67.79-2.02 1.06-2.69-.57.12-1.69.36-2.26.48l-.44-1.95c.45-.22 1.36-.67 1.81-.9-.42-.45-1.26-1.34-1.68-1.79l.51-.37c.59-.16 1.79-.47 2.38-.63.8-1.45 1.59-2.91 2.37-4.37-1.12.59-2.24 1.18-3.36 1.78z"/>
    <g fill="#a52526">
        <path d="M71.23 64.52c2.3-2.04 5.66-2.07 7.73.35-1.34.5-2.68 1.02-4.02 1.53-1.24-.61-2.48-1.24-3.71-1.88zM39.3 68.51c.43-.93 1.11-1.58 2.05-1.96l.44 1.79c-.8 1.61-1.63 1.67-2.49.17zM59.41 107.19c.6-.05 1.79-.14 2.38-.19.05 1.97.09 3.94.13 5.92 0 .15.01.46.01.62l-.07 1.98c-1.79.08-3.72.18-4.95-1.38.61-2.39 1.61-4.65 2.5-6.95z"/>
    </g>
    <path fill="#9c2425" opacity=".93" d="M82.28 63.34c1.3.05 2.59.25 3.85.58.98 1.58.5 3.3-.95 4.32-.29-.26-.85-.79-1.14-1.06l-1.76-3.84z"/>
    <g fill="#b52c29">
        <path d="M34.21 65.58c-1.08-1.14-.82-1.6.78-1.37-.2.34-.58 1.03-.78 1.37zM94.32 65.01c2.88-1.69.22 3.52 0 0z"/>
    </g>
    <path fill="#a32825" opacity=".96" d="M90.12 64.78c1.24.2 2.48.39 3.72.59-.26.92-.77 2.75-1.02 3.66-.39.05-1.16.14-1.55.19-.37-.51-1.13-1.52-1.51-2.03l.36-2.41z"/>
    <path fill="#9d2627" opacity=".96" d="M36.15 66.22c.46.03 1.37.08 1.82.1-.51 1.11-1.12 1.08-1.82-.1z"/>
    <path fill="#a82627" opacity=".97" d="M37.22 68.15l1.35.79c-1.26 1.13-1.71.86-1.35-.79z"/>
    <path fill="#040101" opacity=".26" d="M57.1 71c1.11-1.3 2.5-2.31 3.82-3.38.06 1.54.1 3.08.11 4.62l-.11.81c-.97.39-1.95.78-2.93 1.17-.34-1.06-.64-2.14-.89-3.22z"/>
    <path fill="#9c2627" opacity=".95" d="M48.21 69.94c1.31-.54 2.36-.24 3.16.88-.71 1.42-2.74 1.12-3.4-.17l.24-.71z"/>
    <path fill="#210708" opacity=".5" d="M69.14 84.77c1.09-5.41 1.46-10.92 2.33-16.36 1.34.87 2.69 1.75 4.03 2.64-.15 1.06-.28 2.12-.42 3.19-.06.48-.17 1.46-.23 1.94.91 2.08 1.6 4.26 1.56 6.55 2.2.04 4.93-1.07 6.38 1.2-.82 1.64-1.88 3.15-2.94 4.65 2.32.6 5.2.28 6.92 2.24.71 2.54-1.5 3.07-3.39 3.64l.18-4.07c-1.82.03-3.64.1-5.47.08l-.32-.04c-.6-.12-1.78-.36-2.37-.48 1.3-.65 2.6-1.32 3.9-1.97.08-.9.22-2.69.29-3.59-.85.04-2.55.11-3.39.14-.55-.56-1.09-1.12-1.62-1.7.23-2.39-.12-4.65-2.91-4.67-.48 2.84-.84 5.71-1.22 8.57l-.07.31c-.41-.76-.83-1.52-1.24-2.27m2.47-14.85c-.14 2.3-.22 4.61-.29 6.91.81-.11 2.41-.32 3.21-.43.24-2.46.11-5.87-2.92-6.48z"/>
    <path fill="#2b0a0a" opacity=".44" d="M84.34 70.22c.51.52.51.52 0 0z"/>
    <path fill="#521314" opacity=".76" d="M47.97 70.65c.66 1.29 2.69 1.59 3.4.17.23.33.7.98.94 1.3.2.3.6.91.8 1.21-.11.32-.34.95-.45 1.26-1.76.21-2.59.93-2.5 2.17.74.55 1.49 1.08 2.25 1.61.39-.26 1.18-.77 1.58-1.03.17.49.52 1.47.69 1.96l.22.67-3.21.96-.12 3.15c-1.85-1.36-1.5-3.46-.98-5.41-1.28-.74-1.63-2.05-1.6-3.44-.13-.64-.38-1.94-.51-2.58-.13-.5-.38-1.5-.51-2z"/>
    <path fill="#932322" opacity=".92" d="M47.54 72.86l.94-.21c.13.64.38 1.94.51 2.58-1.76.03-2.24-.76-1.45-2.37z"/>
    <path fill="#a12728" opacity=".98" d="M71.67 78.16c2.79.02 3.14 2.28 2.91 4.67.53.58 1.07 1.14 1.62 1.7.84-.03 2.54-.1 3.39-.14-.07.9-.21 2.69-.29 3.59-1.3.65-2.6 1.32-3.9 1.97l-1.66.08c-.5-.31-1.51-.93-2.01-1.24l2.79-2.64c-.57-.6-1.14-1.19-1.72-1.78-.59.59-1.76 1.77-2.35 2.36.38-2.86.74-5.73 1.22-8.57z"/>
    <g fill="#ac2728">
        <path d="M51.69 80.93l3.21-.96c.65 1.93 1.39 3.83 2.11 5.73-.49.33-1.45.98-1.94 1.3-1.17-.97-2.34-1.93-3.5-2.92l.12-3.15zM47.14 85.12c.68-.16 2.02-.49 2.69-.66 1.25 1.41 2.54 2.77 3.85 4.12-.31.57-.93 1.7-1.25 2.27-1.94-.64-3.9-1.28-5.88-1.82.2-1.3.4-2.61.59-3.91z"/>
    </g>
    <path fill="#6c1919" opacity=".85" d="M44.04 84.77c1.85-1.22 3.84-1.31 5.79-.31-.67.17-2.01.5-2.69.66-.19 1.3-.39 2.61-.59 3.91-1.11-1.24-1.96-2.68-2.51-4.26z"/>
    <path fill="#ab2728" d="M54.71 89.94c.45-1.16 1.32-1.74 2.59-1.73.17 1.29-.3 2.31-1.42 3.05-.29-.33-.88-.99-1.17-1.32z"/>
    <path fill="#561314" opacity=".77" d="M53.29 98.71c-.24-2.99-.12-6.11 1.42-8.77.29.33.88.99 1.17 1.32l.38.86c-.65 1.22-1.21 2.48-1.79 3.74.96-.53 1.93-1.04 2.9-1.53l.05.14c.02-.05.07-.15.1-.19l.72-.25c.76 1.69 1.22 3.62 2.72 4.84l1.53-1.85c.3 1.45.58 2.89.86 4.34.35-.5 1.07-1.51 1.42-2.02-.31-1.99-.62-3.99-.91-5.98 1.48 1.55 2.92 3.13 4.37 4.72-.52-1.47-1.04-2.94-1.56-4.4 1.37.47 2.73.95 4.09 1.42.29.56.87 1.67 1.16 2.22.03-1.92.06-3.84.04-5.76.97 2.56.88 5.35.45 8.01-1.13-1.22-2.25-2.45-3.37-3.67l-1.2 4.74c-.84-.11-1.67-.23-2.5-.34l-1.64 2.12-.08.08c.02.06.05.17.06.23.1.66.29 1.97.38 2.63-.79-.05-2.37-.13-3.16-.17.06-1.67.1-3.34.15-5.01-.95.23-1.9.46-2.85.68-.17-1.54-.33-3.08-.5-4.62-1.47.82-2.95 1.64-4.41 2.47z"/>
    <path fill="#621617" opacity=".83" d="M78.09 90.47c1.83.02 3.65-.05 5.47-.08l-.18 4.07c-.95.35-1.91.71-2.86 1.07-.1-1.53-.23-3.05-.37-4.58-.51-.12-1.54-.36-2.06-.48z"/>
    <path fill="#43100f" opacity=".7" d="M41.28 93.17c-.02-2.21 1.93-2.54 3.65-2.93-.46.85-1.37 2.57-1.83 3.42 2.5 1.16 5.25 1.47 7.99 1.43-3.25.52-7.88 1.59-9.81-1.92z"/>
    <path fill="#0d0204" opacity=".55" d="M57.37 94.33l.15-.05c-.03.04-.08.14-.1.19l-.05-.14z"/>
    <path fill="#0e0203" opacity=".56" d="M61.28 94.06c.66.88 1.06 1.87 1.21 2.96l-1.53 1.85c-.18-1.61-.07-3.24.32-4.81z"/>
    <path fill="#4c1112" opacity=".75" d="M41.37 98.3c1.43-.44 2.87-.87 4.3-1.32-.91 1.17-2.17 2.29-1.84 3.95 1.41.26 2.84.46 4.27.58-2.12 1.21-4.47.75-6.67.08l-.06-3.29z"/>
    <path fill="#5c1615" opacity=".8" d="M81.35 96.54l.52.54c1.06 1.25 2.46 2.4 2.78 4.09-2.12 1.13-4.56.9-6.72.03 1.25-.07 2.5-.16 3.75-.27-.12-1.46-.23-2.93-.33-4.39z"/>
    <path fill="#9c2425" opacity=".96" d="M47.26 103.69c2.32-.51 5.61-3.37 7.05-.16-1.41 1.28-2.78 2.6-4.25 3.82l-2.22-.12c-.14-.88-.43-2.65-.58-3.54z"/>
    <path fill="#150404" opacity=".53" d="M63.62 102.5l.08-.08-.02.31c-.01-.06-.04-.17-.06-.23z"/>
    <path fill="#69171c" opacity=".85" d="M44.14 109.84c-.09-2.54 1.15-4.64 3.12-6.15.15.89.44 2.66.58 3.54l2.22.12c-1.55 1.69-3.64 2.47-5.92 2.49z"/>
    <path fill="#451011" opacity=".72" d="M80.78 106.38c-.11-.58-.32-1.75-.43-2.34.87 1.36 1.75 2.72 2.61 4.08-2.01.47-4.02.92-6.06 1.27l-.81-.75-1.01-1.25c.54 0 1.63.01 2.18.02.36.26 1.1.78 1.47 1.04.51-.51 1.54-1.55 2.05-2.07z"/>
    <path fill="#3f0f0f" opacity=".68" d="M61.92 112.92c.96-2.05 1.65-4.2 2.13-6.4-.27 3.24-.09 6.57 1.45 9.51.8-.47 2.4-1.4 3.2-1.86-.14-.83-.41-2.49-.54-3.32.74 2.38 1.53 5.17.07 7.45-1.53 1.06-2.65-.87-3.78-1.63-.93-.96-1.78-2.01-2.52-3.13 0-.16-.01-.47-.01-.62z"/>
    <path fill="#651718" opacity=".83" d="M50.18 114.92c.07-1.95.02-3.95.56-5.85.69 1.05 1.42 2.07 2.19 3.07 1.16-.6 2.25-1.31 3.31-2.06-.22 3.15-3.12 4.92-6.06 4.84z"/>
    <path fill="#3f0e0e" opacity=".69" d="M56.91 114.14c1.23 1.56 3.16 1.46 4.95 1.38-.12.5-.35 1.51-.47 2.02-1.22.33-2.44.72-3.69.95-.37-1.43-.6-2.89-.79-4.35z"/>
</svg>
