<svg width="128pt" height="128pt" viewBox="0 0 128 128" xmlns="http://www.w3.org/2000/svg">
    <g fill="#fff">
        <path d="M49.39 10.62c2.74 1.02 4.39 3.2 3.44 6.23-1.36-.82-4-.66-3.78-2.86.09-.84.25-2.53.34-3.37zM55.57 18.98c-1.69-3.01-.27-6.6 2.73-8.09 1.04 3.17-.92 5.71-2.73 8.09zM80.14 14.02c2.62 1.08 1.45 4.05 1.12 6.14l1.96-1.87-.88 3.29c2.87-1.33-.98-5.67 2.92-5.83 2.08.46.41 2.91-.65 3.49 1.32.64 2.61 1.36 3.86 2.13-1.11.69-2.23 1.35-3.36 2.01l-2.36-1.96c-1.06.74-2.08 1.52-3.06 2.35-2.85-.35.68-2.53 1.17-3.79-.29-1.99-1.46-3.92-.72-5.96z"/>
        <path d="M62.48 17.14c2.12.31 4.46.51 6.12-1.17.32 1.23 2.02 2.55.98 3.81-1.81 2.47-1.13 5.67-1.34 8.52.73-.28 2.19-.82 2.92-1.1-.79-.92-1.58-1.85-2.37-2.77 2.84-.16 4.21-2.84 6.3-4.34 1.37 2.82 1.27 5.96 1.63 8.99l-2.29-1.15c-.42.26-1.25.79-1.67 1.05l-.43-1.73c-2.1 1.12-4.16 2.37-5.76 4.17 1.96-.49 6.46 1.93 5.67-1.96.7-.22 2.09-.66 2.78-.88.52.53 1.03 1.06 1.54 1.61 2.37-.58 4.42.52 6.19 2.03-.07-2.18-1.79-5.27 1.27-6.16 2.65 1.06.47 4.33-.99 5.5l2.36-.7.14.79c-.5.31-1.51.92-2.01 1.22 2.66-.91 4.69.21 6.02 2.54-2.2 1.25-4.2.03-5.69-1.59-.84-1.14-2.14.51-3.1.49l4.03.98c-1.85 1.12-3.81-.3-5.69-.57-.81.81-1.76 1.21-2.84 1.18.1-1.02.31-2.03.62-3.03l-.85 1.56c-.86-.67-1.71-1.35-2.55-2.04.63 2.75-2.37 3.09-3.15.73-1.41-.44-2.88-.76-4.34-.35-1.24 1.27-.25 2.92-.03 4.37 1.15-1.31 2.27-2.65 3.42-3.96.8 1.69 1.42 3.81.69 5.64-1.09-.15-2.16-.41-3.21-.78 1.18 1.14 2.64 1.9 4.04 2.72-.55.81-1.66 2.43-2.22 3.24 1.38-.21 2.73-.55 4.04-1.01l-1.86-.65c.25-.91.48-1.83.7-2.75.83.23 2.48.67 3.3.9-.38 1.34-.84 2.67-1.37 3.97 1.58-.19 3.17-.35 4.76-.47 2.25-1.85 5.04-1.81 7.7-1 2.05 1.1 3.26-1.25 4.91-2 .34-.49 1.01-1.48 1.34-1.97-.41-2.79 2.02-4.54 4.61-4.58.09 2.53-.65 5.39-3.76 5.2-.73 1.27-1.46 2.53-2.15 3.83 1.82-.93 3.27-2.5 5.23-3.16 1.53.38 2.87 1.27 4.27 1.96-1.28 1.03-2.39 2.42-4.01 2.92-1.55.11-2.9-.95-4.28-1.52-1.07.39-2.13.79-3.19 1.2.25.77.51 1.54.76 2.32-1.24.14-2.93-.83-3.55.91.99 1.44 2.06 2.83 3.04 4.29-1.57.26-3.23.21-4.09-1.37l-.5-.58c-.68.13-1.36.15-2.04.06-.14-.68-.22-1.37-.23-2.07-1.24-.91-3.41-2.8-.5-3.35.46.27 1.38.79 1.83 1.05l-.04 2.62c1.3-1.42 3.91-2.44 2.78-4.79-2.51-1.06-4.75.74-6.99 1.61.85 1.72 3.38 3.41 1.71 5.37l-.54.64c.4 1.28.84 2.55 1.28 3.82 1.28-.88 2.28-2.1 3.5-3.06l2.4 1.88c-.19 1.28-.21 2.57.05 3.85-.4.1-1.19.31-1.59.41.28.33.84 1 1.13 1.34 2.28-1.12 3.39-3.8 5.64-4.75 1.23.28 2.46.22 3.66-.19.89.59 1.78 1.17 2.67 1.76-1.14.68-2.27 1.35-3.41 2.03-.75-.72-1.5-1.45-2.25-2.17-1.82 1.41-3.53 2.94-5.2 4.51 1.23.54 2.47 1.07 3.71 1.59 1.17-2.35 3.21-2.79 5.43-1.46-1.23 1.6-2.96 2.5-5.03 2.14l-.16 1.61c-1.74-.72-3.08-3.15-5.18-2.27-2.54 1.24-5.81-1.49-3.74-4.04-.78.83-1.58 1.66-2.38 2.47.51.63 1.04 1.25 1.54 1.89-.71 2.35-.67 5.01-2.58 6.82-1.13-1.81-1.09-3.7.18-5.4.01-.43.05-1.29.07-1.72-2.18-.7-4.6-2.3-6.89-1.18-1.17.81-3.63 1.31-2.47 3.2-.09.75-.28 2.26-.37 3.01 2.62 1.34 5.48 2.17 8 3.68-.64.23-1.93.69-2.58.91-.06.66-.19 1.98-.25 2.64-.66-1.59-.97-3.3-1.53-4.93-.84-.25-2.5-.74-3.34-.98.1 7.38-1.1 14.78-3.1 21.87 2.03 1.61 5.48 2.54 4.15 5.9.62-.01 1.85-.02 2.46-.02-.81.44-1.63.88-2.44 1.32-.54-.99-1.05-1.99-1.53-3-1.49-.39-2.98-.78-4.47-1.14.79.63 1.59 1.25 2.39 1.86l.32 1.55c-.74 1.3-1.7 2.46-2.44 3.76.7-2.87.73-5.61-2.05-7.55l.92 6.3c-1.11-2.53-2.05-5.28-4.09-7.24-.16 1.87.09 3.71.18 5.57-.49 1.45-1.99 1.7-3.23 2.15.42-.43 1.25-1.3 1.67-1.73-.84-1.7-1.23-3.56-1.53-5.42-1.51 1.54-2.58 4.85-5.07 2.89 1.56-1.96 2.75-4.34 5.4-4.99-.28-4.7-.11-9.47 1.36-13.98 1.12-3.24 1.64-6.64 1.41-10.06-1.84 1.66-4.37 2.93-4.62 5.69l-1.24 1.48c.56.4 1.13.81 1.68 1.23l.73-3.34c.05 1.33.16 3.97.22 5.3l-2.27-.06 1.26-1.81c-1.78.19-3.58.3-5.35.59l3.76.48-.36 2.89c-.38-.49-1.13-1.48-1.5-1.98-.36.46-1.08 1.37-1.44 1.82-.1-1.9-1.13-2.39-3.1-1.46.18-.59.53-1.78.71-2.37-.92-.38-2.77-1.13-3.69-1.5 1.55-.75 3.19-1.21 4.91-1.37-1.5-.5-2.74-1.42-3.34-2.93 2.12.01 4.15.46 4.24 2.96.6.05 1.8.16 2.39.21l-2.35 2.46c.66 0 1.99-.01 2.65-.02-.33-2.35 1.4-3.89 2.71-5.56-.78.01-2.33.03-3.1.03.2-.25.6-.77.8-1.03 2.72 1.67 4.07-1.96 4.93-3.78l.92 1.3 1.04-2c-.51.12-1.51.35-2.01.47-.14-.57-.41-1.71-.55-2.28-.64.9-1.94 2.72-2.58 3.63.35-1.07 1.05-3.21 1.4-4.27l-2.51.08 1.6-1.56c-.58-.58-1.15-1.17-1.73-1.76-.44 2.52-.79 5.05-.81 7.61-1.5.93-2.94 1.94-4.44 2.86-.48-2.25.49-3.88 2.67-4.58-.19-1.5-.4-3-.66-4.49.8-.68 1.61-1.34 2.43-1.99l-.15-.77c-3.08.81-5.88-1.19-8.74-1.97 2.76-1.61 5.6.5 8.37.89-1.4-1.78-3.59-2.42-5.65-3.07-.52.19-1.57.58-2.09.77-1.17-.2-2.26.11-3.27.7-1.3-.67-2.6-1.33-3.91-1.96l.64 2.36c-.6.5-1.21 1-1.81 1.5-.13 1.41-.78 2.53-1.97 3.36l.64-3.76-2.68-.44-3.05.56c-.66 1.08-1.36 2.14-2.09 3.18-1.17-.2-2.33-.39-3.5-.59 1.09-2.14 2.99-3.19 5.42-3.14-.09-.41-.27-1.24-.37-1.65 1.09.43 2.16.88 3.25 1.31.88-1.45 1.7-3.01 3.22-3.9-2.63-.05-3.66-2.3-4.57-4.34.8-2.35-1.99-2.85-3.19-4.11.95-1.22 2.56-1.15 3.95-1.29-.73-1.09-1.41-2.2-2.07-3.33 1.4.05 2.95-.33 4.21.47.81 1.26 1.32 2.69 2.16 3.94-1.72 0-3.45.04-5.16.13 1.11 1.28 2.9 1.39 4.43.61-.27 2.3-1.48 3.58-3.65 3.84 3.13.51 5.61 2.22 7.26 4.93l-1.04-3c.88.45 2.63 1.37 3.51 1.82-.37-1.84-.78-3.67-1.26-5.49-.16.73-.5 2.19-.66 2.93-3.48 1.69-4.26-3.4-1.96-5.28.7.61 2.12 1.83 2.83 2.44.09-.6.28-1.8.37-2.41-1-.24-3.01-.74-4.01-.99 1.88-1.42 4.13-1.8 6.4-1.43l.06-.53c-2.57.24-4.69-1.26-6.68-2.65 2.5-1.63 5.34-1.06 7.88.11-1.4-2.49-2.87-4.96-3.55-7.77-2.22.15-3.98-.99-5.07-2.86 2.53-.42 4.25 1.43 6.03 2.88.32-.79.98-2.38 1.3-3.17-.63.3-1.89.92-2.52 1.23-.5-1.57-1.1-3.49.87-4.24.39.74 1.17 2.23 1.56 2.97.91-.39 2.71-1.18 3.61-1.57.37 2.52-.41 5.02-3.46 4.6-.59 2.95 1.26 5.45 1.93 8.19-.68 1.17-1.24 2.38-1.69 3.64.59-.84 1.77-2.53 2.36-3.38 1.17 1.46 3.1 1.65 4.7 2.43l.57-.25c-2.34-.99-4.79-2.4-5.8-4.87 2.35.42 4.16 2.05 6.3 2.98-.43-1.1-.88-2.2-1.34-3.3-1.94-.7-4.02-1.17-5.58-2.61l2.53-.52c-.28-1.69-.62-3.45.54-4.92.73.93 1.48 1.83 2.27 2.7 1.86.67 1.28 2.64 1.48 4.15 1.15.84 1.8 2.1 1.79 3.52.77-2.2 3.45-.64 4.99-1.86-3.3.84-8.18-2.17-5.38-5.71l3.28 1.28c-1.66-1.56-2.27-3.44-1.85-5.64-.25.47-.75 1.4-.99 1.87l-1.11-.77c.57-1.01 1.08-2.05 1.64-3.06-1.82.4-2.87-1.05-3.96-2.22-3.34 1.65-5.43-1.54-6.99-3.98 1.99-.49 4-1.23 6.08-.86.79 1.12 1.38 2.36 2.02 3.57.25-.51.75-1.52 1.01-2.03 1.22.48 2.45 1.37 2.79 2.73.51-.06 1.53-.16 2.04-.21-.16 3.13-.69 6.22-.78 9.35.74.8 1.48 1.61 2.21 2.42l2.12-.56c-.79.64-2.38 1.93-3.18 2.57l2.94-.14c.24-1.78 1.02-3.38 1.77-4.98-.52.57-1.57 1.73-2.09 2.3-1.49-1.1-1.99-2.72-1.99-4.5.86.58 1.73 1.17 2.6 1.76.81-1.52 1.67-3.11 3.43-3.66 1.81 1.2.4 4.06 1.88 5.66.84-2.78.46-5.68.23-8.51-2.02 2.13-4.58 1.45-6.4-.46.76-.34 2.28-1.03 3.04-1.37.6.41 1.8 1.25 2.4 1.66.18-.86.55-2.57.73-3.42-.29 0-.87.01-1.15.02l-.23 2.22c-1.48-.93-2.56-2.23-3.09-3.89m2.01 14.1c.28.31.28.31 0 0m-7.57.68l-.05.75c.41.05 1.21.14 1.61.18l.03-.77-1.59-.16m5.99 2.82c-.76 1.47-2.08 2.26-3.64 2.59.57.91 1.12 1.83 1.66 2.76l1.05-.34c-.01.31-.01.92-.02 1.22-1.5-.09-2.96.13-4.37.65l4.54-.24c.66.76 1.32 1.53 1.98 2.3 1.18-1.04 2.47-1.93 4.12-1.34-.32-.23-.97-.69-1.29-.92-1.29.05-2.55-.08-3.77-.4-.51-1.53-1.03-3.06-1.58-4.58 2.46-1.33 2.92 2.46 4.29 3.73-.56-2.06-.93-4.31-2.97-5.43m-5.97 6.17c1.15-.56 1.56-3.14.07-3.51-1.11.56-1.44 3.12-.07 3.51m-3.76-1.67c-.53 1.61.03 2.18 1.67 1.69.51-1.62-.04-2.18-1.67-1.69m-10.01 2.77c.15 3.34 3.01-1.58 0 0m6.02 2.02l-3.27-.92.16 1.28c.91.21 2.73.65 3.64.87.42-.76.84-1.5 1.27-2.25l.68 1.83 1.22-.37c-.76-.98-1.53-1.96-2.3-2.93-.47.83-.94 1.66-1.4 2.49m9.12.72c-.75-.12-2.24-.35-2.98-.47-1.54 1.87-3.5 3.76-3.03 6.45l-1.65-.17c3.05 4.1 6.97 7.37 10.84 10.66-.13-4.11-1.06-8.15-1.92-12.15l-1.1 1.9c.1-.52.31-1.57.41-2.09-2.01.93-4.16 1.06-6.33.81 1.82-2.25 4.6-2.13 7.23-2.09.7-1.36.23-2.95.29-4.41l-1.76 1.56m4.3 2.59c.42-.16 1.28-.48 1.71-.63.32-3.16-3.91-1.7-1.71.63m4.75-1.58c.57 0 1.73 0 2.3-.01.48-1.58-2.89-1.59-2.3.01m-24.87.84c.97 2.76 1.64 6.14 5.38 5.85-.68-1.49-1.37-2.97-2-4.49 2.08.12 4.07.72 5.83 1.85-.45-1.35-.92-2.7-1.4-4.03-1.62 1.28-3.38 1.18-5.02.03-.7.2-2.09.59-2.79.79m22.5-.08l.52 2c-1.3 2.08-1.78 4.69.29 6.51 1.14-1.15 2.34-2.24 3.52-3.36-1.12-.72-2.22-1.45-3.32-2.2.88-.09 2.64-.28 3.52-.37.17.61.52 1.85.7 2.46l.91.53c1.81-1.87 1.33-4.93-.38-6.69l.09 2.33c-1.93-.5-3.89-.89-5.85-1.21m12.22 1.67c.51.49.51.49 0 0m-.12 1.92c.07 3.3 3.07-1.46 0 0m-3.58 2.43c-1.67 1.22-3.34 2.43-5.07 3.56.21 1.9.56 3.79 1.08 5.63 2.3-1.14 4.79-1.96 6.8-3.61.18.55.53 1.64.71 2.18 2.16-1.82-3.42-6.04 1.84-3.9-1.04-1.28-1.83-2.7-2.38-4.24-1 .12-1.99.25-2.98.38m5.14 5.86c.85.75 3-.23 2.5-1.41-.91-.86-3.22.05-2.5 1.41z"/>
        <path d="M77.02 26.21c.97-1.83 3.11-1.69 4.86-1.45 1.06 1.75-1.76 2.98-2.31 4.41-1.09-.63-3.11-1.24-2.55-2.96zM85.54 29.22c.95.08 2.85.25 3.8.33-.92.99-1.46 3.28-3.18 2.24-.16-.65-.47-1.93-.62-2.57zM89.3 39.79c.04-1.72.32-3.41.95-5.02.37.84 1.11 2.53 1.48 3.37-.91.99-1.82 1.98-2.75 2.95-.75 1.21-1.67 1.47-2.74.77l.12-2.36c.74.07 2.2.22 2.94.29zM70.94 38.74c-1.29-3.58 4.09-2.75 5.95-1.78 1.1 1.68.94 3.9 1.31 5.81-1.64-1.24-2.89-2.89-4.1-4.53-1.06.14-2.09.61-3.16.5zM78.05 37.6l1.49-1.01c1.37.39 2.04 1.2 2 2.46-1.17 1.13-3.25 0-3.49-1.45zM86 36.98c.35.01 1.06.04 1.41.05l-.24.92-.97.31-.2-1.28zM91.37 54.5c-1.11-1.92.04-3.58 1.09-5.13 1.46 1.83 2.18 5.21-1.09 5.13zM94.52 54.51c-.59-1.54 1.32-3.69 2.9-2.98.7 1.55-1.32 3.64-2.9 2.98zM25 53.09c1.96-.81 3.67.62 5.29 1.51-1.75.6-5.64 1.66-5.29-1.51zM69.38 60.49c1.9-2.35 3.04-5.56 5.39-7.38.21.54.62 1.62.83 2.16.04.93.08 1.87.09 2.8-1.54.43-3.11.75-4.7.95l.3 1.13-1.91.34zM41.47 57.04c-1.42-3 4.39-2.77 2.33.08l-2.33-.08zM37.38 59.92c1.4-.58 4.19-3.36 5.37-.88-.28 1.26-.21 2.5-.08 3.76-.81.83-1.83 1.41-2.69 2.18.86 1.6 1.97 3.13 1.22 5.03-.54-.42-1.62-1.27-2.16-1.69-.78 2.02-2.33 1.77-2.55-.33-3.73-.63.72-2.84 1.97-2.7-.41.85-1.22 2.54-1.62 3.39 2.11-1.18 2.43-3.79 2.88-5.93.82-.61 1.61-1.24 2.42-1.87l-4.76-.96zM46.94 61.61c.8-1.75 2.54-5.42 4.91-3.47.6 2.63-2.59 2.95-4.15 4.16 1.5-.06 2.93-.51 4.36-.93.81 2.7-1.66 3.98-3.74 4.85l-.28-2.85c-1.22 1.18-2.39 2.39-3.59 3.57-2.82-1.55-.25-6.78 2.49-5.33z"/>
        <path d="M32.82 59.2c1.16.56 2.18 1.29 3.06 2.22 1.28.25 2.47.72 3.57 1.41-1.09 1.41-2.45 1.92-4.08 1.53-1.12.97-2.46 1.58-3.88 1.98.43-.69 1.31-2.06 1.74-2.75l-3.01-.92c.85-.29 2.55-.86 3.4-1.15l-.8-2.32zM70.91 64.29c2.56-2.06 5.69-1.51 8.44-.18-2.49 2.25-5.87 2.36-8.44.18zM82.78 64.05c.37-.51.75-1.01 1.14-1.5 2.33 1.55 3.31 3.91 2.73 6.65-1.89-1.21-3.04-3.12-3.87-5.15zM92.45 69.74c-1.84-1.49-3.35-3.29-1.76-5.67 1 .7 1.98 1.43 2.94 2.18-.29.87-.88 2.62-1.18 3.49zM93.75 64.6c1.1-.9 3.38.34 2.75 1.78-1.07.89-3.32-.37-2.75-1.78z"/>
    </g>
    <path fill="#f4f4f4" opacity=".96" d="M47.98 22.83c2.24.04 4.24.93 6.13 2.05-2.25 2.54-5.61 1.16-6.13-2.05z"/>
    <path fill="#3c3c3c" opacity=".24" d="M64.49 31.24c.28.31.28.31 0 0z"/>
    <path fill="#e6e6e6" opacity=".9" d="M83.12 37.69c.62-2.15 3.29.61 1.31 1.37-.33-.34-.99-1.03-1.31-1.37z"/>
    <path fill="#acacac" opacity=".67" d="M53.18 39.24c1.63-.49 2.18.07 1.67 1.69-1.64.49-2.2-.08-1.67-1.69z"/>
    <path fill="gray" opacity=".51" d="M43.17 42.01c3.01-1.58.15 3.34 0 0z"/>
    <path fill="#f8f8f8" opacity=".97" d="M54.98 45.36c.81-.88 3.85-.36 2.56 1.17-.81 1.06-3.87.35-2.56-1.17z"/>
    <path fill="#232323" opacity=".14" d="M67.36 45.76c-.59-1.6 2.78-1.59 2.3-.01-.57.01-1.73.01-2.3.01z"/>
    <path fill="#d2d2d2" opacity=".82" d="M77.21 48.19c.51.49.51.49 0 0z"/>
    <g fill="#fbfbfb">
        <path d="M28.63 49.25c1.83.99 4.99 1.63 3.42 4.47-.88-.03-2.65-.1-3.53-.14.03-1.08.08-3.24.11-4.33zM43.88 57.8c.83-.42 2.49-1.27 3.32-1.69.12.83.35 2.47.47 3.3-1.52 1.75-4.95 1.13-3.79-1.61z"/>
    </g>
    <path fill="#838383" opacity=".51" d="M77.09 50.11c3.07-1.46.07 3.3 0 0z"/>
    <path fill="#595959" opacity=".35" d="M84.35 70.26c.5.57.5.57 0 0z"/>
    <path fill="#b8b8b8" opacity=".72" d="M60.98 92.6c2.04 1.96 2.98 4.71 4.09 7.24-1.32 1.27-1.89 2.93-1.7 4.77-1.44 1.34-2.51-.86-1.68-2.04 1.63-3.26.28-6.75-.71-9.97z"/>
</svg>
