<svg width="128pt" height="128pt" viewBox="0 0 128 128" xmlns="http://www.w3.org/2000/svg">
    <g fill="#3c3c3c">
        <path opacity=".24" d="M58.23 76.1c-1.73-1.49-.4-3.82 1.57-4.11.29 1.75.21 3.52-.24 5.24l-.92-.65c-.1-.12-.31-.36-.41-.48zM71.29 76.26c1.65.38 4-.15 4.65 1.87 1.2 1.71.45 3.86.3 5.74-1.27 1.29-2.43 2.67-3.65 4.01-1.02-.5-2.09-.88-3.2-1.14.49-1.99.89-4.01 1.58-5.95l-.44 4.19c.43.41.86.82 1.3 1.22.83-1.04 1.74-2.01 2.72-2.92-.12-2.03.82-6.07-2.58-4.67-.22.35-.66 1.04-.88 1.38.07-1.24.14-2.49.2-3.73zM50.93 117.93c-2.68-1.42-3.54-4.96-1.1-7.06.21 1.3.43 2.6.66 3.89 1.71.08 3.21-.7 4.59-1.63.52.02 1.55.06 2.07.07.27 1.56.5 3.16 1.28 4.56 2.76-.17 1.29-4.04 3.54-4.49.43 2.56-.95 4.88-1.66 7.26-1.26-.04-2.52-.07-3.77-.09-1.17-2.17-.72-4.6-.53-6.93-1.88 1.25-3.47 2.86-5.08 4.42z"/>
    </g>
    <g fill="#f3f3f3">
        <path opacity=".95" d="M58.23 76.1c.1.12.31.36.41.48-.12 1.61-.12 3.41-1.25 4.7-1.52-1.76.26-3.49.84-5.18zM42.23 91.47c2.48-1.14 5.07-.53 7.46.5 2.16-.03 2 1.72 1.77 3.24-2.35-.22-4.7-.35-7.05-.38-.45-.11-1.34-.33-1.78-.44-.13-.97-.27-1.95-.4-2.92z"/>
    </g>
    <path fill="#a0a0a0" opacity=".63" d="M49.36 79.44c1.81-.15 3.62-.12 5.42.05l-.2.14c-1.08.78-2.17 1.55-3.26 2.33.56 1.06 1.13 2.12 1.71 3.17-2.65-.69-3.8-3.1-3.67-5.69z"/>
    <path fill="#f3f3f3" opacity=".96" d="M71.97 78.61c3.4-1.4 2.46 2.64 2.58 4.67-.98.91-1.89 1.88-2.72 2.92-.44-.4-.87-.81-1.3-1.22l.44-4.19.12-.8c.22-.34.66-1.03.88-1.38z"/>
    <g fill="#fefefe">
        <path d="M51.32 81.96c1.09-.78 2.18-1.55 3.26-2.33.72 1.99 2.6 4.06 2.16 6.19-1.04 2.31-2.83.46-3.71-.69-.58-1.05-1.15-2.11-1.71-3.17zM76.24 83.87c1.72-.62 3.58-.17 5.36-.21.03.22.07.65.1.87l-1.57-.31c.14.72.41 2.18.54 2.91-.63-1.1-1.14-2.25-1.61-3.43l-.71.33c1.85 1.76 1.82 4.97-1.36 4.86-1.52 1.4-4.22 2.37-5.07-.26l.67-.75c1.22-1.34 2.38-2.72 3.65-4.01zM53.12 94.17c.33-2.97 2.14-5.34 4.41-7.16-.05 1.14-.09 2.29-.14 3.44-1.71.92-2.61 2.75-4.27 3.72zM45.51 100.32c-.4-3.67 4.43-3.24 6.34-1.48l.74.8c-.59.22-1.78.66-2.37.87-1.57-.03-3.14-.1-4.71-.19z"/>
    </g>
    <path fill="#767676" opacity=".46" d="M43.2 83.21c2.33-1.12 5.15-.47 6.94 1.34-.93-.04-2.78-.13-3.71-.17.01 1.45.02 2.91.04 4.36-.25-.11-.74-.34-.98-.46-2.42-.62-2.1-3.16-2.29-5.07z"/>
    <path fill="#fdfdfd" d="M46.43 84.38c.93.04 2.78.13 3.71.17 1.04 1.46 2.31 2.73 3.64 3.93-.29.54-.86 1.61-1.15 2.15-2.14-.32-4.19-1.03-6.16-1.89-.02-1.45-.03-2.91-.04-4.36z"/>
    <path fill="#3e3e3e" opacity=".24" d="M45.49 88.28c.24.12.73.35.98.46 1.97.86 4.02 1.57 6.16 1.89l.42.45-3.27-.32-.09 1.21c-2.39-1.03-4.98-1.64-7.46-.5.13.97.27 1.95.4 2.92.44.11 1.33.33 1.78.44 1.17.32 2.35.6 3.55.83l-.57 1.29c-1.72.4-3.44.82-5.15 1.25.09 1.44.18 2.88.24 4.33-.34-.13-1.02-.39-1.37-.51-.46-.13-1.38-.37-1.84-.5.45-1.34.88-2.67 1.31-4.01l2.63-.68c-1.97-1.46-4.33-2.66-4.01-5.56 1.69-1.88 4.36-1.66 6.29-2.99z"/>
    <path fill="#646464" opacity=".39" d="M79.42 88.54c2.21.85 4.58 1.03 6.91 1.24.14 1.22.27 2.43.4 3.65-1.28.56-2.62.84-4.03.84 0-.81 0-2.41-.01-3.21-.55-.14-1.66-.4-2.22-.54-.59.04-1.78.11-2.38.15.45-.71.89-1.42 1.33-2.13z"/>
    <g fill="#fcfcfc">
        <path d="M69.05 89.12c3.11.18 3.67 4.09 3.77 6.58l-.34.04c.17-1.8-1.13-3.09-2.27-4.29-1.27.3-2.33 1.01-2.94 2.18.06-.51.18-1.52.25-2.03.52-.1 1.56-.29 2.09-.38l-.56-2.1zM47.44 103.55c2.27-.12 5.6-3.98 6.79-.35-1.27 2.04-3.36 3.4-5.02 5.12-.77 0-2.31-.01-3.09-.02.14-.85.4-2.55.53-3.4l.79-1.35z"/>
    </g>
    <g fill="silver">
        <path opacity=".75" d="M74.05 92.14c.99-.37 1.98-.75 2.97-1.14-1.42.94-3.18 2.01-2.07 3.96 1.75.03 4 .56 5.26-1.04.07-.85.2-2.55.26-3.4.56.14 1.67.4 2.22.54.01.8.01 2.4.01 3.21-1.08.76-2.07 1.65-3.03 2.55l-.31.01c-.07-.34-.22-1.02-.29-1.35-1.55-.13-3.11-.17-4.66-.13-.13-1.07-.25-2.14-.36-3.21zM67.92 110.41l.19-.74c.2.73.61 2.18.81 2.9.08 2.06-.24 4.16-1.83 5.65-1.14-1.75-4.82-3.46-2.35-5.89 1.63 3.53 3-.29 3.18-1.92z"/>
    </g>
    <g fill="#fff">
        <path d="M77.02 91l1.07-.33c.6-.04 1.79-.11 2.38-.15-.06.85-.19 2.55-.26 3.4-1.26 1.6-3.51 1.07-5.26 1.04-1.11-1.95.65-3.02 2.07-3.96zM52.91 97.31c2.06.47 3.48-.89 4.54-2.43.45 1.78.79 3.59.58 5.43 1.47.18 2.78-.34 4.01-1.07-.68 2.07-1.39 4.28-.26 6.36-.61.46-1.22.91-1.84 1.36l2.03.22c.32 1.28-1.33 4.66.9 4.63.97-1.37.77-3.18.92-4.76l2.49-.07c-.97-.59-1.95-1.16-2.96-1.67.6-.89.85-1.88.74-2.96 1.34-1.88 1.28-4.12 1.34-6.33.66 1.67-.3 3.95 1.57 4.97 1.46-1.69 1.83-3.88 1.82-6.06 1.16 1.46 2.02 3.31 3.93 3.96-1.52 3.16-4.28 5.6-7.78 6.29.69.39 1.38.79 2.06 1.19l-.95.08c.72 1.28 1.34 2.6 1.87 3.96-.18 1.63-1.55 5.45-3.18 1.92-.53.68-.93 1.44-1.33 2.2-.36-.31-1.08-.95-1.44-1.26-2.25.45-.78 4.32-3.54 4.49-.78-1.4-1.01-3-1.28-4.56 1.21-2.7 1.45-6.07 3.71-8.15-4.13-.41-6.8-4.06-7.95-7.74zM74.22 97.28c1.72-.11 3.43-.29 5.14-.45l.31-.01c.54.11 1.62.31 2.17.42-.2 1.43-.39 2.86-.59 4.3-.81-.05-2.43-.14-3.23-.19-1.28-.59-2.56-1.19-3.87-1.71.02-.59.06-1.77.07-2.36zM71.28 103.29c1.52-3.37 4.53-.67 7.01-.34.52 1.09 1.05 2.18 1.57 3.28-1.08.83-2.16 1.65-3.24 2.49-1.75-1.84-3.61-3.57-5.34-5.43z"/>
        <path d="M50.24 110.24c1.55-2.08 3.47-3.87 5.49-5.49.55.29 1.64.85 2.19 1.13-.49 1.32-.99 2.64-1.46 3.97-1.09.85-2.17 1.7-3.26 2.54-.98-.72-1.97-1.44-2.96-2.15z"/>
    </g>
    <path fill="#7b7b7b" opacity=".48" d="M44.41 94.83c2.35.03 4.7.16 7.05.38-1.17.17-2.33.32-3.5.45-1.2-.23-2.38-.51-3.55-.83z"/>
    <path fill="#cbcbcb" opacity=".8" d="M42.24 98.2c1.71-.43 3.43-.85 5.15-1.25 1.58.22 5.1-.9 4.46 1.89-1.91-1.76-6.74-2.19-6.34 1.48 1.57.09 3.14.16 4.71.19-2.18 1.8-5.01 2.15-7.74 2.02-.06-1.45-.15-2.89-.24-4.33z"/>
    <path fill="#7b7b7b" opacity=".49" d="M81.84 97.24c2.48.42 4.7 2.63 3.67 5.29-2.55.1-5.24.24-7.49-1.18.8.05 2.42.14 3.23.19.2-1.44.39-2.87.59-4.3z"/>
    <g fill="#818181">
        <path opacity=".51" d="M41.11 102.02c.35.12 1.03.38 1.37.51l.62.73c1.25.12 2.5.22 3.76.28l-.21 1.36c-.13.85-.39 2.55-.53 3.4.78.01 2.32.02 3.09.02-1.29 1.37-3.38 2.94-5.28 1.8-1.38-2.02.04-4.29 1.14-6.04-1.47-.39-2.8-1.09-3.96-2.06zM78.29 102.95c1.54.77 2.78 2.02 4.28 2.86.04 1.27.07 2.54.09 3.81-2.05-.04-4.14-.04-6.04-.9 1.08-.84 2.16-1.66 3.24-2.49-.52-1.1-1.05-2.19-1.57-3.28z"/>
    </g>
    <path fill="#f8f8f8" opacity=".97" d="M69.8 110.18c-.7-1.58-2.95-4.78.07-5.24 2.07 1.73 4.88 3.28 5.48 6.14-.16.67-.48 2.01-.64 2.69-.99-.15-1.98-.3-2.97-.44-.66-1.04-1.33-2.08-1.94-3.15z"/>
    <path fill="#b2b2b2" opacity=".7" d="M49.67 109.84l.57.4c.99.71 1.98 1.43 2.96 2.15 1.09-.84 2.17-1.69 3.26-2.54-.17.71-.49 2.12-.66 2.83l-.72.45c-1.38.93-2.88 1.71-4.59 1.63-.23-1.29-.45-2.59-.66-3.89l-.16-1.03z"/>
    <path fill="#484848" opacity=".28" d="M68.92 112.57l.88-2.39c.61 1.07 1.28 2.11 1.94 3.15.99.14 1.98.29 2.97.44.16-.68.48-2.02.64-2.69 2.04 1.38 2.78 4.26.9 6.1-2.6-.51-4.47-2.37-6.33-4.12-.26 2.18-.31 4.4-.72 6.57-.46 1.06-1.83.66-2.75.88-1.35-1.77-3.16-3.57-3.04-5.98.4-.76.8-1.52 1.33-2.2-2.47 2.43 1.21 4.14 2.35 5.89 1.59-1.49 1.91-3.59 1.83-5.65z"/>
</svg>
