<svg width="128pt" height="128pt" viewBox="0 0 128 128" xmlns="http://www.w3.org/2000/svg">
    <g fill="#9f2021">
        <path d="M85.62 18.84c1.35-2.82 4.78-3.93 5.85-6.95l-.06 2.49c-1.27 1.74-3.44 3.3-2.94 5.73.81.28 1.63.54 2.45.77 1.86-4.86 7.41-5.3 11.85-5.76-2.06 2.07-4.93 3.05-7 5.08-1.26 3.33 2.59 5.25 4.4 7.39 2.86 3.93 1.46 8.83 1.35 13.28 1.76-.41 3.28-1.31 4.45-2.7-.54-.54-1.61-1.62-2.15-2.17 3.04-.36 3.78 2.63 3.57 5-3.86 2.25-.34 7.44-3.65 10.36-.51-1.46-1.02-2.91-1.52-4.36-5.58 3.26-6.54 12.17-1.72 16.46 2.81 2.3 6.69.97 9.17-1.15-.01 3.25-3.33 4.01-5.61 5.25.16 3.8 3.52 6.59 3.43 10.43-.03 4.41-2.95 9.07-7.45 10.03-3.2.82-6.21-1.01-9.16-1.99-.29 1.44-.58 2.87-.86 4.3 2 2.24 5.02 1.3 7.61 1.11-1.4 3.54-3.12 6.98-3.88 10.73-.77 3.85-2.95 7.28-3.31 11.23-1.89.75-3.78 1.5-5.67 2.27-.62 1.18-1.24 2.36-1.84 3.56-2.35.33-4.72.08-6.8-1.15 2.12-3 4.87-5.52 8.42-6.67 3.29-2.7 3.21-7.49 4.01-11.32-2.82.39-5.6.94-8.4 1.42.02 1.55.22 3.1.86 4.53-1.41.77-2.22 2.07-2.71 3.56-1.7-.62-3.84-1.21-4.32-3.23-.18-.4-.54-1.21-.72-1.61-1.4-1.49-3.97-3.3-2.09-5.49.64.39 1.92 1.16 2.56 1.54.3-3.16-.85-6.13-1.45-9.17-.7-3.88 2.86-7.44 1.49-11.3-2.1-2.62-5.69-3.12-8.56-4.55-2.73-1.23-5.54-2.3-8.35-3.35-.08.51-.26 1.53-.35 2.04l-.31 1.83c-.49-1.41-1.03-2.81-1.6-4.2-2.36.09-3.23 3.03-4.92 4.2.25-1.06.74-3.18.99-4.23-.4-2.73-3.5-3.75-5.36-5.37-3.19.13-6.38-.3-9.56-.07-3.66 1.9-5.47 5.9-6.69 9.64-.91.5-1.82 1-2.74 1.5.02.41.05 1.21.07 1.61.74.87 1.48 1.74 2.21 2.61-1.21 2.44-2.96 5.22-6.11 4.72.06-3.28.17-6.55.02-9.82 1.48-2.88 2.72-5.99 5.07-8.3 2.56-2.28 2.84-6.28 6.03-7.95 3.16 1.11 6.41-.35 9.38-1.38 1.57-3.46 2.6-7.16 4.62-10.42.99-.98 1.96-1.97 2.98-2.92l.5-.46.46-.43c1.18-.96 2.34-1.94 3.48-2.94.44-.31 1.31-.93 1.74-1.24 2.48-2.55 6.12-5.49 4.67-9.52-.41.31-1.24.93-1.65 1.25l1.38.7c-1.31 2.86-3.32 5.33-6.19 6.74-1.53 1.15-3 2.38-4.43 3.66-.55.3-1.63.91-2.17 1.21-.25-.73-.74-2.2-.99-2.93-.45.94-1.36 2.83-1.81 3.77l-1.56-.33c-1.02-1.38-2.52-3.2-1.41-4.96 1.38-3.21 2.17-6.62 2.99-10.01-5.87-2.77-12.19-4.34-18.3-6.46-3.4-1.24-6.77-2.58-9.85-4.51 7.8-.4 15.28 2.14 22.72 4.09.27-1.79.55-3.58 1.3-5.23.79 1.47 1.31 4.03 3.51 3.7 1.41.2 1.73-1.61 2.59-2.36.59-.16 1.78-.46 2.38-.61 1.16-1.23 2.23-2.53 3.45-3.7-.06.85-.2 2.56-.27 3.41 1.08-1.12 2.09-2.5 3.68-2.92.89-.26 2.67-.79 3.55-1.06-.99 1.59-1.97 3.19-2.96 4.79 1.32-1.04 2.64-2.08 3.96-3.13 1.05-.34 2.1-.69 3.14-1.06.84-1.3 1.77-2.54 2.73-3.76-.2 3.23-2.02 5.94-3.6 8.64.94-.99 2.84-2.97 3.79-3.96l-.36 3.34c.69.01 2.07.04 2.76.05-.04-1.13-.13-3.39-.17-4.53 1.59 1.95 2.96 4.06 4.05 6.32.25-2.54-.68-5.55 1.17-7.67.55 2.03 1.25 4.01 1.96 5.99.55 1.62 1.01 3.28 1.68 4.87 2.93.06 2.3-4.08 3.23-5.87.47 3.6.74 7.53-2.05 10.31 1.16 2.68 1.91 6.08 5.21 6.85 1.18.34.17 1.63.11 2.39-2.88-.94-5.74-1.93-8.62-2.88 2.07 1.78 4.4 3.19 6.86 4.38-1.63.33-3.25.68-4.86 1.06 2.2 1.6 4.54.3 6.54-.94.74-.13 2.2-.38 2.93-.51-1.41 1.34-2.83 2.66-4.14 4.1 2.26-.24 4.74-1.12 6.74.43-2.25.16-3.82 1.76-5.66 2.85-2.57.2-4.79-1.62-7.34-1.78 4.04 3.24 9.37 3.07 13.95 1.14-1.85 2.71-4.68 4.46-8.02 4.32-.4 1.24-.86 2.47-1.16 3.74.72.17 2.18.51 2.9.68l-2.42 2.42-.62-1.08c-.71-1.46-1.85-2.64-3.22-3.5.28 1.64.73 3.29 1.61 4.73-1.11.82-2.23 1.62-3.35 2.43.92 1.59 2 3.13 2.6 4.89.23 1.04.83 1.8 1.8 2.27 1.74 1.33 3.13 3.08 4.33 4.9.43.95 1.09 1.68 2 2.19 3.13 2.89 4.85 7.41 9.07 9.02 3.44.82 6.24-3.11 5.75-6.28-.28-6.75-8-9.85-9.27-16.26-1.68-5.37.34-10.87 2.51-15.78 1.69-4 3.43-8.79 1.12-12.91-1.21-2.24-4.43-5.1-6.64-2.31-.59 2.39 1.82 4.05 2.74 5.97-3.28-.82-7.74-5.22-4.92-8.55 2.46.89 2.52-2.99.02-2.01-1.65-1.63-2.68-3.92-2.63-6.25M50.71 29.19c-.46 1.61-.91 3.22-1.24 4.86 1.1-1.09 2.19-2.21 3-3.55-.55-.48-1.16-.88-1.76-1.31z"/>
        <path d="M44.95 78.71c1.79-.47 3.63-.77 5.21.42-.82.35-2.45 1.04-3.26 1.39.65.76 1.3 1.53 1.96 2.3 1.88-1.15 3.62-2.5 5.39-3.82 6.03-2.53 12.29.07 18.1 1.86-.18 2.74-.77 5.41-1.42 8.07-.47 1.8-.34 3.67-.37 5.51-3.15.25-6.84-.74-9.3 1.82-.12 2.73-.01 5.48.7 8.14-7.41-1.59-14.88-3.06-22.51-2.86-2.13 1.1-3.79 3.71-6.49 3.05-2.04-.94-2.77-3.22-3.85-5 3.26-1.27 6.96-.79 10.11-2.35 3.67-2.14 7.97-.37 11.86.02.75-.23 2.24-.67 2.99-.9-1-1.41-2.18-2.74-2.84-4.35-.11-2.04.1-4.08.12-6.13-.39.37-1.17 1.1-1.55 1.46-.11 1.46-.14 2.92-.08 4.38-.45-.55-1.33-1.66-1.78-2.21-.65-1.04-.68-2.34-1.02-3.49-1.52.08-2.83.7-3.75 1.95-1.13-1.91-.11-3.71 1.33-5.06-.25-.49-.74-1.46-.99-1.95.36-.56 1.08-1.69 1.44-2.25z"/>
    </g>
    <path fill="#390b0c" opacity=".65" d="M56.82 15.85c1.73-.9 3.46-1.79 5.2-2.68-.21.65-.62 1.95-.83 2.6.83-.1 2.49-.29 3.32-.38-1.04.37-2.09.72-3.14 1.06-1.32 1.05-2.64 2.09-3.96 3.13.99-1.6 1.97-3.2 2.96-4.79-.88.27-2.66.8-3.55 1.06z"/>
    <path fill="#260708" opacity=".49" d="M40.62 17.53c1.09-.27 2.18-.53 3.27-.77-.28 1.32-.56 2.65-.83 3.98.65.05 1.97.17 2.63.23.27-.66.82-1.98 1.09-2.63.79.18 2.38.54 3.18.72-.6.15-1.79.45-2.38.61-.86.75-1.18 2.56-2.59 2.36-2.2.33-2.72-2.23-3.51-3.7-.75 1.65-1.03 3.44-1.3 5.23-7.44-1.95-14.92-4.49-22.72-4.09 3.08 1.93 6.45 3.27 9.85 4.51-3.51-.53-7.03-1.46-10.07-3.34-.1-.42-.29-1.25-.38-1.67 7.64-1.27 15.08 1.85 22.47 3.39l1.29-4.83z"/>
    <path fill="#290808" opacity=".53" d="M79.99 17.13c3.64 2.04 3.6 6.89 1.87 10.21-1.49 2.55.16 5.19 1.17 7.56 1.93-.36 3.85-.73 5.78-1.07-1.15 2.13-2.16 4.39-3.87 6.15-2 1.24-4.34 2.54-6.54.94 1.61-.38 3.23-.73 4.86-1.06-2.46-1.19-4.79-2.6-6.86-4.38 2.88.95 5.74 1.94 8.62 2.88.06-.76 1.07-2.05-.11-2.39-3.3-.77-4.05-4.17-5.21-6.85 2.79-2.78 2.52-6.71 2.05-10.31-.93 1.79-.3 5.93-3.23 5.87-.67-1.59-1.13-3.25-1.68-4.87.8 1.44 1.54 2.91 2.3 4.38 1.11-2.21.83-4.69.85-7.06z"/>
    <path fill="#2f0a0b" opacity=".6" d="M88.25 25.09c2.5-.98 2.44 2.9-.02 2.01.01-.5.02-1.51.02-2.01z"/>
    <path fill="#9c2021" d="M16.13 27.07c7.16 2.69 14.69 5.1 20.7 10.01.49.92 1.19 1.62 2.12 2.11 1.52 1.62 2.06 3.87 3.13 5.77 1.11 1.38 2.38 2.61 3.65 3.85-1.1 2.9-2.11 5.83-2.88 8.84-.43-.07-1.3-.22-1.74-.29-.57-1.4-1.03-2.83-1.62-4.22-1.15.33-2.22.85-3.2 1.57.5-1.82 1.05-3.62 1.56-5.44-.69.1-2.06.3-2.75.39 1.47 4.22-4.62 3.89-7.33 3.61 1.94-1.51 4.38-1.91 6.72-2.39-.65-2.17 1.52-3.88 1.06-6.01-.64-2.85-3.38-4.26-5.38-6.04-.46-.27-1.38-.8-1.84-1.06-2.16-.68-4.16-1.98-5.05-4.14-1.58.2-3.6 1.53-4.97.14-2.25-1.49-2.1-4.34-2.18-6.7z"/>
    <path fill="#160405" opacity=".38" d="M100.17 27.59c2.85 1.48 2.49 4.83 2.77 7.55.22.21.66.65.88.86.54.55 1.61 1.63 2.15 2.17-1.17 1.39-2.69 2.29-4.45 2.7.11-4.45 1.51-9.35-1.35-13.28z"/>
    <path fill="#3a0c0c" opacity=".7" d="M59.8 32.59c.41-.32 1.24-.94 1.65-1.25 1.45 4.03-2.19 6.97-4.67 9.52-.43.31-1.3.93-1.74 1.24-1.14 1-2.3 1.98-3.48 2.94l-.46.43-.5.46c-.55-.26-1.66-.77-2.21-1.03.54-.3 1.62-.91 2.17-1.21 1.43-1.28 2.9-2.51 4.43-3.66 2.87-1.41 4.88-3.88 6.19-6.74l-1.38-.7z"/>
    <path fill="#130404" opacity=".43" d="M36.83 37.08c1.79-.39 2.49.31 2.12 2.11-.93-.49-1.63-1.19-2.12-2.11z"/>
    <path fill="#150403" opacity=".45" d="M28.33 37.77c.46.26 1.38.79 1.84 1.06l-.85.41-.94-.55-.05-.92z"/>
    <path fill="#340a0b" opacity=".65" d="M78.88 52.79c1.37.86 2.51 2.04 3.22 3.5-.4.31-1.21.92-1.61 1.23-.88-1.44-1.33-3.09-1.61-4.73z"/>
    <path fill="#270807" opacity=".51" d="M109.52 55.15c1.61-2.14 2.81 3.53.52 3.36-.19-1.12-.36-2.24-.52-3.36z"/>
    <path fill="#6b1514" opacity=".84" d="M109.52 55.15c.16 1.12.33 2.24.52 3.36-.32 2.98-2.84 5.73-6.06 4.98 2.58-2.26 4.14-5.28 5.54-8.34z"/>
    <path fill="#520f12" opacity=".76" d="M79.74 64.84c1.68-.22 2.28.54 1.8 2.27-.97-.47-1.57-1.23-1.8-2.27z"/>
    <path fill="#140303" opacity=".39" d="M85.87 72.01c1.8-.31 2.46.42 2 2.19-.91-.51-1.57-1.24-2-2.19z"/>
    <path fill="#190505" opacity=".45" d="M56.87 72.44c2.81 1.05 5.62 2.12 8.35 3.35 2.87 1.43 6.46 1.93 8.56 4.55 1.37 3.86-2.19 7.42-1.49 11.3.6 3.04 1.75 6.01 1.45 9.17-.64-.38-1.92-1.15-2.56-1.54-1.88 2.19.69 4 2.09 5.49.18.4.54 1.21.72 1.61-1.55-1.34-3.07-2.72-4.56-4.12-.32-2.59.78-4.6 3.44-5.04-.92-2.67-2.1-5.39-1.94-8.28.65-2.66 1.24-5.33 1.42-8.07-5.81-1.79-12.07-4.39-18.1-1.86 3.09-3.24 8.03-1.56 11.87-1.24-2.39-2.68-6.13-3.63-9.6-3.28.09-.51.27-1.53.35-2.04z"/>
    <path fill="#090201" opacity=".36" d="M49.8 87.34l1.36-1.06c0 2.26-.14 4.51-.36 6.76-1.51-.74-3.1-1.53-2.86-3.53.45.55 1.33 1.66 1.78 2.21-.06-1.46-.03-2.92.08-4.38z"/>
</svg>
