<svg width="128pt" height="128pt" viewBox="0 0 128 128" xmlns="http://www.w3.org/2000/svg">
    <path fill="#fff" d="M57.43 19.22c3.22-2.47 7.2-3.89 9.85-7.06-.42 2.95-2.69 5.1-3.49 7.92 1.25-1.09 2.39-2.28 3.53-3.47-.09 1.08-.26 3.25-.34 4.34.25-.39.76-1.17 1.02-1.56.93.7 1.88 1.38 2.82 2.07-.5-2.21-1.04-4.42-1.27-6.68 1.55 2.28 2.9 4.7 4.54 6.93-.08-2.96-.46-5.97.91-8.73.2 4.34 2.35 8.29 4.01 12.22 2.61-1.98 1.56-5.19 1.44-7.91 2.58 3.43 2.82 8.83-.75 11.69 1.49 2.22 1.55 5.63 4.32 6.75 1.38-.27 2.72-.69 4.1-.97-.98 1.1-1.97 2.19-2.97 3.27-2.99-.32-5.84-1.26-8.53-2.58 2.08 1.96 4.63 3.23 7.16 4.47-1.8.34-3.61.68-5.42 1.02 3.07 1.9 5.87-.93 8.67-1.98-.29 2.17-2.7 3-3.43 4.97 1.24-.27 3.74-.79 4.99-1.05l1.77 1.47-2.29-.24c-1.03.95-2.04 1.92-3.16 2.76-2.83.02-5.02-2.44-7.92-2.22 2.3 1.94 5.14 3.05 8 3.88 2.11-.83 4.14-1.85 6.31-2.54-1.33 1.42-2.49 3.2-4.41 3.85-2.13 1.25-4.69-1.11-6.67.62.85-.05 2.57-.13 3.42-.18-.74 1.32-1.32 2.69-1.75 4.12.83.14 2.48.42 3.3.57-.71.66-1.43 1.32-2.19 1.92-1.99-1.27-3.18-3.41-4.93-4.96.75 1.38 1.7 2.64 2.51 3.99.2 2.32-2.31 2.93-3.82 4.01 3.48 6.12 8.41 11.16 12.88 16.54 2.17 2.54 3.94 5.92 7.39 6.88 3.57.97 6.13-3.27 5.86-6.37-.04-4.48-3.71-7.48-6.36-10.63-2.51-2.8-3.59-6.64-3.43-10.34-.47-8.01 7.25-14.69 4.66-22.8-.86-3.07-5.09-6.95-7.67-3.28-.26 2.35 1.78 3.82 3.03 5.5-3.05-.76-5.49-3.34-5.84-6.5.71-1.09 1.52-2.1 2.41-3.06-2.56-1.77-5.15-5.27-3.14-8.37 1.92-2 4.23-3.62 5.83-5.93-.85 2.49-2.53 4.51-4.08 6.57-.47 1.79 1.18 2.68 2.34 3.62 1.03-2.72 3.31-5.12 6.3-5.5 2.18-.32 4.24-1.09 6.12-2.21-1.7 2.89-5.14 3.73-7.29 6.07-1.65 3.42 2.62 5.47 4.34 7.82 3.4 3.38 1.41 8.46 1.42 12.62 1.91.21 3.48-.77 4.19-2.54-.53-.48-1.59-1.45-2.12-1.93 4.31-.86 4.74 5.59 1.35 7.15l.06 3.26 1.17-2.94c.08.28.22.85.29 1.14-.94 2.4-1.63 5.02-3.83 6.61.59-1.45 1.28-3.1-.41-4.15-5.51 2.52-6.4 10.97-2.74 15.45 1.6 2.22 4.59 2.45 7.08 2.02 2.6-.61-1.14-2.13-2.06-2.07 3.99-1.1 3.27-6.01 6.33-8.02-.45 2.28-.95 4.61-2.27 6.57.24.32.72.96.97 1.28.95 3.62-4.17 3.75-6.2 5.53 2.2 4.62 6.03 10.01 2.68 15.09-2.53 6.01-10.51 6.12-15.09 2.46-.39 1.54-.8 3.07-1.22 4.59 1.85 2.86 5.06 2.26 7.86 1.35-1.44 3.47-3.24 6.85-3.89 10.59-.72 3.92-3.18 7.34-3.26 11.41-3.69.57-6.6 2.68-8.16 6.07-2.08-.2-4.14-.6-6.03-1.52 1.34-1.59 2.7-3.2 4.37-4.46 1.84-1.14 4.28-1.54 5.52-3.5 1.89-3.14 2.07-6.93 2.51-10.48-2.58.69-5.17 1.53-7.88 1.28-.42 1.01-.82 2.04-1.21 3.06.68 1 1.34 2.01 1.98 3.03-1.97-.45-3.69-1.49-5.33-2.63-.48 2.18 1.4 3.1 3.06 3.89-2.92 2.19-5.58-1.06-5.79-3.93-3.63-.45-3.85-4.27-1.19-6.33l.17 3.03c1.09-.59 1.97-1.73 1.26-3.02-.56-3-2.06-5.93-1.49-9.05.47-1.98 1.37-3.82 2.05-5.73-.16-.78-.46-2.35-.61-3.14-5.17-3.39-11.26-5.14-16.95-7.55l-.32 3.69c-.76-1.78-1.51-3.57-2.32-5.32-1.33 1.96-2.82 3.8-4.53 5.44.36-.83 1.07-2.48 1.43-3.31-.19-.7-.55-2.1-.74-2.8-1.53-1.18-3.12-2.3-4.65-3.48-3.19.31-6.35-.44-9.53-.19-4.11 1.63-5.75 6.12-7.29 9.9-1.15.6-2.72.94-2.77 2.53.57.91 1.27 1.72 2.09 2.43.02 2.67-2.57 6.13-5.41 4.98-.04-3.06.35-6.13-.05-9.19 1.57-2.88 2.63-6.14 5.13-8.4 2.47-1.95 2.52-5.76 5.23-7.43 3.46.24 6.74-.77 10.02-1.71 2.15-3.82 2.65-8.56 5.9-11.72 3.32-4.65 8.75-7.24 11.98-11.96 1.03-1.35.44-3.08.14-4.56.17 3.08-1.18 5.98-3.85 7.58-3.43 1.93-5.95 5.35-9.86 6.4.76-1.58 1.55-3.14 2.34-4.7-.42.04-1.27.13-1.69.17-.81 1.85-1.65 3.7-2.66 5.46-1.14-1.23-2.22-2.51-3.29-3.8 1.73-3.92 2.93-8.01 3.73-12.22-9.4-4.29-19.87-5.83-29.05-10.6 8.07-1.29 15.87 2.09 23.65 3.74-.32-2.89.34-5.6 3.28-6.7-.96 1.53-2.89 4.76.33 5.06 2.16 1.28 3.77-1.39 2.47-3.12 1.12.51 2.29.91 3.49 1.19 1-1.62 1.89-3.4 3.65-4.33-.45 1.4-.93 2.79-1.45 4.16 2.66-3.28 6.78-4.29 10.28-6.32-1.63 1.99-3.46 3.81-4.95 5.92m-7.02 10.26c-.4 1.5-.78 3.02-1.07 4.55 1.65-.95 2.82-2.45 3.41-4.26-.59-.07-1.76-.22-2.34-.29z"/>
</svg>
