<svg width="128pt" height="128pt" viewBox="0 0 128 128" xmlns="http://www.w3.org/2000/svg">
    <g fill="#fff">
        <path d="M16.16 27.1c4.26 2.3 9.32 2.72 13.2 5.75 2.7 1.04 5.22 2.49 7.45 4.36 4.14 2.87 4.1 9.12 8.89 11.33-1.3 3.02-2.25 6.17-3.43 9.24-1.83-.37-1.84-3.82-3.04-5.25-.98.79-1.96 1.58-2.95 2.35.63-2 1.51-3.94 1.7-6.06-3.76-1.16-1.67 3.42-4.12 3.92-1.96.67-4.07.48-6.1.52 2-1.52 4.54-1.68 6.89-2.24-1.15-2.42 2.23-4.15.91-6.57-1.67-4.19-6.19-6.09-9.88-8.16-1.18-.55-1.8-1.52-1.87-2.91-1.29.31-2.57.67-3.84 1.07-3.18-1-4.03-4.38-3.81-7.35zM44.62 79.61c1.04-1.24 2.76-1.3 4.22-1.62.23.46.69 1.39.92 1.85-.82-.02-2.48-.07-3.31-.1.74 1.16 1.54 2.26 2.42 3.31 2.92-1.75 5.38-4.6 8.91-5.06 4.97-1.04 9.59 1.53 14.31 2.6 1.29 4.74-2.83 8.99-1.54 13.81-3.02.09-6.26-.63-8.97 1.1-1 2.91-.74 5.93.28 8.79-4.35-.67-8.55-2.2-12.96-2.48-3.09-.3-6.25.12-9.26-.78-2.07 1.3-3.88 4.25-6.66 3.33-2.14-.68-2.62-3.15-3.65-4.85 3.31-.96 6.91-.77 10.07-2.21 4.66-2.76 9.97 1.37 14.87-.58-.84-1.69-1.99-3.21-3.16-4.69.07-1.97.48-3.95.26-5.93-3.15.26-1.2 4-1.52 5.87-1.9-1.83-2.26-4.6-3.79-6.59-1.53.48-2.26 1.91-3.11 3.12-.31-1.67-.08-3.31.84-4.75 1.06-1.21-.43-3.11.83-4.14z"/>
    </g>
    <path fill="#656565" opacity=".4" d="M70.57 100.97c-1.71-.28-.04-3.45 1.27-2.56.33 1.2-.09 2.05-1.27 2.56z"/>
</svg>
