<svg width="128pt" height="128pt" viewBox="0 0 128 128" xmlns="http://www.w3.org/2000/svg">
    <g fill="#ad2021">
        <path d="M17.86 15.75c2.25 1.12 4.4 2.43 6.68 3.47-.91.49-1.82.97-2.73 1.47-1.03-.92-1.95-1.95-2.83-3.02l-1.12-1.92zM72.12 15.15c2.87 1.07 5.63 2.53 7.77 4.77-.28 4.46-4.12 7.08-7.69 9-.24-.03-.71-.1-.95-.14-.36-1.14-.67-2.3-.93-3.47-.82.25-1.64.5-2.46.74-2.18.89-4.54.45-6.8.22 1.23-1.55 2.27-3.29 3.85-4.51 2.67-.73 5.53.13 8.16-.61 2.64-1.72 0-4.12-.95-6zM26.15 25.25c1.57-.55 3.14-1.07 4.74-1.51.53.15 1.59.45 2.13.6.58.23 1.74.68 2.32.9-2.15 1.44-4.35 2.8-6.54 4.17-.44-.44-1.31-1.34-1.75-1.78l-.48-.55c-.11-.46-.32-1.38-.42-1.83zM101.47 28.95l.17-.86c2 2.11 4.85 4.55 4.05 7.82-.45 3.2-3.36 4.96-5.73 6.72 2.24 1.16 4.28 3.03 6.9 3.18 1.33-.82 2.5-1.88 3.75-2.82.08 3.02-.11 6.3-2.32 8.61-2.93.41-5.93.5-8.86-.03-.63-1.78-.05-3.07 1.72-3.88l-1.44-1.48-2.59-.56-.64-1.88c-1.29-1.22-2.57-2.47-3.83-3.72 1.18-.74 2.37-1.48 3.55-2.22-2.31-.41-4.61-.82-6.92-1.21-.83-1.01-1.66-2.02-2.49-3.04 4.1-1.32 8 .67 12.02 1.07 2.67-.34 2-3.82 2.66-5.7zM32.83 35.04c3.44-1.52 7.01-2.71 10.68-3.51 1.14 1.2 2.32 2.35 3.51 3.49-2.8 1.02-5.49 2.29-8.21 3.5l-.76.16c-.26.31-.78.94-1.04 1.26l-.56-.08c-1.32-1.52-2.29-3.31-3.62-4.82zM39.26 48.05c2.01-1.74 4.09-3.38 6.14-5.06.02 2.71.06 5.43.16 8.14-2.79 1.63-5.69 3.13-8.11 5.29-4.51 4.12-9.26 9.41-7.98 16.05 2.88-1.33 5.38-3.28 7.78-5.33 3.64-3.29 9.86-1.42 12.05 2.69 2.21 3.82.71 8.31.19 12.36l-.77.21c-4.66.96-9.11 2.83-12.41 6.35-.38-.53-1.13-1.6-1.51-2.13 3.29-3.71 7.48-6.45 10.85-10.05 2.86-3.15-.03-8.78-4.26-8.2-5.21.4-6.76 6.24-10.57 8.85-2.12 1.03-4.57.41-6.81.26-.11-4.26-1.02-8.42-2.59-12.37 3.38-1.67 6.36-4.04 8.47-7.19 2.72-3.64 6.02-6.81 9.37-9.87m-13.98 21.2c-1.29.96-.03 3.78 1.51 2.58 1.28-.96.04-3.79-1.51-2.58zM51.8 45.92c1.47-.49 2.94-.96 4.42-1.42.86 2.27.84 5.28-2.07 5.92-2.5-.13-1.96-2.78-2.35-4.5zM99.51 52.9c1.51.96 3.02 1.95 4.51 2.94l.58.37c1.68 1.09 3.55 1.83 5.42 2.55-.22.42-.65 1.26-.87 1.68-.26.53-.79 1.57-1.06 2.09-1.81.1-3.66.42-5.46.01-1.01-.45-3.33-.79-2.34-2.34l3.38-.16c-1.73-2.16-3.15-4.56-4.16-7.14zM99.22 62.97c5.97.78 5.19 10.07 11.77 9-1.39 1.08-2.77 2.17-4.2 3.18l-.61.28c-1.89-.04-4.07.44-5.66-.88-1.57-1-1.63-3.04-2.28-4.6 1.68.66 3.35 1.35 5.01 2.05-1.69-2.84-3.32-5.76-4.03-9.03z"/>
        <path d="M35.57 81.02c-.56-5.81 5.66-7.95 9.68-10.42 0 1.87-.01 3.74-.04 5.62-.56-.44-1.69-1.31-2.26-1.74-1.55 1.28-3.1 2.57-4.66 3.84.26.34.79 1.04 1.06 1.38-.94 1.28-1.86 2.58-2.77 3.88-.3-.06-.89-.16-1.18-.22-.74 1.13-1.48 2.26-2.23 3.38l.57-4.56c-.22-.28-.64-.84-.85-1.12-.39-.53-1.15-1.58-1.54-2.11.8-.83 1.61-1.65 2.43-2.47.61 1.51 1.22 3.02 1.79 4.54z"/>
        <path d="M37.36 72.32c1.54-.03 1.27 2.44-.12 2.43-1.53.03-1.24-2.42.12-2.43z"/>
    </g>
    <g fill="#020000">
        <path opacity=".25" d="M18.98 17.67c.88 1.07 1.8 2.1 2.83 3.02.91-.5 1.82-.98 2.73-1.47 3.35.7 6.21 2.61 8.48 5.12-.54-.15-1.6-.45-2.13-.6-1.6.44-3.17.96-4.74 1.51.1.45.31 1.37.42 1.83-.68-.55-1.36-1.09-2.03-1.65 2.04-.84 4.08-1.69 6.13-2.54-2.3-.65-5.17-3.85-7.38-1.6-.29.34-.86 1.01-1.14 1.35-2.05-.85-2.59-3.04-3.17-4.97zM79.89 19.92c.09 1.51.2 3.02.31 4.53 2.4-.08 4.94.17 7.16-.95.01-.81.03-2.42.03-3.23.64-.16 1.92-.48 2.56-.65.76 1.22 1.5 2.45 2.22 3.69l-2.45-2.73c-.58 1.25-1.06 2.55-1.69 3.77-4.78 2.02-11.75.03-14.19 5.95 2.79.26 5.58-.03 8.26-.84.81 1.35 1.91 2.47 3.12 3.47 2.28-1.28 4.83-2.22 6.74-4.06.5-1.58.61-3.25.85-4.88 1.11 2.85-.29 5.55-1.6 8.04 2.89.9 5.89 1.34 8.91 1.27l-.33-5.54c.46.09 1.39.25 1.85.33l-.17.86c-.66 1.88.01 5.36-2.66 5.7-4.02-.4-7.92-2.39-12.02-1.07.83 1.02 1.66 2.03 2.49 3.04 2.31.39 4.61.8 6.92 1.21-1.18.74-2.37 1.48-3.55 2.22 1.26 1.25 2.54 2.5 3.83 3.72l.64 1.88 2.59.56 1.44 1.48c-1.77.81-2.35 2.1-1.72 3.88 2.93.53 5.93.44 8.86.03-1.64.63-3.3 1.23-4.96 1.81l.69 2.43c-1.49-.99-3-1.98-4.51-2.94 1.01 2.58 2.43 4.98 4.16 7.14l-3.38.16c-.99 1.55 1.33 1.89 2.34 2.34 1.8.41 3.65.09 5.46-.01-1.27.62-2.54 1.23-3.81 1.84.84 1.93 1.58 3.94 2.79 5.67 1.63.31 3.3.39 4.95.54-1 2.33-2.45 4.42-5.23 4.57 1.43-1.01 2.81-2.1 4.2-3.18-6.58 1.07-5.8-8.22-11.77-9 .71 3.27 2.34 6.19 4.03 9.03-1.66-.7-3.33-1.39-5.01-2.05.65 1.56.71 3.6 2.28 4.6 1.59 1.32 3.77.84 5.66.88-.54.29-1.62.87-2.16 1.15-1.69-.45-3.36-.9-5.04-1.36-.31 2.74.64 6.22-1.83 8.19 1.28-3.73.42-7.7.75-11.55.71-7.38 2.73-15.03.7-22.35-3.83-8.21-11.21-14.67-19.84-17.42-3.23-1.05-6.65-1.51-9.81-2.8l.75-2.64-1.84-.6c.82-.24 1.64-.49 2.46-.74.26 1.17.57 2.33.93 3.47.24.04.71.11.95.14 3.57-1.92 7.41-4.54 7.69-9zM51.39 25.13c4.5 2.68 10.43 5.25 11.33 11.09-4.34-3.03-8.08-6.92-11.33-11.09z"/>
        <path opacity=".25" d="M63.46 27.8c1.27.2 2.54.4 3.8.64 1.48 2.61.99 6.97 4.37 8 6.51 2.56 12.03 7.42 15.61 13.4 1.7 5.47.94 11.63-1.74 16.68-2.86 5.57-6.41 11.1-6.87 17.51-.5 5.44 1.91 10.52 4.37 15.2-.39.48-.78.97-1.17 1.45-1.74-4.78-4.39-9.47-4.23-14.71.25-5.72 2.2-11.3 5.25-16.13 2.25-3.6 4.28-7.52 4.44-11.86.81-6.75-4.04-12.44-8.97-16.37-3.23-2.35-7.09-5.25-11.3-3.78 3.28 2.36 7.31 4.05 9.54 7.6 2.77 4.35 4.61 9.37 4.99 14.53-.34 5.62-3.17 11.49-8.26 14.25-2.79 1.68-6.02 2.34-9.15 3.07-.31.19-.95.56-1.26.75-.24-.56-.72-1.68-.96-2.25-3.4-.06-7.07-.84-10.25.69-.8 1.88-1.4 3.84-2.18 5.72.52-4.05 2.02-8.54-.19-12.36-2.19-4.11-8.41-5.98-12.05-2.69-2.4 2.05-4.9 4-7.78 5.33-1.28-6.64 3.47-11.93 7.98-16.05 2.42-2.16 5.32-3.66 8.11-5.29-.1-2.71-.14-5.43-.16-8.14-2.05 1.68-4.13 3.32-6.14 5.06-.4-1.68-.78-3.35-1.18-5.02.79 1.01 1.59 2.02 2.4 3.02 3.76-2.86 7.64-5.68 10.49-9.52 1.75-.12 3.51-.23 5.27-.34-3.34 1.55-7.04 2.95-9.29 6.05-1.63 2.3-1.31 5.44-.11 7.87 1.45.48 2.97.69 4.46.97.36-2.27-1.01-5.86 1.89-6.91 1.41-1.02 3.34.12 4.25 1.33 1.1 1.41.4 3.27.37 4.88-5.15 1.7-11.1.16-15.67 3.53-6.09 3.93-12.08 9.8-12.53 17.48 4.81-1.47 7.61-7.47 13.13-6.7 5.13.56 8.28 5.23 8.91 10.02 4.8-.5 9.57.28 14.35.48 6.52-.6 12.46-5.72 13.77-12.19 1.57-6.14-.97-12.35-4.14-17.52-1.95-3.47-5.8-4.99-9.13-6.76.5-1.77 1.36-3.52 1.21-5.4-.43-2.41-2.49-4.02-4.25-5.52M51.8 45.92c.39 1.72-.15 4.37 2.35 4.5 2.91-.64 2.93-3.65 2.07-5.92-1.48.46-2.95.93-4.42 1.42z"/>
        <path opacity=".25" d="M21.16 66.96c.07-.46.2-1.39.26-1.85 1.57 3.95 2.48 8.11 2.59 12.37 2.24.15 4.69.77 6.81-.26 3.81-2.61 5.36-8.45 10.57-8.85 4.23-.58 7.12 5.05 4.26 8.2-3.37 3.6-7.56 6.34-10.85 10.05.38.53 1.13 1.6 1.51 2.13 3.3-3.52 7.75-5.39 12.41-6.35-3.74 2.46-8.36 3.48-11.33 7.05-1.85 2.06-3.39-1.31-4.22-2.71.75-1.12 1.49-2.25 2.23-3.38.29.06.88.16 1.18.22.91-1.3 1.83-2.6 2.77-3.88-.27-.34-.8-1.04-1.06-1.38 1.56-1.27 3.11-2.56 4.66-3.84.57.43 1.7 1.3 2.26 1.74.03-1.88.04-3.75.04-5.62-4.02 2.47-10.24 4.61-9.68 10.42-.57-1.52-1.18-3.03-1.79-4.54-.82.82-1.63 1.64-2.43 2.47.39.53 1.15 1.58 1.54 2.11-1.52.35-3.03.7-4.54 1.05-.22-.63-.67-1.89-.89-2.51-1.47-.87-3.31-1.34-4.37-2.75-.78-3.27-1-6.65-1.93-9.89m17.9 3.78c-.9 1.15-.63 1.8.83 1.96.9-1.16.62-1.81-.83-1.96m1.93-.58c-.54 1.6.02 2.15 1.68 1.65.54-1.62-.02-2.17-1.68-1.65m-3.63 2.16c-1.36.01-1.65 2.46-.12 2.43 1.39.01 1.66-2.46.12-2.43m-2.17 2.87c-1.69 2.97 3.38.16 0 0m6.74.79c-.5 1.43-.05 1.87 1.38 1.34.51-1.43.05-1.87-1.38-1.34m-1.55 2.4c.26.26.26.26 0 0m-11.35.84c-.58 1.59-.04 2.15 1.62 1.69.59-1.6.05-2.16-1.62-1.69z"/>
    </g>
    <path fill="#a01e1e" opacity=".97" d="M23.29 21.29c2.21-2.25 5.08.95 7.38 1.6-2.05.85-4.09 1.7-6.13 2.54-.6-.69-1.79-2.09-2.39-2.79.28-.34.85-1.01 1.14-1.35z"/>
    <g fill="#b02321">
        <path d="M47.16 19.93c5.61 2.2 11.14 4.76 16.3 7.87 1.76 1.5 3.82 3.11 4.25 5.52.15 1.88-.71 3.63-1.21 5.4 3.33 1.77 7.18 3.29 9.13 6.76 3.17 5.17 5.71 11.38 4.14 17.52-1.31 6.47-7.25 11.59-13.77 12.19-4.78-.2-9.55-.98-14.35-.48-.63-4.79-3.78-9.46-8.91-10.02-5.52-.77-8.32 5.23-13.13 6.7.45-7.68 6.44-13.55 12.53-17.48 4.57-3.37 10.52-1.83 15.67-3.53.03-1.61.73-3.47-.37-4.88-.91-1.21-2.84-2.35-4.25-1.33-2.9 1.05-1.53 4.64-1.89 6.91-1.49-.28-3.01-.49-4.46-.97-1.2-2.43-1.52-5.57.11-7.87 2.25-3.1 5.95-4.5 9.29-6.05 1.89-.56 2.14-2.91.38-3.83-3.65-3.72-7.73-7.33-9.46-12.43m4.23 5.2c3.25 4.17 6.99 8.06 11.33 11.09-.9-5.84-6.83-8.41-11.33-11.09z"/>
        <path d="M67.26 28.44l1.69.85c3.16 1.29 6.58 1.75 9.81 2.8 8.63 2.75 16.01 9.21 19.84 17.42 2.03 7.32.01 14.97-.7 22.35-.33 3.85.53 7.82-.75 11.55-3.81 6.03-8.12 11.84-14.15 15.82-2.46-4.68-4.87-9.76-4.37-15.2.46-6.41 4.01-11.94 6.87-17.51 2.68-5.05 3.44-11.21 1.74-16.68-3.58-5.98-9.1-10.84-15.61-13.4-3.38-1.03-2.89-5.39-4.37-8z"/>
        <path d="M67.02 37.83c4.21-1.47 8.07 1.43 11.3 3.78 4.93 3.93 9.78 9.62 8.97 16.37-.16 4.34-2.19 8.26-4.44 11.86-3.05 4.83-5 10.41-5.25 16.13-.16 5.24 2.49 9.93 4.23 14.71-8.42 6.44-18.4 11.62-29.3 11.18-1.65-6.01-.74-12.41.98-18.29 2.32-5.57 4.54-11.6 9.37-15.54.31-.19.95-.56 1.26-.75 3.13-.73 6.36-1.39 9.15-3.07 5.09-2.76 7.92-8.63 8.26-14.25-.38-5.16-2.22-10.18-4.99-14.53-2.23-3.55-6.26-5.24-9.54-7.6z"/>
    </g>
    <g fill="#af2121">
        <path d="M88.03 24.35c.63-1.22 1.11-2.52 1.69-3.77l2.45 2.73.64.68c-.24 1.63-.35 3.3-.85 4.88-1.91 1.84-4.46 2.78-6.74 4.06-1.21-1-2.31-2.12-3.12-3.47-2.68.81-5.47 1.1-8.26.84 2.44-5.92 9.41-3.93 14.19-5.95zM29.41 29.78c2.89-1.15 5.88-2.5 9.07-2.14.43.39 1.29 1.17 1.73 1.56l1.26 1.18c-2.94 1.13-5.87 2.28-8.78 3.51-1.09-1.37-2.19-2.74-3.28-4.11z"/>
    </g>
    <path fill="#3a0b0b" opacity=".61" d="M35.34 25.24c1.03.81 2.08 1.61 3.14 2.4-3.19-.36-6.18.99-9.07 2.14 1.09 1.37 2.19 2.74 3.28 4.11 2.91-1.23 5.84-2.38 8.78-3.51l-1.26-1.18c1.1.77 2.21 1.55 3.3 2.33-3.67.8-7.24 1.99-10.68 3.51-2.12-2.32-4.3-4.62-5.78-7.41.44.44 1.31 1.34 1.75 1.78 2.19-1.37 4.39-2.73 6.54-4.17z"/>
    <g fill="#ad2023">
        <path d="M38.81 38.52c4.18.06 8.01-5.02 12.16-1.99-2.85 3.84-6.73 6.66-10.49 9.52-.81-1-1.61-2.01-2.4-3.02-.33-.61-.99-1.81-1.32-2.41l.25-.68c.26-.32.78-.95 1.04-1.26l.76-.16zM29.03 79.22c1.67-.47 2.21.09 1.62 1.69-1.66.46-2.2-.1-1.62-1.69z"/>
    </g>
    <path fill="#0e0202" opacity=".3" d="M104.6 56.21c2.17.48 4.34.96 6.51 1.45-.65.93-1.3 1.86-1.96 2.78.22-.42.65-1.26.87-1.68-1.87-.72-3.74-1.46-5.42-2.55z"/>
    <path fill="#030000" opacity=".4" d="M25.28 69.25c1.55-1.21 2.79 1.62 1.51 2.58-1.54 1.2-2.8-1.62-1.51-2.58z"/>
    <path fill="#941c1b" opacity=".91" d="M39.06 70.74c1.45.15 1.73.8.83 1.96-1.46-.16-1.73-.81-.83-1.96z"/>
    <path fill="#ac1f20" d="M40.99 70.16c1.66-.52 2.22.03 1.68 1.65-1.66.5-2.22-.05-1.68-1.65z"/>
    <path fill="#ad2221" d="M35.19 75.19c3.38.16-1.69 2.97 0 0z"/>
    <path fill="#921a1f" opacity=".94" d="M41.93 75.98c1.43-.53 1.89-.09 1.38 1.34-1.43.53-1.88.09-1.38-1.34z"/>
    <path fill="#9c1c21" d="M40.38 78.38c.26.26.26.26 0 0z"/>
</svg>
