<svg width="128pt" height="128pt" viewBox="0 0 128 128" xmlns="http://www.w3.org/2000/svg">
    <g fill="#fff">
        <path d="M71.97 15.19c2.07.68 4.15 1.42 6.05 2.52 1.68 2.02 2.48 5.55-.02 7.27-2.41 1.59-4.42 4.35-7.43 4.65-.08-1.42-.11-2.85-.09-4.27-.88.29-1.75.57-2.63.85-2.1.6-5.27 1.28-6.67-.94 1.19-1.16 2.23-2.5 3.57-3.5 2.66-.87 5.5-.16 8.23-.48 2.07-1.75.15-4.47-1.01-6.1zM47.28 19.8c4.39 1.3 8.16 4.02 12.45 5.59 2.74 1.62 5.79 3.17 7.57 5.91 1.01 2.49.86 5.7-1.1 7.71.4-.18 1.2-.52 1.59-.7 1.42 2.02 3.82 2.82 5.73 4.23 7.43 7.78 10.09 22.33.85 29.85l-2.52.92c-6.34 3.26-13.31.25-19.99 1.06-.82-5.06-4.56-9.86-10.05-9.89-5.17-.23-7.41 5.55-12.18 6.49 1.33-9.07 9.1-15.59 17.05-19.16 2.75.27 5.59.28 8.18-.83 1-.48 1.98-.98 2.95-1.52-.07-.91-.2-2.73-.27-3.64-.45-.46-1.34-1.4-1.78-1.87-1.38.29-2.77.56-4.11 1.01-.65 1.98-.61 4.07-.63 6.12-1.62-.66-3.96-.55-4.72-2.46-1.02-2.15-.16-4.51.53-6.61 2.26-2.34 4.91-4.44 8.08-5.39 1.41-.48 3.67-1.39 2.55-3.28-2.4-2.66-5.21-4.94-7.39-7.8 5.32 1.64 7.48 8.14 12.61 10.02-1.18-3.34-3.85-5.72-6.81-7.49-1.17-.72-2.33-1.47-3.48-2.22-1.47.02-2.67-.58-3.6-1.7-.52-1.44-1.02-2.89-1.51-4.35z"/>
        <path d="M88.63 19.89c1.4 1.25 2.74 2.55 4.01 3.93.75 3.19-.5 6.6-3.84 7.6-2.02.71-4.13 1.07-6.28 1.04l.08-3.1c-2.6 1.01-5.38 1.8-8.17 1.03.81-6.66 9.42-4.3 14.09-5.98.01-1.51.05-3.01.11-4.52zM68.58 35.49c.25-2.48-.41-4.84-1.55-7.02l1.86.69c3.92 1.55 8.21 1.86 12.09 3.52 7.69 3.02 13.72 9.06 17.64 16.24 3.06 9.97-1.86 20.05-.35 30.09l-.08 2.05c-3.53 7.08-8.25 13.95-15.16 18.11-4.12-5.53-5.99-13.08-3.76-19.75 1.93-7.45 7.77-13.35 8.86-21.07.12-3.67-.08-7.82-2.66-10.69-2-2.36-4.22-4.52-6.46-6.64-2.92-2.75-6.83-3.94-10.43-5.53z"/>
        <path d="M100.46 28.01l1.66.5c1.13 1.1 2.23 2.22 3.3 3.38 1.93 5.23-2.31 10.28-7.48 10.94.89-.1 2.66-.29 3.55-.38l-.14.92c1.8.87 3.44 2.36 5.55 2.33 1.3-.82 2.4-1.92 3.59-2.9.16 2.51.51 5.38-1.13 7.51-1.43 1.97-4.11 2-6.3 2.06-1.06-.42-2.12-.85-3.16-1.31-1.15-1.66-.72-2.78 1.28-3.36-3.54-1.63-6.28-4.44-8.36-7.7.99-.75 2.01-1.47 3.05-2.15-3.45-.35-7.33-.61-9.36-3.91 4.25-3.08 8.61 1.09 13.08.46 2.33-1.43 1.23-4.27.87-6.39zM68.21 36.16c7.31 1.96 13.41 7.06 17.56 13.27 3.38 5.52 1.95 12.59-1.26 17.85-3.73 6.2-7.26 13.13-6.69 20.58.36 4.6 3.26 8.41 4.07 12.87-8.04 6.08-17.45 11.5-27.88 11.09-1.78.47-2.19-1.5-2.32-2.79-.47-5.22.18-10.53 1.68-15.53 2.55-5.83 4.74-12.44 10.39-16.05 3.67-.36 7.29-1.47 10.2-3.83 3.19-1.86 4.78-5.27 6.41-8.41 1.49-7.96-.67-16.46-6.15-22.45-2.08-2.24-6.93-2.67-6.01-6.6zM42.23 45.17c.56-.45 1.68-1.34 2.24-1.79.5 2.53.79 5.09 1 7.66-4.35 2.25-8.61 4.89-11.65 8.81-2.93 3.35-6.22 7.86-3.92 12.47 3.8-.85 5.9-4.45 9.19-6.18 3.21-.97 7.05-.06 9.18 2.62 1.93 2.16 1.91 5.22 2.14 7.94-.04 1.64.18 3.47-.97 4.82-2.97 2.86-7.68 2.25-10.68 5.16-.89.88-1.12 3.14-2.75 2.71-.99-.97-1.92-1.99-2.87-2.99.48-2.43 1.12-5.14-1.78-6.21l.04-2.38c.64-.33 1.92-1 2.55-1.34 1.19 2.48 2.41 4.95 3.33 7.55l-1.51-.67c-.57.77-1.7 2.33-2.27 3.1.44-.06 1.32-.2 1.75-.26.62-.56 1.84-1.66 2.45-2.22-.13-.3-.4-.92-.53-1.23 3.96-2.36 9.93-5.27 9.34-10.72-.99-3.62-5.32-4.12-8.18-2.47-1.47 1.83-4.24 3.23-3.95 5.94 1.13-1.84 2.42-3.58 3.98-5.09 1.76-.66 3.6-.98 5.49-.99 0 2.74-2.79 2.87-4.55 4.07-1.62 1.37-2.98 3.02-4.4 4.59-.17-.82-.53-2.46-.71-3.28-2.01 2.35-4.95 3.87-8.08 3.58l-2.48-1.36c-.14-2.03-.12-4.08-.32-6.1-.78-1.96-2.15-3.77-1.85-5.99 3.95-1.72 6.97-4.81 9.33-8.36 3.54-4.04 7.38-7.87 11.44-11.39M25.32 69.22c-1.28.94-.07 3.8 1.49 2.62 1.23-.95.08-3.84-1.49-2.62zM100.54 54.01l-.07-1.1c3.04 2.13 5.77 5.34 9.84 5.13-.7 1.53-1.45 3.03-2.19 4.54l-1.43.21c-2.24.14-4.47-.19-6.68-.47.06-.55.19-1.64.26-2.19 1-1.05 2.34-.16 3.53.02-1.49-1.79-3.61-3.56-3.26-6.14zM99.42 63.01l2.6 1.24.25.58c2.38.89 2.83 3.48 3.83 5.57 1.22 1.47 3.16 1.37 4.89 1.33-2.16 3.06-7.04 5.53-10.4 2.94l-2.22-1.59c.1-.82.32-2.45.43-3.27 1.44.68 2.87 1.38 4.32 2.05-1.52-2.84-4.19-5.34-3.7-8.85z"/>
        <path d="M36.77 80.17c2.44-1.67 4.72-5.84 8.05-4.46-2.05 2.62-4.9 4.86-7.86 6.22-.05-.44-.14-1.32-.19-1.76z"/>
    </g>
    <path fill="#242424" opacity=".14" d="M78.02 17.71c3.02.84 2.69 4.03 2.44 6.49 2.26.12 4.52-.13 6.66-.87.01-1.35.01-2.69.02-4.04.38-.04 1.14-.12 1.52-.15l-.03.75c-.06 1.51-.1 3.01-.11 4.52-4.67 1.68-13.28-.68-14.09 5.98 2.79.77 5.57-.02 8.17-1.03l-.08 3.1c2.15.03 4.26-.33 6.28-1.04 3.73.26 7.29 2.07 11.14 1.68l-.36-5.86c1.26.53 2.51 1.06 3.77 1.61l-1.23-.34-1.66-.5c.36 2.12 1.46 4.96-.87 6.39-4.47.63-8.83-3.54-13.08-.46 2.03 3.3 5.91 3.56 9.36 3.91-1.04.68-2.06 1.4-3.05 2.15 2.08 3.26 4.82 6.07 8.36 7.7-2 .58-2.43 1.7-1.28 3.36.34.96.56 1.94.64 2.95-.35 2.58 1.77 4.35 3.26 6.14-1.19-.18-2.53-1.07-3.53-.02-.07.55-.2 1.64-.26 2.19 2.21.28 4.44.61 6.68.47l1.22-.02c-1.29.83-2.61 1.62-3.95 2.38-.49-.23-1.46-.68-1.94-.9l-2.6-1.24c-.49 3.51 2.18 6.01 3.7 8.85-1.45-.67-2.88-1.37-4.32-2.05-.11.82-.33 2.45-.43 3.27l2.22 1.59c-1.21 1.18-1.81 2.76-2.32 4.34-1.51-10.04 3.41-20.12.35-30.09-3.92-7.18-9.95-13.22-17.64-16.24-3.88-1.66-8.17-1.97-12.09-3.52.24-.85.48-1.71.73-2.56-.45-.1-1.33-.29-1.77-.39.88-.28 1.75-.56 2.63-.85-.02 1.42.01 2.85.09 4.27 3.01-.3 5.02-3.06 7.43-4.65 2.5-1.72 1.7-5.25.02-7.27z"/>
    <path fill="#9e9e9e" opacity=".62" d="M44.47 43.38c.8-.44 1.6-.87 2.36-1.37-.69 2.1-1.55 4.46-.53 6.61.76 1.91 3.1 1.8 4.72 2.46.02-2.05-.02-4.14.63-6.12-1.18 2.53-.17 6.49 3.21 6.02-2.59 1.11-5.43 1.1-8.18.83-7.95 3.57-15.72 10.09-17.05 19.16 4.77-.94 7.01-6.72 12.18-6.49 5.49.03 9.23 4.83 10.05 9.89 6.68-.81 13.65 2.2 19.99-1.06.52.08 1.58.23 2.11.31-2.91 2.36-6.53 3.47-10.2 3.83-.31.04-.93.14-1.24.19.09-.57.26-1.7.34-2.27-4.14.12-8.79-1.21-12.45 1.33-.23-2.72-.21-5.78-2.14-7.94-2.13-2.68-5.97-3.59-9.18-2.62-3.29 1.73-5.39 5.33-9.19 6.18-2.3-4.61.99-9.12 3.92-12.47 3.04-3.92 7.3-6.56 11.65-8.81-.21-2.57-.5-5.13-1-7.66z"/>
    <path fill="#676767" opacity=".4" d="M25.32 69.22c1.57-1.22 2.72 1.67 1.49 2.62-1.56 1.18-2.77-1.68-1.49-2.62z"/>
    <path fill="#4e4e4e" opacity=".31" d="M106.1 70.4c2.02.02 4.05.06 6.08.14-.38.41-.78.81-1.19 1.19-1.73.04-3.67.14-4.89-1.33z"/>
    <path fill="#e9e9e9" opacity=".91" d="M28.94 79.13c1.63-.52 2.17.06 1.61 1.73-1.62.5-2.16-.08-1.61-1.73z"/>
</svg>
