<svg width="128pt" height="128pt" viewBox="0 0 128 128" xmlns="http://www.w3.org/2000/svg">
    <g fill="#fff">
        <path d="M44.54 21.63c4.13-.96 8.09-2.57 12.27-3.32 1.92.24 3.68 1.06 5.44 1.83-2.32.92-4.63 1.87-6.86 2.97-.44.97-.87 1.95-1.31 2.91-.53-.29-1.58-.89-2.11-1.19-.46 1.11-.93 2.21-1.38 3.32-2.66 1.1-4.71 3.21-6.28 5.57-2.87-1.26-5.3-3.27-7.78-5.16 2.18-2.82 5.05-5 8.01-6.93zM65.8 29.33c3.29-3.58 8.65-3.85 13.2-3.53 4.24 1.08 8.4 2.54 12.35 4.46.49 1.3 1.63 1.95 3.04 1.63 1.13.94 2.23 1.92 3.32 2.92-.96 3.95-1.43 8.07-3.1 11.82-1.91 1.05-4.18 1.18-6.31 1.04-6.82-4.43-14.15-8.14-20.49-13.31 3.7.5 7.2 1.91 10.75 3 1.14 1.8 3.25 3.52 5.5 2.81 2.47-2.8 5.16-5.39 7.86-7.97-2.03 1.21-3.62 2.98-5.55 4.33-2.03-2.07-4.87-2.78-7.65-3.11-.85-1.1-1.52-2.77-3.21-2.08-2.73-2.09-6.5-1.44-9.71-2.01z"/>
        <path d="M48.97 36.01c3.65-2.95 7.95-4.67 12.32-6.27l.03-.04.27.33c-5.89 5.98-13.1 10.35-19.77 15.35-1.35-.07-2.7-.16-4.05-.18l-.97.3c-3.76-2.98-3.79-8.42-5.54-12.61 1.26-1.45 2.61-2.82 4.24-3.87 3.98 3.1 8.13 7.01 13.47 6.99z"/>
        <path d="M28.04 37.58c.71-.39 2.15-1.16 2.86-1.54.86 2.92 1.82 5.85 3.44 8.46-1.7-.01-1.21 1.97-.26 2.45l1.5 1.5c-.01-.36-.03-1.08-.05-1.44 1.46 1.11 2.8 2.43 4.53 3.11 2.39 1.31 4.67 2.83 7.13 4-2.06 1.54-4.19 2.98-6.32 4.43-4.07-2.81-7.5-6.42-10.62-10.24l.08 1.51c-.73-1.77-1.79-3.36-2.82-4.96 1.3.29 3.89.86 5.18 1.15-1.63-1.18-2.56-2.68-2.79-4.51l-.68 1.76c-.47-1.88-1.02-3.75-1.18-5.68zM98.31 37.85c.97.36 1.95.71 2.93 1.06-.13 1.6-.3 3.2-.48 4.81-1.55 1.69-3.29 3.21-5.43 4.13 1.25-3.25 2.27-6.59 2.98-10zM79.9 54.17c3.67-1.96 7.6-3.37 11.3-5.29 2.57-.95 5.15-.22 7.52.92-4.1 3-8.48 5.61-12.45 8.78-2.11-1.49-4.27-2.9-6.37-4.41zM19.23 61.59c.86-1.96 1.67-3.94 2.4-5.94.33 1.66.41 3.4 1.07 4.98 1.53 1.59 3.21 3.02 4.92 4.41-.91 1.06-1.67 2.24-2.4 3.44-1.99-1.91-3.93-3.89-5.56-6.12.67-.22 2.01-.65 2.68-.87-.78.03-2.33.07-3.11.1zM105 60.13c.12 1.6.97 2.4 2.57 2.38-1.72 2.16-3.68 4.1-5.65 6.02-.79-1.17-1.56-2.35-2.44-3.44 1.96-1.52 3.68-3.3 5.52-4.96zM91.63 66.29c2.32-.34 4.64-.74 6.97-1.04.67.94 1.34 1.88 2.01 2.81-2.77.9-5.62 1.61-8.54 1.8-.16-1.19-.3-2.38-.44-3.57zM5.02 68.37c3.14 1.25 6.31 2.46 9.36 3.94l-.09-.75c5.63 1.24 11.49.57 17.06 2.15l.12-1.08c1.02-.07 3.06-.2 4.09-.27-.08.76-.22 2.27-.29 3.03-4.13.29-8.32 1.2-12.42.27-3.32-.79-6.74-.98-10.09-1.62l1.28-1.5c-1.36.17-2.73.26-4.1.27-.14.6-.41 1.8-.55 2.4.07-.71.2-2.14.27-2.85-1.89-.91-3.54-2.2-4.64-3.99zM113.73 71.71c2.86-.91 5.54-2.28 8.36-3.29-1.25 2.45-3.91 3.44-6.12 4.8l-2.81-1 1.18 1.95c-5.89.42-11.64 2.36-17.57 1.9-.14-.63-.42-1.88-.56-2.5 2.68-.58 5.4-.92 8.1-1.33l-.33 1.26c2.86-1.92 6.51-1.27 9.75-1.79zM92.15 72.33c1.18.11 2.37.21 3.56.29.05 1.06.11 2.12.18 3.17-1.85-.16-3.71-.39-5.56-.18 1.31-.6 1.44-2.05 1.82-3.28zM35.52 78.72c2.32-1.12 4.85.1 6.84 1.31-4.16 1.54-8.59 2.36-12.5 4.55-.5-.77-.96-1.55-1.46-2.32-.09 1.14-.19 2.27-.29 3.41-1.96 1.49-4.3 2.53-6.79 1.65 1.35-2.04 3.56-3.49 4.56-5.7l.08-.65c.37.2 1.12.6 1.49.79 2.36-1.75 5.43-1.89 8.07-3.04zM84.91 79.89c1.61-.83 3.33-1.41 5.1-1.78 2.99 1.33 6.13 2.31 9.39 2.69-.66 1.23-1.11 2.54-1.37 3.91-4.21-2.05-8.81-3.05-13.12-4.82z"/>
    </g>
    <g fill="#fbfbfb">
        <path d="M67.14 41.51c1.12.1 1.9 1.15 2.9 1.59-.57.86-1.14 1.7-1.73 2.53.27 1.99.55 3.98.95 5.95-.62-.18-1.23-.35-1.85-.52.1-.66.28-1.97.37-2.62.17-1.41.28-2.83.38-4.25-.66-.68-2.71-1.9-1.02-2.68zM58.08 42.02c.67.68 1.01 1.25 1.03 1.73l.08.68c-.09 2.21.21 4.41.46 6.6-.36.12-1.07.37-1.43.49-.16-2.6 1.42-5.75-.86-7.77.18-.43.54-1.29.72-1.73zM99.05 85.54c-.13-.95-.24-1.9-.34-2.85 3.54-2.06 4.55 2.49 6.75 4-.37.23-1.12.69-1.49.92.45.07 1.37.22 1.82.29-.24 2.65-.5 5.3-1.1 7.89-1.2-2.41-1.06-5.16-1.42-7.76-1.46-.74-2.86-1.58-4.22-2.49z"/>
    </g>
    <path fill="#7d7d7d" opacity=".49" d="M36.8 45.5l.97-.3c1.35.02 2.7.11 4.05.18-1.26.5-2.53.98-3.79 1.46.72 1.07 1.4 2.16 2.03 3.28-1.73-.68-3.07-2-4.53-3.11.02.36.04 1.08.05 1.44l-1.5-1.5.05-.54c.66-.22 2-.68 2.67-.91z"/>
    <g fill="#fefefe">
        <path d="M104.96 59.14c-.03-1.08.19-2.03.66-2.86.77 1.48 1.73 3.13 1.65 4.86-1.05.88-2.17-1.11-2.31-2zM77.04 82.21c2.85-1.99 6.1-.34 9.15.14l-1.25.88c3.9 1.46 6.22 5.08 8.59 8.27-.21 2.85-.4 5.72-1.01 8.52-1.14-3.05-2.3-6.13-2.83-9.36-3.26-4.11-7.6-7.01-12.65-8.45z"/>
    </g>
    <g fill="#fdfdfd">
        <path d="M26.51 67c2.66-2.47 6.05-1.19 9.19-.65-.62 1.19-.21 4.5-2.47 3.37-2.23-.84-5.66-.07-6.72-2.72zM21.34 88.26l2.6-.55c-.37 2.63-.21 5.45-1.57 7.84-.49-2.41-.69-4.86-1.03-7.29z"/>
    </g>
    <path fill="#fcfcfc" d="M41.02 82.5c2.96-.61 6.3-2.41 9.01-.18-5.21 1.2-9.38 4.51-12.75 8.53-.18 3.22-1.02 6.35-1.54 9.52-.81-2.92-1.27-5.92-2.11-8.82 2.31-3.05 4.42-6.8 8.33-7.95l-.94-1.1z"/>
</svg>
