<svg width="128pt" height="128pt" viewBox="0 0 128 128" xmlns="http://www.w3.org/2000/svg">
    <path fill="#1e0707" opacity=".5" d="M32.19 16.35c-.81-.65-.39-1.86.43-2.14 13.11-.58 26.23-.32 39.36-.38 7.59.04 15.24-.26 22.76 1.06-.46.53-1.37 1.59-1.83 2.13.33-.46.98-1.37 1.31-1.82-14.73-.43-29.47-.16-44.2-.23-5.6.19-11.23-.36-16.79.3l-1.04 1.08z"/>
    <path fill="#b22b2c" d="M33.23 15.27c5.56-.66 11.19-.11 16.79-.3 14.73.07 29.47-.2 44.2.23-.33.45-.98 1.36-1.31 1.82-1.95 2.38-4.81 3.77-7.12 5.77-5.69 4.26-9.1 10.76-11.41 17.32-2.43 4.94-3.06 10.45-4.07 15.79 8.45-.14 16.57-3.21 23.99-7.05 4.66-2.29 7.86-6.54 11.96-9.56 1.01-.37 1.6-1.08 1.76-2.13.2-1.95 1.95-3.04 3.21-4.3 1.03 19.02.29 38.09.55 57.12.04 2.06-.22 4.11-.6 6.13-4.25-3.92-6.86-9.33-11.57-12.79-8.38-6.4-18.73-10.02-29.2-10.85 1.58 13.54 7.69 26.75 18.39 35.44.45.28 1.35.83 1.8 1.11.58.68 1.75 2.04 2.34 2.72-3.99 1.5-8.34.79-12.5.99-16.01.32-32.02-.05-48.03-.1 3.1-4.6 8.21-7.24 11.64-11.55 6.6-8.13 10.25-18.35 11.55-28.66-8.47.55-16.49 3.46-24 7.26-.45.26-1.37.8-1.83 1.07-1.59 1.41-3.29 2.7-5.05 3.9-.9.44-1.55 1.12-1.96 2.04-.27.27-.79.81-1.06 1.08-.88.5-1.48 1.23-1.8 2.19-1.16 2.43-3.16 4.28-5.1 6.07-1.02-5.62-.41-11.35-.56-17.02.19-15.39-.47-30.82.59-46.18 2.49 2.32 4.32 5.22 6.64 7.69 8.63 9.55 21.55 14.61 34.21 15.38-1.08-9.14-4.3-17.84-8.71-25.87-.25-.98-.77-1.78-1.58-2.38-3.87-4.39-9-7.3-13.2-11.3l1.04-1.08z"/>
    <path fill="#220808" opacity=".43" d="M45.39 27.65c.81.6 1.33 1.4 1.58 2.38-1.84.06-2.37-.73-1.58-2.38z"/>
    <path fill="#701a1a" opacity=".81" d="M106.26 39.29c-.53-1.65.06-2.36 1.76-2.13-.16 1.05-.75 1.76-1.76 2.13z"/>
    <path fill="#130404" opacity=".43" d="M29.77 80.75c.46-.27 1.38-.81 1.83-1.07l-.05.92-.94.56-.84-.41z"/>
    <path fill="#020001" opacity=".27" d="M22.76 86.69c.41-.92 1.06-1.6 1.96-2.04.48 1.77-.17 2.45-1.96 2.04z"/>
    <path fill="#100304" opacity=".36" d="M19.9 89.96c.32-.96.92-1.69 1.8-2.19.6 1.73 0 2.46-1.8 2.19z"/>
    <path fill="#340d0c" opacity=".62" d="M88.8 107.91l.84-.38.93.58.03.91c-.45-.28-1.35-.83-1.8-1.11z"/>
    <path fill="#160505" opacity=".36" d="M92.94 111.74l.8-.3c-.14.43-.41 1.31-.55 1.74-14.05.76-28.13.49-42.2.51-6.2-.15-12.46.15-18.58-1.06 16.01.05 32.02.42 48.03.1 4.16-.2 8.51.51 12.5-.99z"/>
</svg>
