<svg width="128pt" height="128pt" viewBox="0 0 128 128" xmlns="http://www.w3.org/2000/svg">
    <path fill="#681412" opacity=".81" d="M63.09 26.7c.37-2.16 4.7-.71 4.47 1.08-1.57.06-3.02-.59-4.47-1.08z"/>
    <path fill="#ac1f20" d="M46 32.9c5.21-3.14 11.27-4.67 17.09-6.2 1.45.49 2.9 1.14 4.47 1.08l1.43.01c4.44 1.45 9.11 2.56 13.06 5.15.84 1.44 2.69 3.08 1.76 4.86-2.05.38-3.91-.98-5.8-1.59-9.04-4.02-19.76-3.8-28.73.33-1.65.5-3.32 1.81-5.09 1.26-1.01-1.81.95-3.46 1.81-4.9z"/>
    <g fill="#130303">
        <path opacity=".47" d="M30.9 34.15c2.48-2.68 6.24-1.97 9.49-1.76.4.59 1.21 1.77 1.61 2.36 1.33-.62 2.67-1.23 4-1.85-.86 1.44-2.82 3.09-1.81 4.9 1.77.55 3.44-.76 5.09-1.26 8.97-4.13 19.69-4.35 28.73-.33 1.89.61 3.75 1.97 5.8 1.59.93-1.78-.92-3.42-1.76-4.86 1.31.6 2.62 1.19 3.93 1.79.41-.58 1.23-1.74 1.63-2.32 3.25-.19 7.01-.94 9.5 1.74-2.64-.66-5.33-1.12-8.02-1.55-1.8 2.25-3.46 4.62-5.15 6.97-7.4-3.91-15.8-6.42-24.23-5.22-5.54.52-10.71 2.77-15.63 5.24-1.69-2.33-3.34-4.68-5.13-6.93-2.7.41-5.4.84-8.05 1.49zM30.8 38.86c1.55-2.93 5.27-2.67 7.83-1.4.68 1.33 1.1 2.77 1.59 4.17-.68-.34-2.05-1.03-2.73-1.38-.11 1.09-.31 3.25-.42 4.34l-.29-1.4c.08-2.02.29-4.04.47-6.06-1.74.62-3.76.75-5.26 1.9-1.34 1.86-1.19 4.34-1.69 6.49 2.14-.35 4.28-.71 6.41-1.08-.45.39-1.37 1.15-1.82 1.54-1.38.5-2.75 1.02-4.11 1.57-.77-2.81-2.4-6.2.02-8.69zM89.43 37.44c2.55-1.2 6.2-1.47 7.74 1.42 2.38 2.38.92 5.66.12 8.38-1.4-.41-2.8-.79-4.2-1.16-.45-.42-1.35-1.25-1.79-1.67 2.11.39 4.23.79 6.35 1.17-.5-2.18-.27-4.73-1.68-6.59-1.54-1.08-3.51-1.25-5.25-1.85.19 2 .41 4 .51 6l-.31 1.42c-.1-1.08-.31-3.23-.41-4.31-.68.34-2.05 1.03-2.73 1.37.51-1.41.95-2.85 1.65-4.18z"/>
        <path opacity=".47" d="M50.9 39.6c2.94-.95 5.9-1.86 8.88-2.7 5.96-.53 11.89.63 17.43 2.8-3.15 1.96-6.58 3.75-8.87 6.77-2.23 3.08-2.65 6.99-3.14 10.64-.77-4.17.48-8.63 3.25-11.83 1.93-2.08 4.4-3.54 6.67-5.2-7-3.84-15.48-3.23-22.7-.36 3.49 2.6 7.78 4.88 9.39 9.2 1.95 4.14 1.48 8.78 1.01 13.18l-2.05.12c-2.58 1.01-4.94 2.48-7.35 3.81.58.41 1.18.82 1.77 1.22 6.23-1.14 12.59-.73 18.85-.14-2.07-2.82-5.58-4.3-8.78-5.45-.01-1.11.02-2.22.08-3.33 2.03 2.81 4.83 5.29 8.24 6.22 3.82.53 7.83.06 11.47 1.6 4.1 1.42 6.54 5.26 9.08 8.52 2.33 2.84 3.05 6.49 3.58 10.04 1.78-1.21 3.58-2.42 5.24-3.79l-.81 3.06c-1.5.47-3 .95-4.5 1.43l-1.47 3.03c-1.48.05-2.96.11-4.44.16-.52 1.02-1.03 2.04-1.54 3.06-1.93-.29-3.86-.6-5.78-.96-.55-3.44-.9-6.94-.49-10.42.67 3.05.81 6.19 1.64 9.21 1.12 1.41 3.09 1 4.65 1.26-.66-4.06-.45-8.26-1.57-12.23-.94-3.31-3.9-5.28-6.64-7.01.55 2.54 1.18 5.06 1.69 7.61-.43-.64-.85-1.28-1.28-1.91.25 4.12.71 8.48-1.21 12.31.92-7.46.36-15.46-4.24-21.71-.04 2.64.27 5.37-.52 7.94-.23-.49-.69-1.46-.93-1.95-.54-1.5-.35-3.5-1.85-4.47-2.44-1.03-5.07-1.8-7.75-1.57-1.9 4.25-1.05 9.18-1.91 13.7-.59-4.11-.49-8.3-1.25-12.38-.8-2.59-4.27-.96-6.2-.69-2.84.39-4.16 3.17-3.48 5.8 2.27-.19 4.47-.8 6.74-.96 2.28 1.23 2.08 4.2-.19 5.31-2.53.48-5.12.08-7.67.02-1.39-3.85-.83-7.87.3-11.69-6.07 5.85-6.29 14.87-5.55 22.7-1.52-3.5-1.4-7.35-1.25-11.08-.29.07-.86.21-1.14.29.54-2.43 1.16-4.84 1.7-7.26-2.5 1.63-5.28 3.33-6.38 6.27-1.47 4.01-1.01 8.41-1.82 12.57 1.58.13 3.51.62 4.63-.89.85-3.38.96-6.9 1.78-10.29.41 3.85.01 7.71-.59 11.51-2.05.39-4.11.73-6.17 1.05-.37-1.46-.79-2.92-1.02-4.41-.25-5.26 1.21-11.01 5.65-14.26 3.47-2.4 7.15-4.59 9.76-8.01-4.85.55-10.41 1.16-13.74 5.2C34.05 74.49 33 80.45 32.04 86c.2.64.61 1.92.81 2.56-.92-.95-1.83-1.89-2.74-2.84-2.24-1.1-4.54-2.38-5.38-4.91 1.84 1.31 3.71 2.58 5.59 3.83.14-6.44 4.32-11.59 8.57-16 3.54-3.35 8.68-3.81 13.32-3.94 4.18.04 7.28-3.17 10.41-5.48-.29-3.88-.09-8.06-2.16-11.53-2.19-3.69-6.11-5.76-9.56-8.09m25.35 25.45c3.09 5.26 9.95 6.33 12.92 11.65 2.22 2.97 2.05 6.81 2.64 10.29 1.4 1.54 3.23.41 4.67-.37-1.75-5.18-1.98-11.1-5.8-15.36-3.13-4.76-9.21-5.69-14.43-6.21M51.66 75.6c1.31 1.04 2.61 2.32 4.41 2.37 2.09.88 5.66-1.49 3.62-3.66-2.71.23-5.36.86-8.03 1.29z"/>
        <path opacity=".47" d="M38.08 53.68c1.64-4.75 3.59-11.4 9.73-11.48 6.34 2.83 11.96 9.91 10.48 17.14-2.51 2.78-6.86 2.65-10.33 2.84-4.32.28-8.42-5.21-12.46-1.85-6.52 4.35-10.83 11.78-12.22 19.41-.53-3.86.3-7.82-.14-11.74 1.54-6.1 1.92-12.69 5.76-17.94 1.92 2.51-1.65 4.54-2.53 6.76-.23 1.54-.18 3.11-.22 4.67-1.58 3.25-2.21 6.84-2.54 10.41 3.76-4.6 7.06-10.02 12.6-12.68 2.1-1.11 4.47.03 6.66.25 2.8-1.79 6.4-3.48 9.24-.75-3.04-1.12-6.1-.51-8.02 2.2 3.41.39 6.88.25 10.16-.85.68-.19 1.36-.38 2.05-.58.35-.73 1.06-2.21 1.42-2.95-4.86-5.61-13.31-6.25-19.64-2.86m1.37-1.99c2.84-.23 5.69-.73 8.55-.51 3.15.43 6 1.93 9 2.87-.44-5.6-5.24-9.41-9.9-11.76-4.03 1.72-6.8 5.1-7.65 9.4zM54.18 83.58c6.52-.37 13.09-.39 19.62-.01-3.64 1.15-.25 5.07.28 7.4-.48-.13-1.45-.39-1.93-.51-.62.87-1.25 1.75-1.87 2.63.33-1.94.66-3.87 1.01-5.8-2.41.63-4.86 1.15-7.28 1.74-2.43-.58-4.88-1.09-7.31-1.71.35 1.92.69 3.85 1.01 5.78-.67-.93-1.33-1.86-1.99-2.79-.49.38-1.47 1.12-1.96 1.49.82-2.35 1.87-4.66 2.2-7.15-.45-.27-1.34-.8-1.78-1.07m3.53.3c.49.98 1 1.96 1.53 2.92.52-.16 1.56-.5 2.09-.66.88.11 1.76.23 2.65.35.89-.11 1.79-.23 2.69-.33l2.09.64c.52-.95 1.02-1.91 1.49-2.89-1.25.15-2.49.31-3.73.5-.87-.06-1.75-.08-2.62-.09-.78.06-1.56.1-2.34.15-1.28-.21-2.57-.41-3.85-.59z"/>
    </g>
    <g fill="#b42120">
        <path d="M30.9 34.15c2.65-.65 5.35-1.08 8.05-1.49 1.79 2.25 3.44 4.6 5.13 6.93 4.92-2.47 10.09-4.72 15.63-5.24 1.42.34 2.83.72 4.24 1.1-1.38.5-2.77 1-4.17 1.45-2.98.84-5.94 1.75-8.88 2.7 3.45 2.33 7.37 4.4 9.56 8.09 2.07 3.47 1.87 7.65 2.16 11.53-3.13 2.31-6.23 5.52-10.41 5.48-4.64.13-9.78.59-13.32 3.94-4.25 4.41-8.43 9.56-8.57 16-1.88-1.25-3.75-2.52-5.59-3.83-.36-.26-1.09-.8-1.45-1.07 1.39-7.63 5.7-15.06 12.22-19.41 4.04-3.36 8.14 2.13 12.46 1.85 3.47-.19 7.82-.06 10.33-2.84 1.48-7.23-4.14-14.31-10.48-17.14-6.14.08-8.09 6.73-9.73 11.48 6.33-3.39 14.78-2.75 19.64 2.86-.36.74-1.07 2.22-1.42 2.95-.69.2-1.37.39-2.05.58-.54-.34-1.61-1.01-2.14-1.35-2.84-2.73-6.44-1.04-9.24.75-2.19-.22-4.56-1.36-6.66-.25-5.54 2.66-8.84 8.08-12.6 12.68.33-3.57.96-7.16 2.54-10.41 1.01-1.59 2.09-3.14 3.14-4.7-.73 0-2.19.02-2.92.03.88-2.22 4.45-4.25 2.53-6.76-1.5-2.12-4.23-4.08-3.42-7.03.89-3.39 3.16-6.27 5.42-8.88m-.1 4.71c-2.42 2.49-.79 5.88-.02 8.69 1.36-.55 2.73-1.07 4.11-1.57.45-.39 1.37-1.15 1.82-1.54l.07-1.25.29 1.4c.11-1.09.31-3.25.42-4.34.68.35 2.05 1.04 2.73 1.38-.49-1.4-.91-2.84-1.59-4.17-2.56-1.27-6.28-1.53-7.83 1.4zM57.71 83.88c1.28.18 2.57.38 3.85.59.78-.05 1.56-.09 2.34-.15.87.01 1.75.03 2.62.09 1.24-.19 2.48-.35 3.73-.5-.47.98-.97 1.94-1.49 2.89l-2.09-.64c-.9.1-1.8.22-2.69.33-.89-.12-1.77-.24-2.65-.35-.53.16-1.57.5-2.09.66-.53-.96-1.04-1.94-1.53-2.92z"/>
    </g>
    <path fill="#aa1f20" d="M89.09 32.6c2.69.43 5.38.89 8.02 1.55 2.56 3.08 5.66 6.55 5.51 10.81-.95 2.67-3.45 4.49-4.31 7.22.99 1.08 2.12 2.03 3.25 2.96-.82.85-1.65 1.71-2.47 2.57 1.01 1.26 2.03 2.51 3.06 3.75l.21.25c1.23 3.45 2.58 6.97 2.04 10.72-1.82-2.18-3.47-4.51-5.32-6.67.49 1.09.99 2.17 1.51 3.25-2.79 1.03-4.61 3.47-6.46 5.66-2.54-3.26-4.98-7.1-9.08-8.52-3.64-1.54-7.65-1.07-11.47-1.6-3.41-.93-6.21-3.41-8.24-6.22-.04-.31-.11-.91-.14-1.22.49-3.65.91-7.56 3.14-10.64 2.29-3.02 5.72-4.81 8.87-6.77-5.54-2.17-11.47-3.33-17.43-2.8 1.4-.45 2.79-.95 4.17-1.45-1.41-.38-2.82-.76-4.24-1.1 8.43-1.2 16.83 1.31 24.23 5.22 1.69-2.35 3.35-4.72 5.15-6.97m.34 4.84c-.7 1.33-1.14 2.77-1.65 4.18.68-.34 2.05-1.03 2.73-1.37.1 1.08.31 3.23.41 4.31l.31-1.42.07 1.27c.44.42 1.34 1.25 1.79 1.67 1.4.37 2.8.75 4.2 1.16.8-2.72 2.26-6-.12-8.38-1.54-2.89-5.19-2.62-7.74-1.42m-13.64 7.25c-.19.3-.57.88-.77 1.18-4.86 3.21-5.02 9.36-4.61 14.59 4.73 1.46 9.76 1.56 14.63.89-.52-1.01-1.07-2-1.68-2.95-1.63-.59-3.32-1.7-5.12-1.1-1.8.74-3.29 2.03-4.85 3.16-.46.04-1.39.13-1.85.17-.31-1.97-.44-3.96-.37-5.95 1.84-.57 3.64-1.24 5.37-2.09 3.73-1.68 7.9-.75 11.77-.19.36.39 1.07 1.17 1.43 1.55-1.44-3.95-2.17-9.07-6.56-10.89-2.57-1.61-5.23.23-7.39 1.63z"/>
    <path fill="#980000" d="M52.42 39.72c7.22-2.87 15.7-3.48 22.7.36-2.27 1.66-4.74 3.12-6.67 5.2-2.77 3.2-4.02 7.66-3.25 11.83.03.31.1.91.14 1.22-.06 1.11-.09 2.22-.08 3.33-.8.2-1.62.35-2.44.44.47-4.4.94-9.04-1.01-13.18-1.61-4.32-5.9-6.6-9.39-9.2z"/>
    <path fill="#010000" opacity=".07" d="M75.79 44.69c2.16-1.4 4.82-3.24 7.39-1.63 4.39 1.82 5.12 6.94 6.56 10.89-.36-.38-1.07-1.16-1.43-1.55-3.87-.56-8.04-1.49-11.77.19-1.73.85-3.53 1.52-5.37 2.09-.07 1.99.06 3.98.37 5.95.46-.04 1.39-.13 1.85-.17.35-.05 1.05-.14 1.4-.18 2.67-1.31 5.52-2.42 8.57-1.88.61.95 1.16 1.94 1.68 2.95-4.87.67-9.9.57-14.63-.89-.41-5.23-.25-11.38 4.61-14.59-1.37 2.47-2.94 4.85-4.04 7.46.49-.06 1.46-.2 1.94-.26.5-.25 1.5-.73 1.99-.98l-.55.75c4.61-1.89 9.59-1.53 14.42-1.03-1.19-3.08-2.14-6.85-5.48-8.3-2.47-1.72-5.18.19-7.51 1.18z"/>
    <path fill="#980000" d="M39.45 51.69c.85-4.3 3.62-7.68 7.65-9.4 4.66 2.35 9.46 6.16 9.9 11.76-3-.94-5.85-2.44-9-2.87-2.86-.22-5.71.28-8.55.51z"/>
    <path fill="#8f0000" d="M75.79 44.69c2.33-.99 5.04-2.9 7.51-1.18 3.34 1.45 4.29 5.22 5.48 8.3-4.83-.5-9.81-.86-14.42 1.03l.55-.75c-.49.25-1.49.73-1.99.98-.48.06-1.45.2-1.94.26 1.1-2.61 2.67-4.99 4.04-7.46.2-.3.58-.88.77-1.18z"/>
    <path fill="#611114" opacity=".78" d="M101.56 55.14c.83 2.02 1 4.17.59 6.32-1.03-1.24-2.05-2.49-3.06-3.75.82-.86 1.65-1.72 2.47-2.57z"/>
    <path fill="#741617" opacity=".82" d="M26.15 61.49c.04-1.56-.01-3.13.22-4.67.73-.01 2.19-.03 2.92-.03-1.05 1.56-2.13 3.11-3.14 4.7z"/>
    <path fill="#190404" opacity=".43" d="M78.24 57.3c1.8-.6 3.49.51 5.12 1.1-3.05-.54-5.9.57-8.57 1.88-.35.04-1.05.13-1.4.18 1.56-1.13 3.05-2.42 4.85-3.16z"/>
    <path fill="#030000" opacity=".12" d="M44.09 60.92c1.92-2.71 4.98-3.32 8.02-2.2.53.34 1.6 1.01 2.14 1.35-3.28 1.1-6.75 1.24-10.16.85z"/>
    <path fill="#b42320" d="M53.42 66.03c2.41-1.33 4.77-2.8 7.35-3.81l2.05-.12c.82-.09 1.64-.24 2.44-.44 3.2 1.15 6.71 2.63 8.78 5.45-6.26-.59-12.62-1-18.85.14-.59-.4-1.19-.81-1.77-1.22z"/>
    <g fill="#b22220">
        <path opacity=".97" d="M38.11 70.26c3.33-4.04 8.89-4.65 13.74-5.2-2.61 3.42-6.29 5.61-9.76 8.01-4.44 3.25-5.9 9-5.65 14.26-.9.31-2.69.92-3.59 1.23-.2-.64-.61-1.92-.81-2.56.96-5.55 2.01-11.51 6.07-15.74zM62.46 97.96c1.02-.01 2.05.02 3.07.07l.48 1.96c-1.34 0-2.67-.01-4-.02.11-.5.34-1.51.45-2.01z"/>
    </g>
    <path fill="#a71f20" d="M76.25 65.05c5.22.52 11.3 1.45 14.43 6.21 3.82 4.26 4.05 10.18 5.8 15.36-1.44.78-3.27 1.91-4.67.37-.59-3.48-.42-7.32-2.64-10.29-2.97-5.32-9.83-6.39-12.92-11.65z"/>
    <path fill="#b32020" d="M52.25 66.87c-1.13 3.82-1.69 7.84-.3 11.69 2.55.06 5.14.46 7.67-.02 2.27-1.11 2.47-4.08.19-5.31-2.27.16-4.47.77-6.74.96-.68-2.63.64-5.41 3.48-5.8 1.93-.27 5.4-1.9 6.2.69.76 4.08.66 8.27 1.25 12.38.86-4.52.01-9.45 1.91-13.7 2.68-.23 5.31.54 7.75 1.57 1.5.97 1.31 2.97 1.85 4.47-2.55.74-5.1-.15-7.61-.54-.56 1.08-1.13 2.15-1.69 3.24 2.49 2.76 6.21 2.07 9.52 1.96.18-.67.54-2.03.71-2.71.79-2.57.48-5.3.52-7.94 4.6 6.25 5.16 14.25 4.24 21.71-.37 1.32-.89 2.58-1.36 3.86-1.74-1.49-1.01-3.91-1.46-5.89-.69-.96-1.61-1.73-2.52-2.47-.51-.36-1.54-1.09-2.06-1.45-6.53-.38-13.1-.36-19.62.01-.51.37-1.53 1.09-2.04 1.45-3.31 1.64-2.83 5.35-2.99 8.46-.86-1.27-2.04-2.41-2.45-3.92-.74-7.83-.52-16.85 5.55-22.7z"/>
    <path fill="#9e1e1f" opacity=".96" d="M94.13 74.67c1.85-2.19 3.67-4.63 6.46-5.66.11-.06.34-.17.45-.22 1.34 3.01 3.24 5.9 3.75 9.21.24 1.29-1.08 2.1-1.84 2.92-1.66 1.37-3.46 2.58-5.24 3.79-.53-3.55-1.25-7.2-3.58-10.04z"/>
    <path fill="#b01f20" opacity=".98" d="M39.63 77.79c1.1-2.94 3.88-4.64 6.38-6.27-.54 2.42-1.16 4.83-1.7 7.26l-.09.4c-.82 3.39-.93 6.91-1.78 10.29-1.12 1.51-3.05 1.02-4.63.89.81-4.16.35-8.56 1.82-12.57z"/>
    <path fill="#a11f20" opacity=".98" d="M82 71.51c2.74 1.73 5.7 3.7 6.64 7.01 1.12 3.97.91 8.17 1.57 12.23-1.56-.26-3.53.15-4.65-1.26-.83-3.02-.97-6.16-1.64-9.21-.05-.29-.17-.87-.23-1.16-.51-2.55-1.14-5.07-1.69-7.61z"/>
    <g fill="#010000">
        <path opacity=".15" d="M67.9 73.26c2.51.39 5.06 1.28 7.61.54.24.49.7 1.46.93 1.95-.17.68-.53 2.04-.71 2.71-3.31.11-7.03.8-9.52-1.96.56-1.09 1.13-2.16 1.69-3.24zM60.65 96.13l1.87.44.01.95c-.81 2.03-3.16-.04-1.88-1.39zM65.48 96.48c.47-.07 1.42-.21 1.89-.29-.14.56-.43 1.66-.57 2.21-.35-.25-1.04-.74-1.38-.99l.06-.93z"/>
    </g>
    <path fill="#ef3633" opacity=".97" d="M54.18 83.58c.44.27 1.33.8 1.78 1.07-.33 2.49-1.38 4.8-2.2 7.15-1.35-1.91-3.38-4.45-1.62-6.77.51-.36 1.53-1.08 2.04-1.45z"/>
    <path fill="#ea3433" opacity=".97" d="M74.08 90.97c-.53-2.33-3.92-6.25-.28-7.4.52.36 1.55 1.09 2.06 1.45 1.75 2.28-.37 4.82-1.38 6.86l-.4-.91z"/>
    <path fill="#630000" d="M56.7 87.32c2.43.62 4.88 1.13 7.31 1.71 2.42-.59 4.87-1.11 7.28-1.74-.35 1.93-.68 3.86-1.01 5.8-.77 1.05-1.54 2.1-2.3 3.16l-.61-.06c-.47.08-1.42.22-1.89.29l-.06.93.11.62c-1.02-.05-2.05-.08-3.07-.07l.07-.44-.01-.95-1.87-.44H60c-.76-1.01-1.52-2.03-2.29-3.03-.32-1.93-.66-3.86-1.01-5.78z"/>
    <path fill="#480e0e" opacity=".62" d="M53.48 100.05c-2.27-1.59-3.49-4.06-3.38-6.84.97 2.01 1.97 4.01 3.01 5.99.76-1.08 1.52-2.16 2.28-3.25.21.32.64.95.85 1.27-.92.93-1.84 1.88-2.76 2.83z"/>
    <path fill="#e9312e" opacity=".98" d="M50.1 93.21l1.69 1.22c.62.88 1.45 1.35 2.48 1.41l1.12.11c-.76 1.09-1.52 2.17-2.28 3.25-1.04-1.98-2.04-3.98-3.01-5.99z"/>
    <g fill="#551211">
        <path opacity=".62" d="M51.79 94.43c1.63-.79 2.45-.31 2.48 1.41-1.03-.06-1.86-.53-2.48-1.41zM73.8 95.79c.02-1.7.83-2.18 2.43-1.44-.56.94-1.37 1.42-2.43 1.44z"/>
    </g>
    <path fill="#ea3130" opacity=".98" d="M76.23 94.35L77.41 93c-.58 1.71-1.16 3.42-1.75 5.13-.64-.18-1.28-.36-1.92-.53l-1.68-1.64 1.74-.17c1.06-.02 1.87-.5 2.43-1.44z"/>
    <path fill="#a51f20" d="M77.41 93c.57 2.74-.86 5.24-3.12 6.7-4.92 3.33-11.27 5.31-16.84 2.26-1.34-.62-2.63-1.31-3.97-1.91.92-.95 1.84-1.9 2.76-2.83 1.1-.27 3.31-.82 4.41-1.09-1.28 1.35 1.07 3.42 1.88 1.39l-.07.44c-.11.5-.34 1.51-.45 2.01 1.33.01 2.66.02 4 .02l-.48-1.96-.11-.62c.34.25 1.03.74 1.38.99.14-.55.43-1.65.57-2.21 2.08.66 4.22 1.05 6.37 1.41.64.17 1.28.35 1.92.53.59-1.71 1.17-3.42 1.75-5.13z"/>
    <path fill="#1d0605" opacity=".4" d="M57.45 101.96c5.57 3.05 11.92 1.07 16.84-2.26-3.01 4.02-8.31 5.61-13.15 4.72-1.62-.05-2.58-1.51-3.69-2.46z"/>
</svg>
