<svg width="128pt" height="128pt" viewBox="0 0 128 128" xmlns="http://www.w3.org/2000/svg">
    <path fill="#d53738" d="M90.49 39.8c5.95-1.79 12.28-2.81 18.48-2.04 2.26.14 4.03 1.57 5.35 3.31-3.1-.51-6.33-.7-9 1.23-.41-.47-1.24-1.4-1.65-1.87-4.51.72-8.56 3.13-13.16 3.46-.01-1.37-.01-2.73-.02-4.09z"/>
    <path fill="#b82f30" d="M90.51 43.89c4.6-.33 8.65-2.74 13.16-3.46.41.47 1.24 1.4 1.65 1.87-5.13 3.49-11.28 5.18-16.2 9.03-4.9 3.29-8.95 7.71-14.05 10.72 1-8.87 11.37-10.98 15.2-18.13l.24-.03z"/>
    <g fill="#942426">
        <path d="M83.49 43.57c2.04-1.44 4.39-2.21 6.91-2.18-.77 4.41-4.74 7.26-8.18 9.65.44-2.49.99-4.96 1.27-7.47zM65.43 61.83c1.81-.24 3.62-.46 5.44-.58l-1.47 3.22-.49.11c-.61 1.07-1.17 2.15-1.79 3.21-2.55 3.82-6.14 6.82-8.68 10.66-2.36 3.32-4.02 7.07-5.4 10.89l-.38 1.05c-2.01-1.55-4.07-3.03-6.19-4.42 4.92-7.14 11.74-12.6 17.42-19.09 1.33-1.35 1.35-3.29 1.54-5.05z"/>
    </g>
    <g fill="#942429">
        <path d="M79.27 43.03c1.21-1.69 4.49-.61 3.55 1.69-.57 3.87-1.72 8.34-5.45 10.34 1-3.95 1.29-8.01 1.9-12.03zM64.82 47.61c4.26-2.13 8.77-4.1 13.55-4.61-.23 6.58-1.26 13.24-4.38 19.12-.78.15-2.35.44-3.13.59.83-4.04 2.57-8.11 1.67-12.29-1.64-2.61-5.03-2.48-7.71-2.81z"/>
    </g>
    <path fill="#942325" d="M43.15 51.99c7.02-4.06 15.27-1.28 22.76-3.19 1.98-.46 4.19.15 5.68 1.53.38 1.29.62 2.62.71 3.98-2.89-.32-5.98-1.81-8.83-.58-2.37 1.2-5.03.61-7.56.63 1.9.53 4.83-.17 5.35 2.36.88 2.32 3.22 3.89 3.54 6.44-11.59.38-23.3 5.29-30.61 14.49-2.29-.7-4.44-1.75-6.44-3.06 3.69-3.66 7.46-7.37 12.15-9.75 3.9-2.15 8.22-3.29 12.47-4.52-5.91-2.94-12.98-3.01-19.22-1.12-4.46 1.09-8.98 3.51-13.66 2.27 7.85-3.23 14.71-9.69 23.66-9.48z"/>
    <path fill="#932324" opacity=".89" d="M64.35 54.23c1.89-.4 2.4 1.86 2.8 3.22.42-.85 1.25-2.56 1.67-3.42.84.96 1.72 1.89 2.63 2.78-1.41.26-2.82.52-4.23.76-1.31-.03-3.17-1.77-3.99 0l-.65.7c.38-1.35.11-3.46 1.77-4.04z"/>
    <path fill="#f23f3f" opacity=".97" d="M63.23 57.57c.82-1.77 2.68-.03 3.99 0 1.41-.24 2.82-.5 4.23-.76-.93 3.9-7.11 4.95-8.22.76z"/>
    <path fill="#28090a" opacity=".55" d="M33.15 59.2c6.24-1.89 13.31-1.82 19.22 1.12-4.25 1.23-8.57 2.37-12.47 4.52-4.69 2.38-8.46 6.09-12.15 9.75-.87-.28-1.74-.52-2.63-.7 4.28-2.16 7.25-6.09 11.36-8.51 3.8-2.56 8.22-3.89 12.61-5.07-8.47-2.78-17.37.64-25.43 3.31-3.44 1.47-7.65 1.81-10.19 4.81 1.22.44 2.43.9 3.65 1.35-1.25-.12-2.51-.25-3.76-.37l.18-2.67c1.98-.75 3.96-1.55 5.69-2.79-.58-.42-1.74-1.27-2.33-1.7.54-.21 1.6-.65 2.13-.87l.46.09c4.68 1.24 9.2-1.18 13.66-2.27z"/>
    <path fill="#902323" d="M23.66 63.62c8.06-2.67 16.96-6.09 25.43-3.31-4.39 1.18-8.81 2.51-12.61 5.07-4.11 2.42-7.08 6.35-11.36 8.51-2.26-2.06-5.25-2.93-8-4.11-1.22-.45-2.43-.91-3.65-1.35 2.54-3 6.75-3.34 10.19-4.81z"/>
    <path fill="#110404" opacity=".34" d="M91.58 63.63c1.99-2.12 5.18-1.58 7.79-1.86-.12 1.69-1.01 3.12-1.84 4.54 1.94.02 3.88.21 5.77.67l-1.15-.01c-2.5.02-4.99.04-7.49.05l.41-.97c1.4-1.11 2.68-2.37 4.07-3.51-2.54.23-5.07.54-7.56 1.09z"/>
    <path fill="#811d1f" d="M91.58 63.63c2.49-.55 5.02-.86 7.56-1.09-1.39 1.14-2.67 2.4-4.07 3.51-2.24.21-4.49.26-6.73.34.89-.78 1.78-1.55 2.68-2.32l.56-.44z"/>
    <path fill="#8e2323" d="M49.19 67.01c5.04-2.1 10.53-2.54 15.87-3.42-1.37 4.65-5.74 7.25-9 10.49-3.84 3.38-7.02 7.39-10.17 11.41-3.57-2.63-7.23-5.15-10.99-7.5 3.94-4.61 8.78-8.44 14.29-10.98z"/>
    <path fill="#531415" opacity=".77" d="M68.91 64.58l.49-.11c.83-.19 1.67-.32 2.53-.37.81.88 1.61 1.76 2.41 2.65l-.6.07-1.7.15-.23.02c-.46-.28-1.38-.84-1.84-1.11-.68.75-1.37 1.48-2.07 2.21l-.78-.3c.62-1.06 1.18-2.14 1.79-3.21z"/>
    <path fill="#501214" opacity=".71" d="M85.81 67.16c1.23-1.77 3.2-2.58 5.21-3.09-.9.77-1.79 1.54-2.68 2.32 2.24-.08 4.49-.13 6.73-.34l-.41.97c-.05.22-.16.64-.21.86-2.45.01-4.9-.02-7.34-.23l-1.3-.49z"/>
    <path fill="#9a2425" d="M67.9 68.09c.7-.73 1.39-1.46 2.07-2.21 3.79 3.44 6.85 7.6 9.4 12.03-2.29 1.98-4.03 4.5-6.2 6.61-.26-5.83-2.12-11.54-5.27-16.43z"/>
    <path fill="#2a0b0b" opacity=".48" d="M74.34 66.75c3.76-.5 7.61-1.02 11.38-.25-2.75.18-5.51.29-8.2.91.85.97 1.64 2.7 3.21 2.32 4.46-.6 8.95-.92 13.45-.72l-.28 1.29c-3.52.38-7.05-.04-10.57-.3.14 2.41 2.35 3.56 4.07 4.82-.41.19-1.24.56-1.65.75-3.62-3.4-8.09-5.71-12.01-8.75l.6-.07z"/>
    <path fill="#a52429" d="M72.04 66.97l1.7-.15c3.92 3.04 8.39 5.35 12.01 8.75-1.79.9-3.61 1.74-5.47 2.48-2.29-4.02-5.32-7.52-8.24-11.08z"/>
    <path fill="#792122" opacity=".85" d="M94.45 67.88c.05-.22.16-.64.21-.86 2.5-.01 4.99-.03 7.49-.05-.27.59-.82 1.77-1.09 2.36l.81-.36c-2.29 1.74-5.3 1.01-7.97 1.33l.28-1.29c.07-.28.2-.85.27-1.13z"/>
    <path fill="#220909" opacity=".41" d="M102.15 66.97l1.15.01c3.19.16 6.49.2 9.49 1.44.02 1.26-1.41 1.48-2.36 1.77-2.59.46-5.23.4-7.84.46 2.61-.45 5.22-1 7.79-1.67-2.13-1.34-4.69-1.12-7.06-.73-.36.18-1.08.54-1.45.72l-.81.36c.27-.59.82-1.77 1.09-2.36z"/>
    <path fill="#320c0d" opacity=".59" d="M67.12 67.79l.78.3c3.15 4.89 5.01 10.6 5.27 16.43L71.9 81.3l-1.62.02c.02.92.07 2.76.09 3.68-.13-.54-.39-1.63-.53-2.18.34-1.87.87-3.72 1.01-5.62-.67-2.75-2.12-5.22-3.33-7.76-2.09 3.81-3.91 7.77-5.64 11.75-1.2 2.59.26 5.27 1.24 7.66l.32.67c-.79-.39-2.37-1.18-3.16-1.58.24 3.07.59 6.13.93 9.19-.41-.04-1.24-.13-1.65-.18l.06-.6c.74-4.7-.16-9.51.75-14.18.94-3.19 2.97-5.91 4.26-8.95-5.53 4.87-9.68 11.71-10.1 19.2l-.07.53c-.46-1.21-.94-2.41-1.42-3.61 1.38-3.82 3.04-7.57 5.4-10.89 2.54-3.84 6.13-6.84 8.68-10.66z"/>
    <path fill="#b32e2f" d="M80.73 69.73c-1.57.38-2.36-1.35-3.21-2.32 3.19.4 6.4.1 9.59.24 2.44.21 4.89.24 7.34.23-.07.28-.2.85-.27 1.13-4.5-.2-8.99.12-13.45.72z"/>
    <path fill="#bc3031" d="M103.32 68.25c2.37-.39 4.93-.61 7.06.73-2.57.67-5.18 1.22-7.79 1.67l-.96.12c-1.23.01-2.42.31-3.53.84l-.79.28c-3.32.75-6.66 1.54-9.73 3.06l-.18-.13c-1.72-1.26-3.93-2.41-4.07-4.82 3.52.26 7.05.68 10.57.3 2.67-.32 5.68.41 7.97-1.33.37-.18 1.09-.54 1.45-.72z"/>
    <path fill="#9b2428" d="M61.88 81.19c1.73-3.98 3.55-7.94 5.64-11.75 1.21 2.54 2.66 5.01 3.33 7.76-.14 1.9-.67 3.75-1.01 5.62-.77 3.38-1.54 6.77-1.82 10.23-2.5.07-3.78-2.36-4.9-4.2-.98-2.39-2.44-5.07-1.24-7.66z"/>
    <path fill="#200809" opacity=".45" d="M98.1 71.61c1.11-.53 2.3-.83 3.53-.84.51 1.88-2.77 2.25-3.53.84z"/>
    <path fill="#2c0b0b" opacity=".47" d="M87.58 74.95c3.07-1.52 6.41-2.31 9.73-3.06-2.65 2.31-6.5 2.12-9.73 3.06z"/>
    <path fill="#9a2526" d="M54.53 92.42c.42-7.49 4.57-14.33 10.1-19.2-1.29 3.04-3.32 5.76-4.26 8.95-.91 4.67-.01 9.48-.75 14.18-1.74-1.25-3.43-2.57-5.09-3.93z"/>
</svg>
