<svg width="128pt" height="128pt" viewBox="0 0 128 128" xmlns="http://www.w3.org/2000/svg">
    <g fill="#fff">
        <path d="M79.13 44.05c-.43-2.13 4.08-2.39 3.67-.1-.39 4.13-1.67 8.76-5.56 10.95.88-3.56 2.13-7.12 1.89-10.85zM83.66 43.44c2.08-1.03 4.21-2.03 6.6-1.86-1.01 4.24-4.63 7.09-8.04 9.43.48-2.52 1.09-5.02 1.44-7.57z"/>
        <path d="M64.62 47.69c4.44-1.79 8.81-3.94 13.57-4.79 0 6.64-1.22 13.44-4.49 19.28-.75.21-2.23.63-2.98.85 1.1-4.22 3.03-8.52 2.11-12.97-2.24-2.14-5.26-2.43-8.21-2.37z"/>
        <path d="M59.95 49.76c3.34.11 6.75-1.61 10.03-.33 2.21.49 1.98 3.18 2.55 4.88-2.38-.49-4.74-1.03-7.11-1.56-1.41.54-2.81 1.12-4.19 1.75-5.8-.74-11.5-2.07-17.3-2.75 5-2.31 10.64-2.28 16.02-1.99zM65.59 62.02c1.69-.28 3.38-.56 5.07-.83-1.37 4.32-3.99 8.11-7.12 11.34-4.91 5.01-8.56 11.2-10.64 17.9-2.05-1.58-4.16-3.07-6.29-4.54 5.15-6.87 11.68-12.52 17.32-18.96 1.23-1.34 1.36-3.22 1.66-4.91zM70.66 63.78c4.64 4.4 10.18 7.62 15.27 11.43-1.85.96-3.68 1.96-5.54 2.9-1.64-2.84-3.46-5.6-5.71-7.99-1.63-1.91-3.76-3.67-4.02-6.34z"/>
    </g>
    <path fill="#fdfdfd" d="M16.65 62.96c8.4-2.99 15.27-9.79 24.36-10.84 6.54.27 12.91 2.07 19.41 2.81.61 2.97 2.76 5.16 4.65 7.39-2.27 1.14-4.85.98-7.28 1.53-9.1 1.77-17.97 6.37-23.81 13.7-2.18-.8-4.3-1.81-6.22-3.13C34.07 67 42.93 62.23 52.4 60.21c-5.43-2.12-11.48-2.55-17.17-1.4-6.11 1.73-12.18 3.84-18.58 4.15z"/>
    <path fill="#fbfbfb" d="M24.34 63.19c8.14-2.84 17.01-5.55 25.62-3.12-4.34 1.5-8.93 2.54-12.84 5.06-4.03 2.44-7.26 5.89-10.98 8.74-4.09-2.48-8.69-3.9-13.11-5.66 3.18-2.79 7.47-3.52 11.31-5.02z"/>
    <path fill="#f8f8f8" opacity=".97" d="M48.43 67.48c5.23-2.33 11.01-2.88 16.61-3.75-1.67 4.72-6.11 7.38-9.52 10.72-3.65 3.21-6.73 7-9.62 10.9-3.63-2.48-7.11-5.19-10.92-7.41 3.81-4.27 8.35-7.87 13.45-10.46z"/>
    <path fill="#fafafa" opacity=".98" d="M68.51 69.44c-1.28-1.53.5-2.96 1.28-4.19 3.34 4.02 6.9 7.92 9.4 12.56-2.21 2.15-4.04 4.65-6.27 6.79-.24-5.32-1.75-10.55-4.41-15.16z"/>
    <path fill="#fcfcfc" d="M67.25 68.7c1.55 2.91 3.43 5.9 3.71 9.26-1.14 5.24-2.7 10.41-3.33 15.76-3.85-3.11-8.19-8.36-5.63-13.53 1.92-3.76 3.78-7.54 5.25-11.49z"/>
    <path fill="#fefefe" d="M54.13 91.96c.99-8.09 5.84-15.15 11.73-20.53-1.49 3.5-3.83 6.58-5.14 10.15-1.06 5.11-.79 10.37-.02 15.5-2.25-1.63-4.43-3.35-6.57-5.12z"/>
</svg>
