<svg width="128pt" height="128pt" viewBox="0 0 128 128" xmlns="http://www.w3.org/2000/svg">
    <g fill="#fff">
        <path d="M75.32 64.38c1.51.06 3.02.13 4.53.3-.81 1.31-1.62 2.67-2.84 3.65-1.31-.2-2.6-.49-3.87-.87.7-1.04 1.43-2.07 2.18-3.08zM46.87 64.62c1.08-.07 3.25-.2 4.33-.27.75.99 1.5 1.97 2.26 2.95-1.16.38-2.32.72-3.5 1.03-1.63-.5-2.39-2.31-3.09-3.71zM55 74.9c1.1 7.06.95 14.21.63 21.32 2.25 2.02 6.04 2.59 6.45 6.15-3.94.69-8.46-.57-10.29-4.41C49.48 90.29 49.8 81.38 55 74.9z"/>
        <path d="M70.67 96.96c.03-7.33-.5-14.76 1.12-21.98 2.66 4.26 4.89 9.12 4.22 14.27-.48 3.07-.01 6.43-1.58 9.24-1.81 2.8-5.16 3.81-7.89 5.43l2.59 1.1c-1.93.64-3.85 1.26-5.78 1.87-2.01-.57-4.06-1.09-5.88-2.16 2.86-.82 5.83-.47 8.75-.38.09-.54.28-1.61.38-2.15l-1.98.27c-.03-3.5 3.54-4.28 6.05-5.51z"/>
    </g>
</svg>
