<svg width="128pt" height="128pt" viewBox="0 0 128 128" xmlns="http://www.w3.org/2000/svg">
    <g fill="#fff">
        <path d="M57.99 28.97c3.77-2.41 8.32-2.09 12.17-.06-2.32 3.49-3.59 7.53-4.42 11.6-.56 2.95-.15 6.12-1.61 8.87-1.79-2.38-1.36-5.44-1.76-8.21-.7-4.29-2.21-8.43-4.38-12.2z"/>
        <path d="M24.14 42.24c6.93-6.65 15.53-11.51 24.71-14.3 2.29-.25 5.01-.47 6.93 1.04 4.35 5.1 6.12 11.8 6.86 18.33-.14.62-.41 1.85-.55 2.47-1.09.81-2.18 1.62-3.27 2.44.56-5.39-.86-11.25-4.94-15.03-2.09-1.78-5.04-3.33-7.79-2.14-5.39 2.16-8.1 7.81-9.69 13.03-1.77 4.98-1.85 10.31-2.67 15.47 6.01 4.21 15.5 7.94 14.76 16.75-.76-.67-1.52-1.32-2.3-1.96.22 1.02.91 1.82 1.5 2.65-1.01 1.13-1.95 2.32-2.84 3.55-1.92-4.45-6.05-7.61-10.81-8.41-2.17-.01-4.2.82-6.22 1.48.87-3.76 2.99-7 5.33-10.01-3.73-.7-7.1.94-10.31 2.55-.53-1.84-.97-3.7-1.39-5.57 2.76-2.48 6.42-3.35 9.72-4.83-1.96-2.97-4.99-4.92-8.62-4.93.6-1.74 1.21-3.48 1.91-5.18 2.51-.16 5.02.01 7.48.55-1.54-3.55-4.54-6.05-7.8-7.95zM72.22 28.98c1.9-1.5 4.6-1.29 6.88-1.06 9.2 2.79 17.81 7.65 24.76 14.32-3.29 1.89-6.28 4.48-7.75 8.06 2.43-.53 4.89-.87 7.39-.67.71 1.65 1.34 3.32 1.99 4.99-3.24.44-7.68 1.92-8.17 5.57 3.24 1.09 6.61 2.06 9.25 4.37-.35 1.89-.82 3.76-1.41 5.59-3.2-1.61-6.57-3.23-10.28-2.56 2.24 3.06 4.42 6.27 5.31 10.02-6.22-3.47-14.83.19-16.64 7.08-1.1-1.16-2.08-2.42-3.13-3.61.91-1.04 1.42-2.28.86-3.76-.33 1.16-.68 2.32-1.04 3.47-2.56-2.07.01-5.2 1.07-7.36 3.3-4.42 8.51-6.82 12.96-9.88-1.05-8.44-1.74-17.57-7.14-24.56-2.28-2.76-6.21-5.59-9.88-3.76-6.41 2.77-8.81 10.59-8.07 17.07-1.34-1.08-2.66-2.19-3.99-3.28.61-7.1 2.31-14.49 7.03-20.04m15.49 8.52c1.33.15 2.5-.64 3.7-1.06-1.45-.52-2.82-1.5-4.41-1.48-1.64.69.14 1.75.71 2.54z"/>
        <path d="M43.37 38.37c2.56-2.46 7.25-3.21 9.86-.46 5.11 5.01 6.37 13.6 2.11 19.56-2.98-6.6-10.53-10.36-17.61-9.07 1.36-3.57 2.43-7.61 5.64-10.03zM71.93 41.89c1.5-3.04 4.2-6.39 8.02-5.65 6.03.76 8.72 7.03 10.32 12.16-7.31-1.44-14.26 2.78-17.98 8.88-2.55-4.68-3.18-10.67-.36-15.39zM54.5 62.1c1.35-4.26 3.87-8.2 7.44-10.94 1.37.04 2.74.04 4.12 0 3.6 2.72 6.03 6.74 7.47 10.97-3.15-2.96-7.88-6.77-12.46-4.57-2.55.92-4.62 2.73-6.57 4.54zM35.99 54.82c2.28 4.27 5.1 8.92 9.98 10.49 1.89.02 3.47-1.18 5.24-1.68.59 4.38-1.03 8.95-1.25 13.4-2.67-5.38-7.21-9.49-12.47-12.28-4.44-1.49-1.58-6.72-1.5-9.93zM82.08 65.29c4.86-1.57 7.61-6.23 9.96-10.42.07 2.78 1.96 6.42.15 8.84-5.62 3.21-11.39 7.03-13.92 13.3-.76-4.43-1.81-8.94-1.61-13.43 1.83.5 3.46 1.79 5.42 1.71z"/>
        <path d="M54.36 63.61c2.49-2.8 5.56-5.72 9.61-5.48 4.08-.28 7.14 2.71 9.68 5.48-.32 4.96-.72 9.93-.45 14.9-5.38 3.93-13.01 3.91-18.4.01.27-4.98-.14-9.95-.44-14.91z"/>
    </g>
    <path fill="#e9e9e9" opacity=".91" d="M87.71 37.5c-.57-.79-2.35-1.85-.71-2.54 1.59-.02 2.96.96 4.41 1.48-1.2.42-2.37 1.21-3.7 1.06z"/>
</svg>
