<svg width="128pt" height="128pt" viewBox="0 0 128 128" xmlns="http://www.w3.org/2000/svg">
    <g fill="#fdfdfd">
        <path d="M51.04 24.07c2.78-2.96 7.24-2.7 10.96-3.19 4.26.06 9.42.06 12.35 3.73 2.29 3.51 2.33 7.83 2.46 11.87-2.18-1.97-5.64-2.58-8.1-.74-2.79 3.82-1.6 8.74-1.42 13.12.88 6.96.31 13.99-.22 20.96-.25 5.76-1.45 11.59-.07 17.3 1.16 6.68 5.21 13.7 12.06 15.74-.28.23-.85.69-1.14.93-4.87.13-8.87-3.36-11.92-6.78-4.31-4.95-4.7-11.86-4.63-18.11.3-12.62.64-25.4-1.86-37.84-.56-2.64-1.37-5.98-4.47-6.59-3.37-.87-6.33 1.51-7.86 4.3 2.5-4.56.51-10.46 3.86-14.7zM28.86 49.29c6.5-.54 13.9-1.17 18.22-6.75-1.23 2.22-2.14 4.89-4.44 6.24-4.14 2.33-9.02 2.7-13.67 2.6-3.24.64-6.68 2.55-7.96 5.75-1.59 3.44.99 8.44 5 8.37 3.95.67 9.37-1.93 8.84-6.54-1.08-3.19-4.81-4.25-7.9-3.9 2.09-1.35 4.63-1.52 6.49.32 4.35 2.46 2.18 9.5-1.97 10.93-3.7 1.06-8.82 1.14-10.89-2.78-4.49-5.75 1.82-14.06 8.28-14.24zM78.7 42.95c3.35 5.06 9.56 6.51 15.27 6.6 3.12.13 6.62-.27 9.26 1.76 4.09.21 7.96-1.42 11.92-2.2-3.01 1.91-6.49 2.8-9.76 4.12 4.83 3.6 5 12.34-.27 15.47 3.27-5.21 1.57-12.99-3.96-15.9-5.18-2.4-11.36.17-16.49-2.52-2.99-1.44-4.56-4.5-5.97-7.33z"/>
        <path d="M86.55 88.31C79.5 76 71.11 62.65 73.52 47.77c.45 3.92.31 7.98 1.79 11.7 2.64 6.66 5.64 13.19 9.12 19.45 1.81 2.79 1.44 6.27 2.12 9.39zM53.82 50.01c1.1 3.24 2.33 6.53 2.08 10.02.52 8.48-5.01 15.49-7.69 23.14-2.13 6.3-4.53 13.04-2.96 19.75 1.51 2.59 4.09 4.51 7.07 5.03-2.43 1.98-5.29-.53-7.1-2.18-4.33-3.5-2.38-9.72-2.42-14.44l-2.52 2.72 1.07.66c-2.09 2.18-5.12 3.14-8.09 3.08-1.16-.16-2.14.49-2.86 1.32 1.91 1.99 3.92 3.89 5.58 6.1-2.09-1.73-4.57-3.19-5.94-5.62l.88-1.76c-1.46-.84-2.92-1.67-4.3-2.64 3.12.58 6.42 1.56 9.52.36 2.74-.72 4.61-2.98 6.87-4.53 1.1-7.8 4.2-15.16 8.15-21.92 3.53-5.66 3.8-12.69 2.66-19.09zM76.41 49.2c2.99 4.93 6.6 9.7 11.58 12.77 4.46 3.42 9.81 6.55 12 11.98 4.5 1.14 10.4 3.02 11.57 8.26-2.75-3.72-6.94-6.82-11.75-6.74-4.73-.3-8.99 3.65-9.78 8.2.03-3.23 1.12-6.89 4.41-8.2 1.37-.85 3.59-.51 4.46-2-1.18-.49-2.44-.91-3.26-1.95-4.68-4.76-11.03-7.73-14.98-13.23-2.06-2.69-3.4-5.83-4.25-9.09z"/>
        <path d="M50.54 53.81c.22 3.14.54 6.69-1.43 9.38-4.23 4.46-10.16 7.06-13.94 12-2.96 3.98-6.71 7.69-7.33 12.88.26-6.94 3.12-14.22 8.88-18.4 2.95-2.44 6.49-4.02 9.49-6.38 2.76-2.38 3.56-6.08 4.33-9.48zM98.26 63.75c.01-2.81.15-5.69 1.86-8.06 2.2 2.5-1.57 5.31-1.86 8.06zM100.11 76.67c3.54 1.16 2.95 5.5 3.07 8.44.3 3.1-2.54 5.17-5.15 6.07 4.81-3.34 3.81-9.74 2.08-14.51zM71.15 93.11c-.11-4.9 6.87-6.99 10.63-4.89-4.29-.18-7.58 2.22-10.63 4.89zM89.01 93.18c.83.71 1.68 1.41 2.52 2.11-.04 3.35-.52 6.88-2.98 9.38 1.23-3.66 2.27-7.78.46-11.49zM68.13 111.86c1.08-3.96-2.11-7.45-1.2-11.4 2.43 1.1 1.62 4.45 2.63 6.57 1.43 2.91-1.24 5.22-3.11 7.06.42-.56 1.26-1.67 1.68-2.23z"/>
    </g>
</svg>
