<svg width="128pt" height="128pt" viewBox="0 0 128 128" xmlns="http://www.w3.org/2000/svg">
    <g fill="#fdfdfd">
        <path d="M57.45 70.19c.5-3.85 3.54-6.03 6.55-7.94 3 1.91 6.05 4.09 6.55 7.94-2.1-1.35-4.25-2.63-6.55-3.6-2.3.97-4.45 2.25-6.55 3.6z"/>
        <path d="M57.81 72.72c2-1.57 4.21-2.86 6.19-4.47 1.99 1.62 4.23 2.91 6.23 4.51 1.98 1.95 2.71 4.75 3.48 7.33-3.32-1.48-6.05-4.2-9.68-5.01-3.67.76-6.39 3.54-9.74 5 .78-2.59 1.51-5.4 3.52-7.36z"/>
        <path d="M55.15 82.86c2.96-1.31 5.35-4.22 8.85-4.06 3.51-.16 5.9 2.77 8.88 4.07 1.73.28 3.03-1.19 4.52-1.81-1.47 5.33-5.18 9.83-10.1 12.34 2.13-1.88 1.96-5.76-1.12-6.3-3.73-1.93-9.91 2.04-5.61 6.23-4.87-2.51-8.51-7-9.97-12.27 1.5.62 2.79 2.13 4.55 1.8z"/>
        <path d="M62.38 88.77c2.27-1.91 7.17 1.15 4.09 3.56-2.42 2.53-8.01-1.43-4.09-3.56zM56.08 92.8c2.6 1.19 5.04 2.9 7.9 3.43 2.87-.55 5.33-2.23 7.95-3.42-.98 4.05-4.48 6.2-7.93 7.96-3.45-1.77-6.95-3.92-7.92-7.97z"/>
    </g>
</svg>
