<svg width="128pt" height="128pt" viewBox="0 0 128 128" xmlns="http://www.w3.org/2000/svg">
    <path fill="#fff" d="M60.66 22.43l-.41-.78c3.89.02 7.9-.46 11.69.67 1.37.12 2.74.22 4.11.32 2.12.76 4.35.98 6.58 1.14l-.16.57c.7.07 2.11.21 2.82.27 1.35 3.33 2.33 6.81 2.88 10.36-1.11 5.29-8.14 4.13-10.96 8.01 1.85 2.56 5.29 2.73 8.07 3.58-.92 1.16-1.81 2.34-2.72 3.5-2.11 4.25-1.1 9.04-.94 13.57l.7-.36c.09 1.29.18 2.58.28 3.87.64 1.35 1.26 2.71 1.93 4.05-.1.29-.28.88-.37 1.17l1.01-.06c.28 1.26.85 3.77 1.13 5.03-1.37-.76-2.75-1.48-4.13-2.23-.75-.66-1.53-1.3-2.31-1.92-.48-.47-1.44-1.39-1.92-1.86-.23.06-.69.18-.92.23-1.29-2.04-2.66-4.05-4.15-5.97 1.06 1.82 2.17 3.61 3.15 5.47.6 1.32 1.24 2.62 1.92 3.9 1.13 2.46 1.9 5.06 2.7 7.63l.56-.15c.43 2.03 1.02 4 1.51 6.02-.7-.49-2.11-1.47-2.81-1.96l-.59-.2c-1.2-1.23-2.41-2.44-3.66-3.62-.01-.29-.04-.86-.06-1.14l-1.09.02v-1.09l-.52-.13c-1.23-1.51-2.54-2.94-3.78-4.44-1.43-1.77-3.04-3.38-4.67-4.97.54 5.93.01 12-2.74 17.38-1.59 2.87-3.8 5.33-5.44 8.17-1.02.97-2.06 1.93-3.1 2.89-.91.57-1.81 1.16-2.71 1.76.05-2.25.1-4.51.11-6.76l.74.19c.05-2.71.04-5.42-.02-8.13l-.56.15c-.03-.54-.1-1.63-.14-2.18-.73-5.29-1.6-10.74-4.09-15.53-.22-1.57-.43-3.15-.64-4.73.12 6.8-.28 13.67-2.29 20.21-.72 2.14-1.77 4.14-2.56 6.25l-.93-.42.53 1.35-1.19-.13.09.86c-.38.47-1.15 1.4-1.54 1.87-.65.41-1.95 1.23-2.61 1.64.06-1.06.17-3.2.22-4.27l.73.05c.96-8.12-.66-16.45.95-24.47.21-2.18.36-4.36.36-6.54-2.75 1.82-5.48 3.68-8.34 5.34l1.6-4.36 1.06.09c-.15-.47-.46-1.39-.61-1.86l.9.05c.66-1.56 1.31-3.12 2.01-4.66.15-1.24.3-2.49.44-3.73l.52.29c.17-1.21.36-2.41.56-3.61.54-1.32.98-2.68 1.43-4.03.73-1.78 1.57-3.53 2.36-5.28.74-1.42 1.49-2.84 2.2-4.27l.4.13c.26-.43.78-1.28 1.04-1.7 1.66-1.79 3.41-3.47 5.04-5.29.18-.02.56-.08.74-.1 1.25-.98 2.52-1.94 3.79-2.9 1.23-.53 2.45-1.08 3.71-1.54l-.19-.54c.82-.03 2.48-.1 3.3-.14m12.83 7.99c-.72 2.89.23 6.23 3.44 7.03 3.61.45 5.27-3.15 5.68-6.12.37-.16 1.11-.47 1.47-.63-3.51-.5-7.06-.74-10.59-.28z"/>
    <path fill="#4e4e4e" opacity=".31" d="M44.65 84.35c2.01-6.54 2.41-13.41 2.29-20.21.21 1.58.42 3.16.64 4.73 2.49 4.79 3.36 10.24 4.09 15.53-1.54-3.46-2.59-7.11-3.57-10.76-.87 3.65-1.68 7.37-3.45 10.71z"/>
    <path fill="#858585" opacity=".52" d="M65.53 70.93c1.63 1.59 3.24 3.2 4.67 4.97l-3.57-1.92c.82 5.08-.16 10.54-3.84 14.33 2.75-5.38 3.28-11.45 2.74-17.38z"/>
</svg>
