<svg width="128pt" height="128pt" viewBox="0 0 128 128" xmlns="http://www.w3.org/2000/svg">
    <g fill="#fff">
        <path d="M86.5 27.19c1.86.19 3.73.36 5.58.59 1.13.43 2.27.8 3.43 1.12l.02.45c1.67.3 3.23.98 4.48 2.16.24.03.71.11.94.15.97 1.79 2.03 3.52 2.95 5.34.48 1.29.97 2.59 1.51 3.86.11 2-.01 3.99-.23 5.97-.56-.09-1.69-.29-2.26-.39-.21-.64-.65-1.93-.86-2.58-1.1-1.27-2.38-2.72-4.23-2.65-6.06-.16-12.18 1.71-18.18.02 2.22-1.07 4.59-1.79 6.76-2.96 1.68-1.18 2.1-3.29 1.86-5.21-.67-1.93-1.19-3.91-1.77-5.87zM74.48 30.43c2.34.01 4.68.05 7.02.13.06 1.16.12 2.31.19 3.47-.56.81-1.11 1.62-1.65 2.44-1.46.24-2.95.28-4.43.23-.67-.79-1.35-1.57-2.03-2.36-.02-.97-.03-1.95-.05-2.92l1.07.16-.12-1.15z"/>
        <path d="M87.96 42.95c4.21-.17 8.84-1.49 12.58 1.16-1.81.29-3.63.51-5.46.66l.84.51c-5.36.05-10.71 1.93-15.88-.31 2.42-1.37 5.17-1.9 7.92-2.02zM30.16 69.39c1.99-2.56 4.02-5.63 7.38-6.4.27 3.08-.65 6.05-1.84 8.85-.52 1.21-1.05 2.42-1.47 3.68l-.47-.07c-.53 1.03-1.05 2.05-1.57 3.08l-1.06-.18.33.85c-2.3.89-4.57 1.86-6.97 2.44.89-1.65 1-3.53 1.18-5.35l.59.23c.43-2.68 2.3-4.73 3.56-7.04l.34-.09zM67.4 83.55c.21-2.5-.47-5.16.51-7.54l.79 1.46.7-.13c.86 1.04 2.14 1.86 2.31 3.34l.46-.55c.19 1.36.57 2.66 1.16 3.9.08 1.82.09 3.63.13 5.45l-.57.1c-.29 1.61-.87 3.13-1.52 4.62-1.92 2.54-4.57 4.45-6.29 7.15l-.6.08-.04 1.13-1.93.06.19-1.34-1.36.26.44-1.96-1.15-.08c.22-1.86-.64-4.14.85-5.63l-.08-.99c1.12-2 2.42-3.89 3.81-5.71.37-.51 1.12-1.54 1.49-2.06-.1-.4-.3-1.21-.4-1.62l1.1.06zM79.9 76.32c1.05.32 3.17.96 4.23 1.28.18.05.55.16.74.21.19.2.58.59.77.78 2.91 2.97 7.46 5.63 6.74 10.48-.32 2.44-1.3 6.55-4.14 6.67-1.01-7.09-4.21-13.64-8.34-19.42zM46.86 78.2c.46 1.7 1.25 3.28 2.09 4.83.35 1.22.63 2.46.85 3.72l.57-.61c-.15 2.92.27 5.92-.6 8.76-.77 1.78-1.57 3.55-2.43 5.28-1.11 1.37-2.26 2.73-3.2 4.23l-.47.04c-.44.96-.85 1.93-1.23 2.92-.72.86-1.62 1.4-2.68 1.63-.74-3.31-.81-6.94.57-10.09l.28-.92c1-1.74 1.96-3.56 2.2-5.59l.98-.06c-.09-.32-.25-.97-.34-1.3.82-1.15 1.27-2.44 1.38-3.87l.72.75c-.24-3.31.31-6.57 1.31-9.72z"/>
    </g>
    <path fill="#cfcfcf" opacity=".81" d="M77.65 41.98c.67-.25 1.34-.5 2-.75 6 1.69 12.12-.18 18.18-.02 1.85-.07 3.13 1.38 4.23 2.65l-1.57-.48.05.73c-3.74-2.65-8.37-1.33-12.58-1.16-2.75.12-5.5.65-7.92 2.02l-.62.29c-.85-.94-1.39-2.08-1.77-3.28z"/>
    <path fill="#5c5c5c" opacity=".36" d="M78.31 75.25c2.06.37 4.68.18 5.82 2.35-1.06-.32-3.18-.96-4.23-1.28 4.13 5.78 7.33 12.33 8.34 19.42 2.84-.12 3.82-4.23 4.14-6.67.72-4.85-3.83-7.51-6.74-10.48 4.79 1.35 8.81 6.3 7.75 11.44-.57 3.38-2.52 8.03-6.77 6.85.09-3.25-.27-6.58-1.71-9.54-1.75-4.29-5.19-7.64-6.6-12.09z"/>
</svg>
