<svg width="128pt" height="128pt" viewBox="0 0 128 128" xmlns="http://www.w3.org/2000/svg">
    <path fill="#880e0e" opacity=".9" d="M72.03 18.44c2.15-1.56 4.71-2.38 7.36-2.43-2.78 3.53-6.18 6.52-9.24 9.8 3.92-.31 7.89-.46 11.72-1.45.61 2.1 1.59 4.17 1.61 6.4-.29 3.37-1.73 6.48-2.99 9.56-1.77-1.37-3.5-2.82-5.43-3.96-4.53.19-8.16 3.18-11.76 5.58-1.37.7-2.8 1.28-4.21 1.89-1.33-3.67-1.99-7.51-2.46-11.37-2.31.04-4.61.11-6.91.18-.5-1.72-.92-3.48-1.91-5-.26-.19-.77-.57-1.03-.76 2.49-1.35 5.15-2.35 7.72-3.51 3.03-1.2 3.31-5.15 6.08-6.68.11 2.89.07 5.79.05 8.69 2.71-1.54 5.11-3.57 7.84-5.07 1.25-.5 2.46-1.1 3.56-1.87z"/>
    <path fill="#080000" opacity=".29" d="M68.47 20.31c-1.08-1.88 2.41-3.42 3.56-1.87-1.1.77-2.31 1.37-3.56 1.87z"/>
    <path fill="#6d0b0b" opacity=".73" d="M33.32 33.92c4.46-3.46 7.63-8.18 11.26-12.41-.48 2.5-1 4.99-1.51 7.48 1.23-.72 2.44-1.47 3.71-2.11.26.19.77.57 1.03.76-2.38 4.53-.58 9.89-1.35 14.76.64.24 1.92.73 2.56.97.27 2.49.88 5.17-.43 7.48.07-2.26.07-4.53.01-6.8-1.41.42-2.85.76-4.3 1.03l-3.34-.12c.24-1.95.6-3.91.53-5.88-.83-2.25-2.77-3.84-4.27-5.64-.73 1.01-1.46 2.01-2.19 3.02-.43-.64-1.28-1.91-1.71-2.54z"/>
    <path fill="#6e0b0b" opacity=".74" d="M81.87 24.36c3.66-.92 7.39-1.54 11.13-1.99-.3 4.64-2.26 8.92-2.91 13.5-.46 4.58-3.69 9.48-1.06 13.87-1.34 3.29-1.94 6.81-2.76 10.25-1.45 1-2.88 2.02-4.29 3.05.66-3.82.91-7.75-.53-11.44-.21-2.59 1.84-4.99 1.3-7.67-.03-1.5-1.57-2.21-2.42-3.23l.16-.38c1.26-3.08 2.7-6.19 2.99-9.56-.02-2.23-1-4.3-1.61-6.4z"/>
    <path fill="#6d0a0d" opacity=".83" d="M47.81 27.64c.99 1.52 1.41 3.28 1.91 5 2.3-.07 4.6-.14 6.91-.18.47 3.86 1.13 7.7 2.46 11.37 1.41-.61 2.84-1.19 4.21-1.89l-.08 1.89c1.57-.2 3.15-.31 4.74-.33-3.01 2.77-5.13 8.27-10.07 7.22-4.12 3.73-6.59 8.82-9.69 13.35-.76 1.24-2.26 1.52-3.48 2.1-.02-4.08-.05-8.15-.23-12.22 1.38-1.01 2.77-2.02 4.1-3.1 1.31-2.31.7-4.99.43-7.48-.64-.24-1.92-.73-2.56-.97.77-4.87-1.03-10.23 1.35-14.76z"/>
    <path fill="#520809" opacity=".57" d="M37.22 33.44c1.5 1.8 3.44 3.39 4.27 5.64.07 1.97-.29 3.93-.53 5.88l3.34.12c-.91.51-1.82 1.02-2.73 1.52-1.96 4.5-5.71 8.8-4.71 13.99-1.09-.1-2.19-.18-3.28-.25-.25-1.28-.49-2.57-.74-3.85-1.23-.82-2.45-1.64-3.68-2.46 5.07-5.71.45-13.87 4.16-20.11.43.63 1.28 1.9 1.71 2.54.73-1.01 1.46-2.01 2.19-3.02m-2.18 10.87c2.43-1.83 3.49-4.87 3.15-7.85-2.46 1.86-3.23 4.9-3.15 7.85z"/>
    <path fill="#5d0a0a" opacity=".65" d="M89.03 49.74c-2.63-4.39.6-9.29 1.06-13.87 1.38.6 2.75 1.21 4.13 1.82-3.54 8.21-2.3 17.26-3.48 25.88-1.49 1.62-2.99 3.23-4.51 4.81.12-2.79-.08-5.59.04-8.39.82-3.44 1.42-6.96 2.76-10.25z"/>
    <path fill="#a41213" opacity=".84" d="M35.04 44.31c-.08-2.95.69-5.99 3.15-7.85.34 2.98-.72 6.02-3.15 7.85z"/>
    <path fill="#4c0808" opacity=".53" d="M94.22 37.69c1.33.73 2.67 1.47 4.01 2.2-.62 3.36-1.4 6.71-1.59 10.13-.19 3.15.76 6.25.64 9.4-.72 1.91-2.09 3.46-3.16 5.18-1.68 2.64-2.21 6.01-4.93 7.91.61-2.96 1.13-5.94 1.55-8.94 1.18-8.62-.06-17.67 3.48-25.88z"/>
    <path fill="#340506" opacity=".43" d="M98.23 39.89c1.51.54 3.02 1.08 4.53 1.61-.03 3.7-4.62 5.04-5.25 8.43.42 3.62.98 7.24 1.58 10.84.94 2.22 2.58 4.06 3.89 6.07l-3.24 4.05c-.14 5.72.12 11.43-.05 17.15.57 4.91-4.45 7.66-7.85 10.14.65-9.03 1.14-18.08 2.65-27.02.42-2.19.06-4.4-.37-6.56 1.07-1.72 2.44-3.27 3.16-5.18.12-3.15-.83-6.25-.64-9.4.19-3.42.97-6.77 1.59-10.13z"/>
    <path fill="#660a0c" opacity=".8" d="M81.45 51.6c1.44 3.69 1.19 7.62.53 11.44-.39 4.64-.14 9.33-1.1 13.9-.23 2.13-1.18 4.44-.19 6.51l.72 1.67c-2.35 3.88-4.93 7.66-8.21 10.83.19-3.61-.35-7.37.89-10.85 1.82-5.03 2.6-10.35 3.74-15.56l-1.61-.29c-1.89-2.7-3.08-5.8-4.75-8.63l-.21-.38c3.44-2.83 7.39-5.1 10.19-8.64z"/>
    <path fill="#420707" opacity=".46" d="M27.45 63.29c-.04-3.17-.77-6.75 1.71-9.26 1.23.82 2.45 1.64 3.68 2.46.25 1.28.49 2.57.74 3.85.03.18.1.53.13.7 1.16.7 2.32 1.39 3.48 2.09-2.74 2.32-6.68 1.12-9.74.16z"/>
    <path fill="#5a090b" opacity=".73" d="M81.98 63.04c1.41-1.03 2.84-2.05 4.29-3.05-.12 2.8.08 5.6-.04 8.39-.73 6.55-1.59 13.08-2.59 19.59-.22-1.24-.46-2.48-.72-3.71-.56-.2-1.68-.61-2.23-.81-.99-2.07-.04-4.38.19-6.51.96-4.57.71-9.26 1.1-13.9z"/>
    <path fill="#740d0d" opacity=".87" d="M71.47 60.62c1.67 2.83 2.86 5.93 4.75 8.63-2.66 3.04-4.57 6.75-7.47 9.55-5.22 2.65-10.14 5.8-15.02 9.01-.43-3.21-.72-6.44-.88-9.68 6.2-5.83 11.63-12.57 18.62-17.51z"/>
    <path fill="#4a0708" opacity=".63" d="M86.23 68.38c1.52-1.58 3.02-3.19 4.51-4.81-.42 3-.94 5.98-1.55 8.94-.83 3.19-1.04 6.47-.97 9.75.11 6.41-1.56 12.69-1.38 19.1v.6c-1.69 1.13-3.5 2.08-5.41 2.79-.62-6.52 2.64-13.34-.02-19.63l-.72-1.67c.55.2 1.67.61 2.23.81.26 1.23.5 2.47.72 3.71 1-6.51 1.86-13.04 2.59-19.59z"/>
    <path fill="#400608" opacity=".55" d="M89.19 72.51c2.72-1.9 3.25-5.27 4.93-7.91.43 2.16.79 4.37.37 6.56-1.51 8.94-2 17.99-2.65 27.02-1.11 1.77-3.14 2.49-5 3.18-.18-6.41 1.49-12.69 1.38-19.1-.07-3.28.14-6.56.97-9.75z"/>
    <path fill="#1f0304" opacity=".44" d="M30.01 70.18c3.41-1.22 6.66-2.9 10.22-3.66.14 3.27-.08 6.56-.91 9.74l-2.22.71c2.11-2.63 2.01-6.09 2.06-9.28-1.98 1.15-4.02 2.31-5.44 4.16l-.87.98c-1.45-.42-3.06-.78-2.84-2.65z"/>
    <path fill="#58090b" opacity=".71" d="M33.72 71.85c1.42-1.85 3.46-3.01 5.44-4.16-.05 3.19.05 6.65-2.06 9.28-2.32 3.99-6.95 2.53-10.7 2.39.02-.48.07-1.44.09-1.92 2.16-1.44 4.66-2.33 6.68-4 .13-.4.41-1.19.55-1.59z"/>
    <path fill="#5e090b" opacity=".79" d="M47.11 84.17c1.67-2.23 3.79-4.06 5.74-6.04.16 3.24.45 6.47.88 9.68l.03.27c-2.39 1.51-4.73 3.1-7.06 4.69-.3-2.87-.22-5.77.41-8.6z"/>
    <path fill="#460709" opacity=".61" d="M38.18 93.93c2.49-3.65 5.58-6.89 8.93-9.76-.63 2.83-.71 5.73-.41 8.6l.02.34c-2.21 1.56-4.3 3.3-6.63 4.7-1.36.64-2.75 1.23-4.14 1.81.72-1.9 1.43-3.82 2.23-5.69z"/>
    <path fill="#650a0d" opacity=".87" d="M64.75 87.79c1.06-.96 1.98-2.35 3.59-2.38-.55 5.28-.91 10.63-2.2 15.8-.22 1.45-1.88 1.81-2.99 2.32-3.02 1.01-5.97 2.26-9.05 3.06-.5-.25-1.49-.75-1.99-.99-.93-3.33-.7-7.02 1.98-9.48 3.53-2.81 7.55-5.02 10.66-8.33z"/>
    <path fill="#2b0503" opacity=".44" d="M29.84 106.63c.97-5.06 4.66-9.29 8.34-12.7-.8 1.87-1.51 3.79-2.23 5.69 1.39-.58 2.78-1.17 4.14-1.81-3.19 3.15-6.22 6.75-10.25 8.82z"/>
    <path fill="#4d0809" opacity=".71" d="M38.93 107.15c5.1-3.61 9.88-7.7 15.16-11.03-2.68 2.46-2.91 6.15-1.98 9.48.5.24 1.49.74 1.99.99-4.81 2.1-10.22 2.29-15.17.56z"/>
    <path fill="#0d0102" opacity=".39" d="M76.36 95.46c2.28 3.54.06 8.07.09 12.01-1.27.08-2.54.16-3.8.23 1-.4 2-.81 3-1.21.44-3.43.69-6.87.7-10.32l.01-.71z"/>
    <path fill="#55090c" opacity=".8" d="M72.22 99.87c1.33-1.28 2.7-2.53 4.13-3.7-.01 3.45-.26 6.89-.7 10.32-1 .4-2 .81-3 1.21l-1.72.68c.68-2.34 1.52-4.63 2.2-6.97-.2-.33-.59-1-.79-1.33l-.12-.21z"/>
    <path fill="#350604" opacity=".51" d="M91.52 103.72c2.02-1.49 3.96-3.09 5.86-4.73.66 2.29-.08 4.55-.78 6.72-1.77-.07-3.53-.14-5.3-.2.05-.45.17-1.34.22-1.79z"/>
    <path fill="#640a0b" opacity=".91" d="M66.14 105.39c1.87-1.99 4.03-3.66 6.2-5.31.2.33.59 1 .79 1.33-.68 2.34-1.52 4.63-2.2 6.97-.82.16-1.63.33-2.45.51-2.73.41-5.61 1.65-8.33.48.59-.28 1.76-.84 2.35-1.12 1.48-.57 2.59-1.72 3.64-2.86z"/>
    <path fill="#060000" opacity=".35" d="M62.5 108.25c-.99-1.82 2.06-4.1 3.64-2.86-1.05 1.14-2.16 2.29-3.64 2.86z"/>
    <path fill="#160201" opacity=".48" d="M59.65 109.23l.5.14c2.72 1.17 5.6-.07 8.33-.48-2.72 2.22-6.5 2.02-9.8 2.45.24-.52.73-1.58.97-2.11z"/>
</svg>
