<svg width="128pt" height="128pt" viewBox="0 0 128 128" xmlns="http://www.w3.org/2000/svg">
    <g fill="#fdfdfd">
        <path d="M35.12 44.98c.21-3 .51-6.19 2.9-8.33.5 3.14-1.18 5.87-2.9 8.33zM29.82 70.95c3.33-1.17 6.74-2.2 9.83-3.95-.27 2.67-.48 5.35-.54 8.04-1.96 1.56-3.7 3.53-6.02 4.54-2.74-.16-5.44-.66-8.16-1 3.07-2.02 7.25-2.87 9.3-6.09-1.47-.51-2.94-1.01-4.41-1.54zM60.69 91.71c2.73-1.81 4.88-4.31 7.29-6.51-.45 5.7-.95 11.42-2.42 16.97-8.31 3.21-17.15 7.34-26.24 5 7.15-5.1 14.19-10.39 21.37-15.46zM58.83 111c6.36-4.49 12.4-9.46 17.9-14.98-.36 3.55-.58 7.12-1.02 10.67-5.61 1.49-11.16 3.26-16.88 4.31zM91.12 104.96c2.37-1.75 4.54-3.73 6.51-5.92-.46 2.09-.89 4.18-1.37 6.26-1.72-.15-3.43-.26-5.14-.34z"/>
    </g>
</svg>
