<svg width="128pt" height="128pt" viewBox="0 0 128 128" xmlns="http://www.w3.org/2000/svg">
    <path fill="#fff" d="M63.64 24.81l3.1.48c2.68 4.39 5.17 9.14 5.66 14.34.41 1.85 1.27 3.56 1.96 5.32.88-6.95-1.63-13.55-3.84-19.99.92-.02 2.78-.07 3.7-.1 1.03 1.89 1.92 3.85 2.78 5.82l3.12.36c3.49 6.14 3.49 13.72 7.55 19.56 3.15 3.33 7.03 5.9 10.65 8.7-1.78 3.14-1.63 7.54 1.69 9.58 3.23 1.83 5.63 4.69 8.35 7.15 1 7.86.5 15.8.32 23.69-2.33 3.22-4.84 6.31-7.16 9.54-.43-4.34-1.01-8.79-2.91-12.77-6.1-3.73-12.58-6.78-18.95-10-3.85-2-8.51-1.39-12.22-3.74 2.23-3.17-.35-7.22-1.98-10.12-6.69-1.95-13.83-2.15-20.72-3.2l-.9-2.79c2.31-.87 3.62-2.59 1.9-4.88.58.44 1.72 1.32 2.29 1.76 5.45-.56 10.74-1.98 16.06-3.21 3.03 2.11 5.89 4.8 9.62 5.53-.45-1.71-.94-3.42-1.62-5.06-3.1-6.31-.77-13.72-3.43-20.2-.9-5.55-5.73-9.92-5.02-15.77m16.3 41.32c.21-1.01.62-3.02.83-4.03 3.16-.73 3.31 2.73 4.32 4.78.95 3.41 4.08 5.35 6.24 7.93-.81-3.27-1.28-6.6-1.66-9.93-.55-.51-1.65-1.52-2.2-2.02.26.76.79 2.29 1.05 3.05l-2.04-3.62L86 66c.01-1.32.01-2.64 0-3.97l-.32.89c-1.94-2.07-4.08-4.03-5.33-6.64-1.48 3.18-2.08 6.61-.41 9.85z"/>
    <path fill="#242424" opacity=".14" d="M110.1 89.27c3.33.22-1.62 2.94 0 0z"/>
</svg>
