<svg width="128pt" height="128pt" viewBox="0 0 128 128" xmlns="http://www.w3.org/2000/svg">
    <path fill="#fafafa" opacity=".98" d="M55.82 41.37c1.37-.77 2.72-1.55 4.07-2.35 0 2.73-1.16 5.17-2.9 7.22-.37-1.63-.76-3.25-1.17-4.87z"/>
    <path fill="#fdfdfd" d="M57.56 46.77c2.29-2.14 3.88-6.24 7.52-6.02 4.31 2.07 8.82 4.52 11.22 8.86 2.42 2.94 3.2 6.67 4.12 10.27 1.47 5.51 7.17 8.51 8.42 14.15-1.31 4.03-2.34 8.26-4.97 11.69 1.07.98 2.14 1.95 3.23 2.9-.52 3.19-2.33 5.88-4.4 8.28-1-.6-2-1.2-3.01-1.8-1.64 1.13-3.08 2.49-4.43 3.94.66 1.12 1.31 2.23 1.98 3.35-1.33 3.24-3.4 6.08-5.68 8.72.64-2.86 1.03-5.75 1.37-8.65-1.49 1.97-3.16 3.79-5.24 5.15.17-.98.51-2.94.68-3.93-1.24 1.04-2.24 2.32-3.26 3.58-1.46-1.16-2.9-2.34-4.32-3.54.46 1.11 1.37 3.35 1.83 4.46-2.48-1.78-4.75-3.82-6.66-6.2 1.2 3.18 2.69 6.25 4.62 9.06-3.06-1.24-5.39-3.65-7.45-6.15-1.68-2.9-1.09-6.56-2.54-9.52-1.68-1.95-4.26-.74-6.13.18-2.2-2.13-3.97-4.65-5.08-7.51 1.1-1.3 2.36-2.5 3.05-4.08-1.22-4.57-4.62-9.74-1.88-14.42 3.07-4.67 5.55-9.7 8.34-14.55.87-1.51 1.74-3.13 1.5-4.94-.32-2.59 2.24-4.03 3.68-5.75.32 3.68 1.53 7.2 2.94 10.59.61 2.55 3.92 2.17 5.05 4.36 1.52 2.97 1.54 6.47 2.74 9.59-.12-2.6-.52-5.17-.74-7.75 1.54 1.4 3.01 2.88 4.34 4.48 1.51.38 3.04.72 4.56 1.06.59 1.17 1.17 2.33 1.77 3.5-.87 1.04-1.72 2.08-2.58 3.13-2.37-1.21-4.67-2.55-7.02-3.79 1.71 2.05 3.85 3.72 5.47 5.84.35 2.81.2 6.38 2.99 8.05 2.48 1.97 6.16 1.58 8.55-.31 2.7-3.43 3.57-9.13.1-12.36-1.7-1.76-4.28-1.58-6.51-1.46-.98-1.27-1.99-2.53-3.02-3.77-1.43-.5-3.11-.61-4.25-1.71-3.4-3.03-7.37-5.6-9.94-9.43-.94-2.87-1.6-5.82-2.63-8.66l1.67 1.11m-9.07 21.66c-2.73 1.52-5.31 4.19-4.84 7.58-.16 5.2 5.38 9.13 10.26 7.56 4.17-1.47 7.09-7.56 3.63-11.13-2.05-2.66-5.46-5.73-9.05-4.01m10.99 27.8c1.93 1.91 3.16 4.34 4.47 6.68.73-2.1-.57-3.96-1.29-5.8 1.19-2.5.11-5.02-.83-7.38-1.16 2.01-2.03 4.19-2.35 6.5m6.9-2.34c.28.84.85 2.52 1.14 3.36-.3 1.89-.6 3.79-.53 5.72 1.89-3.93 4.38-8.33 2.23-12.67-.92 1.21-1.87 2.42-2.84 3.59z"/>
</svg>
