<svg width="128pt" height="128pt" viewBox="0 0 128 128" xmlns="http://www.w3.org/2000/svg">
    <path fill="#970f0e" opacity=".92" d="M58.12 15.79l1.57-.95c.13 6.74-1.43 13.33-2.91 19.85-.31 1.98-1.69 3.6-3.56 4.27-1.04.32-1.81.96-2.32 1.91-.57.89-1.3 1.61-2.19 2.17l-.6.34c-.04.55-.14 1.66-.19 2.21-.25.42-.77 1.26-1.02 1.68-.68.68-1.38 1.34-2.07 2.01l-4.23-3.51c2.02-2.33 4.2-4.54 5.89-7.13-1.75 1.55-3.32 3.29-4.89 5.02.06-2.26.09-4.52.1-6.78 1.98-2.43 4.14-4.7 6.02-7.21 2.18-2.88 3.29-6.36 4.91-9.56.02 2.48-.12 4.94-.44 7.4 2.32-3.74 4.6-7.5 5.93-11.72z"/>
    <path fill="#a41211" opacity=".93" d="M72.4 14.44c3.13 5.15 5.25 10.94 9.46 15.38 1.33 5.16 5.27 11.04 1.98 16.21l-.52.02C76.09 37.19 72.49 25.8 72.4 14.44z"/>
    <path fill="#8e100e" opacity=".88" d="M81.86 29.82c2.62 2.91 5.37 5.97 6.97 9.54.64 3.69 1.3 7.48 3.53 10.59-1.67.79-3.34 1.58-5.01 2.36-1.08-1.91-2.77-3.47-3.61-5.51l.1-.77c3.29-5.17-.65-11.05-1.98-16.21z"/>
    <path fill="#7d0e0d" opacity=".79" d="M90.73 35.53c1.69 2.62 2.09 5.74 3.08 8.63.98 1.96 2.55 3.53 3.77 5.34l.12.39c-1.88 2.95-4.43 5.36-7.54 6.97-.98-1.49-1.92-3-2.81-4.55 1.67-.78 3.34-1.57 5.01-2.36-2.23-3.11-2.89-6.9-3.53-10.59l1.67.42c.06-1.06.17-3.19.23-4.25z"/>
    <path fill="#a1120e" opacity=".92" d="M57.39 43.33c.43-2.08.21-4.25.89-6.28.57 2.5 1.54 4.99 1.47 7.59-.45 4.5-2.1 8.81-2.28 13.34-.11 3.45.74 6.81 1.25 10.2-1.96-.45-3.41-1.77-4.66-3.25-.64.46-1.28.91-1.92 1.37-1.64-.37-3.32-.67-4.97-.23.44-1.06.9-2.1 1.37-3.14-.09-2.27-.68-4.68.51-6.78 2.12-4.25 1.69-9.56 5.08-13.19.33 2.35.56 4.72.75 7.09.76-2.27 1.71-4.47 2.51-6.72z"/>
    <path fill="#2a0404" opacity=".53" d="M58.28 37.05c3.73 4.63 1.84 10.86.58 16.04-.23 1.8-1.45 4.37.63 5.52 1.52.56 2.73-.8 3.99-1.38-1.04 1.9-2.58 3.86-4.94 2.36.61 3.8 1.23 7.6 2.19 11.33-.72.86-1.46 1.69-2.19 2.54l-.05-.07c.12-1.73.33-3.47.23-5.21-.51-3.39-1.36-6.75-1.25-10.2.18-4.53 1.83-8.84 2.28-13.34.07-2.6-.9-5.09-1.47-7.59z"/>
    <path fill="#210303" opacity=".47" d="M50.9 40.87c.51-.95 1.28-1.59 2.32-1.91.16 1.75-.62 2.38-2.32 1.91z"/>
    <path fill="#230403" opacity=".52" d="M69.67 40.42c.25-.33.75-.98 1-1.31 1.14 2.43 1.57 5.09 1.73 7.75-.7-1.62-1.13-3.4-2.1-4.9-.86 7.1-.11 14.28.85 21.33-.12 2.85-1.86 5.15-3.42 7.39.44.97.87 1.95 1.29 2.94-.28.31-.83.93-1.1 1.24-.52-3.31-2.44-6.11-3.96-9.01-.42.77-1.26 2.3-1.68 3.07.36-2.29.54-4.61.82-6.92 2.78 1.69 2.13 5.47 3.57 8.06 2.6-2.84 3.16-6.6 2.91-10.31-.58-.35-1.74-1.03-2.32-1.37.59-.04 1.76-.13 2.34-.17-.88-5.9-.54-11.88.07-17.79z"/>
    <g fill="#af130f">
        <path opacity=".97" d="M70.3 41.96c.97 1.5 1.4 3.28 2.1 4.9.96 2.51 2.05 4.96 3.22 7.37l-.23.3c-2.16 2.49-3.94 5.4-4.24 8.76-.96-7.05-1.71-14.23-.85-21.33zM75.02 41.56c.51.26 1.53.8 2.04 1.06l-.03 1.17c-.05 1.12.28 2.12 1.01 3.01l.46.19c2.04.76 3.45 2.5 5.09 3.85-.67.83-1.4 1.62-2.11 2.41-.3-.11-.92-.33-1.22-.44l-.37-.14c-1.02-1.86-2.48-3.4-4.21-4.61-.28-2.16-.49-4.33-.66-6.5z"/>
    </g>
    <path fill="#270403" opacity=".55" d="M48.11 43.38l.6-.34c1.14 1.31.88 2.16-.79 2.55.05-.55.15-1.66.19-2.21z"/>
    <g fill="#360708">
        <path opacity=".55" d="M77.03 43.79c1.53-.49 2.43 2.2 1.47 3.2l-.46-.19c-.73-.89-1.06-1.89-1.01-3.01zM75.43 92.82c2.14-3.14 4.2-6.33 6.23-9.54.93 1.33 1.91 2.63 2.88 3.94-1.25-.72-2.49-1.43-3.74-2.15l2.01 4.98c-1.05 1.66-2.1 3.33-3.04 5.05-1.27 2.74-1.85 5.79-3.77 8.21-.28-.48-.84-1.44-1.13-1.93l-2.7 5.49c-.91-.1-1.82-.21-2.73-.31-1.06 1.6-2.14 3.2-3.21 4.79-3.02.19-6.05.22-9.06-.1.12-.91.35-2.74.46-3.65-.44-.43-1.34-1.28-1.79-1.7.26-.59.51-1.19.77-1.78 2.92 1.53 6.3 3.65 9.67 2.11 2-1.39 1.58-4.28 2.27-6.37l.43.32c.3.3.91.91 1.22 1.21.14-2.27.15-4.54-.02-6.81l.65-.22c.59.53 1.75 1.59 2.34 2.11.7-.2 2.11-.6 2.82-.8-.02-.51-.05-1.54-.06-2.06l-4.23-.81c.54-1.15.99-2.34 1.35-3.56-.27-1.49-.58-2.98-.9-4.47.36.22 1.06.66 1.41.88.53 2.41 1.15 4.8 1.87 7.17z"/>
    </g>
    <path fill="#570a0b" opacity=".61" d="M96.94 40.68c2.95 3.82 4.91 8.37 5.88 13.08.38 12.25-9.47 22.75-20.91 25.68.06-1.32.13-2.65.28-3.96 4.45-2.48 8.92-5.11 12.61-8.67.98-.9 1.09-2.3 1.44-3.5.89-4.44 3.74-8.92 1.46-13.42l-.12-.39c-.43-2.92-.4-5.89-.64-8.82z"/>
    <path fill="#820e0c" opacity=".79" d="M36.31 50.73c1.51-1.58 2.92-3.26 4.29-4.96l4.23 3.51c.69-.67 1.39-1.33 2.07-2.01-1.01 2.17-2.05 4.34-3.42 6.3-1.34.54-2.68 1.05-4.03 1.54-1.04-1.46-2.09-2.93-3.14-4.38z"/>
    <path fill="#400a08" opacity=".55" d="M26.62 58.98c.53-4.5 1.72-9.1 3.95-13.07-.37 3.83-1.7 7.61-1.43 11.49.25 3.05.72 6.07 1.3 9.08.22-.49.65-1.47.86-1.96 4.48 4.71 7.04 11.11 12.79 14.59-.25 1.16-.51 2.31-.78 3.47 1.55-2.28 2.58-4.84 3.25-7.51.58-1.07 1.24-2.1 1.89-3.13l.27 1.82c-.74 1.68-1.29 3.83.17 5.32-.18.4-.56 1.19-.74 1.58-.71 1.3-1.48 2.56-2.21 3.86l-.33.67c-3.62-2.29-8.47-3.26-10.61-7.35-3.81-5.72-7.47-11.95-8.38-18.86z"/>
    <path fill="#600a0a" opacity=".6" d="M30.57 45.91c.79 3.08 1.5 6.22 2.93 9.08-.37 1.44-1.65 3.36-.07 4.51 1.87 1.45 4.72 3.19 7.08 1.9l1.48-.92c-.05.93-.16 2.8-.21 3.73-1.49.08-2.97.17-4.45.27 1.73 3.62 4.17 6.8 7.02 9.6.29 1.68.11 3.38-.26 5.03-5.75-3.48-8.31-9.88-12.79-14.59.07-2.57-.95-4.92-2.16-7.12-.27-3.88 1.06-7.66 1.43-11.49z"/>
    <path fill="#690b0d" opacity=".69" d="M97.7 49.89c2.28 4.5-.57 8.98-1.46 13.42-.35 1.2-.46 2.6-1.44 3.5-3.69 3.56-8.16 6.19-12.61 8.67.34-1.77.75-3.52 1.24-5.26 1.7-2.46 2.57-5.34 3.44-8.17.07 1.24.16 2.47.28 3.7.79-1.82-.67-5.49 2.35-5.61.12 2.56.13 5.13.15 7.69 1.23-3.54.81-7.32.51-10.97 3.11-1.61 5.66-4.02 7.54-6.97z"/>
    <path fill="#6c0d0d" opacity=".68" d="M33.5 54.99c.8-1.51 1.78-2.9 2.81-4.26 1.05 1.45 2.1 2.92 3.14 4.38 1.35-.49 2.69-1 4.03-1.54-1.08 2.58-3.04 4.9-2.97 7.83-2.36 1.29-5.21-.45-7.08-1.9-1.58-1.15-.3-3.07.07-4.51z"/>
    <path fill="#820e0f" opacity=".82" d="M83.59 50.84c1.82 3.38 5.12 7.23 3.28 11.21-.87 2.83-1.74 5.71-3.44 8.17-.36.19-1.07.56-1.43.75-.54 1.5-.96 3.04-1.3 4.59-1.85 1.44-3.71 2.87-5.54 4.35-.72.51-2.16 1.53-2.87 2.04.08-2.6.21-5.19.38-7.78 1.54-1.35 3.07-2.71 4.58-4.1l-1.94.67c.46-.93.89-1.86 1.32-2.79.19-.19.55-.57.74-.76.31-2.91-.04-6.39 2.76-8.21.06-2.05.09-4.11.13-6.17.3.11.92.33 1.22.44.71-.79 1.44-1.58 2.11-2.41z"/>
    <path fill="#360608" opacity=".53" d="M102.82 53.76c1.61 3.21.21 6.85-.21 10.19-1.09 4.69-.45 10.08-3.88 13.92-2.4 4.53-6.59 7.55-10.74 10.36-2.59-2.48-4.98-5.31-6.08-8.79 11.44-2.93 21.29-13.43 20.91-25.68z"/>
    <path fill="#850f0f" opacity=".96" d="M63.48 57.23c.45-.7.89-1.41 1.32-2.11.8 1.09 1.44 2.35 2.46 3.26.58.34 1.74 1.02 2.32 1.37.25 3.71-.31 7.47-2.91 10.31-1.44-2.59-.79-6.37-3.57-8.06-.28 2.31-.46 4.63-.82 6.92-.39.5-1.17 1.5-1.55 2-.96-3.73-1.58-7.53-2.19-11.33 2.36 1.5 3.9-.46 4.94-2.36z"/>
    <path fill="#9a1110" opacity=".87" d="M75.39 54.53c2.68 4.01 2.17 8.93 1.24 13.42-.43.93-.86 1.86-1.32 2.79-1.04 1.14-2.21 2.19-3.02 3.52-.95 3.08 1.06 8.01-3.31 8.81 1.06.55 2.13 1.11 3.17 1.7.32 1.49.63 2.98.9 4.47l-5.28-.51c-.09.27-.27.82-.36 1.1-.41.13-1.24.4-1.65.54-3.33-1.94-6.42-4.26-9.51-6.56.41-.43 1.21-1.3 1.61-1.74-1.87-2.77-2.36-6.09-3.12-9.27-.85-2.17-1.79-4.31-2.6-6.5.64-.46 1.28-.91 1.92-1.37 1.25 1.48 2.7 2.8 4.66 3.25.1 1.74-.11 3.48-.23 5.21l.05.07c1.84 1.98 3.61 4.08 4.27 6.77h2.59c.26-2.04.91-4 2.52-5.37.27-.31.82-.93 1.1-1.24-.42-.99-.85-1.97-1.29-2.94 1.56-2.24 3.3-4.54 3.42-7.39.3-3.36 2.08-6.27 4.24-8.76z"/>
    <path fill="#110102" opacity=".45" d="M30.44 66.48c-.58-3.01-1.05-6.03-1.3-9.08 1.21 2.2 2.23 4.55 2.16 7.12-.21.49-.64 1.47-.86 1.96z"/>
    <path fill="#740d0f" opacity=".69" d="M37.33 64.48c1.48-.1 2.96-.19 4.45-.27 1.35.84 2.77 1.58 4.24 2.2l1.15-.34c1.65-.44 3.33-.14 4.97.23.81 2.19 1.75 4.33 2.6 6.5-.65-.22-1.94-.66-2.59-.89-.85-1.43-1.7-2.86-2.55-4.28l-4.35-.78c1.14 1.64 2.29 3.29 3.2 5.09-.65 1.03-1.31 2.06-1.89 3.13-.83-1.3-1.71-2.58-2.59-3.85.1.72.28 2.15.38 2.86-2.85-2.8-5.29-5.98-7.02-9.6z"/>
    <path fill="#8d100d" opacity=".82" d="M45.25 66.85l4.35.78c.85 1.42 1.7 2.85 2.55 4.28-1.14.62-2.29 1.23-3.43 1.85l-.27-1.82c-.91-1.8-2.06-3.45-3.2-5.09z"/>
    <path fill="#140202" opacity=".44" d="M82 70.97c.36-.19 1.07-.56 1.43-.75-.49 1.74-.9 3.49-1.24 5.26-.15 1.31-.22 2.64-.28 3.96 1.1 3.48 3.49 6.31 6.08 8.79-3.36 1.48-5.21 4.88-8.22 6.87.94-1.72 1.99-3.39 3.04-5.05l-2.01-4.98c1.25.72 2.49 1.43 3.74 2.15-.97-1.31-1.95-2.61-2.88-3.94-.88-2.47-1.01-5.12-.96-7.72.34-1.55.76-3.09 1.3-4.59z"/>
    <path fill="#150201" opacity=".46" d="M43.97 71.22c.88 1.27 1.76 2.55 2.59 3.85-.67 2.67-1.7 5.23-3.25 7.51.27-1.16.53-2.31.78-3.47.37-1.65.55-3.35.26-5.03-.1-.71-.28-2.14-.38-2.86z"/>
    <path fill="#770e0b" opacity=".75" d="M48.72 73.76c1.14-.62 2.29-1.23 3.43-1.85.65.23 1.94.67 2.59.89.76 3.18 1.25 6.5 3.12 9.27-2.04-.59-4.08-1.16-6.13-1.7 1.1 1.28 2.21 2.55 3.34 3.81.16 1.53.29 3.06.42 4.6-4.15-.57-4.94-5.41-7.34-8.12.18-.39.56-1.18.74-1.58.9-1.66.55-3.67-.17-5.32z"/>
    <path fill="#0d0100" opacity=".44" d="M48.89 79.08c-1.46-1.49-.91-3.64-.17-5.32.72 1.65 1.07 3.66.17 5.32z"/>
    <path fill="#630a0a" opacity=".67" d="M75.16 79.91c1.83-1.48 3.69-2.91 5.54-4.35-.05 2.6.08 5.25.96 7.72-2.03 3.21-4.09 6.4-6.23 9.54-.72-2.37-1.34-4.76-1.87-7.17.49-1.93 1.01-3.85 1.6-5.74z"/>
    <path fill="#56090a" opacity=".63" d="M45.94 84.52c.73-1.3 1.5-2.56 2.21-3.86 2.4 2.71 3.19 7.55 7.34 8.12.2 3.69.06 7.38-.11 11.07.76-1.24 1.54-2.48 2.33-3.7 1.11 2.74 2.22 5.48 3.28 8.24.58-1.89 1.18-3.77 1.84-5.63l1.44 3.99c.37.98.77 1.96 1.18 2.93.4-1.56.79-3.11 1.2-4.66.15-.5.44-1.49.58-1.99.33.21.99.63 1.32.83-.69 2.09-.27 4.98-2.27 6.37-3.37 1.54-6.75-.58-9.67-2.11-.26.59-.51 1.19-.77 1.78-.82-1.73-1.67-3.44-2.53-5.15l.25-.84.4-1.44c.54-3.16-.99-6.18-3.65-7.84-.12.58-.35 1.75-.46 2.33-1.83-2.54-3.04-5.45-3.91-8.44z"/>
    <path fill="#800e0b" opacity=".73" d="M55.76 84.39l.49-.58c3.09 2.3 6.18 4.62 9.51 6.56-2.59.79-5.17-.57-7.71-1 1.91 1.86 3.83 3.69 5.77 5.51 1.98-1.7 4.04-3.31 6.18-4.81-.86-.07-1.72-.16-2.59-.24.09-.28.27-.83.36-1.1l5.28.51c-.36 1.22-.81 2.41-1.35 3.56-.22.39-.65 1.17-.87 1.56l-.65.22c-.35.18-1.04.52-1.39.7-2.64 1.84-5.91 2.09-8.86.85-.3-1.05-.58-2.11-.86-3.16-.92.66-1.83 1.33-2.75 1.99-.29-3.51-.62-7.04-.56-10.57z"/>
    <path fill="#3c0608" opacity=".52" d="M45.61 85.19l.33-.67c.87 2.99 2.08 5.9 3.91 8.44 1.26 1.92 2.7 3.71 4.11 5.51l-.4 1.44c-1.31.6-2.62 1.21-3.93 1.82-.57-1.7-1-3.45-1.26-5.22-1.99-2.39-4.24-4.54-6.5-6.67 1.15-.51 2.3-1.02 3.45-1.54.07-.77.22-2.33.29-3.11z"/>
    <path fill="#130202" opacity=".4" d="M58.05 89.37c2.54.43 5.12 1.79 7.71 1 .41-.14 1.24-.41 1.65-.54.87.08 1.73.17 2.59.24-2.14 1.5-4.2 3.11-6.18 4.81-1.94-1.82-3.86-3.65-5.77-5.51m5.18 2.85c.52.51.52.51 0 0z"/>
    <path fill="#0c0101" opacity=".42" d="M50.31 90.63c2.66 1.66 4.19 4.68 3.65 7.84-1.41-1.8-2.85-3.59-4.11-5.51.11-.58.34-1.75.46-2.33z"/>
    <path fill="#050000" opacity=".32" d="M70.83 94.36c.22-.39.65-1.17.87-1.56l4.23.81c.01.52.04 1.55.06 2.06-.71.2-2.12.6-2.82.8-.59-.52-1.75-1.58-2.34-2.11z"/>
    <path fill="#220303" opacity=".5" d="M59.93 96.13c2.95 1.24 6.22.99 8.86-.85-.67.97-1.32 1.95-1.96 2.95-2.11-.13-4.23-.23-6.33-.47-.14-.41-.42-1.22-.57-1.63z"/>
    <path fill="#130202" opacity=".44" d="M64.27 102.75c.8-.57 1.6-1.14 2.38-1.73-.41 1.55-.8 3.1-1.2 4.66-.41-.97-.81-1.95-1.18-2.93z"/>
</svg>
