<svg width="128pt" height="128pt" viewBox="0 0 128 128" xmlns="http://www.w3.org/2000/svg">
    <g fill="#fdfdfd">
        <path d="M72.33 14.55c2.4 4.3 4.38 8.88 7.29 12.88 3.22 3.45 5.98 7.26 8.77 11.06 2.4 2.91 1.33 7.09 3.18 10.26-.15-4.36-1.33-8.67-.71-13.06 1.87 3.79 1.61 8.63 4.79 11.73.76.85 1.53 1.7 2.32 2.53-.09-3.06-.38-6.11-.75-9.14 2.43 5.18 5.27 10.43 5.77 16.24-.65 5.66-1.65 11.28-2.59 16.9-2.77 6.01-7.71 10.55-13.1 14.25-2.09-2.48-4.19-5.12-5.09-8.3-.37-3.48.52-6.94.64-10.41-2.19 4.45-3.41 10.47-.14 14.71.96 1.49 2.02 2.91 3.08 4.32-2.29 2.72-5.78 4.44-7.3 7.78-.61 2.45-1.34 4.88-2.95 6.9-.1-.89-.29-2.65-.39-3.53-1.56 2.69-2.66 5.62-4.23 8.31l-.64-3.03c1.69-3.01 2.75-6.29 3.95-9.52.45.4 1.34 1.2 1.79 1.6.09-1.64.18-3.28.25-4.92-.46.46-1.39 1.38-1.85 1.84.08-3.07.1-6.34-1.89-8.89l1.19.95c.81-2.11 1.53-4.26 2.03-6.47-.84.47-2.52 1.42-3.36 1.89.23-2.39.42-4.78.52-7.18 1.7-1.51 4.02-2.78 4.29-5.28 1.27-3.18-.2-7.56 3.13-9.66.03-2.1.17-4.2-.01-6.29-1.02-2.16-2.9-3.73-4.61-5.32-.28-2.1-.52-4.2-.51-6.32 1.73 1.25 1.86 3.54 3.07 5.17 1.82 1.63 3.81 3.09 5.47 4.9 1.73 2.69 2.91 5.69 4 8.69.37.09 1.1.29 1.47.38.59 3.03-.14 5.85-1.34 8.6 1.18-1.25 2.11-2.7 3.02-4.16-.31-3.35.41-7.09-1.71-9.99-5.56-9.02-12.73-17.42-15.12-28-.62-4.13-1.18-8.28-1.73-12.42m14.75 45.34c-.25 2.42-.45 4.84-.46 7.27 1.29-2.19 2.14-5.04.46-7.27m-6.75 24.43c.48.55.48.55 0 0M82 88.34c.9.68 1.36.38 1.37-.88-.32-.43-.95-1.29-1.26-1.72-.94.28-.98 1.15-.11 2.6zM56.79 19.88c.78-1.86 1.25-3.9 2.61-5.45.33 6.66-1.32 13.23-2.75 19.69-.59 5.08-7.58 5.65-8.47 10.6-2.67 5.18-5.75 10.17-8.42 15.36.55.36 1.65 1.08 2.21 1.45-.13.69-.37 2.07-.49 2.76 2.26 2.27 5.49 2.32 8.41 3.03 3.22 4.01 4.49 9.05 5.45 13.99-1.3-.62-2.61-1.23-3.92-1.83.78 1.85 1.87 3.53 3.46 4.78-.04 4.14-.28 8.28.1 12.4.77 4.21 2.41 8.19 3.84 12.21-2.97-2.89-4-7.1-6.87-10.07-.48.78-1.45 2.32-1.93 3.1-.42-2.03-1.32-4.1-.52-6.19-.39-.01-1.17-.01-1.56-.02-1-2.79-3.7-4.25-5.76-6.15.89 0 2.66.02 3.54.02.66-1.84.5-3.65-.58-5.28 1.01-1.67 2.03-3.33 3.1-4.95 1.88-2.1.33-4.87-.09-7.23-.63 1.35-1.28 2.7-1.96 4.02-.15-1.92-.91-3.53-2.27-4.82.21 1.86 1.01 3.67.96 5.56-.48 2.02-1.35 3.93-1.88 5.94 1.32-1.4 2.23-3.14 2.46-5.07.59-.65 1.79-1.96 2.39-2.62.75 3.46-1.78 6.12-3.27 8.91-2.2-1.55-4.76-2.43-7.17-3.57-3.02-5.15-8.55-10.14-6.62-16.66-.51 1.32-.99 2.66-1.43 4-.83-3.53-2.44-6.93-2.29-10.64l2.24.96c-.11 2.45.52 4.85.8 7.26 1.68-2.36.51-4.85-.27-7.22-.83-.67-1.66-1.32-2.46-2.01 1.15-3.34 2.13-6.73 2.92-10.17.78 3.4 1.63 6.81 2.83 10.1 3.56-6.7 9.84-11.43 13.6-17.95-1.85 1.59-3.38 3.51-5.01 5.31.12-2.15.04-4.32.35-6.45 2.12-3.44 5.53-5.91 7.36-9.54 1.24-2.3 2.13-4.76 3.37-7.06-.22 2.53-.66 5.03-1.05 7.54 1.75-2.63 3.96-5.03 5.04-8.04M50.36 90.4c-1.33 3.62 2.46 5.76 3.8 8.63-.04-3.22-1.12-6.64-3.8-8.63z"/>
    </g>
</svg>
