<svg width="128pt" height="128pt" viewBox="0 0 128 128" xmlns="http://www.w3.org/2000/svg">
    <path fill="#fdfdfd" d="M66.68 40.19c5.65.24 11.31 1.92 15.31 6.11-.44.13-1.3.4-1.74.54-2.42 2.61-4.86 5.21-6.99 8.08 3.15-2.47 5.99-5.39 9.76-6.92.69 1.26 1.37 2.53 2.05 3.8-3.04 2.02-6.43 3.5-9.34 5.7-1.39 2.34-2.94 4.59-4.66 6.7 2.77-2.31 5.98-4.33 7.68-7.63 2.63-.64 5.05-1.85 7.24-3.42 1.17 7.97-.69 16.12 1.27 24.02-1.41 1.1-3.07 1.78-4.71 2.45-1.88 2.72-3.48 5.63-5.47 8.28 2.16-1.61 3.85-3.72 5.24-6.01 1.11-.51 2.22-1.03 3.32-1.55-2.14 4.97-1.82 10.57-3.66 15.61-1.89 3.18-5.03 5.39-7.7 7.9-.36-.61-.71-1.22-1.06-1.84-1.56 2-2.23 5.56-5.2 5.91-3.3.21-2.23 4.43-2.8 6.66-.53-2.23-1.22-4.44-1.34-6.74.36-2.21 2.03-4.03 1.88-6.35 2.2-.1 4.42-.29 6.53-.95-2.59-.98-6.96 1.32-8-1.9 3-3.29 7.58-.38 11.17-2.03-2.76-.61-5.48-1.39-8.05-2.58-.61.35-1.85 1.06-2.46 1.42-.55-1.94-.09-3.89.34-5.78 1.69-.54 3.24-1.4 4.8-2.23l.78 1.65c.25-1.29.46-2.59.66-3.88-.69-1.38-1.61-2.75-1.39-4.4-.37-.09-1.12-.26-1.5-.35.14 1.76.23 3.52.28 5.28-.87.41-1.74.81-2.62 1.21-.8-1.79-1.54-3.64-2.74-5.21.22-.78.65-2.34.87-3.12.65.74 1.95 2.22 2.61 2.96.16-4.31-1.07-8.45-1.82-12.64.74-5.86 1.37-11.75 1.03-17.67l2.07-2.1c-.98-2.9-1.8-5.89-1.64-8.98m1.24 16.25c1.85-2.84 3.7-5.69 5.23-8.71-2.43 2.41-4.39 5.36-5.23 8.71m1.38 11.99c-.96 3.68-.46 7.53-1.34 11.19.57-.51 1.15-1.02 1.73-1.52-.59-2.65-.04-5.3.54-7.89 2.62-1.7 5.66-2.57 8.28-4.25 2.05-.13 4.1-.22 6.15-.42-5.27-3.14-10.55.81-15.36 2.89m1.99 4.58c1.69-1.84 4.06-.56 6.12-.71 1.76-.45 3.39-1.28 5-2.09-2.01-.62-4.09-.97-6.2-.99-1.55 1.34-3.96 1.87-4.92 3.79m5.07 24.22c-.96 1.17-1.66 2.56-2.55 3.8 1.16 2.7 4.37-2.84 2.55-3.8z"/>
</svg>
