<svg width="128pt" height="128pt" viewBox="0 0 128 128" xmlns="http://www.w3.org/2000/svg">
    <g fill="#fff">
        <path d="M52.27 29.42c5.85 4.04 11.28-3.19 12.03-8.56.66 3.68 2.49 7.49 5.92 9.31 1.98 1.14 4.18.02 6.23-.25-.95 2.75-4.24 2.77-6.55 1.97-2.3-.71-4.01-2.48-5.73-4.07-2.74 3.18-7.02 5.8-11.26 3.78-.16-.54-.48-1.64-.64-2.18zM59.1 49.08c1.97.55 3.56 1.83 5.07 3.16 1.54-1.42 3.3-2.56 5.3-3.22-2.07 2.33-3.98 4.81-5.22 7.69-1.25-2.84-3.12-5.31-5.15-7.63z"/>
        <path d="M39.07 49.55c.41.43 1.23 1.29 1.64 1.73.18 1.91-.39 4.27 1.22 5.72 3.5 3.62 7.62 6.88 9.46 11.75 1.29 3.65 3.79 7.08 7.84 7.81-1.92-1.67-4.57-2.68-5.62-5.15-1.27-2.74-2.7-5.4-4.08-8.08 1.98 1.38 3.69 3.17 4.26 5.57 1.14 4.43 6.6 6.73 10.58 4.46 2.53 1.35 5.88 1.17 7.99-.89 2.69-2.08 2.48-5.98 4.99-8.25 1.66 1.3-1.05 3.32-1.28 4.85-.98 3.42-3.79 5.42-6.54 7.35 5.77-1.11 7.83-7.44 9.36-12.28l.69.34c2.02-2.96 4.88-5.15 7.2-7.83 1.58-1.8.44-4.46 1.56-6.48 1.59-.13 1.12 1.75 1.43 2.73.57 2.81.25 5.94-1.97 7.99-2.9 3.07-3.9 7.23-4.86 11.22 3.71-1.15 7.34-2.65 10.53-4.93-1.47 2.14-2 5.62-4.9 6.4-6.14 1.84-13.85 3.18-17.03 9.46.32 3.62 5.18 4.11 6.73 1.14 1.19-1.84-2.86-4.86-.07-.51-1.19 1.08-2.55 1.54-4.1 1.4-1.66-.5-.83-2.46-.86-3.68 4.54-4.39 10.89-5.48 16.67-7.35 3.2-2.22 3.94-6.46 5.45-9.83 5.81-2.03 11.13-5.59 14.39-10.91-.96 3.02-2.19 5.96-3.49 8.85-1.32 3.5-4.9 5.33-7 8.29-2.13 2.91-4.84 5.84-8.62 6.32-2.83.64-6.83-.59-8.38 2.64-1.57 1.6.58 4.78 2.62 4.04 1.3-.12 1.79-1.68 2.61-2.47-1.43.77-4.5 2.95-4.75-.14.29-3.23 3.98-2.9 6.35-3.05 4.59-.07 8.51-3.06 11.04-6.7 2.39-3.55 6.52-5.19 9.46-8.19-1.34 2.87-2.04 6.15-4.08 8.62-3.71 2.21-7.17 4.8-10.51 7.51-3.67 1.52-6.13 4.7-7.79 8.2 2.73-2.5 4.58-5.9 8.03-7.59-1.34 3.29-2.69 6.59-4.12 9.85-7.68-.26-15.38.19-23.04-.28-3.25-.27-5.12-4.81-2.09-6.58l1.04.96c-.11.67-.32 2.01-.42 2.67.49-1.16 1.17-2.23 1.83-3.3-1.25-1.01-2.64-1.66-4.03-.46-.98 0-2.31-1.42-3.19-.43-1.38 1.12-.46 2.77.01 4.07.14-.94.44-2.84.59-3.79 2.25.85 2.21 2.9 2.11 4.9-1.57.86-3.07 2.18-4.96 2.12-7.26.03-14.53.1-21.79 0-1.1-3.1-2.42-6.1-3.76-9.1.08-.24.23-.72.3-.97-3.33-3.08-7.2-5.44-10.89-8.03-1.87-2.46-2.8-5.45-3.88-8.3 2.11 1.89 4.4 3.56 6.7 5.2 2.68 2.34 4.36 5.69 7.42 7.62 3.15 2.27 7.14 1.91 10.77 2.45 2.11.66 2.64 3.51.41 4.49-1.07-.6-2.14-1.2-3.23-1.74.83 1.55 3.16 3.75 4.77 1.82 2.44-1.88-.19-5.55-2.67-5.58-4.05-.16-8.65-.45-11.45-3.83-2.36-2.97-4.84-5.83-7.65-8.38-2.43-3.3-3.66-7.34-5.13-11.14 3.63 4.75 8.44 8.58 14.25 10.25 1.49 3.27 2.07 7.3 5.03 9.64 5.36 2.3 11.74 2.74 16.16 6.92 1.58.91.91 2.85.95 4.3-2.71.52-4.77-.68-5.32-3.39.12.84.35 2.52.46 3.36 1.68.61 3.66 2.09 5.32.63 1.29-1.4 1.09-3.67-.19-5.01-4.13-3.95-9.77-5.5-15.17-6.83-3.05-.65-3.91-4.13-5.32-6.42 3.31 2.02 6.79 3.77 10.55 4.78-1.11-4.59-2.5-9.39-6.23-12.59-1.11-3.24-.79-6.65-.31-9.96m-3 32.27c1.98 1.5 3.27 3.68 5.08 5.35-1.2-2.62-2.8-5.13-5.07-6.97-1.01-.2-3.29 1.13-.01 1.62z"/>
    </g>
    <path fill="#fefefe" d="M37.11 92.78c18.16.03 36.32-.04 54.48.03-.41.61-1.22 1.82-1.63 2.42-17.31-.24-34.66.11-51.95-.17-.23-.57-.68-1.71-.9-2.28z"/>
</svg>
