<svg width="128pt" height="128pt" viewBox="0 0 128 128" xmlns="http://www.w3.org/2000/svg">
    <g fill="#fff">
        <path d="M52.91 32.54c4.07 1.57 8.54-.57 11.28-3.64 2.85 3.03 7.11 5.02 11.29 3.79-.9 3.51-.76 8.05-4.45 9.98-.58-.59-1.75-1.75-2.33-2.34.77-1.45 1.59-2.87 2.38-4.3-1.79 1.41-3.24 3.14-3.23 5.55 1.46.77 2.94 1.52 4.44 2.24-2.05 1.02-4.19.56-6.03-.65-.01-.98-.04-2.94-.05-3.92-.46 1.16-1.08 2.32-1.11 3.6 1.19 2.89 5.29 2.06 6.64 4.84-2.77.35-5.41 1.29-7.42 3.28-2.13-1.83-4.73-2.9-7.49-3.33 1.43-2.53 4.97-2.1 6.54-4.47.28-1.43-.65-2.68-1.23-3.89.06.96.17 2.89.23 3.86-1.89.95-4.09 1.86-6.1.62 2.48-.74 4.6-2.01 4.1-4.87-.93-.96-1.86-1.93-2.79-2.9 1.5 2.19 2.87 5.35-.34 6.74-3.37-2.34-3.36-6.62-4.33-10.19m9.38.67c-.26.69-.76 2.06-1.01 2.74-.6-.14-1.78-.42-2.38-.57.55.42 1.66 1.25 2.21 1.67.77-1.01 1.51-2.04 2.3-3.04 1.27-2.01 2.44 1.08 2.85 2.06.38.21 1.15.62 1.54.83.35-.37 1.05-1.1 1.4-1.47l-1.98.36c-.37-1.68-1.34-2.92-2.92-3.57-.5.25-1.51.74-2.01.99m1.3 3.87c-.47 1.69.05 2.28 1.57 1.76.49-1.68-.04-2.27-1.57-1.76zM93.01 42.12c.08 5.32.51 10.66.13 15.97l-2.88 1.6c.86-3.64.31-7.34-.68-10.89 1.2-2.19 2.31-4.44 3.43-6.68zM35.5 42.31c1.06 2.12 2.19 4.2 3.42 6.23-.89 3.6-1.66 7.3-.64 10.96-.98-.43-1.96-.86-2.95-1.28-.18-5.3-.09-10.61.17-15.91zM64.26 58.36c.85-1.98 2.02-3.79 3.5-5.36-.51 3.32 1.92 5.19 4.33 6.91-.53.61-1.57 1.85-2.09 2.46 1.15 2.01 3.11 3.51 3.99 5.65-.56 3.61-5.29 7.37-8.65 4.6-2.08-1.73.31-5.31 2.79-3.89-.25 1.22-.48 2.44-.69 3.66.46-1.08 2.11-2.04 1.4-3.35-.65-2.02-3.23-2.16-4.63-.82-.75-.42-1.49-.83-2.23-1.24-1.06.71-2.78 1.43-2.41 3.02.49.9 1.19 1.65 1.83 2.45-.28-1.03-.85-3.08-1.13-4.1 2.93-.66 4.78 2.4 2.79 4.61-3.93 2.13-8.39-1.71-8.62-5.7 1.46-1.39 2.78-2.91 4.02-4.5-.63-.97-1.26-1.94-1.91-2.9 2.42-1.72 4.65-3.73 4.3-7.04 1.25 1.77 2.44 3.59 3.41 5.54zM58.96 90.39c1.95-.06 3.65-1.04 5.27-2.03 1.75 1.17 3.72 2.05 5.86 2.08 7.44.35 14.91-.25 22.34.24-.57.81-1.33 1.21-2.27 1.2-17.41-.08-34.82-.05-52.23-.02l-2-1.16c7.67-.56 15.37.17 23.03-.31zM39.84 96.08c16.25-.22 32.51-.21 48.76-.01-2.02 1.02-4.18 1.97-6.5 1.79-12.04-.08-24.08-.06-36.12 0-2.2.15-4.2-.92-6.14-1.78z"/>
    </g>
</svg>
