<svg width="128pt" height="128pt" viewBox="0 0 128 128" xmlns="http://www.w3.org/2000/svg">
    <path fill="#a4a4a4" opacity=".64" d="M53.18 18.34c.36-2.34 4.39-1.54 3.56.78-1.21.94-2.64.16-3.56-.78z"/>
    <g fill="#fdfdfd">
        <path d="M47.84 17.96l4.5-.32.84.7c.92.94 2.35 1.72 3.56.78 2.07 2.97 5.57 4.53 7.77 7.41 3.69 4.87 10.27 6.07 14.33 10.5 2.21 3 3.32 6.62 4.66 10.05-2.45-3.39-5.07-6.73-8.99-8.48 3.26 5.64 5.03 12.22 3.88 18.73-1.31-2.86-.69-6.22-1.4-9.25-.55.53-1.11 1.06-1.68 1.58-.03-1.07.41-1.86 1.33-2.38-1.58-4.34-3.99-8.3-7-11.8-5.47-7.77-13.73-12.85-21.8-17.52zM49.77 87.14c-.49-4.63 2.6-8.75 5.19-12.31-1.24 4.21-4.89 8.87-2.01 13.17 3.51 6.56 11.66 7.25 18.03 9.12 6.32 2.28 4.42 12 11.22 13.73-3.69-.05-7.73.14-10.94-1.99-3.38-2.67-5.69-6.49-9.29-8.92-5-3.1-10.28-6.98-12.2-12.8z"/>
    </g>
</svg>
