<svg width="128pt" height="128pt" viewBox="0 0 128 128" xmlns="http://www.w3.org/2000/svg">
    <path fill="#940f11" opacity=".93" d="M62.08 18.01c3.94-2.84 9.24-1.16 12.3 2.16-2.11.07-4.21.13-6.31.23.01 3.28 1.87 5.94 3.95 8.3 4.3-.9 7.93-3.42 11.92-5.07 4.37-1.52 7.65 2.26 10.77 4.59-.2.19-.61.59-.81.78-1.61.49-3.27-.56-4.86-.1-1.92 2.55-.89 5.83-.54 8.69 2.31.67 4.7 1.03 7.1 1.15.34 2.05.68 4.1 1 6.15-1.77.97-3.4 2.18-4.94 3.47-1.84-3.57-4.54-6.58-7.47-9.28-.51-.36-1.52-1.06-2.02-1.42-7.17-5.17-16.54-7.35-25.2-5.37-9.43 1.79-17.76 8.24-22.1 16.77-2.19-2.85-2.93-6.44-4.61-9.56 2.82-.09 7.64 1.12 8.07-2.91.83-5.25-1.03-12.8 5.14-15.38 1.9-.42 3.82-.72 5.74-1.03-1.13 1.61-3.58 2.85-2.91 5.16 2.14 1.69 4.52 3.65 7.43 3.4 3.73-2.8 4.96-7.67 8.35-10.73z"/>
    <path fill="#1f0303" opacity=".42" d="M43.08 20.19c2.96-.39 6.35-1.44 8.93.65-1.34.74-2.72 1.41-4.07 2.12-.41.59-1.23 1.79-1.64 2.38-.67-2.31 1.78-3.55 2.91-5.16-1.92.31-3.84.61-5.74 1.03l-.39-1.02z"/>
    <path fill="#1e0303" opacity=".46" d="M93.9 29c.35.34 1.07 1.01 1.43 1.34-.72 1.2-1.54 1.3-2.44.28.25-.41.76-1.22 1.01-1.62z"/>
    <g fill="#850e0f">
        <path opacity=".84" d="M23.47 42.95c-.94-5.04 3.41-9.21 7.98-10.3-1.03 1.61-2.04 3.24-3.07 4.85l1.88 2c1.68 3.12 2.42 6.71 4.61 9.56-3.75 7.68-4.65 16.77-1.75 24.89 2.34 7.55 7.93 13.7 14.61 17.75-2.47 3.45-4.83 7-6.83 10.76.86.25 2.57.75 3.42.99-4.25 2.35-8.9-1-10.76-4.85.31-.13.95-.41 1.26-.55 1.29.21 2.58.5 3.86.78.87-2.66 1.66-6.08.05-8.52-4.3-2.76-9.94-.56-14.44-2.64-3.96-2.27-4.49-7.32-3.81-11.41.58 1.09 1.75 3.27 2.34 4.36.97.07 1.95.14 2.92.2 1.41-2.1 3.23-4.25 3.06-6.95-2.91-4.33-9.02-5.23-11.49-9.9-2.09-4.01.43-8.23 3.02-11.26-.14 1.12-.44 3.36-.59 4.48.28.61.84 1.84 1.12 2.45 2.84-.81 6.14-1.76 7.73-4.47-.63-4.49-3.93-7.94-5.12-12.22zM62.52 45.79c.56-1.97 1.12-4 2.71-5.43-.34 1.7-.67 3.4-1.04 5.09 1.82.35 3.67.52 5.48.94-1.72.3-3.43.62-5.14.97.19 8.09.21 16.2.1 24.3-.37 2.58-.98 5.11-1.45 7.67.03-10.76-.27-21.53-.06-32.3-1.55-.2-3.1-.41-4.64-.64l-1.05-.14c.29-.17.88-.5 1.17-.66 1.3-.01 2.61.09 3.92.2z"/>
    </g>
    <path fill="#0e0101" opacity=".4" d="M82.17 37.66c.5.36 1.51 1.06 2.02 1.42-.51-.36-1.52-1.06-2.02-1.42z"/>
    <path fill="#0b0101" opacity=".29" d="M60.88 41.11c1.59-1.03 3.12-3.54 5.3-2.3.47 2.02-.29 4.03-.68 5.99 1.45.12 2.9.15 4.35.26-.04.61-.1 1.84-.13 2.45-1.33.23-2.65.47-3.98.7.01 11.81-.34 23.64.04 35.44 2.77-.26 5.41-1.4 6.16-4.33 1.55-.04 3.1-.06 4.66-.07-1.39.35-2.77.7-4.15 1.05-.46.96-.91 1.92-1.37 2.89-1.81.61-3.61 1.23-5.41 1.87-1.07-4.38-1.04-8.92-1.04-13.4.11-8.1.09-16.21-.1-24.3 1.71-.35 3.42-.67 5.14-.97-1.81-.42-3.66-.59-5.48-.94.37-1.69.7-3.39 1.04-5.09-1.59 1.43-2.15 3.46-2.71 5.43-1.31-.11-2.62-.21-3.92-.2-.29.16-.88.49-1.17.66l-.31.18c.08-.5.23-1.48.31-1.98 1.56.03 3.11.05 4.67.08-.41-1.14-.81-2.28-1.22-3.42z"/>
    <path fill="#860e0f" opacity=".84" d="M95.6 38.74c3.69-.44 8.06.15 10.22 3.56 2.11 2.59 1.56 6.08 1.21 9.15-1.35-1.79-1.48-5.94-4.55-4.99-2.34 1.62-3.18 4.46-4.23 6.95 3.02 3.65 7.67 5.22 11 8.46 3.1 3.96 1.16 9.38-1.86 12.76.06-2.06.14-4.12.22-6.18-3.11-.56-6.04.79-8.14 3.03-.96 5.42 4.33 9.38 4.87 14.53-.33 4.54-4.24 7.87-8.45 8.94 1.37-1.9 3.17-3.79 2.79-6.34-2.95-.78-5.99-.82-8.94-.04-.7 4.18-1.12 8.39-1.27 12.63-.3-4.62-1.7-9.1-4.69-12.7 1.84-1.67 3.48-3.53 5.14-5.37.37-.5 1.1-1.49 1.46-1.99 6.27-9.71 6.91-22.63 1.28-32.78 1.54-1.29 3.17-2.5 4.94-3.47-.32-2.05-.66-4.1-1-6.15z"/>
    <path fill="#040000" opacity=".33" d="M58.48 46.39c1.54.23 3.09.44 4.64.64-.21 10.77.09 21.54.06 32.3-.28 1.86-.61 3.71-.99 5.54-2.16-.65-4.31-1.3-6.46-1.95.33.49 1 1.47 1.34 1.97-2.36-.39-4.69-.9-7.05-1.24.06-1.6.07-3.22.25-4.81.28 1.35.55 2.71.82 4.07 1.25-.2 2.5-.41 3.76-.56 2.48-.3 4.83.71 7.21 1.17.07-11.72-.09-23.44-.13-35.16-1.15-.66-2.3-1.32-3.45-1.97z"/>
    <path fill="#530808" opacity=".54" d="M63.18 79.33c.47-2.56 1.08-5.09 1.45-7.67 0 4.48-.03 9.02 1.04 13.4 1.8-.64 3.6-1.26 5.41-1.87.46-.97.91-1.93 1.37-2.89 1.38-.35 2.76-.7 4.15-1.05-.43 1.33-.84 2.67-1.22 4.01-1.43.43-2.81.97-4.21 1.46-2.84.78-5.58 2.11-7.49 4.41-1.98-1.74-4.23-3.13-6.61-4.24-.34-.5-1.01-1.48-1.34-1.97 2.15.65 4.3 1.3 6.46 1.95.38-1.83.71-3.68.99-5.54z"/>
    <path fill="#630909" opacity=".6" d="M50.27 78.84c1.39.26 2.78.52 4.18.77l.4 2.74c-1.26.15-2.51.36-3.76.56-.27-1.36-.54-2.72-.82-4.07z"/>
    <path fill="#120202" opacity=".42" d="M88.92 83.13c.37-.5 1.1-1.49 1.46-1.99-.36.5-1.09 1.49-1.46 1.99z"/>
    <path fill="#0d0101" opacity=".33" d="M63.68 89.13c1.91-2.3 4.65-3.63 7.49-4.41-2.97 1.64-5.1 4.7-8.49 5.52l1-1.11z"/>
    <path fill="#8b0e10" opacity=".87" d="M79.79 91.32c1.39-.86 2.72-1.8 3.99-2.82 2.99 3.6 4.39 8.08 4.69 12.7l.12.94c-2.54 4.15-7.22 6.17-11.99 5.04 1.06-1.42 2.79-1.87 4.32-2.56-.31-1.56-.71-3.11-.89-4.69-.16-2.87-.24-5.74-.24-8.61z"/>
    <path fill="#930f11" opacity=".92" d="M47.73 91.7c9.8 5.52 22.38 5.29 32.06-.38 0 2.87.08 5.74.24 8.61l.03.96c-2.03-.97-4.08-1.9-6.18-2.7-2.94 3.08-4.94 6.84-7.4 10.27-3.72 4.14-10.19 2.32-13.73-1.12 2.02.07 4.05.17 6.07.3 1.35-3.14-.96-5.94-2.88-8.19-.87-1.4-2.67-.56-3.73.11-2.52 1.26-5.05 2.51-7.43 4.03l-.46-.14c-.85-.24-2.56-.74-3.42-.99 2-3.76 4.36-7.31 6.83-10.76z"/>
    <path fill="#2c0404" opacity=".58" d="M33 98.44c-1.78-2.11 2.74-3.12 1.82-.39-.31.14-.95.42-1.26.55l-.56-.16z"/>
    <path fill="#130101" opacity=".46" d="M52.21 99.56c1.06-.67 2.86-1.51 3.73-.11-1.2 1.14-2.45 1.17-3.73.11z"/>
</svg>
