<svg width="128pt" height="128pt" viewBox="0 0 128 128" xmlns="http://www.w3.org/2000/svg">
    <g fill="#fdfdfd">
        <path d="M77.35 41.99c3.13-3.52 7.03-6.19 10.8-8.96-2.15 3.48-3.43 7.38-4.65 11.26 4.93-.32 9.93-.53 14.77.67-6.22 1.52-12.62 2.79-18.26 5.95-1.58 1.63-3.13 3.7-2.82 6.12.24 1.91-1.34 3.27-2.22 4.76-.09-1.48-.23-2.96-.62-4.4-2.85 1.58-5.65 3.28-8.51 4.83-.17 1.59-.33 3.18-.43 4.78-1.4-.3-2.78-.63-4.17-.93.6 1.17 1.22 2.34 1.87 3.49-.93-.11-2.79-.32-3.72-.43-.69-2.05-2.1-3.9-2.35-6.06 1.76-2.92 3.15-6.12 5.24-8.82 2.09.18 3.22 2.68 4.81 3.91.08-2.02.2-4.04.34-6.06-.98-1.95-1.97-3.9-3.14-5.75 2.03-3.1 4.12-6.17 6.35-9.13.4 2.71.89 5.41 1.4 8.1 1.73-4.18 3.29-8.46 5.42-12.46.02 3.04-.03 6.08-.11 9.13zM83.8 70.38c.89-.91 3.47-.01 2.73 1.39-.89.99-3.61.09-2.73-1.39z"/>
    </g>
</svg>
