<svg width="128pt" height="128pt" viewBox="0 0 128 128" xmlns="http://www.w3.org/2000/svg">
    <g fill="#fdfdfd">
        <path d="M61.14 74.61c1.65-1.33 3.23-2.76 4.86-4.11 1.6 1.35 3.16 2.75 4.82 4.02-1.97 2.34-4.11 4.57-4.81 7.67-.72-3.06-2.75-5.38-4.87-7.58zM61.4 93.36c1 1.22 1.29 3.39 3.17 3.59-3.04 1.47-3.7 4.84-3.42 7.93-2.24.71-4.29 1.84-6.17 3.24 1.57-2.53 2.2-5.77 4.31-7.87-.4-.7-.81-1.39-1.24-2.08.97 3.59-3.21 3.57-5.26 4.55 1.94-1.8 3.9-3.59 5.7-5.54l-1.4-.83c.7.4 2.09 1.18 2.79 1.57.52-1.51 1.03-3.03 1.52-4.56zM70.33 93.24c.67 1.53 1.33 3.07 1.84 4.67.68-.38 2.04-1.15 2.73-1.54l-1.52.87c1.94 1.83 3.89 3.66 5.83 5.48-2.04-1-6.27-.94-5.27-4.56-.43.71-.85 1.43-1.25 2.15 2.18 1.7 2.89 5.26 4.37 7.79-1.99-1.27-4-2.53-6.21-3.38.06-2.14-.12-4.3-1.13-6.24-.7-.02-2.09-.07-2.79-.1 1.25-1.63 2.39-3.34 3.4-5.14z"/>
        <path d="M62.05 101.85c.6-1.51 1.2-3.18 2.97-3.58l.69 2.35c-.12-2.85 2.19-1.57 3.62-1.64.86 3.16.44 6.42.58 9.65-1.23 1.39-2.57 2.69-3.91 3.97-1.34-1.29-2.66-2.59-3.89-3.98.06-2.26.04-4.52-.06-6.77z"/>
    </g>
</svg>
