<svg width="128pt" height="128pt" viewBox="0 0 128 128" xmlns="http://www.w3.org/2000/svg">
    <path fill="#fff" d="M55.09 24.34c2.9-3.54 5.74-7.15 8.91-10.46 3.67 3.53 6.26 8.06 10.21 11.29-.71 1.04-1.4 2.08-2.05 3.14-1.11-1.1-2.21-2.23-3.12-3.52-1.15.08-1.86-.48-2.13-1.66-.58 1.99-.71 4.05-.7 6.11 3.97 2.61 8.86 3.05 12.78 5.73 5.43 3.47 11.42 6.38 15.73 11.31 3.08 3.33 5.51 7.17 8.01 10.93 1.86 2.74 4.21 5.63 7.75 6.01-2.09 2.05-5.06 3.08-6.63 5.7-4.64 6.79-9.06 14.24-16.37 18.51-5.1 2.96-9.8 6.92-15.65 8.34-1.83.61-3.47 1.7-5.34 2.22-.15 1.85-.21 3.71-.24 5.57 2.31.13 3.61-1.89 5.12-3.25 1.64-.75 2.21 1.04 2.54 2.25-3.47 3.61-6.5 7.61-9.93 11.25-3.1-3.43-6.1-6.96-9.08-10.51-1.6-1.3.35-2.82.96-4.09 1.45 1.99 3.14 4.04 5.69 4.56.2-1.94.16-3.89-.05-5.82-1.88-.42-3.45-1.57-5.26-2.16-5.89-1.42-10.61-5.4-15.75-8.37-3.51-1.96-6.23-4.98-8.91-7.91-4.49-5.16-6.9-12.38-13.37-15.58 6.84-3.88 9.4-11.75 14.64-17.2 4.38-5.14 10.52-8.19 16.13-11.74 3.93-2.7 8.85-3.14 12.83-5.77-.02-2.09-.12-4.19-.8-6.19-.16.46-.49 1.37-.66 1.82-.34-.06-1.03-.17-1.37-.23-.8 1.4-1.97 2.52-3.09 3.65-.74-1.13-1.56-2.2-2.44-3.22.41-.18 1.23-.53 1.64-.71m6.82 11.54c-3.34 2.02-7.72 1.5-10.64 4.35-7.45 3.21-14.04 8.5-18.36 15.42 1.94 1.23 3.73 2.66 5.39 4.24 3.22-3 6.18-6.26 9.12-9.53 4.67-3.83 10.54-6.09 16.54-6.67 5.82.52 11.4 2.69 16.06 6.17 3.17 3.39 6.26 6.86 9.66 10.03 1.68-1.57 3.47-3.01 5.42-4.25-5.18-8.53-14.05-13.85-22.85-17.79-3.64.03-6.69-3.53-10.34-1.97m-6.02 16.13c-5.14 3.26-9.43 7.58-13.62 11.95 4.78 4.2 8.97 9.2 14.68 12.22 4.79 1.6 10.16 1.5 14.85-.35 2.75-1.87 5.43-3.92 7.96-6.07 1.56-2.43 4.81-3.62 5.37-6.63-4.51-4.15-8.7-8.82-14.22-11.67-4.86-1.32-10.37-1.78-15.02.55m-30.27 11.8c1.72 1.41 3.36 2.91 5.08 4.31 1.72-1.38 3.43-2.75 5.04-4.25-1.6-1.59-3.33-3.03-5.05-4.48-1.62 1.55-3.27 3.08-5.07 4.42m66.64.02c1.63 1.55 3.23 3.37 5.44 4.07 1.57-1.35 3.04-2.81 4.68-4.09-1.8-1.34-3.45-2.87-5.07-4.42-1.71 1.45-3.44 2.88-5.05 4.44M32.91 72c4.28 7.05 11.11 12.13 18.48 15.6 3.78 2.66 8.5 2.97 12.61 4.82 4.38-1.86 9.33-2.34 13.27-5.19 7.18-3.32 13.61-8.48 17.82-15.24-1.99-1.3-3.87-2.74-5.78-4.15-1.74 2.09-3.72 3.95-5.57 5.94-4.52 6.25-12.26 9.34-19.74 10.14-5.94-.59-11.78-2.73-16.48-6.45-2.85-3.17-5.65-6.41-8.76-9.33-2.18.65-3.77 2.8-5.85 3.86z"/>
</svg>
