<svg width="128pt" height="128pt" viewBox="0 0 128 128" xmlns="http://www.w3.org/2000/svg">
    <path fill="#fdfdfd" d="M64.51 15.74c1.67 8.19 3.14 16.43 4.45 24.69-.41.18-1.23.53-1.64.71-.26 10.93-.84 22.05 1.11 32.86l-1.53.97c-1.31 3.48 3.49 2.11 5.37 2.72-.65.58-1.3 1.15-1.93 1.74-1.03-.52-2.11-.89-3.23-1.12-2.13 1.2-1.33 4.52.98 4.82 3.67.27 6.91-2.73 7.54-6.24.95-2.25-.76-5.37-3.43-4.71.08-4.4.03-8.8.03-13.2-.31-4.71 3.35-8.94 2.3-13.66l-.66.05c-1.56.12-.61 2.37-.5 3.33-.1 1.04-.29 3.11-.39 4.15l-.78-.12c.07-12.04.01-24.08.09-36.12 4 8.48 6.42 17.85 6.66 27.25-.29-1.19-.88-3.55-1.17-4.74-1.42 3.33.16 7.09-1.1 10.49-.84 4.52-3.6 9.39-1.3 13.89-.95-7.34 2.58-14.02 4-21.03 1.22-6.08 1.29-12.33 1.1-18.5.92 4 1.89 8 2.71 12.03 1.29 10.22-5.39 19.19-5.94 29.15 3.01-12.14 10.1-23.78 8.2-36.68l.42-.17.62.1c.24 5.49 1.62 10.9 1.3 16.41-.56 6.24-3.73 11.76-6.75 17.1 5.94-7.18 8.64-16.3 11.67-24.95-.39 7.62-1.44 15.55-5.69 22.09-1.69 3.48-4.7 5.96-7.15 8.86 7.8-5.23 12.02-13.99 15.78-22.28-.5 4.78-1.61 9.56-3.85 13.83-1.37 2.69-3.9 4.45-5.91 6.62 4.78-2.7 8.91-6.37 12.82-10.19-2.02 3.72-4.29 7.32-6.51 10.93 2.44-1.3 4.74-2.85 6.98-4.48-2.48 3.54-5.12 6.96-7.88 10.29 1.94.22 3.88.41 5.83.55-1.7 1.02-3.36 2.1-5 3.19 1.11.89 2.2 1.81 3.27 2.75-2.03.48-4.12.69-6.2.83.42 1.01 1.26 3.02 1.67 4.03-1.97-.35-3.94-.72-5.9-1.14.61 1.42 1.13 2.88 1.71 4.32l-4.45-1.24c.11 1.76.21 3.53.3 5.3-.77-1.09-1.59-2.14-2.33-3.23.87 3.77-2.13 6.39-5.26 7.72 2.76-2.29 3.18-7.38-.23-9.23-2.6-1.62-5.59-.35-8.12.68.39.31 1.19.94 1.59 1.26-1.19.9-2.92 1.71-2.94 3.46-.8 6.11 1.36 12.09.97 18.21-.8.94-1.47 1.97-2.01 3.08-.41-13.04-.09-26.1-.21-39.16.71-19.41.26-38.85.52-58.27m11.58 24.28c1.81-2.59-.11-5.58-.63-8.27.17 2.76.47 5.51.63 8.27z"/>
    <path fill="#e7e7e7" opacity=".91" d="M73.37 48.7c-.11-.96-1.06-3.21.5-3.33.94 1.12.95 2.24.03 3.37l-.53-.04z"/>
</svg>
