<svg width="128pt" height="128pt" viewBox="0 0 128 128" xmlns="http://www.w3.org/2000/svg">
    <path fill="#100101" opacity=".4" d="M65.06 16.98c.41-.98 1.12-1.55 2.13-1.73.02 2.62-.22 5.23-.24 7.86.4.15 1.21.45 1.62.61l.01.04c-.6 7.78-2.48 15.33-4.42 22.86l3.19-.04.72 3.06c-.77.11-2.29.34-3.05.45.82-.76 1.63-1.52 2.44-2.29-.67 0-2.02-.01-2.7-.01-1.52 3.46-1.35 7.45-.93 11.13 1.37 7.37 3.83 14.47 5.94 21.64 2.59-8.49-4.86-16.02-3.57-24.45 1.27-5.4 7.67-10.31 4.68-16.16-.55-.14-1.64-.43-2.18-.57.17 1.71.44 3.42.76 5.11-.69-1.1-1.44-2.17-2.17-3.25.57-1.61 1.99-3.6 3.92-2.56 3.34 4.21.48 9.3-1.62 13.31 1.72.09 3.44.19 5.17.28-.47-1.25-.93-2.5-1.38-3.76 1.93 1.22 2.23 3.18 1.51 5.22.33 1.08.63 2.17.91 3.27 1.21 3.07-3 5.57-1.33 8.6.69 1.61 2.54.92 3.77.57l-.04-3.04-2.97.69c1.17-1.41 2.31-2.84 3.4-4.31.42.01 1.27.03 1.69.03.22.5.64 1.48.85 1.97l-2.82-1.09c.49 1.55.97 3.1 1.49 4.64-1.27 1.24-2.64 3.31-4.71 2.6-2.37-.19-2.32-3.01-2.85-4.74-1.44-1.01-3.76-1.77-3.38-3.97-.03-1.64 1.62-2.4 2.62-3.4-.77 1.73-2.26 6.17 1.25 5.14 4.34-1.56.77-9.18-3.46-7.41-2.7 2.75-2.13 7.1-.98 10.44.34 2.35 3.49 1.97 4.36 4.01-.69-.09-2.08-.28-2.77-.37.42 1.93.83 3.85 1.22 5.78 1.67-2.45 3.99-4.15 7.11-3.74.56.9 1.13 1.8 1.71 2.7 1.06 2.57 3.71 2.05 4.84-.21-.26.92-.54 1.85-.82 2.77-3.44-.32-6.38 4.25-9.42 1.09 1.35-.05 2.7-.03 4.05-.17 1.78-1.3-.12-3.42-.67-4.88-1.72.51-4.05.59-4.73 2.62-2.37 5.54-2.45 11.7-3.59 17.55-.86 3.45-1.7 6.92-1.88 10.48 1.53-.96 3.03-1.98 4.5-3.05.06-.9.12-1.8.19-2.71 1.94 1.43 3.77.72 4.87-1.31-2.42-.5-4.45-1.72-4.94-4.32.35-.18 1.07-.56 1.42-.75.35.98.7 1.95 1.04 2.93.6-.72 1.21-1.44 1.81-2.16-1.12-1.82-3.51-3.55-2.68-5.93 1.01-4.36 6.55-4.08 9.4-6.75.76 1.16 1.47 2.36 2.12 3.6-1.26-.76-2.51-1.53-3.76-2.3.81 3.49 3.07 6.58 2.65 10.31-4.67 4.83-9.36 9.74-15.08 13.34-2.15 1.14-2.79 3.52-3.38 5.69 6.24-3.37 12.07-7.41 17.38-12.12-3.46 8.13-12.65 11.09-19.26 16.08-.91-.77-1.95-1.65-3.16-.78-2.67-3.75-7.23-5.28-10.44-8.47-8.8-6.86-13.21-19.74-8.23-30.1-.23 1.68-.47 3.36-.71 5.03-1.01 4.33-.42 8.86 1.35 12.9 1.36 3 3.44 5.61 5.94 7.73 3.74 3.2 7.29 6.67 11.46 9.33.64-2.29 2.3-4.99.69-7.24-2.89-3.32-7.76-2.82-11.33-4.89-2.52-1.54-3.04-4.71-2.82-7.43.81-1.96 1.69-4.01 1.31-6.19-2.4-.8-2.34 1.83-2.96 3.36-.1-1.35-.18-2.7-.3-4.05.52-.26 1.56-.79 2.09-1.05 1.88 1.08 2.37 3.2 2.89 5.15 2.06.71 4.95.77 5.75 3.23 1 1.76-.12 3.75-1.75 4.6-1.36 1.44-2.59-.77-3.54-1.52 1.32-.15 2.65-.29 3.97-.43-.35-2.78-2.58-4.25-5.26-4.19-.67 2.08-1.36 4.82.82 6.28 4.2 2.86 10.69 1.58 13.31 6.76.31-6.98-6.5-10.89-9.31-16.59-.57-1.71-.78-3.51-1.25-5.25-1.31-.53-1.83.98-2.62 1.69l-.08-2.39c1.5-.71 2.98-1.46 4.45-2.25-.23 3.03-.44 6.28 1.54 8.84 1.97 3.06 4.92 5.3 7.01 8.26 2.16 2.93 1.46 6.75 1.6 10.14 1.25-3.05 2.73-6.1 3.17-9.41.3-2.59-1.28-4.82-2.79-6.76-.52.22-1.56.65-2.08.86.67 1.02 1.33 2.04 1.99 3.06-3.6 2.39-4.46-5.3-.75-5.29 1.97-.1 2.81 1.97 4.01 3.13-.09-1.61-.15-3.22-.4-4.82-1.73-5.74-2.38-11.93-5.47-17.18-.47.83-1.42 2.49-1.89 3.32-.25-.61-.75-1.83-1.01-2.45l3.66-1.59c-.75-3.64-1.23-8.44-4.98-10.22-3.59-1.5-4.92 3.98-2.17 5.71.99-.1 2.96-.31 3.95-.41-2.52 2.53-6.12.68-9.21.99-.09-1.25-.1-2.53.6-3.63.1.68.29 2.05.38 2.73l1.36.04c.27-2.16.76-4.31 2.12-6.07-.86-2.39-.96-4.93.32-7.2 1.42.33 3.48-.26 4.14 1.46.78.96-.63 2.02-.86 2.94-.13-.84-.38-2.54-.5-3.38-2.78.03-2.79 2.83-2.7 4.89 2.49.71 4.82 1.87 6.79 3.57-.28-5.12.02-11.34-3.72-15.3-.34.86-1.02 2.6-1.36 3.47-.55-1.74.58-3.13 1.44-4.49.02-.72.07-2.18.1-2.9.56-.47 1.68-1.39 2.24-1.86-2.07 4.23.8 8.21 1.87 12.22 1.53-8.57 3.01-17.17 3.41-25.89.24-1.73-.41-3.36-1.04-4.94m11.08 66.2c-1.07 1.44-.43 2.98.4 4.33.54.07 1.61.22 2.14.29.28-1.37.24-2.91 1.21-4.03.22 1.8 1.28 4.28-.89 5.32-1.56.85-1.68 2.66-1.9 4.22 1.76-1.24 3.45-2.63 4.8-4.33 1.89-1.79.51-4.54-.33-6.5-1.52-.94-4.56-1.23-5.43.7z"/>
    <path fill="#710c0c" opacity=".78" d="M65.06 16.98c.63 1.58 1.28 3.21 1.04 4.94-.4 8.72-1.88 17.32-3.41 25.89-1.07-4.01-3.94-7.99-1.87-12.22-.56.47-1.68 1.39-2.24 1.86-.39.19-1.19.58-1.58.78 2.15-7.27 7.24-13.52 8.06-21.25z"/>
    <path fill="#720c0c" opacity=".76" d="M64.16 46.62c1.94-7.53 3.82-15.08 4.42-22.86 3.9 10.07 6.5 20.65 11.41 30.32 2.03 5.02 4.37 10.08 5.4 15.38-.07.36-.22 1.08-.3 1.44-1.95-2.02-4.07-.97-5.13 1.2-.58-.9-1.15-1.8-1.71-2.7-3.12-.41-5.44 1.29-7.11 3.74-.39-1.93-.8-3.85-1.22-5.78.69.09 2.08.28 2.77.37-.87-2.04-4.02-1.66-4.36-4.01-1.15-3.34-1.72-7.69.98-10.44 4.23-1.77 7.8 5.85 3.46 7.41-3.51 1.03-2.02-3.41-1.25-5.14-1 1-2.65 1.76-2.62 3.4-.38 2.2 1.94 2.96 3.38 3.97.53 1.73.48 4.55 2.85 4.74 2.07.71 3.44-1.36 4.71-2.6-.52-1.54-1-3.09-1.49-4.64l2.82 1.09c-.21-.49-.63-1.47-.85-1.97-.42 0-1.27-.02-1.69-.03-1.09 1.47-2.23 2.9-3.4 4.31l2.97-.69.04 3.04c-1.23.35-3.08 1.04-3.77-.57-1.67-3.03 2.54-5.53 1.33-8.6-.28-1.1-.58-2.19-.91-3.27.72-2.04.42-4-1.51-5.22.45 1.26.91 2.51 1.38 3.76-1.73-.09-3.45-.19-5.17-.28 2.1-4.01 4.96-9.1 1.62-13.31-1.93-1.04-3.35.95-3.92 2.56.73 1.08 1.48 2.15 2.17 3.25-.32-1.69-.59-3.4-.76-5.11.54.14 1.63.43 2.18.57 2.99 5.85-3.41 10.76-4.68 16.16-1.29 8.43 6.16 15.96 3.57 24.45-2.11-7.17-4.57-14.27-5.94-21.64-.42-3.68-.59-7.67.93-11.13.68 0 2.03.01 2.7.01-.81.77-1.62 1.53-2.44 2.29.76-.11 2.28-.34 3.05-.45l-.72-3.06-3.19.04z"/>
    <path fill="#65090c" opacity=".78" d="M57 38.23c.39-.2 1.19-.59 1.58-.78-.03.72-.08 2.18-.1 2.9-.86 1.36-1.99 2.75-1.44 4.49.34-.87 1.02-2.61 1.36-3.47 3.74 3.96 3.44 10.18 3.72 15.3-1.97-1.7-4.3-2.86-6.79-3.57-.09-2.06-.08-4.86 2.7-4.89.12.84.37 2.54.5 3.38.23-.92 1.64-1.98.86-2.94-.66-1.72-2.72-1.13-4.14-1.46-1.28 2.27-1.18 4.81-.32 7.2-1.36 1.76-1.85 3.91-2.12 6.07l-1.36-.04c-.09-.68-.28-2.05-.38-2.73-.7 1.1-.69 2.38-.6 3.63 3.09-.31 6.69 1.54 9.21-.99-.99.1-2.96.31-3.95.41-2.75-1.73-1.42-7.21 2.17-5.71 3.75 1.78 4.23 6.58 4.98 10.22l-3.66 1.59c.26.62.76 1.84 1.01 2.45.47-.83 1.42-2.49 1.89-3.32 3.09 5.25 3.74 11.44 5.47 17.18l-4.02.75c.33-1.36.67-2.71.92-4.08-.1-2.5-.19-5.35-2.2-7.15-1.19-.6-2.46-1.01-3.71-1.47-.66-1.84-.92-3.95-2.24-5.47-1.49-1.78-4.02-.7-6-.87.07-.55.22-1.65.29-2.2-.52.31-1.58.92-2.1 1.22-.65-1.37-1.3-2.73-1.94-4.11 3.44-7.01 6.09-14.43 9.89-21.26l.52-.28z"/>
    <path fill="#4f0806" opacity=".72" d="M42.19 72.55c.72-4.48 2.69-8.61 4.4-12.78.64 1.38 1.29 2.74 1.94 4.11 1.57 2.94 4.21 9.27-1.01 9.98-.52-.91-1.04-1.82-1.57-2.73 1.19.23 2.37.45 3.55.66-.61-1.21-1.87-2.55-3.37-1.87-2.07 1.1-.97 3.57-.2 5.16 1.25-.04 2.5-.08 3.75-.11 1.72-1.96 3.61-3.76 5.65-5.39-1.19.12-2.38.24-3.57.35.12-1.59-.39-4.6 2.18-3.81 3.06 1.02 1.84 4.64 1.77 7.02 2.66-.36 6.29.34 6.63 3.58.59 2.29-1.78 3.85-3.82 2.96.08-1.36.13-2.73.16-4.1-1.65.95-1.7 2.83-1.93 4.5-.26 1.31-.56 2.61-.92 3.9-1.98-2.56-1.77-5.81-1.54-8.84-1.47.79-2.95 1.54-4.45 2.25-.32.15-.97.46-1.29.61-.83-.32-1.67-.63-2.5-.94-.61.51-1.21 1.02-1.82 1.53-.12-1.13-.24-2.27-.35-3.41-.65.94-1.08 2.25-2.4 2.4.24-1.67.48-3.35.71-5.03z"/>
    <path fill="#170202" opacity=".51" d="M48.53 63.88c.52-.3 1.58-.91 2.1-1.22-.07.55-.22 1.65-.29 2.2 1.98.17 4.51-.91 6 .87 1.32 1.52 1.58 3.63 2.24 5.47 1.25.46 2.52.87 3.71 1.47 2.01 1.8 2.1 4.65 2.2 7.15-2.42 1.85-5.19 1.83-7.74.26.23-1.67.28-3.55 1.93-4.5-.03 1.37-.08 2.74-.16 4.1 2.04.89 4.41-.67 3.82-2.96-.34-3.24-3.97-3.94-6.63-3.58.07-2.38 1.29-6-1.77-7.02-2.57-.79-2.06 2.22-2.18 3.81 1.19-.11 2.38-.23 3.57-.35-2.04 1.63-3.93 3.43-5.65 5.39-1.25.03-2.5.07-3.75.11-.77-1.59-1.87-4.06.2-5.16 1.5-.68 2.76.66 3.37 1.87-1.18-.21-2.36-.43-3.55-.66.53.91 1.05 1.82 1.57 2.73 5.22-.71 2.58-7.04 1.01-9.98z"/>
    <path fill="#3d0606" opacity=".56" d="M79.96 72.1c1.06-2.17 3.18-3.22 5.13-1.2l-.29.99c-1.13 2.26-3.78 2.78-4.84.21z"/>
    <path fill="#590a0a" opacity=".63" d="M85.39 69.46c1.36 2.27 1.43 5.03 1.94 7.56.32 4.52 1.02 9.35-1.09 13.57l-1.88-1.68c.42-3.73-1.84-6.82-2.65-10.31 1.25.77 2.5 1.54 3.76 2.3-.65-1.24-1.36-2.44-2.12-3.6-2.85 2.67-8.39 2.39-9.4 6.75-.83 2.38 1.56 4.11 2.68 5.93-.6.72-1.21 1.44-1.81 2.16-.34-.98-.69-1.95-1.04-2.93-.35.19-1.07.57-1.42.75-.21-.51-.61-1.55-.81-2.07-.4 1.73-.81 3.46-1.24 5.18-.17-.55-.51-1.65-.69-2.2 1.14-5.85 1.22-12.01 3.59-17.55.68-2.03 3.01-2.11 4.73-2.62.55 1.46 2.45 3.58.67 4.88-1.35.14-2.7.12-4.05.17 3.04 3.16 5.98-1.41 9.42-1.09.28-.92.56-1.85.82-2.77l.29-.99c.08-.36.23-1.08.3-1.44z"/>
    <path fill="#380505" opacity=".62" d="M41.48 77.58c1.32-.15 1.75-1.46 2.4-2.4.11 1.14.23 2.28.35 3.41.61-.51 1.21-1.02 1.82-1.53.83.31 1.67.62 2.5.94.32-.15.97-.46 1.29-.61l.08 2.39c.79-.71 1.31-2.22 2.62-1.69.47 1.74.68 3.54 1.25 5.25 2.81 5.7 9.62 9.61 9.31 16.59-2.62-5.18-9.11-3.9-13.31-6.76-2.18-1.46-1.49-4.2-.82-6.28 2.68-.06 4.91 1.41 5.26 4.19-1.32.14-2.65.28-3.97.43.95.75 2.18 2.96 3.54 1.52 1.63-.85 2.75-2.84 1.75-4.6-.8-2.46-3.69-2.52-5.75-3.23-.52-1.95-1.01-4.07-2.89-5.15-.53.26-1.57.79-2.09 1.05.12 1.35.2 2.7.3 4.05.62-1.53.56-4.16 2.96-3.36.38 2.18-.5 4.23-1.31 6.19-.68.8-1.38 1.58-2.08 2.36-.46.03-1.39.11-1.86.14-1.77-4.04-2.36-8.57-1.35-12.9z"/>
    <path fill="#430707" opacity=".6" d="M56.75 80.08c2.55 1.57 5.32 1.59 7.74-.26-.25 1.37-.59 2.72-.92 4.08l4.02-.75c.25 1.6.31 3.21.4 4.82-1.2-1.16-2.04-3.23-4.01-3.13-3.71-.01-2.85 7.68.75 5.29-.66-1.02-1.32-2.04-1.99-3.06.52-.21 1.56-.64 2.08-.86 1.51 1.94 3.09 4.17 2.79 6.76-.44 3.31-1.92 6.36-3.17 9.41-.14-3.39.56-7.21-1.6-10.14-2.09-2.96-5.04-5.2-7.01-8.26.36-1.29.66-2.59.92-3.9z"/>
    <path fill="#4f0909" opacity=".6" d="M76.14 83.18c.87-1.93 3.91-1.64 5.43-.7.84 1.96 2.22 4.71.33 6.5-1.35 1.7-3.04 3.09-4.8 4.33.22-1.56.34-3.37 1.9-4.22 2.17-1.04 1.11-3.52.89-5.32-.97 1.12-.93 2.66-1.21 4.03-.53-.07-1.6-.22-2.14-.29-.83-1.35-1.47-2.89-.4-4.33z"/>
    <path fill="#2e0404" opacity=".52" d="M44.69 90.34c.7-.78 1.4-1.56 2.08-2.36-.22 2.72.3 5.89 2.82 7.43 3.57 2.07 8.44 1.57 11.33 4.89 1.61 2.25-.05 4.95-.69 7.24-4.17-2.66-7.72-6.13-11.46-9.33-2.5-2.12-4.58-4.73-5.94-7.73.47-.03 1.4-.11 1.86-.14z"/>
    <path fill="#3d0507" opacity=".5" d="M70.31 93.07c.43-1.72.84-3.45 1.24-5.18.2.52.6 1.56.81 2.07.49 2.6 2.52 3.82 4.94 4.32-1.1 2.03-2.93 2.74-4.87 1.31-.07.91-.13 1.81-.19 2.71-1.47 1.07-2.97 2.09-4.5 3.05.18-3.56 1.02-7.03 1.88-10.48.18.55.52 1.65.69 2.2z"/>
    <path fill="#410507" opacity=".5" d="M84.36 88.91l1.88 1.68c-.86 1.8-1.46 3.83-2.96 5.23-5.31 4.71-11.14 8.75-17.38 12.12.59-2.17 1.23-4.55 3.38-5.69 5.72-3.6 10.41-8.51 15.08-13.34z"/>
</svg>
