<svg width="128pt" height="128pt" viewBox="0 0 128 128" xmlns="http://www.w3.org/2000/svg">
    <g fill="#fdfdfd">
        <path d="M60.85 39.37c-.02-1.36-.26-2.84.78-3.93-.58 3.81 2.54 6.77 2.26 10.59-1.38 2.1-.15 4.52-.03 6.77l-1.8.32c2.02 2.47 1.77 5.77 1.94 8.76-.6.04-1.8.11-2.4.15.57.23 1.71.68 2.29.9-.48 2.16-.93 4.33-1.37 6.49-2.32-3.16-1.7-7.13-2.27-10.79-.46.01-1.38.02-1.84.02.25-.61.49-1.23.73-1.84-.13-2.22.59-4.47-.21-6.63 1.16-.36 2.28-.83 3.29-1.5-1.57.39-3.16.23-4.71-.16-.69-2.95-.27-6.21.98-8.9.59-.07 1.77-.19 2.36-.25z"/>
        <path d="M67.13 42.24c3.31-1.96 4.75 2.42 5.29 4.87 1.72 6.05-1.98 11.91-.67 17.95-1.28 3.38 2.68 7.02-.09 9.89 1.57 1.05 2.87 2.44 4.16 3.81-.82-1.72-2.82-3.41-1.77-5.44.6.04 1.8.11 2.4.15 1.72-3.62 1.37-7.82-.39-11.35 1.03.18 3.07.54 4.1.71-1.43-1.38-3.43-1.17-5.25-1.21-1.76-3.91.28-7.91.6-11.88 2.48 2.96 5.86 5.98 5.64 10.19-.1 2.71.57 5.7-1.03 8.12-.93 1.43-1.08 3.14-1.25 4.8-.29.42-.88 1.25-1.18 1.67 2.63 1.56 4.65 3.83 5.98 6.57-.64 1.14-1.28 2.28-1.91 3.42-5.97-.39-11.85-1.78-17.74-2.73-2.59.53-4.57-1.48-6.77-2.43 1.2 1.4 2.5 2.71 3.83 3.99 7.07-1.79 13.76 2.43 20.65 3.07.95 1.7-.1 3.58-.22 5.34.51.21 1.51.63 2.01.84-.02 2.28-.59 4.43-2.25 6.12.39-2.23 1.49-4.65-.12-6.66-.73 3.29-.83 6.57-.48 9.88-1.81 4.57-6.76 6.78-10.66 9.31-1.06-1.66-2.08-3.35-3.01-5.09.61-3.5.22-7.09 1.04-10.55-2.43-4.19-4.94-9.36-9.95-10.81 1.13 1.51 2.31 2.98 3.44 4.48 1.75.21 2.72 1.66 3.62 3 .38 2.48 1.5 4.87.91 7.42-1.63-3.18-3.95-5.96-6.94-7.95 1.43 2.07 3.28 3.88 4.43 6.14.3 3.02.27 6.09 0 9.11-.96 1.03-2.14 1.82-3.24 2.69-3.03-2.33-6.62-4.07-9.04-7.09-2.27-2.8-.42-6.44-.17-9.6 1.22-3.39-1.98-6.01-1.58-9.42 1.22.73 2.4 1.53 3.62 2.26.04-.45.12-1.36.17-1.82 1.24.14 2.48.26 3.73.38-1.59-.97-3.39-1.47-5.25-1.53-.54-1.18-.9-2.41-.49-3.69-.94-1.32-1.68-2.77-1.87-4.4 1.14-.84 2.29-1.66 3.48-2.44-.92-1.55-1.9-3.06-2.95-4.53.17-2.62.42-5.23.76-7.84.44-1.51-.53-2.65-1.74-3.37.13-1.75.27-3.57-.56-5.18-.82-2.73 1.36-5.11 2.65-7.29 1.19.68 2.41 1.33 3.57 2.06.32 3.82.27 7.68.91 11.47-.53-.02-1.59-.05-2.12-.07 3.01 4.43-.37 9.5.44 14.34 2.23-.75 3.08 1.32 4.53 2.41 3.37 1.17 6.59 2.92 10.21 3.18-2.86-1.65-6.01-2.72-9.13-3.78-.2-.43-.6-1.29-.8-1.73 2.45-.35 4.93-.41 7.38-.76 1.53 1.03 3.1 2 4.71 2.92l-.76-3.04c-1.63-1.71-1.64-4.18-2.15-6.34.67.54 2.03 1.61 2.71 2.15-2.87-4.86-.53-11.3-3.36-16.18-2.21-2.3-1.24-5.94-.08-8.51m3.39 51.97c1.42 2 3.66 2.97 5.99 3.44-1.76-1.52-3.87-2.53-5.99-3.44zM37.6 71.13c1.74-.56 3.14-1.74 4.47-2.95.14.56.43 1.68.57 2.24-.94.47-1.86.96-2.78 1.47 2.74.13 4.44 2.53 5.23 4.87.72 3.15-.88 6.16-1.31 9.24-1.16-1.58-2.24-3.27-3.88-4.4.96 1.65 2.05 3.22 2.9 4.94-2 2.81-.21 5.62 1.1 8.22-1.41.35-2.73-.21-2.93-1.76-.88-3.36-1.44-6.96-3.53-9.83.5-1.44 1.04-2.87 1.69-4.24-1.16-2.44-1.68-5.1-1.53-7.8zM44.82 95.41c.27-1.47.48-2.95.69-4.42.29 1.61.56 3.27 1.54 4.63.42 1.7 1.23 3.26 1.94 4.86-1.84-1.27-2.83-3.35-4.17-5.07z"/>
        <path d="M64.99 111.77c-.77-1.09-.13-2.93 1.03-3.46 1.64.55.87 4.35-1.03 3.46z"/>
    </g>
</svg>
