<svg width="128pt" height="128pt" viewBox="0 0 128 128" xmlns="http://www.w3.org/2000/svg">
    <g fill="#fdfdfd">
        <path d="M58.27 13.87c3.08 6.21 5.65 13.64 2.09 20.24-2.87-3.01-3.73-7.04-3.53-11.1.4.47 1.2 1.4 1.6 1.86.5-3.66.23-7.34-.16-11zM48.76 30.95c.68-3.95 1.55-7.89 2.63-11.76.01 3.43 1.32 6.83.74 10.25-.52 1.38.33 2.71 1.32 3.61-.73 2-1.26 4.07-1.62 6.18-1.47-2.57-2.49-5.39-3.07-8.28zM67.28 31.98c1.75-2.62 1.19-5.83 1.54-8.79.71 2.26 1.57 4.49 2.11 6.81.34 2.19-1.31 3.96-2.2 5.8-.47-1.28-.96-2.55-1.45-3.82zM78.75 32c-.04 1.1-.07 2.2-.11 3.3 1.68.38 1.24 2.4 1.13 3.67-.86 2.27-1.73 4.55-2.37 6.9-.52-2.69-1.4-5.31-1.65-8.05.68-2.09 1.89-3.94 3-5.82zM39.59 55.68c.49-2.04.07-4.08.14-6.13 1.11 2.1 2.03 4.32 2.4 6.68-.29 1.99-1 3.89-1.58 5.81-1.32-2.49-2.41-5.11-2.85-7.91l1.89 1.55z"/>
    </g>
    <path fill="#b4b4b4" opacity=".71" d="M52.13 29.44c1.77-.94 2.61 2.26 1.81 3.45l-.49.16c-.99-.9-1.84-2.23-1.32-3.61z"/>
</svg>
