<svg width="128pt" height="128pt" viewBox="0 0 128 128" xmlns="http://www.w3.org/2000/svg">
    <g fill="#981011">
        <path opacity=".95" d="M50.96 18.73c8.8-2.11 18.33-2.61 26.94.56.66.12 1.97.37 2.63.49-.76.27-2.28.8-3.04 1.06-2.28-.59-4.58-1.08-6.89-1.56l-.6 5.55-1.62-.04c-1.18-.3-2.35-.62-3.52-.96-.02 1.43-.05 2.86-.07 4.28 3.21.71 6.5.89 9.75 1.29 1.49.54 2.96 1.14 4.42 1.76 1.07.8 2.1 1.64 3.14 2.48-.71-.03-2.12-.08-2.83-.11l-.61-.16c-4.45-3.39-10.35-3.47-15.69-3.55-3.27-.11-6.5.52-9.49 1.83-7.06 2.08-12.84 6.78-17.5 12.34-1.36 1.36-3.15 2.63-3.41 4.7-.46.99-.1 3.14-1.71 2.83l.6-1.57c.77-1.53 1.62-3.03 2.47-4.53l-2.76-1.29c.7.15 2.09.45 2.78.6 1.26-1.94 2.91-3.66 3.77-5.83-1.03-1.48-2.39-2.67-3.69-3.9.88-.53 1.74-1.08 2.6-1.66.18.23.54.69.73.92.17 1.36.66 2.62 1.33 3.81 1.67-1.29 3.33-2.61 5.13-3.72 2.99-.07 1.29-3.49-.49-4.15 0-.61-.01-1.81-.01-2.41 1.21-.49 2.42-.96 3.64-1.41l.7-.13c-.04-1.11-.06-2.23-.06-3.34l.41-.24c.59 1.53 1.18 3.06 1.79 4.59-1.48.55-2.97 1.1-4.45 1.63.11.75.33 2.25.44 2.99 2.25-.41 4.46-1.03 6.6-1.83l2.07-.84c-.57-1.73-1.15-3.46-1.72-5.2l.8-.33c1.47-.06 2.93-.11 4.4-.15-.2-1.5-.3-3.01-.53-4.51-1.64.54-3.27 1.09-4.92 1.57-.15.03-.45.11-.6.15-1.04-.01-3.11-.04-4.15-.05.83-.5 1.66-1.01 2.49-1.52l.73-.44m7.82.16c.18 1.97.37 3.94.57 5.91l-.76.37c-1-.13-2.98-.38-3.98-.51.13 1.59.35 3.19.98 4.68 2.56-.56 5.14-1.04 7.73-1.43-.02-1.62-.05-3.23-.07-4.85 1.91-.06 3.82-.13 5.72-.21.07-1.32.13-2.64.19-3.96-3.46-.03-6.92-.03-10.38 0zM68.7 68.72c2.11-1.58 3.68-3.73 5.51-5.6.83 4.43-1.11 8.84-.04 13.26-1.25 1.3-2.56 2.54-3.91 3.74-1.58-.23-3.89 1.62-1.84 2.82 1.09.88 2.17 1.78 3.24 2.69-.49.97-.96 1.96-1.39 2.96-1.6 2.76-1.32 5.97-.98 9.01.99.47 1.97.92 2.97 1.37-2.45.28-4.89.65-7.33.99v5.16c-1.82-.01-3.64.01-5.46.02-.15 1.32-.29 2.64-.44 3.96 3.4.02 6.79-.12 10.18-.01 1.11.34 2.22.7 3.32 1.07-6.51.94-13.39 1.24-19.75-.67-1.57-.73-3.13-1.48-4.69-2.22 1.1.01 2.21.02 3.31.04l.32.01c1.94.45 3.83 1.05 5.73 1.63.28-1.83.58-3.65.84-5.47 1.65.07 3.3.14 4.95.22-.02-1.25-.03-2.5-.04-3.74-2.7-.36-5.41-.71-8.12-.96-.03.87-.08 2.61-.1 3.48-.28-1.44-.64-2.87-1.04-4.28l-2.08-.56c-.72-.18-2.15-.53-2.86-.71 3.3-.44 6.56.29 9.75 1.02.43-4.58-.89-9.03-.98-13.56.49-.37 1.46-1.09 1.95-1.45 1.87-1.12-.53-2.82-1.79-3.08-.74-.49-1.46-.99-2.16-1.53-.09-4.08-.59-8.33 1.09-12.19.99 1.04 1.98 2.07 2.98 3.1 2.95-.11 5.99.3 8.86-.52z"/>
    </g>
    <g fill="#370605">
        <path opacity=".54" d="M46.79 19.73c1.12-.34 2.26-.53 3.44-.56-.83.51-1.66 1.02-2.49 1.52 1.04.01 3.11.04 4.15.05-1.31.61-2.6 1.25-3.88 1.93l-.41.24c0 1.11.02 2.23.06 3.34l-.7.13c-.37-.59-1.12-1.76-1.49-2.35-2.56.85-4.88 2.25-7.13 3.73.88 1.4 1.83 2.77 2.52 4.28-.25 1.73-2.29 1.6-3.5 2.22-.19-.23-.55-.69-.73-.92-.05-1.19-.11-2.38-.18-3.58-2.71 1.24-4.72 3.46-6.66 5.64 1.21 1.22 2.36 2.49 3.63 3.65-.77 1.68-1.48 3.39-2.25 5.08l2.76 1.29c-.85 1.5-1.7 3-2.47 4.53l-.24-3.12c-1.37-.87-2.78-1.66-4.18-2.47.88-1.73 1.81-3.44 2.76-5.14-.66-.27-1.33-.52-2.03-.69-1.99 1.96-2.98 4.62-3.88 7.2 1.34.71 2.67 1.47 4.01 2.21-.23 1.8-.46 3.6-.61 5.41 1.23-.81 2.23-1.9 3.06-3.11l.51 1.28c1.61.31 1.25-1.84 1.71-2.83.26-2.07 2.05-3.34 3.41-4.7-1.19 4.48-4 8.39-4.73 13.02-2.17 8.87.23 18.2 4.83 25.89-1.52-1.03-3.11-1.93-4.71-2.83-.74-1.55-1.46-3.12-2.16-4.7-1.78.11-3.56.24-5.34.36-.52-1.73-1.06-3.45-1.58-5.17l-2.25 1.11c.72 2.59 1.39 5.2 1.96 7.83 1.95-.43 3.92-.77 5.89-1.1.58 1.42 1.15 2.85 1.81 4.24l1.25 1.97c-.79.48-1.57.96-2.36 1.45-1.02-1.56-2.05-3.12-3.06-4.68-.73.41-1.47.82-2.2 1.23 1.47 2.44 2.97 4.86 4.51 7.25 1.44-.9 2.87-1.81 4.31-2.72.63.64 1.25 1.27 1.89 1.91-.67.13-1.99.39-2.65.52.44.71.87 1.43 1.33 2.13L30 91.3c.84 3.43 3.72 5.49 6.56 7.21l-.25.35c-1.32.08-2.65.08-3.97.02-5.8-4.13-9.6-10.67-12.33-17.15-5.33-13.15-4.33-28.68 2.64-41.04 5.3-9.5 14.03-16.97 24.14-20.96M22.53 48.35c-1.14 2.83-2.02 5.78-2.11 8.85 1.63.15 3.25.34 4.89.5.04 1.78.1 3.56.26 5.34 3.17-.56 1.9-4.67 2.18-6.95-1.4-.79-2.95-1.27-4.45-1.82.49-1.8.94-3.62 1.17-5.48-.49-.11-1.46-.33-1.94-.44m-3.72 10.51c-.18 3.06-.51 6.14-.08 9.2.78 2.35 3.67.6 5.38.67.57 1.59 1.15 3.17 1.7 4.76.73-.19 2.2-.58 2.94-.78-.01-.68-.02-2.04-.03-2.73l-.34.45-.31-.91c0-1.53-.01-3.07-.02-4.6-1.61-.09-3.21-.18-4.82-.26-.2-1.83-.4-3.66-.59-5.49-1.28-.1-2.55-.21-3.83-.31zM58.78 18.89c3.46-.03 6.92-.03 10.38 0-.06 1.32-.12 2.64-.19 3.96-1.9.08-3.81.15-5.72.21.02 1.62.05 3.23.07 4.85-2.59.39-5.17.87-7.73 1.43-.63-1.49-.85-3.09-.98-4.68 1 .13 2.98.38 3.98.51-1.23.59-2.46 1.18-3.68 1.78 2.42 1.18 5.12.84 7.71.69.03-1.76.06-3.52.1-5.28 2.19-.4 5.36.23 6.01-2.63-2.92-.11-5.85-.07-8.77.01.05 1.56.11 3.12.1 4.67l-.71.39c-.2-1.97-.39-3.94-.57-5.91z"/>
        <path opacity=".54" d="M52.49 20.59c1.65-.48 3.28-1.03 4.92-1.57.23 1.5.33 3.01.53 4.51-1.47.04-2.93.09-4.4.15 1.34-.54 2.67-1.09 4-1.66-1.19-1.66-3.22-1.64-5.05-1.43zM52.45 24.25l.29-.24c.57 1.74 1.15 3.47 1.72 5.2l-2.07.84c.09-1.93.05-3.87.06-5.8zM53.48 31.65c2.99-1.31 6.22-1.94 9.49-1.83 5.34.08 11.24.16 15.69 3.55-4.81-1.23-9.59-3.01-14.62-2.88-3.54.12-7.04.73-10.56 1.16z"/>
    </g>
    <path opacity=".06" d="M59.96 19.74c2.92-.08 5.85-.12 8.77-.01-.65 2.86-3.82 2.23-6.01 2.63-.04 1.76-.07 3.52-.1 5.28-2.59.15-5.29.49-7.71-.69 1.22-.6 2.45-1.19 3.68-1.78l.76-.37.71-.39c.01-1.55-.05-3.11-.1-4.67zM99.59 57.6c.4-.53 1.2-1.57 1.61-2.09.63 1.5 1.27 3 1.9 4.5 1.66.04 3.32.06 4.99.1.03 2.88.42 5.94-1.09 8.55-.57-2.02-1.04-4.08-1.49-6.13l-4.45-.48c-.38-1.16-.77-2.32-1.15-3.48l-.32-.97zM19.94 67.76c.23-2.66-1.02-6.14 1.46-8.02.37 1.9.71 3.81 1.03 5.73 1.49.17 2.97.35 4.46.52.39 1.18.79 2.35 1.18 3.53l.31.91c-.42.52-1.24 1.57-1.65 2.09-.5-1.42-.99-2.84-1.47-4.27-1.78-.14-3.54-.37-5.32-.49z"/>
    <path fill="#150202" opacity=".44" d="M70 24.83l.6-5.55c2.31.48 4.61.97 6.89 1.56l1.31.92c-2.34-.38-4.69-.75-7.03-1.18-.36 1.41-.72 2.83-1.13 4.23l-.64.02z"/>
    <g fill="#58090c">
        <path opacity=".77" d="M80.53 19.78c2.87 1.29 5.89 2.4 8.44 4.28.7.84 1.4 1.68 2.08 2.54-1.31-.28-2.61-.58-3.9-.92-1.76-.91-3.54-1.75-5.35-2.55-.36 1.58-.73 3.15-1.1 4.72-1.75-.23-3.49-.53-5.23-.77-.23.58-.7 1.74-.93 2.32-3.25-.4-6.54-.58-9.75-1.29.02-1.42.05-2.85.07-4.28 1.17.34 2.34.66 3.52.96-.71-.01-2.14-.04-2.85-.06-.07.7-.21 2.09-.27 2.79 2.34.29 4.67.64 7 1.03.47-1.71.95-3.42 1.44-5.13 1.88.42 3.75.9 5.63 1.32.1-.59.31-1.76.42-2.35l-.95-.63-1.31-.92c.76-.26 2.28-.79 3.04-1.06zM91.9 83.46c1.82-1.42 3.16-3.29 4.12-5.37-.54 1.81-1 3.63-1.57 5.42-1.14 1.82-2.44 3.54-3.96 5.06-.7.7-1.41 1.39-2.13 2.08-1.59 1.51-3.28 2.89-5.01 4.24.85 1.53 1.68 3.07 2.49 4.62-1.55.99-3.12 1.97-4.67 2.98.37.57 1.13 1.73 1.5 2.31 2.4-1.41 4.8-2.83 7.18-4.26.2.36.58 1.08.77 1.44-.54.65-1.1 1.3-1.66 1.95-4.05 2.58-8.51 4.79-13.25 5.73 1.43-.81 2.83-1.68 4.22-2.55-.78-.06-2.36-.16-3.14-.21 1.01-.36 2.02-.74 3.02-1.12-.48-1.95-.95-3.9-1.39-5.85.94-.25 2.84-.75 3.79-.99l.93-.08-1.32-3.06c-1.14.38-2.27.75-3.38 1.16-.65-.34-1.94-1-2.59-1.34C82.2 93.12 87.88 89 91.9 83.46z"/>
    </g>
    <path fill="#3b0604" opacity=".55" d="M88.97 24.06c8.39 4.32 14.55 12.3 18.43 20.77 6.06 13.92 5.13 30.75-2.82 43.73-3.89 6.18-8.96 12.11-15.62 15.37.56-.65 1.12-1.3 1.66-1.95-.19-.36-.57-1.08-.77-1.44-.85-1.61-1.73-3.2-2.6-4.79 1.13-1.14 2.27-2.28 3.4-3.41l-2.29-1.69c.72-.69 1.43-1.38 2.13-2.08 1.29 1.21 2.58 2.43 3.86 3.66-1.14 1.44-2.31 2.87-3.49 4.29.55.63 1.11 1.26 1.66 1.89 1.94-2 4.39-3.72 5.45-6.39-1.07-1.14-2.29-2.11-3.46-3.12.97-1.69 3.84-5.4-.06-5.39.57-1.79 1.03-3.61 1.57-5.42-.96 2.08-2.3 3.95-4.12 5.37 2.67-5.5 5.33-11.2 5.59-17.42.63-9.9-3.41-20.05-10.81-26.68-2.36-2.09-5.02-3.79-7.41-5.83.71.03 2.12.08 2.83.11-1.04-.84-2.07-1.68-3.14-2.48.53.07 1.58.2 2.11.26.96-1.4 1.87-2.84 2.8-4.27 1.7.88 3.41 1.76 5.12 2.64-.04-.6-.13-1.82-.17-2.43-.42-.42-1.26-1.26-1.67-1.68 1.29.34 2.59.64 3.9.92-.68-.86-1.38-1.7-2.08-2.54m2.67 6.08c-.84 1.13-1.7 2.24-2.57 3.35-1.63-.82-3.28-1.63-4.95-2.37-.4 3.13 2.84 4.26 4.85 5.88 1.15-1.15 2.28-2.32 3.4-3.5 1.74 1.31 3.16 3.38 5.57 3.39-.48-3.16-3.17-6.07-6.3-6.75m-.61 8.09c.71 2.32 2.36 4.13 3.93 5.9 1.57-.65 3.08-1.64 4.82-1.77 1.1 1.6 2.15 3.24 3.42 4.72 1.59-3.46-1.46-6.27-3.2-8.92-1.37.91-2.75 1.82-4.13 2.73-1.28-1.45-2.73-2.89-4.84-2.66m5.42 8.62c.72 1.87 1.36 3.78 2.32 5.55 1.8.59 3.86-.05 5.75.01.11 1.6.23 3.19.33 4.79l3.45.12c-.78-3.04-1.54-6.09-2.9-8.93-1.75.59-3.53 1.28-5.41 1.09-.52-1.33-1.06-2.64-1.59-3.96-.65.44-1.3.89-1.95 1.33m2.82 8.22l-.04 2.99.36-.46.32.97c.02 1.5.05 3.01.08 4.51 1.54.07 3.09.13 4.64.19.17 1.83.35 3.65.53 5.48l4.07.15c.28-3.38.27-6.78.09-10.16-1.79.03-3.57.13-5.35-.03-1.05-1.06-.83-2.92-1.95-3.94-.69.07-2.06.22-2.75.3m1.18 10.25c-.11 2.26-.21 4.53-.29 6.8 1.59.43 3.16.92 4.71 1.47-.53 1.66-1.07 3.32-1.6 4.99l2.82.2c.64-2.68 1.37-5.33 2.17-7.96-1.85-.13-3.71-.29-5.56-.45-.02-1.65-.03-3.29-.04-4.94-.56-.03-1.66-.08-2.21-.11M96.48 81c1.47.85 2.95 1.7 4.43 2.53-.7 2.2-3.67 4.59-.89 6.47 1.59-2.42 3.1-4.89 4.61-7.35-1.48-.89-2.98-1.75-4.5-2.57.08-1.87 1.41-4.42-.59-5.71-1.43 1.99-2.12 4.39-3.06 6.63z"/>
    <path fill="#080101" opacity=".35" d="M43.33 30.2c1.78.66 3.48 4.08.49 4.15-.44-1.34-.61-2.73-.49-4.15z"/>
    <path fill="#720b0b" opacity=".71" d="M44.76 40.14c1.79 1.24 3.61 2.46 5.32 3.81-1.35 2.6-2.05 5.48-1.49 8.4.86 5.59-.45 11.21.16 16.82.36 3.2-.08 6.41-.66 9.56-2.23-1.33-4.38-2.77-6.5-4.25.23-8.12.01-16.24.14-24.36l2.78-2.63c.07-2.45.16-4.9.25-7.35z"/>
    <path fill="#750d0d" opacity=".73" d="M78.26 43.81c1.63-1.23 3.33-2.38 5.02-3.54.13 2.21.08 4.44.47 6.62.98 1.98 2.97 3.6 2.62 6.02.06 7.33 0 14.67-.05 22-2.14 1.25-4.25 2.57-6.41 3.79-1.52-7.2.82-14.62-1.55-21.65-.08-4.42 1.38-8.88-.1-13.24z"/>
    <path fill="#870f0f" opacity=".84" d="M76.75 45.04c.37-.31 1.13-.92 1.51-1.23 1.48 4.36.02 8.82.1 13.24 2.37 7.03.03 14.45 1.55 21.65-1.95-.7-3.83-1.54-5.74-2.32-1.07-4.42.87-8.83.04-13.26.75-.82 1.52-1.63 2.29-2.44.04-5.22-.08-10.44.25-15.64z"/>
    <path fill="#840e0f" opacity=".82" d="M48.59 52.35c-.56-2.92.14-5.8 1.49-8.4l1.29 1.09c.38 5.18.22 10.38.26 15.57 1.77 1.81 3.52 3.66 5.23 5.53-1.68 3.86-1.18 8.11-1.09 12.19-.84-.66-1.67-1.34-2.5-2.02-1.62 1.03-3.19 2.31-5.18 2.42.58-3.15 1.02-6.36.66-9.56-.61-5.61.7-11.23-.16-16.82z"/>
    <path fill="#0a0101" opacity=".37" d="M99.27 55.07c.69-.08 2.06-.23 2.75-.3 1.12 1.02.9 2.88 1.95 3.94 1.78.16 3.56.06 5.35.03.18 3.38.19 6.78-.09 10.16l-4.07-.15c-.18-1.83-.36-3.65-.53-5.48-1.55-.06-3.1-.12-4.64-.19-.03-1.5-.06-3.01-.08-4.51.38 1.16.77 2.32 1.15 3.48l4.45.48c.45 2.05.92 4.11 1.49 6.13 1.51-2.61 1.12-5.67 1.09-8.55-1.67-.04-3.33-.06-4.99-.1-.63-1.5-1.27-3-1.9-4.5-.41.52-1.21 1.56-1.61 2.09l-.36.46.04-2.99z"/>
    <path fill="#080101" opacity=".36" d="M18.81 58.86c1.28.1 2.55.21 3.83.31.19 1.83.39 3.66.59 5.49 1.61.08 3.21.17 4.82.26.01 1.53.02 3.07.02 4.6-.39-1.18-.79-2.35-1.18-3.53-1.49-.17-2.97-.35-4.46-.52-.32-1.92-.66-3.83-1.03-5.73-2.48 1.88-1.23 5.36-1.46 8.02 1.78.12 3.54.35 5.32.49.48 1.43.97 2.85 1.47 4.27.41-.52 1.23-1.57 1.65-2.09l.34-.45c.01.69.02 2.05.03 2.73-.74.2-2.21.59-2.94.78-.55-1.59-1.13-3.17-1.7-4.76-1.71-.07-4.6 1.68-5.38-.67-.43-3.06-.1-6.14.08-9.2z"/>
    <path fill="#4a0705" opacity=".65" d="M31.37 80.07c1.6.9 3.19 1.8 4.71 2.83 4.89 7.44 13 12.46 21.71 14.08.27-3.92.04-7.88-1.36-11.58.33-.25 1.01-.76 1.34-1.01.09 4.53 1.41 8.98.98 13.56-3.19-.73-6.45-1.46-9.75-1.02-.71-.14-1.41-.29-2.11-.43-.89 1.45-1.78 2.89-2.67 4.33-1.78-1.05-3.62-1.99-5.59-2.62-.06.61-.17 1.83-.23 2.45 2.47 1.39 4.96 2.76 7.46 4.11.68-1.64 1.36-3.28 2.04-4.91.59.21 1.75.64 2.33.86-.41.24-1.24.72-1.66.96l.28 1.61.48 2.28c.52.44 1.56 1.3 2.07 1.74-1.1-.02-2.21-.03-3.31-.04 1.56.74 3.12 1.49 4.69 2.22-2.86.26-5.4-1.15-7.93-2.25-4.6-2.05-8.98-4.73-12.51-8.36 1.32.06 2.65.06 3.97-.02l.25-.35c.87-1.41 1.84-2.76 2.99-3.95.66.57 2 1.7 2.67 2.27 1.96 1.97 4.16-2.28 1.5-2.97l-4.65-2.76c-1.04.9-2.04 1.85-3.18 2.62-1.49.33-2.25-1.19-3.17-2.02-.46-.7-.89-1.42-1.33-2.13.66-.13 1.98-.39 2.65-.52.57.57 1.14 1.15 1.71 1.73.55-.69 1.1-1.37 1.65-2.06-1.49-1.76-2.94-3.56-4.35-5.4-.53.33-1.57.97-2.1 1.29l-1.25-1.97c.75-.45 1.51-.89 2.27-1.33l-.6-1.24z"/>
    <path fill="#3b0606" opacity=".67" d="M57.93 79.86c1.26.26 3.66 1.96 1.79 3.08-1.09-.74-1.68-1.77-1.79-3.08z"/>
    <path fill="#4b0808" opacity=".71" d="M68.42 82.94c-2.05-1.2.26-3.05 1.84-2.82-.4 1.09-1.02 2.03-1.84 2.82z"/>
    <path fill="#6a0c0c" opacity=".85" d="M69.29 97.6c-.34-3.04-.62-6.25.98-9.01-.08 2.83-.02 5.66.02 8.5 1.86-.44 3.74-.86 5.56-1.47.65.34 1.94 1 2.59 1.34-1.33.51-2.64 1.06-3.95 1.6.37 1.76.73 3.52 1.08 5.29-1.61.41-3.21.83-4.82 1.25.09.8.26 2.42.34 3.22 1.37-.36 2.73-.71 4.11-1.05.39-.1 1.19-.28 1.59-.37.78.05 2.36.15 3.14.21-1.39.87-2.79 1.74-4.22 2.55-1 .64-2.06.81-3.18.5-1.1-.37-2.21-.73-3.32-1.07-.24-1.99-.5-3.98-.78-5.97l1.21-.22c1.27-.22 2.55-.44 3.83-.65l-.64-3.12-.57-.16c-1-.45-1.98-.9-2.97-1.37z"/>
    <path fill="#0d0101" opacity=".43" d="M43.72 93.86c2.66.69.46 4.94-1.5 2.97.4-1.04.91-2.03 1.5-2.97z"/>
    <path fill="#110202" opacity=".4" d="M78.44 96.96c1.11-.41 2.24-.78 3.38-1.16l1.32 3.06-.93.08c-1.85-2.29-4.37-.75-6.58-.07.23 1.68.46 3.36.67 5.05-1.85.85-3.63 1.86-5.27 3.08 1.04.07 3.12.2 4.17.27-1.38.34-2.74.69-4.11 1.05-.08-.8-.25-2.42-.34-3.22 1.61-.42 3.21-.84 4.82-1.25-.35-1.77-.71-3.53-1.08-5.29 1.31-.54 2.62-1.09 3.95-1.6z"/>
    <path fill="#4e0809" opacity=".72" d="M51.86 97.64l2.08.56c.4 1.41.76 2.84 1.04 4.28l-.03 1.05c-1.11 2.12-4.25-.18-6.1-.24l-.28-1.61c.42-.24 1.25-.72 1.66-.96 1.17-.13 2.34-.26 3.51-.4l-1.88-2.68z"/>
    <path fill="#1f0303" opacity=".51" d="M55.08 99c2.71.25 5.42.6 8.12.96.01 1.24.02 2.49.04 3.74-1.65-.08-3.3-.15-4.95-.22-.26 1.82-.56 3.64-.84 5.47-1.9-.58-3.79-1.18-5.73-1.63l5.15.09c.19-1.41.39-2.82.59-4.22 1.99-.5 4.88.05 5.5-2.52-2.25-.22-4.49-.38-6.73-.53-.42 1.13-.84 2.26-1.28 3.39l.03-1.05c.02-.87.07-2.61.1-3.48z"/>
    <g>
        <path fill="#1b0302" opacity=".51" d="M64.93 99.96c2.44-.34 4.88-.71 7.33-.99l.57.16.64 3.12c-1.28.21-2.56.43-3.83.65 1.15-.28 1.99-.91 2.5-1.88-1.45-1.74-4.31-.26-6.3-.5-.1 1.72-.19 3.45-.31 5.17-1.92.2-3.86.32-5.78.58 1.09 3.5 5.76 1.49 8.48 1.94.06-1.7.13-3.39.2-5.09.28 1.99.54 3.98.78 5.97-3.39-.11-6.78.03-10.18.01.15-1.32.29-2.64.44-3.96 1.82-.01 3.64-.03 5.46-.02v-5.16z"/>
    </g>
    <g>
        <path opacity=".05" d="M65.84 100.52c1.99.24 4.85-1.24 6.3.5-.51.97-1.35 1.6-2.5 1.88l-1.21.22c-.07 1.7-.14 3.39-.2 5.09-2.72-.45-7.39 1.56-8.48-1.94 1.92-.26 3.86-.38 5.78-.58.12-1.72.21-3.45.31-5.17z"/>
    </g>
</svg>
