<svg width="128pt" height="128pt" viewBox="0 0 128 128" xmlns="http://www.w3.org/2000/svg">
    <path fill="#fdfdfd" d="M52.44 18.58c10.58-2.78 22.06-1.51 31.92 3.16 11.83 5.71 21.17 16.57 24.67 29.27 2.46 8.43 2.47 17.52.01 25.95-4.19 15.23-16.77 27.83-31.99 32.05-8.45 2.49-17.58 2.49-26.03.02-15.5-4.26-28.23-17.21-32.25-32.76-3.02-10.77-1.81-22.54 2.96-32.61 5.91-12.3 17.41-21.86 30.71-25.08m6.69.56c.16 1.86.36 3.71.59 5.55-1.68.25-3.35.53-5.03.83l1.02 3.44c2.48-.55 5.02-.77 7.55-.91-.03-1.8-.07-3.6-.13-5.4 1.81.06 3.62.13 5.43.27l.42-3.68c-3.28-.27-6.57-.24-9.85-.1m-11.49 3.01c.67 1.67 1.36 3.32 2.04 4.98-1.54.72-3.09 1.42-4.63 2.13.63 1 1.26 2 1.89 2.99 2.23-1.21 4.61-2.08 7.03-2.84-.47-1.77-.93-3.55-1.39-5.32 1.73-.36 3.47-.71 5.21-1.03-.12-.88-.37-2.65-.5-3.53-3.3.53-6.54 1.4-9.65 2.62m23.03-2.63c-.21 1.79-.4 3.58-.58 5.38-1.72-.17-3.44-.34-5.15-.53.01.93.02 2.78.03 3.71 2.59.1 5.16.42 7.71.91.39-1.77.75-3.54 1.08-5.32 1.78.51 3.54 1.07 5.29 1.64.45-1.05.89-2.1 1.33-3.15-3.13-1.23-6.4-2.06-9.71-2.64m-33.39 8.2c1.14 1.46 2.31 2.9 3.52 4.31-1.4 1.05-2.78 2.11-4.16 3.18.88.85 1.76 1.72 2.64 2.58 1.93-1.73 4-3.27 6.15-4.7-1-1.55-1.98-3.1-2.95-4.67 1.62-.81 3.24-1.63 4.86-2.44-.45-1.07-.91-2.15-1.36-3.22-3.02 1.43-5.91 3.12-8.7 4.96m42.72.15c-1.62-.62-3.24-1.22-4.88-1.79-.2.85-.61 2.55-.82 3.4 2.43.81 4.82 1.73 7.14 2.81.87-1.57 1.76-3.13 2.66-4.69 1.46.97 2.92 1.94 4.38 2.92l2.22-2.82c-2.57-1.61-5.12-3.29-7.89-4.55-2.12.06-1.83 3.28-2.81 4.72M28.78 35.9c1.47 1.07 2.95 2.14 4.41 3.22-.97 1.45-1.96 2.88-2.94 4.32l2.97 1.68c1.45-2.14 3.06-4.15 4.74-6.1-1.26-1.24-2.54-2.47-3.82-3.69 1.31-1.29 2.63-2.58 3.95-3.86-.75-.89-1.51-1.78-2.27-2.67-2.46 2.24-4.9 4.54-7.04 7.1m63.24-7.18c-1.08 1.47-2.16 2.94-3.25 4.4-1.41-.95-2.81-1.92-4.21-2.87-.56 1-1.12 1.99-1.68 2.99 2.1 1.49 4.15 3.05 6.12 4.71 1.19-1.32 2.4-2.62 3.6-3.94 1.29 1.36 2.58 2.7 3.85 4.06.9-.79 1.8-1.59 2.7-2.39-2.26-2.44-4.62-4.79-7.13-6.96m-35.54 2.02c-16.27 3.34-28.3 19.87-26.45 36.37 1.1 13.02 10.29 24.88 22.68 29.07 9.36 3.08 20.13 2.31 28.64-2.83 13.72-7.79 20.4-25.81 14.83-40.62-5.21-15.97-23.39-26.1-39.7-21.99m36.15 5.84c-.63.64-1.87 1.91-2.5 2.54 1.69 1.99 3.24 4.08 4.8 6.16 1.5-.93 2.99-1.9 4.45-2.9.92 1.63 1.81 3.28 2.66 4.94 1.05-.51 2.1-1.01 3.15-1.51-1.48-2.97-3.1-5.87-5.01-8.58-1.41 1.1-2.85 2.18-4.27 3.26-1.1-1.3-2.18-2.61-3.28-3.91m-65.08.78c-1.68 2.82-3.37 5.64-4.78 8.61 1.66.72 3.33 1.44 4.99 2.18-.58 1.57-1.16 3.14-1.76 4.71.84.24 2.52.72 3.37.96.84-2.5 1.86-4.94 2.93-7.35-1.61-.78-3.23-1.53-4.85-2.28 1.04-1.61 2.08-3.22 3.11-4.82-1-.68-2-1.35-3.01-2.01m71.14 7.69c-1.05.58-2.09 1.17-3.13 1.76 1.37 2.17 2.21 4.61 3.06 7.02 1.72-.48 3.44-.96 5.15-1.46.43 1.74.82 3.5 1.17 5.27.91-.12 2.73-.36 3.64-.47-.72-3.27-1.57-6.5-2.74-9.64-1.67.67-3.35 1.34-5.02 2.02-.71-1.5-1.41-3.01-2.13-4.5m-76.57 2.61c-1.17 3.12-2.04 6.35-2.68 9.61 1.8.27 3.6.53 5.39.79l-.45 5.11c.92 0 2.76.01 3.68.02.13-2.58.38-5.15.93-7.68-1.77-.43-3.55-.85-5.32-1.28.5-1.74 1.04-3.46 1.6-5.18-1.05-.46-2.1-.92-3.15-1.39M99 55.56c.57 2.5.81 5.05.94 7.6 1.8-.01 3.61-.03 5.42-.05-.07 1.76-.14 3.53-.24 5.29.93.13 2.77.38 3.7.5.2-3.37.24-6.75-.12-10.12-1.79.29-3.57.56-5.35.84-.29-1.68-.59-3.35-.93-5.02-.85.24-2.56.72-3.42.96m-79.83 3.55c-.18 3.27-.19 6.55.02 9.83 1.77-.11 3.53-.26 5.29-.44.39 1.63.76 3.26 1.16 4.89.83-.24 2.51-.71 3.35-.95-.55-2.48-.79-5.01-.93-7.54-1.81-.03-3.62-.06-5.43-.11.07-1.74.15-3.47.26-5.19-1.24-.17-2.48-.33-3.72-.49m80.78 5.68c-.14 2.59-.4 5.17-.93 7.7 1.77.43 3.54.85 5.31 1.28-.5 1.73-1.04 3.45-1.6 5.16 1.07.44 2.13.89 3.19 1.35 1.16-3.16 2.08-6.41 2.55-9.75-1.8-.18-3.59-.33-5.39-.46.19-1.72.39-3.43.59-5.14-.93-.03-2.79-.1-3.72-.14m-80.53 6.04c.72 3.3 1.61 6.56 2.74 9.74 1.69-.71 3.4-1.4 5.11-2.04.69 1.54 1.37 3.08 2.06 4.61 1.03-.63 2.06-1.26 3.08-1.9-1.31-2.21-2.18-4.64-3.02-7.05-1.74.48-3.48.96-5.22 1.43-.39-1.75-.76-3.5-1.09-5.26-.92.12-2.75.36-3.66.47M95.6 81.16c1.64.9 3.28 1.79 4.93 2.69-1.01 1.56-2.02 3.12-3.05 4.67 1.03.67 2.05 1.34 3.08 2.01 1.51-2.85 3.43-5.49 4.6-8.51-1.54-.95-3.26-1.53-4.92-2.22.59-1.6 1.19-3.2 1.79-4.8-.86-.19-2.58-.58-3.44-.77-.82 2.38-1.67 4.77-2.99 6.93m-72.74.91c1.37 3.11 3.08 6.06 5.08 8.81 1.37-1.14 2.75-2.27 4.14-3.4 1.1 1.32 2.19 2.65 3.31 3.96.86-.81 1.71-1.63 2.57-2.44-1.68-1.97-3.24-4.04-4.75-6.15-1.55.91-3.09 1.82-4.62 2.75-.86-1.54-1.69-3.11-2.5-4.69-1.08.39-2.15.77-3.23 1.16m67.34 6.66c1.23 1.2 2.45 2.41 3.67 3.63-1.18 1.38-2.42 2.7-3.69 3.99.76.89 1.53 1.77 2.3 2.65 2.4-2.3 4.77-4.64 6.97-7.13-1.56-1.03-3.12-2.07-4.7-3.08 1.04-1.41 2.06-2.84 3.07-4.27-.73-.48-2.18-1.45-2.91-1.94-1.44 2.15-2.98 4.23-4.71 6.15m-61.36 3.48c2.27 2.52 4.65 4.94 7.23 7.15 1.08-1.47 2.12-2.98 3.15-4.49 1.45.98 2.89 1.98 4.34 2.97.57-1.02 1.15-2.04 1.73-3.06-2.18-1.42-4.25-2.99-6.22-4.69-1.19 1.27-2.36 2.56-3.5 3.88-1.35-1.28-2.67-2.57-3.98-3.88-.91.71-1.83 1.42-2.75 2.12m54.04 2.56c.96 1.58 1.88 3.18 2.69 4.84-1.58.76-3.15 1.52-4.72 2.28.51 1.09 1.02 2.17 1.53 3.26 2.91-1.56 5.82-3.13 8.5-5.07-1.09-1.45-2.2-2.87-3.29-4.31 1.32-1.06 2.65-2.12 3.97-3.19-.87-.84-1.73-1.68-2.59-2.51-1.96 1.66-4.01 3.2-6.09 4.7m-38.74 5.76c-1.55-1.01-3.09-2.02-4.63-3.05-.68 1.02-1.36 2.03-2.05 3.05 2.91 1.61 5.64 3.61 8.84 4.64.63-1.68 1.28-3.36 1.92-5.04 1.57.67 3.16 1.29 4.76 1.92.25-.86.76-2.59 1.01-3.46-2.49-.78-4.98-1.64-7.23-3-.89 1.63-1.77 3.28-2.62 4.94m30.14-1.99c.51 1.74 1.01 3.48 1.5 5.23-1.76.42-3.52.81-5.28 1.22.12.86.37 2.57.5 3.43 3.31-.54 6.54-1.46 9.66-2.68-.7-1.67-1.41-3.34-2.12-5.01 1.51-.67 3.02-1.35 4.53-2.03l-1.56-3c-2.36 1.07-4.78 2-7.23 2.84m-18.59.49c-.52 1.76-1.02 3.53-1.5 5.31-1.68-.5-3.34-1.04-4.99-1.61-.46 1.07-.93 2.14-1.39 3.21 3.13 1.17 6.38 1.97 9.66 2.59.22-1.77.47-3.54.73-5.3 1.68.12 3.35.25 5.03.38-.01-.91-.01-2.74-.01-3.66-2.53-.14-5.06-.37-7.53-.92m9.23.91c.05 1.79.12 3.58.21 5.38-1.78-.04-3.56-.09-5.34-.18-.23 1.19-.45 2.38-.68 3.58 3.4.35 6.82.38 10.21-.09-.29-1.77-.58-3.54-.88-5.3 1.72-.29 3.44-.6 5.15-.98-.29-.85-.86-2.56-1.15-3.42-2.46.66-4.99.88-7.52 1.01z"/>
</svg>
