<svg width="128pt" height="128pt" viewBox="0 0 128 128" xmlns="http://www.w3.org/2000/svg">
    <path fill="#fdfdfd" d="M60.53 14.73c2.83 3.5 4.76 7.72 8.3 10.6 4.06 6.2 6.94 13.28 7.95 20.66 1.31-2.2 2.42-4.51 3.19-6.95 1.93 6.16 3.15 12.63 2.13 19.1.66 1.12 1.33 2.24 2 3.36.51-.59 1.53-1.76 2.05-2.35-.63 7.18 2.44 13.87 3.63 20.83 1.25 3.88-1.43 7.47-1.53 11.31l2.88.76c-1.5 3.04-2.58 6.86-6.14 8.06-.8-.83-1.6-1.67-2.39-2.5-1.02 1.65-2.03 3.31-2.94 5.03 1.48 1.95 2.36 4.62-.37 5.94-.38-1.82-.94-3.6-2.05-5.12.19 1.81.39 3.61.57 5.43-1.01.22-3.04.66-4.06.89.28-1.75.44-3.52.18-5.27-.91 1.65-1.44 3.47-1.94 5.27-1.43.21-2.85.41-4.27.62-.08-1.99-.3-4-1.25-5.79-.38 1.87-.34 3.78-.38 5.68-1.85 0-3.7-.01-5.55-.03-.31-1.91-.94-3.76-1.8-5.49-.3 1.8-.15 3.58.44 5.32-.92-.23-2.76-.7-3.69-.94-.57-2.2-1.27-4.39-2.71-6.2 0 1.79.23 3.57.45 5.35-.56-.28-1.69-.84-2.25-1.12-1.14-3.03-.23-6.4-1.81-9.32-1.68.64-3.18 1.6-4.53 2.78-2.39-2-4.75-4.07-6.54-6.65 1.26-.72 2.55-1.38 3.87-1.96-1.31-7.31-3.7-14.94-1.23-22.3.54-3.24 2.96-5.53 4.76-8.1 1.06-4.28-.41-8.51-2.71-12.09 1.21.96 2.45 1.88 3.69 2.81 1.46-3.55 3.43-6.87 4.8-10.46.63-3.23.19-6.52-1.28-9.46 2.74 1.26 4.81 3.46 6.32 6.04 1.97-3.47 4.15-6.82 6.3-10.19-.51-4.55-1.68-8.99-2.09-13.55m.95 29.73c-1.7 3.25-5.52 4.57-7.58 7.49.39 5.97 2.02 11.94 4.42 17.43-1.7-1.25-3.34-2.58-4.99-3.89 1.62 2.72 3.15 5.56 5.35 7.86 1.82 1.63 3.97 2.84 5.84 4.41.47-1.05.93-2.11 1.38-3.17 1.66-.86 3.36-1.64 4.98-2.58 4.18-3 6.3-8 6.01-13.1-1.49 2.02-2.72 4.2-3.98 6.37-2.26-7-2.38-14.58-1.04-21.77-1.36 1.55-2.61 3.2-3.88 4.83-.18-5.03-1.49-9.87-2.81-14.68-.95 3.68-1.89 7.43-3.7 10.8m10.6 34.75c-2.54 3.91-.38 9.43 3.97 10.9 1.53-.12 3.06-.25 4.58-.45 4-2.98 3.95-9.17.33-12.42-3.01-.54-6.8-.68-8.88 1.97M46.2 82.85c-1.82 6.49 6.92 11.3 11.83 7.12 1.46-2.98 2.48-7.14-.52-9.56-3.24-3.83-10.19-2.69-11.31 2.44M61.91 99.4c2.26-2.75 2.72-6.42 3.14-9.83-2.96 2.38-3.5 6.26-3.14 9.83m6.03-9.82c-.15 3.63.22 7.39 2.75 10.22.2-.62.61-1.87.81-2.49-1.19-2.57-2.25-5.21-3.56-7.73z"/>
    <path fill="#121212" opacity=".07" d="M76.05 90.11c-1.67-3.71-4.19-7.8-1.91-11.84 1.13 4.32 3.6 8.05 6.49 11.39-1.52.2-3.05.33-4.58.45z"/>
</svg>
