<svg width="128pt" height="128pt" viewBox="0 0 128 128" xmlns="http://www.w3.org/2000/svg">
    <path fill="#a52021" d="M64.9 17.67c.86-.68 1.49-2 2.69-2.14 3.32 3.13 6.6 6.3 10.04 9.31-1.8-.39-3.62-.64-5.43-.94.24 1.36.47 2.71.71 4.07-1.67-1.43-3.35-2.85-5.03-4.26-1.34 1.16-2.69 2.33-4.04 3.48-1.29-1.17-2.59-2.33-3.88-3.49-3.62 3.16-7.41 6.13-10.99 9.34 2.17.91 4.33 1.84 6.49 2.79 1.53-1.12 3.09-2.21 4.58-3.38-.77 2.18-1.57 4.35-2.37 6.53 1.34 1.95 2.23 4.15 2.46 6.52-1.52-1.24-2.95-3.11-5.03-3.28-1.75.72-3.31 1.8-4.9 2.8-.33-1.86-.56-3.73-.9-5.58-2.44-3.96-8.33-2.99-12.3-4.48 2.91-3.17 6.82-5.12 10.18-7.76 4.86-3.41 8.97-7.77 12.93-12.17.55.54 1.65 1.62 2.19 2.16.35 1.22 1.93 1.84 2.6.48z"/>
    <path fill="#1d0505" opacity=".46" d="M62.3 17.19c.49-.06 1.47-.18 1.96-.23l.64.71c-.67 1.36-2.25.74-2.6-.48z"/>
    <g fill="#ad2121">
        <path d="M72.2 23.9c1.81.3 3.63.55 5.43.94 2.47 1.73 4.88 3.57 7.14 5.57.64.8 1.45 1.33 2.45 1.57 1.55.57 2.56 1.97 3.74 3.05-4.5.86-9.34 1.02-13.09 4.01 2.62 1.34 5.25 2.66 7.84 4.05-1.17 2.56-2.29 5.31-4.61 7.06-5.06 4.03-11.54 5.48-17.22 8.39-6.86-3.65-15.41-5.09-20.22-11.75-.55-1.25-1.05-2.53-1.48-3.83 2.38-1.16 4.76-2.33 7.12-3.52.34 1.85.57 3.72.9 5.58 2.97 3.47 7 6.44 11.7 6.77 6.01.73 12.29-2.08 15.55-7.21-1.74-.84-3.44-1.81-5.29-2.39-3.05 1.5-5.02 4.39-7.67 6.41-1.99.66-2.95-2.11-4.36-3.1-.23-2.37-1.12-4.57-2.46-6.52.8-2.18 1.6-4.35 2.37-6.53 1.37-1.28 2.62-2.66 3.92-4.01 2.57 2.28 4.81 4.99 7.75 6.82 1.8 1.05 3.62-.62 5.34-1.07.56-.3 1.67-.89 2.23-1.19-.28-.27-.84-.82-1.12-1.1-1.86-1.16-3.6-2.49-5.25-3.93-.24-1.36-.47-2.71-.71-4.07M60.95 39.86c.94.8 1.95 1.51 2.89 2.31 1.04-.77 2.07-1.54 3.11-2.29 2.5-.7-.42-4.53-2.21-3.37l-.77-1.41-.73 1.37c-1.76-1.05-4.78 2.69-2.29 3.39z"/>
        <path d="M31.05 28.61c1.86 1.59 2.57 4 3.31 6.27 1.54 5.02 4.41 9.52 7.59 13.65 5.37 7.09 14.75 7.85 21.94 12.16 4.53-2.18 9.3-3.81 13.91-5.8 5.56-2.28 9.08-7.47 12.23-12.32 3.1-4.17 2.86-10.16 6.68-13.73-.14 3.81-1.96 7.27-2.34 11.03-.87 7.35-.9 14.77-1.19 22.16-.33 5.67 1.84 11.01 3.35 16.37-3.16 1.86-6.42 3.56-9.73 5.13.37-.66.72-1.33 1.06-2.01-3.77-2.91-5.45-8.78-1.54-12.3l-1.91-.72.72-2.83c1.33-.04 2.65-.07 3.98-.11-1.71-.74-3.41-1.47-5.12-2.2.41-.44 1.21-1.32 1.62-1.76-6.82 3.37-13.69 7.36-21.54 7.36-7.92.59-14.67-4.11-21.52-7.29 3.86 4.79 9.44 7.86 15.57 8.52 1.89 12.16 3.6 25.02 0 37.04-1.05 2.16-.61 5.78-3.37 6.53-.39-5.22.21-10.71-2.03-15.6-4.01-9.26-12.54-15.67-21.5-19.77 6.11-16.01 3.08-33.49-.17-49.78z"/>
    </g>
    <path fill="#200606" opacity=".43" d="M84.77 30.41c1.69-.75 2.51-.23 2.45 1.57-1-.24-1.81-.77-2.45-1.57z"/>
    <path fill="#330909" opacity=".6" d="M78.16 31.9c.28.28.84.83 1.12 1.1-.56.3-1.67.89-2.23 1.19.28-.57.83-1.72 1.11-2.29z"/>
    <path fill="#2b0808" opacity=".5" d="M60.95 39.86c-2.49-.7.53-4.44 2.29-3.39-.62 1.22-1.38 2.37-2.29 3.39z"/>
    <path fill="#030001" opacity=".14" d="M63.24 36.47l.73-1.37.77 1.41c.63 1.19 1.35 2.34 2.21 3.37-1.04.75-2.07 1.52-3.11 2.29-.94-.8-1.95-1.51-2.89-2.31.91-1.02 1.67-2.17 2.29-3.39z"/>
    <path fill="#2b0808" opacity=".47" d="M64.74 36.51c1.79-1.16 4.71 2.67 2.21 3.37-.86-1.03-1.58-2.18-2.21-3.37z"/>
    <path fill="#100303" opacity=".32" d="M85.71 43.09c.05 1.04.1 2.07.16 3.1 1.38-1.22 2.77-2.42 4.16-3.62-3.15 4.85-6.67 10.04-12.23 12.32-4.61 1.99-9.38 3.62-13.91 5.8-7.19-4.31-16.57-5.07-21.94-12.16.43-.44 1.29-1.31 1.71-1.74 4.81 6.66 13.36 8.1 20.22 11.75 5.68-2.91 12.16-4.36 17.22-8.39 2.32-1.75 3.44-4.5 4.61-7.06z"/>
    <path fill="#240706" opacity=".45" d="M42.55 61.67c6.85 3.18 13.6 7.88 21.52 7.29 7.85 0 14.72-3.99 21.54-7.36-.41.44-1.21 1.32-1.62 1.76-3.55 3.93-8.6 5.77-13.64 6.89l-.17.27c-.27-.27-.79-.82-1.06-1.09-3.61-.16-7.24.21-10.86-.18 2.4 6.97 2.05 14.45 2.73 21.69-.26 5.45.37 11.56-2.87 16.29 3.6-12.02 1.89-24.88 0-37.04-6.13-.66-11.71-3.73-15.57-8.52z"/>
    <path fill="#b52324" d="M70.35 70.25c5.04-1.12 10.09-2.96 13.64-6.89 1.71.73 3.41 1.46 5.12 2.2-1.33.04-2.65.07-3.98.11l-.72 2.83 1.91.72c-3.91 3.52-2.23 9.39 1.54 12.3-.34.68-.69 1.35-1.06 2.01-.53.56-1.59 1.67-2.12 2.23-1.88-2.2-3.22-4.77-4.16-7.49-.62-.04-1.85-.12-2.47-.15.57 1.24 1.14 2.49 1.72 3.73-3.17 1.42-5.07 4.42-6.98 7.16.18.61.36 1.23.53 1.85-2.17 2.27-4.23 4.67-5.75 7.44.01-9.24-.91-19.05 2.61-27.78l.17-.27z"/>
    <path fill="#a72021" d="M78.05 78.12c.62.03 1.85.11 2.47.15.94 2.72 2.28 5.29 4.16 7.49-5.2 4.57-9.31 10.53-10.97 17.31-.85 3.57-.46 7.25-.56 10.88-3.05-2.17-3.06-6.12-4.09-9.35-.51-2.1-1.57-4.11-1.49-6.3 1.52-2.77 3.58-5.17 5.75-7.44-.17-.62-.35-1.24-.53-1.85 1.91-2.74 3.81-5.74 6.98-7.16-.58-1.24-1.15-2.49-1.72-3.73z"/>
</svg>
