<svg width="128pt" height="128pt" viewBox="0 0 128 128" xmlns="http://www.w3.org/2000/svg">
    <path fill="#fff" d="M37.16 34.52c8.14-5.82 16.58-11.43 22.96-19.3 1.35 1.02 2.52 2.23 3.68 3.45 1.26-1.05 2.47-2.15 3.67-3.27 6.33 6.52 13.31 12.46 20.97 17.36.83.66 1.61 1.38 2.33 2.16-3.6 1.25-7.84.41-10.99 2.91-3.31 2.52-7.56 3.49-10.68 6.29-1.75 1.67-3.39 3.46-5.19 5.08-2.73-2.54-4.99-5.76-8.55-7.26 1.61-.99 3.13-2.11 4.62-3.28 1.27 1.33 2.62 2.57 3.97 3.81 4.2-4.43 9.91-6.77 15.27-9.44-3.79-3.1-7.57-6.23-11.23-9.48-1.35 1.06-2.57 2.3-3.98 3.29-1.74-.39-2.38-2.56-4.05-3.2-3.67 3.21-7.65 6.08-11.18 9.46 2.29 1.03 4.61 2.01 6.97 2.9-1.94 1.13-3.9 2.24-5.9 3.25-3.24-3.74-8.65-2.59-12.69-4.73z"/>
</svg>
