<svg width="128pt" height="128pt" viewBox="0 0 128 128" xmlns="http://www.w3.org/2000/svg">
    <g fill="#fff">
        <path d="M24.86 25.58c25.9-.26 51.81.09 77.71-.18 1.12 2.23 2.28 4.45 3.66 6.53-9.49 10.65-18.99 21.3-28.55 31.9 9.62 10.89 19.22 21.78 28.86 32.64-1.53 2.11-2.94 4.3-4.29 6.53-25.95 0-51.91.01-77.86-.01-1.04-2.11-2.14-4.19-3.36-6.2 9.73-10.76 19.58-21.4 29.32-32.15-9.68-10.88-19.41-21.71-29.04-32.63 1.24-2.11 2.42-4.26 3.55-6.43m7.38 1.86c-2.07 1.8-3.72 4.05-5.9 5.75 25.18.04 50.35.04 75.53-.03-2.08-1.81-3.68-4.36-6.07-5.7-6.93-.34-13.87-.07-20.8-.3-.62.89-1.14 1.87-1.91 2.64-5.99.17-11.98-.01-17.97.07-.54-.88-1.07-1.76-1.6-2.64-7.09.06-14.19-.03-21.28.21m-3.39 8.16c1.57 1.83 3.13 3.67 4.65 5.55 2.37-1.88 4.68-3.83 7.03-5.74-3.9-.03-7.79.13-11.68.19m59.09-.23c2.26 1.97 4.55 3.91 6.88 5.79 1.51-1.9 3.09-3.73 4.68-5.55-3.86-.06-7.71-.2-11.56-.24m-45.85.88c6.48 7.4 13.12 14.67 19.43 22.21.88-1.07 1.74-2.15 2.61-3.23.91 1.03 1.81 2.08 2.7 3.13 6.37-7.4 12.92-14.66 19.27-22.08-14.67.13-29.34.19-44.01-.03m-6.69 6.18c6.3 7.24 12.94 14.16 19.21 21.43-6.37 7.16-12.76 14.32-19.26 21.38 1.83 1.58 3.62 3.2 5.36 4.89 6.69-7.5 13.39-14.98 20.21-22.35-1.03-1.14-2.06-2.27-3.11-3.4.87-1.43 1.85-2.8 2.89-4.12-6.56-7.58-13.36-14.95-19.91-22.54-1.78 1.59-3.56 3.17-5.39 4.71M67.58 60.4c.99 1.39 1.96 2.79 2.91 4.2-.9 1.28-3.09 2.38-2.25 4.25 6.4 7.22 13.01 14.25 19.35 21.52 1.78-1.56 3.51-3.17 5.3-4.72C86.6 78.38 80.1 71.3 73.67 64.17c6.31-7.26 12.94-14.24 19.28-21.47-1.84-1.52-3.61-3.1-5.42-4.65-6.66 7.44-13.2 15-19.95 22.35m-8.31 3.77c1.66 2.06 3.3 4.15 4.9 6.27 1.61-2.14 3.24-4.27 4.88-6.38-1.62-2.11-3.2-4.24-4.9-6.28-1.67 2.1-3.27 4.24-4.88 6.39M41.98 91.56c14.74.09 29.49-.01 44.23.04-6.55-7.34-13.1-14.69-19.71-21.98-.77 1.02-1.54 2.04-2.33 3.05-.8-1.01-1.6-2.02-2.4-3.04-6.6 7.31-13 14.8-19.79 21.93M33.7 86.9c-1.59 1.94-3.2 3.88-4.83 5.8 4.04-.19 8.07-.07 12.11-.1-2.45-1.87-4.81-3.86-7.28-5.7m53.67 5.72c4.02-.01 8.05-.07 12.08-.01-1.7-1.85-3.28-3.79-4.87-5.74-2.42 1.9-4.81 3.83-7.21 5.75m-60.88 2.01c1.98 1.9 3.92 3.83 5.83 5.79 7.21.01 14.42-.01 21.63.01.26-.53.77-1.61 1.02-2.15 6.01-.29 12.03-.08 18.04-.14.56.77 1.11 1.53 1.66 2.3 7.14-.04 14.28-.01 21.42-.01 1.92-1.94 3.84-3.87 5.78-5.8-25.13.05-50.26.04-75.38 0z"/>
        <path d="M55.37 38.88c5.87-.05 11.73.01 17.59-.03-2.91 4.35-5.7 8.79-8.86 12.96-2.99-4.26-5.8-8.63-8.73-12.93zM55.55 89.16c2.97-4.3 5.68-8.77 8.65-13.07 2.86 4.35 5.67 8.73 8.58 13.05-5.75.01-11.49-.02-17.23.02z"/>
    </g>
</svg>
