<svg width="128pt" height="128pt" viewBox="0 0 128 128" xmlns="http://www.w3.org/2000/svg">
    <g fill="#fff">
        <path d="M26.04 33.34c2.12-1.92 4.12-3.96 6.08-6.04 7.08-.21 14.17-.13 21.25-.16.56.87 1.16 1.7 1.8 2.51 6.01.3 12.03-.11 18.05.21.54-.92 1.08-1.84 1.63-2.75 7.09.01 14.18.09 21.26.09 2.02 2.02 3.98 4.11 6.05 6.08-25.37.12-50.75 0-76.12.06zM28.52 35.46c4.16-.08 8.32-.22 12.48-.18-2.57 1.97-5.04 4.07-7.59 6.06-1.52-2.06-3.13-4.03-4.89-5.88zM87.54 35.24c4.06.01 8.13.16 12.2.22-1.63 1.98-3.3 3.91-4.93 5.89-2.43-2.04-4.88-4.04-7.27-6.11zM41.91 36.19c14.85.08 29.7.06 44.55.02-6.69 7.39-13.12 15.01-19.84 22.38-.81-1.11-1.64-2.22-2.47-3.32l-2.4 3.36c-6.72-7.39-13.2-14.98-19.84-22.44m13.62 2.65c2.83 4.34 5.74 8.61 8.58 12.94 3-4.23 5.83-8.59 8.67-12.93-5.74.36-11.51.42-17.25-.01zM35.25 42.48c1.86-1.6 3.67-3.25 5.54-4.84 6.77 7.45 13.35 15.08 20.11 22.54-1 1.38-2 2.76-2.99 4.14 1.05 1.1 2.09 2.21 3.13 3.32-6.64 7.42-13.3 14.85-20.05 22.17-2.35-.38-3.81-3.27-5.8-4.64 6.61-6.97 12.85-14.28 19.39-21.32-6.52-7.05-12.85-14.27-19.33-21.37zM87.5 37.85c1.86 1.63 3.68 3.3 5.54 4.94-6.37 7.19-12.97 14.18-19.21 21.48 6.56 6.95 12.76 14.23 19.28 21.22-1.82 1.68-3.65 3.35-5.45 5.07-6.81-7.51-13.52-15.11-20.41-22.54l3.21-3.51c-1.01-1.32-2.01-2.65-3.02-3.96 6.65-7.59 13.45-15.06 20.06-22.7z"/>
        <path d="M64.18 57.52c1.72 2.18 3.4 4.39 5.02 6.65-1.67 1.99-3.27 4.03-4.73 6.17-2.11-1.79-3.72-4.06-5.35-6.27 1.69-2.19 3.34-4.4 5.06-6.55z"/>
        <path d="M41.88 91.71c6.56-7.48 13.37-14.74 19.87-22.27.82 1.07 1.7 2.13 2.71 3.04.48-.78 1.45-2.33 1.94-3.11 6.75 7.4 13.35 14.94 20.11 22.35-14.88.04-29.75.02-44.63-.01M63.59 77.3c-2.76 3.84-5.25 7.88-7.85 11.83 5.61.01 11.23 0 16.85 0-2.63-4.04-5.25-8.09-7.96-12.07l-1.04.24zM33.65 86.71c2.57 1.96 5.06 4.02 7.64 5.97-4.24.12-8.48 0-12.72.08 1.78-1.94 3.46-3.97 5.08-6.05zM86.96 92.73c2.62-1.93 5.15-3.96 7.63-6.05 1.67 2.03 3.35 4.07 5.08 6.06-4.23-.04-8.47.03-12.71-.01zM26.06 94.54c25.35-.03 50.69.01 76.03-.02-1.95 2.02-3.91 4.02-5.94 5.96-7.19-.03-14.39.01-21.58-.03-.36-.5-1.07-1.5-1.43-2-5.98-.36-11.99-.05-17.99-.13-.3.54-.89 1.61-1.19 2.14-7.26.01-14.51 0-21.77.01-1.96-2.06-3.99-4.06-6.13-5.93z"/>
    </g>
</svg>
