<svg width="128pt" height="128pt" viewBox="0 0 128 128" xmlns="http://www.w3.org/2000/svg">
    <path fill="#7e0c0d" d="M45.39 33.77c5.9-5.9 11.74-11.87 17.76-17.67 6.9 6.52 13.75 13.11 20.2 20.09-4.09 4.24-8.11 8.62-12.58 12.46-2.75-1.59-4.69-4.49-7.25-6.44-1.61 1.59-3.23 3.18-4.85 4.77-4.52-4.3-8.97-8.69-13.28-13.21m7.8 4.87c.87.74 1.75 1.48 2.63 2.22 2.75-2.47 5.22-5.22 7.91-7.76 3.11 3.13 6.13 6.37 9.42 9.32.81-.8 1.63-1.6 2.44-2.4-3.81-4.11-7.87-7.97-11.87-11.87-3.54 3.47-7.27 6.75-10.53 10.49z"/>
    <path fill="#b52c29" d="M53.19 38.64c3.26-3.74 6.99-7.02 10.53-10.49 4 3.9 8.06 7.76 11.87 11.87-.81.8-1.63 1.6-2.44 2.4-3.29-2.95-6.31-6.19-9.42-9.32-2.69 2.54-5.16 5.29-7.91 7.76-.88-.74-1.76-1.48-2.63-2.22z"/>
    <path fill="#b52c2b" d="M42.42 36.71c1-.97 1.99-1.95 2.97-2.94 4.31 4.52 8.76 8.91 13.28 13.21 1.62-1.59 3.24-3.18 4.85-4.77 2.56 1.95 4.5 4.85 7.25 6.44 4.47-3.84 8.49-8.22 12.58-12.46 1.07 1.07 2.14 2.13 3.23 3.18-4.61 3.83-8.74 8.19-12.86 12.53.9 1.13 1.78 2.27 2.68 3.4 4.91-3.81 8.8-8.71 13.04-13.22l.52.88c.56.95 1.13 1.9 1.69 2.85-3.77 4.22-8.33 7.73-11.76 12.23 1.73 2.37 3.97 4.28 6.04 6.34-2.33 2.43-4.7 4.84-7.13 7.18-5.18 4.77-9.72 10.18-15 14.85-7.69-7.12-15.11-14.55-22.26-22.21 2.72-2.67 5.48-5.32 8.02-8.17-4.22-4.53-8.75-8.76-13.08-13.19.99-.96 1.96-1.94 2.92-2.93 4.51 4.4 8.82 9.02 13.41 13.35.97-1.09 1.94-2.17 2.91-3.26-4.21-4.64-8.86-8.86-13.3-13.29m2.45 27.4c5.8 6.67 12.52 12.48 18.45 19.04 1.33-.93 2.65-1.9 3.77-3.09 5.1-5.31 10.46-10.35 15.56-15.66-6.27-6.26-12.43-12.63-18.79-18.79-6.87 5.56-12.72 12.28-18.99 18.5z"/>
    <path fill="#840c0e" d="M39.4 39.91c.98-1.09 1.99-2.15 3.02-3.2 4.44 4.43 9.09 8.65 13.3 13.29-.97 1.09-1.94 2.17-2.91 3.26-4.59-4.33-8.9-8.95-13.41-13.35z"/>
    <path fill="#840d0e" d="M73.72 51.9c4.12-4.34 8.25-8.7 12.86-12.53.95.9 1.9 1.81 2.86 2.71-4.24 4.51-8.13 9.41-13.04 13.22-.9-1.13-1.78-2.27-2.68-3.4z"/>
    <path fill="#840c0d" d="M15.1 64.09c7.13-7.08 14.08-14.35 21.38-21.25 4.33 4.43 8.86 8.66 13.08 13.19-2.54 2.85-5.3 5.5-8.02 8.17 7.15 7.66 14.57 15.09 22.26 22.21 5.28-4.67 9.82-10.08 15-14.85.73 1.39 1.45 2.78 2.26 4.12-.75.85-1.49 1.7-2.23 2.56 2.9 3.49 6.14 6.68 9.48 9.76-.9 1.01-1.81 2.02-2.69 3.06-2.58-3.35-5.61-6.29-8.7-9.15-1.08.79-2.16 1.58-3.23 2.38.89 1.15 1.79 2.31 2.74 3.42-.25 1.32-.49 2.64-.73 3.96l-2.95.16c.5-.53 1.48-1.61 1.98-2.15-.93-.73-1.87-1.46-2.81-2.17-3.42 1.99-5.03 5.97-8.52 7.91-2.38-2.62-4.82-5.19-7.29-7.72-.78 1.25-1.56 2.49-2.33 3.74-2.06.56-4.12 1.13-6.18 1.64 2.17-2.4 4.37-4.79 6.71-7.04-.85-.96-1.7-1.93-2.55-2.89-3.08 2.87-6.07 5.85-9.01 8.86-1.62-1.64-3.3-3.24-4.78-5.02.97.54 1.95 1.06 2.95 1.58 2.67-2.83 5.61-5.44 7.91-8.6-.59-1.03-1.28-2-1.93-2.99-2.65 2.33-4.99 4.99-7.69 7.24-1.12 1.2-2.75.36-4.08.14-6.69-6.74-13.56-13.31-20.03-20.27m24.67-12.34c-4.3 4.07-8.46 8.3-12.62 12.51 4.38 4.66 9 9.08 13.52 13.6.91-.89 1.81-1.8 2.72-2.69-3.49-3.51-6.93-7.06-10.51-10.48 2.7-3.88 6.44-6.84 9.46-10.44 1.79-1.4-1.11-4.29-2.57-2.5z"/>
    <g fill="#7e0c0b">
        <path d="M89.96 42.96c7.53 7.04 14.82 14.35 21.9 21.84-7.18 6.86-13.86 14.23-21.22 20.88-2.44-4-6.03-7.03-9.58-10-.81-1.34-1.53-2.73-2.26-4.12 2.43-2.34 4.8-4.75 7.13-7.18-2.07-2.06-4.31-3.97-6.04-6.34 3.43-4.5 7.99-8.01 11.76-12.23-.56-.95-1.13-1.9-1.69-2.85m-3.83 12.69c2.85 2.95 5.76 5.84 8.62 8.77-3.24 3.49-6.82 6.64-9.87 10.3.85.75 1.71 1.49 2.57 2.24 4.34-3.94 8.35-8.22 12.53-12.33-3.47-4.11-7.45-7.75-11.29-11.51-.86.84-1.71 1.69-2.56 2.53z"/>
        <path d="M44.87 64.11c6.27-6.22 12.12-12.94 18.99-18.5 6.36 6.16 12.52 12.53 18.79 18.79-5.1 5.31-10.46 10.35-15.56 15.66-1.12 1.19-2.44 2.16-3.77 3.09-5.93-6.56-12.65-12.37-18.45-19.04m18.5-11.22c-3.77 3.85-7.64 7.61-11.49 11.37 3.7 4.09 7.8 7.8 11.54 11.85 4.21-3.5 7.71-7.75 11.79-11.4-3.6-4.25-7.65-8.15-11.84-11.82z"/>
    </g>
    <path fill="#bb2c29" d="M39.77 51.75c1.46-1.79 4.36 1.1 2.57 2.5-3.02 3.6-6.76 6.56-9.46 10.44 3.58 3.42 7.02 6.97 10.51 10.48-.91.89-1.81 1.8-2.72 2.69-4.52-4.52-9.14-8.94-13.52-13.6 4.16-4.21 8.32-8.44 12.62-12.51z"/>
    <path fill="#ba2b2c" d="M63.37 52.89c4.19 3.67 8.24 7.57 11.84 11.82-4.08 3.65-7.58 7.9-11.79 11.4-3.74-4.05-7.84-7.76-11.54-11.85 3.85-3.76 7.72-7.52 11.49-11.37m.01 7.41c-1.43 1.17-2.65 2.57-3.92 3.9 1.26 1.67 2.66 3.24 4.2 4.66 1.54-1.44 2.97-2.99 4.3-4.63-1.49-1.3-2.63-3.38-4.58-3.93z"/>
    <path fill="#b82b2b" d="M86.13 55.65c.85-.84 1.7-1.69 2.56-2.53 3.84 3.76 7.82 7.4 11.29 11.51-4.18 4.11-8.19 8.39-12.53 12.33-.86-.75-1.72-1.49-2.57-2.24 3.05-3.66 6.63-6.81 9.87-10.3-2.86-2.93-5.77-5.82-8.62-8.77z"/>
    <path fill="#840c08" d="M63.38 60.3c1.95.55 3.09 2.63 4.58 3.93-1.33 1.64-2.76 3.19-4.3 4.63-1.54-1.42-2.94-2.99-4.2-4.66 1.27-1.33 2.49-2.73 3.92-3.9z"/>
    <path fill="#bb2b2f" d="M81.06 75.68c3.55 2.97 7.14 6 9.58 10-.78.77-1.56 1.54-2.33 2.32-3.34-3.08-6.58-6.27-9.48-9.76.74-.86 1.48-1.71 2.23-2.56z"/>
    <g fill="#bd2c31">
        <path d="M39.21 84.22c2.7-2.25 5.04-4.91 7.69-7.24.65.99 1.34 1.96 1.93 2.99-2.3 3.16-5.24 5.77-7.91 8.6-1-.52-1.98-1.04-2.95-1.58-1-.82-1.91-1.74-2.84-2.63 1.33.22 2.96 1.06 4.08-.14zM42.75 92.01c2.94-3.01 5.93-5.99 9.01-8.86.85.96 1.7 1.93 2.55 2.89-2.34 2.25-4.54 4.64-6.71 7.04-1.15.35-2.36.3-3.55.23-.32-.33-.97-.97-1.3-1.3z"/>
    </g>
    <path fill="#c02c2c" d="M73.69 84.29c1.07-.8 2.15-1.59 3.23-2.38 3.09 2.86 6.12 5.8 8.7 9.15l-1.72.92c-.53.21-1.59.65-2.12.87-1.79-1.71-3.65-3.35-5.35-5.14-.95-1.11-1.85-2.27-2.74-3.42z"/>
    <path fill="#b52829" d="M56.11 87.7c2.47 2.53 4.91 5.1 7.29 7.72 3.49-1.94 5.1-5.92 8.52-7.91.94.71 1.88 1.44 2.81 2.17-.5.54-1.48 1.62-1.98 2.15-3.04 3.05-6.12 6.06-9.28 8.99-3.1-3.26-6.17-6.56-9.69-9.38.77-1.25 1.55-2.49 2.33-3.74z"/>
    <path fill="#7b0c0b" d="M76.43 87.71c1.7 1.79 3.56 3.43 5.35 5.14.53-.22 1.59-.66 2.12-.87-5.9 7.51-13.3 13.73-19.94 20.59-7.21-5.75-13.18-12.94-19.91-19.26 1.19.07 2.4.12 3.55-.23 2.06-.51 4.12-1.08 6.18-1.64 3.52 2.82 6.59 6.12 9.69 9.38 3.16-2.93 6.24-5.94 9.28-8.99l2.95-.16c.24-1.32.48-2.64.73-3.96z"/>
</svg>
