<svg width="128pt" height="128pt" viewBox="0 0 128 128" xmlns="http://www.w3.org/2000/svg">
    <g fill="#fff">
        <path d="M53.15 38.32c3.58-3.43 6.96-7.06 10.57-10.45 3.96 4.16 8.11 8.13 12.13 12.22-.86.9-1.73 1.79-2.62 2.67-3.14-3.23-6.38-6.38-9.54-9.6-2.55 2.71-5.22 5.31-7.84 7.95l-2.7-2.79z"/>
        <path d="M45.21 33.88c4.76 4.15 8.73 9.14 13.65 13.09 1.6-1.67 3.24-3.31 4.86-4.97 2.34 2.29 4.65 4.6 6.91 6.96 4.1-4.33 8.44-8.41 12.58-12.7.97.98 1.95 1.95 2.95 2.91-4.01 4.39-8.35 8.47-12.54 12.68 1.07 1.08 2.15 2.15 3.22 3.23 4.23-4.2 8.37-8.49 12.67-12.61.68 1.05 2.26 1.75 2.38 3.09-3.97 4.23-8.32 8.1-12.19 12.43 2.12 2.04 4.17 4.16 6.28 6.22-7.09 7.8-14.88 14.97-22.22 22.55-7.55-7.37-14.9-14.94-22.44-22.32 2.74-2.81 5.54-5.55 8.33-8.3-4.4-4.38-8.77-8.79-13.18-13.15 1.02-1.01 2.07-1.99 3.13-2.96 4.36 4.35 8.55 8.9 13.18 12.98C53.76 52 54.75 51 55.76 50c-4.35-4.42-8.81-8.73-13.11-13.2.89-.94 1.74-1.92 2.56-2.92m18.33 11.59c-6.15 6.41-12.76 12.41-18.7 18.99 6.39 6.18 12.62 12.53 18.9 18.83 6.18-6.4 12.6-12.58 18.81-18.94-6.35-6.29-12.51-12.76-19.01-18.88z"/>
        <path d="M40.63 50.46l3.06 2.97c-3.75 3.59-7.35 7.34-11.09 10.95 3.77 3.39 7.01 7.33 10.89 10.61-.97.98-1.92 1.98-2.88 2.97-4.43-4.68-9.1-9.13-13.61-13.73 4.55-4.58 9.21-9.05 13.63-13.77zM51.85 64.14c3.99-3.81 7.83-7.77 11.73-11.67 3.95 4.05 8.01 7.97 11.95 12.03-3.98 3.83-7.9 7.72-11.77 11.66-4.04-3.93-8.16-7.81-11.91-12.02m7.5.24c1.42 1.42 2.84 2.84 4.27 4.25 1.42-1.43 2.86-2.85 4.34-4.23-1.49-1.41-2.94-2.86-4.34-4.36-1.39 1.48-2.82 2.92-4.27 4.34zM85.99 55.74c.93-.91 1.85-1.83 2.77-2.74 3.84 3.83 7.65 7.68 11.52 11.47-4.26 4.17-8.38 8.48-12.65 12.63-.92-.87-1.83-1.74-2.75-2.6 3.18-3.43 6.51-6.72 9.93-9.92-2.92-2.96-5.88-5.9-8.82-8.84zM78.36 78.42c1.02-1 2.05-2 3.07-3 3.25 3.17 6.43 6.41 9.61 9.65l-3 3c-3.23-3.21-6.42-6.47-9.68-9.65zM37.25 86.23c3.25-3.01 6.09-6.46 9.56-9.22.93.95 1.86 1.9 2.79 2.84-3.18 3.11-6.15 6.43-9.52 9.33-.94-.99-1.89-1.97-2.83-2.95zM73.33 84.64c1.1-1.07 2.21-2.13 3.33-3.17 2.97 3.07 6.1 5.99 8.99 9.13-1.09 1.01-2.18 2.01-3.25 3.03-3.01-3-5.96-6.08-9.07-8.99zM42.85 91.97c2.88-3.05 5.92-5.95 8.85-8.96.98.95 1.97 1.9 2.96 2.85-2.97 2.96-5.96 5.89-8.89 8.89-.97-.93-1.94-1.86-2.92-2.78zM53.44 90.62c1.02-.93 2.06-1.84 3.12-2.73 2.27 2.62 4.86 4.94 7.22 7.47 2.65-2.79 5.43-5.46 8.12-8.2.96.94 1.91 1.89 2.86 2.83-3.71 3.7-7.38 7.43-11.19 11.03-3.29-3.55-6.9-6.79-10.13-10.4z"/>
    </g>
</svg>
