<svg width="128pt" height="128pt" viewBox="0 0 128 128" xmlns="http://www.w3.org/2000/svg">
    <g fill="#fff">
        <path d="M30.38 69.63c10.61-15.71 21.6-31.17 32.34-46.8-.06 15.57-.14 31.14-.23 46.7-5.21 5.56-10.44 11.08-15.58 16.7-5.76-5.28-10.9-11.19-16.53-16.6m5.18-1.55c3.99 3.95 7.94 7.96 11.93 11.91 3.49-3.9 7.38-7.43 10.87-11.34.77-.04 1.55-.07 2.32-.09-1.51-.42-1.98-1.53-1.4-3.3.19-10.69.24-21.38.47-32.07-8.2 11.54-16.05 23.31-24.19 34.89zM65.68 22.77C76.4 38.46 87.49 53.91 98.07 69.69 92.5 75.13 87.18 80.8 81.63 86.25c-5.24-5.46-10.28-11.11-15.61-16.49-.36-15.66-.13-31.32-.34-46.99m3.1 10.38c-.22 11.58.58 23.14.36 34.72 3.94 4.08 7.9 8.14 11.94 12.13 3.9-3.98 7.92-7.84 11.77-11.87-7.99-11.69-16.08-23.29-24.07-34.98zM28.67 73.65c4 4.18 7.66 8.67 11.66 12.87 1.06 1.26 2.54 2.41 2.71 4.17-3.3.27-6.61.14-9.91.25.12-.38.35-1.13.46-1.5-1.65-1.88-3.49-3.57-5.3-5.29-1.79 2.28-3.81 4.37-5.53 6.7-2.59.01-5.18 0-7.77-.03 4.75-5.57 9.04-11.51 13.68-17.17zM85.14 89.82c4.88-5.4 9.73-10.8 14.62-16.18 4.62 5.66 8.94 11.55 13.63 17.15-2.62.07-5.24.07-7.86.06-1.6-2.46-3.62-4.62-5.66-6.72-1.69 1.83-3.38 3.66-5.17 5.39.23.33.69 1.01.92 1.34-3.19 0-6.39.02-9.58 0-.22-.26-.67-.78-.9-1.04zM50.98 90.84c4.51-4.64 8.94-9.36 13.22-14.21 4.24 4.87 8.72 9.53 13.24 14.14-3.12-.03-6.25.07-9.37-.14-1.42-1.08-2.61-2.43-3.92-3.63-1.32 1.3-2.61 2.64-3.99 3.88-3.05-.22-6.12-.15-9.18-.04z"/>
    </g>
</svg>
