<svg width="128pt" height="128pt" viewBox="0 0 128 128" xmlns="http://www.w3.org/2000/svg">
    <path fill="#6b1c21" d="M21.81 40.15c14.12-7.84 27.86-16.37 42.11-23.97.01.52.02 1.57.02 2.1-5.09 3.15-10.42 5.9-15.45 9.16 4.68 2.82 9.28 5.76 14.1 8.33-2.55.42-5.11.82-7.67 1.24-3.93-1.97-7.49-4.98-11.89-5.83-5.65 1.48-10.28 5.33-15.24 8.26 4.67 2.54 9.06 5.62 13.89 7.85 1.58.98 3.26-.19 4.73-.82 4.25-2.25 8.29-4.89 12.42-7.37.65.34 1.3.68 1.95 1.01-6.46 3.76-12.91 7.53-19.39 11.26-6.5 3.72-12.78 7.87-19.66 10.89.05-7.37-.07-14.74.08-22.11z"/>
    <g fill="#631c1b">
        <path d="M63.92 16.18c13.95 7.86 27.73 16.02 41.67 23.9.17 7.38.08 14.75.06 22.13-12.1-5.88-23.45-13.18-35.06-19.94-2.98-1.62-6.41-4.48-9.81-2.16-.65-.33-1.3-.67-1.95-1.01-1.31-.69-2.61-1.38-3.91-2.09 2.56-.42 5.12-.82 7.67-1.24 6.29-.97 11.2-5.4 16.6-8.38-5.02-3.13-10.28-5.89-15.25-9.11 0-.53-.01-1.58-.02-2.1m20.56 14.11c-5.22 2.94-10.51 5.75-15.56 8.98 4.99 2.92 9.76 6.37 15.16 8.51 5.68-1.86 10.45-5.76 15.81-8.38-5.06-3.16-10.21-6.18-15.41-9.11zM53.56 48.41c3.16-1.75 6.11-4.02 9.59-5.11 1.99-.18 3.74 1.14 5.46 1.96 11.12 6.52 22.48 12.62 33.45 19.4-11.63 6.45-23.13 13.12-34.62 19.82-1.34.67-2.69 1.58-4.24 1.6-2.54-.97-4.8-2.52-7.13-3.88-10.12-5.97-20.45-11.57-30.33-17.94 9.35-5.15 18.57-10.53 27.82-15.85M56 64.49c2.53 1.54 4.91 3.68 7.89 4.23 2.65-.95 4.96-2.62 7.37-4.04-1.6-1.09-3.2-2.21-4.89-3.16-3.6-2.8-7.17 1.52-10.37 2.97z"/>
    </g>
    <g fill="#a52426">
        <path d="M48.49 27.44c5.03-3.26 10.36-6.01 15.45-9.16 4.97 3.22 10.23 5.98 15.25 9.11-5.4 2.98-10.31 7.41-16.6 8.38-4.82-2.57-9.42-5.51-14.1-8.33m11.62-.27c1.25.7 2.44 1.57 3.84 1.95 1.25-.56 2.44-1.24 3.63-1.92-2.42-1.27-5.04-1.21-7.47-.03zM27.79 39.44c4.96-2.93 9.59-6.78 15.24-8.26 4.4.85 7.96 3.86 11.89 5.83 1.3.71 2.6 1.4 3.91 2.09-4.13 2.48-8.17 5.12-12.42 7.37-1.47.63-3.15 1.8-4.73.82-4.83-2.23-9.22-5.31-13.89-7.85m11.48-.43c1.14.77 2.33 1.46 3.57 2.08 1.27-.53 2.47-1.21 3.68-1.87-2.31-1.43-4.86-1.47-7.25-.21zM27.68 89.7c5.07-3.08 10.25-5.97 15.43-8.87 2.84 1.5 5.69 2.99 8.47 4.61 2.34 1.38 4.62 2.86 6.91 4.33-5.19 2.7-9.82 6.58-15.37 8.5-2.71-.78-5.12-2.36-7.56-3.72-2.57-1.71-5.23-3.28-7.88-4.85m11.61-.51c1.19.72 2.19 1.96 3.65 2.11 1.35-.53 2.51-1.41 3.67-2.24-2.4-.75-4.93-.69-7.32.13z"/>
    </g>
    <path fill="#731d20" d="M60.11 27.17c2.43-1.18 5.05-1.24 7.47.03-1.19.68-2.38 1.36-3.63 1.92-1.4-.38-2.59-1.25-3.84-1.95z"/>
    <path fill="#a22426" d="M84.48 30.29c5.2 2.93 10.35 5.95 15.41 9.11-5.36 2.62-10.13 6.52-15.81 8.38-5.4-2.14-10.17-5.59-15.16-8.51 5.05-3.23 10.34-6.04 15.56-8.98m-3.88 9c2.41 1.77 5.18 1.71 7.78.36-1.2-.75-2.39-1.52-3.69-2.09-1.43.4-2.74 1.11-4.09 1.73z"/>
    <path fill="#721d1e" d="M80.6 39.29c1.35-.62 2.66-1.33 4.09-1.73 1.3.57 2.49 1.34 3.69 2.09-2.6 1.35-5.37 1.41-7.78-.36z"/>
    <path fill="#721d21" d="M39.27 39.01c2.39-1.26 4.94-1.22 7.25.21-1.21.66-2.41 1.34-3.68 1.87-1.24-.62-2.43-1.31-3.57-2.08z"/>
    <path fill="#a52429" d="M60.78 40.11c3.4-2.32 6.83.54 9.81 2.16 11.61 6.76 22.96 14.06 35.06 19.94 1.3.6 2.6 1.21 3.91 1.81-.45.36-1.34 1.06-1.79 1.42-.65.53-1.35.98-2.11 1.34-3.32 1.56-6.6 3.23-9.74 5.13-10.57 6.34-21.46 12.13-31.97 18.57-3.91-2.17-7.79-4.38-11.63-6.65-10.21-5.67-20.05-12.03-30.6-17.04-1.46-.71-2.81-1.63-4.17-2.53 1.39-.68 2.77-1.36 4.18-2 6.88-3.02 13.16-7.17 19.66-10.89 6.48-3.73 12.93-7.5 19.39-11.26m-7.22 8.3c-9.25 5.32-18.47 10.7-27.82 15.85 9.88 6.37 20.21 11.97 30.33 17.94 2.33 1.36 4.59 2.91 7.13 3.88 1.55-.02 2.9-.93 4.24-1.6 11.49-6.7 22.99-13.37 34.62-19.82-10.97-6.78-22.33-12.88-33.45-19.4-1.72-.82-3.47-2.14-5.46-1.96-3.48 1.09-6.43 3.36-9.59 5.11z"/>
    <path fill="#ad2429" d="M56 64.49c3.2-1.45 6.77-5.77 10.37-2.97 1.69.95 3.29 2.07 4.89 3.16-2.41 1.42-4.72 3.09-7.37 4.04-2.98-.55-5.36-2.69-7.89-4.23z"/>
    <path fill="#170606" opacity=".42" d="M109.56 64.02l.55.44c-.25 1.64-1.03 1.97-2.34.98.45-.36 1.34-1.06 1.79-1.42z"/>
    <path fill="#681c21" d="M21.72 66.79c10.55 5.01 20.39 11.37 30.6 17.04l-.74 1.61c-2.78-1.62-5.63-3.11-8.47-4.61-5.18 2.9-10.36 5.79-15.43 8.87 2.65 1.57 5.31 3.14 7.88 4.85.31.64.95 1.91 1.26 2.55-5.22-2.33-9.95-5.6-15-8.27-.18-7.34-.03-14.69-.1-22.04z"/>
    <path fill="#601c1b" d="M95.92 71.91c3.14-1.9 6.42-3.57 9.74-5.13.01 7.35.09 14.71-.05 22.07-9.61 5.5-19.18 11.1-28.8 16.59-4.3 2.41-8.41 5.23-12.95 7.18-5.15-1.96-9.57-5.41-14.44-7.94-4.12-2.66-8.78-4.53-12.6-7.58-.31-.64-.95-1.91-1.26-2.55 2.44 1.36 4.85 2.94 7.56 3.72 5.55-1.92 10.18-5.8 15.37-8.5-2.29-1.47-4.57-2.95-6.91-4.33l.74-1.61c3.84 2.27 7.72 4.48 11.63 6.65 10.51-6.44 21.4-12.23 31.97-18.57M68.89 89.55c4.03 2.56 8.14 5 12.35 7.27 1.37.61 2.87 1.8 4.4.87 4.88-2.17 9.28-5.28 13.89-7.95-4.97-3.05-9.76-6.78-15.35-8.52-5.45 2.06-10.15 5.65-15.29 8.33m-20.55 11.83c4.55 2.93 9.14 5.84 13.97 8.28 1.53.98 3.08-.2 4.46-.85 4.22-2.34 8.36-4.82 12.44-7.4-5.18-2.83-10.15-6.03-15.32-8.89-5.24 2.86-10.37 5.9-15.55 8.86z"/>
    <g fill="#a22423">
        <path d="M68.89 89.55c5.14-2.68 9.84-6.27 15.29-8.33 5.59 1.74 10.38 5.47 15.35 8.52-4.61 2.67-9.01 5.78-13.89 7.95-1.53.93-3.03-.26-4.4-.87-4.21-2.27-8.32-4.71-12.35-7.27m12.13-.5c1.85 3 5.08 2.22 7.37.31-2.35-1.17-4.92-1.31-7.37-.31zM48.34 101.38c5.18-2.96 10.31-6 15.55-8.86 5.17 2.86 10.14 6.06 15.32 8.89-4.08 2.58-8.22 5.06-12.44 7.4-1.38.65-2.93 1.83-4.46.85-4.83-2.44-9.42-5.35-13.97-8.28m12.12-.57c.83.94 1.66 1.87 2.5 2.8 1.45-.72 2.9-1.44 4.34-2.17-2.13-1.28-4.5-1.59-6.84-.63z"/>
    </g>
    <path fill="#6d1d20" d="M39.29 89.19c2.39-.82 4.92-.88 7.32-.13-1.16.83-2.32 1.71-3.67 2.24-1.46-.15-2.46-1.39-3.65-2.11z"/>
    <path fill="#6c1d19" d="M81.02 89.05c2.45-1 5.02-.86 7.37.31-2.29 1.91-5.52 2.69-7.37-.31z"/>
    <path fill="#671c20" d="M60.46 100.81c2.34-.96 4.71-.65 6.84.63-1.44.73-2.89 1.45-4.34 2.17-.84-.93-1.67-1.86-2.5-2.8z"/>
</svg>
