<svg width="128pt" height="128pt" viewBox="0 0 128 128" xmlns="http://www.w3.org/2000/svg">
    <path fill="#fff" d="M25.54 27.01c1.22-6.35 8.24-10.97 14.54-8.93 4.45 1.21 7.73 5.11 8.5 9.61 9.01-2.02 18.76-.73 26.78 3.91 8.32 4.63 14.58 12.62 17.32 21.72 3.87-1.71 8.66-1.69 12.13.93 5.76 3.93 6.61 13.26 1.27 17.92-3.42 3.51-8.95 4.07-13.3 2.08-2.43 7.79-7.16 14.95-13.88 19.68-8.44 6.28-19.65 8.49-29.9 6.25-.97 7.42-9.53 12.48-16.37 9.04-7.85-3.07-9.26-14.71-2.61-19.8-6.3-6.94-10.08-16.08-10.21-25.47.09-9.3 3.72-18.43 9.94-25.32-3.15-2.9-5.23-7.29-4.21-11.62m7.93-5.28c-5.53 2.35-6.65 10.9-1.48 14.24 5.13 4.36 14.03-.33 13.33-7.01.02-5.79-6.7-9.69-11.85-7.23m16.04 9.62c.94 3.19 1.88 6.38 2.8 9.58 5.49-.85 11.32-.41 16.25 2.33 5.22 2.61 8.87 7.5 11.03 12.81 3.17-.62 6.34-1.25 9.5-1.96-1.47-4.88-4.27-9.16-7.41-13.12-1.42 1.26-2.82 2.54-4.19 3.85-3.88-3.93-8.71-6.96-14.17-8.07.37-1.84.78-3.68 1.19-5.52-4.93-1.07-10.08-1.03-15 .1m-24.48 22.8c1.79.53 3.58 1.07 5.38 1.59-1.41 5.34-1.5 11.02.11 16.32-1.84.59-3.68 1.19-5.51 1.8 1.78 4.72 4.14 9.27 7.7 12.92 3.78-3.5 6.86-7.71 10.9-10.94 4.55 5.48 12.42 7.95 19.25 5.82 6.99-1.88 12.39-8.37 13.14-15.54 1.2-8.92-5.17-18.21-14.06-19.96-6.54-1.84-13.8.79-18.2 5.82-4.47-2.76-7.27-7.39-11.1-10.88-3.51 3.7-5.99 8.24-7.61 13.05m69.23 2.1c-5.59 2.74-5.54 11.71-.11 14.59 4.78 2.91 11.83-.32 12.4-5.98 1.59-6.52-6.7-12.16-12.29-8.61M79.45 71.36c-3.73 11.06-16.2 17.63-27.49 14.88-.88 3.44-1.55 6.92-2.36 10.37 4.95.89 10.02.95 14.95-.06-.41-1.83-.86-3.65-1.27-5.47 5.45-1.25 10.24-4.35 14.28-8.14 1.37 1.25 2.76 2.49 4.12 3.75 3.12-3.94 5.9-8.21 7.37-13.06-3.17-.61-6.46-2.77-9.6-2.27M34.51 90.57c-5.96 1.92-7.68 10.7-2.45 14.37 4.54 4.31 12.91.95 13.52-5.17 1.14-6-5.42-11.27-11.07-9.2z"/>
    <path fill="#2a2a2a" opacity=".16" d="M75.31 20.28c.52.48.52.48 0 0z"/>
</svg>
