<svg width="128pt" height="128pt" viewBox="0 0 128 128" xmlns="http://www.w3.org/2000/svg">
    <g fill="#fff">
        <path d="M71.29 17.91c13.97 4.02 26.17 16.53 26.83 31.51-2.21-.01-4.42 0-6.63-.03-.9-11.48-9.52-21.71-20.69-24.52.05-2.33.26-4.65.49-6.96zM30.16 49.38c.94-14.94 12.9-27.66 27.05-31.47.09 2.28.28 4.56.43 6.84-7.84 2.09-14.81 7.41-18.32 14.8-1.55 3.1-2.15 6.53-2.84 9.89-2.11-.04-4.22-.05-6.32-.06zM39.39 51.97c4.34-.17 8.68.23 13.01-.03.37 4.61 3.47 8.67 7.76 10.33.06 6.23.04 12.45.08 18.67-.11 1.96.74 4.29 2.88 4.73 2.3.7 4.71-1.36 4.68-3.69.14-6.57.03-13.16.11-19.74 4.37-1.64 7.39-5.65 7.85-10.29 4.34-.03 8.67-.03 13.01-.05-.15 6.2-3.39 11.62-5.95 17.09-2.61 5.28-6.42 9.95-8.42 15.53-1.31 6.4-.34 13.04-1.38 19.49-.55 3.4-3.41 5.71-6.37 7.08-.01-7.39.03-14.78-.09-22.17-1.66-.04-3.32-.05-4.97-.04-.29 7.42 0 14.84-.19 22.27-2.97-1.44-5.93-3.7-6.5-7.17-1.06-8.33 1.11-17.56-3.78-25.02-4.28-6.67-7.96-13.72-10.87-21.09-.57-1.92-.66-3.93-.86-5.9m44.1 1.61c-.95 7.6-6.73 14.07-14.01 16.27-.02 1.09-.04 2.17-.05 3.25 9-2.24 16.15-10.23 17.14-19.49-1.02-.02-2.05-.03-3.08-.03m-42.03-.37c.96 9.38 8.01 17.58 17.15 19.88l.16-3.05c-7.42-2.4-13.13-8.93-14.36-16.66-.74-.04-2.22-.12-2.95-.17z"/>
    </g>
</svg>
