<svg width="128pt" height="128pt" viewBox="0 0 128 128" xmlns="http://www.w3.org/2000/svg">
    <g fill="#ad2829">
        <path d="M44.19 38.43c7.09 1.41 13.63 4.75 19.69 8.6 2.38 1.47 4.55 3.37 7.29 4.16-3.32-4.01-8.03-6.4-12.32-9.19l-.36-1.54c6.57 1.79 11.57 6.55 16.5 10.96 3.13.71 6.04 2.08 8.8 3.69 4.51 2.93 10.05 2.09 15.13 2.45 5.71.35 11.48.25 17.12 1.34-9.55 1.54-19.36-.44-28.86 1.35-.86.51-1.62 1.16-2.26 1.95-1.93.63-3.71 1.66-5.27 2.95-2.15-.3-3.17 1.29-3.73 3.14 2.55 1.08 4.97-.56 7.15-1.69 1.35.07 2.32-.63 3.04-1.7 2.22 1.24 2.11 3.9-.08 5.11-5.18 3.15-10.93 6.56-17.25 5.52-.72 4.52-.57 9.12.61 13.56.97 1.64-.79 4.61-1.83 1.69-.47-2.23-.75-4.49-1.04-6.74-.47.07-1.41.23-1.88.31.01 2.01.03 4.02.04 6.04-.73-.06-2.2-.16-2.93-.22.44-2.81.86-5.62 1.15-8.45-1.78 2.06-3.22 4.37-4.43 6.8-.69-.79-1.39-1.57-2.08-2.36 1.66-1.94 3.64-3.7 4.63-6.11-2.47.86-4.69 2.26-7.03 3.41-.87-.86-1.73-1.72-2.6-2.58 3.92-.77 7.48-2.61 11.04-4.35-8.31-.45-16.98-2.3-23.84-7.24-3.26-2.02-6.29-5.64-10.51-4.95-4.38 1.82-5.64 6.82-7.63 10.65-.58-1.12-1.8-2.3-1.18-3.67 1.59-3.14 4.17-5.64 6.59-8.14-.19-1.28-.43-2.54-.7-3.8-3.16.03-6.32.06-9.48.08.07-1.6.13-3.19.2-4.78l.04-.9c3.54 1.24 6.44 4.09 10.33 4.27-3.16-2.34-6.34-4.7-9-7.62.56-.68 1.68-2.03 2.24-2.71 2.86 2.98 4.17 7.7 8.54 8.94 2.41-.37 4.55-1.67 6.9-2.25 5.01-1.24 10.19-1.5 15.3-2.07-1.39-1.55-3.24-2.54-4.92-3.73 3.92-.66 6.61 3.55 10.54 3.57-2.92-2.83-6.71-4.34-10.45-5.74-.37-.34-1.11-1.01-1.49-1.34l.73.22c5.58 1.28 9.98 5.35 15.54 6.62-1.03-1-2.08-1.99-3.14-2.97-3.71-2.11-7.6-3.85-11.52-5.53-.14-.34-.41-1.01-.55-1.35 6.29 1.7 11.97 5.05 17.32 8.7.84-.02 2.54-.05 3.38-.07-6.1-3.49-11.91-7.72-18.7-9.8-1.25-.45-2.84-.83-2.78-2.49m-.15 15.95c-4.53.32-8.83 1.81-12.82 3.91-.26 2.93.51 6.06 3.88 6.77-.96-1.65-1.88-3.34-2.05-5.28.35-.17 1.03-.5 1.38-.66l-1.08 1.79c1.21 1.67 2.7 3.1 4.41 4.25-.16.44-.47 1.32-.63 1.75 4.91 3.08 10.05 5.83 15.75 7.12l-.02-.42c1.42.87 1.92.47 1.52-1.2 3.21.56 6.48.33 9.72.28-2.37-4.2-3.45-9.15-1.77-13.81.78-1.49 1.45-3.03 2.05-4.59.44-.22 1.33-.66 1.77-.88-7.34-1.47-14.77.38-22.11.97m24.38 19.08c6.1 1.26 11.72-2.69 17.43-4.21-2.74-.16-5.46.26-8.07 1.04-2.4-.51-3.71-3.51-1.95-5.41 3.15-2.43 7.07-3.63 10.33-5.92-4.3-3.33-9.65-6.51-15.23-6.28-7.39 3.64-9 15.35-2.51 20.78m-33.32-8.4c.66.37.66.37 0 0z"/>
        <path d="M55.66 55.01c2.34-.89 5.07-1.77 7.33-.21-2.02-.81-3.7-.54-5.05.83-4.32.27-8.72-.09-12.97.89-3.24.72-6.43 1.68-9.71 2.16 2.88-1.86 6.45-1.74 9.66-2.61 3.5-1 7.14-.93 10.74-1.06zM15.4 62.79c3.01-.66 6.49-2.35 9.4-.62-.02.23-.07.68-.09.9-2.77 1.8-4.86 4.42-7.59 6.26-.8-2.12-1.33-4.32-1.72-6.54z"/>
    </g>
    <path fill="#1b0607" opacity=".45" d="M45.52 43.44c3.92 1.68 7.81 3.42 11.52 5.53 1.06.98 2.11 1.97 3.14 2.97-5.56-1.27-9.96-5.34-15.54-6.62l.88-1.88z"/>
    <path fill="#210708" opacity=".55" d="M45.4 46.44c3.74 1.4 7.53 2.91 10.45 5.74-3.93-.02-6.62-4.23-10.54-3.57.02-.54.07-1.63.09-2.17z"/>
    <path opacity=".16" d="M44.04 54.38c7.34-.59 14.77-2.44 22.11-.97-.44.22-1.33.66-1.77.88-.6 1.56-1.27 3.1-2.05 4.59-.48-2.16-2.53-2.74-4.39-3.25 1.35-1.37 3.03-1.64 5.05-.83-2.26-1.56-4.99-.68-7.33.21-3.6.13-7.24.06-10.74 1.06-3.21.87-6.78.75-9.66 2.61-.21.11-.63.33-.83.44-.35.16-1.03.49-1.38.66.17 1.94 1.09 3.63 2.05 5.28-3.37-.71-4.14-3.84-3.88-6.77 3.99-2.1 8.29-3.59 12.82-3.91zM14.13 59.55c.54-1.64 1.12-3.26 1.75-4.87-.07 1.59-.13 3.18-.2 4.78 3.16-.02 6.32-.05 9.48-.08.27 1.26.51 2.52.7 3.8-2.42 2.5-5 5-6.59 8.14-.62 1.37.6 2.55 1.18 3.67-.19.23-.56.68-.75.9-.29-.28-.89-.86-1.18-1.15.36-3.9-3.72-6.04-3.66-9.8.13-1.38.5-2.72.81-4.07-.39-.33-1.16-.99-1.54-1.32m1.27 3.24c.39 2.22.92 4.42 1.72 6.54 2.73-1.84 4.82-4.46 7.59-6.26.02-.22.07-.67.09-.9-2.91-1.73-6.39-.04-9.4.62zM52.86 73.61c.01-.36.03-1.09.05-1.45.36.06 1.1.19 1.47.25.4 1.67-.1 2.07-1.52 1.2z"/>
    <path fill="#180606" opacity=".32" d="M83.79 55.11c10.62 2.48 21.74.91 32.35 2.93v1.99c-9.61.62-19.32.55-28.96.22 9.5-1.79 19.31.19 28.86-1.35-5.64-1.09-11.41-.99-17.12-1.34-5.08-.36-10.62.48-15.13-2.45z"/>
    <path fill="#651818" opacity=".76" d="M75.44 60.57c-1.75-1.4-.42-3.54.32-5.07 1.76.09 4.38.15 4.49 2.5.79 2.71-3.04 4.54-4.81 2.57m.82-3.34c.51.49.51.49 0 0m2.18 1.15c-1-.4-3.46 1.33-1.49 1.81 1.04.52 3.46-1.4 1.49-1.81z"/>
    <path fill="#1c0704" opacity=".58" d="M76.26 57.23c.51.49.51.49 0 0z"/>
    <path fill="#250907" opacity=".53" d="M78.44 58.38c1.97.41-.45 2.33-1.49 1.81-1.97-.48.49-2.21 1.49-1.81z"/>
    <path fill="#130404" opacity=".41" d="M35.1 65.06c.66.37.66.37 0 0z"/>
    <g>
        <path fill="#501215" opacity=".65" d="M48.95 71.16c3.04-1.51.2 3.29 0 0z"/>
    </g>
    <g>
        <path fill="#020001" opacity=".16" d="M58.47 88.52c1.21-2.43 2.65-4.74 4.43-6.8-.29 2.83-.71 5.64-1.15 8.45.73.06 2.2.16 2.93.22-.01-2.02-.03-4.03-.04-6.04.47-.08 1.41-.24 1.88-.31.29 2.25.57 4.51 1.04 6.74l-6.11-.03-.66-3.39-2.32 1.16z"/>
    </g>
</svg>
