<svg width="128pt" height="128pt" viewBox="0 0 128 128" xmlns="http://www.w3.org/2000/svg">
    <g fill="#fff">
        <path d="M43.18 39.02c.62-.11 1.85-.35 2.46-.46 7.93 2.24 15.19 6.29 21.93 10.96 1.12.85 2.45 1.34 3.76 1.82-3.41-4.04-8.1-6.63-12.53-9.35l-.49-1.2c6.77 1.03 11.79 6.37 16.77 10.68 5.27.98 9.48 4.78 14.79 5.63 8.71.14 17.4.57 26.08 1.24l-.08 1.19c-6.94.25-13.88.27-20.81.18-2.33 0-4.74-.25-6.99.5-1.87.59-3.23 2.27-5.25 2.45l-.04 1.24c-.68-.02-2.04-.05-2.71-.07l.21 1.63c-2.11-.46-3.81.12-4.23 2.57.66.11 1.96.34 2.62.45.33.41.98 1.24 1.31 1.65-2.98 1.17-6.53-2.03-4.45-4.81 2.95-3 7.38-3.9 10.72-6.42-1.76-1.3-3.61-2.46-5.45-3.63-.41.54-.83 1.09-1.24 1.64 2.6 2.89-2.93 6.41-4.54 2.98-2.01-2.94 2.65-5.24 5.07-4.29-.77-.52-2.3-1.57-3.06-2.09-2.46-.6-5.12-1.34-7.59-.36-2.59 2.98-5.41 6.52-5.08 10.7.11 3.7 1.37 7.93 4.75 9.91 3.87.39 7.43-1.29 11-2.48.5.55.99 1.11 1.5 1.66-4.13 1.53-8.24 3.42-12.78 2.68-.42 3.37-.89 6.83-.1 10.19.29 2.15 1.38 4.31.58 6.49-4.08-1.41-.68-7.21-4.41-8.82-.2 2.47-.18 4.95-.16 7.43-.97-.62-3.02-.24-3.01-1.83.17-2.44.96-4.79 1.35-7.2-2.12 1.8-3.33 4.3-4.43 6.79-.75-.76-1.5-1.52-2.24-2.28 1.59-2.19 3.89-3.95 4.68-6.63-2.42 1.17-4.64 2.74-7.21 3.6-.87-.84-1.74-1.67-2.62-2.5 3.92-.67 7.5-2.47 10.98-4.29-6.66-.22-13.24-1.82-19.34-4.48-4.88-2.19-8.31-7.3-13.84-7.94-5.53 1.06-6.45 7.53-9.14 11.56-.41-1.2-.8-2.41-1.18-3.61 1.91-3.59 4.78-6.55 7.47-9.56-3.74 1.33-6.06 4.72-8.91 7.27-1.23-2.75-2.26-5.75-1.37-8.77l.36 1.47c2.7-1.18 5.66-1.14 8.53-1.22l-.16-1.89c-3.44.05-6.89.02-10.33.32 2.16-1.45 1.29-4.27 1.7-6.42 3.24 2.09 6.51 4.36 10.32 5.26-2.63-3.13-6.45-5.02-9.31-7.96.94-.98 1.88-1.96 2.84-2.93 2.04 3.11 3.61 7.08 7.23 8.67 1.49.78 3.01-.41 4.44-.79 3.63-1.51 7.57-2.31 11.5-2.32.17-1 .29-2.01.51-2.99-.02.68-.05 2.04-.06 2.73 2.41-.18 4.81-.45 7.19-.81-1.93-1.56-4.88-2.11-5.65-4.83 3.74 1.04 6.69 3.72 10.33 4.95-3.05-3.9-8.56-4.05-12.04-7.31 6 .65 10.71 4.77 16.18 6.87-.6-1.05-1.38-2.01-2.5-2.54-3.8-2.32-7.81-4.32-12.06-5.68-.12-.41-.35-1.23-.46-1.63 6.47 1.75 12.37 5.09 17.88 8.84.9.11 2.7.33 3.6.45-3.35-2.95-7.53-4.62-11.25-7.02-3.6-2.28-7.93-2.96-11.54-5.24m13.57 14.11l-.22.64-.11.91c3.31-.27 6.8-.04 9.89-1.47-3.17-.41-6.38-.32-9.56-.08m-9.99 1.03l-.25.63-.13.9c3.12-.08 6.24-.39 9.35-.67-.18-.27-.53-.83-.71-1.11-2.58-1.23-5.55.26-8.26.25m-15.42 4.26c.06 1.86-.19 5.58 2.49 5.44-.45-1.81-1.5-3.58-.75-5.47.6 5.65 6.5 7.64 10.71 10.17 2.2 1.47 5.24 1.52 7.17 3.29-4.63.2-8.44-4.13-12.88-4.56 5.47 4.02 12.11 6.62 18.89 7.24-.87-2.2-3.88-.8-4.87-2.35 4.02.17 8.07.88 12.14.45-1.27-2.7-3.11-5.45-2.79-8.57-.11-3.24 1.33-6.18 2.27-9.2-9.94.6-19.82 1.74-29.52 3.96 3.55-1.64 7.48-2.23 11.32-2.83l-.48-1.04c-4.66-.96-9.51 1.47-13.7 3.47m44.74-1.32c-2.37 2.42 2.97 4.57 2.99 1.82.73-2.29-1.38-2.39-2.99-1.82m-40.7 8.28c.26.26.26.26 0 0m21.82 8.73c-.02.17-.06.51-.07.68 3.05-.04 6.11.2 9.15-.18-2.74-1.47-6.15-.96-9.08-.5z"/>
        <path d="M84.65 66.63c.73-3.63 4.44.03 2.89 1.94-.9 1.14-2.1 1.98-3.18 2.92-.75-.46-1.5-.92-2.25-1.39l2.19-.37c.44-.46 1.31-1.37 1.74-1.83-1.87.56-3.72 1.21-5.53 1.94-1.45-2.35 1.13-3.18 2.96-3.68.29.12.88.35 1.18.47z"/>
    </g>
    <path fill="#131313" opacity=".07" d="M116.19 46.96c.49 2.46-1.35 4.46-2.32 6.54-2.09-.42-4.15-.94-6.15-1.64 3.36-.63 6.56-1.89 8.47-4.9z"/>
    <path fill="#101010" opacity=".06" d="M76.08 57.1c1.61-.57 3.72-.47 2.99 1.82-.02 2.75-5.36.6-2.99-1.82z"/>
    <path fill="#696969" opacity=".41" d="M35.38 65.38c.26.26.26.26 0 0z"/>
    <path fill="#2c2c2c" opacity=".17" d="M56.56 70.14c1.15-.92 1.81-.67 1.96.76-1.16.92-1.81.66-1.96-.76z"/>
    <path fill="#191919" opacity=".1" d="M17.37 84.13c1.42-1.32 2.94-2.52 4.55-3.6-.28 1.2-.62 2.39-1.01 3.56-1.14.43-2.37.07-3.54.04z"/>
</svg>
