<svg width="128pt" height="128pt" viewBox="0 0 128 128" xmlns="http://www.w3.org/2000/svg">
    <g fill="#fff">
        <path d="M98.01 16.14c.7.11 2.11.31 2.81.41-.44.42-1.34 1.28-1.78 1.71 3.15 3.08 7.22 5.41 9.21 9.56 3.81 6.32.85 14.62-4.6 18.97-1.04.71-2.25 1.99-3.53 1.04.02-.16.06-.47.09-.63 3.48-1.65 5.77-4.89 7.11-8.42-1.81 2.37-3.66 4.73-6.01 6.59-.69-.36-1.37-.72-2.04-1.08 3.52-2.25 6.42-5.55 7.53-9.64-1.86 1.85-3.38 4.06-5.53 5.6-2 1.3-4.4 1.73-6.66 2.39.27 2.83 3.5 2.07 5.47 2.93-1.73.28-2.48 1.15-2.25 2.59.49 2.21-2.58 1.17-3.82 1.23-2.58-.41-4.82-1.91-6.72-3.62-.96-1.86-.73-4.95-3.39-5.28l-2.81.12c-1.33-1.35-2.66-2.69-4-4.03-.9.17-2.72.52-3.63.7-1.26-3.89 3.82-4.69 6.56-4.62 4.09-.46 7.07 3.04 11.01 3.33 3.39.5 6.96.05 10.06-1.48.91.69 1.83 1.36 2.79 1.99-.16-1.21-.5-2.36-1.1-3.41 2.07-2.75.55-6.69-.84-9.5-2.37 4.26-5.63 7.99-8.97 11.52-.9-.13-2.7-.4-3.6-.53 3.07-4.04 6.18-8.1 9.67-11.8.47-.06 1.41-.2 1.88-.27-2.11-1.39-5.03-3.66-2.91-6.37m3.25 20.37c-2.88 1.83-6.28 2.07-9.59 1.83.49.89.97 1.78 1.47 2.67 3.28-.1 6.31-1.4 9.1-3.05-.32-.48-.65-.96-.98-1.45z"/>
        <path d="M100.79 18.82c1.96-2.83 5.39-.53 5.69 2.22-2.26 1.73-4.33-.68-5.69-2.22zM82.4 42.38c1.22-1.72 2.42.95 3.28 1.62-1.87 3.83-5.34 6.49-7.69 10-15.03 17.93-29.57 36.31-45.42 53.55-2.17 2.45-4.3 5.03-7.19 6.67 6.07-10.52 14.48-19.42 21.57-29.23 11.9-14.13 23.2-28.77 35.45-42.61z"/>
    </g>
</svg>
