<svg width="128pt" height="128pt" viewBox="0 0 128 128" xmlns="http://www.w3.org/2000/svg">
    <g fill="#fff">
        <path d="M27.11 23.73c.66-1.13 1.4-2.22 2.16-3.29.77 2.52 2.88 3.66 5.33 4.03.77 2.49.05 5.25 1.3 7.58.31-2.76.55-5.55.21-8.33.98-1 1.94-2.14 3.41-2.34-.3 1.24-.34 2.47-.13 3.71 1.27 3.86-1.84 7.14-2.99 10.6l1 .17c.86-2.74 1.97-5.39 3.17-8 1.39 2.95 3.57 5.88 3.17 9.34-.55 3.07-2.37 5.71-4.71 7.71-.99-2.65-1.95-5.37-1.95-8.24-.43.32-1.28.96-1.71 1.28-.14-2.34-.2-4.72-.99-6.95l-.79 2-1.66 1.01c.14-2.47 1.99-5.14.67-7.52-.85-1.94-3.21-1.81-4.92-2.42-1.71 1.98-3.4 4.03-5.6 5.48.87-2.27 1.59-7.51 5.03-5.82z"/>
        <path d="M28.82 25.19c1.75.26 3.11 1.37 3.73 3.03-.15 1.48-1.3 2.57-2.09 3.75 2.78 1.68.27 5.39-1.04 7.4-1.02 2.67-4.11 2.12-6.38 2.2-.91-1.22-1.82-2.43-2.72-3.66 4.53.17 9.1-3.99 7.16-8.71-.45 1.88-.44 5.26-3.29 4.69-.57-.55-1.72-1.66-2.3-2.21.8-.13 2.4-.38 3.2-.51-.51-1.88.03-3.58 1.77-4.52.68.99 1.35 1.99 2.02 3-.02-1.12-.05-3.34-.06-4.46zM51.37 36.03c2.81-4.71 9.36-5.88 13.87-2.95-4.95 5.73-.76 15.9-8.47 19.67-.01-2.9 1.4-5.43 2.54-8-.68.66-2.05 1.98-2.73 2.64-.34-2.59.54-5.05 1.27-7.48l-2.08 3.2c-.37-2.91.25-5.75.85-8.57-2.18 2.6-2.06 6.2-1.45 9.34-.59-.42-1.77-1.27-2.36-1.69.84 1.19 1.69 2.38 2.53 3.58-.06 1.76-.15 3.51-.26 5.26-3.62-4.11-5-9.66-3.71-15z"/>
        <path d="M18.06 33.72c.57.31 1.14.62 1.72.92-1.45 3.3 1.28 6.26 3.59 8.23-.86.99-1.71 1.98-2.55 2.98-1.62-.34-3.27-.56-4.91-.72-1.81-3.96-.42-8.17 2.15-11.41z"/>
        <path d="M27.71 42.41c3.08-2.01 3.91-5.78 6.15-8.51.21 1.73.42 3.46.64 5.18-3.38 2.49-4.87 7.18-9.54 7.8-1.06.59-2.12 1.17-3.18 1.75-1.27-4.07 2.7-5.74 5.93-6.22z"/>
        <path d="M31.82 42.87c.87-1.81 2.6-2.82 4.32-3.69.85 2.1 1.69 4.21 2.79 6.2-.62.89-1.23 1.79-1.83 2.7-3.48.93-7.05.36-10.53-.17 1.86-1.55 4.11-2.8 5.25-5.04zM42.94 42.03c-.1-3.17 2.5-.2 1.9 1.11 1.48.58 2.39 1.89 3.29 3.12-2.92 1.49-6.14.72-9.11-.08 1.41-1.13 2.87-2.22 4.56-2.9l-.64-1.25zM50.05 46.58c1.3 4.25 4.29 7.61 7.9 10.09 1.45-1.2 2.65-3.22 4.8-3.09-.38 1.69-1.52 3.21-1.52 4.97 1.01 1.26 2.2 2.37 3.32 3.53-.73.87-1.47 1.74-2.21 2.61-1.86-3.11-4.66-.22-6.88.66-.01-2.04 1.15-3.62 2.66-4.86-2.68-2.61-5.9-4.54-8.7-6.99-2.07-.06-4.29.18-6.04-1.17 1.83-.83 4.37-.55 5.74-2.23.23-.88.69-2.64.93-3.52z"/>
        <path d="M36.27 57.22c4.98-3.06 11.98-3.48 16.6.48-2.64.58-5.25 1.27-7.92 1.72-.51-.77-1.02-1.53-1.54-2.3.13.69.4 2.07.53 2.75-2.81-.93-5.62-.59-7.41 1.9 1.69-.62 3.35-1.32 5.04-1.93-.19.88-.56 2.63-.75 3.51 1.4-2.25 3.89-2.94 6.32-3.54l-1.24 3.03c1.93-1.97 4.05-4.03 7.03-3.88-2.65 3.39-5.28 7.84-9.86 8.62-4.78-.48-9.36-2.92-14.28-1.87 1.84-3.33 4.06-6.62 7.48-8.49zM67.14 69.02c1.91-4.21 5.47.65 7.23 2.45 1.6-1.3 3.14-3 5.41-2.89-.85 2.58-2.93 5.88-.62 8.32 3.32 3.9 6.95 7.55 10.23 11.5 1.41-1.15 2.89-2.27 4.69-2.72-.41 1.79-1.15 3.48-1.59 5.26 1.93 2.56 4.87 4.15 6.92 6.63 3.48 2.98 8.55 5.93 7.75 11.33-1.89-1.85-3.77-3.91-6.62-3.98-.63-5.59-6.09-8.26-10.18-11.18-4.75-2.46-7.94-6.86-11.42-10.76-1.44.72-2.83 1.53-4.26 2.26-1.1-1.99.57-3.69 1.55-5.28-2.35-4.19-6.16-7.22-9.09-10.94z"/>
    </g>
    <path fill="#f8f8f8" opacity=".97" d="M30.61 21.98c2.06-1.76 4.66-2.1 7.21-1.38-1.28 3.37-4.64 3.03-7.21 1.38z"/>
    <path fill="#f6f6f6" opacity=".96" d="M19.16 33.06c.6-.36 1.79-1.07 2.38-1.42.82 1.66 1.92 3.15 3.01 4.65-1.08-.16-3.23-.46-4.31-.62.75-1.29-.31-1.93-1.08-2.61z"/>
    <path fill="#fbfbfb" d="M37.65 49.09c.36-.56.73-1.12 1.09-1.67 3.2.67 6.48.41 9.72.73-2.17 4.13-7.55 2.95-10.81.94z"/>
</svg>
