<svg width="128pt" height="128pt" viewBox="0 0 128 128" xmlns="http://www.w3.org/2000/svg">
    <g fill="#b22b2c">
        <path d="M61.69 15.54c1.53-.01 3.06-.02 4.6-.02l.23 1.72c-1.72.12-3.44.27-5.15.43l.32-2.13zM72.43 35.44c1.53-1.42 3.76-1.04 5.67-1.25-1.07 1.7-2.12 3.41-3.12 5.14 2.49-1.44 4.85-3.09 7.15-4.8 2.01.41 4 .88 5.98 1.43-.45.27-1.35.83-1.8 1.1-3.63 2.04-7.13 4.38-9.88 7.56 4.7-2 9.45-4.18 14.6-4.67 2.55-.42 4.72 1.31 6.94 2.23-3.52 2.24-8 1.83-11.7 3.74-1.47.55-2.93 1.16-4.37 1.79-.63.28-1.25.59-1.85.92 4.81.69 9.7.63 14.48-.29 3.96.31 8.4.26 11.45 3.22-6.62.78-13.27 1.39-19.86 2.44 2.27.37 4.53.72 6.81 1.03 3.38.58 6.69 1.55 9.98 2.51 1.01.39 2.42.69 2.73 1.9l.92 2.23c-5.58-1.37-11.31-2.26-17.05-1.63 1.98 1.22 4.01 2.37 6.09 3.41 4.85 2.1 9.95 5.21 11.07 10.83-5.29-2.12-10.5-4.41-15.96-6.07-.79-.88-1.55-1.79-2.31-2.7-3.27 2.39-7.06 3.94-11.1 4.29-.16 3.49-.34 6.98-.61 10.46-.6-8.88.03-18.71-6.04-26.03.02-1.62.04-3.24.08-4.85 3.14.74 6.04 2.17 8.73 3.92.13-1.66.21-3.32.23-4.98-3.41-2.71-7.13-5.09-11.42-6.11-.67-.31-1.33-.64-1.97-1 2.64-1.25 4.09-3.84 6.13-5.77z"/>
    </g>
    <g fill="#020000">
        <path opacity=".19" d="M61.37 17.67c1.71-.16 3.43-.31 5.15-.43.23 6.48.15 12.96.01 19.44-1.78-.17-3.57-.35-5.35-.55l1.18-.06c1.52.65 5.14-1.21 2.04-2.03-.55.11-1.63.34-2.18.45l.34-1.58c1.41.66 2.41.34 2.98-.93-.71-1.29-1.77-1.48-3.15-.57-1.77-3.61-1.51-8.09-.08-11.78.87 1.12 4.13.56 3.01-1.17-.68-.12-2.02-.36-2.7-.49l-1.25-.3m1.92 4.3c.11 3.47 2.97-1.59 0 0m.01 3.09c.1 3.52 2.94-1.6 0 0m-.29 3.06c-.54 1.49.09 1.99 1.9 1.5.53-1.49-.1-1.99-1.9-1.5zM76.43 44.62c2.75-3.18 6.25-5.52 9.88-7.56-.4 1.01-.81 2.02-1.21 3.03 4.3-1.05 10.08-2.55 12.87 2.09-2.22-.92-4.39-2.65-6.94-2.23-5.15.49-9.9 2.67-14.6 4.67zM43.26 38.24c2.87 1.72 5.48 3.83 8.22 5.74.13.33.38.99.51 1.32 1.63-.88 3.24-1.86 5.02-2.42l2.57.64c-4.16 1.32-9.77 2.67-10.85 7.59 7.62-4.56 17.41-6.11 25.66-2.3 1.43.38 2.9 1.89 4.4 1.03-1.25-3.76-6.26-4.69-9.61-6.2-.22-.36-.68-1.07-.91-1.43 4.29 1.02 8.01 3.4 11.42 6.11-.02 1.66-.1 3.32-.23 4.98-2.69-1.75-5.59-3.18-8.73-3.92-.04 1.61-.06 3.23-.08 4.85-.79 16.26-.5 32.61-2.39 48.79-1.17 5.17-.75 10.89-3.46 15.58 1.36-8.83 3.15-17.63 3.34-26.59.81-14.71 1.58-29.44 1.3-44.18-.8-.05-2.39-.14-3.19-.18-.07 1.59-.14 3.18-.24 4.77-.16-1.67-.3-3.34-.43-5.01-.79-.01-2.38-.05-3.17-.07-.08 1.55.42 3.24-.42 4.66-.84-1.44-.3-3.2-.41-4.76-.73.26-2.19.78-2.93 1.04-.58 14.23.36 28.47 1.12 42.68.26 10.03 2.06 19.92 3.8 29.78-2.59-3.7-2.26-8.43-3.09-12.69-2.46-12.35-1.83-25.02-2.79-37.52-.36-3.85-.07-7.72-.48-11.56-.13-1.08-.74-1.83-1.85-2.25 1.59-2.17 1.71-4.78 1.37-7.36-3.01.84-5.82 2.19-8.4 3.92-.03-1.81-.06-3.63-.08-5.44.89-.46 2.66-1.37 3.54-1.82-5.44-4.31-13.06-7.29-19.95-5.25 2.5-3.35 6.81-1.32 10.17-.76l1.25-1.77zM81.9 47.71c1.44-.63 2.9-1.24 4.37-1.79 6.38 2.57 13.79.37 19.88 4l-.28 2.84c-4.41.16-8.62 1.54-12.94 2.27-2.28-.31-4.54-.66-6.81-1.03 6.59-1.05 13.24-1.66 19.86-2.44-3.05-2.96-7.49-2.91-11.45-3.22-4.21-.31-8.42-.52-12.63-.63zM89.51 60.04c5.74-.63 11.47.26 17.05 1.63l-.92-2.23 1.19-.26c0 .77.01 2.29.02 3.05-3.77-.34-7.53-.83-11.29-1.3l.04 2.52c-2.08-1.04-4.11-2.19-6.09-3.41z"/>
    </g>
    <path fill="#9b2325" opacity=".93" d="M62.62 17.97c.68.13 2.02.37 2.7.49 1.12 1.73-2.14 2.29-3.01 1.17.08-.41.23-1.24.31-1.66z"/>
    <g fill="#ce3031">
        <path d="M63.29 21.97c2.97-1.59.11 3.47 0 0zM62.39 31.41c1.38-.91 2.44-.72 3.15.57-.57 1.27-1.57 1.59-2.98.93-.05-.37-.13-1.13-.17-1.5zM39.67 35.98c1.81-.48 3.6-1.23 5.5-1.22 3.22 1.28 5.66 3.87 8.38 5.92-1.3-2.2-2.64-4.36-3.93-6.55 2.08.42 4.82-.1 6.24 1.89 1.71 2.28 3.6 4.42 5.93 6.08-1.59.25-3.22.33-4.78.78-1.78.56-3.39 1.54-5.02 2.42-.13-.33-.38-.99-.51-1.32-2.74-1.91-5.35-4.02-8.22-5.74-1.21-.74-2.4-1.5-3.59-2.26z"/>
    </g>
    <path fill="#b62a2d" d="M63.3 25.06c2.94-1.6.1 3.52 0 0z"/>
    <path fill="#b72b2e" opacity=".93" d="M63.01 28.12c1.8-.49 2.43.01 1.9 1.5-1.81.49-2.44-.01-1.9-1.5z"/>
    <path fill="#c12c30" opacity=".98" d="M62.22 34.49c.55-.11 1.63-.34 2.18-.45 3.1.82-.52 2.68-2.04 2.03-.03-.39-.1-1.18-.14-1.58z"/>
    <path fill="#8c2122" opacity=".83" d="M61.18 36.13c1.78.2 3.57.38 5.35.55-.54 1.21-.88 3.13-2.53 3.25-1.9-.13-2.18-2.45-2.82-3.8z"/>
    <path fill="#be2c2e" d="M31.84 40.77c6.89-2.04 14.51.94 19.95 5.25-.88.45-2.65 1.36-3.54 1.82.02 1.81.05 3.63.08 5.44 2.58-1.73 5.39-3.08 8.4-3.92.34 2.58.22 5.19-1.37 7.36-4.47 6.63-3.87 14.82-4.2 22.41-5.68 10.76-4.52 23.38-4.74 35.14-2.48-1.31-4.63-3.49-4.97-6.39-.58-5.45-1.02-10.93-1.04-16.41-2.28 5.15-3 11.13-6.41 15.68-3.74-6.58.89-13.55 2.59-19.97-3.2 3.83-6.13 7.91-9.65 11.46-1.43-5.41 1-10.55 4.5-14.54 1.83-2.25 3.63-4.52 5.26-6.91-2.32 1.12-4.59 2.38-6.56 4.04-2.43 2.04-4.95 3.97-7.57 5.75-.07-1.07-.2-3.21-.26-4.29 3.96-5.87 9.89-9.83 14.91-14.67-5.57 1.62-10.79 4.17-16.23 6.14.95-3.04 2.52-6.09 5.39-7.72 3.79-2.18 7.76-4.04 11.64-6.06-5.7-.64-11.42-.03-16.98 1.29 1.25-5.38 8.01-4.83 12.2-6.39 2.94-.51 5.91-.89 8.86-1.3-6.33-.89-12.72-1.48-19.06-2.31-1.06-1.75 1.59-2.07 2.73-2.43 3.39-.76 6.88-.85 10.33-1.06.73 1.43 2.05 1.7 2.72.03 2.75.07 5.5.16 8.25.23-5.31-2.68-10.97-4.69-16.89-5.46.41-.55 1.24-1.66 1.66-2.21z"/>
    <path fill="#9e2628" opacity=".91" d="M61.69 41.37c1.09-.83 2.79-.81 3.94-.14.41 2.11-3.62 1.96-3.94.14z"/>
    <path fill="#010000" opacity=".16" d="M29.44 42.85l.74.13c5.92.77 11.58 2.78 16.89 5.46-2.75-.07-5.5-.16-8.25-.23-.67 1.67-1.99 1.4-2.72-.03-3.45.21-6.94.3-10.33 1.06-1.14.36-3.79.68-2.73 2.43 6.34.83 12.73 1.42 19.06 2.31-2.95.41-5.92.79-8.86 1.3-3.6-1.65-7.52-2.33-11.46-2.41.11-1.21.21-2.42.3-3.64 5.59-1.73 11.45-2.02 17.22-2.79-3.19-1.51-7.14-1.18-9.86-3.59z"/>
    <g fill="#c62c31">
        <path d="M48.73 51.11c1.08-4.92 6.69-6.27 10.85-7.59 3.2-.11 6.41-.1 9.6.12 3.35 1.51 8.36 2.44 9.61 6.2-1.5.86-2.97-.65-4.4-1.03-8.25-3.81-18.04-2.26-25.66 2.3z"/>
        <path d="M58.65 48.28c.74-.26 2.2-.78 2.93-1.04.11 1.56-.43 3.32.41 4.76.84-1.42.34-3.11.42-4.66.79.02 2.38.06 3.17.07.13 1.67.27 3.34.43 5.01.1-1.59.17-3.18.24-4.77.8.04 2.39.13 3.19.18.28 14.74-.49 29.47-1.3 44.18-.19 8.96-1.98 17.76-3.34 26.59-.26 1.45-.55 2.9-.83 4.35-.13-.74-.27-1.47-.4-2.21-1.74-9.86-3.54-19.75-3.8-29.78-.76-14.21-1.7-28.45-1.12-42.68m2.57 4.87c-1.11 2.23-.12 5.11-.28 7.58 3.56-1.21 1.99-5.6 1.99-8.36-.43.19-1.29.58-1.71.78m3.53-.91c.01 2.64.09 5.28.26 7.91.47-.18 1.42-.53 1.89-.7.27-2.5 1.72-7.18-2.15-7.21m-3.97 9.86c-.24 7-.31 14.03.7 20.98.93 6.32.31 12.72 1.04 19.05.8-8.7-.1-17.44.4-26.14.19-4.35.8-8.73.17-13.07-.57-.2-1.73-.62-2.31-.82m3.91.28c-.13 11.23.32 22.46.72 33.68 1-11.18 2-22.4 1.92-33.63-.66-.01-1.98-.04-2.64-.05z"/>
    </g>
    <path fill="#7c1c1e" opacity=".85" d="M80.05 48.63c.6-.33 1.22-.64 1.85-.92 4.21.11 8.42.32 12.63.63-4.78.92-9.67.98-14.48.29z"/>
    <path fill="#831f1e" opacity=".88" d="M61.22 53.15c.42-.2 1.28-.59 1.71-.78 0 2.76 1.57 7.15-1.99 8.36.16-2.47-.83-5.35.28-7.58z"/>
    <path fill="#7d1c1d" opacity=".87" d="M64.75 52.24c3.87.03 2.42 4.71 2.15 7.21-.47.17-1.42.52-1.89.7-.17-2.63-.25-5.27-.26-7.91z"/>
    <path fill="#972224" opacity=".91" d="M60.78 62.1c.58.2 1.74.62 2.31.82.63 4.34.02 8.72-.17 13.07-.5 8.7.4 17.44-.4 26.14-.73-6.33-.11-12.73-1.04-19.05-1.01-6.95-.94-13.98-.7-20.98z"/>
    <path fill="#942223" opacity=".9" d="M64.69 62.38c.66.01 1.98.04 2.64.05.08 11.23-.92 22.45-1.92 33.63-.4-11.22-.85-22.45-.72-33.68z"/>
    <path fill="#c02c2e" d="M88.4 65.51c.76.91 1.52 1.82 2.31 2.7 4.9 4.83 10.64 8.83 14.65 14.52-.04 1.02-.12 3.07-.17 4.1-.5-.31-1.52-.93-2.03-1.24-4-2.9-7.78-6.16-12.23-8.39 3.02 4.06 6.45 7.86 8.86 12.33 1.08 1.92 1.64 4.52.17 6.4-1.24.93-2.24.47-3-1.37-1.63-2.19-3.42-4.25-5.19-6.33.81 6.23 6.22 13.15 1.31 18.91-2.28-5.1-4.06-10.41-5.68-15.74-.06 5.07-.82 10.1-.97 15.17-.07 2.62-1.71 4.77-3.17 6.8-.53.15-1.6.43-2.13.58.36-4.35.18-8.7-.24-13.04-.34-6.98-.18-14.58-4.2-20.65.27-3.48.45-6.97.61-10.46 4.04-.35 7.83-1.9 11.1-4.29z"/>
    <path opacity=".05" d="M90.93 77.2c4.45 2.23 8.23 5.49 12.23 8.39-.95.59-1.91 1.17-2.86 1.75 1.29 3.47 2.39 7.09 1.82 10.83-2.54.31-5.25-.57-5.16-3.61.76 1.84 1.76 2.3 3 1.37 1.47-1.88.91-4.48-.17-6.4-2.41-4.47-5.84-8.27-8.86-12.33z"/>
    <path fill="#190605" opacity=".4" d="M30.14 81.23c1.97-1.66 4.24-2.92 6.56-4.04-1.63 2.39-3.43 4.66-5.26 6.91-.32-.72-.97-2.16-1.3-2.87z"/>
</svg>
