<svg width="128pt" height="128pt" viewBox="0 0 128 128" xmlns="http://www.w3.org/2000/svg">
    <g fill="#fff">
        <path d="M61.63 15.61c1.68.42 5.17-1.21 4.88 1.78-1.63.03-3.26.05-4.89.06 0-.46 0-1.38.01-1.84zM62.3 18.47c.9-.94 4.43-.54 3.1 1.21-.88.86-4.26.46-3.1-1.21zM62.12 23.27c.1-.68.32-2.04.42-2.72.76 0 2.28.02 3.04.02v2.95c-.86-.06-2.6-.19-3.46-.25zM62.3 24.33c1.09-.02 2.18-.04 3.28-.07 0 .79 0 2.37.01 3.16-.79.01-2.36.02-3.14.03-.06-1.04-.11-2.08-.15-3.12zM62.28 28.34c.92-.96 4.44-.42 3.12 1.3-.92.77-4.22.36-3.12-1.3zM62.44 31.32c.91-1.29 4.03-.19 2.73 1.42-.94 1.16-3.83.17-2.73-1.42zM62.22 37.11c1.14.01 2.29.02 3.43.02.01 1.84.13 3.68-.11 5.51-.81.05-2.43.14-3.24.19.01-1.91-.02-3.82-.08-5.72m1.09 1.99v1.8c2.04 2.33 2.04-4.13 0-1.8zM55.56 44.75c7.16-2.21 15.75-1.93 21.84 2.91 1.41.66 1.62 2.09 1.46 3.5-8.76-6.12-20.98-5.83-29.85-.07-.29-3.71 3.9-4.96 6.55-6.34z"/>
        <path d="M58.53 48.44c.8-.21 2.41-.65 3.22-.86.2 4.16-.2 8.33.17 12.49.59-4.17.06-8.39.38-12.58.84-.01 2.52-.01 3.36-.02.04 1.52-.02 3.08.43 4.56.08-1.44.11-2.87.1-4.31.81.04 2.43.11 3.24.14-.03 9.02.16 18.04-.38 27.05-.83 11.54-.72 23.19-2.78 34.61-.6 4.5-1.67 8.92-2.26 13.42-1.7-9.23-3.54-18.48-4.01-27.88-.94-15.52-1.87-31.06-1.47-46.62m6.4 4.07c.02 2.51.14 5.03.37 7.54 3.04-.56 1.33-4.98 1.62-7.2-.5-.08-1.49-.26-1.99-.34m-3.31 10.91c.02 1.53-.13 3.05-.15 4.58.79 6.81-.78 13.71.63 20.5 1.05 4.11.13 8.28.24 12.43-.03 1.93 3.26.89 2.76 3.32.93-5.39.27-10.84.64-16.26 1.55-7.28.21-14.72.55-22.07-.01-1.03.13-2.12-.4-3.05.23 7.61-.86 15.21-.19 22.82-.59 5.13.2 10.32-.6 15.43-.32 1.86-2.61.2-2.41-1 .39-5.39-.48-10.74-.18-16.12.25-6.89-.9-13.75-.29-20.64-.15.01-.45.04-.6.06m1.63 42.85c-1.23.83-.18 3.54 1.24 2.21 1.29-.83.2-3.53-1.24-2.21z"/>
    </g>
    <path fill="#f3f3f3" opacity=".95" d="M62.34 34.43c.95-1.12 4.36-.01 2.77 1.51-1.01.92-3.97.1-2.77-1.51z"/>
    <path fill="#c7c7c7" opacity=".78" d="M64.93 52.51c.5.08 1.49.26 1.99.34-.29 2.22 1.42 6.64-1.62 7.2-.23-2.51-.35-5.03-.37-7.54z"/>
    <path fill="#dbdbdb" opacity=".86" d="M63.25 106.27c1.44-1.32 2.53 1.38 1.24 2.21-1.42 1.33-2.47-1.38-1.24-2.21z"/>
</svg>
