<svg width="128pt" height="128pt" viewBox="0 0 128 128" xmlns="http://www.w3.org/2000/svg">
    <g fill="#fff">
        <path d="M49.55 34.14c2.16.29 4.76.09 6.29 1.97 1.79 2.27 3.6 4.62 6.27 5.91-5.37-.24-9.81 2.94-13.91 5.97.03 1.8.08 3.6.15 5.4 2.53-1.87 5.3-3.33 8.42-3.89.09 1.63.91 3.51-.17 4.98-2.84 4.32-4.99 9.26-5.11 14.51-.77 4.04.65 8.44-1.27 12.22-3.35 6.03-3.34 13.17-3.66 19.87-.39 4.36-.3 8.75-.18 13.12-2.73-1.33-4.61-3.9-5.04-6.9-.23-5.25-.9-10.47-.82-15.73-2.69 4.96-3.23 10.92-6.46 15.56-.92-2.57-2.24-5.37-1.17-8.11 1.18-4.07 2.37-8.15 3.92-12.1-1.7 2.3-3.67 4.37-5.51 6.56-1.41 1.63-2.45 3.71-4.45 4.73-1.84-8.6 5.55-14.65 9.87-21.03-5.32 2.32-9.41 6.59-14.15 9.82-.03-1.03-.1-3.1-.13-4.13 3.64-6.15 10.09-9.67 14.7-14.94-5.53 1.65-10.73 4.16-16.13 6.15 1.02-3 2.67-5.93 5.48-7.59 3.82-2.2 7.93-3.91 11.57-6.44-5.75-.73-11.44.48-17.07 1.48.62-3.71 4.57-4.07 7.49-4.96 4.4-1.42 9.01-1.89 13.55-2.59-6.69-.75-13.34-2.13-20.1-1.92.27-.45.8-1.35 1.06-1.8 4.01-2.02 8.75-1.61 13.1-2.14.48.54.97 1.07 1.47 1.59-.05-.39-.16-1.17-.21-1.57 3.23.06 6.46.35 9.7.21-5.35-2.63-10.97-4.78-16.96-5.29 1.51-2.2 4.24-3.82 6.95-3.04 5.07.45 9.63 2.71 14.21 4.73-2.98-3.99-7.57-6.1-11.62-8.78 1.85-.54 3.74-.94 5.64-1.34 2.96 1.62 5.41 3.97 8.23 5.8-1.14-2.2-2.6-4.21-3.95-6.29zM71.99 35.94c1.43-1.78 3.94-1.48 5.96-1.85-1.38 2.16-2.77 4.33-3.93 6.62 2.66-2.01 5.2-4.18 8.01-5.99 1.9.37 3.98.4 5.54 1.7-4.34 2.4-8.73 4.89-11.84 8.88-2.87-2.02-6.21-2.99-9.66-3.32 2.25-1.73 4.17-3.81 5.92-6.04zM76.01 45.83c4.42-3.79 10.25-5.34 15.92-5.99 2.26-.1 4.04 1.65 5.77 2.86-5.76 1.4-11.69 2.53-16.84 5.7 3.27.08 6.53-.27 9.8-.25-.06.39-.17 1.17-.22 1.55.5-.5.98-1.02 1.46-1.55 4.2.31 8.45.47 12.51 1.68.44.67.87 1.34 1.31 2.01-6.63.18-13.2 1.25-19.76 2.12 6.11.86 12.21 1.98 18.02 4.12 1.76.3 1.9 2.31 2.63 3.58-5.64-1.28-11.4-2.32-17.21-1.64 6.02 4.24 15.24 5.86 17.23 14.06-5.41-1.99-10.65-4.43-16.17-6.16 4.67 5.23 10.95 8.86 14.81 14.86-.12 1.4-.25 2.8-.39 4.21-4.49-3.41-8.69-7.37-13.86-9.75 3.18 4.67 7.33 8.77 9.51 14.06.57 2.34.16 4.79.03 7.17-3.32-3.72-6.55-7.57-9.48-11.62 1.33 4.73 2.85 9.4 4.27 14.11-.52 2.15-.81 4.44-2.25 6.22-2.22-5.14-3.76-10.55-5.88-15.73.02 5.23-.79 10.41-.9 15.63-.38 3.13-2.46 5.72-5.03 7.43-.02-9.24.06-18.56-1.66-27.66-.58-3.8-3.85-6.84-3.24-10.86.46-7.76-1.07-15.76-5.76-22.11.05-1.48.09-2.96.12-4.43 3.25.41 6.04 2.03 8.48 4.13.04-1.85.39-3.74.03-5.57-.81-.54-2.44-1.63-3.25-2.18z"/>
    </g>
</svg>
