<svg width="128pt" height="128pt" viewBox="0 0 128 128" xmlns="http://www.w3.org/2000/svg">
    <g fill="#fff">
        <path d="M57.21 19.2c8.34-1.92 17.22.48 24.17 5.26C88 28.74 92.22 36.02 94.14 43.54c2.45 9.86-1.02 20.47-7.61 27.96-5.02 5.53-12.12 8.88-19.42 10.09-8.7 1.25-17.58-2-24.33-7.41-6.85-6.04-11.08-15.01-11.21-24.16.24-8.42 3.96-16.65 9.84-22.64 4.44-4.02 9.94-6.89 15.8-8.18zM20.62 72.44c-.76-2.62.48-5.22 3.27-5.72 3.36.14 4.51 3.43 6.01 5.83-3.21-1.41-6.26 1.79-9.28-.11z"/>
        <path d="M39.38 90.58c-4.17-4.35-5.6-10.38-8.29-15.61 3.61 4.87 8.4 8.97 13.68 11.95 10.52 4.67 22.78 4.89 33.67 1.34 6.64-2.35 11.89-7.42 16.52-12.55-2.46 4.89-3.77 10.51-7.62 14.58-3.34 3.5-7.66 5.97-12.32 7.24-4.49 2.05-4.67 8.87-.87 11.72-7.36.04-14.73.07-22.1-.01 4.61-2.85 3.52-11.21-1.96-12.22-4.14-1.01-7.71-3.5-10.71-6.44z"/>
    </g>
    <path fill="#fefefe" d="M96.04 73.85c1.65-2.67 2.53-6.21 5.85-7.3 2.93.38 4.94 2.92 3.87 5.84-.64.25-1.92.73-2.57.98-1.7-.84-3.53-1.26-5.43-1.23-.43.43-1.29 1.28-1.72 1.71z"/>
</svg>
