<svg width="128pt" height="128pt" viewBox="0 0 128 128" xmlns="http://www.w3.org/2000/svg">
    <path fill="#fff" d="M45.24 23.88c10.63-.08 21.26.05 31.89-.08-1.99 6.09 3.18 12.85 9.46 13.02-.01 1.97-.02 3.94-.01 5.91-7.42-.24-14.83.08-22.24.42.58 1.65 2.05 3.04 1.79 4.91-.27 16.67-.17 33.35-.15 50.02-.51.5-1.51 1.49-2.01 1.99.14 1.74.87 3.31 1.55 4.9-.35.65-1.04 1.97-1.39 2.62l-1.47.02c-1.46-2.39-1.3-5.07-.88-7.74l-1.43-1.39c.01-16.83.13-33.67 0-50.5-.23-1.69.64-3.15 1.51-4.51-5.48-1-11.08-.44-16.62-.57.02-6.34 0-12.68 0-19.02z"/>
</svg>
