<svg width="128pt" height="128pt" viewBox="0 0 128 128" xmlns="http://www.w3.org/2000/svg">
    <g fill="#fff">
        <path d="M54.78 26.73c6.3-2.56 13.09-.71 19.41.67-1.35 2.41-1.94 5.09-2.17 7.82-4.52-5.94-13.52-6.82-19.6-2.83-3.71 2.54-7.24 5.57-9.53 9.5-.82 1.41-1.68 2.81-2.59 4.16 1.52-8.21 6.47-16.19 14.48-19.32zM73.32 34.07c.53-2.98 1.98-5.69 3.8-8.07.44 3.14.34 6.33.74 9.47-1.54.16-4.15.83-4.54-1.4z"/>
        <path d="M78.32 29.05c4.03 1.65 10.01 2.18 11.24 7.21-1.58.14-3.16.27-4.74.39 2.25 1.67 4.6 3.48 5.15 6.44-1.62 4.8-5.39 8.7-6.53 13.72-.68 3.25 2.89 4.78 4.8 6.64.43-.76 1.27-2.29 1.69-3.05-.33 1.46-.49 2.95-.49 4.45-1.74 1.88-3.82 3.41-5.71 5.13-1.51-.99-3.11-1.88-4.32-3.25.72-.06 2.18-.19 2.9-.26-1.74-1.12-4.37-2.06-2.53-4.51-1.44-.34-2.9-.62-4.36-.87 1.18-3.46 3.04-6.6 4.66-9.86-3.69-.3-7.33 1.38-9.98 3.88-4.67 5.82-4.08 14.61.31 20.43 3.52 6.28 10.08 11.14 10.76 18.74.43 1.21.5 2.6-.63 3.46.42-3.68-1.79-6.76-3.57-9.77-4.91-7.12-11.86-13.81-12.18-23.01.07-4.42.81-9.6 4.62-12.44 2.91-2.75 6.83-3.8 10.4-5.35-2.39-4.1-6.84-7.56-11.83-7.01-3.91-.36-7.47 1.99-9.87 4.89-3.94 5.42-6.5 12.44-4.71 19.13 2.35 9.8 9.73 17.1 15.01 25.35 1.97 3.07 4.95 6.59 3.27 10.47-.95 1.92-.5 5.42-3.18 5.8.59-1.66 1.04-3.38 1.7-5.01.47-2.84-.69-5.52-2.02-7.95-4.6-6.79-9.28-13.54-13.93-20.3-4.42-6.2-5.93-14.23-4.5-21.66 1.5-6.77 6.55-12.74 13.21-14.87 3.16-1.07 6.46.05 9.67-.55.36.36 1.09 1.09 1.45 1.46 1.78-.15 3.56-.42 5.24-1.06-.3-2.27-.69-4.54-1-6.81z"/>
        <path d="M88.65 36.98c.55-.38 1.64-1.13 2.18-1.51 3.35 2.13 8.87 3.58 9.13 8.17-.82-.43-2.45-1.31-3.27-1.75 2.44 2.5 2.79 6.42.25 8.99-1.09 1.52-2.4 2.86-3.94 3.93.54-1.9 1.15-3.77 1.8-5.63-2.48.09-4.95.11-7.42.34 1.33-1.95 2.54-3.97 3.57-6.1-.92-2.09-1.67-4.25-2.3-6.44zM30.93 62.03c-.72-4.69-2.26-9.91-.25-14.4 1.35 7.49 3.25 14.96 7.12 21.58 3.12 7.92 11.62 12.87 12.74 21.68.9 3.08-2.36 4.75-4.71 5.6.87-9.44-6.56-16.14-10.38-23.97-1.6-3.45-4.17-6.57-4.52-10.49zM74.74 65.86c4.86 3.44 6.83 9.36 7.95 14.94-3.48-4.46-7.67-8.96-7.95-14.94z"/>
    </g>
</svg>
