<svg width="128pt" height="128pt" viewBox="0 0 128 128" xmlns="http://www.w3.org/2000/svg">
    <g fill="#fff">
        <path d="M47.87 20.31c5.74-2.54 12.14-1.8 18.21-2.51 7.05 2.08 14.16 6.26 17.94 12.78-1.57-.69-3.19-1.27-4.71-2.05-.97-.92-1.38-2.41-2.57-3.05-3.2 1.55-6.36-.96-9.6-1.08-6.27-.35-13.41-.04-18.34 4.35-6.28 5.05-10.39 13.27-9.09 21.42 3.54-7.39 8.36-14.92 16.21-18.25 4.8-2.32 10.3-.16 14.31 2.77-5.12-.13-10.73.08-14.72 3.74-8.78 8.06-10.23 22.77-3.57 32.59 4.27 6.39 8.77 12.62 12.97 19.04 2.68 3.23 4.82 7.62 2.98 11.79-1.58 5.57-7.36 7.76-12.2 9.71-1.28 2.19-4.54 2.82-6.42 1.05 1.93.01 3.73-.59 5.46-1.39 1.61-3.58 6.05-6.72 4.29-11.26C55.17 86.63 44.59 76.88 37.97 65c-4.04-6.24-5.01-13.79-6.33-20.95.25-5 .71-10.42 3.82-14.57 3.47-3.82 7.3-7.69 12.41-9.17z"/>
        <path d="M54.39 59.06c.41-7.02 3.69-14.89 10.67-17.61 5.26-1.71 10.38 1.3 13.64 5.28-5.52 1.48-12.1 3.83-14.05 9.81-2.45 5.14-1.42 11.07.55 16.18 1.36 4.21 4.72 7.25 7.06 10.9 2.85 4.35 7.19 8.54 6.73 14.16-1.25 3.26-4.09 5.59-6.5 8.01 1.78-4.33 3.65-10.29-.67-13.77-2.69-4.47-6.48-8.14-9.23-12.58-4.03-6.12-8.45-12.71-8.2-20.38z"/>
        <path d="M68.4 68.93c-2.09-6.89 2.22-15.5 9.65-16.69-2.72 4.73-4.52 10.18-4.3 15.67 1.97 8.41 8.38 14.67 12.53 22.01-.83 2.98-1.7 6.06-3.87 8.39-.2-3.26 1.19-6.87-1.09-9.73-4.36-6.49-10.41-12.04-12.92-19.65z"/>
    </g>
    <path fill="#2a2a2a" opacity=".16" d="M52.17 89.13c1.35.11 1.41 2.54.04 2.67-1.32-.16-1.38-2.51-.04-2.67z"/>
</svg>
