<svg width="128pt" height="128pt" viewBox="0 0 128 128" xmlns="http://www.w3.org/2000/svg">
    <path fill="#bb2c2c" d="M62.53 16.52c.38-1.17 1.2-2.06 2.11-2.85 8.4 20.75 17.4 41.26 25.67 62.07 1.19 3.58 2.88 6.98 4.83 10.22-5.63-1.76-11.96-4.12-17.72-1.58-5.49 2.51-6.39 9.45-5.18 14.73-1.69.43-3.74.61-4.65 2.35-2.37 2.88.53 6.24.67 9.32-.52 1.89-1.3 3.69-1.97 5.54-1.43-.02-2.85-.04-4.28-.07-.72-1.97-1.44-3.95-2.17-5.92.88-2.32 2.2-4.73 1.69-7.3-.67-2.63-3.35-3.81-5.61-4.77 1.73-5.41-.34-12.42-6.08-14.38-5.2-1.32-10.65-.24-15.77.95 5.82-12.94 10.68-26.31 16.35-39.33 4.06-9.65 8.09-19.31 12.11-28.98z"/>
</svg>
