<svg width="128pt" height="128pt" viewBox="0 0 128 128" xmlns="http://www.w3.org/2000/svg">
    <path fill="#b5292c" d="M61.68 13.69c.29-.23.88-.71 1.17-.94-.19 6.34-.09 12.69-.04 19.03-5.77 4.27-11.24 9.16-17.5 12.62-4.63-2.14-9.19-4.5-13.46-7.3.59-.51 1.77-1.52 2.36-2.03 3.55-2.76 6.98-5.68 10.71-8.21.54 1.67 1.07 3.34 1.61 5.01.26-.68.79-2.02 1.05-2.7 5.2-1.65 8.88 4.35 14.07 2.56.75-6 .13-12.03.03-18.04z"/>
    <path fill="#0a0202" opacity=".26" d="M62.85 12.75c1.48 1.71 1.53 4.08 1.57 6.22 0 4.01-.07 8.03.1 12.04.3.23.88.69 1.17.92 5.61 4.41 11.47 8.48 17.24 12.67 4.54-2.59 9.6-4.38 13.65-7.76l.4-.33c.08.6.23 1.8.31 2.4-4.74 2.73-9.51 5.42-14.16 8.3-.34 11.5-.17 23.01-.11 34.52 4.69 2.95 9.52 5.65 14.32 8.42-.24.75-.46 1.5-.69 2.26-3.86-3.71-9.14-5.31-13.69-7.97-5.38 3.74-10.63 7.66-15.86 11.59l-2.56.76c-.17 6.19-.11 12.39-.16 18.59-.42.22-1.26.66-1.69.88.03-6.34-.02-12.68.17-19.02-5.72-4.53-11.62-8.81-17.61-12.96-.4-.32-1.2-.98-1.6-1.3.47-.35 1.43-1.04 1.91-1.39-.04-11.38.09-22.77-.04-34.15l-.65-.47c-3.87-2.4-7.84-4.65-11.74-7.02-.66-.62-1.32-1.23-1.98-1.85.56-1.49 1.1-3.2 3.06-3.03-.59.51-1.77 1.52-2.36 2.03 4.27 2.8 8.83 5.16 13.46 7.3 6.26-3.46 11.73-8.35 17.5-12.62-.05-6.34-.15-12.69.04-19.03m-15 33.16c.09 2.93.07 5.86.09 8.79-1.23 1.49-.86 3.48-.96 5.26.13 2.08-.41 4.43.94 6.23l-.01.49c-1.44 2.16-.77 4.87-.92 7.3.2 3.07-.57 6.38.88 9.24 5.37 4.17 11.04 7.9 16.59 11.81 5.2-4.22 10.93-7.73 16.26-11.78.98-1.6.49-3.54.62-5.3-.15-10.76.13-21.52-.09-32.27l-.35.6c-5.09-4.73-11.27-7.99-16.79-12.1-5.38 3.97-11.1 7.47-16.26 11.73z"/>
    <g fill="#b82b2c">
        <path d="M65.69 12.84c.51.36 1.54 1.1 2.05 1.47.54.87 1.29 1.48 2.25 1.82C79 22.84 87.63 30.05 96.58 36.84c-4.05 3.38-9.11 5.17-13.65 7.76-5.77-4.19-11.63-8.26-17.24-12.67-.37-6.35.09-12.73 0-19.09zM47.85 45.91c5.16-4.26 10.88-7.76 16.26-11.73 5.52 4.11 11.7 7.37 16.79 12.1-.5 12.3-.18 24.65-.18 36.97-5.33 4.05-11.06 7.56-16.26 11.78-5.55-3.91-11.22-7.64-16.59-11.81.34-5.51.12-11.03.04-16.54l.01-.49c.15-3.83.14-7.66.02-11.49-.02-2.93 0-5.86-.09-8.79z"/>
    </g>
    <path fill="#c32c2e" d="M44.92 26.86c5.45-4.55 11.02-8.98 16.76-13.17.1 6.01.72 12.04-.03 18.04-5.19 1.79-8.87-4.21-14.07-2.56-.26.68-.79 2.02-1.05 2.7-.54-1.67-1.07-3.34-1.61-5.01z"/>
    <path fill="#100304" opacity=".35" d="M67.74 14.31c1.75-.59 2.5.02 2.25 1.82-.96-.34-1.71-.95-2.25-1.82z"/>
    <g fill="#b8292c">
        <path d="M83.13 47.21c4.65-2.88 9.42-5.57 14.16-8.3.34 17.07.18 34.16.05 51.24-4.8-2.77-9.63-5.47-14.32-8.42-.06-11.51-.23-23.02.11-34.52zM44.87 46.97l.65.47c.13 11.38 0 22.77.04 34.15-.48.35-1.44 1.04-1.91 1.39-4.13 2.55-8.36 4.93-12.54 7.4.09-10.29-.04-20.58.03-30.88 4.36 1.36 8.76.24 12.9-1.31.12 2.27.22 4.59-.51 6.78-1.52-.88-3.12-1.59-4.79-2.13-.1.9-.19 1.79-.29 2.69-.51.21-1.55.62-2.07.83 1.45.99 2.91 1.98 4.36 2.98.61-.28 1.23-.55 1.84-.82.68 1.18 1.36 2.36 2.05 3.54.26-8.36-.31-16.73.24-25.09z"/>
    </g>
    <path opacity=".09" d="M98.11 38.73c1.87 1.96.73 4.88.91 7.3-.14 14.37-.15 28.76.06 43.13l-1.13-.4c-.8-3.55-.01-7.2.01-10.79.21-8.68.02-17.36.16-26.04.17-4.4-.96-8.83-.01-13.2z"/>
    <path fill="#c62d31" d="M31.14 39.2c.5.19 1.5.56 1.99.75 3.9 2.37 7.87 4.62 11.74 7.02-.55 8.36.02 16.73-.24 25.09-.69-1.18-1.37-2.36-2.05-3.54-.61.27-1.23.54-1.84.82-1.45-1-2.91-1.99-4.36-2.98.52-.21 1.56-.62 2.07-.83.1-.9.19-1.79.29-2.69 1.67.54 3.27 1.25 4.79 2.13.73-2.19.63-4.51.51-6.78-4.14 1.55-8.54 2.67-12.9 1.31.03-6.77-.02-13.53 0-20.3z"/>
    <path fill="#060103" opacity=".41" d="M46.98 59.96c.1-1.78-.27-3.77.96-5.26.12 3.83.13 7.66-.02 11.49-1.35-1.8-.81-4.15-.94-6.23z"/>
    <path fill="#090203" opacity=".39" d="M46.99 73.98c.15-2.43-.52-5.14.92-7.3.08 5.51.3 11.03-.04 16.54-1.45-2.86-.68-6.17-.88-9.24z"/>
    <path fill="#b52b2c" d="M45.25 84.28c5.99 4.15 11.89 8.43 17.61 12.96-.19 6.34-.14 12.68-.17 19.02-10.27-8-20.54-16.01-30.72-24.12 3.66-3.64 9.01-4.98 13.28-7.86z"/>
    <path fill="#b52a2b" d="M67.1 96.03c5.23-3.93 10.48-7.85 15.86-11.59 4.55 2.66 9.83 4.26 13.69 7.97-10.64 7.46-20.34 16.26-30.99 23.71 0-6.32-.07-12.64-.14-18.96.4-.28 1.19-.85 1.58-1.13z"/>
</svg>
