<svg width="128pt" height="128pt" viewBox="0 0 128 128" xmlns="http://www.w3.org/2000/svg">
    <path fill="#fff" d="M32.88 29.23c-3.83.19-1.5-5.03.89-5.17 20.63.14 41.26.06 61.89-.01.9 1.41 3.64 4.67.42 5.05-3.76.38-4.98 4.75-5.26 7.91.27 5.79 5.48 9.26 8.44 13.7 4 5.92 8.08 12.85 6.83 20.29-.83 4.34-1.98 8.75-4.48 12.46-2.05 3.6-5.52 5.99-8.46 8.79-.01 2.93.68 5.79 1.26 8.65-1.04.76-2.09 1.52-3.13 2.28-2.61-1.51-4.92-3.46-6.72-5.9-1.48.04-2.96-.03-4.42.22-8.88 2.31-18.21 1.89-27.26 1-3.47-.6-8.34-3.2-10.7.69-1.37 1.74-3.24 2.94-5.15 4.01-1.03-.64-2.06-1.29-3.08-1.95.64-2.99 1.46-5.99 1.26-9.08-3.05-2.78-6.46-5.34-8.55-8.97-3.15-4.82-4.23-10.63-4.81-16.26 1.58-7.66 5.54-14.68 10.71-20.49 2.6-2.9 5.52-6.32 4.88-10.52-.49-2.59-1.4-6.36-4.56-6.7z"/>
</svg>
