<svg width="128pt" height="128pt" viewBox="0 0 128 128" xmlns="http://www.w3.org/2000/svg">
    <path fill="#fff" d="M59.7 24.72c1.22-.89 2.42-1.82 3.62-2.74.32 27.22-.04 54.45.18 81.67-.64.13-1.92.38-2.56.5-4.95-1.63-10.39-3.07-13.98-7.11-3.76-4.16-7.92-8.87-7.45-14.91 1.29-4.17 1.78-8.5 1.85-12.85 1.64 3.39 2.22 7.07 2.1 10.8-.48-5.9 2.58-11.08 6-15.63 2.17-2.47.77-5.71.58-8.57 1.92 2.32 3.56 5.08 3.59 8.18-.45 3.24-2.09 6.12-3.5 9.01 1.84-1.82 3.92-3.41 5.6-5.39-2-10.84-1.18-21.94-.02-32.84 1.01 1.6 2.18 3.1 3.48 4.47-1.2-4.81-.81-9.85.51-14.59z"/>
</svg>
