<svg width="128pt" height="128pt" viewBox="0 0 128 128" xmlns="http://www.w3.org/2000/svg">
    <g fill="#b52829">
        <path d="M75.05 23.79c1.45-.92 2.98-1.71 4.53-2.45-1.19 2.43-2.52 4.79-3.78 7.19.4-1.79.78-3.58 1.15-5.37-.47.15-1.43.47-1.9.63zM33.58 36.99c1.6-.45 3.18-.93 4.77-1.41-.44 1.57-.86 3.14-1.23 4.72-1.24 1.02-2.49 2.04-3.76 3.01-.14-2.11-.09-4.22.22-6.32z"/>
    </g>
    <path fill="#bd2c31" d="M75.05 23.79c.47-.16 1.43-.48 1.9-.63-.37 1.79-.75 3.58-1.15 5.37l-.29 1.3c-2.2-.36-4.41-.61-6.63-.81l1.14-.8c1.26-.78 2.24-1.91 3.17-3.05.46-.34 1.39-1.04 1.86-1.38z"/>
    <path fill="#2e0a0b" opacity=".5" d="M70.02 28.22c-.9-1.65 1.54-4.11 3.17-3.05-.93 1.14-1.91 2.27-3.17 3.05z"/>
    <path fill="#280909" opacity=".44" d="M68.88 29.02c2.22.2 4.43.45 6.63.81l.99.16c-2.59.5-5.55 1.21-7.62-.97z"/>
    <path fill="#5d1416" opacity=".66" d="M89.79 28.71c.95 1.98 1.7 4.05 2.36 6.15-.68-1.55-1.43-3.06-2.15-4.58-.94 1.34-1.88 2.68-2.83 4.01l-.55.77c1.01-2.14 2.07-4.26 3.17-6.35z"/>
    <path fill="#c52c31" d="M87.17 34.29c.95-1.33 1.89-2.67 2.83-4.01.72 1.52 1.47 3.03 2.15 4.58.07 2.07-.28 4.13-1.17 6.01-1.17-1.87-2.28-3.78-3.34-5.72l-.47-.86z"/>
    <g fill="#bd2c2e">
        <path d="M58.48 41.37c1.59-3.46 3.66-6.68 6.47-9.29 2.91.11 5.8.53 8.6 1.37-1.66 8.99-4.4 17.78-8.6 25.91-4.76.31-9.55.25-14.26-.54-.81-5.14-.46-10.37.74-15.42 2.32-.76 4.67-1.44 7.05-2.03zM45.63 71.41c4.11-1.33 7.95-3.42 12.13-4.54 3.93-.65 7.88.24 11.75.85 1.39 3.68 2.58 7.43 3.46 11.27.7 4 4.42 6.51 5.6 10.3.68 3.01.63 6.11.76 9.17-5.16 4.03-11.56 5.65-17.57 7.93-6.17-2.94-9.82-8.91-13.71-14.18-5.56-.93-11.36-1.66-16.16-4.88-.52-2.78-1.36-5.53-1.38-8.37.18-2.26 1.39-4.27 2.24-6.33 4.3-.32 8.64-.43 12.88-1.22z"/>
    </g>
    <path fill="#1e0707" opacity=".38" d="M92.15 34.86c.44 1.39 1.29 2.75 1.09 4.27-.68 1.24-2.24 1.58-3.31 2.38-.98-2.03-1.71-4.18-2.29-6.36 1.06 1.94 2.17 3.85 3.34 5.72.89-1.88 1.24-3.94 1.17-6.01z"/>
    <path fill="#c32d2e" d="M78.38 42.43c1.72-1.94 4.29-2.78 6.5-4 2.44 3.54 5.75 7 5.85 11.56.58 5.19-2.09 9.96-4.81 14.15-2.94 1.17-5.98 2.08-9.08 2.75-1.43-2.24-3.04-4.39-4.18-6.8.11-2.17 1.49-3.99 2.22-5.98 1.75-3.71 2.1-7.86 3.5-11.68z"/>
    <path fill="#bd2c2d" d="M25.97 52.32c1.31-2.67 2.87-5.23 4.85-7.46 2.5.36 5.02.6 7.55.73 4.04 3.95 5.32 9.82 4.65 15.27-1.5 2.4-3.73 5.34-6.91 4.95-1.35-.03-2.69-.15-4.03-.28-1.3-4.71-3.47-9.12-6.11-13.21z"/>
    <path fill="#b52c29" d="M98.67 65.8c1.09-2.17 2.16-4.35 3.31-6.49.44 2.96.77 5.93 1.03 8.9-1.43-.84-2.88-1.63-4.34-2.41z"/>
    <path fill="#c02c2e" d="M91.43 70.22c2.98-1.28 6.14-2.87 9.1-.55.41 2.44.81 4.88 1.11 7.34-3.3 3.95-7.44 7.04-11.69 9.88-2.18-.45-4.39-.87-6.49-1.63-2.18-3.76-1.81-8.34-1.75-12.54 3-1.66 6.4-1.99 9.72-2.5z"/>
</svg>
