<svg width="128pt" height="128pt" viewBox="0 0 128 128" xmlns="http://www.w3.org/2000/svg">
    <g fill="#fff">
        <path d="M58.54 41.63c1.56-3.43 3.36-7.04 6.55-9.23 2.84-.62 5.69.43 8.38 1.26-1.81 8.83-4.31 17.58-8.64 25.54-4.66.55-9.4.3-14.01-.58-1.2-5-.41-10.16.65-15.11 2.27-.9 4.61-1.71 7.07-1.88zM77.61 44.89c.3-3.84 4.53-4.88 7.37-6.41 3.17 4.5 7.11 9.55 5.54 15.45-1.31 4.44-2.98 10.45-8.24 11.46-1.79.52-3.61.95-5.43 1.36-1.29-2.61-4.18-4.79-4.08-7.85 2.32-4.4 4.05-9.08 4.84-14.01zM30.39 45.42c2.61-.67 5.35.25 8.01.34 4.21 3.83 4.77 9.64 4.65 14.99-1.46 1.83-2.81 4.01-5.08 4.89-1.9.17-3.81.06-5.71.03-1.46-4.77-3.6-9.29-6.19-13.55 1.44-2.23 2.41-4.8 4.32-6.7zM45.67 71.59c4.08-1.55 8.06-3.38 12.21-4.73 3.57-.35 7.21.11 10.72.85 1.33.15 1.38 1.76 1.83 2.71 1.23 3.42 2.09 6.96 2.99 10.47 1.43 3.47 5.17 5.94 5.31 9.95.14 2.63.99 5.46-.01 8-5.09 3.72-11.28 5.43-17.19 7.39-6-3.07-9.89-8.84-13.4-14.38-5.42-.19-11.02-1.38-15.66-4.26-2.35-4.63-2.66-10.42.43-14.84 4.26-.35 8.53-.64 12.77-1.16zM88.94 70.75c2.92.13 5.31-1.79 8.01-2.59 1.3.24 2.33 1.14 3.47 1.75.5 2.39.92 4.81.94 7.26-3.16 3.91-7.35 6.68-11.35 9.63-2.44-.39-4.87-.95-7.11-2.01-1.08-3.91-1.54-7.94-1.03-11.99 2.23-1.06 4.56-2.03 7.07-2.05z"/>
    </g>
</svg>
