<svg width="128pt" height="128pt" viewBox="0 0 128 128" xmlns="http://www.w3.org/2000/svg">
    <g fill="#fff">
        <path d="M78.01 21.74c.53-.01 1.07-.02 1.61-.02-1.76 2.44-3.24 5.08-4.2 7.94-2.09-.14-4.19-.22-6.27-.48 2.15-3.34 5.81-5.08 8.86-7.44zM89.96 29.07c1.31 3.36 2.34 6.85 2.57 10.47-.84.27-1.67.55-2.5.83-.8-2.31-2.02-4.45-2.76-6.77 1.3-1.24 2.02-2.89 2.69-4.53zM33.78 37.07c1.57-.45 3.12-.93 4.67-1.44-.91 2.31-1.29 4.97-3.27 6.67l-1.83.44c-.28-1.91-.16-3.83.43-5.67zM98.68 66.02c1.15-2 1.81-4.32 3.35-6.08.41 2.83.76 5.66.95 8.51l-1.75-1.71-2.55-.72z"/>
    </g>
</svg>
