<svg width="128pt" height="128pt" viewBox="0 0 128 128" xmlns="http://www.w3.org/2000/svg">
    <path fill="#b5292c" d="M12.11 29.66c3.37 3.08 6.93 5.98 10.67 8.6 3.06 2.15 6.91 2.83 9.89 5.09.91 1.19 1.39 2.64 2.01 3.98 2.1 1.15 4.3 2.11 6.56 2.89.17-1.44.32-2.89.48-4.34 4.89-1.94 9.5-4.51 14.05-7.14 2.66-1.38 3.95-4.39 3.99-7.28 2.33-.11 4.66-.22 6.99-.32.19 1.47.39 2.93.57 4.4 4.8 3.81 10.43 6.5 16.25 8.38.34 2.34.22 5 2.01 6.82 1.93-.94 3.91-1.8 5.95-2.47.83-1.72 1.47-3.51 2.11-5.3 7.37-3.42 14.8-7.11 20.76-12.75-1.68 8.26-8.35 13.79-12.86 20.5 3.19-2.16 6.88-3.34 10.5-4.54-2.18 3.35-4.6 6.54-7.5 9.3-2.48 2.32-3.99 5.7-7.28 7.04l3.92.36c-4.29 3.26-9.53 5.35-14.89 5.94-.25 4.74.16 9.5-.24 14.23-1.65 3.18-4.01 5.97-6.44 8.58-3.84 3.38-8.48 5.68-12.92 8.15-.11-9.98-.08-19.97-.02-29.95.77-1.1 1.53-2.21 2.28-3.32 3.23-.13 6.46-.17 9.69-.14.56-.53 1.11-1.06 1.67-1.59-5.17-1.81-10.17-4.07-15.4-5.68-2.3-.89-4.56.37-6.68 1.12-3.8 1.59-7.9 2.5-11.45 4.64 3.4 1.38 7.16.87 10.7 1.63.77.93 1.54 1.85 2.31 2.77.1 10.02-.05 20.03.07 30.04-5.27-2.83-10.43-6.12-14.66-10.37-.43-.92-1.08-1.64-1.95-2.15-1.29-1.28-2.75-2.79-2.73-4.74-.31-4.8-.24-9.63-.86-14.41-5.8.09-10.99-2.61-16.03-5.12 2.2.01 4.39.05 6.59.12-6.96-3.3-10.63-10.39-15.14-16.22 3.31 1.39 6.6 2.83 9.72 4.61-4.87-6.72-10.41-13.2-12.69-21.36z"/>
    <path fill="#110303" opacity=".32" d="M43.25 86.78c.87.51 1.52 1.23 1.95 2.15-1.81.35-2.46-.36-1.95-2.15z"/>
</svg>
