<svg width="128pt" height="128pt" viewBox="0 0 128 128" xmlns="http://www.w3.org/2000/svg">
    <path fill="#b82b2c" d="M51.29 22.47c6.2-.1 12.42.35 18.62-.04 3.3-.4 6.56-1.14 9.89-1.31 5.65 4.61 10.24 10.73 12.29 17.77-.35 9.19 1.05 18.27 2.79 27.26 1.26 2.57 3.5 4.48 5.34 6.63-1.5 1.01-2.99 2.04-4.4 3.17-.25 1.71-.53 3.42-.81 5.13-3.04-1.01-5.85-2.56-8.78-3.83-1.31.65-2.62 1.28-3.94 1.92.02 6.26 1.79 12.5.9 18.75-1.45 3.55-4.03 6.49-6.04 9.72 1.61-6.75-.65-13.49-1.5-20.16L73.61 87c-.06.89-.16 2.68-.21 3.57-1.46-.11-2.93-.21-4.39-.31 0-1.32-.01-2.64-.02-3.96-.7-.07-2.11-.22-2.82-.3-.01 1.35-.02 2.7-.02 4.06-.89.11-2.67.34-3.55.45-.1-.53-.29-1.6-.39-2.13l-.32-2.48c-.59.08-1.79.25-2.39.33-.11 1.34.4 2.85-.32 4.08-.92.02-2.76.07-3.68.09-.32-1.36-.65-2.73-.99-4.09-.65 1.14-1.26 2.31-1.77 3.53-1.6 5.76-1.66 11.74-.99 17.63-2.68-4.52-4.59-9.46-6.28-14.42-.05-4.55 1.07-9.02 1.44-13.54-1.44-.9-2.77-2.79-4.7-2.07-2.7.94-5.2 2.37-7.81 3.54-1.29-2.51-2.58-5.15-5.02-6.75 2.18-3.1 5.27-6.12 4.89-10.26-.18-4.33 1.74-8.63.59-12.9-1.83-6.23.82-12.62 2.96-18.41 3.28-4.65 8.42-7.76 13.47-10.19m-9.8 30.66C40.4 57 39.9 61 39.39 64.98c2 2.13 3.8 4.95 6.72 5.83 3.83.04 7.4-2.08 10.28-4.44 2.9-3.97 1.96-9.32.08-13.53-2.33-.6-4.45-1.75-6.69-2.59-3.03-.32-5.64 1.71-8.29 2.88m31.27-1.29c-2.51 3.3-3.13 7.67-1.99 11.62.98 4.64 6.42 5.68 10.17 7.27 3.06-.82 6.47-1.96 8.47-4.56.43-4.27-.81-8.46-1.94-12.53-2.53-1.36-5.08-2.83-7.94-3.37-2.3.34-4.48 1.2-6.77 1.57m-7.47 11.12c-2-.3-3.11-1.55-3.32-3.74-.68 4.23-2.39 8.17-3.73 12.2 1.41 1.87 2.73 3.8 4.01 5.75 1.39-1.31 2.09-3.09 2.66-4.87.67 1.55 1.33 3.11 1.99 4.67 1.18-1.59 2.38-3.17 3.6-4.73-1.97-4.44-3.18-9.14-4.5-13.8-.21 1.51-.45 3.01-.71 4.52z"/>
    <path fill="#200707" opacity=".38" d="M59.5 86.23c.6-.08 1.8-.25 2.39-.33l.32 2.48c-.79 4.26-5.99 3-8.66 1.39l-.59 3.21c-.05-.79-.16-2.35-.22-3.14.51-1.22 1.12-2.39 1.77-3.53.34 1.36.67 2.73.99 4.09.92-.02 2.76-.07 3.68-.09.72-1.23.21-2.74.32-4.08z"/>
    <path fill="#270909" opacity=".42" d="M66.17 86c.71.08 2.12.23 2.82.3.01 1.32.02 2.64.02 3.96 1.46.1 2.93.2 4.39.31.05-.89.15-2.68.21-3.57l2.04.48c.85 6.67 3.11 13.41 1.5 20.16-.1.49-.19.98-.3 1.47.01-6.31-.01-12.64-1.48-18.82-2.25 1.17-4.7 1.22-7.12.61-.18-1.47-.32-2.95-.34-4.44-.46 1.64-1.05 3.24-1.78 4.78-1.18-.25-2.35-.49-3.53-.73.88-.11 2.66-.34 3.55-.45 0-1.36.01-2.71.02-4.06z"/>
</svg>
