<svg width="128pt" height="128pt" viewBox="0 0 128 128" xmlns="http://www.w3.org/2000/svg">
    <g fill="#020000">
        <path opacity=".34" d="M37.18 24c4.65-3.19 10.51-3.69 15.95-4.4 10.67-.65 21.64-.75 32.02 2.19 1.72.4 3.24 1.31 4.65 2.35-8.93-3.07-18.35-4.4-27.78-4.04-8.47-.42-16.8 1.39-24.84 3.9zM58.29 76.2c2.47 5.09 3.16 10.78 4.93 16.11 1.33-4.62 2.41-9.36 4.61-13.68-1.63 6.84-3.81 13.56-4.8 20.54-.34-7.88-3.5-15.24-4.74-22.97z"/>
    </g>
    <path fill="#b5292b" d="M37.18 24c8.04-2.51 16.37-4.32 24.84-3.9 9.43-.36 18.85.97 27.78 4.04 3.24 1.54 7.22 2.73 9.37 5.72.78 14.14-.63 28.36-3.49 42.22-.46 5.23-4.25 9.19-6.9 13.45-6.63 10.07-15.5 18.53-25.62 25.05-6.63-4.85-13.2-9.92-18.54-16.22-4.5-5.34-8.55-11.08-12.13-17.08-4.09-15.83-5.21-32.22-4.8-48.53 3.21-1.48 6.18-3.47 9.49-4.75m13.25 21.15c-2.38 5.69.44 11.45 2.07 16.88-1.14 4.17-5.55 5.87-9.34 6.82 3.56.93 7.22.96 10.86.62 2.58 1.19 3.04 4.43 4.27 6.73 1.24 7.73 4.4 15.09 4.74 22.97.99-6.98 3.17-13.7 4.8-20.54 1.42-3.09 2.53-6.3 3.85-9.43 4.22.56 8.44.14 12.48-1.23-4.05-.25-7.49-2.49-10.49-5.02 1.98-5.72 4.35-11.97 2.22-18.01-2.99-7.11-8.25-12.87-12.74-19.04-4.51 6.22-9.51 12.22-12.72 19.25z"/>
    <path fill="#300b0b" opacity=".51" d="M26.85 31.95c.13-1.1.41-2.17.84-3.2-.41 16.31.71 32.7 4.8 48.53-.78-.93-1.32-1.99-1.6-3.15-2.9-13.86-4.59-28.02-4.04-42.18z"/>
    <path fill="#bb2c2c" d="M55.89 50.11c-.91-5.1 4.68-10.27 9.72-8.58 4.09 1.01 6.61 5.51 5.53 9.56-1.84 7.9-5.15 15.34-7.81 22.98-2.11-8.1-6.37-15.58-7.44-23.96z"/>
</svg>
