<svg width="128pt" height="128pt" viewBox="0 0 128 128" xmlns="http://www.w3.org/2000/svg">
    <path fill="#fff" d="M33.04 26.09c9.16-4.75 19.7-6.3 29.93-6 11.29-.32 23 1.37 32.87 7.14 1.15.68 2.73 1.11 3.24 2.5.86 15.45-.92 30.98-4.27 46.03-7.63 13.87-18.28 26.2-31.67 34.79-6.1-4.7-12.35-9.33-17.48-15.12-5.19-6.06-9.92-12.59-13.76-19.6-3.39-15.14-5.28-30.76-4.19-46.29.6-1.37 2.13-1.79 3.34-2.45.5-.25 1.49-.75 1.99-1m21.19 12.09c-2.38 3.79-5.22 7.85-4.62 12.57-.58.07-1.75.21-2.33.27.56.04 1.69.11 2.25.15.04 3.89 1.86 7.42 3.09 11.03-1.79 3.72-5.5 5.82-9.5 6.34 3.47 1.47 7.2 1.44 10.87.93 3.05 1.77 3.59 5.65 4.61 8.73 1.56 6.72 4.01 13.27 4.44 20.2 1.77-10.02 4.67-19.83 8.72-29.17 4.3.57 8.59.13 12.63-1.46-4.08.02-7.78-2.23-10.65-4.97 2.13-5.63 4.36-11.89 2.25-17.88-2.58-5.96-6.68-11.08-10.57-16.22-.82-.81-1.22-2.25-2.41-2.59-3.22 3.78-5.99 7.96-8.78 12.07z"/>
</svg>
