<svg width="128pt" height="128pt" viewBox="0 0 128 128" xmlns="http://www.w3.org/2000/svg">
    <g fill="#fff">
        <path d="M98.56 21.48c2.34 2.33 4.68 4.66 7 7.01-1.7 1.69-3.38 3.4-5.11 5.06.94-.08 2.84-.23 3.79-.31 1.55 1.62 3.1 3.24 4.68 4.83 1.04-1.03 2.09-2.05 3.14-3.08 3.27 3.23 6.46 6.54 9.79 9.7-2.18 2.11-4.34 4.24-6.4 6.46-1.43-1.16-2.73-2.47-4.01-3.79.89-.92 1.78-1.84 2.68-2.76-1.25-1.24-2.48-2.48-3.71-3.72-1.28 1.23-2.54 2.46-3.8 3.71-1.87-1.94-3.78-3.85-5.74-5.71-1 1.02-2.01 2.03-3.02 3.04 1.91 1.91 3.82 3.83 5.72 5.75-1.24 1.23-2.47 2.46-3.72 3.68 1.25 1.26 2.51 2.51 3.76 3.78.9-.88 1.8-1.77 2.69-2.65 1.24 1.3 2.53 2.54 3.86 3.75-2.08 2.26-4.29 4.39-6.45 6.57-3.29-3.2-6.51-6.45-9.71-9.73 1.03-1.03 2.06-2.05 3.09-3.07-1.62-1.64-3.26-3.26-4.91-4.87.09-.91.27-2.73.35-3.64-2.77 2.85-5.61 5.64-8.43 8.45-2.09-2.55-4.5-4.81-6.95-7.02 7.11-7.17 14.32-14.25 21.41-21.44zM74.14 45.92c.51-.5 1.53-1.51 2.04-2.01 2.34 2.33 4.67 4.68 6.99 7.03-.66.62-1.32 1.26-1.98 1.89-2.32-2.33-4.69-4.61-7.05-6.91zM73.1 47.08c2.76 1.54 4.74 4.59 7.18 6.73-2.47 2.42-4.9 4.87-7.32 7.33-2.31-2.29-4.66-4.56-7.15-6.66 2.28-2.61 4.73-5.06 7.29-7.4zM42.33 77.78c3.55-3.61 7.14-7.18 10.71-10.77 2.43 2.38 4.81 4.83 7.4 7.04-4.11 3.13-7.39 7.22-11.15 10.74 2.71 5.06 3.31 11.27 1.22 16.66-2.88 7.78-11.28 13.03-19.54 12.26-9.54-.55-17.54-9.22-17.75-18.69-.24-7.84 4.87-15.52 12.19-18.34 5.42-2.36 11.77-1.61 16.92 1.1m-13.17 5.28c-3.57 1.1-6.55 3.9-7.68 7.49-2.5 6.34 1.98 14.13 8.64 15.36 6.87 1.88 14.25-3.94 14.36-10.99.7-7.84-7.88-14.5-15.32-11.86z"/>
    </g>
</svg>
